<?xml version="1.0" encoding="UTF-8" standalone="no"?>
<!DOCTYPE svg PUBLIC "-//W3C//DTD SVG 1.1//EN"
 "http://www.w3.org/Graphics/SVG/1.1/DTD/svg11.dtd">
<!-- Generated by graphviz version 2.43.0 (0)
 -->
<!-- Title: ConfigDialog::genKey Pages: 1 -->
<svg width="550pt" height="27pt"
 viewBox="0.00 0.00 550.00 27.00" xmlns="http://www.w3.org/2000/svg" xmlns:xlink="http://www.w3.org/1999/xlink">
<g id="graph0" class="graph" transform="scale(1 1) rotate(0) translate(4 23)">
<title>ConfigDialog::genKey</title>
<!-- Node1 -->
<g id="Node000001" class="node">
<title>Node1</title>
<g id="a_Node000001"><a xlink:title="ConfigDialog::genKey tunnel function to make MainWindow generate a gpg key pair.">
<polygon fill="#999999" stroke="#666666" points="121,-19 0,-19 0,0 121,0 121,-19"/>
<text text-anchor="middle" x="60.5" y="-7" font-family="Helvetica,sans-Serif" font-size="10.00">ConfigDialog::genKey</text>
</a>
</g>
</g>
<!-- Node2 -->
<g id="Node000002" class="node">
<title>Node2</title>
<g id="a_Node000002"><a xlink:href="class_main_window.html#a3b9eaa6de9809fbc8b52c298133dfe16" target="_top" xlink:title="MainWindow::generateKeyPair internal gpg keypair generator . .">
<polygon fill="white" stroke="#666666" points="321,-19 157,-19 157,0 321,0 321,-19"/>
<text text-anchor="middle" x="239" y="-7" font-family="Helvetica,sans-Serif" font-size="10.00">MainWindow::generateKeyPair</text>
</a>
</g>
</g>
<!-- Node1&#45;&gt;Node2 -->
<g id="edge1_Node000001_Node000002" class="edge">
<title>Node1&#45;&gt;Node2</title>
<g id="a_edge1_Node000001_Node000002"><a xlink:title=" ">
<path fill="none" stroke="#63b8ff" d="M121.25,-9.5C129.45,-9.5 138.01,-9.5 146.61,-9.5"/>
<polygon fill="#63b8ff" stroke="#63b8ff" points="146.71,-13 156.71,-9.5 146.71,-6 146.71,-13"/>
</a>
</g>
</g>
<!-- Node3 -->
<g id="Node000003" class="node">
<title>Node3</title>
<g id="a_Node000003"><a xlink:href="class_main_window.html#a7e72f32612c2436ff4756c5c25b6b4ec" target="_top" xlink:title=" ">
<polygon fill="white" stroke="#666666" points="542,-19 357,-19 357,0 542,0 542,-19"/>
<text text-anchor="middle" x="449.5" y="-7" font-family="Helvetica,sans-Serif" font-size="10.00">MainWindow::generateGPGKeyPair</text>
</a>
</g>
</g>
<!-- Node2&#45;&gt;Node3 -->
<g id="edge2_Node000002_Node000003" class="edge">
<title>Node2&#45;&gt;Node3</title>
<g id="a_edge2_Node000002_Node000003"><a xlink:title=" ">
<path fill="none" stroke="#63b8ff" d="M321.21,-9.5C329.59,-9.5 338.18,-9.5 346.75,-9.5"/>
<polygon fill="#63b8ff" stroke="#63b8ff" points="346.79,-13 356.79,-9.5 346.79,-6 346.79,-13"/>
</a>
</g>
</g>
</g>
</svg>
