<?xml version="1.0" encoding="UTF-8" standalone="no"?>
<!DOCTYPE svg PUBLIC "-//W3C//DTD SVG 1.1//EN"
 "http://www.w3.org/Graphics/SVG/1.1/DTD/svg11.dtd">
<!-- Generated by graphviz version 2.43.0 (0)
 -->
<!-- Title: QtPass::copyTextToClipboard Pages: 1 -->
<svg width="571pt" height="64pt"
 viewBox="0.00 0.00 571.00 64.00" xmlns="http://www.w3.org/2000/svg" xmlns:xlink="http://www.w3.org/1999/xlink">
<g id="graph0" class="graph" transform="scale(1 1) rotate(0) translate(4 60)">
<title>QtPass::copyTextToClipboard</title>
<!-- Node1 -->
<g id="Node000001" class="node">
<title>Node1</title>
<g id="a_Node000001"><a xlink:title="MainWindow::copyTextToClipboard copies text to your clipboard.">
<polygon fill="#999999" stroke="#666666" points="563,-37 407,-37 407,-18 563,-18 563,-37"/>
<text text-anchor="middle" x="485" y="-25" font-family="Helvetica,sans-Serif" font-size="10.00">QtPass::copyTextToClipboard</text>
</a>
</g>
</g>
<!-- Node2 -->
<g id="Node000002" class="node">
<title>Node2</title>
<g id="a_Node000002"><a xlink:href="class_main_window.html#a7997fd865548c3baa51f1863bb8fdfa0" target="_top" xlink:title=" ">
<polygon fill="white" stroke="#666666" points="371,-56 208,-56 208,-37 371,-37 371,-56"/>
<text text-anchor="middle" x="289.5" y="-44" font-family="Helvetica,sans-Serif" font-size="10.00">MainWindow::passOtpHandler</text>
</a>
</g>
</g>
<!-- Node1&#45;&gt;Node2 -->
<g id="edge1_Node000001_Node000002" class="edge">
<title>Node1&#45;&gt;Node2</title>
<g id="a_edge1_Node000001_Node000002"><a xlink:title=" ">
<path fill="none" stroke="#63b8ff" d="M396.93,-36.05C388.32,-36.89 379.61,-37.75 371.07,-38.59"/>
<polygon fill="#63b8ff" stroke="#63b8ff" points="397.36,-39.52 406.97,-35.06 396.67,-32.56 397.36,-39.52"/>
</a>
</g>
</g>
<!-- Node3 -->
<g id="Node000003" class="node">
<title>Node3</title>
<g id="a_Node000003"><a xlink:href="class_qt_pass.html#a74adba9dd6915c9db50762279b62be89" target="_top" xlink:title=" ">
<polygon fill="white" stroke="#666666" points="353.5,-19 225.5,-19 225.5,0 353.5,0 353.5,-19"/>
<text text-anchor="middle" x="289.5" y="-7" font-family="Helvetica,sans-Serif" font-size="10.00">QtPass::setClippedText</text>
</a>
</g>
</g>
<!-- Node1&#45;&gt;Node3 -->
<g id="edge2_Node000001_Node000003" class="edge">
<title>Node1&#45;&gt;Node3</title>
<g id="a_edge2_Node000001_Node000003"><a xlink:title=" ">
<path fill="none" stroke="#63b8ff" d="M396.93,-19.4C382.33,-18.04 367.44,-16.66 353.6,-15.37"/>
<polygon fill="#63b8ff" stroke="#63b8ff" points="396.69,-22.89 406.97,-20.33 397.33,-15.92 396.69,-22.89"/>
</a>
</g>
</g>
<!-- Node4 -->
<g id="Node000004" class="node">
<title>Node4</title>
<g id="a_Node000004"><a xlink:href="class_main_window.html#a0d75695e555bac7331e1ea22bc3159df" target="_top" xlink:title=" ">
<polygon fill="white" stroke="#666666" points="172,-19 0,-19 0,0 172,0 172,-19"/>
<text text-anchor="middle" x="86" y="-7" font-family="Helvetica,sans-Serif" font-size="10.00">MainWindow::passShowHandler</text>
</a>
</g>
</g>
<!-- Node3&#45;&gt;Node4 -->
<g id="edge3_Node000003_Node000004" class="edge">
<title>Node3&#45;&gt;Node4</title>
<g id="a_edge3_Node000003_Node000004"><a xlink:title=" ">
<path fill="none" stroke="#63b8ff" d="M215.25,-9.5C201.25,-9.5 186.48,-9.5 172.14,-9.5"/>
<polygon fill="#63b8ff" stroke="#63b8ff" points="215.3,-13 225.3,-9.5 215.3,-6 215.3,-13"/>
</a>
</g>
</g>
</g>
</svg>
