<?xml version="1.0" encoding="UTF-8" standalone="no"?>
<!DOCTYPE svg PUBLIC "-//W3C//DTD SVG 1.1//EN"
 "http://www.w3.org/Graphics/SVG/1.1/DTD/svg11.dtd">
<!-- Generated by graphviz version 2.43.0 (0)
 -->
<!-- Title: Executor::executeBlocking Pages: 1 -->
<!--zoomable 252 -->

<svg id="main" version="1.1" xmlns="http://www.w3.org/2000/svg" xmlns:xlink="http://www.w3.org/1999/xlink" xml:space="preserve" onload="init(evt)">
<style type="text/css"><![CDATA[
.node, .edge {opacity: 0.7;}
.node.selected, .edge.selected {opacity: 1;}
.edge:hover path { stroke: red; }
.edge:hover polygon { stroke: red; fill: red; }
]]></style>

<defs>
  <circle id="rim" cx="0" cy="0" r="7"/>
  <circle id="rim2" cx="0" cy="0" r="3.5"/>
  <g id="zoomPlus">
    <use xlink:href="#rim" fill="#404040"><set attributeName="fill" to="#808080" begin="zoomplus.mouseover" end="zoomplus.mouseout"/></use>
    <path d="M-4,0h8M0,-4v8" fill="none" stroke="white" stroke-width="1.5" pointer-events="none"/>
  </g>
  <g id="zoomMin">
    <use xlink:href="#rim" fill="#404040"><set attributeName="fill" to="#808080" begin="zoomminus.mouseover" end="zoomminus.mouseout"/></use>
    <path d="M-4,0h8" fill="none" stroke="white" stroke-width="1.5" pointer-events="none"/>
  </g>
  <g id="arrowUp" transform="translate(30 24)">
    <use xlink:href="#rim"/>
    <path pointer-events="none" fill="none" stroke="white" stroke-width="1.5" d="M0,-3.0v7 M-2.5,-0.5L0,-3.0L2.5,-0.5"/>
  </g>
  <g id="arrowRight" transform="rotate(90) translate(36 -43)">
    <use xlink:href="#rim"/>
    <path pointer-events="none" fill="none" stroke="white" stroke-width="1.5" d="M0,-3.0v7 M-2.5,-0.5L0,-3.0L2.5,-0.5"/>
  </g>
  <g id="arrowDown" transform="rotate(180) translate(-30 -48)">
    <use xlink:href="#rim"/>
    <path pointer-events="none" fill="none" stroke="white" stroke-width="1.5" d="M0,-3.0v7 M-2.5,-0.5L0,-3.0L2.5,-0.5"/>
  </g>
  <g id="arrowLeft" transform="rotate(270) translate(-36 17)">
    <use xlink:href="#rim"/>
    <path pointer-events="none" fill="none" stroke="white" stroke-width="1.5" d="M0,-3.0v7 M-2.5,-0.5L0,-3.0L2.5,-0.5"/>
  </g>
  <g id="resetDef">
    <use xlink:href="#rim2" fill="#404040"><set attributeName="fill" to="#808080" begin="reset.mouseover" end="reset.mouseout"/></use>
  </g>
</defs>
<script type="application/ecmascript">
var viewWidth = 842;
var viewHeight = 252;
var sectionId = 'dynsection-8';
</script>
<script type="application/ecmascript" xlink:href="svg.min.js"/>
<svg id="graph" class="graph">
<g id="viewport">
<title>Executor::executeBlocking</title>
<!-- Node1 -->
<g id="Node000001" class="node">
<title>Node1</title>
<g id="a_Node000001"><a xlink:title="Executor::executeBlocking blocking version of the executor, takes input and presents it as stdin.">
<polygon fill="#999999" stroke="#666666" points="834,-132 689,-132 689,-113 834,-113 834,-132"/>
<text text-anchor="middle" x="761.5" y="-120" font-family="Helvetica,sans-Serif" font-size="10.00">Executor::executeBlocking</text>
</a>
</g>
</g>
<!-- Node2 -->
<g id="Node000002" class="node">
<title>Node2</title>
<g id="a_Node000002"><a xlink:href="class_util.html#adbd6573f3b8c9bde13ca0a9aa683a3be" target="_top" xlink:title="Util::findBinaryInPath search for executables.">
<polygon fill="white" stroke="#666666" points="651,-244 532,-244 532,-225 651,-225 651,-244"/>
<text text-anchor="middle" x="591.5" y="-232" font-family="Helvetica,sans-Serif" font-size="10.00">Util::findBinaryInPath</text>
</a>
</g>
</g>
<!-- Node1&#45;&gt;Node2 -->
<g id="edge1_Node000001_Node000002" class="edge">
<title>Node1&#45;&gt;Node2</title>
<g id="a_edge1_Node000001_Node000002"><a xlink:title=" ">
<path fill="none" stroke="#63b8ff" d="M745.19,-139.84C725.73,-160.86 690.18,-196 653,-216.5 646.95,-219.83 640.22,-222.62 633.5,-224.92"/>
<polygon fill="#63b8ff" stroke="#63b8ff" points="747.92,-142.04 752.05,-132.28 742.73,-137.33 747.92,-142.04"/>
</a>
</g>
</g>
<!-- Node6 -->
<g id="Node000006" class="node">
<title>Node6</title>
<g id="a_Node000006"><a xlink:href="class_pass.html#a8cff21960fa7bc334a8fba8c3fff5d07" target="_top" xlink:title="Pass::Generate use either pwgen or internal password generator.">
<polygon fill="white" stroke="#666666" points="642,-207 541,-207 541,-188 642,-188 642,-207"/>
<text text-anchor="middle" x="591.5" y="-195" font-family="Helvetica,sans-Serif" font-size="10.00">Pass::Generate_b</text>
</a>
</g>
</g>
<!-- Node1&#45;&gt;Node6 -->
<g id="edge5_Node000001_Node000006" class="edge">
<title>Node1&#45;&gt;Node6</title>
<g id="a_edge5_Node000001_Node000006"><a xlink:title=" ">
<path fill="none" stroke="#63b8ff" d="M736.22,-137.16C714.86,-149.63 682.63,-167.38 653,-179.5 645.29,-182.65 636.83,-185.52 628.74,-187.99"/>
<polygon fill="#63b8ff" stroke="#63b8ff" points="738.12,-140.11 744.95,-132.01 734.56,-134.08 738.12,-140.11"/>
</a>
</g>
</g>
<!-- Node7 -->
<g id="Node000007" class="node">
<title>Node7</title>
<g id="a_Node000007"><a xlink:href="class_imitate_pass.html#a7c125494de4869c06a6ef26697101b7e" target="_top" xlink:title="ImitatePass::GitPull_b git pull wrapper.">
<polygon fill="white" stroke="#666666" points="653,-170 530,-170 530,-151 653,-151 653,-170"/>
<text text-anchor="middle" x="591.5" y="-158" font-family="Helvetica,sans-Serif" font-size="10.00">ImitatePass::GitPull_b</text>
</a>
</g>
</g>
<!-- Node1&#45;&gt;Node7 -->
<g id="edge6_Node000001_Node000007" class="edge">
<title>Node1&#45;&gt;Node7</title>
<g id="a_edge6_Node000001_Node000007"><a xlink:title=" ">
<path fill="none" stroke="#63b8ff" d="M708.22,-134.32C684.54,-139.68 656.91,-145.93 634.59,-150.98"/>
<polygon fill="#63b8ff" stroke="#63b8ff" points="709.13,-137.71 718.11,-132.09 707.58,-130.88 709.13,-137.71"/>
</a>
</g>
</g>
<!-- Node8 -->
<g id="Node000008" class="node">
<title>Node8</title>
<g id="a_Node000008"><a xlink:href="class_imitate_pass.html#af331446d163c31f1fca714646c0f6244" target="_top" xlink:title="ImitatePass::reencryptPath reencrypt all files under the chosen directory.">
<polygon fill="white" stroke="#666666" points="482.5,-132 335.5,-132 335.5,-113 482.5,-113 482.5,-132"/>
<text text-anchor="middle" x="409" y="-120" font-family="Helvetica,sans-Serif" font-size="10.00">ImitatePass::reencryptPath</text>
</a>
</g>
</g>
<!-- Node1&#45;&gt;Node8 -->
<g id="edge13_Node000001_Node000008" class="edge">
<title>Node1&#45;&gt;Node8</title>
<g id="a_edge13_Node000001_Node000008"><a xlink:title=" ">
<path fill="none" stroke="#63b8ff" d="M678.63,-122.5C619.26,-122.5 539.69,-122.5 482.58,-122.5"/>
<polygon fill="#63b8ff" stroke="#63b8ff" points="678.73,-126 688.73,-122.5 678.73,-119 678.73,-126"/>
</a>
</g>
</g>
<!-- Node10 -->
<g id="Node000010" class="node">
<title>Node10</title>
<g id="a_Node000010"><a xlink:href="class_imitate_pass.html#ada992297c21ae7069b91c9ae48f87ee9" target="_top" xlink:title="ImitatePass::Init initialize pass repository.">
<polygon fill="white" stroke="#666666" points="283.5,-95 188.5,-95 188.5,-76 283.5,-76 283.5,-95"/>
<text text-anchor="middle" x="236" y="-83" font-family="Helvetica,sans-Serif" font-size="10.00">ImitatePass::Init</text>
</a>
</g>
</g>
<!-- Node1&#45;&gt;Node10 -->
<g id="edge11_Node000001_Node000010" class="edge">
<title>Node1&#45;&gt;Node10</title>
<g id="a_edge11_Node000001_Node000010"><a xlink:title=" ">
<path fill="none" stroke="#63b8ff" d="M678.66,-116.72C567.62,-108.87 372.89,-95.1 283.84,-88.81"/>
<polygon fill="#63b8ff" stroke="#63b8ff" points="678.59,-120.22 688.81,-117.43 679.08,-113.24 678.59,-120.22"/>
</a>
</g>
</g>
<!-- Node11 -->
<g id="Node000011" class="node">
<title>Node11</title>
<g id="a_Node000011"><a xlink:href="class_real_pass.html#aafddf4b1033ca87f286c74eed644fae6" target="_top" xlink:title="RealPass::GitInit pass git pull wrapper which blocks until process finishes.">
<polygon fill="white" stroke="#666666" points="646.5,-56 536.5,-56 536.5,-37 646.5,-37 646.5,-56"/>
<text text-anchor="middle" x="591.5" y="-44" font-family="Helvetica,sans-Serif" font-size="10.00">RealPass::GitPull_b</text>
</a>
</g>
</g>
<!-- Node1&#45;&gt;Node11 -->
<g id="edge10_Node000001_Node000011" class="edge">
<title>Node1&#45;&gt;Node11</title>
<g id="a_edge10_Node000001_Node000011"><a xlink:title=" ">
<path fill="none" stroke="#63b8ff" d="M732.45,-108.24C710.91,-97.45 680.32,-82.51 653,-70.5 641.52,-65.45 628.62,-60.27 617.69,-56.02"/>
<polygon fill="#63b8ff" stroke="#63b8ff" points="731.16,-111.51 741.66,-112.87 734.3,-105.25 731.16,-111.51"/>
</a>
</g>
</g>
<!-- Node12 -->
<g id="Node000012" class="node">
<title>Node12</title>
<g id="a_Node000012"><a xlink:href="class_pass.html#a6ed6c10b07137f62e127b290ebd428a2" target="_top" xlink:title="Pass::listKeys list users.">
<polygon fill="white" stroke="#666666" points="633,-19 550,-19 550,0 633,0 633,-19"/>
<text text-anchor="middle" x="591.5" y="-7" font-family="Helvetica,sans-Serif" font-size="10.00">Pass::listKeys</text>
</a>
</g>
</g>
<!-- Node1&#45;&gt;Node12 -->
<g id="edge12_Node000001_Node000012" class="edge">
<title>Node1&#45;&gt;Node12</title>
<g id="a_edge12_Node000001_Node000012"><a xlink:title=" ">
<path fill="none" stroke="#63b8ff" d="M745.52,-105.29C726.17,-84.08 690.49,-48.3 653,-27.5 646.87,-24.1 640.02,-21.27 633.2,-18.95"/>
<polygon fill="#63b8ff" stroke="#63b8ff" points="743.05,-107.78 752.33,-112.9 748.27,-103.12 743.05,-107.78"/>
</a>
</g>
</g>
<!-- Node3 -->
<g id="Node000003" class="node">
<title>Node3</title>
<g id="a_Node000003"><a xlink:href="class_qt_pass_settings.html#a64ffdab0605be803054150d438254c56" target="_top" xlink:title=" ">
<polygon fill="white" stroke="#666666" points="494,-244 324,-244 324,-225 494,-225 494,-244"/>
<text text-anchor="middle" x="409" y="-232" font-family="Helvetica,sans-Serif" font-size="10.00">QtPassSettings::initExecutables</text>
</a>
</g>
</g>
<!-- Node2&#45;&gt;Node3 -->
<g id="edge2_Node000002_Node000003" class="edge">
<title>Node2&#45;&gt;Node3</title>
<g id="a_edge2_Node000002_Node000003"><a xlink:title=" ">
<path fill="none" stroke="#63b8ff" d="M521.84,-234.5C512.81,-234.5 503.46,-234.5 494.2,-234.5"/>
<polygon fill="#63b8ff" stroke="#63b8ff" points="521.9,-238 531.9,-234.5 521.9,-231 521.9,-238"/>
</a>
</g>
</g>
<!-- Node4 -->
<g id="Node000004" class="node">
<title>Node4</title>
<g id="a_Node000004"><a xlink:href="class_qt_pass.html#ad0a4d7627e6303e412d4a832a8bad77c" target="_top" xlink:title="QtPass::init make sure we are ready to go as soon as possible.">
<polygon fill="white" stroke="#666666" points="271.5,-244 200.5,-244 200.5,-225 271.5,-225 271.5,-244"/>
<text text-anchor="middle" x="236" y="-232" font-family="Helvetica,sans-Serif" font-size="10.00">QtPass::init</text>
</a>
</g>
</g>
<!-- Node3&#45;&gt;Node4 -->
<g id="edge3_Node000003_Node000004" class="edge">
<title>Node3&#45;&gt;Node4</title>
<g id="a_edge3_Node000003_Node000004"><a xlink:title=" ">
<path fill="none" stroke="#63b8ff" d="M313.43,-234.5C298.57,-234.5 284.08,-234.5 271.78,-234.5"/>
<polygon fill="#63b8ff" stroke="#63b8ff" points="313.75,-238 323.75,-234.5 313.75,-231 313.75,-238"/>
</a>
</g>
</g>
<!-- Node5 -->
<g id="Node000005" class="node">
<title>Node5</title>
<g id="a_Node000005"><a xlink:href="class_main_window.html#a52e97245b2f88492071e639395c4a15a" target="_top" xlink:title="MainWindow::MainWindow handles all of the main functionality and also the main window.">
<polygon fill="white" stroke="#666666" points="148,-244 0,-244 0,-225 148,-225 148,-244"/>
<text text-anchor="middle" x="74" y="-232" font-family="Helvetica,sans-Serif" font-size="10.00">MainWindow::MainWindow</text>
</a>
</g>
</g>
<!-- Node4&#45;&gt;Node5 -->
<g id="edge4_Node000004_Node000005" class="edge">
<title>Node4&#45;&gt;Node5</title>
<g id="a_edge4_Node000004_Node000005"><a xlink:title=" ">
<path fill="none" stroke="#63b8ff" d="M190.16,-234.5C177.08,-234.5 162.43,-234.5 148.08,-234.5"/>
<polygon fill="#63b8ff" stroke="#63b8ff" points="190.28,-238 200.28,-234.5 190.28,-231 190.28,-238"/>
</a>
</g>
</g>
<!-- Node7&#45;&gt;Node8 -->
<g id="edge7_Node000007_Node000008" class="edge">
<title>Node7&#45;&gt;Node8</title>
<g id="a_edge7_Node000007_Node000008"><a xlink:title=" ">
<path fill="none" stroke="#63b8ff" d="M535.02,-148.82C509.42,-143.43 479.42,-137.11 455.22,-132.02"/>
<polygon fill="#63b8ff" stroke="#63b8ff" points="534.45,-152.28 544.95,-150.91 535.89,-145.43 534.45,-152.28"/>
</a>
</g>
</g>
<!-- Node9 -->
<g id="Node000009" class="node">
<title>Node9</title>
<g id="a_Node000009"><a xlink:href="class_imitate_pass.html#a6db1849662fe03e61f9410fce080890d" target="_top" xlink:title=" ">
<polygon fill="white" stroke="#666666" points="288,-132 184,-132 184,-113 288,-113 288,-132"/>
<text text-anchor="middle" x="236" y="-120" font-family="Helvetica,sans-Serif" font-size="10.00">ImitatePass::Copy</text>
</a>
</g>
</g>
<!-- Node8&#45;&gt;Node9 -->
<g id="edge8_Node000008_Node000009" class="edge">
<title>Node8&#45;&gt;Node9</title>
<g id="a_edge8_Node000008_Node000009"><a xlink:title=" ">
<path fill="none" stroke="#63b8ff" d="M325.34,-122.5C312.64,-122.5 299.87,-122.5 288.13,-122.5"/>
<polygon fill="#63b8ff" stroke="#63b8ff" points="325.48,-126 335.48,-122.5 325.48,-119 325.48,-126"/>
</a>
</g>
</g>
<!-- Node8&#45;&gt;Node10 -->
<g id="edge9_Node000008_Node000010" class="edge">
<title>Node8&#45;&gt;Node10</title>
<g id="a_edge9_Node000008_Node000010"><a xlink:title=" ">
<path fill="none" stroke="#63b8ff" d="M354.15,-110.85C330.66,-105.77 303.46,-99.88 281.18,-95.06"/>
<polygon fill="#63b8ff" stroke="#63b8ff" points="353.45,-114.28 363.96,-112.97 354.93,-107.44 353.45,-114.28"/>
</a>
</g>
</g>
</g>
</svg>

<g id="navigator" transform="translate(0 0)" fill="#404254">
  <rect fill="#f2f5e9" fill-opacity="0.5" stroke="#606060" stroke-width=".5" x="0" y="0" width="60" height="60"/>
  <use id="zoomplus" xlink:href="#zoomPlus" x="17" y="9" onmousedown="handleZoom(evt,'in')"/>
  <use id="zoomminus" xlink:href="#zoomMin" x="42" y="9" onmousedown="handleZoom(evt,'out')"/>
  <use id="reset" xlink:href="#resetDef" x="30" y="36" onmousedown="handleReset()"/>
   <use id="arrowup" xlink:href="#arrowUp" x="0" y="0" onmousedown="handlePan(0,-1)"/>
  <use id="arrowright" xlink:href="#arrowRight" x="0" y="0" onmousedown="handlePan(1,0)"/>
  <use id="arrowdown" xlink:href="#arrowDown" x="0" y="0" onmousedown="handlePan(0,1)"/>
  <use id="arrowleft" xlink:href="#arrowLeft" x="0" y="0" onmousedown="handlePan(-1,0)"/>
</g>
<svg viewBox="0 0 15 15" width="100%" height="30px" preserveAspectRatio="xMaxYMin meet">
 <g id="arrow_out" transform="scale(0.3 0.3)">
  <a xlink:href="class_executor_a2673768d875e9207a6a178dd1a489828_icgraph_org.svg" target="_base">
   <rect id="button" ry="5" rx="5" y="6" x="6" height="38" width="38"
        fill="#f2f5e9" fill-opacity="0.5" stroke="#606060" stroke-width="1.0"/>
   <path id="arrow"
     d="M 11.500037,31.436501 C 11.940474,20.09759 22.043105,11.32322 32.158766,21.979434 L 37.068811,17.246167 C 37.068811,17.246167 37.088388,32 37.088388,32 L 22.160133,31.978069 C 22.160133,31.978069 26.997745,27.140456 26.997745,27.140456 C 18.528582,18.264221 13.291696,25.230495 11.500037,31.436501 z"
     style="fill:#404040;"/>
  </a>
 </g>
</svg>

<style type='text/css'>
<![CDATA[
[data-mouse-over-selected='false'] { opacity: 0.7; }
[data-mouse-over-selected='true']  { opacity: 1.0; }
]]>
</style>
<script type="application/ecmascript"><![CDATA[
document.addEventListener('DOMContentLoaded', (event) => {
  highlightEdges();
  highlightAdjacentNodes();
});
]]></script>
</svg>
