<?xml version="1.0" encoding="UTF-8" standalone="no"?>
<!DOCTYPE svg PUBLIC "-//W3C//DTD SVG 1.1//EN"
 "http://www.w3.org/Graphics/SVG/1.1/DTD/svg11.dtd">
<!-- Generated by graphviz version 2.43.0 (0)
 -->
<!-- Title: src/passworddialog.h Pages: 1 -->
<svg width="420pt" height="82pt"
 viewBox="0.00 0.00 420.00 82.00" xmlns="http://www.w3.org/2000/svg" xmlns:xlink="http://www.w3.org/1999/xlink">

<svg id="main" version="1.1" xmlns="http://www.w3.org/2000/svg" xmlns:xlink="http://www.w3.org/1999/xlink" xml:space="preserve" onload="init(evt)">
<style type="text/css"><![CDATA[
.node, .edge {opacity: 0.7;}
.node.selected, .edge.selected {opacity: 1;}
.edge:hover path { stroke: red; }
.edge:hover polygon { stroke: red; fill: red; }
]]></style>
<script type="application/ecmascript" xlink:href="svg.min.js"/>
<svg id="graph" class="graph">
<g id="graph0" class="graph" transform="scale(1 1) rotate(0) translate(4 78)">
<title>src/passworddialog.h</title>
<!-- Node1 -->
<g id="Node000001" class="node">
<title>Node1</title>
<g id="a_Node000001"><a xlink:title=" ">
<polygon fill="#999999" stroke="#666666" points="259.5,-74 140.5,-74 140.5,-55 259.5,-55 259.5,-74"/>
<text text-anchor="middle" x="200" y="-62" font-family="Helvetica,sans-Serif" font-size="10.00">src/passworddialog.h</text>
</a>
</g>
</g>
<!-- Node2 -->
<g id="Node000002" class="node">
<title>Node2</title>
<g id="a_Node000002"><a xlink:href="mainwindow_8cpp.html" target="_top" xlink:title=" ">
<polygon fill="white" stroke="#666666" points="116,-19 0,-19 0,0 116,0 116,-19"/>
<text text-anchor="middle" x="58" y="-7" font-family="Helvetica,sans-Serif" font-size="10.00">src/mainwindow.cpp</text>
</a>
</g>
</g>
<!-- Node1&#45;&gt;Node2 -->
<g id="edge1_Node000001_Node000002" class="edge">
<title>Node1&#45;&gt;Node2</title>
<g id="a_edge1_Node000001_Node000002"><a xlink:title=" ">
<path fill="none" stroke="#63b8ff" d="M167.64,-51.42C141.29,-41.59 104.74,-27.95 81.23,-19.17"/>
<polygon fill="#63b8ff" stroke="#63b8ff" points="166.59,-54.77 177.19,-54.98 169.04,-48.21 166.59,-54.77"/>
</a>
</g>
</g>
<!-- Node3 -->
<g id="Node000003" class="node">
<title>Node3</title>
<g id="a_Node000003"><a xlink:href="passworddialog_8cpp.html" target="_top" xlink:title=" ">
<polygon fill="white" stroke="#666666" points="265.5,-19 134.5,-19 134.5,0 265.5,0 265.5,-19"/>
<text text-anchor="middle" x="200" y="-7" font-family="Helvetica,sans-Serif" font-size="10.00">src/passworddialog.cpp</text>
</a>
</g>
</g>
<!-- Node1&#45;&gt;Node3 -->
<g id="edge2_Node000001_Node000003" class="edge">
<title>Node1&#45;&gt;Node3</title>
<g id="a_edge2_Node000001_Node000003"><a xlink:title=" ">
<path fill="none" stroke="#63b8ff" d="M200,-44.66C200,-35.93 200,-25.99 200,-19.09"/>
<polygon fill="#63b8ff" stroke="#63b8ff" points="196.5,-44.75 200,-54.75 203.5,-44.75 196.5,-44.75"/>
</a>
</g>
</g>
<!-- Node4 -->
<g id="Node000004" class="node">
<title>Node4</title>
<g id="a_Node000004"><a xlink:href="tst__ui_8cpp.html" target="_top" xlink:title=" ">
<polygon fill="white" stroke="#666666" points="412,-19 284,-19 284,0 412,0 412,-19"/>
<text text-anchor="middle" x="348" y="-7" font-family="Helvetica,sans-Serif" font-size="10.00">tests/auto/ui/tst_ui.cpp</text>
</a>
</g>
</g>
<!-- Node1&#45;&gt;Node4 -->
<g id="edge3_Node000001_Node000004" class="edge">
<title>Node1&#45;&gt;Node4</title>
<g id="a_edge3_Node000001_Node000004"><a xlink:title=" ">
<path fill="none" stroke="#63b8ff" d="M233.37,-51.55C260.85,-41.71 299.17,-27.98 323.79,-19.17"/>
<polygon fill="#63b8ff" stroke="#63b8ff" points="232.01,-48.32 223.78,-54.98 234.37,-54.91 232.01,-48.32"/>
</a>
</g>
</g>
</g>
</svg>
</svg>

<style type='text/css'>
<![CDATA[
[data-mouse-over-selected='false'] { opacity: 0.7; }
[data-mouse-over-selected='true']  { opacity: 1.0; }
]]>
</style>
<script type="application/ecmascript"><![CDATA[
document.addEventListener('DOMContentLoaded', (event) => {
  highlightEdges();
  highlightAdjacentNodes();
});
]]></script>
</svg>
