<?xml version="1.0" encoding="UTF-8" standalone="no"?>
<!DOCTYPE svg PUBLIC "-//W3C//DTD SVG 1.1//EN"
 "http://www.w3.org/Graphics/SVG/1.1/DTD/svg11.dtd">
<!-- Generated by graphviz version 2.43.0 (0)
 -->
<!-- Title: src/simpletransaction.h Pages: 1 -->
<svg width="1336pt" height="203pt"
 viewBox="0.00 0.00 1336.00 203.00" xmlns="http://www.w3.org/2000/svg" xmlns:xlink="http://www.w3.org/1999/xlink">
<g id="graph0" class="graph" transform="scale(1 1) rotate(0) translate(4 199)">
<title>src/simpletransaction.h</title>
<!-- Node1 -->
<g id="Node000001" class="node">
<title>Node1</title>
<g id="a_Node000001"><a xlink:title=" ">
<polygon fill="#999999" stroke="#666666" points="574.5,-195 443.5,-195 443.5,-176 574.5,-176 574.5,-195"/>
<text text-anchor="middle" x="509" y="-183" font-family="Helvetica,sans-Serif" font-size="10.00">src/simpletransaction.h</text>
</a>
</g>
</g>
<!-- Node2 -->
<g id="Node000002" class="node">
<title>Node2</title>
<g id="a_Node000002"><a xlink:href="imitatepass_8h.html" target="_top" xlink:title=" ">
<polygon fill="white" stroke="#666666" points="419.5,-134.5 318.5,-134.5 318.5,-115.5 419.5,-115.5 419.5,-134.5"/>
<text text-anchor="middle" x="369" y="-122.5" font-family="Helvetica,sans-Serif" font-size="10.00">src/imitatepass.h</text>
</a>
</g>
</g>
<!-- Node1&#45;&gt;Node2 -->
<g id="edge1_Node000001_Node000002" class="edge">
<title>Node1&#45;&gt;Node2</title>
<g id="a_edge1_Node000001_Node000002"><a xlink:title=" ">
<path fill="none" stroke="#63b8ff" d="M479.28,-172.08C452.24,-160.78 413.03,-144.4 389.38,-134.52"/>
<polygon fill="#63b8ff" stroke="#63b8ff" points="478.07,-175.37 488.64,-175.99 480.77,-168.91 478.07,-175.37"/>
</a>
</g>
</g>
<!-- Node15 -->
<g id="Node000015" class="node">
<title>Node15</title>
<g id="a_Node000015"><a xlink:href="simpletransaction_8cpp.html" target="_top" xlink:title=" ">
<polygon fill="white" stroke="#666666" points="580,-134.5 438,-134.5 438,-115.5 580,-115.5 580,-134.5"/>
<text text-anchor="middle" x="509" y="-122.5" font-family="Helvetica,sans-Serif" font-size="10.00">src/simpletransaction.cpp</text>
</a>
</g>
</g>
<!-- Node1&#45;&gt;Node15 -->
<g id="edge15_Node000001_Node000015" class="edge">
<title>Node1&#45;&gt;Node15</title>
<g id="a_edge15_Node000001_Node000015"><a xlink:title=" ">
<path fill="none" stroke="#63b8ff" d="M509,-165.66C509,-155.24 509,-142.8 509,-134.67"/>
<polygon fill="#63b8ff" stroke="#63b8ff" points="505.5,-165.87 509,-175.87 512.5,-165.87 505.5,-165.87"/>
</a>
</g>
</g>
<!-- Node16 -->
<g id="Node000016" class="node">
<title>Node16</title>
<g id="a_Node000016"><a xlink:href="tst__util_8cpp.html" target="_top" xlink:title=" ">
<polygon fill="white" stroke="#666666" points="698,-140 598,-140 598,-110 698,-110 698,-140"/>
<text text-anchor="start" x="606" y="-128" font-family="Helvetica,sans-Serif" font-size="10.00">tests/auto/util/tst</text>
<text text-anchor="middle" x="648" y="-117" font-family="Helvetica,sans-Serif" font-size="10.00">_util.cpp</text>
</a>
</g>
</g>
<!-- Node1&#45;&gt;Node16 -->
<g id="edge16_Node000001_Node000016" class="edge">
<title>Node1&#45;&gt;Node16</title>
<g id="a_edge16_Node000001_Node000016"><a xlink:title=" ">
<path fill="none" stroke="#63b8ff" d="M538.51,-172.08C560.79,-162.7 591.4,-149.82 614.58,-140.06"/>
<polygon fill="#63b8ff" stroke="#63b8ff" points="537.07,-168.89 529.21,-175.99 539.79,-175.34 537.07,-168.89"/>
</a>
</g>
</g>
<!-- Node3 -->
<g id="Node000003" class="node">
<title>Node3</title>
<g id="a_Node000003"><a xlink:href="imitatepass_8cpp.html" target="_top" xlink:title=" ">
<polygon fill="white" stroke="#666666" points="112,-19 0,-19 0,0 112,0 112,-19"/>
<text text-anchor="middle" x="56" y="-7" font-family="Helvetica,sans-Serif" font-size="10.00">src/imitatepass.cpp</text>
</a>
</g>
</g>
<!-- Node2&#45;&gt;Node3 -->
<g id="edge2_Node000002_Node000003" class="edge">
<title>Node2&#45;&gt;Node3</title>
<g id="a_edge2_Node000002_Node000003"><a xlink:title=" ">
<path fill="none" stroke="#63b8ff" d="M335.95,-112.02C272.53,-89.02 135.13,-39.19 79.8,-19.13"/>
<polygon fill="#63b8ff" stroke="#63b8ff" points="334.88,-115.35 345.47,-115.47 337.27,-108.77 334.88,-115.35"/>
</a>
</g>
</g>
<!-- Node4 -->
<g id="Node000004" class="node">
<title>Node4</title>
<g id="a_Node000004"><a xlink:href="qtpasssettings_8h.html" target="_top" xlink:title=" ">
<polygon fill="white" stroke="#666666" points="677,-74 563,-74 563,-55 677,-55 677,-74"/>
<text text-anchor="middle" x="620" y="-62" font-family="Helvetica,sans-Serif" font-size="10.00">src/qtpasssettings.h</text>
</a>
</g>
</g>
<!-- Node2&#45;&gt;Node4 -->
<g id="edge3_Node000002_Node000004" class="edge">
<title>Node2&#45;&gt;Node4</title>
<g id="a_edge3_Node000002_Node000004"><a xlink:title=" ">
<path fill="none" stroke="#63b8ff" d="M415.45,-113.16C420.03,-112.09 424.6,-111.03 429,-110 482.72,-97.48 544.93,-82.98 583.38,-74.03"/>
<polygon fill="#63b8ff" stroke="#63b8ff" points="414.43,-109.8 405.49,-115.48 416.02,-116.62 414.43,-109.8"/>
</a>
</g>
</g>
<!-- Node4&#45;&gt;Node3 -->
<g id="edge5_Node000004_Node000003" class="edge">
<title>Node4&#45;&gt;Node3</title>
<g id="a_edge5_Node000004_Node000003"><a xlink:title=" ">
<path fill="none" stroke="#63b8ff" d="M552.53,-58.37C456.54,-50.87 275.11,-35.94 121,-19 118.06,-18.68 115.04,-18.33 112,-17.97"/>
<polygon fill="#63b8ff" stroke="#63b8ff" points="552.43,-61.87 562.67,-59.16 552.98,-54.89 552.43,-61.87"/>
</a>
</g>
</g>
<!-- Node5 -->
<g id="Node000005" class="node">
<title>Node5</title>
<g id="a_Node000005"><a xlink:href="configdialog_8cpp.html" target="_top" xlink:title=" ">
<polygon fill="white" stroke="#666666" points="243.5,-19 130.5,-19 130.5,0 243.5,0 243.5,-19"/>
<text text-anchor="middle" x="187" y="-7" font-family="Helvetica,sans-Serif" font-size="10.00">src/configdialog.cpp</text>
</a>
</g>
</g>
<!-- Node4&#45;&gt;Node5 -->
<g id="edge4_Node000004_Node000005" class="edge">
<title>Node4&#45;&gt;Node5</title>
<g id="a_edge4_Node000004_Node000005"><a xlink:title=" ">
<path fill="none" stroke="#63b8ff" d="M552.71,-55.49C479.09,-46.7 357.62,-32.08 253,-19 249.9,-18.61 246.73,-18.21 243.52,-17.81"/>
<polygon fill="#63b8ff" stroke="#63b8ff" points="552.43,-58.98 562.77,-56.69 553.26,-52.03 552.43,-58.98"/>
</a>
</g>
</g>
<!-- Node6 -->
<g id="Node000006" class="node">
<title>Node6</title>
<g id="a_Node000006"><a xlink:href="mainwindow_8cpp.html" target="_top" xlink:title=" ">
<polygon fill="white" stroke="#666666" points="378,-19 262,-19 262,0 378,0 378,-19"/>
<text text-anchor="middle" x="320" y="-7" font-family="Helvetica,sans-Serif" font-size="10.00">src/mainwindow.cpp</text>
</a>
</g>
</g>
<!-- Node4&#45;&gt;Node6 -->
<g id="edge6_Node000004_Node000006" class="edge">
<title>Node4&#45;&gt;Node6</title>
<g id="a_edge6_Node000004_Node000006"><a xlink:title=" ">
<path fill="none" stroke="#63b8ff" d="M561.64,-53.19C505.39,-43.25 421.28,-28.39 368.58,-19.08"/>
<polygon fill="#63b8ff" stroke="#63b8ff" points="561.34,-56.69 571.8,-54.98 562.56,-49.8 561.34,-56.69"/>
</a>
</g>
</g>
<!-- Node7 -->
<g id="Node000007" class="node">
<title>Node7</title>
<g id="a_Node000007"><a xlink:href="pass_8cpp.html" target="_top" xlink:title=" ">
<polygon fill="white" stroke="#666666" points="473.5,-19 396.5,-19 396.5,0 473.5,0 473.5,-19"/>
<text text-anchor="middle" x="435" y="-7" font-family="Helvetica,sans-Serif" font-size="10.00">src/pass.cpp</text>
</a>
</g>
</g>
<!-- Node4&#45;&gt;Node7 -->
<g id="edge7_Node000004_Node000007" class="edge">
<title>Node4&#45;&gt;Node7</title>
<g id="a_edge7_Node000004_Node000007"><a xlink:title=" ">
<path fill="none" stroke="#63b8ff" d="M580.5,-52.18C545.9,-42.27 496.37,-28.08 464.96,-19.08"/>
<polygon fill="#63b8ff" stroke="#63b8ff" points="579.7,-55.6 590.28,-54.98 581.63,-48.87 579.7,-55.6"/>
</a>
</g>
</g>
<!-- Node8 -->
<g id="Node000008" class="node">
<title>Node8</title>
<g id="a_Node000008"><a xlink:href="passworddialog_8cpp.html" target="_top" xlink:title=" ">
<polygon fill="white" stroke="#666666" points="622.5,-19 491.5,-19 491.5,0 622.5,0 622.5,-19"/>
<text text-anchor="middle" x="557" y="-7" font-family="Helvetica,sans-Serif" font-size="10.00">src/passworddialog.cpp</text>
</a>
</g>
</g>
<!-- Node4&#45;&gt;Node8 -->
<g id="edge8_Node000004_Node000008" class="edge">
<title>Node4&#45;&gt;Node8</title>
<g id="a_edge8_Node000004_Node000008"><a xlink:title=" ">
<path fill="none" stroke="#63b8ff" d="M601.96,-48.32C590.73,-38.87 576.68,-27.06 567.31,-19.17"/>
<polygon fill="#63b8ff" stroke="#63b8ff" points="599.97,-51.23 609.88,-54.98 604.48,-45.87 599.97,-51.23"/>
</a>
</g>
</g>
<!-- Node9 -->
<g id="Node000009" class="node">
<title>Node9</title>
<g id="a_Node000009"><a xlink:href="qtpass_8cpp.html" target="_top" xlink:title=" ">
<polygon fill="white" stroke="#666666" points="727,-19 641,-19 641,0 727,0 727,-19"/>
<text text-anchor="middle" x="684" y="-7" font-family="Helvetica,sans-Serif" font-size="10.00">src/qtpass.cpp</text>
</a>
</g>
</g>
<!-- Node4&#45;&gt;Node9 -->
<g id="edge9_Node000004_Node000009" class="edge">
<title>Node4&#45;&gt;Node9</title>
<g id="a_edge9_Node000004_Node000009"><a xlink:title=" ">
<path fill="none" stroke="#63b8ff" d="M637.99,-48.6C649.46,-39.11 663.91,-27.13 673.53,-19.17"/>
<polygon fill="#63b8ff" stroke="#63b8ff" points="635.75,-45.91 630.28,-54.98 640.22,-51.3 635.75,-45.91"/>
</a>
</g>
</g>
<!-- Node10 -->
<g id="Node000010" class="node">
<title>Node10</title>
<g id="a_Node000010"><a xlink:href="qtpasssettings_8cpp.html" target="_top" xlink:title=" ">
<polygon fill="white" stroke="#666666" points="870.5,-19 745.5,-19 745.5,0 870.5,0 870.5,-19"/>
<text text-anchor="middle" x="808" y="-7" font-family="Helvetica,sans-Serif" font-size="10.00">src/qtpasssettings.cpp</text>
</a>
</g>
</g>
<!-- Node4&#45;&gt;Node10 -->
<g id="edge10_Node000004_Node000010" class="edge">
<title>Node4&#45;&gt;Node10</title>
<g id="a_edge10_Node000004_Node000010"><a xlink:title=" ">
<path fill="none" stroke="#63b8ff" d="M660.14,-52.18C695.3,-42.27 745.63,-28.08 777.56,-19.08"/>
<polygon fill="#63b8ff" stroke="#63b8ff" points="658.88,-48.9 650.21,-54.98 660.78,-55.64 658.88,-48.9"/>
</a>
</g>
</g>
<!-- Node11 -->
<g id="Node000011" class="node">
<title>Node11</title>
<g id="a_Node000011"><a xlink:href="realpass_8cpp.html" target="_top" xlink:title=" ">
<polygon fill="white" stroke="#666666" points="983.5,-19 888.5,-19 888.5,0 983.5,0 983.5,-19"/>
<text text-anchor="middle" x="936" y="-7" font-family="Helvetica,sans-Serif" font-size="10.00">src/realpass.cpp</text>
</a>
</g>
</g>
<!-- Node4&#45;&gt;Node11 -->
<g id="edge11_Node000004_Node000011" class="edge">
<title>Node4&#45;&gt;Node11</title>
<g id="a_edge11_Node000004_Node000011"><a xlink:title=" ">
<path fill="none" stroke="#63b8ff" d="M680.95,-53.28C741.5,-43.12 833.09,-27.76 888.46,-18.47"/>
<polygon fill="#63b8ff" stroke="#63b8ff" points="680.05,-49.88 670.77,-54.98 681.21,-56.78 680.05,-49.88"/>
</a>
</g>
</g>
<!-- Node12 -->
<g id="Node000012" class="node">
<title>Node12</title>
<g id="a_Node000012"><a xlink:href="storemodel_8cpp.html" target="_top" xlink:title=" ">
<polygon fill="white" stroke="#666666" points="1112,-19 1002,-19 1002,0 1112,0 1112,-19"/>
<text text-anchor="middle" x="1057" y="-7" font-family="Helvetica,sans-Serif" font-size="10.00">src/storemodel.cpp</text>
</a>
</g>
</g>
<!-- Node4&#45;&gt;Node12 -->
<g id="edge12_Node000004_Node000012" class="edge">
<title>Node4&#45;&gt;Node12</title>
<g id="a_edge12_Node000004_Node000012"><a xlink:title=" ">
<path fill="none" stroke="#63b8ff" d="M687.43,-55.73C762.16,-47.05 886.24,-32.46 993,-19 995.89,-18.64 998.86,-18.26 1001.85,-17.87"/>
<polygon fill="#63b8ff" stroke="#63b8ff" points="686.75,-52.28 677.22,-56.91 687.56,-59.24 686.75,-52.28"/>
</a>
</g>
</g>
<!-- Node13 -->
<g id="Node000013" class="node">
<title>Node13</title>
<g id="a_Node000013"><a xlink:href="usersdialog_8cpp.html" target="_top" xlink:title=" ">
<polygon fill="white" stroke="#666666" points="1240,-19 1130,-19 1130,0 1240,0 1240,-19"/>
<text text-anchor="middle" x="1185" y="-7" font-family="Helvetica,sans-Serif" font-size="10.00">src/usersdialog.cpp</text>
</a>
</g>
</g>
<!-- Node4&#45;&gt;Node13 -->
<g id="edge13_Node000004_Node000013" class="edge">
<title>Node4&#45;&gt;Node13</title>
<g id="a_edge13_Node000004_Node000013"><a xlink:title=" ">
<path fill="none" stroke="#63b8ff" d="M687.36,-58.45C783.63,-51.02 966.08,-36.16 1121,-19 1123.9,-18.68 1126.86,-18.34 1129.86,-17.98"/>
<polygon fill="#63b8ff" stroke="#63b8ff" points="686.89,-54.98 677.18,-59.23 687.42,-61.96 686.89,-54.98"/>
</a>
</g>
</g>
<!-- Node14 -->
<g id="Node000014" class="node">
<title>Node14</title>
<g id="a_Node000014"><a xlink:href="util_8cpp.html" target="_top" xlink:title=" ">
<polygon fill="white" stroke="#666666" points="1328,-19 1258,-19 1258,0 1328,0 1328,-19"/>
<text text-anchor="middle" x="1293" y="-7" font-family="Helvetica,sans-Serif" font-size="10.00">src/util.cpp</text>
</a>
</g>
</g>
<!-- Node4&#45;&gt;Node14 -->
<g id="edge14_Node000004_Node000014" class="edge">
<title>Node4&#45;&gt;Node14</title>
<g id="a_edge14_Node000004_Node000014"><a xlink:title=" ">
<path fill="none" stroke="#63b8ff" d="M687.13,-61.4C802.44,-57.2 1045.39,-45.77 1249,-19 1251.93,-18.61 1254.96,-18.16 1258,-17.66"/>
<polygon fill="#63b8ff" stroke="#63b8ff" points="686.91,-57.91 677.04,-61.76 687.16,-64.9 686.91,-57.91"/>
</a>
</g>
</g>
</g>
</svg>
