<svg width="24" height="24" xmlns="http://www.w3.org/2000/svg" viewBox="0 -256 1850 1850"><path d="M1694.373 683.898q-152-236-381-353 61 104 61 225 0 185-131.5 316.5t-316.5 131.5q-185 0-316.5-131.5t-131.5-316.5q0-121 61-225-229 117-381 353 133 205 333.5 326.5t434.5 121.5q234 0 434.5-121.5t333.5-326.5zm-720-384q0-20-14-34t-34-14q-125 0-214.5 89.5t-89.5 214.5q0 20 14 34t34 14q20 0 34-14t14-34q0-86 61-147t147-61q20 0 34-14t14-34zm848 384q0 34-20 69-140 230-376.5 368.5t-499.5 138.5q-263 0-499.5-139t-376.5-368q-20-35-20-69t20-69q140-229 376.5-368t499.5-139q263 0 499.5 139t376.5 368q20 35 20 69z" fill="currentColor"/></svg>