<?xml version="1.0" encoding="UTF-8" standalone="no"?>
<!DOCTYPE svg PUBLIC "-//W3C//DTD SVG 1.1//EN"
 "http://www.w3.org/Graphics/SVG/1.1/DTD/svg11.dtd">
<!-- Generated by graphviz version 2.38.0 (20140413.2041)
 -->
<!-- Title: Pass::GitPull Pages: 1 -->
<svg width="593pt" height="82pt"
 viewBox="0.00 0.00 592.93 82.00" xmlns="http://www.w3.org/2000/svg" xmlns:xlink="http://www.w3.org/1999/xlink">
<g id="graph0" class="graph" transform="scale(1 1) rotate(0) translate(4 78)">
<title>Pass::GitPull</title>
<!-- Node93 -->
<g id="node1" class="node"><title>Node93</title>
<polygon fill="#bfbfbf" stroke="black" points="0,-18.5 0,-36.5 73.2412,-36.5 73.2412,-18.5 0,-18.5"/>
<text text-anchor="middle" x="36.6206" y="-24.5" font-family="Helvetica,sans-Serif" font-size="10.00">Pass::GitPull</text>
</g>
<!-- Node94 -->
<g id="node2" class="node"><title>Node94</title>
<g id="a_node2"><a xlink:href="class_main_window.html#aeb8091ab5531144b76c1fbb0d63deb56" target="_top" xlink:title="MainWindow::config pops up the configuration screen and handles all inter&#45;window communication. ">
<polygon fill="none" stroke="black" points="109.241,-37.5 109.241,-55.5 214.724,-55.5 214.724,-37.5 109.241,-37.5"/>
<text text-anchor="middle" x="161.982" y="-43.5" font-family="Helvetica,sans-Serif" font-size="10.00">MainWindow::config</text>
</a>
</g>
</g>
<!-- Node93&#45;&gt;Node94 -->
<g id="edge1" class="edge"><title>Node93&#45;&gt;Node94</title>
<path fill="none" stroke="midnightblue" d="M83.228,-34.5244C91.5742,-35.8099 100.343,-37.1603 108.861,-38.4724"/>
<polygon fill="midnightblue" stroke="midnightblue" points="83.7182,-31.0587 73.302,-32.9956 82.6526,-37.9771 83.7182,-31.0587"/>
</g>
<!-- Node99 -->
<g id="node7" class="node"><title>Node99</title>
<g id="a_node7"><a xlink:href="class_pass.html#a8dfa731be7ac962f9f6a5cf8f29097ec" target="_top" xlink:title="Pass::~Pass">
<polygon fill="none" stroke="black" points="126.053,-0.5 126.053,-18.5 197.912,-18.5 197.912,-0.5 126.053,-0.5"/>
<text text-anchor="middle" x="161.982" y="-6.5" font-family="Helvetica,sans-Serif" font-size="10.00">Pass::~Pass</text>
</a>
</g>
</g>
<!-- Node93&#45;&gt;Node99 -->
<g id="edge6" class="edge"><title>Node93&#45;&gt;Node99</title>
<path fill="none" stroke="midnightblue" d="M83.2774,-20.8381C97.3293,-18.7878 112.573,-16.5635 125.807,-14.6325"/>
<polygon fill="midnightblue" stroke="midnightblue" points="82.6918,-17.3864 73.302,-22.2937 83.7025,-24.3131 82.6918,-17.3864"/>
</g>
<!-- Node95 -->
<g id="node3" class="node"><title>Node95</title>
<g id="a_node3"><a xlink:href="class_main_window.html#a23d2783cb61a373c4b0127970264290a" target="_top" xlink:title="MainWindow::checkConfig make sure we are ready to go as soon as possible. ">
<polygon fill="none" stroke="black" points="264.896,-55.5 264.896,-73.5 398.723,-73.5 398.723,-55.5 264.896,-55.5"/>
<text text-anchor="middle" x="331.81" y="-61.5" font-family="Helvetica,sans-Serif" font-size="10.00">MainWindow::checkConfig</text>
</a>
</g>
</g>
<!-- Node94&#45;&gt;Node95 -->
<g id="edge2" class="edge"><title>Node94&#45;&gt;Node95</title>
<path fill="none" stroke="midnightblue" d="M225.295,-53.1833C238.154,-54.5624 251.739,-56.0194 264.726,-57.4124"/>
<polygon fill="midnightblue" stroke="midnightblue" points="225.48,-49.6831 215.164,-52.0966 224.734,-56.6432 225.48,-49.6831"/>
</g>
<!-- Node97 -->
<g id="node5" class="node"><title>Node97</title>
<g id="a_node5"><a xlink:href="class_main_window.html#a4680b2cbcfd388683a98303f29c0f84f" target="_top" xlink:title="MainWindow::executePassGitInit git init wrapper. ">
<polygon fill="none" stroke="black" points="250.724,-18.5 250.724,-36.5 412.896,-36.5 412.896,-18.5 250.724,-18.5"/>
<text text-anchor="middle" x="331.81" y="-24.5" font-family="Helvetica,sans-Serif" font-size="10.00">MainWindow::executePassGitInit</text>
</a>
</g>
</g>
<!-- Node94&#45;&gt;Node97 -->
<g id="edge4" class="edge"><title>Node94&#45;&gt;Node97</title>
<path fill="none" stroke="midnightblue" d="M225.3,-39.4449C233.758,-38.4873 242.531,-37.4942 251.241,-36.5081"/>
<polygon fill="midnightblue" stroke="midnightblue" points="224.707,-35.9896 215.164,-40.5924 225.494,-42.9452 224.707,-35.9896"/>
</g>
<!-- Node96 -->
<g id="node4" class="node"><title>Node96</title>
<g id="a_node4"><a xlink:href="class_main_window.html#a8b244be8b7b7db1b08de2a2acb9409db" target="_top" xlink:title="MainWindow::MainWindow handles all of the main functionality and also the main window. ">
<polygon fill="none" stroke="black" points="448.896,-55.5 448.896,-73.5 584.935,-73.5 584.935,-55.5 448.896,-55.5"/>
<text text-anchor="middle" x="516.915" y="-61.5" font-family="Helvetica,sans-Serif" font-size="10.00">MainWindow::MainWindow</text>
</a>
</g>
</g>
<!-- Node95&#45;&gt;Node96 -->
<g id="edge3" class="edge"><title>Node95&#45;&gt;Node96</title>
<path fill="none" stroke="midnightblue" d="M409.29,-64.5C422.366,-64.5 435.863,-64.5 448.676,-64.5"/>
<polygon fill="midnightblue" stroke="midnightblue" points="408.915,-61.0001 398.915,-64.5 408.915,-68.0001 408.915,-61.0001"/>
</g>
<!-- Node98 -->
<g id="node6" class="node"><title>Node98</title>
<g id="a_node6"><a xlink:href="class_config_dialog.html#ad5b80066591f19fdaaa06b7cb5ba7f15" target="_top" xlink:title="ConfigDialog::wizard first&#45;time use wizard. ">
<polygon fill="none" stroke="black" points="463.061,-18.5 463.061,-36.5 570.77,-36.5 570.77,-18.5 463.061,-18.5"/>
<text text-anchor="middle" x="516.915" y="-24.5" font-family="Helvetica,sans-Serif" font-size="10.00">ConfigDialog::wizard</text>
</a>
</g>
</g>
<!-- Node97&#45;&gt;Node98 -->
<g id="edge5" class="edge"><title>Node97&#45;&gt;Node98</title>
<path fill="none" stroke="midnightblue" d="M423.414,-27.5C436.904,-27.5 450.421,-27.5 462.795,-27.5"/>
<polygon fill="midnightblue" stroke="midnightblue" points="423.122,-24.0001 413.122,-27.5 423.122,-31.0001 423.122,-24.0001"/>
</g>
</g>
</svg>
