<?xml version="1.0" encoding="UTF-8" standalone="no"?>
<!DOCTYPE svg PUBLIC "-//W3C//DTD SVG 1.1//EN"
 "http://www.w3.org/Graphics/SVG/1.1/DTD/svg11.dtd">
<!-- Generated by graphviz version 2.43.0 (0)
 -->
<!-- Title: MainWindow::onPush Pages: 1 -->
<svg width="693pt" height="177pt"
 viewBox="0.00 0.00 693.00 177.00" xmlns="http://www.w3.org/2000/svg" xmlns:xlink="http://www.w3.org/1999/xlink">
<g id="graph0" class="graph" transform="scale(1 1) rotate(0) translate(4 173)">
<title>MainWindow::onPush</title>
<!-- Node1 -->
<g id="Node000001" class="node">
<title>Node1</title>
<g id="a_Node000001"><a xlink:title="MainWindow::onPush do a git push.">
<polygon fill="#999999" stroke="#666666" points="120,-76 0,-76 0,-57 120,-57 120,-76"/>
<text text-anchor="middle" x="60" y="-64" font-family="Helvetica,sans-Serif" font-size="10.00">MainWindow::onPush</text>
</a>
</g>
</g>
<!-- Node2 -->
<g id="Node000002" class="node">
<title>Node2</title>
<g id="a_Node000002"><a xlink:href="class_qt_pass_settings.html#a34ba20416835e4de168d4c66f9076b2b" target="_top" xlink:title="Get currently active pass backend instance.">
<polygon fill="white" stroke="#666666" points="291,-113 158,-113 158,-94 291,-94 291,-113"/>
<text text-anchor="middle" x="224.5" y="-101" font-family="Helvetica,sans-Serif" font-size="10.00">QtPassSettings::getPass</text>
</a>
</g>
</g>
<!-- Node1&#45;&gt;Node2 -->
<g id="edge1_Node000001_Node000002" class="edge">
<title>Node1&#45;&gt;Node2</title>
<g id="a_edge1_Node000001_Node000002"><a xlink:title=" ">
<path fill="none" stroke="#63b8ff" d="M102.85,-76.03C123.81,-80.8 149.38,-86.62 171.58,-91.68"/>
<polygon fill="#63b8ff" stroke="#63b8ff" points="170.98,-95.13 181.51,-93.94 172.54,-88.31 170.98,-95.13"/>
</a>
</g>
</g>
<!-- Node7 -->
<g id="Node000007" class="node">
<title>Node7</title>
<g id="a_Node000007"><a xlink:href="class_qt_pass_settings.html#a4519d1aa1f11653585e546dbfde7c8b3" target="_top" xlink:title="Check whether Git integration is enabled.">
<polygon fill="white" stroke="#666666" points="293,-57 156,-57 156,-38 293,-38 293,-57"/>
<text text-anchor="middle" x="224.5" y="-45" font-family="Helvetica,sans-Serif" font-size="10.00">QtPassSettings::isUseGit</text>
</a>
</g>
</g>
<!-- Node1&#45;&gt;Node7 -->
<g id="edge6_Node000001_Node000007" class="edge">
<title>Node1&#45;&gt;Node7</title>
<g id="a_edge6_Node000001_Node000007"><a xlink:title=" ">
<path fill="none" stroke="#63b8ff" d="M120.13,-59.59C128.47,-58.61 137.16,-57.6 145.79,-56.59"/>
<polygon fill="#63b8ff" stroke="#63b8ff" points="146.35,-60.04 155.88,-55.41 145.54,-53.09 146.35,-60.04"/>
</a>
</g>
</g>
<!-- Node3 -->
<g id="Node000003" class="node">
<title>Node3</title>
<g id="a_Node000003"><a xlink:href="class_qt_pass_settings.html#ad23c0edfc2df7bc06df700b8468a8528" target="_top" xlink:title="Get imitate pass backend instance.">
<polygon fill="white" stroke="#666666" points="497,-169 329,-169 329,-150 497,-150 497,-169"/>
<text text-anchor="middle" x="413" y="-157" font-family="Helvetica,sans-Serif" font-size="10.00">QtPassSettings::getImitatePass</text>
</a>
</g>
</g>
<!-- Node2&#45;&gt;Node3 -->
<g id="edge2_Node000002_Node000003" class="edge">
<title>Node2&#45;&gt;Node3</title>
<g id="a_edge2_Node000002_Node000003"><a xlink:title=" ">
<path fill="none" stroke="#63b8ff" d="M248.62,-113.04C269.4,-121.35 300.88,-133.33 329,-141.5 336.57,-143.7 344.59,-145.76 352.55,-147.65"/>
<polygon fill="#63b8ff" stroke="#63b8ff" points="352.03,-151.13 362.56,-149.95 353.6,-144.3 352.03,-151.13"/>
</a>
</g>
</g>
<!-- Node4 -->
<g id="Node000004" class="node">
<title>Node4</title>
<g id="a_Node000004"><a xlink:href="class_qt_pass_settings.html#a8f8fb086b283ad2089e64b37d4950d5e" target="_top" xlink:title="Get real pass backend instance.">
<polygon fill="white" stroke="#666666" points="490.5,-132 335.5,-132 335.5,-113 490.5,-113 490.5,-132"/>
<text text-anchor="middle" x="413" y="-120" font-family="Helvetica,sans-Serif" font-size="10.00">QtPassSettings::getRealPass</text>
</a>
</g>
</g>
<!-- Node2&#45;&gt;Node4 -->
<g id="edge3_Node000002_Node000004" class="edge">
<title>Node2&#45;&gt;Node4</title>
<g id="a_edge3_Node000002_Node000004"><a xlink:title=" ">
<path fill="none" stroke="#63b8ff" d="M291.25,-110.2C302.28,-111.32 313.88,-112.5 325.34,-113.67"/>
<polygon fill="#63b8ff" stroke="#63b8ff" points="325.06,-117.16 335.36,-114.69 325.77,-110.2 325.06,-117.16"/>
</a>
</g>
</g>
<!-- Node5 -->
<g id="Node000005" class="node">
<title>Node5</title>
<g id="a_Node000005"><a xlink:href="class_qt_pass_settings.html#a51d5b6ef611562d9247d5c482e6449a8" target="_top" xlink:title="Get whether to use pass (true) or GPG (false).">
<polygon fill="white" stroke="#666666" points="485,-95 341,-95 341,-76 485,-76 485,-95"/>
<text text-anchor="middle" x="413" y="-83" font-family="Helvetica,sans-Serif" font-size="10.00">QtPassSettings::isUsePass</text>
</a>
</g>
</g>
<!-- Node2&#45;&gt;Node5 -->
<g id="edge4_Node000002_Node000005" class="edge">
<title>Node2&#45;&gt;Node5</title>
<g id="a_edge4_Node000002_Node000005"><a xlink:title=" ">
<path fill="none" stroke="#63b8ff" d="M291.25,-97.15C304.04,-95.92 317.58,-94.61 330.8,-93.34"/>
<polygon fill="#63b8ff" stroke="#63b8ff" points="331.2,-96.81 340.82,-92.37 330.53,-89.85 331.2,-96.81"/>
</a>
</g>
</g>
<!-- Node6 -->
<g id="Node000006" class="node">
<title>Node6</title>
<g id="a_Node000006"><a xlink:href="class_qt_pass_settings.html#a2483e7de01f9e312ee0fbf8a1637f29d" target="_top" xlink:title="Get the singleton instance.">
<polygon fill="white" stroke="#666666" points="685,-57 533,-57 533,-38 685,-38 685,-57"/>
<text text-anchor="middle" x="609" y="-45" font-family="Helvetica,sans-Serif" font-size="10.00">QtPassSettings::getInstance</text>
</a>
</g>
</g>
<!-- Node5&#45;&gt;Node6 -->
<g id="edge5_Node000005_Node000006" class="edge">
<title>Node5&#45;&gt;Node6</title>
<g id="a_edge5_Node000005_Node000006"><a xlink:title=" ">
<path fill="none" stroke="#63b8ff" d="M462.95,-75.91C489.25,-70.76 521.84,-64.38 549.47,-58.97"/>
<polygon fill="#63b8ff" stroke="#63b8ff" points="550.26,-62.38 559.4,-57.02 548.91,-55.51 550.26,-62.38"/>
</a>
</g>
</g>
<!-- Node7&#45;&gt;Node6 -->
<g id="edge7_Node000007_Node000006" class="edge">
<title>Node7&#45;&gt;Node6</title>
<g id="a_edge7_Node000007_Node000006"><a xlink:title=" ">
<path fill="none" stroke="#63b8ff" d="M293,-47.5C357.09,-47.5 453.66,-47.5 522.97,-47.5"/>
<polygon fill="#63b8ff" stroke="#63b8ff" points="522.99,-51 532.99,-47.5 522.99,-44 522.99,-51"/>
</a>
</g>
</g>
<!-- Node8 -->
<g id="Node000008" class="node">
<title>Node8</title>
<g id="a_Node000008"><a xlink:href="class_qt_pass_settings.html#a538e612e04fe934535e1f7525d55743c" target="_top" xlink:title="Get password store directory path.">
<polygon fill="white" stroke="#666666" points="492,-19 334,-19 334,0 492,0 492,-19"/>
<text text-anchor="middle" x="413" y="-7" font-family="Helvetica,sans-Serif" font-size="10.00">QtPassSettings::getPassStore</text>
</a>
</g>
</g>
<!-- Node7&#45;&gt;Node8 -->
<g id="edge8_Node000007_Node000008" class="edge">
<title>Node7&#45;&gt;Node8</title>
<g id="a_edge8_Node000007_Node000008"><a xlink:title=" ">
<path fill="none" stroke="#63b8ff" d="M272.56,-37.91C297.73,-32.78 328.9,-26.43 355.38,-21.04"/>
<polygon fill="#63b8ff" stroke="#63b8ff" points="356.18,-24.45 365.28,-19.02 354.78,-17.59 356.18,-24.45"/>
</a>
</g>
</g>
<!-- Node8&#45;&gt;Node6 -->
<g id="edge9_Node000008_Node000006" class="edge">
<title>Node8&#45;&gt;Node6</title>
<g id="a_edge9_Node000008_Node000006"><a xlink:title=" ">
<path fill="none" stroke="#63b8ff" d="M462.95,-19.09C489.25,-24.24 521.84,-30.62 549.47,-36.03"/>
<polygon fill="#63b8ff" stroke="#63b8ff" points="548.91,-39.49 559.4,-37.98 550.26,-32.62 548.91,-39.49"/>
</a>
</g>
</g>
</g>
</svg>
