<?xml version="1.0" encoding="UTF-8" standalone="no"?>
<!DOCTYPE svg PUBLIC "-//W3C//DTD SVG 1.1//EN"
 "http://www.w3.org/Graphics/SVG/1.1/DTD/svg11.dtd">
<!-- Generated by graphviz version 2.40.1 (20161225.0304)
 -->
<!-- Title: QtPassSettings::isUseAutoclear Pages: 1 -->
<!--zoomable 82 -->
<svg id="main" version="1.1" xmlns="http://www.w3.org/2000/svg" xmlns:xlink="http://www.w3.org/1999/xlink" xml:space="preserve" onload="init(evt)">
<style type="text/css"><![CDATA[
.edge:hover path { stroke: red; }
.edge:hover polygon { stroke: red; fill: red; }
]]></style>
<script type="text/javascript"><![CDATA[
var edges = document.getElementsByTagName('g');
if (edges && edges.length) {
  for (var i=0;i<edges.length;i++) {
    if (edges[i].id.substr(0,4)=='edge') {
      edges[i].setAttribute('class','edge');
    }
  }
}
]]></script>
        <defs>
                <circle id="rim" cx="0" cy="0" r="7"/>
                <circle id="rim2" cx="0" cy="0" r="3.5"/>
                <g id="zoomPlus">
                        <use xlink:href="#rim" fill="#404040">
                                <set attributeName="fill" to="#808080" begin="zoomplus.mouseover" end="zoomplus.mouseout"/>
                        </use>
                        <path d="M-4,0h8M0,-4v8" fill="none" stroke="white" stroke-width="1.5" pointer-events="none"/>
                </g>
                <g id="zoomMin">
                        <use xlink:href="#rim" fill="#404040">
                                <set attributeName="fill" to="#808080" begin="zoomminus.mouseover" end="zoomminus.mouseout"/>
                        </use>
                        <path d="M-4,0h8" fill="none" stroke="white" stroke-width="1.5" pointer-events="none"/>
                </g>
                <g id="dirArrow">
                        <path fill="none" stroke="white" stroke-width="1.5" d="M0,-3.0v7 M-2.5,-0.5L0,-3.0L2.5,-0.5"/>
                </g>
               <g id="resetDef">
                       <use xlink:href="#rim2" fill="#404040">
                               <set attributeName="fill" to="#808080" begin="reset.mouseover" end="reset.mouseout"/>
                       </use>
               </g>
        </defs>

<script type="text/javascript">
var viewWidth = 717;
var viewHeight = 82;
var sectionId = 'dynsection-42';
</script>
<script xlink:href="svgpan.js"/>
<svg id="graph" class="graph">
<g id="viewport">
<title>QtPassSettings::isUseAutoclear</title>
<!-- Node327 -->
<g id="node1" class="node">
<title>Node327</title>
<polygon fill="#bfbfbf" stroke="#000000" points="0,-18.5 0,-36.5 157.7285,-36.5 157.7285,-18.5 0,-18.5"/>
<text text-anchor="middle" x="78.8643" y="-24.5" font-family="Helvetica,sans-Serif" font-size="10.00" fill="#000000">QtPassSettings::isUseAutoclear</text>
</g>
<!-- Node328 -->
<g id="node2" class="node">
<title>Node328</title>
<g id="a_node2"><a xlink:href="class_main_window.html#aeb8091ab5531144b76c1fbb0d63deb56" target="_top" xlink:title="MainWindow::config pops up the configuration screen and handles all inter&#45;window communication. ">
<polygon fill="none" stroke="#000000" points="213.7334,-37.5 213.7334,-55.5 319.2158,-55.5 319.2158,-37.5 213.7334,-37.5"/>
<text text-anchor="middle" x="266.4746" y="-43.5" font-family="Helvetica,sans-Serif" font-size="10.00" fill="#000000">MainWindow::config</text>
</a>
</g>
</g>
<!-- Node327&#45;&gt;Node328 -->
<g id="edge1" class="edge">
<title>Node327&#45;&gt;Node328</title>
<path fill="none" stroke="#191970" d="M168.0937,-36.5366C183.6946,-38.1166 199.4647,-39.7137 213.6724,-41.1525"/>
<polygon fill="#191970" stroke="#191970" points="168.186,-33.0281 157.8842,-35.5026 167.4806,-39.9925 168.186,-33.0281"/>
</g>
<!-- Node333 -->
<g id="node7" class="node">
<title>Node333</title>
<g id="a_node7"><a xlink:href="class_main_window.html#a9c4f542263838b9ecd06eae839a42a34" target="_top" xlink:title="MainWindow::keyPressEvent did anyone press return, enter or escape? ">
<polygon fill="none" stroke="#000000" points="193.7285,-.5 193.7285,-18.5 339.2207,-18.5 339.2207,-.5 193.7285,-.5"/>
<text text-anchor="middle" x="266.4746" y="-6.5" font-family="Helvetica,sans-Serif" font-size="10.00" fill="#000000">MainWindow::keyPressEvent</text>
</a>
</g>
</g>
<!-- Node327&#45;&gt;Node333 -->
<g id="edge6" class="edge">
<title>Node327&#45;&gt;Node333</title>
<path fill="none" stroke="#191970" d="M167.9135,-18.9563C176.4925,-18.1332 185.1247,-17.305 193.522,-16.4993"/>
<polygon fill="#191970" stroke="#191970" points="167.5042,-15.4794 157.8842,-19.9185 168.1728,-22.4474 167.5042,-15.4794"/>
</g>
<!-- Node329 -->
<g id="node3" class="node">
<title>Node329</title>
<g id="a_node3"><a xlink:href="class_main_window.html#a23d2783cb61a373c4b0127970264290a" target="_top" xlink:title="MainWindow::checkConfig make sure we are ready to go as soon as possible. ">
<polygon fill="none" stroke="#000000" points="389.3931,-55.5 389.3931,-73.5 523.2202,-73.5 523.2202,-55.5 389.3931,-55.5"/>
<text text-anchor="middle" x="456.3066" y="-61.5" font-family="Helvetica,sans-Serif" font-size="10.00" fill="#000000">MainWindow::checkConfig</text>
</a>
</g>
</g>
<!-- Node328&#45;&gt;Node329 -->
<g id="edge2" class="edge">
<title>Node328&#45;&gt;Node329</title>
<path fill="none" stroke="#191970" d="M329.4633,-52.4726C348.6061,-54.2878 369.7098,-56.2888 389.1181,-58.1291"/>
<polygon fill="#191970" stroke="#191970" points="329.6392,-48.9737 319.3534,-51.514 328.9783,-55.9424 329.6392,-48.9737"/>
</g>
<!-- Node331 -->
<g id="node5" class="node">
<title>Node331</title>
<g id="a_node5"><a xlink:href="class_main_window.html#a4680b2cbcfd388683a98303f29c0f84f" target="_top" xlink:title="MainWindow::executePassGitInit git init wrapper. ">
<polygon fill="none" stroke="#000000" points="375.2207,-18.5 375.2207,-36.5 537.3926,-36.5 537.3926,-18.5 375.2207,-18.5"/>
<text text-anchor="middle" x="456.3066" y="-24.5" font-family="Helvetica,sans-Serif" font-size="10.00" fill="#000000">MainWindow::executePassGitInit</text>
</a>
</g>
</g>
<!-- Node328&#45;&gt;Node331 -->
<g id="edge4" class="edge">
<title>Node328&#45;&gt;Node331</title>
<path fill="none" stroke="#191970" d="M329.6878,-40.1731C344.1819,-38.7224 359.7902,-37.1602 374.9295,-35.6449"/>
<polygon fill="#191970" stroke="#191970" points="328.9551,-36.7288 319.3534,-41.2074 329.6523,-43.694 328.9551,-36.7288"/>
</g>
<!-- Node330 -->
<g id="node4" class="node">
<title>Node330</title>
<g id="a_node4"><a xlink:href="class_main_window.html#a8b244be8b7b7db1b08de2a2acb9409db" target="_top" xlink:title="MainWindow::MainWindow handles all of the main functionality and also the main window. ">
<polygon fill="none" stroke="#000000" points="573.3926,-55.5 573.3926,-73.5 709.4316,-73.5 709.4316,-55.5 573.3926,-55.5"/>
<text text-anchor="middle" x="641.4121" y="-61.5" font-family="Helvetica,sans-Serif" font-size="10.00" fill="#000000">MainWindow::MainWindow</text>
</a>
</g>
</g>
<!-- Node329&#45;&gt;Node330 -->
<g id="edge3" class="edge">
<title>Node329&#45;&gt;Node330</title>
<path fill="none" stroke="#191970" d="M533.4162,-64.5C546.6549,-64.5 560.3274,-64.5 573.3086,-64.5"/>
<polygon fill="#191970" stroke="#191970" points="533.3957,-61.0001 523.3957,-64.5 533.3956,-68.0001 533.3957,-61.0001"/>
</g>
<!-- Node332 -->
<g id="node6" class="node">
<title>Node332</title>
<g id="a_node6"><a xlink:href="class_config_dialog.html#ad5b80066591f19fdaaa06b7cb5ba7f15" target="_top" xlink:title="ConfigDialog::wizard first&#45;time use wizard. ">
<polygon fill="none" stroke="#000000" points="587.5576,-18.5 587.5576,-36.5 695.2666,-36.5 695.2666,-18.5 587.5576,-18.5"/>
<text text-anchor="middle" x="641.4121" y="-24.5" font-family="Helvetica,sans-Serif" font-size="10.00" fill="#000000">ConfigDialog::wizard</text>
</a>
</g>
</g>
<!-- Node331&#45;&gt;Node332 -->
<g id="edge5" class="edge">
<title>Node331&#45;&gt;Node332</title>
<path fill="none" stroke="#191970" d="M547.8407,-27.5C561.4002,-27.5 574.9889,-27.5 587.4424,-27.5"/>
<polygon fill="#191970" stroke="#191970" points="547.4966,-24.0001 537.4966,-27.5 547.4966,-31.0001 547.4966,-24.0001"/>
</g>
</g>
</svg>
        <g id="navigator" transform="translate(0 0)" fill="#404254">
                <rect fill="#f2f5e9" fill-opacity="0.5" stroke="#606060" stroke-width=".5" x="0" y="0" width="60" height="60"/>
                <use id="zoomplus" xlink:href="#zoomPlus" x="17" y="9" onmousedown="handleZoom(evt,'in')"/>
                <use id="zoomminus" xlink:href="#zoomMin" x="42" y="9" onmousedown="handleZoom(evt,'out')"/>
                <use id="reset" xlink:href="#resetDef" x="30" y="36" onmousedown="handleReset()"/>
                <g id="arrowUp" xlink:href="#dirArrow" transform="translate(30 24)" onmousedown="handlePan(0,-1)">
                  <use xlink:href="#rim" fill="#404040">
                        <set attributeName="fill" to="#808080" begin="arrowUp.mouseover" end="arrowUp.mouseout"/>
                  </use>
                  <path fill="none" stroke="white" stroke-width="1.5" d="M0,-3.0v7 M-2.5,-0.5L0,-3.0L2.5,-0.5"/>
                </g>
                <g id="arrowRight" xlink:href="#dirArrow" transform="rotate(90) translate(36 -43)" onmousedown="handlePan(1,0)">
                  <use xlink:href="#rim" fill="#404040">
                        <set attributeName="fill" to="#808080" begin="arrowRight.mouseover" end="arrowRight.mouseout"/>
                  </use>
                  <path fill="none" stroke="white" stroke-width="1.5" d="M0,-3.0v7 M-2.5,-0.5L0,-3.0L2.5,-0.5"/>
                </g>
                <g id="arrowDown" xlink:href="#dirArrow" transform="rotate(180) translate(-30 -48)" onmousedown="handlePan(0,1)">
                  <use xlink:href="#rim" fill="#404040">
                        <set attributeName="fill" to="#808080" begin="arrowDown.mouseover" end="arrowDown.mouseout"/>
                  </use>
                  <path fill="none" stroke="white" stroke-width="1.5" d="M0,-3.0v7 M-2.5,-0.5L0,-3.0L2.5,-0.5"/>
                </g>
                <g id="arrowLeft" xlink:href="#dirArrow" transform="rotate(270) translate(-36 17)" onmousedown="handlePan(-1,0)">
                  <use xlink:href="#rim" fill="#404040">
                        <set attributeName="fill" to="#808080" begin="arrowLeft.mouseover" end="arrowLeft.mouseout"/>
                  </use>
                  <path fill="none" stroke="white" stroke-width="1.5" d="M0,-3.0v7 M-2.5,-0.5L0,-3.0L2.5,-0.5"/>
                </g>
        </g>
        <svg viewBox="0 0 15 15" width="100%" height="30px" preserveAspectRatio="xMaxYMin meet">
         <g id="arrow_out" transform="scale(0.3 0.3)">
          <a xlink:href="class_qt_pass_settings_ae105a118fa69c7c5bdf506355d20ffae_icgraph_org.svg" target="_base">
           <rect id="button" ry="5" rx="5" y="6" x="6" height="38" width="38"
                fill="#f2f5e9" fill-opacity="0.5" stroke="#606060" stroke-width="1.0"/>
           <path id="arrow"
             d="M 11.500037,31.436501 C 11.940474,20.09759 22.043105,11.32322 32.158766,21.979434 L 37.068811,17.246167 C 37.068811,17.246167 37.088388,32 37.088388,32 L 22.160133,31.978069 C 22.160133,31.978069 26.997745,27.140456 26.997745,27.140456 C 18.528582,18.264221 13.291696,25.230495 11.500037,31.436501 z"
             style="fill:#404040;"/>
          </a>
         </g>
        </svg>
</svg>
