<?xml version="1.0" encoding="UTF-8" standalone="no"?>
<!DOCTYPE svg PUBLIC "-//W3C//DTD SVG 1.1//EN"
 "http://www.w3.org/Graphics/SVG/1.1/DTD/svg11.dtd">
<!-- Generated by graphviz version 2.40.1 (20161225.0304)
 -->
<!-- Title: RealPass::Copy Pages: 1 -->
<svg width="488pt" height="66pt"
 viewBox="0.00 0.00 488.00 66.00" xmlns="http://www.w3.org/2000/svg" xmlns:xlink="http://www.w3.org/1999/xlink">
<g id="graph0" class="graph" transform="scale(1 1) rotate(0) translate(4 62)">
<title>RealPass::Copy</title>
<!-- Node18 -->
<g id="node1" class="node">
<title>Node18</title>
<polygon fill="#bfbfbf" stroke="#000000" points="0,-19.5 0,-38.5 89,-38.5 89,-19.5 0,-19.5"/>
<text text-anchor="middle" x="44.5" y="-26.5" font-family="Helvetica,sans-Serif" font-size="10.00" fill="#000000">RealPass::Copy</text>
</g>
<!-- Node19 -->
<g id="node2" class="node">
<title>Node19</title>
<g id="a_node2"><a xlink:href="class_qt_pass_settings.html#abb8c53443d71181a3ecd6545464453e6" target="_top" xlink:title="QtPassSettings::getPassStore">
<polygon fill="none" stroke="#000000" points="137.5,-38.5 137.5,-57.5 288.5,-57.5 288.5,-38.5 137.5,-38.5"/>
<text text-anchor="middle" x="213" y="-45.5" font-family="Helvetica,sans-Serif" font-size="10.00" fill="#000000">QtPassSettings::getPassStore</text>
</a>
</g>
</g>
<!-- Node18&#45;&gt;Node19 -->
<g id="edge1" class="edge">
<title>Node18&#45;&gt;Node19</title>
<path fill="none" stroke="#191970" d="M89.2125,-34.0418C101.022,-35.3734 114.1718,-36.8562 127.3668,-38.344"/>
<polygon fill="#191970" stroke="#191970" points="127.1153,-41.8378 137.4446,-39.4804 127.8997,-34.8819 127.1153,-41.8378"/>
</g>
<!-- Node21 -->
<g id="node4" class="node">
<title>Node21</title>
<g id="a_node4"><a xlink:href="class_qt_pass_settings.html#af0176d02663714d795cdf23eec6b657a" target="_top" xlink:title="QtPassSettings::getPassExecutable">
<polygon fill="none" stroke="#000000" points="125,-.5 125,-19.5 301,-19.5 301,-.5 125,-.5"/>
<text text-anchor="middle" x="213" y="-7.5" font-family="Helvetica,sans-Serif" font-size="10.00" fill="#000000">QtPassSettings::getPassExecutable</text>
</a>
</g>
</g>
<!-- Node18&#45;&gt;Node21 -->
<g id="edge3" class="edge">
<title>Node18&#45;&gt;Node21</title>
<path fill="none" stroke="#191970" d="M89.2125,-23.9582C98.353,-22.9276 108.2964,-21.8063 118.4422,-20.6623"/>
<polygon fill="#191970" stroke="#191970" points="119.0885,-24.1117 128.6333,-19.5132 118.3041,-17.1558 119.0885,-24.1117"/>
</g>
<!-- Node20 -->
<g id="node3" class="node">
<title>Node20</title>
<g id="a_node3"><a xlink:href="class_qt_pass_settings.html#ab83659fdbfb9069942e6982076b4b934" target="_top" xlink:title="QtPassSettings::getInstance">
<polygon fill="none" stroke="#000000" points="337,-19.5 337,-38.5 480,-38.5 480,-19.5 337,-19.5"/>
<text text-anchor="middle" x="408.5" y="-26.5" font-family="Helvetica,sans-Serif" font-size="10.00" fill="#000000">QtPassSettings::getInstance</text>
</a>
</g>
</g>
<!-- Node19&#45;&gt;Node20 -->
<g id="edge2" class="edge">
<title>Node19&#45;&gt;Node20</title>
<path fill="none" stroke="#191970" d="M288.5854,-40.6541C301.1334,-39.4346 314.1957,-38.1651 326.885,-36.9319"/>
<polygon fill="#191970" stroke="#191970" points="327.3501,-40.4033 336.9646,-35.9523 326.673,-33.4361 327.3501,-40.4033"/>
</g>
<!-- Node21&#45;&gt;Node20 -->
<g id="edge4" class="edge">
<title>Node21&#45;&gt;Node20</title>
<path fill="none" stroke="#191970" d="M301.0275,-18.5551C309.5297,-19.3814 318.1311,-20.2173 326.5708,-21.0376"/>
<polygon fill="#191970" stroke="#191970" points="326.476,-24.5448 336.7677,-22.0286 327.1531,-17.5776 326.476,-24.5448"/>
</g>
</g>
</svg>
