<?xml version="1.0" encoding="UTF-8" standalone="no"?>
<!DOCTYPE svg PUBLIC "-//W3C//DTD SVG 1.1//EN"
 "http://www.w3.org/Graphics/SVG/1.1/DTD/svg11.dtd">
<!-- Generated by graphviz version 2.40.1 (20161225.0304)
 -->
<!-- Title: Pass::statusMsg Pages: 1 -->
<svg width="271pt" height="64pt"
 viewBox="0.00 0.00 270.54 64.00" xmlns="http://www.w3.org/2000/svg" xmlns:xlink="http://www.w3.org/1999/xlink">
<g id="graph0" class="graph" transform="scale(1 1) rotate(0) translate(4 60)">
<title>Pass::statusMsg</title>
<!-- Node270 -->
<g id="node1" class="node">
<title>Node270</title>
<polygon fill="#bfbfbf" stroke="#000000" points="0,-18.5 0,-36.5 89.3594,-36.5 89.3594,-18.5 0,-18.5"/>
<text text-anchor="middle" x="44.6797" y="-24.5" font-family="Helvetica,sans-Serif" font-size="10.00" fill="#000000">Pass::statusMsg</text>
</g>
<!-- Node271 -->
<g id="node2" class="node">
<title>Node271</title>
<g id="a_node2"><a xlink:href="class_main_window.html#ac7c881667b4ba4986b5a0030452ee3f0" target="_top" xlink:title="MainWindow::changeEvent sets focus to the search box. ">
<polygon fill="none" stroke="#000000" points="125.3594,-37.5 125.3594,-55.5 262.5361,-55.5 262.5361,-37.5 125.3594,-37.5"/>
<text text-anchor="middle" x="193.9478" y="-43.5" font-family="Helvetica,sans-Serif" font-size="10.00" fill="#000000">MainWindow::changeEvent</text>
</a>
</g>
</g>
<!-- Node270&#45;&gt;Node271 -->
<g id="edge1" class="edge">
<title>Node270&#45;&gt;Node271</title>
<path fill="none" stroke="#191970" d="M99.4609,-34.473C107.8272,-35.5379 116.5524,-36.6485 125.1727,-37.7458"/>
<polygon fill="#191970" stroke="#191970" points="99.827,-30.9914 89.465,-33.2006 98.943,-37.9354 99.827,-30.9914"/>
</g>
<!-- Node272 -->
<g id="node3" class="node">
<title>Node272</title>
<g id="a_node3"><a xlink:href="class_pass.html#a8dfa731be7ac962f9f6a5cf8f29097ec" target="_top" xlink:title="Pass::~Pass">
<polygon fill="none" stroke="#000000" points="158.0181,-.5 158.0181,-18.5 229.8774,-18.5 229.8774,-.5 158.0181,-.5"/>
<text text-anchor="middle" x="193.9478" y="-6.5" font-family="Helvetica,sans-Serif" font-size="10.00" fill="#000000">Pass::~Pass</text>
</a>
</g>
</g>
<!-- Node270&#45;&gt;Node272 -->
<g id="edge2" class="edge">
<title>Node270&#45;&gt;Node272</title>
<path fill="none" stroke="#191970" d="M99.4167,-20.8994C118.8441,-18.5566 140.2119,-15.9799 157.7099,-13.8699"/>
<polygon fill="#191970" stroke="#191970" points="98.9741,-17.4273 89.465,-22.0994 99.8122,-24.3769 98.9741,-17.4273"/>
</g>
</g>
</svg>
