<?xml version="1.0" encoding="UTF-8" standalone="no"?>
<!DOCTYPE svg PUBLIC "-//W3C//DTD SVG 1.1//EN"
 "http://www.w3.org/Graphics/SVG/1.1/DTD/svg11.dtd">
<!-- Generated by graphviz version 2.40.1 (20161225.0304)
 -->
<!-- Title: PasswordDialog::setTemplate Pages: 1 -->
<svg width="498pt" height="27pt"
 viewBox="0.00 0.00 497.61 27.00" xmlns="http://www.w3.org/2000/svg" xmlns:xlink="http://www.w3.org/1999/xlink">
<g id="graph0" class="graph" transform="scale(1 1) rotate(0) translate(4 23)">
<title>PasswordDialog::setTemplate</title>
<!-- Node46 -->
<g id="node1" class="node">
<title>Node46</title>
<polygon fill="#bfbfbf" stroke="#000000" points="0,-.5 0,-18.5 147.7285,-18.5 147.7285,-.5 0,-.5"/>
<text text-anchor="middle" x="73.8643" y="-6.5" font-family="Helvetica,sans-Serif" font-size="10.00" fill="#000000">PasswordDialog::setTemplate</text>
</g>
<!-- Node47 -->
<g id="node2" class="node">
<title>Node47</title>
<g id="a_node2"><a xlink:href="class_main_window.html#a4680b2cbcfd388683a98303f29c0f84f" target="_top" xlink:title="MainWindow::executePassGitInit git init wrapper. ">
<polygon fill="none" stroke="#000000" points="183.7285,-.5 183.7285,-18.5 345.9004,-18.5 345.9004,-.5 183.7285,-.5"/>
<text text-anchor="middle" x="264.8145" y="-6.5" font-family="Helvetica,sans-Serif" font-size="10.00" fill="#000000">MainWindow::executePassGitInit</text>
</a>
</g>
</g>
<!-- Node46&#45;&gt;Node47 -->
<g id="edge1" class="edge">
<title>Node46&#45;&gt;Node47</title>
<path fill="none" stroke="#191970" d="M158.149,-9.5C166.5614,-9.5 175.0913,-9.5 183.4726,-9.5"/>
<polygon fill="#191970" stroke="#191970" points="157.9639,-6.0001 147.9639,-9.5 157.9639,-13.0001 157.9639,-6.0001"/>
</g>
<!-- Node48 -->
<g id="node3" class="node">
<title>Node48</title>
<g id="a_node3"><a xlink:href="class_config_dialog.html#ad5b80066591f19fdaaa06b7cb5ba7f15" target="_top" xlink:title="ConfigDialog::wizard first&#45;time use wizard. ">
<polygon fill="none" stroke="#000000" points="381.9004,-.5 381.9004,-18.5 489.6094,-18.5 489.6094,-.5 381.9004,-.5"/>
<text text-anchor="middle" x="435.7549" y="-6.5" font-family="Helvetica,sans-Serif" font-size="10.00" fill="#000000">ConfigDialog::wizard</text>
</a>
</g>
</g>
<!-- Node47&#45;&gt;Node48 -->
<g id="edge2" class="edge">
<title>Node47&#45;&gt;Node48</title>
<path fill="none" stroke="#191970" d="M356.2105,-9.5C364.8697,-9.5 373.4474,-9.5 381.5857,-9.5"/>
<polygon fill="#191970" stroke="#191970" points="356.0294,-6.0001 346.0294,-9.5 356.0294,-13.0001 356.0294,-6.0001"/>
</g>
</g>
</svg>
