<?xml version="1.0" encoding="UTF-8" standalone="no"?>
<!DOCTYPE svg PUBLIC "-//W3C//DTD SVG 1.1//EN"
 "http://www.w3.org/Graphics/SVG/1.1/DTD/svg11.dtd">
<!-- Generated by graphviz version 2.40.1 (20161225.0304)
 -->
<!-- Title: Executor::execute Pages: 1 -->
<!--zoomable 119 -->
<svg id="main" version="1.1" xmlns="http://www.w3.org/2000/svg" xmlns:xlink="http://www.w3.org/1999/xlink" xml:space="preserve" onload="init(evt)">
<style type="text/css"><![CDATA[
.edge:hover path { stroke: red; }
.edge:hover polygon { stroke: red; fill: red; }
]]></style>
<script type="text/javascript"><![CDATA[
var edges = document.getElementsByTagName('g');
if (edges && edges.length) {
  for (var i=0;i<edges.length;i++) {
    if (edges[i].id.substr(0,4)=='edge') {
      edges[i].setAttribute('class','edge');
    }
  }
}
]]></script>
        <defs>
                <circle id="rim" cx="0" cy="0" r="7"/>
                <circle id="rim2" cx="0" cy="0" r="3.5"/>
                <g id="zoomPlus">
                        <use xlink:href="#rim" fill="#404040">
                                <set attributeName="fill" to="#808080" begin="zoomplus.mouseover" end="zoomplus.mouseout"/>
                        </use>
                        <path d="M-4,0h8M0,-4v8" fill="none" stroke="white" stroke-width="1.5" pointer-events="none"/>
                </g>
                <g id="zoomMin">
                        <use xlink:href="#rim" fill="#404040">
                                <set attributeName="fill" to="#808080" begin="zoomminus.mouseover" end="zoomminus.mouseout"/>
                        </use>
                        <path d="M-4,0h8" fill="none" stroke="white" stroke-width="1.5" pointer-events="none"/>
                </g>
                <g id="dirArrow">
                        <path fill="none" stroke="white" stroke-width="1.5" d="M0,-3.0v7 M-2.5,-0.5L0,-3.0L2.5,-0.5"/>
                </g>
               <g id="resetDef">
                       <use xlink:href="#rim2" fill="#404040">
                               <set attributeName="fill" to="#808080" begin="reset.mouseover" end="reset.mouseout"/>
                       </use>
               </g>
        </defs>

<script type="text/javascript">
var viewWidth = 796;
var viewHeight = 119;
var sectionId = 'dynsection-2';
</script>
<script xlink:href="svgpan.js"/>
<svg id="graph" class="graph">
<g id="viewport">
<title>Executor::execute</title>
<!-- Node5 -->
<g id="node1" class="node">
<title>Node5</title>
<polygon fill="#bfbfbf" stroke="#000000" points="0,-55.5 0,-73.5 96.0439,-73.5 96.0439,-55.5 0,-55.5"/>
<text text-anchor="middle" x="48.022" y="-61.5" font-family="Helvetica,sans-Serif" font-size="10.00" fill="#000000">Executor::execute</text>
</g>
<!-- Node6 -->
<g id="node2" class="node">
<title>Node6</title>
<g id="a_node2"><a xlink:href="class_executor.html#a490166ea519a8047e207da8d67f3c0d2" target="_top" xlink:title="Executor::execute executes an app from a workDir. ">
<polygon fill="none" stroke="#000000" points="148.9922,-92.5 148.9922,-110.5 245.0361,-110.5 245.0361,-92.5 148.9922,-92.5"/>
<text text-anchor="middle" x="197.0142" y="-98.5" font-family="Helvetica,sans-Serif" font-size="10.00" fill="#000000">Executor::execute</text>
</a>
</g>
</g>
<!-- Node5&#45;&gt;Node6 -->
<g id="edge1" class="edge">
<title>Node5&#45;&gt;Node6</title>
<path fill="none" stroke="#191970" d="M94.3169,-75.9967C115.6909,-81.3046 140.6987,-87.5149 160.6849,-92.4782"/>
<polygon fill="#191970" stroke="#191970" points="95.0184,-72.5646 84.4696,-73.5512 93.3312,-79.3583 95.0184,-72.5646"/>
</g>
<!-- Node7 -->
<g id="node3" class="node">
<title>Node7</title>
<g id="a_node3"><a xlink:href="class_pass.html#a5d0cea4019f5c123fb4a4417de8d95b9" target="_top" xlink:title="Pass::Pass wrapper for using either pass or the pass imitation. ">
<polygon fill="none" stroke="#000000" points="164.0044,-55.5 164.0044,-73.5 230.0239,-73.5 230.0239,-55.5 164.0044,-55.5"/>
<text text-anchor="middle" x="197.0142" y="-61.5" font-family="Helvetica,sans-Serif" font-size="10.00" fill="#000000">Pass::Pass</text>
</a>
</g>
</g>
<!-- Node5&#45;&gt;Node7 -->
<g id="edge2" class="edge">
<title>Node5&#45;&gt;Node7</title>
<path fill="none" stroke="#191970" d="M106.4351,-64.5C125.9615,-64.5 147.0359,-64.5 163.9393,-64.5"/>
<polygon fill="#191970" stroke="#191970" points="106.3955,-61.0001 96.3955,-64.5 106.3954,-68.0001 106.3955,-61.0001"/>
</g>
<!-- Node8 -->
<g id="node4" class="node">
<title>Node8</title>
<g id="a_node4"><a xlink:href="class_pass.html#a0c29f7bd4ca235d00d9dac6a37e14f4f" target="_top" xlink:title="Pass::GenerateGPGKeys internal gpg keypair generator . . ">
<polygon fill="none" stroke="#000000" points="132.0439,-18.5 132.0439,-36.5 261.9844,-36.5 261.9844,-18.5 132.0439,-18.5"/>
<text text-anchor="middle" x="197.0142" y="-24.5" font-family="Helvetica,sans-Serif" font-size="10.00" fill="#000000">Pass::GenerateGPGKeys</text>
</a>
</g>
</g>
<!-- Node5&#45;&gt;Node8 -->
<g id="edge3" class="edge">
<title>Node5&#45;&gt;Node8</title>
<path fill="none" stroke="#191970" d="M94.3169,-53.0033C115.6909,-47.6954 140.6987,-41.4851 160.6849,-36.5218"/>
<polygon fill="#191970" stroke="#191970" points="93.3312,-49.6417 84.4696,-55.4488 95.0184,-56.4354 93.3312,-49.6417"/>
</g>
<!-- Node9 -->
<g id="node5" class="node">
<title>Node9</title>
<g id="a_node5"><a xlink:href="class_main_window.html#adcd6afb4bbea0fc89cf5b5b51e387935" target="_top" xlink:title="MainWindow::generateKeyPair internal gpg keypair generator . . ">
<polygon fill="none" stroke="#000000" points="297.9844,-37.5 297.9844,-55.5 451.2744,-55.5 451.2744,-37.5 297.9844,-37.5"/>
<text text-anchor="middle" x="374.6294" y="-43.5" font-family="Helvetica,sans-Serif" font-size="10.00" fill="#000000">MainWindow::generateKeyPair</text>
</a>
</g>
</g>
<!-- Node8&#45;&gt;Node9 -->
<g id="edge4" class="edge">
<title>Node8&#45;&gt;Node9</title>
<path fill="none" stroke="#191970" d="M272.3126,-35.5549C280.7346,-36.4558 289.3225,-37.3745 297.7638,-38.2775"/>
<polygon fill="#191970" stroke="#191970" points="272.4585,-32.0506 262.143,-34.467 271.7139,-39.0109 272.4585,-32.0506"/>
</g>
<!-- Node12 -->
<g id="node8" class="node">
<title>Node12</title>
<g id="a_node8"><a xlink:href="class_pass.html#a8dfa731be7ac962f9f6a5cf8f29097ec" target="_top" xlink:title="Pass::~Pass">
<polygon fill="none" stroke="#000000" points="338.6997,-.5 338.6997,-18.5 410.5591,-18.5 410.5591,-.5 338.6997,-.5"/>
<text text-anchor="middle" x="374.6294" y="-6.5" font-family="Helvetica,sans-Serif" font-size="10.00" fill="#000000">Pass::~Pass</text>
</a>
</g>
</g>
<!-- Node8&#45;&gt;Node12 -->
<g id="edge7" class="edge">
<title>Node8&#45;&gt;Node12</title>
<path fill="none" stroke="#191970" d="M272.2592,-19.8745C295.2771,-17.5418 319.5399,-15.0829 338.6646,-13.1448"/>
<polygon fill="#191970" stroke="#191970" points="271.7391,-16.4092 262.143,-20.8997 272.4449,-23.3735 271.7391,-16.4092"/>
</g>
<!-- Node10 -->
<g id="node6" class="node">
<title>Node10</title>
<g id="a_node6"><a xlink:href="class_config_dialog.html#a428d1f1b69aaaf09343e3d8db42ed138" target="_top" xlink:title="ConfigDialog::genKey tunnel function to make MainWindow generate a gpg key pair. ">
<polygon fill="none" stroke="#000000" points="487.2744,-37.5 487.2744,-55.5 600.0029,-55.5 600.0029,-37.5 487.2744,-37.5"/>
<text text-anchor="middle" x="543.6387" y="-43.5" font-family="Helvetica,sans-Serif" font-size="10.00" fill="#000000">ConfigDialog::genKey</text>
</a>
</g>
</g>
<!-- Node9&#45;&gt;Node10 -->
<g id="edge5" class="edge">
<title>Node9&#45;&gt;Node10</title>
<path fill="none" stroke="#191970" d="M461.731,-46.5C470.2668,-46.5 478.7672,-46.5 486.8835,-46.5"/>
<polygon fill="#191970" stroke="#191970" points="461.7154,-43.0001 451.7154,-46.5 461.7153,-50.0001 461.7154,-43.0001"/>
</g>
<!-- Node11 -->
<g id="node7" class="node">
<title>Node11</title>
<g id="a_node7"><a xlink:href="class_keygen_dialog.html#a90b3a3db49016043ba160a50c5272643" target="_top" xlink:title="KeygenDialog::~KeygenDialog even more basic destructor. ">
<polygon fill="none" stroke="#000000" points="636.0029,-37.5 636.0029,-55.5 787.9307,-55.5 787.9307,-37.5 636.0029,-37.5"/>
<text text-anchor="middle" x="711.9668" y="-43.5" font-family="Helvetica,sans-Serif" font-size="10.00" fill="#000000">KeygenDialog::~KeygenDialog</text>
</a>
</g>
</g>
<!-- Node10&#45;&gt;Node11 -->
<g id="edge6" class="edge">
<title>Node10&#45;&gt;Node11</title>
<path fill="none" stroke="#191970" d="M610.2657,-46.5C618.6713,-46.5 627.3212,-46.5 635.8594,-46.5"/>
<polygon fill="#191970" stroke="#191970" points="610.1578,-43.0001 600.1578,-46.5 610.1577,-50.0001 610.1578,-43.0001"/>
</g>
</g>
</svg>
        <g id="navigator" transform="translate(0 0)" fill="#404254">
                <rect fill="#f2f5e9" fill-opacity="0.5" stroke="#606060" stroke-width=".5" x="0" y="0" width="60" height="60"/>
                <use id="zoomplus" xlink:href="#zoomPlus" x="17" y="9" onmousedown="handleZoom(evt,'in')"/>
                <use id="zoomminus" xlink:href="#zoomMin" x="42" y="9" onmousedown="handleZoom(evt,'out')"/>
                <use id="reset" xlink:href="#resetDef" x="30" y="36" onmousedown="handleReset()"/>
                <g id="arrowUp" xlink:href="#dirArrow" transform="translate(30 24)" onmousedown="handlePan(0,-1)">
                  <use xlink:href="#rim" fill="#404040">
                        <set attributeName="fill" to="#808080" begin="arrowUp.mouseover" end="arrowUp.mouseout"/>
                  </use>
                  <path fill="none" stroke="white" stroke-width="1.5" d="M0,-3.0v7 M-2.5,-0.5L0,-3.0L2.5,-0.5"/>
                </g>
                <g id="arrowRight" xlink:href="#dirArrow" transform="rotate(90) translate(36 -43)" onmousedown="handlePan(1,0)">
                  <use xlink:href="#rim" fill="#404040">
                        <set attributeName="fill" to="#808080" begin="arrowRight.mouseover" end="arrowRight.mouseout"/>
                  </use>
                  <path fill="none" stroke="white" stroke-width="1.5" d="M0,-3.0v7 M-2.5,-0.5L0,-3.0L2.5,-0.5"/>
                </g>
                <g id="arrowDown" xlink:href="#dirArrow" transform="rotate(180) translate(-30 -48)" onmousedown="handlePan(0,1)">
                  <use xlink:href="#rim" fill="#404040">
                        <set attributeName="fill" to="#808080" begin="arrowDown.mouseover" end="arrowDown.mouseout"/>
                  </use>
                  <path fill="none" stroke="white" stroke-width="1.5" d="M0,-3.0v7 M-2.5,-0.5L0,-3.0L2.5,-0.5"/>
                </g>
                <g id="arrowLeft" xlink:href="#dirArrow" transform="rotate(270) translate(-36 17)" onmousedown="handlePan(-1,0)">
                  <use xlink:href="#rim" fill="#404040">
                        <set attributeName="fill" to="#808080" begin="arrowLeft.mouseover" end="arrowLeft.mouseout"/>
                  </use>
                  <path fill="none" stroke="white" stroke-width="1.5" d="M0,-3.0v7 M-2.5,-0.5L0,-3.0L2.5,-0.5"/>
                </g>
        </g>
        <svg viewBox="0 0 15 15" width="100%" height="30px" preserveAspectRatio="xMaxYMin meet">
         <g id="arrow_out" transform="scale(0.3 0.3)">
          <a xlink:href="class_executor_a7c4305c0af542f0174492badfdbfbc74_icgraph_org.svg" target="_base">
           <rect id="button" ry="5" rx="5" y="6" x="6" height="38" width="38"
                fill="#f2f5e9" fill-opacity="0.5" stroke="#606060" stroke-width="1.0"/>
           <path id="arrow"
             d="M 11.500037,31.436501 C 11.940474,20.09759 22.043105,11.32322 32.158766,21.979434 L 37.068811,17.246167 C 37.068811,17.246167 37.088388,32 37.088388,32 L 22.160133,31.978069 C 22.160133,31.978069 26.997745,27.140456 26.997745,27.140456 C 18.528582,18.264221 13.291696,25.230495 11.500037,31.436501 z"
             style="fill:#404040;"/>
          </a>
         </g>
        </svg>
</svg>
