<?xml version="1.0" encoding="UTF-8" standalone="no"?>
<!DOCTYPE svg PUBLIC "-//W3C//DTD SVG 1.1//EN"
 "http://www.w3.org/Graphics/SVG/1.1/DTD/svg11.dtd">
<!-- Generated by graphviz version 2.40.1 (20161225.0304)
 -->
<!-- Title: QtPassSettings::getPwgenExecutable Pages: 1 -->
<svg width="337pt" height="101pt"
 viewBox="0.00 0.00 336.69 101.00" xmlns="http://www.w3.org/2000/svg" xmlns:xlink="http://www.w3.org/1999/xlink">
<g id="graph0" class="graph" transform="scale(1 1) rotate(0) translate(4 97)">
<title>QtPassSettings::getPwgenExecutable</title>
<!-- Node302 -->
<g id="node1" class="node">
<title>Node302</title>
<polygon fill="#bfbfbf" stroke="#000000" points="0,-32.5 0,-60.5 134.9551,-60.5 134.9551,-32.5 0,-32.5"/>
<text text-anchor="start" x="8" y="-48.5" font-family="Helvetica,sans-Serif" font-size="10.00" fill="#000000">QtPassSettings::getPwgen</text>
<text text-anchor="middle" x="67.4775" y="-38.5" font-family="Helvetica,sans-Serif" font-size="10.00" fill="#000000">Executable</text>
</g>
<!-- Node303 -->
<g id="node2" class="node">
<title>Node303</title>
<g id="a_node2"><a xlink:href="class_config_dialog.html#a815d6d8ddf1de9386427ddef691a02a1" target="_top" xlink:title="ConfigDialog::ConfigDialog this sets up the configuration screen. ">
<polygon fill="none" stroke="#000000" points="181.79,-74.5 181.79,-92.5 317.8584,-92.5 317.8584,-74.5 181.79,-74.5"/>
<text text-anchor="middle" x="249.8242" y="-80.5" font-family="Helvetica,sans-Serif" font-size="10.00" fill="#000000">ConfigDialog::ConfigDialog</text>
</a>
</g>
</g>
<!-- Node302&#45;&gt;Node303 -->
<g id="edge1" class="edge">
<title>Node302&#45;&gt;Node303</title>
<path fill="none" stroke="#191970" d="M145.108,-62.252C165.6508,-66.4204 187.1317,-70.7791 205.2532,-74.4561"/>
<polygon fill="#191970" stroke="#191970" points="145.6139,-58.7834 135.1176,-60.2249 144.2218,-65.6436 145.6139,-58.7834"/>
</g>
<!-- Node304 -->
<g id="node3" class="node">
<title>Node304</title>
<g id="a_node3"><a xlink:href="class_pass.html#a9837e79dfc147d8710563a4a8a04bf3e" target="_top" xlink:title="Pass::const Generat&amp;e use eithconst er pwge&amp;n or internal password generator. ">
<polygon fill="none" stroke="#000000" points="201.5215,-37.5 201.5215,-55.5 298.127,-55.5 298.127,-37.5 201.5215,-37.5"/>
<text text-anchor="middle" x="249.8242" y="-43.5" font-family="Helvetica,sans-Serif" font-size="10.00" fill="#000000">Pass::Generate_b</text>
</a>
</g>
</g>
<!-- Node302&#45;&gt;Node304 -->
<g id="edge2" class="edge">
<title>Node302&#45;&gt;Node304</title>
<path fill="none" stroke="#191970" d="M145.2863,-46.5C164.3259,-46.5 184.1603,-46.5 201.3706,-46.5"/>
<polygon fill="#191970" stroke="#191970" points="145.1176,-43.0001 135.1176,-46.5 145.1175,-50.0001 145.1176,-43.0001"/>
</g>
<!-- Node305 -->
<g id="node4" class="node">
<title>Node305</title>
<g id="a_node4"><a xlink:href="class_qt_pass_settings.html#a64ffdab0605be803054150d438254c56" target="_top" xlink:title="QtPassSettings::initExecutables">
<polygon fill="none" stroke="#000000" points="170.9551,-.5 170.9551,-18.5 328.6934,-18.5 328.6934,-.5 170.9551,-.5"/>
<text text-anchor="middle" x="249.8242" y="-6.5" font-family="Helvetica,sans-Serif" font-size="10.00" fill="#000000">QtPassSettings::initExecutables</text>
</a>
</g>
</g>
<!-- Node302&#45;&gt;Node305 -->
<g id="edge3" class="edge">
<title>Node302&#45;&gt;Node305</title>
<path fill="none" stroke="#191970" d="M145.108,-30.748C165.6508,-26.5796 187.1317,-22.2209 205.2532,-18.5439"/>
<polygon fill="#191970" stroke="#191970" points="144.2218,-27.3564 135.1176,-32.7751 145.6139,-34.2166 144.2218,-27.3564"/>
</g>
</g>
</svg>
