<?xml version="1.0" encoding="UTF-8" standalone="no"?>
<!DOCTYPE svg PUBLIC "-//W3C//DTD SVG 1.1//EN"
 "http://www.w3.org/Graphics/SVG/1.1/DTD/svg11.dtd">
<!-- Generated by graphviz version 2.40.1 (20161225.0304)
 -->
<!-- Title: Pass::GenerateGPGKeys Pages: 1 -->
<!--zoomable 64 -->
<svg id="main" version="1.1" xmlns="http://www.w3.org/2000/svg" xmlns:xlink="http://www.w3.org/1999/xlink" xml:space="preserve" onload="init(evt)">
<style type="text/css"><![CDATA[
.edge:hover path { stroke: red; }
.edge:hover polygon { stroke: red; fill: red; }
]]></style>
<script type="text/javascript"><![CDATA[
var edges = document.getElementsByTagName('g');
if (edges && edges.length) {
  for (var i=0;i<edges.length;i++) {
    if (edges[i].id.substr(0,4)=='edge') {
      edges[i].setAttribute('class','edge');
    }
  }
}
]]></script>
        <defs>
                <circle id="rim" cx="0" cy="0" r="7"/>
                <circle id="rim2" cx="0" cy="0" r="3.5"/>
                <g id="zoomPlus">
                        <use xlink:href="#rim" fill="#404040">
                                <set attributeName="fill" to="#808080" begin="zoomplus.mouseover" end="zoomplus.mouseout"/>
                        </use>
                        <path d="M-4,0h8M0,-4v8" fill="none" stroke="white" stroke-width="1.5" pointer-events="none"/>
                </g>
                <g id="zoomMin">
                        <use xlink:href="#rim" fill="#404040">
                                <set attributeName="fill" to="#808080" begin="zoomminus.mouseover" end="zoomminus.mouseout"/>
                        </use>
                        <path d="M-4,0h8" fill="none" stroke="white" stroke-width="1.5" pointer-events="none"/>
                </g>
                <g id="dirArrow">
                        <path fill="none" stroke="white" stroke-width="1.5" d="M0,-3.0v7 M-2.5,-0.5L0,-3.0L2.5,-0.5"/>
                </g>
               <g id="resetDef">
                       <use xlink:href="#rim2" fill="#404040">
                               <set attributeName="fill" to="#808080" begin="reset.mouseover" end="reset.mouseout"/>
                       </use>
               </g>
        </defs>

<script type="text/javascript">
var viewWidth = 664;
var viewHeight = 64;
var sectionId = 'dynsection-26';
</script>
<script xlink:href="svgpan.js"/>
<svg id="graph" class="graph">
<g id="viewport">
<title>Pass::GenerateGPGKeys</title>
<!-- Node163 -->
<g id="node1" class="node">
<title>Node163</title>
<polygon fill="#bfbfbf" stroke="#000000" points="0,-18.5 0,-36.5 129.9404,-36.5 129.9404,-18.5 0,-18.5"/>
<text text-anchor="middle" x="64.9702" y="-24.5" font-family="Helvetica,sans-Serif" font-size="10.00" fill="#000000">Pass::GenerateGPGKeys</text>
</g>
<!-- Node164 -->
<g id="node2" class="node">
<title>Node164</title>
<g id="a_node2"><a xlink:href="class_main_window.html#adcd6afb4bbea0fc89cf5b5b51e387935" target="_top" xlink:title="MainWindow::generateKeyPair internal gpg keypair generator . . ">
<polygon fill="none" stroke="#000000" points="165.9404,-37.5 165.9404,-55.5 319.2305,-55.5 319.2305,-37.5 165.9404,-37.5"/>
<text text-anchor="middle" x="242.5854" y="-43.5" font-family="Helvetica,sans-Serif" font-size="10.00" fill="#000000">MainWindow::generateKeyPair</text>
</a>
</g>
</g>
<!-- Node163&#45;&gt;Node164 -->
<g id="edge1" class="edge">
<title>Node163&#45;&gt;Node164</title>
<path fill="none" stroke="#191970" d="M140.2686,-35.5549C148.6906,-36.4558 157.2786,-37.3745 165.7199,-38.2775"/>
<polygon fill="#191970" stroke="#191970" points="140.4146,-32.0506 130.099,-34.467 139.67,-39.0109 140.4146,-32.0506"/>
</g>
<!-- Node167 -->
<g id="node5" class="node">
<title>Node167</title>
<g id="a_node5"><a xlink:href="class_pass.html#a8dfa731be7ac962f9f6a5cf8f29097ec" target="_top" xlink:title="Pass::~Pass">
<polygon fill="none" stroke="#000000" points="206.6558,-.5 206.6558,-18.5 278.5151,-18.5 278.5151,-.5 206.6558,-.5"/>
<text text-anchor="middle" x="242.5854" y="-6.5" font-family="Helvetica,sans-Serif" font-size="10.00" fill="#000000">Pass::~Pass</text>
</a>
</g>
</g>
<!-- Node163&#45;&gt;Node167 -->
<g id="edge4" class="edge">
<title>Node163&#45;&gt;Node167</title>
<path fill="none" stroke="#191970" d="M140.2153,-19.8745C163.2331,-17.5418 187.496,-15.0829 206.6206,-13.1448"/>
<polygon fill="#191970" stroke="#191970" points="139.6951,-16.4092 130.099,-20.8997 140.401,-23.3735 139.6951,-16.4092"/>
</g>
<!-- Node165 -->
<g id="node3" class="node">
<title>Node165</title>
<g id="a_node3"><a xlink:href="class_config_dialog.html#a428d1f1b69aaaf09343e3d8db42ed138" target="_top" xlink:title="ConfigDialog::genKey tunnel function to make MainWindow generate a gpg key pair. ">
<polygon fill="none" stroke="#000000" points="355.2305,-37.5 355.2305,-55.5 467.959,-55.5 467.959,-37.5 355.2305,-37.5"/>
<text text-anchor="middle" x="411.5947" y="-43.5" font-family="Helvetica,sans-Serif" font-size="10.00" fill="#000000">ConfigDialog::genKey</text>
</a>
</g>
</g>
<!-- Node164&#45;&gt;Node165 -->
<g id="edge2" class="edge">
<title>Node164&#45;&gt;Node165</title>
<path fill="none" stroke="#191970" d="M329.6871,-46.5C338.2229,-46.5 346.7233,-46.5 354.8396,-46.5"/>
<polygon fill="#191970" stroke="#191970" points="329.6715,-43.0001 319.6714,-46.5 329.6714,-50.0001 329.6715,-43.0001"/>
</g>
<!-- Node166 -->
<g id="node4" class="node">
<title>Node166</title>
<g id="a_node4"><a xlink:href="class_keygen_dialog.html#a90b3a3db49016043ba160a50c5272643" target="_top" xlink:title="KeygenDialog::~KeygenDialog even more basic destructor. ">
<polygon fill="none" stroke="#000000" points="503.959,-37.5 503.959,-55.5 655.8867,-55.5 655.8867,-37.5 503.959,-37.5"/>
<text text-anchor="middle" x="579.9229" y="-43.5" font-family="Helvetica,sans-Serif" font-size="10.00" fill="#000000">KeygenDialog::~KeygenDialog</text>
</a>
</g>
</g>
<!-- Node165&#45;&gt;Node166 -->
<g id="edge3" class="edge">
<title>Node165&#45;&gt;Node166</title>
<path fill="none" stroke="#191970" d="M478.2218,-46.5C486.6274,-46.5 495.2772,-46.5 503.8154,-46.5"/>
<polygon fill="#191970" stroke="#191970" points="478.1139,-43.0001 468.1138,-46.5 478.1138,-50.0001 478.1139,-43.0001"/>
</g>
</g>
</svg>
        <g id="navigator" transform="translate(0 0)" fill="#404254">
                <rect fill="#f2f5e9" fill-opacity="0.5" stroke="#606060" stroke-width=".5" x="0" y="0" width="60" height="60"/>
                <use id="zoomplus" xlink:href="#zoomPlus" x="17" y="9" onmousedown="handleZoom(evt,'in')"/>
                <use id="zoomminus" xlink:href="#zoomMin" x="42" y="9" onmousedown="handleZoom(evt,'out')"/>
                <use id="reset" xlink:href="#resetDef" x="30" y="36" onmousedown="handleReset()"/>
                <g id="arrowUp" xlink:href="#dirArrow" transform="translate(30 24)" onmousedown="handlePan(0,-1)">
                  <use xlink:href="#rim" fill="#404040">
                        <set attributeName="fill" to="#808080" begin="arrowUp.mouseover" end="arrowUp.mouseout"/>
                  </use>
                  <path fill="none" stroke="white" stroke-width="1.5" d="M0,-3.0v7 M-2.5,-0.5L0,-3.0L2.5,-0.5"/>
                </g>
                <g id="arrowRight" xlink:href="#dirArrow" transform="rotate(90) translate(36 -43)" onmousedown="handlePan(1,0)">
                  <use xlink:href="#rim" fill="#404040">
                        <set attributeName="fill" to="#808080" begin="arrowRight.mouseover" end="arrowRight.mouseout"/>
                  </use>
                  <path fill="none" stroke="white" stroke-width="1.5" d="M0,-3.0v7 M-2.5,-0.5L0,-3.0L2.5,-0.5"/>
                </g>
                <g id="arrowDown" xlink:href="#dirArrow" transform="rotate(180) translate(-30 -48)" onmousedown="handlePan(0,1)">
                  <use xlink:href="#rim" fill="#404040">
                        <set attributeName="fill" to="#808080" begin="arrowDown.mouseover" end="arrowDown.mouseout"/>
                  </use>
                  <path fill="none" stroke="white" stroke-width="1.5" d="M0,-3.0v7 M-2.5,-0.5L0,-3.0L2.5,-0.5"/>
                </g>
                <g id="arrowLeft" xlink:href="#dirArrow" transform="rotate(270) translate(-36 17)" onmousedown="handlePan(-1,0)">
                  <use xlink:href="#rim" fill="#404040">
                        <set attributeName="fill" to="#808080" begin="arrowLeft.mouseover" end="arrowLeft.mouseout"/>
                  </use>
                  <path fill="none" stroke="white" stroke-width="1.5" d="M0,-3.0v7 M-2.5,-0.5L0,-3.0L2.5,-0.5"/>
                </g>
        </g>
        <svg viewBox="0 0 15 15" width="100%" height="30px" preserveAspectRatio="xMaxYMin meet">
         <g id="arrow_out" transform="scale(0.3 0.3)">
          <a xlink:href="class_pass_a0c29f7bd4ca235d00d9dac6a37e14f4f_icgraph_org.svg" target="_base">
           <rect id="button" ry="5" rx="5" y="6" x="6" height="38" width="38"
                fill="#f2f5e9" fill-opacity="0.5" stroke="#606060" stroke-width="1.0"/>
           <path id="arrow"
             d="M 11.500037,31.436501 C 11.940474,20.09759 22.043105,11.32322 32.158766,21.979434 L 37.068811,17.246167 C 37.068811,17.246167 37.088388,32 37.088388,32 L 22.160133,31.978069 C 22.160133,31.978069 26.997745,27.140456 26.997745,27.140456 C 18.528582,18.264221 13.291696,25.230495 11.500037,31.436501 z"
             style="fill:#404040;"/>
          </a>
         </g>
        </svg>
</svg>
