<?xml version="1.0" encoding="UTF-8" standalone="no"?>
<!DOCTYPE svg PUBLIC "-//W3C//DTD SVG 1.1//EN"
 "http://www.w3.org/Graphics/SVG/1.1/DTD/svg11.dtd">
<!-- Generated by graphviz version 2.40.1 (20161225.0304)
 -->
<!-- Title: QtPassSettings::isTemplateAllFields Pages: 1 -->
<!--zoomable 37 -->
<svg id="main" version="1.1" xmlns="http://www.w3.org/2000/svg" xmlns:xlink="http://www.w3.org/1999/xlink" xml:space="preserve" onload="init(evt)">
<style type="text/css"><![CDATA[
.edge:hover path { stroke: red; }
.edge:hover polygon { stroke: red; fill: red; }
]]></style>
<script type="text/javascript"><![CDATA[
var edges = document.getElementsByTagName('g');
if (edges && edges.length) {
  for (var i=0;i<edges.length;i++) {
    if (edges[i].id.substr(0,4)=='edge') {
      edges[i].setAttribute('class','edge');
    }
  }
}
]]></script>
        <defs>
                <circle id="rim" cx="0" cy="0" r="7"/>
                <circle id="rim2" cx="0" cy="0" r="3.5"/>
                <g id="zoomPlus">
                        <use xlink:href="#rim" fill="#404040">
                                <set attributeName="fill" to="#808080" begin="zoomplus.mouseover" end="zoomplus.mouseout"/>
                        </use>
                        <path d="M-4,0h8M0,-4v8" fill="none" stroke="white" stroke-width="1.5" pointer-events="none"/>
                </g>
                <g id="zoomMin">
                        <use xlink:href="#rim" fill="#404040">
                                <set attributeName="fill" to="#808080" begin="zoomminus.mouseover" end="zoomminus.mouseout"/>
                        </use>
                        <path d="M-4,0h8" fill="none" stroke="white" stroke-width="1.5" pointer-events="none"/>
                </g>
                <g id="dirArrow">
                        <path fill="none" stroke="white" stroke-width="1.5" d="M0,-3.0v7 M-2.5,-0.5L0,-3.0L2.5,-0.5"/>
                </g>
               <g id="resetDef">
                       <use xlink:href="#rim2" fill="#404040">
                               <set attributeName="fill" to="#808080" begin="reset.mouseover" end="reset.mouseout"/>
                       </use>
               </g>
        </defs>

<script type="text/javascript">
var viewWidth = 630;
var viewHeight = 37;
var sectionId = 'dynsection-38';
</script>
<script xlink:href="svgpan.js"/>
<svg id="graph" class="graph">
<g id="viewport">
<title>QtPassSettings::isTemplateAllFields</title>
<!-- Node230 -->
<g id="node1" class="node">
<title>Node230</title>
<polygon fill="#bfbfbf" stroke="#000000" points="0,-.5 0,-28.5 138.2754,-28.5 138.2754,-.5 0,-.5"/>
<text text-anchor="start" x="8" y="-16.5" font-family="Helvetica,sans-Serif" font-size="10.00" fill="#000000">QtPassSettings::isTemplate</text>
<text text-anchor="middle" x="69.1377" y="-6.5" font-family="Helvetica,sans-Serif" font-size="10.00" fill="#000000">AllFields</text>
</g>
<!-- Node231 -->
<g id="node2" class="node">
<title>Node231</title>
<g id="a_node2"><a xlink:href="class_main_window.html#aeb8091ab5531144b76c1fbb0d63deb56" target="_top" xlink:title="MainWindow::config pops up the configuration screen and handles all inter&#45;window communication. ">
<polygon fill="none" stroke="#000000" points="174.2754,-5.5 174.2754,-23.5 279.7578,-23.5 279.7578,-5.5 174.2754,-5.5"/>
<text text-anchor="middle" x="227.0166" y="-11.5" font-family="Helvetica,sans-Serif" font-size="10.00" fill="#000000">MainWindow::config</text>
</a>
</g>
</g>
<!-- Node230&#45;&gt;Node231 -->
<g id="edge1" class="edge">
<title>Node230&#45;&gt;Node231</title>
<path fill="none" stroke="#191970" d="M148.4986,-14.5C157.1317,-14.5 165.7581,-14.5 173.9648,-14.5"/>
<polygon fill="#191970" stroke="#191970" points="148.3857,-11.0001 138.3857,-14.5 148.3856,-18.0001 148.3857,-11.0001"/>
</g>
<!-- Node232 -->
<g id="node3" class="node">
<title>Node232</title>
<g id="a_node3"><a xlink:href="class_main_window.html#a23d2783cb61a373c4b0127970264290a" target="_top" xlink:title="MainWindow::checkConfig make sure we are ready to go as soon as possible. ">
<polygon fill="none" stroke="#000000" points="315.7578,-5.5 315.7578,-23.5 449.585,-23.5 449.585,-5.5 315.7578,-5.5"/>
<text text-anchor="middle" x="382.6714" y="-11.5" font-family="Helvetica,sans-Serif" font-size="10.00" fill="#000000">MainWindow::checkConfig</text>
</a>
</g>
</g>
<!-- Node231&#45;&gt;Node232 -->
<g id="edge2" class="edge">
<title>Node231&#45;&gt;Node232</title>
<path fill="none" stroke="#191970" d="M290.2492,-14.5C298.6479,-14.5 307.2818,-14.5 315.7405,-14.5"/>
<polygon fill="#191970" stroke="#191970" points="290.1488,-11.0001 280.1488,-14.5 290.1488,-18.0001 290.1488,-11.0001"/>
</g>
<!-- Node233 -->
<g id="node4" class="node">
<title>Node233</title>
<g id="a_node4"><a xlink:href="class_main_window.html#a8b244be8b7b7db1b08de2a2acb9409db" target="_top" xlink:title="MainWindow::MainWindow handles all of the main functionality and also the main window. ">
<polygon fill="none" stroke="#000000" points="485.585,-5.5 485.585,-23.5 621.624,-23.5 621.624,-5.5 485.585,-5.5"/>
<text text-anchor="middle" x="553.6045" y="-11.5" font-family="Helvetica,sans-Serif" font-size="10.00" fill="#000000">MainWindow::MainWindow</text>
</a>
</g>
</g>
<!-- Node232&#45;&gt;Node233 -->
<g id="edge3" class="edge">
<title>Node232&#45;&gt;Node233</title>
<path fill="none" stroke="#191970" d="M459.9751,-14.5C468.4297,-14.5 476.9919,-14.5 485.3266,-14.5"/>
<polygon fill="#191970" stroke="#191970" points="459.7381,-11.0001 449.7381,-14.5 459.738,-18.0001 459.7381,-11.0001"/>
</g>
</g>
</svg>
        <g id="navigator" transform="translate(0 0)" fill="#404254">
                <rect fill="#f2f5e9" fill-opacity="0.5" stroke="#606060" stroke-width=".5" x="0" y="0" width="60" height="60"/>
                <use id="zoomplus" xlink:href="#zoomPlus" x="17" y="9" onmousedown="handleZoom(evt,'in')"/>
                <use id="zoomminus" xlink:href="#zoomMin" x="42" y="9" onmousedown="handleZoom(evt,'out')"/>
                <use id="reset" xlink:href="#resetDef" x="30" y="36" onmousedown="handleReset()"/>
                <g id="arrowUp" xlink:href="#dirArrow" transform="translate(30 24)" onmousedown="handlePan(0,-1)">
                  <use xlink:href="#rim" fill="#404040">
                        <set attributeName="fill" to="#808080" begin="arrowUp.mouseover" end="arrowUp.mouseout"/>
                  </use>
                  <path fill="none" stroke="white" stroke-width="1.5" d="M0,-3.0v7 M-2.5,-0.5L0,-3.0L2.5,-0.5"/>
                </g>
                <g id="arrowRight" xlink:href="#dirArrow" transform="rotate(90) translate(36 -43)" onmousedown="handlePan(1,0)">
                  <use xlink:href="#rim" fill="#404040">
                        <set attributeName="fill" to="#808080" begin="arrowRight.mouseover" end="arrowRight.mouseout"/>
                  </use>
                  <path fill="none" stroke="white" stroke-width="1.5" d="M0,-3.0v7 M-2.5,-0.5L0,-3.0L2.5,-0.5"/>
                </g>
                <g id="arrowDown" xlink:href="#dirArrow" transform="rotate(180) translate(-30 -48)" onmousedown="handlePan(0,1)">
                  <use xlink:href="#rim" fill="#404040">
                        <set attributeName="fill" to="#808080" begin="arrowDown.mouseover" end="arrowDown.mouseout"/>
                  </use>
                  <path fill="none" stroke="white" stroke-width="1.5" d="M0,-3.0v7 M-2.5,-0.5L0,-3.0L2.5,-0.5"/>
                </g>
                <g id="arrowLeft" xlink:href="#dirArrow" transform="rotate(270) translate(-36 17)" onmousedown="handlePan(-1,0)">
                  <use xlink:href="#rim" fill="#404040">
                        <set attributeName="fill" to="#808080" begin="arrowLeft.mouseover" end="arrowLeft.mouseout"/>
                  </use>
                  <path fill="none" stroke="white" stroke-width="1.5" d="M0,-3.0v7 M-2.5,-0.5L0,-3.0L2.5,-0.5"/>
                </g>
        </g>
        <svg viewBox="0 0 15 15" width="100%" height="30px" preserveAspectRatio="xMaxYMin meet">
         <g id="arrow_out" transform="scale(0.3 0.3)">
          <a xlink:href="class_qt_pass_settings_a1e65645c63846fcf2d51897e76e6d0c0_icgraph_org.svg" target="_base">
           <rect id="button" ry="5" rx="5" y="6" x="6" height="38" width="38"
                fill="#f2f5e9" fill-opacity="0.5" stroke="#606060" stroke-width="1.0"/>
           <path id="arrow"
             d="M 11.500037,31.436501 C 11.940474,20.09759 22.043105,11.32322 32.158766,21.979434 L 37.068811,17.246167 C 37.068811,17.246167 37.088388,32 37.088388,32 L 22.160133,31.978069 C 22.160133,31.978069 26.997745,27.140456 26.997745,27.140456 C 18.528582,18.264221 13.291696,25.230495 11.500037,31.436501 z"
             style="fill:#404040;"/>
          </a>
         </g>
        </svg>
</svg>
