<?xml version="1.0" encoding="UTF-8" standalone="no"?>
<!DOCTYPE svg PUBLIC "-//W3C//DTD SVG 1.1//EN"
 "http://www.w3.org/Graphics/SVG/1.1/DTD/svg11.dtd">
<!-- Generated by graphviz version 2.43.0 (0)
 -->
<!-- Title: Util::configIsValid Pages: 1 -->
<svg width="519pt" height="175pt"
 viewBox="0.00 0.00 519.00 175.00" xmlns="http://www.w3.org/2000/svg" xmlns:xlink="http://www.w3.org/1999/xlink">
<g id="graph0" class="graph" transform="scale(1 1) rotate(0) translate(4 171)">
<title>Util::configIsValid</title>
<!-- Node1 -->
<g id="Node000001" class="node">
<title>Node1</title>
<g id="a_Node000001"><a xlink:title="Verify that the required configuration is complete.">
<polygon fill="#999999" stroke="#666666" points="101,-93 0,-93 0,-74 101,-74 101,-93"/>
<text text-anchor="middle" x="50.5" y="-81" font-family="Helvetica,sans-Serif" font-size="10.00">Util::configIsValid</text>
</a>
</g>
</g>
<!-- Node2 -->
<g id="Node000002" class="node">
<title>Node2</title>
<g id="a_Node000002"><a xlink:href="class_executor.html#a4e210af42a76029683ded3210cf7bce2" target="_top" xlink:title="Executor::executeBlocking blocking version of the executor, takes input and presents it as stdin.">
<polygon fill="white" stroke="#666666" points="302.5,-167 157.5,-167 157.5,-148 302.5,-148 302.5,-167"/>
<text text-anchor="middle" x="230" y="-155" font-family="Helvetica,sans-Serif" font-size="10.00">Executor::executeBlocking</text>
</a>
</g>
</g>
<!-- Node1&#45;&gt;Node2 -->
<g id="edge1_Node000001_Node000002" class="edge">
<title>Node1&#45;&gt;Node2</title>
<g id="a_edge1_Node000001_Node000002"><a xlink:title=" ">
<path fill="none" stroke="#63b8ff" d="M62.86,-93.04C78.51,-105.67 108.07,-127.73 137,-139.5 142.41,-141.7 148.11,-143.64 153.91,-145.34"/>
<polygon fill="#63b8ff" stroke="#63b8ff" points="153.17,-148.77 163.74,-148 155,-142.01 153.17,-148.77"/>
</a>
</g>
</g>
<!-- Node3 -->
<g id="Node000003" class="node">
<title>Node3</title>
<g id="a_Node000003"><a xlink:href="class_qt_pass_settings.html#a6d9beabe93c829cacdcc6c27792ffdba" target="_top" xlink:title="Get GPG executable path.">
<polygon fill="white" stroke="#666666" points="322,-130 138,-130 138,-111 322,-111 322,-130"/>
<text text-anchor="middle" x="230" y="-118" font-family="Helvetica,sans-Serif" font-size="10.00">QtPassSettings::getGpgExecutable</text>
</a>
</g>
</g>
<!-- Node1&#45;&gt;Node3 -->
<g id="edge2_Node000001_Node000003" class="edge">
<title>Node1&#45;&gt;Node3</title>
<g id="a_edge2_Node000001_Node000003"><a xlink:title=" ">
<path fill="none" stroke="#63b8ff" d="M93.64,-93.09C107.44,-96.17 122.86,-99.55 137,-102.5 147.26,-104.64 158.18,-106.85 168.79,-108.95"/>
<polygon fill="#63b8ff" stroke="#63b8ff" points="168.33,-112.42 178.82,-110.92 169.68,-105.56 168.33,-112.42"/>
</a>
</g>
</g>
<!-- Node5 -->
<g id="Node000005" class="node">
<title>Node5</title>
<g id="a_Node000005"><a xlink:href="class_qt_pass_settings.html#ac2673c76b268f6a622c8b3c7829ff8db" target="_top" xlink:title="Get pass executable path.">
<polygon fill="white" stroke="#666666" points="323,-93 137,-93 137,-74 323,-74 323,-93"/>
<text text-anchor="middle" x="230" y="-81" font-family="Helvetica,sans-Serif" font-size="10.00">QtPassSettings::getPassExecutable</text>
</a>
</g>
</g>
<!-- Node1&#45;&gt;Node5 -->
<g id="edge4_Node000001_Node000005" class="edge">
<title>Node1&#45;&gt;Node5</title>
<g id="a_edge4_Node000001_Node000005"><a xlink:title=" ">
<path fill="none" stroke="#63b8ff" d="M101.42,-83.5C109.38,-83.5 117.85,-83.5 126.51,-83.5"/>
<polygon fill="#63b8ff" stroke="#63b8ff" points="126.74,-87 136.74,-83.5 126.74,-80 126.74,-87"/>
</a>
</g>
</g>
<!-- Node6 -->
<g id="Node000006" class="node">
<title>Node6</title>
<g id="a_Node000006"><a xlink:href="class_qt_pass_settings.html#a538e612e04fe934535e1f7525d55743c" target="_top" xlink:title="Get password store directory path.">
<polygon fill="white" stroke="#666666" points="309,-56 151,-56 151,-37 309,-37 309,-56"/>
<text text-anchor="middle" x="230" y="-44" font-family="Helvetica,sans-Serif" font-size="10.00">QtPassSettings::getPassStore</text>
</a>
</g>
</g>
<!-- Node1&#45;&gt;Node6 -->
<g id="edge6_Node000001_Node000006" class="edge">
<title>Node1&#45;&gt;Node6</title>
<g id="a_edge6_Node000001_Node000006"><a xlink:title=" ">
<path fill="none" stroke="#63b8ff" d="M96.75,-73.94C109.75,-71.2 123.93,-68.22 137,-65.5 148.48,-63.11 160.78,-60.56 172.52,-58.13"/>
<polygon fill="#63b8ff" stroke="#63b8ff" points="173.58,-61.48 182.66,-56.03 172.16,-54.63 173.58,-61.48"/>
</a>
</g>
</g>
<!-- Node7 -->
<g id="Node000007" class="node">
<title>Node7</title>
<g id="a_Node000007"><a xlink:href="class_qt_pass_settings.html#a51d5b6ef611562d9247d5c482e6449a8" target="_top" xlink:title="Get whether to use pass (true) or GPG (false).">
<polygon fill="white" stroke="#666666" points="302,-19 158,-19 158,0 302,0 302,-19"/>
<text text-anchor="middle" x="230" y="-7" font-family="Helvetica,sans-Serif" font-size="10.00">QtPassSettings::isUsePass</text>
</a>
</g>
</g>
<!-- Node1&#45;&gt;Node7 -->
<g id="edge8_Node000001_Node000007" class="edge">
<title>Node1&#45;&gt;Node7</title>
<g id="a_edge8_Node000001_Node000007"><a xlink:title=" ">
<path fill="none" stroke="#63b8ff" d="M63.17,-73.97C78.95,-61.59 108.4,-40.18 137,-28.5 143.29,-25.93 149.97,-23.7 156.74,-21.75"/>
<polygon fill="#63b8ff" stroke="#63b8ff" points="157.94,-25.06 166.7,-19.11 156.14,-18.29 157.94,-25.06"/>
</a>
</g>
</g>
<!-- Node4 -->
<g id="Node000004" class="node">
<title>Node4</title>
<g id="a_Node000004"><a xlink:href="class_qt_pass_settings.html#a2483e7de01f9e312ee0fbf8a1637f29d" target="_top" xlink:title="Get the singleton instance.">
<polygon fill="white" stroke="#666666" points="511,-74 359,-74 359,-55 511,-55 511,-74"/>
<text text-anchor="middle" x="435" y="-62" font-family="Helvetica,sans-Serif" font-size="10.00">QtPassSettings::getInstance</text>
</a>
</g>
</g>
<!-- Node3&#45;&gt;Node4 -->
<g id="edge3_Node000003_Node000004" class="edge">
<title>Node3&#45;&gt;Node4</title>
<g id="a_edge3_Node000003_Node000004"><a xlink:title=" ">
<path fill="none" stroke="#63b8ff" d="M286.25,-110.96C298.43,-108.51 311.21,-105.66 323,-102.5 349.11,-95.51 377.97,-85.56 399.72,-77.59"/>
<polygon fill="#63b8ff" stroke="#63b8ff" points="401.01,-80.85 409.17,-74.09 398.58,-74.28 401.01,-80.85"/>
</a>
</g>
</g>
<!-- Node5&#45;&gt;Node4 -->
<g id="edge5_Node000005_Node000004" class="edge">
<title>Node5&#45;&gt;Node4</title>
<g id="a_edge5_Node000005_Node000004"><a xlink:title=" ">
<path fill="none" stroke="#63b8ff" d="M323.29,-74.86C331.78,-74.07 340.36,-73.26 348.78,-72.48"/>
<polygon fill="#63b8ff" stroke="#63b8ff" points="349.33,-75.94 358.96,-71.52 348.68,-68.97 349.33,-75.94"/>
</a>
</g>
</g>
<!-- Node6&#45;&gt;Node4 -->
<g id="edge7_Node000006_Node000004" class="edge">
<title>Node6&#45;&gt;Node4</title>
<g id="a_edge7_Node000006_Node000004"><a xlink:title=" ">
<path fill="none" stroke="#63b8ff" d="M309.19,-53.43C322.19,-54.59 335.72,-55.79 348.88,-56.95"/>
<polygon fill="#63b8ff" stroke="#63b8ff" points="348.58,-60.44 358.85,-57.84 349.2,-53.47 348.58,-60.44"/>
</a>
</g>
</g>
<!-- Node7&#45;&gt;Node4 -->
<g id="edge9_Node000007_Node000004" class="edge">
<title>Node7&#45;&gt;Node4</title>
<g id="a_edge9_Node000007_Node000004"><a xlink:title=" ">
<path fill="none" stroke="#63b8ff" d="M282.33,-19.06C295.64,-21.82 309.91,-25.04 323,-28.5 348.19,-35.16 376.09,-44.22 397.62,-51.58"/>
<polygon fill="#63b8ff" stroke="#63b8ff" points="396.73,-54.98 407.33,-54.94 399.02,-48.36 396.73,-54.98"/>
</a>
</g>
</g>
</g>
</svg>
