<?xml version="1.0" encoding="UTF-8" standalone="no"?>
<!DOCTYPE svg PUBLIC "-//W3C//DTD SVG 1.1//EN"
 "http://www.w3.org/Graphics/SVG/1.1/DTD/svg11.dtd">
<!-- Generated by graphviz version 2.49.3 (0)
 -->
<!-- Title: Pass::executeWrapper Pages: 1 -->
<svg width="304pt" height="64pt"
 viewBox="0.00 0.00 304.00 64.00" xmlns="http://www.w3.org/2000/svg" xmlns:xlink="http://www.w3.org/1999/xlink">
<g id="graph0" class="graph" transform="scale(1 1) rotate(0) translate(4 60)">
<title>Pass::executeWrapper</title>
<!-- Node1 -->
<g id="node1" class="node">
<title>Node1</title>
<g id="a_node1"><a xlink:title=" ">
<polygon fill="#999999" stroke="#666666" points="296,-37 181,-37 181,-18 296,-18 296,-37"/>
<text text-anchor="middle" x="238.5" y="-25" font-family="Helvetica,sans-Serif" font-size="10.00">Pass::executeWrapper</text>
</a>
</g>
</g>
<!-- Node1&#45;&gt;Node1 -->
<g id="edge1" class="edge">
<title>Node1&#45;&gt;Node1</title>
<path fill="none" stroke="#63b8ff" d="M269.49,-45.82C268.19,-51.01 257.86,-55 238.5,-55 209,-55 200.47,-45.73 212.91,-37.08"/>
<polygon fill="#63b8ff" stroke="#63b8ff" points="272.32,-43.75 264.09,-37.08 266.37,-47.43 272.32,-43.75"/>
</g>
<!-- Node2 -->
<g id="node2" class="node">
<title>Node2</title>
<g id="a_node2"><a xlink:href="class_imitate_pass.html#a733fddd3f8051d35dd2e601826192fea" target="_top" xlink:title="executeWrapper overrided so that every execution is a transaction">
<polygon fill="white" stroke="#666666" points="145,-56 0,-56 0,-37 145,-37 145,-56"/>
<text text-anchor="middle" x="72.5" y="-44" font-family="Helvetica,sans-Serif" font-size="10.00">ImitatePass::executeWrapper</text>
</a>
</g>
</g>
<!-- Node1&#45;&gt;Node2 -->
<g id="edge2" class="edge">
<title>Node1&#45;&gt;Node2</title>
<path fill="none" stroke="#63b8ff" d="M170.5,-35.26C162.1,-36.24 153.49,-37.23 145.03,-38.21"/>
<polygon fill="#63b8ff" stroke="#63b8ff" points="171.07,-38.72 180.6,-34.09 170.26,-31.77 171.07,-38.72"/>
</g>
<!-- Node3 -->
<g id="node3" class="node">
<title>Node3</title>
<g id="a_node3"><a xlink:href="class_pass.html#a0c29f7bd4ca235d00d9dac6a37e14f4f" target="_top" xlink:title="Pass::GenerateGPGKeys internal gpg keypair generator . .">
<polygon fill="white" stroke="#666666" points="136.5,-19 8.5,-19 8.5,0 136.5,0 136.5,-19"/>
<text text-anchor="middle" x="72.5" y="-7" font-family="Helvetica,sans-Serif" font-size="10.00">Pass::GenerateGPGKeys</text>
</a>
</g>
</g>
<!-- Node1&#45;&gt;Node3 -->
<g id="edge3" class="edge">
<title>Node1&#45;&gt;Node3</title>
<path fill="none" stroke="#63b8ff" d="M170.49,-20.15C159.34,-18.92 147.8,-17.66 136.75,-16.44"/>
<polygon fill="#63b8ff" stroke="#63b8ff" points="170.28,-23.64 180.6,-21.25 171.04,-16.68 170.28,-23.64"/>
</g>
</g>
</svg>
