<?xml version="1.0" encoding="UTF-8" standalone="no"?>
<!DOCTYPE svg PUBLIC "-//W3C//DTD SVG 1.1//EN"
 "http://www.w3.org/Graphics/SVG/1.1/DTD/svg11.dtd">
<!-- Generated by graphviz version 2.40.1 (20161225.0304)
 -->
<!-- Title: QtPass::QtPass Pages: 1 -->
<svg width="652pt" height="74pt"
 viewBox="0.00 0.00 652.06 74.00" xmlns="http://www.w3.org/2000/svg" xmlns:xlink="http://www.w3.org/1999/xlink">
<g id="graph0" class="graph" transform="scale(1 1) rotate(0) translate(4 70)">
<title>QtPass::QtPass</title>
<!-- Node0 -->
<g id="node1" class="node">
<title>Node0</title>
<g id="a_node1"><a xlink:title=" ">
<polygon fill="#bfbfbf" stroke="#000000" points="0,-20.5 0,-38.5 87.1328,-38.5 87.1328,-20.5 0,-20.5"/>
<text text-anchor="middle" x="43.5664" y="-26.5" font-family="Helvetica,sans-Serif" font-size="10.00" fill="#000000">QtPass::QtPass</text>
</a>
</g>
</g>
<!-- Node1 -->
<g id="node2" class="node">
<title>Node1</title>
<g id="a_node2"><a xlink:href="class_qt_pass.html#a24eb2c0a19143db0ba3a741c66881be6" target="_top" xlink:title=" ">
<polygon fill="none" stroke="#000000" points="123.1328,-40.5 123.1328,-58.5 258.8057,-58.5 258.8057,-40.5 123.1328,-40.5"/>
<text text-anchor="middle" x="190.9692" y="-46.5" font-family="Helvetica,sans-Serif" font-size="10.00" fill="#000000">QtPass::setClipboardTimer</text>
</a>
</g>
</g>
<!-- Node0&#45;&gt;Node1 -->
<g id="edge1" class="edge">
<title>Node0&#45;&gt;Node1</title>
<path fill="none" stroke="#191970" d="M87.393,-35.4465C95.9311,-36.605 105.1131,-37.8508 114.3563,-39.105"/>
<polygon fill="#191970" stroke="#191970" points="114.0027,-42.589 124.3825,-40.4653 114.9439,-35.6525 114.0027,-42.589"/>
</g>
<!-- Node4 -->
<g id="node5" class="node">
<title>Node4</title>
<g id="a_node5"><a xlink:href="class_qt_pass.html#a3febdf740ba4d78a4149d7d7c3b9284e" target="_top" xlink:title="MainWindow::clearClipboard remove clipboard contents.">
<polygon fill="none" stroke="#000000" points="131.5581,-2.5 131.5581,-20.5 250.3804,-20.5 250.3804,-2.5 131.5581,-2.5"/>
<text text-anchor="middle" x="190.9692" y="-8.5" font-family="Helvetica,sans-Serif" font-size="10.00" fill="#000000">QtPass::clearClipboard</text>
</a>
</g>
</g>
<!-- Node0&#45;&gt;Node4 -->
<g id="edge4" class="edge">
<title>Node0&#45;&gt;Node4</title>
<path fill="none" stroke="#191970" d="M87.393,-24.1481C98.0918,-22.8417 109.8017,-21.4117 121.376,-19.9983"/>
<polygon fill="#191970" stroke="#191970" points="121.9817,-23.4505 131.4837,-18.764 121.1332,-16.5021 121.9817,-23.4505"/>
</g>
<!-- Node2 -->
<g id="node3" class="node">
<title>Node2</title>
<g id="a_node3"><a xlink:href="class_qt_pass_settings.html#a462bf3ee0176fd621e4dc96c381bcffe" target="_top" xlink:title=" ">
<polygon fill="none" stroke="#000000" points="307.0273,-37.5 307.0273,-65.5 453.6523,-65.5 453.6523,-37.5 307.0273,-37.5"/>
<text text-anchor="start" x="315.0273" y="-53.5" font-family="Helvetica,sans-Serif" font-size="10.00" fill="#000000">QtPassSettings::getAutoclear</text>
<text text-anchor="middle" x="380.3398" y="-43.5" font-family="Helvetica,sans-Serif" font-size="10.00" fill="#000000">Seconds</text>
</a>
</g>
</g>
<!-- Node1&#45;&gt;Node2 -->
<g id="edge2" class="edge">
<title>Node1&#45;&gt;Node2</title>
<path fill="none" stroke="#191970" d="M259.0688,-50.2192C271.2846,-50.3482 284.1428,-50.484 296.7358,-50.617"/>
<polygon fill="#191970" stroke="#191970" points="296.7246,-54.117 306.761,-50.7229 296.7986,-47.1174 296.7246,-54.117"/>
</g>
<!-- Node3 -->
<g id="node4" class="node">
<title>Node3</title>
<g id="a_node4"><a xlink:href="class_qt_pass_settings.html#ab83659fdbfb9069942e6982076b4b934" target="_top" xlink:title=" ">
<polygon fill="none" stroke="#000000" points="501.874,-42.5 501.874,-60.5 644.0557,-60.5 644.0557,-42.5 501.874,-42.5"/>
<text text-anchor="middle" x="572.9648" y="-48.5" font-family="Helvetica,sans-Serif" font-size="10.00" fill="#000000">QtPassSettings::getInstance</text>
</a>
</g>
</g>
<!-- Node2&#45;&gt;Node3 -->
<g id="edge3" class="edge">
<title>Node2&#45;&gt;Node3</title>
<path fill="none" stroke="#191970" d="M453.7126,-51.5C466.1288,-51.5 479.085,-51.5 491.6889,-51.5"/>
<polygon fill="#191970" stroke="#191970" points="491.7045,-55.0001 501.7045,-51.5 491.7045,-48.0001 491.7045,-55.0001"/>
</g>
<!-- Node5 -->
<g id="node6" class="node">
<title>Node5</title>
<g id="a_node6"><a xlink:href="class_main_window.html#a3c11bd64b8c0a631a9f8cd9ec77fe68c" target="_top" xlink:title="Displays message in status bar.">
<polygon fill="none" stroke="#000000" points="294.8057,-.5 294.8057,-18.5 465.874,-18.5 465.874,-.5 294.8057,-.5"/>
<text text-anchor="middle" x="380.3398" y="-6.5" font-family="Helvetica,sans-Serif" font-size="10.00" fill="#000000">MainWindow::showStatusMessage</text>
</a>
</g>
</g>
<!-- Node4&#45;&gt;Node5 -->
<g id="edge5" class="edge">
<title>Node4&#45;&gt;Node5</title>
<path fill="none" stroke="#191970" d="M250.6274,-10.8699C261.4442,-10.7557 272.9711,-10.634 284.5205,-10.512"/>
<polygon fill="#191970" stroke="#191970" points="284.696,-14.0104 294.6584,-10.4049 284.622,-7.0108 284.696,-14.0104"/>
</g>
</g>
</svg>
