<?xml version="1.0" encoding="UTF-8" standalone="no"?>
<!DOCTYPE svg PUBLIC "-//W3C//DTD SVG 1.1//EN"
 "http://www.w3.org/Graphics/SVG/1.1/DTD/svg11.dtd">
<!-- Generated by graphviz version 2.40.1 (20161225.0304)
 -->
<!-- Title: Pass::getRecipientList Pages: 1 -->
<svg width="490pt" height="28pt"
 viewBox="0.00 0.00 490.00 28.00" xmlns="http://www.w3.org/2000/svg" xmlns:xlink="http://www.w3.org/1999/xlink">
<g id="graph0" class="graph" transform="scale(1 1) rotate(0) translate(4 24)">
<title>Pass::getRecipientList</title>
<!-- Node197 -->
<g id="node1" class="node">
<title>Node197</title>
<polygon fill="#bfbfbf" stroke="#000000" points="0,-.5 0,-19.5 116,-19.5 116,-.5 0,-.5"/>
<text text-anchor="middle" x="58" y="-7.5" font-family="Helvetica,sans-Serif" font-size="10.00" fill="#000000">Pass::getRecipientList</text>
</g>
<!-- Node198 -->
<g id="node2" class="node">
<title>Node198</title>
<g id="a_node2"><a xlink:href="class_qt_pass_settings.html#abb8c53443d71181a3ecd6545464453e6" target="_top" xlink:title="QtPassSettings::getPassStore">
<polygon fill="none" stroke="#000000" points="152,-.5 152,-19.5 303,-19.5 303,-.5 152,-.5"/>
<text text-anchor="middle" x="227.5" y="-7.5" font-family="Helvetica,sans-Serif" font-size="10.00" fill="#000000">QtPassSettings::getPassStore</text>
</a>
</g>
</g>
<!-- Node197&#45;&gt;Node198 -->
<g id="edge1" class="edge">
<title>Node197&#45;&gt;Node198</title>
<path fill="none" stroke="#191970" d="M116.3323,-10C124.5918,-10 133.2232,-10 141.8669,-10"/>
<polygon fill="#191970" stroke="#191970" points="141.998,-13.5001 151.998,-10 141.9979,-6.5001 141.998,-13.5001"/>
</g>
<!-- Node199 -->
<g id="node3" class="node">
<title>Node199</title>
<g id="a_node3"><a xlink:href="class_qt_pass_settings.html#ab83659fdbfb9069942e6982076b4b934" target="_top" xlink:title="QtPassSettings::getInstance">
<polygon fill="none" stroke="#000000" points="339,-.5 339,-19.5 482,-19.5 482,-.5 339,-.5"/>
<text text-anchor="middle" x="410.5" y="-7.5" font-family="Helvetica,sans-Serif" font-size="10.00" fill="#000000">QtPassSettings::getInstance</text>
</a>
</g>
</g>
<!-- Node198&#45;&gt;Node199 -->
<g id="edge2" class="edge">
<title>Node198&#45;&gt;Node199</title>
<path fill="none" stroke="#191970" d="M303.2541,-10C311.6428,-10 320.2135,-10 328.6727,-10"/>
<polygon fill="#191970" stroke="#191970" points="328.9161,-13.5001 338.9161,-10 328.9161,-6.5001 328.9161,-13.5001"/>
</g>
</g>
</svg>
