<?xml version="1.0" encoding="UTF-8" standalone="no"?>
<!DOCTYPE svg PUBLIC "-//W3C//DTD SVG 1.1//EN"
 "http://www.w3.org/Graphics/SVG/1.1/DTD/svg11.dtd">
<!-- Generated by graphviz version 2.40.1 (20161225.0304)
 -->
<!-- Title: MainWindow::passGitInitNeeded Pages: 1 -->
<svg width="502pt" height="64pt"
 viewBox="0.00 0.00 502.03 64.00" xmlns="http://www.w3.org/2000/svg" xmlns:xlink="http://www.w3.org/1999/xlink">
<g id="graph0" class="graph" transform="scale(1 1) rotate(0) translate(4 60)">
<title>MainWindow::passGitInitNeeded</title>
<!-- Node152 -->
<g id="node1" class="node">
<title>Node152</title>
<g id="a_node1"><a xlink:title=" ">
<polygon fill="#bfbfbf" stroke="#000000" points="332.9648,-18.5 332.9648,-36.5 494.0332,-36.5 494.0332,-18.5 332.9648,-18.5"/>
<text text-anchor="middle" x="413.499" y="-24.5" font-family="Helvetica,sans-Serif" font-size="10.00" fill="#000000">MainWindow::passGitInitNeeded</text>
</a>
</g>
</g>
<!-- Node153 -->
<g id="node2" class="node">
<title>Node153</title>
<g id="a_node2"><a xlink:href="class_config_dialog.html#ad5b80066591f19fdaaa06b7cb5ba7f15" target="_top" xlink:title="ConfigDialog::wizard first&#45;time use wizard.">
<polygon fill="none" stroke="#000000" points="180.6475,-37.5 180.6475,-55.5 288.3564,-55.5 288.3564,-37.5 180.6475,-37.5"/>
<text text-anchor="middle" x="234.502" y="-43.5" font-family="Helvetica,sans-Serif" font-size="10.00" fill="#000000">ConfigDialog::wizard</text>
</a>
</g>
</g>
<!-- Node152&#45;&gt;Node153 -->
<g id="edge1" class="edge">
<title>Node152&#45;&gt;Node153</title>
<path fill="none" stroke="#191970" d="M322.6527,-37.1431C310.9756,-38.3826 299.3291,-39.6188 288.5085,-40.7674"/>
<polygon fill="#191970" stroke="#191970" points="323.3276,-40.5912 332.9023,-36.0551 322.5887,-33.6303 323.3276,-40.5912"/>
</g>
<!-- Node154 -->
<g id="node3" class="node">
<title>Node154</title>
<g id="a_node3"><a xlink:href="class_qt_pass.html#abd1d1e8d6b80b8307a305d80a6c34371" target="_top" xlink:title=" ">
<polygon fill="none" stroke="#000000" points="172.0391,-.5 172.0391,-18.5 296.9648,-18.5 296.9648,-.5 172.0391,-.5"/>
<text text-anchor="middle" x="234.502" y="-6.5" font-family="Helvetica,sans-Serif" font-size="10.00" fill="#000000">QtPass::setMainWindow</text>
</a>
</g>
</g>
<!-- Node152&#45;&gt;Node154 -->
<g id="edge2" class="edge">
<title>Node152&#45;&gt;Node154</title>
<path fill="none" stroke="#191970" d="M322.7706,-18.3763C314.1295,-17.5074 305.5037,-16.64 297.2155,-15.8065"/>
<polygon fill="#191970" stroke="#191970" points="322.6022,-21.877 332.9023,-19.3952 323.3027,-14.9121 322.6022,-21.877"/>
</g>
<!-- Node155 -->
<g id="node4" class="node">
<title>Node155</title>
<g id="a_node4"><a xlink:href="class_main_window.html#a52e97245b2f88492071e639395c4a15a" target="_top" xlink:title="MainWindow::MainWindow handles all of the main functionality and also the main window.">
<polygon fill="none" stroke="#000000" points="0,-.5 0,-18.5 136.0391,-18.5 136.0391,-.5 0,-.5"/>
<text text-anchor="middle" x="68.0195" y="-6.5" font-family="Helvetica,sans-Serif" font-size="10.00" fill="#000000">MainWindow::MainWindow</text>
</a>
</g>
</g>
<!-- Node154&#45;&gt;Node155 -->
<g id="edge3" class="edge">
<title>Node154&#45;&gt;Node155</title>
<path fill="none" stroke="#191970" d="M162.0328,-9.5C153.431,-9.5 144.6731,-9.5 136.1349,-9.5"/>
<polygon fill="#191970" stroke="#191970" points="162.0364,-13.0001 172.0364,-9.5 162.0364,-6.0001 162.0364,-13.0001"/>
</g>
</g>
</svg>
