<?xml version="1.0" encoding="UTF-8" standalone="no"?>
<!DOCTYPE svg PUBLIC "-//W3C//DTD SVG 1.1//EN"
 "http://www.w3.org/Graphics/SVG/1.1/DTD/svg11.dtd">
<!-- Generated by graphviz version 2.49.3 (0)
 -->
<!-- Title: Util::checkConfig Pages: 1 -->
<svg width="491pt" height="138pt"
 viewBox="0.00 0.00 491.00 138.00" xmlns="http://www.w3.org/2000/svg" xmlns:xlink="http://www.w3.org/1999/xlink">
<g id="graph0" class="graph" transform="scale(1 1) rotate(0) translate(4 134)">
<title>Util::checkConfig</title>
<!-- Node1 -->
<g id="node1" class="node">
<title>Node1</title>
<g id="a_node1"><a xlink:title="Util::checkConfig do we have prequisite settings?">
<polygon fill="#999999" stroke="#666666" points="92,-74 0,-74 0,-55 92,-55 92,-74"/>
<text text-anchor="middle" x="46" y="-62" font-family="Helvetica,sans-Serif" font-size="10.00">Util::checkConfig</text>
</a>
</g>
</g>
<!-- Node2 -->
<g id="node2" class="node">
<title>Node2</title>
<g id="a_node2"><a xlink:href="class_qt_pass_settings.html#a92b674cdafc03000c808bff5fab93249" target="_top" xlink:title=" ">
<polygon fill="white" stroke="#666666" points="301.5,-130 130.5,-130 130.5,-111 301.5,-111 301.5,-130"/>
<text text-anchor="middle" x="216" y="-118" font-family="Helvetica,sans-Serif" font-size="10.00">QtPassSettings::getGpgExecutable</text>
</a>
</g>
</g>
<!-- Node1&#45;&gt;Node2 -->
<g id="edge1" class="edge">
<title>Node1&#45;&gt;Node2</title>
<path fill="none" stroke="#63b8ff" d="M64.21,-74.03C80.28,-82.57 105.16,-94.9 128,-102.5 134.84,-104.78 142.09,-106.82 149.36,-108.65"/>
<polygon fill="#63b8ff" stroke="#63b8ff" points="148.72,-112.09 159.25,-110.99 150.33,-105.28 148.72,-112.09"/>
</g>
<!-- Node4 -->
<g id="node4" class="node">
<title>Node4</title>
<g id="a_node4"><a xlink:href="class_qt_pass_settings.html#af0176d02663714d795cdf23eec6b657a" target="_top" xlink:title=" ">
<polygon fill="white" stroke="#666666" points="304,-93 128,-93 128,-74 304,-74 304,-93"/>
<text text-anchor="middle" x="216" y="-81" font-family="Helvetica,sans-Serif" font-size="10.00">QtPassSettings::getPassExecutable</text>
</a>
</g>
</g>
<!-- Node1&#45;&gt;Node4 -->
<g id="edge3" class="edge">
<title>Node1&#45;&gt;Node4</title>
<path fill="none" stroke="#63b8ff" d="M92.02,-69.59C101.06,-70.61 110.87,-71.72 120.88,-72.86"/>
<polygon fill="#63b8ff" stroke="#63b8ff" points="120.6,-76.35 130.93,-73.99 121.39,-69.39 120.6,-76.35"/>
</g>
<!-- Node5 -->
<g id="node5" class="node">
<title>Node5</title>
<g id="a_node5"><a xlink:href="class_qt_pass_settings.html#abb8c53443d71181a3ecd6545464453e6" target="_top" xlink:title=" ">
<polygon fill="white" stroke="#666666" points="291.5,-56 140.5,-56 140.5,-37 291.5,-37 291.5,-56"/>
<text text-anchor="middle" x="216" y="-44" font-family="Helvetica,sans-Serif" font-size="10.00">QtPassSettings::getPassStore</text>
</a>
</g>
</g>
<!-- Node1&#45;&gt;Node5 -->
<g id="edge5" class="edge">
<title>Node1&#45;&gt;Node5</title>
<path fill="none" stroke="#63b8ff" d="M92.02,-59.68C103.87,-58.41 117.05,-56.99 130.26,-55.58"/>
<polygon fill="#63b8ff" stroke="#63b8ff" points="130.77,-59.05 140.34,-54.5 130.02,-52.09 130.77,-59.05"/>
</g>
<!-- Node6 -->
<g id="node6" class="node">
<title>Node6</title>
<g id="a_node6"><a xlink:href="class_qt_pass_settings.html#a30ef36260f73f9f18d338f2b18a1f493" target="_top" xlink:title=" ">
<polygon fill="white" stroke="#666666" points="286,-19 146,-19 146,0 286,0 286,-19"/>
<text text-anchor="middle" x="216" y="-7" font-family="Helvetica,sans-Serif" font-size="10.00">QtPassSettings::isUsePass</text>
</a>
</g>
</g>
<!-- Node1&#45;&gt;Node6 -->
<g id="edge7" class="edge">
<title>Node1&#45;&gt;Node6</title>
<path fill="none" stroke="#63b8ff" d="M65.56,-54.95C81.7,-46.96 105.92,-35.74 128,-28.5 136.03,-25.87 144.59,-23.5 153.09,-21.39"/>
<polygon fill="#63b8ff" stroke="#63b8ff" points="154.09,-24.75 163.01,-19.04 152.47,-17.94 154.09,-24.75"/>
</g>
<!-- Node3 -->
<g id="node3" class="node">
<title>Node3</title>
<g id="a_node3"><a xlink:href="class_qt_pass_settings.html#ab83659fdbfb9069942e6982076b4b934" target="_top" xlink:title=" ">
<polygon fill="white" stroke="#666666" points="483,-74 340,-74 340,-55 483,-55 483,-74"/>
<text text-anchor="middle" x="411.5" y="-62" font-family="Helvetica,sans-Serif" font-size="10.00">QtPassSettings::getInstance</text>
</a>
</g>
</g>
<!-- Node2&#45;&gt;Node3 -->
<g id="edge2" class="edge">
<title>Node2&#45;&gt;Node3</title>
<path fill="none" stroke="#63b8ff" d="M269.27,-110.91C280.78,-108.46 292.86,-105.62 304,-102.5 328.97,-95.5 356.52,-85.61 377.35,-77.67"/>
<polygon fill="#63b8ff" stroke="#63b8ff" points="378.63,-80.93 386.7,-74.07 376.11,-74.4 378.63,-80.93"/>
</g>
<!-- Node4&#45;&gt;Node3 -->
<g id="edge4" class="edge">
<title>Node4&#45;&gt;Node3</title>
<path fill="none" stroke="#63b8ff" d="M304.13,-74.94C312.61,-74.11 321.2,-73.27 329.62,-72.44"/>
<polygon fill="#63b8ff" stroke="#63b8ff" points="330.18,-75.9 339.79,-71.44 329.5,-68.94 330.18,-75.9"/>
</g>
<!-- Node5&#45;&gt;Node3 -->
<g id="edge6" class="edge">
<title>Node5&#45;&gt;Node3</title>
<path fill="none" stroke="#63b8ff" d="M291.54,-53.43C304.05,-54.6 317.09,-55.81 329.76,-56.99"/>
<polygon fill="#63b8ff" stroke="#63b8ff" points="329.54,-60.48 339.82,-57.92 330.19,-53.51 329.54,-60.48"/>
</g>
<!-- Node6&#45;&gt;Node3 -->
<g id="edge8" class="edge">
<title>Node6&#45;&gt;Node3</title>
<path fill="none" stroke="#63b8ff" d="M265.1,-19.01C277.82,-21.79 291.49,-25.03 304,-28.5 328.08,-35.18 354.72,-44.18 375.33,-51.51"/>
<polygon fill="#63b8ff" stroke="#63b8ff" points="374.33,-54.87 384.92,-54.96 376.7,-48.29 374.33,-54.87"/>
</g>
</g>
</svg>
