<?xml version="1.0" encoding="UTF-8" standalone="no"?>
<!DOCTYPE svg PUBLIC "-//W3C//DTD SVG 1.1//EN"
 "http://www.w3.org/Graphics/SVG/1.1/DTD/svg11.dtd">
<!-- Generated by graphviz version 2.43.0 (0)
 -->
<!-- Title: QtPass::showTextAsQRCode Pages: 1 -->
<svg width="542pt" height="76pt"
 viewBox="0.00 0.00 542.00 75.50" xmlns="http://www.w3.org/2000/svg" xmlns:xlink="http://www.w3.org/1999/xlink">
<g id="graph0" class="graph" transform="scale(1 1) rotate(0) translate(4 71.5)">
<title>QtPass::showTextAsQRCode</title>
<!-- Node1 -->
<g id="Node000001" class="node">
<title>Node1</title>
<g id="a_Node000001"><a xlink:title="displays the text as qrcode">
<polygon fill="#999999" stroke="#666666" points="152,-45.5 0,-45.5 0,-26.5 152,-26.5 152,-45.5"/>
<text text-anchor="middle" x="76" y="-33.5" font-family="Helvetica,sans-Serif" font-size="10.00">QtPass::showTextAsQRCode</text>
</a>
</g>
</g>
<!-- Node2 -->
<g id="Node000002" class="node">
<title>Node2</title>
<g id="a_Node000002"><a xlink:href="class_qt_pass.html#abd2dacf3e88b411ef39ec78f49bbdd2d" target="_top" xlink:title="QtPass::createQRCodePopup creates a popup dialog with the given QR code image. This is extracted for ...">
<polygon fill="white" stroke="#666666" points="344.5,-67.5 189.5,-67.5 189.5,-48.5 344.5,-48.5 344.5,-67.5"/>
<text text-anchor="middle" x="267" y="-55.5" font-family="Helvetica,sans-Serif" font-size="10.00">QtPass::createQRCodePopup</text>
</a>
</g>
</g>
<!-- Node1&#45;&gt;Node2 -->
<g id="edge1_Node000001_Node000002" class="edge">
<title>Node1&#45;&gt;Node2</title>
<g id="a_edge1_Node000001_Node000002"><a xlink:title=" ">
<path fill="none" stroke="#63b8ff" d="M152.24,-44.76C161.14,-45.79 170.28,-46.86 179.32,-47.91"/>
<polygon fill="#63b8ff" stroke="#63b8ff" points="179.13,-51.41 189.47,-49.09 179.94,-44.46 179.13,-51.41"/>
</a>
</g>
</g>
<!-- Node3 -->
<g id="Node000003" class="node">
<title>Node3</title>
<g id="a_Node000003"><a xlink:href="class_qt_pass_settings.html#a822fd7d3ac81333a825e26a673e986df" target="_top" xlink:title="Get qrencode executable path.">
<polygon fill="white" stroke="#666666" points="346,-30 188,-30 188,0 346,0 346,-30"/>
<text text-anchor="start" x="196" y="-18" font-family="Helvetica,sans-Serif" font-size="10.00">QtPassSettings::getQrencode</text>
<text text-anchor="middle" x="267" y="-7" font-family="Helvetica,sans-Serif" font-size="10.00">Executable</text>
</a>
</g>
</g>
<!-- Node1&#45;&gt;Node3 -->
<g id="edge2_Node000001_Node000003" class="edge">
<title>Node1&#45;&gt;Node3</title>
<g id="a_edge2_Node000001_Node000003"><a xlink:title=" ">
<path fill="none" stroke="#63b8ff" d="M152.24,-27.64C160.68,-26.7 169.32,-25.74 177.9,-24.79"/>
<polygon fill="#63b8ff" stroke="#63b8ff" points="178.37,-28.26 187.92,-23.68 177.6,-21.3 178.37,-28.26"/>
</a>
</g>
</g>
<!-- Node4 -->
<g id="Node000004" class="node">
<title>Node4</title>
<g id="a_Node000004"><a xlink:href="class_qt_pass_settings.html#a2483e7de01f9e312ee0fbf8a1637f29d" target="_top" xlink:title="Get the singleton instance.">
<polygon fill="white" stroke="#666666" points="534,-24.5 382,-24.5 382,-5.5 534,-5.5 534,-24.5"/>
<text text-anchor="middle" x="458" y="-12.5" font-family="Helvetica,sans-Serif" font-size="10.00">QtPassSettings::getInstance</text>
</a>
</g>
</g>
<!-- Node3&#45;&gt;Node4 -->
<g id="edge3_Node000003_Node000004" class="edge">
<title>Node3&#45;&gt;Node4</title>
<g id="a_edge3_Node000003_Node000004"><a xlink:title=" ">
<path fill="none" stroke="#63b8ff" d="M346.24,-15C354.61,-15 363.16,-15 371.62,-15"/>
<polygon fill="#63b8ff" stroke="#63b8ff" points="371.86,-18.5 381.86,-15 371.86,-11.5 371.86,-18.5"/>
</a>
</g>
</g>
</g>
</svg>
