<?xml version="1.0" encoding="UTF-8" standalone="no"?>
<!DOCTYPE svg PUBLIC "-//W3C//DTD SVG 1.1//EN"
 "http://www.w3.org/Graphics/SVG/1.1/DTD/svg11.dtd">
<!-- Generated by graphviz version 2.49.3 (0)
 -->
<!-- Title: QtPass::clearClipboard Pages: 1 -->
<svg width="458pt" height="101pt"
 viewBox="0.00 0.00 458.00 101.00" xmlns="http://www.w3.org/2000/svg" xmlns:xlink="http://www.w3.org/1999/xlink">
<g id="graph0" class="graph" transform="scale(1 1) rotate(0) translate(4 97)">
<title>QtPass::clearClipboard</title>
<!-- Node1 -->
<g id="node1" class="node">
<title>Node1</title>
<g id="a_node1"><a xlink:title="MainWindow::clearClipboard remove clipboard contents.">
<polygon fill="#999999" stroke="#666666" points="450,-56 332,-56 332,-37 450,-37 450,-56"/>
<text text-anchor="middle" x="391" y="-44" font-family="Helvetica,sans-Serif" font-size="10.00">QtPass::clearClipboard</text>
</a>
</g>
</g>
<!-- Node2 -->
<g id="node2" class="node">
<title>Node2</title>
<g id="a_node2"><a xlink:href="class_main_window.html#a4e20a4a065fbb0e4d3532a45a0a91425" target="_top" xlink:title="MainWindow::closeEvent hide or quit.">
<polygon fill="white" stroke="#666666" points="296,-93 170,-93 170,-74 296,-74 296,-93"/>
<text text-anchor="middle" x="233" y="-81" font-family="Helvetica,sans-Serif" font-size="10.00">MainWindow::closeEvent</text>
</a>
</g>
</g>
<!-- Node1&#45;&gt;Node2 -->
<g id="edge1" class="edge">
<title>Node1&#45;&gt;Node2</title>
<path fill="none" stroke="#63b8ff" d="M340.01,-58.36C318.78,-63.39 294.36,-69.18 274.31,-73.94"/>
<polygon fill="#63b8ff" stroke="#63b8ff" points="340.9,-61.74 349.83,-56.03 339.29,-54.93 340.9,-61.74"/>
</g>
<!-- Node3 -->
<g id="node3" class="node">
<title>Node3</title>
<g id="a_node3"><a xlink:href="class_main_window.html#ad4cf3e2c819cac398728a82f1cf05f3e" target="_top" xlink:title="MainWindow::deselect clear the selection, password and copy buffer.">
<polygon fill="white" stroke="#666666" points="290.5,-56 175.5,-56 175.5,-37 290.5,-37 290.5,-56"/>
<text text-anchor="middle" x="233" y="-44" font-family="Helvetica,sans-Serif" font-size="10.00">MainWindow::deselect</text>
</a>
</g>
</g>
<!-- Node1&#45;&gt;Node3 -->
<g id="edge2" class="edge">
<title>Node1&#45;&gt;Node3</title>
<path fill="none" stroke="#63b8ff" d="M321.64,-46.5C311.27,-46.5 300.67,-46.5 290.58,-46.5"/>
<polygon fill="#63b8ff" stroke="#63b8ff" points="321.91,-50 331.91,-46.5 321.91,-43 321.91,-50"/>
</g>
<!-- Node5 -->
<g id="node5" class="node">
<title>Node5</title>
<g id="a_node5"><a xlink:href="class_qt_pass.html#aa9f6862ff8875c387423b462ac7f9cad" target="_top" xlink:title=" ">
<polygon fill="white" stroke="#666666" points="277.5,-19 188.5,-19 188.5,0 277.5,0 277.5,-19"/>
<text text-anchor="middle" x="233" y="-7" font-family="Helvetica,sans-Serif" font-size="10.00">QtPass::QtPass</text>
</a>
</g>
</g>
<!-- Node1&#45;&gt;Node5 -->
<g id="edge4" class="edge">
<title>Node1&#45;&gt;Node5</title>
<path fill="none" stroke="#63b8ff" d="M340.01,-34.64C318.78,-29.61 294.36,-23.82 274.31,-19.06"/>
<polygon fill="#63b8ff" stroke="#63b8ff" points="339.29,-38.07 349.83,-36.97 340.9,-31.26 339.29,-38.07"/>
</g>
<!-- Node4 -->
<g id="node4" class="node">
<title>Node4</title>
<g id="a_node4"><a xlink:href="class_main_window.html#a52e97245b2f88492071e639395c4a15a" target="_top" xlink:title="MainWindow::MainWindow handles all of the main functionality and also the main window.">
<polygon fill="white" stroke="#666666" points="134,-56 0,-56 0,-37 134,-37 134,-56"/>
<text text-anchor="middle" x="67" y="-44" font-family="Helvetica,sans-Serif" font-size="10.00">MainWindow::MainWindow</text>
</a>
</g>
</g>
<!-- Node3&#45;&gt;Node4 -->
<g id="edge3" class="edge">
<title>Node3&#45;&gt;Node4</title>
<path fill="none" stroke="#63b8ff" d="M165.02,-46.5C154.81,-46.5 144.28,-46.5 134.09,-46.5"/>
<polygon fill="#63b8ff" stroke="#63b8ff" points="165.1,-50 175.1,-46.5 165.1,-43 165.1,-50"/>
</g>
</g>
</svg>
