<?xml version="1.0" encoding="UTF-8" standalone="no"?>
<!DOCTYPE svg PUBLIC "-//W3C//DTD SVG 1.1//EN"
 "http://www.w3.org/Graphics/SVG/1.1/DTD/svg11.dtd">
<!-- Generated by graphviz version 2.40.1 (20161225.0304)
 -->
<!-- Title: QtPassSettings::isUseAutoclear Pages: 1 -->
<!--zoomable 152 -->
<svg id="main" version="1.1" xmlns="http://www.w3.org/2000/svg" xmlns:xlink="http://www.w3.org/1999/xlink" xml:space="preserve" onload="init(evt)">
<style type="text/css"><![CDATA[
.edge:hover path { stroke: red; }
.edge:hover polygon { stroke: red; fill: red; }
]]></style>
<script type="text/javascript"><![CDATA[
var edges = document.getElementsByTagName('g');
if (edges && edges.length) {
  for (var i=0;i<edges.length;i++) {
    if (edges[i].id.substr(0,4)=='edge') {
      edges[i].setAttribute('class','edge');
    }
  }
}
]]></script>
        <defs>
                <circle id="rim" cx="0" cy="0" r="7"/>
                <circle id="rim2" cx="0" cy="0" r="3.5"/>
                <g id="zoomPlus">
                        <use xlink:href="#rim" fill="#404040">
                                <set attributeName="fill" to="#808080" begin="zoomplus.mouseover" end="zoomplus.mouseout"/>
                        </use>
                        <path d="M-4,0h8M0,-4v8" fill="none" stroke="white" stroke-width="1.5" pointer-events="none"/>
                </g>
                <g id="zoomMin">
                        <use xlink:href="#rim" fill="#404040">
                                <set attributeName="fill" to="#808080" begin="zoomminus.mouseover" end="zoomminus.mouseout"/>
                        </use>
                        <path d="M-4,0h8" fill="none" stroke="white" stroke-width="1.5" pointer-events="none"/>
                </g>
                <g id="dirArrow">
                        <path fill="none" stroke="white" stroke-width="1.5" d="M0,-3.0v7 M-2.5,-0.5L0,-3.0L2.5,-0.5"/>
                </g>
               <g id="resetDef">
                       <use xlink:href="#rim2" fill="#404040">
                               <set attributeName="fill" to="#808080" begin="reset.mouseover" end="reset.mouseout"/>
                       </use>
               </g>
        </defs>

<script type="text/javascript">
var viewWidth = 1244;
var viewHeight = 152;
var sectionId = 'dynsection-80';
</script>
<script xlink:href="svgpan.js"/>
<svg id="graph" class="graph">
<g id="viewport">
<title>QtPassSettings::isUseAutoclear</title>
<!-- Node553 -->
<g id="node1" class="node">
<title>Node553</title>
<polygon fill="#bfbfbf" stroke="#000000" points="0,-102.5 0,-121.5 158,-121.5 158,-102.5 0,-102.5"/>
<text text-anchor="middle" x="79" y="-109.5" font-family="Helvetica,sans-Serif" font-size="10.00" fill="#000000">QtPassSettings::isUseAutoclear</text>
</g>
<!-- Node554 -->
<g id="node2" class="node">
<title>Node554</title>
<g id="a_node2"><a xlink:href="class_config_dialog.html#a815d6d8ddf1de9386427ddef691a02a1" target="_top" xlink:title="ConfigDialog::ConfigDialog this sets up the configuration screen. ">
<polygon fill="none" stroke="#000000" points="201,-121.5 201,-140.5 336,-140.5 336,-121.5 201,-121.5"/>
<text text-anchor="middle" x="268.5" y="-128.5" font-family="Helvetica,sans-Serif" font-size="10.00" fill="#000000">ConfigDialog::ConfigDialog</text>
</a>
</g>
</g>
<!-- Node553&#45;&gt;Node554 -->
<g id="edge1" class="edge">
<title>Node553&#45;&gt;Node554</title>
<path fill="none" stroke="#191970" d="M168.3123,-120.9548C179.299,-122.0564 190.3834,-123.1677 200.9722,-124.2294"/>
<polygon fill="#191970" stroke="#191970" points="168.5664,-117.4628 158.2671,-119.9476 167.868,-124.4279 168.5664,-117.4628"/>
</g>
<!-- Node555 -->
<g id="node3" class="node">
<title>Node555</title>
<g id="a_node3"><a xlink:href="class_qt_pass.html#acba134fb5281aedee11899a03976aa95" target="_top" xlink:title="MainWindow::copyTextToClipboard copies text to your clipboard. ">
<polygon fill="none" stroke="#000000" points="194,-83.5 194,-102.5 343,-102.5 343,-83.5 194,-83.5"/>
<text text-anchor="middle" x="268.5" y="-90.5" font-family="Helvetica,sans-Serif" font-size="10.00" fill="#000000">QtPass::copyTextToClipboard</text>
</a>
</g>
</g>
<!-- Node553&#45;&gt;Node555 -->
<g id="edge2" class="edge">
<title>Node553&#45;&gt;Node555</title>
<path fill="none" stroke="#191970" d="M168.2547,-103.051C176.8003,-102.1942 185.4057,-101.3314 193.7916,-100.4906"/>
<polygon fill="#191970" stroke="#191970" points="167.868,-99.5721 158.2671,-104.0524 168.5664,-106.5372 167.868,-99.5721"/>
</g>
<!-- Node556 -->
<g id="node4" class="node">
<title>Node556</title>
<g id="a_node4"><a xlink:href="class_main_window.html#a7997fd865548c3baa51f1863bb8fdfa0" target="_top" xlink:title="MainWindow::passOtpHandler">
<polygon fill="none" stroke="#000000" points="561,-121.5 561,-140.5 710,-140.5 710,-121.5 561,-121.5"/>
<text text-anchor="middle" x="635.5" y="-128.5" font-family="Helvetica,sans-Serif" font-size="10.00" fill="#000000">MainWindow::passOtpHandler</text>
</a>
</g>
</g>
<!-- Node555&#45;&gt;Node556 -->
<g id="edge3" class="edge">
<title>Node555&#45;&gt;Node556</title>
<path fill="none" stroke="#191970" d="M323.0621,-105.3237C329.8526,-107.3216 336.6397,-109.5501 343,-112 359.8826,-118.5028 361.439,-126.6502 379,-131 438.8666,-145.8288 509.0327,-144.6124 560.831,-140.3718"/>
<polygon fill="#191970" stroke="#191970" points="323.7328,-101.8772 313.1601,-102.5625 321.8525,-108.62 323.7328,-101.8772"/>
</g>
<!-- Node559 -->
<g id="node7" class="node">
<title>Node559</title>
<g id="a_node7"><a xlink:href="class_main_window.html#a9c4f542263838b9ecd06eae839a42a34" target="_top" xlink:title="MainWindow::keyPressEvent did anyone press return, enter or escape? ">
<polygon fill="none" stroke="#000000" points="379,-102.5 379,-121.5 525,-121.5 525,-102.5 379,-102.5"/>
<text text-anchor="middle" x="452" y="-109.5" font-family="Helvetica,sans-Serif" font-size="10.00" fill="#000000">MainWindow::keyPressEvent</text>
</a>
</g>
</g>
<!-- Node555&#45;&gt;Node559 -->
<g id="edge6" class="edge">
<title>Node555&#45;&gt;Node559</title>
<path fill="none" stroke="#191970" d="M353.174,-101.7673C361.7727,-102.6577 370.4548,-103.5566 378.9157,-104.4327"/>
<polygon fill="#191970" stroke="#191970" points="353.4438,-98.2766 343.1365,-100.728 352.7228,-105.2394 353.4438,-98.2766"/>
</g>
<!-- Node560 -->
<g id="node8" class="node">
<title>Node560</title>
<g id="a_node8"><a xlink:href="class_qt_pass.html#a74adba9dd6915c9db50762279b62be89" target="_top" xlink:title="QtPass::setClippedText">
<polygon fill="none" stroke="#000000" points="574.5,-67.5 574.5,-86.5 696.5,-86.5 696.5,-67.5 574.5,-67.5"/>
<text text-anchor="middle" x="635.5" y="-74.5" font-family="Helvetica,sans-Serif" font-size="10.00" fill="#000000">QtPass::setClippedText</text>
</a>
</g>
</g>
<!-- Node555&#45;&gt;Node560 -->
<g id="edge7" class="edge">
<title>Node555&#45;&gt;Node560</title>
<path fill="none" stroke="#191970" d="M353.4039,-89.2985C420.9468,-86.3538 513.8389,-82.304 574.2686,-79.6695"/>
<polygon fill="#191970" stroke="#191970" points="353.0483,-85.8105 343.2103,-89.7429 353.3533,-92.8039 353.0483,-85.8105"/>
</g>
<!-- Node562 -->
<g id="node10" class="node">
<title>Node562</title>
<g id="a_node10"><a xlink:href="class_qt_pass.html#a5b63b7418723b400f0db2afa450f1199" target="_top" xlink:title="QtPass::setFreshStart">
<polygon fill="none" stroke="#000000" points="394.5,-26.5 394.5,-45.5 509.5,-45.5 509.5,-26.5 394.5,-26.5"/>
<text text-anchor="middle" x="452" y="-33.5" font-family="Helvetica,sans-Serif" font-size="10.00" fill="#000000">QtPass::setFreshStart</text>
</a>
</g>
</g>
<!-- Node555&#45;&gt;Node562 -->
<g id="edge10" class="edge">
<title>Node555&#45;&gt;Node562</title>
<path fill="none" stroke="#191970" d="M308.8061,-80.4799C342.6598,-69.964 390.3198,-55.1595 421.186,-45.5716"/>
<polygon fill="#191970" stroke="#191970" points="307.7254,-77.1505 299.2138,-83.4595 309.8019,-83.8354 307.7254,-77.1505"/>
</g>
<!-- Node557 -->
<g id="node5" class="node">
<title>Node557</title>
<g id="a_node5"><a xlink:href="class_qt_pass.html#abd1d1e8d6b80b8307a305d80a6c34371" target="_top" xlink:title="QtPass::setMainWindow">
<polygon fill="none" stroke="#000000" points="940,-76.5 940,-95.5 1065,-95.5 1065,-76.5 940,-76.5"/>
<text text-anchor="middle" x="1002.5" y="-83.5" font-family="Helvetica,sans-Serif" font-size="10.00" fill="#000000">QtPass::setMainWindow</text>
</a>
</g>
</g>
<!-- Node556&#45;&gt;Node557 -->
<g id="edge4" class="edge">
<title>Node556&#45;&gt;Node557</title>
<path fill="none" stroke="#191970" d="M720.1205,-124.8561C773.1028,-120.5024 842.711,-113.8585 904,-105 921.5815,-102.4588 940.7899,-98.9263 957.5376,-95.5959"/>
<polygon fill="#191970" stroke="#191970" points="719.7748,-121.3726 710.0904,-125.6693 720.3406,-128.3497 719.7748,-121.3726"/>
</g>
<!-- Node558 -->
<g id="node6" class="node">
<title>Node558</title>
<g id="a_node6"><a xlink:href="class_main_window.html#a52e97245b2f88492071e639395c4a15a" target="_top" xlink:title="MainWindow::MainWindow handles all of the main functionality and also the main window. ">
<polygon fill="none" stroke="#000000" points="1101,-76.5 1101,-95.5 1236,-95.5 1236,-76.5 1101,-76.5"/>
<text text-anchor="middle" x="1168.5" y="-83.5" font-family="Helvetica,sans-Serif" font-size="10.00" fill="#000000">MainWindow::MainWindow</text>
</a>
</g>
</g>
<!-- Node557&#45;&gt;Node558 -->
<g id="edge5" class="edge">
<title>Node557&#45;&gt;Node558</title>
<path fill="none" stroke="#191970" d="M1075.4873,-86C1083.951,-86 1092.5556,-86 1100.9422,-86"/>
<polygon fill="#191970" stroke="#191970" points="1075.2575,-82.5001 1065.2575,-86 1075.2574,-89.5001 1075.2575,-82.5001"/>
</g>
<!-- Node561 -->
<g id="node9" class="node">
<title>Node561</title>
<g id="a_node9"><a xlink:href="class_main_window.html#a0d75695e555bac7331e1ea22bc3159df" target="_top" xlink:title="MainWindow::passShowHandler">
<polygon fill="none" stroke="#000000" points="746,-76.5 746,-95.5 904,-95.5 904,-76.5 746,-76.5"/>
<text text-anchor="middle" x="825" y="-83.5" font-family="Helvetica,sans-Serif" font-size="10.00" fill="#000000">MainWindow::passShowHandler</text>
</a>
</g>
</g>
<!-- Node560&#45;&gt;Node561 -->
<g id="edge8" class="edge">
<title>Node560&#45;&gt;Node561</title>
<path fill="none" stroke="#191970" d="M706.6002,-80.3768C719.3797,-80.9837 732.7724,-81.6198 745.7651,-82.2369"/>
<polygon fill="#191970" stroke="#191970" points="706.6569,-76.8756 696.5021,-79.8972 706.3248,-83.8677 706.6569,-76.8756"/>
</g>
<!-- Node561&#45;&gt;Node557 -->
<g id="edge9" class="edge">
<title>Node561&#45;&gt;Node557</title>
<path fill="none" stroke="#191970" d="M914.2448,-86C922.8614,-86 931.4717,-86 939.7509,-86"/>
<polygon fill="#191970" stroke="#191970" points="914.1464,-82.5001 904.1464,-86 914.1464,-89.5001 914.1464,-82.5001"/>
</g>
<!-- Node563 -->
<g id="node11" class="node">
<title>Node563</title>
<g id="a_node11"><a xlink:href="class_main_window.html#aeb8091ab5531144b76c1fbb0d63deb56" target="_top" xlink:title="MainWindow::config pops up the configuration screen and handles all inter&#45;window communication. ">
<polygon fill="none" stroke="#000000" points="583,-26.5 583,-45.5 688,-45.5 688,-26.5 583,-26.5"/>
<text text-anchor="middle" x="635.5" y="-33.5" font-family="Helvetica,sans-Serif" font-size="10.00" fill="#000000">MainWindow::config</text>
</a>
</g>
</g>
<!-- Node562&#45;&gt;Node563 -->
<g id="edge11" class="edge">
<title>Node562&#45;&gt;Node563</title>
<path fill="none" stroke="#191970" d="M519.6306,-36C540.486,-36 563.1311,-36 582.8231,-36"/>
<polygon fill="#191970" stroke="#191970" points="519.5571,-32.5001 509.5571,-36 519.557,-39.5001 519.5571,-32.5001"/>
</g>
<!-- Node564 -->
<g id="node12" class="node">
<title>Node564</title>
<g id="a_node12"><a xlink:href="class_main_window.html#a9630f0fe0e0941a7996d68014f837ed5" target="_top" xlink:title="MainWindow::restoreWindow">
<polygon fill="none" stroke="#000000" points="753,-38.5 753,-57.5 897,-57.5 897,-38.5 753,-38.5"/>
<text text-anchor="middle" x="825" y="-45.5" font-family="Helvetica,sans-Serif" font-size="10.00" fill="#000000">MainWindow::restoreWindow</text>
</a>
</g>
</g>
<!-- Node563&#45;&gt;Node564 -->
<g id="edge12" class="edge">
<title>Node563&#45;&gt;Node564</title>
<path fill="none" stroke="#191970" d="M698.135,-39.9663C715.6517,-41.0756 734.8292,-42.29 752.8488,-43.4311"/>
<polygon fill="#191970" stroke="#191970" points="698.2359,-36.4658 688.0347,-39.3267 697.7934,-43.4518 698.2359,-36.4658"/>
</g>
<!-- Node565 -->
<g id="node13" class="node">
<title>Node565</title>
<g id="a_node13"><a xlink:href="class_qt_pass.html#a70447af6f0e0540106a423a45dc27c99" target="_top" xlink:title="QtPass::~QtPass destroy! ">
<polygon fill="none" stroke="#000000" points="777.5,-.5 777.5,-19.5 872.5,-19.5 872.5,-.5 777.5,-.5"/>
<text text-anchor="middle" x="825" y="-7.5" font-family="Helvetica,sans-Serif" font-size="10.00" fill="#000000">QtPass::~QtPass</text>
</a>
</g>
</g>
<!-- Node563&#45;&gt;Node565 -->
<g id="edge14" class="edge">
<title>Node563&#45;&gt;Node565</title>
<path fill="none" stroke="#191970" d="M698.0867,-27.4129C723.8594,-23.8768 753.2344,-19.8465 777.2285,-16.5544"/>
<polygon fill="#191970" stroke="#191970" points="697.4661,-23.9652 688.0347,-28.7921 698.4176,-30.9002 697.4661,-23.9652"/>
</g>
<!-- Node564&#45;&gt;Node557 -->
<g id="edge13" class="edge">
<title>Node564&#45;&gt;Node557</title>
<path fill="none" stroke="#191970" d="M879.8969,-59.7526C904.9954,-65.1258 934.3428,-71.4086 958.0313,-76.4799"/>
<polygon fill="#191970" stroke="#191970" points="880.3019,-56.26 869.7907,-57.589 878.8365,-63.1049 880.3019,-56.26"/>
</g>
</g>
</svg>
        <g id="navigator" transform="translate(0 0)" fill="#404254">
                <rect fill="#f2f5e9" fill-opacity="0.5" stroke="#606060" stroke-width=".5" x="0" y="0" width="60" height="60"/>
                <use id="zoomplus" xlink:href="#zoomPlus" x="17" y="9" onmousedown="handleZoom(evt,'in')"/>
                <use id="zoomminus" xlink:href="#zoomMin" x="42" y="9" onmousedown="handleZoom(evt,'out')"/>
                <use id="reset" xlink:href="#resetDef" x="30" y="36" onmousedown="handleReset()"/>
                <g id="arrowUp" xlink:href="#dirArrow" transform="translate(30 24)" onmousedown="handlePan(0,-1)">
                  <use xlink:href="#rim" fill="#404040">
                        <set attributeName="fill" to="#808080" begin="arrowUp.mouseover" end="arrowUp.mouseout"/>
                  </use>
                  <path fill="none" stroke="white" stroke-width="1.5" d="M0,-3.0v7 M-2.5,-0.5L0,-3.0L2.5,-0.5"/>
                </g>
                <g id="arrowRight" xlink:href="#dirArrow" transform="rotate(90) translate(36 -43)" onmousedown="handlePan(1,0)">
                  <use xlink:href="#rim" fill="#404040">
                        <set attributeName="fill" to="#808080" begin="arrowRight.mouseover" end="arrowRight.mouseout"/>
                  </use>
                  <path fill="none" stroke="white" stroke-width="1.5" d="M0,-3.0v7 M-2.5,-0.5L0,-3.0L2.5,-0.5"/>
                </g>
                <g id="arrowDown" xlink:href="#dirArrow" transform="rotate(180) translate(-30 -48)" onmousedown="handlePan(0,1)">
                  <use xlink:href="#rim" fill="#404040">
                        <set attributeName="fill" to="#808080" begin="arrowDown.mouseover" end="arrowDown.mouseout"/>
                  </use>
                  <path fill="none" stroke="white" stroke-width="1.5" d="M0,-3.0v7 M-2.5,-0.5L0,-3.0L2.5,-0.5"/>
                </g>
                <g id="arrowLeft" xlink:href="#dirArrow" transform="rotate(270) translate(-36 17)" onmousedown="handlePan(-1,0)">
                  <use xlink:href="#rim" fill="#404040">
                        <set attributeName="fill" to="#808080" begin="arrowLeft.mouseover" end="arrowLeft.mouseout"/>
                  </use>
                  <path fill="none" stroke="white" stroke-width="1.5" d="M0,-3.0v7 M-2.5,-0.5L0,-3.0L2.5,-0.5"/>
                </g>
        </g>
        <svg viewBox="0 0 15 15" width="100%" height="30px" preserveAspectRatio="xMaxYMin meet">
         <g id="arrow_out" transform="scale(0.3 0.3)">
          <a xlink:href="class_qt_pass_settings_ae105a118fa69c7c5bdf506355d20ffae_icgraph_org.svg" target="_base">
           <rect id="button" ry="5" rx="5" y="6" x="6" height="38" width="38"
                fill="#f2f5e9" fill-opacity="0.5" stroke="#606060" stroke-width="1.0"/>
           <path id="arrow"
             d="M 11.500037,31.436501 C 11.940474,20.09759 22.043105,11.32322 32.158766,21.979434 L 37.068811,17.246167 C 37.068811,17.246167 37.088388,32 37.088388,32 L 22.160133,31.978069 C 22.160133,31.978069 26.997745,27.140456 26.997745,27.140456 C 18.528582,18.264221 13.291696,25.230495 11.500037,31.436501 z"
             style="fill:#404040;"/>
          </a>
         </g>
        </svg>
</svg>
