<?xml version="1.0" encoding="UTF-8" standalone="no"?>
<!DOCTYPE svg PUBLIC "-//W3C//DTD SVG 1.1//EN"
 "http://www.w3.org/Graphics/SVG/1.1/DTD/svg11.dtd">
<!-- Generated by graphviz version 2.49.3 (0)
 -->
<!-- Title: TrayIcon::TrayIcon Pages: 1 -->
<svg width="429pt" height="64pt"
 viewBox="0.00 0.00 429.00 64.00" xmlns="http://www.w3.org/2000/svg" xmlns:xlink="http://www.w3.org/1999/xlink">
<g id="graph0" class="graph" transform="scale(1 1) rotate(0) translate(4 60)">
<title>TrayIcon::TrayIcon</title>
<!-- Node1 -->
<g id="node1" class="node">
<title>Node1</title>
<g id="a_node1"><a xlink:title="TrayIcon::TrayIcon use a (system) tray icon with a nice QtPass logo on it (currently) only Quits.">
<polygon fill="#999999" stroke="#666666" points="98,-37 0,-37 0,-18 98,-18 98,-37"/>
<text text-anchor="middle" x="49" y="-25" font-family="Helvetica,sans-Serif" font-size="10.00">TrayIcon::TrayIcon</text>
</a>
</g>
</g>
<!-- Node2 -->
<g id="node2" class="node">
<title>Node2</title>
<g id="a_node2"><a xlink:href="class_tray_icon.html#a36c341a8b31884cd45060a92258e92b8" target="_top" xlink:title="TrayIcon::iconActivated you clicked on the trayicon.">
<polygon fill="white" stroke="#666666" points="253,-37 134,-37 134,-18 253,-18 253,-37"/>
<text text-anchor="middle" x="193.5" y="-25" font-family="Helvetica,sans-Serif" font-size="10.00">TrayIcon::iconActivated</text>
</a>
</g>
</g>
<!-- Node1&#45;&gt;Node2 -->
<g id="edge1" class="edge">
<title>Node1&#45;&gt;Node2</title>
<path fill="none" stroke="#63b8ff" d="M98.24,-27.5C106.48,-27.5 115.19,-27.5 123.84,-27.5"/>
<polygon fill="#63b8ff" stroke="#63b8ff" points="123.94,-31 133.94,-27.5 123.94,-24 123.94,-31"/>
</g>
<!-- Node3 -->
<g id="node3" class="node">
<title>Node3</title>
<g id="a_node3"><a xlink:href="class_tray_icon.html#a20f8b921d79beca21f6dcb98741d57fc" target="_top" xlink:title="TrayIcon::showHideParent toggle app visibility.">
<polygon fill="white" stroke="#666666" points="421,-56 289,-56 289,-37 421,-37 421,-56"/>
<text text-anchor="middle" x="355" y="-44" font-family="Helvetica,sans-Serif" font-size="10.00">TrayIcon::showHideParent</text>
</a>
</g>
</g>
<!-- Node2&#45;&gt;Node3 -->
<g id="edge2" class="edge">
<title>Node2&#45;&gt;Node3</title>
<path fill="none" stroke="#63b8ff" d="M253.44,-34.52C261.73,-35.51 270.35,-36.53 278.89,-37.55"/>
<polygon fill="#63b8ff" stroke="#63b8ff" points="278.52,-41.03 288.86,-38.74 279.35,-34.08 278.52,-41.03"/>
</g>
<!-- Node4 -->
<g id="node4" class="node">
<title>Node4</title>
<g id="a_node4"><a xlink:href="class_tray_icon.html#a40737136f8d85dad4a10ddb58619157a" target="_top" xlink:title="TrayIcon::showMessage show a systray message for notification.">
<polygon fill="white" stroke="#666666" points="416.5,-19 293.5,-19 293.5,0 416.5,0 416.5,-19"/>
<text text-anchor="middle" x="355" y="-7" font-family="Helvetica,sans-Serif" font-size="10.00">TrayIcon::showMessage</text>
</a>
</g>
</g>
<!-- Node2&#45;&gt;Node4 -->
<g id="edge3" class="edge">
<title>Node2&#45;&gt;Node4</title>
<path fill="none" stroke="#63b8ff" d="M253.44,-20.85C263.22,-19.74 273.46,-18.59 283.49,-17.46"/>
<polygon fill="#63b8ff" stroke="#63b8ff" points="283.89,-20.93 293.44,-16.33 283.11,-13.98 283.89,-20.93"/>
</g>
</g>
</svg>
