<?xml version="1.0" encoding="UTF-8" standalone="no"?>
<!DOCTYPE svg PUBLIC "-//W3C//DTD SVG 1.1//EN"
 "http://www.w3.org/Graphics/SVG/1.1/DTD/svg11.dtd">
<!-- Generated by graphviz version 2.40.1 (20161225.0304)
 -->
<!-- Title: MainWindow::showStatusMessage Pages: 1 -->
<svg width="745pt" height="194pt"
 viewBox="0.00 0.00 745.25 194.00" xmlns="http://www.w3.org/2000/svg" xmlns:xlink="http://www.w3.org/1999/xlink">
<g id="graph0" class="graph" transform="scale(1 1) rotate(0) translate(4 190)">
<title>MainWindow::showStatusMessage</title>
<!-- Node213 -->
<g id="node1" class="node">
<title>Node213</title>
<polygon fill="#bfbfbf" stroke="#000000" points="0,-111.5 0,-129.5 171.0684,-129.5 171.0684,-111.5 0,-111.5"/>
<text text-anchor="middle" x="85.5342" y="-117.5" font-family="Helvetica,sans-Serif" font-size="10.00" fill="#000000">MainWindow::showStatusMessage</text>
</g>
<!-- Node214 -->
<g id="node2" class="node">
<title>Node214</title>
<g id="a_node2"><a xlink:href="class_qt_pass.html#abd1d1e8d6b80b8307a305d80a6c34371" target="_top" xlink:title="QtPass::setMainWindow">
<polygon fill="none" stroke="#000000" points="218.1914,-167.5 218.1914,-185.5 343.1172,-185.5 343.1172,-167.5 218.1914,-167.5"/>
<text text-anchor="middle" x="280.6543" y="-173.5" font-family="Helvetica,sans-Serif" font-size="10.00" fill="#000000">QtPass::setMainWindow</text>
</a>
</g>
</g>
<!-- Node213&#45;&gt;Node214 -->
<g id="edge1" class="edge">
<title>Node213&#45;&gt;Node214</title>
<path fill="none" stroke="#191970" d="M127.1774,-132.4517C163.723,-142.9404 216.0728,-157.9649 249.2075,-167.4747"/>
<polygon fill="#191970" stroke="#191970" points="127.8954,-129.0165 117.3179,-129.622 125.9643,-135.7449 127.8954,-129.0165"/>
</g>
<!-- Node216 -->
<g id="node4" class="node">
<title>Node216</title>
<g id="a_node4"><a xlink:href="class_qt_pass.html#a3febdf740ba4d78a4149d7d7c3b9284e" target="_top" xlink:title="MainWindow::clearClipboard remove clipboard contents. ">
<polygon fill="none" stroke="#000000" points="221.2432,-111.5 221.2432,-129.5 340.0654,-129.5 340.0654,-111.5 221.2432,-111.5"/>
<text text-anchor="middle" x="280.6543" y="-117.5" font-family="Helvetica,sans-Serif" font-size="10.00" fill="#000000">QtPass::clearClipboard</text>
</a>
</g>
</g>
<!-- Node213&#45;&gt;Node216 -->
<g id="edge3" class="edge">
<title>Node213&#45;&gt;Node216</title>
<path fill="none" stroke="#191970" d="M181.4551,-120.5C195.008,-120.5 208.6031,-120.5 221.1937,-120.5"/>
<polygon fill="#191970" stroke="#191970" points="181.1167,-117.0001 171.1167,-120.5 181.1167,-124.0001 181.1167,-117.0001"/>
</g>
<!-- Node220 -->
<g id="node8" class="node">
<title>Node220</title>
<g id="a_node8"><a xlink:href="class_qt_pass.html#acba134fb5281aedee11899a03976aa95" target="_top" xlink:title="MainWindow::copyTextToClipboard copies text to your clipboard. ">
<polygon fill="none" stroke="#000000" points="207.0684,-37.5 207.0684,-55.5 354.2402,-55.5 354.2402,-37.5 207.0684,-37.5"/>
<text text-anchor="middle" x="280.6543" y="-43.5" font-family="Helvetica,sans-Serif" font-size="10.00" fill="#000000">QtPass::copyTextToClipboard</text>
</a>
</g>
</g>
<!-- Node213&#45;&gt;Node220 -->
<g id="edge8" class="edge">
<title>Node213&#45;&gt;Node220</title>
<path fill="none" stroke="#191970" d="M118.8646,-107.8593C158.1015,-92.9786 222.2843,-68.637 256.8385,-55.5322"/>
<polygon fill="#191970" stroke="#191970" points="117.5687,-104.6074 109.4597,-111.4261 120.051,-111.1526 117.5687,-104.6074"/>
</g>
<!-- Node215 -->
<g id="node3" class="node">
<title>Node215</title>
<g id="a_node3"><a xlink:href="class_main_window.html#a52e97245b2f88492071e639395c4a15a" target="_top" xlink:title="MainWindow::MainWindow handles all of the main functionality and also the main window. ">
<polygon fill="none" stroke="#000000" points="589.2568,-167.5 589.2568,-185.5 725.2959,-185.5 725.2959,-167.5 589.2568,-167.5"/>
<text text-anchor="middle" x="657.2764" y="-173.5" font-family="Helvetica,sans-Serif" font-size="10.00" fill="#000000">MainWindow::MainWindow</text>
</a>
</g>
</g>
<!-- Node214&#45;&gt;Node215 -->
<g id="edge2" class="edge">
<title>Node214&#45;&gt;Node215</title>
<path fill="none" stroke="#191970" d="M353.4889,-176.5C421.5971,-176.5 522.532,-176.5 589.093,-176.5"/>
<polygon fill="#191970" stroke="#191970" points="353.2686,-173.0001 343.2685,-176.5 353.2685,-180.0001 353.2686,-173.0001"/>
</g>
<!-- Node217 -->
<g id="node5" class="node">
<title>Node217</title>
<g id="a_node5"><a xlink:href="class_main_window.html#ad4cf3e2c819cac398728a82f1cf05f3e" target="_top" xlink:title="MainWindow::deselect clear the selection, password and copy buffer. ">
<polygon fill="none" stroke="#000000" points="407.7476,-148.5 407.7476,-166.5 523.7915,-166.5 523.7915,-148.5 407.7476,-148.5"/>
<text text-anchor="middle" x="465.7695" y="-154.5" font-family="Helvetica,sans-Serif" font-size="10.00" fill="#000000">MainWindow::deselect</text>
</a>
</g>
</g>
<!-- Node216&#45;&gt;Node217 -->
<g id="edge4" class="edge">
<title>Node216&#45;&gt;Node217</title>
<path fill="none" stroke="#191970" d="M336.0206,-131.5664C363.0378,-136.9665 395.1262,-143.3801 420.6323,-148.4782"/>
<polygon fill="#191970" stroke="#191970" points="336.4306,-128.0792 325.9386,-129.5512 335.0586,-134.9434 336.4306,-128.0792"/>
</g>
<!-- Node218 -->
<g id="node6" class="node">
<title>Node218</title>
<g id="a_node6"><a xlink:href="class_main_window.html#a4e20a4a065fbb0e4d3532a45a0a91425" target="_top" xlink:title="MainWindow::closeEvent hide or quit. ">
<polygon fill="none" stroke="#000000" points="401.9126,-111.5 401.9126,-129.5 529.6265,-129.5 529.6265,-111.5 401.9126,-111.5"/>
<text text-anchor="middle" x="465.7695" y="-117.5" font-family="Helvetica,sans-Serif" font-size="10.00" fill="#000000">MainWindow::closeEvent</text>
</a>
</g>
</g>
<!-- Node216&#45;&gt;Node218 -->
<g id="edge6" class="edge">
<title>Node216&#45;&gt;Node218</title>
<path fill="none" stroke="#191970" d="M350.5622,-120.5C367.388,-120.5 385.2778,-120.5 401.8163,-120.5"/>
<polygon fill="#191970" stroke="#191970" points="350.2449,-117.0001 340.2449,-120.5 350.2448,-124.0001 350.2449,-117.0001"/>
</g>
<!-- Node219 -->
<g id="node7" class="node">
<title>Node219</title>
<g id="a_node7"><a xlink:href="class_qt_pass.html#aacd3b92bcbbb5166780336d9dd00ab95" target="_top" xlink:title="QtPass::QtPass">
<polygon fill="none" stroke="#000000" points="422.2031,-74.5 422.2031,-92.5 509.3359,-92.5 509.3359,-74.5 422.2031,-74.5"/>
<text text-anchor="middle" x="465.7695" y="-80.5" font-family="Helvetica,sans-Serif" font-size="10.00" fill="#000000">QtPass::QtPass</text>
</a>
</g>
</g>
<!-- Node216&#45;&gt;Node219 -->
<g id="edge7" class="edge">
<title>Node216&#45;&gt;Node219</title>
<path fill="none" stroke="#191970" d="M335.8123,-109.4753C363.3254,-103.9761 396.1389,-97.4175 421.9099,-92.2665"/>
<polygon fill="#191970" stroke="#191970" points="335.0586,-106.0566 325.9386,-111.4488 336.4306,-112.9208 335.0586,-106.0566"/>
</g>
<!-- Node217&#45;&gt;Node215 -->
<g id="edge5" class="edge">
<title>Node217&#45;&gt;Node215</title>
<path fill="none" stroke="#191970" d="M534.0868,-164.278C552.0056,-166.0558 571.3244,-167.9724 589.229,-169.7488"/>
<polygon fill="#191970" stroke="#191970" points="534.3046,-160.7825 524.0079,-163.278 533.6135,-167.7483 534.3046,-160.7825"/>
</g>
<!-- Node221 -->
<g id="node9" class="node">
<title>Node221</title>
<g id="a_node9"><a xlink:href="class_main_window.html#a7997fd865548c3baa51f1863bb8fdfa0" target="_top" xlink:title="MainWindow::passOtpHandler">
<polygon fill="none" stroke="#000000" points="390.2402,-37.5 390.2402,-55.5 541.2988,-55.5 541.2988,-37.5 390.2402,-37.5"/>
<text text-anchor="middle" x="465.7695" y="-43.5" font-family="Helvetica,sans-Serif" font-size="10.00" fill="#000000">MainWindow::passOtpHandler</text>
</a>
</g>
</g>
<!-- Node220&#45;&gt;Node221 -->
<g id="edge9" class="edge">
<title>Node220&#45;&gt;Node221</title>
<path fill="none" stroke="#191970" d="M364.3853,-46.5C372.9906,-46.5 381.6985,-46.5 390.208,-46.5"/>
<polygon fill="#191970" stroke="#191970" points="364.3487,-43.0001 354.3486,-46.5 364.3486,-50.0001 364.3487,-43.0001"/>
</g>
<!-- Node222 -->
<g id="node10" class="node">
<title>Node222</title>
<g id="a_node10"><a xlink:href="class_qt_pass.html#a74adba9dd6915c9db50762279b62be89" target="_top" xlink:title="QtPass::setClippedText">
<polygon fill="none" stroke="#000000" points="405.8018,-.5 405.8018,-18.5 525.7373,-18.5 525.7373,-.5 405.8018,-.5"/>
<text text-anchor="middle" x="465.7695" y="-6.5" font-family="Helvetica,sans-Serif" font-size="10.00" fill="#000000">QtPass::setClippedText</text>
</a>
</g>
</g>
<!-- Node220&#45;&gt;Node222 -->
<g id="edge10" class="edge">
<title>Node220&#45;&gt;Node222</title>
<path fill="none" stroke="#191970" d="M336.0206,-35.4336C363.0378,-30.0335 395.1262,-23.6199 420.6323,-18.5218"/>
<polygon fill="#191970" stroke="#191970" points="335.0586,-32.0566 325.9386,-37.4488 336.4306,-38.9208 335.0586,-32.0566"/>
</g>
<!-- Node223 -->
<g id="node11" class="node">
<title>Node223</title>
<g id="a_node11"><a xlink:href="class_main_window.html#a0d75695e555bac7331e1ea22bc3159df" target="_top" xlink:title="MainWindow::passShowHandler">
<polygon fill="none" stroke="#000000" points="577.2988,-.5 577.2988,-18.5 737.2539,-18.5 737.2539,-.5 577.2988,-.5"/>
<text text-anchor="middle" x="657.2764" y="-6.5" font-family="Helvetica,sans-Serif" font-size="10.00" fill="#000000">MainWindow::passShowHandler</text>
</a>
</g>
</g>
<!-- Node222&#45;&gt;Node223 -->
<g id="edge11" class="edge">
<title>Node222&#45;&gt;Node223</title>
<path fill="none" stroke="#191970" d="M535.9095,-9.5C549.2885,-9.5 563.3875,-9.5 577.0529,-9.5"/>
<polygon fill="#191970" stroke="#191970" points="535.8381,-6.0001 525.8381,-9.5 535.838,-13.0001 535.8381,-6.0001"/>
</g>
</g>
</svg>
