<?xml version="1.0" encoding="UTF-8" standalone="no"?>
<!DOCTYPE svg PUBLIC "-//W3C//DTD SVG 1.1//EN"
 "http://www.w3.org/Graphics/SVG/1.1/DTD/svg11.dtd">
<!-- Generated by graphviz version 2.43.0 (0)
 -->
<!-- Title: QtPassSettings::getRealPass Pages: 1 -->
<!--zoomable 310 -->
<svg id="main" version="1.1" xmlns="http://www.w3.org/2000/svg" xmlns:xlink="http://www.w3.org/1999/xlink" xml:space="preserve" onload="init(evt)">
<style type="text/css"><![CDATA[
.edge:hover path { stroke: red; }
.edge:hover polygon { stroke: red; fill: red; }
]]></style>
<script type="text/javascript"><![CDATA[
var edges = document.getElementsByTagName('g');
if (edges && edges.length) {
  for (var i=0;i<edges.length;i++) {
    if (edges[i].id.substr(0,4)=='edge') {
      edges[i].setAttribute('class','edge');
    }
  }
}
]]></script>
        <defs>
                <circle id="rim" cx="0" cy="0" r="7"/>
                <circle id="rim2" cx="0" cy="0" r="3.5"/>
                <g id="zoomPlus">
                        <use xlink:href="#rim" fill="#404040">
                                <set attributeName="fill" to="#808080" begin="zoomplus.mouseover" end="zoomplus.mouseout"/>
                        </use>
                        <path d="M-4,0h8M0,-4v8" fill="none" stroke="white" stroke-width="1.5" pointer-events="none"/>
                </g>
                <g id="zoomMin">
                        <use xlink:href="#rim" fill="#404040">
                                <set attributeName="fill" to="#808080" begin="zoomminus.mouseover" end="zoomminus.mouseout"/>
                        </use>
                        <path d="M-4,0h8" fill="none" stroke="white" stroke-width="1.5" pointer-events="none"/>
                </g>
                <g id="dirArrow">
                        <path fill="none" stroke="white" stroke-width="1.5" d="M0,-3.0v7 M-2.5,-0.5L0,-3.0L2.5,-0.5"/>
                </g>
               <g id="resetDef">
                       <use xlink:href="#rim2" fill="#404040">
                               <set attributeName="fill" to="#808080" begin="reset.mouseover" end="reset.mouseout"/>
                       </use>
               </g>
        </defs>

<script type="text/javascript">
var viewWidth = 863;
var viewHeight = 310;
var sectionId = 'dynsection-38';
</script>
<script xlink:href="svgpan.js"/>
<svg id="graph" class="graph">
<g id="viewport">
<title>QtPassSettings::getRealPass</title>
<!-- Node1 -->
<g id="node1" class="node">
<title>Node1</title>
<g id="a_node1"><a xlink:title=" ">
<polygon fill="#bfbfbf" stroke="black" points="707.64,-183.5 707.64,-201.5 854.82,-201.5 854.82,-183.5 707.64,-183.5"/>
<text text-anchor="middle" x="781.23" y="-189.5" font-family="Helvetica,sans-Serif" font-size="10.00">QtPassSettings::getRealPass</text>
</a>
</g>
</g>
<!-- Node2 -->
<g id="node2" class="node">
<title>Node2</title>
<g id="a_node2"><a xlink:href="class_qt_pass_settings.html#a987e913eac7cd497e2fca27426494a64" target="_top" xlink:title=" ">
<polygon fill="none" stroke="black" points="536.42,-165.5 536.42,-183.5 663.03,-183.5 663.03,-165.5 536.42,-165.5"/>
<text text-anchor="middle" x="599.72" y="-171.5" font-family="Helvetica,sans-Serif" font-size="10.00">QtPassSettings::getPass</text>
</a>
</g>
</g>
<!-- Node1&#45;&gt;Node2 -->
<g id="edge1" class="edge">
<title>Node1&#45;&gt;Node2</title>
<path fill="none" stroke="midnightblue" d="M697.42,-184.2C685.92,-183.04 674.26,-181.87 663.21,-180.77"/>
<polygon fill="midnightblue" stroke="midnightblue" points="697.18,-187.69 707.47,-185.2 697.87,-180.72 697.18,-187.69"/>
</g>
<!-- Node13 -->
<g id="node13" class="node">
<title>Node13</title>
<g id="a_node13"><a xlink:href="class_qt_pass_settings.html#aa7f0ddeedf7401d3fc718ab976938ca2" target="_top" xlink:title=" ">
<polygon fill="none" stroke="black" points="527.81,-242.5 527.81,-260.5 671.64,-260.5 671.64,-242.5 527.81,-242.5"/>
<text text-anchor="middle" x="599.72" y="-248.5" font-family="Helvetica,sans-Serif" font-size="10.00">QtPassSettings::setUsePass</text>
</a>
</g>
</g>
<!-- Node1&#45;&gt;Node13 -->
<g id="edge14" class="edge">
<title>Node1&#45;&gt;Node13</title>
<path fill="none" stroke="midnightblue" d="M742.93,-204.76C708.7,-216.01 658.8,-232.41 628.11,-242.5"/>
<polygon fill="midnightblue" stroke="midnightblue" points="744.17,-208.04 752.57,-201.59 741.98,-201.39 744.17,-208.04"/>
</g>
<!-- Node3 -->
<g id="node3" class="node">
<title>Node3</title>
<g id="a_node3"><a xlink:href="class_users_dialog.html#a70580643923a96208b6bbae18d4aa0f3" target="_top" xlink:title="UsersDialog::accept.">
<polygon fill="none" stroke="black" points="369.93,-246.5 369.93,-264.5 475.41,-264.5 475.41,-246.5 369.93,-246.5"/>
<text text-anchor="middle" x="422.67" y="-252.5" font-family="Helvetica,sans-Serif" font-size="10.00">UsersDialog::accept</text>
</a>
</g>
</g>
<!-- Node2&#45;&gt;Node3 -->
<g id="edge2" class="edge">
<title>Node2&#45;&gt;Node3</title>
<path fill="none" stroke="midnightblue" d="M574.8,-188.6C553.47,-200.85 521.16,-218.59 491.81,-231.5 479.18,-237.05 464.82,-242.26 452.55,-246.4"/>
<polygon fill="midnightblue" stroke="midnightblue" points="576.61,-191.6 583.51,-183.56 573.1,-185.54 576.61,-191.6"/>
</g>
<!-- Node4 -->
<g id="node4" class="node">
<title>Node4</title>
<g id="a_node4"><a xlink:href="class_users_dialog.html#a7a3d75a01a48609ce7571cec09b95f07" target="_top" xlink:title="UsersDialog::UsersDialog basic constructor.">
<polygon fill="none" stroke="black" points="179.54,-217.5 179.54,-235.5 310.03,-235.5 310.03,-217.5 179.54,-217.5"/>
<text text-anchor="middle" x="244.79" y="-223.5" font-family="Helvetica,sans-Serif" font-size="10.00">UsersDialog::UsersDialog</text>
</a>
</g>
</g>
<!-- Node2&#45;&gt;Node4 -->
<g id="edge13" class="edge">
<title>Node2&#45;&gt;Node4</title>
<path fill="none" stroke="midnightblue" d="M552.97,-185.91C534.12,-190.31 512,-195.09 491.81,-198.5 430.55,-208.83 360.07,-216.42 310.28,-221.07"/>
<polygon fill="midnightblue" stroke="midnightblue" points="553.86,-189.29 562.79,-183.58 552.25,-182.48 553.86,-189.29"/>
</g>
<!-- Node5 -->
<g id="node5" class="node">
<title>Node5</title>
<g id="a_node5"><a xlink:href="class_main_window.html#aeb8091ab5531144b76c1fbb0d63deb56" target="_top" xlink:title="MainWindow::config pops up the configuration screen and handles all inter&#45;window communication.">
<polygon fill="none" stroke="black" points="369.93,-283.5 369.93,-301.5 475.41,-301.5 475.41,-283.5 369.93,-283.5"/>
<text text-anchor="middle" x="422.67" y="-289.5" font-family="Helvetica,sans-Serif" font-size="10.00">MainWindow::config</text>
</a>
</g>
</g>
<!-- Node2&#45;&gt;Node5 -->
<g id="edge4" class="edge">
<title>Node2&#45;&gt;Node5</title>
<path fill="none" stroke="midnightblue" d="M578.79,-189.71C564.17,-201.19 544.11,-217.62 527.81,-233.5 510.43,-250.42 512.43,-261.74 491.81,-274.5 485.88,-278.17 479.21,-281.1 472.43,-283.43"/>
<polygon fill="midnightblue" stroke="midnightblue" points="580.94,-192.47 586.69,-183.57 576.65,-186.94 580.94,-192.47"/>
</g>
<!-- Node7 -->
<g id="node7" class="node">
<title>Node7</title>
<g id="a_node7"><a xlink:href="class_main_window.html#a52e97245b2f88492071e639395c4a15a" target="_top" xlink:title="MainWindow::MainWindow handles all of the main functionality and also the main window.">
<polygon fill="none" stroke="black" points="0,-193.5 0,-211.5 136.04,-211.5 136.04,-193.5 0,-193.5"/>
<text text-anchor="middle" x="68.02" y="-199.5" font-family="Helvetica,sans-Serif" font-size="10.00">MainWindow::MainWindow</text>
</a>
</g>
</g>
<!-- Node2&#45;&gt;Node7 -->
<g id="edge8" class="edge">
<title>Node2&#45;&gt;Node7</title>
<path fill="none" stroke="midnightblue" d="M556.92,-162.87C537.32,-158 513.54,-152.91 491.81,-150.5 345.72,-134.3 171.63,-174.6 101.08,-193.43"/>
<polygon fill="midnightblue" stroke="midnightblue" points="556.2,-166.3 566.75,-165.38 557.93,-159.51 556.2,-166.3"/>
</g>
<!-- Node8 -->
<g id="node8" class="node">
<title>Node8</title>
<g id="a_node8"><a xlink:href="class_store_model.html#a17f8db58298e985732d92a2e0e76b821" target="_top" xlink:title="StoreModel::dropMimeData.">
<polygon fill="none" stroke="black" points="353.53,-84.5 353.53,-102.5 491.81,-102.5 491.81,-84.5 353.53,-84.5"/>
<text text-anchor="middle" x="422.67" y="-90.5" font-family="Helvetica,sans-Serif" font-size="10.00">StoreModel::dropMimeData</text>
</a>
</g>
</g>
<!-- Node2&#45;&gt;Node8 -->
<g id="edge7" class="edge">
<title>Node2&#45;&gt;Node8</title>
<path fill="none" stroke="midnightblue" d="M574.8,-160.4C553.47,-148.15 521.16,-130.41 491.81,-117.5 479.18,-111.95 464.82,-106.74 452.55,-102.6"/>
<polygon fill="midnightblue" stroke="midnightblue" points="573.1,-163.46 583.51,-165.44 576.61,-157.4 573.1,-163.46"/>
</g>
<!-- Node9 -->
<g id="node9" class="node">
<title>Node9</title>
<g id="a_node9"><a xlink:href="class_main_window.html#adc7d4b2b210efab401f0b14641f80464" target="_top" xlink:title="MainWindow::on_treeView_clicked read the selected password file.">
<polygon fill="none" stroke="black" points="355.56,-37.5 355.56,-65.5 489.78,-65.5 489.78,-37.5 355.56,-37.5"/>
<text text-anchor="start" x="363.56" y="-53.5" font-family="Helvetica,sans-Serif" font-size="10.00">MainWindow::on_treeView</text>
<text text-anchor="middle" x="422.67" y="-43.5" font-family="Helvetica,sans-Serif" font-size="10.00">_clicked</text>
</a>
</g>
</g>
<!-- Node2&#45;&gt;Node9 -->
<g id="edge9" class="edge">
<title>Node2&#45;&gt;Node9</title>
<path fill="none" stroke="midnightblue" d="M584.79,-157.58C565.84,-135.58 529.94,-97.29 491.81,-74.5 486.13,-71.1 479.88,-68.13 473.54,-65.55"/>
<polygon fill="midnightblue" stroke="midnightblue" points="582.27,-160.02 591.4,-165.4 587.62,-155.51 582.27,-160.02"/>
</g>
<!-- Node11 -->
<g id="node11" class="node">
<title>Node11</title>
<g id="a_node11"><a xlink:href="class_main_window.html#a6961588ebf3c0640200e0cfa920af3be" target="_top" xlink:title="MainWindow::onPush do a git push.">
<polygon fill="none" stroke="black" points="366.31,-0.5 366.31,-18.5 479.03,-18.5 479.03,-0.5 366.31,-0.5"/>
<text text-anchor="middle" x="422.67" y="-6.5" font-family="Helvetica,sans-Serif" font-size="10.00">MainWindow::onPush</text>
</a>
</g>
</g>
<!-- Node2&#45;&gt;Node11 -->
<g id="edge11" class="edge">
<title>Node2&#45;&gt;Node11</title>
<path fill="none" stroke="midnightblue" d="M590.41,-155.87C575.39,-124.42 540.71,-60.96 491.81,-27.5 486.46,-23.84 480.4,-20.92 474.16,-18.6"/>
<polygon fill="midnightblue" stroke="midnightblue" points="587.36,-157.62 594.74,-165.22 593.71,-154.68 587.36,-157.62"/>
</g>
<!-- Node12 -->
<g id="node12" class="node">
<title>Node12</title>
<g id="a_node12"><a xlink:href="class_password_dialog.html#a859a78e62204698556204b9e20932010" target="_top" xlink:title="PasswordDialog::PasswordDialog basic constructor.">
<polygon fill="none" stroke="black" points="353.81,-160.5 353.81,-188.5 491.53,-188.5 491.53,-160.5 353.81,-160.5"/>
<text text-anchor="start" x="361.81" y="-176.5" font-family="Helvetica,sans-Serif" font-size="10.00">PasswordDialog::Password</text>
<text text-anchor="middle" x="422.67" y="-166.5" font-family="Helvetica,sans-Serif" font-size="10.00">Dialog</text>
</a>
</g>
</g>
<!-- Node2&#45;&gt;Node12 -->
<g id="edge12" class="edge">
<title>Node2&#45;&gt;Node12</title>
<path fill="none" stroke="midnightblue" d="M525.74,-174.5C514.42,-174.5 502.77,-174.5 491.57,-174.5"/>
<polygon fill="midnightblue" stroke="midnightblue" points="526.02,-178 536.02,-174.5 526.02,-171 526.02,-178"/>
</g>
<!-- Node3&#45;&gt;Node4 -->
<g id="edge3" class="edge">
<title>Node3&#45;&gt;Node4</title>
<path fill="none" stroke="midnightblue" d="M359.93,-245.32C340.6,-242.13 319.42,-238.64 300.6,-235.54"/>
<polygon fill="midnightblue" stroke="midnightblue" points="359.41,-248.78 369.85,-246.96 360.55,-241.88 359.41,-248.78"/>
</g>
<!-- Node6 -->
<g id="node6" class="node">
<title>Node6</title>
<g id="a_node6"><a xlink:href="class_qt_pass.html#a49e2861160fdb8d614231933f60fac47" target="_top" xlink:title="QtPass::init make sure we are ready to go as soon as possible.">
<polygon fill="none" stroke="black" points="211.22,-273.5 211.22,-291.5 278.35,-291.5 278.35,-273.5 211.22,-273.5"/>
<text text-anchor="middle" x="244.79" y="-279.5" font-family="Helvetica,sans-Serif" font-size="10.00">QtPass::init</text>
</a>
</g>
</g>
<!-- Node5&#45;&gt;Node6 -->
<g id="edge5" class="edge">
<title>Node5&#45;&gt;Node6</title>
<path fill="none" stroke="midnightblue" d="M359.56,-288.97C332.2,-287.41 301.16,-285.65 278.43,-284.36"/>
<polygon fill="midnightblue" stroke="midnightblue" points="359.67,-292.48 369.85,-289.55 360.06,-285.49 359.67,-292.48"/>
</g>
<!-- Node6&#45;&gt;Node7 -->
<g id="edge6" class="edge">
<title>Node6&#45;&gt;Node7</title>
<path fill="none" stroke="midnightblue" d="M214.71,-269.19C179.1,-252.89 119.73,-225.71 88.92,-211.61"/>
<polygon fill="midnightblue" stroke="midnightblue" points="213.53,-272.5 224.08,-273.48 216.44,-266.13 213.53,-272.5"/>
</g>
<!-- Node10 -->
<g id="node10" class="node">
<title>Node10</title>
<g id="a_node10"><a xlink:href="class_main_window.html#a9c4f542263838b9ecd06eae839a42a34" target="_top" xlink:title="MainWindow::keyPressEvent did anyone press return, enter or escape?">
<polygon fill="none" stroke="black" points="172.04,-42.5 172.04,-60.5 317.53,-60.5 317.53,-42.5 172.04,-42.5"/>
<text text-anchor="middle" x="244.79" y="-48.5" font-family="Helvetica,sans-Serif" font-size="10.00">MainWindow::keyPressEvent</text>
</a>
</g>
</g>
<!-- Node9&#45;&gt;Node10 -->
<g id="edge10" class="edge">
<title>Node9&#45;&gt;Node10</title>
<path fill="none" stroke="midnightblue" d="M345.17,-51.5C336,-51.5 326.66,-51.5 317.56,-51.5"/>
<polygon fill="midnightblue" stroke="midnightblue" points="345.43,-55 355.43,-51.5 345.43,-48 345.43,-55"/>
</g>
<!-- Node13&#45;&gt;Node5 -->
<g id="edge15" class="edge">
<title>Node13&#45;&gt;Node5</title>
<path fill="none" stroke="midnightblue" d="M549.97,-262.92C522.22,-269.42 487.95,-277.45 462.11,-283.5"/>
<polygon fill="midnightblue" stroke="midnightblue" points="550.93,-266.29 559.87,-260.6 549.34,-259.47 550.93,-266.29"/>
</g>
</g>
</svg>
        <g id="navigator" transform="translate(0 0)" fill="#404254">
                <rect fill="#f2f5e9" fill-opacity="0.5" stroke="#606060" stroke-width=".5" x="0" y="0" width="60" height="60"/>
                <use id="zoomplus" xlink:href="#zoomPlus" x="17" y="9" onmousedown="handleZoom(evt,'in')"/>
                <use id="zoomminus" xlink:href="#zoomMin" x="42" y="9" onmousedown="handleZoom(evt,'out')"/>
                <use id="reset" xlink:href="#resetDef" x="30" y="36" onmousedown="handleReset()"/>
                <g id="arrowUp" xlink:href="#dirArrow" transform="translate(30 24)" onmousedown="handlePan(0,-1)">
                  <use xlink:href="#rim" fill="#404040">
                        <set attributeName="fill" to="#808080" begin="arrowUp.mouseover" end="arrowUp.mouseout"/>
                  </use>
                  <path fill="none" stroke="white" stroke-width="1.5" d="M0,-3.0v7 M-2.5,-0.5L0,-3.0L2.5,-0.5"/>
                </g>
                <g id="arrowRight" xlink:href="#dirArrow" transform="rotate(90) translate(36 -43)" onmousedown="handlePan(1,0)">
                  <use xlink:href="#rim" fill="#404040">
                        <set attributeName="fill" to="#808080" begin="arrowRight.mouseover" end="arrowRight.mouseout"/>
                  </use>
                  <path fill="none" stroke="white" stroke-width="1.5" d="M0,-3.0v7 M-2.5,-0.5L0,-3.0L2.5,-0.5"/>
                </g>
                <g id="arrowDown" xlink:href="#dirArrow" transform="rotate(180) translate(-30 -48)" onmousedown="handlePan(0,1)">
                  <use xlink:href="#rim" fill="#404040">
                        <set attributeName="fill" to="#808080" begin="arrowDown.mouseover" end="arrowDown.mouseout"/>
                  </use>
                  <path fill="none" stroke="white" stroke-width="1.5" d="M0,-3.0v7 M-2.5,-0.5L0,-3.0L2.5,-0.5"/>
                </g>
                <g id="arrowLeft" xlink:href="#dirArrow" transform="rotate(270) translate(-36 17)" onmousedown="handlePan(-1,0)">
                  <use xlink:href="#rim" fill="#404040">
                        <set attributeName="fill" to="#808080" begin="arrowLeft.mouseover" end="arrowLeft.mouseout"/>
                  </use>
                  <path fill="none" stroke="white" stroke-width="1.5" d="M0,-3.0v7 M-2.5,-0.5L0,-3.0L2.5,-0.5"/>
                </g>
        </g>
        <svg viewBox="0 0 15 15" width="100%" height="30px" preserveAspectRatio="xMaxYMin meet">
         <g id="arrow_out" transform="scale(0.3 0.3)">
          <a xlink:href="class_qt_pass_settings_aaaeff5fa2e3a6b1f815b9a8247339b3a_icgraph_org.svg" target="_base">
           <rect id="button" ry="5" rx="5" y="6" x="6" height="38" width="38"
                fill="#f2f5e9" fill-opacity="0.5" stroke="#606060" stroke-width="1.0"/>
           <path id="arrow"
             d="M 11.500037,31.436501 C 11.940474,20.09759 22.043105,11.32322 32.158766,21.979434 L 37.068811,17.246167 C 37.068811,17.246167 37.088388,32 37.088388,32 L 22.160133,31.978069 C 22.160133,31.978069 26.997745,27.140456 26.997745,27.140456 C 18.528582,18.264221 13.291696,25.230495 11.500037,31.436501 z"
             style="fill:#404040;"/>
          </a>
         </g>
        </svg>
</svg>
