<?xml version="1.0" encoding="UTF-8" standalone="no"?>
<!DOCTYPE svg PUBLIC "-//W3C//DTD SVG 1.1//EN"
 "http://www.w3.org/Graphics/SVG/1.1/DTD/svg11.dtd">
<!-- Generated by graphviz version 2.43.0 (0)
 -->
<!-- Title: ConfigDialog::wizard Pages: 1 -->
<svg width="672pt" height="175pt"
 viewBox="0.00 0.00 672.00 175.00" xmlns="http://www.w3.org/2000/svg" xmlns:xlink="http://www.w3.org/1999/xlink">
<g id="graph0" class="graph" transform="scale(1 1) rotate(0) translate(4 171)">
<title>ConfigDialog::wizard</title>
<!-- Node1 -->
<g id="Node000001" class="node">
<title>Node1</title>
<g id="a_Node000001"><a xlink:title="ConfigDialog::wizard first&#45;time use wizard.">
<polygon fill="#999999" stroke="#666666" points="117,-93 0,-93 0,-74 117,-74 117,-93"/>
<text text-anchor="middle" x="58.5" y="-81" font-family="Helvetica,sans-Serif" font-size="10.00">ConfigDialog::wizard</text>
</a>
</g>
</g>
<!-- Node2 -->
<g id="Node000002" class="node">
<title>Node2</title>
<g id="a_Node000002"><a xlink:href="class_util.html#afe6db9149dff37feded5abf38870cda8" target="_top" xlink:title="Verify that the required configuration is complete.">
<polygon fill="white" stroke="#666666" points="254,-93 153,-93 153,-74 254,-74 254,-93"/>
<text text-anchor="middle" x="203.5" y="-81" font-family="Helvetica,sans-Serif" font-size="10.00">Util::configIsValid</text>
</a>
</g>
</g>
<!-- Node1&#45;&gt;Node2 -->
<g id="edge1_Node000001_Node000002" class="edge">
<title>Node1&#45;&gt;Node2</title>
<g id="a_edge1_Node000001_Node000002"><a xlink:title=" ">
<path fill="none" stroke="#63b8ff" d="M117.25,-83.5C125.63,-83.5 134.27,-83.5 142.68,-83.5"/>
<polygon fill="#63b8ff" stroke="#63b8ff" points="142.81,-87 152.81,-83.5 142.81,-80 142.81,-87"/>
</a>
</g>
</g>
<!-- Node3 -->
<g id="Node000003" class="node">
<title>Node3</title>
<g id="a_Node000003"><a xlink:href="class_executor.html#a4e210af42a76029683ded3210cf7bce2" target="_top" xlink:title="Executor::executeBlocking blocking version of the executor, takes input and presents it as stdin.">
<polygon fill="white" stroke="#666666" points="455.5,-167 310.5,-167 310.5,-148 455.5,-148 455.5,-167"/>
<text text-anchor="middle" x="383" y="-155" font-family="Helvetica,sans-Serif" font-size="10.00">Executor::executeBlocking</text>
</a>
</g>
</g>
<!-- Node2&#45;&gt;Node3 -->
<g id="edge2_Node000002_Node000003" class="edge">
<title>Node2&#45;&gt;Node3</title>
<g id="a_edge2_Node000002_Node000003"><a xlink:title=" ">
<path fill="none" stroke="#63b8ff" d="M215.86,-93.04C231.51,-105.67 261.07,-127.73 290,-139.5 295.41,-141.7 301.11,-143.64 306.91,-145.34"/>
<polygon fill="#63b8ff" stroke="#63b8ff" points="306.17,-148.77 316.74,-148 308,-142.01 306.17,-148.77"/>
</a>
</g>
</g>
<!-- Node4 -->
<g id="Node000004" class="node">
<title>Node4</title>
<g id="a_Node000004"><a xlink:href="class_qt_pass_settings.html#a6d9beabe93c829cacdcc6c27792ffdba" target="_top" xlink:title="Get GPG executable path.">
<polygon fill="white" stroke="#666666" points="475,-130 291,-130 291,-111 475,-111 475,-130"/>
<text text-anchor="middle" x="383" y="-118" font-family="Helvetica,sans-Serif" font-size="10.00">QtPassSettings::getGpgExecutable</text>
</a>
</g>
</g>
<!-- Node2&#45;&gt;Node4 -->
<g id="edge3_Node000002_Node000004" class="edge">
<title>Node2&#45;&gt;Node4</title>
<g id="a_edge3_Node000002_Node000004"><a xlink:title=" ">
<path fill="none" stroke="#63b8ff" d="M246.64,-93.09C260.44,-96.17 275.86,-99.55 290,-102.5 300.26,-104.64 311.18,-106.85 321.79,-108.95"/>
<polygon fill="#63b8ff" stroke="#63b8ff" points="321.33,-112.42 331.82,-110.92 322.68,-105.56 321.33,-112.42"/>
</a>
</g>
</g>
<!-- Node6 -->
<g id="Node000006" class="node">
<title>Node6</title>
<g id="a_Node000006"><a xlink:href="class_qt_pass_settings.html#ac2673c76b268f6a622c8b3c7829ff8db" target="_top" xlink:title="Get pass executable path.">
<polygon fill="white" stroke="#666666" points="476,-93 290,-93 290,-74 476,-74 476,-93"/>
<text text-anchor="middle" x="383" y="-81" font-family="Helvetica,sans-Serif" font-size="10.00">QtPassSettings::getPassExecutable</text>
</a>
</g>
</g>
<!-- Node2&#45;&gt;Node6 -->
<g id="edge5_Node000002_Node000006" class="edge">
<title>Node2&#45;&gt;Node6</title>
<g id="a_edge5_Node000002_Node000006"><a xlink:title=" ">
<path fill="none" stroke="#63b8ff" d="M254.42,-83.5C262.38,-83.5 270.85,-83.5 279.51,-83.5"/>
<polygon fill="#63b8ff" stroke="#63b8ff" points="279.74,-87 289.74,-83.5 279.74,-80 279.74,-87"/>
</a>
</g>
</g>
<!-- Node7 -->
<g id="Node000007" class="node">
<title>Node7</title>
<g id="a_Node000007"><a xlink:href="class_qt_pass_settings.html#a538e612e04fe934535e1f7525d55743c" target="_top" xlink:title="Get password store directory path.">
<polygon fill="white" stroke="#666666" points="462,-56 304,-56 304,-37 462,-37 462,-56"/>
<text text-anchor="middle" x="383" y="-44" font-family="Helvetica,sans-Serif" font-size="10.00">QtPassSettings::getPassStore</text>
</a>
</g>
</g>
<!-- Node2&#45;&gt;Node7 -->
<g id="edge7_Node000002_Node000007" class="edge">
<title>Node2&#45;&gt;Node7</title>
<g id="a_edge7_Node000002_Node000007"><a xlink:title=" ">
<path fill="none" stroke="#63b8ff" d="M249.75,-73.94C262.75,-71.2 276.93,-68.22 290,-65.5 301.48,-63.11 313.78,-60.56 325.52,-58.13"/>
<polygon fill="#63b8ff" stroke="#63b8ff" points="326.58,-61.48 335.66,-56.03 325.16,-54.63 326.58,-61.48"/>
</a>
</g>
</g>
<!-- Node8 -->
<g id="Node000008" class="node">
<title>Node8</title>
<g id="a_Node000008"><a xlink:href="class_qt_pass_settings.html#a51d5b6ef611562d9247d5c482e6449a8" target="_top" xlink:title="Get whether to use pass (true) or GPG (false).">
<polygon fill="white" stroke="#666666" points="455,-19 311,-19 311,0 455,0 455,-19"/>
<text text-anchor="middle" x="383" y="-7" font-family="Helvetica,sans-Serif" font-size="10.00">QtPassSettings::isUsePass</text>
</a>
</g>
</g>
<!-- Node2&#45;&gt;Node8 -->
<g id="edge9_Node000002_Node000008" class="edge">
<title>Node2&#45;&gt;Node8</title>
<g id="a_edge9_Node000002_Node000008"><a xlink:title=" ">
<path fill="none" stroke="#63b8ff" d="M216.17,-73.97C231.95,-61.59 261.4,-40.18 290,-28.5 296.29,-25.93 302.97,-23.7 309.74,-21.75"/>
<polygon fill="#63b8ff" stroke="#63b8ff" points="310.94,-25.06 319.7,-19.11 309.14,-18.29 310.94,-25.06"/>
</a>
</g>
</g>
<!-- Node5 -->
<g id="Node000005" class="node">
<title>Node5</title>
<g id="a_Node000005"><a xlink:href="class_qt_pass_settings.html#a2483e7de01f9e312ee0fbf8a1637f29d" target="_top" xlink:title="Get the singleton instance.">
<polygon fill="white" stroke="#666666" points="664,-74 512,-74 512,-55 664,-55 664,-74"/>
<text text-anchor="middle" x="588" y="-62" font-family="Helvetica,sans-Serif" font-size="10.00">QtPassSettings::getInstance</text>
</a>
</g>
</g>
<!-- Node4&#45;&gt;Node5 -->
<g id="edge4_Node000004_Node000005" class="edge">
<title>Node4&#45;&gt;Node5</title>
<g id="a_edge4_Node000004_Node000005"><a xlink:title=" ">
<path fill="none" stroke="#63b8ff" d="M439.25,-110.96C451.43,-108.51 464.21,-105.66 476,-102.5 502.11,-95.51 530.97,-85.56 552.72,-77.59"/>
<polygon fill="#63b8ff" stroke="#63b8ff" points="554.01,-80.85 562.17,-74.09 551.58,-74.28 554.01,-80.85"/>
</a>
</g>
</g>
<!-- Node6&#45;&gt;Node5 -->
<g id="edge6_Node000006_Node000005" class="edge">
<title>Node6&#45;&gt;Node5</title>
<g id="a_edge6_Node000006_Node000005"><a xlink:title=" ">
<path fill="none" stroke="#63b8ff" d="M476.29,-74.86C484.78,-74.07 493.36,-73.26 501.78,-72.48"/>
<polygon fill="#63b8ff" stroke="#63b8ff" points="502.33,-75.94 511.96,-71.52 501.68,-68.97 502.33,-75.94"/>
</a>
</g>
</g>
<!-- Node7&#45;&gt;Node5 -->
<g id="edge8_Node000007_Node000005" class="edge">
<title>Node7&#45;&gt;Node5</title>
<g id="a_edge8_Node000007_Node000005"><a xlink:title=" ">
<path fill="none" stroke="#63b8ff" d="M462.19,-53.43C475.19,-54.59 488.72,-55.79 501.88,-56.95"/>
<polygon fill="#63b8ff" stroke="#63b8ff" points="501.58,-60.44 511.85,-57.84 502.2,-53.47 501.58,-60.44"/>
</a>
</g>
</g>
<!-- Node8&#45;&gt;Node5 -->
<g id="edge10_Node000008_Node000005" class="edge">
<title>Node8&#45;&gt;Node5</title>
<g id="a_edge10_Node000008_Node000005"><a xlink:title=" ">
<path fill="none" stroke="#63b8ff" d="M435.33,-19.06C448.64,-21.82 462.91,-25.04 476,-28.5 501.19,-35.16 529.09,-44.22 550.62,-51.58"/>
<polygon fill="#63b8ff" stroke="#63b8ff" points="549.73,-54.98 560.33,-54.94 552.02,-48.36 549.73,-54.98"/>
</a>
</g>
</g>
</g>
</svg>
