<?xml version="1.0" encoding="UTF-8" standalone="no"?>
<!DOCTYPE svg PUBLIC "-//W3C//DTD SVG 1.1//EN"
 "http://www.w3.org/Graphics/SVG/1.1/DTD/svg11.dtd">
<!-- Generated by graphviz version 2.40.1 (20161225.0304)
 -->
<!-- Title: QtPassSettings::getPass Pages: 1 -->
<svg width="675pt" height="199pt"
 viewBox="0.00 0.00 674.65 199.31" xmlns="http://www.w3.org/2000/svg" xmlns:xlink="http://www.w3.org/1999/xlink">
<g id="graph0" class="graph" transform="scale(1 1) rotate(0) translate(4 195.313)">
<title>QtPassSettings::getPass</title>
<!-- Node60 -->
<g id="node1" class="node">
<title>Node60</title>
<polygon fill="#bfbfbf" stroke="#000000" points="0,-92.5 0,-110.5 126.6104,-110.5 126.6104,-92.5 0,-92.5"/>
<text text-anchor="middle" x="63.3052" y="-98.5" font-family="Helvetica,sans-Serif" font-size="10.00" fill="#000000">QtPassSettings::getPass</text>
</g>
<!-- Node61 -->
<g id="node2" class="node">
<title>Node61</title>
<g id="a_node2"><a xlink:href="class_main_window.html#a23d2783cb61a373c4b0127970264290a" target="_top" xlink:title="MainWindow::checkConfig make sure we are ready to go as soon as possible. ">
<polygon fill="none" stroke="#000000" points="360.7822,-157.5 360.7822,-175.5 494.6094,-175.5 494.6094,-157.5 360.7822,-157.5"/>
<text text-anchor="middle" x="427.6958" y="-163.5" font-family="Helvetica,sans-Serif" font-size="10.00" fill="#000000">MainWindow::checkConfig</text>
</a>
</g>
</g>
<!-- Node60&#45;&gt;Node61 -->
<g id="edge1" class="edge">
<title>Node60&#45;&gt;Node61</title>
<path fill="none" stroke="#191970" d="M78.725,-118.3992C96.755,-136.7805 128.5031,-165.0674 162.6104,-176.5 241.2104,-202.8464 340.3333,-187.1993 392.2602,-175.5868"/>
<polygon fill="#191970" stroke="#191970" points="80.8748,-115.5809 71.4471,-110.7468 75.8026,-120.405 80.8748,-115.5809"/>
</g>
<!-- Node63 -->
<g id="node4" class="node">
<title>Node63</title>
<g id="a_node4"><a xlink:href="class_main_window.html#aeb8091ab5531144b76c1fbb0d63deb56" target="_top" xlink:title="MainWindow::config pops up the configuration screen and handles all inter&#45;window communication. ">
<polygon fill="none" stroke="#000000" points="190.9551,-148.5 190.9551,-166.5 296.4375,-166.5 296.4375,-148.5 190.9551,-148.5"/>
<text text-anchor="middle" x="243.6963" y="-154.5" font-family="Helvetica,sans-Serif" font-size="10.00" fill="#000000">MainWindow::config</text>
</a>
</g>
</g>
<!-- Node60&#45;&gt;Node63 -->
<g id="edge3" class="edge">
<title>Node60&#45;&gt;Node63</title>
<path fill="none" stroke="#191970" d="M93.5679,-114.4121C113.0363,-122.3848 139.0179,-132.4094 162.6104,-139.5 173.7964,-142.8619 186.0215,-145.8984 197.5083,-148.4788"/>
<polygon fill="#191970" stroke="#191970" points="94.8791,-111.1669 84.301,-110.5709 92.1986,-117.6333 94.8791,-111.1669"/>
</g>
<!-- Node64 -->
<g id="node5" class="node">
<title>Node64</title>
<g id="a_node5"><a xlink:href="class_main_window.html#a4680b2cbcfd388683a98303f29c0f84f" target="_top" xlink:title="MainWindow::executePassGitInit git init wrapper. ">
<polygon fill="none" stroke="#000000" points="162.6104,-111.5 162.6104,-129.5 324.7822,-129.5 324.7822,-111.5 162.6104,-111.5"/>
<text text-anchor="middle" x="243.6963" y="-117.5" font-family="Helvetica,sans-Serif" font-size="10.00" fill="#000000">MainWindow::executePassGitInit</text>
</a>
</g>
</g>
<!-- Node60&#45;&gt;Node64 -->
<g id="edge5" class="edge">
<title>Node60&#45;&gt;Node64</title>
<path fill="none" stroke="#191970" d="M136.8287,-109.244C145.2719,-110.1333 153.9172,-111.0439 162.4544,-111.9431"/>
<polygon fill="#191970" stroke="#191970" points="136.9623,-105.7388 126.6507,-108.172 136.229,-112.7003 136.9623,-105.7388"/>
</g>
<!-- Node66 -->
<g id="node7" class="node">
<title>Node66</title>
<g id="a_node7"><a xlink:href="class_main_window.html#a38957de181a576efc28befeb7c47abec" target="_top" xlink:title="MainWindow::getSecretKeys get list of secret/private keys. ">
<polygon fill="none" stroke="#000000" points="171.7803,-74.5 171.7803,-92.5 315.6123,-92.5 315.6123,-74.5 171.7803,-74.5"/>
<text text-anchor="middle" x="243.6963" y="-80.5" font-family="Helvetica,sans-Serif" font-size="10.00" fill="#000000">MainWindow::getSecretKeys</text>
</a>
</g>
</g>
<!-- Node60&#45;&gt;Node66 -->
<g id="edge7" class="edge">
<title>Node60&#45;&gt;Node66</title>
<path fill="none" stroke="#191970" d="M136.6553,-94.1809C148.1738,-93.0315 160.0723,-91.8443 171.5629,-90.6977"/>
<polygon fill="#191970" stroke="#191970" points="136.2537,-90.7035 126.6507,-95.1792 136.9488,-97.6689 136.2537,-90.7035"/>
</g>
<!-- Node67 -->
<g id="node8" class="node">
<title>Node67</title>
<g id="a_node8"><a xlink:href="class_main_window.html#adcd6afb4bbea0fc89cf5b5b51e387935" target="_top" xlink:title="MainWindow::generateKeyPair internal gpg keypair generator . . ">
<polygon fill="none" stroke="#000000" points="167.0513,-37.5 167.0513,-55.5 320.3413,-55.5 320.3413,-37.5 167.0513,-37.5"/>
<text text-anchor="middle" x="243.6963" y="-43.5" font-family="Helvetica,sans-Serif" font-size="10.00" fill="#000000">MainWindow::generateKeyPair</text>
</a>
</g>
</g>
<!-- Node60&#45;&gt;Node67 -->
<g id="edge9" class="edge">
<title>Node60&#45;&gt;Node67</title>
<path fill="none" stroke="#191970" d="M94.6191,-88.564C113.9815,-80.8843 139.4734,-71.3427 162.6104,-64.5 173.8111,-61.1874 186.0416,-58.1691 197.5289,-55.5904"/>
<polygon fill="#191970" stroke="#191970" points="93.0738,-85.4128 85.0974,-92.3861 95.6815,-91.9089 93.0738,-85.4128"/>
</g>
<!-- Node69 -->
<g id="node10" class="node">
<title>Node69</title>
<g id="a_node10"><a xlink:href="class_store_model.html#a5fdd936940601eb0b5da52047f282781" target="_top" xlink:title="StoreModel::dropMimeData">
<polygon fill="none" stroke="#000000" points="174.5586,-.5 174.5586,-18.5 312.834,-18.5 312.834,-.5 174.5586,-.5"/>
<text text-anchor="middle" x="243.6963" y="-6.5" font-family="Helvetica,sans-Serif" font-size="10.00" fill="#000000">StoreModel::dropMimeData</text>
</a>
</g>
</g>
<!-- Node60&#45;&gt;Node69 -->
<g id="edge11" class="edge">
<title>Node60&#45;&gt;Node69</title>
<path fill="none" stroke="#191970" d="M79.9244,-85.5831C98.5661,-68.6255 130.4261,-42.238 162.6104,-27.5 170.608,-23.8377 179.3981,-20.8987 188.149,-18.5462"/>
<polygon fill="#191970" stroke="#191970" points="77.5045,-83.054 72.5587,-92.4236 82.268,-88.1832 77.5045,-83.054"/>
</g>
<!-- Node62 -->
<g id="node3" class="node">
<title>Node62</title>
<g id="a_node3"><a xlink:href="class_main_window.html#a8b244be8b7b7db1b08de2a2acb9409db" target="_top" xlink:title="MainWindow::MainWindow handles all of the main functionality and also the main window. ">
<polygon fill="none" stroke="#000000" points="530.6094,-157.5 530.6094,-175.5 666.6484,-175.5 666.6484,-157.5 530.6094,-157.5"/>
<text text-anchor="middle" x="598.6289" y="-163.5" font-family="Helvetica,sans-Serif" font-size="10.00" fill="#000000">MainWindow::MainWindow</text>
</a>
</g>
</g>
<!-- Node61&#45;&gt;Node62 -->
<g id="edge2" class="edge">
<title>Node61&#45;&gt;Node62</title>
<path fill="none" stroke="#191970" d="M504.9995,-166.5C513.4541,-166.5 522.0163,-166.5 530.351,-166.5"/>
<polygon fill="#191970" stroke="#191970" points="504.7625,-163.0001 494.7625,-166.5 504.7625,-170.0001 504.7625,-163.0001"/>
</g>
<!-- Node63&#45;&gt;Node61 -->
<g id="edge4" class="edge">
<title>Node63&#45;&gt;Node61</title>
<path fill="none" stroke="#191970" d="M307.3873,-160.6153C324.5452,-161.4546 343.1585,-162.365 360.501,-163.2133"/>
<polygon fill="#191970" stroke="#191970" points="307.0757,-157.096 296.9166,-160.1032 306.7336,-164.0876 307.0757,-157.096"/>
</g>
<!-- Node65 -->
<g id="node6" class="node">
<title>Node65</title>
<g id="a_node6"><a xlink:href="class_config_dialog.html#ad5b80066591f19fdaaa06b7cb5ba7f15" target="_top" xlink:title="ConfigDialog::wizard first&#45;time use wizard. ">
<polygon fill="none" stroke="#000000" points="373.8413,-102.5 373.8413,-120.5 481.5503,-120.5 481.5503,-102.5 373.8413,-102.5"/>
<text text-anchor="middle" x="427.6958" y="-108.5" font-family="Helvetica,sans-Serif" font-size="10.00" fill="#000000">ConfigDialog::wizard</text>
</a>
</g>
</g>
<!-- Node64&#45;&gt;Node65 -->
<g id="edge6" class="edge">
<title>Node64&#45;&gt;Node65</title>
<path fill="none" stroke="#191970" d="M335.0082,-116.0336C348.2069,-115.3881 361.4245,-114.7415 373.5742,-114.1473"/>
<polygon fill="#191970" stroke="#191970" points="334.7538,-112.5418 324.9368,-116.5263 335.0958,-119.5334 334.7538,-112.5418"/>
</g>
<!-- Node66&#45;&gt;Node65 -->
<g id="edge8" class="edge">
<title>Node66&#45;&gt;Node65</title>
<path fill="none" stroke="#191970" d="M312.9386,-94.0369C332.9894,-97.0881 354.5789,-100.3735 373.5626,-103.2623"/>
<polygon fill="#191970" stroke="#191970" points="313.3405,-90.5578 302.9277,-92.5135 312.2873,-97.4782 313.3405,-90.5578"/>
</g>
<!-- Node68 -->
<g id="node9" class="node">
<title>Node68</title>
<g id="a_node9"><a xlink:href="class_config_dialog.html#a428d1f1b69aaaf09343e3d8db42ed138" target="_top" xlink:title="ConfigDialog::genKey tunnel function to make MainWindow generate a gpg key pair. ">
<polygon fill="none" stroke="#000000" points="371.3315,-37.5 371.3315,-55.5 484.0601,-55.5 484.0601,-37.5 371.3315,-37.5"/>
<text text-anchor="middle" x="427.6958" y="-43.5" font-family="Helvetica,sans-Serif" font-size="10.00" fill="#000000">ConfigDialog::genKey</text>
</a>
</g>
</g>
<!-- Node67&#45;&gt;Node68 -->
<g id="edge10" class="edge">
<title>Node67&#45;&gt;Node68</title>
<path fill="none" stroke="#191970" d="M330.4564,-46.5C344.3359,-46.5 358.375,-46.5 371.3046,-46.5"/>
<polygon fill="#191970" stroke="#191970" points="330.3963,-43.0001 320.3963,-46.5 330.3962,-50.0001 330.3963,-43.0001"/>
</g>
</g>
</svg>
