<?xml version="1.0" encoding="UTF-8" standalone="no"?>
<!DOCTYPE svg PUBLIC "-//W3C//DTD SVG 1.1//EN"
 "http://www.w3.org/Graphics/SVG/1.1/DTD/svg11.dtd">
<!-- Generated by graphviz version 2.44.1 (20200629.0846)
 -->
<!-- Title: Util::checkConfig Pages: 1 -->
<svg width="546pt" height="142pt"
 viewBox="0.00 0.00 546.00 142.00" xmlns="http://www.w3.org/2000/svg" xmlns:xlink="http://www.w3.org/1999/xlink">
<g id="graph0" class="graph" transform="scale(1 1) rotate(0) translate(4 138)">
<title>Util::checkConfig</title>
<!-- Node1 -->
<g id="node1" class="node">
<title>Node1</title>
<g id="a_node1"><a xlink:title="Util::checkConfig do we have prequisite settings?">
<polygon fill="#bfbfbf" stroke="black" points="446,-57.5 446,-76.5 538,-76.5 538,-57.5 446,-57.5"/>
<text text-anchor="middle" x="492" y="-64.5" font-family="Helvetica,sans-Serif" font-size="10.00">Util::checkConfig</text>
</a>
</g>
</g>
<!-- Node2 -->
<g id="node2" class="node">
<title>Node2</title>
<g id="a_node2"><a xlink:href="class_main_window.html#aeb8091ab5531144b76c1fbb0d63deb56" target="_top" xlink:title="MainWindow::config pops up the configuration screen and handles all inter&#45;window communication.">
<polygon fill="none" stroke="black" points="290,-114.5 290,-133.5 395,-133.5 395,-114.5 290,-114.5"/>
<text text-anchor="middle" x="342.5" y="-121.5" font-family="Helvetica,sans-Serif" font-size="10.00">MainWindow::config</text>
</a>
</g>
</g>
<!-- Node1&#45;&gt;Node2 -->
<g id="edge1" class="edge">
<title>Node1&#45;&gt;Node2</title>
<path fill="none" stroke="midnightblue" d="M458.81,-80.46C444,-86.57 426.16,-93.79 410,-100 397.17,-104.93 382.83,-110.14 370.77,-114.44"/>
<polygon fill="midnightblue" stroke="midnightblue" points="460.15,-83.7 468.06,-76.64 457.48,-77.23 460.15,-83.7"/>
</g>
<!-- Node3 -->
<g id="node3" class="node">
<title>Node3</title>
<g id="a_node3"><a xlink:href="class_qt_pass.html#a49e2861160fdb8d614231933f60fac47" target="_top" xlink:title="QtPass::init make sure we are ready to go as soon as possible.">
<polygon fill="none" stroke="black" points="171,-95.5 171,-114.5 239,-114.5 239,-95.5 171,-95.5"/>
<text text-anchor="middle" x="205" y="-102.5" font-family="Helvetica,sans-Serif" font-size="10.00">QtPass::init</text>
</a>
</g>
</g>
<!-- Node1&#45;&gt;Node3 -->
<g id="edge5" class="edge">
<title>Node1&#45;&gt;Node3</title>
<path fill="none" stroke="midnightblue" d="M435.71,-74.37C377.46,-82.14 287.62,-94.12 239.37,-100.55"/>
<polygon fill="midnightblue" stroke="midnightblue" points="436.39,-77.81 445.84,-73.02 435.47,-70.87 436.39,-77.81"/>
</g>
<!-- Node5 -->
<g id="node5" class="node">
<title>Node5</title>
<g id="a_node5"><a xlink:href="class_config_dialog.html#a815d6d8ddf1de9386427ddef691a02a1" target="_top" xlink:title="ConfigDialog::ConfigDialog this sets up the configuration screen.">
<polygon fill="none" stroke="black" points="275,-38.5 275,-57.5 410,-57.5 410,-38.5 275,-38.5"/>
<text text-anchor="middle" x="342.5" y="-45.5" font-family="Helvetica,sans-Serif" font-size="10.00">ConfigDialog::ConfigDialog</text>
</a>
</g>
</g>
<!-- Node1&#45;&gt;Node5 -->
<g id="edge4" class="edge">
<title>Node1&#45;&gt;Node5</title>
<path fill="none" stroke="midnightblue" d="M435.86,-59.9C427.43,-58.81 418.65,-57.68 410,-56.57"/>
<polygon fill="midnightblue" stroke="midnightblue" points="435.58,-63.39 445.94,-61.2 436.47,-56.45 435.58,-63.39"/>
</g>
<!-- Node6 -->
<g id="node6" class="node">
<title>Node6</title>
<g id="a_node6"><a xlink:href="class_config_dialog.html#ad5b80066591f19fdaaa06b7cb5ba7f15" target="_top" xlink:title="ConfigDialog::wizard first&#45;time use wizard.">
<polygon fill="none" stroke="black" points="289,-0.5 289,-19.5 396,-19.5 396,-0.5 289,-0.5"/>
<text text-anchor="middle" x="342.5" y="-7.5" font-family="Helvetica,sans-Serif" font-size="10.00">ConfigDialog::wizard</text>
</a>
</g>
</g>
<!-- Node1&#45;&gt;Node6 -->
<g id="edge6" class="edge">
<title>Node1&#45;&gt;Node6</title>
<path fill="none" stroke="midnightblue" d="M463.68,-52.84C448.2,-45.16 428.31,-35.86 410,-29 400.67,-25.5 390.4,-22.28 380.78,-19.51"/>
<polygon fill="midnightblue" stroke="midnightblue" points="462.2,-56.01 472.7,-57.38 465.34,-49.76 462.2,-56.01"/>
</g>
<!-- Node2&#45;&gt;Node3 -->
<g id="edge2" class="edge">
<title>Node2&#45;&gt;Node3</title>
<path fill="none" stroke="midnightblue" d="M279.76,-115.34C265.73,-113.38 251.35,-111.36 239.06,-109.64"/>
<polygon fill="midnightblue" stroke="midnightblue" points="279.5,-118.84 289.89,-116.76 280.47,-111.91 279.5,-118.84"/>
</g>
<!-- Node4 -->
<g id="node4" class="node">
<title>Node4</title>
<g id="a_node4"><a xlink:href="class_main_window.html#a52e97245b2f88492071e639395c4a15a" target="_top" xlink:title="MainWindow::MainWindow handles all of the main functionality and also the main window.">
<polygon fill="none" stroke="black" points="0,-95.5 0,-114.5 135,-114.5 135,-95.5 0,-95.5"/>
<text text-anchor="middle" x="67.5" y="-102.5" font-family="Helvetica,sans-Serif" font-size="10.00">MainWindow::MainWindow</text>
</a>
</g>
</g>
<!-- Node3&#45;&gt;Node4 -->
<g id="edge3" class="edge">
<title>Node3&#45;&gt;Node4</title>
<path fill="none" stroke="midnightblue" d="M160.84,-105C152.67,-105 143.95,-105 135.25,-105"/>
<polygon fill="midnightblue" stroke="midnightblue" points="160.85,-108.5 170.85,-105 160.85,-101.5 160.85,-108.5"/>
</g>
</g>
</svg>
