<?xml version="1.0" encoding="UTF-8" standalone="no"?>
<!DOCTYPE svg PUBLIC "-//W3C//DTD SVG 1.1//EN"
 "http://www.w3.org/Graphics/SVG/1.1/DTD/svg11.dtd">
<!-- Generated by graphviz version 2.40.1 (20161225.0304)
 -->
<!-- Title: Pass::finishedAny Pages: 1 -->
<svg width="599pt" height="102pt"
 viewBox="0.00 0.00 599.07 102.00" xmlns="http://www.w3.org/2000/svg" xmlns:xlink="http://www.w3.org/1999/xlink">
<g id="graph0" class="graph" transform="scale(1 1) rotate(0) translate(4 98)">
<title>Pass::finishedAny</title>
<!-- Node92 -->
<g id="node1" class="node">
<title>Node92</title>
<polygon fill="#bfbfbf" stroke="#000000" points="0,-38.5 0,-56.5 95.4873,-56.5 95.4873,-38.5 0,-38.5"/>
<text text-anchor="middle" x="47.7437" y="-44.5" font-family="Helvetica,sans-Serif" font-size="10.00" fill="#000000">Pass::finishedAny</text>
</g>
<!-- Node93 -->
<g id="node2" class="node">
<title>Node93</title>
<g id="a_node2"><a xlink:href="class_main_window.html#a8b244be8b7b7db1b08de2a2acb9409db" target="_top" xlink:title="MainWindow::MainWindow handles all of the main functionality and also the main window. ">
<polygon fill="none" stroke="#000000" points="131.4873,-75.5 131.4873,-93.5 267.5264,-93.5 267.5264,-75.5 131.4873,-75.5"/>
<text text-anchor="middle" x="199.5068" y="-81.5" font-family="Helvetica,sans-Serif" font-size="10.00" fill="#000000">MainWindow::MainWindow</text>
</a>
</g>
</g>
<!-- Node92&#45;&gt;Node93 -->
<g id="edge1" class="edge">
<title>Node92&#45;&gt;Node93</title>
<path fill="none" stroke="#191970" d="M94.6042,-58.9247C116.4405,-64.2484 142.0519,-70.4924 162.502,-75.4782"/>
<polygon fill="#191970" stroke="#191970" points="95.4136,-55.5195 84.8691,-56.5512 93.7555,-62.3203 95.4136,-55.5195"/>
</g>
<!-- Node94 -->
<g id="node3" class="node">
<title>Node94</title>
<g id="a_node3"><a xlink:href="class_pass.html#a451b0f52aa0332801252ae28665e29b3" target="_top" xlink:title="Pass::listKeys list users. ">
<polygon fill="none" stroke="#000000" points="160.3862,-38.5 160.3862,-56.5 238.6274,-56.5 238.6274,-38.5 160.3862,-38.5"/>
<text text-anchor="middle" x="199.5068" y="-44.5" font-family="Helvetica,sans-Serif" font-size="10.00" fill="#000000">Pass::listKeys</text>
</a>
</g>
</g>
<!-- Node92&#45;&gt;Node94 -->
<g id="edge2" class="edge">
<title>Node92&#45;&gt;Node94</title>
<path fill="none" stroke="#191970" d="M105.9086,-47.5C123.9675,-47.5 143.4443,-47.5 159.9301,-47.5"/>
<polygon fill="#191970" stroke="#191970" points="105.7625,-44.0001 95.7625,-47.5 105.7624,-51.0001 105.7625,-44.0001"/>
</g>
<!-- Node98 -->
<g id="node7" class="node">
<title>Node98</title>
<g id="a_node7"><a xlink:href="class_pass.html#a8dfa731be7ac962f9f6a5cf8f29097ec" target="_top" xlink:title="Pass::~Pass">
<polygon fill="none" stroke="#000000" points="339.5127,-.5 339.5127,-18.5 411.3721,-18.5 411.3721,-.5 339.5127,-.5"/>
<text text-anchor="middle" x="375.4424" y="-6.5" font-family="Helvetica,sans-Serif" font-size="10.00" fill="#000000">Pass::~Pass</text>
</a>
</g>
</g>
<!-- Node92&#45;&gt;Node98 -->
<g id="edge8" class="edge">
<title>Node92&#45;&gt;Node98</title>
<path fill="none" stroke="#191970" d="M92.3678,-36.1126C104.9484,-33.2474 118.6934,-30.439 131.4873,-28.5 204.7806,-17.3916 291.5043,-12.599 339.2945,-10.6734"/>
<polygon fill="#191970" stroke="#191970" points="91.5071,-32.7194 82.5685,-38.4072 93.1031,-39.535 91.5071,-32.7194"/>
</g>
<!-- Node95 -->
<g id="node4" class="node">
<title>Node95</title>
<g id="a_node4"><a xlink:href="class_main_window.html#add7481e9707f309caba6b5d3a8c1ddc9" target="_top" xlink:title="MainWindow::userDialog see MainWindow::on_usersButton_clicked() ">
<polygon fill="none" stroke="#000000" points="312.1421,-74.5 312.1421,-92.5 438.7427,-92.5 438.7427,-74.5 312.1421,-74.5"/>
<text text-anchor="middle" x="375.4424" y="-80.5" font-family="Helvetica,sans-Serif" font-size="10.00" fill="#000000">MainWindow::userDialog</text>
</a>
</g>
</g>
<!-- Node94&#45;&gt;Node95 -->
<g id="edge3" class="edge">
<title>Node94&#45;&gt;Node95</title>
<path fill="none" stroke="#191970" d="M248.9921,-57.6257C274.9153,-62.9301 306.3918,-69.3708 331.4551,-74.4993"/>
<polygon fill="#191970" stroke="#191970" points="249.4889,-54.1549 238.9902,-55.5791 248.0856,-61.0128 249.4889,-54.1549"/>
</g>
<!-- Node97 -->
<g id="node6" class="node">
<title>Node97</title>
<g id="a_node6"><a xlink:href="class_main_window.html#a38957de181a576efc28befeb7c47abec" target="_top" xlink:title="MainWindow::getSecretKeys get list of secret/private keys. ">
<polygon fill="none" stroke="#000000" points="303.5264,-37.5 303.5264,-55.5 447.3584,-55.5 447.3584,-37.5 303.5264,-37.5"/>
<text text-anchor="middle" x="375.4424" y="-43.5" font-family="Helvetica,sans-Serif" font-size="10.00" fill="#000000">MainWindow::getSecretKeys</text>
</a>
</g>
</g>
<!-- Node94&#45;&gt;Node97 -->
<g id="edge5" class="edge">
<title>Node94&#45;&gt;Node97</title>
<path fill="none" stroke="#191970" d="M249.1166,-47.218C265.9079,-47.1226 285.018,-47.014 303.2014,-46.9106"/>
<polygon fill="#191970" stroke="#191970" points="248.9701,-43.7187 238.9902,-47.2756 249.01,-50.7186 248.9701,-43.7187"/>
</g>
<!-- Node94&#45;&gt;Node98 -->
<g id="edge7" class="edge">
<title>Node94&#45;&gt;Node98</title>
<path fill="none" stroke="#191970" d="M248.8512,-36.8422C277.6162,-30.6293 313.2562,-22.9315 339.3839,-17.2882"/>
<polygon fill="#191970" stroke="#191970" points="248.0259,-33.4397 238.9902,-38.9721 249.5038,-40.2819 248.0259,-33.4397"/>
</g>
<!-- Node96 -->
<g id="node5" class="node">
<title>Node96</title>
<g id="a_node5"><a xlink:href="class_config_dialog.html#ad5b80066591f19fdaaa06b7cb5ba7f15" target="_top" xlink:title="ConfigDialog::wizard first&#45;time use wizard. ">
<polygon fill="none" stroke="#000000" points="483.3584,-55.5 483.3584,-73.5 591.0674,-73.5 591.0674,-55.5 483.3584,-55.5"/>
<text text-anchor="middle" x="537.2129" y="-61.5" font-family="Helvetica,sans-Serif" font-size="10.00" fill="#000000">ConfigDialog::wizard</text>
</a>
</g>
</g>
<!-- Node95&#45;&gt;Node96 -->
<g id="edge4" class="edge">
<title>Node95&#45;&gt;Node96</title>
<path fill="none" stroke="#191970" d="M449.0012,-74.8605C460.5661,-73.5022 472.3323,-72.1202 483.3439,-70.8269"/>
<polygon fill="#191970" stroke="#191970" points="448.4375,-71.4026 438.9141,-76.0452 449.2541,-78.3548 448.4375,-71.4026"/>
</g>
<!-- Node97&#45;&gt;Node96 -->
<g id="edge6" class="edge">
<title>Node97&#45;&gt;Node96</title>
<path fill="none" stroke="#191970" d="M457.926,-55.6779C466.5533,-56.6378 475.1562,-57.595 483.3421,-58.5059"/>
<polygon fill="#191970" stroke="#191970" points="458.1366,-52.1798 447.8108,-54.5523 457.3624,-59.1368 458.1366,-52.1798"/>
</g>
</g>
</svg>
