<?xml version="1.0" encoding="UTF-8" standalone="no"?>
<!DOCTYPE svg PUBLIC "-//W3C//DTD SVG 1.1//EN"
 "http://www.w3.org/Graphics/SVG/1.1/DTD/svg11.dtd">
<!-- Generated by graphviz version 2.40.1 (20161225.0304)
 -->
<!-- Title: QtPassSettings::setGpgExecutable Pages: 1 -->
<svg width="700pt" height="103pt"
 viewBox="0.00 0.00 699.97 103.00" xmlns="http://www.w3.org/2000/svg" xmlns:xlink="http://www.w3.org/1999/xlink">
<g id="graph0" class="graph" transform="scale(1 1) rotate(0) translate(4 99)">
<title>QtPassSettings::setGpgExecutable</title>
<!-- Node358 -->
<g id="node1" class="node">
<title>Node358</title>
<polygon fill="#bfbfbf" stroke="#000000" points="0,-38.5 0,-56.5 172.1963,-56.5 172.1963,-38.5 0,-38.5"/>
<text text-anchor="middle" x="86.0981" y="-44.5" font-family="Helvetica,sans-Serif" font-size="10.00" fill="#000000">QtPassSettings::setGpgExecutable</text>
</g>
<!-- Node359 -->
<g id="node2" class="node">
<title>Node359</title>
<g id="a_node2"><a xlink:href="class_config_dialog.html#a485badac4dffa04603f800bb9d396e1d" target="_top" xlink:title="ConfigDialog::~ConfigDialog config destructor, makes sure the mainWindow knows about git...">
<polygon fill="none" stroke="#000000" points="208.1963,-76.5 208.1963,-94.5 350.1045,-94.5 350.1045,-76.5 208.1963,-76.5"/>
<text text-anchor="middle" x="279.1504" y="-82.5" font-family="Helvetica,sans-Serif" font-size="10.00" fill="#000000">ConfigDialog::~ConfigDialog</text>
</a>
</g>
</g>
<!-- Node358&#45;&gt;Node359 -->
<g id="edge1" class="edge">
<title>Node358&#45;&gt;Node359</title>
<path fill="none" stroke="#191970" d="M141.8471,-58.4735C170.8888,-64.19 205.9643,-71.0942 233.394,-76.4934"/>
<polygon fill="#191970" stroke="#191970" points="142.3366,-55.0028 131.8488,-56.5055 140.9846,-61.871 142.3366,-55.0028"/>
</g>
<!-- Node360 -->
<g id="node3" class="node">
<title>Node360</title>
<g id="a_node3"><a xlink:href="class_main_window.html#a23d2783cb61a373c4b0127970264290a" target="_top" xlink:title="MainWindow::checkConfig make sure we are ready to go as soon as possible. ">
<polygon fill="none" stroke="#000000" points="386.1045,-19.5 386.1045,-37.5 519.9316,-37.5 519.9316,-19.5 386.1045,-19.5"/>
<text text-anchor="middle" x="453.0181" y="-25.5" font-family="Helvetica,sans-Serif" font-size="10.00" fill="#000000">MainWindow::checkConfig</text>
</a>
</g>
</g>
<!-- Node358&#45;&gt;Node360 -->
<g id="edge2" class="edge">
<title>Node358&#45;&gt;Node360</title>
<path fill="none" stroke="#191970" d="M182.7008,-42.4977C246.732,-39.182 329.1146,-34.916 386.0161,-31.9695"/>
<polygon fill="#191970" stroke="#191970" points="182.394,-39.0088 172.5884,-43.0213 182.7561,-45.9994 182.394,-39.0088"/>
</g>
<!-- Node362 -->
<g id="node5" class="node">
<title>Node362</title>
<g id="a_node5"><a xlink:href="class_main_window.html#aeb8091ab5531144b76c1fbb0d63deb56" target="_top" xlink:title="MainWindow::config pops up the configuration screen and handles all inter&#45;window communication. ">
<polygon fill="none" stroke="#000000" points="226.4092,-.5 226.4092,-18.5 331.8916,-18.5 331.8916,-.5 226.4092,-.5"/>
<text text-anchor="middle" x="279.1504" y="-6.5" font-family="Helvetica,sans-Serif" font-size="10.00" fill="#000000">MainWindow::config</text>
</a>
</g>
</g>
<!-- Node358&#45;&gt;Node362 -->
<g id="edge4" class="edge">
<title>Node358&#45;&gt;Node362</title>
<path fill="none" stroke="#191970" d="M141.8471,-36.5265C170.8888,-30.81 205.9643,-23.9058 233.394,-18.5066"/>
<polygon fill="#191970" stroke="#191970" points="140.9846,-33.129 131.8488,-38.4945 142.3366,-39.9972 140.9846,-33.129"/>
</g>
<!-- Node361 -->
<g id="node4" class="node">
<title>Node361</title>
<g id="a_node4"><a xlink:href="class_main_window.html#a8b244be8b7b7db1b08de2a2acb9409db" target="_top" xlink:title="MainWindow::MainWindow handles all of the main functionality and also the main window. ">
<polygon fill="none" stroke="#000000" points="555.9316,-19.5 555.9316,-37.5 691.9707,-37.5 691.9707,-19.5 555.9316,-19.5"/>
<text text-anchor="middle" x="623.9512" y="-25.5" font-family="Helvetica,sans-Serif" font-size="10.00" fill="#000000">MainWindow::MainWindow</text>
</a>
</g>
</g>
<!-- Node360&#45;&gt;Node361 -->
<g id="edge3" class="edge">
<title>Node360&#45;&gt;Node361</title>
<path fill="none" stroke="#191970" d="M530.3217,-28.5C538.7764,-28.5 547.3386,-28.5 555.6733,-28.5"/>
<polygon fill="#191970" stroke="#191970" points="530.0848,-25.0001 520.0848,-28.5 530.0847,-32.0001 530.0848,-25.0001"/>
</g>
<!-- Node362&#45;&gt;Node360 -->
<g id="edge5" class="edge">
<title>Node362&#45;&gt;Node360</title>
<path fill="none" stroke="#191970" d="M342.418,-16.4138C356.6212,-17.9659 371.7367,-19.6177 386.0838,-21.1855"/>
<polygon fill="#191970" stroke="#191970" points="342.5822,-12.911 332.2612,-15.3039 341.8217,-19.8696 342.5822,-12.911"/>
</g>
</g>
</svg>
