<?xml version="1.0" encoding="UTF-8" standalone="no"?>
<!DOCTYPE svg PUBLIC "-//W3C//DTD SVG 1.1//EN"
 "http://www.w3.org/Graphics/SVG/1.1/DTD/svg11.dtd">
<!-- Generated by graphviz version 2.38.0 (20140413.2041)
 -->
<!-- Title: QtPassSettings::getAutoclearSeconds Pages: 1 -->
<svg width="740pt" height="111pt"
 viewBox="0.00 0.00 739.99 111.00" xmlns="http://www.w3.org/2000/svg" xmlns:xlink="http://www.w3.org/1999/xlink">
<g id="graph0" class="graph" transform="scale(1 1) rotate(0) translate(4 107)">
<title>QtPassSettings::getAutoclearSeconds</title>
<!-- Node8 -->
<g id="node1" class="node"><title>Node8</title>
<polygon fill="#bfbfbf" stroke="black" points="0,-42.5 0,-70.5 146.625,-70.5 146.625,-42.5 0,-42.5"/>
<text text-anchor="start" x="8" y="-58.5" font-family="Helvetica,sans-Serif" font-size="10.00">QtPassSettings::getAutoclear</text>
<text text-anchor="middle" x="73.3125" y="-48.5" font-family="Helvetica,sans-Serif" font-size="10.00">Seconds</text>
</g>
<!-- Node9 -->
<g id="node2" class="node"><title>Node9</title>
<g id="a_node2"><a xlink:href="class_main_window.html#a23d2783cb61a373c4b0127970264290a" target="_top" xlink:title="MainWindow::checkConfig make sure we are ready to go as soon as possible. ">
<polygon fill="none" stroke="black" points="404.427,-84.5 404.427,-102.5 538.254,-102.5 538.254,-84.5 404.427,-84.5"/>
<text text-anchor="middle" x="471.341" y="-90.5" font-family="Helvetica,sans-Serif" font-size="10.00">MainWindow::checkConfig</text>
</a>
</g>
</g>
<!-- Node8&#45;&gt;Node9 -->
<g id="edge1" class="edge"><title>Node8&#45;&gt;Node9</title>
<path fill="none" stroke="midnightblue" d="M156.865,-71.0846C165.546,-72.3592 174.255,-73.5305 182.625,-74.5 258.334,-83.269 345.756,-88.328 404.18,-90.9883"/>
<polygon fill="midnightblue" stroke="midnightblue" points="157.12,-67.5834 146.709,-69.5468 156.072,-74.5045 157.12,-67.5834"/>
</g>
<!-- Node11 -->
<g id="node4" class="node"><title>Node11</title>
<g id="a_node4"><a xlink:href="class_main_window.html#aeb8091ab5531144b76c1fbb0d63deb56" target="_top" xlink:title="MainWindow::config pops up the configuration screen and handles all inter&#45;window communication. ">
<polygon fill="none" stroke="black" points="215.696,-47.5 215.696,-65.5 321.179,-65.5 321.179,-47.5 215.696,-47.5"/>
<text text-anchor="middle" x="268.438" y="-53.5" font-family="Helvetica,sans-Serif" font-size="10.00">MainWindow::config</text>
</a>
</g>
</g>
<!-- Node8&#45;&gt;Node11 -->
<g id="edge3" class="edge"><title>Node8&#45;&gt;Node11</title>
<path fill="none" stroke="midnightblue" d="M156.81,-56.5C176.782,-56.5 197.574,-56.5 215.67,-56.5"/>
<polygon fill="midnightblue" stroke="midnightblue" points="156.775,-53.0001 146.775,-56.5 156.775,-60.0001 156.775,-53.0001"/>
</g>
<!-- Node14 -->
<g id="node7" class="node"><title>Node14</title>
<g id="a_node7"><a xlink:href="class_main_window.html#a5616dbee2eede4e879bc40fa7778ba7b" target="_top" xlink:title="MainWindow::copyTextToClipboard copies text to your clipboard. ">
<polygon fill="none" stroke="black" points="182.625,-10.5 182.625,-28.5 354.25,-28.5 354.25,-10.5 182.625,-10.5"/>
<text text-anchor="middle" x="268.438" y="-16.5" font-family="Helvetica,sans-Serif" font-size="10.00">MainWindow::copyTextToClipboard</text>
</a>
</g>
</g>
<!-- Node8&#45;&gt;Node14 -->
<g id="edge7" class="edge"><title>Node8&#45;&gt;Node14</title>
<path fill="none" stroke="midnightblue" d="M156.685,-40.7186C178.44,-36.5506 201.178,-32.1944 220.35,-28.5213"/>
<polygon fill="midnightblue" stroke="midnightblue" points="155.937,-37.2981 146.775,-42.6173 157.255,-44.1731 155.937,-37.2981"/>
</g>
<!-- Node10 -->
<g id="node3" class="node"><title>Node10</title>
<g id="a_node3"><a xlink:href="class_main_window.html#a8b244be8b7b7db1b08de2a2acb9409db" target="_top" xlink:title="MainWindow::MainWindow handles all of the main functionality and also the main window. ">
<polygon fill="none" stroke="black" points="592.191,-84.5 592.191,-102.5 728.23,-102.5 728.23,-84.5 592.191,-84.5"/>
<text text-anchor="middle" x="660.211" y="-90.5" font-family="Helvetica,sans-Serif" font-size="10.00">MainWindow::MainWindow</text>
</a>
</g>
</g>
<!-- Node9&#45;&gt;Node10 -->
<g id="edge2" class="edge"><title>Node9&#45;&gt;Node10</title>
<path fill="none" stroke="midnightblue" d="M548.775,-93.5C563.064,-93.5 577.902,-93.5 591.891,-93.5"/>
<polygon fill="midnightblue" stroke="midnightblue" points="548.487,-90.0001 538.487,-93.5 548.487,-97.0001 548.487,-90.0001"/>
</g>
<!-- Node11&#45;&gt;Node9 -->
<g id="edge4" class="edge"><title>Node11&#45;&gt;Node9</title>
<path fill="none" stroke="midnightblue" d="M328.496,-67.3767C357.986,-72.8079 393.245,-79.3015 421.232,-84.4557"/>
<polygon fill="midnightblue" stroke="midnightblue" points="328.796,-63.8731 318.327,-65.5039 327.528,-70.7573 328.796,-63.8731"/>
</g>
<!-- Node12 -->
<g id="node5" class="node"><title>Node12</title>
<g id="a_node5"><a xlink:href="class_main_window.html#a4680b2cbcfd388683a98303f29c0f84f" target="_top" xlink:title="MainWindow::executePassGitInit git init wrapper. ">
<polygon fill="none" stroke="black" points="390.255,-47.5 390.255,-65.5 552.427,-65.5 552.427,-47.5 390.255,-47.5"/>
<text text-anchor="middle" x="471.341" y="-53.5" font-family="Helvetica,sans-Serif" font-size="10.00">MainWindow::executePassGitInit</text>
</a>
</g>
</g>
<!-- Node11&#45;&gt;Node12 -->
<g id="edge5" class="edge"><title>Node11&#45;&gt;Node12</title>
<path fill="none" stroke="midnightblue" d="M331.497,-56.5C350.02,-56.5 370.594,-56.5 390.106,-56.5"/>
<polygon fill="midnightblue" stroke="midnightblue" points="331.436,-53.0001 321.436,-56.5 331.436,-60.0001 331.436,-53.0001"/>
</g>
<!-- Node13 -->
<g id="node6" class="node"><title>Node13</title>
<g id="a_node6"><a xlink:href="class_config_dialog.html#ad5b80066591f19fdaaa06b7cb5ba7f15" target="_top" xlink:title="ConfigDialog::wizard first&#45;time use wizard. ">
<polygon fill="none" stroke="black" points="606.356,-47.5 606.356,-65.5 714.065,-65.5 714.065,-47.5 606.356,-47.5"/>
<text text-anchor="middle" x="660.211" y="-53.5" font-family="Helvetica,sans-Serif" font-size="10.00">ConfigDialog::wizard</text>
</a>
</g>
</g>
<!-- Node12&#45;&gt;Node13 -->
<g id="edge6" class="edge"><title>Node12&#45;&gt;Node13</title>
<path fill="none" stroke="midnightblue" d="M562.91,-56.5C577.743,-56.5 592.672,-56.5 606.2,-56.5"/>
<polygon fill="midnightblue" stroke="midnightblue" points="562.675,-53.0001 552.675,-56.5 562.675,-60.0001 562.675,-53.0001"/>
</g>
<!-- Node14&#45;&gt;Node12 -->
<g id="edge8" class="edge"><title>Node14&#45;&gt;Node12</title>
<path fill="none" stroke="midnightblue" d="M328.496,-30.3767C357.986,-35.8079 393.245,-42.3015 421.232,-47.4557"/>
<polygon fill="midnightblue" stroke="midnightblue" points="328.796,-26.8731 318.327,-28.5039 327.528,-33.7573 328.796,-26.8731"/>
</g>
<!-- Node15 -->
<g id="node8" class="node"><title>Node15</title>
<g id="a_node8"><a xlink:href="class_main_window.html#a0b9416f68d223f4303ef6e2d8912905c" target="_top" xlink:title="MainWindow::generatePassword use either pwgen or internal password generator. ">
<polygon fill="none" stroke="black" points="390.25,-8.5 390.25,-26.5 552.432,-26.5 552.432,-8.5 390.25,-8.5"/>
<text text-anchor="middle" x="471.341" y="-14.5" font-family="Helvetica,sans-Serif" font-size="10.00">MainWindow::generatePassword</text>
</a>
</g>
</g>
<!-- Node14&#45;&gt;Node15 -->
<g id="edge9" class="edge"><title>Node14&#45;&gt;Node15</title>
<path fill="none" stroke="midnightblue" d="M364.433,-18.5543C373.058,-18.4685 381.737,-18.3821 390.214,-18.2977"/>
<polygon fill="midnightblue" stroke="midnightblue" points="364.312,-15.0552 354.347,-18.6547 364.382,-22.0549 364.312,-15.0552"/>
</g>
<!-- Node16 -->
<g id="node9" class="node"><title>Node16</title>
<g id="a_node9"><a xlink:href="class_password_dialog.html#aa123158c0085b910ecf3bfdc9dae9e97" target="_top" xlink:title="PasswordDialog::~PasswordDialog basic destructor. ">
<polygon fill="none" stroke="black" points="588.432,-0.5 588.432,-28.5 731.99,-28.5 731.99,-0.5 588.432,-0.5"/>
<text text-anchor="start" x="596.432" y="-16.5" font-family="Helvetica,sans-Serif" font-size="10.00">PasswordDialog::~Password</text>
<text text-anchor="middle" x="660.211" y="-6.5" font-family="Helvetica,sans-Serif" font-size="10.00">Dialog</text>
</a>
</g>
</g>
<!-- Node15&#45;&gt;Node16 -->
<g id="edge10" class="edge"><title>Node15&#45;&gt;Node16</title>
<path fill="none" stroke="midnightblue" d="M562.742,-16.0487C571.345,-15.9106 579.983,-15.7719 588.364,-15.6374"/>
<polygon fill="midnightblue" stroke="midnightblue" points="562.618,-12.5502 552.675,-16.2103 562.73,-19.5493 562.618,-12.5502"/>
</g>
</g>
</svg>
