<?xml version="1.0" encoding="UTF-8" standalone="no"?>
<!DOCTYPE svg PUBLIC "-//W3C//DTD SVG 1.1//EN"
 "http://www.w3.org/Graphics/SVG/1.1/DTD/svg11.dtd">
<!-- Generated by graphviz version 2.40.1 (20161225.0304)
 -->
<!-- Title: Pass::Show Pages: 1 -->
<svg width="708pt" height="196pt"
 viewBox="0.00 0.00 708.00 195.50" xmlns="http://www.w3.org/2000/svg" xmlns:xlink="http://www.w3.org/1999/xlink">
<g id="graph0" class="graph" transform="scale(1 1) rotate(0) translate(4 191.5)">
<title>Pass::Show</title>
<!-- Node312 -->
<g id="node1" class="node">
<title>Node312</title>
<polygon fill="#bfbfbf" stroke="#000000" points="0,-69 0,-88 70,-88 70,-69 0,-69"/>
<text text-anchor="middle" x="35" y="-76" font-family="Helvetica,sans-Serif" font-size="10.00" fill="#000000">Pass::Show</text>
</g>
<!-- Node313 -->
<g id="node2" class="node">
<title>Node313</title>
<g id="a_node2"><a xlink:href="class_main_window.html#adc7d4b2b210efab401f0b14641f80464" target="_top" xlink:title="MainWindow::on_treeView_clicked read the selected password file. ">
<polygon fill="none" stroke="#000000" points="108,-126.5 108,-156.5 241,-156.5 241,-126.5 108,-126.5"/>
<text text-anchor="start" x="116" y="-144.5" font-family="Helvetica,sans-Serif" font-size="10.00" fill="#000000">MainWindow::on_treeView</text>
<text text-anchor="middle" x="174.5" y="-133.5" font-family="Helvetica,sans-Serif" font-size="10.00" fill="#000000">_clicked</text>
</a>
</g>
</g>
<!-- Node312&#45;&gt;Node313 -->
<g id="edge1" class="edge">
<title>Node312&#45;&gt;Node313</title>
<path fill="none" stroke="#191970" d="M64.3758,-92.3322C77.137,-98.2948 92.2767,-105.3066 106,-111.5 116.8869,-116.4133 128.7956,-121.6697 139.5857,-126.388"/>
<polygon fill="#191970" stroke="#191970" points="65.6841,-89.0801 55.1436,-88.008 62.7149,-95.4192 65.6841,-89.0801"/>
</g>
<!-- Node317 -->
<g id="node6" class="node">
<title>Node317</title>
<g id="a_node6"><a xlink:href="class_main_window.html#a9c4f542263838b9ecd06eae839a42a34" target="_top" xlink:title="MainWindow::keyPressEvent did anyone press return, enter or escape? ">
<polygon fill="none" stroke="#000000" points="279,-91 279,-110 425,-110 425,-91 279,-91"/>
<text text-anchor="middle" x="352" y="-98" font-family="Helvetica,sans-Serif" font-size="10.00" fill="#000000">MainWindow::keyPressEvent</text>
</a>
</g>
</g>
<!-- Node312&#45;&gt;Node317 -->
<g id="edge7" class="edge">
<title>Node312&#45;&gt;Node317</title>
<path fill="none" stroke="#191970" d="M80.3476,-81.6472C132.1713,-85.2438 217.7151,-91.1805 278.966,-95.4314"/>
<polygon fill="#191970" stroke="#191970" points="80.3541,-78.1393 70.1357,-80.9384 79.8694,-85.1225 80.3541,-78.1393"/>
</g>
<!-- Node318 -->
<g id="node7" class="node">
<title>Node318</title>
<g id="a_node7"><a xlink:href="class_pass.html#a8dfa731be7ac962f9f6a5cf8f29097ec" target="_top" xlink:title="Pass::~Pass">
<polygon fill="none" stroke="#000000" points="137.5,-50 137.5,-69 211.5,-69 211.5,-50 137.5,-50"/>
<text text-anchor="middle" x="174.5" y="-57" font-family="Helvetica,sans-Serif" font-size="10.00" fill="#000000">Pass::~Pass</text>
</a>
</g>
</g>
<!-- Node312&#45;&gt;Node318 -->
<g id="edge8" class="edge">
<title>Node312&#45;&gt;Node318</title>
<path fill="none" stroke="#191970" d="M80.1626,-72.3488C98.6525,-69.8305 119.786,-66.9521 137.357,-64.5589"/>
<polygon fill="#191970" stroke="#191970" points="79.6379,-68.8879 70.2017,-73.7055 80.5826,-75.8238 79.6379,-68.8879"/>
</g>
<!-- Node319 -->
<g id="node8" class="node">
<title>Node319</title>
<g id="a_node8"><a xlink:href="class_password_dialog.html#a1fd0289581d2b742470a3efae7db6154" target="_top" xlink:title="PasswordDialog::PasswordDialog complete constructor. ">
<polygon fill="none" stroke="#000000" points="106,-.5 106,-30.5 243,-30.5 243,-.5 106,-.5"/>
<text text-anchor="start" x="114" y="-18.5" font-family="Helvetica,sans-Serif" font-size="10.00" fill="#000000">PasswordDialog::Password</text>
<text text-anchor="middle" x="174.5" y="-7.5" font-family="Helvetica,sans-Serif" font-size="10.00" fill="#000000">Dialog</text>
</a>
</g>
</g>
<!-- Node312&#45;&gt;Node319 -->
<g id="edge9" class="edge">
<title>Node312&#45;&gt;Node319</title>
<path fill="none" stroke="#191970" d="M60.3589,-63.8C73.7118,-56.3501 90.4934,-47.4375 106,-40.5 113.7424,-37.0361 122.1242,-33.673 130.2803,-30.595"/>
<polygon fill="#191970" stroke="#191970" points="58.2913,-60.9483 51.3092,-68.917 61.7367,-67.0417 58.2913,-60.9483"/>
</g>
<!-- Node314 -->
<g id="node3" class="node">
<title>Node314</title>
<g id="a_node3"><a xlink:href="class_main_window.html#a9630f0fe0e0941a7996d68014f837ed5" target="_top" xlink:title="MainWindow::restoreWindow">
<polygon fill="none" stroke="#000000" points="280,-168 280,-187 424,-187 424,-168 280,-168"/>
<text text-anchor="middle" x="352" y="-175" font-family="Helvetica,sans-Serif" font-size="10.00" fill="#000000">MainWindow::restoreWindow</text>
</a>
</g>
</g>
<!-- Node313&#45;&gt;Node314 -->
<g id="edge2" class="edge">
<title>Node313&#45;&gt;Node314</title>
<path fill="none" stroke="#191970" d="M250.9178,-156.9988C269.292,-160.7254 288.3854,-164.5979 304.9647,-167.9604"/>
<polygon fill="#191970" stroke="#191970" points="251.5956,-153.5651 241.0995,-155.0075 250.2042,-160.4254 251.5956,-153.5651"/>
</g>
<!-- Node315 -->
<g id="node4" class="node">
<title>Node315</title>
<g id="a_node4"><a xlink:href="class_qt_pass.html#a49e2861160fdb8d614231933f60fac47" target="_top" xlink:title="QtPass::init make sure we are ready to go as soon as possible. ">
<polygon fill="none" stroke="#000000" points="461,-149 461,-168 529,-168 529,-149 461,-149"/>
<text text-anchor="middle" x="495" y="-156" font-family="Helvetica,sans-Serif" font-size="10.00" fill="#000000">QtPass::init</text>
</a>
</g>
</g>
<!-- Node313&#45;&gt;Node315 -->
<g id="edge6" class="edge">
<title>Node313&#45;&gt;Node315</title>
<path fill="none" stroke="#191970" d="M251.3358,-145.5755C317.9505,-149.1089 411.2289,-154.0566 460.8284,-156.6875"/>
<polygon fill="#191970" stroke="#191970" points="251.4686,-142.0777 241.2972,-145.0431 251.0977,-149.0679 251.4686,-142.0777"/>
</g>
<!-- Node313&#45;&gt;Node317 -->
<g id="edge5" class="edge">
<title>Node313&#45;&gt;Node317</title>
<path fill="none" stroke="#191970" d="M249.4437,-124.1891C270.3978,-119.349 292.4044,-114.2657 310.6361,-110.0545"/>
<polygon fill="#191970" stroke="#191970" points="248.5423,-120.805 239.5866,-126.4659 250.1177,-127.6255 248.5423,-120.805"/>
</g>
<!-- Node314&#45;&gt;Node315 -->
<g id="edge3" class="edge">
<title>Node314&#45;&gt;Node315</title>
<path fill="none" stroke="#191970" d="M433.8917,-166.6193C443.4024,-165.3556 452.6624,-164.1253 460.9792,-163.0202"/>
<polygon fill="#191970" stroke="#191970" points="433.3708,-163.1576 423.9189,-167.9443 434.2928,-170.0967 433.3708,-163.1576"/>
</g>
<!-- Node316 -->
<g id="node5" class="node">
<title>Node316</title>
<g id="a_node5"><a xlink:href="class_main_window.html#a52e97245b2f88492071e639395c4a15a" target="_top" xlink:title="MainWindow::MainWindow handles all of the main functionality and also the main window. ">
<polygon fill="none" stroke="#000000" points="565,-149 565,-168 700,-168 700,-149 565,-149"/>
<text text-anchor="middle" x="632.5" y="-156" font-family="Helvetica,sans-Serif" font-size="10.00" fill="#000000">MainWindow::MainWindow</text>
</a>
</g>
</g>
<!-- Node315&#45;&gt;Node316 -->
<g id="edge4" class="edge">
<title>Node315&#45;&gt;Node316</title>
<path fill="none" stroke="#191970" d="M539.6126,-158.5C547.6815,-158.5 556.2586,-158.5 564.8137,-158.5"/>
<polygon fill="#191970" stroke="#191970" points="539.3424,-155.0001 529.3424,-158.5 539.3423,-162.0001 539.3424,-155.0001"/>
</g>
</g>
</svg>
