<?xml version="1.0" encoding="UTF-8" standalone="no"?>
<!DOCTYPE svg PUBLIC "-//W3C//DTD SVG 1.1//EN"
 "http://www.w3.org/Graphics/SVG/1.1/DTD/svg11.dtd">
<!-- Generated by graphviz version 2.38.0 (20140413.2041)
 -->
<!-- Title: QtPassSettings::isUsePass Pages: 1 -->
<svg width="657pt" height="64pt"
 viewBox="0.00 0.00 657.41 64.00" xmlns="http://www.w3.org/2000/svg" xmlns:xlink="http://www.w3.org/1999/xlink">
<g id="graph0" class="graph" transform="scale(1 1) rotate(0) translate(4 60)">
<title>QtPassSettings::isUsePass</title>
<!-- Node327 -->
<g id="node1" class="node"><title>Node327</title>
<polygon fill="#bfbfbf" stroke="black" points="0,-19.5 0,-37.5 137.714,-37.5 137.714,-19.5 0,-19.5"/>
<text text-anchor="middle" x="68.8569" y="-25.5" font-family="Helvetica,sans-Serif" font-size="10.00">QtPassSettings::isUsePass</text>
</g>
<!-- Node328 -->
<g id="node2" class="node"><title>Node328</title>
<g id="a_node2"><a xlink:href="class_main_window.html#a23d2783cb61a373c4b0127970264290a" target="_top" xlink:title="MainWindow::checkConfig make sure we are ready to go as soon as possible. ">
<polygon fill="none" stroke="black" points="329.369,-37.5 329.369,-55.5 463.196,-55.5 463.196,-37.5 329.369,-37.5"/>
<text text-anchor="middle" x="396.282" y="-43.5" font-family="Helvetica,sans-Serif" font-size="10.00">MainWindow::checkConfig</text>
</a>
</g>
</g>
<!-- Node327&#45;&gt;Node328 -->
<g id="edge1" class="edge"><title>Node327&#45;&gt;Node328</title>
<path fill="none" stroke="midnightblue" d="M148.182,-32.8323C203.47,-35.8904 276.731,-39.9427 329.099,-42.8393"/>
<polygon fill="midnightblue" stroke="midnightblue" points="148.255,-29.3311 138.077,-32.2734 147.868,-36.3204 148.255,-29.3311"/>
</g>
<!-- Node330 -->
<g id="node4" class="node"><title>Node330</title>
<g id="a_node4"><a xlink:href="class_main_window.html#aeb8091ab5531144b76c1fbb0d63deb56" target="_top" xlink:title="MainWindow::config pops up the configuration screen and handles all inter&#45;window communication. ">
<polygon fill="none" stroke="black" points="173.714,-0.5 173.714,-18.5 279.196,-18.5 279.196,-0.5 173.714,-0.5"/>
<text text-anchor="middle" x="226.455" y="-6.5" font-family="Helvetica,sans-Serif" font-size="10.00">MainWindow::config</text>
</a>
</g>
</g>
<!-- Node327&#45;&gt;Node330 -->
<g id="edge3" class="edge"><title>Node327&#45;&gt;Node330</title>
<path fill="none" stroke="midnightblue" d="M148.21,-18.9323C156.837,-17.879 165.454,-16.8267 173.638,-15.8273"/>
<polygon fill="midnightblue" stroke="midnightblue" points="147.607,-15.48 138.105,-20.1663 148.455,-22.4283 147.607,-15.48"/>
</g>
<!-- Node329 -->
<g id="node3" class="node"><title>Node329</title>
<g id="a_node3"><a xlink:href="class_main_window.html#a8b244be8b7b7db1b08de2a2acb9409db" target="_top" xlink:title="MainWindow::MainWindow handles all of the main functionality and also the main window. ">
<polygon fill="none" stroke="black" points="513.368,-37.5 513.368,-55.5 649.407,-55.5 649.407,-37.5 513.368,-37.5"/>
<text text-anchor="middle" x="581.388" y="-43.5" font-family="Helvetica,sans-Serif" font-size="10.00">MainWindow::MainWindow</text>
</a>
</g>
</g>
<!-- Node328&#45;&gt;Node329 -->
<g id="edge2" class="edge"><title>Node328&#45;&gt;Node329</title>
<path fill="none" stroke="midnightblue" d="M473.762,-46.5C486.838,-46.5 500.336,-46.5 513.148,-46.5"/>
<polygon fill="midnightblue" stroke="midnightblue" points="473.388,-43.0001 463.388,-46.5 473.387,-50.0001 473.388,-43.0001"/>
</g>
<!-- Node330&#45;&gt;Node328 -->
<g id="edge4" class="edge"><title>Node330&#45;&gt;Node328</title>
<path fill="none" stroke="midnightblue" d="M278.299,-20.7093C302.657,-26.0794 331.44,-32.4251 354.36,-37.4782"/>
<polygon fill="midnightblue" stroke="midnightblue" points="279.029,-17.2863 268.51,-18.5512 277.522,-24.1222 279.029,-17.2863"/>
</g>
<!-- Node331 -->
<g id="node5" class="node"><title>Node331</title>
<g id="a_node5"><a xlink:href="class_main_window.html#a4680b2cbcfd388683a98303f29c0f84f" target="_top" xlink:title="MainWindow::executePassGitInit git init wrapper. ">
<polygon fill="none" stroke="black" points="315.196,-0.5 315.196,-18.5 477.368,-18.5 477.368,-0.5 315.196,-0.5"/>
<text text-anchor="middle" x="396.282" y="-6.5" font-family="Helvetica,sans-Serif" font-size="10.00">MainWindow::executePassGitInit</text>
</a>
</g>
</g>
<!-- Node330&#45;&gt;Node331 -->
<g id="edge5" class="edge"><title>Node330&#45;&gt;Node331</title>
<path fill="none" stroke="midnightblue" d="M289.874,-9.5C298.101,-9.5 306.624,-9.5 315.096,-9.5"/>
<polygon fill="midnightblue" stroke="midnightblue" points="289.637,-6.0001 279.637,-9.5 289.637,-13.0001 289.637,-6.0001"/>
</g>
<!-- Node332 -->
<g id="node6" class="node"><title>Node332</title>
<g id="a_node6"><a xlink:href="class_config_dialog.html#ad5b80066591f19fdaaa06b7cb5ba7f15" target="_top" xlink:title="ConfigDialog::wizard first&#45;time use wizard. ">
<polygon fill="none" stroke="black" points="527.533,-0.5 527.533,-18.5 635.242,-18.5 635.242,-0.5 527.533,-0.5"/>
<text text-anchor="middle" x="581.388" y="-6.5" font-family="Helvetica,sans-Serif" font-size="10.00">ConfigDialog::wizard</text>
</a>
</g>
</g>
<!-- Node331&#45;&gt;Node332 -->
<g id="edge6" class="edge"><title>Node331&#45;&gt;Node332</title>
<path fill="none" stroke="midnightblue" d="M487.886,-9.5C501.376,-9.5 514.894,-9.5 527.268,-9.5"/>
<polygon fill="midnightblue" stroke="midnightblue" points="487.595,-6.0001 477.595,-9.5 487.595,-13.0001 487.595,-6.0001"/>
</g>
</g>
</svg>
