<?xml version="1.0" encoding="UTF-8" standalone="no"?>
<!DOCTYPE svg PUBLIC "-//W3C//DTD SVG 1.1//EN"
 "http://www.w3.org/Graphics/SVG/1.1/DTD/svg11.dtd">
<!-- Generated by graphviz version 2.40.1 (20161225.0304)
 -->
<!-- Title: QtPassSettings::getGpgExecutable Pages: 1 -->
<!--zoomable 263 -->
<svg id="main" version="1.1" xmlns="http://www.w3.org/2000/svg" xmlns:xlink="http://www.w3.org/1999/xlink" xml:space="preserve" onload="init(evt)">
<style type="text/css"><![CDATA[
.edge:hover path { stroke: red; }
.edge:hover polygon { stroke: red; fill: red; }
]]></style>
<script type="text/javascript"><![CDATA[
var edges = document.getElementsByTagName('g');
if (edges && edges.length) {
  for (var i=0;i<edges.length;i++) {
    if (edges[i].id.substr(0,4)=='edge') {
      edges[i].setAttribute('class','edge');
    }
  }
}
]]></script>
        <defs>
                <circle id="rim" cx="0" cy="0" r="7"/>
                <circle id="rim2" cx="0" cy="0" r="3.5"/>
                <g id="zoomPlus">
                        <use xlink:href="#rim" fill="#404040">
                                <set attributeName="fill" to="#808080" begin="zoomplus.mouseover" end="zoomplus.mouseout"/>
                        </use>
                        <path d="M-4,0h8M0,-4v8" fill="none" stroke="white" stroke-width="1.5" pointer-events="none"/>
                </g>
                <g id="zoomMin">
                        <use xlink:href="#rim" fill="#404040">
                                <set attributeName="fill" to="#808080" begin="zoomminus.mouseover" end="zoomminus.mouseout"/>
                        </use>
                        <path d="M-4,0h8" fill="none" stroke="white" stroke-width="1.5" pointer-events="none"/>
                </g>
                <g id="dirArrow">
                        <path fill="none" stroke="white" stroke-width="1.5" d="M0,-3.0v7 M-2.5,-0.5L0,-3.0L2.5,-0.5"/>
                </g>
               <g id="resetDef">
                       <use xlink:href="#rim2" fill="#404040">
                               <set attributeName="fill" to="#808080" begin="reset.mouseover" end="reset.mouseout"/>
                       </use>
               </g>
        </defs>

<script type="text/javascript">
var viewWidth = 928;
var viewHeight = 263;
var sectionId = 'dynsection-5';
</script>
<script xlink:href="svgpan.js"/>
<svg id="graph" class="graph">
<g id="viewport">
<title>QtPassSettings::getGpgExecutable</title>
<!-- Node39 -->
<g id="node1" class="node">
<title>Node39</title>
<polygon fill="#bfbfbf" stroke="#000000" points="0,-124.7683 0,-142.7683 172.7578,-142.7683 172.7578,-124.7683 0,-124.7683"/>
<text text-anchor="middle" x="86.3789" y="-130.7683" font-family="Helvetica,sans-Serif" font-size="10.00" fill="#000000">QtPassSettings::getGpgExecutable</text>
</g>
<!-- Node40 -->
<g id="node2" class="node">
<title>Node40</title>
<g id="a_node2"><a xlink:href="class_imitate_pass.html#a8670f6326e3dfe0018a0737fba27da2f" target="_top" xlink:title="ImitatePass::reencryptPath reencrypt all files under the chosen directory. ">
<polygon fill="none" stroke="#000000" points="208.7578,-199.7683 208.7578,-217.7683 344.8115,-217.7683 344.8115,-199.7683 208.7578,-199.7683"/>
<text text-anchor="middle" x="276.7847" y="-205.7683" font-family="Helvetica,sans-Serif" font-size="10.00" fill="#000000">ImitatePass::reencryptPath</text>
</a>
</g>
</g>
<!-- Node39&#45;&gt;Node40 -->
<g id="edge1" class="edge">
<title>Node39&#45;&gt;Node40</title>
<path fill="none" stroke="#191970" d="M112.3664,-147.5202C136.7581,-160.0279 174.5152,-178.3742 208.7578,-190.7683 218.0626,-194.1361 228.2895,-197.1748 237.9236,-199.7554"/>
<polygon fill="#191970" stroke="#191970" points="113.8883,-144.3668 103.399,-142.8754 110.6688,-150.5826 113.8883,-144.3668"/>
</g>
<!-- Node42 -->
<g id="node4" class="node">
<title>Node42</title>
<g id="a_node4"><a xlink:href="class_imitate_pass.html#a6db1849662fe03e61f9410fce080890d" target="_top" xlink:title="ImitatePass::Copy">
<polygon fill="none" stroke="#000000" points="228.2134,-236.7683 228.2134,-254.7683 325.356,-254.7683 325.356,-236.7683 228.2134,-236.7683"/>
<text text-anchor="middle" x="276.7847" y="-242.7683" font-family="Helvetica,sans-Serif" font-size="10.00" fill="#000000">ImitatePass::Copy</text>
</a>
</g>
</g>
<!-- Node39&#45;&gt;Node42 -->
<g id="edge3" class="edge">
<title>Node39&#45;&gt;Node42</title>
<path fill="none" stroke="#191970" d="M102.9109,-149.991C125.1527,-170.9367 166.7873,-207.1394 208.7578,-227.7683 216.1036,-231.3788 224.264,-234.3324 232.3094,-236.7256"/>
<polygon fill="#191970" stroke="#191970" points="105.2736,-147.4076 95.6292,-143.0216 100.4334,-152.4646 105.2736,-147.4076"/>
</g>
<!-- Node43 -->
<g id="node5" class="node">
<title>Node43</title>
<g id="a_node5"><a xlink:href="class_main_window.html#a23d2783cb61a373c4b0127970264290a" target="_top" xlink:title="MainWindow::checkConfig make sure we are ready to go as soon as possible. ">
<polygon fill="none" stroke="#000000" points="584.2739,-10.7683 584.2739,-28.7683 718.1011,-28.7683 718.1011,-10.7683 584.2739,-10.7683"/>
<text text-anchor="middle" x="651.1875" y="-16.7683" font-family="Helvetica,sans-Serif" font-size="10.00" fill="#000000">MainWindow::checkConfig</text>
</a>
</g>
</g>
<!-- Node39&#45;&gt;Node43 -->
<g id="edge5" class="edge">
<title>Node39&#45;&gt;Node43</title>
<path fill="none" stroke="#191970" d="M101.4293,-117.3353C122.8513,-95.1641 164.4759,-56.419 208.7578,-38.7683 339.2727,13.2547 508.912,.6852 595.3052,-10.7671"/>
<polygon fill="#191970" stroke="#191970" points="98.809,-115.0123 94.4835,-124.684 103.8962,-119.8206 98.809,-115.0123"/>
</g>
<!-- Node45 -->
<g id="node7" class="node">
<title>Node45</title>
<g id="a_node7"><a xlink:href="class_main_window.html#aeb8091ab5531144b76c1fbb0d63deb56" target="_top" xlink:title="MainWindow::config pops up the configuration screen and handles all inter&#45;window communication. ">
<polygon fill="none" stroke="#000000" points="404.7153,-48.7683 404.7153,-66.7683 510.1978,-66.7683 510.1978,-48.7683 404.7153,-48.7683"/>
<text text-anchor="middle" x="457.4565" y="-54.7683" font-family="Helvetica,sans-Serif" font-size="10.00" fill="#000000">MainWindow::config</text>
</a>
</g>
</g>
<!-- Node39&#45;&gt;Node45 -->
<g id="edge7" class="edge">
<title>Node39&#45;&gt;Node45</title>
<path fill="none" stroke="#191970" d="M140.4326,-122.6976C214.2857,-107.5718 345.3154,-80.7358 413.4892,-66.7732"/>
<polygon fill="#191970" stroke="#191970" points="139.4979,-119.3163 130.4036,-124.7516 140.9025,-126.174 139.4979,-119.3163"/>
</g>
<!-- Node48 -->
<g id="node10" class="node">
<title>Node48</title>
<g id="a_node10"><a xlink:href="class_pass.html#a0c29f7bd4ca235d00d9dac6a37e14f4f" target="_top" xlink:title="Pass::GenerateGPGKeys internal gpg keypair generator . . ">
<polygon fill="none" stroke="#000000" points="211.8145,-162.7683 211.8145,-180.7683 341.7549,-180.7683 341.7549,-162.7683 211.8145,-162.7683"/>
<text text-anchor="middle" x="276.7847" y="-168.7683" font-family="Helvetica,sans-Serif" font-size="10.00" fill="#000000">Pass::GenerateGPGKeys</text>
</a>
</g>
</g>
<!-- Node39&#45;&gt;Node48 -->
<g id="edge11" class="edge">
<title>Node39&#45;&gt;Node48</title>
<path fill="none" stroke="#191970" d="M141.3637,-144.7418C170.0072,-150.4583 204.6018,-157.3625 231.6555,-162.7617"/>
<polygon fill="#191970" stroke="#191970" points="141.9941,-141.2987 131.5024,-142.7738 140.624,-148.1633 141.9941,-141.2987"/>
</g>
<!-- Node53 -->
<g id="node15" class="node">
<title>Node53</title>
<g id="a_node15"><a xlink:href="class_pass.html#a451b0f52aa0332801252ae28665e29b3" target="_top" xlink:title="Pass::listKeys list users. ">
<polygon fill="none" stroke="#000000" points="237.6641,-124.7683 237.6641,-142.7683 315.9053,-142.7683 315.9053,-124.7683 237.6641,-124.7683"/>
<text text-anchor="middle" x="276.7847" y="-130.7683" font-family="Helvetica,sans-Serif" font-size="10.00" fill="#000000">Pass::listKeys</text>
</a>
</g>
</g>
<!-- Node39&#45;&gt;Node53 -->
<g id="edge16" class="edge">
<title>Node39&#45;&gt;Node53</title>
<path fill="none" stroke="#191970" d="M183.0343,-133.7683C202.3441,-133.7683 221.5743,-133.7683 237.5462,-133.7683"/>
<polygon fill="#191970" stroke="#191970" points="182.946,-130.2684 172.946,-133.7683 182.946,-137.2684 182.946,-130.2684"/>
</g>
<!-- Node56 -->
<g id="node18" class="node">
<title>Node56</title>
<g id="a_node18"><a xlink:href="class_util.html#a00c91095ca10b233e45eb643ff6097a4" target="_top" xlink:title="Util::checkConfig do we have prequisite settings? ">
<polygon fill="none" stroke="#000000" points="231.27,-48.7683 231.27,-66.7683 322.2993,-66.7683 322.2993,-48.7683 231.27,-48.7683"/>
<text text-anchor="middle" x="276.7847" y="-54.7683" font-family="Helvetica,sans-Serif" font-size="10.00" fill="#000000">Util::checkConfig</text>
</a>
</g>
</g>
<!-- Node39&#45;&gt;Node56 -->
<g id="edge22" class="edge">
<title>Node39&#45;&gt;Node56</title>
<path fill="none" stroke="#191970" d="M115.7444,-120.6788C140.4034,-109.8352 176.6531,-94.2383 208.7578,-81.7683 222.1829,-76.5538 237.274,-71.181 249.8252,-66.8445"/>
<polygon fill="#191970" stroke="#191970" points="114.3085,-117.4868 106.5739,-124.7274 117.1357,-123.8905 114.3085,-117.4868"/>
</g>
<!-- Node41 -->
<g id="node3" class="node">
<title>Node41</title>
<g id="a_node3"><a xlink:href="class_imitate_pass.html#af4d70979dc11ccdee6cec699fb20d942" target="_top" xlink:title="ImitatePass::~ImitatePass">
<polygon fill="none" stroke="#000000" points="391.5171,-236.7683 391.5171,-254.7683 523.396,-254.7683 523.396,-236.7683 391.5171,-236.7683"/>
<text text-anchor="middle" x="457.4565" y="-242.7683" font-family="Helvetica,sans-Serif" font-size="10.00" fill="#000000">ImitatePass::~ImitatePass</text>
</a>
</g>
</g>
<!-- Node40&#45;&gt;Node41 -->
<g id="edge2" class="edge">
<title>Node40&#45;&gt;Node41</title>
<path fill="none" stroke="#191970" d="M330.822,-219.8347C357.1907,-225.2347 388.5089,-231.6484 413.4028,-236.7465"/>
<polygon fill="#191970" stroke="#191970" points="331.4809,-216.397 320.982,-217.8195 330.0764,-223.2547 331.4809,-216.397"/>
</g>
<!-- Node42&#45;&gt;Node41 -->
<g id="edge4" class="edge">
<title>Node42&#45;&gt;Node41</title>
<path fill="none" stroke="#191970" d="M335.8641,-245.7683C353.5656,-245.7683 373.0935,-245.7683 391.2239,-245.7683"/>
<polygon fill="#191970" stroke="#191970" points="335.6771,-242.2684 325.6771,-245.7683 335.677,-249.2684 335.6771,-242.2684"/>
</g>
<!-- Node44 -->
<g id="node6" class="node">
<title>Node44</title>
<g id="a_node6"><a xlink:href="class_main_window.html#a8b244be8b7b7db1b08de2a2acb9409db" target="_top" xlink:title="MainWindow::MainWindow handles all of the main functionality and also the main window. ">
<polygon fill="none" stroke="#000000" points="776.2178,-10.7683 776.2178,-28.7683 912.2568,-28.7683 912.2568,-10.7683 776.2178,-10.7683"/>
<text text-anchor="middle" x="844.2373" y="-16.7683" font-family="Helvetica,sans-Serif" font-size="10.00" fill="#000000">MainWindow::MainWindow</text>
</a>
</g>
</g>
<!-- Node43&#45;&gt;Node44 -->
<g id="edge6" class="edge">
<title>Node43&#45;&gt;Node44</title>
<path fill="none" stroke="#191970" d="M728.4028,-19.7683C744.1672,-19.7683 760.648,-19.7683 776.0691,-19.7683"/>
<polygon fill="#191970" stroke="#191970" points="728.1652,-16.2684 718.1652,-19.7683 728.1651,-23.2684 728.1652,-16.2684"/>
</g>
<!-- Node45&#45;&gt;Node43 -->
<g id="edge8" class="edge">
<title>Node45&#45;&gt;Node43</title>
<path fill="none" stroke="#191970" d="M513.4015,-46.7948C542.5453,-41.0783 577.7441,-34.1741 605.2702,-28.7749"/>
<polygon fill="#191970" stroke="#191970" points="512.5074,-43.4034 503.3681,-48.7628 513.8548,-50.2725 512.5074,-43.4034"/>
</g>
<!-- Node46 -->
<g id="node8" class="node">
<title>Node46</title>
<g id="a_node8"><a xlink:href="class_main_window.html#a4680b2cbcfd388683a98303f29c0f84f" target="_top" xlink:title="MainWindow::executePassGitInit git init wrapper. ">
<polygon fill="none" stroke="#000000" points="570.1016,-49.7683 570.1016,-67.7683 732.2734,-67.7683 732.2734,-49.7683 570.1016,-49.7683"/>
<text text-anchor="middle" x="651.1875" y="-55.7683" font-family="Helvetica,sans-Serif" font-size="10.00" fill="#000000">MainWindow::executePassGitInit</text>
</a>
</g>
</g>
<!-- Node45&#45;&gt;Node46 -->
<g id="edge9" class="edge">
<title>Node45&#45;&gt;Node46</title>
<path fill="none" stroke="#191970" d="M520.5369,-58.0939C536.3019,-58.1753 553.4319,-58.2637 569.9403,-58.3489"/>
<polygon fill="#191970" stroke="#191970" points="520.4123,-54.5933 510.3944,-58.0415 520.3761,-61.5932 520.4123,-54.5933"/>
</g>
<!-- Node47 -->
<g id="node9" class="node">
<title>Node47</title>
<g id="a_node9"><a xlink:href="class_config_dialog.html#ad5b80066591f19fdaaa06b7cb5ba7f15" target="_top" xlink:title="ConfigDialog::wizard first&#45;time use wizard. ">
<polygon fill="none" stroke="#000000" points="790.3828,-86.7683 790.3828,-104.7683 898.0918,-104.7683 898.0918,-86.7683 790.3828,-86.7683"/>
<text text-anchor="middle" x="844.2373" y="-92.7683" font-family="Helvetica,sans-Serif" font-size="10.00" fill="#000000">ConfigDialog::wizard</text>
</a>
</g>
</g>
<!-- Node46&#45;&gt;Node47 -->
<g id="edge10" class="edge">
<title>Node46&#45;&gt;Node47</title>
<path fill="none" stroke="#191970" d="M708.5549,-69.7634C736.8073,-75.1782 770.4489,-81.626 797.1654,-86.7465"/>
<polygon fill="#191970" stroke="#191970" points="708.8929,-66.2645 698.4128,-67.8195 707.5752,-73.1394 708.8929,-66.2645"/>
</g>
<!-- Node49 -->
<g id="node11" class="node">
<title>Node49</title>
<g id="a_node11"><a xlink:href="class_main_window.html#adcd6afb4bbea0fc89cf5b5b51e387935" target="_top" xlink:title="MainWindow::generateKeyPair internal gpg keypair generator . . ">
<polygon fill="none" stroke="#000000" points="380.8115,-199.7683 380.8115,-217.7683 534.1016,-217.7683 534.1016,-199.7683 380.8115,-199.7683"/>
<text text-anchor="middle" x="457.4565" y="-205.7683" font-family="Helvetica,sans-Serif" font-size="10.00" fill="#000000">MainWindow::generateKeyPair</text>
</a>
</g>
</g>
<!-- Node48&#45;&gt;Node49 -->
<g id="edge12" class="edge">
<title>Node48&#45;&gt;Node49</title>
<path fill="none" stroke="#191970" d="M330.822,-182.8347C357.1907,-188.2347 388.5089,-194.6484 413.4028,-199.7465"/>
<polygon fill="#191970" stroke="#191970" points="331.4809,-179.397 320.982,-180.8195 330.0764,-186.2547 331.4809,-179.397"/>
</g>
<!-- Node52 -->
<g id="node14" class="node">
<title>Node52</title>
<g id="a_node14"><a xlink:href="class_pass.html#a8dfa731be7ac962f9f6a5cf8f29097ec" target="_top" xlink:title="Pass::~Pass">
<polygon fill="none" stroke="#000000" points="421.5269,-162.7683 421.5269,-180.7683 493.3862,-180.7683 493.3862,-162.7683 421.5269,-162.7683"/>
<text text-anchor="middle" x="457.4565" y="-168.7683" font-family="Helvetica,sans-Serif" font-size="10.00" fill="#000000">Pass::~Pass</text>
</a>
</g>
</g>
<!-- Node48&#45;&gt;Node52 -->
<g id="edge15" class="edge">
<title>Node48&#45;&gt;Node52</title>
<path fill="none" stroke="#191970" d="M351.9409,-171.7683C375.9641,-171.7683 401.4617,-171.7683 421.3736,-171.7683"/>
<polygon fill="#191970" stroke="#191970" points="351.7561,-168.2684 341.7561,-171.7683 351.7561,-175.2684 351.7561,-168.2684"/>
</g>
<!-- Node50 -->
<g id="node12" class="node">
<title>Node50</title>
<g id="a_node12"><a xlink:href="class_config_dialog.html#a428d1f1b69aaaf09343e3d8db42ed138" target="_top" xlink:title="ConfigDialog::genKey tunnel function to make MainWindow generate a gpg key pair. ">
<polygon fill="none" stroke="#000000" points="594.8232,-199.7683 594.8232,-217.7683 707.5518,-217.7683 707.5518,-199.7683 594.8232,-199.7683"/>
<text text-anchor="middle" x="651.1875" y="-205.7683" font-family="Helvetica,sans-Serif" font-size="10.00" fill="#000000">ConfigDialog::genKey</text>
</a>
</g>
</g>
<!-- Node49&#45;&gt;Node50 -->
<g id="edge13" class="edge">
<title>Node49&#45;&gt;Node50</title>
<path fill="none" stroke="#191970" d="M544.315,-208.7683C561.431,-208.7683 578.9683,-208.7683 594.7584,-208.7683"/>
<polygon fill="#191970" stroke="#191970" points="544.3024,-205.2684 534.3024,-208.7683 544.3024,-212.2684 544.3024,-205.2684"/>
</g>
<!-- Node51 -->
<g id="node13" class="node">
<title>Node51</title>
<g id="a_node13"><a xlink:href="class_keygen_dialog.html#a90b3a3db49016043ba160a50c5272643" target="_top" xlink:title="KeygenDialog::~KeygenDialog even more basic destructor. ">
<polygon fill="none" stroke="#000000" points="768.2734,-199.7683 768.2734,-217.7683 920.2012,-217.7683 920.2012,-199.7683 768.2734,-199.7683"/>
<text text-anchor="middle" x="844.2373" y="-205.7683" font-family="Helvetica,sans-Serif" font-size="10.00" fill="#000000">KeygenDialog::~KeygenDialog</text>
</a>
</g>
</g>
<!-- Node50&#45;&gt;Node51 -->
<g id="edge14" class="edge">
<title>Node50&#45;&gt;Node51</title>
<path fill="none" stroke="#191970" d="M718.2187,-208.7683C734.3664,-208.7683 751.7323,-208.7683 768.2561,-208.7683"/>
<polygon fill="#191970" stroke="#191970" points="717.8044,-205.2684 707.8044,-208.7683 717.8044,-212.2684 717.8044,-205.2684"/>
</g>
<!-- Node53&#45;&gt;Node52 -->
<g id="edge21" class="edge">
<title>Node53&#45;&gt;Node52</title>
<path fill="none" stroke="#191970" d="M325.8898,-144.0964C356.0488,-150.4396 394.0135,-158.4246 421.4002,-164.1847"/>
<polygon fill="#191970" stroke="#191970" points="326.4941,-140.647 315.9878,-142.0137 325.0533,-147.4971 326.4941,-140.647"/>
</g>
<!-- Node54 -->
<g id="node16" class="node">
<title>Node54</title>
<g id="a_node16"><a xlink:href="class_main_window.html#add7481e9707f309caba6b5d3a8c1ddc9" target="_top" xlink:title="MainWindow::userDialog see MainWindow::on_usersButton_clicked() ">
<polygon fill="none" stroke="#000000" points="587.8872,-124.7683 587.8872,-142.7683 714.4878,-142.7683 714.4878,-124.7683 587.8872,-124.7683"/>
<text text-anchor="middle" x="651.1875" y="-130.7683" font-family="Helvetica,sans-Serif" font-size="10.00" fill="#000000">MainWindow::userDialog</text>
</a>
</g>
</g>
<!-- Node53&#45;&gt;Node54 -->
<g id="edge17" class="edge">
<title>Node53&#45;&gt;Node54</title>
<path fill="none" stroke="#191970" d="M326.483,-133.7683C393.8249,-133.7683 514.0929,-133.7683 587.8415,-133.7683"/>
<polygon fill="#191970" stroke="#191970" points="326.1447,-130.2684 316.1447,-133.7683 326.1447,-137.2684 326.1447,-130.2684"/>
</g>
<!-- Node55 -->
<g id="node17" class="node">
<title>Node55</title>
<g id="a_node17"><a xlink:href="class_main_window.html#a38957de181a576efc28befeb7c47abec" target="_top" xlink:title="MainWindow::getSecretKeys get list of secret/private keys. ">
<polygon fill="none" stroke="#000000" points="579.2715,-86.7683 579.2715,-104.7683 723.1035,-104.7683 723.1035,-86.7683 579.2715,-86.7683"/>
<text text-anchor="middle" x="651.1875" y="-92.7683" font-family="Helvetica,sans-Serif" font-size="10.00" fill="#000000">MainWindow::getSecretKeys</text>
</a>
</g>
</g>
<!-- Node53&#45;&gt;Node55 -->
<g id="edge19" class="edge">
<title>Node53&#45;&gt;Node55</title>
<path fill="none" stroke="#191970" d="M326.4914,-128.7233C391.2606,-122.1496 504.9789,-110.6077 579.1859,-103.0761"/>
<polygon fill="#191970" stroke="#191970" points="325.7401,-125.2815 316.1447,-129.7734 326.447,-132.2457 325.7401,-125.2815"/>
</g>
<!-- Node54&#45;&gt;Node47 -->
<g id="edge18" class="edge">
<title>Node54&#45;&gt;Node47</title>
<path fill="none" stroke="#191970" d="M706.9358,-122.7948C735.9771,-117.0783 771.0521,-110.1741 798.4815,-104.7749"/>
<polygon fill="#191970" stroke="#191970" points="706.0733,-119.3973 696.9376,-124.7628 707.4253,-126.2655 706.0733,-119.3973"/>
</g>
<!-- Node55&#45;&gt;Node47 -->
<g id="edge20" class="edge">
<title>Node55&#45;&gt;Node47</title>
<path fill="none" stroke="#191970" d="M733.5882,-95.7683C752.7531,-95.7683 772.6773,-95.7683 790.2501,-95.7683"/>
<polygon fill="#191970" stroke="#191970" points="733.3467,-92.2684 723.3467,-95.7683 733.3466,-99.2684 733.3467,-92.2684"/>
</g>
<!-- Node56&#45;&gt;Node43 -->
<g id="edge23" class="edge">
<title>Node56&#45;&gt;Node43</title>
<path fill="none" stroke="#191970" d="M330.0151,-46.8774C346.2631,-43.8689 364.219,-40.8601 380.8115,-38.7683 449.7908,-30.0723 529.2099,-25.0851 584.041,-22.4224"/>
<polygon fill="#191970" stroke="#191970" points="329.3227,-43.4462 320.1466,-48.7423 330.6226,-50.3245 329.3227,-43.4462"/>
</g>
<!-- Node56&#45;&gt;Node45 -->
<g id="edge24" class="edge">
<title>Node56&#45;&gt;Node45</title>
<path fill="none" stroke="#191970" d="M332.6276,-57.7683C355.5302,-57.7683 381.9135,-57.7683 404.5078,-57.7683"/>
<polygon fill="#191970" stroke="#191970" points="332.3758,-54.2684 322.3758,-57.7683 332.3758,-61.2684 332.3758,-54.2684"/>
</g>
</g>
</svg>
        <g id="navigator" transform="translate(0 0)" fill="#404254">
                <rect fill="#f2f5e9" fill-opacity="0.5" stroke="#606060" stroke-width=".5" x="0" y="0" width="60" height="60"/>
                <use id="zoomplus" xlink:href="#zoomPlus" x="17" y="9" onmousedown="handleZoom(evt,'in')"/>
                <use id="zoomminus" xlink:href="#zoomMin" x="42" y="9" onmousedown="handleZoom(evt,'out')"/>
                <use id="reset" xlink:href="#resetDef" x="30" y="36" onmousedown="handleReset()"/>
                <g id="arrowUp" xlink:href="#dirArrow" transform="translate(30 24)" onmousedown="handlePan(0,-1)">
                  <use xlink:href="#rim" fill="#404040">
                        <set attributeName="fill" to="#808080" begin="arrowUp.mouseover" end="arrowUp.mouseout"/>
                  </use>
                  <path fill="none" stroke="white" stroke-width="1.5" d="M0,-3.0v7 M-2.5,-0.5L0,-3.0L2.5,-0.5"/>
                </g>
                <g id="arrowRight" xlink:href="#dirArrow" transform="rotate(90) translate(36 -43)" onmousedown="handlePan(1,0)">
                  <use xlink:href="#rim" fill="#404040">
                        <set attributeName="fill" to="#808080" begin="arrowRight.mouseover" end="arrowRight.mouseout"/>
                  </use>
                  <path fill="none" stroke="white" stroke-width="1.5" d="M0,-3.0v7 M-2.5,-0.5L0,-3.0L2.5,-0.5"/>
                </g>
                <g id="arrowDown" xlink:href="#dirArrow" transform="rotate(180) translate(-30 -48)" onmousedown="handlePan(0,1)">
                  <use xlink:href="#rim" fill="#404040">
                        <set attributeName="fill" to="#808080" begin="arrowDown.mouseover" end="arrowDown.mouseout"/>
                  </use>
                  <path fill="none" stroke="white" stroke-width="1.5" d="M0,-3.0v7 M-2.5,-0.5L0,-3.0L2.5,-0.5"/>
                </g>
                <g id="arrowLeft" xlink:href="#dirArrow" transform="rotate(270) translate(-36 17)" onmousedown="handlePan(-1,0)">
                  <use xlink:href="#rim" fill="#404040">
                        <set attributeName="fill" to="#808080" begin="arrowLeft.mouseover" end="arrowLeft.mouseout"/>
                  </use>
                  <path fill="none" stroke="white" stroke-width="1.5" d="M0,-3.0v7 M-2.5,-0.5L0,-3.0L2.5,-0.5"/>
                </g>
        </g>
        <svg viewBox="0 0 15 15" width="100%" height="30px" preserveAspectRatio="xMaxYMin meet">
         <g id="arrow_out" transform="scale(0.3 0.3)">
          <a xlink:href="class_qt_pass_settings_a92b674cdafc03000c808bff5fab93249_icgraph_org.svg" target="_base">
           <rect id="button" ry="5" rx="5" y="6" x="6" height="38" width="38"
                fill="#f2f5e9" fill-opacity="0.5" stroke="#606060" stroke-width="1.0"/>
           <path id="arrow"
             d="M 11.500037,31.436501 C 11.940474,20.09759 22.043105,11.32322 32.158766,21.979434 L 37.068811,17.246167 C 37.068811,17.246167 37.088388,32 37.088388,32 L 22.160133,31.978069 C 22.160133,31.978069 26.997745,27.140456 26.997745,27.140456 C 18.528582,18.264221 13.291696,25.230495 11.500037,31.436501 z"
             style="fill:#404040;"/>
          </a>
         </g>
        </svg>
</svg>
