<?xml version="1.0" encoding="UTF-8" standalone="no"?>
<!DOCTYPE svg PUBLIC "-//W3C//DTD SVG 1.1//EN"
 "http://www.w3.org/Graphics/SVG/1.1/DTD/svg11.dtd">
<!-- Generated by graphviz version 2.43.0 (0)
 -->
<!-- Title: TrayIcon::iconActivated Pages: 1 -->
<svg width="316pt" height="64pt"
 viewBox="0.00 0.00 316.00 64.00" xmlns="http://www.w3.org/2000/svg" xmlns:xlink="http://www.w3.org/1999/xlink">
<g id="graph0" class="graph" transform="scale(1 1) rotate(0) translate(4 60)">
<title>TrayIcon::iconActivated</title>
<!-- Node1 -->
<g id="Node000001" class="node">
<title>Node1</title>
<g id="a_Node000001"><a xlink:title="TrayIcon::iconActivated you clicked on the trayicon.">
<polygon fill="#999999" stroke="#666666" points="130,-37 0,-37 0,-18 130,-18 130,-37"/>
<text text-anchor="middle" x="65" y="-25" font-family="Helvetica,sans-Serif" font-size="10.00">TrayIcon::iconActivated</text>
</a>
</g>
</g>
<!-- Node2 -->
<g id="Node000002" class="node">
<title>Node2</title>
<g id="a_Node000002"><a xlink:href="class_tray_icon.html#a20f8b921d79beca21f6dcb98741d57fc" target="_top" xlink:title="TrayIcon::showHideParent toggle app visibility.">
<polygon fill="white" stroke="#666666" points="308,-56 166,-56 166,-37 308,-37 308,-56"/>
<text text-anchor="middle" x="237" y="-44" font-family="Helvetica,sans-Serif" font-size="10.00">TrayIcon::showHideParent</text>
</a>
</g>
</g>
<!-- Node1&#45;&gt;Node2 -->
<g id="edge1_Node000001_Node000002" class="edge">
<title>Node1&#45;&gt;Node2</title>
<g id="a_edge1_Node000001_Node000002"><a xlink:title=" ">
<path fill="none" stroke="#63b8ff" d="M130.27,-34.68C138.65,-35.62 147.32,-36.59 155.92,-37.55"/>
<polygon fill="#63b8ff" stroke="#63b8ff" points="155.63,-41.04 165.96,-38.67 156.41,-34.08 155.63,-41.04"/>
</a>
</g>
</g>
<!-- Node3 -->
<g id="Node000003" class="node">
<title>Node3</title>
<g id="a_Node000003"><a xlink:href="class_tray_icon.html#a40737136f8d85dad4a10ddb58619157a" target="_top" xlink:title="TrayIcon::showMessage show a systray message for notification.">
<polygon fill="white" stroke="#666666" points="303,-19 171,-19 171,0 303,0 303,-19"/>
<text text-anchor="middle" x="237" y="-7" font-family="Helvetica,sans-Serif" font-size="10.00">TrayIcon::showMessage</text>
</a>
</g>
</g>
<!-- Node1&#45;&gt;Node3 -->
<g id="edge2_Node000001_Node000003" class="edge">
<title>Node1&#45;&gt;Node3</title>
<g id="a_edge2_Node000001_Node000003"><a xlink:title=" ">
<path fill="none" stroke="#63b8ff" d="M130.27,-20.69C140.21,-19.64 150.56,-18.55 160.72,-17.47"/>
<polygon fill="#63b8ff" stroke="#63b8ff" points="161.22,-20.94 170.79,-16.4 160.48,-13.98 161.22,-20.94"/>
</a>
</g>
</g>
</g>
</svg>
