<?xml version="1.0" encoding="UTF-8" standalone="no"?>
<!DOCTYPE svg PUBLIC "-//W3C//DTD SVG 1.1//EN"
 "http://www.w3.org/Graphics/SVG/1.1/DTD/svg11.dtd">
<!-- Generated by graphviz version 2.38.0 (20140413.2041)
 -->
<!-- Title: RealPass Pages: 1 -->
<svg width="105pt" height="204pt"
 viewBox="0.00 0.00 105.13 204.00" xmlns="http://www.w3.org/2000/svg" xmlns:xlink="http://www.w3.org/1999/xlink">
<g id="graph0" class="graph" transform="scale(1 1) rotate(0) translate(4 200)">
<title>RealPass</title>
<!-- Node3 -->
<g id="node1" class="node"><title>Node3</title>
<polygon fill="#bfbfbf" stroke="black" points="0,-0.5 0,-18.5 58.7979,-18.5 58.7979,-0.5 0,-0.5"/>
<text text-anchor="middle" x="29.3989" y="-6.5" font-family="Helvetica,sans-Serif" font-size="10.00">RealPass</text>
</g>
<!-- Node4 -->
<g id="node2" class="node"><title>Node4</title>
<g id="a_node2"><a xlink:href="class_pass.html" target="_top" xlink:title="Pass">
<polygon fill="none" stroke="black" points="10.2832,-56.5 10.2832,-74.5 48.5146,-74.5 48.5146,-56.5 10.2832,-56.5"/>
<text text-anchor="middle" x="29.3989" y="-62.5" font-family="Helvetica,sans-Serif" font-size="10.00">Pass</text>
</a>
</g>
</g>
<!-- Node4&#45;&gt;Node3 -->
<g id="edge1" class="edge"><title>Node4&#45;&gt;Node3</title>
<path fill="none" stroke="midnightblue" d="M29.3989,-45.8288C29.3989,-36.5774 29.3989,-25.8798 29.3989,-18.7014"/>
<polygon fill="midnightblue" stroke="midnightblue" points="25.899,-46.0625 29.3989,-56.0625 32.899,-46.0625 25.899,-46.0625"/>
</g>
<!-- Node5 -->
<g id="node3" class="node"><title>Node5</title>
<polygon fill="none" stroke="#bfbfbf" points="7.05908,-177.5 7.05908,-195.5 59.7388,-195.5 59.7388,-177.5 7.05908,-177.5"/>
<text text-anchor="middle" x="33.3989" y="-183.5" font-family="Helvetica,sans-Serif" font-size="10.00">QObject</text>
</g>
<!-- Node5&#45;&gt;Node4 -->
<g id="edge2" class="edge"><title>Node5&#45;&gt;Node4</title>
<path fill="none" stroke="midnightblue" d="M32.7843,-167.214C31.9024,-140.979 30.3142,-93.7306 29.6758,-74.7366"/>
<polygon fill="midnightblue" stroke="midnightblue" points="29.2899,-167.444 33.124,-177.321 36.286,-167.209 29.2899,-167.444"/>
</g>
<!-- Node6 -->
<g id="node4" class="node"><title>Node6</title>
<g id="a_node4"><a xlink:href="class_executor.html" target="_top" xlink:title="Executor">
<polygon fill="none" stroke="black" points="41.6675,-121.5 41.6675,-139.5 97.1304,-139.5 97.1304,-121.5 41.6675,-121.5"/>
<text text-anchor="middle" x="69.3989" y="-127.5" font-family="Helvetica,sans-Serif" font-size="10.00">Executor</text>
</a>
</g>
</g>
<!-- Node5&#45;&gt;Node6 -->
<g id="edge4" class="edge"><title>Node5&#45;&gt;Node6</title>
<path fill="none" stroke="midnightblue" d="M44.6399,-168.638C51.0633,-159.003 58.8302,-147.353 63.9313,-139.701"/>
<polygon fill="midnightblue" stroke="midnightblue" points="41.6588,-166.801 39.0239,-177.062 47.4832,-170.683 41.6588,-166.801"/>
</g>
<!-- Node6&#45;&gt;Node4 -->
<g id="edge3" class="edge"><title>Node6&#45;&gt;Node4</title>
<path fill="none" stroke="#9a32cd" stroke-dasharray="5,2" d="M58.7652,-112.752C50.9188,-100.394 40.588,-84.1227 34.503,-74.539"/>
<polygon fill="#9a32cd" stroke="#9a32cd" points="55.8547,-114.698 64.1696,-121.264 61.7642,-110.946 55.8547,-114.698"/>
<text text-anchor="middle" x="64.3496" y="-95" font-family="Helvetica,sans-Serif" font-size="10.00"> exec</text>
</g>
</g>
</svg>
