<?xml version="1.0" encoding="UTF-8" standalone="no"?>
<!DOCTYPE svg PUBLIC "-//W3C//DTD SVG 1.1//EN"
 "http://www.w3.org/Graphics/SVG/1.1/DTD/svg11.dtd">
<!-- Generated by graphviz version 2.40.1 (20161225.0304)
 -->
<!-- Title: PasswordDialog::PasswordDialog Pages: 1 -->
<svg width="906pt" height="508pt"
 viewBox="0.00 0.00 906.20 508.41" xmlns="http://www.w3.org/2000/svg" xmlns:xlink="http://www.w3.org/1999/xlink">
<g id="graph0" class="graph" transform="scale(1 1) rotate(0) translate(4 504.413)">
<title>PasswordDialog::PasswordDialog</title>
<!-- Node19 -->
<g id="node1" class="node">
<title>Node19</title>
<polygon fill="#bfbfbf" stroke="#000000" points="0,-213.5 0,-241.5 137.7188,-241.5 137.7188,-213.5 0,-213.5"/>
<text text-anchor="start" x="8" y="-229.5" font-family="Helvetica,sans-Serif" font-size="10.00" fill="#000000">PasswordDialog::Password</text>
<text text-anchor="middle" x="68.8594" y="-219.5" font-family="Helvetica,sans-Serif" font-size="10.00" fill="#000000">Dialog</text>
</g>
<!-- Node20 -->
<g id="node2" class="node">
<title>Node20</title>
<g id="a_node2"><a xlink:href="class_qt_pass_settings.html#a987e913eac7cd497e2fca27426494a64" target="_top" xlink:title="QtPassSettings::getPass">
<polygon fill="none" stroke="#000000" points="185.9429,-426.5 185.9429,-444.5 312.5532,-444.5 312.5532,-426.5 185.9429,-426.5"/>
<text text-anchor="middle" x="249.248" y="-432.5" font-family="Helvetica,sans-Serif" font-size="10.00" fill="#000000">QtPassSettings::getPass</text>
</a>
</g>
</g>
<!-- Node19&#45;&gt;Node20 -->
<g id="edge1" class="edge">
<title>Node19&#45;&gt;Node20</title>
<path fill="none" stroke="#191970" d="M72.3666,-241.5507C81.9833,-277.0329 112.2429,-370.7437 173.7188,-417.5 175.8311,-419.1066 178.0652,-420.5725 180.3899,-421.9099"/>
<polygon fill="#191970" stroke="#191970" points="179.2159,-425.2308 189.7395,-426.4569 182.2774,-418.9358 179.2159,-425.2308"/>
</g>
<!-- Node27 -->
<g id="node9" class="node">
<title>Node27</title>
<g id="a_node9"><a xlink:href="class_pass.html#a6520ffa669cd7934091934b24593d99c" target="_top" xlink:title="Pass::Show">
<polygon fill="none" stroke="#000000" points="214.8467,-389.5 214.8467,-407.5 283.6494,-407.5 283.6494,-389.5 214.8467,-389.5"/>
<text text-anchor="middle" x="249.248" y="-395.5" font-family="Helvetica,sans-Serif" font-size="10.00" fill="#000000">Pass::Show</text>
</a>
</g>
</g>
<!-- Node19&#45;&gt;Node27 -->
<g id="edge9" class="edge">
<title>Node19&#45;&gt;Node27</title>
<path fill="none" stroke="#191970" d="M75.0462,-241.532C88.6124,-270.6925 123.7969,-338.1453 173.7188,-374.5 182.9154,-381.1973 194.0508,-386.072 204.9132,-389.6029"/>
<polygon fill="#191970" stroke="#191970" points="204.168,-393.0315 214.7485,-392.4814 206.1342,-386.3133 204.168,-393.0315"/>
</g>
<!-- Node28 -->
<g id="node10" class="node">
<title>Node28</title>
<g id="a_node10"><a xlink:href="class_qt_pass_settings.html#a9da7174babd2f5cc433505f0fec82efc" target="_top" xlink:title="QtPassSettings::getPassword\lConfiguration">
<polygon fill="none" stroke="#000000" points="567.8506,-320.5 567.8506,-348.5 716.1357,-348.5 716.1357,-320.5 567.8506,-320.5"/>
<text text-anchor="start" x="575.8506" y="-336.5" font-family="Helvetica,sans-Serif" font-size="10.00" fill="#000000">QtPassSettings::getPassword</text>
<text text-anchor="middle" x="641.9932" y="-326.5" font-family="Helvetica,sans-Serif" font-size="10.00" fill="#000000">Configuration</text>
</a>
</g>
</g>
<!-- Node19&#45;&gt;Node28 -->
<g id="edge10" class="edge">
<title>Node19&#45;&gt;Node28</title>
<path fill="none" stroke="#191970" d="M76.6107,-241.8239C91.465,-267.5593 126.6872,-320.8587 173.7188,-341.5 309.1267,-400.9281 488.4867,-372.3827 581.0038,-350.8689"/>
<polygon fill="#191970" stroke="#191970" points="581.8447,-354.2666 590.7648,-348.5498 580.2266,-347.4562 581.8447,-354.2666"/>
</g>
<!-- Node29 -->
<g id="node11" class="node">
<title>Node29</title>
<g id="a_node11"><a xlink:href="class_password_dialog.html#abe02aee12f78e5914cf79162df9e77e4" target="_top" xlink:title="PasswordDialog::usePwgen PasswordDialog::usePwgen don&#39;t use own password generator. ">
<polygon fill="none" stroke="#000000" points="178.9922,-313.5 178.9922,-331.5 319.5039,-331.5 319.5039,-313.5 178.9922,-313.5"/>
<text text-anchor="middle" x="249.248" y="-319.5" font-family="Helvetica,sans-Serif" font-size="10.00" fill="#000000">PasswordDialog::usePwgen</text>
</a>
</g>
</g>
<!-- Node19&#45;&gt;Node29 -->
<g id="edge12" class="edge">
<title>Node19&#45;&gt;Node29</title>
<path fill="none" stroke="#191970" d="M86.4508,-241.7524C106.538,-257.4519 140.8791,-282.5788 173.7188,-298.5 183.1947,-303.0941 193.7559,-307.0865 203.9064,-310.4262"/>
<polygon fill="#191970" stroke="#191970" points="202.8744,-313.7706 213.4636,-313.4266 204.9711,-307.092 202.8744,-313.7706"/>
</g>
<!-- Node30 -->
<g id="node12" class="node">
<title>Node30</title>
<g id="a_node12"><a xlink:href="class_qt_pass_settings.html#a67e0ba5d6606e73b979daa774ccc1f72" target="_top" xlink:title="QtPassSettings::isUsePwgen">
<polygon fill="none" stroke="#000000" points="568.9639,-275.5 568.9639,-293.5 715.0225,-293.5 715.0225,-275.5 568.9639,-275.5"/>
<text text-anchor="middle" x="641.9932" y="-281.5" font-family="Helvetica,sans-Serif" font-size="10.00" fill="#000000">QtPassSettings::isUsePwgen</text>
</a>
</g>
</g>
<!-- Node19&#45;&gt;Node30 -->
<g id="edge13" class="edge">
<title>Node19&#45;&gt;Node30</title>
<path fill="none" stroke="#191970" d="M99.8019,-241.5635C120.3115,-250.1659 148.0693,-260.4577 173.7188,-265.5 306.4024,-291.5838 464.1677,-291.8082 558.5284,-288.7558"/>
<polygon fill="#191970" stroke="#191970" points="558.7125,-292.2516 568.5863,-288.4101 558.472,-285.2557 558.7125,-292.2516"/>
</g>
<!-- Node31 -->
<g id="node13" class="node">
<title>Node31</title>
<g id="a_node13"><a xlink:href="class_password_dialog.html#a522f673d65885edea46e3c514bb95f45" target="_top" xlink:title="Sets content in the template for the interface. ">
<polygon fill="none" stroke="#000000" points="175.3838,-237.5 175.3838,-255.5 323.1123,-255.5 323.1123,-237.5 175.3838,-237.5"/>
<text text-anchor="middle" x="249.248" y="-243.5" font-family="Helvetica,sans-Serif" font-size="10.00" fill="#000000">PasswordDialog::setTemplate</text>
</a>
</g>
</g>
<!-- Node19&#45;&gt;Node31 -->
<g id="edge15" class="edge">
<title>Node19&#45;&gt;Node31</title>
<path fill="none" stroke="#191970" d="M137.8287,-234.7644C146.7174,-235.7006 155.8975,-236.6676 164.9967,-237.626"/>
<polygon fill="#191970" stroke="#191970" points="164.9041,-241.1355 175.2157,-238.7023 165.6374,-234.174 164.9041,-241.1355"/>
</g>
<!-- Node32 -->
<g id="node14" class="node">
<title>Node32</title>
<g id="a_node14"><a xlink:href="class_qt_pass_settings.html#a3c0463005c07a4dc0384bf8e63696aa4" target="_top" xlink:title="QtPassSettings::getPassTemplate">
<polygon fill="none" stroke="#000000" points="360.7773,-218.5 360.7773,-236.5 527.9639,-236.5 527.9639,-218.5 360.7773,-218.5"/>
<text text-anchor="middle" x="444.3706" y="-224.5" font-family="Helvetica,sans-Serif" font-size="10.00" fill="#000000">QtPassSettings::getPassTemplate</text>
</a>
</g>
</g>
<!-- Node19&#45;&gt;Node32 -->
<g id="edge16" class="edge">
<title>Node19&#45;&gt;Node32</title>
<path fill="none" stroke="#191970" d="M137.7339,-227.5C197.4472,-227.5 284.4134,-227.5 350.4919,-227.5"/>
<polygon fill="#191970" stroke="#191970" points="350.4967,-231.0001 360.4966,-227.5 350.4966,-224.0001 350.4967,-231.0001"/>
</g>
<!-- Node33 -->
<g id="node15" class="node">
<title>Node33</title>
<g id="a_node15"><a xlink:href="class_qt_pass_settings.html#a106e2f75cc1dda481bdf253f640a9283" target="_top" xlink:title="QtPassSettings::isUseTemplate">
<polygon fill="none" stroke="#000000" points="563.9639,-184.5 563.9639,-202.5 720.0225,-202.5 720.0225,-184.5 563.9639,-184.5"/>
<text text-anchor="middle" x="641.9932" y="-190.5" font-family="Helvetica,sans-Serif" font-size="10.00" fill="#000000">QtPassSettings::isUseTemplate</text>
</a>
</g>
</g>
<!-- Node19&#45;&gt;Node33 -->
<g id="edge18" class="edge">
<title>Node19&#45;&gt;Node33</title>
<path fill="none" stroke="#191970" d="M137.8622,-223.1526C197.0108,-219.4482 284.4927,-214.022 360.7773,-209.5 425.3444,-205.6726 498.2617,-201.529 553.6646,-198.4177"/>
<polygon fill="#191970" stroke="#191970" points="554.0115,-201.9039 563.7998,-197.8491 553.6194,-194.9148 554.0115,-201.9039"/>
</g>
<!-- Node34 -->
<g id="node16" class="node">
<title>Node34</title>
<g id="a_node16"><a xlink:href="class_password_dialog.html#ac2af2ce4836edf9d5fda52d5ec66af82" target="_top" xlink:title="PasswordDialog::templateAll basic setter for use in PasswordDialog::setPassword templating all tokeni...">
<polygon fill="none" stroke="#000000" points="177.6079,-123.5 177.6079,-141.5 320.8882,-141.5 320.8882,-123.5 177.6079,-123.5"/>
<text text-anchor="middle" x="249.248" y="-129.5" font-family="Helvetica,sans-Serif" font-size="10.00" fill="#000000">PasswordDialog::templateAll</text>
</a>
</g>
</g>
<!-- Node19&#45;&gt;Node34 -->
<g id="edge20" class="edge">
<title>Node19&#45;&gt;Node34</title>
<path fill="none" stroke="#191970" d="M86.4508,-213.2476C106.538,-197.5481 140.8791,-172.4212 173.7188,-156.5 183.1947,-151.9059 193.7559,-147.9135 203.9064,-144.5738"/>
<polygon fill="#191970" stroke="#191970" points="204.9711,-147.908 213.4636,-141.5734 202.8744,-141.2294 204.9711,-147.908"/>
</g>
<!-- Node35 -->
<g id="node17" class="node">
<title>Node35</title>
<g id="a_node17"><a xlink:href="class_qt_pass_settings.html#a1e65645c63846fcf2d51897e76e6d0c0" target="_top" xlink:title="QtPassSettings::isTemplate\lAllFields">
<polygon fill="none" stroke="#000000" points="375.2329,-97.5 375.2329,-125.5 513.5083,-125.5 513.5083,-97.5 375.2329,-97.5"/>
<text text-anchor="start" x="383.2329" y="-113.5" font-family="Helvetica,sans-Serif" font-size="10.00" fill="#000000">QtPassSettings::isTemplate</text>
<text text-anchor="middle" x="444.3706" y="-103.5" font-family="Helvetica,sans-Serif" font-size="10.00" fill="#000000">AllFields</text>
</a>
</g>
</g>
<!-- Node19&#45;&gt;Node35 -->
<g id="edge21" class="edge">
<title>Node19&#45;&gt;Node35</title>
<path fill="none" stroke="#191970" d="M76.6672,-213.3481C91.6133,-187.9138 126.9793,-135.1999 173.7188,-114.5 233.7846,-87.8982 308.9598,-89.4556 364.8299,-96.3505"/>
<polygon fill="#191970" stroke="#191970" points="364.6578,-99.858 375.0294,-97.6944 365.5723,-92.9179 364.6578,-99.858"/>
</g>
<!-- Node36 -->
<g id="node18" class="node">
<title>Node36</title>
<g id="a_node18"><a xlink:href="class_password_dialog.html#ac865a161a2be2d4837761a1305a71db9" target="_top" xlink:title="PasswordDialog::setLength PasswordDialog::setLength password length. ">
<polygon fill="none" stroke="#000000" points="180.3789,-47.5 180.3789,-65.5 318.1172,-65.5 318.1172,-47.5 180.3789,-47.5"/>
<text text-anchor="middle" x="249.248" y="-53.5" font-family="Helvetica,sans-Serif" font-size="10.00" fill="#000000">PasswordDialog::setLength</text>
</a>
</g>
</g>
<!-- Node19&#45;&gt;Node36 -->
<g id="edge23" class="edge">
<title>Node19&#45;&gt;Node36</title>
<path fill="none" stroke="#191970" d="M75.0462,-213.468C88.6124,-184.3075 123.7969,-116.8547 173.7188,-80.5 180.0532,-75.8871 187.3074,-72.1388 194.7586,-69.0987"/>
<polygon fill="#191970" stroke="#191970" points="196.0667,-72.347 204.2478,-65.615 193.6542,-65.7758 196.0667,-72.347"/>
</g>
<!-- Node37 -->
<g id="node19" class="node">
<title>Node37</title>
<g id="a_node19"><a xlink:href="class_password_dialog.html#a19369fdb18d5b280aeadcd91245d9f6a" target="_top" xlink:title="PasswordDialog::setPasswordCharTemplate PasswordDialog::setPasswordCharTemplate chose the template st...">
<polygon fill="none" stroke="#000000" points="173.7188,-.5 173.7188,-28.5 324.7773,-28.5 324.7773,-.5 173.7188,-.5"/>
<text text-anchor="start" x="181.7188" y="-16.5" font-family="Helvetica,sans-Serif" font-size="10.00" fill="#000000">PasswordDialog::setPassword</text>
<text text-anchor="middle" x="249.248" y="-6.5" font-family="Helvetica,sans-Serif" font-size="10.00" fill="#000000">CharTemplate</text>
</a>
</g>
</g>
<!-- Node19&#45;&gt;Node37 -->
<g id="edge24" class="edge">
<title>Node19&#45;&gt;Node37</title>
<path fill="none" stroke="#191970" d="M72.6154,-213.4154C82.7211,-178.2617 113.8593,-86.01 173.7188,-37.5 175.3161,-36.2055 176.9857,-34.9837 178.7134,-33.8306"/>
<polygon fill="#191970" stroke="#191970" points="180.8501,-36.6392 187.7721,-28.6182 177.359,-30.5719 180.8501,-36.6392"/>
</g>
<!-- Node21 -->
<g id="node3" class="node">
<title>Node21</title>
<g id="a_node3"><a xlink:href="class_qt_pass_settings.html#a30ef36260f73f9f18d338f2b18a1f493" target="_top" xlink:title="QtPassSettings::isUsePass">
<polygon fill="none" stroke="#000000" points="573.1362,-456.5 573.1362,-474.5 710.8501,-474.5 710.8501,-456.5 573.1362,-456.5"/>
<text text-anchor="middle" x="641.9932" y="-462.5" font-family="Helvetica,sans-Serif" font-size="10.00" fill="#000000">QtPassSettings::isUsePass</text>
</a>
</g>
</g>
<!-- Node20&#45;&gt;Node21 -->
<g id="edge2" class="edge">
<title>Node20&#45;&gt;Node21</title>
<path fill="none" stroke="#191970" d="M262.1993,-444.5533C282.2239,-457.9394 322.4069,-482.4078 360.7773,-491.5 445.2153,-511.5083 547.3111,-491.4244 602.2916,-477.1203"/>
<polygon fill="#191970" stroke="#191970" points="603.237,-480.4905 611.9945,-474.5276 601.4299,-473.7278 603.237,-480.4905"/>
</g>
<!-- Node23 -->
<g id="node5" class="node">
<title>Node23</title>
<g id="a_node5"><a xlink:href="class_qt_pass_settings.html#aaaeff5fa2e3a6b1f815b9a8247339b3a" target="_top" xlink:title="QtPassSettings::getRealPass">
<polygon fill="none" stroke="#000000" points="370.7822,-463.5 370.7822,-481.5 517.959,-481.5 517.959,-463.5 370.7822,-463.5"/>
<text text-anchor="middle" x="444.3706" y="-469.5" font-family="Helvetica,sans-Serif" font-size="10.00" fill="#000000">QtPassSettings::getRealPass</text>
</a>
</g>
</g>
<!-- Node20&#45;&gt;Node23 -->
<g id="edge4" class="edge">
<title>Node20&#45;&gt;Node23</title>
<path fill="none" stroke="#191970" d="M296.7309,-444.5039C323.8753,-449.6512 358.1158,-456.144 386.7866,-461.5807"/>
<polygon fill="#191970" stroke="#191970" points="386.1978,-465.0313 396.6748,-463.4557 387.502,-458.1539 386.1978,-465.0313"/>
</g>
<!-- Node24 -->
<g id="node6" class="node">
<title>Node24</title>
<g id="a_node6"><a xlink:href="class_qt_pass_settings.html#a2d6c10abe565eaadb5a222501adfe31f" target="_top" xlink:title="QtPassSettings::getImitatePass">
<polygon fill="none" stroke="#000000" points="366.0605,-426.5 366.0605,-444.5 522.6807,-444.5 522.6807,-426.5 366.0605,-426.5"/>
<text text-anchor="middle" x="444.3706" y="-432.5" font-family="Helvetica,sans-Serif" font-size="10.00" fill="#000000">QtPassSettings::getImitatePass</text>
</a>
</g>
</g>
<!-- Node20&#45;&gt;Node24 -->
<g id="edge5" class="edge">
<title>Node20&#45;&gt;Node24</title>
<path fill="none" stroke="#191970" d="M312.5988,-435.5C326.432,-435.5 341.316,-435.5 355.9249,-435.5"/>
<polygon fill="#191970" stroke="#191970" points="355.9786,-439.0001 365.9786,-435.5 355.9786,-432.0001 355.9786,-439.0001"/>
</g>
<!-- Node25 -->
<g id="node7" class="node">
<title>Node25</title>
<g id="a_node7"><a xlink:href="class_pass.html#a012c47a55b3cc3467ad0f013716f623a" target="_top" xlink:title="Pass::init">
<polygon fill="none" stroke="#000000" points="416.085,-389.5 416.085,-407.5 472.6563,-407.5 472.6563,-389.5 416.085,-389.5"/>
<text text-anchor="middle" x="444.3706" y="-395.5" font-family="Helvetica,sans-Serif" font-size="10.00" fill="#000000">Pass::init</text>
</a>
</g>
</g>
<!-- Node20&#45;&gt;Node25 -->
<g id="edge6" class="edge">
<title>Node20&#45;&gt;Node25</title>
<path fill="none" stroke="#191970" d="M296.7309,-426.4961C330.2775,-420.1348 374.6622,-411.7184 405.9776,-405.7802"/>
<polygon fill="#191970" stroke="#191970" points="406.8892,-409.1698 416.0621,-403.868 405.5851,-402.2924 406.8892,-409.1698"/>
</g>
<!-- Node22 -->
<g id="node4" class="node">
<title>Node22</title>
<g id="a_node4"><a xlink:href="class_qt_pass_settings.html#ab83659fdbfb9069942e6982076b4b934" target="_top" xlink:title="QtPassSettings::getInstance">
<polygon fill="none" stroke="#000000" points="756.0225,-275.5 756.0225,-293.5 898.2041,-293.5 898.2041,-275.5 756.0225,-275.5"/>
<text text-anchor="middle" x="827.1133" y="-281.5" font-family="Helvetica,sans-Serif" font-size="10.00" fill="#000000">QtPassSettings::getInstance</text>
</a>
</g>
</g>
<!-- Node21&#45;&gt;Node22 -->
<g id="edge3" class="edge">
<title>Node21&#45;&gt;Node22</title>
<path fill="none" stroke="#191970" d="M657.2066,-456.3981C673.5744,-446.2475 699.9531,-428.8311 720.0225,-410.5 758.1576,-375.6678 795.5821,-327.5652 814.4609,-302.0466"/>
<polygon fill="#191970" stroke="#191970" points="817.4634,-303.8703 820.5442,-293.7333 811.8143,-299.7366 817.4634,-303.8703"/>
</g>
<!-- Node26 -->
<g id="node8" class="node">
<title>Node26</title>
<g id="a_node8"><a xlink:href="class_qt_pass_settings.html#ae3f04477e57019e329ed9944806ec1da" target="_top" xlink:title="QtPassSettings::getGpgHome">
<polygon fill="none" stroke="#000000" points="567.0156,-382.5 567.0156,-400.5 716.9707,-400.5 716.9707,-382.5 567.0156,-382.5"/>
<text text-anchor="middle" x="641.9932" y="-388.5" font-family="Helvetica,sans-Serif" font-size="10.00" fill="#000000">QtPassSettings::getGpgHome</text>
</a>
</g>
</g>
<!-- Node25&#45;&gt;Node26 -->
<g id="edge7" class="edge">
<title>Node25&#45;&gt;Node26</title>
<path fill="none" stroke="#191970" d="M472.6851,-397.4971C494.7393,-396.7159 526.57,-395.5884 556.6933,-394.5214"/>
<polygon fill="#191970" stroke="#191970" points="556.9572,-398.0144 566.827,-394.1625 556.7093,-391.0187 556.9572,-398.0144"/>
</g>
<!-- Node26&#45;&gt;Node22 -->
<g id="edge8" class="edge">
<title>Node26&#45;&gt;Node22</title>
<path fill="none" stroke="#191970" d="M666.8491,-382.4898C682.486,-376.4587 702.8774,-367.9195 720.0225,-358.5 752.2579,-340.7898 786.7891,-315.6894 807.6686,-299.7532"/>
<polygon fill="#191970" stroke="#191970" points="809.9533,-302.4112 815.7346,-293.5328 805.6785,-296.8681 809.9533,-302.4112"/>
</g>
<!-- Node28&#45;&gt;Node22 -->
<g id="edge11" class="edge">
<title>Node28&#45;&gt;Node22</title>
<path fill="none" stroke="#191970" d="M694.0521,-320.4392C722.4053,-312.7811 757.0743,-303.4172 783.9152,-296.1676"/>
<polygon fill="#191970" stroke="#191970" points="785.0481,-299.4871 793.7895,-293.5006 783.2228,-292.7292 785.0481,-299.4871"/>
</g>
<!-- Node30&#45;&gt;Node22 -->
<g id="edge14" class="edge">
<title>Node30&#45;&gt;Node22</title>
<path fill="none" stroke="#191970" d="M715.1575,-284.5C725.2386,-284.5 735.641,-284.5 745.8569,-284.5"/>
<polygon fill="#191970" stroke="#191970" points="745.9919,-288.0001 755.9919,-284.5 745.9919,-281.0001 745.9919,-288.0001"/>
</g>
<!-- Node32&#45;&gt;Node22 -->
<g id="edge17" class="edge">
<title>Node32&#45;&gt;Node22</title>
<path fill="none" stroke="#191970" d="M511.5651,-236.5103C567.4241,-244.1198 648.9731,-255.5047 720.0225,-266.5 734.6305,-268.7607 750.3359,-271.325 765.0963,-273.795"/>
<polygon fill="#191970" stroke="#191970" points="764.6967,-277.2769 775.1389,-275.485 765.8584,-270.374 764.6967,-277.2769"/>
</g>
<!-- Node33&#45;&gt;Node22 -->
<g id="edge19" class="edge">
<title>Node33&#45;&gt;Node22</title>
<path fill="none" stroke="#191970" d="M660.42,-202.5581C693.1316,-218.6383 761.4933,-252.243 799.7291,-271.0387"/>
<polygon fill="#191970" stroke="#191970" points="798.2426,-274.2079 808.761,-275.4785 801.3307,-267.9259 798.2426,-274.2079"/>
</g>
<!-- Node35&#45;&gt;Node22 -->
<g id="edge22" class="edge">
<title>Node35&#45;&gt;Node22</title>
<path fill="none" stroke="#191970" d="M513.6639,-116.7539C571.88,-123.6195 655.6422,-139.3882 720.0225,-175.5 761.4656,-198.746 797.3411,-242.8233 815.1518,-267.2015"/>
<polygon fill="#191970" stroke="#191970" points="812.4111,-269.3866 821.0673,-275.4957 818.1102,-265.3219 812.4111,-269.3866"/>
</g>
<!-- Node38 -->
<g id="node20" class="node">
<title>Node38</title>
<g id="a_node20"><a xlink:href="mainwindow_8cpp.html#a15131dfe380594218400a4b36f30a38a" target="_top" xlink:title="MainWindow::focusInput selects any text (if applicable) in the search box and sets focus to it...">
<polygon fill="none" stroke="#000000" points="429.8706,-5.5 429.8706,-23.5 458.8706,-23.5 458.8706,-5.5 429.8706,-5.5"/>
<text text-anchor="middle" x="444.3706" y="-11.5" font-family="Helvetica,sans-Serif" font-size="10.00" fill="#000000">t</text>
</a>
</g>
</g>
<!-- Node37&#45;&gt;Node38 -->
<g id="edge25" class="edge">
<title>Node37&#45;&gt;Node38</title>
<path fill="none" stroke="#191970" d="M324.9668,-14.5C358.4439,-14.5 395.538,-14.5 419.3619,-14.5"/>
<polygon fill="#191970" stroke="#191970" points="419.6154,-18.0001 429.6153,-14.5 419.6153,-11.0001 419.6154,-18.0001"/>
</g>
</g>
</svg>
