<?xml version="1.0" encoding="UTF-8" standalone="no"?>
<!DOCTYPE svg PUBLIC "-//W3C//DTD SVG 1.1//EN"
 "http://www.w3.org/Graphics/SVG/1.1/DTD/svg11.dtd">
<!-- Generated by graphviz version 2.38.0 (20140413.2041)
 -->
<!-- Title: PasswordDialog::setTemplate Pages: 1 -->
<svg width="498pt" height="27pt"
 viewBox="0.00 0.00 497.61 27.00" xmlns="http://www.w3.org/2000/svg" xmlns:xlink="http://www.w3.org/1999/xlink">
<g id="graph0" class="graph" transform="scale(1 1) rotate(0) translate(4 23)">
<title>PasswordDialog::setTemplate</title>
<!-- Node37 -->
<g id="node1" class="node"><title>Node37</title>
<polygon fill="#bfbfbf" stroke="black" points="0,-0.5 0,-18.5 147.729,-18.5 147.729,-0.5 0,-0.5"/>
<text text-anchor="middle" x="73.8643" y="-6.5" font-family="Helvetica,sans-Serif" font-size="10.00">PasswordDialog::setTemplate</text>
</g>
<!-- Node38 -->
<g id="node2" class="node"><title>Node38</title>
<g id="a_node2"><a xlink:href="class_main_window.html#a4680b2cbcfd388683a98303f29c0f84f" target="_top" xlink:title="MainWindow::executePassGitInit git init wrapper. ">
<polygon fill="none" stroke="black" points="183.729,-0.5 183.729,-18.5 345.9,-18.5 345.9,-0.5 183.729,-0.5"/>
<text text-anchor="middle" x="264.814" y="-6.5" font-family="Helvetica,sans-Serif" font-size="10.00">MainWindow::executePassGitInit</text>
</a>
</g>
</g>
<!-- Node37&#45;&gt;Node38 -->
<g id="edge1" class="edge"><title>Node37&#45;&gt;Node38</title>
<path fill="none" stroke="midnightblue" d="M158.1,-9.5C166.512,-9.5 175.044,-9.5 183.426,-9.5"/>
<polygon fill="midnightblue" stroke="midnightblue" points="157.917,-6.0001 147.917,-9.5 157.917,-13.0001 157.917,-6.0001"/>
</g>
<!-- Node39 -->
<g id="node3" class="node"><title>Node39</title>
<g id="a_node3"><a xlink:href="class_config_dialog.html#ad5b80066591f19fdaaa06b7cb5ba7f15" target="_top" xlink:title="ConfigDialog::wizard first&#45;time use wizard. ">
<polygon fill="none" stroke="black" points="381.9,-0.5 381.9,-18.5 489.609,-18.5 489.609,-0.5 381.9,-0.5"/>
<text text-anchor="middle" x="435.755" y="-6.5" font-family="Helvetica,sans-Serif" font-size="10.00">ConfigDialog::wizard</text>
</a>
</g>
</g>
<!-- Node38&#45;&gt;Node39 -->
<g id="edge2" class="edge"><title>Node38&#45;&gt;Node39</title>
<path fill="none" stroke="midnightblue" d="M356.512,-9.5C365.174,-9.5 373.747,-9.5 381.866,-9.5"/>
<polygon fill="midnightblue" stroke="midnightblue" points="356.326,-6.0001 346.326,-9.5 356.326,-13.0001 356.326,-6.0001"/>
</g>
</g>
</svg>
