<?xml version="1.0" encoding="UTF-8" standalone="no"?>
<!DOCTYPE svg PUBLIC "-//W3C//DTD SVG 1.1//EN"
 "http://www.w3.org/Graphics/SVG/1.1/DTD/svg11.dtd">
<!-- Generated by graphviz version 2.40.1 (20161225.0304)
 -->
<!-- Title: QtPassSettings::isMaximized Pages: 1 -->
<svg width="666pt" height="28pt"
 viewBox="0.00 0.00 666.00 28.00" xmlns="http://www.w3.org/2000/svg" xmlns:xlink="http://www.w3.org/1999/xlink">
<g id="graph0" class="graph" transform="scale(1 1) rotate(0) translate(4 24)">
<title>QtPassSettings::isMaximized</title>
<!-- Node532 -->
<g id="node1" class="node">
<title>Node532</title>
<polygon fill="#bfbfbf" stroke="#000000" points="0,-.5 0,-19.5 146,-19.5 146,-.5 0,-.5"/>
<text text-anchor="middle" x="73" y="-7.5" font-family="Helvetica,sans-Serif" font-size="10.00" fill="#000000">QtPassSettings::isMaximized</text>
</g>
<!-- Node533 -->
<g id="node2" class="node">
<title>Node533</title>
<g id="a_node2"><a xlink:href="class_main_window.html#a9630f0fe0e0941a7996d68014f837ed5" target="_top" xlink:title="MainWindow::restoreWindow">
<polygon fill="none" stroke="#000000" points="182,-.5 182,-19.5 326,-19.5 326,-.5 182,-.5"/>
<text text-anchor="middle" x="254" y="-7.5" font-family="Helvetica,sans-Serif" font-size="10.00" fill="#000000">MainWindow::restoreWindow</text>
</a>
</g>
</g>
<!-- Node532&#45;&gt;Node533 -->
<g id="edge1" class="edge">
<title>Node532&#45;&gt;Node533</title>
<path fill="none" stroke="#191970" d="M156.1102,-10C164.6899,-10 173.3588,-10 181.8057,-10"/>
<polygon fill="#191970" stroke="#191970" points="156.0979,-6.5001 146.0979,-10 156.0979,-13.5001 156.0979,-6.5001"/>
</g>
<!-- Node534 -->
<g id="node3" class="node">
<title>Node534</title>
<g id="a_node3"><a xlink:href="class_qt_pass.html#abd1d1e8d6b80b8307a305d80a6c34371" target="_top" xlink:title="QtPass::setMainWindow">
<polygon fill="none" stroke="#000000" points="362,-.5 362,-19.5 487,-19.5 487,-.5 362,-.5"/>
<text text-anchor="middle" x="424.5" y="-7.5" font-family="Helvetica,sans-Serif" font-size="10.00" fill="#000000">QtPass::setMainWindow</text>
</a>
</g>
</g>
<!-- Node533&#45;&gt;Node534 -->
<g id="edge2" class="edge">
<title>Node533&#45;&gt;Node534</title>
<path fill="none" stroke="#191970" d="M336.3223,-10C344.8867,-10 353.4906,-10 361.7876,-10"/>
<polygon fill="#191970" stroke="#191970" points="336.3074,-6.5001 326.3073,-10 336.3073,-13.5001 336.3074,-6.5001"/>
</g>
<!-- Node535 -->
<g id="node4" class="node">
<title>Node535</title>
<g id="a_node4"><a xlink:href="class_main_window.html#a52e97245b2f88492071e639395c4a15a" target="_top" xlink:title="MainWindow::MainWindow handles all of the main functionality and also the main window. ">
<polygon fill="none" stroke="#000000" points="523,-.5 523,-19.5 658,-19.5 658,-.5 523,-.5"/>
<text text-anchor="middle" x="590.5" y="-7.5" font-family="Helvetica,sans-Serif" font-size="10.00" fill="#000000">MainWindow::MainWindow</text>
</a>
</g>
</g>
<!-- Node534&#45;&gt;Node535 -->
<g id="edge3" class="edge">
<title>Node534&#45;&gt;Node535</title>
<path fill="none" stroke="#191970" d="M497.4873,-10C505.951,-10 514.5556,-10 522.9422,-10"/>
<polygon fill="#191970" stroke="#191970" points="497.2575,-6.5001 487.2575,-10 497.2574,-13.5001 497.2575,-6.5001"/>
</g>
</g>
</svg>
