<?xml version="1.0" encoding="UTF-8" standalone="no"?>
<!DOCTYPE svg PUBLIC "-//W3C//DTD SVG 1.1//EN"
 "http://www.w3.org/Graphics/SVG/1.1/DTD/svg11.dtd">
<!-- Generated by graphviz version 2.49.3 (0)
 -->
<!-- Title: Pass Pages: 1 -->
<svg width="154pt" height="137pt"
 viewBox="0.00 0.00 154.00 137.00" xmlns="http://www.w3.org/2000/svg" xmlns:xlink="http://www.w3.org/1999/xlink">
<g id="graph0" class="graph" transform="scale(1 1) rotate(0) translate(4 133)">
<title>Pass</title>
<!-- Node1 -->
<g id="node1" class="node">
<title>Node1</title>
<g id="a_node1"><a xlink:title="Acts as an abstraction for pass or pass imitation.">
<polygon fill="#999999" stroke="#666666" points="95,-74 56,-74 56,-55 95,-55 95,-74"/>
<text text-anchor="middle" x="75.5" y="-62" font-family="Helvetica,sans-Serif" font-size="10.00">Pass</text>
</a>
</g>
</g>
<!-- Node3 -->
<g id="node3" class="node">
<title>Node3</title>
<g id="a_node3"><a xlink:href="class_imitate_pass.html" target="_top" xlink:title="Imitates pass features when pass is not enabled or available.">
<polygon fill="white" stroke="#666666" points="69,-19 0,-19 0,0 69,0 69,-19"/>
<text text-anchor="middle" x="34.5" y="-7" font-family="Helvetica,sans-Serif" font-size="10.00">ImitatePass</text>
</a>
</g>
</g>
<!-- Node1&#45;&gt;Node3 -->
<g id="edge2" class="edge">
<title>Node1&#45;&gt;Node3</title>
<path fill="none" stroke="#63b8ff" d="M62.48,-46.67C55.38,-37.5 46.9,-26.52 41.14,-19.09"/>
<polygon fill="#63b8ff" stroke="#63b8ff" points="59.84,-48.98 68.73,-54.75 65.38,-44.7 59.84,-48.98"/>
</g>
<!-- Node4 -->
<g id="node4" class="node">
<title>Node4</title>
<g id="a_node4"><a xlink:href="class_real_pass.html" target="_top" xlink:title="Wrapper for executing pass to handle the password&#45;store.">
<polygon fill="white" stroke="#666666" points="146,-19 87,-19 87,0 146,0 146,-19"/>
<text text-anchor="middle" x="116.5" y="-7" font-family="Helvetica,sans-Serif" font-size="10.00">RealPass</text>
</a>
</g>
</g>
<!-- Node1&#45;&gt;Node4 -->
<g id="edge3" class="edge">
<title>Node1&#45;&gt;Node4</title>
<path fill="none" stroke="#63b8ff" d="M88.52,-46.67C95.62,-37.5 104.1,-26.52 109.86,-19.09"/>
<polygon fill="#63b8ff" stroke="#63b8ff" points="85.62,-44.7 82.27,-54.75 91.16,-48.98 85.62,-44.7"/>
</g>
<!-- Node2 -->
<g id="node2" class="node">
<title>Node2</title>
<g id="a_node2"><a xlink:title=" ">
<polygon fill="white" stroke="#666666" points="102,-129 49,-129 49,-110 102,-110 102,-129"/>
<text text-anchor="middle" x="75.5" y="-117" font-family="Helvetica,sans-Serif" font-size="10.00">QObject</text>
</a>
</g>
</g>
<!-- Node2&#45;&gt;Node1 -->
<g id="edge1" class="edge">
<title>Node2&#45;&gt;Node1</title>
<path fill="none" stroke="#63b8ff" d="M75.5,-99.66C75.5,-90.93 75.5,-80.99 75.5,-74.09"/>
<polygon fill="#63b8ff" stroke="#63b8ff" points="72,-99.75 75.5,-109.75 79,-99.75 72,-99.75"/>
</g>
</g>
</svg>
