<?xml version="1.0" encoding="UTF-8" standalone="no"?>
<!DOCTYPE svg PUBLIC "-//W3C//DTD SVG 1.1//EN"
 "http://www.w3.org/Graphics/SVG/1.1/DTD/svg11.dtd">
<!-- Generated by graphviz version 2.43.0 (0)
 -->
<!-- Title: ImitatePass::executeMoveGit Pages: 1 -->
<svg width="904pt" height="140pt"
 viewBox="0.00 0.00 904.00 140.00" xmlns="http://www.w3.org/2000/svg" xmlns:xlink="http://www.w3.org/1999/xlink">
<g id="graph0" class="graph" transform="scale(1 1) rotate(0) translate(4 136)">
<title>ImitatePass::executeMoveGit</title>
<!-- Node1 -->
<g id="Node000001" class="node">
<title>Node1</title>
<g id="a_Node000001"><a xlink:title="Execute git move operation.">
<polygon fill="#999999" stroke="#666666" points="159,-75 0,-75 0,-56 159,-56 159,-75"/>
<text text-anchor="middle" x="79.5" y="-63" font-family="Helvetica,sans-Serif" font-size="10.00">ImitatePass::executeMoveGit</text>
</a>
</g>
</g>
<!-- Node2 -->
<g id="Node000002" class="node">
<title>Node2</title>
<g id="a_Node000002"><a xlink:href="class_util.html#a2a7a32586578a9b631bc6b2a821ce616" target="_top" xlink:title="Returns a regex to match .gpg file extensions.">
<polygon fill="white" stroke="#666666" points="326.5,-132 221.5,-132 221.5,-113 326.5,-113 326.5,-132"/>
<text text-anchor="middle" x="274" y="-120" font-family="Helvetica,sans-Serif" font-size="10.00">Util::endsWithGpg</text>
</a>
</g>
</g>
<!-- Node1&#45;&gt;Node2 -->
<g id="edge1_Node000001_Node000002" class="edge">
<title>Node1&#45;&gt;Node2</title>
<g id="a_edge1_Node000001_Node000002"><a xlink:title=" ">
<path fill="none" stroke="#63b8ff" d="M112.72,-75.04C145.2,-84.66 195.49,-99.55 231.06,-110.08"/>
<polygon fill="#63b8ff" stroke="#63b8ff" points="230.09,-113.45 240.67,-112.93 232.08,-106.73 230.09,-113.45"/>
</a>
</g>
</g>
<!-- Node3 -->
<g id="Node000003" class="node">
<title>Node3</title>
<g id="a_Node000003"><a xlink:href="class_imitate_pass.html#a6f9682c6103b112a9aa844df7ef6a273" target="_top" xlink:title="Execute git command.">
<polygon fill="white" stroke="#666666" points="521,-56 389,-56 389,-37 521,-37 521,-56"/>
<text text-anchor="middle" x="455" y="-44" font-family="Helvetica,sans-Serif" font-size="10.00">ImitatePass::executeGit</text>
</a>
</g>
</g>
<!-- Node1&#45;&gt;Node3 -->
<g id="edge2_Node000001_Node000003" class="edge">
<title>Node1&#45;&gt;Node3</title>
<g id="a_edge2_Node000001_Node000003"><a xlink:title=" ">
<path fill="none" stroke="#63b8ff" d="M159.09,-69.35C213.62,-71.09 287.88,-71.57 353,-65.5 369.32,-63.98 386.94,-61.1 402.82,-58.04"/>
<polygon fill="#63b8ff" stroke="#63b8ff" points="403.85,-61.4 412.97,-56.01 402.48,-54.54 403.85,-61.4"/>
</a>
</g>
</g>
<!-- Node8 -->
<g id="Node000008" class="node">
<title>Node8</title>
<g id="a_Node000008"><a xlink:href="class_qt_pass_settings.html#a538e612e04fe934535e1f7525d55743c" target="_top" xlink:title="Get password store directory path.">
<polygon fill="white" stroke="#666666" points="353,-56 195,-56 195,-37 353,-37 353,-56"/>
<text text-anchor="middle" x="274" y="-44" font-family="Helvetica,sans-Serif" font-size="10.00">QtPassSettings::getPassStore</text>
</a>
</g>
</g>
<!-- Node1&#45;&gt;Node8 -->
<g id="edge8_Node000001_Node000008" class="edge">
<title>Node1&#45;&gt;Node8</title>
<g id="a_edge8_Node000001_Node000008"><a xlink:title=" ">
<path fill="none" stroke="#63b8ff" d="M159.07,-57.74C167.59,-56.9 176.3,-56.04 184.92,-55.19"/>
<polygon fill="#63b8ff" stroke="#63b8ff" points="185.38,-58.67 194.99,-54.2 184.69,-51.7 185.38,-58.67"/>
</a>
</g>
</g>
<!-- Node9 -->
<g id="Node000009" class="node">
<title>Node9</title>
<g id="a_Node000009"><a xlink:href="class_imitate_pass.html#a4633664040a5b817c944736653778e74" target="_top" xlink:title="Commit changes to git.">
<polygon fill="white" stroke="#666666" points="340.5,-19 207.5,-19 207.5,0 340.5,0 340.5,-19"/>
<text text-anchor="middle" x="274" y="-7" font-family="Helvetica,sans-Serif" font-size="10.00">ImitatePass::GitCommit</text>
</a>
</g>
</g>
<!-- Node1&#45;&gt;Node9 -->
<g id="edge9_Node000001_Node000009" class="edge">
<title>Node1&#45;&gt;Node9</title>
<g id="a_edge9_Node000001_Node000009"><a xlink:title=" ">
<path fill="none" stroke="#63b8ff" d="M108.09,-55.95C131.17,-48.12 165.05,-36.97 195,-28.5 203.48,-26.1 212.52,-23.73 221.34,-21.52"/>
<polygon fill="#63b8ff" stroke="#63b8ff" points="222.29,-24.89 231.16,-19.09 220.61,-18.09 222.29,-24.89"/>
</a>
</g>
</g>
<!-- Node4 -->
<g id="Node000004" class="node">
<title>Node4</title>
<g id="a_Node000004"><a xlink:href="class_imitate_pass.html#aa2ade77096c04fb94536d675bfaae8fe" target="_top" xlink:title="Execute command wrapper.">
<polygon fill="white" stroke="#666666" points="726,-75 567,-75 567,-56 726,-56 726,-75"/>
<text text-anchor="middle" x="646.5" y="-63" font-family="Helvetica,sans-Serif" font-size="10.00">ImitatePass::executeWrapper</text>
</a>
</g>
</g>
<!-- Node3&#45;&gt;Node4 -->
<g id="edge3_Node000003_Node000004" class="edge">
<title>Node3&#45;&gt;Node4</title>
<g id="a_edge3_Node000003_Node000004"><a xlink:title=" ">
<path fill="none" stroke="#63b8ff" d="M521.22,-53.04C532.67,-54.19 544.77,-55.4 556.74,-56.6"/>
<polygon fill="#63b8ff" stroke="#63b8ff" points="556.45,-60.09 566.75,-57.6 557.15,-53.12 556.45,-60.09"/>
</a>
</g>
</g>
<!-- Node7 -->
<g id="Node000007" class="node">
<title>Node7</title>
<g id="a_Node000007"><a xlink:href="class_qt_pass_settings.html#af6dc725440e9961c39fbd6f567749d82" target="_top" xlink:title="Get git executable path.">
<polygon fill="white" stroke="#666666" points="736,-38 557,-38 557,-19 736,-19 736,-38"/>
<text text-anchor="middle" x="646.5" y="-26" font-family="Helvetica,sans-Serif" font-size="10.00">QtPassSettings::getGitExecutable</text>
</a>
</g>
</g>
<!-- Node3&#45;&gt;Node7 -->
<g id="edge7_Node000003_Node000007" class="edge">
<title>Node3&#45;&gt;Node7</title>
<g id="a_edge7_Node000003_Node000007"><a xlink:title=" ">
<path fill="none" stroke="#63b8ff" d="M521.22,-40.31C529.45,-39.52 538.01,-38.71 546.62,-37.89"/>
<polygon fill="#63b8ff" stroke="#63b8ff" points="547.11,-41.36 556.73,-36.93 546.45,-34.39 547.11,-41.36"/>
</a>
</g>
</g>
<!-- Node5 -->
<g id="Node000005" class="node">
<title>Node5</title>
<g id="a_Node000005"><a xlink:href="class_pass.html#a66f59138ffe856fd421410d9af9ddc62" target="_top" xlink:title="Execute external wrapper command.">
<polygon fill="white" stroke="#666666" points="896,-96 772,-96 772,-77 896,-77 896,-96"/>
<text text-anchor="middle" x="834" y="-84" font-family="Helvetica,sans-Serif" font-size="10.00">Pass::executeWrapper</text>
</a>
</g>
</g>
<!-- Node4&#45;&gt;Node5 -->
<g id="edge4_Node000004_Node000005" class="edge">
<title>Node4&#45;&gt;Node5</title>
<g id="a_edge4_Node000004_Node000005"><a xlink:title=" ">
<path fill="none" stroke="#63b8ff" d="M726.17,-74.41C738.01,-75.75 750.16,-77.12 761.83,-78.44"/>
<polygon fill="#63b8ff" stroke="#63b8ff" points="761.61,-81.94 771.94,-79.59 762.39,-74.98 761.61,-81.94"/>
</a>
</g>
</g>
<!-- Node6 -->
<g id="Node000006" class="node">
<title>Node6</title>
<g id="a_Node000006"><a xlink:href="classsimple_transaction.html#a974db4056edcb408e96cf9bc2a6e4326" target="_top" xlink:title="transactionAdd If called after call to transactionStart() and before transactionEnd(),...">
<polygon fill="white" stroke="#666666" points="889.5,-58.5 778.5,-58.5 778.5,-28.5 889.5,-28.5 889.5,-58.5"/>
<text text-anchor="start" x="786.5" y="-46.5" font-family="Helvetica,sans-Serif" font-size="10.00">simpleTransaction::</text>
<text text-anchor="middle" x="834" y="-35.5" font-family="Helvetica,sans-Serif" font-size="10.00">transactionAdd</text>
</a>
</g>
</g>
<!-- Node4&#45;&gt;Node6 -->
<g id="edge6_Node000004_Node000006" class="edge">
<title>Node4&#45;&gt;Node6</title>
<g id="a_edge6_Node000004_Node000006"><a xlink:title=" ">
<path fill="none" stroke="#63b8ff" d="M726.17,-56.17C740.18,-54.51 754.62,-52.8 768.19,-51.19"/>
<polygon fill="#63b8ff" stroke="#63b8ff" points="768.85,-54.63 778.37,-49.98 768.02,-47.68 768.85,-54.63"/>
</a>
</g>
</g>
<!-- Node5&#45;&gt;Node5 -->
<g id="edge5_Node000005_Node000005" class="edge">
<title>Node5&#45;&gt;Node5</title>
<g id="a_edge5_Node000005_Node000005"><a xlink:title=" ">
<path fill="none" stroke="#63b8ff" d="M805.33,-96.08C791.39,-104.73 800.94,-114 834,-114 856.73,-114 868.35,-109.62 868.86,-104.07"/>
<polygon fill="#63b8ff" stroke="#63b8ff" points="871.56,-101.84 862.67,-96.08 866.03,-106.13 871.56,-101.84"/>
</a>
</g>
</g>
<!-- Node9&#45;&gt;Node3 -->
<g id="edge10_Node000009_Node000003" class="edge">
<title>Node9&#45;&gt;Node3</title>
<g id="a_edge10_Node000009_Node000003"><a xlink:title=" ">
<path fill="none" stroke="#63b8ff" d="M321.1,-19.03C344.5,-23.86 373.12,-29.78 397.8,-34.88"/>
<polygon fill="#63b8ff" stroke="#63b8ff" points="397.25,-38.34 407.75,-36.94 398.66,-31.49 397.25,-38.34"/>
</a>
</g>
</g>
</g>
</svg>
