<?xml version="1.0" encoding="UTF-8" standalone="no"?>
<!DOCTYPE svg PUBLIC "-//W3C//DTD SVG 1.1//EN"
 "http://www.w3.org/Graphics/SVG/1.1/DTD/svg11.dtd">
<!-- Generated by graphviz version 2.40.1 (20161225.0304)
 -->
<!-- Title: QtPassSettings::setStartMinimized Pages: 1 -->
<svg width="645pt" height="64pt"
 viewBox="0.00 0.00 644.63 64.00" xmlns="http://www.w3.org/2000/svg" xmlns:xlink="http://www.w3.org/1999/xlink">
<g id="graph0" class="graph" transform="scale(1 1) rotate(0) translate(4 60)">
<title>QtPassSettings::setStartMinimized</title>
<!-- Node620 -->
<g id="node1" class="node">
<title>Node620</title>
<polygon fill="#bfbfbf" stroke="#000000" points="0,-13.5 0,-41.5 124.9355,-41.5 124.9355,-13.5 0,-13.5"/>
<text text-anchor="start" x="8" y="-29.5" font-family="Helvetica,sans-Serif" font-size="10.00" fill="#000000">QtPassSettings::setStart</text>
<text text-anchor="middle" x="62.4678" y="-19.5" font-family="Helvetica,sans-Serif" font-size="10.00" fill="#000000">Minimized</text>
</g>
<!-- Node621 -->
<g id="node2" class="node">
<title>Node621</title>
<g id="a_node2"><a xlink:href="class_main_window.html#aeb8091ab5531144b76c1fbb0d63deb56" target="_top" xlink:title="MainWindow::config pops up the configuration screen and handles all inter&#45;window communication. ">
<polygon fill="none" stroke="#000000" points="160.9355,-18.5 160.9355,-36.5 266.418,-36.5 266.418,-18.5 160.9355,-18.5"/>
<text text-anchor="middle" x="213.6768" y="-24.5" font-family="Helvetica,sans-Serif" font-size="10.00" fill="#000000">MainWindow::config</text>
</a>
</g>
</g>
<!-- Node620&#45;&gt;Node621 -->
<g id="edge1" class="edge">
<title>Node620&#45;&gt;Node621</title>
<path fill="none" stroke="#191970" d="M135.3515,-27.5C143.972,-27.5 152.6397,-27.5 160.9056,-27.5"/>
<polygon fill="#191970" stroke="#191970" points="135.2804,-24.0001 125.2804,-27.5 135.2803,-31.0001 135.2804,-24.0001"/>
</g>
<!-- Node622 -->
<g id="node3" class="node">
<title>Node622</title>
<g id="a_node3"><a xlink:href="class_main_window.html#a23d2783cb61a373c4b0127970264290a" target="_top" xlink:title="MainWindow::checkConfig make sure we are ready to go as soon as possible. ">
<polygon fill="none" stroke="#000000" points="316.5903,-37.5 316.5903,-55.5 450.4175,-55.5 450.4175,-37.5 316.5903,-37.5"/>
<text text-anchor="middle" x="383.5039" y="-43.5" font-family="Helvetica,sans-Serif" font-size="10.00" fill="#000000">MainWindow::checkConfig</text>
</a>
</g>
</g>
<!-- Node621&#45;&gt;Node622 -->
<g id="edge2" class="edge">
<title>Node621&#45;&gt;Node622</title>
<path fill="none" stroke="#191970" d="M276.6684,-34.5474C289.5981,-35.994 303.2558,-37.522 316.3266,-38.9843"/>
<polygon fill="#191970" stroke="#191970" points="276.8074,-31.0412 266.4802,-33.4076 276.029,-37.9978 276.8074,-31.0412"/>
</g>
<!-- Node624 -->
<g id="node5" class="node">
<title>Node624</title>
<g id="a_node5"><a xlink:href="class_main_window.html#a4680b2cbcfd388683a98303f29c0f84f" target="_top" xlink:title="MainWindow::executePassGitInit git init wrapper. ">
<polygon fill="none" stroke="#000000" points="302.418,-.5 302.418,-18.5 464.5898,-18.5 464.5898,-.5 302.418,-.5"/>
<text text-anchor="middle" x="383.5039" y="-6.5" font-family="Helvetica,sans-Serif" font-size="10.00" fill="#000000">MainWindow::executePassGitInit</text>
</a>
</g>
</g>
<!-- Node621&#45;&gt;Node624 -->
<g id="edge4" class="edge">
<title>Node621&#45;&gt;Node624</title>
<path fill="none" stroke="#191970" d="M276.5617,-20.8348C284.9727,-19.9433 293.6934,-19.019 302.3616,-18.1003"/>
<polygon fill="#191970" stroke="#191970" points="276.0556,-17.3688 266.4802,-21.9034 276.7934,-24.3298 276.0556,-17.3688"/>
</g>
<!-- Node623 -->
<g id="node4" class="node">
<title>Node623</title>
<g id="a_node4"><a xlink:href="class_main_window.html#a8b244be8b7b7db1b08de2a2acb9409db" target="_top" xlink:title="MainWindow::MainWindow handles all of the main functionality and also the main window. ">
<polygon fill="none" stroke="#000000" points="500.5898,-37.5 500.5898,-55.5 636.6289,-55.5 636.6289,-37.5 500.5898,-37.5"/>
<text text-anchor="middle" x="568.6094" y="-43.5" font-family="Helvetica,sans-Serif" font-size="10.00" fill="#000000">MainWindow::MainWindow</text>
</a>
</g>
</g>
<!-- Node622&#45;&gt;Node623 -->
<g id="edge3" class="edge">
<title>Node622&#45;&gt;Node623</title>
<path fill="none" stroke="#191970" d="M460.6135,-46.5C473.8521,-46.5 487.5246,-46.5 500.5059,-46.5"/>
<polygon fill="#191970" stroke="#191970" points="460.593,-43.0001 450.5929,-46.5 460.5929,-50.0001 460.593,-43.0001"/>
</g>
<!-- Node625 -->
<g id="node6" class="node">
<title>Node625</title>
<g id="a_node6"><a xlink:href="class_config_dialog.html#ad5b80066591f19fdaaa06b7cb5ba7f15" target="_top" xlink:title="ConfigDialog::wizard first&#45;time use wizard. ">
<polygon fill="none" stroke="#000000" points="514.7549,-.5 514.7549,-18.5 622.4639,-18.5 622.4639,-.5 514.7549,-.5"/>
<text text-anchor="middle" x="568.6094" y="-6.5" font-family="Helvetica,sans-Serif" font-size="10.00" fill="#000000">ConfigDialog::wizard</text>
</a>
</g>
</g>
<!-- Node624&#45;&gt;Node625 -->
<g id="edge5" class="edge">
<title>Node624&#45;&gt;Node625</title>
<path fill="none" stroke="#191970" d="M475.038,-9.5C488.5975,-9.5 502.1862,-9.5 514.6397,-9.5"/>
<polygon fill="#191970" stroke="#191970" points="474.6939,-6.0001 464.6939,-9.5 474.6938,-13.0001 474.6939,-6.0001"/>
</g>
</g>
</svg>
