<?xml version="1.0" encoding="UTF-8" standalone="no"?>
<!DOCTYPE svg PUBLIC "-//W3C//DTD SVG 1.1//EN"
 "http://www.w3.org/Graphics/SVG/1.1/DTD/svg11.dtd">
<!-- Generated by graphviz version 2.38.0 (20140413.2041)
 -->
<!-- Title: ImitatePass::GitPush Pages: 1 -->
<svg width="484pt" height="64pt"
 viewBox="0.00 0.00 484.26 64.00" xmlns="http://www.w3.org/2000/svg" xmlns:xlink="http://www.w3.org/1999/xlink">
<g id="graph0" class="graph" transform="scale(1 1) rotate(0) translate(4 60)">
<title>ImitatePass::GitPush</title>
<!-- Node71 -->
<g id="node1" class="node"><title>Node71</title>
<polygon fill="#bfbfbf" stroke="black" points="0,-18.5 0,-36.5 109.369,-36.5 109.369,-18.5 0,-18.5"/>
<text text-anchor="middle" x="54.6846" y="-24.5" font-family="Helvetica,sans-Serif" font-size="10.00">ImitatePass::GitPush</text>
</g>
<!-- Node72 -->
<g id="node2" class="node"><title>Node72</title>
<g id="a_node2"><a xlink:href="class_qt_pass_settings.html#a2fd748b9e34c57aac277e8f0556a532f" target="_top" xlink:title="QtPassSettings::isUseGit">
<polygon fill="none" stroke="black" points="145.369,-37.5 145.369,-55.5 273.63,-55.5 273.63,-37.5 145.369,-37.5"/>
<text text-anchor="middle" x="209.5" y="-43.5" font-family="Helvetica,sans-Serif" font-size="10.00">QtPassSettings::isUseGit</text>
</a>
</g>
</g>
<!-- Node71&#45;&gt;Node72 -->
<g id="edge1" class="edge"><title>Node71&#45;&gt;Node72</title>
<path fill="none" stroke="midnightblue" d="M109.561,-34.1987C117.838,-35.2277 126.501,-36.3049 135.113,-37.3756"/>
<polygon fill="midnightblue" stroke="midnightblue" points="134.818,-40.8658 145.173,-38.6265 135.682,-33.9193 134.818,-40.8658"/>
</g>
<!-- Node73 -->
<g id="node3" class="node"><title>Node73</title>
<g id="a_node3"><a xlink:href="class_pass.html#a39e65b39104c9e59f55c23745b71a8e9" target="_top" xlink:title="Pass::executeGit easy wrapper for running git commands. ">
<polygon fill="none" stroke="black" points="163.704,-0.5 163.704,-18.5 255.295,-18.5 255.295,-0.5 163.704,-0.5"/>
<text text-anchor="middle" x="209.5" y="-6.5" font-family="Helvetica,sans-Serif" font-size="10.00">Pass::executeGit</text>
</a>
</g>
</g>
<!-- Node71&#45;&gt;Node73 -->
<g id="edge2" class="edge"><title>Node71&#45;&gt;Node73</title>
<path fill="none" stroke="midnightblue" d="M109.561,-21.1539C123.806,-19.476 139.197,-17.6631 153.5,-15.9783"/>
<polygon fill="midnightblue" stroke="midnightblue" points="154.169,-19.4239 163.691,-14.778 153.35,-12.4719 154.169,-19.4239"/>
</g>
<!-- Node74 -->
<g id="node4" class="node"><title>Node74</title>
<g id="a_node4"><a xlink:href="class_qt_pass_settings.html#af1577fc288ddb6077df5a2fb2f8913b6" target="_top" xlink:title="QtPassSettings::getGitExecutable">
<polygon fill="none" stroke="black" points="309.63,-0.5 309.63,-18.5 476.265,-18.5 476.265,-0.5 309.63,-0.5"/>
<text text-anchor="middle" x="392.947" y="-6.5" font-family="Helvetica,sans-Serif" font-size="10.00">QtPassSettings::getGitExecutable</text>
</a>
</g>
</g>
<!-- Node73&#45;&gt;Node74 -->
<g id="edge3" class="edge"><title>Node73&#45;&gt;Node74</title>
<path fill="none" stroke="midnightblue" d="M255.352,-9.5C268.781,-9.5 284.031,-9.5 299.352,-9.5"/>
<polygon fill="midnightblue" stroke="midnightblue" points="299.412,-13.0001 309.412,-9.5 299.411,-6.0001 299.412,-13.0001"/>
</g>
</g>
</svg>
