<?xml version="1.0" encoding="UTF-8" standalone="no"?>
<!DOCTYPE svg PUBLIC "-//W3C//DTD SVG 1.1//EN"
 "http://www.w3.org/Graphics/SVG/1.1/DTD/svg11.dtd">
<!-- Generated by graphviz version 2.44.0 (20200408.0750)
 -->
<!-- Title: MainWindow::setUiElementsEnabled Pages: 1 -->
<svg width="351pt" height="230pt"
 viewBox="0.00 0.00 351.00 230.00" xmlns="http://www.w3.org/2000/svg" xmlns:xlink="http://www.w3.org/1999/xlink">
<g id="graph0" class="graph" transform="scale(1 1) rotate(0) translate(4 226)">
<title>MainWindow::setUiElementsEnabled</title>
<!-- Node1 -->
<g id="node1" class="node">
<title>Node1</title>
<g id="a_node1"><a xlink:title="MainWindow::setUiElementsEnabled enable or disable the relevant UI elements.">
<polygon fill="#bfbfbf" stroke="black" points="200,-90 200,-120 343,-120 343,-90 200,-90"/>
<text text-anchor="start" x="208" y="-108" font-family="Helvetica,sans-Serif" font-size="10.00">MainWindow::setUiElements</text>
<text text-anchor="middle" x="271.5" y="-97" font-family="Helvetica,sans-Serif" font-size="10.00">Enabled</text>
</a>
</g>
</g>
<!-- Node2 -->
<g id="node2" class="node">
<title>Node2</title>
<g id="a_node2"><a xlink:href="class_main_window.html#a201fc73a7db0d404e8fd49f818696eba" target="_top" xlink:title="MainWindow::endReencryptPath re&#45;enable ui elements.">
<polygon fill="none" stroke="black" points="2,-202.5 2,-221.5 162,-221.5 162,-202.5 2,-202.5"/>
<text text-anchor="middle" x="82" y="-209.5" font-family="Helvetica,sans-Serif" font-size="10.00">MainWindow::endReencryptPath</text>
</a>
</g>
</g>
<!-- Node1&#45;&gt;Node2 -->
<g id="edge1" class="edge">
<title>Node1&#45;&gt;Node2</title>
<path fill="none" stroke="midnightblue" d="M249.47,-127.5C229.39,-147.64 197.34,-176.46 164,-193 156.24,-196.85 147.66,-199.94 139.08,-202.41"/>
<polygon fill="midnightblue" stroke="midnightblue" points="252.07,-129.85 256.55,-120.25 247.06,-124.96 252.07,-129.85"/>
</g>
<!-- Node3 -->
<g id="node3" class="node">
<title>Node3</title>
<g id="a_node3"><a xlink:href="class_main_window.html#a3550b28be1344cf5c012af794dce8c64" target="_top" xlink:title=" ">
<polygon fill="none" stroke="black" points="7.5,-153 7.5,-183 156.5,-183 156.5,-153 7.5,-153"/>
<text text-anchor="start" x="15.5" y="-171" font-family="Helvetica,sans-Serif" font-size="10.00">MainWindow::executeWrapper</text>
<text text-anchor="middle" x="82" y="-160" font-family="Helvetica,sans-Serif" font-size="10.00">Started</text>
</a>
</g>
</g>
<!-- Node1&#45;&gt;Node3 -->
<g id="edge2" class="edge">
<title>Node1&#45;&gt;Node3</title>
<path fill="none" stroke="midnightblue" d="M220.12,-123.48C202.43,-129.83 182.39,-136.88 164,-143 154.08,-146.3 143.44,-149.69 133.23,-152.87"/>
<polygon fill="midnightblue" stroke="midnightblue" points="221.46,-126.72 229.68,-120.03 219.08,-120.13 221.46,-126.72"/>
</g>
<!-- Node4 -->
<g id="node4" class="node">
<title>Node4</title>
<g id="a_node4"><a xlink:href="class_main_window.html#a52e97245b2f88492071e639395c4a15a" target="_top" xlink:title="MainWindow::MainWindow handles all of the main functionality and also the main window.">
<polygon fill="none" stroke="black" points="14.5,-114.5 14.5,-133.5 149.5,-133.5 149.5,-114.5 14.5,-114.5"/>
<text text-anchor="middle" x="82" y="-121.5" font-family="Helvetica,sans-Serif" font-size="10.00">MainWindow::MainWindow</text>
</a>
</g>
</g>
<!-- Node1&#45;&gt;Node4 -->
<g id="edge3" class="edge">
<title>Node1&#45;&gt;Node4</title>
<path fill="none" stroke="midnightblue" d="M189.72,-113.19C176.31,-114.55 162.53,-115.94 149.53,-117.26"/>
<polygon fill="midnightblue" stroke="midnightblue" points="190.29,-116.65 199.88,-112.16 189.58,-109.68 190.29,-116.65"/>
</g>
<!-- Node5 -->
<g id="node5" class="node">
<title>Node5</title>
<g id="a_node5"><a xlink:href="class_main_window.html#a7997fd865548c3baa51f1863bb8fdfa0" target="_top" xlink:title=" ">
<polygon fill="none" stroke="black" points="7.5,-76.5 7.5,-95.5 156.5,-95.5 156.5,-76.5 7.5,-76.5"/>
<text text-anchor="middle" x="82" y="-83.5" font-family="Helvetica,sans-Serif" font-size="10.00">MainWindow::passOtpHandler</text>
</a>
</g>
</g>
<!-- Node1&#45;&gt;Node5 -->
<g id="edge4" class="edge">
<title>Node1&#45;&gt;Node5</title>
<path fill="none" stroke="midnightblue" d="M189.85,-96.83C178.83,-95.71 167.57,-94.57 156.68,-93.47"/>
<polygon fill="midnightblue" stroke="midnightblue" points="189.58,-100.32 199.88,-97.84 190.29,-93.35 189.58,-100.32"/>
</g>
<!-- Node6 -->
<g id="node6" class="node">
<title>Node6</title>
<g id="a_node6"><a xlink:href="class_main_window.html#a0d75695e555bac7331e1ea22bc3159df" target="_top" xlink:title=" ">
<polygon fill="none" stroke="black" points="3,-38.5 3,-57.5 161,-57.5 161,-38.5 3,-38.5"/>
<text text-anchor="middle" x="82" y="-45.5" font-family="Helvetica,sans-Serif" font-size="10.00">MainWindow::passShowHandler</text>
</a>
</g>
</g>
<!-- Node1&#45;&gt;Node6 -->
<g id="edge5" class="edge">
<title>Node1&#45;&gt;Node6</title>
<path fill="none" stroke="midnightblue" d="M221.7,-86.29C203.71,-79.74 183.07,-72.62 164,-67 152.36,-63.57 139.64,-60.35 127.8,-57.56"/>
<polygon fill="midnightblue" stroke="midnightblue" points="220.8,-89.69 231.4,-89.86 223.22,-83.12 220.8,-89.69"/>
</g>
<!-- Node7 -->
<g id="node7" class="node">
<title>Node7</title>
<g id="a_node7"><a xlink:href="class_main_window.html#a02ec9927bda826675653c0af916c8f33" target="_top" xlink:title="MainWindow::startReencryptPath disable ui elements and treeview.">
<polygon fill="none" stroke="black" points="0,-0.5 0,-19.5 164,-19.5 164,-0.5 0,-0.5"/>
<text text-anchor="middle" x="82" y="-7.5" font-family="Helvetica,sans-Serif" font-size="10.00">MainWindow::startReencryptPath</text>
</a>
</g>
</g>
<!-- Node1&#45;&gt;Node7 -->
<g id="edge6" class="edge">
<title>Node1&#45;&gt;Node7</title>
<path fill="none" stroke="midnightblue" d="M245.84,-83.12C225.29,-65.99 194.55,-42.83 164,-29 155.58,-25.19 146.31,-22.09 137.13,-19.6"/>
<polygon fill="midnightblue" stroke="midnightblue" points="243.83,-86.01 253.72,-89.81 248.36,-80.67 243.83,-86.01"/>
</g>
</g>
</svg>
