<?xml version="1.0" encoding="UTF-8" standalone="no"?>
<!DOCTYPE svg PUBLIC "-//W3C//DTD SVG 1.1//EN"
 "http://www.w3.org/Graphics/SVG/1.1/DTD/svg11.dtd">
<!-- Generated by graphviz version 2.40.1 (20161225.0304)
 -->
<!-- Title: QtPassSettings::isHideContent Pages: 1 -->
<svg width="357pt" height="64pt"
 viewBox="0.00 0.00 357.25 64.00" xmlns="http://www.w3.org/2000/svg" xmlns:xlink="http://www.w3.org/1999/xlink">
<g id="graph0" class="graph" transform="scale(1 1) rotate(0) translate(4 60)">
<title>QtPassSettings::isHideContent</title>
<!-- Node391 -->
<g id="node1" class="node">
<title>Node391</title>
<polygon fill="#bfbfbf" stroke="#000000" points="0,-18.5 0,-36.5 153.29,-36.5 153.29,-18.5 0,-18.5"/>
<text text-anchor="middle" x="76.645" y="-24.5" font-family="Helvetica,sans-Serif" font-size="10.00" fill="#000000">QtPassSettings::isHideContent</text>
</g>
<!-- Node392 -->
<g id="node2" class="node">
<title>Node392</title>
<g id="a_node2"><a xlink:href="class_config_dialog.html#a815d6d8ddf1de9386427ddef691a02a1" target="_top" xlink:title="ConfigDialog::ConfigDialog this sets up the configuration screen. ">
<polygon fill="none" stroke="#000000" points="201.2334,-37.5 201.2334,-55.5 337.3018,-55.5 337.3018,-37.5 201.2334,-37.5"/>
<text text-anchor="middle" x="269.2676" y="-43.5" font-family="Helvetica,sans-Serif" font-size="10.00" fill="#000000">ConfigDialog::ConfigDialog</text>
</a>
</g>
</g>
<!-- Node391&#45;&gt;Node392 -->
<g id="edge1" class="edge">
<title>Node391&#45;&gt;Node392</title>
<path fill="none" stroke="#191970" d="M163.3675,-36.0542C175.9657,-37.2968 188.785,-38.5613 200.9515,-39.7614"/>
<polygon fill="#191970" stroke="#191970" points="163.6233,-32.5625 153.328,-35.0639 162.9361,-39.5287 163.6233,-32.5625"/>
</g>
<!-- Node393 -->
<g id="node3" class="node">
<title>Node393</title>
<g id="a_node3"><a xlink:href="class_main_window.html#a0d75695e555bac7331e1ea22bc3159df" target="_top" xlink:title="MainWindow::passShowHandler">
<polygon fill="none" stroke="#000000" points="189.29,-.5 189.29,-18.5 349.2451,-18.5 349.2451,-.5 189.29,-.5"/>
<text text-anchor="middle" x="269.2676" y="-6.5" font-family="Helvetica,sans-Serif" font-size="10.00" fill="#000000">MainWindow::passShowHandler</text>
</a>
</g>
</g>
<!-- Node391&#45;&gt;Node393 -->
<g id="edge2" class="edge">
<title>Node391&#45;&gt;Node393</title>
<path fill="none" stroke="#191970" d="M163.3226,-19.4002C171.8907,-18.5996 180.5615,-17.7893 189.0602,-16.9951"/>
<polygon fill="#191970" stroke="#191970" points="162.959,-15.9189 153.328,-20.3342 163.6103,-22.8885 162.959,-15.9189"/>
</g>
</g>
</svg>
