<?xml version="1.0" encoding="UTF-8" standalone="no"?>
<!DOCTYPE svg PUBLIC "-//W3C//DTD SVG 1.1//EN"
 "http://www.w3.org/Graphics/SVG/1.1/DTD/svg11.dtd">
<!-- Generated by graphviz version 2.40.1 (20161225.0304)
 -->
<!-- Title: QProgressIndicator::startAnimation Pages: 1 -->
<svg width="436pt" height="97pt"
 viewBox="0.00 0.00 436.22 97.00" xmlns="http://www.w3.org/2000/svg" xmlns:xlink="http://www.w3.org/1999/xlink">
<g id="graph0" class="graph" transform="scale(1 1) rotate(0) translate(4 93)">
<title>QProgressIndicator::startAnimation</title>
<!-- Node78 -->
<g id="node1" class="node">
<title>Node78</title>
<polygon fill="#bfbfbf" stroke="#000000" points="0,-44.5 0,-72.5 102.1475,-72.5 102.1475,-44.5 0,-44.5"/>
<text text-anchor="start" x="8" y="-60.5" font-family="Helvetica,sans-Serif" font-size="10.00" fill="#000000">QProgressIndicator</text>
<text text-anchor="middle" x="51.0737" y="-50.5" font-family="Helvetica,sans-Serif" font-size="10.00" fill="#000000">::startAnimation</text>
</g>
<!-- Node79 -->
<g id="node2" class="node">
<title>Node79</title>
<g id="a_node2"><a xlink:href="class_keygen_dialog.html#a90b3a3db49016043ba160a50c5272643" target="_top" xlink:title="KeygenDialog::~KeygenDialog even more basic destructor. ">
<polygon fill="none" stroke="#000000" points="138.1475,-70.5 138.1475,-88.5 290.0752,-88.5 290.0752,-70.5 138.1475,-70.5"/>
<text text-anchor="middle" x="214.1113" y="-76.5" font-family="Helvetica,sans-Serif" font-size="10.00" fill="#000000">KeygenDialog::~KeygenDialog</text>
</a>
</g>
</g>
<!-- Node78&#45;&gt;Node79 -->
<g id="edge1" class="edge">
<title>Node78&#45;&gt;Node79</title>
<path fill="none" stroke="#191970" d="M112.366,-66.3947C122.7006,-67.7259 133.4982,-69.1166 144.0355,-70.4739"/>
<polygon fill="#191970" stroke="#191970" points="112.5777,-62.8932 102.2125,-65.0869 111.6834,-69.8358 112.5777,-62.8932"/>
</g>
<!-- Node80 -->
<g id="node3" class="node">
<title>Node80</title>
<g id="a_node3"><a xlink:href="class_q_progress_indicator.html#afdc92dfc35132dadcce9fd45adc51c65" target="_top" xlink:title="Returns the color of the component. ">
<polygon fill="none" stroke="#000000" points="163.0376,-23.5 163.0376,-51.5 265.1851,-51.5 265.1851,-23.5 163.0376,-23.5"/>
<text text-anchor="start" x="171.0376" y="-39.5" font-family="Helvetica,sans-Serif" font-size="10.00" fill="#000000">QProgressIndicator</text>
<text text-anchor="middle" x="214.1113" y="-29.5" font-family="Helvetica,sans-Serif" font-size="10.00" fill="#000000">::color</text>
</a>
</g>
</g>
<!-- Node78&#45;&gt;Node80 -->
<g id="edge2" class="edge">
<title>Node78&#45;&gt;Node80</title>
<path fill="none" stroke="#191970" d="M112.3888,-50.6023C129.0244,-48.4596 146.858,-46.1625 162.8739,-44.0996"/>
<polygon fill="#191970" stroke="#191970" points="111.6834,-47.1642 102.2125,-51.9131 112.5777,-54.1068 111.6834,-47.1642"/>
</g>
<!-- Node81 -->
<g id="node4" class="node">
<title>Node81</title>
<g id="a_node4"><a xlink:href="class_q_progress_indicator.html#a62161c81afb5ce019e9a7a55c69e3654" target="_top" xlink:title="Sets the color of the components to the given color. ">
<polygon fill="none" stroke="#000000" points="326.0752,-47.5 326.0752,-75.5 428.2227,-75.5 428.2227,-47.5 326.0752,-47.5"/>
<text text-anchor="start" x="334.0752" y="-63.5" font-family="Helvetica,sans-Serif" font-size="10.00" fill="#000000">QProgressIndicator</text>
<text text-anchor="middle" x="377.1489" y="-53.5" font-family="Helvetica,sans-Serif" font-size="10.00" fill="#000000">::setColor</text>
</a>
</g>
</g>
<!-- Node80&#45;&gt;Node81 -->
<g id="edge3" class="edge">
<title>Node80&#45;&gt;Node81</title>
<path fill="none" stroke="#191970" d="M275.4264,-39.9636C292.062,-42.0974 309.8956,-44.8041 325.9115,-47.6398"/>
<polygon fill="#191970" stroke="#191970" points="275.6024,-36.459 265.2501,-38.7131 274.7485,-43.4068 275.6024,-36.459"/>
</g>
<!-- Node82 -->
<g id="node5" class="node">
<title>Node82</title>
<g id="a_node5"><a xlink:href="class_q_progress_indicator.html#a38d3e8644a4e74d892b42270c9b6ae8f" target="_top" xlink:title="QProgressIndicator::paintEvent draw the spinner. ">
<polygon fill="none" stroke="#000000" points="326.0752,-.5 326.0752,-28.5 428.2227,-28.5 428.2227,-.5 326.0752,-.5"/>
<text text-anchor="start" x="334.0752" y="-16.5" font-family="Helvetica,sans-Serif" font-size="10.00" fill="#000000">QProgressIndicator</text>
<text text-anchor="middle" x="377.1489" y="-6.5" font-family="Helvetica,sans-Serif" font-size="10.00" fill="#000000">::paintEvent</text>
</a>
</g>
</g>
<!-- Node80&#45;&gt;Node82 -->
<g id="edge5" class="edge">
<title>Node80&#45;&gt;Node82</title>
<path fill="none" stroke="#191970" d="M275.4264,-22.2879C292.062,-19.626 309.8956,-17.1917 325.9115,-15.4104"/>
<polygon fill="#191970" stroke="#191970" points="274.545,-18.8861 265.2501,-23.9709 275.6872,-25.7922 274.545,-18.8861"/>
</g>
<!-- Node81&#45;&gt;Node80 -->
<g id="edge4" class="edge">
<title>Node81&#45;&gt;Node80</title>
<path fill="none" stroke="#191970" d="M315.7314,-59.0232C299.0909,-56.8871 281.2585,-54.1789 265.2501,-51.3427"/>
<polygon fill="#191970" stroke="#191970" points="315.559,-62.5283 325.9115,-60.2754 316.4136,-55.5807 315.559,-62.5283"/>
</g>
<!-- Node82&#45;&gt;Node80 -->
<g id="edge6" class="edge">
<title>Node82&#45;&gt;Node80</title>
<path fill="none" stroke="#191970" d="M315.7314,-29.7285C299.0909,-32.3894 281.2585,-34.8219 265.2501,-36.6006"/>
<polygon fill="#191970" stroke="#191970" points="316.6161,-33.1298 325.9115,-28.0459 315.4746,-26.2235 316.6161,-33.1298"/>
</g>
</g>
</svg>
