<?xml version="1.0" encoding="UTF-8" standalone="no"?>
<!DOCTYPE svg PUBLIC "-//W3C//DTD SVG 1.1//EN"
 "http://www.w3.org/Graphics/SVG/1.1/DTD/svg11.dtd">
<!-- Generated by graphviz version 2.40.1 (20161225.0304)
 -->
<!-- Title: QtPass::showTextAsQRCode Pages: 1 -->
<svg width="935pt" height="66pt"
 viewBox="0.00 0.00 935.00 66.00" xmlns="http://www.w3.org/2000/svg" xmlns:xlink="http://www.w3.org/1999/xlink">
<g id="graph0" class="graph" transform="scale(1 1) rotate(0) translate(4 62)">
<title>QtPass::showTextAsQRCode</title>
<!-- Node189 -->
<g id="node1" class="node">
<title>Node189</title>
<polygon fill="#bfbfbf" stroke="#000000" points="0,-19.5 0,-38.5 149,-38.5 149,-19.5 0,-19.5"/>
<text text-anchor="middle" x="74.5" y="-26.5" font-family="Helvetica,sans-Serif" font-size="10.00" fill="#000000">QtPass::showTextAsQRCode</text>
</g>
<!-- Node190 -->
<g id="node2" class="node">
<title>Node190</title>
<g id="a_node2"><a xlink:href="class_main_window.html#a9c4f542263838b9ecd06eae839a42a34" target="_top" xlink:title="MainWindow::keyPressEvent did anyone press return, enter or escape? ">
<polygon fill="none" stroke="#000000" points="185,-38.5 185,-57.5 331,-57.5 331,-38.5 185,-38.5"/>
<text text-anchor="middle" x="258" y="-45.5" font-family="Helvetica,sans-Serif" font-size="10.00" fill="#000000">MainWindow::keyPressEvent</text>
</a>
</g>
</g>
<!-- Node189&#45;&gt;Node190 -->
<g id="edge1" class="edge">
<title>Node189&#45;&gt;Node190</title>
<path fill="none" stroke="#191970" d="M159.174,-37.7673C167.7727,-38.6577 176.4548,-39.5566 184.9157,-40.4327"/>
<polygon fill="#191970" stroke="#191970" points="159.4438,-34.2766 149.1365,-36.728 158.7228,-41.2394 159.4438,-34.2766"/>
</g>
<!-- Node191 -->
<g id="node3" class="node">
<title>Node191</title>
<g id="a_node3"><a xlink:href="class_qt_pass.html#a5b63b7418723b400f0db2afa450f1199" target="_top" xlink:title="QtPass::setFreshStart">
<polygon fill="none" stroke="#000000" points="200.5,-.5 200.5,-19.5 315.5,-19.5 315.5,-.5 200.5,-.5"/>
<text text-anchor="middle" x="258" y="-7.5" font-family="Helvetica,sans-Serif" font-size="10.00" fill="#000000">QtPass::setFreshStart</text>
</a>
</g>
</g>
<!-- Node189&#45;&gt;Node191 -->
<g id="edge2" class="edge">
<title>Node189&#45;&gt;Node191</title>
<path fill="none" stroke="#191970" d="M159.2117,-20.2288C173.1265,-18.788 187.2584,-17.3247 200.3172,-15.9726"/>
<polygon fill="#191970" stroke="#191970" points="158.7228,-16.7606 149.1365,-21.272 159.4438,-23.7234 158.7228,-16.7606"/>
</g>
<!-- Node192 -->
<g id="node4" class="node">
<title>Node192</title>
<g id="a_node4"><a xlink:href="class_main_window.html#aeb8091ab5531144b76c1fbb0d63deb56" target="_top" xlink:title="MainWindow::config pops up the configuration screen and handles all inter&#45;window communication. ">
<polygon fill="none" stroke="#000000" points="367,-.5 367,-19.5 472,-19.5 472,-.5 367,-.5"/>
<text text-anchor="middle" x="419.5" y="-7.5" font-family="Helvetica,sans-Serif" font-size="10.00" fill="#000000">MainWindow::config</text>
</a>
</g>
</g>
<!-- Node191&#45;&gt;Node192 -->
<g id="edge3" class="edge">
<title>Node191&#45;&gt;Node192</title>
<path fill="none" stroke="#191970" d="M326.1462,-10C339.7715,-10 353.8877,-10 366.8912,-10"/>
<polygon fill="#191970" stroke="#191970" points="325.8491,-6.5001 315.849,-10 325.849,-13.5001 325.8491,-6.5001"/>
</g>
<!-- Node193 -->
<g id="node5" class="node">
<title>Node193</title>
<g id="a_node5"><a xlink:href="class_main_window.html#a9630f0fe0e0941a7996d68014f837ed5" target="_top" xlink:title="MainWindow::restoreWindow">
<polygon fill="none" stroke="#000000" points="508,-19.5 508,-38.5 652,-38.5 652,-19.5 508,-19.5"/>
<text text-anchor="middle" x="580" y="-26.5" font-family="Helvetica,sans-Serif" font-size="10.00" fill="#000000">MainWindow::restoreWindow</text>
</a>
</g>
</g>
<!-- Node192&#45;&gt;Node193 -->
<g id="edge4" class="edge">
<title>Node192&#45;&gt;Node193</title>
<path fill="none" stroke="#191970" d="M482.1514,-17.4167C490.5617,-18.4123 499.2432,-19.44 507.8014,-20.4531"/>
<polygon fill="#191970" stroke="#191970" points="482.3958,-13.9213 472.0537,-16.2213 481.5729,-20.8727 482.3958,-13.9213"/>
</g>
<!-- Node194 -->
<g id="node6" class="node">
<title>Node194</title>
<g id="a_node6"><a xlink:href="class_qt_pass.html#a49e2861160fdb8d614231933f60fac47" target="_top" xlink:title="QtPass::init make sure we are ready to go as soon as possible. ">
<polygon fill="none" stroke="#000000" points="688,-.5 688,-19.5 756,-19.5 756,-.5 688,-.5"/>
<text text-anchor="middle" x="722" y="-7.5" font-family="Helvetica,sans-Serif" font-size="10.00" fill="#000000">QtPass::init</text>
</a>
</g>
</g>
<!-- Node192&#45;&gt;Node194 -->
<g id="edge7" class="edge">
<title>Node192&#45;&gt;Node194</title>
<path fill="none" stroke="#191970" d="M482.306,-10C544.6667,-10 637.9502,-10 687.7591,-10"/>
<polygon fill="#191970" stroke="#191970" points="482.1915,-6.5001 472.1915,-10 482.1914,-13.5001 482.1915,-6.5001"/>
</g>
<!-- Node193&#45;&gt;Node194 -->
<g id="edge5" class="edge">
<title>Node193&#45;&gt;Node194</title>
<path fill="none" stroke="#191970" d="M661.5082,-18.094C670.7492,-16.8575 679.7473,-15.6535 687.8576,-14.5683"/>
<polygon fill="#191970" stroke="#191970" points="660.8635,-14.649 651.416,-19.4443 661.7919,-21.5871 660.8635,-14.649"/>
</g>
<!-- Node195 -->
<g id="node7" class="node">
<title>Node195</title>
<g id="a_node7"><a xlink:href="class_main_window.html#a52e97245b2f88492071e639395c4a15a" target="_top" xlink:title="MainWindow::MainWindow handles all of the main functionality and also the main window. ">
<polygon fill="none" stroke="#000000" points="792,-.5 792,-19.5 927,-19.5 927,-.5 792,-.5"/>
<text text-anchor="middle" x="859.5" y="-7.5" font-family="Helvetica,sans-Serif" font-size="10.00" fill="#000000">MainWindow::MainWindow</text>
</a>
</g>
</g>
<!-- Node194&#45;&gt;Node195 -->
<g id="edge6" class="edge">
<title>Node194&#45;&gt;Node195</title>
<path fill="none" stroke="#191970" d="M766.6126,-10C774.6815,-10 783.2586,-10 791.8137,-10"/>
<polygon fill="#191970" stroke="#191970" points="766.3424,-6.5001 756.3424,-10 766.3423,-13.5001 766.3424,-6.5001"/>
</g>
</g>
</svg>
