<?xml version="1.0" encoding="UTF-8" standalone="no"?>
<!DOCTYPE svg PUBLIC "-//W3C//DTD SVG 1.1//EN"
 "http://www.w3.org/Graphics/SVG/1.1/DTD/svg11.dtd">
<!-- Generated by graphviz version 2.43.0 (0)
 -->
<!-- Title: ConfigDialog::usePwgen Pages: 1 -->
<svg width="325pt" height="45pt"
 viewBox="0.00 0.00 325.00 45.00" xmlns="http://www.w3.org/2000/svg" xmlns:xlink="http://www.w3.org/1999/xlink">
<g id="graph0" class="graph" transform="scale(1 1) rotate(0) translate(4 41)">
<title>ConfigDialog::usePwgen</title>
<!-- Node1 -->
<g id="Node000001" class="node">
<title>Node1</title>
<g id="a_Node000001"><a xlink:title="ConfigDialog::usePwgen set preference for using pwgen (can be overruled buy empty pwgenPath)....">
<polygon fill="#999999" stroke="#666666" points="317,-19 183,-19 183,0 317,0 317,-19"/>
<text text-anchor="middle" x="250" y="-7" font-family="Helvetica,sans-Serif" font-size="10.00">ConfigDialog::usePwgen</text>
</a>
</g>
</g>
<!-- Node1&#45;&gt;Node1 -->
<g id="edge2_Node000001_Node000001" class="edge">
<title>Node1&#45;&gt;Node1</title>
<g id="a_edge2_Node000001_Node000001"><a xlink:title=" ">
<path fill="none" stroke="#63b8ff" d="M282.93,-27.45C282,-32.82 271.02,-37 250,-37 218.72,-37 209.68,-27.73 222.87,-19.08"/>
<polygon fill="#63b8ff" stroke="#63b8ff" points="285.7,-25.3 277.13,-19.08 279.95,-29.29 285.7,-25.3"/>
</a>
</g>
</g>
<!-- Node2 -->
<g id="Node000002" class="node">
<title>Node2</title>
<g id="a_Node000002"><a xlink:href="class_config_dialog.html#a815d6d8ddf1de9386427ddef691a02a1" target="_top" xlink:title="ConfigDialog::ConfigDialog this sets up the configuration screen.">
<polygon fill="white" stroke="#666666" points="147,-19 0,-19 0,0 147,0 147,-19"/>
<text text-anchor="middle" x="73.5" y="-7" font-family="Helvetica,sans-Serif" font-size="10.00">ConfigDialog::ConfigDialog</text>
</a>
</g>
</g>
<!-- Node1&#45;&gt;Node2 -->
<g id="edge1_Node000001_Node000002" class="edge">
<title>Node1&#45;&gt;Node2</title>
<g id="a_edge1_Node000001_Node000002"><a xlink:title=" ">
<path fill="none" stroke="#63b8ff" d="M172.4,-9.5C164.02,-9.5 155.51,-9.5 147.18,-9.5"/>
<polygon fill="#63b8ff" stroke="#63b8ff" points="172.53,-13 182.53,-9.5 172.53,-6 172.53,-13"/>
</a>
</g>
</g>
</g>
</svg>
