<?xml version="1.0" encoding="UTF-8" standalone="no"?>
<!DOCTYPE svg PUBLIC "-//W3C//DTD SVG 1.1//EN"
 "http://www.w3.org/Graphics/SVG/1.1/DTD/svg11.dtd">
<!-- Generated by graphviz version 2.38.0 (20140413.2041)
 -->
<!-- Title: MainWindow::MainWindow Pages: 1 -->
<svg width="669pt" height="216pt"
 viewBox="0.00 0.00 669.10 216.00" xmlns="http://www.w3.org/2000/svg" xmlns:xlink="http://www.w3.org/1999/xlink">
<g id="graph0" class="graph" transform="scale(1 1) rotate(0) translate(4 212)">
<title>MainWindow::MainWindow</title>
<!-- Node0 -->
<g id="node1" class="node"><title>Node0</title>
<polygon fill="#bfbfbf" stroke="black" points="0,-94.5 0,-112.5 136.039,-112.5 136.039,-94.5 0,-94.5"/>
<text text-anchor="middle" x="68.0195" y="-100.5" font-family="Helvetica,sans-Serif" font-size="10.00">MainWindow::MainWindow</text>
</g>
<!-- Node1 -->
<g id="node2" class="node"><title>Node1</title>
<g id="a_node2"><a xlink:href="class_main_window.html#a23d2783cb61a373c4b0127970264290a" target="_top" xlink:title="MainWindow::checkConfig make sure we are ready to go as soon as possible. ">
<polygon fill="none" stroke="black" points="172.039,-94.5 172.039,-112.5 305.866,-112.5 305.866,-94.5 172.039,-94.5"/>
<text text-anchor="middle" x="238.953" y="-100.5" font-family="Helvetica,sans-Serif" font-size="10.00">MainWindow::checkConfig</text>
</a>
</g>
</g>
<!-- Node0&#45;&gt;Node1 -->
<g id="edge1" class="edge"><title>Node0&#45;&gt;Node1</title>
<path fill="none" stroke="midnightblue" d="M136.272,-103.5C144.737,-103.5 153.443,-103.5 162.03,-103.5"/>
<polygon fill="midnightblue" stroke="midnightblue" points="162.034,-107 172.034,-103.5 162.034,-100 162.034,-107"/>
</g>
<!-- Node2 -->
<g id="node3" class="node"><title>Node2</title>
<g id="a_node3"><a xlink:href="class_util.html#a29e0dadf2cb491511307b841e4a23943" target="_top" xlink:title="Util::findPasswordStore look for common .password&#45;store folder location. ">
<polygon fill="none" stroke="black" points="359.383,-189.5 359.383,-207.5 479.314,-207.5 479.314,-189.5 359.383,-189.5"/>
<text text-anchor="middle" x="419.349" y="-195.5" font-family="Helvetica,sans-Serif" font-size="10.00">Util::findPasswordStore</text>
</a>
</g>
</g>
<!-- Node1&#45;&gt;Node2 -->
<g id="edge2" class="edge"><title>Node1&#45;&gt;Node2</title>
<path fill="none" stroke="midnightblue" d="M250.569,-112.559C268.376,-127.355 305.861,-156.828 341.866,-174.5 351.334,-179.147 361.898,-183.145 372.08,-186.473"/>
<polygon fill="midnightblue" stroke="midnightblue" points="371.089,-189.83 381.677,-189.456 373.167,-183.145 371.089,-189.83"/>
</g>
<!-- Node3 -->
<g id="node4" class="node"><title>Node3</title>
<g id="a_node4"><a xlink:href="class_util.html#a94597a43bf37076511033bef32f3df12" target="_top" xlink:title="Util::normalizeFolderPath let&#39;s always end folders with a QDir::separator() ">
<polygon fill="none" stroke="black" points="532.831,-151.5 532.831,-169.5 661.097,-169.5 661.097,-151.5 532.831,-151.5"/>
<text text-anchor="middle" x="596.964" y="-157.5" font-family="Helvetica,sans-Serif" font-size="10.00">Util::normalizeFolderPath</text>
</a>
</g>
</g>
<!-- Node1&#45;&gt;Node3 -->
<g id="edge4" class="edge"><title>Node1&#45;&gt;Node3</title>
<path fill="none" stroke="midnightblue" d="M259.371,-112.626C279.516,-121.639 312.169,-134.991 341.866,-141.5 401.697,-154.614 471.14,-159.1 522.294,-160.455"/>
<polygon fill="midnightblue" stroke="midnightblue" points="522.519,-163.961 532.597,-160.693 522.68,-156.963 522.519,-163.961"/>
</g>
<!-- Node4 -->
<g id="node5" class="node"><title>Node4</title>
<g id="a_node5"><a xlink:href="class_util.html#ab6622ba9b278132fa22ea85d224082f2" target="_top" xlink:title="Util::findBinaryInPath search for executables. ">
<polygon fill="none" stroke="black" points="364.659,-113.5 364.659,-131.5 474.038,-131.5 474.038,-113.5 364.659,-113.5"/>
<text text-anchor="middle" x="419.349" y="-119.5" font-family="Helvetica,sans-Serif" font-size="10.00">Util::findBinaryInPath</text>
</a>
</g>
</g>
<!-- Node1&#45;&gt;Node4 -->
<g id="edge5" class="edge"><title>Node1&#45;&gt;Node4</title>
<path fill="none" stroke="midnightblue" d="M305.874,-110.521C321.751,-112.212 338.685,-114.016 354.467,-115.696"/>
<polygon fill="midnightblue" stroke="midnightblue" points="354.335,-119.202 364.649,-116.781 355.076,-112.241 354.335,-119.202"/>
</g>
<!-- Node5 -->
<g id="node6" class="node"><title>Node5</title>
<g id="a_node6"><a xlink:href="class_util.html#af23940548a0dcd3ade9c052d38ad0549" target="_top" xlink:title="Util::checkConfig do we have prequisite settings? ">
<polygon fill="none" stroke="black" points="551.449,-57.5 551.449,-75.5 642.479,-75.5 642.479,-57.5 551.449,-57.5"/>
<text text-anchor="middle" x="596.964" y="-63.5" font-family="Helvetica,sans-Serif" font-size="10.00">Util::checkConfig</text>
</a>
</g>
</g>
<!-- Node1&#45;&gt;Node5 -->
<g id="edge6" class="edge"><title>Node1&#45;&gt;Node5</title>
<path fill="none" stroke="midnightblue" d="M259.342,-94.4398C279.464,-85.5709 312.099,-72.6632 341.866,-67.5 409.572,-55.7561 488.96,-57.9336 540.747,-61.439"/>
<polygon fill="midnightblue" stroke="midnightblue" points="540.819,-64.9531 551.044,-62.1783 541.32,-57.9711 540.819,-64.9531"/>
</g>
<!-- Node6 -->
<g id="node7" class="node"><title>Node6</title>
<g id="a_node7"><a xlink:href="class_main_window.html#aeb8091ab5531144b76c1fbb0d63deb56" target="_top" xlink:title="MainWindow::config pops up the configuration screen and handles all inter&#45;window communication. ">
<polygon fill="none" stroke="black" points="366.607,-76.5 366.607,-94.5 472.09,-94.5 472.09,-76.5 366.607,-76.5"/>
<text text-anchor="middle" x="419.349" y="-82.5" font-family="Helvetica,sans-Serif" font-size="10.00">MainWindow::config</text>
</a>
</g>
</g>
<!-- Node1&#45;&gt;Node6 -->
<g id="edge7" class="edge"><title>Node1&#45;&gt;Node6</title>
<path fill="none" stroke="midnightblue" d="M305.874,-96.8486C322.395,-95.1816 340.062,-93.3991 356.383,-91.7523"/>
<polygon fill="midnightblue" stroke="midnightblue" points="356.751,-95.233 366.349,-90.7467 356.048,-88.2684 356.751,-95.233"/>
</g>
<!-- Node7 -->
<g id="node8" class="node"><title>Node7</title>
<g id="a_node8"><a xlink:href="class_store_model.html#af223e13120a72e556a394aae4a92ad0f" target="_top" xlink:title="StoreModel::setModelAndStore update the source model and store. ">
<polygon fill="none" stroke="black" points="341.866,-0.5 341.866,-18.5 496.831,-18.5 496.831,-0.5 341.866,-0.5"/>
<text text-anchor="middle" x="419.349" y="-6.5" font-family="Helvetica,sans-Serif" font-size="10.00">StoreModel::setModelAndStore</text>
</a>
</g>
</g>
<!-- Node1&#45;&gt;Node7 -->
<g id="edge10" class="edge"><title>Node1&#45;&gt;Node7</title>
<path fill="none" stroke="midnightblue" d="M250.882,-94.3437C268.838,-79.6957 306.161,-50.8783 341.866,-33.5 351.349,-28.8847 361.919,-24.8988 372.103,-21.574"/>
<polygon fill="midnightblue" stroke="midnightblue" points="373.19,-24.9014 381.7,-18.59 371.111,-18.2171 373.19,-24.9014"/>
</g>
<!-- Node2&#45;&gt;Node3 -->
<g id="edge3" class="edge"><title>Node2&#45;&gt;Node3</title>
<path fill="none" stroke="midnightblue" d="M461.967,-189.495C486.7,-184.143 518.269,-177.312 544.551,-171.625"/>
<polygon fill="midnightblue" stroke="midnightblue" points="545.307,-175.042 554.34,-169.507 543.826,-168.201 545.307,-175.042"/>
</g>
<!-- Node6&#45;&gt;Node3 -->
<g id="edge8" class="edge"><title>Node6&#45;&gt;Node3</title>
<path fill="none" stroke="midnightblue" d="M465.477,-94.5586C475.943,-97.2473 486.916,-100.553 496.831,-104.5 524.893,-115.671 554.773,-133.457 574.304,-145.982"/>
<polygon fill="midnightblue" stroke="midnightblue" points="572.467,-148.962 582.756,-151.49 576.288,-143.098 572.467,-148.962"/>
</g>
<!-- Node6&#45;&gt;Node5 -->
<g id="edge9" class="edge"><title>Node6&#45;&gt;Node5</title>
<path fill="none" stroke="midnightblue" d="M472.564,-79.8508C494.21,-77.5089 519.33,-74.7911 541.234,-72.4213"/>
<polygon fill="midnightblue" stroke="midnightblue" points="541.807,-75.8799 551.372,-71.3244 541.054,-68.9205 541.807,-75.8799"/>
</g>
</g>
</svg>
