<?xml version="1.0" encoding="UTF-8" standalone="no"?>
<!DOCTYPE svg PUBLIC "-//W3C//DTD SVG 1.1//EN"
 "http://www.w3.org/Graphics/SVG/1.1/DTD/svg11.dtd">
<!-- Generated by graphviz version 2.40.1 (20161225.0304)
 -->
<!-- Title: NamedValues::takeValue Pages: 1 -->
<svg width="488pt" height="27pt"
 viewBox="0.00 0.00 487.81 27.00" xmlns="http://www.w3.org/2000/svg" xmlns:xlink="http://www.w3.org/1999/xlink">
<g id="graph0" class="graph" transform="scale(1 1) rotate(0) translate(4 23)">
<title>NamedValues::takeValue</title>
<!-- Node5 -->
<g id="node1" class="node">
<title>Node5</title>
<polygon fill="#bfbfbf" stroke="#000000" points="0,-.5 0,-18.5 127.3721,-18.5 127.3721,-.5 0,-.5"/>
<text text-anchor="middle" x="63.686" y="-6.5" font-family="Helvetica,sans-Serif" font-size="10.00" fill="#000000">NamedValues::takeValue</text>
</g>
<!-- Node6 -->
<g id="node2" class="node">
<title>Node6</title>
<g id="a_node2"><a xlink:href="class_password_dialog.html#a89b320eb34026b488c5c685ee6b16623" target="_top" xlink:title="Sets content in the password field in the interface. ">
<polygon fill="none" stroke="#000000" points="163.3721,-.5 163.3721,-18.5 314.4307,-18.5 314.4307,-.5 163.3721,-.5"/>
<text text-anchor="middle" x="238.9014" y="-6.5" font-family="Helvetica,sans-Serif" font-size="10.00" fill="#000000">PasswordDialog::setPassword</text>
</a>
</g>
</g>
<!-- Node5&#45;&gt;Node6 -->
<g id="edge1" class="edge">
<title>Node5&#45;&gt;Node6</title>
<path fill="none" stroke="#191970" d="M137.6665,-9.5C146.1406,-9.5 154.789,-9.5 163.2842,-9.5"/>
<polygon fill="#191970" stroke="#191970" points="137.4385,-6.0001 127.4384,-9.5 137.4384,-13.0001 137.4385,-6.0001"/>
</g>
<!-- Node7 -->
<g id="node3" class="node">
<title>Node7</title>
<g id="a_node3"><a xlink:href="class_password_dialog.html#aca023385bb581500a1e4a880a6283ad8" target="_top" xlink:title="PasswordDialog::setPass">
<polygon fill="none" stroke="#000000" points="350.4307,-.5 350.4307,-18.5 479.8145,-18.5 479.8145,-.5 350.4307,-.5"/>
<text text-anchor="middle" x="415.1226" y="-6.5" font-family="Helvetica,sans-Serif" font-size="10.00" fill="#000000">PasswordDialog::setPass</text>
</a>
</g>
</g>
<!-- Node6&#45;&gt;Node7 -->
<g id="edge2" class="edge">
<title>Node6&#45;&gt;Node7</title>
<path fill="none" stroke="#191970" d="M324.7064,-9.5C333.2944,-9.5 341.9117,-9.5 350.2316,-9.5"/>
<polygon fill="#191970" stroke="#191970" points="324.6577,-6.0001 314.6577,-9.5 324.6577,-13.0001 324.6577,-6.0001"/>
</g>
</g>
</svg>
