<?xml version="1.0" encoding="UTF-8" standalone="no"?>
<!DOCTYPE svg PUBLIC "-//W3C//DTD SVG 1.1//EN"
 "http://www.w3.org/Graphics/SVG/1.1/DTD/svg11.dtd">
<!-- Generated by graphviz version 2.43.0 (0)
 -->
<!-- Title: QtPassSettings::setGitExecutable Pages: 1 -->
<svg width="499pt" height="64pt"
 viewBox="0.00 0.00 499.00 64.00" xmlns="http://www.w3.org/2000/svg" xmlns:xlink="http://www.w3.org/1999/xlink">
<g id="graph0" class="graph" transform="scale(1 1) rotate(0) translate(4 60)">
<title>QtPassSettings::setGitExecutable</title>
<!-- Node1 -->
<g id="Node000001" class="node">
<title>Node1</title>
<g id="a_Node000001"><a xlink:title="Save git executable path.">
<polygon fill="#999999" stroke="#666666" points="491,-37 313,-37 313,-18 491,-18 491,-37"/>
<text text-anchor="middle" x="402" y="-25" font-family="Helvetica,sans-Serif" font-size="10.00">QtPassSettings::setGitExecutable</text>
</a>
</g>
</g>
<!-- Node2 -->
<g id="Node000002" class="node">
<title>Node2</title>
<g id="a_Node000002"><a xlink:href="class_qt_pass_settings.html#a64ffdab0605be803054150d438254c56" target="_top" xlink:title="Initialize executable paths by auto&#45;detecting them.">
<polygon fill="white" stroke="#666666" points="277,-56 107,-56 107,-37 277,-37 277,-56"/>
<text text-anchor="middle" x="192" y="-44" font-family="Helvetica,sans-Serif" font-size="10.00">QtPassSettings::initExecutables</text>
</a>
</g>
</g>
<!-- Node1&#45;&gt;Node2 -->
<g id="edge1_Node000001_Node000002" class="edge">
<title>Node1&#45;&gt;Node2</title>
<g id="a_edge1_Node000001_Node000002"><a xlink:title=" ">
<path fill="none" stroke="#63b8ff" d="M302.74,-36.48C294.15,-37.26 285.5,-38.05 277.04,-38.82"/>
<polygon fill="#63b8ff" stroke="#63b8ff" points="303.15,-39.95 312.79,-35.56 302.51,-32.98 303.15,-39.95"/>
</a>
</g>
</g>
<!-- Node4 -->
<g id="Node000004" class="node">
<title>Node4</title>
<g id="a_Node000004"><a xlink:href="class_config_dialog.html#a1b7b022b97d128fb1f749c9190f20b4a" target="_top" xlink:title="ConfigDialog::~ConfigDialog config destructor, makes sure the mainWindow knows about git,...">
<polygon fill="white" stroke="#666666" points="269.5,-19 114.5,-19 114.5,0 269.5,0 269.5,-19"/>
<text text-anchor="middle" x="192" y="-7" font-family="Helvetica,sans-Serif" font-size="10.00">ConfigDialog::~ConfigDialog</text>
</a>
</g>
</g>
<!-- Node1&#45;&gt;Node4 -->
<g id="edge3_Node000001_Node000004" class="edge">
<title>Node1&#45;&gt;Node4</title>
<g id="a_edge3_Node000001_Node000004"><a xlink:title=" ">
<path fill="none" stroke="#63b8ff" d="M302.62,-18.99C291.49,-18.02 280.29,-17.05 269.51,-16.12"/>
<polygon fill="#63b8ff" stroke="#63b8ff" points="302.52,-22.49 312.79,-19.87 303.13,-15.52 302.52,-22.49"/>
</a>
</g>
</g>
<!-- Node3 -->
<g id="Node000003" class="node">
<title>Node3</title>
<g id="a_Node000003"><a xlink:href="class_qt_pass.html#ad0a4d7627e6303e412d4a832a8bad77c" target="_top" xlink:title="QtPass::init make sure we are ready to go as soon as possible.">
<polygon fill="white" stroke="#666666" points="71,-56 0,-56 0,-37 71,-37 71,-56"/>
<text text-anchor="middle" x="35.5" y="-44" font-family="Helvetica,sans-Serif" font-size="10.00">QtPass::init</text>
</a>
</g>
</g>
<!-- Node2&#45;&gt;Node3 -->
<g id="edge2_Node000002_Node000003" class="edge">
<title>Node2&#45;&gt;Node3</title>
<g id="a_edge2_Node000002_Node000003"><a xlink:title=" ">
<path fill="none" stroke="#63b8ff" d="M96.72,-46.5C87.73,-46.5 79.07,-46.5 71.26,-46.5"/>
<polygon fill="#63b8ff" stroke="#63b8ff" points="96.97,-50 106.97,-46.5 96.97,-43 96.97,-50"/>
</a>
</g>
</g>
</g>
</svg>
