<?xml version="1.0" encoding="UTF-8" standalone="no"?>
<!DOCTYPE svg PUBLIC "-//W3C//DTD SVG 1.1//EN"
 "http://www.w3.org/Graphics/SVG/1.1/DTD/svg11.dtd">
<!-- Generated by graphviz version 2.40.1 (20161225.0304)
 -->
<!-- Title: QProgressIndicator::paintEvent Pages: 1 -->
<svg width="423pt" height="382pt"
 viewBox="0.00 0.00 423.00 382.00" xmlns="http://www.w3.org/2000/svg" xmlns:xlink="http://www.w3.org/1999/xlink">
<g id="graph0" class="graph" transform="scale(1 1) rotate(0) translate(4 378)">
<title>QProgressIndicator::paintEvent</title>
<!-- Node34 -->
<g id="node1" class="node">
<title>Node34</title>
<polygon fill="#bfbfbf" stroke="#000000" points="0,-147.5 0,-177.5 101,-177.5 101,-147.5 0,-147.5"/>
<text text-anchor="start" x="8" y="-165.5" font-family="Helvetica,sans-Serif" font-size="10.00" fill="#000000">QProgressIndicator</text>
<text text-anchor="middle" x="50.5" y="-154.5" font-family="Helvetica,sans-Serif" font-size="10.00" fill="#000000">::paintEvent</text>
</g>
<!-- Node35 -->
<g id="node2" class="node">
<title>Node35</title>
<g id="a_node2"><a xlink:href="class_q_progress_indicator.html#aa145f555e2d7c48ecdd1517a7addf080" target="_top" xlink:title="Returns a Boolean value indicating whether the component is currently animated. ">
<polygon fill="none" stroke="#000000" points="137,-196.5 137,-226.5 238,-226.5 238,-196.5 137,-196.5"/>
<text text-anchor="start" x="145" y="-214.5" font-family="Helvetica,sans-Serif" font-size="10.00" fill="#000000">QProgressIndicator</text>
<text text-anchor="middle" x="187.5" y="-203.5" font-family="Helvetica,sans-Serif" font-size="10.00" fill="#000000">::isAnimated</text>
</a>
</g>
</g>
<!-- Node34&#45;&gt;Node35 -->
<g id="edge1" class="edge">
<title>Node34&#45;&gt;Node35</title>
<path fill="none" stroke="#191970" d="M92.7224,-177.6014C106.2648,-182.4451 121.4224,-187.8664 135.5755,-192.9285"/>
<polygon fill="#191970" stroke="#191970" points="134.5866,-196.2918 145.1812,-196.3641 136.944,-189.7007 134.5866,-196.2918"/>
</g>
<!-- Node36 -->
<g id="node3" class="node">
<title>Node36</title>
<g id="a_node3"><a xlink:href="class_q_progress_indicator.html#afdc92dfc35132dadcce9fd45adc51c65" target="_top" xlink:title="Returns the color of the component. ">
<polygon fill="none" stroke="#000000" points="137,-147.5 137,-177.5 238,-177.5 238,-147.5 137,-147.5"/>
<text text-anchor="start" x="145" y="-165.5" font-family="Helvetica,sans-Serif" font-size="10.00" fill="#000000">QProgressIndicator</text>
<text text-anchor="middle" x="187.5" y="-154.5" font-family="Helvetica,sans-Serif" font-size="10.00" fill="#000000">::color</text>
</a>
</g>
</g>
<!-- Node34&#45;&gt;Node36 -->
<g id="edge2" class="edge">
<title>Node34&#45;&gt;Node36</title>
<path fill="none" stroke="#191970" d="M101.1245,-155.9586C109.3614,-155.7623 117.969,-155.7045 126.4239,-155.7854"/>
<polygon fill="#191970" stroke="#191970" points="126.5701,-159.2881 136.6262,-155.9527 126.685,-152.2891 126.5701,-159.2881"/>
</g>
<!-- Node36&#45;&gt;Node34 -->
<g id="edge12" class="edge">
<title>Node36&#45;&gt;Node34</title>
<path fill="none" stroke="#191970" d="M136.6262,-169.0473C128.3819,-169.2408 119.7722,-169.2958 111.3203,-169.2122"/>
<polygon fill="#191970" stroke="#191970" points="111.1817,-165.7094 101.1245,-169.0414 111.0645,-172.7085 111.1817,-165.7094"/>
</g>
<!-- Node37 -->
<g id="node4" class="node">
<title>Node37</title>
<g id="a_node4"><a xlink:href="class_q_progress_indicator.html#a9c40197f0b508b4ff76439e1a3fc9d8d" target="_top" xlink:title="QProgressIndicator::sizeHint default minimum size. ">
<polygon fill="none" stroke="#000000" points="294,-343.5 294,-373.5 395,-373.5 395,-343.5 294,-343.5"/>
<text text-anchor="start" x="302" y="-361.5" font-family="Helvetica,sans-Serif" font-size="10.00" fill="#000000">QProgressIndicator</text>
<text text-anchor="middle" x="344.5" y="-350.5" font-family="Helvetica,sans-Serif" font-size="10.00" fill="#000000">::sizeHint</text>
</a>
</g>
</g>
<!-- Node36&#45;&gt;Node37 -->
<g id="edge3" class="edge">
<title>Node36&#45;&gt;Node37</title>
<path fill="none" stroke="#191970" d="M227.0307,-177.5971C231.1503,-180.4036 234.9409,-183.6832 238,-187.5 280.0669,-239.9864 228.574,-284.8923 274,-334.5 277.1298,-337.9179 280.7652,-340.8492 284.7033,-343.3631"/>
<polygon fill="#191970" stroke="#191970" points="283.2658,-346.5642 293.7294,-348.2267 286.5864,-340.4019 283.2658,-346.5642"/>
</g>
<!-- Node38 -->
<g id="node5" class="node">
<title>Node38</title>
<g id="a_node5"><a xlink:href="class_q_progress_indicator.html#adf5a0a0297ca8a78e601085d2283d183" target="_top" xlink:title="QProgressIndicator::heightForWidth square ratio. ">
<polygon fill="none" stroke="#000000" points="294,-294.5 294,-324.5 395,-324.5 395,-294.5 294,-294.5"/>
<text text-anchor="start" x="302" y="-312.5" font-family="Helvetica,sans-Serif" font-size="10.00" fill="#000000">QProgressIndicator</text>
<text text-anchor="middle" x="344.5" y="-301.5" font-family="Helvetica,sans-Serif" font-size="10.00" fill="#000000">::heightForWidth</text>
</a>
</g>
</g>
<!-- Node36&#45;&gt;Node38 -->
<g id="edge4" class="edge">
<title>Node36&#45;&gt;Node38</title>
<path fill="none" stroke="#191970" d="M226.1215,-177.6133C230.5002,-180.4355 234.6016,-183.7146 238,-187.5 268.9983,-222.0282 240.7992,-253.0841 274,-285.5 277.2625,-288.6853 280.964,-291.4485 284.9216,-293.8454"/>
<polygon fill="#191970" stroke="#191970" points="283.4372,-297.0184 293.9237,-298.5292 286.6681,-290.8087 283.4372,-297.0184"/>
</g>
<!-- Node39 -->
<g id="node6" class="node">
<title>Node39</title>
<g id="a_node6"><a xlink:href="class_q_progress_indicator.html#a53aa626e870ee75390766c6044788d06" target="_top" xlink:title="Starts the spin animation. ">
<polygon fill="none" stroke="#000000" points="294,-245.5 294,-275.5 395,-275.5 395,-245.5 294,-245.5"/>
<text text-anchor="start" x="302" y="-263.5" font-family="Helvetica,sans-Serif" font-size="10.00" fill="#000000">QProgressIndicator</text>
<text text-anchor="middle" x="344.5" y="-252.5" font-family="Helvetica,sans-Serif" font-size="10.00" fill="#000000">::startAnimation</text>
</a>
</g>
</g>
<!-- Node36&#45;&gt;Node39 -->
<g id="edge5" class="edge">
<title>Node36&#45;&gt;Node39</title>
<path fill="none" stroke="#191970" d="M223.3363,-177.535C228.5143,-180.4601 233.5795,-183.7886 238,-187.5 258.6962,-204.8764 252.2064,-220.5216 274,-236.5 277.2503,-238.883 280.7544,-241.0416 284.4022,-242.995"/>
<polygon fill="#191970" stroke="#191970" points="283.1712,-246.2858 293.7031,-247.439 286.1891,-239.9697 283.1712,-246.2858"/>
</g>
<!-- Node40 -->
<g id="node7" class="node">
<title>Node40</title>
<g id="a_node7"><a xlink:href="class_q_progress_indicator.html#a27ea54a92ade9c85761918cb98c96f95" target="_top" xlink:title="Stops the spin animation. ">
<polygon fill="none" stroke="#000000" points="294,-196.5 294,-226.5 395,-226.5 395,-196.5 294,-196.5"/>
<text text-anchor="start" x="302" y="-214.5" font-family="Helvetica,sans-Serif" font-size="10.00" fill="#000000">QProgressIndicator</text>
<text text-anchor="middle" x="344.5" y="-203.5" font-family="Helvetica,sans-Serif" font-size="10.00" fill="#000000">::stopAnimation</text>
</a>
</g>
</g>
<!-- Node36&#45;&gt;Node40 -->
<g id="edge6" class="edge">
<title>Node36&#45;&gt;Node40</title>
<path fill="none" stroke="#191970" d="M235.8862,-177.6014C251.9287,-182.6083 269.9488,-188.2324 286.631,-193.439"/>
<polygon fill="#191970" stroke="#191970" points="285.6849,-196.8101 296.2735,-196.4484 287.7704,-190.128 285.6849,-196.8101"/>
</g>
<!-- Node41 -->
<g id="node8" class="node">
<title>Node41</title>
<g id="a_node8"><a xlink:href="class_q_progress_indicator.html#acf826f02de241cb47fa329bf437d450d" target="_top" xlink:title="Sets the delay between animation steps. ">
<polygon fill="none" stroke="#000000" points="292,-147.5 292,-177.5 397,-177.5 397,-147.5 292,-147.5"/>
<text text-anchor="start" x="300" y="-165.5" font-family="Helvetica,sans-Serif" font-size="10.00" fill="#000000">QProgressIndicator</text>
<text text-anchor="middle" x="344.5" y="-154.5" font-family="Helvetica,sans-Serif" font-size="10.00" fill="#000000">::setAnimationDelay</text>
</a>
</g>
</g>
<!-- Node36&#45;&gt;Node41 -->
<g id="edge7" class="edge">
<title>Node36&#45;&gt;Node41</title>
<path fill="none" stroke="#191970" d="M238.04,-162.5C251.8895,-162.5 267.0746,-162.5 281.5282,-162.5"/>
<polygon fill="#191970" stroke="#191970" points="281.8938,-166.0001 291.8938,-162.5 281.8937,-159.0001 281.8938,-166.0001"/>
</g>
<!-- Node42 -->
<g id="node9" class="node">
<title>Node42</title>
<g id="a_node9"><a xlink:href="class_q_progress_indicator.html#ab50e609e706868a0cd28caee364c3d13" target="_top" xlink:title="Sets whether the component hides itself when it is not animating. ">
<polygon fill="none" stroke="#000000" points="274,-98.5 274,-128.5 415,-128.5 415,-98.5 274,-98.5"/>
<text text-anchor="start" x="282" y="-116.5" font-family="Helvetica,sans-Serif" font-size="10.00" fill="#000000">QProgressIndicator</text>
<text text-anchor="middle" x="344.5" y="-105.5" font-family="Helvetica,sans-Serif" font-size="10.00" fill="#000000">::setDisplayedWhenStopped</text>
</a>
</g>
</g>
<!-- Node36&#45;&gt;Node42 -->
<g id="edge8" class="edge">
<title>Node36&#45;&gt;Node42</title>
<path fill="none" stroke="#191970" d="M235.8862,-147.3986C251.9287,-142.3917 269.9488,-136.7676 286.631,-131.561"/>
<polygon fill="#191970" stroke="#191970" points="287.7704,-134.872 296.2735,-128.5516 285.6849,-128.1899 287.7704,-134.872"/>
</g>
<!-- Node43 -->
<g id="node10" class="node">
<title>Node43</title>
<g id="a_node10"><a xlink:href="class_q_progress_indicator.html#a62161c81afb5ce019e9a7a55c69e3654" target="_top" xlink:title="Sets the color of the components to the given color. ">
<polygon fill="none" stroke="#000000" points="294,-49.5 294,-79.5 395,-79.5 395,-49.5 294,-49.5"/>
<text text-anchor="start" x="302" y="-67.5" font-family="Helvetica,sans-Serif" font-size="10.00" fill="#000000">QProgressIndicator</text>
<text text-anchor="middle" x="344.5" y="-56.5" font-family="Helvetica,sans-Serif" font-size="10.00" fill="#000000">::setColor</text>
</a>
</g>
</g>
<!-- Node36&#45;&gt;Node43 -->
<g id="edge9" class="edge">
<title>Node36&#45;&gt;Node43</title>
<path fill="none" stroke="#191970" d="M196.4936,-147.3404C211.3363,-128.6576 242.4675,-98.5907 274,-80.5 277.3881,-78.5562 280.9532,-76.7241 284.607,-75.0188"/>
<polygon fill="#191970" stroke="#191970" points="286.0221,-78.2202 293.8218,-71.0498 283.2529,-71.7912 286.0221,-78.2202"/>
</g>
<!-- Node44 -->
<g id="node11" class="node">
<title>Node44</title>
<g id="a_node11"><a xlink:href="class_q_progress_indicator.html#a121c7de89fecff682c45d2adee60310d" target="_top" xlink:title="QProgressIndicator::timerEvent do the actual animation. ">
<polygon fill="none" stroke="#000000" points="294,-.5 294,-30.5 395,-30.5 395,-.5 294,-.5"/>
<text text-anchor="start" x="302" y="-18.5" font-family="Helvetica,sans-Serif" font-size="10.00" fill="#000000">QProgressIndicator</text>
<text text-anchor="middle" x="344.5" y="-7.5" font-family="Helvetica,sans-Serif" font-size="10.00" fill="#000000">::timerEvent</text>
</a>
</g>
</g>
<!-- Node36&#45;&gt;Node44 -->
<g id="edge11" class="edge">
<title>Node36&#45;&gt;Node44</title>
<path fill="none" stroke="#191970" d="M194.3257,-147.4808C206.6656,-121.9354 235.0647,-69.94 274,-40.5 277.3795,-37.9447 281.0426,-35.6347 284.8622,-33.5489"/>
<polygon fill="#191970" stroke="#191970" points="286.554,-36.6176 293.9986,-29.0792 283.4778,-30.3298 286.554,-36.6176"/>
</g>
<!-- Node43&#45;&gt;Node36 -->
<g id="edge10" class="edge">
<title>Node43&#45;&gt;Node36</title>
<path fill="none" stroke="#191970" d="M317.7322,-79.5504C304.125,-84.6677 287.6297,-90.6804 274,-98.5 253.5345,-110.2414 233.238,-127.0276 217.4541,-140.6148"/>
<polygon fill="#191970" stroke="#191970" points="214.9038,-138.1933 209.6345,-147.3848 219.4857,-143.4855 214.9038,-138.1933"/>
</g>
</g>
</svg>
