<?xml version="1.0" encoding="UTF-8" standalone="no"?>
<!DOCTYPE svg PUBLIC "-//W3C//DTD SVG 1.1//EN"
 "http://www.w3.org/Graphics/SVG/1.1/DTD/svg11.dtd">
<!-- Generated by graphviz version 2.43.0 (0)
 -->
<!-- Title: ImitatePass::executeGpg Pages: 1 -->
<!--zoomable 131 -->

<svg id="main" version="1.1" xmlns="http://www.w3.org/2000/svg" xmlns:xlink="http://www.w3.org/1999/xlink" xml:space="preserve" onload="init(evt)">

<style type="text/css"><![CDATA[
.node, .edge {opacity: 0.7;}
.node.selected, .edge.selected {opacity: 1;}
.edge:hover path { stroke: red; }
.edge:hover polygon { stroke: red; fill: red; }
]]></style>

<defs>
  <circle id="rim" cx="0" cy="0" r="7"/>
  <circle id="rim2" cx="0" cy="0" r="3.5"/>
  <g id="zoomPlus">
    <use xlink:href="#rim" fill="#404040"><set attributeName="fill" to="#808080" begin="zoomplus.mouseover" end="zoomplus.mouseout"/></use>
    <path d="M-4,0h8M0,-4v8" fill="none" stroke="white" stroke-width="1.5" pointer-events="none"/>
  </g>
  <g id="zoomMin">
    <use xlink:href="#rim" fill="#404040"><set attributeName="fill" to="#808080" begin="zoomminus.mouseover" end="zoomminus.mouseout"/></use>
    <path d="M-4,0h8" fill="none" stroke="white" stroke-width="1.5" pointer-events="none"/>
  </g>
  <g id="arrowUp" transform="translate(30 24)">
    <use xlink:href="#rim"/>
    <path pointer-events="none" fill="none" stroke="white" stroke-width="1.5" d="M0,-3.0v7 M-2.5,-0.5L0,-3.0L2.5,-0.5"/>
  </g>
  <g id="arrowRight" transform="rotate(90) translate(36 -43)">
    <use xlink:href="#rim"/>
    <path pointer-events="none" fill="none" stroke="white" stroke-width="1.5" d="M0,-3.0v7 M-2.5,-0.5L0,-3.0L2.5,-0.5"/>
  </g>
  <g id="arrowDown" transform="rotate(180) translate(-30 -48)">
    <use xlink:href="#rim"/>
    <path pointer-events="none" fill="none" stroke="white" stroke-width="1.5" d="M0,-3.0v7 M-2.5,-0.5L0,-3.0L2.5,-0.5"/>
  </g>
  <g id="arrowLeft" transform="rotate(270) translate(-36 17)">
    <use xlink:href="#rim"/>
    <path pointer-events="none" fill="none" stroke="white" stroke-width="1.5" d="M0,-3.0v7 M-2.5,-0.5L0,-3.0L2.5,-0.5"/>
  </g>
  <g id="resetDef">
    <use xlink:href="#rim2" fill="#404040"><set attributeName="fill" to="#808080" begin="reset.mouseover" end="reset.mouseout"/></use>
  </g>
</defs>
<script type="application/ecmascript">
var viewWidth = 553;
var viewHeight = 131;
var sectionId = 'dynsection-10';
</script>
<script type="application/ecmascript" xlink:href="svg.min.js"/>
<svg id="graph" class="graph">
<g id="viewport">
<title>ImitatePass::executeGpg</title>
<!-- Node1 -->
<g id="Node000001" class="node">
<title>Node1</title>
<g id="a_Node000001"><a xlink:title="Execute GPG command.">
<polygon fill="#999999" stroke="#666666" points="137,-40 0,-40 0,-21 137,-21 137,-40"/>
<text text-anchor="middle" x="68.5" y="-28" font-family="Helvetica,sans-Serif" font-size="10.00">ImitatePass::executeGpg</text>
</a>
</g>
</g>
<!-- Node2 -->
<g id="Node000002" class="node">
<title>Node2</title>
<g id="a_Node000002"><a xlink:href="class_imitate_pass.html#aa2ade77096c04fb94536d675bfaae8fe" target="_top" xlink:title="Execute command wrapper.">
<polygon fill="white" stroke="#666666" points="344.5,-62 185.5,-62 185.5,-43 344.5,-43 344.5,-62"/>
<text text-anchor="middle" x="265" y="-50" font-family="Helvetica,sans-Serif" font-size="10.00">ImitatePass::executeWrapper</text>
</a>
</g>
</g>
<!-- Node1&#45;&gt;Node2 -->
<g id="edge1_Node000001_Node000002" class="edge">
<title>Node1&#45;&gt;Node2</title>
<g id="a_edge1_Node000001_Node000002"><a xlink:title=" ">
<path fill="none" stroke="#63b8ff" d="M137.25,-38.16C149.54,-39.55 162.52,-41.02 175.29,-42.47"/>
<polygon fill="#63b8ff" stroke="#63b8ff" points="175.15,-45.97 185.48,-43.62 175.94,-39.02 175.15,-45.97"/>
</a>
</g>
</g>
<!-- Node5 -->
<g id="Node000005" class="node">
<title>Node5</title>
<g id="a_Node000005"><a xlink:href="class_qt_pass_settings.html#a6d9beabe93c829cacdcc6c27792ffdba" target="_top" xlink:title="Get GPG executable path.">
<polygon fill="white" stroke="#666666" points="357,-22 173,-22 173,-3 357,-3 357,-22"/>
<text text-anchor="middle" x="265" y="-10" font-family="Helvetica,sans-Serif" font-size="10.00">QtPassSettings::getGpgExecutable</text>
</a>
</g>
</g>
<!-- Node1&#45;&gt;Node5 -->
<g id="edge5_Node000001_Node000005" class="edge">
<title>Node1&#45;&gt;Node5</title>
<g id="a_edge5_Node000001_Node000005"><a xlink:title=" ">
<path fill="none" stroke="#63b8ff" d="M137.25,-24.23C145.53,-23.46 154.12,-22.67 162.75,-21.87"/>
<polygon fill="#63b8ff" stroke="#63b8ff" points="163.25,-25.34 172.88,-20.93 162.6,-18.37 163.25,-25.34"/>
</a>
</g>
</g>
<!-- Node3 -->
<g id="Node000003" class="node">
<title>Node3</title>
<g id="a_Node000003"><a xlink:href="class_pass.html#a66f59138ffe856fd421410d9af9ddc62" target="_top" xlink:title="Execute external wrapper command.">
<polygon fill="white" stroke="#666666" points="531,-105 407,-105 407,-86 531,-86 531,-105"/>
<text text-anchor="middle" x="469" y="-93" font-family="Helvetica,sans-Serif" font-size="10.00">Pass::executeWrapper</text>
</a>
</g>
</g>
<!-- Node2&#45;&gt;Node3 -->
<g id="edge2_Node000002_Node000003" class="edge">
<title>Node2&#45;&gt;Node3</title>
<g id="a_edge2_Node000002_Node000003"><a xlink:title=" ">
<path fill="none" stroke="#63b8ff" d="M310.83,-62.04C341.04,-68.47 381.07,-77 413.17,-83.83"/>
<polygon fill="#63b8ff" stroke="#63b8ff" points="412.79,-87.32 423.29,-85.98 414.24,-80.48 412.79,-87.32"/>
</a>
</g>
</g>
<!-- Node4 -->
<g id="Node000004" class="node">
<title>Node4</title>
<g id="a_Node000004"><a xlink:href="classsimple_transaction.html#a974db4056edcb408e96cf9bc2a6e4326" target="_top" xlink:title="transactionAdd If called after call to transactionStart() and before transactionEnd(),...">
<polygon fill="white" stroke="#666666" points="524.5,-67.5 413.5,-67.5 413.5,-37.5 524.5,-37.5 524.5,-67.5"/>
<text text-anchor="start" x="421.5" y="-55.5" font-family="Helvetica,sans-Serif" font-size="10.00">simpleTransaction::</text>
<text text-anchor="middle" x="469" y="-44.5" font-family="Helvetica,sans-Serif" font-size="10.00">transactionAdd</text>
</a>
</g>
</g>
<!-- Node2&#45;&gt;Node4 -->
<g id="edge4_Node000002_Node000004" class="edge">
<title>Node2&#45;&gt;Node4</title>
<g id="a_edge4_Node000002_Node000004"><a xlink:title=" ">
<path fill="none" stroke="#63b8ff" d="M344.68,-52.5C364.02,-52.5 384.52,-52.5 403.14,-52.5"/>
<polygon fill="#63b8ff" stroke="#63b8ff" points="403.26,-56 413.26,-52.5 403.26,-49 403.26,-56"/>
</a>
</g>
</g>
<!-- Node3&#45;&gt;Node3 -->
<g id="edge3_Node000003_Node000003" class="edge">
<title>Node3&#45;&gt;Node3</title>
<g id="a_edge3_Node000003_Node000003"><a xlink:title=" ">
<path fill="none" stroke="#63b8ff" d="M437.56,-105.08C422.26,-113.73 432.74,-123 469,-123 494.49,-123 507.24,-118.42 507.25,-112.69"/>
<polygon fill="#63b8ff" stroke="#63b8ff" points="509.72,-110.2 500.44,-105.08 504.5,-114.87 509.72,-110.2"/>
</a>
</g>
</g>
<!-- Node6 -->
<g id="Node000006" class="node">
<title>Node6</title>
<g id="a_Node000006"><a xlink:href="class_qt_pass_settings.html#a2483e7de01f9e312ee0fbf8a1637f29d" target="_top" xlink:title="Get the singleton instance.">
<polygon fill="white" stroke="#666666" points="545,-19 393,-19 393,0 545,0 545,-19"/>
<text text-anchor="middle" x="469" y="-7" font-family="Helvetica,sans-Serif" font-size="10.00">QtPassSettings::getInstance</text>
</a>
</g>
</g>
<!-- Node5&#45;&gt;Node6 -->
<g id="edge6_Node000005_Node000006" class="edge">
<title>Node5&#45;&gt;Node6</title>
<g id="a_edge6_Node000005_Node000006"><a xlink:title=" ">
<path fill="none" stroke="#63b8ff" d="M357.25,-11.14C365.72,-11.02 374.29,-10.89 382.71,-10.77"/>
<polygon fill="#63b8ff" stroke="#63b8ff" points="382.94,-14.26 392.88,-10.62 382.83,-7.26 382.94,-14.26"/>
</a>
</g>
</g>
</g>
</svg>

<g id="navigator" transform="translate(0 0)" fill="#404254">
  <rect fill="#f2f5e9" fill-opacity="0.5" stroke="#606060" stroke-width=".5" x="0" y="0" width="60" height="60"/>
  <use id="zoomplus" xlink:href="#zoomPlus" x="17" y="9" onmousedown="handleZoom(evt,'in')"/>
  <use id="zoomminus" xlink:href="#zoomMin" x="42" y="9" onmousedown="handleZoom(evt,'out')"/>
  <use id="reset" xlink:href="#resetDef" x="30" y="36" onmousedown="handleReset()"/>
   <use id="arrowup" xlink:href="#arrowUp" x="0" y="0" onmousedown="handlePan(0,-1)"/>
  <use id="arrowright" xlink:href="#arrowRight" x="0" y="0" onmousedown="handlePan(1,0)"/>
  <use id="arrowdown" xlink:href="#arrowDown" x="0" y="0" onmousedown="handlePan(0,1)"/>
  <use id="arrowleft" xlink:href="#arrowLeft" x="0" y="0" onmousedown="handlePan(-1,0)"/>
</g>
<svg viewBox="0 0 15 15" width="100%" height="30px" preserveAspectRatio="xMaxYMin meet">
 <g id="arrow_out" transform="scale(0.3 0.3)">
  <a xlink:href="class_imitate_pass_a2ff555a9fdb035a15b0ea55ce2cb887a_cgraph_org.svg" target="_base">
   <rect id="button" ry="5" rx="5" y="6" x="6" height="38" width="38"
        fill="#f2f5e9" fill-opacity="0.5" stroke="#606060" stroke-width="1.0"/>
   <path id="arrow"
     d="M 11.500037,31.436501 C 11.940474,20.09759 22.043105,11.32322 32.158766,21.979434 L 37.068811,17.246167 C 37.068811,17.246167 37.088388,32 37.088388,32 L 22.160133,31.978069 C 22.160133,31.978069 26.997745,27.140456 26.997745,27.140456 C 18.528582,18.264221 13.291696,25.230495 11.500037,31.436501 z"
     style="fill:#404040;"/>
  </a>
 </g>
</svg>

<style type='text/css'>
<![CDATA[
[data-mouse-over-selected='false'] { opacity: 0.7; }
[data-mouse-over-selected='true']  { opacity: 1.0; }
]]>
</style>
<script type="application/ecmascript"><![CDATA[
document.addEventListener('DOMContentLoaded', (event) => {
  highlightEdges();
  highlightAdjacentNodes();
});
]]></script>
</svg>
