<?xml version="1.0" encoding="UTF-8" standalone="no"?>
<!DOCTYPE svg PUBLIC "-//W3C//DTD SVG 1.1//EN"
 "http://www.w3.org/Graphics/SVG/1.1/DTD/svg11.dtd">
<!-- Generated by graphviz version 2.43.0 (0)
 -->
<!-- Title: Pass::critical Pages: 1 -->
<svg width="411pt" height="124pt"
 viewBox="0.00 0.00 411.00 123.65" xmlns="http://www.w3.org/2000/svg" xmlns:xlink="http://www.w3.org/1999/xlink">

<svg id="main" version="1.1" xmlns="http://www.w3.org/2000/svg" xmlns:xlink="http://www.w3.org/1999/xlink" xml:space="preserve" onload="init(evt)">
<style type="text/css"><![CDATA[
.node, .edge {opacity: 0.7;}
.node.selected, .edge.selected {opacity: 1;}
.edge:hover path { stroke: red; }
.edge:hover polygon { stroke: red; fill: red; }
]]></style>
<script type="application/ecmascript" xlink:href="svg.min.js"/>
<svg id="graph" class="graph">
<g id="graph0" class="graph" transform="scale(1 1) rotate(0) translate(4 119.65)">
<title>Pass::critical</title>
<!-- Node1 -->
<g id="Node000001" class="node">
<title>Node1</title>
<g id="a_Node000001"><a xlink:title="Emit critical error.">
<polygon fill="#999999" stroke="#666666" points="403,-74 326,-74 326,-55 403,-55 403,-74"/>
<text text-anchor="middle" x="364.5" y="-62" font-family="Helvetica,sans-Serif" font-size="10.00">Pass::critical</text>
</a>
</g>
</g>
<!-- Node2 -->
<g id="Node000002" class="node">
<title>Node2</title>
<g id="a_Node000002"><a xlink:href="class_imitate_pass.html#a6fe6b48df3fb04071c8c2c1d5c1d1206" target="_top" xlink:title="Initialize store.">
<polygon fill="white" stroke="#666666" points="99.5,-56 4.5,-56 4.5,-37 99.5,-37 99.5,-56"/>
<text text-anchor="middle" x="52" y="-44" font-family="Helvetica,sans-Serif" font-size="10.00">ImitatePass::Init</text>
</a>
</g>
</g>
<!-- Node1&#45;&gt;Node2 -->
<g id="edge1_Node000001_Node000002" class="edge">
<title>Node1&#45;&gt;Node2</title>
<g id="a_edge1_Node000001_Node000002"><a xlink:title=" ">
<path fill="none" stroke="#63b8ff" d="M341.46,-79.44C327.41,-88.05 308.43,-98.02 290,-102.5 225.22,-118.25 203.96,-121.31 140,-102.5 109.15,-93.43 78.91,-69.67 63.51,-56.19"/>
<polygon fill="#63b8ff" stroke="#63b8ff" points="343.37,-82.38 349.93,-74.06 339.61,-76.47 343.37,-82.38"/>
</a>
</g>
</g>
<!-- Node3 -->
<g id="Node000003" class="node">
<title>Node3</title>
<g id="a_Node000003"><a xlink:href="class_imitate_pass.html#a84de97293ca1a100b1e466b4a79ec601" target="_top" xlink:title="Insert new password.">
<polygon fill="white" stroke="#666666" points="268.5,-93 161.5,-93 161.5,-74 268.5,-74 268.5,-93"/>
<text text-anchor="middle" x="215" y="-81" font-family="Helvetica,sans-Serif" font-size="10.00">ImitatePass::Insert</text>
</a>
</g>
</g>
<!-- Node1&#45;&gt;Node3 -->
<g id="edge2_Node000001_Node000003" class="edge">
<title>Node1&#45;&gt;Node3</title>
<g id="a_edge2_Node000001_Node000003"><a xlink:title=" ">
<path fill="none" stroke="#63b8ff" d="M315.76,-70.65C300.69,-72.59 283.95,-74.75 268.56,-76.73"/>
<polygon fill="#63b8ff" stroke="#63b8ff" points="316.43,-74.09 325.9,-69.34 315.53,-67.15 316.43,-74.09"/>
</a>
</g>
</g>
<!-- Node4 -->
<g id="Node000004" class="node">
<title>Node4</title>
<g id="a_Node000004"><a xlink:href="class_imitate_pass.html#af331446d163c31f1fca714646c0f6244" target="_top" xlink:title="Re&#45;encrypt entire directory.">
<polygon fill="white" stroke="#666666" points="288.5,-19 141.5,-19 141.5,0 288.5,0 288.5,-19"/>
<text text-anchor="middle" x="215" y="-7" font-family="Helvetica,sans-Serif" font-size="10.00">ImitatePass::reencryptPath</text>
</a>
</g>
</g>
<!-- Node1&#45;&gt;Node4 -->
<g id="edge3_Node000001_Node000004" class="edge">
<title>Node1&#45;&gt;Node4</title>
<g id="a_edge3_Node000001_Node000004"><a xlink:title=" ">
<path fill="none" stroke="#63b8ff" d="M337.49,-50.14C323.68,-42.94 306.25,-34.49 290,-28.5 280.29,-24.92 269.63,-21.76 259.5,-19.09"/>
<polygon fill="#63b8ff" stroke="#63b8ff" points="335.94,-53.28 346.42,-54.89 339.23,-47.1 335.94,-53.28"/>
</a>
</g>
</g>
<!-- Node6 -->
<g id="Node000006" class="node">
<title>Node6</title>
<g id="a_Node000006"><a xlink:href="class_imitate_pass.html#ae65aff95459cee83b5b999f5a83fcac1" target="_top" xlink:title="Write recipients to .gpg&#45;id file.">
<polygon fill="white" stroke="#666666" points="290,-56 140,-56 140,-37 290,-37 290,-56"/>
<text text-anchor="middle" x="215" y="-44" font-family="Helvetica,sans-Serif" font-size="10.00">ImitatePass::writeGpgIdFile</text>
</a>
</g>
</g>
<!-- Node1&#45;&gt;Node6 -->
<g id="edge6_Node000001_Node000006" class="edge">
<title>Node1&#45;&gt;Node6</title>
<g id="a_edge6_Node000001_Node000006"><a xlink:title=" ">
<path fill="none" stroke="#63b8ff" d="M315.75,-58.67C307.5,-57.67 298.75,-56.6 290,-55.53"/>
<polygon fill="#63b8ff" stroke="#63b8ff" points="315.55,-62.17 325.9,-59.91 316.4,-55.23 315.55,-62.17"/>
</a>
</g>
</g>
<!-- Node4&#45;&gt;Node2 -->
<g id="edge5_Node000004_Node000002" class="edge">
<title>Node4&#45;&gt;Node2</title>
<g id="a_edge5_Node000004_Node000002"><a xlink:title=" ">
<path fill="none" stroke="#63b8ff" d="M162.7,-21.29C140.73,-26.34 115.39,-32.16 94.6,-36.94"/>
<polygon fill="#63b8ff" stroke="#63b8ff" points="163.58,-24.68 172.54,-19.03 162.01,-17.86 163.58,-24.68"/>
</a>
</g>
</g>
<!-- Node5 -->
<g id="Node000005" class="node">
<title>Node5</title>
<g id="a_Node000005"><a xlink:href="class_imitate_pass.html#a97538d83d4f6a583f840db0865e8609a" target="_top" xlink:title="Copy password file.">
<polygon fill="white" stroke="#666666" points="104,-19 0,-19 0,0 104,0 104,-19"/>
<text text-anchor="middle" x="52" y="-7" font-family="Helvetica,sans-Serif" font-size="10.00">ImitatePass::Copy</text>
</a>
</g>
</g>
<!-- Node4&#45;&gt;Node5 -->
<g id="edge4_Node000004_Node000005" class="edge">
<title>Node4&#45;&gt;Node5</title>
<g id="a_edge4_Node000004_Node000005"><a xlink:title=" ">
<path fill="none" stroke="#63b8ff" d="M130.77,-9.5C121.67,-9.5 112.62,-9.5 104.08,-9.5"/>
<polygon fill="#63b8ff" stroke="#63b8ff" points="131.04,-13 141.04,-9.5 131.04,-6 131.04,-13"/>
</a>
</g>
</g>
<!-- Node6&#45;&gt;Node2 -->
<g id="edge7_Node000006_Node000002" class="edge">
<title>Node6&#45;&gt;Node2</title>
<g id="a_edge7_Node000006_Node000002"><a xlink:title=" ">
<path fill="none" stroke="#63b8ff" d="M129.47,-46.5C119.32,-46.5 109.26,-46.5 99.93,-46.5"/>
<polygon fill="#63b8ff" stroke="#63b8ff" points="129.63,-50 139.63,-46.5 129.63,-43 129.63,-50"/>
</a>
</g>
</g>
</g>
</svg>
</svg>

<style type='text/css'>
<![CDATA[
[data-mouse-over-selected='false'] { opacity: 0.7; }
[data-mouse-over-selected='true']  { opacity: 1.0; }
]]>
</style>
<script type="application/ecmascript"><![CDATA[
document.addEventListener('DOMContentLoaded', (event) => {
  highlightEdges();
  highlightAdjacentNodes();
});
]]></script>
</svg>
