<?xml version="1.0" encoding="UTF-8" standalone="no"?>
<!DOCTYPE svg PUBLIC "-//W3C//DTD SVG 1.1//EN"
 "http://www.w3.org/Graphics/SVG/1.1/DTD/svg11.dtd">
<!-- Generated by graphviz version 2.43.0 (0)
 -->
<!-- Title: Pass::GenerateGPGKeys Pages: 1 -->
<svg width="550pt" height="156pt"
 viewBox="0.00 0.00 550.00 156.00" xmlns="http://www.w3.org/2000/svg" xmlns:xlink="http://www.w3.org/1999/xlink">
<g id="graph0" class="graph" transform="scale(1 1) rotate(0) translate(4 152)">
<title>Pass::GenerateGPGKeys</title>
<!-- Node1 -->
<g id="Node000001" class="node">
<title>Node1</title>
<g id="a_Node000001"><a xlink:title="Generate GPG keys using batch script.">
<polygon fill="#999999" stroke="#666666" points="134,-74 0,-74 0,-55 134,-55 134,-74"/>
<text text-anchor="middle" x="67" y="-62" font-family="Helvetica,sans-Serif" font-size="10.00">Pass::GenerateGPGKeys</text>
</a>
</g>
</g>
<!-- Node2 -->
<g id="Node000002" class="node">
<title>Node2</title>
<g id="a_Node000002"><a xlink:href="class_executor.html#a4e210af42a76029683ded3210cf7bce2" target="_top" xlink:title="Executor::executeBlocking blocking version of the executor, takes input and presents it as stdin.">
<polygon fill="white" stroke="#666666" points="334.5,-148 189.5,-148 189.5,-129 334.5,-129 334.5,-148"/>
<text text-anchor="middle" x="262" y="-136" font-family="Helvetica,sans-Serif" font-size="10.00">Executor::executeBlocking</text>
</a>
</g>
</g>
<!-- Node1&#45;&gt;Node2 -->
<g id="edge1_Node000001_Node000002" class="edge">
<title>Node1&#45;&gt;Node2</title>
<g id="a_edge1_Node000001_Node000002"><a xlink:title=" ">
<path fill="none" stroke="#63b8ff" d="M82.19,-74.14C101.31,-86.69 136.77,-108.42 170,-120.5 176.2,-122.76 182.75,-124.75 189.38,-126.51"/>
<polygon fill="#63b8ff" stroke="#63b8ff" points="188.56,-129.91 199.11,-128.92 190.25,-123.12 188.56,-129.91"/>
</a>
</g>
</g>
<!-- Node3 -->
<g id="Node000003" class="node">
<title>Node3</title>
<g id="a_Node000003"><a xlink:href="class_pass.html#a66f59138ffe856fd421410d9af9ddc62" target="_top" xlink:title="Execute external wrapper command.">
<polygon fill="white" stroke="#666666" points="324,-93 200,-93 200,-74 324,-74 324,-93"/>
<text text-anchor="middle" x="262" y="-81" font-family="Helvetica,sans-Serif" font-size="10.00">Pass::executeWrapper</text>
</a>
</g>
</g>
<!-- Node1&#45;&gt;Node3 -->
<g id="edge2_Node000001_Node000003" class="edge">
<title>Node1&#45;&gt;Node3</title>
<g id="a_edge2_Node000001_Node000003"><a xlink:title=" ">
<path fill="none" stroke="#63b8ff" d="M134.15,-71.01C152.1,-72.78 171.62,-74.7 189.84,-76.49"/>
<polygon fill="#63b8ff" stroke="#63b8ff" points="189.51,-79.98 199.8,-77.48 190.2,-73.01 189.51,-79.98"/>
</a>
</g>
</g>
<!-- Node4 -->
<g id="Node000004" class="node">
<title>Node4</title>
<g id="a_Node000004"><a xlink:href="class_qt_pass_settings.html#a6d9beabe93c829cacdcc6c27792ffdba" target="_top" xlink:title="Get GPG executable path.">
<polygon fill="white" stroke="#666666" points="354,-56 170,-56 170,-37 354,-37 354,-56"/>
<text text-anchor="middle" x="262" y="-44" font-family="Helvetica,sans-Serif" font-size="10.00">QtPassSettings::getGpgExecutable</text>
</a>
</g>
</g>
<!-- Node1&#45;&gt;Node4 -->
<g id="edge4_Node000001_Node000004" class="edge">
<title>Node1&#45;&gt;Node4</title>
<g id="a_edge4_Node000001_Node000004"><a xlink:title=" ">
<path fill="none" stroke="#63b8ff" d="M134.15,-58.33C142.38,-57.56 150.95,-56.76 159.56,-55.96"/>
<polygon fill="#63b8ff" stroke="#63b8ff" points="160.05,-59.43 169.69,-55.02 159.4,-52.46 160.05,-59.43"/>
</a>
</g>
</g>
<!-- Node6 -->
<g id="Node000006" class="node">
<title>Node6</title>
<g id="a_Node000006"><a xlink:href="class_pass.html#a6a9aa8dc4ff288ce256351b671533a84" target="_top" xlink:title="Resolve the gpgconf command to kill agents.">
<polygon fill="white" stroke="#666666" points="347.5,-19 176.5,-19 176.5,0 347.5,0 347.5,-19"/>
<text text-anchor="middle" x="262" y="-7" font-family="Helvetica,sans-Serif" font-size="10.00">Pass::resolveGpgconfCommand</text>
</a>
</g>
</g>
<!-- Node1&#45;&gt;Node6 -->
<g id="edge6_Node000001_Node000006" class="edge">
<title>Node1&#45;&gt;Node6</title>
<g id="a_edge6_Node000001_Node000006"><a xlink:title=" ">
<path fill="none" stroke="#63b8ff" d="M92.03,-55C112.52,-47.14 142.87,-36.08 170,-28.5 179.44,-25.86 189.53,-23.4 199.42,-21.19"/>
<polygon fill="#63b8ff" stroke="#63b8ff" points="200.19,-24.61 209.22,-19.06 198.7,-17.77 200.19,-24.61"/>
</a>
</g>
</g>
<!-- Node3&#45;&gt;Node3 -->
<g id="edge3_Node000003_Node000003" class="edge">
<title>Node3&#45;&gt;Node3</title>
<g id="a_edge3_Node000003_Node000003"><a xlink:title=" ">
<path fill="none" stroke="#63b8ff" d="M232.1,-93.08C217.55,-101.73 227.52,-111 262,-111 285.71,-111 297.82,-106.62 298.36,-101.07"/>
<polygon fill="#63b8ff" stroke="#63b8ff" points="300.91,-98.66 291.9,-93.08 295.46,-103.06 300.91,-98.66"/>
</a>
</g>
</g>
<!-- Node5 -->
<g id="Node000005" class="node">
<title>Node5</title>
<g id="a_Node000005"><a xlink:href="class_qt_pass_settings.html#a2483e7de01f9e312ee0fbf8a1637f29d" target="_top" xlink:title="Get the singleton instance.">
<polygon fill="white" stroke="#666666" points="542,-56 390,-56 390,-37 542,-37 542,-56"/>
<text text-anchor="middle" x="466" y="-44" font-family="Helvetica,sans-Serif" font-size="10.00">QtPassSettings::getInstance</text>
</a>
</g>
</g>
<!-- Node4&#45;&gt;Node5 -->
<g id="edge5_Node000004_Node000005" class="edge">
<title>Node4&#45;&gt;Node5</title>
<g id="a_edge5_Node000004_Node000005"><a xlink:title=" ">
<path fill="none" stroke="#63b8ff" d="M354.25,-46.5C362.72,-46.5 371.29,-46.5 379.71,-46.5"/>
<polygon fill="#63b8ff" stroke="#63b8ff" points="379.88,-50 389.88,-46.5 379.88,-43 379.88,-50"/>
</a>
</g>
</g>
</g>
</svg>
