<?xml version="1.0" encoding="UTF-8" standalone="no"?>
<!DOCTYPE svg PUBLIC "-//W3C//DTD SVG 1.1//EN"
 "http://www.w3.org/Graphics/SVG/1.1/DTD/svg11.dtd">
<!-- Generated by graphviz version 2.44.1 (20200629.0846)
 -->
<!-- Title: Executor::executeBlocking Pages: 1 -->
<svg width="781pt" height="161pt"
 viewBox="0.00 0.00 781.00 161.00" xmlns="http://www.w3.org/2000/svg" xmlns:xlink="http://www.w3.org/1999/xlink">
<g id="graph0" class="graph" transform="scale(1 1) rotate(0) translate(4 157)">
<title>Executor::executeBlocking</title>
<!-- Node1 -->
<g id="node1" class="node">
<title>Node1</title>
<g id="a_node1"><a xlink:title="Executor::executeBlocking blocking version of the executor, takes input and presents it as stdin.">
<polygon fill="#bfbfbf" stroke="black" points="639,-76.5 639,-95.5 773,-95.5 773,-76.5 639,-76.5"/>
<text text-anchor="middle" x="706" y="-83.5" font-family="Helvetica,sans-Serif" font-size="10.00">Executor::executeBlocking</text>
</a>
</g>
</g>
<!-- Node2 -->
<g id="node2" class="node">
<title>Node2</title>
<g id="a_node2"><a xlink:href="class_executor.html#a916ceeecbe46e63d9dbfe6840c3c3b76" target="_top" xlink:title="Executor::executeBlocking blocking version of the executor.">
<polygon fill="none" stroke="black" points="469,-133.5 469,-152.5 603,-152.5 603,-133.5 469,-133.5"/>
<text text-anchor="middle" x="536" y="-140.5" font-family="Helvetica,sans-Serif" font-size="10.00">Executor::executeBlocking</text>
</a>
</g>
</g>
<!-- Node1&#45;&gt;Node2 -->
<g id="edge1" class="edge">
<title>Node1&#45;&gt;Node2</title>
<path fill="none" stroke="midnightblue" d="M671.38,-99.26C651.6,-106.88 626.03,-116.41 603,-124 593.03,-127.29 582.12,-130.56 572.09,-133.44"/>
<polygon fill="midnightblue" stroke="midnightblue" points="672.81,-102.46 680.87,-95.58 670.28,-95.94 672.81,-102.46"/>
</g>
<!-- Node3 -->
<g id="node3" class="node">
<title>Node3</title>
<g id="a_node3"><a xlink:href="class_util.html#ab6622ba9b278132fa22ea85d224082f2" target="_top" xlink:title="Util::findBinaryInPath search for executables.">
<polygon fill="none" stroke="black" points="481,-95.5 481,-114.5 591,-114.5 591,-95.5 481,-95.5"/>
<text text-anchor="middle" x="536" y="-102.5" font-family="Helvetica,sans-Serif" font-size="10.00">Util::findBinaryInPath</text>
</a>
</g>
</g>
<!-- Node1&#45;&gt;Node3 -->
<g id="edge2" class="edge">
<title>Node1&#45;&gt;Node3</title>
<path fill="none" stroke="midnightblue" d="M628.53,-94.65C615.87,-96.08 602.99,-97.54 591.04,-98.89"/>
<polygon fill="midnightblue" stroke="midnightblue" points="629.06,-98.11 638.6,-93.51 628.27,-91.16 629.06,-98.11"/>
</g>
<!-- Node7 -->
<g id="node7" class="node">
<title>Node7</title>
<g id="a_node7"><a xlink:href="class_pass.html#a9837e79dfc147d8710563a4a8a04bf3e" target="_top" xlink:title="Pass::Generate use either pwgen or internal password generator.">
<polygon fill="none" stroke="black" points="488.5,-57.5 488.5,-76.5 583.5,-76.5 583.5,-57.5 488.5,-57.5"/>
<text text-anchor="middle" x="536" y="-64.5" font-family="Helvetica,sans-Serif" font-size="10.00">Pass::Generate_b</text>
</a>
</g>
</g>
<!-- Node1&#45;&gt;Node7 -->
<g id="edge6" class="edge">
<title>Node1&#45;&gt;Node7</title>
<path fill="none" stroke="midnightblue" d="M628.57,-77.36C613.2,-75.62 597.49,-73.84 583.52,-72.26"/>
<polygon fill="midnightblue" stroke="midnightblue" points="628.27,-80.84 638.6,-78.49 629.06,-73.89 628.27,-80.84"/>
</g>
<!-- Node8 -->
<g id="node8" class="node">
<title>Node8</title>
<g id="a_node8"><a xlink:href="class_pass.html#ac0a8e833a71fd2a1ad79cf1158fb0cc2" target="_top" xlink:title="Pass::listKeys list users.">
<polygon fill="none" stroke="black" points="496,-19.5 496,-38.5 576,-38.5 576,-19.5 496,-19.5"/>
<text text-anchor="middle" x="536" y="-26.5" font-family="Helvetica,sans-Serif" font-size="10.00">Pass::listKeys</text>
</a>
</g>
</g>
<!-- Node1&#45;&gt;Node8 -->
<g id="edge7" class="edge">
<title>Node1&#45;&gt;Node8</title>
<path fill="none" stroke="midnightblue" d="M671.38,-72.74C651.6,-65.12 626.03,-55.59 603,-48 593.03,-44.71 582.12,-41.44 572.09,-38.56"/>
<polygon fill="midnightblue" stroke="midnightblue" points="670.28,-76.06 680.87,-76.42 672.81,-69.54 670.28,-76.06"/>
</g>
<!-- Node4 -->
<g id="node4" class="node">
<title>Node4</title>
<g id="a_node4"><a xlink:href="class_qt_pass_settings.html#a64ffdab0605be803054150d438254c56" target="_top" xlink:title=" ">
<polygon fill="none" stroke="black" points="275,-95.5 275,-114.5 433,-114.5 433,-95.5 275,-95.5"/>
<text text-anchor="middle" x="354" y="-102.5" font-family="Helvetica,sans-Serif" font-size="10.00">QtPassSettings::initExecutables</text>
</a>
</g>
</g>
<!-- Node3&#45;&gt;Node4 -->
<g id="edge3" class="edge">
<title>Node3&#45;&gt;Node4</title>
<path fill="none" stroke="midnightblue" d="M470.93,-105C458.73,-105 445.84,-105 433.26,-105"/>
<polygon fill="midnightblue" stroke="midnightblue" points="470.99,-108.5 480.99,-105 470.99,-101.5 470.99,-108.5"/>
</g>
<!-- Node5 -->
<g id="node5" class="node">
<title>Node5</title>
<g id="a_node5"><a xlink:href="class_qt_pass.html#a49e2861160fdb8d614231933f60fac47" target="_top" xlink:title="QtPass::init make sure we are ready to go as soon as possible.">
<polygon fill="none" stroke="black" points="171,-95.5 171,-114.5 239,-114.5 239,-95.5 171,-95.5"/>
<text text-anchor="middle" x="205" y="-102.5" font-family="Helvetica,sans-Serif" font-size="10.00">QtPass::init</text>
</a>
</g>
</g>
<!-- Node4&#45;&gt;Node5 -->
<g id="edge4" class="edge">
<title>Node4&#45;&gt;Node5</title>
<path fill="none" stroke="midnightblue" d="M264.6,-105C255.68,-105 247.07,-105 239.32,-105"/>
<polygon fill="midnightblue" stroke="midnightblue" points="264.77,-108.5 274.77,-105 264.77,-101.5 264.77,-108.5"/>
</g>
<!-- Node6 -->
<g id="node6" class="node">
<title>Node6</title>
<g id="a_node6"><a xlink:href="class_main_window.html#a52e97245b2f88492071e639395c4a15a" target="_top" xlink:title="MainWindow::MainWindow handles all of the main functionality and also the main window.">
<polygon fill="none" stroke="black" points="0,-95.5 0,-114.5 135,-114.5 135,-95.5 0,-95.5"/>
<text text-anchor="middle" x="67.5" y="-102.5" font-family="Helvetica,sans-Serif" font-size="10.00">MainWindow::MainWindow</text>
</a>
</g>
</g>
<!-- Node5&#45;&gt;Node6 -->
<g id="edge5" class="edge">
<title>Node5&#45;&gt;Node6</title>
<path fill="none" stroke="midnightblue" d="M160.84,-105C152.67,-105 143.95,-105 135.25,-105"/>
<polygon fill="midnightblue" stroke="midnightblue" points="160.85,-108.5 170.85,-105 160.85,-101.5 160.85,-108.5"/>
</g>
<!-- Node9 -->
<g id="node9" class="node">
<title>Node9</title>
<g id="a_node9"><a xlink:href="class_pass.html#a451b0f52aa0332801252ae28665e29b3" target="_top" xlink:title="Pass::listKeys list users.">
<polygon fill="none" stroke="black" points="314,-38.5 314,-57.5 394,-57.5 394,-38.5 314,-38.5"/>
<text text-anchor="middle" x="354" y="-45.5" font-family="Helvetica,sans-Serif" font-size="10.00">Pass::listKeys</text>
</a>
</g>
</g>
<!-- Node8&#45;&gt;Node9 -->
<g id="edge8" class="edge">
<title>Node8&#45;&gt;Node9</title>
<path fill="none" stroke="midnightblue" d="M485.69,-34.2C456.93,-37.24 421.14,-41.02 394.29,-43.85"/>
<polygon fill="midnightblue" stroke="midnightblue" points="486.37,-37.65 495.94,-33.12 485.63,-30.69 486.37,-37.65"/>
</g>
<!-- Node10 -->
<g id="node10" class="node">
<title>Node10</title>
<g id="a_node10"><a xlink:href="class_users_dialog.html#a7a3d75a01a48609ce7571cec09b95f07" target="_top" xlink:title="UsersDialog::UsersDialog basic constructor.">
<polygon fill="none" stroke="black" points="288.5,-0.5 288.5,-19.5 419.5,-19.5 419.5,-0.5 288.5,-0.5"/>
<text text-anchor="middle" x="354" y="-7.5" font-family="Helvetica,sans-Serif" font-size="10.00">UsersDialog::UsersDialog</text>
</a>
</g>
</g>
<!-- Node8&#45;&gt;Node10 -->
<g id="edge9" class="edge">
<title>Node8&#45;&gt;Node10</title>
<path fill="none" stroke="midnightblue" d="M485.94,-23.82C465.56,-21.67 441.62,-19.14 419.82,-16.84"/>
<polygon fill="midnightblue" stroke="midnightblue" points="485.63,-27.31 495.94,-24.88 486.37,-20.35 485.63,-27.31"/>
</g>
</g>
</svg>
