<?xml version="1.0" encoding="UTF-8" standalone="no"?>
<!DOCTYPE svg PUBLIC "-//W3C//DTD SVG 1.1//EN"
 "http://www.w3.org/Graphics/SVG/1.1/DTD/svg11.dtd">
<!-- Generated by graphviz version 2.43.0 (0)
 -->
<!-- Title: ImitatePass::GitPull Pages: 1 -->
<svg width="691pt" height="131pt"
 viewBox="0.00 0.00 691.00 131.00" xmlns="http://www.w3.org/2000/svg" xmlns:xlink="http://www.w3.org/1999/xlink">
<g id="graph0" class="graph" transform="scale(1 1) rotate(0) translate(4 127)">
<title>ImitatePass::GitPull</title>
<!-- Node1 -->
<g id="Node000001" class="node">
<title>Node1</title>
<g id="a_Node000001"><a xlink:title="Pull from remote.">
<polygon fill="#999999" stroke="#666666" points="112,-40 0,-40 0,-21 112,-21 112,-40"/>
<text text-anchor="middle" x="56" y="-28" font-family="Helvetica,sans-Serif" font-size="10.00">ImitatePass::GitPull</text>
</a>
</g>
</g>
<!-- Node2 -->
<g id="Node000002" class="node">
<title>Node2</title>
<g id="a_Node000002"><a xlink:href="class_imitate_pass.html#a6f9682c6103b112a9aa844df7ef6a273" target="_top" xlink:title="Execute git command.">
<polygon fill="white" stroke="#666666" points="280,-40 148,-40 148,-21 280,-21 280,-40"/>
<text text-anchor="middle" x="214" y="-28" font-family="Helvetica,sans-Serif" font-size="10.00">ImitatePass::executeGit</text>
</a>
</g>
</g>
<!-- Node1&#45;&gt;Node2 -->
<g id="edge1_Node000001_Node000002" class="edge">
<title>Node1&#45;&gt;Node2</title>
<g id="a_edge1_Node000001_Node000002"><a xlink:title=" ">
<path fill="none" stroke="#63b8ff" d="M112.44,-30.5C120.68,-30.5 129.3,-30.5 137.87,-30.5"/>
<polygon fill="#63b8ff" stroke="#63b8ff" points="137.88,-34 147.88,-30.5 137.88,-27 137.88,-34"/>
</a>
</g>
</g>
<!-- Node3 -->
<g id="Node000003" class="node">
<title>Node3</title>
<g id="a_Node000003"><a xlink:href="class_imitate_pass.html#aa2ade77096c04fb94536d675bfaae8fe" target="_top" xlink:title="Execute command wrapper.">
<polygon fill="white" stroke="#666666" points="485,-62 326,-62 326,-43 485,-43 485,-62"/>
<text text-anchor="middle" x="405.5" y="-50" font-family="Helvetica,sans-Serif" font-size="10.00">ImitatePass::executeWrapper</text>
</a>
</g>
</g>
<!-- Node2&#45;&gt;Node3 -->
<g id="edge2_Node000002_Node000003" class="edge">
<title>Node2&#45;&gt;Node3</title>
<g id="a_edge2_Node000002_Node000003"><a xlink:title=" ">
<path fill="none" stroke="#63b8ff" d="M280.22,-38.07C291.67,-39.4 303.77,-40.81 315.74,-42.2"/>
<polygon fill="#63b8ff" stroke="#63b8ff" points="315.42,-45.68 325.75,-43.36 316.22,-38.73 315.42,-45.68"/>
</a>
</g>
</g>
<!-- Node6 -->
<g id="Node000006" class="node">
<title>Node6</title>
<g id="a_Node000006"><a xlink:href="class_qt_pass_settings.html#af6dc725440e9961c39fbd6f567749d82" target="_top" xlink:title="Get git executable path.">
<polygon fill="white" stroke="#666666" points="495,-22 316,-22 316,-3 495,-3 495,-22"/>
<text text-anchor="middle" x="405.5" y="-10" font-family="Helvetica,sans-Serif" font-size="10.00">QtPassSettings::getGitExecutable</text>
</a>
</g>
</g>
<!-- Node2&#45;&gt;Node6 -->
<g id="edge6_Node000002_Node000006" class="edge">
<title>Node2&#45;&gt;Node6</title>
<g id="a_edge6_Node000002_Node000006"><a xlink:title=" ">
<path fill="none" stroke="#63b8ff" d="M280.22,-24.31C288.45,-23.52 297.01,-22.71 305.62,-21.89"/>
<polygon fill="#63b8ff" stroke="#63b8ff" points="306.11,-25.36 315.73,-20.93 305.45,-18.39 306.11,-25.36"/>
</a>
</g>
</g>
<!-- Node4 -->
<g id="Node000004" class="node">
<title>Node4</title>
<g id="a_Node000004"><a xlink:href="class_pass.html#a66f59138ffe856fd421410d9af9ddc62" target="_top" xlink:title="Execute external wrapper command.">
<polygon fill="white" stroke="#666666" points="669,-105 545,-105 545,-86 669,-86 669,-105"/>
<text text-anchor="middle" x="607" y="-93" font-family="Helvetica,sans-Serif" font-size="10.00">Pass::executeWrapper</text>
</a>
</g>
</g>
<!-- Node3&#45;&gt;Node4 -->
<g id="edge3_Node000003_Node000004" class="edge">
<title>Node3&#45;&gt;Node4</title>
<g id="a_edge3_Node000003_Node000004"><a xlink:title=" ">
<path fill="none" stroke="#63b8ff" d="M450.78,-62.04C480.61,-68.47 520.15,-77 551.85,-83.83"/>
<polygon fill="#63b8ff" stroke="#63b8ff" points="551.34,-87.3 561.85,-85.98 552.81,-80.46 551.34,-87.3"/>
</a>
</g>
</g>
<!-- Node5 -->
<g id="Node000005" class="node">
<title>Node5</title>
<g id="a_Node000005"><a xlink:href="classsimple_transaction.html#a974db4056edcb408e96cf9bc2a6e4326" target="_top" xlink:title="transactionAdd If called after call to transactionStart() and before transactionEnd(),...">
<polygon fill="white" stroke="#666666" points="662.5,-67.5 551.5,-67.5 551.5,-37.5 662.5,-37.5 662.5,-67.5"/>
<text text-anchor="start" x="559.5" y="-55.5" font-family="Helvetica,sans-Serif" font-size="10.00">simpleTransaction::</text>
<text text-anchor="middle" x="607" y="-44.5" font-family="Helvetica,sans-Serif" font-size="10.00">transactionAdd</text>
</a>
</g>
</g>
<!-- Node3&#45;&gt;Node5 -->
<g id="edge5_Node000003_Node000005" class="edge">
<title>Node3&#45;&gt;Node5</title>
<g id="a_edge5_Node000003_Node000005"><a xlink:title=" ">
<path fill="none" stroke="#63b8ff" d="M485.06,-52.5C503.65,-52.5 523.27,-52.5 541.17,-52.5"/>
<polygon fill="#63b8ff" stroke="#63b8ff" points="541.21,-56 551.21,-52.5 541.21,-49 541.21,-56"/>
</a>
</g>
</g>
<!-- Node4&#45;&gt;Node4 -->
<g id="edge4_Node000004_Node000004" class="edge">
<title>Node4&#45;&gt;Node4</title>
<g id="a_edge4_Node000004_Node000004"><a xlink:title=" ">
<path fill="none" stroke="#63b8ff" d="M576.17,-105.08C561.18,-113.73 571.45,-123 607,-123 631.99,-123 644.49,-118.42 644.5,-112.69"/>
<polygon fill="#63b8ff" stroke="#63b8ff" points="647.05,-110.29 637.83,-105.08 641.79,-114.91 647.05,-110.29"/>
</a>
</g>
</g>
<!-- Node7 -->
<g id="Node000007" class="node">
<title>Node7</title>
<g id="a_Node000007"><a xlink:href="class_qt_pass_settings.html#a2483e7de01f9e312ee0fbf8a1637f29d" target="_top" xlink:title="Get the singleton instance.">
<polygon fill="white" stroke="#666666" points="683,-19 531,-19 531,0 683,0 683,-19"/>
<text text-anchor="middle" x="607" y="-7" font-family="Helvetica,sans-Serif" font-size="10.00">QtPassSettings::getInstance</text>
</a>
</g>
</g>
<!-- Node6&#45;&gt;Node7 -->
<g id="edge7_Node000006_Node000007" class="edge">
<title>Node6&#45;&gt;Node7</title>
<g id="a_edge7_Node000006_Node000007"><a xlink:title=" ">
<path fill="none" stroke="#63b8ff" d="M495.17,-11.17C503.6,-11.04 512.14,-10.91 520.54,-10.79"/>
<polygon fill="#63b8ff" stroke="#63b8ff" points="520.76,-14.28 530.71,-10.63 520.66,-7.28 520.76,-14.28"/>
</a>
</g>
</g>
</g>
</svg>
