<?xml version="1.0" encoding="UTF-8" standalone="no"?>
<!DOCTYPE svg PUBLIC "-//W3C//DTD SVG 1.1//EN"
 "http://www.w3.org/Graphics/SVG/1.1/DTD/svg11.dtd">
<!-- Generated by graphviz version 2.38.0 (20140413.2041)
 -->
<!-- Title: ImitatePass::Move Pages: 1 -->
<svg width="876pt" height="461pt"
 viewBox="0.00 0.00 876.21 460.76" xmlns="http://www.w3.org/2000/svg" xmlns:xlink="http://www.w3.org/1999/xlink">
<g id="graph0" class="graph" transform="scale(1 1) rotate(0) translate(4 456.762)">
<title>ImitatePass::Move</title>
<!-- Node116 -->
<g id="node1" class="node"><title>Node116</title>
<polygon fill="#bfbfbf" stroke="black" points="0,-377.5 0,-395.5 98.251,-395.5 98.251,-377.5 0,-377.5"/>
<text text-anchor="middle" x="49.1255" y="-383.5" font-family="Helvetica,sans-Serif" font-size="10.00">ImitatePass::Move</text>
</g>
<!-- Node117 -->
<g id="node2" class="node"><title>Node117</title>
<g id="a_node2"><a xlink:href="class_qt_pass_settings.html#a2fd748b9e34c57aac277e8f0556a532f" target="_top" xlink:title="QtPassSettings::isUseGit">
<polygon fill="none" stroke="black" points="526.188,-377.5 526.188,-395.5 654.449,-395.5 654.449,-377.5 526.188,-377.5"/>
<text text-anchor="middle" x="590.318" y="-383.5" font-family="Helvetica,sans-Serif" font-size="10.00">QtPassSettings::isUseGit</text>
</a>
</g>
</g>
<!-- Node116&#45;&gt;Node117 -->
<g id="edge1" class="edge"><title>Node116&#45;&gt;Node117</title>
<path fill="none" stroke="midnightblue" d="M98.4498,-386.5C193.2,-386.5 403.879,-386.5 515.928,-386.5"/>
<polygon fill="midnightblue" stroke="midnightblue" points="516.127,-390 526.127,-386.5 516.127,-383 516.127,-390"/>
</g>
<!-- Node118 -->
<g id="node3" class="node"><title>Node118</title>
<g id="a_node3"><a xlink:href="class_pass.html#a39e65b39104c9e59f55c23745b71a8e9" target="_top" xlink:title="Pass::executeGit easy wrapper for running git commands. ">
<polygon fill="none" stroke="black" points="544.523,-415.5 544.523,-433.5 636.114,-433.5 636.114,-415.5 544.523,-415.5"/>
<text text-anchor="middle" x="590.318" y="-421.5" font-family="Helvetica,sans-Serif" font-size="10.00">Pass::executeGit</text>
</a>
</g>
</g>
<!-- Node116&#45;&gt;Node118 -->
<g id="edge2" class="edge"><title>Node116&#45;&gt;Node118</title>
<path fill="none" stroke="midnightblue" d="M67.3242,-395.61C83.9682,-404 110.148,-416.087 134.251,-422.5 282.597,-461.969 326.058,-454.907 479.062,-442.5 497.162,-441.032 516.769,-438.231 534.361,-435.267"/>
<polygon fill="midnightblue" stroke="midnightblue" points="535.207,-438.673 544.46,-433.512 534.008,-431.776 535.207,-438.673"/>
</g>
<!-- Node120 -->
<g id="node5" class="node"><title>Node120</title>
<g id="a_node5"><a xlink:href="class_qt_pass_settings.html#ab175512f2db3230fe60396ed0d1e9c14" target="_top" xlink:title="QtPassSettings::isAutoPush">
<polygon fill="none" stroke="black" points="322.152,-0.5 322.152,-18.5 463.215,-18.5 463.215,-0.5 322.152,-0.5"/>
<text text-anchor="middle" x="392.684" y="-6.5" font-family="Helvetica,sans-Serif" font-size="10.00">QtPassSettings::isAutoPush</text>
</a>
</g>
</g>
<!-- Node116&#45;&gt;Node120 -->
<g id="edge4" class="edge"><title>Node116&#45;&gt;Node120</title>
<path fill="none" stroke="midnightblue" d="M52.8586,-377.241C61.555,-348.734 90.6046,-260.48 134.251,-198.5 195.253,-111.874 214.321,-86.075 306.305,-33.5 314.927,-28.5718 324.624,-24.6035 334.307,-21.4241"/>
<polygon fill="midnightblue" stroke="midnightblue" points="335.392,-24.7528 343.946,-18.5014 333.36,-18.054 335.392,-24.7528"/>
</g>
<!-- Node121 -->
<g id="node6" class="node"><title>Node121</title>
<g id="a_node6"><a xlink:href="class_imitate_pass.html#a6a5f657b28ac398d3a1b32fb7c33b06b" target="_top" xlink:title="ImitatePass::GitPush git init wrapper. ">
<polygon fill="none" stroke="black" points="337.999,-415.5 337.999,-433.5 447.368,-433.5 447.368,-415.5 337.999,-415.5"/>
<text text-anchor="middle" x="392.684" y="-421.5" font-family="Helvetica,sans-Serif" font-size="10.00">ImitatePass::GitPush</text>
</a>
</g>
</g>
<!-- Node116&#45;&gt;Node121 -->
<g id="edge5" class="edge"><title>Node116&#45;&gt;Node121</title>
<path fill="none" stroke="midnightblue" d="M98.5262,-395.166C110.2,-397.087 122.651,-398.996 134.251,-400.5 199.979,-409.022 275.528,-415.697 327.702,-419.822"/>
<polygon fill="midnightblue" stroke="midnightblue" points="327.573,-423.322 337.815,-420.612 328.119,-416.343 327.573,-423.322"/>
</g>
<!-- Node122 -->
<g id="node7" class="node"><title>Node122</title>
<g id="a_node7"><a xlink:href="class_imitate_pass.html#a8670f6326e3dfe0018a0737fba27da2f" target="_top" xlink:title="ImitatePass::reencryptPath reencrypt all files under the chosen directory. ">
<polygon fill="none" stroke="black" points="134.251,-208.5 134.251,-226.5 270.305,-226.5 270.305,-208.5 134.251,-208.5"/>
<text text-anchor="middle" x="202.278" y="-214.5" font-family="Helvetica,sans-Serif" font-size="10.00">ImitatePass::reencryptPath</text>
</a>
</g>
</g>
<!-- Node116&#45;&gt;Node122 -->
<g id="edge8" class="edge"><title>Node116&#45;&gt;Node122</title>
<path fill="none" stroke="midnightblue" d="M58.2521,-377.414C82.5492,-350.248 154.9,-269.354 186.375,-234.163"/>
<polygon fill="midnightblue" stroke="midnightblue" points="189.053,-236.418 193.111,-226.631 183.836,-231.752 189.053,-236.418"/>
</g>
<!-- Node119 -->
<g id="node4" class="node"><title>Node119</title>
<g id="a_node4"><a xlink:href="class_qt_pass_settings.html#af1577fc288ddb6077df5a2fb2f8913b6" target="_top" xlink:title="QtPassSettings::getGitExecutable">
<polygon fill="none" stroke="black" points="701.574,-151.5 701.574,-169.5 868.209,-169.5 868.209,-151.5 701.574,-151.5"/>
<text text-anchor="middle" x="784.892" y="-157.5" font-family="Helvetica,sans-Serif" font-size="10.00">QtPassSettings::getGitExecutable</text>
</a>
</g>
</g>
<!-- Node118&#45;&gt;Node119 -->
<g id="edge3" class="edge"><title>Node118&#45;&gt;Node119</title>
<path fill="none" stroke="midnightblue" d="M636.296,-418.904C646.748,-415.927 657.242,-411.394 665.574,-404.5 739.297,-343.506 770.536,-225.567 780.281,-179.546"/>
<polygon fill="midnightblue" stroke="midnightblue" points="783.72,-180.196 782.265,-169.702 776.858,-178.813 783.72,-180.196"/>
</g>
<!-- Node121&#45;&gt;Node117 -->
<g id="edge6" class="edge"><title>Node121&#45;&gt;Node117</title>
<path fill="none" stroke="midnightblue" d="M440.046,-415.495C467.842,-410.096 503.386,-403.191 532.817,-397.475"/>
<polygon fill="midnightblue" stroke="midnightblue" points="533.801,-400.849 542.95,-395.507 532.466,-393.978 533.801,-400.849"/>
</g>
<!-- Node121&#45;&gt;Node118 -->
<g id="edge7" class="edge"><title>Node121&#45;&gt;Node118</title>
<path fill="none" stroke="midnightblue" d="M447.4,-424.5C474.382,-424.5 507.025,-424.5 534.199,-424.5"/>
<polygon fill="midnightblue" stroke="midnightblue" points="534.322,-428 544.322,-424.5 534.322,-421 534.322,-428"/>
</g>
<!-- Node122&#45;&gt;Node117 -->
<g id="edge18" class="edge"><title>Node122&#45;&gt;Node117</title>
<path fill="none" stroke="midnightblue" d="M208.917,-226.757C222.629,-248.404 260.014,-302.462 306.305,-328.5 341.46,-348.275 444.156,-366.096 515.647,-376.613"/>
<polygon fill="midnightblue" stroke="midnightblue" points="515.557,-380.136 525.957,-378.111 516.564,-373.209 515.557,-380.136"/>
</g>
<!-- Node122&#45;&gt;Node119 -->
<g id="edge19" class="edge"><title>Node122&#45;&gt;Node119</title>
<path fill="none" stroke="midnightblue" d="M270.449,-210.906C374.288,-200.712 574.036,-181.102 691.435,-169.577"/>
<polygon fill="midnightblue" stroke="midnightblue" points="691.876,-173.05 701.486,-168.59 691.192,-166.084 691.876,-173.05"/>
</g>
<!-- Node122&#45;&gt;Node120 -->
<g id="edge21" class="edge"><title>Node122&#45;&gt;Node120</title>
<path fill="none" stroke="midnightblue" d="M208.546,-208.35C219.927,-188.557 247.614,-140.259 270.305,-99.5 286.557,-70.3056 280.172,-54.3208 306.305,-33.5 312.017,-28.9486 318.544,-25.2599 325.388,-22.2705"/>
<polygon fill="midnightblue" stroke="midnightblue" points="326.8,-25.4772 334.87,-18.612 324.28,-18.9465 326.8,-25.4772"/>
</g>
<!-- Node122&#45;&gt;Node121 -->
<g id="edge22" class="edge"><title>Node122&#45;&gt;Node121</title>
<path fill="none" stroke="midnightblue" d="M208.412,-226.759C222.112,-250.948 261.555,-317.286 306.305,-362.5 324.74,-381.127 349.235,-398.297 367.259,-409.822"/>
<polygon fill="midnightblue" stroke="midnightblue" points="365.695,-412.972 376.028,-415.312 369.409,-407.039 365.695,-412.972"/>
</g>
<!-- Node123 -->
<g id="node8" class="node"><title>Node123</title>
<g id="a_node8"><a xlink:href="class_qt_pass_settings.html#a58728db227ada76454d01992bfef64c8" target="_top" xlink:title="QtPassSettings::isAutoPull">
<polygon fill="none" stroke="black" points="325.211,-113.5 325.211,-131.5 460.156,-131.5 460.156,-113.5 325.211,-113.5"/>
<text text-anchor="middle" x="392.684" y="-119.5" font-family="Helvetica,sans-Serif" font-size="10.00">QtPassSettings::isAutoPull</text>
</a>
</g>
</g>
<!-- Node122&#45;&gt;Node123 -->
<g id="edge9" class="edge"><title>Node122&#45;&gt;Node123</title>
<path fill="none" stroke="midnightblue" d="M213.97,-208.327C231.914,-193.366 269.727,-163.663 306.305,-146.5 316.654,-141.644 328.183,-137.586 339.336,-134.271"/>
<polygon fill="midnightblue" stroke="midnightblue" points="340.324,-137.629 349.001,-131.548 338.426,-130.891 340.324,-137.629"/>
</g>
<!-- Node124 -->
<g id="node9" class="node"><title>Node124</title>
<g id="a_node9"><a xlink:href="class_imitate_pass.html#a7c125494de4869c06a6ef26697101b7e" target="_top" xlink:title="ImitatePass::GitPull_b git pull wrapper. ">
<polygon fill="none" stroke="black" points="335.497,-76.5 335.497,-94.5 449.871,-94.5 449.871,-76.5 335.497,-76.5"/>
<text text-anchor="middle" x="392.684" y="-82.5" font-family="Helvetica,sans-Serif" font-size="10.00">ImitatePass::GitPull_b</text>
</a>
</g>
</g>
<!-- Node122&#45;&gt;Node124 -->
<g id="edge10" class="edge"><title>Node122&#45;&gt;Node124</title>
<path fill="none" stroke="midnightblue" d="M208.661,-208.336C222.083,-186.361 259.359,-130.495 306.305,-103.5 312.216,-100.101 318.689,-97.3404 325.342,-95.0993"/>
<polygon fill="midnightblue" stroke="midnightblue" points="326.589,-98.3801 335.175,-92.1736 324.592,-91.6708 326.589,-98.3801"/>
</g>
<!-- Node125 -->
<g id="node10" class="node"><title>Node125</title>
<g id="a_node10"><a xlink:href="class_executor.html#a65a32a439c0a531e4553cab015061f2f" target="_top" xlink:title="Executor::executeBlocking blocking version of the executor, takes input and presents it as stdin...">
<polygon fill="none" stroke="black" points="523.397,-47.5 523.397,-65.5 657.239,-65.5 657.239,-47.5 523.397,-47.5"/>
<text text-anchor="middle" x="590.318" y="-53.5" font-family="Helvetica,sans-Serif" font-size="10.00">Executor::executeBlocking</text>
</a>
</g>
</g>
<!-- Node122&#45;&gt;Node125 -->
<g id="edge15" class="edge"><title>Node122&#45;&gt;Node125</title>
<path fill="none" stroke="midnightblue" d="M208.06,-208.388C224.065,-178.28 276.425,-82.9664 306.305,-66.5 379.776,-26.0101 481.035,-35.0523 540.401,-45.586"/>
<polygon fill="midnightblue" stroke="midnightblue" points="539.799,-49.0339 550.27,-47.4198 541.078,-42.1517 539.799,-49.0339"/>
</g>
<!-- Node126 -->
<g id="node11" class="node"><title>Node126</title>
<g id="a_node11"><a xlink:href="class_pass.html#a6c5400e104ade2f41c8d4a41fc0b4f4e" target="_top" xlink:title="Pass::getRecipientList return list of gpg&#45;id&#39;s to encrypt for. ">
<polygon fill="none" stroke="black" points="335.213,-264.5 335.213,-282.5 450.154,-282.5 450.154,-264.5 335.213,-264.5"/>
<text text-anchor="middle" x="392.684" y="-270.5" font-family="Helvetica,sans-Serif" font-size="10.00">Pass::getRecipientList</text>
</a>
</g>
</g>
<!-- Node122&#45;&gt;Node126 -->
<g id="edge13" class="edge"><title>Node122&#45;&gt;Node126</title>
<path fill="none" stroke="midnightblue" d="M225.923,-226.564C246.619,-234.623 278.192,-246.359 306.305,-254.5 315.931,-257.288 326.269,-259.901 336.312,-262.244"/>
<polygon fill="midnightblue" stroke="midnightblue" points="335.692,-265.693 346.218,-264.494 337.242,-258.866 335.692,-265.693"/>
</g>
<!-- Node127 -->
<g id="node12" class="node"><title>Node127</title>
<g id="a_node12"><a xlink:href="class_qt_pass_settings.html#abb8c53443d71181a3ecd6545464453e6" target="_top" xlink:title="QtPassSettings::getPassStore">
<polygon fill="none" stroke="black" points="515.062,-227.5 515.062,-245.5 665.574,-245.5 665.574,-227.5 515.062,-227.5"/>
<text text-anchor="middle" x="590.318" y="-233.5" font-family="Helvetica,sans-Serif" font-size="10.00">QtPassSettings::getPassStore</text>
</a>
</g>
</g>
<!-- Node122&#45;&gt;Node127 -->
<g id="edge20" class="edge"><title>Node122&#45;&gt;Node127</title>
<path fill="none" stroke="midnightblue" d="M270.569,-214.304C326.493,-212.414 408.101,-211.43 479.062,-217.5 498.168,-219.134 518.934,-222.333 537.238,-225.647"/>
<polygon fill="midnightblue" stroke="midnightblue" points="536.656,-229.099 547.128,-227.491 537.939,-222.218 536.656,-229.099"/>
</g>
<!-- Node128 -->
<g id="node13" class="node"><title>Node128</title>
<g id="a_node13"><a xlink:href="class_qt_pass_settings.html#a92b674cdafc03000c808bff5fab93249" target="_top" xlink:title="QtPassSettings::getGpgExecutable">
<polygon fill="none" stroke="black" points="306.305,-301.5 306.305,-319.5 479.062,-319.5 479.062,-301.5 306.305,-301.5"/>
<text text-anchor="middle" x="392.684" y="-307.5" font-family="Helvetica,sans-Serif" font-size="10.00">QtPassSettings::getGpgExecutable</text>
</a>
</g>
</g>
<!-- Node122&#45;&gt;Node128 -->
<g id="edge16" class="edge"><title>Node122&#45;&gt;Node128</title>
<path fill="none" stroke="midnightblue" d="M212.949,-226.558C230.264,-242.264 268.316,-274.493 306.305,-291.5 312.451,-294.251 319.029,-296.62 325.706,-298.655"/>
<polygon fill="midnightblue" stroke="midnightblue" points="324.946,-302.077 335.52,-301.405 326.835,-295.337 324.946,-302.077"/>
</g>
<!-- Node129 -->
<g id="node14" class="node"><title>Node129</title>
<g id="a_node14"><a xlink:href="class_qt_pass_settings.html#a68a9cac12925baf6cff2ce2c7a0f5a8c" target="_top" xlink:title="QtPassSettings::isUseWebDav">
<polygon fill="none" stroke="black" points="315.858,-227.5 315.858,-245.5 469.509,-245.5 469.509,-227.5 315.858,-227.5"/>
<text text-anchor="middle" x="392.684" y="-233.5" font-family="Helvetica,sans-Serif" font-size="10.00">QtPassSettings::isUseWebDav</text>
</a>
</g>
</g>
<!-- Node122&#45;&gt;Node129 -->
<g id="edge17" class="edge"><title>Node122&#45;&gt;Node129</title>
<path fill="none" stroke="midnightblue" d="M270.499,-224.279C281.86,-225.425 293.793,-226.628 305.557,-227.814"/>
<polygon fill="midnightblue" stroke="midnightblue" points="305.532,-231.33 315.833,-228.851 306.234,-224.365 305.532,-231.33"/>
</g>
<!-- Node124&#45;&gt;Node119 -->
<g id="edge12" class="edge"><title>Node124&#45;&gt;Node119</title>
<path fill="none" stroke="midnightblue" d="M440.752,-94.5468C512.626,-108.361 649.522,-134.674 726.908,-149.548"/>
<polygon fill="midnightblue" stroke="midnightblue" points="726.48,-153.029 736.961,-151.48 727.801,-146.155 726.48,-153.029"/>
</g>
<!-- Node124&#45;&gt;Node125 -->
<g id="edge11" class="edge"><title>Node124&#45;&gt;Node125</title>
<path fill="none" stroke="midnightblue" d="M450.007,-77.1509C471.248,-74.0021 495.695,-70.3783 518.12,-67.054"/>
<polygon fill="midnightblue" stroke="midnightblue" points="518.885,-70.4791 528.263,-65.5505 517.858,-63.5548 518.885,-70.4791"/>
</g>
<!-- Node126&#45;&gt;Node127 -->
<g id="edge14" class="edge"><title>Node126&#45;&gt;Node127</title>
<path fill="none" stroke="midnightblue" d="M441.291,-264.496C468.507,-259.349 502.837,-252.856 531.583,-247.419"/>
<polygon fill="midnightblue" stroke="midnightblue" points="532.322,-250.842 541.497,-245.544 531.021,-243.964 532.322,-250.842"/>
</g>
</g>
</svg>
