<?xml version="1.0" encoding="UTF-8" standalone="no"?>
<!DOCTYPE svg PUBLIC "-//W3C//DTD SVG 1.1//EN"
 "http://www.w3.org/Graphics/SVG/1.1/DTD/svg11.dtd">
<!-- Generated by graphviz version 2.43.0 (0)
 -->
<!-- Title: ImitatePass Pages: 1 -->
<svg width="179pt" height="137pt"
 viewBox="0.00 0.00 178.50 137.00" xmlns="http://www.w3.org/2000/svg" xmlns:xlink="http://www.w3.org/1999/xlink">
<g id="graph0" class="graph" transform="scale(1 1) rotate(0) translate(4 133)">
<title>ImitatePass</title>
<!-- Node1 -->
<g id="Node000001" class="node">
<title>Node1</title>
<g id="a_Node000001"><a xlink:title="Implementation that imitates &#39;pass&#39; when the real tool is unavailable.">
<polygon fill="#999999" stroke="#666666" points="110,-19 36,-19 36,0 110,0 110,-19"/>
<text text-anchor="middle" x="73" y="-7" font-family="Helvetica,sans-Serif" font-size="10.00">ImitatePass</text>
</a>
</g>
</g>
<!-- Node2 -->
<g id="Node000002" class="node">
<title>Node2</title>
<g id="a_Node000002"><a xlink:href="class_pass.html" target="_top" xlink:title="Abstract base class for password store operations.">
<polygon fill="white" stroke="#666666" points="47,-74 9,-74 9,-55 47,-55 47,-74"/>
<text text-anchor="middle" x="28" y="-62" font-family="Helvetica,sans-Serif" font-size="10.00">Pass</text>
</a>
</g>
</g>
<!-- Node2&#45;&gt;Node1 -->
<g id="edge1_Node000001_Node000002" class="edge">
<title>Node2&#45;&gt;Node1</title>
<g id="a_edge1_Node000001_Node000002"><a xlink:title=" ">
<path fill="none" stroke="#63b8ff" d="M42.05,-46.96C49.89,-37.72 59.33,-26.6 65.71,-19.09"/>
<polygon fill="#63b8ff" stroke="#63b8ff" points="39.24,-44.86 35.43,-54.75 44.57,-49.39 39.24,-44.86"/>
</a>
</g>
</g>
<!-- Node3 -->
<g id="Node000003" class="node">
<title>Node3</title>
<g id="a_Node000003"><a xlink:title=" ">
<polygon fill="white" stroke="#bfbfbf" points="56,-129 0,-129 0,-110 56,-110 56,-129"/>
<text text-anchor="middle" x="28" y="-117" font-family="Helvetica,sans-Serif" font-size="10.00">QObject</text>
</a>
</g>
</g>
<!-- Node3&#45;&gt;Node2 -->
<g id="edge2_Node000002_Node000003" class="edge">
<title>Node3&#45;&gt;Node2</title>
<g id="a_edge2_Node000002_Node000003"><a xlink:title=" ">
<path fill="none" stroke="#63b8ff" d="M28,-99.66C28,-90.93 28,-80.99 28,-74.09"/>
<polygon fill="#63b8ff" stroke="#63b8ff" points="24.5,-99.75 28,-109.75 31.5,-99.75 24.5,-99.75"/>
</a>
</g>
</g>
<!-- Node4 -->
<g id="Node000004" class="node">
<title>Node4</title>
<g id="a_Node000004"><a xlink:href="classsimple_transaction.html" target="_top" xlink:title="Tracks a sequence of processes that should be treated as one atomic operation.">
<polygon fill="white" stroke="#666666" points="170.5,-74 65.5,-74 65.5,-55 170.5,-55 170.5,-74"/>
<text text-anchor="middle" x="118" y="-62" font-family="Helvetica,sans-Serif" font-size="10.00">simpleTransaction</text>
</a>
</g>
</g>
<!-- Node4&#45;&gt;Node1 -->
<g id="edge3_Node000001_Node000004" class="edge">
<title>Node4&#45;&gt;Node1</title>
<g id="a_edge3_Node000001_Node000004"><a xlink:title=" ">
<path fill="none" stroke="#8b1a1a" d="M103.95,-46.96C96.11,-37.72 86.67,-26.6 80.29,-19.09"/>
<polygon fill="#8b1a1a" stroke="#8b1a1a" points="101.43,-49.39 110.57,-54.75 106.76,-44.86 101.43,-49.39"/>
</a>
</g>
</g>
</g>
</svg>
