<?xml version="1.0" encoding="UTF-8" standalone="no"?>
<!DOCTYPE svg PUBLIC "-//W3C//DTD SVG 1.1//EN"
 "http://www.w3.org/Graphics/SVG/1.1/DTD/svg11.dtd">
<!-- Generated by graphviz version 2.38.0 (20140413.2041)
 -->
<!-- Title: Pass::GitPull_b Pages: 1 -->
<svg width="604pt" height="82pt"
 viewBox="0.00 0.00 604.06 82.00" xmlns="http://www.w3.org/2000/svg" xmlns:xlink="http://www.w3.org/1999/xlink">
<g id="graph0" class="graph" transform="scale(1 1) rotate(0) translate(4 78)">
<title>Pass::GitPull_b</title>
<!-- Node149 -->
<g id="node1" class="node"><title>Node149</title>
<polygon fill="#bfbfbf" stroke="black" points="0,-18.5 0,-36.5 84.3643,-36.5 84.3643,-18.5 0,-18.5"/>
<text text-anchor="middle" x="42.1821" y="-24.5" font-family="Helvetica,sans-Serif" font-size="10.00">Pass::GitPull_b</text>
</g>
<!-- Node150 -->
<g id="node2" class="node"><title>Node150</title>
<g id="a_node2"><a xlink:href="class_main_window.html#aeb8091ab5531144b76c1fbb0d63deb56" target="_top" xlink:title="MainWindow::config pops up the configuration screen and handles all inter&#45;window communication. ">
<polygon fill="none" stroke="black" points="120.364,-37.5 120.364,-55.5 225.847,-55.5 225.847,-37.5 120.364,-37.5"/>
<text text-anchor="middle" x="173.105" y="-43.5" font-family="Helvetica,sans-Serif" font-size="10.00">MainWindow::config</text>
</a>
</g>
</g>
<!-- Node149&#45;&gt;Node150 -->
<g id="edge1" class="edge"><title>Node149&#45;&gt;Node150</title>
<path fill="none" stroke="midnightblue" d="M94.7469,-35.0993C103.154,-36.3383 111.866,-37.6223 120.28,-38.8622"/>
<polygon fill="midnightblue" stroke="midnightblue" points="95.0874,-31.6118 84.6839,-33.6163 94.0668,-38.537 95.0874,-31.6118"/>
</g>
<!-- Node155 -->
<g id="node7" class="node"><title>Node155</title>
<g id="a_node7"><a xlink:href="class_pass.html#a8dfa731be7ac962f9f6a5cf8f29097ec" target="_top" xlink:title="Pass::~Pass">
<polygon fill="none" stroke="black" points="137.176,-0.5 137.176,-18.5 209.035,-18.5 209.035,-0.5 137.176,-0.5"/>
<text text-anchor="middle" x="173.105" y="-6.5" font-family="Helvetica,sans-Serif" font-size="10.00">Pass::~Pass</text>
</a>
</g>
</g>
<!-- Node149&#45;&gt;Node155 -->
<g id="edge6" class="edge"><title>Node149&#45;&gt;Node155</title>
<path fill="none" stroke="midnightblue" d="M94.8405,-20.2876C109.056,-18.3028 124.138,-16.1972 137.166,-14.3781"/>
<polygon fill="midnightblue" stroke="midnightblue" points="94.1039,-16.8564 84.6839,-21.7056 95.0719,-23.7891 94.1039,-16.8564"/>
</g>
<!-- Node151 -->
<g id="node3" class="node"><title>Node151</title>
<g id="a_node3"><a xlink:href="class_main_window.html#a23d2783cb61a373c4b0127970264290a" target="_top" xlink:title="MainWindow::checkConfig make sure we are ready to go as soon as possible. ">
<polygon fill="none" stroke="black" points="276.019,-55.5 276.019,-73.5 409.846,-73.5 409.846,-55.5 276.019,-55.5"/>
<text text-anchor="middle" x="342.933" y="-61.5" font-family="Helvetica,sans-Serif" font-size="10.00">MainWindow::checkConfig</text>
</a>
</g>
</g>
<!-- Node150&#45;&gt;Node151 -->
<g id="edge2" class="edge"><title>Node150&#45;&gt;Node151</title>
<path fill="none" stroke="midnightblue" d="M236.419,-53.1833C249.277,-54.5624 262.862,-56.0194 275.849,-57.4124"/>
<polygon fill="midnightblue" stroke="midnightblue" points="236.603,-49.6831 226.287,-52.0966 235.857,-56.6432 236.603,-49.6831"/>
</g>
<!-- Node153 -->
<g id="node5" class="node"><title>Node153</title>
<g id="a_node5"><a xlink:href="class_main_window.html#a4680b2cbcfd388683a98303f29c0f84f" target="_top" xlink:title="MainWindow::executePassGitInit git init wrapper. ">
<polygon fill="none" stroke="black" points="261.847,-18.5 261.847,-36.5 424.019,-36.5 424.019,-18.5 261.847,-18.5"/>
<text text-anchor="middle" x="342.933" y="-24.5" font-family="Helvetica,sans-Serif" font-size="10.00">MainWindow::executePassGitInit</text>
</a>
</g>
</g>
<!-- Node150&#45;&gt;Node153 -->
<g id="edge4" class="edge"><title>Node150&#45;&gt;Node153</title>
<path fill="none" stroke="midnightblue" d="M236.423,-39.4449C244.882,-38.4873 253.654,-37.4942 262.364,-36.5081"/>
<polygon fill="midnightblue" stroke="midnightblue" points="235.83,-35.9896 226.287,-40.5924 236.617,-42.9452 235.83,-35.9896"/>
</g>
<!-- Node152 -->
<g id="node4" class="node"><title>Node152</title>
<g id="a_node4"><a xlink:href="class_main_window.html#a8b244be8b7b7db1b08de2a2acb9409db" target="_top" xlink:title="MainWindow::MainWindow handles all of the main functionality and also the main window. ">
<polygon fill="none" stroke="black" points="460.019,-55.5 460.019,-73.5 596.058,-73.5 596.058,-55.5 460.019,-55.5"/>
<text text-anchor="middle" x="528.038" y="-61.5" font-family="Helvetica,sans-Serif" font-size="10.00">MainWindow::MainWindow</text>
</a>
</g>
</g>
<!-- Node151&#45;&gt;Node152 -->
<g id="edge3" class="edge"><title>Node151&#45;&gt;Node152</title>
<path fill="none" stroke="midnightblue" d="M420.413,-64.5C433.489,-64.5 446.986,-64.5 459.799,-64.5"/>
<polygon fill="midnightblue" stroke="midnightblue" points="420.038,-61.0001 410.038,-64.5 420.038,-68.0001 420.038,-61.0001"/>
</g>
<!-- Node154 -->
<g id="node6" class="node"><title>Node154</title>
<g id="a_node6"><a xlink:href="class_config_dialog.html#ad5b80066591f19fdaaa06b7cb5ba7f15" target="_top" xlink:title="ConfigDialog::wizard first&#45;time use wizard. ">
<polygon fill="none" stroke="black" points="474.184,-18.5 474.184,-36.5 581.893,-36.5 581.893,-18.5 474.184,-18.5"/>
<text text-anchor="middle" x="528.038" y="-24.5" font-family="Helvetica,sans-Serif" font-size="10.00">ConfigDialog::wizard</text>
</a>
</g>
</g>
<!-- Node153&#45;&gt;Node154 -->
<g id="edge5" class="edge"><title>Node153&#45;&gt;Node154</title>
<path fill="none" stroke="midnightblue" d="M434.537,-27.5C448.027,-27.5 461.545,-27.5 473.918,-27.5"/>
<polygon fill="midnightblue" stroke="midnightblue" points="434.245,-24.0001 424.245,-27.5 434.245,-31.0001 434.245,-24.0001"/>
</g>
</g>
</svg>
