<?xml version="1.0" encoding="UTF-8" standalone="no"?>
<!DOCTYPE svg PUBLIC "-//W3C//DTD SVG 1.1//EN"
 "http://www.w3.org/Graphics/SVG/1.1/DTD/svg11.dtd">
<!-- Generated by graphviz version 2.38.0 (20140413.2041)
 -->
<!-- Title: RealPass::Move Pages: 1 -->
<svg width="495pt" height="64pt"
 viewBox="0.00 0.00 495.41 64.00" xmlns="http://www.w3.org/2000/svg" xmlns:xlink="http://www.w3.org/1999/xlink">
<g id="graph0" class="graph" transform="scale(1 1) rotate(0) translate(4 60)">
<title>RealPass::Move</title>
<!-- Node56 -->
<g id="node1" class="node"><title>Node56</title>
<polygon fill="#bfbfbf" stroke="black" points="0,-18.5 0,-36.5 88.8076,-36.5 88.8076,-18.5 0,-18.5"/>
<text text-anchor="middle" x="44.4038" y="-24.5" font-family="Helvetica,sans-Serif" font-size="10.00">RealPass::Move</text>
</g>
<!-- Node57 -->
<g id="node2" class="node"><title>Node57</title>
<g id="a_node2"><a xlink:href="class_qt_pass_settings.html#abb8c53443d71181a3ecd6545464453e6" target="_top" xlink:title="QtPassSettings::getPassStore">
<polygon fill="none" stroke="black" points="124.808,-37.5 124.808,-55.5 275.319,-55.5 275.319,-37.5 124.808,-37.5"/>
<text text-anchor="middle" x="200.063" y="-43.5" font-family="Helvetica,sans-Serif" font-size="10.00">QtPassSettings::getPassStore</text>
</a>
</g>
</g>
<!-- Node56&#45;&gt;Node57 -->
<g id="edge1" class="edge"><title>Node56&#45;&gt;Node57</title>
<path fill="none" stroke="midnightblue" d="M89.0255,-32.8938C97.5614,-33.9493 106.774,-35.0885 116.109,-36.2427"/>
<polygon fill="midnightblue" stroke="midnightblue" points="115.905,-39.744 126.259,-37.4977 116.764,-32.7969 115.905,-39.744"/>
</g>
<!-- Node58 -->
<g id="node3" class="node"><title>Node58</title>
<g id="a_node3"><a xlink:href="class_pass.html#a0c5efdb4049f435f7a06aae59f14e6a0" target="_top" xlink:title="Pass::executePass easy wrapper for running pass. ">
<polygon fill="none" stroke="black" points="149.542,-0.5 149.542,-18.5 250.585,-18.5 250.585,-0.5 149.542,-0.5"/>
<text text-anchor="middle" x="200.063" y="-6.5" font-family="Helvetica,sans-Serif" font-size="10.00">Pass::executePass</text>
</a>
</g>
</g>
<!-- Node56&#45;&gt;Node58 -->
<g id="edge2" class="edge"><title>Node56&#45;&gt;Node58</title>
<path fill="none" stroke="midnightblue" d="M89.0255,-22.3901C104.603,-20.5653 122.435,-18.4764 139.145,-16.519"/>
<polygon fill="midnightblue" stroke="midnightblue" points="139.849,-19.9606 149.374,-15.3208 139.034,-13.0081 139.849,-19.9606"/>
</g>
<!-- Node59 -->
<g id="node4" class="node"><title>Node59</title>
<g id="a_node4"><a xlink:href="class_qt_pass_settings.html#af0176d02663714d795cdf23eec6b657a" target="_top" xlink:title="QtPassSettings::getPassExecutable">
<polygon fill="none" stroke="black" points="311.319,-0.5 311.319,-18.5 487.407,-18.5 487.407,-0.5 311.319,-0.5"/>
<text text-anchor="middle" x="399.363" y="-6.5" font-family="Helvetica,sans-Serif" font-size="10.00">QtPassSettings::getPassExecutable</text>
</a>
</g>
</g>
<!-- Node58&#45;&gt;Node59 -->
<g id="edge3" class="edge"><title>Node58&#45;&gt;Node59</title>
<path fill="none" stroke="midnightblue" d="M250.596,-9.5C265.959,-9.5 283.455,-9.5 300.902,-9.5"/>
<polygon fill="midnightblue" stroke="midnightblue" points="301.152,-13.0001 311.152,-9.5 301.152,-6.0001 301.152,-13.0001"/>
</g>
</g>
</svg>
