<?xml version="1.0" encoding="UTF-8" standalone="no"?>
<!DOCTYPE svg PUBLIC "-//W3C//DTD SVG 1.1//EN"
 "http://www.w3.org/Graphics/SVG/1.1/DTD/svg11.dtd">
<!-- Generated by graphviz version 2.40.1 (20161225.0304)
 -->
<!-- Title: Pass::finishedShow Pages: 1 -->
<!--zoomable 139 -->
<svg id="main" version="1.1" xmlns="http://www.w3.org/2000/svg" xmlns:xlink="http://www.w3.org/1999/xlink" xml:space="preserve" onload="init(evt)">
<style type="text/css"><![CDATA[
.edge:hover path { stroke: red; }
.edge:hover polygon { stroke: red; fill: red; }
]]></style>
<script type="text/javascript"><![CDATA[
var edges = document.getElementsByTagName('g');
if (edges && edges.length) {
  for (var i=0;i<edges.length;i++) {
    if (edges[i].id.substr(0,4)=='edge') {
      edges[i].setAttribute('class','edge');
    }
  }
}
]]></script>
        <defs>
                <circle id="rim" cx="0" cy="0" r="7"/>
                <circle id="rim2" cx="0" cy="0" r="3.5"/>
                <g id="zoomPlus">
                        <use xlink:href="#rim" fill="#404040">
                                <set attributeName="fill" to="#808080" begin="zoomplus.mouseover" end="zoomplus.mouseout"/>
                        </use>
                        <path d="M-4,0h8M0,-4v8" fill="none" stroke="white" stroke-width="1.5" pointer-events="none"/>
                </g>
                <g id="zoomMin">
                        <use xlink:href="#rim" fill="#404040">
                                <set attributeName="fill" to="#808080" begin="zoomminus.mouseover" end="zoomminus.mouseout"/>
                        </use>
                        <path d="M-4,0h8" fill="none" stroke="white" stroke-width="1.5" pointer-events="none"/>
                </g>
                <g id="dirArrow">
                        <path fill="none" stroke="white" stroke-width="1.5" d="M0,-3.0v7 M-2.5,-0.5L0,-3.0L2.5,-0.5"/>
                </g>
               <g id="resetDef">
                       <use xlink:href="#rim2" fill="#404040">
                               <set attributeName="fill" to="#808080" begin="reset.mouseover" end="reset.mouseout"/>
                       </use>
               </g>
        </defs>

<script type="text/javascript">
var viewWidth = 633;
var viewHeight = 139;
var sectionId = 'dynsection-25';
</script>
<script xlink:href="svgpan.js"/>
<svg id="graph" class="graph">
<g id="viewport">
<title>Pass::finishedShow</title>
<!-- Node134 -->
<g id="node1" class="node">
<title>Node134</title>
<polygon fill="#bfbfbf" stroke="#000000" points="0,-56.5 0,-74.5 103.2705,-74.5 103.2705,-56.5 0,-56.5"/>
<text text-anchor="middle" x="51.6353" y="-62.5" font-family="Helvetica,sans-Serif" font-size="10.00" fill="#000000">Pass::finishedShow</text>
</g>
<!-- Node135 -->
<g id="node2" class="node">
<title>Node135</title>
<g id="a_node2"><a xlink:href="class_main_window.html#a8b244be8b7b7db1b08de2a2acb9409db" target="_top" xlink:title="MainWindow::MainWindow handles all of the main functionality and also the main window. ">
<polygon fill="none" stroke="#000000" points="152.3369,-112.5 152.3369,-130.5 288.376,-130.5 288.376,-112.5 152.3369,-112.5"/>
<text text-anchor="middle" x="220.3564" y="-118.5" font-family="Helvetica,sans-Serif" font-size="10.00" fill="#000000">MainWindow::MainWindow</text>
</a>
</g>
</g>
<!-- Node134&#45;&gt;Node135 -->
<g id="edge1" class="edge">
<title>Node134&#45;&gt;Node135</title>
<path fill="none" stroke="#191970" d="M79.0389,-78.9918C96.0607,-86.9648 118.5691,-96.782 139.2705,-103.5 149.8318,-106.9273 161.3756,-109.9213 172.3554,-112.4326"/>
<polygon fill="#191970" stroke="#191970" points="80.2394,-75.6869 69.7059,-74.5479 77.23,-82.007 80.2394,-75.6869"/>
</g>
<!-- Node136 -->
<g id="node3" class="node">
<title>Node136</title>
<g id="a_node3"><a xlink:href="class_main_window.html#a4680b2cbcfd388683a98303f29c0f84f" target="_top" xlink:title="MainWindow::executePassGitInit git init wrapper. ">
<polygon fill="none" stroke="#000000" points="139.2705,-75.5 139.2705,-93.5 301.4424,-93.5 301.4424,-75.5 139.2705,-75.5"/>
<text text-anchor="middle" x="220.3564" y="-81.5" font-family="Helvetica,sans-Serif" font-size="10.00" fill="#000000">MainWindow::executePassGitInit</text>
</a>
</g>
</g>
<!-- Node134&#45;&gt;Node136 -->
<g id="edge2" class="edge">
<title>Node134&#45;&gt;Node136</title>
<path fill="none" stroke="#191970" d="M113.6422,-72.4827C122.3216,-73.4601 131.3413,-74.4758 140.2962,-75.4843"/>
<polygon fill="#191970" stroke="#191970" points="113.9628,-68.9968 103.6339,-71.3557 113.1794,-75.9528 113.9628,-68.9968"/>
</g>
<!-- Node138 -->
<g id="node5" class="node">
<title>Node138</title>
<g id="a_node5"><a xlink:href="class_pass.html#a451b0f52aa0332801252ae28665e29b3" target="_top" xlink:title="Pass::listKeys list users. ">
<polygon fill="none" stroke="#000000" points="181.2358,-38.5 181.2358,-56.5 259.4771,-56.5 259.4771,-38.5 181.2358,-38.5"/>
<text text-anchor="middle" x="220.3564" y="-44.5" font-family="Helvetica,sans-Serif" font-size="10.00" fill="#000000">Pass::listKeys</text>
</a>
</g>
</g>
<!-- Node134&#45;&gt;Node138 -->
<g id="edge4" class="edge">
<title>Node134&#45;&gt;Node138</title>
<path fill="none" stroke="#191970" d="M113.7979,-58.8682C136.323,-56.4651 161.1212,-53.8195 181.1231,-51.6856"/>
<polygon fill="#191970" stroke="#191970" points="113.2061,-55.4114 103.6339,-59.9525 113.9488,-62.3719 113.2061,-55.4114"/>
</g>
<!-- Node141 -->
<g id="node8" class="node">
<title>Node141</title>
<g id="a_node8"><a xlink:href="class_pass.html#a8dfa731be7ac962f9f6a5cf8f29097ec" target="_top" xlink:title="Pass::~Pass">
<polygon fill="none" stroke="#000000" points="373.4287,-.5 373.4287,-18.5 445.2881,-18.5 445.2881,-.5 373.4287,-.5"/>
<text text-anchor="middle" x="409.3584" y="-6.5" font-family="Helvetica,sans-Serif" font-size="10.00" fill="#000000">Pass::~Pass</text>
</a>
</g>
</g>
<!-- Node134&#45;&gt;Node141 -->
<g id="edge10" class="edge">
<title>Node134&#45;&gt;Node141</title>
<path fill="none" stroke="#191970" d="M77.8056,-51.7624C94.8319,-43.5091 117.7882,-33.6403 139.2705,-28.5 221.33,-8.8646 321.1004,-7.4236 373.4011,-8.3158"/>
<polygon fill="#191970" stroke="#191970" points="75.9122,-48.7953 68.5221,-56.3872 79.0336,-55.0609 75.9122,-48.7953"/>
</g>
<!-- Node137 -->
<g id="node4" class="node">
<title>Node137</title>
<g id="a_node4"><a xlink:href="class_config_dialog.html#ad5b80066591f19fdaaa06b7cb5ba7f15" target="_top" xlink:title="ConfigDialog::wizard first&#45;time use wizard. ">
<polygon fill="none" stroke="#000000" points="517.2744,-74.5 517.2744,-92.5 624.9834,-92.5 624.9834,-74.5 517.2744,-74.5"/>
<text text-anchor="middle" x="571.1289" y="-80.5" font-family="Helvetica,sans-Serif" font-size="10.00" fill="#000000">ConfigDialog::wizard</text>
</a>
</g>
</g>
<!-- Node136&#45;&gt;Node137 -->
<g id="edge3" class="edge">
<title>Node136&#45;&gt;Node137</title>
<path fill="none" stroke="#191970" d="M277.9591,-95.1429C296.8426,-98.1525 317.9741,-101.0123 337.4424,-102.5 401.1819,-107.3708 417.6957,-109.1484 481.2744,-102.5 499.8285,-100.5598 520.1916,-96.4244 536.8346,-92.5056"/>
<polygon fill="#191970" stroke="#191970" points="278.4527,-91.6771 268.0181,-93.5127 277.32,-98.5849 278.4527,-91.6771"/>
</g>
<!-- Node139 -->
<g id="node6" class="node">
<title>Node139</title>
<g id="a_node6"><a xlink:href="class_main_window.html#add7481e9707f309caba6b5d3a8c1ddc9" target="_top" xlink:title="MainWindow::userDialog see MainWindow::on_usersButton_clicked() ">
<polygon fill="none" stroke="#000000" points="346.0581,-74.5 346.0581,-92.5 472.6587,-92.5 472.6587,-74.5 346.0581,-74.5"/>
<text text-anchor="middle" x="409.3584" y="-80.5" font-family="Helvetica,sans-Serif" font-size="10.00" fill="#000000">MainWindow::userDialog</text>
</a>
</g>
</g>
<!-- Node138&#45;&gt;Node139 -->
<g id="edge5" class="edge">
<title>Node138&#45;&gt;Node139</title>
<path fill="none" stroke="#191970" d="M269.6523,-56.8896C298.1126,-62.3105 333.729,-69.0945 361.8768,-74.456"/>
<polygon fill="#191970" stroke="#191970" points="269.9961,-53.3922 259.5178,-54.9592 268.6862,-60.2686 269.9961,-53.3922"/>
</g>
<!-- Node140 -->
<g id="node7" class="node">
<title>Node140</title>
<g id="a_node7"><a xlink:href="class_main_window.html#a38957de181a576efc28befeb7c47abec" target="_top" xlink:title="MainWindow::getSecretKeys get list of secret/private keys. ">
<polygon fill="none" stroke="#000000" points="337.4424,-37.5 337.4424,-55.5 481.2744,-55.5 481.2744,-37.5 337.4424,-37.5"/>
<text text-anchor="middle" x="409.3584" y="-43.5" font-family="Helvetica,sans-Serif" font-size="10.00" fill="#000000">MainWindow::getSecretKeys</text>
</a>
</g>
</g>
<!-- Node138&#45;&gt;Node140 -->
<g id="edge7" class="edge">
<title>Node138&#45;&gt;Node140</title>
<path fill="none" stroke="#191970" d="M269.6468,-47.2392C290.3228,-47.1298 314.7763,-47.0004 337.3994,-46.8807"/>
<polygon fill="#191970" stroke="#191970" points="269.4991,-43.7398 259.5178,-47.2928 269.5362,-50.7397 269.4991,-43.7398"/>
</g>
<!-- Node138&#45;&gt;Node141 -->
<g id="edge9" class="edge">
<title>Node138&#45;&gt;Node141</title>
<path fill="none" stroke="#191970" d="M269.6863,-37.5819C302.0926,-31.0664 343.7657,-22.6878 373.1283,-16.7843"/>
<polygon fill="#191970" stroke="#191970" points="268.6317,-34.2238 259.5178,-39.6264 270.0115,-41.0865 268.6317,-34.2238"/>
</g>
<!-- Node139&#45;&gt;Node137 -->
<g id="edge6" class="edge">
<title>Node139&#45;&gt;Node137</title>
<path fill="none" stroke="#191970" d="M482.9173,-83.5C494.4821,-83.5 506.2484,-83.5 517.2599,-83.5"/>
<polygon fill="#191970" stroke="#191970" points="482.8301,-80.0001 472.8301,-83.5 482.83,-87.0001 482.8301,-80.0001"/>
</g>
<!-- Node140&#45;&gt;Node137 -->
<g id="edge8" class="edge">
<title>Node140&#45;&gt;Node137</title>
<path fill="none" stroke="#191970" d="M458.6809,-57.781C482.0928,-63.1357 509.689,-69.4475 531.6839,-74.4782"/>
<polygon fill="#191970" stroke="#191970" points="459.4606,-54.369 448.9319,-55.5512 457.8998,-61.1928 459.4606,-54.369"/>
</g>
</g>
</svg>
        <g id="navigator" transform="translate(0 0)" fill="#404254">
                <rect fill="#f2f5e9" fill-opacity="0.5" stroke="#606060" stroke-width=".5" x="0" y="0" width="60" height="60"/>
                <use id="zoomplus" xlink:href="#zoomPlus" x="17" y="9" onmousedown="handleZoom(evt,'in')"/>
                <use id="zoomminus" xlink:href="#zoomMin" x="42" y="9" onmousedown="handleZoom(evt,'out')"/>
                <use id="reset" xlink:href="#resetDef" x="30" y="36" onmousedown="handleReset()"/>
                <g id="arrowUp" xlink:href="#dirArrow" transform="translate(30 24)" onmousedown="handlePan(0,-1)">
                  <use xlink:href="#rim" fill="#404040">
                        <set attributeName="fill" to="#808080" begin="arrowUp.mouseover" end="arrowUp.mouseout"/>
                  </use>
                  <path fill="none" stroke="white" stroke-width="1.5" d="M0,-3.0v7 M-2.5,-0.5L0,-3.0L2.5,-0.5"/>
                </g>
                <g id="arrowRight" xlink:href="#dirArrow" transform="rotate(90) translate(36 -43)" onmousedown="handlePan(1,0)">
                  <use xlink:href="#rim" fill="#404040">
                        <set attributeName="fill" to="#808080" begin="arrowRight.mouseover" end="arrowRight.mouseout"/>
                  </use>
                  <path fill="none" stroke="white" stroke-width="1.5" d="M0,-3.0v7 M-2.5,-0.5L0,-3.0L2.5,-0.5"/>
                </g>
                <g id="arrowDown" xlink:href="#dirArrow" transform="rotate(180) translate(-30 -48)" onmousedown="handlePan(0,1)">
                  <use xlink:href="#rim" fill="#404040">
                        <set attributeName="fill" to="#808080" begin="arrowDown.mouseover" end="arrowDown.mouseout"/>
                  </use>
                  <path fill="none" stroke="white" stroke-width="1.5" d="M0,-3.0v7 M-2.5,-0.5L0,-3.0L2.5,-0.5"/>
                </g>
                <g id="arrowLeft" xlink:href="#dirArrow" transform="rotate(270) translate(-36 17)" onmousedown="handlePan(-1,0)">
                  <use xlink:href="#rim" fill="#404040">
                        <set attributeName="fill" to="#808080" begin="arrowLeft.mouseover" end="arrowLeft.mouseout"/>
                  </use>
                  <path fill="none" stroke="white" stroke-width="1.5" d="M0,-3.0v7 M-2.5,-0.5L0,-3.0L2.5,-0.5"/>
                </g>
        </g>
        <svg viewBox="0 0 15 15" width="100%" height="30px" preserveAspectRatio="xMaxYMin meet">
         <g id="arrow_out" transform="scale(0.3 0.3)">
          <a xlink:href="class_pass_a24cdfb567ab68940f2a823704e2ab1ba_icgraph_org.svg" target="_base">
           <rect id="button" ry="5" rx="5" y="6" x="6" height="38" width="38"
                fill="#f2f5e9" fill-opacity="0.5" stroke="#606060" stroke-width="1.0"/>
           <path id="arrow"
             d="M 11.500037,31.436501 C 11.940474,20.09759 22.043105,11.32322 32.158766,21.979434 L 37.068811,17.246167 C 37.068811,17.246167 37.088388,32 37.088388,32 L 22.160133,31.978069 C 22.160133,31.978069 26.997745,27.140456 26.997745,27.140456 C 18.528582,18.264221 13.291696,25.230495 11.500037,31.436501 z"
             style="fill:#404040;"/>
          </a>
         </g>
        </svg>
</svg>
