<?xml version="1.0" encoding="UTF-8" standalone="no"?>
<!DOCTYPE svg PUBLIC "-//W3C//DTD SVG 1.1//EN"
 "http://www.w3.org/Graphics/SVG/1.1/DTD/svg11.dtd">
<!-- Generated by graphviz version 2.40.1 (20161225.0304)
 -->
<!-- Title: QtPassSettings::setHideOnClose Pages: 1 -->
<svg width="629pt" height="37pt"
 viewBox="0.00 0.00 629.07 37.00" xmlns="http://www.w3.org/2000/svg" xmlns:xlink="http://www.w3.org/1999/xlink">
<g id="graph0" class="graph" transform="scale(1 1) rotate(0) translate(4 33)">
<title>QtPassSettings::setHideOnClose</title>
<!-- Node562 -->
<g id="node1" class="node">
<title>Node562</title>
<polygon fill="#bfbfbf" stroke="#000000" points="0,-.5 0,-28.5 137.7236,-28.5 137.7236,-.5 0,-.5"/>
<text text-anchor="start" x="8" y="-16.5" font-family="Helvetica,sans-Serif" font-size="10.00" fill="#000000">QtPassSettings::setHideOn</text>
<text text-anchor="middle" x="68.8618" y="-6.5" font-family="Helvetica,sans-Serif" font-size="10.00" fill="#000000">Close</text>
</g>
<!-- Node563 -->
<g id="node2" class="node">
<title>Node563</title>
<g id="a_node2"><a xlink:href="class_main_window.html#aeb8091ab5531144b76c1fbb0d63deb56" target="_top" xlink:title="MainWindow::config pops up the configuration screen and handles all inter&#45;window communication. ">
<polygon fill="none" stroke="#000000" points="173.7236,-5.5 173.7236,-23.5 279.2061,-23.5 279.2061,-5.5 173.7236,-5.5"/>
<text text-anchor="middle" x="226.4648" y="-11.5" font-family="Helvetica,sans-Serif" font-size="10.00" fill="#000000">MainWindow::config</text>
</a>
</g>
</g>
<!-- Node562&#45;&gt;Node563 -->
<g id="edge1" class="edge">
<title>Node562&#45;&gt;Node563</title>
<path fill="none" stroke="#191970" d="M148.084,-14.5C156.7021,-14.5 165.3134,-14.5 173.5057,-14.5"/>
<polygon fill="#191970" stroke="#191970" points="147.9888,-11.0001 137.9888,-14.5 147.9888,-18.0001 147.9888,-11.0001"/>
</g>
<!-- Node564 -->
<g id="node3" class="node">
<title>Node564</title>
<g id="a_node3"><a xlink:href="class_main_window.html#a23d2783cb61a373c4b0127970264290a" target="_top" xlink:title="MainWindow::checkConfig make sure we are ready to go as soon as possible. ">
<polygon fill="none" stroke="#000000" points="315.2061,-5.5 315.2061,-23.5 449.0332,-23.5 449.0332,-5.5 315.2061,-5.5"/>
<text text-anchor="middle" x="382.1196" y="-11.5" font-family="Helvetica,sans-Serif" font-size="10.00" fill="#000000">MainWindow::checkConfig</text>
</a>
</g>
</g>
<!-- Node563&#45;&gt;Node564 -->
<g id="edge2" class="edge">
<title>Node563&#45;&gt;Node564</title>
<path fill="none" stroke="#191970" d="M289.6974,-14.5C298.0961,-14.5 306.73,-14.5 315.1888,-14.5"/>
<polygon fill="#191970" stroke="#191970" points="289.5971,-11.0001 279.597,-14.5 289.597,-18.0001 289.5971,-11.0001"/>
</g>
<!-- Node565 -->
<g id="node4" class="node">
<title>Node565</title>
<g id="a_node4"><a xlink:href="class_main_window.html#a996c5a2b6f77944776856f08ec30858d" target="_top" xlink:title="MainWindow::MainWindow handles all of the main functionality and also the main window. ">
<polygon fill="none" stroke="#000000" points="485.0332,-5.5 485.0332,-23.5 621.0723,-23.5 621.0723,-5.5 485.0332,-5.5"/>
<text text-anchor="middle" x="553.0527" y="-11.5" font-family="Helvetica,sans-Serif" font-size="10.00" fill="#000000">MainWindow::MainWindow</text>
</a>
</g>
</g>
<!-- Node564&#45;&gt;Node565 -->
<g id="edge3" class="edge">
<title>Node564&#45;&gt;Node565</title>
<path fill="none" stroke="#191970" d="M459.4233,-14.5C467.878,-14.5 476.4401,-14.5 484.7748,-14.5"/>
<polygon fill="#191970" stroke="#191970" points="459.1864,-11.0001 449.1863,-14.5 459.1863,-18.0001 459.1864,-11.0001"/>
</g>
</g>
</svg>
