<?xml version="1.0" encoding="UTF-8" standalone="no"?>
<!DOCTYPE svg PUBLIC "-//W3C//DTD SVG 1.1//EN"
 "http://www.w3.org/Graphics/SVG/1.1/DTD/svg11.dtd">
<!-- Generated by graphviz version 2.40.1 (20161225.0304)
 -->
<!-- Title: QtPassSettings::getAutoclearPanelSeconds Pages: 1 -->
<svg width="666pt" height="64pt"
 viewBox="0.00 0.00 666.32 64.00" xmlns="http://www.w3.org/2000/svg" xmlns:xlink="http://www.w3.org/1999/xlink">
<g id="graph0" class="graph" transform="scale(1 1) rotate(0) translate(4 60)">
<title>QtPassSettings::getAutoclearPanelSeconds</title>
<!-- Node1 -->
<g id="node1" class="node">
<title>Node1</title>
<polygon fill="#bfbfbf" stroke="#000000" points="0,-14.5 0,-42.5 146.625,-42.5 146.625,-14.5 0,-14.5"/>
<text text-anchor="start" x="8" y="-30.5" font-family="Helvetica,sans-Serif" font-size="10.00" fill="#000000">QtPassSettings::getAutoclear</text>
<text text-anchor="middle" x="73.3125" y="-20.5" font-family="Helvetica,sans-Serif" font-size="10.00" fill="#000000">PanelSeconds</text>
</g>
<!-- Node2 -->
<g id="node2" class="node">
<title>Node2</title>
<g id="a_node2"><a xlink:href="class_main_window.html#a23d2783cb61a373c4b0127970264290a" target="_top" xlink:title="MainWindow::checkConfig make sure we are ready to go as soon as possible. ">
<polygon fill="none" stroke="#000000" points="338.2798,-37.5 338.2798,-55.5 472.1069,-55.5 472.1069,-37.5 338.2798,-37.5"/>
<text text-anchor="middle" x="405.1934" y="-43.5" font-family="Helvetica,sans-Serif" font-size="10.00" fill="#000000">MainWindow::checkConfig</text>
</a>
</g>
</g>
<!-- Node1&#45;&gt;Node2 -->
<g id="edge1" class="edge">
<title>Node1&#45;&gt;Node2</title>
<path fill="none" stroke="#191970" d="M157.2332,-33.0516C213.2981,-36.0923 286.0506,-40.0381 338.2289,-42.8681"/>
<polygon fill="#191970" stroke="#191970" points="157.1425,-29.5416 146.9676,-32.4948 156.7634,-36.5313 157.1425,-29.5416"/>
</g>
<!-- Node4 -->
<g id="node4" class="node">
<title>Node4</title>
<g id="a_node4"><a xlink:href="class_main_window.html#aeb8091ab5531144b76c1fbb0d63deb56" target="_top" xlink:title="MainWindow::config pops up the configuration screen and handles all inter&#45;window communication. ">
<polygon fill="none" stroke="#000000" points="182.625,-.5 182.625,-18.5 288.1074,-18.5 288.1074,-.5 182.625,-.5"/>
<text text-anchor="middle" x="235.3662" y="-6.5" font-family="Helvetica,sans-Serif" font-size="10.00" fill="#000000">MainWindow::config</text>
</a>
</g>
</g>
<!-- Node1&#45;&gt;Node4 -->
<g id="edge3" class="edge">
<title>Node1&#45;&gt;Node4</title>
<path fill="none" stroke="#191970" d="M156.9576,-18.693C165.6551,-17.6733 174.3124,-16.6583 182.528,-15.695"/>
<polygon fill="#191970" stroke="#191970" points="156.2774,-15.2487 146.753,-19.8895 157.0925,-22.2011 156.2774,-15.2487"/>
</g>
<!-- Node3 -->
<g id="node3" class="node">
<title>Node3</title>
<g id="a_node3"><a xlink:href="class_main_window.html#a8b244be8b7b7db1b08de2a2acb9409db" target="_top" xlink:title="MainWindow::MainWindow handles all of the main functionality and also the main window. ">
<polygon fill="none" stroke="#000000" points="522.2793,-37.5 522.2793,-55.5 658.3184,-55.5 658.3184,-37.5 522.2793,-37.5"/>
<text text-anchor="middle" x="590.2988" y="-43.5" font-family="Helvetica,sans-Serif" font-size="10.00" fill="#000000">MainWindow::MainWindow</text>
</a>
</g>
</g>
<!-- Node2&#45;&gt;Node3 -->
<g id="edge2" class="edge">
<title>Node2&#45;&gt;Node3</title>
<path fill="none" stroke="#191970" d="M482.3029,-46.5C495.5416,-46.5 509.2141,-46.5 522.1953,-46.5"/>
<polygon fill="#191970" stroke="#191970" points="482.2824,-43.0001 472.2824,-46.5 482.2824,-50.0001 482.2824,-43.0001"/>
</g>
<!-- Node4&#45;&gt;Node2 -->
<g id="edge4" class="edge">
<title>Node4&#45;&gt;Node2</title>
<path fill="none" stroke="#191970" d="M286.8162,-20.7093C311.4642,-26.0794 340.5904,-32.4251 363.7839,-37.4782"/>
<polygon fill="#191970" stroke="#191970" points="287.4265,-17.2603 276.9106,-18.5512 285.9363,-24.0998 287.4265,-17.2603"/>
</g>
<!-- Node5 -->
<g id="node5" class="node">
<title>Node5</title>
<g id="a_node5"><a xlink:href="class_main_window.html#a4680b2cbcfd388683a98303f29c0f84f" target="_top" xlink:title="MainWindow::executePassGitInit git init wrapper. ">
<polygon fill="none" stroke="#000000" points="324.1074,-.5 324.1074,-18.5 486.2793,-18.5 486.2793,-.5 324.1074,-.5"/>
<text text-anchor="middle" x="405.1934" y="-6.5" font-family="Helvetica,sans-Serif" font-size="10.00" fill="#000000">MainWindow::executePassGitInit</text>
</a>
</g>
</g>
<!-- Node4&#45;&gt;Node5 -->
<g id="edge5" class="edge">
<title>Node4&#45;&gt;Node5</title>
<path fill="none" stroke="#191970" d="M298.2512,-9.5C306.6621,-9.5 315.3828,-9.5 324.051,-9.5"/>
<polygon fill="#191970" stroke="#191970" points="298.1697,-6.0001 288.1697,-9.5 298.1696,-13.0001 298.1697,-6.0001"/>
</g>
<!-- Node6 -->
<g id="node6" class="node">
<title>Node6</title>
<g id="a_node6"><a xlink:href="class_config_dialog.html#ad5b80066591f19fdaaa06b7cb5ba7f15" target="_top" xlink:title="ConfigDialog::wizard first&#45;time use wizard. ">
<polygon fill="none" stroke="#000000" points="536.4443,-.5 536.4443,-18.5 644.1533,-18.5 644.1533,-.5 536.4443,-.5"/>
<text text-anchor="middle" x="590.2988" y="-6.5" font-family="Helvetica,sans-Serif" font-size="10.00" fill="#000000">ConfigDialog::wizard</text>
</a>
</g>
</g>
<!-- Node5&#45;&gt;Node6 -->
<g id="edge6" class="edge">
<title>Node5&#45;&gt;Node6</title>
<path fill="none" stroke="#191970" d="M496.7274,-9.5C510.287,-9.5 523.8757,-9.5 536.3292,-9.5"/>
<polygon fill="#191970" stroke="#191970" points="496.3833,-6.0001 486.3833,-9.5 496.3833,-13.0001 496.3833,-6.0001"/>
</g>
</g>
</svg>
