<?xml version="1.0" encoding="UTF-8" standalone="no"?>
<!DOCTYPE svg PUBLIC "-//W3C//DTD SVG 1.1//EN"
 "http://www.w3.org/Graphics/SVG/1.1/DTD/svg11.dtd">
<!-- Generated by graphviz version 2.38.0 (20140413.2041)
 -->
<!-- Title: Executor::starting Pages: 1 -->
<!--zoomable 375 -->
<svg id="main" version="1.1" xmlns="http://www.w3.org/2000/svg" xmlns:xlink="http://www.w3.org/1999/xlink" xml:space="preserve" onload="init(evt)">
<style type="text/css"><![CDATA[
.edge:hover path { stroke: red; }
.edge:hover polygon { stroke: red; fill: red; }
]]></style>
<script type="text/javascript"><![CDATA[
var edges = document.getElementsByTagName('g');
if (edges && edges.length) {
  for (var i=0;i<edges.length;i++) {
    if (edges[i].id.substr(0,4)=='edge') {
      edges[i].setAttribute('class','edge');
    }
  }
}
]]></script>
        <defs>
                <circle id="rim" cx="0" cy="0" r="7"/>
                <circle id="rim2" cx="0" cy="0" r="3.5"/>
                <g id="zoomPlus">
                        <use xlink:href="#rim" fill="#404040">
                                <set attributeName="fill" to="#808080" begin="zoomplus.mouseover" end="zoomplus.mouseout"/>
                        </use>
                        <path d="M-4,0h8M0,-4v8" fill="none" stroke="white" stroke-width="1.5" pointer-events="none"/>
                </g>
                <g id="zoomMin">
                        <use xlink:href="#rim" fill="#404040">
                                <set attributeName="fill" to="#808080" begin="zoomminus.mouseover" end="zoomminus.mouseout"/>
                        </use>
                        <path d="M-4,0h8" fill="none" stroke="white" stroke-width="1.5" pointer-events="none"/>
                </g>
                <g id="dirArrow">
                        <path fill="none" stroke="white" stroke-width="1.5" d="M0,-3.0v7 M-2.5,-0.5L0,-3.0L2.5,-0.5"/>
                </g>
               <g id="resetDef">
                       <use xlink:href="#rim2" fill="#404040">
                               <set attributeName="fill" to="#808080" begin="reset.mouseover" end="reset.mouseout"/>
                       </use>
               </g>
        </defs>

<script type="text/javascript">
var viewWidth = 935;
var viewHeight = 375;
var sectionId = 'dynsection-8';
</script>
<script xlink:href="svgpan.js"/>
<svg id="graph" class="graph">
<g id="viewport">
<title>Executor::starting</title>
<!-- Node58 -->
<g id="node1" class="node"><title>Node58</title>
<polygon fill="#bfbfbf" stroke="black" points="0,-138.5 0,-156.5 93.8125,-156.5 93.8125,-138.5 0,-138.5"/>
<text text-anchor="middle" x="46.9062" y="-144.5" font-family="Helvetica,sans-Serif" font-size="10.00">Executor::starting</text>
</g>
<!-- Node59 -->
<g id="node2" class="node"><title>Node59</title>
<g id="a_node2"><a xlink:href="class_executor.html#a19fdadaa749c44b889287879ecf5f315" target="_top" xlink:title="Executor::Executor executes external applications. ">
<polygon fill="none" stroke="black" points="146.492,-175.5 146.492,-193.5 246.975,-193.5 246.975,-175.5 146.492,-175.5"/>
<text text-anchor="middle" x="196.733" y="-181.5" font-family="Helvetica,sans-Serif" font-size="10.00">Executor::Executor</text>
</a>
</g>
</g>
<!-- Node58&#45;&gt;Node59 -->
<g id="edge1" class="edge"><title>Node58&#45;&gt;Node59</title>
<path fill="none" stroke="midnightblue" d="M93.8391,-158.997C115.046,-164.305 139.858,-170.515 159.688,-175.478"/>
<polygon fill="midnightblue" stroke="midnightblue" points="94.6194,-155.584 84.0688,-156.551 92.9198,-162.375 94.6194,-155.584"/>
</g>
<!-- Node60 -->
<g id="node3" class="node"><title>Node60</title>
<g id="a_node3"><a xlink:href="class_executor.html#a65a32a439c0a531e4553cab015061f2f" target="_top" xlink:title="Executor::executeBlocking blocking version of the executor, takes input and presents it as stdin...">
<polygon fill="none" stroke="black" points="129.812,-138.5 129.812,-156.5 263.654,-156.5 263.654,-138.5 129.812,-138.5"/>
<text text-anchor="middle" x="196.733" y="-144.5" font-family="Helvetica,sans-Serif" font-size="10.00">Executor::executeBlocking</text>
</a>
</g>
</g>
<!-- Node58&#45;&gt;Node60 -->
<g id="edge2" class="edge"><title>Node58&#45;&gt;Node60</title>
<path fill="none" stroke="midnightblue" d="M103.945,-147.5C112.366,-147.5 121.115,-147.5 129.72,-147.5"/>
<polygon fill="midnightblue" stroke="midnightblue" points="103.869,-144 93.8694,-147.5 103.869,-151 103.869,-144"/>
</g>
<!-- Node78 -->
<g id="node21" class="node"><title>Node78</title>
<g id="a_node21"><a xlink:href="class_pass.html#a5d0cea4019f5c123fb4a4417de8d95b9" target="_top" xlink:title="Pass::Pass wrapper for using either pass or the pas imitation. ">
<polygon fill="none" stroke="black" points="163.724,-101.5 163.724,-119.5 229.743,-119.5 229.743,-101.5 163.724,-101.5"/>
<text text-anchor="middle" x="196.733" y="-107.5" font-family="Helvetica,sans-Serif" font-size="10.00">Pass::Pass</text>
</a>
</g>
</g>
<!-- Node58&#45;&gt;Node78 -->
<g id="edge28" class="edge"><title>Node58&#45;&gt;Node78</title>
<path fill="none" stroke="midnightblue" d="M93.7931,-136.015C116.38,-130.362 143.065,-123.683 163.466,-118.576"/>
<polygon fill="midnightblue" stroke="midnightblue" points="92.9198,-132.625 84.0688,-138.449 94.6194,-139.416 92.9198,-132.625"/>
</g>
<!-- Node61 -->
<g id="node4" class="node"><title>Node61</title>
<g id="a_node4"><a xlink:href="class_executor.html#a916ceeecbe46e63d9dbfe6840c3c3b76" target="_top" xlink:title="Executor::executeBlocking blocking version of the executor. ">
<polygon fill="none" stroke="black" points="299.654,-273.5 299.654,-291.5 433.496,-291.5 433.496,-273.5 299.654,-273.5"/>
<text text-anchor="middle" x="366.575" y="-279.5" font-family="Helvetica,sans-Serif" font-size="10.00">Executor::executeBlocking</text>
</a>
</g>
</g>
<!-- Node60&#45;&gt;Node61 -->
<g id="edge3" class="edge"><title>Node60&#45;&gt;Node61</title>
<path fill="none" stroke="midnightblue" d="M258.832,-161.689C260.521,-162.861 262.135,-164.129 263.654,-165.5 296.563,-195.189 267.999,-227.477 299.654,-258.5 306.439,-265.149 315.209,-269.975 324.125,-273.471"/>
<polygon fill="midnightblue" stroke="midnightblue" points="260.277,-158.485 249.854,-156.586 256.818,-164.57 260.277,-158.485"/>
</g>
<!-- Node62 -->
<g id="node5" class="node"><title>Node62</title>
<g id="a_node5"><a xlink:href="class_imitate_pass.html#a7c125494de4869c06a6ef26697101b7e" target="_top" xlink:title="ImitatePass::GitPull_b git pull wrapper. ">
<polygon fill="none" stroke="black" points="309.388,-197.5 309.388,-215.5 423.762,-215.5 423.762,-197.5 309.388,-197.5"/>
<text text-anchor="middle" x="366.575" y="-203.5" font-family="Helvetica,sans-Serif" font-size="10.00">ImitatePass::GitPull_b</text>
</a>
</g>
</g>
<!-- Node60&#45;&gt;Node62 -->
<g id="edge4" class="edge"><title>Node60&#45;&gt;Node62</title>
<path fill="none" stroke="midnightblue" d="M245.166,-159.378C251.438,-161.261 257.739,-163.315 263.654,-165.5 280.252,-171.632 283.324,-175.688 299.654,-182.5 312.469,-187.845 326.943,-193.189 339.057,-197.473"/>
<polygon fill="midnightblue" stroke="midnightblue" points="245.973,-155.968 235.395,-156.566 244.037,-162.695 245.973,-155.968"/>
</g>
<!-- Node63 -->
<g id="node6" class="node"><title>Node63</title>
<g id="a_node6"><a xlink:href="class_imitate_pass.html#a8670f6326e3dfe0018a0737fba27da2f" target="_top" xlink:title="ImitatePass::reencryptPath reencrypt all files under the chosen directory. ">
<polygon fill="none" stroke="black" points="473.249,-254.5 473.249,-272.5 609.302,-272.5 609.302,-254.5 473.249,-254.5"/>
<text text-anchor="middle" x="541.275" y="-260.5" font-family="Helvetica,sans-Serif" font-size="10.00">ImitatePass::reencryptPath</text>
</a>
</g>
</g>
<!-- Node60&#45;&gt;Node63 -->
<g id="edge16" class="edge"><title>Node60&#45;&gt;Node63</title>
<path fill="none" stroke="midnightblue" d="M256.299,-160.773C258.874,-162.192 261.343,-163.762 263.654,-165.5 288.206,-183.961 274.16,-207.363 299.654,-224.5 327.313,-243.092 412.017,-253.569 473.104,-258.879"/>
<polygon fill="midnightblue" stroke="midnightblue" points="257.747,-157.587 247.207,-156.511 254.775,-163.925 257.747,-157.587"/>
</g>
<!-- Node68 -->
<g id="node11" class="node"><title>Node68</title>
<g id="a_node11"><a xlink:href="class_imitate_pass.html#a073f2a34ba46638b25b4bf9ca7b5f5d5" target="_top" xlink:title="ImitatePass::Show_b show content of file, blocking version. ">
<polygon fill="none" stroke="black" points="649.055,-159.5 649.055,-177.5 758.99,-177.5 758.99,-159.5 649.055,-159.5"/>
<text text-anchor="middle" x="704.022" y="-165.5" font-family="Helvetica,sans-Serif" font-size="10.00">ImitatePass::Show_b</text>
</a>
</g>
</g>
<!-- Node60&#45;&gt;Node68 -->
<g id="edge14" class="edge"><title>Node60&#45;&gt;Node68</title>
<path fill="none" stroke="midnightblue" d="M273.828,-150.663C376.975,-154.949 558.628,-162.499 648.921,-166.252"/>
<polygon fill="midnightblue" stroke="midnightblue" points="273.928,-147.164 263.791,-150.245 273.637,-154.158 273.928,-147.164"/>
</g>
<!-- Node69 -->
<g id="node12" class="node"><title>Node69</title>
<g id="a_node12"><a xlink:href="class_pass.html#a140443713431e41dc5a7d4989ece82c0" target="_top" xlink:title="Pass::Generate use either pwgen or internal password generator. ">
<polygon fill="none" stroke="black" points="323.834,-116.5 323.834,-134.5 409.316,-134.5 409.316,-116.5 323.834,-116.5"/>
<text text-anchor="middle" x="366.575" y="-122.5" font-family="Helvetica,sans-Serif" font-size="10.00">Pass::Generate</text>
</a>
</g>
</g>
<!-- Node60&#45;&gt;Node69 -->
<g id="edge17" class="edge"><title>Node60&#45;&gt;Node69</title>
<path fill="none" stroke="midnightblue" d="M273.992,-137.504C290.963,-135.28 308.357,-133 323.364,-131.033"/>
<polygon fill="midnightblue" stroke="midnightblue" points="273.529,-134.035 264.069,-138.805 274.439,-140.976 273.529,-134.035"/>
</g>
<!-- Node72 -->
<g id="node15" class="node"><title>Node72</title>
<g id="a_node15"><a xlink:href="class_pass.html#a451b0f52aa0332801252ae28665e29b3" target="_top" xlink:title="Pass::listKeys list users. ">
<polygon fill="none" stroke="black" points="327.455,-74.5 327.455,-92.5 405.696,-92.5 405.696,-74.5 327.455,-74.5"/>
<text text-anchor="middle" x="366.575" y="-80.5" font-family="Helvetica,sans-Serif" font-size="10.00">Pass::listKeys</text>
</a>
</g>
</g>
<!-- Node60&#45;&gt;Node72 -->
<g id="edge20" class="edge"><title>Node60&#45;&gt;Node72</title>
<path fill="none" stroke="midnightblue" d="M245.394,-135.421C251.629,-133.361 257.859,-131.05 263.654,-128.5 280.817,-120.947 282.706,-114.523 299.654,-106.5 310.939,-101.158 323.814,-96.3917 335.173,-92.6022"/>
<polygon fill="midnightblue" stroke="midnightblue" points="244.162,-132.138 235.653,-138.451 246.241,-138.822 244.162,-132.138"/>
</g>
<!-- Node75 -->
<g id="node18" class="node"><title>Node75</title>
<g id="a_node18"><a xlink:href="class_real_pass.html#aafddf4b1033ca87f286c74eed644fae6" target="_top" xlink:title="RealPass::GitInit pass git pull wrapper which blocks until process finishes. ">
<polygon fill="none" stroke="black" points="314.11,-37.5 314.11,-55.5 419.041,-55.5 419.041,-37.5 314.11,-37.5"/>
<text text-anchor="middle" x="366.575" y="-43.5" font-family="Helvetica,sans-Serif" font-size="10.00">RealPass::GitPull_b</text>
</a>
</g>
</g>
<!-- Node60&#45;&gt;Node75 -->
<g id="edge24" class="edge"><title>Node60&#45;&gt;Node75</title>
<path fill="none" stroke="midnightblue" d="M255.238,-134.057C258.208,-132.414 261.039,-130.57 263.654,-128.5 289.245,-108.246 273.922,-84.5734 299.654,-64.5 304.331,-60.8515 309.696,-57.9416 315.301,-55.6208"/>
<polygon fill="midnightblue" stroke="midnightblue" points="253.551,-130.983 245.995,-138.409 256.533,-137.316 253.551,-130.983"/>
</g>
<!-- Node77 -->
<g id="node20" class="node"><title>Node77</title>
<g id="a_node20"><a xlink:href="class_real_pass.html#a3db5819493c4650f9410207b6d6b6c56" target="_top" xlink:title="RealPass::Show_b pass show. ">
<polygon fill="none" stroke="black" points="316.329,-0.5 316.329,-18.5 416.821,-18.5 416.821,-0.5 316.329,-0.5"/>
<text text-anchor="middle" x="366.575" y="-6.5" font-family="Helvetica,sans-Serif" font-size="10.00">RealPass::Show_b</text>
</a>
</g>
</g>
<!-- Node60&#45;&gt;Node77 -->
<g id="edge26" class="edge"><title>Node60&#45;&gt;Node77</title>
<path fill="none" stroke="midnightblue" d="M257.399,-133.458C259.618,-131.967 261.718,-130.32 263.654,-128.5 298.376,-95.8595 264.704,-59.8956 299.654,-27.5 304.44,-23.0644 310.212,-19.7039 316.325,-17.1612"/>
<polygon fill="midnightblue" stroke="midnightblue" points="255.395,-130.567 248.334,-138.466 258.779,-136.694 255.395,-130.567"/>
</g>
<!-- Node62&#45;&gt;Node63 -->
<g id="edge5" class="edge"><title>Node62&#45;&gt;Node63</title>
<path fill="none" stroke="midnightblue" d="M404.528,-218.696C436.985,-229.409 483.472,-244.752 512.753,-254.416"/>
<polygon fill="midnightblue" stroke="midnightblue" points="405.533,-215.342 394.94,-215.532 403.339,-221.99 405.533,-215.342"/>
</g>
<!-- Node65 -->
<g id="node8" class="node"><title>Node65</title>
<g id="a_node8"><a xlink:href="class_imitate_pass.html#af4d70979dc11ccdee6cec699fb20d942" target="_top" xlink:title="ImitatePass::~ImitatePass">
<polygon fill="none" stroke="black" points="794.99,-253.5 794.99,-271.5 926.869,-271.5 926.869,-253.5 794.99,-253.5"/>
<text text-anchor="middle" x="860.93" y="-259.5" font-family="Helvetica,sans-Serif" font-size="10.00">ImitatePass::~ImitatePass</text>
</a>
</g>
</g>
<!-- Node62&#45;&gt;Node65 -->
<g id="edge13" class="edge"><title>Node62&#45;&gt;Node65</title>
<path fill="none" stroke="midnightblue" d="M434.208,-203.66C512.712,-201.706 646.678,-202.742 758.99,-225.5 788.441,-231.468 820.772,-244.564 840.712,-253.461"/>
<polygon fill="midnightblue" stroke="midnightblue" points="433.877,-200.168 423.976,-203.94 434.068,-207.165 433.877,-200.168"/>
</g>
<!-- Node64 -->
<g id="node7" class="node"><title>Node64</title>
<g id="a_node7"><a xlink:href="class_imitate_pass.html#ab4ee26f024636eb1b0989b1c1e67d5c0" target="_top" xlink:title="ImitatePass::Init initialize pass repository. ">
<polygon fill="none" stroke="black" points="660.454,-348.5 660.454,-366.5 747.591,-366.5 747.591,-348.5 660.454,-348.5"/>
<text text-anchor="middle" x="704.022" y="-354.5" font-family="Helvetica,sans-Serif" font-size="10.00">ImitatePass::Init</text>
</a>
</g>
</g>
<!-- Node63&#45;&gt;Node64 -->
<g id="edge6" class="edge"><title>Node63&#45;&gt;Node64</title>
<path fill="none" stroke="midnightblue" d="M562.876,-278.449C583.939,-293.383 617.895,-316.503 649.055,-333.5 659.137,-339 670.727,-344.281 680.576,-348.482"/>
<polygon fill="midnightblue" stroke="midnightblue" points="564.855,-275.56 554.684,-272.591 560.783,-281.255 564.855,-275.56"/>
</g>
<!-- Node63&#45;&gt;Node65 -->
<g id="edge12" class="edge"><title>Node63&#45;&gt;Node65</title>
<path fill="none" stroke="midnightblue" d="M571.562,-276.625C592.636,-285.325 621.997,-295.945 649.055,-300.5 697.237,-308.611 710.92,-309.249 758.99,-300.5 789.203,-295.001 822.131,-280.953 841.896,-271.565"/>
<polygon fill="midnightblue" stroke="midnightblue" points="572.789,-273.344 562.215,-272.668 570.06,-279.79 572.789,-273.344"/>
</g>
<!-- Node66 -->
<g id="node9" class="node"><title>Node66</title>
<g id="a_node9"><a xlink:href="class_imitate_pass.html#abd150b37240a340cbec88d888e0a7fe6" target="_top" xlink:title="ImitatePass::Move">
<polygon fill="none" stroke="black" points="654.897,-272.5 654.897,-290.5 753.148,-290.5 753.148,-272.5 654.897,-272.5"/>
<text text-anchor="middle" x="704.022" y="-278.5" font-family="Helvetica,sans-Serif" font-size="10.00">ImitatePass::Move</text>
</a>
</g>
</g>
<!-- Node63&#45;&gt;Node66 -->
<g id="edge8" class="edge"><title>Node63&#45;&gt;Node66</title>
<path fill="none" stroke="midnightblue" d="M619.52,-272.15C631.485,-273.489 643.542,-274.84 654.63,-276.081"/>
<polygon fill="midnightblue" stroke="midnightblue" points="619.843,-268.664 609.515,-271.029 619.064,-275.62 619.843,-268.664"/>
</g>
<!-- Node67 -->
<g id="node10" class="node"><title>Node67</title>
<g id="a_node10"><a xlink:href="class_imitate_pass.html#a6db1849662fe03e61f9410fce080890d" target="_top" xlink:title="ImitatePass::Copy">
<polygon fill="none" stroke="black" points="655.451,-235.5 655.451,-253.5 752.594,-253.5 752.594,-235.5 655.451,-235.5"/>
<text text-anchor="middle" x="704.022" y="-241.5" font-family="Helvetica,sans-Serif" font-size="10.00">ImitatePass::Copy</text>
</a>
</g>
</g>
<!-- Node63&#45;&gt;Node67 -->
<g id="edge10" class="edge"><title>Node63&#45;&gt;Node67</title>
<path fill="none" stroke="midnightblue" d="M619.635,-254.356C631.736,-252.926 643.928,-251.485 655.113,-250.163"/>
<polygon fill="midnightblue" stroke="midnightblue" points="619.035,-250.903 609.515,-255.552 619.857,-257.854 619.035,-250.903"/>
</g>
<!-- Node64&#45;&gt;Node65 -->
<g id="edge7" class="edge"><title>Node64&#45;&gt;Node65</title>
<path fill="none" stroke="midnightblue" d="M737.597,-344.242C744.774,-340.984 752.244,-337.324 758.99,-333.5 793.285,-314.058 830.427,-285.885 848.606,-271.576"/>
<polygon fill="midnightblue" stroke="midnightblue" points="735.838,-341.191 728.086,-348.413 738.65,-347.602 735.838,-341.191"/>
</g>
<!-- Node66&#45;&gt;Node65 -->
<g id="edge9" class="edge"><title>Node66&#45;&gt;Node65</title>
<path fill="none" stroke="midnightblue" d="M763.264,-274.356C773.53,-273.097 784.277,-271.779 794.719,-270.498"/>
<polygon fill="midnightblue" stroke="midnightblue" points="762.686,-270.901 753.187,-275.592 763.539,-277.849 762.686,-270.901"/>
</g>
<!-- Node67&#45;&gt;Node65 -->
<g id="edge11" class="edge"><title>Node67&#45;&gt;Node65</title>
<path fill="none" stroke="midnightblue" d="M762.994,-251.236C773.422,-252.448 784.355,-253.718 794.966,-254.951"/>
<polygon fill="midnightblue" stroke="midnightblue" points="763.101,-247.725 752.764,-250.047 762.293,-254.678 763.101,-247.725"/>
</g>
<!-- Node68&#45;&gt;Node65 -->
<g id="edge15" class="edge"><title>Node68&#45;&gt;Node65</title>
<path fill="none" stroke="midnightblue" d="M737.382,-181.703C744.62,-184.982 752.17,-188.664 758.99,-192.5 793.004,-211.633 829.969,-239.182 848.285,-253.338"/>
<polygon fill="midnightblue" stroke="midnightblue" points="738.367,-178.313 727.803,-177.506 735.557,-184.725 738.367,-178.313"/>
</g>
<!-- Node70 -->
<g id="node13" class="node"><title>Node70</title>
<g id="a_node13"><a xlink:href="class_pass.html#a8dfa731be7ac962f9f6a5cf8f29097ec" target="_top" xlink:title="Pass::~Pass">
<polygon fill="none" stroke="black" points="505.346,-74.5 505.346,-92.5 577.205,-92.5 577.205,-74.5 505.346,-74.5"/>
<text text-anchor="middle" x="541.275" y="-80.5" font-family="Helvetica,sans-Serif" font-size="10.00">Pass::~Pass</text>
</a>
</g>
</g>
<!-- Node69&#45;&gt;Node70 -->
<g id="edge18" class="edge"><title>Node69&#45;&gt;Node70</title>
<path fill="none" stroke="midnightblue" d="M414.395,-114.114C442.967,-107.165 478.903,-98.4256 505.057,-92.065"/>
<polygon fill="midnightblue" stroke="midnightblue" points="413.513,-110.726 404.624,-116.49 415.168,-117.528 413.513,-110.726"/>
</g>
<!-- Node71 -->
<g id="node14" class="node"><title>Node71</title>
<g id="a_node14"><a xlink:href="class_password_dialog.html#aa123158c0085b910ecf3bfdc9dae9e97" target="_top" xlink:title="PasswordDialog::~PasswordDialog basic destructor. ">
<polygon fill="none" stroke="black" points="469.496,-111.5 469.496,-139.5 613.055,-139.5 613.055,-111.5 469.496,-111.5"/>
<text text-anchor="start" x="477.496" y="-127.5" font-family="Helvetica,sans-Serif" font-size="10.00">PasswordDialog::~Password</text>
<text text-anchor="middle" x="541.275" y="-117.5" font-family="Helvetica,sans-Serif" font-size="10.00">Dialog</text>
</a>
</g>
</g>
<!-- Node69&#45;&gt;Node71 -->
<g id="edge19" class="edge"><title>Node69&#45;&gt;Node71</title>
<path fill="none" stroke="midnightblue" d="M419.383,-125.5C435.043,-125.5 452.518,-125.5 469.206,-125.5"/>
<polygon fill="midnightblue" stroke="midnightblue" points="419.381,-122 409.381,-125.5 419.381,-129 419.381,-122"/>
</g>
<!-- Node72&#45;&gt;Node70 -->
<g id="edge23" class="edge"><title>Node72&#45;&gt;Node70</title>
<path fill="none" stroke="midnightblue" d="M416.021,-83.5C444.405,-83.5 479.604,-83.5 505.285,-83.5"/>
<polygon fill="midnightblue" stroke="midnightblue" points="415.903,-80.0001 405.903,-83.5 415.903,-87.0001 415.903,-80.0001"/>
</g>
<!-- Node73 -->
<g id="node16" class="node"><title>Node73</title>
<g id="a_node16"><a xlink:href="class_main_window.html#add7481e9707f309caba6b5d3a8c1ddc9" target="_top" xlink:title="MainWindow::userDialog see MainWindow::on_usersButton_clicked() ">
<polygon fill="none" stroke="black" points="477.975,-37.5 477.975,-55.5 604.576,-55.5 604.576,-37.5 477.975,-37.5"/>
<text text-anchor="middle" x="541.275" y="-43.5" font-family="Helvetica,sans-Serif" font-size="10.00">MainWindow::userDialog</text>
</a>
</g>
</g>
<!-- Node72&#45;&gt;Node73 -->
<g id="edge21" class="edge"><title>Node72&#45;&gt;Node73</title>
<path fill="none" stroke="midnightblue" d="M415.869,-73.1533C441.723,-67.6143 473.266,-60.8563 498.121,-55.5312"/>
<polygon fill="midnightblue" stroke="midnightblue" points="414.948,-69.7712 405.903,-75.2885 416.414,-76.6159 414.948,-69.7712"/>
</g>
<!-- Node74 -->
<g id="node17" class="node"><title>Node74</title>
<g id="a_node17"><a xlink:href="class_config_dialog.html#ad5b80066591f19fdaaa06b7cb5ba7f15" target="_top" xlink:title="ConfigDialog::wizard first&#45;time use wizard. ">
<polygon fill="none" stroke="black" points="650.168,-37.5 650.168,-55.5 757.877,-55.5 757.877,-37.5 650.168,-37.5"/>
<text text-anchor="middle" x="704.022" y="-43.5" font-family="Helvetica,sans-Serif" font-size="10.00">ConfigDialog::wizard</text>
</a>
</g>
</g>
<!-- Node73&#45;&gt;Node74 -->
<g id="edge22" class="edge"><title>Node73&#45;&gt;Node74</title>
<path fill="none" stroke="midnightblue" d="M615.117,-46.5C626.854,-46.5 638.806,-46.5 649.962,-46.5"/>
<polygon fill="midnightblue" stroke="midnightblue" points="614.885,-43.0001 604.885,-46.5 614.885,-50.0001 614.885,-43.0001"/>
</g>
<!-- Node76 -->
<g id="node19" class="node"><title>Node76</title>
<g id="a_node19"><a xlink:href="class_real_pass.html#a8f345a8f31ebc772f889896af3c6f7cb" target="_top" xlink:title="RealPass::~RealPass">
<polygon fill="none" stroke="black" points="484.779,-0.5 484.779,-18.5 597.771,-18.5 597.771,-0.5 484.779,-0.5"/>
<text text-anchor="middle" x="541.275" y="-6.5" font-family="Helvetica,sans-Serif" font-size="10.00">RealPass::~RealPass</text>
</a>
</g>
</g>
<!-- Node75&#45;&gt;Node76 -->
<g id="edge25" class="edge"><title>Node75&#45;&gt;Node76</title>
<path fill="none" stroke="midnightblue" d="M419.896,-35.2907C444.961,-29.9206 474.58,-23.5749 498.165,-18.5218"/>
<polygon fill="midnightblue" stroke="midnightblue" points="418.867,-31.9315 409.822,-37.4488 420.334,-38.7761 418.867,-31.9315"/>
</g>
<!-- Node77&#45;&gt;Node76 -->
<g id="edge27" class="edge"><title>Node77&#45;&gt;Node76</title>
<path fill="none" stroke="midnightblue" d="M427.209,-9.5C445.858,-9.5 466.35,-9.5 484.707,-9.5"/>
<polygon fill="midnightblue" stroke="midnightblue" points="427.064,-6.0001 417.064,-9.5 427.064,-13.0001 427.064,-6.0001"/>
</g>
</g>
</svg>
        <g id="navigator" transform="translate(0 0)" fill="#404254">
                <rect fill="#f2f5e9" fill-opacity="0.5" stroke="#606060" stroke-width=".5" x="0" y="0" width="60" height="60"/>
                <use id="zoomplus" xlink:href="#zoomPlus" x="17" y="9" onmousedown="handleZoom(evt,'in')"/>
                <use id="zoomminus" xlink:href="#zoomMin" x="42" y="9" onmousedown="handleZoom(evt,'out')"/>
                <use id="reset" xlink:href="#resetDef" x="30" y="36" onmousedown="handleReset()"/>
                <g id="arrowUp" xlink:href="#dirArrow" transform="translate(30 24)" onmousedown="handlePan(0,-1)">
                  <use xlink:href="#rim" fill="#404040">
                        <set attributeName="fill" to="#808080" begin="arrowUp.mouseover" end="arrowUp.mouseout"/>
                  </use>
                  <path fill="none" stroke="white" stroke-width="1.5" d="M0,-3.0v7 M-2.5,-0.5L0,-3.0L2.5,-0.5"/>
                </g>
                <g id="arrowRight" xlink:href="#dirArrow" transform="rotate(90) translate(36 -43)" onmousedown="handlePan(1,0)">
                  <use xlink:href="#rim" fill="#404040">
                        <set attributeName="fill" to="#808080" begin="arrowRight.mouseover" end="arrowRight.mouseout"/>
                  </use>
                  <path fill="none" stroke="white" stroke-width="1.5" d="M0,-3.0v7 M-2.5,-0.5L0,-3.0L2.5,-0.5"/>
                </g>
                <g id="arrowDown" xlink:href="#dirArrow" transform="rotate(180) translate(-30 -48)" onmousedown="handlePan(0,1)">
                  <use xlink:href="#rim" fill="#404040">
                        <set attributeName="fill" to="#808080" begin="arrowDown.mouseover" end="arrowDown.mouseout"/>
                  </use>
                  <path fill="none" stroke="white" stroke-width="1.5" d="M0,-3.0v7 M-2.5,-0.5L0,-3.0L2.5,-0.5"/>
                </g>
                <g id="arrowLeft" xlink:href="#dirArrow" transform="rotate(270) translate(-36 17)" onmousedown="handlePan(-1,0)">
                  <use xlink:href="#rim" fill="#404040">
                        <set attributeName="fill" to="#808080" begin="arrowLeft.mouseover" end="arrowLeft.mouseout"/>
                  </use>
                  <path fill="none" stroke="white" stroke-width="1.5" d="M0,-3.0v7 M-2.5,-0.5L0,-3.0L2.5,-0.5"/>
                </g>
        </g>
        <svg viewBox="0 0 15 15" width="100%" height="30px" preserveAspectRatio="xMaxYMin meet">
         <g id="arrow_out" transform="scale(0.3 0.3)">
          <a xlink:href="class_executor_acfcfc18b0b973791530302eb8179e038_icgraph_org.svg" target="_base">
           <rect id="button" ry="5" rx="5" y="6" x="6" height="38" width="38"
                fill="#f2f5e9" fill-opacity="0.5" stroke="#606060" stroke-width="1.0"/>
           <path id="arrow"
             d="M 11.500037,31.436501 C 11.940474,20.09759 22.043105,11.32322 32.158766,21.979434 L 37.068811,17.246167 C 37.068811,17.246167 37.088388,32 37.088388,32 L 22.160133,31.978069 C 22.160133,31.978069 26.997745,27.140456 26.997745,27.140456 C 18.528582,18.264221 13.291696,25.230495 11.500037,31.436501 z"
             style="fill:#404040;"/>
          </a>
         </g>
        </svg>
</svg>
