<?xml version="1.0" encoding="UTF-8" standalone="no"?>
<!DOCTYPE svg PUBLIC "-//W3C//DTD SVG 1.1//EN"
 "http://www.w3.org/Graphics/SVG/1.1/DTD/svg11.dtd">
<!-- Generated by graphviz version 2.40.1 (20161225.0304)
 -->
<!-- Title: MainWindow::showStatusMessage Pages: 1 -->
<svg width="1256pt" height="294pt"
 viewBox="0.00 0.00 1256.00 294.00" xmlns="http://www.w3.org/2000/svg" xmlns:xlink="http://www.w3.org/1999/xlink">
<g id="graph0" class="graph" transform="scale(1 1) rotate(0) translate(4 290)">
<title>MainWindow::showStatusMessage</title>
<!-- Node377 -->
<g id="node1" class="node">
<title>Node377</title>
<polygon fill="#bfbfbf" stroke="#000000" points="0,-133.5 0,-152.5 170,-152.5 170,-133.5 0,-133.5"/>
<text text-anchor="middle" x="85" y="-140.5" font-family="Helvetica,sans-Serif" font-size="10.00" fill="#000000">MainWindow::showStatusMessage</text>
</g>
<!-- Node378 -->
<g id="node2" class="node">
<title>Node378</title>
<g id="a_node2"><a xlink:href="class_qt_pass.html#abd1d1e8d6b80b8307a305d80a6c34371" target="_top" xlink:title="QtPass::setMainWindow">
<polygon fill="none" stroke="#000000" points="952,-76.5 952,-95.5 1077,-95.5 1077,-76.5 952,-76.5"/>
<text text-anchor="middle" x="1014.5" y="-83.5" font-family="Helvetica,sans-Serif" font-size="10.00" fill="#000000">QtPass::setMainWindow</text>
</a>
</g>
</g>
<!-- Node377&#45;&gt;Node378 -->
<g id="edge1" class="edge">
<title>Node377&#45;&gt;Node378</title>
<path fill="none" stroke="#191970" d="M180.4696,-150.4368C257.0674,-155.7637 367.3753,-162 464,-162 464,-162 464,-162 647.5,-162 767.1317,-162 801.6276,-178.0816 916,-143 949.8112,-132.629 984.4969,-108.8935 1002.3036,-95.5534"/>
<polygon fill="#191970" stroke="#191970" points="180.5815,-146.9361 170.3605,-149.7254 180.0901,-153.9188 180.5815,-146.9361"/>
</g>
<!-- Node380 -->
<g id="node4" class="node">
<title>Node380</title>
<g id="a_node4"><a xlink:href="class_qt_pass.html#a3febdf740ba4d78a4149d7d7c3b9284e" target="_top" xlink:title="MainWindow::clearClipboard remove clipboard contents. ">
<polygon fill="none" stroke="#000000" points="221.5,-190.5 221.5,-209.5 339.5,-209.5 339.5,-190.5 221.5,-190.5"/>
<text text-anchor="middle" x="280.5" y="-197.5" font-family="Helvetica,sans-Serif" font-size="10.00" fill="#000000">QtPass::clearClipboard</text>
</a>
</g>
</g>
<!-- Node377&#45;&gt;Node380 -->
<g id="edge3" class="edge">
<title>Node377&#45;&gt;Node380</title>
<path fill="none" stroke="#191970" d="M127.4783,-155.385C163.5733,-165.9088 214.6451,-180.7993 247.6709,-190.4284"/>
<polygon fill="#191970" stroke="#191970" points="128.3023,-151.9795 117.7223,-152.5405 126.3429,-158.6997 128.3023,-151.9795"/>
</g>
<!-- Node388 -->
<g id="node12" class="node">
<title>Node388</title>
<g id="a_node12"><a xlink:href="class_qt_pass.html#acba134fb5281aedee11899a03976aa95" target="_top" xlink:title="MainWindow::copyTextToClipboard copies text to your clipboard. ">
<polygon fill="none" stroke="#000000" points="206,-76.5 206,-95.5 355,-95.5 355,-76.5 206,-76.5"/>
<text text-anchor="middle" x="280.5" y="-83.5" font-family="Helvetica,sans-Serif" font-size="10.00" fill="#000000">QtPass::copyTextToClipboard</text>
</a>
</g>
</g>
<!-- Node377&#45;&gt;Node388 -->
<g id="edge13" class="edge">
<title>Node377&#45;&gt;Node388</title>
<path fill="none" stroke="#191970" d="M123.3933,-130.3537C147.1025,-122.6911 178.2024,-112.9032 206,-105 217.4269,-101.7512 229.9129,-98.4649 241.3406,-95.5598"/>
<polygon fill="#191970" stroke="#191970" points="122.1462,-127.0787 113.7159,-133.4959 124.308,-133.7365 122.1462,-127.0787"/>
</g>
<!-- Node393 -->
<g id="node17" class="node">
<title>Node393</title>
<g id="a_node17"><a xlink:href="class_qt_pass.html#aef5aaf0605c7681967995ede486590ef" target="_top" xlink:title="displays the text as qrcode ">
<polygon fill="none" stroke="#000000" points="206,-114.5 206,-133.5 355,-133.5 355,-114.5 206,-114.5"/>
<text text-anchor="middle" x="280.5" y="-121.5" font-family="Helvetica,sans-Serif" font-size="10.00" fill="#000000">QtPass::showTextAsQRCode</text>
</a>
</g>
</g>
<!-- Node377&#45;&gt;Node393 -->
<g id="edge21" class="edge">
<title>Node377&#45;&gt;Node393</title>
<path fill="none" stroke="#191970" d="M180.2082,-133.747C188.7739,-132.9146 197.3658,-132.0795 205.7203,-131.2676"/>
<polygon fill="#191970" stroke="#191970" points="179.7949,-130.2706 170.1804,-134.7216 180.4721,-137.2378 179.7949,-130.2706"/>
</g>
<!-- Node379 -->
<g id="node3" class="node">
<title>Node379</title>
<g id="a_node3"><a xlink:href="class_main_window.html#a52e97245b2f88492071e639395c4a15a" target="_top" xlink:title="MainWindow::MainWindow handles all of the main functionality and also the main window. ">
<polygon fill="none" stroke="#000000" points="1113,-95.5 1113,-114.5 1248,-114.5 1248,-95.5 1113,-95.5"/>
<text text-anchor="middle" x="1180.5" y="-102.5" font-family="Helvetica,sans-Serif" font-size="10.00" fill="#000000">MainWindow::MainWindow</text>
</a>
</g>
</g>
<!-- Node378&#45;&gt;Node379 -->
<g id="edge2" class="edge">
<title>Node378&#45;&gt;Node379</title>
<path fill="none" stroke="#191970" d="M1087.2083,-94.322C1095.7618,-95.3011 1104.4634,-96.297 1112.9422,-97.2675"/>
<polygon fill="#191970" stroke="#191970" points="1087.5907,-90.843 1077.2575,-93.1831 1086.7946,-97.7976 1087.5907,-90.843"/>
</g>
<!-- Node381 -->
<g id="node5" class="node">
<title>Node381</title>
<g id="a_node5"><a xlink:href="class_main_window.html#ad4cf3e2c819cac398728a82f1cf05f3e" target="_top" xlink:title="MainWindow::deselect clear the selection, password and copy buffer. ">
<polygon fill="none" stroke="#000000" points="956.5,-171.5 956.5,-190.5 1072.5,-190.5 1072.5,-171.5 956.5,-171.5"/>
<text text-anchor="middle" x="1014.5" y="-178.5" font-family="Helvetica,sans-Serif" font-size="10.00" fill="#000000">MainWindow::deselect</text>
</a>
</g>
</g>
<!-- Node380&#45;&gt;Node381 -->
<g id="edge4" class="edge">
<title>Node380&#45;&gt;Node381</title>
<path fill="none" stroke="#191970" d="M335.5554,-211.3644C353.1851,-214.4927 372.8414,-217.4502 391,-219 598.7349,-236.7295 846.0944,-206.3994 956.4088,-190.1942"/>
<polygon fill="#191970" stroke="#191970" points="335.9028,-207.87 325.4361,-209.5122 334.6424,-214.7556 335.9028,-207.87"/>
</g>
<!-- Node382 -->
<g id="node6" class="node">
<title>Node382</title>
<g id="a_node6"><a xlink:href="class_main_window.html#a4e20a4a065fbb0e4d3532a45a0a91425" target="_top" xlink:title="MainWindow::closeEvent hide or quit. ">
<polygon fill="none" stroke="#000000" points="400,-190.5 400,-209.5 528,-209.5 528,-190.5 400,-190.5"/>
<text text-anchor="middle" x="464" y="-197.5" font-family="Helvetica,sans-Serif" font-size="10.00" fill="#000000">MainWindow::closeEvent</text>
</a>
</g>
</g>
<!-- Node380&#45;&gt;Node382 -->
<g id="edge6" class="edge">
<title>Node380&#45;&gt;Node382</title>
<path fill="none" stroke="#191970" d="M349.6863,-200C366.1813,-200 383.7136,-200 399.9655,-200"/>
<polygon fill="#191970" stroke="#191970" points="349.5707,-196.5001 339.5706,-200 349.5706,-203.5001 349.5707,-196.5001"/>
</g>
<!-- Node383 -->
<g id="node7" class="node">
<title>Node383</title>
<g id="a_node7"><a xlink:href="class_qt_pass.html#aacd3b92bcbbb5166780336d9dd00ab95" target="_top" xlink:title="QtPass::QtPass">
<polygon fill="none" stroke="#000000" points="419.5,-266.5 419.5,-285.5 508.5,-285.5 508.5,-266.5 419.5,-266.5"/>
<text text-anchor="middle" x="464" y="-273.5" font-family="Helvetica,sans-Serif" font-size="10.00" fill="#000000">QtPass::QtPass</text>
</a>
</g>
</g>
<!-- Node380&#45;&gt;Node383 -->
<g id="edge7" class="edge">
<title>Node380&#45;&gt;Node383</title>
<path fill="none" stroke="#191970" d="M308.0859,-214.1342C330.1922,-225.1785 362.171,-240.5275 391,-252 404.2632,-257.2781 419.1921,-262.3368 432.0773,-266.4374"/>
<polygon fill="#191970" stroke="#191970" points="309.4684,-210.9117 298.9626,-209.5405 306.3202,-217.1639 309.4684,-210.9117"/>
</g>
<!-- Node384 -->
<g id="node8" class="node">
<title>Node384</title>
<g id="a_node8"><a xlink:href="class_qt_pass.html#a5b63b7418723b400f0db2afa450f1199" target="_top" xlink:title="QtPass::setFreshStart">
<polygon fill="none" stroke="#000000" points="406.5,-114.5 406.5,-133.5 521.5,-133.5 521.5,-114.5 406.5,-114.5"/>
<text text-anchor="middle" x="464" y="-121.5" font-family="Helvetica,sans-Serif" font-size="10.00" fill="#000000">QtPass::setFreshStart</text>
</a>
</g>
</g>
<!-- Node380&#45;&gt;Node384 -->
<g id="edge8" class="edge">
<title>Node380&#45;&gt;Node384</title>
<path fill="none" stroke="#191970" d="M313.0265,-186.5285C349.7725,-171.3095 408.6499,-146.9243 440.9483,-133.5473"/>
<polygon fill="#191970" stroke="#191970" points="311.6401,-183.3144 303.7404,-190.3745 314.3186,-189.7816 311.6401,-183.3144"/>
</g>
<!-- Node381&#45;&gt;Node379 -->
<g id="edge5" class="edge">
<title>Node381&#45;&gt;Node379</title>
<path fill="none" stroke="#191970" d="M1044.7776,-167.138C1078.071,-151.8952 1130.6772,-127.8104 1159.6467,-114.5473"/>
<polygon fill="#191970" stroke="#191970" points="1043.1594,-164.0294 1035.524,-171.3745 1046.0734,-170.3941 1043.1594,-164.0294"/>
</g>
<!-- Node385 -->
<g id="node9" class="node">
<title>Node385</title>
<g id="a_node9"><a xlink:href="class_main_window.html#aeb8091ab5531144b76c1fbb0d63deb56" target="_top" xlink:title="MainWindow::config pops up the configuration screen and handles all inter&#45;window communication. ">
<polygon fill="none" stroke="#000000" points="595,-114.5 595,-133.5 700,-133.5 700,-114.5 595,-114.5"/>
<text text-anchor="middle" x="647.5" y="-121.5" font-family="Helvetica,sans-Serif" font-size="10.00" fill="#000000">MainWindow::config</text>
</a>
</g>
</g>
<!-- Node384&#45;&gt;Node385 -->
<g id="edge9" class="edge">
<title>Node384&#45;&gt;Node385</title>
<path fill="none" stroke="#191970" d="M531.6306,-124C552.486,-124 575.1311,-124 594.8231,-124"/>
<polygon fill="#191970" stroke="#191970" points="531.5571,-120.5001 521.5571,-124 531.557,-127.5001 531.5571,-120.5001"/>
</g>
<!-- Node386 -->
<g id="node10" class="node">
<title>Node386</title>
<g id="a_node10"><a xlink:href="class_main_window.html#a9630f0fe0e0941a7996d68014f837ed5" target="_top" xlink:title="MainWindow::restoreWindow">
<polygon fill="none" stroke="#000000" points="765,-76.5 765,-95.5 909,-95.5 909,-76.5 765,-76.5"/>
<text text-anchor="middle" x="837" y="-83.5" font-family="Helvetica,sans-Serif" font-size="10.00" fill="#000000">MainWindow::restoreWindow</text>
</a>
</g>
</g>
<!-- Node385&#45;&gt;Node386 -->
<g id="edge10" class="edge">
<title>Node385&#45;&gt;Node386</title>
<path fill="none" stroke="#191970" d="M705.3948,-112.3905C732.346,-106.986 764.0102,-100.6365 789.525,-95.5201"/>
<polygon fill="#191970" stroke="#191970" points="704.4355,-109.0131 695.3189,-114.411 705.8118,-115.8765 704.4355,-109.0131"/>
</g>
<!-- Node387 -->
<g id="node11" class="node">
<title>Node387</title>
<g id="a_node11"><a xlink:href="class_qt_pass.html#a70447af6f0e0540106a423a45dc27c99" target="_top" xlink:title="QtPass::~QtPass destroy! ">
<polygon fill="none" stroke="#000000" points="789.5,-114.5 789.5,-133.5 884.5,-133.5 884.5,-114.5 789.5,-114.5"/>
<text text-anchor="middle" x="837" y="-121.5" font-family="Helvetica,sans-Serif" font-size="10.00" fill="#000000">QtPass::~QtPass</text>
</a>
</g>
</g>
<!-- Node385&#45;&gt;Node387 -->
<g id="edge12" class="edge">
<title>Node385&#45;&gt;Node387</title>
<path fill="none" stroke="#191970" d="M710.0867,-124C735.8594,-124 765.2344,-124 789.2285,-124"/>
<polygon fill="#191970" stroke="#191970" points="710.0347,-120.5001 700.0347,-124 710.0346,-127.5001 710.0347,-120.5001"/>
</g>
<!-- Node386&#45;&gt;Node378 -->
<g id="edge11" class="edge">
<title>Node386&#45;&gt;Node378</title>
<path fill="none" stroke="#191970" d="M919.5278,-86C930.3658,-86 941.3281,-86 951.764,-86"/>
<polygon fill="#191970" stroke="#191970" points="919.1961,-82.5001 909.196,-86 919.196,-89.5001 919.1961,-82.5001"/>
</g>
<!-- Node388&#45;&gt;Node384 -->
<g id="edge20" class="edge">
<title>Node388&#45;&gt;Node384</title>
<path fill="none" stroke="#191970" d="M336.9069,-97.681C362.9296,-103.0699 393.4301,-109.3861 418.0282,-114.4799"/>
<polygon fill="#191970" stroke="#191970" points="337.3068,-94.1896 326.8048,-95.589 335.8873,-101.0442 337.3068,-94.1896"/>
</g>
<!-- Node389 -->
<g id="node13" class="node">
<title>Node389</title>
<g id="a_node13"><a xlink:href="class_main_window.html#a7997fd865548c3baa51f1863bb8fdfa0" target="_top" xlink:title="MainWindow::passOtpHandler">
<polygon fill="none" stroke="#000000" points="573,-38.5 573,-57.5 722,-57.5 722,-38.5 573,-38.5"/>
<text text-anchor="middle" x="647.5" y="-45.5" font-family="Helvetica,sans-Serif" font-size="10.00" fill="#000000">MainWindow::passOtpHandler</text>
</a>
</g>
</g>
<!-- Node388&#45;&gt;Node389 -->
<g id="edge14" class="edge">
<title>Node388&#45;&gt;Node389</title>
<path fill="none" stroke="#191970" d="M339.914,-74.702C356.4098,-71.8606 374.3601,-69.0421 391,-67 452.0518,-59.5077 521.6675,-54.5772 572.9541,-51.6209"/>
<polygon fill="#191970" stroke="#191970" points="339.1001,-71.2912 329.8558,-76.4674 340.3103,-78.1859 339.1001,-71.2912"/>
</g>
<!-- Node390 -->
<g id="node14" class="node">
<title>Node390</title>
<g id="a_node14"><a xlink:href="class_main_window.html#a9c4f542263838b9ecd06eae839a42a34" target="_top" xlink:title="MainWindow::keyPressEvent did anyone press return, enter or escape? ">
<polygon fill="none" stroke="#000000" points="391,-76.5 391,-95.5 537,-95.5 537,-76.5 391,-76.5"/>
<text text-anchor="middle" x="464" y="-83.5" font-family="Helvetica,sans-Serif" font-size="10.00" fill="#000000">MainWindow::keyPressEvent</text>
</a>
</g>
</g>
<!-- Node388&#45;&gt;Node390 -->
<g id="edge16" class="edge">
<title>Node388&#45;&gt;Node390</title>
<path fill="none" stroke="#191970" d="M365.174,-86C373.7727,-86 382.4548,-86 390.9157,-86"/>
<polygon fill="#191970" stroke="#191970" points="365.1365,-82.5001 355.1365,-86 365.1364,-89.5001 365.1365,-82.5001"/>
</g>
<!-- Node391 -->
<g id="node15" class="node">
<title>Node391</title>
<g id="a_node15"><a xlink:href="class_qt_pass.html#a74adba9dd6915c9db50762279b62be89" target="_top" xlink:title="QtPass::setClippedText">
<polygon fill="none" stroke="#000000" points="403,-.5 403,-19.5 525,-19.5 525,-.5 403,-.5"/>
<text text-anchor="middle" x="464" y="-7.5" font-family="Helvetica,sans-Serif" font-size="10.00" fill="#000000">QtPass::setClippedText</text>
</a>
</g>
</g>
<!-- Node388&#45;&gt;Node391 -->
<g id="edge17" class="edge">
<title>Node388&#45;&gt;Node391</title>
<path fill="none" stroke="#191970" d="M308.0859,-71.8658C330.1922,-60.8215 362.171,-45.4725 391,-34 404.2632,-28.7219 419.1921,-23.6632 432.0773,-19.5626"/>
<polygon fill="#191970" stroke="#191970" points="306.3202,-68.8361 298.9626,-76.4595 309.4684,-75.0883 306.3202,-68.8361"/>
</g>
<!-- Node389&#45;&gt;Node378 -->
<g id="edge15" class="edge">
<title>Node389&#45;&gt;Node378</title>
<path fill="none" stroke="#191970" d="M732.137,-51.3863C785.1255,-54.1498 854.7345,-58.953 916,-67 934.131,-69.3815 953.9594,-73.0057 971.0426,-76.4526"/>
<polygon fill="#191970" stroke="#191970" points="732.2702,-47.8887 722.1056,-50.8771 731.9153,-54.8797 732.2702,-47.8887"/>
</g>
<!-- Node392 -->
<g id="node16" class="node">
<title>Node392</title>
<g id="a_node16"><a xlink:href="class_main_window.html#a0d75695e555bac7331e1ea22bc3159df" target="_top" xlink:title="MainWindow::passShowHandler">
<polygon fill="none" stroke="#000000" points="758,-.5 758,-19.5 916,-19.5 916,-.5 758,-.5"/>
<text text-anchor="middle" x="837" y="-7.5" font-family="Helvetica,sans-Serif" font-size="10.00" fill="#000000">MainWindow::passShowHandler</text>
</a>
</g>
</g>
<!-- Node391&#45;&gt;Node392 -->
<g id="edge18" class="edge">
<title>Node391&#45;&gt;Node392</title>
<path fill="none" stroke="#191970" d="M535.5218,-10C599.1595,-10 692.085,-10 757.9172,-10"/>
<polygon fill="#191970" stroke="#191970" points="535.1757,-6.5001 525.1757,-10 535.1757,-13.5001 535.1757,-6.5001"/>
</g>
<!-- Node392&#45;&gt;Node378 -->
<g id="edge19" class="edge">
<title>Node392&#45;&gt;Node378</title>
<path fill="none" stroke="#191970" d="M883.4319,-22.4913C894.2601,-25.8466 905.6479,-29.7407 916,-34 946.222,-46.4347 979.4685,-65.1137 998.5752,-76.3734"/>
<polygon fill="#191970" stroke="#191970" points="884.2748,-19.0901 873.6906,-19.5663 882.2617,-25.7944 884.2748,-19.0901"/>
</g>
<!-- Node393&#45;&gt;Node384 -->
<g id="edge23" class="edge">
<title>Node393&#45;&gt;Node384</title>
<path fill="none" stroke="#191970" d="M365.2117,-124C379.1265,-124 393.2584,-124 406.3172,-124"/>
<polygon fill="#191970" stroke="#191970" points="365.1365,-120.5001 355.1365,-124 365.1364,-127.5001 365.1365,-120.5001"/>
</g>
<!-- Node393&#45;&gt;Node390 -->
<g id="edge22" class="edge">
<title>Node393&#45;&gt;Node390</title>
<path fill="none" stroke="#191970" d="M336.9069,-112.319C362.9296,-106.9301 393.4301,-100.6139 418.0282,-95.5201"/>
<polygon fill="#191970" stroke="#191970" points="335.8873,-108.9558 326.8048,-114.411 337.3068,-115.8104 335.8873,-108.9558"/>
</g>
</g>
</svg>
