<?xml version="1.0" encoding="UTF-8" standalone="no"?>
<!DOCTYPE svg PUBLIC "-//W3C//DTD SVG 1.1//EN"
 "http://www.w3.org/Graphics/SVG/1.1/DTD/svg11.dtd">
<!-- Generated by graphviz version 2.40.1 (20161225.0304)
 -->
<!-- Title: QtPass::setFreshStart Pages: 1 -->
<!--zoomable 47 -->
<svg id="main" version="1.1" xmlns="http://www.w3.org/2000/svg" xmlns:xlink="http://www.w3.org/1999/xlink" xml:space="preserve" onload="init(evt)">
<style type="text/css"><![CDATA[
.edge:hover path { stroke: red; }
.edge:hover polygon { stroke: red; fill: red; }
]]></style>
<script type="text/javascript"><![CDATA[
var edges = document.getElementsByTagName('g');
if (edges && edges.length) {
  for (var i=0;i<edges.length;i++) {
    if (edges[i].id.substr(0,4)=='edge') {
      edges[i].setAttribute('class','edge');
    }
  }
}
]]></script>
        <defs>
                <circle id="rim" cx="0" cy="0" r="7"/>
                <circle id="rim2" cx="0" cy="0" r="3.5"/>
                <g id="zoomPlus">
                        <use xlink:href="#rim" fill="#404040">
                                <set attributeName="fill" to="#808080" begin="zoomplus.mouseover" end="zoomplus.mouseout"/>
                        </use>
                        <path d="M-4,0h8M0,-4v8" fill="none" stroke="white" stroke-width="1.5" pointer-events="none"/>
                </g>
                <g id="zoomMin">
                        <use xlink:href="#rim" fill="#404040">
                                <set attributeName="fill" to="#808080" begin="zoomminus.mouseover" end="zoomminus.mouseout"/>
                        </use>
                        <path d="M-4,0h8" fill="none" stroke="white" stroke-width="1.5" pointer-events="none"/>
                </g>
                <g id="dirArrow">
                        <path fill="none" stroke="white" stroke-width="1.5" d="M0,-3.0v7 M-2.5,-0.5L0,-3.0L2.5,-0.5"/>
                </g>
               <g id="resetDef">
                       <use xlink:href="#rim2" fill="#404040">
                               <set attributeName="fill" to="#808080" begin="reset.mouseover" end="reset.mouseout"/>
                       </use>
               </g>
        </defs>

<script type="text/javascript">
var viewWidth = 719;
var viewHeight = 47;
var sectionId = 'dynsection-17';
</script>
<script xlink:href="svgpan.js"/>
<svg id="graph" class="graph">
<g id="viewport">
<title>QtPass::setFreshStart</title>
<!-- Node182 -->
<g id="node1" class="node">
<title>Node182</title>
<polygon fill="#bfbfbf" stroke="#000000" points="0,-.5 0,-19.5 115,-19.5 115,-.5 0,-.5"/>
<text text-anchor="middle" x="57.5" y="-7.5" font-family="Helvetica,sans-Serif" font-size="10.00" fill="#000000">QtPass::setFreshStart</text>
</g>
<!-- Node183 -->
<g id="node2" class="node">
<title>Node183</title>
<g id="a_node2"><a xlink:href="class_main_window.html#aeb8091ab5531144b76c1fbb0d63deb56" target="_top" xlink:title="MainWindow::config pops up the configuration screen and handles all inter&#45;window communication. ">
<polygon fill="none" stroke="#000000" points="151,-.5 151,-19.5 256,-19.5 256,-.5 151,-.5"/>
<text text-anchor="middle" x="203.5" y="-7.5" font-family="Helvetica,sans-Serif" font-size="10.00" fill="#000000">MainWindow::config</text>
</a>
</g>
</g>
<!-- Node182&#45;&gt;Node183 -->
<g id="edge1" class="edge">
<title>Node182&#45;&gt;Node183</title>
<path fill="none" stroke="#191970" d="M125.2597,-10C133.8896,-10 142.6177,-10 150.9583,-10"/>
<polygon fill="#191970" stroke="#191970" points="125.2031,-6.5001 115.2031,-10 125.203,-13.5001 125.2031,-6.5001"/>
</g>
<!-- Node184 -->
<g id="node3" class="node">
<title>Node184</title>
<g id="a_node3"><a xlink:href="class_main_window.html#a9630f0fe0e0941a7996d68014f837ed5" target="_top" xlink:title="MainWindow::restoreWindow">
<polygon fill="none" stroke="#000000" points="292,-19.5 292,-38.5 436,-38.5 436,-19.5 292,-19.5"/>
<text text-anchor="middle" x="364" y="-26.5" font-family="Helvetica,sans-Serif" font-size="10.00" fill="#000000">MainWindow::restoreWindow</text>
</a>
</g>
</g>
<!-- Node183&#45;&gt;Node184 -->
<g id="edge2" class="edge">
<title>Node183&#45;&gt;Node184</title>
<path fill="none" stroke="#191970" d="M266.1514,-17.4167C274.5617,-18.4123 283.2432,-19.44 291.8014,-20.4531"/>
<polygon fill="#191970" stroke="#191970" points="266.3958,-13.9213 256.0537,-16.2213 265.5729,-20.8727 266.3958,-13.9213"/>
</g>
<!-- Node185 -->
<g id="node4" class="node">
<title>Node185</title>
<g id="a_node4"><a xlink:href="class_qt_pass.html#a49e2861160fdb8d614231933f60fac47" target="_top" xlink:title="QtPass::init make sure we are ready to go as soon as possible. ">
<polygon fill="none" stroke="#000000" points="472,-.5 472,-19.5 540,-19.5 540,-.5 472,-.5"/>
<text text-anchor="middle" x="506" y="-7.5" font-family="Helvetica,sans-Serif" font-size="10.00" fill="#000000">QtPass::init</text>
</a>
</g>
</g>
<!-- Node183&#45;&gt;Node185 -->
<g id="edge5" class="edge">
<title>Node183&#45;&gt;Node185</title>
<path fill="none" stroke="#191970" d="M266.306,-10C328.6667,-10 421.9502,-10 471.7591,-10"/>
<polygon fill="#191970" stroke="#191970" points="266.1915,-6.5001 256.1915,-10 266.1914,-13.5001 266.1915,-6.5001"/>
</g>
<!-- Node184&#45;&gt;Node185 -->
<g id="edge3" class="edge">
<title>Node184&#45;&gt;Node185</title>
<path fill="none" stroke="#191970" d="M445.5082,-18.094C454.7492,-16.8575 463.7473,-15.6535 471.8576,-14.5683"/>
<polygon fill="#191970" stroke="#191970" points="444.8635,-14.649 435.416,-19.4443 445.7919,-21.5871 444.8635,-14.649"/>
</g>
<!-- Node186 -->
<g id="node5" class="node">
<title>Node186</title>
<g id="a_node5"><a xlink:href="class_main_window.html#a52e97245b2f88492071e639395c4a15a" target="_top" xlink:title="MainWindow::MainWindow handles all of the main functionality and also the main window. ">
<polygon fill="none" stroke="#000000" points="576,-.5 576,-19.5 711,-19.5 711,-.5 576,-.5"/>
<text text-anchor="middle" x="643.5" y="-7.5" font-family="Helvetica,sans-Serif" font-size="10.00" fill="#000000">MainWindow::MainWindow</text>
</a>
</g>
</g>
<!-- Node185&#45;&gt;Node186 -->
<g id="edge4" class="edge">
<title>Node185&#45;&gt;Node186</title>
<path fill="none" stroke="#191970" d="M550.6126,-10C558.6815,-10 567.2586,-10 575.8137,-10"/>
<polygon fill="#191970" stroke="#191970" points="550.3424,-6.5001 540.3424,-10 550.3423,-13.5001 550.3424,-6.5001"/>
</g>
</g>
</svg>
        <g id="navigator" transform="translate(0 0)" fill="#404254">
                <rect fill="#f2f5e9" fill-opacity="0.5" stroke="#606060" stroke-width=".5" x="0" y="0" width="60" height="60"/>
                <use id="zoomplus" xlink:href="#zoomPlus" x="17" y="9" onmousedown="handleZoom(evt,'in')"/>
                <use id="zoomminus" xlink:href="#zoomMin" x="42" y="9" onmousedown="handleZoom(evt,'out')"/>
                <use id="reset" xlink:href="#resetDef" x="30" y="36" onmousedown="handleReset()"/>
                <g id="arrowUp" xlink:href="#dirArrow" transform="translate(30 24)" onmousedown="handlePan(0,-1)">
                  <use xlink:href="#rim" fill="#404040">
                        <set attributeName="fill" to="#808080" begin="arrowUp.mouseover" end="arrowUp.mouseout"/>
                  </use>
                  <path fill="none" stroke="white" stroke-width="1.5" d="M0,-3.0v7 M-2.5,-0.5L0,-3.0L2.5,-0.5"/>
                </g>
                <g id="arrowRight" xlink:href="#dirArrow" transform="rotate(90) translate(36 -43)" onmousedown="handlePan(1,0)">
                  <use xlink:href="#rim" fill="#404040">
                        <set attributeName="fill" to="#808080" begin="arrowRight.mouseover" end="arrowRight.mouseout"/>
                  </use>
                  <path fill="none" stroke="white" stroke-width="1.5" d="M0,-3.0v7 M-2.5,-0.5L0,-3.0L2.5,-0.5"/>
                </g>
                <g id="arrowDown" xlink:href="#dirArrow" transform="rotate(180) translate(-30 -48)" onmousedown="handlePan(0,1)">
                  <use xlink:href="#rim" fill="#404040">
                        <set attributeName="fill" to="#808080" begin="arrowDown.mouseover" end="arrowDown.mouseout"/>
                  </use>
                  <path fill="none" stroke="white" stroke-width="1.5" d="M0,-3.0v7 M-2.5,-0.5L0,-3.0L2.5,-0.5"/>
                </g>
                <g id="arrowLeft" xlink:href="#dirArrow" transform="rotate(270) translate(-36 17)" onmousedown="handlePan(-1,0)">
                  <use xlink:href="#rim" fill="#404040">
                        <set attributeName="fill" to="#808080" begin="arrowLeft.mouseover" end="arrowLeft.mouseout"/>
                  </use>
                  <path fill="none" stroke="white" stroke-width="1.5" d="M0,-3.0v7 M-2.5,-0.5L0,-3.0L2.5,-0.5"/>
                </g>
        </g>
        <svg viewBox="0 0 15 15" width="100%" height="30px" preserveAspectRatio="xMaxYMin meet">
         <g id="arrow_out" transform="scale(0.3 0.3)">
          <a xlink:href="class_qt_pass_a5b63b7418723b400f0db2afa450f1199_icgraph_org.svg" target="_base">
           <rect id="button" ry="5" rx="5" y="6" x="6" height="38" width="38"
                fill="#f2f5e9" fill-opacity="0.5" stroke="#606060" stroke-width="1.0"/>
           <path id="arrow"
             d="M 11.500037,31.436501 C 11.940474,20.09759 22.043105,11.32322 32.158766,21.979434 L 37.068811,17.246167 C 37.068811,17.246167 37.088388,32 37.088388,32 L 22.160133,31.978069 C 22.160133,31.978069 26.997745,27.140456 26.997745,27.140456 C 18.528582,18.264221 13.291696,25.230495 11.500037,31.436501 z"
             style="fill:#404040;"/>
          </a>
         </g>
        </svg>
</svg>
