<?xml version="1.0" encoding="UTF-8" standalone="no"?>
<!DOCTYPE svg PUBLIC "-//W3C//DTD SVG 1.1//EN"
 "http://www.w3.org/Graphics/SVG/1.1/DTD/svg11.dtd">
<!-- Generated by graphviz version 2.38.0 (20140413.2041)
 -->
<!-- Title: QtPassSettings::isAvoidNumbers Pages: 1 -->
<!--zoomable 148 -->
<svg id="main" version="1.1" xmlns="http://www.w3.org/2000/svg" xmlns:xlink="http://www.w3.org/1999/xlink" xml:space="preserve" onload="init(evt)">
<style type="text/css"><![CDATA[
.edge:hover path { stroke: red; }
.edge:hover polygon { stroke: red; fill: red; }
]]></style>
<script type="text/javascript"><![CDATA[
var edges = document.getElementsByTagName('g');
if (edges && edges.length) {
  for (var i=0;i<edges.length;i++) {
    if (edges[i].id.substr(0,4)=='edge') {
      edges[i].setAttribute('class','edge');
    }
  }
}
]]></script>
        <defs>
                <circle id="rim" cx="0" cy="0" r="7"/>
                <circle id="rim2" cx="0" cy="0" r="3.5"/>
                <g id="zoomPlus">
                        <use xlink:href="#rim" fill="#404040">
                                <set attributeName="fill" to="#808080" begin="zoomplus.mouseover" end="zoomplus.mouseout"/>
                        </use>
                        <path d="M-4,0h8M0,-4v8" fill="none" stroke="white" stroke-width="1.5" pointer-events="none"/>
                </g>
                <g id="zoomMin">
                        <use xlink:href="#rim" fill="#404040">
                                <set attributeName="fill" to="#808080" begin="zoomminus.mouseover" end="zoomminus.mouseout"/>
                        </use>
                        <path d="M-4,0h8" fill="none" stroke="white" stroke-width="1.5" pointer-events="none"/>
                </g>
                <g id="dirArrow">
                        <path fill="none" stroke="white" stroke-width="1.5" d="M0,-3.0v7 M-2.5,-0.5L0,-3.0L2.5,-0.5"/>
                </g>
               <g id="resetDef">
                       <use xlink:href="#rim2" fill="#404040">
                               <set attributeName="fill" to="#808080" begin="reset.mouseover" end="reset.mouseout"/>
                       </use>
               </g>
        </defs>

<script type="text/javascript">
var viewWidth = 683;
var viewHeight = 148;
var sectionId = 'dynsection-33';
</script>
<script xlink:href="svgpan.js"/>
<svg id="graph" class="graph">
<g id="viewport">
<title>QtPassSettings::isAvoidNumbers</title>
<!-- Node293 -->
<g id="node1" class="node"><title>Node293</title>
<polygon fill="#bfbfbf" stroke="black" points="0,-65.5 0,-83.5 163.104,-83.5 163.104,-65.5 0,-65.5"/>
<text text-anchor="middle" x="81.5522" y="-71.5" font-family="Helvetica,sans-Serif" font-size="10.00">QtPassSettings::isAvoidNumbers</text>
</g>
<!-- Node294 -->
<g id="node2" class="node"><title>Node294</title>
<g id="a_node2"><a xlink:href="class_main_window.html#aeb8091ab5531144b76c1fbb0d63deb56" target="_top" xlink:title="MainWindow::config pops up the configuration screen and handles all inter&#45;window communication. ">
<polygon fill="none" stroke="black" points="199.104,-84.5 199.104,-102.5 304.587,-102.5 304.587,-84.5 199.104,-84.5"/>
<text text-anchor="middle" x="251.846" y="-90.5" font-family="Helvetica,sans-Serif" font-size="10.00">MainWindow::config</text>
</a>
</g>
</g>
<!-- Node293&#45;&gt;Node294 -->
<g id="edge1" class="edge"><title>Node293&#45;&gt;Node294</title>
<path fill="none" stroke="midnightblue" d="M172.76,-84.6843C181.606,-85.683 190.362,-86.6715 198.634,-87.6054"/>
<polygon fill="midnightblue" stroke="midnightblue" points="173.085,-81.1989 162.756,-83.5548 172.3,-88.1547 173.085,-81.1989"/>
</g>
<!-- Node299 -->
<g id="node7" class="node"><title>Node299</title>
<g id="a_node7"><a xlink:href="class_pass.html#a140443713431e41dc5a7d4989ece82c0" target="_top" xlink:title="Pass::Generate use either pwgen or internal password generator. ">
<polygon fill="none" stroke="black" points="209.104,-47.5 209.104,-65.5 294.587,-65.5 294.587,-47.5 209.104,-47.5"/>
<text text-anchor="middle" x="251.846" y="-53.5" font-family="Helvetica,sans-Serif" font-size="10.00">Pass::Generate</text>
</a>
</g>
</g>
<!-- Node293&#45;&gt;Node299 -->
<g id="edge6" class="edge"><title>Node293&#45;&gt;Node299</title>
<path fill="none" stroke="midnightblue" d="M173.285,-64.7956C185.774,-63.4598 198.069,-62.1448 209.059,-60.9693"/>
<polygon fill="midnightblue" stroke="midnightblue" points="172.82,-61.3253 163.249,-65.869 173.564,-68.2856 172.82,-61.3253"/>
</g>
<!-- Node295 -->
<g id="node3" class="node"><title>Node295</title>
<g id="a_node3"><a xlink:href="class_main_window.html#a23d2783cb61a373c4b0127970264290a" target="_top" xlink:title="MainWindow::checkConfig make sure we are ready to go as soon as possible. ">
<polygon fill="none" stroke="black" points="354.759,-121.5 354.759,-139.5 488.586,-139.5 488.586,-121.5 354.759,-121.5"/>
<text text-anchor="middle" x="421.673" y="-127.5" font-family="Helvetica,sans-Serif" font-size="10.00">MainWindow::checkConfig</text>
</a>
</g>
</g>
<!-- Node294&#45;&gt;Node295 -->
<g id="edge2" class="edge"><title>Node294&#45;&gt;Node295</title>
<path fill="none" stroke="midnightblue" d="M303.69,-104.709C328.048,-110.079 356.831,-116.425 379.751,-121.478"/>
<polygon fill="midnightblue" stroke="midnightblue" points="304.42,-101.286 293.901,-102.551 302.913,-108.122 304.42,-101.286"/>
</g>
<!-- Node297 -->
<g id="node5" class="node"><title>Node297</title>
<g id="a_node5"><a xlink:href="class_main_window.html#a4680b2cbcfd388683a98303f29c0f84f" target="_top" xlink:title="MainWindow::executePassGitInit git init wrapper. ">
<polygon fill="none" stroke="black" points="340.587,-84.5 340.587,-102.5 502.759,-102.5 502.759,-84.5 340.587,-84.5"/>
<text text-anchor="middle" x="421.673" y="-90.5" font-family="Helvetica,sans-Serif" font-size="10.00">MainWindow::executePassGitInit</text>
</a>
</g>
</g>
<!-- Node294&#45;&gt;Node297 -->
<g id="edge4" class="edge"><title>Node294&#45;&gt;Node297</title>
<path fill="none" stroke="midnightblue" d="M315.264,-93.5C323.491,-93.5 332.014,-93.5 340.486,-93.5"/>
<polygon fill="midnightblue" stroke="midnightblue" points="315.027,-90.0001 305.027,-93.5 315.027,-97.0001 315.027,-90.0001"/>
</g>
<!-- Node296 -->
<g id="node4" class="node"><title>Node296</title>
<g id="a_node4"><a xlink:href="class_main_window.html#a8b244be8b7b7db1b08de2a2acb9409db" target="_top" xlink:title="MainWindow::MainWindow handles all of the main functionality and also the main window. ">
<polygon fill="none" stroke="black" points="538.759,-121.5 538.759,-139.5 674.798,-139.5 674.798,-121.5 538.759,-121.5"/>
<text text-anchor="middle" x="606.778" y="-127.5" font-family="Helvetica,sans-Serif" font-size="10.00">MainWindow::MainWindow</text>
</a>
</g>
</g>
<!-- Node295&#45;&gt;Node296 -->
<g id="edge3" class="edge"><title>Node295&#45;&gt;Node296</title>
<path fill="none" stroke="midnightblue" d="M499.153,-130.5C512.229,-130.5 525.726,-130.5 538.539,-130.5"/>
<polygon fill="midnightblue" stroke="midnightblue" points="498.778,-127 488.778,-130.5 498.778,-134 498.778,-127"/>
</g>
<!-- Node298 -->
<g id="node6" class="node"><title>Node298</title>
<g id="a_node6"><a xlink:href="class_config_dialog.html#ad5b80066591f19fdaaa06b7cb5ba7f15" target="_top" xlink:title="ConfigDialog::wizard first&#45;time use wizard. ">
<polygon fill="none" stroke="black" points="552.924,-84.5 552.924,-102.5 660.633,-102.5 660.633,-84.5 552.924,-84.5"/>
<text text-anchor="middle" x="606.778" y="-90.5" font-family="Helvetica,sans-Serif" font-size="10.00">ConfigDialog::wizard</text>
</a>
</g>
</g>
<!-- Node297&#45;&gt;Node298 -->
<g id="edge5" class="edge"><title>Node297&#45;&gt;Node298</title>
<path fill="none" stroke="midnightblue" d="M513.277,-93.5C526.767,-93.5 540.285,-93.5 552.658,-93.5"/>
<polygon fill="midnightblue" stroke="midnightblue" points="512.986,-90.0001 502.986,-93.5 512.986,-97.0001 512.986,-90.0001"/>
</g>
<!-- Node300 -->
<g id="node8" class="node"><title>Node300</title>
<g id="a_node8"><a xlink:href="class_pass.html#a8dfa731be7ac962f9f6a5cf8f29097ec" target="_top" xlink:title="Pass::~Pass">
<polygon fill="none" stroke="black" points="385.743,-47.5 385.743,-65.5 457.603,-65.5 457.603,-47.5 385.743,-47.5"/>
<text text-anchor="middle" x="421.673" y="-53.5" font-family="Helvetica,sans-Serif" font-size="10.00">Pass::~Pass</text>
</a>
</g>
</g>
<!-- Node299&#45;&gt;Node300 -->
<g id="edge7" class="edge"><title>Node299&#45;&gt;Node300</title>
<path fill="none" stroke="midnightblue" d="M304.909,-56.5C331.106,-56.5 362.167,-56.5 385.516,-56.5"/>
<polygon fill="midnightblue" stroke="midnightblue" points="304.763,-53.0001 294.763,-56.5 304.763,-60.0001 304.763,-53.0001"/>
</g>
<!-- Node301 -->
<g id="node9" class="node"><title>Node301</title>
<g id="a_node9"><a xlink:href="class_password_dialog.html#aa123158c0085b910ecf3bfdc9dae9e97" target="_top" xlink:title="PasswordDialog::~PasswordDialog basic destructor. ">
<polygon fill="none" stroke="black" points="349.894,-0.5 349.894,-28.5 493.452,-28.5 493.452,-0.5 349.894,-0.5"/>
<text text-anchor="start" x="357.894" y="-16.5" font-family="Helvetica,sans-Serif" font-size="10.00">PasswordDialog::~Password</text>
<text text-anchor="middle" x="421.673" y="-6.5" font-family="Helvetica,sans-Serif" font-size="10.00">Dialog</text>
</a>
</g>
</g>
<!-- Node299&#45;&gt;Node301 -->
<g id="edge8" class="edge"><title>Node299&#45;&gt;Node301</title>
<path fill="none" stroke="midnightblue" d="M298.797,-45.0003C319.123,-39.9137 343.213,-33.8848 364.587,-28.5358"/>
<polygon fill="midnightblue" stroke="midnightblue" points="297.7,-41.6669 288.849,-47.4899 299.399,-48.4575 297.7,-41.6669"/>
</g>
</g>
</svg>
        <g id="navigator" transform="translate(0 0)" fill="#404254">
                <rect fill="#f2f5e9" fill-opacity="0.5" stroke="#606060" stroke-width=".5" x="0" y="0" width="60" height="60"/>
                <use id="zoomplus" xlink:href="#zoomPlus" x="17" y="9" onmousedown="handleZoom(evt,'in')"/>
                <use id="zoomminus" xlink:href="#zoomMin" x="42" y="9" onmousedown="handleZoom(evt,'out')"/>
                <use id="reset" xlink:href="#resetDef" x="30" y="36" onmousedown="handleReset()"/>
                <g id="arrowUp" xlink:href="#dirArrow" transform="translate(30 24)" onmousedown="handlePan(0,-1)">
                  <use xlink:href="#rim" fill="#404040">
                        <set attributeName="fill" to="#808080" begin="arrowUp.mouseover" end="arrowUp.mouseout"/>
                  </use>
                  <path fill="none" stroke="white" stroke-width="1.5" d="M0,-3.0v7 M-2.5,-0.5L0,-3.0L2.5,-0.5"/>
                </g>
                <g id="arrowRight" xlink:href="#dirArrow" transform="rotate(90) translate(36 -43)" onmousedown="handlePan(1,0)">
                  <use xlink:href="#rim" fill="#404040">
                        <set attributeName="fill" to="#808080" begin="arrowRight.mouseover" end="arrowRight.mouseout"/>
                  </use>
                  <path fill="none" stroke="white" stroke-width="1.5" d="M0,-3.0v7 M-2.5,-0.5L0,-3.0L2.5,-0.5"/>
                </g>
                <g id="arrowDown" xlink:href="#dirArrow" transform="rotate(180) translate(-30 -48)" onmousedown="handlePan(0,1)">
                  <use xlink:href="#rim" fill="#404040">
                        <set attributeName="fill" to="#808080" begin="arrowDown.mouseover" end="arrowDown.mouseout"/>
                  </use>
                  <path fill="none" stroke="white" stroke-width="1.5" d="M0,-3.0v7 M-2.5,-0.5L0,-3.0L2.5,-0.5"/>
                </g>
                <g id="arrowLeft" xlink:href="#dirArrow" transform="rotate(270) translate(-36 17)" onmousedown="handlePan(-1,0)">
                  <use xlink:href="#rim" fill="#404040">
                        <set attributeName="fill" to="#808080" begin="arrowLeft.mouseover" end="arrowLeft.mouseout"/>
                  </use>
                  <path fill="none" stroke="white" stroke-width="1.5" d="M0,-3.0v7 M-2.5,-0.5L0,-3.0L2.5,-0.5"/>
                </g>
        </g>
        <svg viewBox="0 0 15 15" width="100%" height="30px" preserveAspectRatio="xMaxYMin meet">
         <g id="arrow_out" transform="scale(0.3 0.3)">
          <a xlink:href="class_qt_pass_settings_a4fda53ae05c53b62b216f304be336341_icgraph_org.svg" target="_base">
           <rect id="button" ry="5" rx="5" y="6" x="6" height="38" width="38"
                fill="#f2f5e9" fill-opacity="0.5" stroke="#606060" stroke-width="1.0"/>
           <path id="arrow"
             d="M 11.500037,31.436501 C 11.940474,20.09759 22.043105,11.32322 32.158766,21.979434 L 37.068811,17.246167 C 37.068811,17.246167 37.088388,32 37.088388,32 L 22.160133,31.978069 C 22.160133,31.978069 26.997745,27.140456 26.997745,27.140456 C 18.528582,18.264221 13.291696,25.230495 11.500037,31.436501 z"
             style="fill:#404040;"/>
          </a>
         </g>
        </svg>
</svg>
