<?xml version="1.0" encoding="UTF-8" standalone="no"?>
<!DOCTYPE svg PUBLIC "-//W3C//DTD SVG 1.1//EN"
 "http://www.w3.org/Graphics/SVG/1.1/DTD/svg11.dtd">
<!-- Generated by graphviz version 2.38.0 (20140413.2041)
 -->
<!-- Title: MainWindow::keyPressEvent Pages: 1 -->
<svg width="667pt" height="242pt"
 viewBox="0.00 0.00 666.70 242.35" xmlns="http://www.w3.org/2000/svg" xmlns:xlink="http://www.w3.org/1999/xlink">
<g id="graph0" class="graph" transform="scale(1 1) rotate(0) translate(4 238.347)">
<title>MainWindow::keyPressEvent</title>
<!-- Node411 -->
<g id="node1" class="node"><title>Node411</title>
<polygon fill="#bfbfbf" stroke="black" points="0,-111.5 0,-129.5 145.492,-129.5 145.492,-111.5 0,-111.5"/>
<text text-anchor="middle" x="72.7461" y="-117.5" font-family="Helvetica,sans-Serif" font-size="10.00">MainWindow::keyPressEvent</text>
</g>
<!-- Node412 -->
<g id="node2" class="node"><title>Node412</title>
<g id="a_node2"><a xlink:href="class_qt_pass_settings.html#abb8c53443d71181a3ecd6545464453e6" target="_top" xlink:title="QtPassSettings::getPassStore">
<polygon fill="none" stroke="black" points="508.188,-167.5 508.188,-185.5 658.699,-185.5 658.699,-167.5 508.188,-167.5"/>
<text text-anchor="middle" x="583.443" y="-173.5" font-family="Helvetica,sans-Serif" font-size="10.00">QtPassSettings::getPassStore</text>
</a>
</g>
</g>
<!-- Node411&#45;&gt;Node412 -->
<g id="edge1" class="edge"><title>Node411&#45;&gt;Node412</title>
<path fill="none" stroke="midnightblue" d="M80.5374,-129.729C95.8609,-149.671 135.403,-196.36 181.492,-213.5 310.764,-261.574 478.929,-213.571 549.256,-189.028"/>
<polygon fill="midnightblue" stroke="midnightblue" points="550.659,-192.244 558.905,-185.591 548.311,-185.649 550.659,-192.244"/>
</g>
<!-- Node413 -->
<g id="node3" class="node"><title>Node413</title>
<g id="a_node3"><a xlink:href="class_qt_pass_settings.html#a2fd748b9e34c57aac277e8f0556a532f" target="_top" xlink:title="QtPassSettings::isUseGit">
<polygon fill="none" stroke="black" points="186.219,-185.5 186.219,-203.5 314.479,-203.5 314.479,-185.5 186.219,-185.5"/>
<text text-anchor="middle" x="250.349" y="-191.5" font-family="Helvetica,sans-Serif" font-size="10.00">QtPassSettings::isUseGit</text>
</a>
</g>
</g>
<!-- Node411&#45;&gt;Node413 -->
<g id="edge2" class="edge"><title>Node411&#45;&gt;Node413</title>
<path fill="none" stroke="midnightblue" d="M88.5987,-129.565C108.939,-141.661 146.89,-163.107 181.492,-176.5 187.31,-178.752 193.515,-180.823 199.718,-182.696"/>
<polygon fill="midnightblue" stroke="midnightblue" points="198.833,-186.083 209.411,-185.472 200.761,-179.353 198.833,-186.083"/>
</g>
<!-- Node414 -->
<g id="node4" class="node"><title>Node414</title>
<g id="a_node4"><a xlink:href="class_qt_pass_settings.html#a58728db227ada76454d01992bfef64c8" target="_top" xlink:title="QtPassSettings::isAutoPull">
<polygon fill="none" stroke="black" points="182.876,-148.5 182.876,-166.5 317.822,-166.5 317.822,-148.5 182.876,-148.5"/>
<text text-anchor="middle" x="250.349" y="-154.5" font-family="Helvetica,sans-Serif" font-size="10.00">QtPassSettings::isAutoPull</text>
</a>
</g>
</g>
<!-- Node411&#45;&gt;Node414 -->
<g id="edge3" class="edge"><title>Node411&#45;&gt;Node414</title>
<path fill="none" stroke="midnightblue" d="M116.703,-129.551C140.816,-134.632 171.097,-141.012 196.637,-146.393"/>
<polygon fill="midnightblue" stroke="midnightblue" points="196.025,-149.841 206.531,-148.478 197.468,-142.992 196.025,-149.841"/>
</g>
<!-- Node415 -->
<g id="node5" class="node"><title>Node415</title>
<g id="a_node5"><a xlink:href="class_pass.html#a67f8fad399d76d53a4639f75d9cee95c" target="_top" xlink:title="Pass::waitFor wait until process.atEnd and execQueue.isEmpty or timeout after x&#45;seconds. ">
<polygon fill="none" stroke="black" points="212.063,-111.5 212.063,-129.5 288.635,-129.5 288.635,-111.5 212.063,-111.5"/>
<text text-anchor="middle" x="250.349" y="-117.5" font-family="Helvetica,sans-Serif" font-size="10.00">Pass::waitFor</text>
</a>
</g>
</g>
<!-- Node411&#45;&gt;Node415 -->
<g id="edge4" class="edge"><title>Node411&#45;&gt;Node415</title>
<path fill="none" stroke="midnightblue" d="M145.677,-120.5C164.502,-120.5 184.334,-120.5 201.554,-120.5"/>
<polygon fill="midnightblue" stroke="midnightblue" points="201.907,-124 211.907,-120.5 201.907,-117 201.907,-124"/>
</g>
<!-- Node418 -->
<g id="node8" class="node"><title>Node418</title>
<g id="a_node8"><a xlink:href="class_pass.html#a821812847e66c0db1fce6f770b67d06e" target="_top" xlink:title="Pass::waitForProcess">
<polygon fill="none" stroke="black" points="194.002,-74.5 194.002,-92.5 306.696,-92.5 306.696,-74.5 194.002,-74.5"/>
<text text-anchor="middle" x="250.349" y="-80.5" font-family="Helvetica,sans-Serif" font-size="10.00">Pass::waitForProcess</text>
</a>
</g>
</g>
<!-- Node411&#45;&gt;Node418 -->
<g id="edge8" class="edge"><title>Node411&#45;&gt;Node418</title>
<path fill="none" stroke="midnightblue" d="M116.703,-111.449C140.816,-106.368 171.097,-99.9879 196.637,-94.6066"/>
<polygon fill="midnightblue" stroke="midnightblue" points="197.468,-98.0085 206.531,-92.5218 196.025,-91.1589 197.468,-98.0085"/>
</g>
<!-- Node419 -->
<g id="node9" class="node"><title>Node419</title>
<g id="a_node9"><a xlink:href="class_qt_pass_settings.html#a30ef36260f73f9f18d338f2b18a1f493" target="_top" xlink:title="QtPassSettings::isUsePass">
<polygon fill="none" stroke="black" points="181.492,-37.5 181.492,-55.5 319.206,-55.5 319.206,-37.5 181.492,-37.5"/>
<text text-anchor="middle" x="250.349" y="-43.5" font-family="Helvetica,sans-Serif" font-size="10.00">QtPassSettings::isUsePass</text>
</a>
</g>
</g>
<!-- Node411&#45;&gt;Node419 -->
<g id="edge9" class="edge"><title>Node411&#45;&gt;Node419</title>
<path fill="none" stroke="midnightblue" d="M88.9989,-111.483C109.479,-99.6661 147.259,-78.8761 181.492,-65.5 188,-62.9573 194.981,-60.6035 201.9,-58.4808"/>
<polygon fill="midnightblue" stroke="midnightblue" points="203.319,-61.7122 211.932,-55.5413 201.351,-54.9947 203.319,-61.7122"/>
</g>
<!-- Node420 -->
<g id="node10" class="node"><title>Node420</title>
<g id="a_node10"><a xlink:href="class_pass.html#a0f9bdf6589cdfddcfc1a56928a4d49e4" target="_top" xlink:title="Pass::Show">
<polygon fill="none" stroke="black" points="215.948,-0.5 215.948,-18.5 284.75,-18.5 284.75,-0.5 215.948,-0.5"/>
<text text-anchor="middle" x="250.349" y="-6.5" font-family="Helvetica,sans-Serif" font-size="10.00">Pass::Show</text>
</a>
</g>
</g>
<!-- Node411&#45;&gt;Node420 -->
<g id="edge10" class="edge"><title>Node411&#45;&gt;Node420</title>
<path fill="none" stroke="midnightblue" d="M81.6693,-111.295C98.2562,-92.6127 138.661,-50.1088 181.492,-27.5 189.084,-23.4924 197.636,-20.3275 206.044,-17.8449"/>
<polygon fill="midnightblue" stroke="midnightblue" points="207.029,-21.2043 215.782,-15.2343 205.217,-14.443 207.029,-21.2043"/>
</g>
<!-- Node416 -->
<g id="node6" class="node"><title>Node416</title>
<g id="a_node6"><a xlink:href="class_util.html#af3ccbdc1fddaa203dec1b5906e3e1df2" target="_top" xlink:title="Util::qSleep because . . windows sleep. ">
<polygon fill="none" stroke="black" points="380.128,-148.5 380.128,-166.5 447.266,-166.5 447.266,-148.5 380.128,-148.5"/>
<text text-anchor="middle" x="413.697" y="-154.5" font-family="Helvetica,sans-Serif" font-size="10.00">Util::qSleep</text>
</a>
</g>
</g>
<!-- Node415&#45;&gt;Node416 -->
<g id="edge5" class="edge"><title>Node415&#45;&gt;Node416</title>
<path fill="none" stroke="midnightblue" d="M288.771,-129.082C313.072,-134.654 344.806,-141.931 370.077,-147.727"/>
<polygon fill="midnightblue" stroke="midnightblue" points="369.589,-151.205 380.119,-150.029 371.154,-144.383 369.589,-151.205"/>
</g>
<!-- Node417 -->
<g id="node7" class="node"><title>Node417</title>
<g id="a_node7"><a xlink:href="class_pass.html#a7cb996367cc9308dee8be90af001d4ea" target="_top" xlink:title="Pass::executeWrapper run an application, queue when needed. ">
<polygon fill="none" stroke="black" points="355.206,-111.5 355.206,-129.5 472.188,-129.5 472.188,-111.5 355.206,-111.5"/>
<text text-anchor="middle" x="413.697" y="-117.5" font-family="Helvetica,sans-Serif" font-size="10.00">Pass::executeWrapper</text>
</a>
</g>
</g>
<!-- Node415&#45;&gt;Node417 -->
<g id="edge6" class="edge"><title>Node415&#45;&gt;Node417</title>
<path fill="none" stroke="midnightblue" d="M288.771,-120.5C305.421,-120.5 325.561,-120.5 344.721,-120.5"/>
<polygon fill="midnightblue" stroke="midnightblue" points="344.931,-124 354.931,-120.5 344.931,-117 344.931,-124"/>
</g>
<!-- Node417&#45;&gt;Node412 -->
<g id="edge7" class="edge"><title>Node417&#45;&gt;Node412</title>
<path fill="none" stroke="midnightblue" d="M442.194,-129.559C451.698,-132.698 462.414,-136.245 472.188,-139.5 496.828,-147.706 524.542,-157.007 546.021,-164.231"/>
<polygon fill="midnightblue" stroke="midnightblue" points="545.125,-167.622 555.72,-167.494 547.358,-160.988 545.125,-167.622"/>
</g>
</g>
</svg>
