<?xml version="1.0" encoding="UTF-8" standalone="no"?>
<!DOCTYPE svg PUBLIC "-//W3C//DTD SVG 1.1//EN"
 "http://www.w3.org/Graphics/SVG/1.1/DTD/svg11.dtd">
<!-- Generated by graphviz version 2.42.3 (20191010.1750)
 -->
<!-- Title: Pass::init Pages: 1 -->
<!--zoomable 310 -->
<svg id="main" version="1.1" xmlns="http://www.w3.org/2000/svg" xmlns:xlink="http://www.w3.org/1999/xlink" xml:space="preserve" onload="init(evt)">
<style type="text/css"><![CDATA[
.edge:hover path { stroke: red; }
.edge:hover polygon { stroke: red; fill: red; }
]]></style>
<script type="text/javascript"><![CDATA[
var edges = document.getElementsByTagName('g');
if (edges && edges.length) {
  for (var i=0;i<edges.length;i++) {
    if (edges[i].id.substr(0,4)=='edge') {
      edges[i].setAttribute('class','edge');
    }
  }
}
]]></script>
        <defs>
                <circle id="rim" cx="0" cy="0" r="7"/>
                <circle id="rim2" cx="0" cy="0" r="3.5"/>
                <g id="zoomPlus">
                        <use xlink:href="#rim" fill="#404040">
                                <set attributeName="fill" to="#808080" begin="zoomplus.mouseover" end="zoomplus.mouseout"/>
                        </use>
                        <path d="M-4,0h8M0,-4v8" fill="none" stroke="white" stroke-width="1.5" pointer-events="none"/>
                </g>
                <g id="zoomMin">
                        <use xlink:href="#rim" fill="#404040">
                                <set attributeName="fill" to="#808080" begin="zoomminus.mouseover" end="zoomminus.mouseout"/>
                        </use>
                        <path d="M-4,0h8" fill="none" stroke="white" stroke-width="1.5" pointer-events="none"/>
                </g>
                <g id="dirArrow">
                        <path fill="none" stroke="white" stroke-width="1.5" d="M0,-3.0v7 M-2.5,-0.5L0,-3.0L2.5,-0.5"/>
                </g>
               <g id="resetDef">
                       <use xlink:href="#rim2" fill="#404040">
                               <set attributeName="fill" to="#808080" begin="reset.mouseover" end="reset.mouseout"/>
                       </use>
               </g>
        </defs>

<script type="text/javascript">
var viewWidth = 755;
var viewHeight = 310;
var sectionId = 'dynsection-29';
</script>
<script xlink:href="svgpan.js"/>
<svg id="graph" class="graph">
<g id="viewport">
<title>Pass::init</title>
<!-- Node1 -->
<g id="node1" class="node">
<title>Node1</title>
<g id="a_node1"><a xlink:title=" ">
<polygon fill="#bfbfbf" stroke="black" points="690.42,-150.5 690.42,-168.5 746.99,-168.5 746.99,-150.5 690.42,-150.5"/>
<text text-anchor="middle" x="718.7" y="-156.5" font-family="Helvetica,sans-Serif" font-size="10.00">Pass::init</text>
</a>
</g>
</g>
<!-- Node2 -->
<g id="node2" class="node">
<title>Node2</title>
<g id="a_node2"><a xlink:href="class_qt_pass_settings.html#a987e913eac7cd497e2fca27426494a64" target="_top" xlink:title=" ">
<polygon fill="none" stroke="black" points="527.81,-150.5 527.81,-168.5 654.42,-168.5 654.42,-150.5 527.81,-150.5"/>
<text text-anchor="middle" x="591.11" y="-156.5" font-family="Helvetica,sans-Serif" font-size="10.00">QtPassSettings::getPass</text>
</a>
</g>
</g>
<!-- Node1&#45;&gt;Node2 -->
<g id="edge1" class="edge">
<title>Node1&#45;&gt;Node2</title>
<path fill="none" stroke="midnightblue" d="M680.02,-159.5C671.98,-159.5 663.29,-159.5 654.61,-159.5"/>
<polygon fill="midnightblue" stroke="midnightblue" points="680.14,-163 690.14,-159.5 680.14,-156 680.14,-163"/>
</g>
<!-- Node3 -->
<g id="node3" class="node">
<title>Node3</title>
<g id="a_node3"><a xlink:href="class_users_dialog.html#a70580643923a96208b6bbae18d4aa0f3" target="_top" xlink:title="UsersDialog::accept.">
<polygon fill="none" stroke="black" points="369.93,-283.5 369.93,-301.5 475.41,-301.5 475.41,-283.5 369.93,-283.5"/>
<text text-anchor="middle" x="422.67" y="-289.5" font-family="Helvetica,sans-Serif" font-size="10.00">UsersDialog::accept</text>
</a>
</g>
</g>
<!-- Node2&#45;&gt;Node3 -->
<g id="edge2" class="edge">
<title>Node2&#45;&gt;Node3</title>
<path fill="none" stroke="midnightblue" d="M578.41,-177.27C561.81,-201.17 529.25,-243.55 491.81,-268.5 482.2,-274.9 470.7,-279.8 459.91,-283.45"/>
<polygon fill="midnightblue" stroke="midnightblue" points="581.43,-179.05 584.15,-168.81 575.63,-175.12 581.43,-179.05"/>
</g>
<!-- Node4 -->
<g id="node4" class="node">
<title>Node4</title>
<g id="a_node4"><a xlink:href="class_users_dialog.html#a7a3d75a01a48609ce7571cec09b95f07" target="_top" xlink:title="UsersDialog::UsersDialog basic constructor.">
<polygon fill="none" stroke="black" points="179.54,-264.5 179.54,-282.5 310.03,-282.5 310.03,-264.5 179.54,-264.5"/>
<text text-anchor="middle" x="244.79" y="-270.5" font-family="Helvetica,sans-Serif" font-size="10.00">UsersDialog::UsersDialog</text>
</a>
</g>
</g>
<!-- Node2&#45;&gt;Node4 -->
<g id="edge13" class="edge">
<title>Node2&#45;&gt;Node4</title>
<path fill="none" stroke="midnightblue" d="M574.28,-175.95C556.14,-193.73 524.64,-221.4 491.81,-235.5 433.53,-260.53 361.22,-269.35 310.12,-272.32"/>
<polygon fill="midnightblue" stroke="midnightblue" points="577.06,-178.12 581.64,-168.57 572.1,-173.18 577.06,-178.12"/>
</g>
<!-- Node5 -->
<g id="node5" class="node">
<title>Node5</title>
<g id="a_node5"><a xlink:href="class_main_window.html#aeb8091ab5531144b76c1fbb0d63deb56" target="_top" xlink:title="MainWindow::config pops up the configuration screen and handles all inter&#45;window communication.">
<polygon fill="none" stroke="black" points="369.93,-207.5 369.93,-225.5 475.41,-225.5 475.41,-207.5 369.93,-207.5"/>
<text text-anchor="middle" x="422.67" y="-213.5" font-family="Helvetica,sans-Serif" font-size="10.00">MainWindow::config</text>
</a>
</g>
</g>
<!-- Node2&#45;&gt;Node5 -->
<g id="edge4" class="edge">
<title>Node2&#45;&gt;Node5</title>
<path fill="none" stroke="midnightblue" d="M554.09,-171.84C522.83,-182.54 478.29,-197.79 450.19,-207.42"/>
<polygon fill="midnightblue" stroke="midnightblue" points="555.41,-175.08 563.74,-168.53 553.14,-168.46 555.41,-175.08"/>
</g>
<!-- Node7 -->
<g id="node7" class="node">
<title>Node7</title>
<g id="a_node7"><a xlink:href="class_main_window.html#a52e97245b2f88492071e639395c4a15a" target="_top" xlink:title="MainWindow::MainWindow handles all of the main functionality and also the main window.">
<polygon fill="none" stroke="black" points="0,-188.5 0,-206.5 136.04,-206.5 136.04,-188.5 0,-188.5"/>
<text text-anchor="middle" x="68.02" y="-194.5" font-family="Helvetica,sans-Serif" font-size="10.00">MainWindow::MainWindow</text>
</a>
</g>
</g>
<!-- Node2&#45;&gt;Node7 -->
<g id="edge8" class="edge">
<title>Node2&#45;&gt;Node7</title>
<path fill="none" stroke="midnightblue" d="M517.65,-164.78C416.57,-172.15 234.63,-185.42 136.37,-192.59"/>
<polygon fill="midnightblue" stroke="midnightblue" points="518.05,-168.26 527.77,-164.05 517.55,-161.28 518.05,-168.26"/>
</g>
<!-- Node8 -->
<g id="node8" class="node">
<title>Node8</title>
<g id="a_node8"><a xlink:href="class_store_model.html#a17f8db58298e985732d92a2e0e76b821" target="_top" xlink:title="StoreModel::dropMimeData.">
<polygon fill="none" stroke="black" points="353.53,-131.5 353.53,-149.5 491.81,-149.5 491.81,-131.5 353.53,-131.5"/>
<text text-anchor="middle" x="422.67" y="-137.5" font-family="Helvetica,sans-Serif" font-size="10.00">StoreModel::dropMimeData</text>
</a>
</g>
</g>
<!-- Node2&#45;&gt;Node8 -->
<g id="edge7" class="edge">
<title>Node2&#45;&gt;Node8</title>
<path fill="none" stroke="midnightblue" d="M517.46,-151.21C509.02,-150.24 500.43,-149.26 492.05,-148.31"/>
<polygon fill="midnightblue" stroke="midnightblue" points="517.33,-154.71 527.66,-152.37 518.12,-147.76 517.33,-154.71"/>
</g>
<!-- Node9 -->
<g id="node9" class="node">
<title>Node9</title>
<g id="a_node9"><a xlink:href="class_main_window.html#adc7d4b2b210efab401f0b14641f80464" target="_top" xlink:title="MainWindow::on_treeView_clicked read the selected password file.">
<polygon fill="none" stroke="black" points="355.56,-84.5 355.56,-112.5 489.78,-112.5 489.78,-84.5 355.56,-84.5"/>
<text text-anchor="start" x="363.56" y="-100.5" font-family="Helvetica,sans-Serif" font-size="10.00">MainWindow::on_treeView</text>
<text text-anchor="middle" x="422.67" y="-90.5" font-family="Helvetica,sans-Serif" font-size="10.00">_clicked</text>
</a>
</g>
</g>
<!-- Node2&#45;&gt;Node9 -->
<g id="edge9" class="edge">
<title>Node2&#45;&gt;Node9</title>
<path fill="none" stroke="midnightblue" d="M558.12,-146.73C538.96,-139.18 514.08,-129.56 491.81,-121.5 483.59,-118.53 474.77,-115.46 466.29,-112.57"/>
<polygon fill="midnightblue" stroke="midnightblue" points="556.98,-150.04 567.57,-150.47 559.56,-143.53 556.98,-150.04"/>
</g>
<!-- Node11 -->
<g id="node11" class="node">
<title>Node11</title>
<g id="a_node11"><a xlink:href="class_main_window.html#a6961588ebf3c0640200e0cfa920af3be" target="_top" xlink:title="MainWindow::onPush do a git push.">
<polygon fill="none" stroke="black" points="366.31,-47.5 366.31,-65.5 479.03,-65.5 479.03,-47.5 366.31,-47.5"/>
<text text-anchor="middle" x="422.67" y="-53.5" font-family="Helvetica,sans-Serif" font-size="10.00">MainWindow::onPush</text>
</a>
</g>
</g>
<!-- Node2&#45;&gt;Node11 -->
<g id="edge11" class="edge">
<title>Node2&#45;&gt;Node11</title>
<path fill="none" stroke="midnightblue" d="M575.41,-142.85C557.52,-123.59 525.5,-92.28 491.81,-74.5 484.88,-70.85 477.16,-67.89 469.47,-65.52"/>
<polygon fill="midnightblue" stroke="midnightblue" points="572.86,-145.24 582.18,-150.28 578.04,-140.53 572.86,-145.24"/>
</g>
<!-- Node12 -->
<g id="node12" class="node">
<title>Node12</title>
<g id="a_node12"><a xlink:href="class_password_dialog.html#a859a78e62204698556204b9e20932010" target="_top" xlink:title="PasswordDialog::PasswordDialog basic constructor.">
<polygon fill="none" stroke="black" points="353.81,-0.5 353.81,-28.5 491.53,-28.5 491.53,-0.5 353.81,-0.5"/>
<text text-anchor="start" x="361.81" y="-16.5" font-family="Helvetica,sans-Serif" font-size="10.00">PasswordDialog::Password</text>
<text text-anchor="middle" x="422.67" y="-6.5" font-family="Helvetica,sans-Serif" font-size="10.00">Dialog</text>
</a>
</g>
</g>
<!-- Node2&#45;&gt;Node12 -->
<g id="edge12" class="edge">
<title>Node2&#45;&gt;Node12</title>
<path fill="none" stroke="midnightblue" d="M580.11,-141.43C564.57,-114.93 532.16,-65.65 491.81,-37.5 486.89,-34.07 481.42,-31.12 475.78,-28.59"/>
<polygon fill="midnightblue" stroke="midnightblue" points="577.22,-143.43 585.22,-150.37 583.3,-139.95 577.22,-143.43"/>
</g>
<!-- Node3&#45;&gt;Node4 -->
<g id="edge3" class="edge">
<title>Node3&#45;&gt;Node4</title>
<path fill="none" stroke="midnightblue" d="M359.57,-285.79C343.62,-284.07 326.42,-282.21 310.34,-280.47"/>
<polygon fill="midnightblue" stroke="midnightblue" points="359.53,-289.31 369.85,-286.9 360.28,-282.35 359.53,-289.31"/>
</g>
<!-- Node6 -->
<g id="node6" class="node">
<title>Node6</title>
<g id="a_node6"><a xlink:href="class_qt_pass.html#a49e2861160fdb8d614231933f60fac47" target="_top" xlink:title="QtPass::init make sure we are ready to go as soon as possible.">
<polygon fill="none" stroke="black" points="211.22,-207.5 211.22,-225.5 278.35,-225.5 278.35,-207.5 211.22,-207.5"/>
<text text-anchor="middle" x="244.79" y="-213.5" font-family="Helvetica,sans-Serif" font-size="10.00">QtPass::init</text>
</a>
</g>
</g>
<!-- Node5&#45;&gt;Node6 -->
<g id="edge5" class="edge">
<title>Node5&#45;&gt;Node6</title>
<path fill="none" stroke="midnightblue" d="M359.56,-216.5C332.2,-216.5 301.16,-216.5 278.43,-216.5"/>
<polygon fill="midnightblue" stroke="midnightblue" points="359.85,-220 369.85,-216.5 359.85,-213 359.85,-220"/>
</g>
<!-- Node6&#45;&gt;Node7 -->
<g id="edge6" class="edge">
<title>Node6&#45;&gt;Node7</title>
<path fill="none" stroke="midnightblue" d="M200.83,-211.83C181.35,-209.71 157.85,-207.16 136.13,-204.8"/>
<polygon fill="midnightblue" stroke="midnightblue" points="200.59,-215.32 210.91,-212.93 201.35,-208.37 200.59,-215.32"/>
</g>
<!-- Node10 -->
<g id="node10" class="node">
<title>Node10</title>
<g id="a_node10"><a xlink:href="class_main_window.html#a9c4f542263838b9ecd06eae839a42a34" target="_top" xlink:title="MainWindow::keyPressEvent did anyone press return, enter or escape?">
<polygon fill="none" stroke="black" points="172.04,-89.5 172.04,-107.5 317.53,-107.5 317.53,-89.5 172.04,-89.5"/>
<text text-anchor="middle" x="244.79" y="-95.5" font-family="Helvetica,sans-Serif" font-size="10.00">MainWindow::keyPressEvent</text>
</a>
</g>
</g>
<!-- Node9&#45;&gt;Node10 -->
<g id="edge10" class="edge">
<title>Node9&#45;&gt;Node10</title>
<path fill="none" stroke="midnightblue" d="M345.17,-98.5C336,-98.5 326.66,-98.5 317.56,-98.5"/>
<polygon fill="midnightblue" stroke="midnightblue" points="345.43,-102 355.43,-98.5 345.43,-95 345.43,-102"/>
</g>
</g>
</svg>
        <g id="navigator" transform="translate(0 0)" fill="#404254">
                <rect fill="#f2f5e9" fill-opacity="0.5" stroke="#606060" stroke-width=".5" x="0" y="0" width="60" height="60"/>
                <use id="zoomplus" xlink:href="#zoomPlus" x="17" y="9" onmousedown="handleZoom(evt,'in')"/>
                <use id="zoomminus" xlink:href="#zoomMin" x="42" y="9" onmousedown="handleZoom(evt,'out')"/>
                <use id="reset" xlink:href="#resetDef" x="30" y="36" onmousedown="handleReset()"/>
                <g id="arrowUp" xlink:href="#dirArrow" transform="translate(30 24)" onmousedown="handlePan(0,-1)">
                  <use xlink:href="#rim" fill="#404040">
                        <set attributeName="fill" to="#808080" begin="arrowUp.mouseover" end="arrowUp.mouseout"/>
                  </use>
                  <path fill="none" stroke="white" stroke-width="1.5" d="M0,-3.0v7 M-2.5,-0.5L0,-3.0L2.5,-0.5"/>
                </g>
                <g id="arrowRight" xlink:href="#dirArrow" transform="rotate(90) translate(36 -43)" onmousedown="handlePan(1,0)">
                  <use xlink:href="#rim" fill="#404040">
                        <set attributeName="fill" to="#808080" begin="arrowRight.mouseover" end="arrowRight.mouseout"/>
                  </use>
                  <path fill="none" stroke="white" stroke-width="1.5" d="M0,-3.0v7 M-2.5,-0.5L0,-3.0L2.5,-0.5"/>
                </g>
                <g id="arrowDown" xlink:href="#dirArrow" transform="rotate(180) translate(-30 -48)" onmousedown="handlePan(0,1)">
                  <use xlink:href="#rim" fill="#404040">
                        <set attributeName="fill" to="#808080" begin="arrowDown.mouseover" end="arrowDown.mouseout"/>
                  </use>
                  <path fill="none" stroke="white" stroke-width="1.5" d="M0,-3.0v7 M-2.5,-0.5L0,-3.0L2.5,-0.5"/>
                </g>
                <g id="arrowLeft" xlink:href="#dirArrow" transform="rotate(270) translate(-36 17)" onmousedown="handlePan(-1,0)">
                  <use xlink:href="#rim" fill="#404040">
                        <set attributeName="fill" to="#808080" begin="arrowLeft.mouseover" end="arrowLeft.mouseout"/>
                  </use>
                  <path fill="none" stroke="white" stroke-width="1.5" d="M0,-3.0v7 M-2.5,-0.5L0,-3.0L2.5,-0.5"/>
                </g>
        </g>
        <svg viewBox="0 0 15 15" width="100%" height="30px" preserveAspectRatio="xMaxYMin meet">
         <g id="arrow_out" transform="scale(0.3 0.3)">
          <a xlink:href="class_pass_a012c47a55b3cc3467ad0f013716f623a_icgraph_org.svg" target="_base">
           <rect id="button" ry="5" rx="5" y="6" x="6" height="38" width="38"
                fill="#f2f5e9" fill-opacity="0.5" stroke="#606060" stroke-width="1.0"/>
           <path id="arrow"
             d="M 11.500037,31.436501 C 11.940474,20.09759 22.043105,11.32322 32.158766,21.979434 L 37.068811,17.246167 C 37.068811,17.246167 37.088388,32 37.088388,32 L 22.160133,31.978069 C 22.160133,31.978069 26.997745,27.140456 26.997745,27.140456 C 18.528582,18.264221 13.291696,25.230495 11.500037,31.436501 z"
             style="fill:#404040;"/>
          </a>
         </g>
        </svg>
</svg>
