<?xml version="1.0" encoding="UTF-8" standalone="no"?>
<!DOCTYPE svg PUBLIC "-//W3C//DTD SVG 1.1//EN"
 "http://www.w3.org/Graphics/SVG/1.1/DTD/svg11.dtd">
<!-- Generated by graphviz version 2.49.3 (0)
 -->
<!-- Title: StoreModel::dropMimeData Pages: 1 -->
<svg width="892pt" height="195pt"
 viewBox="0.00 0.00 892.00 195.00" xmlns="http://www.w3.org/2000/svg" xmlns:xlink="http://www.w3.org/1999/xlink">
<g id="graph0" class="graph" transform="scale(1 1) rotate(0) translate(4 191)">
<title>StoreModel::dropMimeData</title>
<!-- Node1 -->
<g id="node1" class="node">
<title>Node1</title>
<g id="a_node1"><a xlink:title="StoreModel::dropMimeData.">
<polygon fill="#999999" stroke="#666666" points="136,-111 0,-111 0,-92 136,-92 136,-111"/>
<text text-anchor="middle" x="68" y="-99" font-family="Helvetica,sans-Serif" font-size="10.00">StoreModel::dropMimeData</text>
</a>
</g>
</g>
<!-- Node2 -->
<g id="node2" class="node">
<title>Node2</title>
<g id="a_node2"><a xlink:href="class_store_model.html#ab3a68c8664ef7d2257ce070de8937a85" target="_top" xlink:title="StoreModel::canDropMimeData.">
<polygon fill="white" stroke="#666666" points="326,-187 172,-187 172,-168 326,-168 326,-187"/>
<text text-anchor="middle" x="249" y="-175" font-family="Helvetica,sans-Serif" font-size="10.00">StoreModel::canDropMimeData</text>
</a>
</g>
</g>
<!-- Node1&#45;&gt;Node2 -->
<g id="edge1" class="edge">
<title>Node1&#45;&gt;Node2</title>
<path fill="none" stroke="#63b8ff" d="M85.74,-111.01C105.8,-122.16 140.65,-140.73 172,-153.5 182.1,-157.61 193.18,-161.47 203.69,-164.83"/>
<polygon fill="#63b8ff" stroke="#63b8ff" points="202.94,-168.27 213.53,-167.9 205.03,-161.59 202.94,-168.27"/>
</g>
<!-- Node3 -->
<g id="node3" class="node">
<title>Node3</title>
<g id="a_node3"><a xlink:href="class_store_model.html#ae1cc4a6bda22ddf67e59f01642dd2ed3" target="_top" xlink:title="StoreModel::data don&#39;t show the .gpg at the end of a file.">
<polygon fill="white" stroke="#666666" points="486.5,-168 395.5,-168 395.5,-149 486.5,-149 486.5,-168"/>
<text text-anchor="middle" x="441" y="-156" font-family="Helvetica,sans-Serif" font-size="10.00">StoreModel::data</text>
</a>
</g>
</g>
<!-- Node1&#45;&gt;Node3 -->
<g id="edge5" class="edge">
<title>Node1&#45;&gt;Node3</title>
<path fill="none" stroke="#63b8ff" d="M118.18,-111C135.2,-114.18 154.41,-117.63 172,-120.5 245.64,-132.51 331.02,-144.24 385.25,-151.42"/>
<polygon fill="#63b8ff" stroke="#63b8ff" points="384.97,-154.91 395.34,-152.75 385.88,-147.97 384.97,-154.91"/>
</g>
<!-- Node5 -->
<g id="node5" class="node">
<title>Node5</title>
<g id="a_node5"><a xlink:href="class_pass.html#a1a41ce3d629b20902e9d14ff285c1f49" target="_top" xlink:title=" ">
<polygon fill="white" stroke="#666666" points="283,-111 215,-111 215,-92 283,-92 283,-111"/>
<text text-anchor="middle" x="249" y="-99" font-family="Helvetica,sans-Serif" font-size="10.00">Pass::Copy</text>
</a>
</g>
</g>
<!-- Node1&#45;&gt;Node5 -->
<g id="edge4" class="edge">
<title>Node1&#45;&gt;Node5</title>
<path fill="none" stroke="#63b8ff" d="M136.16,-101.5C158.97,-101.5 183.85,-101.5 204.34,-101.5"/>
<polygon fill="#63b8ff" stroke="#63b8ff" points="204.62,-105 214.62,-101.5 204.62,-98 204.62,-105"/>
</g>
<!-- Node6 -->
<g id="node6" class="node">
<title>Node6</title>
<g id="a_node6"><a xlink:href="class_qt_pass_settings.html#a987e913eac7cd497e2fca27426494a64" target="_top" xlink:title=" ">
<polygon fill="white" stroke="#666666" points="313,-74 185,-74 185,-55 313,-55 313,-74"/>
<text text-anchor="middle" x="249" y="-62" font-family="Helvetica,sans-Serif" font-size="10.00">QtPassSettings::getPass</text>
</a>
</g>
</g>
<!-- Node1&#45;&gt;Node6 -->
<g id="edge6" class="edge">
<title>Node1&#45;&gt;Node6</title>
<path fill="none" stroke="#63b8ff" d="M115.1,-91.97C138.5,-87.14 167.12,-81.22 191.8,-76.12"/>
<polygon fill="#63b8ff" stroke="#63b8ff" points="192.66,-79.51 201.75,-74.06 191.25,-72.66 192.66,-79.51"/>
</g>
<!-- Node13 -->
<g id="node13" class="node">
<title>Node13</title>
<g id="a_node13"><a xlink:href="class_pass.html#ab9dde6644865bd583dc09a52d17ffb49" target="_top" xlink:title=" ">
<polygon fill="white" stroke="#666666" points="283,-37 215,-37 215,-18 283,-18 283,-37"/>
<text text-anchor="middle" x="249" y="-25" font-family="Helvetica,sans-Serif" font-size="10.00">Pass::Move</text>
</a>
</g>
</g>
<!-- Node1&#45;&gt;Node13 -->
<g id="edge14" class="edge">
<title>Node1&#45;&gt;Node13</title>
<path fill="none" stroke="#63b8ff" d="M84.14,-91.88C103.74,-79.79 139.27,-59.11 172,-46.5 182.49,-42.46 194.14,-39.04 205.09,-36.28"/>
<polygon fill="#63b8ff" stroke="#63b8ff" points="206.01,-39.66 214.91,-33.91 204.37,-32.85 206.01,-39.66"/>
</g>
<!-- Node2&#45;&gt;Node3 -->
<g id="edge2" class="edge">
<title>Node2&#45;&gt;Node3</title>
<path fill="none" stroke="#63b8ff" d="M326.19,-169.88C345.96,-167.9 366.87,-165.81 385.29,-163.97"/>
<polygon fill="#63b8ff" stroke="#63b8ff" points="385.65,-167.45 395.25,-162.98 384.95,-160.49 385.65,-167.45"/>
</g>
<!-- Node4 -->
<g id="node4" class="node">
<title>Node4</title>
<g id="a_node4"><a xlink:href="class_util.html#a892e27681ac865836bbc1639728fae64" target="_top" xlink:title=" ">
<polygon fill="white" stroke="#666666" points="679,-168 582,-168 582,-149 679,-149 679,-168"/>
<text text-anchor="middle" x="630.5" y="-156" font-family="Helvetica,sans-Serif" font-size="10.00">Util::endsWithGpg</text>
</a>
</g>
</g>
<!-- Node3&#45;&gt;Node4 -->
<g id="edge3" class="edge">
<title>Node3&#45;&gt;Node4</title>
<path fill="none" stroke="#63b8ff" d="M486.91,-158.5C512.27,-158.5 544.25,-158.5 571.49,-158.5"/>
<polygon fill="#63b8ff" stroke="#63b8ff" points="571.68,-162 581.68,-158.5 571.68,-155 571.68,-162"/>
</g>
<!-- Node7 -->
<g id="node7" class="node">
<title>Node7</title>
<g id="a_node7"><a xlink:href="class_qt_pass_settings.html#a2d6c10abe565eaadb5a222501adfe31f" target="_top" xlink:title=" ">
<polygon fill="white" stroke="#666666" points="520,-130 362,-130 362,-111 520,-111 520,-130"/>
<text text-anchor="middle" x="441" y="-118" font-family="Helvetica,sans-Serif" font-size="10.00">QtPassSettings::getImitatePass</text>
</a>
</g>
</g>
<!-- Node6&#45;&gt;Node7 -->
<g id="edge7" class="edge">
<title>Node6&#45;&gt;Node7</title>
<path fill="none" stroke="#63b8ff" d="M295.96,-74.1C306,-76.72 316.47,-79.86 326,-83.5 342.9,-89.96 345.04,-96.19 362,-102.5 367.81,-104.66 373.97,-106.62 380.17,-108.37"/>
<polygon fill="#63b8ff" stroke="#63b8ff" points="379.35,-111.78 389.92,-110.97 381.15,-105.01 379.35,-111.78"/>
</g>
<!-- Node8 -->
<g id="node8" class="node">
<title>Node8</title>
<g id="a_node8"><a xlink:href="class_qt_pass_settings.html#aaaeff5fa2e3a6b1f815b9a8247339b3a" target="_top" xlink:title=" ">
<polygon fill="white" stroke="#666666" points="514.5,-93 367.5,-93 367.5,-74 514.5,-74 514.5,-93"/>
<text text-anchor="middle" x="441" y="-81" font-family="Helvetica,sans-Serif" font-size="10.00">QtPassSettings::getRealPass</text>
</a>
</g>
</g>
<!-- Node6&#45;&gt;Node8 -->
<g id="edge8" class="edge">
<title>Node6&#45;&gt;Node8</title>
<path fill="none" stroke="#63b8ff" d="M313,-70.8C327.13,-72.21 342.33,-73.73 357.13,-75.21"/>
<polygon fill="#63b8ff" stroke="#63b8ff" points="357,-78.72 367.3,-76.23 357.7,-71.75 357,-78.72"/>
</g>
<!-- Node9 -->
<g id="node9" class="node">
<title>Node9</title>
<g id="a_node9"><a xlink:href="class_pass.html#a012c47a55b3cc3467ad0f013716f623a" target="_top" xlink:title=" ">
<polygon fill="white" stroke="#666666" points="470,-56 412,-56 412,-37 470,-37 470,-56"/>
<text text-anchor="middle" x="441" y="-44" font-family="Helvetica,sans-Serif" font-size="10.00">Pass::init</text>
</a>
</g>
</g>
<!-- Node6&#45;&gt;Node9 -->
<g id="edge9" class="edge">
<title>Node6&#45;&gt;Node9</title>
<path fill="none" stroke="#63b8ff" d="M313,-58.53C342.44,-55.74 376.51,-52.52 401.94,-50.11"/>
<polygon fill="#63b8ff" stroke="#63b8ff" points="402.31,-53.59 411.93,-49.16 401.65,-46.62 402.31,-53.59"/>
</g>
<!-- Node12 -->
<g id="node12" class="node">
<title>Node12</title>
<g id="a_node12"><a xlink:href="class_qt_pass_settings.html#a30ef36260f73f9f18d338f2b18a1f493" target="_top" xlink:title=" ">
<polygon fill="white" stroke="#666666" points="700.5,-19 560.5,-19 560.5,0 700.5,0 700.5,-19"/>
<text text-anchor="middle" x="630.5" y="-7" font-family="Helvetica,sans-Serif" font-size="10.00">QtPassSettings::isUsePass</text>
</a>
</g>
</g>
<!-- Node6&#45;&gt;Node12 -->
<g id="edge12" class="edge">
<title>Node6&#45;&gt;Node12</title>
<path fill="none" stroke="#63b8ff" d="M298.39,-54.98C307.68,-52.61 317.24,-49.79 326,-46.5 342.94,-40.14 344.6,-32.44 362,-27.5 423.52,-10.05 496.06,-6.14 550.07,-6.27"/>
<polygon fill="#63b8ff" stroke="#63b8ff" points="550.25,-9.77 560.27,-6.35 550.3,-2.77 550.25,-9.77"/>
</g>
<!-- Node10 -->
<g id="node10" class="node">
<title>Node10</title>
<g id="a_node10"><a xlink:href="class_qt_pass_settings.html#ae3f04477e57019e329ed9944806ec1da" target="_top" xlink:title=" ">
<polygon fill="white" stroke="#666666" points="705,-56 556,-56 556,-37 705,-37 705,-56"/>
<text text-anchor="middle" x="630.5" y="-44" font-family="Helvetica,sans-Serif" font-size="10.00">QtPassSettings::getGpgHome</text>
</a>
</g>
</g>
<!-- Node9&#45;&gt;Node10 -->
<g id="edge10" class="edge">
<title>Node9&#45;&gt;Node10</title>
<path fill="none" stroke="#63b8ff" d="M470.07,-46.5C490.18,-46.5 518.39,-46.5 545.51,-46.5"/>
<polygon fill="#63b8ff" stroke="#63b8ff" points="545.83,-50 555.83,-46.5 545.83,-43 545.83,-50"/>
</g>
<!-- Node11 -->
<g id="node11" class="node">
<title>Node11</title>
<g id="a_node11"><a xlink:href="class_qt_pass_settings.html#ab83659fdbfb9069942e6982076b4b934" target="_top" xlink:title=" ">
<polygon fill="white" stroke="#666666" points="884,-37 741,-37 741,-18 884,-18 884,-37"/>
<text text-anchor="middle" x="812.5" y="-25" font-family="Helvetica,sans-Serif" font-size="10.00">QtPassSettings::getInstance</text>
</a>
</g>
</g>
<!-- Node10&#45;&gt;Node11 -->
<g id="edge11" class="edge">
<title>Node10&#45;&gt;Node11</title>
<path fill="none" stroke="#63b8ff" d="M705.23,-38.72C713.58,-37.84 722.13,-36.93 730.57,-36.04"/>
<polygon fill="#63b8ff" stroke="#63b8ff" points="731.21,-39.49 740.79,-34.96 730.47,-32.53 731.21,-39.49"/>
</g>
<!-- Node12&#45;&gt;Node11 -->
<g id="edge13" class="edge">
<title>Node12&#45;&gt;Node11</title>
<path fill="none" stroke="#63b8ff" d="M700.58,-16.41C710.47,-17.4 720.71,-18.42 730.8,-19.43"/>
<polygon fill="#63b8ff" stroke="#63b8ff" points="730.52,-22.92 740.82,-20.43 731.22,-15.95 730.52,-22.92"/>
</g>
</g>
</svg>
