<?xml version="1.0" encoding="UTF-8" standalone="no"?>
<!DOCTYPE svg PUBLIC "-//W3C//DTD SVG 1.1//EN"
 "http://www.w3.org/Graphics/SVG/1.1/DTD/svg11.dtd">
<!-- Generated by graphviz version 2.40.1 (20161225.0304)
 -->
<!-- Title: QtPassSettings::setGitExecutable Pages: 1 -->
<!--zoomable 66 -->
<svg id="main" version="1.1" xmlns="http://www.w3.org/2000/svg" xmlns:xlink="http://www.w3.org/1999/xlink" xml:space="preserve" onload="init(evt)">
<style type="text/css"><![CDATA[
.edge:hover path { stroke: red; }
.edge:hover polygon { stroke: red; fill: red; }
]]></style>
<script type="text/javascript"><![CDATA[
var edges = document.getElementsByTagName('g');
if (edges && edges.length) {
  for (var i=0;i<edges.length;i++) {
    if (edges[i].id.substr(0,4)=='edge') {
      edges[i].setAttribute('class','edge');
    }
  }
}
]]></script>
        <defs>
                <circle id="rim" cx="0" cy="0" r="7"/>
                <circle id="rim2" cx="0" cy="0" r="3.5"/>
                <g id="zoomPlus">
                        <use xlink:href="#rim" fill="#404040">
                                <set attributeName="fill" to="#808080" begin="zoomplus.mouseover" end="zoomplus.mouseout"/>
                        </use>
                        <path d="M-4,0h8M0,-4v8" fill="none" stroke="white" stroke-width="1.5" pointer-events="none"/>
                </g>
                <g id="zoomMin">
                        <use xlink:href="#rim" fill="#404040">
                                <set attributeName="fill" to="#808080" begin="zoomminus.mouseover" end="zoomminus.mouseout"/>
                        </use>
                        <path d="M-4,0h8" fill="none" stroke="white" stroke-width="1.5" pointer-events="none"/>
                </g>
                <g id="dirArrow">
                        <path fill="none" stroke="white" stroke-width="1.5" d="M0,-3.0v7 M-2.5,-0.5L0,-3.0L2.5,-0.5"/>
                </g>
               <g id="resetDef">
                       <use xlink:href="#rim2" fill="#404040">
                               <set attributeName="fill" to="#808080" begin="reset.mouseover" end="reset.mouseout"/>
                       </use>
               </g>
        </defs>

<script type="text/javascript">
var viewWidth = 644;
var viewHeight = 66;
var sectionId = 'dynsection-124';
</script>
<script xlink:href="svgpan.js"/>
<svg id="graph" class="graph">
<g id="viewport">
<title>QtPassSettings::setGitExecutable</title>
<!-- Node716 -->
<g id="node1" class="node">
<title>Node716</title>
<polygon fill="#bfbfbf" stroke="#000000" points="0,-19.5 0,-38.5 167,-38.5 167,-19.5 0,-19.5"/>
<text text-anchor="middle" x="83.5" y="-26.5" font-family="Helvetica,sans-Serif" font-size="10.00" fill="#000000">QtPassSettings::setGitExecutable</text>
</g>
<!-- Node717 -->
<g id="node2" class="node">
<title>Node717</title>
<g id="a_node2"><a xlink:href="class_config_dialog.html#a485badac4dffa04603f800bb9d396e1d" target="_top" xlink:title="ConfigDialog::~ConfigDialog config destructor, makes sure the mainWindow knows about git...">
<polygon fill="none" stroke="#000000" points="211.5,-38.5 211.5,-57.5 352.5,-57.5 352.5,-38.5 211.5,-38.5"/>
<text text-anchor="middle" x="282" y="-45.5" font-family="Helvetica,sans-Serif" font-size="10.00" fill="#000000">ConfigDialog::~ConfigDialog</text>
</a>
</g>
</g>
<!-- Node716&#45;&gt;Node717 -->
<g id="edge1" class="edge">
<title>Node716&#45;&gt;Node717</title>
<path fill="none" stroke="#191970" d="M177.1738,-37.9663C188.6766,-39.0673 200.2797,-40.1779 211.3624,-41.2387"/>
<polygon fill="#191970" stroke="#191970" points="177.3946,-34.4715 167.1066,-37.0026 176.7275,-41.4396 177.3946,-34.4715"/>
</g>
<!-- Node718 -->
<g id="node3" class="node">
<title>Node718</title>
<g id="a_node3"><a xlink:href="class_qt_pass_settings.html#a64ffdab0605be803054150d438254c56" target="_top" xlink:title="QtPassSettings::initExecutables">
<polygon fill="none" stroke="#000000" points="203,-.5 203,-19.5 361,-19.5 361,-.5 203,-.5"/>
<text text-anchor="middle" x="282" y="-7.5" font-family="Helvetica,sans-Serif" font-size="10.00" fill="#000000">QtPassSettings::initExecutables</text>
</a>
</g>
</g>
<!-- Node716&#45;&gt;Node718 -->
<g id="edge2" class="edge">
<title>Node716&#45;&gt;Node718</title>
<path fill="none" stroke="#191970" d="M177.1763,-20.0335C185.7894,-19.2091 194.4588,-18.3793 202.9237,-17.569"/>
<polygon fill="#191970" stroke="#191970" points="176.7275,-16.5604 167.1066,-20.9974 177.3946,-23.5285 176.7275,-16.5604"/>
</g>
<!-- Node719 -->
<g id="node4" class="node">
<title>Node719</title>
<g id="a_node4"><a xlink:href="class_qt_pass.html#a49e2861160fdb8d614231933f60fac47" target="_top" xlink:title="QtPass::init make sure we are ready to go as soon as possible. ">
<polygon fill="none" stroke="#000000" points="397,-.5 397,-19.5 465,-19.5 465,-.5 397,-.5"/>
<text text-anchor="middle" x="431" y="-7.5" font-family="Helvetica,sans-Serif" font-size="10.00" fill="#000000">QtPass::init</text>
</a>
</g>
</g>
<!-- Node718&#45;&gt;Node719 -->
<g id="edge3" class="edge">
<title>Node718&#45;&gt;Node719</title>
<path fill="none" stroke="#191970" d="M371.4911,-10C380.4313,-10 389.071,-10 396.866,-10"/>
<polygon fill="#191970" stroke="#191970" points="371.2988,-6.5001 361.2988,-10 371.2988,-13.5001 371.2988,-6.5001"/>
</g>
<!-- Node720 -->
<g id="node5" class="node">
<title>Node720</title>
<g id="a_node5"><a xlink:href="class_main_window.html#a52e97245b2f88492071e639395c4a15a" target="_top" xlink:title="MainWindow::MainWindow handles all of the main functionality and also the main window. ">
<polygon fill="none" stroke="#000000" points="501,-.5 501,-19.5 636,-19.5 636,-.5 501,-.5"/>
<text text-anchor="middle" x="568.5" y="-7.5" font-family="Helvetica,sans-Serif" font-size="10.00" fill="#000000">MainWindow::MainWindow</text>
</a>
</g>
</g>
<!-- Node719&#45;&gt;Node720 -->
<g id="edge4" class="edge">
<title>Node719&#45;&gt;Node720</title>
<path fill="none" stroke="#191970" d="M475.6126,-10C483.6815,-10 492.2586,-10 500.8137,-10"/>
<polygon fill="#191970" stroke="#191970" points="475.3424,-6.5001 465.3424,-10 475.3423,-13.5001 475.3424,-6.5001"/>
</g>
</g>
</svg>
        <g id="navigator" transform="translate(0 0)" fill="#404254">
                <rect fill="#f2f5e9" fill-opacity="0.5" stroke="#606060" stroke-width=".5" x="0" y="0" width="60" height="60"/>
                <use id="zoomplus" xlink:href="#zoomPlus" x="17" y="9" onmousedown="handleZoom(evt,'in')"/>
                <use id="zoomminus" xlink:href="#zoomMin" x="42" y="9" onmousedown="handleZoom(evt,'out')"/>
                <use id="reset" xlink:href="#resetDef" x="30" y="36" onmousedown="handleReset()"/>
                <g id="arrowUp" xlink:href="#dirArrow" transform="translate(30 24)" onmousedown="handlePan(0,-1)">
                  <use xlink:href="#rim" fill="#404040">
                        <set attributeName="fill" to="#808080" begin="arrowUp.mouseover" end="arrowUp.mouseout"/>
                  </use>
                  <path fill="none" stroke="white" stroke-width="1.5" d="M0,-3.0v7 M-2.5,-0.5L0,-3.0L2.5,-0.5"/>
                </g>
                <g id="arrowRight" xlink:href="#dirArrow" transform="rotate(90) translate(36 -43)" onmousedown="handlePan(1,0)">
                  <use xlink:href="#rim" fill="#404040">
                        <set attributeName="fill" to="#808080" begin="arrowRight.mouseover" end="arrowRight.mouseout"/>
                  </use>
                  <path fill="none" stroke="white" stroke-width="1.5" d="M0,-3.0v7 M-2.5,-0.5L0,-3.0L2.5,-0.5"/>
                </g>
                <g id="arrowDown" xlink:href="#dirArrow" transform="rotate(180) translate(-30 -48)" onmousedown="handlePan(0,1)">
                  <use xlink:href="#rim" fill="#404040">
                        <set attributeName="fill" to="#808080" begin="arrowDown.mouseover" end="arrowDown.mouseout"/>
                  </use>
                  <path fill="none" stroke="white" stroke-width="1.5" d="M0,-3.0v7 M-2.5,-0.5L0,-3.0L2.5,-0.5"/>
                </g>
                <g id="arrowLeft" xlink:href="#dirArrow" transform="rotate(270) translate(-36 17)" onmousedown="handlePan(-1,0)">
                  <use xlink:href="#rim" fill="#404040">
                        <set attributeName="fill" to="#808080" begin="arrowLeft.mouseover" end="arrowLeft.mouseout"/>
                  </use>
                  <path fill="none" stroke="white" stroke-width="1.5" d="M0,-3.0v7 M-2.5,-0.5L0,-3.0L2.5,-0.5"/>
                </g>
        </g>
        <svg viewBox="0 0 15 15" width="100%" height="30px" preserveAspectRatio="xMaxYMin meet">
         <g id="arrow_out" transform="scale(0.3 0.3)">
          <a xlink:href="class_qt_pass_settings_a423f05b95badd51857630009e9ce629f_icgraph_org.svg" target="_base">
           <rect id="button" ry="5" rx="5" y="6" x="6" height="38" width="38"
                fill="#f2f5e9" fill-opacity="0.5" stroke="#606060" stroke-width="1.0"/>
           <path id="arrow"
             d="M 11.500037,31.436501 C 11.940474,20.09759 22.043105,11.32322 32.158766,21.979434 L 37.068811,17.246167 C 37.068811,17.246167 37.088388,32 37.088388,32 L 22.160133,31.978069 C 22.160133,31.978069 26.997745,27.140456 26.997745,27.140456 C 18.528582,18.264221 13.291696,25.230495 11.500037,31.436501 z"
             style="fill:#404040;"/>
          </a>
         </g>
        </svg>
</svg>
