<?xml version="1.0" encoding="UTF-8" standalone="no"?>
<!DOCTYPE svg PUBLIC "-//W3C//DTD SVG 1.1//EN"
 "http://www.w3.org/Graphics/SVG/1.1/DTD/svg11.dtd">
<!-- Generated by graphviz version 2.44.1 (20200629.0846)
 -->
<!-- Title: ConfigDialog::~ConfigDialog Pages: 1 -->
<svg width="540pt" height="104pt"
 viewBox="0.00 0.00 540.00 104.00" xmlns="http://www.w3.org/2000/svg" xmlns:xlink="http://www.w3.org/1999/xlink">
<g id="graph0" class="graph" transform="scale(1 1) rotate(0) translate(4 100)">
<title>ConfigDialog::~ConfigDialog</title>
<!-- Node1 -->
<g id="node1" class="node">
<title>Node1</title>
<g id="a_node1"><a xlink:title="ConfigDialog::~ConfigDialog config destructor, makes sure the mainWindow knows about git,...">
<polygon fill="#bfbfbf" stroke="black" points="0,-38.5 0,-57.5 141,-57.5 141,-38.5 0,-38.5"/>
<text text-anchor="middle" x="70.5" y="-45.5" font-family="Helvetica,sans-Serif" font-size="10.00">ConfigDialog::~ConfigDialog</text>
</a>
</g>
</g>
<!-- Node2 -->
<g id="node2" class="node">
<title>Node2</title>
<g id="a_node2"><a xlink:href="class_qt_pass_settings.html#a423f05b95badd51857630009e9ce629f" target="_top" xlink:title=" ">
<polygon fill="none" stroke="black" points="181.5,-76.5 181.5,-95.5 348.5,-95.5 348.5,-76.5 181.5,-76.5"/>
<text text-anchor="middle" x="265" y="-83.5" font-family="Helvetica,sans-Serif" font-size="10.00">QtPassSettings::setGitExecutable</text>
</a>
</g>
</g>
<!-- Node1&#45;&gt;Node2 -->
<g id="edge1" class="edge">
<title>Node1&#45;&gt;Node2</title>
<path fill="none" stroke="midnightblue" d="M120.08,-57.59C146.16,-62.74 178.51,-69.12 205.92,-74.53"/>
<polygon fill="midnightblue" stroke="midnightblue" points="205.28,-77.98 215.77,-76.48 206.64,-71.11 205.28,-77.98"/>
</g>
<!-- Node4 -->
<g id="node4" class="node">
<title>Node4</title>
<g id="a_node4"><a xlink:href="class_qt_pass_settings.html#a875e260d3a73f82c0804a5c6b282d4ca" target="_top" xlink:title=" ">
<polygon fill="none" stroke="black" points="179,-38.5 179,-57.5 351,-57.5 351,-38.5 179,-38.5"/>
<text text-anchor="middle" x="265" y="-45.5" font-family="Helvetica,sans-Serif" font-size="10.00">QtPassSettings::setGpgExecutable</text>
</a>
</g>
</g>
<!-- Node1&#45;&gt;Node4 -->
<g id="edge3" class="edge">
<title>Node1&#45;&gt;Node4</title>
<path fill="none" stroke="midnightblue" d="M141.27,-48C150.2,-48 159.46,-48 168.7,-48"/>
<polygon fill="midnightblue" stroke="midnightblue" points="168.72,-51.5 178.72,-48 168.72,-44.5 168.72,-51.5"/>
</g>
<!-- Node5 -->
<g id="node5" class="node">
<title>Node5</title>
<g id="a_node5"><a xlink:href="class_qt_pass_settings.html#a0c04867f8f676925acdeb71fdb69e39f" target="_top" xlink:title=" ">
<polygon fill="none" stroke="black" points="177,-0.5 177,-19.5 353,-19.5 353,-0.5 177,-0.5"/>
<text text-anchor="middle" x="265" y="-7.5" font-family="Helvetica,sans-Serif" font-size="10.00">QtPassSettings::setPassExecutable</text>
</a>
</g>
</g>
<!-- Node1&#45;&gt;Node5 -->
<g id="edge5" class="edge">
<title>Node1&#45;&gt;Node5</title>
<path fill="none" stroke="midnightblue" d="M120.08,-38.41C146.16,-33.26 178.51,-26.88 205.92,-21.47"/>
<polygon fill="midnightblue" stroke="midnightblue" points="206.64,-24.89 215.77,-19.52 205.28,-18.02 206.64,-24.89"/>
</g>
<!-- Node3 -->
<g id="node3" class="node">
<title>Node3</title>
<g id="a_node3"><a xlink:href="class_qt_pass_settings.html#ab83659fdbfb9069942e6982076b4b934" target="_top" xlink:title=" ">
<polygon fill="none" stroke="black" points="389,-38.5 389,-57.5 532,-57.5 532,-38.5 389,-38.5"/>
<text text-anchor="middle" x="460.5" y="-45.5" font-family="Helvetica,sans-Serif" font-size="10.00">QtPassSettings::getInstance</text>
</a>
</g>
</g>
<!-- Node2&#45;&gt;Node3 -->
<g id="edge2" class="edge">
<title>Node2&#45;&gt;Node3</title>
<path fill="none" stroke="midnightblue" d="M314.83,-76.41C341.05,-71.26 373.56,-64.88 401.12,-59.47"/>
<polygon fill="midnightblue" stroke="midnightblue" points="401.88,-62.88 411.02,-57.52 400.54,-56.01 401.88,-62.88"/>
</g>
<!-- Node4&#45;&gt;Node3 -->
<g id="edge4" class="edge">
<title>Node4&#45;&gt;Node3</title>
<path fill="none" stroke="midnightblue" d="M351.15,-48C360.29,-48 369.56,-48 378.65,-48"/>
<polygon fill="midnightblue" stroke="midnightblue" points="378.8,-51.5 388.8,-48 378.8,-44.5 378.8,-51.5"/>
</g>
<!-- Node5&#45;&gt;Node3 -->
<g id="edge6" class="edge">
<title>Node5&#45;&gt;Node3</title>
<path fill="none" stroke="midnightblue" d="M314.83,-19.59C341.05,-24.74 373.56,-31.12 401.12,-36.53"/>
<polygon fill="midnightblue" stroke="midnightblue" points="400.54,-39.99 411.02,-38.48 401.88,-33.12 400.54,-39.99"/>
</g>
</g>
</svg>
