<?xml version="1.0" encoding="UTF-8" standalone="no"?>
<!DOCTYPE svg PUBLIC "-//W3C//DTD SVG 1.1//EN"
 "http://www.w3.org/Graphics/SVG/1.1/DTD/svg11.dtd">
<!-- Generated by graphviz version 2.40.1 (20161225.0304)
 -->
<!-- Title: QtPass::setClippedText Pages: 1 -->
<svg width="719pt" height="148pt"
 viewBox="0.00 0.00 719.16 148.00" xmlns="http://www.w3.org/2000/svg" xmlns:xlink="http://www.w3.org/1999/xlink">
<g id="graph0" class="graph" transform="scale(1 1) rotate(0) translate(4 144)">
<title>QtPass::setClippedText</title>
<!-- Node44 -->
<g id="node1" class="node">
<title>Node44</title>
<polygon fill="#bfbfbf" stroke="#000000" points="0,-73.5 0,-91.5 119.9355,-91.5 119.9355,-73.5 0,-73.5"/>
<text text-anchor="middle" x="59.9678" y="-79.5" font-family="Helvetica,sans-Serif" font-size="10.00" fill="#000000">QtPass::setClippedText</text>
</g>
<!-- Node45 -->
<g id="node2" class="node">
<title>Node45</title>
<g id="a_node2"><a xlink:href="class_qt_pass_settings.html#aa4b984b4d3e600542482b132c8e816bc" target="_top" xlink:title="QtPassSettings::getClipBoardType">
<polygon fill="none" stroke="#000000" points="155.9355,-104.5 155.9355,-122.5 325.9102,-122.5 325.9102,-104.5 155.9355,-104.5"/>
<text text-anchor="middle" x="240.9229" y="-110.5" font-family="Helvetica,sans-Serif" font-size="10.00" fill="#000000">QtPassSettings::getClipBoardType</text>
</a>
</g>
</g>
<!-- Node44&#45;&gt;Node45 -->
<g id="edge1" class="edge">
<title>Node44&#45;&gt;Node45</title>
<path fill="none" stroke="#191970" d="M112.7939,-91.5498C133.3269,-95.0674 157.0085,-99.1244 178.3836,-102.7862"/>
<polygon fill="#191970" stroke="#191970" points="177.8964,-106.2537 188.3439,-104.4925 179.0785,-99.3542 177.8964,-106.2537"/>
</g>
<!-- Node48 -->
<g id="node5" class="node">
<title>Node48</title>
<g id="a_node5"><a xlink:href="class_qt_pass.html#acba134fb5281aedee11899a03976aa95" target="_top" xlink:title="MainWindow::copyTextToClipboard copies text to your clipboard. ">
<polygon fill="none" stroke="#000000" points="167.3369,-55.5 167.3369,-73.5 314.5088,-73.5 314.5088,-55.5 167.3369,-55.5"/>
<text text-anchor="middle" x="240.9229" y="-61.5" font-family="Helvetica,sans-Serif" font-size="10.00" fill="#000000">QtPass::copyTextToClipboard</text>
</a>
</g>
</g>
<!-- Node44&#45;&gt;Node48 -->
<g id="edge4" class="edge">
<title>Node44&#45;&gt;Node48</title>
<path fill="none" stroke="#191970" d="M119.9718,-76.5313C131.9051,-75.3442 144.6391,-74.0776 157.1986,-72.8282"/>
<polygon fill="#191970" stroke="#191970" points="157.6106,-76.3046 167.215,-71.8319 156.9176,-69.339 157.6106,-76.3046"/>
</g>
<!-- Node46 -->
<g id="node3" class="node">
<title>Node46</title>
<g id="a_node3"><a xlink:href="class_qt_pass_settings.html#ab122639d09aca2dc270b73d5908dd021" target="_top" xlink:title="QtPassSettings::getClipBoard\lTypeRaw">
<polygon fill="none" stroke="#000000" points="373.2993,-111.5 373.2993,-139.5 521.5894,-139.5 521.5894,-111.5 373.2993,-111.5"/>
<text text-anchor="start" x="381.2993" y="-127.5" font-family="Helvetica,sans-Serif" font-size="10.00" fill="#000000">QtPassSettings::getClipBoard</text>
<text text-anchor="middle" x="447.4443" y="-117.5" font-family="Helvetica,sans-Serif" font-size="10.00" fill="#000000">TypeRaw</text>
</a>
</g>
</g>
<!-- Node45&#45;&gt;Node46 -->
<g id="edge2" class="edge">
<title>Node45&#45;&gt;Node46</title>
<path fill="none" stroke="#191970" d="M326.1154,-118.4501C338.2681,-119.1563 350.7655,-119.8824 362.9056,-120.5878"/>
<polygon fill="#191970" stroke="#191970" points="362.8177,-124.0886 373.0039,-121.1746 363.2238,-117.1003 362.8177,-124.0886"/>
</g>
<!-- Node47 -->
<g id="node4" class="node">
<title>Node47</title>
<g id="a_node4"><a xlink:href="class_qt_pass_settings.html#ab83659fdbfb9069942e6982076b4b934" target="_top" xlink:title="QtPassSettings::getInstance">
<polygon fill="none" stroke="#000000" points="568.9785,-74.5 568.9785,-92.5 711.1602,-92.5 711.1602,-74.5 568.9785,-74.5"/>
<text text-anchor="middle" x="640.0693" y="-80.5" font-family="Helvetica,sans-Serif" font-size="10.00" fill="#000000">QtPassSettings::getInstance</text>
</a>
</g>
</g>
<!-- Node46&#45;&gt;Node47 -->
<g id="edge3" class="edge">
<title>Node46&#45;&gt;Node47</title>
<path fill="none" stroke="#191970" d="M511.8535,-111.4562C536.9266,-105.9893 565.2517,-99.8133 588.8899,-94.6592"/>
<polygon fill="#191970" stroke="#191970" points="589.6856,-98.068 598.7104,-92.5179 588.1943,-91.2287 589.6856,-98.068"/>
</g>
<!-- Node49 -->
<g id="node6" class="node">
<title>Node49</title>
<g id="a_node6"><a xlink:href="class_qt_pass_settings.html#afc90db0b809b9759a66f3a667184a7f2" target="_top" xlink:title="QtPassSettings::isUseSelection">
<polygon fill="none" stroke="#000000" points="369.1343,-74.5 369.1343,-92.5 525.7544,-92.5 525.7544,-74.5 369.1343,-74.5"/>
<text text-anchor="middle" x="447.4443" y="-80.5" font-family="Helvetica,sans-Serif" font-size="10.00" fill="#000000">QtPassSettings::isUseSelection</text>
</a>
</g>
</g>
<!-- Node48&#45;&gt;Node49 -->
<g id="edge5" class="edge">
<title>Node48&#45;&gt;Node49</title>
<path fill="none" stroke="#191970" d="M314.6072,-71.279C328.9134,-72.5951 344.0468,-73.9874 358.776,-75.3425"/>
<polygon fill="#191970" stroke="#191970" points="358.6148,-78.8424 368.8934,-76.2733 359.2561,-71.8718 358.6148,-78.8424"/>
</g>
<!-- Node50 -->
<g id="node7" class="node">
<title>Node50</title>
<g id="a_node7"><a xlink:href="class_main_window.html#a3c11bd64b8c0a631a9f8cd9ec77fe68c" target="_top" xlink:title="Displays message in status bar. ">
<polygon fill="none" stroke="#000000" points="361.9102,-37.5 361.9102,-55.5 532.9785,-55.5 532.9785,-37.5 361.9102,-37.5"/>
<text text-anchor="middle" x="447.4443" y="-43.5" font-family="Helvetica,sans-Serif" font-size="10.00" fill="#000000">MainWindow::showStatusMessage</text>
</a>
</g>
</g>
<!-- Node48&#45;&gt;Node50 -->
<g id="edge7" class="edge">
<title>Node48&#45;&gt;Node50</title>
<path fill="none" stroke="#191970" d="M314.6072,-58.0778C326.6726,-57.0262 339.3264,-55.9233 351.8299,-54.8336"/>
<polygon fill="#191970" stroke="#191970" points="352.1528,-58.3188 361.8111,-53.9636 351.5449,-51.3452 352.1528,-58.3188"/>
</g>
<!-- Node51 -->
<g id="node8" class="node">
<title>Node51</title>
<g id="a_node8"><a xlink:href="class_qt_pass_settings.html#ae105a118fa69c7c5bdf506355d20ffae" target="_top" xlink:title="QtPassSettings::isUseAutoclear">
<polygon fill="none" stroke="#000000" points="368.5801,-.5 368.5801,-18.5 526.3086,-18.5 526.3086,-.5 368.5801,-.5"/>
<text text-anchor="middle" x="447.4443" y="-6.5" font-family="Helvetica,sans-Serif" font-size="10.00" fill="#000000">QtPassSettings::isUseAutoclear</text>
</a>
</g>
</g>
<!-- Node48&#45;&gt;Node51 -->
<g id="edge8" class="edge">
<title>Node48&#45;&gt;Node51</title>
<path fill="none" stroke="#191970" d="M269.1217,-55.4942C293.5417,-47.8433 329.8796,-36.8118 361.9102,-28.5 372.1755,-25.8362 383.1935,-23.2141 393.7928,-20.8085"/>
<polygon fill="#191970" stroke="#191970" points="394.7929,-24.1715 403.7885,-18.5743 393.2658,-17.34 394.7929,-24.1715"/>
</g>
<!-- Node49&#45;&gt;Node47 -->
<g id="edge6" class="edge">
<title>Node49&#45;&gt;Node47</title>
<path fill="none" stroke="#191970" d="M525.7923,-83.5C536.6061,-83.5 547.7331,-83.5 558.6018,-83.5"/>
<polygon fill="#191970" stroke="#191970" points="558.9244,-87.0001 568.9244,-83.5 558.9243,-80.0001 558.9244,-87.0001"/>
</g>
<!-- Node51&#45;&gt;Node47 -->
<g id="edge9" class="edge">
<title>Node51&#45;&gt;Node47</title>
<path fill="none" stroke="#191970" d="M498.2604,-18.5426C509.8341,-21.2181 521.9618,-24.522 532.9785,-28.5 563.1174,-39.3828 595.5659,-56.9567 616.7481,-69.3041"/>
<polygon fill="#191970" stroke="#191970" points="614.979,-72.3242 625.3678,-74.4038 618.5434,-66.2996 614.979,-72.3242"/>
</g>
</g>
</svg>
