<?xml version="1.0" encoding="UTF-8" standalone="no"?>
<!DOCTYPE svg PUBLIC "-//W3C//DTD SVG 1.1//EN"
 "http://www.w3.org/Graphics/SVG/1.1/DTD/svg11.dtd">
<!-- Generated by graphviz version 2.38.0 (20140413.2041)
 -->
<!-- Title: ImitatePass::~ImitatePass Pages: 1 -->
<!--zoomable 700 -->
<svg id="main" version="1.1" xmlns="http://www.w3.org/2000/svg" xmlns:xlink="http://www.w3.org/1999/xlink" xml:space="preserve" onload="init(evt)">
<style type="text/css"><![CDATA[
.edge:hover path { stroke: red; }
.edge:hover polygon { stroke: red; fill: red; }
]]></style>
<script type="text/javascript"><![CDATA[
var edges = document.getElementsByTagName('g');
if (edges && edges.length) {
  for (var i=0;i<edges.length;i++) {
    if (edges[i].id.substr(0,4)=='edge') {
      edges[i].setAttribute('class','edge');
    }
  }
}
]]></script>
        <defs>
                <circle id="rim" cx="0" cy="0" r="7"/>
                <circle id="rim2" cx="0" cy="0" r="3.5"/>
                <g id="zoomPlus">
                        <use xlink:href="#rim" fill="#404040">
                                <set attributeName="fill" to="#808080" begin="zoomplus.mouseover" end="zoomplus.mouseout"/>
                        </use>
                        <path d="M-4,0h8M0,-4v8" fill="none" stroke="white" stroke-width="1.5" pointer-events="none"/>
                </g>
                <g id="zoomMin">
                        <use xlink:href="#rim" fill="#404040">
                                <set attributeName="fill" to="#808080" begin="zoomminus.mouseover" end="zoomminus.mouseout"/>
                        </use>
                        <path d="M-4,0h8" fill="none" stroke="white" stroke-width="1.5" pointer-events="none"/>
                </g>
                <g id="dirArrow">
                        <path fill="none" stroke="white" stroke-width="1.5" d="M0,-3.0v7 M-2.5,-0.5L0,-3.0L2.5,-0.5"/>
                </g>
               <g id="resetDef">
                       <use xlink:href="#rim2" fill="#404040">
                               <set attributeName="fill" to="#808080" begin="reset.mouseover" end="reset.mouseout"/>
                       </use>
               </g>
        </defs>

<script type="text/javascript">
var viewWidth = 873;
var viewHeight = 700;
var sectionId = 'dynsection-3';
</script>
<script xlink:href="svgpan.js"/>
<svg id="graph" class="graph">
<g id="viewport">
<title>ImitatePass::~ImitatePass</title>
<!-- Node4 -->
<g id="node1" class="node"><title>Node4</title>
<polygon fill="#bfbfbf" stroke="black" points="0,-456.67 0,-474.67 131.879,-474.67 131.879,-456.67 0,-456.67"/>
<text text-anchor="middle" x="65.9395" y="-462.67" font-family="Helvetica,sans-Serif" font-size="10.00">ImitatePass::~ImitatePass</text>
</g>
<!-- Node5 -->
<g id="node2" class="node"><title>Node5</title>
<g id="a_node2"><a xlink:href="class_imitate_pass.html#a2bb2e83ad96efa7c111df54230e237bb" target="_top" xlink:title="ImitatePass::GitInit git init wrapper. ">
<polygon fill="none" stroke="black" points="525.609,-31.6701 525.609,-49.6701 625.525,-49.6701 625.525,-31.6701 525.609,-31.6701"/>
<text text-anchor="middle" x="575.567" y="-37.6701" font-family="Helvetica,sans-Serif" font-size="10.00">ImitatePass::GitInit</text>
</a>
</g>
</g>
<!-- Node4&#45;&gt;Node5 -->
<g id="edge1" class="edge"><title>Node4&#45;&gt;Node5</title>
<path fill="none" stroke="midnightblue" d="M67.4671,-456.406C70.2273,-416.057 86.1984,-253.444 167.879,-158.67 255.686,-56.7871 425.694,-40.2598 515.57,-39.1236"/>
<polygon fill="midnightblue" stroke="midnightblue" points="515.618,-42.6234 525.595,-39.0568 515.572,-35.6236 515.618,-42.6234"/>
</g>
<!-- Node8 -->
<g id="node5" class="node"><title>Node8</title>
<g id="a_node5"><a xlink:href="class_imitate_pass.html#ab9f0103079ee01a263b70b95cd4aeced" target="_top" xlink:title="ImitatePass::GitPull git init wrapper. ">
<polygon fill="none" stroke="black" points="167.879,-607.67 167.879,-625.67 271.13,-625.67 271.13,-607.67 167.879,-607.67"/>
<text text-anchor="middle" x="219.504" y="-613.67" font-family="Helvetica,sans-Serif" font-size="10.00">ImitatePass::GitPull</text>
</a>
</g>
</g>
<!-- Node4&#45;&gt;Node8 -->
<g id="edge4" class="edge"><title>Node4&#45;&gt;Node8</title>
<path fill="none" stroke="midnightblue" d="M71.5257,-474.756C83.8773,-498.362 120.158,-562.251 167.879,-597.67 170.677,-599.747 173.729,-601.621 176.901,-603.308"/>
<polygon fill="midnightblue" stroke="midnightblue" points="175.51,-606.521 186.052,-607.577 178.469,-600.177 175.51,-606.521"/>
</g>
<!-- Node9 -->
<g id="node6" class="node"><title>Node9</title>
<g id="a_node6"><a xlink:href="class_imitate_pass.html#a5713b5c223fd522d0790debaa33cfbc2" target="_top" xlink:title="ImitatePass::GitPull_b git pull wrapper. ">
<polygon fill="none" stroke="black" points="518.38,-560.67 518.38,-578.67 632.754,-578.67 632.754,-560.67 518.38,-560.67"/>
<text text-anchor="middle" x="575.567" y="-566.67" font-family="Helvetica,sans-Serif" font-size="10.00">ImitatePass::GitPull_b</text>
</a>
</g>
</g>
<!-- Node4&#45;&gt;Node9 -->
<g id="edge6" class="edge"><title>Node4&#45;&gt;Node9</title>
<path fill="none" stroke="midnightblue" d="M105.71,-474.766C124.462,-479.098 147.313,-484.28 167.879,-488.67 291.86,-515.137 437.705,-543.518 516.672,-558.657"/>
<polygon fill="midnightblue" stroke="midnightblue" points="516.416,-562.172 526.896,-560.615 517.733,-555.297 516.416,-562.172"/>
</g>
<!-- Node11 -->
<g id="node8" class="node"><title>Node11</title>
<g id="a_node8"><a xlink:href="class_imitate_pass.html#ae61b400e69fcc32c4a80b94fb52107b9" target="_top" xlink:title="ImitatePass::GitPush git init wrapper. ">
<polygon fill="none" stroke="black" points="520.883,-484.67 520.883,-502.67 630.252,-502.67 630.252,-484.67 520.883,-484.67"/>
<text text-anchor="middle" x="575.567" y="-490.67" font-family="Helvetica,sans-Serif" font-size="10.00">ImitatePass::GitPush</text>
</a>
</g>
</g>
<!-- Node4&#45;&gt;Node11 -->
<g id="edge9" class="edge"><title>Node4&#45;&gt;Node11</title>
<path fill="none" stroke="midnightblue" d="M132.005,-469.259C229.706,-474.648 413.187,-484.769 510.375,-490.129"/>
<polygon fill="midnightblue" stroke="midnightblue" points="510.469,-493.64 520.646,-490.696 510.854,-486.65 510.469,-493.64"/>
</g>
<!-- Node12 -->
<g id="node9" class="node"><title>Node12</title>
<g id="a_node9"><a xlink:href="class_imitate_pass.html#acfffcbf097c9d4615c01e064e335d65d" target="_top" xlink:title="ImitatePass::Show shows content of file. ">
<polygon fill="none" stroke="black" points="170.098,-570.67 170.098,-588.67 268.911,-588.67 268.911,-570.67 170.098,-570.67"/>
<text text-anchor="middle" x="219.504" y="-576.67" font-family="Helvetica,sans-Serif" font-size="10.00">ImitatePass::Show</text>
</a>
</g>
</g>
<!-- Node4&#45;&gt;Node12 -->
<g id="edge11" class="edge"><title>Node4&#45;&gt;Node12</title>
<path fill="none" stroke="midnightblue" d="M75.4081,-474.79C91.9187,-492.193 130.111,-530.632 167.879,-555.67 173.707,-559.534 180.254,-563.12 186.657,-566.28"/>
<polygon fill="midnightblue" stroke="midnightblue" points="185.294,-569.507 195.834,-570.588 188.269,-563.17 185.294,-569.507"/>
</g>
<!-- Node14 -->
<g id="node11" class="node"><title>Node14</title>
<g id="a_node11"><a xlink:href="class_imitate_pass.html#aecb6c2568d96ae09014ed29b04099076" target="_top" xlink:title="ImitatePass::Show_b show content of file, blocking version. ">
<polygon fill="none" stroke="black" points="325.191,-673.67 325.191,-691.67 435.127,-691.67 435.127,-673.67 325.191,-673.67"/>
<text text-anchor="middle" x="380.159" y="-679.67" font-family="Helvetica,sans-Serif" font-size="10.00">ImitatePass::Show_b</text>
</a>
</g>
</g>
<!-- Node4&#45;&gt;Node14 -->
<g id="edge13" class="edge"><title>Node4&#45;&gt;Node14</title>
<path fill="none" stroke="midnightblue" d="M69.5402,-474.753C78.2111,-503.31 108.969,-591.909 167.879,-634.67 210.523,-665.625 269.763,-677.075 314.667,-681.098"/>
<polygon fill="midnightblue" stroke="midnightblue" points="314.639,-684.607 324.884,-681.908 315.192,-677.629 314.639,-684.607"/>
</g>
<!-- Node15 -->
<g id="node12" class="node"><title>Node15</title>
<g id="a_node12"><a xlink:href="class_imitate_pass.html#a5c1ff75bc5d3a8a470d38851055ff765" target="_top" xlink:title="ImitatePass::Insert create new file with encrypted content. ">
<polygon fill="none" stroke="black" points="330.755,-221.67 330.755,-239.67 429.563,-239.67 429.563,-221.67 330.755,-221.67"/>
<text text-anchor="middle" x="380.159" y="-227.67" font-family="Helvetica,sans-Serif" font-size="10.00">ImitatePass::Insert</text>
</a>
</g>
</g>
<!-- Node4&#45;&gt;Node15 -->
<g id="edge16" class="edge"><title>Node4&#45;&gt;Node15</title>
<path fill="none" stroke="midnightblue" d="M70.4283,-456.324C80.9698,-429.271 115.049,-350.011 167.879,-305.67 211.672,-268.914 274.771,-249.646 320.601,-239.898"/>
<polygon fill="midnightblue" stroke="midnightblue" points="321.586,-243.269 330.687,-237.846 320.19,-236.41 321.586,-243.269"/>
</g>
<!-- Node19 -->
<g id="node16" class="node"><title>Node19</title>
<g id="a_node16"><a xlink:href="class_imitate_pass.html#ab9cef44c64dae297da55e08266f1c1c5" target="_top" xlink:title="ImitatePass::Remove git init wrapper. ">
<polygon fill="none" stroke="black" points="324.642,-98.6701 324.642,-116.67 435.676,-116.67 435.676,-98.6701 324.642,-98.6701"/>
<text text-anchor="middle" x="380.159" y="-104.67" font-family="Helvetica,sans-Serif" font-size="10.00">ImitatePass::Remove</text>
</a>
</g>
</g>
<!-- Node4&#45;&gt;Node19 -->
<g id="edge24" class="edge"><title>Node4&#45;&gt;Node19</title>
<path fill="none" stroke="midnightblue" d="M69.4861,-456.623C78.6266,-425.31 112.224,-319.644 167.879,-249.67 216.803,-188.159 239.998,-181.541 307.13,-140.67 319.488,-133.146 333.851,-126.234 346.486,-120.701"/>
<polygon fill="midnightblue" stroke="midnightblue" points="347.922,-123.893 355.748,-116.751 345.176,-117.454 347.922,-123.893"/>
</g>
<!-- Node20 -->
<g id="node17" class="node"><title>Node20</title>
<g id="a_node17"><a xlink:href="class_imitate_pass.html#a9e8c577903247d17c42ad04d346deb6b" target="_top" xlink:title="ImitatePass::Init initialize pass repository. ">
<polygon fill="none" stroke="black" points="175.936,-315.67 175.936,-333.67 263.073,-333.67 263.073,-315.67 175.936,-315.67"/>
<text text-anchor="middle" x="219.504" y="-321.67" font-family="Helvetica,sans-Serif" font-size="10.00">ImitatePass::Init</text>
</a>
</g>
</g>
<!-- Node4&#45;&gt;Node20 -->
<g id="edge28" class="edge"><title>Node4&#45;&gt;Node20</title>
<path fill="none" stroke="midnightblue" d="M76.8841,-456.419C102.154,-432.91 169.089,-370.641 201.046,-340.912"/>
<polygon fill="midnightblue" stroke="midnightblue" points="203.783,-343.146 208.72,-333.772 199.015,-338.021 203.783,-343.146"/>
</g>
<!-- Node22 -->
<g id="node19" class="node"><title>Node22</title>
<g id="a_node19"><a xlink:href="class_imitate_pass.html#a8670f6326e3dfe0018a0737fba27da2f" target="_top" xlink:title="MainWindow::reencryptPath reencrypt all files under the chosen directory. ">
<polygon fill="none" stroke="black" points="312.132,-410.67 312.132,-428.67 448.186,-428.67 448.186,-410.67 312.132,-410.67"/>
<text text-anchor="middle" x="380.159" y="-416.67" font-family="Helvetica,sans-Serif" font-size="10.00">ImitatePass::reencryptPath</text>
</a>
</g>
</g>
<!-- Node4&#45;&gt;Node22 -->
<g id="edge45" class="edge"><title>Node4&#45;&gt;Node22</title>
<path fill="none" stroke="midnightblue" d="M128.251,-456.637C179.805,-449.041 253.556,-438.175 307.762,-430.189"/>
<polygon fill="midnightblue" stroke="midnightblue" points="308.604,-433.603 317.987,-428.683 307.584,-426.678 308.604,-433.603"/>
</g>
<!-- Node6 -->
<g id="node3" class="node"><title>Node6</title>
<g id="a_node3"><a xlink:href="class_qt_pass_settings.html#af1577fc288ddb6077df5a2fb2f8913b6" target="_top" xlink:title="QtPassSettings::getGitExecutable">
<polygon fill="none" stroke="black" points="697.946,-353.67 697.946,-371.67 864.581,-371.67 864.581,-353.67 697.946,-353.67"/>
<text text-anchor="middle" x="781.264" y="-359.67" font-family="Helvetica,sans-Serif" font-size="10.00">QtPassSettings::getGitExecutable</text>
</a>
</g>
</g>
<!-- Node5&#45;&gt;Node6 -->
<g id="edge2" class="edge"><title>Node5&#45;&gt;Node6</title>
<path fill="none" stroke="midnightblue" d="M625.946,-46.0323C638.986,-49.5627 652.139,-55.3204 661.946,-64.6701 698.567,-99.5834 679.872,-125.412 697.946,-172.67 722.386,-236.571 755.981,-310.468 771.613,-344.183"/>
<polygon fill="midnightblue" stroke="midnightblue" points="768.464,-345.712 775.858,-353.301 774.81,-342.758 768.464,-345.712"/>
</g>
<!-- Node7 -->
<g id="node4" class="node"><title>Node7</title>
<g id="a_node4"><a xlink:href="class_qt_pass_settings.html#abb8c53443d71181a3ecd6545464453e6" target="_top" xlink:title="QtPassSettings::getPassStore">
<polygon fill="none" stroke="black" points="706.008,-145.67 706.008,-163.67 856.52,-163.67 856.52,-145.67 706.008,-145.67"/>
<text text-anchor="middle" x="781.264" y="-151.67" font-family="Helvetica,sans-Serif" font-size="10.00">QtPassSettings::getPassStore</text>
</a>
</g>
</g>
<!-- Node5&#45;&gt;Node7 -->
<g id="edge3" class="edge"><title>Node5&#45;&gt;Node7</title>
<path fill="none" stroke="midnightblue" d="M620.741,-49.7039C634.357,-53.3721 649.129,-58.2853 661.946,-64.6701 701.89,-84.5679 741.853,-118.645 763.586,-138.67"/>
<polygon fill="midnightblue" stroke="midnightblue" points="761.293,-141.318 770.985,-145.598 766.077,-136.208 761.293,-141.318"/>
</g>
<!-- Node8&#45;&gt;Node6 -->
<g id="edge5" class="edge"><title>Node8&#45;&gt;Node6</title>
<path fill="none" stroke="midnightblue" d="M271.485,-624.497C373.599,-639.08 598.838,-665.416 661.946,-624.67 667.558,-621.047 746.571,-440.158 772.259,-381.102"/>
<polygon fill="midnightblue" stroke="midnightblue" points="775.505,-382.413 776.282,-371.847 769.085,-379.623 775.505,-382.413"/>
</g>
<!-- Node9&#45;&gt;Node6 -->
<g id="edge8" class="edge"><title>Node9&#45;&gt;Node6</title>
<path fill="none" stroke="midnightblue" d="M593.048,-560.519C611.072,-550.065 640.276,-531.785 661.946,-511.67 707.166,-469.696 749.386,-409.651 768.91,-380.251"/>
<polygon fill="midnightblue" stroke="midnightblue" points="771.867,-382.125 774.427,-371.844 766.014,-378.285 771.867,-382.125"/>
</g>
<!-- Node10 -->
<g id="node7" class="node"><title>Node10</title>
<g id="a_node7"><a xlink:href="class_executor.html#a306776111c35153e55f932bc7bc44b5d" target="_top" xlink:title="Executor::executeBlocking">
<polygon fill="none" stroke="black" points="714.343,-560.67 714.343,-578.67 848.185,-578.67 848.185,-560.67 714.343,-560.67"/>
<text text-anchor="middle" x="781.264" y="-566.67" font-family="Helvetica,sans-Serif" font-size="10.00">Executor::executeBlocking</text>
</a>
</g>
</g>
<!-- Node9&#45;&gt;Node10 -->
<g id="edge7" class="edge"><title>Node9&#45;&gt;Node10</title>
<path fill="none" stroke="midnightblue" d="M632.768,-569.67C654.818,-569.67 680.468,-569.67 704.135,-569.67"/>
<polygon fill="midnightblue" stroke="midnightblue" points="704.14,-573.17 714.14,-569.67 704.14,-566.17 704.14,-573.17"/>
</g>
<!-- Node11&#45;&gt;Node6 -->
<g id="edge10" class="edge"><title>Node11&#45;&gt;Node6</title>
<path fill="none" stroke="midnightblue" d="M630.521,-486.285C641.314,-483.549 652.292,-479.801 661.946,-474.67 706.881,-450.79 747.093,-405.161 767.028,-380.144"/>
<polygon fill="midnightblue" stroke="midnightblue" points="770.037,-381.977 773.426,-371.939 764.517,-377.673 770.037,-381.977"/>
</g>
<!-- Node13 -->
<g id="node10" class="node"><title>Node13</title>
<g id="a_node10"><a xlink:href="class_qt_pass_settings.html#a92b674cdafc03000c808bff5fab93249" target="_top" xlink:title="QtPassSettings::getGpgExecutable">
<polygon fill="none" stroke="black" points="489.188,-597.67 489.188,-615.67 661.946,-615.67 661.946,-597.67 489.188,-597.67"/>
<text text-anchor="middle" x="575.567" y="-603.67" font-family="Helvetica,sans-Serif" font-size="10.00">QtPassSettings::getGpgExecutable</text>
</a>
</g>
</g>
<!-- Node12&#45;&gt;Node13 -->
<g id="edge12" class="edge"><title>Node12&#45;&gt;Node13</title>
<path fill="none" stroke="midnightblue" d="M268.993,-583.368C322.766,-587.468 410.869,-594.187 478.692,-599.359"/>
<polygon fill="midnightblue" stroke="midnightblue" points="478.732,-602.872 488.969,-600.143 479.264,-595.892 478.732,-602.872"/>
</g>
<!-- Node14&#45;&gt;Node10 -->
<g id="edge14" class="edge"><title>Node14&#45;&gt;Node10</title>
<path fill="none" stroke="midnightblue" d="M435.378,-686.721C493.415,-689.099 587.225,-687.23 661.946,-658.67 703.887,-642.639 743.681,-607.046 764.729,-586.052"/>
<polygon fill="midnightblue" stroke="midnightblue" points="767.345,-588.384 771.844,-578.792 762.345,-583.485 767.345,-588.384"/>
</g>
<!-- Node14&#45;&gt;Node13 -->
<g id="edge15" class="edge"><title>Node14&#45;&gt;Node13</title>
<path fill="none" stroke="midnightblue" d="M404.105,-673.653C438.42,-660.169 503.242,-634.698 542.308,-619.346"/>
<polygon fill="midnightblue" stroke="midnightblue" points="543.624,-622.59 551.651,-615.675 541.064,-616.075 543.624,-622.59"/>
</g>
<!-- Node15&#45;&gt;Node6 -->
<g id="edge22" class="edge"><title>Node15&#45;&gt;Node6</title>
<path fill="none" stroke="midnightblue" d="M404.473,-221.665C454.565,-203.847 574.966,-169.323 661.946,-211.67 719.476,-239.679 757.295,-310.695 772.586,-344.39"/>
<polygon fill="midnightblue" stroke="midnightblue" points="769.385,-345.806 776.605,-353.56 775.797,-342.996 769.385,-345.806"/>
</g>
<!-- Node15&#45;&gt;Node7 -->
<g id="edge23" class="edge"><title>Node15&#45;&gt;Node7</title>
<path fill="none" stroke="midnightblue" d="M395.516,-221.632C415.604,-209.493 453.637,-188.335 489.188,-178.67 556.925,-160.255 636.523,-154.738 695.344,-153.555"/>
<polygon fill="midnightblue" stroke="midnightblue" points="695.765,-157.049 705.707,-153.387 695.652,-150.05 695.765,-157.049"/>
</g>
<!-- Node15&#45;&gt;Node13 -->
<g id="edge19" class="edge"><title>Node15&#45;&gt;Node13</title>
<path fill="none" stroke="midnightblue" d="M429.861,-234.347C438.736,-237.18 447.098,-241.668 453.188,-248.67 552.621,-362.992 388.283,-474.646 489.188,-587.67 490.405,-589.033 491.696,-590.31 493.052,-591.505"/>
<polygon fill="midnightblue" stroke="midnightblue" points="491.281,-594.542 501.454,-597.503 495.348,-588.844 491.281,-594.542"/>
</g>
<!-- Node16 -->
<g id="node13" class="node"><title>Node16</title>
<g id="a_node13"><a xlink:href="class_pass.html#a6c5400e104ade2f41c8d4a41fc0b4f4e" target="_top" xlink:title="Pass::getRecipientList return list of gpg&#45;id&#39;s to encrypt for. ">
<polygon fill="none" stroke="black" points="518.097,-221.67 518.097,-239.67 633.038,-239.67 633.038,-221.67 518.097,-221.67"/>
<text text-anchor="middle" x="575.567" y="-227.67" font-family="Helvetica,sans-Serif" font-size="10.00">Pass::getRecipientList</text>
</a>
</g>
</g>
<!-- Node15&#45;&gt;Node16 -->
<g id="edge17" class="edge"><title>Node15&#45;&gt;Node16</title>
<path fill="none" stroke="midnightblue" d="M429.964,-230.67C453.575,-230.67 482.283,-230.67 507.877,-230.67"/>
<polygon fill="midnightblue" stroke="midnightblue" points="507.886,-234.17 517.886,-230.67 507.886,-227.17 507.886,-234.17"/>
</g>
<!-- Node17 -->
<g id="node14" class="node"><title>Node17</title>
<g id="a_node14"><a xlink:href="class_qt_pass_settings.html#a68a9cac12925baf6cff2ce2c7a0f5a8c" target="_top" xlink:title="QtPassSettings::isUseWebDav">
<polygon fill="none" stroke="black" points="498.742,-258.67 498.742,-276.67 652.393,-276.67 652.393,-258.67 498.742,-258.67"/>
<text text-anchor="middle" x="575.567" y="-264.67" font-family="Helvetica,sans-Serif" font-size="10.00">QtPassSettings::isUseWebDav</text>
</a>
</g>
</g>
<!-- Node15&#45;&gt;Node17 -->
<g id="edge20" class="edge"><title>Node15&#45;&gt;Node17</title>
<path fill="none" stroke="midnightblue" d="M428.472,-239.721C455.265,-244.847 488.972,-251.295 517.256,-256.706"/>
<polygon fill="midnightblue" stroke="midnightblue" points="516.929,-260.207 527.408,-258.648 518.244,-253.332 516.929,-260.207"/>
</g>
<!-- Node18 -->
<g id="node15" class="node"><title>Node18</title>
<g id="a_node15"><a xlink:href="class_qt_pass_settings.html#a2fd748b9e34c57aac277e8f0556a532f" target="_top" xlink:title="QtPassSettings::isUseGit">
<polygon fill="none" stroke="black" points="511.437,-107.67 511.437,-125.67 639.698,-125.67 639.698,-107.67 511.437,-107.67"/>
<text text-anchor="middle" x="575.567" y="-113.67" font-family="Helvetica,sans-Serif" font-size="10.00">QtPassSettings::isUseGit</text>
</a>
</g>
</g>
<!-- Node15&#45;&gt;Node18 -->
<g id="edge21" class="edge"><title>Node15&#45;&gt;Node18</title>
<path fill="none" stroke="midnightblue" d="M400.519,-221.667C415.825,-213.975 437.202,-201.91 453.188,-187.67 472.837,-170.169 467.407,-155.431 489.188,-140.67 496.243,-135.89 504.237,-132.054 512.436,-128.979"/>
<polygon fill="midnightblue" stroke="midnightblue" points="513.758,-132.227 522.109,-125.707 511.515,-125.596 513.758,-132.227"/>
</g>
<!-- Node16&#45;&gt;Node7 -->
<g id="edge18" class="edge"><title>Node16&#45;&gt;Node7</title>
<path fill="none" stroke="midnightblue" d="M600.734,-221.653C636.951,-208.141 705.433,-182.59 746.55,-167.249"/>
<polygon fill="midnightblue" stroke="midnightblue" points="747.983,-170.45 756.129,-163.675 745.536,-163.892 747.983,-170.45"/>
</g>
<!-- Node19&#45;&gt;Node6 -->
<g id="edge26" class="edge"><title>Node19&#45;&gt;Node6</title>
<path fill="none" stroke="midnightblue" d="M404.609,-98.547C456.012,-80.1889 580.509,-44.8447 661.946,-97.6701 667.604,-101.34 746.586,-284.297 772.262,-344.028"/>
<polygon fill="midnightblue" stroke="midnightblue" points="769.121,-345.582 776.284,-353.388 775.552,-342.819 769.121,-345.582"/>
</g>
<!-- Node19&#45;&gt;Node7 -->
<g id="edge27" class="edge"><title>Node19&#45;&gt;Node7</title>
<path fill="none" stroke="midnightblue" d="M388.624,-98.5541C404.666,-79.7782 444.606,-37.2487 489.188,-21.6701 561.672,3.65829 591.897,9.76984 661.946,-21.6701 714.889,-45.4322 753.822,-105.891 770.813,-136.429"/>
<polygon fill="midnightblue" stroke="midnightblue" points="767.898,-138.398 775.723,-145.542 774.061,-135.078 767.898,-138.398"/>
</g>
<!-- Node19&#45;&gt;Node18 -->
<g id="edge25" class="edge"><title>Node19&#45;&gt;Node18</title>
<path fill="none" stroke="midnightblue" d="M435.807,-110.213C456.058,-111.155 479.364,-112.24 501.024,-113.248"/>
<polygon fill="midnightblue" stroke="midnightblue" points="501.02,-116.751 511.172,-113.72 501.346,-109.759 501.02,-116.751"/>
</g>
<!-- Node20&#45;&gt;Node6 -->
<g id="edge32" class="edge"><title>Node20&#45;&gt;Node6</title>
<path fill="none" stroke="midnightblue" d="M263.498,-327.589C353.763,-333.716 564.775,-348.041 687.423,-356.367"/>
<polygon fill="midnightblue" stroke="midnightblue" points="687.339,-359.87 697.553,-357.055 687.813,-352.886 687.339,-359.87"/>
</g>
<!-- Node20&#45;&gt;Node17 -->
<g id="edge30" class="edge"><title>Node20&#45;&gt;Node17</title>
<path fill="none" stroke="midnightblue" d="M263.213,-317.795C324.131,-307.987 436.528,-289.893 508.308,-278.337"/>
<polygon fill="midnightblue" stroke="midnightblue" points="509.276,-281.726 518.593,-276.681 508.163,-274.815 509.276,-281.726"/>
</g>
<!-- Node20&#45;&gt;Node18 -->
<g id="edge31" class="edge"><title>Node20&#45;&gt;Node18</title>
<path fill="none" stroke="midnightblue" d="M225.052,-315.629C236.162,-294.42 266.754,-241.049 307.13,-211.67 369.709,-166.135 456.172,-140.714 513.654,-127.866"/>
<polygon fill="midnightblue" stroke="midnightblue" points="514.655,-131.231 523.683,-125.686 513.168,-124.39 514.655,-131.231"/>
</g>
<!-- Node21 -->
<g id="node18" class="node"><title>Node21</title>
<g id="a_node18"><a xlink:href="class_qt_pass_settings.html#afa8d62b0dfd9538f7801a56710b33694" target="_top" xlink:title="QtPassSettings::isAddGPGId">
<polygon fill="none" stroke="black" points="307.13,-258.67 307.13,-276.67 453.188,-276.67 453.188,-258.67 307.13,-258.67"/>
<text text-anchor="middle" x="380.159" y="-264.67" font-family="Helvetica,sans-Serif" font-size="10.00">QtPassSettings::isAddGPGId</text>
</a>
</g>
</g>
<!-- Node20&#45;&gt;Node21 -->
<g id="edge29" class="edge"><title>Node20&#45;&gt;Node21</title>
<path fill="none" stroke="midnightblue" d="M243.569,-315.579C260.966,-308.796 285.455,-299.406 307.13,-291.67 318.155,-287.735 330.2,-283.642 341.229,-279.974"/>
<polygon fill="midnightblue" stroke="midnightblue" points="342.617,-283.201 351.015,-276.741 340.422,-276.555 342.617,-283.201"/>
</g>
<!-- Node20&#45;&gt;Node22 -->
<g id="edge33" class="edge"><title>Node20&#45;&gt;Node22</title>
<path fill="none" stroke="midnightblue" d="M235.717,-333.779C263.365,-350.335 322.05,-385.474 355.149,-405.293"/>
<polygon fill="midnightblue" stroke="midnightblue" points="353.382,-408.315 363.76,-410.449 356.978,-402.309 353.382,-408.315"/>
</g>
<!-- Node22&#45;&gt;Node6 -->
<g id="edge41" class="edge"><title>Node22&#45;&gt;Node6</title>
<path fill="none" stroke="midnightblue" d="M429.752,-410.652C448.319,-407.33 469.706,-403.654 489.188,-400.67 557.858,-390.154 635.928,-380.063 693.916,-372.926"/>
<polygon fill="midnightblue" stroke="midnightblue" points="694.638,-376.364 704.138,-371.673 693.786,-369.416 694.638,-376.364"/>
</g>
<!-- Node22&#45;&gt;Node7 -->
<g id="edge42" class="edge"><title>Node22&#45;&gt;Node7</title>
<path fill="none" stroke="midnightblue" d="M403.157,-410.495C461.205,-386.076 617.13,-319.09 661.946,-285.67 706.998,-252.075 748.217,-199.391 767.978,-172.204"/>
<polygon fill="midnightblue" stroke="midnightblue" points="771.073,-173.894 774.044,-163.724 765.379,-169.822 771.073,-173.894"/>
</g>
<!-- Node22&#45;&gt;Node9 -->
<g id="edge35" class="edge"><title>Node22&#45;&gt;Node9</title>
<path fill="none" stroke="midnightblue" d="M386.385,-428.896C400.075,-452.211 439.395,-513.892 489.188,-545.67 496.814,-550.537 505.436,-554.433 514.196,-557.549"/>
<polygon fill="midnightblue" stroke="midnightblue" points="513.122,-560.881 523.714,-560.633 515.279,-554.221 513.122,-560.881"/>
</g>
<!-- Node22&#45;&gt;Node10 -->
<g id="edge37" class="edge"><title>Node22&#45;&gt;Node10</title>
<path fill="none" stroke="midnightblue" d="M388.769,-428.707C405.084,-447.438 445.512,-490.515 489.188,-511.67 509.507,-521.511 638.421,-545.061 717.722,-558.937"/>
<polygon fill="midnightblue" stroke="midnightblue" points="717.16,-562.391 727.612,-560.662 718.363,-555.496 717.16,-562.391"/>
</g>
<!-- Node22&#45;&gt;Node11 -->
<g id="edge44" class="edge"><title>Node22&#45;&gt;Node11</title>
<path fill="none" stroke="midnightblue" d="M396.002,-428.757C416.341,-440.846 454.33,-462.145 489.188,-474.67 497.098,-477.512 505.577,-480.013 514.011,-482.188"/>
<polygon fill="midnightblue" stroke="midnightblue" points="513.309,-485.619 523.854,-484.592 514.97,-478.819 513.309,-485.619"/>
</g>
<!-- Node22&#45;&gt;Node13 -->
<g id="edge38" class="edge"><title>Node22&#45;&gt;Node13</title>
<path fill="none" stroke="midnightblue" d="M384.152,-428.72C394.053,-457.171 428.613,-545.409 489.188,-587.67 492.298,-589.84 495.613,-591.767 499.064,-593.478"/>
<polygon fill="midnightblue" stroke="midnightblue" points="497.9,-596.787 508.469,-597.522 500.665,-590.356 497.9,-596.787"/>
</g>
<!-- Node22&#45;&gt;Node16 -->
<g id="edge36" class="edge"><title>Node22&#45;&gt;Node16</title>
<path fill="none" stroke="midnightblue" d="M385.739,-410.488C402.036,-378.164 457.907,-270.421 489.188,-248.67 494.871,-244.719 501.244,-241.605 507.881,-239.155"/>
<polygon fill="midnightblue" stroke="midnightblue" points="509.274,-242.385 517.744,-236.02 507.154,-235.714 509.274,-242.385"/>
</g>
<!-- Node22&#45;&gt;Node17 -->
<g id="edge39" class="edge"><title>Node22&#45;&gt;Node17</title>
<path fill="none" stroke="midnightblue" d="M386.148,-410.639C399.561,-387.218 438.819,-324.092 489.188,-291.67 496.62,-286.887 505.011,-283.042 513.558,-279.955"/>
<polygon fill="midnightblue" stroke="midnightblue" points="514.82,-283.225 523.231,-276.782 512.638,-276.573 514.82,-283.225"/>
</g>
<!-- Node22&#45;&gt;Node18 -->
<g id="edge40" class="edge"><title>Node22&#45;&gt;Node18</title>
<path fill="none" stroke="midnightblue" d="M386.178,-410.638C398.088,-389.138 428.884,-333.164 453.188,-285.67 469.85,-253.111 468.766,-242.011 489.188,-211.67 509.467,-181.544 538.74,-151.085 557.201,-133.048"/>
<polygon fill="midnightblue" stroke="midnightblue" points="559.85,-135.356 564.623,-125.897 554.993,-130.315 559.85,-135.356"/>
</g>
<!-- Node23 -->
<g id="node20" class="node"><title>Node23</title>
<g id="a_node20"><a xlink:href="class_qt_pass_settings.html#a58728db227ada76454d01992bfef64c8" target="_top" xlink:title="QtPassSettings::isAutoPull">
<polygon fill="none" stroke="black" points="508.095,-447.67 508.095,-465.67 643.04,-465.67 643.04,-447.67 508.095,-447.67"/>
<text text-anchor="middle" x="575.567" y="-453.67" font-family="Helvetica,sans-Serif" font-size="10.00">QtPassSettings::isAutoPull</text>
</a>
</g>
</g>
<!-- Node22&#45;&gt;Node23 -->
<g id="edge34" class="edge"><title>Node22&#45;&gt;Node23</title>
<path fill="none" stroke="midnightblue" d="M428.472,-428.721C455.265,-433.847 488.972,-440.295 517.256,-445.706"/>
<polygon fill="midnightblue" stroke="midnightblue" points="516.929,-449.207 527.408,-447.648 518.244,-442.332 516.929,-449.207"/>
</g>
<!-- Node24 -->
<g id="node21" class="node"><title>Node24</title>
<g id="a_node21"><a xlink:href="class_qt_pass_settings.html#ab175512f2db3230fe60396ed0d1e9c14" target="_top" xlink:title="QtPassSettings::isAutoPush">
<polygon fill="none" stroke="black" points="505.036,-410.67 505.036,-428.67 646.099,-428.67 646.099,-410.67 505.036,-410.67"/>
<text text-anchor="middle" x="575.567" y="-416.67" font-family="Helvetica,sans-Serif" font-size="10.00">QtPassSettings::isAutoPush</text>
</a>
</g>
</g>
<!-- Node22&#45;&gt;Node24 -->
<g id="edge43" class="edge"><title>Node22&#45;&gt;Node24</title>
<path fill="none" stroke="midnightblue" d="M448.261,-419.67C463.297,-419.67 479.389,-419.67 494.88,-419.67"/>
<polygon fill="midnightblue" stroke="midnightblue" points="494.956,-423.17 504.956,-419.67 494.956,-416.17 494.956,-423.17"/>
</g>
</g>
</svg>
        <g id="navigator" transform="translate(0 0)" fill="#404254">
                <rect fill="#f2f5e9" fill-opacity="0.5" stroke="#606060" stroke-width=".5" x="0" y="0" width="60" height="60"/>
                <use id="zoomplus" xlink:href="#zoomPlus" x="17" y="9" onmousedown="handleZoom(evt,'in')"/>
                <use id="zoomminus" xlink:href="#zoomMin" x="42" y="9" onmousedown="handleZoom(evt,'out')"/>
                <use id="reset" xlink:href="#resetDef" x="30" y="36" onmousedown="handleReset()"/>
                <g id="arrowUp" xlink:href="#dirArrow" transform="translate(30 24)" onmousedown="handlePan(0,-1)">
                  <use xlink:href="#rim" fill="#404040">
                        <set attributeName="fill" to="#808080" begin="arrowUp.mouseover" end="arrowUp.mouseout"/>
                  </use>
                  <path fill="none" stroke="white" stroke-width="1.5" d="M0,-3.0v7 M-2.5,-0.5L0,-3.0L2.5,-0.5"/>
                </g>
                <g id="arrowRight" xlink:href="#dirArrow" transform="rotate(90) translate(36 -43)" onmousedown="handlePan(1,0)">
                  <use xlink:href="#rim" fill="#404040">
                        <set attributeName="fill" to="#808080" begin="arrowRight.mouseover" end="arrowRight.mouseout"/>
                  </use>
                  <path fill="none" stroke="white" stroke-width="1.5" d="M0,-3.0v7 M-2.5,-0.5L0,-3.0L2.5,-0.5"/>
                </g>
                <g id="arrowDown" xlink:href="#dirArrow" transform="rotate(180) translate(-30 -48)" onmousedown="handlePan(0,1)">
                  <use xlink:href="#rim" fill="#404040">
                        <set attributeName="fill" to="#808080" begin="arrowDown.mouseover" end="arrowDown.mouseout"/>
                  </use>
                  <path fill="none" stroke="white" stroke-width="1.5" d="M0,-3.0v7 M-2.5,-0.5L0,-3.0L2.5,-0.5"/>
                </g>
                <g id="arrowLeft" xlink:href="#dirArrow" transform="rotate(270) translate(-36 17)" onmousedown="handlePan(-1,0)">
                  <use xlink:href="#rim" fill="#404040">
                        <set attributeName="fill" to="#808080" begin="arrowLeft.mouseover" end="arrowLeft.mouseout"/>
                  </use>
                  <path fill="none" stroke="white" stroke-width="1.5" d="M0,-3.0v7 M-2.5,-0.5L0,-3.0L2.5,-0.5"/>
                </g>
        </g>
        <svg viewBox="0 0 15 15" width="100%" height="30px" preserveAspectRatio="xMaxYMin meet">
         <g id="arrow_out" transform="scale(0.3 0.3)">
          <a xlink:href="class_imitate_pass_af4d70979dc11ccdee6cec699fb20d942_cgraph_org.svg" target="_base">
           <rect id="button" ry="5" rx="5" y="6" x="6" height="38" width="38"
                fill="#f2f5e9" fill-opacity="0.5" stroke="#606060" stroke-width="1.0"/>
           <path id="arrow"
             d="M 11.500037,31.436501 C 11.940474,20.09759 22.043105,11.32322 32.158766,21.979434 L 37.068811,17.246167 C 37.068811,17.246167 37.088388,32 37.088388,32 L 22.160133,31.978069 C 22.160133,31.978069 26.997745,27.140456 26.997745,27.140456 C 18.528582,18.264221 13.291696,25.230495 11.500037,31.436501 z"
             style="fill:#404040;"/>
          </a>
         </g>
        </svg>
</svg>
