<?xml version="1.0" encoding="UTF-8" standalone="no"?>
<!DOCTYPE svg PUBLIC "-//W3C//DTD SVG 1.1//EN"
 "http://www.w3.org/Graphics/SVG/1.1/DTD/svg11.dtd">
<!-- Generated by graphviz version 2.40.1 (20161225.0304)
 -->
<!-- Title: QtPassSettings::setHideContent Pages: 1 -->
<svg width="679pt" height="64pt"
 viewBox="0.00 0.00 679.10 64.00" xmlns="http://www.w3.org/2000/svg" xmlns:xlink="http://www.w3.org/1999/xlink">
<g id="graph0" class="graph" transform="scale(1 1) rotate(0) translate(4 60)">
<title>QtPassSettings::setHideContent</title>
<!-- Node508 -->
<g id="node1" class="node">
<title>Node508</title>
<polygon fill="#bfbfbf" stroke="#000000" points="0,-18.5 0,-36.5 159.4082,-36.5 159.4082,-18.5 0,-18.5"/>
<text text-anchor="middle" x="79.7041" y="-24.5" font-family="Helvetica,sans-Serif" font-size="10.00" fill="#000000">QtPassSettings::setHideContent</text>
</g>
<!-- Node509 -->
<g id="node2" class="node">
<title>Node509</title>
<g id="a_node2"><a xlink:href="class_main_window.html#aeb8091ab5531144b76c1fbb0d63deb56" target="_top" xlink:title="MainWindow::config pops up the configuration screen and handles all inter&#45;window communication. ">
<polygon fill="none" stroke="#000000" points="195.4082,-18.5 195.4082,-36.5 300.8906,-36.5 300.8906,-18.5 195.4082,-18.5"/>
<text text-anchor="middle" x="248.1494" y="-24.5" font-family="Helvetica,sans-Serif" font-size="10.00" fill="#000000">MainWindow::config</text>
</a>
</g>
</g>
<!-- Node508&#45;&gt;Node509 -->
<g id="edge1" class="edge">
<title>Node508&#45;&gt;Node509</title>
<path fill="none" stroke="#191970" d="M169.6822,-27.5C178.3538,-27.5 186.9436,-27.5 195.0817,-27.5"/>
<polygon fill="#191970" stroke="#191970" points="169.4872,-24.0001 159.4872,-27.5 169.4871,-31.0001 169.4872,-24.0001"/>
</g>
<!-- Node510 -->
<g id="node3" class="node">
<title>Node510</title>
<g id="a_node3"><a xlink:href="class_main_window.html#a23d2783cb61a373c4b0127970264290a" target="_top" xlink:title="MainWindow::checkConfig make sure we are ready to go as soon as possible. ">
<polygon fill="none" stroke="#000000" points="351.063,-37.5 351.063,-55.5 484.8901,-55.5 484.8901,-37.5 351.063,-37.5"/>
<text text-anchor="middle" x="417.9766" y="-43.5" font-family="Helvetica,sans-Serif" font-size="10.00" fill="#000000">MainWindow::checkConfig</text>
</a>
</g>
</g>
<!-- Node509&#45;&gt;Node510 -->
<g id="edge2" class="edge">
<title>Node509&#45;&gt;Node510</title>
<path fill="none" stroke="#191970" d="M311.1411,-34.5474C324.0708,-35.994 337.7284,-37.522 350.7992,-38.9843"/>
<polygon fill="#191970" stroke="#191970" points="311.28,-31.0412 300.9529,-33.4076 310.5017,-37.9978 311.28,-31.0412"/>
</g>
<!-- Node512 -->
<g id="node5" class="node">
<title>Node512</title>
<g id="a_node5"><a xlink:href="class_main_window.html#a4680b2cbcfd388683a98303f29c0f84f" target="_top" xlink:title="MainWindow::executePassGitInit git init wrapper. ">
<polygon fill="none" stroke="#000000" points="336.8906,-.5 336.8906,-18.5 499.0625,-18.5 499.0625,-.5 336.8906,-.5"/>
<text text-anchor="middle" x="417.9766" y="-6.5" font-family="Helvetica,sans-Serif" font-size="10.00" fill="#000000">MainWindow::executePassGitInit</text>
</a>
</g>
</g>
<!-- Node509&#45;&gt;Node512 -->
<g id="edge4" class="edge">
<title>Node509&#45;&gt;Node512</title>
<path fill="none" stroke="#191970" d="M311.0344,-20.8348C319.4453,-19.9433 328.166,-19.019 336.8343,-18.1003"/>
<polygon fill="#191970" stroke="#191970" points="310.5282,-17.3688 300.9529,-21.9034 311.2661,-24.3298 310.5282,-17.3688"/>
</g>
<!-- Node511 -->
<g id="node4" class="node">
<title>Node511</title>
<g id="a_node4"><a xlink:href="class_main_window.html#a8b244be8b7b7db1b08de2a2acb9409db" target="_top" xlink:title="MainWindow::MainWindow handles all of the main functionality and also the main window. ">
<polygon fill="none" stroke="#000000" points="535.0625,-37.5 535.0625,-55.5 671.1016,-55.5 671.1016,-37.5 535.0625,-37.5"/>
<text text-anchor="middle" x="603.082" y="-43.5" font-family="Helvetica,sans-Serif" font-size="10.00" fill="#000000">MainWindow::MainWindow</text>
</a>
</g>
</g>
<!-- Node510&#45;&gt;Node511 -->
<g id="edge3" class="edge">
<title>Node510&#45;&gt;Node511</title>
<path fill="none" stroke="#191970" d="M495.0861,-46.5C508.3248,-46.5 521.9973,-46.5 534.9785,-46.5"/>
<polygon fill="#191970" stroke="#191970" points="495.0656,-43.0001 485.0656,-46.5 495.0656,-50.0001 495.0656,-43.0001"/>
</g>
<!-- Node513 -->
<g id="node6" class="node">
<title>Node513</title>
<g id="a_node6"><a xlink:href="class_config_dialog.html#ad5b80066591f19fdaaa06b7cb5ba7f15" target="_top" xlink:title="ConfigDialog::wizard first&#45;time use wizard. ">
<polygon fill="none" stroke="#000000" points="549.2275,-.5 549.2275,-18.5 656.9365,-18.5 656.9365,-.5 549.2275,-.5"/>
<text text-anchor="middle" x="603.082" y="-6.5" font-family="Helvetica,sans-Serif" font-size="10.00" fill="#000000">ConfigDialog::wizard</text>
</a>
</g>
</g>
<!-- Node512&#45;&gt;Node513 -->
<g id="edge5" class="edge">
<title>Node512&#45;&gt;Node513</title>
<path fill="none" stroke="#191970" d="M509.5106,-9.5C523.0702,-9.5 536.6589,-9.5 549.1124,-9.5"/>
<polygon fill="#191970" stroke="#191970" points="509.1666,-6.0001 499.1665,-9.5 509.1665,-13.0001 509.1666,-6.0001"/>
</g>
</g>
</svg>
