<?xml version="1.0" encoding="UTF-8" standalone="no"?>
<!DOCTYPE svg PUBLIC "-//W3C//DTD SVG 1.1//EN"
 "http://www.w3.org/Graphics/SVG/1.1/DTD/svg11.dtd">
<!-- Generated by graphviz version 2.43.0 (0)
 -->
<!-- Title: Pass::getRecipientString Pages: 1 -->
<svg width="829pt" height="64pt"
 viewBox="0.00 0.00 829.00 64.00" xmlns="http://www.w3.org/2000/svg" xmlns:xlink="http://www.w3.org/1999/xlink">
<g id="graph0" class="graph" transform="scale(1 1) rotate(0) translate(4 60)">
<title>Pass::getRecipientString</title>
<!-- Node1 -->
<g id="Node000001" class="node">
<title>Node1</title>
<g id="a_Node000001"><a xlink:title="Get recipients as string.">
<polygon fill="#999999" stroke="#666666" points="134,-37 0,-37 0,-18 134,-18 134,-37"/>
<text text-anchor="middle" x="67" y="-25" font-family="Helvetica,sans-Serif" font-size="10.00">Pass::getRecipientString</text>
</a>
</g>
</g>
<!-- Node2 -->
<g id="Node000002" class="node">
<title>Node2</title>
<g id="a_Node000002"><a xlink:href="class_pass.html#a693825d2ad62813cf103860ef6211370" target="_top" xlink:title="Get list of recipients for a password file.">
<polygon fill="white" stroke="#666666" points="293,-37 170,-37 170,-18 293,-18 293,-37"/>
<text text-anchor="middle" x="231.5" y="-25" font-family="Helvetica,sans-Serif" font-size="10.00">Pass::getRecipientList</text>
</a>
</g>
</g>
<!-- Node1&#45;&gt;Node2 -->
<g id="edge1_Node000001_Node000002" class="edge">
<title>Node1&#45;&gt;Node2</title>
<g id="a_edge1_Node000001_Node000002"><a xlink:title=" ">
<path fill="none" stroke="#63b8ff" d="M134.09,-27.5C142.53,-27.5 151.19,-27.5 159.69,-27.5"/>
<polygon fill="#63b8ff" stroke="#63b8ff" points="159.96,-31 169.96,-27.5 159.96,-24 159.96,-31"/>
</a>
</g>
</g>
<!-- Node3 -->
<g id="Node000003" class="node">
<title>Node3</title>
<g id="a_Node000003"><a xlink:href="class_pass.html#a7bab4c97e4a327cc34060a67c09959bf" target="_top" xlink:title="Get .gpg&#45;id file path for a password file.">
<polygon fill="white" stroke="#666666" points="439,-56 329,-56 329,-37 439,-37 439,-56"/>
<text text-anchor="middle" x="384" y="-44" font-family="Helvetica,sans-Serif" font-size="10.00">Pass::getGpgIdPath</text>
</a>
</g>
</g>
<!-- Node2&#45;&gt;Node3 -->
<g id="edge2_Node000002_Node000003" class="edge">
<title>Node2&#45;&gt;Node3</title>
<g id="a_edge2_Node000002_Node000003"><a xlink:title=" ">
<path fill="none" stroke="#63b8ff" d="M293.28,-35.17C301.63,-36.23 310.23,-37.31 318.64,-38.38"/>
<polygon fill="#63b8ff" stroke="#63b8ff" points="318.43,-41.88 328.79,-39.66 319.3,-34.93 318.43,-41.88"/>
</a>
</g>
</g>
<!-- Node6 -->
<g id="Node000006" class="node">
<title>Node6</title>
<g id="a_Node000006"><a xlink:href="class_util.html#aba7296e41ef990d5d945d5ed8cd99bd5" target="_top" xlink:title="Check if a string looks like a valid GPG key ID. Accepts:">
<polygon fill="white" stroke="#666666" points="433.5,-19 334.5,-19 334.5,0 433.5,0 433.5,-19"/>
<text text-anchor="middle" x="384" y="-7" font-family="Helvetica,sans-Serif" font-size="10.00">Util::isValidKeyId</text>
</a>
</g>
</g>
<!-- Node2&#45;&gt;Node6 -->
<g id="edge5_Node000002_Node000006" class="edge">
<title>Node2&#45;&gt;Node6</title>
<g id="a_edge5_Node000002_Node000006"><a xlink:title=" ">
<path fill="none" stroke="#63b8ff" d="M293.28,-20.23C303.56,-19 314.21,-17.73 324.43,-16.5"/>
<polygon fill="#63b8ff" stroke="#63b8ff" points="324.97,-19.97 334.48,-15.3 324.14,-13.02 324.97,-19.97"/>
</a>
</g>
</g>
<!-- Node4 -->
<g id="Node000004" class="node">
<title>Node4</title>
<g id="a_Node000004"><a xlink:href="class_qt_pass_settings.html#a538e612e04fe934535e1f7525d55743c" target="_top" xlink:title="Get password store directory path.">
<polygon fill="white" stroke="#666666" points="633,-56 475,-56 475,-37 633,-37 633,-56"/>
<text text-anchor="middle" x="554" y="-44" font-family="Helvetica,sans-Serif" font-size="10.00">QtPassSettings::getPassStore</text>
</a>
</g>
</g>
<!-- Node3&#45;&gt;Node4 -->
<g id="edge3_Node000003_Node000004" class="edge">
<title>Node3&#45;&gt;Node4</title>
<g id="a_edge3_Node000003_Node000004"><a xlink:title=" ">
<path fill="none" stroke="#63b8ff" d="M439.08,-46.5C447.29,-46.5 455.93,-46.5 464.63,-46.5"/>
<polygon fill="#63b8ff" stroke="#63b8ff" points="464.86,-50 474.86,-46.5 464.86,-43 464.86,-50"/>
</a>
</g>
</g>
<!-- Node5 -->
<g id="Node000005" class="node">
<title>Node5</title>
<g id="a_Node000005"><a xlink:href="class_qt_pass_settings.html#a2483e7de01f9e312ee0fbf8a1637f29d" target="_top" xlink:title="Get the singleton instance.">
<polygon fill="white" stroke="#666666" points="821,-56 669,-56 669,-37 821,-37 821,-56"/>
<text text-anchor="middle" x="745" y="-44" font-family="Helvetica,sans-Serif" font-size="10.00">QtPassSettings::getInstance</text>
</a>
</g>
</g>
<!-- Node4&#45;&gt;Node5 -->
<g id="edge4_Node000004_Node000005" class="edge">
<title>Node4&#45;&gt;Node5</title>
<g id="a_edge4_Node000004_Node000005"><a xlink:title=" ">
<path fill="none" stroke="#63b8ff" d="M633.24,-46.5C641.61,-46.5 650.16,-46.5 658.62,-46.5"/>
<polygon fill="#63b8ff" stroke="#63b8ff" points="658.86,-50 668.86,-46.5 658.86,-43 658.86,-50"/>
</a>
</g>
</g>
</g>
</svg>
