<?xml version="1.0" encoding="UTF-8" standalone="no"?>
<!DOCTYPE svg PUBLIC "-//W3C//DTD SVG 1.1//EN"
 "http://www.w3.org/Graphics/SVG/1.1/DTD/svg11.dtd">
<!-- Generated by graphviz version 2.43.0 (0)
 -->
<!-- Title: QProgressIndicator::color Pages: 1 -->
<svg width="262pt" height="86pt"
 viewBox="0.00 0.00 262.00 86.00" xmlns="http://www.w3.org/2000/svg" xmlns:xlink="http://www.w3.org/1999/xlink">
<g id="graph0" class="graph" transform="scale(1 1) rotate(0) translate(4 82)">
<title>QProgressIndicator::color</title>
<!-- Node1 -->
<g id="Node000001" class="node">
<title>Node1</title>
<g id="a_Node000001"><a xlink:title="Returns the color of the component.">
<polygon fill="#999999" stroke="#666666" points="254,-54 145,-54 145,-24 254,-24 254,-54"/>
<text text-anchor="start" x="153" y="-42" font-family="Helvetica,sans-Serif" font-size="10.00">QProgressIndicator</text>
<text text-anchor="middle" x="199.5" y="-31" font-family="Helvetica,sans-Serif" font-size="10.00">::color</text>
</a>
</g>
</g>
<!-- Node2 -->
<g id="Node000002" class="node">
<title>Node2</title>
<g id="a_Node000002"><a xlink:href="class_q_progress_indicator.html#a38d3e8644a4e74d892b42270c9b6ae8f" target="_top" xlink:title="QProgressIndicator::paintEvent draw the spinner.">
<polygon fill="white" stroke="#666666" points="109,-78 0,-78 0,-48 109,-48 109,-78"/>
<text text-anchor="start" x="8" y="-66" font-family="Helvetica,sans-Serif" font-size="10.00">QProgressIndicator</text>
<text text-anchor="middle" x="54.5" y="-55" font-family="Helvetica,sans-Serif" font-size="10.00">::paintEvent</text>
</a>
</g>
</g>
<!-- Node1&#45;&gt;Node2 -->
<g id="edge1_Node000001_Node000002" class="edge">
<title>Node1&#45;&gt;Node2</title>
<g id="a_edge1_Node000001_Node000002"><a xlink:title=" ">
<path fill="none" stroke="#63b8ff" d="M134.95,-49.67C126.44,-51.09 117.78,-52.55 109.46,-53.94"/>
<polygon fill="#63b8ff" stroke="#63b8ff" points="135.56,-53.11 144.85,-48 134.4,-46.21 135.56,-53.11"/>
</a>
</g>
</g>
<!-- Node3 -->
<g id="Node000003" class="node">
<title>Node3</title>
<g id="a_Node000003"><a xlink:href="class_q_progress_indicator.html#a62161c81afb5ce019e9a7a55c69e3654" target="_top" xlink:title="Sets the color of the components to the given color.">
<polygon fill="white" stroke="#666666" points="109,-30 0,-30 0,0 109,0 109,-30"/>
<text text-anchor="start" x="8" y="-18" font-family="Helvetica,sans-Serif" font-size="10.00">QProgressIndicator</text>
<text text-anchor="middle" x="54.5" y="-7" font-family="Helvetica,sans-Serif" font-size="10.00">::setColor</text>
</a>
</g>
</g>
<!-- Node1&#45;&gt;Node3 -->
<g id="edge2_Node000001_Node000003" class="edge">
<title>Node1&#45;&gt;Node3</title>
<g id="a_edge2_Node000001_Node000003"><a xlink:title=" ">
<path fill="none" stroke="#63b8ff" d="M134.95,-28.33C126.44,-26.91 117.78,-25.45 109.46,-24.06"/>
<polygon fill="#63b8ff" stroke="#63b8ff" points="134.4,-31.79 144.85,-30 135.56,-24.89 134.4,-31.79"/>
</a>
</g>
</g>
</g>
</svg>
