<?xml version="1.0" encoding="UTF-8" standalone="no"?>
<!DOCTYPE svg PUBLIC "-//W3C//DTD SVG 1.1//EN"
 "http://www.w3.org/Graphics/SVG/1.1/DTD/svg11.dtd">
<!-- Generated by graphviz version 2.44.0 (20200408.0750)
 -->
<!-- Title: Executor::execute Pages: 1 -->
<svg width="256pt" height="66pt"
 viewBox="0.00 0.00 256.00 66.00" xmlns="http://www.w3.org/2000/svg" xmlns:xlink="http://www.w3.org/1999/xlink">
<g id="graph0" class="graph" transform="scale(1 1) rotate(0) translate(4 62)">
<title>Executor::execute</title>
<!-- Node1 -->
<g id="node1" class="node">
<title>Node1</title>
<g id="a_node1"><a xlink:title="Executor::execute execute an app.">
<polygon fill="#bfbfbf" stroke="black" points="152,-19.5 152,-38.5 248,-38.5 248,-19.5 152,-19.5"/>
<text text-anchor="middle" x="200" y="-26.5" font-family="Helvetica,sans-Serif" font-size="10.00">Executor::execute</text>
</a>
</g>
</g>
<!-- Node2 -->
<g id="node2" class="node">
<title>Node2</title>
<g id="a_node2"><a xlink:href="class_executor.html#a490166ea519a8047e207da8d67f3c0d2" target="_top" xlink:title="Executor::execute executes an app from a workDir.">
<polygon fill="none" stroke="black" points="10,-38.5 10,-57.5 106,-57.5 106,-38.5 10,-38.5"/>
<text text-anchor="middle" x="58" y="-45.5" font-family="Helvetica,sans-Serif" font-size="10.00">Executor::execute</text>
</a>
</g>
</g>
<!-- Node1&#45;&gt;Node2 -->
<g id="edge1" class="edge">
<title>Node1&#45;&gt;Node2</title>
<path fill="none" stroke="midnightblue" d="M141.75,-36.77C129.9,-38.38 117.56,-40.05 106.12,-41.6"/>
<polygon fill="midnightblue" stroke="midnightblue" points="142.55,-40.19 151.99,-35.38 141.61,-33.26 142.55,-40.19"/>
</g>
<!-- Node3 -->
<g id="node3" class="node">
<title>Node3</title>
<g id="a_node3"><a xlink:href="class_pass.html#a924b4cd54e4b5e24fa42661b7eccec07" target="_top" xlink:title=" ">
<polygon fill="none" stroke="black" points="0,-0.5 0,-19.5 116,-19.5 116,-0.5 0,-0.5"/>
<text text-anchor="middle" x="58" y="-7.5" font-family="Helvetica,sans-Serif" font-size="10.00">Pass::executeWrapper</text>
</a>
</g>
</g>
<!-- Node1&#45;&gt;Node3 -->
<g id="edge2" class="edge">
<title>Node1&#45;&gt;Node3</title>
<path fill="none" stroke="midnightblue" d="M141.88,-21.25C133.45,-20.1 124.77,-18.93 116.33,-17.78"/>
<polygon fill="midnightblue" stroke="midnightblue" points="141.61,-24.74 151.99,-22.62 142.55,-17.81 141.61,-24.74"/>
</g>
</g>
</svg>
