<?xml version="1.0" encoding="UTF-8" standalone="no"?>
<!DOCTYPE svg PUBLIC "-//W3C//DTD SVG 1.1//EN"
 "http://www.w3.org/Graphics/SVG/1.1/DTD/svg11.dtd">
<!-- Generated by graphviz version 2.43.0 (0)
 -->
<!-- Title: ImitatePass::finished Pages: 1 -->
<svg width="273pt" height="76pt"
 viewBox="0.00 0.00 273.00 75.50" xmlns="http://www.w3.org/2000/svg" xmlns:xlink="http://www.w3.org/1999/xlink">
<g id="graph0" class="graph" transform="scale(1 1) rotate(0) translate(4 71.5)">
<title>ImitatePass::finished</title>
<!-- Node1 -->
<g id="Node000001" class="node">
<title>Node1</title>
<g id="a_Node000001"><a xlink:title="Handle process completion.">
<polygon fill="#999999" stroke="#666666" points="118,-45.5 0,-45.5 0,-26.5 118,-26.5 118,-45.5"/>
<text text-anchor="middle" x="59" y="-33.5" font-family="Helvetica,sans-Serif" font-size="10.00">ImitatePass::finished</text>
</a>
</g>
</g>
<!-- Node2 -->
<g id="Node000002" class="node">
<title>Node2</title>
<g id="a_Node000002"><a xlink:href="class_pass.html#ad51174f24ecdbc14a55e4588a34b8563" target="_top" xlink:title="Handle process completion.">
<polygon fill="white" stroke="#666666" points="251,-67.5 168,-67.5 168,-48.5 251,-48.5 251,-67.5"/>
<text text-anchor="middle" x="209.5" y="-55.5" font-family="Helvetica,sans-Serif" font-size="10.00">Pass::finished</text>
</a>
</g>
</g>
<!-- Node1&#45;&gt;Node2 -->
<g id="edge1_Node000001_Node000002" class="edge">
<title>Node1&#45;&gt;Node2</title>
<g id="a_edge1_Node000001_Node000002"><a xlink:title=" ">
<path fill="none" stroke="#63b8ff" d="M118.26,-44.63C131.34,-46.57 145.12,-48.61 157.86,-50.5"/>
<polygon fill="#63b8ff" stroke="#63b8ff" points="157.42,-53.97 167.82,-51.97 158.44,-47.05 157.42,-53.97"/>
</a>
</g>
</g>
<!-- Node3 -->
<g id="Node000003" class="node">
<title>Node3</title>
<g id="a_Node000003"><a xlink:href="classsimple_transaction.html#a3914acc39e65586cd6671aff1ac3afe9" target="_top" xlink:title="transactionIsOver checks wheather currently finished process is last in current transaction">
<polygon fill="white" stroke="#666666" points="265,-30 154,-30 154,0 265,0 265,-30"/>
<text text-anchor="start" x="162" y="-18" font-family="Helvetica,sans-Serif" font-size="10.00">simpleTransaction::</text>
<text text-anchor="middle" x="209.5" y="-7" font-family="Helvetica,sans-Serif" font-size="10.00">transactionIsOver</text>
</a>
</g>
</g>
<!-- Node1&#45;&gt;Node3 -->
<g id="edge2_Node000001_Node000003" class="edge">
<title>Node1&#45;&gt;Node3</title>
<g id="a_edge2_Node000001_Node000003"><a xlink:title=" ">
<path fill="none" stroke="#63b8ff" d="M118.26,-27.76C126.58,-26.58 135.18,-25.37 143.62,-24.18"/>
<polygon fill="#63b8ff" stroke="#63b8ff" points="144.39,-27.6 153.8,-22.74 143.41,-20.67 144.39,-27.6"/>
</a>
</g>
</g>
</g>
</svg>
