<?xml version="1.0" encoding="UTF-8" standalone="no"?>
<!DOCTYPE svg PUBLIC "-//W3C//DTD SVG 1.1//EN"
 "http://www.w3.org/Graphics/SVG/1.1/DTD/svg11.dtd">
<!-- Generated by graphviz version 2.38.0 (20140413.2041)
 -->
<!-- Title: ImitatePass::GitPush Pages: 1 -->
<svg width="580pt" height="84pt"
 viewBox="0.00 0.00 580.44 84.00" xmlns="http://www.w3.org/2000/svg" xmlns:xlink="http://www.w3.org/1999/xlink">
<g id="graph0" class="graph" transform="scale(1 1) rotate(0) translate(4 80)">
<title>ImitatePass::GitPush</title>
<!-- Node49 -->
<g id="node1" class="node"><title>Node49</title>
<polygon fill="#bfbfbf" stroke="black" points="0,-0.5 0,-18.5 109.369,-18.5 109.369,-0.5 0,-0.5"/>
<text text-anchor="middle" x="54.6846" y="-6.5" font-family="Helvetica,sans-Serif" font-size="10.00">ImitatePass::GitPush</text>
</g>
<!-- Node50 -->
<g id="node2" class="node"><title>Node50</title>
<g id="a_node2"><a xlink:href="class_imitate_pass.html#a8670f6326e3dfe0018a0737fba27da2f" target="_top" xlink:title="MainWindow::reencryptPath reencrypt all files under the chosen directory. ">
<polygon fill="none" stroke="black" points="145.369,-19.5 145.369,-37.5 281.423,-37.5 281.423,-19.5 145.369,-19.5"/>
<text text-anchor="middle" x="213.396" y="-25.5" font-family="Helvetica,sans-Serif" font-size="10.00">ImitatePass::reencryptPath</text>
</a>
</g>
</g>
<!-- Node49&#45;&gt;Node50 -->
<g id="edge1" class="edge"><title>Node49&#45;&gt;Node50</title>
<path fill="none" stroke="midnightblue" d="M119.765,-17.2693C128.201,-18.2921 136.866,-19.3426 145.35,-20.3712"/>
<polygon fill="midnightblue" stroke="midnightblue" points="119.964,-13.7679 109.616,-16.0387 119.122,-20.717 119.964,-13.7679"/>
</g>
<!-- Node52 -->
<g id="node4" class="node"><title>Node52</title>
<g id="a_node4"><a xlink:href="class_imitate_pass.html#af4d70979dc11ccdee6cec699fb20d942" target="_top" xlink:title="ImitatePass::~ImitatePass">
<polygon fill="none" stroke="black" points="440.561,-19.5 440.561,-37.5 572.439,-37.5 572.439,-19.5 440.561,-19.5"/>
<text text-anchor="middle" x="506.5" y="-25.5" font-family="Helvetica,sans-Serif" font-size="10.00">ImitatePass::~ImitatePass</text>
</a>
</g>
</g>
<!-- Node49&#45;&gt;Node52 -->
<g id="edge5" class="edge"><title>Node49&#45;&gt;Node52</title>
<path fill="none" stroke="midnightblue" d="M119.779,-8.05895C164.98,-7.39507 226.934,-7.19401 281.423,-9.5 335.057,-11.7698 395.72,-17.0826 440.388,-21.5147"/>
<polygon fill="midnightblue" stroke="midnightblue" points="119.475,-4.56322 109.532,-8.22154 119.586,-11.5623 119.475,-4.56322"/>
</g>
<!-- Node51 -->
<g id="node3" class="node"><title>Node51</title>
<g id="a_node3"><a xlink:href="class_imitate_pass.html#a9e8c577903247d17c42ad04d346deb6b" target="_top" xlink:title="ImitatePass::Init initialize pass repository. ">
<polygon fill="none" stroke="black" points="317.423,-57.5 317.423,-75.5 404.561,-75.5 404.561,-57.5 317.423,-57.5"/>
<text text-anchor="middle" x="360.992" y="-63.5" font-family="Helvetica,sans-Serif" font-size="10.00">ImitatePass::Init</text>
</a>
</g>
</g>
<!-- Node50&#45;&gt;Node51 -->
<g id="edge2" class="edge"><title>Node50&#45;&gt;Node51</title>
<path fill="none" stroke="midnightblue" d="M258.752,-40.0769C280.184,-45.6706 305.519,-52.2828 325.483,-57.4934"/>
<polygon fill="midnightblue" stroke="midnightblue" points="259.46,-36.6444 248.9,-37.5055 257.692,-43.4175 259.46,-36.6444"/>
</g>
<!-- Node50&#45;&gt;Node52 -->
<g id="edge4" class="edge"><title>Node50&#45;&gt;Node52</title>
<path fill="none" stroke="midnightblue" d="M291.832,-28.5C338.108,-28.5 396.247,-28.5 440.19,-28.5"/>
<polygon fill="midnightblue" stroke="midnightblue" points="291.547,-25.0001 281.547,-28.5 291.547,-32.0001 291.547,-25.0001"/>
</g>
<!-- Node51&#45;&gt;Node52 -->
<g id="edge3" class="edge"><title>Node51&#45;&gt;Node52</title>
<path fill="none" stroke="midnightblue" d="M405.676,-54.9328C426.719,-49.3606 451.587,-42.7759 471.237,-37.5725"/>
<polygon fill="midnightblue" stroke="midnightblue" points="404.772,-51.5513 396.001,-57.4945 406.564,-58.3181 404.772,-51.5513"/>
</g>
</g>
</svg>
