<?xml version="1.0" encoding="UTF-8" standalone="no"?>
<!DOCTYPE svg PUBLIC "-//W3C//DTD SVG 1.1//EN"
 "http://www.w3.org/Graphics/SVG/1.1/DTD/svg11.dtd">
<!-- Generated by graphviz version 2.40.1 (20161225.0304)
 -->
<!-- Title: QtPassSettings::getGpgHome Pages: 1 -->
<svg width="953pt" height="199pt"
 viewBox="0.00 0.00 953.17 199.31" xmlns="http://www.w3.org/2000/svg" xmlns:xlink="http://www.w3.org/1999/xlink">
<g id="graph0" class="graph" transform="scale(1 1) rotate(0) translate(4 195.313)">
<title>QtPassSettings::getGpgHome</title>
<!-- Node41 -->
<g id="node1" class="node">
<title>Node41</title>
<polygon fill="#bfbfbf" stroke="#000000" points="0,-92.5 0,-110.5 149.9551,-110.5 149.9551,-92.5 0,-92.5"/>
<text text-anchor="middle" x="74.9775" y="-98.5" font-family="Helvetica,sans-Serif" font-size="10.00" fill="#000000">QtPassSettings::getGpgHome</text>
</g>
<!-- Node42 -->
<g id="node2" class="node">
<title>Node42</title>
<g id="a_node2"><a xlink:href="class_pass.html#a012c47a55b3cc3467ad0f013716f623a" target="_top" xlink:title="Pass::init">
<polygon fill="none" stroke="#000000" points="185.9551,-92.5 185.9551,-110.5 242.5264,-110.5 242.5264,-92.5 185.9551,-92.5"/>
<text text-anchor="middle" x="214.2407" y="-98.5" font-family="Helvetica,sans-Serif" font-size="10.00" fill="#000000">Pass::init</text>
</a>
</g>
</g>
<!-- Node41&#45;&gt;Node42 -->
<g id="edge1" class="edge">
<title>Node41&#45;&gt;Node42</title>
<path fill="none" stroke="#191970" d="M160.3416,-101.5C169.4731,-101.5 178.2237,-101.5 185.9198,-101.5"/>
<polygon fill="#191970" stroke="#191970" points="160.3154,-98.0001 150.3154,-101.5 160.3154,-105.0001 160.3154,-98.0001"/>
</g>
<!-- Node43 -->
<g id="node3" class="node">
<title>Node43</title>
<g id="a_node3"><a xlink:href="class_qt_pass_settings.html#a987e913eac7cd497e2fca27426494a64" target="_top" xlink:title="QtPassSettings::getPass">
<polygon fill="none" stroke="#000000" points="278.5264,-92.5 278.5264,-110.5 405.1367,-110.5 405.1367,-92.5 278.5264,-92.5"/>
<text text-anchor="middle" x="341.8315" y="-98.5" font-family="Helvetica,sans-Serif" font-size="10.00" fill="#000000">QtPassSettings::getPass</text>
</a>
</g>
</g>
<!-- Node42&#45;&gt;Node43 -->
<g id="edge2" class="edge">
<title>Node42&#45;&gt;Node43</title>
<path fill="none" stroke="#191970" d="M252.7709,-101.5C260.8659,-101.5 269.6082,-101.5 278.3428,-101.5"/>
<polygon fill="#191970" stroke="#191970" points="252.5573,-98.0001 242.5573,-101.5 252.5572,-105.0001 252.5573,-98.0001"/>
</g>
<!-- Node44 -->
<g id="node4" class="node">
<title>Node44</title>
<g id="a_node4"><a xlink:href="class_main_window.html#a23d2783cb61a373c4b0127970264290a" target="_top" xlink:title="MainWindow::checkConfig make sure we are ready to go as soon as possible. ">
<polygon fill="none" stroke="#000000" points="639.3086,-157.5 639.3086,-175.5 773.1357,-175.5 773.1357,-157.5 639.3086,-157.5"/>
<text text-anchor="middle" x="706.2222" y="-163.5" font-family="Helvetica,sans-Serif" font-size="10.00" fill="#000000">MainWindow::checkConfig</text>
</a>
</g>
</g>
<!-- Node43&#45;&gt;Node44 -->
<g id="edge3" class="edge">
<title>Node43&#45;&gt;Node44</title>
<path fill="none" stroke="#191970" d="M357.2514,-118.3992C375.2814,-136.7805 407.0295,-165.0674 441.1367,-176.5 519.7368,-202.8464 618.8597,-187.1993 670.7866,-175.5868"/>
<polygon fill="#191970" stroke="#191970" points="359.4012,-115.5809 349.9734,-110.7468 354.3289,-120.405 359.4012,-115.5809"/>
</g>
<!-- Node46 -->
<g id="node6" class="node">
<title>Node46</title>
<g id="a_node6"><a xlink:href="class_main_window.html#aeb8091ab5531144b76c1fbb0d63deb56" target="_top" xlink:title="MainWindow::config pops up the configuration screen and handles all inter&#45;window communication. ">
<polygon fill="none" stroke="#000000" points="469.4814,-148.5 469.4814,-166.5 574.9639,-166.5 574.9639,-148.5 469.4814,-148.5"/>
<text text-anchor="middle" x="522.2227" y="-154.5" font-family="Helvetica,sans-Serif" font-size="10.00" fill="#000000">MainWindow::config</text>
</a>
</g>
</g>
<!-- Node43&#45;&gt;Node46 -->
<g id="edge5" class="edge">
<title>Node43&#45;&gt;Node46</title>
<path fill="none" stroke="#191970" d="M372.0943,-114.4121C391.5627,-122.3848 417.5443,-132.4094 441.1367,-139.5 452.3227,-142.8619 464.5478,-145.8984 476.0346,-148.4788"/>
<polygon fill="#191970" stroke="#191970" points="373.4054,-111.1669 362.8274,-110.5709 370.725,-117.6333 373.4054,-111.1669"/>
</g>
<!-- Node47 -->
<g id="node7" class="node">
<title>Node47</title>
<g id="a_node7"><a xlink:href="class_main_window.html#a4680b2cbcfd388683a98303f29c0f84f" target="_top" xlink:title="MainWindow::executePassGitInit git init wrapper. ">
<polygon fill="none" stroke="#000000" points="441.1367,-111.5 441.1367,-129.5 603.3086,-129.5 603.3086,-111.5 441.1367,-111.5"/>
<text text-anchor="middle" x="522.2227" y="-117.5" font-family="Helvetica,sans-Serif" font-size="10.00" fill="#000000">MainWindow::executePassGitInit</text>
</a>
</g>
</g>
<!-- Node43&#45;&gt;Node47 -->
<g id="edge7" class="edge">
<title>Node43&#45;&gt;Node47</title>
<path fill="none" stroke="#191970" d="M415.355,-109.244C423.7983,-110.1333 432.4436,-111.0439 440.9807,-111.9431"/>
<polygon fill="#191970" stroke="#191970" points="415.4887,-105.7388 405.177,-108.172 414.7554,-112.7003 415.4887,-105.7388"/>
</g>
<!-- Node49 -->
<g id="node9" class="node">
<title>Node49</title>
<g id="a_node9"><a xlink:href="class_main_window.html#a38957de181a576efc28befeb7c47abec" target="_top" xlink:title="MainWindow::getSecretKeys get list of secret/private keys. ">
<polygon fill="none" stroke="#000000" points="450.3066,-74.5 450.3066,-92.5 594.1387,-92.5 594.1387,-74.5 450.3066,-74.5"/>
<text text-anchor="middle" x="522.2227" y="-80.5" font-family="Helvetica,sans-Serif" font-size="10.00" fill="#000000">MainWindow::getSecretKeys</text>
</a>
</g>
</g>
<!-- Node43&#45;&gt;Node49 -->
<g id="edge9" class="edge">
<title>Node43&#45;&gt;Node49</title>
<path fill="none" stroke="#191970" d="M415.1817,-94.1809C426.7001,-93.0315 438.5986,-91.8443 450.0893,-90.6977"/>
<polygon fill="#191970" stroke="#191970" points="414.7801,-90.7035 405.177,-95.1792 415.4752,-97.6689 414.7801,-90.7035"/>
</g>
<!-- Node50 -->
<g id="node10" class="node">
<title>Node50</title>
<g id="a_node10"><a xlink:href="class_main_window.html#adcd6afb4bbea0fc89cf5b5b51e387935" target="_top" xlink:title="MainWindow::generateKeyPair internal gpg keypair generator . . ">
<polygon fill="none" stroke="#000000" points="445.5776,-37.5 445.5776,-55.5 598.8677,-55.5 598.8677,-37.5 445.5776,-37.5"/>
<text text-anchor="middle" x="522.2227" y="-43.5" font-family="Helvetica,sans-Serif" font-size="10.00" fill="#000000">MainWindow::generateKeyPair</text>
</a>
</g>
</g>
<!-- Node43&#45;&gt;Node50 -->
<g id="edge11" class="edge">
<title>Node43&#45;&gt;Node50</title>
<path fill="none" stroke="#191970" d="M373.1454,-88.564C392.5079,-80.8843 417.9997,-71.3427 441.1367,-64.5 452.3374,-61.1874 464.5679,-58.1691 476.0552,-55.5904"/>
<polygon fill="#191970" stroke="#191970" points="371.6001,-85.4128 363.6237,-92.3861 374.2078,-91.9089 371.6001,-85.4128"/>
</g>
<!-- Node52 -->
<g id="node12" class="node">
<title>Node52</title>
<g id="a_node12"><a xlink:href="class_store_model.html#a5fdd936940601eb0b5da52047f282781" target="_top" xlink:title="StoreModel::dropMimeData">
<polygon fill="none" stroke="#000000" points="453.085,-.5 453.085,-18.5 591.3604,-18.5 591.3604,-.5 453.085,-.5"/>
<text text-anchor="middle" x="522.2227" y="-6.5" font-family="Helvetica,sans-Serif" font-size="10.00" fill="#000000">StoreModel::dropMimeData</text>
</a>
</g>
</g>
<!-- Node43&#45;&gt;Node52 -->
<g id="edge13" class="edge">
<title>Node43&#45;&gt;Node52</title>
<path fill="none" stroke="#191970" d="M358.4508,-85.5831C377.0924,-68.6255 408.9525,-42.238 441.1367,-27.5 449.1343,-23.8377 457.9245,-20.8987 466.6754,-18.5462"/>
<polygon fill="#191970" stroke="#191970" points="356.0309,-83.054 351.0851,-92.4236 360.7944,-88.1832 356.0309,-83.054"/>
</g>
<!-- Node45 -->
<g id="node5" class="node">
<title>Node45</title>
<g id="a_node5"><a xlink:href="class_main_window.html#a8b244be8b7b7db1b08de2a2acb9409db" target="_top" xlink:title="MainWindow::MainWindow handles all of the main functionality and also the main window. ">
<polygon fill="none" stroke="#000000" points="809.1357,-157.5 809.1357,-175.5 945.1748,-175.5 945.1748,-157.5 809.1357,-157.5"/>
<text text-anchor="middle" x="877.1553" y="-163.5" font-family="Helvetica,sans-Serif" font-size="10.00" fill="#000000">MainWindow::MainWindow</text>
</a>
</g>
</g>
<!-- Node44&#45;&gt;Node45 -->
<g id="edge4" class="edge">
<title>Node44&#45;&gt;Node45</title>
<path fill="none" stroke="#191970" d="M783.5258,-166.5C791.9805,-166.5 800.5427,-166.5 808.8774,-166.5"/>
<polygon fill="#191970" stroke="#191970" points="783.2889,-163.0001 773.2889,-166.5 783.2888,-170.0001 783.2889,-163.0001"/>
</g>
<!-- Node46&#45;&gt;Node44 -->
<g id="edge6" class="edge">
<title>Node46&#45;&gt;Node44</title>
<path fill="none" stroke="#191970" d="M585.9137,-160.6153C603.0716,-161.4546 621.6849,-162.365 639.0273,-163.2133"/>
<polygon fill="#191970" stroke="#191970" points="585.602,-157.096 575.4429,-160.1032 585.26,-164.0876 585.602,-157.096"/>
</g>
<!-- Node48 -->
<g id="node8" class="node">
<title>Node48</title>
<g id="a_node8"><a xlink:href="class_config_dialog.html#ad5b80066591f19fdaaa06b7cb5ba7f15" target="_top" xlink:title="ConfigDialog::wizard first&#45;time use wizard. ">
<polygon fill="none" stroke="#000000" points="652.3677,-102.5 652.3677,-120.5 760.0767,-120.5 760.0767,-102.5 652.3677,-102.5"/>
<text text-anchor="middle" x="706.2222" y="-108.5" font-family="Helvetica,sans-Serif" font-size="10.00" fill="#000000">ConfigDialog::wizard</text>
</a>
</g>
</g>
<!-- Node47&#45;&gt;Node48 -->
<g id="edge8" class="edge">
<title>Node47&#45;&gt;Node48</title>
<path fill="none" stroke="#191970" d="M613.5346,-116.0336C626.7333,-115.3881 639.9509,-114.7415 652.1006,-114.1473"/>
<polygon fill="#191970" stroke="#191970" points="613.2802,-112.5418 603.4631,-116.5263 613.6222,-119.5334 613.2802,-112.5418"/>
</g>
<!-- Node49&#45;&gt;Node48 -->
<g id="edge10" class="edge">
<title>Node49&#45;&gt;Node48</title>
<path fill="none" stroke="#191970" d="M591.465,-94.0369C611.5157,-97.0881 633.1053,-100.3735 652.089,-103.2623"/>
<polygon fill="#191970" stroke="#191970" points="591.8668,-90.5578 581.4541,-92.5135 590.8137,-97.4782 591.8668,-90.5578"/>
</g>
<!-- Node51 -->
<g id="node11" class="node">
<title>Node51</title>
<g id="a_node11"><a xlink:href="class_config_dialog.html#a428d1f1b69aaaf09343e3d8db42ed138" target="_top" xlink:title="ConfigDialog::genKey tunnel function to make MainWindow generate a gpg key pair. ">
<polygon fill="none" stroke="#000000" points="649.8579,-37.5 649.8579,-55.5 762.5864,-55.5 762.5864,-37.5 649.8579,-37.5"/>
<text text-anchor="middle" x="706.2222" y="-43.5" font-family="Helvetica,sans-Serif" font-size="10.00" fill="#000000">ConfigDialog::genKey</text>
</a>
</g>
</g>
<!-- Node50&#45;&gt;Node51 -->
<g id="edge12" class="edge">
<title>Node50&#45;&gt;Node51</title>
<path fill="none" stroke="#191970" d="M608.9828,-46.5C622.8623,-46.5 636.9014,-46.5 649.8309,-46.5"/>
<polygon fill="#191970" stroke="#191970" points="608.9227,-43.0001 598.9226,-46.5 608.9226,-50.0001 608.9227,-43.0001"/>
</g>
</g>
</svg>
