<?xml version="1.0" encoding="UTF-8" standalone="no"?>
<!DOCTYPE svg PUBLIC "-//W3C//DTD SVG 1.1//EN"
 "http://www.w3.org/Graphics/SVG/1.1/DTD/svg11.dtd">
<!-- Generated by graphviz version 2.38.0 (20140413.2041)
 -->
<!-- Title: QProgressIndicator::animationDelay Pages: 1 -->
<svg width="282pt" height="84pt"
 viewBox="0.00 0.00 282.22 84.00" xmlns="http://www.w3.org/2000/svg" xmlns:xlink="http://www.w3.org/1999/xlink">
<g id="graph0" class="graph" transform="scale(1 1) rotate(0) translate(4 80)">
<title>QProgressIndicator::animationDelay</title>
<!-- Node2 -->
<g id="node1" class="node"><title>Node2</title>
<polygon fill="#bfbfbf" stroke="black" points="0,-23.5 0,-51.5 102.147,-51.5 102.147,-23.5 0,-23.5"/>
<text text-anchor="start" x="8" y="-39.5" font-family="Helvetica,sans-Serif" font-size="10.00">QProgressIndicator</text>
<text text-anchor="middle" x="51.0737" y="-29.5" font-family="Helvetica,sans-Serif" font-size="10.00">::animationDelay</text>
</g>
<!-- Node3 -->
<g id="node2" class="node"><title>Node3</title>
<g id="a_node2"><a xlink:href="class_q_progress_indicator.html#aa145f555e2d7c48ecdd1517a7addf080" target="_top" xlink:title="Returns a Boolean value indicating whether the component is currently animated. ">
<polygon fill="none" stroke="black" points="155.108,-47.5 155.108,-75.5 257.255,-75.5 257.255,-47.5 155.108,-47.5"/>
<text text-anchor="start" x="163.108" y="-63.5" font-family="Helvetica,sans-Serif" font-size="10.00">QProgressIndicator</text>
<text text-anchor="middle" x="206.182" y="-53.5" font-family="Helvetica,sans-Serif" font-size="10.00">::isAnimated</text>
</a>
</g>
</g>
<!-- Node2&#45;&gt;Node3 -->
<g id="edge1" class="edge"><title>Node2&#45;&gt;Node3</title>
<path fill="none" stroke="midnightblue" d="M102.207,-45.3585C115.822,-47.4926 130.707,-49.8259 144.823,-52.0386"/>
<polygon fill="midnightblue" stroke="midnightblue" points="144.514,-55.5329 154.936,-53.6238 145.598,-48.6174 144.514,-55.5329"/>
</g>
<!-- Node4 -->
<g id="node3" class="node"><title>Node4</title>
<g id="a_node3"><a xlink:href="class_q_progress_indicator.html#a46ab1d0b77a96eea451e27c43e020286" target="_top" xlink:title="Returns a Boolean value indicating whether the receiver shows itself even when it is not animating...">
<polygon fill="none" stroke="black" points="138.147,-0.5 138.147,-28.5 274.216,-28.5 274.216,-0.5 138.147,-0.5"/>
<text text-anchor="start" x="146.147" y="-16.5" font-family="Helvetica,sans-Serif" font-size="10.00">QProgressIndicator</text>
<text text-anchor="middle" x="206.182" y="-6.5" font-family="Helvetica,sans-Serif" font-size="10.00">::isDisplayedWhenStopped</text>
</a>
</g>
</g>
<!-- Node2&#45;&gt;Node4 -->
<g id="edge2" class="edge"><title>Node2&#45;&gt;Node4</title>
<path fill="none" stroke="midnightblue" d="M102.207,-29.9689C110.508,-28.722 119.281,-27.4041 128.064,-26.0847"/>
<polygon fill="midnightblue" stroke="midnightblue" points="128.591,-29.5449 137.96,-24.5981 127.551,-22.6225 128.591,-29.5449"/>
</g>
</g>
</svg>
