<?xml version="1.0" encoding="UTF-8" standalone="no"?>
<!DOCTYPE svg PUBLIC "-//W3C//DTD SVG 1.1//EN"
 "http://www.w3.org/Graphics/SVG/1.1/DTD/svg11.dtd">
<!-- Generated by graphviz version 2.43.0 (0)
 -->
<!-- Title: StoreModel::canDropMimeData Pages: 1 -->
<svg width="314pt" height="45pt"
 viewBox="0.00 0.00 314.00 45.00" xmlns="http://www.w3.org/2000/svg" xmlns:xlink="http://www.w3.org/1999/xlink">
<g id="graph0" class="graph" transform="scale(1 1) rotate(0) translate(4 41)">
<title>StoreModel::canDropMimeData</title>
<!-- Node1 -->
<g id="Node000001" class="node">
<title>Node1</title>
<g id="a_Node000001"><a xlink:title="Check if drop is possible.">
<polygon fill="#999999" stroke="#666666" points="170,-19 0,-19 0,0 170,0 170,-19"/>
<text text-anchor="middle" x="85" y="-7" font-family="Helvetica,sans-Serif" font-size="10.00">StoreModel::canDropMimeData</text>
</a>
</g>
</g>
<!-- Node1&#45;&gt;Node1 -->
<g id="edge1_Node000001_Node000001" class="edge">
<title>Node1&#45;&gt;Node1</title>
<g id="a_edge1_Node000001_Node000001"><a xlink:title=" ">
<path fill="none" stroke="#63b8ff" d="M58.8,-19.08C46.05,-27.73 54.79,-37 85,-37 105.3,-37 115.9,-32.82 116.81,-27.45"/>
<polygon fill="#63b8ff" stroke="#63b8ff" points="119.68,-25.44 111.2,-19.08 113.86,-29.34 119.68,-25.44"/>
</a>
</g>
</g>
<!-- Node2 -->
<g id="Node000002" class="node">
<title>Node2</title>
<g id="a_Node000002"><a xlink:href="class_store_model.html#a18097d60174b1d370e13d6a04ab7847f" target="_top" xlink:title="Get display data for index.">
<polygon fill="white" stroke="#666666" points="306,-19 206,-19 206,0 306,0 306,-19"/>
<text text-anchor="middle" x="256" y="-7" font-family="Helvetica,sans-Serif" font-size="10.00">StoreModel::data</text>
</a>
</g>
</g>
<!-- Node1&#45;&gt;Node2 -->
<g id="edge2_Node000001_Node000002" class="edge">
<title>Node1&#45;&gt;Node2</title>
<g id="a_edge2_Node000001_Node000002"><a xlink:title=" ">
<path fill="none" stroke="#63b8ff" d="M170,-9.5C178.63,-9.5 187.25,-9.5 195.53,-9.5"/>
<polygon fill="#63b8ff" stroke="#63b8ff" points="195.8,-13 205.8,-9.5 195.8,-6 195.8,-13"/>
</a>
</g>
</g>
</g>
</svg>
