<?xml version="1.0" encoding="UTF-8" standalone="no"?>
<!DOCTYPE svg PUBLIC "-//W3C//DTD SVG 1.1//EN"
 "http://www.w3.org/Graphics/SVG/1.1/DTD/svg11.dtd">
<!-- Generated by graphviz version 2.49.3 (0)
 -->
<!-- Title: StoreModel::canDropMimeData Pages: 1 -->
<svg width="422pt" height="27pt"
 viewBox="0.00 0.00 422.00 27.00" xmlns="http://www.w3.org/2000/svg" xmlns:xlink="http://www.w3.org/1999/xlink">
<g id="graph0" class="graph" transform="scale(1 1) rotate(0) translate(4 23)">
<title>StoreModel::canDropMimeData</title>
<!-- Node1 -->
<g id="node1" class="node">
<title>Node1</title>
<g id="a_node1"><a xlink:title="StoreModel::canDropMimeData.">
<polygon fill="#999999" stroke="#666666" points="154,-19 0,-19 0,0 154,0 154,-19"/>
<text text-anchor="middle" x="77" y="-7" font-family="Helvetica,sans-Serif" font-size="10.00">StoreModel::canDropMimeData</text>
</a>
</g>
</g>
<!-- Node2 -->
<g id="node2" class="node">
<title>Node2</title>
<g id="a_node2"><a xlink:href="class_store_model.html#ae1cc4a6bda22ddf67e59f01642dd2ed3" target="_top" xlink:title="StoreModel::data don&#39;t show the .gpg at the end of a file.">
<polygon fill="white" stroke="#666666" points="281,-19 190,-19 190,0 281,0 281,-19"/>
<text text-anchor="middle" x="235.5" y="-7" font-family="Helvetica,sans-Serif" font-size="10.00">StoreModel::data</text>
</a>
</g>
</g>
<!-- Node1&#45;&gt;Node2 -->
<g id="edge1" class="edge">
<title>Node1&#45;&gt;Node2</title>
<path fill="none" stroke="#63b8ff" d="M154.42,-9.5C162.93,-9.5 171.47,-9.5 179.63,-9.5"/>
<polygon fill="#63b8ff" stroke="#63b8ff" points="179.75,-13 189.75,-9.5 179.75,-6 179.75,-13"/>
</g>
<!-- Node3 -->
<g id="node3" class="node">
<title>Node3</title>
<g id="a_node3"><a xlink:href="class_util.html#a892e27681ac865836bbc1639728fae64" target="_top" xlink:title=" ">
<polygon fill="white" stroke="#666666" points="414,-19 317,-19 317,0 414,0 414,-19"/>
<text text-anchor="middle" x="365.5" y="-7" font-family="Helvetica,sans-Serif" font-size="10.00">Util::endsWithGpg</text>
</a>
</g>
</g>
<!-- Node2&#45;&gt;Node3 -->
<g id="edge2" class="edge">
<title>Node2&#45;&gt;Node3</title>
<path fill="none" stroke="#63b8ff" d="M281.27,-9.5C289.47,-9.5 298.13,-9.5 306.65,-9.5"/>
<polygon fill="#63b8ff" stroke="#63b8ff" points="306.93,-13 316.93,-9.5 306.93,-6 306.93,-13"/>
</g>
</g>
</svg>
