<?xml version="1.0" encoding="UTF-8" standalone="no"?>
<!DOCTYPE svg PUBLIC "-//W3C//DTD SVG 1.1//EN"
 "http://www.w3.org/Graphics/SVG/1.1/DTD/svg11.dtd">
<!-- Generated by graphviz version 2.40.1 (20161225.0304)
 -->
<!-- Title: MainWindow::changeEvent Pages: 1 -->
<svg width="345pt" height="185pt"
 viewBox="0.00 0.00 344.84 185.00" xmlns="http://www.w3.org/2000/svg" xmlns:xlink="http://www.w3.org/1999/xlink">
<g id="graph0" class="graph" transform="scale(1 1) rotate(0) translate(4 181)">
<title>MainWindow::changeEvent</title>
<!-- Node103 -->
<g id="node1" class="node">
<title>Node103</title>
<polygon fill="#bfbfbf" stroke="#000000" points="0,-74.5 0,-92.5 137.1768,-92.5 137.1768,-74.5 0,-74.5"/>
<text text-anchor="middle" x="68.5884" y="-80.5" font-family="Helvetica,sans-Serif" font-size="10.00" fill="#000000">MainWindow::changeEvent</text>
</g>
<!-- Node104 -->
<g id="node2" class="node">
<title>Node104</title>
<g id="a_node2"><a xlink:href="class_qt_pass_settings.html#a1af7b2ff5092b5a64d28f2c1604f122c" target="_top" xlink:title="QtPassSettings::getWebDavUrl">
<polygon fill="none" stroke="#000000" points="177.3467,-158.5 177.3467,-176.5 332.668,-176.5 332.668,-158.5 177.3467,-158.5"/>
<text text-anchor="middle" x="255.0073" y="-164.5" font-family="Helvetica,sans-Serif" font-size="10.00" fill="#000000">QtPassSettings::getWebDavUrl</text>
</a>
</g>
</g>
<!-- Node103&#45;&gt;Node104 -->
<g id="edge1" class="edge">
<title>Node103&#45;&gt;Node104</title>
<path fill="none" stroke="#191970" d="M80.082,-92.6636C98.5903,-106.9613 136.6329,-134.4902 173.1768,-149.5 178.9164,-151.8575 185.0152,-153.9291 191.1942,-155.7446"/>
<polygon fill="#191970" stroke="#191970" points="190.362,-159.1453 200.93,-158.3911 192.1983,-152.3904 190.362,-159.1453"/>
</g>
<!-- Node105 -->
<g id="node3" class="node">
<title>Node105</title>
<g id="a_node3"><a xlink:href="class_qt_pass_settings.html#ae2264e1b147abca73fc2f66826a9673b" target="_top" xlink:title="QtPassSettings::getWebDav\lPassword">
<polygon fill="none" stroke="#000000" points="183.7334,-111.5 183.7334,-139.5 326.2813,-139.5 326.2813,-111.5 183.7334,-111.5"/>
<text text-anchor="start" x="191.7334" y="-127.5" font-family="Helvetica,sans-Serif" font-size="10.00" fill="#000000">QtPassSettings::getWebDav</text>
<text text-anchor="middle" x="255.0073" y="-117.5" font-family="Helvetica,sans-Serif" font-size="10.00" fill="#000000">Password</text>
</a>
</g>
</g>
<!-- Node103&#45;&gt;Node105 -->
<g id="edge2" class="edge">
<title>Node103&#45;&gt;Node105</title>
<path fill="none" stroke="#191970" d="M108.5799,-92.5101C130.2083,-97.3829 157.5859,-103.551 182.8004,-109.2319"/>
<polygon fill="#191970" stroke="#191970" points="182.184,-112.6806 192.7088,-111.4642 183.7226,-105.8518 182.184,-112.6806"/>
</g>
<!-- Node106 -->
<g id="node4" class="node">
<title>Node106</title>
<g id="a_node4"><a xlink:href="class_qt_pass_settings.html#a5b871dee9354c1da1f4747bf0f267f9b" target="_top" xlink:title="QtPassSettings::getWebDavUser">
<polygon fill="none" stroke="#000000" points="173.1768,-74.5 173.1768,-92.5 336.8379,-92.5 336.8379,-74.5 173.1768,-74.5"/>
<text text-anchor="middle" x="255.0073" y="-80.5" font-family="Helvetica,sans-Serif" font-size="10.00" fill="#000000">QtPassSettings::getWebDavUser</text>
</a>
</g>
</g>
<!-- Node103&#45;&gt;Node106 -->
<g id="edge3" class="edge">
<title>Node103&#45;&gt;Node106</title>
<path fill="none" stroke="#191970" d="M137.2097,-83.5C145.567,-83.5 154.2082,-83.5 162.8376,-83.5"/>
<polygon fill="#191970" stroke="#191970" points="162.9446,-87.0001 172.9445,-83.5 162.9445,-80.0001 162.9446,-87.0001"/>
</g>
<!-- Node107 -->
<g id="node5" class="node">
<title>Node107</title>
<g id="a_node5"><a xlink:href="class_qt_pass_settings.html#a2b30ee2cd3b185148f63fca568c33f6e" target="_top" xlink:title="QtPassSettings::setPassStore">
<polygon fill="none" stroke="#000000" points="180.0322,-37.5 180.0322,-55.5 329.9824,-55.5 329.9824,-37.5 180.0322,-37.5"/>
<text text-anchor="middle" x="255.0073" y="-43.5" font-family="Helvetica,sans-Serif" font-size="10.00" fill="#000000">QtPassSettings::setPassStore</text>
</a>
</g>
</g>
<!-- Node103&#45;&gt;Node107 -->
<g id="edge4" class="edge">
<title>Node103&#45;&gt;Node107</title>
<path fill="none" stroke="#191970" d="M114.1916,-74.4488C139.9027,-69.3457 172.22,-62.9314 199.4078,-57.5353"/>
<polygon fill="#191970" stroke="#191970" points="200.425,-60.9017 209.5522,-55.5218 199.0621,-54.0357 200.425,-60.9017"/>
</g>
<!-- Node108 -->
<g id="node6" class="node">
<title>Node108</title>
<g id="a_node6"><a xlink:href="class_qt_pass_settings.html#abb8c53443d71181a3ecd6545464453e6" target="_top" xlink:title="QtPassSettings::getPassStore">
<polygon fill="none" stroke="#000000" points="179.7515,-.5 179.7515,-18.5 330.2632,-18.5 330.2632,-.5 179.7515,-.5"/>
<text text-anchor="middle" x="255.0073" y="-6.5" font-family="Helvetica,sans-Serif" font-size="10.00" fill="#000000">QtPassSettings::getPassStore</text>
</a>
</g>
</g>
<!-- Node103&#45;&gt;Node108 -->
<g id="edge5" class="edge">
<title>Node103&#45;&gt;Node108</title>
<path fill="none" stroke="#191970" d="M82.9315,-74.4318C102.5916,-62.3642 139.3355,-41.0889 173.1768,-28.5 180.7569,-25.6802 188.8927,-23.1905 196.9878,-21.0202"/>
<polygon fill="#191970" stroke="#191970" points="197.9694,-24.3821 206.8018,-18.5306 196.2482,-17.5971 197.9694,-24.3821"/>
</g>
</g>
</svg>
