<?xml version="1.0" encoding="UTF-8" standalone="no"?>
<!DOCTYPE svg PUBLIC "-//W3C//DTD SVG 1.1//EN"
 "http://www.w3.org/Graphics/SVG/1.1/DTD/svg11.dtd">
<!-- Generated by graphviz version 2.38.0 (20140413.2041)
 -->
<!-- Title: PasswordDialog::setPass Pages: 1 -->
<svg width="479pt" height="27pt"
 viewBox="0.00 0.00 479.26 27.00" xmlns="http://www.w3.org/2000/svg" xmlns:xlink="http://www.w3.org/1999/xlink">
<g id="graph0" class="graph" transform="scale(1 1) rotate(0) translate(4 23)">
<title>PasswordDialog::setPass</title>
<!-- Node31 -->
<g id="node1" class="node"><title>Node31</title>
<polygon fill="#bfbfbf" stroke="black" points="0,-0.5 0,-18.5 129.384,-18.5 129.384,-0.5 0,-0.5"/>
<text text-anchor="middle" x="64.6919" y="-6.5" font-family="Helvetica,sans-Serif" font-size="10.00">PasswordDialog::setPass</text>
</g>
<!-- Node32 -->
<g id="node2" class="node"><title>Node32</title>
<g id="a_node2"><a xlink:href="class_main_window.html#a4680b2cbcfd388683a98303f29c0f84f" target="_top" xlink:title="MainWindow::executePassGitInit git init wrapper. ">
<polygon fill="none" stroke="black" points="165.384,-0.5 165.384,-18.5 327.556,-18.5 327.556,-0.5 165.384,-0.5"/>
<text text-anchor="middle" x="246.47" y="-6.5" font-family="Helvetica,sans-Serif" font-size="10.00">MainWindow::executePassGitInit</text>
</a>
</g>
</g>
<!-- Node31&#45;&gt;Node32 -->
<g id="edge1" class="edge"><title>Node31&#45;&gt;Node32</title>
<path fill="none" stroke="midnightblue" d="M139.694,-9.5C148.079,-9.5 156.654,-9.5 165.115,-9.5"/>
<polygon fill="midnightblue" stroke="midnightblue" points="139.581,-6.0001 129.581,-9.5 139.581,-13.0001 139.581,-6.0001"/>
</g>
<!-- Node33 -->
<g id="node3" class="node"><title>Node33</title>
<g id="a_node3"><a xlink:href="class_config_dialog.html#ad5b80066591f19fdaaa06b7cb5ba7f15" target="_top" xlink:title="ConfigDialog::wizard first&#45;time use wizard. ">
<polygon fill="none" stroke="black" points="363.556,-0.5 363.556,-18.5 471.265,-18.5 471.265,-0.5 363.556,-0.5"/>
<text text-anchor="middle" x="417.41" y="-6.5" font-family="Helvetica,sans-Serif" font-size="10.00">ConfigDialog::wizard</text>
</a>
</g>
</g>
<!-- Node32&#45;&gt;Node33 -->
<g id="edge2" class="edge"><title>Node32&#45;&gt;Node33</title>
<path fill="none" stroke="midnightblue" d="M338.168,-9.5C346.829,-9.5 355.402,-9.5 363.521,-9.5"/>
<polygon fill="midnightblue" stroke="midnightblue" points="337.982,-6.0001 327.982,-9.5 337.982,-13.0001 337.982,-6.0001"/>
</g>
</g>
</svg>
