<?xml version="1.0" encoding="UTF-8" standalone="no"?>
<!DOCTYPE svg PUBLIC "-//W3C//DTD SVG 1.1//EN"
 "http://www.w3.org/Graphics/SVG/1.1/DTD/svg11.dtd">
<!-- Generated by graphviz version 2.38.0 (20140413.2041)
 -->
<!-- Title: MainWindow::keyPressEvent Pages: 1 -->
<!--zoomable 364 -->
<svg id="main" version="1.1" xmlns="http://www.w3.org/2000/svg" xmlns:xlink="http://www.w3.org/1999/xlink" xml:space="preserve" onload="init(evt)">
<style type="text/css"><![CDATA[
.edge:hover path { stroke: red; }
.edge:hover polygon { stroke: red; fill: red; }
]]></style>
<script type="text/javascript"><![CDATA[
var edges = document.getElementsByTagName('g');
if (edges && edges.length) {
  for (var i=0;i<edges.length;i++) {
    if (edges[i].id.substr(0,4)=='edge') {
      edges[i].setAttribute('class','edge');
    }
  }
}
]]></script>
        <defs>
                <circle id="rim" cx="0" cy="0" r="7"/>
                <circle id="rim2" cx="0" cy="0" r="3.5"/>
                <g id="zoomPlus">
                        <use xlink:href="#rim" fill="#404040">
                                <set attributeName="fill" to="#808080" begin="zoomplus.mouseover" end="zoomplus.mouseout"/>
                        </use>
                        <path d="M-4,0h8M0,-4v8" fill="none" stroke="white" stroke-width="1.5" pointer-events="none"/>
                </g>
                <g id="zoomMin">
                        <use xlink:href="#rim" fill="#404040">
                                <set attributeName="fill" to="#808080" begin="zoomminus.mouseover" end="zoomminus.mouseout"/>
                        </use>
                        <path d="M-4,0h8" fill="none" stroke="white" stroke-width="1.5" pointer-events="none"/>
                </g>
                <g id="dirArrow">
                        <path fill="none" stroke="white" stroke-width="1.5" d="M0,-3.0v7 M-2.5,-0.5L0,-3.0L2.5,-0.5"/>
                </g>
               <g id="resetDef">
                       <use xlink:href="#rim2" fill="#404040">
                               <set attributeName="fill" to="#808080" begin="reset.mouseover" end="reset.mouseout"/>
                       </use>
               </g>
        </defs>

<script type="text/javascript">
var viewWidth = 699;
var viewHeight = 364;
var sectionId = 'dynsection-15';
</script>
<script xlink:href="svgpan.js"/>
<svg id="graph" class="graph">
<g id="viewport">
<title>MainWindow::keyPressEvent</title>
<!-- Node390 -->
<g id="node1" class="node"><title>Node390</title>
<polygon fill="#bfbfbf" stroke="black" points="0,-166.5 0,-184.5 145.492,-184.5 145.492,-166.5 0,-166.5"/>
<text text-anchor="middle" x="72.7461" y="-172.5" font-family="Helvetica,sans-Serif" font-size="10.00">MainWindow::keyPressEvent</text>
</g>
<!-- Node391 -->
<g id="node2" class="node"><title>Node391</title>
<g id="a_node2"><a xlink:href="class_qt_pass_settings.html#abb8c53443d71181a3ecd6545464453e6" target="_top" xlink:title="QtPassSettings::getPassStore">
<polygon fill="none" stroke="black" points="540.448,-278.5 540.448,-296.5 690.96,-296.5 690.96,-278.5 540.448,-278.5"/>
<text text-anchor="middle" x="615.704" y="-284.5" font-family="Helvetica,sans-Serif" font-size="10.00">QtPassSettings::getPassStore</text>
</a>
</g>
</g>
<!-- Node390&#45;&gt;Node391 -->
<g id="edge1" class="edge"><title>Node390&#45;&gt;Node391</title>
<path fill="none" stroke="midnightblue" d="M77.0033,-184.852C87.2091,-212.505 121.511,-293.853 181.492,-324.5 317.915,-394.203 510.309,-330.131 584.184,-300.586"/>
<polygon fill="midnightblue" stroke="midnightblue" points="585.865,-303.68 593.803,-296.664 583.221,-297.198 585.865,-303.68"/>
</g>
<!-- Node392 -->
<g id="node3" class="node"><title>Node392</title>
<g id="a_node3"><a xlink:href="class_qt_pass_settings.html#a2fd748b9e34c57aac277e8f0556a532f" target="_top" xlink:title="QtPassSettings::isUseGit">
<polygon fill="none" stroke="black" points="202.349,-296.5 202.349,-314.5 330.61,-314.5 330.61,-296.5 202.349,-296.5"/>
<text text-anchor="middle" x="266.479" y="-302.5" font-family="Helvetica,sans-Serif" font-size="10.00">QtPassSettings::isUseGit</text>
</a>
</g>
</g>
<!-- Node390&#45;&gt;Node392 -->
<g id="edge2" class="edge"><title>Node390&#45;&gt;Node392</title>
<path fill="none" stroke="midnightblue" d="M79.7492,-184.809C94.317,-206.583 133.871,-260.991 181.492,-287.5 185.23,-289.581 189.185,-291.421 193.261,-293.049"/>
<polygon fill="midnightblue" stroke="midnightblue" points="192.353,-296.44 202.947,-296.475 194.687,-289.841 192.353,-296.44"/>
</g>
<!-- Node393 -->
<g id="node4" class="node"><title>Node393</title>
<g id="a_node4"><a xlink:href="class_qt_pass_settings.html#a58728db227ada76454d01992bfef64c8" target="_top" xlink:title="QtPassSettings::isAutoPull">
<polygon fill="none" stroke="black" points="199.007,-259.5 199.007,-277.5 333.952,-277.5 333.952,-259.5 199.007,-259.5"/>
<text text-anchor="middle" x="266.479" y="-265.5" font-family="Helvetica,sans-Serif" font-size="10.00">QtPassSettings::isAutoPull</text>
</a>
</g>
</g>
<!-- Node390&#45;&gt;Node393 -->
<g id="edge3" class="edge"><title>Node390&#45;&gt;Node393</title>
<path fill="none" stroke="midnightblue" d="M83.9043,-184.698C102.082,-200.641 141.98,-233.345 181.492,-250.5 186.925,-252.859 192.694,-254.919 198.564,-256.716"/>
<polygon fill="midnightblue" stroke="midnightblue" points="197.922,-260.171 208.496,-259.5 199.811,-253.431 197.922,-260.171"/>
</g>
<!-- Node394 -->
<g id="node5" class="node"><title>Node394</title>
<g id="a_node5"><a xlink:href="class_pass.html#a67f8fad399d76d53a4639f75d9cee95c" target="_top" xlink:title="Pass::waitFor wait until process.atEnd and execQueue.isEmpty or timeout after x&#45;seconds. ">
<polygon fill="none" stroke="black" points="228.194,-222.5 228.194,-240.5 304.765,-240.5 304.765,-222.5 228.194,-222.5"/>
<text text-anchor="middle" x="266.479" y="-228.5" font-family="Helvetica,sans-Serif" font-size="10.00">Pass::waitFor</text>
</a>
</g>
</g>
<!-- Node390&#45;&gt;Node394 -->
<g id="edge4" class="edge"><title>Node390&#45;&gt;Node394</title>
<path fill="none" stroke="midnightblue" d="M96.5921,-184.517C118.217,-192.823 151.713,-205.095 181.492,-213.5 193.265,-216.823 206.117,-219.864 218.147,-222.464"/>
<polygon fill="midnightblue" stroke="midnightblue" points="217.511,-225.907 228.017,-224.54 218.952,-219.056 217.511,-225.907"/>
</g>
<!-- Node397 -->
<g id="node8" class="node"><title>Node397</title>
<g id="a_node8"><a xlink:href="class_pass.html#a821812847e66c0db1fce6f770b67d06e" target="_top" xlink:title="Pass::waitForProcess">
<polygon fill="none" stroke="black" points="210.132,-185.5 210.132,-203.5 322.827,-203.5 322.827,-185.5 210.132,-185.5"/>
<text text-anchor="middle" x="266.479" y="-191.5" font-family="Helvetica,sans-Serif" font-size="10.00">Pass::waitForProcess</text>
</a>
</g>
</g>
<!-- Node390&#45;&gt;Node397 -->
<g id="edge8" class="edge"><title>Node390&#45;&gt;Node397</title>
<path fill="none" stroke="midnightblue" d="M145.686,-182.629C163.451,-184.389 182.388,-186.266 199.836,-187.995"/>
<polygon fill="midnightblue" stroke="midnightblue" points="199.621,-191.491 209.918,-188.994 200.312,-184.525 199.621,-191.491"/>
</g>
<!-- Node398 -->
<g id="node9" class="node"><title>Node398</title>
<g id="a_node9"><a xlink:href="class_qt_pass_settings.html#a30ef36260f73f9f18d338f2b18a1f493" target="_top" xlink:title="QtPassSettings::isUsePass">
<polygon fill="none" stroke="black" points="197.623,-148.5 197.623,-166.5 335.336,-166.5 335.336,-148.5 197.623,-148.5"/>
<text text-anchor="middle" x="266.479" y="-154.5" font-family="Helvetica,sans-Serif" font-size="10.00">QtPassSettings::isUsePass</text>
</a>
</g>
</g>
<!-- Node390&#45;&gt;Node398 -->
<g id="edge9" class="edge"><title>Node390&#45;&gt;Node398</title>
<path fill="none" stroke="midnightblue" d="M145.686,-168.746C159.367,-167.462 173.743,-166.112 187.598,-164.812"/>
<polygon fill="midnightblue" stroke="midnightblue" points="187.949,-168.294 197.578,-163.875 187.295,-161.325 187.949,-168.294"/>
</g>
<!-- Node399 -->
<g id="node10" class="node"><title>Node399</title>
<g id="a_node10"><a xlink:href="class_pass.html#a0f9bdf6589cdfddcfc1a56928a4d49e4" target="_top" xlink:title="Pass::Show">
<polygon fill="none" stroke="black" points="232.078,-111.5 232.078,-129.5 300.881,-129.5 300.881,-111.5 232.078,-111.5"/>
<text text-anchor="middle" x="266.479" y="-117.5" font-family="Helvetica,sans-Serif" font-size="10.00">Pass::Show</text>
</a>
</g>
</g>
<!-- Node390&#45;&gt;Node399 -->
<g id="edge10" class="edge"><title>Node390&#45;&gt;Node399</title>
<path fill="none" stroke="midnightblue" d="M98.3498,-166.497C120.049,-158.746 152.62,-147.567 181.492,-139.5 194.444,-135.881 208.663,-132.46 221.66,-129.543"/>
<polygon fill="midnightblue" stroke="midnightblue" points="222.76,-132.885 231.774,-127.319 221.256,-126.049 222.76,-132.885"/>
</g>
<!-- Node400 -->
<g id="node11" class="node"><title>Node400</title>
<g id="a_node11"><a xlink:href="class_qt_pass_settings.html#ae105a118fa69c7c5bdf506355d20ffae" target="_top" xlink:title="QtPassSettings::isUseAutoclear">
<polygon fill="none" stroke="black" points="187.615,-74.5 187.615,-92.5 345.344,-92.5 345.344,-74.5 187.615,-74.5"/>
<text text-anchor="middle" x="266.479" y="-80.5" font-family="Helvetica,sans-Serif" font-size="10.00">QtPassSettings::isUseAutoclear</text>
</a>
</g>
</g>
<!-- Node390&#45;&gt;Node400 -->
<g id="edge11" class="edge"><title>Node390&#45;&gt;Node400</title>
<path fill="none" stroke="midnightblue" d="M84.2642,-166.36C102.678,-150.844 142.517,-119.393 181.492,-102.5 187.851,-99.7439 194.661,-97.3629 201.551,-95.3116"/>
<polygon fill="midnightblue" stroke="midnightblue" points="202.941,-98.5594 211.658,-92.5368 201.088,-91.8092 202.941,-98.5594"/>
</g>
<!-- Node401 -->
<g id="node12" class="node"><title>Node401</title>
<g id="a_node12"><a xlink:href="class_qt_pass_settings.html#aa4b984b4d3e600542482b132c8e816bc" target="_top" xlink:title="QtPassSettings::getClipBoardType">
<polygon fill="none" stroke="black" points="181.492,-37.5 181.492,-55.5 351.467,-55.5 351.467,-37.5 181.492,-37.5"/>
<text text-anchor="middle" x="266.479" y="-43.5" font-family="Helvetica,sans-Serif" font-size="10.00">QtPassSettings::getClipBoardType</text>
</a>
</g>
</g>
<!-- Node390&#45;&gt;Node401 -->
<g id="edge12" class="edge"><title>Node390&#45;&gt;Node401</title>
<path fill="none" stroke="midnightblue" d="M79.8121,-166.395C94.5156,-145.092 134.341,-91.8194 181.492,-65.5 186.026,-62.9691 190.876,-60.7752 195.873,-58.8734"/>
<polygon fill="midnightblue" stroke="midnightblue" points="197.274,-62.094 205.617,-55.5646 195.023,-55.4657 197.274,-62.094"/>
</g>
<!-- Node402 -->
<g id="node13" class="node"><title>Node402</title>
<g id="a_node13"><a xlink:href="class_qt_pass_settings.html#afae88e1bac8875b10de43f0786314761" target="_top" xlink:title="QtPassSettings::isHidePassword">
<polygon fill="none" stroke="black" points="185.394,-0.5 185.394,-18.5 347.565,-18.5 347.565,-0.5 185.394,-0.5"/>
<text text-anchor="middle" x="266.479" y="-6.5" font-family="Helvetica,sans-Serif" font-size="10.00">QtPassSettings::isHidePassword</text>
</a>
</g>
</g>
<!-- Node390&#45;&gt;Node402 -->
<g id="edge13" class="edge"><title>Node390&#45;&gt;Node402</title>
<path fill="none" stroke="midnightblue" d="M77.5118,-166.405C88.8771,-140.162 125.53,-63.871 181.492,-27.5 184.305,-25.6716 187.273,-24.0255 190.346,-22.5439"/>
<polygon fill="midnightblue" stroke="midnightblue" points="191.958,-25.6633 199.832,-18.5743 189.256,-19.2059 191.958,-25.6633"/>
</g>
<!-- Node395 -->
<g id="node6" class="node"><title>Node395</title>
<g id="a_node6"><a xlink:href="class_util.html#af3ccbdc1fddaa203dec1b5906e3e1df2" target="_top" xlink:title="Util::qSleep because . . windows sleep. ">
<polygon fill="none" stroke="black" points="412.389,-259.5 412.389,-277.5 479.526,-277.5 479.526,-259.5 412.389,-259.5"/>
<text text-anchor="middle" x="445.958" y="-265.5" font-family="Helvetica,sans-Serif" font-size="10.00">Util::qSleep</text>
</a>
</g>
</g>
<!-- Node394&#45;&gt;Node395 -->
<g id="edge5" class="edge"><title>Node394&#45;&gt;Node395</title>
<path fill="none" stroke="midnightblue" d="M305.118,-239.347C333.516,-245.267 372.506,-253.396 402.103,-259.566"/>
<polygon fill="midnightblue" stroke="midnightblue" points="401.643,-263.045 412.147,-261.66 403.072,-256.192 401.643,-263.045"/>
</g>
<!-- Node396 -->
<g id="node7" class="node"><title>Node396</title>
<g id="a_node7"><a xlink:href="class_pass.html#a7cb996367cc9308dee8be90af001d4ea" target="_top" xlink:title="Pass::executeWrapper run an application, queue when needed. ">
<polygon fill="none" stroke="black" points="387.467,-222.5 387.467,-240.5 504.448,-240.5 504.448,-222.5 387.467,-222.5"/>
<text text-anchor="middle" x="445.958" y="-228.5" font-family="Helvetica,sans-Serif" font-size="10.00">Pass::executeWrapper</text>
</a>
</g>
</g>
<!-- Node394&#45;&gt;Node396 -->
<g id="edge6" class="edge"><title>Node394&#45;&gt;Node396</title>
<path fill="none" stroke="midnightblue" d="M305.118,-231.5C326.041,-231.5 352.713,-231.5 377.142,-231.5"/>
<polygon fill="midnightblue" stroke="midnightblue" points="377.45,-235 387.45,-231.5 377.45,-228 377.45,-235"/>
</g>
<!-- Node396&#45;&gt;Node391 -->
<g id="edge7" class="edge"><title>Node396&#45;&gt;Node391</title>
<path fill="none" stroke="midnightblue" d="M474.454,-240.559C483.958,-243.698 494.674,-247.245 504.448,-250.5 529.089,-258.706 556.803,-268.007 578.282,-275.231"/>
<polygon fill="midnightblue" stroke="midnightblue" points="577.386,-278.622 587.98,-278.494 579.618,-271.988 577.386,-278.622"/>
</g>
</g>
</svg>
        <g id="navigator" transform="translate(0 0)" fill="#404254">
                <rect fill="#f2f5e9" fill-opacity="0.5" stroke="#606060" stroke-width=".5" x="0" y="0" width="60" height="60"/>
                <use id="zoomplus" xlink:href="#zoomPlus" x="17" y="9" onmousedown="handleZoom(evt,'in')"/>
                <use id="zoomminus" xlink:href="#zoomMin" x="42" y="9" onmousedown="handleZoom(evt,'out')"/>
                <use id="reset" xlink:href="#resetDef" x="30" y="36" onmousedown="handleReset()"/>
                <g id="arrowUp" xlink:href="#dirArrow" transform="translate(30 24)" onmousedown="handlePan(0,-1)">
                  <use xlink:href="#rim" fill="#404040">
                        <set attributeName="fill" to="#808080" begin="arrowUp.mouseover" end="arrowUp.mouseout"/>
                  </use>
                  <path fill="none" stroke="white" stroke-width="1.5" d="M0,-3.0v7 M-2.5,-0.5L0,-3.0L2.5,-0.5"/>
                </g>
                <g id="arrowRight" xlink:href="#dirArrow" transform="rotate(90) translate(36 -43)" onmousedown="handlePan(1,0)">
                  <use xlink:href="#rim" fill="#404040">
                        <set attributeName="fill" to="#808080" begin="arrowRight.mouseover" end="arrowRight.mouseout"/>
                  </use>
                  <path fill="none" stroke="white" stroke-width="1.5" d="M0,-3.0v7 M-2.5,-0.5L0,-3.0L2.5,-0.5"/>
                </g>
                <g id="arrowDown" xlink:href="#dirArrow" transform="rotate(180) translate(-30 -48)" onmousedown="handlePan(0,1)">
                  <use xlink:href="#rim" fill="#404040">
                        <set attributeName="fill" to="#808080" begin="arrowDown.mouseover" end="arrowDown.mouseout"/>
                  </use>
                  <path fill="none" stroke="white" stroke-width="1.5" d="M0,-3.0v7 M-2.5,-0.5L0,-3.0L2.5,-0.5"/>
                </g>
                <g id="arrowLeft" xlink:href="#dirArrow" transform="rotate(270) translate(-36 17)" onmousedown="handlePan(-1,0)">
                  <use xlink:href="#rim" fill="#404040">
                        <set attributeName="fill" to="#808080" begin="arrowLeft.mouseover" end="arrowLeft.mouseout"/>
                  </use>
                  <path fill="none" stroke="white" stroke-width="1.5" d="M0,-3.0v7 M-2.5,-0.5L0,-3.0L2.5,-0.5"/>
                </g>
        </g>
        <svg viewBox="0 0 15 15" width="100%" height="30px" preserveAspectRatio="xMaxYMin meet">
         <g id="arrow_out" transform="scale(0.3 0.3)">
          <a xlink:href="class_main_window_a9c4f542263838b9ecd06eae839a42a34_cgraph_org.svg" target="_base">
           <rect id="button" ry="5" rx="5" y="6" x="6" height="38" width="38"
                fill="#f2f5e9" fill-opacity="0.5" stroke="#606060" stroke-width="1.0"/>
           <path id="arrow"
             d="M 11.500037,31.436501 C 11.940474,20.09759 22.043105,11.32322 32.158766,21.979434 L 37.068811,17.246167 C 37.068811,17.246167 37.088388,32 37.088388,32 L 22.160133,31.978069 C 22.160133,31.978069 26.997745,27.140456 26.997745,27.140456 C 18.528582,18.264221 13.291696,25.230495 11.500037,31.436501 z"
             style="fill:#404040;"/>
          </a>
         </g>
        </svg>
</svg>
