<?xml version="1.0" encoding="UTF-8" standalone="no"?>
<!DOCTYPE svg PUBLIC "-//W3C//DTD SVG 1.1//EN"
 "http://www.w3.org/Graphics/SVG/1.1/DTD/svg11.dtd">
<!-- Generated by graphviz version 2.43.0 (0)
 -->
<!-- Title: MainWindow::showStatusMessage Pages: 1 -->
<svg width="792pt" height="203pt"
 viewBox="0.00 0.00 792.00 203.00" xmlns="http://www.w3.org/2000/svg" xmlns:xlink="http://www.w3.org/1999/xlink">
<g id="graph0" class="graph" transform="scale(1 1) rotate(0) translate(4 199)">
<title>MainWindow::showStatusMessage</title>
<!-- Node1 -->
<g id="Node000001" class="node">
<title>Node1</title>
<g id="a_Node000001"><a xlink:title="Displays message in status bar.">
<polygon fill="#999999" stroke="#666666" points="784,-75 599,-75 599,-56 784,-56 784,-75"/>
<text text-anchor="middle" x="691.5" y="-63" font-family="Helvetica,sans-Serif" font-size="10.00">MainWindow::showStatusMessage</text>
</a>
</g>
</g>
<!-- Node2 -->
<g id="Node000002" class="node">
<title>Node2</title>
<g id="a_Node000002"><a xlink:href="class_qt_pass.html#a3febdf740ba4d78a4149d7d7c3b9284e" target="_top" xlink:title="MainWindow::clearClipboard remove clipboard contents.">
<polygon fill="white" stroke="#666666" points="548,-149 422,-149 422,-130 548,-130 548,-149"/>
<text text-anchor="middle" x="485" y="-137" font-family="Helvetica,sans-Serif" font-size="10.00">QtPass::clearClipboard</text>
</a>
</g>
</g>
<!-- Node1&#45;&gt;Node2 -->
<g id="edge1_Node000001_Node000002" class="edge">
<title>Node1&#45;&gt;Node2</title>
<g id="a_edge1_Node000001_Node000002"><a xlink:title=" ">
<path fill="none" stroke="#63b8ff" d="M654.67,-78.46C614.07,-93.16 548.83,-116.76 512.54,-129.9"/>
<polygon fill="#63b8ff" stroke="#63b8ff" points="655.97,-81.72 664.18,-75.02 653.59,-75.13 655.97,-81.72"/>
</a>
</g>
</g>
<!-- Node7 -->
<g id="Node000007" class="node">
<title>Node7</title>
<g id="a_Node000007"><a xlink:href="class_qt_pass.html#acba134fb5281aedee11899a03976aa95" target="_top" xlink:title="MainWindow::copyTextToClipboard copies text to your clipboard.">
<polygon fill="white" stroke="#666666" points="563,-56 407,-56 407,-37 563,-37 563,-56"/>
<text text-anchor="middle" x="485" y="-44" font-family="Helvetica,sans-Serif" font-size="10.00">QtPass::copyTextToClipboard</text>
</a>
</g>
</g>
<!-- Node1&#45;&gt;Node7 -->
<g id="edge6_Node000001_Node000007" class="edge">
<title>Node1&#45;&gt;Node7</title>
<g id="a_edge6_Node000001_Node000007"><a xlink:title=" ">
<path fill="none" stroke="#63b8ff" d="M588.65,-56.04C580.07,-55.24 571.47,-54.44 563.12,-53.67"/>
<polygon fill="#63b8ff" stroke="#63b8ff" points="588.44,-59.53 598.72,-56.97 589.08,-52.56 588.44,-59.53"/>
</a>
</g>
</g>
<!-- Node8 -->
<g id="Node000008" class="node">
<title>Node8</title>
<g id="a_Node000008"><a xlink:href="class_main_window.html#a7997fd865548c3baa51f1863bb8fdfa0" target="_top" xlink:title=" ">
<polygon fill="white" stroke="#666666" points="371,-84 208,-84 208,-65 371,-65 371,-84"/>
<text text-anchor="middle" x="289.5" y="-72" font-family="Helvetica,sans-Serif" font-size="10.00">MainWindow::passOtpHandler</text>
</a>
</g>
</g>
<!-- Node1&#45;&gt;Node8 -->
<g id="edge10_Node000001_Node000008" class="edge">
<title>Node1&#45;&gt;Node8</title>
<g id="a_edge10_Node000001_Node000008"><a xlink:title=" ">
<path fill="none" stroke="#63b8ff" d="M588.75,-67.79C521.22,-69.31 433.81,-71.28 371.11,-72.69"/>
<polygon fill="#63b8ff" stroke="#63b8ff" points="589.06,-71.28 598.98,-67.56 588.91,-64.29 589.06,-71.28"/>
</a>
</g>
</g>
<!-- Node11 -->
<g id="Node000011" class="node">
<title>Node11</title>
<g id="a_Node000011"><a xlink:href="class_qt_pass.html#aef5aaf0605c7681967995ede486590ef" target="_top" xlink:title="displays the text as qrcode">
<polygon fill="white" stroke="#666666" points="561,-19 409,-19 409,0 561,0 561,-19"/>
<text text-anchor="middle" x="485" y="-7" font-family="Helvetica,sans-Serif" font-size="10.00">QtPass::showTextAsQRCode</text>
</a>
</g>
</g>
<!-- Node1&#45;&gt;Node11 -->
<g id="edge11_Node000001_Node000011" class="edge">
<title>Node1&#45;&gt;Node11</title>
<g id="a_edge11_Node000001_Node000011"><a xlink:title=" ">
<path fill="none" stroke="#63b8ff" d="M650.38,-52.87C625.36,-45.16 592.43,-35.32 563,-27.5 551.99,-24.57 540.02,-21.65 528.88,-19.04"/>
<polygon fill="#63b8ff" stroke="#63b8ff" points="649.66,-56.31 660.25,-55.93 651.73,-49.62 649.66,-56.31"/>
</a>
</g>
</g>
<!-- Node3 -->
<g id="Node000003" class="node">
<title>Node3</title>
<g id="a_Node000003"><a xlink:href="class_main_window.html#a05fb9d72c044aa3bb7d187b994704e2f" target="_top" xlink:title="MainWindow::closeEvent hide or quit.">
<polygon fill="white" stroke="#666666" points="358.5,-195 220.5,-195 220.5,-176 358.5,-176 358.5,-195"/>
<text text-anchor="middle" x="289.5" y="-183" font-family="Helvetica,sans-Serif" font-size="10.00">MainWindow::closeEvent</text>
</a>
</g>
</g>
<!-- Node2&#45;&gt;Node3 -->
<g id="edge2_Node000002_Node000003" class="edge">
<title>Node2&#45;&gt;Node3</title>
<g id="a_edge2_Node000002_Node000003"><a xlink:title=" ">
<path fill="none" stroke="#63b8ff" d="M436.5,-151.53C416.33,-156.57 392.54,-162.42 371,-167.5 359.01,-170.33 345.99,-173.28 333.99,-175.97"/>
<polygon fill="#63b8ff" stroke="#63b8ff" points="437.54,-154.88 446.39,-149.05 435.83,-148.09 437.54,-154.88"/>
</a>
</g>
</g>
<!-- Node4 -->
<g id="Node000004" class="node">
<title>Node4</title>
<g id="a_Node000004"><a xlink:href="class_main_window.html#ad4cf3e2c819cac398728a82f1cf05f3e" target="_top" xlink:title="MainWindow::deselect clear the selection, password and copy buffer.">
<polygon fill="white" stroke="#666666" points="352.5,-158 226.5,-158 226.5,-139 352.5,-139 352.5,-158"/>
<text text-anchor="middle" x="289.5" y="-146" font-family="Helvetica,sans-Serif" font-size="10.00">MainWindow::deselect</text>
</a>
</g>
</g>
<!-- Node2&#45;&gt;Node4 -->
<g id="edge3_Node000002_Node000004" class="edge">
<title>Node2&#45;&gt;Node4</title>
<g id="a_edge3_Node000002_Node000004"><a xlink:title=" ">
<path fill="none" stroke="#63b8ff" d="M411.91,-142.85C392.39,-143.76 371.42,-144.74 352.5,-145.62"/>
<polygon fill="#63b8ff" stroke="#63b8ff" points="412.15,-146.35 421.98,-142.38 411.83,-139.35 412.15,-146.35"/>
</a>
</g>
</g>
<!-- Node6 -->
<g id="Node000006" class="node">
<title>Node6</title>
<g id="a_Node000006"><a xlink:href="class_qt_pass.html#aa9f6862ff8875c387423b462ac7f9cad" target="_top" xlink:title=" ">
<polygon fill="white" stroke="#666666" points="334,-121 245,-121 245,-102 334,-102 334,-121"/>
<text text-anchor="middle" x="289.5" y="-109" font-family="Helvetica,sans-Serif" font-size="10.00">QtPass::QtPass</text>
</a>
</g>
</g>
<!-- Node2&#45;&gt;Node6 -->
<g id="edge5_Node000002_Node000006" class="edge">
<title>Node2&#45;&gt;Node6</title>
<g id="a_edge5_Node000002_Node000006"><a xlink:title=" ">
<path fill="none" stroke="#63b8ff" d="M411.74,-129.04C385.64,-125.27 357,-121.12 334.11,-117.81"/>
<polygon fill="#63b8ff" stroke="#63b8ff" points="411.58,-132.56 421.98,-130.53 412.58,-125.63 411.58,-132.56"/>
</a>
</g>
</g>
<!-- Node5 -->
<g id="Node000005" class="node">
<title>Node5</title>
<g id="a_Node000005"><a xlink:href="class_main_window.html#a52e97245b2f88492071e639395c4a15a" target="_top" xlink:title="MainWindow::MainWindow handles all of the main functionality and also the main window.">
<polygon fill="white" stroke="#666666" points="160,-158 12,-158 12,-139 160,-139 160,-158"/>
<text text-anchor="middle" x="86" y="-146" font-family="Helvetica,sans-Serif" font-size="10.00">MainWindow::MainWindow</text>
</a>
</g>
</g>
<!-- Node4&#45;&gt;Node5 -->
<g id="edge4_Node000004_Node000005" class="edge">
<title>Node4&#45;&gt;Node5</title>
<g id="a_edge4_Node000004_Node000005"><a xlink:title=" ">
<path fill="none" stroke="#63b8ff" d="M216.16,-148.5C197.97,-148.5 178.44,-148.5 160.21,-148.5"/>
<polygon fill="#63b8ff" stroke="#63b8ff" points="216.4,-152 226.4,-148.5 216.4,-145 216.4,-152"/>
</a>
</g>
</g>
<!-- Node7&#45;&gt;Node8 -->
<g id="edge7_Node000007_Node000008" class="edge">
<title>Node7&#45;&gt;Node8</title>
<g id="a_edge7_Node000007_Node000008"><a xlink:title=" ">
<path fill="none" stroke="#63b8ff" d="M408.26,-57.46C391.15,-59.94 373.1,-62.55 356.43,-64.96"/>
<polygon fill="#63b8ff" stroke="#63b8ff" points="408.82,-60.91 418.22,-56.02 407.82,-53.99 408.82,-60.91"/>
</a>
</g>
</g>
<!-- Node9 -->
<g id="Node000009" class="node">
<title>Node9</title>
<g id="a_Node000009"><a xlink:href="class_qt_pass.html#a74adba9dd6915c9db50762279b62be89" target="_top" xlink:title=" ">
<polygon fill="white" stroke="#666666" points="353.5,-47 225.5,-47 225.5,-28 353.5,-28 353.5,-47"/>
<text text-anchor="middle" x="289.5" y="-35" font-family="Helvetica,sans-Serif" font-size="10.00">QtPass::setClippedText</text>
</a>
</g>
</g>
<!-- Node7&#45;&gt;Node9 -->
<g id="edge8_Node000007_Node000009" class="edge">
<title>Node7&#45;&gt;Node9</title>
<g id="a_edge8_Node000007_Node000009"><a xlink:title=" ">
<path fill="none" stroke="#63b8ff" d="M396.93,-42.45C382.33,-41.77 367.44,-41.08 353.6,-40.43"/>
<polygon fill="#63b8ff" stroke="#63b8ff" points="396.82,-45.95 406.97,-42.92 397.14,-38.96 396.82,-45.95"/>
</a>
</g>
</g>
<!-- Node10 -->
<g id="Node000010" class="node">
<title>Node10</title>
<g id="a_Node000010"><a xlink:href="class_main_window.html#a0d75695e555bac7331e1ea22bc3159df" target="_top" xlink:title=" ">
<polygon fill="white" stroke="#666666" points="172,-47 0,-47 0,-28 172,-28 172,-47"/>
<text text-anchor="middle" x="86" y="-35" font-family="Helvetica,sans-Serif" font-size="10.00">MainWindow::passShowHandler</text>
</a>
</g>
</g>
<!-- Node9&#45;&gt;Node10 -->
<g id="edge9_Node000009_Node000010" class="edge">
<title>Node9&#45;&gt;Node10</title>
<g id="a_edge9_Node000009_Node000010"><a xlink:title=" ">
<path fill="none" stroke="#63b8ff" d="M215.25,-37.5C201.25,-37.5 186.48,-37.5 172.14,-37.5"/>
<polygon fill="#63b8ff" stroke="#63b8ff" points="215.3,-41 225.3,-37.5 215.3,-34 215.3,-41"/>
</a>
</g>
</g>
</g>
</svg>
