<?xml version="1.0" encoding="UTF-8" standalone="no"?>
<!DOCTYPE svg PUBLIC "-//W3C//DTD SVG 1.1//EN"
 "http://www.w3.org/Graphics/SVG/1.1/DTD/svg11.dtd">
<!-- Generated by graphviz version 2.49.3 (0)
 -->
<!-- Title: Pass::finishedRemove Pages: 1 -->
<svg width="382pt" height="64pt"
 viewBox="0.00 0.00 382.00 64.00" xmlns="http://www.w3.org/2000/svg" xmlns:xlink="http://www.w3.org/1999/xlink">
<g id="graph0" class="graph" transform="scale(1 1) rotate(0) translate(4 60)">
<title>Pass::finishedRemove</title>
<!-- Node1 -->
<g id="node1" class="node">
<title>Node1</title>
<g id="a_node1"><a xlink:title=" ">
<polygon fill="#999999" stroke="#666666" points="374,-37 260,-37 260,-18 374,-18 374,-37"/>
<text text-anchor="middle" x="317" y="-25" font-family="Helvetica,sans-Serif" font-size="10.00">Pass::finishedRemove</text>
</a>
</g>
</g>
<!-- Node2 -->
<g id="node2" class="node">
<title>Node2</title>
<g id="a_node2"><a xlink:href="class_pass.html#ad51174f24ecdbc14a55e4588a34b8563" target="_top" xlink:title="Pass::processFinished reemits specific signal based on what process has finished.">
<polygon fill="white" stroke="#666666" points="224,-37 145,-37 145,-18 224,-18 224,-37"/>
<text text-anchor="middle" x="184.5" y="-25" font-family="Helvetica,sans-Serif" font-size="10.00">Pass::finished</text>
</a>
</g>
</g>
<!-- Node1&#45;&gt;Node2 -->
<g id="edge1" class="edge">
<title>Node1&#45;&gt;Node2</title>
<path fill="none" stroke="#63b8ff" d="M249.69,-27.5C240.98,-27.5 232.29,-27.5 224.25,-27.5"/>
<polygon fill="#63b8ff" stroke="#63b8ff" points="249.9,-31 259.9,-27.5 249.9,-24 249.9,-31"/>
</g>
<!-- Node3 -->
<g id="node3" class="node">
<title>Node3</title>
<g id="a_node3"><a xlink:href="class_imitate_pass.html#ac20ec846eb423ae4b89c8efef0c1a235" target="_top" xlink:title="ImitatePass::finished this function is overloaded to ensure identical behaviour to RealPass ie....">
<polygon fill="white" stroke="#666666" points="109,-56 0,-56 0,-37 109,-37 109,-56"/>
<text text-anchor="middle" x="54.5" y="-44" font-family="Helvetica,sans-Serif" font-size="10.00">ImitatePass::finished</text>
</a>
</g>
</g>
<!-- Node2&#45;&gt;Node3 -->
<g id="edge2" class="edge">
<title>Node2&#45;&gt;Node3</title>
<path fill="none" stroke="#63b8ff" d="M134.78,-34.73C126.43,-35.97 117.71,-37.27 109.23,-38.52"/>
<polygon fill="#63b8ff" stroke="#63b8ff" points="135.37,-38.18 144.75,-33.25 134.34,-31.26 135.37,-38.18"/>
</g>
<!-- Node4 -->
<g id="node4" class="node">
<title>Node4</title>
<g id="a_node4"><a xlink:href="class_pass.html#a5d0cea4019f5c123fb4a4417de8d95b9" target="_top" xlink:title="Pass::Pass wrapper for using either pass or the pass imitation.">
<polygon fill="white" stroke="#666666" points="88.5,-19 20.5,-19 20.5,0 88.5,0 88.5,-19"/>
<text text-anchor="middle" x="54.5" y="-7" font-family="Helvetica,sans-Serif" font-size="10.00">Pass::Pass</text>
</a>
</g>
</g>
<!-- Node2&#45;&gt;Node4 -->
<g id="edge3" class="edge">
<title>Node2&#45;&gt;Node4</title>
<path fill="none" stroke="#63b8ff" d="M134.81,-20.65C119.33,-18.48 102.6,-16.12 88.5,-14.14"/>
<polygon fill="#63b8ff" stroke="#63b8ff" points="134.36,-24.12 144.75,-22.05 135.33,-17.19 134.36,-24.12"/>
</g>
</g>
</svg>
