<?xml version="1.0" encoding="UTF-8" standalone="no"?>
<!DOCTYPE svg PUBLIC "-//W3C//DTD SVG 1.1//EN"
 "http://www.w3.org/Graphics/SVG/1.1/DTD/svg11.dtd">
<!-- Generated by graphviz version 2.40.1 (20161225.0304)
 -->
<!-- Title: QtPassSettings::setAutoclearPanelSeconds Pages: 1 -->
<svg width="502pt" height="66pt"
 viewBox="0.00 0.00 502.00 66.00" xmlns="http://www.w3.org/2000/svg" xmlns:xlink="http://www.w3.org/1999/xlink">
<g id="graph0" class="graph" transform="scale(1 1) rotate(0) translate(4 62)">
<title>QtPassSettings::setAutoclearPanelSeconds</title>
<!-- Node680 -->
<g id="node1" class="node">
<title>Node680</title>
<polygon fill="#bfbfbf" stroke="#000000" points="0,-14 0,-44 146,-44 146,-14 0,-14"/>
<text text-anchor="start" x="8" y="-32" font-family="Helvetica,sans-Serif" font-size="10.00" fill="#000000">QtPassSettings::setAutoclear</text>
<text text-anchor="middle" x="73" y="-21" font-family="Helvetica,sans-Serif" font-size="10.00" fill="#000000">PanelSeconds</text>
</g>
<!-- Node681 -->
<g id="node2" class="node">
<title>Node681</title>
<g id="a_node2"><a xlink:href="class_config_dialog.html#a485badac4dffa04603f800bb9d396e1d" target="_top" xlink:title="ConfigDialog::~ConfigDialog config destructor, makes sure the mainWindow knows about git...">
<polygon fill="none" stroke="#000000" points="182,-38.5 182,-57.5 323,-57.5 323,-38.5 182,-38.5"/>
<text text-anchor="middle" x="252.5" y="-45.5" font-family="Helvetica,sans-Serif" font-size="10.00" fill="#000000">ConfigDialog::~ConfigDialog</text>
</a>
</g>
</g>
<!-- Node680&#45;&gt;Node681 -->
<g id="edge1" class="edge">
<title>Node680&#45;&gt;Node681</title>
<path fill="none" stroke="#191970" d="M156.0772,-37.7937C164.7021,-38.7066 173.4097,-39.6283 181.8789,-40.5248"/>
<polygon fill="#191970" stroke="#191970" points="156.3224,-34.3002 146.0095,-36.728 155.5855,-41.2613 156.3224,-34.3002"/>
</g>
<!-- Node682 -->
<g id="node3" class="node">
<title>Node682</title>
<g id="a_node3"><a xlink:href="class_qt_pass.html#a49e2861160fdb8d614231933f60fac47" target="_top" xlink:title="QtPass::init make sure we are ready to go as soon as possible. ">
<polygon fill="none" stroke="#000000" points="218.5,-.5 218.5,-19.5 286.5,-19.5 286.5,-.5 218.5,-.5"/>
<text text-anchor="middle" x="252.5" y="-7.5" font-family="Helvetica,sans-Serif" font-size="10.00" fill="#000000">QtPass::init</text>
</a>
</g>
</g>
<!-- Node680&#45;&gt;Node682 -->
<g id="edge2" class="edge">
<title>Node680&#45;&gt;Node682</title>
<path fill="none" stroke="#191970" d="M156.0634,-20.2078C178.0696,-17.8784 200.6149,-15.492 218.3678,-13.6129"/>
<polygon fill="#191970" stroke="#191970" points="155.5855,-16.7387 146.0095,-21.272 156.3224,-23.6998 155.5855,-16.7387"/>
</g>
<!-- Node683 -->
<g id="node4" class="node">
<title>Node683</title>
<g id="a_node4"><a xlink:href="class_main_window.html#a52e97245b2f88492071e639395c4a15a" target="_top" xlink:title="MainWindow::MainWindow handles all of the main functionality and also the main window. ">
<polygon fill="none" stroke="#000000" points="359,-.5 359,-19.5 494,-19.5 494,-.5 359,-.5"/>
<text text-anchor="middle" x="426.5" y="-7.5" font-family="Helvetica,sans-Serif" font-size="10.00" fill="#000000">MainWindow::MainWindow</text>
</a>
</g>
</g>
<!-- Node682&#45;&gt;Node683 -->
<g id="edge3" class="edge">
<title>Node682&#45;&gt;Node683</title>
<path fill="none" stroke="#191970" d="M296.9122,-10C315.6839,-10 337.9669,-10 358.7152,-10"/>
<polygon fill="#191970" stroke="#191970" points="296.8768,-6.5001 286.8768,-10 296.8768,-13.5001 296.8768,-6.5001"/>
</g>
</g>
</svg>
