<?xml version="1.0" encoding="UTF-8" standalone="no"?>
<!DOCTYPE svg PUBLIC "-//W3C//DTD SVG 1.1//EN"
 "http://www.w3.org/Graphics/SVG/1.1/DTD/svg11.dtd">
<!-- Generated by graphviz version 2.43.0 (0)
 -->
<!-- Title: ImitatePass::Init Pages: 1 -->
<svg width="1087pt" height="777pt"
 viewBox="0.00 0.00 1087.00 777.00" xmlns="http://www.w3.org/2000/svg" xmlns:xlink="http://www.w3.org/1999/xlink">
<g id="graph0" class="graph" transform="scale(1 1) rotate(0) translate(4 773)">
<title>ImitatePass::Init</title>
<!-- Node1 -->
<g id="Node000001" class="node">
<title>Node1</title>
<g id="a_Node000001"><a xlink:title="Initialize store.">
<polygon fill="#999999" stroke="#666666" points="95,-438 0,-438 0,-419 95,-419 95,-438"/>
<text text-anchor="middle" x="47.5" y="-426" font-family="Helvetica,sans-Serif" font-size="10.00">ImitatePass::Init</text>
</a>
</g>
</g>
<!-- Node2 -->
<g id="Node000002" class="node">
<title>Node2</title>
<g id="a_Node000002"><a xlink:href="class_imitate_pass.html#a607cc25575bf718f57333bb7854870b4" target="_top" xlink:title="Check if signing keys are valid.">
<polygon fill="white" stroke="#666666" points="695.5,-56 528.5,-56 528.5,-37 695.5,-37 695.5,-56"/>
<text text-anchor="middle" x="612" y="-44" font-family="Helvetica,sans-Serif" font-size="10.00">ImitatePass::checkSigningKeys</text>
</a>
</g>
</g>
<!-- Node1&#45;&gt;Node2 -->
<g id="edge1_Node000001_Node000002" class="edge">
<title>Node1&#45;&gt;Node2</title>
<g id="a_edge1_Node000001_Node000002"><a xlink:title=" ">
<path fill="none" stroke="#63b8ff" d="M49.24,-418.7C53.39,-366.32 75.68,-120.03 131,-73.5 187.54,-25.95 395.4,-31.25 518.28,-39.05"/>
<polygon fill="#63b8ff" stroke="#63b8ff" points="518.23,-42.55 528.44,-39.71 518.68,-35.56 518.23,-42.55"/>
</a>
</g>
</g>
<!-- Node5 -->
<g id="Node000005" class="node">
<title>Node5</title>
<g id="a_Node000005"><a xlink:href="class_pass.html#a0eafb54675479378ec98307f0e4fff65" target="_top" xlink:title="Emit critical error.">
<polygon fill="white" stroke="#666666" points="650.5,-241 573.5,-241 573.5,-222 650.5,-222 650.5,-241"/>
<text text-anchor="middle" x="612" y="-229" font-family="Helvetica,sans-Serif" font-size="10.00">Pass::critical</text>
</a>
</g>
</g>
<!-- Node1&#45;&gt;Node5 -->
<g id="edge4_Node000001_Node000005" class="edge">
<title>Node1&#45;&gt;Node5</title>
<g id="a_edge4_Node000001_Node000005"><a xlink:title=" ">
<path fill="none" stroke="#63b8ff" d="M51.48,-418.82C60.26,-391.44 88.09,-311.98 131,-258.5 197.72,-175.35 218.31,-144.56 319,-109.5 391.61,-84.21 429.37,-64.9 492,-109.5 531.84,-137.87 491.41,-181.04 528,-213.5 537.75,-222.15 550.66,-226.97 563.38,-229.58"/>
<polygon fill="#63b8ff" stroke="#63b8ff" points="563.05,-233.07 573.49,-231.22 564.18,-226.16 563.05,-233.07"/>
</a>
</g>
</g>
<!-- Node6 -->
<g id="Node000006" class="node">
<title>Node6</title>
<g id="a_Node000006"><a xlink:href="class_qt_pass_settings.html#af6dc725440e9961c39fbd6f567749d82" target="_top" xlink:title="Get git executable path.">
<polygon fill="white" stroke="#666666" points="915,-655 736,-655 736,-636 915,-636 915,-655"/>
<text text-anchor="middle" x="825.5" y="-643" font-family="Helvetica,sans-Serif" font-size="10.00">QtPassSettings::getGitExecutable</text>
</a>
</g>
</g>
<!-- Node1&#45;&gt;Node6 -->
<g id="edge5_Node000001_Node000006" class="edge">
<title>Node1&#45;&gt;Node6</title>
<g id="a_edge5_Node000001_Node000006"><a xlink:title=" ">
<path fill="none" stroke="#63b8ff" d="M52.6,-438.24C62.51,-460.48 89.96,-515.06 131,-541.5 315.02,-660.06 582.67,-663.38 725.68,-654.85"/>
<polygon fill="#63b8ff" stroke="#63b8ff" points="726,-658.34 735.76,-654.22 725.56,-651.35 726,-658.34"/>
</a>
</g>
</g>
<!-- Node7 -->
<g id="Node000007" class="node">
<title>Node7</title>
<g id="a_Node000007"><a xlink:href="class_qt_pass_settings.html#a7b92ee036db63e5d2b49da826b5763ee" target="_top" xlink:title="Get GPG signing key for pass.">
<polygon fill="white" stroke="#666666" points="919,-523 732,-523 732,-504 919,-504 919,-523"/>
<text text-anchor="middle" x="825.5" y="-511" font-family="Helvetica,sans-Serif" font-size="10.00">QtPassSettings::getPassSigningKey</text>
</a>
</g>
</g>
<!-- Node1&#45;&gt;Node7 -->
<g id="edge6_Node000001_Node000007" class="edge">
<title>Node1&#45;&gt;Node7</title>
<g id="a_edge6_Node000001_Node000007"><a xlink:title=" ">
<path fill="none" stroke="#63b8ff" d="M54.91,-438.13C67.32,-455.94 96.45,-493.88 131,-512.5 142.39,-518.64 522,-587.94 528,-588.5 602.35,-595.38 623.92,-608 696,-588.5 738.42,-577.03 781.2,-547.69 805.14,-529.29"/>
<polygon fill="#63b8ff" stroke="#63b8ff" points="807.36,-531.99 813.07,-523.06 803.04,-526.48 807.36,-531.99"/>
</a>
</g>
</g>
<!-- Node8 -->
<g id="Node000008" class="node">
<title>Node8</title>
<g id="a_Node000008"><a xlink:href="class_imitate_pass.html#ae9547b23ef6e8c04b52f514218e50a5c" target="_top" xlink:title="Add .gpg&#45;id to git staging.">
<polygon fill="white" stroke="#666666" points="277,-712 137,-712 137,-693 277,-693 277,-712"/>
<text text-anchor="middle" x="207" y="-700" font-family="Helvetica,sans-Serif" font-size="10.00">ImitatePass::gitAddGpgId</text>
</a>
</g>
</g>
<!-- Node1&#45;&gt;Node8 -->
<g id="edge7_Node000001_Node000008" class="edge">
<title>Node1&#45;&gt;Node8</title>
<g id="a_edge7_Node000001_Node000008"><a xlink:title=" ">
<path fill="none" stroke="#63b8ff" d="M49.53,-438.02C53.66,-471.93 71.71,-588.62 131,-659.5 141.41,-671.94 156.39,-681.54 170.24,-688.48"/>
<polygon fill="#63b8ff" stroke="#63b8ff" points="169.03,-691.78 179.57,-692.86 172,-685.44 169.03,-691.78"/>
</a>
</g>
</g>
<!-- Node15 -->
<g id="Node000015" class="node">
<title>Node15</title>
<g id="a_Node000015"><a xlink:href="class_qt_pass_settings.html#a6a8ee0f36101f65c885aa1b56c8b4c69" target="_top" xlink:title="Get whether to auto&#45;add GPG ID when receiving files.">
<polygon fill="white" stroke="#666666" points="283,-438 131,-438 131,-419 283,-419 283,-438"/>
<text text-anchor="middle" x="207" y="-426" font-family="Helvetica,sans-Serif" font-size="10.00">QtPassSettings::isAddGPGId</text>
</a>
</g>
</g>
<!-- Node1&#45;&gt;Node15 -->
<g id="edge17_Node000001_Node000015" class="edge">
<title>Node1&#45;&gt;Node15</title>
<g id="a_edge17_Node000001_Node000015"><a xlink:title=" ">
<path fill="none" stroke="#63b8ff" d="M95.33,-428.5C103.35,-428.5 111.89,-428.5 120.55,-428.5"/>
<polygon fill="#63b8ff" stroke="#63b8ff" points="120.74,-432 130.74,-428.5 120.74,-425 120.74,-432"/>
</a>
</g>
</g>
<!-- Node16 -->
<g id="Node000016" class="node">
<title>Node16</title>
<g id="a_Node000016"><a xlink:href="class_qt_pass_settings.html#a4519d1aa1f11653585e546dbfde7c8b3" target="_top" xlink:title=" ">
<polygon fill="white" stroke="#666666" points="680.5,-542 543.5,-542 543.5,-523 680.5,-523 680.5,-542"/>
<text text-anchor="middle" x="612" y="-530" font-family="Helvetica,sans-Serif" font-size="10.00">QtPassSettings::isUseGit</text>
</a>
</g>
</g>
<!-- Node1&#45;&gt;Node16 -->
<g id="edge18_Node000001_Node000016" class="edge">
<title>Node1&#45;&gt;Node16</title>
<g id="a_edge18_Node000001_Node000016"><a xlink:title=" ">
<path fill="none" stroke="#63b8ff" d="M64.87,-438.04C81.25,-447.34 107.34,-461.51 131,-471.5 212.05,-505.72 232.13,-519.55 319,-533.5 394.92,-545.69 415.11,-533.82 492,-533.5 505.25,-533.44 519.34,-533.35 533,-533.25"/>
<polygon fill="#63b8ff" stroke="#63b8ff" points="533.38,-536.75 543.35,-533.17 533.32,-529.75 533.38,-536.75"/>
</a>
</g>
</g>
<!-- Node17 -->
<g id="Node000017" class="node">
<title>Node17</title>
<g id="a_Node000017"><a xlink:href="class_qt_pass_settings.html#aacb80ca326700f2bd4987cd5cb6806fa" target="_top" xlink:title=" ">
<polygon fill="white" stroke="#666666" points="693.5,-505 530.5,-505 530.5,-486 693.5,-486 693.5,-505"/>
<text text-anchor="middle" x="612" y="-493" font-family="Helvetica,sans-Serif" font-size="10.00">QtPassSettings::isUseWebDav</text>
</a>
</g>
</g>
<!-- Node1&#45;&gt;Node17 -->
<g id="edge19_Node000001_Node000017" class="edge">
<title>Node1&#45;&gt;Node17</title>
<g id="a_edge19_Node000001_Node000017"><a xlink:title=" ">
<path fill="none" stroke="#63b8ff" d="M85.26,-438.02C99.47,-441.42 115.92,-445.02 131,-447.5 265.69,-469.65 423.43,-483.05 520.28,-489.87"/>
<polygon fill="#63b8ff" stroke="#63b8ff" points="520.11,-493.36 530.33,-490.57 520.6,-486.38 520.11,-493.36"/>
</a>
</g>
</g>
<!-- Node18 -->
<g id="Node000018" class="node">
<title>Node18</title>
<g id="a_Node000018"><a xlink:href="class_imitate_pass.html#af331446d163c31f1fca714646c0f6244" target="_top" xlink:title="Re&#45;encrypt entire directory.">
<polygon fill="white" stroke="#666666" points="280.5,-286 133.5,-286 133.5,-267 280.5,-267 280.5,-286"/>
<text text-anchor="middle" x="207" y="-274" font-family="Helvetica,sans-Serif" font-size="10.00">ImitatePass::reencryptPath</text>
</a>
</g>
</g>
<!-- Node1&#45;&gt;Node18 -->
<g id="edge20_Node000001_Node000018" class="edge">
<title>Node1&#45;&gt;Node18</title>
<g id="a_edge20_Node000001_Node000018"><a xlink:title=" ">
<path fill="none" stroke="#63b8ff" d="M58.35,-418.99C84.43,-393.83 155.5,-325.24 188.6,-293.29"/>
<polygon fill="#63b8ff" stroke="#63b8ff" points="191.39,-295.47 196.15,-286 186.53,-290.43 191.39,-295.47"/>
</a>
</g>
</g>
<!-- Node34 -->
<g id="Node000034" class="node">
<title>Node34</title>
<g id="a_Node000034"><a xlink:href="class_imitate_pass.html#aa6163e2dd259c8f69d0cead7551b573a" target="_top" xlink:title="Sign .gpg&#45;id file with signing keys.">
<polygon fill="white" stroke="#666666" points="685,-93 539,-93 539,-74 685,-74 685,-93"/>
<text text-anchor="middle" x="612" y="-81" font-family="Helvetica,sans-Serif" font-size="10.00">ImitatePass::signGpgIdFile</text>
</a>
</g>
</g>
<!-- Node1&#45;&gt;Node34 -->
<g id="edge56_Node000001_Node000034" class="edge">
<title>Node1&#45;&gt;Node34</title>
<g id="a_edge56_Node000001_Node000034"><a xlink:title=" ">
<path fill="none" stroke="#63b8ff" d="M49.72,-418.87C55.94,-371.4 85.52,-162.93 131,-119.5 186.19,-66.81 406.89,-70.97 528.89,-77.69"/>
<polygon fill="#63b8ff" stroke="#63b8ff" points="528.76,-81.19 538.94,-78.26 529.15,-74.2 528.76,-81.19"/>
</a>
</g>
</g>
<!-- Node35 -->
<g id="Node000035" class="node">
<title>Node35</title>
<g id="a_Node000035"><a xlink:href="class_imitate_pass.html#ae65aff95459cee83b5b999f5a83fcac1" target="_top" xlink:title="Write recipients to .gpg&#45;id file.">
<polygon fill="white" stroke="#666666" points="282,-382 132,-382 132,-363 282,-363 282,-382"/>
<text text-anchor="middle" x="207" y="-370" font-family="Helvetica,sans-Serif" font-size="10.00">ImitatePass::writeGpgIdFile</text>
</a>
</g>
</g>
<!-- Node1&#45;&gt;Node35 -->
<g id="edge59_Node000001_Node000035" class="edge">
<title>Node1&#45;&gt;Node35</title>
<g id="a_edge59_Node000001_Node000035"><a xlink:title=" ">
<path fill="none" stroke="#63b8ff" d="M75.58,-418.87C101.54,-409.64 140.92,-395.64 169.61,-385.44"/>
<polygon fill="#63b8ff" stroke="#63b8ff" points="171.03,-388.65 179.28,-382 168.68,-382.05 171.03,-388.65"/>
</a>
</g>
</g>
<!-- Node3 -->
<g id="Node000003" class="node">
<title>Node3</title>
<g id="a_Node000003"><a xlink:href="class_executor.html#a2673768d875e9207a6a178dd1a489828" target="_top" xlink:title="Executor::executeBlocking blocking version of the executor, takes input and presents it as stdin.">
<polygon fill="white" stroke="#666666" points="898,-149 753,-149 753,-130 898,-130 898,-149"/>
<text text-anchor="middle" x="825.5" y="-137" font-family="Helvetica,sans-Serif" font-size="10.00">Executor::executeBlocking</text>
</a>
</g>
</g>
<!-- Node2&#45;&gt;Node3 -->
<g id="edge2_Node000002_Node000003" class="edge">
<title>Node2&#45;&gt;Node3</title>
<g id="a_edge2_Node000002_Node000003"><a xlink:title=" ">
<path fill="none" stroke="#63b8ff" d="M673.48,-56.01C681.33,-58.48 689.04,-61.59 696,-65.5 716,-76.74 712.93,-89.74 732,-102.5 747,-112.54 765.14,-120.54 781.37,-126.5"/>
<polygon fill="#63b8ff" stroke="#63b8ff" points="780.58,-129.93 791.18,-129.94 782.9,-123.33 780.58,-129.93"/>
</a>
</g>
</g>
<!-- Node4 -->
<g id="Node000004" class="node">
<title>Node4</title>
<g id="a_Node000004"><a xlink:href="class_qt_pass_settings.html#a6d9beabe93c829cacdcc6c27792ffdba" target="_top" xlink:title="Get GPG executable path.">
<polygon fill="white" stroke="#666666" points="917.5,-93 733.5,-93 733.5,-74 917.5,-74 917.5,-93"/>
<text text-anchor="middle" x="825.5" y="-81" font-family="Helvetica,sans-Serif" font-size="10.00">QtPassSettings::getGpgExecutable</text>
</a>
</g>
</g>
<!-- Node2&#45;&gt;Node4 -->
<g id="edge3_Node000002_Node000004" class="edge">
<title>Node2&#45;&gt;Node4</title>
<g id="a_edge3_Node000002_Node000004"><a xlink:title=" ">
<path fill="none" stroke="#63b8ff" d="M667.47,-56.03C695.6,-60.95 730.13,-66.99 759.64,-72.15"/>
<polygon fill="#63b8ff" stroke="#63b8ff" points="759.4,-75.66 769.85,-73.94 760.6,-68.77 759.4,-75.66"/>
</a>
</g>
</g>
<!-- Node9 -->
<g id="Node000009" class="node">
<title>Node9</title>
<g id="a_Node000009"><a xlink:href="class_util.html#a2a7a32586578a9b631bc6b2a821ce616" target="_top" xlink:title="Returns a regex to match .gpg file extensions.">
<polygon fill="white" stroke="#666666" points="664.5,-579 559.5,-579 559.5,-560 664.5,-560 664.5,-579"/>
<text text-anchor="middle" x="612" y="-567" font-family="Helvetica,sans-Serif" font-size="10.00">Util::endsWithGpg</text>
</a>
</g>
</g>
<!-- Node8&#45;&gt;Node9 -->
<g id="edge8_Node000008_Node000009" class="edge">
<title>Node8&#45;&gt;Node9</title>
<g id="a_edge8_Node000008_Node000009"><a xlink:title=" ">
<path fill="none" stroke="#63b8ff" d="M236.98,-692.93C308.2,-669.43 491.82,-608.83 572.27,-582.28"/>
<polygon fill="#63b8ff" stroke="#63b8ff" points="573.61,-585.53 582.01,-579.07 571.42,-578.88 573.61,-585.53"/>
</a>
</g>
</g>
<!-- Node10 -->
<g id="Node000010" class="node">
<title>Node10</title>
<g id="a_Node000010"><a xlink:href="class_imitate_pass.html#a6f9682c6103b112a9aa844df7ef6a273" target="_top" xlink:title="Execute git command.">
<polygon fill="white" stroke="#666666" points="678,-712 546,-712 546,-693 678,-693 678,-712"/>
<text text-anchor="middle" x="612" y="-700" font-family="Helvetica,sans-Serif" font-size="10.00">ImitatePass::executeGit</text>
</a>
</g>
</g>
<!-- Node8&#45;&gt;Node10 -->
<g id="edge9_Node000008_Node000010" class="edge">
<title>Node8&#45;&gt;Node10</title>
<g id="a_edge9_Node000008_Node000010"><a xlink:title=" ">
<path fill="none" stroke="#63b8ff" d="M277.28,-702.5C349.28,-702.5 461.62,-702.5 535.76,-702.5"/>
<polygon fill="#63b8ff" stroke="#63b8ff" points="535.96,-706 545.96,-702.5 535.96,-699 535.96,-706"/>
</a>
</g>
</g>
<!-- Node14 -->
<g id="Node000014" class="node">
<title>Node14</title>
<g id="a_Node000014"><a xlink:href="class_imitate_pass.html#a4633664040a5b817c944736653778e74" target="_top" xlink:title="Commit changes to git.">
<polygon fill="white" stroke="#666666" points="472,-769 339,-769 339,-750 472,-750 472,-769"/>
<text text-anchor="middle" x="405.5" y="-757" font-family="Helvetica,sans-Serif" font-size="10.00">ImitatePass::GitCommit</text>
</a>
</g>
</g>
<!-- Node8&#45;&gt;Node14 -->
<g id="edge15_Node000008_Node000014" class="edge">
<title>Node8&#45;&gt;Node14</title>
<g id="a_edge15_Node000008_Node000014"><a xlink:title=" ">
<path fill="none" stroke="#63b8ff" d="M239.54,-712.02C261.74,-718.68 292.15,-727.74 319,-735.5 332.34,-739.35 346.87,-743.47 360.11,-747.18"/>
<polygon fill="#63b8ff" stroke="#63b8ff" points="359.36,-750.6 369.94,-749.93 361.25,-743.86 359.36,-750.6"/>
</a>
</g>
</g>
<!-- Node10&#45;&gt;Node6 -->
<g id="edge14_Node000010_Node000006" class="edge">
<title>Node10&#45;&gt;Node6</title>
<g id="a_edge14_Node000010_Node000006"><a xlink:title=" ">
<path fill="none" stroke="#63b8ff" d="M648.4,-692.96C684.32,-683.28 740.04,-668.26 779.17,-657.72"/>
<polygon fill="#63b8ff" stroke="#63b8ff" points="780.24,-661.05 788.98,-655.07 778.42,-654.29 780.24,-661.05"/>
</a>
</g>
</g>
<!-- Node11 -->
<g id="Node000011" class="node">
<title>Node11</title>
<g id="a_Node000011"><a xlink:href="class_imitate_pass.html#aa2ade77096c04fb94536d675bfaae8fe" target="_top" xlink:title="Execute command wrapper.">
<polygon fill="white" stroke="#666666" points="905,-712 746,-712 746,-693 905,-693 905,-712"/>
<text text-anchor="middle" x="825.5" y="-700" font-family="Helvetica,sans-Serif" font-size="10.00">ImitatePass::executeWrapper</text>
</a>
</g>
</g>
<!-- Node10&#45;&gt;Node11 -->
<g id="edge10_Node000010_Node000011" class="edge">
<title>Node10&#45;&gt;Node11</title>
<g id="a_edge10_Node000010_Node000011"><a xlink:title=" ">
<path fill="none" stroke="#63b8ff" d="M678.18,-702.5C696.37,-702.5 716.45,-702.5 735.75,-702.5"/>
<polygon fill="#63b8ff" stroke="#63b8ff" points="735.76,-706 745.76,-702.5 735.76,-699 735.76,-706"/>
</a>
</g>
</g>
<!-- Node12 -->
<g id="Node000012" class="node">
<title>Node12</title>
<g id="a_Node000012"><a xlink:href="class_pass.html#a66f59138ffe856fd421410d9af9ddc62" target="_top" xlink:title="Execute external wrapper command.">
<polygon fill="white" stroke="#666666" points="1079,-733 955,-733 955,-714 1079,-714 1079,-733"/>
<text text-anchor="middle" x="1017" y="-721" font-family="Helvetica,sans-Serif" font-size="10.00">Pass::executeWrapper</text>
</a>
</g>
</g>
<!-- Node11&#45;&gt;Node12 -->
<g id="edge11_Node000011_Node000012" class="edge">
<title>Node11&#45;&gt;Node12</title>
<g id="a_edge11_Node000011_Node000012"><a xlink:title=" ">
<path fill="none" stroke="#63b8ff" d="M905.22,-711.22C918.3,-712.67 931.8,-714.17 944.68,-715.6"/>
<polygon fill="#63b8ff" stroke="#63b8ff" points="944.53,-719.1 954.86,-716.72 945.3,-712.14 944.53,-719.1"/>
</a>
</g>
</g>
<!-- Node13 -->
<g id="Node000013" class="node">
<title>Node13</title>
<g id="a_Node000013"><a xlink:href="classsimple_transaction.html#a974db4056edcb408e96cf9bc2a6e4326" target="_top" xlink:title="transactionAdd If called after call to transactionStart() and before transactionEnd(),...">
<polygon fill="white" stroke="#666666" points="1072.5,-695.5 961.5,-695.5 961.5,-665.5 1072.5,-665.5 1072.5,-695.5"/>
<text text-anchor="start" x="969.5" y="-683.5" font-family="Helvetica,sans-Serif" font-size="10.00">simpleTransaction::</text>
<text text-anchor="middle" x="1017" y="-672.5" font-family="Helvetica,sans-Serif" font-size="10.00">transactionAdd</text>
</a>
</g>
</g>
<!-- Node11&#45;&gt;Node13 -->
<g id="edge13_Node000011_Node000013" class="edge">
<title>Node11&#45;&gt;Node13</title>
<g id="a_edge13_Node000011_Node000013"><a xlink:title=" ">
<path fill="none" stroke="#63b8ff" d="M905.22,-693.36C920.59,-691.58 936.53,-689.73 951.38,-688"/>
<polygon fill="#63b8ff" stroke="#63b8ff" points="951.93,-691.46 961.46,-686.83 951.12,-684.51 951.93,-691.46"/>
</a>
</g>
</g>
<!-- Node12&#45;&gt;Node12 -->
<g id="edge12_Node000012_Node000012" class="edge">
<title>Node12&#45;&gt;Node12</title>
<g id="a_edge12_Node000012_Node000012"><a xlink:title=" ">
<path fill="none" stroke="#63b8ff" d="M987.72,-733.08C973.47,-741.73 983.23,-751 1017,-751 1040.22,-751 1052.09,-746.62 1052.61,-741.07"/>
<polygon fill="#63b8ff" stroke="#63b8ff" points="1055.23,-738.75 1046.28,-733.08 1049.75,-743.1 1055.23,-738.75"/>
</a>
</g>
</g>
<!-- Node14&#45;&gt;Node10 -->
<g id="edge16_Node000014_Node000010" class="edge">
<title>Node14&#45;&gt;Node10</title>
<g id="a_edge16_Node000014_Node000010"><a xlink:title=" ">
<path fill="none" stroke="#63b8ff" d="M440.73,-749.96C475.38,-740.3 529.11,-725.32 566.93,-714.78"/>
<polygon fill="#63b8ff" stroke="#63b8ff" points="567.97,-718.13 576.66,-712.07 566.09,-711.39 567.97,-718.13"/>
</a>
</g>
</g>
<!-- Node19 -->
<g id="Node000019" class="node">
<title>Node19</title>
<g id="a_Node000019"><a xlink:href="class_imitate_pass.html#a9df2c7246a8686cf92c442c00dc55af7" target="_top" xlink:title="Emitted after finishing re&#45;encryption.">
<polygon fill="white" stroke="#666666" points="696,-130 528,-130 528,-111 696,-111 696,-130"/>
<text text-anchor="middle" x="612" y="-118" font-family="Helvetica,sans-Serif" font-size="10.00">ImitatePass::endReencryptPath</text>
</a>
</g>
</g>
<!-- Node18&#45;&gt;Node19 -->
<g id="edge21_Node000018_Node000019" class="edge">
<title>Node18&#45;&gt;Node19</title>
<g id="a_edge21_Node000018_Node000019"><a xlink:title=" ">
<path fill="none" stroke="#63b8ff" d="M280.72,-280.71C353.94,-283.39 460.45,-282.53 492,-257.5 534.95,-223.42 487.88,-176.87 528,-139.5 529.67,-137.94 531.44,-136.51 533.29,-135.18"/>
<polygon fill="#63b8ff" stroke="#63b8ff" points="535.1,-138.18 541.89,-130.04 531.51,-132.17 535.1,-138.18"/>
</a>
</g>
</g>
<!-- Node20 -->
<g id="Node000020" class="node">
<title>Node20</title>
<g id="a_Node000020"><a xlink:href="class_imitate_pass.html#aef532636a761beee3ecdd5dcedbfc834" target="_top" xlink:title="Read recipients from file.">
<polygon fill="white" stroke="#666666" points="692.5,-19 531.5,-19 531.5,0 692.5,0 692.5,-19"/>
<text text-anchor="middle" x="612" y="-7" font-family="Helvetica,sans-Serif" font-size="10.00">ImitatePass::getKeysFromFile</text>
</a>
</g>
</g>
<!-- Node18&#45;&gt;Node20 -->
<g id="edge22_Node000018_Node000020" class="edge">
<title>Node18&#45;&gt;Node20</title>
<g id="a_edge22_Node000018_Node000020"><a xlink:title=" ">
<path fill="none" stroke="#63b8ff" d="M211.94,-266.7C223.83,-238.33 262.01,-155.3 319,-109.5 381.44,-59.32 470.54,-33.64 533.86,-20.97"/>
<polygon fill="#63b8ff" stroke="#63b8ff" points="534.64,-24.38 543.8,-19.04 533.31,-17.51 534.64,-24.38"/>
</a>
</g>
</g>
<!-- Node22 -->
<g id="Node000022" class="node">
<title>Node22</title>
<g id="a_Node000022"><a xlink:href="class_imitate_pass.html#a5713b5c223fd522d0790debaa33cfbc2" target="_top" xlink:title="Pull with rebase.">
<polygon fill="white" stroke="#666666" points="673.5,-468 550.5,-468 550.5,-449 673.5,-449 673.5,-468"/>
<text text-anchor="middle" x="612" y="-456" font-family="Helvetica,sans-Serif" font-size="10.00">ImitatePass::GitPull_b</text>
</a>
</g>
</g>
<!-- Node18&#45;&gt;Node22 -->
<g id="edge26_Node000018_Node000022" class="edge">
<title>Node18&#45;&gt;Node22</title>
<g id="a_edge26_Node000018_Node000022"><a xlink:title=" ">
<path fill="none" stroke="#63b8ff" d="M218.85,-286.08C234.32,-300.09 263.03,-327.44 283,-354.5 302.61,-381.07 291.72,-400.88 319,-419.5 353.9,-443.32 465.39,-452.64 540.06,-456.25"/>
<polygon fill="#63b8ff" stroke="#63b8ff" points="540.19,-459.76 550.34,-456.72 540.51,-452.77 540.19,-459.76"/>
</a>
</g>
</g>
<!-- Node23 -->
<g id="Node000023" class="node">
<title>Node23</title>
<g id="a_Node000023"><a xlink:href="class_imitate_pass.html#ae61b400e69fcc32c4a80b94fb52107b9" target="_top" xlink:title="Push to remote.">
<polygon fill="white" stroke="#666666" points="464,-524 347,-524 347,-505 464,-505 464,-524"/>
<text text-anchor="middle" x="405.5" y="-512" font-family="Helvetica,sans-Serif" font-size="10.00">ImitatePass::GitPush</text>
</a>
</g>
</g>
<!-- Node18&#45;&gt;Node23 -->
<g id="edge29_Node000018_Node000023" class="edge">
<title>Node18&#45;&gt;Node23</title>
<g id="a_edge29_Node000018_Node000023"><a xlink:title=" ">
<path fill="none" stroke="#63b8ff" d="M219.98,-286.15C236.26,-299.81 265.37,-326.31 283,-354.5 307.61,-393.84 291,-415.5 319,-452.5 334.24,-472.64 357.83,-489.05 376.37,-499.92"/>
<polygon fill="#63b8ff" stroke="#63b8ff" points="374.85,-503.08 385.27,-504.95 378.29,-496.98 374.85,-503.08"/>
</a>
</g>
</g>
<!-- Node24 -->
<g id="Node000024" class="node">
<title>Node24</title>
<g id="a_Node000024"><a xlink:href="class_qt_pass_settings.html#a3d196817a466e574236ac869515b105a" target="_top" xlink:title=" ">
<polygon fill="white" stroke="#666666" points="477.5,-248 333.5,-248 333.5,-229 477.5,-229 477.5,-248"/>
<text text-anchor="middle" x="405.5" y="-236" font-family="Helvetica,sans-Serif" font-size="10.00">QtPassSettings::isAutoPull</text>
</a>
</g>
</g>
<!-- Node18&#45;&gt;Node24 -->
<g id="edge32_Node000018_Node000024" class="edge">
<title>Node18&#45;&gt;Node24</title>
<g id="a_edge32_Node000018_Node000024"><a xlink:title=" ">
<path fill="none" stroke="#63b8ff" d="M257.33,-266.96C283.96,-261.81 317.03,-255.42 345.07,-249.99"/>
<polygon fill="#63b8ff" stroke="#63b8ff" points="345.99,-253.38 355.15,-248.04 344.67,-246.51 345.99,-253.38"/>
</a>
</g>
</g>
<!-- Node25 -->
<g id="Node000025" class="node">
<title>Node25</title>
<g id="a_Node000025"><a xlink:href="class_qt_pass_settings.html#aed89066431636ed49ae1d65938dcd7cc" target="_top" xlink:title=" ">
<polygon fill="white" stroke="#666666" points="480,-211 331,-211 331,-192 480,-192 480,-211"/>
<text text-anchor="middle" x="405.5" y="-199" font-family="Helvetica,sans-Serif" font-size="10.00">QtPassSettings::isAutoPush</text>
</a>
</g>
</g>
<!-- Node18&#45;&gt;Node25 -->
<g id="edge33_Node000018_Node000025" class="edge">
<title>Node18&#45;&gt;Node25</title>
<g id="a_edge33_Node000018_Node000025"><a xlink:title=" ">
<path fill="none" stroke="#63b8ff" d="M223.98,-266.83C245.06,-254.46 283.63,-233.13 319,-220.5 326.35,-217.88 334.19,-215.54 342.03,-213.48"/>
<polygon fill="#63b8ff" stroke="#63b8ff" points="343.06,-216.83 351.92,-211.02 341.37,-210.04 343.06,-216.83"/>
</a>
</g>
</g>
<!-- Node26 -->
<g id="Node000026" class="node">
<title>Node26</title>
<g id="a_Node000026"><a xlink:href="class_imitate_pass.html#a707169592f98af60288e8df8a54f1230" target="_top" xlink:title="Re&#45;encrypt single file with new recipients.">
<polygon fill="white" stroke="#666666" points="492,-410 319,-410 319,-391 492,-391 492,-410"/>
<text text-anchor="middle" x="405.5" y="-398" font-family="Helvetica,sans-Serif" font-size="10.00">ImitatePass::reencryptSingleFile</text>
</a>
</g>
</g>
<!-- Node18&#45;&gt;Node26 -->
<g id="edge34_Node000018_Node000026" class="edge">
<title>Node18&#45;&gt;Node26</title>
<g id="a_edge34_Node000018_Node000026"><a xlink:title=" ">
<path fill="none" stroke="#63b8ff" d="M223.09,-286.02C257.1,-307.48 339.92,-359.75 380.83,-385.56"/>
<polygon fill="#63b8ff" stroke="#63b8ff" points="379.03,-388.57 389.36,-390.94 382.77,-382.65 379.03,-388.57"/>
</a>
</g>
</g>
<!-- Node29 -->
<g id="Node000029" class="node">
<title>Node29</title>
<g id="a_Node000029"><a xlink:href="class_imitate_pass.html#aecffecc95bd1c0281849dbfe11231e36" target="_top" xlink:title="Emitted before starting re&#45;encryption.">
<polygon fill="white" stroke="#666666" points="492,-174 319,-174 319,-155 492,-155 492,-174"/>
<text text-anchor="middle" x="405.5" y="-162" font-family="Helvetica,sans-Serif" font-size="10.00">ImitatePass::startReencryptPath</text>
</a>
</g>
</g>
<!-- Node18&#45;&gt;Node29 -->
<g id="edge44_Node000018_Node000029" class="edge">
<title>Node18&#45;&gt;Node29</title>
<g id="a_edge44_Node000018_Node000029"><a xlink:title=" ">
<path fill="none" stroke="#63b8ff" d="M216.41,-266.87C233.64,-247.79 275.03,-205.18 319,-183.5 323.94,-181.06 329.2,-178.93 334.59,-177.08"/>
<polygon fill="#63b8ff" stroke="#63b8ff" points="335.87,-180.34 344.37,-174.02 333.78,-173.66 335.87,-180.34"/>
</a>
</g>
</g>
<!-- Node30 -->
<g id="Node000030" class="node">
<title>Node30</title>
<g id="a_Node000030"><a xlink:href="class_pass.html#a404664f7d589a307c9223c373b2622c3" target="_top" xlink:title="Emit status message.">
<polygon fill="white" stroke="#666666" points="453,-137 358,-137 358,-118 453,-118 453,-137"/>
<text text-anchor="middle" x="405.5" y="-125" font-family="Helvetica,sans-Serif" font-size="10.00">Pass::statusMsg</text>
</a>
</g>
</g>
<!-- Node18&#45;&gt;Node30 -->
<g id="edge45_Node000018_Node000030" class="edge">
<title>Node18&#45;&gt;Node30</title>
<g id="a_edge45_Node000018_Node000030"><a xlink:title=" ">
<path fill="none" stroke="#63b8ff" d="M213.25,-266.81C227.05,-242.35 266.86,-177.85 319,-146.5 327.7,-141.27 337.67,-137.48 347.67,-134.72"/>
<polygon fill="#63b8ff" stroke="#63b8ff" points="348.73,-138.07 357.62,-132.3 347.08,-131.26 348.73,-138.07"/>
</a>
</g>
</g>
<!-- Node31 -->
<g id="Node000031" class="node">
<title>Node31</title>
<g id="a_Node000031"><a xlink:href="class_imitate_pass.html#a36464da28e70c06e1bdb0b3a6b977103" target="_top" xlink:title="Find .gpg&#45;id file for directory.">
<polygon fill="white" stroke="#666666" points="473.5,-334.5 337.5,-334.5 337.5,-304.5 473.5,-304.5 473.5,-334.5"/>
<text text-anchor="start" x="345.5" y="-322.5" font-family="Helvetica,sans-Serif" font-size="10.00">ImitatePass::verifyGpgId</text>
<text text-anchor="middle" x="405.5" y="-311.5" font-family="Helvetica,sans-Serif" font-size="10.00">ForDir</text>
</a>
</g>
</g>
<!-- Node18&#45;&gt;Node31 -->
<g id="edge46_Node000018_Node000031" class="edge">
<title>Node18&#45;&gt;Node31</title>
<g id="a_edge46_Node000018_Node000031"><a xlink:title=" ">
<path fill="none" stroke="#63b8ff" d="M251.61,-286.04C273.97,-290.94 301.86,-297.04 327.68,-302.69"/>
<polygon fill="#63b8ff" stroke="#63b8ff" points="326.94,-306.11 337.46,-304.83 328.43,-299.27 326.94,-306.11"/>
</a>
</g>
</g>
<!-- Node20&#45;&gt;Node3 -->
<g id="edge23_Node000020_Node000003" class="edge">
<title>Node20&#45;&gt;Node3</title>
<g id="a_edge23_Node000020_Node000003"><a xlink:title=" ">
<path fill="none" stroke="#63b8ff" d="M679.84,-19.04C685.64,-21.53 691.14,-24.64 696,-28.5 724.63,-51.26 705.22,-77.59 732,-102.5 743.53,-113.23 758.56,-121 773.14,-126.57"/>
<polygon fill="#63b8ff" stroke="#63b8ff" points="772.02,-129.89 782.62,-129.92 774.36,-123.29 772.02,-129.89"/>
</a>
</g>
</g>
<!-- Node20&#45;&gt;Node4 -->
<g id="edge24_Node000020_Node000004" class="edge">
<title>Node20&#45;&gt;Node4</title>
<g id="a_edge24_Node000020_Node000004"><a xlink:title=" ">
<path fill="none" stroke="#63b8ff" d="M661.24,-19C672.74,-21.69 684.9,-24.88 696,-28.5 731.19,-39.96 770.06,-57.28 795.73,-69.42"/>
<polygon fill="#63b8ff" stroke="#63b8ff" points="794.36,-72.64 804.89,-73.79 797.38,-66.33 794.36,-72.64"/>
</a>
</g>
</g>
<!-- Node21 -->
<g id="Node000021" class="node">
<title>Node21</title>
<g id="a_Node000021"><a xlink:href="class_util.html#aced819d4368806d046f0dc24a91843f7" target="_top" xlink:title="Returns a regex to match newline characters.">
<polygon fill="white" stroke="#666666" points="883.5,-19 767.5,-19 767.5,0 883.5,0 883.5,-19"/>
<text text-anchor="middle" x="825.5" y="-7" font-family="Helvetica,sans-Serif" font-size="10.00">Util::newLinesRegex</text>
</a>
</g>
</g>
<!-- Node20&#45;&gt;Node21 -->
<g id="edge25_Node000020_Node000021" class="edge">
<title>Node20&#45;&gt;Node21</title>
<g id="a_edge25_Node000020_Node000021"><a xlink:title=" ">
<path fill="none" stroke="#63b8ff" d="M692.66,-9.5C713.89,-9.5 736.63,-9.5 757.13,-9.5"/>
<polygon fill="#63b8ff" stroke="#63b8ff" points="757.32,-13 767.32,-9.5 757.32,-6 757.32,-13"/>
</a>
</g>
</g>
<!-- Node22&#45;&gt;Node3 -->
<g id="edge27_Node000022_Node000003" class="edge">
<title>Node22&#45;&gt;Node3</title>
<g id="a_edge27_Node000022_Node000003"><a xlink:title=" ">
<path fill="none" stroke="#63b8ff" d="M622.84,-448.78C639.64,-431.75 674.17,-394.87 696,-358.5 717.75,-322.27 711.68,-307.55 732,-270.5 755.61,-227.45 790.58,-181.55 810.06,-157.15"/>
<polygon fill="#63b8ff" stroke="#63b8ff" points="812.94,-159.16 816.49,-149.18 807.49,-154.77 812.94,-159.16"/>
</a>
</g>
</g>
<!-- Node22&#45;&gt;Node6 -->
<g id="edge28_Node000022_Node000006" class="edge">
<title>Node22&#45;&gt;Node6</title>
<g id="a_edge28_Node000022_Node000006"><a xlink:title=" ">
<path fill="none" stroke="#63b8ff" d="M673.81,-466.65C681.69,-469.33 689.33,-472.85 696,-477.5 719.98,-494.19 714.72,-508.94 732,-532.5 757.68,-567.51 790.4,-606.25 809.25,-628.06"/>
<polygon fill="#63b8ff" stroke="#63b8ff" points="806.77,-630.55 815.97,-635.81 812.06,-625.96 806.77,-630.55"/>
</a>
</g>
</g>
<!-- Node23&#45;&gt;Node10 -->
<g id="edge30_Node000023_Node000010" class="edge">
<title>Node23&#45;&gt;Node10</title>
<g id="a_edge30_Node000023_Node000010"><a xlink:title=" ">
<path fill="none" stroke="#63b8ff" d="M416.92,-524.08C449.73,-554.25 551.19,-647.52 592.86,-685.82"/>
<polygon fill="#63b8ff" stroke="#63b8ff" points="590.62,-688.52 600.35,-692.71 595.36,-683.37 590.62,-688.52"/>
</a>
</g>
</g>
<!-- Node23&#45;&gt;Node16 -->
<g id="edge31_Node000023_Node000016" class="edge">
<title>Node23&#45;&gt;Node16</title>
<g id="a_edge31_Node000023_Node000016"><a xlink:title=" ">
<path fill="none" stroke="#63b8ff" d="M464.01,-519.56C485.52,-521.46 510.31,-523.64 533.34,-525.66"/>
<polygon fill="#63b8ff" stroke="#63b8ff" points="533.17,-529.16 543.43,-526.55 533.78,-522.19 533.17,-529.16"/>
</a>
</g>
</g>
<!-- Node26&#45;&gt;Node3 -->
<g id="edge37_Node000026_Node000003" class="edge">
<title>Node26&#45;&gt;Node3</title>
<g id="a_edge37_Node000026_Node000003"><a xlink:title=" ">
<path fill="none" stroke="#63b8ff" d="M435.05,-390.97C451.69,-385.38 473.06,-378.13 492,-371.5 508.06,-365.88 511.67,-363.27 528,-358.5 601.48,-337.01 632.3,-362.96 696,-320.5 697.03,-319.81 779.47,-203.23 811.74,-157.56"/>
<polygon fill="#63b8ff" stroke="#63b8ff" points="814.74,-159.37 817.66,-149.19 809.03,-155.34 814.74,-159.37"/>
</a>
</g>
</g>
<!-- Node26&#45;&gt;Node4 -->
<g id="edge39_Node000026_Node000004" class="edge">
<title>Node26&#45;&gt;Node4</title>
<g id="a_edge39_Node000026_Node000004"><a xlink:title=" ">
<path fill="none" stroke="#63b8ff" d="M451.7,-390.95C465.53,-386.57 480.2,-380.32 492,-371.5 514.23,-354.9 504.72,-335.59 528,-320.5 591.86,-279.11 641.67,-340.78 696,-287.5 749.9,-234.64 683.52,-179.37 732,-121.5 741.42,-110.25 754.7,-102.29 768.26,-96.67"/>
<polygon fill="#63b8ff" stroke="#63b8ff" points="769.53,-99.94 777.66,-93.14 767.06,-93.38 769.53,-99.94"/>
</a>
</g>
</g>
<!-- Node26&#45;&gt;Node5 -->
<g id="edge35_Node000026_Node000005" class="edge">
<title>Node26&#45;&gt;Node5</title>
<g id="a_edge35_Node000026_Node000005"><a xlink:title=" ">
<path fill="none" stroke="#63b8ff" d="M469.45,-390.96C477.81,-387.49 485.66,-382.81 492,-376.5 533.28,-335.41 485.74,-290.57 528,-250.5 537.48,-241.51 550.31,-236.46 563.04,-233.71"/>
<polygon fill="#63b8ff" stroke="#63b8ff" points="563.91,-237.11 573.16,-231.96 562.71,-230.21 563.91,-237.11"/>
</a>
</g>
</g>
<!-- Node26&#45;&gt;Node6 -->
<g id="edge38_Node000026_Node000006" class="edge">
<title>Node26&#45;&gt;Node6</title>
<g id="a_edge38_Node000026_Node000006"><a xlink:title=" ">
<path fill="none" stroke="#63b8ff" d="M486.76,-391C550.07,-387.95 637.23,-394.17 696,-440.5 730.48,-467.68 709.82,-494.6 732,-532.5 753.8,-569.75 787.52,-607.43 807.66,-628.5"/>
<polygon fill="#63b8ff" stroke="#63b8ff" points="805.18,-630.98 814.66,-635.72 810.21,-626.1 805.18,-630.98"/>
</a>
</g>
</g>
<!-- Node26&#45;&gt;Node9 -->
<g id="edge36_Node000026_Node000009" class="edge">
<title>Node26&#45;&gt;Node9</title>
<g id="a_edge36_Node000026_Node000009"><a xlink:title=" ">
<path fill="none" stroke="#63b8ff" d="M415.99,-410.17C432.34,-427.03 466.49,-463.19 492,-496.5 509.76,-519.69 503.93,-534.95 528,-551.5 534.49,-555.96 541.89,-559.35 549.53,-561.91"/>
<polygon fill="#63b8ff" stroke="#63b8ff" points="548.72,-565.32 559.3,-564.73 550.66,-558.59 548.72,-565.32"/>
</a>
</g>
</g>
<!-- Node26&#45;&gt;Node16 -->
<g id="edge42_Node000026_Node000016" class="edge">
<title>Node26&#45;&gt;Node16</title>
<g id="a_edge42_Node000026_Node000016"><a xlink:title=" ">
<path fill="none" stroke="#63b8ff" d="M413.79,-410.28C430.98,-432.61 476.53,-487.47 528,-514.5 531.57,-516.37 535.32,-518.05 539.18,-519.56"/>
<polygon fill="#63b8ff" stroke="#63b8ff" points="538.35,-522.97 548.94,-522.95 540.64,-516.36 538.35,-522.97"/>
</a>
</g>
</g>
<!-- Node26&#45;&gt;Node17 -->
<g id="edge43_Node000026_Node000017" class="edge">
<title>Node26&#45;&gt;Node17</title>
<g id="a_edge43_Node000026_Node000017"><a xlink:title=" ">
<path fill="none" stroke="#63b8ff" d="M418.47,-410.14C439.4,-426.51 484.56,-459.68 528,-477.5 533.12,-479.6 538.51,-481.47 544,-483.13"/>
<polygon fill="#63b8ff" stroke="#63b8ff" points="543.36,-486.59 553.93,-485.91 545.25,-479.84 543.36,-486.59"/>
</a>
</g>
</g>
<!-- Node27 -->
<g id="Node000027" class="node">
<title>Node27</title>
<g id="a_Node000027"><a xlink:href="class_qt_pass_settings.html#a538e612e04fe934535e1f7525d55743c" target="_top" xlink:title="Get password store directory path.">
<polygon fill="white" stroke="#666666" points="904.5,-298 746.5,-298 746.5,-279 904.5,-279 904.5,-298"/>
<text text-anchor="middle" x="825.5" y="-286" font-family="Helvetica,sans-Serif" font-size="10.00">QtPassSettings::getPassStore</text>
</a>
</g>
</g>
<!-- Node26&#45;&gt;Node27 -->
<g id="edge40_Node000026_Node000027" class="edge">
<title>Node26&#45;&gt;Node27</title>
<g id="a_edge40_Node000026_Node000027"><a xlink:title=" ">
<path fill="none" stroke="#63b8ff" d="M492.26,-396.04C550.86,-391.08 629.62,-380.6 696,-358.5 735.71,-345.28 777.54,-320.08 802.3,-303.8"/>
<polygon fill="#63b8ff" stroke="#63b8ff" points="804.25,-306.71 810.62,-298.24 800.36,-300.88 804.25,-306.71"/>
</a>
</g>
</g>
<!-- Node28 -->
<g id="Node000028" class="node">
<title>Node28</title>
<g id="a_Node000028"><a xlink:href="class_pass.html#a693825d2ad62813cf103860ef6211370" target="_top" xlink:title="Get list of recipients for a password file.">
<polygon fill="white" stroke="#666666" points="673.5,-278 550.5,-278 550.5,-259 673.5,-259 673.5,-278"/>
<text text-anchor="middle" x="612" y="-266" font-family="Helvetica,sans-Serif" font-size="10.00">Pass::getRecipientList</text>
</a>
</g>
</g>
<!-- Node26&#45;&gt;Node28 -->
<g id="edge41_Node000026_Node000028" class="edge">
<title>Node26&#45;&gt;Node28</title>
<g id="a_edge41_Node000026_Node000028"><a xlink:title=" ">
<path fill="none" stroke="#63b8ff" d="M467,-390.9C476.09,-387.46 484.81,-382.8 492,-376.5 522.54,-349.72 497.56,-319.4 528,-292.5 532.72,-288.33 538.13,-284.88 543.87,-282.03"/>
<polygon fill="#63b8ff" stroke="#63b8ff" points="545.33,-285.21 553.11,-278.02 542.54,-278.79 545.33,-285.21"/>
</a>
</g>
</g>
<!-- Node31&#45;&gt;Node5 -->
<g id="edge47_Node000031_Node000005" class="edge">
<title>Node31&#45;&gt;Node5</title>
<g id="a_edge47_Node000031_Node000005"><a xlink:title=" ">
<path fill="none" stroke="#63b8ff" d="M464.5,-304.34C474.09,-300.59 483.62,-296.02 492,-290.5 511.97,-277.34 507.38,-262.62 528,-250.5 538.65,-244.24 551.2,-240.04 563.26,-237.22"/>
<polygon fill="#63b8ff" stroke="#63b8ff" points="564.15,-240.62 573.24,-235.17 562.74,-233.76 564.15,-240.62"/>
</a>
</g>
</g>
<!-- Node31&#45;&gt;Node19 -->
<g id="edge48_Node000031_Node000019" class="edge">
<title>Node31&#45;&gt;Node19</title>
<g id="a_edge48_Node000031_Node000019"><a xlink:title=" ">
<path fill="none" stroke="#63b8ff" d="M473.66,-304.42C480.5,-300.74 486.83,-296.18 492,-290.5 538.47,-239.5 479,-188.06 528,-139.5 529.3,-138.21 530.67,-137 532.09,-135.87"/>
<polygon fill="#63b8ff" stroke="#63b8ff" points="534.37,-138.57 540.84,-130.18 530.55,-132.7 534.37,-138.57"/>
</a>
</g>
</g>
<!-- Node31&#45;&gt;Node28 -->
<g id="edge51_Node000031_Node000028" class="edge">
<title>Node31&#45;&gt;Node28</title>
<g id="a_edge51_Node000031_Node000028"><a xlink:title=" ">
<path fill="none" stroke="#63b8ff" d="M466.75,-304.47C497.42,-296.83 534.19,-287.66 562.93,-280.49"/>
<polygon fill="#63b8ff" stroke="#63b8ff" points="563.88,-283.86 572.74,-278.04 562.19,-277.07 563.88,-283.86"/>
</a>
</g>
</g>
<!-- Node32 -->
<g id="Node000032" class="node">
<title>Node32</title>
<g id="a_Node000032"><a xlink:href="class_pass.html#a7bab4c97e4a327cc34060a67c09959bf" target="_top" xlink:title="Get .gpg&#45;id file path for a password file.">
<polygon fill="white" stroke="#666666" points="667,-204 557,-204 557,-185 667,-185 667,-204"/>
<text text-anchor="middle" x="612" y="-192" font-family="Helvetica,sans-Serif" font-size="10.00">Pass::getGpgIdPath</text>
</a>
</g>
</g>
<!-- Node31&#45;&gt;Node32 -->
<g id="edge49_Node000031_Node000032" class="edge">
<title>Node31&#45;&gt;Node32</title>
<g id="a_edge49_Node000031_Node000032"><a xlink:title=" ">
<path fill="none" stroke="#63b8ff" d="M470.41,-304.37C478.24,-300.7 485.69,-296.15 492,-290.5 520.15,-265.3 498.61,-237.23 528,-213.5 533.69,-208.9 540.29,-205.37 547.22,-202.67"/>
<polygon fill="#63b8ff" stroke="#63b8ff" points="548.45,-205.95 556.84,-199.47 546.24,-199.31 548.45,-205.95"/>
</a>
</g>
</g>
<!-- Node33 -->
<g id="Node000033" class="node">
<title>Node33</title>
<g id="a_Node000033"><a xlink:href="class_imitate_pass.html#a6ecaa7d53d661362511354e96572c240" target="_top" xlink:title="Verify .gpg&#45;id file exists and is valid.">
<polygon fill="white" stroke="#666666" points="688.5,-167 535.5,-167 535.5,-148 688.5,-148 688.5,-167"/>
<text text-anchor="middle" x="612" y="-155" font-family="Helvetica,sans-Serif" font-size="10.00">ImitatePass::verifyGpgIdFile</text>
</a>
</g>
</g>
<!-- Node31&#45;&gt;Node33 -->
<g id="edge52_Node000031_Node000033" class="edge">
<title>Node31&#45;&gt;Node33</title>
<g id="a_edge52_Node000031_Node000033"><a xlink:title=" ">
<path fill="none" stroke="#63b8ff" d="M472.41,-304.48C479.65,-300.8 486.41,-296.21 492,-290.5 529.17,-252.53 488.94,-212.52 528,-176.5 529.68,-174.95 531.45,-173.52 533.31,-172.2"/>
<polygon fill="#63b8ff" stroke="#63b8ff" points="535.12,-175.2 541.93,-167.08 531.54,-169.18 535.12,-175.2"/>
</a>
</g>
</g>
<!-- Node32&#45;&gt;Node27 -->
<g id="edge50_Node000032_Node000027" class="edge">
<title>Node32&#45;&gt;Node27</title>
<g id="a_edge50_Node000032_Node000027"><a xlink:title=" ">
<path fill="none" stroke="#63b8ff" d="M665.98,-204.1C676.11,-206.64 686.52,-209.75 696,-213.5 736,-229.32 778.34,-256.3 803.05,-273.22"/>
<polygon fill="#63b8ff" stroke="#63b8ff" points="801.11,-276.14 811.32,-278.96 805.1,-270.39 801.11,-276.14"/>
</a>
</g>
</g>
<!-- Node33&#45;&gt;Node3 -->
<g id="edge53_Node000033_Node000003" class="edge">
<title>Node33&#45;&gt;Node3</title>
<g id="a_edge53_Node000033_Node000003"><a xlink:title=" ">
<path fill="none" stroke="#63b8ff" d="M688.76,-151.05C706.2,-149.57 724.82,-147.98 742.51,-146.48"/>
<polygon fill="#63b8ff" stroke="#63b8ff" points="743.14,-149.94 752.8,-145.6 742.54,-142.96 743.14,-149.94"/>
</a>
</g>
</g>
<!-- Node33&#45;&gt;Node4 -->
<g id="edge54_Node000033_Node000004" class="edge">
<title>Node33&#45;&gt;Node4</title>
<g id="a_edge54_Node000033_Node000004"><a xlink:title=" ">
<path fill="none" stroke="#63b8ff" d="M666.68,-147.92C676.56,-145.58 686.68,-142.78 696,-139.5 712.87,-133.56 715.72,-128.9 732,-121.5 751.2,-112.77 773.01,-103.77 790.63,-96.72"/>
<polygon fill="#63b8ff" stroke="#63b8ff" points="791.95,-99.96 799.95,-93.01 789.36,-93.46 791.95,-99.96"/>
</a>
</g>
</g>
<!-- Node33&#45;&gt;Node7 -->
<g id="edge55_Node000033_Node000007" class="edge">
<title>Node33&#45;&gt;Node7</title>
<g id="a_edge55_Node000033_Node000007"><a xlink:title=" ">
<path fill="none" stroke="#63b8ff" d="M682.63,-167.12C687.51,-169.63 692.05,-172.72 696,-176.5 739.61,-218.26 711.57,-250.68 732,-307.5 757.47,-378.35 796.78,-458.83 814.83,-494.62"/>
<polygon fill="#63b8ff" stroke="#63b8ff" points="811.88,-496.53 819.52,-503.86 818.12,-493.36 811.88,-496.53"/>
</a>
</g>
</g>
<!-- Node34&#45;&gt;Node3 -->
<g id="edge57_Node000034_Node000003" class="edge">
<title>Node34&#45;&gt;Node3</title>
<g id="a_edge57_Node000034_Node000003"><a xlink:title=" ">
<path fill="none" stroke="#63b8ff" d="M656.62,-93.01C669.35,-95.91 683.26,-99.21 696,-102.5 725.47,-110.11 758.45,-119.63 783.63,-127.11"/>
<polygon fill="#63b8ff" stroke="#63b8ff" points="782.63,-130.46 793.21,-129.97 784.63,-123.75 782.63,-130.46"/>
</a>
</g>
</g>
<!-- Node34&#45;&gt;Node4 -->
<g id="edge58_Node000034_Node000004" class="edge">
<title>Node34&#45;&gt;Node4</title>
<g id="a_edge58_Node000034_Node000004"><a xlink:title=" ">
<path fill="none" stroke="#63b8ff" d="M685.19,-83.5C697.38,-83.5 710.22,-83.5 722.98,-83.5"/>
<polygon fill="#63b8ff" stroke="#63b8ff" points="723.18,-87 733.18,-83.5 723.18,-80 723.18,-87"/>
</a>
</g>
</g>
<!-- Node35&#45;&gt;Node5 -->
<g id="edge60_Node000035_Node000005" class="edge">
<title>Node35&#45;&gt;Node5</title>
<g id="a_edge60_Node000035_Node000005"><a xlink:title=" ">
<path fill="none" stroke="#63b8ff" d="M282.18,-373.49C355.16,-372.98 460.13,-367.81 492,-343.5 527.24,-316.62 494.48,-279.5 528,-250.5 537.79,-242.03 550.6,-237.13 563.21,-234.35"/>
<polygon fill="#63b8ff" stroke="#63b8ff" points="564,-237.76 573.22,-232.55 562.76,-230.88 564,-237.76"/>
</a>
</g>
</g>
</g>
</svg>
