<?xml version="1.0" encoding="UTF-8" standalone="no"?>
<!DOCTYPE svg PUBLIC "-//W3C//DTD SVG 1.1//EN"
 "http://www.w3.org/Graphics/SVG/1.1/DTD/svg11.dtd">
<!-- Generated by graphviz version 2.49.3 (0)
 -->
<!-- Title: MainWindow::passShowHandler Pages: 1 -->
<!--zoomable 505 -->
<svg id="main" version="1.1" xmlns="http://www.w3.org/2000/svg" xmlns:xlink="http://www.w3.org/1999/xlink" xml:space="preserve" onload="init(evt)">
<style type="text/css"><![CDATA[
.edge:hover path { stroke: red; }
.edge:hover polygon { stroke: red; fill: red; }
]]></style>
<script type="text/javascript"><![CDATA[
var edges = document.getElementsByTagName('g');
if (edges && edges.length) {
  for (var i=0;i<edges.length;i++) {
    if (edges[i].id.substr(0,4)=='edge') {
      edges[i].setAttribute('class','edge');
    }
  }
}
]]></script>
        <defs>
                <circle id="rim" cx="0" cy="0" r="7"/>
                <circle id="rim2" cx="0" cy="0" r="3.5"/>
                <g id="zoomPlus">
                        <use xlink:href="#rim" fill="#404040">
                                <set attributeName="fill" to="#808080" begin="zoomplus.mouseover" end="zoomplus.mouseout"/>
                        </use>
                        <path d="M-4,0h8M0,-4v8" fill="none" stroke="white" stroke-width="1.5" pointer-events="none"/>
                </g>
                <g id="zoomMin">
                        <use xlink:href="#rim" fill="#404040">
                                <set attributeName="fill" to="#808080" begin="zoomminus.mouseover" end="zoomminus.mouseout"/>
                        </use>
                        <path d="M-4,0h8" fill="none" stroke="white" stroke-width="1.5" pointer-events="none"/>
                </g>
                <g id="dirArrow">
                        <path fill="none" stroke="white" stroke-width="1.5" d="M0,-3.0v7 M-2.5,-0.5L0,-3.0L2.5,-0.5"/>
                </g>
               <g id="resetDef">
                       <use xlink:href="#rim2" fill="#404040">
                               <set attributeName="fill" to="#808080" begin="reset.mouseover" end="reset.mouseout"/>
                       </use>
               </g>
        </defs>

<script type="text/javascript">
var viewWidth = 938;
var viewHeight = 505;
var sectionId = 'dynsection-19';
</script>
<script xlink:href="svgpan.js"/>
<svg id="graph" class="graph">
<g id="viewport">
<title>MainWindow::passShowHandler</title>
<!-- Node1 -->
<g id="node1" class="node">
<title>Node1</title>
<g id="a_node1"><a xlink:title=" ">
<polygon fill="#999999" stroke="#666666" points="158,-277.5 0,-277.5 0,-258.5 158,-258.5 158,-277.5"/>
<text text-anchor="middle" x="79" y="-265.5" font-family="Helvetica,sans-Serif" font-size="10.00">MainWindow::passShowHandler</text>
</a>
</g>
</g>
<!-- Node2 -->
<g id="node2" class="node">
<title>Node2</title>
<g id="a_node2"><a xlink:href="class_file_content.html#ab1a615b719c41f631821e06009c530a2" target="_top" xlink:title=" ">
<polygon fill="white" stroke="#666666" points="340,-496.5 194,-496.5 194,-477.5 340,-477.5 340,-496.5"/>
<text text-anchor="middle" x="267" y="-484.5" font-family="Helvetica,sans-Serif" font-size="10.00">FileContent::getNamedValues</text>
</a>
</g>
</g>
<!-- Node1&#45;&gt;Node2 -->
<g id="edge1" class="edge">
<title>Node1&#45;&gt;Node2</title>
<path fill="none" stroke="#63b8ff" d="M82.94,-277.75C92.96,-309.38 128.84,-410.12 194,-463 199.22,-467.24 205.23,-470.74 211.49,-473.63"/>
<polygon fill="#63b8ff" stroke="#63b8ff" points="210.22,-476.9 220.8,-477.45 212.88,-470.42 210.22,-476.9"/>
</g>
<!-- Node3 -->
<g id="node3" class="node">
<title>Node3</title>
<g id="a_node3"><a xlink:href="class_qt_pass_settings.html#a3c0463005c07a4dc0384bf8e63696aa4" target="_top" xlink:title=" ">
<polygon fill="white" stroke="#666666" points="544,-436.5 377,-436.5 377,-417.5 544,-417.5 544,-436.5"/>
<text text-anchor="middle" x="460.5" y="-424.5" font-family="Helvetica,sans-Serif" font-size="10.00">QtPassSettings::getPassTemplate</text>
</a>
</g>
</g>
<!-- Node1&#45;&gt;Node3 -->
<g id="edge2" class="edge">
<title>Node1&#45;&gt;Node3</title>
<path fill="none" stroke="#63b8ff" d="M83.21,-277.74C93.58,-307.36 129.29,-396.41 194,-430 265.45,-467.09 362.96,-452.18 417.74,-438.96"/>
<polygon fill="#63b8ff" stroke="#63b8ff" points="418.6,-442.35 427.45,-436.52 416.9,-435.56 418.6,-442.35"/>
</g>
<!-- Node5 -->
<g id="node5" class="node">
<title>Node5</title>
<g id="a_node5"><a xlink:href="class_file_content.html#aab89c859cfde0d9d1ed8de89e07ca231" target="_top" xlink:title=" ">
<polygon fill="white" stroke="#666666" points="331.5,-420.5 202.5,-420.5 202.5,-401.5 331.5,-401.5 331.5,-420.5"/>
<text text-anchor="middle" x="267" y="-408.5" font-family="Helvetica,sans-Serif" font-size="10.00">FileContent::getPassword</text>
</a>
</g>
</g>
<!-- Node1&#45;&gt;Node5 -->
<g id="edge4" class="edge">
<title>Node1&#45;&gt;Node5</title>
<path fill="none" stroke="#63b8ff" d="M86.1,-277.8C101.27,-301.33 143.17,-361.34 194,-392 197.61,-394.18 201.47,-396.11 205.46,-397.82"/>
<polygon fill="#63b8ff" stroke="#63b8ff" points="204.34,-401.14 214.94,-401.43 206.84,-394.6 204.34,-401.14"/>
</g>
<!-- Node6 -->
<g id="node6" class="node">
<title>Node6</title>
<g id="a_node6"><a xlink:href="class_file_content.html#aa6b84eeab1281d6a938e9efb2054d2b0" target="_top" xlink:title=" ">
<polygon fill="white" stroke="#666666" points="332.5,-383 201.5,-383 201.5,-353 332.5,-353 332.5,-383"/>
<text text-anchor="start" x="209.5" y="-371" font-family="Helvetica,sans-Serif" font-size="10.00">FileContent::getRemaining</text>
<text text-anchor="middle" x="267" y="-360" font-family="Helvetica,sans-Serif" font-size="10.00">DataForDisplay</text>
</a>
</g>
</g>
<!-- Node1&#45;&gt;Node6 -->
<g id="edge5" class="edge">
<title>Node1&#45;&gt;Node6</title>
<path fill="none" stroke="#63b8ff" d="M93.59,-277.55C114.51,-292 156.16,-319.78 194,-339 200.93,-342.52 208.39,-345.92 215.79,-349.09"/>
<polygon fill="#63b8ff" stroke="#63b8ff" points="214.51,-352.34 225.08,-352.96 217.2,-345.88 214.51,-352.34"/>
</g>
<!-- Node7 -->
<g id="node7" class="node">
<title>Node7</title>
<g id="a_node7"><a xlink:href="class_qt_pass_settings.html#a5d2dc8dbab1faf11cc8a0479d450bd55" target="_top" xlink:title=" ">
<polygon fill="white" stroke="#666666" points="536.5,-339.5 384.5,-339.5 384.5,-320.5 536.5,-320.5 536.5,-339.5"/>
<text text-anchor="middle" x="460.5" y="-327.5" font-family="Helvetica,sans-Serif" font-size="10.00">QtPassSettings::isDisplayAsIs</text>
</a>
</g>
</g>
<!-- Node1&#45;&gt;Node7 -->
<g id="edge6" class="edge">
<title>Node1&#45;&gt;Node7</title>
<path fill="none" stroke="#63b8ff" d="M119.94,-277.55C141.75,-282.57 169.27,-288.57 194,-293 253.91,-303.73 321.9,-313.15 374.08,-319.8"/>
<polygon fill="#63b8ff" stroke="#63b8ff" points="373.94,-323.31 384.3,-321.1 374.81,-316.37 373.94,-323.31"/>
</g>
<!-- Node8 -->
<g id="node8" class="node">
<title>Node8</title>
<g id="a_node8"><a xlink:href="class_qt_pass_settings.html#ab5b58e57b575de35baaf5701c3db4838" target="_top" xlink:title=" ">
<polygon fill="white" stroke="#666666" points="537.5,-300.5 383.5,-300.5 383.5,-281.5 537.5,-281.5 537.5,-300.5"/>
<text text-anchor="middle" x="460.5" y="-288.5" font-family="Helvetica,sans-Serif" font-size="10.00">QtPassSettings::isHideContent</text>
</a>
</g>
</g>
<!-- Node1&#45;&gt;Node8 -->
<g id="edge8" class="edge">
<title>Node1&#45;&gt;Node8</title>
<path fill="none" stroke="#63b8ff" d="M158.17,-272.74C220.78,-276.53 308.54,-281.85 373.2,-285.77"/>
<polygon fill="#63b8ff" stroke="#63b8ff" points="373.18,-289.27 383.37,-286.39 373.6,-282.29 373.18,-289.27"/>
</g>
<!-- Node9 -->
<g id="node9" class="node">
<title>Node9</title>
<g id="a_node9"><a xlink:href="class_qt_pass_settings.html#a1e65645c63846fcf2d51897e76e6d0c0" target="_top" xlink:title=" ">
<polygon fill="white" stroke="#666666" points="735.5,-265 596.5,-265 596.5,-235 735.5,-235 735.5,-265"/>
<text text-anchor="start" x="604.5" y="-253" font-family="Helvetica,sans-Serif" font-size="10.00">QtPassSettings::isTemplate</text>
<text text-anchor="middle" x="666" y="-242" font-family="Helvetica,sans-Serif" font-size="10.00">AllFields</text>
</a>
</g>
</g>
<!-- Node1&#45;&gt;Node9 -->
<g id="edge10" class="edge">
<title>Node1&#45;&gt;Node9</title>
<path fill="none" stroke="#63b8ff" d="M158.29,-265.59C270,-262.15 473.98,-255.88 586.05,-252.43"/>
<polygon fill="#63b8ff" stroke="#63b8ff" points="586.39,-255.92 596.27,-252.11 586.17,-248.92 586.39,-255.92"/>
</g>
<!-- Node10 -->
<g id="node10" class="node">
<title>Node10</title>
<g id="a_node10"><a xlink:href="class_qt_pass_settings.html#a08da66be339de2cfe0780de61b2b7b28" target="_top" xlink:title=" ">
<polygon fill="white" stroke="#666666" points="539.5,-223 381.5,-223 381.5,-193 539.5,-193 539.5,-223"/>
<text text-anchor="start" x="389.5" y="-211" font-family="Helvetica,sans-Serif" font-size="10.00">QtPassSettings::isUseAutoclear</text>
<text text-anchor="middle" x="460.5" y="-200" font-family="Helvetica,sans-Serif" font-size="10.00">Panel</text>
</a>
</g>
</g>
<!-- Node1&#45;&gt;Node10 -->
<g id="edge12" class="edge">
<title>Node1&#45;&gt;Node10</title>
<path fill="none" stroke="#63b8ff" d="M107.77,-258.44C130.64,-250.93 164.06,-240.81 194,-235 252.53,-223.65 319.29,-216.89 371.23,-212.97"/>
<polygon fill="#63b8ff" stroke="#63b8ff" points="371.7,-216.45 381.41,-212.22 371.18,-209.46 371.7,-216.45"/>
</g>
<!-- Node11 -->
<g id="node11" class="node">
<title>Node11</title>
<g id="a_node11"><a xlink:href="class_qt_pass_settings.html#a106e2f75cc1dda481bdf253f640a9283" target="_top" xlink:title=" ">
<polygon fill="white" stroke="#666666" points="744.5,-178.5 587.5,-178.5 587.5,-159.5 744.5,-159.5 744.5,-178.5"/>
<text text-anchor="middle" x="666" y="-166.5" font-family="Helvetica,sans-Serif" font-size="10.00">QtPassSettings::isUseTemplate</text>
</a>
</g>
</g>
<!-- Node1&#45;&gt;Node11 -->
<g id="edge14" class="edge">
<title>Node1&#45;&gt;Node11</title>
<path fill="none" stroke="#63b8ff" d="M95.2,-258.43C116.45,-245.52 156.65,-222.78 194,-211 322.8,-170.39 480.56,-164.63 576.87,-165.7"/>
<polygon fill="#63b8ff" stroke="#63b8ff" points="577.1,-169.2 587.15,-165.84 577.2,-162.2 577.1,-169.2"/>
</g>
<!-- Node12 -->
<g id="node12" class="node">
<title>Node12</title>
<g id="a_node12"><a xlink:href="class_file_content.html#abef563f253a931af308232c66e032153" target="_top" xlink:title="parse parses the given fileContent in a FileContent object. The password is accessible through getPas...">
<polygon fill="white" stroke="#666666" points="315,-140.5 219,-140.5 219,-121.5 315,-121.5 315,-140.5"/>
<text text-anchor="middle" x="267" y="-128.5" font-family="Helvetica,sans-Serif" font-size="10.00">FileContent::parse</text>
</a>
</g>
</g>
<!-- Node1&#45;&gt;Node12 -->
<g id="edge16" class="edge">
<title>Node1&#45;&gt;Node12</title>
<path fill="none" stroke="#63b8ff" d="M87.16,-258.34C103.65,-236.74 146.53,-184.2 194,-155 201.02,-150.68 208.91,-147.04 216.83,-144"/>
<polygon fill="#63b8ff" stroke="#63b8ff" points="218.18,-147.24 226.43,-140.59 215.84,-140.64 218.18,-147.24"/>
</g>
<!-- Node13 -->
<g id="node13" class="node">
<title>Node13</title>
<g id="a_node13"><a xlink:href="class_qt_pass.html#a74adba9dd6915c9db50762279b62be89" target="_top" xlink:title=" ">
<polygon fill="white" stroke="#666666" points="327.5,-103.5 206.5,-103.5 206.5,-84.5 327.5,-84.5 327.5,-103.5"/>
<text text-anchor="middle" x="267" y="-91.5" font-family="Helvetica,sans-Serif" font-size="10.00">QtPass::setClippedText</text>
</a>
</g>
</g>
<!-- Node1&#45;&gt;Node13 -->
<g id="edge17" class="edge">
<title>Node1&#45;&gt;Node13</title>
<path fill="none" stroke="#63b8ff" d="M84.28,-258.22C96.82,-230.73 136.27,-152.27 194,-113 196.92,-111.01 200.04,-109.23 203.28,-107.64"/>
<polygon fill="#63b8ff" stroke="#63b8ff" points="204.85,-110.78 212.67,-103.62 202.1,-104.34 204.85,-110.78"/>
</g>
<!-- Node20 -->
<g id="node20" class="node">
<title>Node20</title>
<g id="a_node20"><a xlink:href="class_main_window.html#ac240119ea67a770e5d997a5aa0fe47a3" target="_top" xlink:title="MainWindow::setUiElementsEnabled enable or disable the relevant UI elements.">
<polygon fill="white" stroke="#666666" points="338.5,-66 195.5,-66 195.5,-36 338.5,-36 338.5,-66"/>
<text text-anchor="start" x="203.5" y="-54" font-family="Helvetica,sans-Serif" font-size="10.00">MainWindow::setUiElements</text>
<text text-anchor="middle" x="267" y="-43" font-family="Helvetica,sans-Serif" font-size="10.00">Enabled</text>
</a>
</g>
</g>
<!-- Node1&#45;&gt;Node20 -->
<g id="edge27" class="edge">
<title>Node1&#45;&gt;Node20</title>
<path fill="none" stroke="#63b8ff" d="M83.01,-258.43C93.25,-227.38 129.73,-128.46 194,-76 196.06,-74.32 198.25,-72.74 200.52,-71.27"/>
<polygon fill="#63b8ff" stroke="#63b8ff" points="202.68,-74.07 209.66,-66.1 199.23,-67.98 202.68,-74.07"/>
</g>
<!-- Node4 -->
<g id="node4" class="node">
<title>Node4</title>
<g id="a_node4"><a xlink:href="class_qt_pass_settings.html#ab83659fdbfb9069942e6982076b4b934" target="_top" xlink:title=" ">
<polygon fill="white" stroke="#666666" points="930,-216.5 787,-216.5 787,-197.5 930,-197.5 930,-216.5"/>
<text text-anchor="middle" x="858.5" y="-204.5" font-family="Helvetica,sans-Serif" font-size="10.00">QtPassSettings::getInstance</text>
</a>
</g>
</g>
<!-- Node3&#45;&gt;Node4 -->
<g id="edge3" class="edge">
<title>Node3&#45;&gt;Node4</title>
<path fill="none" stroke="#63b8ff" d="M517.41,-417.45C578.78,-404.98 678.23,-378.75 751,-330 793.43,-301.58 829.05,-251.95 846.31,-225.25"/>
<polygon fill="#63b8ff" stroke="#63b8ff" points="849.44,-226.85 851.82,-216.53 843.52,-223.11 849.44,-226.85"/>
</g>
<!-- Node7&#45;&gt;Node4 -->
<g id="edge7" class="edge">
<title>Node7&#45;&gt;Node4</title>
<path fill="none" stroke="#63b8ff" d="M536.57,-334.01C596.92,-334.46 682.61,-328.69 751,-299 789.78,-282.16 824.79,-246.06 843.41,-224.42"/>
<polygon fill="#63b8ff" stroke="#63b8ff" points="846.19,-226.56 849.93,-216.65 840.82,-222.06 846.19,-226.56"/>
</g>
<!-- Node8&#45;&gt;Node4 -->
<g id="edge9" class="edge">
<title>Node8&#45;&gt;Node4</title>
<path fill="none" stroke="#63b8ff" d="M537.76,-296.73C597.26,-298.79 681.24,-296.35 751,-274 784.86,-263.15 818.71,-239.02 838.88,-222.87"/>
<polygon fill="#63b8ff" stroke="#63b8ff" points="841.13,-225.55 846.65,-216.51 836.69,-220.14 841.13,-225.55"/>
</g>
<!-- Node9&#45;&gt;Node4 -->
<g id="edge11" class="edge">
<title>Node9&#45;&gt;Node4</title>
<path fill="none" stroke="#63b8ff" d="M733.63,-234.96C757.17,-229.65 783.28,-223.75 805.44,-218.75"/>
<polygon fill="#63b8ff" stroke="#63b8ff" points="806.33,-222.14 815.31,-216.52 804.79,-215.31 806.33,-222.14"/>
</g>
<!-- Node10&#45;&gt;Node4 -->
<g id="edge13" class="edge">
<title>Node10&#45;&gt;Node4</title>
<path fill="none" stroke="#63b8ff" d="M539.74,-207.8C608.13,-207.63 707.06,-207.38 776.31,-207.21"/>
<polygon fill="#63b8ff" stroke="#63b8ff" points="776.74,-210.7 786.74,-207.18 776.73,-203.7 776.74,-210.7"/>
</g>
<!-- Node11&#45;&gt;Node4 -->
<g id="edge15" class="edge">
<title>Node11&#45;&gt;Node4</title>
<path fill="none" stroke="#63b8ff" d="M715.07,-178.59C740.78,-183.72 772.61,-190.07 799.66,-195.46"/>
<polygon fill="#63b8ff" stroke="#63b8ff" points="799.28,-198.96 809.77,-197.48 800.65,-192.09 799.28,-198.96"/>
</g>
<!-- Node14 -->
<g id="node14" class="node">
<title>Node14</title>
<g id="a_node14"><a xlink:href="class_qt_pass.html#acba134fb5281aedee11899a03976aa95" target="_top" xlink:title="MainWindow::copyTextToClipboard copies text to your clipboard.">
<polygon fill="white" stroke="#666666" points="534,-103.5 387,-103.5 387,-84.5 534,-84.5 534,-103.5"/>
<text text-anchor="middle" x="460.5" y="-91.5" font-family="Helvetica,sans-Serif" font-size="10.00">QtPass::copyTextToClipboard</text>
</a>
</g>
</g>
<!-- Node13&#45;&gt;Node14 -->
<g id="edge18" class="edge">
<title>Node13&#45;&gt;Node14</title>
<path fill="none" stroke="#63b8ff" d="M327.54,-94C343.09,-94 360.13,-94 376.65,-94"/>
<polygon fill="#63b8ff" stroke="#63b8ff" points="376.85,-97.5 386.85,-94 376.85,-90.5 376.85,-97.5"/>
</g>
<!-- Node18 -->
<g id="node18" class="node">
<title>Node18</title>
<g id="a_node18"><a xlink:href="class_qt_pass_settings.html#aa4b984b4d3e600542482b132c8e816bc" target="_top" xlink:title=" ">
<polygon fill="white" stroke="#666666" points="545,-45.5 376,-45.5 376,-26.5 545,-26.5 545,-45.5"/>
<text text-anchor="middle" x="460.5" y="-33.5" font-family="Helvetica,sans-Serif" font-size="10.00">QtPassSettings::getClipBoardType</text>
</a>
</g>
</g>
<!-- Node13&#45;&gt;Node18 -->
<g id="edge24" class="edge">
<title>Node13&#45;&gt;Node18</title>
<path fill="none" stroke="#63b8ff" d="M305.85,-84.45C316.9,-81.54 328.96,-78.25 340,-75 367.66,-66.85 398.6,-56.72 422.06,-48.83"/>
<polygon fill="#63b8ff" stroke="#63b8ff" points="423.28,-52.11 431.63,-45.6 421.04,-45.48 423.28,-52.11"/>
</g>
<!-- Node15 -->
<g id="node15" class="node">
<title>Node15</title>
<g id="a_node15"><a xlink:href="class_qt_pass_settings.html#ae105a118fa69c7c5bdf506355d20ffae" target="_top" xlink:title=" ">
<polygon fill="white" stroke="#666666" points="745,-141.5 587,-141.5 587,-122.5 745,-122.5 745,-141.5"/>
<text text-anchor="middle" x="666" y="-129.5" font-family="Helvetica,sans-Serif" font-size="10.00">QtPassSettings::isUseAutoclear</text>
</a>
</g>
</g>
<!-- Node14&#45;&gt;Node15 -->
<g id="edge19" class="edge">
<title>Node14&#45;&gt;Node15</title>
<path fill="none" stroke="#63b8ff" d="M512.59,-103.54C540.29,-108.71 574.71,-115.14 603.83,-120.58"/>
<polygon fill="#63b8ff" stroke="#63b8ff" points="603.42,-124.06 613.89,-122.46 604.7,-117.18 603.42,-124.06"/>
</g>
<!-- Node16 -->
<g id="node16" class="node">
<title>Node16</title>
<g id="a_node16"><a xlink:href="class_qt_pass_settings.html#afc90db0b809b9759a66f3a667184a7f2" target="_top" xlink:title=" ">
<polygon fill="white" stroke="#666666" points="745,-104.5 587,-104.5 587,-85.5 745,-85.5 745,-104.5"/>
<text text-anchor="middle" x="666" y="-92.5" font-family="Helvetica,sans-Serif" font-size="10.00">QtPassSettings::isUseSelection</text>
</a>
</g>
</g>
<!-- Node14&#45;&gt;Node16 -->
<g id="edge21" class="edge">
<title>Node14&#45;&gt;Node16</title>
<path fill="none" stroke="#63b8ff" d="M534.11,-94.36C547.88,-94.42 562.44,-94.5 576.64,-94.57"/>
<polygon fill="#63b8ff" stroke="#63b8ff" points="576.89,-98.07 586.9,-94.62 576.92,-91.07 576.89,-98.07"/>
</g>
<!-- Node17 -->
<g id="node17" class="node">
<title>Node17</title>
<g id="a_node17"><a xlink:href="class_main_window.html#a3c11bd64b8c0a631a9f8cd9ec77fe68c" target="_top" xlink:title="Displays message in status bar.">
<polygon fill="white" stroke="#666666" points="751,-67.5 581,-67.5 581,-48.5 751,-48.5 751,-67.5"/>
<text text-anchor="middle" x="666" y="-55.5" font-family="Helvetica,sans-Serif" font-size="10.00">MainWindow::showStatusMessage</text>
</a>
</g>
</g>
<!-- Node14&#45;&gt;Node17 -->
<g id="edge23" class="edge">
<title>Node14&#45;&gt;Node17</title>
<path fill="none" stroke="#63b8ff" d="M515.23,-84.49C541.56,-79.84 573.44,-74.2 601.02,-69.32"/>
<polygon fill="#63b8ff" stroke="#63b8ff" points="601.73,-72.75 610.97,-67.56 600.51,-65.85 601.73,-72.75"/>
</g>
<!-- Node15&#45;&gt;Node4 -->
<g id="edge20" class="edge">
<title>Node15&#45;&gt;Node4</title>
<path fill="none" stroke="#63b8ff" d="M719.15,-141.56C729.84,-144.14 740.9,-147.28 751,-151 780.71,-161.95 812.57,-179.57 833.62,-192.12"/>
<polygon fill="#63b8ff" stroke="#63b8ff" points="831.85,-195.13 842.22,-197.31 835.47,-189.14 831.85,-195.13"/>
</g>
<!-- Node16&#45;&gt;Node4 -->
<g id="edge22" class="edge">
<title>Node16&#45;&gt;Node4</title>
<path fill="none" stroke="#63b8ff" d="M726.59,-104.59C735.02,-107.06 743.4,-110.14 751,-114 788.67,-133.14 823.84,-168.59 842.83,-189.76"/>
<polygon fill="#63b8ff" stroke="#63b8ff" points="840.28,-192.16 849.51,-197.37 845.54,-187.55 840.28,-192.16"/>
</g>
<!-- Node19 -->
<g id="node19" class="node">
<title>Node19</title>
<g id="a_node19"><a xlink:href="class_qt_pass_settings.html#ab122639d09aca2dc270b73d5908dd021" target="_top" xlink:title=" ">
<polygon fill="white" stroke="#666666" points="740,-30 592,-30 592,0 740,0 740,-30"/>
<text text-anchor="start" x="600" y="-18" font-family="Helvetica,sans-Serif" font-size="10.00">QtPassSettings::getClipBoard</text>
<text text-anchor="middle" x="666" y="-7" font-family="Helvetica,sans-Serif" font-size="10.00">TypeRaw</text>
</a>
</g>
</g>
<!-- Node18&#45;&gt;Node19 -->
<g id="edge25" class="edge">
<title>Node18&#45;&gt;Node19</title>
<path fill="none" stroke="#63b8ff" d="M545.15,-27.37C557.23,-26.12 569.66,-24.84 581.72,-23.59"/>
<polygon fill="#63b8ff" stroke="#63b8ff" points="582.17,-27.07 591.76,-22.56 581.46,-20.1 582.17,-27.07"/>
</g>
<!-- Node19&#45;&gt;Node4 -->
<g id="edge26" class="edge">
<title>Node19&#45;&gt;Node4</title>
<path fill="none" stroke="#63b8ff" d="M735.96,-30.06C741.29,-32.59 746.38,-35.55 751,-39 803.88,-78.54 837.18,-152.75 850.65,-187.77"/>
<polygon fill="#63b8ff" stroke="#63b8ff" points="847.43,-189.14 854.19,-197.3 853.99,-186.7 847.43,-189.14"/>
</g>
</g>
</svg>
        <g id="navigator" transform="translate(0 0)" fill="#404254">
                <rect fill="#f2f5e9" fill-opacity="0.5" stroke="#606060" stroke-width=".5" x="0" y="0" width="60" height="60"/>
                <use id="zoomplus" xlink:href="#zoomPlus" x="17" y="9" onmousedown="handleZoom(evt,'in')"/>
                <use id="zoomminus" xlink:href="#zoomMin" x="42" y="9" onmousedown="handleZoom(evt,'out')"/>
                <use id="reset" xlink:href="#resetDef" x="30" y="36" onmousedown="handleReset()"/>
                <g id="arrowUp" xlink:href="#dirArrow" transform="translate(30 24)" onmousedown="handlePan(0,-1)">
                  <use xlink:href="#rim" fill="#404040">
                        <set attributeName="fill" to="#808080" begin="arrowUp.mouseover" end="arrowUp.mouseout"/>
                  </use>
                  <path fill="none" stroke="white" stroke-width="1.5" d="M0,-3.0v7 M-2.5,-0.5L0,-3.0L2.5,-0.5"/>
                </g>
                <g id="arrowRight" xlink:href="#dirArrow" transform="rotate(90) translate(36 -43)" onmousedown="handlePan(1,0)">
                  <use xlink:href="#rim" fill="#404040">
                        <set attributeName="fill" to="#808080" begin="arrowRight.mouseover" end="arrowRight.mouseout"/>
                  </use>
                  <path fill="none" stroke="white" stroke-width="1.5" d="M0,-3.0v7 M-2.5,-0.5L0,-3.0L2.5,-0.5"/>
                </g>
                <g id="arrowDown" xlink:href="#dirArrow" transform="rotate(180) translate(-30 -48)" onmousedown="handlePan(0,1)">
                  <use xlink:href="#rim" fill="#404040">
                        <set attributeName="fill" to="#808080" begin="arrowDown.mouseover" end="arrowDown.mouseout"/>
                  </use>
                  <path fill="none" stroke="white" stroke-width="1.5" d="M0,-3.0v7 M-2.5,-0.5L0,-3.0L2.5,-0.5"/>
                </g>
                <g id="arrowLeft" xlink:href="#dirArrow" transform="rotate(270) translate(-36 17)" onmousedown="handlePan(-1,0)">
                  <use xlink:href="#rim" fill="#404040">
                        <set attributeName="fill" to="#808080" begin="arrowLeft.mouseover" end="arrowLeft.mouseout"/>
                  </use>
                  <path fill="none" stroke="white" stroke-width="1.5" d="M0,-3.0v7 M-2.5,-0.5L0,-3.0L2.5,-0.5"/>
                </g>
        </g>
        <svg viewBox="0 0 15 15" width="100%" height="30px" preserveAspectRatio="xMaxYMin meet">
         <g id="arrow_out" transform="scale(0.3 0.3)">
          <a xlink:href="class_main_window_a0d75695e555bac7331e1ea22bc3159df_cgraph_org.svg" target="_base">
           <rect id="button" ry="5" rx="5" y="6" x="6" height="38" width="38"
                fill="#f2f5e9" fill-opacity="0.5" stroke="#606060" stroke-width="1.0"/>
           <path id="arrow"
             d="M 11.500037,31.436501 C 11.940474,20.09759 22.043105,11.32322 32.158766,21.979434 L 37.068811,17.246167 C 37.068811,17.246167 37.088388,32 37.088388,32 L 22.160133,31.978069 C 22.160133,31.978069 26.997745,27.140456 26.997745,27.140456 C 18.528582,18.264221 13.291696,25.230495 11.500037,31.436501 z"
             style="fill:#404040;"/>
          </a>
         </g>
        </svg>
</svg>
