<?xml version="1.0" encoding="UTF-8" standalone="no"?>
<!DOCTYPE svg PUBLIC "-//W3C//DTD SVG 1.1//EN"
 "http://www.w3.org/Graphics/SVG/1.1/DTD/svg11.dtd">
<!-- Generated by graphviz version 2.38.0 (20140413.2041)
 -->
<!-- Title: MainWindow::keyPressEvent Pages: 1 -->
<svg width="359pt" height="286pt"
 viewBox="0.00 0.00 359.47 286.00" xmlns="http://www.w3.org/2000/svg" xmlns:xlink="http://www.w3.org/1999/xlink">
<g id="graph0" class="graph" transform="scale(1 1) rotate(0) translate(4 282)">
<title>MainWindow::keyPressEvent</title>
<!-- Node395 -->
<g id="node1" class="node"><title>Node395</title>
<polygon fill="#bfbfbf" stroke="black" points="0,-129.5 0,-147.5 145.492,-147.5 145.492,-129.5 0,-129.5"/>
<text text-anchor="middle" x="72.7461" y="-135.5" font-family="Helvetica,sans-Serif" font-size="10.00">MainWindow::keyPressEvent</text>
</g>
<!-- Node396 -->
<g id="node2" class="node"><title>Node396</title>
<g id="a_node2"><a xlink:href="class_qt_pass_settings.html#abb8c53443d71181a3ecd6545464453e6" target="_top" xlink:title="QtPassSettings::getPassStore">
<polygon fill="none" stroke="black" points="191.224,-259.5 191.224,-277.5 341.735,-277.5 341.735,-259.5 191.224,-259.5"/>
<text text-anchor="middle" x="266.479" y="-265.5" font-family="Helvetica,sans-Serif" font-size="10.00">QtPassSettings::getPassStore</text>
</a>
</g>
</g>
<!-- Node395&#45;&gt;Node396 -->
<g id="edge1" class="edge"><title>Node395&#45;&gt;Node396</title>
<path fill="none" stroke="midnightblue" d="M79.7492,-147.809C94.317,-169.583 133.871,-223.991 181.492,-250.5 185.23,-252.581 189.185,-254.421 193.261,-256.049"/>
<polygon fill="midnightblue" stroke="midnightblue" points="192.353,-259.44 202.947,-259.475 194.687,-252.841 192.353,-259.44"/>
</g>
<!-- Node397 -->
<g id="node3" class="node"><title>Node397</title>
<g id="a_node3"><a xlink:href="class_qt_pass_settings.html#a2fd748b9e34c57aac277e8f0556a532f" target="_top" xlink:title="QtPassSettings::isUseGit">
<polygon fill="none" stroke="black" points="202.349,-222.5 202.349,-240.5 330.61,-240.5 330.61,-222.5 202.349,-222.5"/>
<text text-anchor="middle" x="266.479" y="-228.5" font-family="Helvetica,sans-Serif" font-size="10.00">QtPassSettings::isUseGit</text>
</a>
</g>
</g>
<!-- Node395&#45;&gt;Node397 -->
<g id="edge2" class="edge"><title>Node395&#45;&gt;Node397</title>
<path fill="none" stroke="midnightblue" d="M83.9043,-147.698C102.082,-163.641 141.98,-196.345 181.492,-213.5 186.925,-215.859 192.694,-217.919 198.564,-219.716"/>
<polygon fill="midnightblue" stroke="midnightblue" points="197.922,-223.171 208.496,-222.5 199.811,-216.431 197.922,-223.171"/>
</g>
<!-- Node398 -->
<g id="node4" class="node"><title>Node398</title>
<g id="a_node4"><a xlink:href="class_qt_pass_settings.html#a58728db227ada76454d01992bfef64c8" target="_top" xlink:title="QtPassSettings::isAutoPull">
<polygon fill="none" stroke="black" points="199.007,-185.5 199.007,-203.5 333.952,-203.5 333.952,-185.5 199.007,-185.5"/>
<text text-anchor="middle" x="266.479" y="-191.5" font-family="Helvetica,sans-Serif" font-size="10.00">QtPassSettings::isAutoPull</text>
</a>
</g>
</g>
<!-- Node395&#45;&gt;Node398 -->
<g id="edge3" class="edge"><title>Node395&#45;&gt;Node398</title>
<path fill="none" stroke="midnightblue" d="M96.5921,-147.517C118.217,-155.823 151.713,-168.095 181.492,-176.5 190.043,-178.913 199.162,-181.178 208.123,-183.233"/>
<polygon fill="midnightblue" stroke="midnightblue" points="207.612,-186.705 218.133,-185.461 209.132,-179.872 207.612,-186.705"/>
</g>
<!-- Node399 -->
<g id="node5" class="node"><title>Node399</title>
<g id="a_node5"><a xlink:href="class_qt_pass_settings.html#a30ef36260f73f9f18d338f2b18a1f493" target="_top" xlink:title="QtPassSettings::isUsePass">
<polygon fill="none" stroke="black" points="197.623,-148.5 197.623,-166.5 335.336,-166.5 335.336,-148.5 197.623,-148.5"/>
<text text-anchor="middle" x="266.479" y="-154.5" font-family="Helvetica,sans-Serif" font-size="10.00">QtPassSettings::isUsePass</text>
</a>
</g>
</g>
<!-- Node395&#45;&gt;Node399 -->
<g id="edge4" class="edge"><title>Node395&#45;&gt;Node399</title>
<path fill="none" stroke="midnightblue" d="M145.686,-145.629C159.367,-146.985 173.743,-148.409 187.598,-149.782"/>
<polygon fill="midnightblue" stroke="midnightblue" points="187.281,-153.268 197.578,-150.771 187.972,-146.302 187.281,-153.268"/>
</g>
<!-- Node400 -->
<g id="node6" class="node"><title>Node400</title>
<g id="a_node6"><a xlink:href="class_pass.html#a91ad8142d920144bf7483211619be978" target="_top" xlink:title="Pass::Show_b">
<polygon fill="none" stroke="black" points="226.517,-111.5 226.517,-129.5 306.442,-129.5 306.442,-111.5 226.517,-111.5"/>
<text text-anchor="middle" x="266.479" y="-117.5" font-family="Helvetica,sans-Serif" font-size="10.00">Pass::Show_b</text>
</a>
</g>
</g>
<!-- Node395&#45;&gt;Node400 -->
<g id="edge5" class="edge"><title>Node395&#45;&gt;Node400</title>
<path fill="none" stroke="midnightblue" d="M145.686,-131.746C169.155,-129.543 194.667,-127.148 216.093,-125.136"/>
<polygon fill="midnightblue" stroke="midnightblue" points="216.627,-128.602 226.256,-124.182 215.972,-121.632 216.627,-128.602"/>
</g>
<!-- Node401 -->
<g id="node7" class="node"><title>Node401</title>
<g id="a_node7"><a xlink:href="class_qt_pass_settings.html#ae105a118fa69c7c5bdf506355d20ffae" target="_top" xlink:title="QtPassSettings::isUseAutoclear">
<polygon fill="none" stroke="black" points="187.615,-74.5 187.615,-92.5 345.344,-92.5 345.344,-74.5 187.615,-74.5"/>
<text text-anchor="middle" x="266.479" y="-80.5" font-family="Helvetica,sans-Serif" font-size="10.00">QtPassSettings::isUseAutoclear</text>
</a>
</g>
</g>
<!-- Node395&#45;&gt;Node401 -->
<g id="edge6" class="edge"><title>Node395&#45;&gt;Node401</title>
<path fill="none" stroke="midnightblue" d="M98.3498,-129.497C120.049,-121.746 152.62,-110.567 181.492,-102.5 191.211,-99.7844 201.644,-97.18 211.738,-94.8168"/>
<polygon fill="midnightblue" stroke="midnightblue" points="212.715,-98.1837 221.681,-92.5389 211.152,-91.3605 212.715,-98.1837"/>
</g>
<!-- Node402 -->
<g id="node8" class="node"><title>Node402</title>
<g id="a_node8"><a xlink:href="class_qt_pass_settings.html#aa4b984b4d3e600542482b132c8e816bc" target="_top" xlink:title="QtPassSettings::getClipBoardType">
<polygon fill="none" stroke="black" points="181.492,-37.5 181.492,-55.5 351.467,-55.5 351.467,-37.5 181.492,-37.5"/>
<text text-anchor="middle" x="266.479" y="-43.5" font-family="Helvetica,sans-Serif" font-size="10.00">QtPassSettings::getClipBoardType</text>
</a>
</g>
</g>
<!-- Node395&#45;&gt;Node402 -->
<g id="edge7" class="edge"><title>Node395&#45;&gt;Node402</title>
<path fill="none" stroke="midnightblue" d="M84.2642,-129.36C102.678,-113.844 142.517,-82.3925 181.492,-65.5 187.851,-62.7439 194.661,-60.3629 201.551,-58.3116"/>
<polygon fill="midnightblue" stroke="midnightblue" points="202.941,-61.5594 211.658,-55.5368 201.088,-54.8092 202.941,-61.5594"/>
</g>
<!-- Node403 -->
<g id="node9" class="node"><title>Node403</title>
<g id="a_node9"><a xlink:href="class_qt_pass_settings.html#afae88e1bac8875b10de43f0786314761" target="_top" xlink:title="QtPassSettings::isHidePassword">
<polygon fill="none" stroke="black" points="185.394,-0.5 185.394,-18.5 347.565,-18.5 347.565,-0.5 185.394,-0.5"/>
<text text-anchor="middle" x="266.479" y="-6.5" font-family="Helvetica,sans-Serif" font-size="10.00">QtPassSettings::isHidePassword</text>
</a>
</g>
</g>
<!-- Node395&#45;&gt;Node403 -->
<g id="edge8" class="edge"><title>Node395&#45;&gt;Node403</title>
<path fill="none" stroke="midnightblue" d="M79.8121,-129.395C94.5156,-108.092 134.341,-54.8194 181.492,-28.5 186.026,-25.9691 190.876,-23.7752 195.873,-21.8734"/>
<polygon fill="midnightblue" stroke="midnightblue" points="197.274,-25.094 205.617,-18.5646 195.023,-18.4657 197.274,-25.094"/>
</g>
</g>
</svg>
