<?xml version="1.0" encoding="UTF-8" standalone="no"?>
<!DOCTYPE svg PUBLIC "-//W3C//DTD SVG 1.1//EN"
 "http://www.w3.org/Graphics/SVG/1.1/DTD/svg11.dtd">
<!-- Generated by graphviz version 2.43.0 (0)
 -->
<!-- Title: MainWindow::config Pages: 1 -->
<svg width="558pt" height="576pt"
 viewBox="0.00 0.00 558.00 576.04" xmlns="http://www.w3.org/2000/svg" xmlns:xlink="http://www.w3.org/1999/xlink">
<g id="graph0" class="graph" transform="scale(1 1) rotate(0) translate(4 572.04)">
<title>MainWindow::config</title>
<!-- Node1 -->
<g id="Node000001" class="node">
<title>Node1</title>
<g id="a_Node000001"><a xlink:title="MainWindow::config pops up the configuration screen and handles all inter&#45;window communication.">
<polygon fill="#999999" stroke="#666666" points="114,-294 0,-294 0,-275 114,-275 114,-294"/>
<text text-anchor="middle" x="57" y="-282" font-family="Helvetica,sans-Serif" font-size="10.00">MainWindow::config</text>
</a>
</g>
</g>
<!-- Node1&#45;&gt;Node1 -->
<g id="edge6_Node000001_Node000001" class="edge">
<title>Node1&#45;&gt;Node1</title>
<g id="a_edge6_Node000001_Node000001"><a xlink:title=" ">
<path fill="none" stroke="#63b8ff" d="M28.95,-294.08C15.3,-302.73 24.65,-312 57,-312 79.24,-312 90.61,-307.62 91.11,-302.07"/>
<polygon fill="#63b8ff" stroke="#63b8ff" points="93.88,-299.94 85.05,-294.08 88.3,-304.17 93.88,-299.94"/>
</a>
</g>
</g>
<!-- Node2 -->
<g id="Node000002" class="node">
<title>Node2</title>
<g id="a_Node000002"><a xlink:href="class_util.html#aafdef99b126e0086d44425cbe139db22" target="_top" xlink:title="Util::checkConfig do we have prequisite settings?">
<polygon fill="white" stroke="#666666" points="288.5,-504 189.5,-504 189.5,-485 288.5,-485 288.5,-504"/>
<text text-anchor="middle" x="239" y="-492" font-family="Helvetica,sans-Serif" font-size="10.00">Util::checkConfig</text>
</a>
</g>
</g>
<!-- Node1&#45;&gt;Node2 -->
<g id="edge1_Node000001_Node000002" class="edge">
<title>Node1&#45;&gt;Node2</title>
<g id="a_edge1_Node000001_Node000002"><a xlink:title=" ">
<path fill="none" stroke="#63b8ff" d="M59.9,-294.35C66.41,-325.35 90.76,-421.72 150,-470.5 158.52,-477.51 168.92,-482.49 179.54,-486.01"/>
<polygon fill="#63b8ff" stroke="#63b8ff" points="178.74,-489.42 189.32,-488.86 180.69,-482.7 178.74,-489.42"/>
</a>
</g>
</g>
<!-- Node4 -->
<g id="Node000004" class="node">
<title>Node4</title>
<g id="a_Node000004"><a xlink:href="class_qt_pass_settings.html#ac2673c76b268f6a622c8b3c7829ff8db" target="_top" xlink:title=" ">
<polygon fill="white" stroke="#666666" points="550,-568 364,-568 364,-549 550,-549 550,-568"/>
<text text-anchor="middle" x="457" y="-556" font-family="Helvetica,sans-Serif" font-size="10.00">QtPassSettings::getPassExecutable</text>
</a>
</g>
</g>
<!-- Node1&#45;&gt;Node4 -->
<g id="edge9_Node000001_Node000004" class="edge">
<title>Node1&#45;&gt;Node4</title>
<g id="a_edge9_Node000001_Node000004"><a xlink:title=" ">
<path fill="none" stroke="#63b8ff" d="M58.63,-294.32C61.51,-330.28 76.64,-455.69 150,-513.5 206.95,-558.38 288.95,-568.43 353.74,-567.91"/>
<polygon fill="#63b8ff" stroke="#63b8ff" points="354.04,-571.41 363.98,-567.74 353.92,-564.41 354.04,-571.41"/>
</a>
</g>
</g>
<!-- Node5 -->
<g id="Node000005" class="node">
<title>Node5</title>
<g id="a_Node000005"><a xlink:href="class_qt_pass_settings.html#a538e612e04fe934535e1f7525d55743c" target="_top" xlink:title=" ">
<polygon fill="white" stroke="#666666" points="536,-457 378,-457 378,-438 536,-438 536,-457"/>
<text text-anchor="middle" x="457" y="-445" font-family="Helvetica,sans-Serif" font-size="10.00">QtPassSettings::getPassStore</text>
</a>
</g>
</g>
<!-- Node1&#45;&gt;Node5 -->
<g id="edge10_Node000001_Node000005" class="edge">
<title>Node1&#45;&gt;Node5</title>
<g id="a_edge10_Node000001_Node000005"><a xlink:title=" ">
<path fill="none" stroke="#63b8ff" d="M60.41,-294.35C67.92,-322.7 93.87,-404.54 150,-437.5 230.54,-484.8 344.68,-471.88 408.35,-459.12"/>
<polygon fill="#63b8ff" stroke="#63b8ff" points="409.43,-462.47 418.5,-457 408,-455.62 409.43,-462.47"/>
</a>
</g>
</g>
<!-- Node7 -->
<g id="Node000007" class="node">
<title>Node7</title>
<g id="a_Node000007"><a xlink:href="class_qt_pass_settings.html#ab604ff0e43878db15d7084e917954eb8" target="_top" xlink:title=" ">
<polygon fill="white" stroke="#666666" points="318,-428.5 160,-428.5 160,-398.5 318,-398.5 318,-428.5"/>
<text text-anchor="start" x="168" y="-416.5" font-family="Helvetica,sans-Serif" font-size="10.00">QtPassSettings::getAutoclear</text>
<text text-anchor="middle" x="239" y="-405.5" font-family="Helvetica,sans-Serif" font-size="10.00">PanelSeconds</text>
</a>
</g>
</g>
<!-- Node1&#45;&gt;Node7 -->
<g id="edge7_Node000001_Node000007" class="edge">
<title>Node1&#45;&gt;Node7</title>
<g id="a_edge7_Node000001_Node000007"><a xlink:title=" ">
<path fill="none" stroke="#63b8ff" d="M63.76,-294.31C76.53,-315.16 109.31,-364.06 150,-389.5 152.67,-391.17 155.45,-392.72 158.31,-394.17"/>
<polygon fill="#63b8ff" stroke="#63b8ff" points="157.15,-397.48 167.7,-398.43 160.04,-391.11 157.15,-397.48"/>
</a>
</g>
</g>
<!-- Node8 -->
<g id="Node000008" class="node">
<title>Node8</title>
<g id="a_Node000008"><a xlink:href="class_qt_pass_settings.html#a34ba20416835e4de168d4c66f9076b2b" target="_top" xlink:title=" ">
<polygon fill="white" stroke="#666666" points="305.5,-380 172.5,-380 172.5,-361 305.5,-361 305.5,-380"/>
<text text-anchor="middle" x="239" y="-368" font-family="Helvetica,sans-Serif" font-size="10.00">QtPassSettings::getPass</text>
</a>
</g>
</g>
<!-- Node1&#45;&gt;Node8 -->
<g id="edge8_Node000001_Node000008" class="edge">
<title>Node1&#45;&gt;Node8</title>
<g id="a_edge8_Node000001_Node000008"><a xlink:title=" ">
<path fill="none" stroke="#63b8ff" d="M68.13,-294.13C84.17,-308.83 117,-336.72 150,-351.5 155.62,-354.02 161.59,-356.21 167.67,-358.11"/>
<polygon fill="#63b8ff" stroke="#63b8ff" points="166.71,-361.48 177.29,-360.88 168.65,-354.75 166.71,-361.48"/>
</a>
</g>
</g>
<!-- Node9 -->
<g id="Node000009" class="node">
<title>Node9</title>
<g id="a_Node000009"><a xlink:href="class_qt_pass_settings.html#abd7d9098856e8f0d8f081fdb0e515fed" target="_top" xlink:title=" ">
<polygon fill="white" stroke="#666666" points="308.5,-342.5 169.5,-342.5 169.5,-312.5 308.5,-312.5 308.5,-342.5"/>
<text text-anchor="start" x="177.5" y="-330.5" font-family="Helvetica,sans-Serif" font-size="10.00">QtPassSettings::isAlways</text>
<text text-anchor="middle" x="239" y="-319.5" font-family="Helvetica,sans-Serif" font-size="10.00">OnTop</text>
</a>
</g>
</g>
<!-- Node1&#45;&gt;Node9 -->
<g id="edge11_Node000001_Node000009" class="edge">
<title>Node1&#45;&gt;Node9</title>
<g id="a_edge11_Node000001_Node000009"><a xlink:title=" ">
<path fill="none" stroke="#63b8ff" d="M97.95,-294.04C117.8,-298.78 142.4,-304.66 165.43,-310.16"/>
<polygon fill="#63b8ff" stroke="#63b8ff" points="164.64,-313.57 175.18,-312.49 166.27,-306.77 164.64,-313.57"/>
</a>
</g>
</g>
<!-- Node10 -->
<g id="Node000010" class="node">
<title>Node10</title>
<g id="a_Node000010"><a xlink:href="class_qt_pass.html#a2ac40a69378a7085bebc633984ae6a57" target="_top" xlink:title=" ">
<polygon fill="white" stroke="#666666" points="295.5,-294 182.5,-294 182.5,-275 295.5,-275 295.5,-294"/>
<text text-anchor="middle" x="239" y="-282" font-family="Helvetica,sans-Serif" font-size="10.00">QtPass::isFreshStart</text>
</a>
</g>
</g>
<!-- Node1&#45;&gt;Node10 -->
<g id="edge12_Node000001_Node000010" class="edge">
<title>Node1&#45;&gt;Node10</title>
<g id="a_edge12_Node000001_Node000010"><a xlink:title=" ">
<path fill="none" stroke="#63b8ff" d="M114.46,-284.5C132.81,-284.5 153.34,-284.5 172.3,-284.5"/>
<polygon fill="#63b8ff" stroke="#63b8ff" points="172.36,-288 182.36,-284.5 172.36,-281 172.36,-288"/>
</a>
</g>
</g>
<!-- Node11 -->
<g id="Node000011" class="node">
<title>Node11</title>
<g id="a_Node000011"><a xlink:href="class_qt_pass_settings.html#a2876bf9c55e3abcc0460de1985d5234f" target="_top" xlink:title=" ">
<polygon fill="white" stroke="#666666" points="307.5,-256.5 170.5,-256.5 170.5,-226.5 307.5,-226.5 307.5,-256.5"/>
<text text-anchor="start" x="178.5" y="-244.5" font-family="Helvetica,sans-Serif" font-size="10.00">QtPassSettings::isNoLine</text>
<text text-anchor="middle" x="239" y="-233.5" font-family="Helvetica,sans-Serif" font-size="10.00">Wrapping</text>
</a>
</g>
</g>
<!-- Node1&#45;&gt;Node11 -->
<g id="edge13_Node000001_Node000011" class="edge">
<title>Node1&#45;&gt;Node11</title>
<g id="a_edge13_Node000001_Node000011"><a xlink:title=" ">
<path fill="none" stroke="#63b8ff" d="M97.95,-274.96C117.8,-270.22 142.4,-264.34 165.43,-258.84"/>
<polygon fill="#63b8ff" stroke="#63b8ff" points="166.27,-262.23 175.18,-256.51 164.64,-255.43 166.27,-262.23"/>
</a>
</g>
</g>
<!-- Node12 -->
<g id="Node000012" class="node">
<title>Node12</title>
<g id="a_Node000012"><a xlink:href="class_qt_pass_settings.html#aa6bc2d2f460a567417dd46f134ebacd9" target="_top" xlink:title=" ">
<polygon fill="white" stroke="#666666" points="328,-208 150,-208 150,-189 328,-189 328,-208"/>
<text text-anchor="middle" x="239" y="-196" font-family="Helvetica,sans-Serif" font-size="10.00">QtPassSettings::isUseMonospace</text>
</a>
</g>
</g>
<!-- Node1&#45;&gt;Node12 -->
<g id="edge14_Node000001_Node000012" class="edge">
<title>Node1&#45;&gt;Node12</title>
<g id="a_edge14_Node000001_Node000012"><a xlink:title=" ">
<path fill="none" stroke="#63b8ff" d="M68.13,-274.87C84.17,-260.17 117,-232.28 150,-217.5 155.62,-214.98 161.59,-212.79 167.67,-210.89"/>
<polygon fill="#63b8ff" stroke="#63b8ff" points="168.65,-214.25 177.29,-208.12 166.71,-207.52 168.65,-214.25"/>
</a>
</g>
</g>
<!-- Node13 -->
<g id="Node000013" class="node">
<title>Node13</title>
<g id="a_Node000013"><a xlink:href="class_qt_pass_settings.html#a6248ec7cef087944b59fa9d2a361b413" target="_top" xlink:title=" ">
<polygon fill="white" stroke="#666666" points="320.5,-171 157.5,-171 157.5,-152 320.5,-152 320.5,-171"/>
<text text-anchor="middle" x="239" y="-159" font-family="Helvetica,sans-Serif" font-size="10.00">QtPassSettings::isUseTrayIcon</text>
</a>
</g>
</g>
<!-- Node1&#45;&gt;Node13 -->
<g id="edge15_Node000001_Node000013" class="edge">
<title>Node1&#45;&gt;Node13</title>
<g id="a_edge15_Node000001_Node000013"><a xlink:title=" ">
<path fill="none" stroke="#63b8ff" d="M63.49,-274.93C75.97,-254.14 108.6,-204.73 150,-180.5 153.72,-178.32 157.66,-176.4 161.72,-174.69"/>
<polygon fill="#63b8ff" stroke="#63b8ff" points="163.25,-177.85 171.4,-171.09 160.81,-171.29 163.25,-177.85"/>
</a>
</g>
</g>
<!-- Node14 -->
<g id="Node000014" class="node">
<title>Node14</title>
<g id="a_Node000014"><a xlink:href="class_qt_pass.html#a24eb2c0a19143db0ba3a741c66881be6" target="_top" xlink:title=" ">
<polygon fill="white" stroke="#666666" points="312,-134 166,-134 166,-115 312,-115 312,-134"/>
<text text-anchor="middle" x="239" y="-122" font-family="Helvetica,sans-Serif" font-size="10.00">QtPass::setClipboardTimer</text>
</a>
</g>
</g>
<!-- Node1&#45;&gt;Node14 -->
<g id="edge16_Node000001_Node000014" class="edge">
<title>Node1&#45;&gt;Node14</title>
<g id="a_edge16_Node000001_Node000014"><a xlink:title=" ">
<path fill="none" stroke="#63b8ff" d="M61.34,-274.75C70.77,-248.82 100.15,-177.8 150,-143.5 152.77,-141.6 155.69,-139.88 158.73,-138.33"/>
<polygon fill="#63b8ff" stroke="#63b8ff" points="160.39,-141.42 168.11,-134.16 157.55,-135.02 160.39,-141.42"/>
</a>
</g>
</g>
<!-- Node16 -->
<g id="Node000016" class="node">
<title>Node16</title>
<g id="a_Node000016"><a xlink:href="class_qt_pass.html#a5b63b7418723b400f0db2afa450f1199" target="_top" xlink:title=" ">
<polygon fill="white" stroke="#666666" points="299,-97 179,-97 179,-78 299,-78 299,-97"/>
<text text-anchor="middle" x="239" y="-85" font-family="Helvetica,sans-Serif" font-size="10.00">QtPass::setFreshStart</text>
</a>
</g>
</g>
<!-- Node1&#45;&gt;Node16 -->
<g id="edge18_Node000001_Node000016" class="edge">
<title>Node1&#45;&gt;Node16</title>
<g id="a_edge18_Node000001_Node000016"><a xlink:title=" ">
<path fill="none" stroke="#63b8ff" d="M59.93,-274.93C66.54,-244.85 91.16,-151.53 150,-106.5 155.8,-102.06 162.42,-98.61 169.36,-95.93"/>
<polygon fill="#63b8ff" stroke="#63b8ff" points="170.59,-99.21 178.98,-92.74 168.39,-92.56 170.59,-99.21"/>
</a>
</g>
</g>
<!-- Node17 -->
<g id="Node000017" class="node">
<title>Node17</title>
<g id="a_Node000017"><a xlink:href="class_qt_pass_settings.html#aa7f0ddeedf7401d3fc718ab976938ca2" target="_top" xlink:title=" ">
<polygon fill="white" stroke="#666666" points="314.5,-59 163.5,-59 163.5,-40 314.5,-40 314.5,-59"/>
<text text-anchor="middle" x="239" y="-47" font-family="Helvetica,sans-Serif" font-size="10.00">QtPassSettings::setUsePass</text>
</a>
</g>
</g>
<!-- Node1&#45;&gt;Node17 -->
<g id="edge19_Node000001_Node000017" class="edge">
<title>Node1&#45;&gt;Node17</title>
<g id="a_edge19_Node000001_Node000017"><a xlink:title=" ">
<path fill="none" stroke="#63b8ff" d="M59.01,-274.91C63.12,-240.86 81.81,-124.83 150,-68.5 152,-66.85 154.12,-65.33 156.32,-63.93"/>
<polygon fill="#63b8ff" stroke="#63b8ff" points="158.06,-66.97 165.2,-59.14 154.74,-60.81 158.06,-66.97"/>
</a>
</g>
</g>
<!-- Node3 -->
<g id="Node000003" class="node">
<title>Node3</title>
<g id="a_Node000003"><a xlink:href="class_qt_pass_settings.html#a6d9beabe93c829cacdcc6c27792ffdba" target="_top" xlink:title=" ">
<polygon fill="white" stroke="#666666" points="549,-531 365,-531 365,-512 549,-512 549,-531"/>
<text text-anchor="middle" x="457" y="-519" font-family="Helvetica,sans-Serif" font-size="10.00">QtPassSettings::getGpgExecutable</text>
</a>
</g>
</g>
<!-- Node2&#45;&gt;Node3 -->
<g id="edge2_Node000002_Node000003" class="edge">
<title>Node2&#45;&gt;Node3</title>
<g id="a_edge2_Node000002_Node000003"><a xlink:title=" ">
<path fill="none" stroke="#63b8ff" d="M288.74,-500.59C312.68,-503.59 342.24,-507.28 369.82,-510.73"/>
<polygon fill="#63b8ff" stroke="#63b8ff" points="369.52,-514.22 379.88,-511.98 370.39,-507.27 369.52,-514.22"/>
</a>
</g>
</g>
<!-- Node2&#45;&gt;Node4 -->
<g id="edge3_Node000002_Node000004" class="edge">
<title>Node2&#45;&gt;Node4</title>
<g id="a_edge3_Node000002_Node000004"><a xlink:title=" ">
<path fill="none" stroke="#63b8ff" d="M262.49,-504.1C287.06,-514.29 327.75,-530.3 364,-540.5 372.31,-542.84 381.13,-544.98 389.88,-546.91"/>
<polygon fill="#63b8ff" stroke="#63b8ff" points="389.2,-550.34 399.71,-548.99 390.65,-543.49 389.2,-550.34"/>
</a>
</g>
</g>
<!-- Node2&#45;&gt;Node5 -->
<g id="edge4_Node000002_Node000005" class="edge">
<title>Node2&#45;&gt;Node5</title>
<g id="a_edge4_Node000002_Node000005"><a xlink:title=" ">
<path fill="none" stroke="#63b8ff" d="M281.29,-484.98C305.39,-479.47 336.39,-472.47 364,-466.5 375.22,-464.07 387.22,-461.55 398.73,-459.16"/>
<polygon fill="#63b8ff" stroke="#63b8ff" points="399.61,-462.55 408.69,-457.1 398.19,-455.7 399.61,-462.55"/>
</a>
</g>
</g>
<!-- Node6 -->
<g id="Node000006" class="node">
<title>Node6</title>
<g id="a_Node000006"><a xlink:href="class_qt_pass_settings.html#a51d5b6ef611562d9247d5c482e6449a8" target="_top" xlink:title=" ">
<polygon fill="white" stroke="#666666" points="529,-494 385,-494 385,-475 529,-475 529,-494"/>
<text text-anchor="middle" x="457" y="-482" font-family="Helvetica,sans-Serif" font-size="10.00">QtPassSettings::isUsePass</text>
</a>
</g>
</g>
<!-- Node2&#45;&gt;Node6 -->
<g id="edge5_Node000002_Node000006" class="edge">
<title>Node2&#45;&gt;Node6</title>
<g id="a_edge5_Node000002_Node000006"><a xlink:title=" ">
<path fill="none" stroke="#63b8ff" d="M288.74,-492.24C314.12,-491.07 345.82,-489.6 374.78,-488.26"/>
<polygon fill="#63b8ff" stroke="#63b8ff" points="375.07,-491.75 384.89,-487.79 374.74,-484.76 375.07,-491.75"/>
</a>
</g>
</g>
<!-- Node15 -->
<g id="Node000015" class="node">
<title>Node15</title>
<g id="a_Node000015"><a xlink:href="class_qt_pass_settings.html#aead53a3d50a85e281db276edf586ffc8" target="_top" xlink:title=" ">
<polygon fill="white" stroke="#666666" points="536,-141.5 378,-141.5 378,-111.5 536,-111.5 536,-141.5"/>
<text text-anchor="start" x="386" y="-129.5" font-family="Helvetica,sans-Serif" font-size="10.00">QtPassSettings::getAutoclear</text>
<text text-anchor="middle" x="457" y="-118.5" font-family="Helvetica,sans-Serif" font-size="10.00">Seconds</text>
</a>
</g>
</g>
<!-- Node14&#45;&gt;Node15 -->
<g id="edge17_Node000014_Node000015" class="edge">
<title>Node14&#45;&gt;Node15</title>
<g id="a_edge17_Node000014_Node000015"><a xlink:title=" ">
<path fill="none" stroke="#63b8ff" d="M312.23,-125.17C330.02,-125.33 349.28,-125.51 367.75,-125.68"/>
<polygon fill="#63b8ff" stroke="#63b8ff" points="367.87,-129.18 377.91,-125.78 367.94,-122.18 367.87,-129.18"/>
</a>
</g>
</g>
<!-- Node18 -->
<g id="Node000018" class="node">
<title>Node18</title>
<g id="a_Node000018"><a xlink:href="class_qt_pass_settings.html#ad23c0edfc2df7bc06df700b8468a8528" target="_top" xlink:title=" ">
<polygon fill="white" stroke="#666666" points="541,-93 373,-93 373,-74 541,-74 541,-93"/>
<text text-anchor="middle" x="457" y="-81" font-family="Helvetica,sans-Serif" font-size="10.00">QtPassSettings::getImitatePass</text>
</a>
</g>
</g>
<!-- Node17&#45;&gt;Node18 -->
<g id="edge20_Node000017_Node000018" class="edge">
<title>Node17&#45;&gt;Node18</title>
<g id="a_edge20_Node000017_Node000018"><a xlink:title=" ">
<path fill="none" stroke="#63b8ff" d="M300.46,-59.02C326.91,-63.18 358.12,-68.09 385.61,-72.42"/>
<polygon fill="#63b8ff" stroke="#63b8ff" points="385.14,-75.89 395.56,-73.99 386.23,-68.97 385.14,-75.89"/>
</a>
</g>
</g>
<!-- Node19 -->
<g id="Node000019" class="node">
<title>Node19</title>
<g id="a_Node000019"><a xlink:href="class_qt_pass_settings.html#a2483e7de01f9e312ee0fbf8a1637f29d" target="_top" xlink:title=" ">
<polygon fill="white" stroke="#666666" points="533,-56 381,-56 381,-37 533,-37 533,-56"/>
<text text-anchor="middle" x="457" y="-44" font-family="Helvetica,sans-Serif" font-size="10.00">QtPassSettings::getInstance</text>
</a>
</g>
</g>
<!-- Node17&#45;&gt;Node19 -->
<g id="edge21_Node000017_Node000019" class="edge">
<title>Node17&#45;&gt;Node19</title>
<g id="a_edge21_Node000017_Node000019"><a xlink:title=" ">
<path fill="none" stroke="#63b8ff" d="M314.64,-48.46C332.75,-48.21 352.24,-47.94 370.8,-47.68"/>
<polygon fill="#63b8ff" stroke="#63b8ff" points="371.04,-51.18 380.99,-47.54 370.95,-44.18 371.04,-51.18"/>
</a>
</g>
</g>
<!-- Node20 -->
<g id="Node000020" class="node">
<title>Node20</title>
<g id="a_Node000020"><a xlink:href="class_qt_pass_settings.html#a8f8fb086b283ad2089e64b37d4950d5e" target="_top" xlink:title=" ">
<polygon fill="white" stroke="#666666" points="534.5,-19 379.5,-19 379.5,0 534.5,0 534.5,-19"/>
<text text-anchor="middle" x="457" y="-7" font-family="Helvetica,sans-Serif" font-size="10.00">QtPassSettings::getRealPass</text>
</a>
</g>
</g>
<!-- Node17&#45;&gt;Node20 -->
<g id="edge22_Node000017_Node000020" class="edge">
<title>Node17&#45;&gt;Node20</title>
<g id="a_edge22_Node000017_Node000020"><a xlink:title=" ">
<path fill="none" stroke="#63b8ff" d="M291.46,-39.97C322.45,-34.23 362.08,-26.89 394.68,-20.86"/>
<polygon fill="#63b8ff" stroke="#63b8ff" points="395.36,-24.29 404.56,-19.03 394.09,-17.41 395.36,-24.29"/>
</a>
</g>
</g>
</g>
</svg>
