<?xml version="1.0" encoding="UTF-8" standalone="no"?>
<!DOCTYPE svg PUBLIC "-//W3C//DTD SVG 1.1//EN"
 "http://www.w3.org/Graphics/SVG/1.1/DTD/svg11.dtd">
<!-- Generated by graphviz version 2.40.1 (20161225.0304)
 -->
<!-- Title: QtPassSettings::setPwgenExecutable Pages: 1 -->
<!--zoomable 37 -->
<svg id="main" version="1.1" xmlns="http://www.w3.org/2000/svg" xmlns:xlink="http://www.w3.org/1999/xlink" xml:space="preserve" onload="init(evt)">
<style type="text/css"><![CDATA[
.edge:hover path { stroke: red; }
.edge:hover polygon { stroke: red; fill: red; }
]]></style>
<script type="text/javascript"><![CDATA[
var edges = document.getElementsByTagName('g');
if (edges && edges.length) {
  for (var i=0;i<edges.length;i++) {
    if (edges[i].id.substr(0,4)=='edge') {
      edges[i].setAttribute('class','edge');
    }
  }
}
]]></script>
        <defs>
                <circle id="rim" cx="0" cy="0" r="7"/>
                <circle id="rim2" cx="0" cy="0" r="3.5"/>
                <g id="zoomPlus">
                        <use xlink:href="#rim" fill="#404040">
                                <set attributeName="fill" to="#808080" begin="zoomplus.mouseover" end="zoomplus.mouseout"/>
                        </use>
                        <path d="M-4,0h8M0,-4v8" fill="none" stroke="white" stroke-width="1.5" pointer-events="none"/>
                </g>
                <g id="zoomMin">
                        <use xlink:href="#rim" fill="#404040">
                                <set attributeName="fill" to="#808080" begin="zoomminus.mouseover" end="zoomminus.mouseout"/>
                        </use>
                        <path d="M-4,0h8" fill="none" stroke="white" stroke-width="1.5" pointer-events="none"/>
                </g>
                <g id="dirArrow">
                        <path fill="none" stroke="white" stroke-width="1.5" d="M0,-3.0v7 M-2.5,-0.5L0,-3.0L2.5,-0.5"/>
                </g>
               <g id="resetDef">
                       <use xlink:href="#rim2" fill="#404040">
                               <set attributeName="fill" to="#808080" begin="reset.mouseover" end="reset.mouseout"/>
                       </use>
               </g>
        </defs>

<script type="text/javascript">
var viewWidth = 678;
var viewHeight = 37;
var sectionId = 'dynsection-127';
</script>
<script xlink:href="svgpan.js"/>
<svg id="graph" class="graph">
<g id="viewport">
<title>QtPassSettings::setPwgenExecutable</title>
<!-- Node553 -->
<g id="node1" class="node">
<title>Node553</title>
<polygon fill="#bfbfbf" stroke="#000000" points="0,-.5 0,-28.5 134.3936,-28.5 134.3936,-.5 0,-.5"/>
<text text-anchor="start" x="8" y="-16.5" font-family="Helvetica,sans-Serif" font-size="10.00" fill="#000000">QtPassSettings::setPwgen</text>
<text text-anchor="middle" x="67.1968" y="-6.5" font-family="Helvetica,sans-Serif" font-size="10.00" fill="#000000">Executable</text>
</g>
<!-- Node554 -->
<g id="node2" class="node">
<title>Node554</title>
<g id="a_node2"><a xlink:href="class_qt_pass_settings.html#a64ffdab0605be803054150d438254c56" target="_top" xlink:title="QtPassSettings::initExecutables">
<polygon fill="none" stroke="#000000" points="170.3936,-5.5 170.3936,-23.5 328.1318,-23.5 328.1318,-5.5 170.3936,-5.5"/>
<text text-anchor="middle" x="249.2627" y="-11.5" font-family="Helvetica,sans-Serif" font-size="10.00" fill="#000000">QtPassSettings::initExecutables</text>
</a>
</g>
</g>
<!-- Node553&#45;&gt;Node554 -->
<g id="edge1" class="edge">
<title>Node553&#45;&gt;Node554</title>
<path fill="none" stroke="#191970" d="M144.6957,-14.5C153.157,-14.5 161.7779,-14.5 170.2571,-14.5"/>
<polygon fill="#191970" stroke="#191970" points="144.4742,-11.0001 134.4741,-14.5 144.4741,-18.0001 144.4742,-11.0001"/>
</g>
<!-- Node555 -->
<g id="node3" class="node">
<title>Node555</title>
<g id="a_node3"><a xlink:href="class_main_window.html#a23d2783cb61a373c4b0127970264290a" target="_top" xlink:title="MainWindow::checkConfig make sure we are ready to go as soon as possible. ">
<polygon fill="none" stroke="#000000" points="364.1318,-5.5 364.1318,-23.5 497.959,-23.5 497.959,-5.5 364.1318,-5.5"/>
<text text-anchor="middle" x="431.0454" y="-11.5" font-family="Helvetica,sans-Serif" font-size="10.00" fill="#000000">MainWindow::checkConfig</text>
</a>
</g>
</g>
<!-- Node554&#45;&gt;Node555 -->
<g id="edge2" class="edge">
<title>Node554&#45;&gt;Node555</title>
<path fill="none" stroke="#191970" d="M338.3557,-14.5C347.0297,-14.5 355.7256,-14.5 364.1271,-14.5"/>
<polygon fill="#191970" stroke="#191970" points="338.2022,-11.0001 328.2022,-14.5 338.2021,-18.0001 338.2022,-11.0001"/>
</g>
<!-- Node556 -->
<g id="node4" class="node">
<title>Node556</title>
<g id="a_node4"><a xlink:href="class_main_window.html#a996c5a2b6f77944776856f08ec30858d" target="_top" xlink:title="MainWindow::MainWindow handles all of the main functionality and also the main window. ">
<polygon fill="none" stroke="#000000" points="533.959,-5.5 533.959,-23.5 669.998,-23.5 669.998,-5.5 533.959,-5.5"/>
<text text-anchor="middle" x="601.9785" y="-11.5" font-family="Helvetica,sans-Serif" font-size="10.00" fill="#000000">MainWindow::MainWindow</text>
</a>
</g>
</g>
<!-- Node555&#45;&gt;Node556 -->
<g id="edge3" class="edge">
<title>Node555&#45;&gt;Node556</title>
<path fill="none" stroke="#191970" d="M508.3491,-14.5C516.8037,-14.5 525.3659,-14.5 533.7006,-14.5"/>
<polygon fill="#191970" stroke="#191970" points="508.1121,-11.0001 498.1121,-14.5 508.1121,-18.0001 508.1121,-11.0001"/>
</g>
</g>
</svg>
        <g id="navigator" transform="translate(0 0)" fill="#404254">
                <rect fill="#f2f5e9" fill-opacity="0.5" stroke="#606060" stroke-width=".5" x="0" y="0" width="60" height="60"/>
                <use id="zoomplus" xlink:href="#zoomPlus" x="17" y="9" onmousedown="handleZoom(evt,'in')"/>
                <use id="zoomminus" xlink:href="#zoomMin" x="42" y="9" onmousedown="handleZoom(evt,'out')"/>
                <use id="reset" xlink:href="#resetDef" x="30" y="36" onmousedown="handleReset()"/>
                <g id="arrowUp" xlink:href="#dirArrow" transform="translate(30 24)" onmousedown="handlePan(0,-1)">
                  <use xlink:href="#rim" fill="#404040">
                        <set attributeName="fill" to="#808080" begin="arrowUp.mouseover" end="arrowUp.mouseout"/>
                  </use>
                  <path fill="none" stroke="white" stroke-width="1.5" d="M0,-3.0v7 M-2.5,-0.5L0,-3.0L2.5,-0.5"/>
                </g>
                <g id="arrowRight" xlink:href="#dirArrow" transform="rotate(90) translate(36 -43)" onmousedown="handlePan(1,0)">
                  <use xlink:href="#rim" fill="#404040">
                        <set attributeName="fill" to="#808080" begin="arrowRight.mouseover" end="arrowRight.mouseout"/>
                  </use>
                  <path fill="none" stroke="white" stroke-width="1.5" d="M0,-3.0v7 M-2.5,-0.5L0,-3.0L2.5,-0.5"/>
                </g>
                <g id="arrowDown" xlink:href="#dirArrow" transform="rotate(180) translate(-30 -48)" onmousedown="handlePan(0,1)">
                  <use xlink:href="#rim" fill="#404040">
                        <set attributeName="fill" to="#808080" begin="arrowDown.mouseover" end="arrowDown.mouseout"/>
                  </use>
                  <path fill="none" stroke="white" stroke-width="1.5" d="M0,-3.0v7 M-2.5,-0.5L0,-3.0L2.5,-0.5"/>
                </g>
                <g id="arrowLeft" xlink:href="#dirArrow" transform="rotate(270) translate(-36 17)" onmousedown="handlePan(-1,0)">
                  <use xlink:href="#rim" fill="#404040">
                        <set attributeName="fill" to="#808080" begin="arrowLeft.mouseover" end="arrowLeft.mouseout"/>
                  </use>
                  <path fill="none" stroke="white" stroke-width="1.5" d="M0,-3.0v7 M-2.5,-0.5L0,-3.0L2.5,-0.5"/>
                </g>
        </g>
        <svg viewBox="0 0 15 15" width="100%" height="30px" preserveAspectRatio="xMaxYMin meet">
         <g id="arrow_out" transform="scale(0.3 0.3)">
          <a xlink:href="class_qt_pass_settings_a169a2e42423e3c53b3cf4fd3566b27b4_icgraph_org.svg" target="_base">
           <rect id="button" ry="5" rx="5" y="6" x="6" height="38" width="38"
                fill="#f2f5e9" fill-opacity="0.5" stroke="#606060" stroke-width="1.0"/>
           <path id="arrow"
             d="M 11.500037,31.436501 C 11.940474,20.09759 22.043105,11.32322 32.158766,21.979434 L 37.068811,17.246167 C 37.068811,17.246167 37.088388,32 37.088388,32 L 22.160133,31.978069 C 22.160133,31.978069 26.997745,27.140456 26.997745,27.140456 C 18.528582,18.264221 13.291696,25.230495 11.500037,31.436501 z"
             style="fill:#404040;"/>
          </a>
         </g>
        </svg>
</svg>
