<?xml version="1.0" encoding="UTF-8" standalone="no"?>
<!DOCTYPE svg PUBLIC "-//W3C//DTD SVG 1.1//EN"
 "http://www.w3.org/Graphics/SVG/1.1/DTD/svg11.dtd">
<!-- Generated by graphviz version 2.43.0 (0)
 -->
<!-- Title: ImitatePass::Remove Pages: 1 -->
<!--zoomable 185 -->

<svg id="main" version="1.1" xmlns="http://www.w3.org/2000/svg" xmlns:xlink="http://www.w3.org/1999/xlink" xml:space="preserve" onload="init(evt)">

<style type="text/css"><![CDATA[
.node, .edge {opacity: 0.7;}
.node.selected, .edge.selected {opacity: 1;}
.edge:hover path { stroke: red; }
.edge:hover polygon { stroke: red; fill: red; }
]]></style>

<defs>
  <circle id="rim" cx="0" cy="0" r="7"/>
  <circle id="rim2" cx="0" cy="0" r="3.5"/>
  <g id="zoomPlus">
    <use xlink:href="#rim" fill="#404040"><set attributeName="fill" to="#808080" begin="zoomplus.mouseover" end="zoomplus.mouseout"/></use>
    <path d="M-4,0h8M0,-4v8" fill="none" stroke="white" stroke-width="1.5" pointer-events="none"/>
  </g>
  <g id="zoomMin">
    <use xlink:href="#rim" fill="#404040"><set attributeName="fill" to="#808080" begin="zoomminus.mouseover" end="zoomminus.mouseout"/></use>
    <path d="M-4,0h8" fill="none" stroke="white" stroke-width="1.5" pointer-events="none"/>
  </g>
  <g id="arrowUp" transform="translate(30 24)">
    <use xlink:href="#rim"/>
    <path pointer-events="none" fill="none" stroke="white" stroke-width="1.5" d="M0,-3.0v7 M-2.5,-0.5L0,-3.0L2.5,-0.5"/>
  </g>
  <g id="arrowRight" transform="rotate(90) translate(36 -43)">
    <use xlink:href="#rim"/>
    <path pointer-events="none" fill="none" stroke="white" stroke-width="1.5" d="M0,-3.0v7 M-2.5,-0.5L0,-3.0L2.5,-0.5"/>
  </g>
  <g id="arrowDown" transform="rotate(180) translate(-30 -48)">
    <use xlink:href="#rim"/>
    <path pointer-events="none" fill="none" stroke="white" stroke-width="1.5" d="M0,-3.0v7 M-2.5,-0.5L0,-3.0L2.5,-0.5"/>
  </g>
  <g id="arrowLeft" transform="rotate(270) translate(-36 17)">
    <use xlink:href="#rim"/>
    <path pointer-events="none" fill="none" stroke="white" stroke-width="1.5" d="M0,-3.0v7 M-2.5,-0.5L0,-3.0L2.5,-0.5"/>
  </g>
  <g id="resetDef">
    <use xlink:href="#rim2" fill="#404040"><set attributeName="fill" to="#808080" begin="reset.mouseover" end="reset.mouseout"/></use>
  </g>
</defs>
<script type="application/ecmascript">
var viewWidth = 898;
var viewHeight = 185;
var sectionId = 'dynsection-37';
</script>
<script type="application/ecmascript" xlink:href="svg.min.js"/>
<svg id="graph" class="graph">
<g id="viewport">
<title>ImitatePass::Remove</title>
<!-- Node1 -->
<g id="Node000001" class="node">
<title>Node1</title>
<g id="a_Node000001"><a xlink:title="Remove password.">
<polygon fill="#999999" stroke="#666666" points="120,-95 0,-95 0,-76 120,-76 120,-95"/>
<text text-anchor="middle" x="60" y="-83" font-family="Helvetica,sans-Serif" font-size="10.00">ImitatePass::Remove</text>
</a>
</g>
</g>
<!-- Node2 -->
<g id="Node000002" class="node">
<title>Node2</title>
<g id="a_Node000002"><a xlink:href="class_util.html#a2a7a32586578a9b631bc6b2a821ce616" target="_top" xlink:title="Returns a regex to match .gpg file extensions.">
<polygon fill="white" stroke="#666666" points="277,-171 172,-171 172,-152 277,-152 277,-171"/>
<text text-anchor="middle" x="224.5" y="-159" font-family="Helvetica,sans-Serif" font-size="10.00">Util::endsWithGpg</text>
</a>
</g>
</g>
<!-- Node1&#45;&gt;Node2 -->
<g id="edge1_Node000001_Node000002" class="edge">
<title>Node1&#45;&gt;Node2</title>
<g id="a_edge1_Node000001_Node000002"><a xlink:title=" ">
<path fill="none" stroke="#63b8ff" d="M76.74,-95.13C95.27,-106.23 127.17,-124.58 156,-137.5 164.93,-141.5 174.75,-145.31 184.06,-148.67"/>
<polygon fill="#63b8ff" stroke="#63b8ff" points="182.93,-151.98 193.53,-151.99 185.25,-145.37 182.93,-151.98"/>
</a>
</g>
</g>
<!-- Node3 -->
<g id="Node000003" class="node">
<title>Node3</title>
<g id="a_Node000003"><a xlink:href="class_imitate_pass.html#a6f9682c6103b112a9aa844df7ef6a273" target="_top" xlink:title="Execute git command.">
<polygon fill="white" stroke="#666666" points="474,-113 342,-113 342,-94 474,-94 474,-113"/>
<text text-anchor="middle" x="408" y="-101" font-family="Helvetica,sans-Serif" font-size="10.00">ImitatePass::executeGit</text>
</a>
</g>
</g>
<!-- Node1&#45;&gt;Node3 -->
<g id="edge2_Node000001_Node000003" class="edge">
<title>Node1&#45;&gt;Node3</title>
<g id="a_edge2_Node000001_Node000003"><a xlink:title=" ">
<path fill="none" stroke="#63b8ff" d="M99.57,-95.01C116.73,-98.77 137.25,-102.64 156,-104.5 214.83,-110.32 281.79,-109.7 331.74,-107.82"/>
<polygon fill="#63b8ff" stroke="#63b8ff" points="331.97,-111.31 341.82,-107.41 331.69,-104.32 331.97,-111.31"/>
</a>
</g>
</g>
<!-- Node9 -->
<g id="Node000009" class="node">
<title>Node9</title>
<g id="a_Node000009"><a xlink:href="class_qt_pass_settings.html#a538e612e04fe934535e1f7525d55743c" target="_top" xlink:title="Get password store directory path.">
<polygon fill="white" stroke="#666666" points="487,-57 329,-57 329,-38 487,-38 487,-57"/>
<text text-anchor="middle" x="408" y="-45" font-family="Helvetica,sans-Serif" font-size="10.00">QtPassSettings::getPassStore</text>
</a>
</g>
</g>
<!-- Node1&#45;&gt;Node9 -->
<g id="edge9_Node000001_Node000009" class="edge">
<title>Node1&#45;&gt;Node9</title>
<g id="a_edge9_Node000001_Node000009"><a xlink:title=" ">
<path fill="none" stroke="#63b8ff" d="M105.78,-75.99C121.59,-72.9 139.53,-69.71 156,-67.5 209.8,-60.28 270.46,-55.36 318.67,-52.21"/>
<polygon fill="#63b8ff" stroke="#63b8ff" points="319,-55.69 328.76,-51.56 318.55,-48.71 319,-55.69"/>
</a>
</g>
</g>
<!-- Node10 -->
<g id="Node000010" class="node">
<title>Node10</title>
<g id="a_Node000010"><a xlink:href="class_imitate_pass.html#afcfd84525f2dfd41b131f76c988010fb" target="_top" xlink:title="Commit changes to git.">
<polygon fill="white" stroke="#666666" points="290,-95 159,-95 159,-76 290,-76 290,-95"/>
<text text-anchor="middle" x="224.5" y="-83" font-family="Helvetica,sans-Serif" font-size="10.00">ImitatePass::gitCommit</text>
</a>
</g>
</g>
<!-- Node1&#45;&gt;Node10 -->
<g id="edge11_Node000001_Node000010" class="edge">
<title>Node1&#45;&gt;Node10</title>
<g id="a_edge11_Node000001_Node000010"><a xlink:title=" ">
<path fill="none" stroke="#63b8ff" d="M120.13,-85.5C129.39,-85.5 139.07,-85.5 148.63,-85.5"/>
<polygon fill="#63b8ff" stroke="#63b8ff" points="148.93,-89 158.93,-85.5 148.93,-82 148.93,-89"/>
</a>
</g>
</g>
<!-- Node11 -->
<g id="Node000011" class="node">
<title>Node11</title>
<g id="a_Node000011"><a xlink:href="class_qt_pass_settings.html#a4519d1aa1f11653585e546dbfde7c8b3" target="_top" xlink:title="Check whether Git integration is enabled.">
<polygon fill="white" stroke="#666666" points="293,-19 156,-19 156,0 293,0 293,-19"/>
<text text-anchor="middle" x="224.5" y="-7" font-family="Helvetica,sans-Serif" font-size="10.00">QtPassSettings::isUseGit</text>
</a>
</g>
</g>
<!-- Node1&#45;&gt;Node11 -->
<g id="edge13_Node000001_Node000011" class="edge">
<title>Node1&#45;&gt;Node11</title>
<g id="a_edge13_Node000001_Node000011"><a xlink:title=" ">
<path fill="none" stroke="#63b8ff" d="M76.74,-75.87C95.27,-64.77 127.17,-46.42 156,-33.5 164.93,-29.5 174.75,-25.69 184.06,-22.33"/>
<polygon fill="#63b8ff" stroke="#63b8ff" points="185.25,-25.63 193.53,-19.01 182.93,-19.02 185.25,-25.63"/>
</a>
</g>
</g>
<!-- Node4 -->
<g id="Node000004" class="node">
<title>Node4</title>
<g id="a_Node000004"><a xlink:href="class_imitate_pass.html#aa2ade77096c04fb94536d675bfaae8fe" target="_top" xlink:title="Execute command wrapper.">
<polygon fill="white" stroke="#666666" points="692,-132 533,-132 533,-113 692,-113 692,-132"/>
<text text-anchor="middle" x="612.5" y="-120" font-family="Helvetica,sans-Serif" font-size="10.00">ImitatePass::executeWrapper</text>
</a>
</g>
</g>
<!-- Node3&#45;&gt;Node4 -->
<g id="edge3_Node000003_Node000004" class="edge">
<title>Node3&#45;&gt;Node4</title>
<g id="a_edge3_Node000003_Node000004"><a xlink:title=" ">
<path fill="none" stroke="#63b8ff" d="M474.19,-109.62C489.7,-111.07 506.51,-112.65 522.87,-114.18"/>
<polygon fill="#63b8ff" stroke="#63b8ff" points="522.7,-117.68 532.99,-115.13 523.36,-110.71 522.7,-117.68"/>
</a>
</g>
</g>
<!-- Node7 -->
<g id="Node000007" class="node">
<title>Node7</title>
<g id="a_Node000007"><a xlink:href="class_qt_pass_settings.html#af6dc725440e9961c39fbd6f567749d82" target="_top" xlink:title="Get git executable path.">
<polygon fill="white" stroke="#666666" points="702,-95 523,-95 523,-76 702,-76 702,-95"/>
<text text-anchor="middle" x="612.5" y="-83" font-family="Helvetica,sans-Serif" font-size="10.00">QtPassSettings::getGitExecutable</text>
</a>
</g>
</g>
<!-- Node3&#45;&gt;Node7 -->
<g id="edge7_Node000003_Node000007" class="edge">
<title>Node3&#45;&gt;Node7</title>
<g id="a_edge7_Node000003_Node000007"><a xlink:title=" ">
<path fill="none" stroke="#63b8ff" d="M474.19,-97.71C486.53,-96.61 499.7,-95.44 512.81,-94.27"/>
<polygon fill="#63b8ff" stroke="#63b8ff" points="513.16,-97.75 522.81,-93.38 512.54,-90.78 513.16,-97.75"/>
</a>
</g>
</g>
<!-- Node5 -->
<g id="Node000005" class="node">
<title>Node5</title>
<g id="a_Node000005"><a xlink:href="class_pass.html#a66f59138ffe856fd421410d9af9ddc62" target="_top" xlink:title="Execute external wrapper command.">
<polygon fill="white" stroke="#666666" points="876,-159 752,-159 752,-140 876,-140 876,-159"/>
<text text-anchor="middle" x="814" y="-147" font-family="Helvetica,sans-Serif" font-size="10.00">Pass::executeWrapper</text>
</a>
</g>
</g>
<!-- Node4&#45;&gt;Node5 -->
<g id="edge4_Node000004_Node000005" class="edge">
<title>Node4&#45;&gt;Node5</title>
<g id="a_edge4_Node000004_Node000005"><a xlink:title=" ">
<path fill="none" stroke="#63b8ff" d="M683.84,-132.02C702.66,-134.57 723.03,-137.32 741.9,-139.88"/>
<polygon fill="#63b8ff" stroke="#63b8ff" points="741.53,-143.36 751.91,-141.23 742.47,-136.42 741.53,-143.36"/>
</a>
</g>
</g>
<!-- Node6 -->
<g id="Node000006" class="node">
<title>Node6</title>
<g id="a_Node000006"><a xlink:href="classsimple_transaction.html#a974db4056edcb408e96cf9bc2a6e4326" target="_top" xlink:title="transactionAdd If called after call to transactionStart() and before transactionEnd(),...">
<polygon fill="white" stroke="#666666" points="869.5,-121.5 758.5,-121.5 758.5,-91.5 869.5,-91.5 869.5,-121.5"/>
<text text-anchor="start" x="766.5" y="-109.5" font-family="Helvetica,sans-Serif" font-size="10.00">simpleTransaction::</text>
<text text-anchor="middle" x="814" y="-98.5" font-family="Helvetica,sans-Serif" font-size="10.00">transactionAdd</text>
</a>
</g>
</g>
<!-- Node4&#45;&gt;Node6 -->
<g id="edge6_Node000004_Node000006" class="edge">
<title>Node4&#45;&gt;Node6</title>
<g id="a_edge6_Node000004_Node000006"><a xlink:title=" ">
<path fill="none" stroke="#63b8ff" d="M692.06,-116.2C710.65,-114.71 730.27,-113.13 748.17,-111.7"/>
<polygon fill="#63b8ff" stroke="#63b8ff" points="748.52,-115.18 758.21,-110.89 747.96,-108.21 748.52,-115.18"/>
</a>
</g>
</g>
<!-- Node5&#45;&gt;Node5 -->
<g id="edge5_Node000005_Node000005" class="edge">
<title>Node5&#45;&gt;Node5</title>
<g id="a_edge5_Node000005_Node000005"><a xlink:title=" ">
<path fill="none" stroke="#63b8ff" d="M783.17,-159.08C768.18,-167.73 778.45,-177 814,-177 838.99,-177 851.49,-172.42 851.5,-166.69"/>
<polygon fill="#63b8ff" stroke="#63b8ff" points="854.05,-164.29 844.83,-159.08 848.79,-168.91 854.05,-164.29"/>
</a>
</g>
</g>
<!-- Node8 -->
<g id="Node000008" class="node">
<title>Node8</title>
<g id="a_Node000008"><a xlink:href="class_qt_pass_settings.html#a2483e7de01f9e312ee0fbf8a1637f29d" target="_top" xlink:title="Get the singleton instance.">
<polygon fill="white" stroke="#666666" points="890,-57 738,-57 738,-38 890,-38 890,-57"/>
<text text-anchor="middle" x="814" y="-45" font-family="Helvetica,sans-Serif" font-size="10.00">QtPassSettings::getInstance</text>
</a>
</g>
</g>
<!-- Node7&#45;&gt;Node8 -->
<g id="edge8_Node000007_Node000008" class="edge">
<title>Node7&#45;&gt;Node8</title>
<g id="a_edge8_Node000007_Node000008"><a xlink:title=" ">
<path fill="none" stroke="#63b8ff" d="M663.58,-75.96C690.74,-70.79 724.49,-64.36 753.03,-58.92"/>
<polygon fill="#63b8ff" stroke="#63b8ff" points="753.73,-62.35 762.89,-57.04 752.42,-55.48 753.73,-62.35"/>
</a>
</g>
</g>
<!-- Node9&#45;&gt;Node8 -->
<g id="edge10_Node000009_Node000008" class="edge">
<title>Node9&#45;&gt;Node8</title>
<g id="a_edge10_Node000009_Node000008"><a xlink:title=" ">
<path fill="none" stroke="#63b8ff" d="M487.37,-47.5C556.38,-47.5 656.65,-47.5 727.66,-47.5"/>
<polygon fill="#63b8ff" stroke="#63b8ff" points="727.92,-51 737.92,-47.5 727.92,-44 727.92,-51"/>
</a>
</g>
</g>
<!-- Node10&#45;&gt;Node3 -->
<g id="edge12_Node000010_Node000003" class="edge">
<title>Node10&#45;&gt;Node3</title>
<g id="a_edge12_Node000010_Node000003"><a xlink:title=" ">
<path fill="none" stroke="#63b8ff" d="M290,-91.9C303.53,-93.24 317.91,-94.66 331.79,-96.04"/>
<polygon fill="#63b8ff" stroke="#63b8ff" points="331.49,-99.53 341.79,-97.03 332.18,-92.56 331.49,-99.53"/>
</a>
</g>
</g>
<!-- Node11&#45;&gt;Node8 -->
<g id="edge14_Node000011_Node000008" class="edge">
<title>Node11&#45;&gt;Node8</title>
<g id="a_edge14_Node000011_Node000008"><a xlink:title=" ">
<path fill="none" stroke="#63b8ff" d="M293.18,-13.88C400.63,-20.83 610.09,-34.38 727.67,-41.98"/>
<polygon fill="#63b8ff" stroke="#63b8ff" points="727.51,-45.48 737.71,-42.63 727.96,-38.49 727.51,-45.48"/>
</a>
</g>
</g>
<!-- Node11&#45;&gt;Node9 -->
<g id="edge15_Node000011_Node000009" class="edge">
<title>Node11&#45;&gt;Node9</title>
<g id="a_edge15_Node000011_Node000009"><a xlink:title=" ">
<path fill="none" stroke="#63b8ff" d="M271.3,-19.09C295.68,-24.19 325.86,-30.51 351.56,-35.89"/>
<polygon fill="#63b8ff" stroke="#63b8ff" points="351.02,-39.36 361.53,-37.98 352.46,-32.5 351.02,-39.36"/>
</a>
</g>
</g>
</g>
</svg>

<g id="navigator" transform="translate(0 0)" fill="#404254">
  <rect fill="#f2f5e9" fill-opacity="0.5" stroke="#606060" stroke-width=".5" x="0" y="0" width="60" height="60"/>
  <use id="zoomplus" xlink:href="#zoomPlus" x="17" y="9" onmousedown="handleZoom(evt,'in')"/>
  <use id="zoomminus" xlink:href="#zoomMin" x="42" y="9" onmousedown="handleZoom(evt,'out')"/>
  <use id="reset" xlink:href="#resetDef" x="30" y="36" onmousedown="handleReset()"/>
   <use id="arrowup" xlink:href="#arrowUp" x="0" y="0" onmousedown="handlePan(0,-1)"/>
  <use id="arrowright" xlink:href="#arrowRight" x="0" y="0" onmousedown="handlePan(1,0)"/>
  <use id="arrowdown" xlink:href="#arrowDown" x="0" y="0" onmousedown="handlePan(0,1)"/>
  <use id="arrowleft" xlink:href="#arrowLeft" x="0" y="0" onmousedown="handlePan(-1,0)"/>
</g>
<svg viewBox="0 0 15 15" width="100%" height="30px" preserveAspectRatio="xMaxYMin meet">
 <g id="arrow_out" transform="scale(0.3 0.3)">
  <a xlink:href="class_imitate_pass_ab9cef44c64dae297da55e08266f1c1c5_cgraph_org.svg" target="_base">
   <rect id="button" ry="5" rx="5" y="6" x="6" height="38" width="38"
        fill="#f2f5e9" fill-opacity="0.5" stroke="#606060" stroke-width="1.0"/>
   <path id="arrow"
     d="M 11.500037,31.436501 C 11.940474,20.09759 22.043105,11.32322 32.158766,21.979434 L 37.068811,17.246167 C 37.068811,17.246167 37.088388,32 37.088388,32 L 22.160133,31.978069 C 22.160133,31.978069 26.997745,27.140456 26.997745,27.140456 C 18.528582,18.264221 13.291696,25.230495 11.500037,31.436501 z"
     style="fill:#404040;"/>
  </a>
 </g>
</svg>

<style type='text/css'>
<![CDATA[
[data-mouse-over-selected='false'] { opacity: 0.7; }
[data-mouse-over-selected='true']  { opacity: 1.0; }
]]>
</style>
<script type="application/ecmascript"><![CDATA[
document.addEventListener('DOMContentLoaded', (event) => {
  highlightEdges();
  highlightAdjacentNodes();
});
]]></script>
</svg>
