<?xml version="1.0" encoding="UTF-8" standalone="no"?>
<!DOCTYPE svg PUBLIC "-//W3C//DTD SVG 1.1//EN"
 "http://www.w3.org/Graphics/SVG/1.1/DTD/svg11.dtd">
<!-- Generated by graphviz version 2.43.0 (0)
 -->
<!-- Title: ImitatePass::finished Pages: 1 -->
<svg width="481pt" height="471pt"
 viewBox="0.00 0.00 481.00 471.00" xmlns="http://www.w3.org/2000/svg" xmlns:xlink="http://www.w3.org/1999/xlink">
<g id="graph0" class="graph" transform="scale(1 1) rotate(0) translate(4 467)">
<title>ImitatePass::finished</title>
<!-- Node1 -->
<g id="Node000001" class="node">
<title>Node1</title>
<g id="a_Node000001"><a xlink:title="Handle process completion.">
<polygon fill="#999999" stroke="#666666" points="118,-219 0,-219 0,-200 118,-200 118,-219"/>
<text text-anchor="middle" x="59" y="-207" font-family="Helvetica,sans-Serif" font-size="10.00">ImitatePass::finished</text>
</a>
</g>
</g>
<!-- Node2 -->
<g id="Node000002" class="node">
<title>Node2</title>
<g id="a_Node000002"><a xlink:href="class_pass.html#ad51174f24ecdbc14a55e4588a34b8563" target="_top" xlink:title="Handle process completion.">
<polygon fill="white" stroke="#666666" points="251,-241 168,-241 168,-222 251,-222 251,-241"/>
<text text-anchor="middle" x="209.5" y="-229" font-family="Helvetica,sans-Serif" font-size="10.00">Pass::finished</text>
</a>
</g>
</g>
<!-- Node1&#45;&gt;Node2 -->
<g id="edge1_Node000001_Node000002" class="edge">
<title>Node1&#45;&gt;Node2</title>
<g id="a_edge1_Node000001_Node000002"><a xlink:title=" ">
<path fill="none" stroke="#63b8ff" d="M118.26,-218.13C131.34,-220.07 145.12,-222.11 157.86,-224"/>
<polygon fill="#63b8ff" stroke="#63b8ff" points="157.42,-227.47 167.82,-225.47 158.44,-220.55 157.42,-227.47"/>
</a>
</g>
</g>
<!-- Node16 -->
<g id="Node000016" class="node">
<title>Node16</title>
<g id="a_Node000016"><a xlink:href="classsimple_transaction.html#a3914acc39e65586cd6671aff1ac3afe9" target="_top" xlink:title="transactionIsOver checks wheather currently finished process is last in current transaction">
<polygon fill="white" stroke="#666666" points="265,-203.5 154,-203.5 154,-173.5 265,-173.5 265,-203.5"/>
<text text-anchor="start" x="162" y="-191.5" font-family="Helvetica,sans-Serif" font-size="10.00">simpleTransaction::</text>
<text text-anchor="middle" x="209.5" y="-180.5" font-family="Helvetica,sans-Serif" font-size="10.00">transactionIsOver</text>
</a>
</g>
</g>
<!-- Node1&#45;&gt;Node16 -->
<g id="edge15_Node000001_Node000016" class="edge">
<title>Node1&#45;&gt;Node16</title>
<g id="a_edge15_Node000001_Node000016"><a xlink:title=" ">
<path fill="none" stroke="#63b8ff" d="M118.26,-201.26C126.58,-200.08 135.18,-198.87 143.62,-197.68"/>
<polygon fill="#63b8ff" stroke="#63b8ff" points="144.39,-201.1 153.8,-196.24 143.41,-194.17 144.39,-201.1"/>
</a>
</g>
</g>
<!-- Node3 -->
<g id="Node000003" class="node">
<title>Node3</title>
<g id="a_Node000003"><a xlink:href="class_pass.html#a22febea5d24676854f3dad24260df4d5" target="_top" xlink:title="Emitted when copy finishes.">
<polygon fill="white" stroke="#666666" points="440.5,-463 333.5,-463 333.5,-444 440.5,-444 440.5,-463"/>
<text text-anchor="middle" x="387" y="-451" font-family="Helvetica,sans-Serif" font-size="10.00">Pass::finishedCopy</text>
</a>
</g>
</g>
<!-- Node2&#45;&gt;Node3 -->
<g id="edge2_Node000002_Node000003" class="edge">
<title>Node2&#45;&gt;Node3</title>
<g id="a_edge2_Node000002_Node000003"><a xlink:title=" ">
<path fill="none" stroke="#63b8ff" d="M211.68,-241.03C216.25,-273.8 235.98,-382.81 301,-435.5 307.57,-440.82 315.34,-444.68 323.47,-447.45"/>
<polygon fill="#63b8ff" stroke="#63b8ff" points="322.54,-450.83 333.12,-450.24 324.48,-444.1 322.54,-450.83"/>
</a>
</g>
</g>
<!-- Node4 -->
<g id="Node000004" class="node">
<title>Node4</title>
<g id="a_Node000004"><a xlink:href="class_pass.html#aeb0213d032e070ad788398328c0a080c" target="_top" xlink:title="Emitted when GPG key generation finishes.">
<polygon fill="white" stroke="#666666" points="473,-426 301,-426 301,-407 473,-407 473,-426"/>
<text text-anchor="middle" x="387" y="-414" font-family="Helvetica,sans-Serif" font-size="10.00">Pass::finishedGenerateGPGKeys</text>
</a>
</g>
</g>
<!-- Node2&#45;&gt;Node4 -->
<g id="edge3_Node000002_Node000004" class="edge">
<title>Node2&#45;&gt;Node4</title>
<g id="a_edge3_Node000002_Node000004"><a xlink:title=" ">
<path fill="none" stroke="#63b8ff" d="M212.74,-241.31C219.92,-270.41 245.25,-356.87 301,-398.5 302.82,-399.86 304.71,-401.12 306.67,-402.28"/>
<polygon fill="#63b8ff" stroke="#63b8ff" points="305.13,-405.43 315.63,-406.85 308.31,-399.19 305.13,-405.43"/>
</a>
</g>
</g>
<!-- Node5 -->
<g id="Node000005" class="node">
<title>Node5</title>
<g id="a_Node000005"><a xlink:href="class_pass.html#a52541582298af5b2707447e3a57f85bf" target="_top" xlink:title="Emitted when Git init finishes.">
<polygon fill="white" stroke="#666666" points="443.5,-389 330.5,-389 330.5,-370 443.5,-370 443.5,-389"/>
<text text-anchor="middle" x="387" y="-377" font-family="Helvetica,sans-Serif" font-size="10.00">Pass::finishedGitInit</text>
</a>
</g>
</g>
<!-- Node2&#45;&gt;Node5 -->
<g id="edge4_Node000002_Node000005" class="edge">
<title>Node2&#45;&gt;Node5</title>
<g id="a_edge4_Node000002_Node000005"><a xlink:title=" ">
<path fill="none" stroke="#63b8ff" d="M214.25,-241.21C224.25,-265.72 254.02,-330.34 301,-361.5 306.83,-365.37 313.33,-368.42 320.08,-370.83"/>
<polygon fill="#63b8ff" stroke="#63b8ff" points="319.49,-374.32 330.08,-373.93 321.56,-367.63 319.49,-374.32"/>
</a>
</g>
</g>
<!-- Node6 -->
<g id="Node000006" class="node">
<title>Node6</title>
<g id="a_Node000006"><a xlink:href="class_pass.html#ab6d3acbdce8a5bc579bef175c85382df" target="_top" xlink:title="Emitted when Git pull finishes.">
<polygon fill="white" stroke="#666666" points="444.5,-352 329.5,-352 329.5,-333 444.5,-333 444.5,-352"/>
<text text-anchor="middle" x="387" y="-340" font-family="Helvetica,sans-Serif" font-size="10.00">Pass::finishedGitPull</text>
</a>
</g>
</g>
<!-- Node2&#45;&gt;Node6 -->
<g id="edge5_Node000002_Node000006" class="edge">
<title>Node2&#45;&gt;Node6</title>
<g id="a_edge5_Node000002_Node000006"><a xlink:title=" ">
<path fill="none" stroke="#63b8ff" d="M216.91,-241.21C230.16,-260.43 262.53,-303.29 301,-324.5 306.86,-327.73 313.24,-330.38 319.78,-332.56"/>
<polygon fill="#63b8ff" stroke="#63b8ff" points="318.86,-335.93 329.44,-335.42 320.85,-329.22 318.86,-335.93"/>
</a>
</g>
</g>
<!-- Node7 -->
<g id="Node000007" class="node">
<title>Node7</title>
<g id="a_Node000007"><a xlink:href="class_pass.html#ab892bcacdbe3081f677e456a3a8ac328" target="_top" xlink:title="Emitted when Git push finishes.">
<polygon fill="white" stroke="#666666" points="447,-315 327,-315 327,-296 447,-296 447,-315"/>
<text text-anchor="middle" x="387" y="-303" font-family="Helvetica,sans-Serif" font-size="10.00">Pass::finishedGitPush</text>
</a>
</g>
</g>
<!-- Node2&#45;&gt;Node7 -->
<g id="edge6_Node000002_Node000007" class="edge">
<title>Node2&#45;&gt;Node7</title>
<g id="a_edge6_Node000002_Node000007"><a xlink:title=" ">
<path fill="none" stroke="#63b8ff" d="M222.93,-241.16C239.72,-253.72 270.99,-275.46 301,-287.5 306.38,-289.66 312.06,-291.57 317.83,-293.27"/>
<polygon fill="#63b8ff" stroke="#63b8ff" points="317.02,-296.68 327.59,-295.93 318.86,-289.92 317.02,-296.68"/>
</a>
</g>
</g>
<!-- Node8 -->
<g id="Node000008" class="node">
<title>Node8</title>
<g id="a_Node000008"><a xlink:href="class_pass.html#a7a4c2bbb80372455e0d406fbc940e219" target="_top" xlink:title="Emitted when init finishes.">
<polygon fill="white" stroke="#666666" points="436,-278 338,-278 338,-259 436,-259 436,-278"/>
<text text-anchor="middle" x="387" y="-266" font-family="Helvetica,sans-Serif" font-size="10.00">Pass::finishedInit</text>
</a>
</g>
</g>
<!-- Node2&#45;&gt;Node8 -->
<g id="edge7_Node000002_Node000008" class="edge">
<title>Node2&#45;&gt;Node8</title>
<g id="a_edge7_Node000002_Node000008"><a xlink:title=" ">
<path fill="none" stroke="#63b8ff" d="M251.2,-240.08C274.89,-245.08 305.08,-251.44 330.87,-256.88"/>
<polygon fill="#63b8ff" stroke="#63b8ff" points="330.38,-260.35 340.89,-258.99 331.83,-253.5 330.38,-260.35"/>
</a>
</g>
</g>
<!-- Node9 -->
<g id="Node000009" class="node">
<title>Node9</title>
<g id="a_Node000009"><a xlink:href="class_pass.html#a71d8c179a7875dd2983de2aabff0a8cb" target="_top" xlink:title="Emitted when insert finishes.">
<polygon fill="white" stroke="#666666" points="442,-241 332,-241 332,-222 442,-222 442,-241"/>
<text text-anchor="middle" x="387" y="-229" font-family="Helvetica,sans-Serif" font-size="10.00">Pass::finishedInsert</text>
</a>
</g>
</g>
<!-- Node2&#45;&gt;Node9 -->
<g id="edge8_Node000002_Node000009" class="edge">
<title>Node2&#45;&gt;Node9</title>
<g id="a_edge8_Node000002_Node000009"><a xlink:title=" ">
<path fill="none" stroke="#63b8ff" d="M251.2,-231.5C272.11,-231.5 298.07,-231.5 321.61,-231.5"/>
<polygon fill="#63b8ff" stroke="#63b8ff" points="321.88,-235 331.88,-231.5 321.88,-228 321.88,-235"/>
</a>
</g>
</g>
<!-- Node10 -->
<g id="Node000010" class="node">
<title>Node10</title>
<g id="a_Node000010"><a xlink:href="class_pass.html#a3ca180cb5769aa87186474f7eda9e2a5" target="_top" xlink:title="Emitted when move finishes.">
<polygon fill="white" stroke="#666666" points="442,-204 332,-204 332,-185 442,-185 442,-204"/>
<text text-anchor="middle" x="387" y="-192" font-family="Helvetica,sans-Serif" font-size="10.00">Pass::finishedMove</text>
</a>
</g>
</g>
<!-- Node2&#45;&gt;Node10 -->
<g id="edge9_Node000002_Node000010" class="edge">
<title>Node2&#45;&gt;Node10</title>
<g id="a_edge9_Node000002_Node000010"><a xlink:title=" ">
<path fill="none" stroke="#63b8ff" d="M251.2,-222.92C274.89,-217.92 305.08,-211.56 330.87,-206.12"/>
<polygon fill="#63b8ff" stroke="#63b8ff" points="331.83,-209.5 340.89,-204.01 330.38,-202.65 331.83,-209.5"/>
</a>
</g>
</g>
<!-- Node11 -->
<g id="Node000011" class="node">
<title>Node11</title>
<g id="a_Node000011"><a xlink:href="class_pass.html#a8ca44f13c68a03c1e91fbbfee37388ed" target="_top" xlink:title="Emitted when OTP generation finishes.">
<polygon fill="white" stroke="#666666" points="459.5,-167 314.5,-167 314.5,-148 459.5,-148 459.5,-167"/>
<text text-anchor="middle" x="387" y="-155" font-family="Helvetica,sans-Serif" font-size="10.00">Pass::finishedOtpGenerate</text>
</a>
</g>
</g>
<!-- Node2&#45;&gt;Node11 -->
<g id="edge10_Node000002_Node000011" class="edge">
<title>Node2&#45;&gt;Node11</title>
<g id="a_edge10_Node000002_Node000011"><a xlink:title=" ">
<path fill="none" stroke="#63b8ff" d="M245.31,-222C252.1,-219.43 258.97,-216.28 265,-212.5 284.17,-200.47 281.17,-187.4 301,-176.5 305.17,-174.21 309.6,-172.19 314.16,-170.42"/>
<polygon fill="#63b8ff" stroke="#63b8ff" points="315.37,-173.7 323.67,-167.11 313.07,-167.09 315.37,-173.7"/>
</a>
</g>
</g>
<!-- Node12 -->
<g id="Node000012" class="node">
<title>Node12</title>
<g id="a_Node000012"><a xlink:href="class_pass.html#a263cc9ceb5269427237ea43267667197" target="_top" xlink:title="Emitted when remove finishes.">
<polygon fill="white" stroke="#666666" points="448.5,-130 325.5,-130 325.5,-111 448.5,-111 448.5,-130"/>
<text text-anchor="middle" x="387" y="-118" font-family="Helvetica,sans-Serif" font-size="10.00">Pass::finishedRemove</text>
</a>
</g>
</g>
<!-- Node2&#45;&gt;Node12 -->
<g id="edge11_Node000002_Node000012" class="edge">
<title>Node2&#45;&gt;Node12</title>
<g id="a_edge11_Node000002_Node000012"><a xlink:title=" ">
<path fill="none" stroke="#63b8ff" d="M250.06,-221.89C255.47,-219.43 260.65,-216.35 265,-212.5 292.1,-188.54 272.56,-161.86 301,-139.5 305.46,-136 310.43,-133.11 315.68,-130.74"/>
<polygon fill="#63b8ff" stroke="#63b8ff" points="317.29,-133.87 325.36,-127 314.77,-127.34 317.29,-133.87"/>
</a>
</g>
</g>
<!-- Node13 -->
<g id="Node000013" class="node">
<title>Node13</title>
<g id="a_Node000013"><a xlink:href="class_pass.html#a24cdfb567ab68940f2a823704e2ab1ba" target="_top" xlink:title="Emitted when show finishes.">
<polygon fill="white" stroke="#666666" points="441.5,-93 332.5,-93 332.5,-74 441.5,-74 441.5,-93"/>
<text text-anchor="middle" x="387" y="-81" font-family="Helvetica,sans-Serif" font-size="10.00">Pass::finishedShow</text>
</a>
</g>
</g>
<!-- Node2&#45;&gt;Node13 -->
<g id="edge12_Node000002_Node000013" class="edge">
<title>Node2&#45;&gt;Node13</title>
<g id="a_edge12_Node000002_Node000013"><a xlink:title=" ">
<path fill="none" stroke="#63b8ff" d="M251.12,-222.16C256.25,-219.67 261.07,-216.51 265,-212.5 301.02,-175.78 262.92,-137.08 301,-102.5 307.13,-96.94 314.52,-92.88 322.36,-89.95"/>
<polygon fill="#63b8ff" stroke="#63b8ff" points="323.59,-93.23 332.09,-86.9 321.5,-86.55 323.59,-93.23"/>
</a>
</g>
</g>
<!-- Node14 -->
<g id="Node000014" class="node">
<title>Node14</title>
<g id="a_Node000014"><a xlink:href="pass_8cpp.html#a388f8d7993f9747d0a97070d93faf6bc" target="_top" xlink:title="Maps GPG stderr (which may include –status&#45;fd 2 tokens) to a translated user&#45;friendly encryption erro...">
<polygon fill="white" stroke="#666666" points="437.5,-56 336.5,-56 336.5,-37 437.5,-37 437.5,-56"/>
<text text-anchor="middle" x="387" y="-44" font-family="Helvetica,sans-Serif" font-size="10.00">gpgErrorMessage</text>
</a>
</g>
</g>
<!-- Node2&#45;&gt;Node14 -->
<g id="edge13_Node000002_Node000014" class="edge">
<title>Node2&#45;&gt;Node14</title>
<g id="a_edge13_Node000002_Node000014"><a xlink:title=" ">
<path fill="none" stroke="#63b8ff" d="M251.13,-222.57C256.33,-220.01 261.16,-216.73 265,-212.5 310.24,-162.73 252.96,-112.58 301,-65.5 307.97,-58.67 316.84,-54.07 326.19,-51.02"/>
<polygon fill="#63b8ff" stroke="#63b8ff" points="327.31,-54.34 336.06,-48.37 325.5,-47.58 327.31,-54.34"/>
</a>
</g>
</g>
<!-- Node15 -->
<g id="Node000015" class="node">
<title>Node15</title>
<g id="a_Node000015"><a xlink:href="class_pass.html#a9bb040e1a33322a27cd85d8a367ef24f" target="_top" xlink:title="Emitted on process error exit.">
<polygon fill="white" stroke="#666666" points="449,-19 325,-19 325,0 449,0 449,-19"/>
<text text-anchor="middle" x="387" y="-7" font-family="Helvetica,sans-Serif" font-size="10.00">Pass::processErrorExit</text>
</a>
</g>
</g>
<!-- Node2&#45;&gt;Node15 -->
<g id="edge14_Node000002_Node000015" class="edge">
<title>Node2&#45;&gt;Node15</title>
<g id="a_edge14_Node000002_Node000015"><a xlink:title=" ">
<path fill="none" stroke="#63b8ff" d="M251.05,-222.87C256.32,-220.27 261.2,-216.89 265,-212.5 319.84,-149.18 242.26,-87.22 301,-27.5 305.2,-23.23 310.15,-19.85 315.5,-17.19"/>
<polygon fill="#63b8ff" stroke="#63b8ff" points="316.92,-20.39 324.84,-13.36 314.26,-13.91 316.92,-20.39"/>
</a>
</g>
</g>
</g>
</svg>
