<?xml version="1.0" encoding="UTF-8" standalone="no"?>
<!DOCTYPE svg PUBLIC "-//W3C//DTD SVG 1.1//EN"
 "http://www.w3.org/Graphics/SVG/1.1/DTD/svg11.dtd">
<!-- Generated by graphviz version 2.43.0 (0)
 -->
<!-- Title: MainWindow::config Pages: 1 -->
<svg width="543pt" height="488pt"
 viewBox="0.00 0.00 543.00 488.00" xmlns="http://www.w3.org/2000/svg" xmlns:xlink="http://www.w3.org/1999/xlink">
<g id="graph0" class="graph" transform="scale(1 1) rotate(0) translate(4 484)">
<title>MainWindow::config</title>
<!-- Node1 -->
<g id="Node000001" class="node">
<title>Node1</title>
<g id="a_Node000001"><a xlink:title=" ">
<polygon fill="#999999" stroke="#666666" points="114,-226 0,-226 0,-207 114,-207 114,-226"/>
<text text-anchor="middle" x="57" y="-214" font-family="Helvetica,sans-Serif" font-size="10.00">MainWindow::config</text>
</a>
</g>
</g>
<!-- Node1&#45;&gt;Node1 -->
<g id="edge1_Node000001_Node000001" class="edge">
<title>Node1&#45;&gt;Node1</title>
<g id="a_edge1_Node000001_Node000001"><a xlink:title=" ">
<path fill="none" stroke="#63b8ff" d="M30.18,-226.08C17.13,-234.73 26.07,-244 57,-244 77.78,-244 88.63,-239.82 89.56,-234.45"/>
<polygon fill="#63b8ff" stroke="#63b8ff" points="92.36,-232.35 83.82,-226.08 86.59,-236.31 92.36,-232.35"/>
</a>
</g>
</g>
<!-- Node2 -->
<g id="Node000002" class="node">
<title>Node2</title>
<g id="a_Node000002"><a xlink:href="class_util.html#afe6db9149dff37feded5abf38870cda8" target="_top" xlink:title="Verify that the required configuration is complete.">
<polygon fill="white" stroke="#666666" points="282,-407 181,-407 181,-388 282,-388 282,-407"/>
<text text-anchor="middle" x="231.5" y="-395" font-family="Helvetica,sans-Serif" font-size="10.00">Util::configIsValid</text>
</a>
</g>
</g>
<!-- Node1&#45;&gt;Node2 -->
<g id="edge2_Node000001_Node000002" class="edge">
<title>Node1&#45;&gt;Node2</title>
<g id="a_edge2_Node000001_Node000002"><a xlink:title=" ">
<path fill="none" stroke="#63b8ff" d="M60.91,-226.31C69.61,-253.89 98.05,-332.74 150,-373.5 156.36,-378.49 163.75,-382.45 171.41,-385.58"/>
<polygon fill="#63b8ff" stroke="#63b8ff" points="170.25,-388.88 180.85,-389.01 172.64,-382.3 170.25,-388.88"/>
</a>
</g>
</g>
<!-- Node5 -->
<g id="Node000005" class="node">
<title>Node5</title>
<g id="a_Node000005"><a xlink:href="class_qt_pass_settings.html#ac2673c76b268f6a622c8b3c7829ff8db" target="_top" xlink:title="Get pass executable path.">
<polygon fill="white" stroke="#666666" points="535,-369 349,-369 349,-350 535,-350 535,-369"/>
<text text-anchor="middle" x="442" y="-357" font-family="Helvetica,sans-Serif" font-size="10.00">QtPassSettings::getPassExecutable</text>
</a>
</g>
</g>
<!-- Node1&#45;&gt;Node5 -->
<g id="edge10_Node000001_Node000005" class="edge">
<title>Node1&#45;&gt;Node5</title>
<g id="a_edge10_Node000001_Node000005"><a xlink:title=" ">
<path fill="none" stroke="#63b8ff" d="M62.52,-226.32C73.65,-249.22 104.81,-306.07 150,-330.5 207.31,-361.48 280.29,-368.69 338.82,-368.17"/>
<polygon fill="#63b8ff" stroke="#63b8ff" points="338.89,-371.67 348.83,-368.01 338.78,-364.67 338.89,-371.67"/>
</a>
</g>
</g>
<!-- Node6 -->
<g id="Node000006" class="node">
<title>Node6</title>
<g id="a_Node000006"><a xlink:href="class_qt_pass_settings.html#a538e612e04fe934535e1f7525d55743c" target="_top" xlink:title="Get password store directory path.">
<polygon fill="white" stroke="#666666" points="521,-331 363,-331 363,-312 521,-312 521,-331"/>
<text text-anchor="middle" x="442" y="-319" font-family="Helvetica,sans-Serif" font-size="10.00">QtPassSettings::getPassStore</text>
</a>
</g>
</g>
<!-- Node1&#45;&gt;Node6 -->
<g id="edge11_Node000001_Node000006" class="edge">
<title>Node1&#45;&gt;Node6</title>
<g id="a_edge11_Node000001_Node000006"><a xlink:title=" ">
<path fill="none" stroke="#63b8ff" d="M64.73,-226.23C78.31,-244.95 111.07,-285.65 150,-302.5 213.91,-330.16 293.14,-333.58 352.79,-330.83"/>
<polygon fill="#63b8ff" stroke="#63b8ff" points="353.14,-334.31 362.94,-330.29 352.77,-327.32 353.14,-334.31"/>
</a>
</g>
</g>
<!-- Node8 -->
<g id="Node000008" class="node">
<title>Node8</title>
<g id="a_Node000008"><a xlink:href="class_qt_pass_settings.html#ab604ff0e43878db15d7084e917954eb8" target="_top" xlink:title="Get panel autoclear delay in seconds.">
<polygon fill="white" stroke="#666666" points="310.5,-293.5 152.5,-293.5 152.5,-263.5 310.5,-263.5 310.5,-293.5"/>
<text text-anchor="start" x="160.5" y="-281.5" font-family="Helvetica,sans-Serif" font-size="10.00">QtPassSettings::getAutoclear</text>
<text text-anchor="middle" x="231.5" y="-270.5" font-family="Helvetica,sans-Serif" font-size="10.00">PanelSeconds</text>
</a>
</g>
</g>
<!-- Node1&#45;&gt;Node8 -->
<g id="edge8_Node000001_Node000008" class="edge">
<title>Node1&#45;&gt;Node8</title>
<g id="a_edge8_Node000001_Node000008"><a xlink:title=" ">
<path fill="none" stroke="#63b8ff" d="M79.32,-226.03C97.82,-234.13 125.41,-245.78 150,-254.5 155.55,-256.47 161.35,-258.41 167.18,-260.29"/>
<polygon fill="#63b8ff" stroke="#63b8ff" points="166.4,-263.71 176.99,-263.38 168.51,-257.04 166.4,-263.71"/>
</a>
</g>
</g>
<!-- Node9 -->
<g id="Node000009" class="node">
<title>Node9</title>
<g id="a_Node000009"><a xlink:href="class_qt_pass_settings.html#a34ba20416835e4de168d4c66f9076b2b" target="_top" xlink:title=" ">
<polygon fill="white" stroke="#666666" points="298,-245 165,-245 165,-226 298,-226 298,-245"/>
<text text-anchor="middle" x="231.5" y="-233" font-family="Helvetica,sans-Serif" font-size="10.00">QtPassSettings::getPass</text>
</a>
</g>
</g>
<!-- Node1&#45;&gt;Node9 -->
<g id="edge9_Node000001_Node000009" class="edge">
<title>Node1&#45;&gt;Node9</title>
<g id="a_edge9_Node000001_Node000009"><a xlink:title=" ">
<path fill="none" stroke="#63b8ff" d="M114.01,-222.67C126.94,-224.09 140.91,-225.63 154.54,-227.13"/>
<polygon fill="#63b8ff" stroke="#63b8ff" points="154.55,-230.66 164.87,-228.27 155.31,-223.7 154.55,-230.66"/>
</a>
</g>
</g>
<!-- Node10 -->
<g id="Node000010" class="node">
<title>Node10</title>
<g id="a_Node000010"><a xlink:href="class_qt_pass.html#a2ac40a69378a7085bebc633984ae6a57" target="_top" xlink:title=" ">
<polygon fill="white" stroke="#666666" points="288,-208 175,-208 175,-189 288,-189 288,-208"/>
<text text-anchor="middle" x="231.5" y="-196" font-family="Helvetica,sans-Serif" font-size="10.00">QtPass::isFreshStart</text>
</a>
</g>
</g>
<!-- Node1&#45;&gt;Node10 -->
<g id="edge12_Node000001_Node000010" class="edge">
<title>Node1&#45;&gt;Node10</title>
<g id="a_edge12_Node000001_Node000010"><a xlink:title=" ">
<path fill="none" stroke="#63b8ff" d="M114.01,-210.66C130.14,-208.97 147.88,-207.12 164.56,-205.38"/>
<polygon fill="#63b8ff" stroke="#63b8ff" points="165.19,-208.83 174.78,-204.31 164.47,-201.87 165.19,-208.83"/>
</a>
</g>
</g>
<!-- Node11 -->
<g id="Node000011" class="node">
<title>Node11</title>
<g id="a_Node000011"><a xlink:href="class_qt_pass_settings.html#a6248ec7cef087944b59fa9d2a361b413" target="_top" xlink:title=" ">
<polygon fill="white" stroke="#666666" points="313,-171 150,-171 150,-152 313,-152 313,-171"/>
<text text-anchor="middle" x="231.5" y="-159" font-family="Helvetica,sans-Serif" font-size="10.00">QtPassSettings::isUseTrayIcon</text>
</a>
</g>
</g>
<!-- Node1&#45;&gt;Node11 -->
<g id="edge13_Node000001_Node000011" class="edge">
<title>Node1&#45;&gt;Node11</title>
<g id="a_edge13_Node000001_Node000011"><a xlink:title=" ">
<path fill="none" stroke="#63b8ff" d="M80,-206.88C98.44,-199.06 125.6,-188.11 150,-180.5 158.08,-177.98 166.71,-175.61 175.2,-173.46"/>
<polygon fill="#63b8ff" stroke="#63b8ff" points="176.19,-176.82 185.07,-171.04 174.52,-170.02 176.19,-176.82"/>
</a>
</g>
</g>
<!-- Node12 -->
<g id="Node000012" class="node">
<title>Node12</title>
<g id="a_Node000012"><a xlink:href="class_qt_pass.html#a24eb2c0a19143db0ba3a741c66881be6" target="_top" xlink:title="Sets the clipboard clear timer based on autoclear settings.">
<polygon fill="white" stroke="#666666" points="304.5,-134 158.5,-134 158.5,-115 304.5,-115 304.5,-134"/>
<text text-anchor="middle" x="231.5" y="-122" font-family="Helvetica,sans-Serif" font-size="10.00">QtPass::setClipboardTimer</text>
</a>
</g>
</g>
<!-- Node1&#45;&gt;Node12 -->
<g id="edge14_Node000001_Node000012" class="edge">
<title>Node1&#45;&gt;Node12</title>
<g id="a_edge14_Node000001_Node000012"><a xlink:title=" ">
<path fill="none" stroke="#63b8ff" d="M67.22,-206.82C82.77,-191.08 115.87,-160.04 150,-143.5 155.01,-141.07 160.34,-138.95 165.79,-137.08"/>
<polygon fill="#63b8ff" stroke="#63b8ff" points="167.17,-140.32 175.68,-134.01 165.09,-133.64 167.17,-140.32"/>
</a>
</g>
</g>
<!-- Node14 -->
<g id="Node000014" class="node">
<title>Node14</title>
<g id="a_Node000014"><a xlink:href="class_qt_pass.html#a5b63b7418723b400f0db2afa450f1199" target="_top" xlink:title=" ">
<polygon fill="white" stroke="#666666" points="291.5,-97 171.5,-97 171.5,-78 291.5,-78 291.5,-97"/>
<text text-anchor="middle" x="231.5" y="-85" font-family="Helvetica,sans-Serif" font-size="10.00">QtPass::setFreshStart</text>
</a>
</g>
</g>
<!-- Node1&#45;&gt;Node14 -->
<g id="edge16_Node000001_Node000014" class="edge">
<title>Node1&#45;&gt;Node14</title>
<g id="a_edge16_Node000001_Node000014"><a xlink:title=" ">
<path fill="none" stroke="#63b8ff" d="M63.2,-206.77C75.31,-185.08 107.63,-132.65 150,-106.5 153.64,-104.25 157.53,-102.27 161.55,-100.52"/>
<polygon fill="#63b8ff" stroke="#63b8ff" points="163.05,-103.7 171.14,-96.85 160.55,-97.16 163.05,-103.7"/>
</a>
</g>
</g>
<!-- Node15 -->
<g id="Node000015" class="node">
<title>Node15</title>
<g id="a_Node000015"><a xlink:href="class_qt_pass_settings.html#aa7f0ddeedf7401d3fc718ab976938ca2" target="_top" xlink:title="Save use pass setting.">
<polygon fill="white" stroke="#666666" points="307,-59 156,-59 156,-40 307,-40 307,-59"/>
<text text-anchor="middle" x="231.5" y="-47" font-family="Helvetica,sans-Serif" font-size="10.00">QtPassSettings::setUsePass</text>
</a>
</g>
</g>
<!-- Node1&#45;&gt;Node15 -->
<g id="edge17_Node000001_Node000015" class="edge">
<title>Node1&#45;&gt;Node15</title>
<g id="a_edge17_Node000001_Node000015"><a xlink:title=" ">
<path fill="none" stroke="#63b8ff" d="M61.1,-206.72C70.1,-179.98 98.9,-105.23 150,-68.5 152.68,-66.57 155.53,-64.84 158.5,-63.28"/>
<polygon fill="#63b8ff" stroke="#63b8ff" points="160.04,-66.42 167.69,-59.1 157.14,-60.05 160.04,-66.42"/>
</a>
</g>
</g>
<!-- Node3 -->
<g id="Node000003" class="node">
<title>Node3</title>
<g id="a_Node000003"><a xlink:href="class_executor.html#a2673768d875e9207a6a178dd1a489828" target="_top" xlink:title="Executor::executeBlocking blocking version of the executor, takes input and presents it as stdin.">
<polygon fill="white" stroke="#666666" points="514.5,-480 369.5,-480 369.5,-461 514.5,-461 514.5,-480"/>
<text text-anchor="middle" x="442" y="-468" font-family="Helvetica,sans-Serif" font-size="10.00">Executor::executeBlocking</text>
</a>
</g>
</g>
<!-- Node2&#45;&gt;Node3 -->
<g id="edge3_Node000002_Node000003" class="edge">
<title>Node2&#45;&gt;Node3</title>
<g id="a_edge3_Node000002_Node000003"><a xlink:title=" ">
<path fill="none" stroke="#63b8ff" d="M249.32,-407.08C271.49,-419.32 312.02,-440.36 349,-452.5 355.99,-454.79 363.38,-456.84 370.81,-458.65"/>
<polygon fill="#63b8ff" stroke="#63b8ff" points="370.04,-462.07 380.57,-460.9 371.61,-455.24 370.04,-462.07"/>
</a>
</g>
</g>
<!-- Node4 -->
<g id="Node000004" class="node">
<title>Node4</title>
<g id="a_Node000004"><a xlink:href="class_qt_pass_settings.html#a6d9beabe93c829cacdcc6c27792ffdba" target="_top" xlink:title="Get GPG executable path.">
<polygon fill="white" stroke="#666666" points="534,-443 350,-443 350,-424 534,-424 534,-443"/>
<text text-anchor="middle" x="442" y="-431" font-family="Helvetica,sans-Serif" font-size="10.00">QtPassSettings::getGpgExecutable</text>
</a>
</g>
</g>
<!-- Node2&#45;&gt;Node4 -->
<g id="edge4_Node000002_Node000004" class="edge">
<title>Node2&#45;&gt;Node4</title>
<g id="a_edge4_Node000002_Node000004"><a xlink:title=" ">
<path fill="none" stroke="#63b8ff" d="M282.18,-406.08C310.2,-410.92 345.56,-417.02 375.8,-422.24"/>
<polygon fill="#63b8ff" stroke="#63b8ff" points="375.39,-425.72 385.84,-423.98 376.58,-418.82 375.39,-425.72"/>
</a>
</g>
</g>
<!-- Node2&#45;&gt;Node5 -->
<g id="edge5_Node000002_Node000005" class="edge">
<title>Node2&#45;&gt;Node5</title>
<g id="a_edge5_Node000002_Node000005"><a xlink:title=" ">
<path fill="none" stroke="#63b8ff" d="M282.18,-388.45C311.07,-383.18 347.75,-376.49 378.58,-370.88"/>
<polygon fill="#63b8ff" stroke="#63b8ff" points="379.58,-374.25 388.79,-369.01 378.33,-367.36 379.58,-374.25"/>
</a>
</g>
</g>
<!-- Node2&#45;&gt;Node6 -->
<g id="edge6_Node000002_Node000006" class="edge">
<title>Node2&#45;&gt;Node6</title>
<g id="a_edge6_Node000002_Node000006"><a xlink:title=" ">
<path fill="none" stroke="#63b8ff" d="M249.34,-387.85C271.52,-375.5 312.07,-354.19 349,-341.5 357.95,-338.42 367.55,-335.72 377.06,-333.37"/>
<polygon fill="#63b8ff" stroke="#63b8ff" points="377.97,-336.75 386.9,-331.05 376.37,-329.94 377.97,-336.75"/>
</a>
</g>
</g>
<!-- Node7 -->
<g id="Node000007" class="node">
<title>Node7</title>
<g id="a_Node000007"><a xlink:href="class_qt_pass_settings.html#a51d5b6ef611562d9247d5c482e6449a8" target="_top" xlink:title="Get whether to use pass (true) or GPG (false).">
<polygon fill="white" stroke="#666666" points="514,-406 370,-406 370,-387 514,-387 514,-406"/>
<text text-anchor="middle" x="442" y="-394" font-family="Helvetica,sans-Serif" font-size="10.00">QtPassSettings::isUsePass</text>
</a>
</g>
</g>
<!-- Node2&#45;&gt;Node7 -->
<g id="edge7_Node000002_Node000007" class="edge">
<title>Node2&#45;&gt;Node7</title>
<g id="a_edge7_Node000002_Node000007"><a xlink:title=" ">
<path fill="none" stroke="#63b8ff" d="M282.18,-397.26C305.25,-397.15 333.29,-397.02 359.35,-396.89"/>
<polygon fill="#63b8ff" stroke="#63b8ff" points="359.63,-400.39 369.61,-396.84 359.6,-393.39 359.63,-400.39"/>
</a>
</g>
</g>
<!-- Node13 -->
<g id="Node000013" class="node">
<title>Node13</title>
<g id="a_Node000013"><a xlink:href="class_qt_pass_settings.html#aead53a3d50a85e281db276edf586ffc8" target="_top" xlink:title="Get autoclear delay in seconds.">
<polygon fill="white" stroke="#666666" points="521,-141.5 363,-141.5 363,-111.5 521,-111.5 521,-141.5"/>
<text text-anchor="start" x="371" y="-129.5" font-family="Helvetica,sans-Serif" font-size="10.00">QtPassSettings::getAutoclear</text>
<text text-anchor="middle" x="442" y="-118.5" font-family="Helvetica,sans-Serif" font-size="10.00">Seconds</text>
</a>
</g>
</g>
<!-- Node12&#45;&gt;Node13 -->
<g id="edge15_Node000012_Node000013" class="edge">
<title>Node12&#45;&gt;Node13</title>
<g id="a_edge15_Node000012_Node000013"><a xlink:title=" ">
<path fill="none" stroke="#63b8ff" d="M304.55,-125.19C319.99,-125.34 336.49,-125.5 352.48,-125.65"/>
<polygon fill="#63b8ff" stroke="#63b8ff" points="352.87,-129.15 362.9,-125.75 352.93,-122.15 352.87,-129.15"/>
</a>
</g>
</g>
<!-- Node16 -->
<g id="Node000016" class="node">
<title>Node16</title>
<g id="a_Node000016"><a xlink:href="class_qt_pass_settings.html#ad23c0edfc2df7bc06df700b8468a8528" target="_top" xlink:title=" ">
<polygon fill="white" stroke="#666666" points="526,-93 358,-93 358,-74 526,-74 526,-93"/>
<text text-anchor="middle" x="442" y="-81" font-family="Helvetica,sans-Serif" font-size="10.00">QtPassSettings::getImitatePass</text>
</a>
</g>
</g>
<!-- Node15&#45;&gt;Node16 -->
<g id="edge18_Node000015_Node000016" class="edge">
<title>Node15&#45;&gt;Node16</title>
<g id="a_edge18_Node000015_Node000016"><a xlink:title=" ">
<path fill="none" stroke="#63b8ff" d="M290.86,-59.02C316.28,-63.16 346.25,-68.05 372.71,-72.36"/>
<polygon fill="#63b8ff" stroke="#63b8ff" points="372.22,-75.83 382.66,-73.99 373.35,-68.92 372.22,-75.83"/>
</a>
</g>
</g>
<!-- Node17 -->
<g id="Node000017" class="node">
<title>Node17</title>
<g id="a_Node000017"><a xlink:href="class_qt_pass_settings.html#a2483e7de01f9e312ee0fbf8a1637f29d" target="_top" xlink:title="Get the singleton instance.">
<polygon fill="white" stroke="#666666" points="518,-56 366,-56 366,-37 518,-37 518,-56"/>
<text text-anchor="middle" x="442" y="-44" font-family="Helvetica,sans-Serif" font-size="10.00">QtPassSettings::getInstance</text>
</a>
</g>
</g>
<!-- Node15&#45;&gt;Node17 -->
<g id="edge19_Node000015_Node000017" class="edge">
<title>Node15&#45;&gt;Node17</title>
<g id="a_edge19_Node000015_Node000017"><a xlink:title=" ">
<path fill="none" stroke="#63b8ff" d="M307.18,-48.43C322.81,-48.2 339.4,-47.96 355.38,-47.73"/>
<polygon fill="#63b8ff" stroke="#63b8ff" points="355.84,-51.23 365.79,-47.58 355.74,-44.23 355.84,-51.23"/>
</a>
</g>
</g>
<!-- Node18 -->
<g id="Node000018" class="node">
<title>Node18</title>
<g id="a_Node000018"><a xlink:href="class_qt_pass_settings.html#a8f8fb086b283ad2089e64b37d4950d5e" target="_top" xlink:title=" ">
<polygon fill="white" stroke="#666666" points="519.5,-19 364.5,-19 364.5,0 519.5,0 519.5,-19"/>
<text text-anchor="middle" x="442" y="-7" font-family="Helvetica,sans-Serif" font-size="10.00">QtPassSettings::getRealPass</text>
</a>
</g>
</g>
<!-- Node15&#45;&gt;Node18 -->
<g id="edge20_Node000015_Node000018" class="edge">
<title>Node15&#45;&gt;Node18</title>
<g id="a_edge20_Node000015_Node000018"><a xlink:title=" ">
<path fill="none" stroke="#63b8ff" d="M282.18,-39.97C311.96,-34.26 350.01,-26.96 381.4,-20.93"/>
<polygon fill="#63b8ff" stroke="#63b8ff" points="382.18,-24.35 391.34,-19.03 380.86,-17.47 382.18,-24.35"/>
</a>
</g>
</g>
</g>
</svg>
