<?xml version="1.0" encoding="UTF-8" standalone="no"?>
<!DOCTYPE svg PUBLIC "-//W3C//DTD SVG 1.1//EN"
 "http://www.w3.org/Graphics/SVG/1.1/DTD/svg11.dtd">
<!-- Generated by graphviz version 2.40.1 (20161225.0304)
 -->
<!-- Title: TrayIcon::showHideParent Pages: 1 -->
<svg width="432pt" height="28pt"
 viewBox="0.00 0.00 432.00 28.00" xmlns="http://www.w3.org/2000/svg" xmlns:xlink="http://www.w3.org/1999/xlink">
<g id="graph0" class="graph" transform="scale(1 1) rotate(0) translate(4 24)">
<title>TrayIcon::showHideParent</title>
<!-- Node18 -->
<g id="node1" class="node">
<title>Node18</title>
<polygon fill="#bfbfbf" stroke="#000000" points="0,-.5 0,-19.5 133,-19.5 133,-.5 0,-.5"/>
<text text-anchor="middle" x="66.5" y="-7.5" font-family="Helvetica,sans-Serif" font-size="10.00" fill="#000000">TrayIcon::showHideParent</text>
</g>
<!-- Node19 -->
<g id="node2" class="node">
<title>Node19</title>
<g id="a_node2"><a xlink:href="class_tray_icon.html#a36c341a8b31884cd45060a92258e92b8" target="_top" xlink:title="TrayIcon::iconActivated you clicked on the trayicon. ">
<polygon fill="none" stroke="#000000" points="169,-.5 169,-19.5 289,-19.5 289,-.5 169,-.5"/>
<text text-anchor="middle" x="229" y="-7.5" font-family="Helvetica,sans-Serif" font-size="10.00" fill="#000000">TrayIcon::iconActivated</text>
</a>
</g>
</g>
<!-- Node18&#45;&gt;Node19 -->
<g id="edge1" class="edge">
<title>Node18&#45;&gt;Node19</title>
<path fill="none" stroke="#191970" d="M143.1263,-10C151.7452,-10 160.4337,-10 168.8022,-10"/>
<polygon fill="#191970" stroke="#191970" points="143.0639,-6.5001 133.0638,-10 143.0638,-13.5001 143.0639,-6.5001"/>
</g>
<!-- Node20 -->
<g id="node3" class="node">
<title>Node20</title>
<g id="a_node3"><a xlink:href="class_tray_icon.html#a587e1467cf97c27f4269f1c47c1e4ac5" target="_top" xlink:title="TrayIcon::TrayIcon use a (system) tray icon with a nice QtPass logo on it (currently) only Quits...">
<polygon fill="none" stroke="#000000" points="325,-.5 325,-19.5 424,-19.5 424,-.5 325,-.5"/>
<text text-anchor="middle" x="374.5" y="-7.5" font-family="Helvetica,sans-Serif" font-size="10.00" fill="#000000">TrayIcon::TrayIcon</text>
</a>
</g>
</g>
<!-- Node19&#45;&gt;Node20 -->
<g id="edge2" class="edge">
<title>Node19&#45;&gt;Node20</title>
<path fill="none" stroke="#191970" d="M299.1417,-10C307.8079,-10 316.5236,-10 324.796,-10"/>
<polygon fill="#191970" stroke="#191970" points="299.0205,-6.5001 289.0205,-10 299.0204,-13.5001 299.0205,-6.5001"/>
</g>
</g>
</svg>
