<?xml version="1.0" encoding="UTF-8" standalone="no"?>
<!DOCTYPE svg PUBLIC "-//W3C//DTD SVG 1.1//EN"
 "http://www.w3.org/Graphics/SVG/1.1/DTD/svg11.dtd">
<!-- Generated by graphviz version 2.40.1 (20161225.0304)
 -->
<!-- Title: ImitatePass::Show Pages: 1 -->
<svg width="502pt" height="64pt"
 viewBox="0.00 0.00 502.08 64.00" xmlns="http://www.w3.org/2000/svg" xmlns:xlink="http://www.w3.org/1999/xlink">
<g id="graph0" class="graph" transform="scale(1 1) rotate(0) translate(4 60)">
<title>ImitatePass::Show</title>
<!-- Node149 -->
<g id="node1" class="node">
<title>Node149</title>
<polygon fill="#bfbfbf" stroke="#000000" points="0,-18.5 0,-36.5 98.8125,-36.5 98.8125,-18.5 0,-18.5"/>
<text text-anchor="middle" x="49.4063" y="-24.5" font-family="Helvetica,sans-Serif" font-size="10.00" fill="#000000">ImitatePass::Show</text>
</g>
<!-- Node150 -->
<g id="node2" class="node">
<title>Node150</title>
<g id="a_node2"><a xlink:href="class_qt_pass_settings.html#abb8c53443d71181a3ecd6545464453e6" target="_top" xlink:title="QtPassSettings::getPassStore">
<polygon fill="none" stroke="#000000" points="134.8125,-37.5 134.8125,-55.5 285.3242,-55.5 285.3242,-37.5 134.8125,-37.5"/>
<text text-anchor="middle" x="210.0684" y="-43.5" font-family="Helvetica,sans-Serif" font-size="10.00" fill="#000000">QtPassSettings::getPassStore</text>
</a>
</g>
</g>
<!-- Node149&#45;&gt;Node150 -->
<g id="edge1" class="edge">
<title>Node149&#45;&gt;Node150</title>
<path fill="none" stroke="#191970" d="M98.9211,-33.3557C107.1608,-34.3301 115.9103,-35.3648 124.7406,-36.4091"/>
<polygon fill="#191970" stroke="#191970" points="124.3799,-39.8907 134.7217,-37.5895 125.202,-32.9392 124.3799,-39.8907"/>
</g>
<!-- Node151 -->
<g id="node3" class="node">
<title>Node151</title>
<g id="a_node3"><a xlink:href="class_pass.html#ae9d0e69d33f8ec978821565087a3b879" target="_top" xlink:title="Pass::executeGpg easy wrapper for running gpg commands. ">
<polygon fill="none" stroke="#000000" points="161.2114,-.5 161.2114,-18.5 258.9253,-18.5 258.9253,-.5 161.2114,-.5"/>
<text text-anchor="middle" x="210.0684" y="-6.5" font-family="Helvetica,sans-Serif" font-size="10.00" fill="#000000">Pass::executeGpg</text>
</a>
</g>
</g>
<!-- Node149&#45;&gt;Node151 -->
<g id="edge2" class="edge">
<title>Node149&#45;&gt;Node151</title>
<path fill="none" stroke="#191970" d="M98.9211,-21.9525C115.2607,-20.1219 133.6051,-18.0667 150.609,-16.1616"/>
<polygon fill="#191970" stroke="#191970" points="151.445,-19.5899 160.9932,-14.9982 150.6656,-12.6335 151.445,-19.5899"/>
</g>
<!-- Node152 -->
<g id="node4" class="node">
<title>Node152</title>
<g id="a_node4"><a xlink:href="class_qt_pass_settings.html#a92b674cdafc03000c808bff5fab93249" target="_top" xlink:title="QtPassSettings::getGpgExecutable">
<polygon fill="none" stroke="#000000" points="321.3242,-.5 321.3242,-18.5 494.082,-18.5 494.082,-.5 321.3242,-.5"/>
<text text-anchor="middle" x="407.7031" y="-6.5" font-family="Helvetica,sans-Serif" font-size="10.00" fill="#000000">QtPassSettings::getGpgExecutable</text>
</a>
</g>
</g>
<!-- Node151&#45;&gt;Node152 -->
<g id="edge3" class="edge">
<title>Node151&#45;&gt;Node152</title>
<path fill="none" stroke="#191970" d="M259.1758,-9.5C274.9217,-9.5 292.9445,-9.5 310.8796,-9.5"/>
<polygon fill="#191970" stroke="#191970" points="311.1143,-13.0001 321.1142,-9.5 311.1142,-6.0001 311.1143,-13.0001"/>
</g>
</g>
</svg>
