<?xml version="1.0" encoding="UTF-8" standalone="no"?>
<!DOCTYPE svg PUBLIC "-//W3C//DTD SVG 1.1//EN"
 "http://www.w3.org/Graphics/SVG/1.1/DTD/svg11.dtd">
<!-- Generated by graphviz version 2.40.1 (20161225.0304)
 -->
<!-- Title: RealPass::GitPull Pages: 1 -->
<svg width="451pt" height="27pt"
 viewBox="0.00 0.00 450.94 27.00" xmlns="http://www.w3.org/2000/svg" xmlns:xlink="http://www.w3.org/1999/xlink">
<g id="graph0" class="graph" transform="scale(1 1) rotate(0) translate(4 23)">
<title>RealPass::GitPull</title>
<!-- Node29 -->
<g id="node1" class="node">
<title>Node29</title>
<polygon fill="#bfbfbf" stroke="#000000" points="0,-.5 0,-18.5 93.8076,-18.5 93.8076,-.5 0,-.5"/>
<text text-anchor="middle" x="46.9038" y="-6.5" font-family="Helvetica,sans-Serif" font-size="10.00" fill="#000000">RealPass::GitPull</text>
</g>
<!-- Node30 -->
<g id="node2" class="node">
<title>Node30</title>
<g id="a_node2"><a xlink:href="class_pass.html#a0c5efdb4049f435f7a06aae59f14e6a0" target="_top" xlink:title="Pass::executePass easy wrapper for running pass. ">
<polygon fill="none" stroke="#000000" points="129.8076,-.5 129.8076,-18.5 230.8516,-18.5 230.8516,-.5 129.8076,-.5"/>
<text text-anchor="middle" x="180.3296" y="-6.5" font-family="Helvetica,sans-Serif" font-size="10.00" fill="#000000">Pass::executePass</text>
</a>
</g>
</g>
<!-- Node29&#45;&gt;Node30 -->
<g id="edge1" class="edge">
<title>Node29&#45;&gt;Node30</title>
<path fill="none" stroke="#191970" d="M93.9447,-9.5C102.2494,-9.5 111.0006,-9.5 119.6173,-9.5"/>
<polygon fill="#191970" stroke="#191970" points="119.6358,-13.0001 129.6358,-9.5 119.6358,-6.0001 119.6358,-13.0001"/>
</g>
<!-- Node31 -->
<g id="node3" class="node">
<title>Node31</title>
<g id="a_node3"><a xlink:href="class_qt_pass_settings.html#af0176d02663714d795cdf23eec6b657a" target="_top" xlink:title="QtPassSettings::getPassExecutable">
<polygon fill="none" stroke="#000000" points="266.8516,-.5 266.8516,-18.5 442.9395,-18.5 442.9395,-.5 266.8516,-.5"/>
<text text-anchor="middle" x="354.8955" y="-6.5" font-family="Helvetica,sans-Serif" font-size="10.00" fill="#000000">QtPassSettings::getPassExecutable</text>
</a>
</g>
</g>
<!-- Node30&#45;&gt;Node31 -->
<g id="edge2" class="edge">
<title>Node30&#45;&gt;Node31</title>
<path fill="none" stroke="#191970" d="M231.2906,-9.5C239.3194,-9.5 247.8473,-9.5 256.5238,-9.5"/>
<polygon fill="#191970" stroke="#191970" points="256.7566,-13.0001 266.7565,-9.5 256.7565,-6.0001 256.7566,-13.0001"/>
</g>
</g>
</svg>
