<?xml version="1.0" encoding="UTF-8" standalone="no"?>
<!DOCTYPE svg PUBLIC "-//W3C//DTD SVG 1.1//EN"
 "http://www.w3.org/Graphics/SVG/1.1/DTD/svg11.dtd">
<!-- Generated by graphviz version 2.40.1 (20161225.0304)
 -->
<!-- Title: Pass::getRecipientList Pages: 1 -->
<svg width="455pt" height="132pt"
 viewBox="0.00 0.00 455.00 132.00" xmlns="http://www.w3.org/2000/svg" xmlns:xlink="http://www.w3.org/1999/xlink">
<g id="graph0" class="graph" transform="scale(1 1) rotate(0) translate(4 128)">
<title>Pass::getRecipientList</title>
<!-- Node200 -->
<g id="node1" class="node">
<title>Node200</title>
<polygon fill="#bfbfbf" stroke="#000000" points="0,-47.5 0,-66.5 116,-66.5 116,-47.5 0,-47.5"/>
<text text-anchor="middle" x="58" y="-54.5" font-family="Helvetica,sans-Serif" font-size="10.00" fill="#000000">Pass::getRecipientList</text>
</g>
<!-- Node201 -->
<g id="node2" class="node">
<title>Node201</title>
<g id="a_node2"><a xlink:href="class_imitate_pass.html#accd38cc2e91f30fad48d83d76192beb2" target="_top" xlink:title="ImitatePass::Insert create new file with encrypted content. ">
<polygon fill="none" stroke="#000000" points="164.5,-104.5 164.5,-123.5 264.5,-123.5 264.5,-104.5 164.5,-104.5"/>
<text text-anchor="middle" x="214.5" y="-111.5" font-family="Helvetica,sans-Serif" font-size="10.00" fill="#000000">ImitatePass::Insert</text>
</a>
</g>
</g>
<!-- Node200&#45;&gt;Node201 -->
<g id="edge1" class="edge">
<title>Node200&#45;&gt;Node201</title>
<path fill="none" stroke="#191970" d="M93.8728,-70.0655C122.6394,-80.5428 162.3473,-95.0051 188.22,-104.4284"/>
<polygon fill="#191970" stroke="#191970" points="94.7886,-66.6742 84.1946,-66.5405 92.393,-73.2515 94.7886,-66.6742"/>
</g>
<!-- Node203 -->
<g id="node4" class="node">
<title>Node203</title>
<g id="a_node4"><a xlink:href="class_pass.html#a4566c370e65b22d5cdc132f72b393808" target="_top" xlink:title="Pass::getRecipientString formated string for use with GPG. ">
<polygon fill="none" stroke="#000000" points="152,-28.5 152,-47.5 277,-47.5 277,-28.5 152,-28.5"/>
<text text-anchor="middle" x="214.5" y="-35.5" font-family="Helvetica,sans-Serif" font-size="10.00" fill="#000000">Pass::getRecipientString</text>
</a>
</g>
</g>
<!-- Node200&#45;&gt;Node203 -->
<g id="edge3" class="edge">
<title>Node200&#45;&gt;Node203</title>
<path fill="none" stroke="#191970" d="M126.2255,-48.717C134.787,-47.6776 143.5114,-46.6184 151.9794,-45.5904"/>
<polygon fill="#191970" stroke="#191970" points="125.7801,-45.2453 116.2748,-49.9251 126.6238,-52.1943 125.7801,-45.2453"/>
</g>
<!-- Node204 -->
<g id="node5" class="node">
<title>Node204</title>
<g id="a_node5"><a xlink:href="class_pass.html#a8dfa731be7ac962f9f6a5cf8f29097ec" target="_top" xlink:title="Pass::~Pass">
<polygon fill="none" stroke="#000000" points="343,-57.5 343,-76.5 417,-76.5 417,-57.5 343,-57.5"/>
<text text-anchor="middle" x="380" y="-64.5" font-family="Helvetica,sans-Serif" font-size="10.00" fill="#000000">Pass::~Pass</text>
</a>
</g>
</g>
<!-- Node200&#45;&gt;Node204 -->
<g id="edge6" class="edge">
<title>Node200&#45;&gt;Node204</title>
<path fill="none" stroke="#191970" d="M126.6262,-59.1312C192.6409,-61.1814 289.9694,-64.204 342.7172,-65.8421"/>
<polygon fill="#191970" stroke="#191970" points="126.4156,-55.6231 116.3118,-58.8109 126.1983,-62.6197 126.4156,-55.6231"/>
</g>
<!-- Node205 -->
<g id="node6" class="node">
<title>Node205</title>
<g id="a_node6"><a xlink:href="class_users_dialog.html#a7a3d75a01a48609ce7571cec09b95f07" target="_top" xlink:title="UsersDialog::UsersDialog basic constructor. ">
<polygon fill="none" stroke="#000000" points="314.5,-.5 314.5,-19.5 445.5,-19.5 445.5,-.5 314.5,-.5"/>
<text text-anchor="middle" x="380" y="-7.5" font-family="Helvetica,sans-Serif" font-size="10.00" fill="#000000">UsersDialog::UsersDialog</text>
</a>
</g>
</g>
<!-- Node200&#45;&gt;Node205 -->
<g id="edge7" class="edge">
<title>Node200&#45;&gt;Node205</title>
<path fill="none" stroke="#191970" d="M85.3238,-43.0248C103.6673,-34.3855 128.6602,-24.0189 152,-19 205.8331,-7.4239 268.4247,-5.7654 314.3927,-6.6674"/>
<polygon fill="#191970" stroke="#191970" points="83.6038,-39.9688 76.126,-47.4745 86.6522,-46.2702 83.6038,-39.9688"/>
</g>
<!-- Node202 -->
<g id="node3" class="node">
<title>Node202</title>
<g id="a_node3"><a xlink:href="class_imitate_pass.html#af4d70979dc11ccdee6cec699fb20d942" target="_top" xlink:title="ImitatePass::~ImitatePass">
<polygon fill="none" stroke="#000000" points="313,-104.5 313,-123.5 447,-123.5 447,-104.5 313,-104.5"/>
<text text-anchor="middle" x="380" y="-111.5" font-family="Helvetica,sans-Serif" font-size="10.00" fill="#000000">ImitatePass::~ImitatePass</text>
</a>
</g>
</g>
<!-- Node201&#45;&gt;Node202 -->
<g id="edge2" class="edge">
<title>Node201&#45;&gt;Node202</title>
<path fill="none" stroke="#191970" d="M274.8191,-114C287.2147,-114 300.3368,-114 312.9532,-114"/>
<polygon fill="#191970" stroke="#191970" points="274.6046,-110.5001 264.6046,-114 274.6045,-117.5001 274.6046,-110.5001"/>
</g>
<!-- Node203&#45;&gt;Node204 -->
<g id="edge4" class="edge">
<title>Node203&#45;&gt;Node204</title>
<path fill="none" stroke="#191970" d="M279.2533,-49.3465C300.8439,-53.1297 324.1521,-57.214 342.9061,-60.5002"/>
<polygon fill="#191970" stroke="#191970" points="279.6036,-45.8546 269.1496,-47.5761 278.3954,-52.7496 279.6036,-45.8546"/>
</g>
<!-- Node203&#45;&gt;Node205 -->
<g id="edge5" class="edge">
<title>Node203&#45;&gt;Node205</title>
<path fill="none" stroke="#191970" d="M281.1436,-26.7249C295.2764,-24.3339 310.0612,-21.8326 323.7618,-19.5146"/>
<polygon fill="#191970" stroke="#191970" points="280.2688,-23.3231 270.9928,-28.4423 281.4366,-30.225 280.2688,-23.3231"/>
</g>
</g>
</svg>
