<?xml version="1.0" encoding="UTF-8" standalone="no"?>
<!DOCTYPE svg PUBLIC "-//W3C//DTD SVG 1.1//EN"
 "http://www.w3.org/Graphics/SVG/1.1/DTD/svg11.dtd">
<!-- Generated by graphviz version 2.40.1 (20161225.0304)
 -->
<!-- Title: Pass::OtpGenerate Pages: 1 -->
<!--zoomable 66 -->
<svg id="main" version="1.1" xmlns="http://www.w3.org/2000/svg" xmlns:xlink="http://www.w3.org/1999/xlink" xml:space="preserve" onload="init(evt)">
<style type="text/css"><![CDATA[
.edge:hover path { stroke: red; }
.edge:hover polygon { stroke: red; fill: red; }
]]></style>
<script type="text/javascript"><![CDATA[
var edges = document.getElementsByTagName('g');
if (edges && edges.length) {
  for (var i=0;i<edges.length;i++) {
    if (edges[i].id.substr(0,4)=='edge') {
      edges[i].setAttribute('class','edge');
    }
  }
}
]]></script>
        <defs>
                <circle id="rim" cx="0" cy="0" r="7"/>
                <circle id="rim2" cx="0" cy="0" r="3.5"/>
                <g id="zoomPlus">
                        <use xlink:href="#rim" fill="#404040">
                                <set attributeName="fill" to="#808080" begin="zoomplus.mouseover" end="zoomplus.mouseout"/>
                        </use>
                        <path d="M-4,0h8M0,-4v8" fill="none" stroke="white" stroke-width="1.5" pointer-events="none"/>
                </g>
                <g id="zoomMin">
                        <use xlink:href="#rim" fill="#404040">
                                <set attributeName="fill" to="#808080" begin="zoomminus.mouseover" end="zoomminus.mouseout"/>
                        </use>
                        <path d="M-4,0h8" fill="none" stroke="white" stroke-width="1.5" pointer-events="none"/>
                </g>
                <g id="dirArrow">
                        <path fill="none" stroke="white" stroke-width="1.5" d="M0,-3.0v7 M-2.5,-0.5L0,-3.0L2.5,-0.5"/>
                </g>
               <g id="resetDef">
                       <use xlink:href="#rim2" fill="#404040">
                               <set attributeName="fill" to="#808080" begin="reset.mouseover" end="reset.mouseout"/>
                       </use>
               </g>
        </defs>

<script type="text/javascript">
var viewWidth = 621;
var viewHeight = 66;
var sectionId = 'dynsection-46';
</script>
<script xlink:href="svgpan.js"/>
<svg id="graph" class="graph">
<g id="viewport">
<title>Pass::OtpGenerate</title>
<!-- Node293 -->
<g id="node1" class="node">
<title>Node293</title>
<polygon fill="#bfbfbf" stroke="#000000" points="0,-19.5 0,-38.5 101,-38.5 101,-19.5 0,-19.5"/>
<text text-anchor="middle" x="50.5" y="-26.5" font-family="Helvetica,sans-Serif" font-size="10.00" fill="#000000">Pass::OtpGenerate</text>
</g>
<!-- Node294 -->
<g id="node2" class="node">
<title>Node294</title>
<g id="a_node2"><a xlink:href="class_main_window.html#a9630f0fe0e0941a7996d68014f837ed5" target="_top" xlink:title="MainWindow::restoreWindow">
<polygon fill="none" stroke="#000000" points="137,-38.5 137,-57.5 281,-57.5 281,-38.5 137,-38.5"/>
<text text-anchor="middle" x="209" y="-45.5" font-family="Helvetica,sans-Serif" font-size="10.00" fill="#000000">MainWindow::restoreWindow</text>
</a>
</g>
</g>
<!-- Node293&#45;&gt;Node294 -->
<g id="edge1" class="edge">
<title>Node293&#45;&gt;Node294</title>
<path fill="none" stroke="#191970" d="M111.1877,-36.2749C119.6123,-37.2848 128.3334,-38.3302 136.9405,-39.362"/>
<polygon fill="#191970" stroke="#191970" points="111.4317,-32.7791 101.0862,-35.064 110.5985,-39.7294 111.4317,-32.7791"/>
</g>
<!-- Node297 -->
<g id="node5" class="node">
<title>Node297</title>
<g id="a_node5"><a xlink:href="class_pass.html#a8dfa731be7ac962f9f6a5cf8f29097ec" target="_top" xlink:title="Pass::~Pass">
<polygon fill="none" stroke="#000000" points="172,-.5 172,-19.5 246,-19.5 246,-.5 172,-.5"/>
<text text-anchor="middle" x="209" y="-7.5" font-family="Helvetica,sans-Serif" font-size="10.00" fill="#000000">Pass::~Pass</text>
</a>
</g>
</g>
<!-- Node293&#45;&gt;Node297 -->
<g id="edge4" class="edge">
<title>Node293&#45;&gt;Node297</title>
<path fill="none" stroke="#191970" d="M111.2692,-21.7154C131.7094,-19.2651 153.8866,-16.6067 171.9404,-14.4425"/>
<polygon fill="#191970" stroke="#191970" points="110.5985,-18.2706 101.0862,-22.936 111.4317,-25.2209 110.5985,-18.2706"/>
</g>
<!-- Node295 -->
<g id="node3" class="node">
<title>Node295</title>
<g id="a_node3"><a xlink:href="class_qt_pass.html#abd1d1e8d6b80b8307a305d80a6c34371" target="_top" xlink:title="QtPass::setMainWindow">
<polygon fill="none" stroke="#000000" points="317,-38.5 317,-57.5 442,-57.5 442,-38.5 317,-38.5"/>
<text text-anchor="middle" x="379.5" y="-45.5" font-family="Helvetica,sans-Serif" font-size="10.00" fill="#000000">QtPass::setMainWindow</text>
</a>
</g>
</g>
<!-- Node294&#45;&gt;Node295 -->
<g id="edge2" class="edge">
<title>Node294&#45;&gt;Node295</title>
<path fill="none" stroke="#191970" d="M291.3223,-48C299.8867,-48 308.4906,-48 316.7876,-48"/>
<polygon fill="#191970" stroke="#191970" points="291.3074,-44.5001 281.3073,-48 291.3073,-51.5001 291.3074,-44.5001"/>
</g>
<!-- Node296 -->
<g id="node4" class="node">
<title>Node296</title>
<g id="a_node4"><a xlink:href="class_main_window.html#a52e97245b2f88492071e639395c4a15a" target="_top" xlink:title="MainWindow::MainWindow handles all of the main functionality and also the main window. ">
<polygon fill="none" stroke="#000000" points="478,-38.5 478,-57.5 613,-57.5 613,-38.5 478,-38.5"/>
<text text-anchor="middle" x="545.5" y="-45.5" font-family="Helvetica,sans-Serif" font-size="10.00" fill="#000000">MainWindow::MainWindow</text>
</a>
</g>
</g>
<!-- Node295&#45;&gt;Node296 -->
<g id="edge3" class="edge">
<title>Node295&#45;&gt;Node296</title>
<path fill="none" stroke="#191970" d="M452.4873,-48C460.951,-48 469.5556,-48 477.9422,-48"/>
<polygon fill="#191970" stroke="#191970" points="452.2575,-44.5001 442.2575,-48 452.2574,-51.5001 452.2575,-44.5001"/>
</g>
</g>
</svg>
        <g id="navigator" transform="translate(0 0)" fill="#404254">
                <rect fill="#f2f5e9" fill-opacity="0.5" stroke="#606060" stroke-width=".5" x="0" y="0" width="60" height="60"/>
                <use id="zoomplus" xlink:href="#zoomPlus" x="17" y="9" onmousedown="handleZoom(evt,'in')"/>
                <use id="zoomminus" xlink:href="#zoomMin" x="42" y="9" onmousedown="handleZoom(evt,'out')"/>
                <use id="reset" xlink:href="#resetDef" x="30" y="36" onmousedown="handleReset()"/>
                <g id="arrowUp" xlink:href="#dirArrow" transform="translate(30 24)" onmousedown="handlePan(0,-1)">
                  <use xlink:href="#rim" fill="#404040">
                        <set attributeName="fill" to="#808080" begin="arrowUp.mouseover" end="arrowUp.mouseout"/>
                  </use>
                  <path fill="none" stroke="white" stroke-width="1.5" d="M0,-3.0v7 M-2.5,-0.5L0,-3.0L2.5,-0.5"/>
                </g>
                <g id="arrowRight" xlink:href="#dirArrow" transform="rotate(90) translate(36 -43)" onmousedown="handlePan(1,0)">
                  <use xlink:href="#rim" fill="#404040">
                        <set attributeName="fill" to="#808080" begin="arrowRight.mouseover" end="arrowRight.mouseout"/>
                  </use>
                  <path fill="none" stroke="white" stroke-width="1.5" d="M0,-3.0v7 M-2.5,-0.5L0,-3.0L2.5,-0.5"/>
                </g>
                <g id="arrowDown" xlink:href="#dirArrow" transform="rotate(180) translate(-30 -48)" onmousedown="handlePan(0,1)">
                  <use xlink:href="#rim" fill="#404040">
                        <set attributeName="fill" to="#808080" begin="arrowDown.mouseover" end="arrowDown.mouseout"/>
                  </use>
                  <path fill="none" stroke="white" stroke-width="1.5" d="M0,-3.0v7 M-2.5,-0.5L0,-3.0L2.5,-0.5"/>
                </g>
                <g id="arrowLeft" xlink:href="#dirArrow" transform="rotate(270) translate(-36 17)" onmousedown="handlePan(-1,0)">
                  <use xlink:href="#rim" fill="#404040">
                        <set attributeName="fill" to="#808080" begin="arrowLeft.mouseover" end="arrowLeft.mouseout"/>
                  </use>
                  <path fill="none" stroke="white" stroke-width="1.5" d="M0,-3.0v7 M-2.5,-0.5L0,-3.0L2.5,-0.5"/>
                </g>
        </g>
        <svg viewBox="0 0 15 15" width="100%" height="30px" preserveAspectRatio="xMaxYMin meet">
         <g id="arrow_out" transform="scale(0.3 0.3)">
          <a xlink:href="class_pass_abfe228b7e546aeb0e33bb8102f2e7f19_icgraph_org.svg" target="_base">
           <rect id="button" ry="5" rx="5" y="6" x="6" height="38" width="38"
                fill="#f2f5e9" fill-opacity="0.5" stroke="#606060" stroke-width="1.0"/>
           <path id="arrow"
             d="M 11.500037,31.436501 C 11.940474,20.09759 22.043105,11.32322 32.158766,21.979434 L 37.068811,17.246167 C 37.068811,17.246167 37.088388,32 37.088388,32 L 22.160133,31.978069 C 22.160133,31.978069 26.997745,27.140456 26.997745,27.140456 C 18.528582,18.264221 13.291696,25.230495 11.500037,31.436501 z"
             style="fill:#404040;"/>
          </a>
         </g>
        </svg>
</svg>
