<?xml version="1.0" encoding="UTF-8" standalone="no"?>
<!DOCTYPE svg PUBLIC "-//W3C//DTD SVG 1.1//EN"
 "http://www.w3.org/Graphics/SVG/1.1/DTD/svg11.dtd">
<!-- Generated by graphviz version 2.40.1 (20161225.0304)
 -->
<!-- Title: QtPassSettings::isUseAutoclearPanel Pages: 1 -->
<svg width="649pt" height="37pt"
 viewBox="0.00 0.00 649.08 37.00" xmlns="http://www.w3.org/2000/svg" xmlns:xlink="http://www.w3.org/1999/xlink">
<g id="graph0" class="graph" transform="scale(1 1) rotate(0) translate(4 33)">
<title>QtPassSettings::isUseAutoclearPanel</title>
<!-- Node406 -->
<g id="node1" class="node">
<title>Node406</title>
<polygon fill="#bfbfbf" stroke="#000000" points="0,-.5 0,-28.5 157.7285,-28.5 157.7285,-.5 0,-.5"/>
<text text-anchor="start" x="8" y="-16.5" font-family="Helvetica,sans-Serif" font-size="10.00" fill="#000000">QtPassSettings::isUseAutoclear</text>
<text text-anchor="middle" x="78.8643" y="-6.5" font-family="Helvetica,sans-Serif" font-size="10.00" fill="#000000">Panel</text>
</g>
<!-- Node407 -->
<g id="node2" class="node">
<title>Node407</title>
<g id="a_node2"><a xlink:href="class_main_window.html#aeb8091ab5531144b76c1fbb0d63deb56" target="_top" xlink:title="MainWindow::config pops up the configuration screen and handles all inter&#45;window communication. ">
<polygon fill="none" stroke="#000000" points="193.7285,-5.5 193.7285,-23.5 299.2109,-23.5 299.2109,-5.5 193.7285,-5.5"/>
<text text-anchor="middle" x="246.4697" y="-11.5" font-family="Helvetica,sans-Serif" font-size="10.00" fill="#000000">MainWindow::config</text>
</a>
</g>
</g>
<!-- Node406&#45;&gt;Node407 -->
<g id="edge1" class="edge">
<title>Node406&#45;&gt;Node407</title>
<path fill="none" stroke="#191970" d="M167.9419,-14.5C176.6055,-14.5 185.1937,-14.5 193.334,-14.5"/>
<polygon fill="#191970" stroke="#191970" points="167.7592,-11.0001 157.7592,-14.5 167.7591,-18.0001 167.7592,-11.0001"/>
</g>
<!-- Node408 -->
<g id="node3" class="node">
<title>Node408</title>
<g id="a_node3"><a xlink:href="class_main_window.html#a23d2783cb61a373c4b0127970264290a" target="_top" xlink:title="MainWindow::checkConfig make sure we are ready to go as soon as possible. ">
<polygon fill="none" stroke="#000000" points="335.2109,-5.5 335.2109,-23.5 469.0381,-23.5 469.0381,-5.5 335.2109,-5.5"/>
<text text-anchor="middle" x="402.1245" y="-11.5" font-family="Helvetica,sans-Serif" font-size="10.00" fill="#000000">MainWindow::checkConfig</text>
</a>
</g>
</g>
<!-- Node407&#45;&gt;Node408 -->
<g id="edge2" class="edge">
<title>Node407&#45;&gt;Node408</title>
<path fill="none" stroke="#191970" d="M309.7023,-14.5C318.101,-14.5 326.7349,-14.5 335.1936,-14.5"/>
<polygon fill="#191970" stroke="#191970" points="309.602,-11.0001 299.6019,-14.5 309.6019,-18.0001 309.602,-11.0001"/>
</g>
<!-- Node409 -->
<g id="node4" class="node">
<title>Node409</title>
<g id="a_node4"><a xlink:href="class_main_window.html#a996c5a2b6f77944776856f08ec30858d" target="_top" xlink:title="MainWindow::MainWindow handles all of the main functionality and also the main window. ">
<polygon fill="none" stroke="#000000" points="505.0381,-5.5 505.0381,-23.5 641.0771,-23.5 641.0771,-5.5 505.0381,-5.5"/>
<text text-anchor="middle" x="573.0576" y="-11.5" font-family="Helvetica,sans-Serif" font-size="10.00" fill="#000000">MainWindow::MainWindow</text>
</a>
</g>
</g>
<!-- Node408&#45;&gt;Node409 -->
<g id="edge3" class="edge">
<title>Node408&#45;&gt;Node409</title>
<path fill="none" stroke="#191970" d="M479.4282,-14.5C487.8828,-14.5 496.445,-14.5 504.7797,-14.5"/>
<polygon fill="#191970" stroke="#191970" points="479.1912,-11.0001 469.1912,-14.5 479.1912,-18.0001 479.1912,-11.0001"/>
</g>
</g>
</svg>
