<?xml version="1.0" encoding="UTF-8" standalone="no"?>
<!DOCTYPE svg PUBLIC "-//W3C//DTD SVG 1.1//EN"
 "http://www.w3.org/Graphics/SVG/1.1/DTD/svg11.dtd">
<!-- Generated by graphviz version 2.38.0 (20140413.2041)
 -->
<!-- Title: UsersDialog::setUsers Pages: 1 -->
<svg width="430pt" height="27pt"
 viewBox="0.00 0.00 429.78 27.00" xmlns="http://www.w3.org/2000/svg" xmlns:xlink="http://www.w3.org/1999/xlink">
<g id="graph0" class="graph" transform="scale(1 1) rotate(0) translate(4 23)">
<title>UsersDialog::setUsers</title>
<!-- Node11 -->
<g id="node1" class="node"><title>Node11</title>
<polygon fill="#bfbfbf" stroke="black" points="0,-0.5 0,-18.5 115.473,-18.5 115.473,-0.5 0,-0.5"/>
<text text-anchor="middle" x="57.7363" y="-6.5" font-family="Helvetica,sans-Serif" font-size="10.00">UsersDialog::setUsers</text>
</g>
<!-- Node12 -->
<g id="node2" class="node"><title>Node12</title>
<g id="a_node2"><a xlink:href="class_main_window.html#add7481e9707f309caba6b5d3a8c1ddc9" target="_top" xlink:title="MainWindow::userDialog see MainWindow::on_usersButton_clicked() ">
<polygon fill="none" stroke="black" points="151.473,-0.5 151.473,-18.5 278.073,-18.5 278.073,-0.5 151.473,-0.5"/>
<text text-anchor="middle" x="214.773" y="-6.5" font-family="Helvetica,sans-Serif" font-size="10.00">MainWindow::userDialog</text>
</a>
</g>
</g>
<!-- Node11&#45;&gt;Node12 -->
<g id="edge1" class="edge"><title>Node11&#45;&gt;Node12</title>
<path fill="none" stroke="midnightblue" d="M125.844,-9.5C134.346,-9.5 143.018,-9.5 151.441,-9.5"/>
<polygon fill="midnightblue" stroke="midnightblue" points="125.586,-6.0001 115.586,-9.5 125.586,-13.0001 125.586,-6.0001"/>
</g>
<!-- Node13 -->
<g id="node3" class="node"><title>Node13</title>
<g id="a_node3"><a xlink:href="class_config_dialog.html#ad5b80066591f19fdaaa06b7cb5ba7f15" target="_top" xlink:title="ConfigDialog::wizard first&#45;time use wizard. ">
<polygon fill="none" stroke="black" points="314.073,-0.5 314.073,-18.5 421.782,-18.5 421.782,-0.5 314.073,-0.5"/>
<text text-anchor="middle" x="367.928" y="-6.5" font-family="Helvetica,sans-Serif" font-size="10.00">ConfigDialog::wizard</text>
</a>
</g>
</g>
<!-- Node12&#45;&gt;Node13 -->
<g id="edge2" class="edge"><title>Node12&#45;&gt;Node13</title>
<path fill="none" stroke="midnightblue" d="M288.223,-9.5C296.87,-9.5 305.57,-9.5 313.872,-9.5"/>
<polygon fill="midnightblue" stroke="midnightblue" points="288.126,-6.0001 278.126,-9.5 288.126,-13.0001 288.126,-6.0001"/>
</g>
</g>
</svg>
