<?xml version="1.0" encoding="UTF-8" standalone="no"?>
<!DOCTYPE svg PUBLIC "-//W3C//DTD SVG 1.1//EN"
 "http://www.w3.org/Graphics/SVG/1.1/DTD/svg11.dtd">
<!-- Generated by graphviz version 2.43.0 (0)
 -->
<!-- Title: QtPassSettings::getDialogSize Pages: 1 -->
<svg width="365pt" height="64pt"
 viewBox="0.00 0.00 365.00 64.00" xmlns="http://www.w3.org/2000/svg" xmlns:xlink="http://www.w3.org/1999/xlink">
<g id="graph0" class="graph" transform="scale(1 1) rotate(0) translate(4 60)">
<title>QtPassSettings::getDialogSize</title>
<!-- Node1 -->
<g id="Node000001" class="node">
<title>Node1</title>
<g id="a_Node000001"><a xlink:title="Get saved dialog size.">
<polygon fill="#999999" stroke="#666666" points="357,-37 194,-37 194,-18 357,-18 357,-37"/>
<text text-anchor="middle" x="275.5" y="-25" font-family="Helvetica,sans-Serif" font-size="10.00">QtPassSettings::getDialogSize</text>
</a>
</g>
</g>
<!-- Node2 -->
<g id="Node000002" class="node">
<title>Node2</title>
<g id="a_Node000002"><a xlink:href="class_keygen_dialog.html#a565b5698b7bb40720476d61b8b1b8548" target="_top" xlink:title="KeygenDialog::KeygenDialog basic constructor.">
<polygon fill="white" stroke="#666666" points="158,-56 0,-56 0,-37 158,-37 158,-56"/>
<text text-anchor="middle" x="79" y="-44" font-family="Helvetica,sans-Serif" font-size="10.00">KeygenDialog::KeygenDialog</text>
</a>
</g>
</g>
<!-- Node1&#45;&gt;Node2 -->
<g id="edge1_Node000001_Node000002" class="edge">
<title>Node1&#45;&gt;Node2</title>
<g id="a_edge1_Node000001_Node000002"><a xlink:title=" ">
<path fill="none" stroke="#63b8ff" d="M183.96,-36.34C175.37,-37.18 166.72,-38.03 158.26,-38.85"/>
<polygon fill="#63b8ff" stroke="#63b8ff" points="184.37,-39.82 193.99,-35.37 183.69,-32.85 184.37,-39.82"/>
</a>
</g>
</g>
<!-- Node3 -->
<g id="Node000003" class="node">
<title>Node3</title>
<g id="a_Node000003"><a xlink:href="class_users_dialog.html#a7a3d75a01a48609ce7571cec09b95f07" target="_top" xlink:title="Construct users dialog.">
<polygon fill="white" stroke="#666666" points="149.5,-19 8.5,-19 8.5,0 149.5,0 149.5,-19"/>
<text text-anchor="middle" x="79" y="-7" font-family="Helvetica,sans-Serif" font-size="10.00">UsersDialog::UsersDialog</text>
</a>
</g>
</g>
<!-- Node1&#45;&gt;Node3 -->
<g id="edge2_Node000001_Node000003" class="edge">
<title>Node1&#45;&gt;Node3</title>
<g id="a_edge2_Node000001_Node000003"><a xlink:title=" ">
<path fill="none" stroke="#63b8ff" d="M183.9,-19.12C172.38,-18.05 160.73,-16.97 149.6,-15.94"/>
<polygon fill="#63b8ff" stroke="#63b8ff" points="183.71,-22.61 193.99,-20.05 184.35,-15.64 183.71,-22.61"/>
</a>
</g>
</g>
</g>
</svg>
