<?xml version="1.0" encoding="UTF-8" standalone="no"?>
<!DOCTYPE svg PUBLIC "-//W3C//DTD SVG 1.1//EN"
 "http://www.w3.org/Graphics/SVG/1.1/DTD/svg11.dtd">
<!-- Generated by graphviz version 2.40.1 (20161225.0304)
 -->
<!-- Title: MainWindow::closeEvent Pages: 1 -->
<!--zoomable 306 -->
<svg id="main" version="1.1" xmlns="http://www.w3.org/2000/svg" xmlns:xlink="http://www.w3.org/1999/xlink" xml:space="preserve" onload="init(evt)">
<style type="text/css"><![CDATA[
.edge:hover path { stroke: red; }
.edge:hover polygon { stroke: red; fill: red; }
]]></style>
<script type="text/javascript"><![CDATA[
var edges = document.getElementsByTagName('g');
if (edges && edges.length) {
  for (var i=0;i<edges.length;i++) {
    if (edges[i].id.substr(0,4)=='edge') {
      edges[i].setAttribute('class','edge');
    }
  }
}
]]></script>
        <defs>
                <circle id="rim" cx="0" cy="0" r="7"/>
                <circle id="rim2" cx="0" cy="0" r="3.5"/>
                <g id="zoomPlus">
                        <use xlink:href="#rim" fill="#404040">
                                <set attributeName="fill" to="#808080" begin="zoomplus.mouseover" end="zoomplus.mouseout"/>
                        </use>
                        <path d="M-4,0h8M0,-4v8" fill="none" stroke="white" stroke-width="1.5" pointer-events="none"/>
                </g>
                <g id="zoomMin">
                        <use xlink:href="#rim" fill="#404040">
                                <set attributeName="fill" to="#808080" begin="zoomminus.mouseover" end="zoomminus.mouseout"/>
                        </use>
                        <path d="M-4,0h8" fill="none" stroke="white" stroke-width="1.5" pointer-events="none"/>
                </g>
                <g id="dirArrow">
                        <path fill="none" stroke="white" stroke-width="1.5" d="M0,-3.0v7 M-2.5,-0.5L0,-3.0L2.5,-0.5"/>
                </g>
               <g id="resetDef">
                       <use xlink:href="#rim2" fill="#404040">
                               <set attributeName="fill" to="#808080" begin="reset.mouseover" end="reset.mouseout"/>
                       </use>
               </g>
        </defs>

<script type="text/javascript">
var viewWidth = 502;
var viewHeight = 306;
var sectionId = 'dynsection-6';
</script>
<script xlink:href="svgpan.js"/>
<svg id="graph" class="graph">
<g id="viewport">
<title>MainWindow::closeEvent</title>
<!-- Node179 -->
<g id="node1" class="node">
<title>Node179</title>
<polygon fill="#bfbfbf" stroke="#000000" points="0,-139.5 0,-157.5 127.7139,-157.5 127.7139,-139.5 0,-139.5"/>
<text text-anchor="middle" x="63.8569" y="-145.5" font-family="Helvetica,sans-Serif" font-size="10.00" fill="#000000">MainWindow::closeEvent</text>
</g>
<!-- Node180 -->
<g id="node2" class="node">
<title>Node180</title>
<g id="a_node2"><a xlink:href="class_qt_pass_settings.html#a489a5cb534d2d9df3f4ff8179a7e908e" target="_top" xlink:title="QtPassSettings::isHideOn\lClose">
<polygon fill="none" stroke="#000000" points="173.7212,-269.5 173.7212,-297.5 305.3267,-297.5 305.3267,-269.5 173.7212,-269.5"/>
<text text-anchor="start" x="181.7212" y="-285.5" font-family="Helvetica,sans-Serif" font-size="10.00" fill="#000000">QtPassSettings::isHideOn</text>
<text text-anchor="middle" x="239.5239" y="-275.5" font-family="Helvetica,sans-Serif" font-size="10.00" fill="#000000">Close</text>
</a>
</g>
</g>
<!-- Node179&#45;&gt;Node180 -->
<g id="edge1" class="edge">
<title>Node179&#45;&gt;Node180</title>
<path fill="none" stroke="#191970" d="M69.3928,-157.5656C82.8341,-178.8128 119.3717,-232.1651 163.7139,-260.5 166.2962,-262.1501 169.0033,-263.6872 171.7939,-265.1185"/>
<polygon fill="#191970" stroke="#191970" points="170.3934,-268.3269 180.9398,-269.3382 173.326,-261.9708 170.3934,-268.3269"/>
</g>
<!-- Node182 -->
<g id="node4" class="node">
<title>Node182</title>
<g id="a_node4"><a xlink:href="class_qt_pass_settings.html#aef634f4b530941fbb41f0f1073f5f1f4" target="_top" xlink:title="QtPassSettings::setGeometry">
<polygon fill="none" stroke="#000000" points="165.6646,-232.5 165.6646,-250.5 313.3833,-250.5 313.3833,-232.5 165.6646,-232.5"/>
<text text-anchor="middle" x="239.5239" y="-238.5" font-family="Helvetica,sans-Serif" font-size="10.00" fill="#000000">QtPassSettings::setGeometry</text>
</a>
</g>
</g>
<!-- Node179&#45;&gt;Node182 -->
<g id="edge3" class="edge">
<title>Node179&#45;&gt;Node182</title>
<path fill="none" stroke="#191970" d="M73.1729,-157.6463C89.8672,-173.5105 126.6154,-206.0958 163.7139,-223.5 168.4154,-225.7057 173.4118,-227.6546 178.5087,-229.3742"/>
<polygon fill="#191970" stroke="#191970" points="177.7966,-232.8168 188.3835,-232.4056 179.851,-226.125 177.7966,-232.8168"/>
</g>
<!-- Node183 -->
<g id="node5" class="node">
<title>Node183</title>
<g id="a_node5"><a xlink:href="class_qt_pass_settings.html#abd5068c7125fcc7d9eb238aea028fd95" target="_top" xlink:title="QtPassSettings::setSavestate">
<polygon fill="none" stroke="#000000" points="165.3789,-195.5 165.3789,-213.5 313.6689,-213.5 313.6689,-195.5 165.3789,-195.5"/>
<text text-anchor="middle" x="239.5239" y="-201.5" font-family="Helvetica,sans-Serif" font-size="10.00" fill="#000000">QtPassSettings::setSavestate</text>
</a>
</g>
</g>
<!-- Node179&#45;&gt;Node183 -->
<g id="edge5" class="edge">
<title>Node179&#45;&gt;Node183</title>
<path fill="none" stroke="#191970" d="M85.3895,-157.6308C105.423,-165.9005 136.2331,-178.0482 163.7139,-186.5 171.2596,-188.8207 179.3047,-191.0187 187.2293,-193.0295"/>
<polygon fill="#191970" stroke="#191970" points="186.6096,-196.4813 197.1562,-195.4713 188.2817,-189.6839 186.6096,-196.4813"/>
</g>
<!-- Node184 -->
<g id="node6" class="node">
<title>Node184</title>
<g id="a_node6"><a xlink:href="class_qt_pass_settings.html#a0394e31adec055bd3d84cd09dca5576c" target="_top" xlink:title="QtPassSettings::setMaximized">
<polygon fill="none" stroke="#000000" points="163.7212,-158.5 163.7212,-176.5 315.3267,-176.5 315.3267,-158.5 163.7212,-158.5"/>
<text text-anchor="middle" x="239.5239" y="-164.5" font-family="Helvetica,sans-Serif" font-size="10.00" fill="#000000">QtPassSettings::setMaximized</text>
</a>
</g>
</g>
<!-- Node179&#45;&gt;Node184 -->
<g id="edge7" class="edge">
<title>Node179&#45;&gt;Node184</title>
<path fill="none" stroke="#191970" d="M127.7737,-155.4132C136.1644,-156.3207 144.8702,-157.2623 153.5519,-158.2013"/>
<polygon fill="#191970" stroke="#191970" points="153.3934,-161.7045 163.7118,-159.3002 154.1462,-154.7451 153.3934,-161.7045"/>
</g>
<!-- Node185 -->
<g id="node7" class="node">
<title>Node185</title>
<g id="a_node7"><a xlink:href="class_qt_pass_settings.html#a8b3520f10b70e098629c5b713c69f3a0" target="_top" xlink:title="QtPassSettings::setPos">
<polygon fill="none" stroke="#000000" points="178.9995,-121.5 178.9995,-139.5 300.0483,-139.5 300.0483,-121.5 178.9995,-121.5"/>
<text text-anchor="middle" x="239.5239" y="-127.5" font-family="Helvetica,sans-Serif" font-size="10.00" fill="#000000">QtPassSettings::setPos</text>
</a>
</g>
</g>
<!-- Node179&#45;&gt;Node185 -->
<g id="edge9" class="edge">
<title>Node179&#45;&gt;Node185</title>
<path fill="none" stroke="#191970" d="M127.7737,-141.9507C141.0633,-140.5889 155.1436,-139.1462 168.6658,-137.7606"/>
<polygon fill="#191970" stroke="#191970" points="169.2841,-141.2157 178.8752,-136.7145 168.5705,-134.2521 169.2841,-141.2157"/>
</g>
<!-- Node186 -->
<g id="node8" class="node">
<title>Node186</title>
<g id="a_node8"><a xlink:href="class_qt_pass_settings.html#adf303d889c36195d4e0efb156baf50a6" target="_top" xlink:title="QtPassSettings::setSize">
<polygon fill="none" stroke="#000000" points="177.8887,-84.5 177.8887,-102.5 301.1592,-102.5 301.1592,-84.5 177.8887,-84.5"/>
<text text-anchor="middle" x="239.5239" y="-90.5" font-family="Helvetica,sans-Serif" font-size="10.00" fill="#000000">QtPassSettings::setSize</text>
</a>
</g>
</g>
<!-- Node179&#45;&gt;Node186 -->
<g id="edge11" class="edge">
<title>Node179&#45;&gt;Node186</title>
<path fill="none" stroke="#191970" d="M87.039,-139.3931C107.1366,-131.6789 137.0953,-120.6115 163.7139,-112.5 172.2954,-109.885 181.501,-107.3533 190.436,-105.0364"/>
<polygon fill="#191970" stroke="#191970" points="191.5286,-108.3702 200.3611,-102.5189 189.8075,-101.5851 191.5286,-108.3702"/>
</g>
<!-- Node187 -->
<g id="node9" class="node">
<title>Node187</title>
<g id="a_node9"><a xlink:href="class_qt_pass_settings.html#aeb7439b3884140165d0ba07e3af34498" target="_top" xlink:title="QtPassSettings::setSplitterLeft">
<polygon fill="none" stroke="#000000" points="163.7139,-47.5 163.7139,-65.5 315.334,-65.5 315.334,-47.5 163.7139,-47.5"/>
<text text-anchor="middle" x="239.5239" y="-53.5" font-family="Helvetica,sans-Serif" font-size="10.00" fill="#000000">QtPassSettings::setSplitterLeft</text>
</a>
</g>
</g>
<!-- Node179&#45;&gt;Node187 -->
<g id="edge13" class="edge">
<title>Node179&#45;&gt;Node187</title>
<path fill="none" stroke="#191970" d="M73.5132,-139.412C90.4408,-123.9741 127.1594,-92.6383 163.7139,-75.5 169.4381,-72.8162 175.5899,-70.48 181.824,-68.4537"/>
<polygon fill="#191970" stroke="#191970" points="183.0605,-71.7372 191.6388,-65.5192 181.0552,-65.0305 183.0605,-71.7372"/>
</g>
<!-- Node188 -->
<g id="node10" class="node">
<title>Node188</title>
<g id="a_node10"><a xlink:href="class_qt_pass_settings.html#a615c198bda5e7529dfdd4b744a39391c" target="_top" xlink:title="QtPassSettings::setSplitter\lRight">
<polygon fill="none" stroke="#000000" points="172.0537,-.5 172.0537,-28.5 306.9941,-28.5 306.9941,-.5 172.0537,-.5"/>
<text text-anchor="start" x="180.0537" y="-16.5" font-family="Helvetica,sans-Serif" font-size="10.00" fill="#000000">QtPassSettings::setSplitter</text>
<text text-anchor="middle" x="239.5239" y="-6.5" font-family="Helvetica,sans-Serif" font-size="10.00" fill="#000000">Right</text>
</a>
</g>
</g>
<!-- Node179&#45;&gt;Node188 -->
<g id="edge15" class="edge">
<title>Node179&#45;&gt;Node188</title>
<path fill="none" stroke="#191970" d="M69.6606,-139.3244C83.4024,-118.3354 120.0714,-66.4824 163.7139,-38.5 167.0188,-36.381 170.5249,-34.4366 174.1467,-32.6542"/>
<polygon fill="#191970" stroke="#191970" points="175.635,-35.8228 183.3394,-28.55 172.7812,-29.4309 175.635,-35.8228"/>
</g>
<!-- Node181 -->
<g id="node3" class="node">
<title>Node181</title>
<g id="a_node3"><a xlink:href="class_qt_pass_settings.html#ab83659fdbfb9069942e6982076b4b934" target="_top" xlink:title="QtPassSettings::getInstance">
<polygon fill="none" stroke="#000000" points="351.334,-139.5 351.334,-157.5 493.5156,-157.5 493.5156,-139.5 351.334,-139.5"/>
<text text-anchor="middle" x="422.4248" y="-145.5" font-family="Helvetica,sans-Serif" font-size="10.00" fill="#000000">QtPassSettings::getInstance</text>
</a>
</g>
</g>
<!-- Node180&#45;&gt;Node181 -->
<g id="edge2" class="edge">
<title>Node180&#45;&gt;Node181</title>
<path fill="none" stroke="#191970" d="M297.1994,-269.4697C303.5295,-266.9268 309.7098,-263.9574 315.334,-260.5 356.3851,-235.2645 392.4172,-190.5131 410.3572,-165.9094"/>
<polygon fill="#191970" stroke="#191970" points="413.3628,-167.7228 416.3198,-157.549 407.6638,-163.6582 413.3628,-167.7228"/>
</g>
<!-- Node182&#45;&gt;Node181 -->
<g id="edge4" class="edge">
<title>Node182&#45;&gt;Node181</title>
<path fill="none" stroke="#191970" d="M289.7585,-232.4067C298.4774,-230.0348 307.3127,-227.1017 315.334,-223.5 349.5776,-208.124 384.2689,-181.3154 404.5392,-164.2615"/>
<polygon fill="#191970" stroke="#191970" points="406.9837,-166.7761 412.3003,-157.6117 402.4292,-161.4604 406.9837,-166.7761"/>
</g>
<!-- Node183&#45;&gt;Node181 -->
<g id="edge6" class="edge">
<title>Node183&#45;&gt;Node181</title>
<path fill="none" stroke="#191970" d="M281.0498,-195.493C292.2439,-192.8335 304.3062,-189.7554 315.334,-186.5 340.6516,-179.0262 368.7604,-168.9836 389.8256,-161.0994"/>
<polygon fill="#191970" stroke="#191970" points="391.1464,-164.342 399.265,-157.5347 388.6733,-157.7934 391.1464,-164.342"/>
</g>
<!-- Node184&#45;&gt;Node181 -->
<g id="edge8" class="edge">
<title>Node184&#45;&gt;Node181</title>
<path fill="none" stroke="#191970" d="M315.5014,-159.6074C323.8747,-158.7375 332.4262,-157.8492 340.864,-156.9726"/>
<polygon fill="#191970" stroke="#191970" points="341.4956,-160.426 351.0804,-155.9114 340.7722,-153.4634 341.4956,-160.426"/>
</g>
<!-- Node185&#45;&gt;Node181 -->
<g id="edge10" class="edge">
<title>Node185&#45;&gt;Node181</title>
<path fill="none" stroke="#191970" d="M300.1732,-136.4687C313.3104,-137.7616 327.4077,-139.149 341.1915,-140.5055"/>
<polygon fill="#191970" stroke="#191970" points="340.8598,-143.9897 351.1546,-141.486 341.5455,-137.0233 340.8598,-143.9897"/>
</g>
<!-- Node186&#45;&gt;Node181 -->
<g id="edge12" class="edge">
<title>Node186&#45;&gt;Node181</title>
<path fill="none" stroke="#191970" d="M278.249,-102.582C290.194,-105.5504 303.3542,-108.9911 315.334,-112.5 339.5989,-119.6072 366.5803,-128.6848 387.39,-135.9464"/>
<polygon fill="#191970" stroke="#191970" points="386.4761,-139.335 397.0709,-139.3487 388.7971,-132.731 386.4761,-139.335"/>
</g>
<!-- Node187&#45;&gt;Node181 -->
<g id="edge14" class="edge">
<title>Node187&#45;&gt;Node181</title>
<path fill="none" stroke="#191970" d="M286.5036,-65.5277C296.2505,-68.1556 306.2977,-71.4436 315.334,-75.5 349.1016,-90.6584 383.6911,-116.4781 404.1033,-132.9986"/>
<polygon fill="#191970" stroke="#191970" points="401.9952,-135.7966 411.9397,-139.4513 406.4448,-130.3928 401.9952,-135.7966"/>
</g>
<!-- Node188&#45;&gt;Node181 -->
<g id="edge16" class="edge">
<title>Node188&#45;&gt;Node181</title>
<path fill="none" stroke="#191970" d="M295.184,-28.5938C302.2083,-31.3794 309.1066,-34.6588 315.334,-38.5 355.7647,-63.4386 391.8069,-106.9704 409.974,-131.1177"/>
<polygon fill="#191970" stroke="#191970" points="407.2846,-133.3682 416.0334,-139.3441 412.9208,-129.2168 407.2846,-133.3682"/>
</g>
</g>
</svg>
        <g id="navigator" transform="translate(0 0)" fill="#404254">
                <rect fill="#f2f5e9" fill-opacity="0.5" stroke="#606060" stroke-width=".5" x="0" y="0" width="60" height="60"/>
                <use id="zoomplus" xlink:href="#zoomPlus" x="17" y="9" onmousedown="handleZoom(evt,'in')"/>
                <use id="zoomminus" xlink:href="#zoomMin" x="42" y="9" onmousedown="handleZoom(evt,'out')"/>
                <use id="reset" xlink:href="#resetDef" x="30" y="36" onmousedown="handleReset()"/>
                <g id="arrowUp" xlink:href="#dirArrow" transform="translate(30 24)" onmousedown="handlePan(0,-1)">
                  <use xlink:href="#rim" fill="#404040">
                        <set attributeName="fill" to="#808080" begin="arrowUp.mouseover" end="arrowUp.mouseout"/>
                  </use>
                  <path fill="none" stroke="white" stroke-width="1.5" d="M0,-3.0v7 M-2.5,-0.5L0,-3.0L2.5,-0.5"/>
                </g>
                <g id="arrowRight" xlink:href="#dirArrow" transform="rotate(90) translate(36 -43)" onmousedown="handlePan(1,0)">
                  <use xlink:href="#rim" fill="#404040">
                        <set attributeName="fill" to="#808080" begin="arrowRight.mouseover" end="arrowRight.mouseout"/>
                  </use>
                  <path fill="none" stroke="white" stroke-width="1.5" d="M0,-3.0v7 M-2.5,-0.5L0,-3.0L2.5,-0.5"/>
                </g>
                <g id="arrowDown" xlink:href="#dirArrow" transform="rotate(180) translate(-30 -48)" onmousedown="handlePan(0,1)">
                  <use xlink:href="#rim" fill="#404040">
                        <set attributeName="fill" to="#808080" begin="arrowDown.mouseover" end="arrowDown.mouseout"/>
                  </use>
                  <path fill="none" stroke="white" stroke-width="1.5" d="M0,-3.0v7 M-2.5,-0.5L0,-3.0L2.5,-0.5"/>
                </g>
                <g id="arrowLeft" xlink:href="#dirArrow" transform="rotate(270) translate(-36 17)" onmousedown="handlePan(-1,0)">
                  <use xlink:href="#rim" fill="#404040">
                        <set attributeName="fill" to="#808080" begin="arrowLeft.mouseover" end="arrowLeft.mouseout"/>
                  </use>
                  <path fill="none" stroke="white" stroke-width="1.5" d="M0,-3.0v7 M-2.5,-0.5L0,-3.0L2.5,-0.5"/>
                </g>
        </g>
        <svg viewBox="0 0 15 15" width="100%" height="30px" preserveAspectRatio="xMaxYMin meet">
         <g id="arrow_out" transform="scale(0.3 0.3)">
          <a xlink:href="class_main_window_a4e20a4a065fbb0e4d3532a45a0a91425_cgraph_org.svg" target="_base">
           <rect id="button" ry="5" rx="5" y="6" x="6" height="38" width="38"
                fill="#f2f5e9" fill-opacity="0.5" stroke="#606060" stroke-width="1.0"/>
           <path id="arrow"
             d="M 11.500037,31.436501 C 11.940474,20.09759 22.043105,11.32322 32.158766,21.979434 L 37.068811,17.246167 C 37.068811,17.246167 37.088388,32 37.088388,32 L 22.160133,31.978069 C 22.160133,31.978069 26.997745,27.140456 26.997745,27.140456 C 18.528582,18.264221 13.291696,25.230495 11.500037,31.436501 z"
             style="fill:#404040;"/>
          </a>
         </g>
        </svg>
</svg>
