<?xml version="1.0" encoding="UTF-8" standalone="no"?>
<!DOCTYPE svg PUBLIC "-//W3C//DTD SVG 1.1//EN"
 "http://www.w3.org/Graphics/SVG/1.1/DTD/svg11.dtd">
<!-- Generated by graphviz version 2.40.1 (20161225.0304)
 -->
<!-- Title: QtPassSettings::isAutoPull Pages: 1 -->
<svg width="695pt" height="214pt"
 viewBox="0.00 0.00 694.65 214.00" xmlns="http://www.w3.org/2000/svg" xmlns:xlink="http://www.w3.org/1999/xlink">
<g id="graph0" class="graph" transform="scale(1 1) rotate(0) translate(4 210)">
<title>QtPassSettings::isAutoPull</title>
<!-- Node263 -->
<g id="node1" class="node">
<title>Node263</title>
<polygon fill="#bfbfbf" stroke="#000000" points="0,-37.5 0,-55.5 134.9453,-55.5 134.9453,-37.5 0,-37.5"/>
<text text-anchor="middle" x="67.4727" y="-43.5" font-family="Helvetica,sans-Serif" font-size="10.00" fill="#000000">QtPassSettings::isAutoPull</text>
</g>
<!-- Node264 -->
<g id="node2" class="node">
<title>Node264</title>
<g id="a_node2"><a xlink:href="class_imitate_pass.html#a8670f6326e3dfe0018a0737fba27da2f" target="_top" xlink:title="ImitatePass::reencryptPath reencrypt all files under the chosen directory. ">
<polygon fill="none" stroke="#000000" points="175.6646,-111.5 175.6646,-129.5 311.7183,-129.5 311.7183,-111.5 175.6646,-111.5"/>
<text text-anchor="middle" x="243.6914" y="-117.5" font-family="Helvetica,sans-Serif" font-size="10.00" fill="#000000">ImitatePass::reencryptPath</text>
</a>
</g>
</g>
<!-- Node263&#45;&gt;Node264 -->
<g id="edge1" class="edge">
<title>Node263&#45;&gt;Node264</title>
<path fill="none" stroke="#191970" d="M98.48,-59.521C133.9909,-74.4332 191.2402,-98.474 222.1827,-111.4678"/>
<polygon fill="#191970" stroke="#191970" points="99.6557,-56.2187 89.0805,-55.5739 96.9454,-62.6727 99.6557,-56.2187"/>
</g>
<!-- Node269 -->
<g id="node7" class="node">
<title>Node269</title>
<g id="a_node7"><a xlink:href="class_main_window.html#aeb8091ab5531144b76c1fbb0d63deb56" target="_top" xlink:title="MainWindow::config pops up the configuration screen and handles all inter&#45;window communication. ">
<polygon fill="none" stroke="#000000" points="190.9502,-37.5 190.9502,-55.5 296.4326,-55.5 296.4326,-37.5 190.9502,-37.5"/>
<text text-anchor="middle" x="243.6914" y="-43.5" font-family="Helvetica,sans-Serif" font-size="10.00" fill="#000000">MainWindow::config</text>
</a>
</g>
</g>
<!-- Node263&#45;&gt;Node269 -->
<g id="edge9" class="edge">
<title>Node263&#45;&gt;Node269</title>
<path fill="none" stroke="#191970" d="M145.1431,-46.5C160.5522,-46.5 176.3933,-46.5 190.7453,-46.5"/>
<polygon fill="#191970" stroke="#191970" points="145.0995,-43.0001 135.0995,-46.5 145.0994,-50.0001 145.0995,-43.0001"/>
</g>
<!-- Node274 -->
<g id="node12" class="node">
<title>Node274</title>
<g id="a_node12"><a xlink:href="class_main_window.html#a9c4f542263838b9ecd06eae839a42a34" target="_top" xlink:title="MainWindow::keyPressEvent did anyone press return, enter or escape? ">
<polygon fill="none" stroke="#000000" points="170.9453,-.5 170.9453,-18.5 316.4375,-18.5 316.4375,-.5 170.9453,-.5"/>
<text text-anchor="middle" x="243.6914" y="-6.5" font-family="Helvetica,sans-Serif" font-size="10.00" fill="#000000">MainWindow::keyPressEvent</text>
</a>
</g>
</g>
<!-- Node263&#45;&gt;Node274 -->
<g id="edge14" class="edge">
<title>Node263&#45;&gt;Node274</title>
<path fill="none" stroke="#191970" d="M120.5183,-35.3622C146.1659,-29.9771 176.5501,-23.5974 200.7234,-18.5218"/>
<polygon fill="#191970" stroke="#191970" points="119.648,-31.9685 110.5806,-37.4488 121.0864,-38.8192 119.648,-31.9685"/>
</g>
<!-- Node265 -->
<g id="node3" class="node">
<title>Node265</title>
<g id="a_node3"><a xlink:href="class_imitate_pass.html#ab4ee26f024636eb1b0989b1c1e67d5c0" target="_top" xlink:title="ImitatePass::Init initialize pass repository. ">
<polygon fill="none" stroke="#000000" points="389.9546,-187.5 389.9546,-205.5 477.0923,-205.5 477.0923,-187.5 389.9546,-187.5"/>
<text text-anchor="middle" x="433.5234" y="-193.5" font-family="Helvetica,sans-Serif" font-size="10.00" fill="#000000">ImitatePass::Init</text>
</a>
</g>
</g>
<!-- Node264&#45;&gt;Node265 -->
<g id="edge2" class="edge">
<title>Node264&#45;&gt;Node265</title>
<path fill="none" stroke="#191970" d="M269.5682,-134.3065C291.2865,-145.5432 323.3401,-161.3177 352.4375,-172.5 367.2378,-178.1878 383.9819,-183.348 398.3956,-187.4135"/>
<polygon fill="#191970" stroke="#191970" points="271.1325,-131.1748 260.6486,-129.6456 267.8906,-137.3789 271.1325,-131.1748"/>
</g>
<!-- Node266 -->
<g id="node4" class="node">
<title>Node266</title>
<g id="a_node4"><a xlink:href="class_imitate_pass.html#af4d70979dc11ccdee6cec699fb20d942" target="_top" xlink:title="ImitatePass::~ImitatePass">
<polygon fill="none" stroke="#000000" points="552.6895,-130.5 552.6895,-148.5 684.5684,-148.5 684.5684,-130.5 552.6895,-130.5"/>
<text text-anchor="middle" x="618.6289" y="-136.5" font-family="Helvetica,sans-Serif" font-size="10.00" fill="#000000">ImitatePass::~ImitatePass</text>
</a>
</g>
</g>
<!-- Node264&#45;&gt;Node266 -->
<g id="edge8" class="edge">
<title>Node264&#45;&gt;Node266</title>
<path fill="none" stroke="#191970" d="M295.3028,-131.3983C313.2951,-134.6961 333.6755,-137.8733 352.4375,-139.5 420.4632,-145.398 498.6355,-144.488 552.5828,-142.6638"/>
<polygon fill="#191970" stroke="#191970" points="295.7737,-127.9255 285.2978,-129.5085 294.4744,-134.8039 295.7737,-127.9255"/>
</g>
<!-- Node267 -->
<g id="node5" class="node">
<title>Node267</title>
<g id="a_node5"><a xlink:href="class_imitate_pass.html#abd150b37240a340cbec88d888e0a7fe6" target="_top" xlink:title="ImitatePass::Move">
<polygon fill="none" stroke="#000000" points="384.3979,-111.5 384.3979,-129.5 482.6489,-129.5 482.6489,-111.5 384.3979,-111.5"/>
<text text-anchor="middle" x="433.5234" y="-117.5" font-family="Helvetica,sans-Serif" font-size="10.00" fill="#000000">ImitatePass::Move</text>
</a>
</g>
</g>
<!-- Node264&#45;&gt;Node267 -->
<g id="edge4" class="edge">
<title>Node264&#45;&gt;Node267</title>
<path fill="none" stroke="#191970" d="M322.1735,-120.5C343.2052,-120.5 365.3472,-120.5 384.2979,-120.5"/>
<polygon fill="#191970" stroke="#191970" points="321.957,-117.0001 311.9569,-120.5 321.9569,-124.0001 321.957,-117.0001"/>
</g>
<!-- Node268 -->
<g id="node6" class="node">
<title>Node268</title>
<g id="a_node6"><a xlink:href="class_imitate_pass.html#a6db1849662fe03e61f9410fce080890d" target="_top" xlink:title="ImitatePass::Copy">
<polygon fill="none" stroke="#000000" points="384.9521,-74.5 384.9521,-92.5 482.0947,-92.5 482.0947,-74.5 384.9521,-74.5"/>
<text text-anchor="middle" x="433.5234" y="-80.5" font-family="Helvetica,sans-Serif" font-size="10.00" fill="#000000">ImitatePass::Copy</text>
</a>
</g>
</g>
<!-- Node264&#45;&gt;Node268 -->
<g id="edge6" class="edge">
<title>Node264&#45;&gt;Node268</title>
<path fill="none" stroke="#191970" d="M300.1026,-109.5049C327.8841,-104.0901 360.9649,-97.6423 387.2361,-92.5218"/>
<polygon fill="#191970" stroke="#191970" points="299.2752,-106.1003 290.1295,-111.4488 300.6145,-112.971 299.2752,-106.1003"/>
</g>
<!-- Node265&#45;&gt;Node266 -->
<g id="edge3" class="edge">
<title>Node265&#45;&gt;Node266</title>
<path fill="none" stroke="#191970" d="M474.6872,-184.4847C487.4936,-180.7014 501.6511,-176.4728 514.6094,-172.5 540.3309,-164.6142 569.5222,-155.3233 590.42,-148.6124"/>
<polygon fill="#191970" stroke="#191970" points="473.3588,-181.2273 464.755,-187.41 475.3365,-187.9421 473.3588,-181.2273"/>
</g>
<!-- Node267&#45;&gt;Node266 -->
<g id="edge5" class="edge">
<title>Node267&#45;&gt;Node266</title>
<path fill="none" stroke="#191970" d="M493.1178,-126.617C512.0674,-128.5621 533.1372,-130.7248 552.5182,-132.7141"/>
<polygon fill="#191970" stroke="#191970" points="493.4334,-123.1311 483.1283,-125.5917 492.7186,-130.0945 493.4334,-123.1311"/>
</g>
<!-- Node268&#45;&gt;Node266 -->
<g id="edge7" class="edge">
<title>Node268&#45;&gt;Node266</title>
<path fill="none" stroke="#191970" d="M486.0667,-94.9085C495.6137,-97.2373 505.4465,-99.806 514.6094,-102.5 542.7446,-110.7722 574.4045,-122.3726 595.3263,-130.3683"/>
<polygon fill="#191970" stroke="#191970" points="486.8,-91.4853 476.2612,-92.5734 485.1783,-98.2949 486.8,-91.4853"/>
</g>
<!-- Node270 -->
<g id="node8" class="node">
<title>Node270</title>
<g id="a_node8"><a xlink:href="class_main_window.html#a23d2783cb61a373c4b0127970264290a" target="_top" xlink:title="MainWindow::checkConfig make sure we are ready to go as soon as possible. ">
<polygon fill="none" stroke="#000000" points="366.6099,-37.5 366.6099,-55.5 500.437,-55.5 500.437,-37.5 366.6099,-37.5"/>
<text text-anchor="middle" x="433.5234" y="-43.5" font-family="Helvetica,sans-Serif" font-size="10.00" fill="#000000">MainWindow::checkConfig</text>
</a>
</g>
</g>
<!-- Node269&#45;&gt;Node270 -->
<g id="edge10" class="edge">
<title>Node269&#45;&gt;Node270</title>
<path fill="none" stroke="#191970" d="M306.6801,-46.5C325.8229,-46.5 346.9266,-46.5 366.3349,-46.5"/>
<polygon fill="#191970" stroke="#191970" points="306.5702,-43.0001 296.5702,-46.5 306.5702,-50.0001 306.5702,-43.0001"/>
</g>
<!-- Node272 -->
<g id="node10" class="node">
<title>Node272</title>
<g id="a_node10"><a xlink:href="class_main_window.html#a4680b2cbcfd388683a98303f29c0f84f" target="_top" xlink:title="MainWindow::executePassGitInit git init wrapper. ">
<polygon fill="none" stroke="#000000" points="352.4375,-.5 352.4375,-18.5 514.6094,-18.5 514.6094,-.5 352.4375,-.5"/>
<text text-anchor="middle" x="433.5234" y="-6.5" font-family="Helvetica,sans-Serif" font-size="10.00" fill="#000000">MainWindow::executePassGitInit</text>
</a>
</g>
</g>
<!-- Node269&#45;&gt;Node272 -->
<g id="edge12" class="edge">
<title>Node269&#45;&gt;Node272</title>
<path fill="none" stroke="#191970" d="M300.1026,-35.5049C327.8841,-30.0901 360.9649,-23.6423 387.2361,-18.5218"/>
<polygon fill="#191970" stroke="#191970" points="299.2752,-32.1003 290.1295,-37.4488 300.6145,-38.971 299.2752,-32.1003"/>
</g>
<!-- Node271 -->
<g id="node9" class="node">
<title>Node271</title>
<g id="a_node9"><a xlink:href="class_main_window.html#a8b244be8b7b7db1b08de2a2acb9409db" target="_top" xlink:title="MainWindow::MainWindow handles all of the main functionality and also the main window. ">
<polygon fill="none" stroke="#000000" points="550.6094,-37.5 550.6094,-55.5 686.6484,-55.5 686.6484,-37.5 550.6094,-37.5"/>
<text text-anchor="middle" x="618.6289" y="-43.5" font-family="Helvetica,sans-Serif" font-size="10.00" fill="#000000">MainWindow::MainWindow</text>
</a>
</g>
</g>
<!-- Node270&#45;&gt;Node271 -->
<g id="edge11" class="edge">
<title>Node270&#45;&gt;Node271</title>
<path fill="none" stroke="#191970" d="M510.633,-46.5C523.8717,-46.5 537.5442,-46.5 550.5254,-46.5"/>
<polygon fill="#191970" stroke="#191970" points="510.6125,-43.0001 500.6125,-46.5 510.6124,-50.0001 510.6125,-43.0001"/>
</g>
<!-- Node273 -->
<g id="node11" class="node">
<title>Node273</title>
<g id="a_node11"><a xlink:href="class_config_dialog.html#ad5b80066591f19fdaaa06b7cb5ba7f15" target="_top" xlink:title="ConfigDialog::wizard first&#45;time use wizard. ">
<polygon fill="none" stroke="#000000" points="564.7744,-.5 564.7744,-18.5 672.4834,-18.5 672.4834,-.5 564.7744,-.5"/>
<text text-anchor="middle" x="618.6289" y="-6.5" font-family="Helvetica,sans-Serif" font-size="10.00" fill="#000000">ConfigDialog::wizard</text>
</a>
</g>
</g>
<!-- Node272&#45;&gt;Node273 -->
<g id="edge13" class="edge">
<title>Node272&#45;&gt;Node273</title>
<path fill="none" stroke="#191970" d="M525.0575,-9.5C538.617,-9.5 552.2057,-9.5 564.6592,-9.5"/>
<polygon fill="#191970" stroke="#191970" points="524.7134,-6.0001 514.7134,-9.5 524.7134,-13.0001 524.7134,-6.0001"/>
</g>
</g>
</svg>
