<?xml version="1.0" encoding="UTF-8" standalone="no"?>
<!DOCTYPE svg PUBLIC "-//W3C//DTD SVG 1.1//EN"
 "http://www.w3.org/Graphics/SVG/1.1/DTD/svg11.dtd">
<!-- Generated by graphviz version 2.40.1 (20161225.0304)
 -->
<!-- Title: QtPassSettings::isUseAutoclearPanel Pages: 1 -->
<svg width="692pt" height="104pt"
 viewBox="0.00 0.00 692.00 104.00" xmlns="http://www.w3.org/2000/svg" xmlns:xlink="http://www.w3.org/1999/xlink">
<g id="graph0" class="graph" transform="scale(1 1) rotate(0) translate(4 100)">
<title>QtPassSettings::isUseAutoclearPanel</title>
<!-- Node568 -->
<g id="node1" class="node">
<title>Node568</title>
<polygon fill="#bfbfbf" stroke="#000000" points="0,-33 0,-63 158,-63 158,-33 0,-33"/>
<text text-anchor="start" x="8" y="-51" font-family="Helvetica,sans-Serif" font-size="10.00" fill="#000000">QtPassSettings::isUseAutoclear</text>
<text text-anchor="middle" x="79" y="-40" font-family="Helvetica,sans-Serif" font-size="10.00" fill="#000000">Panel</text>
</g>
<!-- Node569 -->
<g id="node2" class="node">
<title>Node569</title>
<g id="a_node2"><a xlink:href="class_config_dialog.html#a815d6d8ddf1de9386427ddef691a02a1" target="_top" xlink:title="ConfigDialog::ConfigDialog this sets up the configuration screen. ">
<polygon fill="none" stroke="#000000" points="205.5,-76.5 205.5,-95.5 340.5,-95.5 340.5,-76.5 205.5,-76.5"/>
<text text-anchor="middle" x="273" y="-83.5" font-family="Helvetica,sans-Serif" font-size="10.00" fill="#000000">ConfigDialog::ConfigDialog</text>
</a>
</g>
</g>
<!-- Node568&#45;&gt;Node569 -->
<g id="edge1" class="edge">
<title>Node568&#45;&gt;Node569</title>
<path fill="none" stroke="#191970" d="M165.5398,-64.9511C185.7692,-68.9135 206.6126,-72.9963 224.4953,-76.4991"/>
<polygon fill="#191970" stroke="#191970" points="166.1603,-61.5062 155.6739,-63.0186 164.8146,-68.3757 166.1603,-61.5062"/>
</g>
<!-- Node570 -->
<g id="node3" class="node">
<title>Node570</title>
<g id="a_node3"><a xlink:href="class_main_window.html#a0d75695e555bac7331e1ea22bc3159df" target="_top" xlink:title="MainWindow::passShowHandler">
<polygon fill="none" stroke="#000000" points="194,-38.5 194,-57.5 352,-57.5 352,-38.5 194,-38.5"/>
<text text-anchor="middle" x="273" y="-45.5" font-family="Helvetica,sans-Serif" font-size="10.00" fill="#000000">MainWindow::passShowHandler</text>
</a>
</g>
</g>
<!-- Node568&#45;&gt;Node570 -->
<g id="edge2" class="edge">
<title>Node568&#45;&gt;Node570</title>
<path fill="none" stroke="#191970" d="M168.4359,-48C176.8837,-48 185.4084,-48 193.7517,-48"/>
<polygon fill="#191970" stroke="#191970" points="168.1871,-44.5001 158.187,-48 168.187,-51.5001 168.1871,-44.5001"/>
</g>
<!-- Node573 -->
<g id="node6" class="node">
<title>Node573</title>
<g id="a_node6"><a xlink:href="class_main_window.html#a7997fd865548c3baa51f1863bb8fdfa0" target="_top" xlink:title="MainWindow::passOtpHandler">
<polygon fill="none" stroke="#000000" points="198.5,-.5 198.5,-19.5 347.5,-19.5 347.5,-.5 198.5,-.5"/>
<text text-anchor="middle" x="273" y="-7.5" font-family="Helvetica,sans-Serif" font-size="10.00" fill="#000000">MainWindow::passOtpHandler</text>
</a>
</g>
</g>
<!-- Node568&#45;&gt;Node573 -->
<g id="edge5" class="edge">
<title>Node568&#45;&gt;Node573</title>
<path fill="none" stroke="#191970" d="M165.5398,-31.0489C185.7692,-27.0865 206.6126,-23.0037 224.4953,-19.5009"/>
<polygon fill="#191970" stroke="#191970" points="164.8146,-27.6243 155.6739,-32.9814 166.1603,-34.4938 164.8146,-27.6243"/>
</g>
<!-- Node571 -->
<g id="node4" class="node">
<title>Node571</title>
<g id="a_node4"><a xlink:href="class_qt_pass.html#abd1d1e8d6b80b8307a305d80a6c34371" target="_top" xlink:title="QtPass::setMainWindow">
<polygon fill="none" stroke="#000000" points="388,-19.5 388,-38.5 513,-38.5 513,-19.5 388,-19.5"/>
<text text-anchor="middle" x="450.5" y="-26.5" font-family="Helvetica,sans-Serif" font-size="10.00" fill="#000000">QtPass::setMainWindow</text>
</a>
</g>
</g>
<!-- Node570&#45;&gt;Node571 -->
<g id="edge3" class="edge">
<title>Node570&#45;&gt;Node571</title>
<path fill="none" stroke="#191970" d="M362.2448,-38.447C370.8614,-37.5247 379.4717,-36.603 387.7509,-35.7168"/>
<polygon fill="#191970" stroke="#191970" points="361.717,-34.9834 352.1464,-39.528 362.4621,-41.9437 361.717,-34.9834"/>
</g>
<!-- Node572 -->
<g id="node5" class="node">
<title>Node572</title>
<g id="a_node5"><a xlink:href="class_main_window.html#a52e97245b2f88492071e639395c4a15a" target="_top" xlink:title="MainWindow::MainWindow handles all of the main functionality and also the main window. ">
<polygon fill="none" stroke="#000000" points="549,-19.5 549,-38.5 684,-38.5 684,-19.5 549,-19.5"/>
<text text-anchor="middle" x="616.5" y="-26.5" font-family="Helvetica,sans-Serif" font-size="10.00" fill="#000000">MainWindow::MainWindow</text>
</a>
</g>
</g>
<!-- Node571&#45;&gt;Node572 -->
<g id="edge4" class="edge">
<title>Node571&#45;&gt;Node572</title>
<path fill="none" stroke="#191970" d="M523.4873,-29C531.951,-29 540.5556,-29 548.9422,-29"/>
<polygon fill="#191970" stroke="#191970" points="523.2575,-25.5001 513.2575,-29 523.2574,-32.5001 523.2575,-25.5001"/>
</g>
<!-- Node573&#45;&gt;Node571 -->
<g id="edge6" class="edge">
<title>Node573&#45;&gt;Node571</title>
<path fill="none" stroke="#191970" d="M357.6726,-19.0635C367.8849,-20.1567 378.1694,-21.2576 387.9835,-22.3081"/>
<polygon fill="#191970" stroke="#191970" points="357.8202,-15.5594 347.5045,-17.9751 357.0751,-22.5197 357.8202,-15.5594"/>
</g>
</g>
</svg>
