<?xml version="1.0" encoding="UTF-8" standalone="no"?>
<!DOCTYPE svg PUBLIC "-//W3C//DTD SVG 1.1//EN"
 "http://www.w3.org/Graphics/SVG/1.1/DTD/svg11.dtd">
<!-- Generated by graphviz version 2.40.1 (20161225.0304)
 -->
<!-- Title: Pass::generateRandomPassword Pages: 1 -->
<svg width="481pt" height="78pt"
 viewBox="0.00 0.00 481.00 77.50" xmlns="http://www.w3.org/2000/svg" xmlns:xlink="http://www.w3.org/1999/xlink">
<g id="graph0" class="graph" transform="scale(1 1) rotate(0) translate(4 73.5)">
<title>Pass::generateRandomPassword</title>
<!-- Node193 -->
<g id="node1" class="node">
<title>Node193</title>
<polygon fill="#bfbfbf" stroke="#000000" points="0,-31 0,-50 163,-50 163,-31 0,-31"/>
<text text-anchor="middle" x="81.5" y="-38" font-family="Helvetica,sans-Serif" font-size="10.00" fill="#000000">Pass::generateRandomPassword</text>
</g>
<!-- Node194 -->
<g id="node2" class="node">
<title>Node194</title>
<g id="a_node2"><a xlink:href="class_pass.html#a9837e79dfc147d8710563a4a8a04bf3e" target="_top" xlink:title="Pass::Generate use either pwgen or internal password generator. ">
<polygon fill="none" stroke="#000000" points="199,-12 199,-31 294,-31 294,-12 199,-12"/>
<text text-anchor="middle" x="246.5" y="-19" font-family="Helvetica,sans-Serif" font-size="10.00" fill="#000000">Pass::Generate_b</text>
</a>
</g>
</g>
<!-- Node193&#45;&gt;Node194 -->
<g id="edge1" class="edge">
<title>Node193&#45;&gt;Node194</title>
<path fill="none" stroke="#191970" d="M173.0081,-29.9627C181.8101,-28.9491 190.4737,-27.9515 198.5916,-27.0167"/>
<polygon fill="#191970" stroke="#191970" points="172.5672,-26.4903 163.0332,-31.1113 173.368,-33.4443 172.5672,-26.4903"/>
</g>
<!-- Node195 -->
<g id="node3" class="node">
<title>Node195</title>
<g id="a_node3"><a xlink:href="class_pass.html#a8dfa731be7ac962f9f6a5cf8f29097ec" target="_top" xlink:title="Pass::~Pass">
<polygon fill="none" stroke="#000000" points="364.5,-50 364.5,-69 438.5,-69 438.5,-50 364.5,-50"/>
<text text-anchor="middle" x="401.5" y="-57" font-family="Helvetica,sans-Serif" font-size="10.00" fill="#000000">Pass::~Pass</text>
</a>
</g>
</g>
<!-- Node193&#45;&gt;Node195 -->
<g id="edge4" class="edge">
<title>Node193&#45;&gt;Node195</title>
<path fill="none" stroke="#191970" d="M173.1193,-45.9399C236.6866,-49.7142 317.9912,-54.5417 364.4622,-57.3009"/>
<polygon fill="#191970" stroke="#191970" points="173.2674,-42.4426 163.0775,-45.3437 172.8524,-49.4303 173.2674,-42.4426"/>
</g>
<!-- Node194&#45;&gt;Node195 -->
<g id="edge2" class="edge">
<title>Node194&#45;&gt;Node195</title>
<path fill="none" stroke="#191970" d="M295.5446,-33.5238C317.7859,-38.9765 343.6581,-45.3194 364.2689,-50.3724"/>
<polygon fill="#191970" stroke="#191970" points="296.1588,-30.0708 285.613,-31.089 294.492,-36.8695 296.1588,-30.0708"/>
</g>
<!-- Node196 -->
<g id="node4" class="node">
<title>Node196</title>
<g id="a_node4"><a xlink:href="class_password_dialog.html#aa123158c0085b910ecf3bfdc9dae9e97" target="_top" xlink:title="Pass{}{}wordDialog::~PasswordDialog basic destructor. ">
<polygon fill="none" stroke="#000000" points="330,-.5 330,-30.5 473,-30.5 473,-.5 330,-.5"/>
<text text-anchor="start" x="338" y="-18.5" font-family="Helvetica,sans-Serif" font-size="10.00" fill="#000000">PasswordDialog::~Password</text>
<text text-anchor="middle" x="401.5" y="-7.5" font-family="Helvetica,sans-Serif" font-size="10.00" fill="#000000">Dialog</text>
</a>
</g>
</g>
<!-- Node194&#45;&gt;Node196 -->
<g id="edge3" class="edge">
<title>Node194&#45;&gt;Node196</title>
<path fill="none" stroke="#191970" d="M304.2865,-19.2631C312.6555,-18.9391 321.353,-18.6025 329.9522,-18.2696"/>
<polygon fill="#191970" stroke="#191970" points="304.127,-15.7666 294.2699,-19.6508 304.3978,-22.7613 304.127,-15.7666"/>
</g>
</g>
</svg>
