<?xml version="1.0" encoding="UTF-8" standalone="no"?>
<!DOCTYPE svg PUBLIC "-//W3C//DTD SVG 1.1//EN"
 "http://www.w3.org/Graphics/SVG/1.1/DTD/svg11.dtd">
<!-- Generated by graphviz version 2.43.0 (0)
 -->
<!-- Title: QtPass::copyTextToClipboard Pages: 1 -->
<svg width="557pt" height="101pt"
 viewBox="0.00 0.00 557.00 101.00" xmlns="http://www.w3.org/2000/svg" xmlns:xlink="http://www.w3.org/1999/xlink">
<g id="graph0" class="graph" transform="scale(1 1) rotate(0) translate(4 97)">
<title>QtPass::copyTextToClipboard</title>
<!-- Node1 -->
<g id="Node000001" class="node">
<title>Node1</title>
<g id="a_Node000001"><a xlink:title="MainWindow::copyTextToClipboard copies text to your clipboard.">
<polygon fill="#999999" stroke="#666666" points="156,-56 0,-56 0,-37 156,-37 156,-56"/>
<text text-anchor="middle" x="78" y="-44" font-family="Helvetica,sans-Serif" font-size="10.00">QtPass::copyTextToClipboard</text>
</a>
</g>
</g>
<!-- Node2 -->
<g id="Node000002" class="node">
<title>Node2</title>
<g id="a_Node000002"><a xlink:href="qtpass_8cpp.html#ad02159f3c84f6ec8d7535395bdb55d99" target="_top" xlink:title="Build clipboard MIME data with platform&#45;specific security hints.">
<polygon fill="white" stroke="#666666" points="345.5,-93 207.5,-93 207.5,-74 345.5,-74 345.5,-93"/>
<text text-anchor="middle" x="276.5" y="-81" font-family="Helvetica,sans-Serif" font-size="10.00">buildClipboardMimeData</text>
</a>
</g>
</g>
<!-- Node1&#45;&gt;Node2 -->
<g id="edge1_Node000001_Node000002" class="edge">
<title>Node1&#45;&gt;Node2</title>
<g id="a_edge1_Node000001_Node000002"><a xlink:title=" ">
<path fill="none" stroke="#63b8ff" d="M129.6,-56.03C155.63,-60.93 187.55,-66.94 214.88,-72.09"/>
<polygon fill="#63b8ff" stroke="#63b8ff" points="214.25,-75.53 224.73,-73.94 215.55,-68.65 214.25,-75.53"/>
</a>
</g>
</g>
<!-- Node3 -->
<g id="Node000003" class="node">
<title>Node3</title>
<g id="a_Node000003"><a xlink:href="class_qt_pass_settings.html#a0a517b1977765eb6032f330482abb85b" target="_top" xlink:title="Get whether to use autoclear for clipboard.">
<polygon fill="white" stroke="#666666" points="361,-56 192,-56 192,-37 361,-37 361,-56"/>
<text text-anchor="middle" x="276.5" y="-44" font-family="Helvetica,sans-Serif" font-size="10.00">QtPassSettings::isUseAutoclear</text>
</a>
</g>
</g>
<!-- Node1&#45;&gt;Node3 -->
<g id="edge2_Node000001_Node000003" class="edge">
<title>Node1&#45;&gt;Node3</title>
<g id="a_edge2_Node000001_Node000003"><a xlink:title=" ">
<path fill="none" stroke="#63b8ff" d="M156.1,-46.5C164.52,-46.5 173.16,-46.5 181.76,-46.5"/>
<polygon fill="#63b8ff" stroke="#63b8ff" points="181.81,-50 191.81,-46.5 181.81,-43 181.81,-50"/>
</a>
</g>
</g>
<!-- Node5 -->
<g id="Node000005" class="node">
<title>Node5</title>
<g id="a_Node000005"><a xlink:href="class_qt_pass_settings.html#a00123b42f05b026cf2697c02e0797442" target="_top" xlink:title="Get whether to use selection (X11) for clipboard.">
<polygon fill="white" stroke="#666666" points="360,-19 193,-19 193,0 360,0 360,-19"/>
<text text-anchor="middle" x="276.5" y="-7" font-family="Helvetica,sans-Serif" font-size="10.00">QtPassSettings::isUseSelection</text>
</a>
</g>
</g>
<!-- Node1&#45;&gt;Node5 -->
<g id="edge4_Node000001_Node000005" class="edge">
<title>Node1&#45;&gt;Node5</title>
<g id="a_edge4_Node000001_Node000005"><a xlink:title=" ">
<path fill="none" stroke="#63b8ff" d="M129.6,-36.97C155.63,-32.07 187.55,-26.06 214.88,-20.91"/>
<polygon fill="#63b8ff" stroke="#63b8ff" points="215.55,-24.35 224.73,-19.06 214.25,-17.47 215.55,-24.35"/>
</a>
</g>
</g>
<!-- Node4 -->
<g id="Node000004" class="node">
<title>Node4</title>
<g id="a_Node000004"><a xlink:href="class_qt_pass_settings.html#a2483e7de01f9e312ee0fbf8a1637f29d" target="_top" xlink:title="Get the singleton instance.">
<polygon fill="white" stroke="#666666" points="549,-37 397,-37 397,-18 549,-18 549,-37"/>
<text text-anchor="middle" x="473" y="-25" font-family="Helvetica,sans-Serif" font-size="10.00">QtPassSettings::getInstance</text>
</a>
</g>
</g>
<!-- Node3&#45;&gt;Node4 -->
<g id="edge3_Node000003_Node000004" class="edge">
<title>Node3&#45;&gt;Node4</title>
<g id="a_edge3_Node000003_Node000004"><a xlink:title=" ">
<path fill="none" stroke="#63b8ff" d="M361.11,-38.33C369.53,-37.51 378.09,-36.67 386.53,-35.85"/>
<polygon fill="#63b8ff" stroke="#63b8ff" points="387.13,-39.31 396.74,-34.85 386.45,-32.34 387.13,-39.31"/>
</a>
</g>
</g>
<!-- Node5&#45;&gt;Node4 -->
<g id="edge5_Node000005_Node000004" class="edge">
<title>Node5&#45;&gt;Node4</title>
<g id="a_edge5_Node000005_Node000004"><a xlink:title=" ">
<path fill="none" stroke="#63b8ff" d="M360.27,-17.16C368.96,-17.96 377.82,-18.78 386.54,-19.59"/>
<polygon fill="#63b8ff" stroke="#63b8ff" points="386.42,-23.1 396.71,-20.53 387.07,-16.13 386.42,-23.1"/>
</a>
</g>
</g>
</g>
</svg>
