<?xml version="1.0" encoding="UTF-8" standalone="no"?>
<!DOCTYPE svg PUBLIC "-//W3C//DTD SVG 1.1//EN"
 "http://www.w3.org/Graphics/SVG/1.1/DTD/svg11.dtd">
<!-- Generated by graphviz version 2.43.0 (0)
 -->
<!-- Title: Executor::executeBlocking Pages: 1 -->
<!--zoomable 560 -->

<svg id="main" version="1.1" xmlns="http://www.w3.org/2000/svg" xmlns:xlink="http://www.w3.org/1999/xlink" xml:space="preserve" onload="init(evt)">
<style type="text/css"><![CDATA[
.node, .edge {opacity: 0.7;}
.node.selected, .edge.selected {opacity: 1;}
.edge:hover path { stroke: red; }
.edge:hover polygon { stroke: red; fill: red; }
]]></style>

<defs>
  <circle id="rim" cx="0" cy="0" r="7"/>
  <circle id="rim2" cx="0" cy="0" r="3.5"/>
  <g id="zoomPlus">
    <use xlink:href="#rim" fill="#404040"><set attributeName="fill" to="#808080" begin="zoomplus.mouseover" end="zoomplus.mouseout"/></use>
    <path d="M-4,0h8M0,-4v8" fill="none" stroke="white" stroke-width="1.5" pointer-events="none"/>
  </g>
  <g id="zoomMin">
    <use xlink:href="#rim" fill="#404040"><set attributeName="fill" to="#808080" begin="zoomminus.mouseover" end="zoomminus.mouseout"/></use>
    <path d="M-4,0h8" fill="none" stroke="white" stroke-width="1.5" pointer-events="none"/>
  </g>
  <g id="arrowUp" transform="translate(30 24)">
    <use xlink:href="#rim"/>
    <path pointer-events="none" fill="none" stroke="white" stroke-width="1.5" d="M0,-3.0v7 M-2.5,-0.5L0,-3.0L2.5,-0.5"/>
  </g>
  <g id="arrowRight" transform="rotate(90) translate(36 -43)">
    <use xlink:href="#rim"/>
    <path pointer-events="none" fill="none" stroke="white" stroke-width="1.5" d="M0,-3.0v7 M-2.5,-0.5L0,-3.0L2.5,-0.5"/>
  </g>
  <g id="arrowDown" transform="rotate(180) translate(-30 -48)">
    <use xlink:href="#rim"/>
    <path pointer-events="none" fill="none" stroke="white" stroke-width="1.5" d="M0,-3.0v7 M-2.5,-0.5L0,-3.0L2.5,-0.5"/>
  </g>
  <g id="arrowLeft" transform="rotate(270) translate(-36 17)">
    <use xlink:href="#rim"/>
    <path pointer-events="none" fill="none" stroke="white" stroke-width="1.5" d="M0,-3.0v7 M-2.5,-0.5L0,-3.0L2.5,-0.5"/>
  </g>
  <g id="resetDef">
    <use xlink:href="#rim2" fill="#404040"><set attributeName="fill" to="#808080" begin="reset.mouseover" end="reset.mouseout"/></use>
  </g>
</defs>
<script type="application/ecmascript">
var viewWidth = 955;
var viewHeight = 560;
var sectionId = 'dynsection-8';
</script>
<script type="application/ecmascript" xlink:href="svg.min.js"/>
<svg id="graph" class="graph">
<g id="viewport">
<title>Executor::executeBlocking</title>
<!-- Node1 -->
<g id="Node000001" class="node">
<title>Node1</title>
<g id="a_Node000001"><a xlink:title="Executor::executeBlocking blocking version of the executor, takes input and presents it as stdin.">
<polygon fill="#999999" stroke="#666666" points="947,-252.69 802,-252.69 802,-233.69 947,-233.69 947,-252.69"/>
<text text-anchor="middle" x="874.5" y="-240.69" font-family="Helvetica,sans-Serif" font-size="10.00">Executor::executeBlocking</text>
</a>
</g>
</g>
<!-- Node2 -->
<g id="Node000002" class="node">
<title>Node2</title>
<g id="a_Node000002"><a xlink:href="class_imitate_pass.html#a607cc25575bf718f57333bb7854870b4" target="_top" xlink:title="Check if signing keys are valid.">
<polygon fill="white" stroke="#666666" points="351,-47.69 184,-47.69 184,-28.69 351,-28.69 351,-47.69"/>
<text text-anchor="middle" x="267.5" y="-35.69" font-family="Helvetica,sans-Serif" font-size="10.00">ImitatePass::checkSigningKeys</text>
</a>
</g>
</g>
<!-- Node1&#45;&gt;Node2 -->
<g id="edge1_Node000001_Node000002" class="edge">
<title>Node1&#45;&gt;Node2</title>
<g id="a_edge1_Node000001_Node000002"><a xlink:title=" ">
<path fill="none" stroke="#63b8ff" d="M868.99,-223.75C858.64,-184.05 829.02,-94.19 766,-56.19 615.57,34.52 390.41,-7.46 304,-28.61"/>
<polygon fill="#63b8ff" stroke="#63b8ff" points="865.62,-224.67 871.42,-233.53 872.41,-222.98 865.62,-224.67"/>
</a>
</g>
</g>
<!-- Node4 -->
<g id="Node000004" class="node">
<title>Node4</title>
<g id="a_Node000004"><a xlink:href="class_util.html#afe6db9149dff37feded5abf38870cda8" target="_top" xlink:title="Verify that the required configuration is complete.">
<polygon fill="white" stroke="#666666" points="730,-423.69 629,-423.69 629,-404.69 730,-404.69 730,-423.69"/>
<text text-anchor="middle" x="679.5" y="-411.69" font-family="Helvetica,sans-Serif" font-size="10.00">Util::configIsValid</text>
</a>
</g>
</g>
<!-- Node1&#45;&gt;Node4 -->
<g id="edge3_Node000001_Node000004" class="edge">
<title>Node1&#45;&gt;Node4</title>
<g id="a_edge3_Node000001_Node000004"><a xlink:title=" ">
<path fill="none" stroke="#63b8ff" d="M864.84,-262.19C849.5,-293.67 814.55,-356.51 766,-390.19 755.36,-397.57 742.5,-402.69 730.01,-406.24"/>
<polygon fill="#63b8ff" stroke="#63b8ff" points="868.17,-263.33 869.28,-252.8 861.84,-260.34 868.17,-263.33"/>
</a>
</g>
</g>
<!-- Node10 -->
<g id="Node000010" class="node">
<title>Node10</title>
<g id="a_Node000010"><a xlink:href="class_util.html#adbd6573f3b8c9bde13ca0a9aa683a3be" target="_top" xlink:title="Locate an executable by searching the process PATH and (on Windows) falling back to WSL.">
<polygon fill="white" stroke="#666666" points="739,-505.69 620,-505.69 620,-486.69 739,-486.69 739,-505.69"/>
<text text-anchor="middle" x="679.5" y="-493.69" font-family="Helvetica,sans-Serif" font-size="10.00">Util::findBinaryInPath</text>
</a>
</g>
</g>
<!-- Node1&#45;&gt;Node10 -->
<g id="edge10_Node000001_Node000010" class="edge">
<title>Node1&#45;&gt;Node10</title>
<g id="a_edge10_Node000001_Node000010"><a xlink:title=" ">
<path fill="none" stroke="#63b8ff" d="M865.98,-262.13C850.97,-298.29 814.51,-378.47 766,-433.19 745.82,-455.95 716.13,-475.54 697.58,-486.59"/>
<polygon fill="#63b8ff" stroke="#63b8ff" points="869.26,-263.35 869.79,-252.77 862.78,-260.71 869.26,-263.35"/>
</a>
</g>
</g>
<!-- Node12 -->
<g id="Node000012" class="node">
<title>Node12</title>
<g id="a_Node000012"><a xlink:href="class_pass.html#a35b3cba623a22f41173670ec34ebb67c" target="_top" xlink:title="Generate random password.">
<polygon fill="white" stroke="#666666" points="746.5,-347.69 612.5,-347.69 612.5,-328.69 746.5,-328.69 746.5,-347.69"/>
<text text-anchor="middle" x="679.5" y="-335.69" font-family="Helvetica,sans-Serif" font-size="10.00">Pass::generatePassword</text>
</a>
</g>
</g>
<!-- Node1&#45;&gt;Node12 -->
<g id="edge13_Node000001_Node000012" class="edge">
<title>Node1&#45;&gt;Node12</title>
<g id="a_edge13_Node000001_Node000012"><a xlink:title=" ">
<path fill="none" stroke="#63b8ff" d="M853.61,-259.08C832.83,-274.99 798.75,-299.22 766,-314.19 752.96,-320.15 738.11,-324.94 724.49,-328.64"/>
<polygon fill="#63b8ff" stroke="#63b8ff" points="855.91,-261.72 861.66,-252.82 851.61,-256.19 855.91,-261.72"/>
</a>
</g>
</g>
<!-- Node13 -->
<g id="Node000013" class="node">
<title>Node13</title>
<g id="a_Node000013"><a xlink:href="class_imitate_pass.html#aef532636a761beee3ecdd5dcedbfc834" target="_top" xlink:title="Read recipients from file.">
<polygon fill="white" stroke="#666666" points="552.5,-346.69 391.5,-346.69 391.5,-327.69 552.5,-327.69 552.5,-346.69"/>
<text text-anchor="middle" x="472" y="-334.69" font-family="Helvetica,sans-Serif" font-size="10.00">ImitatePass::getKeysFromFile</text>
</a>
</g>
</g>
<!-- Node1&#45;&gt;Node13 -->
<g id="edge14_Node000001_Node000013" class="edge">
<title>Node1&#45;&gt;Node13</title>
<g id="a_edge14_Node000001_Node000013"><a xlink:title=" ">
<path fill="none" stroke="#63b8ff" d="M862.81,-261.87C846.15,-288.88 811.16,-337.7 766,-357.19 674.71,-396.58 552.49,-364.35 499.43,-346.76"/>
<polygon fill="#63b8ff" stroke="#63b8ff" points="865.98,-263.39 868.1,-253.01 859.97,-259.8 865.98,-263.39"/>
</a>
</g>
</g>
<!-- Node16 -->
<g id="Node000016" class="node">
<title>Node16</title>
<g id="a_Node000016"><a xlink:href="class_imitate_pass.html#a5713b5c223fd522d0790debaa33cfbc2" target="_top" xlink:title="Pull with rebase.">
<polygon fill="white" stroke="#666666" points="533.5,-309.69 410.5,-309.69 410.5,-290.69 533.5,-290.69 533.5,-309.69"/>
<text text-anchor="middle" x="472" y="-297.69" font-family="Helvetica,sans-Serif" font-size="10.00">ImitatePass::GitPull_b</text>
</a>
</g>
</g>
<!-- Node1&#45;&gt;Node16 -->
<g id="edge18_Node000001_Node000016" class="edge">
<title>Node1&#45;&gt;Node16</title>
<g id="a_edge18_Node000001_Node000016"><a xlink:title=" ">
<path fill="none" stroke="#63b8ff" d="M842.75,-256.6C821.6,-265.2 792.62,-275.73 766,-281.19 686.85,-297.42 593.39,-300.83 533.69,-301.08"/>
<polygon fill="#63b8ff" stroke="#63b8ff" points="844.28,-259.76 852.17,-252.7 841.6,-253.3 844.28,-259.76"/>
</a>
</g>
</g>
<!-- Node17 -->
<g id="Node000017" class="node">
<title>Node17</title>
<g id="a_Node000017"><a xlink:href="class_real_pass.html#a6a959408a305cc8dd7cc6c7bd9c17210" target="_top" xlink:title="Pull with rebase.">
<polygon fill="white" stroke="#666666" points="734.5,-234.69 624.5,-234.69 624.5,-215.69 734.5,-215.69 734.5,-234.69"/>
<text text-anchor="middle" x="679.5" y="-222.69" font-family="Helvetica,sans-Serif" font-size="10.00">RealPass::GitPull_b</text>
</a>
</g>
</g>
<!-- Node1&#45;&gt;Node17 -->
<g id="edge20_Node000001_Node000017" class="edge">
<title>Node1&#45;&gt;Node17</title>
<g id="a_edge20_Node000001_Node000017"><a xlink:title=" ">
<path fill="none" stroke="#63b8ff" d="M791.91,-235.58C772.62,-233.78 752.51,-231.9 734.78,-230.25"/>
<polygon fill="#63b8ff" stroke="#63b8ff" points="791.63,-239.07 801.91,-236.51 792.28,-232.1 791.63,-239.07"/>
</a>
</g>
</g>
<!-- Node18 -->
<g id="Node000018" class="node">
<title>Node18</title>
<g id="a_Node000018"><a xlink:href="class_pass.html#a4c2bca8a9a59a032adc68846055b056b" target="_top" xlink:title="Check if GPG supports Ed25519 encryption.">
<polygon fill="white" stroke="#666666" points="753,-84.69 606,-84.69 606,-65.69 753,-65.69 753,-84.69"/>
<text text-anchor="middle" x="679.5" y="-72.69" font-family="Helvetica,sans-Serif" font-size="10.00">Pass::gpgSupportsEd25519</text>
</a>
</g>
</g>
<!-- Node1&#45;&gt;Node18 -->
<g id="edge21_Node000001_Node000018" class="edge">
<title>Node1&#45;&gt;Node18</title>
<g id="a_edge21_Node000001_Node000018"><a xlink:title=" ">
<path fill="none" stroke="#63b8ff" d="M864.51,-224.13C848.9,-193.15 813.83,-132.02 766,-99.19 756.85,-92.9 746.08,-88.26 735.33,-84.82"/>
<polygon fill="#63b8ff" stroke="#63b8ff" points="861.5,-225.95 869.04,-233.4 867.79,-222.88 861.5,-225.95"/>
</a>
</g>
</g>
<!-- Node21 -->
<g id="Node000021" class="node">
<title>Node21</title>
<g id="a_Node000021"><a xlink:href="class_pass.html#a6ed6c10b07137f62e127b290ebd428a2" target="_top" xlink:title="List GPG keys matching patterns.">
<polygon fill="white" stroke="#666666" points="721,-160.69 638,-160.69 638,-141.69 721,-141.69 721,-160.69"/>
<text text-anchor="middle" x="679.5" y="-148.69" font-family="Helvetica,sans-Serif" font-size="10.00">Pass::listKeys</text>
</a>
</g>
</g>
<!-- Node1&#45;&gt;Node21 -->
<g id="edge24_Node000001_Node000021" class="edge">
<title>Node1&#45;&gt;Node21</title>
<g id="a_edge24_Node000001_Node000021"><a xlink:title=" ">
<path fill="none" stroke="#63b8ff" d="M854.52,-226.98C834,-210.29 799.71,-184.74 766,-170.19 751.9,-164.1 735.62,-159.86 721.07,-156.95"/>
<polygon fill="#63b8ff" stroke="#63b8ff" points="852.49,-229.84 862.42,-233.53 856.96,-224.45 852.49,-229.84"/>
</a>
</g>
</g>
<!-- Node22 -->
<g id="Node000022" class="node">
<title>Node22</title>
<g id="a_Node000022"><a xlink:href="class_imitate_pass.html#a707169592f98af60288e8df8a54f1230" target="_top" xlink:title="Re&#45;encrypt single file with new recipients.">
<polygon fill="white" stroke="#666666" points="766,-271.69 593,-271.69 593,-252.69 766,-252.69 766,-271.69"/>
<text text-anchor="middle" x="679.5" y="-259.69" font-family="Helvetica,sans-Serif" font-size="10.00">ImitatePass::reencryptSingleFile</text>
</a>
</g>
</g>
<!-- Node1&#45;&gt;Node22 -->
<g id="edge25_Node000001_Node000022" class="edge">
<title>Node1&#45;&gt;Node22</title>
<g id="a_edge25_Node000001_Node000022"><a xlink:title=" ">
<path fill="none" stroke="#63b8ff" d="M791.93,-251.22C783.36,-252.06 774.63,-252.92 766.01,-253.77"/>
<polygon fill="#63b8ff" stroke="#63b8ff" points="792.3,-254.7 801.91,-250.23 791.61,-247.73 792.3,-254.7"/>
</a>
</g>
</g>
<!-- Node23 -->
<g id="Node000023" class="node">
<title>Node23</title>
<g id="a_Node000023"><a xlink:href="class_imitate_pass.html#aa6163e2dd259c8f69d0cead7551b573a" target="_top" xlink:title="Sign .gpg&#45;id file with signing keys.">
<polygon fill="white" stroke="#666666" points="340.5,-122.69 194.5,-122.69 194.5,-103.69 340.5,-103.69 340.5,-122.69"/>
<text text-anchor="middle" x="267.5" y="-110.69" font-family="Helvetica,sans-Serif" font-size="10.00">ImitatePass::signGpgIdFile</text>
</a>
</g>
</g>
<!-- Node1&#45;&gt;Node23 -->
<g id="edge27_Node000001_Node000023" class="edge">
<title>Node1&#45;&gt;Node23</title>
<g id="a_edge27_Node000001_Node000023"><a xlink:title=" ">
<path fill="none" stroke="#63b8ff" d="M862.29,-224.98C845.18,-199.12 809.89,-152.71 766,-133.19 692.05,-100.29 460.11,-104.82 340.87,-109.62"/>
<polygon fill="#63b8ff" stroke="#63b8ff" points="859.4,-226.97 867.75,-233.49 865.29,-223.19 859.4,-226.97"/>
</a>
</g>
</g>
<!-- Node24 -->
<g id="Node000024" class="node">
<title>Node24</title>
<g id="a_Node000024"><a xlink:href="class_imitate_pass.html#a6ecaa7d53d661362511354e96572c240" target="_top" xlink:title="Verify .gpg&#45;id file exists and is valid.">
<polygon fill="white" stroke="#666666" points="756,-197.69 603,-197.69 603,-178.69 756,-178.69 756,-197.69"/>
<text text-anchor="middle" x="679.5" y="-185.69" font-family="Helvetica,sans-Serif" font-size="10.00">ImitatePass::verifyGpgIdFile</text>
</a>
</g>
</g>
<!-- Node1&#45;&gt;Node24 -->
<g id="edge29_Node000001_Node000024" class="edge">
<title>Node1&#45;&gt;Node24</title>
<g id="a_edge29_Node000001_Node000024"><a xlink:title=" ">
<path fill="none" stroke="#63b8ff" d="M837.56,-230.1C816.81,-222.81 790.12,-213.89 766,-207.19 753.69,-203.77 740.26,-200.55 727.76,-197.76"/>
<polygon fill="#63b8ff" stroke="#63b8ff" points="836.64,-233.49 847.23,-233.53 838.98,-226.89 836.64,-233.49"/>
</a>
</g>
</g>
<!-- Node3 -->
<g id="Node000003" class="node">
<title>Node3</title>
<g id="a_Node000003"><a xlink:href="class_imitate_pass.html#a6fe6b48df3fb04071c8c2c1d5c1d1206" target="_top" xlink:title="Initialize store.">
<polygon fill="white" stroke="#666666" points="121.5,-122.69 26.5,-122.69 26.5,-103.69 121.5,-103.69 121.5,-122.69"/>
<text text-anchor="middle" x="74" y="-110.69" font-family="Helvetica,sans-Serif" font-size="10.00">ImitatePass::Init</text>
</a>
</g>
</g>
<!-- Node2&#45;&gt;Node3 -->
<g id="edge2_Node000002_Node000003" class="edge">
<title>Node2&#45;&gt;Node3</title>
<g id="a_edge2_Node000002_Node000003"><a xlink:title=" ">
<path fill="none" stroke="#63b8ff" d="M202.64,-50.33C196.28,-52.07 189.97,-54.02 184,-56.19 148.87,-68.94 110.84,-90.89 90.28,-103.51"/>
<polygon fill="#63b8ff" stroke="#63b8ff" points="203.84,-53.63 212.65,-47.76 202.1,-46.85 203.84,-53.63"/>
</a>
</g>
</g>
<!-- Node5 -->
<g id="Node000005" class="node">
<title>Node5</title>
<g id="a_Node000005"><a xlink:href="class_main_window.html#aeb8091ab5531144b76c1fbb0d63deb56" target="_top" xlink:title=" ">
<polygon fill="white" stroke="#666666" points="529,-459.69 415,-459.69 415,-440.69 529,-440.69 529,-459.69"/>
<text text-anchor="middle" x="472" y="-447.69" font-family="Helvetica,sans-Serif" font-size="10.00">MainWindow::config</text>
</a>
</g>
</g>
<!-- Node4&#45;&gt;Node5 -->
<g id="edge4_Node000004_Node000005" class="edge">
<title>Node4&#45;&gt;Node5</title>
<g id="a_edge4_Node000004_Node000005"><a xlink:title=" ">
<path fill="none" stroke="#63b8ff" d="M618.79,-424.65C589.9,-429.71 555.48,-435.74 527.34,-440.67"/>
<polygon fill="#63b8ff" stroke="#63b8ff" points="619.51,-428.07 628.75,-422.9 618.3,-421.18 619.51,-428.07"/>
</a>
</g>
</g>
<!-- Node6 -->
<g id="Node000006" class="node">
<title>Node6</title>
<g id="a_Node000006"><a xlink:href="class_config_dialog.html#a815d6d8ddf1de9386427ddef691a02a1" target="_top" xlink:title="ConfigDialog::ConfigDialog this sets up the configuration screen.">
<polygon fill="white" stroke="#666666" points="545.5,-422.69 398.5,-422.69 398.5,-403.69 545.5,-403.69 545.5,-422.69"/>
<text text-anchor="middle" x="472" y="-410.69" font-family="Helvetica,sans-Serif" font-size="10.00">ConfigDialog::ConfigDialog</text>
</a>
</g>
</g>
<!-- Node4&#45;&gt;Node6 -->
<g id="edge6_Node000004_Node000006" class="edge">
<title>Node4&#45;&gt;Node6</title>
<g id="a_edge6_Node000004_Node000006"><a xlink:title=" ">
<path fill="none" stroke="#63b8ff" d="M618.53,-413.89C595.71,-413.78 569.47,-413.66 545.61,-413.54"/>
<polygon fill="#63b8ff" stroke="#63b8ff" points="618.74,-417.4 628.75,-413.94 618.77,-410.4 618.74,-417.4"/>
</a>
</g>
</g>
<!-- Node7 -->
<g id="Node000007" class="node">
<title>Node7</title>
<g id="a_Node000007"><a xlink:href="class_qt_pass.html#ad0a4d7627e6303e412d4a832a8bad77c" target="_top" xlink:title="QtPass::init make sure we are ready to go as soon as possible.">
<polygon fill="white" stroke="#666666" points="303,-467.69 232,-467.69 232,-448.69 303,-448.69 303,-467.69"/>
<text text-anchor="middle" x="267.5" y="-455.69" font-family="Helvetica,sans-Serif" font-size="10.00">QtPass::init</text>
</a>
</g>
</g>
<!-- Node4&#45;&gt;Node7 -->
<g id="edge7_Node000004_Node000007" class="edge">
<title>Node4&#45;&gt;Node7</title>
<g id="a_edge7_Node000004_Node000007"><a xlink:title=" ">
<path fill="none" stroke="#63b8ff" d="M631.49,-402.4C573.2,-389.77 471.26,-374.18 387,-395.19 345.4,-405.56 302.38,-433.57 281.48,-448.5"/>
<polygon fill="#63b8ff" stroke="#63b8ff" points="630.98,-405.88 641.5,-404.64 632.5,-399.04 630.98,-405.88"/>
</a>
</g>
</g>
<!-- Node9 -->
<g id="Node000009" class="node">
<title>Node9</title>
<g id="a_Node000009"><a xlink:href="class_config_dialog.html#ad5b80066591f19fdaaa06b7cb5ba7f15" target="_top" xlink:title="ConfigDialog::wizard first&#45;time use wizard.">
<polygon fill="white" stroke="#666666" points="530.5,-514.69 413.5,-514.69 413.5,-495.69 530.5,-495.69 530.5,-514.69"/>
<text text-anchor="middle" x="472" y="-502.69" font-family="Helvetica,sans-Serif" font-size="10.00">ConfigDialog::wizard</text>
</a>
</g>
</g>
<!-- Node4&#45;&gt;Node9 -->
<g id="edge9_Node000004_Node000009" class="edge">
<title>Node4&#45;&gt;Node9</title>
<g id="a_edge9_Node000004_Node000009"><a xlink:title=" ">
<path fill="none" stroke="#63b8ff" d="M657.64,-429.67C634.29,-446.28 594.75,-472.28 557,-487.19 548.54,-490.53 539.34,-493.3 530.24,-495.58"/>
<polygon fill="#63b8ff" stroke="#63b8ff" points="659.71,-432.5 665.76,-423.81 655.61,-426.82 659.71,-432.5"/>
</a>
</g>
</g>
<!-- Node5&#45;&gt;Node5 -->
<g id="edge5_Node000005_Node000005" class="edge">
<title>Node5&#45;&gt;Node5</title>
<g id="a_edge5_Node000005_Node000005"><a xlink:title=" ">
<path fill="none" stroke="#63b8ff" d="M510.25,-467.38C510.24,-473.11 497.49,-477.69 472,-477.69 435.74,-477.69 425.26,-468.42 440.56,-459.77"/>
<polygon fill="#63b8ff" stroke="#63b8ff" points="512.72,-464.89 503.44,-459.77 507.5,-469.56 512.72,-464.89"/>
</a>
</g>
</g>
<!-- Node8 -->
<g id="Node000008" class="node">
<title>Node8</title>
<g id="a_Node000008"><a xlink:href="class_main_window.html#a52e97245b2f88492071e639395c4a15a" target="_top" xlink:title="MainWindow::MainWindow handles all of the main functionality and also the main window.">
<polygon fill="white" stroke="#666666" points="148,-467.69 0,-467.69 0,-448.69 148,-448.69 148,-467.69"/>
<text text-anchor="middle" x="74" y="-455.69" font-family="Helvetica,sans-Serif" font-size="10.00">MainWindow::MainWindow</text>
</a>
</g>
</g>
<!-- Node7&#45;&gt;Node8 -->
<g id="edge8_Node000007_Node000008" class="edge">
<title>Node7&#45;&gt;Node8</title>
<g id="a_edge8_Node000007_Node000008"><a xlink:title=" ">
<path fill="none" stroke="#63b8ff" d="M221.54,-458.19C199.72,-458.19 172.96,-458.19 148.29,-458.19"/>
<polygon fill="#63b8ff" stroke="#63b8ff" points="221.82,-461.69 231.82,-458.19 221.82,-454.69 221.82,-461.69"/>
</a>
</g>
</g>
<!-- Node11 -->
<g id="Node000011" class="node">
<title>Node11</title>
<g id="a_Node000011"><a xlink:href="class_qt_pass_settings.html#a64ffdab0605be803054150d438254c56" target="_top" xlink:title="Initialize executable paths by auto&#45;detecting them.">
<polygon fill="white" stroke="#666666" points="557,-551.69 387,-551.69 387,-532.69 557,-532.69 557,-551.69"/>
<text text-anchor="middle" x="472" y="-539.69" font-family="Helvetica,sans-Serif" font-size="10.00">QtPassSettings::initExecutables</text>
</a>
</g>
</g>
<!-- Node10&#45;&gt;Node11 -->
<g id="edge11_Node000010_Node000011" class="edge">
<title>Node10&#45;&gt;Node11</title>
<g id="a_edge11_Node000010_Node000011"><a xlink:title=" ">
<path fill="none" stroke="#63b8ff" d="M627.74,-508.07C605.98,-513.11 580.26,-519.01 557,-524.19 544.48,-526.97 530.89,-529.92 518.37,-532.6"/>
<polygon fill="#63b8ff" stroke="#63b8ff" points="628.81,-511.41 637.76,-505.74 627.23,-504.59 628.81,-511.41"/>
</a>
</g>
</g>
<!-- Node11&#45;&gt;Node7 -->
<g id="edge12_Node000011_Node000007" class="edge">
<title>Node11&#45;&gt;Node7</title>
<g id="a_edge12_Node000011_Node000007"><a xlink:title=" ">
<path fill="none" stroke="#63b8ff" d="M405.33,-530.1C399.06,-528.36 392.86,-526.39 387,-524.19 346.88,-509.1 303.91,-482.11 282.42,-467.76"/>
<polygon fill="#63b8ff" stroke="#63b8ff" points="404.64,-533.54 415.2,-532.67 406.4,-526.76 404.64,-533.54"/>
</a>
</g>
</g>
<!-- Node14 -->
<g id="Node000014" class="node">
<title>Node14</title>
<g id="a_Node000014"><a xlink:href="class_imitate_pass.html#af331446d163c31f1fca714646c0f6244" target="_top" xlink:title="Re&#45;encrypt entire directory.">
<polygon fill="white" stroke="#666666" points="341,-271.69 194,-271.69 194,-252.69 341,-252.69 341,-271.69"/>
<text text-anchor="middle" x="267.5" y="-259.69" font-family="Helvetica,sans-Serif" font-size="10.00">ImitatePass::reencryptPath</text>
</a>
</g>
</g>
<!-- Node13&#45;&gt;Node14 -->
<g id="edge15_Node000013_Node000014" class="edge">
<title>Node13&#45;&gt;Node14</title>
<g id="a_edge15_Node000013_Node000014"><a xlink:title=" ">
<path fill="none" stroke="#63b8ff" d="M407.12,-325.17C400.27,-323.38 393.45,-321.39 387,-319.19 349.2,-306.25 307.71,-284.36 285.23,-271.81"/>
<polygon fill="#63b8ff" stroke="#63b8ff" points="406.61,-328.65 417.16,-327.63 408.28,-321.85 406.61,-328.65"/>
</a>
</g>
</g>
<!-- Node14&#45;&gt;Node3 -->
<g id="edge17_Node000014_Node000003" class="edge">
<title>Node14&#45;&gt;Node3</title>
<g id="a_edge17_Node000014_Node000003"><a xlink:title=" ">
<path fill="none" stroke="#63b8ff" d="M246.06,-246.28C206.31,-215.35 119.66,-147.94 87.42,-122.85"/>
<polygon fill="#63b8ff" stroke="#63b8ff" points="244.19,-249.26 254.23,-252.64 248.49,-243.74 244.19,-249.26"/>
</a>
</g>
</g>
<!-- Node15 -->
<g id="Node000015" class="node">
<title>Node15</title>
<g id="a_Node000015"><a xlink:href="class_imitate_pass.html#a97538d83d4f6a583f840db0865e8609a" target="_top" xlink:title="Copy password file.">
<polygon fill="white" stroke="#666666" points="126,-271.69 22,-271.69 22,-252.69 126,-252.69 126,-271.69"/>
<text text-anchor="middle" x="74" y="-259.69" font-family="Helvetica,sans-Serif" font-size="10.00">ImitatePass::Copy</text>
</a>
</g>
</g>
<!-- Node14&#45;&gt;Node15 -->
<g id="edge16_Node000014_Node000015" class="edge">
<title>Node14&#45;&gt;Node15</title>
<g id="a_edge16_Node000014_Node000015"><a xlink:title=" ">
<path fill="none" stroke="#63b8ff" d="M183.69,-262.19C164.14,-262.19 143.86,-262.19 126.19,-262.19"/>
<polygon fill="#63b8ff" stroke="#63b8ff" points="183.83,-265.69 193.83,-262.19 183.83,-258.69 183.83,-265.69"/>
</a>
</g>
</g>
<!-- Node16&#45;&gt;Node14 -->
<g id="edge19_Node000016_Node000014" class="edge">
<title>Node16&#45;&gt;Node14</title>
<g id="a_edge19_Node000016_Node000014"><a xlink:title=" ">
<path fill="none" stroke="#63b8ff" d="M410.15,-288.77C381.18,-283.33 346.92,-276.9 319.36,-271.73"/>
<polygon fill="#63b8ff" stroke="#63b8ff" points="409.69,-292.24 420.16,-290.65 410.98,-285.36 409.69,-292.24"/>
</a>
</g>
</g>
<!-- Node19 -->
<g id="Node000019" class="node">
<title>Node19</title>
<g id="a_Node000019"><a xlink:href="class_pass.html#ae3284a937d0ca8ae2ea2d81ec556c37b" target="_top" xlink:title="Get default key template for new GPG keys.">
<polygon fill="white" stroke="#666666" points="551.5,-84.69 392.5,-84.69 392.5,-65.69 551.5,-65.69 551.5,-84.69"/>
<text text-anchor="middle" x="472" y="-72.69" font-family="Helvetica,sans-Serif" font-size="10.00">Pass::getDefaultKeyTemplate</text>
</a>
</g>
</g>
<!-- Node18&#45;&gt;Node19 -->
<g id="edge22_Node000018_Node000019" class="edge">
<title>Node18&#45;&gt;Node19</title>
<g id="a_edge22_Node000018_Node000019"><a xlink:title=" ">
<path fill="none" stroke="#63b8ff" d="M595.35,-75.19C580.89,-75.19 565.9,-75.19 551.57,-75.19"/>
<polygon fill="#63b8ff" stroke="#63b8ff" points="595.76,-78.69 605.76,-75.19 595.76,-71.69 595.76,-78.69"/>
</a>
</g>
</g>
<!-- Node20 -->
<g id="Node000020" class="node">
<title>Node20</title>
<g id="a_Node000020"><a xlink:href="class_keygen_dialog.html#a565b5698b7bb40720476d61b8b1b8548" target="_top" xlink:title="KeygenDialog::KeygenDialog basic constructor.">
<polygon fill="white" stroke="#666666" points="346.5,-84.69 188.5,-84.69 188.5,-65.69 346.5,-65.69 346.5,-84.69"/>
<text text-anchor="middle" x="267.5" y="-72.69" font-family="Helvetica,sans-Serif" font-size="10.00">KeygenDialog::KeygenDialog</text>
</a>
</g>
</g>
<!-- Node19&#45;&gt;Node20 -->
<g id="edge23_Node000019_Node000020" class="edge">
<title>Node19&#45;&gt;Node20</title>
<g id="a_edge23_Node000019_Node000020"><a xlink:title=" ">
<path fill="none" stroke="#63b8ff" d="M382.13,-75.19C370.33,-75.19 358.3,-75.19 346.7,-75.19"/>
<polygon fill="#63b8ff" stroke="#63b8ff" points="382.42,-78.69 392.42,-75.19 382.42,-71.69 382.42,-78.69"/>
</a>
</g>
</g>
<!-- Node22&#45;&gt;Node14 -->
<g id="edge26_Node000022_Node000014" class="edge">
<title>Node22&#45;&gt;Node14</title>
<g id="a_edge26_Node000022_Node000014"><a xlink:title=" ">
<path fill="none" stroke="#63b8ff" d="M582.33,-262.19C508.62,-262.19 408.47,-262.19 341.32,-262.19"/>
<polygon fill="#63b8ff" stroke="#63b8ff" points="582.55,-265.69 592.55,-262.19 582.55,-258.69 582.55,-265.69"/>
</a>
</g>
</g>
<!-- Node23&#45;&gt;Node3 -->
<g id="edge28_Node000023_Node000003" class="edge">
<title>Node23&#45;&gt;Node3</title>
<g id="a_edge28_Node000023_Node000003"><a xlink:title=" ">
<path fill="none" stroke="#63b8ff" d="M184.27,-113.19C162.81,-113.19 140.43,-113.19 121.56,-113.19"/>
<polygon fill="#63b8ff" stroke="#63b8ff" points="184.37,-116.69 194.37,-113.19 184.37,-109.69 184.37,-116.69"/>
</a>
</g>
</g>
<!-- Node25 -->
<g id="Node000025" class="node">
<title>Node25</title>
<g id="a_Node000025"><a xlink:href="class_imitate_pass.html#a84de97293ca1a100b1e466b4a79ec601" target="_top" xlink:title="Insert new password.">
<polygon fill="white" stroke="#666666" points="525.5,-185.69 418.5,-185.69 418.5,-166.69 525.5,-166.69 525.5,-185.69"/>
<text text-anchor="middle" x="472" y="-173.69" font-family="Helvetica,sans-Serif" font-size="10.00">ImitatePass::Insert</text>
</a>
</g>
</g>
<!-- Node24&#45;&gt;Node25 -->
<g id="edge30_Node000024_Node000025" class="edge">
<title>Node24&#45;&gt;Node25</title>
<g id="a_edge30_Node000024_Node000025"><a xlink:title=" ">
<path fill="none" stroke="#63b8ff" d="M592.84,-183.18C570.06,-181.85 546.14,-180.46 525.7,-179.26"/>
<polygon fill="#63b8ff" stroke="#63b8ff" points="592.67,-186.68 602.85,-183.77 593.08,-179.69 592.67,-186.68"/>
</a>
</g>
</g>
<!-- Node26 -->
<g id="Node000026" class="node">
<title>Node26</title>
<g id="a_Node000026"><a xlink:href="class_imitate_pass.html#a36464da28e70c06e1bdb0b3a6b977103" target="_top" xlink:title="Find .gpg&#45;id file for directory.">
<polygon fill="white" stroke="#666666" points="540,-234.19 404,-234.19 404,-204.19 540,-204.19 540,-234.19"/>
<text text-anchor="start" x="412" y="-222.19" font-family="Helvetica,sans-Serif" font-size="10.00">ImitatePass::verifyGpgId</text>
<text text-anchor="middle" x="472" y="-211.19" font-family="Helvetica,sans-Serif" font-size="10.00">ForDir</text>
</a>
</g>
</g>
<!-- Node24&#45;&gt;Node26 -->
<g id="edge31_Node000024_Node000026" class="edge">
<title>Node24&#45;&gt;Node26</title>
<g id="a_edge31_Node000024_Node000026"><a xlink:title=" ">
<path fill="none" stroke="#63b8ff" d="M605.5,-199.2C584.23,-202.41 561.11,-205.9 540.21,-209.05"/>
<polygon fill="#63b8ff" stroke="#63b8ff" points="606.08,-202.65 615.45,-197.7 605.04,-195.73 606.08,-202.65"/>
</a>
</g>
</g>
<!-- Node26&#45;&gt;Node14 -->
<g id="edge32_Node000026_Node000014" class="edge">
<title>Node26&#45;&gt;Node14</title>
<g id="a_edge32_Node000026_Node000014"><a xlink:title=" ">
<path fill="none" stroke="#63b8ff" d="M393.96,-235.54C366.77,-241.32 337.11,-247.62 313.45,-252.64"/>
<polygon fill="#63b8ff" stroke="#63b8ff" points="394.8,-238.95 403.85,-233.44 393.34,-232.1 394.8,-238.95"/>
</a>
</g>
</g>
</g>
</svg>

<g id="navigator" transform="translate(0 0)" fill="#404254">
  <rect fill="#f2f5e9" fill-opacity="0.5" stroke="#606060" stroke-width=".5" x="0" y="0" width="60" height="60"/>
  <use id="zoomplus" xlink:href="#zoomPlus" x="17" y="9" onmousedown="handleZoom(evt,'in')"/>
  <use id="zoomminus" xlink:href="#zoomMin" x="42" y="9" onmousedown="handleZoom(evt,'out')"/>
  <use id="reset" xlink:href="#resetDef" x="30" y="36" onmousedown="handleReset()"/>
   <use id="arrowup" xlink:href="#arrowUp" x="0" y="0" onmousedown="handlePan(0,-1)"/>
  <use id="arrowright" xlink:href="#arrowRight" x="0" y="0" onmousedown="handlePan(1,0)"/>
  <use id="arrowdown" xlink:href="#arrowDown" x="0" y="0" onmousedown="handlePan(0,1)"/>
  <use id="arrowleft" xlink:href="#arrowLeft" x="0" y="0" onmousedown="handlePan(-1,0)"/>
</g>
<svg viewBox="0 0 15 15" width="100%" height="30px" preserveAspectRatio="xMaxYMin meet">
 <g id="arrow_out" transform="scale(0.3 0.3)">
  <a xlink:href="class_executor_a2673768d875e9207a6a178dd1a489828_icgraph_org.svg" target="_base">
   <rect id="button" ry="5" rx="5" y="6" x="6" height="38" width="38"
        fill="#f2f5e9" fill-opacity="0.5" stroke="#606060" stroke-width="1.0"/>
   <path id="arrow"
     d="M 11.500037,31.436501 C 11.940474,20.09759 22.043105,11.32322 32.158766,21.979434 L 37.068811,17.246167 C 37.068811,17.246167 37.088388,32 37.088388,32 L 22.160133,31.978069 C 22.160133,31.978069 26.997745,27.140456 26.997745,27.140456 C 18.528582,18.264221 13.291696,25.230495 11.500037,31.436501 z"
     style="fill:#404040;"/>
  </a>
 </g>
</svg>

<style type='text/css'>
<![CDATA[
[data-mouse-over-selected='false'] { opacity: 0.7; }
[data-mouse-over-selected='true']  { opacity: 1.0; }
]]>
</style>
<script type="application/ecmascript"><![CDATA[
document.addEventListener('DOMContentLoaded', (event) => {
  highlightEdges();
  highlightAdjacentNodes();
});
]]></script>
</svg>
