<?xml version="1.0" encoding="UTF-8" standalone="no"?>
<!DOCTYPE svg PUBLIC "-//W3C//DTD SVG 1.1//EN"
 "http://www.w3.org/Graphics/SVG/1.1/DTD/svg11.dtd">
<!-- Generated by graphviz version 2.40.1 (20161225.0304)
 -->
<!-- Title: Pass Pages: 1 -->
<svg width="106pt" height="148pt"
 viewBox="0.00 0.00 106.07 148.00" xmlns="http://www.w3.org/2000/svg" xmlns:xlink="http://www.w3.org/1999/xlink">
<g id="graph0" class="graph" transform="scale(1 1) rotate(0) translate(4 144)">
<title>Pass</title>
<!-- Node4 -->
<g id="node1" class="node">
<title>Node4</title>
<g id="a_node1"><a xlink:title="Acts as an abstraction for pass or pass imitation.">
<polygon fill="#bfbfbf" stroke="#000000" points="11.2241,-.5 11.2241,-18.5 49.4556,-18.5 49.4556,-.5 11.2241,-.5"/>
<text text-anchor="middle" x="30.3398" y="-6.5" font-family="Helvetica,sans-Serif" font-size="10.00" fill="#000000">Pass</text>
</a>
</g>
</g>
<!-- Node5 -->
<g id="node2" class="node">
<title>Node5</title>
<g id="a_node2"><a xlink:title=" ">
<polygon fill="none" stroke="#bfbfbf" points="0,-121.5 0,-139.5 52.6797,-139.5 52.6797,-121.5 0,-121.5"/>
<text text-anchor="middle" x="26.3398" y="-127.5" font-family="Helvetica,sans-Serif" font-size="10.00" fill="#000000">QObject</text>
</a>
</g>
</g>
<!-- Node5&#45;&gt;Node4 -->
<g id="edge1" class="edge">
<title>Node5&#45;&gt;Node4</title>
<path fill="none" stroke="#191970" d="M26.9804,-111.1238C27.8546,-84.6786 29.3868,-38.3298 30.0357,-18.7002"/>
<polygon fill="#191970" stroke="#191970" points="23.4729,-111.2951 26.6405,-121.4053 30.4691,-111.5265 23.4729,-111.2951"/>
</g>
<!-- Node6 -->
<g id="node3" class="node">
<title>Node6</title>
<g id="a_node3"><a xlink:href="class_executor.html" target="_top" xlink:title="Executes external commands for handleing password, git and other data.">
<polygon fill="none" stroke="#000000" points="42.6084,-65.5 42.6084,-83.5 98.0713,-83.5 98.0713,-65.5 42.6084,-65.5"/>
<text text-anchor="middle" x="70.3398" y="-71.5" font-family="Helvetica,sans-Serif" font-size="10.00" fill="#000000">Executor</text>
</a>
</g>
</g>
<!-- Node5&#45;&gt;Node6 -->
<g id="edge3" class="edge">
<title>Node5&#45;&gt;Node6</title>
<path fill="none" stroke="#191970" d="M39.8402,-113.3177C47.5516,-103.5032 56.9095,-91.5932 63.2093,-83.5752"/>
<polygon fill="#191970" stroke="#191970" points="37.0317,-111.2271 33.6055,-121.2527 42.5359,-115.5519 37.0317,-111.2271"/>
</g>
<!-- Node6&#45;&gt;Node4 -->
<g id="edge2" class="edge">
<title>Node6&#45;&gt;Node4</title>
<path fill="none" stroke="#9a32cd" stroke-dasharray="5,2" d="M59.3199,-56.5926C51.8073,-44.3846 42.1612,-28.7097 36.1135,-18.8821"/>
<polygon fill="#9a32cd" stroke="#9a32cd" points="56.5562,-58.7798 64.778,-65.462 62.5178,-55.1111 56.5562,-58.7798"/>
<text text-anchor="middle" x="65.2905" y="-39" font-family="Helvetica,sans-Serif" font-size="10.00" fill="#000000"> exec</text>
</g>
</g>
</svg>
