<?xml version="1.0" encoding="UTF-8" standalone="no"?>
<!DOCTYPE svg PUBLIC "-//W3C//DTD SVG 1.1//EN"
 "http://www.w3.org/Graphics/SVG/1.1/DTD/svg11.dtd">
<!-- Generated by graphviz version 2.43.0 (0)
 -->
<!-- Title: MainWindow::passShowHandler Pages: 1 -->
<!--zoomable 530 -->

<svg id="main" version="1.1" xmlns="http://www.w3.org/2000/svg" xmlns:xlink="http://www.w3.org/1999/xlink" xml:space="preserve" onload="init(evt)">
<style type="text/css"><![CDATA[
.node, .edge {opacity: 0.7;}
.node.selected, .edge.selected {opacity: 1;}
.edge:hover path { stroke: red; }
.edge:hover polygon { stroke: red; fill: red; }
]]></style>

<defs>
  <circle id="rim" cx="0" cy="0" r="7"/>
  <circle id="rim2" cx="0" cy="0" r="3.5"/>
  <g id="zoomPlus">
    <use xlink:href="#rim" fill="#404040"><set attributeName="fill" to="#808080" begin="zoomplus.mouseover" end="zoomplus.mouseout"/></use>
    <path d="M-4,0h8M0,-4v8" fill="none" stroke="white" stroke-width="1.5" pointer-events="none"/>
  </g>
  <g id="zoomMin">
    <use xlink:href="#rim" fill="#404040"><set attributeName="fill" to="#808080" begin="zoomminus.mouseover" end="zoomminus.mouseout"/></use>
    <path d="M-4,0h8" fill="none" stroke="white" stroke-width="1.5" pointer-events="none"/>
  </g>
  <g id="arrowUp" transform="translate(30 24)">
    <use xlink:href="#rim"/>
    <path pointer-events="none" fill="none" stroke="white" stroke-width="1.5" d="M0,-3.0v7 M-2.5,-0.5L0,-3.0L2.5,-0.5"/>
  </g>
  <g id="arrowRight" transform="rotate(90) translate(36 -43)">
    <use xlink:href="#rim"/>
    <path pointer-events="none" fill="none" stroke="white" stroke-width="1.5" d="M0,-3.0v7 M-2.5,-0.5L0,-3.0L2.5,-0.5"/>
  </g>
  <g id="arrowDown" transform="rotate(180) translate(-30 -48)">
    <use xlink:href="#rim"/>
    <path pointer-events="none" fill="none" stroke="white" stroke-width="1.5" d="M0,-3.0v7 M-2.5,-0.5L0,-3.0L2.5,-0.5"/>
  </g>
  <g id="arrowLeft" transform="rotate(270) translate(-36 17)">
    <use xlink:href="#rim"/>
    <path pointer-events="none" fill="none" stroke="white" stroke-width="1.5" d="M0,-3.0v7 M-2.5,-0.5L0,-3.0L2.5,-0.5"/>
  </g>
  <g id="resetDef">
    <use xlink:href="#rim2" fill="#404040"><set attributeName="fill" to="#808080" begin="reset.mouseover" end="reset.mouseout"/></use>
  </g>
</defs>
<script type="application/ecmascript">
var viewWidth = 832;
var viewHeight = 530;
var sectionId = 'dynsection-20';
</script>
<script type="application/ecmascript" xlink:href="svg.min.js"/>
<svg id="graph" class="graph">
<g id="viewport">
<title>MainWindow::passShowHandler</title>
<!-- Node1 -->
<g id="Node000001" class="node">
<title>Node1</title>
<g id="a_Node000001"><a xlink:title=" ">
<polygon fill="#999999" stroke="#666666" points="172,-281.5 0,-281.5 0,-262.5 172,-262.5 172,-281.5"/>
<text text-anchor="middle" x="86" y="-269.5" font-family="Helvetica,sans-Serif" font-size="10.00">MainWindow::passShowHandler</text>
</a>
</g>
</g>
<!-- Node2 -->
<g id="Node000002" class="node">
<title>Node2</title>
<g id="a_Node000002"><a xlink:href="class_file_content.html#a89393e371a598cb3e0d7d149dbc431b1" target="_top" xlink:title="Gets named value pairs from the parsed file.">
<polygon fill="white" stroke="#666666" points="377.5,-521.5 216.5,-521.5 216.5,-502.5 377.5,-502.5 377.5,-521.5"/>
<text text-anchor="middle" x="297" y="-509.5" font-family="Helvetica,sans-Serif" font-size="10.00">FileContent::getNamedValues</text>
</a>
</g>
</g>
<!-- Node1&#45;&gt;Node2 -->
<g id="edge1_Node000001_Node000002" class="edge">
<title>Node1&#45;&gt;Node2</title>
<g id="a_edge1_Node000001_Node000002"><a xlink:title=" ">
<path fill="none" stroke="#63b8ff" d="M89.24,-281.94C97.72,-317.23 131.42,-437.36 208,-494 209.83,-495.36 211.75,-496.62 213.72,-497.79"/>
<polygon fill="#63b8ff" stroke="#63b8ff" points="212.23,-500.96 222.73,-502.36 215.4,-494.71 212.23,-500.96"/>
</a>
</g>
</g>
<!-- Node3 -->
<g id="Node000003" class="node">
<title>Node3</title>
<g id="a_Node000003"><a xlink:href="class_qt_pass_settings.html#a907f64f2e985de5ce864e8687fc114ef" target="_top" xlink:title="Get pass entry template.">
<polygon fill="white" stroke="#666666" points="386,-484.5 208,-484.5 208,-465.5 386,-465.5 386,-484.5"/>
<text text-anchor="middle" x="297" y="-472.5" font-family="Helvetica,sans-Serif" font-size="10.00">QtPassSettings::getPassTemplate</text>
</a>
</g>
</g>
<!-- Node1&#45;&gt;Node3 -->
<g id="edge2_Node000001_Node000003" class="edge">
<title>Node1&#45;&gt;Node3</title>
<g id="a_edge2_Node000001_Node000003"><a xlink:title=" ">
<path fill="none" stroke="#63b8ff" d="M90.22,-281.58C101.15,-312.58 140.06,-410.85 208,-457 210.28,-458.55 212.66,-459.97 215.13,-461.27"/>
<polygon fill="#63b8ff" stroke="#63b8ff" points="213.8,-464.51 224.35,-465.49 216.71,-458.15 213.8,-464.51"/>
</a>
</g>
</g>
<!-- Node4 -->
<g id="Node000004" class="node">
<title>Node4</title>
<g id="a_Node000004"><a xlink:href="class_file_content.html#ac88e8096551d24a41fc0625a4d903139" target="_top" xlink:title="Gets the password from the parsed file.">
<polygon fill="white" stroke="#666666" points="367,-447.5 227,-447.5 227,-428.5 367,-428.5 367,-447.5"/>
<text text-anchor="middle" x="297" y="-435.5" font-family="Helvetica,sans-Serif" font-size="10.00">FileContent::getPassword</text>
</a>
</g>
</g>
<!-- Node1&#45;&gt;Node4 -->
<g id="edge3_Node000001_Node000004" class="edge">
<title>Node1&#45;&gt;Node4</title>
<g id="a_edge3_Node000001_Node000004"><a xlink:title=" ">
<path fill="none" stroke="#63b8ff" d="M91.97,-281.79C106.11,-308.54 149.29,-383.22 208,-419 211.6,-421.2 215.43,-423.14 219.38,-424.86"/>
<polygon fill="#63b8ff" stroke="#63b8ff" points="218.22,-428.16 228.81,-428.49 220.73,-421.63 218.22,-428.16"/>
</a>
</g>
</g>
<!-- Node5 -->
<g id="Node000005" class="node">
<title>Node5</title>
<g id="a_Node000005"><a xlink:href="class_file_content.html#ac38b9c211d6f62eb7420eecc66f935e8" target="_top" xlink:title="Gets remaining data for display (excludes hidden fields like OTP).">
<polygon fill="white" stroke="#666666" points="370,-410 224,-410 224,-380 370,-380 370,-410"/>
<text text-anchor="start" x="232" y="-398" font-family="Helvetica,sans-Serif" font-size="10.00">FileContent::getRemaining</text>
<text text-anchor="middle" x="297" y="-387" font-family="Helvetica,sans-Serif" font-size="10.00">DataForDisplay</text>
</a>
</g>
</g>
<!-- Node1&#45;&gt;Node5 -->
<g id="edge4_Node000001_Node000005" class="edge">
<title>Node1&#45;&gt;Node5</title>
<g id="a_edge4_Node000001_Node000005"><a xlink:title=" ">
<path fill="none" stroke="#63b8ff" d="M96.03,-281.75C114.91,-301.54 160.71,-346.62 208,-371 211.72,-372.92 215.61,-374.7 219.6,-376.34"/>
<polygon fill="#63b8ff" stroke="#63b8ff" points="218.45,-379.65 229.04,-379.95 220.95,-373.11 218.45,-379.65"/>
</a>
</g>
</g>
<!-- Node6 -->
<g id="Node000006" class="node">
<title>Node6</title>
<g id="a_Node000006"><a xlink:href="class_qt_pass_settings.html#afaa574ceedde650a5b713bdb13e1b5eb" target="_top" xlink:title="Get whether to display password as&#45;is (no modification).">
<polygon fill="white" stroke="#666666" points="377.5,-361.5 216.5,-361.5 216.5,-342.5 377.5,-342.5 377.5,-361.5"/>
<text text-anchor="middle" x="297" y="-349.5" font-family="Helvetica,sans-Serif" font-size="10.00">QtPassSettings::isDisplayAsIs</text>
</a>
</g>
</g>
<!-- Node1&#45;&gt;Node6 -->
<g id="edge5_Node000001_Node000006" class="edge">
<title>Node1&#45;&gt;Node6</title>
<g id="a_edge5_Node000001_Node000006"><a xlink:title=" ">
<path fill="none" stroke="#63b8ff" d="M102.44,-281.65C124.86,-295.27 168.13,-320 208,-334 214.43,-336.26 221.22,-338.27 228.07,-340.05"/>
<polygon fill="#63b8ff" stroke="#63b8ff" points="227.57,-343.53 238.11,-342.5 229.23,-336.73 227.57,-343.53"/>
</a>
</g>
</g>
<!-- Node7 -->
<g id="Node000007" class="node">
<title>Node7</title>
<g id="a_Node000007"><a xlink:href="class_qt_pass_settings.html#a2e45500a82b847412e95f93e5e1d8fc3" target="_top" xlink:title="Get whether to hide content (password + username).">
<polygon fill="white" stroke="#666666" points="379,-324.5 215,-324.5 215,-305.5 379,-305.5 379,-324.5"/>
<text text-anchor="middle" x="297" y="-312.5" font-family="Helvetica,sans-Serif" font-size="10.00">QtPassSettings::isHideContent</text>
</a>
</g>
</g>
<!-- Node1&#45;&gt;Node7 -->
<g id="edge6_Node000001_Node000007" class="edge">
<title>Node1&#45;&gt;Node7</title>
<g id="a_edge6_Node000001_Node000007"><a xlink:title=" ">
<path fill="none" stroke="#63b8ff" d="M133.38,-281.54C164.77,-288 206.42,-296.57 239.7,-303.42"/>
<polygon fill="#63b8ff" stroke="#63b8ff" points="239.25,-306.9 249.75,-305.48 240.66,-300.04 239.25,-306.9"/>
</a>
</g>
</g>
<!-- Node8 -->
<g id="Node000008" class="node">
<title>Node8</title>
<g id="a_Node000008"><a xlink:href="class_qt_pass_settings.html#a4b1ea480a08bea181210fca93e4b6d54" target="_top" xlink:title="Check whether template applies to all fields.">
<polygon fill="white" stroke="#666666" points="371.5,-287 222.5,-287 222.5,-257 371.5,-257 371.5,-287"/>
<text text-anchor="start" x="230.5" y="-275" font-family="Helvetica,sans-Serif" font-size="10.00">QtPassSettings::isTemplate</text>
<text text-anchor="middle" x="297" y="-264" font-family="Helvetica,sans-Serif" font-size="10.00">AllFields</text>
</a>
</g>
</g>
<!-- Node1&#45;&gt;Node8 -->
<g id="edge7_Node000001_Node000008" class="edge">
<title>Node1&#45;&gt;Node8</title>
<g id="a_edge7_Node000001_Node000008"><a xlink:title=" ">
<path fill="none" stroke="#63b8ff" d="M172.01,-272C185.34,-272 199.1,-272 212.4,-272"/>
<polygon fill="#63b8ff" stroke="#63b8ff" points="212.46,-275.5 222.46,-272 212.46,-268.5 212.46,-275.5"/>
</a>
</g>
</g>
<!-- Node9 -->
<g id="Node000009" class="node">
<title>Node9</title>
<g id="a_Node000009"><a xlink:href="class_qt_pass_settings.html#a38cb968ab7c8dd26558b9fe9990740be" target="_top" xlink:title="Get whether to use panel autoclear.">
<polygon fill="white" stroke="#666666" points="381.5,-239 212.5,-239 212.5,-209 381.5,-209 381.5,-239"/>
<text text-anchor="start" x="220.5" y="-227" font-family="Helvetica,sans-Serif" font-size="10.00">QtPassSettings::isUseAutoclear</text>
<text text-anchor="middle" x="297" y="-216" font-family="Helvetica,sans-Serif" font-size="10.00">Panel</text>
</a>
</g>
</g>
<!-- Node1&#45;&gt;Node9 -->
<g id="edge8_Node000001_Node000009" class="edge">
<title>Node1&#45;&gt;Node9</title>
<g id="a_edge8_Node000001_Node000009"><a xlink:title=" ">
<path fill="none" stroke="#63b8ff" d="M128.54,-262.46C154.86,-256.42 189.67,-248.42 220.73,-241.29"/>
<polygon fill="#63b8ff" stroke="#63b8ff" points="221.71,-244.65 230.67,-239 220.14,-237.83 221.71,-244.65"/>
</a>
</g>
</g>
<!-- Node10 -->
<g id="Node000010" class="node">
<title>Node10</title>
<g id="a_Node000010"><a xlink:href="class_qt_pass_settings.html#a579f75b719c9c4de88585f05d70e4bb0" target="_top" xlink:title="Check whether template usage is enabled.">
<polygon fill="white" stroke="#666666" points="380.5,-190.5 213.5,-190.5 213.5,-171.5 380.5,-171.5 380.5,-190.5"/>
<text text-anchor="middle" x="297" y="-178.5" font-family="Helvetica,sans-Serif" font-size="10.00">QtPassSettings::isUseTemplate</text>
</a>
</g>
</g>
<!-- Node1&#45;&gt;Node10 -->
<g id="edge9_Node000001_Node000010" class="edge">
<title>Node1&#45;&gt;Node10</title>
<g id="a_edge9_Node000001_Node000010"><a xlink:title=" ">
<path fill="none" stroke="#63b8ff" d="M100.05,-262.28C121.47,-246.78 165.92,-216.55 208,-200 214.7,-197.37 221.84,-195.06 229.04,-193.06"/>
<polygon fill="#63b8ff" stroke="#63b8ff" points="230.06,-196.41 238.86,-190.51 228.3,-189.63 230.06,-196.41"/>
</a>
</g>
</g>
<!-- Node11 -->
<g id="Node000011" class="node">
<title>Node11</title>
<g id="a_Node000011"><a xlink:href="class_file_content.html#addf22b7136ee26d2f14bb77dc49c1510" target="_top" xlink:title="parse parses the given fileContent in a FileContent object. The password is accessible through getPas...">
<polygon fill="white" stroke="#666666" points="349.5,-153.5 244.5,-153.5 244.5,-134.5 349.5,-134.5 349.5,-153.5"/>
<text text-anchor="middle" x="297" y="-141.5" font-family="Helvetica,sans-Serif" font-size="10.00">FileContent::parse</text>
</a>
</g>
</g>
<!-- Node1&#45;&gt;Node11 -->
<g id="edge10_Node000001_Node000011" class="edge">
<title>Node1&#45;&gt;Node11</title>
<g id="a_edge10_Node000001_Node000011"><a xlink:title=" ">
<path fill="none" stroke="#63b8ff" d="M94.61,-262.33C112.12,-240.8 157.66,-188.76 208,-163 216.17,-158.82 225.23,-155.55 234.34,-153.01"/>
<polygon fill="#63b8ff" stroke="#63b8ff" points="235.36,-156.36 244.19,-150.52 233.64,-149.57 235.36,-156.36"/>
</a>
</g>
</g>
<!-- Node12 -->
<g id="Node000012" class="node">
<title>Node12</title>
<g id="a_Node000012"><a xlink:href="class_main_window.html#a7e1ae254673e36410d4b3a73e1e8ec8e" target="_top" xlink:title=" ">
<polygon fill="white" stroke="#666666" points="383,-116 211,-116 211,-86 383,-86 383,-116"/>
<text text-anchor="start" x="219" y="-104" font-family="Helvetica,sans-Serif" font-size="10.00">MainWindow::passShowHandler</text>
<text text-anchor="middle" x="297" y="-93" font-family="Helvetica,sans-Serif" font-size="10.00">Finished</text>
</a>
</g>
</g>
<!-- Node1&#45;&gt;Node12 -->
<g id="edge11_Node000001_Node000012" class="edge">
<title>Node1&#45;&gt;Node12</title>
<g id="a_edge11_Node000001_Node000012"><a xlink:title=" ">
<path fill="none" stroke="#63b8ff" d="M92.12,-262.47C106.61,-236.41 150.64,-163.4 208,-126 211.11,-123.97 214.39,-122.11 217.77,-120.39"/>
<polygon fill="#63b8ff" stroke="#63b8ff" points="219.31,-123.53 226.95,-116.19 216.4,-117.17 219.31,-123.53"/>
</a>
</g>
</g>
<!-- Node13 -->
<g id="Node000013" class="node">
<title>Node13</title>
<g id="a_Node000013"><a xlink:href="class_qt_pass.html#a74adba9dd6915c9db50762279b62be89" target="_top" xlink:title="Sets the text to be stored in clipboard and handles clipboard operations.">
<polygon fill="white" stroke="#666666" points="361,-67.5 233,-67.5 233,-48.5 361,-48.5 361,-67.5"/>
<text text-anchor="middle" x="297" y="-55.5" font-family="Helvetica,sans-Serif" font-size="10.00">QtPass::setClippedText</text>
</a>
</g>
</g>
<!-- Node1&#45;&gt;Node13 -->
<g id="edge12_Node000001_Node000013" class="edge">
<title>Node1&#45;&gt;Node13</title>
<g id="a_edge12_Node000001_Node000013"><a xlink:title=" ">
<path fill="none" stroke="#63b8ff" d="M89.93,-262.39C100.23,-230.35 137.99,-126.36 208,-77 212.63,-73.74 217.71,-71.01 223.03,-68.75"/>
<polygon fill="#63b8ff" stroke="#63b8ff" points="224.63,-71.89 232.8,-65.14 222.21,-65.32 224.63,-71.89"/>
</a>
</g>
</g>
<!-- Node20 -->
<g id="Node000020" class="node">
<title>Node20</title>
<g id="a_Node000020"><a xlink:href="class_main_window.html#ac240119ea67a770e5d997a5aa0fe47a3" target="_top" xlink:title="MainWindow::setUiElementsEnabled enable or disable the relevant UI elements.">
<polygon fill="white" stroke="#666666" points="375,-30 219,-30 219,0 375,0 375,-30"/>
<text text-anchor="start" x="227" y="-18" font-family="Helvetica,sans-Serif" font-size="10.00">MainWindow::setUiElements</text>
<text text-anchor="middle" x="297" y="-7" font-family="Helvetica,sans-Serif" font-size="10.00">Enabled</text>
</a>
</g>
</g>
<!-- Node1&#45;&gt;Node20 -->
<g id="edge19_Node000001_Node000020" class="edge">
<title>Node1&#45;&gt;Node20</title>
<g id="a_edge19_Node000001_Node000020"><a xlink:title=" ">
<path fill="none" stroke="#63b8ff" d="M89.13,-262.32C97.46,-226.8 131.21,-102.53 208,-40 210.25,-38.17 212.63,-36.47 215.11,-34.89"/>
<polygon fill="#63b8ff" stroke="#63b8ff" points="216.83,-37.94 223.86,-30.01 213.42,-31.83 216.83,-37.94"/>
</a>
</g>
</g>
<!-- Node14 -->
<g id="Node000014" class="node">
<title>Node14</title>
<g id="a_Node000014"><a xlink:href="class_qt_pass.html#acba134fb5281aedee11899a03976aa95" target="_top" xlink:title="MainWindow::copyTextToClipboard copies text to your clipboard.">
<polygon fill="white" stroke="#666666" points="590.5,-86.5 434.5,-86.5 434.5,-67.5 590.5,-67.5 590.5,-86.5"/>
<text text-anchor="middle" x="512.5" y="-74.5" font-family="Helvetica,sans-Serif" font-size="10.00">QtPass::copyTextToClipboard</text>
</a>
</g>
</g>
<!-- Node13&#45;&gt;Node14 -->
<g id="edge13_Node000013_Node000014" class="edge">
<title>Node13&#45;&gt;Node14</title>
<g id="a_edge13_Node000013_Node000014"><a xlink:title=" ">
<path fill="none" stroke="#63b8ff" d="M361.19,-63.62C381.04,-65.39 403.32,-67.37 424.51,-69.26"/>
<polygon fill="#63b8ff" stroke="#63b8ff" points="424.22,-72.75 434.49,-70.15 424.84,-65.77 424.22,-72.75"/>
</a>
</g>
</g>
<!-- Node19 -->
<g id="Node000019" class="node">
<title>Node19</title>
<g id="a_Node000019"><a xlink:href="class_qt_pass_settings.html#a4650fff2464ff37ec568cf236c9d2056" target="_top" xlink:title="Get clipboard type as enum.">
<polygon fill="white" stroke="#666666" points="603,-49.5 422,-49.5 422,-30.5 603,-30.5 603,-49.5"/>
<text text-anchor="middle" x="512.5" y="-37.5" font-family="Helvetica,sans-Serif" font-size="10.00">QtPassSettings::getClipBoardType</text>
</a>
</g>
</g>
<!-- Node13&#45;&gt;Node19 -->
<g id="edge18_Node000013_Node000019" class="edge">
<title>Node13&#45;&gt;Node19</title>
<g id="a_edge18_Node000013_Node000019"><a xlink:title=" ">
<path fill="none" stroke="#63b8ff" d="M361.19,-52.67C377.12,-51.33 394.62,-49.85 411.86,-48.4"/>
<polygon fill="#63b8ff" stroke="#63b8ff" points="412.3,-51.88 421.97,-47.55 411.72,-44.9 412.3,-51.88"/>
</a>
</g>
</g>
<!-- Node15 -->
<g id="Node000015" class="node">
<title>Node15</title>
<g id="a_Node000015"><a xlink:href="qtpass_8cpp.html#ad02159f3c84f6ec8d7535395bdb55d99" target="_top" xlink:title="Build clipboard MIME data with platform&#45;specific security hints.">
<polygon fill="white" stroke="#666666" points="800.5,-142.5 662.5,-142.5 662.5,-123.5 800.5,-123.5 800.5,-142.5"/>
<text text-anchor="middle" x="731.5" y="-130.5" font-family="Helvetica,sans-Serif" font-size="10.00">buildClipboardMimeData</text>
</a>
</g>
</g>
<!-- Node14&#45;&gt;Node15 -->
<g id="edge14_Node000014_Node000015" class="edge">
<title>Node14&#45;&gt;Node15</title>
<g id="a_edge14_Node000014_Node000015"><a xlink:title=" ">
<path fill="none" stroke="#63b8ff" d="M542.18,-86.58C567.48,-94.81 605.42,-106.64 639,-115 648.09,-117.27 657.75,-119.43 667.26,-121.42"/>
<polygon fill="#63b8ff" stroke="#63b8ff" points="666.58,-124.85 677.08,-123.42 667.98,-117.99 666.58,-124.85"/>
</a>
</g>
</g>
<!-- Node16 -->
<g id="Node000016" class="node">
<title>Node16</title>
<g id="a_Node000016"><a xlink:href="class_qt_pass_settings.html#a0a517b1977765eb6032f330482abb85b" target="_top" xlink:title="Get whether to use autoclear for clipboard.">
<polygon fill="white" stroke="#666666" points="816,-105.5 647,-105.5 647,-86.5 816,-86.5 816,-105.5"/>
<text text-anchor="middle" x="731.5" y="-93.5" font-family="Helvetica,sans-Serif" font-size="10.00">QtPassSettings::isUseAutoclear</text>
</a>
</g>
</g>
<!-- Node14&#45;&gt;Node16 -->
<g id="edge15_Node000014_Node000016" class="edge">
<title>Node14&#45;&gt;Node16</title>
<g id="a_edge15_Node000014_Node000016"><a xlink:title=" ">
<path fill="none" stroke="#63b8ff" d="M590.62,-83.75C605.51,-85.06 621.26,-86.44 636.61,-87.78"/>
<polygon fill="#63b8ff" stroke="#63b8ff" points="636.37,-91.27 646.63,-88.66 636.98,-84.3 636.37,-91.27"/>
</a>
</g>
</g>
<!-- Node17 -->
<g id="Node000017" class="node">
<title>Node17</title>
<g id="a_Node000017"><a xlink:href="class_qt_pass_settings.html#a00123b42f05b026cf2697c02e0797442" target="_top" xlink:title="Get whether to use selection (X11) for clipboard.">
<polygon fill="white" stroke="#666666" points="815,-68.5 648,-68.5 648,-49.5 815,-49.5 815,-68.5"/>
<text text-anchor="middle" x="731.5" y="-56.5" font-family="Helvetica,sans-Serif" font-size="10.00">QtPassSettings::isUseSelection</text>
</a>
</g>
</g>
<!-- Node14&#45;&gt;Node17 -->
<g id="edge16_Node000014_Node000017" class="edge">
<title>Node14&#45;&gt;Node17</title>
<g id="a_edge16_Node000014_Node000017"><a xlink:title=" ">
<path fill="none" stroke="#63b8ff" d="M590.62,-70.6C605.81,-69.34 621.89,-68.01 637.54,-66.71"/>
<polygon fill="#63b8ff" stroke="#63b8ff" points="638.07,-70.18 647.75,-65.86 637.49,-63.2 638.07,-70.18"/>
</a>
</g>
</g>
<!-- Node18 -->
<g id="Node000018" class="node">
<title>Node18</title>
<g id="a_Node000018"><a xlink:href="class_main_window.html#a69f4a122336a6fc3875fc94741e4d1cf" target="_top" xlink:title="Displays message in status bar.">
<polygon fill="white" stroke="#666666" points="824,-31.5 639,-31.5 639,-12.5 824,-12.5 824,-31.5"/>
<text text-anchor="middle" x="731.5" y="-19.5" font-family="Helvetica,sans-Serif" font-size="10.00">MainWindow::showStatusMessage</text>
</a>
</g>
</g>
<!-- Node14&#45;&gt;Node18 -->
<g id="edge17_Node000014_Node000018" class="edge">
<title>Node14&#45;&gt;Node18</title>
<g id="a_edge17_Node000014_Node000018"><a xlink:title=" ">
<path fill="none" stroke="#63b8ff" d="M572.35,-67.48C582.69,-65.16 593.26,-62.35 603,-59 619.92,-53.19 622.1,-46.87 639,-41 646.82,-38.28 655.16,-35.9 663.5,-33.81"/>
<polygon fill="#63b8ff" stroke="#63b8ff" points="664.33,-37.21 673.26,-31.51 662.72,-30.4 664.33,-37.21"/>
</a>
</g>
</g>
</g>
</svg>

<g id="navigator" transform="translate(0 0)" fill="#404254">
  <rect fill="#f2f5e9" fill-opacity="0.5" stroke="#606060" stroke-width=".5" x="0" y="0" width="60" height="60"/>
  <use id="zoomplus" xlink:href="#zoomPlus" x="17" y="9" onmousedown="handleZoom(evt,'in')"/>
  <use id="zoomminus" xlink:href="#zoomMin" x="42" y="9" onmousedown="handleZoom(evt,'out')"/>
  <use id="reset" xlink:href="#resetDef" x="30" y="36" onmousedown="handleReset()"/>
   <use id="arrowup" xlink:href="#arrowUp" x="0" y="0" onmousedown="handlePan(0,-1)"/>
  <use id="arrowright" xlink:href="#arrowRight" x="0" y="0" onmousedown="handlePan(1,0)"/>
  <use id="arrowdown" xlink:href="#arrowDown" x="0" y="0" onmousedown="handlePan(0,1)"/>
  <use id="arrowleft" xlink:href="#arrowLeft" x="0" y="0" onmousedown="handlePan(-1,0)"/>
</g>
<svg viewBox="0 0 15 15" width="100%" height="30px" preserveAspectRatio="xMaxYMin meet">
 <g id="arrow_out" transform="scale(0.3 0.3)">
  <a xlink:href="class_main_window_a0d75695e555bac7331e1ea22bc3159df_cgraph_org.svg" target="_base">
   <rect id="button" ry="5" rx="5" y="6" x="6" height="38" width="38"
        fill="#f2f5e9" fill-opacity="0.5" stroke="#606060" stroke-width="1.0"/>
   <path id="arrow"
     d="M 11.500037,31.436501 C 11.940474,20.09759 22.043105,11.32322 32.158766,21.979434 L 37.068811,17.246167 C 37.068811,17.246167 37.088388,32 37.088388,32 L 22.160133,31.978069 C 22.160133,31.978069 26.997745,27.140456 26.997745,27.140456 C 18.528582,18.264221 13.291696,25.230495 11.500037,31.436501 z"
     style="fill:#404040;"/>
  </a>
 </g>
</svg>

<style type='text/css'>
<![CDATA[
[data-mouse-over-selected='false'] { opacity: 0.7; }
[data-mouse-over-selected='true']  { opacity: 1.0; }
]]>
</style>
<script type="application/ecmascript"><![CDATA[
document.addEventListener('DOMContentLoaded', (event) => {
  highlightEdges();
  highlightAdjacentNodes();
});
]]></script>
</svg>
