<?xml version="1.0" encoding="UTF-8" standalone="no"?>
<!DOCTYPE svg PUBLIC "-//W3C//DTD SVG 1.1//EN"
 "http://www.w3.org/Graphics/SVG/1.1/DTD/svg11.dtd">
<!-- Generated by graphviz version 2.40.1 (20161225.0304)
 -->
<!-- Title: QtPassSettings::getGeometry Pages: 1 -->
<svg width="498pt" height="27pt"
 viewBox="0.00 0.00 498.15 27.00" xmlns="http://www.w3.org/2000/svg" xmlns:xlink="http://www.w3.org/1999/xlink">
<g id="graph0" class="graph" transform="scale(1 1) rotate(0) translate(4 23)">
<title>QtPassSettings::getGeometry</title>
<!-- Node23 -->
<g id="node1" class="node">
<title>Node23</title>
<polygon fill="#bfbfbf" stroke="#000000" points="0,-.5 0,-18.5 148.2803,-18.5 148.2803,-.5 0,-.5"/>
<text text-anchor="middle" x="74.1401" y="-6.5" font-family="Helvetica,sans-Serif" font-size="10.00" fill="#000000">QtPassSettings::getGeometry</text>
</g>
<!-- Node24 -->
<g id="node2" class="node">
<title>Node24</title>
<g id="a_node2"><a xlink:href="class_main_window.html#a23d2783cb61a373c4b0127970264290a" target="_top" xlink:title="MainWindow::checkConfig make sure we are ready to go as soon as possible. ">
<polygon fill="none" stroke="#000000" points="184.2803,-.5 184.2803,-18.5 318.1074,-18.5 318.1074,-.5 184.2803,-.5"/>
<text text-anchor="middle" x="251.1938" y="-6.5" font-family="Helvetica,sans-Serif" font-size="10.00" fill="#000000">MainWindow::checkConfig</text>
</a>
</g>
</g>
<!-- Node23&#45;&gt;Node24 -->
<g id="edge1" class="edge">
<title>Node23&#45;&gt;Node24</title>
<path fill="none" stroke="#191970" d="M158.5012,-9.5C167.0943,-9.5 175.7398,-9.5 184.113,-9.5"/>
<polygon fill="#191970" stroke="#191970" points="158.4573,-6.0001 148.4573,-9.5 158.4572,-13.0001 158.4573,-6.0001"/>
</g>
<!-- Node25 -->
<g id="node3" class="node">
<title>Node25</title>
<g id="a_node3"><a xlink:href="class_main_window.html#a8b244be8b7b7db1b08de2a2acb9409db" target="_top" xlink:title="MainWindow::MainWindow handles all of the main functionality and also the main window. ">
<polygon fill="none" stroke="#000000" points="354.1074,-.5 354.1074,-18.5 490.1465,-18.5 490.1465,-.5 354.1074,-.5"/>
<text text-anchor="middle" x="422.127" y="-6.5" font-family="Helvetica,sans-Serif" font-size="10.00" fill="#000000">MainWindow::MainWindow</text>
</a>
</g>
</g>
<!-- Node24&#45;&gt;Node25 -->
<g id="edge2" class="edge">
<title>Node24&#45;&gt;Node25</title>
<path fill="none" stroke="#191970" d="M328.4975,-9.5C336.9522,-9.5 345.5144,-9.5 353.8491,-9.5"/>
<polygon fill="#191970" stroke="#191970" points="328.2606,-6.0001 318.2605,-9.5 328.2605,-13.0001 328.2606,-6.0001"/>
</g>
</g>
</svg>
