<?xml version="1.0" encoding="UTF-8" standalone="no"?>
<!DOCTYPE svg PUBLIC "-//W3C//DTD SVG 1.1//EN"
 "http://www.w3.org/Graphics/SVG/1.1/DTD/svg11.dtd">
<!-- Generated by graphviz version 2.42.3 (20191010.1750)
 -->
<!-- Title: TrayIcon::showHideParent Pages: 1 -->
<svg width="432pt" height="27pt"
 viewBox="0.00 0.00 431.66 27.00" xmlns="http://www.w3.org/2000/svg" xmlns:xlink="http://www.w3.org/1999/xlink">
<g id="graph0" class="graph" transform="scale(1 1) rotate(0) translate(4 23)">
<title>TrayIcon::showHideParent</title>
<!-- Node1 -->
<g id="node1" class="node">
<title>Node1</title>
<g id="a_node1"><a xlink:title="TrayIcon::showHideParent toggle app visibility.">
<polygon fill="#bfbfbf" stroke="black" points="290.2,-0.5 290.2,-18.5 423.66,-18.5 423.66,-0.5 290.2,-0.5"/>
<text text-anchor="middle" x="356.93" y="-6.5" font-family="Helvetica,sans-Serif" font-size="10.00">TrayIcon::showHideParent</text>
</a>
</g>
</g>
<!-- Node2 -->
<g id="node2" class="node">
<title>Node2</title>
<g id="a_node2"><a xlink:href="class_tray_icon.html#a36c341a8b31884cd45060a92258e92b8" target="_top" xlink:title="TrayIcon::iconActivated you clicked on the trayicon.">
<polygon fill="none" stroke="black" points="134.63,-0.5 134.63,-18.5 254.2,-18.5 254.2,-0.5 134.63,-0.5"/>
<text text-anchor="middle" x="194.41" y="-6.5" font-family="Helvetica,sans-Serif" font-size="10.00">TrayIcon::iconActivated</text>
</a>
</g>
</g>
<!-- Node1&#45;&gt;Node2 -->
<g id="edge1" class="edge">
<title>Node1&#45;&gt;Node2</title>
<path fill="none" stroke="midnightblue" d="M280.09,-9.5C271.45,-9.5 262.74,-9.5 254.36,-9.5"/>
<polygon fill="midnightblue" stroke="midnightblue" points="280.18,-13 290.18,-9.5 280.18,-6 280.18,-13"/>
</g>
<!-- Node3 -->
<g id="node3" class="node">
<title>Node3</title>
<g id="a_node3"><a xlink:href="class_tray_icon.html#a587e1467cf97c27f4269f1c47c1e4ac5" target="_top" xlink:title="TrayIcon::TrayIcon use a (system) tray icon with a nice QtPass logo on it (currently) only Quits.">
<polygon fill="none" stroke="black" points="0,-0.5 0,-18.5 98.63,-18.5 98.63,-0.5 0,-0.5"/>
<text text-anchor="middle" x="49.31" y="-6.5" font-family="Helvetica,sans-Serif" font-size="10.00">TrayIcon::TrayIcon</text>
</a>
</g>
</g>
<!-- Node2&#45;&gt;Node3 -->
<g id="edge2" class="edge">
<title>Node2&#45;&gt;Node3</title>
<path fill="none" stroke="midnightblue" d="M124.3,-9.5C115.66,-9.5 106.98,-9.5 98.75,-9.5"/>
<polygon fill="midnightblue" stroke="midnightblue" points="124.38,-13 134.38,-9.5 124.38,-6 124.38,-13"/>
</g>
</g>
</svg>
