<?xml version="1.0" encoding="UTF-8" standalone="no"?>
<!DOCTYPE svg PUBLIC "-//W3C//DTD SVG 1.1//EN"
 "http://www.w3.org/Graphics/SVG/1.1/DTD/svg11.dtd">
<!-- Generated by graphviz version 2.38.0 (20140413.2041)
 -->
<!-- Title: QtPassSettings::isUseTrayIcon Pages: 1 -->
<!--zoomable 64 -->
<svg id="main" version="1.1" xmlns="http://www.w3.org/2000/svg" xmlns:xlink="http://www.w3.org/1999/xlink" xml:space="preserve" onload="init(evt)">
<style type="text/css"><![CDATA[
.edge:hover path { stroke: red; }
.edge:hover polygon { stroke: red; fill: red; }
]]></style>
<script type="text/javascript"><![CDATA[
var edges = document.getElementsByTagName('g');
if (edges && edges.length) {
  for (var i=0;i<edges.length;i++) {
    if (edges[i].id.substr(0,4)=='edge') {
      edges[i].setAttribute('class','edge');
    }
  }
}
]]></script>
        <defs>
                <circle id="rim" cx="0" cy="0" r="7"/>
                <circle id="rim2" cx="0" cy="0" r="3.5"/>
                <g id="zoomPlus">
                        <use xlink:href="#rim" fill="#404040">
                                <set attributeName="fill" to="#808080" begin="zoomplus.mouseover" end="zoomplus.mouseout"/>
                        </use>
                        <path d="M-4,0h8M0,-4v8" fill="none" stroke="white" stroke-width="1.5" pointer-events="none"/>
                </g>
                <g id="zoomMin">
                        <use xlink:href="#rim" fill="#404040">
                                <set attributeName="fill" to="#808080" begin="zoomminus.mouseover" end="zoomminus.mouseout"/>
                        </use>
                        <path d="M-4,0h8" fill="none" stroke="white" stroke-width="1.5" pointer-events="none"/>
                </g>
                <g id="dirArrow">
                        <path fill="none" stroke="white" stroke-width="1.5" d="M0,-3.0v7 M-2.5,-0.5L0,-3.0L2.5,-0.5"/>
                </g>
               <g id="resetDef">
                       <use xlink:href="#rim2" fill="#404040">
                               <set attributeName="fill" to="#808080" begin="reset.mouseover" end="reset.mouseout"/>
                       </use>
               </g>
        </defs>

<script type="text/javascript">
var viewWidth = 674;
var viewHeight = 64;
var sectionId = 'dynsection-49';
</script>
<script xlink:href="svgpan.js"/>
<svg id="graph" class="graph">
<g id="viewport">
<title>QtPassSettings::isUseTrayIcon</title>
<!-- Node432 -->
<g id="node1" class="node"><title>Node432</title>
<polygon fill="#bfbfbf" stroke="black" points="0,-19.5 0,-37.5 154.018,-37.5 154.018,-19.5 0,-19.5"/>
<text text-anchor="middle" x="77.0088" y="-25.5" font-family="Helvetica,sans-Serif" font-size="10.00">QtPassSettings::isUseTrayIcon</text>
</g>
<!-- Node433 -->
<g id="node2" class="node"><title>Node433</title>
<g id="a_node2"><a xlink:href="class_main_window.html#a23d2783cb61a373c4b0127970264290a" target="_top" xlink:title="MainWindow::checkConfig make sure we are ready to go as soon as possible. ">
<polygon fill="none" stroke="black" points="345.672,-37.5 345.672,-55.5 479.5,-55.5 479.5,-37.5 345.672,-37.5"/>
<text text-anchor="middle" x="412.586" y="-43.5" font-family="Helvetica,sans-Serif" font-size="10.00">MainWindow::checkConfig</text>
</a>
</g>
</g>
<!-- Node432&#45;&gt;Node433 -->
<g id="edge1" class="edge"><title>Node432&#45;&gt;Node433</title>
<path fill="none" stroke="midnightblue" d="M164.131,-33.1472C220.736,-36.2017 293.669,-40.1371 345.661,-42.9427"/>
<polygon fill="midnightblue" stroke="midnightblue" points="164.294,-29.651 154.12,-32.607 163.917,-36.6408 164.294,-29.651"/>
</g>
<!-- Node435 -->
<g id="node4" class="node"><title>Node435</title>
<g id="a_node4"><a xlink:href="class_main_window.html#aeb8091ab5531144b76c1fbb0d63deb56" target="_top" xlink:title="MainWindow::config pops up the configuration screen and handles all inter&#45;window communication. ">
<polygon fill="none" stroke="black" points="190.018,-0.5 190.018,-18.5 295.5,-18.5 295.5,-0.5 190.018,-0.5"/>
<text text-anchor="middle" x="242.759" y="-6.5" font-family="Helvetica,sans-Serif" font-size="10.00">MainWindow::config</text>
</a>
</g>
</g>
<!-- Node432&#45;&gt;Node435 -->
<g id="edge3" class="edge"><title>Node432&#45;&gt;Node435</title>
<path fill="none" stroke="midnightblue" d="M164.295,-18.4882C172.947,-17.4842 181.534,-16.488 189.666,-15.5444"/>
<polygon fill="midnightblue" stroke="midnightblue" points="163.661,-15.0381 154.131,-19.6675 164.468,-21.9915 163.661,-15.0381"/>
</g>
<!-- Node434 -->
<g id="node3" class="node"><title>Node434</title>
<g id="a_node3"><a xlink:href="class_main_window.html#a8b244be8b7b7db1b08de2a2acb9409db" target="_top" xlink:title="MainWindow::MainWindow handles all of the main functionality and also the main window. ">
<polygon fill="none" stroke="black" points="529.672,-37.5 529.672,-55.5 665.711,-55.5 665.711,-37.5 529.672,-37.5"/>
<text text-anchor="middle" x="597.691" y="-43.5" font-family="Helvetica,sans-Serif" font-size="10.00">MainWindow::MainWindow</text>
</a>
</g>
</g>
<!-- Node433&#45;&gt;Node434 -->
<g id="edge2" class="edge"><title>Node433&#45;&gt;Node434</title>
<path fill="none" stroke="midnightblue" d="M490.066,-46.5C503.142,-46.5 516.639,-46.5 529.452,-46.5"/>
<polygon fill="midnightblue" stroke="midnightblue" points="489.691,-43.0001 479.691,-46.5 489.691,-50.0001 489.691,-43.0001"/>
</g>
<!-- Node435&#45;&gt;Node433 -->
<g id="edge4" class="edge"><title>Node435&#45;&gt;Node433</title>
<path fill="none" stroke="midnightblue" d="M294.603,-20.7093C318.961,-26.0794 347.744,-32.4251 370.664,-37.4782"/>
<polygon fill="midnightblue" stroke="midnightblue" points="295.333,-17.2863 284.814,-18.5512 293.826,-24.1222 295.333,-17.2863"/>
</g>
<!-- Node436 -->
<g id="node5" class="node"><title>Node436</title>
<g id="a_node5"><a xlink:href="class_main_window.html#a4680b2cbcfd388683a98303f29c0f84f" target="_top" xlink:title="MainWindow::executePassGitInit git init wrapper. ">
<polygon fill="none" stroke="black" points="331.5,-0.5 331.5,-18.5 493.672,-18.5 493.672,-0.5 331.5,-0.5"/>
<text text-anchor="middle" x="412.586" y="-6.5" font-family="Helvetica,sans-Serif" font-size="10.00">MainWindow::executePassGitInit</text>
</a>
</g>
</g>
<!-- Node435&#45;&gt;Node436 -->
<g id="edge5" class="edge"><title>Node435&#45;&gt;Node436</title>
<path fill="none" stroke="midnightblue" d="M306.177,-9.5C314.404,-9.5 322.927,-9.5 331.399,-9.5"/>
<polygon fill="midnightblue" stroke="midnightblue" points="305.94,-6.0001 295.94,-9.5 305.94,-13.0001 305.94,-6.0001"/>
</g>
<!-- Node437 -->
<g id="node6" class="node"><title>Node437</title>
<g id="a_node6"><a xlink:href="class_config_dialog.html#ad5b80066591f19fdaaa06b7cb5ba7f15" target="_top" xlink:title="ConfigDialog::wizard first&#45;time use wizard. ">
<polygon fill="none" stroke="black" points="543.837,-0.5 543.837,-18.5 651.546,-18.5 651.546,-0.5 543.837,-0.5"/>
<text text-anchor="middle" x="597.691" y="-6.5" font-family="Helvetica,sans-Serif" font-size="10.00">ConfigDialog::wizard</text>
</a>
</g>
</g>
<!-- Node436&#45;&gt;Node437 -->
<g id="edge6" class="edge"><title>Node436&#45;&gt;Node437</title>
<path fill="none" stroke="midnightblue" d="M504.19,-9.5C517.68,-9.5 531.198,-9.5 543.571,-9.5"/>
<polygon fill="midnightblue" stroke="midnightblue" points="503.899,-6.0001 493.899,-9.5 503.899,-13.0001 503.899,-6.0001"/>
</g>
</g>
</svg>
        <g id="navigator" transform="translate(0 0)" fill="#404254">
                <rect fill="#f2f5e9" fill-opacity="0.5" stroke="#606060" stroke-width=".5" x="0" y="0" width="60" height="60"/>
                <use id="zoomplus" xlink:href="#zoomPlus" x="17" y="9" onmousedown="handleZoom(evt,'in')"/>
                <use id="zoomminus" xlink:href="#zoomMin" x="42" y="9" onmousedown="handleZoom(evt,'out')"/>
                <use id="reset" xlink:href="#resetDef" x="30" y="36" onmousedown="handleReset()"/>
                <g id="arrowUp" xlink:href="#dirArrow" transform="translate(30 24)" onmousedown="handlePan(0,-1)">
                  <use xlink:href="#rim" fill="#404040">
                        <set attributeName="fill" to="#808080" begin="arrowUp.mouseover" end="arrowUp.mouseout"/>
                  </use>
                  <path fill="none" stroke="white" stroke-width="1.5" d="M0,-3.0v7 M-2.5,-0.5L0,-3.0L2.5,-0.5"/>
                </g>
                <g id="arrowRight" xlink:href="#dirArrow" transform="rotate(90) translate(36 -43)" onmousedown="handlePan(1,0)">
                  <use xlink:href="#rim" fill="#404040">
                        <set attributeName="fill" to="#808080" begin="arrowRight.mouseover" end="arrowRight.mouseout"/>
                  </use>
                  <path fill="none" stroke="white" stroke-width="1.5" d="M0,-3.0v7 M-2.5,-0.5L0,-3.0L2.5,-0.5"/>
                </g>
                <g id="arrowDown" xlink:href="#dirArrow" transform="rotate(180) translate(-30 -48)" onmousedown="handlePan(0,1)">
                  <use xlink:href="#rim" fill="#404040">
                        <set attributeName="fill" to="#808080" begin="arrowDown.mouseover" end="arrowDown.mouseout"/>
                  </use>
                  <path fill="none" stroke="white" stroke-width="1.5" d="M0,-3.0v7 M-2.5,-0.5L0,-3.0L2.5,-0.5"/>
                </g>
                <g id="arrowLeft" xlink:href="#dirArrow" transform="rotate(270) translate(-36 17)" onmousedown="handlePan(-1,0)">
                  <use xlink:href="#rim" fill="#404040">
                        <set attributeName="fill" to="#808080" begin="arrowLeft.mouseover" end="arrowLeft.mouseout"/>
                  </use>
                  <path fill="none" stroke="white" stroke-width="1.5" d="M0,-3.0v7 M-2.5,-0.5L0,-3.0L2.5,-0.5"/>
                </g>
        </g>
        <svg viewBox="0 0 15 15" width="100%" height="30px" preserveAspectRatio="xMaxYMin meet">
         <g id="arrow_out" transform="scale(0.3 0.3)">
          <a xlink:href="class_qt_pass_settings_a5b746d0ca47ae638a2fdb2e27b281ec0_icgraph_org.svg" target="_base">
           <rect id="button" ry="5" rx="5" y="6" x="6" height="38" width="38"
                fill="#f2f5e9" fill-opacity="0.5" stroke="#606060" stroke-width="1.0"/>
           <path id="arrow"
             d="M 11.500037,31.436501 C 11.940474,20.09759 22.043105,11.32322 32.158766,21.979434 L 37.068811,17.246167 C 37.068811,17.246167 37.088388,32 37.088388,32 L 22.160133,31.978069 C 22.160133,31.978069 26.997745,27.140456 26.997745,27.140456 C 18.528582,18.264221 13.291696,25.230495 11.500037,31.436501 z"
             style="fill:#404040;"/>
          </a>
         </g>
        </svg>
</svg>
