<?xml version="1.0" encoding="UTF-8" standalone="no"?>
<!DOCTYPE svg PUBLIC "-//W3C//DTD SVG 1.1//EN"
 "http://www.w3.org/Graphics/SVG/1.1/DTD/svg11.dtd">
<!-- Generated by graphviz version 2.43.0 (0)
 -->
<!-- Title: PasswordDialog::PasswordDialog Pages: 1 -->
<svg width="754pt" height="212pt"
 viewBox="0.00 0.00 754.00 212.00" xmlns="http://www.w3.org/2000/svg" xmlns:xlink="http://www.w3.org/1999/xlink">
<g id="graph0" class="graph" transform="scale(1 1) rotate(0) translate(4 208)">
<title>PasswordDialog::PasswordDialog</title>
<!-- Node1 -->
<g id="Node000001" class="node">
<title>Node1</title>
<g id="a_Node000001"><a xlink:title="PasswordDialog::PasswordDialog basic constructor.">
<polygon fill="#999999" stroke="#666666" points="146,-135.5 0,-135.5 0,-105.5 146,-105.5 146,-135.5"/>
<text text-anchor="start" x="8" y="-123.5" font-family="Helvetica,sans-Serif" font-size="10.00">PasswordDialog::Password</text>
<text text-anchor="middle" x="73" y="-112.5" font-family="Helvetica,sans-Serif" font-size="10.00">Dialog</text>
</a>
</g>
</g>
<!-- Node2 -->
<g id="Node000002" class="node">
<title>Node2</title>
<g id="a_Node000002"><a xlink:href="class_pass.html#a24cdfb567ab68940f2a823704e2ab1ba" target="_top" xlink:title="Emitted when show finishes.">
<polygon fill="white" stroke="#666666" points="317,-204 208,-204 208,-185 317,-185 317,-204"/>
<text text-anchor="middle" x="262.5" y="-192" font-family="Helvetica,sans-Serif" font-size="10.00">Pass::finishedShow</text>
</a>
</g>
</g>
<!-- Node1&#45;&gt;Node2 -->
<g id="edge1_Node000001_Node000002" class="edge">
<title>Node1&#45;&gt;Node2</title>
<g id="a_edge1_Node000001_Node000002"><a xlink:title=" ">
<path fill="none" stroke="#63b8ff" d="M98.49,-135.51C119.85,-148.03 152.05,-165.55 182,-176.5 187.93,-178.67 194.21,-180.63 200.54,-182.39"/>
<polygon fill="#63b8ff" stroke="#63b8ff" points="199.91,-185.84 210.47,-184.98 201.68,-179.07 199.91,-185.84"/>
</a>
</g>
</g>
<!-- Node3 -->
<g id="Node000003" class="node">
<title>Node3</title>
<g id="a_Node000003"><a xlink:href="class_qt_pass_settings.html#a34ba20416835e4de168d4c66f9076b2b" target="_top" xlink:title="Get currently active pass backend instance.">
<polygon fill="white" stroke="#666666" points="329,-167 196,-167 196,-148 329,-148 329,-167"/>
<text text-anchor="middle" x="262.5" y="-155" font-family="Helvetica,sans-Serif" font-size="10.00">QtPassSettings::getPass</text>
</a>
</g>
</g>
<!-- Node1&#45;&gt;Node3 -->
<g id="edge2_Node000001_Node000003" class="edge">
<title>Node1&#45;&gt;Node3</title>
<g id="a_edge2_Node000001_Node000003"><a xlink:title=" ">
<path fill="none" stroke="#63b8ff" d="M146.22,-134.75C165.03,-138.46 185.05,-142.41 203.04,-145.96"/>
<polygon fill="#63b8ff" stroke="#63b8ff" points="202.6,-149.44 213.09,-147.95 203.95,-142.58 202.6,-149.44"/>
</a>
</g>
</g>
<!-- Node4 -->
<g id="Node000004" class="node">
<title>Node4</title>
<g id="a_Node000004"><a xlink:href="class_password_dialog.html#ac865a161a2be2d4837761a1305a71db9" target="_top" xlink:title="PasswordDialog::setLength PasswordDialog::setLength password length.">
<polygon fill="white" stroke="#666666" points="336.5,-130 188.5,-130 188.5,-111 336.5,-111 336.5,-130"/>
<text text-anchor="middle" x="262.5" y="-118" font-family="Helvetica,sans-Serif" font-size="10.00">PasswordDialog::setLength</text>
</a>
</g>
</g>
<!-- Node1&#45;&gt;Node4 -->
<g id="edge3_Node000001_Node000004" class="edge">
<title>Node1&#45;&gt;Node4</title>
<g id="a_edge3_Node000001_Node000004"><a xlink:title=" ">
<path fill="none" stroke="#63b8ff" d="M146.22,-120.5C156.7,-120.5 167.56,-120.5 178.23,-120.5"/>
<polygon fill="#63b8ff" stroke="#63b8ff" points="178.38,-124 188.38,-120.5 178.38,-117 178.38,-124"/>
</a>
</g>
</g>
<!-- Node5 -->
<g id="Node000005" class="node">
<title>Node5</title>
<g id="a_Node000005"><a xlink:href="class_password_dialog.html#aca023385bb581500a1e4a880a6283ad8" target="_top" xlink:title="Sets the password from pass show output.">
<polygon fill="white" stroke="#666666" points="331,-93 194,-93 194,-74 331,-74 331,-93"/>
<text text-anchor="middle" x="262.5" y="-81" font-family="Helvetica,sans-Serif" font-size="10.00">PasswordDialog::setPass</text>
</a>
</g>
</g>
<!-- Node1&#45;&gt;Node5 -->
<g id="edge4_Node000001_Node000005" class="edge">
<title>Node1&#45;&gt;Node5</title>
<g id="a_edge4_Node000001_Node000005"><a xlink:title=" ">
<path fill="none" stroke="#63b8ff" d="M146.22,-106.25C165.03,-102.54 185.05,-98.59 203.04,-95.04"/>
<polygon fill="#63b8ff" stroke="#63b8ff" points="203.95,-98.42 213.09,-93.05 202.6,-91.56 203.95,-98.42"/>
</a>
</g>
</g>
<!-- Node12 -->
<g id="Node000012" class="node">
<title>Node12</title>
<g id="a_Node000012"><a xlink:href="class_password_dialog.html#a19369fdb18d5b280aeadcd91245d9f6a" target="_top" xlink:title="PasswordDialog::setPasswordCharTemplate PasswordDialog::setPasswordCharTemplate chose the template st...">
<polygon fill="white" stroke="#666666" points="343,-55.5 182,-55.5 182,-25.5 343,-25.5 343,-55.5"/>
<text text-anchor="start" x="190" y="-43.5" font-family="Helvetica,sans-Serif" font-size="10.00">PasswordDialog::setPassword</text>
<text text-anchor="middle" x="262.5" y="-32.5" font-family="Helvetica,sans-Serif" font-size="10.00">CharTemplate</text>
</a>
</g>
</g>
<!-- Node1&#45;&gt;Node12 -->
<g id="edge11_Node000001_Node000012" class="edge">
<title>Node1&#45;&gt;Node12</title>
<g id="a_edge11_Node000001_Node000012"><a xlink:title=" ">
<path fill="none" stroke="#63b8ff" d="M100.49,-105.44C122.01,-93.6 153.37,-77.2 182,-65.5 187.71,-63.17 193.73,-60.92 199.79,-58.79"/>
<polygon fill="#63b8ff" stroke="#63b8ff" points="200.97,-62.08 209.31,-55.54 198.72,-55.45 200.97,-62.08"/>
</a>
</g>
</g>
<!-- Node6 -->
<g id="Node000006" class="node">
<title>Node6</title>
<g id="a_Node000006"><a xlink:href="class_password_dialog.html#a2beae0dab7b339ce55d7f2bebe80a172" target="_top" xlink:title="Sets content in the password field in the interface.">
<polygon fill="white" stroke="#666666" points="540,-93 379,-93 379,-74 540,-74 540,-93"/>
<text text-anchor="middle" x="459.5" y="-81" font-family="Helvetica,sans-Serif" font-size="10.00">PasswordDialog::setPassword</text>
</a>
</g>
</g>
<!-- Node5&#45;&gt;Node6 -->
<g id="edge5_Node000005_Node000006" class="edge">
<title>Node5&#45;&gt;Node6</title>
<g id="a_edge5_Node000005_Node000006"><a xlink:title=" ">
<path fill="none" stroke="#63b8ff" d="M331.15,-83.5C343.31,-83.5 356.14,-83.5 368.8,-83.5"/>
<polygon fill="#63b8ff" stroke="#63b8ff" points="368.9,-87 378.9,-83.5 368.9,-80 368.9,-87"/>
</a>
</g>
</g>
<!-- Node7 -->
<g id="Node000007" class="node">
<title>Node7</title>
<g id="a_Node000007"><a xlink:href="class_file_content.html#a89393e371a598cb3e0d7d149dbc431b1" target="_top" xlink:title="Gets named value pairs from the parsed file.">
<polygon fill="white" stroke="#666666" points="741.5,-167 580.5,-167 580.5,-148 741.5,-148 741.5,-167"/>
<text text-anchor="middle" x="661" y="-155" font-family="Helvetica,sans-Serif" font-size="10.00">FileContent::getNamedValues</text>
</a>
</g>
</g>
<!-- Node6&#45;&gt;Node7 -->
<g id="edge6_Node000006_Node000007" class="edge">
<title>Node6&#45;&gt;Node7</title>
<g id="a_edge6_Node000006_Node000007"><a xlink:title=" ">
<path fill="none" stroke="#63b8ff" d="M477.17,-93.17C499.15,-105.55 539.33,-126.89 576,-139.5 582.44,-141.72 589.26,-143.71 596.12,-145.5"/>
<polygon fill="#63b8ff" stroke="#63b8ff" points="595.6,-148.98 606.15,-147.97 597.27,-142.18 595.6,-148.98"/>
</a>
</g>
</g>
<!-- Node8 -->
<g id="Node000008" class="node">
<title>Node8</title>
<g id="a_Node000008"><a xlink:href="class_file_content.html#ac88e8096551d24a41fc0625a4d903139" target="_top" xlink:title="Gets the password from the parsed file.">
<polygon fill="white" stroke="#666666" points="731,-130 591,-130 591,-111 731,-111 731,-130"/>
<text text-anchor="middle" x="661" y="-118" font-family="Helvetica,sans-Serif" font-size="10.00">FileContent::getPassword</text>
</a>
</g>
</g>
<!-- Node6&#45;&gt;Node8 -->
<g id="edge7_Node000006_Node000008" class="edge">
<title>Node6&#45;&gt;Node8</title>
<g id="a_edge7_Node000006_Node000008"><a xlink:title=" ">
<path fill="none" stroke="#63b8ff" d="M511.88,-93.03C538.3,-97.93 570.7,-103.94 598.46,-109.09"/>
<polygon fill="#63b8ff" stroke="#63b8ff" points="597.98,-112.56 608.45,-110.94 599.26,-105.67 597.98,-112.56"/>
</a>
</g>
</g>
<!-- Node9 -->
<g id="Node000009" class="node">
<title>Node9</title>
<g id="a_Node000009"><a xlink:href="class_file_content.html#a845c61a8c0f52e5aa73953c9162dd47d" target="_top" xlink:title="Gets remaining data not in named values.">
<polygon fill="white" stroke="#666666" points="746,-93 576,-93 576,-74 746,-74 746,-93"/>
<text text-anchor="middle" x="661" y="-81" font-family="Helvetica,sans-Serif" font-size="10.00">FileContent::getRemainingData</text>
</a>
</g>
</g>
<!-- Node6&#45;&gt;Node9 -->
<g id="edge8_Node000006_Node000009" class="edge">
<title>Node6&#45;&gt;Node9</title>
<g id="a_edge8_Node000006_Node000009"><a xlink:title=" ">
<path fill="none" stroke="#63b8ff" d="M540.21,-83.5C548.63,-83.5 557.26,-83.5 565.83,-83.5"/>
<polygon fill="#63b8ff" stroke="#63b8ff" points="565.84,-87 575.84,-83.5 565.84,-80 565.84,-87"/>
</a>
</g>
</g>
<!-- Node10 -->
<g id="Node000010" class="node">
<title>Node10</title>
<g id="a_Node000010"><a xlink:href="class_file_content.html#addf22b7136ee26d2f14bb77dc49c1510" target="_top" xlink:title="parse parses the given fileContent in a FileContent object. The password is accessible through getPas...">
<polygon fill="white" stroke="#666666" points="713.5,-56 608.5,-56 608.5,-37 713.5,-37 713.5,-56"/>
<text text-anchor="middle" x="661" y="-44" font-family="Helvetica,sans-Serif" font-size="10.00">FileContent::parse</text>
</a>
</g>
</g>
<!-- Node6&#45;&gt;Node10 -->
<g id="edge9_Node000006_Node000010" class="edge">
<title>Node6&#45;&gt;Node10</title>
<g id="a_edge9_Node000006_Node000010"><a xlink:title=" ">
<path fill="none" stroke="#63b8ff" d="M511.88,-73.97C538.3,-69.07 570.7,-63.06 598.46,-57.91"/>
<polygon fill="#63b8ff" stroke="#63b8ff" points="599.26,-61.33 608.45,-56.06 597.98,-54.44 599.26,-61.33"/>
</a>
</g>
</g>
<!-- Node11 -->
<g id="Node000011" class="node">
<title>Node11</title>
<g id="a_Node000011"><a xlink:href="class_named_values.html#a427d280bd24b10d9a5b627b1fa4b5f4b" target="_top" xlink:title="Finds and removes a named value by name.">
<polygon fill="white" stroke="#666666" points="730,-19 592,-19 592,0 730,0 730,-19"/>
<text text-anchor="middle" x="661" y="-7" font-family="Helvetica,sans-Serif" font-size="10.00">NamedValues::takeValue</text>
</a>
</g>
</g>
<!-- Node6&#45;&gt;Node11 -->
<g id="edge10_Node000006_Node000011" class="edge">
<title>Node6&#45;&gt;Node11</title>
<g id="a_edge10_Node000006_Node000011"><a xlink:title=" ">
<path fill="none" stroke="#63b8ff" d="M477.6,-73.87C499.71,-61.77 539.69,-41.08 576,-28.5 583.53,-25.89 591.57,-23.54 599.58,-21.46"/>
<polygon fill="#63b8ff" stroke="#63b8ff" points="600.43,-24.86 609.3,-19.06 598.75,-18.06 600.43,-24.86"/>
</a>
</g>
</g>
</g>
</svg>
