<?xml version="1.0" encoding="UTF-8" standalone="no"?>
<!DOCTYPE svg PUBLIC "-//W3C//DTD SVG 1.1//EN"
 "http://www.w3.org/Graphics/SVG/1.1/DTD/svg11.dtd">
<!-- Generated by graphviz version 2.43.0 (0)
 -->
<!-- Title: ImitatePass::verifyGpgIdFile Pages: 1 -->
<svg width="656pt" height="114pt"
 viewBox="0.00 0.00 656.00 113.50" xmlns="http://www.w3.org/2000/svg" xmlns:xlink="http://www.w3.org/1999/xlink">
<g id="graph0" class="graph" transform="scale(1 1) rotate(0) translate(4 109.5)">
<title>ImitatePass::verifyGpgIdFile</title>
<!-- Node1 -->
<g id="Node000001" class="node">
<title>Node1</title>
<g id="a_Node000001"><a xlink:title="Verify .gpg&#45;id file exists and is valid.">
<polygon fill="#999999" stroke="#666666" points="648,-67.5 495,-67.5 495,-48.5 648,-48.5 648,-67.5"/>
<text text-anchor="middle" x="571.5" y="-55.5" font-family="Helvetica,sans-Serif" font-size="10.00">ImitatePass::verifyGpgIdFile</text>
</a>
</g>
</g>
<!-- Node2 -->
<g id="Node000002" class="node">
<title>Node2</title>
<g id="a_Node000002"><a xlink:href="class_imitate_pass.html#a84de97293ca1a100b1e466b4a79ec601" target="_top" xlink:title="Insert new password.">
<polygon fill="white" stroke="#666666" points="444.5,-105.5 337.5,-105.5 337.5,-86.5 444.5,-86.5 444.5,-105.5"/>
<text text-anchor="middle" x="391" y="-93.5" font-family="Helvetica,sans-Serif" font-size="10.00">ImitatePass::Insert</text>
</a>
</g>
</g>
<!-- Node1&#45;&gt;Node2 -->
<g id="edge1_Node000001_Node000002" class="edge">
<title>Node1&#45;&gt;Node2</title>
<g id="a_edge1_Node000001_Node000002"><a xlink:title=" ">
<path fill="none" stroke="#63b8ff" d="M515.63,-69.68C490.32,-75.07 460.65,-81.39 436.72,-86.48"/>
<polygon fill="#63b8ff" stroke="#63b8ff" points="516.4,-73.09 525.46,-67.59 514.95,-66.25 516.4,-73.09"/>
</a>
</g>
</g>
<!-- Node3 -->
<g id="Node000003" class="node">
<title>Node3</title>
<g id="a_Node000003"><a xlink:href="class_imitate_pass.html#aa6163e2dd259c8f69d0cead7551b573a" target="_top" xlink:title="Sign .gpg&#45;id file with signing keys.">
<polygon fill="white" stroke="#666666" points="286.5,-65.5 140.5,-65.5 140.5,-46.5 286.5,-46.5 286.5,-65.5"/>
<text text-anchor="middle" x="213.5" y="-53.5" font-family="Helvetica,sans-Serif" font-size="10.00">ImitatePass::signGpgIdFile</text>
</a>
</g>
</g>
<!-- Node1&#45;&gt;Node3 -->
<g id="edge2_Node000001_Node000003" class="edge">
<title>Node1&#45;&gt;Node3</title>
<g id="a_edge2_Node000001_Node000003"><a xlink:title=" ">
<path fill="none" stroke="#63b8ff" d="M484.27,-57.52C423.77,-57.18 343.8,-56.73 286.67,-56.41"/>
<polygon fill="#63b8ff" stroke="#63b8ff" points="484.55,-61.02 494.57,-57.57 484.59,-54.02 484.55,-61.02"/>
</a>
</g>
</g>
<!-- Node5 -->
<g id="Node000005" class="node">
<title>Node5</title>
<g id="a_Node000005"><a xlink:href="class_imitate_pass.html#a7af6102fa60b3267bd1e387e7cfd82af" target="_top" xlink:title="Verify .gpg&#45;id file for a directory.">
<polygon fill="white" stroke="#666666" points="459,-30 323,-30 323,0 459,0 459,-30"/>
<text text-anchor="start" x="331" y="-18" font-family="Helvetica,sans-Serif" font-size="10.00">ImitatePass::verifyGpgId</text>
<text text-anchor="middle" x="391" y="-7" font-family="Helvetica,sans-Serif" font-size="10.00">ForDir</text>
</a>
</g>
</g>
<!-- Node1&#45;&gt;Node5 -->
<g id="edge4_Node000001_Node000005" class="edge">
<title>Node1&#45;&gt;Node5</title>
<g id="a_edge4_Node000001_Node000005"><a xlink:title=" ">
<path fill="none" stroke="#63b8ff" d="M521.06,-46.09C500.39,-41.11 476.15,-35.27 454.29,-30.01"/>
<polygon fill="#63b8ff" stroke="#63b8ff" points="520.34,-49.52 530.89,-48.46 521.98,-42.71 520.34,-49.52"/>
</a>
</g>
</g>
<!-- Node4 -->
<g id="Node000004" class="node">
<title>Node4</title>
<g id="a_Node000004"><a xlink:href="class_imitate_pass.html#a6fe6b48df3fb04071c8c2c1d5c1d1206" target="_top" xlink:title="Initialize store.">
<polygon fill="white" stroke="#666666" points="99.5,-64.5 4.5,-64.5 4.5,-45.5 99.5,-45.5 99.5,-64.5"/>
<text text-anchor="middle" x="52" y="-52.5" font-family="Helvetica,sans-Serif" font-size="10.00">ImitatePass::Init</text>
</a>
</g>
</g>
<!-- Node3&#45;&gt;Node4 -->
<g id="edge3_Node000003_Node000004" class="edge">
<title>Node3&#45;&gt;Node4</title>
<g id="a_edge3_Node000003_Node000004"><a xlink:title=" ">
<path fill="none" stroke="#63b8ff" d="M129.92,-55.48C119.63,-55.42 109.39,-55.35 99.91,-55.29"/>
<polygon fill="#63b8ff" stroke="#63b8ff" points="130.2,-58.98 140.22,-55.55 130.24,-51.98 130.2,-58.98"/>
</a>
</g>
</g>
<!-- Node6 -->
<g id="Node000006" class="node">
<title>Node6</title>
<g id="a_Node000006"><a xlink:href="class_imitate_pass.html#af331446d163c31f1fca714646c0f6244" target="_top" xlink:title="Re&#45;encrypt entire directory.">
<polygon fill="white" stroke="#666666" points="287,-27.5 140,-27.5 140,-8.5 287,-8.5 287,-27.5"/>
<text text-anchor="middle" x="213.5" y="-15.5" font-family="Helvetica,sans-Serif" font-size="10.00">ImitatePass::reencryptPath</text>
</a>
</g>
</g>
<!-- Node5&#45;&gt;Node6 -->
<g id="edge5_Node000005_Node000006" class="edge">
<title>Node5&#45;&gt;Node6</title>
<g id="a_edge5_Node000005_Node000006"><a xlink:title=" ">
<path fill="none" stroke="#63b8ff" d="M312.64,-16.32C304.15,-16.47 295.54,-16.61 287.11,-16.76"/>
<polygon fill="#63b8ff" stroke="#63b8ff" points="312.96,-19.82 322.9,-16.15 312.84,-12.82 312.96,-19.82"/>
</a>
</g>
</g>
<!-- Node6&#45;&gt;Node4 -->
<g id="edge7_Node000006_Node000004" class="edge">
<title>Node6&#45;&gt;Node4</title>
<g id="a_edge7_Node000006_Node000004"><a xlink:title=" ">
<path fill="none" stroke="#63b8ff" d="M161.68,-29.79C139.91,-34.84 114.8,-40.66 94.21,-45.44"/>
<polygon fill="#63b8ff" stroke="#63b8ff" points="162.47,-33.2 171.42,-27.53 160.89,-26.38 162.47,-33.2"/>
</a>
</g>
</g>
<!-- Node7 -->
<g id="Node000007" class="node">
<title>Node7</title>
<g id="a_Node000007"><a xlink:href="class_imitate_pass.html#a97538d83d4f6a583f840db0865e8609a" target="_top" xlink:title="Copy password file.">
<polygon fill="white" stroke="#666666" points="104,-27.5 0,-27.5 0,-8.5 104,-8.5 104,-27.5"/>
<text text-anchor="middle" x="52" y="-15.5" font-family="Helvetica,sans-Serif" font-size="10.00">ImitatePass::Copy</text>
</a>
</g>
</g>
<!-- Node6&#45;&gt;Node7 -->
<g id="edge6_Node000006_Node000007" class="edge">
<title>Node6&#45;&gt;Node7</title>
<g id="a_edge6_Node000006_Node000007"><a xlink:title=" ">
<path fill="none" stroke="#63b8ff" d="M129.6,-18C120.96,-18 112.36,-18 104.22,-18"/>
<polygon fill="#63b8ff" stroke="#63b8ff" points="129.75,-21.5 139.75,-18 129.75,-14.5 129.75,-21.5"/>
</a>
</g>
</g>
</g>
</svg>
