<?xml version="1.0" encoding="UTF-8" standalone="no"?>
<!DOCTYPE svg PUBLIC "-//W3C//DTD SVG 1.1//EN"
 "http://www.w3.org/Graphics/SVG/1.1/DTD/svg11.dtd">
<!-- Generated by graphviz version 2.43.0 (0)
 -->
<!-- Title: ImitatePass::verifyGpgIdForDir Pages: 1 -->
<svg width="903pt" height="178pt"
 viewBox="0.00 0.00 903.00 178.00" xmlns="http://www.w3.org/2000/svg" xmlns:xlink="http://www.w3.org/1999/xlink">
<g id="graph0" class="graph" transform="scale(1 1) rotate(0) translate(4 174)">
<title>ImitatePass::verifyGpgIdForDir</title>
<!-- Node1 -->
<g id="Node000001" class="node">
<title>Node1</title>
<g id="a_Node000001"><a xlink:title="Verify .gpg&#45;id file for a directory.">
<polygon fill="#999999" stroke="#666666" points="136,-118.5 0,-118.5 0,-88.5 136,-88.5 136,-118.5"/>
<text text-anchor="start" x="8" y="-106.5" font-family="Helvetica,sans-Serif" font-size="10.00">ImitatePass::verifyGpgId</text>
<text text-anchor="middle" x="68" y="-95.5" font-family="Helvetica,sans-Serif" font-size="10.00">ForDir</text>
</a>
</g>
</g>
<!-- Node2 -->
<g id="Node000002" class="node">
<title>Node2</title>
<g id="a_Node000002"><a xlink:href="class_pass.html#a0eafb54675479378ec98307f0e4fff65" target="_top" xlink:title="Emit critical error.">
<polygon fill="white" stroke="#666666" points="272,-170 195,-170 195,-151 272,-151 272,-170"/>
<text text-anchor="middle" x="233.5" y="-158" font-family="Helvetica,sans-Serif" font-size="10.00">Pass::critical</text>
</a>
</g>
</g>
<!-- Node1&#45;&gt;Node2 -->
<g id="edge1_Node000001_Node000002" class="edge">
<title>Node1&#45;&gt;Node2</title>
<g id="a_edge1_Node000001_Node000002"><a xlink:title=" ">
<path fill="none" stroke="#63b8ff" d="M112.39,-118.63C138.16,-127.61 170.52,-138.89 195.15,-147.48"/>
<polygon fill="#63b8ff" stroke="#63b8ff" points="194.26,-150.88 204.86,-150.86 196.57,-144.27 194.26,-150.88"/>
</a>
</g>
</g>
<!-- Node3 -->
<g id="Node000003" class="node">
<title>Node3</title>
<g id="a_Node000003"><a xlink:href="class_pass.html#a7bab4c97e4a327cc34060a67c09959bf" target="_top" xlink:title="Get .gpg&#45;id file path for a password file.">
<polygon fill="white" stroke="#666666" points="462.5,-130 352.5,-130 352.5,-111 462.5,-111 462.5,-130"/>
<text text-anchor="middle" x="407.5" y="-118" font-family="Helvetica,sans-Serif" font-size="10.00">Pass::getGpgIdPath</text>
</a>
</g>
</g>
<!-- Node1&#45;&gt;Node3 -->
<g id="edge2_Node000001_Node000003" class="edge">
<title>Node1&#45;&gt;Node3</title>
<g id="a_edge2_Node000001_Node000003"><a xlink:title=" ">
<path fill="none" stroke="#63b8ff" d="M136.08,-106.88C195.93,-109.89 282.97,-114.28 342.01,-117.25"/>
<polygon fill="#63b8ff" stroke="#63b8ff" points="342.17,-120.76 352.33,-117.77 342.52,-113.77 342.17,-120.76"/>
</a>
</g>
</g>
<!-- Node6 -->
<g id="Node000006" class="node">
<title>Node6</title>
<g id="a_Node000006"><a xlink:href="class_pass.html#a693825d2ad62813cf103860ef6211370" target="_top" xlink:title="Get list of recipients for a password file.">
<polygon fill="white" stroke="#666666" points="295,-94 172,-94 172,-75 295,-75 295,-94"/>
<text text-anchor="middle" x="233.5" y="-82" font-family="Helvetica,sans-Serif" font-size="10.00">Pass::getRecipientList</text>
</a>
</g>
</g>
<!-- Node1&#45;&gt;Node6 -->
<g id="edge5_Node000001_Node000006" class="edge">
<title>Node1&#45;&gt;Node6</title>
<g id="a_edge5_Node000001_Node000006"><a xlink:title=" ">
<path fill="none" stroke="#63b8ff" d="M136.45,-95.66C144.76,-94.7 153.28,-93.71 161.65,-92.73"/>
<polygon fill="#63b8ff" stroke="#63b8ff" points="162.23,-96.19 171.75,-91.56 161.42,-89.24 162.23,-96.19"/>
</a>
</g>
</g>
<!-- Node8 -->
<g id="Node000008" class="node">
<title>Node8</title>
<g id="a_Node000008"><a xlink:href="class_imitate_pass.html#a6ecaa7d53d661362511354e96572c240" target="_top" xlink:title="Verify .gpg&#45;id file exists and is valid.">
<polygon fill="white" stroke="#666666" points="484,-56 331,-56 331,-37 484,-37 484,-56"/>
<text text-anchor="middle" x="407.5" y="-44" font-family="Helvetica,sans-Serif" font-size="10.00">ImitatePass::verifyGpgIdFile</text>
</a>
</g>
</g>
<!-- Node1&#45;&gt;Node8 -->
<g id="edge8_Node000001_Node000008" class="edge">
<title>Node1&#45;&gt;Node8</title>
<g id="a_edge8_Node000001_Node000008"><a xlink:title=" ">
<path fill="none" stroke="#63b8ff" d="M102.63,-88.44C122.43,-80.26 148.18,-70.76 172,-65.5 220.47,-54.81 275.77,-49.98 320.49,-47.87"/>
<polygon fill="#63b8ff" stroke="#63b8ff" points="320.91,-51.35 330.74,-47.42 320.6,-44.36 320.91,-51.35"/>
</a>
</g>
</g>
<!-- Node4 -->
<g id="Node000004" class="node">
<title>Node4</title>
<g id="a_Node000004"><a xlink:href="class_qt_pass_settings.html#a538e612e04fe934535e1f7525d55743c" target="_top" xlink:title="Get password store directory path.">
<polygon fill="white" stroke="#666666" points="692.5,-130 534.5,-130 534.5,-111 692.5,-111 692.5,-130"/>
<text text-anchor="middle" x="613.5" y="-118" font-family="Helvetica,sans-Serif" font-size="10.00">QtPassSettings::getPassStore</text>
</a>
</g>
</g>
<!-- Node3&#45;&gt;Node4 -->
<g id="edge3_Node000003_Node000004" class="edge">
<title>Node3&#45;&gt;Node4</title>
<g id="a_edge3_Node000003_Node000004"><a xlink:title=" ">
<path fill="none" stroke="#63b8ff" d="M462.63,-120.5C481.5,-120.5 503.19,-120.5 524.11,-120.5"/>
<polygon fill="#63b8ff" stroke="#63b8ff" points="524.3,-124 534.3,-120.5 524.3,-117 524.3,-124"/>
</a>
</g>
</g>
<!-- Node5 -->
<g id="Node000005" class="node">
<title>Node5</title>
<g id="a_Node000005"><a xlink:href="class_qt_pass_settings.html#a2483e7de01f9e312ee0fbf8a1637f29d" target="_top" xlink:title="Get the singleton instance.">
<polygon fill="white" stroke="#666666" points="895,-56 743,-56 743,-37 895,-37 895,-56"/>
<text text-anchor="middle" x="819" y="-44" font-family="Helvetica,sans-Serif" font-size="10.00">QtPassSettings::getInstance</text>
</a>
</g>
</g>
<!-- Node4&#45;&gt;Node5 -->
<g id="edge4_Node000004_Node000005" class="edge">
<title>Node4&#45;&gt;Node5</title>
<g id="a_edge4_Node000004_Node000005"><a xlink:title=" ">
<path fill="none" stroke="#63b8ff" d="M676.32,-110.92C686.69,-108.62 697.25,-105.84 707,-102.5 738.27,-91.8 771.85,-73.86 793.78,-61.18"/>
<polygon fill="#63b8ff" stroke="#63b8ff" points="795.58,-64.18 802.43,-56.1 792.03,-58.15 795.58,-64.18"/>
</a>
</g>
</g>
<!-- Node6&#45;&gt;Node3 -->
<g id="edge6_Node000006_Node000003" class="edge">
<title>Node6&#45;&gt;Node3</title>
<g id="a_edge6_Node000006_Node000003"><a xlink:title=" ">
<path fill="none" stroke="#63b8ff" d="M280.14,-94.05C301.9,-98.61 328.12,-104.09 351.02,-108.89"/>
<polygon fill="#63b8ff" stroke="#63b8ff" points="350.44,-112.34 360.94,-110.97 351.87,-105.49 350.44,-112.34"/>
</a>
</g>
</g>
<!-- Node7 -->
<g id="Node000007" class="node">
<title>Node7</title>
<g id="a_Node000007"><a xlink:href="class_util.html#aba7296e41ef990d5d945d5ed8cd99bd5" target="_top" xlink:title="Check if a string looks like a valid GPG key ID. Accepts:">
<polygon fill="white" stroke="#666666" points="457,-93 358,-93 358,-74 457,-74 457,-93"/>
<text text-anchor="middle" x="407.5" y="-81" font-family="Helvetica,sans-Serif" font-size="10.00">Util::isValidKeyId</text>
</a>
</g>
</g>
<!-- Node6&#45;&gt;Node7 -->
<g id="edge7_Node000006_Node000007" class="edge">
<title>Node6&#45;&gt;Node7</title>
<g id="a_edge7_Node000006_Node000007"><a xlink:title=" ">
<path fill="none" stroke="#63b8ff" d="M295.14,-84.15C312.12,-84.05 330.55,-83.94 347.44,-83.84"/>
<polygon fill="#63b8ff" stroke="#63b8ff" points="347.75,-87.34 357.73,-83.78 347.71,-80.34 347.75,-87.34"/>
</a>
</g>
</g>
<!-- Node9 -->
<g id="Node000009" class="node">
<title>Node9</title>
<g id="a_Node000009"><a xlink:href="class_executor.html#a4e210af42a76029683ded3210cf7bce2" target="_top" xlink:title="Executor::executeBlocking blocking version of the executor, takes input and presents it as stdin.">
<polygon fill="white" stroke="#666666" points="686,-93 541,-93 541,-74 686,-74 686,-93"/>
<text text-anchor="middle" x="613.5" y="-81" font-family="Helvetica,sans-Serif" font-size="10.00">Executor::executeBlocking</text>
</a>
</g>
</g>
<!-- Node8&#45;&gt;Node9 -->
<g id="edge9_Node000008_Node000009" class="edge">
<title>Node8&#45;&gt;Node9</title>
<g id="a_edge9_Node000008_Node000009"><a xlink:title=" ">
<path fill="none" stroke="#63b8ff" d="M461.04,-56.03C488.18,-60.95 521.48,-66.99 549.94,-72.15"/>
<polygon fill="#63b8ff" stroke="#63b8ff" points="549.32,-75.6 559.79,-73.94 550.57,-68.71 549.32,-75.6"/>
</a>
</g>
</g>
<!-- Node10 -->
<g id="Node000010" class="node">
<title>Node10</title>
<g id="a_Node000010"><a xlink:href="class_qt_pass_settings.html#a6d9beabe93c829cacdcc6c27792ffdba" target="_top" xlink:title="Get GPG executable path.">
<polygon fill="white" stroke="#666666" points="705.5,-56 521.5,-56 521.5,-37 705.5,-37 705.5,-56"/>
<text text-anchor="middle" x="613.5" y="-44" font-family="Helvetica,sans-Serif" font-size="10.00">QtPassSettings::getGpgExecutable</text>
</a>
</g>
</g>
<!-- Node8&#45;&gt;Node10 -->
<g id="edge10_Node000008_Node000010" class="edge">
<title>Node8&#45;&gt;Node10</title>
<g id="a_edge10_Node000008_Node000010"><a xlink:title=" ">
<path fill="none" stroke="#63b8ff" d="M484.17,-46.5C492.99,-46.5 502.08,-46.5 511.17,-46.5"/>
<polygon fill="#63b8ff" stroke="#63b8ff" points="511.42,-50 521.42,-46.5 511.42,-43 511.42,-50"/>
</a>
</g>
</g>
<!-- Node11 -->
<g id="Node000011" class="node">
<title>Node11</title>
<g id="a_Node000011"><a xlink:href="class_qt_pass_settings.html#a7b92ee036db63e5d2b49da826b5763ee" target="_top" xlink:title="Get GPG signing key for pass.">
<polygon fill="white" stroke="#666666" points="707,-19 520,-19 520,0 707,0 707,-19"/>
<text text-anchor="middle" x="613.5" y="-7" font-family="Helvetica,sans-Serif" font-size="10.00">QtPassSettings::getPassSigningKey</text>
</a>
</g>
</g>
<!-- Node8&#45;&gt;Node11 -->
<g id="edge12_Node000008_Node000011" class="edge">
<title>Node8&#45;&gt;Node11</title>
<g id="a_edge12_Node000008_Node000011"><a xlink:title=" ">
<path fill="none" stroke="#63b8ff" d="M461.04,-36.97C488.18,-32.05 521.48,-26.01 549.94,-20.85"/>
<polygon fill="#63b8ff" stroke="#63b8ff" points="550.57,-24.29 559.79,-19.06 549.32,-17.4 550.57,-24.29"/>
</a>
</g>
</g>
<!-- Node10&#45;&gt;Node5 -->
<g id="edge11_Node000010_Node000005" class="edge">
<title>Node10&#45;&gt;Node5</title>
<g id="a_edge11_Node000010_Node000005"><a xlink:title=" ">
<path fill="none" stroke="#63b8ff" d="M705.54,-46.5C714.61,-46.5 723.8,-46.5 732.81,-46.5"/>
<polygon fill="#63b8ff" stroke="#63b8ff" points="732.89,-50 742.89,-46.5 732.89,-43 732.89,-50"/>
</a>
</g>
</g>
<!-- Node11&#45;&gt;Node5 -->
<g id="edge13_Node000011_Node000005" class="edge">
<title>Node11&#45;&gt;Node5</title>
<g id="a_edge13_Node000011_Node000005"><a xlink:title=" ">
<path fill="none" stroke="#63b8ff" d="M666.91,-19.03C693.86,-23.93 726.91,-29.94 755.22,-35.09"/>
<polygon fill="#63b8ff" stroke="#63b8ff" points="754.95,-38.59 765.42,-36.94 756.21,-31.71 754.95,-38.59"/>
</a>
</g>
</g>
</g>
</svg>
