<?xml version="1.0" encoding="UTF-8" standalone="no"?>
<!DOCTYPE svg PUBLIC "-//W3C//DTD SVG 1.1//EN"
 "http://www.w3.org/Graphics/SVG/1.1/DTD/svg11.dtd">
<!-- Generated by graphviz version 2.40.1 (20161225.0304)
 -->
<!-- Title: QtPassSettings::isUseSelection Pages: 1 -->
<svg width="1187pt" height="150pt"
 viewBox="0.00 0.00 1187.00 149.83" xmlns="http://www.w3.org/2000/svg" xmlns:xlink="http://www.w3.org/1999/xlink">
<g id="graph0" class="graph" transform="scale(1 1) rotate(0) translate(4 145.8321)">
<title>QtPassSettings::isUseSelection</title>
<!-- Node627 -->
<g id="node1" class="node">
<title>Node627</title>
<polygon fill="#bfbfbf" stroke="#000000" points="0,-85.5 0,-104.5 158,-104.5 158,-85.5 0,-85.5"/>
<text text-anchor="middle" x="79" y="-92.5" font-family="Helvetica,sans-Serif" font-size="10.00" fill="#000000">QtPassSettings::isUseSelection</text>
</g>
<!-- Node628 -->
<g id="node2" class="node">
<title>Node628</title>
<g id="a_node2"><a xlink:href="class_config_dialog.html#a815d6d8ddf1de9386427ddef691a02a1" target="_top" xlink:title="ConfigDialog::ConfigDialog this sets up the configuration screen. ">
<polygon fill="none" stroke="#000000" points="201,-104.5 201,-123.5 336,-123.5 336,-104.5 201,-104.5"/>
<text text-anchor="middle" x="268.5" y="-111.5" font-family="Helvetica,sans-Serif" font-size="10.00" fill="#000000">ConfigDialog::ConfigDialog</text>
</a>
</g>
</g>
<!-- Node627&#45;&gt;Node628 -->
<g id="edge1" class="edge">
<title>Node627&#45;&gt;Node628</title>
<path fill="none" stroke="#191970" d="M168.3123,-103.9548C179.299,-105.0564 190.3834,-106.1677 200.9722,-107.2294"/>
<polygon fill="#191970" stroke="#191970" points="168.5664,-100.4628 158.2671,-102.9476 167.868,-107.4279 168.5664,-100.4628"/>
</g>
<!-- Node629 -->
<g id="node3" class="node">
<title>Node629</title>
<g id="a_node3"><a xlink:href="class_qt_pass.html#acba134fb5281aedee11899a03976aa95" target="_top" xlink:title="MainWindow::copyTextToClipboard copies text to your clipboard. ">
<polygon fill="none" stroke="#000000" points="194,-66.5 194,-85.5 343,-85.5 343,-66.5 194,-66.5"/>
<text text-anchor="middle" x="268.5" y="-73.5" font-family="Helvetica,sans-Serif" font-size="10.00" fill="#000000">QtPass::copyTextToClipboard</text>
</a>
</g>
</g>
<!-- Node627&#45;&gt;Node629 -->
<g id="edge2" class="edge">
<title>Node627&#45;&gt;Node629</title>
<path fill="none" stroke="#191970" d="M168.2547,-86.051C176.8003,-85.1942 185.4057,-84.3314 193.7916,-83.4906"/>
<polygon fill="#191970" stroke="#191970" points="167.868,-82.5721 158.2671,-87.0524 168.5664,-89.5372 167.868,-82.5721"/>
</g>
<!-- Node630 -->
<g id="node4" class="node">
<title>Node630</title>
<g id="a_node4"><a xlink:href="class_main_window.html#a7997fd865548c3baa51f1863bb8fdfa0" target="_top" xlink:title="MainWindow::passOtpHandler">
<polygon fill="none" stroke="#000000" points="755,-119.5 755,-138.5 904,-138.5 904,-119.5 755,-119.5"/>
<text text-anchor="middle" x="829.5" y="-126.5" font-family="Helvetica,sans-Serif" font-size="10.00" fill="#000000">MainWindow::passOtpHandler</text>
</a>
</g>
</g>
<!-- Node629&#45;&gt;Node630 -->
<g id="edge3" class="edge">
<title>Node629&#45;&gt;Node630</title>
<path fill="none" stroke="#191970" d="M323.0621,-88.3237C329.8526,-90.3216 336.6397,-92.5501 343,-95 359.8826,-101.5028 361.5138,-109.3585 379,-114 507.5812,-148.1301 664.0515,-143.5458 754.6691,-136.6141"/>
<polygon fill="#191970" stroke="#191970" points="323.7328,-84.8772 313.1601,-85.5625 321.8525,-91.62 323.7328,-84.8772"/>
</g>
<!-- Node633 -->
<g id="node7" class="node">
<title>Node633</title>
<g id="a_node7"><a xlink:href="class_main_window.html#a9c4f542263838b9ecd06eae839a42a34" target="_top" xlink:title="MainWindow::keyPressEvent did anyone press return, enter or escape? ">
<polygon fill="none" stroke="#000000" points="379,-85.5 379,-104.5 525,-104.5 525,-85.5 379,-85.5"/>
<text text-anchor="middle" x="452" y="-92.5" font-family="Helvetica,sans-Serif" font-size="10.00" fill="#000000">MainWindow::keyPressEvent</text>
</a>
</g>
</g>
<!-- Node629&#45;&gt;Node633 -->
<g id="edge6" class="edge">
<title>Node629&#45;&gt;Node633</title>
<path fill="none" stroke="#191970" d="M353.174,-84.7673C361.7727,-85.6577 370.4548,-86.5566 378.9157,-87.4327"/>
<polygon fill="#191970" stroke="#191970" points="353.4438,-81.2766 343.1365,-83.728 352.7228,-88.2394 353.4438,-81.2766"/>
</g>
<!-- Node634 -->
<g id="node8" class="node">
<title>Node634</title>
<g id="a_node8"><a xlink:href="class_qt_pass.html#a74adba9dd6915c9db50762279b62be89" target="_top" xlink:title="QtPass::setClippedText">
<polygon fill="none" stroke="#000000" points="391,-47.5 391,-66.5 513,-66.5 513,-47.5 391,-47.5"/>
<text text-anchor="middle" x="452" y="-54.5" font-family="Helvetica,sans-Serif" font-size="10.00" fill="#000000">QtPass::setClippedText</text>
</a>
</g>
</g>
<!-- Node629&#45;&gt;Node634 -->
<g id="edge7" class="edge">
<title>Node629&#45;&gt;Node634</title>
<path fill="none" stroke="#191970" d="M353.2589,-67.2239C365.9519,-65.9096 378.8244,-64.5768 390.8972,-63.3267"/>
<polygon fill="#191970" stroke="#191970" points="352.7228,-63.7606 343.1365,-68.272 353.4438,-70.7234 352.7228,-63.7606"/>
</g>
<!-- Node636 -->
<g id="node10" class="node">
<title>Node636</title>
<g id="a_node10"><a xlink:href="class_qt_pass.html#a5b63b7418723b400f0db2afa450f1199" target="_top" xlink:title="QtPass::setFreshStart">
<polygon fill="none" stroke="#000000" points="394.5,-9.5 394.5,-28.5 509.5,-28.5 509.5,-9.5 394.5,-9.5"/>
<text text-anchor="middle" x="452" y="-16.5" font-family="Helvetica,sans-Serif" font-size="10.00" fill="#000000">QtPass::setFreshStart</text>
</a>
</g>
</g>
<!-- Node629&#45;&gt;Node636 -->
<g id="edge10" class="edge">
<title>Node629&#45;&gt;Node636</title>
<path fill="none" stroke="#191970" d="M304.3581,-62.8894C325.8697,-55.2198 353.8493,-45.5854 379,-38 390.0335,-34.6723 402.1074,-31.3873 413.2027,-28.5088"/>
<polygon fill="#191970" stroke="#191970" points="302.8912,-59.6973 294.6613,-66.3696 305.2558,-66.2858 302.8912,-59.6973"/>
</g>
<!-- Node631 -->
<g id="node5" class="node">
<title>Node631</title>
<g id="a_node5"><a xlink:href="class_qt_pass.html#a49e2861160fdb8d614231933f60fac47" target="_top" xlink:title="QtPass::init make sure we are ready to go as soon as possible. ">
<polygon fill="none" stroke="#000000" points="940,-57.5 940,-76.5 1008,-76.5 1008,-57.5 940,-57.5"/>
<text text-anchor="middle" x="974" y="-64.5" font-family="Helvetica,sans-Serif" font-size="10.00" fill="#000000">QtPass::init</text>
</a>
</g>
</g>
<!-- Node630&#45;&gt;Node631 -->
<g id="edge4" class="edge">
<title>Node630&#45;&gt;Node631</title>
<path fill="none" stroke="#191970" d="M865.0864,-115.7246C877.4778,-110.9499 891.4225,-105.405 904,-100 921.2816,-92.5735 940.5965,-83.4004 954.5523,-76.612"/>
<polygon fill="#191970" stroke="#191970" points="863.6308,-112.5339 855.5376,-119.3713 866.1282,-119.0733 863.6308,-112.5339"/>
</g>
<!-- Node632 -->
<g id="node6" class="node">
<title>Node632</title>
<g id="a_node6"><a xlink:href="class_main_window.html#a52e97245b2f88492071e639395c4a15a" target="_top" xlink:title="MainWindow::MainWindow handles all of the main functionality and also the main window. ">
<polygon fill="none" stroke="#000000" points="1044,-57.5 1044,-76.5 1179,-76.5 1179,-57.5 1044,-57.5"/>
<text text-anchor="middle" x="1111.5" y="-64.5" font-family="Helvetica,sans-Serif" font-size="10.00" fill="#000000">MainWindow::MainWindow</text>
</a>
</g>
</g>
<!-- Node631&#45;&gt;Node632 -->
<g id="edge5" class="edge">
<title>Node631&#45;&gt;Node632</title>
<path fill="none" stroke="#191970" d="M1018.6126,-67C1026.6815,-67 1035.2586,-67 1043.8137,-67"/>
<polygon fill="#191970" stroke="#191970" points="1018.3424,-63.5001 1008.3424,-67 1018.3423,-70.5001 1018.3424,-63.5001"/>
</g>
<!-- Node635 -->
<g id="node9" class="node">
<title>Node635</title>
<g id="a_node9"><a xlink:href="class_main_window.html#a0d75695e555bac7331e1ea22bc3159df" target="_top" xlink:title="MainWindow::passShowHandler">
<polygon fill="none" stroke="#000000" points="561,-66.5 561,-85.5 719,-85.5 719,-66.5 561,-66.5"/>
<text text-anchor="middle" x="640" y="-73.5" font-family="Helvetica,sans-Serif" font-size="10.00" fill="#000000">MainWindow::passShowHandler</text>
</a>
</g>
</g>
<!-- Node634&#45;&gt;Node635 -->
<g id="edge8" class="edge">
<title>Node634&#45;&gt;Node635</title>
<path fill="none" stroke="#191970" d="M523.1991,-64.1957C535.4737,-65.4362 548.3004,-66.7325 560.7713,-67.9928"/>
<polygon fill="#191970" stroke="#191970" points="523.3395,-60.6921 513.0382,-63.1688 522.6356,-67.6566 523.3395,-60.6921"/>
</g>
<!-- Node635&#45;&gt;Node631 -->
<g id="edge9" class="edge">
<title>Node635&#45;&gt;Node631</title>
<path fill="none" stroke="#191970" d="M729.1827,-73.5969C798.3403,-71.7333 890.4296,-69.2519 939.6043,-67.9268"/>
<polygon fill="#191970" stroke="#191970" points="729.0554,-70.0989 719.1533,-73.8671 729.244,-77.0964 729.0554,-70.0989"/>
</g>
<!-- Node637 -->
<g id="node11" class="node">
<title>Node637</title>
<g id="a_node11"><a xlink:href="class_main_window.html#aeb8091ab5531144b76c1fbb0d63deb56" target="_top" xlink:title="MainWindow::config pops up the configuration screen and handles all inter&#45;window communication. ">
<polygon fill="none" stroke="#000000" points="587.5,-9.5 587.5,-28.5 692.5,-28.5 692.5,-9.5 587.5,-9.5"/>
<text text-anchor="middle" x="640" y="-16.5" font-family="Helvetica,sans-Serif" font-size="10.00" fill="#000000">MainWindow::config</text>
</a>
</g>
</g>
<!-- Node636&#45;&gt;Node637 -->
<g id="edge11" class="edge">
<title>Node636&#45;&gt;Node637</title>
<path fill="none" stroke="#191970" d="M519.7218,-19C541.9385,-19 566.2848,-19 587.2266,-19"/>
<polygon fill="#191970" stroke="#191970" points="519.6839,-15.5001 509.6838,-19 519.6838,-22.5001 519.6839,-15.5001"/>
</g>
<!-- Node637&#45;&gt;Node631 -->
<g id="edge14" class="edge">
<title>Node637&#45;&gt;Node631</title>
<path fill="none" stroke="#191970" d="M702.5889,-27.9948C772.6902,-38.0692 883.781,-54.0344 939.597,-62.0559"/>
<polygon fill="#191970" stroke="#191970" points="702.9511,-24.511 692.5549,-26.5528 701.9553,-31.4398 702.9511,-24.511"/>
</g>
<!-- Node638 -->
<g id="node12" class="node">
<title>Node638</title>
<g id="a_node12"><a xlink:href="class_main_window.html#a9630f0fe0e0941a7996d68014f837ed5" target="_top" xlink:title="MainWindow::restoreWindow">
<polygon fill="none" stroke="#000000" points="757.5,-.5 757.5,-19.5 901.5,-19.5 901.5,-.5 757.5,-.5"/>
<text text-anchor="middle" x="829.5" y="-7.5" font-family="Helvetica,sans-Serif" font-size="10.00" fill="#000000">MainWindow::restoreWindow</text>
</a>
</g>
</g>
<!-- Node637&#45;&gt;Node638 -->
<g id="edge12" class="edge">
<title>Node637&#45;&gt;Node638</title>
<path fill="none" stroke="#191970" d="M702.635,-16.0253C720.1517,-15.1933 739.3292,-14.2825 757.3488,-13.4267"/>
<polygon fill="#191970" stroke="#191970" points="702.3573,-12.5344 692.5347,-16.505 702.6895,-19.5265 702.3573,-12.5344"/>
</g>
<!-- Node638&#45;&gt;Node631 -->
<g id="edge13" class="edge">
<title>Node638&#45;&gt;Node631</title>
<path fill="none" stroke="#191970" d="M872.2553,-22.7303C882.7311,-26.1347 893.8474,-29.9909 904,-34 921.745,-41.0073 941.3416,-50.3942 955.276,-57.3649"/>
<polygon fill="#191970" stroke="#191970" points="873.0507,-19.3105 862.4603,-19.6144 870.9287,-25.9812 873.0507,-19.3105"/>
</g>
</g>
</svg>
