<?xml version="1.0" encoding="UTF-8" standalone="no"?>
<!DOCTYPE svg PUBLIC "-//W3C//DTD SVG 1.1//EN"
 "http://www.w3.org/Graphics/SVG/1.1/DTD/svg11.dtd">
<!-- Generated by graphviz version 2.40.1 (20161225.0304)
 -->
<!-- Title: QtPassSettings::isUseAutoclear Pages: 1 -->
<!--zoomable 150 -->
<svg id="main" version="1.1" xmlns="http://www.w3.org/2000/svg" xmlns:xlink="http://www.w3.org/1999/xlink" xml:space="preserve" onload="init(evt)">
<style type="text/css"><![CDATA[
.edge:hover path { stroke: red; }
.edge:hover polygon { stroke: red; fill: red; }
]]></style>
<script type="text/javascript"><![CDATA[
var edges = document.getElementsByTagName('g');
if (edges && edges.length) {
  for (var i=0;i<edges.length;i++) {
    if (edges[i].id.substr(0,4)=='edge') {
      edges[i].setAttribute('class','edge');
    }
  }
}
]]></script>
        <defs>
                <circle id="rim" cx="0" cy="0" r="7"/>
                <circle id="rim2" cx="0" cy="0" r="3.5"/>
                <g id="zoomPlus">
                        <use xlink:href="#rim" fill="#404040">
                                <set attributeName="fill" to="#808080" begin="zoomplus.mouseover" end="zoomplus.mouseout"/>
                        </use>
                        <path d="M-4,0h8M0,-4v8" fill="none" stroke="white" stroke-width="1.5" pointer-events="none"/>
                </g>
                <g id="zoomMin">
                        <use xlink:href="#rim" fill="#404040">
                                <set attributeName="fill" to="#808080" begin="zoomminus.mouseover" end="zoomminus.mouseout"/>
                        </use>
                        <path d="M-4,0h8" fill="none" stroke="white" stroke-width="1.5" pointer-events="none"/>
                </g>
                <g id="dirArrow">
                        <path fill="none" stroke="white" stroke-width="1.5" d="M0,-3.0v7 M-2.5,-0.5L0,-3.0L2.5,-0.5"/>
                </g>
               <g id="resetDef">
                       <use xlink:href="#rim2" fill="#404040">
                               <set attributeName="fill" to="#808080" begin="reset.mouseover" end="reset.mouseout"/>
                       </use>
               </g>
        </defs>

<script type="text/javascript">
var viewWidth = 1187;
var viewHeight = 150;
var sectionId = 'dynsection-80';
</script>
<script xlink:href="svgpan.js"/>
<svg id="graph" class="graph">
<g id="viewport">
<title>QtPassSettings::isUseAutoclear</title>
<!-- Node545 -->
<g id="node1" class="node">
<title>Node545</title>
<polygon fill="#bfbfbf" stroke="#000000" points="0,-85.5 0,-104.5 158,-104.5 158,-85.5 0,-85.5"/>
<text text-anchor="middle" x="79" y="-92.5" font-family="Helvetica,sans-Serif" font-size="10.00" fill="#000000">QtPassSettings::isUseAutoclear</text>
</g>
<!-- Node546 -->
<g id="node2" class="node">
<title>Node546</title>
<g id="a_node2"><a xlink:href="class_config_dialog.html#a815d6d8ddf1de9386427ddef691a02a1" target="_top" xlink:title="ConfigDialog::ConfigDialog this sets up the configuration screen. ">
<polygon fill="none" stroke="#000000" points="201,-104.5 201,-123.5 336,-123.5 336,-104.5 201,-104.5"/>
<text text-anchor="middle" x="268.5" y="-111.5" font-family="Helvetica,sans-Serif" font-size="10.00" fill="#000000">ConfigDialog::ConfigDialog</text>
</a>
</g>
</g>
<!-- Node545&#45;&gt;Node546 -->
<g id="edge1" class="edge">
<title>Node545&#45;&gt;Node546</title>
<path fill="none" stroke="#191970" d="M168.3123,-103.9548C179.299,-105.0564 190.3834,-106.1677 200.9722,-107.2294"/>
<polygon fill="#191970" stroke="#191970" points="168.5664,-100.4628 158.2671,-102.9476 167.868,-107.4279 168.5664,-100.4628"/>
</g>
<!-- Node547 -->
<g id="node3" class="node">
<title>Node547</title>
<g id="a_node3"><a xlink:href="class_qt_pass.html#acba134fb5281aedee11899a03976aa95" target="_top" xlink:title="MainWindow::copyTextToClipboard copies text to your clipboard. ">
<polygon fill="none" stroke="#000000" points="194,-66.5 194,-85.5 343,-85.5 343,-66.5 194,-66.5"/>
<text text-anchor="middle" x="268.5" y="-73.5" font-family="Helvetica,sans-Serif" font-size="10.00" fill="#000000">QtPass::copyTextToClipboard</text>
</a>
</g>
</g>
<!-- Node545&#45;&gt;Node547 -->
<g id="edge2" class="edge">
<title>Node545&#45;&gt;Node547</title>
<path fill="none" stroke="#191970" d="M168.2547,-86.051C176.8003,-85.1942 185.4057,-84.3314 193.7916,-83.4906"/>
<polygon fill="#191970" stroke="#191970" points="167.868,-82.5721 158.2671,-87.0524 168.5664,-89.5372 167.868,-82.5721"/>
</g>
<!-- Node548 -->
<g id="node4" class="node">
<title>Node548</title>
<g id="a_node4"><a xlink:href="class_main_window.html#a7997fd865548c3baa51f1863bb8fdfa0" target="_top" xlink:title="MainWindow::passOtpHandler">
<polygon fill="none" stroke="#000000" points="755,-119.5 755,-138.5 904,-138.5 904,-119.5 755,-119.5"/>
<text text-anchor="middle" x="829.5" y="-126.5" font-family="Helvetica,sans-Serif" font-size="10.00" fill="#000000">MainWindow::passOtpHandler</text>
</a>
</g>
</g>
<!-- Node547&#45;&gt;Node548 -->
<g id="edge3" class="edge">
<title>Node547&#45;&gt;Node548</title>
<path fill="none" stroke="#191970" d="M323.0621,-88.3237C329.8526,-90.3216 336.6397,-92.5501 343,-95 359.8826,-101.5028 361.5138,-109.3585 379,-114 507.5812,-148.1301 664.0515,-143.5458 754.6691,-136.6141"/>
<polygon fill="#191970" stroke="#191970" points="323.7328,-84.8772 313.1601,-85.5625 321.8525,-91.62 323.7328,-84.8772"/>
</g>
<!-- Node551 -->
<g id="node7" class="node">
<title>Node551</title>
<g id="a_node7"><a xlink:href="class_main_window.html#a9c4f542263838b9ecd06eae839a42a34" target="_top" xlink:title="MainWindow::keyPressEvent did anyone press return, enter or escape? ">
<polygon fill="none" stroke="#000000" points="379,-85.5 379,-104.5 525,-104.5 525,-85.5 379,-85.5"/>
<text text-anchor="middle" x="452" y="-92.5" font-family="Helvetica,sans-Serif" font-size="10.00" fill="#000000">MainWindow::keyPressEvent</text>
</a>
</g>
</g>
<!-- Node547&#45;&gt;Node551 -->
<g id="edge6" class="edge">
<title>Node547&#45;&gt;Node551</title>
<path fill="none" stroke="#191970" d="M353.174,-84.7673C361.7727,-85.6577 370.4548,-86.5566 378.9157,-87.4327"/>
<polygon fill="#191970" stroke="#191970" points="353.4438,-81.2766 343.1365,-83.728 352.7228,-88.2394 353.4438,-81.2766"/>
</g>
<!-- Node552 -->
<g id="node8" class="node">
<title>Node552</title>
<g id="a_node8"><a xlink:href="class_qt_pass.html#a74adba9dd6915c9db50762279b62be89" target="_top" xlink:title="QtPass::setClippedText">
<polygon fill="none" stroke="#000000" points="391,-47.5 391,-66.5 513,-66.5 513,-47.5 391,-47.5"/>
<text text-anchor="middle" x="452" y="-54.5" font-family="Helvetica,sans-Serif" font-size="10.00" fill="#000000">QtPass::setClippedText</text>
</a>
</g>
</g>
<!-- Node547&#45;&gt;Node552 -->
<g id="edge7" class="edge">
<title>Node547&#45;&gt;Node552</title>
<path fill="none" stroke="#191970" d="M353.2589,-67.2239C365.9519,-65.9096 378.8244,-64.5768 390.8972,-63.3267"/>
<polygon fill="#191970" stroke="#191970" points="352.7228,-63.7606 343.1365,-68.272 353.4438,-70.7234 352.7228,-63.7606"/>
</g>
<!-- Node554 -->
<g id="node10" class="node">
<title>Node554</title>
<g id="a_node10"><a xlink:href="class_qt_pass.html#a5b63b7418723b400f0db2afa450f1199" target="_top" xlink:title="QtPass::setFreshStart">
<polygon fill="none" stroke="#000000" points="394.5,-9.5 394.5,-28.5 509.5,-28.5 509.5,-9.5 394.5,-9.5"/>
<text text-anchor="middle" x="452" y="-16.5" font-family="Helvetica,sans-Serif" font-size="10.00" fill="#000000">QtPass::setFreshStart</text>
</a>
</g>
</g>
<!-- Node547&#45;&gt;Node554 -->
<g id="edge10" class="edge">
<title>Node547&#45;&gt;Node554</title>
<path fill="none" stroke="#191970" d="M304.3581,-62.8894C325.8697,-55.2198 353.8493,-45.5854 379,-38 390.0335,-34.6723 402.1074,-31.3873 413.2027,-28.5088"/>
<polygon fill="#191970" stroke="#191970" points="302.8912,-59.6973 294.6613,-66.3696 305.2558,-66.2858 302.8912,-59.6973"/>
</g>
<!-- Node549 -->
<g id="node5" class="node">
<title>Node549</title>
<g id="a_node5"><a xlink:href="class_qt_pass.html#a49e2861160fdb8d614231933f60fac47" target="_top" xlink:title="QtPass::init make sure we are ready to go as soon as possible. ">
<polygon fill="none" stroke="#000000" points="940,-57.5 940,-76.5 1008,-76.5 1008,-57.5 940,-57.5"/>
<text text-anchor="middle" x="974" y="-64.5" font-family="Helvetica,sans-Serif" font-size="10.00" fill="#000000">QtPass::init</text>
</a>
</g>
</g>
<!-- Node548&#45;&gt;Node549 -->
<g id="edge4" class="edge">
<title>Node548&#45;&gt;Node549</title>
<path fill="none" stroke="#191970" d="M865.0864,-115.7246C877.4778,-110.9499 891.4225,-105.405 904,-100 921.2816,-92.5735 940.5965,-83.4004 954.5523,-76.612"/>
<polygon fill="#191970" stroke="#191970" points="863.6308,-112.5339 855.5376,-119.3713 866.1282,-119.0733 863.6308,-112.5339"/>
</g>
<!-- Node550 -->
<g id="node6" class="node">
<title>Node550</title>
<g id="a_node6"><a xlink:href="class_main_window.html#a52e97245b2f88492071e639395c4a15a" target="_top" xlink:title="MainWindow::MainWindow handles all of the main functionality and also the main window. ">
<polygon fill="none" stroke="#000000" points="1044,-57.5 1044,-76.5 1179,-76.5 1179,-57.5 1044,-57.5"/>
<text text-anchor="middle" x="1111.5" y="-64.5" font-family="Helvetica,sans-Serif" font-size="10.00" fill="#000000">MainWindow::MainWindow</text>
</a>
</g>
</g>
<!-- Node549&#45;&gt;Node550 -->
<g id="edge5" class="edge">
<title>Node549&#45;&gt;Node550</title>
<path fill="none" stroke="#191970" d="M1018.6126,-67C1026.6815,-67 1035.2586,-67 1043.8137,-67"/>
<polygon fill="#191970" stroke="#191970" points="1018.3424,-63.5001 1008.3424,-67 1018.3423,-70.5001 1018.3424,-63.5001"/>
</g>
<!-- Node553 -->
<g id="node9" class="node">
<title>Node553</title>
<g id="a_node9"><a xlink:href="class_main_window.html#a0d75695e555bac7331e1ea22bc3159df" target="_top" xlink:title="MainWindow::passShowHandler">
<polygon fill="none" stroke="#000000" points="561,-66.5 561,-85.5 719,-85.5 719,-66.5 561,-66.5"/>
<text text-anchor="middle" x="640" y="-73.5" font-family="Helvetica,sans-Serif" font-size="10.00" fill="#000000">MainWindow::passShowHandler</text>
</a>
</g>
</g>
<!-- Node552&#45;&gt;Node553 -->
<g id="edge8" class="edge">
<title>Node552&#45;&gt;Node553</title>
<path fill="none" stroke="#191970" d="M523.1991,-64.1957C535.4737,-65.4362 548.3004,-66.7325 560.7713,-67.9928"/>
<polygon fill="#191970" stroke="#191970" points="523.3395,-60.6921 513.0382,-63.1688 522.6356,-67.6566 523.3395,-60.6921"/>
</g>
<!-- Node553&#45;&gt;Node549 -->
<g id="edge9" class="edge">
<title>Node553&#45;&gt;Node549</title>
<path fill="none" stroke="#191970" d="M729.1827,-73.5969C798.3403,-71.7333 890.4296,-69.2519 939.6043,-67.9268"/>
<polygon fill="#191970" stroke="#191970" points="729.0554,-70.0989 719.1533,-73.8671 729.244,-77.0964 729.0554,-70.0989"/>
</g>
<!-- Node555 -->
<g id="node11" class="node">
<title>Node555</title>
<g id="a_node11"><a xlink:href="class_main_window.html#aeb8091ab5531144b76c1fbb0d63deb56" target="_top" xlink:title="MainWindow::config pops up the configuration screen and handles all inter&#45;window communication. ">
<polygon fill="none" stroke="#000000" points="587.5,-9.5 587.5,-28.5 692.5,-28.5 692.5,-9.5 587.5,-9.5"/>
<text text-anchor="middle" x="640" y="-16.5" font-family="Helvetica,sans-Serif" font-size="10.00" fill="#000000">MainWindow::config</text>
</a>
</g>
</g>
<!-- Node554&#45;&gt;Node555 -->
<g id="edge11" class="edge">
<title>Node554&#45;&gt;Node555</title>
<path fill="none" stroke="#191970" d="M519.7218,-19C541.9385,-19 566.2848,-19 587.2266,-19"/>
<polygon fill="#191970" stroke="#191970" points="519.6839,-15.5001 509.6838,-19 519.6838,-22.5001 519.6839,-15.5001"/>
</g>
<!-- Node555&#45;&gt;Node549 -->
<g id="edge14" class="edge">
<title>Node555&#45;&gt;Node549</title>
<path fill="none" stroke="#191970" d="M702.5889,-27.9948C772.6902,-38.0692 883.781,-54.0344 939.597,-62.0559"/>
<polygon fill="#191970" stroke="#191970" points="702.9511,-24.511 692.5549,-26.5528 701.9553,-31.4398 702.9511,-24.511"/>
</g>
<!-- Node556 -->
<g id="node12" class="node">
<title>Node556</title>
<g id="a_node12"><a xlink:href="class_main_window.html#a9630f0fe0e0941a7996d68014f837ed5" target="_top" xlink:title="MainWindow::restoreWindow">
<polygon fill="none" stroke="#000000" points="757.5,-.5 757.5,-19.5 901.5,-19.5 901.5,-.5 757.5,-.5"/>
<text text-anchor="middle" x="829.5" y="-7.5" font-family="Helvetica,sans-Serif" font-size="10.00" fill="#000000">MainWindow::restoreWindow</text>
</a>
</g>
</g>
<!-- Node555&#45;&gt;Node556 -->
<g id="edge12" class="edge">
<title>Node555&#45;&gt;Node556</title>
<path fill="none" stroke="#191970" d="M702.635,-16.0253C720.1517,-15.1933 739.3292,-14.2825 757.3488,-13.4267"/>
<polygon fill="#191970" stroke="#191970" points="702.3573,-12.5344 692.5347,-16.505 702.6895,-19.5265 702.3573,-12.5344"/>
</g>
<!-- Node556&#45;&gt;Node549 -->
<g id="edge13" class="edge">
<title>Node556&#45;&gt;Node549</title>
<path fill="none" stroke="#191970" d="M872.2553,-22.7303C882.7311,-26.1347 893.8474,-29.9909 904,-34 921.745,-41.0073 941.3416,-50.3942 955.276,-57.3649"/>
<polygon fill="#191970" stroke="#191970" points="873.0507,-19.3105 862.4603,-19.6144 870.9287,-25.9812 873.0507,-19.3105"/>
</g>
</g>
</svg>
        <g id="navigator" transform="translate(0 0)" fill="#404254">
                <rect fill="#f2f5e9" fill-opacity="0.5" stroke="#606060" stroke-width=".5" x="0" y="0" width="60" height="60"/>
                <use id="zoomplus" xlink:href="#zoomPlus" x="17" y="9" onmousedown="handleZoom(evt,'in')"/>
                <use id="zoomminus" xlink:href="#zoomMin" x="42" y="9" onmousedown="handleZoom(evt,'out')"/>
                <use id="reset" xlink:href="#resetDef" x="30" y="36" onmousedown="handleReset()"/>
                <g id="arrowUp" xlink:href="#dirArrow" transform="translate(30 24)" onmousedown="handlePan(0,-1)">
                  <use xlink:href="#rim" fill="#404040">
                        <set attributeName="fill" to="#808080" begin="arrowUp.mouseover" end="arrowUp.mouseout"/>
                  </use>
                  <path fill="none" stroke="white" stroke-width="1.5" d="M0,-3.0v7 M-2.5,-0.5L0,-3.0L2.5,-0.5"/>
                </g>
                <g id="arrowRight" xlink:href="#dirArrow" transform="rotate(90) translate(36 -43)" onmousedown="handlePan(1,0)">
                  <use xlink:href="#rim" fill="#404040">
                        <set attributeName="fill" to="#808080" begin="arrowRight.mouseover" end="arrowRight.mouseout"/>
                  </use>
                  <path fill="none" stroke="white" stroke-width="1.5" d="M0,-3.0v7 M-2.5,-0.5L0,-3.0L2.5,-0.5"/>
                </g>
                <g id="arrowDown" xlink:href="#dirArrow" transform="rotate(180) translate(-30 -48)" onmousedown="handlePan(0,1)">
                  <use xlink:href="#rim" fill="#404040">
                        <set attributeName="fill" to="#808080" begin="arrowDown.mouseover" end="arrowDown.mouseout"/>
                  </use>
                  <path fill="none" stroke="white" stroke-width="1.5" d="M0,-3.0v7 M-2.5,-0.5L0,-3.0L2.5,-0.5"/>
                </g>
                <g id="arrowLeft" xlink:href="#dirArrow" transform="rotate(270) translate(-36 17)" onmousedown="handlePan(-1,0)">
                  <use xlink:href="#rim" fill="#404040">
                        <set attributeName="fill" to="#808080" begin="arrowLeft.mouseover" end="arrowLeft.mouseout"/>
                  </use>
                  <path fill="none" stroke="white" stroke-width="1.5" d="M0,-3.0v7 M-2.5,-0.5L0,-3.0L2.5,-0.5"/>
                </g>
        </g>
        <svg viewBox="0 0 15 15" width="100%" height="30px" preserveAspectRatio="xMaxYMin meet">
         <g id="arrow_out" transform="scale(0.3 0.3)">
          <a xlink:href="class_qt_pass_settings_ae105a118fa69c7c5bdf506355d20ffae_icgraph_org.svg" target="_base">
           <rect id="button" ry="5" rx="5" y="6" x="6" height="38" width="38"
                fill="#f2f5e9" fill-opacity="0.5" stroke="#606060" stroke-width="1.0"/>
           <path id="arrow"
             d="M 11.500037,31.436501 C 11.940474,20.09759 22.043105,11.32322 32.158766,21.979434 L 37.068811,17.246167 C 37.068811,17.246167 37.088388,32 37.088388,32 L 22.160133,31.978069 C 22.160133,31.978069 26.997745,27.140456 26.997745,27.140456 C 18.528582,18.264221 13.291696,25.230495 11.500037,31.436501 z"
             style="fill:#404040;"/>
          </a>
         </g>
        </svg>
</svg>
