<?xml version="1.0" encoding="UTF-8" standalone="no"?>
<!DOCTYPE svg PUBLIC "-//W3C//DTD SVG 1.1//EN"
 "http://www.w3.org/Graphics/SVG/1.1/DTD/svg11.dtd">
<!-- Generated by graphviz version 2.38.0 (20140413.2041)
 -->
<!-- Title: Pass::listKeys Pages: 1 -->
<svg width="410pt" height="101pt"
 viewBox="0.00 0.00 409.78 101.00" xmlns="http://www.w3.org/2000/svg" xmlns:xlink="http://www.w3.org/1999/xlink">
<g id="graph0" class="graph" transform="scale(1 1) rotate(0) translate(4 97)">
<title>Pass::listKeys</title>
<!-- Node239 -->
<g id="node1" class="node"><title>Node239</title>
<polygon fill="#bfbfbf" stroke="black" points="0,-37.5 0,-55.5 78.2412,-55.5 78.2412,-37.5 0,-37.5"/>
<text text-anchor="middle" x="39.1206" y="-43.5" font-family="Helvetica,sans-Serif" font-size="10.00">Pass::listKeys</text>
</g>
<!-- Node240 -->
<g id="node2" class="node"><title>Node240</title>
<g id="a_node2"><a xlink:href="class_main_window.html#add7481e9707f309caba6b5d3a8c1ddc9" target="_top" xlink:title="MainWindow::userDialog see MainWindow::on_usersButton_clicked() ">
<polygon fill="none" stroke="black" points="122.857,-74.5 122.857,-92.5 249.458,-92.5 249.458,-74.5 122.857,-74.5"/>
<text text-anchor="middle" x="186.157" y="-80.5" font-family="Helvetica,sans-Serif" font-size="10.00">MainWindow::userDialog</text>
</a>
</g>
</g>
<!-- Node239&#45;&gt;Node240 -->
<g id="edge1" class="edge"><title>Node239&#45;&gt;Node240</title>
<path fill="none" stroke="midnightblue" d="M85.0046,-58.0237C94.6485,-60.4946 104.783,-63.0875 114.241,-65.5 125.688,-68.4198 138.177,-71.5937 149.44,-74.4517"/>
<polygon fill="midnightblue" stroke="midnightblue" points="85.7372,-54.5984 75.1813,-55.5055 83.999,-61.3791 85.7372,-54.5984"/>
</g>
<!-- Node242 -->
<g id="node4" class="node"><title>Node242</title>
<g id="a_node4"><a xlink:href="class_main_window.html#a38957de181a576efc28befeb7c47abec" target="_top" xlink:title="MainWindow::getSecretKeys get list of secret/private keys. ">
<polygon fill="none" stroke="black" points="114.241,-37.5 114.241,-55.5 258.073,-55.5 258.073,-37.5 114.241,-37.5"/>
<text text-anchor="middle" x="186.157" y="-43.5" font-family="Helvetica,sans-Serif" font-size="10.00">MainWindow::getSecretKeys</text>
</a>
</g>
</g>
<!-- Node239&#45;&gt;Node242 -->
<g id="edge3" class="edge"><title>Node239&#45;&gt;Node242</title>
<path fill="none" stroke="midnightblue" d="M88.7182,-46.5C96.9241,-46.5 105.59,-46.5 114.226,-46.5"/>
<polygon fill="midnightblue" stroke="midnightblue" points="88.607,-43.0001 78.607,-46.5 88.6069,-50.0001 88.607,-43.0001"/>
</g>
<!-- Node243 -->
<g id="node5" class="node"><title>Node243</title>
<g id="a_node5"><a xlink:href="class_pass.html#a8dfa731be7ac962f9f6a5cf8f29097ec" target="_top" xlink:title="Pass::~Pass">
<polygon fill="none" stroke="black" points="150.228,-0.5 150.228,-18.5 222.087,-18.5 222.087,-0.5 150.228,-0.5"/>
<text text-anchor="middle" x="186.157" y="-6.5" font-family="Helvetica,sans-Serif" font-size="10.00">Pass::~Pass</text>
</a>
</g>
</g>
<!-- Node239&#45;&gt;Node243 -->
<g id="edge5" class="edge"><title>Node239&#45;&gt;Node243</title>
<path fill="none" stroke="midnightblue" d="M85.5069,-34.9216C106.332,-29.6088 130.646,-23.4062 150.044,-18.4578"/>
<polygon fill="midnightblue" stroke="midnightblue" points="84.425,-31.5854 75.6006,-37.4488 86.1554,-38.3682 84.425,-31.5854"/>
</g>
<!-- Node241 -->
<g id="node3" class="node"><title>Node241</title>
<g id="a_node3"><a xlink:href="class_config_dialog.html#ad5b80066591f19fdaaa06b7cb5ba7f15" target="_top" xlink:title="ConfigDialog::wizard first&#45;time use wizard. ">
<polygon fill="none" stroke="black" points="294.073,-55.5 294.073,-73.5 401.782,-73.5 401.782,-55.5 294.073,-55.5"/>
<text text-anchor="middle" x="347.928" y="-61.5" font-family="Helvetica,sans-Serif" font-size="10.00">ConfigDialog::wizard</text>
</a>
</g>
</g>
<!-- Node240&#45;&gt;Node241 -->
<g id="edge2" class="edge"><title>Node240&#45;&gt;Node241</title>
<path fill="none" stroke="midnightblue" d="M259.867,-74.8533C271.359,-73.4867 283.05,-72.0964 293.979,-70.7967"/>
<polygon fill="midnightblue" stroke="midnightblue" points="259.361,-71.3887 249.844,-76.0452 260.188,-78.3398 259.361,-71.3887"/>
</g>
<!-- Node242&#45;&gt;Node241 -->
<g id="edge4" class="edge"><title>Node242&#45;&gt;Node241</title>
<path fill="none" stroke="midnightblue" d="M268.331,-55.6452C277.004,-56.6222 285.656,-57.597 293.879,-58.5235"/>
<polygon fill="midnightblue" stroke="midnightblue" points="268.494,-52.1415 258.165,-54.4999 267.711,-59.0975 268.494,-52.1415"/>
</g>
</g>
</svg>
