<?xml version="1.0" encoding="UTF-8" standalone="no"?>
<!DOCTYPE svg PUBLIC "-//W3C//DTD SVG 1.1//EN"
 "http://www.w3.org/Graphics/SVG/1.1/DTD/svg11.dtd">
<!-- Generated by graphviz version 2.43.0 (0)
 -->
<!-- Title: QtPassSettings::getAutoclearPanelSeconds Pages: 1 -->
<svg width="350pt" height="192pt"
 viewBox="0.00 0.00 350.00 192.00" xmlns="http://www.w3.org/2000/svg" xmlns:xlink="http://www.w3.org/1999/xlink">

<svg id="main" version="1.1" xmlns="http://www.w3.org/2000/svg" xmlns:xlink="http://www.w3.org/1999/xlink" xml:space="preserve">

<style type="text/css"><![CDATA[
.node, .edge {opacity: 0.7;}
.node.selected, .edge.selected {opacity: 1;}
.edge:hover path { stroke: red; }
.edge:hover polygon { stroke: red; fill: red; }
]]></style>
<script type="application/ecmascript" xlink:href="svg.min.js"/>
<svg id="graph" class="graph">
<g id="graph0" class="graph" transform="scale(1 1) rotate(0) translate(4 188)">
<title>QtPassSettings::getAutoclearPanelSeconds</title>
<!-- Node1 -->
<g id="Node000001" class="node">
<title>Node1</title>
<g id="a_Node000001"><a xlink:title="Get panel autoclear delay in seconds.">
<polygon fill="#999999" stroke="#666666" points="342,-97.5 184,-97.5 184,-67.5 342,-67.5 342,-97.5"/>
<text text-anchor="start" x="192" y="-85.5" font-family="Helvetica,sans-Serif" font-size="10.00">QtPassSettings::getAutoclear</text>
<text text-anchor="middle" x="263" y="-74.5" font-family="Helvetica,sans-Serif" font-size="10.00">PanelSeconds</text>
</a>
</g>
</g>
<!-- Node2 -->
<g id="Node000002" class="node">
<title>Node2</title>
<g id="a_Node000002"><a xlink:href="class_main_window.html#aeb8091ab5531144b76c1fbb0d63deb56" target="_top" xlink:title=" ">
<polygon fill="white" stroke="#666666" points="131,-166 17,-166 17,-147 131,-147 131,-166"/>
<text text-anchor="middle" x="74" y="-154" font-family="Helvetica,sans-Serif" font-size="10.00">MainWindow::config</text>
</a>
</g>
</g>
<!-- Node1&#45;&gt;Node2 -->
<g id="edge1_Node000001_Node000002" class="edge">
<title>Node1&#45;&gt;Node2</title>
<g id="a_edge1_Node000001_Node000002"><a xlink:title=" ">
<path fill="none" stroke="#63b8ff" d="M226.54,-102.38C204.47,-114.13 175.19,-128.6 148,-138.5 139.17,-141.72 129.53,-144.55 120.24,-146.95"/>
<polygon fill="#63b8ff" stroke="#63b8ff" points="228.4,-105.36 235.54,-97.53 225.07,-99.2 228.4,-105.36"/>
</a>
</g>
</g>
<!-- Node3 -->
<g id="Node000003" class="node">
<title>Node3</title>
<g id="a_Node000003"><a xlink:href="class_config_dialog.html#a815d6d8ddf1de9386427ddef691a02a1" target="_top" xlink:title="ConfigDialog::ConfigDialog this sets up the configuration screen.">
<polygon fill="white" stroke="#666666" points="147.5,-111 0.5,-111 0.5,-92 147.5,-92 147.5,-111"/>
<text text-anchor="middle" x="74" y="-99" font-family="Helvetica,sans-Serif" font-size="10.00">ConfigDialog::ConfigDialog</text>
</a>
</g>
</g>
<!-- Node1&#45;&gt;Node3 -->
<g id="edge3_Node000001_Node000003" class="edge">
<title>Node1&#45;&gt;Node3</title>
<g id="a_edge3_Node000001_Node000003"><a xlink:title=" ">
<path fill="none" stroke="#63b8ff" d="M173.58,-91.48C164.86,-92.37 156.07,-93.26 147.53,-94.13"/>
<polygon fill="#63b8ff" stroke="#63b8ff" points="174.18,-94.94 183.78,-90.45 173.48,-87.98 174.18,-94.94"/>
</a>
</g>
</g>
<!-- Node4 -->
<g id="Node000004" class="node">
<title>Node4</title>
<g id="a_Node000004"><a xlink:href="class_qt_pass.html#ad0a4d7627e6303e412d4a832a8bad77c" target="_top" xlink:title="QtPass::init make sure we are ready to go as soon as possible.">
<polygon fill="white" stroke="#666666" points="109.5,-74 38.5,-74 38.5,-55 109.5,-55 109.5,-74"/>
<text text-anchor="middle" x="74" y="-62" font-family="Helvetica,sans-Serif" font-size="10.00">QtPass::init</text>
</a>
</g>
</g>
<!-- Node1&#45;&gt;Node4 -->
<g id="edge5_Node000001_Node000004" class="edge">
<title>Node1&#45;&gt;Node4</title>
<g id="a_edge5_Node000001_Node000004"><a xlink:title=" ">
<path fill="none" stroke="#63b8ff" d="M173.73,-74C151,-71.82 127.85,-69.59 109.69,-67.84"/>
<polygon fill="#63b8ff" stroke="#63b8ff" points="173.49,-77.5 183.78,-74.97 174.16,-70.53 173.49,-77.5"/>
</a>
</g>
</g>
<!-- Node5 -->
<g id="Node000005" class="node">
<title>Node5</title>
<g id="a_Node000005"><a xlink:href="class_main_window.html#a52e97245b2f88492071e639395c4a15a" target="_top" xlink:title="MainWindow::MainWindow handles all of the main functionality and also the main window.">
<polygon fill="white" stroke="#666666" points="148,-19 0,-19 0,0 148,0 148,-19"/>
<text text-anchor="middle" x="74" y="-7" font-family="Helvetica,sans-Serif" font-size="10.00">MainWindow::MainWindow</text>
</a>
</g>
</g>
<!-- Node1&#45;&gt;Node5 -->
<g id="edge6_Node000001_Node000005" class="edge">
<title>Node1&#45;&gt;Node5</title>
<g id="a_edge6_Node000001_Node000005"><a xlink:title=" ">
<path fill="none" stroke="#63b8ff" d="M213.75,-63.67C177.14,-49.37 128.33,-30.32 99.43,-19.04"/>
<polygon fill="#63b8ff" stroke="#63b8ff" points="212.67,-67 223.25,-67.37 215.21,-60.48 212.67,-67"/>
</a>
</g>
</g>
<!-- Node2&#45;&gt;Node2 -->
<g id="edge2_Node000002_Node000002" class="edge">
<title>Node2&#45;&gt;Node2</title>
<g id="a_edge2_Node000002_Node000002"><a xlink:title=" ">
<path fill="none" stroke="#63b8ff" d="M109.23,-174.07C108.72,-179.62 96.97,-184 74,-184 40.59,-184 30.93,-174.73 45.02,-166.08"/>
<polygon fill="#63b8ff" stroke="#63b8ff" points="111.9,-171.8 102.98,-166.08 106.39,-176.11 111.9,-171.8"/>
</a>
</g>
</g>
<!-- Node3&#45;&gt;Node3 -->
<g id="edge4_Node000003_Node000003" class="edge">
<title>Node3&#45;&gt;Node3</title>
<g id="a_edge4_Node000003_Node000003"><a xlink:title=" ">
<path fill="none" stroke="#63b8ff" d="M109.23,-119.07C108.72,-124.62 96.97,-129 74,-129 40.59,-129 30.93,-119.73 45.02,-111.08"/>
<polygon fill="#63b8ff" stroke="#63b8ff" points="111.9,-116.8 102.98,-111.08 106.39,-121.11 111.9,-116.8"/>
</a>
</g>
</g>
<!-- Node5&#45;&gt;Node5 -->
<g id="edge7_Node000005_Node000005" class="edge">
<title>Node5&#45;&gt;Node5</title>
<g id="a_edge7_Node000005_Node000005"><a xlink:title=" ">
<path fill="none" stroke="#63b8ff" d="M109.23,-27.07C108.72,-32.62 96.97,-37 74,-37 40.59,-37 30.93,-27.73 45.02,-19.08"/>
<polygon fill="#63b8ff" stroke="#63b8ff" points="111.9,-24.8 102.98,-19.08 106.39,-29.11 111.9,-24.8"/>
</a>
</g>
</g>
</g>
</svg>
</svg>

<style type='text/css'>
<![CDATA[
[data-mouse-over-selected='false'] { opacity: 0.7; }
[data-mouse-over-selected='true']  { opacity: 1.0; }
]]>
</style>
<script type="application/ecmascript"><![CDATA[
document.addEventListener('DOMContentLoaded', (event) => {
  highlightEdges();
  highlightAdjacentNodes();
});
]]></script>
</svg>
