<?xml version="1.0" encoding="UTF-8" standalone="no"?>
<!DOCTYPE svg PUBLIC "-//W3C//DTD SVG 1.1//EN"
 "http://www.w3.org/Graphics/SVG/1.1/DTD/svg11.dtd">
<!-- Generated by graphviz version 2.43.0 (0)
 -->
<!-- Title: Pass::getGpgIdPath Pages: 1 -->
<!--zoomable 125 -->

<svg id="main" version="1.1" xmlns="http://www.w3.org/2000/svg" xmlns:xlink="http://www.w3.org/1999/xlink" xml:space="preserve" onload="init(evt)">

<style type="text/css"><![CDATA[
.node, .edge {opacity: 0.7;}
.node.selected, .edge.selected {opacity: 1;}
.edge:hover path { stroke: red; }
.edge:hover polygon { stroke: red; fill: red; }
]]></style>

<defs>
  <circle id="rim" cx="0" cy="0" r="7"/>
  <circle id="rim2" cx="0" cy="0" r="3.5"/>
  <g id="zoomPlus">
    <use xlink:href="#rim" fill="#404040"><set attributeName="fill" to="#808080" begin="zoomplus.mouseover" end="zoomplus.mouseout"/></use>
    <path d="M-4,0h8M0,-4v8" fill="none" stroke="white" stroke-width="1.5" pointer-events="none"/>
  </g>
  <g id="zoomMin">
    <use xlink:href="#rim" fill="#404040"><set attributeName="fill" to="#808080" begin="zoomminus.mouseover" end="zoomminus.mouseout"/></use>
    <path d="M-4,0h8" fill="none" stroke="white" stroke-width="1.5" pointer-events="none"/>
  </g>
  <g id="arrowUp" transform="translate(30 24)">
    <use xlink:href="#rim"/>
    <path pointer-events="none" fill="none" stroke="white" stroke-width="1.5" d="M0,-3.0v7 M-2.5,-0.5L0,-3.0L2.5,-0.5"/>
  </g>
  <g id="arrowRight" transform="rotate(90) translate(36 -43)">
    <use xlink:href="#rim"/>
    <path pointer-events="none" fill="none" stroke="white" stroke-width="1.5" d="M0,-3.0v7 M-2.5,-0.5L0,-3.0L2.5,-0.5"/>
  </g>
  <g id="arrowDown" transform="rotate(180) translate(-30 -48)">
    <use xlink:href="#rim"/>
    <path pointer-events="none" fill="none" stroke="white" stroke-width="1.5" d="M0,-3.0v7 M-2.5,-0.5L0,-3.0L2.5,-0.5"/>
  </g>
  <g id="arrowLeft" transform="rotate(270) translate(-36 17)">
    <use xlink:href="#rim"/>
    <path pointer-events="none" fill="none" stroke="white" stroke-width="1.5" d="M0,-3.0v7 M-2.5,-0.5L0,-3.0L2.5,-0.5"/>
  </g>
  <g id="resetDef">
    <use xlink:href="#rim2" fill="#404040"><set attributeName="fill" to="#808080" begin="reset.mouseover" end="reset.mouseout"/></use>
  </g>
</defs>
<script type="application/ecmascript">
var viewWidth = 772;
var viewHeight = 125;
var sectionId = 'dynsection-29';
</script>
<script type="application/ecmascript" xlink:href="svg.min.js"/>
<svg id="graph" class="graph">
<g id="viewport">
<title>Pass::getGpgIdPath</title>
<!-- Node1 -->
<g id="Node000001" class="node">
<title>Node1</title>
<g id="a_Node000001"><a xlink:title="Get .gpg&#45;id file path for a password file.">
<polygon fill="#999999" stroke="#666666" points="764,-79 654,-79 654,-60 764,-60 764,-79"/>
<text text-anchor="middle" x="709" y="-67" font-family="Helvetica,sans-Serif" font-size="10.00">Pass::getGpgIdPath</text>
</a>
</g>
</g>
<!-- Node2 -->
<g id="Node000002" class="node">
<title>Node2</title>
<g id="a_Node000002"><a xlink:href="class_pass.html#a693825d2ad62813cf103860ef6211370" target="_top" xlink:title="Get list of recipients for a password file.">
<polygon fill="white" stroke="#666666" points="618,-79 495,-79 495,-60 618,-60 618,-79"/>
<text text-anchor="middle" x="556.5" y="-67" font-family="Helvetica,sans-Serif" font-size="10.00">Pass::getRecipientList</text>
</a>
</g>
</g>
<!-- Node1&#45;&gt;Node2 -->
<g id="edge1_Node000001_Node000002" class="edge">
<title>Node1&#45;&gt;Node2</title>
<g id="a_edge1_Node000001_Node000002"><a xlink:title=" ">
<path fill="none" stroke="#63b8ff" d="M643.51,-69.5C635.09,-69.5 626.49,-69.5 618.13,-69.5"/>
<polygon fill="#63b8ff" stroke="#63b8ff" points="643.67,-73 653.67,-69.5 643.67,-66 643.67,-73"/>
</a>
</g>
</g>
<!-- Node4 -->
<g id="Node000004" class="node">
<title>Node4</title>
<g id="a_Node000004"><a xlink:href="class_imitate_pass.html#a84de97293ca1a100b1e466b4a79ec601" target="_top" xlink:title="Insert new password.">
<polygon fill="white" stroke="#666666" points="444.5,-117 337.5,-117 337.5,-98 444.5,-98 444.5,-117"/>
<text text-anchor="middle" x="391" y="-105" font-family="Helvetica,sans-Serif" font-size="10.00">ImitatePass::Insert</text>
</a>
</g>
</g>
<!-- Node1&#45;&gt;Node4 -->
<g id="edge8_Node000001_Node000004" class="edge">
<title>Node1&#45;&gt;Node4</title>
<g id="a_edge8_Node000001_Node000004"><a xlink:title=" ">
<path fill="none" stroke="#63b8ff" d="M655.13,-81.07C642.98,-83.46 630.08,-85.76 618,-87.5 558.93,-95.99 490.63,-101.44 444.7,-104.47"/>
<polygon fill="#63b8ff" stroke="#63b8ff" points="656.02,-84.47 665.13,-79.07 654.64,-77.6 656.02,-84.47"/>
</a>
</g>
</g>
<!-- Node5 -->
<g id="Node000005" class="node">
<title>Node5</title>
<g id="a_Node000005"><a xlink:href="class_imitate_pass.html#a7af6102fa60b3267bd1e387e7cfd82af" target="_top" xlink:title="Verify .gpg&#45;id file for a directory.">
<polygon fill="white" stroke="#666666" points="459,-42.5 323,-42.5 323,-12.5 459,-12.5 459,-42.5"/>
<text text-anchor="start" x="331" y="-30.5" font-family="Helvetica,sans-Serif" font-size="10.00">ImitatePass::verifyGpgId</text>
<text text-anchor="middle" x="391" y="-19.5" font-family="Helvetica,sans-Serif" font-size="10.00">ForDir</text>
</a>
</g>
</g>
<!-- Node1&#45;&gt;Node5 -->
<g id="edge9_Node000001_Node000005" class="edge">
<title>Node1&#45;&gt;Node5</title>
<g id="a_edge9_Node000001_Node000005"><a xlink:title=" ">
<path fill="none" stroke="#63b8ff" d="M657.38,-57.82C644.58,-55.15 630.82,-52.5 618,-50.5 565,-42.23 504.53,-36.26 459.49,-32.47"/>
<polygon fill="#63b8ff" stroke="#63b8ff" points="656.89,-61.3 667.4,-59.97 658.35,-54.45 656.89,-61.3"/>
</a>
</g>
</g>
<!-- Node3 -->
<g id="Node000003" class="node">
<title>Node3</title>
<g id="a_Node000003"><a xlink:href="class_pass.html#ae1f31c62b7117b99882625dbef654533" target="_top" xlink:title="Get recipients as string.">
<polygon fill="white" stroke="#666666" points="458,-80 324,-80 324,-61 458,-61 458,-80"/>
<text text-anchor="middle" x="391" y="-68" font-family="Helvetica,sans-Serif" font-size="10.00">Pass::getRecipientString</text>
</a>
</g>
</g>
<!-- Node2&#45;&gt;Node3 -->
<g id="edge2_Node000002_Node000003" class="edge">
<title>Node2&#45;&gt;Node3</title>
<g id="a_edge2_Node000002_Node000003"><a xlink:title=" ">
<path fill="none" stroke="#63b8ff" d="M484.46,-69.93C475.72,-69.99 466.81,-70.04 458.14,-70.1"/>
<polygon fill="#63b8ff" stroke="#63b8ff" points="484.64,-73.43 494.62,-69.87 484.6,-66.43 484.64,-73.43"/>
</a>
</g>
</g>
<!-- Node2&#45;&gt;Node4 -->
<g id="edge3_Node000002_Node000004" class="edge">
<title>Node2&#45;&gt;Node4</title>
<g id="a_edge3_Node000002_Node000004"><a xlink:title=" ">
<path fill="none" stroke="#63b8ff" d="M504.32,-81.4C481.33,-86.74 454.59,-92.95 432.96,-97.98"/>
<polygon fill="#63b8ff" stroke="#63b8ff" points="505.29,-84.76 514.24,-79.09 503.71,-77.94 505.29,-84.76"/>
</a>
</g>
</g>
<!-- Node2&#45;&gt;Node5 -->
<g id="edge4_Node000002_Node000005" class="edge">
<title>Node2&#45;&gt;Node5</title>
<g id="a_edge4_Node000002_Node000005"><a xlink:title=" ">
<path fill="none" stroke="#63b8ff" d="M508.64,-57.46C490.5,-52.8 469.55,-47.42 450.44,-42.51"/>
<polygon fill="#63b8ff" stroke="#63b8ff" points="507.84,-60.87 518.4,-59.97 509.58,-54.09 507.84,-60.87"/>
</a>
</g>
</g>
<!-- Node6 -->
<g id="Node000006" class="node">
<title>Node6</title>
<g id="a_Node000006"><a xlink:href="class_imitate_pass.html#af331446d163c31f1fca714646c0f6244" target="_top" xlink:title="Re&#45;encrypt entire directory.">
<polygon fill="white" stroke="#666666" points="287,-37 140,-37 140,-18 287,-18 287,-37"/>
<text text-anchor="middle" x="213.5" y="-25" font-family="Helvetica,sans-Serif" font-size="10.00">ImitatePass::reencryptPath</text>
</a>
</g>
</g>
<!-- Node5&#45;&gt;Node6 -->
<g id="edge5_Node000005_Node000006" class="edge">
<title>Node5&#45;&gt;Node6</title>
<g id="a_edge5_Node000005_Node000006"><a xlink:title=" ">
<path fill="none" stroke="#63b8ff" d="M312.64,-27.5C304.15,-27.5 295.54,-27.5 287.11,-27.5"/>
<polygon fill="#63b8ff" stroke="#63b8ff" points="312.9,-31 322.9,-27.5 312.9,-24 312.9,-31"/>
</a>
</g>
</g>
<!-- Node7 -->
<g id="Node000007" class="node">
<title>Node7</title>
<g id="a_Node000007"><a xlink:href="class_imitate_pass.html#a97538d83d4f6a583f840db0865e8609a" target="_top" xlink:title="Copy password file.">
<polygon fill="white" stroke="#666666" points="104,-56 0,-56 0,-37 104,-37 104,-56"/>
<text text-anchor="middle" x="52" y="-44" font-family="Helvetica,sans-Serif" font-size="10.00">ImitatePass::Copy</text>
</a>
</g>
</g>
<!-- Node6&#45;&gt;Node7 -->
<g id="edge6_Node000006_Node000007" class="edge">
<title>Node6&#45;&gt;Node7</title>
<g id="a_edge6_Node000006_Node000007"><a xlink:title=" ">
<path fill="none" stroke="#63b8ff" d="M129.6,-37.37C120.96,-38.4 112.36,-39.43 104.22,-40.4"/>
<polygon fill="#63b8ff" stroke="#63b8ff" points="130.24,-40.82 139.75,-36.17 129.41,-33.87 130.24,-40.82"/>
</a>
</g>
</g>
<!-- Node8 -->
<g id="Node000008" class="node">
<title>Node8</title>
<g id="a_Node000008"><a xlink:href="class_imitate_pass.html#a6fe6b48df3fb04071c8c2c1d5c1d1206" target="_top" xlink:title="Initialize store.">
<polygon fill="white" stroke="#666666" points="99.5,-19 4.5,-19 4.5,0 99.5,0 99.5,-19"/>
<text text-anchor="middle" x="52" y="-7" font-family="Helvetica,sans-Serif" font-size="10.00">ImitatePass::Init</text>
</a>
</g>
</g>
<!-- Node6&#45;&gt;Node8 -->
<g id="edge7_Node000006_Node000008" class="edge">
<title>Node6&#45;&gt;Node8</title>
<g id="a_edge7_Node000006_Node000008"><a xlink:title=" ">
<path fill="none" stroke="#63b8ff" d="M129.5,-18.13C119.24,-16.98 109.05,-15.83 99.62,-14.76"/>
<polygon fill="#63b8ff" stroke="#63b8ff" points="129.42,-21.65 139.75,-19.29 130.21,-14.69 129.42,-21.65"/>
</a>
</g>
</g>
</g>
</svg>

<g id="navigator" transform="translate(0 0)" fill="#404254">
  <rect fill="#f2f5e9" fill-opacity="0.5" stroke="#606060" stroke-width=".5" x="0" y="0" width="60" height="60"/>
  <use id="zoomplus" xlink:href="#zoomPlus" x="17" y="9" onmousedown="handleZoom(evt,'in')"/>
  <use id="zoomminus" xlink:href="#zoomMin" x="42" y="9" onmousedown="handleZoom(evt,'out')"/>
  <use id="reset" xlink:href="#resetDef" x="30" y="36" onmousedown="handleReset()"/>
   <use id="arrowup" xlink:href="#arrowUp" x="0" y="0" onmousedown="handlePan(0,-1)"/>
  <use id="arrowright" xlink:href="#arrowRight" x="0" y="0" onmousedown="handlePan(1,0)"/>
  <use id="arrowdown" xlink:href="#arrowDown" x="0" y="0" onmousedown="handlePan(0,1)"/>
  <use id="arrowleft" xlink:href="#arrowLeft" x="0" y="0" onmousedown="handlePan(-1,0)"/>
</g>
<svg viewBox="0 0 15 15" width="100%" height="30px" preserveAspectRatio="xMaxYMin meet">
 <g id="arrow_out" transform="scale(0.3 0.3)">
  <a xlink:href="class_pass_a7bab4c97e4a327cc34060a67c09959bf_icgraph_org.svg" target="_base">
   <rect id="button" ry="5" rx="5" y="6" x="6" height="38" width="38"
        fill="#f2f5e9" fill-opacity="0.5" stroke="#606060" stroke-width="1.0"/>
   <path id="arrow"
     d="M 11.500037,31.436501 C 11.940474,20.09759 22.043105,11.32322 32.158766,21.979434 L 37.068811,17.246167 C 37.068811,17.246167 37.088388,32 37.088388,32 L 22.160133,31.978069 C 22.160133,31.978069 26.997745,27.140456 26.997745,27.140456 C 18.528582,18.264221 13.291696,25.230495 11.500037,31.436501 z"
     style="fill:#404040;"/>
  </a>
 </g>
</svg>

<style type='text/css'>
<![CDATA[
[data-mouse-over-selected='false'] { opacity: 0.7; }
[data-mouse-over-selected='true']  { opacity: 1.0; }
]]>
</style>
<script type="application/ecmascript"><![CDATA[
document.addEventListener('DOMContentLoaded', (event) => {
  highlightEdges();
  highlightAdjacentNodes();
});
]]></script>
</svg>
