<?xml version="1.0" encoding="UTF-8" standalone="no"?>
<!DOCTYPE svg PUBLIC "-//W3C//DTD SVG 1.1//EN"
 "http://www.w3.org/Graphics/SVG/1.1/DTD/svg11.dtd">
<!-- Generated by graphviz version 2.40.1 (20161225.0304)
 -->
<!-- Title: QProgressIndicator::setColor Pages: 1 -->
<!--zoomable 382 -->
<svg id="main" version="1.1" xmlns="http://www.w3.org/2000/svg" xmlns:xlink="http://www.w3.org/1999/xlink" xml:space="preserve" onload="init(evt)">
<style type="text/css"><![CDATA[
.edge:hover path { stroke: red; }
.edge:hover polygon { stroke: red; fill: red; }
]]></style>
<script type="text/javascript"><![CDATA[
var edges = document.getElementsByTagName('g');
if (edges && edges.length) {
  for (var i=0;i<edges.length;i++) {
    if (edges[i].id.substr(0,4)=='edge') {
      edges[i].setAttribute('class','edge');
    }
  }
}
]]></script>
        <defs>
                <circle id="rim" cx="0" cy="0" r="7"/>
                <circle id="rim2" cx="0" cy="0" r="3.5"/>
                <g id="zoomPlus">
                        <use xlink:href="#rim" fill="#404040">
                                <set attributeName="fill" to="#808080" begin="zoomplus.mouseover" end="zoomplus.mouseout"/>
                        </use>
                        <path d="M-4,0h8M0,-4v8" fill="none" stroke="white" stroke-width="1.5" pointer-events="none"/>
                </g>
                <g id="zoomMin">
                        <use xlink:href="#rim" fill="#404040">
                                <set attributeName="fill" to="#808080" begin="zoomminus.mouseover" end="zoomminus.mouseout"/>
                        </use>
                        <path d="M-4,0h8" fill="none" stroke="white" stroke-width="1.5" pointer-events="none"/>
                </g>
                <g id="dirArrow">
                        <path fill="none" stroke="white" stroke-width="1.5" d="M0,-3.0v7 M-2.5,-0.5L0,-3.0L2.5,-0.5"/>
                </g>
               <g id="resetDef">
                       <use xlink:href="#rim2" fill="#404040">
                               <set attributeName="fill" to="#808080" begin="reset.mouseover" end="reset.mouseout"/>
                       </use>
               </g>
        </defs>

<script type="text/javascript">
var viewWidth = 560;
var viewHeight = 382;
var sectionId = 'dynsection-11';
</script>
<script xlink:href="svgpan.js"/>
<svg id="graph" class="graph">
<g id="viewport">
<title>QProgressIndicator::setColor</title>
<!-- Node53 -->
<g id="node1" class="node">
<title>Node53</title>
<polygon fill="#bfbfbf" stroke="#000000" points="0,-147.5 0,-177.5 101,-177.5 101,-147.5 0,-147.5"/>
<text text-anchor="start" x="8" y="-165.5" font-family="Helvetica,sans-Serif" font-size="10.00" fill="#000000">QProgressIndicator</text>
<text text-anchor="middle" x="50.5" y="-154.5" font-family="Helvetica,sans-Serif" font-size="10.00" fill="#000000">::setColor</text>
</g>
<!-- Node54 -->
<g id="node2" class="node">
<title>Node54</title>
<g id="a_node2"><a xlink:href="class_q_progress_indicator.html#afdc92dfc35132dadcce9fd45adc51c65" target="_top" xlink:title="Returns the color of the component. ">
<polygon fill="none" stroke="#000000" points="137,-147.5 137,-177.5 238,-177.5 238,-147.5 137,-147.5"/>
<text text-anchor="start" x="145" y="-165.5" font-family="Helvetica,sans-Serif" font-size="10.00" fill="#000000">QProgressIndicator</text>
<text text-anchor="middle" x="187.5" y="-154.5" font-family="Helvetica,sans-Serif" font-size="10.00" fill="#000000">::color</text>
</a>
</g>
</g>
<!-- Node53&#45;&gt;Node54 -->
<g id="edge1" class="edge">
<title>Node53&#45;&gt;Node54</title>
<path fill="none" stroke="#191970" d="M101.1245,-155.9586C109.3614,-155.7623 117.969,-155.7045 126.4239,-155.7854"/>
<polygon fill="#191970" stroke="#191970" points="126.5701,-159.2881 136.6262,-155.9527 126.685,-152.2891 126.5701,-159.2881"/>
</g>
<!-- Node54&#45;&gt;Node53 -->
<g id="edge8" class="edge">
<title>Node54&#45;&gt;Node53</title>
<path fill="none" stroke="#191970" d="M136.6262,-169.0473C128.3819,-169.2408 119.7722,-169.2958 111.3203,-169.2122"/>
<polygon fill="#191970" stroke="#191970" points="111.1817,-165.7094 101.1245,-169.0414 111.0645,-172.7085 111.1817,-165.7094"/>
</g>
<!-- Node55 -->
<g id="node3" class="node">
<title>Node55</title>
<g id="a_node3"><a xlink:href="class_q_progress_indicator.html#a9c40197f0b508b4ff76439e1a3fc9d8d" target="_top" xlink:title="QProgressIndicator::sizeHint default minimum size. ">
<polygon fill="none" stroke="#000000" points="294,-343.5 294,-373.5 395,-373.5 395,-343.5 294,-343.5"/>
<text text-anchor="start" x="302" y="-361.5" font-family="Helvetica,sans-Serif" font-size="10.00" fill="#000000">QProgressIndicator</text>
<text text-anchor="middle" x="344.5" y="-350.5" font-family="Helvetica,sans-Serif" font-size="10.00" fill="#000000">::sizeHint</text>
</a>
</g>
</g>
<!-- Node54&#45;&gt;Node55 -->
<g id="edge2" class="edge">
<title>Node54&#45;&gt;Node55</title>
<path fill="none" stroke="#191970" d="M190.932,-177.5368C199.2713,-210.7137 223.7132,-290.7079 274,-334.5 277.2359,-337.318 280.8177,-339.8087 284.6012,-342.0096"/>
<polygon fill="#191970" stroke="#191970" points="283.226,-345.2364 293.7279,-346.6367 286.3914,-338.993 283.226,-345.2364"/>
</g>
<!-- Node56 -->
<g id="node4" class="node">
<title>Node56</title>
<g id="a_node4"><a xlink:href="class_q_progress_indicator.html#adf5a0a0297ca8a78e601085d2283d183" target="_top" xlink:title="QProgressIndicator::heightForWidth square ratio. ">
<polygon fill="none" stroke="#000000" points="294,-294.5 294,-324.5 395,-324.5 395,-294.5 294,-294.5"/>
<text text-anchor="start" x="302" y="-312.5" font-family="Helvetica,sans-Serif" font-size="10.00" fill="#000000">QProgressIndicator</text>
<text text-anchor="middle" x="344.5" y="-301.5" font-family="Helvetica,sans-Serif" font-size="10.00" fill="#000000">::heightForWidth</text>
</a>
</g>
</g>
<!-- Node54&#45;&gt;Node56 -->
<g id="edge3" class="edge">
<title>Node54&#45;&gt;Node56</title>
<path fill="none" stroke="#191970" d="M194.2532,-177.6959C206.4836,-203.5316 234.722,-256.0719 274,-285.5 277.3758,-288.0293 281.0362,-290.3036 284.8538,-292.347"/>
<polygon fill="#191970" stroke="#191970" points="283.4547,-295.5574 293.987,-296.707 286.4703,-289.2403 283.4547,-295.5574"/>
</g>
<!-- Node57 -->
<g id="node5" class="node">
<title>Node57</title>
<g id="a_node5"><a xlink:href="class_q_progress_indicator.html#a53aa626e870ee75390766c6044788d06" target="_top" xlink:title="Starts the spin animation. ">
<polygon fill="none" stroke="#000000" points="294,-245.5 294,-275.5 395,-275.5 395,-245.5 294,-245.5"/>
<text text-anchor="start" x="302" y="-263.5" font-family="Helvetica,sans-Serif" font-size="10.00" fill="#000000">QProgressIndicator</text>
<text text-anchor="middle" x="344.5" y="-252.5" font-family="Helvetica,sans-Serif" font-size="10.00" fill="#000000">::startAnimation</text>
</a>
</g>
</g>
<!-- Node54&#45;&gt;Node57 -->
<g id="edge4" class="edge">
<title>Node54&#45;&gt;Node57</title>
<path fill="none" stroke="#191970" d="M201.7792,-177.7844C217.9235,-194.2821 245.6675,-220.3569 274,-236.5 277.3789,-238.4252 280.9371,-240.2293 284.5857,-241.9143"/>
<polygon fill="#191970" stroke="#191970" points="283.2206,-245.1371 293.7909,-245.858 285.9773,-238.7027 283.2206,-245.1371"/>
</g>
<!-- Node58 -->
<g id="node6" class="node">
<title>Node58</title>
<g id="a_node6"><a xlink:href="class_q_progress_indicator.html#a27ea54a92ade9c85761918cb98c96f95" target="_top" xlink:title="Stops the spin animation. ">
<polygon fill="none" stroke="#000000" points="294,-196.5 294,-226.5 395,-226.5 395,-196.5 294,-196.5"/>
<text text-anchor="start" x="302" y="-214.5" font-family="Helvetica,sans-Serif" font-size="10.00" fill="#000000">QProgressIndicator</text>
<text text-anchor="middle" x="344.5" y="-203.5" font-family="Helvetica,sans-Serif" font-size="10.00" fill="#000000">::stopAnimation</text>
</a>
</g>
</g>
<!-- Node54&#45;&gt;Node58 -->
<g id="edge5" class="edge">
<title>Node54&#45;&gt;Node58</title>
<path fill="none" stroke="#191970" d="M235.8862,-177.6014C251.9287,-182.6083 269.9488,-188.2324 286.631,-193.439"/>
<polygon fill="#191970" stroke="#191970" points="285.6849,-196.8101 296.2735,-196.4484 287.7704,-190.128 285.6849,-196.8101"/>
</g>
<!-- Node59 -->
<g id="node7" class="node">
<title>Node59</title>
<g id="a_node7"><a xlink:href="class_q_progress_indicator.html#acf826f02de241cb47fa329bf437d450d" target="_top" xlink:title="Sets the delay between animation steps. ">
<polygon fill="none" stroke="#000000" points="292,-147.5 292,-177.5 397,-177.5 397,-147.5 292,-147.5"/>
<text text-anchor="start" x="300" y="-165.5" font-family="Helvetica,sans-Serif" font-size="10.00" fill="#000000">QProgressIndicator</text>
<text text-anchor="middle" x="344.5" y="-154.5" font-family="Helvetica,sans-Serif" font-size="10.00" fill="#000000">::setAnimationDelay</text>
</a>
</g>
</g>
<!-- Node54&#45;&gt;Node59 -->
<g id="edge6" class="edge">
<title>Node54&#45;&gt;Node59</title>
<path fill="none" stroke="#191970" d="M238.04,-162.5C251.8895,-162.5 267.0746,-162.5 281.5282,-162.5"/>
<polygon fill="#191970" stroke="#191970" points="281.8938,-166.0001 291.8938,-162.5 281.8937,-159.0001 281.8938,-166.0001"/>
</g>
<!-- Node60 -->
<g id="node8" class="node">
<title>Node60</title>
<g id="a_node8"><a xlink:href="class_q_progress_indicator.html#ab50e609e706868a0cd28caee364c3d13" target="_top" xlink:title="Sets whether the component hides itself when it is not animating. ">
<polygon fill="none" stroke="#000000" points="274,-98.5 274,-128.5 415,-128.5 415,-98.5 274,-98.5"/>
<text text-anchor="start" x="282" y="-116.5" font-family="Helvetica,sans-Serif" font-size="10.00" fill="#000000">QProgressIndicator</text>
<text text-anchor="middle" x="344.5" y="-105.5" font-family="Helvetica,sans-Serif" font-size="10.00" fill="#000000">::setDisplayedWhenStopped</text>
</a>
</g>
</g>
<!-- Node54&#45;&gt;Node60 -->
<g id="edge7" class="edge">
<title>Node54&#45;&gt;Node60</title>
<path fill="none" stroke="#191970" d="M235.8862,-147.3986C251.9287,-142.3917 269.9488,-136.7676 286.631,-131.561"/>
<polygon fill="#191970" stroke="#191970" points="287.7704,-134.872 296.2735,-128.5516 285.6849,-128.1899 287.7704,-134.872"/>
</g>
<!-- Node61 -->
<g id="node9" class="node">
<title>Node61</title>
<g id="a_node9"><a xlink:href="class_q_progress_indicator.html#a121c7de89fecff682c45d2adee60310d" target="_top" xlink:title="QProgressIndicator::timerEvent do the actual animation. ">
<polygon fill="none" stroke="#000000" points="294,-49.5 294,-79.5 395,-79.5 395,-49.5 294,-49.5"/>
<text text-anchor="start" x="302" y="-67.5" font-family="Helvetica,sans-Serif" font-size="10.00" fill="#000000">QProgressIndicator</text>
<text text-anchor="middle" x="344.5" y="-56.5" font-family="Helvetica,sans-Serif" font-size="10.00" fill="#000000">::timerEvent</text>
</a>
</g>
</g>
<!-- Node54&#45;&gt;Node61 -->
<g id="edge9" class="edge">
<title>Node54&#45;&gt;Node61</title>
<path fill="none" stroke="#191970" d="M202.1545,-147.206C218.4091,-130.9859 246.0469,-105.5371 274,-89.5 277.6749,-87.3916 281.5582,-85.4146 285.537,-83.5697"/>
<polygon fill="#191970" stroke="#191970" points="287.1506,-86.6853 294.9413,-79.5051 284.3734,-80.2598 287.1506,-86.6853"/>
</g>
<!-- Node62 -->
<g id="node10" class="node">
<title>Node62</title>
<g id="a_node10"><a xlink:href="class_q_progress_indicator.html#a38d3e8644a4e74d892b42270c9b6ae8f" target="_top" xlink:title="QProgressIndicator::paintEvent draw the spinner. ">
<polygon fill="none" stroke="#000000" points="294,-.5 294,-30.5 395,-30.5 395,-.5 294,-.5"/>
<text text-anchor="start" x="302" y="-18.5" font-family="Helvetica,sans-Serif" font-size="10.00" fill="#000000">QProgressIndicator</text>
<text text-anchor="middle" x="344.5" y="-7.5" font-family="Helvetica,sans-Serif" font-size="10.00" fill="#000000">::paintEvent</text>
</a>
</g>
</g>
<!-- Node54&#45;&gt;Node62 -->
<g id="edge10" class="edge">
<title>Node54&#45;&gt;Node62</title>
<path fill="none" stroke="#191970" d="M192.1605,-147.3279C203.0831,-119.665 232.5795,-62.8191 274,-31.5 277.3795,-28.9447 281.0426,-26.6347 284.8622,-24.5675"/>
<polygon fill="#191970" stroke="#191970" points="286.4968,-27.6653 293.9986,-20.1838 283.4686,-21.3542 286.4968,-27.6653"/>
</g>
<!-- Node62&#45;&gt;Node54 -->
<g id="edge12" class="edge">
<title>Node62&#45;&gt;Node54</title>
<path fill="none" stroke="#191970" d="M312.6277,-30.6231C299.7477,-35.1632 285.2908,-40.9627 274,-49.5 242.09,-73.628 217.257,-112.9061 202.5415,-138.3952"/>
<polygon fill="#191970" stroke="#191970" points="199.4871,-136.686 197.5833,-147.1084 205.5711,-140.148 199.4871,-136.686"/>
</g>
<!-- Node63 -->
<g id="node11" class="node">
<title>Node63</title>
<g id="a_node11"><a xlink:href="class_q_progress_indicator.html#aa145f555e2d7c48ecdd1517a7addf080" target="_top" xlink:title="Returns a Boolean value indicating whether the component is currently animated. ">
<polygon fill="none" stroke="#000000" points="451,-.5 451,-30.5 552,-30.5 552,-.5 451,-.5"/>
<text text-anchor="start" x="459" y="-18.5" font-family="Helvetica,sans-Serif" font-size="10.00" fill="#000000">QProgressIndicator</text>
<text text-anchor="middle" x="501.5" y="-7.5" font-family="Helvetica,sans-Serif" font-size="10.00" fill="#000000">::isAnimated</text>
</a>
</g>
</g>
<!-- Node62&#45;&gt;Node63 -->
<g id="edge11" class="edge">
<title>Node62&#45;&gt;Node63</title>
<path fill="none" stroke="#191970" d="M395.04,-15.5C409.5338,-15.5 425.4904,-15.5 440.5404,-15.5"/>
<polygon fill="#191970" stroke="#191970" points="440.7858,-19.0001 450.7857,-15.5 440.7857,-12.0001 440.7858,-19.0001"/>
</g>
</g>
</svg>
        <g id="navigator" transform="translate(0 0)" fill="#404254">
                <rect fill="#f2f5e9" fill-opacity="0.5" stroke="#606060" stroke-width=".5" x="0" y="0" width="60" height="60"/>
                <use id="zoomplus" xlink:href="#zoomPlus" x="17" y="9" onmousedown="handleZoom(evt,'in')"/>
                <use id="zoomminus" xlink:href="#zoomMin" x="42" y="9" onmousedown="handleZoom(evt,'out')"/>
                <use id="reset" xlink:href="#resetDef" x="30" y="36" onmousedown="handleReset()"/>
                <g id="arrowUp" xlink:href="#dirArrow" transform="translate(30 24)" onmousedown="handlePan(0,-1)">
                  <use xlink:href="#rim" fill="#404040">
                        <set attributeName="fill" to="#808080" begin="arrowUp.mouseover" end="arrowUp.mouseout"/>
                  </use>
                  <path fill="none" stroke="white" stroke-width="1.5" d="M0,-3.0v7 M-2.5,-0.5L0,-3.0L2.5,-0.5"/>
                </g>
                <g id="arrowRight" xlink:href="#dirArrow" transform="rotate(90) translate(36 -43)" onmousedown="handlePan(1,0)">
                  <use xlink:href="#rim" fill="#404040">
                        <set attributeName="fill" to="#808080" begin="arrowRight.mouseover" end="arrowRight.mouseout"/>
                  </use>
                  <path fill="none" stroke="white" stroke-width="1.5" d="M0,-3.0v7 M-2.5,-0.5L0,-3.0L2.5,-0.5"/>
                </g>
                <g id="arrowDown" xlink:href="#dirArrow" transform="rotate(180) translate(-30 -48)" onmousedown="handlePan(0,1)">
                  <use xlink:href="#rim" fill="#404040">
                        <set attributeName="fill" to="#808080" begin="arrowDown.mouseover" end="arrowDown.mouseout"/>
                  </use>
                  <path fill="none" stroke="white" stroke-width="1.5" d="M0,-3.0v7 M-2.5,-0.5L0,-3.0L2.5,-0.5"/>
                </g>
                <g id="arrowLeft" xlink:href="#dirArrow" transform="rotate(270) translate(-36 17)" onmousedown="handlePan(-1,0)">
                  <use xlink:href="#rim" fill="#404040">
                        <set attributeName="fill" to="#808080" begin="arrowLeft.mouseover" end="arrowLeft.mouseout"/>
                  </use>
                  <path fill="none" stroke="white" stroke-width="1.5" d="M0,-3.0v7 M-2.5,-0.5L0,-3.0L2.5,-0.5"/>
                </g>
        </g>
        <svg viewBox="0 0 15 15" width="100%" height="30px" preserveAspectRatio="xMaxYMin meet">
         <g id="arrow_out" transform="scale(0.3 0.3)">
          <a xlink:href="class_q_progress_indicator_a62161c81afb5ce019e9a7a55c69e3654_cgraph_org.svg" target="_base">
           <rect id="button" ry="5" rx="5" y="6" x="6" height="38" width="38"
                fill="#f2f5e9" fill-opacity="0.5" stroke="#606060" stroke-width="1.0"/>
           <path id="arrow"
             d="M 11.500037,31.436501 C 11.940474,20.09759 22.043105,11.32322 32.158766,21.979434 L 37.068811,17.246167 C 37.068811,17.246167 37.088388,32 37.088388,32 L 22.160133,31.978069 C 22.160133,31.978069 26.997745,27.140456 26.997745,27.140456 C 18.528582,18.264221 13.291696,25.230495 11.500037,31.436501 z"
             style="fill:#404040;"/>
          </a>
         </g>
        </svg>
</svg>
