<?xml version="1.0" encoding="UTF-8" standalone="no"?>
<!DOCTYPE svg PUBLIC "-//W3C//DTD SVG 1.1//EN"
 "http://www.w3.org/Graphics/SVG/1.1/DTD/svg11.dtd">
<!-- Generated by graphviz version 2.38.0 (20140413.2041)
 -->
<!-- Title: QtPassSettings::isUseAutoclearPanel Pages: 1 -->
<svg width="677pt" height="64pt"
 viewBox="0.00 0.00 677.42 64.00" xmlns="http://www.w3.org/2000/svg" xmlns:xlink="http://www.w3.org/1999/xlink">
<g id="graph0" class="graph" transform="scale(1 1) rotate(0) translate(4 60)">
<title>QtPassSettings::isUseAutoclearPanel</title>
<!-- Node307 -->
<g id="node1" class="node"><title>Node307</title>
<polygon fill="#bfbfbf" stroke="black" points="0,-13.5 0,-41.5 157.729,-41.5 157.729,-13.5 0,-13.5"/>
<text text-anchor="start" x="8" y="-29.5" font-family="Helvetica,sans-Serif" font-size="10.00">QtPassSettings::isUseAutoclear</text>
<text text-anchor="middle" x="78.8643" y="-19.5" font-family="Helvetica,sans-Serif" font-size="10.00">Panel</text>
</g>
<!-- Node308 -->
<g id="node2" class="node"><title>Node308</title>
<g id="a_node2"><a xlink:href="class_main_window.html#aeb8091ab5531144b76c1fbb0d63deb56" target="_top" xlink:title="MainWindow::config pops up the configuration screen and handles all inter&#45;window communication. ">
<polygon fill="none" stroke="black" points="193.729,-37.5 193.729,-55.5 299.211,-55.5 299.211,-37.5 193.729,-37.5"/>
<text text-anchor="middle" x="246.47" y="-43.5" font-family="Helvetica,sans-Serif" font-size="10.00">MainWindow::config</text>
</a>
</g>
</g>
<!-- Node307&#45;&gt;Node308 -->
<g id="edge1" class="edge"><title>Node307&#45;&gt;Node308</title>
<path fill="none" stroke="midnightblue" d="M168.02,-37.6142C176.7,-38.6101 185.302,-39.5969 193.44,-40.5306"/>
<polygon fill="midnightblue" stroke="midnightblue" points="168.152,-34.1064 157.818,-36.4436 167.354,-41.0607 168.152,-34.1064"/>
</g>
<!-- Node311 -->
<g id="node5" class="node"><title>Node311</title>
<g id="a_node5"><a xlink:href="class_main_window.html#a4680b2cbcfd388683a98303f29c0f84f" target="_top" xlink:title="MainWindow::executePassGitInit git init wrapper. ">
<polygon fill="none" stroke="black" points="335.211,-0.5 335.211,-18.5 497.383,-18.5 497.383,-0.5 335.211,-0.5"/>
<text text-anchor="middle" x="416.297" y="-6.5" font-family="Helvetica,sans-Serif" font-size="10.00">MainWindow::executePassGitInit</text>
</a>
</g>
</g>
<!-- Node307&#45;&gt;Node311 -->
<g id="edge6" class="edge"><title>Node307&#45;&gt;Node311</title>
<path fill="none" stroke="midnightblue" d="M168.258,-22.7566C220.038,-19.978 284.925,-16.496 335.203,-13.798"/>
<polygon fill="midnightblue" stroke="midnightblue" points="167.883,-19.2716 158.085,-23.3025 168.258,-26.2615 167.883,-19.2716"/>
</g>
<!-- Node309 -->
<g id="node3" class="node"><title>Node309</title>
<g id="a_node3"><a xlink:href="class_main_window.html#a23d2783cb61a373c4b0127970264290a" target="_top" xlink:title="MainWindow::checkConfig make sure we are ready to go as soon as possible. ">
<polygon fill="none" stroke="black" points="349.383,-37.5 349.383,-55.5 483.21,-55.5 483.21,-37.5 349.383,-37.5"/>
<text text-anchor="middle" x="416.297" y="-43.5" font-family="Helvetica,sans-Serif" font-size="10.00">MainWindow::checkConfig</text>
</a>
</g>
</g>
<!-- Node308&#45;&gt;Node309 -->
<g id="edge2" class="edge"><title>Node308&#45;&gt;Node309</title>
<path fill="none" stroke="midnightblue" d="M309.783,-46.5C322.641,-46.5 336.226,-46.5 349.214,-46.5"/>
<polygon fill="midnightblue" stroke="midnightblue" points="309.651,-43.0001 299.651,-46.5 309.651,-50.0001 309.651,-43.0001"/>
</g>
<!-- Node308&#45;&gt;Node311 -->
<g id="edge4" class="edge"><title>Node308&#45;&gt;Node311</title>
<path fill="none" stroke="midnightblue" d="M298.314,-35.2907C322.672,-29.9206 351.455,-23.5749 374.375,-18.5218"/>
<polygon fill="midnightblue" stroke="midnightblue" points="297.537,-31.8778 288.525,-37.4488 299.044,-38.7137 297.537,-31.8778"/>
</g>
<!-- Node310 -->
<g id="node4" class="node"><title>Node310</title>
<g id="a_node4"><a xlink:href="class_main_window.html#a8b244be8b7b7db1b08de2a2acb9409db" target="_top" xlink:title="MainWindow::MainWindow handles all of the main functionality and also the main window. ">
<polygon fill="none" stroke="black" points="533.383,-37.5 533.383,-55.5 669.422,-55.5 669.422,-37.5 533.383,-37.5"/>
<text text-anchor="middle" x="601.402" y="-43.5" font-family="Helvetica,sans-Serif" font-size="10.00">MainWindow::MainWindow</text>
</a>
</g>
</g>
<!-- Node309&#45;&gt;Node310 -->
<g id="edge3" class="edge"><title>Node309&#45;&gt;Node310</title>
<path fill="none" stroke="midnightblue" d="M493.777,-46.5C506.853,-46.5 520.35,-46.5 533.163,-46.5"/>
<polygon fill="midnightblue" stroke="midnightblue" points="493.402,-43.0001 483.402,-46.5 493.402,-50.0001 493.402,-43.0001"/>
</g>
<!-- Node312 -->
<g id="node6" class="node"><title>Node312</title>
<g id="a_node6"><a xlink:href="class_config_dialog.html#ad5b80066591f19fdaaa06b7cb5ba7f15" target="_top" xlink:title="ConfigDialog::wizard first&#45;time use wizard. ">
<polygon fill="none" stroke="black" points="547.548,-0.5 547.548,-18.5 655.257,-18.5 655.257,-0.5 547.548,-0.5"/>
<text text-anchor="middle" x="601.402" y="-6.5" font-family="Helvetica,sans-Serif" font-size="10.00">ConfigDialog::wizard</text>
</a>
</g>
</g>
<!-- Node311&#45;&gt;Node312 -->
<g id="edge5" class="edge"><title>Node311&#45;&gt;Node312</title>
<path fill="none" stroke="midnightblue" d="M507.901,-9.5C521.391,-9.5 534.909,-9.5 547.282,-9.5"/>
<polygon fill="midnightblue" stroke="midnightblue" points="507.61,-6.0001 497.61,-9.5 507.61,-13.0001 507.61,-6.0001"/>
</g>
</g>
</svg>
