<?xml version="1.0" encoding="UTF-8" standalone="no"?>
<!DOCTYPE svg PUBLIC "-//W3C//DTD SVG 1.1//EN"
 "http://www.w3.org/Graphics/SVG/1.1/DTD/svg11.dtd">
<!-- Generated by graphviz version 2.43.0 (0)
 -->
<!-- Title: ImitatePass::Insert Pages: 1 -->
<!--zoomable 419 -->

<svg id="main" version="1.1" xmlns="http://www.w3.org/2000/svg" xmlns:xlink="http://www.w3.org/1999/xlink" xml:space="preserve" onload="init(evt)">
<style type="text/css"><![CDATA[
.node, .edge {opacity: 0.7;}
.node.selected, .edge.selected {opacity: 1;}
.edge:hover path { stroke: red; }
.edge:hover polygon { stroke: red; fill: red; }
]]></style>

<defs>
  <circle id="rim" cx="0" cy="0" r="7"/>
  <circle id="rim2" cx="0" cy="0" r="3.5"/>
  <g id="zoomPlus">
    <use xlink:href="#rim" fill="#404040"><set attributeName="fill" to="#808080" begin="zoomplus.mouseover" end="zoomplus.mouseout"/></use>
    <path d="M-4,0h8M0,-4v8" fill="none" stroke="white" stroke-width="1.5" pointer-events="none"/>
  </g>
  <g id="zoomMin">
    <use xlink:href="#rim" fill="#404040"><set attributeName="fill" to="#808080" begin="zoomminus.mouseover" end="zoomminus.mouseout"/></use>
    <path d="M-4,0h8" fill="none" stroke="white" stroke-width="1.5" pointer-events="none"/>
  </g>
  <g id="arrowUp" transform="translate(30 24)">
    <use xlink:href="#rim"/>
    <path pointer-events="none" fill="none" stroke="white" stroke-width="1.5" d="M0,-3.0v7 M-2.5,-0.5L0,-3.0L2.5,-0.5"/>
  </g>
  <g id="arrowRight" transform="rotate(90) translate(36 -43)">
    <use xlink:href="#rim"/>
    <path pointer-events="none" fill="none" stroke="white" stroke-width="1.5" d="M0,-3.0v7 M-2.5,-0.5L0,-3.0L2.5,-0.5"/>
  </g>
  <g id="arrowDown" transform="rotate(180) translate(-30 -48)">
    <use xlink:href="#rim"/>
    <path pointer-events="none" fill="none" stroke="white" stroke-width="1.5" d="M0,-3.0v7 M-2.5,-0.5L0,-3.0L2.5,-0.5"/>
  </g>
  <g id="arrowLeft" transform="rotate(270) translate(-36 17)">
    <use xlink:href="#rim"/>
    <path pointer-events="none" fill="none" stroke="white" stroke-width="1.5" d="M0,-3.0v7 M-2.5,-0.5L0,-3.0L2.5,-0.5"/>
  </g>
  <g id="resetDef">
    <use xlink:href="#rim2" fill="#404040"><set attributeName="fill" to="#808080" begin="reset.mouseover" end="reset.mouseout"/></use>
  </g>
</defs>
<script type="application/ecmascript">
var viewWidth = 912;
var viewHeight = 419;
var sectionId = 'dynsection-28';
</script>
<script type="application/ecmascript" xlink:href="svg.min.js"/>
<svg id="graph" class="graph">
<g id="viewport">
<title>ImitatePass::Insert</title>
<!-- Node1 -->
<g id="Node000001" class="node">
<title>Node1</title>
<g id="a_Node000001"><a xlink:title="ImitatePass::Insert create new file with encrypted content.">
<polygon fill="#999999" stroke="#666666" points="107,-223 0,-223 0,-204 107,-204 107,-223"/>
<text text-anchor="middle" x="53.5" y="-211" font-family="Helvetica,sans-Serif" font-size="10.00">ImitatePass::Insert</text>
</a>
</g>
</g>
<!-- Node2 -->
<g id="Node000002" class="node">
<title>Node2</title>
<g id="a_Node000002"><a xlink:href="class_pass.html#a0eafb54675479378ec98307f0e4fff65" target="_top" xlink:title=" ">
<polygon fill="white" stroke="#666666" points="263,-411 186,-411 186,-392 263,-392 263,-411"/>
<text text-anchor="middle" x="224.5" y="-399" font-family="Helvetica,sans-Serif" font-size="10.00">Pass::critical</text>
</a>
</g>
</g>
<!-- Node1&#45;&gt;Node2 -->
<g id="edge1_Node000001_Node000002" class="edge">
<title>Node1&#45;&gt;Node2</title>
<g id="a_edge1_Node000001_Node000002"><a xlink:title=" ">
<path fill="none" stroke="#63b8ff" d="M56.49,-223.03C63.08,-252.14 87.08,-340.51 143,-383.5 152.4,-390.72 164.13,-395.16 175.71,-397.85"/>
<polygon fill="#63b8ff" stroke="#63b8ff" points="175.3,-401.34 185.78,-399.8 176.62,-394.46 175.3,-401.34"/>
</a>
</g>
</g>
<!-- Node3 -->
<g id="Node000003" class="node">
<title>Node3</title>
<g id="a_Node000003"><a xlink:href="class_util.html#a2a7a32586578a9b631bc6b2a821ce616" target="_top" xlink:title=" ">
<polygon fill="white" stroke="#666666" points="277,-374 172,-374 172,-355 277,-355 277,-374"/>
<text text-anchor="middle" x="224.5" y="-362" font-family="Helvetica,sans-Serif" font-size="10.00">Util::endsWithGpg</text>
</a>
</g>
</g>
<!-- Node1&#45;&gt;Node3 -->
<g id="edge2_Node000001_Node000003" class="edge">
<title>Node1&#45;&gt;Node3</title>
<g id="a_edge2_Node000001_Node000003"><a xlink:title=" ">
<path fill="none" stroke="#63b8ff" d="M57.92,-223.04C67.3,-247.74 95.9,-314.15 143,-346.5 148.71,-350.42 155.14,-353.5 161.81,-355.92"/>
<polygon fill="#63b8ff" stroke="#63b8ff" points="161.1,-359.37 171.69,-359.02 163.19,-352.69 161.1,-359.37"/>
</a>
</g>
</g>
<!-- Node4 -->
<g id="Node000004" class="node">
<title>Node4</title>
<g id="a_Node000004"><a xlink:href="class_imitate_pass.html#a6f9682c6103b112a9aa844df7ef6a273" target="_top" xlink:title="ImitatePass::executeGit easy wrapper for running git commands.">
<polygon fill="white" stroke="#666666" points="501.5,-299 369.5,-299 369.5,-280 501.5,-280 501.5,-299"/>
<text text-anchor="middle" x="435.5" y="-287" font-family="Helvetica,sans-Serif" font-size="10.00">ImitatePass::executeGit</text>
</a>
</g>
</g>
<!-- Node1&#45;&gt;Node4 -->
<g id="edge3_Node000001_Node000004" class="edge">
<title>Node1&#45;&gt;Node4</title>
<g id="a_edge3_Node000001_Node000004"><a xlink:title=" ">
<path fill="none" stroke="#63b8ff" d="M65.27,-223.09C81.04,-236.47 111.93,-260.25 143,-270.5 213.68,-293.82 299.12,-296.64 359.17,-294.81"/>
<polygon fill="#63b8ff" stroke="#63b8ff" points="359.46,-298.3 369.33,-294.45 359.21,-291.31 359.46,-298.3"/>
</a>
</g>
</g>
<!-- Node9 -->
<g id="Node000009" class="node">
<title>Node9</title>
<g id="a_Node000009"><a xlink:href="class_imitate_pass.html#a2ff555a9fdb035a15b0ea55ce2cb887a" target="_top" xlink:title="ImitatePass::executeGpg easy wrapper for running gpg commands.">
<polygon fill="white" stroke="#666666" points="293,-148 156,-148 156,-129 293,-129 293,-148"/>
<text text-anchor="middle" x="224.5" y="-136" font-family="Helvetica,sans-Serif" font-size="10.00">ImitatePass::executeGpg</text>
</a>
</g>
</g>
<!-- Node1&#45;&gt;Node9 -->
<g id="edge9_Node000001_Node000009" class="edge">
<title>Node1&#45;&gt;Node9</title>
<g id="a_edge9_Node000001_Node000009"><a xlink:title=" ">
<path fill="none" stroke="#63b8ff" d="M66.33,-203.92C82.62,-191.2 113.33,-168.91 143,-156.5 148.04,-154.39 153.36,-152.52 158.77,-150.84"/>
<polygon fill="#63b8ff" stroke="#63b8ff" points="159.9,-154.16 168.56,-148.05 157.99,-147.43 159.9,-154.16"/>
</a>
</g>
</g>
<!-- Node11 -->
<g id="Node000011" class="node">
<title>Node11</title>
<g id="a_Node000011"><a xlink:href="class_pass.html#a7bab4c97e4a327cc34060a67c09959bf" target="_top" xlink:title="Pass::getGpgIdPath return gpgid file path for some file (folder).">
<polygon fill="white" stroke="#666666" points="279.5,-261 169.5,-261 169.5,-242 279.5,-242 279.5,-261"/>
<text text-anchor="middle" x="224.5" y="-249" font-family="Helvetica,sans-Serif" font-size="10.00">Pass::getGpgIdPath</text>
</a>
</g>
</g>
<!-- Node1&#45;&gt;Node11 -->
<g id="edge12_Node000001_Node000011" class="edge">
<title>Node1&#45;&gt;Node11</title>
<g id="a_edge12_Node000001_Node000011"><a xlink:title=" ">
<path fill="none" stroke="#63b8ff" d="M97.15,-223.09C119.65,-228.15 147.45,-234.4 171.24,-239.75"/>
<polygon fill="#63b8ff" stroke="#63b8ff" points="170.64,-243.2 181.16,-241.98 172.17,-236.37 170.64,-243.2"/>
</a>
</g>
</g>
<!-- Node12 -->
<g id="Node000012" class="node">
<title>Node12</title>
<g id="a_Node000012"><a xlink:href="class_qt_pass_settings.html#a538e612e04fe934535e1f7525d55743c" target="_top" xlink:title=" ">
<polygon fill="white" stroke="#666666" points="514.5,-242 356.5,-242 356.5,-223 514.5,-223 514.5,-242"/>
<text text-anchor="middle" x="435.5" y="-230" font-family="Helvetica,sans-Serif" font-size="10.00">QtPassSettings::getPassStore</text>
</a>
</g>
</g>
<!-- Node1&#45;&gt;Node12 -->
<g id="edge14_Node000001_Node000012" class="edge">
<title>Node1&#45;&gt;Node12</title>
<g id="a_edge14_Node000001_Node000012"><a xlink:title=" ">
<path fill="none" stroke="#63b8ff" d="M107.34,-216.14C169.08,-219.23 272.2,-224.39 346.17,-228.08"/>
<polygon fill="#63b8ff" stroke="#63b8ff" points="346.25,-231.59 356.41,-228.6 346.6,-224.6 346.25,-231.59"/>
</a>
</g>
</g>
<!-- Node13 -->
<g id="Node000013" class="node">
<title>Node13</title>
<g id="a_Node000013"><a xlink:href="class_pass.html#a693825d2ad62813cf103860ef6211370" target="_top" xlink:title="Pass::getRecipientList return list of gpg&#45;id&#39;s to encrypt for.">
<polygon fill="white" stroke="#666666" points="286,-185 163,-185 163,-166 286,-166 286,-185"/>
<text text-anchor="middle" x="224.5" y="-173" font-family="Helvetica,sans-Serif" font-size="10.00">Pass::getRecipientList</text>
</a>
</g>
</g>
<!-- Node1&#45;&gt;Node13 -->
<g id="edge15_Node000001_Node000013" class="edge">
<title>Node1&#45;&gt;Node13</title>
<g id="a_edge15_Node000001_Node000013"><a xlink:title=" ">
<path fill="none" stroke="#63b8ff" d="M97.15,-203.91C119.65,-198.85 147.45,-192.6 171.24,-187.25"/>
<polygon fill="#63b8ff" stroke="#63b8ff" points="172.17,-190.63 181.16,-185.02 170.64,-183.8 172.17,-190.63"/>
</a>
</g>
</g>
<!-- Node14 -->
<g id="Node000014" class="node">
<title>Node14</title>
<g id="a_Node000014"><a xlink:href="class_imitate_pass.html#a4633664040a5b817c944736653778e74" target="_top" xlink:title="ImitatePass::GitCommit commit a file to git with an appropriate commit message.">
<polygon fill="white" stroke="#666666" points="291,-337 158,-337 158,-318 291,-318 291,-337"/>
<text text-anchor="middle" x="224.5" y="-325" font-family="Helvetica,sans-Serif" font-size="10.00">ImitatePass::GitCommit</text>
</a>
</g>
</g>
<!-- Node1&#45;&gt;Node14 -->
<g id="edge16_Node000001_Node000014" class="edge">
<title>Node1&#45;&gt;Node14</title>
<g id="a_edge16_Node000001_Node000014"><a xlink:title=" ">
<path fill="none" stroke="#63b8ff" d="M61.36,-223.21C74.86,-241.61 106.76,-281.69 143,-303.5 150.54,-308.03 158.99,-311.77 167.51,-314.82"/>
<polygon fill="#63b8ff" stroke="#63b8ff" points="166.51,-318.18 177.11,-317.98 168.71,-311.53 166.51,-318.18"/>
</a>
</g>
</g>
<!-- Node15 -->
<g id="Node000015" class="node">
<title>Node15</title>
<g id="a_Node000015"><a xlink:href="class_qt_pass_settings.html#a4519d1aa1f11653585e546dbfde7c8b3" target="_top" xlink:title=" ">
<polygon fill="white" stroke="#666666" points="293,-111 156,-111 156,-92 293,-92 293,-111"/>
<text text-anchor="middle" x="224.5" y="-99" font-family="Helvetica,sans-Serif" font-size="10.00">QtPassSettings::isUseGit</text>
</a>
</g>
</g>
<!-- Node1&#45;&gt;Node15 -->
<g id="edge18_Node000001_Node000015" class="edge">
<title>Node1&#45;&gt;Node15</title>
<g id="a_edge18_Node000001_Node000015"><a xlink:title=" ">
<path fill="none" stroke="#63b8ff" d="M60.71,-203.72C73.55,-184.35 105.02,-141.13 143,-119.5 146.08,-117.75 149.32,-116.16 152.65,-114.73"/>
<polygon fill="#63b8ff" stroke="#63b8ff" points="154.14,-117.91 162.26,-111.1 151.67,-111.36 154.14,-117.91"/>
</a>
</g>
</g>
<!-- Node16 -->
<g id="Node000016" class="node">
<title>Node16</title>
<g id="a_Node000016"><a xlink:href="class_qt_pass_settings.html#aacb80ca326700f2bd4987cd5cb6806fa" target="_top" xlink:title=" ">
<polygon fill="white" stroke="#666666" points="306,-74 143,-74 143,-55 306,-55 306,-74"/>
<text text-anchor="middle" x="224.5" y="-62" font-family="Helvetica,sans-Serif" font-size="10.00">QtPassSettings::isUseWebDav</text>
</a>
</g>
</g>
<!-- Node1&#45;&gt;Node16 -->
<g id="edge19_Node000001_Node000016" class="edge">
<title>Node1&#45;&gt;Node16</title>
<g id="a_edge19_Node000001_Node000016"><a xlink:title=" ">
<path fill="none" stroke="#63b8ff" d="M58.1,-203.75C67.73,-179.13 96.51,-114.19 143,-82.5 145.25,-80.96 147.61,-79.56 150.06,-78.27"/>
<polygon fill="#63b8ff" stroke="#63b8ff" points="151.56,-81.43 159.21,-74.1 148.66,-75.06 151.56,-81.43"/>
</a>
</g>
</g>
<!-- Node17 -->
<g id="Node000017" class="node">
<title>Node17</title>
<g id="a_Node000017"><a xlink:href="class_imitate_pass.html#a6ecaa7d53d661362511354e96572c240" target="_top" xlink:title="ImitatePass::verifyGpgIdFile verify detached gpgid file signature.">
<polygon fill="white" stroke="#666666" points="301,-37 148,-37 148,-18 301,-18 301,-37"/>
<text text-anchor="middle" x="224.5" y="-25" font-family="Helvetica,sans-Serif" font-size="10.00">ImitatePass::verifyGpgIdFile</text>
</a>
</g>
</g>
<!-- Node1&#45;&gt;Node17 -->
<g id="edge20_Node000001_Node000017" class="edge">
<title>Node1&#45;&gt;Node17</title>
<g id="a_edge20_Node000001_Node000017"><a xlink:title=" ">
<path fill="none" stroke="#63b8ff" d="M56.62,-203.67C63.46,-174.49 87.75,-87.76 143,-45.5 144.8,-44.12 146.69,-42.84 148.64,-41.66"/>
<polygon fill="#63b8ff" stroke="#63b8ff" points="150.3,-44.74 157.6,-37.06 147.1,-38.52 150.3,-44.74"/>
</a>
</g>
</g>
<!-- Node5 -->
<g id="Node000005" class="node">
<title>Node5</title>
<g id="a_Node000005"><a xlink:href="class_imitate_pass.html#aa2ade77096c04fb94536d675bfaae8fe" target="_top" xlink:title="executeWrapper overrided so that every execution is a transaction">
<polygon fill="white" stroke="#666666" points="734,-217 575,-217 575,-198 734,-198 734,-217"/>
<text text-anchor="middle" x="654.5" y="-205" font-family="Helvetica,sans-Serif" font-size="10.00">ImitatePass::executeWrapper</text>
</a>
</g>
</g>
<!-- Node4&#45;&gt;Node5 -->
<g id="edge4_Node000004_Node000005" class="edge">
<title>Node4&#45;&gt;Node5</title>
<g id="a_edge4_Node000004_Node000005"><a xlink:title=" ">
<path fill="none" stroke="#63b8ff" d="M461.82,-279.93C500.69,-265.24 575.17,-237.1 618.96,-220.55"/>
<polygon fill="#63b8ff" stroke="#63b8ff" points="620.23,-223.81 628.34,-217.01 617.75,-217.27 620.23,-223.81"/>
</a>
</g>
</g>
<!-- Node8 -->
<g id="Node000008" class="node">
<title>Node8</title>
<g id="a_Node000008"><a xlink:href="class_qt_pass_settings.html#af6dc725440e9961c39fbd6f567749d82" target="_top" xlink:title=" ">
<polygon fill="white" stroke="#666666" points="744,-299 565,-299 565,-280 744,-280 744,-299"/>
<text text-anchor="middle" x="654.5" y="-287" font-family="Helvetica,sans-Serif" font-size="10.00">QtPassSettings::getGitExecutable</text>
</a>
</g>
</g>
<!-- Node4&#45;&gt;Node8 -->
<g id="edge8_Node000004_Node000008" class="edge">
<title>Node4&#45;&gt;Node8</title>
<g id="a_edge8_Node000004_Node000008"><a xlink:title=" ">
<path fill="none" stroke="#63b8ff" d="M501.61,-289.5C518.28,-289.5 536.58,-289.5 554.54,-289.5"/>
<polygon fill="#63b8ff" stroke="#63b8ff" points="554.76,-293 564.76,-289.5 554.76,-286 554.76,-293"/>
</a>
</g>
</g>
<!-- Node6 -->
<g id="Node000006" class="node">
<title>Node6</title>
<g id="a_Node000006"><a xlink:href="class_pass.html#a66f59138ffe856fd421410d9af9ddc62" target="_top" xlink:title=" ">
<polygon fill="white" stroke="#666666" points="904,-239 780,-239 780,-220 904,-220 904,-239"/>
<text text-anchor="middle" x="842" y="-227" font-family="Helvetica,sans-Serif" font-size="10.00">Pass::executeWrapper</text>
</a>
</g>
</g>
<!-- Node5&#45;&gt;Node6 -->
<g id="edge5_Node000005_Node000006" class="edge">
<title>Node5&#45;&gt;Node6</title>
<g id="a_edge5_Node000005_Node000006"><a xlink:title=" ">
<path fill="none" stroke="#63b8ff" d="M734.17,-216.83C746.01,-218.23 758.16,-219.68 769.83,-221.06"/>
<polygon fill="#63b8ff" stroke="#63b8ff" points="769.59,-224.56 779.94,-222.26 770.42,-217.6 769.59,-224.56"/>
</a>
</g>
</g>
<!-- Node7 -->
<g id="Node000007" class="node">
<title>Node7</title>
<g id="a_Node000007"><a xlink:href="classsimple_transaction.html#a974db4056edcb408e96cf9bc2a6e4326" target="_top" xlink:title="transactionAdd If called after call to transactionStart() and before transactionEnd(),...">
<polygon fill="white" stroke="#666666" points="897.5,-201.5 786.5,-201.5 786.5,-171.5 897.5,-171.5 897.5,-201.5"/>
<text text-anchor="start" x="794.5" y="-189.5" font-family="Helvetica,sans-Serif" font-size="10.00">simpleTransaction::</text>
<text text-anchor="middle" x="842" y="-178.5" font-family="Helvetica,sans-Serif" font-size="10.00">transactionAdd</text>
</a>
</g>
</g>
<!-- Node5&#45;&gt;Node7 -->
<g id="edge7_Node000005_Node000007" class="edge">
<title>Node5&#45;&gt;Node7</title>
<g id="a_edge7_Node000005_Node000007"><a xlink:title=" ">
<path fill="none" stroke="#63b8ff" d="M734.17,-198.59C748.18,-197.01 762.62,-195.37 776.19,-193.84"/>
<polygon fill="#63b8ff" stroke="#63b8ff" points="776.82,-197.29 786.37,-192.68 776.04,-190.33 776.82,-197.29"/>
</a>
</g>
</g>
<!-- Node6&#45;&gt;Node6 -->
<g id="edge6_Node000006_Node000006" class="edge">
<title>Node6&#45;&gt;Node6</title>
<g id="a_edge6_Node000006_Node000006"><a xlink:title=" ">
<path fill="none" stroke="#63b8ff" d="M813.33,-239.08C799.39,-247.73 808.94,-257 842,-257 864.73,-257 876.35,-252.62 876.86,-247.07"/>
<polygon fill="#63b8ff" stroke="#63b8ff" points="879.56,-244.84 870.67,-239.08 874.03,-249.13 879.56,-244.84"/>
</a>
</g>
</g>
<!-- Node9&#45;&gt;Node5 -->
<g id="edge10_Node000009_Node000005" class="edge">
<title>Node9&#45;&gt;Node5</title>
<g id="a_edge10_Node000009_Node000005"><a xlink:title=" ">
<path fill="none" stroke="#63b8ff" d="M284.56,-148.02C362.93,-160.66 501.05,-182.92 584.24,-196.33"/>
<polygon fill="#63b8ff" stroke="#63b8ff" points="583.93,-199.83 594.36,-197.97 585.04,-192.92 583.93,-199.83"/>
</a>
</g>
</g>
<!-- Node10 -->
<g id="Node000010" class="node">
<title>Node10</title>
<g id="a_Node000010"><a xlink:href="class_qt_pass_settings.html#a6d9beabe93c829cacdcc6c27792ffdba" target="_top" xlink:title=" ">
<polygon fill="white" stroke="#666666" points="527.5,-126 343.5,-126 343.5,-107 527.5,-107 527.5,-126"/>
<text text-anchor="middle" x="435.5" y="-114" font-family="Helvetica,sans-Serif" font-size="10.00">QtPassSettings::getGpgExecutable</text>
</a>
</g>
</g>
<!-- Node9&#45;&gt;Node10 -->
<g id="edge11_Node000009_Node000010" class="edge">
<title>Node9&#45;&gt;Node10</title>
<g id="a_edge11_Node000009_Node000010"><a xlink:title=" ">
<path fill="none" stroke="#63b8ff" d="M293.07,-131.39C306.12,-130.01 320.05,-128.55 333.9,-127.09"/>
<polygon fill="#63b8ff" stroke="#63b8ff" points="334.37,-130.56 343.95,-126.03 333.63,-123.6 334.37,-130.56"/>
</a>
</g>
</g>
<!-- Node11&#45;&gt;Node12 -->
<g id="edge13_Node000011_Node000012" class="edge">
<title>Node11&#45;&gt;Node12</title>
<g id="a_edge13_Node000011_Node000012"><a xlink:title=" ">
<path fill="none" stroke="#63b8ff" d="M279.59,-246.58C299.93,-244.73 323.61,-242.58 346.25,-240.52"/>
<polygon fill="#63b8ff" stroke="#63b8ff" points="346.58,-244.01 356.22,-239.62 345.94,-237.04 346.58,-244.01"/>
</a>
</g>
</g>
<!-- Node14&#45;&gt;Node4 -->
<g id="edge17_Node000014_Node000004" class="edge">
<title>Node14&#45;&gt;Node4</title>
<g id="a_edge17_Node000014_Node000004"><a xlink:title=" ">
<path fill="none" stroke="#63b8ff" d="M277.97,-317.96C306.54,-312.77 342.08,-306.3 372.07,-300.85"/>
<polygon fill="#63b8ff" stroke="#63b8ff" points="372.8,-304.28 382.01,-299.04 371.54,-297.39 372.8,-304.28"/>
</a>
</g>
</g>
<!-- Node17&#45;&gt;Node10 -->
<g id="edge22_Node000017_Node000010" class="edge">
<title>Node17&#45;&gt;Node10</title>
<g id="a_edge22_Node000017_Node000010"><a xlink:title=" ">
<path fill="none" stroke="#63b8ff" d="M278.53,-37.1C287.82,-39.42 297.3,-42.2 306,-45.5 311.36,-47.53 372.66,-81.78 408.62,-101.95"/>
<polygon fill="#63b8ff" stroke="#63b8ff" points="407.16,-105.15 417.59,-106.99 410.59,-99.05 407.16,-105.15"/>
</a>
</g>
</g>
<!-- Node18 -->
<g id="Node000018" class="node">
<title>Node18</title>
<g id="a_Node000018"><a xlink:href="class_executor.html#a2673768d875e9207a6a178dd1a489828" target="_top" xlink:title="Executor::executeBlocking blocking version of the executor, takes input and presents it as stdin.">
<polygon fill="white" stroke="#666666" points="508,-56 363,-56 363,-37 508,-37 508,-56"/>
<text text-anchor="middle" x="435.5" y="-44" font-family="Helvetica,sans-Serif" font-size="10.00">Executor::executeBlocking</text>
</a>
</g>
</g>
<!-- Node17&#45;&gt;Node18 -->
<g id="edge21_Node000017_Node000018" class="edge">
<title>Node17&#45;&gt;Node18</title>
<g id="a_edge21_Node000017_Node000018"><a xlink:title=" ">
<path fill="none" stroke="#63b8ff" d="M301.25,-34.39C317.89,-35.9 335.58,-37.51 352.46,-39.04"/>
<polygon fill="#63b8ff" stroke="#63b8ff" points="352.57,-42.57 362.84,-39.99 353.2,-35.59 352.57,-42.57"/>
</a>
</g>
</g>
<!-- Node19 -->
<g id="Node000019" class="node">
<title>Node19</title>
<g id="a_Node000019"><a xlink:href="class_qt_pass_settings.html#a7b92ee036db63e5d2b49da826b5763ee" target="_top" xlink:title=" ">
<polygon fill="white" stroke="#666666" points="529,-19 342,-19 342,0 529,0 529,-19"/>
<text text-anchor="middle" x="435.5" y="-7" font-family="Helvetica,sans-Serif" font-size="10.00">QtPassSettings::getPassSigningKey</text>
</a>
</g>
</g>
<!-- Node17&#45;&gt;Node19 -->
<g id="edge23_Node000017_Node000019" class="edge">
<title>Node17&#45;&gt;Node19</title>
<g id="a_edge23_Node000017_Node000019"><a xlink:title=" ">
<path fill="none" stroke="#63b8ff" d="M301.25,-20.98C311.15,-20.12 321.42,-19.24 331.68,-18.36"/>
<polygon fill="#63b8ff" stroke="#63b8ff" points="332.24,-21.82 341.91,-17.47 331.64,-14.85 332.24,-21.82"/>
</a>
</g>
</g>
</g>
</svg>

<g id="navigator" transform="translate(0 0)" fill="#404254">
  <rect fill="#f2f5e9" fill-opacity="0.5" stroke="#606060" stroke-width=".5" x="0" y="0" width="60" height="60"/>
  <use id="zoomplus" xlink:href="#zoomPlus" x="17" y="9" onmousedown="handleZoom(evt,'in')"/>
  <use id="zoomminus" xlink:href="#zoomMin" x="42" y="9" onmousedown="handleZoom(evt,'out')"/>
  <use id="reset" xlink:href="#resetDef" x="30" y="36" onmousedown="handleReset()"/>
   <use id="arrowup" xlink:href="#arrowUp" x="0" y="0" onmousedown="handlePan(0,-1)"/>
  <use id="arrowright" xlink:href="#arrowRight" x="0" y="0" onmousedown="handlePan(1,0)"/>
  <use id="arrowdown" xlink:href="#arrowDown" x="0" y="0" onmousedown="handlePan(0,1)"/>
  <use id="arrowleft" xlink:href="#arrowLeft" x="0" y="0" onmousedown="handlePan(-1,0)"/>
</g>
<svg viewBox="0 0 15 15" width="100%" height="30px" preserveAspectRatio="xMaxYMin meet">
 <g id="arrow_out" transform="scale(0.3 0.3)">
  <a xlink:href="class_imitate_pass_a84de97293ca1a100b1e466b4a79ec601_cgraph_org.svg" target="_base">
   <rect id="button" ry="5" rx="5" y="6" x="6" height="38" width="38"
        fill="#f2f5e9" fill-opacity="0.5" stroke="#606060" stroke-width="1.0"/>
   <path id="arrow"
     d="M 11.500037,31.436501 C 11.940474,20.09759 22.043105,11.32322 32.158766,21.979434 L 37.068811,17.246167 C 37.068811,17.246167 37.088388,32 37.088388,32 L 22.160133,31.978069 C 22.160133,31.978069 26.997745,27.140456 26.997745,27.140456 C 18.528582,18.264221 13.291696,25.230495 11.500037,31.436501 z"
     style="fill:#404040;"/>
  </a>
 </g>
</svg>

<style type='text/css'>
<![CDATA[
[data-mouse-over-selected='false'] { opacity: 0.7; }
[data-mouse-over-selected='true']  { opacity: 1.0; }
]]>
</style>
<script type="application/ecmascript"><![CDATA[
document.addEventListener('DOMContentLoaded', (event) => {
  highlightEdges();
  highlightAdjacentNodes();
});
]]></script>
</svg>
