<?xml version="1.0" encoding="UTF-8" standalone="no"?>
<!DOCTYPE svg PUBLIC "-//W3C//DTD SVG 1.1//EN"
 "http://www.w3.org/Graphics/SVG/1.1/DTD/svg11.dtd">
<!-- Generated by graphviz version 2.40.1 (20161225.0304)
 -->
<!-- Title: QtPassSettings::isHidePassword Pages: 1 -->
<!--zoomable 103 -->
<svg id="main" version="1.1" xmlns="http://www.w3.org/2000/svg" xmlns:xlink="http://www.w3.org/1999/xlink" xml:space="preserve" onload="init(evt)">
<style type="text/css"><![CDATA[
.edge:hover path { stroke: red; }
.edge:hover polygon { stroke: red; fill: red; }
]]></style>
<script type="text/javascript"><![CDATA[
var edges = document.getElementsByTagName('g');
if (edges && edges.length) {
  for (var i=0;i<edges.length;i++) {
    if (edges[i].id.substr(0,4)=='edge') {
      edges[i].setAttribute('class','edge');
    }
  }
}
]]></script>
        <defs>
                <circle id="rim" cx="0" cy="0" r="7"/>
                <circle id="rim2" cx="0" cy="0" r="3.5"/>
                <g id="zoomPlus">
                        <use xlink:href="#rim" fill="#404040">
                                <set attributeName="fill" to="#808080" begin="zoomplus.mouseover" end="zoomplus.mouseout"/>
                        </use>
                        <path d="M-4,0h8M0,-4v8" fill="none" stroke="white" stroke-width="1.5" pointer-events="none"/>
                </g>
                <g id="zoomMin">
                        <use xlink:href="#rim" fill="#404040">
                                <set attributeName="fill" to="#808080" begin="zoomminus.mouseover" end="zoomminus.mouseout"/>
                        </use>
                        <path d="M-4,0h8" fill="none" stroke="white" stroke-width="1.5" pointer-events="none"/>
                </g>
                <g id="dirArrow">
                        <path fill="none" stroke="white" stroke-width="1.5" d="M0,-3.0v7 M-2.5,-0.5L0,-3.0L2.5,-0.5"/>
                </g>
               <g id="resetDef">
                       <use xlink:href="#rim2" fill="#404040">
                               <set attributeName="fill" to="#808080" begin="reset.mouseover" end="reset.mouseout"/>
                       </use>
               </g>
        </defs>

<script type="text/javascript">
var viewWidth = 722;
var viewHeight = 103;
var sectionId = 'dynsection-37';
</script>
<script xlink:href="svgpan.js"/>
<svg id="graph" class="graph">
<g id="viewport">
<title>QtPassSettings::isHidePassword</title>
<!-- Node291 -->
<g id="node1" class="node">
<title>Node291</title>
<polygon fill="#bfbfbf" stroke="#000000" points="0,-38.5 0,-56.5 162.1719,-56.5 162.1719,-38.5 0,-38.5"/>
<text text-anchor="middle" x="81.0859" y="-44.5" font-family="Helvetica,sans-Serif" font-size="10.00" fill="#000000">QtPassSettings::isHidePassword</text>
</g>
<!-- Node292 -->
<g id="node2" class="node">
<title>Node292</title>
<g id="a_node2"><a xlink:href="class_main_window.html#aeb8091ab5531144b76c1fbb0d63deb56" target="_top" xlink:title="MainWindow::config pops up the configuration screen and handles all inter&#45;window communication. ">
<polygon fill="none" stroke="#000000" points="218.1768,-76.5 218.1768,-94.5 323.6592,-94.5 323.6592,-76.5 218.1768,-76.5"/>
<text text-anchor="middle" x="270.918" y="-82.5" font-family="Helvetica,sans-Serif" font-size="10.00" fill="#000000">MainWindow::config</text>
</a>
</g>
</g>
<!-- Node291&#45;&gt;Node292 -->
<g id="edge1" class="edge">
<title>Node291&#45;&gt;Node292</title>
<path fill="none" stroke="#191970" d="M135.905,-58.4735C164.4622,-64.19 198.9526,-71.0942 225.9248,-76.4934"/>
<polygon fill="#191970" stroke="#191970" points="136.566,-55.0365 126.0735,-56.5055 135.1919,-61.9003 136.566,-55.0365"/>
</g>
<!-- Node295 -->
<g id="node5" class="node">
<title>Node295</title>
<g id="a_node5"><a xlink:href="class_main_window.html#a4680b2cbcfd388683a98303f29c0f84f" target="_top" xlink:title="MainWindow::executePassGitInit git init wrapper. ">
<polygon fill="none" stroke="#000000" points="379.6641,-39.5 379.6641,-57.5 541.8359,-57.5 541.8359,-39.5 379.6641,-39.5"/>
<text text-anchor="middle" x="460.75" y="-45.5" font-family="Helvetica,sans-Serif" font-size="10.00" fill="#000000">MainWindow::executePassGitInit</text>
</a>
</g>
</g>
<!-- Node291&#45;&gt;Node295 -->
<g id="edge6" class="edge">
<title>Node291&#45;&gt;Node295</title>
<path fill="none" stroke="#191970" d="M172.867,-47.7417C235.8909,-47.9077 318.7897,-48.1261 379.4372,-48.2858"/>
<polygon fill="#191970" stroke="#191970" points="172.5426,-44.241 162.5334,-47.7145 172.5241,-51.2409 172.5426,-44.241"/>
</g>
<!-- Node297 -->
<g id="node7" class="node">
<title>Node297</title>
<g id="a_node7"><a xlink:href="class_main_window.html#a9c4f542263838b9ecd06eae839a42a34" target="_top" xlink:title="MainWindow::keyPressEvent did anyone press return, enter or escape? ">
<polygon fill="none" stroke="#000000" points="198.1719,-.5 198.1719,-18.5 343.6641,-18.5 343.6641,-.5 198.1719,-.5"/>
<text text-anchor="middle" x="270.918" y="-6.5" font-family="Helvetica,sans-Serif" font-size="10.00" fill="#000000">MainWindow::keyPressEvent</text>
</a>
</g>
</g>
<!-- Node291&#45;&gt;Node297 -->
<g id="edge7" class="edge">
<title>Node291&#45;&gt;Node297</title>
<path fill="none" stroke="#191970" d="M135.905,-36.5265C164.4622,-30.81 198.9526,-23.9058 225.9248,-18.5066"/>
<polygon fill="#191970" stroke="#191970" points="135.1919,-33.0997 126.0735,-38.4945 136.566,-39.9635 135.1919,-33.0997"/>
</g>
<!-- Node293 -->
<g id="node3" class="node">
<title>Node293</title>
<g id="a_node3"><a xlink:href="class_main_window.html#a23d2783cb61a373c4b0127970264290a" target="_top" xlink:title="MainWindow::checkConfig make sure we are ready to go as soon as possible. ">
<polygon fill="none" stroke="#000000" points="393.8364,-76.5 393.8364,-94.5 527.6636,-94.5 527.6636,-76.5 393.8364,-76.5"/>
<text text-anchor="middle" x="460.75" y="-82.5" font-family="Helvetica,sans-Serif" font-size="10.00" fill="#000000">MainWindow::checkConfig</text>
</a>
</g>
</g>
<!-- Node292&#45;&gt;Node293 -->
<g id="edge2" class="edge">
<title>Node292&#45;&gt;Node293</title>
<path fill="none" stroke="#191970" d="M333.9067,-85.5C353.0494,-85.5 374.1532,-85.5 393.5614,-85.5"/>
<polygon fill="#191970" stroke="#191970" points="333.7968,-82.0001 323.7968,-85.5 333.7967,-89.0001 333.7968,-82.0001"/>
</g>
<!-- Node292&#45;&gt;Node295 -->
<g id="edge4" class="edge">
<title>Node292&#45;&gt;Node295</title>
<path fill="none" stroke="#191970" d="M327.3292,-74.5049C355.1106,-69.0901 388.1915,-62.6423 414.4627,-57.5218"/>
<polygon fill="#191970" stroke="#191970" points="326.5018,-71.1003 317.3561,-76.4488 327.841,-77.971 326.5018,-71.1003"/>
</g>
<!-- Node294 -->
<g id="node4" class="node">
<title>Node294</title>
<g id="a_node4"><a xlink:href="class_main_window.html#a8b244be8b7b7db1b08de2a2acb9409db" target="_top" xlink:title="MainWindow::MainWindow handles all of the main functionality and also the main window. ">
<polygon fill="none" stroke="#000000" points="577.8359,-76.5 577.8359,-94.5 713.875,-94.5 713.875,-76.5 577.8359,-76.5"/>
<text text-anchor="middle" x="645.8555" y="-82.5" font-family="Helvetica,sans-Serif" font-size="10.00" fill="#000000">MainWindow::MainWindow</text>
</a>
</g>
</g>
<!-- Node293&#45;&gt;Node294 -->
<g id="edge3" class="edge">
<title>Node293&#45;&gt;Node294</title>
<path fill="none" stroke="#191970" d="M537.8595,-85.5C551.0982,-85.5 564.7707,-85.5 577.752,-85.5"/>
<polygon fill="#191970" stroke="#191970" points="537.8391,-82.0001 527.839,-85.5 537.839,-89.0001 537.8391,-82.0001"/>
</g>
<!-- Node296 -->
<g id="node6" class="node">
<title>Node296</title>
<g id="a_node6"><a xlink:href="class_config_dialog.html#ad5b80066591f19fdaaa06b7cb5ba7f15" target="_top" xlink:title="ConfigDialog::wizard first&#45;time use wizard. ">
<polygon fill="none" stroke="#000000" points="592.001,-39.5 592.001,-57.5 699.71,-57.5 699.71,-39.5 592.001,-39.5"/>
<text text-anchor="middle" x="645.8555" y="-45.5" font-family="Helvetica,sans-Serif" font-size="10.00" fill="#000000">ConfigDialog::wizard</text>
</a>
</g>
</g>
<!-- Node295&#45;&gt;Node296 -->
<g id="edge5" class="edge">
<title>Node295&#45;&gt;Node296</title>
<path fill="none" stroke="#191970" d="M552.2841,-48.5C565.8436,-48.5 579.4323,-48.5 591.8858,-48.5"/>
<polygon fill="#191970" stroke="#191970" points="551.94,-45.0001 541.94,-48.5 551.9399,-52.0001 551.94,-45.0001"/>
</g>
</g>
</svg>
        <g id="navigator" transform="translate(0 0)" fill="#404254">
                <rect fill="#f2f5e9" fill-opacity="0.5" stroke="#606060" stroke-width=".5" x="0" y="0" width="60" height="60"/>
                <use id="zoomplus" xlink:href="#zoomPlus" x="17" y="9" onmousedown="handleZoom(evt,'in')"/>
                <use id="zoomminus" xlink:href="#zoomMin" x="42" y="9" onmousedown="handleZoom(evt,'out')"/>
                <use id="reset" xlink:href="#resetDef" x="30" y="36" onmousedown="handleReset()"/>
                <g id="arrowUp" xlink:href="#dirArrow" transform="translate(30 24)" onmousedown="handlePan(0,-1)">
                  <use xlink:href="#rim" fill="#404040">
                        <set attributeName="fill" to="#808080" begin="arrowUp.mouseover" end="arrowUp.mouseout"/>
                  </use>
                  <path fill="none" stroke="white" stroke-width="1.5" d="M0,-3.0v7 M-2.5,-0.5L0,-3.0L2.5,-0.5"/>
                </g>
                <g id="arrowRight" xlink:href="#dirArrow" transform="rotate(90) translate(36 -43)" onmousedown="handlePan(1,0)">
                  <use xlink:href="#rim" fill="#404040">
                        <set attributeName="fill" to="#808080" begin="arrowRight.mouseover" end="arrowRight.mouseout"/>
                  </use>
                  <path fill="none" stroke="white" stroke-width="1.5" d="M0,-3.0v7 M-2.5,-0.5L0,-3.0L2.5,-0.5"/>
                </g>
                <g id="arrowDown" xlink:href="#dirArrow" transform="rotate(180) translate(-30 -48)" onmousedown="handlePan(0,1)">
                  <use xlink:href="#rim" fill="#404040">
                        <set attributeName="fill" to="#808080" begin="arrowDown.mouseover" end="arrowDown.mouseout"/>
                  </use>
                  <path fill="none" stroke="white" stroke-width="1.5" d="M0,-3.0v7 M-2.5,-0.5L0,-3.0L2.5,-0.5"/>
                </g>
                <g id="arrowLeft" xlink:href="#dirArrow" transform="rotate(270) translate(-36 17)" onmousedown="handlePan(-1,0)">
                  <use xlink:href="#rim" fill="#404040">
                        <set attributeName="fill" to="#808080" begin="arrowLeft.mouseover" end="arrowLeft.mouseout"/>
                  </use>
                  <path fill="none" stroke="white" stroke-width="1.5" d="M0,-3.0v7 M-2.5,-0.5L0,-3.0L2.5,-0.5"/>
                </g>
        </g>
        <svg viewBox="0 0 15 15" width="100%" height="30px" preserveAspectRatio="xMaxYMin meet">
         <g id="arrow_out" transform="scale(0.3 0.3)">
          <a xlink:href="class_qt_pass_settings_afae88e1bac8875b10de43f0786314761_icgraph_org.svg" target="_base">
           <rect id="button" ry="5" rx="5" y="6" x="6" height="38" width="38"
                fill="#f2f5e9" fill-opacity="0.5" stroke="#606060" stroke-width="1.0"/>
           <path id="arrow"
             d="M 11.500037,31.436501 C 11.940474,20.09759 22.043105,11.32322 32.158766,21.979434 L 37.068811,17.246167 C 37.068811,17.246167 37.088388,32 37.088388,32 L 22.160133,31.978069 C 22.160133,31.978069 26.997745,27.140456 26.997745,27.140456 C 18.528582,18.264221 13.291696,25.230495 11.500037,31.436501 z"
             style="fill:#404040;"/>
          </a>
         </g>
        </svg>
</svg>
