<?xml version="1.0" encoding="UTF-8" standalone="no"?>
<!DOCTYPE svg PUBLIC "-//W3C//DTD SVG 1.1//EN"
 "http://www.w3.org/Graphics/SVG/1.1/DTD/svg11.dtd">
<!-- Generated by graphviz version 2.40.1 (20161225.0304)
 -->
<!-- Title: QtPassSettings::isAvoidCapitals Pages: 1 -->
<svg width="518pt" height="94pt"
 viewBox="0.00 0.00 518.00 93.50" xmlns="http://www.w3.org/2000/svg" xmlns:xlink="http://www.w3.org/1999/xlink">
<g id="graph0" class="graph" transform="scale(1 1) rotate(0) translate(4 89.5)">
<title>QtPassSettings::isAvoidCapitals</title>
<!-- Node486 -->
<g id="node1" class="node">
<title>Node486</title>
<polygon fill="#bfbfbf" stroke="#000000" points="0,-47 0,-66 160,-66 160,-47 0,-47"/>
<text text-anchor="middle" x="80" y="-54" font-family="Helvetica,sans-Serif" font-size="10.00" fill="#000000">QtPassSettings::isAvoidCapitals</text>
</g>
<!-- Node487 -->
<g id="node2" class="node">
<title>Node487</title>
<g id="a_node2"><a xlink:href="class_config_dialog.html#a815d6d8ddf1de9386427ddef691a02a1" target="_top" xlink:title="ConfigDialog::ConfigDialog this sets up the configuration screen. ">
<polygon fill="none" stroke="#000000" points="196,-66 196,-85 331,-85 331,-66 196,-66"/>
<text text-anchor="middle" x="263.5" y="-73" font-family="Helvetica,sans-Serif" font-size="10.00" fill="#000000">ConfigDialog::ConfigDialog</text>
</a>
</g>
</g>
<!-- Node486&#45;&gt;Node487 -->
<g id="edge1" class="edge">
<title>Node486&#45;&gt;Node487</title>
<path fill="none" stroke="#191970" d="M170.2714,-65.8469C178.8568,-66.7359 187.4595,-67.6266 195.7787,-68.488"/>
<polygon fill="#191970" stroke="#191970" points="170.5262,-62.3547 160.2188,-64.806 169.8051,-69.3174 170.5262,-62.3547"/>
</g>
<!-- Node488 -->
<g id="node3" class="node">
<title>Node488</title>
<g id="a_node3"><a xlink:href="class_pass.html#a9837e79dfc147d8710563a4a8a04bf3e" target="_top" xlink:title="Pass::Generate use either pwgen or internal password generator. ">
<polygon fill="none" stroke="#000000" points="216,-28 216,-47 311,-47 311,-28 216,-28"/>
<text text-anchor="middle" x="263.5" y="-35" font-family="Helvetica,sans-Serif" font-size="10.00" fill="#000000">Pass::Generate_b</text>
</a>
</g>
</g>
<!-- Node486&#45;&gt;Node488 -->
<g id="edge2" class="edge">
<title>Node486&#45;&gt;Node488</title>
<path fill="none" stroke="#191970" d="M170.5059,-47.1288C186.2001,-45.5038 201.9428,-43.8738 215.8968,-42.4289"/>
<polygon fill="#191970" stroke="#191970" points="169.8051,-43.6826 160.2188,-48.194 170.5261,-50.6453 169.8051,-43.6826"/>
</g>
<!-- Node489 -->
<g id="node4" class="node">
<title>Node489</title>
<g id="a_node4"><a xlink:href="class_pass.html#a8dfa731be7ac962f9f6a5cf8f29097ec" target="_top" xlink:title="Pass::~Pass">
<polygon fill="none" stroke="#000000" points="401.5,-50 401.5,-69 475.5,-69 475.5,-50 401.5,-50"/>
<text text-anchor="middle" x="438.5" y="-57" font-family="Helvetica,sans-Serif" font-size="10.00" fill="#000000">Pass::~Pass</text>
</a>
</g>
</g>
<!-- Node488&#45;&gt;Node489 -->
<g id="edge3" class="edge">
<title>Node488&#45;&gt;Node489</title>
<path fill="none" stroke="#191970" d="M321.5455,-44.7972C347.8221,-48.1005 378.1107,-51.9082 401.2799,-54.8209"/>
<polygon fill="#191970" stroke="#191970" points="321.678,-41.2863 311.3195,-43.5116 320.8048,-48.2317 321.678,-41.2863"/>
</g>
<!-- Node490 -->
<g id="node5" class="node">
<title>Node490</title>
<g id="a_node5"><a xlink:href="class_password_dialog.html#aa123158c0085b910ecf3bfdc9dae9e97" target="_top" xlink:title="Pass{}{}wordDialog::~PasswordDialog basic destructor. ">
<polygon fill="none" stroke="#000000" points="367,-.5 367,-30.5 510,-30.5 510,-.5 367,-.5"/>
<text text-anchor="start" x="375" y="-18.5" font-family="Helvetica,sans-Serif" font-size="10.00" fill="#000000">PasswordDialog::~Password</text>
<text text-anchor="middle" x="438.5" y="-7.5" font-family="Helvetica,sans-Serif" font-size="10.00" fill="#000000">Dialog</text>
</a>
</g>
</g>
<!-- Node488&#45;&gt;Node490 -->
<g id="edge4" class="edge">
<title>Node488&#45;&gt;Node490</title>
<path fill="none" stroke="#191970" d="M321.6078,-30.195C336.0676,-28.3772 351.739,-26.4071 366.7685,-24.5177"/>
<polygon fill="#191970" stroke="#191970" points="320.8048,-26.7683 311.3195,-31.4884 321.678,-33.7137 320.8048,-26.7683"/>
</g>
</g>
</svg>
