<?xml version="1.0" encoding="UTF-8" standalone="no"?>
<!DOCTYPE svg PUBLIC "-//W3C//DTD SVG 1.1//EN"
 "http://www.w3.org/Graphics/SVG/1.1/DTD/svg11.dtd">
<!-- Generated by graphviz version 2.40.1 (20161225.0304)
 -->
<!-- Title: QtPassSettings::getGpgExecutable Pages: 1 -->
<!--zoomable 212 -->
<svg id="main" version="1.1" xmlns="http://www.w3.org/2000/svg" xmlns:xlink="http://www.w3.org/1999/xlink" xml:space="preserve" onload="init(evt)">
<style type="text/css"><![CDATA[
.edge:hover path { stroke: red; }
.edge:hover polygon { stroke: red; fill: red; }
]]></style>
<script type="text/javascript"><![CDATA[
var edges = document.getElementsByTagName('g');
if (edges && edges.length) {
  for (var i=0;i<edges.length;i++) {
    if (edges[i].id.substr(0,4)=='edge') {
      edges[i].setAttribute('class','edge');
    }
  }
}
]]></script>
        <defs>
                <circle id="rim" cx="0" cy="0" r="7"/>
                <circle id="rim2" cx="0" cy="0" r="3.5"/>
                <g id="zoomPlus">
                        <use xlink:href="#rim" fill="#404040">
                                <set attributeName="fill" to="#808080" begin="zoomplus.mouseover" end="zoomplus.mouseout"/>
                        </use>
                        <path d="M-4,0h8M0,-4v8" fill="none" stroke="white" stroke-width="1.5" pointer-events="none"/>
                </g>
                <g id="zoomMin">
                        <use xlink:href="#rim" fill="#404040">
                                <set attributeName="fill" to="#808080" begin="zoomminus.mouseover" end="zoomminus.mouseout"/>
                        </use>
                        <path d="M-4,0h8" fill="none" stroke="white" stroke-width="1.5" pointer-events="none"/>
                </g>
                <g id="dirArrow">
                        <path fill="none" stroke="white" stroke-width="1.5" d="M0,-3.0v7 M-2.5,-0.5L0,-3.0L2.5,-0.5"/>
                </g>
               <g id="resetDef">
                       <use xlink:href="#rim2" fill="#404040">
                               <set attributeName="fill" to="#808080" begin="reset.mouseover" end="reset.mouseout"/>
                       </use>
               </g>
        </defs>

<script type="text/javascript">
var viewWidth = 713;
var viewHeight = 212;
var sectionId = 'dynsection-15';
</script>
<script xlink:href="svgpan.js"/>
<svg id="graph" class="graph">
<g id="viewport">
<title>QtPassSettings::getGpgExecutable</title>
<!-- Node42 -->
<g id="node1" class="node">
<title>Node42</title>
<polygon fill="#bfbfbf" stroke="#000000" points="0,-92.5 0,-110.5 172.7578,-110.5 172.7578,-92.5 0,-92.5"/>
<text text-anchor="middle" x="86.3789" y="-98.5" font-family="Helvetica,sans-Serif" font-size="10.00" fill="#000000">QtPassSettings::getGpgExecutable</text>
</g>
<!-- Node43 -->
<g id="node2" class="node">
<title>Node43</title>
<g id="a_node2"><a xlink:href="class_config_dialog.html#a815d6d8ddf1de9386427ddef691a02a1" target="_top" xlink:title="ConfigDialog::ConfigDialog this sets up the configuration screen. ">
<polygon fill="none" stroke="#000000" points="219.5928,-185.5 219.5928,-203.5 355.6611,-203.5 355.6611,-185.5 219.5928,-185.5"/>
<text text-anchor="middle" x="287.627" y="-191.5" font-family="Helvetica,sans-Serif" font-size="10.00" fill="#000000">ConfigDialog::ConfigDialog</text>
</a>
</g>
</g>
<!-- Node42&#45;&gt;Node43 -->
<g id="edge1" class="edge">
<title>Node42&#45;&gt;Node43</title>
<path fill="none" stroke="#191970" d="M106.2483,-116.5161C129.6001,-133.4687 170.0864,-160.7349 208.7578,-176.5 217.6015,-180.1053 227.3117,-183.0653 236.8042,-185.4684"/>
<polygon fill="#191970" stroke="#191970" points="108.3039,-113.6832 98.177,-110.5693 104.1517,-119.3188 108.3039,-113.6832"/>
</g>
<!-- Node44 -->
<g id="node3" class="node">
<title>Node44</title>
<g id="a_node3"><a xlink:href="class_imitate_pass.html#a8670f6326e3dfe0018a0737fba27da2f" target="_top" xlink:title="ImitatePass::reencryptPath reencrypt all files under the chosen directory. ">
<polygon fill="none" stroke="#000000" points="219.6001,-148.5 219.6001,-166.5 355.6538,-166.5 355.6538,-148.5 219.6001,-148.5"/>
<text text-anchor="middle" x="287.627" y="-154.5" font-family="Helvetica,sans-Serif" font-size="10.00" fill="#000000">ImitatePass::reencryptPath</text>
</a>
</g>
</g>
<!-- Node42&#45;&gt;Node44 -->
<g id="edge2" class="edge">
<title>Node42&#45;&gt;Node44</title>
<path fill="none" stroke="#191970" d="M123.2503,-113.7588C147.4286,-121.5965 179.8086,-131.7143 208.7578,-139.5 220.5574,-142.6734 233.4458,-145.7688 245.3202,-148.4727"/>
<polygon fill="#191970" stroke="#191970" points="124.0167,-110.3273 113.4242,-110.5528 121.8454,-116.9821 124.0167,-110.3273"/>
</g>
<!-- Node45 -->
<g id="node4" class="node">
<title>Node45</title>
<g id="a_node4"><a xlink:href="class_pass.html#a0c29f7bd4ca235d00d9dac6a37e14f4f" target="_top" xlink:title="Pass::GenerateGPGKeys internal gpg keypair generator . . ">
<polygon fill="none" stroke="#000000" points="222.6567,-111.5 222.6567,-129.5 352.5972,-129.5 352.5972,-111.5 222.6567,-111.5"/>
<text text-anchor="middle" x="287.627" y="-117.5" font-family="Helvetica,sans-Serif" font-size="10.00" fill="#000000">Pass::GenerateGPGKeys</text>
</a>
</g>
</g>
<!-- Node42&#45;&gt;Node45 -->
<g id="edge3" class="edge">
<title>Node42&#45;&gt;Node45</title>
<path fill="none" stroke="#191970" d="M183.0707,-110.6288C196.4225,-111.8893 209.8667,-113.1586 222.4612,-114.3476"/>
<polygon fill="#191970" stroke="#191970" points="183.1789,-107.1235 172.8941,-109.668 182.5209,-114.0925 183.1789,-107.1235"/>
</g>
<!-- Node48 -->
<g id="node7" class="node">
<title>Node48</title>
<g id="a_node7"><a xlink:href="class_pass.html#ad1ded1699f4e47d871296a96eca5a3ea" target="_top" xlink:title="Pass::listKeys list users. ">
<polygon fill="none" stroke="#000000" points="248.5063,-74.5 248.5063,-92.5 326.7476,-92.5 326.7476,-74.5 248.5063,-74.5"/>
<text text-anchor="middle" x="287.627" y="-80.5" font-family="Helvetica,sans-Serif" font-size="10.00" fill="#000000">Pass::listKeys</text>
</a>
</g>
</g>
<!-- Node42&#45;&gt;Node48 -->
<g id="edge6" class="edge">
<title>Node42&#45;&gt;Node48</title>
<path fill="none" stroke="#191970" d="M183.1198,-92.8473C206.2295,-90.7803 229.6127,-88.6889 248.384,-87.01"/>
<polygon fill="#191970" stroke="#191970" points="182.5425,-89.3849 172.8941,-93.7619 183.1662,-96.357 182.5425,-89.3849"/>
</g>
<!-- Node51 -->
<g id="node10" class="node">
<title>Node51</title>
<g id="a_node10"><a xlink:href="class_qt_pass_settings.html#a64ffdab0605be803054150d438254c56" target="_top" xlink:title="QtPassSettings::initExecutables">
<polygon fill="none" stroke="#000000" points="208.7578,-37.5 208.7578,-55.5 366.4961,-55.5 366.4961,-37.5 208.7578,-37.5"/>
<text text-anchor="middle" x="287.627" y="-43.5" font-family="Helvetica,sans-Serif" font-size="10.00" fill="#000000">QtPassSettings::initExecutables</text>
</a>
</g>
</g>
<!-- Node42&#45;&gt;Node51 -->
<g id="edge9" class="edge">
<title>Node42&#45;&gt;Node51</title>
<path fill="none" stroke="#191970" d="M124.222,-89.3195C148.3046,-81.7519 180.2215,-72.0605 208.7578,-64.5 220.5691,-61.3707 233.4613,-58.2894 245.3356,-55.585"/>
<polygon fill="#191970" stroke="#191970" points="122.8932,-86.0687 114.4133,-92.4202 125.0032,-92.7432 122.8932,-86.0687"/>
</g>
<!-- Node52 -->
<g id="node11" class="node">
<title>Node52</title>
<g id="a_node11"><a xlink:href="class_util.html#a00c91095ca10b233e45eb643ff6097a4" target="_top" xlink:title="Util::checkConfig do we have prequisite settings? ">
<polygon fill="none" stroke="#000000" points="242.1123,-.5 242.1123,-18.5 333.1416,-18.5 333.1416,-.5 242.1123,-.5"/>
<text text-anchor="middle" x="287.627" y="-6.5" font-family="Helvetica,sans-Serif" font-size="10.00" fill="#000000">Util::checkConfig</text>
</a>
</g>
</g>
<!-- Node42&#45;&gt;Node52 -->
<g id="edge10" class="edge">
<title>Node42&#45;&gt;Node52</title>
<path fill="none" stroke="#191970" d="M106.6544,-86.4316C130.0933,-69.6997 170.3839,-43.0106 208.7578,-27.5 219.1748,-23.2895 230.7832,-19.9528 241.8211,-17.3549"/>
<polygon fill="#191970" stroke="#191970" points="104.5808,-83.6119 98.5354,-92.3127 108.6872,-89.2809 104.5808,-83.6119"/>
</g>
<!-- Node46 -->
<g id="node5" class="node">
<title>Node46</title>
<g id="a_node5"><a xlink:href="class_qt_pass.html#abd1d1e8d6b80b8307a305d80a6c34371" target="_top" xlink:title="QtPass::setMainWindow">
<polygon fill="none" stroke="#000000" points="405.2744,-111.5 405.2744,-129.5 530.2002,-129.5 530.2002,-111.5 405.2744,-111.5"/>
<text text-anchor="middle" x="467.7373" y="-117.5" font-family="Helvetica,sans-Serif" font-size="10.00" fill="#000000">QtPass::setMainWindow</text>
</a>
</g>
</g>
<!-- Node45&#45;&gt;Node46 -->
<g id="edge4" class="edge">
<title>Node45&#45;&gt;Node46</title>
<path fill="none" stroke="#191970" d="M362.8175,-120.5C376.9293,-120.5 391.542,-120.5 405.2174,-120.5"/>
<polygon fill="#191970" stroke="#191970" points="362.651,-117.0001 352.6509,-120.5 362.6509,-124.0001 362.651,-117.0001"/>
</g>
<!-- Node47 -->
<g id="node6" class="node">
<title>Node47</title>
<g id="a_node6"><a xlink:href="class_main_window.html#a52e97245b2f88492071e639395c4a15a" target="_top" xlink:title="MainWindow::MainWindow handles all of the main functionality and also the main window. ">
<polygon fill="none" stroke="#000000" points="568.9785,-111.5 568.9785,-129.5 705.0176,-129.5 705.0176,-111.5 568.9785,-111.5"/>
<text text-anchor="middle" x="636.998" y="-117.5" font-family="Helvetica,sans-Serif" font-size="10.00" fill="#000000">MainWindow::MainWindow</text>
</a>
</g>
</g>
<!-- Node46&#45;&gt;Node47 -->
<g id="edge5" class="edge">
<title>Node46&#45;&gt;Node47</title>
<path fill="none" stroke="#191970" d="M540.3879,-120.5C549.7941,-120.5 559.4018,-120.5 568.7335,-120.5"/>
<polygon fill="#191970" stroke="#191970" points="540.2829,-117.0001 530.2829,-120.5 540.2828,-124.0001 540.2829,-117.0001"/>
</g>
<!-- Node49 -->
<g id="node8" class="node">
<title>Node49</title>
<g id="a_node8"><a xlink:href="class_pass.html#a451b0f52aa0332801252ae28665e29b3" target="_top" xlink:title="Pass::listKeys list users. ">
<polygon fill="none" stroke="#000000" points="428.6167,-74.5 428.6167,-92.5 506.8579,-92.5 506.8579,-74.5 428.6167,-74.5"/>
<text text-anchor="middle" x="467.7373" y="-80.5" font-family="Helvetica,sans-Serif" font-size="10.00" fill="#000000">Pass::listKeys</text>
</a>
</g>
</g>
<!-- Node48&#45;&gt;Node49 -->
<g id="edge7" class="edge">
<title>Node48&#45;&gt;Node49</title>
<path fill="none" stroke="#191970" d="M337.4117,-83.5C366.1847,-83.5 401.8649,-83.5 428.6136,-83.5"/>
<polygon fill="#191970" stroke="#191970" points="337.153,-80.0001 327.1529,-83.5 337.1529,-87.0001 337.153,-80.0001"/>
</g>
<!-- Node50 -->
<g id="node9" class="node">
<title>Node50</title>
<g id="a_node9"><a xlink:href="class_users_dialog.html#a7a3d75a01a48609ce7571cec09b95f07" target="_top" xlink:title="UsersDialog::UsersDialog basic constructor. ">
<polygon fill="none" stroke="#000000" points="402.4961,-37.5 402.4961,-55.5 532.9785,-55.5 532.9785,-37.5 402.4961,-37.5"/>
<text text-anchor="middle" x="467.7373" y="-43.5" font-family="Helvetica,sans-Serif" font-size="10.00" fill="#000000">UsersDialog::UsersDialog</text>
</a>
</g>
</g>
<!-- Node48&#45;&gt;Node50 -->
<g id="edge8" class="edge">
<title>Node48&#45;&gt;Node50</title>
<path fill="none" stroke="#191970" d="M337.2244,-73.3112C364.3662,-67.7355 397.6977,-60.8882 423.8825,-55.5091"/>
<polygon fill="#191970" stroke="#191970" points="336.2441,-69.9394 327.1529,-75.3802 337.6527,-76.7962 336.2441,-69.9394"/>
</g>
<!-- Node53 -->
<g id="node12" class="node">
<title>Node53</title>
<g id="a_node12"><a xlink:href="class_main_window.html#aeb8091ab5531144b76c1fbb0d63deb56" target="_top" xlink:title="MainWindow::config pops up the configuration screen and handles all inter&#45;window communication. ">
<polygon fill="none" stroke="#000000" points="414.9961,-.5 414.9961,-18.5 520.4785,-18.5 520.4785,-.5 414.9961,-.5"/>
<text text-anchor="middle" x="467.7373" y="-6.5" font-family="Helvetica,sans-Serif" font-size="10.00" fill="#000000">MainWindow::config</text>
</a>
</g>
</g>
<!-- Node52&#45;&gt;Node53 -->
<g id="edge11" class="edge">
<title>Node52&#45;&gt;Node53</title>
<path fill="none" stroke="#191970" d="M343.7143,-9.5C366.4259,-9.5 392.5148,-9.5 414.8868,-9.5"/>
<polygon fill="#191970" stroke="#191970" points="343.5425,-6.0001 333.5424,-9.5 343.5424,-13.0001 343.5425,-6.0001"/>
</g>
</g>
</svg>
        <g id="navigator" transform="translate(0 0)" fill="#404254">
                <rect fill="#f2f5e9" fill-opacity="0.5" stroke="#606060" stroke-width=".5" x="0" y="0" width="60" height="60"/>
                <use id="zoomplus" xlink:href="#zoomPlus" x="17" y="9" onmousedown="handleZoom(evt,'in')"/>
                <use id="zoomminus" xlink:href="#zoomMin" x="42" y="9" onmousedown="handleZoom(evt,'out')"/>
                <use id="reset" xlink:href="#resetDef" x="30" y="36" onmousedown="handleReset()"/>
                <g id="arrowUp" xlink:href="#dirArrow" transform="translate(30 24)" onmousedown="handlePan(0,-1)">
                  <use xlink:href="#rim" fill="#404040">
                        <set attributeName="fill" to="#808080" begin="arrowUp.mouseover" end="arrowUp.mouseout"/>
                  </use>
                  <path fill="none" stroke="white" stroke-width="1.5" d="M0,-3.0v7 M-2.5,-0.5L0,-3.0L2.5,-0.5"/>
                </g>
                <g id="arrowRight" xlink:href="#dirArrow" transform="rotate(90) translate(36 -43)" onmousedown="handlePan(1,0)">
                  <use xlink:href="#rim" fill="#404040">
                        <set attributeName="fill" to="#808080" begin="arrowRight.mouseover" end="arrowRight.mouseout"/>
                  </use>
                  <path fill="none" stroke="white" stroke-width="1.5" d="M0,-3.0v7 M-2.5,-0.5L0,-3.0L2.5,-0.5"/>
                </g>
                <g id="arrowDown" xlink:href="#dirArrow" transform="rotate(180) translate(-30 -48)" onmousedown="handlePan(0,1)">
                  <use xlink:href="#rim" fill="#404040">
                        <set attributeName="fill" to="#808080" begin="arrowDown.mouseover" end="arrowDown.mouseout"/>
                  </use>
                  <path fill="none" stroke="white" stroke-width="1.5" d="M0,-3.0v7 M-2.5,-0.5L0,-3.0L2.5,-0.5"/>
                </g>
                <g id="arrowLeft" xlink:href="#dirArrow" transform="rotate(270) translate(-36 17)" onmousedown="handlePan(-1,0)">
                  <use xlink:href="#rim" fill="#404040">
                        <set attributeName="fill" to="#808080" begin="arrowLeft.mouseover" end="arrowLeft.mouseout"/>
                  </use>
                  <path fill="none" stroke="white" stroke-width="1.5" d="M0,-3.0v7 M-2.5,-0.5L0,-3.0L2.5,-0.5"/>
                </g>
        </g>
        <svg viewBox="0 0 15 15" width="100%" height="30px" preserveAspectRatio="xMaxYMin meet">
         <g id="arrow_out" transform="scale(0.3 0.3)">
          <a xlink:href="class_qt_pass_settings_a92b674cdafc03000c808bff5fab93249_icgraph_org.svg" target="_base">
           <rect id="button" ry="5" rx="5" y="6" x="6" height="38" width="38"
                fill="#f2f5e9" fill-opacity="0.5" stroke="#606060" stroke-width="1.0"/>
           <path id="arrow"
             d="M 11.500037,31.436501 C 11.940474,20.09759 22.043105,11.32322 32.158766,21.979434 L 37.068811,17.246167 C 37.068811,17.246167 37.088388,32 37.088388,32 L 22.160133,31.978069 C 22.160133,31.978069 26.997745,27.140456 26.997745,27.140456 C 18.528582,18.264221 13.291696,25.230495 11.500037,31.436501 z"
             style="fill:#404040;"/>
          </a>
         </g>
        </svg>
</svg>
