<?xml version="1.0" encoding="UTF-8" standalone="no"?>
<!DOCTYPE svg PUBLIC "-//W3C//DTD SVG 1.1//EN"
 "http://www.w3.org/Graphics/SVG/1.1/DTD/svg11.dtd">
<!-- Generated by graphviz version 2.49.3 (0)
 -->
<!-- Title: Pass::processErrorExit Pages: 1 -->
<svg width="444pt" height="94pt"
 viewBox="0.00 0.00 444.00 93.50" xmlns="http://www.w3.org/2000/svg" xmlns:xlink="http://www.w3.org/1999/xlink">
<g id="graph0" class="graph" transform="scale(1 1) rotate(0) translate(4 89.5)">
<title>Pass::processErrorExit</title>
<!-- Node1 -->
<g id="node1" class="node">
<title>Node1</title>
<g id="a_node1"><a xlink:title=" ">
<polygon fill="#999999" stroke="#666666" points="436,-45.5 318,-45.5 318,-26.5 436,-26.5 436,-45.5"/>
<text text-anchor="middle" x="377" y="-33.5" font-family="Helvetica,sans-Serif" font-size="10.00">Pass::processErrorExit</text>
</a>
</g>
</g>
<!-- Node2 -->
<g id="node2" class="node">
<title>Node2</title>
<g id="a_node2"><a xlink:href="class_pass.html#ad51174f24ecdbc14a55e4588a34b8563" target="_top" xlink:title="Pass::processFinished reemits specific signal based on what process has finished.">
<polygon fill="white" stroke="#666666" points="253,-67.5 174,-67.5 174,-48.5 253,-48.5 253,-67.5"/>
<text text-anchor="middle" x="213.5" y="-55.5" font-family="Helvetica,sans-Serif" font-size="10.00">Pass::finished</text>
</a>
</g>
</g>
<!-- Node1&#45;&gt;Node2 -->
<g id="edge1" class="edge">
<title>Node1&#45;&gt;Node2</title>
<path fill="none" stroke="#63b8ff" d="M307.73,-45.3C289.04,-47.85 269.44,-50.52 253.05,-52.75"/>
<polygon fill="#63b8ff" stroke="#63b8ff" points="308.26,-48.76 317.69,-43.94 307.31,-41.82 308.26,-48.76"/>
</g>
<!-- Node5 -->
<g id="node5" class="node">
<title>Node5</title>
<g id="a_node5"><a xlink:href="class_password_dialog.html#a1fd0289581d2b742470a3efae7db6154" target="_top" xlink:title="PasswordDialog::PasswordDialog complete constructor.">
<polygon fill="white" stroke="#666666" points="282,-30 145,-30 145,0 282,0 282,-30"/>
<text text-anchor="start" x="153" y="-18" font-family="Helvetica,sans-Serif" font-size="10.00">PasswordDialog::Password</text>
<text text-anchor="middle" x="213.5" y="-7" font-family="Helvetica,sans-Serif" font-size="10.00">Dialog</text>
</a>
</g>
</g>
<!-- Node1&#45;&gt;Node5 -->
<g id="edge4" class="edge">
<title>Node1&#45;&gt;Node5</title>
<path fill="none" stroke="#63b8ff" d="M307.52,-27.1C299.09,-26 290.47,-24.88 282.05,-23.78"/>
<polygon fill="#63b8ff" stroke="#63b8ff" points="307.33,-30.6 317.69,-28.42 308.23,-23.66 307.33,-30.6"/>
</g>
<!-- Node3 -->
<g id="node3" class="node">
<title>Node3</title>
<g id="a_node3"><a xlink:href="class_imitate_pass.html#ac20ec846eb423ae4b89c8efef0c1a235" target="_top" xlink:title="ImitatePass::finished this function is overloaded to ensure identical behaviour to RealPass ie....">
<polygon fill="white" stroke="#666666" points="109,-85.5 0,-85.5 0,-66.5 109,-66.5 109,-85.5"/>
<text text-anchor="middle" x="54.5" y="-73.5" font-family="Helvetica,sans-Serif" font-size="10.00">ImitatePass::finished</text>
</a>
</g>
</g>
<!-- Node2&#45;&gt;Node3 -->
<g id="edge2" class="edge">
<title>Node2&#45;&gt;Node3</title>
<path fill="none" stroke="#63b8ff" d="M163.32,-63.64C146.14,-65.61 126.79,-67.83 109.26,-69.84"/>
<polygon fill="#63b8ff" stroke="#63b8ff" points="164.15,-67.07 173.69,-62.45 163.36,-60.11 164.15,-67.07"/>
</g>
<!-- Node4 -->
<g id="node4" class="node">
<title>Node4</title>
<g id="a_node4"><a xlink:href="class_pass.html#a5d0cea4019f5c123fb4a4417de8d95b9" target="_top" xlink:title="Pass::Pass wrapper for using either pass or the pass imitation.">
<polygon fill="white" stroke="#666666" points="88.5,-48.5 20.5,-48.5 20.5,-29.5 88.5,-29.5 88.5,-48.5"/>
<text text-anchor="middle" x="54.5" y="-36.5" font-family="Helvetica,sans-Serif" font-size="10.00">Pass::Pass</text>
</a>
</g>
</g>
<!-- Node2&#45;&gt;Node4 -->
<g id="edge3" class="edge">
<title>Node2&#45;&gt;Node4</title>
<path fill="none" stroke="#63b8ff" d="M163.54,-52.08C139.15,-49.12 110.3,-45.63 88.56,-43"/>
<polygon fill="#63b8ff" stroke="#63b8ff" points="163.34,-55.58 173.69,-53.3 164.18,-48.63 163.34,-55.58"/>
</g>
</g>
</svg>
