<?xml version="1.0" encoding="UTF-8" standalone="no"?>
<!DOCTYPE svg PUBLIC "-//W3C//DTD SVG 1.1//EN"
 "http://www.w3.org/Graphics/SVG/1.1/DTD/svg11.dtd">
<!-- Generated by graphviz version 2.43.0 (0)
 -->
<!-- Title: ImitatePass::executeGit Pages: 1 -->
<!--zoomable 334 -->

<svg id="main" version="1.1" xmlns="http://www.w3.org/2000/svg" xmlns:xlink="http://www.w3.org/1999/xlink" xml:space="preserve" onload="init(evt)">

<style type="text/css"><![CDATA[
.node, .edge {opacity: 0.7;}
.node.selected, .edge.selected {opacity: 1;}
.edge:hover path { stroke: red; }
.edge:hover polygon { stroke: red; fill: red; }
]]></style>

<defs>
  <circle id="rim" cx="0" cy="0" r="7"/>
  <circle id="rim2" cx="0" cy="0" r="3.5"/>
  <g id="zoomPlus">
    <use xlink:href="#rim" fill="#404040"><set attributeName="fill" to="#808080" begin="zoomplus.mouseover" end="zoomplus.mouseout"/></use>
    <path d="M-4,0h8M0,-4v8" fill="none" stroke="white" stroke-width="1.5" pointer-events="none"/>
  </g>
  <g id="zoomMin">
    <use xlink:href="#rim" fill="#404040"><set attributeName="fill" to="#808080" begin="zoomminus.mouseover" end="zoomminus.mouseout"/></use>
    <path d="M-4,0h8" fill="none" stroke="white" stroke-width="1.5" pointer-events="none"/>
  </g>
  <g id="arrowUp" transform="translate(30 24)">
    <use xlink:href="#rim"/>
    <path pointer-events="none" fill="none" stroke="white" stroke-width="1.5" d="M0,-3.0v7 M-2.5,-0.5L0,-3.0L2.5,-0.5"/>
  </g>
  <g id="arrowRight" transform="rotate(90) translate(36 -43)">
    <use xlink:href="#rim"/>
    <path pointer-events="none" fill="none" stroke="white" stroke-width="1.5" d="M0,-3.0v7 M-2.5,-0.5L0,-3.0L2.5,-0.5"/>
  </g>
  <g id="arrowDown" transform="rotate(180) translate(-30 -48)">
    <use xlink:href="#rim"/>
    <path pointer-events="none" fill="none" stroke="white" stroke-width="1.5" d="M0,-3.0v7 M-2.5,-0.5L0,-3.0L2.5,-0.5"/>
  </g>
  <g id="arrowLeft" transform="rotate(270) translate(-36 17)">
    <use xlink:href="#rim"/>
    <path pointer-events="none" fill="none" stroke="white" stroke-width="1.5" d="M0,-3.0v7 M-2.5,-0.5L0,-3.0L2.5,-0.5"/>
  </g>
  <g id="resetDef">
    <use xlink:href="#rim2" fill="#404040"><set attributeName="fill" to="#808080" begin="reset.mouseover" end="reset.mouseout"/></use>
  </g>
</defs>
<script type="application/ecmascript">
var viewWidth = 645;
var viewHeight = 334;
var sectionId = 'dynsection-9';
</script>
<script type="application/ecmascript" xlink:href="svg.min.js"/>
<svg id="graph" class="graph">
<g id="viewport">
<title>ImitatePass::executeGit</title>
<!-- Node1 -->
<g id="Node000001" class="node">
<title>Node1</title>
<g id="a_Node000001"><a xlink:title="Execute git command.">
<polygon fill="#999999" stroke="#666666" points="637,-170 505,-170 505,-151 637,-151 637,-170"/>
<text text-anchor="middle" x="571" y="-158" font-family="Helvetica,sans-Serif" font-size="10.00">ImitatePass::executeGit</text>
</a>
</g>
</g>
<!-- Node2 -->
<g id="Node000002" class="node">
<title>Node2</title>
<g id="a_Node000002"><a xlink:href="class_imitate_pass.html#a97538d83d4f6a583f840db0865e8609a" target="_top" xlink:title="Copy password file.">
<polygon fill="white" stroke="#666666" points="105.5,-284 1.5,-284 1.5,-265 105.5,-265 105.5,-284"/>
<text text-anchor="middle" x="53.5" y="-272" font-family="Helvetica,sans-Serif" font-size="10.00">ImitatePass::Copy</text>
</a>
</g>
</g>
<!-- Node1&#45;&gt;Node2 -->
<g id="edge1_Node000001_Node000002" class="edge">
<title>Node1&#45;&gt;Node2</title>
<g id="a_edge1_Node000001_Node000002"><a xlink:title=" ">
<path fill="none" stroke="#63b8ff" d="M562.31,-179.53C548.73,-210.2 517.3,-269.53 469,-293.5 336.23,-359.39 149.13,-307.09 80.8,-284.02"/>
<polygon fill="#63b8ff" stroke="#63b8ff" points="565.53,-180.89 566.22,-170.32 559.09,-178.15 565.53,-180.89"/>
</a>
</g>
</g>
<!-- Node3 -->
<g id="Node000003" class="node">
<title>Node3</title>
<g id="a_Node000003"><a xlink:href="class_imitate_pass.html#a94389a15db6c782715520aa6fbb13098" target="_top" xlink:title="Execute git move operation.">
<polygon fill="white" stroke="#666666" points="302,-171 143,-171 143,-152 302,-152 302,-171"/>
<text text-anchor="middle" x="222.5" y="-159" font-family="Helvetica,sans-Serif" font-size="10.00">ImitatePass::executeMoveGit</text>
</a>
</g>
</g>
<!-- Node1&#45;&gt;Node3 -->
<g id="edge2_Node000001_Node000003" class="edge">
<title>Node1&#45;&gt;Node3</title>
<g id="a_edge2_Node000001_Node000003"><a xlink:title=" ">
<path fill="none" stroke="#63b8ff" d="M494.8,-160.72C437.84,-160.88 359.8,-161.11 302.04,-161.27"/>
<polygon fill="#63b8ff" stroke="#63b8ff" points="494.84,-164.22 504.83,-160.69 494.82,-157.22 494.84,-164.22"/>
</a>
</g>
</g>
<!-- Node5 -->
<g id="Node000005" class="node">
<title>Node5</title>
<g id="a_Node000005"><a xlink:href="class_imitate_pass.html#ae9547b23ef6e8c04b52f514218e50a5c" target="_top" xlink:title="Add .gpg&#45;id to git staging.">
<polygon fill="white" stroke="#666666" points="292.5,-208 152.5,-208 152.5,-189 292.5,-189 292.5,-208"/>
<text text-anchor="middle" x="222.5" y="-196" font-family="Helvetica,sans-Serif" font-size="10.00">ImitatePass::gitAddGpgId</text>
</a>
</g>
</g>
<!-- Node1&#45;&gt;Node5 -->
<g id="edge4_Node000001_Node000005" class="edge">
<title>Node1&#45;&gt;Node5</title>
<g id="a_edge4_Node000001_Node000005"><a xlink:title=" ">
<path fill="none" stroke="#63b8ff" d="M549.75,-176.12C530.28,-190.08 499.4,-209.51 469,-217.5 395.2,-236.89 304.96,-220 257.08,-208"/>
<polygon fill="#63b8ff" stroke="#63b8ff" points="551.87,-178.9 557.85,-170.15 547.72,-173.26 551.87,-178.9"/>
</a>
</g>
</g>
<!-- Node7 -->
<g id="Node000007" class="node">
<title>Node7</title>
<g id="a_Node000007"><a xlink:href="class_imitate_pass.html#afcfd84525f2dfd41b131f76c988010fb" target="_top" xlink:title="Commit changes to git.">
<polygon fill="white" stroke="#666666" points="469,-208 338,-208 338,-189 469,-189 469,-208"/>
<text text-anchor="middle" x="403.5" y="-196" font-family="Helvetica,sans-Serif" font-size="10.00">ImitatePass::gitCommit</text>
</a>
</g>
</g>
<!-- Node1&#45;&gt;Node7 -->
<g id="edge6_Node000001_Node000007" class="edge">
<title>Node1&#45;&gt;Node7</title>
<g id="a_edge6_Node000001_Node000007"><a xlink:title=" ">
<path fill="none" stroke="#63b8ff" d="M518.19,-172.4C494.93,-177.74 467.85,-183.95 445.96,-188.98"/>
<polygon fill="#63b8ff" stroke="#63b8ff" points="519.27,-175.74 528.24,-170.09 517.71,-168.92 519.27,-175.74"/>
</a>
</g>
</g>
<!-- Node8 -->
<g id="Node000008" class="node">
<title>Node8</title>
<g id="a_Node000008"><a xlink:href="class_imitate_pass.html#a84de97293ca1a100b1e466b4a79ec601" target="_top" xlink:title="Insert new password.">
<polygon fill="white" stroke="#666666" points="276,-133 169,-133 169,-114 276,-114 276,-133"/>
<text text-anchor="middle" x="222.5" y="-121" font-family="Helvetica,sans-Serif" font-size="10.00">ImitatePass::Insert</text>
</a>
</g>
</g>
<!-- Node1&#45;&gt;Node8 -->
<g id="edge18_Node000001_Node000008" class="edge">
<title>Node1&#45;&gt;Node8</title>
<g id="a_edge18_Node000001_Node000008"><a xlink:title=" ">
<path fill="none" stroke="#63b8ff" d="M494.49,-152.44C428.49,-145.39 334.37,-135.34 276.2,-129.13"/>
<polygon fill="#63b8ff" stroke="#63b8ff" points="494.51,-155.96 504.83,-153.54 495.25,-149 494.51,-155.96"/>
</a>
</g>
</g>
<!-- Node9 -->
<g id="Node000009" class="node">
<title>Node9</title>
<g id="a_Node000009"><a xlink:href="class_imitate_pass.html#ab9cef44c64dae297da55e08266f1c1c5" target="_top" xlink:title="Remove password.">
<polygon fill="white" stroke="#666666" points="282.5,-96 162.5,-96 162.5,-77 282.5,-77 282.5,-96"/>
<text text-anchor="middle" x="222.5" y="-84" font-family="Helvetica,sans-Serif" font-size="10.00">ImitatePass::Remove</text>
</a>
</g>
</g>
<!-- Node1&#45;&gt;Node9 -->
<g id="edge19_Node000001_Node000009" class="edge">
<title>Node1&#45;&gt;Node9</title>
<g id="a_edge19_Node000001_Node000009"><a xlink:title=" ">
<path fill="none" stroke="#63b8ff" d="M528.62,-148.17C510.42,-142.97 488.74,-137.08 469,-132.5 405.64,-117.81 332.24,-104.54 282.32,-96.07"/>
<polygon fill="#63b8ff" stroke="#63b8ff" points="527.76,-151.56 538.34,-150.97 529.7,-144.84 527.76,-151.56"/>
</a>
</g>
</g>
<!-- Node10 -->
<g id="Node000010" class="node">
<title>Node10</title>
<g id="a_Node000010"><a xlink:href="class_imitate_pass.html#a2bb2e83ad96efa7c111df54230e237bb" target="_top" xlink:title="Initialize Git repository.">
<polygon fill="white" stroke="#666666" points="458.5,-56 348.5,-56 348.5,-37 458.5,-37 458.5,-56"/>
<text text-anchor="middle" x="403.5" y="-44" font-family="Helvetica,sans-Serif" font-size="10.00">ImitatePass::GitInit</text>
</a>
</g>
</g>
<!-- Node1&#45;&gt;Node10 -->
<g id="edge12_Node000001_Node000010" class="edge">
<title>Node1&#45;&gt;Node10</title>
<g id="a_edge12_Node000001_Node000010"><a xlink:title=" ">
<path fill="none" stroke="#63b8ff" d="M554.63,-143.39C536.03,-123.54 502.95,-90.95 469,-70.5 459.28,-64.64 447.89,-59.83 437.41,-56.09"/>
<polygon fill="#63b8ff" stroke="#63b8ff" points="552.11,-145.82 561.46,-150.8 557.26,-141.07 552.11,-145.82"/>
</a>
</g>
</g>
<!-- Node11 -->
<g id="Node000011" class="node">
<title>Node11</title>
<g id="a_Node000011"><a xlink:href="class_imitate_pass.html#ab9f0103079ee01a263b70b95cd4aeced" target="_top" xlink:title="Pull from remote.">
<polygon fill="white" stroke="#666666" points="459.5,-19 347.5,-19 347.5,0 459.5,0 459.5,-19"/>
<text text-anchor="middle" x="403.5" y="-7" font-family="Helvetica,sans-Serif" font-size="10.00">ImitatePass::GitPull</text>
</a>
</g>
</g>
<!-- Node1&#45;&gt;Node11 -->
<g id="edge13_Node000001_Node000011" class="edge">
<title>Node1&#45;&gt;Node11</title>
<g id="a_edge13_Node000001_Node000011"><a xlink:title=" ">
<path fill="none" stroke="#63b8ff" d="M560.85,-141.68C545.78,-112.7 512.98,-57.38 469,-27.5 464,-24.1 458.37,-21.34 452.57,-19.1"/>
<polygon fill="#63b8ff" stroke="#63b8ff" points="557.79,-143.4 565.43,-150.74 564.04,-140.24 557.79,-143.4"/>
</a>
</g>
</g>
<!-- Node12 -->
<g id="Node000012" class="node">
<title>Node12</title>
<g id="a_Node000012"><a xlink:href="class_imitate_pass.html#ae61b400e69fcc32c4a80b94fb52107b9" target="_top" xlink:title="Push to remote.">
<polygon fill="white" stroke="#666666" points="462,-284 345,-284 345,-265 462,-265 462,-284"/>
<text text-anchor="middle" x="403.5" y="-272" font-family="Helvetica,sans-Serif" font-size="10.00">ImitatePass::GitPush</text>
</a>
</g>
</g>
<!-- Node1&#45;&gt;Node12 -->
<g id="edge14_Node000001_Node000012" class="edge">
<title>Node1&#45;&gt;Node12</title>
<g id="a_edge14_Node000001_Node000012"><a xlink:title=" ">
<path fill="none" stroke="#63b8ff" d="M554.63,-177.61C536.03,-197.46 502.95,-230.05 469,-250.5 459.28,-256.36 447.89,-261.17 437.41,-264.91"/>
<polygon fill="#63b8ff" stroke="#63b8ff" points="557.26,-179.93 561.46,-170.2 552.11,-175.18 557.26,-179.93"/>
</a>
</g>
</g>
<!-- Node4 -->
<g id="Node000004" class="node">
<title>Node4</title>
<g id="a_Node000004"><a xlink:href="class_imitate_pass.html#a9653850cc56714b9774221204339bbf2" target="_top" xlink:title="Move password file.">
<polygon fill="white" stroke="#666666" points="107,-171 0,-171 0,-152 107,-152 107,-171"/>
<text text-anchor="middle" x="53.5" y="-159" font-family="Helvetica,sans-Serif" font-size="10.00">ImitatePass::Move</text>
</a>
</g>
</g>
<!-- Node3&#45;&gt;Node4 -->
<g id="edge3_Node000003_Node000004" class="edge">
<title>Node3&#45;&gt;Node4</title>
<g id="a_edge3_Node000003_Node000004"><a xlink:title=" ">
<path fill="none" stroke="#63b8ff" d="M132.74,-161.5C124.11,-161.5 115.55,-161.5 107.44,-161.5"/>
<polygon fill="#63b8ff" stroke="#63b8ff" points="132.89,-165 142.89,-161.5 132.89,-158 132.89,-165"/>
</a>
</g>
</g>
<!-- Node6 -->
<g id="Node000006" class="node">
<title>Node6</title>
<g id="a_Node000006"><a xlink:href="class_imitate_pass.html#a6fe6b48df3fb04071c8c2c1d5c1d1206" target="_top" xlink:title="Initialize store.">
<polygon fill="white" stroke="#666666" points="101,-228 6,-228 6,-209 101,-209 101,-228"/>
<text text-anchor="middle" x="53.5" y="-216" font-family="Helvetica,sans-Serif" font-size="10.00">ImitatePass::Init</text>
</a>
</g>
</g>
<!-- Node5&#45;&gt;Node6 -->
<g id="edge5_Node000005_Node000006" class="edge">
<title>Node5&#45;&gt;Node6</title>
<g id="a_edge5_Node000005_Node000006"><a xlink:title=" ">
<path fill="none" stroke="#63b8ff" d="M141.97,-208.02C127.96,-209.7 113.8,-211.4 101.07,-212.92"/>
<polygon fill="#63b8ff" stroke="#63b8ff" points="142.61,-211.47 152.13,-206.81 141.78,-204.52 142.61,-211.47"/>
</a>
</g>
</g>
<!-- Node7&#45;&gt;Node2 -->
<g id="edge7_Node000007_Node000002" class="edge">
<title>Node7&#45;&gt;Node2</title>
<g id="a_edge7_Node000007_Node000002"><a xlink:title=" ">
<path fill="none" stroke="#63b8ff" d="M348.99,-210.19C280.1,-225.23 161.71,-251.09 98.04,-264.99"/>
<polygon fill="#63b8ff" stroke="#63b8ff" points="349.75,-213.6 358.78,-208.05 348.26,-206.76 349.75,-213.6"/>
</a>
</g>
</g>
<!-- Node7&#45;&gt;Node3 -->
<g id="edge8_Node000007_Node000003" class="edge">
<title>Node7&#45;&gt;Node3</title>
<g id="a_edge8_Node000007_Node000003"><a xlink:title=" ">
<path fill="none" stroke="#63b8ff" d="M346.46,-186.92C321.8,-181.82 293.17,-175.9 269.75,-171.06"/>
<polygon fill="#63b8ff" stroke="#63b8ff" points="345.9,-190.37 356.4,-188.97 347.32,-183.52 345.9,-190.37"/>
</a>
</g>
</g>
<!-- Node7&#45;&gt;Node5 -->
<g id="edge9_Node000007_Node000005" class="edge">
<title>Node7&#45;&gt;Node5</title>
<g id="a_edge9_Node000007_Node000005"><a xlink:title=" ">
<path fill="none" stroke="#63b8ff" d="M327.74,-198.5C316.08,-198.5 304.08,-198.5 292.56,-198.5"/>
<polygon fill="#63b8ff" stroke="#63b8ff" points="327.88,-202 337.88,-198.5 327.88,-195 327.88,-202"/>
</a>
</g>
</g>
<!-- Node7&#45;&gt;Node8 -->
<g id="edge10_Node000007_Node000008" class="edge">
<title>Node7&#45;&gt;Node8</title>
<g id="a_edge10_Node000007_Node000008"><a xlink:title=" ">
<path fill="none" stroke="#63b8ff" d="M379.1,-183.48C359.23,-171.29 329.64,-154.38 302,-143.5 291.53,-139.38 279.94,-135.88 268.95,-133.02"/>
<polygon fill="#63b8ff" stroke="#63b8ff" points="377.42,-186.56 387.75,-188.88 381.12,-180.62 377.42,-186.56"/>
</a>
</g>
</g>
<!-- Node7&#45;&gt;Node9 -->
<g id="edge11_Node000007_Node000009" class="edge">
<title>Node7&#45;&gt;Node9</title>
<g id="a_edge11_Node000007_Node000009"><a xlink:title=" ">
<path fill="none" stroke="#63b8ff" d="M388.67,-180.78C370.94,-159.34 338.15,-123.72 302,-104.5 295.58,-101.09 288.53,-98.32 281.37,-96.07"/>
<polygon fill="#63b8ff" stroke="#63b8ff" points="386.1,-183.17 395.11,-188.76 391.55,-178.78 386.1,-183.17"/>
</a>
</g>
</g>
<!-- Node13 -->
<g id="Node000013" class="node">
<title>Node13</title>
<g id="a_Node000013"><a xlink:href="class_imitate_pass.html#af331446d163c31f1fca714646c0f6244" target="_top" xlink:title="Re&#45;encrypt entire directory.">
<polygon fill="white" stroke="#666666" points="296,-284 149,-284 149,-265 296,-265 296,-284"/>
<text text-anchor="middle" x="222.5" y="-272" font-family="Helvetica,sans-Serif" font-size="10.00">ImitatePass::reencryptPath</text>
</a>
</g>
</g>
<!-- Node12&#45;&gt;Node13 -->
<g id="edge15_Node000012_Node000013" class="edge">
<title>Node12&#45;&gt;Node13</title>
<g id="a_edge15_Node000012_Node000013"><a xlink:title=" ">
<path fill="none" stroke="#63b8ff" d="M334.87,-274.5C322.2,-274.5 308.91,-274.5 296.1,-274.5"/>
<polygon fill="#63b8ff" stroke="#63b8ff" points="334.88,-278 344.88,-274.5 334.88,-271 334.88,-278"/>
</a>
</g>
</g>
<!-- Node13&#45;&gt;Node2 -->
<g id="edge16_Node000013_Node000002" class="edge">
<title>Node13&#45;&gt;Node2</title>
<g id="a_edge16_Node000013_Node000002"><a xlink:title=" ">
<path fill="none" stroke="#63b8ff" d="M138.55,-274.5C127.43,-274.5 116.3,-274.5 105.95,-274.5"/>
<polygon fill="#63b8ff" stroke="#63b8ff" points="138.74,-278 148.74,-274.5 138.74,-271 138.74,-278"/>
</a>
</g>
</g>
<!-- Node13&#45;&gt;Node6 -->
<g id="edge17_Node000013_Node000006" class="edge">
<title>Node13&#45;&gt;Node6</title>
<g id="a_edge17_Node000013_Node000006"><a xlink:title=" ">
<path fill="none" stroke="#63b8ff" d="M183.3,-261.69C152.7,-251.43 110.47,-237.27 82.83,-228"/>
<polygon fill="#63b8ff" stroke="#63b8ff" points="182.2,-265.01 192.79,-264.87 184.42,-258.38 182.2,-265.01"/>
</a>
</g>
</g>
</g>
</svg>

<g id="navigator" transform="translate(0 0)" fill="#404254">
  <rect fill="#f2f5e9" fill-opacity="0.5" stroke="#606060" stroke-width=".5" x="0" y="0" width="60" height="60"/>
  <use id="zoomplus" xlink:href="#zoomPlus" x="17" y="9" onmousedown="handleZoom(evt,'in')"/>
  <use id="zoomminus" xlink:href="#zoomMin" x="42" y="9" onmousedown="handleZoom(evt,'out')"/>
  <use id="reset" xlink:href="#resetDef" x="30" y="36" onmousedown="handleReset()"/>
   <use id="arrowup" xlink:href="#arrowUp" x="0" y="0" onmousedown="handlePan(0,-1)"/>
  <use id="arrowright" xlink:href="#arrowRight" x="0" y="0" onmousedown="handlePan(1,0)"/>
  <use id="arrowdown" xlink:href="#arrowDown" x="0" y="0" onmousedown="handlePan(0,1)"/>
  <use id="arrowleft" xlink:href="#arrowLeft" x="0" y="0" onmousedown="handlePan(-1,0)"/>
</g>
<svg viewBox="0 0 15 15" width="100%" height="30px" preserveAspectRatio="xMaxYMin meet">
 <g id="arrow_out" transform="scale(0.3 0.3)">
  <a xlink:href="class_imitate_pass_a6f9682c6103b112a9aa844df7ef6a273_icgraph_org.svg" target="_base">
   <rect id="button" ry="5" rx="5" y="6" x="6" height="38" width="38"
        fill="#f2f5e9" fill-opacity="0.5" stroke="#606060" stroke-width="1.0"/>
   <path id="arrow"
     d="M 11.500037,31.436501 C 11.940474,20.09759 22.043105,11.32322 32.158766,21.979434 L 37.068811,17.246167 C 37.068811,17.246167 37.088388,32 37.088388,32 L 22.160133,31.978069 C 22.160133,31.978069 26.997745,27.140456 26.997745,27.140456 C 18.528582,18.264221 13.291696,25.230495 11.500037,31.436501 z"
     style="fill:#404040;"/>
  </a>
 </g>
</svg>

<style type='text/css'>
<![CDATA[
[data-mouse-over-selected='false'] { opacity: 0.7; }
[data-mouse-over-selected='true']  { opacity: 1.0; }
]]>
</style>
<script type="application/ecmascript"><![CDATA[
document.addEventListener('DOMContentLoaded', (event) => {
  highlightEdges();
  highlightAdjacentNodes();
});
]]></script>
</svg>
