<?xml version="1.0" encoding="UTF-8" standalone="no"?>
<!DOCTYPE svg PUBLIC "-//W3C//DTD SVG 1.1//EN"
 "http://www.w3.org/Graphics/SVG/1.1/DTD/svg11.dtd">
<!-- Generated by graphviz version 2.38.0 (20140413.2041)
 -->
<!-- Title: QtPassSettings::isAutoPull Pages: 1 -->
<!--zoomable 111 -->
<svg id="main" version="1.1" xmlns="http://www.w3.org/2000/svg" xmlns:xlink="http://www.w3.org/1999/xlink" xml:space="preserve" onload="init(evt)">
<style type="text/css"><![CDATA[
.edge:hover path { stroke: red; }
.edge:hover polygon { stroke: red; fill: red; }
]]></style>
<script type="text/javascript"><![CDATA[
var edges = document.getElementsByTagName('g');
if (edges && edges.length) {
  for (var i=0;i<edges.length;i++) {
    if (edges[i].id.substr(0,4)=='edge') {
      edges[i].setAttribute('class','edge');
    }
  }
}
]]></script>
        <defs>
                <circle id="rim" cx="0" cy="0" r="7"/>
                <circle id="rim2" cx="0" cy="0" r="3.5"/>
                <g id="zoomPlus">
                        <use xlink:href="#rim" fill="#404040">
                                <set attributeName="fill" to="#808080" begin="zoomplus.mouseover" end="zoomplus.mouseout"/>
                        </use>
                        <path d="M-4,0h8M0,-4v8" fill="none" stroke="white" stroke-width="1.5" pointer-events="none"/>
                </g>
                <g id="zoomMin">
                        <use xlink:href="#rim" fill="#404040">
                                <set attributeName="fill" to="#808080" begin="zoomminus.mouseover" end="zoomminus.mouseout"/>
                        </use>
                        <path d="M-4,0h8" fill="none" stroke="white" stroke-width="1.5" pointer-events="none"/>
                </g>
                <g id="dirArrow">
                        <path fill="none" stroke="white" stroke-width="1.5" d="M0,-3.0v7 M-2.5,-0.5L0,-3.0L2.5,-0.5"/>
                </g>
               <g id="resetDef">
                       <use xlink:href="#rim2" fill="#404040">
                               <set attributeName="fill" to="#808080" begin="reset.mouseover" end="reset.mouseout"/>
                       </use>
               </g>
        </defs>

<script type="text/javascript">
var viewWidth = 728;
var viewHeight = 111;
var sectionId = 'dynsection-28';
</script>
<script xlink:href="svgpan.js"/>
<svg id="graph" class="graph">
<g id="viewport">
<title>QtPassSettings::isAutoPull</title>
<!-- Node191 -->
<g id="node1" class="node"><title>Node191</title>
<polygon fill="#bfbfbf" stroke="black" points="0,-45.5 0,-63.5 134.945,-63.5 134.945,-45.5 0,-45.5"/>
<text text-anchor="middle" x="67.4727" y="-51.5" font-family="Helvetica,sans-Serif" font-size="10.00">QtPassSettings::isAutoPull</text>
</g>
<!-- Node192 -->
<g id="node2" class="node"><title>Node192</title>
<g id="a_node2"><a xlink:href="class_main_window.html#aeb8091ab5531144b76c1fbb0d63deb56" target="_top" xlink:title="MainWindow::config pops up the configuration screen and handles all inter&#45;window communication. ">
<polygon fill="none" stroke="black" points="204.017,-82.5 204.017,-100.5 309.499,-100.5 309.499,-82.5 204.017,-82.5"/>
<text text-anchor="middle" x="256.758" y="-88.5" font-family="Helvetica,sans-Serif" font-size="10.00">MainWindow::config</text>
</a>
</g>
</g>
<!-- Node191&#45;&gt;Node192 -->
<g id="edge1" class="edge"><title>Node191&#45;&gt;Node192</title>
<path fill="none" stroke="midnightblue" d="M124.127,-65.4951C151.536,-70.9099 184.173,-77.3577 210.091,-82.4782"/>
<polygon fill="midnightblue" stroke="midnightblue" points="124.777,-62.0558 114.288,-63.5512 123.42,-68.9231 124.777,-62.0558"/>
</g>
<!-- Node197 -->
<g id="node7" class="node"><title>Node197</title>
<g id="a_node7"><a xlink:href="class_main_window.html#a9c4f542263838b9ecd06eae839a42a34" target="_top" xlink:title="MainWindow::keyPressEvent did anyone press return, enter or escape? ">
<polygon fill="none" stroke="black" points="184.012,-45.5 184.012,-63.5 329.504,-63.5 329.504,-45.5 184.012,-45.5"/>
<text text-anchor="middle" x="256.758" y="-51.5" font-family="Helvetica,sans-Serif" font-size="10.00">MainWindow::keyPressEvent</text>
</a>
</g>
</g>
<!-- Node191&#45;&gt;Node197 -->
<g id="edge6" class="edge"><title>Node191&#45;&gt;Node197</title>
<path fill="none" stroke="midnightblue" d="M145.141,-54.5C157.887,-54.5 171.068,-54.5 183.696,-54.5"/>
<polygon fill="midnightblue" stroke="midnightblue" points="145.03,-51.0001 135.03,-54.5 145.03,-58.0001 145.03,-51.0001"/>
</g>
<!-- Node198 -->
<g id="node8" class="node"><title>Node198</title>
<g id="a_node8"><a xlink:href="class_main_window.html#a5616dbee2eede4e879bc40fa7778ba7b" target="_top" xlink:title="MainWindow::copyTextToClipboard copies text to your clipboard. ">
<polygon fill="none" stroke="black" points="170.945,-8.5 170.945,-26.5 342.57,-26.5 342.57,-8.5 170.945,-8.5"/>
<text text-anchor="middle" x="256.758" y="-14.5" font-family="Helvetica,sans-Serif" font-size="10.00">MainWindow::copyTextToClipboard</text>
</a>
</g>
</g>
<!-- Node191&#45;&gt;Node198 -->
<g id="edge7" class="edge"><title>Node191&#45;&gt;Node198</title>
<path fill="none" stroke="midnightblue" d="M124.127,-43.5049C151.536,-38.0901 184.173,-31.6423 210.091,-26.5218"/>
<polygon fill="midnightblue" stroke="midnightblue" points="123.42,-40.0769 114.288,-45.4488 124.777,-46.9442 123.42,-40.0769"/>
</g>
<!-- Node193 -->
<g id="node3" class="node"><title>Node193</title>
<g id="a_node3"><a xlink:href="class_main_window.html#a23d2783cb61a373c4b0127970264290a" target="_top" xlink:title="MainWindow::checkConfig make sure we are ready to go as soon as possible. ">
<polygon fill="none" stroke="black" points="392.748,-84.5 392.748,-102.5 526.575,-102.5 526.575,-84.5 392.748,-84.5"/>
<text text-anchor="middle" x="459.661" y="-90.5" font-family="Helvetica,sans-Serif" font-size="10.00">MainWindow::checkConfig</text>
</a>
</g>
</g>
<!-- Node192&#45;&gt;Node193 -->
<g id="edge2" class="edge"><title>Node192&#45;&gt;Node193</title>
<path fill="none" stroke="midnightblue" d="M319.761,-92.1172C342.811,-92.3467 369.042,-92.6078 392.453,-92.8409"/>
<polygon fill="midnightblue" stroke="midnightblue" points="319.791,-88.6175 309.757,-92.0177 319.721,-95.6171 319.791,-88.6175"/>
</g>
<!-- Node195 -->
<g id="node5" class="node"><title>Node195</title>
<g id="a_node5"><a xlink:href="class_main_window.html#a4680b2cbcfd388683a98303f29c0f84f" target="_top" xlink:title="MainWindow::executePassGitInit git init wrapper. ">
<polygon fill="none" stroke="black" points="378.575,-47.5 378.575,-65.5 540.747,-65.5 540.747,-47.5 378.575,-47.5"/>
<text text-anchor="middle" x="459.661" y="-53.5" font-family="Helvetica,sans-Serif" font-size="10.00">MainWindow::executePassGitInit</text>
</a>
</g>
</g>
<!-- Node192&#45;&gt;Node195 -->
<g id="edge4" class="edge"><title>Node192&#45;&gt;Node195</title>
<path fill="none" stroke="midnightblue" d="M319.552,-80.7346C347.48,-75.8692 380.113,-70.1842 406.75,-65.5436"/>
<polygon fill="midnightblue" stroke="midnightblue" points="318.746,-77.3222 309.495,-82.4866 319.948,-84.2183 318.746,-77.3222"/>
</g>
<!-- Node194 -->
<g id="node4" class="node"><title>Node194</title>
<g id="a_node4"><a xlink:href="class_main_window.html#a8b244be8b7b7db1b08de2a2acb9409db" target="_top" xlink:title="MainWindow::MainWindow handles all of the main functionality and also the main window. ">
<polygon fill="none" stroke="black" points="580.512,-84.5 580.512,-102.5 716.551,-102.5 716.551,-84.5 580.512,-84.5"/>
<text text-anchor="middle" x="648.531" y="-90.5" font-family="Helvetica,sans-Serif" font-size="10.00">MainWindow::MainWindow</text>
</a>
</g>
</g>
<!-- Node193&#45;&gt;Node194 -->
<g id="edge3" class="edge"><title>Node193&#45;&gt;Node194</title>
<path fill="none" stroke="midnightblue" d="M537.095,-93.5C551.385,-93.5 566.223,-93.5 580.212,-93.5"/>
<polygon fill="midnightblue" stroke="midnightblue" points="536.808,-90.0001 526.808,-93.5 536.807,-97.0001 536.808,-90.0001"/>
</g>
<!-- Node196 -->
<g id="node6" class="node"><title>Node196</title>
<g id="a_node6"><a xlink:href="class_config_dialog.html#ad5b80066591f19fdaaa06b7cb5ba7f15" target="_top" xlink:title="ConfigDialog::wizard first&#45;time use wizard. ">
<polygon fill="none" stroke="black" points="594.677,-47.5 594.677,-65.5 702.386,-65.5 702.386,-47.5 594.677,-47.5"/>
<text text-anchor="middle" x="648.531" y="-53.5" font-family="Helvetica,sans-Serif" font-size="10.00">ConfigDialog::wizard</text>
</a>
</g>
</g>
<!-- Node195&#45;&gt;Node196 -->
<g id="edge5" class="edge"><title>Node195&#45;&gt;Node196</title>
<path fill="none" stroke="midnightblue" d="M551.23,-56.5C566.063,-56.5 580.992,-56.5 594.521,-56.5"/>
<polygon fill="midnightblue" stroke="midnightblue" points="550.995,-53.0001 540.995,-56.5 550.995,-60.0001 550.995,-53.0001"/>
</g>
<!-- Node198&#45;&gt;Node195 -->
<g id="edge8" class="edge"><title>Node198&#45;&gt;Node195</title>
<path fill="none" stroke="midnightblue" d="M314.513,-28.5175C345.303,-34.4945 382.896,-41.7921 411.97,-47.4362"/>
<polygon fill="midnightblue" stroke="midnightblue" points="314.838,-25.0153 304.354,-26.5454 313.504,-31.887 314.838,-25.0153"/>
</g>
<!-- Node199 -->
<g id="node9" class="node"><title>Node199</title>
<g id="a_node9"><a xlink:href="class_main_window.html#a0b9416f68d223f4303ef6e2d8912905c" target="_top" xlink:title="MainWindow::generatePassword use either pwgen or internal password generator. ">
<polygon fill="none" stroke="black" points="378.57,-7.5 378.57,-25.5 540.752,-25.5 540.752,-7.5 378.57,-7.5"/>
<text text-anchor="middle" x="459.661" y="-13.5" font-family="Helvetica,sans-Serif" font-size="10.00">MainWindow::generatePassword</text>
</a>
</g>
</g>
<!-- Node198&#45;&gt;Node199 -->
<g id="edge9" class="edge"><title>Node198&#45;&gt;Node199</title>
<path fill="none" stroke="midnightblue" d="M352.753,-17.0272C361.378,-16.9842 370.057,-16.941 378.534,-16.8988"/>
<polygon fill="midnightblue" stroke="midnightblue" points="352.65,-13.5275 342.668,-17.0774 352.685,-20.5274 352.65,-13.5275"/>
</g>
<!-- Node200 -->
<g id="node10" class="node"><title>Node200</title>
<g id="a_node10"><a xlink:href="class_password_dialog.html#aa123158c0085b910ecf3bfdc9dae9e97" target="_top" xlink:title="PasswordDialog::~PasswordDialog basic destructor. ">
<polygon fill="none" stroke="black" points="576.752,-0.5 576.752,-28.5 720.311,-28.5 720.311,-0.5 576.752,-0.5"/>
<text text-anchor="start" x="584.752" y="-16.5" font-family="Helvetica,sans-Serif" font-size="10.00">PasswordDialog::~Password</text>
<text text-anchor="middle" x="648.531" y="-6.5" font-family="Helvetica,sans-Serif" font-size="10.00">Dialog</text>
</a>
</g>
</g>
<!-- Node199&#45;&gt;Node200 -->
<g id="edge10" class="edge"><title>Node199&#45;&gt;Node200</title>
<path fill="none" stroke="midnightblue" d="M551.062,-15.5325C559.666,-15.4404 568.304,-15.3479 576.684,-15.2583"/>
<polygon fill="midnightblue" stroke="midnightblue" points="550.957,-12.0333 540.995,-15.6402 551.032,-19.0329 550.957,-12.0333"/>
</g>
</g>
</svg>
        <g id="navigator" transform="translate(0 0)" fill="#404254">
                <rect fill="#f2f5e9" fill-opacity="0.5" stroke="#606060" stroke-width=".5" x="0" y="0" width="60" height="60"/>
                <use id="zoomplus" xlink:href="#zoomPlus" x="17" y="9" onmousedown="handleZoom(evt,'in')"/>
                <use id="zoomminus" xlink:href="#zoomMin" x="42" y="9" onmousedown="handleZoom(evt,'out')"/>
                <use id="reset" xlink:href="#resetDef" x="30" y="36" onmousedown="handleReset()"/>
                <g id="arrowUp" xlink:href="#dirArrow" transform="translate(30 24)" onmousedown="handlePan(0,-1)">
                  <use xlink:href="#rim" fill="#404040">
                        <set attributeName="fill" to="#808080" begin="arrowUp.mouseover" end="arrowUp.mouseout"/>
                  </use>
                  <path fill="none" stroke="white" stroke-width="1.5" d="M0,-3.0v7 M-2.5,-0.5L0,-3.0L2.5,-0.5"/>
                </g>
                <g id="arrowRight" xlink:href="#dirArrow" transform="rotate(90) translate(36 -43)" onmousedown="handlePan(1,0)">
                  <use xlink:href="#rim" fill="#404040">
                        <set attributeName="fill" to="#808080" begin="arrowRight.mouseover" end="arrowRight.mouseout"/>
                  </use>
                  <path fill="none" stroke="white" stroke-width="1.5" d="M0,-3.0v7 M-2.5,-0.5L0,-3.0L2.5,-0.5"/>
                </g>
                <g id="arrowDown" xlink:href="#dirArrow" transform="rotate(180) translate(-30 -48)" onmousedown="handlePan(0,1)">
                  <use xlink:href="#rim" fill="#404040">
                        <set attributeName="fill" to="#808080" begin="arrowDown.mouseover" end="arrowDown.mouseout"/>
                  </use>
                  <path fill="none" stroke="white" stroke-width="1.5" d="M0,-3.0v7 M-2.5,-0.5L0,-3.0L2.5,-0.5"/>
                </g>
                <g id="arrowLeft" xlink:href="#dirArrow" transform="rotate(270) translate(-36 17)" onmousedown="handlePan(-1,0)">
                  <use xlink:href="#rim" fill="#404040">
                        <set attributeName="fill" to="#808080" begin="arrowLeft.mouseover" end="arrowLeft.mouseout"/>
                  </use>
                  <path fill="none" stroke="white" stroke-width="1.5" d="M0,-3.0v7 M-2.5,-0.5L0,-3.0L2.5,-0.5"/>
                </g>
        </g>
        <svg viewBox="0 0 15 15" width="100%" height="30px" preserveAspectRatio="xMaxYMin meet">
         <g id="arrow_out" transform="scale(0.3 0.3)">
          <a xlink:href="class_qt_pass_settings_a58728db227ada76454d01992bfef64c8_icgraph_org.svg" target="_base">
           <rect id="button" ry="5" rx="5" y="6" x="6" height="38" width="38"
                fill="#f2f5e9" fill-opacity="0.5" stroke="#606060" stroke-width="1.0"/>
           <path id="arrow"
             d="M 11.500037,31.436501 C 11.940474,20.09759 22.043105,11.32322 32.158766,21.979434 L 37.068811,17.246167 C 37.068811,17.246167 37.088388,32 37.088388,32 L 22.160133,31.978069 C 22.160133,31.978069 26.997745,27.140456 26.997745,27.140456 C 18.528582,18.264221 13.291696,25.230495 11.500037,31.436501 z"
             style="fill:#404040;"/>
          </a>
         </g>
        </svg>
</svg>
