<?xml version="1.0" encoding="UTF-8" standalone="no"?>
<!DOCTYPE svg PUBLIC "-//W3C//DTD SVG 1.1//EN"
 "http://www.w3.org/Graphics/SVG/1.1/DTD/svg11.dtd">
<!-- Generated by graphviz version 2.43.0 (0)
 -->
<!-- Title: MainWindow::onPush Pages: 1 -->
<!--zoomable 176 -->
<svg id="main" version="1.1" xmlns="http://www.w3.org/2000/svg" xmlns:xlink="http://www.w3.org/1999/xlink" xml:space="preserve" onload="init(evt)">
<style type="text/css"><![CDATA[
.edge:hover path { stroke: red; }
.edge:hover polygon { stroke: red; fill: red; }
]]></style>
<script type="text/javascript"><![CDATA[
var edges = document.getElementsByTagName('g');
if (edges && edges.length) {
  for (var i=0;i<edges.length;i++) {
    if (edges[i].id.substr(0,4)=='edge') {
      edges[i].setAttribute('class','edge');
    }
  }
}
]]></script>
        <defs>
                <circle id="rim" cx="0" cy="0" r="7"/>
                <circle id="rim2" cx="0" cy="0" r="3.5"/>
                <g id="zoomPlus">
                        <use xlink:href="#rim" fill="#404040">
                                <set attributeName="fill" to="#808080" begin="zoomplus.mouseover" end="zoomplus.mouseout"/>
                        </use>
                        <path d="M-4,0h8M0,-4v8" fill="none" stroke="white" stroke-width="1.5" pointer-events="none"/>
                </g>
                <g id="zoomMin">
                        <use xlink:href="#rim" fill="#404040">
                                <set attributeName="fill" to="#808080" begin="zoomminus.mouseover" end="zoomminus.mouseout"/>
                        </use>
                        <path d="M-4,0h8" fill="none" stroke="white" stroke-width="1.5" pointer-events="none"/>
                </g>
                <g id="dirArrow">
                        <path fill="none" stroke="white" stroke-width="1.5" d="M0,-3.0v7 M-2.5,-0.5L0,-3.0L2.5,-0.5"/>
                </g>
               <g id="resetDef">
                       <use xlink:href="#rim2" fill="#404040">
                               <set attributeName="fill" to="#808080" begin="reset.mouseover" end="reset.mouseout"/>
                       </use>
               </g>
        </defs>

<script type="text/javascript">
var viewWidth = 840;
var viewHeight = 176;
var sectionId = 'dynsection-16';
</script>
<script xlink:href="svgpan.js"/>
<svg id="graph" class="graph">
<g id="viewport">
<title>MainWindow::onPush</title>
<!-- Node1 -->
<g id="node1" class="node">
<title>Node1</title>
<g id="a_node1"><a xlink:title="MainWindow::onPush do a git push.">
<polygon fill="#bfbfbf" stroke="black" points="0,-38.5 0,-56.5 112.71,-56.5 112.71,-38.5 0,-38.5"/>
<text text-anchor="middle" x="56.36" y="-44.5" font-family="Helvetica,sans-Serif" font-size="10.00">MainWindow::onPush</text>
</a>
</g>
</g>
<!-- Node2 -->
<g id="node2" class="node">
<title>Node2</title>
<g id="a_node2"><a xlink:href="class_qt_pass_settings.html#a987e913eac7cd497e2fca27426494a64" target="_top" xlink:title=" ">
<polygon fill="none" stroke="black" points="148.71,-75.5 148.71,-93.5 275.32,-93.5 275.32,-75.5 148.71,-75.5"/>
<text text-anchor="middle" x="212.02" y="-81.5" font-family="Helvetica,sans-Serif" font-size="10.00">QtPassSettings::getPass</text>
</a>
</g>
</g>
<!-- Node1&#45;&gt;Node2 -->
<g id="edge1" class="edge">
<title>Node1&#45;&gt;Node2</title>
<path fill="none" stroke="midnightblue" d="M94.95,-56.55C115.67,-61.54 141.61,-67.79 163.7,-73.11"/>
<polygon fill="midnightblue" stroke="midnightblue" points="163.01,-76.54 173.55,-75.48 164.65,-69.73 163.01,-76.54"/>
</g>
<!-- Node9 -->
<g id="node9" class="node">
<title>Node9</title>
<g id="a_node9"><a xlink:href="class_pass.html#a7b5fa97ca6f3795512ac7c10db5c8f09" target="_top" xlink:title=" ">
<polygon fill="none" stroke="black" points="172.34,-38.5 172.34,-56.5 251.7,-56.5 251.7,-38.5 172.34,-38.5"/>
<text text-anchor="middle" x="212.02" y="-44.5" font-family="Helvetica,sans-Serif" font-size="10.00">Pass::GitPush</text>
</a>
</g>
</g>
<!-- Node1&#45;&gt;Node9 -->
<g id="edge9" class="edge">
<title>Node1&#45;&gt;Node9</title>
<path fill="none" stroke="midnightblue" d="M112.83,-47.5C128.76,-47.5 146.01,-47.5 161.55,-47.5"/>
<polygon fill="midnightblue" stroke="midnightblue" points="162,-51 172,-47.5 162,-44 162,-51"/>
</g>
<!-- Node10 -->
<g id="node10" class="node">
<title>Node10</title>
<g id="a_node10"><a xlink:href="class_qt_pass_settings.html#a2fd748b9e34c57aac277e8f0556a532f" target="_top" xlink:title=" ">
<polygon fill="none" stroke="black" points="514.79,-0.5 514.79,-18.5 643.05,-18.5 643.05,-0.5 514.79,-0.5"/>
<text text-anchor="middle" x="578.92" y="-6.5" font-family="Helvetica,sans-Serif" font-size="10.00">QtPassSettings::isUseGit</text>
</a>
</g>
</g>
<!-- Node1&#45;&gt;Node10 -->
<g id="edge10" class="edge">
<title>Node1&#45;&gt;Node10</title>
<path fill="none" stroke="midnightblue" d="M94.03,-38.47C110.62,-34.74 130.55,-30.78 148.71,-28.5 272.99,-12.93 418.91,-9.61 504.6,-9.17"/>
<polygon fill="midnightblue" stroke="midnightblue" points="504.76,-12.67 514.74,-9.13 504.73,-5.67 504.76,-12.67"/>
</g>
<!-- Node3 -->
<g id="node3" class="node">
<title>Node3</title>
<g id="a_node3"><a xlink:href="class_qt_pass_settings.html#a2d6c10abe565eaadb5a222501adfe31f" target="_top" xlink:title=" ">
<polygon fill="none" stroke="black" points="311.32,-149.5 311.32,-167.5 467.94,-167.5 467.94,-149.5 311.32,-149.5"/>
<text text-anchor="middle" x="389.63" y="-155.5" font-family="Helvetica,sans-Serif" font-size="10.00">QtPassSettings::getImitatePass</text>
</a>
</g>
</g>
<!-- Node2&#45;&gt;Node3 -->
<g id="edge2" class="edge">
<title>Node2&#45;&gt;Node3</title>
<path fill="none" stroke="midnightblue" d="M226.08,-93.59C244.35,-105.9 278.95,-127.82 311.32,-140.5 317.3,-142.84 323.67,-144.93 330.08,-146.77"/>
<polygon fill="midnightblue" stroke="midnightblue" points="329.57,-150.26 340.14,-149.48 331.39,-143.5 329.57,-150.26"/>
</g>
<!-- Node4 -->
<g id="node4" class="node">
<title>Node4</title>
<g id="a_node4"><a xlink:href="class_qt_pass_settings.html#aaaeff5fa2e3a6b1f815b9a8247339b3a" target="_top" xlink:title=" ">
<polygon fill="none" stroke="black" points="316.05,-112.5 316.05,-130.5 463.22,-130.5 463.22,-112.5 316.05,-112.5"/>
<text text-anchor="middle" x="389.63" y="-118.5" font-family="Helvetica,sans-Serif" font-size="10.00">QtPassSettings::getRealPass</text>
</a>
</g>
</g>
<!-- Node2&#45;&gt;Node4 -->
<g id="edge3" class="edge">
<title>Node2&#45;&gt;Node4</title>
<path fill="none" stroke="midnightblue" d="M255.98,-93.55C280.09,-98.63 310.38,-105.01 335.92,-110.39"/>
<polygon fill="midnightblue" stroke="midnightblue" points="335.31,-113.84 345.81,-112.48 336.75,-106.99 335.31,-113.84"/>
</g>
<!-- Node5 -->
<g id="node5" class="node">
<title>Node5</title>
<g id="a_node5"><a xlink:href="class_pass.html#a012c47a55b3cc3467ad0f013716f623a" target="_top" xlink:title=" ">
<polygon fill="none" stroke="black" points="361.35,-75.5 361.35,-93.5 417.92,-93.5 417.92,-75.5 361.35,-75.5"/>
<text text-anchor="middle" x="389.63" y="-81.5" font-family="Helvetica,sans-Serif" font-size="10.00">Pass::init</text>
</a>
</g>
</g>
<!-- Node2&#45;&gt;Node5 -->
<g id="edge4" class="edge">
<title>Node2&#45;&gt;Node5</title>
<path fill="none" stroke="midnightblue" d="M275.43,-84.5C300.68,-84.5 328.99,-84.5 350.98,-84.5"/>
<polygon fill="midnightblue" stroke="midnightblue" points="351.23,-88 361.23,-84.5 351.23,-81 351.23,-88"/>
</g>
<!-- Node8 -->
<g id="node8" class="node">
<title>Node8</title>
<g id="a_node8"><a xlink:href="class_qt_pass_settings.html#a30ef36260f73f9f18d338f2b18a1f493" target="_top" xlink:title=" ">
<polygon fill="none" stroke="black" points="510.06,-37.5 510.06,-55.5 647.78,-55.5 647.78,-37.5 510.06,-37.5"/>
<text text-anchor="middle" x="578.92" y="-43.5" font-family="Helvetica,sans-Serif" font-size="10.00">QtPassSettings::isUsePass</text>
</a>
</g>
</g>
<!-- Node2&#45;&gt;Node8 -->
<g id="edge7" class="edge">
<title>Node2&#45;&gt;Node8</title>
<path fill="none" stroke="midnightblue" d="M256.91,-75.43C273.85,-72.21 293.43,-68.8 311.32,-66.5 374.57,-58.36 446.72,-53.2 500,-50.16"/>
<polygon fill="midnightblue" stroke="midnightblue" points="500.27,-53.65 510.06,-49.6 499.88,-46.66 500.27,-53.65"/>
</g>
<!-- Node6 -->
<g id="node6" class="node">
<title>Node6</title>
<g id="a_node6"><a xlink:href="class_qt_pass_settings.html#ae3f04477e57019e329ed9944806ec1da" target="_top" xlink:title=" ">
<polygon fill="none" stroke="black" points="503.94,-74.5 503.94,-92.5 653.9,-92.5 653.9,-74.5 503.94,-74.5"/>
<text text-anchor="middle" x="578.92" y="-80.5" font-family="Helvetica,sans-Serif" font-size="10.00">QtPassSettings::getGpgHome</text>
</a>
</g>
</g>
<!-- Node5&#45;&gt;Node6 -->
<g id="edge5" class="edge">
<title>Node5&#45;&gt;Node6</title>
<path fill="none" stroke="midnightblue" d="M418.27,-84.35C438.21,-84.25 466.27,-84.1 493.32,-83.95"/>
<polygon fill="midnightblue" stroke="midnightblue" points="493.64,-87.45 503.62,-83.9 493.6,-80.45 493.64,-87.45"/>
</g>
<!-- Node7 -->
<g id="node7" class="node">
<title>Node7</title>
<g id="a_node7"><a xlink:href="class_qt_pass_settings.html#ab83659fdbfb9069942e6982076b4b934" target="_top" xlink:title=" ">
<polygon fill="none" stroke="black" points="689.9,-37.5 689.9,-55.5 832.08,-55.5 832.08,-37.5 689.9,-37.5"/>
<text text-anchor="middle" x="760.99" y="-43.5" font-family="Helvetica,sans-Serif" font-size="10.00">QtPassSettings::getInstance</text>
</a>
</g>
</g>
<!-- Node6&#45;&gt;Node7 -->
<g id="edge6" class="edge">
<title>Node6&#45;&gt;Node7</title>
<path fill="none" stroke="midnightblue" d="M623.97,-74.45C648.81,-69.35 680.02,-62.93 706.28,-57.54"/>
<polygon fill="midnightblue" stroke="midnightblue" points="706.99,-60.96 716.08,-55.52 705.58,-54.11 706.99,-60.96"/>
</g>
<!-- Node8&#45;&gt;Node7 -->
<g id="edge8" class="edge">
<title>Node8&#45;&gt;Node7</title>
<path fill="none" stroke="midnightblue" d="M648,-46.5C658.34,-46.5 669.09,-46.5 679.66,-46.5"/>
<polygon fill="midnightblue" stroke="midnightblue" points="679.72,-50 689.72,-46.5 679.72,-43 679.72,-50"/>
</g>
<!-- Node10&#45;&gt;Node7 -->
<g id="edge11" class="edge">
<title>Node10&#45;&gt;Node7</title>
<path fill="none" stroke="midnightblue" d="M623.97,-18.55C648.81,-23.65 680.02,-30.07 706.28,-35.46"/>
<polygon fill="midnightblue" stroke="midnightblue" points="705.58,-38.89 716.08,-37.48 706.99,-32.04 705.58,-38.89"/>
</g>
</g>
</svg>
        <g id="navigator" transform="translate(0 0)" fill="#404254">
                <rect fill="#f2f5e9" fill-opacity="0.5" stroke="#606060" stroke-width=".5" x="0" y="0" width="60" height="60"/>
                <use id="zoomplus" xlink:href="#zoomPlus" x="17" y="9" onmousedown="handleZoom(evt,'in')"/>
                <use id="zoomminus" xlink:href="#zoomMin" x="42" y="9" onmousedown="handleZoom(evt,'out')"/>
                <use id="reset" xlink:href="#resetDef" x="30" y="36" onmousedown="handleReset()"/>
                <g id="arrowUp" xlink:href="#dirArrow" transform="translate(30 24)" onmousedown="handlePan(0,-1)">
                  <use xlink:href="#rim" fill="#404040">
                        <set attributeName="fill" to="#808080" begin="arrowUp.mouseover" end="arrowUp.mouseout"/>
                  </use>
                  <path fill="none" stroke="white" stroke-width="1.5" d="M0,-3.0v7 M-2.5,-0.5L0,-3.0L2.5,-0.5"/>
                </g>
                <g id="arrowRight" xlink:href="#dirArrow" transform="rotate(90) translate(36 -43)" onmousedown="handlePan(1,0)">
                  <use xlink:href="#rim" fill="#404040">
                        <set attributeName="fill" to="#808080" begin="arrowRight.mouseover" end="arrowRight.mouseout"/>
                  </use>
                  <path fill="none" stroke="white" stroke-width="1.5" d="M0,-3.0v7 M-2.5,-0.5L0,-3.0L2.5,-0.5"/>
                </g>
                <g id="arrowDown" xlink:href="#dirArrow" transform="rotate(180) translate(-30 -48)" onmousedown="handlePan(0,1)">
                  <use xlink:href="#rim" fill="#404040">
                        <set attributeName="fill" to="#808080" begin="arrowDown.mouseover" end="arrowDown.mouseout"/>
                  </use>
                  <path fill="none" stroke="white" stroke-width="1.5" d="M0,-3.0v7 M-2.5,-0.5L0,-3.0L2.5,-0.5"/>
                </g>
                <g id="arrowLeft" xlink:href="#dirArrow" transform="rotate(270) translate(-36 17)" onmousedown="handlePan(-1,0)">
                  <use xlink:href="#rim" fill="#404040">
                        <set attributeName="fill" to="#808080" begin="arrowLeft.mouseover" end="arrowLeft.mouseout"/>
                  </use>
                  <path fill="none" stroke="white" stroke-width="1.5" d="M0,-3.0v7 M-2.5,-0.5L0,-3.0L2.5,-0.5"/>
                </g>
        </g>
        <svg viewBox="0 0 15 15" width="100%" height="30px" preserveAspectRatio="xMaxYMin meet">
         <g id="arrow_out" transform="scale(0.3 0.3)">
          <a xlink:href="class_main_window_a6961588ebf3c0640200e0cfa920af3be_cgraph_org.svg" target="_base">
           <rect id="button" ry="5" rx="5" y="6" x="6" height="38" width="38"
                fill="#f2f5e9" fill-opacity="0.5" stroke="#606060" stroke-width="1.0"/>
           <path id="arrow"
             d="M 11.500037,31.436501 C 11.940474,20.09759 22.043105,11.32322 32.158766,21.979434 L 37.068811,17.246167 C 37.068811,17.246167 37.088388,32 37.088388,32 L 22.160133,31.978069 C 22.160133,31.978069 26.997745,27.140456 26.997745,27.140456 C 18.528582,18.264221 13.291696,25.230495 11.500037,31.436501 z"
             style="fill:#404040;"/>
          </a>
         </g>
        </svg>
</svg>
