<?xml version="1.0" encoding="UTF-8" standalone="no"?>
<!DOCTYPE svg PUBLIC "-//W3C//DTD SVG 1.1//EN"
 "http://www.w3.org/Graphics/SVG/1.1/DTD/svg11.dtd">
<!-- Generated by graphviz version 2.38.0 (20140413.2041)
 -->
<!-- Title: ImitatePass::Remove Pages: 1 -->
<svg width="322pt" height="101pt"
 viewBox="0.00 0.00 321.67 101.00" xmlns="http://www.w3.org/2000/svg" xmlns:xlink="http://www.w3.org/1999/xlink">
<g id="graph0" class="graph" transform="scale(1 1) rotate(0) translate(4 97)">
<title>ImitatePass::Remove</title>
<!-- Node98 -->
<g id="node1" class="node"><title>Node98</title>
<polygon fill="#bfbfbf" stroke="black" points="0,-37.5 0,-55.5 111.034,-55.5 111.034,-37.5 0,-37.5"/>
<text text-anchor="middle" x="55.5171" y="-43.5" font-family="Helvetica,sans-Serif" font-size="10.00">ImitatePass::Remove</text>
</g>
<!-- Node99 -->
<g id="node2" class="node"><title>Node99</title>
<g id="a_node2"><a xlink:href="class_qt_pass_settings.html#abb8c53443d71181a3ecd6545464453e6" target="_top" xlink:title="QtPassSettings::getPassStore">
<polygon fill="none" stroke="black" points="155.096,-74.5 155.096,-92.5 305.607,-92.5 305.607,-74.5 155.096,-74.5"/>
<text text-anchor="middle" x="230.352" y="-80.5" font-family="Helvetica,sans-Serif" font-size="10.00">QtPassSettings::getPassStore</text>
</a>
</g>
</g>
<!-- Node98&#45;&gt;Node99 -->
<g id="edge1" class="edge"><title>Node98&#45;&gt;Node99</title>
<path fill="none" stroke="midnightblue" d="M98.7972,-55.5512C122.425,-60.6093 152.069,-66.9556 177.136,-72.3219"/>
<polygon fill="midnightblue" stroke="midnightblue" points="176.698,-75.8072 187.209,-74.4782 178.163,-68.9623 176.698,-75.8072"/>
</g>
<!-- Node100 -->
<g id="node3" class="node"><title>Node100</title>
<g id="a_node3"><a xlink:href="class_qt_pass_settings.html#a2fd748b9e34c57aac277e8f0556a532f" target="_top" xlink:title="QtPassSettings::isUseGit">
<polygon fill="none" stroke="black" points="166.221,-37.5 166.221,-55.5 294.482,-55.5 294.482,-37.5 166.221,-37.5"/>
<text text-anchor="middle" x="230.352" y="-43.5" font-family="Helvetica,sans-Serif" font-size="10.00">QtPassSettings::isUseGit</text>
</a>
</g>
</g>
<!-- Node98&#45;&gt;Node100 -->
<g id="edge2" class="edge"><title>Node98&#45;&gt;Node100</title>
<path fill="none" stroke="midnightblue" d="M111.203,-46.5C125.345,-46.5 140.804,-46.5 155.741,-46.5"/>
<polygon fill="midnightblue" stroke="midnightblue" points="155.976,-50.0001 165.976,-46.5 155.976,-43.0001 155.976,-50.0001"/>
</g>
<!-- Node101 -->
<g id="node4" class="node"><title>Node101</title>
<g id="a_node4"><a xlink:href="class_qt_pass_settings.html#af1577fc288ddb6077df5a2fb2f8913b6" target="_top" xlink:title="QtPassSettings::getGitExecutable">
<polygon fill="none" stroke="black" points="147.034,-0.5 147.034,-18.5 313.669,-18.5 313.669,-0.5 147.034,-0.5"/>
<text text-anchor="middle" x="230.352" y="-6.5" font-family="Helvetica,sans-Serif" font-size="10.00">QtPassSettings::getGitExecutable</text>
</a>
</g>
</g>
<!-- Node98&#45;&gt;Node101 -->
<g id="edge3" class="edge"><title>Node98&#45;&gt;Node101</title>
<path fill="none" stroke="midnightblue" d="M98.7972,-37.4488C122.425,-32.3907 152.069,-26.0444 177.136,-20.6781"/>
<polygon fill="midnightblue" stroke="midnightblue" points="178.163,-24.0377 187.209,-18.5218 176.698,-17.1928 178.163,-24.0377"/>
</g>
</g>
</svg>
