<?xml version="1.0" encoding="UTF-8" standalone="no"?>
<!DOCTYPE svg PUBLIC "-//W3C//DTD SVG 1.1//EN"
 "http://www.w3.org/Graphics/SVG/1.1/DTD/svg11.dtd">
<!-- Generated by graphviz version 2.43.0 (0)
 -->
<!-- Title: PasswordDialog::PasswordDialog Pages: 1 -->
<svg width="906pt" height="607pt"
 viewBox="0.00 0.00 906.20 607.00" xmlns="http://www.w3.org/2000/svg" xmlns:xlink="http://www.w3.org/1999/xlink">
<g id="graph0" class="graph" transform="scale(1 1) rotate(0) translate(4 603)">
<title>PasswordDialog::PasswordDialog</title>
<!-- Node1 -->
<g id="node1" class="node">
<title>Node1</title>
<g id="a_node1"><a xlink:title="PasswordDialog::PasswordDialog complete constructor.">
<polygon fill="#bfbfbf" stroke="black" points="0,-227.5 0,-255.5 137.72,-255.5 137.72,-227.5 0,-227.5"/>
<text text-anchor="start" x="8" y="-243.5" font-family="Helvetica,sans-Serif" font-size="10.00">PasswordDialog::Password</text>
<text text-anchor="middle" x="68.86" y="-233.5" font-family="Helvetica,sans-Serif" font-size="10.00">Dialog</text>
</a>
</g>
</g>
<!-- Node2 -->
<g id="node2" class="node">
<title>Node2</title>
<g id="a_node2"><a xlink:href="class_qt_pass_settings.html#a987e913eac7cd497e2fca27426494a64" target="_top" xlink:title=" ">
<polygon fill="none" stroke="black" points="185.94,-506.5 185.94,-524.5 312.55,-524.5 312.55,-506.5 185.94,-506.5"/>
<text text-anchor="middle" x="249.25" y="-512.5" font-family="Helvetica,sans-Serif" font-size="10.00">QtPassSettings::getPass</text>
</a>
</g>
</g>
<!-- Node1&#45;&gt;Node2 -->
<g id="edge1" class="edge">
<title>Node1&#45;&gt;Node2</title>
<path fill="none" stroke="midnightblue" d="M74.54,-255.69C86.76,-291.38 122.31,-386.7 173.72,-452.5 188.59,-471.54 210.02,-488.91 226.09,-500.57"/>
<polygon fill="midnightblue" stroke="midnightblue" points="224.2,-503.52 234.38,-506.43 228.24,-497.81 224.2,-503.52"/>
</g>
<!-- Node9 -->
<g id="node9" class="node">
<title>Node9</title>
<g id="a_node9"><a xlink:href="class_qt_pass_settings.html#a3c0463005c07a4dc0384bf8e63696aa4" target="_top" xlink:title=" ">
<polygon fill="none" stroke="black" points="360.78,-431.5 360.78,-449.5 527.96,-449.5 527.96,-431.5 360.78,-431.5"/>
<text text-anchor="middle" x="444.37" y="-437.5" font-family="Helvetica,sans-Serif" font-size="10.00">QtPassSettings::getPassTemplate</text>
</a>
</g>
</g>
<!-- Node1&#45;&gt;Node9 -->
<g id="edge9" class="edge">
<title>Node1&#45;&gt;Node9</title>
<path fill="none" stroke="midnightblue" d="M74.62,-255.89C86.03,-287.89 118.19,-364.93 173.72,-400.5 225.87,-433.9 295.16,-443.61 350.44,-445.12"/>
<polygon fill="midnightblue" stroke="midnightblue" points="350.53,-448.62 360.59,-445.31 350.66,-441.62 350.53,-448.62"/>
</g>
<!-- Node10 -->
<g id="node10" class="node">
<title>Node10</title>
<g id="a_node10"><a xlink:href="class_qt_pass_settings.html#a9da7174babd2f5cc433505f0fec82efc" target="_top" xlink:title=" ">
<polygon fill="none" stroke="black" points="370.23,-384.5 370.23,-412.5 518.51,-412.5 518.51,-384.5 370.23,-384.5"/>
<text text-anchor="start" x="378.23" y="-400.5" font-family="Helvetica,sans-Serif" font-size="10.00">QtPassSettings::getPassword</text>
<text text-anchor="middle" x="444.37" y="-390.5" font-family="Helvetica,sans-Serif" font-size="10.00">Configuration</text>
</a>
</g>
</g>
<!-- Node1&#45;&gt;Node10 -->
<g id="edge11" class="edge">
<title>Node1&#45;&gt;Node10</title>
<path fill="none" stroke="midnightblue" d="M76.6,-255.72C90.45,-283.14 124.95,-342.97 173.72,-369.5 230.47,-400.37 303.85,-406.48 359.73,-405.5"/>
<polygon fill="midnightblue" stroke="midnightblue" points="360.05,-408.99 369.95,-405.24 359.87,-402 360.05,-408.99"/>
</g>
<!-- Node11 -->
<g id="node11" class="node">
<title>Node11</title>
<g id="a_node11"><a xlink:href="class_qt_pass_settings.html#a1e65645c63846fcf2d51897e76e6d0c0" target="_top" xlink:title=" ">
<polygon fill="none" stroke="black" points="572.86,-345.5 572.86,-373.5 711.13,-373.5 711.13,-345.5 572.86,-345.5"/>
<text text-anchor="start" x="580.86" y="-361.5" font-family="Helvetica,sans-Serif" font-size="10.00">QtPassSettings::isTemplate</text>
<text text-anchor="middle" x="641.99" y="-351.5" font-family="Helvetica,sans-Serif" font-size="10.00">AllFields</text>
</a>
</g>
</g>
<!-- Node1&#45;&gt;Node11 -->
<g id="edge13" class="edge">
<title>Node1&#45;&gt;Node11</title>
<path fill="none" stroke="midnightblue" d="M83.46,-255.52C101.98,-273.6 137.05,-304.41 173.72,-318.5 303.17,-368.25 467.17,-369.96 562.47,-365.52"/>
<polygon fill="midnightblue" stroke="midnightblue" points="562.79,-369.01 572.61,-365.01 562.44,-362.02 562.79,-369.01"/>
</g>
<!-- Node12 -->
<g id="node12" class="node">
<title>Node12</title>
<g id="a_node12"><a xlink:href="class_qt_pass_settings.html#a67e0ba5d6606e73b979daa774ccc1f72" target="_top" xlink:title=" ">
<polygon fill="none" stroke="black" points="371.34,-308.5 371.34,-326.5 517.4,-326.5 517.4,-308.5 371.34,-308.5"/>
<text text-anchor="middle" x="444.37" y="-314.5" font-family="Helvetica,sans-Serif" font-size="10.00">QtPassSettings::isUsePwgen</text>
</a>
</g>
</g>
<!-- Node1&#45;&gt;Node12 -->
<g id="edge15" class="edge">
<title>Node1&#45;&gt;Node12</title>
<path fill="none" stroke="midnightblue" d="M91.96,-255.65C112.33,-267.93 143.84,-285.02 173.72,-293.5 234.89,-310.86 306.71,-316.57 360.84,-318.1"/>
<polygon fill="midnightblue" stroke="midnightblue" points="361,-321.61 371.08,-318.35 361.17,-314.61 361,-321.61"/>
</g>
<!-- Node13 -->
<g id="node13" class="node">
<title>Node13</title>
<g id="a_node13"><a xlink:href="class_qt_pass_settings.html#a106e2f75cc1dda481bdf253f640a9283" target="_top" xlink:title=" ">
<polygon fill="none" stroke="black" points="563.96,-269.5 563.96,-287.5 720.02,-287.5 720.02,-269.5 563.96,-269.5"/>
<text text-anchor="middle" x="641.99" y="-275.5" font-family="Helvetica,sans-Serif" font-size="10.00">QtPassSettings::isUseTemplate</text>
</a>
</g>
</g>
<!-- Node1&#45;&gt;Node13 -->
<g id="edge17" class="edge">
<title>Node1&#45;&gt;Node13</title>
<path fill="none" stroke="midnightblue" d="M137.81,-255.36C149.74,-257.39 162.06,-259.22 173.72,-260.5 305.69,-275.04 459.74,-278.35 553.81,-278.84"/>
<polygon fill="midnightblue" stroke="midnightblue" points="553.83,-282.34 563.85,-278.88 553.86,-275.34 553.83,-282.34"/>
</g>
<!-- Node14 -->
<g id="node14" class="node">
<title>Node14</title>
<g id="a_node14"><a xlink:href="class_password_dialog.html#ac865a161a2be2d4837761a1305a71db9" target="_top" xlink:title="PasswordDialog::setLength PasswordDialog::setLength password length.">
<polygon fill="none" stroke="black" points="180.38,-232.5 180.38,-250.5 318.12,-250.5 318.12,-232.5 180.38,-232.5"/>
<text text-anchor="middle" x="249.25" y="-238.5" font-family="Helvetica,sans-Serif" font-size="10.00">PasswordDialog::setLength</text>
</a>
</g>
</g>
<!-- Node1&#45;&gt;Node14 -->
<g id="edge19" class="edge">
<title>Node1&#45;&gt;Node14</title>
<path fill="none" stroke="midnightblue" d="M137.81,-241.5C148.33,-241.5 159.27,-241.5 169.99,-241.5"/>
<polygon fill="midnightblue" stroke="midnightblue" points="170.19,-245 180.19,-241.5 170.19,-238 170.19,-245"/>
</g>
<!-- Node15 -->
<g id="node15" class="node">
<title>Node15</title>
<g id="a_node15"><a xlink:href="class_password_dialog.html#aca023385bb581500a1e4a880a6283ad8" target="_top" xlink:title=" ">
<polygon fill="none" stroke="black" points="184.56,-195.5 184.56,-213.5 313.94,-213.5 313.94,-195.5 184.56,-195.5"/>
<text text-anchor="middle" x="249.25" y="-201.5" font-family="Helvetica,sans-Serif" font-size="10.00">PasswordDialog::setPass</text>
</a>
</g>
</g>
<!-- Node1&#45;&gt;Node15 -->
<g id="edge20" class="edge">
<title>Node1&#45;&gt;Node15</title>
<path fill="none" stroke="midnightblue" d="M137.55,-227.46C156.43,-223.54 176.67,-219.35 194.61,-215.63"/>
<polygon fill="midnightblue" stroke="midnightblue" points="195.52,-219.01 204.6,-213.55 194.1,-212.16 195.52,-219.01"/>
</g>
<!-- Node22 -->
<g id="node22" class="node">
<title>Node22</title>
<g id="a_node22"><a xlink:href="class_password_dialog.html#a19369fdb18d5b280aeadcd91245d9f6a" target="_top" xlink:title="PasswordDialog::setPasswordCharTemplate PasswordDialog::setPasswordCharTemplate chose the template st...">
<polygon fill="none" stroke="black" points="173.72,-148.5 173.72,-176.5 324.78,-176.5 324.78,-148.5 173.72,-148.5"/>
<text text-anchor="start" x="181.72" y="-164.5" font-family="Helvetica,sans-Serif" font-size="10.00">PasswordDialog::setPassword</text>
<text text-anchor="middle" x="249.25" y="-154.5" font-family="Helvetica,sans-Serif" font-size="10.00">CharTemplate</text>
</a>
</g>
</g>
<!-- Node1&#45;&gt;Node22 -->
<g id="edge27" class="edge">
<title>Node1&#45;&gt;Node22</title>
<path fill="none" stroke="midnightblue" d="M93.62,-227.38C114.3,-215.46 145.33,-198.48 173.72,-186.5 179.17,-184.2 184.93,-181.98 190.73,-179.9"/>
<polygon fill="midnightblue" stroke="midnightblue" points="192.18,-183.1 200.48,-176.51 189.88,-176.48 192.18,-183.1"/>
</g>
<!-- Node23 -->
<g id="node23" class="node">
<title>Node23</title>
<g id="a_node23"><a xlink:href="class_password_dialog.html#a522f673d65885edea46e3c514bb95f45" target="_top" xlink:title="Sets content in the template for the interface.">
<polygon fill="none" stroke="black" points="175.38,-111.5 175.38,-129.5 323.11,-129.5 323.11,-111.5 175.38,-111.5"/>
<text text-anchor="middle" x="249.25" y="-117.5" font-family="Helvetica,sans-Serif" font-size="10.00">PasswordDialog::setTemplate</text>
</a>
</g>
</g>
<!-- Node1&#45;&gt;Node23 -->
<g id="edge28" class="edge">
<title>Node1&#45;&gt;Node23</title>
<path fill="none" stroke="midnightblue" d="M80.27,-227.25C97.27,-205.03 133.2,-162.32 173.72,-139.5 178.19,-136.98 182.99,-134.8 187.93,-132.89"/>
<polygon fill="midnightblue" stroke="midnightblue" points="189.23,-136.15 197.54,-129.57 186.94,-129.53 189.23,-136.15"/>
</g>
<!-- Node24 -->
<g id="node24" class="node">
<title>Node24</title>
<g id="a_node24"><a xlink:href="class_pass.html#a6520ffa669cd7934091934b24593d99c" target="_top" xlink:title=" ">
<polygon fill="none" stroke="black" points="214.85,-74.5 214.85,-92.5 283.65,-92.5 283.65,-74.5 214.85,-74.5"/>
<text text-anchor="middle" x="249.25" y="-80.5" font-family="Helvetica,sans-Serif" font-size="10.00">Pass::Show</text>
</a>
</g>
</g>
<!-- Node1&#45;&gt;Node24 -->
<g id="edge29" class="edge">
<title>Node1&#45;&gt;Node24</title>
<path fill="none" stroke="midnightblue" d="M76.15,-227.43C89.65,-198.91 124.26,-134.24 173.72,-101.5 182.89,-95.43 193.9,-91.4 204.61,-88.73"/>
<polygon fill="midnightblue" stroke="midnightblue" points="205.67,-92.09 214.71,-86.57 204.2,-85.24 205.67,-92.09"/>
</g>
<!-- Node25 -->
<g id="node25" class="node">
<title>Node25</title>
<g id="a_node25"><a xlink:href="class_password_dialog.html#ac2af2ce4836edf9d5fda52d5ec66af82" target="_top" xlink:title="PasswordDialog::templateAll basic setter for use in PasswordDialog::setPassword templating all tokeni...">
<polygon fill="none" stroke="black" points="177.61,-37.5 177.61,-55.5 320.89,-55.5 320.89,-37.5 177.61,-37.5"/>
<text text-anchor="middle" x="249.25" y="-43.5" font-family="Helvetica,sans-Serif" font-size="10.00">PasswordDialog::templateAll</text>
</a>
</g>
</g>
<!-- Node1&#45;&gt;Node25 -->
<g id="edge30" class="edge">
<title>Node1&#45;&gt;Node25</title>
<path fill="none" stroke="midnightblue" d="M73.9,-227.42C84.37,-193.65 115.64,-107.61 173.72,-64.5 175.95,-62.85 178.31,-61.34 180.76,-59.98"/>
<polygon fill="midnightblue" stroke="midnightblue" points="182.46,-63.04 190,-55.6 179.46,-56.72 182.46,-63.04"/>
</g>
<!-- Node26 -->
<g id="node26" class="node">
<title>Node26</title>
<g id="a_node26"><a xlink:href="class_password_dialog.html#abe02aee12f78e5914cf79162df9e77e4" target="_top" xlink:title="PasswordDialog::usePwgen PasswordDialog::usePwgen don&#39;t use own password generator.">
<polygon fill="none" stroke="black" points="178.99,-0.5 178.99,-18.5 319.5,-18.5 319.5,-0.5 178.99,-0.5"/>
<text text-anchor="middle" x="249.25" y="-6.5" font-family="Helvetica,sans-Serif" font-size="10.00">PasswordDialog::usePwgen</text>
</a>
</g>
</g>
<!-- Node1&#45;&gt;Node26 -->
<g id="edge31" class="edge">
<title>Node1&#45;&gt;Node26</title>
<path fill="none" stroke="midnightblue" d="M72.39,-227.43C80.07,-188.98 106.82,-81.38 173.72,-27.5 175.71,-25.89 177.83,-24.43 180.04,-23.09"/>
<polygon fill="midnightblue" stroke="midnightblue" points="181.64,-26.2 188.95,-18.53 178.45,-19.97 181.64,-26.2"/>
</g>
<!-- Node3 -->
<g id="node3" class="node">
<title>Node3</title>
<g id="a_node3"><a xlink:href="class_qt_pass_settings.html#a2d6c10abe565eaadb5a222501adfe31f" target="_top" xlink:title=" ">
<polygon fill="none" stroke="black" points="366.06,-580.5 366.06,-598.5 522.68,-598.5 522.68,-580.5 366.06,-580.5"/>
<text text-anchor="middle" x="444.37" y="-586.5" font-family="Helvetica,sans-Serif" font-size="10.00">QtPassSettings::getImitatePass</text>
</a>
</g>
</g>
<!-- Node2&#45;&gt;Node3 -->
<g id="edge2" class="edge">
<title>Node2&#45;&gt;Node3</title>
<path fill="none" stroke="midnightblue" d="M265.08,-524.56C285.8,-536.85 324.9,-558.74 360.78,-571.5 367.62,-573.93 374.91,-576.1 382.21,-578.01"/>
<polygon fill="midnightblue" stroke="midnightblue" points="381.58,-581.46 392.13,-580.46 383.26,-574.67 381.58,-581.46"/>
</g>
<!-- Node4 -->
<g id="node4" class="node">
<title>Node4</title>
<g id="a_node4"><a xlink:href="class_qt_pass_settings.html#aaaeff5fa2e3a6b1f815b9a8247339b3a" target="_top" xlink:title=" ">
<polygon fill="none" stroke="black" points="370.78,-543.5 370.78,-561.5 517.96,-561.5 517.96,-543.5 370.78,-543.5"/>
<text text-anchor="middle" x="444.37" y="-549.5" font-family="Helvetica,sans-Serif" font-size="10.00">QtPassSettings::getRealPass</text>
</a>
</g>
</g>
<!-- Node2&#45;&gt;Node4 -->
<g id="edge3" class="edge">
<title>Node2&#45;&gt;Node4</title>
<path fill="none" stroke="midnightblue" d="M297.49,-524.55C324.24,-529.68 357.9,-536.13 386.14,-541.54"/>
<polygon fill="midnightblue" stroke="midnightblue" points="385.8,-545.03 396.28,-543.48 387.12,-538.16 385.8,-545.03"/>
</g>
<!-- Node5 -->
<g id="node5" class="node">
<title>Node5</title>
<g id="a_node5"><a xlink:href="class_pass.html#a012c47a55b3cc3467ad0f013716f623a" target="_top" xlink:title=" ">
<polygon fill="none" stroke="black" points="416.08,-506.5 416.08,-524.5 472.66,-524.5 472.66,-506.5 416.08,-506.5"/>
<text text-anchor="middle" x="444.37" y="-512.5" font-family="Helvetica,sans-Serif" font-size="10.00">Pass::init</text>
</a>
</g>
</g>
<!-- Node2&#45;&gt;Node5 -->
<g id="edge4" class="edge">
<title>Node2&#45;&gt;Node5</title>
<path fill="none" stroke="midnightblue" d="M312.68,-515.5C343.29,-515.5 379.15,-515.5 405.55,-515.5"/>
<polygon fill="midnightblue" stroke="midnightblue" points="405.89,-519 415.89,-515.5 405.89,-512 405.89,-519"/>
</g>
<!-- Node8 -->
<g id="node8" class="node">
<title>Node8</title>
<g id="a_node8"><a xlink:href="class_qt_pass_settings.html#a30ef36260f73f9f18d338f2b18a1f493" target="_top" xlink:title=" ">
<polygon fill="none" stroke="black" points="375.51,-469.5 375.51,-487.5 513.23,-487.5 513.23,-469.5 375.51,-469.5"/>
<text text-anchor="middle" x="444.37" y="-475.5" font-family="Helvetica,sans-Serif" font-size="10.00">QtPassSettings::isUsePass</text>
</a>
</g>
</g>
<!-- Node2&#45;&gt;Node8 -->
<g id="edge7" class="edge">
<title>Node2&#45;&gt;Node8</title>
<path fill="none" stroke="midnightblue" d="M297.49,-506.45C324.24,-501.32 357.9,-494.87 386.14,-489.46"/>
<polygon fill="midnightblue" stroke="midnightblue" points="387.12,-492.84 396.28,-487.52 385.8,-485.97 387.12,-492.84"/>
</g>
<!-- Node6 -->
<g id="node6" class="node">
<title>Node6</title>
<g id="a_node6"><a xlink:href="class_qt_pass_settings.html#ae3f04477e57019e329ed9944806ec1da" target="_top" xlink:title=" ">
<polygon fill="none" stroke="black" points="567.02,-507.5 567.02,-525.5 716.97,-525.5 716.97,-507.5 567.02,-507.5"/>
<text text-anchor="middle" x="641.99" y="-513.5" font-family="Helvetica,sans-Serif" font-size="10.00">QtPassSettings::getGpgHome</text>
</a>
</g>
</g>
<!-- Node5&#45;&gt;Node6 -->
<g id="edge5" class="edge">
<title>Node5&#45;&gt;Node6</title>
<path fill="none" stroke="midnightblue" d="M472.98,-515.64C494.84,-515.75 526.58,-515.92 556.61,-516.07"/>
<polygon fill="midnightblue" stroke="midnightblue" points="556.69,-519.57 566.71,-516.12 556.72,-512.57 556.69,-519.57"/>
</g>
<!-- Node7 -->
<g id="node7" class="node">
<title>Node7</title>
<g id="a_node7"><a xlink:href="class_qt_pass_settings.html#ab83659fdbfb9069942e6982076b4b934" target="_top" xlink:title=" ">
<polygon fill="none" stroke="black" points="756.02,-393.5 756.02,-411.5 898.2,-411.5 898.2,-393.5 756.02,-393.5"/>
<text text-anchor="middle" x="827.11" y="-399.5" font-family="Helvetica,sans-Serif" font-size="10.00">QtPassSettings::getInstance</text>
</a>
</g>
</g>
<!-- Node6&#45;&gt;Node7 -->
<g id="edge6" class="edge">
<title>Node6&#45;&gt;Node7</title>
<path fill="none" stroke="midnightblue" d="M682.63,-507.45C695.03,-503.77 708.49,-498.84 720.02,-492.5 756.3,-472.55 791.55,-438.98 810.89,-418.96"/>
<polygon fill="midnightblue" stroke="midnightblue" points="813.6,-421.19 817.94,-411.53 808.52,-416.37 813.6,-421.19"/>
</g>
<!-- Node8&#45;&gt;Node7 -->
<g id="edge8" class="edge">
<title>Node8&#45;&gt;Node7</title>
<path fill="none" stroke="midnightblue" d="M513.34,-470.67C569.25,-463.56 650.33,-451.7 720.02,-435.5 744.08,-429.91 770.61,-421.65 791.13,-414.8"/>
<polygon fill="midnightblue" stroke="midnightblue" points="792.33,-418.09 800.68,-411.56 790.08,-411.46 792.33,-418.09"/>
</g>
<!-- Node9&#45;&gt;Node7 -->
<g id="edge10" class="edge">
<title>Node9&#45;&gt;Node7</title>
<path fill="none" stroke="midnightblue" d="M528.04,-433.07C582.58,-428.07 655.59,-421.19 720.02,-414.5 728.37,-413.63 737.09,-412.7 745.77,-411.74"/>
<polygon fill="midnightblue" stroke="midnightblue" points="746.39,-415.2 755.94,-410.62 745.62,-408.24 746.39,-415.2"/>
</g>
<!-- Node10&#45;&gt;Node7 -->
<g id="edge12" class="edge">
<title>Node10&#45;&gt;Node7</title>
<path fill="none" stroke="midnightblue" d="M518.78,-399.27C583.84,-399.95 678.64,-400.95 745.72,-401.66"/>
<polygon fill="midnightblue" stroke="midnightblue" points="745.79,-405.16 755.82,-401.76 745.86,-398.16 745.79,-405.16"/>
</g>
<!-- Node11&#45;&gt;Node7 -->
<g id="edge14" class="edge">
<title>Node11&#45;&gt;Node7</title>
<path fill="none" stroke="midnightblue" d="M702.7,-373.52C726.98,-379.22 754.66,-385.72 777.65,-391.12"/>
<polygon fill="midnightblue" stroke="midnightblue" points="776.99,-394.56 787.52,-393.44 778.59,-387.75 776.99,-394.56"/>
</g>
<!-- Node12&#45;&gt;Node7 -->
<g id="edge16" class="edge">
<title>Node12&#45;&gt;Node7</title>
<path fill="none" stroke="midnightblue" d="M517.43,-313.11C573.9,-311.88 653.74,-315.06 720.02,-336.5 753.64,-347.37 787.43,-371.13 807.56,-386.97"/>
<polygon fill="midnightblue" stroke="midnightblue" points="805.58,-389.87 815.56,-393.42 809.97,-384.42 805.58,-389.87"/>
</g>
<!-- Node13&#45;&gt;Node7 -->
<g id="edge18" class="edge">
<title>Node13&#45;&gt;Node7</title>
<path fill="none" stroke="midnightblue" d="M684.03,-287.54C696.1,-291.18 709.02,-296.07 720.02,-302.5 758.22,-324.83 793.72,-363.29 812.39,-385.44"/>
<polygon fill="midnightblue" stroke="midnightblue" points="809.84,-387.84 818.91,-393.32 815.23,-383.38 809.84,-387.84"/>
</g>
<!-- Node16 -->
<g id="node16" class="node">
<title>Node16</title>
<g id="a_node16"><a xlink:href="class_password_dialog.html#a89b320eb34026b488c5c685ee6b16623" target="_top" xlink:title="Sets content in the password field in the interface.">
<polygon fill="none" stroke="black" points="368.84,-177.5 368.84,-195.5 519.9,-195.5 519.9,-177.5 368.84,-177.5"/>
<text text-anchor="middle" x="444.37" y="-183.5" font-family="Helvetica,sans-Serif" font-size="10.00">PasswordDialog::setPassword</text>
</a>
</g>
</g>
<!-- Node15&#45;&gt;Node16 -->
<g id="edge21" class="edge">
<title>Node15&#45;&gt;Node16</title>
<path fill="none" stroke="midnightblue" d="M314.02,-198.56C328.21,-197.23 343.48,-195.81 358.37,-194.42"/>
<polygon fill="midnightblue" stroke="midnightblue" points="358.97,-197.88 368.61,-193.47 358.32,-190.91 358.97,-197.88"/>
</g>
<!-- Node17 -->
<g id="node17" class="node">
<title>Node17</title>
<g id="a_node17"><a xlink:href="class_file_content.html#ab1a615b719c41f631821e06009c530a2" target="_top" xlink:title=" ">
<polygon fill="none" stroke="black" points="567.66,-232.5 567.66,-250.5 716.33,-250.5 716.33,-232.5 567.66,-232.5"/>
<text text-anchor="middle" x="641.99" y="-238.5" font-family="Helvetica,sans-Serif" font-size="10.00">FileContent::getNamedValues</text>
</a>
</g>
</g>
<!-- Node16&#45;&gt;Node17 -->
<g id="edge22" class="edge">
<title>Node16&#45;&gt;Node17</title>
<path fill="none" stroke="midnightblue" d="M472.52,-195.59C496.46,-203.45 532.33,-214.88 563.96,-223.5 572.25,-225.76 581.08,-227.99 589.7,-230.07"/>
<polygon fill="midnightblue" stroke="midnightblue" points="589.14,-233.53 599.68,-232.43 590.76,-226.72 589.14,-233.53"/>
</g>
<!-- Node18 -->
<g id="node18" class="node">
<title>Node18</title>
<g id="a_node18"><a xlink:href="class_file_content.html#aab89c859cfde0d9d1ed8de89e07ca231" target="_top" xlink:title=" ">
<polygon fill="none" stroke="black" points="576.74,-195.5 576.74,-213.5 707.24,-213.5 707.24,-195.5 576.74,-195.5"/>
<text text-anchor="middle" x="641.99" y="-201.5" font-family="Helvetica,sans-Serif" font-size="10.00">FileContent::getPassword</text>
</a>
</g>
</g>
<!-- Node16&#45;&gt;Node18 -->
<g id="edge23" class="edge">
<title>Node16&#45;&gt;Node18</title>
<path fill="none" stroke="midnightblue" d="M520.16,-193.38C535.24,-194.77 551.08,-196.23 566.16,-197.61"/>
<polygon fill="midnightblue" stroke="midnightblue" points="566.18,-201.13 576.45,-198.56 566.82,-194.16 566.18,-201.13"/>
</g>
<!-- Node19 -->
<g id="node19" class="node">
<title>Node19</title>
<g id="a_node19"><a xlink:href="class_file_content.html#a2f1cc35e14725e8f3f95dddf3afcc29a" target="_top" xlink:title=" ">
<polygon fill="none" stroke="black" points="564.23,-158.5 564.23,-176.5 719.75,-176.5 719.75,-158.5 564.23,-158.5"/>
<text text-anchor="middle" x="641.99" y="-164.5" font-family="Helvetica,sans-Serif" font-size="10.00">FileContent::getRemainingData</text>
</a>
</g>
</g>
<!-- Node16&#45;&gt;Node19 -->
<g id="edge24" class="edge">
<title>Node16&#45;&gt;Node19</title>
<path fill="none" stroke="midnightblue" d="M520.16,-179.24C531.15,-178.17 542.54,-177.06 553.75,-175.97"/>
<polygon fill="midnightblue" stroke="midnightblue" points="554.36,-179.43 563.97,-174.98 553.68,-172.46 554.36,-179.43"/>
</g>
<!-- Node20 -->
<g id="node20" class="node">
<title>Node20</title>
<g id="a_node20"><a xlink:href="class_file_content.html#abef563f253a931af308232c66e032153" target="_top" xlink:title="parse parses the given fileContent in a FileContent object. The password is accessible through getPas...">
<polygon fill="none" stroke="black" points="593.14,-121.5 593.14,-139.5 690.85,-139.5 690.85,-121.5 593.14,-121.5"/>
<text text-anchor="middle" x="641.99" y="-127.5" font-family="Helvetica,sans-Serif" font-size="10.00">FileContent::parse</text>
</a>
</g>
</g>
<!-- Node16&#45;&gt;Node20 -->
<g id="edge25" class="edge">
<title>Node16&#45;&gt;Node20</title>
<path fill="none" stroke="midnightblue" d="M473.03,-177.35C496.97,-169.55 532.59,-158.25 563.96,-149.5 573.22,-146.92 583.15,-144.33 592.7,-141.94"/>
<polygon fill="midnightblue" stroke="midnightblue" points="593.61,-145.32 602.48,-139.52 591.93,-138.52 593.61,-145.32"/>
</g>
<!-- Node21 -->
<g id="node21" class="node">
<title>Node21</title>
<g id="a_node21"><a xlink:href="class_named_values.html#a1108666ec11e20d62e0fe2a3f0f9d189" target="_top" xlink:title=" ">
<polygon fill="none" stroke="black" points="578.31,-84.5 578.31,-102.5 705.68,-102.5 705.68,-84.5 578.31,-84.5"/>
<text text-anchor="middle" x="641.99" y="-90.5" font-family="Helvetica,sans-Serif" font-size="10.00">NamedValues::takeValue</text>
</a>
</g>
</g>
<!-- Node16&#45;&gt;Node21 -->
<g id="edge26" class="edge">
<title>Node16&#45;&gt;Node21</title>
<path fill="none" stroke="midnightblue" d="M456.76,-177.43C477.1,-161.69 521.5,-129.29 563.96,-111.5 569.48,-109.19 575.35,-107.14 581.3,-105.34"/>
<polygon fill="midnightblue" stroke="midnightblue" points="582.63,-108.6 591.32,-102.53 580.74,-101.86 582.63,-108.6"/>
</g>
</g>
</svg>
