<?xml version="1.0" encoding="UTF-8" standalone="no"?>
<!DOCTYPE svg PUBLIC "-//W3C//DTD SVG 1.1//EN"
 "http://www.w3.org/Graphics/SVG/1.1/DTD/svg11.dtd">
<!-- Generated by graphviz version 2.40.1 (20161225.0304)
 -->
<!-- Title: PasswordDialog::PasswordDialog Pages: 1 -->
<!--zoomable 610 -->
<svg id="main" version="1.1" xmlns="http://www.w3.org/2000/svg" xmlns:xlink="http://www.w3.org/1999/xlink" xml:space="preserve" onload="init(evt)">
<style type="text/css"><![CDATA[
.edge:hover path { stroke: red; }
.edge:hover polygon { stroke: red; fill: red; }
]]></style>
<script type="text/javascript"><![CDATA[
var edges = document.getElementsByTagName('g');
if (edges && edges.length) {
  for (var i=0;i<edges.length;i++) {
    if (edges[i].id.substr(0,4)=='edge') {
      edges[i].setAttribute('class','edge');
    }
  }
}
]]></script>
        <defs>
                <circle id="rim" cx="0" cy="0" r="7"/>
                <circle id="rim2" cx="0" cy="0" r="3.5"/>
                <g id="zoomPlus">
                        <use xlink:href="#rim" fill="#404040">
                                <set attributeName="fill" to="#808080" begin="zoomplus.mouseover" end="zoomplus.mouseout"/>
                        </use>
                        <path d="M-4,0h8M0,-4v8" fill="none" stroke="white" stroke-width="1.5" pointer-events="none"/>
                </g>
                <g id="zoomMin">
                        <use xlink:href="#rim" fill="#404040">
                                <set attributeName="fill" to="#808080" begin="zoomminus.mouseover" end="zoomminus.mouseout"/>
                        </use>
                        <path d="M-4,0h8" fill="none" stroke="white" stroke-width="1.5" pointer-events="none"/>
                </g>
                <g id="dirArrow">
                        <path fill="none" stroke="white" stroke-width="1.5" d="M0,-3.0v7 M-2.5,-0.5L0,-3.0L2.5,-0.5"/>
                </g>
               <g id="resetDef">
                       <use xlink:href="#rim2" fill="#404040">
                               <set attributeName="fill" to="#808080" begin="reset.mouseover" end="reset.mouseout"/>
                       </use>
               </g>
        </defs>

<script type="text/javascript">
var viewWidth = 909;
var viewHeight = 610;
var sectionId = 'dynsection-3';
</script>
<script xlink:href="svgpan.js"/>
<svg id="graph" class="graph">
<g id="viewport">
<title>PasswordDialog::PasswordDialog</title>
<!-- Node18 -->
<g id="node1" class="node">
<title>Node18</title>
<polygon fill="#bfbfbf" stroke="#000000" points="0,-311 0,-341 137,-341 137,-311 0,-311"/>
<text text-anchor="start" x="8" y="-329" font-family="Helvetica,sans-Serif" font-size="10.00" fill="#000000">PasswordDialog::Password</text>
<text text-anchor="middle" x="68.5" y="-318" font-family="Helvetica,sans-Serif" font-size="10.00" fill="#000000">Dialog</text>
</g>
<!-- Node19 -->
<g id="node2" class="node">
<title>Node19</title>
<g id="a_node2"><a xlink:href="class_qt_pass_settings.html#a987e913eac7cd497e2fca27426494a64" target="_top" xlink:title="QtPassSettings::getPass">
<polygon fill="none" stroke="#000000" points="184.5,-544.5 184.5,-563.5 312.5,-563.5 312.5,-544.5 184.5,-544.5"/>
<text text-anchor="middle" x="248.5" y="-551.5" font-family="Helvetica,sans-Serif" font-size="10.00" fill="#000000">QtPassSettings::getPass</text>
</a>
</g>
</g>
<!-- Node18&#45;&gt;Node19 -->
<g id="edge1" class="edge">
<title>Node18&#45;&gt;Node19</title>
<path fill="none" stroke="#191970" d="M71.5083,-341.0945C80.022,-379.7235 108.0114,-482.7848 173,-535 175.272,-536.8254 177.6969,-538.4781 180.2328,-539.9743"/>
<polygon fill="#191970" stroke="#191970" points="178.7136,-543.1279 189.2217,-544.4814 181.8512,-536.8704 178.7136,-543.1279"/>
</g>
<!-- Node26 -->
<g id="node9" class="node">
<title>Node26</title>
<g id="a_node9"><a xlink:href="class_pass.html#a6520ffa669cd7934091934b24593d99c" target="_top" xlink:title="Pass::Show">
<polygon fill="none" stroke="#000000" points="213.5,-506.5 213.5,-525.5 283.5,-525.5 283.5,-506.5 213.5,-506.5"/>
<text text-anchor="middle" x="248.5" y="-513.5" font-family="Helvetica,sans-Serif" font-size="10.00" fill="#000000">Pass::Show</text>
</a>
</g>
</g>
<!-- Node18&#45;&gt;Node26 -->
<g id="edge9" class="edge">
<title>Node18&#45;&gt;Node26</title>
<path fill="none" stroke="#191970" d="M73.9484,-341.3488C86.3201,-374.0046 119.6651,-450.7459 173,-492 181.9125,-498.8937 192.8524,-503.8331 203.6095,-507.363"/>
<polygon fill="#191970" stroke="#191970" points="202.7929,-510.7708 213.3737,-510.224 204.7614,-504.0532 202.7929,-510.7708"/>
</g>
<!-- Node27 -->
<g id="node10" class="node">
<title>Node27</title>
<g id="a_node10"><a xlink:href="class_qt_pass_settings.html#a9da7174babd2f5cc433505f0fec82efc" target="_top" xlink:title="QtPassSettings::getPassword\lConfiguration">
<polygon fill="none" stroke="#000000" points="364.5,-419 364.5,-449 513.5,-449 513.5,-419 364.5,-419"/>
<text text-anchor="start" x="372.5" y="-437" font-family="Helvetica,sans-Serif" font-size="10.00" fill="#000000">QtPassSettings::getPassword</text>
<text text-anchor="middle" x="439" y="-426" font-family="Helvetica,sans-Serif" font-size="10.00" fill="#000000">Configuration</text>
</a>
</g>
</g>
<!-- Node18&#45;&gt;Node27 -->
<g id="edge10" class="edge">
<title>Node18&#45;&gt;Node27</title>
<path fill="none" stroke="#191970" d="M74.9035,-341.2426C88.1699,-370.5584 121.7631,-434.0971 173,-459 233.3594,-488.3368 257.2729,-466.1692 324,-459 339.4979,-457.3349 355.9716,-454.442 371.4633,-451.2011"/>
<polygon fill="#191970" stroke="#191970" points="372.4496,-454.5687 381.4817,-449.0304 370.9673,-447.7274 372.4496,-454.5687"/>
</g>
<!-- Node28 -->
<g id="node11" class="node">
<title>Node28</title>
<g id="a_node11"><a xlink:href="class_password_dialog.html#abe02aee12f78e5914cf79162df9e77e4" target="_top" xlink:title="PasswordDialog::usePwgen PasswordDialog::usePwgen don&#39;t use own password generator. ">
<polygon fill="none" stroke="#000000" points="178.5,-430.5 178.5,-449.5 318.5,-449.5 318.5,-430.5 178.5,-430.5"/>
<text text-anchor="middle" x="248.5" y="-437.5" font-family="Helvetica,sans-Serif" font-size="10.00" fill="#000000">PasswordDialog::usePwgen</text>
</a>
</g>
</g>
<!-- Node18&#45;&gt;Node28 -->
<g id="edge12" class="edge">
<title>Node18&#45;&gt;Node28</title>
<path fill="none" stroke="#191970" d="M82.2782,-341.1921C101.0179,-361.013 136.4186,-395.5675 173,-416 180.852,-420.3857 189.6187,-424.0968 198.3206,-427.1918"/>
<polygon fill="#191970" stroke="#191970" points="197.472,-430.5979 208.0655,-430.4275 199.6779,-423.9545 197.472,-430.5979"/>
</g>
<!-- Node29 -->
<g id="node12" class="node">
<title>Node29</title>
<g id="a_node12"><a xlink:href="class_qt_pass_settings.html#a67e0ba5d6606e73b979daa774ccc1f72" target="_top" xlink:title="QtPassSettings::isUsePwgen">
<polygon fill="none" stroke="#000000" points="365.5,-380.5 365.5,-399.5 512.5,-399.5 512.5,-380.5 365.5,-380.5"/>
<text text-anchor="middle" x="439" y="-387.5" font-family="Helvetica,sans-Serif" font-size="10.00" fill="#000000">QtPassSettings::isUsePwgen</text>
</a>
</g>
</g>
<!-- Node18&#45;&gt;Node29 -->
<g id="edge13" class="edge">
<title>Node18&#45;&gt;Node29</title>
<path fill="none" stroke="#191970" d="M89.2402,-341.1982C109.4635,-355.0417 141.669,-374.5703 173,-383 232.5109,-399.0115 302.2311,-400.2366 355.3602,-397.7378"/>
<polygon fill="#191970" stroke="#191970" points="355.6153,-401.2294 365.4187,-397.2113 355.2493,-394.2389 355.6153,-401.2294"/>
</g>
<!-- Node30 -->
<g id="node13" class="node">
<title>Node30</title>
<g id="a_node13"><a xlink:href="class_password_dialog.html#a522f673d65885edea46e3c514bb95f45" target="_top" xlink:title="Sets content in the template for the interface. ">
<polygon fill="none" stroke="#000000" points="174.5,-354.5 174.5,-373.5 322.5,-373.5 322.5,-354.5 174.5,-354.5"/>
<text text-anchor="middle" x="248.5" y="-361.5" font-family="Helvetica,sans-Serif" font-size="10.00" fill="#000000">PasswordDialog::setTemplate</text>
</a>
</g>
</g>
<!-- Node18&#45;&gt;Node30 -->
<g id="edge15" class="edge">
<title>Node18&#45;&gt;Node30</title>
<path fill="none" stroke="#191970" d="M137.0638,-340.4746C155.5843,-344.3845 175.3907,-348.5658 193.0915,-352.3026"/>
<polygon fill="#191970" stroke="#191970" points="192.7372,-355.8049 203.2445,-354.4461 194.1832,-348.9559 192.7372,-355.8049"/>
</g>
<!-- Node31 -->
<g id="node14" class="node">
<title>Node31</title>
<g id="a_node14"><a xlink:href="class_qt_pass_settings.html#a3c0463005c07a4dc0384bf8e63696aa4" target="_top" xlink:title="QtPassSettings::getPassTemplate">
<polygon fill="none" stroke="#000000" points="554,-336.5 554,-355.5 722,-355.5 722,-336.5 554,-336.5"/>
<text text-anchor="middle" x="638" y="-343.5" font-family="Helvetica,sans-Serif" font-size="10.00" fill="#000000">QtPassSettings::getPassTemplate</text>
</a>
</g>
</g>
<!-- Node18&#45;&gt;Node31 -->
<g id="edge16" class="edge">
<title>Node18&#45;&gt;Node31</title>
<path fill="none" stroke="#191970" d="M137.195,-328.4125C238.7103,-331.9775 429.1011,-338.6638 543.6406,-342.6862"/>
<polygon fill="#191970" stroke="#191970" points="543.6829,-346.1898 553.7996,-343.043 543.9286,-339.1941 543.6829,-346.1898"/>
</g>
<!-- Node32 -->
<g id="node15" class="node">
<title>Node32</title>
<g id="a_node15"><a xlink:href="class_qt_pass_settings.html#a106e2f75cc1dda481bdf253f640a9283" target="_top" xlink:title="QtPassSettings::isUseTemplate">
<polygon fill="none" stroke="#000000" points="360,-278.5 360,-297.5 518,-297.5 518,-278.5 360,-278.5"/>
<text text-anchor="middle" x="439" y="-285.5" font-family="Helvetica,sans-Serif" font-size="10.00" fill="#000000">QtPassSettings::isUseTemplate</text>
</a>
</g>
</g>
<!-- Node18&#45;&gt;Node32 -->
<g id="edge18" class="edge">
<title>Node18&#45;&gt;Node32</title>
<path fill="none" stroke="#191970" d="M137.026,-316.3887C149.0058,-314.8316 161.358,-313.3044 173,-312 231.7517,-305.4171 297.9627,-299.4382 349.6294,-295.0945"/>
<polygon fill="#191970" stroke="#191970" points="350.0885,-298.5684 359.7623,-294.2479 349.5056,-291.5928 350.0885,-298.5684"/>
</g>
<!-- Node33 -->
<g id="node16" class="node">
<title>Node33</title>
<g id="a_node16"><a xlink:href="class_password_dialog.html#ac2af2ce4836edf9d5fda52d5ec66af82" target="_top" xlink:title="PasswordDialog::templateAll basic setter for use in PasswordDialog::setPassword templating all tokeni...">
<polygon fill="none" stroke="#000000" points="177,-240.5 177,-259.5 320,-259.5 320,-240.5 177,-240.5"/>
<text text-anchor="middle" x="248.5" y="-247.5" font-family="Helvetica,sans-Serif" font-size="10.00" fill="#000000">PasswordDialog::templateAll</text>
</a>
</g>
</g>
<!-- Node18&#45;&gt;Node33 -->
<g id="edge20" class="edge">
<title>Node18&#45;&gt;Node33</title>
<path fill="none" stroke="#191970" d="M95.9076,-310.9069C116.6813,-299.8272 146.1405,-284.8764 173,-274 183.1439,-269.8923 194.276,-266.0195 204.802,-262.6324"/>
<polygon fill="#191970" stroke="#191970" points="206.1617,-265.8742 214.6561,-259.542 204.067,-259.1949 206.1617,-265.8742"/>
</g>
<!-- Node34 -->
<g id="node17" class="node">
<title>Node34</title>
<g id="a_node17"><a xlink:href="class_qt_pass_settings.html#a1e65645c63846fcf2d51897e76e6d0c0" target="_top" xlink:title="QtPassSettings::isTemplate\lAllFields">
<polygon fill="none" stroke="#000000" points="568,-207 568,-237 708,-237 708,-207 568,-207"/>
<text text-anchor="start" x="576" y="-225" font-family="Helvetica,sans-Serif" font-size="10.00" fill="#000000">QtPassSettings::isTemplate</text>
<text text-anchor="middle" x="638" y="-214" font-family="Helvetica,sans-Serif" font-size="10.00" fill="#000000">AllFields</text>
</a>
</g>
</g>
<!-- Node18&#45;&gt;Node34 -->
<g id="edge21" class="edge">
<title>Node18&#45;&gt;Node34</title>
<path fill="none" stroke="#191970" d="M79.2533,-310.9097C96.2109,-288.5512 131.5359,-247.4933 173,-231 299.8618,-180.538 462.0014,-192.8103 557.4713,-206.9592"/>
<polygon fill="#191970" stroke="#191970" points="557.2232,-210.4618 567.6368,-208.5104 558.2792,-203.5419 557.2232,-210.4618"/>
</g>
<!-- Node35 -->
<g id="node18" class="node">
<title>Node35</title>
<g id="a_node18"><a xlink:href="class_password_dialog.html#ac865a161a2be2d4837761a1305a71db9" target="_top" xlink:title="PasswordDialog::setLength PasswordDialog::setLength password length. ">
<polygon fill="none" stroke="#000000" points="180,-164.5 180,-183.5 317,-183.5 317,-164.5 180,-164.5"/>
<text text-anchor="middle" x="248.5" y="-171.5" font-family="Helvetica,sans-Serif" font-size="10.00" fill="#000000">PasswordDialog::setLength</text>
</a>
</g>
</g>
<!-- Node18&#45;&gt;Node35 -->
<g id="edge23" class="edge">
<title>Node18&#45;&gt;Node35</title>
<path fill="none" stroke="#191970" d="M76.7671,-310.973C92.1929,-284.3063 127.9206,-228.6394 173,-198 179.4785,-193.5967 186.8113,-189.9647 194.2975,-186.9789"/>
<polygon fill="#191970" stroke="#191970" points="195.5996,-190.2299 203.8095,-183.5329 193.2153,-183.6484 195.5996,-190.2299"/>
</g>
<!-- Node36 -->
<g id="node19" class="node">
<title>Node36</title>
<g id="a_node19"><a xlink:href="class_password_dialog.html#a19369fdb18d5b280aeadcd91245d9f6a" target="_top" xlink:title="PasswordDialog::setPasswordCharTemplate PasswordDialog::setPasswordCharTemplate chose the template st...">
<polygon fill="none" stroke="#000000" points="173,-115 173,-145 324,-145 324,-115 173,-115"/>
<text text-anchor="start" x="181" y="-133" font-family="Helvetica,sans-Serif" font-size="10.00" fill="#000000">PasswordDialog::setPassword</text>
<text text-anchor="middle" x="248.5" y="-122" font-family="Helvetica,sans-Serif" font-size="10.00" fill="#000000">CharTemplate</text>
</a>
</g>
</g>
<!-- Node18&#45;&gt;Node36 -->
<g id="edge24" class="edge">
<title>Node18&#45;&gt;Node36</title>
<path fill="none" stroke="#191970" d="M73.5798,-310.9951C85.5411,-277.8989 118.638,-198.1575 173,-155 175.2811,-153.1891 177.6989,-151.5068 180.2153,-149.9444"/>
<polygon fill="#191970" stroke="#191970" points="182.0065,-152.954 189.0961,-145.0807 178.644,-146.8144 182.0065,-152.954"/>
</g>
<!-- Node37 -->
<g id="node20" class="node">
<title>Node37</title>
<g id="a_node20"><a xlink:href="class_password_dialog.html#aca023385bb581500a1e4a880a6283ad8" target="_top" xlink:title="PasswordDialog::setPass">
<polygon fill="none" stroke="#000000" points="183.5,-76.5 183.5,-95.5 313.5,-95.5 313.5,-76.5 183.5,-76.5"/>
<text text-anchor="middle" x="248.5" y="-83.5" font-family="Helvetica,sans-Serif" font-size="10.00" fill="#000000">PasswordDialog::setPass</text>
</a>
</g>
</g>
<!-- Node18&#45;&gt;Node37 -->
<g id="edge25" class="edge">
<title>Node18&#45;&gt;Node37</title>
<path fill="none" stroke="#191970" d="M71.1764,-310.7628C79.0302,-270.7232 105.8325,-161.7924 173,-106 175.6892,-103.7663 178.6024,-101.7796 181.6673,-100.0129"/>
<polygon fill="#191970" stroke="#191970" points="183.2196,-103.1499 190.6464,-95.5938 180.1286,-96.8693 183.2196,-103.1499"/>
</g>
<!-- Node20 -->
<g id="node3" class="node">
<title>Node20</title>
<g id="a_node3"><a xlink:href="class_qt_pass_settings.html#a30ef36260f73f9f18d338f2b18a1f493" target="_top" xlink:title="QtPassSettings::isUsePass">
<polygon fill="none" stroke="#000000" points="369,-582.5 369,-601.5 509,-601.5 509,-582.5 369,-582.5"/>
<text text-anchor="middle" x="439" y="-589.5" font-family="Helvetica,sans-Serif" font-size="10.00" fill="#000000">QtPassSettings::isUsePass</text>
</a>
</g>
</g>
<!-- Node19&#45;&gt;Node20 -->
<g id="edge2" class="edge">
<title>Node19&#45;&gt;Node20</title>
<path fill="none" stroke="#191970" d="M296.5712,-563.589C322.2759,-568.7165 354.1134,-575.0672 381.1642,-580.4632"/>
<polygon fill="#191970" stroke="#191970" points="380.783,-583.956 391.2745,-582.4799 382.1524,-577.0913 380.783,-583.956"/>
</g>
<!-- Node22 -->
<g id="node5" class="node">
<title>Node22</title>
<g id="a_node5"><a xlink:href="class_qt_pass_settings.html#aaaeff5fa2e3a6b1f815b9a8247339b3a" target="_top" xlink:title="QtPassSettings::getRealPass">
<polygon fill="none" stroke="#000000" points="365,-544.5 365,-563.5 513,-563.5 513,-544.5 365,-544.5"/>
<text text-anchor="middle" x="439" y="-551.5" font-family="Helvetica,sans-Serif" font-size="10.00" fill="#000000">QtPassSettings::getRealPass</text>
</a>
</g>
</g>
<!-- Node19&#45;&gt;Node22 -->
<g id="edge4" class="edge">
<title>Node19&#45;&gt;Node22</title>
<path fill="none" stroke="#191970" d="M312.729,-554C326.2015,-554 340.6034,-554 354.6825,-554"/>
<polygon fill="#191970" stroke="#191970" points="354.8593,-557.5001 364.8593,-554 354.8592,-550.5001 354.8593,-557.5001"/>
</g>
<!-- Node23 -->
<g id="node6" class="node">
<title>Node23</title>
<g id="a_node6"><a xlink:href="class_qt_pass_settings.html#a2d6c10abe565eaadb5a222501adfe31f" target="_top" xlink:title="QtPassSettings::getImitatePass">
<polygon fill="none" stroke="#000000" points="360,-506.5 360,-525.5 518,-525.5 518,-506.5 360,-506.5"/>
<text text-anchor="middle" x="439" y="-513.5" font-family="Helvetica,sans-Serif" font-size="10.00" fill="#000000">QtPassSettings::getImitatePass</text>
</a>
</g>
</g>
<!-- Node19&#45;&gt;Node23 -->
<g id="edge5" class="edge">
<title>Node19&#45;&gt;Node23</title>
<path fill="none" stroke="#191970" d="M296.5712,-544.411C322.2759,-539.2835 354.1134,-532.9328 381.1642,-527.5368"/>
<polygon fill="#191970" stroke="#191970" points="382.1524,-530.9087 391.2745,-525.5201 380.783,-524.044 382.1524,-530.9087"/>
</g>
<!-- Node24 -->
<g id="node7" class="node">
<title>Node24</title>
<g id="a_node7"><a xlink:href="class_pass.html#a012c47a55b3cc3467ad0f013716f623a" target="_top" xlink:title="Pass::init">
<polygon fill="none" stroke="#000000" points="410,-468.5 410,-487.5 468,-487.5 468,-468.5 410,-468.5"/>
<text text-anchor="middle" x="439" y="-475.5" font-family="Helvetica,sans-Serif" font-size="10.00" fill="#000000">Pass::init</text>
</a>
</g>
</g>
<!-- Node19&#45;&gt;Node24 -->
<g id="edge6" class="edge">
<title>Node19&#45;&gt;Node24</title>
<path fill="none" stroke="#191970" d="M302.384,-544.4605C309.9193,-541.9917 317.3506,-538.8913 324,-535 344.0789,-523.2495 339.8596,-508.6448 360,-497 372.0671,-490.0231 386.5885,-485.6014 399.8719,-482.8019"/>
<polygon fill="#191970" stroke="#191970" points="400.5395,-486.2378 409.7272,-480.9618 399.2547,-479.3567 400.5395,-486.2378"/>
</g>
<!-- Node21 -->
<g id="node4" class="node">
<title>Node21</title>
<g id="a_node4"><a xlink:href="class_qt_pass_settings.html#ab83659fdbfb9069942e6982076b4b934" target="_top" xlink:title="QtPassSettings::getInstance">
<polygon fill="none" stroke="#000000" points="758,-380.5 758,-399.5 901,-399.5 901,-380.5 758,-380.5"/>
<text text-anchor="middle" x="829.5" y="-387.5" font-family="Helvetica,sans-Serif" font-size="10.00" fill="#000000">QtPassSettings::getInstance</text>
</a>
</g>
</g>
<!-- Node20&#45;&gt;Node21 -->
<g id="edge3" class="edge">
<title>Node20&#45;&gt;Node21</title>
<path fill="none" stroke="#191970" d="M487.6271,-582.4951C546.5872,-569.3834 647.325,-541.776 722,-494 760.2102,-469.5537 796.3276,-430.046 815.4172,-407.4139"/>
<polygon fill="#191970" stroke="#191970" points="818.1803,-409.5649 821.8686,-399.6328 812.7916,-405.097 818.1803,-409.5649"/>
</g>
<!-- Node25 -->
<g id="node8" class="node">
<title>Node25</title>
<g id="a_node8"><a xlink:href="class_qt_pass_settings.html#ae3f04477e57019e329ed9944806ec1da" target="_top" xlink:title="QtPassSettings::getGpgHome">
<polygon fill="none" stroke="#000000" points="563.5,-465.5 563.5,-484.5 712.5,-484.5 712.5,-465.5 563.5,-465.5"/>
<text text-anchor="middle" x="638" y="-472.5" font-family="Helvetica,sans-Serif" font-size="10.00" fill="#000000">QtPassSettings::getGpgHome</text>
</a>
</g>
</g>
<!-- Node24&#45;&gt;Node25 -->
<g id="edge7" class="edge">
<title>Node24&#45;&gt;Node25</title>
<path fill="none" stroke="#191970" d="M468.3631,-477.5573C490.8013,-477.2191 522.9217,-476.7348 553.188,-476.2786"/>
<polygon fill="#191970" stroke="#191970" points="553.4185,-479.7756 563.3646,-476.1252 553.3129,-472.7764 553.4185,-479.7756"/>
</g>
<!-- Node25&#45;&gt;Node21 -->
<g id="edge8" class="edge">
<title>Node25&#45;&gt;Node21</title>
<path fill="none" stroke="#191970" d="M667.9094,-465.3735C684.1151,-459.8949 704.3739,-452.6182 722,-445 750.4969,-432.6832 781.9965,-416.2121 803.4893,-404.5142"/>
<polygon fill="#191970" stroke="#191970" points="805.2474,-407.5419 812.3314,-399.6635 801.8806,-401.4047 805.2474,-407.5419"/>
</g>
<!-- Node27&#45;&gt;Node21 -->
<g id="edge11" class="edge">
<title>Node27&#45;&gt;Node21</title>
<path fill="none" stroke="#191970" d="M513.5353,-426.5895C570.6336,-420.7937 651.3446,-412.3446 722,-404 730.5555,-402.9896 739.4883,-401.8929 748.3899,-400.7731"/>
<polygon fill="#191970" stroke="#191970" points="748.9253,-404.2333 758.4052,-399.5024 748.0442,-397.289 748.9253,-404.2333"/>
</g>
<!-- Node29&#45;&gt;Node21 -->
<g id="edge14" class="edge">
<title>Node29&#45;&gt;Node21</title>
<path fill="none" stroke="#191970" d="M512.9091,-390C579.9272,-390 678.5448,-390 747.8634,-390"/>
<polygon fill="#191970" stroke="#191970" points="747.871,-393.5001 757.871,-390 747.8709,-386.5001 747.871,-393.5001"/>
</g>
<!-- Node31&#45;&gt;Node21 -->
<g id="edge17" class="edge">
<title>Node31&#45;&gt;Node21</title>
<path fill="none" stroke="#191970" d="M679.5526,-355.5473C708.4113,-362.1781 747.0639,-371.0591 777.8972,-378.1435"/>
<polygon fill="#191970" stroke="#191970" points="777.4986,-381.643 788.0284,-380.4713 779.0662,-374.8208 777.4986,-381.643"/>
</g>
<!-- Node32&#45;&gt;Node21 -->
<g id="edge19" class="edge">
<title>Node32&#45;&gt;Node21</title>
<path fill="none" stroke="#191970" d="M518.0948,-290.6179C575.9406,-294.4999 655.5713,-303.9848 722,-327 754.4054,-338.2273 787.9027,-359.7106 808.7113,-374.4411"/>
<polygon fill="#191970" stroke="#191970" points="806.9157,-377.4617 817.0709,-380.4818 811.0156,-371.788 806.9157,-377.4617"/>
</g>
<!-- Node34&#45;&gt;Node21 -->
<g id="edge22" class="edge">
<title>Node34&#45;&gt;Node21</title>
<path fill="none" stroke="#191970" d="M662.0114,-237.1943C679.2847,-248.5179 702.8188,-264.7676 722,-281 757.2608,-310.8402 794.1914,-350.4015 814.2729,-372.7315"/>
<polygon fill="#191970" stroke="#191970" points="811.8366,-375.2581 821.1057,-380.3898 817.0598,-370.5978 811.8366,-375.2581"/>
</g>
<!-- Node38 -->
<g id="node21" class="node">
<title>Node38</title>
<g id="a_node21"><a xlink:href="class_password_dialog.html#a89b320eb34026b488c5c685ee6b16623" target="_top" xlink:title="Sets content in the password field in the interface. ">
<polygon fill="none" stroke="#000000" points="363.5,-76.5 363.5,-95.5 514.5,-95.5 514.5,-76.5 363.5,-76.5"/>
<text text-anchor="middle" x="439" y="-83.5" font-family="Helvetica,sans-Serif" font-size="10.00" fill="#000000">PasswordDialog::setPassword</text>
</a>
</g>
</g>
<!-- Node37&#45;&gt;Node38 -->
<g id="edge26" class="edge">
<title>Node37&#45;&gt;Node38</title>
<path fill="none" stroke="#191970" d="M313.5265,-86C326.3244,-86 339.9344,-86 353.2916,-86"/>
<polygon fill="#191970" stroke="#191970" points="353.439,-89.5001 363.439,-86 353.4389,-82.5001 353.439,-89.5001"/>
</g>
<!-- Node39 -->
<g id="node22" class="node">
<title>Node39</title>
<g id="a_node22"><a xlink:href="class_file_content.html#abef563f253a931af308232c66e032153" target="_top" xlink:title="parse parses the given fileContent in a FileContent object. The password is accessible through getPas...">
<polygon fill="none" stroke="#000000" points="589.5,-152.5 589.5,-171.5 686.5,-171.5 686.5,-152.5 589.5,-152.5"/>
<text text-anchor="middle" x="638" y="-159.5" font-family="Helvetica,sans-Serif" font-size="10.00" fill="#000000">FileContent::parse</text>
</a>
</g>
</g>
<!-- Node38&#45;&gt;Node39 -->
<g id="edge27" class="edge">
<title>Node38&#45;&gt;Node39</title>
<path fill="none" stroke="#191970" d="M455.2171,-95.588C477.007,-108.1041 517.2538,-129.9475 554,-143 562.1894,-145.9089 570.9904,-148.4764 579.703,-150.7075"/>
<polygon fill="#191970" stroke="#191970" points="578.9209,-154.1192 589.465,-153.0838 580.5766,-147.3179 578.9209,-154.1192"/>
</g>
<!-- Node40 -->
<g id="node23" class="node">
<title>Node40</title>
<g id="a_node23"><a xlink:href="class_file_content.html#aab89c859cfde0d9d1ed8de89e07ca231" target="_top" xlink:title="FileContent::getPassword">
<polygon fill="none" stroke="#000000" points="573,-114.5 573,-133.5 703,-133.5 703,-114.5 573,-114.5"/>
<text text-anchor="middle" x="638" y="-121.5" font-family="Helvetica,sans-Serif" font-size="10.00" fill="#000000">FileContent::getPassword</text>
</a>
</g>
</g>
<!-- Node38&#45;&gt;Node40 -->
<g id="edge28" class="edge">
<title>Node38&#45;&gt;Node40</title>
<path fill="none" stroke="#191970" d="M488.9592,-95.54C516.0454,-100.7122 549.7075,-107.1401 578.1835,-112.5778"/>
<polygon fill="#191970" stroke="#191970" points="577.5412,-116.0183 588.0202,-114.4561 578.8542,-109.1425 577.5412,-116.0183"/>
</g>
<!-- Node41 -->
<g id="node24" class="node">
<title>Node41</title>
<g id="a_node24"><a xlink:href="class_file_content.html#ab1a615b719c41f631821e06009c530a2" target="_top" xlink:title="FileContent::getNamedValues">
<polygon fill="none" stroke="#000000" points="564,-76.5 564,-95.5 712,-95.5 712,-76.5 564,-76.5"/>
<text text-anchor="middle" x="638" y="-83.5" font-family="Helvetica,sans-Serif" font-size="10.00" fill="#000000">FileContent::getNamedValues</text>
</a>
</g>
</g>
<!-- Node38&#45;&gt;Node41 -->
<g id="edge29" class="edge">
<title>Node38&#45;&gt;Node41</title>
<path fill="none" stroke="#191970" d="M514.5171,-86C527.2707,-86 540.5833,-86 553.5471,-86"/>
<polygon fill="#191970" stroke="#191970" points="553.8517,-89.5001 563.8517,-86 553.8516,-82.5001 553.8517,-89.5001"/>
</g>
<!-- Node42 -->
<g id="node25" class="node">
<title>Node42</title>
<g id="a_node25"><a xlink:href="class_named_values.html#a1108666ec11e20d62e0fe2a3f0f9d189" target="_top" xlink:title="NamedValues::takeValue">
<polygon fill="none" stroke="#000000" points="574,-38.5 574,-57.5 702,-57.5 702,-38.5 574,-38.5"/>
<text text-anchor="middle" x="638" y="-45.5" font-family="Helvetica,sans-Serif" font-size="10.00" fill="#000000">NamedValues::takeValue</text>
</a>
</g>
</g>
<!-- Node38&#45;&gt;Node42 -->
<g id="edge30" class="edge">
<title>Node38&#45;&gt;Node42</title>
<path fill="none" stroke="#191970" d="M488.9592,-76.46C516.0454,-71.2878 549.7075,-64.8599 578.1835,-59.4222"/>
<polygon fill="#191970" stroke="#191970" points="578.8542,-62.8575 588.0202,-57.5439 577.5412,-55.9817 578.8542,-62.8575"/>
</g>
<!-- Node43 -->
<g id="node26" class="node">
<title>Node43</title>
<g id="a_node26"><a xlink:href="class_file_content.html#a2f1cc35e14725e8f3f95dddf3afcc29a" target="_top" xlink:title="FileContent::getRemainingData">
<polygon fill="none" stroke="#000000" points="561,-.5 561,-19.5 715,-19.5 715,-.5 561,-.5"/>
<text text-anchor="middle" x="638" y="-7.5" font-family="Helvetica,sans-Serif" font-size="10.00" fill="#000000">FileContent::getRemainingData</text>
</a>
</g>
</g>
<!-- Node38&#45;&gt;Node43 -->
<g id="edge31" class="edge">
<title>Node38&#45;&gt;Node43</title>
<path fill="none" stroke="#191970" d="M455.2171,-76.412C477.007,-63.8959 517.2538,-42.0525 554,-29 561.3308,-26.396 569.1517,-24.0657 576.9606,-22.0053"/>
<polygon fill="#191970" stroke="#191970" points="577.9574,-25.3639 586.8077,-19.5396 576.257,-18.5735 577.9574,-25.3639"/>
</g>
</g>
</svg>
        <g id="navigator" transform="translate(0 0)" fill="#404254">
                <rect fill="#f2f5e9" fill-opacity="0.5" stroke="#606060" stroke-width=".5" x="0" y="0" width="60" height="60"/>
                <use id="zoomplus" xlink:href="#zoomPlus" x="17" y="9" onmousedown="handleZoom(evt,'in')"/>
                <use id="zoomminus" xlink:href="#zoomMin" x="42" y="9" onmousedown="handleZoom(evt,'out')"/>
                <use id="reset" xlink:href="#resetDef" x="30" y="36" onmousedown="handleReset()"/>
                <g id="arrowUp" xlink:href="#dirArrow" transform="translate(30 24)" onmousedown="handlePan(0,-1)">
                  <use xlink:href="#rim" fill="#404040">
                        <set attributeName="fill" to="#808080" begin="arrowUp.mouseover" end="arrowUp.mouseout"/>
                  </use>
                  <path fill="none" stroke="white" stroke-width="1.5" d="M0,-3.0v7 M-2.5,-0.5L0,-3.0L2.5,-0.5"/>
                </g>
                <g id="arrowRight" xlink:href="#dirArrow" transform="rotate(90) translate(36 -43)" onmousedown="handlePan(1,0)">
                  <use xlink:href="#rim" fill="#404040">
                        <set attributeName="fill" to="#808080" begin="arrowRight.mouseover" end="arrowRight.mouseout"/>
                  </use>
                  <path fill="none" stroke="white" stroke-width="1.5" d="M0,-3.0v7 M-2.5,-0.5L0,-3.0L2.5,-0.5"/>
                </g>
                <g id="arrowDown" xlink:href="#dirArrow" transform="rotate(180) translate(-30 -48)" onmousedown="handlePan(0,1)">
                  <use xlink:href="#rim" fill="#404040">
                        <set attributeName="fill" to="#808080" begin="arrowDown.mouseover" end="arrowDown.mouseout"/>
                  </use>
                  <path fill="none" stroke="white" stroke-width="1.5" d="M0,-3.0v7 M-2.5,-0.5L0,-3.0L2.5,-0.5"/>
                </g>
                <g id="arrowLeft" xlink:href="#dirArrow" transform="rotate(270) translate(-36 17)" onmousedown="handlePan(-1,0)">
                  <use xlink:href="#rim" fill="#404040">
                        <set attributeName="fill" to="#808080" begin="arrowLeft.mouseover" end="arrowLeft.mouseout"/>
                  </use>
                  <path fill="none" stroke="white" stroke-width="1.5" d="M0,-3.0v7 M-2.5,-0.5L0,-3.0L2.5,-0.5"/>
                </g>
        </g>
        <svg viewBox="0 0 15 15" width="100%" height="30px" preserveAspectRatio="xMaxYMin meet">
         <g id="arrow_out" transform="scale(0.3 0.3)">
          <a xlink:href="class_password_dialog_a1fd0289581d2b742470a3efae7db6154_cgraph_org.svg" target="_base">
           <rect id="button" ry="5" rx="5" y="6" x="6" height="38" width="38"
                fill="#f2f5e9" fill-opacity="0.5" stroke="#606060" stroke-width="1.0"/>
           <path id="arrow"
             d="M 11.500037,31.436501 C 11.940474,20.09759 22.043105,11.32322 32.158766,21.979434 L 37.068811,17.246167 C 37.068811,17.246167 37.088388,32 37.088388,32 L 22.160133,31.978069 C 22.160133,31.978069 26.997745,27.140456 26.997745,27.140456 C 18.528582,18.264221 13.291696,25.230495 11.500037,31.436501 z"
             style="fill:#404040;"/>
          </a>
         </g>
        </svg>
</svg>
