<?xml version="1.0" encoding="UTF-8" standalone="no"?>
<!DOCTYPE svg PUBLIC "-//W3C//DTD SVG 1.1//EN"
 "http://www.w3.org/Graphics/SVG/1.1/DTD/svg11.dtd">
<!-- Generated by graphviz version 2.49.3 (0)
 -->
<!-- Title: QtPassSettings::isAutoPull Pages: 1 -->
<svg width="451pt" height="82pt"
 viewBox="0.00 0.00 451.00 82.00" xmlns="http://www.w3.org/2000/svg" xmlns:xlink="http://www.w3.org/1999/xlink">
<g id="graph0" class="graph" transform="scale(1 1) rotate(0) translate(4 78)">
<title>QtPassSettings::isAutoPull</title>
<!-- Node1 -->
<g id="node1" class="node">
<title>Node1</title>
<g id="a_node1"><a xlink:title=" ">
<polygon fill="#999999" stroke="#666666" points="443,-55 307,-55 307,-36 443,-36 443,-55"/>
<text text-anchor="middle" x="375" y="-43" font-family="Helvetica,sans-Serif" font-size="10.00">QtPassSettings::isAutoPull</text>
</a>
</g>
</g>
<!-- Node2 -->
<g id="node2" class="node">
<title>Node2</title>
<g id="a_node2"><a xlink:href="class_config_dialog.html#a815d6d8ddf1de9386427ddef691a02a1" target="_top" xlink:title="ConfigDialog::ConfigDialog this sets up the configuration screen.">
<polygon fill="white" stroke="#666666" points="270,-74 135,-74 135,-55 270,-55 270,-74"/>
<text text-anchor="middle" x="202.5" y="-62" font-family="Helvetica,sans-Serif" font-size="10.00">ConfigDialog::ConfigDialog</text>
</a>
</g>
</g>
<!-- Node1&#45;&gt;Node2 -->
<g id="edge1" class="edge">
<title>Node1&#45;&gt;Node2</title>
<path fill="none" stroke="#63b8ff" d="M296.67,-54.12C287.81,-55.11 278.83,-56.11 270.12,-57.08"/>
<polygon fill="#63b8ff" stroke="#63b8ff" points="297.06,-57.6 306.61,-53.01 296.29,-50.64 297.06,-57.6"/>
</g>
<!-- Node3 -->
<g id="node3" class="node">
<title>Node3</title>
<g id="a_node3"><a xlink:href="class_imitate_pass.html#af331446d163c31f1fca714646c0f6244" target="_top" xlink:title="ImitatePass::reencryptPath reencrypt all files under the chosen directory.">
<polygon fill="white" stroke="#666666" points="271,-37 134,-37 134,-18 271,-18 271,-37"/>
<text text-anchor="middle" x="202.5" y="-25" font-family="Helvetica,sans-Serif" font-size="10.00">ImitatePass::reencryptPath</text>
</a>
</g>
</g>
<!-- Node1&#45;&gt;Node3 -->
<g id="edge2" class="edge">
<title>Node1&#45;&gt;Node3</title>
<path fill="none" stroke="#63b8ff" d="M296.43,-37.31C288.02,-36.42 279.51,-35.52 271.23,-34.65"/>
<polygon fill="#63b8ff" stroke="#63b8ff" points="296.3,-40.82 306.61,-38.39 297.04,-33.86 296.3,-40.82"/>
</g>
<!-- Node4 -->
<g id="node4" class="node">
<title>Node4</title>
<g id="a_node4"><a xlink:href="class_imitate_pass.html#a6db1849662fe03e61f9410fce080890d" target="_top" xlink:title=" ">
<polygon fill="white" stroke="#666666" points="98,-56 0,-56 0,-37 98,-37 98,-56"/>
<text text-anchor="middle" x="49" y="-44" font-family="Helvetica,sans-Serif" font-size="10.00">ImitatePass::Copy</text>
</a>
</g>
</g>
<!-- Node3&#45;&gt;Node4 -->
<g id="edge3" class="edge">
<title>Node3&#45;&gt;Node4</title>
<path fill="none" stroke="#63b8ff" d="M123.59,-37.27C114.94,-38.36 106.33,-39.44 98.21,-40.45"/>
<polygon fill="#63b8ff" stroke="#63b8ff" points="124.24,-40.72 133.73,-36 123.37,-33.77 124.24,-40.72"/>
</g>
<!-- Node5 -->
<g id="node5" class="node">
<title>Node5</title>
<g id="a_node5"><a xlink:href="class_imitate_pass.html#ada992297c21ae7069b91c9ae48f87ee9" target="_top" xlink:title="ImitatePass::Init initialize pass repository.">
<polygon fill="white" stroke="#666666" points="93.5,-19 4.5,-19 4.5,0 93.5,0 93.5,-19"/>
<text text-anchor="middle" x="49" y="-7" font-family="Helvetica,sans-Serif" font-size="10.00">ImitatePass::Init</text>
</a>
</g>
</g>
<!-- Node3&#45;&gt;Node5 -->
<g id="edge4" class="edge">
<title>Node3&#45;&gt;Node5</title>
<path fill="none" stroke="#63b8ff" d="M123.53,-18.24C113.32,-17.02 103.16,-15.82 93.8,-14.7"/>
<polygon fill="#63b8ff" stroke="#63b8ff" points="123.38,-21.74 133.73,-19.45 124.21,-14.79 123.38,-21.74"/>
</g>
</g>
</svg>
