<?xml version="1.0" encoding="UTF-8" standalone="no"?>
<!DOCTYPE svg PUBLIC "-//W3C//DTD SVG 1.1//EN"
 "http://www.w3.org/Graphics/SVG/1.1/DTD/svg11.dtd">
<!-- Generated by graphviz version 2.40.1 (20161225.0304)
 -->
<!-- Title: QtPassSettings::getGpgExecutable Pages: 1 -->
<!--zoomable 177 -->
<svg id="main" version="1.1" xmlns="http://www.w3.org/2000/svg" xmlns:xlink="http://www.w3.org/1999/xlink" xml:space="preserve" onload="init(evt)">
<style type="text/css"><![CDATA[
.edge:hover path { stroke: red; }
.edge:hover polygon { stroke: red; fill: red; }
]]></style>
<script type="text/javascript"><![CDATA[
var edges = document.getElementsByTagName('g');
if (edges && edges.length) {
  for (var i=0;i<edges.length;i++) {
    if (edges[i].id.substr(0,4)=='edge') {
      edges[i].setAttribute('class','edge');
    }
  }
}
]]></script>
        <defs>
                <circle id="rim" cx="0" cy="0" r="7"/>
                <circle id="rim2" cx="0" cy="0" r="3.5"/>
                <g id="zoomPlus">
                        <use xlink:href="#rim" fill="#404040">
                                <set attributeName="fill" to="#808080" begin="zoomplus.mouseover" end="zoomplus.mouseout"/>
                        </use>
                        <path d="M-4,0h8M0,-4v8" fill="none" stroke="white" stroke-width="1.5" pointer-events="none"/>
                </g>
                <g id="zoomMin">
                        <use xlink:href="#rim" fill="#404040">
                                <set attributeName="fill" to="#808080" begin="zoomminus.mouseover" end="zoomminus.mouseout"/>
                        </use>
                        <path d="M-4,0h8" fill="none" stroke="white" stroke-width="1.5" pointer-events="none"/>
                </g>
                <g id="dirArrow">
                        <path fill="none" stroke="white" stroke-width="1.5" d="M0,-3.0v7 M-2.5,-0.5L0,-3.0L2.5,-0.5"/>
                </g>
               <g id="resetDef">
                       <use xlink:href="#rim2" fill="#404040">
                               <set attributeName="fill" to="#808080" begin="reset.mouseover" end="reset.mouseout"/>
                       </use>
               </g>
        </defs>

<script type="text/javascript">
var viewWidth = 719;
var viewHeight = 177;
var sectionId = 'dynsection-15';
</script>
<script xlink:href="svgpan.js"/>
<svg id="graph" class="graph">
<g id="viewport">
<title>QtPassSettings::getGpgExecutable</title>
<!-- Node41 -->
<g id="node1" class="node">
<title>Node41</title>
<polygon fill="#bfbfbf" stroke="#000000" points="0,-75.5 0,-93.5 172.7578,-93.5 172.7578,-75.5 0,-75.5"/>
<text text-anchor="middle" x="86.3789" y="-81.5" font-family="Helvetica,sans-Serif" font-size="10.00" fill="#000000">QtPassSettings::getGpgExecutable</text>
</g>
<!-- Node42 -->
<g id="node2" class="node">
<title>Node42</title>
<g id="a_node2"><a xlink:href="class_config_dialog.html#a815d6d8ddf1de9386427ddef691a02a1" target="_top" xlink:title="ConfigDialog::ConfigDialog this sets up the configuration screen. ">
<polygon fill="none" stroke="#000000" points="402.4961,-38.5 402.4961,-56.5 538.5645,-56.5 538.5645,-38.5 402.4961,-38.5"/>
<text text-anchor="middle" x="470.5303" y="-44.5" font-family="Helvetica,sans-Serif" font-size="10.00" fill="#000000">ConfigDialog::ConfigDialog</text>
</a>
</g>
</g>
<!-- Node41&#45;&gt;Node42 -->
<g id="edge1" class="edge">
<title>Node41&#45;&gt;Node42</title>
<path fill="none" stroke="#191970" d="M183.2706,-79.7514C237.3071,-76.5591 305.7641,-71.6153 366.4961,-64.5 384.4002,-62.4024 403.9282,-59.4022 421.1799,-56.5045"/>
<polygon fill="#191970" stroke="#191970" points="182.7888,-76.2733 173.0084,-80.3469 183.1944,-83.2616 182.7888,-76.2733"/>
</g>
<!-- Node43 -->
<g id="node3" class="node">
<title>Node43</title>
<g id="a_node3"><a xlink:href="class_pass.html#a0c29f7bd4ca235d00d9dac6a37e14f4f" target="_top" xlink:title="Pass::GenerateGPGKeys internal gpg keypair generator . . ">
<polygon fill="none" stroke="#000000" points="222.6567,-150.5 222.6567,-168.5 352.5972,-168.5 352.5972,-150.5 222.6567,-150.5"/>
<text text-anchor="middle" x="287.627" y="-156.5" font-family="Helvetica,sans-Serif" font-size="10.00" fill="#000000">Pass::GenerateGPGKeys</text>
</a>
</g>
</g>
<!-- Node41&#45;&gt;Node43 -->
<g id="edge2" class="edge">
<title>Node41&#45;&gt;Node43</title>
<path fill="none" stroke="#191970" d="M111.857,-98.3089C136.1663,-111.0124 174.112,-129.6277 208.7578,-141.5 218.8553,-144.9602 229.9086,-147.9523 240.4601,-150.4493"/>
<polygon fill="#191970" stroke="#191970" points="113.413,-95.1726 102.9367,-93.5921 110.1409,-101.3607 113.413,-95.1726"/>
</g>
<!-- Node46 -->
<g id="node6" class="node">
<title>Node46</title>
<g id="a_node6"><a xlink:href="class_pass.html#ad1ded1699f4e47d871296a96eca5a3ea" target="_top" xlink:title="Pass::listKeys list users. ">
<polygon fill="none" stroke="#000000" points="248.5063,-113.5 248.5063,-131.5 326.7476,-131.5 326.7476,-113.5 248.5063,-113.5"/>
<text text-anchor="middle" x="287.627" y="-119.5" font-family="Helvetica,sans-Serif" font-size="10.00" fill="#000000">Pass::listKeys</text>
</a>
</g>
</g>
<!-- Node41&#45;&gt;Node46 -->
<g id="edge5" class="edge">
<title>Node41&#45;&gt;Node46</title>
<path fill="none" stroke="#191970" d="M144.1704,-95.4123C177.58,-101.7207 218.7348,-109.4917 248.384,-115.0901"/>
<polygon fill="#191970" stroke="#191970" points="144.5477,-91.9218 134.0719,-93.5055 143.2488,-98.8002 144.5477,-91.9218"/>
</g>
<!-- Node49 -->
<g id="node9" class="node">
<title>Node49</title>
<g id="a_node9"><a xlink:href="class_qt_pass_settings.html#a64ffdab0605be803054150d438254c56" target="_top" xlink:title="QtPassSettings::initExecutables">
<polygon fill="none" stroke="#000000" points="208.7578,-37.5 208.7578,-55.5 366.4961,-55.5 366.4961,-37.5 208.7578,-37.5"/>
<text text-anchor="middle" x="287.627" y="-43.5" font-family="Helvetica,sans-Serif" font-size="10.00" fill="#000000">QtPassSettings::initExecutables</text>
</a>
</g>
</g>
<!-- Node41&#45;&gt;Node49 -->
<g id="edge8" class="edge">
<title>Node41&#45;&gt;Node49</title>
<path fill="none" stroke="#191970" d="M144.0984,-73.6013C174.4497,-67.8703 211.2089,-60.9294 239.928,-55.5066"/>
<polygon fill="#191970" stroke="#191970" points="143.2488,-70.1998 134.0719,-75.4945 144.5477,-77.0782 143.2488,-70.1998"/>
</g>
<!-- Node50 -->
<g id="node10" class="node">
<title>Node50</title>
<g id="a_node10"><a xlink:href="class_util.html#a00c91095ca10b233e45eb643ff6097a4" target="_top" xlink:title="Util::checkConfig do we have prequisite settings? ">
<polygon fill="none" stroke="#000000" points="242.1123,-.5 242.1123,-18.5 333.1416,-18.5 333.1416,-.5 242.1123,-.5"/>
<text text-anchor="middle" x="287.627" y="-6.5" font-family="Helvetica,sans-Serif" font-size="10.00" fill="#000000">Util::checkConfig</text>
</a>
</g>
</g>
<!-- Node41&#45;&gt;Node50 -->
<g id="edge9" class="edge">
<title>Node41&#45;&gt;Node50</title>
<path fill="none" stroke="#191970" d="M111.857,-70.6911C136.1663,-57.9876 174.112,-39.3723 208.7578,-27.5 219.2539,-23.9032 230.7827,-20.8122 241.7072,-18.2573"/>
<polygon fill="#191970" stroke="#191970" points="110.1409,-67.6393 102.9367,-75.4079 113.413,-73.8274 110.1409,-67.6393"/>
</g>
<!-- Node44 -->
<g id="node4" class="node">
<title>Node44</title>
<g id="a_node4"><a xlink:href="class_qt_pass.html#abd1d1e8d6b80b8307a305d80a6c34371" target="_top" xlink:title="QtPass::setMainWindow">
<polygon fill="none" stroke="#000000" points="408.0674,-150.5 408.0674,-168.5 532.9932,-168.5 532.9932,-150.5 408.0674,-150.5"/>
<text text-anchor="middle" x="470.5303" y="-156.5" font-family="Helvetica,sans-Serif" font-size="10.00" fill="#000000">QtPass::setMainWindow</text>
</a>
</g>
</g>
<!-- Node43&#45;&gt;Node44 -->
<g id="edge3" class="edge">
<title>Node43&#45;&gt;Node44</title>
<path fill="none" stroke="#191970" d="M362.871,-159.5C377.8358,-159.5 393.3987,-159.5 407.8872,-159.5"/>
<polygon fill="#191970" stroke="#191970" points="362.6269,-156.0001 352.6268,-159.5 362.6268,-163.0001 362.6269,-156.0001"/>
</g>
<!-- Node45 -->
<g id="node5" class="node">
<title>Node45</title>
<g id="a_node5"><a xlink:href="class_main_window.html#a52e97245b2f88492071e639395c4a15a" target="_top" xlink:title="MainWindow::MainWindow handles all of the main functionality and also the main window. ">
<polygon fill="none" stroke="#000000" points="574.5645,-150.5 574.5645,-168.5 710.6035,-168.5 710.6035,-150.5 574.5645,-150.5"/>
<text text-anchor="middle" x="642.584" y="-156.5" font-family="Helvetica,sans-Serif" font-size="10.00" fill="#000000">MainWindow::MainWindow</text>
</a>
</g>
</g>
<!-- Node44&#45;&gt;Node45 -->
<g id="edge4" class="edge">
<title>Node44&#45;&gt;Node45</title>
<path fill="none" stroke="#191970" d="M543.3533,-159.5C553.6839,-159.5 564.2746,-159.5 574.5105,-159.5"/>
<polygon fill="#191970" stroke="#191970" points="543.1324,-156.0001 533.1323,-159.5 543.1323,-163.0001 543.1324,-156.0001"/>
</g>
<!-- Node47 -->
<g id="node7" class="node">
<title>Node47</title>
<g id="a_node7"><a xlink:href="class_pass.html#a451b0f52aa0332801252ae28665e29b3" target="_top" xlink:title="Pass::listKeys list users. ">
<polygon fill="none" stroke="#000000" points="431.4097,-113.5 431.4097,-131.5 509.6509,-131.5 509.6509,-113.5 431.4097,-113.5"/>
<text text-anchor="middle" x="470.5303" y="-119.5" font-family="Helvetica,sans-Serif" font-size="10.00" fill="#000000">Pass::listKeys</text>
</a>
</g>
</g>
<!-- Node46&#45;&gt;Node47 -->
<g id="edge6" class="edge">
<title>Node46&#45;&gt;Node47</title>
<path fill="none" stroke="#191970" d="M336.9988,-122.5C366.6176,-122.5 403.7673,-122.5 431.3578,-122.5"/>
<polygon fill="#191970" stroke="#191970" points="336.8643,-119.0001 326.8643,-122.5 336.8643,-126.0001 336.8643,-119.0001"/>
</g>
<!-- Node48 -->
<g id="node8" class="node">
<title>Node48</title>
<g id="a_node8"><a xlink:href="class_users_dialog.html#a7a3d75a01a48609ce7571cec09b95f07" target="_top" xlink:title="UsersDialog::UsersDialog basic constructor. ">
<polygon fill="none" stroke="#000000" points="405.2891,-76.5 405.2891,-94.5 535.7715,-94.5 535.7715,-76.5 405.2891,-76.5"/>
<text text-anchor="middle" x="470.5303" y="-82.5" font-family="Helvetica,sans-Serif" font-size="10.00" fill="#000000">UsersDialog::UsersDialog</text>
</a>
</g>
</g>
<!-- Node46&#45;&gt;Node48 -->
<g id="edge7" class="edge">
<title>Node46&#45;&gt;Node48</title>
<path fill="none" stroke="#191970" d="M336.7587,-112.561C364.5048,-106.9482 398.9183,-99.9866 425.8922,-94.53"/>
<polygon fill="#191970" stroke="#191970" points="335.9718,-109.1492 326.8643,-114.5626 337.3598,-116.0102 335.9718,-109.1492"/>
</g>
<!-- Node50&#45;&gt;Node42 -->
<g id="edge10" class="edge">
<title>Node50&#45;&gt;Node42</title>
<path fill="none" stroke="#191970" d="M340.806,-20.5485C368.2502,-26.2503 401.3051,-33.1178 427.1793,-38.4934"/>
<polygon fill="#191970" stroke="#191970" points="341.4754,-17.1129 330.9725,-18.5055 340.0514,-23.9665 341.4754,-17.1129"/>
</g>
<!-- Node51 -->
<g id="node11" class="node">
<title>Node51</title>
<g id="a_node11"><a xlink:href="class_main_window.html#aeb8091ab5531144b76c1fbb0d63deb56" target="_top" xlink:title="MainWindow::config pops up the configuration screen and handles all inter&#45;window communication. ">
<polygon fill="none" stroke="#000000" points="417.7891,-.5 417.7891,-18.5 523.2715,-18.5 523.2715,-.5 417.7891,-.5"/>
<text text-anchor="middle" x="470.5303" y="-6.5" font-family="Helvetica,sans-Serif" font-size="10.00" fill="#000000">MainWindow::config</text>
</a>
</g>
</g>
<!-- Node50&#45;&gt;Node51 -->
<g id="edge11" class="edge">
<title>Node50&#45;&gt;Node51</title>
<path fill="none" stroke="#191970" d="M343.5079,-9.5C367.0906,-9.5 394.4117,-9.5 417.6597,-9.5"/>
<polygon fill="#191970" stroke="#191970" points="343.3094,-6.0001 333.3094,-9.5 343.3093,-13.0001 343.3094,-6.0001"/>
</g>
</g>
</svg>
        <g id="navigator" transform="translate(0 0)" fill="#404254">
                <rect fill="#f2f5e9" fill-opacity="0.5" stroke="#606060" stroke-width=".5" x="0" y="0" width="60" height="60"/>
                <use id="zoomplus" xlink:href="#zoomPlus" x="17" y="9" onmousedown="handleZoom(evt,'in')"/>
                <use id="zoomminus" xlink:href="#zoomMin" x="42" y="9" onmousedown="handleZoom(evt,'out')"/>
                <use id="reset" xlink:href="#resetDef" x="30" y="36" onmousedown="handleReset()"/>
                <g id="arrowUp" xlink:href="#dirArrow" transform="translate(30 24)" onmousedown="handlePan(0,-1)">
                  <use xlink:href="#rim" fill="#404040">
                        <set attributeName="fill" to="#808080" begin="arrowUp.mouseover" end="arrowUp.mouseout"/>
                  </use>
                  <path fill="none" stroke="white" stroke-width="1.5" d="M0,-3.0v7 M-2.5,-0.5L0,-3.0L2.5,-0.5"/>
                </g>
                <g id="arrowRight" xlink:href="#dirArrow" transform="rotate(90) translate(36 -43)" onmousedown="handlePan(1,0)">
                  <use xlink:href="#rim" fill="#404040">
                        <set attributeName="fill" to="#808080" begin="arrowRight.mouseover" end="arrowRight.mouseout"/>
                  </use>
                  <path fill="none" stroke="white" stroke-width="1.5" d="M0,-3.0v7 M-2.5,-0.5L0,-3.0L2.5,-0.5"/>
                </g>
                <g id="arrowDown" xlink:href="#dirArrow" transform="rotate(180) translate(-30 -48)" onmousedown="handlePan(0,1)">
                  <use xlink:href="#rim" fill="#404040">
                        <set attributeName="fill" to="#808080" begin="arrowDown.mouseover" end="arrowDown.mouseout"/>
                  </use>
                  <path fill="none" stroke="white" stroke-width="1.5" d="M0,-3.0v7 M-2.5,-0.5L0,-3.0L2.5,-0.5"/>
                </g>
                <g id="arrowLeft" xlink:href="#dirArrow" transform="rotate(270) translate(-36 17)" onmousedown="handlePan(-1,0)">
                  <use xlink:href="#rim" fill="#404040">
                        <set attributeName="fill" to="#808080" begin="arrowLeft.mouseover" end="arrowLeft.mouseout"/>
                  </use>
                  <path fill="none" stroke="white" stroke-width="1.5" d="M0,-3.0v7 M-2.5,-0.5L0,-3.0L2.5,-0.5"/>
                </g>
        </g>
        <svg viewBox="0 0 15 15" width="100%" height="30px" preserveAspectRatio="xMaxYMin meet">
         <g id="arrow_out" transform="scale(0.3 0.3)">
          <a xlink:href="class_qt_pass_settings_a92b674cdafc03000c808bff5fab93249_icgraph_org.svg" target="_base">
           <rect id="button" ry="5" rx="5" y="6" x="6" height="38" width="38"
                fill="#f2f5e9" fill-opacity="0.5" stroke="#606060" stroke-width="1.0"/>
           <path id="arrow"
             d="M 11.500037,31.436501 C 11.940474,20.09759 22.043105,11.32322 32.158766,21.979434 L 37.068811,17.246167 C 37.068811,17.246167 37.088388,32 37.088388,32 L 22.160133,31.978069 C 22.160133,31.978069 26.997745,27.140456 26.997745,27.140456 C 18.528582,18.264221 13.291696,25.230495 11.500037,31.436501 z"
             style="fill:#404040;"/>
          </a>
         </g>
        </svg>
</svg>
