<?xml version="1.0" encoding="UTF-8" standalone="no"?>
<!DOCTYPE svg PUBLIC "-//W3C//DTD SVG 1.1//EN"
 "http://www.w3.org/Graphics/SVG/1.1/DTD/svg11.dtd">
<!-- Generated by graphviz version 2.43.0 (0)
 -->
<!-- Title: ImitatePass::GitCommit Pages: 1 -->
<svg width="684pt" height="104pt"
 viewBox="0.00 0.00 684.00 104.00" xmlns="http://www.w3.org/2000/svg" xmlns:xlink="http://www.w3.org/1999/xlink">
<g id="graph0" class="graph" transform="scale(1 1) rotate(0) translate(4 100)">
<title>ImitatePass::GitCommit</title>
<!-- Node1 -->
<g id="Node000001" class="node">
<title>Node1</title>
<g id="a_Node000001"><a xlink:title="ImitatePass::GitCommit commit a file to git with an appropriate commit message.">
<polygon fill="#999999" stroke="#666666" points="133,-37 0,-37 0,-18 133,-18 133,-37"/>
<text text-anchor="middle" x="66.5" y="-25" font-family="Helvetica,sans-Serif" font-size="10.00">ImitatePass::GitCommit</text>
</a>
</g>
</g>
<!-- Node2 -->
<g id="Node000002" class="node">
<title>Node2</title>
<g id="a_Node000002"><a xlink:href="class_imitate_pass.html#a6f9682c6103b112a9aa844df7ef6a273" target="_top" xlink:title="ImitatePass::executeGit easy wrapper for running git commands.">
<polygon fill="white" stroke="#666666" points="301,-37 169,-37 169,-18 301,-18 301,-37"/>
<text text-anchor="middle" x="235" y="-25" font-family="Helvetica,sans-Serif" font-size="10.00">ImitatePass::executeGit</text>
</a>
</g>
</g>
<!-- Node1&#45;&gt;Node2 -->
<g id="edge1_Node000001_Node000002" class="edge">
<title>Node1&#45;&gt;Node2</title>
<g id="a_edge1_Node000001_Node000002"><a xlink:title=" ">
<path fill="none" stroke="#63b8ff" d="M133.31,-27.5C141.64,-27.5 150.22,-27.5 158.69,-27.5"/>
<polygon fill="#63b8ff" stroke="#63b8ff" points="158.94,-31 168.94,-27.5 158.94,-24 158.94,-31"/>
</a>
</g>
</g>
<!-- Node3 -->
<g id="Node000003" class="node">
<title>Node3</title>
<g id="a_Node000003"><a xlink:href="class_imitate_pass.html#aa2ade77096c04fb94536d675bfaae8fe" target="_top" xlink:title="executeWrapper overrided so that every execution is a transaction">
<polygon fill="white" stroke="#666666" points="506,-56 347,-56 347,-37 506,-37 506,-56"/>
<text text-anchor="middle" x="426.5" y="-44" font-family="Helvetica,sans-Serif" font-size="10.00">ImitatePass::executeWrapper</text>
</a>
</g>
</g>
<!-- Node2&#45;&gt;Node3 -->
<g id="edge2_Node000002_Node000003" class="edge">
<title>Node2&#45;&gt;Node3</title>
<g id="a_edge2_Node000002_Node000003"><a xlink:title=" ">
<path fill="none" stroke="#63b8ff" d="M301.22,-34.04C312.67,-35.19 324.77,-36.4 336.74,-37.6"/>
<polygon fill="#63b8ff" stroke="#63b8ff" points="336.45,-41.09 346.75,-38.6 337.15,-34.12 336.45,-41.09"/>
</a>
</g>
</g>
<!-- Node6 -->
<g id="Node000006" class="node">
<title>Node6</title>
<g id="a_Node000006"><a xlink:href="class_qt_pass_settings.html#af6dc725440e9961c39fbd6f567749d82" target="_top" xlink:title=" ">
<polygon fill="white" stroke="#666666" points="516,-19 337,-19 337,0 516,0 516,-19"/>
<text text-anchor="middle" x="426.5" y="-7" font-family="Helvetica,sans-Serif" font-size="10.00">QtPassSettings::getGitExecutable</text>
</a>
</g>
</g>
<!-- Node2&#45;&gt;Node6 -->
<g id="edge6_Node000002_Node000006" class="edge">
<title>Node2&#45;&gt;Node6</title>
<g id="a_edge6_Node000002_Node000006"><a xlink:title=" ">
<path fill="none" stroke="#63b8ff" d="M301.22,-21.31C309.45,-20.52 318.01,-19.71 326.62,-18.89"/>
<polygon fill="#63b8ff" stroke="#63b8ff" points="327.11,-22.36 336.73,-17.93 326.45,-15.39 327.11,-22.36"/>
</a>
</g>
</g>
<!-- Node4 -->
<g id="Node000004" class="node">
<title>Node4</title>
<g id="a_Node000004"><a xlink:href="class_pass.html#a66f59138ffe856fd421410d9af9ddc62" target="_top" xlink:title=" ">
<polygon fill="white" stroke="#666666" points="676,-78 552,-78 552,-59 676,-59 676,-78"/>
<text text-anchor="middle" x="614" y="-66" font-family="Helvetica,sans-Serif" font-size="10.00">Pass::executeWrapper</text>
</a>
</g>
</g>
<!-- Node3&#45;&gt;Node4 -->
<g id="edge3_Node000003_Node000004" class="edge">
<title>Node3&#45;&gt;Node4</title>
<g id="a_edge3_Node000003_Node000004"><a xlink:title=" ">
<path fill="none" stroke="#63b8ff" d="M506.17,-55.83C518.01,-57.23 530.16,-58.68 541.83,-60.06"/>
<polygon fill="#63b8ff" stroke="#63b8ff" points="541.59,-63.56 551.94,-61.26 542.42,-56.6 541.59,-63.56"/>
</a>
</g>
</g>
<!-- Node5 -->
<g id="Node000005" class="node">
<title>Node5</title>
<g id="a_Node000005"><a xlink:href="classsimple_transaction.html#a974db4056edcb408e96cf9bc2a6e4326" target="_top" xlink:title="transactionAdd If called after call to transactionStart() and before transactionEnd(),...">
<polygon fill="white" stroke="#666666" points="669.5,-40.5 558.5,-40.5 558.5,-10.5 669.5,-10.5 669.5,-40.5"/>
<text text-anchor="start" x="566.5" y="-28.5" font-family="Helvetica,sans-Serif" font-size="10.00">simpleTransaction::</text>
<text text-anchor="middle" x="614" y="-17.5" font-family="Helvetica,sans-Serif" font-size="10.00">transactionAdd</text>
</a>
</g>
</g>
<!-- Node3&#45;&gt;Node5 -->
<g id="edge5_Node000003_Node000005" class="edge">
<title>Node3&#45;&gt;Node5</title>
<g id="a_edge5_Node000003_Node000005"><a xlink:title=" ">
<path fill="none" stroke="#63b8ff" d="M506.17,-37.59C520.18,-36.01 534.62,-34.37 548.19,-32.84"/>
<polygon fill="#63b8ff" stroke="#63b8ff" points="548.82,-36.29 558.37,-31.68 548.04,-29.33 548.82,-36.29"/>
</a>
</g>
</g>
<!-- Node4&#45;&gt;Node4 -->
<g id="edge4_Node000004_Node000004" class="edge">
<title>Node4&#45;&gt;Node4</title>
<g id="a_edge4_Node000004_Node000004"><a xlink:title=" ">
<path fill="none" stroke="#63b8ff" d="M585.33,-78.08C571.39,-86.73 580.94,-96 614,-96 636.73,-96 648.35,-91.62 648.86,-86.07"/>
<polygon fill="#63b8ff" stroke="#63b8ff" points="651.56,-83.84 642.67,-78.08 646.03,-88.13 651.56,-83.84"/>
</a>
</g>
</g>
</g>
</svg>
