<?xml version="1.0" encoding="UTF-8" standalone="no"?>
<!DOCTYPE svg PUBLIC "-//W3C//DTD SVG 1.1//EN"
 "http://www.w3.org/Graphics/SVG/1.1/DTD/svg11.dtd">
<!-- Generated by graphviz version 2.40.1 (20161225.0304)
 -->
<!-- Title: QProgressIndicator::animationDelay Pages: 1 -->
<svg width="282pt" height="84pt"
 viewBox="0.00 0.00 282.22 84.00" xmlns="http://www.w3.org/2000/svg" xmlns:xlink="http://www.w3.org/1999/xlink">
<g id="graph0" class="graph" transform="scale(1 1) rotate(0) translate(4 80)">
<title>QProgressIndicator::animationDelay</title>
<!-- Node2 -->
<g id="node1" class="node">
<title>Node2</title>
<polygon fill="#bfbfbf" stroke="#000000" points="0,-23.5 0,-51.5 102.1475,-51.5 102.1475,-23.5 0,-23.5"/>
<text text-anchor="start" x="8" y="-39.5" font-family="Helvetica,sans-Serif" font-size="10.00" fill="#000000">QProgressIndicator</text>
<text text-anchor="middle" x="51.0737" y="-29.5" font-family="Helvetica,sans-Serif" font-size="10.00" fill="#000000">::animationDelay</text>
</g>
<!-- Node3 -->
<g id="node2" class="node">
<title>Node3</title>
<g id="a_node2"><a xlink:href="class_q_progress_indicator.html#aa145f555e2d7c48ecdd1517a7addf080" target="_top" xlink:title="Returns a Boolean value indicating whether the component is currently animated. ">
<polygon fill="none" stroke="#000000" points="155.1079,-47.5 155.1079,-75.5 257.2554,-75.5 257.2554,-47.5 155.1079,-47.5"/>
<text text-anchor="start" x="163.1079" y="-63.5" font-family="Helvetica,sans-Serif" font-size="10.00" fill="#000000">QProgressIndicator</text>
<text text-anchor="middle" x="206.1816" y="-53.5" font-family="Helvetica,sans-Serif" font-size="10.00" fill="#000000">::isAnimated</text>
</a>
</g>
</g>
<!-- Node2&#45;&gt;Node3 -->
<g id="edge1" class="edge">
<title>Node2&#45;&gt;Node3</title>
<path fill="none" stroke="#191970" d="M102.2917,-45.425C115.925,-47.5345 130.7904,-49.8346 144.9028,-52.0183"/>
<polygon fill="#191970" stroke="#191970" points="144.5998,-55.513 155.0174,-53.5833 145.6702,-48.5953 144.5998,-55.513"/>
</g>
<!-- Node4 -->
<g id="node3" class="node">
<title>Node4</title>
<g id="a_node3"><a xlink:href="class_q_progress_indicator.html#a46ab1d0b77a96eea451e27c43e020286" target="_top" xlink:title="Returns a Boolean value indicating whether the receiver shows itself even when it is not animating...">
<polygon fill="none" stroke="#000000" points="138.1475,-.5 138.1475,-28.5 274.2158,-28.5 274.2158,-.5 138.1475,-.5"/>
<text text-anchor="start" x="146.1475" y="-16.5" font-family="Helvetica,sans-Serif" font-size="10.00" fill="#000000">QProgressIndicator</text>
<text text-anchor="middle" x="206.1816" y="-6.5" font-family="Helvetica,sans-Serif" font-size="10.00" fill="#000000">::isDisplayedWhenStopped</text>
</a>
</g>
</g>
<!-- Node2&#45;&gt;Node4 -->
<g id="edge2" class="edge">
<title>Node2&#45;&gt;Node4</title>
<path fill="none" stroke="#191970" d="M102.2917,-29.9052C110.6264,-28.6693 119.4215,-27.3651 128.2236,-26.0599"/>
<polygon fill="#191970" stroke="#191970" points="128.7618,-29.5185 138.1402,-24.5894 127.735,-22.5942 128.7618,-29.5185"/>
</g>
</g>
</svg>
