<?xml version="1.0" encoding="UTF-8" standalone="no"?>
<!DOCTYPE svg PUBLIC "-//W3C//DTD SVG 1.1//EN"
 "http://www.w3.org/Graphics/SVG/1.1/DTD/svg11.dtd">
<!-- Generated by graphviz version 2.42.3 (20191010.1750)
 -->
<!-- Title: Pass::listKeys Pages: 1 -->
<svg width="473pt" height="64pt"
 viewBox="0.00 0.00 473.18 64.00" xmlns="http://www.w3.org/2000/svg" xmlns:xlink="http://www.w3.org/1999/xlink">
<g id="graph0" class="graph" transform="scale(1 1) rotate(0) translate(4 60)">
<title>Pass::listKeys</title>
<!-- Node1 -->
<g id="node1" class="node">
<title>Node1</title>
<g id="a_node1"><a xlink:title="Pass::listKeys list users.">
<polygon fill="#bfbfbf" stroke="black" points="0,-18.5 0,-36.5 78.24,-36.5 78.24,-18.5 0,-18.5"/>
<text text-anchor="middle" x="39.12" y="-24.5" font-family="Helvetica,sans-Serif" font-size="10.00">Pass::listKeys</text>
</a>
</g>
</g>
<!-- Node2 -->
<g id="node2" class="node">
<title>Node2</title>
<g id="a_node2"><a xlink:href="class_executor.html#a65a32a439c0a531e4553cab015061f2f" target="_top" xlink:title="Executor::executeBlocking blocking version of the executor, takes input and presents it as stdin.">
<polygon fill="none" stroke="black" points="133.7,-37.5 133.7,-55.5 267.54,-55.5 267.54,-37.5 133.7,-37.5"/>
<text text-anchor="middle" x="200.62" y="-43.5" font-family="Helvetica,sans-Serif" font-size="10.00">Executor::executeBlocking</text>
</a>
</g>
</g>
<!-- Node1&#45;&gt;Node2 -->
<g id="edge1" class="edge">
<title>Node1&#45;&gt;Node2</title>
<path fill="none" stroke="midnightblue" d="M78.32,-32.05C91.93,-33.67 107.78,-35.56 123.44,-37.43"/>
<polygon fill="midnightblue" stroke="midnightblue" points="123.34,-40.94 133.68,-38.65 124.17,-33.99 123.34,-40.94"/>
</g>
<!-- Node3 -->
<g id="node3" class="node">
<title>Node3</title>
<g id="a_node3"><a xlink:href="class_qt_pass_settings.html#a92b674cdafc03000c808bff5fab93249" target="_top" xlink:title=" ">
<polygon fill="none" stroke="black" points="114.24,-0.5 114.24,-18.5 287,-18.5 287,-0.5 114.24,-0.5"/>
<text text-anchor="middle" x="200.62" y="-6.5" font-family="Helvetica,sans-Serif" font-size="10.00">QtPassSettings::getGpgExecutable</text>
</a>
</g>
</g>
<!-- Node1&#45;&gt;Node3 -->
<g id="edge2" class="edge">
<title>Node1&#45;&gt;Node3</title>
<path fill="none" stroke="midnightblue" d="M78.32,-23.19C87.92,-22.11 98.63,-20.9 109.6,-19.66"/>
<polygon fill="midnightblue" stroke="midnightblue" points="110.19,-23.12 119.73,-18.52 109.4,-16.16 110.19,-23.12"/>
</g>
<!-- Node4 -->
<g id="node4" class="node">
<title>Node4</title>
<g id="a_node4"><a xlink:href="class_qt_pass_settings.html#ab83659fdbfb9069942e6982076b4b934" target="_top" xlink:title=" ">
<polygon fill="none" stroke="black" points="323,-0.5 323,-18.5 465.18,-18.5 465.18,-0.5 323,-0.5"/>
<text text-anchor="middle" x="394.09" y="-6.5" font-family="Helvetica,sans-Serif" font-size="10.00">QtPassSettings::getInstance</text>
</a>
</g>
</g>
<!-- Node3&#45;&gt;Node4 -->
<g id="edge3" class="edge">
<title>Node3&#45;&gt;Node4</title>
<path fill="none" stroke="midnightblue" d="M287.27,-9.5C295.7,-9.5 304.23,-9.5 312.6,-9.5"/>
<polygon fill="midnightblue" stroke="midnightblue" points="312.71,-13 322.71,-9.5 312.71,-6 312.71,-13"/>
</g>
</g>
</svg>
