<?xml version="1.0" encoding="UTF-8" standalone="no"?>
<!DOCTYPE svg PUBLIC "-//W3C//DTD SVG 1.1//EN"
 "http://www.w3.org/Graphics/SVG/1.1/DTD/svg11.dtd">
<!-- Generated by graphviz version 2.40.1 (20161225.0304)
 -->
<!-- Title: ImitatePass::Insert Pages: 1 -->
<svg width="622pt" height="27pt"
 viewBox="0.00 0.00 622.44 27.00" xmlns="http://www.w3.org/2000/svg" xmlns:xlink="http://www.w3.org/1999/xlink">
<g id="graph0" class="graph" transform="scale(1 1) rotate(0) translate(4 23)">
<title>ImitatePass::Insert</title>
<!-- Node37 -->
<g id="node1" class="node">
<title>Node37</title>
<polygon fill="#bfbfbf" stroke="#000000" points="0,-.5 0,-18.5 98.8076,-18.5 98.8076,-.5 0,-.5"/>
<text text-anchor="middle" x="49.4038" y="-6.5" font-family="Helvetica,sans-Serif" font-size="10.00" fill="#000000">ImitatePass::Insert</text>
</g>
<!-- Node38 -->
<g id="node2" class="node">
<title>Node38</title>
<g id="a_node2"><a xlink:href="class_pass.html#a6c5400e104ade2f41c8d4a41fc0b4f4e" target="_top" xlink:title="Pass::getRecipientList return list of gpg&#45;id&#39;s to encrypt for. ">
<polygon fill="none" stroke="#000000" points="134.8076,-.5 134.8076,-18.5 249.748,-18.5 249.748,-.5 134.8076,-.5"/>
<text text-anchor="middle" x="192.2778" y="-6.5" font-family="Helvetica,sans-Serif" font-size="10.00" fill="#000000">Pass::getRecipientList</text>
</a>
</g>
</g>
<!-- Node37&#45;&gt;Node38 -->
<g id="edge1" class="edge">
<title>Node37&#45;&gt;Node38</title>
<path fill="none" stroke="#191970" d="M98.9732,-9.5C107.1991,-9.5 115.8531,-9.5 124.4377,-9.5"/>
<polygon fill="#191970" stroke="#191970" points="124.4535,-13.0001 134.4535,-9.5 124.4535,-6.0001 124.4535,-13.0001"/>
</g>
<!-- Node39 -->
<g id="node3" class="node">
<title>Node39</title>
<g id="a_node3"><a xlink:href="class_qt_pass_settings.html#abb8c53443d71181a3ecd6545464453e6" target="_top" xlink:title="QtPassSettings::getPassStore">
<polygon fill="none" stroke="#000000" points="285.748,-.5 285.748,-18.5 436.2598,-18.5 436.2598,-.5 285.748,-.5"/>
<text text-anchor="middle" x="361.0039" y="-6.5" font-family="Helvetica,sans-Serif" font-size="10.00" fill="#000000">QtPassSettings::getPassStore</text>
</a>
</g>
</g>
<!-- Node38&#45;&gt;Node39 -->
<g id="edge2" class="edge">
<title>Node38&#45;&gt;Node39</title>
<path fill="none" stroke="#191970" d="M249.8719,-9.5C258.1058,-9.5 266.7193,-9.5 275.3508,-9.5"/>
<polygon fill="#191970" stroke="#191970" points="275.4701,-13.0001 285.4701,-9.5 275.47,-6.0001 275.4701,-13.0001"/>
</g>
<!-- Node40 -->
<g id="node4" class="node">
<title>Node40</title>
<g id="a_node4"><a xlink:href="class_qt_pass_settings.html#ab83659fdbfb9069942e6982076b4b934" target="_top" xlink:title="QtPassSettings::getInstance">
<polygon fill="none" stroke="#000000" points="472.2598,-.5 472.2598,-18.5 614.4414,-18.5 614.4414,-.5 472.2598,-.5"/>
<text text-anchor="middle" x="543.3506" y="-6.5" font-family="Helvetica,sans-Serif" font-size="10.00" fill="#000000">QtPassSettings::getInstance</text>
</a>
</g>
</g>
<!-- Node39&#45;&gt;Node40 -->
<g id="edge3" class="edge">
<title>Node39&#45;&gt;Node40</title>
<path fill="none" stroke="#191970" d="M436.4875,-9.5C444.8463,-9.5 453.3864,-9.5 461.8155,-9.5"/>
<polygon fill="#191970" stroke="#191970" points="462.0223,-13.0001 472.0222,-9.5 462.0222,-6.0001 462.0223,-13.0001"/>
</g>
</g>
</svg>
