<?xml version="1.0" encoding="UTF-8" standalone="no"?>
<!DOCTYPE svg PUBLIC "-//W3C//DTD SVG 1.1//EN"
 "http://www.w3.org/Graphics/SVG/1.1/DTD/svg11.dtd">
<!-- Generated by graphviz version 2.40.1 (20161225.0304)
 -->
<!-- Title: MainWindow::setUiElementsEnabled Pages: 1 -->
<svg width="626pt" height="259pt"
 viewBox="0.00 0.00 626.00 259.40" xmlns="http://www.w3.org/2000/svg" xmlns:xlink="http://www.w3.org/1999/xlink">
<g id="graph0" class="graph" transform="scale(1 1) rotate(0) translate(4 255.404)">
<title>MainWindow::setUiElementsEnabled</title>
<!-- Node382 -->
<g id="node1" class="node">
<title>Node382</title>
<polygon fill="#bfbfbf" stroke="#000000" points="0,-109 0,-139 143,-139 143,-109 0,-109"/>
<text text-anchor="start" x="8" y="-127" font-family="Helvetica,sans-Serif" font-size="10.00" fill="#000000">MainWindow::setUiElements</text>
<text text-anchor="middle" x="71.5" y="-116" font-family="Helvetica,sans-Serif" font-size="10.00" fill="#000000">Enabled</text>
</g>
<!-- Node383 -->
<g id="node2" class="node">
<title>Node383</title>
<g id="a_node2"><a xlink:href="class_main_window.html#a52e97245b2f88492071e639395c4a15a" target="_top" xlink:title="MainWindow::MainWindow handles all of the main functionality and also the main window. ">
<polygon fill="none" stroke="#000000" points="483,-177.5 483,-196.5 618,-196.5 618,-177.5 483,-177.5"/>
<text text-anchor="middle" x="550.5" y="-184.5" font-family="Helvetica,sans-Serif" font-size="10.00" fill="#000000">MainWindow::MainWindow</text>
</a>
</g>
</g>
<!-- Node382&#45;&gt;Node383 -->
<g id="edge1" class="edge">
<title>Node382&#45;&gt;Node383</title>
<path fill="none" stroke="#191970" d="M86.6153,-147.5909C104.8797,-173.6634 138.2852,-214.1909 179,-231 303.5673,-282.4275 470.2697,-221.5788 528.9633,-196.677"/>
<polygon fill="#191970" stroke="#191970" points="89.3153,-145.337 80.7992,-139.0341 83.526,-149.2721 89.3153,-145.337"/>
</g>
<!-- Node384 -->
<g id="node3" class="node">
<title>Node384</title>
<g id="a_node3"><a xlink:href="class_main_window.html#a3550b28be1344cf5c012af794dce8c64" target="_top" xlink:title="MainWindow::executeWrapper\lStarted">
<polygon fill="none" stroke="#000000" points="186,-191 186,-221 336,-221 336,-191 186,-191"/>
<text text-anchor="start" x="194" y="-209" font-family="Helvetica,sans-Serif" font-size="10.00" fill="#000000">MainWindow::executeWrapper</text>
<text text-anchor="middle" x="261" y="-198" font-family="Helvetica,sans-Serif" font-size="10.00" fill="#000000">Started</text>
</a>
</g>
</g>
<!-- Node382&#45;&gt;Node384 -->
<g id="edge2" class="edge">
<title>Node382&#45;&gt;Node384</title>
<path fill="none" stroke="#191970" d="M109.7464,-143.6505C130.0892,-153.8084 155.6576,-166.1136 179,-176 191.2835,-181.2026 204.8116,-186.3733 217.2771,-190.9193"/>
<polygon fill="#191970" stroke="#191970" points="111.3008,-140.5146 100.7941,-139.1509 108.1572,-146.769 111.3008,-140.5146"/>
</g>
<!-- Node385 -->
<g id="node4" class="node">
<title>Node385</title>
<g id="a_node4"><a xlink:href="class_qt_pass.html#a49e2861160fdb8d614231933f60fac47" target="_top" xlink:title="QtPass::init make sure we are ready to go as soon as possible. ">
<polygon fill="none" stroke="#000000" points="379,-114.5 379,-133.5 447,-133.5 447,-114.5 379,-114.5"/>
<text text-anchor="middle" x="413" y="-121.5" font-family="Helvetica,sans-Serif" font-size="10.00" fill="#000000">QtPass::init</text>
</a>
</g>
</g>
<!-- Node382&#45;&gt;Node385 -->
<g id="edge13" class="edge">
<title>Node382&#45;&gt;Node385</title>
<path fill="none" stroke="#191970" d="M153.3547,-139.9934C161.9859,-141.2226 170.6544,-142.2682 179,-143 251.6102,-149.3674 270.7502,-152.6311 343,-143 356.9799,-141.1364 372.1259,-137.2668 384.7417,-133.503"/>
<polygon fill="#191970" stroke="#191970" points="153.6707,-136.5016 143.2611,-138.474 152.6286,-143.4236 153.6707,-136.5016"/>
</g>
<!-- Node386 -->
<g id="node5" class="node">
<title>Node386</title>
<g id="a_node5"><a xlink:href="class_main_window.html#a0d75695e555bac7331e1ea22bc3159df" target="_top" xlink:title="MainWindow::passShowHandler">
<polygon fill="none" stroke="#000000" points="182,-114.5 182,-133.5 340,-133.5 340,-114.5 182,-114.5"/>
<text text-anchor="middle" x="261" y="-121.5" font-family="Helvetica,sans-Serif" font-size="10.00" fill="#000000">MainWindow::passShowHandler</text>
</a>
</g>
</g>
<!-- Node382&#45;&gt;Node386 -->
<g id="edge5" class="edge">
<title>Node382&#45;&gt;Node386</title>
<path fill="none" stroke="#191970" d="M153.3539,-124C162.8457,-124 172.5134,-124 181.9664,-124"/>
<polygon fill="#191970" stroke="#191970" points="153.1419,-120.5001 143.1418,-124 153.1418,-127.5001 153.1419,-120.5001"/>
</g>
<!-- Node387 -->
<g id="node6" class="node">
<title>Node387</title>
<g id="a_node6"><a xlink:href="class_main_window.html#a7997fd865548c3baa51f1863bb8fdfa0" target="_top" xlink:title="MainWindow::passOtpHandler">
<polygon fill="none" stroke="#000000" points="186.5,-76.5 186.5,-95.5 335.5,-95.5 335.5,-76.5 186.5,-76.5"/>
<text text-anchor="middle" x="261" y="-83.5" font-family="Helvetica,sans-Serif" font-size="10.00" fill="#000000">MainWindow::passOtpHandler</text>
</a>
</g>
</g>
<!-- Node382&#45;&gt;Node387 -->
<g id="edge7" class="edge">
<title>Node382&#45;&gt;Node387</title>
<path fill="none" stroke="#191970" d="M153.1486,-107.6272C173.7056,-103.5049 195.1014,-99.2145 213.3646,-95.5522"/>
<polygon fill="#191970" stroke="#191970" points="152.2585,-104.2359 143.1418,-109.6338 153.6348,-111.0993 152.2585,-104.2359"/>
</g>
<!-- Node388 -->
<g id="node7" class="node">
<title>Node388</title>
<g id="a_node7"><a xlink:href="class_main_window.html#a02ec9927bda826675653c0af916c8f33" target="_top" xlink:title="MainWindow::startReencryptPath disable ui elements and treeview. ">
<polygon fill="none" stroke="#000000" points="179,-38.5 179,-57.5 343,-57.5 343,-38.5 179,-38.5"/>
<text text-anchor="middle" x="261" y="-45.5" font-family="Helvetica,sans-Serif" font-size="10.00" fill="#000000">MainWindow::startReencryptPath</text>
</a>
</g>
</g>
<!-- Node382&#45;&gt;Node388 -->
<g id="edge9" class="edge">
<title>Node382&#45;&gt;Node388</title>
<path fill="none" stroke="#191970" d="M104.1549,-103.8172C124.9442,-91.7016 152.7995,-76.7907 179,-67 188.9928,-63.2659 199.9543,-60.1164 210.5196,-57.5218"/>
<polygon fill="#191970" stroke="#191970" points="102.2421,-100.8821 95.418,-108.9866 105.8066,-106.9066 102.2421,-100.8821"/>
</g>
<!-- Node389 -->
<g id="node8" class="node">
<title>Node389</title>
<g id="a_node8"><a xlink:href="class_main_window.html#a201fc73a7db0d404e8fd49f818696eba" target="_top" xlink:title="MainWindow::endReencryptPath re&#45;enable ui elements. ">
<polygon fill="none" stroke="#000000" points="181,-.5 181,-19.5 341,-19.5 341,-.5 181,-.5"/>
<text text-anchor="middle" x="261" y="-7.5" font-family="Helvetica,sans-Serif" font-size="10.00" fill="#000000">MainWindow::endReencryptPath</text>
</a>
</g>
</g>
<!-- Node382&#45;&gt;Node389 -->
<g id="edge11" class="edge">
<title>Node382&#45;&gt;Node389</title>
<path fill="none" stroke="#191970" d="M90.7844,-101.4037C110.6781,-79.5623 143.7024,-47.1847 179,-29 186.5346,-25.1183 194.8642,-22.0202 203.2418,-19.55"/>
<polygon fill="#191970" stroke="#191970" points="88.1165,-99.1366 84.0693,-108.928 93.3392,-103.7975 88.1165,-99.1366"/>
</g>
<!-- Node384&#45;&gt;Node385 -->
<g id="edge3" class="edge">
<title>Node384&#45;&gt;Node385</title>
<path fill="none" stroke="#191970" d="M318.6561,-187.3084C326.9968,-183.9191 335.3427,-180.1319 343,-176 365.6494,-163.7785 389.0861,-144.8577 402.2766,-133.5246"/>
<polygon fill="#191970" stroke="#191970" points="317.3249,-184.0707 309.2785,-190.9632 319.8668,-190.5929 317.3249,-184.0707"/>
</g>
<!-- Node385&#45;&gt;Node383 -->
<g id="edge4" class="edge">
<title>Node385&#45;&gt;Node383</title>
<path fill="none" stroke="#191970" d="M443.3039,-137.8847C469.4125,-149.8472 506.4238,-166.8051 529.4202,-177.3416"/>
<polygon fill="#191970" stroke="#191970" points="444.4324,-134.5519 433.8833,-133.5683 441.5166,-140.9157 444.4324,-134.5519"/>
</g>
<!-- Node386&#45;&gt;Node385 -->
<g id="edge6" class="edge">
<title>Node386&#45;&gt;Node385</title>
<path fill="none" stroke="#191970" d="M350.2356,-124C360.2758,-124 369.9981,-124 378.672,-124"/>
<polygon fill="#191970" stroke="#191970" points="350.1164,-120.5001 340.1164,-124 350.1164,-127.5001 350.1164,-120.5001"/>
</g>
<!-- Node387&#45;&gt;Node385 -->
<g id="edge8" class="edge">
<title>Node387&#45;&gt;Node385</title>
<path fill="none" stroke="#191970" d="M313.6525,-97.8933C323.4244,-100.1876 333.5335,-102.6194 343,-105 354.7238,-107.9482 367.4985,-111.3572 378.8872,-114.4667"/>
<polygon fill="#191970" stroke="#191970" points="314.1655,-94.4192 303.6323,-95.5602 312.578,-101.2369 314.1655,-94.4192"/>
</g>
<!-- Node388&#45;&gt;Node385 -->
<g id="edge10" class="edge">
<title>Node388&#45;&gt;Node385</title>
<path fill="none" stroke="#191970" d="M327.4819,-60.6274C332.8399,-62.4768 338.0789,-64.5891 343,-67 367.7702,-79.1351 391.5673,-101.5258 404.0216,-114.335"/>
<polygon fill="#191970" stroke="#191970" points="328.3409,-57.2288 317.7518,-57.5746 326.2454,-63.9078 328.3409,-57.2288"/>
</g>
<!-- Node389&#45;&gt;Node385 -->
<g id="edge12" class="edge">
<title>Node389&#45;&gt;Node385</title>
<path fill="none" stroke="#191970" d="M333.149,-23.4922C336.5798,-25.1243 339.8866,-26.9525 343,-29 376.5494,-51.0635 399.759,-95.0295 408.7956,-114.4266"/>
<polygon fill="#191970" stroke="#191970" points="334.4032,-20.2232 323.8259,-19.6135 331.7143,-26.6862 334.4032,-20.2232"/>
</g>
</g>
</svg>
