<?xml version="1.0" encoding="UTF-8" standalone="no"?>
<!DOCTYPE svg PUBLIC "-//W3C//DTD SVG 1.1//EN"
 "http://www.w3.org/Graphics/SVG/1.1/DTD/svg11.dtd">
<!-- Generated by graphviz version 2.40.1 (20161225.0304)
 -->
<!-- Title: RealPass Pages: 1 -->
<svg width="106pt" height="204pt"
 viewBox="0.00 0.00 106.07 204.00" xmlns="http://www.w3.org/2000/svg" xmlns:xlink="http://www.w3.org/1999/xlink">
<g id="graph0" class="graph" transform="scale(1 1) rotate(0) translate(4 200)">
<title>RealPass</title>
<!-- Node3 -->
<g id="node1" class="node">
<title>Node3</title>
<polygon fill="#bfbfbf" stroke="#000000" points=".9409,-.5 .9409,-18.5 59.7388,-18.5 59.7388,-.5 .9409,-.5"/>
<text text-anchor="middle" x="30.3398" y="-6.5" font-family="Helvetica,sans-Serif" font-size="10.00" fill="#000000">RealPass</text>
</g>
<!-- Node4 -->
<g id="node2" class="node">
<title>Node4</title>
<g id="a_node2"><a xlink:href="class_pass.html" target="_top" xlink:title="Acts as an abstraction for pass or pass imitation. ">
<polygon fill="none" stroke="#000000" points="11.2241,-56.5 11.2241,-74.5 49.4556,-74.5 49.4556,-56.5 11.2241,-56.5"/>
<text text-anchor="middle" x="30.3398" y="-62.5" font-family="Helvetica,sans-Serif" font-size="10.00" fill="#000000">Pass</text>
</a>
</g>
</g>
<!-- Node4&#45;&gt;Node3 -->
<g id="edge1" class="edge">
<title>Node4&#45;&gt;Node3</title>
<path fill="none" stroke="#191970" d="M30.3398,-46.2065C30.3398,-36.8384 30.3398,-26.0262 30.3398,-18.5752"/>
<polygon fill="#191970" stroke="#191970" points="26.8399,-46.2527 30.3398,-56.2527 33.8399,-46.2528 26.8399,-46.2527"/>
</g>
<!-- Node5 -->
<g id="node3" class="node">
<title>Node5</title>
<polygon fill="none" stroke="#bfbfbf" points="0,-177.5 0,-195.5 52.6797,-195.5 52.6797,-177.5 0,-177.5"/>
<text text-anchor="middle" x="26.3398" y="-183.5" font-family="Helvetica,sans-Serif" font-size="10.00" fill="#000000">QObject</text>
</g>
<!-- Node5&#45;&gt;Node4 -->
<g id="edge2" class="edge">
<title>Node5&#45;&gt;Node4</title>
<path fill="none" stroke="#191970" d="M26.9804,-167.1238C27.8546,-140.6786 29.3868,-94.3298 30.0357,-74.7002"/>
<polygon fill="#191970" stroke="#191970" points="23.4729,-167.2951 26.6405,-177.4053 30.4691,-167.5265 23.4729,-167.2951"/>
</g>
<!-- Node6 -->
<g id="node4" class="node">
<title>Node6</title>
<g id="a_node4"><a xlink:href="class_executor.html" target="_top" xlink:title="Executes external commands for handleing password, git and other data. ">
<polygon fill="none" stroke="#000000" points="42.6084,-121.5 42.6084,-139.5 98.0713,-139.5 98.0713,-121.5 42.6084,-121.5"/>
<text text-anchor="middle" x="70.3398" y="-127.5" font-family="Helvetica,sans-Serif" font-size="10.00" fill="#000000">Executor</text>
</a>
</g>
</g>
<!-- Node5&#45;&gt;Node6 -->
<g id="edge4" class="edge">
<title>Node5&#45;&gt;Node6</title>
<path fill="none" stroke="#191970" d="M39.8402,-169.3177C47.5516,-159.5032 56.9095,-147.5932 63.2093,-139.5752"/>
<polygon fill="#191970" stroke="#191970" points="37.0317,-167.2271 33.6055,-177.2527 42.5359,-171.5519 37.0317,-167.2271"/>
</g>
<!-- Node6&#45;&gt;Node4 -->
<g id="edge3" class="edge">
<title>Node6&#45;&gt;Node4</title>
<path fill="none" stroke="#9a32cd" stroke-dasharray="5,2" d="M59.3199,-112.5926C51.8073,-100.3846 42.1612,-84.7097 36.1135,-74.8821"/>
<polygon fill="#9a32cd" stroke="#9a32cd" points="56.5562,-114.7798 64.778,-121.462 62.5178,-111.1111 56.5562,-114.7798"/>
<text text-anchor="middle" x="65.2905" y="-95" font-family="Helvetica,sans-Serif" font-size="10.00" fill="#000000"> exec</text>
</g>
</g>
</svg>
