<?xml version="1.0" encoding="UTF-8" standalone="no"?>
<!DOCTYPE svg PUBLIC "-//W3C//DTD SVG 1.1//EN"
 "http://www.w3.org/Graphics/SVG/1.1/DTD/svg11.dtd">
<!-- Generated by graphviz version 2.43.0 (0)
 -->
<!-- Title: MainWindow::closeEvent Pages: 1 -->
<svg width="534pt" height="224pt"
 viewBox="0.00 0.00 534.00 223.50" xmlns="http://www.w3.org/2000/svg" xmlns:xlink="http://www.w3.org/1999/xlink">
<g id="graph0" class="graph" transform="scale(1 1) rotate(0) translate(4 219.5)">
<title>MainWindow::closeEvent</title>
<!-- Node1 -->
<g id="Node000001" class="node">
<title>Node1</title>
<g id="a_Node000001"><a xlink:title="MainWindow::closeEvent hide or quit.">
<polygon fill="#999999" stroke="#666666" points="138,-111 0,-111 0,-92 138,-92 138,-111"/>
<text text-anchor="middle" x="69" y="-99" font-family="Helvetica,sans-Serif" font-size="10.00">MainWindow::closeEvent</text>
</a>
</g>
</g>
<!-- Node2 -->
<g id="Node000002" class="node">
<title>Node2</title>
<g id="a_Node000002"><a xlink:href="class_qt_pass_settings.html#ad4152bd817991b07af145a0368b7cb1d" target="_top" xlink:title="Check whether closing the window hides the application.">
<polygon fill="white" stroke="#666666" points="326,-215.5 186,-215.5 186,-185.5 326,-185.5 326,-215.5"/>
<text text-anchor="start" x="194" y="-203.5" font-family="Helvetica,sans-Serif" font-size="10.00">QtPassSettings::isHideOn</text>
<text text-anchor="middle" x="256" y="-192.5" font-family="Helvetica,sans-Serif" font-size="10.00">Close</text>
</a>
</g>
</g>
<!-- Node1&#45;&gt;Node2 -->
<g id="edge1_Node000001_Node000002" class="edge">
<title>Node1&#45;&gt;Node2</title>
<g id="a_edge1_Node000001_Node000002"><a xlink:title=" ">
<path fill="none" stroke="#63b8ff" d="M80.74,-111.16C98.77,-126.93 136.83,-158.25 174,-176.5 177.96,-178.44 182.1,-180.26 186.34,-181.96"/>
<polygon fill="#63b8ff" stroke="#63b8ff" points="185.12,-185.24 195.71,-185.47 187.58,-178.68 185.12,-185.24"/>
</a>
</g>
</g>
<!-- Node4 -->
<g id="Node000004" class="node">
<title>Node4</title>
<g id="a_Node000004"><a xlink:href="class_qt_pass_settings.html#aef634f4b530941fbb41f0f1073f5f1f4" target="_top" xlink:title="Save window geometry.">
<polygon fill="white" stroke="#666666" points="335.5,-167 176.5,-167 176.5,-148 335.5,-148 335.5,-167"/>
<text text-anchor="middle" x="256" y="-155" font-family="Helvetica,sans-Serif" font-size="10.00">QtPassSettings::setGeometry</text>
</a>
</g>
</g>
<!-- Node1&#45;&gt;Node4 -->
<g id="edge3_Node000001_Node000004" class="edge">
<title>Node1&#45;&gt;Node4</title>
<g id="a_edge3_Node000001_Node000004"><a xlink:title=" ">
<path fill="none" stroke="#63b8ff" d="M93.66,-111.16C114.55,-119.44 145.96,-131.3 174,-139.5 181.49,-141.69 189.43,-143.76 197.3,-145.66"/>
<polygon fill="#63b8ff" stroke="#63b8ff" points="196.66,-149.1 207.19,-147.97 198.25,-142.29 196.66,-149.1"/>
</a>
</g>
</g>
<!-- Node5 -->
<g id="Node000005" class="node">
<title>Node5</title>
<g id="a_Node000005"><a xlink:href="class_qt_pass_settings.html#a0394e31adec055bd3d84cd09dca5576c" target="_top" xlink:title="Save maximized state.">
<polygon fill="white" stroke="#666666" points="338,-130 174,-130 174,-111 338,-111 338,-130"/>
<text text-anchor="middle" x="256" y="-118" font-family="Helvetica,sans-Serif" font-size="10.00">QtPassSettings::setMaximized</text>
</a>
</g>
</g>
<!-- Node1&#45;&gt;Node5 -->
<g id="edge5_Node000001_Node000005" class="edge">
<title>Node1&#45;&gt;Node5</title>
<g id="a_edge5_Node000001_Node000005"><a xlink:title=" ">
<path fill="none" stroke="#63b8ff" d="M138.1,-108.49C146.47,-109.35 155.12,-110.24 163.76,-111.13"/>
<polygon fill="#63b8ff" stroke="#63b8ff" points="163.57,-114.63 173.88,-112.17 164.29,-107.67 163.57,-114.63"/>
</a>
</g>
</g>
<!-- Node6 -->
<g id="Node000006" class="node">
<title>Node6</title>
<g id="a_Node000006"><a xlink:href="class_qt_pass_settings.html#a8b3520f10b70e098629c5b713c69f3a0" target="_top" xlink:title="Save window position.">
<polygon fill="white" stroke="#666666" points="320,-93 192,-93 192,-74 320,-74 320,-93"/>
<text text-anchor="middle" x="256" y="-81" font-family="Helvetica,sans-Serif" font-size="10.00">QtPassSettings::setPos</text>
</a>
</g>
</g>
<!-- Node1&#45;&gt;Node6 -->
<g id="edge7_Node000001_Node000006" class="edge">
<title>Node1&#45;&gt;Node6</title>
<g id="a_edge7_Node000001_Node000006"><a xlink:title=" ">
<path fill="none" stroke="#63b8ff" d="M138.1,-94.87C152.28,-93.49 167.28,-92.04 181.63,-90.64"/>
<polygon fill="#63b8ff" stroke="#63b8ff" points="182.34,-94.09 191.95,-89.63 181.66,-87.12 182.34,-94.09"/>
</a>
</g>
</g>
<!-- Node7 -->
<g id="Node000007" class="node">
<title>Node7</title>
<g id="a_Node000007"><a xlink:href="class_qt_pass_settings.html#abd5068c7125fcc7d9eb238aea028fd95" target="_top" xlink:title="Save window state.">
<polygon fill="white" stroke="#666666" points="335.5,-56 176.5,-56 176.5,-37 335.5,-37 335.5,-56"/>
<text text-anchor="middle" x="256" y="-44" font-family="Helvetica,sans-Serif" font-size="10.00">QtPassSettings::setSavestate</text>
</a>
</g>
</g>
<!-- Node1&#45;&gt;Node7 -->
<g id="edge9_Node000001_Node000007" class="edge">
<title>Node1&#45;&gt;Node7</title>
<g id="a_edge9_Node000001_Node000007"><a xlink:title=" ">
<path fill="none" stroke="#63b8ff" d="M95.41,-91.88C116.32,-84.17 146.84,-73.36 174,-65.5 182.57,-63.02 191.72,-60.63 200.67,-58.43"/>
<polygon fill="#63b8ff" stroke="#63b8ff" points="201.74,-61.77 210.65,-56.04 200.1,-54.97 201.74,-61.77"/>
</a>
</g>
</g>
<!-- Node8 -->
<g id="Node000008" class="node">
<title>Node8</title>
<g id="a_Node000008"><a xlink:href="class_qt_pass_settings.html#adf303d889c36195d4e0efb156baf50a6" target="_top" xlink:title="Save window size.">
<polygon fill="white" stroke="#666666" points="321.5,-19 190.5,-19 190.5,0 321.5,0 321.5,-19"/>
<text text-anchor="middle" x="256" y="-7" font-family="Helvetica,sans-Serif" font-size="10.00">QtPassSettings::setSize</text>
</a>
</g>
</g>
<!-- Node1&#45;&gt;Node8 -->
<g id="edge11_Node000001_Node000008" class="edge">
<title>Node1&#45;&gt;Node8</title>
<g id="a_edge11_Node000001_Node000008"><a xlink:title=" ">
<path fill="none" stroke="#63b8ff" d="M80.68,-91.87C98.62,-76.21 136.56,-45.28 174,-28.5 179.62,-25.98 185.62,-23.77 191.71,-21.84"/>
<polygon fill="#63b8ff" stroke="#63b8ff" points="192.71,-25.2 201.32,-19.04 190.74,-18.48 192.71,-25.2"/>
</a>
</g>
</g>
<!-- Node3 -->
<g id="Node000003" class="node">
<title>Node3</title>
<g id="a_Node000003"><a xlink:href="class_qt_pass_settings.html#a2483e7de01f9e312ee0fbf8a1637f29d" target="_top" xlink:title="Get the singleton instance.">
<polygon fill="white" stroke="#666666" points="526,-111 374,-111 374,-92 526,-92 526,-111"/>
<text text-anchor="middle" x="450" y="-99" font-family="Helvetica,sans-Serif" font-size="10.00">QtPassSettings::getInstance</text>
</a>
</g>
</g>
<!-- Node2&#45;&gt;Node3 -->
<g id="edge2_Node000002_Node000003" class="edge">
<title>Node2&#45;&gt;Node3</title>
<g id="a_edge2_Node000002_Node000003"><a xlink:title=" ">
<path fill="none" stroke="#63b8ff" d="M315.76,-185.42C323.38,-182.79 330.97,-179.82 338,-176.5 372.38,-160.27 408.12,-134.18 429.46,-117.45"/>
<polygon fill="#63b8ff" stroke="#63b8ff" points="431.77,-120.08 437.42,-111.11 427.41,-114.6 431.77,-120.08"/>
</a>
</g>
</g>
<!-- Node4&#45;&gt;Node3 -->
<g id="edge4_Node000004_Node000003" class="edge">
<title>Node4&#45;&gt;Node3</title>
<g id="a_edge4_Node000004_Node000003"><a xlink:title=" ">
<path fill="none" stroke="#63b8ff" d="M304.34,-147.91C315.44,-145.4 327.18,-142.54 338,-139.5 363.85,-132.23 392.5,-122.37 414.23,-114.52"/>
<polygon fill="#63b8ff" stroke="#63b8ff" points="415.49,-117.78 423.68,-111.07 413.09,-111.21 415.49,-117.78"/>
</a>
</g>
</g>
<!-- Node5&#45;&gt;Node3 -->
<g id="edge6_Node000005_Node000003" class="edge">
<title>Node5&#45;&gt;Node3</title>
<g id="a_edge6_Node000005_Node000003"><a xlink:title=" ">
<path fill="none" stroke="#63b8ff" d="M338.15,-112.47C346.68,-111.63 355.37,-110.77 363.95,-109.92"/>
<polygon fill="#63b8ff" stroke="#63b8ff" points="364.34,-113.4 373.95,-108.93 363.65,-106.43 364.34,-113.4"/>
</a>
</g>
</g>
<!-- Node6&#45;&gt;Node3 -->
<g id="edge8_Node000006_Node000003" class="edge">
<title>Node6&#45;&gt;Node3</title>
<g id="a_edge8_Node000006_Node000003"><a xlink:title=" ">
<path fill="none" stroke="#63b8ff" d="M320.13,-89.42C334.08,-90.73 349.07,-92.13 363.73,-93.51"/>
<polygon fill="#63b8ff" stroke="#63b8ff" points="363.52,-97 373.8,-94.45 364.17,-90.03 363.52,-97"/>
</a>
</g>
</g>
<!-- Node7&#45;&gt;Node3 -->
<g id="edge10_Node000007_Node000003" class="edge">
<title>Node7&#45;&gt;Node3</title>
<g id="a_edge10_Node000007_Node000003"><a xlink:title=" ">
<path fill="none" stroke="#63b8ff" d="M300.89,-56.09C312.97,-58.92 326.03,-62.16 338,-65.5 362.93,-72.45 390.63,-81.43 412.12,-88.69"/>
<polygon fill="#63b8ff" stroke="#63b8ff" points="411.23,-92.08 421.82,-91.99 413.48,-85.45 411.23,-92.08"/>
</a>
</g>
</g>
<!-- Node8&#45;&gt;Node3 -->
<g id="edge12_Node000008_Node000003" class="edge">
<title>Node8&#45;&gt;Node3</title>
<g id="a_edge12_Node000008_Node000003"><a xlink:title=" ">
<path fill="none" stroke="#63b8ff" d="M309.72,-19.03C319.32,-21.55 329.11,-24.68 338,-28.5 372.64,-43.39 408.3,-69.03 429.56,-85.62"/>
<polygon fill="#63b8ff" stroke="#63b8ff" points="427.47,-88.44 437.48,-91.91 431.82,-82.95 427.47,-88.44"/>
</a>
</g>
</g>
</g>
</svg>
