<?xml version="1.0" encoding="UTF-8" standalone="no"?>
<!DOCTYPE svg PUBLIC "-//W3C//DTD SVG 1.1//EN"
 "http://www.w3.org/Graphics/SVG/1.1/DTD/svg11.dtd">
<!-- Generated by graphviz version 2.40.1 (20161225.0304)
 -->
<!-- Title: Pass::init Pages: 1 -->
<svg width="956pt" height="570pt"
 viewBox="0.00 0.00 956.00 570.00" xmlns="http://www.w3.org/2000/svg" xmlns:xlink="http://www.w3.org/1999/xlink">
<g id="graph0" class="graph" transform="scale(1 1) rotate(0) translate(4 566)">
<title>Pass::init</title>
<!-- Node242 -->
<g id="node1" class="node">
<title>Node242</title>
<polygon fill="#bfbfbf" stroke="#000000" points="0,-270.5 0,-289.5 58,-289.5 58,-270.5 0,-270.5"/>
<text text-anchor="middle" x="29" y="-277.5" font-family="Helvetica,sans-Serif" font-size="10.00" fill="#000000">Pass::init</text>
</g>
<!-- Node243 -->
<g id="node2" class="node">
<title>Node243</title>
<g id="a_node2"><a xlink:href="class_qt_pass_settings.html#a987e913eac7cd497e2fca27426494a64" target="_top" xlink:title="QtPassSettings::getPass">
<polygon fill="none" stroke="#000000" points="94,-270.5 94,-289.5 222,-289.5 222,-270.5 94,-270.5"/>
<text text-anchor="middle" x="158" y="-277.5" font-family="Helvetica,sans-Serif" font-size="10.00" fill="#000000">QtPassSettings::getPass</text>
</a>
</g>
</g>
<!-- Node242&#45;&gt;Node243 -->
<g id="edge1" class="edge">
<title>Node242&#45;&gt;Node243</title>
<path fill="none" stroke="#191970" d="M68.449,-280C76.5007,-280 85.1689,-280 93.8292,-280"/>
<polygon fill="#191970" stroke="#191970" points="68.2721,-276.5001 58.2721,-280 68.2721,-283.5001 68.2721,-276.5001"/>
</g>
<!-- Node244 -->
<g id="node3" class="node">
<title>Node244</title>
<g id="a_node3"><a xlink:href="class_config_dialog.html#a485badac4dffa04603f800bb9d396e1d" target="_top" xlink:title="ConfigDialog::~ConfigDialog config destructor, makes sure the mainWindow knows about git...">
<polygon fill="none" stroke="#000000" points="263,-542.5 263,-561.5 404,-561.5 404,-542.5 263,-542.5"/>
<text text-anchor="middle" x="333.5" y="-549.5" font-family="Helvetica,sans-Serif" font-size="10.00" fill="#000000">ConfigDialog::~ConfigDialog</text>
</a>
</g>
</g>
<!-- Node243&#45;&gt;Node244 -->
<g id="edge2" class="edge">
<title>Node243&#45;&gt;Node244</title>
<path fill="none" stroke="#191970" d="M160.2619,-299.7173C166.6568,-346.3209 189.1261,-464.1395 258,-528 264.8582,-534.359 273.4001,-539.0332 282.2472,-542.4689"/>
<polygon fill="#191970" stroke="#191970" points="163.7233,-299.1913 158.9909,-289.7122 156.7791,-300.0735 163.7233,-299.1913"/>
</g>
<!-- Node245 -->
<g id="node4" class="node">
<title>Node245</title>
<g id="a_node4"><a xlink:href="class_main_window.html#a52e97245b2f88492071e639395c4a15a" target="_top" xlink:title="MainWindow::MainWindow handles all of the main functionality and also the main window. ">
<polygon fill="none" stroke="#000000" points="813,-314.5 813,-333.5 948,-333.5 948,-314.5 813,-314.5"/>
<text text-anchor="middle" x="880.5" y="-321.5" font-family="Helvetica,sans-Serif" font-size="10.00" fill="#000000">MainWindow::MainWindow</text>
</a>
</g>
</g>
<!-- Node243&#45;&gt;Node245 -->
<g id="edge3" class="edge">
<title>Node243&#45;&gt;Node245</title>
<path fill="none" stroke="#191970" d="M232.3377,-272.0461C318.7449,-264.1252 465.5371,-254.7662 591,-267 683.0253,-275.9733 789.2012,-300.6296 843.8241,-314.3924"/>
<polygon fill="#191970" stroke="#191970" points="231.9939,-268.5629 222.3632,-272.9788 232.6457,-275.5325 231.9939,-268.5629"/>
</g>
<!-- Node246 -->
<g id="node5" class="node">
<title>Node246</title>
<g id="a_node5"><a xlink:href="class_main_window.html#aeb8091ab5531144b76c1fbb0d63deb56" target="_top" xlink:title="MainWindow::config pops up the configuration screen and handles all inter&#45;window communication. ">
<polygon fill="none" stroke="#000000" points="281,-453.5 281,-472.5 386,-472.5 386,-453.5 281,-453.5"/>
<text text-anchor="middle" x="333.5" y="-460.5" font-family="Helvetica,sans-Serif" font-size="10.00" fill="#000000">MainWindow::config</text>
</a>
</g>
</g>
<!-- Node243&#45;&gt;Node246 -->
<g id="edge4" class="edge">
<title>Node243&#45;&gt;Node246</title>
<path fill="none" stroke="#191970" d="M165.0326,-299.4391C178.116,-332.8902 209.3629,-401.3632 258,-439 266.1581,-445.313 276.0163,-449.9869 285.8782,-453.4403"/>
<polygon fill="#191970" stroke="#191970" points="168.2337,-298.0089 161.4239,-289.8925 161.6859,-300.4841 168.2337,-298.0089"/>
</g>
<!-- Node247 -->
<g id="node6" class="node">
<title>Node247</title>
<g id="a_node6"><a xlink:href="class_main_window.html#a9630f0fe0e0941a7996d68014f837ed5" target="_top" xlink:title="MainWindow::restoreWindow">
<polygon fill="none" stroke="#000000" points="446,-428.5 446,-447.5 590,-447.5 590,-428.5 446,-428.5"/>
<text text-anchor="middle" x="518" y="-435.5" font-family="Helvetica,sans-Serif" font-size="10.00" fill="#000000">MainWindow::restoreWindow</text>
</a>
</g>
</g>
<!-- Node243&#45;&gt;Node247 -->
<g id="edge16" class="edge">
<title>Node243&#45;&gt;Node247</title>
<path fill="none" stroke="#191970" d="M166.9848,-298.9923C181.6266,-327.6017 213.5297,-381.055 258,-406 315.4155,-438.2064 391.027,-444.2226 445.9009,-443.3694"/>
<polygon fill="#191970" stroke="#191970" points="169.9484,-297.0891 162.38,-289.6748 163.6729,-300.1905 169.9484,-297.0891"/>
</g>
<!-- Node248 -->
<g id="node7" class="node">
<title>Node248</title>
<g id="a_node7"><a xlink:href="class_qt_pass.html#a49e2861160fdb8d614231933f60fac47" target="_top" xlink:title="QtPass::init make sure we are ready to go as soon as possible. ">
<polygon fill="none" stroke="#000000" points="668,-409.5 668,-428.5 736,-428.5 736,-409.5 668,-409.5"/>
<text text-anchor="middle" x="702" y="-416.5" font-family="Helvetica,sans-Serif" font-size="10.00" fill="#000000">QtPass::init</text>
</a>
</g>
</g>
<!-- Node243&#45;&gt;Node248 -->
<g id="edge23" class="edge">
<title>Node243&#45;&gt;Node248</title>
<path fill="none" stroke="#191970" d="M160.85,-299.6181C168.1653,-341.8735 191.9144,-440.9754 258,-482 275.1111,-492.6222 580.9768,-478.5986 591,-476 628.7457,-466.2139 668.2882,-442.0096 688.4399,-428.5008"/>
<polygon fill="#191970" stroke="#191970" points="164.2698,-298.8384 159.2323,-289.5178 157.3579,-299.9454 164.2698,-298.8384"/>
</g>
<!-- Node249 -->
<g id="node8" class="node">
<title>Node249</title>
<g id="a_node8"><a xlink:href="class_main_window.html#a6961588ebf3c0640200e0cfa920af3be" target="_top" xlink:title="MainWindow::onPush do a git push. ">
<polygon fill="none" stroke="#000000" points="277.5,-289.5 277.5,-308.5 389.5,-308.5 389.5,-289.5 277.5,-289.5"/>
<text text-anchor="middle" x="333.5" y="-296.5" font-family="Helvetica,sans-Serif" font-size="10.00" fill="#000000">MainWindow::onPush</text>
</a>
</g>
</g>
<!-- Node243&#45;&gt;Node249 -->
<g id="edge9" class="edge">
<title>Node243&#45;&gt;Node249</title>
<path fill="none" stroke="#191970" d="M232.6057,-288.077C247.5672,-289.6967 263.0502,-291.373 277.2617,-292.9115"/>
<polygon fill="#191970" stroke="#191970" points="232.6718,-284.5638 222.3532,-286.967 231.9183,-291.5231 232.6718,-284.5638"/>
</g>
<!-- Node251 -->
<g id="node10" class="node">
<title>Node251</title>
<g id="a_node10"><a xlink:href="class_main_window.html#adc7d4b2b210efab401f0b14641f80464" target="_top" xlink:title="MainWindow::on_treeView_clicked read the selected password file. ">
<polygon fill="none" stroke="#000000" points="267,-366 267,-396 400,-396 400,-366 267,-366"/>
<text text-anchor="start" x="275" y="-384" font-family="Helvetica,sans-Serif" font-size="10.00" fill="#000000">MainWindow::on_treeView</text>
<text text-anchor="middle" x="333.5" y="-373" font-family="Helvetica,sans-Serif" font-size="10.00" fill="#000000">_clicked</text>
</a>
</g>
</g>
<!-- Node243&#45;&gt;Node251 -->
<g id="edge12" class="edge">
<title>Node243&#45;&gt;Node251</title>
<path fill="none" stroke="#191970" d="M177.5494,-296.0277C197.0648,-311.4968 228.3409,-334.8813 258,-351 268.1619,-356.5227 279.5602,-361.5854 290.3601,-365.9162"/>
<polygon fill="#191970" stroke="#191970" points="179.6913,-293.2589 169.7016,-289.7295 175.3099,-298.7182 179.6913,-293.2589"/>
</g>
<!-- Node252 -->
<g id="node11" class="node">
<title>Node252</title>
<g id="a_node11"><a xlink:href="class_main_window.html#a9c4f542263838b9ecd06eae839a42a34" target="_top" xlink:title="MainWindow::keyPressEvent did anyone press return, enter or escape? ">
<polygon fill="none" stroke="#000000" points="445,-352.5 445,-371.5 591,-371.5 591,-352.5 445,-352.5"/>
<text text-anchor="middle" x="518" y="-359.5" font-family="Helvetica,sans-Serif" font-size="10.00" fill="#000000">MainWindow::keyPressEvent</text>
</a>
</g>
</g>
<!-- Node243&#45;&gt;Node252 -->
<g id="edge20" class="edge">
<title>Node243&#45;&gt;Node252</title>
<path fill="none" stroke="#191970" d="M188.7414,-293.474C208.2611,-301.578 234.2357,-311.5407 258,-318 320.0699,-334.871 392.3236,-346.4768 444.8865,-353.515"/>
<polygon fill="#191970" stroke="#191970" points="190.0166,-290.2133 179.4424,-289.5516 187.2959,-296.663 190.0166,-290.2133"/>
</g>
<!-- Node253 -->
<g id="node12" class="node">
<title>Node253</title>
<g id="a_node12"><a xlink:href="class_main_window.html#adcd6afb4bbea0fc89cf5b5b51e387935" target="_top" xlink:title="MainWindow::generateKeyPair internal gpg keypair generator . . ">
<polygon fill="none" stroke="#000000" points="258,-213.5 258,-232.5 409,-232.5 409,-213.5 258,-213.5"/>
<text text-anchor="middle" x="333.5" y="-220.5" font-family="Helvetica,sans-Serif" font-size="10.00" fill="#000000">MainWindow::generateKeyPair</text>
</a>
</g>
</g>
<!-- Node243&#45;&gt;Node253 -->
<g id="edge17" class="edge">
<title>Node243&#45;&gt;Node253</title>
<path fill="none" stroke="#191970" d="M196.4431,-267.2045C215.0236,-261.0481 237.6551,-253.5903 258,-247 272.9164,-242.1681 289.5198,-236.8804 303.3497,-232.5009"/>
<polygon fill="#191970" stroke="#191970" points="195.2438,-263.9147 186.8543,-270.3852 197.4478,-270.5587 195.2438,-263.9147"/>
</g>
<!-- Node256 -->
<g id="node15" class="node">
<title>Node256</title>
<g id="a_node15"><a xlink:href="class_password_dialog.html#a859a78e62204698556204b9e20932010" target="_top" xlink:title="PasswordDialog::PasswordDialog basic constructor. ">
<polygon fill="none" stroke="#000000" points="265,-164 265,-194 402,-194 402,-164 265,-164"/>
<text text-anchor="start" x="273" y="-182" font-family="Helvetica,sans-Serif" font-size="10.00" fill="#000000">PasswordDialog::Password</text>
<text text-anchor="middle" x="333.5" y="-171" font-family="Helvetica,sans-Serif" font-size="10.00" fill="#000000">Dialog</text>
</a>
</g>
</g>
<!-- Node243&#45;&gt;Node256 -->
<g id="edge21" class="edge">
<title>Node243&#45;&gt;Node256</title>
<path fill="none" stroke="#191970" d="M175.8964,-263.451C194.9929,-246.5322 226.7407,-220.4658 258,-204 265.0855,-200.2677 272.8358,-196.9434 280.5861,-194.0337"/>
<polygon fill="#191970" stroke="#191970" points="173.3801,-261.007 168.2924,-270.3003 178.065,-266.2082 173.3801,-261.007"/>
</g>
<!-- Node257 -->
<g id="node16" class="node">
<title>Node257</title>
<g id="a_node16"><a xlink:href="class_password_dialog.html#aa123158c0085b910ecf3bfdc9dae9e97" target="_top" xlink:title="Pass{}{}wordDialog::~PasswordDialog basic destructor. ">
<polygon fill="none" stroke="#000000" points="262,-115 262,-145 405,-145 405,-115 262,-115"/>
<text text-anchor="start" x="270" y="-133" font-family="Helvetica,sans-Serif" font-size="10.00" fill="#000000">PasswordDialog::~Password</text>
<text text-anchor="middle" x="333.5" y="-122" font-family="Helvetica,sans-Serif" font-size="10.00" fill="#000000">Dialog</text>
</a>
</g>
</g>
<!-- Node243&#45;&gt;Node257 -->
<g id="edge22" class="edge">
<title>Node243&#45;&gt;Node257</title>
<path fill="none" stroke="#191970" d="M168.1411,-261.4062C183.8909,-234.2073 216.756,-183.698 258,-155 263.5536,-151.1358 269.7472,-147.8349 276.1324,-145.0233"/>
<polygon fill="#191970" stroke="#191970" points="164.9952,-259.8593 163.1291,-270.2886 171.0917,-263.2994 164.9952,-259.8593"/>
</g>
<!-- Node258 -->
<g id="node17" class="node">
<title>Node258</title>
<g id="a_node17"><a xlink:href="class_store_model.html#a17f8db58298e985732d92a2e0e76b821" target="_top" xlink:title="StoreModel::dropMimeData">
<polygon fill="none" stroke="#000000" points="265.5,-76.5 265.5,-95.5 401.5,-95.5 401.5,-76.5 265.5,-76.5"/>
<text text-anchor="middle" x="333.5" y="-83.5" font-family="Helvetica,sans-Serif" font-size="10.00" fill="#000000">StoreModel::dropMimeData</text>
</a>
</g>
</g>
<!-- Node243&#45;&gt;Node258 -->
<g id="edge24" class="edge">
<title>Node243&#45;&gt;Node258</title>
<path fill="none" stroke="#191970" d="M163.6481,-260.5146C175.1663,-224.3264 204.8754,-146.7274 258,-106 263.7035,-101.6275 270.2814,-98.2083 277.1273,-95.535"/>
<polygon fill="#191970" stroke="#191970" points="160.2242,-259.7431 160.6517,-270.3293 166.9192,-261.7871 160.2242,-259.7431"/>
</g>
<!-- Node259 -->
<g id="node18" class="node">
<title>Node259</title>
<g id="a_node18"><a xlink:href="class_users_dialog.html#a7a3d75a01a48609ce7571cec09b95f07" target="_top" xlink:title="UsersDialog::UsersDialog basic constructor. ">
<polygon fill="none" stroke="#000000" points="452.5,-19.5 452.5,-38.5 583.5,-38.5 583.5,-19.5 452.5,-19.5"/>
<text text-anchor="middle" x="518" y="-26.5" font-family="Helvetica,sans-Serif" font-size="10.00" fill="#000000">UsersDialog::UsersDialog</text>
</a>
</g>
</g>
<!-- Node243&#45;&gt;Node259 -->
<g id="edge25" class="edge">
<title>Node243&#45;&gt;Node259</title>
<path fill="none" stroke="#191970" d="M160.9336,-260.3581C168.4554,-217.4877 192.6551,-115.4992 258,-67 287.9462,-44.7739 385.6952,-35.4379 452.4245,-31.593"/>
<polygon fill="#191970" stroke="#191970" points="157.4587,-259.9207 159.2992,-270.3544 164.367,-261.0503 157.4587,-259.9207"/>
</g>
<!-- Node260 -->
<g id="node19" class="node">
<title>Node260</title>
<g id="a_node19"><a xlink:href="class_users_dialog.html#a70580643923a96208b6bbae18d4aa0f3" target="_top" xlink:title="UsersDialog::accept">
<polygon fill="none" stroke="#000000" points="280.5,-.5 280.5,-19.5 386.5,-19.5 386.5,-.5 280.5,-.5"/>
<text text-anchor="middle" x="333.5" y="-7.5" font-family="Helvetica,sans-Serif" font-size="10.00" fill="#000000">UsersDialog::accept</text>
</a>
</g>
</g>
<!-- Node243&#45;&gt;Node260 -->
<g id="edge26" class="edge">
<title>Node243&#45;&gt;Node260</title>
<path fill="none" stroke="#191970" d="M160.3131,-260.4385C166.8196,-214.2038 189.5143,-97.3214 258,-34 264.8672,-27.6506 273.4132,-22.981 282.2617,-19.5468"/>
<polygon fill="#191970" stroke="#191970" points="156.8413,-259.9956 159.0172,-270.3645 163.7824,-260.9018 156.8413,-259.9956"/>
</g>
<!-- Node246&#45;&gt;Node247 -->
<g id="edge5" class="edge">
<title>Node246&#45;&gt;Node247</title>
<path fill="none" stroke="#191970" d="M396.4214,-454.4741C412.8877,-452.2429 430.7454,-449.8231 447.575,-447.5427"/>
<polygon fill="#191970" stroke="#191970" points="395.8097,-451.0249 386.3703,-455.836 396.7497,-457.9615 395.8097,-451.0249"/>
</g>
<!-- Node246&#45;&gt;Node248 -->
<g id="edge8" class="edge">
<title>Node246&#45;&gt;Node248</title>
<path fill="none" stroke="#191970" d="M396.4071,-466.8628C448.8739,-468.8159 525.3801,-468.7082 591,-457 623.0834,-451.2755 658.4219,-437.8629 680.4141,-428.6084"/>
<polygon fill="#191970" stroke="#191970" points="396.3792,-463.3589 386.2447,-466.4476 396.0934,-470.353 396.3792,-463.3589"/>
</g>
<!-- Node247&#45;&gt;Node248 -->
<g id="edge6" class="edge">
<title>Node247&#45;&gt;Node248</title>
<path fill="none" stroke="#191970" d="M600.3278,-429.4988C624.1433,-427.0396 648.833,-424.4901 667.918,-422.5193"/>
<polygon fill="#191970" stroke="#191970" points="599.7811,-426.0365 590.1936,-430.5452 600.5002,-432.9995 599.7811,-426.0365"/>
</g>
<!-- Node248&#45;&gt;Node245 -->
<g id="edge7" class="edge">
<title>Node248&#45;&gt;Node245</title>
<path fill="none" stroke="#191970" d="M729.2983,-404.4715C766.285,-384.7867 831.2877,-350.1914 862.6196,-333.5162"/>
<polygon fill="#191970" stroke="#191970" points="727.2811,-401.5802 720.0978,-409.3681 730.5699,-407.7595 727.2811,-401.5802"/>
</g>
<!-- Node249&#45;&gt;Node248 -->
<g id="edge11" class="edge">
<title>Node249&#45;&gt;Node248</title>
<path fill="none" stroke="#191970" d="M399.6495,-302.4799C452.9651,-307.1084 528.9991,-317.8898 591,-343 631.6966,-359.482 672.4831,-392.7434 691.2795,-409.2505"/>
<polygon fill="#191970" stroke="#191970" points="399.8864,-298.9877 389.634,-301.6595 399.3149,-305.9643 399.8864,-298.9877"/>
</g>
<!-- Node250 -->
<g id="node9" class="node">
<title>Node250</title>
<g id="a_node9"><a xlink:href="class_main_window.html#ac7c881667b4ba4986b5a0030452ee3f0" target="_top" xlink:title="MainWindow::changeEvent sets focus to the search box. ">
<polygon fill="none" stroke="#000000" points="450,-276.5 450,-295.5 586,-295.5 586,-276.5 450,-276.5"/>
<text text-anchor="middle" x="518" y="-283.5" font-family="Helvetica,sans-Serif" font-size="10.00" fill="#000000">MainWindow::changeEvent</text>
</a>
</g>
</g>
<!-- Node249&#45;&gt;Node250 -->
<g id="edge10" class="edge">
<title>Node249&#45;&gt;Node250</title>
<path fill="none" stroke="#191970" d="M399.587,-294.3435C415.8943,-293.1944 433.3905,-291.9616 449.7961,-290.8057"/>
<polygon fill="#191970" stroke="#191970" points="399.3368,-290.8523 389.6075,-295.0466 399.8288,-297.835 399.3368,-290.8523"/>
</g>
<!-- Node251&#45;&gt;Node247 -->
<g id="edge13" class="edge">
<title>Node251&#45;&gt;Node247</title>
<path fill="none" stroke="#191970" d="M392.0314,-399.0829C423.5728,-408.8274 461.2123,-420.4558 487.0839,-428.4487"/>
<polygon fill="#191970" stroke="#191970" points="393.0458,-395.7331 382.4582,-396.1253 390.9795,-402.4212 393.0458,-395.7331"/>
</g>
<!-- Node251&#45;&gt;Node248 -->
<g id="edge15" class="edge">
<title>Node251&#45;&gt;Node248</title>
<path fill="none" stroke="#191970" d="M410.6557,-388.9564C489.9268,-397.1309 609.7093,-409.4829 667.8849,-415.482"/>
<polygon fill="#191970" stroke="#191970" points="410.5389,-385.4258 400.2326,-387.8815 409.8208,-392.3889 410.5389,-385.4258"/>
</g>
<!-- Node251&#45;&gt;Node252 -->
<g id="edge14" class="edge">
<title>Node251&#45;&gt;Node252</title>
<path fill="none" stroke="#191970" d="M410.1244,-373.1091C421.641,-371.9232 433.4922,-370.7027 444.9317,-369.5247"/>
<polygon fill="#191970" stroke="#191970" points="409.6976,-369.6345 400.1087,-374.1406 410.4147,-376.5977 409.6976,-369.6345"/>
</g>
<!-- Node254 -->
<g id="node13" class="node">
<title>Node254</title>
<g id="a_node13"><a xlink:href="class_config_dialog.html#a428d1f1b69aaaf09343e3d8db42ed138" target="_top" xlink:title="ConfigDialog::genKey tunnel function to make MainWindow generate a gpg key pair. ">
<polygon fill="none" stroke="#000000" points="462,-200.5 462,-219.5 574,-219.5 574,-200.5 462,-200.5"/>
<text text-anchor="middle" x="518" y="-207.5" font-family="Helvetica,sans-Serif" font-size="10.00" fill="#000000">ConfigDialog::genKey</text>
</a>
</g>
</g>
<!-- Node253&#45;&gt;Node254 -->
<g id="edge18" class="edge">
<title>Node253&#45;&gt;Node254</title>
<path fill="none" stroke="#191970" d="M419.0544,-216.9718C433.545,-215.9508 448.257,-214.9141 461.7503,-213.9634"/>
<polygon fill="#191970" stroke="#191970" points="418.8048,-213.4806 409.0756,-217.6749 419.2969,-220.4633 418.8048,-213.4806"/>
</g>
<!-- Node255 -->
<g id="node14" class="node">
<title>Node255</title>
<g id="a_node14"><a xlink:href="class_keygen_dialog.html#a90b3a3db49016043ba160a50c5272643" target="_top" xlink:title="KeygenDialog::~KeygenDialog even more basic destructor. ">
<polygon fill="none" stroke="#000000" points="627,-200.5 627,-219.5 777,-219.5 777,-200.5 627,-200.5"/>
<text text-anchor="middle" x="702" y="-207.5" font-family="Helvetica,sans-Serif" font-size="10.00" fill="#000000">KeygenDialog::~KeygenDialog</text>
</a>
</g>
</g>
<!-- Node254&#45;&gt;Node255 -->
<g id="edge19" class="edge">
<title>Node254&#45;&gt;Node255</title>
<path fill="none" stroke="#191970" d="M584.5223,-210C598.2519,-210 612.8033,-210 626.816,-210"/>
<polygon fill="#191970" stroke="#191970" points="584.2059,-206.5001 574.2059,-210 584.2058,-213.5001 584.2059,-206.5001"/>
</g>
<!-- Node260&#45;&gt;Node259 -->
<g id="edge27" class="edge">
<title>Node260&#45;&gt;Node259</title>
<path fill="none" stroke="#191970" d="M397.1508,-16.5548C414.9695,-18.3898 434.3679,-20.3875 452.3027,-22.2344"/>
<polygon fill="#191970" stroke="#191970" points="397.171,-13.0385 386.865,-15.4956 396.4539,-20.0017 397.171,-13.0385"/>
</g>
</g>
</svg>
