<?xml version="1.0" encoding="UTF-8" standalone="no"?>
<!DOCTYPE svg PUBLIC "-//W3C//DTD SVG 1.1//EN"
 "http://www.w3.org/Graphics/SVG/1.1/DTD/svg11.dtd">
<!-- Generated by graphviz version 2.40.1 (20161225.0304)
 -->
<!-- Title: PasswordDialog::PasswordDialog Pages: 1 -->
<svg width="906pt" height="453pt"
 viewBox="0.00 0.00 906.20 453.00" xmlns="http://www.w3.org/2000/svg" xmlns:xlink="http://www.w3.org/1999/xlink">
<g id="graph0" class="graph" transform="scale(1 1) rotate(0) translate(4 449)">
<title>PasswordDialog::PasswordDialog</title>
<!-- Node4 -->
<g id="node1" class="node">
<title>Node4</title>
<polygon fill="#bfbfbf" stroke="#000000" points="0,-213.5 0,-241.5 137.7188,-241.5 137.7188,-213.5 0,-213.5"/>
<text text-anchor="start" x="8" y="-229.5" font-family="Helvetica,sans-Serif" font-size="10.00" fill="#000000">PasswordDialog::Password</text>
<text text-anchor="middle" x="68.8594" y="-219.5" font-family="Helvetica,sans-Serif" font-size="10.00" fill="#000000">Dialog</text>
</g>
<!-- Node5 -->
<g id="node2" class="node">
<title>Node5</title>
<g id="a_node2"><a xlink:href="class_qt_pass_settings.html#a987e913eac7cd497e2fca27426494a64" target="_top" xlink:title="QtPassSettings::getPass">
<polygon fill="none" stroke="#000000" points="185.9429,-426.5 185.9429,-444.5 312.5532,-444.5 312.5532,-426.5 185.9429,-426.5"/>
<text text-anchor="middle" x="249.248" y="-432.5" font-family="Helvetica,sans-Serif" font-size="10.00" fill="#000000">QtPassSettings::getPass</text>
</a>
</g>
</g>
<!-- Node4&#45;&gt;Node5 -->
<g id="edge1" class="edge">
<title>Node4&#45;&gt;Node5</title>
<path fill="none" stroke="#191970" d="M72.3666,-241.5507C81.9833,-277.0329 112.2429,-370.7437 173.7188,-417.5 175.8311,-419.1066 178.0652,-420.5725 180.3899,-421.9099"/>
<polygon fill="#191970" stroke="#191970" points="179.2159,-425.2308 189.7395,-426.4569 182.2774,-418.9358 179.2159,-425.2308"/>
</g>
<!-- Node10 -->
<g id="node7" class="node">
<title>Node10</title>
<g id="a_node7"><a xlink:href="class_pass.html#a6520ffa669cd7934091934b24593d99c" target="_top" xlink:title="Pass::Show">
<polygon fill="none" stroke="#000000" points="214.8467,-389.5 214.8467,-407.5 283.6494,-407.5 283.6494,-389.5 214.8467,-389.5"/>
<text text-anchor="middle" x="249.248" y="-395.5" font-family="Helvetica,sans-Serif" font-size="10.00" fill="#000000">Pass::Show</text>
</a>
</g>
</g>
<!-- Node4&#45;&gt;Node10 -->
<g id="edge7" class="edge">
<title>Node4&#45;&gt;Node10</title>
<path fill="none" stroke="#191970" d="M75.0462,-241.532C88.6124,-270.6925 123.7969,-338.1453 173.7188,-374.5 182.9154,-381.1973 194.0508,-386.072 204.9132,-389.6029"/>
<polygon fill="#191970" stroke="#191970" points="204.168,-393.0315 214.7485,-392.4814 206.1342,-386.3133 204.168,-393.0315"/>
</g>
<!-- Node11 -->
<g id="node8" class="node">
<title>Node11</title>
<g id="a_node8"><a xlink:href="class_qt_pass_settings.html#a9da7174babd2f5cc433505f0fec82efc" target="_top" xlink:title="QtPassSettings::getPassword\lConfiguration">
<polygon fill="none" stroke="#000000" points="364.6641,-326.5 364.6641,-354.5 512.9492,-354.5 512.9492,-326.5 364.6641,-326.5"/>
<text text-anchor="start" x="372.6641" y="-342.5" font-family="Helvetica,sans-Serif" font-size="10.00" fill="#000000">QtPassSettings::getPassword</text>
<text text-anchor="middle" x="438.8066" y="-332.5" font-family="Helvetica,sans-Serif" font-size="10.00" fill="#000000">Configuration</text>
</a>
</g>
</g>
<!-- Node4&#45;&gt;Node11 -->
<g id="edge8" class="edge">
<title>Node4&#45;&gt;Node11</title>
<path fill="none" stroke="#191970" d="M76.6107,-241.8239C91.465,-267.5593 126.6872,-320.8587 173.7188,-341.5 234.6171,-368.2272 311.2299,-364.462 366.4121,-356.1127"/>
<polygon fill="#191970" stroke="#191970" points="367.1358,-359.5416 376.4578,-354.5067 366.0306,-352.6293 367.1358,-359.5416"/>
</g>
<!-- Node12 -->
<g id="node9" class="node">
<title>Node12</title>
<g id="a_node9"><a xlink:href="class_password_dialog.html#abe02aee12f78e5914cf79162df9e77e4" target="_top" xlink:title="PasswordDialog::usePwgen PasswordDialog::usePwgen don&#39;t use own password generator. ">
<polygon fill="none" stroke="#000000" points="178.9922,-313.5 178.9922,-331.5 319.5039,-331.5 319.5039,-313.5 178.9922,-313.5"/>
<text text-anchor="middle" x="249.248" y="-319.5" font-family="Helvetica,sans-Serif" font-size="10.00" fill="#000000">PasswordDialog::usePwgen</text>
</a>
</g>
</g>
<!-- Node4&#45;&gt;Node12 -->
<g id="edge10" class="edge">
<title>Node4&#45;&gt;Node12</title>
<path fill="none" stroke="#191970" d="M86.4508,-241.7524C106.538,-257.4519 140.8791,-282.5788 173.7188,-298.5 183.1947,-303.0941 193.7559,-307.0865 203.9064,-310.4262"/>
<polygon fill="#191970" stroke="#191970" points="202.8744,-313.7706 213.4636,-313.4266 204.9711,-307.092 202.8744,-313.7706"/>
</g>
<!-- Node13 -->
<g id="node10" class="node">
<title>Node13</title>
<g id="a_node10"><a xlink:href="class_qt_pass_settings.html#a67e0ba5d6606e73b979daa774ccc1f72" target="_top" xlink:title="QtPassSettings::isUsePwgen">
<polygon fill="none" stroke="#000000" points="365.7773,-275.5 365.7773,-293.5 511.8359,-293.5 511.8359,-275.5 365.7773,-275.5"/>
<text text-anchor="middle" x="438.8066" y="-281.5" font-family="Helvetica,sans-Serif" font-size="10.00" fill="#000000">QtPassSettings::isUsePwgen</text>
</a>
</g>
</g>
<!-- Node4&#45;&gt;Node13 -->
<g id="edge11" class="edge">
<title>Node4&#45;&gt;Node13</title>
<path fill="none" stroke="#191970" d="M100.7736,-241.6761C121.2104,-250.0939 148.5293,-260.1413 173.7188,-265.5 233.6927,-278.2586 302.8342,-282.891 355.4643,-284.3959"/>
<polygon fill="#191970" stroke="#191970" points="355.6771,-287.9023 365.7625,-284.6567 355.8544,-280.9046 355.6771,-287.9023"/>
</g>
<!-- Node14 -->
<g id="node11" class="node">
<title>Node14</title>
<g id="a_node11"><a xlink:href="class_password_dialog.html#a522f673d65885edea46e3c514bb95f45" target="_top" xlink:title="Sets content in the template for the interface. ">
<polygon fill="none" stroke="#000000" points="175.3838,-237.5 175.3838,-255.5 323.1123,-255.5 323.1123,-237.5 175.3838,-237.5"/>
<text text-anchor="middle" x="249.248" y="-243.5" font-family="Helvetica,sans-Serif" font-size="10.00" fill="#000000">PasswordDialog::setTemplate</text>
</a>
</g>
</g>
<!-- Node4&#45;&gt;Node14 -->
<g id="edge13" class="edge">
<title>Node4&#45;&gt;Node14</title>
<path fill="none" stroke="#191970" d="M137.8287,-234.7644C146.7174,-235.7006 155.8975,-236.6676 164.9967,-237.626"/>
<polygon fill="#191970" stroke="#191970" points="164.9041,-241.1355 175.2157,-238.7023 165.6374,-234.174 164.9041,-241.1355"/>
</g>
<!-- Node15 -->
<g id="node12" class="node">
<title>Node15</title>
<g id="a_node12"><a xlink:href="class_qt_pass_settings.html#a3c0463005c07a4dc0384bf8e63696aa4" target="_top" xlink:title="QtPassSettings::getPassTemplate">
<polygon fill="none" stroke="#000000" points="552.8359,-218.5 552.8359,-236.5 720.0225,-236.5 720.0225,-218.5 552.8359,-218.5"/>
<text text-anchor="middle" x="636.4292" y="-224.5" font-family="Helvetica,sans-Serif" font-size="10.00" fill="#000000">QtPassSettings::getPassTemplate</text>
</a>
</g>
</g>
<!-- Node4&#45;&gt;Node15 -->
<g id="edge14" class="edge">
<title>Node4&#45;&gt;Node15</title>
<path fill="none" stroke="#191970" d="M137.8872,-227.5C239.2608,-227.5 428.6834,-227.5 542.5997,-227.5"/>
<polygon fill="#191970" stroke="#191970" points="542.7032,-231.0001 552.7032,-227.5 542.7031,-224.0001 542.7032,-231.0001"/>
</g>
<!-- Node16 -->
<g id="node13" class="node">
<title>Node16</title>
<g id="a_node13"><a xlink:href="class_qt_pass_settings.html#a106e2f75cc1dda481bdf253f640a9283" target="_top" xlink:title="QtPassSettings::isUseTemplate">
<polygon fill="none" stroke="#000000" points="360.7773,-161.5 360.7773,-179.5 516.8359,-179.5 516.8359,-161.5 360.7773,-161.5"/>
<text text-anchor="middle" x="438.8066" y="-167.5" font-family="Helvetica,sans-Serif" font-size="10.00" fill="#000000">QtPassSettings::isUseTemplate</text>
</a>
</g>
</g>
<!-- Node4&#45;&gt;Node16 -->
<g id="edge16" class="edge">
<title>Node4&#45;&gt;Node16</title>
<path fill="none" stroke="#191970" d="M106.6948,-213.4299C126.411,-206.6536 151.0753,-199.0333 173.7188,-194.5 232.0216,-182.8275 298.6851,-176.8256 350.5756,-173.7428"/>
<polygon fill="#191970" stroke="#191970" points="350.9647,-177.2264 360.7498,-173.1644 350.5673,-170.2377 350.9647,-177.2264"/>
</g>
<!-- Node17 -->
<g id="node14" class="node">
<title>Node17</title>
<g id="a_node14"><a xlink:href="class_password_dialog.html#ac2af2ce4836edf9d5fda52d5ec66af82" target="_top" xlink:title="PasswordDialog::templateAll basic setter for use in PasswordDialog::setPassword templating all tokeni...">
<polygon fill="none" stroke="#000000" points="177.6079,-123.5 177.6079,-141.5 320.8882,-141.5 320.8882,-123.5 177.6079,-123.5"/>
<text text-anchor="middle" x="249.248" y="-129.5" font-family="Helvetica,sans-Serif" font-size="10.00" fill="#000000">PasswordDialog::templateAll</text>
</a>
</g>
</g>
<!-- Node4&#45;&gt;Node17 -->
<g id="edge18" class="edge">
<title>Node4&#45;&gt;Node17</title>
<path fill="none" stroke="#191970" d="M86.4508,-213.2476C106.538,-197.5481 140.8791,-172.4212 173.7188,-156.5 183.1947,-151.9059 193.7559,-147.9135 203.9064,-144.5738"/>
<polygon fill="#191970" stroke="#191970" points="204.9711,-147.908 213.4636,-141.5734 202.8744,-141.2294 204.9711,-147.908"/>
</g>
<!-- Node18 -->
<g id="node15" class="node">
<title>Node18</title>
<g id="a_node15"><a xlink:href="class_qt_pass_settings.html#a1e65645c63846fcf2d51897e76e6d0c0" target="_top" xlink:title="QtPassSettings::isTemplate\lAllFields">
<polygon fill="none" stroke="#000000" points="567.2915,-106.5 567.2915,-134.5 705.5669,-134.5 705.5669,-106.5 567.2915,-106.5"/>
<text text-anchor="start" x="575.2915" y="-122.5" font-family="Helvetica,sans-Serif" font-size="10.00" fill="#000000">QtPassSettings::isTemplate</text>
<text text-anchor="middle" x="636.4292" y="-112.5" font-family="Helvetica,sans-Serif" font-size="10.00" fill="#000000">AllFields</text>
</a>
</g>
</g>
<!-- Node4&#45;&gt;Node18 -->
<g id="edge19" class="edge">
<title>Node4&#45;&gt;Node18</title>
<path fill="none" stroke="#191970" d="M76.6107,-213.1761C91.465,-187.4407 126.6872,-134.1413 173.7188,-113.5 307.0282,-54.9929 483.4494,-82.8204 575.1569,-104.0746"/>
<polygon fill="#191970" stroke="#191970" points="574.569,-107.5321 585.1066,-106.4323 576.1831,-100.7207 574.569,-107.5321"/>
</g>
<!-- Node19 -->
<g id="node16" class="node">
<title>Node19</title>
<g id="a_node16"><a xlink:href="class_password_dialog.html#ac865a161a2be2d4837761a1305a71db9" target="_top" xlink:title="PasswordDialog::setLength PasswordDialog::setLength password length. ">
<polygon fill="none" stroke="#000000" points="180.3789,-47.5 180.3789,-65.5 318.1172,-65.5 318.1172,-47.5 180.3789,-47.5"/>
<text text-anchor="middle" x="249.248" y="-53.5" font-family="Helvetica,sans-Serif" font-size="10.00" fill="#000000">PasswordDialog::setLength</text>
</a>
</g>
</g>
<!-- Node4&#45;&gt;Node19 -->
<g id="edge21" class="edge">
<title>Node4&#45;&gt;Node19</title>
<path fill="none" stroke="#191970" d="M75.0462,-213.468C88.6124,-184.3075 123.7969,-116.8547 173.7188,-80.5 180.0532,-75.8871 187.3074,-72.1388 194.7586,-69.0987"/>
<polygon fill="#191970" stroke="#191970" points="196.0667,-72.347 204.2478,-65.615 193.6542,-65.7758 196.0667,-72.347"/>
</g>
<!-- Node20 -->
<g id="node17" class="node">
<title>Node20</title>
<g id="a_node17"><a xlink:href="class_password_dialog.html#a19369fdb18d5b280aeadcd91245d9f6a" target="_top" xlink:title="PasswordDialog::setPasswordCharTemplate PasswordDialog::setPasswordCharTemplate chose the template st...">
<polygon fill="none" stroke="#000000" points="173.7188,-.5 173.7188,-28.5 324.7773,-28.5 324.7773,-.5 173.7188,-.5"/>
<text text-anchor="start" x="181.7188" y="-16.5" font-family="Helvetica,sans-Serif" font-size="10.00" fill="#000000">PasswordDialog::setPassword</text>
<text text-anchor="middle" x="249.248" y="-6.5" font-family="Helvetica,sans-Serif" font-size="10.00" fill="#000000">CharTemplate</text>
</a>
</g>
</g>
<!-- Node4&#45;&gt;Node20 -->
<g id="edge22" class="edge">
<title>Node4&#45;&gt;Node20</title>
<path fill="none" stroke="#191970" d="M72.6154,-213.4154C82.7211,-178.2617 113.8593,-86.01 173.7188,-37.5 175.3161,-36.2055 176.9857,-34.9837 178.7134,-33.8306"/>
<polygon fill="#191970" stroke="#191970" points="180.8501,-36.6392 187.7721,-28.6182 177.359,-30.5719 180.8501,-36.6392"/>
</g>
<!-- Node6 -->
<g id="node3" class="node">
<title>Node6</title>
<g id="a_node3"><a xlink:href="class_qt_pass_settings.html#a30ef36260f73f9f18d338f2b18a1f493" target="_top" xlink:title="QtPassSettings::isUsePass">
<polygon fill="none" stroke="#000000" points="567.5723,-400.5 567.5723,-418.5 705.2861,-418.5 705.2861,-400.5 567.5723,-400.5"/>
<text text-anchor="middle" x="636.4292" y="-406.5" font-family="Helvetica,sans-Serif" font-size="10.00" fill="#000000">QtPassSettings::isUsePass</text>
</a>
</g>
</g>
<!-- Node5&#45;&gt;Node6 -->
<g id="edge2" class="edge">
<title>Node5&#45;&gt;Node6</title>
<path fill="none" stroke="#191970" d="M312.7496,-431.2357C379.5121,-426.7525 484.6929,-419.6894 556.9268,-414.8387"/>
<polygon fill="#191970" stroke="#191970" points="557.5937,-418.3019 567.3367,-414.1397 557.1247,-411.3177 557.5937,-418.3019"/>
</g>
<!-- Node8 -->
<g id="node5" class="node">
<title>Node8</title>
<g id="a_node5"><a xlink:href="class_pass.html#a012c47a55b3cc3467ad0f013716f623a" target="_top" xlink:title="Pass::init">
<polygon fill="none" stroke="#000000" points="410.521,-380.5 410.521,-398.5 467.0923,-398.5 467.0923,-380.5 410.521,-380.5"/>
<text text-anchor="middle" x="438.8066" y="-386.5" font-family="Helvetica,sans-Serif" font-size="10.00" fill="#000000">Pass::init</text>
</a>
</g>
</g>
<!-- Node5&#45;&gt;Node8 -->
<g id="edge4" class="edge">
<title>Node5&#45;&gt;Node8</title>
<path fill="none" stroke="#191970" d="M287.2965,-426.4859C299.2929,-423.6295 312.5925,-420.4479 324.7773,-417.5 349.9208,-411.417 378.1569,-404.4844 400.241,-399.0392"/>
<polygon fill="#191970" stroke="#191970" points="401.3636,-402.3673 410.2339,-396.5734 399.6865,-395.5712 401.3636,-402.3673"/>
</g>
<!-- Node7 -->
<g id="node4" class="node">
<title>Node7</title>
<g id="a_node4"><a xlink:href="class_qt_pass_settings.html#ab83659fdbfb9069942e6982076b4b934" target="_top" xlink:title="QtPassSettings::getInstance">
<polygon fill="none" stroke="#000000" points="756.0225,-275.5 756.0225,-293.5 898.2041,-293.5 898.2041,-275.5 756.0225,-275.5"/>
<text text-anchor="middle" x="827.1133" y="-281.5" font-family="Helvetica,sans-Serif" font-size="10.00" fill="#000000">QtPassSettings::getInstance</text>
</a>
</g>
</g>
<!-- Node6&#45;&gt;Node7 -->
<g id="edge3" class="edge">
<title>Node6&#45;&gt;Node7</title>
<path fill="none" stroke="#191970" d="M695.5133,-400.4365C704.0256,-397.899 712.4549,-394.6527 720.0225,-390.5 760.8971,-368.0698 796.7651,-325.4925 814.7854,-301.6936"/>
<polygon fill="#191970" stroke="#191970" points="817.6589,-303.6943 820.7912,-293.5731 812.0309,-299.5319 817.6589,-303.6943"/>
</g>
<!-- Node9 -->
<g id="node6" class="node">
<title>Node9</title>
<g id="a_node6"><a xlink:href="class_qt_pass_settings.html#ae3f04477e57019e329ed9944806ec1da" target="_top" xlink:title="QtPassSettings::getGpgHome">
<polygon fill="none" stroke="#000000" points="561.4517,-362.5 561.4517,-380.5 711.4067,-380.5 711.4067,-362.5 561.4517,-362.5"/>
<text text-anchor="middle" x="636.4292" y="-368.5" font-family="Helvetica,sans-Serif" font-size="10.00" fill="#000000">QtPassSettings::getGpgHome</text>
</a>
</g>
</g>
<!-- Node8&#45;&gt;Node9 -->
<g id="edge5" class="edge">
<title>Node8&#45;&gt;Node9</title>
<path fill="none" stroke="#191970" d="M467.1211,-386.921C489.1753,-384.9123 521.006,-382.0131 551.1293,-379.2693"/>
<polygon fill="#191970" stroke="#191970" points="551.6217,-382.7391 561.263,-378.3463 550.9867,-375.7679 551.6217,-382.7391"/>
</g>
<!-- Node9&#45;&gt;Node7 -->
<g id="edge6" class="edge">
<title>Node9&#45;&gt;Node7</title>
<path fill="none" stroke="#191970" d="M671.6102,-362.3925C686.777,-357.9999 704.548,-352.2194 720.0225,-345.5 750.625,-332.2116 783.6775,-312.4807 804.8424,-299.0851"/>
<polygon fill="#191970" stroke="#191970" points="806.8787,-301.9372 813.411,-293.5958 803.1027,-296.043 806.8787,-301.9372"/>
</g>
<!-- Node11&#45;&gt;Node7 -->
<g id="edge9" class="edge">
<title>Node11&#45;&gt;Node7</title>
<path fill="none" stroke="#191970" d="M513.2166,-329.7689C582.6918,-319.7495 685.7282,-304.89 754.5881,-294.9593"/>
<polygon fill="#191970" stroke="#191970" points="755.0938,-298.4227 764.4918,-293.531 754.0945,-291.4943 755.0938,-298.4227"/>
</g>
<!-- Node13&#45;&gt;Node7 -->
<g id="edge12" class="edge">
<title>Node13&#45;&gt;Node7</title>
<path fill="none" stroke="#191970" d="M511.8441,-284.5C578.2954,-284.5 676.2629,-284.5 745.3173,-284.5"/>
<polygon fill="#191970" stroke="#191970" points="745.7152,-288.0001 755.7152,-284.5 745.7152,-281.0001 745.7152,-288.0001"/>
</g>
<!-- Node15&#45;&gt;Node7 -->
<g id="edge15" class="edge">
<title>Node15&#45;&gt;Node7</title>
<path fill="none" stroke="#191970" d="M666.6437,-236.5318C699.1844,-246.259 751.1138,-261.7819 787.0444,-272.5225"/>
<polygon fill="#191970" stroke="#191970" points="786.1415,-275.9055 796.7251,-275.4162 788.1464,-269.1988 786.1415,-275.9055"/>
</g>
<!-- Node16&#45;&gt;Node7 -->
<g id="edge17" class="edge">
<title>Node16&#45;&gt;Node7</title>
<path fill="none" stroke="#191970" d="M517.0741,-171.5539C574.9211,-174.6401 654.65,-183.8145 720.0225,-209.5 755.1445,-223.2998 789.8134,-250.8064 809.8054,-268.3972"/>
<polygon fill="#191970" stroke="#191970" points="807.6583,-271.1735 817.4333,-275.2601 812.3402,-265.9697 807.6583,-271.1735"/>
</g>
<!-- Node18&#45;&gt;Node7 -->
<g id="edge20" class="edge">
<title>Node18&#45;&gt;Node7</title>
<path fill="none" stroke="#191970" d="M668.5678,-134.5651C684.8076,-142.4524 704.3403,-153.1793 720.0225,-165.5 759.3418,-196.3911 796.286,-242.6347 814.7748,-267.3965"/>
<polygon fill="#191970" stroke="#191970" points="811.9761,-269.4986 820.7216,-275.479 817.6144,-265.3501 811.9761,-269.4986"/>
</g>
</g>
</svg>
