<?xml version="1.0" encoding="UTF-8" standalone="no"?>
<!DOCTYPE svg PUBLIC "-//W3C//DTD SVG 1.1//EN"
 "http://www.w3.org/Graphics/SVG/1.1/DTD/svg11.dtd">
<!-- Generated by graphviz version 2.38.0 (20140413.2041)
 -->
<!-- Title: QtPassSettings::isHideOnClose Pages: 1 -->
<!--zoomable 82 -->
<svg id="main" version="1.1" xmlns="http://www.w3.org/2000/svg" xmlns:xlink="http://www.w3.org/1999/xlink" xml:space="preserve" onload="init(evt)">
<style type="text/css"><![CDATA[
.edge:hover path { stroke: red; }
.edge:hover polygon { stroke: red; fill: red; }
]]></style>
<script type="text/javascript"><![CDATA[
var edges = document.getElementsByTagName('g');
if (edges && edges.length) {
  for (var i=0;i<edges.length;i++) {
    if (edges[i].id.substr(0,4)=='edge') {
      edges[i].setAttribute('class','edge');
    }
  }
}
]]></script>
        <defs>
                <circle id="rim" cx="0" cy="0" r="7"/>
                <circle id="rim2" cx="0" cy="0" r="3.5"/>
                <g id="zoomPlus">
                        <use xlink:href="#rim" fill="#404040">
                                <set attributeName="fill" to="#808080" begin="zoomplus.mouseover" end="zoomplus.mouseout"/>
                        </use>
                        <path d="M-4,0h8M0,-4v8" fill="none" stroke="white" stroke-width="1.5" pointer-events="none"/>
                </g>
                <g id="zoomMin">
                        <use xlink:href="#rim" fill="#404040">
                                <set attributeName="fill" to="#808080" begin="zoomminus.mouseover" end="zoomminus.mouseout"/>
                        </use>
                        <path d="M-4,0h8" fill="none" stroke="white" stroke-width="1.5" pointer-events="none"/>
                </g>
                <g id="dirArrow">
                        <path fill="none" stroke="white" stroke-width="1.5" d="M0,-3.0v7 M-2.5,-0.5L0,-3.0L2.5,-0.5"/>
                </g>
               <g id="resetDef">
                       <use xlink:href="#rim2" fill="#404040">
                               <set attributeName="fill" to="#808080" begin="reset.mouseover" end="reset.mouseout"/>
                       </use>
               </g>
        </defs>

<script type="text/javascript">
var viewWidth = 674;
var viewHeight = 82;
var sectionId = 'dynsection-36';
</script>
<script xlink:href="svgpan.js"/>
<svg id="graph" class="graph">
<g id="viewport">
<title>QtPassSettings::isHideOnClose</title>
<!-- Node315 -->
<g id="node1" class="node"><title>Node315</title>
<polygon fill="#bfbfbf" stroke="black" points="0,-13.5 0,-41.5 131.605,-41.5 131.605,-13.5 0,-13.5"/>
<text text-anchor="start" x="8" y="-29.5" font-family="Helvetica,sans-Serif" font-size="10.00">QtPassSettings::isHideOn</text>
<text text-anchor="middle" x="65.8027" y="-19.5" font-family="Helvetica,sans-Serif" font-size="10.00">Close</text>
</g>
<!-- Node316 -->
<g id="node2" class="node"><title>Node316</title>
<g id="a_node2"><a xlink:href="class_main_window.html#aeb8091ab5531144b76c1fbb0d63deb56" target="_top" xlink:title="MainWindow::config pops up the configuration screen and handles all inter&#45;window communication. ">
<polygon fill="none" stroke="black" points="178.721,-37.5 178.721,-55.5 284.204,-55.5 284.204,-37.5 178.721,-37.5"/>
<text text-anchor="middle" x="231.462" y="-43.5" font-family="Helvetica,sans-Serif" font-size="10.00">MainWindow::config</text>
</a>
</g>
</g>
<!-- Node315&#45;&gt;Node316 -->
<g id="edge1" class="edge"><title>Node315&#45;&gt;Node316</title>
<path fill="none" stroke="midnightblue" d="M142.229,-36.2566C154.544,-37.6863 167.053,-39.1385 178.632,-40.4828"/>
<polygon fill="midnightblue" stroke="midnightblue" points="142.293,-32.7405 131.956,-35.0639 141.485,-39.6938 142.293,-32.7405"/>
</g>
<!-- Node321 -->
<g id="node7" class="node"><title>Node321</title>
<g id="a_node7"><a xlink:href="class_main_window.html#a4e20a4a065fbb0e4d3532a45a0a91425" target="_top" xlink:title="MainWindow::closeEvent hide or quit. ">
<polygon fill="none" stroke="black" points="167.605,-0.5 167.605,-18.5 295.319,-18.5 295.319,-0.5 167.605,-0.5"/>
<text text-anchor="middle" x="231.462" y="-6.5" font-family="Helvetica,sans-Serif" font-size="10.00">MainWindow::closeEvent</text>
</a>
</g>
</g>
<!-- Node315&#45;&gt;Node321 -->
<g id="edge6" class="edge"><title>Node315&#45;&gt;Node321</title>
<path fill="none" stroke="midnightblue" d="M141.898,-19.2407C150.425,-18.3028 159.051,-17.3542 167.4,-16.4358"/>
<polygon fill="midnightblue" stroke="midnightblue" points="141.513,-15.7618 131.956,-20.3342 142.278,-22.7199 141.513,-15.7618"/>
</g>
<!-- Node317 -->
<g id="node3" class="node"><title>Node317</title>
<g id="a_node3"><a xlink:href="class_main_window.html#a23d2783cb61a373c4b0127970264290a" target="_top" xlink:title="MainWindow::checkConfig make sure we are ready to go as soon as possible. ">
<polygon fill="none" stroke="black" points="345.492,-55.5 345.492,-73.5 479.319,-73.5 479.319,-55.5 345.492,-55.5"/>
<text text-anchor="middle" x="412.405" y="-61.5" font-family="Helvetica,sans-Serif" font-size="10.00">MainWindow::checkConfig</text>
</a>
</g>
</g>
<!-- Node316&#45;&gt;Node317 -->
<g id="edge2" class="edge"><title>Node316&#45;&gt;Node317</title>
<path fill="none" stroke="midnightblue" d="M294.292,-52.7195C310.794,-54.3794 328.686,-56.1792 345.403,-57.8608"/>
<polygon fill="midnightblue" stroke="midnightblue" points="294.52,-49.2249 284.22,-51.7063 293.82,-56.1897 294.52,-49.2249"/>
</g>
<!-- Node319 -->
<g id="node5" class="node"><title>Node319</title>
<g id="a_node5"><a xlink:href="class_main_window.html#a4680b2cbcfd388683a98303f29c0f84f" target="_top" xlink:title="MainWindow::executePassGitInit git init wrapper. ">
<polygon fill="none" stroke="black" points="331.319,-18.5 331.319,-36.5 493.491,-36.5 493.491,-18.5 331.319,-18.5"/>
<text text-anchor="middle" x="412.405" y="-24.5" font-family="Helvetica,sans-Serif" font-size="10.00">MainWindow::executePassGitInit</text>
</a>
</g>
</g>
<!-- Node316&#45;&gt;Node319 -->
<g id="edge4" class="edge"><title>Node316&#45;&gt;Node319</title>
<path fill="none" stroke="midnightblue" d="M294.413,-39.9221C306.248,-38.6655 318.794,-37.3334 331.106,-36.0261"/>
<polygon fill="midnightblue" stroke="midnightblue" points="293.795,-36.468 284.22,-41.0044 294.534,-43.4289 293.795,-36.468"/>
</g>
<!-- Node318 -->
<g id="node4" class="node"><title>Node318</title>
<g id="a_node4"><a xlink:href="class_main_window.html#a8b244be8b7b7db1b08de2a2acb9409db" target="_top" xlink:title="MainWindow::MainWindow handles all of the main functionality and also the main window. ">
<polygon fill="none" stroke="black" points="529.491,-55.5 529.491,-73.5 665.53,-73.5 665.53,-55.5 529.491,-55.5"/>
<text text-anchor="middle" x="597.511" y="-61.5" font-family="Helvetica,sans-Serif" font-size="10.00">MainWindow::MainWindow</text>
</a>
</g>
</g>
<!-- Node317&#45;&gt;Node318 -->
<g id="edge3" class="edge"><title>Node317&#45;&gt;Node318</title>
<path fill="none" stroke="midnightblue" d="M489.885,-64.5C502.961,-64.5 516.459,-64.5 529.271,-64.5"/>
<polygon fill="midnightblue" stroke="midnightblue" points="489.511,-61.0001 479.511,-64.5 489.511,-68.0001 489.511,-61.0001"/>
</g>
<!-- Node320 -->
<g id="node6" class="node"><title>Node320</title>
<g id="a_node6"><a xlink:href="class_config_dialog.html#ad5b80066591f19fdaaa06b7cb5ba7f15" target="_top" xlink:title="ConfigDialog::wizard first&#45;time use wizard. ">
<polygon fill="none" stroke="black" points="543.656,-18.5 543.656,-36.5 651.365,-36.5 651.365,-18.5 543.656,-18.5"/>
<text text-anchor="middle" x="597.511" y="-24.5" font-family="Helvetica,sans-Serif" font-size="10.00">ConfigDialog::wizard</text>
</a>
</g>
</g>
<!-- Node319&#45;&gt;Node320 -->
<g id="edge5" class="edge"><title>Node319&#45;&gt;Node320</title>
<path fill="none" stroke="midnightblue" d="M504.009,-27.5C517.499,-27.5 531.017,-27.5 543.391,-27.5"/>
<polygon fill="midnightblue" stroke="midnightblue" points="503.718,-24.0001 493.718,-27.5 503.718,-31.0001 503.718,-24.0001"/>
</g>
</g>
</svg>
        <g id="navigator" transform="translate(0 0)" fill="#404254">
                <rect fill="#f2f5e9" fill-opacity="0.5" stroke="#606060" stroke-width=".5" x="0" y="0" width="60" height="60"/>
                <use id="zoomplus" xlink:href="#zoomPlus" x="17" y="9" onmousedown="handleZoom(evt,'in')"/>
                <use id="zoomminus" xlink:href="#zoomMin" x="42" y="9" onmousedown="handleZoom(evt,'out')"/>
                <use id="reset" xlink:href="#resetDef" x="30" y="36" onmousedown="handleReset()"/>
                <g id="arrowUp" xlink:href="#dirArrow" transform="translate(30 24)" onmousedown="handlePan(0,-1)">
                  <use xlink:href="#rim" fill="#404040">
                        <set attributeName="fill" to="#808080" begin="arrowUp.mouseover" end="arrowUp.mouseout"/>
                  </use>
                  <path fill="none" stroke="white" stroke-width="1.5" d="M0,-3.0v7 M-2.5,-0.5L0,-3.0L2.5,-0.5"/>
                </g>
                <g id="arrowRight" xlink:href="#dirArrow" transform="rotate(90) translate(36 -43)" onmousedown="handlePan(1,0)">
                  <use xlink:href="#rim" fill="#404040">
                        <set attributeName="fill" to="#808080" begin="arrowRight.mouseover" end="arrowRight.mouseout"/>
                  </use>
                  <path fill="none" stroke="white" stroke-width="1.5" d="M0,-3.0v7 M-2.5,-0.5L0,-3.0L2.5,-0.5"/>
                </g>
                <g id="arrowDown" xlink:href="#dirArrow" transform="rotate(180) translate(-30 -48)" onmousedown="handlePan(0,1)">
                  <use xlink:href="#rim" fill="#404040">
                        <set attributeName="fill" to="#808080" begin="arrowDown.mouseover" end="arrowDown.mouseout"/>
                  </use>
                  <path fill="none" stroke="white" stroke-width="1.5" d="M0,-3.0v7 M-2.5,-0.5L0,-3.0L2.5,-0.5"/>
                </g>
                <g id="arrowLeft" xlink:href="#dirArrow" transform="rotate(270) translate(-36 17)" onmousedown="handlePan(-1,0)">
                  <use xlink:href="#rim" fill="#404040">
                        <set attributeName="fill" to="#808080" begin="arrowLeft.mouseover" end="arrowLeft.mouseout"/>
                  </use>
                  <path fill="none" stroke="white" stroke-width="1.5" d="M0,-3.0v7 M-2.5,-0.5L0,-3.0L2.5,-0.5"/>
                </g>
        </g>
        <svg viewBox="0 0 15 15" width="100%" height="30px" preserveAspectRatio="xMaxYMin meet">
         <g id="arrow_out" transform="scale(0.3 0.3)">
          <a xlink:href="class_qt_pass_settings_a489a5cb534d2d9df3f4ff8179a7e908e_icgraph_org.svg" target="_base">
           <rect id="button" ry="5" rx="5" y="6" x="6" height="38" width="38"
                fill="#f2f5e9" fill-opacity="0.5" stroke="#606060" stroke-width="1.0"/>
           <path id="arrow"
             d="M 11.500037,31.436501 C 11.940474,20.09759 22.043105,11.32322 32.158766,21.979434 L 37.068811,17.246167 C 37.068811,17.246167 37.088388,32 37.088388,32 L 22.160133,31.978069 C 22.160133,31.978069 26.997745,27.140456 26.997745,27.140456 C 18.528582,18.264221 13.291696,25.230495 11.500037,31.436501 z"
             style="fill:#404040;"/>
          </a>
         </g>
        </svg>
</svg>
