<?xml version="1.0" encoding="UTF-8" standalone="no"?>
<!DOCTYPE svg PUBLIC "-//W3C//DTD SVG 1.1//EN"
 "http://www.w3.org/Graphics/SVG/1.1/DTD/svg11.dtd">
<!-- Generated by graphviz version 2.40.1 (20161225.0304)
 -->
<!-- Title: QtPassSettings::setStartMinimized Pages: 1 -->
<!--zoomable 64 -->
<svg id="main" version="1.1" xmlns="http://www.w3.org/2000/svg" xmlns:xlink="http://www.w3.org/1999/xlink" xml:space="preserve" onload="init(evt)">
<style type="text/css"><![CDATA[
.edge:hover path { stroke: red; }
.edge:hover polygon { stroke: red; fill: red; }
]]></style>
<script type="text/javascript"><![CDATA[
var edges = document.getElementsByTagName('g');
if (edges && edges.length) {
  for (var i=0;i<edges.length;i++) {
    if (edges[i].id.substr(0,4)=='edge') {
      edges[i].setAttribute('class','edge');
    }
  }
}
]]></script>
        <defs>
                <circle id="rim" cx="0" cy="0" r="7"/>
                <circle id="rim2" cx="0" cy="0" r="3.5"/>
                <g id="zoomPlus">
                        <use xlink:href="#rim" fill="#404040">
                                <set attributeName="fill" to="#808080" begin="zoomplus.mouseover" end="zoomplus.mouseout"/>
                        </use>
                        <path d="M-4,0h8M0,-4v8" fill="none" stroke="white" stroke-width="1.5" pointer-events="none"/>
                </g>
                <g id="zoomMin">
                        <use xlink:href="#rim" fill="#404040">
                                <set attributeName="fill" to="#808080" begin="zoomminus.mouseover" end="zoomminus.mouseout"/>
                        </use>
                        <path d="M-4,0h8" fill="none" stroke="white" stroke-width="1.5" pointer-events="none"/>
                </g>
                <g id="dirArrow">
                        <path fill="none" stroke="white" stroke-width="1.5" d="M0,-3.0v7 M-2.5,-0.5L0,-3.0L2.5,-0.5"/>
                </g>
               <g id="resetDef">
                       <use xlink:href="#rim2" fill="#404040">
                               <set attributeName="fill" to="#808080" begin="reset.mouseover" end="reset.mouseout"/>
                       </use>
               </g>
        </defs>

<script type="text/javascript">
var viewWidth = 645;
var viewHeight = 64;
var sectionId = 'dynsection-83';
</script>
<script xlink:href="svgpan.js"/>
<svg id="graph" class="graph">
<g id="viewport">
<title>QtPassSettings::setStartMinimized</title>
<!-- Node620 -->
<g id="node1" class="node">
<title>Node620</title>
<polygon fill="#bfbfbf" stroke="#000000" points="0,-13.5 0,-41.5 124.9355,-41.5 124.9355,-13.5 0,-13.5"/>
<text text-anchor="start" x="8" y="-29.5" font-family="Helvetica,sans-Serif" font-size="10.00" fill="#000000">QtPassSettings::setStart</text>
<text text-anchor="middle" x="62.4678" y="-19.5" font-family="Helvetica,sans-Serif" font-size="10.00" fill="#000000">Minimized</text>
</g>
<!-- Node621 -->
<g id="node2" class="node">
<title>Node621</title>
<g id="a_node2"><a xlink:href="class_main_window.html#aeb8091ab5531144b76c1fbb0d63deb56" target="_top" xlink:title="MainWindow::config pops up the configuration screen and handles all inter&#45;window communication. ">
<polygon fill="none" stroke="#000000" points="160.9355,-18.5 160.9355,-36.5 266.418,-36.5 266.418,-18.5 160.9355,-18.5"/>
<text text-anchor="middle" x="213.6768" y="-24.5" font-family="Helvetica,sans-Serif" font-size="10.00" fill="#000000">MainWindow::config</text>
</a>
</g>
</g>
<!-- Node620&#45;&gt;Node621 -->
<g id="edge1" class="edge">
<title>Node620&#45;&gt;Node621</title>
<path fill="none" stroke="#191970" d="M135.3515,-27.5C143.972,-27.5 152.6397,-27.5 160.9056,-27.5"/>
<polygon fill="#191970" stroke="#191970" points="135.2804,-24.0001 125.2804,-27.5 135.2803,-31.0001 135.2804,-24.0001"/>
</g>
<!-- Node622 -->
<g id="node3" class="node">
<title>Node622</title>
<g id="a_node3"><a xlink:href="class_main_window.html#a23d2783cb61a373c4b0127970264290a" target="_top" xlink:title="MainWindow::checkConfig make sure we are ready to go as soon as possible. ">
<polygon fill="none" stroke="#000000" points="316.5903,-37.5 316.5903,-55.5 450.4175,-55.5 450.4175,-37.5 316.5903,-37.5"/>
<text text-anchor="middle" x="383.5039" y="-43.5" font-family="Helvetica,sans-Serif" font-size="10.00" fill="#000000">MainWindow::checkConfig</text>
</a>
</g>
</g>
<!-- Node621&#45;&gt;Node622 -->
<g id="edge2" class="edge">
<title>Node621&#45;&gt;Node622</title>
<path fill="none" stroke="#191970" d="M276.6684,-34.5474C289.5981,-35.994 303.2558,-37.522 316.3266,-38.9843"/>
<polygon fill="#191970" stroke="#191970" points="276.8074,-31.0412 266.4802,-33.4076 276.029,-37.9978 276.8074,-31.0412"/>
</g>
<!-- Node624 -->
<g id="node5" class="node">
<title>Node624</title>
<g id="a_node5"><a xlink:href="class_main_window.html#a4680b2cbcfd388683a98303f29c0f84f" target="_top" xlink:title="MainWindow::executePassGitInit git init wrapper. ">
<polygon fill="none" stroke="#000000" points="302.418,-.5 302.418,-18.5 464.5898,-18.5 464.5898,-.5 302.418,-.5"/>
<text text-anchor="middle" x="383.5039" y="-6.5" font-family="Helvetica,sans-Serif" font-size="10.00" fill="#000000">MainWindow::executePassGitInit</text>
</a>
</g>
</g>
<!-- Node621&#45;&gt;Node624 -->
<g id="edge4" class="edge">
<title>Node621&#45;&gt;Node624</title>
<path fill="none" stroke="#191970" d="M276.5617,-20.8348C284.9727,-19.9433 293.6934,-19.019 302.3616,-18.1003"/>
<polygon fill="#191970" stroke="#191970" points="276.0556,-17.3688 266.4802,-21.9034 276.7934,-24.3298 276.0556,-17.3688"/>
</g>
<!-- Node623 -->
<g id="node4" class="node">
<title>Node623</title>
<g id="a_node4"><a xlink:href="class_main_window.html#a8b244be8b7b7db1b08de2a2acb9409db" target="_top" xlink:title="MainWindow::MainWindow handles all of the main functionality and also the main window. ">
<polygon fill="none" stroke="#000000" points="500.5898,-37.5 500.5898,-55.5 636.6289,-55.5 636.6289,-37.5 500.5898,-37.5"/>
<text text-anchor="middle" x="568.6094" y="-43.5" font-family="Helvetica,sans-Serif" font-size="10.00" fill="#000000">MainWindow::MainWindow</text>
</a>
</g>
</g>
<!-- Node622&#45;&gt;Node623 -->
<g id="edge3" class="edge">
<title>Node622&#45;&gt;Node623</title>
<path fill="none" stroke="#191970" d="M460.6135,-46.5C473.8521,-46.5 487.5246,-46.5 500.5059,-46.5"/>
<polygon fill="#191970" stroke="#191970" points="460.593,-43.0001 450.5929,-46.5 460.5929,-50.0001 460.593,-43.0001"/>
</g>
<!-- Node625 -->
<g id="node6" class="node">
<title>Node625</title>
<g id="a_node6"><a xlink:href="class_config_dialog.html#ad5b80066591f19fdaaa06b7cb5ba7f15" target="_top" xlink:title="ConfigDialog::wizard first&#45;time use wizard. ">
<polygon fill="none" stroke="#000000" points="514.7549,-.5 514.7549,-18.5 622.4639,-18.5 622.4639,-.5 514.7549,-.5"/>
<text text-anchor="middle" x="568.6094" y="-6.5" font-family="Helvetica,sans-Serif" font-size="10.00" fill="#000000">ConfigDialog::wizard</text>
</a>
</g>
</g>
<!-- Node624&#45;&gt;Node625 -->
<g id="edge5" class="edge">
<title>Node624&#45;&gt;Node625</title>
<path fill="none" stroke="#191970" d="M475.038,-9.5C488.5975,-9.5 502.1862,-9.5 514.6397,-9.5"/>
<polygon fill="#191970" stroke="#191970" points="474.6939,-6.0001 464.6939,-9.5 474.6938,-13.0001 474.6939,-6.0001"/>
</g>
</g>
</svg>
        <g id="navigator" transform="translate(0 0)" fill="#404254">
                <rect fill="#f2f5e9" fill-opacity="0.5" stroke="#606060" stroke-width=".5" x="0" y="0" width="60" height="60"/>
                <use id="zoomplus" xlink:href="#zoomPlus" x="17" y="9" onmousedown="handleZoom(evt,'in')"/>
                <use id="zoomminus" xlink:href="#zoomMin" x="42" y="9" onmousedown="handleZoom(evt,'out')"/>
                <use id="reset" xlink:href="#resetDef" x="30" y="36" onmousedown="handleReset()"/>
                <g id="arrowUp" xlink:href="#dirArrow" transform="translate(30 24)" onmousedown="handlePan(0,-1)">
                  <use xlink:href="#rim" fill="#404040">
                        <set attributeName="fill" to="#808080" begin="arrowUp.mouseover" end="arrowUp.mouseout"/>
                  </use>
                  <path fill="none" stroke="white" stroke-width="1.5" d="M0,-3.0v7 M-2.5,-0.5L0,-3.0L2.5,-0.5"/>
                </g>
                <g id="arrowRight" xlink:href="#dirArrow" transform="rotate(90) translate(36 -43)" onmousedown="handlePan(1,0)">
                  <use xlink:href="#rim" fill="#404040">
                        <set attributeName="fill" to="#808080" begin="arrowRight.mouseover" end="arrowRight.mouseout"/>
                  </use>
                  <path fill="none" stroke="white" stroke-width="1.5" d="M0,-3.0v7 M-2.5,-0.5L0,-3.0L2.5,-0.5"/>
                </g>
                <g id="arrowDown" xlink:href="#dirArrow" transform="rotate(180) translate(-30 -48)" onmousedown="handlePan(0,1)">
                  <use xlink:href="#rim" fill="#404040">
                        <set attributeName="fill" to="#808080" begin="arrowDown.mouseover" end="arrowDown.mouseout"/>
                  </use>
                  <path fill="none" stroke="white" stroke-width="1.5" d="M0,-3.0v7 M-2.5,-0.5L0,-3.0L2.5,-0.5"/>
                </g>
                <g id="arrowLeft" xlink:href="#dirArrow" transform="rotate(270) translate(-36 17)" onmousedown="handlePan(-1,0)">
                  <use xlink:href="#rim" fill="#404040">
                        <set attributeName="fill" to="#808080" begin="arrowLeft.mouseover" end="arrowLeft.mouseout"/>
                  </use>
                  <path fill="none" stroke="white" stroke-width="1.5" d="M0,-3.0v7 M-2.5,-0.5L0,-3.0L2.5,-0.5"/>
                </g>
        </g>
        <svg viewBox="0 0 15 15" width="100%" height="30px" preserveAspectRatio="xMaxYMin meet">
         <g id="arrow_out" transform="scale(0.3 0.3)">
          <a xlink:href="class_qt_pass_settings_a07c79f8dba7614bd47dbb314af9fd671_icgraph_org.svg" target="_base">
           <rect id="button" ry="5" rx="5" y="6" x="6" height="38" width="38"
                fill="#f2f5e9" fill-opacity="0.5" stroke="#606060" stroke-width="1.0"/>
           <path id="arrow"
             d="M 11.500037,31.436501 C 11.940474,20.09759 22.043105,11.32322 32.158766,21.979434 L 37.068811,17.246167 C 37.068811,17.246167 37.088388,32 37.088388,32 L 22.160133,31.978069 C 22.160133,31.978069 26.997745,27.140456 26.997745,27.140456 C 18.528582,18.264221 13.291696,25.230495 11.500037,31.436501 z"
             style="fill:#404040;"/>
          </a>
         </g>
        </svg>
</svg>
