<?xml version="1.0" encoding="UTF-8" standalone="no"?>
<!DOCTYPE svg PUBLIC "-//W3C//DTD SVG 1.1//EN"
 "http://www.w3.org/Graphics/SVG/1.1/DTD/svg11.dtd">
<!-- Generated by graphviz version 2.40.1 (20161225.0304)
 -->
<!-- Title: MainWindow::keyPressEvent Pages: 1 -->
<svg width="1127pt" height="549pt"
 viewBox="0.00 0.00 1127.00 548.84" xmlns="http://www.w3.org/2000/svg" xmlns:xlink="http://www.w3.org/1999/xlink">
<g id="graph0" class="graph" transform="scale(1 1) rotate(0) translate(4 544.8384)">
<title>MainWindow::keyPressEvent</title>
<!-- Node230 -->
<g id="node1" class="node">
<title>Node230</title>
<polygon fill="#bfbfbf" stroke="#000000" points="0,-266.5 0,-285.5 146,-285.5 146,-266.5 0,-266.5"/>
<text text-anchor="middle" x="73" y="-273.5" font-family="Helvetica,sans-Serif" font-size="10.00" fill="#000000">MainWindow::keyPressEvent</text>
</g>
<!-- Node231 -->
<g id="node2" class="node">
<title>Node231</title>
<g id="a_node2"><a xlink:href="class_main_window.html#adc7d4b2b210efab401f0b14641f80464" target="_top" xlink:title="MainWindow::on_treeView_clicked read the selected password file. ">
<polygon fill="none" stroke="#000000" points="197,-381 197,-411 330,-411 330,-381 197,-381"/>
<text text-anchor="start" x="205" y="-399" font-family="Helvetica,sans-Serif" font-size="10.00" fill="#000000">MainWindow::on_treeView</text>
<text text-anchor="middle" x="263.5" y="-388" font-family="Helvetica,sans-Serif" font-size="10.00" fill="#000000">_clicked</text>
</a>
</g>
</g>
<!-- Node230&#45;&gt;Node231 -->
<g id="edge1" class="edge">
<title>Node230&#45;&gt;Node231</title>
<path fill="none" stroke="#191970" d="M82.3708,-285.6616C100.2596,-303.6392 141.1442,-342.5284 182,-366 189.2354,-370.1567 197.1514,-373.9183 205.1157,-377.2613"/>
<polygon fill="#191970" stroke="#191970" points="203.8645,-380.5304 214.4492,-380.992 206.4626,-374.0304 203.8645,-380.5304"/>
</g>
<!-- Node232 -->
<g id="node3" class="node">
<title>Node232</title>
<g id="a_node3"><a xlink:href="class_util.html#a5c6a579524d37c6830feb672595f2a1d" target="_top" xlink:title="Util::getDir get selectd folder path. ">
<polygon fill="none" stroke="#000000" points="434,-468.5 434,-487.5 498,-487.5 498,-468.5 434,-468.5"/>
<text text-anchor="middle" x="466" y="-475.5" font-family="Helvetica,sans-Serif" font-size="10.00" fill="#000000">Util::getDir</text>
</a>
</g>
</g>
<!-- Node230&#45;&gt;Node232 -->
<g id="edge15" class="edge">
<title>Node230&#45;&gt;Node232</title>
<path fill="none" stroke="#191970" d="M75.7779,-285.5663C85.0506,-315.586 118.0258,-408.2827 182,-448 256.9033,-494.5024 364.7776,-490.8766 423.6773,-484.3255"/>
<polygon fill="#191970" stroke="#191970" points="424.2247,-487.7851 433.7391,-483.1241 423.3947,-480.8345 424.2247,-487.7851"/>
</g>
<!-- Node233 -->
<g id="node4" class="node">
<title>Node233</title>
<g id="a_node4"><a xlink:href="class_qt_pass_settings.html#abb8c53443d71181a3ecd6545464453e6" target="_top" xlink:title="QtPassSettings::getPassStore">
<polygon fill="none" stroke="#000000" points="590.5,-494.5 590.5,-513.5 741.5,-513.5 741.5,-494.5 590.5,-494.5"/>
<text text-anchor="middle" x="666" y="-501.5" font-family="Helvetica,sans-Serif" font-size="10.00" fill="#000000">QtPassSettings::getPassStore</text>
</a>
</g>
</g>
<!-- Node230&#45;&gt;Node233 -->
<g id="edge16" class="edge">
<title>Node230&#45;&gt;Node233</title>
<path fill="none" stroke="#191970" d="M74.7038,-285.5376C81.2992,-319.331 108.5413,-433.906 182,-482 319.866,-572.2619 530.1658,-537.2602 621.3013,-515.8536"/>
<polygon fill="#191970" stroke="#191970" points="622.1344,-519.2532 631.0381,-513.5108 620.4968,-512.4474 622.1344,-519.2532"/>
</g>
<!-- Node236 -->
<g id="node7" class="node">
<title>Node236</title>
<g id="a_node7"><a xlink:href="class_qt_pass_settings.html#a987e913eac7cd497e2fca27426494a64" target="_top" xlink:title="QtPassSettings::getPass">
<polygon fill="none" stroke="#000000" points="402,-418.5 402,-437.5 530,-437.5 530,-418.5 402,-418.5"/>
<text text-anchor="middle" x="466" y="-425.5" font-family="Helvetica,sans-Serif" font-size="10.00" fill="#000000">QtPassSettings::getPass</text>
</a>
</g>
</g>
<!-- Node230&#45;&gt;Node236 -->
<g id="edge17" class="edge">
<title>Node230&#45;&gt;Node236</title>
<path fill="none" stroke="#191970" d="M76.7817,-285.7455C87.9568,-313.0057 123.7393,-390.0003 182,-420 255.582,-457.889 354.714,-449.5468 414.2918,-439.2998"/>
<polygon fill="#191970" stroke="#191970" points="415.0011,-442.7285 424.2221,-437.5109 413.7599,-435.8394 415.0011,-442.7285"/>
</g>
<!-- Node242 -->
<g id="node13" class="node">
<title>Node242</title>
<g id="a_node13"><a xlink:href="class_pass.html#a6520ffa669cd7934091934b24593d99c" target="_top" xlink:title="Pass::Show">
<polygon fill="none" stroke="#000000" points="431,-342.5 431,-361.5 501,-361.5 501,-342.5 431,-342.5"/>
<text text-anchor="middle" x="466" y="-349.5" font-family="Helvetica,sans-Serif" font-size="10.00" fill="#000000">Pass::Show</text>
</a>
</g>
</g>
<!-- Node230&#45;&gt;Node242 -->
<g id="edge23" class="edge">
<title>Node230&#45;&gt;Node242</title>
<path fill="none" stroke="#191970" d="M88.5478,-285.6498C109.0875,-297.8625 146.7887,-318.4549 182,-328 264.0508,-350.2424 363.8839,-353.4398 420.6753,-353.1372"/>
<polygon fill="#191970" stroke="#191970" points="420.7975,-356.6363 430.7646,-353.0437 420.7326,-349.6366 420.7975,-356.6363"/>
</g>
<!-- Node243 -->
<g id="node14" class="node">
<title>Node243</title>
<g id="a_node14"><a xlink:href="class_pass.html#ab9dde6644865bd583dc09a52d17ffb49" target="_top" xlink:title="Pass::Move">
<polygon fill="none" stroke="#000000" points="229,-.5 229,-19.5 298,-19.5 298,-.5 229,-.5"/>
<text text-anchor="middle" x="263.5" y="-7.5" font-family="Helvetica,sans-Serif" font-size="10.00" fill="#000000">Pass::Move</text>
</a>
</g>
</g>
<!-- Node230&#45;&gt;Node243 -->
<g id="edge18" class="edge">
<title>Node230&#45;&gt;Node243</title>
<path fill="none" stroke="#191970" d="M74.1849,-266.3725C79.2792,-229.3102 102.7906,-94.6574 182,-29 192.2383,-20.5134 205.5741,-15.6665 218.4835,-12.9416"/>
<polygon fill="#191970" stroke="#191970" points="219.4189,-16.332 228.6779,-11.1822 218.2283,-9.434 219.4189,-16.332"/>
</g>
<!-- Node244 -->
<g id="node15" class="node">
<title>Node244</title>
<g id="a_node15"><a xlink:href="class_qt_pass_settings.html#a2fd748b9e34c57aac277e8f0556a532f" target="_top" xlink:title="QtPassSettings::isUseGit">
<polygon fill="none" stroke="#000000" points="795.5,-304.5 795.5,-323.5 925.5,-323.5 925.5,-304.5 795.5,-304.5"/>
<text text-anchor="middle" x="860.5" y="-311.5" font-family="Helvetica,sans-Serif" font-size="10.00" fill="#000000">QtPassSettings::isUseGit</text>
</a>
</g>
</g>
<!-- Node230&#45;&gt;Node244 -->
<g id="edge19" class="edge">
<title>Node230&#45;&gt;Node244</title>
<path fill="none" stroke="#191970" d="M139.4748,-285.5306C153.4937,-287.2618 168.2136,-288.8732 182,-290 400.5315,-307.8607 659.7288,-312.4369 785.1062,-313.6042"/>
<polygon fill="#191970" stroke="#191970" points="785.3285,-317.1062 795.3591,-313.6948 785.3904,-310.1065 785.3285,-317.1062"/>
</g>
<!-- Node245 -->
<g id="node16" class="node">
<title>Node245</title>
<g id="a_node16"><a xlink:href="class_qt_pass_settings.html#a58728db227ada76454d01992bfef64c8" target="_top" xlink:title="QtPassSettings::isAutoPull">
<polygon fill="none" stroke="#000000" points="792.5,-266.5 792.5,-285.5 928.5,-285.5 928.5,-266.5 792.5,-266.5"/>
<text text-anchor="middle" x="860.5" y="-273.5" font-family="Helvetica,sans-Serif" font-size="10.00" fill="#000000">QtPassSettings::isAutoPull</text>
</a>
</g>
</g>
<!-- Node230&#45;&gt;Node245 -->
<g id="edge21" class="edge">
<title>Node230&#45;&gt;Node245</title>
<path fill="none" stroke="#191970" d="M146.0264,-276C294.2817,-276 629.4006,-276 782.0737,-276"/>
<polygon fill="#191970" stroke="#191970" points="782.3042,-279.5001 792.3042,-276 782.3041,-272.5001 782.3042,-279.5001"/>
</g>
<!-- Node246 -->
<g id="node17" class="node">
<title>Node246</title>
<g id="a_node17"><a xlink:href="class_qt_pass.html#acba134fb5281aedee11899a03976aa95" target="_top" xlink:title="MainWindow::copyTextToClipboard copies text to your clipboard. ">
<polygon fill="none" stroke="#000000" points="189,-223.5 189,-242.5 338,-242.5 338,-223.5 189,-223.5"/>
<text text-anchor="middle" x="263.5" y="-230.5" font-family="Helvetica,sans-Serif" font-size="10.00" fill="#000000">QtPass::copyTextToClipboard</text>
</a>
</g>
</g>
<!-- Node230&#45;&gt;Node246 -->
<g id="edge24" class="edge">
<title>Node230&#45;&gt;Node246</title>
<path fill="none" stroke="#191970" d="M115.2781,-266.4569C143.641,-260.0548 181.1922,-251.5787 211.4008,-244.7599"/>
<polygon fill="#191970" stroke="#191970" points="212.3561,-248.1324 221.3401,-242.5164 210.8148,-241.3042 212.3561,-248.1324"/>
</g>
<!-- Node250 -->
<g id="node21" class="node">
<title>Node250</title>
<g id="a_node21"><a xlink:href="class_qt_pass_settings.html#aa4b984b4d3e600542482b132c8e816bc" target="_top" xlink:title="QtPassSettings::getClipBoardType">
<polygon fill="none" stroke="#000000" points="381,-114.5 381,-133.5 551,-133.5 551,-114.5 381,-114.5"/>
<text text-anchor="middle" x="466" y="-121.5" font-family="Helvetica,sans-Serif" font-size="10.00" fill="#000000">QtPassSettings::getClipBoardType</text>
</a>
</g>
</g>
<!-- Node230&#45;&gt;Node250 -->
<g id="edge30" class="edge">
<title>Node230&#45;&gt;Node250</title>
<path fill="none" stroke="#191970" d="M79.2834,-266.4273C94.1747,-244.6184 133.9884,-191.2575 182,-167 240.2585,-137.5653 313.1862,-126.9891 370.5525,-123.6817"/>
<polygon fill="#191970" stroke="#191970" points="370.9027,-127.1685 380.7108,-123.1621 370.545,-120.1776 370.9027,-127.1685"/>
</g>
<!-- Node252 -->
<g id="node23" class="node">
<title>Node252</title>
<g id="a_node23"><a xlink:href="class_qt_pass_settings.html#aaffd9393d60a4a10b1f8da9350d44bd4" target="_top" xlink:title="QtPassSettings::isUseQrencode">
<polygon fill="none" stroke="#000000" points="781,-101.5 781,-120.5 940,-120.5 940,-101.5 781,-101.5"/>
<text text-anchor="middle" x="860.5" y="-108.5" font-family="Helvetica,sans-Serif" font-size="10.00" fill="#000000">QtPassSettings::isUseQrencode</text>
</a>
</g>
</g>
<!-- Node230&#45;&gt;Node252 -->
<g id="edge33" class="edge">
<title>Node230&#45;&gt;Node252</title>
<path fill="none" stroke="#191970" d="M76.5394,-266.2574C87.3048,-238.2068 122.5976,-157.0901 182,-123 279.6125,-66.9817 609.436,-87.8936 770.5001,-102.1092"/>
<polygon fill="#191970" stroke="#191970" points="770.589,-105.631 780.8608,-103.035 771.2121,-98.6588 770.589,-105.631"/>
</g>
<!-- Node253 -->
<g id="node24" class="node">
<title>Node253</title>
<g id="a_node24"><a xlink:href="class_qt_pass.html#aef5aaf0605c7681967995ede486590ef" target="_top" xlink:title="displays the text as qrcode ">
<polygon fill="none" stroke="#000000" points="189,-176.5 189,-195.5 338,-195.5 338,-176.5 189,-176.5"/>
<text text-anchor="middle" x="263.5" y="-183.5" font-family="Helvetica,sans-Serif" font-size="10.00" fill="#000000">QtPass::showTextAsQRCode</text>
</a>
</g>
</g>
<!-- Node230&#45;&gt;Node253 -->
<g id="edge35" class="edge">
<title>Node230&#45;&gt;Node253</title>
<path fill="none" stroke="#191970" d="M87.7,-266.4608C108.2169,-253.4241 146.8787,-229.855 182,-214 194.6048,-208.3098 208.7329,-203.0782 221.6408,-198.7159"/>
<polygon fill="#191970" stroke="#191970" points="222.8262,-202.0104 231.2283,-195.5563 220.6352,-195.3622 222.8262,-202.0104"/>
</g>
<!-- Node254 -->
<g id="node25" class="node">
<title>Node254</title>
<g id="a_node25"><a xlink:href="class_qt_pass_settings.html#afae88e1bac8875b10de43f0786314761" target="_top" xlink:title="QtPassSettings::isHidePassword">
<polygon fill="none" stroke="#000000" points="182,-38.5 182,-57.5 345,-57.5 345,-38.5 182,-38.5"/>
<text text-anchor="middle" x="263.5" y="-45.5" font-family="Helvetica,sans-Serif" font-size="10.00" fill="#000000">QtPassSettings::isHidePassword</text>
</a>
</g>
</g>
<!-- Node230&#45;&gt;Node254 -->
<g id="edge37" class="edge">
<title>Node230&#45;&gt;Node254</title>
<path fill="none" stroke="#191970" d="M75.3398,-266.1722C83.6717,-233.3467 115.0449,-126.5026 182,-72 187.2263,-67.7457 193.183,-64.2455 199.4428,-61.3657"/>
<polygon fill="#191970" stroke="#191970" points="200.8322,-64.5792 208.7815,-57.5749 198.1993,-58.0932 200.8322,-64.5792"/>
</g>
<!-- Node231&#45;&gt;Node232 -->
<g id="edge2" class="edge">
<title>Node231&#45;&gt;Node232</title>
<path fill="none" stroke="#191970" d="M296.7046,-411.0434C320.1163,-421.4945 352.2898,-435.5457 381,-447 396.678,-453.2549 414.1712,-459.721 429.1932,-465.1188"/>
<polygon fill="#191970" stroke="#191970" points="428.0694,-468.4338 438.664,-468.4987 430.4222,-461.8411 428.0694,-468.4338"/>
</g>
<!-- Node235 -->
<g id="node6" class="node">
<title>Node235</title>
<g id="a_node6"><a xlink:href="class_qt_pass.html#a00f9914078839b980f3d66ddbed61cab" target="_top" xlink:title="QtPass::clearClippedText">
<polygon fill="none" stroke="#000000" points="401.5,-380.5 401.5,-399.5 530.5,-399.5 530.5,-380.5 401.5,-380.5"/>
<text text-anchor="middle" x="466" y="-387.5" font-family="Helvetica,sans-Serif" font-size="10.00" fill="#000000">QtPass::clearClippedText</text>
</a>
</g>
</g>
<!-- Node231&#45;&gt;Node235 -->
<g id="edge5" class="edge">
<title>Node231&#45;&gt;Node235</title>
<path fill="none" stroke="#191970" d="M330.0865,-394.0271C349.7108,-393.4456 371.3109,-392.8056 391.4033,-392.2103"/>
<polygon fill="#191970" stroke="#191970" points="391.5493,-395.7076 401.4412,-391.9129 391.3419,-388.7107 391.5493,-395.7076"/>
</g>
<!-- Node231&#45;&gt;Node236 -->
<g id="edge6" class="edge">
<title>Node231&#45;&gt;Node236</title>
<path fill="none" stroke="#191970" d="M330.0865,-406.5223C351.1837,-409.8562 374.5644,-413.5509 395.9005,-416.9225"/>
<polygon fill="#191970" stroke="#191970" points="395.4427,-420.3936 405.8664,-418.4974 396.5354,-413.4794 395.4427,-420.3936"/>
</g>
<!-- Node231&#45;&gt;Node242 -->
<g id="edge14" class="edge">
<title>Node231&#45;&gt;Node242</title>
<path fill="none" stroke="#191970" d="M330.0865,-381.5318C359.9339,-375.0465 394.3516,-367.568 421.0841,-361.7595"/>
<polygon fill="#191970" stroke="#191970" points="421.8989,-365.1642 430.9277,-359.6206 420.4125,-358.3238 421.8989,-365.1642"/>
</g>
<!-- Node232&#45;&gt;Node233 -->
<g id="edge3" class="edge">
<title>Node232&#45;&gt;Node233</title>
<path fill="none" stroke="#191970" d="M498.1335,-482.1773C521.0501,-485.1565 552.9701,-489.3061 582.829,-493.1878"/>
<polygon fill="#191970" stroke="#191970" points="582.4923,-496.6734 592.8601,-494.4918 583.3948,-489.7318 582.4923,-496.6734"/>
</g>
<!-- Node234 -->
<g id="node5" class="node">
<title>Node234</title>
<g id="a_node5"><a xlink:href="class_qt_pass_settings.html#ab83659fdbfb9069942e6982076b4b934" target="_top" xlink:title="QtPassSettings::getInstance">
<polygon fill="none" stroke="#000000" points="976,-247.5 976,-266.5 1119,-266.5 1119,-247.5 976,-247.5"/>
<text text-anchor="middle" x="1047.5" y="-254.5" font-family="Helvetica,sans-Serif" font-size="10.00" fill="#000000">QtPassSettings::getInstance</text>
</a>
</g>
</g>
<!-- Node233&#45;&gt;Node234 -->
<g id="edge4" class="edge">
<title>Node233&#45;&gt;Node234</title>
<path fill="none" stroke="#191970" d="M741.7015,-511.4169C800.8922,-513.2795 882.5089,-506.7637 940,-466 1006.3039,-418.9877 1034.5112,-318.594 1043.7642,-276.3581"/>
<polygon fill="#191970" stroke="#191970" points="1047.2034,-277.0102 1045.8044,-266.5081 1040.3489,-275.5904 1047.2034,-277.0102"/>
</g>
<!-- Node237 -->
<g id="node8" class="node">
<title>Node237</title>
<g id="a_node8"><a xlink:href="class_qt_pass_settings.html#a30ef36260f73f9f18d338f2b18a1f493" target="_top" xlink:title="QtPassSettings::isUsePass">
<polygon fill="none" stroke="#000000" points="790.5,-437.5 790.5,-456.5 930.5,-456.5 930.5,-437.5 790.5,-437.5"/>
<text text-anchor="middle" x="860.5" y="-444.5" font-family="Helvetica,sans-Serif" font-size="10.00" fill="#000000">QtPassSettings::isUsePass</text>
</a>
</g>
</g>
<!-- Node236&#45;&gt;Node237 -->
<g id="edge7" class="edge">
<title>Node236&#45;&gt;Node237</title>
<path fill="none" stroke="#191970" d="M515.2465,-437.5132C537.128,-441.2788 563.2561,-445.1472 587,-447 651.8187,-452.0581 725.5418,-451.7054 780.1007,-450.283"/>
<polygon fill="#191970" stroke="#191970" points="780.5047,-453.7732 790.4032,-449.9958 780.3095,-446.7759 780.5047,-453.7732"/>
</g>
<!-- Node238 -->
<g id="node9" class="node">
<title>Node238</title>
<g id="a_node9"><a xlink:href="class_qt_pass_settings.html#aaaeff5fa2e3a6b1f815b9a8247339b3a" target="_top" xlink:title="QtPassSettings::getRealPass">
<polygon fill="none" stroke="#000000" points="592,-380.5 592,-399.5 740,-399.5 740,-380.5 592,-380.5"/>
<text text-anchor="middle" x="666" y="-387.5" font-family="Helvetica,sans-Serif" font-size="10.00" fill="#000000">QtPassSettings::getRealPass</text>
</a>
</g>
</g>
<!-- Node236&#45;&gt;Node238 -->
<g id="edge9" class="edge">
<title>Node236&#45;&gt;Node238</title>
<path fill="none" stroke="#191970" d="M516.2103,-418.46C543.4326,-413.2878 577.2639,-406.8599 605.8829,-401.4222"/>
<polygon fill="#191970" stroke="#191970" points="606.5981,-404.8491 615.7691,-399.5439 605.2915,-397.9721 606.5981,-404.8491"/>
</g>
<!-- Node239 -->
<g id="node10" class="node">
<title>Node239</title>
<g id="a_node10"><a xlink:href="class_qt_pass_settings.html#a2d6c10abe565eaadb5a222501adfe31f" target="_top" xlink:title="QtPassSettings::getImitatePass">
<polygon fill="none" stroke="#000000" points="587,-342.5 587,-361.5 745,-361.5 745,-342.5 587,-342.5"/>
<text text-anchor="middle" x="666" y="-349.5" font-family="Helvetica,sans-Serif" font-size="10.00" fill="#000000">QtPassSettings::getImitatePass</text>
</a>
</g>
</g>
<!-- Node236&#45;&gt;Node239 -->
<g id="edge10" class="edge">
<title>Node236&#45;&gt;Node239</title>
<path fill="none" stroke="#191970" d="M528.8758,-418.4263C536.5939,-415.9689 544.1614,-412.8808 551,-409 571.2335,-397.5178 566.8596,-382.6448 587,-371 590.8831,-368.7549 595.0203,-366.7744 599.2886,-365.0274"/>
<polygon fill="#191970" stroke="#191970" points="600.5969,-368.2758 608.7944,-361.5638 598.2004,-361.6988 600.5969,-368.2758"/>
</g>
<!-- Node240 -->
<g id="node11" class="node">
<title>Node240</title>
<g id="a_node11"><a xlink:href="class_pass.html#a012c47a55b3cc3467ad0f013716f623a" target="_top" xlink:title="Pass::init">
<polygon fill="none" stroke="#000000" points="637,-418.5 637,-437.5 695,-437.5 695,-418.5 637,-418.5"/>
<text text-anchor="middle" x="666" y="-425.5" font-family="Helvetica,sans-Serif" font-size="10.00" fill="#000000">Pass::init</text>
</a>
</g>
</g>
<!-- Node236&#45;&gt;Node240 -->
<g id="edge11" class="edge">
<title>Node236&#45;&gt;Node240</title>
<path fill="none" stroke="#191970" d="M530.1065,-428C561.9188,-428 599.319,-428 626.8217,-428"/>
<polygon fill="#191970" stroke="#191970" points="626.8456,-431.5001 636.8456,-428 626.8455,-424.5001 626.8456,-431.5001"/>
</g>
<!-- Node237&#45;&gt;Node234 -->
<g id="edge8" class="edge">
<title>Node237&#45;&gt;Node234</title>
<path fill="none" stroke="#191970" d="M889.0229,-437.4671C905.1556,-431.1228 925.0306,-421.6228 940,-409 986.1534,-370.0816 1022.1857,-307.0366 1038.2959,-275.7906"/>
<polygon fill="#191970" stroke="#191970" points="1041.4351,-277.3387 1042.8141,-266.834 1035.1852,-274.1859 1041.4351,-277.3387"/>
</g>
<!-- Node241 -->
<g id="node12" class="node">
<title>Node241</title>
<g id="a_node12"><a xlink:href="class_qt_pass_settings.html#ae3f04477e57019e329ed9944806ec1da" target="_top" xlink:title="QtPassSettings::getGpgHome">
<polygon fill="none" stroke="#000000" points="786,-380.5 786,-399.5 935,-399.5 935,-380.5 786,-380.5"/>
<text text-anchor="middle" x="860.5" y="-387.5" font-family="Helvetica,sans-Serif" font-size="10.00" fill="#000000">QtPassSettings::getGpgHome</text>
</a>
</g>
</g>
<!-- Node240&#45;&gt;Node241 -->
<g id="edge12" class="edge">
<title>Node240&#45;&gt;Node241</title>
<path fill="none" stroke="#191970" d="M695.1186,-422.311C723.0901,-416.8461 766.1736,-408.4288 801.3543,-401.5555"/>
<polygon fill="#191970" stroke="#191970" points="802.3762,-404.9221 811.5195,-399.5695 801.0339,-398.0519 802.3762,-404.9221"/>
</g>
<!-- Node241&#45;&gt;Node234 -->
<g id="edge13" class="edge">
<title>Node241&#45;&gt;Node234</title>
<path fill="none" stroke="#191970" d="M873.9486,-380.435C905.8132,-357.7719 986.1663,-300.6224 1025.3405,-272.7605"/>
<polygon fill="#191970" stroke="#191970" points="1027.8015,-275.3052 1033.922,-266.6571 1023.7443,-269.6008 1027.8015,-275.3052"/>
</g>
<!-- Node244&#45;&gt;Node234 -->
<g id="edge20" class="edge">
<title>Node244&#45;&gt;Node234</title>
<path fill="none" stroke="#191970" d="M904.0423,-304.4663C915.7812,-301.6591 928.4318,-298.4167 940,-295 964.7469,-287.691 992.1648,-277.9726 1013.1169,-270.1937"/>
<polygon fill="#191970" stroke="#191970" points="1014.4117,-273.4463 1022.5487,-266.6611 1011.9564,-266.891 1014.4117,-273.4463"/>
</g>
<!-- Node245&#45;&gt;Node234 -->
<g id="edge22" class="edge">
<title>Node245&#45;&gt;Node234</title>
<path fill="none" stroke="#191970" d="M928.5403,-269.0868C940.5334,-267.8683 953.1314,-266.5883 965.4596,-265.3357"/>
<polygon fill="#191970" stroke="#191970" points="966.1376,-268.7849 975.7326,-264.2919 965.43,-261.8207 966.1376,-268.7849"/>
</g>
<!-- Node247 -->
<g id="node18" class="node">
<title>Node247</title>
<g id="a_node18"><a xlink:href="class_qt_pass_settings.html#afc90db0b809b9759a66f3a667184a7f2" target="_top" xlink:title="QtPassSettings::isUseSelection">
<polygon fill="none" stroke="#000000" points="587,-190.5 587,-209.5 745,-209.5 745,-190.5 587,-190.5"/>
<text text-anchor="middle" x="666" y="-197.5" font-family="Helvetica,sans-Serif" font-size="10.00" fill="#000000">QtPassSettings::isUseSelection</text>
</a>
</g>
</g>
<!-- Node246&#45;&gt;Node247 -->
<g id="edge25" class="edge">
<title>Node246&#45;&gt;Node247</title>
<path fill="none" stroke="#191970" d="M338.2639,-226.8703C405.6535,-221.3452 504.8641,-213.2111 576.4623,-207.341"/>
<polygon fill="#191970" stroke="#191970" points="577.1381,-210.7974 586.8186,-206.4919 576.566,-203.8208 577.1381,-210.7974"/>
</g>
<!-- Node248 -->
<g id="node19" class="node">
<title>Node248</title>
<g id="a_node19"><a xlink:href="class_main_window.html#a3c11bd64b8c0a631a9f8cd9ec77fe68c" target="_top" xlink:title="Displays message in status bar. ">
<polygon fill="none" stroke="#000000" points="381,-152.5 381,-171.5 551,-171.5 551,-152.5 381,-152.5"/>
<text text-anchor="middle" x="466" y="-159.5" font-family="Helvetica,sans-Serif" font-size="10.00" fill="#000000">MainWindow::showStatusMessage</text>
</a>
</g>
</g>
<!-- Node246&#45;&gt;Node248 -->
<g id="edge27" class="edge">
<title>Node246&#45;&gt;Node248</title>
<path fill="none" stroke="#191970" d="M294.8904,-223.473C310.2154,-218.5057 328.797,-212.0091 345,-205 361.6047,-197.8171 364.2016,-192.7174 381,-186 392.012,-181.5965 404.1287,-177.6631 415.6775,-174.3177"/>
<polygon fill="#191970" stroke="#191970" points="416.9503,-177.5961 425.6382,-171.5321 415.065,-170.8548 416.9503,-177.5961"/>
</g>
<!-- Node249 -->
<g id="node20" class="node">
<title>Node249</title>
<g id="a_node20"><a xlink:href="class_qt_pass_settings.html#ae105a118fa69c7c5bdf506355d20ffae" target="_top" xlink:title="QtPassSettings::isUseAutoclear">
<polygon fill="none" stroke="#000000" points="781.5,-228.5 781.5,-247.5 939.5,-247.5 939.5,-228.5 781.5,-228.5"/>
<text text-anchor="middle" x="860.5" y="-235.5" font-family="Helvetica,sans-Serif" font-size="10.00" fill="#000000">QtPassSettings::isUseAutoclear</text>
</a>
</g>
</g>
<!-- Node246&#45;&gt;Node249 -->
<g id="edge28" class="edge">
<title>Node246&#45;&gt;Node249</title>
<path fill="none" stroke="#191970" d="M338.2044,-233.6257C448.2559,-234.5474 653.6079,-236.2672 771.3739,-237.2536"/>
<polygon fill="#191970" stroke="#191970" points="771.4143,-240.7539 781.4433,-237.3379 771.473,-233.7542 771.4143,-240.7539"/>
</g>
<!-- Node247&#45;&gt;Node234 -->
<g id="edge26" class="edge">
<title>Node247&#45;&gt;Node234</title>
<path fill="none" stroke="#191970" d="M745.0134,-199.8505C800.1693,-201.1109 875.2176,-205.5638 940,-219 966.4373,-224.4832 995.2201,-234.911 1016.3438,-243.4578"/>
<polygon fill="#191970" stroke="#191970" points="1015.1852,-246.766 1025.764,-247.3498 1017.8582,-240.2964 1015.1852,-246.766"/>
</g>
<!-- Node249&#45;&gt;Node234 -->
<g id="edge29" class="edge">
<title>Node249&#45;&gt;Node234</title>
<path fill="none" stroke="#191970" d="M939.5338,-246.0302C948.2029,-246.911 957.042,-247.8091 965.7433,-248.6932"/>
<polygon fill="#191970" stroke="#191970" points="965.5735,-252.1939 975.8761,-249.7227 966.2812,-245.2297 965.5735,-252.1939"/>
</g>
<!-- Node251 -->
<g id="node22" class="node">
<title>Node251</title>
<g id="a_node22"><a xlink:href="class_qt_pass_settings.html#ab122639d09aca2dc270b73d5908dd021" target="_top" xlink:title="QtPassSettings::getClipBoard\lTypeRaw">
<polygon fill="none" stroke="#000000" points="592,-128 592,-158 740,-158 740,-128 592,-128"/>
<text text-anchor="start" x="600" y="-146" font-family="Helvetica,sans-Serif" font-size="10.00" fill="#000000">QtPassSettings::getClipBoard</text>
<text text-anchor="middle" x="666" y="-135" font-family="Helvetica,sans-Serif" font-size="10.00" fill="#000000">TypeRaw</text>
</a>
</g>
</g>
<!-- Node250&#45;&gt;Node251 -->
<g id="edge31" class="edge">
<title>Node250&#45;&gt;Node251</title>
<path fill="none" stroke="#191970" d="M551.108,-132.0853C561.2348,-133.0473 571.5701,-134.0292 581.6857,-134.9901"/>
<polygon fill="#191970" stroke="#191970" points="581.426,-138.4811 591.7123,-135.9427 582.0881,-131.5125 581.426,-138.4811"/>
</g>
<!-- Node251&#45;&gt;Node234 -->
<g id="edge32" class="edge">
<title>Node251&#45;&gt;Node234</title>
<path fill="none" stroke="#191970" d="M740.0528,-151.655C796.1509,-159.6839 874.4839,-174.083 940,-198 970.8343,-209.2562 1003.5215,-228.3554 1024.6448,-241.7671"/>
<polygon fill="#191970" stroke="#191970" points="1022.9197,-244.8194 1033.2192,-247.3037 1026.7169,-238.9388 1022.9197,-244.8194"/>
</g>
<!-- Node252&#45;&gt;Node234 -->
<g id="edge34" class="edge">
<title>Node252&#45;&gt;Node234</title>
<path fill="none" stroke="#191970" d="M901.5534,-120.5762C914.4997,-124.7109 928.4305,-130.3908 940,-138 981.8485,-165.5234 1017.9692,-213.1327 1035.7449,-239.0038"/>
<polygon fill="#191970" stroke="#191970" points="1032.9561,-241.1288 1041.4405,-247.4743 1038.765,-237.2228 1032.9561,-241.1288"/>
</g>
<!-- Node253&#45;&gt;Node248 -->
<g id="edge36" class="edge">
<title>Node253&#45;&gt;Node248</title>
<path fill="none" stroke="#191970" d="M338.0408,-177.1655C350.3207,-175.7101 363.165,-174.1879 375.7783,-172.6929"/>
<polygon fill="#191970" stroke="#191970" points="376.3107,-176.1544 385.8292,-171.5017 375.4867,-169.2031 376.3107,-176.1544"/>
</g>
<!-- Node254&#45;&gt;Node234 -->
<g id="edge38" class="edge">
<title>Node254&#45;&gt;Node234</title>
<path fill="none" stroke="#191970" d="M306.4751,-38.4556C419.4418,-15.8121 730.4513,30.5398 940,-92 996.7024,-125.1584 1028.8433,-201.4802 1041.3523,-237.5023"/>
<polygon fill="#191970" stroke="#191970" points="1038.1323,-238.9111 1044.6096,-247.2953 1044.7746,-236.7018 1038.1323,-238.9111"/>
</g>
</g>
</svg>
