<?xml version="1.0" encoding="UTF-8" standalone="no"?>
<!DOCTYPE svg PUBLIC "-//W3C//DTD SVG 1.1//EN"
 "http://www.w3.org/Graphics/SVG/1.1/DTD/svg11.dtd">
<!-- Generated by graphviz version 2.49.3 (0)
 -->
<!-- Title: QtPassSettings::initExecutables Pages: 1 -->
<!--zoomable 347 -->
<svg id="main" version="1.1" xmlns="http://www.w3.org/2000/svg" xmlns:xlink="http://www.w3.org/1999/xlink" xml:space="preserve" onload="init(evt)">
<style type="text/css"><![CDATA[
.edge:hover path { stroke: red; }
.edge:hover polygon { stroke: red; fill: red; }
]]></style>
<script type="text/javascript"><![CDATA[
var edges = document.getElementsByTagName('g');
if (edges && edges.length) {
  for (var i=0;i<edges.length;i++) {
    if (edges[i].id.substr(0,4)=='edge') {
      edges[i].setAttribute('class','edge');
    }
  }
}
]]></script>
        <defs>
                <circle id="rim" cx="0" cy="0" r="7"/>
                <circle id="rim2" cx="0" cy="0" r="3.5"/>
                <g id="zoomPlus">
                        <use xlink:href="#rim" fill="#404040">
                                <set attributeName="fill" to="#808080" begin="zoomplus.mouseover" end="zoomplus.mouseout"/>
                        </use>
                        <path d="M-4,0h8M0,-4v8" fill="none" stroke="white" stroke-width="1.5" pointer-events="none"/>
                </g>
                <g id="zoomMin">
                        <use xlink:href="#rim" fill="#404040">
                                <set attributeName="fill" to="#808080" begin="zoomminus.mouseover" end="zoomminus.mouseout"/>
                        </use>
                        <path d="M-4,0h8" fill="none" stroke="white" stroke-width="1.5" pointer-events="none"/>
                </g>
                <g id="dirArrow">
                        <path fill="none" stroke="white" stroke-width="1.5" d="M0,-3.0v7 M-2.5,-0.5L0,-3.0L2.5,-0.5"/>
                </g>
               <g id="resetDef">
                       <use xlink:href="#rim2" fill="#404040">
                               <set attributeName="fill" to="#808080" begin="reset.mouseover" end="reset.mouseout"/>
                       </use>
               </g>
        </defs>

<script type="text/javascript">
var viewWidth = 557;
var viewHeight = 347;
var sectionId = 'dynsection-52';
</script>
<script xlink:href="svgpan.js"/>
<svg id="graph" class="graph">
<g id="viewport">
<title>QtPassSettings::initExecutables</title>
<!-- Node1 -->
<g id="node1" class="node">
<title>Node1</title>
<g id="a_node1"><a xlink:title=" ">
<polygon fill="#999999" stroke="#666666" points="158,-184.5 0,-184.5 0,-165.5 158,-165.5 158,-184.5"/>
<text text-anchor="middle" x="79" y="-172.5" font-family="Helvetica,sans-Serif" font-size="10.00">QtPassSettings::initExecutables</text>
</a>
</g>
</g>
<!-- Node2 -->
<g id="node2" class="node">
<title>Node2</title>
<g id="a_node2"><a xlink:href="class_util.html#ab6622ba9b278132fa22ea85d224082f2" target="_top" xlink:title="Util::findBinaryInPath search for executables.">
<polygon fill="white" stroke="#666666" points="337,-338.5 227,-338.5 227,-319.5 337,-319.5 337,-338.5"/>
<text text-anchor="middle" x="282" y="-326.5" font-family="Helvetica,sans-Serif" font-size="10.00">Util::findBinaryInPath</text>
</a>
</g>
</g>
<!-- Node1&#45;&gt;Node2 -->
<g id="edge1" class="edge">
<title>Node1&#45;&gt;Node2</title>
<path fill="none" stroke="#63b8ff" d="M85.11,-184.81C98.9,-210.22 139.52,-278.45 194,-311 201.06,-315.22 208.95,-318.46 217.03,-320.95"/>
<polygon fill="#63b8ff" stroke="#63b8ff" points="216.35,-324.39 226.92,-323.63 218.18,-317.64 216.35,-324.39"/>
</g>
<!-- Node4 -->
<g id="node4" class="node">
<title>Node4</title>
<g id="a_node4"><a xlink:href="class_qt_pass_settings.html#af1577fc288ddb6077df5a2fb2f8913b6" target="_top" xlink:title=" ">
<polygon fill="white" stroke="#666666" points="365,-301.5 199,-301.5 199,-282.5 365,-282.5 365,-301.5"/>
<text text-anchor="middle" x="282" y="-289.5" font-family="Helvetica,sans-Serif" font-size="10.00">QtPassSettings::getGitExecutable</text>
</a>
</g>
</g>
<!-- Node1&#45;&gt;Node4 -->
<g id="edge3" class="edge">
<title>Node1&#45;&gt;Node4</title>
<path fill="none" stroke="#63b8ff" d="M88,-184.7C105.16,-204.82 147.72,-251.1 194,-274 198,-275.98 202.2,-277.74 206.51,-279.31"/>
<polygon fill="#63b8ff" stroke="#63b8ff" points="205.49,-282.66 216.09,-282.44 207.67,-276 205.49,-282.66"/>
</g>
<!-- Node6 -->
<g id="node6" class="node">
<title>Node6</title>
<g id="a_node6"><a xlink:href="class_qt_pass_settings.html#a92b674cdafc03000c808bff5fab93249" target="_top" xlink:title=" ">
<polygon fill="white" stroke="#666666" points="367.5,-264.5 196.5,-264.5 196.5,-245.5 367.5,-245.5 367.5,-264.5"/>
<text text-anchor="middle" x="282" y="-252.5" font-family="Helvetica,sans-Serif" font-size="10.00">QtPassSettings::getGpgExecutable</text>
</a>
</g>
</g>
<!-- Node1&#45;&gt;Node6 -->
<g id="edge5" class="edge">
<title>Node1&#45;&gt;Node6</title>
<path fill="none" stroke="#63b8ff" d="M94.46,-184.69C115.48,-198.34 156.13,-223.13 194,-237 199.99,-239.19 206.31,-241.15 212.7,-242.88"/>
<polygon fill="#63b8ff" stroke="#63b8ff" points="212.22,-246.37 222.77,-245.43 213.94,-239.58 212.22,-246.37"/>
</g>
<!-- Node7 -->
<g id="node7" class="node">
<title>Node7</title>
<g id="a_node7"><a xlink:href="class_qt_pass_settings.html#af0176d02663714d795cdf23eec6b657a" target="_top" xlink:title=" ">
<polygon fill="white" stroke="#666666" points="370,-227.5 194,-227.5 194,-208.5 370,-208.5 370,-227.5"/>
<text text-anchor="middle" x="282" y="-215.5" font-family="Helvetica,sans-Serif" font-size="10.00">QtPassSettings::getPassExecutable</text>
</a>
</g>
</g>
<!-- Node1&#45;&gt;Node7 -->
<g id="edge7" class="edge">
<title>Node1&#45;&gt;Node7</title>
<path fill="none" stroke="#63b8ff" d="M124.61,-184.54C154.66,-190.97 194.5,-199.5 226.44,-206.33"/>
<polygon fill="#63b8ff" stroke="#63b8ff" points="226.01,-209.81 236.52,-208.48 227.47,-202.97 226.01,-209.81"/>
</g>
<!-- Node8 -->
<g id="node8" class="node">
<title>Node8</title>
<g id="a_node8"><a xlink:href="class_qt_pass_settings.html#a53407b47aac8250b8e0c4cea046883e1" target="_top" xlink:title=" ">
<polygon fill="white" stroke="#666666" points="349.5,-190 214.5,-190 214.5,-160 349.5,-160 349.5,-190"/>
<text text-anchor="start" x="222.5" y="-178" font-family="Helvetica,sans-Serif" font-size="10.00">QtPassSettings::getPwgen</text>
<text text-anchor="middle" x="282" y="-167" font-family="Helvetica,sans-Serif" font-size="10.00">Executable</text>
</a>
</g>
</g>
<!-- Node1&#45;&gt;Node8 -->
<g id="edge9" class="edge">
<title>Node1&#45;&gt;Node8</title>
<path fill="none" stroke="#63b8ff" d="M158.29,-175C173.33,-175 189.08,-175 204.08,-175"/>
<polygon fill="#63b8ff" stroke="#63b8ff" points="204.33,-178.5 214.33,-175 204.33,-171.5 204.33,-178.5"/>
</g>
<!-- Node9 -->
<g id="node9" class="node">
<title>Node9</title>
<g id="a_node9"><a xlink:href="class_qt_pass_settings.html#a423f05b95badd51857630009e9ce629f" target="_top" xlink:title=" ">
<polygon fill="white" stroke="#666666" points="365,-141.5 199,-141.5 199,-122.5 365,-122.5 365,-141.5"/>
<text text-anchor="middle" x="282" y="-129.5" font-family="Helvetica,sans-Serif" font-size="10.00">QtPassSettings::setGitExecutable</text>
</a>
</g>
</g>
<!-- Node1&#45;&gt;Node9 -->
<g id="edge11" class="edge">
<title>Node1&#45;&gt;Node9</title>
<path fill="none" stroke="#63b8ff" d="M124.61,-165.46C154.66,-159.03 194.5,-150.5 226.44,-143.67"/>
<polygon fill="#63b8ff" stroke="#63b8ff" points="227.47,-147.03 236.52,-141.52 226.01,-140.19 227.47,-147.03"/>
</g>
<!-- Node10 -->
<g id="node10" class="node">
<title>Node10</title>
<g id="a_node10"><a xlink:href="class_qt_pass_settings.html#a875e260d3a73f82c0804a5c6b282d4ca" target="_top" xlink:title=" ">
<polygon fill="white" stroke="#666666" points="367.5,-104.5 196.5,-104.5 196.5,-85.5 367.5,-85.5 367.5,-104.5"/>
<text text-anchor="middle" x="282" y="-92.5" font-family="Helvetica,sans-Serif" font-size="10.00">QtPassSettings::setGpgExecutable</text>
</a>
</g>
</g>
<!-- Node1&#45;&gt;Node10 -->
<g id="edge13" class="edge">
<title>Node1&#45;&gt;Node10</title>
<path fill="none" stroke="#63b8ff" d="M94.86,-165.31C116.04,-151.91 156.51,-127.82 194,-114 201.06,-111.4 208.58,-109.1 216.13,-107.08"/>
<polygon fill="#63b8ff" stroke="#63b8ff" points="217.19,-110.42 226.04,-104.59 215.49,-103.63 217.19,-110.42"/>
</g>
<!-- Node11 -->
<g id="node11" class="node">
<title>Node11</title>
<g id="a_node11"><a xlink:href="class_qt_pass_settings.html#a0c04867f8f676925acdeb71fdb69e39f" target="_top" xlink:title=" ">
<polygon fill="white" stroke="#666666" points="370,-67.5 194,-67.5 194,-48.5 370,-48.5 370,-67.5"/>
<text text-anchor="middle" x="282" y="-55.5" font-family="Helvetica,sans-Serif" font-size="10.00">QtPassSettings::setPassExecutable</text>
</a>
</g>
</g>
<!-- Node1&#45;&gt;Node11 -->
<g id="edge15" class="edge">
<title>Node1&#45;&gt;Node11</title>
<path fill="none" stroke="#63b8ff" d="M88.04,-165.44C105.28,-145.61 147.99,-99.94 194,-77 198.84,-74.59 203.99,-72.48 209.26,-70.63"/>
<polygon fill="#63b8ff" stroke="#63b8ff" points="210.38,-73.95 218.85,-67.6 208.26,-67.28 210.38,-73.95"/>
</g>
<!-- Node12 -->
<g id="node12" class="node">
<title>Node12</title>
<g id="a_node12"><a xlink:href="class_qt_pass_settings.html#a169a2e42423e3c53b3cf4fd3566b27b4" target="_top" xlink:title=" ">
<polygon fill="white" stroke="#666666" points="349.5,-30 214.5,-30 214.5,0 349.5,0 349.5,-30"/>
<text text-anchor="start" x="222.5" y="-18" font-family="Helvetica,sans-Serif" font-size="10.00">QtPassSettings::setPwgen</text>
<text text-anchor="middle" x="282" y="-7" font-family="Helvetica,sans-Serif" font-size="10.00">Executable</text>
</a>
</g>
</g>
<!-- Node1&#45;&gt;Node12 -->
<g id="edge17" class="edge">
<title>Node1&#45;&gt;Node12</title>
<path fill="none" stroke="#63b8ff" d="M85.24,-165.39C99.33,-140.47 140.61,-73.31 194,-39 197.39,-36.82 200.97,-34.84 204.68,-33.04"/>
<polygon fill="#63b8ff" stroke="#63b8ff" points="206.35,-36.13 214.11,-28.91 203.54,-29.71 206.35,-36.13"/>
</g>
<!-- Node3 -->
<g id="node3" class="node">
<title>Node3</title>
<g id="a_node3"><a xlink:href="class_executor.html#a65a32a439c0a531e4553cab015061f2f" target="_top" xlink:title="Executor::executeBlocking blocking version of the executor, takes input and presents it as stdin.">
<polygon fill="white" stroke="#666666" points="543.5,-338.5 411.5,-338.5 411.5,-319.5 543.5,-319.5 543.5,-338.5"/>
<text text-anchor="middle" x="477.5" y="-326.5" font-family="Helvetica,sans-Serif" font-size="10.00">Executor::executeBlocking</text>
</a>
</g>
</g>
<!-- Node2&#45;&gt;Node3 -->
<g id="edge2" class="edge">
<title>Node2&#45;&gt;Node3</title>
<path fill="none" stroke="#63b8ff" d="M337.16,-329C357.04,-329 379.92,-329 401.32,-329"/>
<polygon fill="#63b8ff" stroke="#63b8ff" points="401.36,-332.5 411.36,-329 401.36,-325.5 401.36,-332.5"/>
</g>
<!-- Node5 -->
<g id="node5" class="node">
<title>Node5</title>
<g id="a_node5"><a xlink:href="class_qt_pass_settings.html#ab83659fdbfb9069942e6982076b4b934" target="_top" xlink:title=" ">
<polygon fill="white" stroke="#666666" points="549,-163.5 406,-163.5 406,-144.5 549,-144.5 549,-163.5"/>
<text text-anchor="middle" x="477.5" y="-151.5" font-family="Helvetica,sans-Serif" font-size="10.00">QtPassSettings::getInstance</text>
</a>
</g>
</g>
<!-- Node4&#45;&gt;Node5 -->
<g id="edge4" class="edge">
<title>Node4&#45;&gt;Node5</title>
<path fill="none" stroke="#63b8ff" d="M351.09,-282.4C357.7,-280.16 364.13,-277.4 370,-274 413.59,-248.78 448.73,-199.33 465.61,-172.45"/>
<polygon fill="#63b8ff" stroke="#63b8ff" points="468.76,-174.02 470.99,-163.66 462.79,-170.37 468.76,-174.02"/>
</g>
<!-- Node6&#45;&gt;Node5 -->
<g id="edge6" class="edge">
<title>Node6&#45;&gt;Node5</title>
<path fill="none" stroke="#63b8ff" d="M346.36,-245.47C354.5,-243.21 362.58,-240.43 370,-237 405.72,-220.49 440.39,-189.94 460.03,-170.87"/>
<polygon fill="#63b8ff" stroke="#63b8ff" points="462.61,-173.23 467.25,-163.7 457.68,-168.26 462.61,-173.23"/>
</g>
<!-- Node7&#45;&gt;Node5 -->
<g id="edge8" class="edge">
<title>Node7&#45;&gt;Node5</title>
<path fill="none" stroke="#63b8ff" d="M334.48,-208.41C346.26,-205.76 358.65,-202.6 370,-199 397.04,-190.42 426.69,-177.59 447.82,-167.83"/>
<polygon fill="#63b8ff" stroke="#63b8ff" points="449.32,-170.99 456.89,-163.58 446.35,-164.65 449.32,-170.99"/>
</g>
<!-- Node8&#45;&gt;Node5 -->
<g id="edge10" class="edge">
<title>Node8&#45;&gt;Node5</title>
<path fill="none" stroke="#63b8ff" d="M349.59,-167.77C364.48,-166.16 380.42,-164.43 395.81,-162.76"/>
<polygon fill="#63b8ff" stroke="#63b8ff" points="396.26,-166.23 405.82,-161.67 395.51,-159.27 396.26,-166.23"/>
</g>
<!-- Node9&#45;&gt;Node5 -->
<g id="edge12" class="edge">
<title>Node9&#45;&gt;Node5</title>
<path fill="none" stroke="#63b8ff" d="M365.06,-141.33C375.26,-142.49 385.68,-143.67 395.86,-144.83"/>
<polygon fill="#63b8ff" stroke="#63b8ff" points="395.6,-148.32 405.93,-145.98 396.39,-141.37 395.6,-148.32"/>
</g>
<!-- Node10&#45;&gt;Node5 -->
<g id="edge14" class="edge">
<title>Node10&#45;&gt;Node5</title>
<path fill="none" stroke="#63b8ff" d="M332.55,-104.53C344.87,-107.25 357.99,-110.45 370,-114 395.51,-121.53 423.65,-132.21 444.6,-140.64"/>
<polygon fill="#63b8ff" stroke="#63b8ff" points="443.39,-143.92 453.97,-144.45 446.03,-137.44 443.39,-143.92"/>
</g>
<!-- Node11&#45;&gt;Node5 -->
<g id="edge16" class="edge">
<title>Node11&#45;&gt;Node5</title>
<path fill="none" stroke="#63b8ff" d="M342.55,-67.58C351.94,-70.06 361.39,-73.15 370,-77 404.26,-92.32 438.47,-119.75 458.54,-137.39"/>
<polygon fill="#63b8ff" stroke="#63b8ff" points="456.46,-140.22 466.24,-144.29 461.13,-135.01 456.46,-140.22"/>
</g>
<!-- Node12&#45;&gt;Node5 -->
<g id="edge18" class="edge">
<title>Node12&#45;&gt;Node5</title>
<path fill="none" stroke="#63b8ff" d="M349.7,-29.22C356.79,-31.94 363.71,-35.17 370,-39 411.62,-64.31 447.11,-110.46 464.69,-135.92"/>
<polygon fill="#63b8ff" stroke="#63b8ff" points="461.84,-137.96 470.34,-144.29 467.65,-134.04 461.84,-137.96"/>
</g>
</g>
</svg>
        <g id="navigator" transform="translate(0 0)" fill="#404254">
                <rect fill="#f2f5e9" fill-opacity="0.5" stroke="#606060" stroke-width=".5" x="0" y="0" width="60" height="60"/>
                <use id="zoomplus" xlink:href="#zoomPlus" x="17" y="9" onmousedown="handleZoom(evt,'in')"/>
                <use id="zoomminus" xlink:href="#zoomMin" x="42" y="9" onmousedown="handleZoom(evt,'out')"/>
                <use id="reset" xlink:href="#resetDef" x="30" y="36" onmousedown="handleReset()"/>
                <g id="arrowUp" xlink:href="#dirArrow" transform="translate(30 24)" onmousedown="handlePan(0,-1)">
                  <use xlink:href="#rim" fill="#404040">
                        <set attributeName="fill" to="#808080" begin="arrowUp.mouseover" end="arrowUp.mouseout"/>
                  </use>
                  <path fill="none" stroke="white" stroke-width="1.5" d="M0,-3.0v7 M-2.5,-0.5L0,-3.0L2.5,-0.5"/>
                </g>
                <g id="arrowRight" xlink:href="#dirArrow" transform="rotate(90) translate(36 -43)" onmousedown="handlePan(1,0)">
                  <use xlink:href="#rim" fill="#404040">
                        <set attributeName="fill" to="#808080" begin="arrowRight.mouseover" end="arrowRight.mouseout"/>
                  </use>
                  <path fill="none" stroke="white" stroke-width="1.5" d="M0,-3.0v7 M-2.5,-0.5L0,-3.0L2.5,-0.5"/>
                </g>
                <g id="arrowDown" xlink:href="#dirArrow" transform="rotate(180) translate(-30 -48)" onmousedown="handlePan(0,1)">
                  <use xlink:href="#rim" fill="#404040">
                        <set attributeName="fill" to="#808080" begin="arrowDown.mouseover" end="arrowDown.mouseout"/>
                  </use>
                  <path fill="none" stroke="white" stroke-width="1.5" d="M0,-3.0v7 M-2.5,-0.5L0,-3.0L2.5,-0.5"/>
                </g>
                <g id="arrowLeft" xlink:href="#dirArrow" transform="rotate(270) translate(-36 17)" onmousedown="handlePan(-1,0)">
                  <use xlink:href="#rim" fill="#404040">
                        <set attributeName="fill" to="#808080" begin="arrowLeft.mouseover" end="arrowLeft.mouseout"/>
                  </use>
                  <path fill="none" stroke="white" stroke-width="1.5" d="M0,-3.0v7 M-2.5,-0.5L0,-3.0L2.5,-0.5"/>
                </g>
        </g>
        <svg viewBox="0 0 15 15" width="100%" height="30px" preserveAspectRatio="xMaxYMin meet">
         <g id="arrow_out" transform="scale(0.3 0.3)">
          <a xlink:href="class_qt_pass_settings_a64ffdab0605be803054150d438254c56_cgraph_org.svg" target="_base">
           <rect id="button" ry="5" rx="5" y="6" x="6" height="38" width="38"
                fill="#f2f5e9" fill-opacity="0.5" stroke="#606060" stroke-width="1.0"/>
           <path id="arrow"
             d="M 11.500037,31.436501 C 11.940474,20.09759 22.043105,11.32322 32.158766,21.979434 L 37.068811,17.246167 C 37.068811,17.246167 37.088388,32 37.088388,32 L 22.160133,31.978069 C 22.160133,31.978069 26.997745,27.140456 26.997745,27.140456 C 18.528582,18.264221 13.291696,25.230495 11.500037,31.436501 z"
             style="fill:#404040;"/>
          </a>
         </g>
        </svg>
</svg>
