<?xml version="1.0" encoding="UTF-8" standalone="no"?>
<!DOCTYPE svg PUBLIC "-//W3C//DTD SVG 1.1//EN"
 "http://www.w3.org/Graphics/SVG/1.1/DTD/svg11.dtd">
<!-- Generated by graphviz version 2.40.1 (20161225.0304)
 -->
<!-- Title: FileContent::getRemainingData Pages: 1 -->
<svg width="708pt" height="122pt"
 viewBox="0.00 0.00 708.00 121.50" xmlns="http://www.w3.org/2000/svg" xmlns:xlink="http://www.w3.org/1999/xlink">
<g id="graph0" class="graph" transform="scale(1 1) rotate(0) translate(4 117.5)">
<title>FileContent::getRemainingData</title>
<!-- Node21 -->
<g id="node1" class="node">
<title>Node21</title>
<polygon fill="#bfbfbf" stroke="#000000" points="0,-50 0,-69 154,-69 154,-50 0,-50"/>
<text text-anchor="middle" x="77" y="-57" font-family="Helvetica,sans-Serif" font-size="10.00" fill="#000000">FileContent::getRemainingData</text>
</g>
<!-- Node22 -->
<g id="node2" class="node">
<title>Node22</title>
<g id="a_node2"><a xlink:href="class_main_window.html#a0d75695e555bac7331e1ea22bc3159df" target="_top" xlink:title="MainWindow::passShowHandler">
<polygon fill="none" stroke="#000000" points="190,-91 190,-110 348,-110 348,-91 190,-91"/>
<text text-anchor="middle" x="269" y="-98" font-family="Helvetica,sans-Serif" font-size="10.00" fill="#000000">MainWindow::passShowHandler</text>
</a>
</g>
</g>
<!-- Node21&#45;&gt;Node22 -->
<g id="edge1" class="edge">
<title>Node21&#45;&gt;Node22</title>
<path fill="none" stroke="#191970" d="M131.624,-71.1645C160.9774,-77.4327 196.7129,-85.0637 224.3781,-90.9714"/>
<polygon fill="#191970" stroke="#191970" points="132.0417,-67.6749 121.5313,-69.0093 130.5798,-74.5205 132.0417,-67.6749"/>
</g>
<!-- Node25 -->
<g id="node5" class="node">
<title>Node25</title>
<g id="a_node5"><a xlink:href="class_password_dialog.html#a89b320eb34026b488c5c685ee6b16623" target="_top" xlink:title="Sets content in the password field in the interface. ">
<polygon fill="none" stroke="#000000" points="193.5,-50 193.5,-69 344.5,-69 344.5,-50 193.5,-50"/>
<text text-anchor="middle" x="269" y="-57" font-family="Helvetica,sans-Serif" font-size="10.00" fill="#000000">PasswordDialog::setPassword</text>
</a>
</g>
</g>
<!-- Node21&#45;&gt;Node25 -->
<g id="edge4" class="edge">
<title>Node21&#45;&gt;Node25</title>
<path fill="none" stroke="#191970" d="M164.3345,-59.5C174.0561,-59.5 183.8972,-59.5 193.4545,-59.5"/>
<polygon fill="#191970" stroke="#191970" points="164.2638,-56.0001 154.2638,-59.5 164.2638,-63.0001 164.2638,-56.0001"/>
</g>
<!-- Node29 -->
<g id="node9" class="node">
<title>Node29</title>
<g id="a_node9"><a xlink:href="classtst__util.html#a1889cedba30d1d96c60e84effbf7f313" target="_top" xlink:title="tst_util::cleanup unit test cleanup method ">
<polygon fill="none" stroke="#000000" points="226,-12 226,-31 312,-31 312,-12 226,-12"/>
<text text-anchor="middle" x="269" y="-19" font-family="Helvetica,sans-Serif" font-size="10.00" fill="#000000">tst_util::cleanup</text>
</a>
</g>
</g>
<!-- Node21&#45;&gt;Node29 -->
<g id="edge8" class="edge">
<title>Node21&#45;&gt;Node29</title>
<path fill="none" stroke="#191970" d="M135.4926,-47.9233C164.5904,-42.1644 199.1434,-35.3258 225.8068,-30.0487"/>
<polygon fill="#191970" stroke="#191970" points="134.5799,-44.536 125.4497,-49.911 135.939,-51.4028 134.5799,-44.536"/>
</g>
<!-- Node23 -->
<g id="node3" class="node">
<title>Node23</title>
<g id="a_node3"><a xlink:href="class_qt_pass.html#abd1d1e8d6b80b8307a305d80a6c34371" target="_top" xlink:title="QtPass::setMainWindow">
<polygon fill="none" stroke="#000000" points="393,-94 393,-113 518,-113 518,-94 393,-94"/>
<text text-anchor="middle" x="455.5" y="-101" font-family="Helvetica,sans-Serif" font-size="10.00" fill="#000000">QtPass::setMainWindow</text>
</a>
</g>
</g>
<!-- Node22&#45;&gt;Node23 -->
<g id="edge2" class="edge">
<title>Node22&#45;&gt;Node23</title>
<path fill="none" stroke="#191970" d="M358.3404,-101.9371C370.0467,-102.1254 381.8353,-102.315 392.9666,-102.4941"/>
<polygon fill="#191970" stroke="#191970" points="358.1478,-98.4337 348.0928,-101.7723 358.0352,-105.4328 358.1478,-98.4337"/>
</g>
<!-- Node24 -->
<g id="node4" class="node">
<title>Node24</title>
<g id="a_node4"><a xlink:href="class_main_window.html#a52e97245b2f88492071e639395c4a15a" target="_top" xlink:title="MainWindow::MainWindow handles all of the main functionality and also the main window. ">
<polygon fill="none" stroke="#000000" points="564,-94 564,-113 699,-113 699,-94 564,-94"/>
<text text-anchor="middle" x="631.5" y="-101" font-family="Helvetica,sans-Serif" font-size="10.00" fill="#000000">MainWindow::MainWindow</text>
</a>
</g>
</g>
<!-- Node23&#45;&gt;Node24 -->
<g id="edge3" class="edge">
<title>Node23&#45;&gt;Node24</title>
<path fill="none" stroke="#191970" d="M528.2602,-103.5C540.0173,-103.5 552.1487,-103.5 563.7803,-103.5"/>
<polygon fill="#191970" stroke="#191970" points="528.0466,-100.0001 518.0466,-103.5 528.0465,-107.0001 528.0466,-100.0001"/>
</g>
<!-- Node26 -->
<g id="node6" class="node">
<title>Node26</title>
<g id="a_node6"><a xlink:href="class_password_dialog.html#aa123158c0085b910ecf3bfdc9dae9e97" target="_top" xlink:title="Pass{}{}wordDialog::~PasswordDialog basic destructor. ">
<polygon fill="none" stroke="#000000" points="384,-44.5 384,-74.5 527,-74.5 527,-44.5 384,-44.5"/>
<text text-anchor="start" x="392" y="-62.5" font-family="Helvetica,sans-Serif" font-size="10.00" fill="#000000">PasswordDialog::~Password</text>
<text text-anchor="middle" x="455.5" y="-51.5" font-family="Helvetica,sans-Serif" font-size="10.00" fill="#000000">Dialog</text>
</a>
</g>
</g>
<!-- Node25&#45;&gt;Node26 -->
<g id="edge5" class="edge">
<title>Node25&#45;&gt;Node26</title>
<path fill="none" stroke="#191970" d="M354.6598,-59.5C364.3805,-59.5 374.2118,-59.5 383.7277,-59.5"/>
<polygon fill="#191970" stroke="#191970" points="354.5879,-56.0001 344.5878,-59.5 354.5878,-63.0001 354.5879,-56.0001"/>
</g>
<!-- Node27 -->
<g id="node7" class="node">
<title>Node27</title>
<g id="a_node7"><a xlink:href="class_password_dialog.html#aca023385bb581500a1e4a880a6283ad8" target="_top" xlink:title="PasswordDialog::setPass">
<polygon fill="none" stroke="#000000" points="390.5,-6 390.5,-25 520.5,-25 520.5,-6 390.5,-6"/>
<text text-anchor="middle" x="455.5" y="-13" font-family="Helvetica,sans-Serif" font-size="10.00" fill="#000000">PasswordDialog::setPass</text>
</a>
</g>
</g>
<!-- Node25&#45;&gt;Node27 -->
<g id="edge6" class="edge">
<title>Node25&#45;&gt;Node27</title>
<path fill="none" stroke="#191970" d="M319.3399,-47.6236C349.3824,-40.5358 387.024,-31.6552 415.1113,-25.0287"/>
<polygon fill="#191970" stroke="#191970" points="318.3968,-44.2499 309.4677,-49.9527 320.0042,-51.0629 318.3968,-44.2499"/>
</g>
<!-- Node28 -->
<g id="node8" class="node">
<title>Node28</title>
<g id="a_node8"><a xlink:href="class_password_dialog.html#a859a78e62204698556204b9e20932010" target="_top" xlink:title="PasswordDialog::PasswordDialog basic constructor. ">
<polygon fill="none" stroke="#000000" points="563,-.5 563,-30.5 700,-30.5 700,-.5 563,-.5"/>
<text text-anchor="start" x="571" y="-18.5" font-family="Helvetica,sans-Serif" font-size="10.00" fill="#000000">PasswordDialog::Password</text>
<text text-anchor="middle" x="631.5" y="-7.5" font-family="Helvetica,sans-Serif" font-size="10.00" fill="#000000">Dialog</text>
</a>
</g>
</g>
<!-- Node27&#45;&gt;Node28 -->
<g id="edge7" class="edge">
<title>Node27&#45;&gt;Node28</title>
<path fill="none" stroke="#191970" d="M530.6889,-15.5C541.3833,-15.5 552.3355,-15.5 562.8957,-15.5"/>
<polygon fill="#191970" stroke="#191970" points="530.5359,-12.0001 520.5359,-15.5 530.5358,-19.0001 530.5359,-12.0001"/>
</g>
</g>
</svg>
