<?xml version="1.0" encoding="UTF-8" standalone="no"?>
<!DOCTYPE svg PUBLIC "-//W3C//DTD SVG 1.1//EN"
 "http://www.w3.org/Graphics/SVG/1.1/DTD/svg11.dtd">
<!-- Generated by graphviz version 2.43.0 (0)
 -->
<!-- Title: MainWindow::closeEvent Pages: 1 -->
<svg width="567pt" height="261pt"
 viewBox="0.00 0.00 567.00 261.00" xmlns="http://www.w3.org/2000/svg" xmlns:xlink="http://www.w3.org/1999/xlink">
<g id="graph0" class="graph" transform="scale(1 1) rotate(0) translate(4 257)">
<title>MainWindow::closeEvent</title>
<!-- Node1 -->
<g id="Node000001" class="node">
<title>Node1</title>
<g id="a_Node000001"><a xlink:title="MainWindow::closeEvent hide or quit.">
<polygon fill="#999999" stroke="#666666" points="138,-130 0,-130 0,-111 138,-111 138,-130"/>
<text text-anchor="middle" x="69" y="-118" font-family="Helvetica,sans-Serif" font-size="10.00">MainWindow::closeEvent</text>
</a>
</g>
</g>
<!-- Node2 -->
<g id="Node000002" class="node">
<title>Node2</title>
<g id="a_Node000002"><a xlink:href="class_qt_pass.html#a3febdf740ba4d78a4149d7d7c3b9284e" target="_top" xlink:title="MainWindow::clearClipboard remove clipboard contents.">
<polygon fill="white" stroke="#666666" points="319,-253 193,-253 193,-234 319,-234 319,-253"/>
<text text-anchor="middle" x="256" y="-241" font-family="Helvetica,sans-Serif" font-size="10.00">QtPass::clearClipboard</text>
</a>
</g>
</g>
<!-- Node1&#45;&gt;Node2 -->
<g id="edge1_Node000001_Node000002" class="edge">
<title>Node1&#45;&gt;Node2</title>
<g id="a_edge1_Node000001_Node000002"><a xlink:title=" ">
<path fill="none" stroke="#63b8ff" d="M76.79,-130.31C91.77,-151.14 129.82,-199.91 174,-224.5 178.01,-226.73 182.28,-228.71 186.67,-230.45"/>
<polygon fill="#63b8ff" stroke="#63b8ff" points="185.85,-233.87 196.45,-233.9 188.18,-227.27 185.85,-233.87"/>
</a>
</g>
</g>
<!-- Node4 -->
<g id="Node000004" class="node">
<title>Node4</title>
<g id="a_Node000004"><a xlink:href="class_qt_pass_settings.html#ad4152bd817991b07af145a0368b7cb1d" target="_top" xlink:title=" ">
<polygon fill="white" stroke="#666666" points="326,-215.5 186,-215.5 186,-185.5 326,-185.5 326,-215.5"/>
<text text-anchor="start" x="194" y="-203.5" font-family="Helvetica,sans-Serif" font-size="10.00">QtPassSettings::isHideOn</text>
<text text-anchor="middle" x="256" y="-192.5" font-family="Helvetica,sans-Serif" font-size="10.00">Close</text>
</a>
</g>
</g>
<!-- Node1&#45;&gt;Node4 -->
<g id="edge3_Node000001_Node000004" class="edge">
<title>Node1&#45;&gt;Node4</title>
<g id="a_edge3_Node000001_Node000004"><a xlink:title=" ">
<path fill="none" stroke="#63b8ff" d="M85.36,-130.08C105.24,-142.16 141.2,-162.98 174,-176.5 178.79,-178.48 183.81,-180.36 188.89,-182.15"/>
<polygon fill="#63b8ff" stroke="#63b8ff" points="188.11,-185.58 198.7,-185.46 190.34,-178.95 188.11,-185.58"/>
</a>
</g>
</g>
<!-- Node5 -->
<g id="Node000005" class="node">
<title>Node5</title>
<g id="a_Node000005"><a xlink:href="class_qt_pass_settings.html#aef634f4b530941fbb41f0f1073f5f1f4" target="_top" xlink:title="Save window geometry.">
<polygon fill="white" stroke="#666666" points="335.5,-167 176.5,-167 176.5,-148 335.5,-148 335.5,-167"/>
<text text-anchor="middle" x="256" y="-155" font-family="Helvetica,sans-Serif" font-size="10.00">QtPassSettings::setGeometry</text>
</a>
</g>
</g>
<!-- Node1&#45;&gt;Node5 -->
<g id="edge4_Node000001_Node000005" class="edge">
<title>Node1&#45;&gt;Node5</title>
<g id="a_edge4_Node000001_Node000005"><a xlink:title=" ">
<path fill="none" stroke="#63b8ff" d="M117.64,-130.03C141.93,-134.89 171.67,-140.83 197.25,-145.95"/>
<polygon fill="#63b8ff" stroke="#63b8ff" points="196.71,-149.41 207.2,-147.94 198.08,-142.55 196.71,-149.41"/>
</a>
</g>
</g>
<!-- Node7 -->
<g id="Node000007" class="node">
<title>Node7</title>
<g id="a_Node000007"><a xlink:href="class_qt_pass_settings.html#a0394e31adec055bd3d84cd09dca5576c" target="_top" xlink:title="Save maximized state.">
<polygon fill="white" stroke="#666666" points="338,-130 174,-130 174,-111 338,-111 338,-130"/>
<text text-anchor="middle" x="256" y="-118" font-family="Helvetica,sans-Serif" font-size="10.00">QtPassSettings::setMaximized</text>
</a>
</g>
</g>
<!-- Node1&#45;&gt;Node7 -->
<g id="edge6_Node000001_Node000007" class="edge">
<title>Node1&#45;&gt;Node7</title>
<g id="a_edge6_Node000001_Node000007"><a xlink:title=" ">
<path fill="none" stroke="#63b8ff" d="M138.1,-120.5C146.47,-120.5 155.12,-120.5 163.76,-120.5"/>
<polygon fill="#63b8ff" stroke="#63b8ff" points="163.88,-124 173.88,-120.5 163.88,-117 163.88,-124"/>
</a>
</g>
</g>
<!-- Node8 -->
<g id="Node000008" class="node">
<title>Node8</title>
<g id="a_Node000008"><a xlink:href="class_qt_pass_settings.html#a8b3520f10b70e098629c5b713c69f3a0" target="_top" xlink:title="Save window position.">
<polygon fill="white" stroke="#666666" points="320,-93 192,-93 192,-74 320,-74 320,-93"/>
<text text-anchor="middle" x="256" y="-81" font-family="Helvetica,sans-Serif" font-size="10.00">QtPassSettings::setPos</text>
</a>
</g>
</g>
<!-- Node1&#45;&gt;Node8 -->
<g id="edge8_Node000001_Node000008" class="edge">
<title>Node1&#45;&gt;Node8</title>
<g id="a_edge8_Node000001_Node000008"><a xlink:title=" ">
<path fill="none" stroke="#63b8ff" d="M117.64,-110.97C141.93,-106.11 171.67,-100.17 197.25,-95.05"/>
<polygon fill="#63b8ff" stroke="#63b8ff" points="198.08,-98.45 207.2,-93.06 196.71,-91.59 198.08,-98.45"/>
</a>
</g>
</g>
<!-- Node9 -->
<g id="Node000009" class="node">
<title>Node9</title>
<g id="a_Node000009"><a xlink:href="class_qt_pass_settings.html#abd5068c7125fcc7d9eb238aea028fd95" target="_top" xlink:title="Save window state.">
<polygon fill="white" stroke="#666666" points="335.5,-56 176.5,-56 176.5,-37 335.5,-37 335.5,-56"/>
<text text-anchor="middle" x="256" y="-44" font-family="Helvetica,sans-Serif" font-size="10.00">QtPassSettings::setSavestate</text>
</a>
</g>
</g>
<!-- Node1&#45;&gt;Node9 -->
<g id="edge10_Node000001_Node000009" class="edge">
<title>Node1&#45;&gt;Node9</title>
<g id="a_edge10_Node000001_Node000009"><a xlink:title=" ">
<path fill="none" stroke="#63b8ff" d="M85.27,-110.81C105.05,-98.66 140.91,-77.9 174,-65.5 180.79,-62.96 188.03,-60.68 195.28,-58.66"/>
<polygon fill="#63b8ff" stroke="#63b8ff" points="196.36,-62 205.14,-56.08 194.58,-55.23 196.36,-62"/>
</a>
</g>
</g>
<!-- Node10 -->
<g id="Node000010" class="node">
<title>Node10</title>
<g id="a_Node000010"><a xlink:href="class_qt_pass_settings.html#adf303d889c36195d4e0efb156baf50a6" target="_top" xlink:title="Save window size.">
<polygon fill="white" stroke="#666666" points="321.5,-19 190.5,-19 190.5,0 321.5,0 321.5,-19"/>
<text text-anchor="middle" x="256" y="-7" font-family="Helvetica,sans-Serif" font-size="10.00">QtPassSettings::setSize</text>
</a>
</g>
</g>
<!-- Node1&#45;&gt;Node10 -->
<g id="edge12_Node000001_Node000010" class="edge">
<title>Node1&#45;&gt;Node10</title>
<g id="a_edge12_Node000001_Node000010"><a xlink:title=" ">
<path fill="none" stroke="#63b8ff" d="M77.74,-110.85C93.63,-91.74 131.98,-49.07 174,-27.5 177.75,-25.58 181.7,-23.86 185.75,-22.32"/>
<polygon fill="#63b8ff" stroke="#63b8ff" points="187.02,-25.59 195.36,-19.06 184.77,-18.96 187.02,-25.59"/>
</a>
</g>
</g>
<!-- Node3 -->
<g id="Node000003" class="node">
<title>Node3</title>
<g id="a_Node000003"><a xlink:href="class_main_window.html#a69f4a122336a6fc3875fc94741e4d1cf" target="_top" xlink:title="Displays message in status bar.">
<polygon fill="white" stroke="#666666" points="559,-253 374,-253 374,-234 559,-234 559,-253"/>
<text text-anchor="middle" x="466.5" y="-241" font-family="Helvetica,sans-Serif" font-size="10.00">MainWindow::showStatusMessage</text>
</a>
</g>
</g>
<!-- Node2&#45;&gt;Node3 -->
<g id="edge2_Node000002_Node000003" class="edge">
<title>Node2&#45;&gt;Node3</title>
<g id="a_edge2_Node000002_Node000003"><a xlink:title=" ">
<path fill="none" stroke="#63b8ff" d="M319.27,-243.5C333.22,-243.5 348.36,-243.5 363.44,-243.5"/>
<polygon fill="#63b8ff" stroke="#63b8ff" points="363.86,-247 373.86,-243.5 363.86,-240 363.86,-247"/>
</a>
</g>
</g>
<!-- Node6 -->
<g id="Node000006" class="node">
<title>Node6</title>
<g id="a_Node000006"><a xlink:href="class_qt_pass_settings.html#a2483e7de01f9e312ee0fbf8a1637f29d" target="_top" xlink:title="Get the singleton instance.">
<polygon fill="white" stroke="#666666" points="542.5,-93 390.5,-93 390.5,-74 542.5,-74 542.5,-93"/>
<text text-anchor="middle" x="466.5" y="-81" font-family="Helvetica,sans-Serif" font-size="10.00">QtPassSettings::getInstance</text>
</a>
</g>
</g>
<!-- Node5&#45;&gt;Node6 -->
<g id="edge5_Node000005_Node000006" class="edge">
<title>Node5&#45;&gt;Node6</title>
<g id="a_edge5_Node000005_Node000006"><a xlink:title=" ">
<path fill="none" stroke="#63b8ff" d="M307.11,-147.97C317.42,-145.56 328.14,-142.73 338,-139.5 373.45,-127.9 412.48,-109.94 437.9,-97.5"/>
<polygon fill="#63b8ff" stroke="#63b8ff" points="439.53,-100.6 446.94,-93.03 436.43,-94.33 439.53,-100.6"/>
</a>
</g>
</g>
<!-- Node7&#45;&gt;Node6 -->
<g id="edge7_Node000007_Node000006" class="edge">
<title>Node7&#45;&gt;Node6</title>
<g id="a_edge7_Node000007_Node000006"><a xlink:title=" ">
<path fill="none" stroke="#63b8ff" d="M310.69,-110.97C338.43,-106.05 372.47,-100.01 401.56,-94.85"/>
<polygon fill="#63b8ff" stroke="#63b8ff" points="402.39,-98.25 411.63,-93.06 401.17,-91.36 402.39,-98.25"/>
</a>
</g>
</g>
<!-- Node8&#45;&gt;Node6 -->
<g id="edge9_Node000008_Node000006" class="edge">
<title>Node8&#45;&gt;Node6</title>
<g id="a_edge9_Node000008_Node000006"><a xlink:title=" ">
<path fill="none" stroke="#63b8ff" d="M320.12,-83.5C339.09,-83.5 360.22,-83.5 380.37,-83.5"/>
<polygon fill="#63b8ff" stroke="#63b8ff" points="380.48,-87 390.48,-83.5 380.48,-80 380.48,-87"/>
</a>
</g>
</g>
<!-- Node9&#45;&gt;Node6 -->
<g id="edge11_Node000009_Node000006" class="edge">
<title>Node9&#45;&gt;Node6</title>
<g id="a_edge11_Node000009_Node000006"><a xlink:title=" ">
<path fill="none" stroke="#63b8ff" d="M310.69,-56.03C338.43,-60.95 372.47,-66.99 401.56,-72.15"/>
<polygon fill="#63b8ff" stroke="#63b8ff" points="401.17,-75.64 411.63,-73.94 402.39,-68.75 401.17,-75.64"/>
</a>
</g>
</g>
<!-- Node10&#45;&gt;Node6 -->
<g id="edge13_Node000010_Node000006" class="edge">
<title>Node10&#45;&gt;Node6</title>
<g id="a_edge13_Node000010_Node000006"><a xlink:title=" ">
<path fill="none" stroke="#63b8ff" d="M307.11,-19.03C317.42,-21.44 328.14,-24.27 338,-27.5 373.45,-39.1 412.48,-57.06 437.9,-69.5"/>
<polygon fill="#63b8ff" stroke="#63b8ff" points="436.43,-72.67 446.94,-73.97 439.53,-66.4 436.43,-72.67"/>
</a>
</g>
</g>
</g>
</svg>
