<?xml version="1.0" encoding="UTF-8" standalone="no"?>
<!DOCTYPE svg PUBLIC "-//W3C//DTD SVG 1.1//EN"
 "http://www.w3.org/Graphics/SVG/1.1/DTD/svg11.dtd">
<!-- Generated by graphviz version 2.38.0 (20140413.2041)
 -->
<!-- Title: QtPassSettings::isUseWebDav Pages: 1 -->
<svg width="747pt" height="176pt"
 viewBox="0.00 0.00 747.02 176.00" xmlns="http://www.w3.org/2000/svg" xmlns:xlink="http://www.w3.org/1999/xlink">
<g id="graph0" class="graph" transform="scale(1 1) rotate(0) translate(4 172)">
<title>QtPassSettings::isUseWebDav</title>
<!-- Node353 -->
<g id="node1" class="node"><title>Node353</title>
<polygon fill="#bfbfbf" stroke="black" points="0,-75.5 0,-93.5 153.651,-93.5 153.651,-75.5 0,-75.5"/>
<text text-anchor="middle" x="76.8257" y="-81.5" font-family="Helvetica,sans-Serif" font-size="10.00">QtPassSettings::isUseWebDav</text>
</g>
<!-- Node354 -->
<g id="node2" class="node"><title>Node354</title>
<g id="a_node2"><a xlink:href="class_main_window.html#ae98d00a93bc118200eeef9f9bba1dba7" target="_top" xlink:title="MainWindow::~MainWindow destroy! ">
<polygon fill="none" stroke="black" points="204.524,-149.5 204.524,-167.5 346.403,-167.5 346.403,-149.5 204.524,-149.5"/>
<text text-anchor="middle" x="275.464" y="-155.5" font-family="Helvetica,sans-Serif" font-size="10.00">MainWindow::~MainWindow</text>
</a>
</g>
</g>
<!-- Node353&#45;&gt;Node354 -->
<g id="edge1" class="edge"><title>Node353&#45;&gt;Node354</title>
<path fill="none" stroke="midnightblue" d="M101.97,-98.4634C124.142,-110.774 158.226,-128.428 189.651,-139.5 200.895,-143.461 213.275,-146.787 225.021,-149.492"/>
<polygon fill="midnightblue" stroke="midnightblue" points="103.671,-95.4043 93.24,-93.5493 100.238,-101.504 103.671,-95.4043"/>
</g>
<!-- Node355 -->
<g id="node3" class="node"><title>Node355</title>
<g id="a_node3"><a xlink:href="class_main_window.html#a23d2783cb61a373c4b0127970264290a" target="_top" xlink:title="MainWindow::checkConfig make sure we are ready to go as soon as possible. ">
<polygon fill="none" stroke="black" points="208.55,-112.5 208.55,-130.5 342.377,-130.5 342.377,-112.5 208.55,-112.5"/>
<text text-anchor="middle" x="275.464" y="-118.5" font-family="Helvetica,sans-Serif" font-size="10.00">MainWindow::checkConfig</text>
</a>
</g>
</g>
<!-- Node353&#45;&gt;Node355 -->
<g id="edge2" class="edge"><title>Node353&#45;&gt;Node355</title>
<path fill="none" stroke="midnightblue" d="M135.631,-95.3767C164.495,-100.808 199.005,-107.301 226.398,-112.456"/>
<polygon fill="midnightblue" stroke="midnightblue" points="136.152,-91.9135 125.677,-93.5039 134.858,-98.7928 136.152,-91.9135"/>
</g>
<!-- Node357 -->
<g id="node5" class="node"><title>Node357</title>
<g id="a_node5"><a xlink:href="class_main_window.html#a4680b2cbcfd388683a98303f29c0f84f" target="_top" xlink:title="MainWindow::executePassGitInit git init wrapper. ">
<polygon fill="none" stroke="black" points="397.281,-37.5 397.281,-55.5 559.453,-55.5 559.453,-37.5 397.281,-37.5"/>
<text text-anchor="middle" x="478.367" y="-43.5" font-family="Helvetica,sans-Serif" font-size="10.00">MainWindow::executePassGitInit</text>
</a>
</g>
</g>
<!-- Node353&#45;&gt;Node357 -->
<g id="edge4" class="edge"><title>Node353&#45;&gt;Node357</title>
<path fill="none" stroke="midnightblue" d="M134.579,-73.6997C152.175,-70.6632 171.668,-67.616 189.651,-65.5 259.503,-57.2813 339.345,-52.3609 397.171,-49.5939"/>
<polygon fill="midnightblue" stroke="midnightblue" points="133.705,-70.2995 124.463,-75.4792 134.918,-77.1937 133.705,-70.2995"/>
</g>
<!-- Node359 -->
<g id="node7" class="node"><title>Node359</title>
<g id="a_node7"><a xlink:href="class_main_window.html#add7481e9707f309caba6b5d3a8c1ddc9" target="_top" xlink:title="MainWindow::userDialog see MainWindow::on_usersButton_clicked() ">
<polygon fill="none" stroke="black" points="415.067,-0.5 415.067,-18.5 541.667,-18.5 541.667,-0.5 415.067,-0.5"/>
<text text-anchor="middle" x="478.367" y="-6.5" font-family="Helvetica,sans-Serif" font-size="10.00">MainWindow::userDialog</text>
</a>
</g>
</g>
<!-- Node353&#45;&gt;Node359 -->
<g id="edge6" class="edge"><title>Node353&#45;&gt;Node359</title>
<path fill="none" stroke="midnightblue" d="M111.447,-71.9563C133.428,-64.1859 162.916,-54.5653 189.651,-48.5 266.338,-31.1023 356.403,-20.4258 415.064,-14.7396"/>
<polygon fill="midnightblue" stroke="midnightblue" points="110.144,-68.7054 101.913,-75.3769 112.508,-75.2942 110.144,-68.7054"/>
</g>
<!-- Node360 -->
<g id="node8" class="node"><title>Node360</title>
<g id="a_node8"><a xlink:href="class_main_window.html#a5616dbee2eede4e879bc40fa7778ba7b" target="_top" xlink:title="MainWindow::copyTextToClipboard copies text to your clipboard. ">
<polygon fill="none" stroke="black" points="189.651,-75.5 189.651,-93.5 361.276,-93.5 361.276,-75.5 189.651,-75.5"/>
<text text-anchor="middle" x="275.464" y="-81.5" font-family="Helvetica,sans-Serif" font-size="10.00">MainWindow::copyTextToClipboard</text>
</a>
</g>
</g>
<!-- Node353&#45;&gt;Node360 -->
<g id="edge8" class="edge"><title>Node353&#45;&gt;Node360</title>
<path fill="none" stroke="midnightblue" d="M164.067,-84.5C172.505,-84.5 181.063,-84.5 189.489,-84.5"/>
<polygon fill="midnightblue" stroke="midnightblue" points="163.851,-81.0001 153.851,-84.5 163.851,-88.0001 163.851,-81.0001"/>
</g>
<!-- Node356 -->
<g id="node4" class="node"><title>Node356</title>
<g id="a_node4"><a xlink:href="class_main_window.html#a8b244be8b7b7db1b08de2a2acb9409db" target="_top" xlink:title="MainWindow::MainWindow handles all of the main functionality and also the main window. ">
<polygon fill="none" stroke="black" points="410.348,-112.5 410.348,-130.5 546.387,-130.5 546.387,-112.5 410.348,-112.5"/>
<text text-anchor="middle" x="478.367" y="-118.5" font-family="Helvetica,sans-Serif" font-size="10.00">MainWindow::MainWindow</text>
</a>
</g>
</g>
<!-- Node355&#45;&gt;Node356 -->
<g id="edge3" class="edge"><title>Node355&#45;&gt;Node356</title>
<path fill="none" stroke="midnightblue" d="M352.61,-121.5C371.565,-121.5 391.749,-121.5 410.235,-121.5"/>
<polygon fill="midnightblue" stroke="midnightblue" points="352.525,-118 342.525,-121.5 352.525,-125 352.525,-118"/>
</g>
<!-- Node358 -->
<g id="node6" class="node"><title>Node358</title>
<g id="a_node6"><a xlink:href="class_config_dialog.html#ad5b80066591f19fdaaa06b7cb5ba7f15" target="_top" xlink:title="ConfigDialog::wizard first&#45;time use wizard. ">
<polygon fill="none" stroke="black" points="613.383,-16.5 613.383,-34.5 721.092,-34.5 721.092,-16.5 613.383,-16.5"/>
<text text-anchor="middle" x="667.237" y="-22.5" font-family="Helvetica,sans-Serif" font-size="10.00">ConfigDialog::wizard</text>
</a>
</g>
</g>
<!-- Node357&#45;&gt;Node358 -->
<g id="edge5" class="edge"><title>Node357&#45;&gt;Node358</title>
<path fill="none" stroke="midnightblue" d="M569.936,-36.3221C584.769,-34.6552 599.698,-32.9775 613.227,-31.4572"/>
<polygon fill="midnightblue" stroke="midnightblue" points="569.248,-32.8773 559.701,-37.4722 570.03,-39.8335 569.248,-32.8773"/>
</g>
<!-- Node359&#45;&gt;Node358 -->
<g id="edge7" class="edge"><title>Node359&#45;&gt;Node358</title>
<path fill="none" stroke="midnightblue" d="M552.04,-15.7223C572.414,-17.4668 594.176,-19.33 613.179,-20.9571"/>
<polygon fill="midnightblue" stroke="midnightblue" points="552.114,-12.2159 541.852,-14.85 551.517,-19.1904 552.114,-12.2159"/>
</g>
<!-- Node360&#45;&gt;Node357 -->
<g id="edge9" class="edge"><title>Node360&#45;&gt;Node357</title>
<path fill="none" stroke="midnightblue" d="M334.085,-73.6013C364.384,-67.8703 401.08,-60.9294 429.75,-55.5066"/>
<polygon fill="midnightblue" stroke="midnightblue" points="333.25,-70.1969 324.075,-75.4945 334.551,-77.075 333.25,-70.1969"/>
</g>
<!-- Node361 -->
<g id="node9" class="node"><title>Node361</title>
<g id="a_node9"><a xlink:href="class_main_window.html#a0b9416f68d223f4303ef6e2d8912905c" target="_top" xlink:title="MainWindow::generatePassword use either pwgen or internal password generator. ">
<polygon fill="none" stroke="black" points="397.276,-75.5 397.276,-93.5 559.458,-93.5 559.458,-75.5 397.276,-75.5"/>
<text text-anchor="middle" x="478.367" y="-81.5" font-family="Helvetica,sans-Serif" font-size="10.00">MainWindow::generatePassword</text>
</a>
</g>
</g>
<!-- Node360&#45;&gt;Node361 -->
<g id="edge10" class="edge"><title>Node360&#45;&gt;Node361</title>
<path fill="none" stroke="midnightblue" d="M371.459,-84.5C380.084,-84.5 388.763,-84.5 397.24,-84.5"/>
<polygon fill="midnightblue" stroke="midnightblue" points="371.374,-81.0001 361.374,-84.5 371.374,-88.0001 371.374,-81.0001"/>
</g>
<!-- Node362 -->
<g id="node10" class="node"><title>Node362</title>
<g id="a_node10"><a xlink:href="class_password_dialog.html#aa123158c0085b910ecf3bfdc9dae9e97" target="_top" xlink:title="PasswordDialog::~PasswordDialog basic destructor. ">
<polygon fill="none" stroke="black" points="595.458,-70.5 595.458,-98.5 739.017,-98.5 739.017,-70.5 595.458,-70.5"/>
<text text-anchor="start" x="603.458" y="-86.5" font-family="Helvetica,sans-Serif" font-size="10.00">PasswordDialog::~Password</text>
<text text-anchor="middle" x="667.237" y="-76.5" font-family="Helvetica,sans-Serif" font-size="10.00">Dialog</text>
</a>
</g>
</g>
<!-- Node361&#45;&gt;Node362 -->
<g id="edge11" class="edge"><title>Node361&#45;&gt;Node362</title>
<path fill="none" stroke="midnightblue" d="M569.768,-84.5C578.372,-84.5 587.01,-84.5 595.39,-84.5"/>
<polygon fill="midnightblue" stroke="midnightblue" points="569.701,-81.0001 559.701,-84.5 569.701,-88.0001 569.701,-81.0001"/>
</g>
</g>
</svg>
