<?xml version="1.0" encoding="UTF-8" standalone="no"?>
<!DOCTYPE svg PUBLIC "-//W3C//DTD SVG 1.1//EN"
 "http://www.w3.org/Graphics/SVG/1.1/DTD/svg11.dtd">
<!-- Generated by graphviz version 2.40.1 (20161225.0304)
 -->
<!-- Title: QtPassSettings::isAutoPull Pages: 1 -->
<svg width="657pt" height="64pt"
 viewBox="0.00 0.00 656.87 64.00" xmlns="http://www.w3.org/2000/svg" xmlns:xlink="http://www.w3.org/1999/xlink">
<g id="graph0" class="graph" transform="scale(1 1) rotate(0) translate(4 60)">
<title>QtPassSettings::isAutoPull</title>
<!-- Node175 -->
<g id="node1" class="node">
<title>Node175</title>
<polygon fill="#bfbfbf" stroke="#000000" points="0,-18.5 0,-36.5 134.9453,-36.5 134.9453,-18.5 0,-18.5"/>
<text text-anchor="middle" x="67.4727" y="-24.5" font-family="Helvetica,sans-Serif" font-size="10.00" fill="#000000">QtPassSettings::isAutoPull</text>
</g>
<!-- Node176 -->
<g id="node2" class="node">
<title>Node176</title>
<g id="a_node2"><a xlink:href="class_imitate_pass.html#a8670f6326e3dfe0018a0737fba27da2f" target="_top" xlink:title="ImitatePass::reencryptPath reencrypt all files under the chosen directory. ">
<polygon fill="none" stroke="#000000" points="170.9453,-37.5 170.9453,-55.5 306.999,-55.5 306.999,-37.5 170.9453,-37.5"/>
<text text-anchor="middle" x="238.9722" y="-43.5" font-family="Helvetica,sans-Serif" font-size="10.00" fill="#000000">ImitatePass::reencryptPath</text>
</a>
</g>
</g>
<!-- Node175&#45;&gt;Node176 -->
<g id="edge1" class="edge">
<title>Node175&#45;&gt;Node176</title>
<path fill="none" stroke="#191970" d="M145.2189,-36.1133C153.7671,-37.0603 162.4223,-38.0192 170.8407,-38.9519"/>
<polygon fill="#191970" stroke="#191970" points="145.5784,-32.6318 135.2538,-35.0093 144.8076,-39.5892 145.5784,-32.6318"/>
</g>
<!-- Node177 -->
<g id="node3" class="node">
<title>Node177</title>
<g id="a_node3"><a xlink:href="class_main_window.html#aeb8091ab5531144b76c1fbb0d63deb56" target="_top" xlink:title="MainWindow::config pops up the configuration screen and handles all inter&#45;window communication. ">
<polygon fill="none" stroke="#000000" points="186.231,-.5 186.231,-18.5 291.7134,-18.5 291.7134,-.5 186.231,-.5"/>
<text text-anchor="middle" x="238.9722" y="-6.5" font-family="Helvetica,sans-Serif" font-size="10.00" fill="#000000">MainWindow::config</text>
</a>
</g>
</g>
<!-- Node175&#45;&gt;Node177 -->
<g id="edge2" class="edge">
<title>Node175&#45;&gt;Node177</title>
<path fill="none" stroke="#191970" d="M145.2746,-19.3342C159.1331,-17.8796 173.2709,-16.3958 186.2233,-15.0363"/>
<polygon fill="#191970" stroke="#191970" points="144.8338,-15.8611 135.2538,-20.3859 145.5645,-22.8229 144.8338,-15.8611"/>
</g>
<!-- Node178 -->
<g id="node4" class="node">
<title>Node178</title>
<g id="a_node4"><a xlink:href="class_main_window.html#a23d2783cb61a373c4b0127970264290a" target="_top" xlink:title="MainWindow::checkConfig make sure we are ready to go as soon as possible. ">
<polygon fill="none" stroke="#000000" points="342.999,-.5 342.999,-18.5 476.8262,-18.5 476.8262,-.5 342.999,-.5"/>
<text text-anchor="middle" x="409.9126" y="-6.5" font-family="Helvetica,sans-Serif" font-size="10.00" fill="#000000">MainWindow::checkConfig</text>
</a>
</g>
</g>
<!-- Node177&#45;&gt;Node178 -->
<g id="edge3" class="edge">
<title>Node177&#45;&gt;Node178</title>
<path fill="none" stroke="#191970" d="M302.5056,-9.5C315.6856,-9.5 329.6121,-9.5 342.912,-9.5"/>
<polygon fill="#191970" stroke="#191970" points="302.1218,-6.0001 292.1218,-9.5 302.1217,-13.0001 302.1218,-6.0001"/>
</g>
<!-- Node179 -->
<g id="node5" class="node">
<title>Node179</title>
<g id="a_node5"><a xlink:href="class_main_window.html#a8b244be8b7b7db1b08de2a2acb9409db" target="_top" xlink:title="MainWindow::MainWindow handles all of the main functionality and also the main window. ">
<polygon fill="none" stroke="#000000" points="512.8262,-.5 512.8262,-18.5 648.8652,-18.5 648.8652,-.5 512.8262,-.5"/>
<text text-anchor="middle" x="580.8457" y="-6.5" font-family="Helvetica,sans-Serif" font-size="10.00" fill="#000000">MainWindow::MainWindow</text>
</a>
</g>
</g>
<!-- Node178&#45;&gt;Node179 -->
<g id="edge4" class="edge">
<title>Node178&#45;&gt;Node179</title>
<path fill="none" stroke="#191970" d="M487.2163,-9.5C495.6709,-9.5 504.2331,-9.5 512.5678,-9.5"/>
<polygon fill="#191970" stroke="#191970" points="486.9793,-6.0001 476.9793,-9.5 486.9793,-13.0001 486.9793,-6.0001"/>
</g>
</g>
</svg>
