<?xml version="1.0" encoding="UTF-8" standalone="no"?>
<!DOCTYPE svg PUBLIC "-//W3C//DTD SVG 1.1//EN"
 "http://www.w3.org/Graphics/SVG/1.1/DTD/svg11.dtd">
<!-- Generated by graphviz version 2.40.1 (20161225.0304)
 -->
<!-- Title: Pass::finished Pages: 1 -->
<svg width="231pt" height="101pt"
 viewBox="0.00 0.00 230.52 101.00" xmlns="http://www.w3.org/2000/svg" xmlns:xlink="http://www.w3.org/1999/xlink">
<g id="graph0" class="graph" transform="scale(1 1) rotate(0) translate(4 97)">
<title>Pass::finished</title>
<!-- Node68 -->
<g id="node1" class="node">
<title>Node68</title>
<polygon fill="#bfbfbf" stroke="#000000" points="0,-37.5 0,-55.5 78.2559,-55.5 78.2559,-37.5 0,-37.5"/>
<text text-anchor="middle" x="39.1279" y="-43.5" font-family="Helvetica,sans-Serif" font-size="10.00" fill="#000000">Pass::finished</text>
</g>
<!-- Node69 -->
<g id="node2" class="node">
<title>Node69</title>
<g id="a_node2"><a xlink:href="class_imitate_pass.html#ac20ec846eb423ae4b89c8efef0c1a235" target="_top" xlink:title="ImitatePass::finished this function is overloaded to ensure identical behaviour to RealPass ie...">
<polygon fill="none" stroke="#000000" points="114.2559,-74.5 114.2559,-92.5 222.5215,-92.5 222.5215,-74.5 114.2559,-74.5"/>
<text text-anchor="middle" x="168.3887" y="-80.5" font-family="Helvetica,sans-Serif" font-size="10.00" fill="#000000">ImitatePass::finished</text>
</a>
</g>
</g>
<!-- Node68&#45;&gt;Node69 -->
<g id="edge1" class="edge">
<title>Node68&#45;&gt;Node69</title>
<path fill="none" stroke="#191970" d="M80.5175,-58.3475C98.7053,-63.5536 119.7259,-69.5706 136.6464,-74.414"/>
<polygon fill="#191970" stroke="#191970" points="81.3258,-54.9383 70.7487,-55.5512 79.3994,-61.6681 81.3258,-54.9383"/>
</g>
<!-- Node70 -->
<g id="node3" class="node">
<title>Node70</title>
<g id="a_node3"><a xlink:href="class_pass.html#a5d0cea4019f5c123fb4a4417de8d95b9" target="_top" xlink:title="Pass::Pass wrapper for using either pass or the pass imitation. ">
<polygon fill="none" stroke="#000000" points="135.3789,-37.5 135.3789,-55.5 201.3984,-55.5 201.3984,-37.5 135.3789,-37.5"/>
<text text-anchor="middle" x="168.3887" y="-43.5" font-family="Helvetica,sans-Serif" font-size="10.00" fill="#000000">Pass::Pass</text>
</a>
</g>
</g>
<!-- Node68&#45;&gt;Node70 -->
<g id="edge2" class="edge">
<title>Node68&#45;&gt;Node70</title>
<path fill="none" stroke="#191970" d="M88.3021,-46.5C103.9253,-46.5 120.8285,-46.5 135.0614,-46.5"/>
<polygon fill="#191970" stroke="#191970" points="88.2612,-43.0001 78.2612,-46.5 88.2612,-50.0001 88.2612,-43.0001"/>
</g>
<!-- Node71 -->
<g id="node4" class="node">
<title>Node71</title>
<g id="a_node4"><a xlink:href="class_pass.html#a8dfa731be7ac962f9f6a5cf8f29097ec" target="_top" xlink:title="Pass::~Pass">
<polygon fill="none" stroke="#000000" points="132.459,-.5 132.459,-18.5 204.3184,-18.5 204.3184,-.5 132.459,-.5"/>
<text text-anchor="middle" x="168.3887" y="-6.5" font-family="Helvetica,sans-Serif" font-size="10.00" fill="#000000">Pass::~Pass</text>
</a>
</g>
</g>
<!-- Node68&#45;&gt;Node71 -->
<g id="edge3" class="edge">
<title>Node68&#45;&gt;Node71</title>
<path fill="none" stroke="#191970" d="M80.5175,-34.6525C98.7053,-29.4464 119.7259,-23.4294 136.6464,-18.586"/>
<polygon fill="#191970" stroke="#191970" points="79.3994,-31.3319 70.7487,-37.4488 81.3258,-38.0617 79.3994,-31.3319"/>
</g>
</g>
</svg>
