<?xml version="1.0" encoding="UTF-8" standalone="no"?>
<!DOCTYPE svg PUBLIC "-//W3C//DTD SVG 1.1//EN"
 "http://www.w3.org/Graphics/SVG/1.1/DTD/svg11.dtd">
<!-- Generated by graphviz version 2.38.0 (20140413.2041)
 -->
<!-- Title: ImitatePass::startReencryptPath Pages: 1 -->
<!--zoomable 165 -->
<svg id="main" version="1.1" xmlns="http://www.w3.org/2000/svg" xmlns:xlink="http://www.w3.org/1999/xlink" xml:space="preserve" onload="init(evt)">
<style type="text/css"><![CDATA[
.edge:hover path { stroke: red; }
.edge:hover polygon { stroke: red; fill: red; }
]]></style>
<script type="text/javascript"><![CDATA[
var edges = document.getElementsByTagName('g');
if (edges && edges.length) {
  for (var i=0;i<edges.length;i++) {
    if (edges[i].id.substr(0,4)=='edge') {
      edges[i].setAttribute('class','edge');
    }
  }
}
]]></script>
        <defs>
                <circle id="rim" cx="0" cy="0" r="7"/>
                <circle id="rim2" cx="0" cy="0" r="3.5"/>
                <g id="zoomPlus">
                        <use xlink:href="#rim" fill="#404040">
                                <set attributeName="fill" to="#808080" begin="zoomplus.mouseover" end="zoomplus.mouseout"/>
                        </use>
                        <path d="M-4,0h8M0,-4v8" fill="none" stroke="white" stroke-width="1.5" pointer-events="none"/>
                </g>
                <g id="zoomMin">
                        <use xlink:href="#rim" fill="#404040">
                                <set attributeName="fill" to="#808080" begin="zoomminus.mouseover" end="zoomminus.mouseout"/>
                        </use>
                        <path d="M-4,0h8" fill="none" stroke="white" stroke-width="1.5" pointer-events="none"/>
                </g>
                <g id="dirArrow">
                        <path fill="none" stroke="white" stroke-width="1.5" d="M0,-3.0v7 M-2.5,-0.5L0,-3.0L2.5,-0.5"/>
                </g>
               <g id="resetDef">
                       <use xlink:href="#rim2" fill="#404040">
                               <set attributeName="fill" to="#808080" begin="reset.mouseover" end="reset.mouseout"/>
                       </use>
               </g>
        </defs>

<script type="text/javascript">
var viewWidth = 642;
var viewHeight = 165;
var sectionId = 'dynsection-26';
</script>
<script xlink:href="svgpan.js"/>
<svg id="graph" class="graph">
<g id="viewport">
<title>ImitatePass::startReencryptPath</title>
<!-- Node156 -->
<g id="node1" class="node"><title>Node156</title>
<polygon fill="#bfbfbf" stroke="black" points="0,-24.3818 0,-42.3818 159.394,-42.3818 159.394,-24.3818 0,-24.3818"/>
<text text-anchor="middle" x="79.6968" y="-30.3818" font-family="Helvetica,sans-Serif" font-size="10.00">ImitatePass::startReencryptPath</text>
</g>
<!-- Node157 -->
<g id="node2" class="node"><title>Node157</title>
<g id="a_node2"><a xlink:href="class_imitate_pass.html#a8670f6326e3dfe0018a0737fba27da2f" target="_top" xlink:title="ImitatePass::reencryptPath reencrypt all files under the chosen directory. ">
<polygon fill="none" stroke="black" points="195.394,-62.3818 195.394,-80.3818 331.447,-80.3818 331.447,-62.3818 195.394,-62.3818"/>
<text text-anchor="middle" x="263.42" y="-68.3818" font-family="Helvetica,sans-Serif" font-size="10.00">ImitatePass::reencryptPath</text>
</a>
</g>
</g>
<!-- Node156&#45;&gt;Node157 -->
<g id="edge1" class="edge"><title>Node156&#45;&gt;Node157</title>
<path fill="none" stroke="midnightblue" d="M133.892,-44.5053C161.088,-50.1923 193.754,-57.0231 219.349,-62.3752"/>
<polygon fill="midnightblue" stroke="midnightblue" points="134.267,-41.0082 123.763,-42.3872 132.835,-47.86 134.267,-41.0082"/>
</g>
<!-- Node159 -->
<g id="node4" class="node"><title>Node159</title>
<g id="a_node4"><a xlink:href="class_imitate_pass.html#af4d70979dc11ccdee6cec699fb20d942" target="_top" xlink:title="ImitatePass::~ImitatePass">
<polygon fill="none" stroke="black" points="501.698,-62.3818 501.698,-80.3818 633.577,-80.3818 633.577,-62.3818 501.698,-62.3818"/>
<text text-anchor="middle" x="567.638" y="-68.3818" font-family="Helvetica,sans-Serif" font-size="10.00">ImitatePass::~ImitatePass</text>
</a>
</g>
</g>
<!-- Node156&#45;&gt;Node159 -->
<g id="edge9" class="edge"><title>Node156&#45;&gt;Node159</title>
<path fill="none" stroke="midnightblue" d="M128.254,-22.2556C201.897,-6.99862 347.374,15.2422 465.698,-15.3818 501.008,-24.5205 537.13,-48.9693 555.062,-62.3401"/>
<polygon fill="midnightblue" stroke="midnightblue" points="127.407,-18.8575 118.35,-24.3559 128.859,-25.7053 127.407,-18.8575"/>
</g>
<!-- Node158 -->
<g id="node3" class="node"><title>Node158</title>
<g id="a_node3"><a xlink:href="class_imitate_pass.html#ab4ee26f024636eb1b0989b1c1e67d5c0" target="_top" xlink:title="ImitatePass::Init initialize pass repository. ">
<polygon fill="none" stroke="black" points="373.004,-138.382 373.004,-156.382 460.142,-156.382 460.142,-138.382 373.004,-138.382"/>
<text text-anchor="middle" x="416.573" y="-144.382" font-family="Helvetica,sans-Serif" font-size="10.00">ImitatePass::Init</text>
</a>
</g>
</g>
<!-- Node157&#45;&gt;Node158 -->
<g id="edge2" class="edge"><title>Node157&#45;&gt;Node158</title>
<path fill="none" stroke="midnightblue" d="M291.445,-85.0662C312.216,-95.5733 341.629,-110.429 367.447,-123.382 377.294,-128.322 388.289,-133.807 397.28,-138.285"/>
<polygon fill="midnightblue" stroke="midnightblue" points="292.778,-81.8183 282.275,-80.4261 289.617,-88.0642 292.778,-81.8183"/>
</g>
<!-- Node157&#45;&gt;Node159 -->
<g id="edge8" class="edge"><title>Node157&#45;&gt;Node159</title>
<path fill="none" stroke="midnightblue" d="M314.006,-82.4173C330.874,-85.6654 349.898,-88.7771 367.447,-90.3818 410.933,-94.358 422.22,-94.4381 465.698,-90.3818 486.471,-88.4437 509.341,-84.3085 528.051,-80.3892"/>
<polygon fill="midnightblue" stroke="midnightblue" points="314.306,-78.9083 303.815,-80.3895 312.94,-85.7737 314.306,-78.9083"/>
</g>
<!-- Node160 -->
<g id="node5" class="node"><title>Node160</title>
<g id="a_node5"><a xlink:href="class_imitate_pass.html#abd150b37240a340cbec88d888e0a7fe6" target="_top" xlink:title="ImitatePass::Move">
<polygon fill="none" stroke="black" points="367.447,-62.3818 367.447,-80.3818 465.698,-80.3818 465.698,-62.3818 367.447,-62.3818"/>
<text text-anchor="middle" x="416.573" y="-68.3818" font-family="Helvetica,sans-Serif" font-size="10.00">ImitatePass::Move</text>
</a>
</g>
</g>
<!-- Node157&#45;&gt;Node160 -->
<g id="edge4" class="edge"><title>Node157&#45;&gt;Node160</title>
<path fill="none" stroke="midnightblue" d="M341.751,-71.3818C350.41,-71.3818 359.039,-71.3818 367.182,-71.3818"/>
<polygon fill="midnightblue" stroke="midnightblue" points="341.598,-67.8819 331.598,-71.3818 341.598,-74.8819 341.598,-67.8819"/>
</g>
<!-- Node161 -->
<g id="node6" class="node"><title>Node161</title>
<g id="a_node6"><a xlink:href="class_imitate_pass.html#a6db1849662fe03e61f9410fce080890d" target="_top" xlink:title="ImitatePass::Copy">
<polygon fill="none" stroke="black" points="368.001,-25.3818 368.001,-43.3818 465.144,-43.3818 465.144,-25.3818 368.001,-25.3818"/>
<text text-anchor="middle" x="416.573" y="-31.3818" font-family="Helvetica,sans-Serif" font-size="10.00">ImitatePass::Copy</text>
</a>
</g>
</g>
<!-- Node157&#45;&gt;Node161 -->
<g id="edge6" class="edge"><title>Node157&#45;&gt;Node161</title>
<path fill="none" stroke="midnightblue" d="M311.387,-59.8851C333.07,-54.5772 358.441,-48.3669 378.717,-43.4036"/>
<polygon fill="midnightblue" stroke="midnightblue" points="310.277,-56.5532 301.396,-62.3305 311.942,-63.3524 310.277,-56.5532"/>
</g>
<!-- Node158&#45;&gt;Node159 -->
<g id="edge3" class="edge"><title>Node158&#45;&gt;Node159</title>
<path fill="none" stroke="midnightblue" d="M445.272,-133.646C451.967,-130.304 459.096,-126.728 465.698,-123.382 495.062,-108.497 529.07,-90.9037 549.167,-80.4697"/>
<polygon fill="midnightblue" stroke="midnightblue" points="443.275,-130.73 435.883,-138.321 446.395,-136.996 443.275,-130.73"/>
</g>
<!-- Node160&#45;&gt;Node159 -->
<g id="edge5" class="edge"><title>Node160&#45;&gt;Node159</title>
<path fill="none" stroke="midnightblue" d="M476.052,-71.3818C484.458,-71.3818 493.151,-71.3818 501.674,-71.3818"/>
<polygon fill="midnightblue" stroke="midnightblue" points="475.97,-67.8819 465.97,-71.3818 475.97,-74.8819 475.97,-67.8819"/>
</g>
<!-- Node161&#45;&gt;Node159 -->
<g id="edge7" class="edge"><title>Node161&#45;&gt;Node159</title>
<path fill="none" stroke="midnightblue" d="M463.89,-45.8784C485.275,-51.1863 510.295,-57.3966 530.291,-62.3599"/>
<polygon fill="midnightblue" stroke="midnightblue" points="464.587,-42.4452 454.038,-43.433 462.9,-49.239 464.587,-42.4452"/>
</g>
</g>
</svg>
        <g id="navigator" transform="translate(0 0)" fill="#404254">
                <rect fill="#f2f5e9" fill-opacity="0.5" stroke="#606060" stroke-width=".5" x="0" y="0" width="60" height="60"/>
                <use id="zoomplus" xlink:href="#zoomPlus" x="17" y="9" onmousedown="handleZoom(evt,'in')"/>
                <use id="zoomminus" xlink:href="#zoomMin" x="42" y="9" onmousedown="handleZoom(evt,'out')"/>
                <use id="reset" xlink:href="#resetDef" x="30" y="36" onmousedown="handleReset()"/>
                <g id="arrowUp" xlink:href="#dirArrow" transform="translate(30 24)" onmousedown="handlePan(0,-1)">
                  <use xlink:href="#rim" fill="#404040">
                        <set attributeName="fill" to="#808080" begin="arrowUp.mouseover" end="arrowUp.mouseout"/>
                  </use>
                  <path fill="none" stroke="white" stroke-width="1.5" d="M0,-3.0v7 M-2.5,-0.5L0,-3.0L2.5,-0.5"/>
                </g>
                <g id="arrowRight" xlink:href="#dirArrow" transform="rotate(90) translate(36 -43)" onmousedown="handlePan(1,0)">
                  <use xlink:href="#rim" fill="#404040">
                        <set attributeName="fill" to="#808080" begin="arrowRight.mouseover" end="arrowRight.mouseout"/>
                  </use>
                  <path fill="none" stroke="white" stroke-width="1.5" d="M0,-3.0v7 M-2.5,-0.5L0,-3.0L2.5,-0.5"/>
                </g>
                <g id="arrowDown" xlink:href="#dirArrow" transform="rotate(180) translate(-30 -48)" onmousedown="handlePan(0,1)">
                  <use xlink:href="#rim" fill="#404040">
                        <set attributeName="fill" to="#808080" begin="arrowDown.mouseover" end="arrowDown.mouseout"/>
                  </use>
                  <path fill="none" stroke="white" stroke-width="1.5" d="M0,-3.0v7 M-2.5,-0.5L0,-3.0L2.5,-0.5"/>
                </g>
                <g id="arrowLeft" xlink:href="#dirArrow" transform="rotate(270) translate(-36 17)" onmousedown="handlePan(-1,0)">
                  <use xlink:href="#rim" fill="#404040">
                        <set attributeName="fill" to="#808080" begin="arrowLeft.mouseover" end="arrowLeft.mouseout"/>
                  </use>
                  <path fill="none" stroke="white" stroke-width="1.5" d="M0,-3.0v7 M-2.5,-0.5L0,-3.0L2.5,-0.5"/>
                </g>
        </g>
        <svg viewBox="0 0 15 15" width="100%" height="30px" preserveAspectRatio="xMaxYMin meet">
         <g id="arrow_out" transform="scale(0.3 0.3)">
          <a xlink:href="class_imitate_pass_aecffecc95bd1c0281849dbfe11231e36_icgraph_org.svg" target="_base">
           <rect id="button" ry="5" rx="5" y="6" x="6" height="38" width="38"
                fill="#f2f5e9" fill-opacity="0.5" stroke="#606060" stroke-width="1.0"/>
           <path id="arrow"
             d="M 11.500037,31.436501 C 11.940474,20.09759 22.043105,11.32322 32.158766,21.979434 L 37.068811,17.246167 C 37.068811,17.246167 37.088388,32 37.088388,32 L 22.160133,31.978069 C 22.160133,31.978069 26.997745,27.140456 26.997745,27.140456 C 18.528582,18.264221 13.291696,25.230495 11.500037,31.436501 z"
             style="fill:#404040;"/>
          </a>
         </g>
        </svg>
</svg>
