<?xml version="1.0" encoding="UTF-8" standalone="no"?>
<!DOCTYPE svg PUBLIC "-//W3C//DTD SVG 1.1//EN"
 "http://www.w3.org/Graphics/SVG/1.1/DTD/svg11.dtd">
<!-- Generated by graphviz version 2.38.0 (20140413.2041)
 -->
<!-- Title: QtPassSettings::setPassStore Pages: 1 -->
<!--zoomable 140 -->
<svg id="main" version="1.1" xmlns="http://www.w3.org/2000/svg" xmlns:xlink="http://www.w3.org/1999/xlink" xml:space="preserve" onload="init(evt)">
<style type="text/css"><![CDATA[
.edge:hover path { stroke: red; }
.edge:hover polygon { stroke: red; fill: red; }
]]></style>
<script type="text/javascript"><![CDATA[
var edges = document.getElementsByTagName('g');
if (edges && edges.length) {
  for (var i=0;i<edges.length;i++) {
    if (edges[i].id.substr(0,4)=='edge') {
      edges[i].setAttribute('class','edge');
    }
  }
}
]]></script>
        <defs>
                <circle id="rim" cx="0" cy="0" r="7"/>
                <circle id="rim2" cx="0" cy="0" r="3.5"/>
                <g id="zoomPlus">
                        <use xlink:href="#rim" fill="#404040">
                                <set attributeName="fill" to="#808080" begin="zoomplus.mouseover" end="zoomplus.mouseout"/>
                        </use>
                        <path d="M-4,0h8M0,-4v8" fill="none" stroke="white" stroke-width="1.5" pointer-events="none"/>
                </g>
                <g id="zoomMin">
                        <use xlink:href="#rim" fill="#404040">
                                <set attributeName="fill" to="#808080" begin="zoomminus.mouseover" end="zoomminus.mouseout"/>
                        </use>
                        <path d="M-4,0h8" fill="none" stroke="white" stroke-width="1.5" pointer-events="none"/>
                </g>
                <g id="dirArrow">
                        <path fill="none" stroke="white" stroke-width="1.5" d="M0,-3.0v7 M-2.5,-0.5L0,-3.0L2.5,-0.5"/>
                </g>
               <g id="resetDef">
                       <use xlink:href="#rim2" fill="#404040">
                               <set attributeName="fill" to="#808080" begin="reset.mouseover" end="reset.mouseout"/>
                       </use>
               </g>
        </defs>

<script type="text/javascript">
var viewWidth = 733;
var viewHeight = 140;
var sectionId = 'dynsection-67';
</script>
<script xlink:href="svgpan.js"/>
<svg id="graph" class="graph">
<g id="viewport">
<title>QtPassSettings::setPassStore</title>
<!-- Node490 -->
<g id="node1" class="node"><title>Node490</title>
<polygon fill="#bfbfbf" stroke="black" points="0,-56.5 0,-74.5 149.95,-74.5 149.95,-56.5 0,-56.5"/>
<text text-anchor="middle" x="74.9751" y="-62.5" font-family="Helvetica,sans-Serif" font-size="10.00">QtPassSettings::setPassStore</text>
</g>
<!-- Node491 -->
<g id="node2" class="node"><title>Node491</title>
<g id="a_node2"><a xlink:href="class_main_window.html#ac7c881667b4ba4986b5a0030452ee3f0" target="_top" xlink:title="MainWindow::changeEvent sets focus to the search box. ">
<polygon fill="none" stroke="black" points="194.007,-113.5 194.007,-131.5 331.184,-131.5 331.184,-113.5 194.007,-113.5"/>
<text text-anchor="middle" x="262.595" y="-119.5" font-family="Helvetica,sans-Serif" font-size="10.00">MainWindow::changeEvent</text>
</a>
</g>
</g>
<!-- Node490&#45;&gt;Node491 -->
<g id="edge1" class="edge"><title>Node490&#45;&gt;Node491</title>
<path fill="none" stroke="midnightblue" d="M115.242,-77.558C150.146,-88.2764 200.406,-103.71 232.014,-113.416"/>
<polygon fill="midnightblue" stroke="midnightblue" points="115.974,-74.1216 105.387,-74.5318 113.919,-80.8132 115.974,-74.1216"/>
</g>
<!-- Node492 -->
<g id="node3" class="node"><title>Node492</title>
<g id="a_node3"><a xlink:href="class_main_window.html#a23d2783cb61a373c4b0127970264290a" target="_top" xlink:title="MainWindow::checkConfig make sure we are ready to go as soon as possible. ">
<polygon fill="none" stroke="black" points="389.413,-74.5 389.413,-92.5 523.24,-92.5 523.24,-74.5 389.413,-74.5"/>
<text text-anchor="middle" x="456.326" y="-80.5" font-family="Helvetica,sans-Serif" font-size="10.00">MainWindow::checkConfig</text>
</a>
</g>
</g>
<!-- Node490&#45;&gt;Node492 -->
<g id="edge2" class="edge"><title>Node490&#45;&gt;Node492</title>
<path fill="none" stroke="midnightblue" d="M160.011,-69.4875C229.139,-72.7675 325.754,-77.3519 389.393,-80.3715"/>
<polygon fill="midnightblue" stroke="midnightblue" points="160.173,-65.9913 150.018,-69.0133 159.841,-72.9834 160.173,-65.9913"/>
</g>
<!-- Node494 -->
<g id="node5" class="node"><title>Node494</title>
<g id="a_node5"><a xlink:href="class_main_window.html#aeb8091ab5531144b76c1fbb0d63deb56" target="_top" xlink:title="MainWindow::config pops up the configuration screen and handles all inter&#45;window communication. ">
<polygon fill="none" stroke="black" points="209.854,-37.5 209.854,-55.5 315.336,-55.5 315.336,-37.5 209.854,-37.5"/>
<text text-anchor="middle" x="262.595" y="-43.5" font-family="Helvetica,sans-Serif" font-size="10.00">MainWindow::config</text>
</a>
</g>
</g>
<!-- Node490&#45;&gt;Node494 -->
<g id="edge4" class="edge"><title>Node490&#45;&gt;Node494</title>
<path fill="none" stroke="midnightblue" d="M160.534,-56.8446C177.338,-55.1245 194.507,-53.3671 209.812,-51.8005"/>
<polygon fill="midnightblue" stroke="midnightblue" points="159.729,-53.4086 150.137,-57.9088 160.442,-60.3722 159.729,-53.4086"/>
</g>
<!-- Node497 -->
<g id="node8" class="node"><title>Node497</title>
<g id="a_node8"><a xlink:href="class_main_window.html#adcd6afb4bbea0fc89cf5b5b51e387935" target="_top" xlink:title="MainWindow::generateKeyPair internal gpg keypair generator . . ">
<polygon fill="none" stroke="black" points="185.95,-0.5 185.95,-18.5 339.24,-18.5 339.24,-0.5 185.95,-0.5"/>
<text text-anchor="middle" x="262.595" y="-6.5" font-family="Helvetica,sans-Serif" font-size="10.00">MainWindow::generateKeyPair</text>
</a>
</g>
</g>
<!-- Node490&#45;&gt;Node497 -->
<g id="edge8" class="edge"><title>Node490&#45;&gt;Node497</title>
<path fill="none" stroke="midnightblue" d="M109.611,-52.9077C131.241,-45.0515 160.047,-35.0369 185.95,-27.5 196.968,-24.2942 209.009,-21.2329 220.178,-18.5735"/>
<polygon fill="midnightblue" stroke="midnightblue" points="108.4,-49.6236 100.213,-56.3487 110.807,-56.1968 108.4,-49.6236"/>
</g>
<!-- Node493 -->
<g id="node4" class="node"><title>Node493</title>
<g id="a_node4"><a xlink:href="class_main_window.html#a8b244be8b7b7db1b08de2a2acb9409db" target="_top" xlink:title="MainWindow::MainWindow handles all of the main functionality and also the main window. ">
<polygon fill="none" stroke="black" points="581.356,-74.5 581.356,-92.5 717.396,-92.5 717.396,-74.5 581.356,-74.5"/>
<text text-anchor="middle" x="649.376" y="-80.5" font-family="Helvetica,sans-Serif" font-size="10.00">MainWindow::MainWindow</text>
</a>
</g>
</g>
<!-- Node492&#45;&gt;Node493 -->
<g id="edge3" class="edge"><title>Node492&#45;&gt;Node493</title>
<path fill="none" stroke="midnightblue" d="M533.543,-83.5C549.254,-83.5 565.692,-83.5 581.06,-83.5"/>
<polygon fill="midnightblue" stroke="midnightblue" points="533.342,-80.0001 523.342,-83.5 533.342,-87.0001 533.342,-80.0001"/>
</g>
<!-- Node494&#45;&gt;Node492 -->
<g id="edge5" class="edge"><title>Node494&#45;&gt;Node492</title>
<path fill="none" stroke="midnightblue" d="M320.571,-57.4951C348.63,-62.9099 382.042,-69.3577 408.576,-74.4782"/>
<polygon fill="midnightblue" stroke="midnightblue" points="320.98,-54.0095 310.498,-55.5512 319.654,-60.8827 320.98,-54.0095"/>
</g>
<!-- Node495 -->
<g id="node6" class="node"><title>Node495</title>
<g id="a_node6"><a xlink:href="class_main_window.html#a4680b2cbcfd388683a98303f29c0f84f" target="_top" xlink:title="MainWindow::executePassGitInit git init wrapper. ">
<polygon fill="none" stroke="black" points="375.24,-37.5 375.24,-55.5 537.412,-55.5 537.412,-37.5 375.24,-37.5"/>
<text text-anchor="middle" x="456.326" y="-43.5" font-family="Helvetica,sans-Serif" font-size="10.00">MainWindow::executePassGitInit</text>
</a>
</g>
</g>
<!-- Node494&#45;&gt;Node495 -->
<g id="edge6" class="edge"><title>Node494&#45;&gt;Node495</title>
<path fill="none" stroke="midnightblue" d="M325.588,-46.5C341.306,-46.5 358.419,-46.5 374.906,-46.5"/>
<polygon fill="midnightblue" stroke="midnightblue" points="325.48,-43.0001 315.48,-46.5 325.48,-50.0001 325.48,-43.0001"/>
</g>
<!-- Node496 -->
<g id="node7" class="node"><title>Node496</title>
<g id="a_node7"><a xlink:href="class_config_dialog.html#ad5b80066591f19fdaaa06b7cb5ba7f15" target="_top" xlink:title="ConfigDialog::wizard first&#45;time use wizard. ">
<polygon fill="none" stroke="black" points="595.521,-37.5 595.521,-55.5 703.23,-55.5 703.23,-37.5 595.521,-37.5"/>
<text text-anchor="middle" x="649.376" y="-43.5" font-family="Helvetica,sans-Serif" font-size="10.00">ConfigDialog::wizard</text>
</a>
</g>
</g>
<!-- Node495&#45;&gt;Node496 -->
<g id="edge7" class="edge"><title>Node495&#45;&gt;Node496</title>
<path fill="none" stroke="midnightblue" d="M547.635,-46.5C563.954,-46.5 580.476,-46.5 595.289,-46.5"/>
<polygon fill="midnightblue" stroke="midnightblue" points="547.518,-43.0001 537.518,-46.5 547.518,-50.0001 547.518,-43.0001"/>
</g>
<!-- Node498 -->
<g id="node9" class="node"><title>Node498</title>
<g id="a_node9"><a xlink:href="class_config_dialog.html#a428d1f1b69aaaf09343e3d8db42ed138" target="_top" xlink:title="ConfigDialog::genKey tunnel function to make MainWindow generate a gpg key pair. ">
<polygon fill="none" stroke="black" points="399.962,-0.5 399.962,-18.5 512.69,-18.5 512.69,-0.5 399.962,-0.5"/>
<text text-anchor="middle" x="456.326" y="-6.5" font-family="Helvetica,sans-Serif" font-size="10.00">ConfigDialog::genKey</text>
</a>
</g>
</g>
<!-- Node497&#45;&gt;Node498 -->
<g id="edge9" class="edge"><title>Node497&#45;&gt;Node498</title>
<path fill="none" stroke="midnightblue" d="M349.399,-9.5C366.543,-9.5 384.12,-9.5 399.906,-9.5"/>
<polygon fill="midnightblue" stroke="midnightblue" points="349.372,-6.0001 339.372,-9.5 349.372,-13.0001 349.372,-6.0001"/>
</g>
<!-- Node499 -->
<g id="node10" class="node"><title>Node499</title>
<g id="a_node10"><a xlink:href="class_keygen_dialog.html#a90b3a3db49016043ba160a50c5272643" target="_top" xlink:title="KeygenDialog::~KeygenDialog even more basic destructor. ">
<polygon fill="none" stroke="black" points="573.412,-0.5 573.412,-18.5 725.34,-18.5 725.34,-0.5 573.412,-0.5"/>
<text text-anchor="middle" x="649.376" y="-6.5" font-family="Helvetica,sans-Serif" font-size="10.00">KeygenDialog::~KeygenDialog</text>
</a>
</g>
</g>
<!-- Node498&#45;&gt;Node499 -->
<g id="edge10" class="edge"><title>Node498&#45;&gt;Node499</title>
<path fill="none" stroke="midnightblue" d="M523.221,-9.5C539.322,-9.5 556.669,-9.5 573.169,-9.5"/>
<polygon fill="midnightblue" stroke="midnightblue" points="522.842,-6.0001 512.842,-9.5 522.842,-13.0001 522.842,-6.0001"/>
</g>
</g>
</svg>
        <g id="navigator" transform="translate(0 0)" fill="#404254">
                <rect fill="#f2f5e9" fill-opacity="0.5" stroke="#606060" stroke-width=".5" x="0" y="0" width="60" height="60"/>
                <use id="zoomplus" xlink:href="#zoomPlus" x="17" y="9" onmousedown="handleZoom(evt,'in')"/>
                <use id="zoomminus" xlink:href="#zoomMin" x="42" y="9" onmousedown="handleZoom(evt,'out')"/>
                <use id="reset" xlink:href="#resetDef" x="30" y="36" onmousedown="handleReset()"/>
                <g id="arrowUp" xlink:href="#dirArrow" transform="translate(30 24)" onmousedown="handlePan(0,-1)">
                  <use xlink:href="#rim" fill="#404040">
                        <set attributeName="fill" to="#808080" begin="arrowUp.mouseover" end="arrowUp.mouseout"/>
                  </use>
                  <path fill="none" stroke="white" stroke-width="1.5" d="M0,-3.0v7 M-2.5,-0.5L0,-3.0L2.5,-0.5"/>
                </g>
                <g id="arrowRight" xlink:href="#dirArrow" transform="rotate(90) translate(36 -43)" onmousedown="handlePan(1,0)">
                  <use xlink:href="#rim" fill="#404040">
                        <set attributeName="fill" to="#808080" begin="arrowRight.mouseover" end="arrowRight.mouseout"/>
                  </use>
                  <path fill="none" stroke="white" stroke-width="1.5" d="M0,-3.0v7 M-2.5,-0.5L0,-3.0L2.5,-0.5"/>
                </g>
                <g id="arrowDown" xlink:href="#dirArrow" transform="rotate(180) translate(-30 -48)" onmousedown="handlePan(0,1)">
                  <use xlink:href="#rim" fill="#404040">
                        <set attributeName="fill" to="#808080" begin="arrowDown.mouseover" end="arrowDown.mouseout"/>
                  </use>
                  <path fill="none" stroke="white" stroke-width="1.5" d="M0,-3.0v7 M-2.5,-0.5L0,-3.0L2.5,-0.5"/>
                </g>
                <g id="arrowLeft" xlink:href="#dirArrow" transform="rotate(270) translate(-36 17)" onmousedown="handlePan(-1,0)">
                  <use xlink:href="#rim" fill="#404040">
                        <set attributeName="fill" to="#808080" begin="arrowLeft.mouseover" end="arrowLeft.mouseout"/>
                  </use>
                  <path fill="none" stroke="white" stroke-width="1.5" d="M0,-3.0v7 M-2.5,-0.5L0,-3.0L2.5,-0.5"/>
                </g>
        </g>
        <svg viewBox="0 0 15 15" width="100%" height="30px" preserveAspectRatio="xMaxYMin meet">
         <g id="arrow_out" transform="scale(0.3 0.3)">
          <a xlink:href="class_qt_pass_settings_a2b30ee2cd3b185148f63fca568c33f6e_icgraph_org.svg" target="_base">
           <rect id="button" ry="5" rx="5" y="6" x="6" height="38" width="38"
                fill="#f2f5e9" fill-opacity="0.5" stroke="#606060" stroke-width="1.0"/>
           <path id="arrow"
             d="M 11.500037,31.436501 C 11.940474,20.09759 22.043105,11.32322 32.158766,21.979434 L 37.068811,17.246167 C 37.068811,17.246167 37.088388,32 37.088388,32 L 22.160133,31.978069 C 22.160133,31.978069 26.997745,27.140456 26.997745,27.140456 C 18.528582,18.264221 13.291696,25.230495 11.500037,31.436501 z"
             style="fill:#404040;"/>
          </a>
         </g>
        </svg>
</svg>
