<?xml version="1.0" encoding="UTF-8" standalone="no"?>
<!DOCTYPE svg PUBLIC "-//W3C//DTD SVG 1.1//EN"
 "http://www.w3.org/Graphics/SVG/1.1/DTD/svg11.dtd">
<!-- Generated by graphviz version 2.40.1 (20161225.0304)
 -->
<!-- Title: QtPassSettings::getGeometry Pages: 1 -->
<svg width="671pt" height="27pt"
 viewBox="0.00 0.00 670.73 27.00" xmlns="http://www.w3.org/2000/svg" xmlns:xlink="http://www.w3.org/1999/xlink">
<g id="graph0" class="graph" transform="scale(1 1) rotate(0) translate(4 23)">
<title>QtPassSettings::getGeometry</title>
<!-- Node28 -->
<g id="node1" class="node">
<title>Node28</title>
<polygon fill="#bfbfbf" stroke="#000000" points="0,-.5 0,-18.5 148.2803,-18.5 148.2803,-.5 0,-.5"/>
<text text-anchor="middle" x="74.1401" y="-6.5" font-family="Helvetica,sans-Serif" font-size="10.00" fill="#000000">QtPassSettings::getGeometry</text>
</g>
<!-- Node29 -->
<g id="node2" class="node">
<title>Node29</title>
<g id="a_node2"><a xlink:href="class_main_window.html#a9630f0fe0e0941a7996d68014f837ed5" target="_top" xlink:title="MainWindow::restoreWindow">
<polygon fill="none" stroke="#000000" points="184.2803,-.5 184.2803,-18.5 329.7676,-18.5 329.7676,-.5 184.2803,-.5"/>
<text text-anchor="middle" x="257.0239" y="-6.5" font-family="Helvetica,sans-Serif" font-size="10.00" fill="#000000">MainWindow::restoreWindow</text>
</a>
</g>
</g>
<!-- Node28&#45;&gt;Node29 -->
<g id="edge1" class="edge">
<title>Node28&#45;&gt;Node29</title>
<path fill="none" stroke="#191970" d="M158.5298,-9.5C167.0996,-9.5 175.7525,-9.5 184.1851,-9.5"/>
<polygon fill="#191970" stroke="#191970" points="158.526,-6.0001 148.526,-9.5 158.5259,-13.0001 158.526,-6.0001"/>
</g>
<!-- Node30 -->
<g id="node3" class="node">
<title>Node30</title>
<g id="a_node3"><a xlink:href="class_qt_pass.html#abd1d1e8d6b80b8307a305d80a6c34371" target="_top" xlink:title="QtPass::setMainWindow">
<polygon fill="none" stroke="#000000" points="365.7676,-.5 365.7676,-18.5 490.6934,-18.5 490.6934,-.5 365.7676,-.5"/>
<text text-anchor="middle" x="428.2305" y="-6.5" font-family="Helvetica,sans-Serif" font-size="10.00" fill="#000000">QtPass::setMainWindow</text>
</a>
</g>
</g>
<!-- Node29&#45;&gt;Node30 -->
<g id="edge2" class="edge">
<title>Node29&#45;&gt;Node30</title>
<path fill="none" stroke="#191970" d="M340.153,-9.5C348.7237,-9.5 357.3275,-9.5 365.6203,-9.5"/>
<polygon fill="#191970" stroke="#191970" points="340.1276,-6.0001 330.1275,-9.5 340.1275,-13.0001 340.1276,-6.0001"/>
</g>
<!-- Node31 -->
<g id="node4" class="node">
<title>Node31</title>
<g id="a_node4"><a xlink:href="class_main_window.html#a52e97245b2f88492071e639395c4a15a" target="_top" xlink:title="MainWindow::MainWindow handles all of the main functionality and also the main window. ">
<polygon fill="none" stroke="#000000" points="526.6934,-.5 526.6934,-18.5 662.7324,-18.5 662.7324,-.5 526.6934,-.5"/>
<text text-anchor="middle" x="594.7129" y="-6.5" font-family="Helvetica,sans-Serif" font-size="10.00" fill="#000000">MainWindow::MainWindow</text>
</a>
</g>
</g>
<!-- Node30&#45;&gt;Node31 -->
<g id="edge3" class="edge">
<title>Node30&#45;&gt;Node31</title>
<path fill="none" stroke="#191970" d="M500.6996,-9.5C509.3014,-9.5 518.0593,-9.5 526.5975,-9.5"/>
<polygon fill="#191970" stroke="#191970" points="500.6961,-6.0001 490.696,-9.5 500.696,-13.0001 500.6961,-6.0001"/>
</g>
</g>
</svg>
