<?xml version="1.0" encoding="UTF-8" standalone="no"?>
<!DOCTYPE svg PUBLIC "-//W3C//DTD SVG 1.1//EN"
 "http://www.w3.org/Graphics/SVG/1.1/DTD/svg11.dtd">
<!-- Generated by graphviz version 2.40.1 (20161225.0304)
 -->
<!-- Title: QProgressIndicator::stopAnimation Pages: 1 -->
<svg width="386pt" height="84pt"
 viewBox="0.00 0.00 386.44 84.00" xmlns="http://www.w3.org/2000/svg" xmlns:xlink="http://www.w3.org/1999/xlink">
<g id="graph0" class="graph" transform="scale(1 1) rotate(0) translate(4 80)">
<title>QProgressIndicator::stopAnimation</title>
<!-- Node84 -->
<g id="node1" class="node">
<title>Node84</title>
<polygon fill="#bfbfbf" stroke="#000000" points="0,-23.5 0,-51.5 102.1475,-51.5 102.1475,-23.5 0,-23.5"/>
<text text-anchor="start" x="8" y="-39.5" font-family="Helvetica,sans-Serif" font-size="10.00" fill="#000000">QProgressIndicator</text>
<text text-anchor="middle" x="51.0737" y="-29.5" font-family="Helvetica,sans-Serif" font-size="10.00" fill="#000000">::stopAnimation</text>
</g>
<!-- Node85 -->
<g id="node2" class="node">
<title>Node85</title>
<g id="a_node2"><a xlink:href="class_q_progress_indicator.html#afdc92dfc35132dadcce9fd45adc51c65" target="_top" xlink:title="Returns the color of the component. ">
<polygon fill="none" stroke="#000000" points="138.1475,-23.5 138.1475,-51.5 240.2949,-51.5 240.2949,-23.5 138.1475,-23.5"/>
<text text-anchor="start" x="146.1475" y="-39.5" font-family="Helvetica,sans-Serif" font-size="10.00" fill="#000000">QProgressIndicator</text>
<text text-anchor="middle" x="189.2212" y="-29.5" font-family="Helvetica,sans-Serif" font-size="10.00" fill="#000000">::color</text>
</a>
</g>
</g>
<!-- Node84&#45;&gt;Node85 -->
<g id="edge1" class="edge">
<title>Node84&#45;&gt;Node85</title>
<path fill="none" stroke="#191970" d="M112.6351,-37.5C121.0204,-37.5 129.5552,-37.5 137.7372,-37.5"/>
<polygon fill="#191970" stroke="#191970" points="112.5148,-34.0001 102.5147,-37.5 112.5147,-41.0001 112.5148,-34.0001"/>
</g>
<!-- Node86 -->
<g id="node3" class="node">
<title>Node86</title>
<g id="a_node3"><a xlink:href="class_q_progress_indicator.html#a62161c81afb5ce019e9a7a55c69e3654" target="_top" xlink:title="Sets the color of the components to the given color. ">
<polygon fill="none" stroke="#000000" points="276.2949,-47.5 276.2949,-75.5 378.4424,-75.5 378.4424,-47.5 276.2949,-47.5"/>
<text text-anchor="start" x="284.2949" y="-63.5" font-family="Helvetica,sans-Serif" font-size="10.00" fill="#000000">QProgressIndicator</text>
<text text-anchor="middle" x="327.3687" y="-53.5" font-family="Helvetica,sans-Serif" font-size="10.00" fill="#000000">::setColor</text>
</a>
</g>
</g>
<!-- Node85&#45;&gt;Node86 -->
<g id="edge2" class="edge">
<title>Node85&#45;&gt;Node86</title>
<path fill="none" stroke="#191970" d="M250.6167,-41.4533C261.571,-43.2498 272.786,-45.3205 283.1414,-47.4707"/>
<polygon fill="#191970" stroke="#191970" points="251.0849,-37.984 240.6622,-39.8861 249.9962,-44.8988 251.0849,-37.984"/>
</g>
<!-- Node87 -->
<g id="node4" class="node">
<title>Node87</title>
<g id="a_node4"><a xlink:href="class_q_progress_indicator.html#a38d3e8644a4e74d892b42270c9b6ae8f" target="_top" xlink:title="QProgressIndicator::paintEvent draw the spinner. ">
<polygon fill="none" stroke="#000000" points="276.2949,-.5 276.2949,-28.5 378.4424,-28.5 378.4424,-.5 276.2949,-.5"/>
<text text-anchor="start" x="284.2949" y="-16.5" font-family="Helvetica,sans-Serif" font-size="10.00" fill="#000000">QProgressIndicator</text>
<text text-anchor="middle" x="327.3687" y="-6.5" font-family="Helvetica,sans-Serif" font-size="10.00" fill="#000000">::paintEvent</text>
</a>
</g>
</g>
<!-- Node85&#45;&gt;Node87 -->
<g id="edge4" class="edge">
<title>Node85&#45;&gt;Node87</title>
<path fill="none" stroke="#191970" d="M245.1925,-21.5405C255.3268,-19.6826 265.8517,-17.9599 275.8509,-16.5248"/>
<polygon fill="#191970" stroke="#191970" points="244.3917,-18.13 235.2223,-23.4378 245.7003,-25.0066 244.3917,-18.13"/>
</g>
<!-- Node86&#45;&gt;Node85 -->
<g id="edge3" class="edge">
<title>Node86&#45;&gt;Node85</title>
<path fill="none" stroke="#191970" d="M265.9898,-57.5494C254.982,-55.7444 243.7104,-53.6624 233.3117,-51.5009"/>
<polygon fill="#191970" stroke="#191970" points="265.5695,-61.0263 275.9921,-59.1236 266.6578,-54.1114 265.5695,-61.0263"/>
</g>
<!-- Node87&#45;&gt;Node85 -->
<g id="edge5" class="edge">
<title>Node87&#45;&gt;Node85</title>
<path fill="none" stroke="#191970" d="M271.3639,-30.4656C261.214,-32.3259 250.6733,-34.0505 240.6622,-35.4862"/>
<polygon fill="#191970" stroke="#191970" points="272.18,-33.8732 281.3495,-28.5657 270.8716,-26.9966 272.18,-33.8732"/>
</g>
</g>
</svg>
