<?xml version="1.0" encoding="UTF-8" standalone="no"?>
<!DOCTYPE svg PUBLIC "-//W3C//DTD SVG 1.1//EN"
 "http://www.w3.org/Graphics/SVG/1.1/DTD/svg11.dtd">
<!-- Generated by graphviz version 2.43.0 (0)
 -->
<!-- Title: Executor::starting Pages: 1 -->
<svg width="238pt" height="64pt"
 viewBox="0.00 0.00 238.29 64.00" xmlns="http://www.w3.org/2000/svg" xmlns:xlink="http://www.w3.org/1999/xlink">
<g id="graph0" class="graph" transform="scale(1 1) rotate(0) translate(4 60)">
<title>Executor::starting</title>
<!-- Node1 -->
<g id="node1" class="node">
<title>Node1</title>
<g id="a_node1"><a xlink:title="starting signal that is emited when process starts">
<polygon fill="#bfbfbf" stroke="black" points="136.48,-18.5 136.48,-36.5 230.29,-36.5 230.29,-18.5 136.48,-18.5"/>
<text text-anchor="middle" x="183.39" y="-24.5" font-family="Helvetica,sans-Serif" font-size="10.00">Executor::starting</text>
</a>
</g>
</g>
<!-- Node2 -->
<g id="node2" class="node">
<title>Node2</title>
<g id="a_node2"><a xlink:href="class_executor.html#a19fdadaa749c44b889287879ecf5f315" target="_top" xlink:title="Executor::Executor executes external applications.">
<polygon fill="none" stroke="black" points="0,-37.5 0,-55.5 100.48,-55.5 100.48,-37.5 0,-37.5"/>
<text text-anchor="middle" x="50.24" y="-43.5" font-family="Helvetica,sans-Serif" font-size="10.00">Executor::Executor</text>
</a>
</g>
</g>
<!-- Node1&#45;&gt;Node2 -->
<g id="edge1" class="edge">
<title>Node1&#45;&gt;Node2</title>
<path fill="none" stroke="midnightblue" d="M125.99,-35.67C117.55,-36.89 108.9,-38.15 100.62,-39.35"/>
<polygon fill="midnightblue" stroke="midnightblue" points="126.76,-39.1 136.15,-34.2 125.75,-32.17 126.76,-39.1"/>
</g>
<!-- Node3 -->
<g id="node3" class="node">
<title>Node3</title>
<g id="a_node3"><a xlink:href="class_pass.html#a5d0cea4019f5c123fb4a4417de8d95b9" target="_top" xlink:title="Pass::Pass wrapper for using either pass or the pass imitation.">
<polygon fill="none" stroke="black" points="17.23,-0.5 17.23,-18.5 83.25,-18.5 83.25,-0.5 17.23,-0.5"/>
<text text-anchor="middle" x="50.24" y="-6.5" font-family="Helvetica,sans-Serif" font-size="10.00">Pass::Pass</text>
</a>
</g>
</g>
<!-- Node1&#45;&gt;Node3 -->
<g id="edge2" class="edge">
<title>Node1&#45;&gt;Node3</title>
<path fill="none" stroke="midnightblue" d="M126.19,-19.79C111.6,-17.78 96.37,-15.69 83.49,-13.93"/>
<polygon fill="midnightblue" stroke="midnightblue" points="125.77,-23.26 136.15,-21.15 126.72,-16.33 125.77,-23.26"/>
</g>
</g>
</svg>
