<?xml version="1.0" encoding="UTF-8" standalone="no"?>
<!DOCTYPE svg PUBLIC "-//W3C//DTD SVG 1.1//EN"
 "http://www.w3.org/Graphics/SVG/1.1/DTD/svg11.dtd">
<!-- Generated by graphviz version 2.49.3 (0)
 -->
<!-- Title: Util::checkConfig Pages: 1 -->
<svg width="545pt" height="158pt"
 viewBox="0.00 0.00 545.00 158.00" xmlns="http://www.w3.org/2000/svg" xmlns:xlink="http://www.w3.org/1999/xlink">
<g id="graph0" class="graph" transform="scale(1 1) rotate(0) translate(4 154)">
<title>Util::checkConfig</title>
<!-- Node1 -->
<g id="node1" class="node">
<title>Node1</title>
<g id="a_node1"><a xlink:title="Util::checkConfig do we have prequisite settings?">
<polygon fill="#999999" stroke="#666666" points="537,-75 445,-75 445,-56 537,-56 537,-75"/>
<text text-anchor="middle" x="491" y="-63" font-family="Helvetica,sans-Serif" font-size="10.00">Util::checkConfig</text>
</a>
</g>
</g>
<!-- Node2 -->
<g id="node2" class="node">
<title>Node2</title>
<g id="a_node2"><a xlink:href="class_main_window.html#aeb8091ab5531144b76c1fbb0d63deb56" target="_top" xlink:title="MainWindow::config pops up the configuration screen and handles all inter&#45;window communication.">
<polygon fill="white" stroke="#666666" points="393.5,-132 289.5,-132 289.5,-113 393.5,-113 393.5,-132"/>
<text text-anchor="middle" x="341.5" y="-120" font-family="Helvetica,sans-Serif" font-size="10.00">MainWindow::config</text>
</a>
</g>
</g>
<!-- Node1&#45;&gt;Node2 -->
<g id="edge1" class="edge">
<title>Node1&#45;&gt;Node2</title>
<path fill="none" stroke="#63b8ff" d="M457.81,-78.96C443,-85.07 425.16,-92.29 409,-98.5 396.17,-103.43 381.83,-108.64 369.77,-112.94"/>
<polygon fill="#63b8ff" stroke="#63b8ff" points="459.15,-82.2 467.06,-75.14 456.48,-75.73 459.15,-82.2"/>
</g>
<!-- Node3 -->
<g id="node3" class="node">
<title>Node3</title>
<g id="a_node3"><a xlink:href="class_qt_pass.html#a49e2861160fdb8d614231933f60fac47" target="_top" xlink:title="QtPass::init make sure we are ready to go as soon as possible.">
<polygon fill="white" stroke="#666666" points="238,-113 170,-113 170,-94 238,-94 238,-113"/>
<text text-anchor="middle" x="204" y="-101" font-family="Helvetica,sans-Serif" font-size="10.00">QtPass::init</text>
</a>
</g>
</g>
<!-- Node1&#45;&gt;Node3 -->
<g id="edge6" class="edge">
<title>Node1&#45;&gt;Node3</title>
<path fill="none" stroke="#63b8ff" d="M434.71,-72.87C376.46,-80.64 286.62,-92.62 238.37,-99.05"/>
<polygon fill="#63b8ff" stroke="#63b8ff" points="435.39,-76.31 444.84,-71.52 434.47,-69.37 435.39,-76.31"/>
</g>
<!-- Node5 -->
<g id="node5" class="node">
<title>Node5</title>
<g id="a_node5"><a xlink:href="class_config_dialog.html#a815d6d8ddf1de9386427ddef691a02a1" target="_top" xlink:title="ConfigDialog::ConfigDialog this sets up the configuration screen.">
<polygon fill="white" stroke="#666666" points="409,-56 274,-56 274,-37 409,-37 409,-56"/>
<text text-anchor="middle" x="341.5" y="-44" font-family="Helvetica,sans-Serif" font-size="10.00">ConfigDialog::ConfigDialog</text>
</a>
</g>
</g>
<!-- Node1&#45;&gt;Node5 -->
<g id="edge5" class="edge">
<title>Node1&#45;&gt;Node5</title>
<path fill="none" stroke="#63b8ff" d="M434.86,-58.4C426.43,-57.31 417.65,-56.18 409,-55.07"/>
<polygon fill="#63b8ff" stroke="#63b8ff" points="434.58,-61.89 444.94,-59.7 435.47,-54.95 434.58,-61.89"/>
</g>
<!-- Node6 -->
<g id="node6" class="node">
<title>Node6</title>
<g id="a_node6"><a xlink:href="class_config_dialog.html#ad5b80066591f19fdaaa06b7cb5ba7f15" target="_top" xlink:title="ConfigDialog::wizard first&#45;time use wizard.">
<polygon fill="white" stroke="#666666" points="395,-19 288,-19 288,0 395,0 395,-19"/>
<text text-anchor="middle" x="341.5" y="-7" font-family="Helvetica,sans-Serif" font-size="10.00">ConfigDialog::wizard</text>
</a>
</g>
</g>
<!-- Node1&#45;&gt;Node6 -->
<g id="edge7" class="edge">
<title>Node1&#45;&gt;Node6</title>
<path fill="none" stroke="#63b8ff" d="M462.03,-51.46C446.62,-44.05 427.02,-35.15 409,-28.5 399.65,-25.05 389.37,-21.84 379.75,-19.08"/>
<polygon fill="#63b8ff" stroke="#63b8ff" points="460.51,-54.62 471.03,-55.85 463.57,-48.32 460.51,-54.62"/>
</g>
<!-- Node2&#45;&gt;Node2 -->
<g id="edge2" class="edge">
<title>Node2&#45;&gt;Node2</title>
<path fill="none" stroke="#63b8ff" d="M366.8,-141.19C365.42,-146.2 356.99,-150 341.5,-150 317.33,-150 310.34,-140.73 320.54,-132.08"/>
<polygon fill="#63b8ff" stroke="#63b8ff" points="369.92,-139.61 362.46,-132.08 363.6,-142.62 369.92,-139.61"/>
</g>
<!-- Node2&#45;&gt;Node3 -->
<g id="edge3" class="edge">
<title>Node2&#45;&gt;Node3</title>
<path fill="none" stroke="#63b8ff" d="M279.13,-113.89C265.05,-111.92 250.61,-109.89 238.25,-108.16"/>
<polygon fill="#63b8ff" stroke="#63b8ff" points="278.88,-117.39 289.27,-115.32 279.86,-110.46 278.88,-117.39"/>
</g>
<!-- Node4 -->
<g id="node4" class="node">
<title>Node4</title>
<g id="a_node4"><a xlink:href="class_main_window.html#a52e97245b2f88492071e639395c4a15a" target="_top" xlink:title="MainWindow::MainWindow handles all of the main functionality and also the main window.">
<polygon fill="white" stroke="#666666" points="134,-113 0,-113 0,-94 134,-94 134,-113"/>
<text text-anchor="middle" x="67" y="-101" font-family="Helvetica,sans-Serif" font-size="10.00">MainWindow::MainWindow</text>
</a>
</g>
</g>
<!-- Node3&#45;&gt;Node4 -->
<g id="edge4" class="edge">
<title>Node3&#45;&gt;Node4</title>
<path fill="none" stroke="#63b8ff" d="M159.93,-103.5C151.72,-103.5 142.96,-103.5 134.23,-103.5"/>
<polygon fill="#63b8ff" stroke="#63b8ff" points="159.98,-107 169.98,-103.5 159.98,-100 159.98,-107"/>
</g>
</g>
</svg>
