<?xml version="1.0" encoding="UTF-8" standalone="no"?>
<!DOCTYPE svg PUBLIC "-//W3C//DTD SVG 1.1//EN"
 "http://www.w3.org/Graphics/SVG/1.1/DTD/svg11.dtd">
<!-- Generated by graphviz version 2.43.0 (0)
 -->
<!-- Title: ImitatePass::verifyGpgIdForDir Pages: 1 -->
<svg width="571pt" height="212pt"
 viewBox="0.00 0.00 571.00 212.00" xmlns="http://www.w3.org/2000/svg" xmlns:xlink="http://www.w3.org/1999/xlink">
<g id="graph0" class="graph" transform="scale(1 1) rotate(0) translate(4 208)">
<title>ImitatePass::verifyGpgIdForDir</title>
<!-- Node1 -->
<g id="Node000001" class="node">
<title>Node1</title>
<g id="a_Node000001"><a xlink:title="Find .gpg&#45;id file for directory.">
<polygon fill="#999999" stroke="#666666" points="136,-135.5 0,-135.5 0,-105.5 136,-105.5 136,-135.5"/>
<text text-anchor="start" x="8" y="-123.5" font-family="Helvetica,sans-Serif" font-size="10.00">ImitatePass::verifyGpgId</text>
<text text-anchor="middle" x="68" y="-112.5" font-family="Helvetica,sans-Serif" font-size="10.00">ForDir</text>
</a>
</g>
</g>
<!-- Node2 -->
<g id="Node000002" class="node">
<title>Node2</title>
<g id="a_Node000002"><a xlink:href="class_pass.html#a0eafb54675479378ec98307f0e4fff65" target="_top" xlink:title="Emit critical error.">
<polygon fill="white" stroke="#666666" points="294.5,-204 217.5,-204 217.5,-185 294.5,-185 294.5,-204"/>
<text text-anchor="middle" x="256" y="-192" font-family="Helvetica,sans-Serif" font-size="10.00">Pass::critical</text>
</a>
</g>
</g>
<!-- Node1&#45;&gt;Node2 -->
<g id="edge1_Node000001_Node000002" class="edge">
<title>Node1&#45;&gt;Node2</title>
<g id="a_edge1_Node000001_Node000002"><a xlink:title=" ">
<path fill="none" stroke="#63b8ff" d="M92.23,-135.63C112.53,-148.24 143.19,-165.79 172,-176.5 183.12,-180.63 195.44,-183.94 207.12,-186.54"/>
<polygon fill="#63b8ff" stroke="#63b8ff" points="206.66,-190.02 217.17,-188.65 208.1,-183.17 206.66,-190.02"/>
</a>
</g>
</g>
<!-- Node3 -->
<g id="Node000003" class="node">
<title>Node3</title>
<g id="a_Node000003"><a xlink:href="class_imitate_pass.html#a9df2c7246a8686cf92c442c00dc55af7" target="_top" xlink:title="Emitted after finishing re&#45;encryption.">
<polygon fill="white" stroke="#666666" points="340,-167 172,-167 172,-148 340,-148 340,-167"/>
<text text-anchor="middle" x="256" y="-155" font-family="Helvetica,sans-Serif" font-size="10.00">ImitatePass::endReencryptPath</text>
</a>
</g>
</g>
<!-- Node1&#45;&gt;Node3 -->
<g id="edge2_Node000001_Node000003" class="edge">
<title>Node1&#45;&gt;Node3</title>
<g id="a_edge2_Node000001_Node000003"><a xlink:title=" ">
<path fill="none" stroke="#63b8ff" d="M136.15,-133.86C156.18,-137.84 177.94,-142.17 197.3,-146.02"/>
<polygon fill="#63b8ff" stroke="#63b8ff" points="196.7,-149.47 207.19,-147.99 198.07,-142.61 196.7,-149.47"/>
</a>
</g>
</g>
<!-- Node4 -->
<g id="Node000004" class="node">
<title>Node4</title>
<g id="a_Node000004"><a xlink:href="class_pass.html#a7bab4c97e4a327cc34060a67c09959bf" target="_top" xlink:title="Get .gpg&#45;id file path for a password file.">
<polygon fill="white" stroke="#666666" points="311,-130 201,-130 201,-111 311,-111 311,-130"/>
<text text-anchor="middle" x="256" y="-118" font-family="Helvetica,sans-Serif" font-size="10.00">Pass::getGpgIdPath</text>
</a>
</g>
</g>
<!-- Node1&#45;&gt;Node4 -->
<g id="edge3_Node000001_Node000004" class="edge">
<title>Node1&#45;&gt;Node4</title>
<g id="a_edge3_Node000001_Node000004"><a xlink:title=" ">
<path fill="none" stroke="#63b8ff" d="M136.15,-120.5C153.9,-120.5 173,-120.5 190.6,-120.5"/>
<polygon fill="#63b8ff" stroke="#63b8ff" points="190.76,-124 200.76,-120.5 190.76,-117 190.76,-124"/>
</a>
</g>
</g>
<!-- Node6 -->
<g id="Node000006" class="node">
<title>Node6</title>
<g id="a_Node000006"><a xlink:href="class_pass.html#a693825d2ad62813cf103860ef6211370" target="_top" xlink:title="Get list of recipients for a password file.">
<polygon fill="white" stroke="#666666" points="317.5,-93 194.5,-93 194.5,-74 317.5,-74 317.5,-93"/>
<text text-anchor="middle" x="256" y="-81" font-family="Helvetica,sans-Serif" font-size="10.00">Pass::getRecipientList</text>
</a>
</g>
</g>
<!-- Node1&#45;&gt;Node6 -->
<g id="edge5_Node000001_Node000006" class="edge">
<title>Node1&#45;&gt;Node6</title>
<g id="a_edge5_Node000001_Node000006"><a xlink:title=" ">
<path fill="none" stroke="#63b8ff" d="M136.15,-107.14C156.18,-103.16 177.94,-98.83 197.3,-94.98"/>
<polygon fill="#63b8ff" stroke="#63b8ff" points="198.07,-98.39 207.19,-93.01 196.7,-91.53 198.07,-98.39"/>
</a>
</g>
</g>
<!-- Node7 -->
<g id="Node000007" class="node">
<title>Node7</title>
<g id="a_Node000007"><a xlink:href="class_imitate_pass.html#a6ecaa7d53d661362511354e96572c240" target="_top" xlink:title="Verify .gpg&#45;id file exists and is valid.">
<polygon fill="white" stroke="#666666" points="332.5,-56 179.5,-56 179.5,-37 332.5,-37 332.5,-56"/>
<text text-anchor="middle" x="256" y="-44" font-family="Helvetica,sans-Serif" font-size="10.00">ImitatePass::verifyGpgIdFile</text>
</a>
</g>
</g>
<!-- Node1&#45;&gt;Node7 -->
<g id="edge6_Node000001_Node000007" class="edge">
<title>Node1&#45;&gt;Node7</title>
<g id="a_edge6_Node000001_Node000007"><a xlink:title=" ">
<path fill="none" stroke="#63b8ff" d="M92.7,-105.5C113.05,-93.2 143.52,-76.15 172,-65.5 178.85,-62.94 186.16,-60.66 193.49,-58.64"/>
<polygon fill="#63b8ff" stroke="#63b8ff" points="194.65,-61.96 203.45,-56.06 192.9,-55.18 194.65,-61.96"/>
</a>
</g>
</g>
<!-- Node5 -->
<g id="Node000005" class="node">
<title>Node5</title>
<g id="a_Node000005"><a xlink:href="class_qt_pass_settings.html#a538e612e04fe934535e1f7525d55743c" target="_top" xlink:title="Get password store directory path.">
<polygon fill="white" stroke="#666666" points="548.5,-130 390.5,-130 390.5,-111 548.5,-111 548.5,-130"/>
<text text-anchor="middle" x="469.5" y="-118" font-family="Helvetica,sans-Serif" font-size="10.00">QtPassSettings::getPassStore</text>
</a>
</g>
</g>
<!-- Node4&#45;&gt;Node5 -->
<g id="edge4_Node000004_Node000005" class="edge">
<title>Node4&#45;&gt;Node5</title>
<g id="a_edge4_Node000004_Node000005"><a xlink:title=" ">
<path fill="none" stroke="#63b8ff" d="M311.19,-120.5C332.09,-120.5 356.54,-120.5 379.85,-120.5"/>
<polygon fill="#63b8ff" stroke="#63b8ff" points="380.11,-124 390.11,-120.5 380.11,-117 380.11,-124"/>
</a>
</g>
</g>
<!-- Node8 -->
<g id="Node000008" class="node">
<title>Node8</title>
<g id="a_Node000008"><a xlink:href="class_executor.html#a2673768d875e9207a6a178dd1a489828" target="_top" xlink:title="Executor::executeBlocking blocking version of the executor, takes input and presents it as stdin.">
<polygon fill="white" stroke="#666666" points="542,-93 397,-93 397,-74 542,-74 542,-93"/>
<text text-anchor="middle" x="469.5" y="-81" font-family="Helvetica,sans-Serif" font-size="10.00">Executor::executeBlocking</text>
</a>
</g>
</g>
<!-- Node7&#45;&gt;Node8 -->
<g id="edge7_Node000007_Node000008" class="edge">
<title>Node7&#45;&gt;Node8</title>
<g id="a_edge7_Node000007_Node000008"><a xlink:title=" ">
<path fill="none" stroke="#63b8ff" d="M311.47,-56.03C339.6,-60.95 374.13,-66.99 403.64,-72.15"/>
<polygon fill="#63b8ff" stroke="#63b8ff" points="403.4,-75.66 413.85,-73.94 404.6,-68.77 403.4,-75.66"/>
</a>
</g>
</g>
<!-- Node9 -->
<g id="Node000009" class="node">
<title>Node9</title>
<g id="a_Node000009"><a xlink:href="class_qt_pass_settings.html#a6d9beabe93c829cacdcc6c27792ffdba" target="_top" xlink:title="Get GPG executable path.">
<polygon fill="white" stroke="#666666" points="561.5,-56 377.5,-56 377.5,-37 561.5,-37 561.5,-56"/>
<text text-anchor="middle" x="469.5" y="-44" font-family="Helvetica,sans-Serif" font-size="10.00">QtPassSettings::getGpgExecutable</text>
</a>
</g>
</g>
<!-- Node7&#45;&gt;Node9 -->
<g id="edge8_Node000007_Node000009" class="edge">
<title>Node7&#45;&gt;Node9</title>
<g id="a_edge8_Node000007_Node000009"><a xlink:title=" ">
<path fill="none" stroke="#63b8ff" d="M332.76,-46.5C343.94,-46.5 355.62,-46.5 367.22,-46.5"/>
<polygon fill="#63b8ff" stroke="#63b8ff" points="367.38,-50 377.38,-46.5 367.38,-43 367.38,-50"/>
</a>
</g>
</g>
<!-- Node10 -->
<g id="Node000010" class="node">
<title>Node10</title>
<g id="a_Node000010"><a xlink:href="class_qt_pass_settings.html#a7b92ee036db63e5d2b49da826b5763ee" target="_top" xlink:title="Get GPG signing key for pass.">
<polygon fill="white" stroke="#666666" points="563,-19 376,-19 376,0 563,0 563,-19"/>
<text text-anchor="middle" x="469.5" y="-7" font-family="Helvetica,sans-Serif" font-size="10.00">QtPassSettings::getPassSigningKey</text>
</a>
</g>
</g>
<!-- Node7&#45;&gt;Node10 -->
<g id="edge9_Node000007_Node000010" class="edge">
<title>Node7&#45;&gt;Node10</title>
<g id="a_edge9_Node000007_Node000010"><a xlink:title=" ">
<path fill="none" stroke="#63b8ff" d="M311.47,-36.97C339.6,-32.05 374.13,-26.01 403.64,-20.85"/>
<polygon fill="#63b8ff" stroke="#63b8ff" points="404.6,-24.23 413.85,-19.06 403.4,-17.34 404.6,-24.23"/>
</a>
</g>
</g>
</g>
</svg>
