<?xml version="1.0" encoding="UTF-8" standalone="no"?>
<!DOCTYPE svg PUBLIC "-//W3C//DTD SVG 1.1//EN"
 "http://www.w3.org/Graphics/SVG/1.1/DTD/svg11.dtd">
<!-- Generated by graphviz version 2.40.1 (20161225.0304)
 -->
<!-- Title: QProgressIndicator::setColor Pages: 1 -->
<svg width="386pt" height="37pt"
 viewBox="0.00 0.00 386.44 37.00" xmlns="http://www.w3.org/2000/svg" xmlns:xlink="http://www.w3.org/1999/xlink">
<g id="graph0" class="graph" transform="scale(1 1) rotate(0) translate(4 33)">
<title>QProgressIndicator::setColor</title>
<!-- Node64 -->
<g id="node1" class="node">
<title>Node64</title>
<polygon fill="#bfbfbf" stroke="#000000" points="0,-.5 0,-28.5 102.1475,-28.5 102.1475,-.5 0,-.5"/>
<text text-anchor="start" x="8" y="-16.5" font-family="Helvetica,sans-Serif" font-size="10.00" fill="#000000">QProgressIndicator</text>
<text text-anchor="middle" x="51.0737" y="-6.5" font-family="Helvetica,sans-Serif" font-size="10.00" fill="#000000">::setColor</text>
</g>
<!-- Node65 -->
<g id="node2" class="node">
<title>Node65</title>
<g id="a_node2"><a xlink:href="class_q_progress_indicator.html#afdc92dfc35132dadcce9fd45adc51c65" target="_top" xlink:title="Returns the color of the component. ">
<polygon fill="none" stroke="#000000" points="138.1475,-.5 138.1475,-28.5 240.2949,-28.5 240.2949,-.5 138.1475,-.5"/>
<text text-anchor="start" x="146.1475" y="-16.5" font-family="Helvetica,sans-Serif" font-size="10.00" fill="#000000">QProgressIndicator</text>
<text text-anchor="middle" x="189.2212" y="-6.5" font-family="Helvetica,sans-Serif" font-size="10.00" fill="#000000">::color</text>
</a>
</g>
</g>
<!-- Node64&#45;&gt;Node65 -->
<g id="edge1" class="edge">
<title>Node64&#45;&gt;Node65</title>
<path fill="none" stroke="#191970" d="M112.6351,-7.7856C121.0204,-7.7058 129.5552,-7.7601 137.7372,-7.9484"/>
<polygon fill="#191970" stroke="#191970" points="112.4568,-4.2879 102.5147,-7.9494 112.5701,-11.287 112.4568,-4.2879"/>
</g>
<!-- Node65&#45;&gt;Node64 -->
<g id="edge2" class="edge">
<title>Node65&#45;&gt;Node64</title>
<path fill="none" stroke="#191970" d="M127.6158,-21.2148C119.2299,-21.2941 110.6955,-21.2394 102.5147,-21.0506"/>
<polygon fill="#191970" stroke="#191970" points="127.795,-24.7125 137.7372,-21.0516 127.682,-17.7134 127.795,-24.7125"/>
</g>
<!-- Node66 -->
<g id="node3" class="node">
<title>Node66</title>
<g id="a_node3"><a xlink:href="class_q_progress_indicator.html#a38d3e8644a4e74d892b42270c9b6ae8f" target="_top" xlink:title="QProgressIndicator::paintEvent draw the spinner. ">
<polygon fill="none" stroke="#000000" points="276.2949,-.5 276.2949,-28.5 378.4424,-28.5 378.4424,-.5 276.2949,-.5"/>
<text text-anchor="start" x="284.2949" y="-16.5" font-family="Helvetica,sans-Serif" font-size="10.00" fill="#000000">QProgressIndicator</text>
<text text-anchor="middle" x="327.3687" y="-6.5" font-family="Helvetica,sans-Serif" font-size="10.00" fill="#000000">::paintEvent</text>
</a>
</g>
</g>
<!-- Node65&#45;&gt;Node66 -->
<g id="edge3" class="edge">
<title>Node65&#45;&gt;Node66</title>
<path fill="none" stroke="#191970" d="M250.7826,-7.7856C259.1679,-7.7058 267.7027,-7.7601 275.8847,-7.9484"/>
<polygon fill="#191970" stroke="#191970" points="250.6042,-4.2879 240.6622,-7.9494 250.7176,-11.287 250.6042,-4.2879"/>
</g>
<!-- Node66&#45;&gt;Node65 -->
<g id="edge4" class="edge">
<title>Node66&#45;&gt;Node65</title>
<path fill="none" stroke="#191970" d="M265.7632,-21.2148C257.3774,-21.2941 248.843,-21.2394 240.6622,-21.0506"/>
<polygon fill="#191970" stroke="#191970" points="265.9424,-24.7125 275.8847,-21.0516 265.8295,-17.7134 265.9424,-24.7125"/>
</g>
</g>
</svg>
