<?xml version="1.0" encoding="UTF-8" standalone="no"?>
<!DOCTYPE svg PUBLIC "-//W3C//DTD SVG 1.1//EN"
 "http://www.w3.org/Graphics/SVG/1.1/DTD/svg11.dtd">
<!-- Generated by graphviz version 2.38.0 (20140413.2041)
 -->
<!-- Title: QtPassSettings::isUseAutoclear Pages: 1 -->
<!--zoomable 111 -->
<svg id="main" version="1.1" xmlns="http://www.w3.org/2000/svg" xmlns:xlink="http://www.w3.org/1999/xlink" xml:space="preserve" onload="init(evt)">
<style type="text/css"><![CDATA[
.edge:hover path { stroke: red; }
.edge:hover polygon { stroke: red; fill: red; }
]]></style>
<script type="text/javascript"><![CDATA[
var edges = document.getElementsByTagName('g');
if (edges && edges.length) {
  for (var i=0;i<edges.length;i++) {
    if (edges[i].id.substr(0,4)=='edge') {
      edges[i].setAttribute('class','edge');
    }
  }
}
]]></script>
        <defs>
                <circle id="rim" cx="0" cy="0" r="7"/>
                <circle id="rim2" cx="0" cy="0" r="3.5"/>
                <g id="zoomPlus">
                        <use xlink:href="#rim" fill="#404040">
                                <set attributeName="fill" to="#808080" begin="zoomplus.mouseover" end="zoomplus.mouseout"/>
                        </use>
                        <path d="M-4,0h8M0,-4v8" fill="none" stroke="white" stroke-width="1.5" pointer-events="none"/>
                </g>
                <g id="zoomMin">
                        <use xlink:href="#rim" fill="#404040">
                                <set attributeName="fill" to="#808080" begin="zoomminus.mouseover" end="zoomminus.mouseout"/>
                        </use>
                        <path d="M-4,0h8" fill="none" stroke="white" stroke-width="1.5" pointer-events="none"/>
                </g>
                <g id="dirArrow">
                        <path fill="none" stroke="white" stroke-width="1.5" d="M0,-3.0v7 M-2.5,-0.5L0,-3.0L2.5,-0.5"/>
                </g>
               <g id="resetDef">
                       <use xlink:href="#rim2" fill="#404040">
                               <set attributeName="fill" to="#808080" begin="reset.mouseover" end="reset.mouseout"/>
                       </use>
               </g>
        </defs>

<script type="text/javascript">
var viewWidth = 734;
var viewHeight = 111;
var sectionId = 'dynsection-39';
</script>
<script xlink:href="svgpan.js"/>
<svg id="graph" class="graph">
<g id="viewport">
<title>QtPassSettings::isUseAutoclear</title>
<!-- Node308 -->
<g id="node1" class="node"><title>Node308</title>
<polygon fill="#bfbfbf" stroke="black" points="0,-27.5 0,-45.5 157.729,-45.5 157.729,-27.5 0,-27.5"/>
<text text-anchor="middle" x="78.8643" y="-33.5" font-family="Helvetica,sans-Serif" font-size="10.00">QtPassSettings::isUseAutoclear</text>
</g>
<!-- Node309 -->
<g id="node2" class="node"><title>Node309</title>
<g id="a_node2"><a xlink:href="class_main_window.html#aeb8091ab5531144b76c1fbb0d63deb56" target="_top" xlink:title="MainWindow::config pops up the configuration screen and handles all inter&#45;window communication. ">
<polygon fill="none" stroke="black" points="222.078,-47.5 222.078,-65.5 327.561,-65.5 327.561,-47.5 222.078,-47.5"/>
<text text-anchor="middle" x="274.819" y="-53.5" font-family="Helvetica,sans-Serif" font-size="10.00">MainWindow::config</text>
</a>
</g>
</g>
<!-- Node308&#45;&gt;Node309 -->
<g id="edge1" class="edge"><title>Node308&#45;&gt;Node309</title>
<path fill="none" stroke="midnightblue" d="M168.108,-45.5994C186.566,-47.5027 205.449,-49.4499 222.053,-51.1621"/>
<polygon fill="midnightblue" stroke="midnightblue" points="168.221,-42.0926 157.915,-44.5483 167.503,-49.0557 168.221,-42.0926"/>
</g>
<!-- Node314 -->
<g id="node7" class="node"><title>Node314</title>
<g id="a_node7"><a xlink:href="class_main_window.html#a0b9416f68d223f4303ef6e2d8912905c" target="_top" xlink:title="MainWindow::generatePassword use either pwgen or internal password generator. ">
<polygon fill="none" stroke="black" points="193.729,-8.5 193.729,-26.5 355.91,-26.5 355.91,-8.5 193.729,-8.5"/>
<text text-anchor="middle" x="274.819" y="-14.5" font-family="Helvetica,sans-Serif" font-size="10.00">MainWindow::generatePassword</text>
</a>
</g>
</g>
<!-- Node308&#45;&gt;Node314 -->
<g id="edge6" class="edge"><title>Node308&#45;&gt;Node314</title>
<path fill="none" stroke="midnightblue" d="M167.938,-27.8722C176.527,-27.0308 185.21,-26.1802 193.714,-25.3472"/>
<polygon fill="midnightblue" stroke="midnightblue" points="167.526,-24.3957 157.915,-28.8541 168.208,-31.3624 167.526,-24.3957"/>
</g>
<!-- Node310 -->
<g id="node3" class="node"><title>Node310</title>
<g id="a_node3"><a xlink:href="class_main_window.html#a23d2783cb61a373c4b0127970264290a" target="_top" xlink:title="MainWindow::checkConfig make sure we are ready to go as soon as possible. ">
<polygon fill="none" stroke="black" points="406.083,-84.5 406.083,-102.5 539.91,-102.5 539.91,-84.5 406.083,-84.5"/>
<text text-anchor="middle" x="472.996" y="-90.5" font-family="Helvetica,sans-Serif" font-size="10.00">MainWindow::checkConfig</text>
</a>
</g>
</g>
<!-- Node309&#45;&gt;Node310 -->
<g id="edge2" class="edge"><title>Node309&#45;&gt;Node310</title>
<path fill="none" stroke="midnightblue" d="M333.489,-67.3767C362.285,-72.8079 396.714,-79.3015 424.043,-84.4557"/>
<polygon fill="midnightblue" stroke="midnightblue" points="334.034,-63.918 323.559,-65.5039 332.737,-70.7967 334.034,-63.918"/>
</g>
<!-- Node312 -->
<g id="node5" class="node"><title>Node312</title>
<g id="a_node5"><a xlink:href="class_main_window.html#a4680b2cbcfd388683a98303f29c0f84f" target="_top" xlink:title="MainWindow::executePassGitInit git init wrapper. ">
<polygon fill="none" stroke="black" points="391.91,-47.5 391.91,-65.5 554.082,-65.5 554.082,-47.5 391.91,-47.5"/>
<text text-anchor="middle" x="472.996" y="-53.5" font-family="Helvetica,sans-Serif" font-size="10.00">MainWindow::executePassGitInit</text>
</a>
</g>
</g>
<!-- Node309&#45;&gt;Node312 -->
<g id="edge4" class="edge"><title>Node309&#45;&gt;Node312</title>
<path fill="none" stroke="midnightblue" d="M338.008,-56.5C355.077,-56.5 373.83,-56.5 391.759,-56.5"/>
<polygon fill="midnightblue" stroke="midnightblue" points="337.619,-53.0001 327.619,-56.5 337.619,-60.0001 337.619,-53.0001"/>
</g>
<!-- Node311 -->
<g id="node4" class="node"><title>Node311</title>
<g id="a_node4"><a xlink:href="class_main_window.html#a8b244be8b7b7db1b08de2a2acb9409db" target="_top" xlink:title="MainWindow::MainWindow handles all of the main functionality and also the main window. ">
<polygon fill="none" stroke="black" points="590.082,-84.5 590.082,-102.5 726.121,-102.5 726.121,-84.5 590.082,-84.5"/>
<text text-anchor="middle" x="658.102" y="-90.5" font-family="Helvetica,sans-Serif" font-size="10.00">MainWindow::MainWindow</text>
</a>
</g>
</g>
<!-- Node310&#45;&gt;Node311 -->
<g id="edge3" class="edge"><title>Node310&#45;&gt;Node311</title>
<path fill="none" stroke="midnightblue" d="M550.476,-93.5C563.552,-93.5 577.05,-93.5 589.862,-93.5"/>
<polygon fill="midnightblue" stroke="midnightblue" points="550.101,-90.0001 540.101,-93.5 550.101,-97.0001 550.101,-90.0001"/>
</g>
<!-- Node313 -->
<g id="node6" class="node"><title>Node313</title>
<g id="a_node6"><a xlink:href="class_config_dialog.html#ad5b80066591f19fdaaa06b7cb5ba7f15" target="_top" xlink:title="ConfigDialog::wizard first&#45;time use wizard. ">
<polygon fill="none" stroke="black" points="604.247,-47.5 604.247,-65.5 711.956,-65.5 711.956,-47.5 604.247,-47.5"/>
<text text-anchor="middle" x="658.102" y="-53.5" font-family="Helvetica,sans-Serif" font-size="10.00">ConfigDialog::wizard</text>
</a>
</g>
</g>
<!-- Node312&#45;&gt;Node313 -->
<g id="edge5" class="edge"><title>Node312&#45;&gt;Node313</title>
<path fill="none" stroke="midnightblue" d="M564.6,-56.5C578.09,-56.5 591.608,-56.5 603.981,-56.5"/>
<polygon fill="midnightblue" stroke="midnightblue" points="564.309,-53.0001 554.309,-56.5 564.309,-60.0001 564.309,-53.0001"/>
</g>
<!-- Node315 -->
<g id="node8" class="node"><title>Node315</title>
<g id="a_node8"><a xlink:href="class_password_dialog.html#aa123158c0085b910ecf3bfdc9dae9e97" target="_top" xlink:title="PasswordDialog::~PasswordDialog basic destructor. ">
<polygon fill="none" stroke="black" points="401.217,-0.5 401.217,-28.5 544.775,-28.5 544.775,-0.5 401.217,-0.5"/>
<text text-anchor="start" x="409.217" y="-16.5" font-family="Helvetica,sans-Serif" font-size="10.00">PasswordDialog::~Password</text>
<text text-anchor="middle" x="472.996" y="-6.5" font-family="Helvetica,sans-Serif" font-size="10.00">Dialog</text>
</a>
</g>
</g>
<!-- Node314&#45;&gt;Node315 -->
<g id="edge7" class="edge"><title>Node314&#45;&gt;Node315</title>
<path fill="none" stroke="midnightblue" d="M366.389,-16.115C378.07,-15.9364 389.893,-15.7555 401.192,-15.5828"/>
<polygon fill="midnightblue" stroke="midnightblue" points="366.123,-12.6185 356.178,-16.2711 366.23,-19.6177 366.123,-12.6185"/>
</g>
</g>
</svg>
        <g id="navigator" transform="translate(0 0)" fill="#404254">
                <rect fill="#f2f5e9" fill-opacity="0.5" stroke="#606060" stroke-width=".5" x="0" y="0" width="60" height="60"/>
                <use id="zoomplus" xlink:href="#zoomPlus" x="17" y="9" onmousedown="handleZoom(evt,'in')"/>
                <use id="zoomminus" xlink:href="#zoomMin" x="42" y="9" onmousedown="handleZoom(evt,'out')"/>
                <use id="reset" xlink:href="#resetDef" x="30" y="36" onmousedown="handleReset()"/>
                <g id="arrowUp" xlink:href="#dirArrow" transform="translate(30 24)" onmousedown="handlePan(0,-1)">
                  <use xlink:href="#rim" fill="#404040">
                        <set attributeName="fill" to="#808080" begin="arrowUp.mouseover" end="arrowUp.mouseout"/>
                  </use>
                  <path fill="none" stroke="white" stroke-width="1.5" d="M0,-3.0v7 M-2.5,-0.5L0,-3.0L2.5,-0.5"/>
                </g>
                <g id="arrowRight" xlink:href="#dirArrow" transform="rotate(90) translate(36 -43)" onmousedown="handlePan(1,0)">
                  <use xlink:href="#rim" fill="#404040">
                        <set attributeName="fill" to="#808080" begin="arrowRight.mouseover" end="arrowRight.mouseout"/>
                  </use>
                  <path fill="none" stroke="white" stroke-width="1.5" d="M0,-3.0v7 M-2.5,-0.5L0,-3.0L2.5,-0.5"/>
                </g>
                <g id="arrowDown" xlink:href="#dirArrow" transform="rotate(180) translate(-30 -48)" onmousedown="handlePan(0,1)">
                  <use xlink:href="#rim" fill="#404040">
                        <set attributeName="fill" to="#808080" begin="arrowDown.mouseover" end="arrowDown.mouseout"/>
                  </use>
                  <path fill="none" stroke="white" stroke-width="1.5" d="M0,-3.0v7 M-2.5,-0.5L0,-3.0L2.5,-0.5"/>
                </g>
                <g id="arrowLeft" xlink:href="#dirArrow" transform="rotate(270) translate(-36 17)" onmousedown="handlePan(-1,0)">
                  <use xlink:href="#rim" fill="#404040">
                        <set attributeName="fill" to="#808080" begin="arrowLeft.mouseover" end="arrowLeft.mouseout"/>
                  </use>
                  <path fill="none" stroke="white" stroke-width="1.5" d="M0,-3.0v7 M-2.5,-0.5L0,-3.0L2.5,-0.5"/>
                </g>
        </g>
        <svg viewBox="0 0 15 15" width="100%" height="30px" preserveAspectRatio="xMaxYMin meet">
         <g id="arrow_out" transform="scale(0.3 0.3)">
          <a xlink:href="class_qt_pass_settings_ae105a118fa69c7c5bdf506355d20ffae_icgraph_org.svg" target="_base">
           <rect id="button" ry="5" rx="5" y="6" x="6" height="38" width="38"
                fill="#f2f5e9" fill-opacity="0.5" stroke="#606060" stroke-width="1.0"/>
           <path id="arrow"
             d="M 11.500037,31.436501 C 11.940474,20.09759 22.043105,11.32322 32.158766,21.979434 L 37.068811,17.246167 C 37.068811,17.246167 37.088388,32 37.088388,32 L 22.160133,31.978069 C 22.160133,31.978069 26.997745,27.140456 26.997745,27.140456 C 18.528582,18.264221 13.291696,25.230495 11.500037,31.436501 z"
             style="fill:#404040;"/>
          </a>
         </g>
        </svg>
</svg>
