<?xml version="1.0" encoding="UTF-8" standalone="no"?>
<!DOCTYPE svg PUBLIC "-//W3C//DTD SVG 1.1//EN"
 "http://www.w3.org/Graphics/SVG/1.1/DTD/svg11.dtd">
<!-- Generated by graphviz version 2.40.1 (20161225.0304)
 -->
<!-- Title: QtPassSettings::setHidePassword Pages: 1 -->
<svg width="660pt" height="27pt"
 viewBox="0.00 0.00 659.64 27.00" xmlns="http://www.w3.org/2000/svg" xmlns:xlink="http://www.w3.org/1999/xlink">
<g id="graph0" class="graph" transform="scale(1 1) rotate(0) translate(4 23)">
<title>QtPassSettings::setHidePassword</title>
<!-- Node372 -->
<g id="node1" class="node">
<title>Node372</title>
<polygon fill="#bfbfbf" stroke="#000000" points="0,-.5 0,-18.5 168.29,-18.5 168.29,-.5 0,-.5"/>
<text text-anchor="middle" x="84.145" y="-6.5" font-family="Helvetica,sans-Serif" font-size="10.00" fill="#000000">QtPassSettings::setHidePassword</text>
</g>
<!-- Node373 -->
<g id="node2" class="node">
<title>Node373</title>
<g id="a_node2"><a xlink:href="class_main_window.html#aeb8091ab5531144b76c1fbb0d63deb56" target="_top" xlink:title="MainWindow::config pops up the configuration screen and handles all inter&#45;window communication. ">
<polygon fill="none" stroke="#000000" points="204.29,-.5 204.29,-18.5 309.7725,-18.5 309.7725,-.5 204.29,-.5"/>
<text text-anchor="middle" x="257.0313" y="-6.5" font-family="Helvetica,sans-Serif" font-size="10.00" fill="#000000">MainWindow::config</text>
</a>
</g>
</g>
<!-- Node372&#45;&gt;Node373 -->
<g id="edge1" class="edge">
<title>Node372&#45;&gt;Node373</title>
<path fill="none" stroke="#191970" d="M178.5907,-9.5C187.3245,-9.5 195.9484,-9.5 204.1016,-9.5"/>
<polygon fill="#191970" stroke="#191970" points="178.3091,-6.0001 168.3091,-9.5 178.3091,-13.0001 178.3091,-6.0001"/>
</g>
<!-- Node374 -->
<g id="node3" class="node">
<title>Node374</title>
<g id="a_node3"><a xlink:href="class_main_window.html#a23d2783cb61a373c4b0127970264290a" target="_top" xlink:title="MainWindow::checkConfig make sure we are ready to go as soon as possible. ">
<polygon fill="none" stroke="#000000" points="345.7725,-.5 345.7725,-18.5 479.5996,-18.5 479.5996,-.5 345.7725,-.5"/>
<text text-anchor="middle" x="412.686" y="-6.5" font-family="Helvetica,sans-Serif" font-size="10.00" fill="#000000">MainWindow::checkConfig</text>
</a>
</g>
</g>
<!-- Node373&#45;&gt;Node374 -->
<g id="edge2" class="edge">
<title>Node373&#45;&gt;Node374</title>
<path fill="none" stroke="#191970" d="M320.2638,-9.5C328.6625,-9.5 337.2964,-9.5 345.7552,-9.5"/>
<polygon fill="#191970" stroke="#191970" points="320.1635,-6.0001 310.1634,-9.5 320.1634,-13.0001 320.1635,-6.0001"/>
</g>
<!-- Node375 -->
<g id="node4" class="node">
<title>Node375</title>
<g id="a_node4"><a xlink:href="class_main_window.html#a8b244be8b7b7db1b08de2a2acb9409db" target="_top" xlink:title="MainWindow::MainWindow handles all of the main functionality and also the main window. ">
<polygon fill="none" stroke="#000000" points="515.5996,-.5 515.5996,-18.5 651.6387,-18.5 651.6387,-.5 515.5996,-.5"/>
<text text-anchor="middle" x="583.6191" y="-6.5" font-family="Helvetica,sans-Serif" font-size="10.00" fill="#000000">MainWindow::MainWindow</text>
</a>
</g>
</g>
<!-- Node374&#45;&gt;Node375 -->
<g id="edge3" class="edge">
<title>Node374&#45;&gt;Node375</title>
<path fill="none" stroke="#191970" d="M489.9897,-9.5C498.4444,-9.5 507.0066,-9.5 515.3412,-9.5"/>
<polygon fill="#191970" stroke="#191970" points="489.7528,-6.0001 479.7527,-9.5 489.7527,-13.0001 489.7528,-6.0001"/>
</g>
</g>
</svg>
