<?xml version="1.0" encoding="UTF-8" standalone="no"?>
<!DOCTYPE svg PUBLIC "-//W3C//DTD SVG 1.1//EN"
 "http://www.w3.org/Graphics/SVG/1.1/DTD/svg11.dtd">
<!-- Generated by graphviz version 2.38.0 (20140413.2041)
 -->
<!-- Title: QtPassSettings::isAutoPush Pages: 1 -->
<!--zoomable 143 -->
<svg id="main" version="1.1" xmlns="http://www.w3.org/2000/svg" xmlns:xlink="http://www.w3.org/1999/xlink" xml:space="preserve" onload="init(evt)">
<style type="text/css"><![CDATA[
.edge:hover path { stroke: red; }
.edge:hover polygon { stroke: red; fill: red; }
]]></style>
<script type="text/javascript"><![CDATA[
var edges = document.getElementsByTagName('g');
if (edges && edges.length) {
  for (var i=0;i<edges.length;i++) {
    if (edges[i].id.substr(0,4)=='edge') {
      edges[i].setAttribute('class','edge');
    }
  }
}
]]></script>
        <defs>
                <circle id="rim" cx="0" cy="0" r="7"/>
                <circle id="rim2" cx="0" cy="0" r="3.5"/>
                <g id="zoomPlus">
                        <use xlink:href="#rim" fill="#404040">
                                <set attributeName="fill" to="#808080" begin="zoomplus.mouseover" end="zoomplus.mouseout"/>
                        </use>
                        <path d="M-4,0h8M0,-4v8" fill="none" stroke="white" stroke-width="1.5" pointer-events="none"/>
                </g>
                <g id="zoomMin">
                        <use xlink:href="#rim" fill="#404040">
                                <set attributeName="fill" to="#808080" begin="zoomminus.mouseover" end="zoomminus.mouseout"/>
                        </use>
                        <path d="M-4,0h8" fill="none" stroke="white" stroke-width="1.5" pointer-events="none"/>
                </g>
                <g id="dirArrow">
                        <path fill="none" stroke="white" stroke-width="1.5" d="M0,-3.0v7 M-2.5,-0.5L0,-3.0L2.5,-0.5"/>
                </g>
               <g id="resetDef">
                       <use xlink:href="#rim2" fill="#404040">
                               <set attributeName="fill" to="#808080" begin="reset.mouseover" end="reset.mouseout"/>
                       </use>
               </g>
        </defs>

<script type="text/javascript">
var viewWidth = 734;
var viewHeight = 143;
var sectionId = 'dynsection-29';
</script>
<script xlink:href="svgpan.js"/>
<svg id="graph" class="graph">
<g id="viewport">
<title>QtPassSettings::isAutoPush</title>
<!-- Node202 -->
<g id="node1" class="node"><title>Node202</title>
<polygon fill="#bfbfbf" stroke="black" points="0,-57.5 0,-75.5 141.063,-75.5 141.063,-57.5 0,-57.5"/>
<text text-anchor="middle" x="70.5317" y="-63.5" font-family="Helvetica,sans-Serif" font-size="10.00">QtPassSettings::isAutoPush</text>
</g>
<!-- Node203 -->
<g id="node2" class="node"><title>Node203</title>
<g id="a_node2"><a xlink:href="class_main_window.html#aeb8091ab5531144b76c1fbb0d63deb56" target="_top" xlink:title="MainWindow::config pops up the configuration screen and handles all inter&#45;window communication. ">
<polygon fill="none" stroke="black" points="210.135,-113.5 210.135,-131.5 315.617,-131.5 315.617,-113.5 210.135,-113.5"/>
<text text-anchor="middle" x="262.876" y="-119.5" font-family="Helvetica,sans-Serif" font-size="10.00">MainWindow::config</text>
</a>
</g>
</g>
<!-- Node202&#45;&gt;Node203 -->
<g id="edge1" class="edge"><title>Node202&#45;&gt;Node203</title>
<path fill="none" stroke="midnightblue" d="M104.322,-79.1091C124.996,-86.7803 152.361,-96.4288 177.063,-103.5 189.829,-107.154 203.841,-110.541 216.732,-113.413"/>
<polygon fill="midnightblue" stroke="midnightblue" points="105.344,-75.7545 94.7518,-75.522 102.887,-82.3092 105.344,-75.7545"/>
</g>
<!-- Node206 -->
<g id="node5" class="node"><title>Node206</title>
<g id="a_node5"><a xlink:href="class_main_window.html#a4680b2cbcfd388683a98303f29c0f84f" target="_top" xlink:title="MainWindow::executePassGitInit git init wrapper. ">
<polygon fill="none" stroke="black" points="384.693,-38.5 384.693,-56.5 546.865,-56.5 546.865,-38.5 384.693,-38.5"/>
<text text-anchor="middle" x="465.779" y="-44.5" font-family="Helvetica,sans-Serif" font-size="10.00">MainWindow::executePassGitInit</text>
</a>
</g>
</g>
<!-- Node202&#45;&gt;Node206 -->
<g id="edge6" class="edge"><title>Node202&#45;&gt;Node206</title>
<path fill="none" stroke="midnightblue" d="M151.602,-62.6313C219.498,-59.3509 316.409,-54.6686 384.394,-51.3839"/>
<polygon fill="midnightblue" stroke="midnightblue" points="151.203,-59.1465 141.383,-63.1251 151.541,-66.1383 151.203,-59.1465"/>
</g>
<!-- Node208 -->
<g id="node7" class="node"><title>Node208</title>
<g id="a_node7"><a xlink:href="class_main_window.html#add7481e9707f309caba6b5d3a8c1ddc9" target="_top" xlink:title="MainWindow::userDialog see MainWindow::on_usersButton_clicked() ">
<polygon fill="none" stroke="black" points="199.576,-0.5 199.576,-18.5 326.176,-18.5 326.176,-0.5 199.576,-0.5"/>
<text text-anchor="middle" x="262.876" y="-6.5" font-family="Helvetica,sans-Serif" font-size="10.00">MainWindow::userDialog</text>
</a>
</g>
</g>
<!-- Node202&#45;&gt;Node208 -->
<g id="edge7" class="edge"><title>Node202&#45;&gt;Node208</title>
<path fill="none" stroke="midnightblue" d="M109.392,-54.3863C129.462,-48.0343 154.557,-40.202 177.063,-33.5 194.223,-28.3903 213.413,-22.9381 229.193,-18.5238"/>
<polygon fill="midnightblue" stroke="midnightblue" points="108.159,-51.1054 99.6867,-57.4664 110.277,-57.7774 108.159,-51.1054"/>
</g>
<!-- Node209 -->
<g id="node8" class="node"><title>Node209</title>
<g id="a_node8"><a xlink:href="class_main_window.html#a5616dbee2eede4e879bc40fa7778ba7b" target="_top" xlink:title="MainWindow::copyTextToClipboard copies text to your clipboard. ">
<polygon fill="none" stroke="black" points="177.063,-76.5 177.063,-94.5 348.688,-94.5 348.688,-76.5 177.063,-76.5"/>
<text text-anchor="middle" x="262.876" y="-82.5" font-family="Helvetica,sans-Serif" font-size="10.00">MainWindow::copyTextToClipboard</text>
</a>
</g>
</g>
<!-- Node202&#45;&gt;Node209 -->
<g id="edge9" class="edge"><title>Node202&#45;&gt;Node209</title>
<path fill="none" stroke="midnightblue" d="M151.474,-74.4798C159.873,-75.3182 168.435,-76.1728 176.888,-77.0165"/>
<polygon fill="midnightblue" stroke="midnightblue" points="151.626,-70.9777 141.328,-73.467 150.931,-77.943 151.626,-70.9777"/>
</g>
<!-- Node204 -->
<g id="node3" class="node"><title>Node204</title>
<g id="a_node3"><a xlink:href="class_main_window.html#a23d2783cb61a373c4b0127970264290a" target="_top" xlink:title="MainWindow::checkConfig make sure we are ready to go as soon as possible. ">
<polygon fill="none" stroke="black" points="398.866,-114.5 398.866,-132.5 532.693,-132.5 532.693,-114.5 398.866,-114.5"/>
<text text-anchor="middle" x="465.779" y="-120.5" font-family="Helvetica,sans-Serif" font-size="10.00">MainWindow::checkConfig</text>
</a>
</g>
</g>
<!-- Node203&#45;&gt;Node204 -->
<g id="edge2" class="edge"><title>Node203&#45;&gt;Node204</title>
<path fill="none" stroke="midnightblue" d="M325.879,-122.809C348.929,-122.923 375.16,-123.054 398.571,-123.17"/>
<polygon fill="midnightblue" stroke="midnightblue" points="325.892,-119.309 315.875,-122.759 325.857,-126.309 325.892,-119.309"/>
</g>
<!-- Node203&#45;&gt;Node206 -->
<g id="edge4" class="edge"><title>Node203&#45;&gt;Node206</title>
<path fill="none" stroke="midnightblue" d="M325.661,-113.11C333.681,-110.624 341.572,-107.478 348.688,-103.5 368.715,-92.3045 364.732,-77.8208 384.688,-66.5 392.022,-62.3398 400.229,-59.088 408.518,-56.5469"/>
<polygon fill="midnightblue" stroke="midnightblue" points="324.557,-109.784 315.856,-115.829 326.427,-116.53 324.557,-109.784"/>
</g>
<!-- Node205 -->
<g id="node4" class="node"><title>Node205</title>
<g id="a_node4"><a xlink:href="class_main_window.html#a8b244be8b7b7db1b08de2a2acb9409db" target="_top" xlink:title="MainWindow::MainWindow handles all of the main functionality and also the main window. ">
<polygon fill="none" stroke="black" points="586.63,-116.5 586.63,-134.5 722.669,-134.5 722.669,-116.5 586.63,-116.5"/>
<text text-anchor="middle" x="654.649" y="-122.5" font-family="Helvetica,sans-Serif" font-size="10.00">MainWindow::MainWindow</text>
</a>
</g>
</g>
<!-- Node204&#45;&gt;Node205 -->
<g id="edge3" class="edge"><title>Node204&#45;&gt;Node205</title>
<path fill="none" stroke="midnightblue" d="M543.213,-124.318C557.503,-124.471 572.341,-124.63 586.33,-124.78"/>
<polygon fill="midnightblue" stroke="midnightblue" points="542.963,-120.815 532.926,-124.208 542.888,-127.815 542.963,-120.815"/>
</g>
<!-- Node207 -->
<g id="node6" class="node"><title>Node207</title>
<g id="a_node6"><a xlink:href="class_config_dialog.html#ad5b80066591f19fdaaa06b7cb5ba7f15" target="_top" xlink:title="ConfigDialog::wizard first&#45;time use wizard. ">
<polygon fill="none" stroke="black" points="600.795,-15.5 600.795,-33.5 708.504,-33.5 708.504,-15.5 600.795,-15.5"/>
<text text-anchor="middle" x="654.649" y="-21.5" font-family="Helvetica,sans-Serif" font-size="10.00">ConfigDialog::wizard</text>
</a>
</g>
</g>
<!-- Node206&#45;&gt;Node207 -->
<g id="edge5" class="edge"><title>Node206&#45;&gt;Node207</title>
<path fill="none" stroke="midnightblue" d="M550.153,-37.2384C567.349,-35.1219 585.004,-32.9488 600.754,-31.0104"/>
<polygon fill="midnightblue" stroke="midnightblue" points="549.596,-33.7803 540.099,-38.4758 550.452,-40.7279 549.596,-33.7803"/>
</g>
<!-- Node208&#45;&gt;Node207 -->
<g id="edge8" class="edge"><title>Node208&#45;&gt;Node207</title>
<path fill="none" stroke="midnightblue" d="M336.565,-12.2973C413.252,-15.2486 532.257,-19.8283 600.572,-22.4574"/>
<polygon fill="midnightblue" stroke="midnightblue" points="336.627,-8.79725 326.5,-11.91 336.358,-15.7921 336.627,-8.79725"/>
</g>
<!-- Node209&#45;&gt;Node206 -->
<g id="edge10" class="edge"><title>Node209&#45;&gt;Node206</title>
<path fill="none" stroke="midnightblue" d="M321.497,-74.6013C351.796,-68.8703 388.492,-61.9294 417.162,-56.5066"/>
<polygon fill="midnightblue" stroke="midnightblue" points="320.663,-71.1969 311.487,-76.4945 321.964,-78.075 320.663,-71.1969"/>
</g>
<!-- Node210 -->
<g id="node9" class="node"><title>Node210</title>
<g id="a_node9"><a xlink:href="class_main_window.html#a0b9416f68d223f4303ef6e2d8912905c" target="_top" xlink:title="MainWindow::generatePassword use either pwgen or internal password generator. ">
<polygon fill="none" stroke="black" points="384.688,-76.5 384.688,-94.5 546.87,-94.5 546.87,-76.5 384.688,-76.5"/>
<text text-anchor="middle" x="465.779" y="-82.5" font-family="Helvetica,sans-Serif" font-size="10.00">MainWindow::generatePassword</text>
</a>
</g>
</g>
<!-- Node209&#45;&gt;Node210 -->
<g id="edge11" class="edge"><title>Node209&#45;&gt;Node210</title>
<path fill="none" stroke="midnightblue" d="M358.871,-85.5C367.496,-85.5 376.175,-85.5 384.652,-85.5"/>
<polygon fill="midnightblue" stroke="midnightblue" points="358.786,-82.0001 348.786,-85.5 358.786,-89.0001 358.786,-82.0001"/>
</g>
<!-- Node211 -->
<g id="node10" class="node"><title>Node211</title>
<g id="a_node10"><a xlink:href="class_password_dialog.html#aa123158c0085b910ecf3bfdc9dae9e97" target="_top" xlink:title="PasswordDialog::~PasswordDialog basic destructor. ">
<polygon fill="none" stroke="black" points="582.87,-69.5 582.87,-97.5 726.429,-97.5 726.429,-69.5 582.87,-69.5"/>
<text text-anchor="start" x="590.87" y="-85.5" font-family="Helvetica,sans-Serif" font-size="10.00">PasswordDialog::~Password</text>
<text text-anchor="middle" x="654.649" y="-75.5" font-family="Helvetica,sans-Serif" font-size="10.00">Dialog</text>
</a>
</g>
</g>
<!-- Node210&#45;&gt;Node211 -->
<g id="edge12" class="edge"><title>Node210&#45;&gt;Node211</title>
<path fill="none" stroke="midnightblue" d="M557.18,-84.5325C565.784,-84.4404 574.422,-84.3479 582.802,-84.2583"/>
<polygon fill="midnightblue" stroke="midnightblue" points="557.075,-81.0333 547.114,-84.6402 557.15,-88.0329 557.075,-81.0333"/>
</g>
</g>
</svg>
        <g id="navigator" transform="translate(0 0)" fill="#404254">
                <rect fill="#f2f5e9" fill-opacity="0.5" stroke="#606060" stroke-width=".5" x="0" y="0" width="60" height="60"/>
                <use id="zoomplus" xlink:href="#zoomPlus" x="17" y="9" onmousedown="handleZoom(evt,'in')"/>
                <use id="zoomminus" xlink:href="#zoomMin" x="42" y="9" onmousedown="handleZoom(evt,'out')"/>
                <use id="reset" xlink:href="#resetDef" x="30" y="36" onmousedown="handleReset()"/>
                <g id="arrowUp" xlink:href="#dirArrow" transform="translate(30 24)" onmousedown="handlePan(0,-1)">
                  <use xlink:href="#rim" fill="#404040">
                        <set attributeName="fill" to="#808080" begin="arrowUp.mouseover" end="arrowUp.mouseout"/>
                  </use>
                  <path fill="none" stroke="white" stroke-width="1.5" d="M0,-3.0v7 M-2.5,-0.5L0,-3.0L2.5,-0.5"/>
                </g>
                <g id="arrowRight" xlink:href="#dirArrow" transform="rotate(90) translate(36 -43)" onmousedown="handlePan(1,0)">
                  <use xlink:href="#rim" fill="#404040">
                        <set attributeName="fill" to="#808080" begin="arrowRight.mouseover" end="arrowRight.mouseout"/>
                  </use>
                  <path fill="none" stroke="white" stroke-width="1.5" d="M0,-3.0v7 M-2.5,-0.5L0,-3.0L2.5,-0.5"/>
                </g>
                <g id="arrowDown" xlink:href="#dirArrow" transform="rotate(180) translate(-30 -48)" onmousedown="handlePan(0,1)">
                  <use xlink:href="#rim" fill="#404040">
                        <set attributeName="fill" to="#808080" begin="arrowDown.mouseover" end="arrowDown.mouseout"/>
                  </use>
                  <path fill="none" stroke="white" stroke-width="1.5" d="M0,-3.0v7 M-2.5,-0.5L0,-3.0L2.5,-0.5"/>
                </g>
                <g id="arrowLeft" xlink:href="#dirArrow" transform="rotate(270) translate(-36 17)" onmousedown="handlePan(-1,0)">
                  <use xlink:href="#rim" fill="#404040">
                        <set attributeName="fill" to="#808080" begin="arrowLeft.mouseover" end="arrowLeft.mouseout"/>
                  </use>
                  <path fill="none" stroke="white" stroke-width="1.5" d="M0,-3.0v7 M-2.5,-0.5L0,-3.0L2.5,-0.5"/>
                </g>
        </g>
        <svg viewBox="0 0 15 15" width="100%" height="30px" preserveAspectRatio="xMaxYMin meet">
         <g id="arrow_out" transform="scale(0.3 0.3)">
          <a xlink:href="class_qt_pass_settings_ab175512f2db3230fe60396ed0d1e9c14_icgraph_org.svg" target="_base">
           <rect id="button" ry="5" rx="5" y="6" x="6" height="38" width="38"
                fill="#f2f5e9" fill-opacity="0.5" stroke="#606060" stroke-width="1.0"/>
           <path id="arrow"
             d="M 11.500037,31.436501 C 11.940474,20.09759 22.043105,11.32322 32.158766,21.979434 L 37.068811,17.246167 C 37.068811,17.246167 37.088388,32 37.088388,32 L 22.160133,31.978069 C 22.160133,31.978069 26.997745,27.140456 26.997745,27.140456 C 18.528582,18.264221 13.291696,25.230495 11.500037,31.436501 z"
             style="fill:#404040;"/>
          </a>
         </g>
        </svg>
</svg>
