<?xml version="1.0" encoding="UTF-8" standalone="no"?>
<!DOCTYPE svg PUBLIC "-//W3C//DTD SVG 1.1//EN"
 "http://www.w3.org/Graphics/SVG/1.1/DTD/svg11.dtd">
<!-- Generated by graphviz version 2.40.1 (20161225.0304)
 -->
<!-- Title: Pass::executeWrapper Pages: 1 -->
<svg width="638pt" height="104pt"
 viewBox="0.00 0.00 638.00 104.00" xmlns="http://www.w3.org/2000/svg" xmlns:xlink="http://www.w3.org/1999/xlink">
<g id="graph0" class="graph" transform="scale(1 1) rotate(0) translate(4 100)">
<title>Pass::executeWrapper</title>
<!-- Node60 -->
<g id="node1" class="node">
<title>Node60</title>
<polygon fill="#bfbfbf" stroke="#000000" points="0,-38.5 0,-57.5 116,-57.5 116,-38.5 0,-38.5"/>
<text text-anchor="middle" x="58" y="-45.5" font-family="Helvetica,sans-Serif" font-size="10.00" fill="#000000">Pass::executeWrapper</text>
</g>
<!-- Node61 -->
<g id="node2" class="node">
<title>Node61</title>
<g id="a_node2"><a xlink:href="class_imitate_pass.html#a733fddd3f8051d35dd2e601826192fea" target="_top" xlink:title="executeWrapper overrided so that every execution is a transaction ">
<polygon fill="none" stroke="#000000" points="152,-76.5 152,-95.5 298,-95.5 298,-76.5 152,-76.5"/>
<text text-anchor="middle" x="225" y="-83.5" font-family="Helvetica,sans-Serif" font-size="10.00" fill="#000000">ImitatePass::executeWrapper</text>
</a>
</g>
</g>
<!-- Node60&#45;&gt;Node61 -->
<g id="edge1" class="edge">
<title>Node60&#45;&gt;Node61</title>
<path fill="none" stroke="#191970" d="M109.9646,-59.8243C133.5086,-65.1816 160.9737,-71.4311 183.1619,-76.4799"/>
<polygon fill="#191970" stroke="#191970" points="110.6685,-56.3951 100.1412,-57.589 109.1153,-63.2206 110.6685,-56.3951"/>
</g>
<!-- Node62 -->
<g id="node3" class="node">
<title>Node62</title>
<g id="a_node3"><a xlink:href="class_pass.html#a0c29f7bd4ca235d00d9dac6a37e14f4f" target="_top" xlink:title="Pass::GenerateGPGKeys internal gpg keypair generator . . ">
<polygon fill="none" stroke="#000000" points="160.5,-.5 160.5,-19.5 289.5,-19.5 289.5,-.5 160.5,-.5"/>
<text text-anchor="middle" x="225" y="-7.5" font-family="Helvetica,sans-Serif" font-size="10.00" fill="#000000">Pass::GenerateGPGKeys</text>
</a>
</g>
</g>
<!-- Node60&#45;&gt;Node62 -->
<g id="edge2" class="edge">
<title>Node60&#45;&gt;Node62</title>
<path fill="none" stroke="#191970" d="M109.9646,-36.1757C133.5086,-30.8184 160.9737,-24.5689 183.1619,-19.5201"/>
<polygon fill="#191970" stroke="#191970" points="109.1153,-32.7794 100.1412,-38.411 110.6685,-39.6049 109.1153,-32.7794"/>
</g>
<!-- Node63 -->
<g id="node4" class="node">
<title>Node63</title>
<g id="a_node4"><a xlink:href="class_pass.html#a8dfa731be7ac962f9f6a5cf8f29097ec" target="_top" xlink:title="Pass::~Pass">
<polygon fill="none" stroke="#000000" points="359.5,-38.5 359.5,-57.5 433.5,-57.5 433.5,-38.5 359.5,-38.5"/>
<text text-anchor="middle" x="396.5" y="-45.5" font-family="Helvetica,sans-Serif" font-size="10.00" fill="#000000">Pass::~Pass</text>
</a>
</g>
</g>
<!-- Node60&#45;&gt;Node63 -->
<g id="edge6" class="edge">
<title>Node60&#45;&gt;Node63</title>
<path fill="none" stroke="#191970" d="M126.2856,-48C196.5814,-48 303.5004,-48 359.4393,-48"/>
<polygon fill="#191970" stroke="#191970" points="126.1903,-44.5001 116.1902,-48 126.1902,-51.5001 126.1903,-44.5001"/>
</g>
<!-- Node62&#45;&gt;Node63 -->
<g id="edge3" class="edge">
<title>Node62&#45;&gt;Node63</title>
<path fill="none" stroke="#191970" d="M278.1076,-21.7673C304.4419,-27.6023 335.6042,-34.5071 359.3465,-39.7677"/>
<polygon fill="#191970" stroke="#191970" points="278.7971,-18.3352 268.2767,-19.589 277.2827,-25.1695 278.7971,-18.3352"/>
</g>
<!-- Node64 -->
<g id="node5" class="node">
<title>Node64</title>
<g id="a_node5"><a xlink:href="class_qt_pass.html#abd1d1e8d6b80b8307a305d80a6c34371" target="_top" xlink:title="QtPass::setMainWindow">
<polygon fill="none" stroke="#000000" points="334,-.5 334,-19.5 459,-19.5 459,-.5 334,-.5"/>
<text text-anchor="middle" x="396.5" y="-7.5" font-family="Helvetica,sans-Serif" font-size="10.00" fill="#000000">QtPass::setMainWindow</text>
</a>
</g>
</g>
<!-- Node62&#45;&gt;Node64 -->
<g id="edge4" class="edge">
<title>Node62&#45;&gt;Node64</title>
<path fill="none" stroke="#191970" d="M300.0901,-10C311.3559,-10 322.8711,-10 333.8414,-10"/>
<polygon fill="#191970" stroke="#191970" points="299.8368,-6.5001 289.8368,-10 299.8368,-13.5001 299.8368,-6.5001"/>
</g>
<!-- Node65 -->
<g id="node6" class="node">
<title>Node65</title>
<g id="a_node6"><a xlink:href="class_main_window.html#a52e97245b2f88492071e639395c4a15a" target="_top" xlink:title="MainWindow::MainWindow handles all of the main functionality and also the main window. ">
<polygon fill="none" stroke="#000000" points="495,-.5 495,-19.5 630,-19.5 630,-.5 495,-.5"/>
<text text-anchor="middle" x="562.5" y="-7.5" font-family="Helvetica,sans-Serif" font-size="10.00" fill="#000000">MainWindow::MainWindow</text>
</a>
</g>
</g>
<!-- Node64&#45;&gt;Node65 -->
<g id="edge5" class="edge">
<title>Node64&#45;&gt;Node65</title>
<path fill="none" stroke="#191970" d="M469.4873,-10C477.951,-10 486.5556,-10 494.9422,-10"/>
<polygon fill="#191970" stroke="#191970" points="469.2575,-6.5001 459.2575,-10 469.2574,-13.5001 469.2575,-6.5001"/>
</g>
</g>
</svg>
