<?xml version="1.0" encoding="UTF-8" standalone="no"?>
<!DOCTYPE svg PUBLIC "-//W3C//DTD SVG 1.1//EN"
 "http://www.w3.org/Graphics/SVG/1.1/DTD/svg11.dtd">
<!-- Generated by graphviz version 2.40.1 (20161225.0304)
 -->
<!-- Title: PasswordDialog::~PasswordDialog Pages: 1 -->
<svg width="699pt" height="370pt"
 viewBox="0.00 0.00 699.23 370.00" xmlns="http://www.w3.org/2000/svg" xmlns:xlink="http://www.w3.org/1999/xlink">
<g id="graph0" class="graph" transform="scale(1 1) rotate(0) translate(4 366)">
<title>PasswordDialog::~PasswordDialog</title>
<!-- Node6 -->
<g id="node1" class="node">
<title>Node6</title>
<polygon fill="#bfbfbf" stroke="#000000" points="0,-227.5 0,-255.5 143.5586,-255.5 143.5586,-227.5 0,-227.5"/>
<text text-anchor="start" x="8" y="-243.5" font-family="Helvetica,sans-Serif" font-size="10.00" fill="#000000">PasswordDialog::~Password</text>
<text text-anchor="middle" x="71.7793" y="-233.5" font-family="Helvetica,sans-Serif" font-size="10.00" fill="#000000">Dialog</text>
</g>
<!-- Node7 -->
<g id="node2" class="node">
<title>Node7</title>
<g id="a_node2"><a xlink:href="class_qt_pass_settings.html#a987e913eac7cd497e2fca27426494a64" target="_top" xlink:title="QtPassSettings::getPass">
<polygon fill="none" stroke="#000000" points="179.5586,-306.5 179.5586,-324.5 306.1689,-324.5 306.1689,-306.5 179.5586,-306.5"/>
<text text-anchor="middle" x="242.8638" y="-312.5" font-family="Helvetica,sans-Serif" font-size="10.00" fill="#000000">QtPassSettings::getPass</text>
</a>
</g>
</g>
<!-- Node6&#45;&gt;Node7 -->
<g id="edge1" class="edge">
<title>Node6&#45;&gt;Node7</title>
<path fill="none" stroke="#191970" d="M104.3617,-255.593C135.5055,-269.0638 182.0899,-289.2132 212.4802,-302.358"/>
<polygon fill="#191970" stroke="#191970" points="211.1703,-305.6048 221.738,-306.3624 213.9493,-299.18 211.1703,-305.6048"/>
</g>
<!-- Node11 -->
<g id="node6" class="node">
<title>Node11</title>
<g id="a_node6"><a xlink:href="class_pass.html#aa1d433a7da80eeb6f25c3a45ac6adfc8" target="_top" xlink:title="Pass::Generate use either pwgen or internal password generator. ">
<polygon fill="none" stroke="#000000" points="194.561,-158.5 194.561,-176.5 291.1665,-176.5 291.1665,-158.5 194.561,-158.5"/>
<text text-anchor="middle" x="242.8638" y="-164.5" font-family="Helvetica,sans-Serif" font-size="10.00" fill="#000000">Pass::Generate_b</text>
</a>
</g>
</g>
<!-- Node6&#45;&gt;Node11 -->
<g id="edge5" class="edge">
<title>Node6&#45;&gt;Node11</title>
<path fill="none" stroke="#191970" d="M104.3617,-227.407C135.5055,-213.9362 182.0899,-193.7868 212.4802,-180.642"/>
<polygon fill="#191970" stroke="#191970" points="213.9493,-183.82 221.738,-176.6376 211.1703,-177.3952 213.9493,-183.82"/>
</g>
<!-- Node8 -->
<g id="node3" class="node">
<title>Node8</title>
<g id="a_node3"><a xlink:href="class_qt_pass_settings.html#a30ef36260f73f9f18d338f2b18a1f493" target="_top" xlink:title="QtPassSettings::isUsePass">
<polygon fill="none" stroke="#000000" points="354.8643,-343.5 354.8643,-361.5 492.5781,-361.5 492.5781,-343.5 354.8643,-343.5"/>
<text text-anchor="middle" x="423.7212" y="-349.5" font-family="Helvetica,sans-Serif" font-size="10.00" fill="#000000">QtPassSettings::isUsePass</text>
</a>
</g>
</g>
<!-- Node7&#45;&gt;Node8 -->
<g id="edge2" class="edge">
<title>Node7&#45;&gt;Node8</title>
<path fill="none" stroke="#191970" d="M287.1065,-324.5512C312.0506,-329.6543 343.4037,-336.0686 369.7804,-341.4647"/>
<polygon fill="#191970" stroke="#191970" points="369.1236,-344.9028 379.6222,-343.4782 370.5266,-338.0448 369.1236,-344.9028"/>
</g>
<!-- Node9 -->
<g id="node4" class="node">
<title>Node9</title>
<g id="a_node4"><a xlink:href="class_pass.html#a012c47a55b3cc3467ad0f013716f623a" target="_top" xlink:title="Pass::init">
<polygon fill="none" stroke="#000000" points="395.4355,-306.5 395.4355,-324.5 452.0068,-324.5 452.0068,-306.5 395.4355,-306.5"/>
<text text-anchor="middle" x="423.7212" y="-312.5" font-family="Helvetica,sans-Serif" font-size="10.00" fill="#000000">Pass::init</text>
</a>
</g>
</g>
<!-- Node7&#45;&gt;Node9 -->
<g id="edge3" class="edge">
<title>Node7&#45;&gt;Node9</title>
<path fill="none" stroke="#191970" d="M306.373,-315.5C332.6757,-315.5 362.3216,-315.5 385.2352,-315.5"/>
<polygon fill="#191970" stroke="#191970" points="385.2532,-319.0001 395.2531,-315.5 385.2531,-312.0001 385.2532,-319.0001"/>
</g>
<!-- Node10 -->
<g id="node5" class="node">
<title>Node10</title>
<g id="a_node5"><a xlink:href="class_qt_pass_settings.html#ae3f04477e57019e329ed9944806ec1da" target="_top" xlink:title="QtPassSettings::getGpgHome">
<polygon fill="none" stroke="#000000" points="541.2734,-306.5 541.2734,-324.5 691.2285,-324.5 691.2285,-306.5 541.2734,-306.5"/>
<text text-anchor="middle" x="616.251" y="-312.5" font-family="Helvetica,sans-Serif" font-size="10.00" fill="#000000">QtPassSettings::getGpgHome</text>
</a>
</g>
</g>
<!-- Node9&#45;&gt;Node10 -->
<g id="edge4" class="edge">
<title>Node9&#45;&gt;Node10</title>
<path fill="none" stroke="#191970" d="M452.1296,-315.5C472.9974,-315.5 502.5209,-315.5 530.7864,-315.5"/>
<polygon fill="#191970" stroke="#191970" points="531.1247,-319.0001 541.1247,-315.5 531.1247,-312.0001 531.1247,-319.0001"/>
</g>
<!-- Node12 -->
<g id="node7" class="node">
<title>Node12</title>
<g id="a_node7"><a xlink:href="class_qt_pass_settings.html#a67e0ba5d6606e73b979daa774ccc1f72" target="_top" xlink:title="QtPassSettings::isUsePwgen">
<polygon fill="none" stroke="#000000" points="350.6919,-269.5 350.6919,-287.5 496.7505,-287.5 496.7505,-269.5 350.6919,-269.5"/>
<text text-anchor="middle" x="423.7212" y="-275.5" font-family="Helvetica,sans-Serif" font-size="10.00" fill="#000000">QtPassSettings::isUsePwgen</text>
</a>
</g>
</g>
<!-- Node11&#45;&gt;Node12 -->
<g id="edge6" class="edge">
<title>Node11&#45;&gt;Node12</title>
<path fill="none" stroke="#191970" d="M249.9669,-176.7326C264.8867,-195.4462 301.4833,-237.8998 342.1689,-259.5 347.0643,-262.0989 352.3102,-264.3452 357.6939,-266.2861"/>
<polygon fill="#191970" stroke="#191970" points="356.895,-269.7064 367.487,-269.4604 359.0534,-263.0475 356.895,-269.7064"/>
</g>
<!-- Node13 -->
<g id="node8" class="node">
<title>Node13</title>
<g id="a_node8"><a xlink:href="class_qt_pass_settings.html#a269b2828b270d84731e04e80cd7075c0" target="_top" xlink:title="QtPassSettings::isLessRandom">
<polygon fill="none" stroke="#000000" points="345.4111,-232.5 345.4111,-250.5 502.0313,-250.5 502.0313,-232.5 345.4111,-232.5"/>
<text text-anchor="middle" x="423.7212" y="-238.5" font-family="Helvetica,sans-Serif" font-size="10.00" fill="#000000">QtPassSettings::isLessRandom</text>
</a>
</g>
</g>
<!-- Node11&#45;&gt;Node13 -->
<g id="edge7" class="edge">
<title>Node11&#45;&gt;Node13</title>
<path fill="none" stroke="#191970" d="M256.4119,-176.6068C274.9991,-188.7182 309.7968,-210.0428 342.1689,-222.5 349.4192,-225.29 357.196,-227.7431 364.9637,-229.8783"/>
<polygon fill="#191970" stroke="#191970" points="364.1994,-233.2958 374.7575,-232.4145 365.9543,-226.5193 364.1994,-233.2958"/>
</g>
<!-- Node14 -->
<g id="node9" class="node">
<title>Node14</title>
<g id="a_node9"><a xlink:href="class_qt_pass_settings.html#a6a6632898878713e659edf0c27b6e50a" target="_top" xlink:title="QtPassSettings::isAvoidCapitals">
<polygon fill="none" stroke="#000000" points="344.3882,-195.5 344.3882,-213.5 503.0542,-213.5 503.0542,-195.5 344.3882,-195.5"/>
<text text-anchor="middle" x="423.7212" y="-201.5" font-family="Helvetica,sans-Serif" font-size="10.00" fill="#000000">QtPassSettings::isAvoidCapitals</text>
</a>
</g>
</g>
<!-- Node11&#45;&gt;Node14 -->
<g id="edge8" class="edge">
<title>Node11&#45;&gt;Node14</title>
<path fill="none" stroke="#191970" d="M287.1065,-176.5512C312.0506,-181.6543 343.4037,-188.0686 369.7804,-193.4647"/>
<polygon fill="#191970" stroke="#191970" points="369.1236,-196.9028 379.6222,-195.4782 370.5266,-190.0448 369.1236,-196.9028"/>
</g>
<!-- Node15 -->
<g id="node10" class="node">
<title>Node15</title>
<g id="a_node10"><a xlink:href="class_qt_pass_settings.html#a4fda53ae05c53b62b216f304be336341" target="_top" xlink:title="QtPassSettings::isAvoidNumbers">
<polygon fill="none" stroke="#000000" points="342.1689,-158.5 342.1689,-176.5 505.2734,-176.5 505.2734,-158.5 342.1689,-158.5"/>
<text text-anchor="middle" x="423.7212" y="-164.5" font-family="Helvetica,sans-Serif" font-size="10.00" fill="#000000">QtPassSettings::isAvoidNumbers</text>
</a>
</g>
</g>
<!-- Node11&#45;&gt;Node15 -->
<g id="edge9" class="edge">
<title>Node11&#45;&gt;Node15</title>
<path fill="none" stroke="#191970" d="M291.3302,-167.5C303.8756,-167.5 317.8054,-167.5 331.7834,-167.5"/>
<polygon fill="#191970" stroke="#191970" points="331.9509,-171.0001 341.9509,-167.5 331.9508,-164.0001 331.9509,-171.0001"/>
</g>
<!-- Node16 -->
<g id="node11" class="node">
<title>Node16</title>
<g id="a_node11"><a xlink:href="class_qt_pass_settings.html#a0f638e3bc3530579040d6fa8738f8fa3" target="_top" xlink:title="QtPassSettings::isUseSymbols">
<polygon fill="none" stroke="#000000" points="346.8076,-121.5 346.8076,-139.5 500.6348,-139.5 500.6348,-121.5 346.8076,-121.5"/>
<text text-anchor="middle" x="423.7212" y="-127.5" font-family="Helvetica,sans-Serif" font-size="10.00" fill="#000000">QtPassSettings::isUseSymbols</text>
</a>
</g>
</g>
<!-- Node11&#45;&gt;Node16 -->
<g id="edge10" class="edge">
<title>Node11&#45;&gt;Node16</title>
<path fill="none" stroke="#191970" d="M287.1065,-158.4488C312.0506,-153.3457 343.4037,-146.9314 369.7804,-141.5353"/>
<polygon fill="#191970" stroke="#191970" points="370.5266,-144.9552 379.6222,-139.5218 369.1236,-138.0972 370.5266,-144.9552"/>
</g>
<!-- Node17 -->
<g id="node12" class="node">
<title>Node17</title>
<g id="a_node12"><a xlink:href="class_executor.html#a65a32a439c0a531e4553cab015061f2f" target="_top" xlink:title="Executor::executeBlocking blocking version of the executor, takes input and presents it as stdin...">
<polygon fill="none" stroke="#000000" points="356.8003,-84.5 356.8003,-102.5 490.6421,-102.5 490.6421,-84.5 356.8003,-84.5"/>
<text text-anchor="middle" x="423.7212" y="-90.5" font-family="Helvetica,sans-Serif" font-size="10.00" fill="#000000">Executor::executeBlocking</text>
</a>
</g>
</g>
<!-- Node11&#45;&gt;Node17 -->
<g id="edge11" class="edge">
<title>Node11&#45;&gt;Node17</title>
<path fill="none" stroke="#191970" d="M256.0496,-158.3686C274.5018,-145.9955 309.4479,-124.0166 342.1689,-111.5 348.447,-109.0985 355.1257,-106.9765 361.854,-105.1115"/>
<polygon fill="#191970" stroke="#191970" points="362.9031,-108.4553 371.7065,-102.5603 361.1484,-101.6788 362.9031,-108.4553"/>
</g>
<!-- Node18 -->
<g id="node13" class="node">
<title>Node18</title>
<g id="a_node13"><a xlink:href="class_qt_pass_settings.html#a53407b47aac8250b8e0c4cea046883e1" target="_top" xlink:title="QtPassSettings::getPwgen\lExecutable">
<polygon fill="none" stroke="#000000" points="356.2437,-37.5 356.2437,-65.5 491.1987,-65.5 491.1987,-37.5 356.2437,-37.5"/>
<text text-anchor="start" x="364.2437" y="-53.5" font-family="Helvetica,sans-Serif" font-size="10.00" fill="#000000">QtPassSettings::getPwgen</text>
<text text-anchor="middle" x="423.7212" y="-43.5" font-family="Helvetica,sans-Serif" font-size="10.00" fill="#000000">Executable</text>
</a>
</g>
</g>
<!-- Node11&#45;&gt;Node18 -->
<g id="edge12" class="edge">
<title>Node11&#45;&gt;Node18</title>
<path fill="none" stroke="#191970" d="M250.0273,-158.3182C265.0584,-139.68 301.8496,-97.2522 342.1689,-74.5 345.4359,-72.6565 348.8612,-70.952 352.3808,-69.3771"/>
<polygon fill="#191970" stroke="#191970" points="353.9367,-72.5226 361.874,-65.5048 351.2928,-66.041 353.9367,-72.5226"/>
</g>
<!-- Node19 -->
<g id="node14" class="node">
<title>Node19</title>
<g id="a_node14"><a xlink:href="class_util.html#a3d988dbb284673e7c01cec9ff142bcee" target="_top" xlink:title="Util::rand">
<polygon fill="none" stroke="#000000" points="395.7139,-.5 395.7139,-18.5 451.7285,-18.5 451.7285,-.5 395.7139,-.5"/>
<text text-anchor="middle" x="423.7212" y="-6.5" font-family="Helvetica,sans-Serif" font-size="10.00" fill="#000000">Util::rand</text>
</a>
</g>
</g>
<!-- Node11&#45;&gt;Node19 -->
<g id="edge13" class="edge">
<title>Node11&#45;&gt;Node19</title>
<path fill="none" stroke="#191970" d="M246.58,-158.1928C257.2406,-132.7673 290.5119,-61.7544 342.1689,-27.5 354.907,-19.0533 370.9824,-14.5108 385.487,-12.0894"/>
<polygon fill="#191970" stroke="#191970" points="386.275,-15.5138 395.7007,-10.6757 385.3152,-8.5799 386.275,-15.5138"/>
</g>
</g>
</svg>
