<?xml version="1.0" encoding="UTF-8" standalone="no"?>
<!DOCTYPE svg PUBLIC "-//W3C//DTD SVG 1.1//EN"
 "http://www.w3.org/Graphics/SVG/1.1/DTD/svg11.dtd">
<!-- Generated by graphviz version 2.43.0 (0)
 -->
<!-- Title: ImitatePass::Grep Pages: 1 -->
<svg width="519pt" height="101pt"
 viewBox="0.00 0.00 519.00 101.00" xmlns="http://www.w3.org/2000/svg" xmlns:xlink="http://www.w3.org/1999/xlink">
<g id="graph0" class="graph" transform="scale(1 1) rotate(0) translate(4 97)">
<title>ImitatePass::Grep</title>
<!-- Node1 -->
<g id="Node000001" class="node">
<title>Node1</title>
<g id="a_Node000001"><a xlink:title="Search all password content by GPG&#45;decrypting each .gpg file.">
<polygon fill="#999999" stroke="#666666" points="103,-56 0,-56 0,-37 103,-37 103,-56"/>
<text text-anchor="middle" x="51.5" y="-44" font-family="Helvetica,sans-Serif" font-size="10.00">ImitatePass::Grep</text>
</a>
</g>
</g>
<!-- Node2 -->
<g id="Node000002" class="node">
<title>Node2</title>
<g id="a_Node000002"><a xlink:href="class_pass.html#a74344f203b81f87b4d42a6281a176db4" target="_top" xlink:title="Emitted when grep finishes with matching results.">
<polygon fill="white" stroke="#666666" points="284,-93 178,-93 178,-74 284,-74 284,-93"/>
<text text-anchor="middle" x="231" y="-81" font-family="Helvetica,sans-Serif" font-size="10.00">Pass::finishedGrep</text>
</a>
</g>
</g>
<!-- Node1&#45;&gt;Node2 -->
<g id="edge1_Node000001_Node000002" class="edge">
<title>Node1&#45;&gt;Node2</title>
<g id="a_edge1_Node000001_Node000002"><a xlink:title=" ">
<path fill="none" stroke="#63b8ff" d="M95.14,-56.05C109.1,-59.13 124.7,-62.52 139,-65.5 149.27,-67.64 160.22,-69.86 170.82,-71.98"/>
<polygon fill="#63b8ff" stroke="#63b8ff" points="170.36,-75.46 180.85,-73.97 171.72,-68.59 170.36,-75.46"/>
</a>
</g>
</g>
<!-- Node3 -->
<g id="Node000003" class="node">
<title>Node3</title>
<g id="a_Node000003"><a xlink:href="class_qt_pass_settings.html#a6d9beabe93c829cacdcc6c27792ffdba" target="_top" xlink:title="Get GPG executable path.">
<polygon fill="white" stroke="#666666" points="323,-56 139,-56 139,-37 323,-37 323,-56"/>
<text text-anchor="middle" x="231" y="-44" font-family="Helvetica,sans-Serif" font-size="10.00">QtPassSettings::getGpgExecutable</text>
</a>
</g>
</g>
<!-- Node1&#45;&gt;Node3 -->
<g id="edge2_Node000001_Node000003" class="edge">
<title>Node1&#45;&gt;Node3</title>
<g id="a_edge2_Node000001_Node000003"><a xlink:title=" ">
<path fill="none" stroke="#63b8ff" d="M103.36,-46.5C111.39,-46.5 119.92,-46.5 128.62,-46.5"/>
<polygon fill="#63b8ff" stroke="#63b8ff" points="128.89,-50 138.89,-46.5 128.89,-43 128.89,-50"/>
</a>
</g>
</g>
<!-- Node5 -->
<g id="Node000005" class="node">
<title>Node5</title>
<g id="a_Node000005"><a xlink:href="class_qt_pass_settings.html#a538e612e04fe934535e1f7525d55743c" target="_top" xlink:title="Get password store directory path.">
<polygon fill="white" stroke="#666666" points="310,-19 152,-19 152,0 310,0 310,-19"/>
<text text-anchor="middle" x="231" y="-7" font-family="Helvetica,sans-Serif" font-size="10.00">QtPassSettings::getPassStore</text>
</a>
</g>
</g>
<!-- Node1&#45;&gt;Node5 -->
<g id="edge4_Node000001_Node000005" class="edge">
<title>Node1&#45;&gt;Node5</title>
<g id="a_edge4_Node000001_Node000005"><a xlink:title=" ">
<path fill="none" stroke="#63b8ff" d="M98.21,-36.97C121.41,-32.14 149.79,-26.22 174.27,-21.12"/>
<polygon fill="#63b8ff" stroke="#63b8ff" points="175.06,-24.53 184.14,-19.06 173.63,-17.67 175.06,-24.53"/>
</a>
</g>
</g>
<!-- Node4 -->
<g id="Node000004" class="node">
<title>Node4</title>
<g id="a_Node000004"><a xlink:href="class_qt_pass_settings.html#a2483e7de01f9e312ee0fbf8a1637f29d" target="_top" xlink:title="Get the singleton instance.">
<polygon fill="white" stroke="#666666" points="511,-37 359,-37 359,-18 511,-18 511,-37"/>
<text text-anchor="middle" x="435" y="-25" font-family="Helvetica,sans-Serif" font-size="10.00">QtPassSettings::getInstance</text>
</a>
</g>
</g>
<!-- Node3&#45;&gt;Node4 -->
<g id="edge3_Node000003_Node000004" class="edge">
<title>Node3&#45;&gt;Node4</title>
<g id="a_edge3_Node000003_Node000004"><a xlink:title=" ">
<path fill="none" stroke="#63b8ff" d="M323.25,-37.92C331.72,-37.12 340.29,-36.31 348.71,-35.52"/>
<polygon fill="#63b8ff" stroke="#63b8ff" points="349.25,-38.99 358.88,-34.57 348.6,-32.02 349.25,-38.99"/>
</a>
</g>
</g>
<!-- Node5&#45;&gt;Node4 -->
<g id="edge5_Node000005_Node000004" class="edge">
<title>Node5&#45;&gt;Node4</title>
<g id="a_edge5_Node000005_Node000004"><a xlink:title=" ">
<path fill="none" stroke="#63b8ff" d="M310.1,-16.46C322.71,-17.58 335.83,-18.75 348.61,-19.89"/>
<polygon fill="#63b8ff" stroke="#63b8ff" points="348.49,-23.39 358.76,-20.8 349.11,-16.42 348.49,-23.39"/>
</a>
</g>
</g>
</g>
</svg>
