<?xml version="1.0" encoding="UTF-8" standalone="no"?>
<!DOCTYPE svg PUBLIC "-//W3C//DTD SVG 1.1//EN"
 "http://www.w3.org/Graphics/SVG/1.1/DTD/svg11.dtd">
<!-- Generated by graphviz version 2.40.1 (20161225.0304)
 -->
<!-- Title: Executor::executeBlocking Pages: 1 -->
<!--zoomable 148 -->
<svg id="main" version="1.1" xmlns="http://www.w3.org/2000/svg" xmlns:xlink="http://www.w3.org/1999/xlink" xml:space="preserve" onload="init(evt)">
<style type="text/css"><![CDATA[
.edge:hover path { stroke: red; }
.edge:hover polygon { stroke: red; fill: red; }
]]></style>
<script type="text/javascript"><![CDATA[
var edges = document.getElementsByTagName('g');
if (edges && edges.length) {
  for (var i=0;i<edges.length;i++) {
    if (edges[i].id.substr(0,4)=='edge') {
      edges[i].setAttribute('class','edge');
    }
  }
}
]]></script>
        <defs>
                <circle id="rim" cx="0" cy="0" r="7"/>
                <circle id="rim2" cx="0" cy="0" r="3.5"/>
                <g id="zoomPlus">
                        <use xlink:href="#rim" fill="#404040">
                                <set attributeName="fill" to="#808080" begin="zoomplus.mouseover" end="zoomplus.mouseout"/>
                        </use>
                        <path d="M-4,0h8M0,-4v8" fill="none" stroke="white" stroke-width="1.5" pointer-events="none"/>
                </g>
                <g id="zoomMin">
                        <use xlink:href="#rim" fill="#404040">
                                <set attributeName="fill" to="#808080" begin="zoomminus.mouseover" end="zoomminus.mouseout"/>
                        </use>
                        <path d="M-4,0h8" fill="none" stroke="white" stroke-width="1.5" pointer-events="none"/>
                </g>
                <g id="dirArrow">
                        <path fill="none" stroke="white" stroke-width="1.5" d="M0,-3.0v7 M-2.5,-0.5L0,-3.0L2.5,-0.5"/>
                </g>
               <g id="resetDef">
                       <use xlink:href="#rim2" fill="#404040">
                               <set attributeName="fill" to="#808080" begin="reset.mouseover" end="reset.mouseout"/>
                       </use>
               </g>
        </defs>

<script type="text/javascript">
var viewWidth = 635;
var viewHeight = 148;
var sectionId = 'dynsection-5';
</script>
<script xlink:href="svgpan.js"/>
<svg id="graph" class="graph">
<g id="viewport">
<title>Executor::executeBlocking</title>
<!-- Node19 -->
<g id="node1" class="node">
<title>Node19</title>
<polygon fill="#bfbfbf" stroke="#000000" points="0,-74.5 0,-92.5 133.8418,-92.5 133.8418,-74.5 0,-74.5"/>
<text text-anchor="middle" x="66.9209" y="-80.5" font-family="Helvetica,sans-Serif" font-size="10.00" fill="#000000">Executor::executeBlocking</text>
</g>
<!-- Node20 -->
<g id="node2" class="node">
<title>Node20</title>
<g id="a_node2"><a xlink:href="class_executor.html#a916ceeecbe46e63d9dbfe6840c3c3b76" target="_top" xlink:title="Executor::executeBlocking blocking version of the executor. ">
<polygon fill="none" stroke="#000000" points="169.8418,-111.5 169.8418,-129.5 303.6836,-129.5 303.6836,-111.5 169.8418,-111.5"/>
<text text-anchor="middle" x="236.7627" y="-117.5" font-family="Helvetica,sans-Serif" font-size="10.00" fill="#000000">Executor::executeBlocking</text>
</a>
</g>
</g>
<!-- Node19&#45;&gt;Node20 -->
<g id="edge1" class="edge">
<title>Node19&#45;&gt;Node20</title>
<path fill="none" stroke="#191970" d="M118.3753,-94.7093C143.0255,-100.0794 172.1542,-106.4251 195.3496,-111.4782"/>
<polygon fill="#191970" stroke="#191970" points="118.9847,-91.2601 108.4689,-92.5512 117.4947,-98.0997 118.9847,-91.2601"/>
</g>
<!-- Node21 -->
<g id="node3" class="node">
<title>Node21</title>
<g id="a_node3"><a xlink:href="class_pass.html#a9837e79dfc147d8710563a4a8a04bf3e" target="_top" xlink:title="Pass::Generate use either pwgen or internal password generator. ">
<polygon fill="none" stroke="#000000" points="188.46,-74.5 188.46,-92.5 285.0654,-92.5 285.0654,-74.5 188.46,-74.5"/>
<text text-anchor="middle" x="236.7627" y="-80.5" font-family="Helvetica,sans-Serif" font-size="10.00" fill="#000000">Pass::Generate_b</text>
</a>
</g>
</g>
<!-- Node19&#45;&gt;Node21 -->
<g id="edge2" class="edge">
<title>Node19&#45;&gt;Node21</title>
<path fill="none" stroke="#191970" d="M144.3662,-83.5C159.3781,-83.5 174.704,-83.5 188.4479,-83.5"/>
<polygon fill="#191970" stroke="#191970" points="144.0469,-80.0001 134.0469,-83.5 144.0468,-87.0001 144.0469,-80.0001"/>
</g>
<!-- Node24 -->
<g id="node6" class="node">
<title>Node24</title>
<g id="a_node6"><a xlink:href="class_pass.html#a451b0f52aa0332801252ae28665e29b3" target="_top" xlink:title="Pass::listKeys list users. ">
<polygon fill="none" stroke="#000000" points="197.6421,-37.5 197.6421,-55.5 275.8833,-55.5 275.8833,-37.5 197.6421,-37.5"/>
<text text-anchor="middle" x="236.7627" y="-43.5" font-family="Helvetica,sans-Serif" font-size="10.00" fill="#000000">Pass::listKeys</text>
</a>
</g>
</g>
<!-- Node19&#45;&gt;Node24 -->
<g id="edge5" class="edge">
<title>Node19&#45;&gt;Node24</title>
<path fill="none" stroke="#191970" d="M118.3033,-72.3064C143.6983,-66.7741 173.8607,-60.2032 197.3941,-55.0764"/>
<polygon fill="#191970" stroke="#191970" points="117.4947,-68.9003 108.4689,-74.4488 118.9847,-75.7399 117.4947,-68.9003"/>
</g>
<!-- Node22 -->
<g id="node4" class="node">
<title>Node22</title>
<g id="a_node4"><a xlink:href="class_pass.html#a8dfa731be7ac962f9f6a5cf8f29097ec" target="_top" xlink:title="Pass::~Pass">
<polygon fill="none" stroke="#000000" points="375.6699,-74.5 375.6699,-92.5 447.5293,-92.5 447.5293,-74.5 375.6699,-74.5"/>
<text text-anchor="middle" x="411.5996" y="-80.5" font-family="Helvetica,sans-Serif" font-size="10.00" fill="#000000">Pass::~Pass</text>
</a>
</g>
</g>
<!-- Node21&#45;&gt;Node22 -->
<g id="edge3" class="edge">
<title>Node21&#45;&gt;Node22</title>
<path fill="none" stroke="#191970" d="M295.7762,-83.5C322.2541,-83.5 352.6326,-83.5 375.6333,-83.5"/>
<polygon fill="#191970" stroke="#191970" points="295.4646,-80.0001 285.4645,-83.5 295.4645,-87.0001 295.4646,-80.0001"/>
</g>
<!-- Node23 -->
<g id="node5" class="node">
<title>Node23</title>
<g id="a_node5"><a xlink:href="class_password_dialog.html#aa123158c0085b910ecf3bfdc9dae9e97" target="_top" xlink:title="PasswordDialog::~PasswordDialog basic destructor. ">
<polygon fill="none" stroke="#000000" points="339.8203,-111.5 339.8203,-139.5 483.3789,-139.5 483.3789,-111.5 339.8203,-111.5"/>
<text text-anchor="start" x="347.8203" y="-127.5" font-family="Helvetica,sans-Serif" font-size="10.00" fill="#000000">PasswordDialog::~Password</text>
<text text-anchor="middle" x="411.5996" y="-117.5" font-family="Helvetica,sans-Serif" font-size="10.00" fill="#000000">Dialog</text>
</a>
</g>
</g>
<!-- Node21&#45;&gt;Node23 -->
<g id="edge4" class="edge">
<title>Node21&#45;&gt;Node23</title>
<path fill="none" stroke="#191970" d="M284.0543,-94.8606C305.3493,-99.9761 330.7013,-106.0663 353.1716,-111.4642"/>
<polygon fill="#191970" stroke="#191970" points="284.8105,-91.4427 274.2696,-92.5101 283.1754,-98.2491 284.8105,-91.4427"/>
</g>
<!-- Node24&#45;&gt;Node22 -->
<g id="edge10" class="edge">
<title>Node24&#45;&gt;Node22</title>
<path fill="none" stroke="#191970" d="M286.1384,-56.9492C314.5566,-62.9632 349.6382,-70.3874 375.4727,-75.8546"/>
<polygon fill="#191970" stroke="#191970" points="286.5075,-53.4498 275.9995,-54.8035 285.0582,-60.2982 286.5075,-53.4498"/>
</g>
<!-- Node25 -->
<g id="node7" class="node">
<title>Node25</title>
<g id="a_node7"><a xlink:href="class_main_window.html#add7481e9707f309caba6b5d3a8c1ddc9" target="_top" xlink:title="MainWindow::userDialog see MainWindow::on_usersButton_clicked() ">
<polygon fill="none" stroke="#000000" points="348.2993,-37.5 348.2993,-55.5 474.8999,-55.5 474.8999,-37.5 348.2993,-37.5"/>
<text text-anchor="middle" x="411.5996" y="-43.5" font-family="Helvetica,sans-Serif" font-size="10.00" fill="#000000">MainWindow::userDialog</text>
</a>
</g>
</g>
<!-- Node24&#45;&gt;Node25 -->
<g id="edge6" class="edge">
<title>Node24&#45;&gt;Node25</title>
<path fill="none" stroke="#191970" d="M286.0639,-46.5C305.3362,-46.5 327.682,-46.5 348.1328,-46.5"/>
<polygon fill="#191970" stroke="#191970" points="285.9995,-43.0001 275.9995,-46.5 285.9995,-50.0001 285.9995,-43.0001"/>
</g>
<!-- Node27 -->
<g id="node9" class="node">
<title>Node27</title>
<g id="a_node9"><a xlink:href="class_main_window.html#a38957de181a576efc28befeb7c47abec" target="_top" xlink:title="MainWindow::getSecretKeys get list of secret/private keys. ">
<polygon fill="none" stroke="#000000" points="339.6836,-.5 339.6836,-18.5 483.5156,-18.5 483.5156,-.5 339.6836,-.5"/>
<text text-anchor="middle" x="411.5996" y="-6.5" font-family="Helvetica,sans-Serif" font-size="10.00" fill="#000000">MainWindow::getSecretKeys</text>
</a>
</g>
</g>
<!-- Node24&#45;&gt;Node27 -->
<g id="edge8" class="edge">
<title>Node24&#45;&gt;Node27</title>
<path fill="none" stroke="#191970" d="M286.0525,-36.069C312.1154,-30.5534 343.8019,-23.8477 368.8209,-18.5531"/>
<polygon fill="#191970" stroke="#191970" points="285.0582,-32.7018 275.9995,-38.1965 286.5075,-39.5502 285.0582,-32.7018"/>
</g>
<!-- Node26 -->
<g id="node8" class="node">
<title>Node26</title>
<g id="a_node8"><a xlink:href="class_config_dialog.html#ad5b80066591f19fdaaa06b7cb5ba7f15" target="_top" xlink:title="ConfigDialog::wizard first&#45;time use wizard. ">
<polygon fill="none" stroke="#000000" points="519.5156,-18.5 519.5156,-36.5 627.2246,-36.5 627.2246,-18.5 519.5156,-18.5"/>
<text text-anchor="middle" x="573.3701" y="-24.5" font-family="Helvetica,sans-Serif" font-size="10.00" fill="#000000">ConfigDialog::wizard</text>
</a>
</g>
</g>
<!-- Node25&#45;&gt;Node26 -->
<g id="edge7" class="edge">
<title>Node25&#45;&gt;Node26</title>
<path fill="none" stroke="#191970" d="M485.1585,-37.8605C496.7233,-36.5022 508.4896,-35.1202 519.5011,-33.8269"/>
<polygon fill="#191970" stroke="#191970" points="484.5947,-34.4026 475.0713,-39.0452 485.4113,-41.3548 484.5947,-34.4026"/>
</g>
<!-- Node27&#45;&gt;Node26 -->
<g id="edge9" class="edge">
<title>Node27&#45;&gt;Node26</title>
<path fill="none" stroke="#191970" d="M494.0833,-18.6779C502.7105,-19.6378 511.3134,-20.595 519.4994,-21.5059"/>
<polygon fill="#191970" stroke="#191970" points="494.2938,-15.1798 483.9681,-17.5523 493.5196,-22.1368 494.2938,-15.1798"/>
</g>
</g>
</svg>
        <g id="navigator" transform="translate(0 0)" fill="#404254">
                <rect fill="#f2f5e9" fill-opacity="0.5" stroke="#606060" stroke-width=".5" x="0" y="0" width="60" height="60"/>
                <use id="zoomplus" xlink:href="#zoomPlus" x="17" y="9" onmousedown="handleZoom(evt,'in')"/>
                <use id="zoomminus" xlink:href="#zoomMin" x="42" y="9" onmousedown="handleZoom(evt,'out')"/>
                <use id="reset" xlink:href="#resetDef" x="30" y="36" onmousedown="handleReset()"/>
                <g id="arrowUp" xlink:href="#dirArrow" transform="translate(30 24)" onmousedown="handlePan(0,-1)">
                  <use xlink:href="#rim" fill="#404040">
                        <set attributeName="fill" to="#808080" begin="arrowUp.mouseover" end="arrowUp.mouseout"/>
                  </use>
                  <path fill="none" stroke="white" stroke-width="1.5" d="M0,-3.0v7 M-2.5,-0.5L0,-3.0L2.5,-0.5"/>
                </g>
                <g id="arrowRight" xlink:href="#dirArrow" transform="rotate(90) translate(36 -43)" onmousedown="handlePan(1,0)">
                  <use xlink:href="#rim" fill="#404040">
                        <set attributeName="fill" to="#808080" begin="arrowRight.mouseover" end="arrowRight.mouseout"/>
                  </use>
                  <path fill="none" stroke="white" stroke-width="1.5" d="M0,-3.0v7 M-2.5,-0.5L0,-3.0L2.5,-0.5"/>
                </g>
                <g id="arrowDown" xlink:href="#dirArrow" transform="rotate(180) translate(-30 -48)" onmousedown="handlePan(0,1)">
                  <use xlink:href="#rim" fill="#404040">
                        <set attributeName="fill" to="#808080" begin="arrowDown.mouseover" end="arrowDown.mouseout"/>
                  </use>
                  <path fill="none" stroke="white" stroke-width="1.5" d="M0,-3.0v7 M-2.5,-0.5L0,-3.0L2.5,-0.5"/>
                </g>
                <g id="arrowLeft" xlink:href="#dirArrow" transform="rotate(270) translate(-36 17)" onmousedown="handlePan(-1,0)">
                  <use xlink:href="#rim" fill="#404040">
                        <set attributeName="fill" to="#808080" begin="arrowLeft.mouseover" end="arrowLeft.mouseout"/>
                  </use>
                  <path fill="none" stroke="white" stroke-width="1.5" d="M0,-3.0v7 M-2.5,-0.5L0,-3.0L2.5,-0.5"/>
                </g>
        </g>
        <svg viewBox="0 0 15 15" width="100%" height="30px" preserveAspectRatio="xMaxYMin meet">
         <g id="arrow_out" transform="scale(0.3 0.3)">
          <a xlink:href="class_executor_a65a32a439c0a531e4553cab015061f2f_icgraph_org.svg" target="_base">
           <rect id="button" ry="5" rx="5" y="6" x="6" height="38" width="38"
                fill="#f2f5e9" fill-opacity="0.5" stroke="#606060" stroke-width="1.0"/>
           <path id="arrow"
             d="M 11.500037,31.436501 C 11.940474,20.09759 22.043105,11.32322 32.158766,21.979434 L 37.068811,17.246167 C 37.068811,17.246167 37.088388,32 37.088388,32 L 22.160133,31.978069 C 22.160133,31.978069 26.997745,27.140456 26.997745,27.140456 C 18.528582,18.264221 13.291696,25.230495 11.500037,31.436501 z"
             style="fill:#404040;"/>
          </a>
         </g>
        </svg>
</svg>
