<?xml version="1.0" encoding="UTF-8" standalone="no"?>
<!DOCTYPE svg PUBLIC "-//W3C//DTD SVG 1.1//EN"
 "http://www.w3.org/Graphics/SVG/1.1/DTD/svg11.dtd">
<!-- Generated by graphviz version 2.43.0 (0)
 -->
<!-- Title: QtPass::clearClippedText Pages: 1 -->
<svg width="519pt" height="38pt"
 viewBox="0.00 0.00 519.00 38.00" xmlns="http://www.w3.org/2000/svg" xmlns:xlink="http://www.w3.org/1999/xlink">
<g id="graph0" class="graph" transform="scale(1 1) rotate(0) translate(4 34)">
<title>QtPass::clearClippedText</title>
<!-- Node1 -->
<g id="Node000001" class="node">
<title>Node1</title>
<g id="a_Node000001"><a xlink:title="Clears the stored clipped text.">
<polygon fill="#999999" stroke="#666666" points="511,-24.5 374,-24.5 374,-5.5 511,-5.5 511,-24.5"/>
<text text-anchor="middle" x="442.5" y="-12.5" font-family="Helvetica,sans-Serif" font-size="10.00">QtPass::clearClippedText</text>
</a>
</g>
</g>
<!-- Node2 -->
<g id="Node000002" class="node">
<title>Node2</title>
<g id="a_Node000002"><a xlink:href="class_main_window.html#adc7d4b2b210efab401f0b14641f80464" target="_top" xlink:title="MainWindow::on_treeView_clicked read the selected password file.">
<polygon fill="white" stroke="#666666" points="338,-30 192,-30 192,0 338,0 338,-30"/>
<text text-anchor="start" x="200" y="-18" font-family="Helvetica,sans-Serif" font-size="10.00">MainWindow::on_treeView</text>
<text text-anchor="middle" x="265" y="-7" font-family="Helvetica,sans-Serif" font-size="10.00">_clicked</text>
</a>
</g>
</g>
<!-- Node1&#45;&gt;Node2 -->
<g id="edge1_Node000001_Node000002" class="edge">
<title>Node1&#45;&gt;Node2</title>
<g id="a_edge1_Node000001_Node000002"><a xlink:title=" ">
<path fill="none" stroke="#63b8ff" d="M363.66,-15C355.2,-15 346.62,-15 338.23,-15"/>
<polygon fill="#63b8ff" stroke="#63b8ff" points="363.9,-18.5 373.9,-15 363.9,-11.5 363.9,-18.5"/>
</a>
</g>
</g>
<!-- Node3 -->
<g id="Node000003" class="node">
<title>Node3</title>
<g id="a_Node000003"><a xlink:href="class_main_window.html#a55ae3e0d4303334ccabae0a5050cfd88" target="_top" xlink:title="MainWindow::keyPressEvent did anyone press return, enter or escape?">
<polygon fill="white" stroke="#666666" points="156,-24.5 0,-24.5 0,-5.5 156,-5.5 156,-24.5"/>
<text text-anchor="middle" x="78" y="-12.5" font-family="Helvetica,sans-Serif" font-size="10.00">MainWindow::keyPressEvent</text>
</a>
</g>
</g>
<!-- Node2&#45;&gt;Node3 -->
<g id="edge2_Node000002_Node000003" class="edge">
<title>Node2&#45;&gt;Node3</title>
<g id="a_edge2_Node000002_Node000003"><a xlink:title=" ">
<path fill="none" stroke="#63b8ff" d="M181.92,-15C173.32,-15 164.6,-15 156.06,-15"/>
<polygon fill="#63b8ff" stroke="#63b8ff" points="181.94,-18.5 191.94,-15 181.94,-11.5 181.94,-18.5"/>
</a>
</g>
</g>
</g>
</svg>
