<?xml version="1.0" encoding="UTF-8" standalone="no"?>
<!DOCTYPE svg PUBLIC "-//W3C//DTD SVG 1.1//EN"
 "http://www.w3.org/Graphics/SVG/1.1/DTD/svg11.dtd">
<!-- Generated by graphviz version 2.44.0 (20200408.0750)
 -->
<!-- Title: Pass::Generate_b Pages: 1 -->
<svg width="482pt" height="306pt"
 viewBox="0.00 0.00 482.00 306.00" xmlns="http://www.w3.org/2000/svg" xmlns:xlink="http://www.w3.org/1999/xlink">
<g id="graph0" class="graph" transform="scale(1 1) rotate(0) translate(4 302)">
<title>Pass::Generate_b</title>
<!-- Node1 -->
<g id="node1" class="node">
<title>Node1</title>
<g id="a_node1"><a xlink:title="Pass::Generate use either pwgen or internal password generator.">
<polygon fill="#bfbfbf" stroke="black" points="0,-133.5 0,-152.5 95,-152.5 95,-133.5 0,-133.5"/>
<text text-anchor="middle" x="47.5" y="-140.5" font-family="Helvetica,sans-Serif" font-size="10.00">Pass::Generate_b</text>
</a>
</g>
</g>
<!-- Node2 -->
<g id="node2" class="node">
<title>Node2</title>
<g id="a_node2"><a xlink:href="class_executor.html#a65a32a439c0a531e4553cab015061f2f" target="_top" xlink:title="Executor::executeBlocking blocking version of the executor, takes input and presents it as stdin.">
<polygon fill="none" stroke="black" points="146,-278.5 146,-297.5 280,-297.5 280,-278.5 146,-278.5"/>
<text text-anchor="middle" x="213" y="-285.5" font-family="Helvetica,sans-Serif" font-size="10.00">Executor::executeBlocking</text>
</a>
</g>
</g>
<!-- Node1&#45;&gt;Node2 -->
<g id="edge1" class="edge">
<title>Node1&#45;&gt;Node2</title>
<path fill="none" stroke="midnightblue" d="M51.92,-152.7C60.86,-176.56 87.3,-238.41 131,-269 133.87,-271.01 136.92,-272.81 140.09,-274.41"/>
<polygon fill="midnightblue" stroke="midnightblue" points="138.75,-277.65 149.31,-278.47 141.57,-271.24 138.75,-277.65"/>
</g>
<!-- Node3 -->
<g id="node3" class="node">
<title>Node3</title>
<g id="a_node3"><a xlink:href="class_pass.html#a00ff6d5e256bc88d79a18a1efb09ddaf" target="_top" xlink:title=" ">
<polygon fill="none" stroke="black" points="131.5,-240.5 131.5,-259.5 294.5,-259.5 294.5,-240.5 131.5,-240.5"/>
<text text-anchor="middle" x="213" y="-247.5" font-family="Helvetica,sans-Serif" font-size="10.00">Pass::generateRandomPassword</text>
</a>
</g>
</g>
<!-- Node1&#45;&gt;Node3 -->
<g id="edge2" class="edge">
<title>Node1&#45;&gt;Node3</title>
<path fill="none" stroke="midnightblue" d="M54.67,-152.69C66.89,-171.03 96.01,-210.78 131,-231 134.9,-233.26 139.06,-235.24 143.35,-237"/>
<polygon fill="midnightblue" stroke="midnightblue" points="142.31,-240.34 152.91,-240.47 144.7,-233.76 142.31,-240.34"/>
</g>
<!-- Node5 -->
<g id="node5" class="node">
<title>Node5</title>
<g id="a_node5"><a xlink:href="class_qt_pass_settings.html#a53407b47aac8250b8e0c4cea046883e1" target="_top" xlink:title=" ">
<polygon fill="none" stroke="black" points="145.5,-191 145.5,-221 280.5,-221 280.5,-191 145.5,-191"/>
<text text-anchor="start" x="153.5" y="-209" font-family="Helvetica,sans-Serif" font-size="10.00">QtPassSettings::getPwgen</text>
<text text-anchor="middle" x="213" y="-198" font-family="Helvetica,sans-Serif" font-size="10.00">Executable</text>
</a>
</g>
</g>
<!-- Node1&#45;&gt;Node5 -->
<g id="edge4" class="edge">
<title>Node1&#45;&gt;Node5</title>
<path fill="none" stroke="midnightblue" d="M67.53,-152.64C84.05,-160.8 108.76,-172.49 131,-181 136.95,-183.28 143.21,-185.5 149.5,-187.62"/>
<polygon fill="midnightblue" stroke="midnightblue" points="148.77,-191.07 159.37,-190.87 150.96,-184.42 148.77,-191.07"/>
</g>
<!-- Node7 -->
<g id="node7" class="node">
<title>Node7</title>
<g id="a_node7"><a xlink:href="class_qt_pass_settings.html#a6a6632898878713e659edf0c27b6e50a" target="_top" xlink:title=" ">
<polygon fill="none" stroke="black" points="133,-152.5 133,-171.5 293,-171.5 293,-152.5 133,-152.5"/>
<text text-anchor="middle" x="213" y="-159.5" font-family="Helvetica,sans-Serif" font-size="10.00">QtPassSettings::isAvoidCapitals</text>
</a>
</g>
</g>
<!-- Node1&#45;&gt;Node7 -->
<g id="edge6" class="edge">
<title>Node1&#45;&gt;Node7</title>
<path fill="none" stroke="midnightblue" d="M95.35,-148.44C103.95,-149.44 113.17,-150.52 122.53,-151.6"/>
<polygon fill="midnightblue" stroke="midnightblue" points="122.39,-155.11 132.72,-152.79 123.19,-148.16 122.39,-155.11"/>
</g>
<!-- Node8 -->
<g id="node8" class="node">
<title>Node8</title>
<g id="a_node8"><a xlink:href="class_qt_pass_settings.html#a4fda53ae05c53b62b216f304be336341" target="_top" xlink:title=" ">
<polygon fill="none" stroke="black" points="131,-114.5 131,-133.5 295,-133.5 295,-114.5 131,-114.5"/>
<text text-anchor="middle" x="213" y="-121.5" font-family="Helvetica,sans-Serif" font-size="10.00">QtPassSettings::isAvoidNumbers</text>
</a>
</g>
</g>
<!-- Node1&#45;&gt;Node8 -->
<g id="edge8" class="edge">
<title>Node1&#45;&gt;Node8</title>
<path fill="none" stroke="midnightblue" d="M95.35,-137.56C103.44,-136.62 112.09,-135.61 120.89,-134.59"/>
<polygon fill="midnightblue" stroke="midnightblue" points="121.34,-138.06 130.87,-133.43 120.53,-131.11 121.34,-138.06"/>
</g>
<!-- Node9 -->
<g id="node9" class="node">
<title>Node9</title>
<g id="a_node9"><a xlink:href="class_qt_pass_settings.html#a269b2828b270d84731e04e80cd7075c0" target="_top" xlink:title=" ">
<polygon fill="none" stroke="black" points="134.5,-76.5 134.5,-95.5 291.5,-95.5 291.5,-76.5 134.5,-76.5"/>
<text text-anchor="middle" x="213" y="-83.5" font-family="Helvetica,sans-Serif" font-size="10.00">QtPassSettings::isLessRandom</text>
</a>
</g>
</g>
<!-- Node1&#45;&gt;Node9 -->
<g id="edge10" class="edge">
<title>Node1&#45;&gt;Node9</title>
<path fill="none" stroke="midnightblue" d="M66.42,-133.47C82.84,-125.04 108.03,-112.89 131,-105 138.4,-102.46 146.29,-100.14 154.13,-98.07"/>
<polygon fill="midnightblue" stroke="midnightblue" points="155.16,-101.42 164,-95.58 153.45,-94.63 155.16,-101.42"/>
</g>
<!-- Node10 -->
<g id="node10" class="node">
<title>Node10</title>
<g id="a_node10"><a xlink:href="class_qt_pass_settings.html#a67e0ba5d6606e73b979daa774ccc1f72" target="_top" xlink:title=" ">
<polygon fill="none" stroke="black" points="139.5,-38.5 139.5,-57.5 286.5,-57.5 286.5,-38.5 139.5,-38.5"/>
<text text-anchor="middle" x="213" y="-45.5" font-family="Helvetica,sans-Serif" font-size="10.00">QtPassSettings::isUsePwgen</text>
</a>
</g>
</g>
<!-- Node1&#45;&gt;Node10 -->
<g id="edge12" class="edge">
<title>Node1&#45;&gt;Node10</title>
<path fill="none" stroke="midnightblue" d="M56.02,-133.39C69.32,-117.1 98.65,-84.15 131,-67 135.32,-64.71 139.91,-62.69 144.63,-60.92"/>
<polygon fill="midnightblue" stroke="midnightblue" points="146.09,-64.12 154.45,-57.6 143.85,-57.49 146.09,-64.12"/>
</g>
<!-- Node11 -->
<g id="node11" class="node">
<title>Node11</title>
<g id="a_node11"><a xlink:href="class_qt_pass_settings.html#a0f638e3bc3530579040d6fa8738f8fa3" target="_top" xlink:title=" ">
<polygon fill="none" stroke="black" points="135.5,-0.5 135.5,-19.5 290.5,-19.5 290.5,-0.5 135.5,-0.5"/>
<text text-anchor="middle" x="213" y="-7.5" font-family="Helvetica,sans-Serif" font-size="10.00">QtPassSettings::isUseSymbols</text>
</a>
</g>
</g>
<!-- Node1&#45;&gt;Node11 -->
<g id="edge14" class="edge">
<title>Node1&#45;&gt;Node11</title>
<path fill="none" stroke="midnightblue" d="M52.63,-133.24C62.58,-110.97 90.12,-56.21 131,-29 133.98,-27.02 137.13,-25.24 140.41,-23.65"/>
<polygon fill="midnightblue" stroke="midnightblue" points="142.06,-26.76 149.9,-19.64 139.33,-20.31 142.06,-26.76"/>
</g>
<!-- Node4 -->
<g id="node4" class="node">
<title>Node4</title>
<g id="a_node4"><a xlink:href="class_pass.html#ab030c9e35cbb89d05e5c6e266addbbff" target="_top" xlink:title=" ">
<polygon fill="none" stroke="black" points="343,-240.5 343,-259.5 462,-259.5 462,-240.5 343,-240.5"/>
<text text-anchor="middle" x="402.5" y="-247.5" font-family="Helvetica,sans-Serif" font-size="10.00">Pass::boundedRandom</text>
</a>
</g>
</g>
<!-- Node3&#45;&gt;Node4 -->
<g id="edge3" class="edge">
<title>Node3&#45;&gt;Node4</title>
<path fill="none" stroke="midnightblue" d="M294.61,-250C307.24,-250 320.21,-250 332.56,-250"/>
<polygon fill="midnightblue" stroke="midnightblue" points="332.76,-253.5 342.76,-250 332.76,-246.5 332.76,-253.5"/>
</g>
<!-- Node6 -->
<g id="node6" class="node">
<title>Node6</title>
<g id="a_node6"><a xlink:href="class_qt_pass_settings.html#ab83659fdbfb9069942e6982076b4b934" target="_top" xlink:title=" ">
<polygon fill="none" stroke="black" points="331,-95.5 331,-114.5 474,-114.5 474,-95.5 331,-95.5"/>
<text text-anchor="middle" x="402.5" y="-102.5" font-family="Helvetica,sans-Serif" font-size="10.00">QtPassSettings::getInstance</text>
</a>
</g>
</g>
<!-- Node5&#45;&gt;Node6 -->
<g id="edge5" class="edge">
<title>Node5&#45;&gt;Node6</title>
<path fill="none" stroke="midnightblue" d="M271.11,-190.91C279.3,-188.02 287.48,-184.72 295,-181 328.13,-164.6 362.18,-138.34 382.59,-121.38"/>
<polygon fill="midnightblue" stroke="midnightblue" points="385.08,-123.86 390.46,-114.74 380.56,-118.51 385.08,-123.86"/>
</g>
<!-- Node7&#45;&gt;Node6 -->
<g id="edge7" class="edge">
<title>Node7&#45;&gt;Node6</title>
<path fill="none" stroke="midnightblue" d="M258.8,-152.44C270.64,-149.65 283.36,-146.43 295,-143 319.71,-135.72 347.07,-125.92 367.87,-118.09"/>
<polygon fill="midnightblue" stroke="midnightblue" points="369.12,-121.36 377.22,-114.54 366.63,-114.82 369.12,-121.36"/>
</g>
<!-- Node8&#45;&gt;Node6 -->
<g id="edge9" class="edge">
<title>Node8&#45;&gt;Node6</title>
<path fill="none" stroke="midnightblue" d="M295.15,-115.78C303.59,-114.92 312.18,-114.05 320.62,-113.2"/>
<polygon fill="midnightblue" stroke="midnightblue" points="321.23,-116.65 330.82,-112.16 320.52,-109.69 321.23,-116.65"/>
</g>
<!-- Node9&#45;&gt;Node6 -->
<g id="edge11" class="edge">
<title>Node9&#45;&gt;Node6</title>
<path fill="none" stroke="midnightblue" d="M291.62,-93.87C301.26,-94.84 311.14,-95.84 320.83,-96.83"/>
<polygon fill="midnightblue" stroke="midnightblue" points="320.54,-100.31 330.85,-97.84 321.25,-93.35 320.54,-100.31"/>
</g>
<!-- Node10&#45;&gt;Node6 -->
<g id="edge13" class="edge">
<title>Node10&#45;&gt;Node6</title>
<path fill="none" stroke="midnightblue" d="M258.8,-57.56C270.64,-60.35 283.36,-63.57 295,-67 319.71,-74.28 347.07,-84.08 367.87,-91.91"/>
<polygon fill="midnightblue" stroke="midnightblue" points="366.63,-95.18 377.22,-95.46 369.12,-88.64 366.63,-95.18"/>
</g>
<!-- Node11&#45;&gt;Node6 -->
<g id="edge15" class="edge">
<title>Node11&#45;&gt;Node6</title>
<path fill="none" stroke="midnightblue" d="M268.13,-19.6C277.31,-22.09 286.58,-25.19 295,-29 329.04,-44.41 363.31,-71.4 383.46,-88.72"/>
<polygon fill="midnightblue" stroke="midnightblue" points="381.36,-91.53 391.18,-95.49 385.97,-86.27 381.36,-91.53"/>
</g>
</g>
</svg>
