<?xml version="1.0" encoding="UTF-8" standalone="no"?>
<!DOCTYPE svg PUBLIC "-//W3C//DTD SVG 1.1//EN"
 "http://www.w3.org/Graphics/SVG/1.1/DTD/svg11.dtd">
<!-- Generated by graphviz version 2.40.1 (20161225.0304)
 -->
<!-- Title: Pass::finishedGitPush Pages: 1 -->
<svg width="380pt" height="64pt"
 viewBox="0.00 0.00 380.35 64.00" xmlns="http://www.w3.org/2000/svg" xmlns:xlink="http://www.w3.org/1999/xlink">
<g id="graph0" class="graph" transform="scale(1 1) rotate(0) translate(4 60)">
<title>Pass::finishedGitPush</title>
<!-- Node54 -->
<g id="node1" class="node">
<title>Node54</title>
<polygon fill="#bfbfbf" stroke="#000000" points="0,-18.5 0,-36.5 113.8271,-36.5 113.8271,-18.5 0,-18.5"/>
<text text-anchor="middle" x="56.9136" y="-24.5" font-family="Helvetica,sans-Serif" font-size="10.00" fill="#000000">Pass::finishedGitPush</text>
</g>
<!-- Node55 -->
<g id="node2" class="node">
<title>Node55</title>
<g id="a_node2"><a xlink:href="class_pass.html#ad51174f24ecdbc14a55e4588a34b8563" target="_top" xlink:title="Pass::processFinished reemits specific signal based on what process has finished. ...">
<polygon fill="none" stroke="#000000" points="149.8271,-18.5 149.8271,-36.5 228.083,-36.5 228.083,-18.5 149.8271,-18.5"/>
<text text-anchor="middle" x="188.9551" y="-24.5" font-family="Helvetica,sans-Serif" font-size="10.00" fill="#000000">Pass::finished</text>
</a>
</g>
</g>
<!-- Node54&#45;&gt;Node55 -->
<g id="edge1" class="edge">
<title>Node54&#45;&gt;Node55</title>
<path fill="none" stroke="#191970" d="M124.2343,-27.5C132.9194,-27.5 141.5745,-27.5 149.5981,-27.5"/>
<polygon fill="#191970" stroke="#191970" points="124.061,-24.0001 114.0609,-27.5 124.0609,-31.0001 124.061,-24.0001"/>
</g>
<!-- Node56 -->
<g id="node3" class="node">
<title>Node56</title>
<g id="a_node3"><a xlink:href="class_imitate_pass.html#ac20ec846eb423ae4b89c8efef0c1a235" target="_top" xlink:title="ImitatePass::finished this function is overloaded to ensure identical behaviour to RealPass ie...">
<polygon fill="none" stroke="#000000" points="264.083,-37.5 264.083,-55.5 372.3486,-55.5 372.3486,-37.5 264.083,-37.5"/>
<text text-anchor="middle" x="318.2158" y="-43.5" font-family="Helvetica,sans-Serif" font-size="10.00" fill="#000000">ImitatePass::finished</text>
</a>
</g>
</g>
<!-- Node55&#45;&gt;Node56 -->
<g id="edge2" class="edge">
<title>Node55&#45;&gt;Node56</title>
<path fill="none" stroke="#191970" d="M238.1512,-34.7313C246.5866,-35.9712 255.3947,-37.2659 263.9536,-38.524"/>
<polygon fill="#191970" stroke="#191970" points="238.4911,-31.2438 228.0883,-33.2522 237.473,-38.1693 238.4911,-31.2438"/>
</g>
<!-- Node57 -->
<g id="node4" class="node">
<title>Node57</title>
<g id="a_node4"><a xlink:href="class_pass.html#a5d0cea4019f5c123fb4a4417de8d95b9" target="_top" xlink:title="Pass::Pass wrapper for using either pass or the pass imitation. ">
<polygon fill="none" stroke="#000000" points="285.2061,-.5 285.2061,-18.5 351.2256,-18.5 351.2256,-.5 285.2061,-.5"/>
<text text-anchor="middle" x="318.2158" y="-6.5" font-family="Helvetica,sans-Serif" font-size="10.00" fill="#000000">Pass::Pass</text>
</a>
</g>
</g>
<!-- Node55&#45;&gt;Node57 -->
<g id="edge3" class="edge">
<title>Node55&#45;&gt;Node57</title>
<path fill="none" stroke="#191970" d="M238.1292,-20.6523C253.7524,-18.4767 270.6556,-16.1229 284.8886,-14.1409"/>
<polygon fill="#191970" stroke="#191970" points="237.51,-17.2047 228.0883,-22.0506 238.4755,-24.1378 237.51,-17.2047"/>
</g>
</g>
</svg>
