<?xml version="1.0" encoding="UTF-8" standalone="no"?>
<!DOCTYPE svg PUBLIC "-//W3C//DTD SVG 1.1//EN"
 "http://www.w3.org/Graphics/SVG/1.1/DTD/svg11.dtd">
<!-- Generated by graphviz version 2.44.0 (20200408.0750)
 -->
<!-- Title: UsersDialog::UsersDialog Pages: 1 -->
<!--zoomable 232 -->
<svg id="main" version="1.1" xmlns="http://www.w3.org/2000/svg" xmlns:xlink="http://www.w3.org/1999/xlink" xml:space="preserve" onload="init(evt)">
<style type="text/css"><![CDATA[
.edge:hover path { stroke: red; }
.edge:hover polygon { stroke: red; fill: red; }
]]></style>
<script type="text/javascript"><![CDATA[
var edges = document.getElementsByTagName('g');
if (edges && edges.length) {
  for (var i=0;i<edges.length;i++) {
    if (edges[i].id.substr(0,4)=='edge') {
      edges[i].setAttribute('class','edge');
    }
  }
}
]]></script>
        <defs>
                <circle id="rim" cx="0" cy="0" r="7"/>
                <circle id="rim2" cx="0" cy="0" r="3.5"/>
                <g id="zoomPlus">
                        <use xlink:href="#rim" fill="#404040">
                                <set attributeName="fill" to="#808080" begin="zoomplus.mouseover" end="zoomplus.mouseout"/>
                        </use>
                        <path d="M-4,0h8M0,-4v8" fill="none" stroke="white" stroke-width="1.5" pointer-events="none"/>
                </g>
                <g id="zoomMin">
                        <use xlink:href="#rim" fill="#404040">
                                <set attributeName="fill" to="#808080" begin="zoomminus.mouseover" end="zoomminus.mouseout"/>
                        </use>
                        <path d="M-4,0h8" fill="none" stroke="white" stroke-width="1.5" pointer-events="none"/>
                </g>
                <g id="dirArrow">
                        <path fill="none" stroke="white" stroke-width="1.5" d="M0,-3.0v7 M-2.5,-0.5L0,-3.0L2.5,-0.5"/>
                </g>
               <g id="resetDef">
                       <use xlink:href="#rim2" fill="#404040">
                               <set attributeName="fill" to="#808080" begin="reset.mouseover" end="reset.mouseout"/>
                       </use>
               </g>
        </defs>

<script type="text/javascript">
var viewWidth = 1051;
var viewHeight = 232;
var sectionId = 'dynsection-2';
</script>
<script xlink:href="svgpan.js"/>
<svg id="graph" class="graph">
<g id="viewport">
<title>UsersDialog::UsersDialog</title>
<!-- Node1 -->
<g id="node1" class="node">
<title>Node1</title>
<g id="a_node1"><a xlink:title="UsersDialog::UsersDialog basic constructor.">
<polygon fill="#bfbfbf" stroke="black" points="0,-76.5 0,-95.5 131,-95.5 131,-76.5 0,-76.5"/>
<text text-anchor="middle" x="65.5" y="-83.5" font-family="Helvetica,sans-Serif" font-size="10.00">UsersDialog::UsersDialog</text>
</a>
</g>
</g>
<!-- Node2 -->
<g id="node2" class="node">
<title>Node2</title>
<g id="a_node2"><a xlink:href="class_users_dialog.html#a70580643923a96208b6bbae18d4aa0f3" target="_top" xlink:title="UsersDialog::accept.">
<polygon fill="none" stroke="black" points="176.5,-114.5 176.5,-133.5 282.5,-133.5 282.5,-114.5 176.5,-114.5"/>
<text text-anchor="middle" x="229.5" y="-121.5" font-family="Helvetica,sans-Serif" font-size="10.00">UsersDialog::accept</text>
</a>
</g>
</g>
<!-- Node1&#45;&gt;Node2 -->
<g id="edge1" class="edge">
<title>Node1&#45;&gt;Node2</title>
<path fill="none" stroke="midnightblue" d="M107.38,-95.59C128.85,-100.63 155.36,-106.84 178.1,-112.18"/>
<polygon fill="midnightblue" stroke="midnightblue" points="177.38,-115.6 187.91,-114.48 178.98,-108.79 177.38,-115.6"/>
</g>
<!-- Node3 -->
<g id="node3" class="node">
<title>Node3</title>
<g id="a_node3"><a xlink:href="class_qt_pass_settings.html#a987e913eac7cd497e2fca27426494a64" target="_top" xlink:title=" ">
<polygon fill="none" stroke="black" points="331,-152.5 331,-171.5 459,-171.5 459,-152.5 331,-152.5"/>
<text text-anchor="middle" x="395" y="-159.5" font-family="Helvetica,sans-Serif" font-size="10.00">QtPassSettings::getPass</text>
</a>
</g>
</g>
<!-- Node1&#45;&gt;Node3 -->
<g id="edge11" class="edge">
<title>Node1&#45;&gt;Node3</title>
<path fill="none" stroke="midnightblue" d="M79.3,-95.71C97.62,-109.02 132.89,-132.46 167,-143 216.88,-158.41 275.68,-162.98 320.94,-163.79"/>
<polygon fill="midnightblue" stroke="midnightblue" points="320.92,-167.29 330.97,-163.92 321.01,-160.29 320.92,-167.29"/>
</g>
<!-- Node11 -->
<g id="node11" class="node">
<title>Node11</title>
<g id="a_node11"><a xlink:href="class_pass.html#a6c5400e104ade2f41c8d4a41fc0b4f4e" target="_top" xlink:title="Pass::getRecipientList return list of gpg&#45;id&#39;s to encrypt for.">
<polygon fill="none" stroke="black" points="337,-62.5 337,-81.5 453,-81.5 453,-62.5 337,-62.5"/>
<text text-anchor="middle" x="395" y="-69.5" font-family="Helvetica,sans-Serif" font-size="10.00">Pass::getRecipientList</text>
</a>
</g>
</g>
<!-- Node1&#45;&gt;Node11 -->
<g id="edge12" class="edge">
<title>Node1&#45;&gt;Node11</title>
<path fill="none" stroke="midnightblue" d="M131.2,-83.23C187.74,-80.82 269.51,-77.32 326.78,-74.87"/>
<polygon fill="midnightblue" stroke="midnightblue" points="326.98,-78.37 336.82,-74.44 326.68,-71.37 326.98,-78.37"/>
</g>
<!-- Node13 -->
<g id="node13" class="node">
<title>Node13</title>
<g id="a_node13"><a xlink:href="class_pass.html#a4566c370e65b22d5cdc132f72b393808" target="_top" xlink:title="Pass::getRecipientString formated string for use with GPG.">
<polygon fill="none" stroke="black" points="167,-38.5 167,-57.5 292,-57.5 292,-38.5 167,-38.5"/>
<text text-anchor="middle" x="229.5" y="-45.5" font-family="Helvetica,sans-Serif" font-size="10.00">Pass::getRecipientString</text>
</a>
</g>
</g>
<!-- Node1&#45;&gt;Node13 -->
<g id="edge15" class="edge">
<title>Node1&#45;&gt;Node13</title>
<path fill="none" stroke="midnightblue" d="M107.38,-76.41C128.85,-71.37 155.36,-65.16 178.1,-59.82"/>
<polygon fill="midnightblue" stroke="midnightblue" points="178.98,-63.21 187.91,-57.52 177.38,-56.4 178.98,-63.21"/>
</g>
<!-- Node14 -->
<g id="node14" class="node">
<title>Node14</title>
<g id="a_node14"><a xlink:href="class_pass.html#ac0a8e833a71fd2a1ad79cf1158fb0cc2" target="_top" xlink:title="Pass::listKeys list users.">
<polygon fill="none" stroke="black" points="189.5,-0.5 189.5,-19.5 269.5,-19.5 269.5,-0.5 189.5,-0.5"/>
<text text-anchor="middle" x="229.5" y="-7.5" font-family="Helvetica,sans-Serif" font-size="10.00">Pass::listKeys</text>
</a>
</g>
</g>
<!-- Node1&#45;&gt;Node14 -->
<g id="edge17" class="edge">
<title>Node1&#45;&gt;Node14</title>
<path fill="none" stroke="midnightblue" d="M80.97,-76.46C100.05,-64.2 134.96,-42.84 167,-29 172.13,-26.78 177.6,-24.71 183.09,-22.8"/>
<polygon fill="midnightblue" stroke="midnightblue" points="184.5,-26.02 192.9,-19.57 182.31,-19.38 184.5,-26.02"/>
</g>
<!-- Node2&#45;&gt;Node3 -->
<g id="edge2" class="edge">
<title>Node2&#45;&gt;Node3</title>
<path fill="none" stroke="midnightblue" d="M271.76,-133.59C293.43,-138.63 320.18,-144.84 343.13,-150.18"/>
<polygon fill="midnightblue" stroke="midnightblue" points="342.51,-153.63 353.04,-152.48 344.09,-146.81 342.51,-153.63"/>
</g>
<!-- Node10 -->
<g id="node10" class="node">
<title>Node10</title>
<g id="a_node10"><a xlink:href="class_pass.html#aee98d184ed11013a9a9dc08d05fbb1a2" target="_top" xlink:title=" ">
<polygon fill="none" stroke="black" points="365.5,-114.5 365.5,-133.5 424.5,-133.5 424.5,-114.5 365.5,-114.5"/>
<text text-anchor="middle" x="395" y="-121.5" font-family="Helvetica,sans-Serif" font-size="10.00">Pass::Init</text>
</a>
</g>
</g>
<!-- Node2&#45;&gt;Node10 -->
<g id="edge10" class="edge">
<title>Node2&#45;&gt;Node10</title>
<path fill="none" stroke="midnightblue" d="M282.68,-124C306.13,-124 333.34,-124 354.98,-124"/>
<polygon fill="midnightblue" stroke="midnightblue" points="355.12,-127.5 365.12,-124 355.12,-120.5 355.12,-127.5"/>
</g>
<!-- Node4 -->
<g id="node4" class="node">
<title>Node4</title>
<g id="a_node4"><a xlink:href="class_qt_pass_settings.html#a2d6c10abe565eaadb5a222501adfe31f" target="_top" xlink:title=" ">
<polygon fill="none" stroke="black" points="498,-204.5 498,-223.5 656,-223.5 656,-204.5 498,-204.5"/>
<text text-anchor="middle" x="577" y="-211.5" font-family="Helvetica,sans-Serif" font-size="10.00">QtPassSettings::getImitatePass</text>
</a>
</g>
</g>
<!-- Node3&#45;&gt;Node4 -->
<g id="edge3" class="edge">
<title>Node3&#45;&gt;Node4</title>
<path fill="none" stroke="midnightblue" d="M423.54,-171.52C443.97,-178.43 472.57,-187.8 498,-195 506.48,-197.4 515.52,-199.77 524.34,-201.99"/>
<polygon fill="midnightblue" stroke="midnightblue" points="523.61,-205.41 534.16,-204.41 525.29,-198.62 523.61,-205.41"/>
</g>
<!-- Node5 -->
<g id="node5" class="node">
<title>Node5</title>
<g id="a_node5"><a xlink:href="class_qt_pass_settings.html#aaaeff5fa2e3a6b1f815b9a8247339b3a" target="_top" xlink:title=" ">
<polygon fill="none" stroke="black" points="503,-166.5 503,-185.5 651,-185.5 651,-166.5 503,-166.5"/>
<text text-anchor="middle" x="577" y="-173.5" font-family="Helvetica,sans-Serif" font-size="10.00">QtPassSettings::getRealPass</text>
</a>
</g>
</g>
<!-- Node3&#45;&gt;Node5 -->
<g id="edge4" class="edge">
<title>Node3&#45;&gt;Node5</title>
<path fill="none" stroke="midnightblue" d="M459.21,-166.92C469.99,-167.75 481.33,-168.64 492.54,-169.51"/>
<polygon fill="midnightblue" stroke="midnightblue" points="492.54,-173.02 502.78,-170.3 493.08,-166.04 492.54,-173.02"/>
</g>
<!-- Node6 -->
<g id="node6" class="node">
<title>Node6</title>
<g id="a_node6"><a xlink:href="class_pass.html#a012c47a55b3cc3467ad0f013716f623a" target="_top" xlink:title=" ">
<polygon fill="none" stroke="black" points="548,-128.5 548,-147.5 606,-147.5 606,-128.5 548,-128.5"/>
<text text-anchor="middle" x="577" y="-135.5" font-family="Helvetica,sans-Serif" font-size="10.00">Pass::init</text>
</a>
</g>
</g>
<!-- Node3&#45;&gt;Node6 -->
<g id="edge5" class="edge">
<title>Node3&#45;&gt;Node6</title>
<path fill="none" stroke="midnightblue" d="M459.21,-153.57C485.39,-150.08 514.89,-146.15 537.7,-143.11"/>
<polygon fill="midnightblue" stroke="midnightblue" points="538.22,-146.57 547.67,-141.78 537.29,-139.63 538.22,-146.57"/>
</g>
<!-- Node9 -->
<g id="node9" class="node">
<title>Node9</title>
<g id="a_node9"><a xlink:href="class_qt_pass_settings.html#a30ef36260f73f9f18d338f2b18a1f493" target="_top" xlink:title=" ">
<polygon fill="none" stroke="black" points="708,-90.5 708,-109.5 848,-109.5 848,-90.5 708,-90.5"/>
<text text-anchor="middle" x="778" y="-97.5" font-family="Helvetica,sans-Serif" font-size="10.00">QtPassSettings::isUsePass</text>
</a>
</g>
</g>
<!-- Node3&#45;&gt;Node9 -->
<g id="edge8" class="edge">
<title>Node3&#45;&gt;Node9</title>
<path fill="none" stroke="midnightblue" d="M436.51,-152.47C445.1,-149.86 454,-146.71 462,-143 479.45,-134.91 479.8,-125.19 498,-119 562.82,-96.94 640.9,-93.42 697.95,-94.71"/>
<polygon fill="midnightblue" stroke="midnightblue" points="697.9,-98.21 707.99,-94.99 698.09,-91.21 697.9,-98.21"/>
</g>
<!-- Node7 -->
<g id="node7" class="node">
<title>Node7</title>
<g id="a_node7"><a xlink:href="class_qt_pass_settings.html#ae3f04477e57019e329ed9944806ec1da" target="_top" xlink:title=" ">
<polygon fill="none" stroke="black" points="703.5,-128.5 703.5,-147.5 852.5,-147.5 852.5,-128.5 703.5,-128.5"/>
<text text-anchor="middle" x="778" y="-135.5" font-family="Helvetica,sans-Serif" font-size="10.00">QtPassSettings::getGpgHome</text>
</a>
</g>
</g>
<!-- Node6&#45;&gt;Node7 -->
<g id="edge6" class="edge">
<title>Node6&#45;&gt;Node7</title>
<path fill="none" stroke="midnightblue" d="M606.09,-138C628.81,-138 662.02,-138 693.15,-138"/>
<polygon fill="midnightblue" stroke="midnightblue" points="693.16,-141.5 703.16,-138 693.16,-134.5 693.16,-141.5"/>
</g>
<!-- Node8 -->
<g id="node8" class="node">
<title>Node8</title>
<g id="a_node8"><a xlink:href="class_qt_pass_settings.html#ab83659fdbfb9069942e6982076b4b934" target="_top" xlink:title=" ">
<polygon fill="none" stroke="black" points="900,-71.5 900,-90.5 1043,-90.5 1043,-71.5 900,-71.5"/>
<text text-anchor="middle" x="971.5" y="-78.5" font-family="Helvetica,sans-Serif" font-size="10.00">QtPassSettings::getInstance</text>
</a>
</g>
</g>
<!-- Node7&#45;&gt;Node8 -->
<g id="edge7" class="edge">
<title>Node7&#45;&gt;Node8</title>
<path fill="none" stroke="midnightblue" d="M826.47,-128.47C838.77,-125.71 851.94,-122.48 864,-119 888.75,-111.85 916.11,-102.04 936.9,-94.19"/>
<polygon fill="midnightblue" stroke="midnightblue" points="938.15,-97.45 946.24,-90.62 935.65,-90.91 938.15,-97.45"/>
</g>
<!-- Node9&#45;&gt;Node8 -->
<g id="edge9" class="edge">
<title>Node9&#45;&gt;Node8</title>
<path fill="none" stroke="midnightblue" d="M848.14,-93.14C861.67,-91.8 875.98,-90.38 889.85,-89"/>
<polygon fill="midnightblue" stroke="midnightblue" points="890.25,-92.48 899.86,-88.01 889.56,-85.51 890.25,-92.48"/>
</g>
<!-- Node12 -->
<g id="node12" class="node">
<title>Node12</title>
<g id="a_node12"><a xlink:href="class_qt_pass_settings.html#abb8c53443d71181a3ecd6545464453e6" target="_top" xlink:title=" ">
<polygon fill="none" stroke="black" points="702.5,-52.5 702.5,-71.5 853.5,-71.5 853.5,-52.5 702.5,-52.5"/>
<text text-anchor="middle" x="778" y="-59.5" font-family="Helvetica,sans-Serif" font-size="10.00">QtPassSettings::getPassStore</text>
</a>
</g>
</g>
<!-- Node11&#45;&gt;Node12 -->
<g id="edge13" class="edge">
<title>Node11&#45;&gt;Node12</title>
<path fill="none" stroke="midnightblue" d="M453.04,-70.5C516.39,-68.84 619.3,-66.14 692.11,-64.23"/>
<polygon fill="midnightblue" stroke="midnightblue" points="692.27,-67.73 702.18,-63.96 692.09,-60.73 692.27,-67.73"/>
</g>
<!-- Node12&#45;&gt;Node8 -->
<g id="edge14" class="edge">
<title>Node12&#45;&gt;Node8</title>
<path fill="none" stroke="midnightblue" d="M853.59,-69.4C865.48,-70.58 877.84,-71.81 889.87,-73"/>
<polygon fill="midnightblue" stroke="midnightblue" points="889.58,-76.49 899.88,-73.99 890.27,-69.52 889.58,-76.49"/>
</g>
<!-- Node13&#45;&gt;Node11 -->
<g id="edge16" class="edge">
<title>Node13&#45;&gt;Node11</title>
<path fill="none" stroke="midnightblue" d="M292.31,-57.07C303.64,-58.74 315.52,-60.48 326.99,-62.16"/>
<polygon fill="midnightblue" stroke="midnightblue" points="326.55,-65.64 336.95,-63.63 327.56,-58.71 326.55,-65.64"/>
</g>
<!-- Node15 -->
<g id="node15" class="node">
<title>Node15</title>
<g id="a_node15"><a xlink:href="class_executor.html#a65a32a439c0a531e4553cab015061f2f" target="_top" xlink:title="Executor::executeBlocking blocking version of the executor, takes input and presents it as stdin.">
<polygon fill="none" stroke="black" points="328,-24.5 328,-43.5 462,-43.5 462,-24.5 328,-24.5"/>
<text text-anchor="middle" x="395" y="-31.5" font-family="Helvetica,sans-Serif" font-size="10.00">Executor::executeBlocking</text>
</a>
</g>
</g>
<!-- Node14&#45;&gt;Node15 -->
<g id="edge18" class="edge">
<title>Node14&#45;&gt;Node15</title>
<path fill="none" stroke="midnightblue" d="M269.66,-15.75C284.51,-17.93 301.96,-20.49 319.01,-22.99"/>
<polygon fill="midnightblue" stroke="midnightblue" points="318.58,-26.47 328.98,-24.46 319.59,-19.54 318.58,-26.47"/>
</g>
<!-- Node16 -->
<g id="node16" class="node">
<title>Node16</title>
<g id="a_node16"><a xlink:href="class_qt_pass_settings.html#a92b674cdafc03000c808bff5fab93249" target="_top" xlink:title=" ">
<polygon fill="none" stroke="black" points="692,-5.5 692,-24.5 864,-24.5 864,-5.5 692,-5.5"/>
<text text-anchor="middle" x="778" y="-12.5" font-family="Helvetica,sans-Serif" font-size="10.00">QtPassSettings::getGpgExecutable</text>
</a>
</g>
</g>
<!-- Node14&#45;&gt;Node16 -->
<g id="edge19" class="edge">
<title>Node14&#45;&gt;Node16</title>
<path fill="none" stroke="midnightblue" d="M269.8,-10.36C355.32,-11.14 560.35,-13.02 681.93,-14.13"/>
<polygon fill="midnightblue" stroke="midnightblue" points="681.95,-17.63 691.98,-14.22 682.01,-10.63 681.95,-17.63"/>
</g>
<!-- Node16&#45;&gt;Node8 -->
<g id="edge20" class="edge">
<title>Node16&#45;&gt;Node8</title>
<path fill="none" stroke="midnightblue" d="M808.56,-24.54C824.93,-29.87 845.63,-36.7 864,-43 887.62,-51.1 914.06,-60.53 934.68,-67.97"/>
<polygon fill="midnightblue" stroke="midnightblue" points="933.71,-71.34 944.3,-71.45 936.09,-64.76 933.71,-71.34"/>
</g>
</g>
</svg>
        <g id="navigator" transform="translate(0 0)" fill="#404254">
                <rect fill="#f2f5e9" fill-opacity="0.5" stroke="#606060" stroke-width=".5" x="0" y="0" width="60" height="60"/>
                <use id="zoomplus" xlink:href="#zoomPlus" x="17" y="9" onmousedown="handleZoom(evt,'in')"/>
                <use id="zoomminus" xlink:href="#zoomMin" x="42" y="9" onmousedown="handleZoom(evt,'out')"/>
                <use id="reset" xlink:href="#resetDef" x="30" y="36" onmousedown="handleReset()"/>
                <g id="arrowUp" xlink:href="#dirArrow" transform="translate(30 24)" onmousedown="handlePan(0,-1)">
                  <use xlink:href="#rim" fill="#404040">
                        <set attributeName="fill" to="#808080" begin="arrowUp.mouseover" end="arrowUp.mouseout"/>
                  </use>
                  <path fill="none" stroke="white" stroke-width="1.5" d="M0,-3.0v7 M-2.5,-0.5L0,-3.0L2.5,-0.5"/>
                </g>
                <g id="arrowRight" xlink:href="#dirArrow" transform="rotate(90) translate(36 -43)" onmousedown="handlePan(1,0)">
                  <use xlink:href="#rim" fill="#404040">
                        <set attributeName="fill" to="#808080" begin="arrowRight.mouseover" end="arrowRight.mouseout"/>
                  </use>
                  <path fill="none" stroke="white" stroke-width="1.5" d="M0,-3.0v7 M-2.5,-0.5L0,-3.0L2.5,-0.5"/>
                </g>
                <g id="arrowDown" xlink:href="#dirArrow" transform="rotate(180) translate(-30 -48)" onmousedown="handlePan(0,1)">
                  <use xlink:href="#rim" fill="#404040">
                        <set attributeName="fill" to="#808080" begin="arrowDown.mouseover" end="arrowDown.mouseout"/>
                  </use>
                  <path fill="none" stroke="white" stroke-width="1.5" d="M0,-3.0v7 M-2.5,-0.5L0,-3.0L2.5,-0.5"/>
                </g>
                <g id="arrowLeft" xlink:href="#dirArrow" transform="rotate(270) translate(-36 17)" onmousedown="handlePan(-1,0)">
                  <use xlink:href="#rim" fill="#404040">
                        <set attributeName="fill" to="#808080" begin="arrowLeft.mouseover" end="arrowLeft.mouseout"/>
                  </use>
                  <path fill="none" stroke="white" stroke-width="1.5" d="M0,-3.0v7 M-2.5,-0.5L0,-3.0L2.5,-0.5"/>
                </g>
        </g>
        <svg viewBox="0 0 15 15" width="100%" height="30px" preserveAspectRatio="xMaxYMin meet">
         <g id="arrow_out" transform="scale(0.3 0.3)">
          <a xlink:href="class_users_dialog_a7a3d75a01a48609ce7571cec09b95f07_cgraph_org.svg" target="_base">
           <rect id="button" ry="5" rx="5" y="6" x="6" height="38" width="38"
                fill="#f2f5e9" fill-opacity="0.5" stroke="#606060" stroke-width="1.0"/>
           <path id="arrow"
             d="M 11.500037,31.436501 C 11.940474,20.09759 22.043105,11.32322 32.158766,21.979434 L 37.068811,17.246167 C 37.068811,17.246167 37.088388,32 37.088388,32 L 22.160133,31.978069 C 22.160133,31.978069 26.997745,27.140456 26.997745,27.140456 C 18.528582,18.264221 13.291696,25.230495 11.500037,31.436501 z"
             style="fill:#404040;"/>
          </a>
         </g>
        </svg>
</svg>
