<?xml version="1.0" encoding="UTF-8" standalone="no"?>
<!DOCTYPE svg PUBLIC "-//W3C//DTD SVG 1.1//EN"
 "http://www.w3.org/Graphics/SVG/1.1/DTD/svg11.dtd">
<!-- Generated by graphviz version 2.40.1 (20161225.0304)
 -->
<!-- Title: MainWindow::generateKeyPair Pages: 1 -->
<svg width="867pt" height="120pt"
 viewBox="0.00 0.00 867.15 120.00" xmlns="http://www.w3.org/2000/svg" xmlns:xlink="http://www.w3.org/1999/xlink">
<g id="graph0" class="graph" transform="scale(1 1) rotate(0) translate(4 116)">
<title>MainWindow::generateKeyPair</title>
<!-- Node137 -->
<g id="node1" class="node">
<title>Node137</title>
<polygon fill="#bfbfbf" stroke="#000000" points="0,-37.5 0,-55.5 153.29,-55.5 153.29,-37.5 0,-37.5"/>
<text text-anchor="middle" x="76.645" y="-43.5" font-family="Helvetica,sans-Serif" font-size="10.00" fill="#000000">MainWindow::generateKeyPair</text>
</g>
<!-- Node138 -->
<g id="node2" class="node">
<title>Node138</title>
<g id="a_node2"><a xlink:href="class_qt_pass_settings.html#a987e913eac7cd497e2fca27426494a64" target="_top" xlink:title="QtPassSettings::getPass">
<polygon fill="none" stroke="#000000" points="190.9551,-56.5 190.9551,-74.5 317.5654,-74.5 317.5654,-56.5 190.9551,-56.5"/>
<text text-anchor="middle" x="254.2603" y="-62.5" font-family="Helvetica,sans-Serif" font-size="10.00" fill="#000000">QtPassSettings::getPass</text>
</a>
</g>
</g>
<!-- Node137&#45;&gt;Node138 -->
<g id="edge1" class="edge">
<title>Node137&#45;&gt;Node138</title>
<path fill="none" stroke="#191970" d="M153.5166,-54.7232C162.5764,-55.6923 171.805,-56.6795 180.816,-57.6435"/>
<polygon fill="#191970" stroke="#191970" points="180.561,-61.1361 190.8766,-58.7197 181.3056,-54.1758 180.561,-61.1361"/>
</g>
<!-- Node143 -->
<g id="node7" class="node">
<title>Node143</title>
<g id="a_node7"><a xlink:href="class_pass.html#a0c29f7bd4ca235d00d9dac6a37e14f4f" target="_top" xlink:title="Pass::GenerateGPGKeys internal gpg keypair generator . . ">
<polygon fill="none" stroke="#000000" points="189.29,-19.5 189.29,-37.5 319.2305,-37.5 319.2305,-19.5 189.29,-19.5"/>
<text text-anchor="middle" x="254.2603" y="-25.5" font-family="Helvetica,sans-Serif" font-size="10.00" fill="#000000">Pass::GenerateGPGKeys</text>
</a>
</g>
</g>
<!-- Node137&#45;&gt;Node143 -->
<g id="edge7" class="edge">
<title>Node137&#45;&gt;Node143</title>
<path fill="none" stroke="#191970" d="M153.5166,-38.7096C161.9817,-37.8518 170.5941,-36.979 179.0386,-36.1232"/>
<polygon fill="#191970" stroke="#191970" points="179.6386,-39.5804 189.2347,-35.0899 178.9327,-32.616 179.6386,-39.5804"/>
</g>
<!-- Node139 -->
<g id="node3" class="node">
<title>Node139</title>
<g id="a_node3"><a xlink:href="class_qt_pass_settings.html#a30ef36260f73f9f18d338f2b18a1f493" target="_top" xlink:title="QtPassSettings::isUsePass">
<polygon fill="none" stroke="#000000" points="525.7339,-93.5 525.7339,-111.5 663.4478,-111.5 663.4478,-93.5 525.7339,-93.5"/>
<text text-anchor="middle" x="594.5908" y="-99.5" font-family="Helvetica,sans-Serif" font-size="10.00" fill="#000000">QtPassSettings::isUsePass</text>
</a>
</g>
</g>
<!-- Node138&#45;&gt;Node139 -->
<g id="edge2" class="edge">
<title>Node138&#45;&gt;Node139</title>
<path fill="none" stroke="#191970" d="M296.835,-74.5965C314.787,-78.1492 335.9533,-81.9694 355.2305,-84.5 408.4483,-91.4862 468.7058,-95.999 515.4481,-98.7587"/>
<polygon fill="#191970" stroke="#191970" points="515.3262,-102.2574 525.5109,-99.3382 515.7287,-95.269 515.3262,-102.2574"/>
</g>
<!-- Node141 -->
<g id="node5" class="node">
<title>Node141</title>
<g id="a_node5"><a xlink:href="class_pass.html#a012c47a55b3cc3467ad0f013716f623a" target="_top" xlink:title="Pass::init">
<polygon fill="none" stroke="#000000" points="385.4355,-56.5 385.4355,-74.5 442.0068,-74.5 442.0068,-56.5 385.4355,-56.5"/>
<text text-anchor="middle" x="413.7212" y="-62.5" font-family="Helvetica,sans-Serif" font-size="10.00" fill="#000000">Pass::init</text>
</a>
</g>
</g>
<!-- Node138&#45;&gt;Node141 -->
<g id="edge4" class="edge">
<title>Node138&#45;&gt;Node141</title>
<path fill="none" stroke="#191970" d="M317.7416,-65.5C337.1613,-65.5 357.9241,-65.5 375.1533,-65.5"/>
<polygon fill="#191970" stroke="#191970" points="375.3808,-69.0001 385.3807,-65.5 375.3807,-62.0001 375.3808,-69.0001"/>
</g>
<!-- Node140 -->
<g id="node4" class="node">
<title>Node140</title>
<g id="a_node4"><a xlink:href="class_qt_pass_settings.html#ab83659fdbfb9069942e6982076b4b934" target="_top" xlink:title="QtPassSettings::getInstance">
<polygon fill="none" stroke="#000000" points="716.9697,-56.5 716.9697,-74.5 859.1514,-74.5 859.1514,-56.5 716.9697,-56.5"/>
<text text-anchor="middle" x="788.0605" y="-62.5" font-family="Helvetica,sans-Serif" font-size="10.00" fill="#000000">QtPassSettings::getInstance</text>
</a>
</g>
</g>
<!-- Node139&#45;&gt;Node140 -->
<g id="edge3" class="edge">
<title>Node139&#45;&gt;Node140</title>
<path fill="none" stroke="#191970" d="M641.9188,-93.4488C668.72,-88.3232 702.4376,-81.8749 730.7307,-76.464"/>
<polygon fill="#191970" stroke="#191970" points="731.7217,-79.838 740.8862,-74.5218 730.4068,-72.9626 731.7217,-79.838"/>
</g>
<!-- Node142 -->
<g id="node6" class="node">
<title>Node142</title>
<g id="a_node6"><a xlink:href="class_qt_pass_settings.html#ae3f04477e57019e329ed9944806ec1da" target="_top" xlink:title="QtPassSettings::getGpgHome">
<polygon fill="none" stroke="#000000" points="519.6133,-56.5 519.6133,-74.5 669.5684,-74.5 669.5684,-56.5 519.6133,-56.5"/>
<text text-anchor="middle" x="594.5908" y="-62.5" font-family="Helvetica,sans-Serif" font-size="10.00" fill="#000000">QtPassSettings::getGpgHome</text>
</a>
</g>
</g>
<!-- Node141&#45;&gt;Node142 -->
<g id="edge5" class="edge">
<title>Node141&#45;&gt;Node142</title>
<path fill="none" stroke="#191970" d="M442.3805,-65.5C460.5095,-65.5 484.983,-65.5 508.9996,-65.5"/>
<polygon fill="#191970" stroke="#191970" points="509.2446,-69.0001 519.2446,-65.5 509.2445,-62.0001 509.2446,-69.0001"/>
</g>
<!-- Node142&#45;&gt;Node140 -->
<g id="edge6" class="edge">
<title>Node142&#45;&gt;Node140</title>
<path fill="none" stroke="#191970" d="M669.6682,-65.5C681.7835,-65.5 694.3766,-65.5 706.6333,-65.5"/>
<polygon fill="#191970" stroke="#191970" points="706.832,-69.0001 716.832,-65.5 706.832,-62.0001 706.832,-69.0001"/>
</g>
<!-- Node144 -->
<g id="node8" class="node">
<title>Node144</title>
<g id="a_node8"><a xlink:href="class_pass.html#a66f59138ffe856fd421410d9af9ddc62" target="_top" xlink:title="Pass::executeWrapper">
<polygon fill="none" stroke="#000000" points="355.2305,-19.5 355.2305,-37.5 472.2119,-37.5 472.2119,-19.5 355.2305,-19.5"/>
<text text-anchor="middle" x="413.7212" y="-25.5" font-family="Helvetica,sans-Serif" font-size="10.00" fill="#000000">Pass::executeWrapper</text>
</a>
</g>
</g>
<!-- Node143&#45;&gt;Node144 -->
<g id="edge8" class="edge">
<title>Node143&#45;&gt;Node144</title>
<path fill="none" stroke="#191970" d="M319.5792,-28.5C327.9565,-28.5 336.5533,-28.5 344.983,-28.5"/>
<polygon fill="#191970" stroke="#191970" points="345.1566,-32.0001 355.1566,-28.5 345.1565,-25.0001 345.1566,-32.0001"/>
</g>
<!-- Node145 -->
<g id="node9" class="node">
<title>Node145</title>
<g id="a_node9"><a xlink:href="class_qt_pass_settings.html#a92b674cdafc03000c808bff5fab93249" target="_top" xlink:title="QtPassSettings::getGpgExecutable">
<polygon fill="none" stroke="#000000" points="508.2119,-.5 508.2119,-18.5 680.9697,-18.5 680.9697,-.5 508.2119,-.5"/>
<text text-anchor="middle" x="594.5908" y="-6.5" font-family="Helvetica,sans-Serif" font-size="10.00" fill="#000000">QtPassSettings::getGpgExecutable</text>
</a>
</g>
</g>
<!-- Node143&#45;&gt;Node145 -->
<g id="edge9" class="edge">
<title>Node143&#45;&gt;Node145</title>
<path fill="none" stroke="#191970" d="M292.859,-19.4925C311.575,-15.5733 334.4511,-11.4381 355.2305,-9.5 402.0614,-5.1321 454.2707,-4.6266 497.9484,-5.4218"/>
<polygon fill="#191970" stroke="#191970" points="497.9229,-8.922 507.9933,-5.6301 498.0681,-1.9235 497.9229,-8.922"/>
</g>
<!-- Node145&#45;&gt;Node140 -->
<g id="edge10" class="edge">
<title>Node145&#45;&gt;Node140</title>
<path fill="none" stroke="#191970" d="M626.1057,-18.622C659.0887,-28.169 711.0066,-43.1967 747.1367,-53.6546"/>
<polygon fill="#191970" stroke="#191970" points="746.3009,-57.0562 756.8798,-56.4747 748.2472,-50.3322 746.3009,-57.0562"/>
</g>
</g>
</svg>
