<?xml version="1.0" encoding="UTF-8" standalone="no"?>
<!DOCTYPE svg PUBLIC "-//W3C//DTD SVG 1.1//EN"
 "http://www.w3.org/Graphics/SVG/1.1/DTD/svg11.dtd">
<!-- Generated by graphviz version 2.49.3 (0)
 -->
<!-- Title: ImitatePass Pages: 1 -->
<svg width="167pt" height="137pt"
 viewBox="0.00 0.00 167.00 137.00" xmlns="http://www.w3.org/2000/svg" xmlns:xlink="http://www.w3.org/1999/xlink">
<g id="graph0" class="graph" transform="scale(1 1) rotate(0) translate(4 133)">
<title>ImitatePass</title>
<!-- Node1 -->
<g id="node1" class="node">
<title>Node1</title>
<g id="a_node1"><a xlink:title="Imitates pass features when pass is not enabled or available.">
<polygon fill="#999999" stroke="#666666" points="103,-19 34,-19 34,0 103,0 103,-19"/>
<text text-anchor="middle" x="68.5" y="-7" font-family="Helvetica,sans-Serif" font-size="10.00">ImitatePass</text>
</a>
</g>
</g>
<!-- Node2 -->
<g id="node2" class="node">
<title>Node2</title>
<g id="a_node2"><a xlink:href="class_pass.html" target="_top" xlink:title="Acts as an abstraction for pass or pass imitation.">
<polygon fill="white" stroke="#666666" points="46,-74 7,-74 7,-55 46,-55 46,-74"/>
<text text-anchor="middle" x="26.5" y="-62" font-family="Helvetica,sans-Serif" font-size="10.00">Pass</text>
</a>
</g>
</g>
<!-- Node2&#45;&gt;Node1 -->
<g id="edge1" class="edge">
<title>Node2&#45;&gt;Node1</title>
<path fill="none" stroke="#63b8ff" d="M39.83,-46.67C47.11,-37.5 55.8,-26.52 61.69,-19.09"/>
<polygon fill="#63b8ff" stroke="#63b8ff" points="36.9,-44.74 33.44,-54.75 42.39,-49.08 36.9,-44.74"/>
</g>
<!-- Node3 -->
<g id="node3" class="node">
<title>Node3</title>
<g id="a_node3"><a xlink:title=" ">
<polygon fill="white" stroke="#666666" points="53,-129 0,-129 0,-110 53,-110 53,-129"/>
<text text-anchor="middle" x="26.5" y="-117" font-family="Helvetica,sans-Serif" font-size="10.00">QObject</text>
</a>
</g>
</g>
<!-- Node3&#45;&gt;Node2 -->
<g id="edge2" class="edge">
<title>Node3&#45;&gt;Node2</title>
<path fill="none" stroke="#63b8ff" d="M26.5,-99.66C26.5,-90.93 26.5,-80.99 26.5,-74.09"/>
<polygon fill="#63b8ff" stroke="#63b8ff" points="23,-99.75 26.5,-109.75 30,-99.75 23,-99.75"/>
</g>
<!-- Node4 -->
<g id="node4" class="node">
<title>Node4</title>
<g id="a_node4"><a xlink:href="classsimple_transaction.html" target="_top" xlink:title=" ">
<polygon fill="white" stroke="#666666" points="159,-74 64,-74 64,-55 159,-55 159,-74"/>
<text text-anchor="middle" x="111.5" y="-62" font-family="Helvetica,sans-Serif" font-size="10.00">simpleTransaction</text>
</a>
</g>
</g>
<!-- Node4&#45;&gt;Node1 -->
<g id="edge3" class="edge">
<title>Node4&#45;&gt;Node1</title>
<path fill="none" stroke="#8b1a1a" d="M98.08,-46.96C90.59,-37.72 81.56,-26.6 75.47,-19.09"/>
<polygon fill="#8b1a1a" stroke="#8b1a1a" points="95.38,-49.19 104.4,-54.75 100.82,-44.78 95.38,-49.19"/>
</g>
</g>
</svg>
