<?xml version="1.0" encoding="UTF-8" standalone="no"?>
<!DOCTYPE svg PUBLIC "-//W3C//DTD SVG 1.1//EN"
 "http://www.w3.org/Graphics/SVG/1.1/DTD/svg11.dtd">
<!-- Generated by graphviz version 2.44.0 (20200408.0750)
 -->
<!-- Title: Pass::Show Pages: 1 -->
<svg width="433pt" height="88pt"
 viewBox="0.00 0.00 433.00 88.00" xmlns="http://www.w3.org/2000/svg" xmlns:xlink="http://www.w3.org/1999/xlink">
<g id="graph0" class="graph" transform="scale(1 1) rotate(0) translate(4 84)">
<title>Pass::Show</title>
<!-- Node1 -->
<g id="node1" class="node">
<title>Node1</title>
<g id="a_node1"><a xlink:title=" ">
<polygon fill="#bfbfbf" stroke="black" points="355,-30 355,-49 425,-49 425,-30 355,-30"/>
<text text-anchor="middle" x="390" y="-37" font-family="Helvetica,sans-Serif" font-size="10.00">Pass::Show</text>
</a>
</g>
</g>
<!-- Node2 -->
<g id="node2" class="node">
<title>Node2</title>
<g id="a_node2"><a xlink:href="class_main_window.html#adc7d4b2b210efab401f0b14641f80464" target="_top" xlink:title="MainWindow::on_treeView_clicked read the selected password file.">
<polygon fill="none" stroke="black" points="184,-49.5 184,-79.5 317,-79.5 317,-49.5 184,-49.5"/>
<text text-anchor="start" x="192" y="-67.5" font-family="Helvetica,sans-Serif" font-size="10.00">MainWindow::on_treeView</text>
<text text-anchor="middle" x="250.5" y="-56.5" font-family="Helvetica,sans-Serif" font-size="10.00">_clicked</text>
</a>
</g>
</g>
<!-- Node1&#45;&gt;Node2 -->
<g id="edge1" class="edge">
<title>Node1&#45;&gt;Node2</title>
<path fill="none" stroke="midnightblue" d="M344.63,-47.57C335.81,-49.17 326.37,-50.89 317.02,-52.59"/>
<polygon fill="midnightblue" stroke="midnightblue" points="345.45,-50.98 354.66,-45.74 344.19,-44.09 345.45,-50.98"/>
</g>
<!-- Node4 -->
<g id="node4" class="node">
<title>Node4</title>
<g id="a_node4"><a xlink:href="class_password_dialog.html#a1fd0289581d2b742470a3efae7db6154" target="_top" xlink:title="PasswordDialog::PasswordDialog complete constructor.">
<polygon fill="none" stroke="black" points="182,-0.5 182,-30.5 319,-30.5 319,-0.5 182,-0.5"/>
<text text-anchor="start" x="190" y="-18.5" font-family="Helvetica,sans-Serif" font-size="10.00">PasswordDialog::Password</text>
<text text-anchor="middle" x="250.5" y="-7.5" font-family="Helvetica,sans-Serif" font-size="10.00">Dialog</text>
</a>
</g>
</g>
<!-- Node1&#45;&gt;Node4 -->
<g id="edge3" class="edge">
<title>Node1&#45;&gt;Node4</title>
<path fill="none" stroke="midnightblue" d="M344.66,-31.76C336.51,-30.34 327.84,-28.82 319.19,-27.31"/>
<polygon fill="midnightblue" stroke="midnightblue" points="344.2,-35.23 354.66,-33.51 345.41,-28.34 344.2,-35.23"/>
</g>
<!-- Node3 -->
<g id="node3" class="node">
<title>Node3</title>
<g id="a_node3"><a xlink:href="class_main_window.html#a9c4f542263838b9ecd06eae839a42a34" target="_top" xlink:title="MainWindow::keyPressEvent did anyone press return, enter or escape?">
<polygon fill="none" stroke="black" points="0,-55 0,-74 146,-74 146,-55 0,-55"/>
<text text-anchor="middle" x="73" y="-62" font-family="Helvetica,sans-Serif" font-size="10.00">MainWindow::keyPressEvent</text>
</a>
</g>
</g>
<!-- Node2&#45;&gt;Node3 -->
<g id="edge2" class="edge">
<title>Node2&#45;&gt;Node3</title>
<path fill="none" stroke="midnightblue" d="M173.48,-64.5C164.39,-64.5 155.13,-64.5 146.1,-64.5"/>
<polygon fill="midnightblue" stroke="midnightblue" points="173.65,-68 183.65,-64.5 173.65,-61 173.65,-68"/>
</g>
</g>
</svg>
