<?xml version="1.0" encoding="UTF-8" standalone="no"?>
<!DOCTYPE svg PUBLIC "-//W3C//DTD SVG 1.1//EN"
 "http://www.w3.org/Graphics/SVG/1.1/DTD/svg11.dtd">
<!-- Generated by graphviz version 2.49.3 (0)
 -->
<!-- Title: QtPassSettings::isUsePass Pages: 1 -->
<!--zoomable 443 -->
<svg id="main" version="1.1" xmlns="http://www.w3.org/2000/svg" xmlns:xlink="http://www.w3.org/1999/xlink" xml:space="preserve" onload="init(evt)">
<style type="text/css"><![CDATA[
.edge:hover path { stroke: red; }
.edge:hover polygon { stroke: red; fill: red; }
]]></style>
<script type="text/javascript"><![CDATA[
var edges = document.getElementsByTagName('g');
if (edges && edges.length) {
  for (var i=0;i<edges.length;i++) {
    if (edges[i].id.substr(0,4)=='edge') {
      edges[i].setAttribute('class','edge');
    }
  }
}
]]></script>
        <defs>
                <circle id="rim" cx="0" cy="0" r="7"/>
                <circle id="rim2" cx="0" cy="0" r="3.5"/>
                <g id="zoomPlus">
                        <use xlink:href="#rim" fill="#404040">
                                <set attributeName="fill" to="#808080" begin="zoomplus.mouseover" end="zoomplus.mouseout"/>
                        </use>
                        <path d="M-4,0h8M0,-4v8" fill="none" stroke="white" stroke-width="1.5" pointer-events="none"/>
                </g>
                <g id="zoomMin">
                        <use xlink:href="#rim" fill="#404040">
                                <set attributeName="fill" to="#808080" begin="zoomminus.mouseover" end="zoomminus.mouseout"/>
                        </use>
                        <path d="M-4,0h8" fill="none" stroke="white" stroke-width="1.5" pointer-events="none"/>
                </g>
                <g id="dirArrow">
                        <path fill="none" stroke="white" stroke-width="1.5" d="M0,-3.0v7 M-2.5,-0.5L0,-3.0L2.5,-0.5"/>
                </g>
               <g id="resetDef">
                       <use xlink:href="#rim2" fill="#404040">
                               <set attributeName="fill" to="#808080" begin="reset.mouseover" end="reset.mouseout"/>
                       </use>
               </g>
        </defs>

<script type="text/javascript">
var viewWidth = 834;
var viewHeight = 443;
var sectionId = 'dynsection-95';
</script>
<script xlink:href="svgpan.js"/>
<svg id="graph" class="graph">
<g id="viewport">
<title>QtPassSettings::isUsePass</title>
<!-- Node1 -->
<g id="node1" class="node">
<title>Node1</title>
<g id="a_node1"><a xlink:title=" ">
<polygon fill="#999999" stroke="#666666" points="826,-76 686,-76 686,-57 826,-57 826,-76"/>
<text text-anchor="middle" x="756" y="-64" font-family="Helvetica,sans-Serif" font-size="10.00">QtPassSettings::isUsePass</text>
</a>
</g>
</g>
<!-- Node2 -->
<g id="node2" class="node">
<title>Node2</title>
<g id="a_node2"><a xlink:href="class_util.html#a00c91095ca10b233e45eb643ff6097a4" target="_top" xlink:title="Util::checkConfig do we have prequisite settings?">
<polygon fill="white" stroke="#666666" points="632,-76 540,-76 540,-57 632,-57 632,-76"/>
<text text-anchor="middle" x="586" y="-64" font-family="Helvetica,sans-Serif" font-size="10.00">Util::checkConfig</text>
</a>
</g>
</g>
<!-- Node1&#45;&gt;Node2 -->
<g id="edge1" class="edge">
<title>Node1&#45;&gt;Node2</title>
<path fill="none" stroke="#63b8ff" d="M675.45,-66.5C660.58,-66.5 645.52,-66.5 632.15,-66.5"/>
<polygon fill="#63b8ff" stroke="#63b8ff" points="675.7,-70 685.7,-66.5 675.7,-63 675.7,-70"/>
</g>
<!-- Node6 -->
<g id="node6" class="node">
<title>Node6</title>
<g id="a_node6"><a xlink:href="class_config_dialog.html#a815d6d8ddf1de9386427ddef691a02a1" target="_top" xlink:title="ConfigDialog::ConfigDialog this sets up the configuration screen.">
<polygon fill="white" stroke="#666666" points="485,-19 350,-19 350,0 485,0 485,-19"/>
<text text-anchor="middle" x="417.5" y="-7" font-family="Helvetica,sans-Serif" font-size="10.00">ConfigDialog::ConfigDialog</text>
</a>
</g>
</g>
<!-- Node1&#45;&gt;Node6 -->
<g id="edge9" class="edge">
<title>Node1&#45;&gt;Node6</title>
<path fill="none" stroke="#63b8ff" d="M693.09,-55.12C678.94,-52.57 663.96,-49.91 650,-47.5 591.8,-37.46 525.26,-26.6 478.5,-19.07"/>
<polygon fill="#63b8ff" stroke="#63b8ff" points="692.76,-58.62 703.23,-56.96 694.01,-51.73 692.76,-58.62"/>
</g>
<!-- Node8 -->
<g id="node8" class="node">
<title>Node8</title>
<g id="a_node8"><a xlink:href="class_qt_pass_settings.html#a987e913eac7cd497e2fca27426494a64" target="_top" xlink:title=" ">
<polygon fill="white" stroke="#666666" points="650,-263 522,-263 522,-244 650,-244 650,-263"/>
<text text-anchor="middle" x="586" y="-251" font-family="Helvetica,sans-Serif" font-size="10.00">QtPassSettings::getPass</text>
</a>
</g>
</g>
<!-- Node1&#45;&gt;Node8 -->
<g id="edge10" class="edge">
<title>Node1&#45;&gt;Node8</title>
<path fill="none" stroke="#63b8ff" d="M739.47,-83.79C704.94,-122.23 622.73,-213.73 595.75,-243.76"/>
<polygon fill="#63b8ff" stroke="#63b8ff" points="742.36,-85.81 746.44,-76.03 737.15,-81.13 742.36,-85.81"/>
</g>
<!-- Node3 -->
<g id="node3" class="node">
<title>Node3</title>
<g id="a_node3"><a xlink:href="class_main_window.html#aeb8091ab5531144b76c1fbb0d63deb56" target="_top" xlink:title="MainWindow::config pops up the configuration screen and handles all inter&#45;window communication.">
<polygon fill="white" stroke="#666666" points="469.5,-132 365.5,-132 365.5,-113 469.5,-113 469.5,-132"/>
<text text-anchor="middle" x="417.5" y="-120" font-family="Helvetica,sans-Serif" font-size="10.00">MainWindow::config</text>
</a>
</g>
</g>
<!-- Node2&#45;&gt;Node3 -->
<g id="edge2" class="edge">
<title>Node2&#45;&gt;Node3</title>
<path fill="none" stroke="#63b8ff" d="M546.52,-79.44C516.05,-89.69 474.19,-103.77 446.75,-113"/>
<polygon fill="#63b8ff" stroke="#63b8ff" points="548.02,-82.63 556.38,-76.13 545.78,-76 548.02,-82.63"/>
</g>
<!-- Node4 -->
<g id="node4" class="node">
<title>Node4</title>
<g id="a_node4"><a xlink:href="class_qt_pass.html#a49e2861160fdb8d614231933f60fac47" target="_top" xlink:title="QtPass::init make sure we are ready to go as soon as possible.">
<polygon fill="white" stroke="#666666" points="275.5,-132 207.5,-132 207.5,-113 275.5,-113 275.5,-132"/>
<text text-anchor="middle" x="241.5" y="-120" font-family="Helvetica,sans-Serif" font-size="10.00">QtPass::init</text>
</a>
</g>
</g>
<!-- Node2&#45;&gt;Node4 -->
<g id="edge7" class="edge">
<title>Node2&#45;&gt;Node4</title>
<path fill="none" stroke="#63b8ff" d="M529.6,-75.3C481.76,-82.92 410.8,-94.3 349,-104.5 324.39,-108.56 296.61,-113.26 275.59,-116.84"/>
<polygon fill="#63b8ff" stroke="#63b8ff" points="530.42,-78.71 539.74,-73.68 529.31,-71.8 530.42,-78.71"/>
</g>
<!-- Node2&#45;&gt;Node6 -->
<g id="edge6" class="edge">
<title>Node2&#45;&gt;Node6</title>
<path fill="none" stroke="#63b8ff" d="M553.37,-52.97C534.1,-44.99 508.86,-35.02 486,-27.5 476.78,-24.47 466.74,-21.57 457.28,-19.02"/>
<polygon fill="#63b8ff" stroke="#63b8ff" points="552.28,-56.3 562.86,-56.93 554.98,-49.85 552.28,-56.3"/>
</g>
<!-- Node7 -->
<g id="node7" class="node">
<title>Node7</title>
<g id="a_node7"><a xlink:href="class_config_dialog.html#ad5b80066591f19fdaaa06b7cb5ba7f15" target="_top" xlink:title="ConfigDialog::wizard first&#45;time use wizard.">
<polygon fill="white" stroke="#666666" points="471,-56 364,-56 364,-37 471,-37 471,-56"/>
<text text-anchor="middle" x="417.5" y="-44" font-family="Helvetica,sans-Serif" font-size="10.00">ConfigDialog::wizard</text>
</a>
</g>
</g>
<!-- Node2&#45;&gt;Node7 -->
<g id="edge8" class="edge">
<title>Node2&#45;&gt;Node7</title>
<path fill="none" stroke="#63b8ff" d="M529.99,-59.89C511.09,-57.62 489.99,-55.09 471.27,-52.84"/>
<polygon fill="#63b8ff" stroke="#63b8ff" points="529.6,-63.37 539.94,-61.09 530.43,-56.42 529.6,-63.37"/>
</g>
<!-- Node3&#45;&gt;Node3 -->
<g id="edge3" class="edge">
<title>Node3&#45;&gt;Node3</title>
<path fill="none" stroke="#63b8ff" d="M448.94,-140.45C448.04,-145.82 437.56,-150 417.5,-150 387.64,-150 379.01,-140.73 391.61,-132.08"/>
<polygon fill="#63b8ff" stroke="#63b8ff" points="451.84,-138.49 443.39,-132.08 446,-142.35 451.84,-138.49"/>
</g>
<!-- Node3&#45;&gt;Node4 -->
<g id="edge4" class="edge">
<title>Node3&#45;&gt;Node4</title>
<path fill="none" stroke="#63b8ff" d="M355.17,-122.5C328.38,-122.5 298.03,-122.5 275.58,-122.5"/>
<polygon fill="#63b8ff" stroke="#63b8ff" points="355.24,-126 365.24,-122.5 355.24,-119 355.24,-126"/>
</g>
<!-- Node5 -->
<g id="node5" class="node">
<title>Node5</title>
<g id="a_node5"><a xlink:href="class_main_window.html#a52e97245b2f88492071e639395c4a15a" target="_top" xlink:title="MainWindow::MainWindow handles all of the main functionality and also the main window.">
<polygon fill="white" stroke="#666666" points="134,-197 0,-197 0,-178 134,-178 134,-197"/>
<text text-anchor="middle" x="67" y="-185" font-family="Helvetica,sans-Serif" font-size="10.00">MainWindow::MainWindow</text>
</a>
</g>
</g>
<!-- Node4&#45;&gt;Node5 -->
<g id="edge5" class="edge">
<title>Node4&#45;&gt;Node5</title>
<path fill="none" stroke="#63b8ff" d="M205.26,-135.78C171.97,-148.32 122.84,-166.84 93.28,-177.98"/>
<polygon fill="#63b8ff" stroke="#63b8ff" points="206.92,-138.89 215.05,-132.09 204.46,-132.34 206.92,-138.89"/>
</g>
<!-- Node8&#45;&gt;Node3 -->
<g id="edge13" class="edge">
<title>Node8&#45;&gt;Node3</title>
<path fill="none" stroke="#63b8ff" d="M569.6,-236.4C551.04,-216.42 518.31,-183.08 486,-159.5 471.21,-148.71 452.92,-138.87 439.11,-132.06"/>
<polygon fill="#63b8ff" stroke="#63b8ff" points="567.08,-238.84 576.42,-243.84 572.24,-234.11 567.08,-238.84"/>
</g>
<!-- Node8&#45;&gt;Node5 -->
<g id="edge15" class="edge">
<title>Node8&#45;&gt;Node5</title>
<path fill="none" stroke="#63b8ff" d="M511.66,-251.62C428.18,-248.36 288.08,-239.51 170,-215.5 145.71,-210.56 118.67,-203.04 98.54,-197.04"/>
<polygon fill="#63b8ff" stroke="#63b8ff" points="511.68,-255.12 521.81,-252 511.94,-248.13 511.68,-255.12"/>
</g>
<!-- Node9 -->
<g id="node9" class="node">
<title>Node9</title>
<g id="a_node9"><a xlink:href="class_users_dialog.html#a70580643923a96208b6bbae18d4aa0f3" target="_top" xlink:title="UsersDialog::accept.">
<polygon fill="white" stroke="#666666" points="470.5,-187 364.5,-187 364.5,-168 470.5,-168 470.5,-187"/>
<text text-anchor="middle" x="417.5" y="-175" font-family="Helvetica,sans-Serif" font-size="10.00">UsersDialog::accept</text>
</a>
</g>
</g>
<!-- Node8&#45;&gt;Node9 -->
<g id="edge11" class="edge">
<title>Node8&#45;&gt;Node9</title>
<path fill="none" stroke="#63b8ff" d="M559.59,-238.87C539.88,-227.84 511.68,-212.74 486,-201.5 473.81,-196.16 460.02,-191.09 448.09,-187"/>
<polygon fill="#63b8ff" stroke="#63b8ff" points="558.11,-242.06 568.54,-243.93 561.55,-235.96 558.11,-242.06"/>
</g>
<!-- Node10 -->
<g id="node10" class="node">
<title>Node10</title>
<g id="a_node10"><a xlink:href="class_users_dialog.html#a7a3d75a01a48609ce7571cec09b95f07" target="_top" xlink:title="UsersDialog::UsersDialog basic constructor.">
<polygon fill="white" stroke="#666666" points="307,-206 176,-206 176,-187 307,-187 307,-206"/>
<text text-anchor="middle" x="241.5" y="-194" font-family="Helvetica,sans-Serif" font-size="10.00">UsersDialog::UsersDialog</text>
</a>
</g>
</g>
<!-- Node8&#45;&gt;Node10 -->
<g id="edge20" class="edge">
<title>Node8&#45;&gt;Node10</title>
<path fill="none" stroke="#63b8ff" d="M517.74,-242.31C454.16,-231.73 359.79,-216.02 299.73,-206.02"/>
<polygon fill="#63b8ff" stroke="#63b8ff" points="517.23,-245.77 527.67,-243.96 518.38,-238.87 517.23,-245.77"/>
</g>
<!-- Node11 -->
<g id="node11" class="node">
<title>Node11</title>
<g id="a_node11"><a xlink:href="class_store_model.html#a17f8db58298e985732d92a2e0e76b821" target="_top" xlink:title="StoreModel::dropMimeData.">
<polygon fill="white" stroke="#666666" points="485.5,-435 349.5,-435 349.5,-416 485.5,-416 485.5,-435"/>
<text text-anchor="middle" x="417.5" y="-423" font-family="Helvetica,sans-Serif" font-size="10.00">StoreModel::dropMimeData</text>
</a>
</g>
</g>
<!-- Node8&#45;&gt;Node11 -->
<g id="edge14" class="edge">
<title>Node8&#45;&gt;Node11</title>
<path fill="none" stroke="#63b8ff" d="M577.84,-272.8C564.75,-305.39 533.81,-371.24 486,-406.5 480.71,-410.4 474.65,-413.5 468.37,-415.97"/>
<polygon fill="#63b8ff" stroke="#63b8ff" points="581.24,-273.7 581.6,-263.11 574.72,-271.17 581.24,-273.7"/>
</g>
<!-- Node12 -->
<g id="node12" class="node">
<title>Node12</title>
<g id="a_node12"><a xlink:href="class_main_window.html#adc7d4b2b210efab401f0b14641f80464" target="_top" xlink:title="MainWindow::on_treeView_clicked read the selected password file.">
<polygon fill="white" stroke="#666666" points="483.5,-397.5 351.5,-397.5 351.5,-367.5 483.5,-367.5 483.5,-397.5"/>
<text text-anchor="start" x="359.5" y="-385.5" font-family="Helvetica,sans-Serif" font-size="10.00">MainWindow::on_treeView</text>
<text text-anchor="middle" x="417.5" y="-374.5" font-family="Helvetica,sans-Serif" font-size="10.00">_clicked</text>
</a>
</g>
</g>
<!-- Node8&#45;&gt;Node12 -->
<g id="edge16" class="edge">
<title>Node8&#45;&gt;Node12</title>
<path fill="none" stroke="#63b8ff" d="M572.51,-271.27C555.42,-294.36 522.67,-334.57 486,-358.5 480.79,-361.9 475.04,-364.89 469.16,-367.49"/>
<polygon fill="#63b8ff" stroke="#63b8ff" points="575.43,-273.2 578.45,-263.05 569.76,-269.1 575.43,-273.2"/>
</g>
<!-- Node14 -->
<g id="node14" class="node">
<title>Node14</title>
<g id="a_node14"><a xlink:href="class_main_window.html#a6961588ebf3c0640200e0cfa920af3be" target="_top" xlink:title="MainWindow::onPush do a git push.">
<polygon fill="white" stroke="#666666" points="473,-349 362,-349 362,-330 473,-330 473,-349"/>
<text text-anchor="middle" x="417.5" y="-337" font-family="Helvetica,sans-Serif" font-size="10.00">MainWindow::onPush</text>
</a>
</g>
</g>
<!-- Node8&#45;&gt;Node14 -->
<g id="edge18" class="edge">
<title>Node8&#45;&gt;Node14</title>
<path fill="none" stroke="#63b8ff" d="M565.6,-269.42C546.42,-284.45 515.71,-306.71 486,-320.5 477.94,-324.24 468.99,-327.4 460.31,-329.99"/>
<polygon fill="#63b8ff" stroke="#63b8ff" points="567.92,-272.04 573.55,-263.07 563.55,-266.57 567.92,-272.04"/>
</g>
<!-- Node15 -->
<g id="node15" class="node">
<title>Node15</title>
<g id="a_node15"><a xlink:href="class_password_dialog.html#a859a78e62204698556204b9e20932010" target="_top" xlink:title="PasswordDialog::PasswordDialog basic constructor.">
<polygon fill="white" stroke="#666666" points="486,-311.5 349,-311.5 349,-281.5 486,-281.5 486,-311.5"/>
<text text-anchor="start" x="357" y="-299.5" font-family="Helvetica,sans-Serif" font-size="10.00">PasswordDialog::Password</text>
<text text-anchor="middle" x="417.5" y="-288.5" font-family="Helvetica,sans-Serif" font-size="10.00">Dialog</text>
</a>
</g>
</g>
<!-- Node8&#45;&gt;Node15 -->
<g id="edge19" class="edge">
<title>Node8&#45;&gt;Node15</title>
<path fill="none" stroke="#63b8ff" d="M538.35,-265.55C519.2,-270.49 496.81,-276.28 476.61,-281.49"/>
<polygon fill="#63b8ff" stroke="#63b8ff" points="539.24,-268.93 548.05,-263.04 537.49,-262.15 539.24,-268.93"/>
</g>
<!-- Node9&#45;&gt;Node10 -->
<g id="edge12" class="edge">
<title>Node9&#45;&gt;Node10</title>
<path fill="none" stroke="#63b8ff" d="M353.99,-184.33C338.82,-185.98 322.58,-187.76 307.3,-189.42"/>
<polygon fill="#63b8ff" stroke="#63b8ff" points="354.73,-187.77 364.29,-183.2 353.97,-180.81 354.73,-187.77"/>
</g>
<!-- Node13 -->
<g id="node13" class="node">
<title>Node13</title>
<g id="a_node13"><a xlink:href="class_main_window.html#a9c4f542263838b9ecd06eae839a42a34" target="_top" xlink:title="MainWindow::keyPressEvent did anyone press return, enter or escape?">
<polygon fill="white" stroke="#666666" points="313,-392 170,-392 170,-373 313,-373 313,-392"/>
<text text-anchor="middle" x="241.5" y="-380" font-family="Helvetica,sans-Serif" font-size="10.00">MainWindow::keyPressEvent</text>
</a>
</g>
</g>
<!-- Node12&#45;&gt;Node13 -->
<g id="edge17" class="edge">
<title>Node12&#45;&gt;Node13</title>
<path fill="none" stroke="#63b8ff" d="M341.19,-382.5C331.86,-382.5 322.36,-382.5 313.1,-382.5"/>
<polygon fill="#63b8ff" stroke="#63b8ff" points="341.21,-386 351.21,-382.5 341.21,-379 341.21,-386"/>
</g>
</g>
</svg>
        <g id="navigator" transform="translate(0 0)" fill="#404254">
                <rect fill="#f2f5e9" fill-opacity="0.5" stroke="#606060" stroke-width=".5" x="0" y="0" width="60" height="60"/>
                <use id="zoomplus" xlink:href="#zoomPlus" x="17" y="9" onmousedown="handleZoom(evt,'in')"/>
                <use id="zoomminus" xlink:href="#zoomMin" x="42" y="9" onmousedown="handleZoom(evt,'out')"/>
                <use id="reset" xlink:href="#resetDef" x="30" y="36" onmousedown="handleReset()"/>
                <g id="arrowUp" xlink:href="#dirArrow" transform="translate(30 24)" onmousedown="handlePan(0,-1)">
                  <use xlink:href="#rim" fill="#404040">
                        <set attributeName="fill" to="#808080" begin="arrowUp.mouseover" end="arrowUp.mouseout"/>
                  </use>
                  <path fill="none" stroke="white" stroke-width="1.5" d="M0,-3.0v7 M-2.5,-0.5L0,-3.0L2.5,-0.5"/>
                </g>
                <g id="arrowRight" xlink:href="#dirArrow" transform="rotate(90) translate(36 -43)" onmousedown="handlePan(1,0)">
                  <use xlink:href="#rim" fill="#404040">
                        <set attributeName="fill" to="#808080" begin="arrowRight.mouseover" end="arrowRight.mouseout"/>
                  </use>
                  <path fill="none" stroke="white" stroke-width="1.5" d="M0,-3.0v7 M-2.5,-0.5L0,-3.0L2.5,-0.5"/>
                </g>
                <g id="arrowDown" xlink:href="#dirArrow" transform="rotate(180) translate(-30 -48)" onmousedown="handlePan(0,1)">
                  <use xlink:href="#rim" fill="#404040">
                        <set attributeName="fill" to="#808080" begin="arrowDown.mouseover" end="arrowDown.mouseout"/>
                  </use>
                  <path fill="none" stroke="white" stroke-width="1.5" d="M0,-3.0v7 M-2.5,-0.5L0,-3.0L2.5,-0.5"/>
                </g>
                <g id="arrowLeft" xlink:href="#dirArrow" transform="rotate(270) translate(-36 17)" onmousedown="handlePan(-1,0)">
                  <use xlink:href="#rim" fill="#404040">
                        <set attributeName="fill" to="#808080" begin="arrowLeft.mouseover" end="arrowLeft.mouseout"/>
                  </use>
                  <path fill="none" stroke="white" stroke-width="1.5" d="M0,-3.0v7 M-2.5,-0.5L0,-3.0L2.5,-0.5"/>
                </g>
        </g>
        <svg viewBox="0 0 15 15" width="100%" height="30px" preserveAspectRatio="xMaxYMin meet">
         <g id="arrow_out" transform="scale(0.3 0.3)">
          <a xlink:href="class_qt_pass_settings_a30ef36260f73f9f18d338f2b18a1f493_icgraph_org.svg" target="_base">
           <rect id="button" ry="5" rx="5" y="6" x="6" height="38" width="38"
                fill="#f2f5e9" fill-opacity="0.5" stroke="#606060" stroke-width="1.0"/>
           <path id="arrow"
             d="M 11.500037,31.436501 C 11.940474,20.09759 22.043105,11.32322 32.158766,21.979434 L 37.068811,17.246167 C 37.068811,17.246167 37.088388,32 37.088388,32 L 22.160133,31.978069 C 22.160133,31.978069 26.997745,27.140456 26.997745,27.140456 C 18.528582,18.264221 13.291696,25.230495 11.500037,31.436501 z"
             style="fill:#404040;"/>
          </a>
         </g>
        </svg>
</svg>
