<?xml version="1.0" encoding="UTF-8" standalone="no"?>
<!DOCTYPE svg PUBLIC "-//W3C//DTD SVG 1.1//EN"
 "http://www.w3.org/Graphics/SVG/1.1/DTD/svg11.dtd">
<!-- Generated by graphviz version 2.40.1 (20161225.0304)
 -->
<!-- Title: MainWindow::getKeygenDialog Pages: 1 -->
<svg width="493pt" height="28pt"
 viewBox="0.00 0.00 493.00 28.00" xmlns="http://www.w3.org/2000/svg" xmlns:xlink="http://www.w3.org/1999/xlink">
<g id="graph0" class="graph" transform="scale(1 1) rotate(0) translate(4 24)">
<title>MainWindow::getKeygenDialog</title>
<!-- Node213 -->
<g id="node1" class="node">
<title>Node213</title>
<polygon fill="#bfbfbf" stroke="#000000" points="0,-.5 0,-19.5 153,-19.5 153,-.5 0,-.5"/>
<text text-anchor="middle" x="76.5" y="-7.5" font-family="Helvetica,sans-Serif" font-size="10.00" fill="#000000">MainWindow::getKeygenDialog</text>
</g>
<!-- Node214 -->
<g id="node2" class="node">
<title>Node214</title>
<g id="a_node2"><a xlink:href="class_qt_pass.html#abd1d1e8d6b80b8307a305d80a6c34371" target="_top" xlink:title="QtPass::setMainWindow">
<polygon fill="none" stroke="#000000" points="189,-.5 189,-19.5 314,-19.5 314,-.5 189,-.5"/>
<text text-anchor="middle" x="251.5" y="-7.5" font-family="Helvetica,sans-Serif" font-size="10.00" fill="#000000">QtPass::setMainWindow</text>
</a>
</g>
</g>
<!-- Node213&#45;&gt;Node214 -->
<g id="edge1" class="edge">
<title>Node213&#45;&gt;Node214</title>
<path fill="none" stroke="#191970" d="M163.1369,-10C171.7913,-10 180.4569,-10 188.795,-10"/>
<polygon fill="#191970" stroke="#191970" points="163.003,-6.5001 153.003,-10 163.0029,-13.5001 163.003,-6.5001"/>
</g>
<!-- Node215 -->
<g id="node3" class="node">
<title>Node215</title>
<g id="a_node3"><a xlink:href="class_main_window.html#a52e97245b2f88492071e639395c4a15a" target="_top" xlink:title="MainWindow::MainWindow handles all of the main functionality and also the main window. ">
<polygon fill="none" stroke="#000000" points="350,-.5 350,-19.5 485,-19.5 485,-.5 350,-.5"/>
<text text-anchor="middle" x="417.5" y="-7.5" font-family="Helvetica,sans-Serif" font-size="10.00" fill="#000000">MainWindow::MainWindow</text>
</a>
</g>
</g>
<!-- Node214&#45;&gt;Node215 -->
<g id="edge2" class="edge">
<title>Node214&#45;&gt;Node215</title>
<path fill="none" stroke="#191970" d="M324.4873,-10C332.951,-10 341.5556,-10 349.9422,-10"/>
<polygon fill="#191970" stroke="#191970" points="324.2575,-6.5001 314.2575,-10 324.2574,-13.5001 324.2575,-6.5001"/>
</g>
</g>
</svg>
