<?xml version="1.0" encoding="UTF-8" standalone="no"?>
<!DOCTYPE svg PUBLIC "-//W3C//DTD SVG 1.1//EN"
 "http://www.w3.org/Graphics/SVG/1.1/DTD/svg11.dtd">
<!-- Generated by graphviz version 2.40.1 (20161225.0304)
 -->
<!-- Title: MainWindow::userDialog Pages: 1 -->
<svg width="599pt" height="28pt"
 viewBox="0.00 0.00 599.00 28.00" xmlns="http://www.w3.org/2000/svg" xmlns:xlink="http://www.w3.org/1999/xlink">
<g id="graph0" class="graph" transform="scale(1 1) rotate(0) translate(4 24)">
<title>MainWindow::userDialog</title>
<!-- Node401 -->
<g id="node1" class="node">
<title>Node401</title>
<polygon fill="#bfbfbf" stroke="#000000" points="0,-.5 0,-19.5 125,-19.5 125,-.5 0,-.5"/>
<text text-anchor="middle" x="62.5" y="-7.5" font-family="Helvetica,sans-Serif" font-size="10.00" fill="#000000">MainWindow::userDialog</text>
</g>
<!-- Node402 -->
<g id="node2" class="node">
<title>Node402</title>
<g id="a_node2"><a xlink:href="class_util.html#a5c6a579524d37c6830feb672595f2a1d" target="_top" xlink:title="Util::getDir get selectd folder path. ">
<polygon fill="none" stroke="#000000" points="161,-.5 161,-19.5 225,-19.5 225,-.5 161,-.5"/>
<text text-anchor="middle" x="193" y="-7.5" font-family="Helvetica,sans-Serif" font-size="10.00" fill="#000000">Util::getDir</text>
</a>
</g>
</g>
<!-- Node401&#45;&gt;Node402 -->
<g id="edge1" class="edge">
<title>Node401&#45;&gt;Node402</title>
<path fill="none" stroke="#191970" d="M125.0744,-10C133.8133,-10 142.6163,-10 150.855,-10"/>
<polygon fill="#191970" stroke="#191970" points="150.9417,-13.5001 160.9416,-10 150.9416,-6.5001 150.9417,-13.5001"/>
</g>
<!-- Node403 -->
<g id="node3" class="node">
<title>Node403</title>
<g id="a_node3"><a xlink:href="class_qt_pass_settings.html#abb8c53443d71181a3ecd6545464453e6" target="_top" xlink:title="QtPassSettings::getPassStore">
<polygon fill="none" stroke="#000000" points="261,-.5 261,-19.5 412,-19.5 412,-.5 261,-.5"/>
<text text-anchor="middle" x="336.5" y="-7.5" font-family="Helvetica,sans-Serif" font-size="10.00" fill="#000000">QtPassSettings::getPassStore</text>
</a>
</g>
</g>
<!-- Node402&#45;&gt;Node403 -->
<g id="edge2" class="edge">
<title>Node402&#45;&gt;Node403</title>
<path fill="none" stroke="#191970" d="M225.2042,-10C232.9492,-10 241.5882,-10 250.5344,-10"/>
<polygon fill="#191970" stroke="#191970" points="250.7342,-13.5001 260.7342,-10 250.7341,-6.5001 250.7342,-13.5001"/>
</g>
<!-- Node404 -->
<g id="node4" class="node">
<title>Node404</title>
<g id="a_node4"><a xlink:href="class_qt_pass_settings.html#ab83659fdbfb9069942e6982076b4b934" target="_top" xlink:title="QtPassSettings::getInstance">
<polygon fill="none" stroke="#000000" points="448,-.5 448,-19.5 591,-19.5 591,-.5 448,-.5"/>
<text text-anchor="middle" x="519.5" y="-7.5" font-family="Helvetica,sans-Serif" font-size="10.00" fill="#000000">QtPassSettings::getInstance</text>
</a>
</g>
</g>
<!-- Node403&#45;&gt;Node404 -->
<g id="edge3" class="edge">
<title>Node403&#45;&gt;Node404</title>
<path fill="none" stroke="#191970" d="M412.2541,-10C420.6428,-10 429.2135,-10 437.6727,-10"/>
<polygon fill="#191970" stroke="#191970" points="437.9161,-13.5001 447.9161,-10 437.9161,-6.5001 437.9161,-13.5001"/>
</g>
</g>
</svg>
