<?xml version="1.0" encoding="UTF-8" standalone="no"?>
<!DOCTYPE svg PUBLIC "-//W3C//DTD SVG 1.1//EN"
 "http://www.w3.org/Graphics/SVG/1.1/DTD/svg11.dtd">
<!-- Generated by graphviz version 2.43.0 (0)
 -->
<!-- Title: Executor::executeBlocking Pages: 1 -->
<!--zoomable 615 -->

<svg id="main" version="1.1" xmlns="http://www.w3.org/2000/svg" xmlns:xlink="http://www.w3.org/1999/xlink" xml:space="preserve" onload="init(evt)">

<style type="text/css"><![CDATA[
.node, .edge {opacity: 0.7;}
.node.selected, .edge.selected {opacity: 1;}
.edge:hover path { stroke: red; }
.edge:hover polygon { stroke: red; fill: red; }
]]></style>

<defs>
  <circle id="rim" cx="0" cy="0" r="7"/>
  <circle id="rim2" cx="0" cy="0" r="3.5"/>
  <g id="zoomPlus">
    <use xlink:href="#rim" fill="#404040"><set attributeName="fill" to="#808080" begin="zoomplus.mouseover" end="zoomplus.mouseout"/></use>
    <path d="M-4,0h8M0,-4v8" fill="none" stroke="white" stroke-width="1.5" pointer-events="none"/>
  </g>
  <g id="zoomMin">
    <use xlink:href="#rim" fill="#404040"><set attributeName="fill" to="#808080" begin="zoomminus.mouseover" end="zoomminus.mouseout"/></use>
    <path d="M-4,0h8" fill="none" stroke="white" stroke-width="1.5" pointer-events="none"/>
  </g>
  <g id="arrowUp" transform="translate(30 24)">
    <use xlink:href="#rim"/>
    <path pointer-events="none" fill="none" stroke="white" stroke-width="1.5" d="M0,-3.0v7 M-2.5,-0.5L0,-3.0L2.5,-0.5"/>
  </g>
  <g id="arrowRight" transform="rotate(90) translate(36 -43)">
    <use xlink:href="#rim"/>
    <path pointer-events="none" fill="none" stroke="white" stroke-width="1.5" d="M0,-3.0v7 M-2.5,-0.5L0,-3.0L2.5,-0.5"/>
  </g>
  <g id="arrowDown" transform="rotate(180) translate(-30 -48)">
    <use xlink:href="#rim"/>
    <path pointer-events="none" fill="none" stroke="white" stroke-width="1.5" d="M0,-3.0v7 M-2.5,-0.5L0,-3.0L2.5,-0.5"/>
  </g>
  <g id="arrowLeft" transform="rotate(270) translate(-36 17)">
    <use xlink:href="#rim"/>
    <path pointer-events="none" fill="none" stroke="white" stroke-width="1.5" d="M0,-3.0v7 M-2.5,-0.5L0,-3.0L2.5,-0.5"/>
  </g>
  <g id="resetDef">
    <use xlink:href="#rim2" fill="#404040"><set attributeName="fill" to="#808080" begin="reset.mouseover" end="reset.mouseout"/></use>
  </g>
</defs>
<script type="application/ecmascript">
var viewWidth = 911;
var viewHeight = 615;
var sectionId = 'dynsection-8';
</script>
<script type="application/ecmascript" xlink:href="svg.min.js"/>
<svg id="graph" class="graph">
<g id="viewport">
<title>Executor::executeBlocking</title>
<!-- Node1 -->
<g id="Node000001" class="node">
<title>Node1</title>
<g id="a_Node000001"><a xlink:title="Executor::executeBlocking blocking version of the executor, takes input and presents it as stdin.">
<polygon fill="#999999" stroke="#666666" points="903,-278 758,-278 758,-259 903,-259 903,-278"/>
<text text-anchor="middle" x="830.5" y="-266" font-family="Helvetica,sans-Serif" font-size="10.00">Executor::executeBlocking</text>
</a>
</g>
</g>
<!-- Node2 -->
<g id="Node000002" class="node">
<title>Node2</title>
<g id="a_Node000002"><a xlink:href="class_imitate_pass.html#a607cc25575bf718f57333bb7854870b4" target="_top" xlink:title="Check if signing keys are valid.">
<polygon fill="white" stroke="#666666" points="307,-557 140,-557 140,-538 307,-538 307,-557"/>
<text text-anchor="middle" x="223.5" y="-545" font-family="Helvetica,sans-Serif" font-size="10.00">ImitatePass::checkSigningKeys</text>
</a>
</g>
</g>
<!-- Node1&#45;&gt;Node2 -->
<g id="edge1_Node000001_Node000002" class="edge">
<title>Node1&#45;&gt;Node2</title>
<g id="a_edge1_Node000001_Node000002"><a xlink:title=" ">
<path fill="none" stroke="#63b8ff" d="M828.35,-288.19C824.21,-339.68 805.43,-478.9 722,-544.5 577.71,-657.94 330.17,-585.12 250.21,-557.1"/>
<polygon fill="#63b8ff" stroke="#63b8ff" points="831.85,-288.3 829.06,-278.08 824.87,-287.81 831.85,-288.3"/>
</a>
</g>
</g>
<!-- Node4 -->
<g id="Node000004" class="node">
<title>Node4</title>
<g id="a_Node000004"><a xlink:href="class_util.html#afe6db9149dff37feded5abf38870cda8" target="_top" xlink:title="Verify that the required configuration is complete.">
<polygon fill="white" stroke="#666666" points="686,-278 585,-278 585,-259 686,-259 686,-278"/>
<text text-anchor="middle" x="635.5" y="-266" font-family="Helvetica,sans-Serif" font-size="10.00">Util::configIsValid</text>
</a>
</g>
</g>
<!-- Node1&#45;&gt;Node4 -->
<g id="edge3_Node000001_Node000004" class="edge">
<title>Node1&#45;&gt;Node4</title>
<g id="a_edge3_Node000001_Node000004"><a xlink:title=" ">
<path fill="none" stroke="#63b8ff" d="M747.7,-268.5C726.72,-268.5 704.8,-268.5 686.01,-268.5"/>
<polygon fill="#63b8ff" stroke="#63b8ff" points="747.91,-272 757.91,-268.5 747.91,-265 747.91,-272"/>
</a>
</g>
</g>
<!-- Node9 -->
<g id="Node000009" class="node">
<title>Node9</title>
<g id="a_Node000009"><a xlink:href="class_imitate_pass.html#a086365ec85674590afbd883df0b27a80" target="_top" xlink:title="Create git backup commit before re&#45;encryption.">
<polygon fill="white" stroke="#666666" points="501,-563.5 355,-563.5 355,-533.5 501,-533.5 501,-563.5"/>
<text text-anchor="start" x="363" y="-551.5" font-family="Helvetica,sans-Serif" font-size="10.00">ImitatePass::createBackup</text>
<text text-anchor="middle" x="428" y="-540.5" font-family="Helvetica,sans-Serif" font-size="10.00">Commit</text>
</a>
</g>
</g>
<!-- Node1&#45;&gt;Node9 -->
<g id="edge10_Node000001_Node000009" class="edge">
<title>Node1&#45;&gt;Node9</title>
<g id="a_edge10_Node000001_Node000009"><a xlink:title=" ">
<path fill="none" stroke="#63b8ff" d="M826.93,-288.14C819.77,-334.42 795.03,-450.52 722,-505.5 658.64,-553.2 565.26,-559.03 501.04,-556.13"/>
<polygon fill="#63b8ff" stroke="#63b8ff" points="830.41,-288.59 828.37,-278.19 823.48,-287.59 830.41,-288.59"/>
</a>
</g>
</g>
<!-- Node12 -->
<g id="Node000012" class="node">
<title>Node12</title>
<g id="a_Node000012"><a xlink:href="class_executor.html#a9c01e6e31745874177b21982ce2cd4d1" target="_top" xlink:title="Executor::executeBlocking blocking version of the executor.">
<polygon fill="white" stroke="#666666" points="708,-204 563,-204 563,-185 708,-185 708,-204"/>
<text text-anchor="middle" x="635.5" y="-192" font-family="Helvetica,sans-Serif" font-size="10.00">Executor::executeBlocking</text>
</a>
</g>
</g>
<!-- Node1&#45;&gt;Node12 -->
<g id="edge14_Node000001_Node000012" class="edge">
<title>Node1&#45;&gt;Node12</title>
<g id="a_edge14_Node000001_Node000012"><a xlink:title=" ">
<path fill="none" stroke="#63b8ff" d="M805.35,-253.89C784.07,-241.57 751.89,-224.27 722,-213.5 711.7,-209.79 700.43,-206.66 689.55,-204.09"/>
<polygon fill="#63b8ff" stroke="#63b8ff" points="803.65,-256.94 814.04,-258.99 807.19,-250.91 803.65,-256.94"/>
</a>
</g>
</g>
<!-- Node13 -->
<g id="Node000013" class="node">
<title>Node13</title>
<g id="a_Node000013"><a xlink:href="class_util.html#aee9122a528c60168a0c105bfbed062d5" target="_top" xlink:title="Locate an executable by searching the process PATH and (on Windows) falling back to WSL.">
<polygon fill="white" stroke="#666666" points="695,-241 576,-241 576,-222 695,-222 695,-241"/>
<text text-anchor="middle" x="635.5" y="-229" font-family="Helvetica,sans-Serif" font-size="10.00">Util::findBinaryInPath</text>
</a>
</g>
</g>
<!-- Node1&#45;&gt;Node13 -->
<g id="edge15_Node000001_Node000013" class="edge">
<title>Node1&#45;&gt;Node13</title>
<g id="a_edge15_Node000001_Node000013"><a xlink:title=" ">
<path fill="none" stroke="#63b8ff" d="M769.78,-257.05C743.03,-251.92 711.85,-245.94 686.37,-241.06"/>
<polygon fill="#63b8ff" stroke="#63b8ff" points="769.32,-260.53 779.8,-258.97 770.64,-253.65 769.32,-260.53"/>
</a>
</g>
</g>
<!-- Node15 -->
<g id="Node000015" class="node">
<title>Node15</title>
<g id="a_Node000015"><a xlink:href="class_pass.html#a0c29f7bd4ca235d00d9dac6a37e14f4f" target="_top" xlink:title="Generate GPG keys using batch script.">
<polygon fill="white" stroke="#666666" points="702.5,-167 568.5,-167 568.5,-148 702.5,-148 702.5,-167"/>
<text text-anchor="middle" x="635.5" y="-155" font-family="Helvetica,sans-Serif" font-size="10.00">Pass::GenerateGPGKeys</text>
</a>
</g>
</g>
<!-- Node1&#45;&gt;Node15 -->
<g id="edge18_Node000001_Node000015" class="edge">
<title>Node1&#45;&gt;Node15</title>
<g id="a_edge18_Node000001_Node000015"><a xlink:title=" ">
<path fill="none" stroke="#63b8ff" d="M814.63,-251.44C795.39,-230.48 759.83,-195.4 722,-176.5 714.25,-172.63 705.71,-169.54 697.12,-167.07"/>
<polygon fill="#63b8ff" stroke="#63b8ff" points="812.11,-253.87 821.4,-258.96 817.32,-249.19 812.11,-253.87"/>
</a>
</g>
</g>
<!-- Node16 -->
<g id="Node000016" class="node">
<title>Node16</title>
<g id="a_Node000016"><a xlink:href="class_pass.html#a35b3cba623a22f41173670ec34ebb67c" target="_top" xlink:title="Generate random password.">
<polygon fill="white" stroke="#666666" points="702.5,-130 568.5,-130 568.5,-111 702.5,-111 702.5,-130"/>
<text text-anchor="middle" x="635.5" y="-118" font-family="Helvetica,sans-Serif" font-size="10.00">Pass::generatePassword</text>
</a>
</g>
</g>
<!-- Node1&#45;&gt;Node16 -->
<g id="edge19_Node000001_Node000016" class="edge">
<title>Node1&#45;&gt;Node16</title>
<g id="a_edge19_Node000001_Node000016"><a xlink:title=" ">
<path fill="none" stroke="#63b8ff" d="M819.48,-249.96C803.06,-221.48 767.65,-167.32 722,-139.5 715.64,-135.62 708.58,-132.53 701.32,-130.07"/>
<polygon fill="#63b8ff" stroke="#63b8ff" points="816.53,-251.87 824.48,-258.88 822.64,-248.45 816.53,-251.87"/>
</a>
</g>
</g>
<!-- Node17 -->
<g id="Node000017" class="node">
<title>Node17</title>
<g id="a_Node000017"><a xlink:href="class_imitate_pass.html#aef532636a761beee3ecdd5dcedbfc834" target="_top" xlink:title="Read recipients from file.">
<polygon fill="white" stroke="#666666" points="508.5,-515 347.5,-515 347.5,-496 508.5,-496 508.5,-515"/>
<text text-anchor="middle" x="428" y="-503" font-family="Helvetica,sans-Serif" font-size="10.00">ImitatePass::getKeysFromFile</text>
</a>
</g>
</g>
<!-- Node1&#45;&gt;Node17 -->
<g id="edge20_Node000001_Node000017" class="edge">
<title>Node1&#45;&gt;Node17</title>
<g id="a_edge20_Node000001_Node000017"><a xlink:title=" ">
<path fill="none" stroke="#63b8ff" d="M825.33,-287.93C815.42,-328.98 786.3,-424.36 722,-468.5 659.65,-511.3 571.88,-517.06 508.68,-514.26"/>
<polygon fill="#63b8ff" stroke="#63b8ff" points="828.77,-288.62 827.59,-278.09 821.94,-287.06 828.77,-288.62"/>
</a>
</g>
</g>
<!-- Node18 -->
<g id="Node000018" class="node">
<title>Node18</title>
<g id="a_Node000018"><a xlink:href="class_imitate_pass.html#a5713b5c223fd522d0790debaa33cfbc2" target="_top" xlink:title="Pull with rebase.">
<polygon fill="white" stroke="#666666" points="697,-459 574,-459 574,-440 697,-440 697,-459"/>
<text text-anchor="middle" x="635.5" y="-447" font-family="Helvetica,sans-Serif" font-size="10.00">ImitatePass::GitPull_b</text>
</a>
</g>
</g>
<!-- Node1&#45;&gt;Node18 -->
<g id="edge22_Node000001_Node000018" class="edge">
<title>Node1&#45;&gt;Node18</title>
<g id="a_edge22_Node000001_Node000018"><a xlink:title=" ">
<path fill="none" stroke="#63b8ff" d="M821.52,-287.69C806.81,-320.7 772.27,-388.16 722,-424.5 712.6,-431.3 701.37,-436.25 690.19,-439.87"/>
<polygon fill="#63b8ff" stroke="#63b8ff" points="824.84,-288.84 825.59,-278.27 818.41,-286.06 824.84,-288.84"/>
</a>
</g>
</g>
<!-- Node19 -->
<g id="Node000019" class="node">
<title>Node19</title>
<g id="a_Node000019"><a xlink:href="class_real_pass.html#a6a959408a305cc8dd7cc6c7bd9c17210" target="_top" xlink:title="Pull with rebase.">
<polygon fill="white" stroke="#666666" points="690.5,-93 580.5,-93 580.5,-74 690.5,-74 690.5,-93"/>
<text text-anchor="middle" x="635.5" y="-81" font-family="Helvetica,sans-Serif" font-size="10.00">RealPass::GitPull_b</text>
</a>
</g>
</g>
<!-- Node1&#45;&gt;Node19 -->
<g id="edge24_Node000001_Node000019" class="edge">
<title>Node1&#45;&gt;Node19</title>
<g id="a_edge24_Node000001_Node000019"><a xlink:title=" ">
<path fill="none" stroke="#63b8ff" d="M822.69,-249.19C809.26,-214.08 775.91,-139.97 722,-102.5 712.76,-96.08 701.72,-91.78 690.69,-88.92"/>
<polygon fill="#63b8ff" stroke="#63b8ff" points="819.47,-250.58 826.22,-258.75 826.04,-248.15 819.47,-250.58"/>
</a>
</g>
</g>
<!-- Node20 -->
<g id="Node000020" class="node">
<title>Node20</title>
<g id="a_Node000020"><a xlink:href="class_pass.html#a4c2bca8a9a59a032adc68846055b056b" target="_top" xlink:title="Check if GPG supports Ed25519 encryption.">
<polygon fill="white" stroke="#666666" points="709,-56 562,-56 562,-37 709,-37 709,-56"/>
<text text-anchor="middle" x="635.5" y="-44" font-family="Helvetica,sans-Serif" font-size="10.00">Pass::gpgSupportsEd25519</text>
</a>
</g>
</g>
<!-- Node1&#45;&gt;Node20 -->
<g id="edge25_Node000001_Node000020" class="edge">
<title>Node1&#45;&gt;Node20</title>
<g id="a_edge25_Node000001_Node000020"><a xlink:title=" ">
<path fill="none" stroke="#63b8ff" d="M824.95,-248.68C814.44,-207.61 784.47,-113.11 722,-65.5 716.92,-61.63 711.21,-58.52 705.2,-56.02"/>
<polygon fill="#63b8ff" stroke="#63b8ff" points="821.59,-249.66 827.36,-258.55 828.39,-248 821.59,-249.66"/>
</a>
</g>
</g>
<!-- Node23 -->
<g id="Node000023" class="node">
<title>Node23</title>
<g id="a_Node000023"><a xlink:href="class_pass.html#a6ed6c10b07137f62e127b290ebd428a2" target="_top" xlink:title="List GPG keys matching patterns.">
<polygon fill="white" stroke="#666666" points="677,-19 594,-19 594,0 677,0 677,-19"/>
<text text-anchor="middle" x="635.5" y="-7" font-family="Helvetica,sans-Serif" font-size="10.00">Pass::listKeys</text>
</a>
</g>
</g>
<!-- Node1&#45;&gt;Node23 -->
<g id="edge29_Node000001_Node000023" class="edge">
<title>Node1&#45;&gt;Node23</title>
<g id="a_edge29_Node000001_Node000023"><a xlink:title=" ">
<path fill="none" stroke="#63b8ff" d="M826.74,-248.97C819.16,-202.88 793.58,-86.88 722,-28.5 709.51,-18.31 692.7,-13.3 677.3,-10.93"/>
<polygon fill="#63b8ff" stroke="#63b8ff" points="823.29,-249.52 828.27,-258.87 830.21,-248.45 823.29,-249.52"/>
</a>
</g>
</g>
<!-- Node25 -->
<g id="Node000025" class="node">
<title>Node25</title>
<g id="a_Node000025"><a xlink:href="class_imitate_pass.html#a662922741c9302e7ff58690a2f35808c" target="_top" xlink:title="Re&#45;encrypt single file with new recipients.">
<polygon fill="white" stroke="#666666" points="722,-415 549,-415 549,-396 722,-396 722,-415"/>
<text text-anchor="middle" x="635.5" y="-403" font-family="Helvetica,sans-Serif" font-size="10.00">ImitatePass::reencryptSingleFile</text>
</a>
</g>
</g>
<!-- Node1&#45;&gt;Node25 -->
<g id="edge31_Node000001_Node000025" class="edge">
<title>Node1&#45;&gt;Node25</title>
<g id="a_edge31_Node000001_Node000025"><a xlink:title=" ">
<path fill="none" stroke="#63b8ff" d="M813.3,-285.35C793.2,-305.62 757.26,-339.88 722,-363.5 702.35,-376.66 677.98,-388.22 660.28,-395.87"/>
<polygon fill="#63b8ff" stroke="#63b8ff" points="815.93,-287.66 820.43,-278.07 810.93,-282.76 815.93,-287.66"/>
</a>
</g>
</g>
<!-- Node26 -->
<g id="Node000026" class="node">
<title>Node26</title>
<g id="a_Node000026"><a xlink:href="class_imitate_pass.html#aa6163e2dd259c8f69d0cead7551b573a" target="_top" xlink:title="Sign .gpg&#45;id file with signing keys.">
<polygon fill="white" stroke="#666666" points="501,-316 355,-316 355,-297 501,-297 501,-316"/>
<text text-anchor="middle" x="428" y="-304" font-family="Helvetica,sans-Serif" font-size="10.00">ImitatePass::signGpgIdFile</text>
</a>
</g>
</g>
<!-- Node1&#45;&gt;Node26 -->
<g id="edge33_Node000001_Node000026" class="edge">
<title>Node1&#45;&gt;Node26</title>
<g id="a_edge33_Node000001_Node000026"><a xlink:title=" ">
<path fill="none" stroke="#63b8ff" d="M772.42,-279.79C756.18,-282.68 738.44,-285.52 722,-287.5 646.97,-296.54 560.58,-301.48 501.15,-304.04"/>
<polygon fill="#63b8ff" stroke="#63b8ff" points="773.09,-283.23 782.31,-278 771.84,-276.34 773.09,-283.23"/>
</a>
</g>
</g>
<!-- Node27 -->
<g id="Node000027" class="node">
<title>Node27</title>
<g id="a_Node000027"><a xlink:href="class_imitate_pass.html#a6ecaa7d53d661362511354e96572c240" target="_top" xlink:title="Verify .gpg&#45;id file exists and is valid.">
<polygon fill="white" stroke="#666666" points="712,-354 559,-354 559,-335 712,-335 712,-354"/>
<text text-anchor="middle" x="635.5" y="-342" font-family="Helvetica,sans-Serif" font-size="10.00">ImitatePass::verifyGpgIdFile</text>
</a>
</g>
</g>
<!-- Node1&#45;&gt;Node27 -->
<g id="edge35_Node000001_Node000027" class="edge">
<title>Node1&#45;&gt;Node27</title>
<g id="a_edge35_Node000001_Node000027"><a xlink:title=" ">
<path fill="none" stroke="#63b8ff" d="M802.94,-282.98C781.53,-294.26 750.41,-309.74 722,-320.5 707.29,-326.07 690.73,-331.01 676.13,-334.94"/>
<polygon fill="#63b8ff" stroke="#63b8ff" points="804.86,-285.92 812.04,-278.13 801.57,-279.74 804.86,-285.92"/>
</a>
</g>
</g>
<!-- Node3 -->
<g id="Node000003" class="node">
<title>Node3</title>
<g id="a_Node000003"><a xlink:href="class_imitate_pass.html#a6fe6b48df3fb04071c8c2c1d5c1d1206" target="_top" xlink:title="Initialize store.">
<polygon fill="white" stroke="#666666" points="99.5,-495 4.5,-495 4.5,-476 99.5,-476 99.5,-495"/>
<text text-anchor="middle" x="52" y="-483" font-family="Helvetica,sans-Serif" font-size="10.00">ImitatePass::Init</text>
</a>
</g>
</g>
<!-- Node2&#45;&gt;Node3 -->
<g id="edge2_Node000002_Node000003" class="edge">
<title>Node2&#45;&gt;Node3</title>
<g id="a_edge2_Node000002_Node000003"><a xlink:title=" ">
<path fill="none" stroke="#63b8ff" d="M186.89,-534.48C154.69,-522.7 108.02,-505.63 79.14,-495.06"/>
<polygon fill="#63b8ff" stroke="#63b8ff" points="185.79,-537.8 196.39,-537.95 188.2,-531.23 185.79,-537.8"/>
</a>
</g>
</g>
<!-- Node5 -->
<g id="Node000005" class="node">
<title>Node5</title>
<g id="a_Node000005"><a xlink:href="class_main_window.html#aeb8091ab5531144b76c1fbb0d63deb56" target="_top" xlink:title=" ">
<polygon fill="white" stroke="#666666" points="485,-185 371,-185 371,-166 485,-166 485,-185"/>
<text text-anchor="middle" x="428" y="-173" font-family="Helvetica,sans-Serif" font-size="10.00">MainWindow::config</text>
</a>
</g>
</g>
<!-- Node4&#45;&gt;Node5 -->
<g id="edge4_Node000004_Node000005" class="edge">
<title>Node4&#45;&gt;Node5</title>
<g id="a_edge4_Node000004_Node000005"><a xlink:title=" ">
<path fill="none" stroke="#63b8ff" d="M574.96,-260.84C565.93,-258.32 556.97,-254.96 549,-250.5 528.7,-239.14 532.02,-225.9 513,-212.5 496.19,-200.66 475,-191.36 458.1,-185.04"/>
<polygon fill="#63b8ff" stroke="#63b8ff" points="574.19,-264.26 584.74,-263.27 575.88,-257.47 574.19,-264.26"/>
</a>
</g>
</g>
<!-- Node6 -->
<g id="Node000006" class="node">
<title>Node6</title>
<g id="a_Node000006"><a xlink:href="class_config_dialog.html#a815d6d8ddf1de9386427ddef691a02a1" target="_top" xlink:title="ConfigDialog::ConfigDialog this sets up the configuration screen.">
<polygon fill="white" stroke="#666666" points="501.5,-130 354.5,-130 354.5,-111 501.5,-111 501.5,-130"/>
<text text-anchor="middle" x="428" y="-118" font-family="Helvetica,sans-Serif" font-size="10.00">ConfigDialog::ConfigDialog</text>
</a>
</g>
</g>
<!-- Node4&#45;&gt;Node6 -->
<g id="edge6_Node000004_Node000006" class="edge">
<title>Node4&#45;&gt;Node6</title>
<g id="a_edge6_Node000004_Node000006"><a xlink:title=" ">
<path fill="none" stroke="#63b8ff" d="M574.77,-263.9C565.39,-261.03 556.38,-256.77 549,-250.5 515.23,-221.8 543.62,-189.55 513,-157.5 500.56,-144.48 482.74,-135.75 466.7,-130.05"/>
<polygon fill="#63b8ff" stroke="#63b8ff" points="574.06,-267.33 584.61,-266.41 575.79,-260.55 574.06,-267.33"/>
</a>
</g>
</g>
<!-- Node7 -->
<g id="Node000007" class="node">
<title>Node7</title>
<g id="a_Node000007"><a xlink:href="class_qt_pass.html#ad0a4d7627e6303e412d4a832a8bad77c" target="_top" xlink:title="QtPass::init make sure we are ready to go as soon as possible.">
<polygon fill="white" stroke="#666666" points="259,-195 188,-195 188,-176 259,-176 259,-195"/>
<text text-anchor="middle" x="223.5" y="-183" font-family="Helvetica,sans-Serif" font-size="10.00">QtPass::init</text>
</a>
</g>
</g>
<!-- Node4&#45;&gt;Node7 -->
<g id="edge8_Node000004_Node000007" class="edge">
<title>Node4&#45;&gt;Node7</title>
<g id="a_edge8_Node000004_Node000007"><a xlink:title=" ">
<path fill="none" stroke="#63b8ff" d="M574.89,-271.96C515.07,-273.74 420.86,-271.9 343,-249.5 301.65,-237.6 258.53,-209.75 237.54,-195.02"/>
<polygon fill="#63b8ff" stroke="#63b8ff" points="575.05,-275.46 584.92,-271.62 574.81,-268.46 575.05,-275.46"/>
</a>
</g>
</g>
<!-- Node8 -->
<g id="Node000008" class="node">
<title>Node8</title>
<g id="a_Node000008"><a xlink:href="class_config_dialog.html#ad5b80066591f19fdaaa06b7cb5ba7f15" target="_top" xlink:title="ConfigDialog::wizard first&#45;time use wizard.">
<polygon fill="white" stroke="#666666" points="486.5,-240 369.5,-240 369.5,-221 486.5,-221 486.5,-240"/>
<text text-anchor="middle" x="428" y="-228" font-family="Helvetica,sans-Serif" font-size="10.00">ConfigDialog::wizard</text>
</a>
</g>
</g>
<!-- Node4&#45;&gt;Node8 -->
<g id="edge9_Node000004_Node000008" class="edge">
<title>Node4&#45;&gt;Node8</title>
<g id="a_edge9_Node000004_Node000008"><a xlink:title=" ">
<path fill="none" stroke="#63b8ff" d="M574.86,-257.47C544.96,-251.94 509.11,-245.31 480.43,-240.01"/>
<polygon fill="#63b8ff" stroke="#63b8ff" points="574.28,-260.92 584.75,-259.3 575.56,-254.04 574.28,-260.92"/>
</a>
</g>
</g>
<!-- Node5&#45;&gt;Node5 -->
<g id="edge5_Node000005_Node000005" class="edge">
<title>Node5&#45;&gt;Node5</title>
<g id="a_edge5_Node000005_Node000005"><a xlink:title=" ">
<path fill="none" stroke="#63b8ff" d="M466.25,-192.69C466.24,-198.42 453.49,-203 428,-203 391.74,-203 381.26,-193.73 396.56,-185.08"/>
<polygon fill="#63b8ff" stroke="#63b8ff" points="468.72,-190.2 459.44,-185.08 463.5,-194.87 468.72,-190.2"/>
</a>
</g>
</g>
<!-- Node6&#45;&gt;Node6 -->
<g id="edge7_Node000006_Node000006" class="edge">
<title>Node6&#45;&gt;Node6</title>
<g id="a_edge7_Node000006_Node000006"><a xlink:title=" ">
<path fill="none" stroke="#63b8ff" d="M466.25,-137.69C466.24,-143.42 453.49,-148 428,-148 391.74,-148 381.26,-138.73 396.56,-130.08"/>
<polygon fill="#63b8ff" stroke="#63b8ff" points="468.72,-135.2 459.44,-130.08 463.5,-139.87 468.72,-135.2"/>
</a>
</g>
</g>
<!-- Node10 -->
<g id="Node000010" class="node">
<title>Node10</title>
<g id="a_Node000010"><a xlink:href="class_imitate_pass.html#af331446d163c31f1fca714646c0f6244" target="_top" xlink:title="Re&#45;encrypt entire directory.">
<polygon fill="white" stroke="#666666" points="297,-477 150,-477 150,-458 297,-458 297,-477"/>
<text text-anchor="middle" x="223.5" y="-465" font-family="Helvetica,sans-Serif" font-size="10.00">ImitatePass::reencryptPath</text>
</a>
</g>
</g>
<!-- Node9&#45;&gt;Node10 -->
<g id="edge11_Node000009_Node000010" class="edge">
<title>Node9&#45;&gt;Node10</title>
<g id="a_edge11_Node000009_Node000010"><a xlink:title=" ">
<path fill="none" stroke="#63b8ff" d="M359.63,-530.36C353.97,-528.5 348.36,-526.54 343,-524.5 306.08,-510.46 264.95,-489.37 242.15,-477.16"/>
<polygon fill="#63b8ff" stroke="#63b8ff" points="358.6,-533.7 369.19,-533.39 360.71,-527.03 358.6,-533.7"/>
</a>
</g>
</g>
<!-- Node10&#45;&gt;Node3 -->
<g id="edge13_Node000010_Node000003" class="edge">
<title>Node10&#45;&gt;Node3</title>
<g id="a_edge13_Node000010_Node000003"><a xlink:title=" ">
<path fill="none" stroke="#63b8ff" d="M139.3,-476.34C125.74,-477.78 112.13,-479.22 99.85,-480.52"/>
<polygon fill="#63b8ff" stroke="#63b8ff" points="140.06,-479.77 149.63,-475.24 139.32,-472.81 140.06,-479.77"/>
</a>
</g>
</g>
<!-- Node11 -->
<g id="Node000011" class="node">
<title>Node11</title>
<g id="a_Node000011"><a xlink:href="class_imitate_pass.html#a97538d83d4f6a583f840db0865e8609a" target="_top" xlink:title="Copy password file.">
<polygon fill="white" stroke="#666666" points="104,-458 0,-458 0,-439 104,-439 104,-458"/>
<text text-anchor="middle" x="52" y="-446" font-family="Helvetica,sans-Serif" font-size="10.00">ImitatePass::Copy</text>
</a>
</g>
</g>
<!-- Node10&#45;&gt;Node11 -->
<g id="edge12_Node000010_Node000011" class="edge">
<title>Node10&#45;&gt;Node11</title>
<g id="a_edge12_Node000010_Node000011"><a xlink:title=" ">
<path fill="none" stroke="#63b8ff" d="M139.51,-458.2C127.42,-456.84 115.28,-455.48 104.08,-454.23"/>
<polygon fill="#63b8ff" stroke="#63b8ff" points="139.31,-461.7 149.63,-459.33 140.09,-454.74 139.31,-461.7"/>
</a>
</g>
</g>
<!-- Node14 -->
<g id="Node000014" class="node">
<title>Node14</title>
<g id="a_Node000014"><a xlink:href="class_qt_pass_settings.html#a64ffdab0605be803054150d438254c56" target="_top" xlink:title="Initialize executable paths by auto&#45;detecting them.">
<polygon fill="white" stroke="#666666" points="513,-93 343,-93 343,-74 513,-74 513,-93"/>
<text text-anchor="middle" x="428" y="-81" font-family="Helvetica,sans-Serif" font-size="10.00">QtPassSettings::initExecutables</text>
</a>
</g>
</g>
<!-- Node13&#45;&gt;Node14 -->
<g id="edge16_Node000013_Node000014" class="edge">
<title>Node13&#45;&gt;Node14</title>
<g id="a_edge16_Node000013_Node000014"><a xlink:title=" ">
<path fill="none" stroke="#63b8ff" d="M566.35,-224.28C560.01,-221.58 554.08,-218.07 549,-213.5 510.43,-178.82 551.31,-137.46 513,-102.5 508.8,-98.67 504,-95.56 498.87,-93.04"/>
<polygon fill="#63b8ff" stroke="#63b8ff" points="565.27,-227.61 575.86,-227.66 567.62,-221.01 565.27,-227.61"/>
</a>
</g>
</g>
<!-- Node14&#45;&gt;Node7 -->
<g id="edge17_Node000014_Node000007" class="edge">
<title>Node14&#45;&gt;Node7</title>
<g id="a_edge17_Node000014_Node000007"><a xlink:title=" ">
<path fill="none" stroke="#63b8ff" d="M360.79,-95.9C354.67,-97.81 348.65,-100 343,-102.5 299.13,-121.92 254.76,-158.56 235.05,-175.92"/>
<polygon fill="#63b8ff" stroke="#63b8ff" points="361.8,-99.25 370.44,-93.11 359.87,-92.52 361.8,-99.25"/>
</a>
</g>
</g>
<!-- Node17&#45;&gt;Node10 -->
<g id="edge21_Node000017_Node000010" class="edge">
<title>Node17&#45;&gt;Node10</title>
<g id="a_edge21_Node000017_Node000010"><a xlink:title=" ">
<path fill="none" stroke="#63b8ff" d="M366.15,-494.08C337.18,-488.64 302.92,-482.22 275.36,-477.04"/>
<polygon fill="#63b8ff" stroke="#63b8ff" points="365.69,-497.56 376.16,-495.96 366.98,-490.68 365.69,-497.56"/>
</a>
</g>
</g>
<!-- Node18&#45;&gt;Node10 -->
<g id="edge23_Node000018_Node000010" class="edge">
<title>Node18&#45;&gt;Node10</title>
<g id="a_edge23_Node000018_Node000010"><a xlink:title=" ">
<path fill="none" stroke="#63b8ff" d="M563.33,-452.62C488.79,-455.9 372.31,-461.01 297.2,-464.31"/>
<polygon fill="#63b8ff" stroke="#63b8ff" points="563.72,-456.11 573.56,-452.18 563.42,-449.12 563.72,-456.11"/>
</a>
</g>
</g>
<!-- Node21 -->
<g id="Node000021" class="node">
<title>Node21</title>
<g id="a_Node000021"><a xlink:href="class_pass.html#ae3284a937d0ca8ae2ea2d81ec556c37b" target="_top" xlink:title="Get default key template for new GPG keys.">
<polygon fill="white" stroke="#666666" points="507.5,-56 348.5,-56 348.5,-37 507.5,-37 507.5,-56"/>
<text text-anchor="middle" x="428" y="-44" font-family="Helvetica,sans-Serif" font-size="10.00">Pass::getDefaultKeyTemplate</text>
</a>
</g>
</g>
<!-- Node20&#45;&gt;Node21 -->
<g id="edge26_Node000020_Node000021" class="edge">
<title>Node20&#45;&gt;Node21</title>
<g id="a_edge26_Node000020_Node000021"><a xlink:title=" ">
<path fill="none" stroke="#63b8ff" d="M551.35,-46.5C536.89,-46.5 521.9,-46.5 507.57,-46.5"/>
<polygon fill="#63b8ff" stroke="#63b8ff" points="551.76,-50 561.76,-46.5 551.76,-43 551.76,-50"/>
</a>
</g>
</g>
<!-- Node22 -->
<g id="Node000022" class="node">
<title>Node22</title>
<g id="a_Node000022"><a xlink:href="class_keygen_dialog.html#a565b5698b7bb40720476d61b8b1b8548" target="_top" xlink:title="KeygenDialog::KeygenDialog basic constructor.">
<polygon fill="white" stroke="#666666" points="302.5,-56 144.5,-56 144.5,-37 302.5,-37 302.5,-56"/>
<text text-anchor="middle" x="223.5" y="-44" font-family="Helvetica,sans-Serif" font-size="10.00">KeygenDialog::KeygenDialog</text>
</a>
</g>
</g>
<!-- Node21&#45;&gt;Node22 -->
<g id="edge27_Node000021_Node000022" class="edge">
<title>Node21&#45;&gt;Node22</title>
<g id="a_edge27_Node000021_Node000022"><a xlink:title=" ">
<path fill="none" stroke="#63b8ff" d="M338.13,-46.5C326.33,-46.5 314.3,-46.5 302.7,-46.5"/>
<polygon fill="#63b8ff" stroke="#63b8ff" points="338.42,-50 348.42,-46.5 338.42,-43 338.42,-50"/>
</a>
</g>
</g>
<!-- Node22&#45;&gt;Node22 -->
<g id="edge28_Node000022_Node000022" class="edge">
<title>Node22&#45;&gt;Node22</title>
<g id="a_edge28_Node000022_Node000022"><a xlink:title=" ">
<path fill="none" stroke="#63b8ff" d="M255.31,-64.45C254.4,-69.82 243.8,-74 223.5,-74 193.29,-74 184.55,-64.73 197.3,-56.08"/>
<polygon fill="#63b8ff" stroke="#63b8ff" points="258.18,-62.44 249.7,-56.08 252.36,-66.34 258.18,-62.44"/>
</a>
</g>
</g>
<!-- Node24 -->
<g id="Node000024" class="node">
<title>Node24</title>
<g id="a_Node000024"><a xlink:href="class_pass.html#a170c0e1d359eb3f2d7b5f75f60082bd6" target="_top" xlink:title="List GPG keys.">
<polygon fill="white" stroke="#666666" points="469.5,-19 386.5,-19 386.5,0 469.5,0 469.5,-19"/>
<text text-anchor="middle" x="428" y="-7" font-family="Helvetica,sans-Serif" font-size="10.00">Pass::listKeys</text>
</a>
</g>
</g>
<!-- Node23&#45;&gt;Node24 -->
<g id="edge30_Node000023_Node000024" class="edge">
<title>Node23&#45;&gt;Node24</title>
<g id="a_edge30_Node000023_Node000024"><a xlink:title=" ">
<path fill="none" stroke="#63b8ff" d="M583.82,-9.5C548.6,-9.5 502.28,-9.5 469.52,-9.5"/>
<polygon fill="#63b8ff" stroke="#63b8ff" points="583.9,-13 593.9,-9.5 583.9,-6 583.9,-13"/>
</a>
</g>
</g>
<!-- Node25&#45;&gt;Node10 -->
<g id="edge32_Node000025_Node000010" class="edge">
<title>Node25&#45;&gt;Node10</title>
<g id="a_edge32_Node000025_Node000010"><a xlink:title=" ">
<path fill="none" stroke="#63b8ff" d="M561.11,-416.6C483.12,-428.39 361.13,-446.84 287.4,-457.99"/>
<polygon fill="#63b8ff" stroke="#63b8ff" points="561.97,-420.01 571.34,-415.05 560.93,-413.09 561.97,-420.01"/>
</a>
</g>
</g>
<!-- Node26&#45;&gt;Node3 -->
<g id="edge34_Node000026_Node000003" class="edge">
<title>Node26&#45;&gt;Node3</title>
<g id="a_edge34_Node000026_Node000003"><a xlink:title=" ">
<path fill="none" stroke="#63b8ff" d="M362.92,-318.78C356.1,-320.74 349.35,-322.97 343,-325.5 228.22,-371.25 215.91,-415.13 104,-467.5 97.37,-470.6 90.04,-473.49 83.06,-476"/>
<polygon fill="#63b8ff" stroke="#63b8ff" points="364.16,-322.07 372.91,-316.1 362.35,-315.31 364.16,-322.07"/>
</a>
</g>
</g>
<!-- Node27&#45;&gt;Node26 -->
<g id="edge37_Node000027_Node000026" class="edge">
<title>Node27&#45;&gt;Node26</title>
<g id="a_edge37_Node000027_Node000026"><a xlink:title=" ">
<path fill="none" stroke="#63b8ff" d="M572.75,-333.08C543.35,-327.64 508.59,-321.22 480.61,-316.04"/>
<polygon fill="#63b8ff" stroke="#63b8ff" points="572.44,-336.58 582.91,-334.96 573.71,-329.7 572.44,-336.58"/>
</a>
</g>
</g>
<!-- Node28 -->
<g id="Node000028" class="node">
<title>Node28</title>
<g id="a_Node000028"><a xlink:href="class_imitate_pass.html#a84de97293ca1a100b1e466b4a79ec601" target="_top" xlink:title="Insert new password.">
<polygon fill="white" stroke="#666666" points="481.5,-353 374.5,-353 374.5,-334 481.5,-334 481.5,-353"/>
<text text-anchor="middle" x="428" y="-341" font-family="Helvetica,sans-Serif" font-size="10.00">ImitatePass::Insert</text>
</a>
</g>
</g>
<!-- Node27&#45;&gt;Node28 -->
<g id="edge36_Node000027_Node000028" class="edge">
<title>Node27&#45;&gt;Node28</title>
<g id="a_edge36_Node000027_Node000028"><a xlink:title=" ">
<path fill="none" stroke="#63b8ff" d="M548.84,-344.08C526.06,-343.97 502.14,-343.86 481.7,-343.76"/>
<polygon fill="#63b8ff" stroke="#63b8ff" points="548.84,-347.58 558.85,-344.13 548.87,-340.58 548.84,-347.58"/>
</a>
</g>
</g>
<!-- Node29 -->
<g id="Node000029" class="node">
<title>Node29</title>
<g id="a_Node000029"><a xlink:href="class_imitate_pass.html#a7af6102fa60b3267bd1e387e7cfd82af" target="_top" xlink:title="Verify .gpg&#45;id file for a directory.">
<polygon fill="white" stroke="#666666" points="496,-401.5 360,-401.5 360,-371.5 496,-371.5 496,-401.5"/>
<text text-anchor="start" x="368" y="-389.5" font-family="Helvetica,sans-Serif" font-size="10.00">ImitatePass::verifyGpgId</text>
<text text-anchor="middle" x="428" y="-378.5" font-family="Helvetica,sans-Serif" font-size="10.00">ForDir</text>
</a>
</g>
</g>
<!-- Node27&#45;&gt;Node29 -->
<g id="edge38_Node000027_Node000029" class="edge">
<title>Node27&#45;&gt;Node29</title>
<g id="a_edge38_Node000027_Node000029"><a xlink:title=" ">
<path fill="none" stroke="#63b8ff" d="M578.04,-356.04C552.7,-361.22 522.59,-367.37 496.1,-372.79"/>
<polygon fill="#63b8ff" stroke="#63b8ff" points="578.77,-359.46 587.87,-354.03 577.37,-352.6 578.77,-359.46"/>
</a>
</g>
</g>
<!-- Node29&#45;&gt;Node10 -->
<g id="edge39_Node000029_Node000010" class="edge">
<title>Node29&#45;&gt;Node10</title>
<g id="a_edge39_Node000029_Node000010"><a xlink:title=" ">
<path fill="none" stroke="#63b8ff" d="M371.53,-404.94C361.97,-408.32 352.16,-411.92 343,-415.5 308.06,-429.17 268.28,-447.13 244.84,-457.97"/>
<polygon fill="#63b8ff" stroke="#63b8ff" points="372.69,-408.24 380.98,-401.64 370.38,-401.63 372.69,-408.24"/>
</a>
</g>
</g>
</g>
</svg>

<g id="navigator" transform="translate(0 0)" fill="#404254">
  <rect fill="#f2f5e9" fill-opacity="0.5" stroke="#606060" stroke-width=".5" x="0" y="0" width="60" height="60"/>
  <use id="zoomplus" xlink:href="#zoomPlus" x="17" y="9" onmousedown="handleZoom(evt,'in')"/>
  <use id="zoomminus" xlink:href="#zoomMin" x="42" y="9" onmousedown="handleZoom(evt,'out')"/>
  <use id="reset" xlink:href="#resetDef" x="30" y="36" onmousedown="handleReset()"/>
   <use id="arrowup" xlink:href="#arrowUp" x="0" y="0" onmousedown="handlePan(0,-1)"/>
  <use id="arrowright" xlink:href="#arrowRight" x="0" y="0" onmousedown="handlePan(1,0)"/>
  <use id="arrowdown" xlink:href="#arrowDown" x="0" y="0" onmousedown="handlePan(0,1)"/>
  <use id="arrowleft" xlink:href="#arrowLeft" x="0" y="0" onmousedown="handlePan(-1,0)"/>
</g>
<svg viewBox="0 0 15 15" width="100%" height="30px" preserveAspectRatio="xMaxYMin meet">
 <g id="arrow_out" transform="scale(0.3 0.3)">
  <a xlink:href="class_executor_a4e210af42a76029683ded3210cf7bce2_icgraph_org.svg" target="_base">
   <rect id="button" ry="5" rx="5" y="6" x="6" height="38" width="38"
        fill="#f2f5e9" fill-opacity="0.5" stroke="#606060" stroke-width="1.0"/>
   <path id="arrow"
     d="M 11.500037,31.436501 C 11.940474,20.09759 22.043105,11.32322 32.158766,21.979434 L 37.068811,17.246167 C 37.068811,17.246167 37.088388,32 37.088388,32 L 22.160133,31.978069 C 22.160133,31.978069 26.997745,27.140456 26.997745,27.140456 C 18.528582,18.264221 13.291696,25.230495 11.500037,31.436501 z"
     style="fill:#404040;"/>
  </a>
 </g>
</svg>

<style type='text/css'>
<![CDATA[
[data-mouse-over-selected='false'] { opacity: 0.7; }
[data-mouse-over-selected='true']  { opacity: 1.0; }
]]>
</style>
<script type="application/ecmascript"><![CDATA[
document.addEventListener('DOMContentLoaded', (event) => {
  highlightEdges();
  highlightAdjacentNodes();
});
]]></script>
</svg>
