<?xml version="1.0" encoding="UTF-8" standalone="no"?>
<!DOCTYPE svg PUBLIC "-//W3C//DTD SVG 1.1//EN"
 "http://www.w3.org/Graphics/SVG/1.1/DTD/svg11.dtd">
<!-- Generated by graphviz version 2.40.1 (20161225.0304)
 -->
<!-- Title: RealPass::Move Pages: 1 -->
<svg width="495pt" height="64pt"
 viewBox="0.00 0.00 495.41 64.00" xmlns="http://www.w3.org/2000/svg" xmlns:xlink="http://www.w3.org/1999/xlink">
<g id="graph0" class="graph" transform="scale(1 1) rotate(0) translate(4 60)">
<title>RealPass::Move</title>
<!-- Node55 -->
<g id="node1" class="node">
<title>Node55</title>
<polygon fill="#bfbfbf" stroke="#000000" points="0,-18.5 0,-36.5 88.8076,-36.5 88.8076,-18.5 0,-18.5"/>
<text text-anchor="middle" x="44.4038" y="-24.5" font-family="Helvetica,sans-Serif" font-size="10.00" fill="#000000">RealPass::Move</text>
</g>
<!-- Node56 -->
<g id="node2" class="node">
<title>Node56</title>
<g id="a_node2"><a xlink:href="class_qt_pass_settings.html#abb8c53443d71181a3ecd6545464453e6" target="_top" xlink:title="QtPassSettings::getPassStore">
<polygon fill="none" stroke="#000000" points="124.8076,-37.5 124.8076,-55.5 275.3193,-55.5 275.3193,-37.5 124.8076,-37.5"/>
<text text-anchor="middle" x="200.0635" y="-43.5" font-family="Helvetica,sans-Serif" font-size="10.00" fill="#000000">QtPassSettings::getPassStore</text>
</a>
</g>
</g>
<!-- Node55&#45;&gt;Node56 -->
<g id="edge1" class="edge">
<title>Node55&#45;&gt;Node56</title>
<path fill="none" stroke="#191970" d="M89.0096,-32.9446C97.5204,-33.9835 106.6837,-35.102 115.9666,-36.235"/>
<polygon fill="#191970" stroke="#191970" points="115.7109,-39.7297 126.0614,-37.4672 116.5591,-32.7813 115.7109,-39.7297"/>
</g>
<!-- Node57 -->
<g id="node3" class="node">
<title>Node57</title>
<g id="a_node3"><a xlink:href="class_pass.html#a0c5efdb4049f435f7a06aae59f14e6a0" target="_top" xlink:title="Pass::executePass easy wrapper for running pass. ">
<polygon fill="none" stroke="#000000" points="149.5415,-.5 149.5415,-18.5 250.5854,-18.5 250.5854,-.5 149.5415,-.5"/>
<text text-anchor="middle" x="200.0635" y="-6.5" font-family="Helvetica,sans-Serif" font-size="10.00" fill="#000000">Pass::executePass</text>
</a>
</g>
</g>
<!-- Node55&#45;&gt;Node57 -->
<g id="edge2" class="edge">
<title>Node55&#45;&gt;Node57</title>
<path fill="none" stroke="#191970" d="M89.0096,-22.3419C104.633,-20.5353 122.4553,-18.4744 139.1803,-16.5403"/>
<polygon fill="#191970" stroke="#191970" points="139.891,-19.9816 149.4227,-15.3559 139.0868,-13.0279 139.891,-19.9816"/>
</g>
<!-- Node58 -->
<g id="node4" class="node">
<title>Node58</title>
<g id="a_node4"><a xlink:href="class_qt_pass_settings.html#af0176d02663714d795cdf23eec6b657a" target="_top" xlink:title="QtPassSettings::getPassExecutable">
<polygon fill="none" stroke="#000000" points="311.3193,-.5 311.3193,-18.5 487.4072,-18.5 487.4072,-.5 311.3193,-.5"/>
<text text-anchor="middle" x="399.3633" y="-6.5" font-family="Helvetica,sans-Serif" font-size="10.00" fill="#000000">QtPassSettings::getPassExecutable</text>
</a>
</g>
</g>
<!-- Node57&#45;&gt;Node58 -->
<g id="edge3" class="edge">
<title>Node57&#45;&gt;Node58</title>
<path fill="none" stroke="#191970" d="M250.6129,-9.5C266.0371,-9.5 283.5537,-9.5 301.017,-9.5"/>
<polygon fill="#191970" stroke="#191970" points="301.2767,-13.0001 311.2767,-9.5 301.2766,-6.0001 301.2767,-13.0001"/>
</g>
</g>
</svg>
