<?xml version="1.0" encoding="UTF-8" standalone="no"?>
<!DOCTYPE svg PUBLIC "-//W3C//DTD SVG 1.1//EN"
 "http://www.w3.org/Graphics/SVG/1.1/DTD/svg11.dtd">
<!-- Generated by graphviz version 2.40.1 (20161225.0304)
 -->
<!-- Title: QtPass::~QtPass Pages: 1 -->
<svg width="473pt" height="66pt"
 viewBox="0.00 0.00 473.00 66.00" xmlns="http://www.w3.org/2000/svg" xmlns:xlink="http://www.w3.org/1999/xlink">
<g id="graph0" class="graph" transform="scale(1 1) rotate(0) translate(4 62)">
<title>QtPass::~QtPass</title>
<!-- Node7 -->
<g id="node1" class="node">
<title>Node7</title>
<polygon fill="#bfbfbf" stroke="#000000" points="0,-19.5 0,-38.5 95,-38.5 95,-19.5 0,-19.5"/>
<text text-anchor="middle" x="47.5" y="-26.5" font-family="Helvetica,sans-Serif" font-size="10.00" fill="#000000">QtPass::~QtPass</text>
</g>
<!-- Node8 -->
<g id="node2" class="node">
<title>Node8</title>
<g id="a_node2"><a xlink:href="class_qt_pass_settings.html#a68a9cac12925baf6cff2ce2c7a0f5a8c" target="_top" xlink:title="QtPassSettings::isUseWebDav">
<polygon fill="none" stroke="#000000" points="131,-38.5 131,-57.5 286,-57.5 286,-38.5 131,-38.5"/>
<text text-anchor="middle" x="208.5" y="-45.5" font-family="Helvetica,sans-Serif" font-size="10.00" fill="#000000">QtPassSettings::isUseWebDav</text>
</a>
</g>
</g>
<!-- Node7&#45;&gt;Node8 -->
<g id="edge1" class="edge">
<title>Node7&#45;&gt;Node8</title>
<path fill="none" stroke="#191970" d="M95.3694,-34.6492C103.5184,-35.6109 112.2043,-36.6359 121.0026,-37.6742"/>
<polygon fill="#191970" stroke="#191970" points="120.6199,-41.1533 130.9612,-38.8495 121.4404,-34.2015 120.6199,-41.1533"/>
</g>
<!-- Node10 -->
<g id="node4" class="node">
<title>Node10</title>
<g id="a_node4"><a xlink:href="class_qt_pass_settings.html#abb8c53443d71181a3ecd6545464453e6" target="_top" xlink:title="QtPassSettings::getPassStore">
<polygon fill="none" stroke="#000000" points="133,-.5 133,-19.5 284,-19.5 284,-.5 133,-.5"/>
<text text-anchor="middle" x="208.5" y="-7.5" font-family="Helvetica,sans-Serif" font-size="10.00" fill="#000000">QtPassSettings::getPassStore</text>
</a>
</g>
</g>
<!-- Node7&#45;&gt;Node10 -->
<g id="edge3" class="edge">
<title>Node7&#45;&gt;Node10</title>
<path fill="none" stroke="#191970" d="M95.3694,-23.3508C104.0144,-22.3306 113.2638,-21.2391 122.6105,-20.136"/>
<polygon fill="#191970" stroke="#191970" points="123.246,-23.5854 132.7668,-18.9375 122.4255,-16.6337 123.246,-23.5854"/>
</g>
<!-- Node9 -->
<g id="node3" class="node">
<title>Node9</title>
<g id="a_node3"><a xlink:href="class_qt_pass_settings.html#ab83659fdbfb9069942e6982076b4b934" target="_top" xlink:title="QtPassSettings::getInstance">
<polygon fill="none" stroke="#000000" points="322,-19.5 322,-38.5 465,-38.5 465,-19.5 322,-19.5"/>
<text text-anchor="middle" x="393.5" y="-26.5" font-family="Helvetica,sans-Serif" font-size="10.00" fill="#000000">QtPassSettings::getInstance</text>
</a>
</g>
</g>
<!-- Node8&#45;&gt;Node9 -->
<g id="edge2" class="edge">
<title>Node8&#45;&gt;Node9</title>
<path fill="none" stroke="#191970" d="M286.1525,-40.0249C294.6811,-39.149 303.3825,-38.2553 311.9565,-37.3747"/>
<polygon fill="#191970" stroke="#191970" points="312.3552,-40.8523 321.9452,-36.3489 311.6399,-33.8889 312.3552,-40.8523"/>
</g>
<!-- Node10&#45;&gt;Node9 -->
<g id="edge4" class="edge">
<title>Node10&#45;&gt;Node9</title>
<path fill="none" stroke="#191970" d="M284.0134,-17.7554C293.1849,-18.6974 302.5872,-19.663 311.8426,-20.6136"/>
<polygon fill="#191970" stroke="#191970" points="311.505,-24.0972 321.8102,-21.6373 312.2202,-17.1338 311.505,-24.0972"/>
</g>
</g>
</svg>
