<?xml version="1.0" encoding="UTF-8" standalone="no"?>
<!DOCTYPE svg PUBLIC "-//W3C//DTD SVG 1.1//EN"
 "http://www.w3.org/Graphics/SVG/1.1/DTD/svg11.dtd">
<!-- Generated by graphviz version 2.40.1 (20161225.0304)
 -->
<!-- Title: QtPassSettings::getSize Pages: 1 -->
<svg width="646pt" height="27pt"
 viewBox="0.00 0.00 646.28 27.00" xmlns="http://www.w3.org/2000/svg" xmlns:xlink="http://www.w3.org/1999/xlink">
<g id="graph0" class="graph" transform="scale(1 1) rotate(0) translate(4 23)">
<title>QtPassSettings::getSize</title>
<!-- Node327 -->
<g id="node1" class="node">
<title>Node327</title>
<g id="a_node1"><a xlink:title=" ">
<polygon fill="#bfbfbf" stroke="#000000" points="514.4521,-.5 514.4521,-18.5 638.2842,-18.5 638.2842,-.5 514.4521,-.5"/>
<text text-anchor="middle" x="576.3682" y="-6.5" font-family="Helvetica,sans-Serif" font-size="10.00" fill="#000000">QtPassSettings::getSize</text>
</a>
</g>
</g>
<!-- Node328 -->
<g id="node2" class="node">
<title>Node328</title>
<g id="a_node2"><a xlink:href="class_main_window.html#a9630f0fe0e0941a7996d68014f837ed5" target="_top" xlink:title=" ">
<polygon fill="none" stroke="#000000" points="332.9648,-.5 332.9648,-18.5 478.4521,-18.5 478.4521,-.5 332.9648,-.5"/>
<text text-anchor="middle" x="405.7085" y="-6.5" font-family="Helvetica,sans-Serif" font-size="10.00" fill="#000000">MainWindow::restoreWindow</text>
</a>
</g>
</g>
<!-- Node327&#45;&gt;Node328 -->
<g id="edge1" class="edge">
<title>Node327&#45;&gt;Node328</title>
<path fill="none" stroke="#191970" d="M504.0574,-9.5C495.592,-9.5 486.9515,-9.5 478.4799,-9.5"/>
<polygon fill="#191970" stroke="#191970" points="504.2734,-13.0001 514.2733,-9.5 504.2733,-6.0001 504.2734,-13.0001"/>
</g>
<!-- Node329 -->
<g id="node3" class="node">
<title>Node329</title>
<g id="a_node3"><a xlink:href="class_qt_pass.html#abd1d1e8d6b80b8307a305d80a6c34371" target="_top" xlink:title=" ">
<polygon fill="none" stroke="#000000" points="172.0391,-.5 172.0391,-18.5 296.9648,-18.5 296.9648,-.5 172.0391,-.5"/>
<text text-anchor="middle" x="234.502" y="-6.5" font-family="Helvetica,sans-Serif" font-size="10.00" fill="#000000">QtPass::setMainWindow</text>
</a>
</g>
</g>
<!-- Node328&#45;&gt;Node329 -->
<g id="edge2" class="edge">
<title>Node328&#45;&gt;Node329</title>
<path fill="none" stroke="#191970" d="M322.5795,-9.5C314.0088,-9.5 305.4049,-9.5 297.1121,-9.5"/>
<polygon fill="#191970" stroke="#191970" points="322.6049,-13.0001 332.6049,-9.5 322.6049,-6.0001 322.6049,-13.0001"/>
</g>
<!-- Node330 -->
<g id="node4" class="node">
<title>Node330</title>
<g id="a_node4"><a xlink:href="class_main_window.html#a52e97245b2f88492071e639395c4a15a" target="_top" xlink:title="MainWindow::MainWindow handles all of the main functionality and also the main window.">
<polygon fill="none" stroke="#000000" points="0,-.5 0,-18.5 136.0391,-18.5 136.0391,-.5 0,-.5"/>
<text text-anchor="middle" x="68.0195" y="-6.5" font-family="Helvetica,sans-Serif" font-size="10.00" fill="#000000">MainWindow::MainWindow</text>
</a>
</g>
</g>
<!-- Node329&#45;&gt;Node330 -->
<g id="edge3" class="edge">
<title>Node329&#45;&gt;Node330</title>
<path fill="none" stroke="#191970" d="M162.0328,-9.5C153.431,-9.5 144.6731,-9.5 136.1349,-9.5"/>
<polygon fill="#191970" stroke="#191970" points="162.0364,-13.0001 172.0364,-9.5 162.0364,-6.0001 162.0364,-13.0001"/>
</g>
</g>
</svg>
