<?xml version="1.0" encoding="UTF-8" standalone="no"?>
<!DOCTYPE svg PUBLIC "-//W3C//DTD SVG 1.1//EN"
 "http://www.w3.org/Graphics/SVG/1.1/DTD/svg11.dtd">
<!-- Generated by graphviz version 2.40.1 (20161225.0304)
 -->
<!-- Title: Pass::GitPull_b Pages: 1 -->
<!--zoomable 85 -->
<svg id="main" version="1.1" xmlns="http://www.w3.org/2000/svg" xmlns:xlink="http://www.w3.org/1999/xlink" xml:space="preserve" onload="init(evt)">
<style type="text/css"><![CDATA[
.edge:hover path { stroke: red; }
.edge:hover polygon { stroke: red; fill: red; }
]]></style>
<script type="text/javascript"><![CDATA[
var edges = document.getElementsByTagName('g');
if (edges && edges.length) {
  for (var i=0;i<edges.length;i++) {
    if (edges[i].id.substr(0,4)=='edge') {
      edges[i].setAttribute('class','edge');
    }
  }
}
]]></script>
        <defs>
                <circle id="rim" cx="0" cy="0" r="7"/>
                <circle id="rim2" cx="0" cy="0" r="3.5"/>
                <g id="zoomPlus">
                        <use xlink:href="#rim" fill="#404040">
                                <set attributeName="fill" to="#808080" begin="zoomplus.mouseover" end="zoomplus.mouseout"/>
                        </use>
                        <path d="M-4,0h8M0,-4v8" fill="none" stroke="white" stroke-width="1.5" pointer-events="none"/>
                </g>
                <g id="zoomMin">
                        <use xlink:href="#rim" fill="#404040">
                                <set attributeName="fill" to="#808080" begin="zoomminus.mouseover" end="zoomminus.mouseout"/>
                        </use>
                        <path d="M-4,0h8" fill="none" stroke="white" stroke-width="1.5" pointer-events="none"/>
                </g>
                <g id="dirArrow">
                        <path fill="none" stroke="white" stroke-width="1.5" d="M0,-3.0v7 M-2.5,-0.5L0,-3.0L2.5,-0.5"/>
                </g>
               <g id="resetDef">
                       <use xlink:href="#rim2" fill="#404040">
                               <set attributeName="fill" to="#808080" begin="reset.mouseover" end="reset.mouseout"/>
                       </use>
               </g>
        </defs>

<script type="text/javascript">
var viewWidth = 689;
var viewHeight = 85;
var sectionId = 'dynsection-36';
</script>
<script xlink:href="svgpan.js"/>
<svg id="graph" class="graph">
<g id="viewport">
<title>Pass::GitPull_b</title>
<!-- Node226 -->
<g id="node1" class="node">
<title>Node226</title>
<polygon fill="#bfbfbf" stroke="#000000" points="0,-19.5 0,-38.5 85,-38.5 85,-19.5 0,-19.5"/>
<text text-anchor="middle" x="42.5" y="-26.5" font-family="Helvetica,sans-Serif" font-size="10.00" fill="#000000">Pass::GitPull_b</text>
</g>
<!-- Node227 -->
<g id="node2" class="node">
<title>Node227</title>
<g id="a_node2"><a xlink:href="class_main_window.html#aeb8091ab5531144b76c1fbb0d63deb56" target="_top" xlink:title="MainWindow::config pops up the configuration screen and handles all inter&#45;window communication. ">
<polygon fill="none" stroke="#000000" points="121,-38.5 121,-57.5 226,-57.5 226,-38.5 121,-38.5"/>
<text text-anchor="middle" x="173.5" y="-45.5" font-family="Helvetica,sans-Serif" font-size="10.00" fill="#000000">MainWindow::config</text>
</a>
</g>
</g>
<!-- Node226&#45;&gt;Node227 -->
<g id="edge1" class="edge">
<title>Node226&#45;&gt;Node227</title>
<path fill="none" stroke="#191970" d="M95.1046,-36.6297C103.5147,-37.8495 112.2201,-39.1121 120.6362,-40.3327"/>
<polygon fill="#191970" stroke="#191970" points="95.4308,-33.1404 85.0319,-35.1688 94.426,-40.068 95.4308,-33.1404"/>
</g>
<!-- Node231 -->
<g id="node6" class="node">
<title>Node231</title>
<g id="a_node6"><a xlink:href="class_pass.html#a8dfa731be7ac962f9f6a5cf8f29097ec" target="_top" xlink:title="Pass::~Pass">
<polygon fill="none" stroke="#000000" points="136.5,-.5 136.5,-19.5 210.5,-19.5 210.5,-.5 136.5,-.5"/>
<text text-anchor="middle" x="173.5" y="-7.5" font-family="Helvetica,sans-Serif" font-size="10.00" fill="#000000">Pass::~Pass</text>
</a>
</g>
</g>
<!-- Node226&#45;&gt;Node231 -->
<g id="edge6" class="edge">
<title>Node226&#45;&gt;Node231</title>
<path fill="none" stroke="#191970" d="M94.9697,-21.3899C108.8673,-19.3742 123.5805,-17.2402 136.4682,-15.371"/>
<polygon fill="#191970" stroke="#191970" points="94.426,-17.932 85.0319,-22.8312 95.4308,-24.8596 94.426,-17.932"/>
</g>
<!-- Node228 -->
<g id="node3" class="node">
<title>Node228</title>
<g id="a_node3"><a xlink:href="class_main_window.html#a9630f0fe0e0941a7996d68014f837ed5" target="_top" xlink:title="MainWindow::restoreWindow">
<polygon fill="none" stroke="#000000" points="262,-57.5 262,-76.5 406,-76.5 406,-57.5 262,-57.5"/>
<text text-anchor="middle" x="334" y="-64.5" font-family="Helvetica,sans-Serif" font-size="10.00" fill="#000000">MainWindow::restoreWindow</text>
</a>
</g>
</g>
<!-- Node227&#45;&gt;Node228 -->
<g id="edge2" class="edge">
<title>Node227&#45;&gt;Node228</title>
<path fill="none" stroke="#191970" d="M236.1514,-55.4167C244.5617,-56.4123 253.2432,-57.44 261.8014,-58.4531"/>
<polygon fill="#191970" stroke="#191970" points="236.3958,-51.9213 226.0537,-54.2213 235.5729,-58.8727 236.3958,-51.9213"/>
</g>
<!-- Node229 -->
<g id="node4" class="node">
<title>Node229</title>
<g id="a_node4"><a xlink:href="class_qt_pass.html#a49e2861160fdb8d614231933f60fac47" target="_top" xlink:title="QtPass::init make sure we are ready to go as soon as possible. ">
<polygon fill="none" stroke="#000000" points="442,-38.5 442,-57.5 510,-57.5 510,-38.5 442,-38.5"/>
<text text-anchor="middle" x="476" y="-45.5" font-family="Helvetica,sans-Serif" font-size="10.00" fill="#000000">QtPass::init</text>
</a>
</g>
</g>
<!-- Node227&#45;&gt;Node229 -->
<g id="edge5" class="edge">
<title>Node227&#45;&gt;Node229</title>
<path fill="none" stroke="#191970" d="M236.306,-48C298.6667,-48 391.9502,-48 441.7591,-48"/>
<polygon fill="#191970" stroke="#191970" points="236.1915,-44.5001 226.1915,-48 236.1914,-51.5001 236.1915,-44.5001"/>
</g>
<!-- Node228&#45;&gt;Node229 -->
<g id="edge3" class="edge">
<title>Node228&#45;&gt;Node229</title>
<path fill="none" stroke="#191970" d="M415.5082,-56.094C424.7492,-54.8575 433.7473,-53.6535 441.8576,-52.5683"/>
<polygon fill="#191970" stroke="#191970" points="414.8635,-52.649 405.416,-57.4443 415.7919,-59.5871 414.8635,-52.649"/>
</g>
<!-- Node230 -->
<g id="node5" class="node">
<title>Node230</title>
<g id="a_node5"><a xlink:href="class_main_window.html#a52e97245b2f88492071e639395c4a15a" target="_top" xlink:title="MainWindow::MainWindow handles all of the main functionality and also the main window. ">
<polygon fill="none" stroke="#000000" points="546,-38.5 546,-57.5 681,-57.5 681,-38.5 546,-38.5"/>
<text text-anchor="middle" x="613.5" y="-45.5" font-family="Helvetica,sans-Serif" font-size="10.00" fill="#000000">MainWindow::MainWindow</text>
</a>
</g>
</g>
<!-- Node229&#45;&gt;Node230 -->
<g id="edge4" class="edge">
<title>Node229&#45;&gt;Node230</title>
<path fill="none" stroke="#191970" d="M520.6126,-48C528.6815,-48 537.2586,-48 545.8137,-48"/>
<polygon fill="#191970" stroke="#191970" points="520.3424,-44.5001 510.3424,-48 520.3423,-51.5001 520.3424,-44.5001"/>
</g>
</g>
</svg>
        <g id="navigator" transform="translate(0 0)" fill="#404254">
                <rect fill="#f2f5e9" fill-opacity="0.5" stroke="#606060" stroke-width=".5" x="0" y="0" width="60" height="60"/>
                <use id="zoomplus" xlink:href="#zoomPlus" x="17" y="9" onmousedown="handleZoom(evt,'in')"/>
                <use id="zoomminus" xlink:href="#zoomMin" x="42" y="9" onmousedown="handleZoom(evt,'out')"/>
                <use id="reset" xlink:href="#resetDef" x="30" y="36" onmousedown="handleReset()"/>
                <g id="arrowUp" xlink:href="#dirArrow" transform="translate(30 24)" onmousedown="handlePan(0,-1)">
                  <use xlink:href="#rim" fill="#404040">
                        <set attributeName="fill" to="#808080" begin="arrowUp.mouseover" end="arrowUp.mouseout"/>
                  </use>
                  <path fill="none" stroke="white" stroke-width="1.5" d="M0,-3.0v7 M-2.5,-0.5L0,-3.0L2.5,-0.5"/>
                </g>
                <g id="arrowRight" xlink:href="#dirArrow" transform="rotate(90) translate(36 -43)" onmousedown="handlePan(1,0)">
                  <use xlink:href="#rim" fill="#404040">
                        <set attributeName="fill" to="#808080" begin="arrowRight.mouseover" end="arrowRight.mouseout"/>
                  </use>
                  <path fill="none" stroke="white" stroke-width="1.5" d="M0,-3.0v7 M-2.5,-0.5L0,-3.0L2.5,-0.5"/>
                </g>
                <g id="arrowDown" xlink:href="#dirArrow" transform="rotate(180) translate(-30 -48)" onmousedown="handlePan(0,1)">
                  <use xlink:href="#rim" fill="#404040">
                        <set attributeName="fill" to="#808080" begin="arrowDown.mouseover" end="arrowDown.mouseout"/>
                  </use>
                  <path fill="none" stroke="white" stroke-width="1.5" d="M0,-3.0v7 M-2.5,-0.5L0,-3.0L2.5,-0.5"/>
                </g>
                <g id="arrowLeft" xlink:href="#dirArrow" transform="rotate(270) translate(-36 17)" onmousedown="handlePan(-1,0)">
                  <use xlink:href="#rim" fill="#404040">
                        <set attributeName="fill" to="#808080" begin="arrowLeft.mouseover" end="arrowLeft.mouseout"/>
                  </use>
                  <path fill="none" stroke="white" stroke-width="1.5" d="M0,-3.0v7 M-2.5,-0.5L0,-3.0L2.5,-0.5"/>
                </g>
        </g>
        <svg viewBox="0 0 15 15" width="100%" height="30px" preserveAspectRatio="xMaxYMin meet">
         <g id="arrow_out" transform="scale(0.3 0.3)">
          <a xlink:href="class_pass_a7a109d5c0a7f565398b7238c32bb6328_icgraph_org.svg" target="_base">
           <rect id="button" ry="5" rx="5" y="6" x="6" height="38" width="38"
                fill="#f2f5e9" fill-opacity="0.5" stroke="#606060" stroke-width="1.0"/>
           <path id="arrow"
             d="M 11.500037,31.436501 C 11.940474,20.09759 22.043105,11.32322 32.158766,21.979434 L 37.068811,17.246167 C 37.068811,17.246167 37.088388,32 37.088388,32 L 22.160133,31.978069 C 22.160133,31.978069 26.997745,27.140456 26.997745,27.140456 C 18.528582,18.264221 13.291696,25.230495 11.500037,31.436501 z"
             style="fill:#404040;"/>
          </a>
         </g>
        </svg>
</svg>
