<?xml version="1.0" encoding="UTF-8" standalone="no"?>
<!DOCTYPE svg PUBLIC "-//W3C//DTD SVG 1.1//EN"
 "http://www.w3.org/Graphics/SVG/1.1/DTD/svg11.dtd">
<!-- Generated by graphviz version 2.38.0 (20140413.2041)
 -->
<!-- Title: Executor::execute Pages: 1 -->
<!--zoomable 119 -->
<svg id="main" version="1.1" xmlns="http://www.w3.org/2000/svg" xmlns:xlink="http://www.w3.org/1999/xlink" xml:space="preserve" onload="init(evt)">
<style type="text/css"><![CDATA[
.edge:hover path { stroke: red; }
.edge:hover polygon { stroke: red; fill: red; }
]]></style>
<script type="text/javascript"><![CDATA[
var edges = document.getElementsByTagName('g');
if (edges && edges.length) {
  for (var i=0;i<edges.length;i++) {
    if (edges[i].id.substr(0,4)=='edge') {
      edges[i].setAttribute('class','edge');
    }
  }
}
]]></script>
        <defs>
                <circle id="rim" cx="0" cy="0" r="7"/>
                <circle id="rim2" cx="0" cy="0" r="3.5"/>
                <g id="zoomPlus">
                        <use xlink:href="#rim" fill="#404040">
                                <set attributeName="fill" to="#808080" begin="zoomplus.mouseover" end="zoomplus.mouseout"/>
                        </use>
                        <path d="M-4,0h8M0,-4v8" fill="none" stroke="white" stroke-width="1.5" pointer-events="none"/>
                </g>
                <g id="zoomMin">
                        <use xlink:href="#rim" fill="#404040">
                                <set attributeName="fill" to="#808080" begin="zoomminus.mouseover" end="zoomminus.mouseout"/>
                        </use>
                        <path d="M-4,0h8" fill="none" stroke="white" stroke-width="1.5" pointer-events="none"/>
                </g>
                <g id="dirArrow">
                        <path fill="none" stroke="white" stroke-width="1.5" d="M0,-3.0v7 M-2.5,-0.5L0,-3.0L2.5,-0.5"/>
                </g>
               <g id="resetDef">
                       <use xlink:href="#rim2" fill="#404040">
                               <set attributeName="fill" to="#808080" begin="reset.mouseover" end="reset.mouseout"/>
                       </use>
               </g>
        </defs>

<script type="text/javascript">
var viewWidth = 796;
var viewHeight = 119;
var sectionId = 'dynsection-2';
</script>
<script xlink:href="svgpan.js"/>
<svg id="graph" class="graph">
<g id="viewport">
<title>Executor::execute</title>
<!-- Node5 -->
<g id="node1" class="node"><title>Node5</title>
<polygon fill="#bfbfbf" stroke="black" points="0,-55.5 0,-73.5 96.0439,-73.5 96.0439,-55.5 0,-55.5"/>
<text text-anchor="middle" x="48.022" y="-61.5" font-family="Helvetica,sans-Serif" font-size="10.00">Executor::execute</text>
</g>
<!-- Node6 -->
<g id="node2" class="node"><title>Node6</title>
<g id="a_node2"><a xlink:href="class_executor.html#a490166ea519a8047e207da8d67f3c0d2" target="_top" xlink:title="Executor::execute executes an app from a workDir. ">
<polygon fill="none" stroke="black" points="148.992,-92.5 148.992,-110.5 245.036,-110.5 245.036,-92.5 148.992,-92.5"/>
<text text-anchor="middle" x="197.014" y="-98.5" font-family="Helvetica,sans-Serif" font-size="10.00">Executor::execute</text>
</a>
</g>
</g>
<!-- Node5&#45;&gt;Node6 -->
<g id="edge1" class="edge"><title>Node5&#45;&gt;Node6</title>
<path fill="none" stroke="midnightblue" d="M94.6954,-75.9967C115.783,-81.3046 140.455,-87.5149 160.173,-92.4782"/>
<polygon fill="midnightblue" stroke="midnightblue" points="95.5322,-72.5982 84.9803,-73.5512 93.8234,-79.3864 95.5322,-72.5982"/>
</g>
<!-- Node7 -->
<g id="node3" class="node"><title>Node7</title>
<g id="a_node3"><a xlink:href="class_pass.html#a5d0cea4019f5c123fb4a4417de8d95b9" target="_top" xlink:title="Pass::Pass wrapper for using either pass or the pass imitation. ">
<polygon fill="none" stroke="black" points="164.004,-55.5 164.004,-73.5 230.024,-73.5 230.024,-55.5 164.004,-55.5"/>
<text text-anchor="middle" x="197.014" y="-61.5" font-family="Helvetica,sans-Serif" font-size="10.00">Pass::Pass</text>
</a>
</g>
</g>
<!-- Node5&#45;&gt;Node7 -->
<g id="edge2" class="edge"><title>Node5&#45;&gt;Node7</title>
<path fill="none" stroke="midnightblue" d="M106.607,-64.5C125.989,-64.5 146.922,-64.5 163.657,-64.5"/>
<polygon fill="midnightblue" stroke="midnightblue" points="106.34,-61.0001 96.3403,-64.5 106.34,-68.0001 106.34,-61.0001"/>
</g>
<!-- Node8 -->
<g id="node4" class="node"><title>Node8</title>
<g id="a_node4"><a xlink:href="class_pass.html#a0c29f7bd4ca235d00d9dac6a37e14f4f" target="_top" xlink:title="Pass::GenerateGPGKeys internal gpg keypair generator . . ">
<polygon fill="none" stroke="black" points="132.044,-18.5 132.044,-36.5 261.984,-36.5 261.984,-18.5 132.044,-18.5"/>
<text text-anchor="middle" x="197.014" y="-24.5" font-family="Helvetica,sans-Serif" font-size="10.00">Pass::GenerateGPGKeys</text>
</a>
</g>
</g>
<!-- Node5&#45;&gt;Node8 -->
<g id="edge3" class="edge"><title>Node5&#45;&gt;Node8</title>
<path fill="none" stroke="midnightblue" d="M94.6954,-53.0033C115.783,-47.6954 140.455,-41.4851 160.173,-36.5218"/>
<polygon fill="midnightblue" stroke="midnightblue" points="93.8234,-49.6136 84.9803,-55.4488 95.5322,-56.4018 93.8234,-49.6136"/>
</g>
<!-- Node9 -->
<g id="node5" class="node"><title>Node9</title>
<g id="a_node5"><a xlink:href="class_main_window.html#adcd6afb4bbea0fc89cf5b5b51e387935" target="_top" xlink:title="MainWindow::generateKeyPair internal gpg keypair generator . . ">
<polygon fill="none" stroke="black" points="297.984,-37.5 297.984,-55.5 451.274,-55.5 451.274,-37.5 297.984,-37.5"/>
<text text-anchor="middle" x="374.629" y="-43.5" font-family="Helvetica,sans-Serif" font-size="10.00">MainWindow::generateKeyPair</text>
</a>
</g>
</g>
<!-- Node8&#45;&gt;Node9 -->
<g id="edge4" class="edge"><title>Node8&#45;&gt;Node9</title>
<path fill="none" stroke="midnightblue" d="M272.552,-35.5643C280.951,-36.473 289.516,-37.3997 297.93,-38.31"/>
<polygon fill="midnightblue" stroke="midnightblue" points="272.728,-32.063 262.41,-34.467 271.975,-39.0224 272.728,-32.063"/>
</g>
<!-- Node12 -->
<g id="node8" class="node"><title>Node12</title>
<g id="a_node8"><a xlink:href="class_pass.html#a8dfa731be7ac962f9f6a5cf8f29097ec" target="_top" xlink:title="Pass::~Pass">
<polygon fill="none" stroke="black" points="338.7,-0.5 338.7,-18.5 410.559,-18.5 410.559,-0.5 338.7,-0.5"/>
<text text-anchor="middle" x="374.629" y="-6.5" font-family="Helvetica,sans-Serif" font-size="10.00">Pass::~Pass</text>
</a>
</g>
</g>
<!-- Node8&#45;&gt;Node12 -->
<g id="edge7" class="edge"><title>Node8&#45;&gt;Node12</title>
<path fill="none" stroke="midnightblue" d="M272.451,-19.8705C295.298,-17.5287 319.382,-15.0602 338.319,-13.1192"/>
<polygon fill="midnightblue" stroke="midnightblue" points="272.001,-16.3982 262.41,-20.8997 272.714,-23.3617 272.001,-16.3982"/>
</g>
<!-- Node10 -->
<g id="node6" class="node"><title>Node10</title>
<g id="a_node6"><a xlink:href="class_config_dialog.html#a428d1f1b69aaaf09343e3d8db42ed138" target="_top" xlink:title="ConfigDialog::genKey tunnel function to make MainWindow generate a gpg key pair. ">
<polygon fill="none" stroke="black" points="487.274,-37.5 487.274,-55.5 600.003,-55.5 600.003,-37.5 487.274,-37.5"/>
<text text-anchor="middle" x="543.639" y="-43.5" font-family="Helvetica,sans-Serif" font-size="10.00">ConfigDialog::genKey</text>
</a>
</g>
</g>
<!-- Node9&#45;&gt;Node10 -->
<g id="edge5" class="edge"><title>Node9&#45;&gt;Node10</title>
<path fill="none" stroke="midnightblue" d="M461.54,-46.5C470.255,-46.5 478.936,-46.5 487.201,-46.5"/>
<polygon fill="midnightblue" stroke="midnightblue" points="461.316,-43.0001 451.316,-46.5 461.316,-50.0001 461.316,-43.0001"/>
</g>
<!-- Node11 -->
<g id="node7" class="node"><title>Node11</title>
<g id="a_node7"><a xlink:href="class_keygen_dialog.html#a90b3a3db49016043ba160a50c5272643" target="_top" xlink:title="KeygenDialog::~KeygenDialog even more basic destructor. ">
<polygon fill="none" stroke="black" points="636.003,-37.5 636.003,-55.5 787.931,-55.5 787.931,-37.5 636.003,-37.5"/>
<text text-anchor="middle" x="711.967" y="-43.5" font-family="Helvetica,sans-Serif" font-size="10.00">KeygenDialog::~KeygenDialog</text>
</a>
</g>
</g>
<!-- Node10&#45;&gt;Node11 -->
<g id="edge6" class="edge"><title>Node10&#45;&gt;Node11</title>
<path fill="none" stroke="midnightblue" d="M610.198,-46.5C618.664,-46.5 627.385,-46.5 635.987,-46.5"/>
<polygon fill="midnightblue" stroke="midnightblue" points="610.024,-43.0001 600.024,-46.5 610.023,-50.0001 610.024,-43.0001"/>
</g>
</g>
</svg>
        <g id="navigator" transform="translate(0 0)" fill="#404254">
                <rect fill="#f2f5e9" fill-opacity="0.5" stroke="#606060" stroke-width=".5" x="0" y="0" width="60" height="60"/>
                <use id="zoomplus" xlink:href="#zoomPlus" x="17" y="9" onmousedown="handleZoom(evt,'in')"/>
                <use id="zoomminus" xlink:href="#zoomMin" x="42" y="9" onmousedown="handleZoom(evt,'out')"/>
                <use id="reset" xlink:href="#resetDef" x="30" y="36" onmousedown="handleReset()"/>
                <g id="arrowUp" xlink:href="#dirArrow" transform="translate(30 24)" onmousedown="handlePan(0,-1)">
                  <use xlink:href="#rim" fill="#404040">
                        <set attributeName="fill" to="#808080" begin="arrowUp.mouseover" end="arrowUp.mouseout"/>
                  </use>
                  <path fill="none" stroke="white" stroke-width="1.5" d="M0,-3.0v7 M-2.5,-0.5L0,-3.0L2.5,-0.5"/>
                </g>
                <g id="arrowRight" xlink:href="#dirArrow" transform="rotate(90) translate(36 -43)" onmousedown="handlePan(1,0)">
                  <use xlink:href="#rim" fill="#404040">
                        <set attributeName="fill" to="#808080" begin="arrowRight.mouseover" end="arrowRight.mouseout"/>
                  </use>
                  <path fill="none" stroke="white" stroke-width="1.5" d="M0,-3.0v7 M-2.5,-0.5L0,-3.0L2.5,-0.5"/>
                </g>
                <g id="arrowDown" xlink:href="#dirArrow" transform="rotate(180) translate(-30 -48)" onmousedown="handlePan(0,1)">
                  <use xlink:href="#rim" fill="#404040">
                        <set attributeName="fill" to="#808080" begin="arrowDown.mouseover" end="arrowDown.mouseout"/>
                  </use>
                  <path fill="none" stroke="white" stroke-width="1.5" d="M0,-3.0v7 M-2.5,-0.5L0,-3.0L2.5,-0.5"/>
                </g>
                <g id="arrowLeft" xlink:href="#dirArrow" transform="rotate(270) translate(-36 17)" onmousedown="handlePan(-1,0)">
                  <use xlink:href="#rim" fill="#404040">
                        <set attributeName="fill" to="#808080" begin="arrowLeft.mouseover" end="arrowLeft.mouseout"/>
                  </use>
                  <path fill="none" stroke="white" stroke-width="1.5" d="M0,-3.0v7 M-2.5,-0.5L0,-3.0L2.5,-0.5"/>
                </g>
        </g>
        <svg viewBox="0 0 15 15" width="100%" height="30px" preserveAspectRatio="xMaxYMin meet">
         <g id="arrow_out" transform="scale(0.3 0.3)">
          <a xlink:href="class_executor_a7c4305c0af542f0174492badfdbfbc74_icgraph_org.svg" target="_base">
           <rect id="button" ry="5" rx="5" y="6" x="6" height="38" width="38"
                fill="#f2f5e9" fill-opacity="0.5" stroke="#606060" stroke-width="1.0"/>
           <path id="arrow"
             d="M 11.500037,31.436501 C 11.940474,20.09759 22.043105,11.32322 32.158766,21.979434 L 37.068811,17.246167 C 37.068811,17.246167 37.088388,32 37.088388,32 L 22.160133,31.978069 C 22.160133,31.978069 26.997745,27.140456 26.997745,27.140456 C 18.528582,18.264221 13.291696,25.230495 11.500037,31.436501 z"
             style="fill:#404040;"/>
          </a>
         </g>
        </svg>
</svg>
