<?xml version="1.0" encoding="UTF-8" standalone="no"?>
<!DOCTYPE svg PUBLIC "-//W3C//DTD SVG 1.1//EN"
 "http://www.w3.org/Graphics/SVG/1.1/DTD/svg11.dtd">
<!-- Generated by graphviz version 2.43.0 (0)
 -->
<!-- Title: QtPassSettings::isUseGit Pages: 1 -->
<svg width="677pt" height="327pt"
 viewBox="0.00 0.00 677.00 327.00" xmlns="http://www.w3.org/2000/svg" xmlns:xlink="http://www.w3.org/1999/xlink">
<g id="graph0" class="graph" transform="scale(1 1) rotate(0) translate(4 323)">
<title>QtPassSettings::isUseGit</title>
<!-- Node1 -->
<g id="Node000001" class="node">
<title>Node1</title>
<g id="a_Node000001"><a xlink:title=" ">
<polygon fill="#999999" stroke="#666666" points="669,-169 532,-169 532,-150 669,-150 669,-169"/>
<text text-anchor="middle" x="600.5" y="-157" font-family="Helvetica,sans-Serif" font-size="10.00">QtPassSettings::isUseGit</text>
</a>
</g>
</g>
<!-- Node2 -->
<g id="Node000002" class="node">
<title>Node2</title>
<g id="a_Node000002"><a xlink:href="class_config_dialog.html#a815d6d8ddf1de9386427ddef691a02a1" target="_top" xlink:title="ConfigDialog::ConfigDialog this sets up the configuration screen.">
<polygon fill="white" stroke="#666666" points="483,-319 336,-319 336,-300 483,-300 483,-319"/>
<text text-anchor="middle" x="409.5" y="-307" font-family="Helvetica,sans-Serif" font-size="10.00">ConfigDialog::ConfigDialog</text>
</a>
</g>
</g>
<!-- Node1&#45;&gt;Node2 -->
<g id="edge1_Node000001_Node000002" class="edge">
<title>Node1&#45;&gt;Node2</title>
<g id="a_edge1_Node000001_Node000002"><a xlink:title=" ">
<path fill="none" stroke="#63b8ff" d="M589.29,-178.08C573.14,-205.71 539.07,-257.38 496,-285.5 486.32,-291.82 474.97,-296.5 463.76,-299.95"/>
<polygon fill="#63b8ff" stroke="#63b8ff" points="592.51,-179.5 594.41,-169.08 586.42,-176.04 592.51,-179.5"/>
</a>
</g>
</g>
<!-- Node3 -->
<g id="Node000003" class="node">
<title>Node3</title>
<g id="a_Node000003"><a xlink:href="class_imitate_pass.html#a97538d83d4f6a583f840db0865e8609a" target="_top" xlink:title=" ">
<polygon fill="white" stroke="#666666" points="104,-261 0,-261 0,-242 104,-242 104,-261"/>
<text text-anchor="middle" x="52" y="-249" font-family="Helvetica,sans-Serif" font-size="10.00">ImitatePass::Copy</text>
</a>
</g>
</g>
<!-- Node1&#45;&gt;Node3 -->
<g id="edge2_Node000001_Node000003" class="edge">
<title>Node1&#45;&gt;Node3</title>
<g id="a_edge2_Node000001_Node000003"><a xlink:title=" ">
<path fill="none" stroke="#63b8ff" d="M586.77,-177.07C569.27,-199.55 535.43,-237.39 496,-252.5 356.68,-305.9 174.11,-277.79 93.85,-261.04"/>
<polygon fill="#63b8ff" stroke="#63b8ff" points="589.61,-179.11 592.85,-169.02 584.03,-174.89 589.61,-179.11"/>
</a>
</g>
</g>
<!-- Node4 -->
<g id="Node000004" class="node">
<title>Node4</title>
<g id="a_Node000004"><a xlink:href="class_imitate_pass.html#ae61b400e69fcc32c4a80b94fb52107b9" target="_top" xlink:title="ImitatePass::GitPush git init wrapper.">
<polygon fill="white" stroke="#666666" points="468,-206 351,-206 351,-187 468,-187 468,-206"/>
<text text-anchor="middle" x="409.5" y="-194" font-family="Helvetica,sans-Serif" font-size="10.00">ImitatePass::GitPush</text>
</a>
</g>
</g>
<!-- Node1&#45;&gt;Node4 -->
<g id="edge3_Node000001_Node000004" class="edge">
<title>Node1&#45;&gt;Node4</title>
<g id="a_edge3_Node000001_Node000004"><a xlink:title=" ">
<path fill="none" stroke="#63b8ff" d="M540.67,-171.02C514.56,-176.13 484.17,-182.08 459.34,-186.94"/>
<polygon fill="#63b8ff" stroke="#63b8ff" points="541.69,-174.38 550.83,-169.03 540.34,-167.51 541.69,-174.38"/>
</a>
</g>
</g>
<!-- Node6 -->
<g id="Node000006" class="node">
<title>Node6</title>
<g id="a_Node000006"><a xlink:href="class_imitate_pass.html#a6fe6b48df3fb04071c8c2c1d5c1d1206" target="_top" xlink:title=" ">
<polygon fill="white" stroke="#666666" points="99.5,-168 4.5,-168 4.5,-149 99.5,-149 99.5,-168"/>
<text text-anchor="middle" x="52" y="-156" font-family="Helvetica,sans-Serif" font-size="10.00">ImitatePass::Init</text>
</a>
</g>
</g>
<!-- Node1&#45;&gt;Node6 -->
<g id="edge7_Node000001_Node000006" class="edge">
<title>Node1&#45;&gt;Node6</title>
<g id="a_edge7_Node000001_Node000006"><a xlink:title=" ">
<path fill="none" stroke="#63b8ff" d="M586.77,-141.93C569.27,-119.45 535.43,-81.61 496,-66.5 336.1,-5.21 127.28,-115.02 68.82,-148.97"/>
<polygon fill="#63b8ff" stroke="#63b8ff" points="584.03,-144.11 592.85,-149.98 589.61,-139.89 584.03,-144.11"/>
</a>
</g>
</g>
<!-- Node7 -->
<g id="Node000007" class="node">
<title>Node7</title>
<g id="a_Node000007"><a xlink:href="class_imitate_pass.html#a84de97293ca1a100b1e466b4a79ec601" target="_top" xlink:title="ImitatePass::Insert create new file with encrypted content.">
<polygon fill="white" stroke="#666666" points="463,-169 356,-169 356,-150 463,-150 463,-169"/>
<text text-anchor="middle" x="409.5" y="-157" font-family="Helvetica,sans-Serif" font-size="10.00">ImitatePass::Insert</text>
</a>
</g>
</g>
<!-- Node1&#45;&gt;Node7 -->
<g id="edge8_Node000001_Node000007" class="edge">
<title>Node1&#45;&gt;Node7</title>
<g id="a_edge8_Node000001_Node000007"><a xlink:title=" ">
<path fill="none" stroke="#63b8ff" d="M521.63,-159.5C501.96,-159.5 481.3,-159.5 463.2,-159.5"/>
<polygon fill="#63b8ff" stroke="#63b8ff" points="521.8,-163 531.8,-159.5 521.8,-156 521.8,-163"/>
</a>
</g>
</g>
<!-- Node8 -->
<g id="Node000008" class="node">
<title>Node8</title>
<g id="a_Node000008"><a xlink:href="class_imitate_pass.html#a9653850cc56714b9774221204339bbf2" target="_top" xlink:title=" ">
<polygon fill="white" stroke="#666666" points="463,-132 356,-132 356,-113 463,-113 463,-132"/>
<text text-anchor="middle" x="409.5" y="-120" font-family="Helvetica,sans-Serif" font-size="10.00">ImitatePass::Move</text>
</a>
</g>
</g>
<!-- Node1&#45;&gt;Node8 -->
<g id="edge9_Node000001_Node000008" class="edge">
<title>Node1&#45;&gt;Node8</title>
<g id="a_edge9_Node000001_Node000008"><a xlink:title=" ">
<path fill="none" stroke="#63b8ff" d="M540.67,-147.98C514.56,-142.87 484.17,-136.92 459.34,-132.06"/>
<polygon fill="#63b8ff" stroke="#63b8ff" points="540.34,-151.49 550.83,-149.97 541.69,-144.62 540.34,-151.49"/>
</a>
</g>
</g>
<!-- Node9 -->
<g id="Node000009" class="node">
<title>Node9</title>
<g id="a_Node000009"><a xlink:href="class_main_window.html#a6961588ebf3c0640200e0cfa920af3be" target="_top" xlink:title="MainWindow::onPush do a git push.">
<polygon fill="white" stroke="#666666" points="469.5,-95 349.5,-95 349.5,-76 469.5,-76 469.5,-95"/>
<text text-anchor="middle" x="409.5" y="-83" font-family="Helvetica,sans-Serif" font-size="10.00">MainWindow::onPush</text>
</a>
</g>
</g>
<!-- Node1&#45;&gt;Node9 -->
<g id="edge10_Node000001_Node000009" class="edge">
<title>Node1&#45;&gt;Node9</title>
<g id="a_edge10_Node000001_Node000009"><a xlink:title=" ">
<path fill="none" stroke="#63b8ff" d="M576.47,-144.52C556.08,-131.88 525.11,-114.18 496,-103.5 486.89,-100.16 476.99,-97.36 467.26,-95.04"/>
<polygon fill="#63b8ff" stroke="#63b8ff" points="574.73,-147.56 585.05,-149.93 578.46,-141.64 574.73,-147.56"/>
</a>
</g>
</g>
<!-- Node10 -->
<g id="Node000010" class="node">
<title>Node10</title>
<g id="a_Node000010"><a xlink:href="class_imitate_pass.html#a707169592f98af60288e8df8a54f1230" target="_top" xlink:title=" ">
<polygon fill="white" stroke="#666666" points="496,-243 323,-243 323,-224 496,-224 496,-243"/>
<text text-anchor="middle" x="409.5" y="-231" font-family="Helvetica,sans-Serif" font-size="10.00">ImitatePass::reencryptSingleFile</text>
</a>
</g>
</g>
<!-- Node1&#45;&gt;Node10 -->
<g id="edge11_Node000001_Node000010" class="edge">
<title>Node1&#45;&gt;Node10</title>
<g id="a_edge11_Node000001_Node000010"><a xlink:title=" ">
<path fill="none" stroke="#63b8ff" d="M576.47,-174.48C556.08,-187.12 525.11,-204.82 496,-215.5 486.89,-218.84 476.99,-221.64 467.26,-223.96"/>
<polygon fill="#63b8ff" stroke="#63b8ff" points="578.46,-177.36 585.05,-169.07 574.73,-171.44 578.46,-177.36"/>
</a>
</g>
</g>
<!-- Node11 -->
<g id="Node000011" class="node">
<title>Node11</title>
<g id="a_Node000011"><a xlink:href="class_imitate_pass.html#ab9cef44c64dae297da55e08266f1c1c5" target="_top" xlink:title="ImitatePass::Remove custom implementation of &quot;pass remove&quot;.">
<polygon fill="white" stroke="#666666" points="469.5,-19 349.5,-19 349.5,0 469.5,0 469.5,-19"/>
<text text-anchor="middle" x="409.5" y="-7" font-family="Helvetica,sans-Serif" font-size="10.00">ImitatePass::Remove</text>
</a>
</g>
</g>
<!-- Node1&#45;&gt;Node11 -->
<g id="edge13_Node000001_Node000011" class="edge">
<title>Node1&#45;&gt;Node11</title>
<g id="a_edge13_Node000001_Node000011"><a xlink:title=" ">
<path fill="none" stroke="#63b8ff" d="M589.29,-140.92C573.14,-113.29 539.07,-61.62 496,-33.5 486.32,-27.18 474.97,-22.5 463.76,-19.05"/>
<polygon fill="#63b8ff" stroke="#63b8ff" points="586.42,-142.96 594.41,-149.92 592.51,-139.5 586.42,-142.96"/>
</a>
</g>
</g>
<!-- Node5 -->
<g id="Node000005" class="node">
<title>Node5</title>
<g id="a_Node000005"><a xlink:href="class_imitate_pass.html#af331446d163c31f1fca714646c0f6244" target="_top" xlink:title=" ">
<polygon fill="white" stroke="#666666" points="287,-224 140,-224 140,-205 287,-205 287,-224"/>
<text text-anchor="middle" x="213.5" y="-212" font-family="Helvetica,sans-Serif" font-size="10.00">ImitatePass::reencryptPath</text>
</a>
</g>
</g>
<!-- Node4&#45;&gt;Node5 -->
<g id="edge4_Node000004_Node000005" class="edge">
<title>Node4&#45;&gt;Node5</title>
<g id="a_edge4_Node000004_Node000005"><a xlink:title=" ">
<path fill="none" stroke="#63b8ff" d="M340.78,-202.78C323.43,-204.39 304.7,-206.13 287.11,-207.76"/>
<polygon fill="#63b8ff" stroke="#63b8ff" points="341.19,-206.26 350.82,-201.85 340.54,-199.29 341.19,-206.26"/>
</a>
</g>
</g>
<!-- Node5&#45;&gt;Node3 -->
<g id="edge5_Node000005_Node000003" class="edge">
<title>Node5&#45;&gt;Node3</title>
<g id="a_edge5_Node000005_Node000003"><a xlink:title=" ">
<path fill="none" stroke="#63b8ff" d="M161.68,-226.29C139.91,-231.34 114.8,-237.16 94.21,-241.94"/>
<polygon fill="#63b8ff" stroke="#63b8ff" points="162.47,-229.7 171.42,-224.03 160.89,-222.88 162.47,-229.7"/>
</a>
</g>
</g>
<!-- Node5&#45;&gt;Node6 -->
<g id="edge6_Node000005_Node000006" class="edge">
<title>Node5&#45;&gt;Node6</title>
<g id="a_edge6_Node000005_Node000006"><a xlink:title=" ">
<path fill="none" stroke="#63b8ff" d="M175.64,-201.56C146.45,-191.31 106.34,-177.23 80.06,-168"/>
<polygon fill="#63b8ff" stroke="#63b8ff" points="174.49,-204.86 185.08,-204.87 176.81,-198.26 174.49,-204.86"/>
</a>
</g>
</g>
<!-- Node10&#45;&gt;Node5 -->
<g id="edge12_Node000010_Node000005" class="edge">
<title>Node10&#45;&gt;Node5</title>
<g id="a_edge12_Node000010_Node000005"><a xlink:title=" ">
<path fill="none" stroke="#63b8ff" d="M312.79,-224.13C304.2,-223.28 295.6,-222.44 287.25,-221.63"/>
<polygon fill="#63b8ff" stroke="#63b8ff" points="312.55,-227.62 322.84,-225.11 313.23,-220.65 312.55,-227.62"/>
</a>
</g>
</g>
</g>
</svg>
