<?xml version="1.0" encoding="UTF-8" standalone="no"?>
<!DOCTYPE svg PUBLIC "-//W3C//DTD SVG 1.1//EN"
 "http://www.w3.org/Graphics/SVG/1.1/DTD/svg11.dtd">
<!-- Generated by graphviz version 2.40.1 (20161225.0304)
 -->
<!-- Title: Pass::Show Pages: 1 -->
<!--zoomable 103 -->
<svg id="main" version="1.1" xmlns="http://www.w3.org/2000/svg" xmlns:xlink="http://www.w3.org/1999/xlink" xml:space="preserve" onload="init(evt)">
<style type="text/css"><![CDATA[
.edge:hover path { stroke: red; }
.edge:hover polygon { stroke: red; fill: red; }
]]></style>
<script type="text/javascript"><![CDATA[
var edges = document.getElementsByTagName('g');
if (edges && edges.length) {
  for (var i=0;i<edges.length;i++) {
    if (edges[i].id.substr(0,4)=='edge') {
      edges[i].setAttribute('class','edge');
    }
  }
}
]]></script>
        <defs>
                <circle id="rim" cx="0" cy="0" r="7"/>
                <circle id="rim2" cx="0" cy="0" r="3.5"/>
                <g id="zoomPlus">
                        <use xlink:href="#rim" fill="#404040">
                                <set attributeName="fill" to="#808080" begin="zoomplus.mouseover" end="zoomplus.mouseout"/>
                        </use>
                        <path d="M-4,0h8M0,-4v8" fill="none" stroke="white" stroke-width="1.5" pointer-events="none"/>
                </g>
                <g id="zoomMin">
                        <use xlink:href="#rim" fill="#404040">
                                <set attributeName="fill" to="#808080" begin="zoomminus.mouseover" end="zoomminus.mouseout"/>
                        </use>
                        <path d="M-4,0h8" fill="none" stroke="white" stroke-width="1.5" pointer-events="none"/>
                </g>
                <g id="dirArrow">
                        <path fill="none" stroke="white" stroke-width="1.5" d="M0,-3.0v7 M-2.5,-0.5L0,-3.0L2.5,-0.5"/>
                </g>
               <g id="resetDef">
                       <use xlink:href="#rim2" fill="#404040">
                               <set attributeName="fill" to="#808080" begin="reset.mouseover" end="reset.mouseout"/>
                       </use>
               </g>
        </defs>

<script type="text/javascript">
var viewWidth = 588;
var viewHeight = 103;
var sectionId = 'dynsection-43';
</script>
<script xlink:href="svgpan.js"/>
<svg id="graph" class="graph">
<g id="viewport">
<title>Pass::Show</title>
<!-- Node255 -->
<g id="node1" class="node">
<title>Node255</title>
<polygon fill="#bfbfbf" stroke="#000000" points="0,-38.5 0,-56.5 68.8027,-56.5 68.8027,-38.5 0,-38.5"/>
<text text-anchor="middle" x="34.4014" y="-44.5" font-family="Helvetica,sans-Serif" font-size="10.00" fill="#000000">Pass::Show</text>
</g>
<!-- Node256 -->
<g id="node2" class="node">
<title>Node256</title>
<g id="a_node2"><a xlink:href="class_main_window.html#aeb8091ab5531144b76c1fbb0d63deb56" target="_top" xlink:title="MainWindow::config pops up the configuration screen and handles all inter&#45;window communication. ">
<polygon fill="none" stroke="#000000" points="104.8027,-76.5 104.8027,-94.5 210.2852,-94.5 210.2852,-76.5 104.8027,-76.5"/>
<text text-anchor="middle" x="157.5439" y="-82.5" font-family="Helvetica,sans-Serif" font-size="10.00" fill="#000000">MainWindow::config</text>
</a>
</g>
</g>
<!-- Node255&#45;&gt;Node256 -->
<g id="edge1" class="edge">
<title>Node255&#45;&gt;Node256</title>
<path fill="none" stroke="#191970" d="M73.6114,-59.5997C91.2904,-65.0551 111.8157,-71.3889 128.1436,-76.4275"/>
<polygon fill="#191970" stroke="#191970" points="74.1719,-56.1098 63.5844,-56.5055 72.1078,-62.7986 74.1719,-56.1098"/>
</g>
<!-- Node259 -->
<g id="node5" class="node">
<title>Node259</title>
<g id="a_node5"><a xlink:href="class_main_window.html#a4680b2cbcfd388683a98303f29c0f84f" target="_top" xlink:title="MainWindow::executePassGitInit git init wrapper. ">
<polygon fill="none" stroke="#000000" points="246.2852,-39.5 246.2852,-57.5 408.457,-57.5 408.457,-39.5 246.2852,-39.5"/>
<text text-anchor="middle" x="327.3711" y="-45.5" font-family="Helvetica,sans-Serif" font-size="10.00" fill="#000000">MainWindow::executePassGitInit</text>
</a>
</g>
</g>
<!-- Node255&#45;&gt;Node259 -->
<g id="edge6" class="edge">
<title>Node255&#45;&gt;Node259</title>
<path fill="none" stroke="#191970" d="M79.0163,-47.6523C123.2552,-47.8033 192.047,-48.0381 246.0226,-48.2223"/>
<polygon fill="#191970" stroke="#191970" points="78.8821,-44.1519 68.8702,-47.6177 78.8582,-51.1519 78.8821,-44.1519"/>
</g>
<!-- Node261 -->
<g id="node7" class="node">
<title>Node261</title>
<g id="a_node7"><a xlink:href="class_pass.html#a8dfa731be7ac962f9f6a5cf8f29097ec" target="_top" xlink:title="Pass::~Pass">
<polygon fill="none" stroke="#000000" points="121.6143,-.5 121.6143,-18.5 193.4736,-18.5 193.4736,-.5 121.6143,-.5"/>
<text text-anchor="middle" x="157.5439" y="-6.5" font-family="Helvetica,sans-Serif" font-size="10.00" fill="#000000">Pass::~Pass</text>
</a>
</g>
</g>
<!-- Node255&#45;&gt;Node261 -->
<g id="edge7" class="edge">
<title>Node255&#45;&gt;Node261</title>
<path fill="none" stroke="#191970" d="M73.6114,-35.4003C91.2904,-29.9449 111.8157,-23.6111 128.1436,-18.5725"/>
<polygon fill="#191970" stroke="#191970" points="72.1078,-32.2014 63.5844,-38.4945 74.1719,-38.8902 72.1078,-32.2014"/>
</g>
<!-- Node257 -->
<g id="node3" class="node">
<title>Node257</title>
<g id="a_node3"><a xlink:href="class_main_window.html#a23d2783cb61a373c4b0127970264290a" target="_top" xlink:title="MainWindow::checkConfig make sure we are ready to go as soon as possible. ">
<polygon fill="none" stroke="#000000" points="260.4575,-76.5 260.4575,-94.5 394.2847,-94.5 394.2847,-76.5 260.4575,-76.5"/>
<text text-anchor="middle" x="327.3711" y="-82.5" font-family="Helvetica,sans-Serif" font-size="10.00" fill="#000000">MainWindow::checkConfig</text>
</a>
</g>
</g>
<!-- Node256&#45;&gt;Node257 -->
<g id="edge2" class="edge">
<title>Node256&#45;&gt;Node257</title>
<path fill="none" stroke="#191970" d="M220.5356,-85.5C233.4653,-85.5 247.123,-85.5 260.1938,-85.5"/>
<polygon fill="#191970" stroke="#191970" points="220.3474,-82.0001 210.3474,-85.5 220.3474,-89.0001 220.3474,-82.0001"/>
</g>
<!-- Node256&#45;&gt;Node259 -->
<g id="edge4" class="edge">
<title>Node256&#45;&gt;Node259</title>
<path fill="none" stroke="#191970" d="M208.9939,-74.2907C233.642,-68.9206 262.7682,-62.5749 285.9616,-57.5218"/>
<polygon fill="#191970" stroke="#191970" points="208.114,-70.9002 199.0883,-76.4488 209.6042,-77.7397 208.114,-70.9002"/>
</g>
<!-- Node258 -->
<g id="node4" class="node">
<title>Node258</title>
<g id="a_node4"><a xlink:href="class_main_window.html#a8b244be8b7b7db1b08de2a2acb9409db" target="_top" xlink:title="MainWindow::MainWindow handles all of the main functionality and also the main window. ">
<polygon fill="none" stroke="#000000" points="444.457,-76.5 444.457,-94.5 580.4961,-94.5 580.4961,-76.5 444.457,-76.5"/>
<text text-anchor="middle" x="512.4766" y="-82.5" font-family="Helvetica,sans-Serif" font-size="10.00" fill="#000000">MainWindow::MainWindow</text>
</a>
</g>
</g>
<!-- Node257&#45;&gt;Node258 -->
<g id="edge3" class="edge">
<title>Node257&#45;&gt;Node258</title>
<path fill="none" stroke="#191970" d="M404.4806,-85.5C417.7193,-85.5 431.3918,-85.5 444.3731,-85.5"/>
<polygon fill="#191970" stroke="#191970" points="404.4602,-82.0001 394.4601,-85.5 404.4601,-89.0001 404.4602,-82.0001"/>
</g>
<!-- Node260 -->
<g id="node6" class="node">
<title>Node260</title>
<g id="a_node6"><a xlink:href="class_config_dialog.html#ad5b80066591f19fdaaa06b7cb5ba7f15" target="_top" xlink:title="ConfigDialog::wizard first&#45;time use wizard. ">
<polygon fill="none" stroke="#000000" points="458.6221,-39.5 458.6221,-57.5 566.3311,-57.5 566.3311,-39.5 458.6221,-39.5"/>
<text text-anchor="middle" x="512.4766" y="-45.5" font-family="Helvetica,sans-Serif" font-size="10.00" fill="#000000">ConfigDialog::wizard</text>
</a>
</g>
</g>
<!-- Node259&#45;&gt;Node260 -->
<g id="edge5" class="edge">
<title>Node259&#45;&gt;Node260</title>
<path fill="none" stroke="#191970" d="M418.9051,-48.5C432.4647,-48.5 446.0534,-48.5 458.5069,-48.5"/>
<polygon fill="#191970" stroke="#191970" points="418.5611,-45.0001 408.561,-48.5 418.561,-52.0001 418.5611,-45.0001"/>
</g>
</g>
</svg>
        <g id="navigator" transform="translate(0 0)" fill="#404254">
                <rect fill="#f2f5e9" fill-opacity="0.5" stroke="#606060" stroke-width=".5" x="0" y="0" width="60" height="60"/>
                <use id="zoomplus" xlink:href="#zoomPlus" x="17" y="9" onmousedown="handleZoom(evt,'in')"/>
                <use id="zoomminus" xlink:href="#zoomMin" x="42" y="9" onmousedown="handleZoom(evt,'out')"/>
                <use id="reset" xlink:href="#resetDef" x="30" y="36" onmousedown="handleReset()"/>
                <g id="arrowUp" xlink:href="#dirArrow" transform="translate(30 24)" onmousedown="handlePan(0,-1)">
                  <use xlink:href="#rim" fill="#404040">
                        <set attributeName="fill" to="#808080" begin="arrowUp.mouseover" end="arrowUp.mouseout"/>
                  </use>
                  <path fill="none" stroke="white" stroke-width="1.5" d="M0,-3.0v7 M-2.5,-0.5L0,-3.0L2.5,-0.5"/>
                </g>
                <g id="arrowRight" xlink:href="#dirArrow" transform="rotate(90) translate(36 -43)" onmousedown="handlePan(1,0)">
                  <use xlink:href="#rim" fill="#404040">
                        <set attributeName="fill" to="#808080" begin="arrowRight.mouseover" end="arrowRight.mouseout"/>
                  </use>
                  <path fill="none" stroke="white" stroke-width="1.5" d="M0,-3.0v7 M-2.5,-0.5L0,-3.0L2.5,-0.5"/>
                </g>
                <g id="arrowDown" xlink:href="#dirArrow" transform="rotate(180) translate(-30 -48)" onmousedown="handlePan(0,1)">
                  <use xlink:href="#rim" fill="#404040">
                        <set attributeName="fill" to="#808080" begin="arrowDown.mouseover" end="arrowDown.mouseout"/>
                  </use>
                  <path fill="none" stroke="white" stroke-width="1.5" d="M0,-3.0v7 M-2.5,-0.5L0,-3.0L2.5,-0.5"/>
                </g>
                <g id="arrowLeft" xlink:href="#dirArrow" transform="rotate(270) translate(-36 17)" onmousedown="handlePan(-1,0)">
                  <use xlink:href="#rim" fill="#404040">
                        <set attributeName="fill" to="#808080" begin="arrowLeft.mouseover" end="arrowLeft.mouseout"/>
                  </use>
                  <path fill="none" stroke="white" stroke-width="1.5" d="M0,-3.0v7 M-2.5,-0.5L0,-3.0L2.5,-0.5"/>
                </g>
        </g>
        <svg viewBox="0 0 15 15" width="100%" height="30px" preserveAspectRatio="xMaxYMin meet">
         <g id="arrow_out" transform="scale(0.3 0.3)">
          <a xlink:href="class_pass_a6520ffa669cd7934091934b24593d99c_icgraph_org.svg" target="_base">
           <rect id="button" ry="5" rx="5" y="6" x="6" height="38" width="38"
                fill="#f2f5e9" fill-opacity="0.5" stroke="#606060" stroke-width="1.0"/>
           <path id="arrow"
             d="M 11.500037,31.436501 C 11.940474,20.09759 22.043105,11.32322 32.158766,21.979434 L 37.068811,17.246167 C 37.068811,17.246167 37.088388,32 37.088388,32 L 22.160133,31.978069 C 22.160133,31.978069 26.997745,27.140456 26.997745,27.140456 C 18.528582,18.264221 13.291696,25.230495 11.500037,31.436501 z"
             style="fill:#404040;"/>
          </a>
         </g>
        </svg>
</svg>
