<?xml version="1.0" encoding="UTF-8" standalone="no"?>
<!DOCTYPE svg PUBLIC "-//W3C//DTD SVG 1.1//EN"
 "http://www.w3.org/Graphics/SVG/1.1/DTD/svg11.dtd">
<!-- Generated by graphviz version 2.40.1 (20161225.0304)
 -->
<!-- Title: QtPassSettings::isAutoPush Pages: 1 -->
<!--zoomable 101 -->
<svg id="main" version="1.1" xmlns="http://www.w3.org/2000/svg" xmlns:xlink="http://www.w3.org/1999/xlink" xml:space="preserve" onload="init(evt)">
<style type="text/css"><![CDATA[
.edge:hover path { stroke: red; }
.edge:hover polygon { stroke: red; fill: red; }
]]></style>
<script type="text/javascript"><![CDATA[
var edges = document.getElementsByTagName('g');
if (edges && edges.length) {
  for (var i=0;i<edges.length;i++) {
    if (edges[i].id.substr(0,4)=='edge') {
      edges[i].setAttribute('class','edge');
    }
  }
}
]]></script>
        <defs>
                <circle id="rim" cx="0" cy="0" r="7"/>
                <circle id="rim2" cx="0" cy="0" r="3.5"/>
                <g id="zoomPlus">
                        <use xlink:href="#rim" fill="#404040">
                                <set attributeName="fill" to="#808080" begin="zoomplus.mouseover" end="zoomplus.mouseout"/>
                        </use>
                        <path d="M-4,0h8M0,-4v8" fill="none" stroke="white" stroke-width="1.5" pointer-events="none"/>
                </g>
                <g id="zoomMin">
                        <use xlink:href="#rim" fill="#404040">
                                <set attributeName="fill" to="#808080" begin="zoomminus.mouseover" end="zoomminus.mouseout"/>
                        </use>
                        <path d="M-4,0h8" fill="none" stroke="white" stroke-width="1.5" pointer-events="none"/>
                </g>
                <g id="dirArrow">
                        <path fill="none" stroke="white" stroke-width="1.5" d="M0,-3.0v7 M-2.5,-0.5L0,-3.0L2.5,-0.5"/>
                </g>
               <g id="resetDef">
                       <use xlink:href="#rim2" fill="#404040">
                               <set attributeName="fill" to="#808080" begin="reset.mouseover" end="reset.mouseout"/>
                       </use>
               </g>
        </defs>

<script type="text/javascript">
var viewWidth = 691;
var viewHeight = 101;
var sectionId = 'dynsection-32';
</script>
<script xlink:href="svgpan.js"/>
<svg id="graph" class="graph">
<g id="viewport">
<title>QtPassSettings::isAutoPush</title>
<!-- Node247 -->
<g id="node1" class="node">
<title>Node247</title>
<polygon fill="#bfbfbf" stroke="#000000" points="0,-37.5 0,-55.5 141.0635,-55.5 141.0635,-37.5 0,-37.5"/>
<text text-anchor="middle" x="70.5317" y="-43.5" font-family="Helvetica,sans-Serif" font-size="10.00" fill="#000000">QtPassSettings::isAutoPush</text>
</g>
<!-- Node248 -->
<g id="node2" class="node">
<title>Node248</title>
<g id="a_node2"><a xlink:href="class_imitate_pass.html#a8670f6326e3dfe0018a0737fba27da2f" target="_top" xlink:title="ImitatePass::reencryptPath reencrypt all files under the chosen directory. ">
<polygon fill="none" stroke="#000000" points="177.0635,-74.5 177.0635,-92.5 313.1172,-92.5 313.1172,-74.5 177.0635,-74.5"/>
<text text-anchor="middle" x="245.0903" y="-80.5" font-family="Helvetica,sans-Serif" font-size="10.00" fill="#000000">ImitatePass::reencryptPath</text>
</a>
</g>
</g>
<!-- Node247&#45;&gt;Node248 -->
<g id="edge1" class="edge">
<title>Node247&#45;&gt;Node248</title>
<path fill="none" stroke="#191970" d="M123.0776,-57.6378C148.4836,-63.0229 178.5816,-69.4026 202.5272,-74.4782"/>
<polygon fill="#191970" stroke="#191970" points="123.742,-54.2009 113.2336,-55.5512 122.2905,-61.0488 123.742,-54.2009"/>
</g>
<!-- Node250 -->
<g id="node4" class="node">
<title>Node250</title>
<g id="a_node4"><a xlink:href="class_main_window.html#aeb8091ab5531144b76c1fbb0d63deb56" target="_top" xlink:title="MainWindow::config pops up the configuration screen and handles all inter&#45;window communication. ">
<polygon fill="none" stroke="#000000" points="192.3491,-37.5 192.3491,-55.5 297.8315,-55.5 297.8315,-37.5 192.3491,-37.5"/>
<text text-anchor="middle" x="245.0903" y="-43.5" font-family="Helvetica,sans-Serif" font-size="10.00" fill="#000000">MainWindow::config</text>
</a>
</g>
</g>
<!-- Node247&#45;&gt;Node250 -->
<g id="edge3" class="edge">
<title>Node247&#45;&gt;Node250</title>
<path fill="none" stroke="#191970" d="M151.3265,-46.5C165.2052,-46.5 179.3038,-46.5 192.2081,-46.5"/>
<polygon fill="#191970" stroke="#191970" points="151.2798,-43.0001 141.2798,-46.5 151.2797,-50.0001 151.2798,-43.0001"/>
</g>
<!-- Node253 -->
<g id="node7" class="node">
<title>Node253</title>
<g id="a_node7"><a xlink:href="class_main_window.html#a4680b2cbcfd388683a98303f29c0f84f" target="_top" xlink:title="MainWindow::executePassGitInit git init wrapper. ">
<polygon fill="none" stroke="#000000" points="349.1172,-.5 349.1172,-18.5 511.2891,-18.5 511.2891,-.5 349.1172,-.5"/>
<text text-anchor="middle" x="430.2031" y="-6.5" font-family="Helvetica,sans-Serif" font-size="10.00" fill="#000000">MainWindow::executePassGitInit</text>
</a>
</g>
</g>
<!-- Node247&#45;&gt;Node253 -->
<g id="edge8" class="edge">
<title>Node247&#45;&gt;Node253</title>
<path fill="none" stroke="#191970" d="M125.0554,-35.6346C141.695,-32.6271 160.0806,-29.6123 177.0635,-27.5 234.3392,-20.3762 299.283,-15.8298 349.049,-13.0883"/>
<polygon fill="#191970" stroke="#191970" points="124.1481,-32.2428 114.9486,-37.4982 125.4175,-39.1268 124.1481,-32.2428"/>
</g>
<!-- Node249 -->
<g id="node3" class="node">
<title>Node249</title>
<g id="a_node3"><a xlink:href="class_imitate_pass.html#af4d70979dc11ccdee6cec699fb20d942" target="_top" xlink:title="ImitatePass::~ImitatePass">
<polygon fill="none" stroke="#000000" points="364.2637,-74.5 364.2637,-92.5 496.1426,-92.5 496.1426,-74.5 364.2637,-74.5"/>
<text text-anchor="middle" x="430.2031" y="-80.5" font-family="Helvetica,sans-Serif" font-size="10.00" fill="#000000">ImitatePass::~ImitatePass</text>
</a>
</g>
</g>
<!-- Node248&#45;&gt;Node249 -->
<g id="edge2" class="edge">
<title>Node248&#45;&gt;Node249</title>
<path fill="none" stroke="#191970" d="M323.4648,-83.5C336.9788,-83.5 350.9059,-83.5 364.0567,-83.5"/>
<polygon fill="#191970" stroke="#191970" points="323.2309,-80.0001 313.2309,-83.5 323.2308,-87.0001 323.2309,-80.0001"/>
</g>
<!-- Node251 -->
<g id="node5" class="node">
<title>Node251</title>
<g id="a_node5"><a xlink:href="class_main_window.html#a23d2783cb61a373c4b0127970264290a" target="_top" xlink:title="MainWindow::checkConfig make sure we are ready to go as soon as possible. ">
<polygon fill="none" stroke="#000000" points="363.2896,-37.5 363.2896,-55.5 497.1167,-55.5 497.1167,-37.5 363.2896,-37.5"/>
<text text-anchor="middle" x="430.2031" y="-43.5" font-family="Helvetica,sans-Serif" font-size="10.00" fill="#000000">MainWindow::checkConfig</text>
</a>
</g>
</g>
<!-- Node250&#45;&gt;Node251 -->
<g id="edge4" class="edge">
<title>Node250&#45;&gt;Node251</title>
<path fill="none" stroke="#191970" d="M308.3566,-46.5C326.0665,-46.5 345.3714,-46.5 363.2853,-46.5"/>
<polygon fill="#191970" stroke="#191970" points="308.1363,-43.0001 298.1362,-46.5 308.1362,-50.0001 308.1363,-43.0001"/>
</g>
<!-- Node250&#45;&gt;Node253 -->
<g id="edge6" class="edge">
<title>Node250&#45;&gt;Node253</title>
<path fill="none" stroke="#191970" d="M300.4559,-35.4336C327.4728,-30.0335 359.5608,-23.6199 385.0665,-18.5218"/>
<polygon fill="#191970" stroke="#191970" points="299.494,-32.0566 290.374,-37.4488 300.8661,-38.9208 299.494,-32.0566"/>
</g>
<!-- Node252 -->
<g id="node6" class="node">
<title>Node252</title>
<g id="a_node6"><a xlink:href="class_main_window.html#a8b244be8b7b7db1b08de2a2acb9409db" target="_top" xlink:title="MainWindow::MainWindow handles all of the main functionality and also the main window. ">
<polygon fill="none" stroke="#000000" points="547.2891,-37.5 547.2891,-55.5 683.3281,-55.5 683.3281,-37.5 547.2891,-37.5"/>
<text text-anchor="middle" x="615.3086" y="-43.5" font-family="Helvetica,sans-Serif" font-size="10.00" fill="#000000">MainWindow::MainWindow</text>
</a>
</g>
</g>
<!-- Node251&#45;&gt;Node252 -->
<g id="edge5" class="edge">
<title>Node251&#45;&gt;Node252</title>
<path fill="none" stroke="#191970" d="M507.3127,-46.5C520.5514,-46.5 534.2239,-46.5 547.2051,-46.5"/>
<polygon fill="#191970" stroke="#191970" points="507.2922,-43.0001 497.2922,-46.5 507.2921,-50.0001 507.2922,-43.0001"/>
</g>
<!-- Node254 -->
<g id="node8" class="node">
<title>Node254</title>
<g id="a_node8"><a xlink:href="class_config_dialog.html#ad5b80066591f19fdaaa06b7cb5ba7f15" target="_top" xlink:title="ConfigDialog::wizard first&#45;time use wizard. ">
<polygon fill="none" stroke="#000000" points="561.4541,-.5 561.4541,-18.5 669.1631,-18.5 669.1631,-.5 561.4541,-.5"/>
<text text-anchor="middle" x="615.3086" y="-6.5" font-family="Helvetica,sans-Serif" font-size="10.00" fill="#000000">ConfigDialog::wizard</text>
</a>
</g>
</g>
<!-- Node253&#45;&gt;Node254 -->
<g id="edge7" class="edge">
<title>Node253&#45;&gt;Node254</title>
<path fill="none" stroke="#191970" d="M521.7372,-9.5C535.2967,-9.5 548.8854,-9.5 561.3389,-9.5"/>
<polygon fill="#191970" stroke="#191970" points="521.3931,-6.0001 511.3931,-9.5 521.393,-13.0001 521.3931,-6.0001"/>
</g>
</g>
</svg>
        <g id="navigator" transform="translate(0 0)" fill="#404254">
                <rect fill="#f2f5e9" fill-opacity="0.5" stroke="#606060" stroke-width=".5" x="0" y="0" width="60" height="60"/>
                <use id="zoomplus" xlink:href="#zoomPlus" x="17" y="9" onmousedown="handleZoom(evt,'in')"/>
                <use id="zoomminus" xlink:href="#zoomMin" x="42" y="9" onmousedown="handleZoom(evt,'out')"/>
                <use id="reset" xlink:href="#resetDef" x="30" y="36" onmousedown="handleReset()"/>
                <g id="arrowUp" xlink:href="#dirArrow" transform="translate(30 24)" onmousedown="handlePan(0,-1)">
                  <use xlink:href="#rim" fill="#404040">
                        <set attributeName="fill" to="#808080" begin="arrowUp.mouseover" end="arrowUp.mouseout"/>
                  </use>
                  <path fill="none" stroke="white" stroke-width="1.5" d="M0,-3.0v7 M-2.5,-0.5L0,-3.0L2.5,-0.5"/>
                </g>
                <g id="arrowRight" xlink:href="#dirArrow" transform="rotate(90) translate(36 -43)" onmousedown="handlePan(1,0)">
                  <use xlink:href="#rim" fill="#404040">
                        <set attributeName="fill" to="#808080" begin="arrowRight.mouseover" end="arrowRight.mouseout"/>
                  </use>
                  <path fill="none" stroke="white" stroke-width="1.5" d="M0,-3.0v7 M-2.5,-0.5L0,-3.0L2.5,-0.5"/>
                </g>
                <g id="arrowDown" xlink:href="#dirArrow" transform="rotate(180) translate(-30 -48)" onmousedown="handlePan(0,1)">
                  <use xlink:href="#rim" fill="#404040">
                        <set attributeName="fill" to="#808080" begin="arrowDown.mouseover" end="arrowDown.mouseout"/>
                  </use>
                  <path fill="none" stroke="white" stroke-width="1.5" d="M0,-3.0v7 M-2.5,-0.5L0,-3.0L2.5,-0.5"/>
                </g>
                <g id="arrowLeft" xlink:href="#dirArrow" transform="rotate(270) translate(-36 17)" onmousedown="handlePan(-1,0)">
                  <use xlink:href="#rim" fill="#404040">
                        <set attributeName="fill" to="#808080" begin="arrowLeft.mouseover" end="arrowLeft.mouseout"/>
                  </use>
                  <path fill="none" stroke="white" stroke-width="1.5" d="M0,-3.0v7 M-2.5,-0.5L0,-3.0L2.5,-0.5"/>
                </g>
        </g>
        <svg viewBox="0 0 15 15" width="100%" height="30px" preserveAspectRatio="xMaxYMin meet">
         <g id="arrow_out" transform="scale(0.3 0.3)">
          <a xlink:href="class_qt_pass_settings_ab175512f2db3230fe60396ed0d1e9c14_icgraph_org.svg" target="_base">
           <rect id="button" ry="5" rx="5" y="6" x="6" height="38" width="38"
                fill="#f2f5e9" fill-opacity="0.5" stroke="#606060" stroke-width="1.0"/>
           <path id="arrow"
             d="M 11.500037,31.436501 C 11.940474,20.09759 22.043105,11.32322 32.158766,21.979434 L 37.068811,17.246167 C 37.068811,17.246167 37.088388,32 37.088388,32 L 22.160133,31.978069 C 22.160133,31.978069 26.997745,27.140456 26.997745,27.140456 C 18.528582,18.264221 13.291696,25.230495 11.500037,31.436501 z"
             style="fill:#404040;"/>
          </a>
         </g>
        </svg>
</svg>
