<?xml version="1.0" encoding="UTF-8" standalone="no"?>
<!DOCTYPE svg PUBLIC "-//W3C//DTD SVG 1.1//EN"
 "http://www.w3.org/Graphics/SVG/1.1/DTD/svg11.dtd">
<!-- Generated by graphviz version 2.38.0 (20140413.2041)
 -->
<!-- Title: QtPassSettings::getVersion Pages: 1 -->
<svg width="488pt" height="27pt"
 viewBox="0.00 0.00 487.60 27.00" xmlns="http://www.w3.org/2000/svg" xmlns:xlink="http://www.w3.org/1999/xlink">
<g id="graph0" class="graph" transform="scale(1 1) rotate(0) translate(4 23)">
<title>QtPassSettings::getVersion</title>
<!-- Node185 -->
<g id="node1" class="node"><title>Node185</title>
<polygon fill="#bfbfbf" stroke="black" points="0,-0.5 0,-18.5 137.738,-18.5 137.738,-0.5 0,-0.5"/>
<text text-anchor="middle" x="68.8691" y="-6.5" font-family="Helvetica,sans-Serif" font-size="10.00">QtPassSettings::getVersion</text>
</g>
<!-- Node186 -->
<g id="node2" class="node"><title>Node186</title>
<g id="a_node2"><a xlink:href="class_main_window.html#a23d2783cb61a373c4b0127970264290a" target="_top" xlink:title="MainWindow::checkConfig make sure we are ready to go as soon as possible. ">
<polygon fill="none" stroke="black" points="173.738,-0.5 173.738,-18.5 307.565,-18.5 307.565,-0.5 173.738,-0.5"/>
<text text-anchor="middle" x="240.652" y="-6.5" font-family="Helvetica,sans-Serif" font-size="10.00">MainWindow::checkConfig</text>
</a>
</g>
</g>
<!-- Node185&#45;&gt;Node186 -->
<g id="edge1" class="edge"><title>Node185&#45;&gt;Node186</title>
<path fill="none" stroke="midnightblue" d="M148.197,-9.5C156.654,-9.5 165.198,-9.5 173.491,-9.5"/>
<polygon fill="midnightblue" stroke="midnightblue" points="147.948,-6.0001 137.948,-9.5 147.948,-13.0001 147.948,-6.0001"/>
</g>
<!-- Node187 -->
<g id="node3" class="node"><title>Node187</title>
<g id="a_node3"><a xlink:href="class_main_window.html#a8b244be8b7b7db1b08de2a2acb9409db" target="_top" xlink:title="MainWindow::MainWindow handles all of the main functionality and also the main window. ">
<polygon fill="none" stroke="black" points="343.565,-0.5 343.565,-18.5 479.604,-18.5 479.604,-0.5 343.565,-0.5"/>
<text text-anchor="middle" x="411.585" y="-6.5" font-family="Helvetica,sans-Serif" font-size="10.00">MainWindow::MainWindow</text>
</a>
</g>
</g>
<!-- Node186&#45;&gt;Node187 -->
<g id="edge2" class="edge"><title>Node186&#45;&gt;Node187</title>
<path fill="none" stroke="midnightblue" d="M318.133,-9.5C326.556,-9.5 335.086,-9.5 343.384,-9.5"/>
<polygon fill="midnightblue" stroke="midnightblue" points="317.934,-6.0001 307.934,-9.5 317.934,-13.0001 317.934,-6.0001"/>
</g>
</g>
</svg>
