<?xml version="1.0" encoding="UTF-8" standalone="no"?>
<!DOCTYPE svg PUBLIC "-//W3C//DTD SVG 1.1//EN"
 "http://www.w3.org/Graphics/SVG/1.1/DTD/svg11.dtd">
<!-- Generated by graphviz version 2.44.0 (20200408.0750)
 -->
<!-- Title: QtPassSettings::getGpgHome Pages: 1 -->
<svg width="941pt" height="318pt"
 viewBox="0.00 0.00 941.00 317.50" xmlns="http://www.w3.org/2000/svg" xmlns:xlink="http://www.w3.org/1999/xlink">
<g id="graph0" class="graph" transform="scale(1 1) rotate(0) translate(4 313.5)">
<title>QtPassSettings::getGpgHome</title>
<!-- Node1 -->
<g id="node1" class="node">
<title>Node1</title>
<g id="a_node1"><a xlink:title=" ">
<polygon fill="#bfbfbf" stroke="black" points="784,-157 784,-176 933,-176 933,-157 784,-157"/>
<text text-anchor="middle" x="858.5" y="-164" font-family="Helvetica,sans-Serif" font-size="10.00">QtPassSettings::getGpgHome</text>
</a>
</g>
</g>
<!-- Node2 -->
<g id="node2" class="node">
<title>Node2</title>
<g id="a_node2"><a xlink:href="class_pass.html#a012c47a55b3cc3467ad0f013716f623a" target="_top" xlink:title=" ">
<polygon fill="none" stroke="black" points="690,-157 690,-176 748,-176 748,-157 690,-157"/>
<text text-anchor="middle" x="719" y="-164" font-family="Helvetica,sans-Serif" font-size="10.00">Pass::init</text>
</a>
</g>
</g>
<!-- Node1&#45;&gt;Node2 -->
<g id="edge1" class="edge">
<title>Node1&#45;&gt;Node2</title>
<path fill="none" stroke="midnightblue" d="M773.82,-166.5C764.62,-166.5 755.8,-166.5 748.05,-166.5"/>
<polygon fill="midnightblue" stroke="midnightblue" points="773.92,-170 783.92,-166.5 773.92,-163 773.92,-170"/>
</g>
<!-- Node3 -->
<g id="node3" class="node">
<title>Node3</title>
<g id="a_node3"><a xlink:href="class_qt_pass_settings.html#a987e913eac7cd497e2fca27426494a64" target="_top" xlink:title=" ">
<polygon fill="none" stroke="black" points="526,-157 526,-176 654,-176 654,-157 526,-157"/>
<text text-anchor="middle" x="590" y="-164" font-family="Helvetica,sans-Serif" font-size="10.00">QtPassSettings::getPass</text>
</a>
</g>
</g>
<!-- Node2&#45;&gt;Node3 -->
<g id="edge2" class="edge">
<title>Node2&#45;&gt;Node3</title>
<path fill="none" stroke="midnightblue" d="M679.65,-166.5C671.59,-166.5 662.89,-166.5 654.19,-166.5"/>
<polygon fill="midnightblue" stroke="midnightblue" points="679.81,-170 689.81,-166.5 679.81,-163 679.81,-170"/>
</g>
<!-- Node4 -->
<g id="node4" class="node">
<title>Node4</title>
<g id="a_node4"><a xlink:href="class_users_dialog.html#a70580643923a96208b6bbae18d4aa0f3" target="_top" xlink:title="UsersDialog::accept.">
<polygon fill="none" stroke="black" points="368.5,-290 368.5,-309 474.5,-309 474.5,-290 368.5,-290"/>
<text text-anchor="middle" x="421.5" y="-297" font-family="Helvetica,sans-Serif" font-size="10.00">UsersDialog::accept</text>
</a>
</g>
</g>
<!-- Node3&#45;&gt;Node4 -->
<g id="edge3" class="edge">
<title>Node3&#45;&gt;Node4</title>
<path fill="none" stroke="midnightblue" d="M576.92,-184.61C560.08,-208.55 527.38,-250.61 490,-275.5 480.89,-281.57 470.07,-286.3 459.79,-289.9"/>
<polygon fill="midnightblue" stroke="midnightblue" points="579.98,-186.33 582.76,-176.11 574.21,-182.37 579.98,-186.33"/>
</g>
<!-- Node5 -->
<g id="node5" class="node">
<title>Node5</title>
<g id="a_node5"><a xlink:href="class_users_dialog.html#a7a3d75a01a48609ce7571cec09b95f07" target="_top" xlink:title="UsersDialog::UsersDialog basic constructor.">
<polygon fill="none" stroke="black" points="178.5,-271 178.5,-290 309.5,-290 309.5,-271 178.5,-271"/>
<text text-anchor="middle" x="244" y="-278" font-family="Helvetica,sans-Serif" font-size="10.00">UsersDialog::UsersDialog</text>
</a>
</g>
</g>
<!-- Node3&#45;&gt;Node5 -->
<g id="edge14" class="edge">
<title>Node3&#45;&gt;Node5</title>
<path fill="none" stroke="midnightblue" d="M572.7,-183.27C554.36,-201.05 522.8,-228.47 490,-242.5 432.12,-267.26 360.42,-276.13 309.57,-279.19"/>
<polygon fill="midnightblue" stroke="midnightblue" points="575.31,-185.61 579.94,-176.08 570.38,-180.64 575.31,-185.61"/>
</g>
<!-- Node6 -->
<g id="node6" class="node">
<title>Node6</title>
<g id="a_node6"><a xlink:href="class_main_window.html#aeb8091ab5531144b76c1fbb0d63deb56" target="_top" xlink:title="MainWindow::config pops up the configuration screen and handles all inter&#45;window communication.">
<polygon fill="none" stroke="black" points="369,-214 369,-233 474,-233 474,-214 369,-214"/>
<text text-anchor="middle" x="421.5" y="-221" font-family="Helvetica,sans-Serif" font-size="10.00">MainWindow::config</text>
</a>
</g>
</g>
<!-- Node3&#45;&gt;Node6 -->
<g id="edge5" class="edge">
<title>Node3&#45;&gt;Node6</title>
<path fill="none" stroke="midnightblue" d="M551.63,-179.29C520.97,-189.79 478.23,-204.42 450.46,-213.93"/>
<polygon fill="midnightblue" stroke="midnightblue" points="552.8,-182.59 561.13,-176.04 550.54,-175.97 552.8,-182.59"/>
</g>
<!-- Node8 -->
<g id="node8" class="node">
<title>Node8</title>
<g id="a_node8"><a xlink:href="class_main_window.html#a52e97245b2f88492071e639395c4a15a" target="_top" xlink:title="MainWindow::MainWindow handles all of the main functionality and also the main window.">
<polygon fill="none" stroke="black" points="0,-195 0,-214 135,-214 135,-195 0,-195"/>
<text text-anchor="middle" x="67.5" y="-202" font-family="Helvetica,sans-Serif" font-size="10.00">MainWindow::MainWindow</text>
</a>
</g>
</g>
<!-- Node3&#45;&gt;Node8 -->
<g id="edge9" class="edge">
<title>Node3&#45;&gt;Node8</title>
<path fill="none" stroke="midnightblue" d="M515.81,-171.84C414.46,-179.24 232.87,-192.5 135.13,-199.64"/>
<polygon fill="midnightblue" stroke="midnightblue" points="516.24,-175.32 525.96,-171.1 515.73,-168.34 516.24,-175.32"/>
</g>
<!-- Node9 -->
<g id="node9" class="node">
<title>Node9</title>
<g id="a_node9"><a xlink:href="class_store_model.html#a17f8db58298e985732d92a2e0e76b821" target="_top" xlink:title="StoreModel::dropMimeData.">
<polygon fill="none" stroke="black" points="353.5,-138 353.5,-157 489.5,-157 489.5,-138 353.5,-138"/>
<text text-anchor="middle" x="421.5" y="-145" font-family="Helvetica,sans-Serif" font-size="10.00">StoreModel::dropMimeData</text>
</a>
</g>
</g>
<!-- Node3&#45;&gt;Node9 -->
<g id="edge8" class="edge">
<title>Node3&#45;&gt;Node9</title>
<path fill="none" stroke="midnightblue" d="M515.54,-158.12C506.92,-157.13 498.15,-156.13 489.62,-155.16"/>
<polygon fill="midnightblue" stroke="midnightblue" points="515.25,-161.61 525.58,-159.26 516.04,-154.65 515.25,-161.61"/>
</g>
<!-- Node10 -->
<g id="node10" class="node">
<title>Node10</title>
<g id="a_node10"><a xlink:href="class_main_window.html#adc7d4b2b210efab401f0b14641f80464" target="_top" xlink:title="MainWindow::on_treeView_clicked read the selected password file.">
<polygon fill="none" stroke="black" points="355,-88.5 355,-118.5 488,-118.5 488,-88.5 355,-88.5"/>
<text text-anchor="start" x="363" y="-106.5" font-family="Helvetica,sans-Serif" font-size="10.00">MainWindow::on_treeView</text>
<text text-anchor="middle" x="421.5" y="-95.5" font-family="Helvetica,sans-Serif" font-size="10.00">_clicked</text>
</a>
</g>
</g>
<!-- Node3&#45;&gt;Node10 -->
<g id="edge10" class="edge">
<title>Node3&#45;&gt;Node10</title>
<path fill="none" stroke="midnightblue" d="M554.76,-153.24C535.71,-145.9 511.56,-136.63 490,-128.5 481.46,-125.28 472.31,-121.87 463.58,-118.63"/>
<polygon fill="midnightblue" stroke="midnightblue" points="553.62,-156.56 564.21,-156.89 556.14,-150.03 553.62,-156.56"/>
</g>
<!-- Node12 -->
<g id="node12" class="node">
<title>Node12</title>
<g id="a_node12"><a xlink:href="class_main_window.html#a6961588ebf3c0640200e0cfa920af3be" target="_top" xlink:title="MainWindow::onPush do a git push.">
<polygon fill="none" stroke="black" points="365.5,-50 365.5,-69 477.5,-69 477.5,-50 365.5,-50"/>
<text text-anchor="middle" x="421.5" y="-57" font-family="Helvetica,sans-Serif" font-size="10.00">MainWindow::onPush</text>
</a>
</g>
</g>
<!-- Node3&#45;&gt;Node12 -->
<g id="edge12" class="edge">
<title>Node3&#45;&gt;Node12</title>
<path fill="none" stroke="midnightblue" d="M573.96,-149.03C555.94,-129.14 523.89,-97.04 490,-78.5 483.06,-74.7 475.29,-71.61 467.56,-69.11"/>
<polygon fill="midnightblue" stroke="midnightblue" points="571.54,-151.57 580.79,-156.72 576.77,-146.92 571.54,-151.57"/>
</g>
<!-- Node13 -->
<g id="node13" class="node">
<title>Node13</title>
<g id="a_node13"><a xlink:href="class_password_dialog.html#a859a78e62204698556204b9e20932010" target="_top" xlink:title="PasswordDialog::PasswordDialog basic constructor.">
<polygon fill="none" stroke="black" points="353,-0.5 353,-30.5 490,-30.5 490,-0.5 353,-0.5"/>
<text text-anchor="start" x="361" y="-18.5" font-family="Helvetica,sans-Serif" font-size="10.00">PasswordDialog::Password</text>
<text text-anchor="middle" x="421.5" y="-7.5" font-family="Helvetica,sans-Serif" font-size="10.00">Dialog</text>
</a>
</g>
</g>
<!-- Node3&#45;&gt;Node13 -->
<g id="edge13" class="edge">
<title>Node3&#45;&gt;Node13</title>
<path fill="none" stroke="midnightblue" d="M578.91,-147.94C563.26,-120.75 530.65,-70.12 490,-40.5 484.75,-36.67 478.85,-33.37 472.77,-30.53"/>
<polygon fill="midnightblue" stroke="midnightblue" points="575.95,-149.81 583.9,-156.81 582.05,-146.38 575.95,-149.81"/>
</g>
<!-- Node4&#45;&gt;Node5 -->
<g id="edge4" class="edge">
<title>Node4&#45;&gt;Node5</title>
<path fill="none" stroke="midnightblue" d="M358.19,-292.75C342.47,-291.05 325.56,-289.22 309.73,-287.51"/>
<polygon fill="midnightblue" stroke="midnightblue" points="358,-296.25 368.32,-293.85 358.75,-289.29 358,-296.25"/>
</g>
<!-- Node7 -->
<g id="node7" class="node">
<title>Node7</title>
<g id="a_node7"><a xlink:href="class_qt_pass.html#a49e2861160fdb8d614231933f60fac47" target="_top" xlink:title="QtPass::init make sure we are ready to go as soon as possible.">
<polygon fill="none" stroke="black" points="210,-214 210,-233 278,-233 278,-214 210,-214"/>
<text text-anchor="middle" x="244" y="-221" font-family="Helvetica,sans-Serif" font-size="10.00">QtPass::init</text>
</a>
</g>
</g>
<!-- Node6&#45;&gt;Node7 -->
<g id="edge6" class="edge">
<title>Node6&#45;&gt;Node7</title>
<path fill="none" stroke="midnightblue" d="M358.6,-223.5C331.49,-223.5 300.76,-223.5 278.1,-223.5"/>
<polygon fill="midnightblue" stroke="midnightblue" points="358.79,-227 368.79,-223.5 358.79,-220 358.79,-227"/>
</g>
<!-- Node7&#45;&gt;Node8 -->
<g id="edge7" class="edge">
<title>Node7&#45;&gt;Node8</title>
<path fill="none" stroke="midnightblue" d="M199.69,-218.78C180.23,-216.67 156.83,-214.12 135.21,-211.76"/>
<polygon fill="midnightblue" stroke="midnightblue" points="199.45,-222.28 209.77,-219.88 200.2,-215.32 199.45,-222.28"/>
</g>
<!-- Node11 -->
<g id="node11" class="node">
<title>Node11</title>
<g id="a_node11"><a xlink:href="class_main_window.html#a9c4f542263838b9ecd06eae839a42a34" target="_top" xlink:title="MainWindow::keyPressEvent did anyone press return, enter or escape?">
<polygon fill="none" stroke="black" points="171,-94 171,-113 317,-113 317,-94 171,-94"/>
<text text-anchor="middle" x="244" y="-101" font-family="Helvetica,sans-Serif" font-size="10.00">MainWindow::keyPressEvent</text>
</a>
</g>
</g>
<!-- Node10&#45;&gt;Node11 -->
<g id="edge11" class="edge">
<title>Node10&#45;&gt;Node11</title>
<path fill="none" stroke="midnightblue" d="M344.48,-103.5C335.39,-103.5 326.13,-103.5 317.1,-103.5"/>
<polygon fill="midnightblue" stroke="midnightblue" points="344.65,-107 354.65,-103.5 344.65,-100 344.65,-107"/>
</g>
</g>
</svg>
