<?xml version="1.0" encoding="UTF-8" standalone="no"?>
<!DOCTYPE svg PUBLIC "-//W3C//DTD SVG 1.1//EN"
 "http://www.w3.org/Graphics/SVG/1.1/DTD/svg11.dtd">
<!-- Generated by graphviz version 2.40.1 (20161225.0304)
 -->
<!-- Title: ImitatePass Pages: 1 -->
<svg width="76pt" height="137pt"
 viewBox="0.00 0.00 76.24 137.00" xmlns="http://www.w3.org/2000/svg" xmlns:xlink="http://www.w3.org/1999/xlink">
<g id="graph0" class="graph" transform="scale(1 1) rotate(0) translate(4 133)">
<title>ImitatePass</title>
<!-- Node0 -->
<g id="node1" class="node">
<title>Node0</title>
<polygon fill="#bfbfbf" stroke="#000000" points="0,-.5 0,-18.5 68.2412,-18.5 68.2412,-.5 0,-.5"/>
<text text-anchor="middle" x="34.1206" y="-6.5" font-family="Helvetica,sans-Serif" font-size="10.00" fill="#000000">ImitatePass</text>
</g>
<!-- Node1 -->
<g id="node2" class="node">
<title>Node1</title>
<g id="a_node2"><a xlink:href="class_pass.html" target="_top" xlink:title="Acts as an abstraction for pass or pass imitation. ">
<polygon fill="none" stroke="#000000" points="15.0049,-55.5 15.0049,-73.5 53.2363,-73.5 53.2363,-55.5 15.0049,-55.5"/>
<text text-anchor="middle" x="34.1206" y="-61.5" font-family="Helvetica,sans-Serif" font-size="10.00" fill="#000000">Pass</text>
</a>
</g>
</g>
<!-- Node1&#45;&gt;Node0 -->
<g id="edge1" class="edge">
<title>Node1&#45;&gt;Node0</title>
<path fill="none" stroke="#191970" d="M34.1206,-45.383C34.1206,-36.3738 34.1206,-26.0373 34.1206,-18.7795"/>
<polygon fill="#191970" stroke="#191970" points="30.6207,-45.4178 34.1206,-55.4179 37.6207,-45.4179 30.6207,-45.4178"/>
</g>
<!-- Node2 -->
<g id="node3" class="node">
<title>Node2</title>
<polygon fill="none" stroke="#bfbfbf" points="7.7808,-110.5 7.7808,-128.5 60.4604,-128.5 60.4604,-110.5 7.7808,-110.5"/>
<text text-anchor="middle" x="34.1206" y="-116.5" font-family="Helvetica,sans-Serif" font-size="10.00" fill="#000000">QObject</text>
</g>
<!-- Node2&#45;&gt;Node1 -->
<g id="edge2" class="edge">
<title>Node2&#45;&gt;Node1</title>
<path fill="none" stroke="#191970" d="M34.1206,-100.383C34.1206,-91.3738 34.1206,-81.0373 34.1206,-73.7795"/>
<polygon fill="#191970" stroke="#191970" points="30.6207,-100.4178 34.1206,-110.4179 37.6207,-100.4179 30.6207,-100.4178"/>
</g>
</g>
</svg>
