<?xml version="1.0" encoding="UTF-8" standalone="no"?>
<!DOCTYPE svg PUBLIC "-//W3C//DTD SVG 1.1//EN"
 "http://www.w3.org/Graphics/SVG/1.1/DTD/svg11.dtd">
<!-- Generated by graphviz version 2.40.1 (20161225.0304)
 -->
<!-- Title: QtPassSettings::getGpgExecutable Pages: 1 -->
<!--zoomable 299 -->
<svg id="main" version="1.1" xmlns="http://www.w3.org/2000/svg" xmlns:xlink="http://www.w3.org/1999/xlink" xml:space="preserve" onload="init(evt)">
<style type="text/css"><![CDATA[
.edge:hover path { stroke: red; }
.edge:hover polygon { stroke: red; fill: red; }
]]></style>
<script type="text/javascript"><![CDATA[
var edges = document.getElementsByTagName('g');
if (edges && edges.length) {
  for (var i=0;i<edges.length;i++) {
    if (edges[i].id.substr(0,4)=='edge') {
      edges[i].setAttribute('class','edge');
    }
  }
}
]]></script>
        <defs>
                <circle id="rim" cx="0" cy="0" r="7"/>
                <circle id="rim2" cx="0" cy="0" r="3.5"/>
                <g id="zoomPlus">
                        <use xlink:href="#rim" fill="#404040">
                                <set attributeName="fill" to="#808080" begin="zoomplus.mouseover" end="zoomplus.mouseout"/>
                        </use>
                        <path d="M-4,0h8M0,-4v8" fill="none" stroke="white" stroke-width="1.5" pointer-events="none"/>
                </g>
                <g id="zoomMin">
                        <use xlink:href="#rim" fill="#404040">
                                <set attributeName="fill" to="#808080" begin="zoomminus.mouseover" end="zoomminus.mouseout"/>
                        </use>
                        <path d="M-4,0h8" fill="none" stroke="white" stroke-width="1.5" pointer-events="none"/>
                </g>
                <g id="dirArrow">
                        <path fill="none" stroke="white" stroke-width="1.5" d="M0,-3.0v7 M-2.5,-0.5L0,-3.0L2.5,-0.5"/>
                </g>
               <g id="resetDef">
                       <use xlink:href="#rim2" fill="#404040">
                               <set attributeName="fill" to="#808080" begin="reset.mouseover" end="reset.mouseout"/>
                       </use>
               </g>
        </defs>

<script type="text/javascript">
var viewWidth = 991;
var viewHeight = 299;
var sectionId = 'dynsection-15';
</script>
<script xlink:href="svgpan.js"/>
<svg id="graph" class="graph">
<g id="viewport">
<title>QtPassSettings::getGpgExecutable</title>
<!-- Node56 -->
<g id="node1" class="node">
<title>Node56</title>
<polygon fill="#bfbfbf" stroke="#000000" points="0,-98.1215 0,-117.1215 172,-117.1215 172,-98.1215 0,-98.1215"/>
<text text-anchor="middle" x="86" y="-105.1215" font-family="Helvetica,sans-Serif" font-size="10.00" fill="#000000">QtPassSettings::getGpgExecutable</text>
</g>
<!-- Node57 -->
<g id="node2" class="node">
<title>Node57</title>
<g id="a_node2"><a xlink:href="class_config_dialog.html#a815d6d8ddf1de9386427ddef691a02a1" target="_top" xlink:title="ConfigDialog::ConfigDialog this sets up the configuration screen. ">
<polygon fill="none" stroke="#000000" points="376,-60.1215 376,-79.1215 511,-79.1215 511,-60.1215 376,-60.1215"/>
<text text-anchor="middle" x="443.5" y="-67.1215" font-family="Helvetica,sans-Serif" font-size="10.00" fill="#000000">ConfigDialog::ConfigDialog</text>
</a>
</g>
</g>
<!-- Node56&#45;&gt;Node57 -->
<g id="edge1" class="edge">
<title>Node56&#45;&gt;Node57</title>
<path fill="none" stroke="#191970" d="M177.833,-96.9566C188.0095,-95.8124 198.2235,-94.6805 208,-93.6215 264.5885,-87.4913 328.8769,-80.9695 375.9702,-76.274"/>
<polygon fill="#191970" stroke="#191970" points="177.2306,-93.5023 167.6866,-98.1025 178.0162,-100.4581 177.2306,-93.5023"/>
</g>
<!-- Node58 -->
<g id="node3" class="node">
<title>Node58</title>
<g id="a_node3"><a xlink:href="class_pass.html#a0c29f7bd4ca235d00d9dac6a37e14f4f" target="_top" xlink:title="Pass::GenerateGPGKeys internal gpg keypair generator . . ">
<polygon fill="none" stroke="#000000" points="208,-250.1215 208,-269.1215 337,-269.1215 337,-250.1215 208,-250.1215"/>
<text text-anchor="middle" x="272.5" y="-257.1215" font-family="Helvetica,sans-Serif" font-size="10.00" fill="#000000">Pass::GenerateGPGKeys</text>
</a>
</g>
</g>
<!-- Node56&#45;&gt;Node58 -->
<g id="edge2" class="edge">
<title>Node56&#45;&gt;Node58</title>
<path fill="none" stroke="#191970" d="M105.6176,-123.6101C144.3762,-155.1988 229.7052,-224.7431 260.838,-250.1168"/>
<polygon fill="#191970" stroke="#191970" points="107.6292,-120.7344 97.6664,-117.1298 103.2068,-126.1605 107.6292,-120.7344"/>
</g>
<!-- Node62 -->
<g id="node7" class="node">
<title>Node62</title>
<g id="a_node7"><a xlink:href="class_pass.html#ad1ded1699f4e47d871296a96eca5a3ea" target="_top" xlink:title="Pass::listKeys list users. ">
<polygon fill="none" stroke="#000000" points="232.5,-174.1215 232.5,-193.1215 312.5,-193.1215 312.5,-174.1215 232.5,-174.1215"/>
<text text-anchor="middle" x="272.5" y="-181.1215" font-family="Helvetica,sans-Serif" font-size="10.00" fill="#000000">Pass::listKeys</text>
</a>
</g>
</g>
<!-- Node56&#45;&gt;Node62 -->
<g id="edge6" class="edge">
<title>Node56&#45;&gt;Node62</title>
<path fill="none" stroke="#191970" d="M119.0583,-121.0929C156.405,-136.312 216.245,-160.6972 249.0714,-174.0742"/>
<polygon fill="#191970" stroke="#191970" points="120.2018,-117.7795 109.6204,-117.2469 117.5601,-124.262 120.2018,-117.7795"/>
</g>
<!-- Node66 -->
<g id="node11" class="node">
<title>Node66</title>
<g id="a_node11"><a xlink:href="class_qt_pass_settings.html#a64ffdab0605be803054150d438254c56" target="_top" xlink:title="QtPassSettings::initExecutables">
<polygon fill="none" stroke="#000000" points="550,-98.1215 550,-117.1215 708,-117.1215 708,-98.1215 550,-98.1215"/>
<text text-anchor="middle" x="629" y="-105.1215" font-family="Helvetica,sans-Serif" font-size="10.00" fill="#000000">QtPassSettings::initExecutables</text>
</a>
</g>
</g>
<!-- Node56&#45;&gt;Node66 -->
<g id="edge11" class="edge">
<title>Node56&#45;&gt;Node66</title>
<path fill="none" stroke="#191970" d="M182.2983,-107.6215C287.0561,-107.6215 452.5577,-107.6215 549.9807,-107.6215"/>
<polygon fill="#191970" stroke="#191970" points="182.04,-104.1216 172.04,-107.6215 182.0399,-111.1216 182.04,-104.1216"/>
</g>
<!-- Node67 -->
<g id="node12" class="node">
<title>Node67</title>
<g id="a_node12"><a xlink:href="class_util.html#a00c91095ca10b233e45eb643ff6097a4" target="_top" xlink:title="Util::checkConfig do we have prequisite settings? ">
<polygon fill="none" stroke="#000000" points="226.5,-22.1215 226.5,-41.1215 318.5,-41.1215 318.5,-22.1215 226.5,-22.1215"/>
<text text-anchor="middle" x="272.5" y="-29.1215" font-family="Helvetica,sans-Serif" font-size="10.00" fill="#000000">Util::checkConfig</text>
</a>
</g>
</g>
<!-- Node56&#45;&gt;Node67 -->
<g id="edge13" class="edge">
<title>Node56&#45;&gt;Node67</title>
<path fill="none" stroke="#191970" d="M116.6479,-94.0889C141.2221,-83.352 176.6602,-68.1232 208,-55.6215 220.4293,-50.6633 234.3287,-45.4498 246.0328,-41.1534"/>
<polygon fill="#191970" stroke="#191970" points="115.2254,-90.8909 107.471,-98.1103 118.035,-97.3023 115.2254,-90.8909"/>
</g>
<!-- Node59 -->
<g id="node4" class="node">
<title>Node59</title>
<g id="a_node4"><a xlink:href="class_pass.html#a8dfa731be7ac962f9f6a5cf8f29097ec" target="_top" xlink:title="Pass::~Pass">
<polygon fill="none" stroke="#000000" points="406.5,-250.1215 406.5,-269.1215 480.5,-269.1215 480.5,-250.1215 406.5,-250.1215"/>
<text text-anchor="middle" x="443.5" y="-257.1215" font-family="Helvetica,sans-Serif" font-size="10.00" fill="#000000">Pass::~Pass</text>
</a>
</g>
</g>
<!-- Node58&#45;&gt;Node59 -->
<g id="edge3" class="edge">
<title>Node58&#45;&gt;Node59</title>
<path fill="none" stroke="#191970" d="M347.3508,-259.6215C367.6633,-259.6215 388.7903,-259.6215 406.0493,-259.6215"/>
<polygon fill="#191970" stroke="#191970" points="347.1478,-256.1216 337.1478,-259.6215 347.1477,-263.1216 347.1478,-256.1216"/>
</g>
<!-- Node60 -->
<g id="node5" class="node">
<title>Node60</title>
<g id="a_node5"><a xlink:href="class_qt_pass.html#a49e2861160fdb8d614231933f60fac47" target="_top" xlink:title="QtPass::init make sure we are ready to go as soon as possible. ">
<polygon fill="none" stroke="#000000" points="744,-60.1215 744,-79.1215 812,-79.1215 812,-60.1215 744,-60.1215"/>
<text text-anchor="middle" x="778" y="-67.1215" font-family="Helvetica,sans-Serif" font-size="10.00" fill="#000000">QtPass::init</text>
</a>
</g>
</g>
<!-- Node58&#45;&gt;Node60 -->
<g id="edge4" class="edge">
<title>Node58&#45;&gt;Node60</title>
<path fill="none" stroke="#191970" d="M311.1433,-271.9797C359.8619,-285.4824 445.5212,-302.2533 514,-278.6215 634.4657,-237.049 741.2052,-114.7215 770.2391,-79.3215"/>
<polygon fill="#191970" stroke="#191970" points="311.9049,-268.557 301.3274,-269.1637 309.9745,-275.2856 311.9049,-268.557"/>
</g>
<!-- Node61 -->
<g id="node6" class="node">
<title>Node61</title>
<g id="a_node6"><a xlink:href="class_main_window.html#a52e97245b2f88492071e639395c4a15a" target="_top" xlink:title="MainWindow::MainWindow handles all of the main functionality and also the main window. ">
<polygon fill="none" stroke="#000000" points="848,-60.1215 848,-79.1215 983,-79.1215 983,-60.1215 848,-60.1215"/>
<text text-anchor="middle" x="915.5" y="-67.1215" font-family="Helvetica,sans-Serif" font-size="10.00" fill="#000000">MainWindow::MainWindow</text>
</a>
</g>
</g>
<!-- Node60&#45;&gt;Node61 -->
<g id="edge5" class="edge">
<title>Node60&#45;&gt;Node61</title>
<path fill="none" stroke="#191970" d="M822.6126,-69.6215C830.6815,-69.6215 839.2586,-69.6215 847.8137,-69.6215"/>
<polygon fill="#191970" stroke="#191970" points="822.3424,-66.1216 812.3424,-69.6215 822.3423,-73.1216 822.3424,-66.1216"/>
</g>
<!-- Node62&#45;&gt;Node59 -->
<g id="edge9" class="edge">
<title>Node62&#45;&gt;Node59</title>
<path fill="none" stroke="#191970" d="M295.1817,-198.698C315.0206,-211.336 344.967,-229.1119 373,-240.6215 383.5538,-244.9546 395.4004,-248.5893 406.3265,-251.4811"/>
<polygon fill="#191970" stroke="#191970" points="296.8621,-195.6167 286.5643,-193.1255 293.061,-201.4947 296.8621,-195.6167"/>
</g>
<!-- Node63 -->
<g id="node8" class="node">
<title>Node63</title>
<g id="a_node8"><a xlink:href="class_config_dialog.html#a485badac4dffa04603f800bb9d396e1d" target="_top" xlink:title="ConfigDialog::~ConfigDialog config destructor, makes sure the mainWindow knows about git...">
<polygon fill="none" stroke="#000000" points="373,-136.1215 373,-155.1215 514,-155.1215 514,-136.1215 373,-136.1215"/>
<text text-anchor="middle" x="443.5" y="-143.1215" font-family="Helvetica,sans-Serif" font-size="10.00" fill="#000000">ConfigDialog::~ConfigDialog</text>
</a>
</g>
</g>
<!-- Node62&#45;&gt;Node63 -->
<g id="edge7" class="edge">
<title>Node62&#45;&gt;Node63</title>
<path fill="none" stroke="#191970" d="M322.5342,-172.5028C347.322,-166.9944 376.9437,-160.4118 400.6701,-155.1392"/>
<polygon fill="#191970" stroke="#191970" points="321.5945,-169.1261 312.5919,-174.7122 323.1131,-175.9594 321.5945,-169.1261"/>
</g>
<!-- Node64 -->
<g id="node9" class="node">
<title>Node64</title>
<g id="a_node9"><a xlink:href="class_pass.html#a451b0f52aa0332801252ae28665e29b3" target="_top" xlink:title="Pass::listKeys list users. ">
<polygon fill="none" stroke="#000000" points="403.5,-212.1215 403.5,-231.1215 483.5,-231.1215 483.5,-212.1215 403.5,-212.1215"/>
<text text-anchor="middle" x="443.5" y="-219.1215" font-family="Helvetica,sans-Serif" font-size="10.00" fill="#000000">Pass::listKeys</text>
</a>
</g>
</g>
<!-- Node62&#45;&gt;Node64 -->
<g id="edge8" class="edge">
<title>Node62&#45;&gt;Node64</title>
<path fill="none" stroke="#191970" d="M322.5367,-194.7407C348.2711,-200.4595 379.2151,-207.3359 403.3634,-212.7022"/>
<polygon fill="#191970" stroke="#191970" points="323.1131,-191.2835 312.5919,-192.5308 321.5945,-198.1168 323.1131,-191.2835"/>
</g>
<!-- Node65 -->
<g id="node10" class="node">
<title>Node65</title>
<g id="a_node10"><a xlink:href="class_users_dialog.html#a7a3d75a01a48609ce7571cec09b95f07" target="_top" xlink:title="UsersDialog::UsersDialog basic constructor. ">
<polygon fill="none" stroke="#000000" points="378,-174.1215 378,-193.1215 509,-193.1215 509,-174.1215 378,-174.1215"/>
<text text-anchor="middle" x="443.5" y="-181.1215" font-family="Helvetica,sans-Serif" font-size="10.00" fill="#000000">UsersDialog::UsersDialog</text>
</a>
</g>
</g>
<!-- Node62&#45;&gt;Node65 -->
<g id="edge10" class="edge">
<title>Node62&#45;&gt;Node65</title>
<path fill="none" stroke="#191970" d="M322.9787,-183.6215C340.1865,-183.6215 359.6824,-183.6215 377.9018,-183.6215"/>
<polygon fill="#191970" stroke="#191970" points="322.5919,-180.1216 312.5919,-183.6215 322.5919,-187.1216 322.5919,-180.1216"/>
</g>
<!-- Node66&#45;&gt;Node60 -->
<g id="edge12" class="edge">
<title>Node66&#45;&gt;Node60</title>
<path fill="none" stroke="#191970" d="M679.3989,-95.7314C688.9117,-93.4217 698.7701,-90.9835 708,-88.6215 719.7114,-85.6244 732.483,-82.2033 743.8727,-79.0976"/>
<polygon fill="#191970" stroke="#191970" points="678.5514,-92.3353 669.6514,-98.0833 680.1934,-99.1401 678.5514,-92.3353"/>
</g>
<!-- Node67&#45;&gt;Node57 -->
<g id="edge14" class="edge">
<title>Node67&#45;&gt;Node57</title>
<path fill="none" stroke="#191970" d="M325.7092,-43.4457C349.8172,-48.8031 377.9401,-55.0526 400.6598,-60.1014"/>
<polygon fill="#191970" stroke="#191970" points="326.1717,-39.9632 315.6505,-41.2105 324.6531,-46.7965 326.1717,-39.9632"/>
</g>
<!-- Node67&#45;&gt;Node60 -->
<g id="edge19" class="edge">
<title>Node67&#45;&gt;Node60</title>
<path fill="none" stroke="#191970" d="M323.429,-20.0832C339.2283,-17.0201 356.7569,-14.1434 373,-12.6215 521.4778,1.2905 565.422,12.0904 708,-31.6215 728.8886,-38.0255 750.6572,-50.9996 764.2628,-59.9943"/>
<polygon fill="#191970" stroke="#191970" points="322.443,-16.7112 313.3272,-22.1106 323.8205,-23.5743 322.443,-16.7112"/>
</g>
<!-- Node68 -->
<g id="node13" class="node">
<title>Node68</title>
<g id="a_node13"><a xlink:href="class_main_window.html#aeb8091ab5531144b76c1fbb0d63deb56" target="_top" xlink:title="MainWindow::config pops up the configuration screen and handles all inter&#45;window communication. ">
<polygon fill="none" stroke="#000000" points="391,-22.1215 391,-41.1215 496,-41.1215 496,-22.1215 391,-22.1215"/>
<text text-anchor="middle" x="443.5" y="-29.1215" font-family="Helvetica,sans-Serif" font-size="10.00" fill="#000000">MainWindow::config</text>
</a>
</g>
</g>
<!-- Node67&#45;&gt;Node68 -->
<g id="edge15" class="edge">
<title>Node67&#45;&gt;Node68</title>
<path fill="none" stroke="#191970" d="M328.9576,-31.6215C348.8982,-31.6215 371.2305,-31.6215 390.8437,-31.6215"/>
<polygon fill="#191970" stroke="#191970" points="328.7751,-28.1216 318.7751,-31.6215 328.775,-35.1216 328.7751,-28.1216"/>
</g>
<!-- Node68&#45;&gt;Node60 -->
<g id="edge18" class="edge">
<title>Node68&#45;&gt;Node60</title>
<path fill="none" stroke="#191970" d="M506.1328,-32.7165C559.9861,-34.4675 639.5639,-38.9883 708,-50.6215 721.2834,-52.8795 735.6916,-56.5692 747.9637,-60.0993"/>
<polygon fill="#191970" stroke="#191970" points="506.1522,-29.2156 496.0508,-32.4113 505.9403,-36.2124 506.1522,-29.2156"/>
</g>
<!-- Node69 -->
<g id="node14" class="node">
<title>Node69</title>
<g id="a_node14"><a xlink:href="class_main_window.html#a9630f0fe0e0941a7996d68014f837ed5" target="_top" xlink:title="MainWindow::restoreWindow">
<polygon fill="none" stroke="#000000" points="557,-60.1215 557,-79.1215 701,-79.1215 701,-60.1215 557,-60.1215"/>
<text text-anchor="middle" x="629" y="-67.1215" font-family="Helvetica,sans-Serif" font-size="10.00" fill="#000000">MainWindow::restoreWindow</text>
</a>
</g>
</g>
<!-- Node68&#45;&gt;Node69 -->
<g id="edge16" class="edge">
<title>Node68&#45;&gt;Node69</title>
<path fill="none" stroke="#191970" d="M500.1727,-43.231C526.5551,-48.6355 557.5509,-54.985 582.5271,-60.1014"/>
<polygon fill="#191970" stroke="#191970" points="500.8085,-39.7886 490.3095,-41.2105 499.4036,-46.6462 500.8085,-39.7886"/>
</g>
<!-- Node69&#45;&gt;Node60 -->
<g id="edge17" class="edge">
<title>Node69&#45;&gt;Node60</title>
<path fill="none" stroke="#191970" d="M711.3874,-69.6215C722.8039,-69.6215 733.9707,-69.6215 743.7989,-69.6215"/>
<polygon fill="#191970" stroke="#191970" points="711.3177,-66.1216 701.3177,-69.6215 711.3176,-73.1216 711.3177,-66.1216"/>
</g>
</g>
</svg>
        <g id="navigator" transform="translate(0 0)" fill="#404254">
                <rect fill="#f2f5e9" fill-opacity="0.5" stroke="#606060" stroke-width=".5" x="0" y="0" width="60" height="60"/>
                <use id="zoomplus" xlink:href="#zoomPlus" x="17" y="9" onmousedown="handleZoom(evt,'in')"/>
                <use id="zoomminus" xlink:href="#zoomMin" x="42" y="9" onmousedown="handleZoom(evt,'out')"/>
                <use id="reset" xlink:href="#resetDef" x="30" y="36" onmousedown="handleReset()"/>
                <g id="arrowUp" xlink:href="#dirArrow" transform="translate(30 24)" onmousedown="handlePan(0,-1)">
                  <use xlink:href="#rim" fill="#404040">
                        <set attributeName="fill" to="#808080" begin="arrowUp.mouseover" end="arrowUp.mouseout"/>
                  </use>
                  <path fill="none" stroke="white" stroke-width="1.5" d="M0,-3.0v7 M-2.5,-0.5L0,-3.0L2.5,-0.5"/>
                </g>
                <g id="arrowRight" xlink:href="#dirArrow" transform="rotate(90) translate(36 -43)" onmousedown="handlePan(1,0)">
                  <use xlink:href="#rim" fill="#404040">
                        <set attributeName="fill" to="#808080" begin="arrowRight.mouseover" end="arrowRight.mouseout"/>
                  </use>
                  <path fill="none" stroke="white" stroke-width="1.5" d="M0,-3.0v7 M-2.5,-0.5L0,-3.0L2.5,-0.5"/>
                </g>
                <g id="arrowDown" xlink:href="#dirArrow" transform="rotate(180) translate(-30 -48)" onmousedown="handlePan(0,1)">
                  <use xlink:href="#rim" fill="#404040">
                        <set attributeName="fill" to="#808080" begin="arrowDown.mouseover" end="arrowDown.mouseout"/>
                  </use>
                  <path fill="none" stroke="white" stroke-width="1.5" d="M0,-3.0v7 M-2.5,-0.5L0,-3.0L2.5,-0.5"/>
                </g>
                <g id="arrowLeft" xlink:href="#dirArrow" transform="rotate(270) translate(-36 17)" onmousedown="handlePan(-1,0)">
                  <use xlink:href="#rim" fill="#404040">
                        <set attributeName="fill" to="#808080" begin="arrowLeft.mouseover" end="arrowLeft.mouseout"/>
                  </use>
                  <path fill="none" stroke="white" stroke-width="1.5" d="M0,-3.0v7 M-2.5,-0.5L0,-3.0L2.5,-0.5"/>
                </g>
        </g>
        <svg viewBox="0 0 15 15" width="100%" height="30px" preserveAspectRatio="xMaxYMin meet">
         <g id="arrow_out" transform="scale(0.3 0.3)">
          <a xlink:href="class_qt_pass_settings_a92b674cdafc03000c808bff5fab93249_icgraph_org.svg" target="_base">
           <rect id="button" ry="5" rx="5" y="6" x="6" height="38" width="38"
                fill="#f2f5e9" fill-opacity="0.5" stroke="#606060" stroke-width="1.0"/>
           <path id="arrow"
             d="M 11.500037,31.436501 C 11.940474,20.09759 22.043105,11.32322 32.158766,21.979434 L 37.068811,17.246167 C 37.068811,17.246167 37.088388,32 37.088388,32 L 22.160133,31.978069 C 22.160133,31.978069 26.997745,27.140456 26.997745,27.140456 C 18.528582,18.264221 13.291696,25.230495 11.500037,31.436501 z"
             style="fill:#404040;"/>
          </a>
         </g>
        </svg>
</svg>
