<?xml version="1.0" encoding="UTF-8" standalone="no"?>
<!DOCTYPE svg PUBLIC "-//W3C//DTD SVG 1.1//EN"
 "http://www.w3.org/Graphics/SVG/1.1/DTD/svg11.dtd">
<!-- Generated by graphviz version 2.38.0 (20140413.2041)
 -->
<!-- Title: QtPassSettings::isStartMinimized Pages: 1 -->
<!--zoomable 64 -->
<svg id="main" version="1.1" xmlns="http://www.w3.org/2000/svg" xmlns:xlink="http://www.w3.org/1999/xlink" xml:space="preserve" onload="init(evt)">
<style type="text/css"><![CDATA[
.edge:hover path { stroke: red; }
.edge:hover polygon { stroke: red; fill: red; }
]]></style>
<script type="text/javascript"><![CDATA[
var edges = document.getElementsByTagName('g');
if (edges && edges.length) {
  for (var i=0;i<edges.length;i++) {
    if (edges[i].id.substr(0,4)=='edge') {
      edges[i].setAttribute('class','edge');
    }
  }
}
]]></script>
        <defs>
                <circle id="rim" cx="0" cy="0" r="7"/>
                <circle id="rim2" cx="0" cy="0" r="3.5"/>
                <g id="zoomPlus">
                        <use xlink:href="#rim" fill="#404040">
                                <set attributeName="fill" to="#808080" begin="zoomplus.mouseover" end="zoomplus.mouseout"/>
                        </use>
                        <path d="M-4,0h8M0,-4v8" fill="none" stroke="white" stroke-width="1.5" pointer-events="none"/>
                </g>
                <g id="zoomMin">
                        <use xlink:href="#rim" fill="#404040">
                                <set attributeName="fill" to="#808080" begin="zoomminus.mouseover" end="zoomminus.mouseout"/>
                        </use>
                        <path d="M-4,0h8" fill="none" stroke="white" stroke-width="1.5" pointer-events="none"/>
                </g>
                <g id="dirArrow">
                        <path fill="none" stroke="white" stroke-width="1.5" d="M0,-3.0v7 M-2.5,-0.5L0,-3.0L2.5,-0.5"/>
                </g>
               <g id="resetDef">
                       <use xlink:href="#rim2" fill="#404040">
                               <set attributeName="fill" to="#808080" begin="reset.mouseover" end="reset.mouseout"/>
                       </use>
               </g>
        </defs>

<script type="text/javascript">
var viewWidth = 684;
var viewHeight = 64;
var sectionId = 'dynsection-37';
</script>
<script xlink:href="svgpan.js"/>
<svg id="graph" class="graph">
<g id="viewport">
<title>QtPassSettings::isStartMinimized</title>
<!-- Node299 -->
<g id="node1" class="node"><title>Node299</title>
<polygon fill="#bfbfbf" stroke="black" points="0,-19.5 0,-37.5 163.827,-37.5 163.827,-19.5 0,-19.5"/>
<text text-anchor="middle" x="81.9136" y="-25.5" font-family="Helvetica,sans-Serif" font-size="10.00">QtPassSettings::isStartMinimized</text>
</g>
<!-- Node300 -->
<g id="node2" class="node"><title>Node300</title>
<g id="a_node2"><a xlink:href="class_main_window.html#a23d2783cb61a373c4b0127970264290a" target="_top" xlink:title="MainWindow::checkConfig make sure we are ready to go as soon as possible. ">
<polygon fill="none" stroke="black" points="355.482,-37.5 355.482,-55.5 489.309,-55.5 489.309,-37.5 355.482,-37.5"/>
<text text-anchor="middle" x="422.396" y="-43.5" font-family="Helvetica,sans-Serif" font-size="10.00">MainWindow::checkConfig</text>
</a>
</g>
</g>
<!-- Node299&#45;&gt;Node300 -->
<g id="edge1" class="edge"><title>Node299&#45;&gt;Node300</title>
<path fill="none" stroke="midnightblue" d="M174.122,-33.3503C231.34,-36.3931 303.792,-40.246 355.451,-42.9932"/>
<polygon fill="midnightblue" stroke="midnightblue" points="174.16,-29.8475 163.988,-32.8114 173.788,-36.8376 174.16,-29.8475"/>
</g>
<!-- Node302 -->
<g id="node4" class="node"><title>Node302</title>
<g id="a_node4"><a xlink:href="class_main_window.html#aeb8091ab5531144b76c1fbb0d63deb56" target="_top" xlink:title="MainWindow::config pops up the configuration screen and handles all inter&#45;window communication. ">
<polygon fill="none" stroke="black" points="199.827,-0.5 199.827,-18.5 305.31,-18.5 305.31,-0.5 199.827,-0.5"/>
<text text-anchor="middle" x="252.568" y="-6.5" font-family="Helvetica,sans-Serif" font-size="10.00">MainWindow::config</text>
</a>
</g>
</g>
<!-- Node299&#45;&gt;Node302 -->
<g id="edge3" class="edge"><title>Node299&#45;&gt;Node302</title>
<path fill="none" stroke="midnightblue" d="M173.454,-18.3C182.441,-17.2876 191.333,-16.2859 199.72,-15.3411"/>
<polygon fill="midnightblue" stroke="midnightblue" points="172.835,-14.8476 163.289,-19.4452 173.618,-21.8036 172.835,-14.8476"/>
</g>
<!-- Node301 -->
<g id="node3" class="node"><title>Node301</title>
<g id="a_node3"><a xlink:href="class_main_window.html#a8b244be8b7b7db1b08de2a2acb9409db" target="_top" xlink:title="MainWindow::MainWindow handles all of the main functionality and also the main window. ">
<polygon fill="none" stroke="black" points="539.481,-37.5 539.481,-55.5 675.521,-55.5 675.521,-37.5 539.481,-37.5"/>
<text text-anchor="middle" x="607.501" y="-43.5" font-family="Helvetica,sans-Serif" font-size="10.00">MainWindow::MainWindow</text>
</a>
</g>
</g>
<!-- Node300&#45;&gt;Node301 -->
<g id="edge2" class="edge"><title>Node300&#45;&gt;Node301</title>
<path fill="none" stroke="midnightblue" d="M499.876,-46.5C512.951,-46.5 526.449,-46.5 539.262,-46.5"/>
<polygon fill="midnightblue" stroke="midnightblue" points="499.501,-43.0001 489.501,-46.5 499.501,-50.0001 499.501,-43.0001"/>
</g>
<!-- Node302&#45;&gt;Node300 -->
<g id="edge4" class="edge"><title>Node302&#45;&gt;Node300</title>
<path fill="none" stroke="midnightblue" d="M304.412,-20.7093C328.77,-26.0794 357.553,-32.4251 380.474,-37.4782"/>
<polygon fill="midnightblue" stroke="midnightblue" points="305.143,-17.2863 294.623,-18.5512 303.635,-24.1222 305.143,-17.2863"/>
</g>
<!-- Node303 -->
<g id="node5" class="node"><title>Node303</title>
<g id="a_node5"><a xlink:href="class_main_window.html#a4680b2cbcfd388683a98303f29c0f84f" target="_top" xlink:title="MainWindow::executePassGitInit git init wrapper. ">
<polygon fill="none" stroke="black" points="341.31,-0.5 341.31,-18.5 503.481,-18.5 503.481,-0.5 341.31,-0.5"/>
<text text-anchor="middle" x="422.396" y="-6.5" font-family="Helvetica,sans-Serif" font-size="10.00">MainWindow::executePassGitInit</text>
</a>
</g>
</g>
<!-- Node302&#45;&gt;Node303 -->
<g id="edge5" class="edge"><title>Node302&#45;&gt;Node303</title>
<path fill="none" stroke="midnightblue" d="M315.987,-9.5C324.214,-9.5 332.737,-9.5 341.209,-9.5"/>
<polygon fill="midnightblue" stroke="midnightblue" points="315.75,-6.0001 305.75,-9.5 315.75,-13.0001 315.75,-6.0001"/>
</g>
<!-- Node304 -->
<g id="node6" class="node"><title>Node304</title>
<g id="a_node6"><a xlink:href="class_config_dialog.html#ad5b80066591f19fdaaa06b7cb5ba7f15" target="_top" xlink:title="ConfigDialog::wizard first&#45;time use wizard. ">
<polygon fill="none" stroke="black" points="553.646,-0.5 553.646,-18.5 661.355,-18.5 661.355,-0.5 553.646,-0.5"/>
<text text-anchor="middle" x="607.501" y="-6.5" font-family="Helvetica,sans-Serif" font-size="10.00">ConfigDialog::wizard</text>
</a>
</g>
</g>
<!-- Node303&#45;&gt;Node304 -->
<g id="edge6" class="edge"><title>Node303&#45;&gt;Node304</title>
<path fill="none" stroke="midnightblue" d="M514,-9.5C527.49,-9.5 541.007,-9.5 553.381,-9.5"/>
<polygon fill="midnightblue" stroke="midnightblue" points="513.708,-6.0001 503.708,-9.5 513.708,-13.0001 513.708,-6.0001"/>
</g>
</g>
</svg>
        <g id="navigator" transform="translate(0 0)" fill="#404254">
                <rect fill="#f2f5e9" fill-opacity="0.5" stroke="#606060" stroke-width=".5" x="0" y="0" width="60" height="60"/>
                <use id="zoomplus" xlink:href="#zoomPlus" x="17" y="9" onmousedown="handleZoom(evt,'in')"/>
                <use id="zoomminus" xlink:href="#zoomMin" x="42" y="9" onmousedown="handleZoom(evt,'out')"/>
                <use id="reset" xlink:href="#resetDef" x="30" y="36" onmousedown="handleReset()"/>
                <g id="arrowUp" xlink:href="#dirArrow" transform="translate(30 24)" onmousedown="handlePan(0,-1)">
                  <use xlink:href="#rim" fill="#404040">
                        <set attributeName="fill" to="#808080" begin="arrowUp.mouseover" end="arrowUp.mouseout"/>
                  </use>
                  <path fill="none" stroke="white" stroke-width="1.5" d="M0,-3.0v7 M-2.5,-0.5L0,-3.0L2.5,-0.5"/>
                </g>
                <g id="arrowRight" xlink:href="#dirArrow" transform="rotate(90) translate(36 -43)" onmousedown="handlePan(1,0)">
                  <use xlink:href="#rim" fill="#404040">
                        <set attributeName="fill" to="#808080" begin="arrowRight.mouseover" end="arrowRight.mouseout"/>
                  </use>
                  <path fill="none" stroke="white" stroke-width="1.5" d="M0,-3.0v7 M-2.5,-0.5L0,-3.0L2.5,-0.5"/>
                </g>
                <g id="arrowDown" xlink:href="#dirArrow" transform="rotate(180) translate(-30 -48)" onmousedown="handlePan(0,1)">
                  <use xlink:href="#rim" fill="#404040">
                        <set attributeName="fill" to="#808080" begin="arrowDown.mouseover" end="arrowDown.mouseout"/>
                  </use>
                  <path fill="none" stroke="white" stroke-width="1.5" d="M0,-3.0v7 M-2.5,-0.5L0,-3.0L2.5,-0.5"/>
                </g>
                <g id="arrowLeft" xlink:href="#dirArrow" transform="rotate(270) translate(-36 17)" onmousedown="handlePan(-1,0)">
                  <use xlink:href="#rim" fill="#404040">
                        <set attributeName="fill" to="#808080" begin="arrowLeft.mouseover" end="arrowLeft.mouseout"/>
                  </use>
                  <path fill="none" stroke="white" stroke-width="1.5" d="M0,-3.0v7 M-2.5,-0.5L0,-3.0L2.5,-0.5"/>
                </g>
        </g>
        <svg viewBox="0 0 15 15" width="100%" height="30px" preserveAspectRatio="xMaxYMin meet">
         <g id="arrow_out" transform="scale(0.3 0.3)">
          <a xlink:href="class_qt_pass_settings_a88c4f55fe2bc1ca313f3ca4670d369d3_icgraph_org.svg" target="_base">
           <rect id="button" ry="5" rx="5" y="6" x="6" height="38" width="38"
                fill="#f2f5e9" fill-opacity="0.5" stroke="#606060" stroke-width="1.0"/>
           <path id="arrow"
             d="M 11.500037,31.436501 C 11.940474,20.09759 22.043105,11.32322 32.158766,21.979434 L 37.068811,17.246167 C 37.068811,17.246167 37.088388,32 37.088388,32 L 22.160133,31.978069 C 22.160133,31.978069 26.997745,27.140456 26.997745,27.140456 C 18.528582,18.264221 13.291696,25.230495 11.500037,31.436501 z"
             style="fill:#404040;"/>
          </a>
         </g>
        </svg>
</svg>
