<?xml version="1.0" encoding="UTF-8" standalone="no"?>
<!DOCTYPE svg PUBLIC "-//W3C//DTD SVG 1.1//EN"
 "http://www.w3.org/Graphics/SVG/1.1/DTD/svg11.dtd">
<!-- Generated by graphviz version 2.40.1 (20161225.0304)
 -->
<!-- Title: QtPass::showTextAsQRCode Pages: 1 -->
<!--zoomable 85 -->
<svg id="main" version="1.1" xmlns="http://www.w3.org/2000/svg" xmlns:xlink="http://www.w3.org/1999/xlink" xml:space="preserve" onload="init(evt)">
<style type="text/css"><![CDATA[
.edge:hover path { stroke: red; }
.edge:hover polygon { stroke: red; fill: red; }
]]></style>
<script type="text/javascript"><![CDATA[
var edges = document.getElementsByTagName('g');
if (edges && edges.length) {
  for (var i=0;i<edges.length;i++) {
    if (edges[i].id.substr(0,4)=='edge') {
      edges[i].setAttribute('class','edge');
    }
  }
}
]]></script>
        <defs>
                <circle id="rim" cx="0" cy="0" r="7"/>
                <circle id="rim2" cx="0" cy="0" r="3.5"/>
                <g id="zoomPlus">
                        <use xlink:href="#rim" fill="#404040">
                                <set attributeName="fill" to="#808080" begin="zoomplus.mouseover" end="zoomplus.mouseout"/>
                        </use>
                        <path d="M-4,0h8M0,-4v8" fill="none" stroke="white" stroke-width="1.5" pointer-events="none"/>
                </g>
                <g id="zoomMin">
                        <use xlink:href="#rim" fill="#404040">
                                <set attributeName="fill" to="#808080" begin="zoomminus.mouseover" end="zoomminus.mouseout"/>
                        </use>
                        <path d="M-4,0h8" fill="none" stroke="white" stroke-width="1.5" pointer-events="none"/>
                </g>
                <g id="dirArrow">
                        <path fill="none" stroke="white" stroke-width="1.5" d="M0,-3.0v7 M-2.5,-0.5L0,-3.0L2.5,-0.5"/>
                </g>
               <g id="resetDef">
                       <use xlink:href="#rim2" fill="#404040">
                               <set attributeName="fill" to="#808080" begin="reset.mouseover" end="reset.mouseout"/>
                       </use>
               </g>
        </defs>

<script type="text/javascript">
var viewWidth = 992;
var viewHeight = 85;
var sectionId = 'dynsection-19';
</script>
<script xlink:href="svgpan.js"/>
<svg id="graph" class="graph">
<g id="viewport">
<title>QtPass::showTextAsQRCode</title>
<!-- Node224 -->
<g id="node1" class="node">
<title>Node224</title>
<polygon fill="#bfbfbf" stroke="#000000" points="0,-38.5 0,-57.5 149,-57.5 149,-38.5 0,-38.5"/>
<text text-anchor="middle" x="74.5" y="-45.5" font-family="Helvetica,sans-Serif" font-size="10.00" fill="#000000">QtPass::showTextAsQRCode</text>
</g>
<!-- Node225 -->
<g id="node2" class="node">
<title>Node225</title>
<g id="a_node2"><a xlink:href="class_main_window.html#a9c4f542263838b9ecd06eae839a42a34" target="_top" xlink:title="MainWindow::keyPressEvent did anyone press return, enter or escape? ">
<polygon fill="none" stroke="#000000" points="185,-57.5 185,-76.5 331,-76.5 331,-57.5 185,-57.5"/>
<text text-anchor="middle" x="258" y="-64.5" font-family="Helvetica,sans-Serif" font-size="10.00" fill="#000000">MainWindow::keyPressEvent</text>
</a>
</g>
</g>
<!-- Node224&#45;&gt;Node225 -->
<g id="edge1" class="edge">
<title>Node224&#45;&gt;Node225</title>
<path fill="none" stroke="#191970" d="M159.174,-56.7673C167.7727,-57.6577 176.4548,-58.5566 184.9157,-59.4327"/>
<polygon fill="#191970" stroke="#191970" points="159.4438,-53.2766 149.1365,-55.728 158.7228,-60.2394 159.4438,-53.2766"/>
</g>
<!-- Node226 -->
<g id="node3" class="node">
<title>Node226</title>
<g id="a_node3"><a xlink:href="class_qt_pass.html#a5b63b7418723b400f0db2afa450f1199" target="_top" xlink:title="QtPass::setFreshStart">
<polygon fill="none" stroke="#000000" points="200.5,-19.5 200.5,-38.5 315.5,-38.5 315.5,-19.5 200.5,-19.5"/>
<text text-anchor="middle" x="258" y="-26.5" font-family="Helvetica,sans-Serif" font-size="10.00" fill="#000000">QtPass::setFreshStart</text>
</a>
</g>
</g>
<!-- Node224&#45;&gt;Node226 -->
<g id="edge2" class="edge">
<title>Node224&#45;&gt;Node226</title>
<path fill="none" stroke="#191970" d="M159.2117,-39.2288C173.1265,-37.788 187.2584,-36.3247 200.3172,-34.9726"/>
<polygon fill="#191970" stroke="#191970" points="158.7228,-35.7606 149.1365,-40.272 159.4438,-42.7234 158.7228,-35.7606"/>
</g>
<!-- Node227 -->
<g id="node4" class="node">
<title>Node227</title>
<g id="a_node4"><a xlink:href="class_main_window.html#aeb8091ab5531144b76c1fbb0d63deb56" target="_top" xlink:title="MainWindow::config pops up the configuration screen and handles all inter&#45;window communication. ">
<polygon fill="none" stroke="#000000" points="367,-19.5 367,-38.5 472,-38.5 472,-19.5 367,-19.5"/>
<text text-anchor="middle" x="419.5" y="-26.5" font-family="Helvetica,sans-Serif" font-size="10.00" fill="#000000">MainWindow::config</text>
</a>
</g>
</g>
<!-- Node226&#45;&gt;Node227 -->
<g id="edge3" class="edge">
<title>Node226&#45;&gt;Node227</title>
<path fill="none" stroke="#191970" d="M326.1462,-29C339.7715,-29 353.8877,-29 366.8912,-29"/>
<polygon fill="#191970" stroke="#191970" points="325.8491,-25.5001 315.849,-29 325.849,-32.5001 325.8491,-25.5001"/>
</g>
<!-- Node228 -->
<g id="node5" class="node">
<title>Node228</title>
<g id="a_node5"><a xlink:href="class_main_window.html#a9630f0fe0e0941a7996d68014f837ed5" target="_top" xlink:title="MainWindow::restoreWindow">
<polygon fill="none" stroke="#000000" points="508,-38.5 508,-57.5 652,-57.5 652,-38.5 508,-38.5"/>
<text text-anchor="middle" x="580" y="-45.5" font-family="Helvetica,sans-Serif" font-size="10.00" fill="#000000">MainWindow::restoreWindow</text>
</a>
</g>
</g>
<!-- Node227&#45;&gt;Node228 -->
<g id="edge4" class="edge">
<title>Node227&#45;&gt;Node228</title>
<path fill="none" stroke="#191970" d="M482.1514,-36.4167C490.5617,-37.4123 499.2432,-38.44 507.8014,-39.4531"/>
<polygon fill="#191970" stroke="#191970" points="482.3958,-32.9213 472.0537,-35.2213 481.5729,-39.8727 482.3958,-32.9213"/>
</g>
<!-- Node231 -->
<g id="node8" class="node">
<title>Node231</title>
<g id="a_node8"><a xlink:href="class_qt_pass.html#a70447af6f0e0540106a423a45dc27c99" target="_top" xlink:title="QtPass::~QtPass destroy! ">
<polygon fill="none" stroke="#000000" points="532.5,-.5 532.5,-19.5 627.5,-19.5 627.5,-.5 532.5,-.5"/>
<text text-anchor="middle" x="580" y="-7.5" font-family="Helvetica,sans-Serif" font-size="10.00" fill="#000000">QtPass::~QtPass</text>
</a>
</g>
</g>
<!-- Node227&#45;&gt;Node231 -->
<g id="edge7" class="edge">
<title>Node227&#45;&gt;Node231</title>
<path fill="none" stroke="#191970" d="M482.2867,-21.5673C498.9859,-19.5905 516.7453,-17.4881 532.4792,-15.6255"/>
<polygon fill="#191970" stroke="#191970" points="481.5729,-18.1273 472.0537,-22.7787 482.3958,-25.0787 481.5729,-18.1273"/>
</g>
<!-- Node229 -->
<g id="node6" class="node">
<title>Node229</title>
<g id="a_node6"><a xlink:href="class_qt_pass.html#abd1d1e8d6b80b8307a305d80a6c34371" target="_top" xlink:title="QtPass::setMainWindow">
<polygon fill="none" stroke="#000000" points="688,-38.5 688,-57.5 813,-57.5 813,-38.5 688,-38.5"/>
<text text-anchor="middle" x="750.5" y="-45.5" font-family="Helvetica,sans-Serif" font-size="10.00" fill="#000000">QtPass::setMainWindow</text>
</a>
</g>
</g>
<!-- Node228&#45;&gt;Node229 -->
<g id="edge5" class="edge">
<title>Node228&#45;&gt;Node229</title>
<path fill="none" stroke="#191970" d="M662.3223,-48C670.8867,-48 679.4906,-48 687.7876,-48"/>
<polygon fill="#191970" stroke="#191970" points="662.3074,-44.5001 652.3073,-48 662.3073,-51.5001 662.3074,-44.5001"/>
</g>
<!-- Node230 -->
<g id="node7" class="node">
<title>Node230</title>
<g id="a_node7"><a xlink:href="class_main_window.html#a52e97245b2f88492071e639395c4a15a" target="_top" xlink:title="MainWindow::MainWindow handles all of the main functionality and also the main window. ">
<polygon fill="none" stroke="#000000" points="849,-38.5 849,-57.5 984,-57.5 984,-38.5 849,-38.5"/>
<text text-anchor="middle" x="916.5" y="-45.5" font-family="Helvetica,sans-Serif" font-size="10.00" fill="#000000">MainWindow::MainWindow</text>
</a>
</g>
</g>
<!-- Node229&#45;&gt;Node230 -->
<g id="edge6" class="edge">
<title>Node229&#45;&gt;Node230</title>
<path fill="none" stroke="#191970" d="M823.4873,-48C831.951,-48 840.5556,-48 848.9422,-48"/>
<polygon fill="#191970" stroke="#191970" points="823.2575,-44.5001 813.2575,-48 823.2574,-51.5001 823.2575,-44.5001"/>
</g>
</g>
</svg>
        <g id="navigator" transform="translate(0 0)" fill="#404254">
                <rect fill="#f2f5e9" fill-opacity="0.5" stroke="#606060" stroke-width=".5" x="0" y="0" width="60" height="60"/>
                <use id="zoomplus" xlink:href="#zoomPlus" x="17" y="9" onmousedown="handleZoom(evt,'in')"/>
                <use id="zoomminus" xlink:href="#zoomMin" x="42" y="9" onmousedown="handleZoom(evt,'out')"/>
                <use id="reset" xlink:href="#resetDef" x="30" y="36" onmousedown="handleReset()"/>
                <g id="arrowUp" xlink:href="#dirArrow" transform="translate(30 24)" onmousedown="handlePan(0,-1)">
                  <use xlink:href="#rim" fill="#404040">
                        <set attributeName="fill" to="#808080" begin="arrowUp.mouseover" end="arrowUp.mouseout"/>
                  </use>
                  <path fill="none" stroke="white" stroke-width="1.5" d="M0,-3.0v7 M-2.5,-0.5L0,-3.0L2.5,-0.5"/>
                </g>
                <g id="arrowRight" xlink:href="#dirArrow" transform="rotate(90) translate(36 -43)" onmousedown="handlePan(1,0)">
                  <use xlink:href="#rim" fill="#404040">
                        <set attributeName="fill" to="#808080" begin="arrowRight.mouseover" end="arrowRight.mouseout"/>
                  </use>
                  <path fill="none" stroke="white" stroke-width="1.5" d="M0,-3.0v7 M-2.5,-0.5L0,-3.0L2.5,-0.5"/>
                </g>
                <g id="arrowDown" xlink:href="#dirArrow" transform="rotate(180) translate(-30 -48)" onmousedown="handlePan(0,1)">
                  <use xlink:href="#rim" fill="#404040">
                        <set attributeName="fill" to="#808080" begin="arrowDown.mouseover" end="arrowDown.mouseout"/>
                  </use>
                  <path fill="none" stroke="white" stroke-width="1.5" d="M0,-3.0v7 M-2.5,-0.5L0,-3.0L2.5,-0.5"/>
                </g>
                <g id="arrowLeft" xlink:href="#dirArrow" transform="rotate(270) translate(-36 17)" onmousedown="handlePan(-1,0)">
                  <use xlink:href="#rim" fill="#404040">
                        <set attributeName="fill" to="#808080" begin="arrowLeft.mouseover" end="arrowLeft.mouseout"/>
                  </use>
                  <path fill="none" stroke="white" stroke-width="1.5" d="M0,-3.0v7 M-2.5,-0.5L0,-3.0L2.5,-0.5"/>
                </g>
        </g>
        <svg viewBox="0 0 15 15" width="100%" height="30px" preserveAspectRatio="xMaxYMin meet">
         <g id="arrow_out" transform="scale(0.3 0.3)">
          <a xlink:href="class_qt_pass_aef5aaf0605c7681967995ede486590ef_icgraph_org.svg" target="_base">
           <rect id="button" ry="5" rx="5" y="6" x="6" height="38" width="38"
                fill="#f2f5e9" fill-opacity="0.5" stroke="#606060" stroke-width="1.0"/>
           <path id="arrow"
             d="M 11.500037,31.436501 C 11.940474,20.09759 22.043105,11.32322 32.158766,21.979434 L 37.068811,17.246167 C 37.068811,17.246167 37.088388,32 37.088388,32 L 22.160133,31.978069 C 22.160133,31.978069 26.997745,27.140456 26.997745,27.140456 C 18.528582,18.264221 13.291696,25.230495 11.500037,31.436501 z"
             style="fill:#404040;"/>
          </a>
         </g>
        </svg>
</svg>
