<?xml version="1.0" encoding="UTF-8" standalone="no"?>
<!DOCTYPE svg PUBLIC "-//W3C//DTD SVG 1.1//EN"
 "http://www.w3.org/Graphics/SVG/1.1/DTD/svg11.dtd">
<!-- Generated by graphviz version 2.40.1 (20161225.0304)
 -->
<!-- Title: QtPassSettings::setGitExecutable Pages: 1 -->
<!--zoomable 103 -->
<svg id="main" version="1.1" xmlns="http://www.w3.org/2000/svg" xmlns:xlink="http://www.w3.org/1999/xlink" xml:space="preserve" onload="init(evt)">
<style type="text/css"><![CDATA[
.edge:hover path { stroke: red; }
.edge:hover polygon { stroke: red; fill: red; }
]]></style>
<script type="text/javascript"><![CDATA[
var edges = document.getElementsByTagName('g');
if (edges && edges.length) {
  for (var i=0;i<edges.length;i++) {
    if (edges[i].id.substr(0,4)=='edge') {
      edges[i].setAttribute('class','edge');
    }
  }
}
]]></script>
        <defs>
                <circle id="rim" cx="0" cy="0" r="7"/>
                <circle id="rim2" cx="0" cy="0" r="3.5"/>
                <g id="zoomPlus">
                        <use xlink:href="#rim" fill="#404040">
                                <set attributeName="fill" to="#808080" begin="zoomplus.mouseover" end="zoomplus.mouseout"/>
                        </use>
                        <path d="M-4,0h8M0,-4v8" fill="none" stroke="white" stroke-width="1.5" pointer-events="none"/>
                </g>
                <g id="zoomMin">
                        <use xlink:href="#rim" fill="#404040">
                                <set attributeName="fill" to="#808080" begin="zoomminus.mouseover" end="zoomminus.mouseout"/>
                        </use>
                        <path d="M-4,0h8" fill="none" stroke="white" stroke-width="1.5" pointer-events="none"/>
                </g>
                <g id="dirArrow">
                        <path fill="none" stroke="white" stroke-width="1.5" d="M0,-3.0v7 M-2.5,-0.5L0,-3.0L2.5,-0.5"/>
                </g>
               <g id="resetDef">
                       <use xlink:href="#rim2" fill="#404040">
                               <set attributeName="fill" to="#808080" begin="reset.mouseover" end="reset.mouseout"/>
                       </use>
               </g>
        </defs>

<script type="text/javascript">
var viewWidth = 722;
var viewHeight = 103;
var sectionId = 'dynsection-61';
</script>
<script xlink:href="svgpan.js"/>
<svg id="graph" class="graph">
<g id="viewport">
<title>QtPassSettings::setGitExecutable</title>
<!-- Node482 -->
<g id="node1" class="node">
<title>Node482</title>
<polygon fill="#bfbfbf" stroke="#000000" points="0,-38.5 0,-56.5 166.0732,-56.5 166.0732,-38.5 0,-38.5"/>
<text text-anchor="middle" x="83.0366" y="-44.5" font-family="Helvetica,sans-Serif" font-size="10.00" fill="#000000">QtPassSettings::setGitExecutable</text>
</g>
<!-- Node483 -->
<g id="node2" class="node">
<title>Node483</title>
<g id="a_node2"><a xlink:href="class_config_dialog.html#a485badac4dffa04603f800bb9d396e1d" target="_top" xlink:title="ConfigDialog::~ConfigDialog config destructor, makes sure the mainWindow knows about git...">
<polygon fill="none" stroke="#000000" points="202.0732,-76.5 202.0732,-94.5 343.9814,-94.5 343.9814,-76.5 202.0732,-76.5"/>
<text text-anchor="middle" x="273.0273" y="-82.5" font-family="Helvetica,sans-Serif" font-size="10.00" fill="#000000">ConfigDialog::~ConfigDialog</text>
</a>
</g>
</g>
<!-- Node482&#45;&gt;Node483 -->
<g id="edge1" class="edge">
<title>Node482&#45;&gt;Node483</title>
<path fill="none" stroke="#191970" d="M137.9015,-58.4735C166.4826,-64.19 201.0018,-71.0942 227.9966,-76.4934"/>
<polygon fill="#191970" stroke="#191970" points="138.554,-55.0348 128.0618,-56.5055 137.1811,-61.8988 138.554,-55.0348"/>
</g>
<!-- Node484 -->
<g id="node3" class="node">
<title>Node484</title>
<g id="a_node3"><a xlink:href="class_main_window.html#a23d2783cb61a373c4b0127970264290a" target="_top" xlink:title="MainWindow::checkConfig make sure we are ready to go as soon as possible. ">
<polygon fill="none" stroke="#000000" points="394.1538,-37.5 394.1538,-55.5 527.981,-55.5 527.981,-37.5 394.1538,-37.5"/>
<text text-anchor="middle" x="461.0674" y="-43.5" font-family="Helvetica,sans-Serif" font-size="10.00" fill="#000000">MainWindow::checkConfig</text>
</a>
</g>
</g>
<!-- Node482&#45;&gt;Node484 -->
<g id="edge2" class="edge">
<title>Node482&#45;&gt;Node484</title>
<path fill="none" stroke="#191970" d="M176.6694,-47.2523C244.1008,-47.0739 333.4804,-46.8375 393.9038,-46.6777"/>
<polygon fill="#191970" stroke="#191970" points="176.4557,-43.7528 166.4651,-47.2793 176.4743,-50.7527 176.4557,-43.7528"/>
</g>
<!-- Node486 -->
<g id="node5" class="node">
<title>Node486</title>
<g id="a_node5"><a xlink:href="class_main_window.html#aeb8091ab5531144b76c1fbb0d63deb56" target="_top" xlink:title="MainWindow::config pops up the configuration screen and handles all inter&#45;window communication. ">
<polygon fill="none" stroke="#000000" points="220.2861,-.5 220.2861,-18.5 325.7686,-18.5 325.7686,-.5 220.2861,-.5"/>
<text text-anchor="middle" x="273.0273" y="-6.5" font-family="Helvetica,sans-Serif" font-size="10.00" fill="#000000">MainWindow::config</text>
</a>
</g>
</g>
<!-- Node482&#45;&gt;Node486 -->
<g id="edge4" class="edge">
<title>Node482&#45;&gt;Node486</title>
<path fill="none" stroke="#191970" d="M137.9015,-36.5265C166.4826,-30.81 201.0018,-23.9058 227.9966,-18.5066"/>
<polygon fill="#191970" stroke="#191970" points="137.1811,-33.1012 128.0618,-38.4945 138.554,-39.9652 137.1811,-33.1012"/>
</g>
<!-- Node485 -->
<g id="node4" class="node">
<title>Node485</title>
<g id="a_node4"><a xlink:href="class_main_window.html#a8b244be8b7b7db1b08de2a2acb9409db" target="_top" xlink:title="MainWindow::MainWindow handles all of the main functionality and also the main window. ">
<polygon fill="none" stroke="#000000" points="578.1533,-37.5 578.1533,-55.5 714.1924,-55.5 714.1924,-37.5 578.1533,-37.5"/>
<text text-anchor="middle" x="646.1729" y="-43.5" font-family="Helvetica,sans-Serif" font-size="10.00" fill="#000000">MainWindow::MainWindow</text>
</a>
</g>
</g>
<!-- Node484&#45;&gt;Node485 -->
<g id="edge3" class="edge">
<title>Node484&#45;&gt;Node485</title>
<path fill="none" stroke="#191970" d="M538.1769,-46.5C551.4156,-46.5 565.0881,-46.5 578.0694,-46.5"/>
<polygon fill="#191970" stroke="#191970" points="538.1565,-43.0001 528.1564,-46.5 538.1564,-50.0001 538.1565,-43.0001"/>
</g>
<!-- Node486&#45;&gt;Node484 -->
<g id="edge5" class="edge">
<title>Node486&#45;&gt;Node484</title>
<path fill="none" stroke="#191970" d="M328.906,-20.4951C356.4252,-25.9099 389.1938,-32.3577 415.217,-37.4782"/>
<polygon fill="#191970" stroke="#191970" points="329.5147,-17.0478 319.0271,-18.5512 328.1632,-23.9161 329.5147,-17.0478"/>
</g>
<!-- Node487 -->
<g id="node6" class="node">
<title>Node487</title>
<g id="a_node6"><a xlink:href="class_main_window.html#a4680b2cbcfd388683a98303f29c0f84f" target="_top" xlink:title="MainWindow::executePassGitInit git init wrapper. ">
<polygon fill="none" stroke="#000000" points="379.9814,-.5 379.9814,-18.5 542.1533,-18.5 542.1533,-.5 379.9814,-.5"/>
<text text-anchor="middle" x="461.0674" y="-6.5" font-family="Helvetica,sans-Serif" font-size="10.00" fill="#000000">MainWindow::executePassGitInit</text>
</a>
</g>
</g>
<!-- Node486&#45;&gt;Node487 -->
<g id="edge6" class="edge">
<title>Node486&#45;&gt;Node487</title>
<path fill="none" stroke="#191970" d="M335.9361,-9.5C349.9914,-9.5 365.0922,-9.5 379.7715,-9.5"/>
<polygon fill="#191970" stroke="#191970" points="335.9074,-6.0001 325.9074,-9.5 335.9074,-13.0001 335.9074,-6.0001"/>
</g>
<!-- Node488 -->
<g id="node7" class="node">
<title>Node488</title>
<g id="a_node7"><a xlink:href="class_config_dialog.html#ad5b80066591f19fdaaa06b7cb5ba7f15" target="_top" xlink:title="ConfigDialog::wizard first&#45;time use wizard. ">
<polygon fill="none" stroke="#000000" points="592.3184,-.5 592.3184,-18.5 700.0273,-18.5 700.0273,-.5 592.3184,-.5"/>
<text text-anchor="middle" x="646.1729" y="-6.5" font-family="Helvetica,sans-Serif" font-size="10.00" fill="#000000">ConfigDialog::wizard</text>
</a>
</g>
</g>
<!-- Node487&#45;&gt;Node488 -->
<g id="edge7" class="edge">
<title>Node487&#45;&gt;Node488</title>
<path fill="none" stroke="#191970" d="M552.6014,-9.5C566.161,-9.5 579.7497,-9.5 592.2032,-9.5"/>
<polygon fill="#191970" stroke="#191970" points="552.2574,-6.0001 542.2573,-9.5 552.2573,-13.0001 552.2574,-6.0001"/>
</g>
</g>
</svg>
        <g id="navigator" transform="translate(0 0)" fill="#404254">
                <rect fill="#f2f5e9" fill-opacity="0.5" stroke="#606060" stroke-width=".5" x="0" y="0" width="60" height="60"/>
                <use id="zoomplus" xlink:href="#zoomPlus" x="17" y="9" onmousedown="handleZoom(evt,'in')"/>
                <use id="zoomminus" xlink:href="#zoomMin" x="42" y="9" onmousedown="handleZoom(evt,'out')"/>
                <use id="reset" xlink:href="#resetDef" x="30" y="36" onmousedown="handleReset()"/>
                <g id="arrowUp" xlink:href="#dirArrow" transform="translate(30 24)" onmousedown="handlePan(0,-1)">
                  <use xlink:href="#rim" fill="#404040">
                        <set attributeName="fill" to="#808080" begin="arrowUp.mouseover" end="arrowUp.mouseout"/>
                  </use>
                  <path fill="none" stroke="white" stroke-width="1.5" d="M0,-3.0v7 M-2.5,-0.5L0,-3.0L2.5,-0.5"/>
                </g>
                <g id="arrowRight" xlink:href="#dirArrow" transform="rotate(90) translate(36 -43)" onmousedown="handlePan(1,0)">
                  <use xlink:href="#rim" fill="#404040">
                        <set attributeName="fill" to="#808080" begin="arrowRight.mouseover" end="arrowRight.mouseout"/>
                  </use>
                  <path fill="none" stroke="white" stroke-width="1.5" d="M0,-3.0v7 M-2.5,-0.5L0,-3.0L2.5,-0.5"/>
                </g>
                <g id="arrowDown" xlink:href="#dirArrow" transform="rotate(180) translate(-30 -48)" onmousedown="handlePan(0,1)">
                  <use xlink:href="#rim" fill="#404040">
                        <set attributeName="fill" to="#808080" begin="arrowDown.mouseover" end="arrowDown.mouseout"/>
                  </use>
                  <path fill="none" stroke="white" stroke-width="1.5" d="M0,-3.0v7 M-2.5,-0.5L0,-3.0L2.5,-0.5"/>
                </g>
                <g id="arrowLeft" xlink:href="#dirArrow" transform="rotate(270) translate(-36 17)" onmousedown="handlePan(-1,0)">
                  <use xlink:href="#rim" fill="#404040">
                        <set attributeName="fill" to="#808080" begin="arrowLeft.mouseover" end="arrowLeft.mouseout"/>
                  </use>
                  <path fill="none" stroke="white" stroke-width="1.5" d="M0,-3.0v7 M-2.5,-0.5L0,-3.0L2.5,-0.5"/>
                </g>
        </g>
        <svg viewBox="0 0 15 15" width="100%" height="30px" preserveAspectRatio="xMaxYMin meet">
         <g id="arrow_out" transform="scale(0.3 0.3)">
          <a xlink:href="class_qt_pass_settings_a423f05b95badd51857630009e9ce629f_icgraph_org.svg" target="_base">
           <rect id="button" ry="5" rx="5" y="6" x="6" height="38" width="38"
                fill="#f2f5e9" fill-opacity="0.5" stroke="#606060" stroke-width="1.0"/>
           <path id="arrow"
             d="M 11.500037,31.436501 C 11.940474,20.09759 22.043105,11.32322 32.158766,21.979434 L 37.068811,17.246167 C 37.068811,17.246167 37.088388,32 37.088388,32 L 22.160133,31.978069 C 22.160133,31.978069 26.997745,27.140456 26.997745,27.140456 C 18.528582,18.264221 13.291696,25.230495 11.500037,31.436501 z"
             style="fill:#404040;"/>
          </a>
         </g>
        </svg>
</svg>
