<?xml version="1.0" encoding="UTF-8" standalone="no"?>
<!DOCTYPE svg PUBLIC "-//W3C//DTD SVG 1.1//EN"
 "http://www.w3.org/Graphics/SVG/1.1/DTD/svg11.dtd">
<!-- Generated by graphviz version 2.40.1 (20161225.0304)
 -->
<!-- Title: QtPassSettings::isLessRandom Pages: 1 -->
<svg width="337pt" height="64pt"
 viewBox="0.00 0.00 336.69 64.00" xmlns="http://www.w3.org/2000/svg" xmlns:xlink="http://www.w3.org/1999/xlink">
<g id="graph0" class="graph" transform="scale(1 1) rotate(0) translate(4 60)">
<title>QtPassSettings::isLessRandom</title>
<!-- Node404 -->
<g id="node1" class="node">
<title>Node404</title>
<g id="a_node1"><a xlink:title=" ">
<polygon fill="#bfbfbf" stroke="#000000" points="172.0684,-18.5 172.0684,-36.5 328.6885,-36.5 328.6885,-18.5 172.0684,-18.5"/>
<text text-anchor="middle" x="250.3784" y="-24.5" font-family="Helvetica,sans-Serif" font-size="10.00" fill="#000000">QtPassSettings::isLessRandom</text>
</a>
</g>
</g>
<!-- Node405 -->
<g id="node2" class="node">
<title>Node405</title>
<g id="a_node2"><a xlink:href="class_config_dialog.html#a815d6d8ddf1de9386427ddef691a02a1" target="_top" xlink:title="ConfigDialog::ConfigDialog this sets up the configuration screen.">
<polygon fill="none" stroke="#000000" points="0,-37.5 0,-55.5 136.0684,-55.5 136.0684,-37.5 0,-37.5"/>
<text text-anchor="middle" x="68.0342" y="-43.5" font-family="Helvetica,sans-Serif" font-size="10.00" fill="#000000">ConfigDialog::ConfigDialog</text>
</a>
</g>
</g>
<!-- Node404&#45;&gt;Node405 -->
<g id="edge1" class="edge">
<title>Node404&#45;&gt;Node405</title>
<path fill="none" stroke="#191970" d="M161.9206,-36.7172C153.3147,-37.6139 144.6767,-38.514 136.3134,-39.3854"/>
<polygon fill="#191970" stroke="#191970" points="162.4064,-40.1856 171.9898,-35.668 161.6809,-33.2233 162.4064,-40.1856"/>
</g>
<!-- Node406 -->
<g id="node3" class="node">
<title>Node406</title>
<g id="a_node3"><a xlink:href="class_pass.html#a9837e79dfc147d8710563a4a8a04bf3e" target="_top" xlink:title="Pass::Generate use either pwgen or internal password generator.">
<polygon fill="none" stroke="#000000" points="19.7314,-.5 19.7314,-18.5 116.3369,-18.5 116.3369,-.5 19.7314,-.5"/>
<text text-anchor="middle" x="68.0342" y="-6.5" font-family="Helvetica,sans-Serif" font-size="10.00" fill="#000000">Pass::Generate_b</text>
</a>
</g>
</g>
<!-- Node404&#45;&gt;Node406 -->
<g id="edge2" class="edge">
<title>Node404&#45;&gt;Node406</title>
<path fill="none" stroke="#191970" d="M161.7905,-18.7551C146.2187,-17.2179 130.5463,-15.6708 116.5922,-14.2934"/>
<polygon fill="#191970" stroke="#191970" points="161.6943,-22.2625 171.9898,-19.7619 162.382,-15.2964 161.6943,-22.2625"/>
</g>
</g>
</svg>
