<?xml version="1.0" encoding="UTF-8" standalone="no"?>
<!DOCTYPE svg PUBLIC "-//W3C//DTD SVG 1.1//EN"
 "http://www.w3.org/Graphics/SVG/1.1/DTD/svg11.dtd">
<!-- Generated by graphviz version 2.40.1 (20161225.0304)
 -->
<!-- Title: Util::findBinaryInPath Pages: 1 -->
<svg width="443pt" height="66pt"
 viewBox="0.00 0.00 443.00 66.00" xmlns="http://www.w3.org/2000/svg" xmlns:xlink="http://www.w3.org/1999/xlink">
<g id="graph0" class="graph" transform="scale(1 1) rotate(0) translate(4 62)">
<title>Util::findBinaryInPath</title>
<!-- Node17 -->
<g id="node1" class="node">
<title>Node17</title>
<polygon fill="#bfbfbf" stroke="#000000" points="0,-19.5 0,-38.5 110,-38.5 110,-19.5 0,-19.5"/>
<text text-anchor="middle" x="55" y="-26.5" font-family="Helvetica,sans-Serif" font-size="10.00" fill="#000000">Util::findBinaryInPath</text>
</g>
<!-- Node18 -->
<g id="node2" class="node">
<title>Node18</title>
<g id="a_node2"><a xlink:href="class_config_dialog.html#a485badac4dffa04603f800bb9d396e1d" target="_top" xlink:title="ConfigDialog::~ConfigDialog config destructor, makes sure the mainWindow knows about git...">
<polygon fill="none" stroke="#000000" points="154.5,-38.5 154.5,-57.5 295.5,-57.5 295.5,-38.5 154.5,-38.5"/>
<text text-anchor="middle" x="225" y="-45.5" font-family="Helvetica,sans-Serif" font-size="10.00" fill="#000000">ConfigDialog::~ConfigDialog</text>
</a>
</g>
</g>
<!-- Node17&#45;&gt;Node18 -->
<g id="edge1" class="edge">
<title>Node17&#45;&gt;Node18</title>
<path fill="none" stroke="#191970" d="M120.2602,-36.2938C131.3932,-37.5381 143.0043,-38.8358 154.2711,-40.095"/>
<polygon fill="#191970" stroke="#191970" points="120.521,-32.8012 110.1941,-35.1688 119.7435,-39.7579 120.521,-32.8012"/>
</g>
<!-- Node19 -->
<g id="node3" class="node">
<title>Node19</title>
<g id="a_node3"><a xlink:href="class_qt_pass_settings.html#a64ffdab0605be803054150d438254c56" target="_top" xlink:title="QtPassSettings::initExecutables">
<polygon fill="none" stroke="#000000" points="146,-.5 146,-19.5 304,-19.5 304,-.5 146,-.5"/>
<text text-anchor="middle" x="225" y="-7.5" font-family="Helvetica,sans-Serif" font-size="10.00" fill="#000000">QtPassSettings::initExecutables</text>
</a>
</g>
</g>
<!-- Node17&#45;&gt;Node19 -->
<g id="edge2" class="edge">
<title>Node17&#45;&gt;Node19</title>
<path fill="none" stroke="#191970" d="M120.2109,-21.7117C128.5513,-20.7796 137.1609,-19.8173 145.6936,-18.8637"/>
<polygon fill="#191970" stroke="#191970" points="119.7435,-18.2421 110.1941,-22.8312 120.521,-25.1988 119.7435,-18.2421"/>
</g>
<!-- Node20 -->
<g id="node4" class="node">
<title>Node20</title>
<g id="a_node4"><a xlink:href="class_qt_pass.html#a70447af6f0e0540106a423a45dc27c99" target="_top" xlink:title="QtPass::~QtPass destroy! ">
<polygon fill="none" stroke="#000000" points="340,-.5 340,-19.5 435,-19.5 435,-.5 340,-.5"/>
<text text-anchor="middle" x="387.5" y="-7.5" font-family="Helvetica,sans-Serif" font-size="10.00" fill="#000000">QtPass::~QtPass</text>
</a>
</g>
</g>
<!-- Node19&#45;&gt;Node20 -->
<g id="edge3" class="edge">
<title>Node19&#45;&gt;Node20</title>
<path fill="none" stroke="#191970" d="M314.532,-10C323.1799,-10 331.7013,-10 339.6989,-10"/>
<polygon fill="#191970" stroke="#191970" points="314.3459,-6.5001 304.3459,-10 314.3458,-13.5001 314.3459,-6.5001"/>
</g>
</g>
</svg>
