<?xml version="1.0" encoding="UTF-8" standalone="no"?>
<!DOCTYPE svg PUBLIC "-//W3C//DTD SVG 1.1//EN"
 "http://www.w3.org/Graphics/SVG/1.1/DTD/svg11.dtd">
<!-- Generated by graphviz version 2.40.1 (20161225.0304)
 -->
<!-- Title: ImitatePass::Init Pages: 1 -->
<svg width="479pt" height="142pt"
 viewBox="0.00 0.00 479.00 142.00" xmlns="http://www.w3.org/2000/svg" xmlns:xlink="http://www.w3.org/1999/xlink">
<g id="graph0" class="graph" transform="scale(1 1) rotate(0) translate(4 138)">
<title>ImitatePass::Init</title>
<!-- Node56 -->
<g id="node1" class="node">
<title>Node56</title>
<polygon fill="#bfbfbf" stroke="#000000" points="0,-57.5 0,-76.5 89,-76.5 89,-57.5 0,-57.5"/>
<text text-anchor="middle" x="44.5" y="-64.5" font-family="Helvetica,sans-Serif" font-size="10.00" fill="#000000">ImitatePass::Init</text>
</g>
<!-- Node57 -->
<g id="node2" class="node">
<title>Node57</title>
<g id="a_node2"><a xlink:href="class_qt_pass_settings.html#afa8d62b0dfd9538f7801a56710b33694" target="_top" xlink:title="QtPassSettings::isAddGPGId">
<polygon fill="none" stroke="#000000" points="135.5,-114.5 135.5,-133.5 281.5,-133.5 281.5,-114.5 135.5,-114.5"/>
<text text-anchor="middle" x="208.5" y="-121.5" font-family="Helvetica,sans-Serif" font-size="10.00" fill="#000000">QtPassSettings::isAddGPGId</text>
</a>
</g>
</g>
<!-- Node56&#45;&gt;Node57 -->
<g id="edge1" class="edge">
<title>Node56&#45;&gt;Node57</title>
<path fill="none" stroke="#191970" d="M61.9405,-76.592C77.9413,-85.0602 102.5026,-97.234 125,-105 132.5932,-107.6211 140.7008,-109.9822 148.7673,-112.0762"/>
<polygon fill="#191970" stroke="#191970" points="148.0011,-115.4921 158.5491,-114.4976 149.6831,-108.6972 148.0011,-115.4921"/>
</g>
<!-- Node59 -->
<g id="node4" class="node">
<title>Node59</title>
<g id="a_node4"><a xlink:href="class_qt_pass_settings.html#a68a9cac12925baf6cff2ce2c7a0f5a8c" target="_top" xlink:title="QtPassSettings::isUseWebDav">
<polygon fill="none" stroke="#000000" points="131,-76.5 131,-95.5 286,-95.5 286,-76.5 131,-76.5"/>
<text text-anchor="middle" x="208.5" y="-83.5" font-family="Helvetica,sans-Serif" font-size="10.00" fill="#000000">QtPassSettings::isUseWebDav</text>
</a>
</g>
</g>
<!-- Node56&#45;&gt;Node59 -->
<g id="edge3" class="edge">
<title>Node56&#45;&gt;Node59</title>
<path fill="none" stroke="#191970" d="M89.3137,-72.1918C99.1888,-73.3359 109.9767,-74.5857 120.8978,-75.851"/>
<polygon fill="#191970" stroke="#191970" points="120.606,-79.3405 130.9424,-77.0147 121.4117,-72.387 120.606,-79.3405"/>
</g>
<!-- Node60 -->
<g id="node5" class="node">
<title>Node60</title>
<g id="a_node5"><a xlink:href="class_qt_pass_settings.html#a2fd748b9e34c57aac277e8f0556a532f" target="_top" xlink:title="QtPassSettings::isUseGit">
<polygon fill="none" stroke="#000000" points="143.5,-38.5 143.5,-57.5 273.5,-57.5 273.5,-38.5 143.5,-38.5"/>
<text text-anchor="middle" x="208.5" y="-45.5" font-family="Helvetica,sans-Serif" font-size="10.00" fill="#000000">QtPassSettings::isUseGit</text>
</a>
</g>
</g>
<!-- Node56&#45;&gt;Node60 -->
<g id="edge5" class="edge">
<title>Node56&#45;&gt;Node60</title>
<path fill="none" stroke="#191970" d="M89.3137,-61.8082C102.8756,-60.237 118.1593,-58.4663 133.145,-56.7302"/>
<polygon fill="#191970" stroke="#191970" points="133.9166,-60.1643 143.4473,-55.5366 133.1109,-53.2108 133.9166,-60.1643"/>
</g>
<!-- Node61 -->
<g id="node6" class="node">
<title>Node61</title>
<g id="a_node6"><a xlink:href="class_qt_pass_settings.html#af1577fc288ddb6077df5a2fb2f8913b6" target="_top" xlink:title="QtPassSettings::getGitExecutable">
<polygon fill="none" stroke="#000000" points="125,-.5 125,-19.5 292,-19.5 292,-.5 125,-.5"/>
<text text-anchor="middle" x="208.5" y="-7.5" font-family="Helvetica,sans-Serif" font-size="10.00" fill="#000000">QtPassSettings::getGitExecutable</text>
</a>
</g>
</g>
<!-- Node56&#45;&gt;Node61 -->
<g id="edge7" class="edge">
<title>Node56&#45;&gt;Node61</title>
<path fill="none" stroke="#191970" d="M61.9405,-57.408C77.9413,-48.9398 102.5026,-36.766 125,-29 132.5932,-26.3789 140.7008,-24.0178 148.7673,-21.9238"/>
<polygon fill="#191970" stroke="#191970" points="149.6831,-25.3028 158.5491,-19.5024 148.0011,-18.5079 149.6831,-25.3028"/>
</g>
<!-- Node58 -->
<g id="node3" class="node">
<title>Node58</title>
<g id="a_node3"><a xlink:href="class_qt_pass_settings.html#ab83659fdbfb9069942e6982076b4b934" target="_top" xlink:title="QtPassSettings::getInstance">
<polygon fill="none" stroke="#000000" points="328,-57.5 328,-76.5 471,-76.5 471,-57.5 328,-57.5"/>
<text text-anchor="middle" x="399.5" y="-64.5" font-family="Helvetica,sans-Serif" font-size="10.00" fill="#000000">QtPassSettings::getInstance</text>
</a>
</g>
</g>
<!-- Node57&#45;&gt;Node58 -->
<g id="edge2" class="edge">
<title>Node57&#45;&gt;Node58</title>
<path fill="none" stroke="#191970" d="M254.684,-114.4969C266.8904,-111.7116 280.0041,-108.4723 292,-105 316.9504,-97.7779 344.5666,-87.9757 365.5605,-80.1359"/>
<polygon fill="#191970" stroke="#191970" points="366.8777,-83.3799 374.9998,-76.5768 364.408,-76.83 366.8777,-83.3799"/>
</g>
<!-- Node59&#45;&gt;Node58 -->
<g id="edge4" class="edge">
<title>Node59&#45;&gt;Node58</title>
<path fill="none" stroke="#191970" d="M286.187,-78.272C296.5965,-77.2365 307.2987,-76.1719 317.7751,-75.1297"/>
<polygon fill="#191970" stroke="#191970" points="318.1289,-78.6119 327.7333,-74.1391 317.4359,-71.6463 318.1289,-78.6119"/>
</g>
<!-- Node60&#45;&gt;Node58 -->
<g id="edge6" class="edge">
<title>Node60&#45;&gt;Node58</title>
<path fill="none" stroke="#191970" d="M273.6972,-54.4856C287.8339,-55.8919 302.959,-57.3964 317.6445,-58.8573"/>
<polygon fill="#191970" stroke="#191970" points="317.4263,-62.3528 327.7237,-59.8599 318.1193,-55.3872 317.4263,-62.3528"/>
</g>
<!-- Node61&#45;&gt;Node58 -->
<g id="edge8" class="edge">
<title>Node61&#45;&gt;Node58</title>
<path fill="none" stroke="#191970" d="M254.684,-19.5031C266.8904,-22.2884 280.0041,-25.5277 292,-29 316.9504,-36.2221 344.5666,-46.0243 365.5605,-53.8641"/>
<polygon fill="#191970" stroke="#191970" points="364.408,-57.17 374.9998,-57.4232 366.8777,-50.6201 364.408,-57.17"/>
</g>
</g>
</svg>
