<?xml version="1.0" encoding="UTF-8" standalone="no"?>
<!DOCTYPE svg PUBLIC "-//W3C//DTD SVG 1.1//EN"
 "http://www.w3.org/Graphics/SVG/1.1/DTD/svg11.dtd">
<!-- Generated by graphviz version 2.44.1 (20200629.0846)
 -->
<!-- Title: QtPass::setClipboardTimer Pages: 1 -->
<svg width="504pt" height="39pt"
 viewBox="0.00 0.00 504.00 39.00" xmlns="http://www.w3.org/2000/svg" xmlns:xlink="http://www.w3.org/1999/xlink">
<g id="graph0" class="graph" transform="scale(1 1) rotate(0) translate(4 35)">
<title>QtPass::setClipboardTimer</title>
<!-- Node1 -->
<g id="node1" class="node">
<title>Node1</title>
<g id="a_node1"><a xlink:title=" ">
<polygon fill="#bfbfbf" stroke="black" points="0,-6 0,-25 135,-25 135,-6 0,-6"/>
<text text-anchor="middle" x="67.5" y="-13" font-family="Helvetica,sans-Serif" font-size="10.00">QtPass::setClipboardTimer</text>
</a>
</g>
</g>
<!-- Node2 -->
<g id="node2" class="node">
<title>Node2</title>
<g id="a_node2"><a xlink:href="class_qt_pass_settings.html#a462bf3ee0176fd621e4dc96c381bcffe" target="_top" xlink:title=" ">
<polygon fill="none" stroke="black" points="171,-0.5 171,-30.5 317,-30.5 317,-0.5 171,-0.5"/>
<text text-anchor="start" x="179" y="-18.5" font-family="Helvetica,sans-Serif" font-size="10.00">QtPassSettings::getAutoclear</text>
<text text-anchor="middle" x="244" y="-7.5" font-family="Helvetica,sans-Serif" font-size="10.00">Seconds</text>
</a>
</g>
</g>
<!-- Node1&#45;&gt;Node2 -->
<g id="edge1" class="edge">
<title>Node1&#45;&gt;Node2</title>
<path fill="none" stroke="midnightblue" d="M135.47,-15.5C143.74,-15.5 152.26,-15.5 160.72,-15.5"/>
<polygon fill="midnightblue" stroke="midnightblue" points="160.99,-19 170.99,-15.5 160.99,-12 160.99,-19"/>
</g>
<!-- Node3 -->
<g id="node3" class="node">
<title>Node3</title>
<g id="a_node3"><a xlink:href="class_qt_pass_settings.html#ab83659fdbfb9069942e6982076b4b934" target="_top" xlink:title=" ">
<polygon fill="none" stroke="black" points="353,-6 353,-25 496,-25 496,-6 353,-6"/>
<text text-anchor="middle" x="424.5" y="-13" font-family="Helvetica,sans-Serif" font-size="10.00">QtPassSettings::getInstance</text>
</a>
</g>
</g>
<!-- Node2&#45;&gt;Node3 -->
<g id="edge2" class="edge">
<title>Node2&#45;&gt;Node3</title>
<path fill="none" stroke="midnightblue" d="M317.09,-15.5C325.57,-15.5 334.27,-15.5 342.86,-15.5"/>
<polygon fill="midnightblue" stroke="midnightblue" points="342.88,-19 352.88,-15.5 342.88,-12 342.88,-19"/>
</g>
</g>
</svg>
