<?xml version="1.0" encoding="UTF-8" standalone="no"?>
<!DOCTYPE svg PUBLIC "-//W3C//DTD SVG 1.1//EN"
 "http://www.w3.org/Graphics/SVG/1.1/DTD/svg11.dtd">
<!-- Generated by graphviz version 2.40.1 (20161225.0304)
 -->
<!-- Title: Util::getDir Pages: 1 -->
<svg width="755pt" height="148pt"
 viewBox="0.00 0.00 755.00 148.00" xmlns="http://www.w3.org/2000/svg" xmlns:xlink="http://www.w3.org/1999/xlink">
<g id="graph0" class="graph" transform="scale(1 1) rotate(0) translate(4 144)">
<title>Util::getDir</title>
<!-- Node29 -->
<g id="node1" class="node">
<title>Node29</title>
<polygon fill="#bfbfbf" stroke="#000000" points="0,-60.5 0,-79.5 64,-79.5 64,-60.5 0,-60.5"/>
<text text-anchor="middle" x="32" y="-67.5" font-family="Helvetica,sans-Serif" font-size="10.00" fill="#000000">Util::getDir</text>
</g>
<!-- Node30 -->
<g id="node2" class="node">
<title>Node30</title>
<g id="a_node2"><a xlink:href="class_main_window.html#adc7d4b2b210efab401f0b14641f80464" target="_top" xlink:title="MainWindow::on_treeView_clicked read the selected password file. ">
<polygon fill="none" stroke="#000000" points="100,-77 100,-107 233,-107 233,-77 100,-77"/>
<text text-anchor="start" x="108" y="-95" font-family="Helvetica,sans-Serif" font-size="10.00" fill="#000000">MainWindow::on_treeView</text>
<text text-anchor="middle" x="166.5" y="-84" font-family="Helvetica,sans-Serif" font-size="10.00" fill="#000000">_clicked</text>
</a>
</g>
</g>
<!-- Node29&#45;&gt;Node30 -->
<g id="edge1" class="edge">
<title>Node29&#45;&gt;Node30</title>
<path fill="none" stroke="#191970" d="M74.2349,-76.9083C82.4234,-78.2477 91.1889,-79.6814 99.9388,-81.1127"/>
<polygon fill="#191970" stroke="#191970" points="74.65,-73.4298 64.2161,-75.2695 73.5199,-80.338 74.65,-73.4298"/>
</g>
<!-- Node31 -->
<g id="node3" class="node">
<title>Node31</title>
<g id="a_node3"><a xlink:href="class_main_window.html#a9630f0fe0e0941a7996d68014f837ed5" target="_top" xlink:title="MainWindow::restoreWindow">
<polygon fill="none" stroke="#000000" points="270,-120.5 270,-139.5 414,-139.5 414,-120.5 270,-120.5"/>
<text text-anchor="middle" x="342" y="-127.5" font-family="Helvetica,sans-Serif" font-size="10.00" fill="#000000">MainWindow::restoreWindow</text>
</a>
</g>
</g>
<!-- Node29&#45;&gt;Node31 -->
<g id="edge7" class="edge">
<title>Node29&#45;&gt;Node31</title>
<path fill="none" stroke="#191970" d="M49.6733,-86.3311C62.5781,-97.1618 81.0619,-110.5296 100,-117 154.8449,-135.7382 220.7351,-138.0748 269.9043,-136.2354"/>
<polygon fill="#191970" stroke="#191970" points="51.8857,-83.6165 42.05,-79.6782 47.283,-88.8905 51.8857,-83.6165"/>
</g>
<!-- Node34 -->
<g id="node6" class="node">
<title>Node34</title>
<g id="a_node6"><a xlink:href="class_main_window.html#a9c4f542263838b9ecd06eae839a42a34" target="_top" xlink:title="MainWindow::keyPressEvent did anyone press return, enter or escape? ">
<polygon fill="none" stroke="#000000" points="269,-41.5 269,-60.5 415,-60.5 415,-41.5 269,-41.5"/>
<text text-anchor="middle" x="342" y="-48.5" font-family="Helvetica,sans-Serif" font-size="10.00" fill="#000000">MainWindow::keyPressEvent</text>
</a>
</g>
</g>
<!-- Node29&#45;&gt;Node34 -->
<g id="edge10" class="edge">
<title>Node29&#45;&gt;Node34</title>
<path fill="none" stroke="#191970" d="M74.1208,-67.4184C124.0368,-64.359 208.072,-59.2085 268.7246,-55.4911"/>
<polygon fill="#191970" stroke="#191970" points="73.775,-63.9329 64.0078,-68.0382 74.2033,-70.9198 73.775,-63.9329"/>
</g>
<!-- Node35 -->
<g id="node7" class="node">
<title>Node35</title>
<g id="a_node7"><a xlink:href="class_main_window.html#add7481e9707f309caba6b5d3a8c1ddc9" target="_top" xlink:title="MainWindow::userDialog see MainWindow::onUsers() ">
<polygon fill="none" stroke="#000000" points="104,-.5 104,-19.5 229,-19.5 229,-.5 104,-.5"/>
<text text-anchor="middle" x="166.5" y="-7.5" font-family="Helvetica,sans-Serif" font-size="10.00" fill="#000000">MainWindow::userDialog</text>
</a>
</g>
</g>
<!-- Node29&#45;&gt;Node35 -->
<g id="edge8" class="edge">
<title>Node29&#45;&gt;Node35</title>
<path fill="none" stroke="#191970" d="M57.4307,-55.4446C70.0289,-48.5171 85.5936,-40.3753 100,-34 112.0098,-28.6853 125.5975,-23.6206 137.3461,-19.5254"/>
<polygon fill="#191970" stroke="#191970" points="55.4727,-52.529 48.4433,-60.4561 58.8818,-58.6428 55.4727,-52.529"/>
</g>
<!-- Node30&#45;&gt;Node31 -->
<g id="edge2" class="edge">
<title>Node30&#45;&gt;Node31</title>
<path fill="none" stroke="#191970" d="M242.8745,-108.5369C261.7278,-112.6191 281.2936,-116.8556 298.0112,-120.4754"/>
<polygon fill="#191970" stroke="#191970" points="243.6135,-105.1159 233.0993,-106.4204 242.1321,-111.9574 243.6135,-105.1159"/>
</g>
<!-- Node32 -->
<g id="node4" class="node">
<title>Node32</title>
<g id="a_node4"><a xlink:href="class_qt_pass.html#abd1d1e8d6b80b8307a305d80a6c34371" target="_top" xlink:title="QtPass::setMainWindow">
<polygon fill="none" stroke="#000000" points="451,-101.5 451,-120.5 576,-120.5 576,-101.5 451,-101.5"/>
<text text-anchor="middle" x="513.5" y="-108.5" font-family="Helvetica,sans-Serif" font-size="10.00" fill="#000000">QtPass::setMainWindow</text>
</a>
</g>
</g>
<!-- Node30&#45;&gt;Node32 -->
<g id="edge6" class="edge">
<title>Node30&#45;&gt;Node32</title>
<path fill="none" stroke="#191970" d="M243.589,-96.221C305.9778,-99.6371 392.7354,-104.3875 450.887,-107.5716"/>
<polygon fill="#191970" stroke="#191970" points="243.5815,-92.7155 233.4051,-95.6634 243.1987,-99.705 243.5815,-92.7155"/>
</g>
<!-- Node30&#45;&gt;Node34 -->
<g id="edge5" class="edge">
<title>Node30&#45;&gt;Node34</title>
<path fill="none" stroke="#191970" d="M240.5993,-74.6891C261.3173,-69.849 283.0759,-64.7657 301.1022,-60.5545"/>
<polygon fill="#191970" stroke="#191970" points="239.7947,-71.2827 230.8532,-76.9659 241.3872,-78.0991 239.7947,-71.2827"/>
</g>
<!-- Node31&#45;&gt;Node32 -->
<g id="edge3" class="edge">
<title>Node31&#45;&gt;Node32</title>
<path fill="none" stroke="#191970" d="M424.2847,-120.8839C433.2237,-119.8936 442.213,-118.8977 450.8632,-117.9394"/>
<polygon fill="#191970" stroke="#191970" points="423.7881,-117.4174 414.2344,-121.9974 424.559,-124.3749 423.7881,-117.4174"/>
</g>
<!-- Node33 -->
<g id="node5" class="node">
<title>Node33</title>
<g id="a_node5"><a xlink:href="class_main_window.html#a52e97245b2f88492071e639395c4a15a" target="_top" xlink:title="MainWindow::MainWindow handles all of the main functionality and also the main window. ">
<polygon fill="none" stroke="#000000" points="612,-101.5 612,-120.5 747,-120.5 747,-101.5 612,-101.5"/>
<text text-anchor="middle" x="679.5" y="-108.5" font-family="Helvetica,sans-Serif" font-size="10.00" fill="#000000">MainWindow::MainWindow</text>
</a>
</g>
</g>
<!-- Node32&#45;&gt;Node33 -->
<g id="edge4" class="edge">
<title>Node32&#45;&gt;Node33</title>
<path fill="none" stroke="#191970" d="M586.4873,-111C594.951,-111 603.5556,-111 611.9422,-111"/>
<polygon fill="#191970" stroke="#191970" points="586.2575,-107.5001 576.2575,-111 586.2574,-114.5001 586.2575,-107.5001"/>
</g>
<!-- Node36 -->
<g id="node8" class="node">
<title>Node36</title>
<g id="a_node8"><a xlink:href="class_config_dialog.html#ad5b80066591f19fdaaa06b7cb5ba7f15" target="_top" xlink:title="ConfigDialog::wizard first&#45;time use wizard. ">
<polygon fill="none" stroke="#000000" points="288.5,-.5 288.5,-19.5 395.5,-19.5 395.5,-.5 288.5,-.5"/>
<text text-anchor="middle" x="342" y="-7.5" font-family="Helvetica,sans-Serif" font-size="10.00" fill="#000000">ConfigDialog::wizard</text>
</a>
</g>
</g>
<!-- Node35&#45;&gt;Node36 -->
<g id="edge9" class="edge">
<title>Node35&#45;&gt;Node36</title>
<path fill="none" stroke="#191970" d="M239.4375,-10C255.7973,-10 272.8643,-10 288.2748,-10"/>
<polygon fill="#191970" stroke="#191970" points="239.3639,-6.5001 229.3638,-10 239.3638,-13.5001 239.3639,-6.5001"/>
</g>
</g>
</svg>
