<?xml version="1.0" encoding="UTF-8" standalone="no"?>
<!DOCTYPE svg PUBLIC "-//W3C//DTD SVG 1.1//EN"
 "http://www.w3.org/Graphics/SVG/1.1/DTD/svg11.dtd">
<!-- Generated by graphviz version 2.40.1 (20161225.0304)
 -->
<!-- Title: Pass::updateEnv Pages: 1 -->
<!--zoomable 152 -->
<svg id="main" version="1.1" xmlns="http://www.w3.org/2000/svg" xmlns:xlink="http://www.w3.org/1999/xlink" xml:space="preserve" onload="init(evt)">
<style type="text/css"><![CDATA[
.edge:hover path { stroke: red; }
.edge:hover polygon { stroke: red; fill: red; }
]]></style>
<script type="text/javascript"><![CDATA[
var edges = document.getElementsByTagName('g');
if (edges && edges.length) {
  for (var i=0;i<edges.length;i++) {
    if (edges[i].id.substr(0,4)=='edge') {
      edges[i].setAttribute('class','edge');
    }
  }
}
]]></script>
        <defs>
                <circle id="rim" cx="0" cy="0" r="7"/>
                <circle id="rim2" cx="0" cy="0" r="3.5"/>
                <g id="zoomPlus">
                        <use xlink:href="#rim" fill="#404040">
                                <set attributeName="fill" to="#808080" begin="zoomplus.mouseover" end="zoomplus.mouseout"/>
                        </use>
                        <path d="M-4,0h8M0,-4v8" fill="none" stroke="white" stroke-width="1.5" pointer-events="none"/>
                </g>
                <g id="zoomMin">
                        <use xlink:href="#rim" fill="#404040">
                                <set attributeName="fill" to="#808080" begin="zoomminus.mouseover" end="zoomminus.mouseout"/>
                        </use>
                        <path d="M-4,0h8" fill="none" stroke="white" stroke-width="1.5" pointer-events="none"/>
                </g>
                <g id="dirArrow">
                        <path fill="none" stroke="white" stroke-width="1.5" d="M0,-3.0v7 M-2.5,-0.5L0,-3.0L2.5,-0.5"/>
                </g>
               <g id="resetDef">
                       <use xlink:href="#rim2" fill="#404040">
                               <set attributeName="fill" to="#808080" begin="reset.mouseover" end="reset.mouseout"/>
                       </use>
               </g>
        </defs>

<script type="text/javascript">
var viewWidth = 824;
var viewHeight = 152;
var sectionId = 'dynsection-53';
</script>
<script xlink:href="svgpan.js"/>
<svg id="graph" class="graph">
<g id="viewport">
<title>Pass::updateEnv</title>
<!-- Node335 -->
<g id="node1" class="node">
<title>Node335</title>
<polygon fill="#bfbfbf" stroke="#000000" points="0,-57.5 0,-76.5 92,-76.5 92,-57.5 0,-57.5"/>
<text text-anchor="middle" x="46" y="-64.5" font-family="Helvetica,sans-Serif" font-size="10.00" fill="#000000">Pass::updateEnv</text>
</g>
<!-- Node336 -->
<g id="node2" class="node">
<title>Node336</title>
<g id="a_node2"><a xlink:href="class_main_window.html#a52e97245b2f88492071e639395c4a15a" target="_top" xlink:title="MainWindow::MainWindow handles all of the main functionality and also the main window. ">
<polygon fill="none" stroke="#000000" points="681,-114.5 681,-133.5 816,-133.5 816,-114.5 681,-114.5"/>
<text text-anchor="middle" x="748.5" y="-121.5" font-family="Helvetica,sans-Serif" font-size="10.00" fill="#000000">MainWindow::MainWindow</text>
</a>
</g>
</g>
<!-- Node335&#45;&gt;Node336 -->
<g id="edge1" class="edge">
<title>Node335&#45;&gt;Node336</title>
<path fill="none" stroke="#191970" d="M71.4369,-81.4744C87.2196,-89.7652 108.2008,-99.5714 128,-105 322.8877,-158.4346 565.1575,-143.7883 680.8561,-132.1244"/>
<polygon fill="#191970" stroke="#191970" points="72.8008,-78.2332 62.3388,-76.5607 69.4744,-84.3923 72.8008,-78.2332"/>
</g>
<!-- Node337 -->
<g id="node3" class="node">
<title>Node337</title>
<g id="a_node3"><a xlink:href="class_main_window.html#aeb8091ab5531144b76c1fbb0d63deb56" target="_top" xlink:title="MainWindow::config pops up the configuration screen and handles all inter&#45;window communication. ">
<polygon fill="none" stroke="#000000" points="151,-76.5 151,-95.5 256,-95.5 256,-76.5 151,-76.5"/>
<text text-anchor="middle" x="203.5" y="-83.5" font-family="Helvetica,sans-Serif" font-size="10.00" fill="#000000">MainWindow::config</text>
</a>
</g>
</g>
<!-- Node335&#45;&gt;Node337 -->
<g id="edge2" class="edge">
<title>Node335&#45;&gt;Node337</title>
<path fill="none" stroke="#191970" d="M102.5286,-73.8193C118.2639,-75.7176 135.2884,-77.7713 150.7947,-79.6419"/>
<polygon fill="#191970" stroke="#191970" points="102.7506,-70.3208 92.4033,-72.5979 101.9121,-77.2704 102.7506,-70.3208"/>
</g>
<!-- Node340 -->
<g id="node6" class="node">
<title>Node340</title>
<g id="a_node6"><a xlink:href="class_main_window.html#adcd6afb4bbea0fc89cf5b5b51e387935" target="_top" xlink:title="MainWindow::generateKeyPair internal gpg keypair generator . . ">
<polygon fill="none" stroke="#000000" points="128,-38.5 128,-57.5 279,-57.5 279,-38.5 128,-38.5"/>
<text text-anchor="middle" x="203.5" y="-45.5" font-family="Helvetica,sans-Serif" font-size="10.00" fill="#000000">MainWindow::generateKeyPair</text>
</a>
</g>
</g>
<!-- Node335&#45;&gt;Node340 -->
<g id="edge7" class="edge">
<title>Node335&#45;&gt;Node340</title>
<path fill="none" stroke="#191970" d="M102.5909,-60.1732C110.8053,-59.1822 119.3699,-58.149 127.8855,-57.1217"/>
<polygon fill="#191970" stroke="#191970" points="101.9121,-56.7296 92.4033,-61.4021 102.7506,-63.6792 101.9121,-56.7296"/>
</g>
<!-- Node343 -->
<g id="node9" class="node">
<title>Node343</title>
<g id="a_node9"><a xlink:href="class_pass.html#a8dfa731be7ac962f9f6a5cf8f29097ec" target="_top" xlink:title="Pass::~Pass">
<polygon fill="none" stroke="#000000" points="166.5,-.5 166.5,-19.5 240.5,-19.5 240.5,-.5 166.5,-.5"/>
<text text-anchor="middle" x="203.5" y="-7.5" font-family="Helvetica,sans-Serif" font-size="10.00" fill="#000000">Pass::~Pass</text>
</a>
</g>
</g>
<!-- Node335&#45;&gt;Node343 -->
<g id="edge10" class="edge">
<title>Node335&#45;&gt;Node343</title>
<path fill="none" stroke="#191970" d="M73.2814,-52.7884C88.9828,-45.0101 109.2594,-35.6344 128,-29 140.2318,-24.6698 153.907,-20.9154 166.2228,-17.9138"/>
<polygon fill="#191970" stroke="#191970" points="71.5082,-49.7626 64.1509,-57.3863 74.6565,-56.0146 71.5082,-49.7626"/>
</g>
<!-- Node338 -->
<g id="node4" class="node">
<title>Node338</title>
<g id="a_node4"><a xlink:href="class_main_window.html#a9630f0fe0e0941a7996d68014f837ed5" target="_top" xlink:title="MainWindow::restoreWindow">
<polygon fill="none" stroke="#000000" points="315,-95.5 315,-114.5 459,-114.5 459,-95.5 315,-95.5"/>
<text text-anchor="middle" x="387" y="-102.5" font-family="Helvetica,sans-Serif" font-size="10.00" fill="#000000">MainWindow::restoreWindow</text>
</a>
</g>
</g>
<!-- Node337&#45;&gt;Node338 -->
<g id="edge3" class="edge">
<title>Node337&#45;&gt;Node338</title>
<path fill="none" stroke="#191970" d="M266.1866,-92.4907C281.8711,-94.1147 298.8192,-95.8696 314.9193,-97.5366"/>
<polygon fill="#191970" stroke="#191970" points="266.3911,-88.9933 256.0837,-91.4446 265.6701,-95.956 266.3911,-88.9933"/>
</g>
<!-- Node339 -->
<g id="node5" class="node">
<title>Node339</title>
<g id="a_node5"><a xlink:href="class_qt_pass.html#a49e2861160fdb8d614231933f60fac47" target="_top" xlink:title="QtPass::init make sure we are ready to go as soon as possible. ">
<polygon fill="none" stroke="#000000" points="536,-95.5 536,-114.5 604,-114.5 604,-95.5 536,-95.5"/>
<text text-anchor="middle" x="570" y="-102.5" font-family="Helvetica,sans-Serif" font-size="10.00" fill="#000000">QtPass::init</text>
</a>
</g>
</g>
<!-- Node337&#45;&gt;Node339 -->
<g id="edge6" class="edge">
<title>Node337&#45;&gt;Node339</title>
<path fill="none" stroke="#191970" d="M266.4944,-83.0367C318.2849,-81.3119 393.5311,-80.4373 459,-86 484.9096,-88.2015 513.8578,-93.2438 535.694,-97.581"/>
<polygon fill="#191970" stroke="#191970" points="266.3291,-79.5403 256.4589,-83.3914 266.5764,-86.5359 266.3291,-79.5403"/>
</g>
<!-- Node338&#45;&gt;Node339 -->
<g id="edge4" class="edge">
<title>Node338&#45;&gt;Node339</title>
<path fill="none" stroke="#191970" d="M469.368,-105C492.7426,-105 516.92,-105 535.7167,-105"/>
<polygon fill="#191970" stroke="#191970" points="469.0638,-101.5001 459.0638,-105 469.0637,-108.5001 469.0638,-101.5001"/>
</g>
<!-- Node339&#45;&gt;Node336 -->
<g id="edge5" class="edge">
<title>Node339&#45;&gt;Node336</title>
<path fill="none" stroke="#191970" d="M614.5052,-109.7372C634.5673,-111.8727 658.6983,-114.4413 680.9214,-116.8068"/>
<polygon fill="#191970" stroke="#191970" points="614.7309,-106.2416 604.4166,-108.6634 613.9899,-113.2023 614.7309,-106.2416"/>
</g>
<!-- Node341 -->
<g id="node7" class="node">
<title>Node341</title>
<g id="a_node7"><a xlink:href="class_config_dialog.html#a428d1f1b69aaaf09343e3d8db42ed138" target="_top" xlink:title="ConfigDialog::genKey tunnel function to make MainWindow generate a gpg key pair. ">
<polygon fill="none" stroke="#000000" points="331,-19.5 331,-38.5 443,-38.5 443,-19.5 331,-19.5"/>
<text text-anchor="middle" x="387" y="-26.5" font-family="Helvetica,sans-Serif" font-size="10.00" fill="#000000">ConfigDialog::genKey</text>
</a>
</g>
</g>
<!-- Node340&#45;&gt;Node341 -->
<g id="edge8" class="edge">
<title>Node340&#45;&gt;Node341</title>
<path fill="none" stroke="#191970" d="M289.3897,-39.1068C303.4602,-37.6499 317.7152,-36.1739 330.8239,-34.8166"/>
<polygon fill="#191970" stroke="#191970" points="288.7822,-35.6509 279.1959,-40.1623 289.5032,-42.6137 288.7822,-35.6509"/>
</g>
<!-- Node342 -->
<g id="node8" class="node">
<title>Node342</title>
<g id="a_node8"><a xlink:href="class_keygen_dialog.html#a90b3a3db49016043ba160a50c5272643" target="_top" xlink:title="KeygenDialog::~KeygenDialog even more basic destructor. ">
<polygon fill="none" stroke="#000000" points="495,-19.5 495,-38.5 645,-38.5 645,-19.5 495,-19.5"/>
<text text-anchor="middle" x="570" y="-26.5" font-family="Helvetica,sans-Serif" font-size="10.00" fill="#000000">KeygenDialog::~KeygenDialog</text>
</a>
</g>
</g>
<!-- Node341&#45;&gt;Node342 -->
<g id="edge9" class="edge">
<title>Node341&#45;&gt;Node342</title>
<path fill="none" stroke="#191970" d="M453.5135,-29C466.9667,-29 481.2004,-29 494.9243,-29"/>
<polygon fill="#191970" stroke="#191970" points="453.3993,-25.5001 443.3993,-29 453.3992,-32.5001 453.3993,-25.5001"/>
</g>
</g>
</svg>
        <g id="navigator" transform="translate(0 0)" fill="#404254">
                <rect fill="#f2f5e9" fill-opacity="0.5" stroke="#606060" stroke-width=".5" x="0" y="0" width="60" height="60"/>
                <use id="zoomplus" xlink:href="#zoomPlus" x="17" y="9" onmousedown="handleZoom(evt,'in')"/>
                <use id="zoomminus" xlink:href="#zoomMin" x="42" y="9" onmousedown="handleZoom(evt,'out')"/>
                <use id="reset" xlink:href="#resetDef" x="30" y="36" onmousedown="handleReset()"/>
                <g id="arrowUp" xlink:href="#dirArrow" transform="translate(30 24)" onmousedown="handlePan(0,-1)">
                  <use xlink:href="#rim" fill="#404040">
                        <set attributeName="fill" to="#808080" begin="arrowUp.mouseover" end="arrowUp.mouseout"/>
                  </use>
                  <path fill="none" stroke="white" stroke-width="1.5" d="M0,-3.0v7 M-2.5,-0.5L0,-3.0L2.5,-0.5"/>
                </g>
                <g id="arrowRight" xlink:href="#dirArrow" transform="rotate(90) translate(36 -43)" onmousedown="handlePan(1,0)">
                  <use xlink:href="#rim" fill="#404040">
                        <set attributeName="fill" to="#808080" begin="arrowRight.mouseover" end="arrowRight.mouseout"/>
                  </use>
                  <path fill="none" stroke="white" stroke-width="1.5" d="M0,-3.0v7 M-2.5,-0.5L0,-3.0L2.5,-0.5"/>
                </g>
                <g id="arrowDown" xlink:href="#dirArrow" transform="rotate(180) translate(-30 -48)" onmousedown="handlePan(0,1)">
                  <use xlink:href="#rim" fill="#404040">
                        <set attributeName="fill" to="#808080" begin="arrowDown.mouseover" end="arrowDown.mouseout"/>
                  </use>
                  <path fill="none" stroke="white" stroke-width="1.5" d="M0,-3.0v7 M-2.5,-0.5L0,-3.0L2.5,-0.5"/>
                </g>
                <g id="arrowLeft" xlink:href="#dirArrow" transform="rotate(270) translate(-36 17)" onmousedown="handlePan(-1,0)">
                  <use xlink:href="#rim" fill="#404040">
                        <set attributeName="fill" to="#808080" begin="arrowLeft.mouseover" end="arrowLeft.mouseout"/>
                  </use>
                  <path fill="none" stroke="white" stroke-width="1.5" d="M0,-3.0v7 M-2.5,-0.5L0,-3.0L2.5,-0.5"/>
                </g>
        </g>
        <svg viewBox="0 0 15 15" width="100%" height="30px" preserveAspectRatio="xMaxYMin meet">
         <g id="arrow_out" transform="scale(0.3 0.3)">
          <a xlink:href="class_pass_ac679a086b289cdb9245906948ba0458a_icgraph_org.svg" target="_base">
           <rect id="button" ry="5" rx="5" y="6" x="6" height="38" width="38"
                fill="#f2f5e9" fill-opacity="0.5" stroke="#606060" stroke-width="1.0"/>
           <path id="arrow"
             d="M 11.500037,31.436501 C 11.940474,20.09759 22.043105,11.32322 32.158766,21.979434 L 37.068811,17.246167 C 37.068811,17.246167 37.088388,32 37.088388,32 L 22.160133,31.978069 C 22.160133,31.978069 26.997745,27.140456 26.997745,27.140456 C 18.528582,18.264221 13.291696,25.230495 11.500037,31.436501 z"
             style="fill:#404040;"/>
          </a>
         </g>
        </svg>
</svg>
