<?xml version="1.0" encoding="UTF-8" standalone="no"?>
<!DOCTYPE svg PUBLIC "-//W3C//DTD SVG 1.1//EN"
 "http://www.w3.org/Graphics/SVG/1.1/DTD/svg11.dtd">
<!-- Generated by graphviz version 2.43.0 (0)
 -->
<!-- Title: ImitatePass::gitCommit Pages: 1 -->
<svg width="682pt" height="104pt"
 viewBox="0.00 0.00 682.00 104.00" xmlns="http://www.w3.org/2000/svg" xmlns:xlink="http://www.w3.org/1999/xlink">
<g id="graph0" class="graph" transform="scale(1 1) rotate(0) translate(4 100)">
<title>ImitatePass::gitCommit</title>
<!-- Node1 -->
<g id="Node000001" class="node">
<title>Node1</title>
<g id="a_Node000001"><a xlink:title="Commit changes to git.">
<polygon fill="#999999" stroke="#666666" points="131,-37 0,-37 0,-18 131,-18 131,-37"/>
<text text-anchor="middle" x="65.5" y="-25" font-family="Helvetica,sans-Serif" font-size="10.00">ImitatePass::gitCommit</text>
</a>
</g>
</g>
<!-- Node2 -->
<g id="Node000002" class="node">
<title>Node2</title>
<g id="a_Node000002"><a xlink:href="class_imitate_pass.html#a6f9682c6103b112a9aa844df7ef6a273" target="_top" xlink:title="Execute git command.">
<polygon fill="white" stroke="#666666" points="299,-37 167,-37 167,-18 299,-18 299,-37"/>
<text text-anchor="middle" x="233" y="-25" font-family="Helvetica,sans-Serif" font-size="10.00">ImitatePass::executeGit</text>
</a>
</g>
</g>
<!-- Node1&#45;&gt;Node2 -->
<g id="edge1_Node000001_Node000002" class="edge">
<title>Node1&#45;&gt;Node2</title>
<g id="a_edge1_Node000001_Node000002"><a xlink:title=" ">
<path fill="none" stroke="#63b8ff" d="M131.43,-27.5C139.74,-27.5 148.3,-27.5 156.75,-27.5"/>
<polygon fill="#63b8ff" stroke="#63b8ff" points="156.98,-31 166.98,-27.5 156.98,-24 156.98,-31"/>
</a>
</g>
</g>
<!-- Node3 -->
<g id="Node000003" class="node">
<title>Node3</title>
<g id="a_Node000003"><a xlink:href="class_imitate_pass.html#aa2ade77096c04fb94536d675bfaae8fe" target="_top" xlink:title="Execute command wrapper.">
<polygon fill="white" stroke="#666666" points="504,-56 345,-56 345,-37 504,-37 504,-56"/>
<text text-anchor="middle" x="424.5" y="-44" font-family="Helvetica,sans-Serif" font-size="10.00">ImitatePass::executeWrapper</text>
</a>
</g>
</g>
<!-- Node2&#45;&gt;Node3 -->
<g id="edge2_Node000002_Node000003" class="edge">
<title>Node2&#45;&gt;Node3</title>
<g id="a_edge2_Node000002_Node000003"><a xlink:title=" ">
<path fill="none" stroke="#63b8ff" d="M299.22,-34.04C310.67,-35.19 322.77,-36.4 334.74,-37.6"/>
<polygon fill="#63b8ff" stroke="#63b8ff" points="334.45,-41.09 344.75,-38.6 335.15,-34.12 334.45,-41.09"/>
</a>
</g>
</g>
<!-- Node6 -->
<g id="Node000006" class="node">
<title>Node6</title>
<g id="a_Node000006"><a xlink:href="class_qt_pass_settings.html#af6dc725440e9961c39fbd6f567749d82" target="_top" xlink:title="Get git executable path.">
<polygon fill="white" stroke="#666666" points="514,-19 335,-19 335,0 514,0 514,-19"/>
<text text-anchor="middle" x="424.5" y="-7" font-family="Helvetica,sans-Serif" font-size="10.00">QtPassSettings::getGitExecutable</text>
</a>
</g>
</g>
<!-- Node2&#45;&gt;Node6 -->
<g id="edge6_Node000002_Node000006" class="edge">
<title>Node2&#45;&gt;Node6</title>
<g id="a_edge6_Node000002_Node000006"><a xlink:title=" ">
<path fill="none" stroke="#63b8ff" d="M299.22,-21.31C307.45,-20.52 316.01,-19.71 324.62,-18.89"/>
<polygon fill="#63b8ff" stroke="#63b8ff" points="325.11,-22.36 334.73,-17.93 324.45,-15.39 325.11,-22.36"/>
</a>
</g>
</g>
<!-- Node4 -->
<g id="Node000004" class="node">
<title>Node4</title>
<g id="a_Node000004"><a xlink:href="class_pass.html#a66f59138ffe856fd421410d9af9ddc62" target="_top" xlink:title="Execute external wrapper command.">
<polygon fill="white" stroke="#666666" points="674,-78 550,-78 550,-59 674,-59 674,-78"/>
<text text-anchor="middle" x="612" y="-66" font-family="Helvetica,sans-Serif" font-size="10.00">Pass::executeWrapper</text>
</a>
</g>
</g>
<!-- Node3&#45;&gt;Node4 -->
<g id="edge3_Node000003_Node000004" class="edge">
<title>Node3&#45;&gt;Node4</title>
<g id="a_edge3_Node000003_Node000004"><a xlink:title=" ">
<path fill="none" stroke="#63b8ff" d="M504.17,-55.83C516.01,-57.23 528.16,-58.68 539.83,-60.06"/>
<polygon fill="#63b8ff" stroke="#63b8ff" points="539.59,-63.56 549.94,-61.26 540.42,-56.6 539.59,-63.56"/>
</a>
</g>
</g>
<!-- Node5 -->
<g id="Node000005" class="node">
<title>Node5</title>
<g id="a_Node000005"><a xlink:href="classsimple_transaction.html#a974db4056edcb408e96cf9bc2a6e4326" target="_top" xlink:title="transactionAdd If called after call to transactionStart() and before transactionEnd(),...">
<polygon fill="white" stroke="#666666" points="667.5,-40.5 556.5,-40.5 556.5,-10.5 667.5,-10.5 667.5,-40.5"/>
<text text-anchor="start" x="564.5" y="-28.5" font-family="Helvetica,sans-Serif" font-size="10.00">simpleTransaction::</text>
<text text-anchor="middle" x="612" y="-17.5" font-family="Helvetica,sans-Serif" font-size="10.00">transactionAdd</text>
</a>
</g>
</g>
<!-- Node3&#45;&gt;Node5 -->
<g id="edge5_Node000003_Node000005" class="edge">
<title>Node3&#45;&gt;Node5</title>
<g id="a_edge5_Node000003_Node000005"><a xlink:title=" ">
<path fill="none" stroke="#63b8ff" d="M504.17,-37.59C518.18,-36.01 532.62,-34.37 546.19,-32.84"/>
<polygon fill="#63b8ff" stroke="#63b8ff" points="546.82,-36.29 556.37,-31.68 546.04,-29.33 546.82,-36.29"/>
</a>
</g>
</g>
<!-- Node4&#45;&gt;Node4 -->
<g id="edge4_Node000004_Node000004" class="edge">
<title>Node4&#45;&gt;Node4</title>
<g id="a_edge4_Node000004_Node000004"><a xlink:title=" ">
<path fill="none" stroke="#63b8ff" d="M583.33,-78.08C569.39,-86.73 578.94,-96 612,-96 634.73,-96 646.35,-91.62 646.86,-86.07"/>
<polygon fill="#63b8ff" stroke="#63b8ff" points="649.56,-83.84 640.67,-78.08 644.03,-88.13 649.56,-83.84"/>
</a>
</g>
</g>
</g>
</svg>
