<?xml version="1.0" encoding="UTF-8" standalone="no"?>
<!DOCTYPE svg PUBLIC "-//W3C//DTD SVG 1.1//EN"
 "http://www.w3.org/Graphics/SVG/1.1/DTD/svg11.dtd">
<!-- Generated by graphviz version 2.43.0 (0)
 -->
<!-- Title: MainWindow::passOtpHandler Pages: 1 -->
<svg width="597pt" height="273pt"
 viewBox="0.00 0.00 597.00 272.50" xmlns="http://www.w3.org/2000/svg" xmlns:xlink="http://www.w3.org/1999/xlink">
<g id="graph0" class="graph" transform="scale(1 1) rotate(0) translate(4 268.5)">
<title>MainWindow::passOtpHandler</title>
<!-- Node1 -->
<g id="Node000001" class="node">
<title>Node1</title>
<g id="a_Node000001"><a xlink:title=" ">
<polygon fill="#999999" stroke="#666666" points="163,-115.5 0,-115.5 0,-96.5 163,-96.5 163,-115.5"/>
<text text-anchor="middle" x="81.5" y="-103.5" font-family="Helvetica,sans-Serif" font-size="10.00">MainWindow::passOtpHandler</text>
</a>
</g>
</g>
<!-- Node2 -->
<g id="Node000002" class="node">
<title>Node2</title>
<g id="a_Node000002"><a xlink:href="class_qt_pass.html#acba134fb5281aedee11899a03976aa95" target="_top" xlink:title="MainWindow::copyTextToClipboard copies text to your clipboard.">
<polygon fill="white" stroke="#666666" points="361.5,-191.5 205.5,-191.5 205.5,-172.5 361.5,-172.5 361.5,-191.5"/>
<text text-anchor="middle" x="283.5" y="-179.5" font-family="Helvetica,sans-Serif" font-size="10.00">QtPass::copyTextToClipboard</text>
</a>
</g>
</g>
<!-- Node1&#45;&gt;Node2 -->
<g id="edge1_Node000001_Node000002" class="edge">
<title>Node1&#45;&gt;Node2</title>
<g id="a_edge1_Node000001_Node000002"><a xlink:title=" ">
<path fill="none" stroke="#63b8ff" d="M101.94,-115.69C124.8,-126.84 164.04,-145.25 199,-158 210.62,-162.24 223.37,-166.23 235.33,-169.69"/>
<polygon fill="#63b8ff" stroke="#63b8ff" points="234.57,-173.11 245.15,-172.47 236.48,-166.38 234.57,-173.11"/>
</a>
</g>
</g>
<!-- Node6 -->
<g id="Node000006" class="node">
<title>Node6</title>
<g id="a_Node000006"><a xlink:href="class_main_window.html#a69f4a122336a6fc3875fc94741e4d1cf" target="_top" xlink:title="Displays message in status bar.">
<polygon fill="white" stroke="#666666" points="589,-153.5 404,-153.5 404,-134.5 589,-134.5 589,-153.5"/>
<text text-anchor="middle" x="496.5" y="-141.5" font-family="Helvetica,sans-Serif" font-size="10.00">MainWindow::showStatusMessage</text>
</a>
</g>
</g>
<!-- Node1&#45;&gt;Node6 -->
<g id="edge9_Node000001_Node000006" class="edge">
<title>Node1&#45;&gt;Node6</title>
<g id="a_edge9_Node000001_Node000006"><a xlink:title=" ">
<path fill="none" stroke="#63b8ff" d="M137.78,-115.54C157.1,-118.6 178.96,-121.78 199,-124 263.58,-131.15 336.38,-136.11 393.68,-139.3"/>
<polygon fill="#63b8ff" stroke="#63b8ff" points="393.65,-142.8 403.82,-139.85 394.03,-135.81 393.65,-142.8"/>
</a>
</g>
</g>
<!-- Node7 -->
<g id="Node000007" class="node">
<title>Node7</title>
<g id="a_Node000007"><a xlink:href="class_main_window.html#aae7cd7af04cedf4a17ede44bffafec89" target="_top" xlink:title=" ">
<polygon fill="white" stroke="#666666" points="347.5,-115.5 219.5,-115.5 219.5,-96.5 347.5,-96.5 347.5,-115.5"/>
<text text-anchor="middle" x="283.5" y="-103.5" font-family="Helvetica,sans-Serif" font-size="10.00">MainWindow::flashText</text>
</a>
</g>
</g>
<!-- Node1&#45;&gt;Node7 -->
<g id="edge6_Node000001_Node000007" class="edge">
<title>Node1&#45;&gt;Node7</title>
<g id="a_edge6_Node000001_Node000007"><a xlink:title=" ">
<path fill="none" stroke="#63b8ff" d="M163.27,-106C178.42,-106 194.18,-106 209.1,-106"/>
<polygon fill="#63b8ff" stroke="#63b8ff" points="209.27,-109.5 219.27,-106 209.27,-102.5 209.27,-109.5"/>
</a>
</g>
</g>
<!-- Node8 -->
<g id="Node000008" class="node">
<title>Node8</title>
<g id="a_Node000008"><a xlink:href="class_qt_pass_settings.html#a38cb968ab7c8dd26558b9fe9990740be" target="_top" xlink:title="Get whether to use panel autoclear.">
<polygon fill="white" stroke="#666666" points="368,-78 199,-78 199,-48 368,-48 368,-78"/>
<text text-anchor="start" x="207" y="-66" font-family="Helvetica,sans-Serif" font-size="10.00">QtPassSettings::isUseAutoclear</text>
<text text-anchor="middle" x="283.5" y="-55" font-family="Helvetica,sans-Serif" font-size="10.00">Panel</text>
</a>
</g>
</g>
<!-- Node1&#45;&gt;Node8 -->
<g id="edge7_Node000001_Node000008" class="edge">
<title>Node1&#45;&gt;Node8</title>
<g id="a_edge7_Node000001_Node000008"><a xlink:title=" ">
<path fill="none" stroke="#63b8ff" d="M126.89,-96.46C149.23,-91.65 177.02,-85.68 202.89,-80.12"/>
<polygon fill="#63b8ff" stroke="#63b8ff" points="203.66,-83.53 212.7,-78.01 202.19,-76.69 203.66,-83.53"/>
</a>
</g>
</g>
<!-- Node9 -->
<g id="Node000009" class="node">
<title>Node9</title>
<g id="a_Node000009"><a xlink:href="class_main_window.html#ac240119ea67a770e5d997a5aa0fe47a3" target="_top" xlink:title="MainWindow::setUiElementsEnabled enable or disable the relevant UI elements.">
<polygon fill="white" stroke="#666666" points="361.5,-30 205.5,-30 205.5,0 361.5,0 361.5,-30"/>
<text text-anchor="start" x="213.5" y="-18" font-family="Helvetica,sans-Serif" font-size="10.00">MainWindow::setUiElements</text>
<text text-anchor="middle" x="283.5" y="-7" font-family="Helvetica,sans-Serif" font-size="10.00">Enabled</text>
</a>
</g>
</g>
<!-- Node1&#45;&gt;Node9 -->
<g id="edge8_Node000001_Node000009" class="edge">
<title>Node1&#45;&gt;Node9</title>
<g id="a_edge8_Node000001_Node000009"><a xlink:title=" ">
<path fill="none" stroke="#63b8ff" d="M96.63,-96.36C117.98,-82.15 160.12,-55.48 199,-39 203.74,-36.99 208.7,-35.09 213.74,-33.31"/>
<polygon fill="#63b8ff" stroke="#63b8ff" points="215.12,-36.53 223.48,-30.02 212.88,-29.9 215.12,-36.53"/>
</a>
</g>
</g>
<!-- Node3 -->
<g id="Node000003" class="node">
<title>Node3</title>
<g id="a_Node000003"><a xlink:href="qtpass_8cpp.html#ad02159f3c84f6ec8d7535395bdb55d99" target="_top" xlink:title="Build clipboard MIME data with platform&#45;specific security hints.">
<polygon fill="white" stroke="#666666" points="565.5,-264.5 427.5,-264.5 427.5,-245.5 565.5,-245.5 565.5,-264.5"/>
<text text-anchor="middle" x="496.5" y="-252.5" font-family="Helvetica,sans-Serif" font-size="10.00">buildClipboardMimeData</text>
</a>
</g>
</g>
<!-- Node2&#45;&gt;Node3 -->
<g id="edge2_Node000002_Node000003" class="edge">
<title>Node2&#45;&gt;Node3</title>
<g id="a_edge2_Node000002_Node000003"><a xlink:title=" ">
<path fill="none" stroke="#63b8ff" d="M301.79,-191.55C324.57,-203.76 366.19,-224.77 404,-237 411.07,-239.29 418.54,-241.33 426.05,-243.15"/>
<polygon fill="#63b8ff" stroke="#63b8ff" points="425.38,-246.58 435.91,-245.41 426.94,-239.76 425.38,-246.58"/>
</a>
</g>
</g>
<!-- Node4 -->
<g id="Node000004" class="node">
<title>Node4</title>
<g id="a_Node000004"><a xlink:href="class_qt_pass_settings.html#a0a517b1977765eb6032f330482abb85b" target="_top" xlink:title="Get whether to use autoclear for clipboard.">
<polygon fill="white" stroke="#666666" points="581,-227.5 412,-227.5 412,-208.5 581,-208.5 581,-227.5"/>
<text text-anchor="middle" x="496.5" y="-215.5" font-family="Helvetica,sans-Serif" font-size="10.00">QtPassSettings::isUseAutoclear</text>
</a>
</g>
</g>
<!-- Node2&#45;&gt;Node4 -->
<g id="edge3_Node000002_Node000004" class="edge">
<title>Node2&#45;&gt;Node4</title>
<g id="a_edge3_Node000002_Node000004"><a xlink:title=" ">
<path fill="none" stroke="#63b8ff" d="M340.21,-191.51C367.63,-196.18 400.86,-201.85 429.54,-206.75"/>
<polygon fill="#63b8ff" stroke="#63b8ff" points="429.03,-210.21 439.47,-208.44 430.2,-203.31 429.03,-210.21"/>
</a>
</g>
</g>
<!-- Node5 -->
<g id="Node000005" class="node">
<title>Node5</title>
<g id="a_Node000005"><a xlink:href="class_qt_pass_settings.html#a00123b42f05b026cf2697c02e0797442" target="_top" xlink:title="Get whether to use selection (X11) for clipboard.">
<polygon fill="white" stroke="#666666" points="580,-190.5 413,-190.5 413,-171.5 580,-171.5 580,-190.5"/>
<text text-anchor="middle" x="496.5" y="-178.5" font-family="Helvetica,sans-Serif" font-size="10.00">QtPassSettings::isUseSelection</text>
</a>
</g>
</g>
<!-- Node2&#45;&gt;Node5 -->
<g id="edge4_Node000002_Node000005" class="edge">
<title>Node2&#45;&gt;Node5</title>
<g id="a_edge4_Node000002_Node000005"><a xlink:title=" ">
<path fill="none" stroke="#63b8ff" d="M361.57,-181.63C374.89,-181.57 388.87,-181.51 402.56,-181.44"/>
<polygon fill="#63b8ff" stroke="#63b8ff" points="402.97,-184.94 412.95,-181.39 402.94,-177.94 402.97,-184.94"/>
</a>
</g>
</g>
<!-- Node2&#45;&gt;Node6 -->
<g id="edge5_Node000002_Node000006" class="edge">
<title>Node2&#45;&gt;Node6</title>
<g id="a_edge5_Node000002_Node000006"><a xlink:title=" ">
<path fill="none" stroke="#63b8ff" d="M337.47,-172.46C366.32,-167.27 402.2,-160.8 432.47,-155.35"/>
<polygon fill="#63b8ff" stroke="#63b8ff" points="433.29,-158.76 442.51,-153.54 432.04,-151.87 433.29,-158.76"/>
</a>
</g>
</g>
</g>
</svg>
