<?xml version="1.0" encoding="UTF-8" standalone="no"?>
<!DOCTYPE svg PUBLIC "-//W3C//DTD SVG 1.1//EN"
 "http://www.w3.org/Graphics/SVG/1.1/DTD/svg11.dtd">
<!-- Generated by graphviz version 2.42.3 (20191010.1750)
 -->
<!-- Title: Pass::getRecipientString Pages: 1 -->
<svg width="649pt" height="27pt"
 viewBox="0.00 0.00 649.14 27.00" xmlns="http://www.w3.org/2000/svg" xmlns:xlink="http://www.w3.org/1999/xlink">
<g id="graph0" class="graph" transform="scale(1 1) rotate(0) translate(4 23)">
<title>Pass::getRecipientString</title>
<!-- Node1 -->
<g id="node1" class="node">
<title>Node1</title>
<g id="a_node1"><a xlink:title="Pass::getRecipientString formated string for use with GPG.">
<polygon fill="#bfbfbf" stroke="black" points="0,-0.5 0,-18.5 125.5,-18.5 125.5,-0.5 0,-0.5"/>
<text text-anchor="middle" x="62.75" y="-6.5" font-family="Helvetica,sans-Serif" font-size="10.00">Pass::getRecipientString</text>
</a>
</g>
</g>
<!-- Node2 -->
<g id="node2" class="node">
<title>Node2</title>
<g id="a_node2"><a xlink:href="class_pass.html#a6c5400e104ade2f41c8d4a41fc0b4f4e" target="_top" xlink:title="Pass::getRecipientList return list of gpg&#45;id&#39;s to encrypt for.">
<polygon fill="none" stroke="black" points="161.5,-0.5 161.5,-18.5 276.44,-18.5 276.44,-0.5 161.5,-0.5"/>
<text text-anchor="middle" x="218.97" y="-6.5" font-family="Helvetica,sans-Serif" font-size="10.00">Pass::getRecipientList</text>
</a>
</g>
</g>
<!-- Node1&#45;&gt;Node2 -->
<g id="edge1" class="edge">
<title>Node1&#45;&gt;Node2</title>
<path fill="none" stroke="midnightblue" d="M125.59,-9.5C133.93,-9.5 142.52,-9.5 150.95,-9.5"/>
<polygon fill="midnightblue" stroke="midnightblue" points="151.11,-13 161.11,-9.5 151.11,-6 151.11,-13"/>
</g>
<!-- Node3 -->
<g id="node3" class="node">
<title>Node3</title>
<g id="a_node3"><a xlink:href="class_qt_pass_settings.html#abb8c53443d71181a3ecd6545464453e6" target="_top" xlink:title=" ">
<polygon fill="none" stroke="black" points="312.44,-0.5 312.44,-18.5 462.95,-18.5 462.95,-0.5 312.44,-0.5"/>
<text text-anchor="middle" x="387.7" y="-6.5" font-family="Helvetica,sans-Serif" font-size="10.00">QtPassSettings::getPassStore</text>
</a>
</g>
</g>
<!-- Node2&#45;&gt;Node3 -->
<g id="edge2" class="edge">
<title>Node2&#45;&gt;Node3</title>
<path fill="none" stroke="midnightblue" d="M276.88,-9.5C285.09,-9.5 293.67,-9.5 302.27,-9.5"/>
<polygon fill="midnightblue" stroke="midnightblue" points="302.35,-13 312.35,-9.5 302.35,-6 302.35,-13"/>
</g>
<!-- Node4 -->
<g id="node4" class="node">
<title>Node4</title>
<g id="a_node4"><a xlink:href="class_qt_pass_settings.html#ab83659fdbfb9069942e6982076b4b934" target="_top" xlink:title=" ">
<polygon fill="none" stroke="black" points="498.95,-0.5 498.95,-18.5 641.14,-18.5 641.14,-0.5 498.95,-0.5"/>
<text text-anchor="middle" x="570.04" y="-6.5" font-family="Helvetica,sans-Serif" font-size="10.00">QtPassSettings::getInstance</text>
</a>
</g>
</g>
<!-- Node3&#45;&gt;Node4 -->
<g id="edge3" class="edge">
<title>Node3&#45;&gt;Node4</title>
<path fill="none" stroke="midnightblue" d="M463.09,-9.5C471.51,-9.5 480.11,-9.5 488.6,-9.5"/>
<polygon fill="midnightblue" stroke="midnightblue" points="488.88,-13 498.88,-9.5 488.88,-6 488.88,-13"/>
</g>
</g>
</svg>
