<?xml version="1.0" encoding="UTF-8" standalone="no"?>
<!DOCTYPE svg PUBLIC "-//W3C//DTD SVG 1.1//EN"
 "http://www.w3.org/Graphics/SVG/1.1/DTD/svg11.dtd">
<!-- Generated by graphviz version 2.40.1 (20161225.0304)
 -->
<!-- Title: UsersDialog::UsersDialog Pages: 1 -->
<svg width="1051pt" height="218pt"
 viewBox="0.00 0.00 1051.00 218.00" xmlns="http://www.w3.org/2000/svg" xmlns:xlink="http://www.w3.org/1999/xlink">
<g id="graph0" class="graph" transform="scale(1 1) rotate(0) translate(4 214)">
<title>UsersDialog::UsersDialog</title>
<!-- Node0 -->
<g id="node1" class="node">
<title>Node0</title>
<polygon fill="#bfbfbf" stroke="#000000" points="0,-76.5 0,-95.5 131,-95.5 131,-76.5 0,-76.5"/>
<text text-anchor="middle" x="65.5" y="-83.5" font-family="Helvetica,sans-Serif" font-size="10.00" fill="#000000">UsersDialog::UsersDialog</text>
</g>
<!-- Node1 -->
<g id="node2" class="node">
<title>Node1</title>
<g id="a_node2"><a xlink:href="class_qt_pass_settings.html#a987e913eac7cd497e2fca27426494a64" target="_top" xlink:title="QtPassSettings::getPass">
<polygon fill="none" stroke="#000000" points="331,-114.5 331,-133.5 459,-133.5 459,-114.5 331,-114.5"/>
<text text-anchor="middle" x="395" y="-121.5" font-family="Helvetica,sans-Serif" font-size="10.00" fill="#000000">QtPassSettings::getPass</text>
</a>
</g>
</g>
<!-- Node0&#45;&gt;Node1 -->
<g id="edge1" class="edge">
<title>Node0&#45;&gt;Node1</title>
<path fill="none" stroke="#191970" d="M110.8142,-95.5042C128.3067,-98.9042 148.5227,-102.5073 167,-105 218.127,-111.8973 276.0642,-116.6866 320.7406,-119.7315"/>
<polygon fill="#191970" stroke="#191970" points="320.719,-123.2378 330.9299,-120.4115 321.1852,-116.2533 320.719,-123.2378"/>
</g>
<!-- Node8 -->
<g id="node9" class="node">
<title>Node8</title>
<g id="a_node9"><a xlink:href="class_pass.html#ad1ded1699f4e47d871296a96eca5a3ea" target="_top" xlink:title="Pass::listKeys list users. ">
<polygon fill="none" stroke="#000000" points="189.5,-152.5 189.5,-171.5 269.5,-171.5 269.5,-152.5 189.5,-152.5"/>
<text text-anchor="middle" x="229.5" y="-159.5" font-family="Helvetica,sans-Serif" font-size="10.00" fill="#000000">Pass::listKeys</text>
</a>
</g>
</g>
<!-- Node0&#45;&gt;Node8 -->
<g id="edge9" class="edge">
<title>Node0&#45;&gt;Node8</title>
<path fill="none" stroke="#191970" d="M82.8264,-95.5957C102.8144,-106.4957 136.8092,-124.516 167,-138 175.4048,-141.7538 184.5908,-145.4819 193.2703,-148.841"/>
<polygon fill="#191970" stroke="#191970" points="192.1948,-152.1765 202.7859,-152.4584 194.6823,-145.6333 192.1948,-152.1765"/>
</g>
<!-- Node11 -->
<g id="node12" class="node">
<title>Node11</title>
<g id="a_node12"><a xlink:href="class_pass.html#a4566c370e65b22d5cdc132f72b393808" target="_top" xlink:title="Pass::getRecipientString formated string for use with GPG. ">
<polygon fill="none" stroke="#000000" points="167,-.5 167,-19.5 292,-19.5 292,-.5 167,-.5"/>
<text text-anchor="middle" x="229.5" y="-7.5" font-family="Helvetica,sans-Serif" font-size="10.00" fill="#000000">Pass::getRecipientString</text>
</a>
</g>
</g>
<!-- Node0&#45;&gt;Node11 -->
<g id="edge13" class="edge">
<title>Node0&#45;&gt;Node11</title>
<path fill="none" stroke="#191970" d="M82.8264,-76.4043C102.8144,-65.5043 136.8092,-47.484 167,-34 175.4048,-30.2462 184.5908,-26.5181 193.2703,-23.159"/>
<polygon fill="#191970" stroke="#191970" points="194.6823,-26.3667 202.7859,-19.5416 192.1948,-19.8235 194.6823,-26.3667"/>
</g>
<!-- Node12 -->
<g id="node13" class="node">
<title>Node12</title>
<g id="a_node13"><a xlink:href="class_pass.html#a6c5400e104ade2f41c8d4a41fc0b4f4e" target="_top" xlink:title="Pass::getRecipientList return list of gpg&#45;id&#39;s to encrypt for. ">
<polygon fill="none" stroke="#000000" points="337,-.5 337,-19.5 453,-19.5 453,-.5 337,-.5"/>
<text text-anchor="middle" x="395" y="-7.5" font-family="Helvetica,sans-Serif" font-size="10.00" fill="#000000">Pass::getRecipientList</text>
</a>
</g>
</g>
<!-- Node0&#45;&gt;Node12 -->
<g id="edge17" class="edge">
<title>Node0&#45;&gt;Node12</title>
<path fill="none" stroke="#191970" d="M106.8978,-76.4515C167.0288,-62.5821 278.4562,-36.8811 343.7101,-21.8301"/>
<polygon fill="#191970" stroke="#191970" points="344.8141,-25.1675 353.7716,-19.5094 343.2408,-18.3466 344.8141,-25.1675"/>
</g>
<!-- Node14 -->
<g id="node15" class="node">
<title>Node14</title>
<g id="a_node15"><a xlink:href="class_users_dialog.html#a70580643923a96208b6bbae18d4aa0f3" target="_top" xlink:title="UsersDialog::accept">
<polygon fill="none" stroke="#000000" points="176.5,-76.5 176.5,-95.5 282.5,-95.5 282.5,-76.5 176.5,-76.5"/>
<text text-anchor="middle" x="229.5" y="-83.5" font-family="Helvetica,sans-Serif" font-size="10.00" fill="#000000">UsersDialog::accept</text>
</a>
</g>
</g>
<!-- Node0&#45;&gt;Node14 -->
<g id="edge18" class="edge">
<title>Node0&#45;&gt;Node14</title>
<path fill="none" stroke="#191970" d="M131.2601,-86C142.7223,-86 154.6255,-86 166.0248,-86"/>
<polygon fill="#191970" stroke="#191970" points="166.3247,-89.5001 176.3247,-86 166.3247,-82.5001 166.3247,-89.5001"/>
</g>
<!-- Node2 -->
<g id="node3" class="node">
<title>Node2</title>
<g id="a_node3"><a xlink:href="class_qt_pass_settings.html#a30ef36260f73f9f18d338f2b18a1f493" target="_top" xlink:title="QtPassSettings::isUsePass">
<polygon fill="none" stroke="#000000" points="708,-114.5 708,-133.5 848,-133.5 848,-114.5 708,-114.5"/>
<text text-anchor="middle" x="778" y="-121.5" font-family="Helvetica,sans-Serif" font-size="10.00" fill="#000000">QtPassSettings::isUsePass</text>
</a>
</g>
</g>
<!-- Node1&#45;&gt;Node2 -->
<g id="edge2" class="edge">
<title>Node1&#45;&gt;Node2</title>
<path fill="none" stroke="#191970" d="M459.1056,-124C524.6644,-124 626.6792,-124 697.6062,-124"/>
<polygon fill="#191970" stroke="#191970" points="697.8372,-127.5001 707.8372,-124 697.8372,-120.5001 697.8372,-127.5001"/>
</g>
<!-- Node4 -->
<g id="node5" class="node">
<title>Node4</title>
<g id="a_node5"><a xlink:href="class_qt_pass_settings.html#aaaeff5fa2e3a6b1f815b9a8247339b3a" target="_top" xlink:title="QtPassSettings::getRealPass">
<polygon fill="none" stroke="#000000" points="503,-76.5 503,-95.5 651,-95.5 651,-76.5 503,-76.5"/>
<text text-anchor="middle" x="577" y="-83.5" font-family="Helvetica,sans-Serif" font-size="10.00" fill="#000000">QtPassSettings::getRealPass</text>
</a>
</g>
</g>
<!-- Node1&#45;&gt;Node4 -->
<g id="edge4" class="edge">
<title>Node1&#45;&gt;Node4</title>
<path fill="none" stroke="#191970" d="M440.9263,-114.411C465.3759,-109.3061 495.6331,-102.9887 521.403,-97.6082"/>
<polygon fill="#191970" stroke="#191970" points="522.3304,-100.9901 531.404,-95.5201 520.8997,-94.1378 522.3304,-100.9901"/>
</g>
<!-- Node5 -->
<g id="node6" class="node">
<title>Node5</title>
<g id="a_node6"><a xlink:href="class_qt_pass_settings.html#a2d6c10abe565eaadb5a222501adfe31f" target="_top" xlink:title="QtPassSettings::getImitatePass">
<polygon fill="none" stroke="#000000" points="498,-38.5 498,-57.5 656,-57.5 656,-38.5 498,-38.5"/>
<text text-anchor="middle" x="577" y="-45.5" font-family="Helvetica,sans-Serif" font-size="10.00" fill="#000000">QtPassSettings::getImitatePass</text>
</a>
</g>
</g>
<!-- Node1&#45;&gt;Node5 -->
<g id="edge5" class="edge">
<title>Node1&#45;&gt;Node5</title>
<path fill="none" stroke="#191970" d="M441.066,-114.4918C448.351,-111.9983 455.5874,-108.8821 462,-105 481.9016,-92.9518 477.8596,-78.6448 498,-67 501.8831,-64.7549 506.0203,-62.7744 510.2886,-61.0274"/>
<polygon fill="#191970" stroke="#191970" points="511.5969,-64.2758 519.7944,-57.5638 509.2004,-57.6988 511.5969,-64.2758"/>
</g>
<!-- Node6 -->
<g id="node7" class="node">
<title>Node6</title>
<g id="a_node7"><a xlink:href="class_pass.html#a012c47a55b3cc3467ad0f013716f623a" target="_top" xlink:title="Pass::init">
<polygon fill="none" stroke="#000000" points="548,-152.5 548,-171.5 606,-171.5 606,-152.5 548,-152.5"/>
<text text-anchor="middle" x="577" y="-159.5" font-family="Helvetica,sans-Serif" font-size="10.00" fill="#000000">Pass::init</text>
</a>
</g>
</g>
<!-- Node1&#45;&gt;Node6 -->
<g id="edge6" class="edge">
<title>Node1&#45;&gt;Node6</title>
<path fill="none" stroke="#191970" d="M440.9263,-133.589C470.8443,-139.8356 509.4584,-147.8979 537.9055,-153.8374"/>
<polygon fill="#191970" stroke="#191970" points="537.3867,-157.3045 547.891,-155.9223 538.8175,-150.4523 537.3867,-157.3045"/>
</g>
<!-- Node3 -->
<g id="node4" class="node">
<title>Node3</title>
<g id="a_node4"><a xlink:href="class_qt_pass_settings.html#ab83659fdbfb9069942e6982076b4b934" target="_top" xlink:title="QtPassSettings::getInstance">
<polygon fill="none" stroke="#000000" points="900,-133.5 900,-152.5 1043,-152.5 1043,-133.5 900,-133.5"/>
<text text-anchor="middle" x="971.5" y="-140.5" font-family="Helvetica,sans-Serif" font-size="10.00" fill="#000000">QtPassSettings::getInstance</text>
</a>
</g>
</g>
<!-- Node2&#45;&gt;Node3 -->
<g id="edge3" class="edge">
<title>Node2&#45;&gt;Node3</title>
<path fill="none" stroke="#191970" d="M848.1315,-130.8863C861.7086,-132.2194 876.0441,-133.6271 889.9498,-134.9925"/>
<polygon fill="#191970" stroke="#191970" points="889.6883,-138.4836 899.9825,-135.9776 890.3724,-131.5171 889.6883,-138.4836"/>
</g>
<!-- Node7 -->
<g id="node8" class="node">
<title>Node7</title>
<g id="a_node8"><a xlink:href="class_qt_pass_settings.html#ae3f04477e57019e329ed9944806ec1da" target="_top" xlink:title="QtPassSettings::getGpgHome">
<polygon fill="none" stroke="#000000" points="703.5,-152.5 703.5,-171.5 852.5,-171.5 852.5,-152.5 703.5,-152.5"/>
<text text-anchor="middle" x="778" y="-159.5" font-family="Helvetica,sans-Serif" font-size="10.00" fill="#000000">QtPassSettings::getGpgHome</text>
</a>
</g>
</g>
<!-- Node6&#45;&gt;Node7 -->
<g id="edge7" class="edge">
<title>Node6&#45;&gt;Node7</title>
<path fill="none" stroke="#191970" d="M606.2271,-162C629.0197,-162 661.889,-162 692.7849,-162"/>
<polygon fill="#191970" stroke="#191970" points="693.1696,-165.5001 703.1695,-162 693.1695,-158.5001 693.1696,-165.5001"/>
</g>
<!-- Node7&#45;&gt;Node3 -->
<g id="edge8" class="edge">
<title>Node7&#45;&gt;Node3</title>
<path fill="none" stroke="#191970" d="M852.5354,-154.6813C864.679,-153.4889 877.3161,-152.248 889.6243,-151.0395"/>
<polygon fill="#191970" stroke="#191970" points="890.2576,-154.4942 899.8677,-150.0337 889.5735,-147.5277 890.2576,-154.4942"/>
</g>
<!-- Node9 -->
<g id="node10" class="node">
<title>Node9</title>
<g id="a_node10"><a xlink:href="class_executor.html#a65a32a439c0a531e4553cab015061f2f" target="_top" xlink:title="Executor::executeBlocking blocking version of the executor, takes input and presents it as stdin...">
<polygon fill="none" stroke="#000000" points="328,-152.5 328,-171.5 462,-171.5 462,-152.5 328,-152.5"/>
<text text-anchor="middle" x="395" y="-159.5" font-family="Helvetica,sans-Serif" font-size="10.00" fill="#000000">Executor::executeBlocking</text>
</a>
</g>
</g>
<!-- Node8&#45;&gt;Node9 -->
<g id="edge10" class="edge">
<title>Node8&#45;&gt;Node9</title>
<path fill="none" stroke="#191970" d="M269.5629,-162C284.0606,-162 300.9655,-162 317.5824,-162"/>
<polygon fill="#191970" stroke="#191970" points="317.8675,-165.5001 327.8675,-162 317.8675,-158.5001 317.8675,-165.5001"/>
</g>
<!-- Node10 -->
<g id="node11" class="node">
<title>Node10</title>
<g id="a_node11"><a xlink:href="class_qt_pass_settings.html#a92b674cdafc03000c808bff5fab93249" target="_top" xlink:title="QtPassSettings::getGpgExecutable">
<polygon fill="none" stroke="#000000" points="692,-190.5 692,-209.5 864,-209.5 864,-190.5 692,-190.5"/>
<text text-anchor="middle" x="778" y="-197.5" font-family="Helvetica,sans-Serif" font-size="10.00" fill="#000000">QtPassSettings::getGpgExecutable</text>
</a>
</g>
</g>
<!-- Node8&#45;&gt;Node10 -->
<g id="edge11" class="edge">
<title>Node8&#45;&gt;Node10</title>
<path fill="none" stroke="#191970" d="M269.5462,-171.1221C287.3508,-174.8153 308.6261,-178.7351 328,-181 449.4594,-195.199 590.4556,-199.1405 681.7923,-200.058"/>
<polygon fill="#191970" stroke="#191970" points="681.8199,-203.5583 691.8512,-200.1488 681.8832,-196.5586 681.8199,-203.5583"/>
</g>
<!-- Node10&#45;&gt;Node3 -->
<g id="edge12" class="edge">
<title>Node10&#45;&gt;Node3</title>
<path fill="none" stroke="#191970" d="M826.0246,-190.4785C838.4684,-187.7146 851.7982,-184.4903 864,-181 888.973,-173.8565 916.5887,-164.0524 937.5766,-156.1919"/>
<polygon fill="#191970" stroke="#191970" points="938.8983,-159.4341 947.0128,-152.6219 936.4213,-152.887 938.8983,-159.4341"/>
</g>
<!-- Node11&#45;&gt;Node12 -->
<g id="edge14" class="edge">
<title>Node11&#45;&gt;Node12</title>
<path fill="none" stroke="#191970" d="M292.0685,-10C303.4669,-10 315.4094,-10 326.9571,-10"/>
<polygon fill="#191970" stroke="#191970" points="326.9799,-13.5001 336.9799,-10 326.9799,-6.5001 326.9799,-13.5001"/>
</g>
<!-- Node13 -->
<g id="node14" class="node">
<title>Node13</title>
<g id="a_node14"><a xlink:href="class_qt_pass_settings.html#abb8c53443d71181a3ecd6545464453e6" target="_top" xlink:title="QtPassSettings::getPassStore">
<polygon fill="none" stroke="#000000" points="702.5,-38.5 702.5,-57.5 853.5,-57.5 853.5,-38.5 702.5,-38.5"/>
<text text-anchor="middle" x="778" y="-45.5" font-family="Helvetica,sans-Serif" font-size="10.00" fill="#000000">QtPassSettings::getPassStore</text>
</a>
</g>
</g>
<!-- Node12&#45;&gt;Node13 -->
<g id="edge15" class="edge">
<title>Node12&#45;&gt;Node13</title>
<path fill="none" stroke="#191970" d="M453.1781,-12.8686C506.1552,-15.8052 586.4849,-21.0702 656,-29 674.5989,-31.1216 694.7054,-34.0068 713.1267,-36.8876"/>
<polygon fill="#191970" stroke="#191970" points="712.7417,-40.3702 723.1671,-38.4827 713.8401,-33.4569 712.7417,-40.3702"/>
</g>
<!-- Node13&#45;&gt;Node3 -->
<g id="edge16" class="edge">
<title>Node13&#45;&gt;Node3</title>
<path fill="none" stroke="#191970" d="M797.6187,-57.6319C831.9696,-74.4967 903.1318,-109.4342 942.9462,-128.9814"/>
<polygon fill="#191970" stroke="#191970" points="941.5981,-132.2185 952.1171,-133.4838 944.6831,-125.9349 941.5981,-132.2185"/>
</g>
<!-- Node14&#45;&gt;Node1 -->
<g id="edge19" class="edge">
<title>Node14&#45;&gt;Node1</title>
<path fill="none" stroke="#191970" d="M271.2626,-95.589C293.2005,-100.6261 320.2803,-106.8438 343.508,-112.1771"/>
<polygon fill="#191970" stroke="#191970" points="343.008,-115.6533 353.5377,-114.4799 344.5746,-108.8308 343.008,-115.6533"/>
</g>
<!-- Node15 -->
<g id="node16" class="node">
<title>Node15</title>
<g id="a_node16"><a xlink:href="class_pass.html#aee98d184ed11013a9a9dc08d05fbb1a2" target="_top" xlink:title="Pass::Init">
<polygon fill="none" stroke="#000000" points="365.5,-76.5 365.5,-95.5 424.5,-95.5 424.5,-76.5 365.5,-76.5"/>
<text text-anchor="middle" x="395" y="-83.5" font-family="Helvetica,sans-Serif" font-size="10.00" fill="#000000">Pass::Init</text>
</a>
</g>
</g>
<!-- Node14&#45;&gt;Node15 -->
<g id="edge20" class="edge">
<title>Node14&#45;&gt;Node15</title>
<path fill="none" stroke="#191970" d="M282.7762,-86C306.3259,-86 333.539,-86 355.2695,-86"/>
<polygon fill="#191970" stroke="#191970" points="355.4567,-89.5001 365.4567,-86 355.4566,-82.5001 355.4567,-89.5001"/>
</g>
</g>
</svg>
