<?xml version="1.0" encoding="UTF-8" standalone="no"?>
<!DOCTYPE svg PUBLIC "-//W3C//DTD SVG 1.1//EN"
 "http://www.w3.org/Graphics/SVG/1.1/DTD/svg11.dtd">
<!-- Generated by graphviz version 2.40.1 (20161225.0304)
 -->
<!-- Title: Pass::finishedGenerateGPGKeys Pages: 1 -->
<svg width="452pt" height="66pt"
 viewBox="0.00 0.00 452.00 66.00" xmlns="http://www.w3.org/2000/svg" xmlns:xlink="http://www.w3.org/1999/xlink">
<g id="graph0" class="graph" transform="scale(1 1) rotate(0) translate(4 62)">
<title>Pass::finishedGenerateGPGKeys</title>
<!-- Node91 -->
<g id="node1" class="node">
<title>Node91</title>
<polygon fill="#bfbfbf" stroke="#000000" points="0,-19.5 0,-38.5 163,-38.5 163,-19.5 0,-19.5"/>
<text text-anchor="middle" x="81.5" y="-26.5" font-family="Helvetica,sans-Serif" font-size="10.00" fill="#000000">Pass::finishedGenerateGPGKeys</text>
</g>
<!-- Node92 -->
<g id="node2" class="node">
<title>Node92</title>
<g id="a_node2"><a xlink:href="class_pass.html#a8dfa731be7ac962f9f6a5cf8f29097ec" target="_top" xlink:title="Pass::~Pass">
<polygon fill="none" stroke="#000000" points="199,-38.5 199,-57.5 273,-57.5 273,-38.5 199,-38.5"/>
<text text-anchor="middle" x="236" y="-45.5" font-family="Helvetica,sans-Serif" font-size="10.00" fill="#000000">Pass::~Pass</text>
</a>
</g>
</g>
<!-- Node91&#45;&gt;Node92 -->
<g id="edge1" class="edge">
<title>Node91&#45;&gt;Node92</title>
<path fill="none" stroke="#191970" d="M169.2198,-39.7876C179.6118,-41.0655 189.7463,-42.3118 198.8521,-43.4317"/>
<polygon fill="#191970" stroke="#191970" points="169.5551,-36.3025 159.2026,-38.5557 168.7006,-43.2502 169.5551,-36.3025"/>
</g>
<!-- Node93 -->
<g id="node3" class="node">
<title>Node93</title>
<g id="a_node3"><a xlink:href="class_qt_pass.html#a49e2861160fdb8d614231933f60fac47" target="_top" xlink:title="QtPass::init make sure we are ready to go as soon as possible. ">
<polygon fill="none" stroke="#000000" points="202,-.5 202,-19.5 270,-19.5 270,-.5 202,-.5"/>
<text text-anchor="middle" x="236" y="-7.5" font-family="Helvetica,sans-Serif" font-size="10.00" fill="#000000">QtPass::init</text>
</a>
</g>
</g>
<!-- Node91&#45;&gt;Node93 -->
<g id="edge2" class="edge">
<title>Node91&#45;&gt;Node93</title>
<path fill="none" stroke="#191970" d="M169.3875,-18.1918C180.9129,-16.7745 192.1163,-15.3967 201.9449,-14.188"/>
<polygon fill="#191970" stroke="#191970" points="168.7006,-14.7498 159.2026,-19.4443 169.5551,-21.6975 168.7006,-14.7498"/>
</g>
<!-- Node94 -->
<g id="node4" class="node">
<title>Node94</title>
<g id="a_node4"><a xlink:href="class_main_window.html#a52e97245b2f88492071e639395c4a15a" target="_top" xlink:title="MainWindow::MainWindow handles all of the main functionality and also the main window. ">
<polygon fill="none" stroke="#000000" points="309,-.5 309,-19.5 444,-19.5 444,-.5 309,-.5"/>
<text text-anchor="middle" x="376.5" y="-7.5" font-family="Helvetica,sans-Serif" font-size="10.00" fill="#000000">MainWindow::MainWindow</text>
</a>
</g>
</g>
<!-- Node93&#45;&gt;Node94 -->
<g id="edge3" class="edge">
<title>Node93&#45;&gt;Node94</title>
<path fill="none" stroke="#191970" d="M280.0498,-10C289.2402,-10 299.129,-10 308.9475,-10"/>
<polygon fill="#191970" stroke="#191970" points="280.0112,-6.5001 270.0111,-10 280.0111,-13.5001 280.0112,-6.5001"/>
</g>
</g>
</svg>
