<?xml version="1.0" encoding="UTF-8" standalone="no"?>
<!DOCTYPE svg PUBLIC "-//W3C//DTD SVG 1.1//EN"
 "http://www.w3.org/Graphics/SVG/1.1/DTD/svg11.dtd">
<!-- Generated by graphviz version 2.38.0 (20140413.2041)
 -->
<!-- Title: Pass Pages: 1 -->
<svg width="98pt" height="148pt"
 viewBox="0.00 0.00 98.07 148.00" xmlns="http://www.w3.org/2000/svg" xmlns:xlink="http://www.w3.org/1999/xlink">
<g id="graph0" class="graph" transform="scale(1 1) rotate(0) translate(4 144)">
<title>Pass</title>
<!-- Node4 -->
<g id="node1" class="node"><title>Node4</title>
<polygon fill="#bfbfbf" stroke="black" points="3.22412,-0.5 3.22412,-18.5 41.4556,-18.5 41.4556,-0.5 3.22412,-0.5"/>
<text text-anchor="middle" x="22.3398" y="-6.5" font-family="Helvetica,sans-Serif" font-size="10.00">Pass</text>
</g>
<!-- Node5 -->
<g id="node2" class="node"><title>Node5</title>
<polygon fill="none" stroke="#bfbfbf" points="0,-121.5 0,-139.5 52.6797,-139.5 52.6797,-121.5 0,-121.5"/>
<text text-anchor="middle" x="26.3398" y="-127.5" font-family="Helvetica,sans-Serif" font-size="10.00">QObject</text>
</g>
<!-- Node5&#45;&gt;Node4 -->
<g id="edge1" class="edge"><title>Node5&#45;&gt;Node4</title>
<path fill="none" stroke="midnightblue" d="M25.7252,-111.214C24.8433,-84.9787 23.2552,-37.7306 22.6167,-18.7366"/>
<polygon fill="midnightblue" stroke="midnightblue" points="22.2308,-111.444 26.0649,-121.321 29.2269,-111.209 22.2308,-111.444"/>
</g>
<!-- Node6 -->
<g id="node3" class="node"><title>Node6</title>
<g id="a_node3"><a xlink:href="class_executor.html" target="_top" xlink:title="Executes external commands for handleing password, git and other data. ">
<polygon fill="none" stroke="black" points="34.6084,-65.5 34.6084,-83.5 90.0713,-83.5 90.0713,-65.5 34.6084,-65.5"/>
<text text-anchor="middle" x="62.3398" y="-71.5" font-family="Helvetica,sans-Serif" font-size="10.00">Executor</text>
</a>
</g>
</g>
<!-- Node5&#45;&gt;Node6 -->
<g id="edge3" class="edge"><title>Node5&#45;&gt;Node6</title>
<path fill="none" stroke="midnightblue" d="M37.5808,-112.638C44.0043,-103.003 51.7711,-91.3531 56.8722,-83.7014"/>
<polygon fill="midnightblue" stroke="midnightblue" points="34.5997,-110.801 31.9648,-121.062 40.4241,-114.683 34.5997,-110.801"/>
</g>
<!-- Node6&#45;&gt;Node4 -->
<g id="edge2" class="edge"><title>Node6&#45;&gt;Node4</title>
<path fill="none" stroke="#9a32cd" stroke-dasharray="5,2" d="M51.7061,-56.7518C43.8597,-44.3937 33.5289,-28.1227 27.444,-18.539"/>
<polygon fill="#9a32cd" stroke="#9a32cd" points="48.7957,-58.6978 57.1105,-65.2639 54.7052,-54.9457 48.7957,-58.6978"/>
<text text-anchor="middle" x="57.2905" y="-39" font-family="Helvetica,sans-Serif" font-size="10.00"> exec</text>
</g>
</g>
</svg>
