<?xml version="1.0" encoding="UTF-8" standalone="no"?>
<!DOCTYPE svg PUBLIC "-//W3C//DTD SVG 1.1//EN"
 "http://www.w3.org/Graphics/SVG/1.1/DTD/svg11.dtd">
<!-- Generated by graphviz version 2.49.3 (0)
 -->
<!-- Title: UsersDialog::UsersDialog Pages: 1 -->
<svg width="1048pt" height="224pt"
 viewBox="0.00 0.00 1048.00 224.00" xmlns="http://www.w3.org/2000/svg" xmlns:xlink="http://www.w3.org/1999/xlink">
<g id="graph0" class="graph" transform="scale(1 1) rotate(0) translate(4 220)">
<title>UsersDialog::UsersDialog</title>
<!-- Node1 -->
<g id="node1" class="node">
<title>Node1</title>
<g id="a_node1"><a xlink:title="UsersDialog::UsersDialog basic constructor.">
<polygon fill="#999999" stroke="#666666" points="131,-94 0,-94 0,-75 131,-75 131,-94"/>
<text text-anchor="middle" x="65.5" y="-82" font-family="Helvetica,sans-Serif" font-size="10.00">UsersDialog::UsersDialog</text>
</a>
</g>
</g>
<!-- Node2 -->
<g id="node2" class="node">
<title>Node2</title>
<g id="a_node2"><a xlink:href="class_users_dialog.html#a70580643923a96208b6bbae18d4aa0f3" target="_top" xlink:title="UsersDialog::accept.">
<polygon fill="white" stroke="#666666" points="282.5,-132 176.5,-132 176.5,-113 282.5,-113 282.5,-132"/>
<text text-anchor="middle" x="229.5" y="-120" font-family="Helvetica,sans-Serif" font-size="10.00">UsersDialog::accept</text>
</a>
</g>
</g>
<!-- Node1&#45;&gt;Node2 -->
<g id="edge1" class="edge">
<title>Node1&#45;&gt;Node2</title>
<path fill="none" stroke="#63b8ff" d="M107.38,-94.09C128.85,-99.13 155.36,-105.34 178.1,-110.68"/>
<polygon fill="#63b8ff" stroke="#63b8ff" points="177.38,-114.1 187.91,-112.98 178.98,-107.29 177.38,-114.1"/>
</g>
<!-- Node3 -->
<g id="node3" class="node">
<title>Node3</title>
<g id="a_node3"><a xlink:href="class_qt_pass_settings.html#a987e913eac7cd497e2fca27426494a64" target="_top" xlink:title=" ">
<polygon fill="white" stroke="#666666" points="458,-169 330,-169 330,-150 458,-150 458,-169"/>
<text text-anchor="middle" x="394" y="-157" font-family="Helvetica,sans-Serif" font-size="10.00">QtPassSettings::getPass</text>
</a>
</g>
</g>
<!-- Node1&#45;&gt;Node3 -->
<g id="edge11" class="edge">
<title>Node1&#45;&gt;Node3</title>
<path fill="none" stroke="#63b8ff" d="M78.99,-94.01C97.22,-107.3 132.67,-130.97 167,-141.5 216.4,-156.66 274.56,-161 319.51,-161.64"/>
<polygon fill="#63b8ff" stroke="#63b8ff" points="319.74,-165.14 329.77,-161.72 319.79,-158.14 319.74,-165.14"/>
</g>
<!-- Node11 -->
<g id="node11" class="node">
<title>Node11</title>
<g id="a_node11"><a xlink:href="class_pass.html#a6c5400e104ade2f41c8d4a41fc0b4f4e" target="_top" xlink:title="Pass::getRecipientList return list of gpg&#45;id&#39;s to encrypt for.">
<polygon fill="white" stroke="#666666" points="451.5,-85 336.5,-85 336.5,-66 451.5,-66 451.5,-85"/>
<text text-anchor="middle" x="394" y="-73" font-family="Helvetica,sans-Serif" font-size="10.00">Pass::getRecipientList</text>
</a>
</g>
</g>
<!-- Node1&#45;&gt;Node11 -->
<g id="edge12" class="edge">
<title>Node1&#45;&gt;Node11</title>
<path fill="none" stroke="#63b8ff" d="M131.01,-82.72C187.46,-81.17 269.14,-78.91 326.25,-77.34"/>
<polygon fill="#63b8ff" stroke="#63b8ff" points="326.36,-80.84 336.26,-77.06 326.17,-73.84 326.36,-80.84"/>
</g>
<!-- Node14 -->
<g id="node14" class="node">
<title>Node14</title>
<g id="a_node14"><a xlink:href="class_pass.html#a4566c370e65b22d5cdc132f72b393808" target="_top" xlink:title="Pass::getRecipientString formated string for use with GPG.">
<polygon fill="white" stroke="#666666" points="292,-56 167,-56 167,-37 292,-37 292,-56"/>
<text text-anchor="middle" x="229.5" y="-44" font-family="Helvetica,sans-Serif" font-size="10.00">Pass::getRecipientString</text>
</a>
</g>
</g>
<!-- Node1&#45;&gt;Node14 -->
<g id="edge16" class="edge">
<title>Node1&#45;&gt;Node14</title>
<path fill="none" stroke="#63b8ff" d="M107.38,-74.91C128.85,-69.87 155.36,-63.66 178.1,-58.32"/>
<polygon fill="#63b8ff" stroke="#63b8ff" points="178.98,-61.71 187.91,-56.02 177.38,-54.9 178.98,-61.71"/>
</g>
<!-- Node15 -->
<g id="node15" class="node">
<title>Node15</title>
<g id="a_node15"><a xlink:href="class_pass.html#ac0a8e833a71fd2a1ad79cf1158fb0cc2" target="_top" xlink:title="Pass::listKeys list users.">
<polygon fill="white" stroke="#666666" points="269.5,-19 189.5,-19 189.5,0 269.5,0 269.5,-19"/>
<text text-anchor="middle" x="229.5" y="-7" font-family="Helvetica,sans-Serif" font-size="10.00">Pass::listKeys</text>
</a>
</g>
</g>
<!-- Node1&#45;&gt;Node15 -->
<g id="edge18" class="edge">
<title>Node1&#45;&gt;Node15</title>
<path fill="none" stroke="#63b8ff" d="M81.32,-74.94C100.5,-62.88 135.23,-42.08 167,-28.5 172.33,-26.22 178.03,-24.08 183.72,-22.13"/>
<polygon fill="#63b8ff" stroke="#63b8ff" points="184.83,-25.45 193.24,-19.01 182.65,-18.8 184.83,-25.45"/>
</g>
<!-- Node2&#45;&gt;Node3 -->
<g id="edge2" class="edge">
<title>Node2&#45;&gt;Node3</title>
<path fill="none" stroke="#63b8ff" d="M272.35,-132.03C293.31,-136.8 318.88,-142.62 341.08,-147.68"/>
<polygon fill="#63b8ff" stroke="#63b8ff" points="340.48,-151.13 351.01,-149.94 342.04,-144.31 340.48,-151.13"/>
</g>
<!-- Node10 -->
<g id="node10" class="node">
<title>Node10</title>
<g id="a_node10"><a xlink:href="class_pass.html#aee98d184ed11013a9a9dc08d05fbb1a2" target="_top" xlink:title=" ">
<polygon fill="white" stroke="#666666" points="423.5,-132 364.5,-132 364.5,-113 423.5,-113 423.5,-132"/>
<text text-anchor="middle" x="394" y="-120" font-family="Helvetica,sans-Serif" font-size="10.00">Pass::Init</text>
</a>
</g>
</g>
<!-- Node2&#45;&gt;Node10 -->
<g id="edge10" class="edge">
<title>Node2&#45;&gt;Node10</title>
<path fill="none" stroke="#63b8ff" d="M282.81,-122.5C306.09,-122.5 333.02,-122.5 354.43,-122.5"/>
<polygon fill="#63b8ff" stroke="#63b8ff" points="354.46,-126 364.46,-122.5 354.46,-119 354.46,-126"/>
</g>
<!-- Node4 -->
<g id="node4" class="node">
<title>Node4</title>
<g id="a_node4"><a xlink:href="class_qt_pass_settings.html#a2d6c10abe565eaadb5a222501adfe31f" target="_top" xlink:title=" ">
<polygon fill="white" stroke="#666666" points="654,-216 496,-216 496,-197 654,-197 654,-216"/>
<text text-anchor="middle" x="575" y="-204" font-family="Helvetica,sans-Serif" font-size="10.00">QtPassSettings::getImitatePass</text>
</a>
</g>
</g>
<!-- Node3&#45;&gt;Node4 -->
<g id="edge3" class="edge">
<title>Node3&#45;&gt;Node4</title>
<path fill="none" stroke="#63b8ff" d="M426.72,-169.07C446.56,-174.95 472.69,-182.47 496,-188.5 503.94,-190.55 512.36,-192.62 520.63,-194.58"/>
<polygon fill="#63b8ff" stroke="#63b8ff" points="520.05,-198.04 530.58,-196.91 521.64,-191.22 520.05,-198.04"/>
</g>
<!-- Node5 -->
<g id="node5" class="node">
<title>Node5</title>
<g id="a_node5"><a xlink:href="class_qt_pass_settings.html#aaaeff5fa2e3a6b1f815b9a8247339b3a" target="_top" xlink:title=" ">
<polygon fill="white" stroke="#666666" points="648.5,-179 501.5,-179 501.5,-160 648.5,-160 648.5,-179"/>
<text text-anchor="middle" x="575" y="-167" font-family="Helvetica,sans-Serif" font-size="10.00">QtPassSettings::getRealPass</text>
</a>
</g>
</g>
<!-- Node3&#45;&gt;Node5 -->
<g id="edge4" class="edge">
<title>Node3&#45;&gt;Node5</title>
<path fill="none" stroke="#63b8ff" d="M458.11,-163.03C468.82,-163.62 480.09,-164.25 491.21,-164.88"/>
<polygon fill="#63b8ff" stroke="#63b8ff" points="491.19,-168.38 501.37,-165.44 491.58,-161.39 491.19,-168.38"/>
</g>
<!-- Node6 -->
<g id="node6" class="node">
<title>Node6</title>
<g id="a_node6"><a xlink:href="class_pass.html#a012c47a55b3cc3467ad0f013716f623a" target="_top" xlink:title=" ">
<polygon fill="white" stroke="#666666" points="604,-142 546,-142 546,-123 604,-123 604,-142"/>
<text text-anchor="middle" x="575" y="-130" font-family="Helvetica,sans-Serif" font-size="10.00">Pass::init</text>
</a>
</g>
</g>
<!-- Node3&#45;&gt;Node6 -->
<g id="edge5" class="edge">
<title>Node3&#45;&gt;Node6</title>
<path fill="none" stroke="#63b8ff" d="M458.11,-149.98C484.12,-146.06 513.4,-141.64 536.02,-138.23"/>
<polygon fill="#63b8ff" stroke="#63b8ff" points="536.54,-141.69 545.91,-136.74 535.5,-134.77 536.54,-141.69"/>
</g>
<!-- Node9 -->
<g id="node9" class="node">
<title>Node9</title>
<g id="a_node9"><a xlink:href="class_qt_pass_settings.html#a30ef36260f73f9f18d338f2b18a1f493" target="_top" xlink:title=" ">
<polygon fill="white" stroke="#666666" points="845.5,-103 705.5,-103 705.5,-84 845.5,-84 845.5,-103"/>
<text text-anchor="middle" x="775.5" y="-91" font-family="Helvetica,sans-Serif" font-size="10.00">QtPassSettings::isUsePass</text>
</a>
</g>
</g>
<!-- Node3&#45;&gt;Node9 -->
<g id="edge8" class="edge">
<title>Node3&#45;&gt;Node9</title>
<path fill="none" stroke="#63b8ff" d="M438.15,-150C445.62,-147.67 453.17,-144.86 460,-141.5 477.95,-132.68 477.28,-121.53 496,-114.5 560.01,-90.45 638.02,-86.52 695.18,-87.85"/>
<polygon fill="#63b8ff" stroke="#63b8ff" points="695.14,-91.35 705.24,-88.14 695.34,-84.35 695.14,-91.35"/>
</g>
<!-- Node7 -->
<g id="node7" class="node">
<title>Node7</title>
<g id="a_node7"><a xlink:href="class_qt_pass_settings.html#ae3f04477e57019e329ed9944806ec1da" target="_top" xlink:title=" ">
<polygon fill="white" stroke="#666666" points="850,-141 701,-141 701,-122 850,-122 850,-141"/>
<text text-anchor="middle" x="775.5" y="-129" font-family="Helvetica,sans-Serif" font-size="10.00">QtPassSettings::getGpgHome</text>
</a>
</g>
</g>
<!-- Node6&#45;&gt;Node7 -->
<g id="edge6" class="edge">
<title>Node6&#45;&gt;Node7</title>
<path fill="none" stroke="#63b8ff" d="M604.02,-132.36C626.58,-132.25 659.53,-132.08 690.45,-131.92"/>
<polygon fill="#63b8ff" stroke="#63b8ff" points="690.86,-135.42 700.85,-131.87 690.83,-128.42 690.86,-135.42"/>
</g>
<!-- Node8 -->
<g id="node8" class="node">
<title>Node8</title>
<g id="a_node8"><a xlink:href="class_qt_pass_settings.html#ab83659fdbfb9069942e6982076b4b934" target="_top" xlink:title=" ">
<polygon fill="white" stroke="#666666" points="1040,-84 897,-84 897,-65 1040,-65 1040,-84"/>
<text text-anchor="middle" x="968.5" y="-72" font-family="Helvetica,sans-Serif" font-size="10.00">QtPassSettings::getInstance</text>
</a>
</g>
</g>
<!-- Node7&#45;&gt;Node8 -->
<g id="edge7" class="edge">
<title>Node7&#45;&gt;Node8</title>
<path fill="none" stroke="#63b8ff" d="M823.69,-121.95C835.92,-119.19 849.01,-115.97 861,-112.5 885.74,-105.33 913.1,-95.53 933.89,-87.68"/>
<polygon fill="#63b8ff" stroke="#63b8ff" points="935.15,-90.94 943.24,-84.11 932.65,-84.4 935.15,-90.94"/>
</g>
<!-- Node9&#45;&gt;Node8 -->
<g id="edge9" class="edge">
<title>Node9&#45;&gt;Node8</title>
<path fill="none" stroke="#63b8ff" d="M845.73,-86.61C859,-85.29 873,-83.9 886.6,-82.55"/>
<polygon fill="#63b8ff" stroke="#63b8ff" points="887.3,-86 896.91,-81.52 886.61,-79.03 887.3,-86"/>
</g>
<!-- Node12 -->
<g id="node12" class="node">
<title>Node12</title>
<g id="a_node12"><a xlink:href="class_pass.html#a99f0deecf9ddaa09fd62841e6fa60b68" target="_top" xlink:title="Pass::getGpgIdPath return gpgid file path for some file (folder).">
<polygon fill="white" stroke="#666666" points="627.5,-66 522.5,-66 522.5,-47 627.5,-47 627.5,-66"/>
<text text-anchor="middle" x="575" y="-54" font-family="Helvetica,sans-Serif" font-size="10.00">Pass::getGpgIdPath</text>
</a>
</g>
</g>
<!-- Node11&#45;&gt;Node12 -->
<g id="edge13" class="edge">
<title>Node11&#45;&gt;Node12</title>
<path fill="none" stroke="#63b8ff" d="M451.64,-69.49C470.91,-67.44 492.55,-65.15 512.21,-63.06"/>
<polygon fill="#63b8ff" stroke="#63b8ff" points="512.71,-66.53 522.29,-61.99 511.97,-59.56 512.71,-66.53"/>
</g>
<!-- Node13 -->
<g id="node13" class="node">
<title>Node13</title>
<g id="a_node13"><a xlink:href="class_qt_pass_settings.html#abb8c53443d71181a3ecd6545464453e6" target="_top" xlink:title=" ">
<polygon fill="white" stroke="#666666" points="851,-66 700,-66 700,-47 851,-47 851,-66"/>
<text text-anchor="middle" x="775.5" y="-54" font-family="Helvetica,sans-Serif" font-size="10.00">QtPassSettings::getPassStore</text>
</a>
</g>
</g>
<!-- Node12&#45;&gt;Node13 -->
<g id="edge14" class="edge">
<title>Node12&#45;&gt;Node13</title>
<path fill="none" stroke="#63b8ff" d="M627.64,-56.5C646.59,-56.5 668.58,-56.5 689.68,-56.5"/>
<polygon fill="#63b8ff" stroke="#63b8ff" points="689.95,-60 699.95,-56.5 689.95,-53 689.95,-60"/>
</g>
<!-- Node13&#45;&gt;Node8 -->
<g id="edge15" class="edge">
<title>Node13&#45;&gt;Node8</title>
<path fill="none" stroke="#63b8ff" d="M851.17,-63.54C862.82,-64.63 874.91,-65.77 886.69,-66.88"/>
<polygon fill="#63b8ff" stroke="#63b8ff" points="886.66,-70.4 896.95,-67.85 887.32,-63.43 886.66,-70.4"/>
</g>
<!-- Node14&#45;&gt;Node11 -->
<g id="edge17" class="edge">
<title>Node14&#45;&gt;Node11</title>
<path fill="none" stroke="#63b8ff" d="M284.16,-56.08C298.66,-58.66 314.48,-61.49 329.46,-64.16"/>
<polygon fill="#63b8ff" stroke="#63b8ff" points="329.22,-67.67 339.67,-65.98 330.44,-60.78 329.22,-67.67"/>
</g>
<!-- Node16 -->
<g id="node16" class="node">
<title>Node16</title>
<g id="a_node16"><a xlink:href="class_executor.html#a65a32a439c0a531e4553cab015061f2f" target="_top" xlink:title="Executor::executeBlocking blocking version of the executor, takes input and presents it as stdin.">
<polygon fill="white" stroke="#666666" points="460,-48 328,-48 328,-29 460,-29 460,-48"/>
<text text-anchor="middle" x="394" y="-36" font-family="Helvetica,sans-Serif" font-size="10.00">Executor::executeBlocking</text>
</a>
</g>
</g>
<!-- Node15&#45;&gt;Node16 -->
<g id="edge19" class="edge">
<title>Node15&#45;&gt;Node16</title>
<path fill="none" stroke="#63b8ff" d="M269.84,-16.52C287.76,-19.72 309.42,-23.58 329.55,-27.18"/>
<polygon fill="#63b8ff" stroke="#63b8ff" points="329.14,-30.66 339.6,-28.97 330.37,-23.77 329.14,-30.66"/>
</g>
<!-- Node17 -->
<g id="node17" class="node">
<title>Node17</title>
<g id="a_node17"><a xlink:href="class_qt_pass_settings.html#a92b674cdafc03000c808bff5fab93249" target="_top" xlink:title=" ">
<polygon fill="white" stroke="#666666" points="861,-29 690,-29 690,-10 861,-10 861,-29"/>
<text text-anchor="middle" x="775.5" y="-17" font-family="Helvetica,sans-Serif" font-size="10.00">QtPassSettings::getGpgExecutable</text>
</a>
</g>
</g>
<!-- Node15&#45;&gt;Node17 -->
<g id="edge20" class="edge">
<title>Node15&#45;&gt;Node17</title>
<path fill="none" stroke="#63b8ff" d="M269.62,-10.22C354.69,-11.78 558.56,-15.53 679.61,-17.76"/>
<polygon fill="#63b8ff" stroke="#63b8ff" points="679.56,-21.26 689.62,-17.94 679.69,-14.26 679.56,-21.26"/>
</g>
<!-- Node17&#45;&gt;Node8 -->
<g id="edge21" class="edge">
<title>Node17&#45;&gt;Node8</title>
<path fill="none" stroke="#63b8ff" d="M823.21,-29.08C835.56,-31.87 848.84,-35.09 861,-38.5 884.9,-45.21 911.34,-54.14 931.9,-61.42"/>
<polygon fill="#63b8ff" stroke="#63b8ff" points="930.88,-64.78 941.48,-64.85 933.24,-58.19 930.88,-64.78"/>
</g>
</g>
</svg>
