<?xml version="1.0" encoding="UTF-8" standalone="no"?>
<!DOCTYPE svg PUBLIC "-//W3C//DTD SVG 1.1//EN"
 "http://www.w3.org/Graphics/SVG/1.1/DTD/svg11.dtd">
<!-- Generated by graphviz version 2.49.3 (0)
 -->
<!-- Title: PasswordDialog::setPassword Pages: 1 -->
<svg width="347pt" height="175pt"
 viewBox="0.00 0.00 347.00 175.00" xmlns="http://www.w3.org/2000/svg" xmlns:xlink="http://www.w3.org/1999/xlink">
<g id="graph0" class="graph" transform="scale(1 1) rotate(0) translate(4 171)">
<title>PasswordDialog::setPassword</title>
<!-- Node1 -->
<g id="node1" class="node">
<title>Node1</title>
<g id="a_node1"><a xlink:title="Sets content in the password field in the interface.">
<polygon fill="#999999" stroke="#666666" points="151,-93 0,-93 0,-74 151,-74 151,-93"/>
<text text-anchor="middle" x="75.5" y="-81" font-family="Helvetica,sans-Serif" font-size="10.00">PasswordDialog::setPassword</text>
</a>
</g>
</g>
<!-- Node2 -->
<g id="node2" class="node">
<title>Node2</title>
<g id="a_node2"><a xlink:href="class_file_content.html#ab1a615b719c41f631821e06009c530a2" target="_top" xlink:title=" ">
<polygon fill="white" stroke="#666666" points="336,-167 190,-167 190,-148 336,-148 336,-167"/>
<text text-anchor="middle" x="263" y="-155" font-family="Helvetica,sans-Serif" font-size="10.00">FileContent::getNamedValues</text>
</a>
</g>
</g>
<!-- Node1&#45;&gt;Node2 -->
<g id="edge1" class="edge">
<title>Node1&#45;&gt;Node2</title>
<path fill="none" stroke="#63b8ff" d="M92.44,-93.08C113.45,-105.36 151.88,-126.59 187,-139.5 192.64,-141.57 198.6,-143.47 204.6,-145.19"/>
<polygon fill="#63b8ff" stroke="#63b8ff" points="204.12,-148.69 214.69,-147.92 205.95,-141.93 204.12,-148.69"/>
</g>
<!-- Node3 -->
<g id="node3" class="node">
<title>Node3</title>
<g id="a_node3"><a xlink:href="class_file_content.html#aab89c859cfde0d9d1ed8de89e07ca231" target="_top" xlink:title=" ">
<polygon fill="white" stroke="#666666" points="327.5,-130 198.5,-130 198.5,-111 327.5,-111 327.5,-130"/>
<text text-anchor="middle" x="263" y="-118" font-family="Helvetica,sans-Serif" font-size="10.00">FileContent::getPassword</text>
</a>
</g>
</g>
<!-- Node1&#45;&gt;Node3 -->
<g id="edge2" class="edge">
<title>Node1&#45;&gt;Node3</title>
<path fill="none" stroke="#63b8ff" d="M124.27,-93.03C148.63,-97.89 178.44,-103.83 204.1,-108.95"/>
<polygon fill="#63b8ff" stroke="#63b8ff" points="203.58,-112.42 214.07,-110.94 204.95,-105.55 203.58,-112.42"/>
</g>
<!-- Node4 -->
<g id="node4" class="node">
<title>Node4</title>
<g id="a_node4"><a xlink:href="class_file_content.html#a2f1cc35e14725e8f3f95dddf3afcc29a" target="_top" xlink:title=" ">
<polygon fill="white" stroke="#666666" points="339,-93 187,-93 187,-74 339,-74 339,-93"/>
<text text-anchor="middle" x="263" y="-81" font-family="Helvetica,sans-Serif" font-size="10.00">FileContent::getRemainingData</text>
</a>
</g>
</g>
<!-- Node1&#45;&gt;Node4 -->
<g id="edge3" class="edge">
<title>Node1&#45;&gt;Node4</title>
<path fill="none" stroke="#63b8ff" d="M151.15,-83.5C159.61,-83.5 168.29,-83.5 176.88,-83.5"/>
<polygon fill="#63b8ff" stroke="#63b8ff" points="176.9,-87 186.9,-83.5 176.9,-80 176.9,-87"/>
</g>
<!-- Node5 -->
<g id="node5" class="node">
<title>Node5</title>
<g id="a_node5"><a xlink:href="class_file_content.html#abef563f253a931af308232c66e032153" target="_top" xlink:title="parse parses the given fileContent in a FileContent object. The password is accessible through getPas...">
<polygon fill="white" stroke="#666666" points="311,-56 215,-56 215,-37 311,-37 311,-56"/>
<text text-anchor="middle" x="263" y="-44" font-family="Helvetica,sans-Serif" font-size="10.00">FileContent::parse</text>
</a>
</g>
</g>
<!-- Node1&#45;&gt;Node5 -->
<g id="edge4" class="edge">
<title>Node1&#45;&gt;Node5</title>
<path fill="none" stroke="#63b8ff" d="M124.27,-73.97C148.82,-69.08 178.91,-63.07 204.69,-57.93"/>
<polygon fill="#63b8ff" stroke="#63b8ff" points="205.59,-61.32 214.71,-55.93 204.22,-54.46 205.59,-61.32"/>
</g>
<!-- Node6 -->
<g id="node6" class="node">
<title>Node6</title>
<g id="a_node6"><a xlink:href="class_named_values.html#a1108666ec11e20d62e0fe2a3f0f9d189" target="_top" xlink:title=" ">
<polygon fill="white" stroke="#666666" points="325.5,-19 200.5,-19 200.5,0 325.5,0 325.5,-19"/>
<text text-anchor="middle" x="263" y="-7" font-family="Helvetica,sans-Serif" font-size="10.00">NamedValues::takeValue</text>
</a>
</g>
</g>
<!-- Node1&#45;&gt;Node6 -->
<g id="edge5" class="edge">
<title>Node1&#45;&gt;Node6</title>
<path fill="none" stroke="#63b8ff" d="M92.85,-73.97C114,-61.97 152.24,-41.39 187,-28.5 193.75,-26 200.97,-23.71 208.16,-21.65"/>
<polygon fill="#63b8ff" stroke="#63b8ff" points="209.17,-25.01 217.89,-19 207.32,-18.25 209.17,-25.01"/>
</g>
</g>
</svg>
