<?xml version="1.0" encoding="UTF-8" standalone="no"?>
<!DOCTYPE svg PUBLIC "-//W3C//DTD SVG 1.1//EN"
 "http://www.w3.org/Graphics/SVG/1.1/DTD/svg11.dtd">
<!-- Generated by graphviz version 2.40.1 (20161225.0304)
 -->
<!-- Title: QtPassSettings::getGpgHome Pages: 1 -->
<!--zoomable 557 -->
<svg id="main" version="1.1" xmlns="http://www.w3.org/2000/svg" xmlns:xlink="http://www.w3.org/1999/xlink" xml:space="preserve" onload="init(evt)">
<style type="text/css"><![CDATA[
.edge:hover path { stroke: red; }
.edge:hover polygon { stroke: red; fill: red; }
]]></style>
<script type="text/javascript"><![CDATA[
var edges = document.getElementsByTagName('g');
if (edges && edges.length) {
  for (var i=0;i<edges.length;i++) {
    if (edges[i].id.substr(0,4)=='edge') {
      edges[i].setAttribute('class','edge');
    }
  }
}
]]></script>
        <defs>
                <circle id="rim" cx="0" cy="0" r="7"/>
                <circle id="rim2" cx="0" cy="0" r="3.5"/>
                <g id="zoomPlus">
                        <use xlink:href="#rim" fill="#404040">
                                <set attributeName="fill" to="#808080" begin="zoomplus.mouseover" end="zoomplus.mouseout"/>
                        </use>
                        <path d="M-4,0h8M0,-4v8" fill="none" stroke="white" stroke-width="1.5" pointer-events="none"/>
                </g>
                <g id="zoomMin">
                        <use xlink:href="#rim" fill="#404040">
                                <set attributeName="fill" to="#808080" begin="zoomminus.mouseover" end="zoomminus.mouseout"/>
                        </use>
                        <path d="M-4,0h8" fill="none" stroke="white" stroke-width="1.5" pointer-events="none"/>
                </g>
                <g id="dirArrow">
                        <path fill="none" stroke="white" stroke-width="1.5" d="M0,-3.0v7 M-2.5,-0.5L0,-3.0L2.5,-0.5"/>
                </g>
               <g id="resetDef">
                       <use xlink:href="#rim2" fill="#404040">
                               <set attributeName="fill" to="#808080" begin="reset.mouseover" end="reset.mouseout"/>
                       </use>
               </g>
        </defs>

<script type="text/javascript">
var viewWidth = 1141;
var viewHeight = 557;
var sectionId = 'dynsection-17';
</script>
<script xlink:href="svgpan.js"/>
<svg id="graph" class="graph">
<g id="viewport">
<title>QtPassSettings::getGpgHome</title>
<!-- Node76 -->
<g id="node1" class="node">
<title>Node76</title>
<polygon fill="#bfbfbf" stroke="#000000" points="0,-270.5 0,-289.5 149,-289.5 149,-270.5 0,-270.5"/>
<text text-anchor="middle" x="74.5" y="-277.5" font-family="Helvetica,sans-Serif" font-size="10.00" fill="#000000">QtPassSettings::getGpgHome</text>
</g>
<!-- Node77 -->
<g id="node2" class="node">
<title>Node77</title>
<g id="a_node2"><a xlink:href="class_pass.html#a012c47a55b3cc3467ad0f013716f623a" target="_top" xlink:title="Pass::init">
<polygon fill="none" stroke="#000000" points="185,-270.5 185,-289.5 243,-289.5 243,-270.5 185,-270.5"/>
<text text-anchor="middle" x="214" y="-277.5" font-family="Helvetica,sans-Serif" font-size="10.00" fill="#000000">Pass::init</text>
</a>
</g>
</g>
<!-- Node76&#45;&gt;Node77 -->
<g id="edge1" class="edge">
<title>Node76&#45;&gt;Node77</title>
<path fill="none" stroke="#191970" d="M159.1907,-280C168.3422,-280 177.1337,-280 184.8942,-280"/>
<polygon fill="#191970" stroke="#191970" points="159.1507,-276.5001 149.1507,-280 159.1507,-283.5001 159.1507,-276.5001"/>
</g>
<!-- Node78 -->
<g id="node3" class="node">
<title>Node78</title>
<g id="a_node3"><a xlink:href="class_qt_pass_settings.html#a987e913eac7cd497e2fca27426494a64" target="_top" xlink:title="QtPassSettings::getPass">
<polygon fill="none" stroke="#000000" points="279,-270.5 279,-289.5 407,-289.5 407,-270.5 279,-270.5"/>
<text text-anchor="middle" x="343" y="-277.5" font-family="Helvetica,sans-Serif" font-size="10.00" fill="#000000">QtPassSettings::getPass</text>
</a>
</g>
</g>
<!-- Node77&#45;&gt;Node78 -->
<g id="edge2" class="edge">
<title>Node77&#45;&gt;Node78</title>
<path fill="none" stroke="#191970" d="M253.449,-280C261.5007,-280 270.1689,-280 278.8292,-280"/>
<polygon fill="#191970" stroke="#191970" points="253.2721,-276.5001 243.2721,-280 253.2721,-283.5001 253.2721,-276.5001"/>
</g>
<!-- Node79 -->
<g id="node4" class="node">
<title>Node79</title>
<g id="a_node4"><a xlink:href="class_config_dialog.html#a485badac4dffa04603f800bb9d396e1d" target="_top" xlink:title="ConfigDialog::~ConfigDialog config destructor, makes sure the mainWindow knows about git...">
<polygon fill="none" stroke="#000000" points="448,-529.5 448,-548.5 589,-548.5 589,-529.5 448,-529.5"/>
<text text-anchor="middle" x="518.5" y="-536.5" font-family="Helvetica,sans-Serif" font-size="10.00" fill="#000000">ConfigDialog::~ConfigDialog</text>
</a>
</g>
</g>
<!-- Node78&#45;&gt;Node79 -->
<g id="edge3" class="edge">
<title>Node78&#45;&gt;Node79</title>
<path fill="none" stroke="#191970" d="M345.2616,-299.6604C351.6224,-345.5848 373.9651,-460.5098 443,-520 447.5052,-523.8823 452.6921,-526.9913 458.1932,-529.4782"/>
<polygon fill="#191970" stroke="#191970" points="348.7087,-299.0231 343.9701,-289.547 341.7651,-299.9099 348.7087,-299.0231"/>
</g>
<!-- Node80 -->
<g id="node5" class="node">
<title>Node80</title>
<g id="a_node5"><a xlink:href="class_main_window.html#a52e97245b2f88492071e639395c4a15a" target="_top" xlink:title="MainWindow::MainWindow handles all of the main functionality and also the main window. ">
<polygon fill="none" stroke="#000000" points="998,-311.5 998,-330.5 1133,-330.5 1133,-311.5 998,-311.5"/>
<text text-anchor="middle" x="1065.5" y="-318.5" font-family="Helvetica,sans-Serif" font-size="10.00" fill="#000000">MainWindow::MainWindow</text>
</a>
</g>
</g>
<!-- Node78&#45;&gt;Node80 -->
<g id="edge4" class="edge">
<title>Node78&#45;&gt;Node80</title>
<path fill="none" stroke="#191970" d="M417.3623,-275.8696C426.0039,-275.5118 434.6942,-275.2075 443,-275 591.0499,-271.3011 628.5217,-273.4868 776,-287 852.0961,-293.9726 939.1441,-304.5488 997.7493,-312.0517"/>
<polygon fill="#191970" stroke="#191970" points="417.1035,-272.3775 407.2661,-276.3115 417.4096,-279.3708 417.1035,-272.3775"/>
</g>
<!-- Node81 -->
<g id="node6" class="node">
<title>Node81</title>
<g id="a_node6"><a xlink:href="class_main_window.html#aeb8091ab5531144b76c1fbb0d63deb56" target="_top" xlink:title="MainWindow::config pops up the configuration screen and handles all inter&#45;window communication. ">
<polygon fill="none" stroke="#000000" points="466,-453.5 466,-472.5 571,-472.5 571,-453.5 466,-453.5"/>
<text text-anchor="middle" x="518.5" y="-460.5" font-family="Helvetica,sans-Serif" font-size="10.00" fill="#000000">MainWindow::config</text>
</a>
</g>
</g>
<!-- Node78&#45;&gt;Node81 -->
<g id="edge5" class="edge">
<title>Node78&#45;&gt;Node81</title>
<path fill="none" stroke="#191970" d="M350.0326,-299.4391C363.116,-332.8902 394.3629,-401.3632 443,-439 451.1581,-445.313 461.0163,-449.9869 470.8782,-453.4403"/>
<polygon fill="#191970" stroke="#191970" points="353.2337,-298.0089 346.4239,-289.8925 346.6859,-300.4841 353.2337,-298.0089"/>
</g>
<!-- Node82 -->
<g id="node7" class="node">
<title>Node82</title>
<g id="a_node7"><a xlink:href="class_main_window.html#a9630f0fe0e0941a7996d68014f837ed5" target="_top" xlink:title="MainWindow::restoreWindow">
<polygon fill="none" stroke="#000000" points="631,-412.5 631,-431.5 775,-431.5 775,-412.5 631,-412.5"/>
<text text-anchor="middle" x="703" y="-419.5" font-family="Helvetica,sans-Serif" font-size="10.00" fill="#000000">MainWindow::restoreWindow</text>
</a>
</g>
</g>
<!-- Node78&#45;&gt;Node82 -->
<g id="edge17" class="edge">
<title>Node78&#45;&gt;Node82</title>
<path fill="none" stroke="#191970" d="M351.6137,-298.9489C365.9253,-327.9116 397.5914,-382.3194 443,-406 505.5546,-438.6223 588.4186,-437.4275 643.6111,-431.5164"/>
<polygon fill="#191970" stroke="#191970" points="354.7428,-297.3793 347.2811,-289.8577 348.4237,-300.3907 354.7428,-297.3793"/>
</g>
<!-- Node83 -->
<g id="node8" class="node">
<title>Node83</title>
<g id="a_node8"><a xlink:href="class_qt_pass.html#abd1d1e8d6b80b8307a305d80a6c34371" target="_top" xlink:title="QtPass::setMainWindow">
<polygon fill="none" stroke="#000000" points="824.5,-371.5 824.5,-390.5 949.5,-390.5 949.5,-371.5 824.5,-371.5"/>
<text text-anchor="middle" x="887" y="-378.5" font-family="Helvetica,sans-Serif" font-size="10.00" fill="#000000">QtPass::setMainWindow</text>
</a>
</g>
</g>
<!-- Node78&#45;&gt;Node83 -->
<g id="edge24" class="edge">
<title>Node78&#45;&gt;Node83</title>
<path fill="none" stroke="#191970" d="M417.3919,-278.1315C505.0576,-277.9463 654.2069,-283.9939 776,-321 813.7277,-332.4633 853.2775,-357.4694 873.4351,-371.3065"/>
<polygon fill="#191970" stroke="#191970" points="417.2561,-274.6321 407.2735,-278.1813 417.2906,-281.632 417.2561,-274.6321"/>
</g>
<!-- Node85 -->
<g id="node10" class="node">
<title>Node85</title>
<g id="a_node10"><a xlink:href="class_main_window.html#a6961588ebf3c0640200e0cfa920af3be" target="_top" xlink:title="MainWindow::onPush do a git push. ">
<polygon fill="none" stroke="#000000" points="462.5,-491.5 462.5,-510.5 574.5,-510.5 574.5,-491.5 462.5,-491.5"/>
<text text-anchor="middle" x="518.5" y="-498.5" font-family="Helvetica,sans-Serif" font-size="10.00" fill="#000000">MainWindow::onPush</text>
</a>
</g>
</g>
<!-- Node78&#45;&gt;Node85 -->
<g id="edge10" class="edge">
<title>Node78&#45;&gt;Node85</title>
<path fill="none" stroke="#191970" d="M346.9928,-299.8249C356.2565,-340.5216 383.146,-433.7144 443,-482 448.6807,-486.5828 455.3243,-490.0776 462.2716,-492.7395"/>
<polygon fill="#191970" stroke="#191970" points="350.3645,-298.8566 344.8346,-289.8194 343.5219,-300.3326 350.3645,-298.8566"/>
</g>
<!-- Node87 -->
<g id="node12" class="node">
<title>Node87</title>
<g id="a_node12"><a xlink:href="class_main_window.html#adc7d4b2b210efab401f0b14641f80464" target="_top" xlink:title="MainWindow::on_treeView_clicked read the selected password file. ">
<polygon fill="none" stroke="#000000" points="452,-366 452,-396 585,-396 585,-366 452,-366"/>
<text text-anchor="start" x="460" y="-384" font-family="Helvetica,sans-Serif" font-size="10.00" fill="#000000">MainWindow::on_treeView</text>
<text text-anchor="middle" x="518.5" y="-373" font-family="Helvetica,sans-Serif" font-size="10.00" fill="#000000">_clicked</text>
</a>
</g>
</g>
<!-- Node78&#45;&gt;Node87 -->
<g id="edge13" class="edge">
<title>Node78&#45;&gt;Node87</title>
<path fill="none" stroke="#191970" d="M362.5494,-296.0277C382.0648,-311.4968 413.3409,-334.8813 443,-351 453.1619,-356.5227 464.5602,-361.5854 475.3601,-365.9162"/>
<polygon fill="#191970" stroke="#191970" points="364.6913,-293.2589 354.7016,-289.7295 360.3099,-298.7182 364.6913,-293.2589"/>
</g>
<!-- Node88 -->
<g id="node13" class="node">
<title>Node88</title>
<g id="a_node13"><a xlink:href="class_main_window.html#a9c4f542263838b9ecd06eae839a42a34" target="_top" xlink:title="MainWindow::keyPressEvent did anyone press return, enter or escape? ">
<polygon fill="none" stroke="#000000" points="630,-330.5 630,-349.5 776,-349.5 776,-330.5 630,-330.5"/>
<text text-anchor="middle" x="703" y="-337.5" font-family="Helvetica,sans-Serif" font-size="10.00" fill="#000000">MainWindow::keyPressEvent</text>
</a>
</g>
</g>
<!-- Node78&#45;&gt;Node88 -->
<g id="edge21" class="edge">
<title>Node78&#45;&gt;Node88</title>
<path fill="none" stroke="#191970" d="M376.7326,-293.1473C395.8871,-300.0994 420.4705,-308.1718 443,-313 505.2347,-326.3372 577.3154,-333.1646 629.7746,-336.612"/>
<polygon fill="#191970" stroke="#191970" points="377.8436,-289.8265 367.2505,-289.637 375.4134,-296.3911 377.8436,-289.8265"/>
</g>
<!-- Node89 -->
<g id="node14" class="node">
<title>Node89</title>
<g id="a_node14"><a xlink:href="class_main_window.html#adcd6afb4bbea0fc89cf5b5b51e387935" target="_top" xlink:title="MainWindow::generateKeyPair internal gpg keypair generator . . ">
<polygon fill="none" stroke="#000000" points="443,-213.5 443,-232.5 594,-232.5 594,-213.5 443,-213.5"/>
<text text-anchor="middle" x="518.5" y="-220.5" font-family="Helvetica,sans-Serif" font-size="10.00" fill="#000000">MainWindow::generateKeyPair</text>
</a>
</g>
</g>
<!-- Node78&#45;&gt;Node89 -->
<g id="edge18" class="edge">
<title>Node78&#45;&gt;Node89</title>
<path fill="none" stroke="#191970" d="M381.4431,-267.2045C400.0236,-261.0481 422.6551,-253.5903 443,-247 457.9164,-242.1681 474.5198,-236.8804 488.3497,-232.5009"/>
<polygon fill="#191970" stroke="#191970" points="380.2438,-263.9147 371.8543,-270.3852 382.4478,-270.5587 380.2438,-263.9147"/>
</g>
<!-- Node92 -->
<g id="node17" class="node">
<title>Node92</title>
<g id="a_node17"><a xlink:href="class_password_dialog.html#a859a78e62204698556204b9e20932010" target="_top" xlink:title="PasswordDialog::PasswordDialog basic constructor. ">
<polygon fill="none" stroke="#000000" points="450,-164 450,-194 587,-194 587,-164 450,-164"/>
<text text-anchor="start" x="458" y="-182" font-family="Helvetica,sans-Serif" font-size="10.00" fill="#000000">PasswordDialog::Password</text>
<text text-anchor="middle" x="518.5" y="-171" font-family="Helvetica,sans-Serif" font-size="10.00" fill="#000000">Dialog</text>
</a>
</g>
</g>
<!-- Node78&#45;&gt;Node92 -->
<g id="edge22" class="edge">
<title>Node78&#45;&gt;Node92</title>
<path fill="none" stroke="#191970" d="M360.8964,-263.451C379.9929,-246.5322 411.7407,-220.4658 443,-204 450.0855,-200.2677 457.8358,-196.9434 465.5861,-194.0337"/>
<polygon fill="#191970" stroke="#191970" points="358.3801,-261.007 353.2924,-270.3003 363.065,-266.2082 358.3801,-261.007"/>
</g>
<!-- Node93 -->
<g id="node18" class="node">
<title>Node93</title>
<g id="a_node18"><a xlink:href="class_password_dialog.html#aa123158c0085b910ecf3bfdc9dae9e97" target="_top" xlink:title="Pass{}{}wordDialog::~PasswordDialog basic destructor. ">
<polygon fill="none" stroke="#000000" points="447,-115 447,-145 590,-145 590,-115 447,-115"/>
<text text-anchor="start" x="455" y="-133" font-family="Helvetica,sans-Serif" font-size="10.00" fill="#000000">PasswordDialog::~Password</text>
<text text-anchor="middle" x="518.5" y="-122" font-family="Helvetica,sans-Serif" font-size="10.00" fill="#000000">Dialog</text>
</a>
</g>
</g>
<!-- Node78&#45;&gt;Node93 -->
<g id="edge23" class="edge">
<title>Node78&#45;&gt;Node93</title>
<path fill="none" stroke="#191970" d="M353.1411,-261.4062C368.8909,-234.2073 401.756,-183.698 443,-155 448.5536,-151.1358 454.7472,-147.8349 461.1324,-145.0233"/>
<polygon fill="#191970" stroke="#191970" points="349.9952,-259.8593 348.1291,-270.2886 356.0917,-263.2994 349.9952,-259.8593"/>
</g>
<!-- Node94 -->
<g id="node19" class="node">
<title>Node94</title>
<g id="a_node19"><a xlink:href="class_store_model.html#a17f8db58298e985732d92a2e0e76b821" target="_top" xlink:title="StoreModel::dropMimeData">
<polygon fill="none" stroke="#000000" points="450.5,-76.5 450.5,-95.5 586.5,-95.5 586.5,-76.5 450.5,-76.5"/>
<text text-anchor="middle" x="518.5" y="-83.5" font-family="Helvetica,sans-Serif" font-size="10.00" fill="#000000">StoreModel::dropMimeData</text>
</a>
</g>
</g>
<!-- Node78&#45;&gt;Node94 -->
<g id="edge25" class="edge">
<title>Node78&#45;&gt;Node94</title>
<path fill="none" stroke="#191970" d="M348.6481,-260.5146C360.1663,-224.3264 389.8754,-146.7274 443,-106 448.7035,-101.6275 455.2814,-98.2083 462.1273,-95.535"/>
<polygon fill="#191970" stroke="#191970" points="345.2242,-259.7431 345.6517,-270.3293 351.9192,-261.7871 345.2242,-259.7431"/>
</g>
<!-- Node95 -->
<g id="node20" class="node">
<title>Node95</title>
<g id="a_node20"><a xlink:href="class_users_dialog.html#a7a3d75a01a48609ce7571cec09b95f07" target="_top" xlink:title="UsersDialog::UsersDialog basic constructor. ">
<polygon fill="none" stroke="#000000" points="637.5,-19.5 637.5,-38.5 768.5,-38.5 768.5,-19.5 637.5,-19.5"/>
<text text-anchor="middle" x="703" y="-26.5" font-family="Helvetica,sans-Serif" font-size="10.00" fill="#000000">UsersDialog::UsersDialog</text>
</a>
</g>
</g>
<!-- Node78&#45;&gt;Node95 -->
<g id="edge26" class="edge">
<title>Node78&#45;&gt;Node95</title>
<path fill="none" stroke="#191970" d="M345.9336,-260.3581C353.4554,-217.4877 377.6551,-115.4992 443,-67 472.9462,-44.7739 570.6952,-35.4379 637.4245,-31.593"/>
<polygon fill="#191970" stroke="#191970" points="342.4587,-259.9207 344.2992,-270.3544 349.367,-261.0503 342.4587,-259.9207"/>
</g>
<!-- Node96 -->
<g id="node21" class="node">
<title>Node96</title>
<g id="a_node21"><a xlink:href="class_users_dialog.html#a70580643923a96208b6bbae18d4aa0f3" target="_top" xlink:title="UsersDialog::accept">
<polygon fill="none" stroke="#000000" points="465.5,-.5 465.5,-19.5 571.5,-19.5 571.5,-.5 465.5,-.5"/>
<text text-anchor="middle" x="518.5" y="-7.5" font-family="Helvetica,sans-Serif" font-size="10.00" fill="#000000">UsersDialog::accept</text>
</a>
</g>
</g>
<!-- Node78&#45;&gt;Node96 -->
<g id="edge27" class="edge">
<title>Node78&#45;&gt;Node96</title>
<path fill="none" stroke="#191970" d="M345.3131,-260.4385C351.8196,-214.2038 374.5143,-97.3214 443,-34 449.8672,-27.6506 458.4132,-22.981 467.2617,-19.5468"/>
<polygon fill="#191970" stroke="#191970" points="341.8413,-259.9956 344.0172,-270.3645 348.7824,-260.9018 341.8413,-259.9956"/>
</g>
<!-- Node81&#45;&gt;Node82 -->
<g id="edge6" class="edge">
<title>Node81&#45;&gt;Node82</title>
<path fill="none" stroke="#191970" d="M571.3602,-451.2533C599.4968,-445.0007 633.6527,-437.4105 660.1211,-431.5286"/>
<polygon fill="#191970" stroke="#191970" points="570.2943,-447.9047 561.2917,-453.4907 571.8129,-454.738 570.2943,-447.9047"/>
</g>
<!-- Node84 -->
<g id="node9" class="node">
<title>Node84</title>
<g id="a_node9"><a xlink:href="class_qt_pass.html#a70447af6f0e0540106a423a45dc27c99" target="_top" xlink:title="QtPass::~QtPass destroy! ">
<polygon fill="none" stroke="#000000" points="655.5,-451.5 655.5,-470.5 750.5,-470.5 750.5,-451.5 655.5,-451.5"/>
<text text-anchor="middle" x="703" y="-458.5" font-family="Helvetica,sans-Serif" font-size="10.00" fill="#000000">QtPass::~QtPass</text>
</a>
</g>
</g>
<!-- Node81&#45;&gt;Node84 -->
<g id="edge9" class="edge">
<title>Node81&#45;&gt;Node84</title>
<path fill="none" stroke="#191970" d="M581.5412,-462.3166C605.7533,-462.0542 632.9586,-461.7593 655.4745,-461.5152"/>
<polygon fill="#191970" stroke="#191970" points="581.3317,-458.8186 571.3703,-462.4269 581.4077,-465.8182 581.3317,-458.8186"/>
</g>
<!-- Node82&#45;&gt;Node83 -->
<g id="edge7" class="edge">
<title>Node82&#45;&gt;Node83</title>
<path fill="none" stroke="#191970" d="M755.7169,-410.2533C783.7773,-404.0007 817.8406,-396.4105 844.2373,-390.5286"/>
<polygon fill="#191970" stroke="#191970" points="754.6752,-406.8995 745.6758,-412.4907 756.1977,-413.7319 754.6752,-406.8995"/>
</g>
<!-- Node83&#45;&gt;Node80 -->
<g id="edge8" class="edge">
<title>Node83&#45;&gt;Node80</title>
<path fill="none" stroke="#191970" d="M925.1937,-368.1618C958.7405,-356.8855 1006.7885,-340.735 1037.0535,-330.5618"/>
<polygon fill="#191970" stroke="#191970" points="923.6475,-364.989 915.2839,-371.4928 925.8779,-371.6242 923.6475,-364.989"/>
</g>
<!-- Node85&#45;&gt;Node83 -->
<g id="edge12" class="edge">
<title>Node85&#45;&gt;Node83</title>
<path fill="none" stroke="#191970" d="M581.5442,-512.1391C646.5138,-522.391 742.8435,-533.8095 776,-518 833.4734,-490.5959 870.8299,-417.282 882.818,-390.7528"/>
<polygon fill="#191970" stroke="#191970" points="581.8295,-508.6401 571.4007,-510.5081 580.7182,-515.5513 581.8295,-508.6401"/>
</g>
<!-- Node86 -->
<g id="node11" class="node">
<title>Node86</title>
<g id="a_node11"><a xlink:href="class_main_window.html#ac7c881667b4ba4986b5a0030452ee3f0" target="_top" xlink:title="MainWindow::changeEvent sets focus to the search box. ">
<polygon fill="none" stroke="#000000" points="635,-489.5 635,-508.5 771,-508.5 771,-489.5 635,-489.5"/>
<text text-anchor="middle" x="703" y="-496.5" font-family="Helvetica,sans-Serif" font-size="10.00" fill="#000000">MainWindow::changeEvent</text>
</a>
</g>
</g>
<!-- Node85&#45;&gt;Node86 -->
<g id="edge11" class="edge">
<title>Node85&#45;&gt;Node86</title>
<path fill="none" stroke="#191970" d="M585.0489,-500.2786C601.2243,-500.1033 618.5453,-499.9155 634.7961,-499.7393"/>
<polygon fill="#191970" stroke="#191970" points="584.569,-496.7835 574.6075,-500.3918 584.6449,-503.7831 584.569,-496.7835"/>
</g>
<!-- Node87&#45;&gt;Node82 -->
<g id="edge14" class="edge">
<title>Node87&#45;&gt;Node82</title>
<path fill="none" stroke="#191970" d="M594.8869,-397.9749C617.1396,-402.9199 640.662,-408.1471 660.063,-412.4584"/>
<polygon fill="#191970" stroke="#191970" points="595.6299,-394.5547 585.1087,-395.8019 594.1113,-401.388 595.6299,-394.5547"/>
</g>
<!-- Node87&#45;&gt;Node83 -->
<g id="edge16" class="edge">
<title>Node87&#45;&gt;Node83</title>
<path fill="none" stroke="#191970" d="M595.4514,-381C663.3962,-381 761.2198,-381 824.4499,-381"/>
<polygon fill="#191970" stroke="#191970" points="595.2326,-377.5001 585.2326,-381 595.2325,-384.5001 595.2326,-377.5001"/>
</g>
<!-- Node87&#45;&gt;Node88 -->
<g id="edge15" class="edge">
<title>Node87&#45;&gt;Node88</title>
<path fill="none" stroke="#191970" d="M594.8869,-364.0251C617.1396,-359.0801 640.662,-353.8529 660.063,-349.5416"/>
<polygon fill="#191970" stroke="#191970" points="594.1113,-360.612 585.1087,-366.1981 595.6299,-367.4453 594.1113,-360.612"/>
</g>
<!-- Node90 -->
<g id="node15" class="node">
<title>Node90</title>
<g id="a_node15"><a xlink:href="class_config_dialog.html#a428d1f1b69aaaf09343e3d8db42ed138" target="_top" xlink:title="ConfigDialog::genKey tunnel function to make MainWindow generate a gpg key pair. ">
<polygon fill="none" stroke="#000000" points="647,-213.5 647,-232.5 759,-232.5 759,-213.5 647,-213.5"/>
<text text-anchor="middle" x="703" y="-220.5" font-family="Helvetica,sans-Serif" font-size="10.00" fill="#000000">ConfigDialog::genKey</text>
</a>
</g>
</g>
<!-- Node89&#45;&gt;Node90 -->
<g id="edge19" class="edge">
<title>Node89&#45;&gt;Node90</title>
<path fill="none" stroke="#191970" d="M604.4725,-223C618.8278,-223 633.3868,-223 646.7503,-223"/>
<polygon fill="#191970" stroke="#191970" points="604.0756,-219.5001 594.0756,-223 604.0755,-226.5001 604.0756,-219.5001"/>
</g>
<!-- Node91 -->
<g id="node16" class="node">
<title>Node91</title>
<g id="a_node16"><a xlink:href="class_keygen_dialog.html#a90b3a3db49016043ba160a50c5272643" target="_top" xlink:title="KeygenDialog::~KeygenDialog even more basic destructor. ">
<polygon fill="none" stroke="#000000" points="812,-213.5 812,-232.5 962,-232.5 962,-213.5 812,-213.5"/>
<text text-anchor="middle" x="887" y="-220.5" font-family="Helvetica,sans-Serif" font-size="10.00" fill="#000000">KeygenDialog::~KeygenDialog</text>
</a>
</g>
</g>
<!-- Node90&#45;&gt;Node91 -->
<g id="edge20" class="edge">
<title>Node90&#45;&gt;Node91</title>
<path fill="none" stroke="#191970" d="M769.5223,-223C783.2519,-223 797.8033,-223 811.816,-223"/>
<polygon fill="#191970" stroke="#191970" points="769.2059,-219.5001 759.2059,-223 769.2058,-226.5001 769.2059,-219.5001"/>
</g>
<!-- Node96&#45;&gt;Node95 -->
<g id="edge28" class="edge">
<title>Node96&#45;&gt;Node95</title>
<path fill="none" stroke="#191970" d="M582.1508,-16.5548C599.9695,-18.3898 619.3679,-20.3875 637.3027,-22.2344"/>
<polygon fill="#191970" stroke="#191970" points="582.171,-13.0385 571.865,-15.4956 581.4539,-20.0017 582.171,-13.0385"/>
</g>
</g>
</svg>
        <g id="navigator" transform="translate(0 0)" fill="#404254">
                <rect fill="#f2f5e9" fill-opacity="0.5" stroke="#606060" stroke-width=".5" x="0" y="0" width="60" height="60"/>
                <use id="zoomplus" xlink:href="#zoomPlus" x="17" y="9" onmousedown="handleZoom(evt,'in')"/>
                <use id="zoomminus" xlink:href="#zoomMin" x="42" y="9" onmousedown="handleZoom(evt,'out')"/>
                <use id="reset" xlink:href="#resetDef" x="30" y="36" onmousedown="handleReset()"/>
                <g id="arrowUp" xlink:href="#dirArrow" transform="translate(30 24)" onmousedown="handlePan(0,-1)">
                  <use xlink:href="#rim" fill="#404040">
                        <set attributeName="fill" to="#808080" begin="arrowUp.mouseover" end="arrowUp.mouseout"/>
                  </use>
                  <path fill="none" stroke="white" stroke-width="1.5" d="M0,-3.0v7 M-2.5,-0.5L0,-3.0L2.5,-0.5"/>
                </g>
                <g id="arrowRight" xlink:href="#dirArrow" transform="rotate(90) translate(36 -43)" onmousedown="handlePan(1,0)">
                  <use xlink:href="#rim" fill="#404040">
                        <set attributeName="fill" to="#808080" begin="arrowRight.mouseover" end="arrowRight.mouseout"/>
                  </use>
                  <path fill="none" stroke="white" stroke-width="1.5" d="M0,-3.0v7 M-2.5,-0.5L0,-3.0L2.5,-0.5"/>
                </g>
                <g id="arrowDown" xlink:href="#dirArrow" transform="rotate(180) translate(-30 -48)" onmousedown="handlePan(0,1)">
                  <use xlink:href="#rim" fill="#404040">
                        <set attributeName="fill" to="#808080" begin="arrowDown.mouseover" end="arrowDown.mouseout"/>
                  </use>
                  <path fill="none" stroke="white" stroke-width="1.5" d="M0,-3.0v7 M-2.5,-0.5L0,-3.0L2.5,-0.5"/>
                </g>
                <g id="arrowLeft" xlink:href="#dirArrow" transform="rotate(270) translate(-36 17)" onmousedown="handlePan(-1,0)">
                  <use xlink:href="#rim" fill="#404040">
                        <set attributeName="fill" to="#808080" begin="arrowLeft.mouseover" end="arrowLeft.mouseout"/>
                  </use>
                  <path fill="none" stroke="white" stroke-width="1.5" d="M0,-3.0v7 M-2.5,-0.5L0,-3.0L2.5,-0.5"/>
                </g>
        </g>
        <svg viewBox="0 0 15 15" width="100%" height="30px" preserveAspectRatio="xMaxYMin meet">
         <g id="arrow_out" transform="scale(0.3 0.3)">
          <a xlink:href="class_qt_pass_settings_ae3f04477e57019e329ed9944806ec1da_icgraph_org.svg" target="_base">
           <rect id="button" ry="5" rx="5" y="6" x="6" height="38" width="38"
                fill="#f2f5e9" fill-opacity="0.5" stroke="#606060" stroke-width="1.0"/>
           <path id="arrow"
             d="M 11.500037,31.436501 C 11.940474,20.09759 22.043105,11.32322 32.158766,21.979434 L 37.068811,17.246167 C 37.068811,17.246167 37.088388,32 37.088388,32 L 22.160133,31.978069 C 22.160133,31.978069 26.997745,27.140456 26.997745,27.140456 C 18.528582,18.264221 13.291696,25.230495 11.500037,31.436501 z"
             style="fill:#404040;"/>
          </a>
         </g>
        </svg>
</svg>
