<?xml version="1.0" encoding="UTF-8" standalone="no"?>
<!DOCTYPE svg PUBLIC "-//W3C//DTD SVG 1.1//EN"
 "http://www.w3.org/Graphics/SVG/1.1/DTD/svg11.dtd">
<!-- Generated by graphviz version 2.40.1 (20161225.0304)
 -->
<!-- Title: UsersDialog::setUsers Pages: 1 -->
<svg width="430pt" height="27pt"
 viewBox="0.00 0.00 429.78 27.00" xmlns="http://www.w3.org/2000/svg" xmlns:xlink="http://www.w3.org/1999/xlink">
<g id="graph0" class="graph" transform="scale(1 1) rotate(0) translate(4 23)">
<title>UsersDialog::setUsers</title>
<!-- Node11 -->
<g id="node1" class="node">
<title>Node11</title>
<polygon fill="#bfbfbf" stroke="#000000" points="0,-.5 0,-18.5 115.4727,-18.5 115.4727,-.5 0,-.5"/>
<text text-anchor="middle" x="57.7363" y="-6.5" font-family="Helvetica,sans-Serif" font-size="10.00" fill="#000000">UsersDialog::setUsers</text>
</g>
<!-- Node12 -->
<g id="node2" class="node">
<title>Node12</title>
<g id="a_node2"><a xlink:href="class_main_window.html#add7481e9707f309caba6b5d3a8c1ddc9" target="_top" xlink:title="MainWindow::userDialog see MainWindow::on_usersButton_clicked() ">
<polygon fill="none" stroke="#000000" points="151.4727,-.5 151.4727,-18.5 278.0732,-18.5 278.0732,-.5 151.4727,-.5"/>
<text text-anchor="middle" x="214.7729" y="-6.5" font-family="Helvetica,sans-Serif" font-size="10.00" fill="#000000">MainWindow::userDialog</text>
</a>
</g>
</g>
<!-- Node11&#45;&gt;Node12 -->
<g id="edge1" class="edge">
<title>Node11&#45;&gt;Node12</title>
<path fill="none" stroke="#191970" d="M125.9762,-9.5C134.4356,-9.5 143.0571,-9.5 151.4385,-9.5"/>
<polygon fill="#191970" stroke="#191970" points="125.7648,-6.0001 115.7648,-9.5 125.7648,-13.0001 125.7648,-6.0001"/>
</g>
<!-- Node13 -->
<g id="node3" class="node">
<title>Node13</title>
<g id="a_node3"><a xlink:href="class_config_dialog.html#ad5b80066591f19fdaaa06b7cb5ba7f15" target="_top" xlink:title="ConfigDialog::wizard first&#45;time use wizard. ">
<polygon fill="none" stroke="#000000" points="314.0732,-.5 314.0732,-18.5 421.7822,-18.5 421.7822,-.5 314.0732,-.5"/>
<text text-anchor="middle" x="367.9277" y="-6.5" font-family="Helvetica,sans-Serif" font-size="10.00" fill="#000000">ConfigDialog::wizard</text>
</a>
</g>
</g>
<!-- Node12&#45;&gt;Node13 -->
<g id="edge2" class="edge">
<title>Node12&#45;&gt;Node13</title>
<path fill="none" stroke="#191970" d="M288.4542,-9.5C297.0655,-9.5 305.7257,-9.5 313.9984,-9.5"/>
<polygon fill="#191970" stroke="#191970" points="288.3939,-6.0001 278.3938,-9.5 288.3938,-13.0001 288.3939,-6.0001"/>
</g>
</g>
</svg>
