<?xml version="1.0" encoding="UTF-8" standalone="no"?>
<!DOCTYPE svg PUBLIC "-//W3C//DTD SVG 1.1//EN"
 "http://www.w3.org/Graphics/SVG/1.1/DTD/svg11.dtd">
<!-- Generated by graphviz version 2.43.0 (0)
 -->
<!-- Title: QtPassSettings::getPass Pages: 1 -->
<svg width="691pt" height="139pt"
 viewBox="0.00 0.00 691.37 139.00" xmlns="http://www.w3.org/2000/svg" xmlns:xlink="http://www.w3.org/1999/xlink">
<g id="graph0" class="graph" transform="scale(1 1) rotate(0) translate(4 135)">
<title>QtPassSettings::getPass</title>
<!-- Node1 -->
<g id="node1" class="node">
<title>Node1</title>
<g id="a_node1"><a xlink:title=" ">
<polygon fill="#bfbfbf" stroke="black" points="0,-56.5 0,-74.5 126.61,-74.5 126.61,-56.5 0,-56.5"/>
<text text-anchor="middle" x="63.31" y="-62.5" font-family="Helvetica,sans-Serif" font-size="10.00">QtPassSettings::getPass</text>
</a>
</g>
</g>
<!-- Node2 -->
<g id="node2" class="node">
<title>Node2</title>
<g id="a_node2"><a xlink:href="class_qt_pass_settings.html#a2d6c10abe565eaadb5a222501adfe31f" target="_top" xlink:title=" ">
<polygon fill="none" stroke="black" points="162.61,-112.5 162.61,-130.5 319.23,-130.5 319.23,-112.5 162.61,-112.5"/>
<text text-anchor="middle" x="240.92" y="-118.5" font-family="Helvetica,sans-Serif" font-size="10.00">QtPassSettings::getImitatePass</text>
</a>
</g>
</g>
<!-- Node1&#45;&gt;Node2 -->
<g id="edge1" class="edge">
<title>Node1&#45;&gt;Node2</title>
<path fill="none" stroke="midnightblue" d="M85.1,-74.52C104.79,-82.82 135.33,-95.1 162.61,-103.5 170.29,-105.86 178.48,-108.09 186.55,-110.11"/>
<polygon fill="midnightblue" stroke="midnightblue" points="185.75,-113.51 196.29,-112.47 187.4,-106.71 185.75,-113.51"/>
</g>
<!-- Node3 -->
<g id="node3" class="node">
<title>Node3</title>
<g id="a_node3"><a xlink:href="class_qt_pass_settings.html#aaaeff5fa2e3a6b1f815b9a8247339b3a" target="_top" xlink:title=" ">
<polygon fill="none" stroke="black" points="167.33,-75.5 167.33,-93.5 314.51,-93.5 314.51,-75.5 167.33,-75.5"/>
<text text-anchor="middle" x="240.92" y="-81.5" font-family="Helvetica,sans-Serif" font-size="10.00">QtPassSettings::getRealPass</text>
</a>
</g>
</g>
<!-- Node1&#45;&gt;Node3 -->
<g id="edge2" class="edge">
<title>Node1&#45;&gt;Node3</title>
<path fill="none" stroke="midnightblue" d="M126.72,-72.25C136.55,-73.32 146.85,-74.43 157.06,-75.54"/>
<polygon fill="midnightblue" stroke="midnightblue" points="156.9,-79.04 167.22,-76.63 157.65,-72.08 156.9,-79.04"/>
</g>
<!-- Node4 -->
<g id="node4" class="node">
<title>Node4</title>
<g id="a_node4"><a xlink:href="class_pass.html#a012c47a55b3cc3467ad0f013716f623a" target="_top" xlink:title=" ">
<polygon fill="none" stroke="black" points="212.63,-38.5 212.63,-56.5 269.21,-56.5 269.21,-38.5 212.63,-38.5"/>
<text text-anchor="middle" x="240.92" y="-44.5" font-family="Helvetica,sans-Serif" font-size="10.00">Pass::init</text>
</a>
</g>
</g>
<!-- Node1&#45;&gt;Node4 -->
<g id="edge3" class="edge">
<title>Node1&#45;&gt;Node4</title>
<path fill="none" stroke="midnightblue" d="M126.72,-59.1C152.08,-56.5 180.53,-53.59 202.57,-51.33"/>
<polygon fill="midnightblue" stroke="midnightblue" points="202.93,-54.81 212.52,-50.31 202.21,-47.85 202.93,-54.81"/>
</g>
<!-- Node7 -->
<g id="node7" class="node">
<title>Node7</title>
<g id="a_node7"><a xlink:href="class_qt_pass_settings.html#a30ef36260f73f9f18d338f2b18a1f493" target="_top" xlink:title=" ">
<polygon fill="none" stroke="black" points="361.35,-0.5 361.35,-18.5 499.06,-18.5 499.06,-0.5 361.35,-0.5"/>
<text text-anchor="middle" x="430.21" y="-6.5" font-family="Helvetica,sans-Serif" font-size="10.00">QtPassSettings::isUsePass</text>
</a>
</g>
</g>
<!-- Node1&#45;&gt;Node7 -->
<g id="edge6" class="edge">
<title>Node1&#45;&gt;Node7</title>
<path fill="none" stroke="midnightblue" d="M83.39,-56.43C102.83,-47.63 134.11,-34.74 162.61,-28.5 225.1,-14.82 297.6,-10.36 351.21,-9.16"/>
<polygon fill="midnightblue" stroke="midnightblue" points="351.4,-12.66 361.33,-8.97 351.27,-5.66 351.4,-12.66"/>
</g>
<!-- Node5 -->
<g id="node5" class="node">
<title>Node5</title>
<g id="a_node5"><a xlink:href="class_qt_pass_settings.html#ae3f04477e57019e329ed9944806ec1da" target="_top" xlink:title=" ">
<polygon fill="none" stroke="black" points="355.23,-37.5 355.23,-55.5 505.19,-55.5 505.19,-37.5 355.23,-37.5"/>
<text text-anchor="middle" x="430.21" y="-43.5" font-family="Helvetica,sans-Serif" font-size="10.00">QtPassSettings::getGpgHome</text>
</a>
</g>
</g>
<!-- Node4&#45;&gt;Node5 -->
<g id="edge4" class="edge">
<title>Node4&#45;&gt;Node5</title>
<path fill="none" stroke="midnightblue" d="M269.56,-47.35C289.5,-47.25 317.56,-47.1 344.61,-46.95"/>
<polygon fill="midnightblue" stroke="midnightblue" points="344.92,-50.45 354.91,-46.9 344.89,-43.45 344.92,-50.45"/>
</g>
<!-- Node6 -->
<g id="node6" class="node">
<title>Node6</title>
<g id="a_node6"><a xlink:href="class_qt_pass_settings.html#ab83659fdbfb9069942e6982076b4b934" target="_top" xlink:title=" ">
<polygon fill="none" stroke="black" points="541.19,-18.5 541.19,-36.5 683.37,-36.5 683.37,-18.5 541.19,-18.5"/>
<text text-anchor="middle" x="612.28" y="-24.5" font-family="Helvetica,sans-Serif" font-size="10.00">QtPassSettings::getInstance</text>
</a>
</g>
</g>
<!-- Node5&#45;&gt;Node6 -->
<g id="edge5" class="edge">
<title>Node5&#45;&gt;Node6</title>
<path fill="none" stroke="midnightblue" d="M505.23,-38.69C513.73,-37.79 522.44,-36.87 531.02,-35.97"/>
<polygon fill="midnightblue" stroke="midnightblue" points="531.44,-39.44 541.02,-34.91 530.71,-32.48 531.44,-39.44"/>
</g>
<!-- Node7&#45;&gt;Node6 -->
<g id="edge7" class="edge">
<title>Node7&#45;&gt;Node6</title>
<path fill="none" stroke="midnightblue" d="M499.28,-16.31C509.62,-17.34 520.38,-18.41 530.95,-19.47"/>
<polygon fill="midnightblue" stroke="midnightblue" points="530.71,-22.96 541.01,-20.48 531.4,-16 530.71,-22.96"/>
</g>
</g>
</svg>
