<?xml version="1.0" encoding="UTF-8" standalone="no"?>
<!DOCTYPE svg PUBLIC "-//W3C//DTD SVG 1.1//EN"
 "http://www.w3.org/Graphics/SVG/1.1/DTD/svg11.dtd">
<!-- Generated by graphviz version 2.43.0 (0)
 -->
<!-- Title: ImitatePass::reencryptPath Pages: 1 -->
<svg width="295pt" height="64pt"
 viewBox="0.00 0.00 295.00 64.00" xmlns="http://www.w3.org/2000/svg" xmlns:xlink="http://www.w3.org/1999/xlink">
<g id="graph0" class="graph" transform="scale(1 1) rotate(0) translate(4 60)">
<title>ImitatePass::reencryptPath</title>
<!-- Node1 -->
<g id="Node000001" class="node">
<title>Node1</title>
<g id="a_Node000001"><a xlink:title="ImitatePass::reencryptPath reencrypt all files under the chosen directory.">
<polygon fill="#999999" stroke="#666666" points="287,-37 140,-37 140,-18 287,-18 287,-37"/>
<text text-anchor="middle" x="213.5" y="-25" font-family="Helvetica,sans-Serif" font-size="10.00">ImitatePass::reencryptPath</text>
</a>
</g>
</g>
<!-- Node2 -->
<g id="Node000002" class="node">
<title>Node2</title>
<g id="a_Node000002"><a xlink:href="class_imitate_pass.html#a6db1849662fe03e61f9410fce080890d" target="_top" xlink:title=" ">
<polygon fill="white" stroke="#666666" points="104,-56 0,-56 0,-37 104,-37 104,-56"/>
<text text-anchor="middle" x="52" y="-44" font-family="Helvetica,sans-Serif" font-size="10.00">ImitatePass::Copy</text>
</a>
</g>
</g>
<!-- Node1&#45;&gt;Node2 -->
<g id="edge1_Node000001_Node000002" class="edge">
<title>Node1&#45;&gt;Node2</title>
<g id="a_edge1_Node000001_Node000002"><a xlink:title=" ">
<path fill="none" stroke="#63b8ff" d="M129.6,-37.37C120.96,-38.4 112.36,-39.43 104.22,-40.4"/>
<polygon fill="#63b8ff" stroke="#63b8ff" points="130.24,-40.82 139.75,-36.17 129.41,-33.87 130.24,-40.82"/>
</a>
</g>
</g>
<!-- Node3 -->
<g id="Node000003" class="node">
<title>Node3</title>
<g id="a_Node000003"><a xlink:href="class_imitate_pass.html#ada992297c21ae7069b91c9ae48f87ee9" target="_top" xlink:title="ImitatePass::Init initialize pass repository.">
<polygon fill="white" stroke="#666666" points="99.5,-19 4.5,-19 4.5,0 99.5,0 99.5,-19"/>
<text text-anchor="middle" x="52" y="-7" font-family="Helvetica,sans-Serif" font-size="10.00">ImitatePass::Init</text>
</a>
</g>
</g>
<!-- Node1&#45;&gt;Node3 -->
<g id="edge2_Node000001_Node000003" class="edge">
<title>Node1&#45;&gt;Node3</title>
<g id="a_edge2_Node000001_Node000003"><a xlink:title=" ">
<path fill="none" stroke="#63b8ff" d="M129.5,-18.13C119.24,-16.98 109.05,-15.83 99.62,-14.76"/>
<polygon fill="#63b8ff" stroke="#63b8ff" points="129.42,-21.65 139.75,-19.29 130.21,-14.69 129.42,-21.65"/>
</a>
</g>
</g>
</g>
</svg>
