<?xml version="1.0" encoding="UTF-8" standalone="no"?>
<!DOCTYPE svg PUBLIC "-//W3C//DTD SVG 1.1//EN"
 "http://www.w3.org/Graphics/SVG/1.1/DTD/svg11.dtd">
<!-- Generated by graphviz version 2.38.0 (20140413.2041)
 -->
<!-- Title: Pass::executePass Pages: 1 -->
<svg width="396pt" height="360pt"
 viewBox="0.00 0.00 395.63 360.00" xmlns="http://www.w3.org/2000/svg" xmlns:xlink="http://www.w3.org/1999/xlink">
<g id="graph0" class="graph" transform="scale(1 1) rotate(0) translate(4 356)">
<title>Pass::executePass</title>
<!-- Node78 -->
<g id="node1" class="node"><title>Node78</title>
<polygon fill="#bfbfbf" stroke="black" points="0,-166.5 0,-184.5 101.044,-184.5 101.044,-166.5 0,-166.5"/>
<text text-anchor="middle" x="50.522" y="-172.5" font-family="Helvetica,sans-Serif" font-size="10.00">Pass::executePass</text>
</g>
<!-- Node79 -->
<g id="node2" class="node"><title>Node79</title>
<g id="a_node2"><a xlink:href="class_pass.html#a8dfa731be7ac962f9f6a5cf8f29097ec" target="_top" xlink:title="Pass::~Pass">
<polygon fill="none" stroke="black" points="151.91,-333.5 151.91,-351.5 223.769,-351.5 223.769,-333.5 151.91,-333.5"/>
<text text-anchor="middle" x="187.839" y="-339.5" font-family="Helvetica,sans-Serif" font-size="10.00">Pass::~Pass</text>
</a>
</g>
</g>
<!-- Node78&#45;&gt;Node79 -->
<g id="edge1" class="edge"><title>Node78&#45;&gt;Node79</title>
<path fill="none" stroke="midnightblue" d="M57.5086,-194.345C68.3938,-225.695 94.3335,-288.65 137.044,-324.5 141.409,-328.164 146.581,-331.109 151.912,-333.469"/>
<polygon fill="midnightblue" stroke="midnightblue" points="60.7664,-193.05 54.2834,-184.67 54.1257,-195.264 60.7664,-193.05"/>
</g>
<!-- Node80 -->
<g id="node3" class="node"><title>Node80</title>
<g id="a_node3"><a xlink:href="class_real_pass.html#a4ba4679cb9b658a9c86ddace8c163e19" target="_top" xlink:title="RealPass::GitInit pass git init wrapper. ">
<polygon fill="none" stroke="black" points="142.603,-296.5 142.603,-314.5 233.076,-314.5 233.076,-296.5 142.603,-296.5"/>
<text text-anchor="middle" x="187.839" y="-302.5" font-family="Helvetica,sans-Serif" font-size="10.00">RealPass::GitInit</text>
</a>
</g>
</g>
<!-- Node78&#45;&gt;Node80 -->
<g id="edge2" class="edge"><title>Node78&#45;&gt;Node80</title>
<path fill="none" stroke="midnightblue" d="M61.0309,-193.74C74.7146,-218.322 102.191,-261.941 137.044,-287.5 141.936,-291.088 147.616,-294.022 153.352,-296.401"/>
<polygon fill="midnightblue" stroke="midnightblue" points="64.0114,-191.894 56.1772,-184.761 57.8534,-195.222 64.0114,-191.894"/>
</g>
<!-- Node82 -->
<g id="node5" class="node"><title>Node82</title>
<g id="a_node5"><a xlink:href="class_real_pass.html#a35b82aa0ba97bc63fa1cfc943017c4ff" target="_top" xlink:title="RealPass::GitPull pass git pull wrapper. ">
<polygon fill="none" stroke="black" points="140.936,-259.5 140.936,-277.5 234.743,-277.5 234.743,-259.5 140.936,-259.5"/>
<text text-anchor="middle" x="187.839" y="-265.5" font-family="Helvetica,sans-Serif" font-size="10.00">RealPass::GitPull</text>
</a>
</g>
</g>
<!-- Node78&#45;&gt;Node82 -->
<g id="edge4" class="edge"><title>Node78&#45;&gt;Node82</title>
<path fill="none" stroke="midnightblue" d="M66.6339,-191.966C82.7116,-208.659 109.571,-234.277 137.044,-250.5 142.981,-254.006 149.713,-257.002 156.265,-259.487"/>
<polygon fill="midnightblue" stroke="midnightblue" points="69.0611,-189.438 59.6519,-184.568 63.9704,-194.243 69.0611,-189.438"/>
</g>
<!-- Node83 -->
<g id="node6" class="node"><title>Node83</title>
<g id="a_node6"><a xlink:href="class_real_pass.html#a421925bff36bed1ad1ab91e4bddd9f47" target="_top" xlink:title="RealPass::GitPush pass git push wrapper. ">
<polygon fill="none" stroke="black" points="137.876,-222.5 137.876,-240.5 237.802,-240.5 237.802,-222.5 137.876,-222.5"/>
<text text-anchor="middle" x="187.839" y="-228.5" font-family="Helvetica,sans-Serif" font-size="10.00">RealPass::GitPush</text>
</a>
</g>
</g>
<!-- Node78&#45;&gt;Node83 -->
<g id="edge6" class="edge"><title>Node78&#45;&gt;Node83</title>
<path fill="none" stroke="midnightblue" d="M80.1773,-188.845C96.6829,-196.377 117.892,-205.795 137.044,-213.5 144.634,-216.554 152.965,-219.66 160.605,-222.412"/>
<polygon fill="midnightblue" stroke="midnightblue" points="81.6019,-185.648 71.0536,-184.655 78.6806,-192.009 81.6019,-185.648"/>
</g>
<!-- Node84 -->
<g id="node7" class="node"><title>Node84</title>
<g id="a_node7"><a xlink:href="class_real_pass.html#ae4d0e5e8d0735e6ab4d6f6d64b35e96a" target="_top" xlink:title="RealPass::Show pass show. ">
<polygon fill="none" stroke="black" points="143.155,-185.5 143.155,-203.5 232.524,-203.5 232.524,-185.5 143.155,-185.5"/>
<text text-anchor="middle" x="187.839" y="-191.5" font-family="Helvetica,sans-Serif" font-size="10.00">RealPass::Show</text>
</a>
</g>
</g>
<!-- Node78&#45;&gt;Node84 -->
<g id="edge8" class="edge"><title>Node78&#45;&gt;Node84</title>
<path fill="none" stroke="midnightblue" d="M111.268,-183.889C121.952,-185.389 132.904,-186.927 143.037,-188.35"/>
<polygon fill="midnightblue" stroke="midnightblue" points="111.53,-180.392 101.141,-182.467 110.557,-187.324 111.53,-180.392"/>
</g>
<!-- Node85 -->
<g id="node8" class="node"><title>Node85</title>
<g id="a_node8"><a xlink:href="class_real_pass.html#a52ccc6435168c4e4e8ac409947901794" target="_top" xlink:title="RealPass::Insert pass insert. ">
<polygon fill="none" stroke="black" points="143.157,-148.5 143.157,-166.5 232.521,-166.5 232.521,-148.5 143.157,-148.5"/>
<text text-anchor="middle" x="187.839" y="-154.5" font-family="Helvetica,sans-Serif" font-size="10.00">RealPass::Insert</text>
</a>
</g>
</g>
<!-- Node78&#45;&gt;Node85 -->
<g id="edge10" class="edge"><title>Node78&#45;&gt;Node85</title>
<path fill="none" stroke="midnightblue" d="M111.268,-167.553C121.952,-166.131 132.904,-164.674 143.037,-163.327"/>
<polygon fill="midnightblue" stroke="midnightblue" points="110.592,-164.112 101.141,-168.9 111.515,-171.05 110.592,-164.112"/>
</g>
<!-- Node86 -->
<g id="node9" class="node"><title>Node86</title>
<g id="a_node9"><a xlink:href="class_real_pass.html#a729ac9806e1020ac3130a0dc1285ba54" target="_top" xlink:title="RealPass::Remove pass remove wrapper. ">
<polygon fill="none" stroke="black" points="137.044,-111.5 137.044,-129.5 238.635,-129.5 238.635,-111.5 137.044,-111.5"/>
<text text-anchor="middle" x="187.839" y="-117.5" font-family="Helvetica,sans-Serif" font-size="10.00">RealPass::Remove</text>
</a>
</g>
</g>
<!-- Node78&#45;&gt;Node86 -->
<g id="edge12" class="edge"><title>Node78&#45;&gt;Node86</title>
<path fill="none" stroke="midnightblue" d="M82.07,-162.345C98.3381,-155.414 118.719,-146.85 137.044,-139.5 145.374,-136.159 154.541,-132.622 162.714,-129.517"/>
<polygon fill="midnightblue" stroke="midnightblue" points="80.3471,-159.275 72.5274,-166.424 83.0983,-165.712 80.3471,-159.275"/>
</g>
<!-- Node87 -->
<g id="node10" class="node"><title>Node87</title>
<g id="a_node10"><a xlink:href="class_real_pass.html#a47936070f0eea9415a926ac24563d9ab" target="_top" xlink:title="RealPass::Init initialize pass repository. ">
<polygon fill="none" stroke="black" points="148.992,-74.5 148.992,-92.5 226.687,-92.5 226.687,-74.5 148.992,-74.5"/>
<text text-anchor="middle" x="187.839" y="-80.5" font-family="Helvetica,sans-Serif" font-size="10.00">RealPass::Init</text>
</a>
</g>
</g>
<!-- Node78&#45;&gt;Node87 -->
<g id="edge14" class="edge"><title>Node78&#45;&gt;Node87</title>
<path fill="none" stroke="midnightblue" d="M67.2974,-159.079C83.5435,-142.922 110.209,-118.423 137.044,-102.5 143.569,-98.6281 151.023,-95.2872 158.141,-92.5344"/>
<polygon fill="midnightblue" stroke="midnightblue" points="64.7371,-156.691 60.204,-166.267 69.7194,-161.608 64.7371,-156.691"/>
</g>
<!-- Node88 -->
<g id="node11" class="node"><title>Node88</title>
<g id="a_node11"><a xlink:href="class_real_pass.html#acf73b18b7978ac27bf09c894bcaa613a" target="_top" xlink:title="RealPass::Move">
<polygon fill="none" stroke="black" points="143.436,-37.5 143.436,-55.5 232.243,-55.5 232.243,-37.5 143.436,-37.5"/>
<text text-anchor="middle" x="187.839" y="-43.5" font-family="Helvetica,sans-Serif" font-size="10.00">RealPass::Move</text>
</a>
</g>
</g>
<!-- Node78&#45;&gt;Node88 -->
<g id="edge16" class="edge"><title>Node78&#45;&gt;Node88</title>
<path fill="none" stroke="midnightblue" d="M61.1764,-157.679C75.0277,-133.643 102.697,-90.9254 137.044,-65.5 142.473,-61.4812 148.855,-58.2094 155.205,-55.5853"/>
<polygon fill="midnightblue" stroke="midnightblue" points="58.0932,-156.021 56.2568,-166.455 64.1994,-159.444 58.0932,-156.021"/>
</g>
<!-- Node89 -->
<g id="node12" class="node"><title>Node89</title>
<g id="a_node12"><a xlink:href="class_real_pass.html#a99acdfdd6d4969d68c541b6953d8dcd2" target="_top" xlink:title="RealPass::Copy">
<polygon fill="none" stroke="black" points="143.99,-0.5 143.99,-18.5 231.689,-18.5 231.689,-0.5 143.99,-0.5"/>
<text text-anchor="middle" x="187.839" y="-6.5" font-family="Helvetica,sans-Serif" font-size="10.00">RealPass::Copy</text>
</a>
</g>
</g>
<!-- Node78&#45;&gt;Node89 -->
<g id="edge18" class="edge"><title>Node78&#45;&gt;Node89</title>
<path fill="none" stroke="midnightblue" d="M57.6484,-156.989C68.7393,-126.178 94.974,-64.2378 137.044,-28.5 141.839,-24.4264 147.601,-21.1763 153.476,-18.5997"/>
<polygon fill="midnightblue" stroke="midnightblue" points="54.3215,-155.9 54.3558,-166.495 60.936,-158.191 54.3215,-155.9"/>
</g>
<!-- Node81 -->
<g id="node4" class="node"><title>Node81</title>
<g id="a_node4"><a xlink:href="class_real_pass.html#a8f345a8f31ebc772f889896af3c6f7cb" target="_top" xlink:title="RealPass::~RealPass">
<polygon fill="none" stroke="black" points="274.635,-148.5 274.635,-166.5 387.627,-166.5 387.627,-148.5 274.635,-148.5"/>
<text text-anchor="middle" x="331.131" y="-154.5" font-family="Helvetica,sans-Serif" font-size="10.00">RealPass::~RealPass</text>
</a>
</g>
</g>
<!-- Node80&#45;&gt;Node81 -->
<g id="edge3" class="edge"><title>Node80&#45;&gt;Node81</title>
<path fill="none" stroke="midnightblue" d="M232.003,-291.878C234.327,-290.543 236.557,-289.087 238.635,-287.5 283.6,-253.161 315.223,-190.456 326.038,-166.834"/>
<polygon fill="midnightblue" stroke="midnightblue" points="230.135,-288.896 222.704,-296.448 233.222,-295.178 230.135,-288.896"/>
</g>
<!-- Node82&#45;&gt;Node81 -->
<g id="edge5" class="edge"><title>Node82&#45;&gt;Node81</title>
<path fill="none" stroke="midnightblue" d="M229.914,-255.363C232.945,-253.881 235.888,-252.262 238.635,-250.5 275.814,-226.658 309.441,-185.178 323.355,-166.764"/>
<polygon fill="midnightblue" stroke="midnightblue" points="228.424,-252.195 220.661,-259.405 231.226,-258.609 228.424,-252.195"/>
</g>
<!-- Node83&#45;&gt;Node81 -->
<g id="edge7" class="edge"><title>Node83&#45;&gt;Node81</title>
<path fill="none" stroke="midnightblue" d="M226.513,-218.806C230.653,-217.139 234.767,-215.359 238.635,-213.5 268.009,-199.381 299.98,-178.397 317.27,-166.531"/>
<polygon fill="midnightblue" stroke="midnightblue" points="224.996,-215.639 216.904,-222.478 227.495,-222.178 224.996,-215.639"/>
</g>
<!-- Node84&#45;&gt;Node81 -->
<g id="edge9" class="edge"><title>Node84&#45;&gt;Node81</title>
<path fill="none" stroke="midnightblue" d="M233.255,-182.869C253.323,-177.614 276.682,-171.497 295.434,-166.586"/>
<polygon fill="midnightblue" stroke="midnightblue" points="232.19,-179.53 223.403,-185.449 233.964,-186.301 232.19,-179.53"/>
</g>
<!-- Node85&#45;&gt;Node81 -->
<g id="edge11" class="edge"><title>Node85&#45;&gt;Node81</title>
<path fill="none" stroke="midnightblue" d="M242.912,-157.5C253.257,-157.5 264.104,-157.5 274.496,-157.5"/>
<polygon fill="midnightblue" stroke="midnightblue" points="242.77,-154 232.77,-157.5 242.77,-161 242.77,-154"/>
</g>
<!-- Node86&#45;&gt;Node81 -->
<g id="edge13" class="edge"><title>Node86&#45;&gt;Node81</title>
<path fill="none" stroke="midnightblue" d="M233.255,-132.131C253.323,-137.386 276.682,-143.503 295.434,-148.414"/>
<polygon fill="midnightblue" stroke="midnightblue" points="233.964,-128.699 223.403,-129.551 232.19,-135.47 233.964,-128.699"/>
</g>
<!-- Node87&#45;&gt;Node81 -->
<g id="edge15" class="edge"><title>Node87&#45;&gt;Node81</title>
<path fill="none" stroke="midnightblue" d="M224.68,-96.2983C229.429,-98.2483 234.189,-100.336 238.635,-102.5 267.466,-116.529 299.114,-136.715 316.606,-148.329"/>
<polygon fill="midnightblue" stroke="midnightblue" points="225.64,-92.9147 215.053,-92.5098 223.077,-99.4286 225.64,-92.9147"/>
</g>
<!-- Node88&#45;&gt;Node81 -->
<g id="edge17" class="edge"><title>Node88&#45;&gt;Node81</title>
<path fill="none" stroke="midnightblue" d="M228.053,-59.6118C231.736,-61.3875 235.325,-63.3491 238.635,-65.5 275.466,-89.4376 309.274,-130.288 323.295,-148.396"/>
<polygon fill="midnightblue" stroke="midnightblue" points="229.372,-56.3688 218.807,-55.5789 226.573,-62.785 229.372,-56.3688"/>
</g>
<!-- Node89&#45;&gt;Node81 -->
<g id="edge19" class="edge"><title>Node89&#45;&gt;Node81</title>
<path fill="none" stroke="midnightblue" d="M230.124,-22.9582C233.124,-24.6177 236.002,-26.4598 238.635,-28.5 283.129,-62.9748 315.035,-124.957 325.981,-148.285"/>
<polygon fill="midnightblue" stroke="midnightblue" points="231.401,-19.6891 220.872,-18.5128 228.369,-25.9985 231.401,-19.6891"/>
</g>
</g>
</svg>
