<?xml version="1.0" encoding="UTF-8" standalone="no"?>
<!DOCTYPE svg PUBLIC "-//W3C//DTD SVG 1.1//EN"
 "http://www.w3.org/Graphics/SVG/1.1/DTD/svg11.dtd">
<!-- Generated by graphviz version 2.43.0 (0)
 -->
<!-- Title: QtPassSettings::getPassSigningKey Pages: 1 -->
<svg width="327pt" height="64pt"
 viewBox="0.00 0.00 327.00 64.00" xmlns="http://www.w3.org/2000/svg" xmlns:xlink="http://www.w3.org/1999/xlink">
<g id="graph0" class="graph" transform="scale(1 1) rotate(0) translate(4 60)">
<title>QtPassSettings::getPassSigningKey</title>
<!-- Node1 -->
<g id="Node000001" class="node">
<title>Node1</title>
<g id="a_Node000001"><a xlink:title=" ">
<polygon fill="#999999" stroke="#666666" points="319,-37 132,-37 132,-18 319,-18 319,-37"/>
<text text-anchor="middle" x="225.5" y="-25" font-family="Helvetica,sans-Serif" font-size="10.00">QtPassSettings::getPassSigningKey</text>
</a>
</g>
</g>
<!-- Node2 -->
<g id="Node000002" class="node">
<title>Node2</title>
<g id="a_Node000002"><a xlink:href="class_imitate_pass.html#a6fe6b48df3fb04071c8c2c1d5c1d1206" target="_top" xlink:title="ImitatePass::Init initialize pass repository.">
<polygon fill="white" stroke="#666666" points="95.5,-56 0.5,-56 0.5,-37 95.5,-37 95.5,-56"/>
<text text-anchor="middle" x="48" y="-44" font-family="Helvetica,sans-Serif" font-size="10.00">ImitatePass::Init</text>
</a>
</g>
</g>
<!-- Node1&#45;&gt;Node2 -->
<g id="edge1_Node000001_Node000002" class="edge">
<title>Node1&#45;&gt;Node2</title>
<g id="a_edge1_Node000001_Node000002"><a xlink:title=" ">
<path fill="none" stroke="#63b8ff" d="M126.32,-38.13C115.76,-39.27 105.4,-40.39 95.87,-41.43"/>
<polygon fill="#63b8ff" stroke="#63b8ff" points="126.93,-41.58 136.49,-37.03 126.17,-34.62 126.93,-41.58"/>
</a>
</g>
</g>
<!-- Node3 -->
<g id="Node000003" class="node">
<title>Node3</title>
<g id="a_Node000003"><a xlink:href="class_pass.html#ac679a086b289cdb9245906948ba0458a" target="_top" xlink:title="Pass::updateEnv update the execution environment (used when switching profiles)">
<polygon fill="white" stroke="#666666" points="96,-19 0,-19 0,0 96,0 96,-19"/>
<text text-anchor="middle" x="48" y="-7" font-family="Helvetica,sans-Serif" font-size="10.00">Pass::updateEnv</text>
</a>
</g>
</g>
<!-- Node1&#45;&gt;Node3 -->
<g id="edge2_Node000001_Node000003" class="edge">
<title>Node1&#45;&gt;Node3</title>
<g id="a_edge2_Node000001_Node000003"><a xlink:title=" ">
<path fill="none" stroke="#63b8ff" d="M121.78,-16.96C112.9,-16.05 104.24,-15.17 96.16,-14.34"/>
<polygon fill="#63b8ff" stroke="#63b8ff" points="121.56,-20.46 131.87,-18 122.28,-13.5 121.56,-20.46"/>
</a>
</g>
</g>
</g>
</svg>
