<?xml version="1.0" encoding="UTF-8" standalone="no"?>
<!DOCTYPE svg PUBLIC "-//W3C//DTD SVG 1.1//EN"
 "http://www.w3.org/Graphics/SVG/1.1/DTD/svg11.dtd">
<!-- Generated by graphviz version 2.43.0 (0)
 -->
<!-- Title: QtPassSettings::isUsePass Pages: 1 -->
<svg width="836pt" height="386pt"
 viewBox="0.00 0.00 836.13 386.00" xmlns="http://www.w3.org/2000/svg" xmlns:xlink="http://www.w3.org/1999/xlink">
<g id="graph0" class="graph" transform="scale(1 1) rotate(0) translate(4 382)">
<title>QtPassSettings::isUsePass</title>
<!-- Node1 -->
<g id="node1" class="node">
<title>Node1</title>
<g id="a_node1"><a xlink:title=" ">
<polygon fill="#bfbfbf" stroke="black" points="690.42,-321.5 690.42,-339.5 828.13,-339.5 828.13,-321.5 690.42,-321.5"/>
<text text-anchor="middle" x="759.27" y="-327.5" font-family="Helvetica,sans-Serif" font-size="10.00">QtPassSettings::isUsePass</text>
</a>
</g>
</g>
<!-- Node2 -->
<g id="node2" class="node">
<title>Node2</title>
<g id="a_node2"><a xlink:href="class_util.html#a00c91095ca10b233e45eb643ff6097a4" target="_top" xlink:title="Util::checkConfig do we have prequisite settings?">
<polygon fill="none" stroke="black" points="545.6,-321.5 545.6,-339.5 636.63,-339.5 636.63,-321.5 545.6,-321.5"/>
<text text-anchor="middle" x="591.11" y="-327.5" font-family="Helvetica,sans-Serif" font-size="10.00">Util::checkConfig</text>
</a>
</g>
</g>
<!-- Node1&#45;&gt;Node2 -->
<g id="edge1" class="edge">
<title>Node1&#45;&gt;Node2</title>
<path fill="none" stroke="midnightblue" d="M680.05,-330.5C665.29,-330.5 650.33,-330.5 637.03,-330.5"/>
<polygon fill="midnightblue" stroke="midnightblue" points="680.21,-334 690.21,-330.5 680.21,-327 680.21,-334"/>
</g>
<!-- Node6 -->
<g id="node6" class="node">
<title>Node6</title>
<g id="a_node6"><a xlink:href="class_config_dialog.html#a815d6d8ddf1de9386427ddef691a02a1" target="_top" xlink:title="ConfigDialog::ConfigDialog this sets up the configuration screen.">
<polygon fill="none" stroke="black" points="354.63,-359.5 354.63,-377.5 490.7,-377.5 490.7,-359.5 354.63,-359.5"/>
<text text-anchor="middle" x="422.67" y="-365.5" font-family="Helvetica,sans-Serif" font-size="10.00">ConfigDialog::ConfigDialog</text>
</a>
</g>
</g>
<!-- Node1&#45;&gt;Node6 -->
<g id="edge7" class="edge">
<title>Node1&#45;&gt;Node6</title>
<path fill="none" stroke="midnightblue" d="M701.1,-341.31C685.96,-343.92 669.6,-346.53 654.42,-348.5 599.49,-355.63 536.86,-360.88 490.73,-364.2"/>
<polygon fill="midnightblue" stroke="midnightblue" points="702.11,-344.68 711.36,-339.5 700.9,-337.79 702.11,-344.68"/>
</g>
<!-- Node7 -->
<g id="node7" class="node">
<title>Node7</title>
<g id="a_node7"><a xlink:href="class_qt_pass_settings.html#a987e913eac7cd497e2fca27426494a64" target="_top" xlink:title=" ">
<polygon fill="none" stroke="black" points="527.81,-157.5 527.81,-175.5 654.42,-175.5 654.42,-157.5 527.81,-157.5"/>
<text text-anchor="middle" x="591.11" y="-163.5" font-family="Helvetica,sans-Serif" font-size="10.00">QtPassSettings::getPass</text>
</a>
</g>
</g>
<!-- Node1&#45;&gt;Node7 -->
<g id="edge8" class="edge">
<title>Node1&#45;&gt;Node7</title>
<path fill="none" stroke="midnightblue" d="M741.41,-313.86C706.72,-279.62 628.36,-202.28 601.42,-175.69"/>
<polygon fill="midnightblue" stroke="midnightblue" points="739.29,-316.68 748.86,-321.21 744.21,-311.7 739.29,-316.68"/>
</g>
<!-- Node3 -->
<g id="node3" class="node">
<title>Node3</title>
<g id="a_node3"><a xlink:href="class_main_window.html#aeb8091ab5531144b76c1fbb0d63deb56" target="_top" xlink:title="MainWindow::config pops up the configuration screen and handles all inter&#45;window communication.">
<polygon fill="none" stroke="black" points="369.93,-283.5 369.93,-301.5 475.41,-301.5 475.41,-283.5 369.93,-283.5"/>
<text text-anchor="middle" x="422.67" y="-289.5" font-family="Helvetica,sans-Serif" font-size="10.00">MainWindow::config</text>
</a>
</g>
</g>
<!-- Node2&#45;&gt;Node3 -->
<g id="edge2" class="edge">
<title>Node2&#45;&gt;Node3</title>
<path fill="none" stroke="midnightblue" d="M540.73,-319.23C515.95,-313.57 486.35,-306.81 463.12,-301.51"/>
<polygon fill="midnightblue" stroke="midnightblue" points="540.14,-322.68 550.67,-321.49 541.7,-315.86 540.14,-322.68"/>
</g>
<!-- Node4 -->
<g id="node4" class="node">
<title>Node4</title>
<g id="a_node4"><a xlink:href="class_qt_pass.html#a49e2861160fdb8d614231933f60fac47" target="_top" xlink:title="QtPass::init make sure we are ready to go as soon as possible.">
<polygon fill="none" stroke="black" points="211.22,-283.5 211.22,-301.5 278.35,-301.5 278.35,-283.5 211.22,-283.5"/>
<text text-anchor="middle" x="244.79" y="-289.5" font-family="Helvetica,sans-Serif" font-size="10.00">QtPass::init</text>
</a>
</g>
</g>
<!-- Node2&#45;&gt;Node4 -->
<g id="edge6" class="edge">
<title>Node2&#45;&gt;Node4</title>
<path fill="none" stroke="midnightblue" d="M535.34,-327.14C487.31,-323.88 415.64,-318.3 353.53,-310.5 328.32,-307.33 299.98,-302.55 278.69,-298.71"/>
<polygon fill="midnightblue" stroke="midnightblue" points="535.31,-330.64 545.52,-327.81 535.78,-323.66 535.31,-330.64"/>
</g>
<!-- Node2&#45;&gt;Node6 -->
<g id="edge5" class="edge">
<title>Node2&#45;&gt;Node6</title>
<path fill="none" stroke="midnightblue" d="M540.73,-341.77C515.95,-347.43 486.35,-354.19 463.12,-359.49"/>
<polygon fill="midnightblue" stroke="midnightblue" points="541.7,-345.14 550.67,-339.51 540.14,-338.32 541.7,-345.14"/>
</g>
<!-- Node3&#45;&gt;Node4 -->
<g id="edge3" class="edge">
<title>Node3&#45;&gt;Node4</title>
<path fill="none" stroke="midnightblue" d="M359.56,-292.5C332.2,-292.5 301.16,-292.5 278.43,-292.5"/>
<polygon fill="midnightblue" stroke="midnightblue" points="359.85,-296 369.85,-292.5 359.85,-289 359.85,-296"/>
</g>
<!-- Node5 -->
<g id="node5" class="node">
<title>Node5</title>
<g id="a_node5"><a xlink:href="class_main_window.html#a52e97245b2f88492071e639395c4a15a" target="_top" xlink:title="MainWindow::MainWindow handles all of the main functionality and also the main window.">
<polygon fill="none" stroke="black" points="0,-198.5 0,-216.5 136.04,-216.5 136.04,-198.5 0,-198.5"/>
<text text-anchor="middle" x="68.02" y="-204.5" font-family="Helvetica,sans-Serif" font-size="10.00">MainWindow::MainWindow</text>
</a>
</g>
</g>
<!-- Node4&#45;&gt;Node5 -->
<g id="edge4" class="edge">
<title>Node4&#45;&gt;Node5</title>
<path fill="none" stroke="midnightblue" d="M202.04,-280.2C192.05,-276.8 181.54,-272.84 172.04,-268.5 138.2,-253.03 101.32,-229.37 82.19,-216.54"/>
<polygon fill="midnightblue" stroke="midnightblue" points="201.2,-283.6 211.8,-283.4 203.39,-276.95 201.2,-283.6"/>
</g>
<!-- Node7&#45;&gt;Node3 -->
<g id="edge11" class="edge">
<title>Node7&#45;&gt;Node3</title>
<path fill="none" stroke="midnightblue" d="M578.8,-183.93C562.46,-207.74 529.97,-250.11 491.81,-273.5 485.11,-277.61 477.5,-280.85 469.85,-283.4"/>
<polygon fill="midnightblue" stroke="midnightblue" points="581.78,-185.78 584.44,-175.53 575.96,-181.89 581.78,-185.78"/>
</g>
<!-- Node7&#45;&gt;Node5 -->
<g id="edge13" class="edge">
<title>Node7&#45;&gt;Node5</title>
<path fill="none" stroke="midnightblue" d="M550.99,-154.67C533.12,-149.86 511.58,-144.88 491.81,-142.5 341.03,-124.36 161.35,-176.68 95.16,-198.46"/>
<polygon fill="midnightblue" stroke="midnightblue" points="550.2,-158.08 560.77,-157.38 552.07,-151.34 550.2,-158.08"/>
</g>
<!-- Node8 -->
<g id="node8" class="node">
<title>Node8</title>
<g id="a_node8"><a xlink:href="class_users_dialog.html#a70580643923a96208b6bbae18d4aa0f3" target="_top" xlink:title="UsersDialog::accept.">
<polygon fill="none" stroke="black" points="369.93,-76.5 369.93,-94.5 475.41,-94.5 475.41,-76.5 369.93,-76.5"/>
<text text-anchor="middle" x="422.67" y="-82.5" font-family="Helvetica,sans-Serif" font-size="10.00">UsersDialog::accept</text>
</a>
</g>
</g>
<!-- Node7&#45;&gt;Node8 -->
<g id="edge9" class="edge">
<title>Node7&#45;&gt;Node8</title>
<path fill="none" stroke="midnightblue" d="M567.75,-151.91C548.23,-139.58 518.87,-121.98 491.81,-109.5 479.51,-103.83 465.46,-98.67 453.32,-94.6"/>
<polygon fill="midnightblue" stroke="midnightblue" points="565.92,-154.9 576.23,-157.33 569.69,-149 565.92,-154.9"/>
</g>
<!-- Node9 -->
<g id="node9" class="node">
<title>Node9</title>
<g id="a_node9"><a xlink:href="class_users_dialog.html#a7a3d75a01a48609ce7571cec09b95f07" target="_top" xlink:title="UsersDialog::UsersDialog basic constructor.">
<polygon fill="none" stroke="black" points="179.54,-57.5 179.54,-75.5 310.03,-75.5 310.03,-57.5 179.54,-57.5"/>
<text text-anchor="middle" x="244.79" y="-63.5" font-family="Helvetica,sans-Serif" font-size="10.00">UsersDialog::UsersDialog</text>
</a>
</g>
</g>
<!-- Node7&#45;&gt;Node9 -->
<g id="edge18" class="edge">
<title>Node7&#45;&gt;Node9</title>
<path fill="none" stroke="midnightblue" d="M579.28,-148.75C563.49,-124.8 531.65,-83.2 491.81,-66.5 423.66,-37.93 335.27,-47.98 285.11,-57.49"/>
<polygon fill="midnightblue" stroke="midnightblue" points="576.37,-150.7 584.7,-157.26 582.28,-146.94 576.37,-150.7"/>
</g>
<!-- Node10 -->
<g id="node10" class="node">
<title>Node10</title>
<g id="a_node10"><a xlink:href="class_store_model.html#a17f8db58298e985732d92a2e0e76b821" target="_top" xlink:title="StoreModel::dropMimeData.">
<polygon fill="none" stroke="black" points="353.53,-0.5 353.53,-18.5 491.81,-18.5 491.81,-0.5 353.53,-0.5"/>
<text text-anchor="middle" x="422.67" y="-6.5" font-family="Helvetica,sans-Serif" font-size="10.00">StoreModel::dropMimeData</text>
</a>
</g>
</g>
<!-- Node7&#45;&gt;Node10 -->
<g id="edge12" class="edge">
<title>Node7&#45;&gt;Node10</title>
<path fill="none" stroke="midnightblue" d="M581.11,-148.06C566.3,-119.55 534.17,-64.81 491.81,-33.5 483.03,-27.01 472.35,-22.17 462.07,-18.59"/>
<polygon fill="midnightblue" stroke="midnightblue" points="578.14,-149.94 585.77,-157.28 584.39,-146.78 578.14,-149.94"/>
</g>
<!-- Node11 -->
<g id="node11" class="node">
<title>Node11</title>
<g id="a_node11"><a xlink:href="class_main_window.html#adc7d4b2b210efab401f0b14641f80464" target="_top" xlink:title="MainWindow::on_treeView_clicked read the selected password file.">
<polygon fill="none" stroke="black" points="355.56,-236.5 355.56,-264.5 489.78,-264.5 489.78,-236.5 355.56,-236.5"/>
<text text-anchor="start" x="363.56" y="-252.5" font-family="Helvetica,sans-Serif" font-size="10.00">MainWindow::on_treeView</text>
<text text-anchor="middle" x="422.67" y="-242.5" font-family="Helvetica,sans-Serif" font-size="10.00">_clicked</text>
</a>
</g>
</g>
<!-- Node7&#45;&gt;Node11 -->
<g id="edge14" class="edge">
<title>Node7&#45;&gt;Node11</title>
<path fill="none" stroke="midnightblue" d="M568.85,-181.28C549.42,-194.35 519.56,-213.32 491.81,-226.5 484.22,-230.1 475.93,-233.47 467.84,-236.47"/>
<polygon fill="midnightblue" stroke="midnightblue" points="570.95,-184.08 577.25,-175.56 567.01,-178.3 570.95,-184.08"/>
</g>
<!-- Node13 -->
<g id="node13" class="node">
<title>Node13</title>
<g id="a_node13"><a xlink:href="class_main_window.html#a6961588ebf3c0640200e0cfa920af3be" target="_top" xlink:title="MainWindow::onPush do a git push.">
<polygon fill="none" stroke="black" points="366.31,-199.5 366.31,-217.5 479.03,-217.5 479.03,-199.5 366.31,-199.5"/>
<text text-anchor="middle" x="422.67" y="-205.5" font-family="Helvetica,sans-Serif" font-size="10.00">MainWindow::onPush</text>
</a>
</g>
</g>
<!-- Node7&#45;&gt;Node13 -->
<g id="edge16" class="edge">
<title>Node7&#45;&gt;Node13</title>
<path fill="none" stroke="midnightblue" d="M544.51,-178.01C517.77,-184.75 484.47,-193.16 459.6,-199.43"/>
<polygon fill="midnightblue" stroke="midnightblue" points="545.57,-181.35 554.41,-175.51 543.85,-174.56 545.57,-181.35"/>
</g>
<!-- Node14 -->
<g id="node14" class="node">
<title>Node14</title>
<g id="a_node14"><a xlink:href="class_password_dialog.html#a859a78e62204698556204b9e20932010" target="_top" xlink:title="PasswordDialog::PasswordDialog basic constructor.">
<polygon fill="none" stroke="black" points="353.81,-152.5 353.81,-180.5 491.53,-180.5 491.53,-152.5 353.81,-152.5"/>
<text text-anchor="start" x="361.81" y="-168.5" font-family="Helvetica,sans-Serif" font-size="10.00">PasswordDialog::Password</text>
<text text-anchor="middle" x="422.67" y="-158.5" font-family="Helvetica,sans-Serif" font-size="10.00">Dialog</text>
</a>
</g>
</g>
<!-- Node7&#45;&gt;Node14 -->
<g id="edge17" class="edge">
<title>Node7&#45;&gt;Node14</title>
<path fill="none" stroke="midnightblue" d="M517.66,-166.5C509.06,-166.5 500.3,-166.5 491.77,-166.5"/>
<polygon fill="midnightblue" stroke="midnightblue" points="517.66,-170 527.66,-166.5 517.66,-163 517.66,-170"/>
</g>
<!-- Node8&#45;&gt;Node9 -->
<g id="edge10" class="edge">
<title>Node8&#45;&gt;Node9</title>
<path fill="none" stroke="midnightblue" d="M359.57,-78.79C343.62,-77.07 326.42,-75.21 310.34,-73.47"/>
<polygon fill="midnightblue" stroke="midnightblue" points="359.53,-82.31 369.85,-79.9 360.28,-75.35 359.53,-82.31"/>
</g>
<!-- Node12 -->
<g id="node12" class="node">
<title>Node12</title>
<g id="a_node12"><a xlink:href="class_main_window.html#a9c4f542263838b9ecd06eae839a42a34" target="_top" xlink:title="MainWindow::keyPressEvent did anyone press return, enter or escape?">
<polygon fill="none" stroke="black" points="172.04,-241.5 172.04,-259.5 317.53,-259.5 317.53,-241.5 172.04,-241.5"/>
<text text-anchor="middle" x="244.79" y="-247.5" font-family="Helvetica,sans-Serif" font-size="10.00">MainWindow::keyPressEvent</text>
</a>
</g>
</g>
<!-- Node11&#45;&gt;Node12 -->
<g id="edge15" class="edge">
<title>Node11&#45;&gt;Node12</title>
<path fill="none" stroke="midnightblue" d="M345.17,-250.5C336,-250.5 326.66,-250.5 317.56,-250.5"/>
<polygon fill="midnightblue" stroke="midnightblue" points="345.43,-254 355.43,-250.5 345.43,-247 345.43,-254"/>
</g>
</g>
</svg>
