<?xml version="1.0" encoding="UTF-8" standalone="no"?>
<!DOCTYPE svg PUBLIC "-//W3C//DTD SVG 1.1//EN"
 "http://www.w3.org/Graphics/SVG/1.1/DTD/svg11.dtd">
<!-- Generated by graphviz version 2.43.0 (0)
 -->
<!-- Title: ImitatePass::executeGpg Pages: 1 -->
<svg width="288pt" height="64pt"
 viewBox="0.00 0.00 288.00 64.00" xmlns="http://www.w3.org/2000/svg" xmlns:xlink="http://www.w3.org/1999/xlink">
<g id="graph0" class="graph" transform="scale(1 1) rotate(0) translate(4 60)">
<title>ImitatePass::executeGpg</title>
<!-- Node1 -->
<g id="Node000001" class="node">
<title>Node1</title>
<g id="a_Node000001"><a xlink:title="ImitatePass::executeGpg easy wrapper for running gpg commands.">
<polygon fill="#999999" stroke="#666666" points="280,-37 143,-37 143,-18 280,-18 280,-37"/>
<text text-anchor="middle" x="211.5" y="-25" font-family="Helvetica,sans-Serif" font-size="10.00">ImitatePass::executeGpg</text>
</a>
</g>
</g>
<!-- Node2 -->
<g id="Node000002" class="node">
<title>Node2</title>
<g id="a_Node000002"><a xlink:href="class_imitate_pass.html#a84de97293ca1a100b1e466b4a79ec601" target="_top" xlink:title="ImitatePass::Insert create new file with encrypted content.">
<polygon fill="white" stroke="#666666" points="107,-56 0,-56 0,-37 107,-37 107,-56"/>
<text text-anchor="middle" x="53.5" y="-44" font-family="Helvetica,sans-Serif" font-size="10.00">ImitatePass::Insert</text>
</a>
</g>
</g>
<!-- Node1&#45;&gt;Node2 -->
<g id="edge1_Node000001_Node000002" class="edge">
<title>Node1&#45;&gt;Node2</title>
<g id="a_edge1_Node000001_Node000002"><a xlink:title=" ">
<path fill="none" stroke="#63b8ff" d="M132.79,-36.97C124.07,-38.03 115.36,-39.09 107.07,-40.1"/>
<polygon fill="#63b8ff" stroke="#63b8ff" points="133.48,-40.41 142.98,-35.72 132.63,-33.46 133.48,-40.41"/>
</a>
</g>
</g>
<!-- Node3 -->
<g id="Node000003" class="node">
<title>Node3</title>
<g id="a_Node000003"><a xlink:href="class_imitate_pass.html#acfffcbf097c9d4615c01e064e335d65d" target="_top" xlink:title="ImitatePass::Show shows content of file.">
<polygon fill="white" stroke="#666666" points="106.5,-19 0.5,-19 0.5,0 106.5,0 106.5,-19"/>
<text text-anchor="middle" x="53.5" y="-7" font-family="Helvetica,sans-Serif" font-size="10.00">ImitatePass::Show</text>
</a>
</g>
</g>
<!-- Node1&#45;&gt;Node3 -->
<g id="edge2_Node000001_Node000003" class="edge">
<title>Node1&#45;&gt;Node3</title>
<g id="a_edge2_Node000001_Node000003"><a xlink:title=" ">
<path fill="none" stroke="#63b8ff" d="M132.93,-18.55C124.01,-17.52 115.07,-16.49 106.6,-15.51"/>
<polygon fill="#63b8ff" stroke="#63b8ff" points="132.65,-22.04 142.98,-19.71 133.45,-15.09 132.65,-22.04"/>
</a>
</g>
</g>
</g>
</svg>
