<?xml version="1.0" encoding="UTF-8" standalone="no"?>
<!DOCTYPE svg PUBLIC "-//W3C//DTD SVG 1.1//EN"
 "http://www.w3.org/Graphics/SVG/1.1/DTD/svg11.dtd">
<!-- Generated by graphviz version 2.40.1 (20161225.0304)
 -->
<!-- Title: FileContent::parse Pages: 1 -->
<svg width="651pt" height="122pt"
 viewBox="0.00 0.00 651.00 121.50" xmlns="http://www.w3.org/2000/svg" xmlns:xlink="http://www.w3.org/1999/xlink">
<g id="graph0" class="graph" transform="scale(1 1) rotate(0) translate(4 117.5)">
<title>FileContent::parse</title>
<!-- Node33 -->
<g id="node1" class="node">
<title>Node33</title>
<polygon fill="#bfbfbf" stroke="#000000" points="0,-50 0,-69 97,-69 97,-50 0,-50"/>
<text text-anchor="middle" x="48.5" y="-57" font-family="Helvetica,sans-Serif" font-size="10.00" fill="#000000">FileContent::parse</text>
</g>
<!-- Node34 -->
<g id="node2" class="node">
<title>Node34</title>
<g id="a_node2"><a xlink:href="class_main_window.html#a0d75695e555bac7331e1ea22bc3159df" target="_top" xlink:title="MainWindow::passShowHandler">
<polygon fill="none" stroke="#000000" points="133,-91 133,-110 291,-110 291,-91 133,-91"/>
<text text-anchor="middle" x="212" y="-98" font-family="Helvetica,sans-Serif" font-size="10.00" fill="#000000">MainWindow::passShowHandler</text>
</a>
</g>
</g>
<!-- Node33&#45;&gt;Node34 -->
<g id="edge1" class="edge">
<title>Node33&#45;&gt;Node34</title>
<path fill="none" stroke="#191970" d="M96.3305,-71.4942C121.073,-77.6987 150.8545,-85.1669 174.0016,-90.9714"/>
<polygon fill="#191970" stroke="#191970" points="96.9722,-68.0468 86.4211,-69.0093 95.2695,-74.8366 96.9722,-68.0468"/>
</g>
<!-- Node37 -->
<g id="node5" class="node">
<title>Node37</title>
<g id="a_node5"><a xlink:href="class_password_dialog.html#a89b320eb34026b488c5c685ee6b16623" target="_top" xlink:title="Sets content in the password field in the interface. ">
<polygon fill="none" stroke="#000000" points="136.5,-50 136.5,-69 287.5,-69 287.5,-50 136.5,-50"/>
<text text-anchor="middle" x="212" y="-57" font-family="Helvetica,sans-Serif" font-size="10.00" fill="#000000">PasswordDialog::setPassword</text>
</a>
</g>
</g>
<!-- Node33&#45;&gt;Node37 -->
<g id="edge4" class="edge">
<title>Node33&#45;&gt;Node37</title>
<path fill="none" stroke="#191970" d="M107.1687,-59.5C116.6229,-59.5 126.5258,-59.5 136.3121,-59.5"/>
<polygon fill="#191970" stroke="#191970" points="107.1128,-56.0001 97.1127,-59.5 107.1127,-63.0001 107.1128,-56.0001"/>
</g>
<!-- Node41 -->
<g id="node9" class="node">
<title>Node41</title>
<g id="a_node9"><a xlink:href="classtst__util.html#a1889cedba30d1d96c60e84effbf7f313" target="_top" xlink:title="tst_util::cleanup unit test cleanup method ">
<polygon fill="none" stroke="#000000" points="169,-12 169,-31 255,-31 255,-12 169,-12"/>
<text text-anchor="middle" x="212" y="-19" font-family="Helvetica,sans-Serif" font-size="10.00" fill="#000000">tst_util::cleanup</text>
</a>
</g>
</g>
<!-- Node33&#45;&gt;Node41 -->
<g id="edge8" class="edge">
<title>Node33&#45;&gt;Node41</title>
<path fill="none" stroke="#191970" d="M99.6844,-47.6039C122.6661,-42.2626 149.4125,-36.0463 171.0387,-31.0201"/>
<polygon fill="#191970" stroke="#191970" points="98.706,-44.238 89.758,-49.911 100.2907,-51.0562 98.706,-44.238"/>
</g>
<!-- Node35 -->
<g id="node3" class="node">
<title>Node35</title>
<g id="a_node3"><a xlink:href="class_qt_pass.html#a49e2861160fdb8d614231933f60fac47" target="_top" xlink:title="QtPass::init make sure we are ready to go as soon as possible. ">
<polygon fill="none" stroke="#000000" points="364.5,-94 364.5,-113 432.5,-113 432.5,-94 364.5,-94"/>
<text text-anchor="middle" x="398.5" y="-101" font-family="Helvetica,sans-Serif" font-size="10.00" fill="#000000">QtPass::init</text>
</a>
</g>
</g>
<!-- Node34&#45;&gt;Node35 -->
<g id="edge2" class="edge">
<title>Node34&#45;&gt;Node35</title>
<path fill="none" stroke="#191970" d="M301.3568,-101.9374C323.7829,-102.2981 346.5098,-102.6637 364.3371,-102.9505"/>
<polygon fill="#191970" stroke="#191970" points="301.1478,-98.4337 291.0928,-101.7723 301.0352,-105.4328 301.1478,-98.4337"/>
</g>
<!-- Node36 -->
<g id="node4" class="node">
<title>Node36</title>
<g id="a_node4"><a xlink:href="class_main_window.html#a52e97245b2f88492071e639395c4a15a" target="_top" xlink:title="MainWindow::MainWindow handles all of the main functionality and also the main window. ">
<polygon fill="none" stroke="#000000" points="507,-94 507,-113 642,-113 642,-94 507,-94"/>
<text text-anchor="middle" x="574.5" y="-101" font-family="Helvetica,sans-Serif" font-size="10.00" fill="#000000">MainWindow::MainWindow</text>
</a>
</g>
</g>
<!-- Node35&#45;&gt;Node36 -->
<g id="edge3" class="edge">
<title>Node35&#45;&gt;Node36</title>
<path fill="none" stroke="#191970" d="M442.8813,-103.5C462.2163,-103.5 485.3117,-103.5 506.7193,-103.5"/>
<polygon fill="#191970" stroke="#191970" points="442.8524,-100.0001 432.8524,-103.5 442.8523,-107.0001 442.8524,-100.0001"/>
</g>
<!-- Node38 -->
<g id="node6" class="node">
<title>Node38</title>
<g id="a_node6"><a xlink:href="class_password_dialog.html#aa123158c0085b910ecf3bfdc9dae9e97" target="_top" xlink:title="Pass{}{}wordDialog::~PasswordDialog basic destructor. ">
<polygon fill="none" stroke="#000000" points="327,-44.5 327,-74.5 470,-74.5 470,-44.5 327,-44.5"/>
<text text-anchor="start" x="335" y="-62.5" font-family="Helvetica,sans-Serif" font-size="10.00" fill="#000000">PasswordDialog::~Password</text>
<text text-anchor="middle" x="398.5" y="-51.5" font-family="Helvetica,sans-Serif" font-size="10.00" fill="#000000">Dialog</text>
</a>
</g>
</g>
<!-- Node37&#45;&gt;Node38 -->
<g id="edge5" class="edge">
<title>Node37&#45;&gt;Node38</title>
<path fill="none" stroke="#191970" d="M297.6598,-59.5C307.3805,-59.5 317.2118,-59.5 326.7277,-59.5"/>
<polygon fill="#191970" stroke="#191970" points="297.5879,-56.0001 287.5878,-59.5 297.5878,-63.0001 297.5879,-56.0001"/>
</g>
<!-- Node39 -->
<g id="node7" class="node">
<title>Node39</title>
<g id="a_node7"><a xlink:href="class_password_dialog.html#aca023385bb581500a1e4a880a6283ad8" target="_top" xlink:title="PasswordDialog::setPass">
<polygon fill="none" stroke="#000000" points="333.5,-6 333.5,-25 463.5,-25 463.5,-6 333.5,-6"/>
<text text-anchor="middle" x="398.5" y="-13" font-family="Helvetica,sans-Serif" font-size="10.00" fill="#000000">PasswordDialog::setPass</text>
</a>
</g>
</g>
<!-- Node37&#45;&gt;Node39 -->
<g id="edge6" class="edge">
<title>Node37&#45;&gt;Node39</title>
<path fill="none" stroke="#191970" d="M262.3399,-47.6236C292.3824,-40.5358 330.024,-31.6552 358.1113,-25.0287"/>
<polygon fill="#191970" stroke="#191970" points="261.3968,-44.2499 252.4677,-49.9527 263.0042,-51.0629 261.3968,-44.2499"/>
</g>
<!-- Node40 -->
<g id="node8" class="node">
<title>Node40</title>
<g id="a_node8"><a xlink:href="class_password_dialog.html#a859a78e62204698556204b9e20932010" target="_top" xlink:title="PasswordDialog::PasswordDialog basic constructor. ">
<polygon fill="none" stroke="#000000" points="506,-.5 506,-30.5 643,-30.5 643,-.5 506,-.5"/>
<text text-anchor="start" x="514" y="-18.5" font-family="Helvetica,sans-Serif" font-size="10.00" fill="#000000">PasswordDialog::Password</text>
<text text-anchor="middle" x="574.5" y="-7.5" font-family="Helvetica,sans-Serif" font-size="10.00" fill="#000000">Dialog</text>
</a>
</g>
</g>
<!-- Node39&#45;&gt;Node40 -->
<g id="edge7" class="edge">
<title>Node39&#45;&gt;Node40</title>
<path fill="none" stroke="#191970" d="M473.6889,-15.5C484.3833,-15.5 495.3355,-15.5 505.8957,-15.5"/>
<polygon fill="#191970" stroke="#191970" points="473.5359,-12.0001 463.5359,-15.5 473.5358,-19.0001 473.5359,-12.0001"/>
</g>
</g>
</svg>
