<?xml version="1.0" encoding="UTF-8" standalone="no"?>
<!DOCTYPE svg PUBLIC "-//W3C//DTD SVG 1.1//EN"
 "http://www.w3.org/Graphics/SVG/1.1/DTD/svg11.dtd">
<!-- Generated by graphviz version 2.43.0 (0)
 -->
<!-- Title: QtPassSettings::getDialogGeometry Pages: 1 -->
<svg width="345pt" height="100pt"
 viewBox="0.00 0.00 345.00 100.00" xmlns="http://www.w3.org/2000/svg" xmlns:xlink="http://www.w3.org/1999/xlink">

<svg id="main" version="1.1" xmlns="http://www.w3.org/2000/svg" xmlns:xlink="http://www.w3.org/1999/xlink" xml:space="preserve">

<style type="text/css"><![CDATA[
.node, .edge {opacity: 0.7;}
.node.selected, .edge.selected {opacity: 1;}
.edge:hover path { stroke: red; }
.edge:hover polygon { stroke: red; fill: red; }
]]></style>
<script type="application/ecmascript" xlink:href="svg.min.js"/>
<svg id="graph" class="graph">
<g id="graph0" class="graph" transform="scale(1 1) rotate(0) translate(4 96)">
<title>QtPassSettings::getDialogGeometry</title>
<!-- Node1 -->
<g id="Node000001" class="node">
<title>Node1</title>
<g id="a_Node000001"><a xlink:title="Get saved dialog geometry.">
<polygon fill="#999999" stroke="#666666" points="337,-51.5 194,-51.5 194,-21.5 337,-21.5 337,-51.5"/>
<text text-anchor="start" x="202" y="-39.5" font-family="Helvetica,sans-Serif" font-size="10.00">QtPassSettings::getDialog</text>
<text text-anchor="middle" x="265.5" y="-28.5" font-family="Helvetica,sans-Serif" font-size="10.00">Geometry</text>
</a>
</g>
</g>
<!-- Node2 -->
<g id="Node000002" class="node">
<title>Node2</title>
<g id="a_Node000002"><a xlink:href="class_config_dialog.html#a815d6d8ddf1de9386427ddef691a02a1" target="_top" xlink:title="ConfigDialog::ConfigDialog this sets up the configuration screen.">
<polygon fill="white" stroke="#666666" points="152.5,-74 5.5,-74 5.5,-55 152.5,-55 152.5,-74"/>
<text text-anchor="middle" x="79" y="-62" font-family="Helvetica,sans-Serif" font-size="10.00">ConfigDialog::ConfigDialog</text>
</a>
</g>
</g>
<!-- Node1&#45;&gt;Node2 -->
<g id="edge1_Node000001_Node000002" class="edge">
<title>Node1&#45;&gt;Node2</title>
<g id="a_edge1_Node000001_Node000002"><a xlink:title=" ">
<path fill="none" stroke="#63b8ff" d="M183.96,-48.72C170.13,-50.82 155.93,-52.98 142.65,-54.99"/>
<polygon fill="#63b8ff" stroke="#63b8ff" points="184.6,-52.17 193.96,-47.21 183.55,-45.25 184.6,-52.17"/>
</a>
</g>
</g>
<!-- Node3 -->
<g id="Node000003" class="node">
<title>Node3</title>
<g id="a_Node000003"><a xlink:href="class_keygen_dialog.html#a565b5698b7bb40720476d61b8b1b8548" target="_top" xlink:title="KeygenDialog::KeygenDialog basic constructor.">
<polygon fill="white" stroke="#666666" points="158,-19 0,-19 0,0 158,0 158,-19"/>
<text text-anchor="middle" x="79" y="-7" font-family="Helvetica,sans-Serif" font-size="10.00">KeygenDialog::KeygenDialog</text>
</a>
</g>
</g>
<!-- Node1&#45;&gt;Node3 -->
<g id="edge3_Node000001_Node000003" class="edge">
<title>Node1&#45;&gt;Node3</title>
<g id="a_edge3_Node000001_Node000003"><a xlink:title=" ">
<path fill="none" stroke="#63b8ff" d="M183.68,-24.67C170.76,-22.78 157.54,-20.85 145.05,-19.02"/>
<polygon fill="#63b8ff" stroke="#63b8ff" points="183.56,-28.19 193.96,-26.18 184.57,-21.27 183.56,-28.19"/>
</a>
</g>
</g>
<!-- Node2&#45;&gt;Node2 -->
<g id="edge2_Node000002_Node000002" class="edge">
<title>Node2&#45;&gt;Node2</title>
<g id="a_edge2_Node000002_Node000002"><a xlink:title=" ">
<path fill="none" stroke="#63b8ff" d="M113.86,-82.07C113.35,-87.62 101.73,-92 79,-92 45.94,-92 36.39,-82.73 50.33,-74.08"/>
<polygon fill="#63b8ff" stroke="#63b8ff" points="116.56,-79.84 107.67,-74.08 111.03,-84.13 116.56,-79.84"/>
</a>
</g>
</g>
<!-- Node3&#45;&gt;Node3 -->
<g id="edge4_Node000003_Node000003" class="edge">
<title>Node3&#45;&gt;Node3</title>
<g id="a_edge4_Node000003_Node000003"><a xlink:title=" ">
<path fill="none" stroke="#63b8ff" d="M113.86,-27.07C113.35,-32.62 101.73,-37 79,-37 45.94,-37 36.39,-27.73 50.33,-19.08"/>
<polygon fill="#63b8ff" stroke="#63b8ff" points="116.56,-24.84 107.67,-19.08 111.03,-29.13 116.56,-24.84"/>
</a>
</g>
</g>
</g>
</svg>
</svg>

<style type='text/css'>
<![CDATA[
[data-mouse-over-selected='false'] { opacity: 0.7; }
[data-mouse-over-selected='true']  { opacity: 1.0; }
]]>
</style>
<script type="application/ecmascript"><![CDATA[
document.addEventListener('DOMContentLoaded', (event) => {
  highlightEdges();
  highlightAdjacentNodes();
});
]]></script>
</svg>
