<?xml version="1.0" encoding="UTF-8" standalone="no"?>
<!DOCTYPE svg PUBLIC "-//W3C//DTD SVG 1.1//EN"
 "http://www.w3.org/Graphics/SVG/1.1/DTD/svg11.dtd">
<!-- Generated by graphviz version 2.43.0 (0)
 -->
<!-- Title: QtPassSettings::isUsePass Pages: 1 -->
<!--zoomable 490 -->

<svg id="main" version="1.1" xmlns="http://www.w3.org/2000/svg" xmlns:xlink="http://www.w3.org/1999/xlink" xml:space="preserve" onload="init(evt)">

<style type="text/css"><![CDATA[
.node, .edge {opacity: 0.7;}
.node.selected, .edge.selected {opacity: 1;}
.edge:hover path { stroke: red; }
.edge:hover polygon { stroke: red; fill: red; }
]]></style>

<defs>
  <circle id="rim" cx="0" cy="0" r="7"/>
  <circle id="rim2" cx="0" cy="0" r="3.5"/>
  <g id="zoomPlus">
    <use xlink:href="#rim" fill="#404040"><set attributeName="fill" to="#808080" begin="zoomplus.mouseover" end="zoomplus.mouseout"/></use>
    <path d="M-4,0h8M0,-4v8" fill="none" stroke="white" stroke-width="1.5" pointer-events="none"/>
  </g>
  <g id="zoomMin">
    <use xlink:href="#rim" fill="#404040"><set attributeName="fill" to="#808080" begin="zoomminus.mouseover" end="zoomminus.mouseout"/></use>
    <path d="M-4,0h8" fill="none" stroke="white" stroke-width="1.5" pointer-events="none"/>
  </g>
  <g id="arrowUp" transform="translate(30 24)">
    <use xlink:href="#rim"/>
    <path pointer-events="none" fill="none" stroke="white" stroke-width="1.5" d="M0,-3.0v7 M-2.5,-0.5L0,-3.0L2.5,-0.5"/>
  </g>
  <g id="arrowRight" transform="rotate(90) translate(36 -43)">
    <use xlink:href="#rim"/>
    <path pointer-events="none" fill="none" stroke="white" stroke-width="1.5" d="M0,-3.0v7 M-2.5,-0.5L0,-3.0L2.5,-0.5"/>
  </g>
  <g id="arrowDown" transform="rotate(180) translate(-30 -48)">
    <use xlink:href="#rim"/>
    <path pointer-events="none" fill="none" stroke="white" stroke-width="1.5" d="M0,-3.0v7 M-2.5,-0.5L0,-3.0L2.5,-0.5"/>
  </g>
  <g id="arrowLeft" transform="rotate(270) translate(-36 17)">
    <use xlink:href="#rim"/>
    <path pointer-events="none" fill="none" stroke="white" stroke-width="1.5" d="M0,-3.0v7 M-2.5,-0.5L0,-3.0L2.5,-0.5"/>
  </g>
  <g id="resetDef">
    <use xlink:href="#rim2" fill="#404040"><set attributeName="fill" to="#808080" begin="reset.mouseover" end="reset.mouseout"/></use>
  </g>
</defs>
<script type="application/ecmascript">
var viewWidth = 700;
var viewHeight = 490;
var sectionId = 'dynsection-105';
</script>
<script type="application/ecmascript" xlink:href="svg.min.js"/>
<svg id="graph" class="graph">
<g id="viewport">
<title>QtPassSettings::isUsePass</title>
<!-- Node1 -->
<g id="Node000001" class="node">
<title>Node1</title>
<g id="a_Node000001"><a xlink:title="Get whether to use pass (true) or GPG (false).">
<polygon fill="#999999" stroke="#666666" points="692,-398.55 548,-398.55 548,-379.55 692,-379.55 692,-398.55"/>
<text text-anchor="middle" x="620" y="-386.55" font-family="Helvetica,sans-Serif" font-size="10.00">QtPassSettings::isUsePass</text>
</a>
</g>
</g>
<!-- Node2 -->
<g id="Node000002" class="node">
<title>Node2</title>
<g id="a_Node000002"><a xlink:href="class_config_dialog.html#a815d6d8ddf1de9386427ddef691a02a1" target="_top" xlink:title="ConfigDialog::ConfigDialog this sets up the configuration screen.">
<polygon fill="white" stroke="#666666" points="341,-463.55 194,-463.55 194,-444.55 341,-444.55 341,-463.55"/>
<text text-anchor="middle" x="267.5" y="-451.55" font-family="Helvetica,sans-Serif" font-size="10.00">ConfigDialog::ConfigDialog</text>
</a>
</g>
</g>
<!-- Node1&#45;&gt;Node2 -->
<g id="edge1_Node000001_Node000002" class="edge">
<title>Node1&#45;&gt;Node2</title>
<g id="a_edge1_Node000001_Node000002"><a xlink:title=" ">
<path fill="none" stroke="#63b8ff" d="M557.6,-400.43C490.19,-412.93 383.16,-432.78 319.98,-444.5"/>
<polygon fill="#63b8ff" stroke="#63b8ff" points="558.46,-403.83 567.66,-398.57 557.19,-396.95 558.46,-403.83"/>
</a>
</g>
</g>
<!-- Node3 -->
<g id="Node000003" class="node">
<title>Node3</title>
<g id="a_Node000003"><a xlink:href="class_util.html#afe6db9149dff37feded5abf38870cda8" target="_top" xlink:title="Verify that the required configuration is complete.">
<polygon fill="white" stroke="#666666" points="496,-398.55 395,-398.55 395,-379.55 496,-379.55 496,-398.55"/>
<text text-anchor="middle" x="445.5" y="-386.55" font-family="Helvetica,sans-Serif" font-size="10.00">Util::configIsValid</text>
</a>
</g>
</g>
<!-- Node1&#45;&gt;Node3 -->
<g id="edge3_Node000001_Node000003" class="edge">
<title>Node1&#45;&gt;Node3</title>
<g id="a_edge3_Node000001_Node000003"><a xlink:title=" ">
<path fill="none" stroke="#63b8ff" d="M537.6,-389.05C523.46,-389.05 509.14,-389.05 496.18,-389.05"/>
<polygon fill="#63b8ff" stroke="#63b8ff" points="537.84,-392.55 547.84,-389.05 537.84,-385.55 537.84,-392.55"/>
</a>
</g>
</g>
<!-- Node7 -->
<g id="Node000007" class="node">
<title>Node7</title>
<g id="a_Node000007"><a xlink:href="class_qt_pass_settings.html#a34ba20416835e4de168d4c66f9076b2b" target="_top" xlink:title="Get currently active pass backend instance.">
<polygon fill="white" stroke="#666666" points="512,-205.55 379,-205.55 379,-186.55 512,-186.55 512,-205.55"/>
<text text-anchor="middle" x="445.5" y="-193.55" font-family="Helvetica,sans-Serif" font-size="10.00">QtPassSettings::getPass</text>
</a>
</g>
</g>
<!-- Node1&#45;&gt;Node7 -->
<g id="edge9_Node000001_Node000007" class="edge">
<title>Node1&#45;&gt;Node7</title>
<g id="a_edge9_Node000001_Node000007"><a xlink:title=" ">
<path fill="none" stroke="#63b8ff" d="M603.75,-371.98C568.55,-332.61 482.6,-236.43 455.11,-205.68"/>
<polygon fill="#63b8ff" stroke="#63b8ff" points="601.17,-374.35 610.45,-379.48 606.39,-369.69 601.17,-374.35"/>
</a>
</g>
</g>
<!-- Node2&#45;&gt;Node2 -->
<g id="edge2_Node000002_Node000002" class="edge">
<title>Node2&#45;&gt;Node2</title>
<g id="a_edge2_Node000002_Node000002"><a xlink:title=" ">
<path fill="none" stroke="#63b8ff" d="M300.81,-472C299.86,-477.36 288.76,-481.55 267.5,-481.55 235.86,-481.55 226.72,-472.28 240.07,-463.63"/>
<polygon fill="#63b8ff" stroke="#63b8ff" points="303.55,-469.8 294.93,-463.63 297.82,-473.83 303.55,-469.8"/>
</a>
</g>
</g>
<!-- Node3&#45;&gt;Node2 -->
<g id="edge6_Node000003_Node000002" class="edge">
<title>Node3&#45;&gt;Node2</title>
<g id="a_edge6_Node000003_Node000002"><a xlink:title=" ">
<path fill="none" stroke="#63b8ff" d="M417.45,-403.35C397.34,-413.54 369,-426.99 343,-436.05 333.83,-439.24 323.83,-442.08 314.22,-444.5"/>
<polygon fill="#63b8ff" stroke="#63b8ff" points="419.32,-406.33 426.61,-398.64 416.12,-400.1 419.32,-406.33"/>
</a>
</g>
</g>
<!-- Node4 -->
<g id="Node000004" class="node">
<title>Node4</title>
<g id="a_Node000004"><a xlink:href="class_main_window.html#aeb8091ab5531144b76c1fbb0d63deb56" target="_top" xlink:title=" ">
<polygon fill="white" stroke="#666666" points="324.5,-334.55 210.5,-334.55 210.5,-315.55 324.5,-315.55 324.5,-334.55"/>
<text text-anchor="middle" x="267.5" y="-322.55" font-family="Helvetica,sans-Serif" font-size="10.00">MainWindow::config</text>
</a>
</g>
</g>
<!-- Node3&#45;&gt;Node4 -->
<g id="edge4_Node000003_Node000004" class="edge">
<title>Node3&#45;&gt;Node4</title>
<g id="a_edge4_Node000003_Node000004"><a xlink:title=" ">
<path fill="none" stroke="#63b8ff" d="M408.64,-376.01C374.84,-363.72 324.98,-345.59 294.74,-334.59"/>
<polygon fill="#63b8ff" stroke="#63b8ff" points="407.56,-379.34 418.15,-379.47 409.95,-372.76 407.56,-379.34"/>
</a>
</g>
</g>
<!-- Node5 -->
<g id="Node000005" class="node">
<title>Node5</title>
<g id="a_Node000005"><a xlink:href="class_qt_pass.html#ad0a4d7627e6303e412d4a832a8bad77c" target="_top" xlink:title="QtPass::init make sure we are ready to go as soon as possible.">
<polygon fill="white" stroke="#666666" points="303,-426.55 232,-426.55 232,-407.55 303,-407.55 303,-426.55"/>
<text text-anchor="middle" x="267.5" y="-414.55" font-family="Helvetica,sans-Serif" font-size="10.00">QtPass::init</text>
</a>
</g>
</g>
<!-- Node3&#45;&gt;Node5 -->
<g id="edge7_Node000003_Node000005" class="edge">
<title>Node3&#45;&gt;Node5</title>
<g id="a_edge7_Node000003_Node000005"><a xlink:title=" ">
<path fill="none" stroke="#63b8ff" d="M384.38,-398.61C357.33,-402.92 326.35,-407.84 303.23,-411.52"/>
<polygon fill="#63b8ff" stroke="#63b8ff" points="385.21,-402.02 394.54,-397 384.11,-395.11 385.21,-402.02"/>
</a>
</g>
</g>
<!-- Node6 -->
<g id="Node000006" class="node">
<title>Node6</title>
<g id="a_Node000006"><a xlink:href="class_config_dialog.html#ad5b80066591f19fdaaa06b7cb5ba7f15" target="_top" xlink:title="ConfigDialog::wizard first&#45;time use wizard.">
<polygon fill="white" stroke="#666666" points="326,-389.55 209,-389.55 209,-370.55 326,-370.55 326,-389.55"/>
<text text-anchor="middle" x="267.5" y="-377.55" font-family="Helvetica,sans-Serif" font-size="10.00">ConfigDialog::wizard</text>
</a>
</g>
</g>
<!-- Node3&#45;&gt;Node6 -->
<g id="edge8_Node000003_Node000006" class="edge">
<title>Node3&#45;&gt;Node6</title>
<g id="a_edge8_Node000003_Node000006"><a xlink:title=" ">
<path fill="none" stroke="#63b8ff" d="M384.55,-385.98C365.63,-385.01 344.79,-383.95 326.05,-382.99"/>
<polygon fill="#63b8ff" stroke="#63b8ff" points="384.37,-389.48 394.54,-386.49 384.73,-382.49 384.37,-389.48"/>
</a>
</g>
</g>
<!-- Node4&#45;&gt;Node4 -->
<g id="edge5_Node000004_Node000004" class="edge">
<title>Node4&#45;&gt;Node4</title>
<g id="a_edge5_Node000004_Node000004"><a xlink:title=" ">
<path fill="none" stroke="#63b8ff" d="M300.81,-343C299.86,-348.36 288.76,-352.55 267.5,-352.55 235.86,-352.55 226.72,-343.28 240.07,-334.63"/>
<polygon fill="#63b8ff" stroke="#63b8ff" points="303.55,-340.8 294.93,-334.63 297.82,-344.83 303.55,-340.8"/>
</a>
</g>
</g>
<!-- Node7&#45;&gt;Node4 -->
<g id="edge11_Node000007_Node000004" class="edge">
<title>Node7&#45;&gt;Node4</title>
<g id="a_edge11_Node000007_Node000004"><a xlink:title=" ">
<path fill="none" stroke="#63b8ff" d="M432.93,-214.37C416.21,-239.3 382.87,-283.49 343,-307.05 337.16,-310.5 330.69,-313.29 324.07,-315.55"/>
<polygon fill="#63b8ff" stroke="#63b8ff" points="435.97,-216.13 438.51,-205.85 430.11,-212.3 435.97,-216.13"/>
</a>
</g>
</g>
<!-- Node8 -->
<g id="Node000008" class="node">
<title>Node8</title>
<g id="a_Node000008"><a xlink:href="class_users_dialog.html#aa1630582c14afcef9ad80398752762a4" target="_top" xlink:title="Handle dialog acceptance.">
<polygon fill="white" stroke="#666666" points="324.5,-297.55 210.5,-297.55 210.5,-278.55 324.5,-278.55 324.5,-297.55"/>
<text text-anchor="middle" x="267.5" y="-285.55" font-family="Helvetica,sans-Serif" font-size="10.00">UsersDialog::accept</text>
</a>
</g>
</g>
<!-- Node7&#45;&gt;Node8 -->
<g id="edge10_Node000007_Node000008" class="edge">
<title>Node7&#45;&gt;Node8</title>
<g id="a_edge10_Node000007_Node000008"><a xlink:title=" ">
<path fill="none" stroke="#63b8ff" d="M426.47,-212.64C407.2,-229.51 375.06,-255.21 343,-270.05 335.75,-273.4 327.81,-276.17 319.9,-278.45"/>
<polygon fill="#63b8ff" stroke="#63b8ff" points="429.01,-215.07 434.14,-205.8 424.35,-209.85 429.01,-215.07"/>
</a>
</g>
</g>
<!-- Node9 -->
<g id="Node000009" class="node">
<title>Node9</title>
<g id="a_Node000009"><a xlink:href="class_store_model.html#a7eddcc6b50d64067e2ccf10c8ac82b8e" target="_top" xlink:title="Handle dropped MIME data.">
<polygon fill="white" stroke="#666666" points="343,-260.55 192,-260.55 192,-241.55 343,-241.55 343,-260.55"/>
<text text-anchor="middle" x="267.5" y="-248.55" font-family="Helvetica,sans-Serif" font-size="10.00">StoreModel::dropMimeData</text>
</a>
</g>
</g>
<!-- Node7&#45;&gt;Node9 -->
<g id="edge12_Node000007_Node000009" class="edge">
<title>Node7&#45;&gt;Node9</title>
<g id="a_edge12_Node000007_Node000009"><a xlink:title=" ">
<path fill="none" stroke="#63b8ff" d="M411.13,-209.29C391.48,-216.81 366.04,-226.09 343,-233.05 332.94,-236.09 321.99,-238.96 311.66,-241.49"/>
<polygon fill="#63b8ff" stroke="#63b8ff" points="412.49,-212.51 420.56,-205.64 409.97,-205.98 412.49,-212.51"/>
</a>
</g>
</g>
<!-- Node10 -->
<g id="Node000010" class="node">
<title>Node10</title>
<g id="a_Node000010"><a xlink:href="class_main_window.html#a52e97245b2f88492071e639395c4a15a" target="_top" xlink:title="MainWindow::MainWindow handles all of the main functionality and also the main window.">
<polygon fill="white" stroke="#666666" points="341.5,-205.55 193.5,-205.55 193.5,-186.55 341.5,-186.55 341.5,-205.55"/>
<text text-anchor="middle" x="267.5" y="-193.55" font-family="Helvetica,sans-Serif" font-size="10.00">MainWindow::MainWindow</text>
</a>
</g>
</g>
<!-- Node7&#45;&gt;Node10 -->
<g id="edge13_Node000007_Node000010" class="edge">
<title>Node7&#45;&gt;Node10</title>
<g id="a_edge13_Node000007_Node000010"><a xlink:title=" ">
<path fill="none" stroke="#63b8ff" d="M368.91,-196.05C359.91,-196.05 350.75,-196.05 341.79,-196.05"/>
<polygon fill="#63b8ff" stroke="#63b8ff" points="368.96,-199.55 378.96,-196.05 368.96,-192.55 368.96,-199.55"/>
</a>
</g>
</g>
<!-- Node11 -->
<g id="Node000011" class="node">
<title>Node11</title>
<g id="a_Node000011"><a xlink:href="class_main_window.html#adc7d4b2b210efab401f0b14641f80464" target="_top" xlink:title="MainWindow::on_treeView_clicked read the selected password file.">
<polygon fill="white" stroke="#666666" points="340.5,-168.05 194.5,-168.05 194.5,-138.05 340.5,-138.05 340.5,-168.05"/>
<text text-anchor="start" x="202.5" y="-156.05" font-family="Helvetica,sans-Serif" font-size="10.00">MainWindow::on_treeView</text>
<text text-anchor="middle" x="267.5" y="-145.05" font-family="Helvetica,sans-Serif" font-size="10.00">_clicked</text>
</a>
</g>
</g>
<!-- Node7&#45;&gt;Node11 -->
<g id="edge15_Node000007_Node000011" class="edge">
<title>Node7&#45;&gt;Node11</title>
<g id="a_edge15_Node000007_Node000011"><a xlink:title=" ">
<path fill="none" stroke="#63b8ff" d="M395.47,-184.07C375.16,-179.11 351.38,-173.3 329.92,-168.05"/>
<polygon fill="#63b8ff" stroke="#63b8ff" points="394.89,-187.53 405.44,-186.5 396.56,-180.73 394.89,-187.53"/>
</a>
</g>
</g>
<!-- Node13 -->
<g id="Node000013" class="node">
<title>Node13</title>
<g id="a_Node000013"><a xlink:href="class_main_window.html#a6961588ebf3c0640200e0cfa920af3be" target="_top" xlink:title="MainWindow::onPush do a git push.">
<polygon fill="white" stroke="#666666" points="327.5,-119.55 207.5,-119.55 207.5,-100.55 327.5,-100.55 327.5,-119.55"/>
<text text-anchor="middle" x="267.5" y="-107.55" font-family="Helvetica,sans-Serif" font-size="10.00">MainWindow::onPush</text>
</a>
</g>
</g>
<!-- Node7&#45;&gt;Node13 -->
<g id="edge17_Node000007_Node000013" class="edge">
<title>Node7&#45;&gt;Node13</title>
<g id="a_edge17_Node000007_Node000013"><a xlink:title=" ">
<path fill="none" stroke="#63b8ff" d="M424.88,-180.2C405.24,-165.06 373.61,-142.59 343,-129.05 334.46,-125.27 325.01,-122.13 315.8,-119.58"/>
<polygon fill="#63b8ff" stroke="#63b8ff" points="422.74,-182.97 432.77,-186.39 427.06,-177.46 422.74,-182.97"/>
</a>
</g>
</g>
<!-- Node14 -->
<g id="Node000014" class="node">
<title>Node14</title>
<g id="a_Node000014"><a xlink:href="class_password_dialog.html#a61ddeb0b0a60558c150a6fbe35306c2e" target="_top" xlink:title="PasswordDialog::PasswordDialog basic constructor.">
<polygon fill="white" stroke="#666666" points="340.5,-64.05 194.5,-64.05 194.5,-34.05 340.5,-34.05 340.5,-64.05"/>
<text text-anchor="start" x="202.5" y="-52.05" font-family="Helvetica,sans-Serif" font-size="10.00">PasswordDialog::Password</text>
<text text-anchor="middle" x="267.5" y="-41.05" font-family="Helvetica,sans-Serif" font-size="10.00">Dialog</text>
</a>
</g>
</g>
<!-- Node7&#45;&gt;Node14 -->
<g id="edge18_Node000007_Node000014" class="edge">
<title>Node7&#45;&gt;Node14</title>
<g id="a_edge18_Node000007_Node000014"><a xlink:title=" ">
<path fill="none" stroke="#63b8ff" d="M430,-178.46C411.37,-156.53 377.3,-118.69 343,-92.05 329.44,-81.51 313.03,-71.76 299.06,-64.22"/>
<polygon fill="#63b8ff" stroke="#63b8ff" points="427.46,-180.88 436.57,-186.29 432.83,-176.38 427.46,-180.88"/>
</a>
</g>
</g>
<!-- Node15 -->
<g id="Node000015" class="node">
<title>Node15</title>
<g id="a_Node000015"><a xlink:href="class_password_dialog.html#a2122f5d2737b70e5602a7bced9b5cf98" target="_top" xlink:title="PasswordDialog::PasswordDialog complete constructor.">
<polygon fill="white" stroke="#666666" points="151,-43.05 5,-43.05 5,-13.05 151,-13.05 151,-43.05"/>
<text text-anchor="start" x="13" y="-31.05" font-family="Helvetica,sans-Serif" font-size="10.00">PasswordDialog::Password</text>
<text text-anchor="middle" x="78" y="-20.05" font-family="Helvetica,sans-Serif" font-size="10.00">Dialog</text>
</a>
</g>
</g>
<!-- Node7&#45;&gt;Node15 -->
<g id="edge21_Node000007_Node000015" class="edge">
<title>Node7&#45;&gt;Node15</title>
<g id="a_edge21_Node000007_Node000015"><a xlink:title=" ">
<path fill="none" stroke="#63b8ff" d="M439.74,-176.57C429.44,-139.19 401.16,-58.16 343,-25.05 277.28,12.37 186.6,0.31 130.45,-13"/>
<polygon fill="#63b8ff" stroke="#63b8ff" points="436.37,-177.48 442.28,-186.27 443.14,-175.71 436.37,-177.48"/>
</a>
</g>
</g>
<!-- Node10&#45;&gt;Node10 -->
<g id="edge14_Node000010_Node000010" class="edge">
<title>Node10&#45;&gt;Node10</title>
<g id="a_edge14_Node000010_Node000010"><a xlink:title=" ">
<path fill="none" stroke="#63b8ff" d="M300.81,-214C299.86,-219.36 288.76,-223.55 267.5,-223.55 235.86,-223.55 226.72,-214.28 240.07,-205.63"/>
<polygon fill="#63b8ff" stroke="#63b8ff" points="303.55,-211.8 294.93,-205.63 297.82,-215.83 303.55,-211.8"/>
</a>
</g>
</g>
<!-- Node12 -->
<g id="Node000012" class="node">
<title>Node12</title>
<g id="a_Node000012"><a xlink:href="class_main_window.html#a55ae3e0d4303334ccabae0a5050cfd88" target="_top" xlink:title="MainWindow::keyPressEvent did anyone press return, enter or escape?">
<polygon fill="white" stroke="#666666" points="156,-162.55 0,-162.55 0,-143.55 156,-143.55 156,-162.55"/>
<text text-anchor="middle" x="78" y="-150.55" font-family="Helvetica,sans-Serif" font-size="10.00">MainWindow::keyPressEvent</text>
</a>
</g>
</g>
<!-- Node11&#45;&gt;Node12 -->
<g id="edge16_Node000011_Node000012" class="edge">
<title>Node11&#45;&gt;Node12</title>
<g id="a_edge16_Node000011_Node000012"><a xlink:title=" ">
<path fill="none" stroke="#63b8ff" d="M184.23,-153.05C174.9,-153.05 165.42,-153.05 156.16,-153.05"/>
<polygon fill="#63b8ff" stroke="#63b8ff" points="184.28,-156.55 194.28,-153.05 184.28,-149.55 184.28,-156.55"/>
</a>
</g>
</g>
<!-- Node14&#45;&gt;Node14 -->
<g id="edge19_Node000014_Node000014" class="edge">
<title>Node14&#45;&gt;Node14</title>
<g id="a_edge19_Node000014_Node000014"><a xlink:title=" ">
<path fill="none" stroke="#63b8ff" d="M298.66,-74.64C294.4,-79.02 284.01,-82.05 267.5,-82.05 239.69,-82.05 229.26,-73.45 236.21,-64.32"/>
<polygon fill="#63b8ff" stroke="#63b8ff" points="302.16,-74.37 298.79,-64.32 295.16,-74.28 302.16,-74.37"/>
</a>
</g>
</g>
<!-- Node14&#45;&gt;Node15 -->
<g id="edge20_Node000014_Node000015" class="edge">
<title>Node14&#45;&gt;Node15</title>
<g id="a_edge20_Node000014_Node000015"><a xlink:title=" ">
<path fill="none" stroke="#63b8ff" d="M184.24,-39.83C173.23,-38.6 162.01,-37.34 151.19,-36.13"/>
<polygon fill="#63b8ff" stroke="#63b8ff" points="183.95,-43.32 194.28,-40.96 184.73,-36.37 183.95,-43.32"/>
</a>
</g>
</g>
</g>
</svg>

<g id="navigator" transform="translate(0 0)" fill="#404254">
  <rect fill="#f2f5e9" fill-opacity="0.5" stroke="#606060" stroke-width=".5" x="0" y="0" width="60" height="60"/>
  <use id="zoomplus" xlink:href="#zoomPlus" x="17" y="9" onmousedown="handleZoom(evt,'in')"/>
  <use id="zoomminus" xlink:href="#zoomMin" x="42" y="9" onmousedown="handleZoom(evt,'out')"/>
  <use id="reset" xlink:href="#resetDef" x="30" y="36" onmousedown="handleReset()"/>
   <use id="arrowup" xlink:href="#arrowUp" x="0" y="0" onmousedown="handlePan(0,-1)"/>
  <use id="arrowright" xlink:href="#arrowRight" x="0" y="0" onmousedown="handlePan(1,0)"/>
  <use id="arrowdown" xlink:href="#arrowDown" x="0" y="0" onmousedown="handlePan(0,1)"/>
  <use id="arrowleft" xlink:href="#arrowLeft" x="0" y="0" onmousedown="handlePan(-1,0)"/>
</g>
<svg viewBox="0 0 15 15" width="100%" height="30px" preserveAspectRatio="xMaxYMin meet">
 <g id="arrow_out" transform="scale(0.3 0.3)">
  <a xlink:href="class_qt_pass_settings_a51d5b6ef611562d9247d5c482e6449a8_icgraph_org.svg" target="_base">
   <rect id="button" ry="5" rx="5" y="6" x="6" height="38" width="38"
        fill="#f2f5e9" fill-opacity="0.5" stroke="#606060" stroke-width="1.0"/>
   <path id="arrow"
     d="M 11.500037,31.436501 C 11.940474,20.09759 22.043105,11.32322 32.158766,21.979434 L 37.068811,17.246167 C 37.068811,17.246167 37.088388,32 37.088388,32 L 22.160133,31.978069 C 22.160133,31.978069 26.997745,27.140456 26.997745,27.140456 C 18.528582,18.264221 13.291696,25.230495 11.500037,31.436501 z"
     style="fill:#404040;"/>
  </a>
 </g>
</svg>

<style type='text/css'>
<![CDATA[
[data-mouse-over-selected='false'] { opacity: 0.7; }
[data-mouse-over-selected='true']  { opacity: 1.0; }
]]>
</style>
<script type="application/ecmascript"><![CDATA[
document.addEventListener('DOMContentLoaded', (event) => {
  highlightEdges();
  highlightAdjacentNodes();
});
]]></script>
</svg>
