<?xml version="1.0" encoding="UTF-8" standalone="no"?>
<!DOCTYPE svg PUBLIC "-//W3C//DTD SVG 1.1//EN"
 "http://www.w3.org/Graphics/SVG/1.1/DTD/svg11.dtd">
<!-- Generated by graphviz version 2.40.1 (20161225.0304)
 -->
<!-- Title: src/configdialog.h Pages: 1 -->
<svg width="274pt" height="137pt"
 viewBox="0.00 0.00 274.24 137.00" xmlns="http://www.w3.org/2000/svg" xmlns:xlink="http://www.w3.org/1999/xlink">
<g id="graph0" class="graph" transform="scale(1 1) rotate(0) translate(4 133)">
<title>src/configdialog.h</title>
<!-- Node0 -->
<g id="node1" class="node">
<title>Node0</title>
<polygon fill="#bfbfbf" stroke="#000000" points="87.2661,-110.5 87.2661,-128.5 181.0884,-128.5 181.0884,-110.5 87.2661,-110.5"/>
<text text-anchor="middle" x="134.1772" y="-116.5" font-family="Helvetica,sans-Serif" font-size="10.00" fill="#000000">src/configdialog.h</text>
</g>
<!-- Node1 -->
<g id="node2" class="node">
<title>Node1</title>
<g id="a_node2"><a xlink:href="enums_8h.html" target="_top" xlink:title="enums.h">
<polygon fill="none" stroke="#000000" points="0,-55.5 0,-73.5 54.3545,-73.5 54.3545,-55.5 0,-55.5"/>
<text text-anchor="middle" x="27.1772" y="-61.5" font-family="Helvetica,sans-Serif" font-size="10.00" fill="#000000">enums.h</text>
</a>
</g>
</g>
<!-- Node0&#45;&gt;Node1 -->
<g id="edge1" class="edge">
<title>Node0&#45;&gt;Node1</title>
<path fill="none" stroke="#191970" d="M116.5084,-110.4179C99.4709,-101.6603 73.461,-88.2907 53.8933,-78.2326"/>
<polygon fill="#191970" stroke="#191970" points="55.3663,-75.0544 44.8724,-73.5956 52.1661,-81.2801 55.3663,-75.0544"/>
</g>
<!-- Node2 -->
<g id="node3" class="node">
<title>Node2</title>
<g id="a_node3"><a xlink:href="passwordconfiguration_8h.html" target="_top" xlink:title="passwordconfiguration.h">
<polygon fill="none" stroke="#000000" points="71.978,-55.5 71.978,-73.5 196.3765,-73.5 196.3765,-55.5 71.978,-55.5"/>
<text text-anchor="middle" x="134.1772" y="-61.5" font-family="Helvetica,sans-Serif" font-size="10.00" fill="#000000">passwordconfiguration.h</text>
</a>
</g>
</g>
<!-- Node0&#45;&gt;Node2 -->
<g id="edge2" class="edge">
<title>Node0&#45;&gt;Node2</title>
<path fill="none" stroke="#191970" d="M134.1772,-110.4179C134.1772,-103.2164 134.1772,-92.8962 134.1772,-83.8632"/>
<polygon fill="#191970" stroke="#191970" points="137.6773,-83.7794 134.1772,-73.7795 130.6773,-83.7795 137.6773,-83.7794"/>
</g>
<!-- Node4 -->
<g id="node5" class="node">
<title>Node4</title>
<polygon fill="none" stroke="#bfbfbf" points="214.1133,-55.5 214.1133,-73.5 266.2412,-73.5 266.2412,-55.5 214.1133,-55.5"/>
<text text-anchor="middle" x="240.1772" y="-61.5" font-family="Helvetica,sans-Serif" font-size="10.00" fill="#000000">QDialog</text>
</g>
<!-- Node0&#45;&gt;Node4 -->
<g id="edge4" class="edge">
<title>Node0&#45;&gt;Node4</title>
<path fill="none" stroke="#191970" d="M151.681,-110.4179C168.5592,-101.6603 194.326,-88.2907 213.7109,-78.2326"/>
<polygon fill="#191970" stroke="#191970" points="215.3832,-81.308 222.6475,-73.5956 212.1592,-75.0946 215.3832,-81.308"/>
</g>
<!-- Node3 -->
<g id="node4" class="node">
<title>Node3</title>
<polygon fill="none" stroke="#bfbfbf" points="109.2266,-.5 109.2266,-18.5 159.1279,-18.5 159.1279,-.5 109.2266,-.5"/>
<text text-anchor="middle" x="134.1772" y="-6.5" font-family="Helvetica,sans-Serif" font-size="10.00" fill="#000000">QString</text>
</g>
<!-- Node2&#45;&gt;Node3 -->
<g id="edge3" class="edge">
<title>Node2&#45;&gt;Node3</title>
<path fill="none" stroke="#191970" d="M134.1772,-55.4179C134.1772,-48.2164 134.1772,-37.8962 134.1772,-28.8632"/>
<polygon fill="#191970" stroke="#191970" points="137.6773,-28.7794 134.1772,-18.7795 130.6773,-28.7795 137.6773,-28.7794"/>
</g>
</g>
</svg>
