<?xml version="1.0" encoding="UTF-8" standalone="no"?>
<!DOCTYPE svg PUBLIC "-//W3C//DTD SVG 1.1//EN"
 "http://www.w3.org/Graphics/SVG/1.1/DTD/svg11.dtd">
<!-- Generated by graphviz version 2.38.0 (20140413.2041)
 -->
<!-- Title: src/debughelper.h Pages: 1 -->
<svg width="1165pt" height="82pt"
 viewBox="0.00 0.00 1165.09 82.00" xmlns="http://www.w3.org/2000/svg" xmlns:xlink="http://www.w3.org/1999/xlink">
<g id="graph0" class="graph" transform="scale(1 1) rotate(0) translate(4 78)">
<title>src/debughelper.h</title>
<!-- Node2 -->
<g id="node1" class="node"><title>Node2</title>
<polygon fill="#bfbfbf" stroke="black" points="535.438,-55.5 535.438,-73.5 630.945,-73.5 630.945,-55.5 535.438,-55.5"/>
<text text-anchor="middle" x="583.192" y="-61.5" font-family="Helvetica,sans-Serif" font-size="10.00">src/debughelper.h</text>
</g>
<!-- Node3 -->
<g id="node2" class="node"><title>Node3</title>
<g id="a_node2"><a xlink:href="configdialog_8cpp.html" target="_top" xlink:title="src/configdialog.cpp">
<polygon fill="none" stroke="black" points="0,-0.5 0,-18.5 104.384,-18.5 104.384,-0.5 0,-0.5"/>
<text text-anchor="middle" x="52.1919" y="-6.5" font-family="Helvetica,sans-Serif" font-size="10.00">src/configdialog.cpp</text>
</a>
</g>
</g>
<!-- Node2&#45;&gt;Node3 -->
<g id="edge1" class="edge"><title>Node2&#45;&gt;Node3</title>
<path fill="none" stroke="midnightblue" d="M525.059,-58.7679C436.344,-51.3695 261.897,-36.1247 114.192,-19 111.062,-18.6371 107.846,-18.2474 104.603,-17.8416"/>
<polygon fill="midnightblue" stroke="midnightblue" points="524.931,-62.2693 535.186,-59.6095 525.51,-55.2933 524.931,-62.2693"/>
</g>
<!-- Node4 -->
<g id="node3" class="node"><title>Node4</title>
<g id="a_node3"><a xlink:href="executor_8cpp.html" target="_top" xlink:title="src/executor.cpp">
<polygon fill="none" stroke="black" points="122.783,-0.5 122.783,-18.5 211.601,-18.5 211.601,-0.5 122.783,-0.5"/>
<text text-anchor="middle" x="167.192" y="-6.5" font-family="Helvetica,sans-Serif" font-size="10.00">src/executor.cpp</text>
</a>
</g>
</g>
<!-- Node2&#45;&gt;Node4 -->
<g id="edge2" class="edge"><title>Node2&#45;&gt;Node4</title>
<path fill="none" stroke="midnightblue" d="M525.073,-57.0471C453.32,-48.9256 327.599,-34.191 220.192,-19 217.424,-18.6085 214.577,-18.192 211.707,-17.7618"/>
<polygon fill="midnightblue" stroke="midnightblue" points="524.93,-60.5531 535.26,-58.1966 525.715,-53.5972 524.93,-60.5531"/>
</g>
<!-- Node5 -->
<g id="node4" class="node"><title>Node5</title>
<g id="a_node4"><a xlink:href="imitatepass_8cpp.html" target="_top" xlink:title="src/imitatepass.cpp">
<polygon fill="none" stroke="black" points="229.399,-0.5 229.399,-18.5 330.985,-18.5 330.985,-0.5 229.399,-0.5"/>
<text text-anchor="middle" x="280.192" y="-6.5" font-family="Helvetica,sans-Serif" font-size="10.00">src/imitatepass.cpp</text>
</a>
</g>
</g>
<!-- Node2&#45;&gt;Node5 -->
<g id="edge3" class="edge"><title>Node2&#45;&gt;Node5</title>
<path fill="none" stroke="midnightblue" d="M527.1,-53.6885C469.216,-43.5636 379.999,-27.9581 326.147,-18.5383"/>
<polygon fill="midnightblue" stroke="midnightblue" points="526.719,-57.175 537.173,-55.4504 527.925,-50.2797 526.719,-57.175"/>
</g>
<!-- Node6 -->
<g id="node5" class="node"><title>Node6</title>
<g id="a_node5"><a xlink:href="keygendialog_8cpp.html" target="_top" xlink:title="src/keygendialog.cpp">
<polygon fill="none" stroke="black" points="349.219,-0.5 349.219,-18.5 459.165,-18.5 459.165,-0.5 349.219,-0.5"/>
<text text-anchor="middle" x="404.192" y="-6.5" font-family="Helvetica,sans-Serif" font-size="10.00">src/keygendialog.cpp</text>
</a>
</g>
</g>
<!-- Node2&#45;&gt;Node6 -->
<g id="edge4" class="edge"><title>Node2&#45;&gt;Node6</title>
<path fill="none" stroke="midnightblue" d="M546.377,-52.5996C512.175,-42.4728 462.034,-27.6265 431.34,-18.5383"/>
<polygon fill="midnightblue" stroke="midnightblue" points="545.423,-55.9673 556.006,-55.4504 547.411,-49.2553 545.423,-55.9673"/>
</g>
<!-- Node7 -->
<g id="node6" class="node"><title>Node7</title>
<g id="a_node6"><a xlink:href="mainwindow_8cpp.html" target="_top" xlink:title="src/mainwindow.cpp">
<polygon fill="none" stroke="black" points="477.448,-0.5 477.448,-18.5 582.936,-18.5 582.936,-0.5 477.448,-0.5"/>
<text text-anchor="middle" x="530.192" y="-6.5" font-family="Helvetica,sans-Serif" font-size="10.00">src/mainwindow.cpp</text>
</a>
</g>
</g>
<!-- Node2&#45;&gt;Node7 -->
<g id="edge5" class="edge"><title>Node2&#45;&gt;Node7</title>
<path fill="none" stroke="midnightblue" d="M567.802,-48.1101C558.136,-38.4438 546.061,-26.3692 538.241,-18.5496"/>
<polygon fill="midnightblue" stroke="midnightblue" points="565.365,-50.6225 574.911,-55.2188 570.314,-45.6728 565.365,-50.6225"/>
</g>
<!-- Node8 -->
<g id="node7" class="node"><title>Node8</title>
<g id="a_node7"><a xlink:href="pass_8cpp.html" target="_top" xlink:title="src/pass.cpp">
<polygon fill="none" stroke="black" points="601.125,-0.5 601.125,-18.5 673.258,-18.5 673.258,-0.5 601.125,-0.5"/>
<text text-anchor="middle" x="637.192" y="-6.5" font-family="Helvetica,sans-Serif" font-size="10.00">src/pass.cpp</text>
</a>
</g>
</g>
<!-- Node2&#45;&gt;Node8 -->
<g id="edge6" class="edge"><title>Node2&#45;&gt;Node8</title>
<path fill="none" stroke="midnightblue" d="M598.872,-48.1101C608.721,-38.4438 621.023,-26.3692 628.99,-18.5496"/>
<polygon fill="midnightblue" stroke="midnightblue" points="596.315,-45.7161 591.629,-55.2188 601.218,-50.7119 596.315,-45.7161"/>
</g>
<!-- Node9 -->
<g id="node8" class="node"><title>Node9</title>
<g id="a_node8"><a xlink:href="passworddialog_8cpp.html" target="_top" xlink:title="src/passworddialog.cpp">
<polygon fill="none" stroke="black" points="690.943,-0.5 690.943,-18.5 811.44,-18.5 811.44,-0.5 690.943,-0.5"/>
<text text-anchor="middle" x="751.192" y="-6.5" font-family="Helvetica,sans-Serif" font-size="10.00">src/passworddialog.cpp</text>
</a>
</g>
</g>
<!-- Node2&#45;&gt;Node9 -->
<g id="edge7" class="edge"><title>Node2&#45;&gt;Node9</title>
<path fill="none" stroke="midnightblue" d="M618.574,-52.3377C650.651,-42.2183 697.151,-27.5485 725.712,-18.5383"/>
<polygon fill="midnightblue" stroke="midnightblue" points="617.191,-49.1039 608.707,-55.4504 619.297,-55.7796 617.191,-49.1039"/>
</g>
<!-- Node10 -->
<g id="node9" class="node"><title>Node10</title>
<g id="a_node9"><a xlink:href="singleapplication_8cpp.html" target="_top" xlink:title="src/singleapplication.cpp">
<polygon fill="none" stroke="black" points="829.717,-0.5 829.717,-18.5 954.667,-18.5 954.667,-0.5 829.717,-0.5"/>
<text text-anchor="middle" x="892.192" y="-6.5" font-family="Helvetica,sans-Serif" font-size="10.00">src/singleapplication.cpp</text>
</a>
</g>
</g>
<!-- Node2&#45;&gt;Node10 -->
<g id="edge8" class="edge"><title>Node2&#45;&gt;Node10</title>
<path fill="none" stroke="midnightblue" d="M640.029,-53.7513C699.048,-43.6283 790.294,-27.9776 845.327,-18.5383"/>
<polygon fill="midnightblue" stroke="midnightblue" points="639.387,-50.3102 630.122,-55.4504 640.57,-57.2095 639.387,-50.3102"/>
</g>
<!-- Node11 -->
<g id="node10" class="node"><title>Node11</title>
<g id="a_node10"><a xlink:href="usersdialog_8cpp.html" target="_top" xlink:title="src/usersdialog.cpp">
<polygon fill="none" stroke="black" points="973.116,-0.5 973.116,-18.5 1075.27,-18.5 1075.27,-0.5 973.116,-0.5"/>
<text text-anchor="middle" x="1024.19" y="-6.5" font-family="Helvetica,sans-Serif" font-size="10.00">src/usersdialog.cpp</text>
</a>
</g>
</g>
<!-- Node2&#45;&gt;Node11 -->
<g id="edge9" class="edge"><title>Node2&#45;&gt;Node11</title>
<path fill="none" stroke="midnightblue" d="M641.35,-57.0894C715.947,-48.775 849.299,-33.6021 963.192,-19 966.374,-18.5921 969.647,-18.163 972.948,-17.7234"/>
<polygon fill="midnightblue" stroke="midnightblue" points="640.774,-53.6319 631.222,-58.2163 641.548,-60.5889 640.774,-53.6319"/>
</g>
<!-- Node12 -->
<g id="node11" class="node"><title>Node12</title>
<g id="a_node11"><a xlink:href="util_8cpp.html" target="_top" xlink:title="src/util.cpp">
<polygon fill="none" stroke="black" points="1093.3,-0.5 1093.3,-18.5 1157.09,-18.5 1157.09,-0.5 1093.3,-0.5"/>
<text text-anchor="middle" x="1125.19" y="-6.5" font-family="Helvetica,sans-Serif" font-size="10.00">src/util.cpp</text>
</a>
</g>
</g>
<!-- Node2&#45;&gt;Node12 -->
<g id="edge10" class="edge"><title>Node2&#45;&gt;Node12</title>
<path fill="none" stroke="midnightblue" d="M641.184,-60.536C734.77,-55.2625 924.74,-42.5292 1084.19,-19 1087.07,-18.5755 1090.05,-18.0762 1093.03,-17.5357"/>
<polygon fill="midnightblue" stroke="midnightblue" points="640.863,-57.0483 631.072,-61.0977 641.251,-64.0375 640.863,-57.0483"/>
</g>
</g>
</svg>
