<?xml version="1.0" encoding="UTF-8" standalone="no"?>
<!DOCTYPE svg PUBLIC "-//W3C//DTD SVG 1.1//EN"
 "http://www.w3.org/Graphics/SVG/1.1/DTD/svg11.dtd">
<!-- Generated by graphviz version 2.38.0 (20140413.2041)
 -->
<!-- Title: debughelper.h Pages: 1 -->
<svg width="1003pt" height="82pt"
 viewBox="0.00 0.00 1002.98 82.00" xmlns="http://www.w3.org/2000/svg" xmlns:xlink="http://www.w3.org/1999/xlink">
<g id="graph0" class="graph" transform="scale(1 1) rotate(0) translate(4 78)">
<title>debughelper.h</title>
<!-- Node2 -->
<g id="node1" class="node"><title>Node2</title>
<polygon fill="#bfbfbf" stroke="black" points="462.438,-55.5 462.438,-73.5 541.837,-73.5 541.837,-55.5 462.438,-55.5"/>
<text text-anchor="middle" x="502.138" y="-61.5" font-family="Helvetica,sans-Serif" font-size="10.00">debughelper.h</text>
</g>
<!-- Node3 -->
<g id="node2" class="node"><title>Node3</title>
<g id="a_node2"><a xlink:href="configdialog_8cpp.html" target="_top" xlink:title="configdialog.cpp">
<polygon fill="none" stroke="black" points="0,-0.5 0,-18.5 88.2754,-18.5 88.2754,-0.5 0,-0.5"/>
<text text-anchor="middle" x="44.1377" y="-6.5" font-family="Helvetica,sans-Serif" font-size="10.00">configdialog.cpp</text>
</a>
</g>
</g>
<!-- Node2&#45;&gt;Node3 -->
<g id="edge1" class="edge"><title>Node2&#45;&gt;Node3</title>
<path fill="none" stroke="midnightblue" d="M452.088,-58.8065C375.5,-51.4425 224.678,-36.2234 97.1377,-19 94.2748,-18.6134 91.3281,-18.1958 88.3598,-17.7603"/>
<polygon fill="midnightblue" stroke="midnightblue" points="452.104,-62.324 462.392,-59.7929 452.771,-55.3558 452.104,-62.324"/>
</g>
<!-- Node4 -->
<g id="node3" class="node"><title>Node4</title>
<g id="a_node3"><a xlink:href="executor_8cpp.html" target="_top" xlink:title="executor.cpp">
<polygon fill="none" stroke="black" points="105.783,-0.5 105.783,-18.5 178.492,-18.5 178.492,-0.5 105.783,-0.5"/>
<text text-anchor="middle" x="142.138" y="-6.5" font-family="Helvetica,sans-Serif" font-size="10.00">executor.cpp</text>
</a>
</g>
</g>
<!-- Node2&#45;&gt;Node4 -->
<g id="edge2" class="edge"><title>Node2&#45;&gt;Node4</title>
<path fill="none" stroke="midnightblue" d="M452.333,-57.1892C390.147,-49.1428 280.57,-34.4153 187.138,-19 184.471,-18.5599 181.718,-18.0869 178.95,-17.5973"/>
<polygon fill="midnightblue" stroke="midnightblue" points="451.901,-60.6624 462.267,-58.4698 452.797,-53.7199 451.901,-60.6624"/>
</g>
<!-- Node5 -->
<g id="node4" class="node"><title>Node5</title>
<g id="a_node4"><a xlink:href="imitatepass_8cpp.html" target="_top" xlink:title="imitatepass.cpp">
<polygon fill="none" stroke="black" points="196.399,-0.5 196.399,-18.5 281.876,-18.5 281.876,-0.5 196.399,-0.5"/>
<text text-anchor="middle" x="239.138" y="-6.5" font-family="Helvetica,sans-Serif" font-size="10.00">imitatepass.cpp</text>
</a>
</g>
</g>
<!-- Node2&#45;&gt;Node5 -->
<g id="edge3" class="edge"><title>Node2&#45;&gt;Node5</title>
<path fill="none" stroke="midnightblue" d="M452.197,-53.4358C401.928,-43.3056 325.382,-27.8801 279.026,-18.5383"/>
<polygon fill="midnightblue" stroke="midnightblue" points="451.699,-56.9059 462.194,-55.4504 453.082,-50.0438 451.699,-56.9059"/>
</g>
<!-- Node6 -->
<g id="node5" class="node"><title>Node6</title>
<g id="a_node5"><a xlink:href="keygendialog_8cpp.html" target="_top" xlink:title="keygendialog.cpp">
<polygon fill="none" stroke="black" points="300.219,-0.5 300.219,-18.5 394.056,-18.5 394.056,-0.5 300.219,-0.5"/>
<text text-anchor="middle" x="347.138" y="-6.5" font-family="Helvetica,sans-Serif" font-size="10.00">keygendialog.cpp</text>
</a>
</g>
</g>
<!-- Node2&#45;&gt;Node6 -->
<g id="edge4" class="edge"><title>Node2&#45;&gt;Node6</title>
<path fill="none" stroke="midnightblue" d="M469.108,-52.2061C439.528,-42.0914 396.883,-27.5095 370.646,-18.5383"/>
<polygon fill="midnightblue" stroke="midnightblue" points="468.002,-55.5267 478.597,-55.4504 470.267,-48.9032 468.002,-55.5267"/>
</g>
<!-- Node7 -->
<g id="node6" class="node"><title>Node7</title>
<g id="a_node6"><a xlink:href="mainwindow_8cpp.html" target="_top" xlink:title="mainwindow.cpp">
<polygon fill="none" stroke="black" points="412.448,-0.5 412.448,-18.5 501.827,-18.5 501.827,-0.5 412.448,-0.5"/>
<text text-anchor="middle" x="457.138" y="-6.5" font-family="Helvetica,sans-Serif" font-size="10.00">mainwindow.cpp</text>
</a>
</g>
</g>
<!-- Node2&#45;&gt;Node7 -->
<g id="edge5" class="edge"><title>Node2&#45;&gt;Node7</title>
<path fill="none" stroke="midnightblue" d="M488.581,-47.5331C480.459,-37.9673 470.48,-26.2143 463.972,-18.5496"/>
<polygon fill="midnightblue" stroke="midnightblue" points="485.966,-49.8611 495.106,-55.2188 491.302,-45.3305 485.966,-49.8611"/>
</g>
<!-- Node8 -->
<g id="node7" class="node"><title>Node8</title>
<g id="a_node7"><a xlink:href="pass_8cpp.html" target="_top" xlink:title="pass.cpp">
<polygon fill="none" stroke="black" points="520.125,-0.5 520.125,-18.5 576.15,-18.5 576.15,-0.5 520.125,-0.5"/>
<text text-anchor="middle" x="548.138" y="-6.5" font-family="Helvetica,sans-Serif" font-size="10.00">pass.cpp</text>
</a>
</g>
</g>
<!-- Node2&#45;&gt;Node8 -->
<g id="edge6" class="edge"><title>Node2&#45;&gt;Node8</title>
<path fill="none" stroke="midnightblue" d="M515.996,-47.5331C524.298,-37.9673 534.499,-26.2143 541.151,-18.5496"/>
<polygon fill="midnightblue" stroke="midnightblue" points="513.237,-45.3724 509.325,-55.2188 518.523,-49.9607 513.237,-45.3724"/>
</g>
<!-- Node9 -->
<g id="node8" class="node"><title>Node9</title>
<g id="a_node8"><a xlink:href="passworddialog_8cpp.html" target="_top" xlink:title="passworddialog.cpp">
<polygon fill="none" stroke="black" points="593.943,-0.5 593.943,-18.5 698.332,-18.5 698.332,-0.5 593.943,-0.5"/>
<text text-anchor="middle" x="646.138" y="-6.5" font-family="Helvetica,sans-Serif" font-size="10.00">passworddialog.cpp</text>
</a>
</g>
</g>
<!-- Node2&#45;&gt;Node9 -->
<g id="edge7" class="edge"><title>Node2&#45;&gt;Node9</title>
<path fill="none" stroke="midnightblue" d="M533.513,-51.952C560.875,-41.8814 599.872,-27.5284 624.061,-18.6253"/>
<polygon fill="midnightblue" stroke="midnightblue" points="532.184,-48.7118 524.008,-55.4504 534.602,-55.2809 532.184,-48.7118"/>
</g>
<!-- Node10 -->
<g id="node9" class="node"><title>Node10</title>
<g id="a_node9"><a xlink:href="singleapplication_8cpp.html" target="_top" xlink:title="singleapplication.cpp">
<polygon fill="none" stroke="black" points="716.717,-0.5 716.717,-18.5 825.559,-18.5 825.559,-0.5 716.717,-0.5"/>
<text text-anchor="middle" x="771.138" y="-6.5" font-family="Helvetica,sans-Serif" font-size="10.00">singleapplication.cpp</text>
</a>
</g>
</g>
<!-- Node2&#45;&gt;Node10 -->
<g id="edge8" class="edge"><title>Node2&#45;&gt;Node10</title>
<path fill="none" stroke="midnightblue" d="M552.02,-53.6718C603.467,-43.5355 682.729,-27.9189 730.496,-18.5075"/>
<polygon fill="midnightblue" stroke="midnightblue" points="551.254,-50.2554 542.119,-55.6226 552.607,-57.1234 551.254,-50.2554"/>
</g>
<!-- Node11 -->
<g id="node10" class="node"><title>Node11</title>
<g id="a_node10"><a xlink:href="usersdialog_8cpp.html" target="_top" xlink:title="usersdialog.cpp">
<polygon fill="none" stroke="black" points="843.116,-0.5 843.116,-18.5 929.16,-18.5 929.16,-0.5 843.116,-0.5"/>
<text text-anchor="middle" x="886.138" y="-6.5" font-family="Helvetica,sans-Serif" font-size="10.00">usersdialog.cpp</text>
</a>
</g>
</g>
<!-- Node2&#45;&gt;Node11 -->
<g id="edge9" class="edge"><title>Node2&#45;&gt;Node11</title>
<path fill="none" stroke="midnightblue" d="M552.027,-57.2678C617.039,-49.0422 734.218,-33.8597 834.138,-19 837.033,-18.5694 840.017,-18.1136 843.022,-17.6457"/>
<polygon fill="midnightblue" stroke="midnightblue" points="551.535,-53.8021 542.052,-58.5271 552.411,-60.747 551.535,-53.8021"/>
</g>
<!-- Node12 -->
<g id="node11" class="node"><title>Node12</title>
<g id="a_node11"><a xlink:href="util_8cpp.html" target="_top" xlink:title="util.cpp">
<polygon fill="none" stroke="black" points="947.295,-0.5 947.295,-18.5 994.98,-18.5 994.98,-0.5 947.295,-0.5"/>
<text text-anchor="middle" x="971.138" y="-6.5" font-family="Helvetica,sans-Serif" font-size="10.00">util.cpp</text>
</a>
</g>
</g>
<!-- Node2&#45;&gt;Node12 -->
<g id="edge10" class="edge"><title>Node2&#45;&gt;Node12</title>
<path fill="none" stroke="midnightblue" d="M552.558,-60.823C634.11,-55.9412 799.792,-43.7325 938.138,-19 941.05,-18.4794 944.083,-17.838 947.079,-17.1427"/>
<polygon fill="midnightblue" stroke="midnightblue" points="551.871,-57.3572 542.093,-61.4367 552.28,-64.3452 551.871,-57.3572"/>
</g>
</g>
</svg>
