<?xml version="1.0" encoding="UTF-8" standalone="no"?>
<!DOCTYPE svg PUBLIC "-//W3C//DTD SVG 1.1//EN"
 "http://www.w3.org/Graphics/SVG/1.1/DTD/svg11.dtd">
<!-- Generated by graphviz version 2.40.1 (20161225.0304)
 -->
<!-- Title: src/debughelper.h Pages: 1 -->
<svg width="1312pt" height="82pt"
 viewBox="0.00 0.00 1312.09 82.00" xmlns="http://www.w3.org/2000/svg" xmlns:xlink="http://www.w3.org/1999/xlink">
<g id="graph0" class="graph" transform="scale(1 1) rotate(0) translate(4 78)">
<title>src/debughelper.h</title>
<!-- Node2 -->
<g id="node1" class="node">
<title>Node2</title>
<polygon fill="#bfbfbf" stroke="#000000" points="589.4385,-55.5 589.4385,-73.5 684.9453,-73.5 684.9453,-55.5 589.4385,-55.5"/>
<text text-anchor="middle" x="637.1919" y="-61.5" font-family="Helvetica,sans-Serif" font-size="10.00" fill="#000000">src/debughelper.h</text>
</g>
<!-- Node3 -->
<g id="node2" class="node">
<title>Node3</title>
<g id="a_node2"><a xlink:href="configdialog_8cpp.html" target="_top" xlink:title="src/configdialog.cpp">
<polygon fill="none" stroke="#000000" points="0,-.5 0,-18.5 104.3838,-18.5 104.3838,-.5 0,-.5"/>
<text text-anchor="middle" x="52.1919" y="-6.5" font-family="Helvetica,sans-Serif" font-size="10.00" fill="#000000">src/configdialog.cpp</text>
</a>
</g>
</g>
<!-- Node2&#45;&gt;Node3 -->
<g id="edge1" class="edge">
<title>Node2&#45;&gt;Node3</title>
<path fill="none" stroke="#191970" d="M578.9785,-60.6816C482.2712,-54.059 282.4842,-39.1921 114.1919,-19 111.0564,-18.6238 107.8357,-18.2109 104.5893,-17.7745"/>
<polygon fill="#191970" stroke="#191970" points="578.9181,-64.1855 589.1327,-61.3725 579.3934,-57.2016 578.9181,-64.1855"/>
</g>
<!-- Node4 -->
<g id="node3" class="node">
<title>Node4</title>
<g id="a_node3"><a xlink:href="executor_8cpp.html" target="_top" xlink:title="src/executor.cpp">
<polygon fill="none" stroke="#000000" points="122.7832,-.5 122.7832,-18.5 211.6006,-18.5 211.6006,-.5 122.7832,-.5"/>
<text text-anchor="middle" x="167.1919" y="-6.5" font-family="Helvetica,sans-Serif" font-size="10.00" fill="#000000">src/executor.cpp</text>
</a>
</g>
</g>
<!-- Node2&#45;&gt;Node4 -->
<g id="edge2" class="edge">
<title>Node2&#45;&gt;Node4</title>
<path fill="none" stroke="#191970" d="M579.2536,-59.4457C498.5727,-52.1192 347.9012,-37.3908 220.1919,-19 217.4161,-18.6003 214.5631,-18.1638 211.689,-17.7046"/>
<polygon fill="#191970" stroke="#191970" points="578.9402,-62.9316 589.2144,-60.3449 579.5696,-55.9599 578.9402,-62.9316"/>
</g>
<!-- Node5 -->
<g id="node4" class="node">
<title>Node5</title>
<g id="a_node4"><a xlink:href="imitatepass_8cpp.html" target="_top" xlink:title="src/imitatepass.cpp">
<polygon fill="none" stroke="#000000" points="229.3989,-.5 229.3989,-18.5 330.9849,-18.5 330.9849,-.5 229.3989,-.5"/>
<text text-anchor="middle" x="280.1919" y="-6.5" font-family="Helvetica,sans-Serif" font-size="10.00" fill="#000000">src/imitatepass.cpp</text>
</a>
</g>
</g>
<!-- Node2&#45;&gt;Node5 -->
<g id="edge3" class="edge">
<title>Node2&#45;&gt;Node5</title>
<path fill="none" stroke="#191970" d="M579.3264,-55.7228C519.4614,-46.6218 423.266,-31.94 340.1919,-19 337.2741,-18.5455 334.2768,-18.0768 331.2522,-17.6024"/>
<polygon fill="#191970" stroke="#191970" points="578.9295,-59.2026 589.3418,-57.2449 579.9812,-52.2821 578.9295,-59.2026"/>
</g>
<!-- Node6 -->
<g id="node5" class="node">
<title>Node6</title>
<g id="a_node5"><a xlink:href="keygendialog_8cpp.html" target="_top" xlink:title="src/keygendialog.cpp">
<polygon fill="none" stroke="#000000" points="349.2192,-.5 349.2192,-18.5 459.1646,-18.5 459.1646,-.5 349.2192,-.5"/>
<text text-anchor="middle" x="404.1919" y="-6.5" font-family="Helvetica,sans-Serif" font-size="10.00" fill="#000000">src/keygendialog.cpp</text>
</a>
</g>
</g>
<!-- Node2&#45;&gt;Node6 -->
<g id="edge4" class="edge">
<title>Node2&#45;&gt;Node6</title>
<path fill="none" stroke="#191970" d="M589.2016,-53.1718C545.7442,-42.9136 482.5596,-27.9988 442.4271,-18.5255"/>
<polygon fill="#191970" stroke="#191970" points="588.441,-56.5884 598.9776,-55.4795 590.0492,-49.7756 588.441,-56.5884"/>
</g>
<!-- Node7 -->
<g id="node6" class="node">
<title>Node7</title>
<g id="a_node6"><a xlink:href="mainwindow_8cpp.html" target="_top" xlink:title="src/mainwindow.cpp">
<polygon fill="none" stroke="#000000" points="477.4482,-.5 477.4482,-18.5 582.9355,-18.5 582.9355,-.5 477.4482,-.5"/>
<text text-anchor="middle" x="530.1919" y="-6.5" font-family="Helvetica,sans-Serif" font-size="10.00" fill="#000000">src/mainwindow.cpp</text>
</a>
</g>
</g>
<!-- Node2&#45;&gt;Node7 -->
<g id="edge5" class="edge">
<title>Node2&#45;&gt;Node7</title>
<path fill="none" stroke="#191970" d="M610.506,-50.7829C590.9448,-40.7282 564.9337,-27.3579 547.887,-18.5956"/>
<polygon fill="#191970" stroke="#191970" points="609.0291,-53.9591 619.523,-55.4179 612.2292,-47.7334 609.0291,-53.9591"/>
</g>
<!-- Node8 -->
<g id="node7" class="node">
<title>Node8</title>
<g id="a_node7"><a xlink:href="pass_8cpp.html" target="_top" xlink:title="src/pass.cpp">
<polygon fill="none" stroke="#000000" points="601.1255,-.5 601.1255,-18.5 673.2583,-18.5 673.2583,-.5 601.1255,-.5"/>
<text text-anchor="middle" x="637.1919" y="-6.5" font-family="Helvetica,sans-Serif" font-size="10.00" fill="#000000">src/pass.cpp</text>
</a>
</g>
</g>
<!-- Node2&#45;&gt;Node8 -->
<g id="edge6" class="edge">
<title>Node2&#45;&gt;Node8</title>
<path fill="none" stroke="#191970" d="M637.1919,-45.383C637.1919,-36.3738 637.1919,-26.0373 637.1919,-18.7795"/>
<polygon fill="#191970" stroke="#191970" points="633.692,-45.4178 637.1919,-55.4179 640.692,-45.4179 633.692,-45.4178"/>
</g>
<!-- Node9 -->
<g id="node8" class="node">
<title>Node9</title>
<g id="a_node8"><a xlink:href="passworddialog_8cpp.html" target="_top" xlink:title="src/passworddialog.cpp">
<polygon fill="none" stroke="#000000" points="690.9434,-.5 690.9434,-18.5 811.4404,-18.5 811.4404,-.5 690.9434,-.5"/>
<text text-anchor="middle" x="751.1919" y="-6.5" font-family="Helvetica,sans-Serif" font-size="10.00" fill="#000000">src/passworddialog.cpp</text>
</a>
</g>
</g>
<!-- Node2&#45;&gt;Node9 -->
<g id="edge7" class="edge">
<title>Node2&#45;&gt;Node9</title>
<path fill="none" stroke="#191970" d="M665.057,-51.0563C685.9598,-40.9716 714.0122,-27.4376 732.3391,-18.5956"/>
<polygon fill="#191970" stroke="#191970" points="663.5024,-47.9202 656.0167,-55.4179 666.5441,-54.2248 663.5024,-47.9202"/>
</g>
<!-- Node10 -->
<g id="node9" class="node">
<title>Node10</title>
<g id="a_node9"><a xlink:href="simpletransaction_8cpp.html" target="_top" xlink:title="src/simpletransaction.cpp">
<polygon fill="none" stroke="#000000" points="829.7808,-.5 829.7808,-18.5 958.603,-18.5 958.603,-.5 829.7808,-.5"/>
<text text-anchor="middle" x="894.1919" y="-6.5" font-family="Helvetica,sans-Serif" font-size="10.00" fill="#000000">src/simpletransaction.cpp</text>
</a>
</g>
</g>
<!-- Node2&#45;&gt;Node10 -->
<g id="edge8" class="edge">
<title>Node2&#45;&gt;Node10</title>
<path fill="none" stroke="#191970" d="M689.2198,-53.3656C737.1777,-43.1023 807.4724,-28.0586 852.0183,-18.5255"/>
<polygon fill="#191970" stroke="#191970" points="688.3885,-49.9642 679.3424,-55.4795 689.8535,-56.8092 688.3885,-49.9642"/>
</g>
<!-- Node11 -->
<g id="node10" class="node">
<title>Node11</title>
<g id="a_node10"><a xlink:href="singleapplication_8cpp.html" target="_top" xlink:title="src/singleapplication.cpp">
<polygon fill="none" stroke="#000000" points="976.7168,-.5 976.7168,-18.5 1101.667,-18.5 1101.667,-.5 976.7168,-.5"/>
<text text-anchor="middle" x="1039.1919" y="-6.5" font-family="Helvetica,sans-Serif" font-size="10.00" fill="#000000">src/singleapplication.cpp</text>
</a>
</g>
</g>
<!-- Node2&#45;&gt;Node11 -->
<g id="edge9" class="edge">
<title>Node2&#45;&gt;Node11</title>
<path fill="none" stroke="#191970" d="M695.4693,-56.5267C770.3005,-46.2886 899.6485,-28.5918 976.5372,-18.0722"/>
<polygon fill="#191970" stroke="#191970" points="694.7164,-53.097 685.2832,-57.9203 695.6654,-60.0324 694.7164,-53.097"/>
</g>
<!-- Node12 -->
<g id="node11" class="node">
<title>Node12</title>
<g id="a_node11"><a xlink:href="usersdialog_8cpp.html" target="_top" xlink:title="src/usersdialog.cpp">
<polygon fill="none" stroke="#000000" points="1120.1157,-.5 1120.1157,-18.5 1222.2681,-18.5 1222.2681,-.5 1120.1157,-.5"/>
<text text-anchor="middle" x="1171.1919" y="-6.5" font-family="Helvetica,sans-Serif" font-size="10.00" fill="#000000">src/usersdialog.cpp</text>
</a>
</g>
</g>
<!-- Node2&#45;&gt;Node12 -->
<g id="edge10" class="edge">
<title>Node2&#45;&gt;Node12</title>
<path fill="none" stroke="#191970" d="M695.152,-60.0255C784.4519,-52.8832 960.9909,-37.7779 1110.1919,-19 1113.3821,-18.5985 1116.6623,-18.1606 1119.9676,-17.7004"/>
<polygon fill="#191970" stroke="#191970" points="694.6531,-56.554 684.9622,-60.8361 695.2083,-63.532 694.6531,-56.554"/>
</g>
<!-- Node13 -->
<g id="node12" class="node">
<title>Node13</title>
<g id="a_node12"><a xlink:href="util_8cpp.html" target="_top" xlink:title="src/util.cpp">
<polygon fill="none" stroke="#000000" points="1240.2954,-.5 1240.2954,-18.5 1304.0884,-18.5 1304.0884,-.5 1240.2954,-.5"/>
<text text-anchor="middle" x="1272.1919" y="-6.5" font-family="Helvetica,sans-Serif" font-size="10.00" fill="#000000">src/util.cpp</text>
</a>
</g>
</g>
<!-- Node2&#45;&gt;Node13 -->
<g id="edge11" class="edge">
<title>Node2&#45;&gt;Node13</title>
<path fill="none" stroke="#191970" d="M695.4474,-62.9583C802.2359,-59.4854 1036.2823,-48.8704 1231.1919,-19 1234.0808,-18.5573 1237.0679,-18.0209 1240.052,-17.4311"/>
<polygon fill="#191970" stroke="#191970" points="695.0932,-59.4677 685.2088,-63.2819 695.3144,-66.4642 695.0932,-59.4677"/>
</g>
</g>
</svg>
