<?xml version="1.0" encoding="UTF-8" standalone="no"?>
<!DOCTYPE svg PUBLIC "-//W3C//DTD SVG 1.1//EN"
 "http://www.w3.org/Graphics/SVG/1.1/DTD/svg11.dtd">
<!-- Generated by graphviz version 2.40.1 (20161225.0304)
 -->
<!-- Title: src/deselectabletreeview.h Pages: 1 -->
<svg width="346pt" height="84pt"
 viewBox="0.00 0.00 346.00 84.00" xmlns="http://www.w3.org/2000/svg" xmlns:xlink="http://www.w3.org/1999/xlink">
<g id="graph0" class="graph" transform="scale(1 1) rotate(0) translate(4 80)">
<title>src/deselectabletreeview.h</title>
<!-- Node0 -->
<g id="node1" class="node">
<title>Node0</title>
<polygon fill="#bfbfbf" stroke="#000000" points="124,-56.5 124,-75.5 257,-75.5 257,-56.5 124,-56.5"/>
<text text-anchor="middle" x="190.5" y="-63.5" font-family="Helvetica,sans-Serif" font-size="10.00" fill="#000000">src/deselectabletreeview.h</text>
</g>
<!-- Node1 -->
<g id="node2" class="node">
<title>Node1</title>
<polygon fill="none" stroke="#bfbfbf" points="0,-.5 0,-19.5 93,-19.5 93,-.5 0,-.5"/>
<text text-anchor="middle" x="46.5" y="-7.5" font-family="Helvetica,sans-Serif" font-size="10.00" fill="#000000">QCoreApplication</text>
</g>
<!-- Node0&#45;&gt;Node1 -->
<g id="edge1" class="edge">
<title>Node0&#45;&gt;Node1</title>
<path fill="none" stroke="#191970" d="M165.7455,-56.3733C142.2151,-47.2226 106.6313,-33.3844 80.4574,-23.2057"/>
<polygon fill="#191970" stroke="#191970" points="81.5201,-19.8636 70.9315,-19.5011 78.9829,-26.3877 81.5201,-19.8636"/>
</g>
<!-- Node2 -->
<g id="node3" class="node">
<title>Node2</title>
<polygon fill="none" stroke="#bfbfbf" points="111,-.5 111,-19.5 190,-19.5 190,-.5 111,-.5"/>
<text text-anchor="middle" x="150.5" y="-7.5" font-family="Helvetica,sans-Serif" font-size="10.00" fill="#000000">QMouseEvent</text>
</g>
<!-- Node0&#45;&gt;Node2 -->
<g id="edge2" class="edge">
<title>Node0&#45;&gt;Node2</title>
<path fill="none" stroke="#191970" d="M183.5325,-56.2455C177.9689,-48.4564 170.022,-37.3308 163.3171,-27.9439"/>
<polygon fill="#191970" stroke="#191970" points="166.0481,-25.7457 157.3876,-19.6427 160.352,-29.8144 166.0481,-25.7457"/>
</g>
<!-- Node3 -->
<g id="node4" class="node">
<title>Node3</title>
<polygon fill="none" stroke="#bfbfbf" points="208.5,-.5 208.5,-19.5 254.5,-19.5 254.5,-.5 208.5,-.5"/>
<text text-anchor="middle" x="231.5" y="-7.5" font-family="Helvetica,sans-Serif" font-size="10.00" fill="#000000">QTime</text>
</g>
<!-- Node0&#45;&gt;Node3 -->
<g id="edge3" class="edge">
<title>Node0&#45;&gt;Node3</title>
<path fill="none" stroke="#191970" d="M197.6417,-56.2455C203.3444,-48.4564 211.49,-37.3308 218.3625,-27.9439"/>
<polygon fill="#191970" stroke="#191970" points="221.3568,-29.7789 224.4402,-19.6427 215.7087,-25.6437 221.3568,-29.7789"/>
</g>
<!-- Node4 -->
<g id="node5" class="node">
<title>Node4</title>
<polygon fill="none" stroke="#bfbfbf" points="273,-.5 273,-19.5 338,-19.5 338,-.5 273,-.5"/>
<text text-anchor="middle" x="305.5" y="-7.5" font-family="Helvetica,sans-Serif" font-size="10.00" fill="#000000">QTreeView</text>
</g>
<!-- Node0&#45;&gt;Node4 -->
<g id="edge4" class="edge">
<title>Node0&#45;&gt;Node4</title>
<path fill="none" stroke="#191970" d="M210.2692,-56.3733C228.6469,-47.4241 256.2312,-33.9917 276.9893,-23.8835"/>
<polygon fill="#191970" stroke="#191970" points="278.5304,-27.026 285.9888,-19.5011 275.4657,-20.7325 278.5304,-27.026"/>
</g>
</g>
</svg>
