<?xml version="1.0" encoding="UTF-8" standalone="no"?>
<!DOCTYPE svg PUBLIC "-//W3C//DTD SVG 1.1//EN"
 "http://www.w3.org/Graphics/SVG/1.1/DTD/svg11.dtd">
<!-- Generated by graphviz version 2.38.0 (20140413.2041)
 -->
<!-- Title: deselectabletreeview.h Pages: 1 -->
<svg width="833pt" height="192pt"
 viewBox="0.00 0.00 832.68 192.00" xmlns="http://www.w3.org/2000/svg" xmlns:xlink="http://www.w3.org/1999/xlink">
<g id="graph0" class="graph" transform="scale(1 1) rotate(0) translate(4 188)">
<title>deselectabletreeview.h</title>
<!-- Node0 -->
<g id="node1" class="node"><title>Node0</title>
<polygon fill="#bfbfbf" stroke="black" points="123.643,-165.5 123.643,-183.5 240.825,-183.5 240.825,-165.5 123.643,-165.5"/>
<text text-anchor="middle" x="182.234" y="-171.5" font-family="Helvetica,sans-Serif" font-size="10.00">deselectabletreeview.h</text>
</g>
<!-- Node1 -->
<g id="node2" class="node"><title>Node1</title>
<polygon fill="none" stroke="#bfbfbf" points="37.6108,-110.5 37.6108,-128.5 90.8569,-128.5 90.8569,-110.5 37.6108,-110.5"/>
<text text-anchor="middle" x="64.2339" y="-116.5" font-family="Helvetica,sans-Serif" font-size="10.00">QDebug</text>
</g>
<!-- Node0&#45;&gt;Node1 -->
<g id="edge1" class="edge"><title>Node0&#45;&gt;Node1</title>
<path fill="none" stroke="midnightblue" d="M164.312,-165.45C144.993,-156.773 114.007,-142.856 91.628,-132.804"/>
<polygon fill="midnightblue" stroke="midnightblue" points="92.8804,-129.53 82.3242,-128.625 90.0123,-135.915 92.8804,-129.53"/>
</g>
<!-- Node2 -->
<g id="node3" class="node"><title>Node2</title>
<polygon fill="none" stroke="#bfbfbf" points="108.552,-110.5 108.552,-128.5 187.916,-128.5 187.916,-110.5 108.552,-110.5"/>
<text text-anchor="middle" x="148.234" y="-116.5" font-family="Helvetica,sans-Serif" font-size="10.00">QMouseEvent</text>
</g>
<!-- Node0&#45;&gt;Node2 -->
<g id="edge2" class="edge"><title>Node0&#45;&gt;Node2</title>
<path fill="none" stroke="midnightblue" d="M176.921,-165.219C172.103,-157.707 164.856,-146.411 158.852,-137.052"/>
<polygon fill="midnightblue" stroke="midnightblue" points="161.743,-135.077 153.398,-128.55 155.851,-138.856 161.743,-135.077"/>
</g>
<!-- Node3 -->
<g id="node4" class="node"><title>Node3</title>
<polygon fill="none" stroke="#bfbfbf" points="121.498,-55.5 121.498,-73.5 186.97,-73.5 186.97,-55.5 121.498,-55.5"/>
<text text-anchor="middle" x="154.234" y="-61.5" font-family="Helvetica,sans-Serif" font-size="10.00">QTreeView</text>
</g>
<!-- Node0&#45;&gt;Node3 -->
<g id="edge3" class="edge"><title>Node0&#45;&gt;Node3</title>
<path fill="none" stroke="midnightblue" d="M187.206,-165.441C194.119,-153.145 204.96,-129.114 197.234,-110 192.487,-98.2562 182.991,-87.8905 174.128,-80.1246"/>
<polygon fill="midnightblue" stroke="midnightblue" points="176.282,-77.3654 166.32,-73.7587 171.859,-82.7906 176.282,-77.3654"/>
</g>
<!-- Node4 -->
<g id="node5" class="node"><title>Node4</title>
<g id="a_node5"><a xlink:href="mainwindow_8h.html" target="_top" xlink:title="mainwindow.h">
<polygon fill="none" stroke="black" points="360.825,-110.5 360.825,-128.5 439.643,-128.5 439.643,-110.5 360.825,-110.5"/>
<text text-anchor="middle" x="400.234" y="-116.5" font-family="Helvetica,sans-Serif" font-size="10.00">mainwindow.h</text>
</a>
</g>
</g>
<!-- Node0&#45;&gt;Node4 -->
<g id="edge4" class="edge"><title>Node0&#45;&gt;Node4</title>
<path fill="none" stroke="midnightblue" d="M215.343,-165.45C253.307,-156.221 315.652,-141.063 357.313,-130.935"/>
<polygon fill="midnightblue" stroke="midnightblue" points="358.281,-134.302 367.171,-128.538 356.627,-127.5 358.281,-134.302"/>
</g>
<!-- Node4&#45;&gt;Node3 -->
<g id="edge22" class="edge"><title>Node4&#45;&gt;Node3</title>
<path fill="none" stroke="midnightblue" d="M362.872,-110.45C318.293,-100.846 243.92,-84.8226 197.059,-74.7266"/>
<polygon fill="midnightblue" stroke="midnightblue" points="197.724,-71.2896 187.211,-72.6048 196.25,-78.1326 197.724,-71.2896"/>
</g>
<!-- Node5 -->
<g id="node6" class="node"><title>Node5</title>
<g id="a_node6"><a xlink:href="storemodel_8h.html" target="_top" xlink:title="storemodel.h">
<polygon fill="none" stroke="black" points="243.33,-55.5 243.33,-73.5 317.138,-73.5 317.138,-55.5 243.33,-55.5"/>
<text text-anchor="middle" x="280.234" y="-61.5" font-family="Helvetica,sans-Serif" font-size="10.00">storemodel.h</text>
</a>
</g>
</g>
<!-- Node4&#45;&gt;Node5 -->
<g id="edge5" class="edge"><title>Node4&#45;&gt;Node5</title>
<path fill="none" stroke="midnightblue" d="M382.008,-110.45C362.273,-101.734 330.567,-87.7306 307.787,-77.6691"/>
<polygon fill="midnightblue" stroke="midnightblue" points="309.192,-74.4639 298.631,-73.6253 306.364,-80.8672 309.192,-74.4639"/>
</g>
<!-- Node6 -->
<g id="node7" class="node"><title>Node6</title>
<polygon fill="none" stroke="#bfbfbf" points="0,-0.5 0,-18.5 100.468,-18.5 100.468,-0.5 0,-0.5"/>
<text text-anchor="middle" x="50.2339" y="-6.5" font-family="Helvetica,sans-Serif" font-size="10.00">QFileSystemModel</text>
</g>
<!-- Node4&#45;&gt;Node6 -->
<g id="edge16" class="edge"><title>Node4&#45;&gt;Node6</title>
<path fill="none" stroke="midnightblue" d="M361.633,-110.478C327.539,-102.848 276.774,-90.1473 234.234,-74 216.581,-67.2991 213.771,-61.9994 196.234,-55 161.89,-41.2928 121.606,-29.3066 92.0627,-21.2382"/>
<polygon fill="midnightblue" stroke="midnightblue" points="92.6543,-17.7728 82.0881,-18.5512 90.8335,-24.5319 92.6543,-17.7728"/>
</g>
<!-- Node9 -->
<g id="node10" class="node"><title>Node9</title>
<g id="a_node10"><a xlink:href="trayicon_8h.html" target="_top" xlink:title="trayicon.h">
<polygon fill="none" stroke="black" points="399.557,-55.5 399.557,-73.5 458.911,-73.5 458.911,-55.5 399.557,-55.5"/>
<text text-anchor="middle" x="429.234" y="-61.5" font-family="Helvetica,sans-Serif" font-size="10.00">trayicon.h</text>
</a>
</g>
</g>
<!-- Node4&#45;&gt;Node9 -->
<g id="edge9" class="edge"><title>Node4&#45;&gt;Node9</title>
<path fill="none" stroke="midnightblue" d="M404.765,-110.219C408.832,-102.786 414.928,-91.646 420.017,-82.3446"/>
<polygon fill="midnightblue" stroke="midnightblue" points="423.1,-84.0023 424.829,-73.5496 416.959,-80.6421 423.1,-84.0023"/>
</g>
<!-- Node12 -->
<g id="node13" class="node"><title>Node12</title>
<polygon fill="none" stroke="#bfbfbf" points="330.724,-0.5 330.724,-18.5 411.744,-18.5 411.744,-0.5 330.724,-0.5"/>
<text text-anchor="middle" x="371.234" y="-6.5" font-family="Helvetica,sans-Serif" font-size="10.00">QMainWindow</text>
</g>
<!-- Node4&#45;&gt;Node12 -->
<g id="edge17" class="edge"><title>Node4&#45;&gt;Node12</title>
<path fill="none" stroke="midnightblue" d="M398.054,-110.382C393.415,-93.104 382.466,-52.3294 376.084,-28.5629"/>
<polygon fill="midnightblue" stroke="midnightblue" points="379.413,-27.4619 373.439,-18.7118 372.652,-29.2773 379.413,-27.4619"/>
</g>
<!-- Node16 -->
<g id="node17" class="node"><title>Node16</title>
<polygon fill="none" stroke="#bfbfbf" points="477.283,-55.5 477.283,-73.5 537.185,-73.5 537.185,-55.5 477.283,-55.5"/>
<text text-anchor="middle" x="507.234" y="-61.5" font-family="Helvetica,sans-Serif" font-size="10.00">QProcess</text>
</g>
<!-- Node4&#45;&gt;Node16 -->
<g id="edge18" class="edge"><title>Node4&#45;&gt;Node16</title>
<path fill="none" stroke="midnightblue" d="M416.485,-110.45C433.846,-101.851 461.598,-88.1048 481.846,-78.0755"/>
<polygon fill="midnightblue" stroke="midnightblue" points="483.423,-81.2003 490.83,-73.6253 480.315,-74.9276 483.423,-81.2003"/>
</g>
<!-- Node17 -->
<g id="node18" class="node"><title>Node17</title>
<polygon fill="none" stroke="#bfbfbf" points="555.333,-55.5 555.333,-73.5 609.135,-73.5 609.135,-55.5 555.333,-55.5"/>
<text text-anchor="middle" x="582.234" y="-61.5" font-family="Helvetica,sans-Serif" font-size="10.00">QQueue</text>
</g>
<!-- Node4&#45;&gt;Node17 -->
<g id="edge19" class="edge"><title>Node4&#45;&gt;Node17</title>
<path fill="none" stroke="midnightblue" d="M427.876,-110.45C459.282,-101.305 510.675,-86.3385 545.448,-76.2123"/>
<polygon fill="midnightblue" stroke="midnightblue" points="546.602,-79.5218 555.225,-73.3654 544.645,-72.801 546.602,-79.5218"/>
</g>
<!-- Node18 -->
<g id="node19" class="node"><title>Node18</title>
<polygon fill="none" stroke="#bfbfbf" points="627.278,-55.5 627.278,-73.5 687.189,-73.5 687.189,-55.5 627.278,-55.5"/>
<text text-anchor="middle" x="657.234" y="-61.5" font-family="Helvetica,sans-Serif" font-size="10.00">QSettings</text>
</g>
<!-- Node4&#45;&gt;Node18 -->
<g id="edge20" class="edge"><title>Node4&#45;&gt;Node18</title>
<path fill="none" stroke="midnightblue" d="M439.649,-110.617C481.289,-102.254 549.135,-88.5237 616.999,-74.2398"/>
<polygon fill="midnightblue" stroke="midnightblue" points="617.946,-77.6171 627.009,-72.1289 616.502,-70.7677 617.946,-77.6171"/>
</g>
<!-- Node19 -->
<g id="node20" class="node"><title>Node19</title>
<polygon fill="none" stroke="#bfbfbf" points="704.752,-55.5 704.752,-73.5 753.716,-73.5 753.716,-55.5 704.752,-55.5"/>
<text text-anchor="middle" x="729.234" y="-61.5" font-family="Helvetica,sans-Serif" font-size="10.00">QTimer</text>
</g>
<!-- Node4&#45;&gt;Node19 -->
<g id="edge21" class="edge"><title>Node4&#45;&gt;Node19</title>
<path fill="none" stroke="midnightblue" d="M439.722,-113.876C494.792,-107.141 597.939,-93.4862 694.507,-74.1885"/>
<polygon fill="midnightblue" stroke="midnightblue" points="695.324,-77.5942 704.431,-72.1803 693.936,-70.7333 695.324,-77.5942"/>
</g>
<!-- Node5&#45;&gt;Node6 -->
<g id="edge6" class="edge"><title>Node5&#45;&gt;Node6</title>
<path fill="none" stroke="midnightblue" d="M245.302,-55.4504C205.08,-46.1818 138.915,-30.9352 94.9613,-20.8068"/>
<polygon fill="midnightblue" stroke="midnightblue" points="95.6477,-17.3733 85.1171,-18.5383 94.0758,-24.1945 95.6477,-17.3733"/>
</g>
<!-- Node7 -->
<g id="node8" class="node"><title>Node7</title>
<polygon fill="none" stroke="#bfbfbf" points="118.557,-0.5 118.557,-18.5 177.911,-18.5 177.911,-0.5 118.557,-0.5"/>
<text text-anchor="middle" x="148.234" y="-6.5" font-family="Helvetica,sans-Serif" font-size="10.00">QRegExp</text>
</g>
<!-- Node5&#45;&gt;Node7 -->
<g id="edge7" class="edge"><title>Node5&#45;&gt;Node7</title>
<path fill="none" stroke="midnightblue" d="M260.186,-55.4504C238.283,-46.6562 202.977,-32.4802 177.873,-22.4006"/>
<polygon fill="midnightblue" stroke="midnightblue" points="179.055,-19.1034 168.471,-18.6253 176.446,-25.5994 179.055,-19.1034"/>
</g>
<!-- Node8 -->
<g id="node9" class="node"><title>Node8</title>
<polygon fill="none" stroke="#bfbfbf" points="195.665,-0.5 195.665,-18.5 312.803,-18.5 312.803,-0.5 195.665,-0.5"/>
<text text-anchor="middle" x="254.234" y="-6.5" font-family="Helvetica,sans-Serif" font-size="10.00">QSortFilterProxyModel</text>
</g>
<!-- Node5&#45;&gt;Node8 -->
<g id="edge8" class="edge"><title>Node5&#45;&gt;Node8</title>
<path fill="none" stroke="midnightblue" d="M276.171,-55.2188C272.563,-47.8639 267.175,-36.8801 262.642,-27.639"/>
<polygon fill="midnightblue" stroke="midnightblue" points="265.729,-25.986 258.183,-18.5496 259.445,-29.069 265.729,-25.986"/>
</g>
<!-- Node10 -->
<g id="node11" class="node"><title>Node10</title>
<polygon fill="none" stroke="#bfbfbf" points="429.448,-0.5 429.448,-18.5 481.02,-18.5 481.02,-0.5 429.448,-0.5"/>
<text text-anchor="middle" x="455.234" y="-6.5" font-family="Helvetica,sans-Serif" font-size="10.00">QAction</text>
</g>
<!-- Node9&#45;&gt;Node10 -->
<g id="edge10" class="edge"><title>Node9&#45;&gt;Node10</title>
<path fill="none" stroke="midnightblue" d="M433.296,-55.2188C436.904,-47.8639 442.293,-36.8801 446.826,-27.639"/>
<polygon fill="midnightblue" stroke="midnightblue" points="450.023,-29.069 451.285,-18.5496 443.738,-25.986 450.023,-29.069"/>
</g>
<!-- Node11 -->
<g id="node12" class="node"><title>Node11</title>
<polygon fill="none" stroke="#bfbfbf" points="498.884,-0.5 498.884,-18.5 571.583,-18.5 571.583,-0.5 498.884,-0.5"/>
<text text-anchor="middle" x="535.234" y="-6.5" font-family="Helvetica,sans-Serif" font-size="10.00">QApplication</text>
</g>
<!-- Node9&#45;&gt;Node11 -->
<g id="edge11" class="edge"><title>Node9&#45;&gt;Node11</title>
<path fill="none" stroke="midnightblue" d="M445.333,-55.4504C462.455,-46.8897 489.776,-33.2291 509.81,-23.2119"/>
<polygon fill="midnightblue" stroke="midnightblue" points="511.604,-26.228 518.983,-18.6253 508.474,-19.967 511.604,-26.228"/>
</g>
<!-- Node9&#45;&gt;Node12 -->
<g id="edge12" class="edge"><title>Node9&#45;&gt;Node12</title>
<path fill="none" stroke="midnightblue" d="M420.171,-55.2188C411.438,-47.2379 398.028,-34.9842 387.453,-25.3207"/>
<polygon fill="midnightblue" stroke="midnightblue" points="389.786,-22.7116 380.043,-18.5496 385.064,-27.879 389.786,-22.7116"/>
</g>
<!-- Node13 -->
<g id="node14" class="node"><title>Node13</title>
<polygon fill="none" stroke="#bfbfbf" points="589.837,-0.5 589.837,-18.5 638.63,-18.5 638.63,-0.5 589.837,-0.5"/>
<text text-anchor="middle" x="614.234" y="-6.5" font-family="Helvetica,sans-Serif" font-size="10.00">QMenu</text>
</g>
<!-- Node9&#45;&gt;Node13 -->
<g id="edge13" class="edge"><title>Node9&#45;&gt;Node13</title>
<path fill="none" stroke="midnightblue" d="M457.331,-55.4504C490.175,-46.0412 544.524,-30.4711 579.855,-20.3492"/>
<polygon fill="midnightblue" stroke="midnightblue" points="581.073,-23.641 589.723,-17.5222 579.145,-16.9117 581.073,-23.641"/>
</g>
<!-- Node14 -->
<g id="node15" class="node"><title>Node14</title>
<polygon fill="none" stroke="#bfbfbf" points="656.407,-0.5 656.407,-18.5 752.061,-18.5 752.061,-0.5 656.407,-0.5"/>
<text text-anchor="middle" x="704.234" y="-6.5" font-family="Helvetica,sans-Serif" font-size="10.00">QSystemTrayIcon</text>
</g>
<!-- Node9&#45;&gt;Node14 -->
<g id="edge14" class="edge"><title>Node9&#45;&gt;Node14</title>
<path fill="none" stroke="midnightblue" d="M459.026,-56.9162C462.133,-56.2568 465.246,-55.6072 468.234,-55 530.221,-42.4035 601.62,-29.1087 649.507,-20.3671"/>
<polygon fill="midnightblue" stroke="midnightblue" points="650.146,-23.8084 659.357,-18.5727 648.891,-16.9217 650.146,-23.8084"/>
</g>
<!-- Node15 -->
<g id="node16" class="node"><title>Node15</title>
<polygon fill="none" stroke="#bfbfbf" points="769.783,-0.5 769.783,-18.5 824.685,-18.5 824.685,-0.5 769.783,-0.5"/>
<text text-anchor="middle" x="797.234" y="-6.5" font-family="Helvetica,sans-Serif" font-size="10.00">QWidget</text>
</g>
<!-- Node9&#45;&gt;Node15 -->
<g id="edge15" class="edge"><title>Node9&#45;&gt;Node15</title>
<path fill="none" stroke="midnightblue" d="M458.989,-56.7185C462.103,-56.0976 465.228,-55.5111 468.234,-55 594.421,-33.5438 630.342,-41.6833 759.878,-19.0658"/>
<polygon fill="midnightblue" stroke="midnightblue" points="760.546,-22.5019 769.781,-17.3091 759.324,-15.6095 760.546,-22.5019"/>
</g>
</g>
</svg>
