<?xml version="1.0" encoding="UTF-8" standalone="no"?>
<!DOCTYPE svg PUBLIC "-//W3C//DTD SVG 1.1//EN"
 "http://www.w3.org/Graphics/SVG/1.1/DTD/svg11.dtd">
<!-- Generated by graphviz version 2.44.0 (20200408.0750)
 -->
<!-- Title: src/enums.h Pages: 1 -->
<!--zoomable 252 -->
<svg id="main" version="1.1" xmlns="http://www.w3.org/2000/svg" xmlns:xlink="http://www.w3.org/1999/xlink" xml:space="preserve" onload="init(evt)">
<style type="text/css"><![CDATA[
.edge:hover path { stroke: red; }
.edge:hover polygon { stroke: red; fill: red; }
]]></style>
<script type="text/javascript"><![CDATA[
var edges = document.getElementsByTagName('g');
if (edges && edges.length) {
  for (var i=0;i<edges.length;i++) {
    if (edges[i].id.substr(0,4)=='edge') {
      edges[i].setAttribute('class','edge');
    }
  }
}
]]></script>
        <defs>
                <circle id="rim" cx="0" cy="0" r="7"/>
                <circle id="rim2" cx="0" cy="0" r="3.5"/>
                <g id="zoomPlus">
                        <use xlink:href="#rim" fill="#404040">
                                <set attributeName="fill" to="#808080" begin="zoomplus.mouseover" end="zoomplus.mouseout"/>
                        </use>
                        <path d="M-4,0h8M0,-4v8" fill="none" stroke="white" stroke-width="1.5" pointer-events="none"/>
                </g>
                <g id="zoomMin">
                        <use xlink:href="#rim" fill="#404040">
                                <set attributeName="fill" to="#808080" begin="zoomminus.mouseover" end="zoomminus.mouseout"/>
                        </use>
                        <path d="M-4,0h8" fill="none" stroke="white" stroke-width="1.5" pointer-events="none"/>
                </g>
                <g id="dirArrow">
                        <path fill="none" stroke="white" stroke-width="1.5" d="M0,-3.0v7 M-2.5,-0.5L0,-3.0L2.5,-0.5"/>
                </g>
               <g id="resetDef">
                       <use xlink:href="#rim2" fill="#404040">
                               <set attributeName="fill" to="#808080" begin="reset.mouseover" end="reset.mouseout"/>
                       </use>
               </g>
        </defs>

<script type="text/javascript">
var viewWidth = 1373;
var viewHeight = 252;
var sectionId = 'dynsection-0';
</script>
<script xlink:href="svgpan.js"/>
<svg id="graph" class="graph">
<g id="viewport">
<title>src/enums.h</title>
<!-- Node1 -->
<g id="node1" class="node">
<title>Node1</title>
<g id="a_node1"><a xlink:title=" ">
<polygon fill="#bfbfbf" stroke="black" points="920,-224.5 920,-243.5 991,-243.5 991,-224.5 920,-224.5"/>
<text text-anchor="middle" x="955.5" y="-231.5" font-family="Helvetica,sans-Serif" font-size="10.00">src/enums.h</text>
</a>
</g>
</g>
<!-- Node2 -->
<g id="node2" class="node">
<title>Node2</title>
<g id="a_node2"><a xlink:href="configdialog_8h.html" target="_top" xlink:title=" ">
<polygon fill="none" stroke="black" points="194,-56.5 194,-75.5 287,-75.5 287,-56.5 194,-56.5"/>
<text text-anchor="middle" x="240.5" y="-63.5" font-family="Helvetica,sans-Serif" font-size="10.00">src/configdialog.h</text>
</a>
</g>
</g>
<!-- Node1&#45;&gt;Node2 -->
<g id="edge1" class="edge">
<title>Node1&#45;&gt;Node2</title>
<path fill="none" stroke="midnightblue" d="M909.74,-222.38C777.66,-191.71 397.54,-103.46 277.37,-75.56"/>
<polygon fill="midnightblue" stroke="midnightblue" points="909.02,-225.8 919.55,-224.65 910.6,-218.98 909.02,-225.8"/>
</g>
<!-- Node6 -->
<g id="node6" class="node">
<title>Node6</title>
<g id="a_node6"><a xlink:href="qtpasssettings_8h.html" target="_top" xlink:title=" ">
<polygon fill="none" stroke="black" points="796,-56.5 796,-75.5 901,-75.5 901,-56.5 796,-56.5"/>
<text text-anchor="middle" x="848.5" y="-63.5" font-family="Helvetica,sans-Serif" font-size="10.00">src/qtpasssettings.h</text>
</a>
</g>
</g>
<!-- Node1&#45;&gt;Node6 -->
<g id="edge5" class="edge">
<title>Node1&#45;&gt;Node6</title>
<path fill="none" stroke="midnightblue" d="M949.1,-214.98C939.83,-190.3 921.04,-145.26 896.5,-112 885.92,-97.66 870.41,-84.09 859.91,-75.67"/>
<polygon fill="midnightblue" stroke="midnightblue" points="945.86,-216.31 952.58,-224.5 952.43,-213.9 945.86,-216.31"/>
</g>
<!-- Node16 -->
<g id="node16" class="node">
<title>Node16</title>
<g id="a_node16"><a xlink:href="pass_8h.html" target="_top" xlink:title=" ">
<polygon fill="none" stroke="black" points="955.5,-168.5 955.5,-187.5 1017.5,-187.5 1017.5,-168.5 955.5,-168.5"/>
<text text-anchor="middle" x="986.5" y="-175.5" font-family="Helvetica,sans-Serif" font-size="10.00">src/pass.h</text>
</a>
</g>
</g>
<!-- Node1&#45;&gt;Node16 -->
<g id="edge17" class="edge">
<title>Node1&#45;&gt;Node16</title>
<path fill="none" stroke="midnightblue" d="M965.68,-215.27C970.97,-206.05 977.22,-195.17 981.48,-187.75"/>
<polygon fill="midnightblue" stroke="midnightblue" points="962.56,-213.67 960.62,-224.08 968.63,-217.15 962.56,-213.67"/>
</g>
<!-- Node19 -->
<g id="node19" class="node">
<title>Node19</title>
<g id="a_node19"><a xlink:href="simpletransaction_8h.html" target="_top" xlink:title=" ">
<polygon fill="none" stroke="black" points="1047.5,-168.5 1047.5,-187.5 1165.5,-187.5 1165.5,-168.5 1047.5,-168.5"/>
<text text-anchor="middle" x="1106.5" y="-175.5" font-family="Helvetica,sans-Serif" font-size="10.00">src/simpletransaction.h</text>
</a>
</g>
</g>
<!-- Node1&#45;&gt;Node19 -->
<g id="edge27" class="edge">
<title>Node1&#45;&gt;Node19</title>
<path fill="none" stroke="midnightblue" d="M988.95,-221.04C1017.36,-210.88 1057.44,-196.55 1082.69,-187.52"/>
<polygon fill="midnightblue" stroke="midnightblue" points="987.66,-217.78 979.43,-224.44 990.02,-224.37 987.66,-217.78"/>
</g>
<!-- Node3 -->
<g id="node3" class="node">
<title>Node3</title>
<g id="a_node3"><a xlink:href="configdialog_8cpp.html" target="_top" xlink:title=" ">
<polygon fill="none" stroke="black" points="249.5,-0.5 249.5,-19.5 353.5,-19.5 353.5,-0.5 249.5,-0.5"/>
<text text-anchor="middle" x="301.5" y="-7.5" font-family="Helvetica,sans-Serif" font-size="10.00">src/configdialog.cpp</text>
</a>
</g>
</g>
<!-- Node2&#45;&gt;Node3 -->
<g id="edge2" class="edge">
<title>Node2&#45;&gt;Node3</title>
<path fill="none" stroke="midnightblue" d="M257.97,-49.54C268.84,-39.91 282.44,-27.87 291.52,-19.83"/>
<polygon fill="midnightblue" stroke="midnightblue" points="255.47,-47.07 250.3,-56.32 260.11,-52.32 255.47,-47.07"/>
</g>
<!-- Node4 -->
<g id="node4" class="node">
<title>Node4</title>
<g id="a_node4"><a xlink:href="keygendialog_8cpp.html" target="_top" xlink:title=" ">
<polygon fill="none" stroke="black" points="0,-0.5 0,-19.5 109,-19.5 109,-0.5 0,-0.5"/>
<text text-anchor="middle" x="54.5" y="-7.5" font-family="Helvetica,sans-Serif" font-size="10.00">src/keygendialog.cpp</text>
</a>
</g>
</g>
<!-- Node2&#45;&gt;Node4 -->
<g id="edge3" class="edge">
<title>Node2&#45;&gt;Node4</title>
<path fill="none" stroke="midnightblue" d="M201.12,-53.57C166.03,-43.38 115.48,-28.7 83.83,-19.52"/>
<polygon fill="midnightblue" stroke="midnightblue" points="200.45,-57.02 211.03,-56.44 202.4,-50.29 200.45,-57.02"/>
</g>
<!-- Node5 -->
<g id="node5" class="node">
<title>Node5</title>
<g id="a_node5"><a xlink:href="mainwindow_8cpp.html" target="_top" xlink:title=" ">
<polygon fill="none" stroke="black" points="127.5,-0.5 127.5,-19.5 231.5,-19.5 231.5,-0.5 127.5,-0.5"/>
<text text-anchor="middle" x="179.5" y="-7.5" font-family="Helvetica,sans-Serif" font-size="10.00">src/mainwindow.cpp</text>
</a>
</g>
</g>
<!-- Node2&#45;&gt;Node5 -->
<g id="edge4" class="edge">
<title>Node2&#45;&gt;Node5</title>
<path fill="none" stroke="midnightblue" d="M223.03,-49.54C212.16,-39.91 198.56,-27.87 189.48,-19.83"/>
<polygon fill="midnightblue" stroke="midnightblue" points="220.89,-52.32 230.7,-56.32 225.53,-47.07 220.89,-52.32"/>
</g>
<!-- Node6&#45;&gt;Node3 -->
<g id="edge6" class="edge">
<title>Node6&#45;&gt;Node3</title>
<path fill="none" stroke="midnightblue" d="M785.85,-60.29C693.17,-53.08 514.14,-38.19 362.5,-20 359.63,-19.66 356.69,-19.28 353.72,-18.89"/>
<polygon fill="midnightblue" stroke="midnightblue" points="785.66,-63.79 795.9,-61.07 786.2,-56.81 785.66,-63.79"/>
</g>
<!-- Node6&#45;&gt;Node5 -->
<g id="edge8" class="edge">
<title>Node6&#45;&gt;Node5</title>
<path fill="none" stroke="midnightblue" d="M785.63,-61.86C675.13,-55.99 438.98,-41.96 240.5,-20 237.63,-19.68 234.68,-19.33 231.71,-18.96"/>
<polygon fill="midnightblue" stroke="midnightblue" points="785.76,-65.37 795.93,-62.4 786.12,-58.38 785.76,-65.37"/>
</g>
<!-- Node7 -->
<g id="node7" class="node">
<title>Node7</title>
<g id="a_node7"><a xlink:href="imitatepass_8cpp.html" target="_top" xlink:title=" ">
<polygon fill="none" stroke="black" points="1262.5,-0.5 1262.5,-19.5 1364.5,-19.5 1364.5,-0.5 1262.5,-0.5"/>
<text text-anchor="middle" x="1313.5" y="-7.5" font-family="Helvetica,sans-Serif" font-size="10.00">src/imitatepass.cpp</text>
</a>
</g>
</g>
<!-- Node6&#45;&gt;Node7 -->
<g id="edge7" class="edge">
<title>Node6&#45;&gt;Node7</title>
<path fill="none" stroke="midnightblue" d="M911.36,-58.77C991.06,-50.69 1132.66,-35.77 1253.5,-20 1256.42,-19.62 1259.43,-19.21 1262.46,-18.79"/>
<polygon fill="midnightblue" stroke="midnightblue" points="910.6,-55.33 901,-59.81 911.3,-62.29 910.6,-55.33"/>
</g>
<!-- Node8 -->
<g id="node8" class="node">
<title>Node8</title>
<g id="a_node8"><a xlink:href="pass_8cpp.html" target="_top" xlink:title=" ">
<polygon fill="none" stroke="black" points="1171,-0.5 1171,-19.5 1244,-19.5 1244,-0.5 1171,-0.5"/>
<text text-anchor="middle" x="1207.5" y="-7.5" font-family="Helvetica,sans-Serif" font-size="10.00">src/pass.cpp</text>
</a>
</g>
</g>
<!-- Node6&#45;&gt;Node8 -->
<g id="edge9" class="edge">
<title>Node6&#45;&gt;Node8</title>
<path fill="none" stroke="midnightblue" d="M911.46,-56.9C974.77,-48.53 1075.11,-34.65 1161.5,-20 1164.55,-19.48 1167.71,-18.92 1170.87,-18.34"/>
<polygon fill="midnightblue" stroke="midnightblue" points="910.7,-53.47 901.24,-58.24 911.61,-60.41 910.7,-53.47"/>
</g>
<!-- Node9 -->
<g id="node9" class="node">
<title>Node9</title>
<g id="a_node9"><a xlink:href="passworddialog_8cpp.html" target="_top" xlink:title=" ">
<polygon fill="none" stroke="black" points="899,-0.5 899,-19.5 1018,-19.5 1018,-0.5 899,-0.5"/>
<text text-anchor="middle" x="958.5" y="-7.5" font-family="Helvetica,sans-Serif" font-size="10.00">src/passworddialog.cpp</text>
</a>
</g>
</g>
<!-- Node6&#45;&gt;Node9 -->
<g id="edge10" class="edge">
<title>Node6&#45;&gt;Node9</title>
<path fill="none" stroke="midnightblue" d="M875.26,-51.86C895.66,-41.85 923.17,-28.35 940.87,-19.65"/>
<polygon fill="midnightblue" stroke="midnightblue" points="873.61,-48.78 866.17,-56.32 876.69,-55.06 873.61,-48.78"/>
</g>
<!-- Node10 -->
<g id="node10" class="node">
<title>Node10</title>
<g id="a_node10"><a xlink:href="qtpass_8cpp.html" target="_top" xlink:title=" ">
<polygon fill="none" stroke="black" points="479,-0.5 479,-19.5 560,-19.5 560,-0.5 479,-0.5"/>
<text text-anchor="middle" x="519.5" y="-7.5" font-family="Helvetica,sans-Serif" font-size="10.00">src/qtpass.cpp</text>
</a>
</g>
</g>
<!-- Node6&#45;&gt;Node10 -->
<g id="edge11" class="edge">
<title>Node6&#45;&gt;Node10</title>
<path fill="none" stroke="midnightblue" d="M785.52,-55.18C728.94,-46.27 643.6,-32.64 569.5,-20 566.46,-19.48 563.31,-18.94 560.15,-18.38"/>
<polygon fill="midnightblue" stroke="midnightblue" points="785.32,-58.69 795.74,-56.78 786.41,-51.77 785.32,-58.69"/>
</g>
<!-- Node11 -->
<g id="node11" class="node">
<title>Node11</title>
<g id="a_node11"><a xlink:href="qtpasssettings_8cpp.html" target="_top" xlink:title=" ">
<polygon fill="none" stroke="black" points="1036.5,-0.5 1036.5,-19.5 1152.5,-19.5 1152.5,-0.5 1036.5,-0.5"/>
<text text-anchor="middle" x="1094.5" y="-7.5" font-family="Helvetica,sans-Serif" font-size="10.00">src/qtpasssettings.cpp</text>
</a>
</g>
</g>
<!-- Node6&#45;&gt;Node11 -->
<g id="edge12" class="edge">
<title>Node6&#45;&gt;Node11</title>
<path fill="none" stroke="midnightblue" d="M897.33,-54.28C943.82,-44.08 1012.86,-28.92 1055.7,-19.52"/>
<polygon fill="midnightblue" stroke="midnightblue" points="896.5,-50.88 887.48,-56.44 898,-57.72 896.5,-50.88"/>
</g>
<!-- Node12 -->
<g id="node12" class="node">
<title>Node12</title>
<g id="a_node12"><a xlink:href="realpass_8cpp.html" target="_top" xlink:title=" ">
<polygon fill="none" stroke="black" points="372,-0.5 372,-19.5 461,-19.5 461,-0.5 372,-0.5"/>
<text text-anchor="middle" x="416.5" y="-7.5" font-family="Helvetica,sans-Serif" font-size="10.00">src/realpass.cpp</text>
</a>
</g>
</g>
<!-- Node6&#45;&gt;Node12 -->
<g id="edge13" class="edge">
<title>Node6&#45;&gt;Node12</title>
<path fill="none" stroke="midnightblue" d="M785.72,-58.52C710.44,-50.52 580.52,-36.01 469.5,-20 466.73,-19.6 463.88,-19.17 461.01,-18.72"/>
<polygon fill="midnightblue" stroke="midnightblue" points="785.66,-62.03 795.97,-59.6 786.4,-55.07 785.66,-62.03"/>
</g>
<!-- Node13 -->
<g id="node13" class="node">
<title>Node13</title>
<g id="a_node13"><a xlink:href="storemodel_8cpp.html" target="_top" xlink:title=" ">
<polygon fill="none" stroke="black" points="578.5,-0.5 578.5,-19.5 678.5,-19.5 678.5,-0.5 578.5,-0.5"/>
<text text-anchor="middle" x="628.5" y="-7.5" font-family="Helvetica,sans-Serif" font-size="10.00">src/storemodel.cpp</text>
</a>
</g>
</g>
<!-- Node6&#45;&gt;Node13 -->
<g id="edge14" class="edge">
<title>Node6&#45;&gt;Node13</title>
<path fill="none" stroke="midnightblue" d="M803.78,-54.02C762.22,-43.82 701.19,-28.84 663.2,-19.52"/>
<polygon fill="midnightblue" stroke="midnightblue" points="803.09,-57.46 813.64,-56.44 804.76,-50.66 803.09,-57.46"/>
</g>
<!-- Node14 -->
<g id="node14" class="node">
<title>Node14</title>
<g id="a_node14"><a xlink:href="usersdialog_8cpp.html" target="_top" xlink:title=" ">
<polygon fill="none" stroke="black" points="697,-0.5 697,-19.5 798,-19.5 798,-0.5 697,-0.5"/>
<text text-anchor="middle" x="747.5" y="-7.5" font-family="Helvetica,sans-Serif" font-size="10.00">src/usersdialog.cpp</text>
</a>
</g>
</g>
<!-- Node6&#45;&gt;Node14 -->
<g id="edge15" class="edge">
<title>Node6&#45;&gt;Node14</title>
<path fill="none" stroke="midnightblue" d="M823.42,-51.59C804.74,-41.61 779.8,-28.27 763.69,-19.65"/>
<polygon fill="midnightblue" stroke="midnightblue" points="821.8,-54.7 832.27,-56.32 825.1,-48.52 821.8,-54.7"/>
</g>
<!-- Node15 -->
<g id="node15" class="node">
<title>Node15</title>
<g id="a_node15"><a xlink:href="util_8cpp.html" target="_top" xlink:title=" ">
<polygon fill="none" stroke="black" points="816,-0.5 816,-19.5 881,-19.5 881,-0.5 816,-0.5"/>
<text text-anchor="middle" x="848.5" y="-7.5" font-family="Helvetica,sans-Serif" font-size="10.00">src/util.cpp</text>
</a>
</g>
</g>
<!-- Node6&#45;&gt;Node15 -->
<g id="edge16" class="edge">
<title>Node6&#45;&gt;Node15</title>
<path fill="none" stroke="midnightblue" d="M848.5,-45.8C848.5,-36.91 848.5,-26.78 848.5,-19.75"/>
<polygon fill="midnightblue" stroke="midnightblue" points="845,-46.08 848.5,-56.08 852,-46.08 845,-46.08"/>
</g>
<!-- Node16&#45;&gt;Node8 -->
<g id="edge24" class="edge">
<title>Node16&#45;&gt;Node8</title>
<path fill="none" stroke="midnightblue" d="M1000.95,-160.74C1013.59,-146.97 1032.8,-127.12 1051.5,-112 1099.42,-73.25 1162.67,-36.1 1191.7,-19.73"/>
<polygon fill="midnightblue" stroke="midnightblue" points="998.11,-158.66 993.99,-168.42 1003.3,-163.36 998.11,-158.66"/>
</g>
<!-- Node16&#45;&gt;Node9 -->
<g id="edge25" class="edge">
<title>Node16&#45;&gt;Node9</title>
<path fill="none" stroke="midnightblue" d="M983.28,-157.93C977.21,-121.92 964.27,-45.23 959.95,-19.57"/>
<polygon fill="midnightblue" stroke="midnightblue" points="979.88,-158.8 984.99,-168.08 986.78,-157.63 979.88,-158.8"/>
</g>
<!-- Node16&#45;&gt;Node11 -->
<g id="edge26" class="edge">
<title>Node16&#45;&gt;Node11</title>
<path fill="none" stroke="midnightblue" d="M987.14,-158.27C988.89,-132.73 995.32,-86.66 1018.5,-56 1031.54,-38.75 1053.27,-26.85 1070.16,-19.64"/>
<polygon fill="midnightblue" stroke="midnightblue" points="983.63,-158.26 986.62,-168.43 990.62,-158.62 983.63,-158.26"/>
</g>
<!-- Node17 -->
<g id="node17" class="node">
<title>Node17</title>
<g id="a_node17"><a xlink:href="imitatepass_8h.html" target="_top" xlink:title=" ">
<polygon fill="none" stroke="black" points="1060.5,-112.5 1060.5,-131.5 1152.5,-131.5 1152.5,-112.5 1060.5,-112.5"/>
<text text-anchor="middle" x="1106.5" y="-119.5" font-family="Helvetica,sans-Serif" font-size="10.00">src/imitatepass.h</text>
</a>
</g>
</g>
<!-- Node16&#45;&gt;Node17 -->
<g id="edge18" class="edge">
<title>Node16&#45;&gt;Node17</title>
<path fill="none" stroke="midnightblue" d="M1014.87,-164.23C1037.32,-154.13 1068.04,-140.31 1087.57,-131.52"/>
<polygon fill="midnightblue" stroke="midnightblue" points="1013.2,-161.15 1005.51,-168.44 1016.07,-167.53 1013.2,-161.15"/>
</g>
<!-- Node18 -->
<g id="node18" class="node">
<title>Node18</title>
<g id="a_node18"><a xlink:href="realpass_8h.html" target="_top" xlink:title=" ">
<polygon fill="none" stroke="black" points="809.5,-112.5 809.5,-131.5 887.5,-131.5 887.5,-112.5 809.5,-112.5"/>
<text text-anchor="middle" x="848.5" y="-119.5" font-family="Helvetica,sans-Serif" font-size="10.00">src/realpass.h</text>
</a>
</g>
</g>
<!-- Node16&#45;&gt;Node18 -->
<g id="edge21" class="edge">
<title>Node16&#45;&gt;Node18</title>
<path fill="none" stroke="midnightblue" d="M955.25,-164.77C929.33,-154.63 893.14,-140.47 870.26,-131.52"/>
<polygon fill="midnightblue" stroke="midnightblue" points="954.05,-168.06 964.63,-168.44 956.6,-161.54 954.05,-168.06"/>
</g>
<!-- Node17&#45;&gt;Node6 -->
<g id="edge19" class="edge">
<title>Node17&#45;&gt;Node6</title>
<path fill="none" stroke="midnightblue" d="M1055.6,-110.35C1006.84,-100.14 934.21,-84.94 889.19,-75.52"/>
<polygon fill="midnightblue" stroke="midnightblue" points="1055.11,-113.82 1065.62,-112.44 1056.55,-106.97 1055.11,-113.82"/>
</g>
<!-- Node17&#45;&gt;Node7 -->
<g id="edge20" class="edge">
<title>Node17&#45;&gt;Node7</title>
<path fill="none" stroke="midnightblue" d="M1131.73,-107.59C1174.83,-84.69 1261.43,-38.67 1297.33,-19.59"/>
<polygon fill="midnightblue" stroke="midnightblue" points="1129.93,-104.59 1122.74,-112.37 1133.22,-110.77 1129.93,-104.59"/>
</g>
<!-- Node18&#45;&gt;Node6 -->
<g id="edge22" class="edge">
<title>Node18&#45;&gt;Node6</title>
<path fill="none" stroke="midnightblue" d="M848.5,-101.8C848.5,-92.91 848.5,-82.78 848.5,-75.75"/>
<polygon fill="midnightblue" stroke="midnightblue" points="845,-102.08 848.5,-112.08 852,-102.08 845,-102.08"/>
</g>
<!-- Node18&#45;&gt;Node12 -->
<g id="edge23" class="edge">
<title>Node18&#45;&gt;Node12</title>
<path fill="none" stroke="midnightblue" d="M805.23,-109.98C719.03,-88.03 527.51,-39.27 450.02,-19.53"/>
<polygon fill="midnightblue" stroke="midnightblue" points="804.41,-113.38 814.96,-112.46 806.13,-106.6 804.41,-113.38"/>
</g>
<!-- Node19&#45;&gt;Node17 -->
<g id="edge28" class="edge">
<title>Node19&#45;&gt;Node17</title>
<path fill="none" stroke="midnightblue" d="M1106.5,-157.8C1106.5,-148.91 1106.5,-138.78 1106.5,-131.75"/>
<polygon fill="midnightblue" stroke="midnightblue" points="1103,-158.08 1106.5,-168.08 1110,-158.08 1103,-158.08"/>
</g>
<!-- Node20 -->
<g id="node20" class="node">
<title>Node20</title>
<g id="a_node20"><a xlink:href="simpletransaction_8cpp.html" target="_top" xlink:title=" ">
<polygon fill="none" stroke="black" points="1170.5,-112.5 1170.5,-131.5 1298.5,-131.5 1298.5,-112.5 1170.5,-112.5"/>
<text text-anchor="middle" x="1234.5" y="-119.5" font-family="Helvetica,sans-Serif" font-size="10.00">src/simpletransaction.cpp</text>
</a>
</g>
</g>
<!-- Node19&#45;&gt;Node20 -->
<g id="edge29" class="edge">
<title>Node19&#45;&gt;Node20</title>
<path fill="none" stroke="midnightblue" d="M1136.12,-164.5C1160.12,-154.38 1193.28,-140.39 1214.31,-131.52"/>
<polygon fill="midnightblue" stroke="midnightblue" points="1134.64,-161.33 1126.78,-168.44 1137.36,-167.78 1134.64,-161.33"/>
</g>
</g>
</svg>
        <g id="navigator" transform="translate(0 0)" fill="#404254">
                <rect fill="#f2f5e9" fill-opacity="0.5" stroke="#606060" stroke-width=".5" x="0" y="0" width="60" height="60"/>
                <use id="zoomplus" xlink:href="#zoomPlus" x="17" y="9" onmousedown="handleZoom(evt,'in')"/>
                <use id="zoomminus" xlink:href="#zoomMin" x="42" y="9" onmousedown="handleZoom(evt,'out')"/>
                <use id="reset" xlink:href="#resetDef" x="30" y="36" onmousedown="handleReset()"/>
                <g id="arrowUp" xlink:href="#dirArrow" transform="translate(30 24)" onmousedown="handlePan(0,-1)">
                  <use xlink:href="#rim" fill="#404040">
                        <set attributeName="fill" to="#808080" begin="arrowUp.mouseover" end="arrowUp.mouseout"/>
                  </use>
                  <path fill="none" stroke="white" stroke-width="1.5" d="M0,-3.0v7 M-2.5,-0.5L0,-3.0L2.5,-0.5"/>
                </g>
                <g id="arrowRight" xlink:href="#dirArrow" transform="rotate(90) translate(36 -43)" onmousedown="handlePan(1,0)">
                  <use xlink:href="#rim" fill="#404040">
                        <set attributeName="fill" to="#808080" begin="arrowRight.mouseover" end="arrowRight.mouseout"/>
                  </use>
                  <path fill="none" stroke="white" stroke-width="1.5" d="M0,-3.0v7 M-2.5,-0.5L0,-3.0L2.5,-0.5"/>
                </g>
                <g id="arrowDown" xlink:href="#dirArrow" transform="rotate(180) translate(-30 -48)" onmousedown="handlePan(0,1)">
                  <use xlink:href="#rim" fill="#404040">
                        <set attributeName="fill" to="#808080" begin="arrowDown.mouseover" end="arrowDown.mouseout"/>
                  </use>
                  <path fill="none" stroke="white" stroke-width="1.5" d="M0,-3.0v7 M-2.5,-0.5L0,-3.0L2.5,-0.5"/>
                </g>
                <g id="arrowLeft" xlink:href="#dirArrow" transform="rotate(270) translate(-36 17)" onmousedown="handlePan(-1,0)">
                  <use xlink:href="#rim" fill="#404040">
                        <set attributeName="fill" to="#808080" begin="arrowLeft.mouseover" end="arrowLeft.mouseout"/>
                  </use>
                  <path fill="none" stroke="white" stroke-width="1.5" d="M0,-3.0v7 M-2.5,-0.5L0,-3.0L2.5,-0.5"/>
                </g>
        </g>
        <svg viewBox="0 0 15 15" width="100%" height="30px" preserveAspectRatio="xMaxYMin meet">
         <g id="arrow_out" transform="scale(0.3 0.3)">
          <a xlink:href="enums_8h__dep__incl_org.svg" target="_base">
           <rect id="button" ry="5" rx="5" y="6" x="6" height="38" width="38"
                fill="#f2f5e9" fill-opacity="0.5" stroke="#606060" stroke-width="1.0"/>
           <path id="arrow"
             d="M 11.500037,31.436501 C 11.940474,20.09759 22.043105,11.32322 32.158766,21.979434 L 37.068811,17.246167 C 37.068811,17.246167 37.088388,32 37.088388,32 L 22.160133,31.978069 C 22.160133,31.978069 26.997745,27.140456 26.997745,27.140456 C 18.528582,18.264221 13.291696,25.230495 11.500037,31.436501 z"
             style="fill:#404040;"/>
          </a>
         </g>
        </svg>
</svg>
