<?xml version="1.0" encoding="UTF-8" standalone="no"?>
<!DOCTYPE svg PUBLIC "-//W3C//DTD SVG 1.1//EN"
 "http://www.w3.org/Graphics/SVG/1.1/DTD/svg11.dtd">
<!-- Generated by graphviz version 2.43.0 (0)
 -->
<!-- Title: src/enums.h Pages: 1 -->
<!--zoomable 269 -->

<svg id="main" version="1.1" xmlns="http://www.w3.org/2000/svg" xmlns:xlink="http://www.w3.org/1999/xlink" xml:space="preserve" onload="init(evt)">
<style type="text/css"><![CDATA[
.node, .edge {opacity: 0.7;}
.node.selected, .edge.selected {opacity: 1;}
.edge:hover path { stroke: red; }
.edge:hover polygon { stroke: red; fill: red; }
]]></style>

<defs>
  <circle id="rim" cx="0" cy="0" r="7"/>
  <circle id="rim2" cx="0" cy="0" r="3.5"/>
  <g id="zoomPlus">
    <use xlink:href="#rim" fill="#404040"><set attributeName="fill" to="#808080" begin="zoomplus.mouseover" end="zoomplus.mouseout"/></use>
    <path d="M-4,0h8M0,-4v8" fill="none" stroke="white" stroke-width="1.5" pointer-events="none"/>
  </g>
  <g id="zoomMin">
    <use xlink:href="#rim" fill="#404040"><set attributeName="fill" to="#808080" begin="zoomminus.mouseover" end="zoomminus.mouseout"/></use>
    <path d="M-4,0h8" fill="none" stroke="white" stroke-width="1.5" pointer-events="none"/>
  </g>
  <g id="arrowUp" transform="translate(30 24)">
    <use xlink:href="#rim"/>
    <path pointer-events="none" fill="none" stroke="white" stroke-width="1.5" d="M0,-3.0v7 M-2.5,-0.5L0,-3.0L2.5,-0.5"/>
  </g>
  <g id="arrowRight" transform="rotate(90) translate(36 -43)">
    <use xlink:href="#rim"/>
    <path pointer-events="none" fill="none" stroke="white" stroke-width="1.5" d="M0,-3.0v7 M-2.5,-0.5L0,-3.0L2.5,-0.5"/>
  </g>
  <g id="arrowDown" transform="rotate(180) translate(-30 -48)">
    <use xlink:href="#rim"/>
    <path pointer-events="none" fill="none" stroke="white" stroke-width="1.5" d="M0,-3.0v7 M-2.5,-0.5L0,-3.0L2.5,-0.5"/>
  </g>
  <g id="arrowLeft" transform="rotate(270) translate(-36 17)">
    <use xlink:href="#rim"/>
    <path pointer-events="none" fill="none" stroke="white" stroke-width="1.5" d="M0,-3.0v7 M-2.5,-0.5L0,-3.0L2.5,-0.5"/>
  </g>
  <g id="resetDef">
    <use xlink:href="#rim2" fill="#404040"><set attributeName="fill" to="#808080" begin="reset.mouseover" end="reset.mouseout"/></use>
  </g>
</defs>
<script type="application/ecmascript">
var viewWidth = 1878;
var viewHeight = 269;
var sectionId = 'dynsection-0';
</script>
<script type="application/ecmascript" xlink:href="svg.min.js"/>
<svg id="graph" class="graph">
<g id="viewport">
<title>src/enums.h</title>
<!-- Node1 -->
<g id="Node000001" class="node">
<title>Node1</title>
<g id="a_Node000001"><a xlink:title=" ">
<polygon fill="#999999" stroke="#666666" points="1096.5,-261 1020.5,-261 1020.5,-242 1096.5,-242 1096.5,-261"/>
<text text-anchor="middle" x="1058.5" y="-249" font-family="Helvetica,sans-Serif" font-size="10.00">src/enums.h</text>
</a>
</g>
</g>
<!-- Node2 -->
<g id="Node000002" class="node">
<title>Node2</title>
<g id="a_Node000002"><a xlink:href="configdialog_8h.html" target="_top" xlink:title=" ">
<polygon fill="white" stroke="#666666" points="311.5,-85 209.5,-85 209.5,-66 311.5,-66 311.5,-85"/>
<text text-anchor="middle" x="260.5" y="-73" font-family="Helvetica,sans-Serif" font-size="10.00">src/configdialog.h</text>
</a>
</g>
</g>
<!-- Node1&#45;&gt;Node2 -->
<g id="edge1_Node000001_Node000002" class="edge">
<title>Node1&#45;&gt;Node2</title>
<g id="a_edge1_Node000001_Node000002"><a xlink:title=" ">
<path fill="none" stroke="#63b8ff" d="M1010.13,-247.13C940.32,-241.68 807.49,-229.14 696.5,-206 536.1,-172.56 349.28,-108.25 284.25,-85.08"/>
<polygon fill="#63b8ff" stroke="#63b8ff" points="1010.14,-250.64 1020.38,-247.91 1010.67,-243.66 1010.14,-250.64"/>
</a>
</g>
</g>
<!-- Node6 -->
<g id="Node000006" class="node">
<title>Node6</title>
<g id="a_Node000006"><a xlink:href="pass_8h.html" target="_top" xlink:title=" ">
<polygon fill="white" stroke="#666666" points="771,-206 706,-206 706,-187 771,-187 771,-206"/>
<text text-anchor="middle" x="738.5" y="-194" font-family="Helvetica,sans-Serif" font-size="10.00">src/pass.h</text>
</a>
</g>
</g>
<!-- Node1&#45;&gt;Node6 -->
<g id="edge5_Node000001_Node000006" class="edge">
<title>Node1&#45;&gt;Node6</title>
<g id="a_edge5_Node000001_Node000006"><a xlink:title=" ">
<path fill="none" stroke="#63b8ff" d="M1010.07,-242.48C944.04,-231.54 827.54,-212.25 771.04,-202.89"/>
<polygon fill="#63b8ff" stroke="#63b8ff" points="1009.78,-245.98 1020.22,-244.16 1010.92,-239.07 1009.78,-245.98"/>
</a>
</g>
</g>
<!-- Node9 -->
<g id="Node000009" class="node">
<title>Node9</title>
<g id="a_Node000009"><a xlink:href="qtpasssettings_8h.html" target="_top" xlink:title=" ">
<polygon fill="white" stroke="#666666" points="1015.5,-85 901.5,-85 901.5,-66 1015.5,-66 1015.5,-85"/>
<text text-anchor="middle" x="958.5" y="-73" font-family="Helvetica,sans-Serif" font-size="10.00">src/qtpasssettings.h</text>
</a>
</g>
</g>
<!-- Node1&#45;&gt;Node9 -->
<g id="edge34_Node000001_Node000009" class="edge">
<title>Node1&#45;&gt;Node9</title>
<g id="a_edge34_Node000001_Node000009"><a xlink:title=" ">
<path fill="none" stroke="#63b8ff" d="M1042.94,-234.68C1025.46,-216.09 997.32,-183.63 980.5,-151 969.01,-128.7 962.6,-99.48 959.96,-85.16"/>
<polygon fill="#63b8ff" stroke="#63b8ff" points="1040.49,-237.18 1049.93,-241.98 1045.54,-232.33 1040.49,-237.18"/>
</a>
</g>
</g>
<!-- Node20 -->
<g id="Node000020" class="node">
<title>Node20</title>
<g id="a_Node000020"><a xlink:href="tst__util_8cpp.html" target="_top" xlink:title=" ">
<polygon fill="white" stroke="#666666" points="1869.5,-30 1769.5,-30 1769.5,0 1869.5,0 1869.5,-30"/>
<text text-anchor="start" x="1777.5" y="-18" font-family="Helvetica,sans-Serif" font-size="10.00">tests/auto/util/tst</text>
<text text-anchor="middle" x="1819.5" y="-7" font-family="Helvetica,sans-Serif" font-size="10.00">_util.cpp</text>
</a>
</g>
</g>
<!-- Node1&#45;&gt;Node20 -->
<g id="edge41_Node000001_Node000020" class="edge">
<title>Node1&#45;&gt;Node20</title>
<g id="a_edge41_Node000001_Node000020"><a xlink:title=" ">
<path fill="none" stroke="#63b8ff" d="M1071.19,-233.65C1101.1,-195.48 1180.38,-102.83 1271.5,-66 1372.52,-25.17 1652.82,-46.63 1760.5,-30 1763.41,-29.55 1766.39,-29.03 1769.4,-28.46"/>
<polygon fill="#63b8ff" stroke="#63b8ff" points="1068.3,-231.67 1064.97,-241.73 1073.85,-235.94 1068.3,-231.67"/>
</a>
</g>
</g>
<!-- Node23 -->
<g id="Node000023" class="node">
<title>Node23</title>
<g id="a_Node000023"><a xlink:href="simpletransaction_8h.html" target="_top" xlink:title=" ">
<polygon fill="white" stroke="#666666" points="1317,-206 1186,-206 1186,-187 1317,-187 1317,-206"/>
<text text-anchor="middle" x="1251.5" y="-194" font-family="Helvetica,sans-Serif" font-size="10.00">src/simpletransaction.h</text>
</a>
</g>
</g>
<!-- Node1&#45;&gt;Node23 -->
<g id="edge35_Node000001_Node000023" class="edge">
<title>Node1&#45;&gt;Node23</title>
<g id="a_edge35_Node000001_Node000023"><a xlink:title=" ">
<path fill="none" stroke="#63b8ff" d="M1099.25,-239.31C1135.36,-229.39 1187.33,-215.12 1220.25,-206.08"/>
<polygon fill="#63b8ff" stroke="#63b8ff" points="1098.22,-235.96 1089.51,-241.98 1100.08,-242.71 1098.22,-235.96"/>
</a>
</g>
</g>
<!-- Node25 -->
<g id="Node000025" class="node">
<title>Node25</title>
<g id="a_Node000025"><a xlink:href="tst__simpletransaction_8cpp.html" target="_top" xlink:title=" ">
<polygon fill="white" stroke="#666666" points="1539.5,-151 1383.5,-151 1383.5,-121 1539.5,-121 1539.5,-151"/>
<text text-anchor="start" x="1391.5" y="-139" font-family="Helvetica,sans-Serif" font-size="10.00">tests/auto/simpletransaction</text>
<text text-anchor="middle" x="1461.5" y="-128" font-family="Helvetica,sans-Serif" font-size="10.00">/tst_simpletransaction.cpp</text>
</a>
</g>
</g>
<!-- Node1&#45;&gt;Node25 -->
<g id="edge40_Node000001_Node000025" class="edge">
<title>Node1&#45;&gt;Node25</title>
<g id="a_edge40_Node000001_Node000025"><a xlink:title=" ">
<path fill="none" stroke="#63b8ff" d="M1106.73,-246.98C1161.22,-241.99 1252.02,-230.56 1326.5,-206 1368.25,-192.23 1412.98,-167.07 1439.03,-151.23"/>
<polygon fill="#63b8ff" stroke="#63b8ff" points="1106.32,-243.51 1096.66,-247.87 1106.93,-250.48 1106.32,-243.51"/>
</a>
</g>
</g>
<!-- Node3 -->
<g id="Node000003" class="node">
<title>Node3</title>
<g id="a_Node000003"><a xlink:href="configdialog_8cpp.html" target="_top" xlink:title=" ">
<polygon fill="white" stroke="#666666" points="250,-24.5 137,-24.5 137,-5.5 250,-5.5 250,-24.5"/>
<text text-anchor="middle" x="193.5" y="-12.5" font-family="Helvetica,sans-Serif" font-size="10.00">src/configdialog.cpp</text>
</a>
</g>
</g>
<!-- Node2&#45;&gt;Node3 -->
<g id="edge2_Node000002_Node000003" class="edge">
<title>Node2&#45;&gt;Node3</title>
<g id="a_edge2_Node000002_Node000003"><a xlink:title=" ">
<path fill="none" stroke="#63b8ff" d="M243,-59.22C230.4,-48.21 213.83,-33.75 203.43,-24.67"/>
<polygon fill="#63b8ff" stroke="#63b8ff" points="240.78,-61.93 250.61,-65.87 245.38,-56.65 240.78,-61.93"/>
</a>
</g>
</g>
<!-- Node4 -->
<g id="Node000004" class="node">
<title>Node4</title>
<g id="a_Node000004"><a xlink:href="keygendialog_8cpp.html" target="_top" xlink:title=" ">
<polygon fill="white" stroke="#666666" points="119,-24.5 0,-24.5 0,-5.5 119,-5.5 119,-24.5"/>
<text text-anchor="middle" x="59.5" y="-12.5" font-family="Helvetica,sans-Serif" font-size="10.00">src/keygendialog.cpp</text>
</a>
</g>
</g>
<!-- Node2&#45;&gt;Node4 -->
<g id="edge3_Node000002_Node000004" class="edge">
<title>Node2&#45;&gt;Node4</title>
<g id="a_edge3_Node000002_Node000004"><a xlink:title=" ">
<path fill="none" stroke="#63b8ff" d="M221.36,-63.11C182.48,-51.79 123.76,-34.7 88.76,-24.52"/>
<polygon fill="#63b8ff" stroke="#63b8ff" points="220.69,-66.56 231.27,-65.99 222.65,-59.84 220.69,-66.56"/>
</a>
</g>
</g>
<!-- Node5 -->
<g id="Node000005" class="node">
<title>Node5</title>
<g id="a_Node000005"><a xlink:href="mainwindow_8cpp.html" target="_top" xlink:title=" ">
<polygon fill="white" stroke="#666666" points="384.5,-24.5 268.5,-24.5 268.5,-5.5 384.5,-5.5 384.5,-24.5"/>
<text text-anchor="middle" x="326.5" y="-12.5" font-family="Helvetica,sans-Serif" font-size="10.00">src/mainwindow.cpp</text>
</a>
</g>
</g>
<!-- Node2&#45;&gt;Node5 -->
<g id="edge4_Node000002_Node000005" class="edge">
<title>Node2&#45;&gt;Node5</title>
<g id="a_edge4_Node000002_Node000005"><a xlink:title=" ">
<path fill="none" stroke="#63b8ff" d="M277.74,-59.22C290.16,-48.21 306.47,-33.75 316.72,-24.67"/>
<polygon fill="#63b8ff" stroke="#63b8ff" points="275.4,-56.62 270.24,-65.87 280.04,-61.85 275.4,-56.62"/>
</a>
</g>
</g>
<!-- Node6&#45;&gt;Node4 -->
<g id="edge25_Node000006_Node000004" class="edge">
<title>Node6&#45;&gt;Node4</title>
<g id="a_edge25_Node000006_Node000004"><a xlink:title=" ">
<path fill="none" stroke="#63b8ff" d="M695.82,-190.52C603.5,-178.93 379.16,-146.36 200.5,-85 152.3,-68.45 99.28,-39.26 74.2,-24.73"/>
<polygon fill="#63b8ff" stroke="#63b8ff" points="695.54,-194.01 705.9,-191.76 696.4,-187.06 695.54,-194.01"/>
</a>
</g>
</g>
<!-- Node7 -->
<g id="Node000007" class="node">
<title>Node7</title>
<g id="a_Node000007"><a xlink:href="imitatepass_8h.html" target="_top" xlink:title=" ">
<polygon fill="white" stroke="#666666" points="1091,-145.5 990,-145.5 990,-126.5 1091,-126.5 1091,-145.5"/>
<text text-anchor="middle" x="1040.5" y="-133.5" font-family="Helvetica,sans-Serif" font-size="10.00">src/imitatepass.h</text>
</a>
</g>
</g>
<!-- Node6&#45;&gt;Node7 -->
<g id="edge6_Node000006_Node000007" class="edge">
<title>Node6&#45;&gt;Node7</title>
<g id="a_edge6_Node000006_Node000007"><a xlink:title=" ">
<path fill="none" stroke="#63b8ff" d="M781.24,-187.22C838.32,-176.16 938.94,-156.67 996.61,-145.5"/>
<polygon fill="#63b8ff" stroke="#63b8ff" points="780.26,-183.85 771.11,-189.18 781.59,-190.72 780.26,-183.85"/>
</a>
</g>
</g>
<!-- Node10 -->
<g id="Node000010" class="node">
<title>Node10</title>
<g id="a_Node000010"><a xlink:href="pass_8cpp.html" target="_top" xlink:title=" ">
<polygon fill="white" stroke="#666666" points="480,-24.5 403,-24.5 403,-5.5 480,-5.5 480,-24.5"/>
<text text-anchor="middle" x="441.5" y="-12.5" font-family="Helvetica,sans-Serif" font-size="10.00">src/pass.cpp</text>
</a>
</g>
</g>
<!-- Node6&#45;&gt;Node10 -->
<g id="edge26_Node000006_Node000010" class="edge">
<title>Node6&#45;&gt;Node10</title>
<g id="a_edge26_Node000006_Node000010"><a xlink:title=" ">
<path fill="none" stroke="#63b8ff" d="M721.08,-180.23C702.57,-164.39 672.08,-139.4 643.5,-121 579.54,-79.8 497.55,-41.19 460.81,-24.57"/>
<polygon fill="#63b8ff" stroke="#63b8ff" points="718.84,-182.92 728.7,-186.81 723.42,-177.62 718.84,-182.92"/>
</a>
</g>
</g>
<!-- Node11 -->
<g id="Node000011" class="node">
<title>Node11</title>
<g id="a_Node000011"><a xlink:href="passworddialog_8cpp.html" target="_top" xlink:title=" ">
<polygon fill="white" stroke="#666666" points="629,-24.5 498,-24.5 498,-5.5 629,-5.5 629,-24.5"/>
<text text-anchor="middle" x="563.5" y="-12.5" font-family="Helvetica,sans-Serif" font-size="10.00">src/passworddialog.cpp</text>
</a>
</g>
</g>
<!-- Node6&#45;&gt;Node11 -->
<g id="edge27_Node000006_Node000011" class="edge">
<title>Node6&#45;&gt;Node11</title>
<g id="a_edge27_Node000006_Node000011"><a xlink:title=" ">
<path fill="none" stroke="#63b8ff" d="M731.58,-177.22C719.32,-145.6 693.46,-82.46 676.5,-66 654.87,-45.01 622.95,-32 598.54,-24.53"/>
<polygon fill="#63b8ff" stroke="#63b8ff" points="728.47,-178.88 735.32,-186.97 735,-176.38 728.47,-178.88"/>
</a>
</g>
</g>
<!-- Node13 -->
<g id="Node000013" class="node">
<title>Node13</title>
<g id="a_Node000013"><a xlink:href="qtpasssettings_8cpp.html" target="_top" xlink:title=" ">
<polygon fill="white" stroke="#666666" points="772,-24.5 647,-24.5 647,-5.5 772,-5.5 772,-24.5"/>
<text text-anchor="middle" x="709.5" y="-12.5" font-family="Helvetica,sans-Serif" font-size="10.00">src/qtpasssettings.cpp</text>
</a>
</g>
</g>
<!-- Node6&#45;&gt;Node13 -->
<g id="edge28_Node000006_Node000013" class="edge">
<title>Node6&#45;&gt;Node13</title>
<g id="a_edge28_Node000006_Node000013"><a xlink:title=" ">
<path fill="none" stroke="#63b8ff" d="M735.44,-176.53C729.21,-138.02 715.31,-51.99 710.88,-24.57"/>
<polygon fill="#63b8ff" stroke="#63b8ff" points="732.05,-177.53 737.1,-186.84 738.96,-176.41 732.05,-177.53"/>
</a>
</g>
</g>
<!-- Node6&#45;&gt;Node20 -->
<g id="edge33_Node000006_Node000020" class="edge">
<title>Node6&#45;&gt;Node20</title>
<g id="a_edge33_Node000006_Node000020"><a xlink:title=" ">
<path fill="none" stroke="#63b8ff" d="M781.42,-195.12C865.67,-193.59 1048.92,-186.19 1099.5,-151 1134.42,-126.7 1107.82,-89.16 1143.5,-66 1201.1,-28.61 1692.55,-39.97 1760.5,-30 1763.42,-29.57 1766.4,-29.07 1769.4,-28.52"/>
<polygon fill="#63b8ff" stroke="#63b8ff" points="781.11,-191.62 771.17,-195.28 781.22,-198.62 781.11,-191.62"/>
</a>
</g>
</g>
<!-- Node21 -->
<g id="Node000021" class="node">
<title>Node21</title>
<g id="a_Node000021"><a xlink:href="realpass_8h.html" target="_top" xlink:title=" ">
<polygon fill="white" stroke="#666666" points="879.5,-145.5 795.5,-145.5 795.5,-126.5 879.5,-126.5 879.5,-145.5"/>
<text text-anchor="middle" x="837.5" y="-133.5" font-family="Helvetica,sans-Serif" font-size="10.00">src/realpass.h</text>
</a>
</g>
</g>
<!-- Node6&#45;&gt;Node21 -->
<g id="edge29_Node000006_Node000021" class="edge">
<title>Node6&#45;&gt;Node21</title>
<g id="a_edge29_Node000006_Node000021"><a xlink:title=" ">
<path fill="none" stroke="#63b8ff" d="M761.73,-181.77C780.63,-170.6 806.72,-155.19 822.83,-145.67"/>
<polygon fill="#63b8ff" stroke="#63b8ff" points="759.94,-178.77 753.11,-186.87 763.5,-184.79 759.94,-178.77"/>
</a>
</g>
</g>
<!-- Node22 -->
<g id="Node000022" class="node">
<title>Node22</title>
<g id="a_Node000022"><a xlink:href="tst__executor_8cpp.html" target="_top" xlink:title=" ">
<polygon fill="white" stroke="#666666" points="634.5,-151 524.5,-151 524.5,-121 634.5,-121 634.5,-151"/>
<text text-anchor="start" x="532.5" y="-139" font-family="Helvetica,sans-Serif" font-size="10.00">tests/auto/executor</text>
<text text-anchor="middle" x="579.5" y="-128" font-family="Helvetica,sans-Serif" font-size="10.00">/tst_executor.cpp</text>
</a>
</g>
</g>
<!-- Node6&#45;&gt;Node22 -->
<g id="edge32_Node000006_Node000022" class="edge">
<title>Node6&#45;&gt;Node22</title>
<g id="a_edge32_Node000006_Node000022"><a xlink:title=" ">
<path fill="none" stroke="#63b8ff" d="M705.77,-183.46C680.2,-174.05 644.61,-160.95 617.73,-151.06"/>
<polygon fill="#63b8ff" stroke="#63b8ff" points="704.79,-186.83 715.38,-186.99 707.2,-180.26 704.79,-186.83"/>
</a>
</g>
</g>
<!-- Node8 -->
<g id="Node000008" class="node">
<title>Node8</title>
<g id="a_Node000008"><a xlink:href="imitatepass_8cpp.html" target="_top" xlink:title=" ">
<polygon fill="white" stroke="#666666" points="1751.5,-24.5 1639.5,-24.5 1639.5,-5.5 1751.5,-5.5 1751.5,-24.5"/>
<text text-anchor="middle" x="1695.5" y="-12.5" font-family="Helvetica,sans-Serif" font-size="10.00">src/imitatepass.cpp</text>
</a>
</g>
</g>
<!-- Node7&#45;&gt;Node8 -->
<g id="edge7_Node000007_Node000008" class="edge">
<title>Node7&#45;&gt;Node8</title>
<g id="a_edge7_Node000007_Node000008"><a xlink:title=" ">
<path fill="none" stroke="#63b8ff" d="M1042.31,-116.55C1044.95,-100.39 1051.46,-77.71 1067.5,-66 1118.12,-29.03 1568.41,-38.62 1630.5,-30 1640.33,-28.63 1650.9,-26.61 1660.59,-24.52"/>
<polygon fill="#63b8ff" stroke="#63b8ff" points="1038.83,-116.11 1041.02,-126.48 1045.77,-117.01 1038.83,-116.11"/>
</a>
</g>
</g>
<!-- Node7&#45;&gt;Node9 -->
<g id="edge8_Node000007_Node000009" class="edge">
<title>Node7&#45;&gt;Node9</title>
<g id="a_edge8_Node000007_Node000009"><a xlink:title=" ">
<path fill="none" stroke="#63b8ff" d="M1019.96,-120.35C1004.43,-109.27 983.63,-94.43 970.65,-85.17"/>
<polygon fill="#63b8ff" stroke="#63b8ff" points="1018.23,-123.41 1028.4,-126.37 1022.29,-117.71 1018.23,-123.41"/>
</a>
</g>
</g>
<!-- Node7&#45;&gt;Node20 -->
<g id="edge24_Node000007_Node000020" class="edge">
<title>Node7&#45;&gt;Node20</title>
<g id="a_edge24_Node000007_Node000020"><a xlink:title=" ">
<path fill="none" stroke="#63b8ff" d="M1051.24,-117.48C1062.49,-100.92 1081.8,-77.02 1105.5,-66 1237.69,-4.56 1616.23,-50.91 1760.5,-30 1763.42,-29.58 1766.4,-29.08 1769.4,-28.53"/>
<polygon fill="#63b8ff" stroke="#63b8ff" points="1048.07,-115.94 1045.58,-126.23 1053.95,-119.74 1048.07,-115.94"/>
</a>
</g>
</g>
<!-- Node9&#45;&gt;Node3 -->
<g id="edge9_Node000009_Node000003" class="edge">
<title>Node9&#45;&gt;Node3</title>
<g id="a_edge9_Node000009_Node000003"><a xlink:title=" ">
<path fill="none" stroke="#63b8ff" d="M890.95,-73.46C765.82,-70.81 489.75,-61.58 259.5,-30 249.52,-28.63 238.8,-26.6 228.96,-24.51"/>
<polygon fill="#63b8ff" stroke="#63b8ff" points="891.07,-76.96 901.14,-73.67 891.21,-69.96 891.07,-76.96"/>
</a>
</g>
</g>
<!-- Node9&#45;&gt;Node4 -->
<g id="edge11_Node000009_Node000004" class="edge">
<title>Node9&#45;&gt;Node4</title>
<g id="a_edge11_Node000009_Node000004"><a xlink:title=" ">
<path fill="none" stroke="#63b8ff" d="M891.03,-74.3C749.11,-73.12 409.53,-66.38 127.5,-30 117.22,-28.67 106.17,-26.66 96.03,-24.57"/>
<polygon fill="#63b8ff" stroke="#63b8ff" points="891.28,-77.8 901.31,-74.38 891.34,-70.8 891.28,-77.8"/>
</a>
</g>
</g>
<!-- Node9&#45;&gt;Node5 -->
<g id="edge12_Node000009_Node000005" class="edge">
<title>Node9&#45;&gt;Node5</title>
<g id="a_edge12_Node000009_Node000005"><a xlink:title=" ">
<path fill="none" stroke="#63b8ff" d="M891.04,-71.97C784.78,-67.35 572.12,-55.59 393.5,-30 383.62,-28.58 373.01,-26.59 363.21,-24.55"/>
<polygon fill="#63b8ff" stroke="#63b8ff" points="891.16,-75.48 901.3,-72.4 891.45,-68.48 891.16,-75.48"/>
</a>
</g>
</g>
<!-- Node9&#45;&gt;Node8 -->
<g id="edge10_Node000009_Node000008" class="edge">
<title>Node9&#45;&gt;Node8</title>
<g id="a_edge10_Node000009_Node000008"><a xlink:title=" ">
<path fill="none" stroke="#63b8ff" d="M1026.14,-66.31C1027.26,-66.2 1028.39,-66.1 1029.5,-66 1296.02,-42.09 1365.38,-66.28 1630.5,-30 1640.34,-28.65 1650.9,-26.63 1660.59,-24.54"/>
<polygon fill="#63b8ff" stroke="#63b8ff" points="1025.42,-62.86 1015.82,-67.34 1026.12,-69.83 1025.42,-62.86"/>
</a>
</g>
</g>
<!-- Node9&#45;&gt;Node10 -->
<g id="edge13_Node000009_Node000010" class="edge">
<title>Node9&#45;&gt;Node10</title>
<g id="a_edge13_Node000009_Node000010"><a xlink:title=" ">
<path fill="none" stroke="#63b8ff" d="M890.93,-72.24C799.09,-68.23 630.08,-57.51 488.5,-30 481.48,-28.64 474.01,-26.66 467.13,-24.62"/>
<polygon fill="#63b8ff" stroke="#63b8ff" points="891.06,-75.75 901.2,-72.67 891.35,-68.75 891.06,-75.75"/>
</a>
</g>
</g>
<!-- Node9&#45;&gt;Node11 -->
<g id="edge14_Node000009_Node000011" class="edge">
<title>Node9&#45;&gt;Node11</title>
<g id="a_edge14_Node000009_Node000011"><a xlink:title=" ">
<path fill="none" stroke="#63b8ff" d="M891.13,-66.14C826.08,-57.84 724.85,-44.31 637.5,-30 627.44,-28.35 616.63,-26.41 606.48,-24.5"/>
<polygon fill="#63b8ff" stroke="#63b8ff" points="890.89,-69.64 901.26,-67.43 891.78,-62.69 890.89,-69.64"/>
</a>
</g>
</g>
<!-- Node12 -->
<g id="Node000012" class="node">
<title>Node12</title>
<g id="a_Node000012"><a xlink:href="qtpass_8cpp.html" target="_top" xlink:title=" ">
<polygon fill="white" stroke="#666666" points="1493.5,-24.5 1407.5,-24.5 1407.5,-5.5 1493.5,-5.5 1493.5,-24.5"/>
<text text-anchor="middle" x="1450.5" y="-12.5" font-family="Helvetica,sans-Serif" font-size="10.00">src/qtpass.cpp</text>
</a>
</g>
</g>
<!-- Node9&#45;&gt;Node12 -->
<g id="edge15_Node000009_Node000012" class="edge">
<title>Node9&#45;&gt;Node12</title>
<g id="a_edge15_Node000009_Node000012"><a xlink:title=" ">
<path fill="none" stroke="#63b8ff" d="M1026.14,-66.37C1027.27,-66.24 1028.39,-66.12 1029.5,-66 1193.31,-48.21 1236.39,-59.52 1398.5,-30 1406.23,-28.59 1414.48,-26.6 1422.09,-24.56"/>
<polygon fill="#63b8ff" stroke="#63b8ff" points="1025.39,-62.93 1015.84,-67.53 1026.17,-69.89 1025.39,-62.93"/>
</a>
</g>
</g>
<!-- Node9&#45;&gt;Node13 -->
<g id="edge16_Node000009_Node000013" class="edge">
<title>Node9&#45;&gt;Node13</title>
<g id="a_edge16_Node000009_Node000013"><a xlink:title=" ">
<path fill="none" stroke="#63b8ff" d="M912.45,-63.68C864.33,-52.38 789.84,-34.88 745.75,-24.52"/>
<polygon fill="#63b8ff" stroke="#63b8ff" points="911.76,-67.11 922.29,-65.99 913.36,-60.3 911.76,-67.11"/>
</a>
</g>
</g>
<!-- Node14 -->
<g id="Node000014" class="node">
<title>Node14</title>
<g id="a_Node000014"><a xlink:href="realpass_8cpp.html" target="_top" xlink:title=" ">
<polygon fill="white" stroke="#666666" points="885,-24.5 790,-24.5 790,-5.5 885,-5.5 885,-24.5"/>
<text text-anchor="middle" x="837.5" y="-12.5" font-family="Helvetica,sans-Serif" font-size="10.00">src/realpass.cpp</text>
</a>
</g>
</g>
<!-- Node9&#45;&gt;Node14 -->
<g id="edge17_Node000009_Node000014" class="edge">
<title>Node9&#45;&gt;Node14</title>
<g id="a_edge17_Node000009_Node000014"><a xlink:title=" ">
<path fill="none" stroke="#63b8ff" d="M931.89,-61.63C908.55,-50.35 875.29,-34.27 855.12,-24.52"/>
<polygon fill="#63b8ff" stroke="#63b8ff" points="930.38,-64.79 940.91,-65.99 933.43,-58.49 930.38,-64.79"/>
</a>
</g>
</g>
<!-- Node15 -->
<g id="Node000015" class="node">
<title>Node15</title>
<g id="a_Node000015"><a xlink:href="storemodel_8cpp.html" target="_top" xlink:title=" ">
<polygon fill="white" stroke="#666666" points="1621.5,-24.5 1511.5,-24.5 1511.5,-5.5 1621.5,-5.5 1621.5,-24.5"/>
<text text-anchor="middle" x="1566.5" y="-12.5" font-family="Helvetica,sans-Serif" font-size="10.00">src/storemodel.cpp</text>
</a>
</g>
</g>
<!-- Node9&#45;&gt;Node15 -->
<g id="edge18_Node000009_Node000015" class="edge">
<title>Node9&#45;&gt;Node15</title>
<g id="a_edge18_Node000009_Node000015"><a xlink:title=" ">
<path fill="none" stroke="#63b8ff" d="M1026.14,-66.33C1027.27,-66.22 1028.39,-66.11 1029.5,-66 1239.33,-45.46 1293.9,-60.6 1502.5,-30 1512.07,-28.6 1522.33,-26.58 1531.79,-24.52"/>
<polygon fill="#63b8ff" stroke="#63b8ff" points="1025.41,-62.89 1015.83,-67.42 1026.14,-69.85 1025.41,-62.89"/>
</a>
</g>
</g>
<!-- Node16 -->
<g id="Node000016" class="node">
<title>Node16</title>
<g id="a_Node000016"><a xlink:href="usersdialog_8cpp.html" target="_top" xlink:title=" ">
<polygon fill="white" stroke="#666666" points="1013.5,-24.5 903.5,-24.5 903.5,-5.5 1013.5,-5.5 1013.5,-24.5"/>
<text text-anchor="middle" x="958.5" y="-12.5" font-family="Helvetica,sans-Serif" font-size="10.00">src/usersdialog.cpp</text>
</a>
</g>
</g>
<!-- Node9&#45;&gt;Node16 -->
<g id="edge19_Node000009_Node000016" class="edge">
<title>Node9&#45;&gt;Node16</title>
<g id="a_edge19_Node000009_Node000016"><a xlink:title=" ">
<path fill="none" stroke="#63b8ff" d="M958.5,-55.66C958.5,-45.24 958.5,-32.8 958.5,-24.67"/>
<polygon fill="#63b8ff" stroke="#63b8ff" points="955,-55.87 958.5,-65.87 962,-55.87 955,-55.87"/>
</a>
</g>
</g>
<!-- Node17 -->
<g id="Node000017" class="node">
<title>Node17</title>
<g id="a_Node000017"><a xlink:href="util_8cpp.html" target="_top" xlink:title=" ">
<polygon fill="white" stroke="#666666" points="1101.5,-24.5 1031.5,-24.5 1031.5,-5.5 1101.5,-5.5 1101.5,-24.5"/>
<text text-anchor="middle" x="1066.5" y="-12.5" font-family="Helvetica,sans-Serif" font-size="10.00">src/util.cpp</text>
</a>
</g>
</g>
<!-- Node9&#45;&gt;Node17 -->
<g id="edge20_Node000009_Node000017" class="edge">
<title>Node9&#45;&gt;Node17</title>
<g id="a_edge20_Node000009_Node000017"><a xlink:title=" ">
<path fill="none" stroke="#63b8ff" d="M983.28,-61.08C1003.94,-49.88 1032.76,-34.27 1050.5,-24.67"/>
<polygon fill="#63b8ff" stroke="#63b8ff" points="981.56,-58.03 974.44,-65.87 984.9,-64.18 981.56,-58.03"/>
</a>
</g>
</g>
<!-- Node18 -->
<g id="Node000018" class="node">
<title>Node18</title>
<g id="a_Node000018"><a xlink:href="tst__passwordconfig_8cpp.html" target="_top" xlink:title=" ">
<polygon fill="white" stroke="#666666" points="1263.5,-30 1119.5,-30 1119.5,0 1263.5,0 1263.5,-30"/>
<text text-anchor="start" x="1127.5" y="-18" font-family="Helvetica,sans-Serif" font-size="10.00">tests/auto/passwordconfig</text>
<text text-anchor="middle" x="1191.5" y="-7" font-family="Helvetica,sans-Serif" font-size="10.00">/tst_passwordconfig.cpp</text>
</a>
</g>
</g>
<!-- Node9&#45;&gt;Node18 -->
<g id="edge21_Node000009_Node000018" class="edge">
<title>Node9&#45;&gt;Node18</title>
<g id="a_edge21_Node000009_Node000018"><a xlink:title=" ">
<path fill="none" stroke="#63b8ff" d="M1002.54,-63.44C1040.23,-53.98 1094.7,-40.3 1135.48,-30.06"/>
<polygon fill="#63b8ff" stroke="#63b8ff" points="1001.23,-60.16 992.38,-65.99 1002.93,-66.95 1001.23,-60.16"/>
</a>
</g>
</g>
<!-- Node19 -->
<g id="Node000019" class="node">
<title>Node19</title>
<g id="a_Node000019"><a xlink:href="tst__settings_8cpp.html" target="_top" xlink:title=" ">
<polygon fill="white" stroke="#666666" points="1389,-30 1282,-30 1282,0 1389,0 1389,-30"/>
<text text-anchor="start" x="1290" y="-18" font-family="Helvetica,sans-Serif" font-size="10.00">tests/auto/settings</text>
<text text-anchor="middle" x="1335.5" y="-7" font-family="Helvetica,sans-Serif" font-size="10.00">/tst_settings.cpp</text>
</a>
</g>
</g>
<!-- Node9&#45;&gt;Node19 -->
<g id="edge22_Node000009_Node000019" class="edge">
<title>Node9&#45;&gt;Node19</title>
<g id="a_edge22_Node000009_Node000019"><a xlink:title=" ">
<path fill="none" stroke="#63b8ff" d="M1025.91,-65.57C1103.63,-55.17 1226.55,-38.35 1272.5,-30 1275.59,-29.44 1278.75,-28.83 1281.94,-28.2"/>
<polygon fill="#63b8ff" stroke="#63b8ff" points="1025.18,-62.14 1015.73,-66.93 1026.11,-69.08 1025.18,-62.14"/>
</a>
</g>
</g>
<!-- Node9&#45;&gt;Node20 -->
<g id="edge23_Node000009_Node000020" class="edge">
<title>Node9&#45;&gt;Node20</title>
<g id="a_edge23_Node000009_Node000020"><a xlink:title=" ">
<path fill="none" stroke="#63b8ff" d="M1025.97,-68.96C1039.71,-67.91 1054.07,-66.87 1067.5,-66 1375.27,-46.01 1455.21,-73.78 1760.5,-30 1763.42,-29.58 1766.4,-29.09 1769.41,-28.54"/>
<polygon fill="#63b8ff" stroke="#63b8ff" points="1025.32,-65.5 1015.62,-69.77 1025.86,-72.48 1025.32,-65.5"/>
</a>
</g>
</g>
<!-- Node21&#45;&gt;Node9 -->
<g id="edge30_Node000021_Node000009" class="edge">
<title>Node21&#45;&gt;Node9</title>
<g id="a_edge30_Node000021_Node000009"><a xlink:title=" ">
<path fill="none" stroke="#63b8ff" d="M864.11,-122.13C887.45,-110.85 920.71,-94.77 940.88,-85.02"/>
<polygon fill="#63b8ff" stroke="#63b8ff" points="862.57,-118.99 855.09,-126.49 865.62,-125.29 862.57,-118.99"/>
</a>
</g>
</g>
<!-- Node21&#45;&gt;Node14 -->
<g id="edge31_Node000021_Node000014" class="edge">
<title>Node21&#45;&gt;Node14</title>
<g id="a_edge31_Node000021_Node000014"><a xlink:title=" ">
<path fill="none" stroke="#63b8ff" d="M837.5,-116.36C837.5,-90.31 837.5,-44.06 837.5,-24.8"/>
<polygon fill="#63b8ff" stroke="#63b8ff" points="834,-116.44 837.5,-126.44 841,-116.44 834,-116.44"/>
</a>
</g>
</g>
<!-- Node23&#45;&gt;Node7 -->
<g id="edge36_Node000023_Node000007" class="edge">
<title>Node23&#45;&gt;Node7</title>
<g id="a_edge36_Node000023_Node000007"><a xlink:title=" ">
<path fill="none" stroke="#63b8ff" d="M1210.93,-184.25C1170.12,-172.94 1108.11,-155.75 1071.22,-145.52"/>
<polygon fill="#63b8ff" stroke="#63b8ff" points="1210.25,-187.69 1220.82,-186.99 1212.12,-180.95 1210.25,-187.69"/>
</a>
</g>
</g>
<!-- Node23&#45;&gt;Node20 -->
<g id="edge39_Node000023_Node000020" class="edge">
<title>Node23&#45;&gt;Node20</title>
<g id="a_edge39_Node000023_Node000020"><a xlink:title=" ">
<path fill="none" stroke="#63b8ff" d="M1233.95,-179.83C1218.11,-163.81 1199.42,-138.8 1214.5,-121 1294.01,-27.14 1639.92,-54.32 1760.5,-30 1763.39,-29.42 1766.35,-28.79 1769.34,-28.15"/>
<polygon fill="#63b8ff" stroke="#63b8ff" points="1231.7,-182.52 1241.34,-186.91 1236.54,-177.46 1231.7,-182.52"/>
</a>
</g>
</g>
<!-- Node24 -->
<g id="Node000024" class="node">
<title>Node24</title>
<g id="a_Node000024"><a xlink:href="simpletransaction_8cpp.html" target="_top" xlink:title=" ">
<polygon fill="white" stroke="#666666" points="1365.5,-145.5 1223.5,-145.5 1223.5,-126.5 1365.5,-126.5 1365.5,-145.5"/>
<text text-anchor="middle" x="1294.5" y="-133.5" font-family="Helvetica,sans-Serif" font-size="10.00">src/simpletransaction.cpp</text>
</a>
</g>
</g>
<!-- Node23&#45;&gt;Node24 -->
<g id="edge37_Node000023_Node000024" class="edge">
<title>Node23&#45;&gt;Node24</title>
<g id="a_edge37_Node000023_Node000024"><a xlink:title=" ">
<path fill="none" stroke="#63b8ff" d="M1263.9,-178.63C1271.82,-167.85 1281.77,-154.32 1288.13,-145.67"/>
<polygon fill="#63b8ff" stroke="#63b8ff" points="1260.95,-176.74 1257.84,-186.87 1266.59,-180.88 1260.95,-176.74"/>
</a>
</g>
</g>
<!-- Node23&#45;&gt;Node25 -->
<g id="edge38_Node000023_Node000025" class="edge">
<title>Node23&#45;&gt;Node25</title>
<g id="a_edge38_Node000023_Node000025"><a xlink:title=" ">
<path fill="none" stroke="#63b8ff" d="M1292.07,-184.2C1326,-174.75 1374.57,-161.22 1411.01,-151.06"/>
<polygon fill="#63b8ff" stroke="#63b8ff" points="1290.73,-180.94 1282.04,-186.99 1292.61,-187.68 1290.73,-180.94"/>
</a>
</g>
</g>
</g>
</svg>

<g id="navigator" transform="translate(0 0)" fill="#404254">
  <rect fill="#f2f5e9" fill-opacity="0.5" stroke="#606060" stroke-width=".5" x="0" y="0" width="60" height="60"/>
  <use id="zoomplus" xlink:href="#zoomPlus" x="17" y="9" onmousedown="handleZoom(evt,'in')"/>
  <use id="zoomminus" xlink:href="#zoomMin" x="42" y="9" onmousedown="handleZoom(evt,'out')"/>
  <use id="reset" xlink:href="#resetDef" x="30" y="36" onmousedown="handleReset()"/>
   <use id="arrowup" xlink:href="#arrowUp" x="0" y="0" onmousedown="handlePan(0,-1)"/>
  <use id="arrowright" xlink:href="#arrowRight" x="0" y="0" onmousedown="handlePan(1,0)"/>
  <use id="arrowdown" xlink:href="#arrowDown" x="0" y="0" onmousedown="handlePan(0,1)"/>
  <use id="arrowleft" xlink:href="#arrowLeft" x="0" y="0" onmousedown="handlePan(-1,0)"/>
</g>
<svg viewBox="0 0 15 15" width="100%" height="30px" preserveAspectRatio="xMaxYMin meet">
 <g id="arrow_out" transform="scale(0.3 0.3)">
  <a xlink:href="enums_8h__dep__incl_org.svg" target="_base">
   <rect id="button" ry="5" rx="5" y="6" x="6" height="38" width="38"
        fill="#f2f5e9" fill-opacity="0.5" stroke="#606060" stroke-width="1.0"/>
   <path id="arrow"
     d="M 11.500037,31.436501 C 11.940474,20.09759 22.043105,11.32322 32.158766,21.979434 L 37.068811,17.246167 C 37.068811,17.246167 37.088388,32 37.088388,32 L 22.160133,31.978069 C 22.160133,31.978069 26.997745,27.140456 26.997745,27.140456 C 18.528582,18.264221 13.291696,25.230495 11.500037,31.436501 z"
     style="fill:#404040;"/>
  </a>
 </g>
</svg>

<style type='text/css'>
<![CDATA[
[data-mouse-over-selected='false'] { opacity: 0.7; }
[data-mouse-over-selected='true']  { opacity: 1.0; }
]]>
</style>
<script type="application/ecmascript"><![CDATA[
document.addEventListener('DOMContentLoaded', (event) => {
  highlightEdges();
  highlightAdjacentNodes();
});
]]></script>
</svg>
