<?xml version="1.0" encoding="UTF-8" standalone="no"?>
<!DOCTYPE svg PUBLIC "-//W3C//DTD SVG 1.1//EN"
 "http://www.w3.org/Graphics/SVG/1.1/DTD/svg11.dtd">
<!-- Generated by graphviz version 2.38.0 (20140413.2041)
 -->
<!-- Title: enums.h Pages: 1 -->
<!--zoomable 357 -->
<svg id="main" version="1.1" xmlns="http://www.w3.org/2000/svg" xmlns:xlink="http://www.w3.org/1999/xlink" xml:space="preserve" onload="init(evt)">
<style type="text/css"><![CDATA[
.edge:hover path { stroke: red; }
.edge:hover polygon { stroke: red; fill: red; }
]]></style>
<script type="text/javascript"><![CDATA[
var edges = document.getElementsByTagName('g');
if (edges && edges.length) {
  for (var i=0;i<edges.length;i++) {
    if (edges[i].id.substr(0,4)=='edge') {
      edges[i].setAttribute('class','edge');
    }
  }
}
]]></script>
        <defs>
                <circle id="rim" cx="0" cy="0" r="7"/>
                <circle id="rim2" cx="0" cy="0" r="3.5"/>
                <g id="zoomPlus">
                        <use xlink:href="#rim" fill="#404040">
                                <set attributeName="fill" to="#808080" begin="zoomplus.mouseover" end="zoomplus.mouseout"/>
                        </use>
                        <path d="M-4,0h8M0,-4v8" fill="none" stroke="white" stroke-width="1.5" pointer-events="none"/>
                </g>
                <g id="zoomMin">
                        <use xlink:href="#rim" fill="#404040">
                                <set attributeName="fill" to="#808080" begin="zoomminus.mouseover" end="zoomminus.mouseout"/>
                        </use>
                        <path d="M-4,0h8" fill="none" stroke="white" stroke-width="1.5" pointer-events="none"/>
                </g>
                <g id="dirArrow">
                        <path fill="none" stroke="white" stroke-width="1.5" d="M0,-3.0v7 M-2.5,-0.5L0,-3.0L2.5,-0.5"/>
                </g>
               <g id="resetDef">
                       <use xlink:href="#rim2" fill="#404040">
                               <set attributeName="fill" to="#808080" begin="reset.mouseover" end="reset.mouseout"/>
                       </use>
               </g>
        </defs>

<script type="text/javascript">
var viewWidth = 879;
var viewHeight = 357;
var sectionId = 'dynsection-0';
</script>
<script xlink:href="svgpan.js"/>
<svg id="graph" class="graph">
<g id="viewport">
<title>enums.h</title>
<!-- Node1 -->
<g id="node1" class="node"><title>Node1</title>
<polygon fill="#bfbfbf" stroke="black" points="564.96,-330.5 564.96,-348.5 619.315,-348.5 619.315,-330.5 564.96,-330.5"/>
<text text-anchor="middle" x="592.138" y="-336.5" font-family="Helvetica,sans-Serif" font-size="10.00">enums.h</text>
</g>
<!-- Node2 -->
<g id="node2" class="node"><title>Node2</title>
<g id="a_node2"><a xlink:href="mainwindow_8h.html" target="_top" xlink:title="mainwindow.h">
<polygon fill="none" stroke="black" points="361.729,-165.5 361.729,-183.5 440.546,-183.5 440.546,-165.5 361.729,-165.5"/>
<text text-anchor="middle" x="401.138" y="-171.5" font-family="Helvetica,sans-Serif" font-size="10.00">mainwindow.h</text>
</a>
</g>
</g>
<!-- Node1&#45;&gt;Node2 -->
<g id="edge1" class="edge"><title>Node1&#45;&gt;Node2</title>
<path fill="none" stroke="midnightblue" d="M564.975,-325.927C531.885,-309.576 475.754,-278.39 438.138,-239 421.924,-222.021 409.903,-196.645 404.424,-183.714"/>
<polygon fill="midnightblue" stroke="midnightblue" points="563.536,-329.118 574.061,-330.329 566.588,-322.819 563.536,-329.118"/>
</g>
<!-- Node8 -->
<g id="node8" class="node"><title>Node8</title>
<g id="a_node8"><a xlink:href="qtpasssettings_8h.html" target="_top" xlink:title="qtpasssettings.h">
<polygon fill="none" stroke="black" points="534.005,-110.5 534.005,-128.5 622.271,-128.5 622.271,-110.5 534.005,-110.5"/>
<text text-anchor="middle" x="578.138" y="-116.5" font-family="Helvetica,sans-Serif" font-size="10.00">qtpasssettings.h</text>
</a>
</g>
</g>
<!-- Node1&#45;&gt;Node8 -->
<g id="edge33" class="edge"><title>Node1&#45;&gt;Node8</title>
<path fill="none" stroke="midnightblue" d="M621.231,-326.495C682.558,-299.507 815.315,-231.217 763.138,-165 745.963,-143.205 671.658,-130.851 622.602,-124.934"/>
<polygon fill="midnightblue" stroke="midnightblue" points="619.834,-323.286 612.042,-330.465 622.61,-329.712 619.834,-323.286"/>
</g>
<!-- Node16 -->
<g id="node16" class="node"><title>Node16</title>
<g id="a_node16"><a xlink:href="pass_8h.html" target="_top" xlink:title="pass.h">
<polygon fill="none" stroke="black" points="569.406,-275.5 569.406,-293.5 614.869,-293.5 614.869,-275.5 569.406,-275.5"/>
<text text-anchor="middle" x="592.138" y="-281.5" font-family="Helvetica,sans-Serif" font-size="10.00">pass.h</text>
</a>
</g>
</g>
<!-- Node1&#45;&gt;Node16 -->
<g id="edge21" class="edge"><title>Node1&#45;&gt;Node16</title>
<path fill="none" stroke="midnightblue" d="M592.138,-320.175C592.138,-311.094 592.138,-300.595 592.138,-293.55"/>
<polygon fill="midnightblue" stroke="midnightblue" points="588.638,-320.219 592.138,-330.219 595.638,-320.219 588.638,-320.219"/>
</g>
<!-- Node3 -->
<g id="node3" class="node"><title>Node3</title>
<g id="a_node3"><a xlink:href="configdialog_8h.html" target="_top" xlink:title="configdialog.h">
<polygon fill="none" stroke="black" points="114.281,-110.5 114.281,-128.5 191.995,-128.5 191.995,-110.5 114.281,-110.5"/>
<text text-anchor="middle" x="153.138" y="-116.5" font-family="Helvetica,sans-Serif" font-size="10.00">configdialog.h</text>
</a>
</g>
</g>
<!-- Node2&#45;&gt;Node3 -->
<g id="edge2" class="edge"><title>Node2&#45;&gt;Node3</title>
<path fill="none" stroke="midnightblue" d="M353.45,-163.309C306.041,-153.177 234.281,-137.841 190.751,-128.538"/>
<polygon fill="midnightblue" stroke="midnightblue" points="352.961,-166.783 363.472,-165.45 354.424,-159.938 352.961,-166.783"/>
</g>
<!-- Node4 -->
<g id="node4" class="node"><title>Node4</title>
<g id="a_node4"><a xlink:href="configdialog_8cpp.html" target="_top" xlink:title="configdialog.cpp">
<polygon fill="none" stroke="black" points="0,-0.5 0,-18.5 88.2754,-18.5 88.2754,-0.5 0,-0.5"/>
<text text-anchor="middle" x="44.1377" y="-6.5" font-family="Helvetica,sans-Serif" font-size="10.00">configdialog.cpp</text>
</a>
</g>
</g>
<!-- Node2&#45;&gt;Node4 -->
<g id="edge9" class="edge"><title>Node2&#45;&gt;Node4</title>
<path fill="none" stroke="midnightblue" d="M351.229,-169.941C278.356,-164.086 146.955,-150.841 105.138,-129 75.3197,-113.426 67.7421,-104.305 53.1377,-74 44.34,-55.7446 43.5026,-31.3511 43.7536,-18.7741"/>
<polygon fill="midnightblue" stroke="midnightblue" points="351.294,-173.457 361.538,-170.752 351.843,-166.479 351.294,-173.457"/>
</g>
<!-- Node7 -->
<g id="node7" class="node"><title>Node7</title>
<g id="a_node7"><a xlink:href="mainwindow_8cpp.html" target="_top" xlink:title="mainwindow.cpp">
<polygon fill="none" stroke="black" points="218.448,-0.5 218.448,-18.5 307.827,-18.5 307.827,-0.5 218.448,-0.5"/>
<text text-anchor="middle" x="263.138" y="-6.5" font-family="Helvetica,sans-Serif" font-size="10.00">mainwindow.cpp</text>
</a>
</g>
</g>
<!-- Node2&#45;&gt;Node7 -->
<g id="edge20" class="edge"><title>Node2&#45;&gt;Node7</title>
<path fill="none" stroke="midnightblue" d="M351.461,-166.526C309.052,-159.434 252.807,-146.931 239.138,-129 213.05,-94.7793 244.133,-39.377 257.554,-18.6608"/>
<polygon fill="midnightblue" stroke="midnightblue" points="350.935,-169.986 361.365,-168.127 352.052,-163.076 350.935,-169.986"/>
</g>
<!-- Node2&#45;&gt;Node8 -->
<g id="edge10" class="edge"><title>Node2&#45;&gt;Node8</title>
<path fill="none" stroke="midnightblue" d="M437.977,-162.469C471.786,-152.345 521.072,-137.588 551.293,-128.538"/>
<polygon fill="midnightblue" stroke="midnightblue" points="436.596,-159.229 428.02,-165.45 438.604,-165.935 436.596,-159.229"/>
</g>
<!-- Node14 -->
<g id="node14" class="node"><title>Node14</title>
<g id="a_node14"><a xlink:href="deselectabletreeview_8h.html" target="_top" xlink:title="deselectabletreeview.h">
<polygon fill="none" stroke="black" points="248.547,-110.5 248.547,-128.5 365.729,-128.5 365.729,-110.5 248.547,-110.5"/>
<text text-anchor="middle" x="307.138" y="-116.5" font-family="Helvetica,sans-Serif" font-size="10.00">deselectabletreeview.h</text>
</a>
</g>
</g>
<!-- Node2&#45;&gt;Node14 -->
<g id="edge18" class="edge"><title>Node2&#45;&gt;Node14</title>
<path fill="none" stroke="midnightblue" d="M377.776,-160.328C360.142,-150.386 336.508,-137.06 321.549,-128.625"/>
<polygon fill="midnightblue" stroke="midnightblue" points="376.431,-163.588 386.861,-165.45 379.869,-157.49 376.431,-163.588"/>
</g>
<!-- Node15 -->
<g id="node15" class="node"><title>Node15</title>
<g id="a_node15"><a xlink:href="main_8cpp.html" target="_top" xlink:title="main.cpp">
<polygon fill="none" stroke="black" points="383.85,-110.5 383.85,-128.5 440.426,-128.5 440.426,-110.5 383.85,-110.5"/>
<text text-anchor="middle" x="412.138" y="-116.5" font-family="Helvetica,sans-Serif" font-size="10.00">main.cpp</text>
</a>
</g>
</g>
<!-- Node2&#45;&gt;Node15 -->
<g id="edge19" class="edge"><title>Node2&#45;&gt;Node15</title>
<path fill="none" stroke="midnightblue" d="M404.941,-155.175C406.826,-146.094 409.005,-135.595 410.467,-128.55"/>
<polygon fill="midnightblue" stroke="midnightblue" points="401.462,-154.716 402.856,-165.219 408.316,-156.139 401.462,-154.716"/>
</g>
<!-- Node3&#45;&gt;Node4 -->
<g id="edge3" class="edge"><title>Node3&#45;&gt;Node4</title>
<path fill="none" stroke="midnightblue" d="M118.186,-106.586C101.469,-99.3845 82.284,-88.7094 69.1377,-74 54.6105,-57.7455 48.0511,-32.0527 45.5106,-18.8862"/>
<polygon fill="midnightblue" stroke="midnightblue" points="117.096,-109.921 127.679,-110.429 119.723,-103.432 117.096,-109.921"/>
</g>
<!-- Node5 -->
<g id="node5" class="node"><title>Node5</title>
<g id="a_node5"><a xlink:href="keygendialog_8h.html" target="_top" xlink:title="keygendialog.h">
<polygon fill="none" stroke="black" points="111.5,-55.5 111.5,-73.5 194.775,-73.5 194.775,-55.5 111.5,-55.5"/>
<text text-anchor="middle" x="153.138" y="-61.5" font-family="Helvetica,sans-Serif" font-size="10.00">keygendialog.h</text>
</a>
</g>
</g>
<!-- Node3&#45;&gt;Node5 -->
<g id="edge4" class="edge"><title>Node3&#45;&gt;Node5</title>
<path fill="none" stroke="midnightblue" d="M153.138,-100.175C153.138,-91.0945 153.138,-80.5949 153.138,-73.5496"/>
<polygon fill="midnightblue" stroke="midnightblue" points="149.638,-100.219 153.138,-110.219 156.638,-100.219 149.638,-100.219"/>
</g>
<!-- Node3&#45;&gt;Node7 -->
<g id="edge8" class="edge"><title>Node3&#45;&gt;Node7</title>
<path fill="none" stroke="midnightblue" d="M170.877,-103.814C180.873,-95.3434 193.459,-84.3507 204.138,-74 223.804,-54.9385 245.328,-30.8851 256.128,-18.572"/>
<polygon fill="midnightblue" stroke="midnightblue" points="168.598,-101.157 163.188,-110.266 173.098,-106.519 168.598,-101.157"/>
</g>
<!-- Node5&#45;&gt;Node4 -->
<g id="edge5" class="edge"><title>Node5&#45;&gt;Node4</title>
<path fill="none" stroke="midnightblue" d="M127.456,-51.0126C106.875,-41.0052 78.5963,-27.2551 60.8482,-18.6253"/>
<polygon fill="midnightblue" stroke="midnightblue" points="126.059,-54.2252 136.583,-55.4504 129.12,-47.9299 126.059,-54.2252"/>
</g>
<!-- Node6 -->
<g id="node6" class="node"><title>Node6</title>
<g id="a_node6"><a xlink:href="keygendialog_8cpp.html" target="_top" xlink:title="keygendialog.cpp">
<polygon fill="none" stroke="black" points="106.219,-0.5 106.219,-18.5 200.056,-18.5 200.056,-0.5 106.219,-0.5"/>
<text text-anchor="middle" x="153.138" y="-6.5" font-family="Helvetica,sans-Serif" font-size="10.00">keygendialog.cpp</text>
</a>
</g>
</g>
<!-- Node5&#45;&gt;Node6 -->
<g id="edge6" class="edge"><title>Node5&#45;&gt;Node6</title>
<path fill="none" stroke="midnightblue" d="M153.138,-45.1746C153.138,-36.0945 153.138,-25.5949 153.138,-18.5496"/>
<polygon fill="midnightblue" stroke="midnightblue" points="149.638,-45.2187 153.138,-55.2188 156.638,-45.2188 149.638,-45.2187"/>
</g>
<!-- Node5&#45;&gt;Node7 -->
<g id="edge7" class="edge"><title>Node5&#45;&gt;Node7</title>
<path fill="none" stroke="midnightblue" d="M179.055,-51.0126C199.825,-41.0052 228.363,-27.2551 246.274,-18.6253"/>
<polygon fill="midnightblue" stroke="midnightblue" points="177.334,-47.9567 169.844,-55.4504 180.372,-54.2629 177.334,-47.9567"/>
</g>
<!-- Node8&#45;&gt;Node4 -->
<g id="edge11" class="edge"><title>Node8&#45;&gt;Node4</title>
<path fill="none" stroke="midnightblue" d="M523.622,-114.46C402.62,-105.35 120.773,-83.2778 102.138,-74 77.0096,-61.49 57.5086,-33.1081 48.9217,-18.9129"/>
<polygon fill="midnightblue" stroke="midnightblue" points="523.547,-117.964 533.781,-115.223 524.071,-110.984 523.547,-117.964"/>
</g>
<!-- Node8&#45;&gt;Node7 -->
<g id="edge13" class="edge"><title>Node8&#45;&gt;Node7</title>
<path fill="none" stroke="midnightblue" d="M560.762,-103.992C542.382,-89.4009 511.968,-67.3467 482.138,-55 424.78,-31.2599 353.573,-19.8121 308.233,-14.5647"/>
<polygon fill="midnightblue" stroke="midnightblue" points="558.792,-106.9 568.763,-110.48 563.201,-101.463 558.792,-106.9"/>
</g>
<!-- Node9 -->
<g id="node9" class="node"><title>Node9</title>
<g id="a_node9"><a xlink:href="imitatepass_8cpp.html" target="_top" xlink:title="imitatepass.cpp">
<polygon fill="none" stroke="black" points="711.399,-55.5 711.399,-73.5 796.876,-73.5 796.876,-55.5 711.399,-55.5"/>
<text text-anchor="middle" x="754.138" y="-61.5" font-family="Helvetica,sans-Serif" font-size="10.00">imitatepass.cpp</text>
</a>
</g>
</g>
<!-- Node8&#45;&gt;Node9 -->
<g id="edge12" class="edge"><title>Node8&#45;&gt;Node9</title>
<path fill="none" stroke="midnightblue" d="M614.769,-107.469C648.387,-97.3454 697.394,-82.5875 727.444,-73.5383"/>
<polygon fill="midnightblue" stroke="midnightblue" points="613.434,-104.216 604.868,-110.45 615.453,-110.918 613.434,-104.216"/>
</g>
<!-- Node10 -->
<g id="node10" class="node"><title>Node10</title>
<g id="a_node10"><a xlink:href="pass_8cpp.html" target="_top" xlink:title="pass.cpp">
<polygon fill="none" stroke="black" points="815.125,-55.5 815.125,-73.5 871.15,-73.5 871.15,-55.5 815.125,-55.5"/>
<text text-anchor="middle" x="843.138" y="-61.5" font-family="Helvetica,sans-Serif" font-size="10.00">pass.cpp</text>
</a>
</g>
</g>
<!-- Node8&#45;&gt;Node10 -->
<g id="edge14" class="edge"><title>Node8&#45;&gt;Node10</title>
<path fill="none" stroke="midnightblue" d="M631.61,-108.581C677.88,-99.874 746.539,-86.6584 806.138,-74 808.974,-73.3975 811.929,-72.751 814.877,-72.0935"/>
<polygon fill="midnightblue" stroke="midnightblue" points="630.692,-105.192 621.509,-110.477 631.983,-112.072 630.692,-105.192"/>
</g>
<!-- Node11 -->
<g id="node11" class="node"><title>Node11</title>
<g id="a_node11"><a xlink:href="qtpasssettings_8cpp.html" target="_top" xlink:title="qtpasssettings.cpp">
<polygon fill="none" stroke="black" points="528.724,-55.5 528.724,-73.5 627.551,-73.5 627.551,-55.5 528.724,-55.5"/>
<text text-anchor="middle" x="578.138" y="-61.5" font-family="Helvetica,sans-Serif" font-size="10.00">qtpasssettings.cpp</text>
</a>
</g>
</g>
<!-- Node8&#45;&gt;Node11 -->
<g id="edge15" class="edge"><title>Node8&#45;&gt;Node11</title>
<path fill="none" stroke="midnightblue" d="M578.138,-100.175C578.138,-91.0945 578.138,-80.5949 578.138,-73.5496"/>
<polygon fill="midnightblue" stroke="midnightblue" points="574.638,-100.219 578.138,-110.219 581.638,-100.219 574.638,-100.219"/>
</g>
<!-- Node12 -->
<g id="node12" class="node"><title>Node12</title>
<g id="a_node12"><a xlink:href="realpass_8cpp.html" target="_top" xlink:title="realpass.cpp">
<polygon fill="none" stroke="black" points="400.788,-55.5 400.788,-73.5 473.487,-73.5 473.487,-55.5 400.788,-55.5"/>
<text text-anchor="middle" x="437.138" y="-61.5" font-family="Helvetica,sans-Serif" font-size="10.00">realpass.cpp</text>
</a>
</g>
</g>
<!-- Node8&#45;&gt;Node12 -->
<g id="edge16" class="edge"><title>Node8&#45;&gt;Node12</title>
<path fill="none" stroke="midnightblue" d="M547.062,-106.819C520.289,-96.7556 482.336,-82.4894 458.754,-73.6253"/>
<polygon fill="midnightblue" stroke="midnightblue" points="546.131,-110.208 556.723,-110.45 548.594,-103.656 546.131,-110.208"/>
</g>
<!-- Node13 -->
<g id="node13" class="node"><title>Node13</title>
<g id="a_node13"><a xlink:href="util_8cpp.html" target="_top" xlink:title="util.cpp">
<polygon fill="none" stroke="black" points="645.295,-55.5 645.295,-73.5 692.98,-73.5 692.98,-55.5 645.295,-55.5"/>
<text text-anchor="middle" x="669.138" y="-61.5" font-family="Helvetica,sans-Serif" font-size="10.00">util.cpp</text>
</a>
</g>
</g>
<!-- Node8&#45;&gt;Node13 -->
<g id="edge17" class="edge"><title>Node8&#45;&gt;Node13</title>
<path fill="none" stroke="midnightblue" d="M600.754,-105.328C617.825,-95.3856 640.705,-82.0598 655.187,-73.6253"/>
<polygon fill="midnightblue" stroke="midnightblue" points="598.838,-102.393 591.959,-110.45 602.361,-108.442 598.838,-102.393"/>
</g>
<!-- Node16&#45;&gt;Node2 -->
<g id="edge25" class="edge"><title>Node16&#45;&gt;Node2</title>
<path fill="none" stroke="midnightblue" d="M559.218,-276.261C532.475,-269.402 494.509,-257.384 465.138,-239 440.46,-223.554 417.857,-197.032 407.341,-183.682"/>
<polygon fill="midnightblue" stroke="midnightblue" points="558.682,-279.733 569.228,-278.722 560.353,-272.936 558.682,-279.733"/>
</g>
<!-- Node16&#45;&gt;Node10 -->
<g id="edge32" class="edge"><title>Node16&#45;&gt;Node10</title>
<path fill="none" stroke="midnightblue" d="M625.124,-281.673C659.686,-278.19 713.893,-268.109 750.138,-239 807.427,-192.99 834.085,-101.886 841.154,-73.8849"/>
<polygon fill="midnightblue" stroke="midnightblue" points="624.726,-278.194 615.071,-282.555 625.339,-285.167 624.726,-278.194"/>
</g>
<!-- Node17 -->
<g id="node17" class="node"><title>Node17</title>
<g id="a_node17"><a xlink:href="imitatepass_8h.html" target="_top" xlink:title="imitatepass.h">
<polygon fill="none" stroke="black" points="554.68,-220.5 554.68,-238.5 629.596,-238.5 629.596,-220.5 554.68,-220.5"/>
<text text-anchor="middle" x="592.138" y="-226.5" font-family="Helvetica,sans-Serif" font-size="10.00">imitatepass.h</text>
</a>
</g>
</g>
<!-- Node16&#45;&gt;Node17 -->
<g id="edge22" class="edge"><title>Node16&#45;&gt;Node17</title>
<path fill="none" stroke="midnightblue" d="M592.138,-265.175C592.138,-256.094 592.138,-245.595 592.138,-238.55"/>
<polygon fill="midnightblue" stroke="midnightblue" points="588.638,-265.219 592.138,-275.219 595.638,-265.219 588.638,-265.219"/>
</g>
<!-- Node18 -->
<g id="node18" class="node"><title>Node18</title>
<g id="a_node18"><a xlink:href="realpass_8h.html" target="_top" xlink:title="realpass.h">
<polygon fill="none" stroke="black" points="474.069,-220.5 474.069,-238.5 536.207,-238.5 536.207,-220.5 474.069,-220.5"/>
<text text-anchor="middle" x="505.138" y="-226.5" font-family="Helvetica,sans-Serif" font-size="10.00">realpass.h</text>
</a>
</g>
</g>
<!-- Node16&#45;&gt;Node18 -->
<g id="edge26" class="edge"><title>Node16&#45;&gt;Node18</title>
<path fill="none" stroke="midnightblue" d="M570.061,-270.051C553.791,-260.139 532.193,-246.982 518.475,-238.625"/>
<polygon fill="midnightblue" stroke="midnightblue" points="568.563,-273.237 578.924,-275.45 572.205,-267.259 568.563,-273.237"/>
</g>
<!-- Node19 -->
<g id="node19" class="node"><title>Node19</title>
<g id="a_node19"><a xlink:href="passworddialog_8h.html" target="_top" xlink:title="passworddialog.h">
<polygon fill="none" stroke="black" points="647.224,-220.5 647.224,-238.5 741.051,-238.5 741.051,-220.5 647.224,-220.5"/>
<text text-anchor="middle" x="694.138" y="-226.5" font-family="Helvetica,sans-Serif" font-size="10.00">passworddialog.h</text>
</a>
</g>
</g>
<!-- Node16&#45;&gt;Node19 -->
<g id="edge29" class="edge"><title>Node16&#45;&gt;Node19</title>
<path fill="none" stroke="midnightblue" d="M616.695,-270.74C635.908,-260.757 662.042,-247.177 678.5,-238.625"/>
<polygon fill="midnightblue" stroke="midnightblue" points="614.889,-267.734 607.629,-275.45 618.117,-273.945 614.889,-267.734"/>
</g>
<!-- Node17&#45;&gt;Node2 -->
<g id="edge23" class="edge"><title>Node17&#45;&gt;Node2</title>
<path fill="none" stroke="midnightblue" d="M553.324,-217.73C516.82,-207.6 462.998,-192.666 430.106,-183.538"/>
<polygon fill="midnightblue" stroke="midnightblue" points="552.557,-221.149 563.129,-220.45 554.429,-214.404 552.557,-221.149"/>
</g>
<!-- Node17&#45;&gt;Node9 -->
<g id="edge24" class="edge"><title>Node17&#45;&gt;Node9</title>
<path fill="none" stroke="midnightblue" d="M603.715,-211.742C613.165,-198.517 627.192,-179.88 641.138,-165 675.816,-128.001 722.829,-89.9376 743.566,-73.671"/>
<polygon fill="midnightblue" stroke="midnightblue" points="600.597,-210.091 597.709,-220.285 606.324,-214.117 600.597,-210.091"/>
</g>
<!-- Node18&#45;&gt;Node2 -->
<g id="edge27" class="edge"><title>Node18&#45;&gt;Node2</title>
<path fill="none" stroke="midnightblue" d="M480.367,-215.877C460.753,-205.881 433.939,-192.216 417.082,-183.625"/>
<polygon fill="midnightblue" stroke="midnightblue" points="478.843,-219.028 489.342,-220.45 482.022,-212.791 478.843,-219.028"/>
</g>
<!-- Node18&#45;&gt;Node12 -->
<g id="edge28" class="edge"><title>Node18&#45;&gt;Node12</title>
<path fill="none" stroke="midnightblue" d="M497.736,-210.757C483.105,-175.685 450.992,-98.7088 440.516,-73.5971"/>
<polygon fill="midnightblue" stroke="midnightblue" points="494.592,-212.311 501.672,-220.193 501.052,-209.616 494.592,-212.311"/>
</g>
<!-- Node19&#45;&gt;Node7 -->
<g id="edge30" class="edge"><title>Node19&#45;&gt;Node7</title>
<path fill="none" stroke="midnightblue" d="M669.008,-215.79C589.401,-175.524 344.21,-51.5064 279.132,-18.5902"/>
<polygon fill="midnightblue" stroke="midnightblue" points="667.784,-219.092 678.287,-220.483 670.943,-212.846 667.784,-219.092"/>
</g>
<!-- Node20 -->
<g id="node20" class="node"><title>Node20</title>
<g id="a_node20"><a xlink:href="passworddialog_8cpp.html" target="_top" xlink:title="passworddialog.cpp">
<polygon fill="none" stroke="black" points="649.943,-165.5 649.943,-183.5 754.332,-183.5 754.332,-165.5 649.943,-165.5"/>
<text text-anchor="middle" x="702.138" y="-171.5" font-family="Helvetica,sans-Serif" font-size="10.00">passworddialog.cpp</text>
</a>
</g>
</g>
<!-- Node19&#45;&gt;Node20 -->
<g id="edge31" class="edge"><title>Node19&#45;&gt;Node20</title>
<path fill="none" stroke="midnightblue" d="M696.904,-210.175C698.274,-201.094 699.859,-190.595 700.923,-183.55"/>
<polygon fill="midnightblue" stroke="midnightblue" points="693.42,-209.808 695.388,-220.219 700.341,-210.853 693.42,-209.808"/>
</g>
</g>
</svg>
        <g id="navigator" transform="translate(0 0)" fill="#404254">
                <rect fill="#f2f5e9" fill-opacity="0.5" stroke="#606060" stroke-width=".5" x="0" y="0" width="60" height="60"/>
                <use id="zoomplus" xlink:href="#zoomPlus" x="17" y="9" onmousedown="handleZoom(evt,'in')"/>
                <use id="zoomminus" xlink:href="#zoomMin" x="42" y="9" onmousedown="handleZoom(evt,'out')"/>
                <use id="reset" xlink:href="#resetDef" x="30" y="36" onmousedown="handleReset()"/>
                <g id="arrowUp" xlink:href="#dirArrow" transform="translate(30 24)" onmousedown="handlePan(0,-1)">
                  <use xlink:href="#rim" fill="#404040">
                        <set attributeName="fill" to="#808080" begin="arrowUp.mouseover" end="arrowUp.mouseout"/>
                  </use>
                  <path fill="none" stroke="white" stroke-width="1.5" d="M0,-3.0v7 M-2.5,-0.5L0,-3.0L2.5,-0.5"/>
                </g>
                <g id="arrowRight" xlink:href="#dirArrow" transform="rotate(90) translate(36 -43)" onmousedown="handlePan(1,0)">
                  <use xlink:href="#rim" fill="#404040">
                        <set attributeName="fill" to="#808080" begin="arrowRight.mouseover" end="arrowRight.mouseout"/>
                  </use>
                  <path fill="none" stroke="white" stroke-width="1.5" d="M0,-3.0v7 M-2.5,-0.5L0,-3.0L2.5,-0.5"/>
                </g>
                <g id="arrowDown" xlink:href="#dirArrow" transform="rotate(180) translate(-30 -48)" onmousedown="handlePan(0,1)">
                  <use xlink:href="#rim" fill="#404040">
                        <set attributeName="fill" to="#808080" begin="arrowDown.mouseover" end="arrowDown.mouseout"/>
                  </use>
                  <path fill="none" stroke="white" stroke-width="1.5" d="M0,-3.0v7 M-2.5,-0.5L0,-3.0L2.5,-0.5"/>
                </g>
                <g id="arrowLeft" xlink:href="#dirArrow" transform="rotate(270) translate(-36 17)" onmousedown="handlePan(-1,0)">
                  <use xlink:href="#rim" fill="#404040">
                        <set attributeName="fill" to="#808080" begin="arrowLeft.mouseover" end="arrowLeft.mouseout"/>
                  </use>
                  <path fill="none" stroke="white" stroke-width="1.5" d="M0,-3.0v7 M-2.5,-0.5L0,-3.0L2.5,-0.5"/>
                </g>
        </g>
        <svg viewBox="0 0 15 15" width="100%" height="30px" preserveAspectRatio="xMaxYMin meet">
         <g id="arrow_out" transform="scale(0.3 0.3)">
          <a xlink:href="enums_8h__dep__incl_org.svg" target="_base">
           <rect id="button" ry="5" rx="5" y="6" x="6" height="38" width="38"
                fill="#f2f5e9" fill-opacity="0.5" stroke="#606060" stroke-width="1.0"/>
           <path id="arrow"
             d="M 11.500037,31.436501 C 11.940474,20.09759 22.043105,11.32322 32.158766,21.979434 L 37.068811,17.246167 C 37.068811,17.246167 37.088388,32 37.088388,32 L 22.160133,31.978069 C 22.160133,31.978069 26.997745,27.140456 26.997745,27.140456 C 18.528582,18.264221 13.291696,25.230495 11.500037,31.436501 z"
             style="fill:#404040;"/>
          </a>
         </g>
        </svg>
</svg>
