<?xml version="1.0" encoding="UTF-8" standalone="no"?>
<!DOCTYPE svg PUBLIC "-//W3C//DTD SVG 1.1//EN"
 "http://www.w3.org/Graphics/SVG/1.1/DTD/svg11.dtd">
<!-- Generated by graphviz version 2.43.0 (0)
 -->
<!-- Title: src/enums.h Pages: 1 -->
<!--zoomable 269 -->

<svg id="main" version="1.1" xmlns="http://www.w3.org/2000/svg" xmlns:xlink="http://www.w3.org/1999/xlink" xml:space="preserve" onload="init(evt)">

<style type="text/css"><![CDATA[
.node, .edge {opacity: 0.7;}
.node.selected, .edge.selected {opacity: 1;}
.edge:hover path { stroke: red; }
.edge:hover polygon { stroke: red; fill: red; }
]]></style>

<defs>
  <circle id="rim" cx="0" cy="0" r="7"/>
  <circle id="rim2" cx="0" cy="0" r="3.5"/>
  <g id="zoomPlus">
    <use xlink:href="#rim" fill="#404040"><set attributeName="fill" to="#808080" begin="zoomplus.mouseover" end="zoomplus.mouseout"/></use>
    <path d="M-4,0h8M0,-4v8" fill="none" stroke="white" stroke-width="1.5" pointer-events="none"/>
  </g>
  <g id="zoomMin">
    <use xlink:href="#rim" fill="#404040"><set attributeName="fill" to="#808080" begin="zoomminus.mouseover" end="zoomminus.mouseout"/></use>
    <path d="M-4,0h8" fill="none" stroke="white" stroke-width="1.5" pointer-events="none"/>
  </g>
  <g id="arrowUp" transform="translate(30 24)">
    <use xlink:href="#rim"/>
    <path pointer-events="none" fill="none" stroke="white" stroke-width="1.5" d="M0,-3.0v7 M-2.5,-0.5L0,-3.0L2.5,-0.5"/>
  </g>
  <g id="arrowRight" transform="rotate(90) translate(36 -43)">
    <use xlink:href="#rim"/>
    <path pointer-events="none" fill="none" stroke="white" stroke-width="1.5" d="M0,-3.0v7 M-2.5,-0.5L0,-3.0L2.5,-0.5"/>
  </g>
  <g id="arrowDown" transform="rotate(180) translate(-30 -48)">
    <use xlink:href="#rim"/>
    <path pointer-events="none" fill="none" stroke="white" stroke-width="1.5" d="M0,-3.0v7 M-2.5,-0.5L0,-3.0L2.5,-0.5"/>
  </g>
  <g id="arrowLeft" transform="rotate(270) translate(-36 17)">
    <use xlink:href="#rim"/>
    <path pointer-events="none" fill="none" stroke="white" stroke-width="1.5" d="M0,-3.0v7 M-2.5,-0.5L0,-3.0L2.5,-0.5"/>
  </g>
  <g id="resetDef">
    <use xlink:href="#rim2" fill="#404040"><set attributeName="fill" to="#808080" begin="reset.mouseover" end="reset.mouseout"/></use>
  </g>
</defs>
<script type="application/ecmascript">
var viewWidth = 2006;
var viewHeight = 269;
var sectionId = 'dynsection-0';
</script>
<script type="application/ecmascript" xlink:href="svg.min.js"/>
<svg id="graph" class="graph">
<g id="viewport">
<title>src/enums.h</title>
<!-- Node1 -->
<g id="Node000001" class="node">
<title>Node1</title>
<g id="a_Node000001"><a xlink:title=" ">
<polygon fill="#999999" stroke="#666666" points="1206.5,-261 1130.5,-261 1130.5,-242 1206.5,-242 1206.5,-261"/>
<text text-anchor="middle" x="1168.5" y="-249" font-family="Helvetica,sans-Serif" font-size="10.00">src/enums.h</text>
</a>
</g>
</g>
<!-- Node2 -->
<g id="Node000002" class="node">
<title>Node2</title>
<g id="a_Node000002"><a xlink:href="configdialog_8h.html" target="_top" xlink:title=" ">
<polygon fill="white" stroke="#666666" points="313.5,-85 211.5,-85 211.5,-66 313.5,-66 313.5,-85"/>
<text text-anchor="middle" x="262.5" y="-73" font-family="Helvetica,sans-Serif" font-size="10.00">src/configdialog.h</text>
</a>
</g>
</g>
<!-- Node1&#45;&gt;Node2 -->
<g id="edge1_Node000001_Node000002" class="edge">
<title>Node1&#45;&gt;Node2</title>
<g id="a_edge1_Node000001_Node000002"><a xlink:title=" ">
<path fill="none" stroke="#63b8ff" d="M1120.17,-246.37C1050.04,-239.98 916.15,-226.28 803.5,-206 606.75,-170.58 374.46,-107.77 292.75,-85.02"/>
<polygon fill="#63b8ff" stroke="#63b8ff" points="1120.18,-249.89 1130.45,-247.3 1120.81,-242.91 1120.18,-249.89"/>
</a>
</g>
</g>
<!-- Node6 -->
<g id="Node000006" class="node">
<title>Node6</title>
<g id="a_Node000006"><a xlink:href="pass_8h.html" target="_top" xlink:title=" ">
<polygon fill="white" stroke="#666666" points="878,-206 813,-206 813,-187 878,-187 878,-206"/>
<text text-anchor="middle" x="845.5" y="-194" font-family="Helvetica,sans-Serif" font-size="10.00">src/pass.h</text>
</a>
</g>
</g>
<!-- Node1&#45;&gt;Node6 -->
<g id="edge5_Node000001_Node000006" class="edge">
<title>Node1&#45;&gt;Node6</title>
<g id="a_edge5_Node000001_Node000006"><a xlink:title=" ">
<path fill="none" stroke="#63b8ff" d="M1120.26,-242.58C1053.61,-231.65 935.11,-212.2 878.02,-202.84"/>
<polygon fill="#63b8ff" stroke="#63b8ff" points="1120.06,-246.1 1130.5,-244.26 1121.2,-239.19 1120.06,-246.1"/>
</a>
</g>
</g>
<!-- Node9 -->
<g id="Node000009" class="node">
<title>Node9</title>
<g id="a_Node000009"><a xlink:href="qtpasssettings_8h.html" target="_top" xlink:title=" ">
<polygon fill="white" stroke="#666666" points="1125.5,-85 1011.5,-85 1011.5,-66 1125.5,-66 1125.5,-85"/>
<text text-anchor="middle" x="1068.5" y="-73" font-family="Helvetica,sans-Serif" font-size="10.00">src/qtpasssettings.h</text>
</a>
</g>
</g>
<!-- Node1&#45;&gt;Node9 -->
<g id="edge35_Node000001_Node000009" class="edge">
<title>Node1&#45;&gt;Node9</title>
<g id="a_edge35_Node000001_Node000009"><a xlink:title=" ">
<path fill="none" stroke="#63b8ff" d="M1152.94,-234.68C1135.46,-216.09 1107.32,-183.63 1090.5,-151 1079.01,-128.7 1072.6,-99.48 1069.96,-85.16"/>
<polygon fill="#63b8ff" stroke="#63b8ff" points="1150.49,-237.18 1159.93,-241.98 1155.54,-232.33 1150.49,-237.18"/>
</a>
</g>
</g>
<!-- Node21 -->
<g id="Node000021" class="node">
<title>Node21</title>
<g id="a_Node000021"><a xlink:href="tst__util_8cpp.html" target="_top" xlink:title=" ">
<polygon fill="white" stroke="#666666" points="1997.5,-30 1897.5,-30 1897.5,0 1997.5,0 1997.5,-30"/>
<text text-anchor="start" x="1905.5" y="-18" font-family="Helvetica,sans-Serif" font-size="10.00">tests/auto/util/tst</text>
<text text-anchor="middle" x="1947.5" y="-7" font-family="Helvetica,sans-Serif" font-size="10.00">_util.cpp</text>
</a>
</g>
</g>
<!-- Node1&#45;&gt;Node21 -->
<g id="edge42_Node000001_Node000021" class="edge">
<title>Node1&#45;&gt;Node21</title>
<g id="a_edge42_Node000001_Node000021"><a xlink:title=" ">
<path fill="none" stroke="#63b8ff" d="M1180.9,-233.72C1210.14,-195.69 1287.72,-103.33 1377.5,-66 1482.61,-22.3 1775.97,-47.2 1888.5,-30 1891.41,-29.55 1894.4,-29.04 1897.4,-28.47"/>
<polygon fill="#63b8ff" stroke="#63b8ff" points="1178.06,-231.68 1174.82,-241.77 1183.64,-235.9 1178.06,-231.68"/>
</a>
</g>
</g>
<!-- Node23 -->
<g id="Node000023" class="node">
<title>Node23</title>
<g id="a_Node000023"><a xlink:href="simpletransaction_8h.html" target="_top" xlink:title=" ">
<polygon fill="white" stroke="#666666" points="1427,-206 1296,-206 1296,-187 1427,-187 1427,-206"/>
<text text-anchor="middle" x="1361.5" y="-194" font-family="Helvetica,sans-Serif" font-size="10.00">src/simpletransaction.h</text>
</a>
</g>
</g>
<!-- Node1&#45;&gt;Node23 -->
<g id="edge36_Node000001_Node000023" class="edge">
<title>Node1&#45;&gt;Node23</title>
<g id="a_edge36_Node000001_Node000023"><a xlink:title=" ">
<path fill="none" stroke="#63b8ff" d="M1209.25,-239.31C1245.36,-229.39 1297.33,-215.12 1330.25,-206.08"/>
<polygon fill="#63b8ff" stroke="#63b8ff" points="1208.22,-235.96 1199.51,-241.98 1210.08,-242.71 1208.22,-235.96"/>
</a>
</g>
</g>
<!-- Node25 -->
<g id="Node000025" class="node">
<title>Node25</title>
<g id="a_Node000025"><a xlink:href="tst__simpletransaction_8cpp.html" target="_top" xlink:title=" ">
<polygon fill="white" stroke="#666666" points="1649.5,-151 1493.5,-151 1493.5,-121 1649.5,-121 1649.5,-151"/>
<text text-anchor="start" x="1501.5" y="-139" font-family="Helvetica,sans-Serif" font-size="10.00">tests/auto/simpletransaction</text>
<text text-anchor="middle" x="1571.5" y="-128" font-family="Helvetica,sans-Serif" font-size="10.00">/tst_simpletransaction.cpp</text>
</a>
</g>
</g>
<!-- Node1&#45;&gt;Node25 -->
<g id="edge41_Node000001_Node000025" class="edge">
<title>Node1&#45;&gt;Node25</title>
<g id="a_edge41_Node000001_Node000025"><a xlink:title=" ">
<path fill="none" stroke="#63b8ff" d="M1216.73,-246.98C1271.22,-241.99 1362.02,-230.56 1436.5,-206 1478.25,-192.23 1522.98,-167.07 1549.03,-151.23"/>
<polygon fill="#63b8ff" stroke="#63b8ff" points="1216.32,-243.51 1206.66,-247.87 1216.93,-250.48 1216.32,-243.51"/>
</a>
</g>
</g>
<!-- Node3 -->
<g id="Node000003" class="node">
<title>Node3</title>
<g id="a_Node000003"><a xlink:href="configdialog_8cpp.html" target="_top" xlink:title=" ">
<polygon fill="white" stroke="#666666" points="385,-24.5 272,-24.5 272,-5.5 385,-5.5 385,-24.5"/>
<text text-anchor="middle" x="328.5" y="-12.5" font-family="Helvetica,sans-Serif" font-size="10.00">src/configdialog.cpp</text>
</a>
</g>
</g>
<!-- Node2&#45;&gt;Node3 -->
<g id="edge2_Node000002_Node000003" class="edge">
<title>Node2&#45;&gt;Node3</title>
<g id="a_edge2_Node000002_Node000003"><a xlink:title=" ">
<path fill="none" stroke="#63b8ff" d="M279.74,-59.22C292.16,-48.21 308.47,-33.75 318.72,-24.67"/>
<polygon fill="#63b8ff" stroke="#63b8ff" points="277.4,-56.62 272.24,-65.87 282.04,-61.85 277.4,-56.62"/>
</a>
</g>
</g>
<!-- Node4 -->
<g id="Node000004" class="node">
<title>Node4</title>
<g id="a_Node000004"><a xlink:href="keygendialog_8cpp.html" target="_top" xlink:title=" ">
<polygon fill="white" stroke="#666666" points="119,-24.5 0,-24.5 0,-5.5 119,-5.5 119,-24.5"/>
<text text-anchor="middle" x="59.5" y="-12.5" font-family="Helvetica,sans-Serif" font-size="10.00">src/keygendialog.cpp</text>
</a>
</g>
</g>
<!-- Node2&#45;&gt;Node4 -->
<g id="edge3_Node000002_Node000004" class="edge">
<title>Node2&#45;&gt;Node4</title>
<g id="a_edge3_Node000002_Node000004"><a xlink:title=" ">
<path fill="none" stroke="#63b8ff" d="M223.22,-63.18C183.96,-51.87 124.48,-34.72 89.05,-24.52"/>
<polygon fill="#63b8ff" stroke="#63b8ff" points="222.4,-66.59 232.98,-65.99 224.34,-59.86 222.4,-66.59"/>
</a>
</g>
</g>
<!-- Node5 -->
<g id="Node000005" class="node">
<title>Node5</title>
<g id="a_Node000005"><a xlink:href="mainwindow_8cpp.html" target="_top" xlink:title=" ">
<polygon fill="white" stroke="#666666" points="253.5,-24.5 137.5,-24.5 137.5,-5.5 253.5,-5.5 253.5,-24.5"/>
<text text-anchor="middle" x="195.5" y="-12.5" font-family="Helvetica,sans-Serif" font-size="10.00">src/mainwindow.cpp</text>
</a>
</g>
</g>
<!-- Node2&#45;&gt;Node5 -->
<g id="edge4_Node000002_Node000005" class="edge">
<title>Node2&#45;&gt;Node5</title>
<g id="a_edge4_Node000002_Node000005"><a xlink:title=" ">
<path fill="none" stroke="#63b8ff" d="M245,-59.22C232.4,-48.21 215.83,-33.75 205.43,-24.67"/>
<polygon fill="#63b8ff" stroke="#63b8ff" points="242.78,-61.93 252.61,-65.87 247.38,-56.65 242.78,-61.93"/>
</a>
</g>
</g>
<!-- Node6&#45;&gt;Node4 -->
<g id="edge26_Node000006_Node000004" class="edge">
<title>Node6&#45;&gt;Node4</title>
<g id="a_edge26_Node000006_Node000004"><a xlink:title=" ">
<path fill="none" stroke="#63b8ff" d="M802.81,-192.3C698.22,-183.59 421.77,-155.21 202.5,-85 153.15,-69.2 99.16,-39.39 73.96,-24.67"/>
<polygon fill="#63b8ff" stroke="#63b8ff" points="802.71,-195.81 812.96,-193.13 803.28,-188.83 802.71,-195.81"/>
</a>
</g>
</g>
<!-- Node7 -->
<g id="Node000007" class="node">
<title>Node7</title>
<g id="a_Node000007"><a xlink:href="imitatepass_8h.html" target="_top" xlink:title=" ">
<polygon fill="white" stroke="#666666" points="1201,-145.5 1100,-145.5 1100,-126.5 1201,-126.5 1201,-145.5"/>
<text text-anchor="middle" x="1150.5" y="-133.5" font-family="Helvetica,sans-Serif" font-size="10.00">src/imitatepass.h</text>
</a>
</g>
</g>
<!-- Node6&#45;&gt;Node7 -->
<g id="edge6_Node000006_Node000007" class="edge">
<title>Node6&#45;&gt;Node7</title>
<g id="a_edge6_Node000006_Node000007"><a xlink:title=" ">
<path fill="none" stroke="#63b8ff" d="M888,-187.35C945.5,-176.32 1047.59,-156.74 1106.07,-145.52"/>
<polygon fill="#63b8ff" stroke="#63b8ff" points="887.3,-183.92 878.14,-189.24 888.62,-190.79 887.3,-183.92"/>
</a>
</g>
</g>
<!-- Node10 -->
<g id="Node000010" class="node">
<title>Node10</title>
<g id="a_Node000010"><a xlink:href="pass_8cpp.html" target="_top" xlink:title=" ">
<polygon fill="white" stroke="#666666" points="480,-24.5 403,-24.5 403,-5.5 480,-5.5 480,-24.5"/>
<text text-anchor="middle" x="441.5" y="-12.5" font-family="Helvetica,sans-Serif" font-size="10.00">src/pass.cpp</text>
</a>
</g>
</g>
<!-- Node6&#45;&gt;Node10 -->
<g id="edge27_Node000006_Node000010" class="edge">
<title>Node6&#45;&gt;Node10</title>
<g id="a_edge27_Node000006_Node000010"><a xlink:title=" ">
<path fill="none" stroke="#63b8ff" d="M810.98,-183.61C786.82,-175.07 753.93,-163 725.5,-151 622.14,-107.37 501.72,-46.8 458.23,-24.59"/>
<polygon fill="#63b8ff" stroke="#63b8ff" points="809.83,-186.92 820.43,-186.93 812.15,-180.32 809.83,-186.92"/>
</a>
</g>
</g>
<!-- Node11 -->
<g id="Node000011" class="node">
<title>Node11</title>
<g id="a_Node000011"><a xlink:href="passworddialog_8cpp.html" target="_top" xlink:title=" ">
<polygon fill="white" stroke="#666666" points="629,-24.5 498,-24.5 498,-5.5 629,-5.5 629,-24.5"/>
<text text-anchor="middle" x="563.5" y="-12.5" font-family="Helvetica,sans-Serif" font-size="10.00">src/passworddialog.cpp</text>
</a>
</g>
</g>
<!-- Node6&#45;&gt;Node11 -->
<g id="edge28_Node000006_Node000011" class="edge">
<title>Node6&#45;&gt;Node11</title>
<g id="a_edge28_Node000006_Node000011"><a xlink:title=" ">
<path fill="none" stroke="#63b8ff" d="M823.44,-181.46C767.62,-145.93 621.99,-53.23 576.96,-24.57"/>
<polygon fill="#63b8ff" stroke="#63b8ff" points="821.58,-184.43 831.9,-186.84 825.34,-178.52 821.58,-184.43"/>
</a>
</g>
</g>
<!-- Node13 -->
<g id="Node000013" class="node">
<title>Node13</title>
<g id="a_Node000013"><a xlink:href="qtpasssettings_8cpp.html" target="_top" xlink:title=" ">
<polygon fill="white" stroke="#666666" points="772,-24.5 647,-24.5 647,-5.5 772,-5.5 772,-24.5"/>
<text text-anchor="middle" x="709.5" y="-12.5" font-family="Helvetica,sans-Serif" font-size="10.00">src/qtpasssettings.cpp</text>
</a>
</g>
</g>
<!-- Node6&#45;&gt;Node13 -->
<g id="edge29_Node000006_Node000013" class="edge">
<title>Node6&#45;&gt;Node13</title>
<g id="a_edge29_Node000006_Node000013"><a xlink:title=" ">
<path fill="none" stroke="#63b8ff" d="M832.61,-178.48C804.21,-141.01 737.13,-52.46 715.99,-24.57"/>
<polygon fill="#63b8ff" stroke="#63b8ff" points="830.11,-180.99 838.94,-186.84 835.69,-176.76 830.11,-180.99"/>
</a>
</g>
</g>
<!-- Node18 -->
<g id="Node000018" class="node">
<title>Node18</title>
<g id="a_Node000018"><a xlink:href="tst__executor_8cpp.html" target="_top" xlink:title=" ">
<polygon fill="white" stroke="#666666" points="900.5,-30 790.5,-30 790.5,0 900.5,0 900.5,-30"/>
<text text-anchor="start" x="798.5" y="-18" font-family="Helvetica,sans-Serif" font-size="10.00">tests/auto/executor</text>
<text text-anchor="middle" x="845.5" y="-7" font-family="Helvetica,sans-Serif" font-size="10.00">/tst_executor.cpp</text>
</a>
</g>
</g>
<!-- Node6&#45;&gt;Node18 -->
<g id="edge33_Node000006_Node000018" class="edge">
<title>Node6&#45;&gt;Node18</title>
<g id="a_edge33_Node000006_Node000018"><a xlink:title=" ">
<path fill="none" stroke="#63b8ff" d="M845.5,-176.72C845.5,-140.65 845.5,-62.37 845.5,-30.22"/>
<polygon fill="#63b8ff" stroke="#63b8ff" points="842,-176.84 845.5,-186.84 849,-176.84 842,-176.84"/>
</a>
</g>
</g>
<!-- Node6&#45;&gt;Node21 -->
<g id="edge34_Node000006_Node000021" class="edge">
<title>Node6&#45;&gt;Node21</title>
<g id="a_edge34_Node000006_Node000021"><a xlink:title=" ">
<path fill="none" stroke="#63b8ff" d="M888.2,-195.17C972.89,-193.75 1158.37,-186.53 1209.5,-151 1244.43,-126.72 1217.8,-89.13 1253.5,-66 1312.81,-27.57 1818.57,-40.2 1888.5,-30 1891.42,-29.57 1894.4,-29.07 1897.4,-28.52"/>
<polygon fill="#63b8ff" stroke="#63b8ff" points="888.09,-191.67 878.14,-195.32 888.2,-198.67 888.09,-191.67"/>
</a>
</g>
</g>
<!-- Node22 -->
<g id="Node000022" class="node">
<title>Node22</title>
<g id="a_Node000022"><a xlink:href="realpass_8h.html" target="_top" xlink:title=" ">
<polygon fill="white" stroke="#666666" points="1008.5,-145.5 924.5,-145.5 924.5,-126.5 1008.5,-126.5 1008.5,-145.5"/>
<text text-anchor="middle" x="966.5" y="-133.5" font-family="Helvetica,sans-Serif" font-size="10.00">src/realpass.h</text>
</a>
</g>
</g>
<!-- Node6&#45;&gt;Node22 -->
<g id="edge30_Node000006_Node000022" class="edge">
<title>Node6&#45;&gt;Node22</title>
<g id="a_edge30_Node000006_Node000022"><a xlink:title=" ">
<path fill="none" stroke="#63b8ff" d="M872.11,-182.63C895.45,-171.35 928.71,-155.27 948.88,-145.52"/>
<polygon fill="#63b8ff" stroke="#63b8ff" points="870.57,-179.49 863.09,-186.99 873.62,-185.79 870.57,-179.49"/>
</a>
</g>
</g>
<!-- Node8 -->
<g id="Node000008" class="node">
<title>Node8</title>
<g id="a_Node000008"><a xlink:href="imitatepass_8cpp.html" target="_top" xlink:title=" ">
<polygon fill="white" stroke="#666666" points="1879.5,-24.5 1767.5,-24.5 1767.5,-5.5 1879.5,-5.5 1879.5,-24.5"/>
<text text-anchor="middle" x="1823.5" y="-12.5" font-family="Helvetica,sans-Serif" font-size="10.00">src/imitatepass.cpp</text>
</a>
</g>
</g>
<!-- Node7&#45;&gt;Node8 -->
<g id="edge7_Node000007_Node000008" class="edge">
<title>Node7&#45;&gt;Node8</title>
<g id="a_edge7_Node000007_Node000008"><a xlink:title=" ">
<path fill="none" stroke="#63b8ff" d="M1152.3,-116.54C1154.94,-100.38 1161.45,-77.7 1177.5,-66 1229.77,-27.9 1694.43,-38.83 1758.5,-30 1768.33,-28.64 1778.9,-26.62 1788.59,-24.53"/>
<polygon fill="#63b8ff" stroke="#63b8ff" points="1148.83,-116.11 1151.02,-126.48 1155.77,-117.01 1148.83,-116.11"/>
</a>
</g>
</g>
<!-- Node7&#45;&gt;Node9 -->
<g id="edge8_Node000007_Node000009" class="edge">
<title>Node7&#45;&gt;Node9</title>
<g id="a_edge8_Node000007_Node000009"><a xlink:title=" ">
<path fill="none" stroke="#63b8ff" d="M1129.96,-120.35C1114.43,-109.27 1093.63,-94.43 1080.65,-85.17"/>
<polygon fill="#63b8ff" stroke="#63b8ff" points="1128.23,-123.41 1138.4,-126.37 1132.29,-117.71 1128.23,-123.41"/>
</a>
</g>
</g>
<!-- Node7&#45;&gt;Node21 -->
<g id="edge25_Node000007_Node000021" class="edge">
<title>Node7&#45;&gt;Node21</title>
<g id="a_edge25_Node000007_Node000021"><a xlink:title=" ">
<path fill="none" stroke="#63b8ff" d="M1161.24,-117.48C1172.48,-100.91 1191.79,-77 1215.5,-66 1351.36,-2.98 1740.26,-51.38 1888.5,-30 1891.42,-29.58 1894.4,-29.08 1897.41,-28.53"/>
<polygon fill="#63b8ff" stroke="#63b8ff" points="1158.07,-115.93 1155.58,-126.23 1163.95,-119.73 1158.07,-115.93"/>
</a>
</g>
</g>
<!-- Node9&#45;&gt;Node3 -->
<g id="edge9_Node000009_Node000003" class="edge">
<title>Node9&#45;&gt;Node3</title>
<g id="a_edge9_Node000009_Node000003"><a xlink:title=" ">
<path fill="none" stroke="#63b8ff" d="M1001.03,-73.31C879.16,-70.45 614.45,-60.91 393.5,-30 383.67,-28.62 373.11,-26.59 363.42,-24.5"/>
<polygon fill="#63b8ff" stroke="#63b8ff" points="1001.24,-76.82 1011.32,-73.55 1001.4,-69.82 1001.24,-76.82"/>
</a>
</g>
</g>
<!-- Node9&#45;&gt;Node4 -->
<g id="edge11_Node000009_Node000004" class="edge">
<title>Node9&#45;&gt;Node4</title>
<g id="a_edge11_Node000009_Node000004"><a xlink:title=" ">
<path fill="none" stroke="#63b8ff" d="M1000.99,-74.83C846.12,-74.83 453.6,-70.43 128.5,-30 117.95,-28.69 106.6,-26.65 96.21,-24.53"/>
<polygon fill="#63b8ff" stroke="#63b8ff" points="1001.29,-78.33 1011.29,-74.83 1001.28,-71.33 1001.29,-78.33"/>
</a>
</g>
</g>
<!-- Node9&#45;&gt;Node5 -->
<g id="edge12_Node000009_Node000005" class="edge">
<title>Node9&#45;&gt;Node5</title>
<g id="a_edge12_Node000009_Node000005"><a xlink:title=" ">
<path fill="none" stroke="#63b8ff" d="M1000.99,-74.2C862.12,-72.84 534.63,-65.74 262.5,-30 252.37,-28.67 241.48,-26.65 231.49,-24.56"/>
<polygon fill="#63b8ff" stroke="#63b8ff" points="1001.02,-77.7 1011.06,-74.3 1001.09,-70.7 1001.02,-77.7"/>
</a>
</g>
</g>
<!-- Node9&#45;&gt;Node8 -->
<g id="edge10_Node000009_Node000008" class="edge">
<title>Node9&#45;&gt;Node8</title>
<g id="a_edge10_Node000009_Node000008"><a xlink:title=" ">
<path fill="none" stroke="#63b8ff" d="M1136.13,-66.31C1137.26,-66.2 1138.39,-66.1 1139.5,-66 1413.99,-41.61 1485.44,-67.12 1758.5,-30 1768.34,-28.66 1778.9,-26.64 1788.59,-24.55"/>
<polygon fill="#63b8ff" stroke="#63b8ff" points="1135.42,-62.86 1125.82,-67.33 1136.12,-69.83 1135.42,-62.86"/>
</a>
</g>
</g>
<!-- Node9&#45;&gt;Node10 -->
<g id="edge13_Node000009_Node000010" class="edge">
<title>Node9&#45;&gt;Node10</title>
<g id="a_edge13_Node000009_Node000010"><a xlink:title=" ">
<path fill="none" stroke="#63b8ff" d="M1001,-73.96C892.21,-72.06 671.76,-63.92 488.5,-30 481.3,-28.67 473.63,-26.65 466.63,-24.56"/>
<polygon fill="#63b8ff" stroke="#63b8ff" points="1001.12,-77.47 1011.17,-74.13 1001.23,-70.47 1001.12,-77.47"/>
</a>
</g>
</g>
<!-- Node9&#45;&gt;Node11 -->
<g id="edge14_Node000009_Node000011" class="edge">
<title>Node9&#45;&gt;Node11</title>
<g id="a_edge14_Node000009_Node000011"><a xlink:title=" ">
<path fill="none" stroke="#63b8ff" d="M1001.46,-69.34C916.51,-62.39 765.71,-48.71 637.5,-30 627.02,-28.47 615.76,-26.51 605.27,-24.54"/>
<polygon fill="#63b8ff" stroke="#63b8ff" points="1001.24,-72.83 1011.49,-70.15 1001.8,-65.85 1001.24,-72.83"/>
</a>
</g>
</g>
<!-- Node12 -->
<g id="Node000012" class="node">
<title>Node12</title>
<g id="a_Node000012"><a xlink:href="qtpass_8cpp.html" target="_top" xlink:title=" ">
<polygon fill="white" stroke="#666666" points="1243.5,-24.5 1157.5,-24.5 1157.5,-5.5 1243.5,-5.5 1243.5,-24.5"/>
<text text-anchor="middle" x="1200.5" y="-12.5" font-family="Helvetica,sans-Serif" font-size="10.00">src/qtpass.cpp</text>
</a>
</g>
</g>
<!-- Node9&#45;&gt;Node12 -->
<g id="edge15_Node000009_Node000012" class="edge">
<title>Node9&#45;&gt;Node12</title>
<g id="a_edge15_Node000009_Node000012"><a xlink:title=" ">
<path fill="none" stroke="#63b8ff" d="M1096.86,-61.93C1122.34,-50.64 1159.08,-34.36 1181.28,-24.52"/>
<polygon fill="#63b8ff" stroke="#63b8ff" points="1095.42,-58.74 1087.69,-65.99 1098.25,-65.14 1095.42,-58.74"/>
</a>
</g>
</g>
<!-- Node9&#45;&gt;Node13 -->
<g id="edge16_Node000009_Node000013" class="edge">
<title>Node9&#45;&gt;Node13</title>
<g id="a_edge16_Node000009_Node000013"><a xlink:title=" ">
<path fill="none" stroke="#63b8ff" d="M1001.31,-64.82C943.07,-56.26 856.59,-43.12 781.5,-30 771.97,-28.33 761.75,-26.42 752.09,-24.56"/>
<polygon fill="#63b8ff" stroke="#63b8ff" points="1001.09,-68.33 1011.49,-66.32 1002.1,-61.4 1001.09,-68.33"/>
</a>
</g>
</g>
<!-- Node14 -->
<g id="Node000014" class="node">
<title>Node14</title>
<g id="a_Node000014"><a xlink:href="realpass_8cpp.html" target="_top" xlink:title=" ">
<polygon fill="white" stroke="#666666" points="1014,-24.5 919,-24.5 919,-5.5 1014,-5.5 1014,-24.5"/>
<text text-anchor="middle" x="966.5" y="-12.5" font-family="Helvetica,sans-Serif" font-size="10.00">src/realpass.cpp</text>
</a>
</g>
</g>
<!-- Node9&#45;&gt;Node14 -->
<g id="edge17_Node000009_Node000014" class="edge">
<title>Node9&#45;&gt;Node14</title>
<g id="a_edge17_Node000009_Node000014"><a xlink:title=" ">
<path fill="none" stroke="#63b8ff" d="M1044.56,-60.77C1025.09,-49.6 998.21,-34.19 981.61,-24.67"/>
<polygon fill="#63b8ff" stroke="#63b8ff" points="1043.03,-63.93 1053.45,-65.87 1046.52,-57.86 1043.03,-63.93"/>
</a>
</g>
</g>
<!-- Node15 -->
<g id="Node000015" class="node">
<title>Node15</title>
<g id="a_Node000015"><a xlink:href="storemodel_8cpp.html" target="_top" xlink:title=" ">
<polygon fill="white" stroke="#666666" points="1371.5,-24.5 1261.5,-24.5 1261.5,-5.5 1371.5,-5.5 1371.5,-24.5"/>
<text text-anchor="middle" x="1316.5" y="-12.5" font-family="Helvetica,sans-Serif" font-size="10.00">src/storemodel.cpp</text>
</a>
</g>
</g>
<!-- Node9&#45;&gt;Node15 -->
<g id="edge18_Node000009_Node000015" class="edge">
<title>Node9&#45;&gt;Node15</title>
<g id="a_edge18_Node000009_Node000015"><a xlink:title=" ">
<path fill="none" stroke="#63b8ff" d="M1114.37,-63.68C1162.29,-52.38 1236.48,-34.88 1280.4,-24.52"/>
<polygon fill="#63b8ff" stroke="#63b8ff" points="1113.49,-60.29 1104.56,-65.99 1115.1,-67.1 1113.49,-60.29"/>
</a>
</g>
</g>
<!-- Node16 -->
<g id="Node000016" class="node">
<title>Node16</title>
<g id="a_Node000016"><a xlink:href="usersdialog_8cpp.html" target="_top" xlink:title=" ">
<polygon fill="white" stroke="#666666" points="1499.5,-24.5 1389.5,-24.5 1389.5,-5.5 1499.5,-5.5 1499.5,-24.5"/>
<text text-anchor="middle" x="1444.5" y="-12.5" font-family="Helvetica,sans-Serif" font-size="10.00">src/usersdialog.cpp</text>
</a>
</g>
</g>
<!-- Node9&#45;&gt;Node16 -->
<g id="edge19_Node000009_Node000016" class="edge">
<title>Node9&#45;&gt;Node16</title>
<g id="a_edge19_Node000009_Node000016"><a xlink:title=" ">
<path fill="none" stroke="#63b8ff" d="M1135.89,-66.35C1199.24,-58.34 1296.6,-45.14 1380.5,-30 1389.34,-28.4 1398.82,-26.46 1407.7,-24.54"/>
<polygon fill="#63b8ff" stroke="#63b8ff" points="1135.12,-62.91 1125.64,-67.63 1135.99,-69.86 1135.12,-62.91"/>
</a>
</g>
</g>
<!-- Node17 -->
<g id="Node000017" class="node">
<title>Node17</title>
<g id="a_Node000017"><a xlink:href="util_8cpp.html" target="_top" xlink:title=" ">
<polygon fill="white" stroke="#666666" points="1587.5,-24.5 1517.5,-24.5 1517.5,-5.5 1587.5,-5.5 1587.5,-24.5"/>
<text text-anchor="middle" x="1552.5" y="-12.5" font-family="Helvetica,sans-Serif" font-size="10.00">src/util.cpp</text>
</a>
</g>
</g>
<!-- Node9&#45;&gt;Node17 -->
<g id="edge20_Node000009_Node000017" class="edge">
<title>Node9&#45;&gt;Node17</title>
<g id="a_edge20_Node000009_Node000017"><a xlink:title=" ">
<path fill="none" stroke="#63b8ff" d="M1136.14,-66.37C1137.27,-66.24 1138.39,-66.12 1139.5,-66 1303.31,-48.21 1347.09,-63.16 1508.5,-30 1515.1,-28.64 1522.1,-26.67 1528.54,-24.63"/>
<polygon fill="#63b8ff" stroke="#63b8ff" points="1135.39,-62.93 1125.84,-67.53 1136.17,-69.89 1135.39,-62.93"/>
</a>
</g>
</g>
<!-- Node9&#45;&gt;Node18 -->
<g id="edge21_Node000009_Node000018" class="edge">
<title>Node9&#45;&gt;Node18</title>
<g id="a_edge21_Node000009_Node000018"><a xlink:title=" ">
<path fill="none" stroke="#63b8ff" d="M1026.35,-63.44C990.28,-53.98 938.15,-40.3 899.11,-30.06"/>
<polygon fill="#63b8ff" stroke="#63b8ff" points="1025.51,-66.84 1036.07,-65.99 1027.29,-60.07 1025.51,-66.84"/>
</a>
</g>
</g>
<!-- Node19 -->
<g id="Node000019" class="node">
<title>Node19</title>
<g id="a_Node000019"><a xlink:href="tst__passwordconfig_8cpp.html" target="_top" xlink:title=" ">
<polygon fill="white" stroke="#666666" points="1749.5,-30 1605.5,-30 1605.5,0 1749.5,0 1749.5,-30"/>
<text text-anchor="start" x="1613.5" y="-18" font-family="Helvetica,sans-Serif" font-size="10.00">tests/auto/passwordconfig</text>
<text text-anchor="middle" x="1677.5" y="-7" font-family="Helvetica,sans-Serif" font-size="10.00">/tst_passwordconfig.cpp</text>
</a>
</g>
</g>
<!-- Node9&#45;&gt;Node19 -->
<g id="edge22_Node000009_Node000019" class="edge">
<title>Node9&#45;&gt;Node19</title>
<g id="a_edge22_Node000009_Node000019"><a xlink:title=" ">
<path fill="none" stroke="#63b8ff" d="M1136.14,-66.34C1137.27,-66.22 1138.39,-66.11 1139.5,-66 1342.25,-45.89 1394.35,-55.38 1596.5,-30 1599.33,-29.64 1602.22,-29.26 1605.13,-28.85"/>
<polygon fill="#63b8ff" stroke="#63b8ff" points="1135.4,-62.9 1125.83,-67.43 1136.14,-69.86 1135.4,-62.9"/>
</a>
</g>
</g>
<!-- Node20 -->
<g id="Node000020" class="node">
<title>Node20</title>
<g id="a_Node000020"><a xlink:href="tst__settings_8cpp.html" target="_top" xlink:title=" ">
<polygon fill="white" stroke="#666666" points="1139,-30 1032,-30 1032,0 1139,0 1139,-30"/>
<text text-anchor="start" x="1040" y="-18" font-family="Helvetica,sans-Serif" font-size="10.00">tests/auto/settings</text>
<text text-anchor="middle" x="1085.5" y="-7" font-family="Helvetica,sans-Serif" font-size="10.00">/tst_settings.cpp</text>
</a>
</g>
</g>
<!-- Node9&#45;&gt;Node20 -->
<g id="edge23_Node000009_Node000020" class="edge">
<title>Node9&#45;&gt;Node20</title>
<g id="a_edge23_Node000009_Node000020"><a xlink:title=" ">
<path fill="none" stroke="#63b8ff" d="M1073.81,-56.22C1076.26,-47.79 1079.12,-37.95 1081.4,-30.11"/>
<polygon fill="#63b8ff" stroke="#63b8ff" points="1070.44,-55.29 1071.01,-65.87 1077.16,-57.24 1070.44,-55.29"/>
</a>
</g>
</g>
<!-- Node9&#45;&gt;Node21 -->
<g id="edge24_Node000009_Node000021" class="edge">
<title>Node9&#45;&gt;Node21</title>
<g id="a_edge24_Node000009_Node000021"><a xlink:title=" ">
<path fill="none" stroke="#63b8ff" d="M1135.97,-68.95C1149.71,-67.9 1164.07,-66.86 1177.5,-66 1493.25,-45.7 1575.27,-74.71 1888.5,-30 1891.42,-29.58 1894.4,-29.09 1897.41,-28.54"/>
<polygon fill="#63b8ff" stroke="#63b8ff" points="1135.32,-65.49 1125.62,-69.75 1135.86,-72.47 1135.32,-65.49"/>
</a>
</g>
</g>
<!-- Node22&#45;&gt;Node9 -->
<g id="edge31_Node000022_Node000009" class="edge">
<title>Node22&#45;&gt;Node9</title>
<g id="a_edge31_Node000022_Node000009"><a xlink:title=" ">
<path fill="none" stroke="#63b8ff" d="M990.44,-121.27C1009.91,-110.1 1036.79,-94.69 1053.39,-85.17"/>
<polygon fill="#63b8ff" stroke="#63b8ff" points="988.48,-118.36 981.55,-126.37 991.97,-124.43 988.48,-118.36"/>
</a>
</g>
</g>
<!-- Node22&#45;&gt;Node14 -->
<g id="edge32_Node000022_Node000014" class="edge">
<title>Node22&#45;&gt;Node14</title>
<g id="a_edge32_Node000022_Node000014"><a xlink:title=" ">
<path fill="none" stroke="#63b8ff" d="M966.5,-116.36C966.5,-90.31 966.5,-44.06 966.5,-24.8"/>
<polygon fill="#63b8ff" stroke="#63b8ff" points="963,-116.44 966.5,-126.44 970,-116.44 963,-116.44"/>
</a>
</g>
</g>
<!-- Node23&#45;&gt;Node7 -->
<g id="edge37_Node000023_Node000007" class="edge">
<title>Node23&#45;&gt;Node7</title>
<g id="a_edge37_Node000023_Node000007"><a xlink:title=" ">
<path fill="none" stroke="#63b8ff" d="M1320.93,-184.25C1280.12,-172.94 1218.11,-155.75 1181.22,-145.52"/>
<polygon fill="#63b8ff" stroke="#63b8ff" points="1320.25,-187.69 1330.82,-186.99 1322.12,-180.95 1320.25,-187.69"/>
</a>
</g>
</g>
<!-- Node23&#45;&gt;Node21 -->
<g id="edge40_Node000023_Node000021" class="edge">
<title>Node23&#45;&gt;Node21</title>
<g id="a_edge40_Node000023_Node000021"><a xlink:title=" ">
<path fill="none" stroke="#63b8ff" d="M1343.93,-179.82C1328.08,-163.78 1309.37,-138.76 1324.5,-121 1406.81,-24.34 1763.99,-54.78 1888.5,-30 1891.39,-29.42 1894.36,-28.81 1897.34,-28.16"/>
<polygon fill="#63b8ff" stroke="#63b8ff" points="1341.69,-182.51 1351.33,-186.9 1346.53,-177.45 1341.69,-182.51"/>
</a>
</g>
</g>
<!-- Node24 -->
<g id="Node000024" class="node">
<title>Node24</title>
<g id="a_Node000024"><a xlink:href="simpletransaction_8cpp.html" target="_top" xlink:title=" ">
<polygon fill="white" stroke="#666666" points="1475.5,-145.5 1333.5,-145.5 1333.5,-126.5 1475.5,-126.5 1475.5,-145.5"/>
<text text-anchor="middle" x="1404.5" y="-133.5" font-family="Helvetica,sans-Serif" font-size="10.00">src/simpletransaction.cpp</text>
</a>
</g>
</g>
<!-- Node23&#45;&gt;Node24 -->
<g id="edge38_Node000023_Node000024" class="edge">
<title>Node23&#45;&gt;Node24</title>
<g id="a_edge38_Node000023_Node000024"><a xlink:title=" ">
<path fill="none" stroke="#63b8ff" d="M1373.9,-178.63C1381.82,-167.85 1391.77,-154.32 1398.13,-145.67"/>
<polygon fill="#63b8ff" stroke="#63b8ff" points="1370.95,-176.74 1367.84,-186.87 1376.59,-180.88 1370.95,-176.74"/>
</a>
</g>
</g>
<!-- Node23&#45;&gt;Node25 -->
<g id="edge39_Node000023_Node000025" class="edge">
<title>Node23&#45;&gt;Node25</title>
<g id="a_edge39_Node000023_Node000025"><a xlink:title=" ">
<path fill="none" stroke="#63b8ff" d="M1402.07,-184.2C1436,-174.75 1484.57,-161.22 1521.01,-151.06"/>
<polygon fill="#63b8ff" stroke="#63b8ff" points="1400.73,-180.94 1392.04,-186.99 1402.61,-187.68 1400.73,-180.94"/>
</a>
</g>
</g>
</g>
</svg>

<g id="navigator" transform="translate(0 0)" fill="#404254">
  <rect fill="#f2f5e9" fill-opacity="0.5" stroke="#606060" stroke-width=".5" x="0" y="0" width="60" height="60"/>
  <use id="zoomplus" xlink:href="#zoomPlus" x="17" y="9" onmousedown="handleZoom(evt,'in')"/>
  <use id="zoomminus" xlink:href="#zoomMin" x="42" y="9" onmousedown="handleZoom(evt,'out')"/>
  <use id="reset" xlink:href="#resetDef" x="30" y="36" onmousedown="handleReset()"/>
   <use id="arrowup" xlink:href="#arrowUp" x="0" y="0" onmousedown="handlePan(0,-1)"/>
  <use id="arrowright" xlink:href="#arrowRight" x="0" y="0" onmousedown="handlePan(1,0)"/>
  <use id="arrowdown" xlink:href="#arrowDown" x="0" y="0" onmousedown="handlePan(0,1)"/>
  <use id="arrowleft" xlink:href="#arrowLeft" x="0" y="0" onmousedown="handlePan(-1,0)"/>
</g>
<svg viewBox="0 0 15 15" width="100%" height="30px" preserveAspectRatio="xMaxYMin meet">
 <g id="arrow_out" transform="scale(0.3 0.3)">
  <a xlink:href="enums_8h__dep__incl_org.svg" target="_base">
   <rect id="button" ry="5" rx="5" y="6" x="6" height="38" width="38"
        fill="#f2f5e9" fill-opacity="0.5" stroke="#606060" stroke-width="1.0"/>
   <path id="arrow"
     d="M 11.500037,31.436501 C 11.940474,20.09759 22.043105,11.32322 32.158766,21.979434 L 37.068811,17.246167 C 37.068811,17.246167 37.088388,32 37.088388,32 L 22.160133,31.978069 C 22.160133,31.978069 26.997745,27.140456 26.997745,27.140456 C 18.528582,18.264221 13.291696,25.230495 11.500037,31.436501 z"
     style="fill:#404040;"/>
  </a>
 </g>
</svg>

<style type='text/css'>
<![CDATA[
[data-mouse-over-selected='false'] { opacity: 0.7; }
[data-mouse-over-selected='true']  { opacity: 1.0; }
]]>
</style>
<script type="application/ecmascript"><![CDATA[
document.addEventListener('DOMContentLoaded', (event) => {
  highlightEdges();
  highlightAdjacentNodes();
});
]]></script>
</svg>
