<?xml version="1.0" encoding="UTF-8" standalone="no"?>
<!DOCTYPE svg PUBLIC "-//W3C//DTD SVG 1.1//EN"
 "http://www.w3.org/Graphics/SVG/1.1/DTD/svg11.dtd">
<!-- Generated by graphviz version 2.40.1 (20161225.0304)
 -->
<!-- Title: src/enums.h Pages: 1 -->
<!--zoomable 497 -->
<svg id="main" version="1.1" xmlns="http://www.w3.org/2000/svg" xmlns:xlink="http://www.w3.org/1999/xlink" xml:space="preserve" onload="init(evt)">
<style type="text/css"><![CDATA[
.edge:hover path { stroke: red; }
.edge:hover polygon { stroke: red; fill: red; }
]]></style>
<script type="text/javascript"><![CDATA[
var edges = document.getElementsByTagName('g');
if (edges && edges.length) {
  for (var i=0;i<edges.length;i++) {
    if (edges[i].id.substr(0,4)=='edge') {
      edges[i].setAttribute('class','edge');
    }
  }
}
]]></script>
        <defs>
                <circle id="rim" cx="0" cy="0" r="7"/>
                <circle id="rim2" cx="0" cy="0" r="3.5"/>
                <g id="zoomPlus">
                        <use xlink:href="#rim" fill="#404040">
                                <set attributeName="fill" to="#808080" begin="zoomplus.mouseover" end="zoomplus.mouseout"/>
                        </use>
                        <path d="M-4,0h8M0,-4v8" fill="none" stroke="white" stroke-width="1.5" pointer-events="none"/>
                </g>
                <g id="zoomMin">
                        <use xlink:href="#rim" fill="#404040">
                                <set attributeName="fill" to="#808080" begin="zoomminus.mouseover" end="zoomminus.mouseout"/>
                        </use>
                        <path d="M-4,0h8" fill="none" stroke="white" stroke-width="1.5" pointer-events="none"/>
                </g>
                <g id="dirArrow">
                        <path fill="none" stroke="white" stroke-width="1.5" d="M0,-3.0v7 M-2.5,-0.5L0,-3.0L2.5,-0.5"/>
                </g>
               <g id="resetDef">
                       <use xlink:href="#rim2" fill="#404040">
                               <set attributeName="fill" to="#808080" begin="reset.mouseover" end="reset.mouseout"/>
                       </use>
               </g>
        </defs>

<script type="text/javascript">
var viewWidth = 996;
var viewHeight = 497;
var sectionId = 'dynsection-0';
</script>
<script xlink:href="svgpan.js"/>
<svg id="graph" class="graph">
<g id="viewport">
<title>src/enums.h</title>
<!-- Node1 -->
<g id="node1" class="node">
<title>Node1</title>
<polygon fill="#bfbfbf" stroke="#000000" points="318.7686,-470.5 318.7686,-488.5 389.2314,-488.5 389.2314,-470.5 318.7686,-470.5"/>
<text text-anchor="middle" x="354" y="-476.5" font-family="Helvetica,sans-Serif" font-size="10.00" fill="#000000">src/enums.h</text>
</g>
<!-- Node2 -->
<g id="node2" class="node">
<title>Node2</title>
<g id="a_node2"><a xlink:href="mainwindow_8h.html" target="_top" xlink:title="src/mainwindow.h">
<polygon fill="none" stroke="#000000" points="266.5371,-175.5 266.5371,-193.5 361.4629,-193.5 361.4629,-175.5 266.5371,-175.5"/>
<text text-anchor="middle" x="314" y="-181.5" font-family="Helvetica,sans-Serif" font-size="10.00" fill="#000000">src/mainwindow.h</text>
</a>
</g>
</g>
<!-- Node1&#45;&gt;Node2 -->
<g id="edge1" class="edge">
<title>Node1&#45;&gt;Node2</title>
<path fill="none" stroke="#191970" d="M308.8173,-474.4544C213.3889,-462.5401 0,-428.7186 0,-364.5 0,-364.5 0,-364.5 0,-299.5 0,-248.9617 44.041,-251.0213 90,-230 147.1984,-203.8378 219.4361,-192.63 266.1642,-187.8878"/>
<polygon fill="#191970" stroke="#191970" points="308.4122,-477.9309 318.7629,-475.67 309.2614,-470.9826 308.4122,-477.9309"/>
</g>
<!-- Node10 -->
<g id="node10" class="node">
<title>Node10</title>
<g id="a_node10"><a xlink:href="pass_8h.html" target="_top" xlink:title="src/pass.h">
<polygon fill="none" stroke="#000000" points="438.2144,-415.5 438.2144,-433.5 499.7856,-433.5 499.7856,-415.5 438.2144,-415.5"/>
<text text-anchor="middle" x="469" y="-421.5" font-family="Helvetica,sans-Serif" font-size="10.00" fill="#000000">src/pass.h</text>
</a>
</g>
</g>
<!-- Node1&#45;&gt;Node10 -->
<g id="edge13" class="edge">
<title>Node1&#45;&gt;Node10</title>
<path fill="none" stroke="#191970" d="M382.1095,-466.0563C403.1957,-455.9716 431.4942,-442.4376 449.9819,-433.5956"/>
<polygon fill="#191970" stroke="#191970" points="380.5011,-462.9458 372.9899,-470.4179 383.5214,-469.2607 380.5011,-462.9458"/>
</g>
<!-- Node12 -->
<g id="node12" class="node">
<title>Node12</title>
<g id="a_node12"><a xlink:href="qtpasssettings_8h.html" target="_top" xlink:title="src/qtpasssettings.h">
<polygon fill="none" stroke="#000000" points="473.813,-290.5 473.813,-308.5 578.187,-308.5 578.187,-290.5 473.813,-290.5"/>
<text text-anchor="middle" x="526" y="-296.5" font-family="Helvetica,sans-Serif" font-size="10.00" fill="#000000">src/qtpasssettings.h</text>
</a>
</g>
</g>
<!-- Node1&#45;&gt;Node12 -->
<g id="edge51" class="edge">
<title>Node1&#45;&gt;Node12</title>
<path fill="none" stroke="#191970" d="M367.6372,-462.3252C388.1658,-436.8408 428.6938,-387.9428 467,-350 482.5182,-334.629 502.0228,-318.4891 514.2543,-308.7088"/>
<polygon fill="#191970" stroke="#191970" points="364.7647,-460.313 361.2464,-470.3066 370.2289,-464.6882 364.7647,-460.313"/>
</g>
<!-- Node27 -->
<g id="node27" class="node">
<title>Node27</title>
<g id="a_node27"><a xlink:href="simpletransaction_8h.html" target="_top" xlink:title="src/simpletransaction.h">
<polygon fill="none" stroke="#000000" points="238.8696,-415.5 238.8696,-433.5 357.1304,-433.5 357.1304,-415.5 238.8696,-415.5"/>
<text text-anchor="middle" x="298" y="-421.5" font-family="Helvetica,sans-Serif" font-size="10.00" fill="#000000">src/simpletransaction.h</text>
</a>
</g>
</g>
<!-- Node1&#45;&gt;Node27 -->
<g id="edge48" class="edge">
<title>Node1&#45;&gt;Node27</title>
<path fill="none" stroke="#191970" d="M337.5046,-463.2992C327.7134,-453.6828 315.6501,-441.8349 307.4482,-433.7795"/>
<polygon fill="#191970" stroke="#191970" points="335.1657,-465.9078 344.7527,-470.4179 340.0707,-460.9137 335.1657,-465.9078"/>
</g>
<!-- Node3 -->
<g id="node3" class="node">
<title>Node3</title>
<g id="a_node3"><a xlink:href="configdialog_8h.html" target="_top" xlink:title="src/configdialog.h">
<polygon fill="none" stroke="#000000" points="374.0889,-115.5 374.0889,-133.5 467.9111,-133.5 467.9111,-115.5 374.0889,-115.5"/>
<text text-anchor="middle" x="421" y="-121.5" font-family="Helvetica,sans-Serif" font-size="10.00" fill="#000000">src/configdialog.h</text>
</a>
</g>
</g>
<!-- Node2&#45;&gt;Node3 -->
<g id="edge2" class="edge">
<title>Node2&#45;&gt;Node3</title>
<path fill="none" stroke="#191970" d="M338.9907,-170.4865C359.3481,-159.0712 387.4852,-143.2933 404.9467,-133.5019"/>
<polygon fill="#191970" stroke="#191970" points="337.2614,-167.4434 330.251,-175.3873 340.6852,-173.549 337.2614,-167.4434"/>
</g>
<!-- Node4 -->
<g id="node4" class="node">
<title>Node4</title>
<g id="a_node4"><a xlink:href="configdialog_8cpp.html" target="_top" xlink:title="src/configdialog.cpp">
<polygon fill="none" stroke="#000000" points="293.8081,-.5 293.8081,-18.5 398.1919,-18.5 398.1919,-.5 293.8081,-.5"/>
<text text-anchor="middle" x="346" y="-6.5" font-family="Helvetica,sans-Serif" font-size="10.00" fill="#000000">src/configdialog.cpp</text>
</a>
</g>
</g>
<!-- Node2&#45;&gt;Node4 -->
<g id="edge9" class="edge">
<title>Node2&#45;&gt;Node4</title>
<path fill="none" stroke="#191970" d="M320.016,-165.5722C322.4378,-157.4531 325.101,-147.8233 327,-139 336.61,-94.3485 342.8422,-39.9809 345.0766,-18.6808"/>
<polygon fill="#191970" stroke="#191970" points="316.6553,-164.5932 317.056,-175.1805 323.3451,-166.6542 316.6553,-164.5932"/>
</g>
<!-- Node7 -->
<g id="node7" class="node">
<title>Node7</title>
<g id="a_node7"><a xlink:href="mainwindow_8cpp.html" target="_top" xlink:title="src/mainwindow.cpp">
<polygon fill="none" stroke="#000000" points="606.2563,-.5 606.2563,-18.5 711.7437,-18.5 711.7437,-.5 606.2563,-.5"/>
<text text-anchor="middle" x="659" y="-6.5" font-family="Helvetica,sans-Serif" font-size="10.00" fill="#000000">src/mainwindow.cpp</text>
</a>
</g>
</g>
<!-- Node2&#45;&gt;Node7 -->
<g id="edge12" class="edge">
<title>Node2&#45;&gt;Node7</title>
<path fill="none" stroke="#191970" d="M371.868,-173.9623C403.9362,-166.7604 443.8947,-155.4862 477,-139 496.0175,-129.5294 497.8408,-122.5268 515,-110 562.2766,-75.4866 619.6383,-36.2121 645.3644,-18.7319"/>
<polygon fill="#191970" stroke="#191970" points="370.7818,-170.6165 361.7522,-176.1589 372.2672,-177.4571 370.7818,-170.6165"/>
</g>
<!-- Node8 -->
<g id="node8" class="node">
<title>Node8</title>
<g id="a_node8"><a xlink:href="deselectabletreeview_8h.html" target="_top" xlink:title="src/deselectabletreeview.h">
<polygon fill="none" stroke="#000000" points="94.355,-115.5 94.355,-133.5 227.645,-133.5 227.645,-115.5 94.355,-115.5"/>
<text text-anchor="middle" x="161" y="-121.5" font-family="Helvetica,sans-Serif" font-size="10.00" fill="#000000">src/deselectabletreeview.h</text>
</a>
</g>
</g>
<!-- Node2&#45;&gt;Node8 -->
<g id="edge10" class="edge">
<title>Node2&#45;&gt;Node8</title>
<path fill="none" stroke="#191970" d="M281.368,-171.7032C252.076,-160.2161 209.8228,-143.6462 183.9548,-133.5019"/>
<polygon fill="#191970" stroke="#191970" points="280.175,-174.9948 290.7626,-175.3873 282.7307,-168.4779 280.175,-174.9948"/>
</g>
<!-- Node9 -->
<g id="node9" class="node">
<title>Node9</title>
<g id="a_node9"><a xlink:href="main_8cpp.html" target="_top" xlink:title="src/main.cpp">
<polygon fill="none" stroke="#000000" points="245.6577,-115.5 245.6577,-133.5 318.3423,-133.5 318.3423,-115.5 245.6577,-115.5"/>
<text text-anchor="middle" x="282" y="-121.5" font-family="Helvetica,sans-Serif" font-size="10.00" fill="#000000">src/main.cpp</text>
</a>
</g>
</g>
<!-- Node2&#45;&gt;Node9 -->
<g id="edge11" class="edge">
<title>Node2&#45;&gt;Node9</title>
<path fill="none" stroke="#191970" d="M304.3309,-166.3704C298.5795,-155.5866 291.5269,-142.3629 286.9058,-133.6985"/>
<polygon fill="#191970" stroke="#191970" points="301.3457,-168.2108 309.1399,-175.3873 307.5222,-164.9167 301.3457,-168.2108"/>
</g>
<!-- Node3&#45;&gt;Node4 -->
<g id="edge3" class="edge">
<title>Node3&#45;&gt;Node4</title>
<path fill="none" stroke="#191970" d="M409.6255,-107.0591C393.509,-82.3472 364.5962,-38.0142 352.0661,-18.8014"/>
<polygon fill="#191970" stroke="#191970" points="406.7205,-109.012 415.1149,-115.4761 412.5838,-105.1881 406.7205,-109.012"/>
</g>
<!-- Node5 -->
<g id="node5" class="node">
<title>Node5</title>
<g id="a_node5"><a xlink:href="keygendialog_8h.html" target="_top" xlink:title="src/keygendialog.h">
<polygon fill="none" stroke="#000000" points="412.3081,-55.5 412.3081,-73.5 511.6919,-73.5 511.6919,-55.5 412.3081,-55.5"/>
<text text-anchor="middle" x="462" y="-61.5" font-family="Helvetica,sans-Serif" font-size="10.00" fill="#000000">src/keygendialog.h</text>
</a>
</g>
</g>
<!-- Node3&#45;&gt;Node5 -->
<g id="edge4" class="edge">
<title>Node3&#45;&gt;Node5</title>
<path fill="none" stroke="#191970" d="M432.9395,-107.0276C440.3874,-96.1282 449.6729,-82.5397 455.7144,-73.6985"/>
<polygon fill="#191970" stroke="#191970" points="429.9792,-105.1561 427.227,-115.3873 435.7587,-109.1055 429.9792,-105.1561"/>
</g>
<!-- Node3&#45;&gt;Node7 -->
<g id="edge8" class="edge">
<title>Node3&#45;&gt;Node7</title>
<path fill="none" stroke="#191970" d="M448.5414,-111.0566C477.3204,-97.0227 523.7953,-74.3978 564,-55 590.3526,-42.2855 620.8738,-27.6907 640.0589,-18.5326"/>
<polygon fill="#191970" stroke="#191970" points="446.948,-107.9396 439.4946,-115.4695 450.0169,-114.2311 446.948,-107.9396"/>
</g>
<!-- Node5&#45;&gt;Node4 -->
<g id="edge5" class="edge">
<title>Node5&#45;&gt;Node4</title>
<path fill="none" stroke="#191970" d="M433.6461,-51.0563C412.3765,-40.9716 383.832,-27.4376 365.1835,-18.5956"/>
<polygon fill="#191970" stroke="#191970" points="432.3097,-54.2961 442.845,-55.4179 435.3087,-47.9711 432.3097,-54.2961"/>
</g>
<!-- Node6 -->
<g id="node6" class="node">
<title>Node6</title>
<g id="a_node6"><a xlink:href="keygendialog_8cpp.html" target="_top" xlink:title="src/keygendialog.cpp">
<polygon fill="none" stroke="#000000" points="416.0273,-.5 416.0273,-18.5 525.9727,-18.5 525.9727,-.5 416.0273,-.5"/>
<text text-anchor="middle" x="471" y="-6.5" font-family="Helvetica,sans-Serif" font-size="10.00" fill="#000000">src/keygendialog.cpp</text>
</a>
</g>
</g>
<!-- Node5&#45;&gt;Node6 -->
<g id="edge6" class="edge">
<title>Node5&#45;&gt;Node6</title>
<path fill="none" stroke="#191970" d="M465.1282,-45.383C466.6025,-36.3738 468.2939,-26.0373 469.4815,-18.7795"/>
<polygon fill="#191970" stroke="#191970" points="461.6471,-44.9839 463.4862,-55.4179 468.5552,-46.1144 461.6471,-44.9839"/>
</g>
<!-- Node5&#45;&gt;Node7 -->
<g id="edge7" class="edge">
<title>Node5&#45;&gt;Node7</title>
<path fill="none" stroke="#191970" d="M504.439,-52.6515C541.1337,-42.4068 593.3895,-27.8177 626.7486,-18.5042"/>
<polygon fill="#191970" stroke="#191970" points="503.221,-49.3577 494.5305,-55.4179 505.1034,-56.0998 503.221,-49.3577"/>
</g>
<!-- Node10&#45;&gt;Node2 -->
<g id="edge36" class="edge">
<title>Node10&#45;&gt;Node2</title>
<path fill="none" stroke="#191970" d="M457.3846,-406.8193C436.4491,-376.5123 389.2858,-315.0132 333,-285 254.8481,-243.3272 193.6889,-317.0494 137,-249 99.3194,-203.7682 202.1332,-190.2558 266.4999,-186.2193"/>
<polygon fill="#191970" stroke="#191970" points="454.74,-409.157 463.2385,-415.4837 460.5403,-405.2382 454.74,-409.157"/>
</g>
<!-- Node11 -->
<g id="node11" class="node">
<title>Node11</title>
<g id="a_node11"><a xlink:href="imitatepass_8h.html" target="_top" xlink:title="src/imitatepass.h">
<polygon fill="none" stroke="#000000" points="252.4878,-355.5 252.4878,-373.5 343.5122,-373.5 343.5122,-355.5 252.4878,-355.5"/>
<text text-anchor="middle" x="298" y="-361.5" font-family="Helvetica,sans-Serif" font-size="10.00" fill="#000000">src/imitatepass.h</text>
</a>
</g>
</g>
<!-- Node10&#45;&gt;Node11 -->
<g id="edge14" class="edge">
<title>Node10&#45;&gt;Node11</title>
<path fill="none" stroke="#191970" d="M433.3797,-412.0017C400.6135,-400.5047 352.818,-383.7344 323.6553,-373.5019"/>
<polygon fill="#191970" stroke="#191970" points="432.4339,-415.379 443.0288,-415.3873 434.7516,-408.7737 432.4339,-415.379"/>
</g>
<!-- Node10&#45;&gt;Node12 -->
<g id="edge41" class="edge">
<title>Node10&#45;&gt;Node12</title>
<path fill="none" stroke="#191970" d="M468.0677,-405.2432C468.0592,-389.6371 469.7816,-367.4514 478,-350 486.0394,-332.9287 502.105,-317.9105 513.4295,-308.7824"/>
<polygon fill="#191970" stroke="#191970" points="464.5696,-405.3701 468.3117,-415.2821 471.5676,-405.2 464.5696,-405.3701"/>
</g>
<!-- Node15 -->
<g id="node15" class="node">
<title>Node15</title>
<g id="a_node15"><a xlink:href="pass_8cpp.html" target="_top" xlink:title="src/pass.cpp">
<polygon fill="none" stroke="#000000" points="749.9336,-115.5 749.9336,-133.5 822.0664,-133.5 822.0664,-115.5 749.9336,-115.5"/>
<text text-anchor="middle" x="786" y="-121.5" font-family="Helvetica,sans-Serif" font-size="10.00" fill="#000000">src/pass.cpp</text>
</a>
</g>
</g>
<!-- Node10&#45;&gt;Node15 -->
<g id="edge45" class="edge">
<title>Node10&#45;&gt;Node15</title>
<path fill="none" stroke="#191970" d="M510.0158,-418.4386C601.0497,-403.8322 812,-363.1214 812,-299.5 812,-299.5 812,-299.5 812,-239.5 812,-199.1757 796.6034,-152.8125 789.5065,-133.5838"/>
<polygon fill="#191970" stroke="#191970" points="509.3768,-414.996 500.0439,-420.0109 510.467,-421.9106 509.3768,-414.996"/>
</g>
<!-- Node21 -->
<g id="node21" class="node">
<title>Node21</title>
<g id="a_node21"><a xlink:href="qtpasssettings_8cpp.html" target="_top" xlink:title="src/qtpasssettings.cpp">
<polygon fill="none" stroke="#000000" points="145.5322,-230.5 145.5322,-248.5 260.4678,-248.5 260.4678,-230.5 145.5322,-230.5"/>
<text text-anchor="middle" x="203" y="-236.5" font-family="Helvetica,sans-Serif" font-size="10.00" fill="#000000">src/qtpasssettings.cpp</text>
</a>
</g>
</g>
<!-- Node10&#45;&gt;Node21 -->
<g id="edge46" class="edge">
<title>Node10&#45;&gt;Node21</title>
<path fill="none" stroke="#191970" d="M428.1134,-419.7101C371.6941,-412.5249 273.4764,-397.773 243,-379 211.7356,-359.7417 203.9906,-348.7069 192,-314 184.2298,-291.5093 193.0676,-263.3428 198.8262,-248.9384"/>
<polygon fill="#191970" stroke="#191970" points="427.779,-423.1955 438.136,-420.963 428.6474,-416.2495 427.779,-423.1955"/>
</g>
<!-- Node24 -->
<g id="node24" class="node">
<title>Node24</title>
<g id="a_node24"><a xlink:href="realpass_8h.html" target="_top" xlink:title="src/realpass.h">
<polygon fill="none" stroke="#000000" points="486.877,-355.5 486.877,-373.5 565.123,-373.5 565.123,-355.5 486.877,-355.5"/>
<text text-anchor="middle" x="526" y="-361.5" font-family="Helvetica,sans-Serif" font-size="10.00" fill="#000000">src/realpass.h</text>
</a>
</g>
</g>
<!-- Node10&#45;&gt;Node24 -->
<g id="edge37" class="edge">
<title>Node10&#45;&gt;Node24</title>
<path fill="none" stroke="#191970" d="M484.674,-408.0011C495.1746,-396.9478 508.6103,-382.8049 517.2615,-373.6985"/>
<polygon fill="#191970" stroke="#191970" points="482.0071,-405.7266 477.6571,-415.3873 487.0821,-410.5479 482.0071,-405.7266"/>
</g>
<!-- Node25 -->
<g id="node25" class="node">
<title>Node25</title>
<g id="a_node25"><a xlink:href="passworddialog_8h.html" target="_top" xlink:title="src/passworddialog.h">
<polygon fill="none" stroke="#000000" points="845.0322,-290.5 845.0322,-308.5 954.9678,-308.5 954.9678,-290.5 845.0322,-290.5"/>
<text text-anchor="middle" x="900" y="-296.5" font-family="Helvetica,sans-Serif" font-size="10.00" fill="#000000">src/passworddialog.h</text>
</a>
</g>
</g>
<!-- Node10&#45;&gt;Node25 -->
<g id="edge42" class="edge">
<title>Node10&#45;&gt;Node25</title>
<path fill="none" stroke="#191970" d="M510.3202,-422.7467C592.1631,-418.7084 771.6659,-406.8732 826,-379 858.38,-362.3892 883.9968,-325.6386 894.644,-308.5564"/>
<polygon fill="#191970" stroke="#191970" points="509.7288,-419.2709 499.9073,-423.2442 510.063,-426.2629 509.7288,-419.2709"/>
</g>
<!-- Node26 -->
<g id="node26" class="node">
<title>Node26</title>
<g id="a_node26"><a xlink:href="moc__pass_8cpp.html" target="_top" xlink:title="tests/auto/util/moc\l_pass.cpp">
<polygon fill="none" stroke="#000000" points="582.7046,-350.5 582.7046,-378.5 679.2954,-378.5 679.2954,-350.5 582.7046,-350.5"/>
<text text-anchor="start" x="590.7046" y="-366.5" font-family="Helvetica,sans-Serif" font-size="10.00" fill="#000000">tests/auto/util/moc</text>
<text text-anchor="middle" x="631" y="-356.5" font-family="Helvetica,sans-Serif" font-size="10.00" fill="#000000">_pass.cpp</text>
</a>
</g>
</g>
<!-- Node10&#45;&gt;Node26 -->
<g id="edge47" class="edge">
<title>Node10&#45;&gt;Node26</title>
<path fill="none" stroke="#191970" d="M503.1722,-411.8436C529.5286,-402.082 565.9602,-388.5888 593.1891,-378.504"/>
<polygon fill="#191970" stroke="#191970" points="501.7662,-408.632 493.6043,-415.3873 504.1974,-415.1962 501.7662,-408.632"/>
</g>
<!-- Node11&#45;&gt;Node2 -->
<g id="edge15" class="edge">
<title>Node11&#45;&gt;Node2</title>
<path fill="none" stroke="#191970" d="M309.4658,-346.73C319.2419,-329.1034 329.5921,-302.2927 315,-285 252.5011,-210.9346 43.1598,-305.4339 104,-230 123.965,-205.246 210.4871,-193.2824 266.0542,-188.0522"/>
<polygon fill="#191970" stroke="#191970" points="306.3756,-345.0783 304.2557,-355.4589 312.3864,-348.666 306.3756,-345.0783"/>
</g>
<!-- Node11&#45;&gt;Node12 -->
<g id="edge16" class="edge">
<title>Node11&#45;&gt;Node12</title>
<path fill="none" stroke="#191970" d="M339.3476,-352.7123C383.8801,-340.0166 453.7693,-320.0921 494.2001,-308.5658"/>
<polygon fill="#191970" stroke="#191970" points="338.3597,-349.3544 329.7024,-355.462 340.2789,-356.0862 338.3597,-349.3544"/>
</g>
<!-- Node19 -->
<g id="node19" class="node">
<title>Node19</title>
<g id="a_node19"><a xlink:href="imitatepass_8cpp.html" target="_top" xlink:title="src/imitatepass.cpp">
<polygon fill="none" stroke="#000000" points="278.207,-230.5 278.207,-248.5 379.793,-248.5 379.793,-230.5 278.207,-230.5"/>
<text text-anchor="middle" x="329" y="-236.5" font-family="Helvetica,sans-Serif" font-size="10.00" fill="#000000">src/imitatepass.cpp</text>
</a>
</g>
</g>
<!-- Node11&#45;&gt;Node19 -->
<g id="edge34" class="edge">
<title>Node11&#45;&gt;Node19</title>
<path fill="none" stroke="#191970" d="M260.0047,-351.8174C224.7911,-337.9361 180.6859,-313.7804 201,-285 211.4041,-270.2598 255.0927,-256.8865 288.5642,-248.5113"/>
<polygon fill="#191970" stroke="#191970" points="259.0483,-355.1974 269.64,-355.4555 261.5211,-348.6487 259.0483,-355.1974"/>
</g>
<!-- Node23 -->
<g id="node23" class="node">
<title>Node23</title>
<g id="a_node23"><a xlink:href="moc__imitatepass_8cpp.html" target="_top" xlink:title="tests/auto/util/moc\l_imitatepass.cpp">
<polygon fill="none" stroke="#000000" points="209.7046,-285.5 209.7046,-313.5 306.2954,-313.5 306.2954,-285.5 209.7046,-285.5"/>
<text text-anchor="start" x="217.7046" y="-301.5" font-family="Helvetica,sans-Serif" font-size="10.00" fill="#000000">tests/auto/util/moc</text>
<text text-anchor="middle" x="258" y="-291.5" font-family="Helvetica,sans-Serif" font-size="10.00" fill="#000000">_imitatepass.cpp</text>
</a>
</g>
</g>
<!-- Node11&#45;&gt;Node23 -->
<g id="edge35" class="edge">
<title>Node11&#45;&gt;Node23</title>
<path fill="none" stroke="#191970" d="M287.1471,-346.864C280.796,-336.5434 272.8763,-323.674 266.8959,-313.9559"/>
<polygon fill="#191970" stroke="#191970" points="284.2163,-348.7798 292.4382,-355.462 290.178,-345.1111 284.2163,-348.7798"/>
</g>
<!-- Node12&#45;&gt;Node4 -->
<g id="edge26" class="edge">
<title>Node12&#45;&gt;Node4</title>
<path fill="none" stroke="#191970" d="M501.735,-285.2989C474.8723,-270.0313 429.9454,-245.8261 389,-230 257.45,-179.1537 168.2596,-252.8358 85,-139 27.8144,-60.8136 202.2327,-27.1366 293.7533,-15.1298"/>
<polygon fill="#191970" stroke="#191970" points="500.0317,-288.3568 510.4472,-290.2981 503.5156,-282.2853 500.0317,-288.3568"/>
</g>
<!-- Node12&#45;&gt;Node7 -->
<g id="edge28" class="edge">
<title>Node12&#45;&gt;Node7</title>
<path fill="none" stroke="#191970" d="M557.2155,-286.3667C579.8912,-276.5995 611.1751,-262.6536 638,-249 725.9897,-204.2142 781.3962,-224.3664 831,-139 866.7746,-77.4331 754.0624,-35.785 694.0434,-18.5034"/>
<polygon fill="#191970" stroke="#191970" points="555.5735,-283.2622 547.7565,-290.4138 558.3271,-289.6979 555.5735,-283.2622"/>
</g>
<!-- Node13 -->
<g id="node13" class="node">
<title>Node13</title>
<g id="a_node13"><a xlink:href="storemodel_8h.html" target="_top" xlink:title="src/storemodel.h">
<polygon fill="none" stroke="#000000" points="512.042,-230.5 512.042,-248.5 601.958,-248.5 601.958,-230.5 512.042,-230.5"/>
<text text-anchor="middle" x="557" y="-236.5" font-family="Helvetica,sans-Serif" font-size="10.00" fill="#000000">src/storemodel.h</text>
</a>
</g>
</g>
<!-- Node12&#45;&gt;Node13 -->
<g id="edge17" class="edge">
<title>Node12&#45;&gt;Node13</title>
<path fill="none" stroke="#191970" d="M535.3669,-281.3704C540.9386,-270.5866 547.7709,-257.3629 552.2475,-248.6985"/>
<polygon fill="#191970" stroke="#191970" points="532.189,-279.8964 530.7082,-290.3873 538.408,-283.1096 532.189,-279.8964"/>
</g>
<!-- Node12&#45;&gt;Node15 -->
<g id="edge29" class="edge">
<title>Node12&#45;&gt;Node15</title>
<path fill="none" stroke="#191970" d="M551.0523,-285.3415C568.1582,-275.4982 591.2176,-261.8823 611,-249 673.8027,-208.1028 745.8678,-154.6764 773.9345,-133.6075"/>
<polygon fill="#191970" stroke="#191970" points="549.1628,-282.3901 542.2202,-290.3932 552.6383,-288.4664 549.1628,-282.3901"/>
</g>
<!-- Node16 -->
<g id="node16" class="node">
<title>Node16</title>
<g id="a_node16"><a xlink:href="util_8cpp.html" target="_top" xlink:title="src/util.cpp">
<polygon fill="none" stroke="#000000" points="524.1035,-115.5 524.1035,-133.5 587.8965,-133.5 587.8965,-115.5 524.1035,-115.5"/>
<text text-anchor="middle" x="556" y="-121.5" font-family="Helvetica,sans-Serif" font-size="10.00" fill="#000000">src/util.cpp</text>
</a>
</g>
</g>
<!-- Node12&#45;&gt;Node16 -->
<g id="edge33" class="edge">
<title>Node12&#45;&gt;Node16</title>
<path fill="none" stroke="#191970" d="M515.1076,-281.6326C501.4564,-256.774 481.7118,-210.779 498,-175 506.4085,-156.5297 525.2792,-142.1897 539.2238,-133.5867"/>
<polygon fill="#191970" stroke="#191970" points="512.0994,-283.4226 520.1232,-290.3414 518.1654,-279.929 512.0994,-283.4226"/>
</g>
<!-- Node12&#45;&gt;Node19 -->
<g id="edge27" class="edge">
<title>Node12&#45;&gt;Node19</title>
<path fill="none" stroke="#191970" d="M486.4194,-287.445C448.6432,-275.9395 392.5874,-258.8667 358.5562,-248.5019"/>
<polygon fill="#191970" stroke="#191970" points="485.494,-290.8218 496.0799,-290.3873 487.5336,-284.1255 485.494,-290.8218"/>
</g>
<!-- Node20 -->
<g id="node20" class="node">
<title>Node20</title>
<g id="a_node20"><a xlink:href="passworddialog_8cpp.html" target="_top" xlink:title="src/passworddialog.cpp">
<polygon fill="none" stroke="#000000" points="839.7515,-230.5 839.7515,-248.5 960.2485,-248.5 960.2485,-230.5 839.7515,-230.5"/>
<text text-anchor="middle" x="900" y="-236.5" font-family="Helvetica,sans-Serif" font-size="10.00" fill="#000000">src/passworddialog.cpp</text>
</a>
</g>
</g>
<!-- Node12&#45;&gt;Node20 -->
<g id="edge30" class="edge">
<title>Node12&#45;&gt;Node20</title>
<path fill="none" stroke="#191970" d="M588.5767,-289.461C659.8156,-278.0323 775.1579,-259.5281 843.6827,-248.5349"/>
<polygon fill="#191970" stroke="#191970" points="587.7162,-286.0542 578.3969,-291.0941 588.8251,-292.9658 587.7162,-286.0542"/>
</g>
<!-- Node12&#45;&gt;Node21 -->
<g id="edge31" class="edge">
<title>Node12&#45;&gt;Node21</title>
<path fill="none" stroke="#191970" d="M467.3021,-288.5964C405.485,-277.1133 309.2767,-259.2418 251.5735,-248.5229"/>
<polygon fill="#191970" stroke="#191970" points="466.8229,-292.0671 477.2939,-290.4524 468.1014,-285.1849 466.8229,-292.0671"/>
</g>
<!-- Node22 -->
<g id="node22" class="node">
<title>Node22</title>
<g id="a_node22"><a xlink:href="realpass_8cpp.html" target="_top" xlink:title="src/realpass.cpp">
<polygon fill="none" stroke="#000000" points="695.5962,-230.5 695.5962,-248.5 784.4038,-248.5 784.4038,-230.5 695.5962,-230.5"/>
<text text-anchor="middle" x="740" y="-236.5" font-family="Helvetica,sans-Serif" font-size="10.00" fill="#000000">src/realpass.cpp</text>
</a>
</g>
</g>
<!-- Node12&#45;&gt;Node22 -->
<g id="edge32" class="edge">
<title>Node12&#45;&gt;Node22</title>
<path fill="none" stroke="#191970" d="M568.2128,-287.6646C609.2539,-276.1578 670.6894,-258.9329 707.8933,-248.5019"/>
<polygon fill="#191970" stroke="#191970" points="567.1858,-284.3175 558.502,-290.3873 569.0756,-291.0576 567.1858,-284.3175"/>
</g>
<!-- Node13&#45;&gt;Node2 -->
<g id="edge18" class="edge">
<title>Node13&#45;&gt;Node2</title>
<path fill="none" stroke="#191970" d="M507.236,-228.2365C461.9051,-217.9765 395.8192,-203.0187 353.8762,-193.5255"/>
<polygon fill="#191970" stroke="#191970" points="506.6196,-231.6855 517.1456,-230.4795 508.165,-224.8582 506.6196,-231.6855"/>
</g>
<!-- Node14 -->
<g id="node14" class="node">
<title>Node14</title>
<g id="a_node14"><a xlink:href="util_8h.html" target="_top" xlink:title="src/util.h">
<polygon fill="none" stroke="#000000" points="625.3843,-175.5 625.3843,-193.5 678.6157,-193.5 678.6157,-175.5 625.3843,-175.5"/>
<text text-anchor="middle" x="652" y="-181.5" font-family="Helvetica,sans-Serif" font-size="10.00" fill="#000000">src/util.h</text>
</a>
</g>
</g>
<!-- Node13&#45;&gt;Node14 -->
<g id="edge19" class="edge">
<title>Node13&#45;&gt;Node14</title>
<path fill="none" stroke="#191970" d="M576.0918,-224.953C592.0937,-215.0023 614.6354,-202.1189 631.1203,-193.5956"/>
<polygon fill="#191970" stroke="#191970" points="574.0712,-222.0904 567.521,-230.4179 577.8346,-227.9927 574.0712,-222.0904"/>
</g>
<!-- Node18 -->
<g id="node18" class="node">
<title>Node18</title>
<g id="a_node18"><a xlink:href="storemodel_8cpp.html" target="_top" xlink:title="src/storemodel.cpp">
<polygon fill="none" stroke="#000000" points="506.7612,-175.5 506.7612,-193.5 607.2388,-193.5 607.2388,-175.5 506.7612,-175.5"/>
<text text-anchor="middle" x="557" y="-181.5" font-family="Helvetica,sans-Serif" font-size="10.00" fill="#000000">src/storemodel.cpp</text>
</a>
</g>
</g>
<!-- Node13&#45;&gt;Node18 -->
<g id="edge25" class="edge">
<title>Node13&#45;&gt;Node18</title>
<path fill="none" stroke="#191970" d="M557,-220.383C557,-211.3738 557,-201.0373 557,-193.7795"/>
<polygon fill="#191970" stroke="#191970" points="553.5001,-220.4178 557,-230.4179 560.5001,-220.4179 553.5001,-220.4178"/>
</g>
<!-- Node14&#45;&gt;Node7 -->
<g id="edge21" class="edge">
<title>Node14&#45;&gt;Node7</title>
<path fill="none" stroke="#191970" d="M676.5456,-169.4399C686.7398,-161.7292 697.4668,-151.3516 703,-139 722.6092,-95.2267 683.8774,-39.9039 666.6649,-18.5123"/>
<polygon fill="#191970" stroke="#191970" points="674.4077,-166.6643 668.2336,-175.2743 678.4294,-172.3938 674.4077,-166.6643"/>
</g>
<!-- Node14&#45;&gt;Node13 -->
<g id="edge20" class="edge">
<title>Node14&#45;&gt;Node13</title>
<path fill="none" stroke="#191970" d="M632.8829,-199.0627C616.874,-209.0166 594.3322,-221.8992 577.8536,-230.4179"/>
<polygon fill="#191970" stroke="#191970" points="634.9078,-201.9226 641.4585,-193.5956 631.1448,-196.0201 634.9078,-201.9226"/>
</g>
<!-- Node14&#45;&gt;Node15 -->
<g id="edge22" class="edge">
<title>Node14&#45;&gt;Node15</title>
<path fill="none" stroke="#191970" d="M681.5892,-171.2511C707.197,-159.7849 743.5357,-143.5139 765.8958,-133.5019"/>
<polygon fill="#191970" stroke="#191970" points="680.0482,-168.1062 672.3517,-175.3873 682.9089,-174.495 680.0482,-168.1062"/>
</g>
<!-- Node14&#45;&gt;Node16 -->
<g id="edge23" class="edge">
<title>Node14&#45;&gt;Node16</title>
<path fill="none" stroke="#191970" d="M628.5845,-169.8653C610.4073,-158.5045 585.7871,-143.1169 570.403,-133.5019"/>
<polygon fill="#191970" stroke="#191970" points="627.0847,-173.0553 637.4197,-175.3873 630.7947,-167.1193 627.0847,-173.0553"/>
</g>
<!-- Node17 -->
<g id="node17" class="node">
<title>Node17</title>
<g id="a_node17"><a xlink:href="tst__util_8cpp.html" target="_top" xlink:title="tests/auto/util/tst\l_util.cpp">
<polygon fill="none" stroke="#000000" points="605.8721,-110.5 605.8721,-138.5 694.1279,-138.5 694.1279,-110.5 605.8721,-110.5"/>
<text text-anchor="start" x="613.8721" y="-126.5" font-family="Helvetica,sans-Serif" font-size="10.00" fill="#000000">tests/auto/util/tst</text>
<text text-anchor="middle" x="650" y="-116.5" font-family="Helvetica,sans-Serif" font-size="10.00" fill="#000000">_util.cpp</text>
</a>
</g>
</g>
<!-- Node14&#45;&gt;Node17 -->
<g id="edge24" class="edge">
<title>Node14&#45;&gt;Node17</title>
<path fill="none" stroke="#191970" d="M651.3562,-165.1865C651.0709,-156.6283 650.7412,-146.7354 650.4783,-138.8477"/>
<polygon fill="#191970" stroke="#191970" points="647.8649,-165.5095 651.6962,-175.3873 654.8611,-165.2762 647.8649,-165.5095"/>
</g>
<!-- Node24&#45;&gt;Node2 -->
<g id="edge38" class="edge">
<title>Node24&#45;&gt;Node2</title>
<path fill="none" stroke="#191970" d="M505.6998,-348.9023C493.5271,-339.2579 477.9484,-326.3916 465,-314 428.6266,-279.1906 427.8185,-262.06 389,-230 371.1513,-215.2589 348.0575,-201.9823 332.2395,-193.628"/>
<polygon fill="#191970" stroke="#191970" points="503.8435,-351.8941 513.8751,-355.3026 508.1586,-346.3823 503.8435,-351.8941"/>
</g>
<!-- Node24&#45;&gt;Node12 -->
<g id="edge39" class="edge">
<title>Node24&#45;&gt;Node12</title>
<path fill="none" stroke="#191970" d="M526,-345.1265C526,-333.1522 526,-318.3205 526,-308.8821"/>
<polygon fill="#191970" stroke="#191970" points="522.5001,-345.462 526,-355.462 529.5001,-345.4621 522.5001,-345.462"/>
</g>
<!-- Node24&#45;&gt;Node22 -->
<g id="edge40" class="edge">
<title>Node24&#45;&gt;Node22</title>
<path fill="none" stroke="#191970" d="M550.4492,-350.2189C594.9015,-324.2538 687.7609,-270.0135 724.5296,-248.5364"/>
<polygon fill="#191970" stroke="#191970" points="548.6055,-347.2425 541.7359,-355.3085 552.1361,-353.2869 548.6055,-347.2425"/>
</g>
<!-- Node25&#45;&gt;Node7 -->
<g id="edge43" class="edge">
<title>Node25&#45;&gt;Node7</title>
<path fill="none" stroke="#191970" d="M927.4367,-285.2222C941.7109,-276.5142 958.3551,-264.1423 969,-249 986.1867,-224.552 988,-214.3846 988,-184.5 988,-184.5 988,-184.5 988,-124.5 988,-66.7159 804.8602,-31.1411 711.8595,-16.801"/>
<polygon fill="#191970" stroke="#191970" points="925.3839,-282.3664 918.4856,-290.4078 928.893,-288.4234 925.3839,-282.3664"/>
</g>
<!-- Node25&#45;&gt;Node20 -->
<g id="edge44" class="edge">
<title>Node25&#45;&gt;Node20</title>
<path fill="none" stroke="#191970" d="M900,-280.3734C900,-269.7812 900,-257.0976 900,-248.6985"/>
<polygon fill="#191970" stroke="#191970" points="896.5001,-280.3873 900,-290.3873 903.5001,-280.3873 896.5001,-280.3873"/>
</g>
<!-- Node27&#45;&gt;Node11 -->
<g id="edge49" class="edge">
<title>Node27&#45;&gt;Node11</title>
<path fill="none" stroke="#191970" d="M298,-405.3734C298,-394.7812 298,-382.0976 298,-373.6985"/>
<polygon fill="#191970" stroke="#191970" points="294.5001,-405.3873 298,-415.3873 301.5001,-405.3873 294.5001,-405.3873"/>
</g>
<!-- Node28 -->
<g id="node28" class="node">
<title>Node28</title>
<g id="a_node28"><a xlink:href="simpletransaction_8cpp.html" target="_top" xlink:title="src/simpletransaction.cpp">
<polygon fill="none" stroke="#000000" points="27.5889,-355.5 27.5889,-373.5 156.4111,-373.5 156.4111,-355.5 27.5889,-355.5"/>
<text text-anchor="middle" x="92" y="-361.5" font-family="Helvetica,sans-Serif" font-size="10.00" fill="#000000">src/simpletransaction.cpp</text>
</a>
</g>
</g>
<!-- Node27&#45;&gt;Node28 -->
<g id="edge50" class="edge">
<title>Node27&#45;&gt;Node28</title>
<path fill="none" stroke="#191970" d="M256.863,-412.5184C217.3586,-401.0122 158.5681,-383.8888 122.9064,-373.5019"/>
<polygon fill="#191970" stroke="#191970" points="256.1332,-415.9512 266.713,-415.3873 258.0908,-409.2304 256.1332,-415.9512"/>
</g>
</g>
</svg>
        <g id="navigator" transform="translate(0 0)" fill="#404254">
                <rect fill="#f2f5e9" fill-opacity="0.5" stroke="#606060" stroke-width=".5" x="0" y="0" width="60" height="60"/>
                <use id="zoomplus" xlink:href="#zoomPlus" x="17" y="9" onmousedown="handleZoom(evt,'in')"/>
                <use id="zoomminus" xlink:href="#zoomMin" x="42" y="9" onmousedown="handleZoom(evt,'out')"/>
                <use id="reset" xlink:href="#resetDef" x="30" y="36" onmousedown="handleReset()"/>
                <g id="arrowUp" xlink:href="#dirArrow" transform="translate(30 24)" onmousedown="handlePan(0,-1)">
                  <use xlink:href="#rim" fill="#404040">
                        <set attributeName="fill" to="#808080" begin="arrowUp.mouseover" end="arrowUp.mouseout"/>
                  </use>
                  <path fill="none" stroke="white" stroke-width="1.5" d="M0,-3.0v7 M-2.5,-0.5L0,-3.0L2.5,-0.5"/>
                </g>
                <g id="arrowRight" xlink:href="#dirArrow" transform="rotate(90) translate(36 -43)" onmousedown="handlePan(1,0)">
                  <use xlink:href="#rim" fill="#404040">
                        <set attributeName="fill" to="#808080" begin="arrowRight.mouseover" end="arrowRight.mouseout"/>
                  </use>
                  <path fill="none" stroke="white" stroke-width="1.5" d="M0,-3.0v7 M-2.5,-0.5L0,-3.0L2.5,-0.5"/>
                </g>
                <g id="arrowDown" xlink:href="#dirArrow" transform="rotate(180) translate(-30 -48)" onmousedown="handlePan(0,1)">
                  <use xlink:href="#rim" fill="#404040">
                        <set attributeName="fill" to="#808080" begin="arrowDown.mouseover" end="arrowDown.mouseout"/>
                  </use>
                  <path fill="none" stroke="white" stroke-width="1.5" d="M0,-3.0v7 M-2.5,-0.5L0,-3.0L2.5,-0.5"/>
                </g>
                <g id="arrowLeft" xlink:href="#dirArrow" transform="rotate(270) translate(-36 17)" onmousedown="handlePan(-1,0)">
                  <use xlink:href="#rim" fill="#404040">
                        <set attributeName="fill" to="#808080" begin="arrowLeft.mouseover" end="arrowLeft.mouseout"/>
                  </use>
                  <path fill="none" stroke="white" stroke-width="1.5" d="M0,-3.0v7 M-2.5,-0.5L0,-3.0L2.5,-0.5"/>
                </g>
        </g>
        <svg viewBox="0 0 15 15" width="100%" height="30px" preserveAspectRatio="xMaxYMin meet">
         <g id="arrow_out" transform="scale(0.3 0.3)">
          <a xlink:href="enums_8h__dep__incl_org.svg" target="_base">
           <rect id="button" ry="5" rx="5" y="6" x="6" height="38" width="38"
                fill="#f2f5e9" fill-opacity="0.5" stroke="#606060" stroke-width="1.0"/>
           <path id="arrow"
             d="M 11.500037,31.436501 C 11.940474,20.09759 22.043105,11.32322 32.158766,21.979434 L 37.068811,17.246167 C 37.068811,17.246167 37.088388,32 37.088388,32 L 22.160133,31.978069 C 22.160133,31.978069 26.997745,27.140456 26.997745,27.140456 C 18.528582,18.264221 13.291696,25.230495 11.500037,31.436501 z"
             style="fill:#404040;"/>
          </a>
         </g>
        </svg>
</svg>
