<?xml version="1.0" encoding="UTF-8" standalone="no"?>
<!DOCTYPE svg PUBLIC "-//W3C//DTD SVG 1.1//EN"
 "http://www.w3.org/Graphics/SVG/1.1/DTD/svg11.dtd">
<!-- Generated by graphviz version 2.49.3 (0)
 -->
<!-- Title: src/executor.cpp Pages: 1 -->
<svg width="307pt" height="137pt"
 viewBox="0.00 0.00 307.00 137.00" xmlns="http://www.w3.org/2000/svg" xmlns:xlink="http://www.w3.org/1999/xlink">
<g id="graph0" class="graph" transform="scale(1 1) rotate(0) translate(4 133)">
<title>src/executor.cpp</title>
<!-- Node1 -->
<g id="node1" class="node">
<title>Node1</title>
<g id="a_node1"><a xlink:title=" ">
<polygon fill="#999999" stroke="#666666" points="242,-129 153,-129 153,-110 242,-110 242,-129"/>
<text text-anchor="middle" x="197.5" y="-117" font-family="Helvetica,sans-Serif" font-size="10.00">src/executor.cpp</text>
</a>
</g>
</g>
<!-- Node2 -->
<g id="node2" class="node">
<title>Node2</title>
<g id="a_node2"><a xlink:href="executor_8h.html" target="_top" xlink:title=" ">
<polygon fill="white" stroke="#666666" points="132.5,-74 70.5,-74 70.5,-55 132.5,-55 132.5,-74"/>
<text text-anchor="middle" x="101.5" y="-62" font-family="Helvetica,sans-Serif" font-size="10.00">executor.h</text>
</a>
</g>
</g>
<!-- Node1&#45;&gt;Node2 -->
<g id="edge1" class="edge">
<title>Node1&#45;&gt;Node2</title>
<path fill="none" stroke="#63b8ff" d="M182.08,-109.98C167.05,-101.69 143.96,-88.94 126.34,-79.22"/>
<polygon fill="#63b8ff" stroke="#63b8ff" points="127.65,-75.94 117.2,-74.17 124.27,-82.07 127.65,-75.94"/>
</g>
<!-- Node6 -->
<g id="node6" class="node">
<title>Node6</title>
<g id="a_node6"><a xlink:title=" ">
<polygon fill="#e0e0e0" stroke="#999999" points="244,-74 151,-74 151,-55 244,-55 244,-74"/>
<text text-anchor="middle" x="197.5" y="-62" font-family="Helvetica,sans-Serif" font-size="10.00">QCoreApplication</text>
</a>
</g>
</g>
<!-- Node1&#45;&gt;Node6 -->
<g id="edge5" class="edge">
<title>Node1&#45;&gt;Node6</title>
<path fill="none" stroke="#63b8ff" d="M197.5,-109.75C197.5,-102.8 197.5,-92.85 197.5,-84.13"/>
<polygon fill="#63b8ff" stroke="#63b8ff" points="201,-84.09 197.5,-74.09 194,-84.09 201,-84.09"/>
</g>
<!-- Node7 -->
<g id="node7" class="node">
<title>Node7</title>
<g id="a_node7"><a xlink:title=" ">
<polygon fill="#e0e0e0" stroke="#999999" points="299,-74 262,-74 262,-55 299,-55 299,-74"/>
<text text-anchor="middle" x="280.5" y="-62" font-family="Helvetica,sans-Serif" font-size="10.00">QDir</text>
</a>
</g>
</g>
<!-- Node1&#45;&gt;Node7 -->
<g id="edge6" class="edge">
<title>Node1&#45;&gt;Node7</title>
<path fill="none" stroke="#63b8ff" d="M210.84,-109.98C223.59,-101.84 243.05,-89.41 258.17,-79.76"/>
<polygon fill="#63b8ff" stroke="#63b8ff" points="260.38,-82.5 266.92,-74.17 256.61,-76.6 260.38,-82.5"/>
</g>
<!-- Node3 -->
<g id="node3" class="node">
<title>Node3</title>
<g id="a_node3"><a xlink:title=" ">
<polygon fill="#e0e0e0" stroke="#999999" points="53,-19 0,-19 0,0 53,0 53,-19"/>
<text text-anchor="middle" x="26.5" y="-7" font-family="Helvetica,sans-Serif" font-size="10.00">QObject</text>
</a>
</g>
</g>
<!-- Node2&#45;&gt;Node3 -->
<g id="edge2" class="edge">
<title>Node2&#45;&gt;Node3</title>
<path fill="none" stroke="#63b8ff" d="M89.45,-54.98C78.04,-46.92 60.67,-34.65 47.07,-25.03"/>
<polygon fill="#63b8ff" stroke="#63b8ff" points="48.96,-22.08 38.77,-19.17 44.92,-27.8 48.96,-22.08"/>
</g>
<!-- Node4 -->
<g id="node4" class="node">
<title>Node4</title>
<g id="a_node4"><a xlink:title=" ">
<polygon fill="#e0e0e0" stroke="#999999" points="131.5,-19 71.5,-19 71.5,0 131.5,0 131.5,-19"/>
<text text-anchor="middle" x="101.5" y="-7" font-family="Helvetica,sans-Serif" font-size="10.00">QProcess</text>
</a>
</g>
</g>
<!-- Node2&#45;&gt;Node4 -->
<g id="edge3" class="edge">
<title>Node2&#45;&gt;Node4</title>
<path fill="none" stroke="#63b8ff" d="M101.5,-54.75C101.5,-47.8 101.5,-37.85 101.5,-29.13"/>
<polygon fill="#63b8ff" stroke="#63b8ff" points="105,-29.09 101.5,-19.09 98,-29.09 105,-29.09"/>
</g>
<!-- Node5 -->
<g id="node5" class="node">
<title>Node5</title>
<g id="a_node5"><a xlink:title=" ">
<polygon fill="#e0e0e0" stroke="#999999" points="203,-19 150,-19 150,0 203,0 203,-19"/>
<text text-anchor="middle" x="176.5" y="-7" font-family="Helvetica,sans-Serif" font-size="10.00">QQueue</text>
</a>
</g>
</g>
<!-- Node2&#45;&gt;Node5 -->
<g id="edge4" class="edge">
<title>Node2&#45;&gt;Node5</title>
<path fill="none" stroke="#63b8ff" d="M113.55,-54.98C124.96,-46.92 142.33,-34.65 155.93,-25.03"/>
<polygon fill="#63b8ff" stroke="#63b8ff" points="158.08,-27.8 164.23,-19.17 154.04,-22.08 158.08,-27.8"/>
</g>
</g>
</svg>
