<?xml version="1.0" encoding="UTF-8" standalone="no"?>
<!DOCTYPE svg PUBLIC "-//W3C//DTD SVG 1.1//EN"
 "http://www.w3.org/Graphics/SVG/1.1/DTD/svg11.dtd">
<!-- Generated by graphviz version 2.49.3 (0)
 -->
<!-- Title: src/imitatepass.h Pages: 1 -->
<svg width="540pt" height="192pt"
 viewBox="0.00 0.00 540.00 192.00" xmlns="http://www.w3.org/2000/svg" xmlns:xlink="http://www.w3.org/1999/xlink">
<g id="graph0" class="graph" transform="scale(1 1) rotate(0) translate(4 188)">
<title>src/imitatepass.h</title>
<!-- Node1 -->
<g id="node1" class="node">
<title>Node1</title>
<g id="a_node1"><a xlink:title=" ">
<polygon fill="#999999" stroke="#666666" points="398.5,-184 306.5,-184 306.5,-165 398.5,-165 398.5,-184"/>
<text text-anchor="middle" x="352.5" y="-172" font-family="Helvetica,sans-Serif" font-size="10.00">src/imitatepass.h</text>
</a>
</g>
</g>
<!-- Node2 -->
<g id="node2" class="node">
<title>Node2</title>
<g id="a_node2"><a xlink:href="pass_8h.html" target="_top" xlink:title=" ">
<polygon fill="white" stroke="#666666" points="285.5,-129 239.5,-129 239.5,-110 285.5,-110 285.5,-129"/>
<text text-anchor="middle" x="262.5" y="-117" font-family="Helvetica,sans-Serif" font-size="10.00">pass.h</text>
</a>
</g>
</g>
<!-- Node1&#45;&gt;Node2 -->
<g id="edge1" class="edge">
<title>Node1&#45;&gt;Node2</title>
<path fill="none" stroke="#63b8ff" d="M338.04,-164.98C324.08,-156.77 302.71,-144.18 286.25,-134.49"/>
<polygon fill="#63b8ff" stroke="#63b8ff" points="287.62,-131.23 277.22,-129.17 284.06,-137.26 287.62,-131.23"/>
</g>
<!-- Node13 -->
<g id="node13" class="node">
<title>Node13</title>
<g id="a_node13"><a xlink:href="simpletransaction_8h.html" target="_top" xlink:title=" ">
<polygon fill="white" stroke="#666666" points="494,-129 393,-129 393,-110 494,-110 494,-129"/>
<text text-anchor="middle" x="443.5" y="-117" font-family="Helvetica,sans-Serif" font-size="10.00">simpletransaction.h</text>
</a>
</g>
</g>
<!-- Node1&#45;&gt;Node13 -->
<g id="edge15" class="edge">
<title>Node1&#45;&gt;Node13</title>
<path fill="none" stroke="#63b8ff" d="M367.12,-164.98C381.36,-156.69 403.25,-143.94 419.95,-134.22"/>
<polygon fill="#63b8ff" stroke="#63b8ff" points="421.73,-137.23 428.61,-129.17 418.21,-131.18 421.73,-137.23"/>
</g>
<!-- Node3 -->
<g id="node3" class="node">
<title>Node3</title>
<g id="a_node3"><a xlink:href="enums_8h.html" target="_top" xlink:title=" ">
<polygon fill="white" stroke="#666666" points="470.5,-74 416.5,-74 416.5,-55 470.5,-55 470.5,-74"/>
<text text-anchor="middle" x="443.5" y="-62" font-family="Helvetica,sans-Serif" font-size="10.00">enums.h</text>
</a>
</g>
</g>
<!-- Node2&#45;&gt;Node3 -->
<g id="edge2" class="edge">
<title>Node2&#45;&gt;Node3</title>
<path fill="none" stroke="#63b8ff" d="M285.79,-111.68C316.43,-102.71 370.59,-86.85 406.77,-76.25"/>
<polygon fill="#63b8ff" stroke="#63b8ff" points="407.85,-79.59 416.47,-73.42 405.89,-72.87 407.85,-79.59"/>
</g>
<!-- Node4 -->
<g id="node4" class="node">
<title>Node4</title>
<g id="a_node4"><a xlink:href="executor_8h.html" target="_top" xlink:title=" ">
<polygon fill="white" stroke="#666666" points="360.5,-74 298.5,-74 298.5,-55 360.5,-55 360.5,-74"/>
<text text-anchor="middle" x="329.5" y="-62" font-family="Helvetica,sans-Serif" font-size="10.00">executor.h</text>
</a>
</g>
</g>
<!-- Node2&#45;&gt;Node4 -->
<g id="edge3" class="edge">
<title>Node2&#45;&gt;Node4</title>
<path fill="none" stroke="#63b8ff" d="M273.26,-109.98C283.27,-102.07 298.39,-90.11 310.43,-80.58"/>
<polygon fill="#63b8ff" stroke="#63b8ff" points="312.87,-83.12 318.54,-74.17 308.53,-77.63 312.87,-83.12"/>
</g>
<!-- Node6 -->
<g id="node6" class="node">
<title>Node6</title>
<g id="a_node6"><a xlink:title=" ">
<polygon fill="#e0e0e0" stroke="#999999" points="418.5,-19 358.5,-19 358.5,0 418.5,0 418.5,-19"/>
<text text-anchor="middle" x="388.5" y="-7" font-family="Helvetica,sans-Serif" font-size="10.00">QProcess</text>
</a>
</g>
</g>
<!-- Node2&#45;&gt;Node6 -->
<g id="edge10" class="edge">
<title>Node2&#45;&gt;Node6</title>
<path fill="none" stroke="#63b8ff" d="M285.91,-114.79C310.17,-109.74 347.54,-98.36 369.5,-74 380.58,-61.71 385.2,-43.2 387.13,-29.33"/>
<polygon fill="#63b8ff" stroke="#63b8ff" points="390.65,-29.32 388.2,-19.01 383.69,-28.6 390.65,-29.32"/>
</g>
<!-- Node7 -->
<g id="node7" class="node">
<title>Node7</title>
<g id="a_node7"><a xlink:title=" ">
<polygon fill="#e0e0e0" stroke="#999999" points="238,-19 185,-19 185,0 238,0 238,-19"/>
<text text-anchor="middle" x="211.5" y="-7" font-family="Helvetica,sans-Serif" font-size="10.00">QQueue</text>
</a>
</g>
</g>
<!-- Node2&#45;&gt;Node7 -->
<g id="edge11" class="edge">
<title>Node2&#45;&gt;Node7</title>
<path fill="none" stroke="#63b8ff" d="M239.46,-114.89C216.75,-109.97 183.23,-98.74 167.5,-74 156.65,-56.94 173.83,-37.96 189.79,-25.23"/>
<polygon fill="#63b8ff" stroke="#63b8ff" points="191.96,-27.98 197.88,-19.19 187.77,-22.37 191.96,-27.98"/>
</g>
<!-- Node8 -->
<g id="node8" class="node">
<title>Node8</title>
<g id="a_node8"><a xlink:href="userinfo_8h.html" target="_top" xlink:title=" ">
<polygon fill="white" stroke="#666666" points="82,-74 23,-74 23,-55 82,-55 82,-74"/>
<text text-anchor="middle" x="52.5" y="-62" font-family="Helvetica,sans-Serif" font-size="10.00">userinfo.h</text>
</a>
</g>
</g>
<!-- Node2&#45;&gt;Node8 -->
<g id="edge7" class="edge">
<title>Node2&#45;&gt;Node8</title>
<path fill="none" stroke="#63b8ff" d="M239.22,-112.63C203.73,-103.67 135.64,-86.48 92.22,-75.53"/>
<polygon fill="#63b8ff" stroke="#63b8ff" points="92.84,-72.07 82.29,-73.02 91.13,-78.86 92.84,-72.07"/>
</g>
<!-- Node10 -->
<g id="node10" class="node">
<title>Node10</title>
<g id="a_node10"><a xlink:title=" ">
<polygon fill="#e0e0e0" stroke="#999999" points="135.5,-19 85.5,-19 85.5,0 135.5,0 135.5,-19"/>
<text text-anchor="middle" x="110.5" y="-7" font-family="Helvetica,sans-Serif" font-size="10.00">QString</text>
</a>
</g>
</g>
<!-- Node2&#45;&gt;Node10 -->
<g id="edge12" class="edge">
<title>Node2&#45;&gt;Node10</title>
<path fill="none" stroke="#63b8ff" d="M239.46,-112.23C217.34,-105.41 183.8,-92.89 159.5,-74 143.06,-61.22 129.11,-41.71 120.35,-27.69"/>
<polygon fill="#63b8ff" stroke="#63b8ff" points="123.29,-25.79 115.15,-19.01 117.29,-29.39 123.29,-25.79"/>
</g>
<!-- Node11 -->
<g id="node11" class="node">
<title>Node11</title>
<g id="a_node11"><a xlink:title=" ">
<polygon fill="#e0e0e0" stroke="#999999" points="226.5,-74 176.5,-74 176.5,-55 226.5,-55 226.5,-74"/>
<text text-anchor="middle" x="201.5" y="-62" font-family="Helvetica,sans-Serif" font-size="10.00">cassert</text>
</a>
</g>
</g>
<!-- Node2&#45;&gt;Node11 -->
<g id="edge13" class="edge">
<title>Node2&#45;&gt;Node11</title>
<path fill="none" stroke="#63b8ff" d="M252.7,-109.98C243.68,-102.15 230.09,-90.34 219.18,-80.86"/>
<polygon fill="#63b8ff" stroke="#63b8ff" points="221.32,-78.09 211.48,-74.17 216.73,-83.37 221.32,-78.09"/>
</g>
<!-- Node12 -->
<g id="node12" class="node">
<title>Node12</title>
<g id="a_node12"><a xlink:title=" ">
<polygon fill="#e0e0e0" stroke="#999999" points="280,-74 245,-74 245,-55 280,-55 280,-74"/>
<text text-anchor="middle" x="262.5" y="-62" font-family="Helvetica,sans-Serif" font-size="10.00">map</text>
</a>
</g>
</g>
<!-- Node2&#45;&gt;Node12 -->
<g id="edge14" class="edge">
<title>Node2&#45;&gt;Node12</title>
<path fill="none" stroke="#63b8ff" d="M262.5,-109.75C262.5,-102.8 262.5,-92.85 262.5,-84.13"/>
<polygon fill="#63b8ff" stroke="#63b8ff" points="266,-84.09 262.5,-74.09 259,-84.09 266,-84.09"/>
</g>
<!-- Node5 -->
<g id="node5" class="node">
<title>Node5</title>
<g id="a_node5"><a xlink:title=" ">
<polygon fill="#e0e0e0" stroke="#999999" points="340,-19 287,-19 287,0 340,0 340,-19"/>
<text text-anchor="middle" x="313.5" y="-7" font-family="Helvetica,sans-Serif" font-size="10.00">QObject</text>
</a>
</g>
</g>
<!-- Node4&#45;&gt;Node5 -->
<g id="edge4" class="edge">
<title>Node4&#45;&gt;Node5</title>
<path fill="none" stroke="#63b8ff" d="M326.86,-54.75C324.74,-47.72 321.69,-37.62 319.04,-28.84"/>
<polygon fill="#63b8ff" stroke="#63b8ff" points="322.33,-27.65 316.09,-19.09 315.63,-29.67 322.33,-27.65"/>
</g>
<!-- Node4&#45;&gt;Node6 -->
<g id="edge5" class="edge">
<title>Node4&#45;&gt;Node6</title>
<path fill="none" stroke="#63b8ff" d="M338.98,-54.98C347.7,-47.15 360.84,-35.34 371.4,-25.86"/>
<polygon fill="#63b8ff" stroke="#63b8ff" points="373.75,-28.46 378.85,-19.17 369.07,-23.25 373.75,-28.46"/>
</g>
<!-- Node4&#45;&gt;Node7 -->
<g id="edge6" class="edge">
<title>Node4&#45;&gt;Node7</title>
<path fill="none" stroke="#63b8ff" d="M310.54,-54.98C291.47,-46.42 261.84,-33.11 239.95,-23.28"/>
<polygon fill="#63b8ff" stroke="#63b8ff" points="241.36,-20.07 230.8,-19.17 238.49,-26.46 241.36,-20.07"/>
</g>
<!-- Node9 -->
<g id="node9" class="node">
<title>Node9</title>
<g id="a_node9"><a xlink:title=" ">
<polygon fill="#e0e0e0" stroke="#999999" points="67,-19 0,-19 0,0 67,0 67,-19"/>
<text text-anchor="middle" x="33.5" y="-7" font-family="Helvetica,sans-Serif" font-size="10.00">QDateTime</text>
</a>
</g>
</g>
<!-- Node8&#45;&gt;Node9 -->
<g id="edge8" class="edge">
<title>Node8&#45;&gt;Node9</title>
<path fill="none" stroke="#63b8ff" d="M49.36,-54.75C46.82,-47.65 43.14,-37.4 39.97,-28.56"/>
<polygon fill="#63b8ff" stroke="#63b8ff" points="43.25,-27.32 36.58,-19.09 36.66,-29.68 43.25,-27.32"/>
</g>
<!-- Node8&#45;&gt;Node10 -->
<g id="edge9" class="edge">
<title>Node8&#45;&gt;Node10</title>
<path fill="none" stroke="#63b8ff" d="M61.82,-54.98C70.31,-47.23 83.06,-35.58 93.38,-26.14"/>
<polygon fill="#63b8ff" stroke="#63b8ff" points="95.99,-28.5 101.01,-19.17 91.27,-23.33 95.99,-28.5"/>
</g>
<!-- Node13&#45;&gt;Node3 -->
<g id="edge16" class="edge">
<title>Node13&#45;&gt;Node3</title>
<path fill="none" stroke="#63b8ff" d="M443.5,-109.75C443.5,-102.8 443.5,-92.85 443.5,-84.13"/>
<polygon fill="#63b8ff" stroke="#63b8ff" points="447,-84.09 443.5,-74.09 440,-84.09 447,-84.09"/>
</g>
<!-- Node14 -->
<g id="node14" class="node">
<title>Node14</title>
<g id="a_node14"><a xlink:title=" ">
<polygon fill="#e0e0e0" stroke="#999999" points="532,-74 489,-74 489,-55 532,-55 532,-74"/>
<text text-anchor="middle" x="510.5" y="-62" font-family="Helvetica,sans-Serif" font-size="10.00">queue</text>
</a>
</g>
</g>
<!-- Node13&#45;&gt;Node14 -->
<g id="edge17" class="edge">
<title>Node13&#45;&gt;Node14</title>
<path fill="none" stroke="#63b8ff" d="M454.26,-109.98C464.27,-102.07 479.39,-90.11 491.43,-80.58"/>
<polygon fill="#63b8ff" stroke="#63b8ff" points="493.87,-83.12 499.54,-74.17 489.53,-77.63 493.87,-83.12"/>
</g>
</g>
</svg>
