<?xml version="1.0" encoding="UTF-8" standalone="no"?>
<!DOCTYPE svg PUBLIC "-//W3C//DTD SVG 1.1//EN"
 "http://www.w3.org/Graphics/SVG/1.1/DTD/svg11.dtd">
<!-- Generated by graphviz version 2.42.3 (20191010.1750)
 -->
<!-- Title: src/imitatepass.cpp Pages: 1 -->
<svg width="1122pt" height="302pt"
 viewBox="0.00 0.00 1121.70 302.00" xmlns="http://www.w3.org/2000/svg" xmlns:xlink="http://www.w3.org/1999/xlink">
<g id="graph0" class="graph" transform="scale(1 1) rotate(0) translate(4 298)">
<title>src/imitatepass.cpp</title>
<!-- Node1 -->
<g id="node1" class="node">
<title>Node1</title>
<g id="a_node1"><a xlink:title=" ">
<polygon fill="#bfbfbf" stroke="black" points="704.55,-275.5 704.55,-293.5 806.13,-293.5 806.13,-275.5 704.55,-275.5"/>
<text text-anchor="middle" x="755.34" y="-281.5" font-family="Helvetica,sans-Serif" font-size="10.00">src/imitatepass.cpp</text>
</a>
</g>
</g>
<!-- Node2 -->
<g id="node2" class="node">
<title>Node2</title>
<g id="a_node2"><a xlink:href="imitatepass_8h.html" target="_top" xlink:title=" ">
<polygon fill="none" stroke="black" points="416.88,-165.5 416.88,-183.5 491.8,-183.5 491.8,-165.5 416.88,-165.5"/>
<text text-anchor="middle" x="454.34" y="-171.5" font-family="Helvetica,sans-Serif" font-size="10.00">imitatepass.h</text>
</a>
</g>
</g>
<!-- Node1&#45;&gt;Node2 -->
<g id="edge1" class="edge">
<title>Node1&#45;&gt;Node2</title>
<path fill="none" stroke="midnightblue" d="M732.72,-275.38C679.75,-256.38 547.54,-208.94 486.35,-186.99"/>
<polygon fill="midnightblue" stroke="midnightblue" points="487.41,-183.65 476.82,-183.56 485.05,-190.24 487.41,-183.65"/>
</g>
<!-- Node17 -->
<g id="node17" class="node">
<title>Node17</title>
<g id="a_node17"><a xlink:href="qtpasssettings_8h.html" target="_top" xlink:title=" ">
<polygon fill="none" stroke="black" points="663.21,-220.5 663.21,-238.5 751.47,-238.5 751.47,-220.5 663.21,-220.5"/>
<text text-anchor="middle" x="707.34" y="-226.5" font-family="Helvetica,sans-Serif" font-size="10.00">qtpasssettings.h</text>
</a>
</g>
</g>
<!-- Node1&#45;&gt;Node17 -->
<g id="edge20" class="edge">
<title>Node1&#45;&gt;Node17</title>
<path fill="none" stroke="midnightblue" d="M747.84,-275.22C740.82,-267.47 730.16,-255.7 721.54,-246.18"/>
<polygon fill="midnightblue" stroke="midnightblue" points="723.94,-243.61 714.63,-238.55 718.75,-248.31 723.94,-243.61"/>
</g>
<!-- Node27 -->
<g id="node27" class="node">
<title>Node27</title>
<g id="a_node27"><a xlink:title=" ">
<polygon fill="none" stroke="#bfbfbf" points="769.22,-220.5 769.22,-238.5 837.46,-238.5 837.46,-220.5 769.22,-220.5"/>
<text text-anchor="middle" x="803.34" y="-226.5" font-family="Helvetica,sans-Serif" font-size="10.00">QDirIterator</text>
</a>
</g>
</g>
<!-- Node1&#45;&gt;Node27 -->
<g id="edge35" class="edge">
<title>Node1&#45;&gt;Node27</title>
<path fill="none" stroke="midnightblue" d="M762.84,-275.22C769.86,-267.47 780.52,-255.7 789.14,-246.18"/>
<polygon fill="midnightblue" stroke="midnightblue" points="791.93,-248.31 796.05,-238.55 786.74,-243.61 791.93,-248.31"/>
</g>
<!-- Node28 -->
<g id="node28" class="node">
<title>Node28</title>
<g id="a_node28"><a xlink:title=" ">
<polygon fill="none" stroke="#bfbfbf" points="855.95,-220.5 855.95,-238.5 894.73,-238.5 894.73,-220.5 855.95,-220.5"/>
<text text-anchor="middle" x="875.34" y="-226.5" font-family="Helvetica,sans-Serif" font-size="10.00">utility</text>
</a>
</g>
</g>
<!-- Node1&#45;&gt;Node28 -->
<g id="edge36" class="edge">
<title>Node1&#45;&gt;Node28</title>
<path fill="none" stroke="midnightblue" d="M773.57,-275.45C793.3,-266.73 825.01,-252.73 847.79,-242.67"/>
<polygon fill="midnightblue" stroke="midnightblue" points="849.21,-245.87 856.94,-238.63 846.38,-239.46 849.21,-245.87"/>
</g>
<!-- Node3 -->
<g id="node3" class="node">
<title>Node3</title>
<g id="a_node3"><a xlink:href="pass_8h.html" target="_top" xlink:title=" ">
<polygon fill="none" stroke="black" points="330.61,-110.5 330.61,-128.5 376.07,-128.5 376.07,-110.5 330.61,-110.5"/>
<text text-anchor="middle" x="353.34" y="-116.5" font-family="Helvetica,sans-Serif" font-size="10.00">pass.h</text>
</a>
</g>
</g>
<!-- Node2&#45;&gt;Node3 -->
<g id="edge2" class="edge">
<title>Node2&#45;&gt;Node3</title>
<path fill="none" stroke="midnightblue" d="M439,-165.45C422.76,-156.93 396.89,-143.35 377.83,-133.35"/>
<polygon fill="midnightblue" stroke="midnightblue" points="379.31,-130.17 368.82,-128.63 376.05,-136.37 379.31,-130.17"/>
</g>
<!-- Node15 -->
<g id="node15" class="node">
<title>Node15</title>
<g id="a_node15"><a xlink:href="simpletransaction_8h.html" target="_top" xlink:title=" ">
<polygon fill="none" stroke="black" points="470.26,-110.5 470.26,-128.5 572.42,-128.5 572.42,-110.5 470.26,-110.5"/>
<text text-anchor="middle" x="521.34" y="-116.5" font-family="Helvetica,sans-Serif" font-size="10.00">simpletransaction.h</text>
</a>
</g>
</g>
<!-- Node2&#45;&gt;Node15 -->
<g id="edge17" class="edge">
<title>Node2&#45;&gt;Node15</title>
<path fill="none" stroke="midnightblue" d="M464.52,-165.45C474.75,-157.36 490.74,-144.7 503.16,-134.88"/>
<polygon fill="midnightblue" stroke="midnightblue" points="505.4,-137.57 511.07,-128.63 501.05,-132.08 505.4,-137.57"/>
</g>
<!-- Node4 -->
<g id="node4" class="node">
<title>Node4</title>
<g id="a_node4"><a xlink:href="enums_8h.html" target="_top" xlink:title=" ">
<polygon fill="none" stroke="black" points="573.16,-55.5 573.16,-73.5 627.52,-73.5 627.52,-55.5 573.16,-55.5"/>
<text text-anchor="middle" x="600.34" y="-61.5" font-family="Helvetica,sans-Serif" font-size="10.00">enums.h</text>
</a>
</g>
</g>
<!-- Node3&#45;&gt;Node4 -->
<g id="edge3" class="edge">
<title>Node3&#45;&gt;Node4</title>
<path fill="none" stroke="midnightblue" d="M376.17,-113.87C413.26,-106.31 489.13,-90.69 562.92,-74.28"/>
<polygon fill="midnightblue" stroke="midnightblue" points="563.84,-77.66 572.84,-72.07 562.32,-70.83 563.84,-77.66"/>
</g>
<!-- Node5 -->
<g id="node5" class="node">
<title>Node5</title>
<g id="a_node5"><a xlink:href="executor_8h.html" target="_top" xlink:title=" ">
<polygon fill="none" stroke="black" points="57.27,-55.5 57.27,-73.5 119.41,-73.5 119.41,-55.5 57.27,-55.5"/>
<text text-anchor="middle" x="88.34" y="-61.5" font-family="Helvetica,sans-Serif" font-size="10.00">executor.h</text>
</a>
</g>
</g>
<!-- Node3&#45;&gt;Node5 -->
<g id="edge4" class="edge">
<title>Node3&#45;&gt;Node5</title>
<path fill="none" stroke="midnightblue" d="M330.29,-113.89C285.48,-104.93 186.08,-85.05 129.62,-73.76"/>
<polygon fill="midnightblue" stroke="midnightblue" points="130.09,-70.28 119.6,-71.75 128.72,-77.15 130.09,-70.28"/>
</g>
<!-- Node7 -->
<g id="node7" class="node">
<title>Node7</title>
<g id="a_node7"><a xlink:title=" ">
<polygon fill="none" stroke="#bfbfbf" points="70.39,-0.5 70.39,-18.5 130.29,-18.5 130.29,-0.5 70.39,-0.5"/>
<text text-anchor="middle" x="100.34" y="-6.5" font-family="Helvetica,sans-Serif" font-size="10.00">QProcess</text>
</a>
</g>
</g>
<!-- Node3&#45;&gt;Node7 -->
<g id="edge11" class="edge">
<title>Node3&#45;&gt;Node7</title>
<path fill="none" stroke="midnightblue" d="M330.52,-115.21C297.45,-109.83 234.88,-97.34 186.34,-74 159.85,-61.26 133.22,-39.98 116.76,-25.6"/>
<polygon fill="midnightblue" stroke="midnightblue" points="118.93,-22.84 109.14,-18.79 114.26,-28.06 118.93,-22.84"/>
</g>
<!-- Node8 -->
<g id="node8" class="node">
<title>Node8</title>
<g id="a_node8"><a xlink:title=" ">
<polygon fill="none" stroke="#bfbfbf" points="148.44,-0.5 148.44,-18.5 202.24,-18.5 202.24,-0.5 148.44,-0.5"/>
<text text-anchor="middle" x="175.34" y="-6.5" font-family="Helvetica,sans-Serif" font-size="10.00">QQueue</text>
</a>
</g>
</g>
<!-- Node3&#45;&gt;Node8 -->
<g id="edge12" class="edge">
<title>Node3&#45;&gt;Node8</title>
<path fill="none" stroke="midnightblue" d="M330.37,-117.41C298.46,-114.74 240.58,-105.55 204.34,-74 190.92,-62.32 183.36,-43.16 179.35,-28.94"/>
<polygon fill="midnightblue" stroke="midnightblue" points="182.64,-27.69 176.85,-18.83 175.85,-29.37 182.64,-27.69"/>
</g>
<!-- Node9 -->
<g id="node9" class="node">
<title>Node9</title>
<g id="a_node9"><a xlink:href="userinfo_8h.html" target="_top" xlink:title=" ">
<polygon fill="none" stroke="black" points="213.38,-55.5 213.38,-73.5 273.3,-73.5 273.3,-55.5 213.38,-55.5"/>
<text text-anchor="middle" x="243.34" y="-61.5" font-family="Helvetica,sans-Serif" font-size="10.00">userinfo.h</text>
</a>
</g>
</g>
<!-- Node3&#45;&gt;Node9 -->
<g id="edge8" class="edge">
<title>Node3&#45;&gt;Node9</title>
<path fill="none" stroke="midnightblue" d="M336.63,-110.45C318.78,-101.85 290.26,-88.1 269.44,-78.08"/>
<polygon fill="midnightblue" stroke="midnightblue" points="270.73,-74.81 260.2,-73.63 267.69,-81.12 270.73,-74.81"/>
</g>
<!-- Node11 -->
<g id="node11" class="node">
<title>Node11</title>
<g id="a_node11"><a xlink:title=" ">
<polygon fill="none" stroke="#bfbfbf" points="493.39,-0.5 493.39,-18.5 543.29,-18.5 543.29,-0.5 493.39,-0.5"/>
<text text-anchor="middle" x="518.34" y="-6.5" font-family="Helvetica,sans-Serif" font-size="10.00">QString</text>
</a>
</g>
</g>
<!-- Node3&#45;&gt;Node11 -->
<g id="edge13" class="edge">
<title>Node3&#45;&gt;Node11</title>
<path fill="none" stroke="midnightblue" d="M343.59,-110.49C329.35,-97.84 306.06,-72.85 320.34,-55 340.37,-29.97 431.96,-18.04 483.26,-13.23"/>
<polygon fill="midnightblue" stroke="midnightblue" points="483.61,-16.72 493.26,-12.34 482.98,-9.74 483.61,-16.72"/>
</g>
<!-- Node12 -->
<g id="node12" class="node">
<title>Node12</title>
<g id="a_node12"><a xlink:title=" ">
<polygon fill="none" stroke="#bfbfbf" points="329.22,-55.5 329.22,-73.5 377.46,-73.5 377.46,-55.5 329.22,-55.5"/>
<text text-anchor="middle" x="353.34" y="-61.5" font-family="Helvetica,sans-Serif" font-size="10.00">cassert</text>
</a>
</g>
</g>
<!-- Node3&#45;&gt;Node12 -->
<g id="edge14" class="edge">
<title>Node3&#45;&gt;Node12</title>
<path fill="none" stroke="midnightblue" d="M353.34,-110.22C353.34,-103.18 353.34,-92.81 353.34,-83.83"/>
<polygon fill="midnightblue" stroke="midnightblue" points="356.84,-83.55 353.34,-73.55 349.84,-83.55 356.84,-83.55"/>
</g>
<!-- Node13 -->
<g id="node13" class="node">
<title>Node13</title>
<g id="a_node13"><a xlink:title=" ">
<polygon fill="none" stroke="#bfbfbf" points="395.61,-55.5 395.61,-73.5 431.07,-73.5 431.07,-55.5 395.61,-55.5"/>
<text text-anchor="middle" x="413.34" y="-61.5" font-family="Helvetica,sans-Serif" font-size="10.00">map</text>
</a>
</g>
</g>
<!-- Node3&#45;&gt;Node13 -->
<g id="edge15" class="edge">
<title>Node3&#45;&gt;Node13</title>
<path fill="none" stroke="midnightblue" d="M362.45,-110.45C371.44,-102.51 385.39,-90.19 396.41,-80.45"/>
<polygon fill="midnightblue" stroke="midnightblue" points="398.96,-82.87 404.14,-73.63 394.33,-77.62 398.96,-82.87"/>
</g>
<!-- Node14 -->
<g id="node14" class="node">
<title>Node14</title>
<g id="a_node14"><a xlink:title=" ">
<polygon fill="none" stroke="#bfbfbf" points="449.04,-55.5 449.04,-73.5 555.64,-73.5 555.64,-55.5 449.04,-55.5"/>
<text text-anchor="middle" x="502.34" y="-61.5" font-family="Helvetica,sans-Serif" font-size="10.00">QRandomGenerator</text>
</a>
</g>
</g>
<!-- Node3&#45;&gt;Node14 -->
<g id="edge16" class="edge">
<title>Node3&#45;&gt;Node14</title>
<path fill="none" stroke="midnightblue" d="M375.97,-110.45C401.02,-101.54 441.61,-87.1 470.01,-77"/>
<polygon fill="midnightblue" stroke="midnightblue" points="471.25,-80.27 479.5,-73.63 468.9,-73.68 471.25,-80.27"/>
</g>
<!-- Node6 -->
<g id="node6" class="node">
<title>Node6</title>
<g id="a_node6"><a xlink:title=" ">
<polygon fill="none" stroke="#bfbfbf" points="0,-0.5 0,-18.5 52.68,-18.5 52.68,-0.5 0,-0.5"/>
<text text-anchor="middle" x="26.34" y="-6.5" font-family="Helvetica,sans-Serif" font-size="10.00">QObject</text>
</a>
</g>
</g>
<!-- Node5&#45;&gt;Node6 -->
<g id="edge5" class="edge">
<title>Node5&#45;&gt;Node6</title>
<path fill="none" stroke="midnightblue" d="M78.92,-55.45C69.55,-47.43 54.94,-34.95 43.5,-25.17"/>
<polygon fill="midnightblue" stroke="midnightblue" points="45.72,-22.46 35.84,-18.63 41.17,-27.78 45.72,-22.46"/>
</g>
<!-- Node5&#45;&gt;Node7 -->
<g id="edge6" class="edge">
<title>Node5&#45;&gt;Node7</title>
<path fill="none" stroke="midnightblue" d="M90.21,-55.22C91.83,-48.1 94.21,-37.58 96.26,-28.53"/>
<polygon fill="midnightblue" stroke="midnightblue" points="99.72,-29.08 98.52,-18.55 92.9,-27.53 99.72,-29.08"/>
</g>
<!-- Node5&#45;&gt;Node8 -->
<g id="edge7" class="edge">
<title>Node5&#45;&gt;Node8</title>
<path fill="none" stroke="midnightblue" d="M101.55,-55.45C115.22,-47.12 136.81,-33.97 153.11,-24.04"/>
<polygon fill="midnightblue" stroke="midnightblue" points="155.28,-26.82 162,-18.63 151.64,-20.84 155.28,-26.82"/>
</g>
<!-- Node10 -->
<g id="node10" class="node">
<title>Node10</title>
<g id="a_node10"><a xlink:title=" ">
<polygon fill="none" stroke="#bfbfbf" points="219.96,-0.5 219.96,-18.5 286.72,-18.5 286.72,-0.5 219.96,-0.5"/>
<text text-anchor="middle" x="253.34" y="-6.5" font-family="Helvetica,sans-Serif" font-size="10.00">QDateTime</text>
</a>
</g>
</g>
<!-- Node9&#45;&gt;Node10 -->
<g id="edge9" class="edge">
<title>Node9&#45;&gt;Node10</title>
<path fill="none" stroke="midnightblue" d="M244.9,-55.22C246.25,-48.1 248.23,-37.58 249.94,-28.53"/>
<polygon fill="midnightblue" stroke="midnightblue" points="253.41,-29.03 251.82,-18.55 246.53,-27.73 253.41,-29.03"/>
</g>
<!-- Node9&#45;&gt;Node11 -->
<g id="edge10" class="edge">
<title>Node9&#45;&gt;Node11</title>
<path fill="none" stroke="midnightblue" d="M273.64,-57.65C278.23,-56.76 282.91,-55.85 287.34,-55 356.91,-41.58 438.28,-25.91 483.5,-17.21"/>
<polygon fill="midnightblue" stroke="midnightblue" points="484.23,-20.63 493.39,-15.3 482.9,-13.76 484.23,-20.63"/>
</g>
<!-- Node15&#45;&gt;Node4 -->
<g id="edge18" class="edge">
<title>Node15&#45;&gt;Node4</title>
<path fill="none" stroke="midnightblue" d="M533.34,-110.45C545.63,-102.2 564.99,-89.22 579.74,-79.32"/>
<polygon fill="midnightblue" stroke="midnightblue" points="581.87,-82.1 588.23,-73.63 577.97,-76.29 581.87,-82.1"/>
</g>
<!-- Node16 -->
<g id="node16" class="node">
<title>Node16</title>
<g id="a_node16"><a xlink:title=" ">
<polygon fill="none" stroke="#bfbfbf" points="645.44,-55.5 645.44,-73.5 689.24,-73.5 689.24,-55.5 645.44,-55.5"/>
<text text-anchor="middle" x="667.34" y="-61.5" font-family="Helvetica,sans-Serif" font-size="10.00">queue</text>
</a>
</g>
</g>
<!-- Node15&#45;&gt;Node16 -->
<g id="edge19" class="edge">
<title>Node15&#45;&gt;Node16</title>
<path fill="none" stroke="midnightblue" d="M543.51,-110.45C568.1,-101.53 607.94,-87.06 635.78,-76.96"/>
<polygon fill="midnightblue" stroke="midnightblue" points="637.23,-80.15 645.44,-73.45 634.84,-73.57 637.23,-80.15"/>
</g>
<!-- Node17&#45;&gt;Node2 -->
<g id="edge22" class="edge">
<title>Node17&#45;&gt;Node2</title>
<path fill="none" stroke="midnightblue" d="M668.91,-220.45C624.13,-211.07 550.12,-195.56 501.79,-185.44"/>
<polygon fill="midnightblue" stroke="midnightblue" points="502.39,-181.99 491.89,-183.37 500.96,-188.84 502.39,-181.99"/>
</g>
<!-- Node17&#45;&gt;Node4 -->
<g id="edge21" class="edge">
<title>Node17&#45;&gt;Node4</title>
<path fill="none" stroke="midnightblue" d="M696.18,-220.44C685.07,-212.09 667.89,-198.28 655.34,-184 636.05,-162.06 631.66,-155.49 619.34,-129 612.51,-114.31 607.45,-96.58 604.27,-83.59"/>
<polygon fill="midnightblue" stroke="midnightblue" points="607.63,-82.55 601.97,-73.59 600.8,-84.12 607.63,-82.55"/>
</g>
<!-- Node18 -->
<g id="node18" class="node">
<title>Node18</title>
<g id="a_node18"><a xlink:href="passwordconfiguration_8h.html" target="_top" xlink:title=" ">
<polygon fill="none" stroke="black" points="628.14,-110.5 628.14,-128.5 752.54,-128.5 752.54,-110.5 628.14,-110.5"/>
<text text-anchor="middle" x="690.34" y="-116.5" font-family="Helvetica,sans-Serif" font-size="10.00">passwordconfiguration.h</text>
</a>
</g>
</g>
<!-- Node17&#45;&gt;Node18 -->
<g id="edge23" class="edge">
<title>Node17&#45;&gt;Node18</title>
<path fill="none" stroke="midnightblue" d="M694.71,-220.37C683.82,-212.55 668.86,-199.61 662.34,-184 655.55,-167.74 665.66,-149.33 675.57,-136.54"/>
<polygon fill="midnightblue" stroke="midnightblue" points="678.43,-138.58 682.19,-128.68 673.07,-134.07 678.43,-138.58"/>
</g>
<!-- Node19 -->
<g id="node19" class="node">
<title>Node19</title>
<g id="a_node19"><a xlink:href="realpass_8h.html" target="_top" xlink:title=" ">
<polygon fill="none" stroke="black" points="510.27,-165.5 510.27,-183.5 572.41,-183.5 572.41,-165.5 510.27,-165.5"/>
<text text-anchor="middle" x="541.34" y="-171.5" font-family="Helvetica,sans-Serif" font-size="10.00">realpass.h</text>
</a>
</g>
</g>
<!-- Node17&#45;&gt;Node19 -->
<g id="edge25" class="edge">
<title>Node17&#45;&gt;Node19</title>
<path fill="none" stroke="midnightblue" d="M682.13,-220.45C653.89,-211.44 607.94,-196.77 576.26,-186.65"/>
<polygon fill="midnightblue" stroke="midnightblue" points="577.11,-183.25 566.52,-183.54 574.98,-189.91 577.11,-183.25"/>
</g>
<!-- Node20 -->
<g id="node20" class="node">
<title>Node20</title>
<g id="a_node20"><a xlink:href="settingsconstants_8h.html" target="_top" xlink:title=" ">
<polygon fill="none" stroke="black" points="770.54,-110.5 770.54,-128.5 872.14,-128.5 872.14,-110.5 770.54,-110.5"/>
<text text-anchor="middle" x="821.34" y="-116.5" font-family="Helvetica,sans-Serif" font-size="10.00">settingsconstants.h</text>
</a>
</g>
</g>
<!-- Node17&#45;&gt;Node20 -->
<g id="edge27" class="edge">
<title>Node17&#45;&gt;Node20</title>
<path fill="none" stroke="midnightblue" d="M702.2,-220.26C694.83,-207.28 683.42,-181.85 695.34,-165 704.86,-151.54 742.64,-139.31 774.37,-131.09"/>
<polygon fill="midnightblue" stroke="midnightblue" points="775.57,-134.4 784.42,-128.57 773.87,-127.61 775.57,-134.4"/>
</g>
<!-- Node21 -->
<g id="node21" class="node">
<title>Node21</title>
<g id="a_node21"><a xlink:title=" ">
<polygon fill="none" stroke="#bfbfbf" points="704.5,-165.5 704.5,-183.5 772.18,-183.5 772.18,-165.5 704.5,-165.5"/>
<text text-anchor="middle" x="738.34" y="-171.5" font-family="Helvetica,sans-Serif" font-size="10.00">QByteArray</text>
</a>
</g>
</g>
<!-- Node17&#45;&gt;Node21 -->
<g id="edge29" class="edge">
<title>Node17&#45;&gt;Node21</title>
<path fill="none" stroke="midnightblue" d="M712.18,-220.22C716.53,-212.79 723.05,-201.65 728.49,-192.34"/>
<polygon fill="midnightblue" stroke="midnightblue" points="731.6,-193.95 733.63,-183.55 725.56,-190.41 731.6,-193.95"/>
</g>
<!-- Node22 -->
<g id="node22" class="node">
<title>Node22</title>
<g id="a_node22"><a xlink:title=" ">
<polygon fill="none" stroke="#bfbfbf" points="789.78,-165.5 789.78,-183.5 836.9,-183.5 836.9,-165.5 789.78,-165.5"/>
<text text-anchor="middle" x="813.34" y="-171.5" font-family="Helvetica,sans-Serif" font-size="10.00">QHash</text>
</a>
</g>
</g>
<!-- Node17&#45;&gt;Node22 -->
<g id="edge30" class="edge">
<title>Node17&#45;&gt;Node22</title>
<path fill="none" stroke="midnightblue" d="M723.44,-220.45C740.56,-211.89 767.88,-198.23 787.92,-188.21"/>
<polygon fill="midnightblue" stroke="midnightblue" points="789.71,-191.23 797.09,-183.63 786.58,-184.97 789.71,-191.23"/>
</g>
<!-- Node23 -->
<g id="node23" class="node">
<title>Node23</title>
<g id="a_node23"><a xlink:title=" ">
<polygon fill="none" stroke="#bfbfbf" points="855.05,-165.5 855.05,-183.5 901.63,-183.5 901.63,-165.5 855.05,-165.5"/>
<text text-anchor="middle" x="878.34" y="-171.5" font-family="Helvetica,sans-Serif" font-size="10.00">QPoint</text>
</a>
</g>
</g>
<!-- Node17&#45;&gt;Node23 -->
<g id="edge31" class="edge">
<title>Node17&#45;&gt;Node23</title>
<path fill="none" stroke="midnightblue" d="M733.31,-220.45C763.28,-211.16 812.64,-195.86 845.31,-185.74"/>
<polygon fill="midnightblue" stroke="midnightblue" points="846.36,-189.07 854.88,-182.77 844.29,-182.39 846.36,-189.07"/>
</g>
<!-- Node24 -->
<g id="node24" class="node">
<title>Node24</title>
<g id="a_node24"><a xlink:title=" ">
<polygon fill="none" stroke="#bfbfbf" points="919.38,-165.5 919.38,-183.5 979.3,-183.5 979.3,-165.5 919.38,-165.5"/>
<text text-anchor="middle" x="949.34" y="-171.5" font-family="Helvetica,sans-Serif" font-size="10.00">QSettings</text>
</a>
</g>
</g>
<!-- Node17&#45;&gt;Node24 -->
<g id="edge32" class="edge">
<title>Node17&#45;&gt;Node24</title>
<path fill="none" stroke="midnightblue" d="M744.09,-220.45C788.59,-210.7 863.27,-194.35 909.23,-184.28"/>
<polygon fill="midnightblue" stroke="midnightblue" points="910.12,-187.67 919.14,-182.11 908.62,-180.83 910.12,-187.67"/>
</g>
<!-- Node25 -->
<g id="node25" class="node">
<title>Node25</title>
<g id="a_node25"><a xlink:title=" ">
<polygon fill="none" stroke="#bfbfbf" points="997.72,-165.5 997.72,-183.5 1040.96,-183.5 1040.96,-165.5 997.72,-165.5"/>
<text text-anchor="middle" x="1019.34" y="-171.5" font-family="Helvetica,sans-Serif" font-size="10.00">QSize</text>
</a>
</g>
</g>
<!-- Node17&#45;&gt;Node25 -->
<g id="edge33" class="edge">
<title>Node17&#45;&gt;Node25</title>
<path fill="none" stroke="midnightblue" d="M751.58,-221.4C754.55,-220.92 757.49,-220.45 760.34,-220 858.49,-204.38 886.33,-205.51 987.39,-183.99"/>
<polygon fill="midnightblue" stroke="midnightblue" points="988.36,-187.36 997.4,-181.84 986.89,-180.52 988.36,-187.36"/>
</g>
<!-- Node26 -->
<g id="node26" class="node">
<title>Node26</title>
<g id="a_node26"><a xlink:title=" ">
<polygon fill="none" stroke="#bfbfbf" points="1058.98,-165.5 1058.98,-183.5 1113.7,-183.5 1113.7,-165.5 1058.98,-165.5"/>
<text text-anchor="middle" x="1086.34" y="-171.5" font-family="Helvetica,sans-Serif" font-size="10.00">QVariant</text>
</a>
</g>
</g>
<!-- Node17&#45;&gt;Node26 -->
<g id="edge34" class="edge">
<title>Node17&#45;&gt;Node26</title>
<path fill="none" stroke="midnightblue" d="M751.57,-221.29C754.54,-220.84 757.48,-220.41 760.34,-220 885.66,-202.18 920.74,-206.71 1048.69,-184.13"/>
<polygon fill="midnightblue" stroke="midnightblue" points="1049.66,-187.51 1058.89,-182.31 1048.43,-180.62 1049.66,-187.51"/>
</g>
<!-- Node18&#45;&gt;Node11 -->
<g id="edge24" class="edge">
<title>Node18&#45;&gt;Node11</title>
<path fill="none" stroke="midnightblue" d="M694.87,-110.08C701.3,-96.86 710.94,-71.1 698.34,-55 680.72,-32.5 600.94,-19.8 553.71,-14.13"/>
<polygon fill="midnightblue" stroke="midnightblue" points="553.93,-10.64 543.59,-12.97 553.13,-17.59 553.93,-10.64"/>
</g>
<!-- Node19&#45;&gt;Node3 -->
<g id="edge26" class="edge">
<title>Node19&#45;&gt;Node3</title>
<path fill="none" stroke="midnightblue" d="M512.79,-165.45C478.76,-155.86 422.01,-139.86 386.19,-129.76"/>
<polygon fill="midnightblue" stroke="midnightblue" points="386.81,-126.3 376.23,-126.95 384.91,-133.04 386.81,-126.3"/>
</g>
<!-- Node20&#45;&gt;Node11 -->
<g id="edge28" class="edge">
<title>Node20&#45;&gt;Node11</title>
<path fill="none" stroke="midnightblue" d="M810.51,-110.4C791.97,-96.92 752.58,-69.91 715.34,-55 660.96,-33.22 593.65,-20.92 553.45,-14.99"/>
<polygon fill="midnightblue" stroke="midnightblue" points="553.75,-11.5 543.36,-13.56 552.76,-18.43 553.75,-11.5"/>
</g>
</g>
</svg>
