<?xml version="1.0" encoding="UTF-8" standalone="no"?>
<!DOCTYPE svg PUBLIC "-//W3C//DTD SVG 1.1//EN"
 "http://www.w3.org/Graphics/SVG/1.1/DTD/svg11.dtd">
<!-- Generated by graphviz version 2.40.1 (20161225.0304)
 -->
<!-- Title: src/imitatepass.h Pages: 1 -->
<svg width="965pt" height="192pt"
 viewBox="0.00 0.00 964.85 192.00" xmlns="http://www.w3.org/2000/svg" xmlns:xlink="http://www.w3.org/1999/xlink">
<g id="graph0" class="graph" transform="scale(1 1) rotate(0) translate(4 188)">
<title>src/imitatepass.h</title>
<!-- Node0 -->
<g id="node1" class="node">
<title>Node0</title>
<polygon fill="#bfbfbf" stroke="#000000" points="602.4385,-165.5 602.4385,-183.5 693.4629,-183.5 693.4629,-165.5 602.4385,-165.5"/>
<text text-anchor="middle" x="647.9507" y="-171.5" font-family="Helvetica,sans-Serif" font-size="10.00" fill="#000000">src/imitatepass.h</text>
</g>
<!-- Node1 -->
<g id="node2" class="node">
<title>Node1</title>
<g id="a_node2"><a xlink:href="pass_8h.html" target="_top" xlink:title="pass.h">
<polygon fill="none" stroke="#000000" points="459.2192,-110.5 459.2192,-128.5 504.6821,-128.5 504.6821,-110.5 459.2192,-110.5"/>
<text text-anchor="middle" x="481.9507" y="-116.5" font-family="Helvetica,sans-Serif" font-size="10.00" fill="#000000">pass.h</text>
</a>
</g>
</g>
<!-- Node0&#45;&gt;Node1 -->
<g id="edge1" class="edge">
<title>Node0&#45;&gt;Node1</title>
<path fill="none" stroke="#191970" d="M620.5392,-165.4179C591.4993,-155.7962 545.6572,-140.6076 514.7271,-130.3597"/>
<polygon fill="#191970" stroke="#191970" points="515.4486,-126.9117 504.8553,-127.0889 513.247,-133.5564 515.4486,-126.9117"/>
</g>
<!-- Node17 -->
<g id="node18" class="node">
<title>Node17</title>
<g id="a_node18"><a xlink:href="simpletransaction_8h.html" target="_top" xlink:title="simpletransaction.h">
<polygon fill="none" stroke="#000000" points="816.8745,-110.5 816.8745,-128.5 919.0269,-128.5 919.0269,-110.5 816.8745,-110.5"/>
<text text-anchor="middle" x="867.9507" y="-116.5" font-family="Helvetica,sans-Serif" font-size="10.00" fill="#000000">simpletransaction.h</text>
</a>
</g>
</g>
<!-- Node0&#45;&gt;Node17 -->
<g id="edge20" class="edge">
<title>Node0&#45;&gt;Node17</title>
<path fill="none" stroke="#191970" d="M684.2792,-165.4179C722.0495,-155.9753 781.2666,-141.171 822.203,-130.9369"/>
<polygon fill="#191970" stroke="#191970" points="823.0813,-134.3251 831.9338,-128.5042 821.3835,-127.5341 823.0813,-134.3251"/>
</g>
<!-- Node2 -->
<g id="node3" class="node">
<title>Node2</title>
<g id="a_node3"><a xlink:href="datahelpers_8h.html" target="_top" xlink:title="datahelpers.h">
<polygon fill="none" stroke="#000000" points="708.6504,-55.5 708.6504,-73.5 785.251,-73.5 785.251,-55.5 708.6504,-55.5"/>
<text text-anchor="middle" x="746.9507" y="-61.5" font-family="Helvetica,sans-Serif" font-size="10.00" fill="#000000">datahelpers.h</text>
</a>
</g>
</g>
<!-- Node1&#45;&gt;Node2 -->
<g id="edge2" class="edge">
<title>Node1&#45;&gt;Node2</title>
<path fill="none" stroke="#191970" d="M505.0041,-114.7153C548.0065,-105.7903 641.2794,-86.4318 698.6331,-74.5282"/>
<polygon fill="#191970" stroke="#191970" points="699.4767,-77.9278 708.5568,-72.4685 698.0542,-71.0738 699.4767,-77.9278"/>
</g>
<!-- Node4 -->
<g id="node5" class="node">
<title>Node4</title>
<polygon fill="none" stroke="#bfbfbf" points="788,-.5 788,-18.5 837.9014,-18.5 837.9014,-.5 788,-.5"/>
<text text-anchor="middle" x="812.9507" y="-6.5" font-family="Helvetica,sans-Serif" font-size="10.00" fill="#000000">QString</text>
</g>
<!-- Node1&#45;&gt;Node4 -->
<g id="edge16" class="edge">
<title>Node1&#45;&gt;Node4</title>
<path fill="none" stroke="#191970" d="M504.9737,-117.5727C573.3911,-111.6503 772.0874,-92.9665 793.9507,-74 806.8801,-62.7837 811.2316,-43.2567 812.5899,-28.6185"/>
<polygon fill="#191970" stroke="#191970" points="816.0866,-28.7722 813.1376,-18.5961 809.0971,-28.3902 816.0866,-28.7722"/>
</g>
<!-- Node5 -->
<g id="node6" class="node">
<title>Node5</title>
<g id="a_node6"><a xlink:href="enums_8h.html" target="_top" xlink:title="enums.h">
<polygon fill="none" stroke="#000000" points="840.7734,-55.5 840.7734,-73.5 895.1279,-73.5 895.1279,-55.5 840.7734,-55.5"/>
<text text-anchor="middle" x="867.9507" y="-61.5" font-family="Helvetica,sans-Serif" font-size="10.00" fill="#000000">enums.h</text>
</a>
</g>
</g>
<!-- Node1&#45;&gt;Node5 -->
<g id="edge5" class="edge">
<title>Node1&#45;&gt;Node5</title>
<path fill="none" stroke="#191970" d="M505.0839,-117.2294C560.7689,-111.5943 706.575,-95.8311 826.9507,-74 828.2043,-73.7726 829.4774,-73.5322 830.7615,-73.2815"/>
<polygon fill="#191970" stroke="#191970" points="831.6089,-76.68 840.6798,-71.2055 830.1748,-69.8285 831.6089,-76.68"/>
</g>
<!-- Node6 -->
<g id="node7" class="node">
<title>Node6</title>
<g id="a_node7"><a xlink:href="executor_8h.html" target="_top" xlink:title="executor.h">
<polygon fill="none" stroke="#000000" points="72.877,-55.5 72.877,-73.5 135.0244,-73.5 135.0244,-55.5 72.877,-55.5"/>
<text text-anchor="middle" x="103.9507" y="-61.5" font-family="Helvetica,sans-Serif" font-size="10.00" fill="#000000">executor.h</text>
</a>
</g>
</g>
<!-- Node1&#45;&gt;Node6 -->
<g id="edge6" class="edge">
<title>Node1&#45;&gt;Node6</title>
<path fill="none" stroke="#191970" d="M458.8502,-116.9265C404.5809,-110.7536 264.7919,-94.1147 148.9507,-74 147.7116,-73.7849 146.4547,-73.5602 145.1868,-73.3281"/>
<polygon fill="#191970" stroke="#191970" points="145.8479,-69.8912 135.3661,-71.4344 144.5225,-76.7645 145.8479,-69.8912"/>
</g>
<!-- Node8 -->
<g id="node9" class="node">
<title>Node8</title>
<polygon fill="none" stroke="#bfbfbf" points="0,-.5 0,-18.5 59.9014,-18.5 59.9014,-.5 0,-.5"/>
<text text-anchor="middle" x="29.9507" y="-6.5" font-family="Helvetica,sans-Serif" font-size="10.00" fill="#000000">QProcess</text>
</g>
<!-- Node1&#45;&gt;Node8 -->
<g id="edge13" class="edge">
<title>Node1&#45;&gt;Node8</title>
<path fill="none" stroke="#191970" d="M458.9452,-118.2525C376.1927,-113.5953 96.8142,-96.3412 63.9507,-74 48.4508,-63.4629 39.5068,-43.5385 34.7202,-28.6102"/>
<polygon fill="#191970" stroke="#191970" points="38.0399,-27.4881 31.9353,-18.8288 31.3075,-29.405 38.0399,-27.4881"/>
</g>
<!-- Node9 -->
<g id="node10" class="node">
<title>Node9</title>
<polygon fill="none" stroke="#bfbfbf" points="148.0493,-.5 148.0493,-18.5 201.8521,-18.5 201.8521,-.5 148.0493,-.5"/>
<text text-anchor="middle" x="174.9507" y="-6.5" font-family="Helvetica,sans-Serif" font-size="10.00" fill="#000000">QQueue</text>
</g>
<!-- Node1&#45;&gt;Node9 -->
<g id="edge14" class="edge">
<title>Node1&#45;&gt;Node9</title>
<path fill="none" stroke="#191970" d="M459.1828,-117.6362C392.5115,-111.9627 201.1788,-94.0615 181.9507,-74 170.7579,-62.3221 169.92,-43.4486 171.3416,-29.1275"/>
<polygon fill="#191970" stroke="#191970" points="174.8614,-29.2373 172.8115,-18.8427 167.9318,-28.2469 174.8614,-29.2373"/>
</g>
<!-- Node10 -->
<g id="node11" class="node">
<title>Node10</title>
<polygon fill="none" stroke="#bfbfbf" points="191.3276,-55.5 191.3276,-73.5 244.5737,-73.5 244.5737,-55.5 191.3276,-55.5"/>
<text text-anchor="middle" x="217.9507" y="-61.5" font-family="Helvetica,sans-Serif" font-size="10.00" fill="#000000">QDebug</text>
</g>
<!-- Node1&#45;&gt;Node10 -->
<g id="edge10" class="edge">
<title>Node1&#45;&gt;Node10</title>
<path fill="none" stroke="#191970" d="M459.1995,-115.4355C419.6745,-108.273 335.5769,-92.5859 254.5099,-74.016"/>
<polygon fill="#191970" stroke="#191970" points="255.173,-70.5771 244.6419,-71.7374 253.5981,-77.3976 255.173,-70.5771"/>
</g>
<!-- Node11 -->
<g id="node12" class="node">
<title>Node11</title>
<polygon fill="none" stroke="#bfbfbf" points="262.6748,-55.5 262.6748,-73.5 299.2266,-73.5 299.2266,-55.5 262.6748,-55.5"/>
<text text-anchor="middle" x="280.9507" y="-61.5" font-family="Helvetica,sans-Serif" font-size="10.00" fill="#000000">QDir</text>
</g>
<!-- Node1&#45;&gt;Node11 -->
<g id="edge11" class="edge">
<title>Node1&#45;&gt;Node11</title>
<path fill="none" stroke="#191970" d="M458.9805,-114.1339C427.2906,-106.5939 368.2066,-92.0463 309.3057,-74.2465"/>
<polygon fill="#191970" stroke="#191970" points="310.0614,-70.8177 299.4751,-71.2441 308.0167,-77.5125 310.0614,-70.8177"/>
</g>
<!-- Node12 -->
<g id="node13" class="node">
<title>Node12</title>
<polygon fill="none" stroke="#bfbfbf" points="317.2808,-55.5 317.2808,-73.5 356.6206,-73.5 356.6206,-55.5 317.2808,-55.5"/>
<text text-anchor="middle" x="336.9507" y="-61.5" font-family="Helvetica,sans-Serif" font-size="10.00" fill="#000000">QList</text>
</g>
<!-- Node1&#45;&gt;Node12 -->
<g id="edge12" class="edge">
<title>Node1&#45;&gt;Node12</title>
<path fill="none" stroke="#191970" d="M458.975,-110.7851C433.9403,-101.2892 393.8143,-86.069 366.4639,-75.6947"/>
<polygon fill="#191970" stroke="#191970" points="367.6084,-72.3855 357.0171,-72.1114 365.1258,-78.9305 367.6084,-72.3855"/>
</g>
<!-- Node13 -->
<g id="node14" class="node">
<title>Node13</title>
<polygon fill="none" stroke="#bfbfbf" points="374.6504,-55.5 374.6504,-73.5 481.251,-73.5 481.251,-55.5 374.6504,-55.5"/>
<text text-anchor="middle" x="427.9507" y="-61.5" font-family="Helvetica,sans-Serif" font-size="10.00" fill="#000000">QRandomGenerator</text>
</g>
<!-- Node1&#45;&gt;Node13 -->
<g id="edge15" class="edge">
<title>Node1&#45;&gt;Node13</title>
<path fill="none" stroke="#191970" d="M473.0337,-110.4179C465.1861,-102.425 453.5667,-90.5903 444.0896,-80.9377"/>
<polygon fill="#191970" stroke="#191970" points="446.5648,-78.463 437.0614,-73.7795 441.5699,-83.3672 446.5648,-78.463"/>
</g>
<!-- Node14 -->
<g id="node15" class="node">
<title>Node14</title>
<polygon fill="none" stroke="#bfbfbf" points="499.4385,-55.5 499.4385,-73.5 570.4629,-73.5 570.4629,-55.5 499.4385,-55.5"/>
<text text-anchor="middle" x="534.9507" y="-61.5" font-family="Helvetica,sans-Serif" font-size="10.00" fill="#000000">QTextCodec</text>
</g>
<!-- Node1&#45;&gt;Node14 -->
<g id="edge17" class="edge">
<title>Node1&#45;&gt;Node14</title>
<path fill="none" stroke="#191970" d="M490.7026,-110.4179C498.3285,-102.5041 509.5836,-90.8243 518.8338,-81.2251"/>
<polygon fill="#191970" stroke="#191970" points="521.59,-83.4089 526.0087,-73.7795 516.5494,-78.5516 521.59,-83.4089"/>
</g>
<!-- Node15 -->
<g id="node16" class="node">
<title>Node15</title>
<polygon fill="none" stroke="#bfbfbf" points="588.835,-55.5 588.835,-73.5 637.0664,-73.5 637.0664,-55.5 588.835,-55.5"/>
<text text-anchor="middle" x="612.9507" y="-61.5" font-family="Helvetica,sans-Serif" font-size="10.00" fill="#000000">cassert</text>
</g>
<!-- Node1&#45;&gt;Node15 -->
<g id="edge18" class="edge">
<title>Node1&#45;&gt;Node15</title>
<path fill="none" stroke="#191970" d="M503.5827,-110.4179C524.9157,-101.4613 557.7386,-87.6806 581.8632,-77.552"/>
<polygon fill="#191970" stroke="#191970" points="583.4211,-80.6939 591.2866,-73.5956 580.7113,-74.2397 583.4211,-80.6939"/>
</g>
<!-- Node16 -->
<g id="node17" class="node">
<title>Node16</title>
<polygon fill="none" stroke="#bfbfbf" points="655.2241,-55.5 655.2241,-73.5 690.6772,-73.5 690.6772,-55.5 655.2241,-55.5"/>
<text text-anchor="middle" x="672.9507" y="-61.5" font-family="Helvetica,sans-Serif" font-size="10.00" fill="#000000">map</text>
</g>
<!-- Node1&#45;&gt;Node16 -->
<g id="edge19" class="edge">
<title>Node1&#45;&gt;Node16</title>
<path fill="none" stroke="#191970" d="M504.9106,-113.6547C535.0162,-105.8778 589.6531,-91.3791 645.3296,-74.0434"/>
<polygon fill="#191970" stroke="#191970" points="646.5065,-77.3424 654.9984,-71.007 644.4091,-70.664 646.5065,-77.3424"/>
</g>
<!-- Node3 -->
<g id="node4" class="node">
<title>Node3</title>
<polygon fill="none" stroke="#bfbfbf" points="703.5723,-.5 703.5723,-18.5 770.3291,-18.5 770.3291,-.5 703.5723,-.5"/>
<text text-anchor="middle" x="736.9507" y="-6.5" font-family="Helvetica,sans-Serif" font-size="10.00" fill="#000000">QDateTime</text>
</g>
<!-- Node2&#45;&gt;Node3 -->
<g id="edge3" class="edge">
<title>Node2&#45;&gt;Node3</title>
<path fill="none" stroke="#191970" d="M745.2994,-55.4179C743.99,-48.2164 742.1136,-37.8962 740.4713,-28.8632"/>
<polygon fill="#191970" stroke="#191970" points="743.8703,-27.992 738.6379,-18.7795 736.9832,-29.2443 743.8703,-27.992"/>
</g>
<!-- Node2&#45;&gt;Node4 -->
<g id="edge4" class="edge">
<title>Node2&#45;&gt;Node4</title>
<path fill="none" stroke="#191970" d="M757.8492,-55.4179C767.6306,-47.2667 782.2065,-35.1201 793.9104,-25.3669"/>
<polygon fill="#191970" stroke="#191970" points="796.3738,-27.8701 801.8153,-18.7795 791.8924,-22.4926 796.3738,-27.8701"/>
</g>
<!-- Node7 -->
<g id="node8" class="node">
<title>Node7</title>
<polygon fill="none" stroke="#bfbfbf" points="77.6108,-.5 77.6108,-18.5 130.2905,-18.5 130.2905,-.5 77.6108,-.5"/>
<text text-anchor="middle" x="103.9507" y="-6.5" font-family="Helvetica,sans-Serif" font-size="10.00" fill="#000000">QObject</text>
</g>
<!-- Node6&#45;&gt;Node7 -->
<g id="edge7" class="edge">
<title>Node6&#45;&gt;Node7</title>
<path fill="none" stroke="#191970" d="M103.9507,-55.4179C103.9507,-48.2164 103.9507,-37.8962 103.9507,-28.8632"/>
<polygon fill="#191970" stroke="#191970" points="107.4508,-28.7794 103.9507,-18.7795 100.4508,-28.7795 107.4508,-28.7794"/>
</g>
<!-- Node6&#45;&gt;Node8 -->
<g id="edge8" class="edge">
<title>Node6&#45;&gt;Node8</title>
<path fill="none" stroke="#191970" d="M91.7311,-55.4179C80.4838,-47.0584 63.5825,-34.4966 50.2992,-24.6239"/>
<polygon fill="#191970" stroke="#191970" points="52.3023,-21.7518 42.1884,-18.5956 48.1266,-27.37 52.3023,-21.7518"/>
</g>
<!-- Node6&#45;&gt;Node9 -->
<g id="edge9" class="edge">
<title>Node6&#45;&gt;Node9</title>
<path fill="none" stroke="#191970" d="M115.6749,-55.4179C126.2995,-47.1876 142.1824,-34.8839 154.8337,-25.0836"/>
<polygon fill="#191970" stroke="#191970" points="157.2096,-27.6704 162.9717,-18.7795 152.9228,-22.1365 157.2096,-27.6704"/>
</g>
<!-- Node17&#45;&gt;Node5 -->
<g id="edge21" class="edge">
<title>Node17&#45;&gt;Node5</title>
<path fill="none" stroke="#191970" d="M867.9507,-110.4179C867.9507,-103.2164 867.9507,-92.8962 867.9507,-83.8632"/>
<polygon fill="#191970" stroke="#191970" points="871.4508,-83.7794 867.9507,-73.7795 864.4508,-83.7795 871.4508,-83.7794"/>
</g>
<!-- Node18 -->
<g id="node19" class="node">
<title>Node18</title>
<polygon fill="none" stroke="#bfbfbf" points="913.0469,-55.5 913.0469,-73.5 956.8545,-73.5 956.8545,-55.5 913.0469,-55.5"/>
<text text-anchor="middle" x="934.9507" y="-61.5" font-family="Helvetica,sans-Serif" font-size="10.00" fill="#000000">queue</text>
</g>
<!-- Node17&#45;&gt;Node18 -->
<g id="edge22" class="edge">
<title>Node17&#45;&gt;Node18</title>
<path fill="none" stroke="#191970" d="M879.0144,-110.4179C888.944,-102.2667 903.7407,-90.1201 915.6219,-80.3669"/>
<polygon fill="#191970" stroke="#191970" points="918.1381,-82.8297 923.6466,-73.7795 913.6966,-77.4192 918.1381,-82.8297"/>
</g>
</g>
</svg>
