<?xml version="1.0" encoding="UTF-8" standalone="no"?>
<!DOCTYPE svg PUBLIC "-//W3C//DTD SVG 1.1//EN"
 "http://www.w3.org/Graphics/SVG/1.1/DTD/svg11.dtd">
<!-- Generated by graphviz version 2.44.1 (20200629.0846)
 -->
<!-- Title: Graphical Class Hierarchy Pages: 1 -->
<svg width="200pt" height="66pt"
 viewBox="0.00 0.00 200.00 66.00" xmlns="http://www.w3.org/2000/svg" xmlns:xlink="http://www.w3.org/1999/xlink">
<g id="graph0" class="graph" transform="scale(1 1) rotate(0) translate(4 62)">
<title>Graphical Class Hierarchy</title>
<!-- Node6 -->
<g id="node1" class="node">
<title>Node6</title>
<g id="a_node1"><a xlink:title=" ">
<polygon fill="none" stroke="#bfbfbf" points="0,-19.5 0,-38.5 55,-38.5 55,-19.5 0,-19.5"/>
<text text-anchor="middle" x="27.5" y="-26.5" font-family="Helvetica,sans-Serif" font-size="10.00">QWidget</text>
</a>
</g>
</g>
<!-- Node0 -->
<g id="node2" class="node">
<title>Node0</title>
<g id="a_node2"><a xlink:href="class_q_progress_indicator.html" target="_top" xlink:title="The QProgressIndicator class lets an application display a progress indicator to show that a lengthy ...">
<polygon fill="none" stroke="black" points="91,-38.5 91,-57.5 192,-57.5 192,-38.5 91,-38.5"/>
<text text-anchor="middle" x="141.5" y="-45.5" font-family="Helvetica,sans-Serif" font-size="10.00">QProgressIndicator</text>
</a>
</g>
</g>
<!-- Node6&#45;&gt;Node0 -->
<g id="edge1" class="edge">
<title>Node6&#45;&gt;Node0</title>
<path fill="none" stroke="midnightblue" d="M65.08,-35.2C73.32,-36.6 82.2,-38.11 90.88,-39.58"/>
<polygon fill="midnightblue" stroke="midnightblue" points="65.49,-31.72 55.04,-33.5 64.32,-38.63 65.49,-31.72"/>
</g>
<!-- Node8 -->
<g id="node3" class="node">
<title>Node8</title>
<g id="a_node3"><a xlink:href="class_tray_icon.html" target="_top" xlink:title="Handles the systemtray icon and menu.">
<polygon fill="none" stroke="black" points="114,-0.5 114,-19.5 169,-19.5 169,-0.5 114,-0.5"/>
<text text-anchor="middle" x="141.5" y="-7.5" font-family="Helvetica,sans-Serif" font-size="10.00">TrayIcon</text>
</a>
</g>
</g>
<!-- Node6&#45;&gt;Node8 -->
<g id="edge2" class="edge">
<title>Node6&#45;&gt;Node8</title>
<path fill="none" stroke="midnightblue" d="M65.07,-22.8C80.94,-20.1 99.19,-17.01 113.76,-14.54"/>
<polygon fill="midnightblue" stroke="midnightblue" points="64.32,-19.37 55.04,-24.5 65.49,-26.28 64.32,-19.37"/>
</g>
</g>
</svg>
