<?xml version="1.0" encoding="UTF-8" standalone="no"?>
<!DOCTYPE svg PUBLIC "-//W3C//DTD SVG 1.1//EN"
 "http://www.w3.org/Graphics/SVG/1.1/DTD/svg11.dtd">
<!-- Generated by graphviz version 2.44.1 (20200629.0846)
 -->
<!-- Title: Graphical Class Hierarchy Pages: 1 -->
<svg width="184pt" height="142pt"
 viewBox="0.00 0.00 184.00 142.00" xmlns="http://www.w3.org/2000/svg" xmlns:xlink="http://www.w3.org/1999/xlink">
<g id="graph0" class="graph" transform="scale(1 1) rotate(0) translate(4 138)">
<title>Graphical Class Hierarchy</title>
<!-- Node30 -->
<g id="node1" class="node">
<title>Node30</title>
<g id="a_node1"><a xlink:title=" ">
<polygon fill="none" stroke="#bfbfbf" points="0,-57.5 0,-76.5 52,-76.5 52,-57.5 0,-57.5"/>
<text text-anchor="middle" x="26" y="-64.5" font-family="Helvetica,sans-Serif" font-size="10.00">QDialog</text>
</a>
</g>
</g>
<!-- Node0 -->
<g id="node2" class="node">
<title>Node0</title>
<g id="a_node2"><a xlink:href="class_config_dialog.html" target="_top" xlink:title="The ConfigDialog handles the configuration interface.">
<polygon fill="none" stroke="black" points="95.5,-114.5 95.5,-133.5 168.5,-133.5 168.5,-114.5 95.5,-114.5"/>
<text text-anchor="middle" x="132" y="-121.5" font-family="Helvetica,sans-Serif" font-size="10.00">ConfigDialog</text>
</a>
</g>
</g>
<!-- Node30&#45;&gt;Node0 -->
<g id="edge1" class="edge">
<title>Node30&#45;&gt;Node0</title>
<path fill="none" stroke="midnightblue" d="M49.62,-82.15C60.92,-89.45 74.95,-98.09 88,-105 94.2,-108.28 101.09,-111.5 107.51,-114.33"/>
<polygon fill="midnightblue" stroke="midnightblue" points="51.49,-79.2 41.21,-76.65 47.66,-85.05 51.49,-79.2"/>
</g>
<!-- Node32 -->
<g id="node3" class="node">
<title>Node32</title>
<g id="a_node3"><a xlink:href="class_keygen_dialog.html" target="_top" xlink:title="Handles GPG keypair generation.">
<polygon fill="none" stroke="black" points="93.5,-76.5 93.5,-95.5 170.5,-95.5 170.5,-76.5 93.5,-76.5"/>
<text text-anchor="middle" x="132" y="-83.5" font-family="Helvetica,sans-Serif" font-size="10.00">KeygenDialog</text>
</a>
</g>
</g>
<!-- Node30&#45;&gt;Node32 -->
<g id="edge2" class="edge">
<title>Node30&#45;&gt;Node32</title>
<path fill="none" stroke="midnightblue" d="M62.24,-73.44C72.29,-75.27 83.28,-77.28 93.46,-79.14"/>
<polygon fill="midnightblue" stroke="midnightblue" points="62.64,-69.95 52.18,-71.6 61.38,-76.84 62.64,-69.95"/>
</g>
<!-- Node33 -->
<g id="node4" class="node">
<title>Node33</title>
<g id="a_node4"><a xlink:href="class_password_dialog.html" target="_top" xlink:title="PasswordDialog Handles the inserting and editing of passwords.">
<polygon fill="none" stroke="black" points="88,-38.5 88,-57.5 176,-57.5 176,-38.5 88,-38.5"/>
<text text-anchor="middle" x="132" y="-45.5" font-family="Helvetica,sans-Serif" font-size="10.00">PasswordDialog</text>
</a>
</g>
</g>
<!-- Node30&#45;&gt;Node33 -->
<g id="edge3" class="edge">
<title>Node30&#45;&gt;Node33</title>
<path fill="none" stroke="midnightblue" d="M62.19,-60.57C70.41,-59.07 79.26,-57.45 87.79,-55.89"/>
<polygon fill="midnightblue" stroke="midnightblue" points="61.38,-57.16 52.18,-62.4 62.64,-64.05 61.38,-57.16"/>
</g>
<!-- Node34 -->
<g id="node5" class="node">
<title>Node34</title>
<g id="a_node5"><a xlink:href="class_users_dialog.html" target="_top" xlink:title="Handles listing and editing of GPG users.">
<polygon fill="none" stroke="black" points="96.5,-0.5 96.5,-19.5 167.5,-19.5 167.5,-0.5 96.5,-0.5"/>
<text text-anchor="middle" x="132" y="-7.5" font-family="Helvetica,sans-Serif" font-size="10.00">UsersDialog</text>
</a>
</g>
</g>
<!-- Node30&#45;&gt;Node34 -->
<g id="edge4" class="edge">
<title>Node30&#45;&gt;Node34</title>
<path fill="none" stroke="midnightblue" d="M49.62,-51.85C60.92,-44.55 74.95,-35.91 88,-29 94.2,-25.72 101.09,-22.5 107.51,-19.67"/>
<polygon fill="midnightblue" stroke="midnightblue" points="47.66,-48.95 41.21,-57.35 51.49,-54.8 47.66,-48.95"/>
</g>
</g>
</svg>
