<?xml version="1.0" encoding="UTF-8" standalone="no"?>
<!DOCTYPE svg PUBLIC "-//W3C//DTD SVG 1.1//EN"
 "http://www.w3.org/Graphics/SVG/1.1/DTD/svg11.dtd">
<!-- Generated by graphviz version 2.40.1 (20161225.0304)
 -->
<!-- Title: Graphical Class Hierarchy Pages: 1 -->
<svg width="256pt" height="101pt"
 viewBox="0.00 0.00 256.38 101.00" xmlns="http://www.w3.org/2000/svg" xmlns:xlink="http://www.w3.org/1999/xlink">
<g id="graph0" class="graph" transform="scale(1 1) rotate(0) translate(4 97)">
<title>Graphical Class Hierarchy</title>
<!-- Node13 -->
<g id="node1" class="node">
<title>Node13</title>
<polygon fill="none" stroke="#bfbfbf" points="0,-37.5 0,-55.5 52.6797,-55.5 52.6797,-37.5 0,-37.5"/>
<text text-anchor="middle" x="26.3398" y="-43.5" font-family="Helvetica,sans-Serif" font-size="10.00" fill="#000000">QObject</text>
</g>
<!-- Node0 -->
<g id="node2" class="node">
<title>Node0</title>
<g id="a_node2"><a xlink:href="class_executor.html" target="_top" xlink:title="Executes external commands for handleing password, git and other data. ">
<polygon fill="none" stroke="#000000" points="88.6797,-74.5 88.6797,-92.5 144.1426,-92.5 144.1426,-74.5 88.6797,-74.5"/>
<text text-anchor="middle" x="116.4111" y="-80.5" font-family="Helvetica,sans-Serif" font-size="10.00" fill="#000000">Executor</text>
</a>
</g>
</g>
<!-- Node13&#45;&gt;Node0 -->
<g id="edge1" class="edge">
<title>Node13&#45;&gt;Node0</title>
<path fill="none" stroke="#191970" d="M57.8937,-59.4619C69.9492,-64.4141 83.4245,-69.9496 94.4024,-74.4591"/>
<polygon fill="#191970" stroke="#191970" points="59.1846,-56.2084 48.6047,-55.6461 56.5247,-62.6834 59.1846,-56.2084"/>
</g>
<!-- Node15 -->
<g id="node3" class="node">
<title>Node15</title>
<g id="a_node3"><a xlink:href="class_pass.html" target="_top" xlink:title="Acts as an abstraction for pass or pass imitation. ">
<polygon fill="none" stroke="#000000" points="97.2954,-37.5 97.2954,-55.5 135.5269,-55.5 135.5269,-37.5 97.2954,-37.5"/>
<text text-anchor="middle" x="116.4111" y="-43.5" font-family="Helvetica,sans-Serif" font-size="10.00" fill="#000000">Pass</text>
</a>
</g>
</g>
<!-- Node13&#45;&gt;Node15 -->
<g id="edge2" class="edge">
<title>Node13&#45;&gt;Node15</title>
<path fill="none" stroke="#191970" d="M62.9152,-46.5C74.6676,-46.5 87.2174,-46.5 97.206,-46.5"/>
<polygon fill="#191970" stroke="#191970" points="62.8771,-43.0001 52.877,-46.5 62.877,-50.0001 62.8771,-43.0001"/>
</g>
<!-- Node18 -->
<g id="node6" class="node">
<title>Node18</title>
<g id="a_node6"><a xlink:href="classtst__util.html" target="_top" xlink:title="The tst_util class is our first unit test. ">
<polygon fill="none" stroke="#000000" points="93.9604,-.5 93.9604,-18.5 138.8618,-18.5 138.8618,-.5 93.9604,-.5"/>
<text text-anchor="middle" x="116.4111" y="-6.5" font-family="Helvetica,sans-Serif" font-size="10.00" fill="#000000">tst_util</text>
</a>
</g>
</g>
<!-- Node13&#45;&gt;Node18 -->
<g id="edge5" class="edge">
<title>Node13&#45;&gt;Node18</title>
<path fill="none" stroke="#191970" d="M57.8937,-33.5381C69.9492,-28.5859 83.4245,-23.0504 94.4024,-18.5409"/>
<polygon fill="#191970" stroke="#191970" points="56.5247,-30.3166 48.6047,-37.3539 59.1846,-36.7916 56.5247,-30.3166"/>
</g>
<!-- Node16 -->
<g id="node4" class="node">
<title>Node16</title>
<g id="a_node4"><a xlink:href="class_imitate_pass.html" target="_top" xlink:title="Imitates pass features when pass is not enabled or available. ">
<polygon fill="none" stroke="#000000" points="180.1426,-55.5 180.1426,-73.5 248.3838,-73.5 248.3838,-55.5 180.1426,-55.5"/>
<text text-anchor="middle" x="214.2632" y="-61.5" font-family="Helvetica,sans-Serif" font-size="10.00" fill="#000000">ImitatePass</text>
</a>
</g>
</g>
<!-- Node15&#45;&gt;Node16 -->
<g id="edge3" class="edge">
<title>Node15&#45;&gt;Node16</title>
<path fill="none" stroke="#191970" d="M145.8731,-51.9196C156.5955,-53.892 168.808,-56.1385 179.9168,-58.182"/>
<polygon fill="#191970" stroke="#191970" points="146.2118,-48.4232 135.7435,-50.0562 144.9453,-55.3077 146.2118,-48.4232"/>
</g>
<!-- Node17 -->
<g id="node5" class="node">
<title>Node17</title>
<g id="a_node5"><a xlink:href="class_real_pass.html" target="_top" xlink:title="Wrapper for executing pass to handle the password&#45;store. ">
<polygon fill="none" stroke="#000000" points="184.8643,-18.5 184.8643,-36.5 243.6621,-36.5 243.6621,-18.5 184.8643,-18.5"/>
<text text-anchor="middle" x="214.2632" y="-24.5" font-family="Helvetica,sans-Serif" font-size="10.00" fill="#000000">RealPass</text>
</a>
</g>
</g>
<!-- Node15&#45;&gt;Node17 -->
<g id="edge4" class="edge">
<title>Node15&#45;&gt;Node17</title>
<path fill="none" stroke="#191970" d="M145.8998,-40.7742C158.1343,-38.3986 172.3052,-35.647 184.5619,-33.2671"/>
<polygon fill="#191970" stroke="#191970" points="144.893,-37.4042 135.7435,-42.7462 146.2274,-44.2759 144.893,-37.4042"/>
</g>
</g>
</svg>
