<?xml version="1.0" encoding="UTF-8" standalone="no"?>
<!DOCTYPE svg PUBLIC "-//W3C//DTD SVG 1.1//EN"
 "http://www.w3.org/Graphics/SVG/1.1/DTD/svg11.dtd">
<!-- Generated by graphviz version 2.43.0 (0)
 -->
<!-- Title: Graphical Class Hierarchy Pages: 1 -->
<svg width="201pt" height="64pt"
 viewBox="0.00 0.00 201.05 64.00" xmlns="http://www.w3.org/2000/svg" xmlns:xlink="http://www.w3.org/1999/xlink">
<g id="graph0" class="graph" transform="scale(1 1) rotate(0) translate(4 60)">
<title>Graphical Class Hierarchy</title>
<!-- Node6 -->
<g id="node1" class="node">
<title>Node6</title>
<g id="a_node1"><a xlink:title=" ">
<polygon fill="none" stroke="#bfbfbf" points="0,-18.5 0,-36.5 54.9,-36.5 54.9,-18.5 0,-18.5"/>
<text text-anchor="middle" x="27.45" y="-24.5" font-family="Helvetica,sans-Serif" font-size="10.00">QWidget</text>
</a>
</g>
</g>
<!-- Node0 -->
<g id="node2" class="node">
<title>Node0</title>
<g id="a_node2"><a xlink:href="class_q_progress_indicator.html" target="_top" xlink:title="The QProgressIndicator class lets an application display a progress indicator to show that a lengthy ...">
<polygon fill="none" stroke="black" points="90.9,-37.5 90.9,-55.5 193.05,-55.5 193.05,-37.5 90.9,-37.5"/>
<text text-anchor="middle" x="141.98" y="-43.5" font-family="Helvetica,sans-Serif" font-size="10.00">QProgressIndicator</text>
</a>
</g>
</g>
<!-- Node6&#45;&gt;Node0 -->
<g id="edge1" class="edge">
<title>Node6&#45;&gt;Node0</title>
<path fill="none" stroke="midnightblue" d="M65.07,-33.68C73.25,-35.06 82.05,-36.55 90.67,-38.01"/>
<polygon fill="midnightblue" stroke="midnightblue" points="65.56,-30.22 55.12,-32 64.4,-37.12 65.56,-30.22"/>
</g>
<!-- Node8 -->
<g id="node3" class="node">
<title>Node8</title>
<g id="a_node3"><a xlink:href="class_tray_icon.html" target="_top" xlink:title="Handles the systemtray icon and menu.">
<polygon fill="none" stroke="black" points="114.71,-0.5 114.71,-18.5 169.24,-18.5 169.24,-0.5 114.71,-0.5"/>
<text text-anchor="middle" x="141.98" y="-6.5" font-family="Helvetica,sans-Serif" font-size="10.00">TrayIcon</text>
</a>
</g>
</g>
<!-- Node6&#45;&gt;Node8 -->
<g id="edge2" class="edge">
<title>Node6&#45;&gt;Node8</title>
<path fill="none" stroke="midnightblue" d="M65.26,-21.61C81.33,-19.04 99.82,-16.08 114.5,-13.74"/>
<polygon fill="midnightblue" stroke="midnightblue" points="64.44,-18.2 55.12,-23.23 65.54,-25.11 64.44,-18.2"/>
</g>
</g>
</svg>
