<?xml version="1.0" encoding="UTF-8" standalone="no"?>
<!DOCTYPE svg PUBLIC "-//W3C//DTD SVG 1.1//EN"
 "http://www.w3.org/Graphics/SVG/1.1/DTD/svg11.dtd">
<!-- Generated by graphviz version 2.38.0 (20140413.2041)
 -->
<!-- Title: Graphical Class Hierarchy Pages: 1 -->
<svg width="256pt" height="101pt"
 viewBox="0.00 0.00 256.38 101.00" xmlns="http://www.w3.org/2000/svg" xmlns:xlink="http://www.w3.org/1999/xlink">
<g id="graph0" class="graph" transform="scale(1 1) rotate(0) translate(4 97)">
<title>Graphical Class Hierarchy</title>
<!-- Node37 -->
<g id="node1" class="node"><title>Node37</title>
<polygon fill="none" stroke="#bfbfbf" points="0,-37.5 0,-55.5 52.6797,-55.5 52.6797,-37.5 0,-37.5"/>
<text text-anchor="middle" x="26.3398" y="-43.5" font-family="Helvetica,sans-Serif" font-size="10.00">QObject</text>
</g>
<!-- Node0 -->
<g id="node2" class="node"><title>Node0</title>
<g id="a_node2"><a xlink:href="class_executor.html" target="_top" xlink:title="Executes external commands for handleing password, git and other data. ">
<polygon fill="none" stroke="black" points="88.6797,-74.5 88.6797,-92.5 144.143,-92.5 144.143,-74.5 88.6797,-74.5"/>
<text text-anchor="middle" x="116.411" y="-80.5" font-family="Helvetica,sans-Serif" font-size="10.00">Executor</text>
</a>
</g>
</g>
<!-- Node37&#45;&gt;Node0 -->
<g id="edge1" class="edge"><title>Node37&#45;&gt;Node0</title>
<path fill="none" stroke="midnightblue" d="M58.5436,-59.6091C70.2416,-64.5236 83.2632,-69.9942 93.8911,-74.4591"/>
<polygon fill="midnightblue" stroke="midnightblue" points="59.6854,-56.2925 49.1103,-55.6461 56.9741,-62.7462 59.6854,-56.2925"/>
</g>
<!-- Node39 -->
<g id="node3" class="node"><title>Node39</title>
<g id="a_node3"><a xlink:href="class_pass.html" target="_top" xlink:title="Acts as an abstraction for pass or pass imitation. ">
<polygon fill="none" stroke="black" points="97.2954,-37.5 97.2954,-55.5 135.527,-55.5 135.527,-37.5 97.2954,-37.5"/>
<text text-anchor="middle" x="116.411" y="-43.5" font-family="Helvetica,sans-Serif" font-size="10.00">Pass</text>
</a>
</g>
</g>
<!-- Node37&#45;&gt;Node39 -->
<g id="edge2" class="edge"><title>Node37&#45;&gt;Node39</title>
<path fill="none" stroke="midnightblue" d="M62.8794,-46.5C74.6835,-46.5 87.3343,-46.5 97.2628,-46.5"/>
<polygon fill="midnightblue" stroke="midnightblue" points="62.8137,-43.0001 52.8137,-46.5 62.8137,-50.0001 62.8137,-43.0001"/>
</g>
<!-- Node42 -->
<g id="node6" class="node"><title>Node42</title>
<g id="a_node6"><a xlink:href="classtst__util.html" target="_top" xlink:title="tst_util">
<polygon fill="none" stroke="black" points="93.9604,-0.5 93.9604,-18.5 138.862,-18.5 138.862,-0.5 93.9604,-0.5"/>
<text text-anchor="middle" x="116.411" y="-6.5" font-family="Helvetica,sans-Serif" font-size="10.00">tst_util</text>
</a>
</g>
</g>
<!-- Node37&#45;&gt;Node42 -->
<g id="edge5" class="edge"><title>Node37&#45;&gt;Node42</title>
<path fill="none" stroke="midnightblue" d="M58.5436,-33.3909C70.2416,-28.4764 83.2632,-23.0058 93.8911,-18.5409"/>
<polygon fill="midnightblue" stroke="midnightblue" points="56.9741,-30.2538 49.1103,-37.3539 59.6854,-36.7075 56.9741,-30.2538"/>
</g>
<!-- Node40 -->
<g id="node4" class="node"><title>Node40</title>
<g id="a_node4"><a xlink:href="class_imitate_pass.html" target="_top" xlink:title="Imitates pass features when pass is not enabled or available. ">
<polygon fill="none" stroke="black" points="180.143,-55.5 180.143,-73.5 248.384,-73.5 248.384,-55.5 180.143,-55.5"/>
<text text-anchor="middle" x="214.263" y="-61.5" font-family="Helvetica,sans-Serif" font-size="10.00">ImitatePass</text>
</a>
</g>
</g>
<!-- Node39&#45;&gt;Node40 -->
<g id="edge3" class="edge"><title>Node39&#45;&gt;Node40</title>
<path fill="none" stroke="midnightblue" d="M145.995,-51.8678C156.717,-53.8812 168.989,-56.1859 180.092,-58.2708"/>
<polygon fill="midnightblue" stroke="midnightblue" points="146.367,-48.3764 135.892,-49.9706 145.075,-55.2562 146.367,-48.3764"/>
</g>
<!-- Node41 -->
<g id="node5" class="node"><title>Node41</title>
<g id="a_node5"><a xlink:href="class_real_pass.html" target="_top" xlink:title="Wrapper for executing pass to handle the password&#45;store. ">
<polygon fill="none" stroke="black" points="184.864,-18.5 184.864,-36.5 243.662,-36.5 243.662,-18.5 184.864,-18.5"/>
<text text-anchor="middle" x="214.263" y="-24.5" font-family="Helvetica,sans-Serif" font-size="10.00">RealPass</text>
</a>
</g>
</g>
<!-- Node39&#45;&gt;Node41 -->
<g id="edge4" class="edge"><title>Node39&#45;&gt;Node41</title>
<path fill="none" stroke="midnightblue" d="M146.004,-40.8322C158.215,-38.4118 172.437,-35.5926 184.65,-33.1717"/>
<polygon fill="midnightblue" stroke="midnightblue" points="145.021,-37.4589 135.892,-42.8366 146.382,-44.3253 145.021,-37.4589"/>
</g>
</g>
</svg>
