<?xml version="1.0" encoding="UTF-8" standalone="no"?>
<!DOCTYPE svg PUBLIC "-//W3C//DTD SVG 1.1//EN"
 "http://www.w3.org/Graphics/SVG/1.1/DTD/svg11.dtd">
<!-- Generated by graphviz version 2.43.0 (0)
 -->
<!-- Title: src/keygendialog.cpp Pages: 1 -->
<svg width="573pt" height="192pt"
 viewBox="0.00 0.00 572.86 192.00" xmlns="http://www.w3.org/2000/svg" xmlns:xlink="http://www.w3.org/1999/xlink">
<g id="graph0" class="graph" transform="scale(1 1) rotate(0) translate(4 188)">
<title>src/keygendialog.cpp</title>
<!-- Node1 -->
<g id="node1" class="node">
<title>Node1</title>
<g id="a_node1"><a xlink:title=" ">
<polygon fill="#bfbfbf" stroke="black" points="243.09,-165.5 243.09,-183.5 353.04,-183.5 353.04,-165.5 243.09,-165.5"/>
<text text-anchor="middle" x="298.06" y="-171.5" font-family="Helvetica,sans-Serif" font-size="10.00">src/keygendialog.cpp</text>
</a>
</g>
</g>
<!-- Node2 -->
<g id="node2" class="node">
<title>Node2</title>
<g id="a_node2"><a xlink:href="keygendialog_8h.html" target="_top" xlink:title=" ">
<polygon fill="none" stroke="black" points="21.43,-110.5 21.43,-128.5 104.7,-128.5 104.7,-110.5 21.43,-110.5"/>
<text text-anchor="middle" x="63.06" y="-116.5" font-family="Helvetica,sans-Serif" font-size="10.00">keygendialog.h</text>
</a>
</g>
</g>
<!-- Node1&#45;&gt;Node2 -->
<g id="edge1" class="edge">
<title>Node1&#45;&gt;Node2</title>
<path fill="none" stroke="midnightblue" d="M262.37,-165.45C221.19,-156.16 153.39,-140.87 108.48,-130.74"/>
<polygon fill="midnightblue" stroke="midnightblue" points="109.23,-127.32 98.71,-128.54 107.69,-134.15 109.23,-127.32"/>
</g>
<!-- Node4 -->
<g id="node4" class="node">
<title>Node4</title>
<g id="a_node4"><a xlink:href="configdialog_8h.html" target="_top" xlink:title=" ">
<polygon fill="none" stroke="black" points="140.21,-110.5 140.21,-128.5 217.92,-128.5 217.92,-110.5 140.21,-110.5"/>
<text text-anchor="middle" x="179.06" y="-116.5" font-family="Helvetica,sans-Serif" font-size="10.00">configdialog.h</text>
</a>
</g>
</g>
<!-- Node1&#45;&gt;Node4 -->
<g id="edge3" class="edge">
<title>Node1&#45;&gt;Node4</title>
<path fill="none" stroke="midnightblue" d="M279.99,-165.45C260.51,-156.77 229.26,-142.86 206.69,-132.8"/>
<polygon fill="midnightblue" stroke="midnightblue" points="207.87,-129.5 197.31,-128.63 205.02,-135.89 207.87,-129.5"/>
</g>
<!-- Node8 -->
<g id="node8" class="node">
<title>Node8</title>
<g id="a_node8"><a xlink:href="qprogressindicator_8h.html" target="_top" xlink:title=" ">
<polygon fill="none" stroke="black" points="245.03,-110.5 245.03,-128.5 351.09,-128.5 351.09,-110.5 245.03,-110.5"/>
<text text-anchor="middle" x="298.06" y="-116.5" font-family="Helvetica,sans-Serif" font-size="10.00">qprogressindicator.h</text>
</a>
</g>
</g>
<!-- Node1&#45;&gt;Node8 -->
<g id="edge8" class="edge">
<title>Node1&#45;&gt;Node8</title>
<path fill="none" stroke="midnightblue" d="M298.06,-165.22C298.06,-158.18 298.06,-147.81 298.06,-138.83"/>
<polygon fill="midnightblue" stroke="midnightblue" points="301.56,-138.55 298.06,-128.55 294.56,-138.55 301.56,-138.55"/>
</g>
<!-- Node11 -->
<g id="node11" class="node">
<title>Node11</title>
<g id="a_node11"><a xlink:title=" ">
<polygon fill="none" stroke="#bfbfbf" points="368.75,-110.5 368.75,-128.5 465.37,-128.5 465.37,-110.5 368.75,-110.5"/>
<text text-anchor="middle" x="417.06" y="-116.5" font-family="Helvetica,sans-Serif" font-size="10.00">ui_keygendialog.h</text>
</a>
</g>
</g>
<!-- Node1&#45;&gt;Node11 -->
<g id="edge11" class="edge">
<title>Node1&#45;&gt;Node11</title>
<path fill="none" stroke="midnightblue" d="M316.14,-165.45C335.62,-156.77 366.87,-142.86 389.44,-132.8"/>
<polygon fill="midnightblue" stroke="midnightblue" points="391.11,-135.89 398.82,-128.63 388.26,-129.5 391.11,-135.89"/>
</g>
<!-- Node12 -->
<g id="node12" class="node">
<title>Node12</title>
<g id="a_node12"><a xlink:title=" ">
<polygon fill="none" stroke="#bfbfbf" points="483.27,-110.5 483.27,-128.5 564.86,-128.5 564.86,-110.5 483.27,-110.5"/>
<text text-anchor="middle" x="524.06" y="-116.5" font-family="Helvetica,sans-Serif" font-size="10.00">QMessageBox</text>
</a>
</g>
</g>
<!-- Node1&#45;&gt;Node12 -->
<g id="edge12" class="edge">
<title>Node1&#45;&gt;Node12</title>
<path fill="none" stroke="midnightblue" d="M332.39,-165.45C371.83,-156.2 436.65,-141 479.84,-130.87"/>
<polygon fill="midnightblue" stroke="midnightblue" points="480.85,-134.23 489.79,-128.54 479.25,-127.41 480.85,-134.23"/>
</g>
<!-- Node3 -->
<g id="node3" class="node">
<title>Node3</title>
<g id="a_node3"><a xlink:title=" ">
<polygon fill="none" stroke="#bfbfbf" points="0,-55.5 0,-73.5 52.13,-73.5 52.13,-55.5 0,-55.5"/>
<text text-anchor="middle" x="26.06" y="-61.5" font-family="Helvetica,sans-Serif" font-size="10.00">QDialog</text>
</a>
</g>
</g>
<!-- Node2&#45;&gt;Node3 -->
<g id="edge2" class="edge">
<title>Node2&#45;&gt;Node3</title>
<path fill="none" stroke="midnightblue" d="M57.28,-110.22C51.98,-102.63 43.99,-91.18 37.42,-81.76"/>
<polygon fill="midnightblue" stroke="midnightblue" points="40.28,-79.75 31.68,-73.55 34.54,-83.75 40.28,-79.75"/>
</g>
<!-- Node4&#45;&gt;Node3 -->
<g id="edge7" class="edge">
<title>Node4&#45;&gt;Node3</title>
<path fill="none" stroke="midnightblue" d="M155.83,-110.45C130.1,-101.54 88.43,-87.1 59.27,-77"/>
<polygon fill="midnightblue" stroke="midnightblue" points="60.11,-73.59 49.52,-73.63 57.82,-80.21 60.11,-73.59"/>
</g>
<!-- Node5 -->
<g id="node5" class="node">
<title>Node5</title>
<g id="a_node5"><a xlink:href="enums_8h.html" target="_top" xlink:title=" ">
<polygon fill="none" stroke="black" points="69.89,-55.5 69.89,-73.5 124.24,-73.5 124.24,-55.5 69.89,-55.5"/>
<text text-anchor="middle" x="97.06" y="-61.5" font-family="Helvetica,sans-Serif" font-size="10.00">enums.h</text>
</a>
</g>
</g>
<!-- Node4&#45;&gt;Node5 -->
<g id="edge4" class="edge">
<title>Node4&#45;&gt;Node5</title>
<path fill="none" stroke="midnightblue" d="M166.61,-110.45C153.85,-102.2 133.76,-89.22 118.44,-79.32"/>
<polygon fill="midnightblue" stroke="midnightblue" points="119.93,-76.11 109.64,-73.63 116.13,-81.99 119.93,-76.11"/>
</g>
<!-- Node6 -->
<g id="node6" class="node">
<title>Node6</title>
<g id="a_node6"><a xlink:href="passwordconfiguration_8h.html" target="_top" xlink:title=" ">
<polygon fill="none" stroke="black" points="141.86,-55.5 141.86,-73.5 266.26,-73.5 266.26,-55.5 141.86,-55.5"/>
<text text-anchor="middle" x="204.06" y="-61.5" font-family="Helvetica,sans-Serif" font-size="10.00">passwordconfiguration.h</text>
</a>
</g>
</g>
<!-- Node4&#45;&gt;Node6 -->
<g id="edge5" class="edge">
<title>Node4&#45;&gt;Node6</title>
<path fill="none" stroke="midnightblue" d="M182.97,-110.22C186.44,-102.86 191.62,-91.88 195.98,-82.64"/>
<polygon fill="midnightblue" stroke="midnightblue" points="199.17,-84.09 200.27,-73.55 192.84,-81.1 199.17,-84.09"/>
</g>
<!-- Node7 -->
<g id="node7" class="node">
<title>Node7</title>
<g id="a_node7"><a xlink:title=" ">
<polygon fill="none" stroke="#bfbfbf" points="179.11,-0.5 179.11,-18.5 229.01,-18.5 229.01,-0.5 179.11,-0.5"/>
<text text-anchor="middle" x="204.06" y="-6.5" font-family="Helvetica,sans-Serif" font-size="10.00">QString</text>
</a>
</g>
</g>
<!-- Node6&#45;&gt;Node7 -->
<g id="edge6" class="edge">
<title>Node6&#45;&gt;Node7</title>
<path fill="none" stroke="midnightblue" d="M204.06,-55.22C204.06,-48.18 204.06,-37.81 204.06,-28.83"/>
<polygon fill="midnightblue" stroke="midnightblue" points="207.56,-28.55 204.06,-18.55 200.56,-28.55 207.56,-28.55"/>
</g>
<!-- Node9 -->
<g id="node9" class="node">
<title>Node9</title>
<g id="a_node9"><a xlink:title=" ">
<polygon fill="none" stroke="#bfbfbf" points="284.23,-55.5 284.23,-73.5 331.9,-73.5 331.9,-55.5 284.23,-55.5"/>
<text text-anchor="middle" x="308.06" y="-61.5" font-family="Helvetica,sans-Serif" font-size="10.00">QColor</text>
</a>
</g>
</g>
<!-- Node8&#45;&gt;Node9 -->
<g id="edge9" class="edge">
<title>Node8&#45;&gt;Node9</title>
<path fill="none" stroke="midnightblue" d="M299.63,-110.22C300.97,-103.1 302.96,-92.58 304.66,-83.53"/>
<polygon fill="midnightblue" stroke="midnightblue" points="308.13,-84.03 306.55,-73.55 301.25,-82.73 308.13,-84.03"/>
</g>
<!-- Node10 -->
<g id="node10" class="node">
<title>Node10</title>
<g id="a_node10"><a xlink:title=" ">
<polygon fill="none" stroke="#bfbfbf" points="349.61,-55.5 349.61,-73.5 404.51,-73.5 404.51,-55.5 349.61,-55.5"/>
<text text-anchor="middle" x="377.06" y="-61.5" font-family="Helvetica,sans-Serif" font-size="10.00">QWidget</text>
</a>
</g>
</g>
<!-- Node8&#45;&gt;Node10 -->
<g id="edge10" class="edge">
<title>Node8&#45;&gt;Node10</title>
<path fill="none" stroke="midnightblue" d="M310.06,-110.45C322.36,-102.2 341.71,-89.22 356.47,-79.32"/>
<polygon fill="midnightblue" stroke="midnightblue" points="358.6,-82.1 364.95,-73.63 354.7,-76.29 358.6,-82.1"/>
</g>
</g>
</svg>
