<?xml version="1.0" encoding="UTF-8" standalone="no"?>
<!DOCTYPE svg PUBLIC "-//W3C//DTD SVG 1.1//EN"
 "http://www.w3.org/Graphics/SVG/1.1/DTD/svg11.dtd">
<!-- Generated by graphviz version 2.40.1 (20161225.0304)
 -->
<!-- Title: src/keygendialog.h Pages: 1 -->
<svg width="2128pt" height="467pt"
 viewBox="0.00 0.00 2127.73 467.00" xmlns="http://www.w3.org/2000/svg" xmlns:xlink="http://www.w3.org/1999/xlink">
<g id="graph0" class="graph" transform="scale(1 1) rotate(0) translate(4 463)">
<title>src/keygendialog.h</title>
<!-- Node0 -->
<g id="node1" class="node">
<title>Node0</title>
<polygon fill="#bfbfbf" stroke="#000000" points="547.6865,-440.5 547.6865,-458.5 647.0703,-458.5 647.0703,-440.5 547.6865,-440.5"/>
<text text-anchor="middle" x="597.3784" y="-446.5" font-family="Helvetica,sans-Serif" font-size="10.00" fill="#000000">src/keygendialog.h</text>
</g>
<!-- Node1 -->
<g id="node2" class="node">
<title>Node1</title>
<g id="a_node2"><a xlink:href="configdialog_8h.html" target="_top" xlink:title="configdialog.h">
<polygon fill="none" stroke="#000000" points="558.5215,-385.5 558.5215,-403.5 636.2354,-403.5 636.2354,-385.5 558.5215,-385.5"/>
<text text-anchor="middle" x="597.3784" y="-391.5" font-family="Helvetica,sans-Serif" font-size="10.00" fill="#000000">configdialog.h</text>
</a>
</g>
</g>
<!-- Node0&#45;&gt;Node1 -->
<g id="edge1" class="edge">
<title>Node0&#45;&gt;Node1</title>
<path fill="none" stroke="#191970" d="M597.3784,-440.4179C597.3784,-433.2164 597.3784,-422.8962 597.3784,-413.8632"/>
<polygon fill="#191970" stroke="#191970" points="600.8785,-413.7794 597.3784,-403.7795 593.8785,-413.7795 600.8785,-413.7794"/>
</g>
<!-- Node50 -->
<g id="node51" class="node">
<title>Node50</title>
<polygon fill="none" stroke="#bfbfbf" points="347.9204,-330.5 347.9204,-348.5 422.8364,-348.5 422.8364,-330.5 347.9204,-330.5"/>
<text text-anchor="middle" x="385.3784" y="-336.5" font-family="Helvetica,sans-Serif" font-size="10.00" fill="#000000">QCloseEvent</text>
</g>
<!-- Node0&#45;&gt;Node50 -->
<g id="edge77" class="edge">
<title>Node0&#45;&gt;Node50</title>
<path fill="none" stroke="#191970" d="M580.0296,-440.4982C542.9932,-421.2813 455.9882,-376.1372 411.934,-353.2788"/>
<polygon fill="#191970" stroke="#191970" points="413.4553,-350.1251 402.967,-348.6261 410.2313,-356.3385 413.4553,-350.1251"/>
</g>
<!-- Node51 -->
<g id="node52" class="node">
<title>Node51</title>
<polygon fill="none" stroke="#bfbfbf" points="741.3145,-330.5 741.3145,-348.5 793.4424,-348.5 793.4424,-330.5 741.3145,-330.5"/>
<text text-anchor="middle" x="767.3784" y="-336.5" font-family="Helvetica,sans-Serif" font-size="10.00" fill="#000000">QDialog</text>
</g>
<!-- Node0&#45;&gt;Node51 -->
<g id="edge78" class="edge">
<title>Node0&#45;&gt;Node51</title>
<path fill="none" stroke="#191970" d="M611.2902,-440.4982C640.5533,-421.5633 708.7183,-377.4566 744.5066,-354.2994"/>
<polygon fill="#191970" stroke="#191970" points="746.7801,-356.9972 753.2744,-348.6261 742.9773,-351.1202 746.7801,-356.9972"/>
</g>
<!-- Node2 -->
<g id="node3" class="node">
<title>Node2</title>
<g id="a_node3"><a xlink:href="mainwindow_8h.html" target="_top" xlink:title="mainwindow.h">
<polygon fill="none" stroke="#000000" points="557.9697,-330.5 557.9697,-348.5 636.7871,-348.5 636.7871,-330.5 557.9697,-330.5"/>
<text text-anchor="middle" x="597.3784" y="-336.5" font-family="Helvetica,sans-Serif" font-size="10.00" fill="#000000">mainwindow.h</text>
</a>
</g>
</g>
<!-- Node1&#45;&gt;Node2 -->
<g id="edge2" class="edge">
<title>Node1&#45;&gt;Node2</title>
<path fill="none" stroke="#191970" d="M597.3784,-385.4179C597.3784,-378.2164 597.3784,-367.8962 597.3784,-358.8632"/>
<polygon fill="#191970" stroke="#191970" points="600.8785,-358.7794 597.3784,-348.7795 593.8785,-358.7795 600.8785,-358.7794"/>
</g>
<!-- Node1&#45;&gt;Node50 -->
<g id="edge73" class="edge">
<title>Node1&#45;&gt;Node50</title>
<path fill="none" stroke="#191970" d="M562.3709,-385.4179C526.128,-376.0152 469.3926,-361.2961 429.9639,-351.067"/>
<polygon fill="#191970" stroke="#191970" points="430.6441,-347.6276 420.0856,-348.5042 428.8862,-354.4033 430.6441,-347.6276"/>
</g>
<!-- Node1&#45;&gt;Node51 -->
<g id="edge74" class="edge">
<title>Node1&#45;&gt;Node51</title>
<path fill="none" stroke="#191970" d="M625.4505,-385.4179C654.4684,-376.0297 699.8685,-361.3414 731.4798,-351.1143"/>
<polygon fill="#191970" stroke="#191970" points="732.7833,-354.3712 741.2204,-347.9629 730.6286,-347.7111 732.7833,-354.3712"/>
</g>
<!-- Node52 -->
<g id="node53" class="node">
<title>Node52</title>
<polygon fill="none" stroke="#bfbfbf" points="655.2578,-330.5 655.2578,-348.5 723.499,-348.5 723.499,-330.5 655.2578,-330.5"/>
<text text-anchor="middle" x="689.3784" y="-336.5" font-family="Helvetica,sans-Serif" font-size="10.00" fill="#000000">QFileDialog</text>
</g>
<!-- Node1&#45;&gt;Node52 -->
<g id="edge75" class="edge">
<title>Node1&#45;&gt;Node52</title>
<path fill="none" stroke="#191970" d="M612.5703,-385.4179C626.953,-376.8195 648.7723,-363.7754 665.4845,-353.7844"/>
<polygon fill="#191970" stroke="#191970" points="667.3767,-356.731 674.1639,-348.5956 663.7848,-350.7228 667.3767,-356.731"/>
</g>
<!-- Node53 -->
<g id="node54" class="node">
<title>Node53</title>
<polygon fill="none" stroke="#bfbfbf" points="441.2505,-330.5 441.2505,-348.5 539.5063,-348.5 539.5063,-330.5 441.2505,-330.5"/>
<text text-anchor="middle" x="490.3784" y="-336.5" font-family="Helvetica,sans-Serif" font-size="10.00" fill="#000000">QTableWidgetItem</text>
</g>
<!-- Node1&#45;&gt;Node53 -->
<g id="edge76" class="edge">
<title>Node1&#45;&gt;Node53</title>
<path fill="none" stroke="#191970" d="M579.7095,-385.4179C562.6721,-376.6603 536.6622,-363.2907 517.0945,-353.2326"/>
<polygon fill="#191970" stroke="#191970" points="518.5675,-350.0544 508.0735,-348.5956 515.3673,-356.2801 518.5675,-350.0544"/>
</g>
<!-- Node3 -->
<g id="node4" class="node">
<title>Node3</title>
<g id="a_node4"><a xlink:href="passwordconfiguration_8h.html" target="_top" xlink:title="passwordconfiguration.h">
<polygon fill="none" stroke="#000000" points="313.1792,-165.5 313.1792,-183.5 437.5776,-183.5 437.5776,-165.5 313.1792,-165.5"/>
<text text-anchor="middle" x="375.3784" y="-171.5" font-family="Helvetica,sans-Serif" font-size="10.00" fill="#000000">passwordconfiguration.h</text>
</a>
</g>
</g>
<!-- Node2&#45;&gt;Node3 -->
<g id="edge3" class="edge">
<title>Node2&#45;&gt;Node3</title>
<path fill="none" stroke="#191970" d="M582.9475,-330.2621C556.3507,-313.0848 498.0501,-274.7236 451.3784,-239 430.7394,-223.2024 408.1592,-203.7411 393.019,-190.352"/>
<polygon fill="#191970" stroke="#191970" points="395.2297,-187.6341 385.4328,-183.6002 390.5758,-192.8631 395.2297,-187.6341"/>
</g>
<!-- Node5 -->
<g id="node6" class="node">
<title>Node5</title>
<g id="a_node6"><a xlink:href="userinfo_8h.html" target="_top" xlink:title="userinfo.h">
<polygon fill="none" stroke="#000000" points="3.4204,-55.5 3.4204,-73.5 63.3364,-73.5 63.3364,-55.5 3.4204,-55.5"/>
<text text-anchor="middle" x="33.3784" y="-61.5" font-family="Helvetica,sans-Serif" font-size="10.00" fill="#000000">userinfo.h</text>
</a>
</g>
</g>
<!-- Node2&#45;&gt;Node5 -->
<g id="edge5" class="edge">
<title>Node2&#45;&gt;Node5</title>
<path fill="none" stroke="#191970" d="M557.8594,-331.4562C554.6587,-330.9213 551.4686,-330.4267 548.3784,-330 452.7319,-316.7918 204.0557,-332.1976 115.3784,-294 75.9208,-277.0037 43.3784,-272.4625 43.3784,-229.5 43.3784,-229.5 43.3784,-229.5 43.3784,-174.5 43.3784,-142.4941 39.1277,-105.4642 36.169,-83.5663"/>
<polygon fill="#191970" stroke="#191970" points="39.6262,-83.017 34.7689,-73.6012 32.6943,-83.991 39.6262,-83.017"/>
</g>
<!-- Node7 -->
<g id="node8" class="node">
<title>Node7</title>
<g id="a_node8"><a xlink:href="enums_8h.html" target="_top" xlink:title="enums.h">
<polygon fill="none" stroke="#000000" points="401.2012,-55.5 401.2012,-73.5 455.5557,-73.5 455.5557,-55.5 401.2012,-55.5"/>
<text text-anchor="middle" x="428.3784" y="-61.5" font-family="Helvetica,sans-Serif" font-size="10.00" fill="#000000">enums.h</text>
</a>
</g>
</g>
<!-- Node2&#45;&gt;Node7 -->
<g id="edge8" class="edge">
<title>Node2&#45;&gt;Node7</title>
<path fill="none" stroke="#191970" d="M557.6958,-331.4617C451.2456,-309.6302 167.3784,-249.5348 167.3784,-229.5 167.3784,-229.5 167.3784,-229.5 167.3784,-174.5 167.3784,-150.4899 319.3019,-99.0874 391.3309,-76.0661"/>
<polygon fill="#191970" stroke="#191970" points="392.4702,-79.3766 400.9401,-73.0118 390.3497,-72.7055 392.4702,-79.3766"/>
</g>
<!-- Node8 -->
<g id="node9" class="node">
<title>Node8</title>
<g id="a_node9"><a xlink:href="imitatepass_8h.html" target="_top" xlink:title="imitatepass.h">
<polygon fill="none" stroke="#000000" points="626.9204,-165.5 626.9204,-183.5 701.8364,-183.5 701.8364,-165.5 626.9204,-165.5"/>
<text text-anchor="middle" x="664.3784" y="-171.5" font-family="Helvetica,sans-Serif" font-size="10.00" fill="#000000">imitatepass.h</text>
</a>
</g>
</g>
<!-- Node2&#45;&gt;Node8 -->
<g id="edge9" class="edge">
<title>Node2&#45;&gt;Node8</title>
<path fill="none" stroke="#191970" d="M582.8429,-330.3019C571.6204,-322.2654 556.9364,-309.4762 550.3784,-294 537.5465,-263.7177 531.9297,-247.2272 550.3784,-220 558.7456,-207.6515 592.0529,-195.202 620.5211,-186.4547"/>
<polygon fill="#191970" stroke="#191970" points="621.7603,-189.7374 630.34,-183.5213 619.7565,-183.0303 621.7603,-189.7374"/>
</g>
<!-- Node9 -->
<g id="node10" class="node">
<title>Node9</title>
<g id="a_node10"><a xlink:href="pass_8h.html" target="_top" xlink:title="pass.h">
<polygon fill="none" stroke="#000000" points="757.647,-110.5 757.647,-128.5 803.1099,-128.5 803.1099,-110.5 757.647,-110.5"/>
<text text-anchor="middle" x="780.3784" y="-116.5" font-family="Helvetica,sans-Serif" font-size="10.00" fill="#000000">pass.h</text>
</a>
</g>
</g>
<!-- Node2&#45;&gt;Node9 -->
<g id="edge30" class="edge">
<title>Node2&#45;&gt;Node9</title>
<path fill="none" stroke="#191970" d="M636.94,-331.7256C640.1312,-331.1303 643.3075,-330.5483 646.3784,-330 844.5428,-294.617 1410.0134,-337.382 1540.3784,-184 1545.8472,-177.5656 1546.1684,-171.147 1540.3784,-165 1515.1219,-138.1862 957.4647,-123.5673 813.8617,-120.2388"/>
<polygon fill="#191970" stroke="#191970" points="813.5755,-116.7315 803.4981,-120.0017 813.4153,-123.7296 813.5755,-116.7315"/>
</g>
<!-- Node12 -->
<g id="node13" class="node">
<title>Node12</title>
<polygon fill="none" stroke="#bfbfbf" points="537.4277,-.5 537.4277,-18.5 597.3291,-18.5 597.3291,-.5 537.4277,-.5"/>
<text text-anchor="middle" x="567.3784" y="-6.5" font-family="Helvetica,sans-Serif" font-size="10.00" fill="#000000">QProcess</text>
</g>
<!-- Node2&#45;&gt;Node12 -->
<g id="edge69" class="edge">
<title>Node2&#45;&gt;Node12</title>
<path fill="none" stroke="#191970" d="M557.8263,-331.6712C554.633,-331.0881 551.4537,-330.5238 548.3784,-330 453.9856,-313.9233 129.3784,-325.2521 129.3784,-229.5 129.3784,-229.5 129.3784,-229.5 129.3784,-119.5 129.3784,-37.9329 418.7251,-16.2908 527.0689,-11.0461"/>
<polygon fill="#191970" stroke="#191970" points="527.445,-14.5326 537.2729,-10.5751 527.1221,-7.54 527.445,-14.5326"/>
</g>
<!-- Node13 -->
<g id="node14" class="node">
<title>Node13</title>
<polygon fill="none" stroke="#bfbfbf" points="685.4771,-.5 685.4771,-18.5 739.2798,-18.5 739.2798,-.5 685.4771,-.5"/>
<text text-anchor="middle" x="712.3784" y="-6.5" font-family="Helvetica,sans-Serif" font-size="10.00" fill="#000000">QQueue</text>
</g>
<!-- Node2&#45;&gt;Node13 -->
<g id="edge70" class="edge">
<title>Node2&#45;&gt;Node13</title>
<path fill="none" stroke="#191970" d="M636.8854,-331.3651C640.0889,-330.8507 643.2828,-330.3856 646.3784,-330 928.2067,-294.8919 1002.7608,-330.7595 1284.3784,-294 1425.2177,-275.6163 1597.3784,-371.5341 1597.3784,-229.5 1597.3784,-229.5 1597.3784,-229.5 1597.3784,-119.5 1597.3784,-32.6272 917.1561,-13.5308 749.421,-10.1424"/>
<polygon fill="#191970" stroke="#191970" points="749.4144,-6.6417 739.3479,-9.9455 749.2776,-13.6403 749.4144,-6.6417"/>
</g>
<!-- Node23 -->
<g id="node24" class="node">
<title>Node23</title>
<g id="a_node24"><a xlink:href="realpass_8h.html" target="_top" xlink:title="realpass.h">
<polygon fill="none" stroke="#000000" points="757.3096,-165.5 757.3096,-183.5 819.4473,-183.5 819.4473,-165.5 757.3096,-165.5"/>
<text text-anchor="middle" x="788.3784" y="-171.5" font-family="Helvetica,sans-Serif" font-size="10.00" fill="#000000">realpass.h</text>
</a>
</g>
</g>
<!-- Node2&#45;&gt;Node23 -->
<g id="edge31" class="edge">
<title>Node2&#45;&gt;Node23</title>
<path fill="none" stroke="#191970" d="M592.2476,-330.1848C580.9548,-308.287 556.9718,-252.9101 583.3784,-220 593.6076,-207.2515 690.1096,-190.0353 746.9894,-180.8674"/>
<polygon fill="#191970" stroke="#191970" points="747.7953,-184.2832 757.1193,-179.2521 746.6929,-177.3705 747.7953,-184.2832"/>
</g>
<!-- Node24 -->
<g id="node25" class="node">
<title>Node24</title>
<g id="a_node25"><a xlink:href="storemodel_8h.html" target="_top" xlink:title="storemodel.h">
<polygon fill="none" stroke="#000000" points="594.4746,-275.5 594.4746,-293.5 668.2822,-293.5 668.2822,-275.5 594.4746,-275.5"/>
<text text-anchor="middle" x="631.3784" y="-281.5" font-family="Helvetica,sans-Serif" font-size="10.00" fill="#000000">storemodel.h</text>
</a>
</g>
</g>
<!-- Node2&#45;&gt;Node24 -->
<g id="edge33" class="edge">
<title>Node2&#45;&gt;Node24</title>
<path fill="none" stroke="#191970" d="M602.9928,-330.4179C607.6893,-322.8207 614.5313,-311.7527 620.3212,-302.3866"/>
<polygon fill="#191970" stroke="#191970" points="623.3608,-304.1258 625.642,-293.7795 617.4067,-300.445 623.3608,-304.1258"/>
</g>
<!-- Node26 -->
<g id="node27" class="node">
<title>Node26</title>
<polygon fill="none" stroke="#bfbfbf" points="195.1445,-165.5 195.1445,-183.5 295.6123,-183.5 295.6123,-165.5 195.1445,-165.5"/>
<text text-anchor="middle" x="245.3784" y="-171.5" font-family="Helvetica,sans-Serif" font-size="10.00" fill="#000000">QFileSystemModel</text>
</g>
<!-- Node2&#45;&gt;Node26 -->
<g id="edge67" class="edge">
<title>Node2&#45;&gt;Node26</title>
<path fill="none" stroke="#191970" d="M577.6277,-330.4962C557.6254,-321.3604 525.8119,-306.7826 498.3784,-294 416.5743,-255.8835 320.2559,-210.1535 273.574,-187.9356"/>
<polygon fill="#191970" stroke="#191970" points="274.9226,-184.7012 264.3891,-183.5626 271.9135,-191.0214 274.9226,-184.7012"/>
</g>
<!-- Node41 -->
<g id="node42" class="node">
<title>Node41</title>
<g id="a_node42"><a xlink:href="trayicon_8h.html" target="_top" xlink:title="trayicon.h">
<polygon fill="none" stroke="#000000" points="1719.7012,-275.5 1719.7012,-293.5 1779.0557,-293.5 1779.0557,-275.5 1719.7012,-275.5"/>
<text text-anchor="middle" x="1749.3784" y="-281.5" font-family="Helvetica,sans-Serif" font-size="10.00" fill="#000000">trayicon.h</text>
</a>
</g>
</g>
<!-- Node2&#45;&gt;Node41 -->
<g id="edge60" class="edge">
<title>Node2&#45;&gt;Node41</title>
<path fill="none" stroke="#191970" d="M636.8768,-331.2929C640.0822,-330.7946 643.2789,-330.353 646.3784,-330 1096.6388,-278.7169 1213.446,-327.4884 1665.3784,-294 1679.7242,-292.937 1695.3984,-291.2953 1709.2809,-289.674"/>
<polygon fill="#191970" stroke="#191970" points="1709.9844,-293.1148 1719.496,-288.448 1709.1502,-286.1646 1709.9844,-293.1148"/>
</g>
<!-- Node44 -->
<g id="node45" class="node">
<title>Node44</title>
<polygon fill="none" stroke="#bfbfbf" points="1625.8687,-220.5 1625.8687,-238.5 1706.8882,-238.5 1706.8882,-220.5 1625.8687,-220.5"/>
<text text-anchor="middle" x="1666.3784" y="-226.5" font-family="Helvetica,sans-Serif" font-size="10.00" fill="#000000">QMainWindow</text>
</g>
<!-- Node2&#45;&gt;Node44 -->
<g id="edge68" class="edge">
<title>Node2&#45;&gt;Node44</title>
<path fill="none" stroke="#191970" d="M636.8776,-331.2997C640.0828,-330.7999 643.2793,-330.3561 646.3784,-330 752.9739,-317.7525 1514.8104,-340.7679 1611.3784,-294 1631.7795,-284.1197 1647.5419,-262.7785 1656.862,-247.345"/>
<polygon fill="#191970" stroke="#191970" points="1659.9044,-249.0751 1661.8164,-238.6542 1653.8232,-245.6083 1659.9044,-249.0751"/>
</g>
<!-- Node48 -->
<g id="node49" class="node">
<title>Node48</title>
<polygon fill="none" stroke="#bfbfbf" points="1796.8965,-275.5 1796.8965,-293.5 1845.8604,-293.5 1845.8604,-275.5 1796.8965,-275.5"/>
<text text-anchor="middle" x="1821.3784" y="-281.5" font-family="Helvetica,sans-Serif" font-size="10.00" fill="#000000">QTimer</text>
</g>
<!-- Node2&#45;&gt;Node48 -->
<g id="edge71" class="edge">
<title>Node2&#45;&gt;Node48</title>
<path fill="none" stroke="#191970" d="M636.8753,-331.2799C640.081,-330.7845 643.2783,-330.3471 646.3784,-330 1147.7058,-273.8654 1284.9248,-371.547 1786.6256,-293.8993"/>
<polygon fill="#191970" stroke="#191970" points="1787.3218,-297.3331 1796.6611,-292.3304 1786.2405,-290.4171 1787.3218,-297.3331"/>
</g>
<!-- Node49 -->
<g id="node50" class="node">
<title>Node49</title>
<polygon fill="none" stroke="#bfbfbf" points="1863.6421,-275.5 1863.6421,-293.5 1929.1147,-293.5 1929.1147,-275.5 1863.6421,-275.5"/>
<text text-anchor="middle" x="1896.3784" y="-281.5" font-family="Helvetica,sans-Serif" font-size="10.00" fill="#000000">QTreeView</text>
</g>
<!-- Node2&#45;&gt;Node49 -->
<g id="edge72" class="edge">
<title>Node2&#45;&gt;Node49</title>
<path fill="none" stroke="#191970" d="M636.8747,-331.2739C640.0805,-330.7799 643.278,-330.3445 646.3784,-330 1176.8324,-271.0661 1319.7077,-360.4154 1853.1979,-293.8679"/>
<polygon fill="#191970" stroke="#191970" points="1853.9862,-297.2963 1863.47,-292.5733 1853.1109,-290.3512 1853.9862,-297.2963"/>
</g>
<!-- Node4 -->
<g id="node5" class="node">
<title>Node4</title>
<polygon fill="none" stroke="#bfbfbf" points="169.4277,-.5 169.4277,-18.5 219.3291,-18.5 219.3291,-.5 169.4277,-.5"/>
<text text-anchor="middle" x="194.3784" y="-6.5" font-family="Helvetica,sans-Serif" font-size="10.00" fill="#000000">QString</text>
</g>
<!-- Node3&#45;&gt;Node4 -->
<g id="edge4" class="edge">
<title>Node3&#45;&gt;Node4</title>
<path fill="none" stroke="#191970" d="M362.8384,-165.4991C350.658,-156.6023 331.7975,-142.4144 316.3784,-129 276.3602,-94.1846 232.6915,-49.6677 210.0193,-26.0128"/>
<polygon fill="#191970" stroke="#191970" points="212.3507,-23.3861 202.9159,-18.5659 207.2855,-28.2177 212.3507,-23.3861"/>
</g>
<!-- Node5&#45;&gt;Node4 -->
<g id="edge7" class="edge">
<title>Node5&#45;&gt;Node4</title>
<path fill="none" stroke="#191970" d="M59.9643,-55.4179C87.2468,-46.0978 129.82,-31.5541 159.7272,-21.3374"/>
<polygon fill="#191970" stroke="#191970" points="161.0121,-24.5971 169.3437,-18.0522 158.7491,-17.973 161.0121,-24.5971"/>
</g>
<!-- Node6 -->
<g id="node7" class="node">
<title>Node6</title>
<polygon fill="none" stroke="#bfbfbf" points="0,-.5 0,-18.5 66.7568,-18.5 66.7568,-.5 0,-.5"/>
<text text-anchor="middle" x="33.3784" y="-6.5" font-family="Helvetica,sans-Serif" font-size="10.00" fill="#000000">QDateTime</text>
</g>
<!-- Node5&#45;&gt;Node6 -->
<g id="edge6" class="edge">
<title>Node5&#45;&gt;Node6</title>
<path fill="none" stroke="#191970" d="M33.3784,-55.4179C33.3784,-48.2164 33.3784,-37.8962 33.3784,-28.8632"/>
<polygon fill="#191970" stroke="#191970" points="36.8785,-28.7794 33.3784,-18.7795 29.8785,-28.7795 36.8785,-28.7794"/>
</g>
<!-- Node8&#45;&gt;Node9 -->
<g id="edge10" class="edge">
<title>Node8&#45;&gt;Node9</title>
<path fill="none" stroke="#191970" d="M683.5335,-165.4179C702.1719,-156.5807 730.7151,-143.0473 751.992,-132.9591"/>
<polygon fill="#191970" stroke="#191970" points="753.6586,-136.0424 761.1949,-128.5956 750.6596,-129.7174 753.6586,-136.0424"/>
</g>
<!-- Node21 -->
<g id="node22" class="node">
<title>Node21</title>
<g id="a_node22"><a xlink:href="simpletransaction_8h.html" target="_top" xlink:title="simpletransaction.h">
<polygon fill="none" stroke="#000000" points="377.3022,-110.5 377.3022,-128.5 479.4546,-128.5 479.4546,-110.5 377.3022,-110.5"/>
<text text-anchor="middle" x="428.3784" y="-116.5" font-family="Helvetica,sans-Serif" font-size="10.00" fill="#000000">simpletransaction.h</text>
</a>
</g>
</g>
<!-- Node8&#45;&gt;Node21 -->
<g id="edge27" class="edge">
<title>Node8&#45;&gt;Node21</title>
<path fill="none" stroke="#191970" d="M626.7226,-165.7243C586.157,-156.2704 521.4662,-141.1942 477.0626,-130.8459"/>
<polygon fill="#191970" stroke="#191970" points="477.6099,-127.3797 467.0765,-128.5186 476.0211,-134.197 477.6099,-127.3797"/>
</g>
<!-- Node9&#45;&gt;Node4 -->
<g id="edge23" class="edge">
<title>Node9&#45;&gt;Node4</title>
<path fill="none" stroke="#191970" d="M757.3706,-113.2017C752.7566,-112.0492 747.9284,-110.9214 743.3784,-110 637.2335,-88.505 605.6482,-106.6212 502.3784,-74 484.373,-68.3124 482.3299,-60.8554 464.3784,-55 382.7784,-28.3837 281.9692,-16.6783 229.6413,-12.0908"/>
<polygon fill="#191970" stroke="#191970" points="229.7967,-8.5916 219.5386,-11.2415 229.2102,-15.567 229.7967,-8.5916"/>
</g>
<!-- Node9&#45;&gt;Node5 -->
<g id="edge11" class="edge">
<title>Node9&#45;&gt;Node5</title>
<path fill="none" stroke="#191970" d="M757.6143,-117.8239C652.045,-110.0511 209.5198,-77.4689 73.3953,-67.4464"/>
<polygon fill="#191970" stroke="#191970" points="73.6216,-63.9536 63.3916,-66.7098 73.1075,-70.9347 73.6216,-63.9536"/>
</g>
<!-- Node9&#45;&gt;Node7 -->
<g id="edge12" class="edge">
<title>Node9&#45;&gt;Node7</title>
<path fill="none" stroke="#191970" d="M757.3832,-113.138C752.7681,-111.9908 747.9364,-110.8812 743.3784,-110 622.7872,-86.685 590.2367,-95.8882 469.3784,-74 468.1247,-73.7729 466.8516,-73.5327 465.5675,-73.2823"/>
<polygon fill="#191970" stroke="#191970" points="466.1538,-69.8292 455.649,-71.2074 464.7204,-76.6809 466.1538,-69.8292"/>
</g>
<!-- Node10 -->
<g id="node11" class="node">
<title>Node10</title>
<g id="a_node11"><a xlink:href="executor_8h.html" target="_top" xlink:title="executor.h">
<polygon fill="none" stroke="#000000" points="603.3047,-55.5 603.3047,-73.5 665.4521,-73.5 665.4521,-55.5 603.3047,-55.5"/>
<text text-anchor="middle" x="634.3784" y="-61.5" font-family="Helvetica,sans-Serif" font-size="10.00" fill="#000000">executor.h</text>
</a>
</g>
</g>
<!-- Node9&#45;&gt;Node10 -->
<g id="edge13" class="edge">
<title>Node9&#45;&gt;Node10</title>
<path fill="none" stroke="#191970" d="M757.5659,-110.9063C733.566,-101.8652 695.5388,-87.5399 668.08,-77.1958"/>
<polygon fill="#191970" stroke="#191970" points="669.0792,-73.8322 658.4873,-73.5821 666.6115,-80.3828 669.0792,-73.8322"/>
</g>
<!-- Node9&#45;&gt;Node12 -->
<g id="edge20" class="edge">
<title>Node9&#45;&gt;Node12</title>
<path fill="none" stroke="#191970" d="M757.2987,-113.52C752.6906,-112.3413 747.8831,-111.1224 743.3784,-110 677.272,-93.5282 646.2338,-118.1859 594.3784,-74 580.9776,-62.5812 574.0949,-43.399 570.646,-28.9147"/>
<polygon fill="#191970" stroke="#191970" points="574.045,-28.0651 568.6268,-18.9605 567.1847,-29.4568 574.045,-28.0651"/>
</g>
<!-- Node9&#45;&gt;Node13 -->
<g id="edge21" class="edge">
<title>Node9&#45;&gt;Node13</title>
<path fill="none" stroke="#191970" d="M757.5875,-111.0521C741.7637,-103.8453 721.881,-91.7919 712.3784,-74 705.0422,-60.2643 705.6763,-42.4187 707.7862,-28.9815"/>
<polygon fill="#191970" stroke="#191970" points="711.2698,-29.4052 709.7632,-18.9181 704.4011,-28.0558 711.2698,-29.4052"/>
</g>
<!-- Node14 -->
<g id="node15" class="node">
<title>Node14</title>
<polygon fill="none" stroke="#bfbfbf" points="721.7554,-55.5 721.7554,-73.5 775.0015,-73.5 775.0015,-55.5 721.7554,-55.5"/>
<text text-anchor="middle" x="748.3784" y="-61.5" font-family="Helvetica,sans-Serif" font-size="10.00" fill="#000000">QDebug</text>
</g>
<!-- Node9&#45;&gt;Node14 -->
<g id="edge17" class="edge">
<title>Node9&#45;&gt;Node14</title>
<path fill="none" stroke="#191970" d="M775.0943,-110.4179C770.7201,-102.8998 764.3685,-91.9829 758.9558,-82.6799"/>
<polygon fill="#191970" stroke="#191970" points="761.8316,-80.6628 753.7774,-73.7795 755.7811,-84.1831 761.8316,-80.6628"/>
</g>
<!-- Node15 -->
<g id="node16" class="node">
<title>Node15</title>
<polygon fill="none" stroke="#bfbfbf" points="1130.1025,-55.5 1130.1025,-73.5 1166.6543,-73.5 1166.6543,-55.5 1130.1025,-55.5"/>
<text text-anchor="middle" x="1148.3784" y="-61.5" font-family="Helvetica,sans-Serif" font-size="10.00" fill="#000000">QDir</text>
</g>
<!-- Node9&#45;&gt;Node15 -->
<g id="edge18" class="edge">
<title>Node9&#45;&gt;Node15</title>
<path fill="none" stroke="#191970" d="M803.4233,-118.0663C857.395,-114.3643 996.1913,-102.8479 1119.9207,-73.9384"/>
<polygon fill="#191970" stroke="#191970" points="1121.0216,-77.2742 1129.9378,-71.5513 1119.3988,-70.4649 1121.0216,-77.2742"/>
</g>
<!-- Node16 -->
<g id="node17" class="node">
<title>Node16</title>
<polygon fill="none" stroke="#bfbfbf" points="792.7085,-55.5 792.7085,-73.5 832.0483,-73.5 832.0483,-55.5 792.7085,-55.5"/>
<text text-anchor="middle" x="812.3784" y="-61.5" font-family="Helvetica,sans-Serif" font-size="10.00" fill="#000000">QList</text>
</g>
<!-- Node9&#45;&gt;Node16 -->
<g id="edge19" class="edge">
<title>Node9&#45;&gt;Node16</title>
<path fill="none" stroke="#191970" d="M785.6626,-110.4179C790.0367,-102.8998 796.3884,-91.9829 801.801,-82.6799"/>
<polygon fill="#191970" stroke="#191970" points="804.9757,-84.1831 806.9795,-73.7795 798.9253,-80.6628 804.9757,-84.1831"/>
</g>
<!-- Node17 -->
<g id="node18" class="node">
<title>Node17</title>
<polygon fill="none" stroke="#bfbfbf" points="850.0781,-55.5 850.0781,-73.5 956.6787,-73.5 956.6787,-55.5 850.0781,-55.5"/>
<text text-anchor="middle" x="903.3784" y="-61.5" font-family="Helvetica,sans-Serif" font-size="10.00" fill="#000000">QRandomGenerator</text>
</g>
<!-- Node9&#45;&gt;Node17 -->
<g id="edge22" class="edge">
<title>Node9&#45;&gt;Node17</title>
<path fill="none" stroke="#191970" d="M800.6894,-110.4179C820.6305,-101.5011 851.2643,-87.803 873.8869,-77.6873"/>
<polygon fill="#191970" stroke="#191970" points="875.3371,-80.8728 883.0373,-73.5956 872.4796,-74.4826 875.3371,-80.8728"/>
</g>
<!-- Node18 -->
<g id="node19" class="node">
<title>Node18</title>
<polygon fill="none" stroke="#bfbfbf" points="974.8662,-55.5 974.8662,-73.5 1045.8906,-73.5 1045.8906,-55.5 974.8662,-55.5"/>
<text text-anchor="middle" x="1010.3784" y="-61.5" font-family="Helvetica,sans-Serif" font-size="10.00" fill="#000000">QTextCodec</text>
</g>
<!-- Node9&#45;&gt;Node18 -->
<g id="edge24" class="edge">
<title>Node9&#45;&gt;Node18</title>
<path fill="none" stroke="#191970" d="M803.2726,-114.0253C840.7185,-105.0708 915.7649,-87.125 964.493,-75.4726"/>
<polygon fill="#191970" stroke="#191970" points="965.5568,-78.817 974.4686,-73.0871 963.9287,-72.0089 965.5568,-78.817"/>
</g>
<!-- Node19 -->
<g id="node20" class="node">
<title>Node19</title>
<polygon fill="none" stroke="#bfbfbf" points="1064.2627,-55.5 1064.2627,-73.5 1112.4941,-73.5 1112.4941,-55.5 1064.2627,-55.5"/>
<text text-anchor="middle" x="1088.3784" y="-61.5" font-family="Helvetica,sans-Serif" font-size="10.00" fill="#000000">cassert</text>
</g>
<!-- Node9&#45;&gt;Node19 -->
<g id="edge25" class="edge">
<title>Node9&#45;&gt;Node19</title>
<path fill="none" stroke="#191970" d="M803.3695,-116.617C849.2817,-110.6646 955.7055,-95.89 1054.1469,-74.0771"/>
<polygon fill="#191970" stroke="#191970" points="1054.9622,-77.4813 1063.9521,-71.8747 1053.4281,-70.6514 1054.9622,-77.4813"/>
</g>
<!-- Node20 -->
<g id="node21" class="node">
<title>Node20</title>
<polygon fill="none" stroke="#bfbfbf" points="511.6519,-55.5 511.6519,-73.5 547.105,-73.5 547.105,-55.5 511.6519,-55.5"/>
<text text-anchor="middle" x="529.3784" y="-61.5" font-family="Helvetica,sans-Serif" font-size="10.00" fill="#000000">map</text>
</g>
<!-- Node9&#45;&gt;Node20 -->
<g id="edge26" class="edge">
<title>Node9&#45;&gt;Node20</title>
<path fill="none" stroke="#191970" d="M757.3343,-113.3706C752.7233,-112.2042 747.9055,-111.0281 743.3784,-110 662.9696,-91.7398 641.4331,-93.7549 561.3784,-74 559.9366,-73.6442 558.4629,-73.2645 556.978,-72.8691"/>
<polygon fill="#191970" stroke="#191970" points="557.8125,-69.468 547.2379,-70.1224 555.9126,-76.2053 557.8125,-69.468"/>
</g>
<!-- Node11 -->
<g id="node12" class="node">
<title>Node11</title>
<polygon fill="none" stroke="#bfbfbf" points="615.0386,-.5 615.0386,-18.5 667.7183,-18.5 667.7183,-.5 615.0386,-.5"/>
<text text-anchor="middle" x="641.3784" y="-6.5" font-family="Helvetica,sans-Serif" font-size="10.00" fill="#000000">QObject</text>
</g>
<!-- Node10&#45;&gt;Node11 -->
<g id="edge14" class="edge">
<title>Node10&#45;&gt;Node11</title>
<path fill="none" stroke="#191970" d="M635.5343,-55.4179C636.4509,-48.2164 637.7644,-37.8962 638.914,-28.8632"/>
<polygon fill="#191970" stroke="#191970" points="642.4068,-29.1414 640.1974,-18.7795 635.4628,-28.2575 642.4068,-29.1414"/>
</g>
<!-- Node10&#45;&gt;Node12 -->
<g id="edge15" class="edge">
<title>Node10&#45;&gt;Node12</title>
<path fill="none" stroke="#191970" d="M623.3147,-55.4179C613.3851,-47.2667 598.5884,-35.1201 586.7072,-25.3669"/>
<polygon fill="#191970" stroke="#191970" points="588.6325,-22.4192 578.6825,-18.7795 584.191,-27.8297 588.6325,-22.4192"/>
</g>
<!-- Node10&#45;&gt;Node13 -->
<g id="edge16" class="edge">
<title>Node10&#45;&gt;Node13</title>
<path fill="none" stroke="#191970" d="M647.2585,-55.4179C659.1138,-47.0584 676.9287,-34.4966 690.93,-24.6239"/>
<polygon fill="#191970" stroke="#191970" points="693.3235,-27.2188 699.4792,-18.5956 689.2896,-21.498 693.3235,-27.2188"/>
</g>
<!-- Node21&#45;&gt;Node7 -->
<g id="edge28" class="edge">
<title>Node21&#45;&gt;Node7</title>
<path fill="none" stroke="#191970" d="M428.3784,-110.4179C428.3784,-103.2164 428.3784,-92.8962 428.3784,-83.8632"/>
<polygon fill="#191970" stroke="#191970" points="431.8785,-83.7794 428.3784,-73.7795 424.8785,-83.7795 431.8785,-83.7794"/>
</g>
<!-- Node22 -->
<g id="node23" class="node">
<title>Node22</title>
<polygon fill="none" stroke="#bfbfbf" points="339.4746,-55.5 339.4746,-73.5 383.2822,-73.5 383.2822,-55.5 339.4746,-55.5"/>
<text text-anchor="middle" x="361.3784" y="-61.5" font-family="Helvetica,sans-Serif" font-size="10.00" fill="#000000">queue</text>
</g>
<!-- Node21&#45;&gt;Node22 -->
<g id="edge29" class="edge">
<title>Node21&#45;&gt;Node22</title>
<path fill="none" stroke="#191970" d="M417.3147,-110.4179C407.3851,-102.2667 392.5884,-90.1201 380.7072,-80.3669"/>
<polygon fill="#191970" stroke="#191970" points="382.6325,-77.4192 372.6825,-73.7795 378.191,-82.8297 382.6325,-77.4192"/>
</g>
<!-- Node23&#45;&gt;Node9 -->
<g id="edge32" class="edge">
<title>Node23&#45;&gt;Node9</title>
<path fill="none" stroke="#191970" d="M787.0574,-165.4179C786.0099,-158.2164 784.5088,-147.8962 783.1949,-138.8632"/>
<polygon fill="#191970" stroke="#191970" points="786.6312,-138.1715 781.7282,-128.7795 779.7041,-139.1791 786.6312,-138.1715"/>
</g>
<!-- Node25 -->
<g id="node26" class="node">
<title>Node25</title>
<g id="a_node26"><a xlink:href="util_8h.html" target="_top" xlink:title="util.h">
<polygon fill="none" stroke="#000000" points="460.8169,-220.5 460.8169,-238.5 497.9399,-238.5 497.9399,-220.5 460.8169,-220.5"/>
<text text-anchor="middle" x="479.3784" y="-226.5" font-family="Helvetica,sans-Serif" font-size="10.00" fill="#000000">util.h</text>
</a>
</g>
</g>
<!-- Node24&#45;&gt;Node25 -->
<g id="edge34" class="edge">
<title>Node24&#45;&gt;Node25</title>
<path fill="none" stroke="#191970" d="M601.1124,-275.4179C573.7858,-266.2193 534.1163,-251.9326 507.4785,-241.7394"/>
<polygon fill="#191970" stroke="#191970" points="508.5494,-238.4008 497.9603,-238.0522 506.0208,-244.9282 508.5494,-238.4008"/>
</g>
<!-- Node24&#45;&gt;Node26 -->
<g id="edge40" class="edge">
<title>Node24&#45;&gt;Node26</title>
<path fill="none" stroke="#191970" d="M594.3312,-275.7755C557.8266,-267.0284 500.5408,-252.8984 451.3784,-239 391.7434,-222.1409 323.1959,-200.149 282.1335,-186.6901"/>
<polygon fill="#191970" stroke="#191970" points="283.1503,-183.3401 272.5574,-183.5426 280.9645,-189.9901 283.1503,-183.3401"/>
</g>
<!-- Node28 -->
<g id="node29" class="node">
<title>Node28</title>
<polygon fill="none" stroke="#bfbfbf" points="592.812,-220.5 592.812,-238.5 669.9448,-238.5 669.9448,-220.5 592.812,-220.5"/>
<text text-anchor="middle" x="631.3784" y="-226.5" font-family="Helvetica,sans-Serif" font-size="10.00" fill="#000000">QDataStream</text>
</g>
<!-- Node24&#45;&gt;Node28 -->
<g id="edge39" class="edge">
<title>Node24&#45;&gt;Node28</title>
<path fill="none" stroke="#191970" d="M631.3784,-275.4179C631.3784,-268.2164 631.3784,-257.8962 631.3784,-248.8632"/>
<polygon fill="#191970" stroke="#191970" points="634.8785,-248.7794 631.3784,-238.7795 627.8785,-248.7795 634.8785,-248.7794"/>
</g>
<!-- Node29 -->
<g id="node30" class="node">
<title>Node29</title>
<polygon fill="none" stroke="#bfbfbf" points="687.7012,-220.5 687.7012,-238.5 747.0557,-238.5 747.0557,-220.5 687.7012,-220.5"/>
<text text-anchor="middle" x="717.3784" y="-226.5" font-family="Helvetica,sans-Serif" font-size="10.00" fill="#000000">QRegExp</text>
</g>
<!-- Node24&#45;&gt;Node29 -->
<g id="edge41" class="edge">
<title>Node24&#45;&gt;Node29</title>
<path fill="none" stroke="#191970" d="M645.5796,-275.4179C658.8997,-266.8992 679.0434,-254.0166 694.6076,-244.0627"/>
<polygon fill="#191970" stroke="#191970" points="696.6174,-246.932 703.1562,-238.5956 692.8459,-241.0348 696.6174,-246.932"/>
</g>
<!-- Node30 -->
<g id="node31" class="node">
<title>Node30</title>
<polygon fill="none" stroke="#bfbfbf" points="764.8096,-220.5 764.8096,-238.5 881.9473,-238.5 881.9473,-220.5 764.8096,-220.5"/>
<text text-anchor="middle" x="823.3784" y="-226.5" font-family="Helvetica,sans-Serif" font-size="10.00" fill="#000000">QSortFilterProxyModel</text>
</g>
<!-- Node24&#45;&gt;Node30 -->
<g id="edge42" class="edge">
<title>Node24&#45;&gt;Node30</title>
<path fill="none" stroke="#191970" d="M663.0833,-275.4179C695.698,-266.0751 746.6363,-251.4834 782.3149,-241.263"/>
<polygon fill="#191970" stroke="#191970" points="783.2961,-244.6228 791.9455,-238.5042 781.3683,-237.8934 783.2961,-244.6228"/>
</g>
<!-- Node31 -->
<g id="node32" class="node">
<title>Node31</title>
<polygon fill="none" stroke="#bfbfbf" points="900.0288,-220.5 900.0288,-238.5 992.728,-238.5 992.728,-220.5 900.0288,-220.5"/>
<text text-anchor="middle" x="946.3784" y="-226.5" font-family="Helvetica,sans-Serif" font-size="10.00" fill="#000000">QStringListModel</text>
</g>
<!-- Node24&#45;&gt;Node31 -->
<g id="edge43" class="edge">
<title>Node24&#45;&gt;Node31</title>
<path fill="none" stroke="#191970" d="M668.4392,-278.0291C723.1646,-268.4738 826.01,-250.5167 890.0861,-239.3288"/>
<polygon fill="#191970" stroke="#191970" points="890.7748,-242.7616 900.0237,-237.5937 889.5707,-235.8659 890.7748,-242.7616"/>
</g>
<!-- Node32 -->
<g id="node33" class="node">
<title>Node32</title>
<g id="a_node33"><a xlink:href="qtpasssettings_8h.html" target="_top" xlink:title="qtpasssettings.h">
<polygon fill="none" stroke="#000000" points="1010.2456,-220.5 1010.2456,-238.5 1098.5112,-238.5 1098.5112,-220.5 1010.2456,-220.5"/>
<text text-anchor="middle" x="1054.3784" y="-226.5" font-family="Helvetica,sans-Serif" font-size="10.00" fill="#000000">qtpasssettings.h</text>
</a>
</g>
</g>
<!-- Node24&#45;&gt;Node32 -->
<g id="edge44" class="edge">
<title>Node24&#45;&gt;Node32</title>
<path fill="none" stroke="#191970" d="M668.4946,-280.6193C733.5583,-273.6683 872.6511,-258.1494 1000.217,-239.1084"/>
<polygon fill="#191970" stroke="#191970" points="1000.7937,-242.5612 1010.1621,-237.6132 999.7528,-235.639 1000.7937,-242.5612"/>
</g>
<!-- Node25&#45;&gt;Node4 -->
<g id="edge38" class="edge">
<title>Node25&#45;&gt;Node4</title>
<path fill="none" stroke="#191970" d="M476.8395,-220.4222C472.6037,-206.7674 462.8905,-180.8565 446.3784,-165 418.8394,-138.5542 401.4948,-148.0022 368.3784,-129 318.5441,-100.405 309.8122,-87.4218 262.3784,-55 247.2287,-44.6449 230.0523,-33.1539 216.7528,-24.3105"/>
<polygon fill="#191970" stroke="#191970" points="218.5045,-21.2724 208.2374,-18.6577 214.633,-27.1044 218.5045,-21.2724"/>
</g>
<!-- Node25&#45;&gt;Node24 -->
<g id="edge35" class="edge">
<title>Node25&#45;&gt;Node24</title>
<path fill="none" stroke="#191970" d="M498.122,-234.7705C524.264,-243.2306 571.3641,-260.0787 602.0913,-271.807"/>
<polygon fill="#191970" stroke="#191970" points="600.8555,-275.0816 611.445,-275.4179 603.3765,-268.5513 600.8555,-275.0816"/>
</g>
<!-- Node25&#45;&gt;Node26 -->
<g id="edge36" class="edge">
<title>Node25&#45;&gt;Node26</title>
<path fill="none" stroke="#191970" d="M460.4517,-224.7015C454.3667,-223.1767 447.5927,-221.498 441.3784,-220 391.7061,-208.0263 334.811,-194.8817 295.1622,-185.813"/>
<polygon fill="#191970" stroke="#191970" points="295.7446,-182.3559 285.2162,-183.5408 294.1855,-189.1801 295.7446,-182.3559"/>
</g>
<!-- Node27 -->
<g id="node28" class="node">
<title>Node27</title>
<polygon fill="none" stroke="#bfbfbf" points="493.3589,-165.5 493.3589,-183.5 609.3979,-183.5 609.3979,-165.5 493.3589,-165.5"/>
<text text-anchor="middle" x="551.3784" y="-171.5" font-family="Helvetica,sans-Serif" font-size="10.00" fill="#000000">QProcessEnvironment</text>
</g>
<!-- Node25&#45;&gt;Node27 -->
<g id="edge37" class="edge">
<title>Node25&#45;&gt;Node27</title>
<path fill="none" stroke="#191970" d="M491.2678,-220.4179C502.042,-212.1876 518.1486,-199.8839 530.9781,-190.0836"/>
<polygon fill="#191970" stroke="#191970" points="533.4087,-192.6313 539.2308,-183.7795 529.1594,-187.0685 533.4087,-192.6313"/>
</g>
<!-- Node32&#45;&gt;Node3 -->
<g id="edge48" class="edge">
<title>Node32&#45;&gt;Node3</title>
<path fill="none" stroke="#191970" d="M1010.1863,-221.2111C1007.2108,-220.7665 1004.2543,-220.3568 1001.3784,-220 772.7969,-191.6395 714.0082,-202.0003 484.3784,-184 472.5426,-183.0722 459.9891,-182.0312 447.7738,-180.9876"/>
<polygon fill="#191970" stroke="#191970" points="447.8792,-177.4838 437.6157,-180.1127 447.2785,-184.4579 447.8792,-177.4838"/>
</g>
<!-- Node32&#45;&gt;Node7 -->
<g id="edge45" class="edge">
<title>Node32&#45;&gt;Node7</title>
<path fill="none" stroke="#191970" d="M1010.1523,-221.4498C1007.185,-220.9476 1004.2396,-220.4598 1001.3784,-220 889.2403,-201.9777 856.7986,-217.835 748.3784,-184 730.3534,-178.3749 727.7481,-172.4053 710.3784,-165 624.1855,-128.2532 519.54,-93.4218 465.1759,-76.0315"/>
<polygon fill="#191970" stroke="#191970" points="466.2164,-72.6898 455.6258,-72.9908 464.0926,-79.3598 466.2164,-72.6898"/>
</g>
<!-- Node32&#45;&gt;Node8 -->
<g id="edge46" class="edge">
<title>Node32&#45;&gt;Node8</title>
<path fill="none" stroke="#191970" d="M1010.1607,-221.3963C1007.1914,-220.907 1004.2432,-220.4367 1001.3784,-220 874.7276,-200.6916 841.9628,-203.739 715.3784,-184 714.2883,-183.83 713.1857,-183.6545 712.0744,-183.4745"/>
<polygon fill="#191970" stroke="#191970" points="712.3798,-179.9764 701.9354,-181.7554 711.2096,-186.8779 712.3798,-179.9764"/>
</g>
<!-- Node32&#45;&gt;Node9 -->
<g id="edge47" class="edge">
<title>Node32&#45;&gt;Node9</title>
<path fill="none" stroke="#191970" d="M1009.9291,-220.9037C962.7234,-211.3934 891.5144,-195.8482 866.3784,-184 840.0706,-171.5994 813.9238,-150.3952 797.4905,-135.7006"/>
<polygon fill="#191970" stroke="#191970" points="799.5724,-132.8614 789.833,-128.6908 794.8459,-138.0247 799.5724,-132.8614"/>
</g>
<!-- Node32&#45;&gt;Node11 -->
<g id="edge55" class="edge">
<title>Node32&#45;&gt;Node11</title>
<path fill="none" stroke="#191970" d="M1041.6771,-220.4086C1025.9803,-208.0053 1002.6914,-185.0304 1014.3784,-165 1058.0523,-90.1474 1234.4119,-118.4458 1175.3784,-55 1139.1391,-16.052 765.4183,-27.2202 678,-18.5874"/>
<polygon fill="#191970" stroke="#191970" points="678.3789,-15.1073 668.0131,-17.2985 677.4829,-22.0498 678.3789,-15.1073"/>
</g>
<!-- Node32&#45;&gt;Node15 -->
<g id="edge52" class="edge">
<title>Node32&#45;&gt;Node15</title>
<path fill="none" stroke="#191970" d="M1028.705,-220.3467C1002.6866,-209.4854 968.0291,-189.6969 981.3784,-165 996.3,-137.3943 1077.2591,-97.0366 1120.7346,-76.8949"/>
<polygon fill="#191970" stroke="#191970" points="1122.2805,-80.0365 1129.9108,-72.6861 1119.3621,-73.6739 1122.2805,-80.0365"/>
</g>
<!-- Node32&#45;&gt;Node23 -->
<g id="edge49" class="edge">
<title>Node32&#45;&gt;Node23</title>
<path fill="none" stroke="#191970" d="M1009.9186,-220.4146C965.2807,-211.2769 894.5437,-196.7527 833.3784,-184 832.1473,-183.7433 830.8973,-183.4823 829.6355,-183.2183"/>
<polygon fill="#191970" stroke="#191970" points="830.3511,-179.7923 819.8455,-181.164 828.9135,-186.6431 830.3511,-179.7923"/>
</g>
<!-- Node33 -->
<g id="node34" class="node">
<title>Node33</title>
<polygon fill="none" stroke="#bfbfbf" points="1023.5386,-165.5 1023.5386,-183.5 1091.2183,-183.5 1091.2183,-165.5 1023.5386,-165.5"/>
<text text-anchor="middle" x="1057.3784" y="-171.5" font-family="Helvetica,sans-Serif" font-size="10.00" fill="#000000">QByteArray</text>
</g>
<!-- Node32&#45;&gt;Node33 -->
<g id="edge50" class="edge">
<title>Node32&#45;&gt;Node33</title>
<path fill="none" stroke="#191970" d="M1054.8738,-220.4179C1055.2666,-213.2164 1055.8295,-202.8962 1056.3222,-193.8632"/>
<polygon fill="#191970" stroke="#191970" points="1059.8223,-193.9553 1056.8723,-183.7795 1052.8327,-193.574 1059.8223,-193.9553"/>
</g>
<!-- Node34 -->
<g id="node35" class="node">
<title>Node34</title>
<polygon fill="none" stroke="#bfbfbf" points="1109.1914,-165.5 1109.1914,-183.5 1203.5654,-183.5 1203.5654,-165.5 1109.1914,-165.5"/>
<text text-anchor="middle" x="1156.3784" y="-171.5" font-family="Helvetica,sans-Serif" font-size="10.00" fill="#000000">QCoreApplication</text>
</g>
<!-- Node32&#45;&gt;Node34 -->
<g id="edge51" class="edge">
<title>Node32&#45;&gt;Node34</title>
<path fill="none" stroke="#191970" d="M1071.2216,-220.4179C1087.3891,-211.7001 1112.0322,-198.4122 1130.656,-188.3699"/>
<polygon fill="#191970" stroke="#191970" points="1132.3694,-191.4225 1139.5102,-183.5956 1129.0471,-185.2611 1132.3694,-191.4225"/>
</g>
<!-- Node35 -->
<g id="node36" class="node">
<title>Node35</title>
<polygon fill="none" stroke="#bfbfbf" points="1221.4326,-165.5 1221.4326,-183.5 1261.3242,-183.5 1261.3242,-165.5 1221.4326,-165.5"/>
<text text-anchor="middle" x="1241.3784" y="-171.5" font-family="Helvetica,sans-Serif" font-size="10.00" fill="#000000">QFile</text>
</g>
<!-- Node32&#45;&gt;Node35 -->
<g id="edge53" class="edge">
<title>Node32&#45;&gt;Node35</title>
<path fill="none" stroke="#191970" d="M1087.1619,-220.4324C1117.1872,-212.0454 1163.0813,-199.0202 1211.4285,-184.2204"/>
<polygon fill="#191970" stroke="#191970" points="1212.5975,-187.5227 1221.1267,-181.2376 1210.5396,-180.832 1212.5975,-187.5227"/>
</g>
<!-- Node36 -->
<g id="node37" class="node">
<title>Node36</title>
<polygon fill="none" stroke="#bfbfbf" points="1279.8169,-165.5 1279.8169,-183.5 1326.9399,-183.5 1326.9399,-165.5 1279.8169,-165.5"/>
<text text-anchor="middle" x="1303.3784" y="-171.5" font-family="Helvetica,sans-Serif" font-size="10.00" fill="#000000">QHash</text>
</g>
<!-- Node32&#45;&gt;Node36 -->
<g id="edge54" class="edge">
<title>Node32&#45;&gt;Node36</title>
<path fill="none" stroke="#191970" d="M1098.8576,-221.1121C1140.54,-213.0323 1204.7802,-200.0207 1269.649,-184.041"/>
<polygon fill="#191970" stroke="#191970" points="1270.7809,-187.3662 1279.641,-181.5568 1269.092,-180.5729 1270.7809,-187.3662"/>
</g>
<!-- Node37 -->
<g id="node38" class="node">
<title>Node37</title>
<polygon fill="none" stroke="#bfbfbf" points="1345.0928,-165.5 1345.0928,-183.5 1391.6641,-183.5 1391.6641,-165.5 1345.0928,-165.5"/>
<text text-anchor="middle" x="1368.3784" y="-171.5" font-family="Helvetica,sans-Serif" font-size="10.00" fill="#000000">QPoint</text>
</g>
<!-- Node32&#45;&gt;Node37 -->
<g id="edge56" class="edge">
<title>Node32&#45;&gt;Node37</title>
<path fill="none" stroke="#191970" d="M1098.678,-224.1458C1152.4875,-217.2473 1246.1398,-203.9745 1335.0722,-184.0691"/>
<polygon fill="#191970" stroke="#191970" points="1336.0751,-187.4305 1345.0515,-181.8025 1334.5246,-180.6044 1336.0751,-187.4305"/>
</g>
<!-- Node38 -->
<g id="node39" class="node">
<title>Node38</title>
<polygon fill="none" stroke="#bfbfbf" points="1409.4229,-165.5 1409.4229,-183.5 1469.334,-183.5 1469.334,-165.5 1409.4229,-165.5"/>
<text text-anchor="middle" x="1439.3784" y="-171.5" font-family="Helvetica,sans-Serif" font-size="10.00" fill="#000000">QSettings</text>
</g>
<!-- Node32&#45;&gt;Node38 -->
<g id="edge57" class="edge">
<title>Node32&#45;&gt;Node38</title>
<path fill="none" stroke="#191970" d="M1098.5874,-225.2343C1162.7397,-218.7053 1285.5264,-204.9361 1399.2919,-184.0348"/>
<polygon fill="#191970" stroke="#191970" points="1400.0233,-187.4588 1409.2146,-182.189 1398.7431,-180.5769 1400.0233,-187.4588"/>
</g>
<!-- Node39 -->
<g id="node40" class="node">
<title>Node39</title>
<polygon fill="none" stroke="#bfbfbf" points="1487.7627,-165.5 1487.7627,-183.5 1530.9941,-183.5 1530.9941,-165.5 1487.7627,-165.5"/>
<text text-anchor="middle" x="1509.3784" y="-171.5" font-family="Helvetica,sans-Serif" font-size="10.00" fill="#000000">QSize</text>
</g>
<!-- Node32&#45;&gt;Node39 -->
<g id="edge58" class="edge">
<title>Node32&#45;&gt;Node39</title>
<path fill="none" stroke="#191970" d="M1098.7527,-227.5217C1174.656,-223.5352 1334.2862,-212.5264 1477.6419,-183.7801"/>
<polygon fill="#191970" stroke="#191970" points="1478.3977,-187.1981 1487.4966,-181.7704 1476.9988,-180.3393 1478.3977,-187.1981"/>
</g>
<!-- Node40 -->
<g id="node41" class="node">
<title>Node40</title>
<polygon fill="none" stroke="#bfbfbf" points="875.0156,-165.5 875.0156,-183.5 929.7412,-183.5 929.7412,-165.5 875.0156,-165.5"/>
<text text-anchor="middle" x="902.3784" y="-171.5" font-family="Helvetica,sans-Serif" font-size="10.00" fill="#000000">QVariant</text>
</g>
<!-- Node32&#45;&gt;Node40 -->
<g id="edge59" class="edge">
<title>Node32&#45;&gt;Node40</title>
<path fill="none" stroke="#191970" d="M1029.2787,-220.4179C1004.0105,-211.2748 964.8493,-197.1046 936.7139,-186.924"/>
<polygon fill="#191970" stroke="#191970" points="937.857,-183.6156 927.2628,-183.5042 935.4752,-190.198 937.857,-183.6156"/>
</g>
<!-- Node42 -->
<g id="node43" class="node">
<title>Node42</title>
<polygon fill="none" stroke="#bfbfbf" points="1977.5928,-220.5 1977.5928,-238.5 2029.1641,-238.5 2029.1641,-220.5 1977.5928,-220.5"/>
<text text-anchor="middle" x="2003.3784" y="-226.5" font-family="Helvetica,sans-Serif" font-size="10.00" fill="#000000">QAction</text>
</g>
<!-- Node41&#45;&gt;Node42 -->
<g id="edge61" class="edge">
<title>Node41&#45;&gt;Node42</title>
<path fill="none" stroke="#191970" d="M1779.1592,-277.1109C1782.2682,-276.3798 1785.3848,-275.6637 1788.3784,-275 1864.9175,-258.0317 1887.24,-257.696 1967.3686,-239.1109"/>
<polygon fill="#191970" stroke="#191970" points="1968.4971,-242.4414 1977.4345,-236.7517 1966.8996,-235.6261 1968.4971,-242.4414"/>
</g>
<!-- Node43 -->
<g id="node44" class="node">
<title>Node43</title>
<polygon fill="none" stroke="#bfbfbf" points="2047.0288,-220.5 2047.0288,-238.5 2119.728,-238.5 2119.728,-220.5 2047.0288,-220.5"/>
<text text-anchor="middle" x="2083.3784" y="-226.5" font-family="Helvetica,sans-Serif" font-size="10.00" fill="#000000">QApplication</text>
</g>
<!-- Node41&#45;&gt;Node43 -->
<g id="edge62" class="edge">
<title>Node41&#45;&gt;Node43</title>
<path fill="none" stroke="#191970" d="M1779.1244,-276.9429C1782.2401,-276.2446 1785.3679,-275.582 1788.3784,-275 1895.4733,-254.295 1926.1245,-258.347 2036.7032,-239.2061"/>
<polygon fill="#191970" stroke="#191970" points="2037.3353,-242.6488 2046.5794,-237.4722 2036.1248,-235.7542 2037.3353,-242.6488"/>
</g>
<!-- Node41&#45;&gt;Node44 -->
<g id="edge63" class="edge">
<title>Node41&#45;&gt;Node44</title>
<path fill="none" stroke="#191970" d="M1735.6727,-275.4179C1722.9373,-266.9788 1703.7389,-254.257 1688.7772,-244.3426"/>
<polygon fill="#191970" stroke="#191970" points="1690.3738,-241.2019 1680.1045,-238.5956 1686.5071,-247.037 1690.3738,-241.2019"/>
</g>
<!-- Node45 -->
<g id="node46" class="node">
<title>Node45</title>
<polygon fill="none" stroke="#bfbfbf" points="1724.9819,-220.5 1724.9819,-238.5 1773.7749,-238.5 1773.7749,-220.5 1724.9819,-220.5"/>
<text text-anchor="middle" x="1749.3784" y="-226.5" font-family="Helvetica,sans-Serif" font-size="10.00" fill="#000000">QMenu</text>
</g>
<!-- Node41&#45;&gt;Node45 -->
<g id="edge64" class="edge">
<title>Node41&#45;&gt;Node45</title>
<path fill="none" stroke="#191970" d="M1749.3784,-275.4179C1749.3784,-268.2164 1749.3784,-257.8962 1749.3784,-248.8632"/>
<polygon fill="#191970" stroke="#191970" points="1752.8785,-248.7794 1749.3784,-238.7795 1745.8785,-248.7795 1752.8785,-248.7794"/>
</g>
<!-- Node46 -->
<g id="node47" class="node">
<title>Node46</title>
<polygon fill="none" stroke="#bfbfbf" points="1791.5518,-220.5 1791.5518,-238.5 1887.2051,-238.5 1887.2051,-220.5 1791.5518,-220.5"/>
<text text-anchor="middle" x="1839.3784" y="-226.5" font-family="Helvetica,sans-Serif" font-size="10.00" fill="#000000">QSystemTrayIcon</text>
</g>
<!-- Node41&#45;&gt;Node46 -->
<g id="edge65" class="edge">
<title>Node41&#45;&gt;Node46</title>
<path fill="none" stroke="#191970" d="M1764.2401,-275.4179C1778.1798,-266.8992 1799.2604,-254.0166 1815.5485,-244.0627"/>
<polygon fill="#191970" stroke="#191970" points="1817.7869,-246.7967 1824.4947,-238.5956 1814.1367,-240.8237 1817.7869,-246.7967"/>
</g>
<!-- Node47 -->
<g id="node48" class="node">
<title>Node47</title>
<polygon fill="none" stroke="#bfbfbf" points="1904.9277,-220.5 1904.9277,-238.5 1959.8291,-238.5 1959.8291,-220.5 1904.9277,-220.5"/>
<text text-anchor="middle" x="1932.3784" y="-226.5" font-family="Helvetica,sans-Serif" font-size="10.00" fill="#000000">QWidget</text>
</g>
<!-- Node41&#45;&gt;Node47 -->
<g id="edge66" class="edge">
<title>Node41&#45;&gt;Node47</title>
<path fill="none" stroke="#191970" d="M1779.1878,-275.5409C1810.8057,-266.0383 1860.819,-251.0069 1895.0405,-240.7218"/>
<polygon fill="#191970" stroke="#191970" points="1896.1108,-244.0548 1904.6802,-237.8246 1894.0959,-237.3511 1896.1108,-244.0548"/>
</g>
</g>
</svg>
