<?xml version="1.0" encoding="UTF-8" standalone="no"?>
<!DOCTYPE svg PUBLIC "-//W3C//DTD SVG 1.1//EN"
 "http://www.w3.org/Graphics/SVG/1.1/DTD/svg11.dtd">
<!-- Generated by graphviz version 2.38.0 (20140413.2041)
 -->
<!-- Title: main.cpp Pages: 1 -->
<svg width="1201pt" height="302pt"
 viewBox="0.00 0.00 1200.53 302.00" xmlns="http://www.w3.org/2000/svg" xmlns:xlink="http://www.w3.org/1999/xlink">
<g id="graph0" class="graph" transform="scale(1 1) rotate(0) translate(4 298)">
<title>main.cpp</title>
<!-- Node0 -->
<g id="node1" class="node"><title>Node0</title>
<polygon fill="#bfbfbf" stroke="black" points="1064.89,-275.5 1064.89,-293.5 1121.47,-293.5 1121.47,-275.5 1064.89,-275.5"/>
<text text-anchor="middle" x="1093.18" y="-281.5" font-family="Helvetica,sans-Serif" font-size="10.00">main.cpp</text>
</g>
<!-- Node1 -->
<g id="node2" class="node"><title>Node1</title>
<g id="a_node2"><a xlink:href="mainwindow_8h.html" target="_top" xlink:title="mainwindow.h">
<polygon fill="none" stroke="black" points="378.769,-220.5 378.769,-238.5 457.586,-238.5 457.586,-220.5 378.769,-220.5"/>
<text text-anchor="middle" x="418.177" y="-226.5" font-family="Helvetica,sans-Serif" font-size="10.00">mainwindow.h</text>
</a>
</g>
</g>
<!-- Node0&#45;&gt;Node1 -->
<g id="edge1" class="edge"><title>Node0&#45;&gt;Node1</title>
<path fill="none" stroke="midnightblue" d="M1064.6,-281.257C960.527,-273.084 600.856,-244.844 468.002,-234.412"/>
<polygon fill="midnightblue" stroke="midnightblue" points="467.96,-230.898 457.717,-233.605 467.412,-237.877 467.96,-230.898"/>
</g>
<!-- Node21 -->
<g id="node22" class="node"><title>Node21</title>
<polygon fill="none" stroke="#bfbfbf" points="1119.83,-110.5 1119.83,-128.5 1192.53,-128.5 1192.53,-110.5 1119.83,-110.5"/>
<text text-anchor="middle" x="1156.18" y="-116.5" font-family="Helvetica,sans-Serif" font-size="10.00">QApplication</text>
</g>
<!-- Node0&#45;&gt;Node21 -->
<g id="edge36" class="edge"><title>Node0&#45;&gt;Node21</title>
<path fill="none" stroke="midnightblue" d="M1095.31,-275.171C1098.53,-262.931 1105.01,-239.432 1112.18,-220 1123.04,-190.56 1138.34,-157.425 1147.74,-137.79"/>
<polygon fill="midnightblue" stroke="midnightblue" points="1150.97,-139.138 1152.17,-128.612 1144.67,-136.092 1150.97,-139.138"/>
</g>
<!-- Node28 -->
<g id="node29" class="node"><title>Node28</title>
<polygon fill="none" stroke="#bfbfbf" points="1120.96,-220.5 1120.96,-238.5 1189.39,-238.5 1189.39,-220.5 1120.96,-220.5"/>
<text text-anchor="middle" x="1155.18" y="-226.5" font-family="Helvetica,sans-Serif" font-size="10.00">QTranslator</text>
</g>
<!-- Node0&#45;&gt;Node28 -->
<g id="edge37" class="edge"><title>Node0&#45;&gt;Node28</title>
<path fill="none" stroke="midnightblue" d="M1102.59,-275.45C1111.97,-267.434 1126.58,-254.947 1138.02,-245.166"/>
<polygon fill="midnightblue" stroke="midnightblue" points="1140.35,-247.784 1145.67,-238.625 1135.8,-242.463 1140.35,-247.784"/>
</g>
<!-- Node2 -->
<g id="node3" class="node"><title>Node2</title>
<g id="a_node3"><a xlink:href="enums_8h.html" target="_top" xlink:title="enums.h">
<polygon fill="none" stroke="black" points="0,-55.5 0,-73.5 54.3545,-73.5 54.3545,-55.5 0,-55.5"/>
<text text-anchor="middle" x="27.1772" y="-61.5" font-family="Helvetica,sans-Serif" font-size="10.00">enums.h</text>
</a>
</g>
</g>
<!-- Node1&#45;&gt;Node2 -->
<g id="edge2" class="edge"><title>Node1&#45;&gt;Node2</title>
<path fill="none" stroke="midnightblue" d="M378.5,-228.335C298.158,-227.225 119.891,-220.585 73.1772,-184 41.8484,-159.464 31.8315,-110.702 28.6469,-84.0141"/>
<polygon fill="midnightblue" stroke="midnightblue" points="32.1008,-83.3742 27.635,-73.7665 25.1347,-84.062 32.1008,-83.3742"/>
</g>
<!-- Node3 -->
<g id="node4" class="node"><title>Node3</title>
<g id="a_node4"><a xlink:href="imitatepass_8h.html" target="_top" xlink:title="imitatepass.h">
<polygon fill="none" stroke="black" points="81.7192,-165.5 81.7192,-183.5 156.635,-183.5 156.635,-165.5 81.7192,-165.5"/>
<text text-anchor="middle" x="119.177" y="-171.5" font-family="Helvetica,sans-Serif" font-size="10.00">imitatepass.h</text>
</a>
</g>
</g>
<!-- Node1&#45;&gt;Node3 -->
<g id="edge3" class="edge"><title>Node1&#45;&gt;Node3</title>
<path fill="none" stroke="midnightblue" d="M378.472,-221.462C323.774,-211.766 225.374,-194.324 166.791,-183.94"/>
<polygon fill="midnightblue" stroke="midnightblue" points="167.145,-180.448 156.688,-182.149 165.923,-187.341 167.145,-180.448"/>
</g>
<!-- Node4 -->
<g id="node5" class="node"><title>Node4</title>
<g id="a_node5"><a xlink:href="pass_8h.html" target="_top" xlink:title="pass.h">
<polygon fill="none" stroke="black" points="161.446,-110.5 161.446,-128.5 206.909,-128.5 206.909,-110.5 161.446,-110.5"/>
<text text-anchor="middle" x="184.177" y="-116.5" font-family="Helvetica,sans-Serif" font-size="10.00">pass.h</text>
</a>
</g>
</g>
<!-- Node1&#45;&gt;Node4 -->
<g id="edge16" class="edge"><title>Node1&#45;&gt;Node4</title>
<path fill="none" stroke="midnightblue" d="M378.35,-225.102C323.419,-219.626 228.322,-207.056 203.177,-184 190.729,-172.586 186.309,-153.389 184.804,-139.084"/>
<polygon fill="midnightblue" stroke="midnightblue" points="188.283,-138.647 184.124,-128.902 181.298,-139.113 188.283,-138.647"/>
</g>
<!-- Node6 -->
<g id="node7" class="node"><title>Node6</title>
<polygon fill="none" stroke="#bfbfbf" points="272.227,-55.5 272.227,-73.5 332.128,-73.5 332.128,-55.5 272.227,-55.5"/>
<text text-anchor="middle" x="302.177" y="-61.5" font-family="Helvetica,sans-Serif" font-size="10.00">QProcess</text>
</g>
<!-- Node1&#45;&gt;Node6 -->
<g id="edge32" class="edge"><title>Node1&#45;&gt;Node6</title>
<path fill="none" stroke="midnightblue" d="M408.016,-220.365C397.91,-211.952 382.342,-198.092 371.177,-184 345.035,-151.003 322.086,-107.051 310.392,-83.0221"/>
<polygon fill="midnightblue" stroke="midnightblue" points="313.437,-81.2761 305.966,-73.7635 307.121,-84.2952 313.437,-81.2761"/>
</g>
<!-- Node7 -->
<g id="node8" class="node"><title>Node7</title>
<polygon fill="none" stroke="#bfbfbf" points="350.276,-55.5 350.276,-73.5 404.079,-73.5 404.079,-55.5 350.276,-55.5"/>
<text text-anchor="middle" x="377.177" y="-61.5" font-family="Helvetica,sans-Serif" font-size="10.00">QQueue</text>
</g>
<!-- Node1&#45;&gt;Node7 -->
<g id="edge33" class="edge"><title>Node1&#45;&gt;Node7</title>
<path fill="none" stroke="midnightblue" d="M411.284,-220.43C398.05,-204.341 369.48,-166.574 359.177,-129 354.874,-113.304 360.886,-95.4788 367.092,-82.718"/>
<polygon fill="midnightblue" stroke="midnightblue" points="370.282,-84.1752 371.918,-73.7073 364.111,-80.8705 370.282,-84.1752"/>
</g>
<!-- Node14 -->
<g id="node15" class="node"><title>Node14</title>
<g id="a_node15"><a xlink:href="realpass_8h.html" target="_top" xlink:title="realpass.h">
<polygon fill="none" stroke="black" points="212.108,-165.5 212.108,-183.5 274.246,-183.5 274.246,-165.5 212.108,-165.5"/>
<text text-anchor="middle" x="243.177" y="-171.5" font-family="Helvetica,sans-Serif" font-size="10.00">realpass.h</text>
</a>
</g>
</g>
<!-- Node1&#45;&gt;Node14 -->
<g id="edge17" class="edge"><title>Node1&#45;&gt;Node14</title>
<path fill="none" stroke="midnightblue" d="M391.599,-220.45C361.703,-211.396 312.973,-196.638 279.559,-186.519"/>
<polygon fill="midnightblue" stroke="midnightblue" points="280.304,-183.087 269.719,-183.538 278.275,-189.787 280.304,-183.087"/>
</g>
<!-- Node15 -->
<g id="node16" class="node"><title>Node15</title>
<g id="a_node16"><a xlink:href="storemodel_8h.html" target="_top" xlink:title="storemodel.h">
<polygon fill="none" stroke="black" points="463.273,-165.5 463.273,-183.5 537.081,-183.5 537.081,-165.5 463.273,-165.5"/>
<text text-anchor="middle" x="500.177" y="-171.5" font-family="Helvetica,sans-Serif" font-size="10.00">storemodel.h</text>
</a>
</g>
</g>
<!-- Node1&#45;&gt;Node15 -->
<g id="edge19" class="edge"><title>Node1&#45;&gt;Node15</title>
<path fill="none" stroke="midnightblue" d="M430.631,-220.45C443.395,-212.201 463.485,-199.216 478.797,-189.319"/>
<polygon fill="midnightblue" stroke="midnightblue" points="481.107,-191.993 487.606,-183.625 477.308,-186.114 481.107,-191.993"/>
</g>
<!-- Node16 -->
<g id="node17" class="node"><title>Node16</title>
<polygon fill="none" stroke="#bfbfbf" points="367.943,-110.5 367.943,-128.5 468.411,-128.5 468.411,-110.5 367.943,-110.5"/>
<text text-anchor="middle" x="418.177" y="-116.5" font-family="Helvetica,sans-Serif" font-size="10.00">QFileSystemModel</text>
</g>
<!-- Node1&#45;&gt;Node16 -->
<g id="edge30" class="edge"><title>Node1&#45;&gt;Node16</title>
<path fill="none" stroke="midnightblue" d="M418.177,-220.382C418.177,-203.182 418.177,-162.698 418.177,-138.887"/>
<polygon fill="midnightblue" stroke="midnightblue" points="421.677,-138.712 418.177,-128.712 414.677,-138.712 421.677,-138.712"/>
</g>
<!-- Node19 -->
<g id="node20" class="node"><title>Node19</title>
<g id="a_node20"><a xlink:href="trayicon_8h.html" target="_top" xlink:title="trayicon.h">
<polygon fill="none" stroke="black" points="793.5,-165.5 793.5,-183.5 852.854,-183.5 852.854,-165.5 793.5,-165.5"/>
<text text-anchor="middle" x="823.177" y="-171.5" font-family="Helvetica,sans-Serif" font-size="10.00">trayicon.h</text>
</a>
</g>
</g>
<!-- Node1&#45;&gt;Node19 -->
<g id="edge23" class="edge"><title>Node1&#45;&gt;Node19</title>
<path fill="none" stroke="midnightblue" d="M457.748,-223.322C535.023,-213.209 705.223,-190.936 782.99,-180.759"/>
<polygon fill="midnightblue" stroke="midnightblue" points="783.869,-184.174 793.331,-179.406 782.961,-177.233 783.869,-184.174"/>
</g>
<!-- Node22 -->
<g id="node23" class="node"><title>Node22</title>
<polygon fill="none" stroke="#bfbfbf" points="698.667,-110.5 698.667,-128.5 779.687,-128.5 779.687,-110.5 698.667,-110.5"/>
<text text-anchor="middle" x="739.177" y="-116.5" font-family="Helvetica,sans-Serif" font-size="10.00">QMainWindow</text>
</g>
<!-- Node1&#45;&gt;Node22 -->
<g id="edge31" class="edge"><title>Node1&#45;&gt;Node22</title>
<path fill="none" stroke="midnightblue" d="M442.042,-220.471C498.451,-201.492 640.156,-153.816 705.37,-131.874"/>
<polygon fill="midnightblue" stroke="midnightblue" points="706.793,-135.088 715.155,-128.582 704.561,-128.454 706.793,-135.088"/>
</g>
<!-- Node26 -->
<g id="node27" class="node"><title>Node26</title>
<polygon fill="none" stroke="#bfbfbf" points="870.695,-165.5 870.695,-183.5 919.659,-183.5 919.659,-165.5 870.695,-165.5"/>
<text text-anchor="middle" x="895.177" y="-171.5" font-family="Helvetica,sans-Serif" font-size="10.00">QTimer</text>
</g>
<!-- Node1&#45;&gt;Node26 -->
<g id="edge34" class="edge"><title>Node1&#45;&gt;Node26</title>
<path fill="none" stroke="midnightblue" d="M457.654,-226.564C533.851,-222.393 706.577,-210.825 860.303,-184.096"/>
<polygon fill="midnightblue" stroke="midnightblue" points="861.161,-187.499 870.4,-182.313 859.944,-180.605 861.161,-187.499"/>
</g>
<!-- Node27 -->
<g id="node28" class="node"><title>Node27</title>
<polygon fill="none" stroke="#bfbfbf" points="937.441,-165.5 937.441,-183.5 1002.91,-183.5 1002.91,-165.5 937.441,-165.5"/>
<text text-anchor="middle" x="970.177" y="-171.5" font-family="Helvetica,sans-Serif" font-size="10.00">QTreeView</text>
</g>
<!-- Node1&#45;&gt;Node27 -->
<g id="edge35" class="edge"><title>Node1&#45;&gt;Node27</title>
<path fill="none" stroke="midnightblue" d="M457.704,-226.571C542.088,-222.127 746.231,-209.636 927.256,-183.965"/>
<polygon fill="midnightblue" stroke="midnightblue" points="927.822,-187.419 937.223,-182.534 926.828,-180.49 927.822,-187.419"/>
</g>
<!-- Node3&#45;&gt;Node4 -->
<g id="edge4" class="edge"><title>Node3&#45;&gt;Node4</title>
<path fill="none" stroke="midnightblue" d="M129.049,-165.45C138.88,-157.434 154.195,-144.947 166.19,-135.166"/>
<polygon fill="midnightblue" stroke="midnightblue" points="168.674,-137.657 174.212,-128.625 164.25,-132.232 168.674,-137.657"/>
</g>
<!-- Node4&#45;&gt;Node2 -->
<g id="edge9" class="edge"><title>Node4&#45;&gt;Node2</title>
<path fill="none" stroke="midnightblue" d="M161.348,-110.793C134.911,-101.869 91.117,-87.0848 60.7882,-76.8464"/>
<polygon fill="midnightblue" stroke="midnightblue" points="61.6577,-73.4459 51.0635,-73.5635 59.4187,-80.0782 61.6577,-73.4459"/>
</g>
<!-- Node5 -->
<g id="node6" class="node"><title>Node5</title>
<polygon fill="none" stroke="#bfbfbf" points="47.5073,-0.5 47.5073,-18.5 86.8472,-18.5 86.8472,-0.5 47.5073,-0.5"/>
<text text-anchor="middle" x="67.1772" y="-6.5" font-family="Helvetica,sans-Serif" font-size="10.00">QList</text>
</g>
<!-- Node4&#45;&gt;Node5 -->
<g id="edge5" class="edge"><title>Node4&#45;&gt;Node5</title>
<path fill="none" stroke="midnightblue" d="M161.09,-110.413C143.013,-103.149 118.168,-90.9998 101.177,-74 88.2156,-61.0312 78.948,-42.0872 73.3949,-28.2671"/>
<polygon fill="midnightblue" stroke="midnightblue" points="76.6632,-27.0142 69.8729,-18.8814 70.1094,-29.4736 76.6632,-27.0142"/>
</g>
<!-- Node4&#45;&gt;Node6 -->
<g id="edge6" class="edge"><title>Node4&#45;&gt;Node6</title>
<path fill="none" stroke="midnightblue" d="M202.099,-110.45C221.419,-101.773 252.404,-87.8556 274.783,-77.8041"/>
<polygon fill="midnightblue" stroke="midnightblue" points="276.399,-80.9153 284.087,-73.6253 273.531,-74.5298 276.399,-80.9153"/>
</g>
<!-- Node4&#45;&gt;Node7 -->
<g id="edge7" class="edge"><title>Node4&#45;&gt;Node7</title>
<path fill="none" stroke="midnightblue" d="M207.075,-112.212C239.959,-103.182 300.917,-86.4418 340.228,-75.6466"/>
<polygon fill="midnightblue" stroke="midnightblue" points="341.253,-78.9948 349.969,-72.9716 339.4,-72.2447 341.253,-78.9948"/>
</g>
<!-- Node8 -->
<g id="node9" class="node"><title>Node8</title>
<polygon fill="none" stroke="#bfbfbf" points="110.227,-55.5 110.227,-73.5 160.128,-73.5 160.128,-55.5 110.227,-55.5"/>
<text text-anchor="middle" x="135.177" y="-61.5" font-family="Helvetica,sans-Serif" font-size="10.00">QString</text>
</g>
<!-- Node4&#45;&gt;Node8 -->
<g id="edge8" class="edge"><title>Node4&#45;&gt;Node8</title>
<path fill="none" stroke="midnightblue" d="M176.521,-110.219C169.36,-102.473 158.477,-90.7013 149.674,-81.1799"/>
<polygon fill="midnightblue" stroke="midnightblue" points="151.978,-78.5163 142.619,-73.5496 146.838,-83.2683 151.978,-78.5163"/>
</g>
<!-- Node9 -->
<g id="node10" class="node"><title>Node9</title>
<g id="a_node10"><a xlink:href="usersdialog_8h.html" target="_top" xlink:title="usersdialog.h">
<polygon fill="none" stroke="black" points="178.436,-55.5 178.436,-73.5 253.918,-73.5 253.918,-55.5 178.436,-55.5"/>
<text text-anchor="middle" x="216.177" y="-61.5" font-family="Helvetica,sans-Serif" font-size="10.00">usersdialog.h</text>
</a>
</g>
</g>
<!-- Node4&#45;&gt;Node9 -->
<g id="edge10" class="edge"><title>Node4&#45;&gt;Node9</title>
<path fill="none" stroke="midnightblue" d="M189.177,-110.219C193.665,-102.786 200.391,-91.646 206.007,-82.3446"/>
<polygon fill="midnightblue" stroke="midnightblue" points="209.145,-83.9193 211.317,-73.5496 203.152,-80.3012 209.145,-83.9193"/>
</g>
<!-- Node9&#45;&gt;Node5 -->
<g id="edge14" class="edge"><title>Node9&#45;&gt;Node5</title>
<path fill="none" stroke="midnightblue" d="M193.547,-55.4504C167.622,-46.2286 125.059,-31.0889 96.585,-20.9605"/>
<polygon fill="midnightblue" stroke="midnightblue" points="97.7459,-17.6586 87.1512,-17.6048 95.3999,-24.2538 97.7459,-17.6586"/>
</g>
<!-- Node10 -->
<g id="node11" class="node"><title>Node10</title>
<polygon fill="none" stroke="#bfbfbf" points="104.719,-0.5 104.719,-18.5 179.635,-18.5 179.635,-0.5 104.719,-0.5"/>
<text text-anchor="middle" x="142.177" y="-6.5" font-family="Helvetica,sans-Serif" font-size="10.00">QCloseEvent</text>
</g>
<!-- Node9&#45;&gt;Node10 -->
<g id="edge11" class="edge"><title>Node9&#45;&gt;Node10</title>
<path fill="none" stroke="midnightblue" d="M204.938,-55.4504C193.529,-47.2788 175.631,-34.4604 161.864,-24.5996"/>
<polygon fill="midnightblue" stroke="midnightblue" points="163.69,-21.6027 153.522,-18.6253 159.614,-27.2936 163.69,-21.6027"/>
</g>
<!-- Node11 -->
<g id="node12" class="node"><title>Node11</title>
<polygon fill="none" stroke="#bfbfbf" points="197.799,-0.5 197.799,-18.5 264.556,-18.5 264.556,-0.5 197.799,-0.5"/>
<text text-anchor="middle" x="231.177" y="-6.5" font-family="Helvetica,sans-Serif" font-size="10.00">QDateTime</text>
</g>
<!-- Node9&#45;&gt;Node11 -->
<g id="edge12" class="edge"><title>Node9&#45;&gt;Node11</title>
<path fill="none" stroke="midnightblue" d="M218.521,-55.2188C220.558,-48.0204 223.579,-37.3458 226.159,-28.2311"/>
<polygon fill="midnightblue" stroke="midnightblue" points="229.543,-29.1248 228.899,-18.5496 222.808,-27.2185 229.543,-29.1248"/>
</g>
<!-- Node12 -->
<g id="node13" class="node"><title>Node12</title>
<polygon fill="none" stroke="#bfbfbf" points="282.113,-0.5 282.113,-18.5 334.241,-18.5 334.241,-0.5 282.113,-0.5"/>
<text text-anchor="middle" x="308.177" y="-6.5" font-family="Helvetica,sans-Serif" font-size="10.00">QDialog</text>
</g>
<!-- Node9&#45;&gt;Node12 -->
<g id="edge13" class="edge"><title>Node9&#45;&gt;Node12</title>
<path fill="none" stroke="midnightblue" d="M230.15,-55.4504C244.74,-47.0453 267.864,-33.7241 285.157,-23.7618"/>
<polygon fill="midnightblue" stroke="midnightblue" points="287.155,-26.6499 294.073,-18.6253 283.661,-20.5844 287.155,-26.6499"/>
</g>
<!-- Node13 -->
<g id="node14" class="node"><title>Node13</title>
<polygon fill="none" stroke="#bfbfbf" points="352.653,-0.5 352.653,-18.5 463.702,-18.5 463.702,-0.5 352.653,-0.5"/>
<text text-anchor="middle" x="408.177" y="-6.5" font-family="Helvetica,sans-Serif" font-size="10.00">QStandardItemModel</text>
</g>
<!-- Node9&#45;&gt;Node13 -->
<g id="edge15" class="edge"><title>Node9&#45;&gt;Node13</title>
<path fill="none" stroke="midnightblue" d="M245.338,-55.4504C278.42,-46.3184 332.525,-31.3833 369.205,-21.2578"/>
<polygon fill="midnightblue" stroke="midnightblue" points="370.349,-24.5731 379.057,-18.5383 368.487,-17.8255 370.349,-24.5731"/>
</g>
<!-- Node14&#45;&gt;Node4 -->
<g id="edge18" class="edge"><title>Node14&#45;&gt;Node4</title>
<path fill="none" stroke="midnightblue" d="M234.216,-165.45C225.38,-157.512 211.661,-145.189 200.822,-135.452"/>
<polygon fill="midnightblue" stroke="midnightblue" points="203.001,-132.704 193.222,-128.625 198.323,-137.912 203.001,-132.704"/>
</g>
<!-- Node15&#45;&gt;Node16 -->
<g id="edge20" class="edge"><title>Node15&#45;&gt;Node16</title>
<path fill="none" stroke="midnightblue" d="M487.723,-165.45C474.96,-157.201 454.87,-144.216 439.557,-134.319"/>
<polygon fill="midnightblue" stroke="midnightblue" points="441.047,-131.114 430.748,-128.625 437.247,-136.993 441.047,-131.114"/>
</g>
<!-- Node17 -->
<g id="node18" class="node"><title>Node17</title>
<polygon fill="none" stroke="#bfbfbf" points="486.5,-110.5 486.5,-128.5 545.854,-128.5 545.854,-110.5 486.5,-110.5"/>
<text text-anchor="middle" x="516.177" y="-116.5" font-family="Helvetica,sans-Serif" font-size="10.00">QRegExp</text>
</g>
<!-- Node15&#45;&gt;Node17 -->
<g id="edge21" class="edge"><title>Node15&#45;&gt;Node17</title>
<path fill="none" stroke="midnightblue" d="M502.677,-165.219C504.85,-158.02 508.073,-147.346 510.824,-138.231"/>
<polygon fill="midnightblue" stroke="midnightblue" points="514.208,-139.134 513.747,-128.55 507.506,-137.111 514.208,-139.134"/>
</g>
<!-- Node18 -->
<g id="node19" class="node"><title>Node18</title>
<polygon fill="none" stroke="#bfbfbf" points="563.608,-110.5 563.608,-128.5 680.746,-128.5 680.746,-110.5 563.608,-110.5"/>
<text text-anchor="middle" x="622.177" y="-116.5" font-family="Helvetica,sans-Serif" font-size="10.00">QSortFilterProxyModel</text>
</g>
<!-- Node15&#45;&gt;Node18 -->
<g id="edge22" class="edge"><title>Node15&#45;&gt;Node18</title>
<path fill="none" stroke="midnightblue" d="M518.706,-165.45C538.771,-156.734 571.005,-142.731 594.165,-132.669"/>
<polygon fill="midnightblue" stroke="midnightblue" points="595.696,-135.82 603.474,-128.625 592.907,-129.4 595.696,-135.82"/>
</g>
<!-- Node20 -->
<g id="node21" class="node"><title>Node20</title>
<polygon fill="none" stroke="#bfbfbf" points="797.392,-110.5 797.392,-128.5 848.963,-128.5 848.963,-110.5 797.392,-110.5"/>
<text text-anchor="middle" x="823.177" y="-116.5" font-family="Helvetica,sans-Serif" font-size="10.00">QAction</text>
</g>
<!-- Node19&#45;&gt;Node20 -->
<g id="edge24" class="edge"><title>Node19&#45;&gt;Node20</title>
<path fill="none" stroke="midnightblue" d="M823.177,-165.219C823.177,-158.177 823.177,-147.808 823.177,-138.828"/>
<polygon fill="midnightblue" stroke="midnightblue" points="826.677,-138.55 823.177,-128.55 819.677,-138.55 826.677,-138.55"/>
</g>
<!-- Node19&#45;&gt;Node21 -->
<g id="edge25" class="edge"><title>Node19&#45;&gt;Node21</title>
<path fill="none" stroke="midnightblue" d="M852.944,-166.786C856.056,-166.152 859.177,-165.544 862.177,-165 968.664,-145.692 998.604,-147.027 1109.62,-129.026"/>
<polygon fill="midnightblue" stroke="midnightblue" points="1110.24,-132.472 1119.54,-127.401 1109.11,-125.564 1110.24,-132.472"/>
</g>
<!-- Node19&#45;&gt;Node22 -->
<g id="edge26" class="edge"><title>Node19&#45;&gt;Node22</title>
<path fill="none" stroke="midnightblue" d="M810.419,-165.45C797.221,-157.123 776.376,-143.97 760.636,-134.039"/>
<polygon fill="midnightblue" stroke="midnightblue" points="762.38,-131.001 752.055,-128.625 758.645,-136.922 762.38,-131.001"/>
</g>
<!-- Node23 -->
<g id="node24" class="node"><title>Node23</title>
<polygon fill="none" stroke="#bfbfbf" points="866.781,-110.5 866.781,-128.5 915.574,-128.5 915.574,-110.5 866.781,-110.5"/>
<text text-anchor="middle" x="891.177" y="-116.5" font-family="Helvetica,sans-Serif" font-size="10.00">QMenu</text>
</g>
<!-- Node19&#45;&gt;Node23 -->
<g id="edge27" class="edge"><title>Node19&#45;&gt;Node23</title>
<path fill="none" stroke="midnightblue" d="M833.505,-165.45C843.889,-157.357 860.123,-144.704 872.725,-134.882"/>
<polygon fill="midnightblue" stroke="midnightblue" points="875.017,-137.533 880.752,-128.625 870.713,-132.012 875.017,-137.533"/>
</g>
<!-- Node24 -->
<g id="node25" class="node"><title>Node24</title>
<polygon fill="none" stroke="#bfbfbf" points="933.351,-110.5 933.351,-128.5 1029,-128.5 1029,-110.5 933.351,-110.5"/>
<text text-anchor="middle" x="981.177" y="-116.5" font-family="Helvetica,sans-Serif" font-size="10.00">QSystemTrayIcon</text>
</g>
<!-- Node19&#45;&gt;Node24 -->
<g id="edge28" class="edge"><title>Node19&#45;&gt;Node24</title>
<path fill="none" stroke="midnightblue" d="M847.174,-165.45C873.932,-156.475 917.404,-141.892 947.546,-131.781"/>
<polygon fill="midnightblue" stroke="midnightblue" points="948.846,-135.037 957.214,-128.538 946.62,-128.4 948.846,-135.037"/>
</g>
<!-- Node25 -->
<g id="node26" class="node"><title>Node25</title>
<polygon fill="none" stroke="#bfbfbf" points="1046.73,-110.5 1046.73,-128.5 1101.63,-128.5 1101.63,-110.5 1046.73,-110.5"/>
<text text-anchor="middle" x="1074.18" y="-116.5" font-family="Helvetica,sans-Serif" font-size="10.00">QWidget</text>
</g>
<!-- Node19&#45;&gt;Node25 -->
<g id="edge29" class="edge"><title>Node19&#45;&gt;Node25</title>
<path fill="none" stroke="midnightblue" d="M852.979,-166.963C856.084,-166.295 859.194,-165.63 862.177,-165 937.244,-149.143 958.56,-146.379 1036.84,-129.245"/>
<polygon fill="midnightblue" stroke="midnightblue" points="1037.66,-132.648 1046.68,-127.082 1036.16,-125.811 1037.66,-132.648"/>
</g>
</g>
</svg>
