<?xml version="1.0" encoding="UTF-8" standalone="no"?>
<!DOCTYPE svg PUBLIC "-//W3C//DTD SVG 1.1//EN"
 "http://www.w3.org/Graphics/SVG/1.1/DTD/svg11.dtd">
<!-- Generated by graphviz version 2.40.1 (20161225.0304)
 -->
<!-- Title: src/mainwindow.cpp Pages: 1 -->
<svg width="2379pt" height="522pt"
 viewBox="0.00 0.00 2379.00 522.00" xmlns="http://www.w3.org/2000/svg" xmlns:xlink="http://www.w3.org/1999/xlink">
<g id="graph0" class="graph" transform="scale(1 1) rotate(0) translate(4 518)">
<title>src/mainwindow.cpp</title>
<!-- Node0 -->
<g id="node1" class="node">
<title>Node0</title>
<polygon fill="#bfbfbf" stroke="#000000" points="1443.2563,-495.5 1443.2563,-513.5 1548.7437,-513.5 1548.7437,-495.5 1443.2563,-495.5"/>
<text text-anchor="middle" x="1496" y="-501.5" font-family="Helvetica,sans-Serif" font-size="10.00" fill="#000000">src/mainwindow.cpp</text>
</g>
<!-- Node1 -->
<g id="node2" class="node">
<title>Node1</title>
<g id="a_node2"><a xlink:href="mainwindow_8h.html" target="_top" xlink:title="mainwindow.h">
<polygon fill="none" stroke="#000000" points="929.5913,-330.5 929.5913,-348.5 1008.4087,-348.5 1008.4087,-330.5 929.5913,-330.5"/>
<text text-anchor="middle" x="969" y="-336.5" font-family="Helvetica,sans-Serif" font-size="10.00" fill="#000000">mainwindow.h</text>
</a>
</g>
</g>
<!-- Node0&#45;&gt;Node1 -->
<g id="edge1" class="edge">
<title>Node0&#45;&gt;Node1</title>
<path fill="none" stroke="#191970" d="M1442.9439,-502.1424C1328.1862,-496.6397 1064.5065,-481.6715 1031,-459 996.1221,-435.4005 979.6274,-385.8258 972.9161,-358.5292"/>
<polygon fill="#191970" stroke="#191970" points="976.2992,-357.6214 970.6767,-348.6415 969.4721,-359.1676 976.2992,-357.6214"/>
</g>
<!-- Node12 -->
<g id="node13" class="node">
<title>Node12</title>
<polygon fill="none" stroke="#bfbfbf" points="376.0986,-.5 376.0986,-18.5 429.9014,-18.5 429.9014,-.5 376.0986,-.5"/>
<text text-anchor="middle" x="403" y="-6.5" font-family="Helvetica,sans-Serif" font-size="10.00" fill="#000000">QQueue</text>
</g>
<!-- Node0&#45;&gt;Node12 -->
<g id="edge81" class="edge">
<title>Node0&#45;&gt;Node12</title>
<path fill="none" stroke="#191970" d="M1442.9719,-503.4174C1216.6123,-498.6875 337.2725,-479.1692 215,-459 116.5672,-442.7633 0,-494.2629 0,-394.5 0,-394.5 0,-394.5 0,-119.5 0,-44.1018 265.8481,-18.6168 365.6994,-11.7039"/>
<polygon fill="#191970" stroke="#191970" points="366.1877,-15.1792 375.9323,-11.0207 365.7213,-8.1947 366.1877,-15.1792"/>
</g>
<!-- Node17 -->
<g id="node18" class="node">
<title>Node17</title>
<polygon fill="none" stroke="#bfbfbf" points="212.4878,-55.5 212.4878,-73.5 283.5122,-73.5 283.5122,-55.5 212.4878,-55.5"/>
<text text-anchor="middle" x="248" y="-61.5" font-family="Helvetica,sans-Serif" font-size="10.00" fill="#000000">QTextCodec</text>
</g>
<!-- Node0&#45;&gt;Node17 -->
<g id="edge83" class="edge">
<title>Node0&#45;&gt;Node17</title>
<path fill="none" stroke="#191970" d="M1443.2477,-503.3379C1181.8582,-497.2408 38,-466.449 38,-394.5 38,-394.5 38,-394.5 38,-229.5 38,-145.1721 143.995,-97.3838 205.3769,-76.7795"/>
<polygon fill="#191970" stroke="#191970" points="206.7599,-80.0103 215.1875,-73.5895 204.5953,-73.3533 206.7599,-80.0103"/>
</g>
<!-- Node24 -->
<g id="node25" class="node">
<title>Node24</title>
<g id="a_node25"><a xlink:href="util_8h.html" target="_top" xlink:title="util.h">
<polygon fill="none" stroke="#000000" points="786.4385,-220.5 786.4385,-238.5 823.5615,-238.5 823.5615,-220.5 786.4385,-220.5"/>
<text text-anchor="middle" x="805" y="-226.5" font-family="Helvetica,sans-Serif" font-size="10.00" fill="#000000">util.h</text>
</a>
</g>
</g>
<!-- Node0&#45;&gt;Node24 -->
<g id="edge113" class="edge">
<title>Node0&#45;&gt;Node24</title>
<path fill="none" stroke="#191970" d="M1442.9678,-502.5794C1267.9785,-495.5463 720,-467.6796 720,-394.5 720,-394.5 720,-394.5 720,-339.5 720,-298.4809 757.466,-263.4424 782.6499,-244.5235"/>
<polygon fill="#191970" stroke="#191970" points="784.9052,-247.2121 790.964,-238.5206 780.8075,-241.5368 784.9052,-247.2121"/>
</g>
<!-- Node31 -->
<g id="node32" class="node">
<title>Node31</title>
<g id="a_node32"><a xlink:href="qtpasssettings_8h.html" target="_top" xlink:title="qtpasssettings.h">
<polygon fill="none" stroke="#000000" points="565.8672,-220.5 565.8672,-238.5 654.1328,-238.5 654.1328,-220.5 565.8672,-220.5"/>
<text text-anchor="middle" x="610" y="-226.5" font-family="Helvetica,sans-Serif" font-size="10.00" fill="#000000">qtpasssettings.h</text>
</a>
</g>
</g>
<!-- Node0&#45;&gt;Node31 -->
<g id="edge102" class="edge">
<title>Node0&#45;&gt;Node31</title>
<path fill="none" stroke="#191970" d="M1442.9483,-503.3952C1254.2756,-498.7733 627,-477.1891 627,-394.5 627,-394.5 627,-394.5 627,-339.5 627,-307.2471 619.7737,-270.2923 614.7439,-248.4766"/>
<polygon fill="#191970" stroke="#191970" points="618.0997,-247.4613 612.3638,-238.5534 611.2928,-249.094 618.0997,-247.4613"/>
</g>
<!-- Node47 -->
<g id="node48" class="node">
<title>Node47</title>
<polygon fill="none" stroke="#bfbfbf" points="1885.5181,-275.5 1885.5181,-293.5 1934.4819,-293.5 1934.4819,-275.5 1885.5181,-275.5"/>
<text text-anchor="middle" x="1910" y="-281.5" font-family="Helvetica,sans-Serif" font-size="10.00" fill="#000000">QTimer</text>
</g>
<!-- Node0&#45;&gt;Node47 -->
<g id="edge84" class="edge">
<title>Node0&#45;&gt;Node47</title>
<path fill="none" stroke="#191970" d="M1548.9549,-501.4635C1625.715,-496.2741 1763.3794,-483.7714 1806,-459 1865.4108,-424.47 1894.6312,-341.4167 1905.2017,-303.7059"/>
<polygon fill="#191970" stroke="#191970" points="1908.7116,-304.1255 1907.8963,-293.5621 1901.9462,-302.3284 1908.7116,-304.1255"/>
</g>
<!-- Node49 -->
<g id="node50" class="node">
<title>Node49</title>
<g id="a_node50"><a xlink:href="debughelper_8h.html" target="_top" xlink:title="debughelper.h">
<polygon fill="none" stroke="#000000" points="1495.3008,-110.5 1495.3008,-128.5 1574.6992,-128.5 1574.6992,-110.5 1495.3008,-110.5"/>
<text text-anchor="middle" x="1535" y="-116.5" font-family="Helvetica,sans-Serif" font-size="10.00" fill="#000000">debughelper.h</text>
</a>
</g>
</g>
<!-- Node0&#45;&gt;Node49 -->
<g id="edge72" class="edge">
<title>Node0&#45;&gt;Node49</title>
<path fill="none" stroke="#191970" d="M1548.9,-503.2352C1674.554,-499.7638 1983.1518,-488.3197 2019,-459 2042.1327,-440.0801 2038,-424.3846 2038,-394.5 2038,-394.5 2038,-394.5 2038,-339.5 2038,-283.4925 2039.7066,-257.3818 1998,-220 1937.1667,-165.4749 1691.987,-135.0578 1585.1618,-124.1639"/>
<polygon fill="#191970" stroke="#191970" points="1585.2617,-120.6564 1574.9622,-123.1404 1584.5627,-127.6215 1585.2617,-120.6564"/>
</g>
<!-- Node50 -->
<g id="node51" class="node">
<title>Node50</title>
<polygon fill="none" stroke="#bfbfbf" points="1081.7095,-440.5 1081.7095,-458.5 1148.2905,-458.5 1148.2905,-440.5 1081.7095,-440.5"/>
<text text-anchor="middle" x="1115" y="-446.5" font-family="Helvetica,sans-Serif" font-size="10.00" fill="#000000">QClipboard</text>
</g>
<!-- Node0&#45;&gt;Node50 -->
<g id="edge74" class="edge">
<title>Node0&#45;&gt;Node50</title>
<path fill="none" stroke="#191970" d="M1443.2166,-498.89C1378.368,-491.6701 1264.8082,-477.9661 1158.3626,-459.1203"/>
<polygon fill="#191970" stroke="#191970" points="1158.8761,-455.6567 1148.4159,-457.3403 1157.643,-462.5472 1158.8761,-455.6567"/>
</g>
<!-- Node51 -->
<g id="node52" class="node">
<title>Node51</title>
<polygon fill="none" stroke="#bfbfbf" points="1229.542,-330.5 1229.542,-348.5 1304.458,-348.5 1304.458,-330.5 1229.542,-330.5"/>
<text text-anchor="middle" x="1267" y="-336.5" font-family="Helvetica,sans-Serif" font-size="10.00" fill="#000000">QCloseEvent</text>
</g>
<!-- Node0&#45;&gt;Node51 -->
<g id="edge75" class="edge">
<title>Node0&#45;&gt;Node51</title>
<path fill="none" stroke="#191970" d="M1443.2368,-502.6922C1335.2987,-498.4497 1097.3386,-486.097 1073,-459 1067.3572,-452.7177 1068.6121,-447.2149 1073,-440 1104.6758,-387.9167 1173.0351,-361.6196 1219.5374,-349.2588"/>
<polygon fill="#191970" stroke="#191970" points="1220.5649,-352.6091 1229.3976,-346.7583 1218.8441,-345.8239 1220.5649,-352.6091"/>
</g>
<!-- Node52 -->
<g id="node53" class="node">
<title>Node52</title>
<polygon fill="none" stroke="#bfbfbf" points="1267.5962,-440.5 1267.5962,-458.5 1366.4038,-458.5 1366.4038,-440.5 1267.5962,-440.5"/>
<text text-anchor="middle" x="1317" y="-446.5" font-family="Helvetica,sans-Serif" font-size="10.00" fill="#000000">QDesktopServices</text>
</g>
<!-- Node0&#45;&gt;Node52 -->
<g id="edge76" class="edge">
<title>Node0&#45;&gt;Node52</title>
<path fill="none" stroke="#191970" d="M1466.4418,-495.4179C1436.2953,-486.155 1389.3566,-471.7325 1356.1392,-461.526"/>
<polygon fill="#191970" stroke="#191970" points="1356.8916,-458.0958 1346.3046,-458.5042 1354.8355,-464.787 1356.8916,-458.0958"/>
</g>
<!-- Node53 -->
<g id="node54" class="node">
<title>Node53</title>
<polygon fill="none" stroke="#bfbfbf" points="1384.7144,-440.5 1384.7144,-458.5 1441.2856,-458.5 1441.2856,-440.5 1384.7144,-440.5"/>
<text text-anchor="middle" x="1413" y="-446.5" font-family="Helvetica,sans-Serif" font-size="10.00" fill="#000000">QFileInfo</text>
</g>
<!-- Node0&#45;&gt;Node53 -->
<g id="edge77" class="edge">
<title>Node0&#45;&gt;Node53</title>
<path fill="none" stroke="#191970" d="M1482.2942,-495.4179C1469.5589,-486.9788 1450.3605,-474.257 1435.3988,-464.3426"/>
<polygon fill="#191970" stroke="#191970" points="1436.9954,-461.2019 1426.7261,-458.5956 1433.1287,-467.037 1436.9954,-461.2019"/>
</g>
<!-- Node54 -->
<g id="node55" class="node">
<title>Node54</title>
<polygon fill="none" stroke="#bfbfbf" points="1458.8154,-440.5 1458.8154,-458.5 1533.1846,-458.5 1533.1846,-440.5 1458.8154,-440.5"/>
<text text-anchor="middle" x="1496" y="-446.5" font-family="Helvetica,sans-Serif" font-size="10.00" fill="#000000">QInputDialog</text>
</g>
<!-- Node0&#45;&gt;Node54 -->
<g id="edge78" class="edge">
<title>Node0&#45;&gt;Node54</title>
<path fill="none" stroke="#191970" d="M1496,-495.4179C1496,-488.2164 1496,-477.8962 1496,-468.8632"/>
<polygon fill="#191970" stroke="#191970" points="1499.5001,-468.7794 1496,-458.7795 1492.5001,-468.7795 1499.5001,-468.7794"/>
</g>
<!-- Node55 -->
<g id="node56" class="node">
<title>Node55</title>
<polygon fill="none" stroke="#bfbfbf" points="1550.877,-440.5 1550.877,-458.5 1599.123,-458.5 1599.123,-440.5 1550.877,-440.5"/>
<text text-anchor="middle" x="1575" y="-446.5" font-family="Helvetica,sans-Serif" font-size="10.00" fill="#000000">QLabel</text>
</g>
<!-- Node0&#45;&gt;Node55 -->
<g id="edge79" class="edge">
<title>Node0&#45;&gt;Node55</title>
<path fill="none" stroke="#191970" d="M1509.0452,-495.4179C1521.1669,-486.9788 1539.44,-474.257 1553.6807,-464.3426"/>
<polygon fill="#191970" stroke="#191970" points="1555.7282,-467.1818 1561.9354,-458.5956 1551.7286,-461.4369 1555.7282,-467.1818"/>
</g>
<!-- Node56 -->
<g id="node57" class="node">
<title>Node56</title>
<polygon fill="none" stroke="#bfbfbf" points="1617.207,-440.5 1617.207,-458.5 1698.793,-458.5 1698.793,-440.5 1617.207,-440.5"/>
<text text-anchor="middle" x="1658" y="-446.5" font-family="Helvetica,sans-Serif" font-size="10.00" fill="#000000">QMessageBox</text>
</g>
<!-- Node0&#45;&gt;Node56 -->
<g id="edge80" class="edge">
<title>Node0&#45;&gt;Node56</title>
<path fill="none" stroke="#191970" d="M1522.751,-495.4179C1549.7992,-486.2348 1591.784,-471.9807 1621.7977,-461.7909"/>
<polygon fill="#191970" stroke="#191970" points="1623.1346,-465.0333 1631.4785,-458.5042 1620.8841,-458.4049 1623.1346,-465.0333"/>
</g>
<!-- Node57 -->
<g id="node58" class="node">
<title>Node57</title>
<polygon fill="none" stroke="#bfbfbf" points="1716.4902,-440.5 1716.4902,-458.5 1777.5098,-458.5 1777.5098,-440.5 1716.4902,-440.5"/>
<text text-anchor="middle" x="1747" y="-446.5" font-family="Helvetica,sans-Serif" font-size="10.00" fill="#000000">QShortcut</text>
</g>
<!-- Node0&#45;&gt;Node57 -->
<g id="edge82" class="edge">
<title>Node0&#45;&gt;Node57</title>
<path fill="none" stroke="#191970" d="M1539.9286,-495.4399C1580.6774,-486.9533 1643.2653,-473.7105 1706.2528,-459.3596"/>
<polygon fill="#191970" stroke="#191970" points="1707.3942,-462.689 1716.362,-457.0474 1705.8334,-455.8652 1707.3942,-462.689"/>
</g>
<!-- Node58 -->
<g id="node59" class="node">
<title>Node58</title>
<g id="a_node59"><a xlink:href="configdialog_8h.html" target="_top" xlink:title="configdialog.h">
<polygon fill="none" stroke="#000000" points="1017.1431,-385.5 1017.1431,-403.5 1094.8569,-403.5 1094.8569,-385.5 1017.1431,-385.5"/>
<text text-anchor="middle" x="1056" y="-391.5" font-family="Helvetica,sans-Serif" font-size="10.00" fill="#000000">configdialog.h</text>
</a>
</g>
</g>
<!-- Node0&#45;&gt;Node58 -->
<g id="edge85" class="edge">
<title>Node0&#45;&gt;Node58</title>
<path fill="none" stroke="#191970" d="M1443.0606,-503.1283C1328.6847,-499.6177 1066.629,-488.4183 1040,-459 1028.5507,-446.3515 1035.6671,-426.7941 1043.721,-412.5299"/>
<polygon fill="#191970" stroke="#191970" points="1046.9321,-413.9929 1049.2299,-403.6502 1040.9839,-410.3026 1046.9321,-413.9929"/>
</g>
<!-- Node62 -->
<g id="node63" class="node">
<title>Node62</title>
<g id="a_node63"><a xlink:href="keygendialog_8h.html" target="_top" xlink:title="keygendialog.h">
<polygon fill="none" stroke="#000000" points="1166.3623,-440.5 1166.3623,-458.5 1249.6377,-458.5 1249.6377,-440.5 1166.3623,-440.5"/>
<text text-anchor="middle" x="1208" y="-446.5" font-family="Helvetica,sans-Serif" font-size="10.00" fill="#000000">keygendialog.h</text>
</a>
</g>
</g>
<!-- Node0&#45;&gt;Node62 -->
<g id="edge91" class="edge">
<title>Node0&#45;&gt;Node62</title>
<path fill="none" stroke="#191970" d="M1448.7652,-495.4795C1396.7437,-485.5448 1313.3634,-469.6215 1259.6454,-459.3628"/>
<polygon fill="#191970" stroke="#191970" points="1260.1242,-455.8911 1249.6451,-457.4531 1258.811,-462.7668 1260.1242,-455.8911"/>
</g>
<!-- Node63 -->
<g id="node64" class="node">
<title>Node63</title>
<g id="a_node64"><a xlink:href="passworddialog_8h.html" target="_top" xlink:title="passworddialog.h">
<polygon fill="none" stroke="#000000" points="1746.0864,-385.5 1746.0864,-403.5 1839.9136,-403.5 1839.9136,-385.5 1746.0864,-385.5"/>
<text text-anchor="middle" x="1793" y="-391.5" font-family="Helvetica,sans-Serif" font-size="10.00" fill="#000000">passworddialog.h</text>
</a>
</g>
</g>
<!-- Node0&#45;&gt;Node63 -->
<g id="edge95" class="edge">
<title>Node0&#45;&gt;Node63</title>
<path fill="none" stroke="#191970" d="M1548.9338,-499.7327C1628.3871,-492.0612 1770.9377,-476.0963 1787,-459 1798.0588,-447.2293 1798.5983,-428.3671 1796.9406,-414.0738"/>
<polygon fill="#191970" stroke="#191970" points="1800.3349,-413.1347 1795.299,-403.8132 1793.4228,-414.2406 1800.3349,-413.1347"/>
</g>
<!-- Node64 -->
<g id="node65" class="node">
<title>Node64</title>
<g id="a_node65"><a xlink:href="qpushbuttonwithclipboard_8h.html" target="_top" xlink:title="qpushbuttonwithclipboard.h">
<polygon fill="none" stroke="#000000" points="1872.1235,-440.5 1872.1235,-458.5 2009.8765,-458.5 2009.8765,-440.5 1872.1235,-440.5"/>
<text text-anchor="middle" x="1941" y="-446.5" font-family="Helvetica,sans-Serif" font-size="10.00" fill="#000000">qpushbuttonwithclipboard.h</text>
</a>
</g>
</g>
<!-- Node0&#45;&gt;Node64 -->
<g id="edge99" class="edge">
<title>Node0&#45;&gt;Node64</title>
<path fill="none" stroke="#191970" d="M1548.7948,-497.9748C1626.273,-488.3988 1771.3428,-470.4689 1861.6778,-459.3039"/>
<polygon fill="#191970" stroke="#191970" points="1862.3761,-462.7443 1871.8713,-458.044 1861.5174,-455.7971 1862.3761,-462.7443"/>
</g>
<!-- Node66 -->
<g id="node67" class="node">
<title>Node66</title>
<g id="a_node67"><a xlink:href="settingsconstants_8h.html" target="_top" xlink:title="settingsconstants.h">
<polygon fill="none" stroke="#000000" points="2066.1973,-385.5 2066.1973,-403.5 2167.8027,-403.5 2167.8027,-385.5 2066.1973,-385.5"/>
<text text-anchor="middle" x="2117" y="-391.5" font-family="Helvetica,sans-Serif" font-size="10.00" fill="#000000">settingsconstants.h</text>
</a>
</g>
</g>
<!-- Node0&#45;&gt;Node66 -->
<g id="edge103" class="edge">
<title>Node0&#45;&gt;Node66</title>
<path fill="none" stroke="#191970" d="M1548.9905,-502.2315C1679.1066,-496.3685 2007.0257,-479.713 2052,-459 2074.4518,-448.6598 2093.6086,-427.0868 2105.1907,-411.7401"/>
<polygon fill="#191970" stroke="#191970" points="2108.0842,-413.7116 2111.1024,-403.5557 2102.4097,-409.6128 2108.0842,-413.7116"/>
</g>
<!-- Node67 -->
<g id="node68" class="node">
<title>Node67</title>
<polygon fill="none" stroke="#bfbfbf" points="2103.9189,-440.5 2103.9189,-458.5 2196.0811,-458.5 2196.0811,-440.5 2103.9189,-440.5"/>
<text text-anchor="middle" x="2150" y="-446.5" font-family="Helvetica,sans-Serif" font-size="10.00" fill="#000000">ui_mainwindow.h</text>
</g>
<!-- Node0&#45;&gt;Node67 -->
<g id="edge105" class="edge">
<title>Node0&#45;&gt;Node67</title>
<path fill="none" stroke="#191970" d="M1548.9819,-501.8776C1652.9644,-496.4135 1890.9739,-482.3404 2090,-459 2091.2668,-458.8514 2092.5478,-458.6957 2093.8388,-458.5338"/>
<polygon fill="#191970" stroke="#191970" points="2094.4182,-461.9876 2103.864,-457.189 2093.4874,-455.0497 2094.4182,-461.9876"/>
</g>
<!-- Node68 -->
<g id="node69" class="node">
<title>Node68</title>
<g id="a_node69"><a xlink:href="usersdialog_8h.html" target="_top" xlink:title="usersdialog.h">
<polygon fill="none" stroke="#000000" points="2224.2588,-385.5 2224.2588,-403.5 2299.7412,-403.5 2299.7412,-385.5 2224.2588,-385.5"/>
<text text-anchor="middle" x="2262" y="-391.5" font-family="Helvetica,sans-Serif" font-size="10.00" fill="#000000">usersdialog.h</text>
</a>
</g>
</g>
<!-- Node0&#45;&gt;Node68 -->
<g id="edge106" class="edge">
<title>Node0&#45;&gt;Node68</title>
<path fill="none" stroke="#191970" d="M1548.8523,-502.8313C1713.8943,-497.4151 2210.3627,-479.4876 2238,-459 2252.0735,-448.5673 2257.8989,-428.9263 2260.3076,-414.0476"/>
<polygon fill="#191970" stroke="#191970" points="2263.8173,-414.1818 2261.5636,-403.8294 2256.8696,-413.3277 2263.8173,-414.1818"/>
</g>
<!-- Node70 -->
<g id="node71" class="node">
<title>Node70</title>
<g id="a_node71"><a xlink:href="filecontent_8h.html" target="_top" xlink:title="filecontent.h">
<polygon fill="none" stroke="#000000" points="2193.0371,-110.5 2193.0371,-128.5 2262.9629,-128.5 2262.9629,-110.5 2193.0371,-110.5"/>
<text text-anchor="middle" x="2228" y="-116.5" font-family="Helvetica,sans-Serif" font-size="10.00" fill="#000000">filecontent.h</text>
</a>
</g>
</g>
<!-- Node0&#45;&gt;Node70 -->
<g id="edge114" class="edge">
<title>Node0&#45;&gt;Node70</title>
<path fill="none" stroke="#191970" d="M1548.7987,-503.0671C1709.4182,-498.4539 2182.6003,-482.8833 2205,-459 2210.7768,-452.8406 2206.9454,-448.2173 2205,-440 2187.1875,-364.7614 2127,-361.8183 2127,-284.5 2127,-284.5 2127,-284.5 2127,-229.5 2127,-185.5631 2171.2609,-151.5926 2201.1825,-133.6475"/>
<polygon fill="#191970" stroke="#191970" points="2203.026,-136.6247 2209.9432,-128.5995 2199.5312,-130.5595 2203.026,-136.6247"/>
</g>
<!-- Node2 -->
<g id="node3" class="node">
<title>Node2</title>
<g id="a_node3"><a xlink:href="passwordconfiguration_8h.html" target="_top" xlink:title="passwordconfiguration.h">
<polygon fill="none" stroke="#000000" points="1277.8008,-165.5 1277.8008,-183.5 1402.1992,-183.5 1402.1992,-165.5 1277.8008,-165.5"/>
<text text-anchor="middle" x="1340" y="-171.5" font-family="Helvetica,sans-Serif" font-size="10.00" fill="#000000">passwordconfiguration.h</text>
</a>
</g>
</g>
<!-- Node1&#45;&gt;Node2 -->
<g id="edge2" class="edge">
<title>Node1&#45;&gt;Node2</title>
<path fill="none" stroke="#191970" d="M1008.5099,-331.3881C1011.7127,-330.8685 1014.9057,-330.396 1018,-330 1269.7845,-297.7767 1338.3259,-339.7887 1588,-294 1669.4433,-279.0638 1716.8469,-305.6338 1766,-239 1811.7231,-177.016 1512.5444,-192.1189 1412.4465,-183.9448"/>
<polygon fill="#191970" stroke="#191970" points="1412.6174,-180.4449 1402.3239,-182.9537 1411.9353,-187.4115 1412.6174,-180.4449"/>
</g>
<!-- Node4 -->
<g id="node5" class="node">
<title>Node4</title>
<g id="a_node5"><a xlink:href="userinfo_8h.html" target="_top" xlink:title="userinfo.h">
<polygon fill="none" stroke="#000000" points="1889.042,-55.5 1889.042,-73.5 1948.958,-73.5 1948.958,-55.5 1889.042,-55.5"/>
<text text-anchor="middle" x="1919" y="-61.5" font-family="Helvetica,sans-Serif" font-size="10.00" fill="#000000">userinfo.h</text>
</a>
</g>
</g>
<!-- Node1&#45;&gt;Node4 -->
<g id="edge4" class="edge">
<title>Node1&#45;&gt;Node4</title>
<path fill="none" stroke="#191970" d="M1008.5028,-331.3304C1011.7072,-330.8237 1014.9025,-330.3699 1018,-330 1103.9263,-319.7375 1719.5734,-334.5909 1796,-294 1877.511,-250.7087 1907.2415,-130.497 1915.9393,-83.5917"/>
<polygon fill="#191970" stroke="#191970" points="1919.4172,-84.02 1917.679,-73.5687 1912.5203,-82.8228 1919.4172,-84.02"/>
</g>
<!-- Node6 -->
<g id="node7" class="node">
<title>Node6</title>
<g id="a_node7"><a xlink:href="enums_8h.html" target="_top" xlink:title="enums.h">
<polygon fill="none" stroke="#000000" points="364.8228,-55.5 364.8228,-73.5 419.1772,-73.5 419.1772,-55.5 364.8228,-55.5"/>
<text text-anchor="middle" x="392" y="-61.5" font-family="Helvetica,sans-Serif" font-size="10.00" fill="#000000">enums.h</text>
</a>
</g>
</g>
<!-- Node1&#45;&gt;Node6 -->
<g id="edge7" class="edge">
<title>Node1&#45;&gt;Node6</title>
<path fill="none" stroke="#191970" d="M929.3574,-338.2338C781.1164,-332.5893 262.8425,-304.3979 164,-184 107.551,-115.2408 276.7487,-81.1594 354.8043,-69.4005"/>
<polygon fill="#191970" stroke="#191970" points="355.3485,-72.8583 364.7381,-67.9505 354.3374,-65.9317 355.3485,-72.8583"/>
</g>
<!-- Node7 -->
<g id="node8" class="node">
<title>Node7</title>
<g id="a_node8"><a xlink:href="imitatepass_8h.html" target="_top" xlink:title="imitatepass.h">
<polygon fill="none" stroke="#000000" points="891.542,-165.5 891.542,-183.5 966.458,-183.5 966.458,-165.5 891.542,-165.5"/>
<text text-anchor="middle" x="929" y="-171.5" font-family="Helvetica,sans-Serif" font-size="10.00" fill="#000000">imitatepass.h</text>
</a>
</g>
</g>
<!-- Node1&#45;&gt;Node7 -->
<g id="edge8" class="edge">
<title>Node1&#45;&gt;Node7</title>
<path fill="none" stroke="#191970" d="M929.2011,-335.0706C873.0168,-328.2165 773.9457,-313.7423 744,-294 719.1943,-277.6463 714.8456,-267.3641 706,-239 703.486,-230.9385 700.659,-226.5408 706,-220 708.7948,-216.5774 816.621,-195.7118 881.2928,-183.4584"/>
<polygon fill="#191970" stroke="#191970" points="882.1037,-186.8671 891.279,-181.5697 880.8028,-179.9891 882.1037,-186.8671"/>
</g>
<!-- Node8 -->
<g id="node9" class="node">
<title>Node8</title>
<g id="a_node9"><a xlink:href="pass_8h.html" target="_top" xlink:title="pass.h">
<polygon fill="none" stroke="#000000" points="939.2686,-110.5 939.2686,-128.5 984.7314,-128.5 984.7314,-110.5 939.2686,-110.5"/>
<text text-anchor="middle" x="962" y="-116.5" font-family="Helvetica,sans-Serif" font-size="10.00" fill="#000000">pass.h</text>
</a>
</g>
</g>
<!-- Node1&#45;&gt;Node8 -->
<g id="edge29" class="edge">
<title>Node1&#45;&gt;Node8</title>
<path fill="none" stroke="#191970" d="M929.3948,-331.3806C859.7658,-315.4236 727.2879,-276.5386 777,-220 859.5577,-126.1053 973.4423,-277.8947 1056,-184 1078.0646,-158.9054 1030.1403,-138.8567 994.9466,-128.1131"/>
<polygon fill="#191970" stroke="#191970" points="995.556,-124.6452 984.9761,-125.2077 993.5975,-131.3657 995.556,-124.6452"/>
</g>
<!-- Node11 -->
<g id="node12" class="node">
<title>Node11</title>
<polygon fill="none" stroke="#bfbfbf" points="882.0493,-.5 882.0493,-18.5 941.9507,-18.5 941.9507,-.5 882.0493,-.5"/>
<text text-anchor="middle" x="912" y="-6.5" font-family="Helvetica,sans-Serif" font-size="10.00" fill="#000000">QProcess</text>
</g>
<!-- Node1&#45;&gt;Node11 -->
<g id="edge68" class="edge">
<title>Node1&#45;&gt;Node11</title>
<path fill="none" stroke="#191970" d="M1008.5065,-331.3607C1011.71,-330.8472 1014.9042,-330.3836 1018,-330 1306.4567,-294.2554 1389.7932,-367.5369 1671,-294 1754.1377,-272.2591 1823,-260.4334 1823,-174.5 1823,-174.5 1823,-174.5 1823,-119.5 1823,-30.4633 1128.2652,-13.0466 952.1827,-10.0622"/>
<polygon fill="#191970" stroke="#191970" points="952.1069,-6.5606 942.0511,-9.8969 951.9927,-13.5597 952.1069,-6.5606"/>
</g>
<!-- Node1&#45;&gt;Node12 -->
<g id="edge69" class="edge">
<title>Node1&#45;&gt;Node12</title>
<path fill="none" stroke="#191970" d="M929.4767,-338.8516C756.6543,-335.5042 76,-316.7804 76,-229.5 76,-229.5 76,-229.5 76,-119.5 76,-58.9108 280.2256,-25.3868 365.8858,-13.9903"/>
<polygon fill="#191970" stroke="#191970" points="366.4971,-17.4404 375.962,-12.6795 365.594,-10.4989 366.4971,-17.4404"/>
</g>
<!-- Node22 -->
<g id="node23" class="node">
<title>Node22</title>
<g id="a_node23"><a xlink:href="realpass_8h.html" target="_top" xlink:title="realpass.h">
<polygon fill="none" stroke="#000000" points="984.9312,-165.5 984.9312,-183.5 1047.0688,-183.5 1047.0688,-165.5 984.9312,-165.5"/>
<text text-anchor="middle" x="1016" y="-171.5" font-family="Helvetica,sans-Serif" font-size="10.00" fill="#000000">realpass.h</text>
</a>
</g>
</g>
<!-- Node1&#45;&gt;Node22 -->
<g id="edge30" class="edge">
<title>Node1&#45;&gt;Node22</title>
<path fill="none" stroke="#191970" d="M929.3259,-333.882C850.7032,-321.184 687.4013,-286.1024 744,-220 776.0738,-182.5405 909.4343,-192.6521 974.8256,-183.6218"/>
<polygon fill="#191970" stroke="#191970" points="975.4107,-187.0727 984.711,-181.9979 974.2759,-180.1653 975.4107,-187.0727"/>
</g>
<!-- Node23 -->
<g id="node24" class="node">
<title>Node23</title>
<g id="a_node24"><a xlink:href="storemodel_8h.html" target="_top" xlink:title="storemodel.h">
<polygon fill="none" stroke="#000000" points="929.0962,-275.5 929.0962,-293.5 1002.9038,-293.5 1002.9038,-275.5 929.0962,-275.5"/>
<text text-anchor="middle" x="966" y="-281.5" font-family="Helvetica,sans-Serif" font-size="10.00" fill="#000000">storemodel.h</text>
</a>
</g>
</g>
<!-- Node1&#45;&gt;Node23 -->
<g id="edge32" class="edge">
<title>Node1&#45;&gt;Node23</title>
<path fill="none" stroke="#191970" d="M968.5046,-330.4179C968.1118,-323.2164 967.5489,-312.8962 967.0562,-303.8632"/>
<polygon fill="#191970" stroke="#191970" points="970.5457,-303.574 966.5062,-293.7795 963.5561,-303.9553 970.5457,-303.574"/>
</g>
<!-- Node25 -->
<g id="node26" class="node">
<title>Node25</title>
<polygon fill="none" stroke="#bfbfbf" points="1419.7661,-165.5 1419.7661,-183.5 1520.2339,-183.5 1520.2339,-165.5 1419.7661,-165.5"/>
<text text-anchor="middle" x="1470" y="-171.5" font-family="Helvetica,sans-Serif" font-size="10.00" fill="#000000">QFileSystemModel</text>
</g>
<!-- Node1&#45;&gt;Node25 -->
<g id="edge66" class="edge">
<title>Node1&#45;&gt;Node25</title>
<path fill="none" stroke="#191970" d="M1002.8409,-330.4142C1061.3896,-314.3327 1185.0114,-278.7786 1286,-239 1304.312,-231.787 1307.6845,-227.2041 1326,-220 1359.3929,-206.8654 1398.2389,-194.7701 1427.1628,-186.3569"/>
<polygon fill="#191970" stroke="#191970" points="1428.3126,-189.6681 1436.9546,-183.5389 1426.3766,-182.9412 1428.3126,-189.6681"/>
</g>
<!-- Node40 -->
<g id="node41" class="node">
<title>Node40</title>
<g id="a_node41"><a xlink:href="trayicon_8h.html" target="_top" xlink:title="trayicon.h">
<polygon fill="none" stroke="#000000" points="1519.3228,-275.5 1519.3228,-293.5 1578.6772,-293.5 1578.6772,-275.5 1519.3228,-275.5"/>
<text text-anchor="middle" x="1549" y="-281.5" font-family="Helvetica,sans-Serif" font-size="10.00" fill="#000000">trayicon.h</text>
</a>
</g>
</g>
<!-- Node1&#45;&gt;Node40 -->
<g id="edge59" class="edge">
<title>Node1&#45;&gt;Node40</title>
<path fill="none" stroke="#191970" d="M1008.5202,-331.4649C1011.7207,-330.928 1014.9103,-330.4306 1018,-330 1113.0051,-316.758 1402.453,-295.1182 1509.0443,-287.3709"/>
<polygon fill="#191970" stroke="#191970" points="1509.3498,-290.858 1519.0705,-286.644 1508.8435,-283.8764 1509.3498,-290.858"/>
</g>
<!-- Node43 -->
<g id="node44" class="node">
<title>Node43</title>
<polygon fill="none" stroke="#bfbfbf" points="1335.4902,-220.5 1335.4902,-238.5 1416.5098,-238.5 1416.5098,-220.5 1335.4902,-220.5"/>
<text text-anchor="middle" x="1376" y="-226.5" font-family="Helvetica,sans-Serif" font-size="10.00" fill="#000000">QMainWindow</text>
</g>
<!-- Node1&#45;&gt;Node43 -->
<g id="edge67" class="edge">
<title>Node1&#45;&gt;Node43</title>
<path fill="none" stroke="#191970" d="M1008.5264,-331.5088C1011.7255,-330.9621 1014.9132,-330.4505 1018,-330 1058.3252,-324.1153 1355.6345,-324.1974 1383,-294 1394.0772,-281.7765 1390.1893,-262.4293 1384.8335,-248.1095"/>
<polygon fill="#191970" stroke="#191970" points="1387.9901,-246.5879 1380.8673,-238.7448 1381.5444,-249.3179 1387.9901,-246.5879"/>
</g>
<!-- Node1&#45;&gt;Node47 -->
<g id="edge70" class="edge">
<title>Node1&#45;&gt;Node47</title>
<path fill="none" stroke="#191970" d="M1008.5019,-331.323C1011.7065,-330.818 1014.9021,-330.3666 1018,-330 1378.5038,-287.3368 1472.2673,-324.5381 1834,-294 1847.5916,-292.8526 1862.4933,-291.0994 1875.4731,-289.4101"/>
<polygon fill="#191970" stroke="#191970" points="1875.9607,-292.8762 1885.4087,-288.0819 1875.0331,-285.9379 1875.9607,-292.8762"/>
</g>
<!-- Node48 -->
<g id="node49" class="node">
<title>Node48</title>
<polygon fill="none" stroke="#bfbfbf" points="1308.2637,-275.5 1308.2637,-293.5 1373.7363,-293.5 1373.7363,-275.5 1308.2637,-275.5"/>
<text text-anchor="middle" x="1341" y="-281.5" font-family="Helvetica,sans-Serif" font-size="10.00" fill="#000000">QTreeView</text>
</g>
<!-- Node1&#45;&gt;Node48 -->
<g id="edge71" class="edge">
<title>Node1&#45;&gt;Node48</title>
<path fill="none" stroke="#191970" d="M1008.5429,-331.616C1011.7383,-331.0453 1014.9206,-330.4989 1018,-330 1140.1138,-310.2179 1171.9657,-314.2667 1294,-294 1295.2934,-293.7852 1296.6056,-293.5609 1297.9293,-293.329"/>
<polygon fill="#191970" stroke="#191970" points="1298.9851,-296.6933 1308.1839,-291.4366 1297.7148,-289.8096 1298.9851,-296.6933"/>
</g>
<!-- Node3 -->
<g id="node4" class="node">
<title>Node3</title>
<polygon fill="none" stroke="#bfbfbf" points="1865.0493,-.5 1865.0493,-18.5 1914.9507,-18.5 1914.9507,-.5 1865.0493,-.5"/>
<text text-anchor="middle" x="1890" y="-6.5" font-family="Helvetica,sans-Serif" font-size="10.00" fill="#000000">QString</text>
</g>
<!-- Node2&#45;&gt;Node3 -->
<g id="edge3" class="edge">
<title>Node2&#45;&gt;Node3</title>
<path fill="none" stroke="#191970" d="M1402.4189,-166.1679C1452.1666,-158.7387 1523.3007,-146.3449 1584,-129 1688.7973,-99.054 1807.6559,-47.2239 1861.1816,-22.8709"/>
<polygon fill="#191970" stroke="#191970" points="1862.76,-25.9977 1870.3976,-18.6549 1859.848,-19.6322 1862.76,-25.9977"/>
</g>
<!-- Node4&#45;&gt;Node3 -->
<g id="edge6" class="edge">
<title>Node4&#45;&gt;Node3</title>
<path fill="none" stroke="#191970" d="M1914.2112,-55.4179C1910.2472,-47.8998 1904.491,-36.9829 1899.5857,-27.6799"/>
<polygon fill="#191970" stroke="#191970" points="1902.6529,-25.9927 1894.8928,-18.7795 1896.461,-29.2576 1902.6529,-25.9927"/>
</g>
<!-- Node5 -->
<g id="node6" class="node">
<title>Node5</title>
<polygon fill="none" stroke="#bfbfbf" points="2155.6216,-.5 2155.6216,-18.5 2222.3784,-18.5 2222.3784,-.5 2155.6216,-.5"/>
<text text-anchor="middle" x="2189" y="-6.5" font-family="Helvetica,sans-Serif" font-size="10.00" fill="#000000">QDateTime</text>
</g>
<!-- Node4&#45;&gt;Node5 -->
<g id="edge5" class="edge">
<title>Node4&#45;&gt;Node5</title>
<path fill="none" stroke="#191970" d="M1949.1865,-58.3509C1996.9888,-48.6134 2090.3186,-29.6018 2145.3927,-18.383"/>
<polygon fill="#191970" stroke="#191970" points="2146.1113,-21.8086 2155.2114,-16.3829 2144.714,-14.9494 2146.1113,-21.8086"/>
</g>
<!-- Node7&#45;&gt;Node8 -->
<g id="edge9" class="edge">
<title>Node7&#45;&gt;Node8</title>
<path fill="none" stroke="#191970" d="M934.4493,-165.4179C939.0076,-157.8207 945.6484,-146.7527 951.268,-137.3866"/>
<polygon fill="#191970" stroke="#191970" points="954.2886,-139.1552 956.4323,-128.7795 948.2861,-135.5536 954.2886,-139.1552"/>
</g>
<!-- Node20 -->
<g id="node21" class="node">
<title>Node20</title>
<g id="a_node21"><a xlink:href="simpletransaction_8h.html" target="_top" xlink:title="simpletransaction.h">
<polygon fill="none" stroke="#000000" points="439.9238,-110.5 439.9238,-128.5 542.0762,-128.5 542.0762,-110.5 439.9238,-110.5"/>
<text text-anchor="middle" x="491" y="-116.5" font-family="Helvetica,sans-Serif" font-size="10.00" fill="#000000">simpletransaction.h</text>
</a>
</g>
</g>
<!-- Node7&#45;&gt;Node20 -->
<g id="edge26" class="edge">
<title>Node7&#45;&gt;Node20</title>
<path fill="none" stroke="#191970" d="M891.2773,-169.7631C815.4743,-160.2445 644.0733,-138.7215 552.0789,-127.1697"/>
<polygon fill="#191970" stroke="#191970" points="552.4352,-123.6871 542.077,-125.9138 551.563,-130.6325 552.4352,-123.6871"/>
</g>
<!-- Node8&#45;&gt;Node3 -->
<g id="edge22" class="edge">
<title>Node8&#45;&gt;Node3</title>
<path fill="none" stroke="#191970" d="M984.8145,-114.3794C1016.0884,-107.0448 1073.7741,-92.3814 1121,-74 1138.5965,-67.1511 1140.7665,-59.9073 1159,-55 1292.6258,-19.0366 1727.4496,-11.336 1854.7079,-9.8361"/>
<polygon fill="#191970" stroke="#191970" points="1855.0761,-13.3322 1865.0361,-9.7202 1854.9974,-6.3327 1855.0761,-13.3322"/>
</g>
<!-- Node8&#45;&gt;Node4 -->
<g id="edge10" class="edge">
<title>Node8&#45;&gt;Node4</title>
<path fill="none" stroke="#191970" d="M985.1821,-118.1677C1111.4327,-110.9119 1716.4038,-76.1435 1878.802,-66.8102"/>
<polygon fill="#191970" stroke="#191970" points="1879.0664,-70.3009 1888.8491,-66.2328 1878.6647,-63.3124 1879.0664,-70.3009"/>
</g>
<!-- Node8&#45;&gt;Node6 -->
<g id="edge11" class="edge">
<title>Node8&#45;&gt;Node6</title>
<path fill="none" stroke="#191970" d="M938.9425,-117.8097C867.6217,-112.4958 644.3044,-95.214 460,-74 450.0684,-72.8568 439.346,-71.4431 429.4168,-70.0588"/>
<polygon fill="#191970" stroke="#191970" points="429.8159,-66.5804 419.4231,-68.6393 428.8315,-73.5108 429.8159,-66.5804"/>
</g>
<!-- Node9 -->
<g id="node10" class="node">
<title>Node9</title>
<g id="a_node10"><a xlink:href="executor_8h.html" target="_top" xlink:title="executor.h">
<polygon fill="none" stroke="#000000" points="767.9263,-55.5 767.9263,-73.5 830.0737,-73.5 830.0737,-55.5 767.9263,-55.5"/>
<text text-anchor="middle" x="799" y="-61.5" font-family="Helvetica,sans-Serif" font-size="10.00" fill="#000000">executor.h</text>
</a>
</g>
</g>
<!-- Node8&#45;&gt;Node9 -->
<g id="edge12" class="edge">
<title>Node8&#45;&gt;Node9</title>
<path fill="none" stroke="#191970" d="M938.9918,-111.7365C912.0685,-102.652 867.1459,-87.494 835.4618,-76.8031"/>
<polygon fill="#191970" stroke="#191970" points="836.2737,-73.3832 825.6795,-73.5023 834.0356,-80.0158 836.2737,-73.3832"/>
</g>
<!-- Node8&#45;&gt;Node11 -->
<g id="edge19" class="edge">
<title>Node8&#45;&gt;Node11</title>
<path fill="none" stroke="#191970" d="M954.4262,-110.2648C947.4974,-101.4244 937.3819,-87.4765 931,-74 924.052,-59.3283 919.046,-41.5637 915.9223,-28.3956"/>
<polygon fill="#191970" stroke="#191970" points="919.3278,-27.5858 913.7399,-18.5844 912.4948,-29.1058 919.3278,-27.5858"/>
</g>
<!-- Node8&#45;&gt;Node12 -->
<g id="edge20" class="edge">
<title>Node8&#45;&gt;Node12</title>
<path fill="none" stroke="#191970" d="M938.9621,-116.2091C900.772,-110.3426 822.2863,-96.5343 759,-74 741.2117,-67.6661 739.0625,-60.5036 721,-55 600.9789,-18.4301 564.2948,-42.2552 441,-19 440.7828,-18.959 440.565,-18.9176 440.3467,-18.8757"/>
<polygon fill="#191970" stroke="#191970" points="440.8239,-15.3988 430.3136,-16.7348 439.363,-22.2446 440.8239,-15.3988"/>
</g>
<!-- Node13 -->
<g id="node14" class="node">
<title>Node13</title>
<polygon fill="none" stroke="#bfbfbf" points="1168.377,-55.5 1168.377,-73.5 1221.623,-73.5 1221.623,-55.5 1168.377,-55.5"/>
<text text-anchor="middle" x="1195" y="-61.5" font-family="Helvetica,sans-Serif" font-size="10.00" fill="#000000">QDebug</text>
</g>
<!-- Node8&#45;&gt;Node13 -->
<g id="edge16" class="edge">
<title>Node8&#45;&gt;Node13</title>
<path fill="none" stroke="#191970" d="M984.7653,-114.1262C1025.1755,-104.5873 1109.7565,-84.6219 1158.4207,-73.1346"/>
<polygon fill="#191970" stroke="#191970" points="1159.3027,-76.5227 1168.2311,-70.8188 1157.6945,-69.7099 1159.3027,-76.5227"/>
</g>
<!-- Node14 -->
<g id="node15" class="node">
<title>Node14</title>
<polygon fill="none" stroke="#bfbfbf" points="675.7241,-55.5 675.7241,-73.5 712.2759,-73.5 712.2759,-55.5 675.7241,-55.5"/>
<text text-anchor="middle" x="694" y="-61.5" font-family="Helvetica,sans-Serif" font-size="10.00" fill="#000000">QDir</text>
</g>
<!-- Node8&#45;&gt;Node14 -->
<g id="edge17" class="edge">
<title>Node8&#45;&gt;Node14</title>
<path fill="none" stroke="#191970" d="M939.0565,-115.8465C896.6871,-108.9293 803.4228,-92.9076 726,-74 724.765,-73.6984 723.5066,-73.3787 722.238,-73.0463"/>
<polygon fill="#191970" stroke="#191970" points="723.1021,-69.6537 712.5292,-70.3363 721.2201,-76.396 723.1021,-69.6537"/>
</g>
<!-- Node15 -->
<g id="node16" class="node">
<title>Node15</title>
<polygon fill="none" stroke="#bfbfbf" points="2131.3301,-55.5 2131.3301,-73.5 2170.6699,-73.5 2170.6699,-55.5 2131.3301,-55.5"/>
<text text-anchor="middle" x="2151" y="-61.5" font-family="Helvetica,sans-Serif" font-size="10.00" fill="#000000">QList</text>
</g>
<!-- Node8&#45;&gt;Node15 -->
<g id="edge18" class="edge">
<title>Node8&#45;&gt;Node15</title>
<path fill="none" stroke="#191970" d="M984.8013,-118.4882C1093.3407,-113.6656 1568.5372,-92.481 1958,-74 2015.6434,-71.2647 2082.9628,-67.9159 2120.9275,-66.0132"/>
<polygon fill="#191970" stroke="#191970" points="2121.4626,-69.4908 2131.2746,-65.494 2121.1117,-62.4996 2121.4626,-69.4908"/>
</g>
<!-- Node16 -->
<g id="node17" class="node">
<title>Node16</title>
<polygon fill="none" stroke="#bfbfbf" points="939.6997,-55.5 939.6997,-73.5 1046.3003,-73.5 1046.3003,-55.5 939.6997,-55.5"/>
<text text-anchor="middle" x="993" y="-61.5" font-family="Helvetica,sans-Serif" font-size="10.00" fill="#000000">QRandomGenerator</text>
</g>
<!-- Node8&#45;&gt;Node16 -->
<g id="edge21" class="edge">
<title>Node8&#45;&gt;Node16</title>
<path fill="none" stroke="#191970" d="M967.119,-110.4179C971.3565,-102.8998 977.5097,-91.9829 982.7532,-82.6799"/>
<polygon fill="#191970" stroke="#191970" points="985.9086,-84.2096 987.7698,-73.7795 979.8105,-80.7724 985.9086,-84.2096"/>
</g>
<!-- Node8&#45;&gt;Node17 -->
<g id="edge23" class="edge">
<title>Node8&#45;&gt;Node17</title>
<path fill="none" stroke="#191970" d="M939.1532,-117.8905C859.0372,-112.2239 583.3991,-92.5374 356,-74 335.6452,-72.3407 313.1442,-70.3814 293.9726,-68.6745"/>
<polygon fill="#191970" stroke="#191970" points="294.2623,-65.1865 283.9902,-67.7819 293.6387,-72.1587 294.2623,-65.1865"/>
</g>
<!-- Node18 -->
<g id="node19" class="node">
<title>Node18</title>
<polygon fill="none" stroke="#bfbfbf" points="1063.8843,-55.5 1063.8843,-73.5 1112.1157,-73.5 1112.1157,-55.5 1063.8843,-55.5"/>
<text text-anchor="middle" x="1088" y="-61.5" font-family="Helvetica,sans-Serif" font-size="10.00" fill="#000000">cassert</text>
</g>
<!-- Node8&#45;&gt;Node18 -->
<g id="edge24" class="edge">
<title>Node8&#45;&gt;Node18</title>
<path fill="none" stroke="#191970" d="M982.8063,-110.4179C1003.2339,-101.5011 1034.6148,-87.803 1057.7892,-77.6873"/>
<polygon fill="#191970" stroke="#191970" points="1059.3981,-80.804 1067.1628,-73.5956 1056.5976,-74.3885 1059.3981,-80.804"/>
</g>
<!-- Node19 -->
<g id="node20" class="node">
<title>Node19</title>
<polygon fill="none" stroke="#bfbfbf" points="848.2734,-55.5 848.2734,-73.5 883.7266,-73.5 883.7266,-55.5 848.2734,-55.5"/>
<text text-anchor="middle" x="866" y="-61.5" font-family="Helvetica,sans-Serif" font-size="10.00" fill="#000000">map</text>
</g>
<!-- Node8&#45;&gt;Node19 -->
<g id="edge25" class="edge">
<title>Node8&#45;&gt;Node19</title>
<path fill="none" stroke="#191970" d="M946.1476,-110.4179C931.1396,-101.8195 908.3716,-88.7754 890.9328,-78.7844"/>
<polygon fill="#191970" stroke="#191970" points="892.2928,-75.5299 881.876,-73.5956 888.813,-81.6037 892.2928,-75.5299"/>
</g>
<!-- Node10 -->
<g id="node11" class="node">
<title>Node10</title>
<polygon fill="none" stroke="#bfbfbf" points="449.6602,-.5 449.6602,-18.5 502.3398,-18.5 502.3398,-.5 449.6602,-.5"/>
<text text-anchor="middle" x="476" y="-6.5" font-family="Helvetica,sans-Serif" font-size="10.00" fill="#000000">QObject</text>
</g>
<!-- Node9&#45;&gt;Node10 -->
<g id="edge13" class="edge">
<title>Node9&#45;&gt;Node10</title>
<path fill="none" stroke="#191970" d="M767.5654,-57.6721C763.0205,-56.7407 758.395,-55.8231 754,-55 667.6989,-38.8368 565.7186,-22.9664 512.4946,-14.9274"/>
<polygon fill="#191970" stroke="#191970" points="512.9285,-11.4534 502.519,-13.4263 511.8868,-18.3754 512.9285,-11.4534"/>
</g>
<!-- Node9&#45;&gt;Node11 -->
<g id="edge14" class="edge">
<title>Node9&#45;&gt;Node11</title>
<path fill="none" stroke="#191970" d="M817.6597,-55.4179C835.7342,-46.6205 863.3708,-33.1691 884.0672,-23.0956"/>
<polygon fill="#191970" stroke="#191970" points="885.8529,-26.1191 893.3126,-18.5956 882.7894,-19.825 885.8529,-26.1191"/>
</g>
<!-- Node9&#45;&gt;Node12 -->
<g id="edge15" class="edge">
<title>Node9&#45;&gt;Node12</title>
<path fill="none" stroke="#191970" d="M767.5991,-57.4797C763.0493,-56.5765 758.4134,-55.718 754,-55 615.7891,-32.5134 578.7722,-44.0342 441,-19 440.7826,-18.9605 440.5645,-18.9204 440.3459,-18.8799"/>
<polygon fill="#191970" stroke="#191970" points="440.8103,-15.4013 430.3054,-16.779 439.3766,-22.253 440.8103,-15.4013"/>
</g>
<!-- Node20&#45;&gt;Node6 -->
<g id="edge27" class="edge">
<title>Node20&#45;&gt;Node6</title>
<path fill="none" stroke="#191970" d="M474.6522,-110.4179C459.0319,-101.7399 435.2602,-88.5334 417.2138,-78.5077"/>
<polygon fill="#191970" stroke="#191970" points="418.8135,-75.3925 408.3721,-73.5956 415.4139,-81.5117 418.8135,-75.3925"/>
</g>
<!-- Node21 -->
<g id="node22" class="node">
<title>Node21</title>
<polygon fill="none" stroke="#bfbfbf" points="469.0962,-55.5 469.0962,-73.5 512.9038,-73.5 512.9038,-55.5 469.0962,-55.5"/>
<text text-anchor="middle" x="491" y="-61.5" font-family="Helvetica,sans-Serif" font-size="10.00" fill="#000000">queue</text>
</g>
<!-- Node20&#45;&gt;Node21 -->
<g id="edge28" class="edge">
<title>Node20&#45;&gt;Node21</title>
<path fill="none" stroke="#191970" d="M491,-110.4179C491,-103.2164 491,-92.8962 491,-83.8632"/>
<polygon fill="#191970" stroke="#191970" points="494.5001,-83.7794 491,-73.7795 487.5001,-83.7795 494.5001,-83.7794"/>
</g>
<!-- Node22&#45;&gt;Node8 -->
<g id="edge31" class="edge">
<title>Node22&#45;&gt;Node8</title>
<path fill="none" stroke="#191970" d="M1007.083,-165.4179C999.2354,-157.425 987.616,-145.5903 978.1389,-135.9377"/>
<polygon fill="#191970" stroke="#191970" points="980.6142,-133.463 971.1107,-128.7795 975.6192,-138.3672 980.6142,-133.463"/>
</g>
<!-- Node23&#45;&gt;Node24 -->
<g id="edge33" class="edge">
<title>Node23&#45;&gt;Node24</title>
<path fill="none" stroke="#191970" d="M932.1977,-275.4361C905.339,-267.063 866.9831,-254.1476 831.1229,-241.8007"/>
<polygon fill="#191970" stroke="#191970" points="832.1739,-238.4608 821.5791,-238.5079 829.8908,-245.0781 832.1739,-238.4608"/>
</g>
<!-- Node23&#45;&gt;Node25 -->
<g id="edge39" class="edge">
<title>Node23&#45;&gt;Node25</title>
<path fill="none" stroke="#191970" d="M1002.9822,-281.6297C1057.8316,-276.6926 1163.567,-264.5541 1250,-239 1270.0363,-233.0762 1273.2599,-226.8463 1293,-220 1333.7886,-205.8537 1381.2219,-193.8912 1416.7131,-185.7875"/>
<polygon fill="#191970" stroke="#191970" points="1417.8703,-189.1146 1426.8564,-183.5021 1416.3316,-182.2857 1417.8703,-189.1146"/>
</g>
<!-- Node27 -->
<g id="node28" class="node">
<title>Node27</title>
<polygon fill="none" stroke="#bfbfbf" points="841.4336,-220.5 841.4336,-238.5 918.5664,-238.5 918.5664,-220.5 841.4336,-220.5"/>
<text text-anchor="middle" x="880" y="-226.5" font-family="Helvetica,sans-Serif" font-size="10.00" fill="#000000">QDataStream</text>
</g>
<!-- Node23&#45;&gt;Node27 -->
<g id="edge38" class="edge">
<title>Node23&#45;&gt;Node27</title>
<path fill="none" stroke="#191970" d="M951.7988,-275.4179C938.4787,-266.8992 918.335,-254.0166 902.7708,-244.0627"/>
<polygon fill="#191970" stroke="#191970" points="904.5325,-241.0348 894.2222,-238.5956 900.761,-246.932 904.5325,-241.0348"/>
</g>
<!-- Node28 -->
<g id="node29" class="node">
<title>Node28</title>
<polygon fill="none" stroke="#bfbfbf" points="936.3228,-220.5 936.3228,-238.5 995.6772,-238.5 995.6772,-220.5 936.3228,-220.5"/>
<text text-anchor="middle" x="966" y="-226.5" font-family="Helvetica,sans-Serif" font-size="10.00" fill="#000000">QRegExp</text>
</g>
<!-- Node23&#45;&gt;Node28 -->
<g id="edge40" class="edge">
<title>Node23&#45;&gt;Node28</title>
<path fill="none" stroke="#191970" d="M966,-275.4179C966,-268.2164 966,-257.8962 966,-248.8632"/>
<polygon fill="#191970" stroke="#191970" points="969.5001,-248.7794 966,-238.7795 962.5001,-248.7795 969.5001,-248.7794"/>
</g>
<!-- Node29 -->
<g id="node30" class="node">
<title>Node29</title>
<polygon fill="none" stroke="#bfbfbf" points="1013.4312,-220.5 1013.4312,-238.5 1130.5688,-238.5 1130.5688,-220.5 1013.4312,-220.5"/>
<text text-anchor="middle" x="1072" y="-226.5" font-family="Helvetica,sans-Serif" font-size="10.00" fill="#000000">QSortFilterProxyModel</text>
</g>
<!-- Node23&#45;&gt;Node29 -->
<g id="edge41" class="edge">
<title>Node23&#45;&gt;Node29</title>
<path fill="none" stroke="#191970" d="M983.5037,-275.4179C1000.382,-266.6603 1026.1488,-253.2907 1045.5336,-243.2326"/>
<polygon fill="#191970" stroke="#191970" points="1047.2059,-246.308 1054.4703,-238.5956 1043.982,-240.0946 1047.2059,-246.308"/>
</g>
<!-- Node30 -->
<g id="node31" class="node">
<title>Node30</title>
<polygon fill="none" stroke="#bfbfbf" points="1148.6504,-220.5 1148.6504,-238.5 1241.3496,-238.5 1241.3496,-220.5 1148.6504,-220.5"/>
<text text-anchor="middle" x="1195" y="-226.5" font-family="Helvetica,sans-Serif" font-size="10.00" fill="#000000">QStringListModel</text>
</g>
<!-- Node23&#45;&gt;Node30 -->
<g id="edge42" class="edge">
<title>Node23&#45;&gt;Node30</title>
<path fill="none" stroke="#191970" d="M1003.0473,-275.6022C1042.3062,-266.1732 1104.4346,-251.2515 1147.322,-240.9511"/>
<polygon fill="#191970" stroke="#191970" points="1148.3379,-244.3067 1157.244,-238.568 1146.7031,-237.5002 1148.3379,-244.3067"/>
</g>
<!-- Node23&#45;&gt;Node31 -->
<g id="edge43" class="edge">
<title>Node23&#45;&gt;Node31</title>
<path fill="none" stroke="#191970" d="M928.9092,-278.7697C865.807,-269.0207 737.3057,-249.168 664.1477,-237.8655"/>
<polygon fill="#191970" stroke="#191970" points="664.6219,-234.3973 654.2047,-236.3294 663.553,-241.3153 664.6219,-234.3973"/>
</g>
<!-- Node24&#45;&gt;Node3 -->
<g id="edge37" class="edge">
<title>Node24&#45;&gt;Node3</title>
<path fill="none" stroke="#191970" d="M823.7107,-222.2494C826.4596,-221.3801 829.281,-220.5923 832,-220 1004.6761,-182.3838 1057.3192,-229.8266 1228,-184 1247.3968,-178.7921 1250.0732,-171.7183 1269,-165 1486.3031,-87.865 1759.2643,-33.6222 1854.9414,-15.8294"/>
<polygon fill="#191970" stroke="#191970" points="1855.7436,-19.2405 1864.9418,-13.9827 1854.4724,-12.3569 1855.7436,-19.2405"/>
</g>
<!-- Node24&#45;&gt;Node23 -->
<g id="edge34" class="edge">
<title>Node24&#45;&gt;Node23</title>
<path fill="none" stroke="#191970" d="M823.6676,-233.2263C829.4976,-234.9896 835.5521,-237.1167 841,-239 873.5935,-250.2672 910.7305,-262.8579 936.1459,-271.9332"/>
<polygon fill="#191970" stroke="#191970" points="935.0151,-275.246 945.6095,-275.3502 937.3924,-268.6621 935.0151,-275.246"/>
</g>
<!-- Node24&#45;&gt;Node25 -->
<g id="edge35" class="edge">
<title>Node24&#45;&gt;Node25</title>
<path fill="none" stroke="#191970" d="M823.6957,-222.1782C826.4468,-221.3193 829.2728,-220.5534 832,-220 1081.4722,-169.375 1152.9442,-211.4306 1409.5234,-184.0522"/>
<polygon fill="#191970" stroke="#191970" points="1409.9528,-187.5262 1419.5137,-182.9612 1409.1928,-180.5675 1409.9528,-187.5262"/>
</g>
<!-- Node26 -->
<g id="node27" class="node">
<title>Node26</title>
<polygon fill="none" stroke="#bfbfbf" points="1102.9805,-165.5 1102.9805,-183.5 1219.0195,-183.5 1219.0195,-165.5 1102.9805,-165.5"/>
<text text-anchor="middle" x="1161" y="-171.5" font-family="Helvetica,sans-Serif" font-size="10.00" fill="#000000">QProcessEnvironment</text>
</g>
<!-- Node24&#45;&gt;Node26 -->
<g id="edge36" class="edge">
<title>Node24&#45;&gt;Node26</title>
<path fill="none" stroke="#191970" d="M823.7374,-222.3655C826.4824,-221.4792 829.2956,-220.6557 832,-220 844.5243,-216.9633 1000.0404,-195.9735 1092.7002,-183.5898"/>
<polygon fill="#191970" stroke="#191970" points="1093.3964,-187.0279 1102.845,-182.2348 1092.4696,-180.0896 1093.3964,-187.0279"/>
</g>
<!-- Node31&#45;&gt;Node2 -->
<g id="edge47" class="edge">
<title>Node31&#45;&gt;Node2</title>
<path fill="none" stroke="#191970" d="M654.2257,-226.4136C755.6794,-219.2961 1012.9717,-201.0347 1228,-184 1240.6637,-182.9968 1254.1291,-181.8895 1267.1696,-180.7959"/>
<polygon fill="#191970" stroke="#191970" points="1267.8427,-184.2517 1277.5133,-179.9241 1267.2547,-177.2764 1267.8427,-184.2517"/>
</g>
<!-- Node31&#45;&gt;Node6 -->
<g id="edge44" class="edge">
<title>Node31&#45;&gt;Node6</title>
<path fill="none" stroke="#191970" d="M565.4773,-228.1968C459.1116,-224.6258 197.1051,-212.9506 171,-184 142.6029,-152.5076 284.8311,-99.9172 354.879,-76.4447"/>
<polygon fill="#191970" stroke="#191970" points="356.2724,-79.67 364.6613,-73.1988 354.0679,-73.0262 356.2724,-79.67"/>
</g>
<!-- Node31&#45;&gt;Node7 -->
<g id="edge45" class="edge">
<title>Node31&#45;&gt;Node7</title>
<path fill="none" stroke="#191970" d="M654.1411,-222.2281C707.2906,-213.4208 799.245,-198.0195 878,-184 879.0862,-183.8066 880.1853,-183.61 881.2934,-183.4109"/>
<polygon fill="#191970" stroke="#191970" points="882.1994,-186.8037 891.4124,-181.572 880.9477,-179.9165 882.1994,-186.8037"/>
</g>
<!-- Node31&#45;&gt;Node8 -->
<g id="edge46" class="edge">
<title>Node31&#45;&gt;Node8</title>
<path fill="none" stroke="#191970" d="M654.1397,-221.7215C717.1657,-210.4977 827.32,-190.4044 845,-184 854.5359,-180.5457 905.657,-151.703 937.0876,-133.7764"/>
<polygon fill="#191970" stroke="#191970" points="939.1953,-136.6033 946.142,-128.6036 935.7228,-130.5252 939.1953,-136.6033"/>
</g>
<!-- Node31&#45;&gt;Node10 -->
<g id="edge54" class="edge">
<title>Node31&#45;&gt;Node10</title>
<path fill="none" stroke="#191970" d="M619.9132,-220.2915C633.1132,-206.9264 653.2322,-181.907 639,-165 608.7906,-129.1129 476.9363,-138.5052 431,-129 328.9224,-107.8779 267.4899,-155.8965 203,-74 197.7757,-67.3656 197.4975,-61.4055 203,-55 237.5689,-14.7581 387.0207,-29.6099 439,-19 439.2112,-18.9569 439.423,-18.9134 439.6353,-18.8694"/>
<polygon fill="#191970" stroke="#191970" points="440.4109,-22.2825 449.3966,-16.6694 438.8718,-15.4537 440.4109,-22.2825"/>
</g>
<!-- Node31&#45;&gt;Node14 -->
<g id="edge51" class="edge">
<title>Node31&#45;&gt;Node14</title>
<path fill="none" stroke="#191970" d="M629.3546,-220.3478C643.4485,-212.6507 661.7893,-200.2906 672,-184 691.5279,-152.8442 694.6627,-108.7154 694.6747,-83.7234"/>
<polygon fill="#191970" stroke="#191970" points="698.1739,-83.6429 694.5082,-73.7025 691.1749,-83.7593 698.1739,-83.6429"/>
</g>
<!-- Node31&#45;&gt;Node22 -->
<g id="edge48" class="edge">
<title>Node31&#45;&gt;Node22</title>
<path fill="none" stroke="#191970" d="M654.4122,-224.5483C733.9401,-215.5887 898.6448,-196.5903 974.6165,-183.8516"/>
<polygon fill="#191970" stroke="#191970" points="975.4748,-187.2551 984.7295,-182.0974 974.2784,-180.3581 975.4748,-187.2551"/>
</g>
<!-- Node32 -->
<g id="node33" class="node">
<title>Node32</title>
<polygon fill="none" stroke="#bfbfbf" points="392.1602,-165.5 392.1602,-183.5 459.8398,-183.5 459.8398,-165.5 392.1602,-165.5"/>
<text text-anchor="middle" x="426" y="-171.5" font-family="Helvetica,sans-Serif" font-size="10.00" fill="#000000">QByteArray</text>
</g>
<!-- Node31&#45;&gt;Node32 -->
<g id="edge49" class="edge">
<title>Node31&#45;&gt;Node32</title>
<path fill="none" stroke="#191970" d="M579.6161,-220.4179C548.494,-211.115 499.9614,-196.608 465.7917,-186.3943"/>
<polygon fill="#191970" stroke="#191970" points="466.7067,-183.0148 456.1232,-183.5042 464.7019,-189.7216 466.7067,-183.0148"/>
</g>
<!-- Node33 -->
<g id="node34" class="node">
<title>Node33</title>
<polygon fill="none" stroke="#bfbfbf" points="477.813,-165.5 477.813,-183.5 572.187,-183.5 572.187,-165.5 477.813,-165.5"/>
<text text-anchor="middle" x="525" y="-171.5" font-family="Helvetica,sans-Serif" font-size="10.00" fill="#000000">QCoreApplication</text>
</g>
<!-- Node31&#45;&gt;Node33 -->
<g id="edge50" class="edge">
<title>Node31&#45;&gt;Node33</title>
<path fill="none" stroke="#191970" d="M595.964,-220.4179C582.7987,-211.8992 562.8892,-199.0166 547.506,-189.0627"/>
<polygon fill="#191970" stroke="#191970" points="549.354,-186.0897 539.0569,-183.5956 545.5512,-191.9667 549.354,-186.0897"/>
</g>
<!-- Node34 -->
<g id="node35" class="node">
<title>Node34</title>
<polygon fill="none" stroke="#bfbfbf" points="590.0542,-165.5 590.0542,-183.5 629.9458,-183.5 629.9458,-165.5 590.0542,-165.5"/>
<text text-anchor="middle" x="610" y="-171.5" font-family="Helvetica,sans-Serif" font-size="10.00" fill="#000000">QFile</text>
</g>
<!-- Node31&#45;&gt;Node34 -->
<g id="edge52" class="edge">
<title>Node31&#45;&gt;Node34</title>
<path fill="none" stroke="#191970" d="M610,-220.4179C610,-213.2164 610,-202.8962 610,-193.8632"/>
<polygon fill="#191970" stroke="#191970" points="613.5001,-193.7794 610,-183.7795 606.5001,-193.7795 613.5001,-193.7794"/>
</g>
<!-- Node35 -->
<g id="node36" class="node">
<title>Node35</title>
<polygon fill="none" stroke="#bfbfbf" points="724.4385,-165.5 724.4385,-183.5 771.5615,-183.5 771.5615,-165.5 724.4385,-165.5"/>
<text text-anchor="middle" x="748" y="-171.5" font-family="Helvetica,sans-Serif" font-size="10.00" fill="#000000">QHash</text>
</g>
<!-- Node31&#45;&gt;Node35 -->
<g id="edge53" class="edge">
<title>Node31&#45;&gt;Node35</title>
<path fill="none" stroke="#191970" d="M632.7879,-220.4179C655.3607,-211.4215 690.1452,-197.5581 715.5897,-187.4172"/>
<polygon fill="#191970" stroke="#191970" points="717.1847,-190.5493 725.1783,-183.5956 714.593,-184.0467 717.1847,-190.5493"/>
</g>
<!-- Node36 -->
<g id="node37" class="node">
<title>Node36</title>
<polygon fill="none" stroke="#bfbfbf" points="789.7144,-165.5 789.7144,-183.5 836.2856,-183.5 836.2856,-165.5 789.7144,-165.5"/>
<text text-anchor="middle" x="813" y="-171.5" font-family="Helvetica,sans-Serif" font-size="10.00" fill="#000000">QPoint</text>
</g>
<!-- Node31&#45;&gt;Node36 -->
<g id="edge55" class="edge">
<title>Node31&#45;&gt;Node36</title>
<path fill="none" stroke="#191970" d="M645.1222,-220.4674C677.7182,-212.0152 727.8237,-198.8477 779.8672,-184.2676"/>
<polygon fill="#191970" stroke="#191970" points="780.9245,-187.6061 789.6036,-181.5296 779.0295,-180.8675 780.9245,-187.6061"/>
</g>
<!-- Node37 -->
<g id="node38" class="node">
<title>Node37</title>
<polygon fill="none" stroke="#bfbfbf" points="180.0444,-165.5 180.0444,-183.5 239.9556,-183.5 239.9556,-165.5 180.0444,-165.5"/>
<text text-anchor="middle" x="210" y="-171.5" font-family="Helvetica,sans-Serif" font-size="10.00" fill="#000000">QSettings</text>
</g>
<!-- Node31&#45;&gt;Node37 -->
<g id="edge56" class="edge">
<title>Node31&#45;&gt;Node37</title>
<path fill="none" stroke="#191970" d="M565.8515,-225.5662C499.4352,-219.292 369.7202,-205.6564 250.2139,-184.0467"/>
<polygon fill="#191970" stroke="#191970" points="250.6278,-180.5644 240.1608,-182.2053 249.3666,-187.4498 250.6278,-180.5644"/>
</g>
<!-- Node38 -->
<g id="node39" class="node">
<title>Node38</title>
<polygon fill="none" stroke="#bfbfbf" points="258.3843,-165.5 258.3843,-183.5 301.6157,-183.5 301.6157,-165.5 258.3843,-165.5"/>
<text text-anchor="middle" x="280" y="-171.5" font-family="Helvetica,sans-Serif" font-size="10.00" fill="#000000">QSize</text>
</g>
<!-- Node31&#45;&gt;Node38 -->
<g id="edge57" class="edge">
<title>Node31&#45;&gt;Node38</title>
<path fill="none" stroke="#191970" d="M565.7964,-224.8239C509.0588,-218.3717 407.4896,-205.3044 311.7498,-183.8845"/>
<polygon fill="#191970" stroke="#191970" points="312.4354,-180.4511 301.9083,-181.648 310.8841,-187.2771 312.4354,-180.4511"/>
</g>
<!-- Node39 -->
<g id="node40" class="node">
<title>Node39</title>
<polygon fill="none" stroke="#bfbfbf" points="319.6372,-165.5 319.6372,-183.5 374.3628,-183.5 374.3628,-165.5 319.6372,-165.5"/>
<text text-anchor="middle" x="347" y="-171.5" font-family="Helvetica,sans-Serif" font-size="10.00" fill="#000000">QVariant</text>
</g>
<!-- Node31&#45;&gt;Node39 -->
<g id="edge58" class="edge">
<title>Node31&#45;&gt;Node39</title>
<path fill="none" stroke="#191970" d="M565.4632,-221.3934C521.7212,-213.2486 452.8711,-199.9426 384.5485,-184.2628"/>
<polygon fill="#191970" stroke="#191970" points="385.0066,-180.7764 374.475,-181.9324 383.4289,-187.5963 385.0066,-180.7764"/>
</g>
<!-- Node41 -->
<g id="node42" class="node">
<title>Node41</title>
<polygon fill="none" stroke="#bfbfbf" points="1615.2144,-220.5 1615.2144,-238.5 1666.7856,-238.5 1666.7856,-220.5 1615.2144,-220.5"/>
<text text-anchor="middle" x="1641" y="-226.5" font-family="Helvetica,sans-Serif" font-size="10.00" fill="#000000">QAction</text>
</g>
<!-- Node40&#45;&gt;Node41 -->
<g id="edge60" class="edge">
<title>Node40&#45;&gt;Node41</title>
<path fill="none" stroke="#191970" d="M1564.1919,-275.4179C1578.5746,-266.8195 1600.3939,-253.7754 1617.1061,-243.7844"/>
<polygon fill="#191970" stroke="#191970" points="1618.9983,-246.731 1625.7855,-238.5956 1615.4064,-240.7228 1618.9983,-246.731"/>
</g>
<!-- Node42 -->
<g id="node43" class="node">
<title>Node42</title>
<polygon fill="none" stroke="#bfbfbf" points="1684.6504,-220.5 1684.6504,-238.5 1757.3496,-238.5 1757.3496,-220.5 1684.6504,-220.5"/>
<text text-anchor="middle" x="1721" y="-226.5" font-family="Helvetica,sans-Serif" font-size="10.00" fill="#000000">QApplication</text>
</g>
<!-- Node40&#45;&gt;Node42 -->
<g id="edge61" class="edge">
<title>Node40&#45;&gt;Node42</title>
<path fill="none" stroke="#191970" d="M1577.4023,-275.4179C1606.245,-266.1949 1651.0845,-251.8567 1682.978,-241.6582"/>
<polygon fill="#191970" stroke="#191970" points="1684.3825,-244.8837 1692.8414,-238.5042 1682.2505,-238.2163 1684.3825,-244.8837"/>
</g>
<!-- Node40&#45;&gt;Node43 -->
<g id="edge62" class="edge">
<title>Node40&#45;&gt;Node43</title>
<path fill="none" stroke="#191970" d="M1520.4326,-275.4179C1491.4221,-266.1949 1446.322,-251.8567 1414.2431,-241.6582"/>
<polygon fill="#191970" stroke="#191970" points="1414.9128,-238.1985 1404.3223,-238.5042 1412.7919,-244.8695 1414.9128,-238.1985"/>
</g>
<!-- Node44 -->
<g id="node45" class="node">
<title>Node44</title>
<polygon fill="none" stroke="#bfbfbf" points="1434.6035,-220.5 1434.6035,-238.5 1483.3965,-238.5 1483.3965,-220.5 1434.6035,-220.5"/>
<text text-anchor="middle" x="1459" y="-226.5" font-family="Helvetica,sans-Serif" font-size="10.00" fill="#000000">QMenu</text>
</g>
<!-- Node40&#45;&gt;Node44 -->
<g id="edge63" class="edge">
<title>Node40&#45;&gt;Node44</title>
<path fill="none" stroke="#191970" d="M1534.1383,-275.4179C1520.1986,-266.8992 1499.118,-254.0166 1482.8299,-244.0627"/>
<polygon fill="#191970" stroke="#191970" points="1484.2417,-240.8237 1473.8837,-238.5956 1480.5915,-246.7967 1484.2417,-240.8237"/>
</g>
<!-- Node45 -->
<g id="node46" class="node">
<title>Node45</title>
<polygon fill="none" stroke="#bfbfbf" points="1501.1733,-220.5 1501.1733,-238.5 1596.8267,-238.5 1596.8267,-220.5 1501.1733,-220.5"/>
<text text-anchor="middle" x="1549" y="-226.5" font-family="Helvetica,sans-Serif" font-size="10.00" fill="#000000">QSystemTrayIcon</text>
</g>
<!-- Node40&#45;&gt;Node45 -->
<g id="edge64" class="edge">
<title>Node40&#45;&gt;Node45</title>
<path fill="none" stroke="#191970" d="M1549,-275.4179C1549,-268.2164 1549,-257.8962 1549,-248.8632"/>
<polygon fill="#191970" stroke="#191970" points="1552.5001,-248.7794 1549,-238.7795 1545.5001,-248.7795 1552.5001,-248.7794"/>
</g>
<!-- Node46 -->
<g id="node47" class="node">
<title>Node46</title>
<polygon fill="none" stroke="#bfbfbf" points="1934.5493,-220.5 1934.5493,-238.5 1989.4507,-238.5 1989.4507,-220.5 1934.5493,-220.5"/>
<text text-anchor="middle" x="1962" y="-226.5" font-family="Helvetica,sans-Serif" font-size="10.00" fill="#000000">QWidget</text>
</g>
<!-- Node40&#45;&gt;Node46 -->
<g id="edge65" class="edge">
<title>Node40&#45;&gt;Node46</title>
<path fill="none" stroke="#191970" d="M1578.7019,-280.5445C1652.2488,-270.7502 1842.7565,-245.3799 1924.1863,-234.5357"/>
<polygon fill="#191970" stroke="#191970" points="1925.0238,-237.9552 1934.4743,-233.1657 1924.0997,-231.0164 1925.0238,-237.9552"/>
</g>
<!-- Node49&#45;&gt;Node13 -->
<g id="edge73" class="edge">
<title>Node49&#45;&gt;Node13</title>
<path fill="none" stroke="#191970" d="M1494.9979,-113.0291C1428.4848,-102.2696 1296.1163,-80.8571 1231.7928,-70.4518"/>
<polygon fill="#191970" stroke="#191970" points="1232.1364,-66.9619 1221.7058,-68.8201 1231.0186,-73.8721 1232.1364,-66.9619"/>
</g>
<!-- Node58&#45;&gt;Node1 -->
<g id="edge86" class="edge">
<title>Node58&#45;&gt;Node1</title>
<path fill="none" stroke="#191970" d="M1041.6337,-385.4179C1028.1587,-376.8992 1007.7807,-364.0166 992.0356,-354.0627"/>
<polygon fill="#191970" stroke="#191970" points="993.7105,-350.9808 983.3876,-348.5956 989.9699,-356.8977 993.7105,-350.9808"/>
</g>
<!-- Node58&#45;&gt;Node51 -->
<g id="edge87" class="edge">
<title>Node58&#45;&gt;Node51</title>
<path fill="none" stroke="#191970" d="M1090.8424,-385.4179C1126.9143,-376.0152 1183.3821,-361.2961 1222.6249,-351.067"/>
<polygon fill="#191970" stroke="#191970" points="1223.6628,-354.4135 1232.4566,-348.5042 1221.8971,-347.6398 1223.6628,-354.4135"/>
</g>
<!-- Node59 -->
<g id="node60" class="node">
<title>Node59</title>
<polygon fill="none" stroke="#bfbfbf" points="1755.936,-330.5 1755.936,-348.5 1808.064,-348.5 1808.064,-330.5 1755.936,-330.5"/>
<text text-anchor="middle" x="1782" y="-336.5" font-family="Helvetica,sans-Serif" font-size="10.00" fill="#000000">QDialog</text>
</g>
<!-- Node58&#45;&gt;Node59 -->
<g id="edge88" class="edge">
<title>Node58&#45;&gt;Node59</title>
<path fill="none" stroke="#191970" d="M1095.0329,-391.543C1222.0993,-381.9167 1622.7884,-351.5615 1745.7557,-342.2458"/>
<polygon fill="#191970" stroke="#191970" points="1746.0792,-345.7314 1755.7862,-341.4859 1745.5503,-338.7514 1746.0792,-345.7314"/>
</g>
<!-- Node60 -->
<g id="node61" class="node">
<title>Node60</title>
<polygon fill="none" stroke="#bfbfbf" points="1142.8794,-330.5 1142.8794,-348.5 1211.1206,-348.5 1211.1206,-330.5 1142.8794,-330.5"/>
<text text-anchor="middle" x="1177" y="-336.5" font-family="Helvetica,sans-Serif" font-size="10.00" fill="#000000">QFileDialog</text>
</g>
<!-- Node58&#45;&gt;Node60 -->
<g id="edge89" class="edge">
<title>Node58&#45;&gt;Node60</title>
<path fill="none" stroke="#191970" d="M1075.9807,-385.4179C1095.51,-376.5409 1125.4644,-362.9253 1147.6895,-352.823"/>
<polygon fill="#191970" stroke="#191970" points="1149.3343,-355.92 1156.9896,-348.5956 1146.4376,-349.5474 1149.3343,-355.92"/>
</g>
<!-- Node61 -->
<g id="node62" class="node">
<title>Node61</title>
<polygon fill="none" stroke="#bfbfbf" points="1026.8721,-330.5 1026.8721,-348.5 1125.1279,-348.5 1125.1279,-330.5 1026.8721,-330.5"/>
<text text-anchor="middle" x="1076" y="-336.5" font-family="Helvetica,sans-Serif" font-size="10.00" fill="#000000">QTableWidgetItem</text>
</g>
<!-- Node58&#45;&gt;Node61 -->
<g id="edge90" class="edge">
<title>Node58&#45;&gt;Node61</title>
<path fill="none" stroke="#191970" d="M1059.3026,-385.4179C1061.9789,-378.0581 1065.8396,-367.441 1069.1747,-358.2695"/>
<polygon fill="#191970" stroke="#191970" points="1072.4974,-359.3735 1072.6257,-348.7795 1065.9189,-356.9813 1072.4974,-359.3735"/>
</g>
<!-- Node62&#45;&gt;Node51 -->
<g id="edge93" class="edge">
<title>Node62&#45;&gt;Node51</title>
<path fill="none" stroke="#191970" d="M1212.8282,-440.4982C1222.5088,-422.4496 1244.4563,-381.5306 1257.2466,-357.6843"/>
<polygon fill="#191970" stroke="#191970" points="1260.4627,-359.0929 1262.1051,-348.6261 1254.294,-355.7842 1260.4627,-359.0929"/>
</g>
<!-- Node62&#45;&gt;Node58 -->
<g id="edge92" class="edge">
<title>Node62&#45;&gt;Node58</title>
<path fill="none" stroke="#191970" d="M1182.9003,-440.4179C1157.632,-431.2748 1118.4709,-417.1046 1090.3355,-406.924"/>
<polygon fill="#191970" stroke="#191970" points="1091.4786,-403.6156 1080.8844,-403.5042 1089.0968,-410.198 1091.4786,-403.6156"/>
</g>
<!-- Node62&#45;&gt;Node59 -->
<g id="edge94" class="edge">
<title>Node62&#45;&gt;Node59</title>
<path fill="none" stroke="#191970" d="M1249.743,-441.5005C1357.6315,-420.825 1644.3733,-365.8744 1745.816,-346.4342"/>
<polygon fill="#191970" stroke="#191970" points="1746.7111,-349.8265 1755.8736,-344.5068 1745.3936,-342.9516 1746.7111,-349.8265"/>
</g>
<!-- Node63&#45;&gt;Node8 -->
<g id="edge96" class="edge">
<title>Node63&#45;&gt;Node8</title>
<path fill="none" stroke="#191970" d="M1799.5927,-385.2865C1805.4722,-376.4614 1813.6519,-362.5238 1817,-349 1828.7442,-301.5625 1806.3394,-241.4023 1783,-220 1723.8234,-165.7347 1141.4129,-129.5794 995.1765,-121.309"/>
<polygon fill="#191970" stroke="#191970" points="995.2125,-117.8056 985.0323,-120.7407 994.8208,-124.7947 995.2125,-117.8056"/>
</g>
<!-- Node63&#45;&gt;Node46 -->
<g id="edge98" class="edge">
<title>Node63&#45;&gt;Node46</title>
<path fill="none" stroke="#191970" d="M1815.4321,-385.4511C1848.3369,-371.0333 1909.4143,-339.7285 1943,-294 1952.7176,-280.7691 1957.4923,-262.6113 1959.8223,-248.9319"/>
<polygon fill="#191970" stroke="#191970" points="1963.3343,-249.0906 1961.2594,-238.701 1956.4024,-248.1169 1963.3343,-249.0906"/>
</g>
<!-- Node63&#45;&gt;Node59 -->
<g id="edge97" class="edge">
<title>Node63&#45;&gt;Node59</title>
<path fill="none" stroke="#191970" d="M1791.1836,-385.4179C1789.7433,-378.2164 1787.6792,-367.8962 1785.8726,-358.8632"/>
<polygon fill="#191970" stroke="#191970" points="1789.2492,-357.8988 1783.8559,-348.7795 1782.3851,-359.2717 1789.2492,-357.8988"/>
</g>
<!-- Node64&#45;&gt;Node46 -->
<g id="edge101" class="edge">
<title>Node64&#45;&gt;Node46</title>
<path fill="none" stroke="#191970" d="M1936.1752,-440.384C1930.1862,-427.9529 1921.1979,-404.9465 1925,-385 1933.144,-342.275 1952.525,-336.6606 1961,-294 1963.9705,-279.0472 1964.0647,-261.7593 1963.5016,-248.8474"/>
<polygon fill="#191970" stroke="#191970" points="1966.991,-248.5661 1962.8933,-238.7958 1960.0038,-248.989 1966.991,-248.5661"/>
</g>
<!-- Node65 -->
<g id="node66" class="node">
<title>Node65</title>
<polygon fill="none" stroke="#bfbfbf" points="1934.2588,-385.5 1934.2588,-403.5 2009.7412,-403.5 2009.7412,-385.5 1934.2588,-385.5"/>
<text text-anchor="middle" x="1972" y="-391.5" font-family="Helvetica,sans-Serif" font-size="10.00" fill="#000000">QPushButton</text>
</g>
<!-- Node64&#45;&gt;Node65 -->
<g id="edge100" class="edge">
<title>Node64&#45;&gt;Node65</title>
<path fill="none" stroke="#191970" d="M1946.119,-440.4179C1950.3565,-432.8998 1956.5097,-421.9829 1961.7532,-412.6799"/>
<polygon fill="#191970" stroke="#191970" points="1964.9086,-414.2096 1966.7698,-403.7795 1958.8105,-410.7724 1964.9086,-414.2096"/>
</g>
<!-- Node66&#45;&gt;Node3 -->
<g id="edge104" class="edge">
<title>Node66&#45;&gt;Node3</title>
<path fill="none" stroke="#191970" d="M2112.9883,-385.2851C2105.246,-366.6366 2089,-322.9271 2089,-284.5 2089,-284.5 2089,-284.5 2089,-119.5 2089,-45.5468 1982.4304,-20.9231 1925.2656,-13.0345"/>
<polygon fill="#191970" stroke="#191970" points="1925.5666,-9.5446 1915.2035,-11.7481 1924.6789,-16.488 1925.5666,-9.5446"/>
</g>
<!-- Node68&#45;&gt;Node4 -->
<g id="edge107" class="edge">
<title>Node68&#45;&gt;Node4</title>
<path fill="none" stroke="#191970" d="M2278.5436,-385.4819C2297.8394,-373.6967 2325.7001,-351.9618 2314,-330 2236.9075,-185.2932 2042.0014,-105.4 1958.243,-76.7862"/>
<polygon fill="#191970" stroke="#191970" points="1959.1889,-73.4119 1948.595,-73.55 1956.9628,-80.0485 1959.1889,-73.4119"/>
</g>
<!-- Node68&#45;&gt;Node5 -->
<g id="edge109" class="edge">
<title>Node68&#45;&gt;Node5</title>
<path fill="none" stroke="#191970" d="M2282.2466,-385.4145C2313.7686,-369.7249 2371,-334.3718 2371,-284.5 2371,-284.5 2371,-284.5 2371,-119.5 2371,-54.9866 2286.2055,-27.2938 2232.3731,-16.2132"/>
<polygon fill="#191970" stroke="#191970" points="2232.8655,-12.7435 2222.3816,-14.2724 2231.5307,-19.6151 2232.8655,-12.7435"/>
</g>
<!-- Node68&#45;&gt;Node15 -->
<g id="edge111" class="edge">
<title>Node68&#45;&gt;Node15</title>
<path fill="none" stroke="#191970" d="M2236.4367,-385.4243C2219.2802,-378.0934 2197.4396,-366.1534 2184,-349 2165.569,-325.4759 2165,-314.3846 2165,-284.5 2165,-284.5 2165,-284.5 2165,-174.5 2165,-142.3684 2159.049,-105.3768 2154.9068,-83.5207"/>
<polygon fill="#191970" stroke="#191970" points="2158.3146,-82.7112 2152.9466,-73.5769 2151.4468,-84.065 2158.3146,-82.7112"/>
</g>
<!-- Node68&#45;&gt;Node51 -->
<g id="edge108" class="edge">
<title>Node68&#45;&gt;Node51</title>
<path fill="none" stroke="#191970" d="M2223.9664,-389.7452C2209.307,-388.0449 2192.3926,-386.2438 2177,-385 1847.7701,-358.3963 1450.1919,-344.9205 1314.8032,-340.8563"/>
<polygon fill="#191970" stroke="#191970" points="1314.8611,-337.3565 1304.7615,-340.5577 1314.653,-344.3535 1314.8611,-337.3565"/>
</g>
<!-- Node68&#45;&gt;Node59 -->
<g id="edge110" class="edge">
<title>Node68&#45;&gt;Node59</title>
<path fill="none" stroke="#191970" d="M2223.934,-390.1383C2133.5893,-379.7863 1907.1738,-353.8428 1818.4631,-343.6781"/>
<polygon fill="#191970" stroke="#191970" points="1818.6792,-340.18 1808.3457,-342.5188 1817.8823,-347.1345 1818.6792,-340.18"/>
</g>
<!-- Node69 -->
<g id="node70" class="node">
<title>Node69</title>
<polygon fill="none" stroke="#bfbfbf" points="2193.4756,-330.5 2193.4756,-348.5 2304.5244,-348.5 2304.5244,-330.5 2193.4756,-330.5"/>
<text text-anchor="middle" x="2249" y="-336.5" font-family="Helvetica,sans-Serif" font-size="10.00" fill="#000000">QStandardItemModel</text>
</g>
<!-- Node68&#45;&gt;Node69 -->
<g id="edge112" class="edge">
<title>Node68&#45;&gt;Node69</title>
<path fill="none" stroke="#191970" d="M2259.8533,-385.4179C2258.1324,-378.1372 2255.6581,-367.669 2253.5065,-358.5659"/>
<polygon fill="#191970" stroke="#191970" points="2256.8998,-357.7062 2251.1933,-348.7795 2250.0875,-359.3164 2256.8998,-357.7062"/>
</g>
<!-- Node70&#45;&gt;Node3 -->
<g id="edge117" class="edge">
<title>Node70&#45;&gt;Node3</title>
<path fill="none" stroke="#191970" d="M2223.9622,-110.2147C2217.1634,-95.7897 2201.9849,-68.278 2180,-55 2137.6595,-29.428 1992.7904,-16.4758 1925.2241,-11.7081"/>
<polygon fill="#191970" stroke="#191970" points="1925.2873,-8.2043 1915.0714,-11.0125 1924.8087,-15.1879 1925.2873,-8.2043"/>
</g>
<!-- Node70&#45;&gt;Node15 -->
<g id="edge116" class="edge">
<title>Node70&#45;&gt;Node15</title>
<path fill="none" stroke="#191970" d="M2215.285,-110.4179C2203.5817,-102.0584 2185.9953,-89.4966 2172.1735,-79.6239"/>
<polygon fill="#191970" stroke="#191970" points="2173.9056,-76.56 2163.7339,-73.5956 2169.8369,-82.2561 2173.9056,-76.56"/>
</g>
<!-- Node71 -->
<g id="node72" class="node">
<title>Node71</title>
<polygon fill="none" stroke="#bfbfbf" points="2226.6084,-55.5 2226.6084,-73.5 2265.3916,-73.5 2265.3916,-55.5 2226.6084,-55.5"/>
<text text-anchor="middle" x="2246" y="-61.5" font-family="Helvetica,sans-Serif" font-size="10.00" fill="#000000">utility</text>
</g>
<!-- Node70&#45;&gt;Node71 -->
<g id="edge115" class="edge">
<title>Node70&#45;&gt;Node71</title>
<path fill="none" stroke="#191970" d="M2230.9723,-110.4179C2233.3551,-103.1372 2236.7811,-92.669 2239.7603,-83.5659"/>
<polygon fill="#191970" stroke="#191970" points="2243.179,-84.3721 2242.9631,-73.7795 2236.5262,-82.1948 2243.179,-84.3721"/>
</g>
</g>
</svg>
