<?xml version="1.0" encoding="UTF-8" standalone="no"?>
<!DOCTYPE svg PUBLIC "-//W3C//DTD SVG 1.1//EN"
 "http://www.w3.org/Graphics/SVG/1.1/DTD/svg11.dtd">
<!-- Generated by graphviz version 2.40.1 (20161225.0304)
 -->
<!-- Title: src/main.cpp Pages: 1 -->
<svg width="1830pt" height="412pt"
 viewBox="0.00 0.00 1830.35 412.00" xmlns="http://www.w3.org/2000/svg" xmlns:xlink="http://www.w3.org/1999/xlink">
<g id="graph0" class="graph" transform="scale(1 1) rotate(0) translate(4 408)">
<title>src/main.cpp</title>
<!-- Node0 -->
<g id="node1" class="node">
<title>Node0</title>
<polygon fill="#bfbfbf" stroke="#000000" points="1686.6577,-385.5 1686.6577,-403.5 1759.3423,-403.5 1759.3423,-385.5 1686.6577,-385.5"/>
<text text-anchor="middle" x="1723" y="-391.5" font-family="Helvetica,sans-Serif" font-size="10.00" fill="#000000">src/main.cpp</text>
</g>
<!-- Node1 -->
<g id="node2" class="node">
<title>Node1</title>
<g id="a_node2"><a xlink:href="mainwindow_8h.html" target="_top" xlink:title="mainwindow.h">
<polygon fill="none" stroke="#000000" points="731.5913,-330.5 731.5913,-348.5 810.4087,-348.5 810.4087,-330.5 731.5913,-330.5"/>
<text text-anchor="middle" x="771" y="-336.5" font-family="Helvetica,sans-Serif" font-size="10.00" fill="#000000">mainwindow.h</text>
</a>
</g>
</g>
<!-- Node0&#45;&gt;Node1 -->
<g id="edge1" class="edge">
<title>Node0&#45;&gt;Node1</title>
<path fill="none" stroke="#191970" d="M1686.5539,-392.3944C1539.4806,-383.8975 989.5031,-352.1236 820.6313,-342.3674"/>
<polygon fill="#191970" stroke="#191970" points="820.7178,-338.8666 810.5326,-341.7839 820.314,-345.855 820.7178,-338.8666"/>
</g>
<!-- Node37 -->
<g id="node38" class="node">
<title>Node37</title>
<polygon fill="none" stroke="#bfbfbf" points="1749.6504,-220.5 1749.6504,-238.5 1822.3496,-238.5 1822.3496,-220.5 1749.6504,-220.5"/>
<text text-anchor="middle" x="1786" y="-226.5" font-family="Helvetica,sans-Serif" font-size="10.00" fill="#000000">QApplication</text>
</g>
<!-- Node0&#45;&gt;Node37 -->
<g id="edge65" class="edge">
<title>Node0&#45;&gt;Node37</title>
<path fill="none" stroke="#191970" d="M1725.3452,-385.1955C1728.6215,-372.5507 1734.9632,-349.303 1742,-330 1752.6658,-300.7419 1767.6554,-267.8623 1777.0952,-247.9216"/>
<polygon fill="#191970" stroke="#191970" points="1780.319,-249.2927 1781.4734,-238.761 1774.0033,-246.2741 1780.319,-249.2927"/>
</g>
<!-- Node44 -->
<g id="node45" class="node">
<title>Node44</title>
<polygon fill="none" stroke="#bfbfbf" points="1750.7866,-330.5 1750.7866,-348.5 1819.2134,-348.5 1819.2134,-330.5 1750.7866,-330.5"/>
<text text-anchor="middle" x="1785" y="-336.5" font-family="Helvetica,sans-Serif" font-size="10.00" fill="#000000">QTranslator</text>
</g>
<!-- Node0&#45;&gt;Node44 -->
<g id="edge66" class="edge">
<title>Node0&#45;&gt;Node44</title>
<path fill="none" stroke="#191970" d="M1733.238,-385.4179C1742.3374,-377.3458 1755.8537,-365.3556 1766.7926,-355.6517"/>
<polygon fill="#191970" stroke="#191970" points="1769.3814,-358.0339 1774.5395,-348.7795 1764.7361,-352.7974 1769.3814,-358.0339"/>
</g>
<!-- Node2 -->
<g id="node3" class="node">
<title>Node2</title>
<g id="a_node3"><a xlink:href="datahelpers_8h.html" target="_top" xlink:title="datahelpers.h">
<polygon fill="none" stroke="#000000" points="813.6997,-55.5 813.6997,-73.5 890.3003,-73.5 890.3003,-55.5 813.6997,-55.5"/>
<text text-anchor="middle" x="852" y="-61.5" font-family="Helvetica,sans-Serif" font-size="10.00" fill="#000000">datahelpers.h</text>
</a>
</g>
</g>
<!-- Node1&#45;&gt;Node2 -->
<g id="edge2" class="edge">
<title>Node1&#45;&gt;Node2</title>
<path fill="none" stroke="#191970" d="M768.9496,-330.3542C764.3898,-307.3134 756.3023,-246.8147 790,-220 892.664,-138.3059 996.0673,-282.2676 1083,-184 1140.0806,-119.4768 983.771,-84.7539 900.4378,-71.2511"/>
<polygon fill="#191970" stroke="#191970" points="900.8351,-67.7706 890.4122,-69.6716 899.7457,-74.6853 900.8351,-67.7706"/>
</g>
<!-- Node5 -->
<g id="node6" class="node">
<title>Node5</title>
<g id="a_node6"><a xlink:href="enums_8h.html" target="_top" xlink:title="enums.h">
<polygon fill="none" stroke="#000000" points="168.8228,-55.5 168.8228,-73.5 223.1772,-73.5 223.1772,-55.5 168.8228,-55.5"/>
<text text-anchor="middle" x="196" y="-61.5" font-family="Helvetica,sans-Serif" font-size="10.00" fill="#000000">enums.h</text>
</a>
</g>
</g>
<!-- Node1&#45;&gt;Node5 -->
<g id="edge5" class="edge">
<title>Node1&#45;&gt;Node5</title>
<path fill="none" stroke="#191970" d="M731.2336,-337.7781C613.8192,-332.4698 274.0381,-315.4144 229,-294 167.6842,-264.8461 148.4,-246.9636 123,-184 119.8408,-176.1688 119.0154,-172.4453 123,-165 136.6105,-139.5686 159.8987,-152.2281 177,-129 186.7328,-115.7803 191.506,-97.6214 193.8316,-83.9387"/>
<polygon fill="#191970" stroke="#191970" points="197.344,-84.0935 195.2645,-73.7048 190.4116,-83.1228 197.344,-84.0935"/>
</g>
<!-- Node6 -->
<g id="node7" class="node">
<title>Node6</title>
<g id="a_node7"><a xlink:href="imitatepass_8h.html" target="_top" xlink:title="imitatepass.h">
<polygon fill="none" stroke="#000000" points="131.542,-165.5 131.542,-183.5 206.458,-183.5 206.458,-165.5 131.542,-165.5"/>
<text text-anchor="middle" x="169" y="-171.5" font-family="Helvetica,sans-Serif" font-size="10.00" fill="#000000">imitatepass.h</text>
</a>
</g>
</g>
<!-- Node1&#45;&gt;Node6 -->
<g id="edge6" class="edge">
<title>Node1&#45;&gt;Node6</title>
<path fill="none" stroke="#191970" d="M731.2311,-337.8386C617.9306,-332.8463 298.978,-316.8975 258,-294 216.9512,-271.0629 189.3238,-220.4481 176.7542,-193.0265"/>
<polygon fill="#191970" stroke="#191970" points="179.9077,-191.5029 172.6775,-183.7586 173.5002,-194.3215 179.9077,-191.5029"/>
</g>
<!-- Node7 -->
<g id="node8" class="node">
<title>Node7</title>
<g id="a_node8"><a xlink:href="pass_8h.html" target="_top" xlink:title="pass.h">
<polygon fill="none" stroke="#000000" points="324.2686,-110.5 324.2686,-128.5 369.7314,-128.5 369.7314,-110.5 324.2686,-110.5"/>
<text text-anchor="middle" x="347" y="-116.5" font-family="Helvetica,sans-Serif" font-size="10.00" fill="#000000">pass.h</text>
</a>
</g>
</g>
<!-- Node1&#45;&gt;Node7 -->
<g id="edge23" class="edge">
<title>Node1&#45;&gt;Node7</title>
<path fill="none" stroke="#191970" d="M731.5002,-332.8558C626.2613,-314.2593 343.5406,-258.1555 291,-184 278.0055,-165.6597 300.0291,-146.4265 320.1595,-133.787"/>
<polygon fill="#191970" stroke="#191970" points="322.0355,-136.7437 328.8524,-128.6331 318.4656,-130.7224 322.0355,-136.7437"/>
</g>
<!-- Node10 -->
<g id="node11" class="node">
<title>Node10</title>
<polygon fill="none" stroke="#bfbfbf" points="221.0493,-.5 221.0493,-18.5 280.9507,-18.5 280.9507,-.5 221.0493,-.5"/>
<text text-anchor="middle" x="251" y="-6.5" font-family="Helvetica,sans-Serif" font-size="10.00" fill="#000000">QProcess</text>
</g>
<!-- Node1&#45;&gt;Node10 -->
<g id="edge61" class="edge">
<title>Node1&#45;&gt;Node10</title>
<path fill="none" stroke="#191970" d="M731.1686,-338.6863C590.1326,-335.5689 119.6676,-323.0712 59,-294 23.9641,-277.2112 0,-268.3508 0,-229.5 0,-229.5 0,-229.5 0,-119.5 0,-81.8263 22.8119,-74.5763 55,-55 80.844,-39.282 161.419,-24.0076 210.8476,-15.7697"/>
<polygon fill="#191970" stroke="#191970" points="211.5906,-19.1947 220.8915,-14.121 210.4566,-12.2872 211.5906,-19.1947"/>
</g>
<!-- Node11 -->
<g id="node12" class="node">
<title>Node11</title>
<polygon fill="none" stroke="#bfbfbf" points="320.0986,-.5 320.0986,-18.5 373.9014,-18.5 373.9014,-.5 320.0986,-.5"/>
<text text-anchor="middle" x="347" y="-6.5" font-family="Helvetica,sans-Serif" font-size="10.00" fill="#000000">QQueue</text>
</g>
<!-- Node1&#45;&gt;Node11 -->
<g id="edge62" class="edge">
<title>Node1&#45;&gt;Node11</title>
<path fill="none" stroke="#191970" d="M731.4603,-338.0641C618.0488,-333.6828 293.1975,-319.225 190,-294 118.7126,-276.5749 38,-302.8862 38,-229.5 38,-229.5 38,-229.5 38,-119.5 38,-83.7664 55.5701,-73.7326 86,-55 88.3858,-53.5313 238.4414,-27.9225 309.9171,-15.7848"/>
<polygon fill="#191970" stroke="#191970" points="310.5924,-19.2203 319.8656,-14.0962 309.4209,-12.319 310.5924,-19.2203"/>
</g>
<!-- Node17 -->
<g id="node18" class="node">
<title>Node17</title>
<g id="a_node18"><a xlink:href="realpass_8h.html" target="_top" xlink:title="realpass.h">
<polygon fill="none" stroke="#000000" points="299.9312,-165.5 299.9312,-183.5 362.0688,-183.5 362.0688,-165.5 299.9312,-165.5"/>
<text text-anchor="middle" x="331" y="-171.5" font-family="Helvetica,sans-Serif" font-size="10.00" fill="#000000">realpass.h</text>
</a>
</g>
</g>
<!-- Node1&#45;&gt;Node17 -->
<g id="edge24" class="edge">
<title>Node1&#45;&gt;Node17</title>
<path fill="none" stroke="#191970" d="M746.7169,-330.3939C672.7191,-302.6447 449.9082,-219.0906 364.6682,-187.1256"/>
<polygon fill="#191970" stroke="#191970" points="365.8003,-183.8121 355.208,-183.578 363.3423,-190.3665 365.8003,-183.8121"/>
</g>
<!-- Node18 -->
<g id="node19" class="node">
<title>Node18</title>
<g id="a_node19"><a xlink:href="storemodel_8h.html" target="_top" xlink:title="storemodel.h">
<polygon fill="none" stroke="#000000" points="968.0962,-275.5 968.0962,-293.5 1041.9038,-293.5 1041.9038,-275.5 968.0962,-275.5"/>
<text text-anchor="middle" x="1005" y="-281.5" font-family="Helvetica,sans-Serif" font-size="10.00" fill="#000000">storemodel.h</text>
</a>
</g>
</g>
<!-- Node1&#45;&gt;Node18 -->
<g id="edge26" class="edge">
<title>Node1&#45;&gt;Node18</title>
<path fill="none" stroke="#191970" d="M809.3783,-330.4795C850.0359,-320.9232 914.2687,-305.8257 957.949,-295.559"/>
<polygon fill="#191970" stroke="#191970" points="958.8275,-298.948 967.7614,-293.2527 957.2258,-292.1337 958.8275,-298.948"/>
</g>
<!-- Node20 -->
<g id="node21" class="node">
<title>Node20</title>
<polygon fill="none" stroke="#bfbfbf" points="1129.7661,-165.5 1129.7661,-183.5 1230.2339,-183.5 1230.2339,-165.5 1129.7661,-165.5"/>
<text text-anchor="middle" x="1180" y="-171.5" font-family="Helvetica,sans-Serif" font-size="10.00" fill="#000000">QFileSystemModel</text>
</g>
<!-- Node1&#45;&gt;Node20 -->
<g id="edge59" class="edge">
<title>Node1&#45;&gt;Node20</title>
<path fill="none" stroke="#191970" d="M770.8264,-330.2098C770.9527,-307.3657 774.743,-248.2633 809,-220 861.9844,-176.2858 1047.9083,-193.0439 1116,-184 1117.2527,-183.8336 1118.5189,-183.6635 1119.795,-183.4903"/>
<polygon fill="#191970" stroke="#191970" points="1120.2884,-186.9555 1129.7119,-182.1132 1119.3255,-180.022 1120.2884,-186.9555"/>
</g>
<!-- Node35 -->
<g id="node36" class="node">
<title>Node35</title>
<g id="a_node36"><a xlink:href="trayicon_8h.html" target="_top" xlink:title="trayicon.h">
<polygon fill="none" stroke="#000000" points="1423.3228,-275.5 1423.3228,-293.5 1482.6772,-293.5 1482.6772,-275.5 1423.3228,-275.5"/>
<text text-anchor="middle" x="1453" y="-281.5" font-family="Helvetica,sans-Serif" font-size="10.00" fill="#000000">trayicon.h</text>
</a>
</g>
</g>
<!-- Node1&#45;&gt;Node35 -->
<g id="edge52" class="edge">
<title>Node1&#45;&gt;Node35</title>
<path fill="none" stroke="#191970" d="M810.6151,-336.3052C931.0713,-326.591 1292.1008,-297.4757 1413.0293,-287.7234"/>
<polygon fill="#191970" stroke="#191970" points="1413.6229,-291.187 1423.3092,-286.8944 1413.0602,-284.2097 1413.6229,-291.187"/>
</g>
<!-- Node38 -->
<g id="node39" class="node">
<title>Node38</title>
<polygon fill="none" stroke="#bfbfbf" points="1328.4902,-220.5 1328.4902,-238.5 1409.5098,-238.5 1409.5098,-220.5 1328.4902,-220.5"/>
<text text-anchor="middle" x="1369" y="-226.5" font-family="Helvetica,sans-Serif" font-size="10.00" fill="#000000">QMainWindow</text>
</g>
<!-- Node1&#45;&gt;Node38 -->
<g id="edge60" class="edge">
<title>Node1&#45;&gt;Node38</title>
<path fill="none" stroke="#191970" d="M810.498,-333.5787C864.7933,-325.3257 965.4897,-309.6136 1051,-294 1145.7516,-276.699 1255.7899,-253.736 1318.4277,-240.392"/>
<polygon fill="#191970" stroke="#191970" points="1319.3883,-243.7659 1328.4373,-238.2555 1317.927,-236.9201 1319.3883,-243.7659"/>
</g>
<!-- Node42 -->
<g id="node43" class="node">
<title>Node42</title>
<polygon fill="none" stroke="#bfbfbf" points="1500.5181,-275.5 1500.5181,-293.5 1549.4819,-293.5 1549.4819,-275.5 1500.5181,-275.5"/>
<text text-anchor="middle" x="1525" y="-281.5" font-family="Helvetica,sans-Serif" font-size="10.00" fill="#000000">QTimer</text>
</g>
<!-- Node1&#45;&gt;Node42 -->
<g id="edge63" class="edge">
<title>Node1&#45;&gt;Node42</title>
<path fill="none" stroke="#191970" d="M810.7912,-338.1285C938.927,-333.5374 1340.6993,-317.7367 1490.358,-293.9001"/>
<polygon fill="#191970" stroke="#191970" points="1490.982,-297.3445 1500.2685,-292.2443 1489.8284,-290.4402 1490.982,-297.3445"/>
</g>
<!-- Node43 -->
<g id="node44" class="node">
<title>Node43</title>
<polygon fill="none" stroke="#bfbfbf" points="1567.2637,-275.5 1567.2637,-293.5 1632.7363,-293.5 1632.7363,-275.5 1567.2637,-275.5"/>
<text text-anchor="middle" x="1600" y="-281.5" font-family="Helvetica,sans-Serif" font-size="10.00" fill="#000000">QTreeView</text>
</g>
<!-- Node1&#45;&gt;Node43 -->
<g id="edge64" class="edge">
<title>Node1&#45;&gt;Node43</title>
<path fill="none" stroke="#191970" d="M810.47,-338.0799C945.9535,-333.0733 1392.3042,-315.4551 1557.1041,-293.8472"/>
<polygon fill="#191970" stroke="#191970" points="1557.6454,-297.3059 1567.0798,-292.4848 1556.6981,-290.3703 1557.6454,-297.3059"/>
</g>
<!-- Node3 -->
<g id="node4" class="node">
<title>Node3</title>
<polygon fill="none" stroke="#bfbfbf" points="780.6216,-.5 780.6216,-18.5 847.3784,-18.5 847.3784,-.5 780.6216,-.5"/>
<text text-anchor="middle" x="814" y="-6.5" font-family="Helvetica,sans-Serif" font-size="10.00" fill="#000000">QDateTime</text>
</g>
<!-- Node2&#45;&gt;Node3 -->
<g id="edge3" class="edge">
<title>Node2&#45;&gt;Node3</title>
<path fill="none" stroke="#191970" d="M845.7251,-55.4179C840.4214,-47.7415 832.6695,-36.5217 826.1562,-27.0945"/>
<polygon fill="#191970" stroke="#191970" points="828.9752,-25.0173 820.4113,-18.7795 823.2161,-28.9963 828.9752,-25.0173"/>
</g>
<!-- Node4 -->
<g id="node5" class="node">
<title>Node4</title>
<polygon fill="none" stroke="#bfbfbf" points="865.0493,-.5 865.0493,-18.5 914.9507,-18.5 914.9507,-.5 865.0493,-.5"/>
<text text-anchor="middle" x="890" y="-6.5" font-family="Helvetica,sans-Serif" font-size="10.00" fill="#000000">QString</text>
</g>
<!-- Node2&#45;&gt;Node4 -->
<g id="edge4" class="edge">
<title>Node2&#45;&gt;Node4</title>
<path fill="none" stroke="#191970" d="M858.2749,-55.4179C863.5786,-47.7415 871.3305,-36.5217 877.8438,-27.0945"/>
<polygon fill="#191970" stroke="#191970" points="880.7839,-28.9963 883.5887,-18.7795 875.0248,-25.0173 880.7839,-28.9963"/>
</g>
<!-- Node6&#45;&gt;Node7 -->
<g id="edge7" class="edge">
<title>Node6&#45;&gt;Node7</title>
<path fill="none" stroke="#191970" d="M198.3931,-165.4179C230.3399,-155.5467 281.2503,-139.8159 314.4021,-129.5724"/>
<polygon fill="#191970" stroke="#191970" points="315.5588,-132.8783 324.0798,-126.5821 313.4922,-126.1903 315.5588,-132.8783"/>
</g>
<!-- Node15 -->
<g id="node16" class="node">
<title>Node15</title>
<g id="a_node16"><a xlink:href="simpletransaction_8h.html" target="_top" xlink:title="simpletransaction.h">
<polygon fill="none" stroke="#000000" points="65.9238,-110.5 65.9238,-128.5 168.0762,-128.5 168.0762,-110.5 65.9238,-110.5"/>
<text text-anchor="middle" x="117" y="-116.5" font-family="Helvetica,sans-Serif" font-size="10.00" fill="#000000">simpletransaction.h</text>
</a>
</g>
</g>
<!-- Node6&#45;&gt;Node15 -->
<g id="edge20" class="edge">
<title>Node6&#45;&gt;Node15</title>
<path fill="none" stroke="#191970" d="M160.4133,-165.4179C152.9312,-157.5041 141.8884,-145.8243 132.8128,-136.2251"/>
<polygon fill="#191970" stroke="#191970" points="135.1867,-133.6414 125.7733,-128.7795 130.1002,-138.4505 135.1867,-133.6414"/>
</g>
<!-- Node7&#45;&gt;Node2 -->
<g id="edge8" class="edge">
<title>Node7&#45;&gt;Node2</title>
<path fill="none" stroke="#191970" d="M370.0111,-116.9938C447.0398,-108.6046 696.9666,-81.3848 803.3459,-69.799"/>
<polygon fill="#191970" stroke="#191970" points="803.9216,-73.257 813.4839,-68.6948 803.1637,-66.2982 803.9216,-73.257"/>
</g>
<!-- Node7&#45;&gt;Node4 -->
<g id="edge19" class="edge">
<title>Node7&#45;&gt;Node4</title>
<path fill="none" stroke="#191970" d="M369.792,-114.0914C419.0965,-102.4816 539.4142,-74.6354 641,-55 732.9667,-37.2238 759.6746,-39.8609 854.7785,-19.082"/>
<polygon fill="#191970" stroke="#191970" points="855.8183,-22.4366 864.8246,-16.8565 854.3042,-15.6023 855.8183,-22.4366"/>
</g>
<!-- Node7&#45;&gt;Node5 -->
<g id="edge9" class="edge">
<title>Node7&#45;&gt;Node5</title>
<path fill="none" stroke="#191970" d="M324.0664,-111.1467C299.1951,-102.0876 259.2152,-87.5254 230.5401,-77.0808"/>
<polygon fill="#191970" stroke="#191970" points="231.5061,-73.7078 220.9121,-73.5739 229.1103,-80.2851 231.5061,-73.7078"/>
</g>
<!-- Node8 -->
<g id="node9" class="node">
<title>Node8</title>
<g id="a_node9"><a xlink:href="executor_8h.html" target="_top" xlink:title="executor.h">
<polygon fill="none" stroke="#000000" points="374.9263,-55.5 374.9263,-73.5 437.0737,-73.5 437.0737,-55.5 374.9263,-55.5"/>
<text text-anchor="middle" x="406" y="-61.5" font-family="Helvetica,sans-Serif" font-size="10.00" fill="#000000">executor.h</text>
</a>
</g>
</g>
<!-- Node7&#45;&gt;Node8 -->
<g id="edge10" class="edge">
<title>Node7&#45;&gt;Node8</title>
<path fill="none" stroke="#191970" d="M356.7427,-110.4179C365.4017,-102.3458 378.264,-90.3556 388.6736,-80.6517"/>
<polygon fill="#191970" stroke="#191970" points="391.1176,-83.1584 396.0457,-73.7795 386.3444,-78.0381 391.1176,-83.1584"/>
</g>
<!-- Node7&#45;&gt;Node10 -->
<g id="edge17" class="edge">
<title>Node7&#45;&gt;Node10</title>
<path fill="none" stroke="#191970" d="M323.9284,-111.2735C306.7012,-104.0001 283.8359,-91.762 270,-74 259.912,-61.0494 255.1738,-42.8639 252.9519,-29.1027"/>
<polygon fill="#191970" stroke="#191970" points="256.3724,-28.2626 251.6152,-18.7958 249.4305,-29.1629 256.3724,-28.2626"/>
</g>
<!-- Node7&#45;&gt;Node11 -->
<g id="edge18" class="edge">
<title>Node7&#45;&gt;Node11</title>
<path fill="none" stroke="#191970" d="M347,-110.4982C347,-92.6913 347,-52.6225 347,-28.6515"/>
<polygon fill="#191970" stroke="#191970" points="350.5001,-28.6261 347,-18.6261 343.5001,-28.6262 350.5001,-28.6261"/>
</g>
<!-- Node12 -->
<g id="node13" class="node">
<title>Node12</title>
<polygon fill="none" stroke="#bfbfbf" points="455.377,-55.5 455.377,-73.5 508.623,-73.5 508.623,-55.5 455.377,-55.5"/>
<text text-anchor="middle" x="482" y="-61.5" font-family="Helvetica,sans-Serif" font-size="10.00" fill="#000000">QDebug</text>
</g>
<!-- Node7&#45;&gt;Node12 -->
<g id="edge14" class="edge">
<title>Node7&#45;&gt;Node12</title>
<path fill="none" stroke="#191970" d="M369.2925,-110.4179C391.3746,-101.4215 425.4029,-87.5581 450.2942,-77.4172"/>
<polygon fill="#191970" stroke="#191970" points="451.734,-80.61 459.6744,-73.5956 449.0929,-74.1273 451.734,-80.61"/>
</g>
<!-- Node13 -->
<g id="node14" class="node">
<title>Node13</title>
<polygon fill="none" stroke="#bfbfbf" points="649.7241,-55.5 649.7241,-73.5 686.2759,-73.5 686.2759,-55.5 649.7241,-55.5"/>
<text text-anchor="middle" x="668" y="-61.5" font-family="Helvetica,sans-Serif" font-size="10.00" fill="#000000">QDir</text>
</g>
<!-- Node7&#45;&gt;Node13 -->
<g id="edge15" class="edge">
<title>Node7&#45;&gt;Node13</title>
<path fill="none" stroke="#191970" d="M369.8282,-115.5886C427.1024,-105.7753 576.7842,-80.1289 639.6004,-69.366"/>
<polygon fill="#191970" stroke="#191970" points="640.3303,-72.792 649.5956,-67.6534 639.1481,-65.8925 640.3303,-72.792"/>
</g>
<!-- Node14 -->
<g id="node15" class="node">
<title>Node14</title>
<polygon fill="none" stroke="#bfbfbf" points="279.3301,-55.5 279.3301,-73.5 318.6699,-73.5 318.6699,-55.5 279.3301,-55.5"/>
<text text-anchor="middle" x="299" y="-61.5" font-family="Helvetica,sans-Serif" font-size="10.00" fill="#000000">QList</text>
</g>
<!-- Node7&#45;&gt;Node14 -->
<g id="edge16" class="edge">
<title>Node7&#45;&gt;Node14</title>
<path fill="none" stroke="#191970" d="M339.0738,-110.4179C332.2363,-102.5833 322.1775,-91.0575 313.8483,-81.5137"/>
<polygon fill="#191970" stroke="#191970" points="316.3108,-79.0123 307.0984,-73.7795 311.0368,-83.6151 316.3108,-79.0123"/>
</g>
<!-- Node9 -->
<g id="node10" class="node">
<title>Node9</title>
<polygon fill="none" stroke="#bfbfbf" points="569.6602,-.5 569.6602,-18.5 622.3398,-18.5 622.3398,-.5 569.6602,-.5"/>
<text text-anchor="middle" x="596" y="-6.5" font-family="Helvetica,sans-Serif" font-size="10.00" fill="#000000">QObject</text>
</g>
<!-- Node8&#45;&gt;Node9 -->
<g id="edge11" class="edge">
<title>Node8&#45;&gt;Node9</title>
<path fill="none" stroke="#191970" d="M437.3746,-55.4179C470.9506,-45.6985 524.1508,-30.2985 559.5582,-20.0489"/>
<polygon fill="#191970" stroke="#191970" points="560.8552,-23.3173 569.4876,-17.1746 558.9087,-16.5933 560.8552,-23.3173"/>
</g>
<!-- Node8&#45;&gt;Node10 -->
<g id="edge12" class="edge">
<title>Node8&#45;&gt;Node10</title>
<path fill="none" stroke="#191970" d="M380.4049,-55.4179C354.6379,-46.2748 314.7039,-32.1046 286.0132,-21.924"/>
<polygon fill="#191970" stroke="#191970" points="286.9702,-18.5499 276.3755,-18.5042 284.6293,-25.1469 286.9702,-18.5499"/>
</g>
<!-- Node8&#45;&gt;Node11 -->
<g id="edge13" class="edge">
<title>Node8&#45;&gt;Node11</title>
<path fill="none" stroke="#191970" d="M396.2573,-55.4179C387.5983,-47.3458 374.736,-35.3556 364.3264,-25.6517"/>
<polygon fill="#191970" stroke="#191970" points="366.6556,-23.0381 356.9543,-18.7795 361.8824,-28.1584 366.6556,-23.0381"/>
</g>
<!-- Node15&#45;&gt;Node5 -->
<g id="edge21" class="edge">
<title>Node15&#45;&gt;Node5</title>
<path fill="none" stroke="#191970" d="M130.0452,-110.4179C142.1669,-101.9788 160.44,-89.257 174.6807,-79.3426"/>
<polygon fill="#191970" stroke="#191970" points="176.7282,-82.1818 182.9354,-73.5956 172.7286,-76.4369 176.7282,-82.1818"/>
</g>
<!-- Node16 -->
<g id="node17" class="node">
<title>Node16</title>
<polygon fill="none" stroke="#bfbfbf" points="95.0962,-55.5 95.0962,-73.5 138.9038,-73.5 138.9038,-55.5 95.0962,-55.5"/>
<text text-anchor="middle" x="117" y="-61.5" font-family="Helvetica,sans-Serif" font-size="10.00" fill="#000000">queue</text>
</g>
<!-- Node15&#45;&gt;Node16 -->
<g id="edge22" class="edge">
<title>Node15&#45;&gt;Node16</title>
<path fill="none" stroke="#191970" d="M117,-110.4179C117,-103.2164 117,-92.8962 117,-83.8632"/>
<polygon fill="#191970" stroke="#191970" points="120.5001,-83.7794 117,-73.7795 113.5001,-83.7795 120.5001,-83.7794"/>
</g>
<!-- Node17&#45;&gt;Node7 -->
<g id="edge25" class="edge">
<title>Node17&#45;&gt;Node7</title>
<path fill="none" stroke="#191970" d="M333.6421,-165.4179C335.7601,-158.1372 338.8054,-147.669 341.4536,-138.5659"/>
<polygon fill="#191970" stroke="#191970" points="344.8678,-139.3591 344.3005,-128.7795 338.1465,-137.4037 344.8678,-139.3591"/>
</g>
<!-- Node19 -->
<g id="node20" class="node">
<title>Node19</title>
<g id="a_node20"><a xlink:href="util_8h.html" target="_top" xlink:title="util.h">
<polygon fill="none" stroke="#000000" points="1273.4385,-220.5 1273.4385,-238.5 1310.5615,-238.5 1310.5615,-220.5 1273.4385,-220.5"/>
<text text-anchor="middle" x="1292" y="-226.5" font-family="Helvetica,sans-Serif" font-size="10.00" fill="#000000">util.h</text>
</a>
</g>
</g>
<!-- Node18&#45;&gt;Node19 -->
<g id="edge27" class="edge">
<title>Node18&#45;&gt;Node19</title>
<path fill="none" stroke="#191970" d="M1042.3046,-279.0957C1091.7652,-272.1468 1181.0756,-258.5937 1256,-239 1258.3978,-238.373 1260.886,-237.6297 1263.4051,-236.8392"/>
<polygon fill="#191970" stroke="#191970" points="1264.7009,-240.099 1273.1475,-233.7033 1262.5561,-233.4357 1264.7009,-240.099"/>
</g>
<!-- Node18&#45;&gt;Node20 -->
<g id="edge33" class="edge">
<title>Node18&#45;&gt;Node20</title>
<path fill="none" stroke="#191970" d="M989.6437,-275.3312C970.3015,-262.6448 941.3735,-239.1369 957,-220 962.2115,-213.6178 1055.3304,-196.2315 1119.5719,-184.8933"/>
<polygon fill="#191970" stroke="#191970" points="1120.3731,-188.3062 1129.6164,-183.1282 1119.1615,-181.4119 1120.3731,-188.3062"/>
</g>
<!-- Node22 -->
<g id="node23" class="node">
<title>Node22</title>
<polygon fill="none" stroke="#bfbfbf" points="966.4336,-220.5 966.4336,-238.5 1043.5664,-238.5 1043.5664,-220.5 966.4336,-220.5"/>
<text text-anchor="middle" x="1005" y="-226.5" font-family="Helvetica,sans-Serif" font-size="10.00" fill="#000000">QDataStream</text>
</g>
<!-- Node18&#45;&gt;Node22 -->
<g id="edge32" class="edge">
<title>Node18&#45;&gt;Node22</title>
<path fill="none" stroke="#191970" d="M1005,-275.4179C1005,-268.2164 1005,-257.8962 1005,-248.8632"/>
<polygon fill="#191970" stroke="#191970" points="1008.5001,-248.7794 1005,-238.7795 1001.5001,-248.7795 1008.5001,-248.7794"/>
</g>
<!-- Node23 -->
<g id="node24" class="node">
<title>Node23</title>
<polygon fill="none" stroke="#bfbfbf" points="1061.3228,-220.5 1061.3228,-238.5 1120.6772,-238.5 1120.6772,-220.5 1061.3228,-220.5"/>
<text text-anchor="middle" x="1091" y="-226.5" font-family="Helvetica,sans-Serif" font-size="10.00" fill="#000000">QRegExp</text>
</g>
<!-- Node18&#45;&gt;Node23 -->
<g id="edge34" class="edge">
<title>Node18&#45;&gt;Node23</title>
<path fill="none" stroke="#191970" d="M1019.2012,-275.4179C1032.5213,-266.8992 1052.665,-254.0166 1068.2292,-244.0627"/>
<polygon fill="#191970" stroke="#191970" points="1070.239,-246.932 1076.7778,-238.5956 1066.4675,-241.0348 1070.239,-246.932"/>
</g>
<!-- Node24 -->
<g id="node25" class="node">
<title>Node24</title>
<polygon fill="none" stroke="#bfbfbf" points="1138.4312,-220.5 1138.4312,-238.5 1255.5688,-238.5 1255.5688,-220.5 1138.4312,-220.5"/>
<text text-anchor="middle" x="1197" y="-226.5" font-family="Helvetica,sans-Serif" font-size="10.00" fill="#000000">QSortFilterProxyModel</text>
</g>
<!-- Node18&#45;&gt;Node24 -->
<g id="edge35" class="edge">
<title>Node18&#45;&gt;Node24</title>
<path fill="none" stroke="#191970" d="M1036.7049,-275.4179C1069.3196,-266.0751 1120.2579,-251.4834 1155.9365,-241.263"/>
<polygon fill="#191970" stroke="#191970" points="1156.9176,-244.6228 1165.5671,-238.5042 1154.9899,-237.8934 1156.9176,-244.6228"/>
</g>
<!-- Node25 -->
<g id="node26" class="node">
<title>Node25</title>
<polygon fill="none" stroke="#bfbfbf" points="817.6504,-220.5 817.6504,-238.5 910.3496,-238.5 910.3496,-220.5 817.6504,-220.5"/>
<text text-anchor="middle" x="864" y="-226.5" font-family="Helvetica,sans-Serif" font-size="10.00" fill="#000000">QStringListModel</text>
</g>
<!-- Node18&#45;&gt;Node25 -->
<g id="edge36" class="edge">
<title>Node18&#45;&gt;Node25</title>
<path fill="none" stroke="#191970" d="M981.7167,-275.4179C958.5512,-266.3817 922.7977,-252.4353 896.7704,-242.2828"/>
<polygon fill="#191970" stroke="#191970" points="897.9061,-238.969 887.3179,-238.5956 895.3623,-245.4904 897.9061,-238.969"/>
</g>
<!-- Node26 -->
<g id="node27" class="node">
<title>Node26</title>
<g id="a_node27"><a xlink:href="qtpasssettings_8h.html" target="_top" xlink:title="qtpasssettings.h">
<polygon fill="none" stroke="#000000" points="621.8672,-220.5 621.8672,-238.5 710.1328,-238.5 710.1328,-220.5 621.8672,-220.5"/>
<text text-anchor="middle" x="666" y="-226.5" font-family="Helvetica,sans-Serif" font-size="10.00" fill="#000000">qtpasssettings.h</text>
</a>
</g>
</g>
<!-- Node18&#45;&gt;Node26 -->
<g id="edge37" class="edge">
<title>Node18&#45;&gt;Node26</title>
<path fill="none" stroke="#191970" d="M968.0757,-278.5093C908.2127,-268.797 789.6943,-249.5684 720.238,-238.2997"/>
<polygon fill="#191970" stroke="#191970" points="720.7906,-234.8436 710.3591,-236.6969 719.6695,-241.7533 720.7906,-234.8436"/>
</g>
<!-- Node19&#45;&gt;Node4 -->
<g id="edge31" class="edge">
<title>Node19&#45;&gt;Node4</title>
<path fill="none" stroke="#191970" d="M1310.9373,-221.5514C1332.6281,-212.0145 1366.0752,-195.8325 1373,-184 1377.2653,-176.7119 1377.9727,-171.825 1373,-165 1318.3884,-90.0459 1026.8903,-33.1992 925.1044,-15.3763"/>
<polygon fill="#191970" stroke="#191970" points="925.4803,-11.8894 915.0298,-13.6317 924.2859,-18.7868 925.4803,-11.8894"/>
</g>
<!-- Node19&#45;&gt;Node18 -->
<g id="edge28" class="edge">
<title>Node19&#45;&gt;Node18</title>
<path fill="none" stroke="#191970" d="M1275.7437,-238.5282C1275.159,-238.6915 1274.5769,-238.8491 1274,-239 1197.7811,-258.9322 1106.6748,-272.6133 1052.3252,-279.4499"/>
<polygon fill="#191970" stroke="#191970" points="1051.7858,-275.9899 1042.2887,-280.6863 1052.6417,-282.9373 1051.7858,-275.9899"/>
</g>
<!-- Node19&#45;&gt;Node20 -->
<g id="edge29" class="edge">
<title>Node19&#45;&gt;Node20</title>
<path fill="none" stroke="#191970" d="M1273.5055,-220.4179C1255.5908,-211.6205 1228.1989,-198.1691 1207.6856,-188.0956"/>
<polygon fill="#191970" stroke="#191970" points="1209.0409,-184.8619 1198.522,-183.5956 1205.9553,-191.1452 1209.0409,-184.8619"/>
</g>
<!-- Node21 -->
<g id="node22" class="node">
<title>Node21</title>
<polygon fill="none" stroke="#bfbfbf" points="1247.9805,-165.5 1247.9805,-183.5 1364.0195,-183.5 1364.0195,-165.5 1247.9805,-165.5"/>
<text text-anchor="middle" x="1306" y="-171.5" font-family="Helvetica,sans-Serif" font-size="10.00" fill="#000000">QProcessEnvironment</text>
</g>
<!-- Node19&#45;&gt;Node21 -->
<g id="edge30" class="edge">
<title>Node19&#45;&gt;Node21</title>
<path fill="none" stroke="#191970" d="M1294.3118,-220.4179C1296.1651,-213.1372 1298.8297,-202.669 1301.1469,-193.5659"/>
<polygon fill="#191970" stroke="#191970" points="1304.5629,-194.3338 1303.638,-183.7795 1297.7792,-192.607 1304.5629,-194.3338"/>
</g>
<!-- Node26&#45;&gt;Node5 -->
<g id="edge38" class="edge">
<title>Node26&#45;&gt;Node5</title>
<path fill="none" stroke="#191970" d="M621.7775,-228.2973C535.1764,-225.274 346.8072,-215.2114 291,-184 248.9518,-160.4836 218.7191,-110.1122 204.7228,-82.8805"/>
<polygon fill="#191970" stroke="#191970" points="207.7399,-81.0862 200.1628,-73.6808 201.4681,-84.195 207.7399,-81.0862"/>
</g>
<!-- Node26&#45;&gt;Node6 -->
<g id="edge39" class="edge">
<title>Node26&#45;&gt;Node6</title>
<path fill="none" stroke="#191970" d="M621.8563,-226.2112C541.6097,-219.9628 366.5666,-205.0904 220,-184 218.908,-183.8429 217.8036,-183.679 216.6907,-183.5094"/>
<polygon fill="#191970" stroke="#191970" points="216.9745,-180.0096 206.5418,-181.8562 215.849,-186.9185 216.9745,-180.0096"/>
</g>
<!-- Node26&#45;&gt;Node7 -->
<g id="edge40" class="edge">
<title>Node26&#45;&gt;Node7</title>
<path fill="none" stroke="#191970" d="M666.1774,-220.4149C665.9194,-206.2642 663.1849,-179.1216 647,-165 607.7206,-130.7281 449.8722,-122.2528 380.2611,-120.1712"/>
<polygon fill="#191970" stroke="#191970" points="379.9696,-116.662 369.8782,-119.889 379.7794,-123.6595 379.9696,-116.662"/>
</g>
<!-- Node26&#45;&gt;Node9 -->
<g id="edge47" class="edge">
<title>Node26&#45;&gt;Node9</title>
<path fill="none" stroke="#191970" d="M671.6146,-220.277C687.5925,-192.7237 729.9676,-109.5549 695,-55 681.2797,-33.5941 654.6746,-22.1232 632.4976,-16.0557"/>
<polygon fill="#191970" stroke="#191970" points="633.2295,-12.6314 622.682,-13.6319 631.5513,-19.4272 633.2295,-12.6314"/>
</g>
<!-- Node26&#45;&gt;Node13 -->
<g id="edge44" class="edge">
<title>Node26&#45;&gt;Node13</title>
<path fill="none" stroke="#191970" d="M666.5156,-220.4394C667.0104,-211.2595 667.7222,-196.648 668,-184 668.7753,-148.707 668.52,-107.5367 668.2615,-83.8941"/>
<polygon fill="#191970" stroke="#191970" points="671.7602,-83.7551 668.1389,-73.7984 664.7607,-83.8402 671.7602,-83.7551"/>
</g>
<!-- Node26&#45;&gt;Node17 -->
<g id="edge41" class="edge">
<title>Node26&#45;&gt;Node17</title>
<path fill="none" stroke="#191970" d="M621.8267,-223.8119C565.9505,-216.3687 466.5801,-202.3075 372.3716,-184.1496"/>
<polygon fill="#191970" stroke="#191970" points="372.8758,-180.6821 362.3912,-182.2065 371.538,-187.5531 372.8758,-180.6821"/>
</g>
<!-- Node27 -->
<g id="node28" class="node">
<title>Node27</title>
<polygon fill="none" stroke="#bfbfbf" points="770.1602,-165.5 770.1602,-183.5 837.8398,-183.5 837.8398,-165.5 770.1602,-165.5"/>
<text text-anchor="middle" x="804" y="-171.5" font-family="Helvetica,sans-Serif" font-size="10.00" fill="#000000">QByteArray</text>
</g>
<!-- Node26&#45;&gt;Node27 -->
<g id="edge42" class="edge">
<title>Node26&#45;&gt;Node27</title>
<path fill="none" stroke="#191970" d="M688.7879,-220.4179C711.3607,-211.4215 746.1452,-197.5581 771.5897,-187.4172"/>
<polygon fill="#191970" stroke="#191970" points="773.1847,-190.5493 781.1783,-183.5956 770.593,-184.0467 773.1847,-190.5493"/>
</g>
<!-- Node28 -->
<g id="node29" class="node">
<title>Node28</title>
<polygon fill="none" stroke="#bfbfbf" points="855.813,-165.5 855.813,-183.5 950.187,-183.5 950.187,-165.5 855.813,-165.5"/>
<text text-anchor="middle" x="903" y="-171.5" font-family="Helvetica,sans-Serif" font-size="10.00" fill="#000000">QCoreApplication</text>
</g>
<!-- Node26&#45;&gt;Node28 -->
<g id="edge43" class="edge">
<title>Node26&#45;&gt;Node28</title>
<path fill="none" stroke="#191970" d="M704.8703,-220.4795C745.6837,-211.008 809.9525,-196.0933 854.1628,-185.8335"/>
<polygon fill="#191970" stroke="#191970" points="855.1585,-189.1955 864.1084,-183.5255 853.5761,-182.3767 855.1585,-189.1955"/>
</g>
<!-- Node29 -->
<g id="node30" class="node">
<title>Node29</title>
<polygon fill="none" stroke="#bfbfbf" points="968.0542,-165.5 968.0542,-183.5 1007.9458,-183.5 1007.9458,-165.5 968.0542,-165.5"/>
<text text-anchor="middle" x="988" y="-171.5" font-family="Helvetica,sans-Serif" font-size="10.00" fill="#000000">QFile</text>
</g>
<!-- Node26&#45;&gt;Node29 -->
<g id="edge45" class="edge">
<title>Node26&#45;&gt;Node29</title>
<path fill="none" stroke="#191970" d="M710.1429,-223.5424C775.9899,-214.5126 897.8033,-197.2228 957.7378,-183.9191"/>
<polygon fill="#191970" stroke="#191970" points="958.8923,-187.244 967.8388,-181.5685 957.3057,-180.4262 958.8923,-187.244"/>
</g>
<!-- Node30 -->
<g id="node31" class="node">
<title>Node30</title>
<polygon fill="none" stroke="#bfbfbf" points="1026.4385,-165.5 1026.4385,-183.5 1073.5615,-183.5 1073.5615,-165.5 1026.4385,-165.5"/>
<text text-anchor="middle" x="1050" y="-171.5" font-family="Helvetica,sans-Serif" font-size="10.00" fill="#000000">QHash</text>
</g>
<!-- Node26&#45;&gt;Node30 -->
<g id="edge46" class="edge">
<title>Node26&#45;&gt;Node30</title>
<path fill="none" stroke="#191970" d="M710.1668,-223.6521C719.3648,-222.44 728.9983,-221.1746 738,-220 858.8291,-204.2332 892.8583,-209.0997 1016.4682,-183.8229"/>
<polygon fill="#191970" stroke="#191970" points="1017.2315,-187.2392 1026.3146,-181.7851 1015.8128,-180.3844 1017.2315,-187.2392"/>
</g>
<!-- Node31 -->
<g id="node32" class="node">
<title>Node31</title>
<polygon fill="none" stroke="#bfbfbf" points="379.7144,-165.5 379.7144,-183.5 426.2856,-183.5 426.2856,-165.5 379.7144,-165.5"/>
<text text-anchor="middle" x="403" y="-171.5" font-family="Helvetica,sans-Serif" font-size="10.00" fill="#000000">QPoint</text>
</g>
<!-- Node26&#45;&gt;Node31 -->
<g id="edge48" class="edge">
<title>Node26&#45;&gt;Node31</title>
<path fill="none" stroke="#191970" d="M621.4432,-222.0077C576.8198,-214.2184 506.0136,-201.0858 436.1921,-184.1263"/>
<polygon fill="#191970" stroke="#191970" points="436.8956,-180.6951 426.3493,-181.708 435.2254,-187.493 436.8956,-180.6951"/>
</g>
<!-- Node32 -->
<g id="node33" class="node">
<title>Node32</title>
<polygon fill="none" stroke="#bfbfbf" points="444.0444,-165.5 444.0444,-183.5 503.9556,-183.5 503.9556,-165.5 444.0444,-165.5"/>
<text text-anchor="middle" x="474" y="-171.5" font-family="Helvetica,sans-Serif" font-size="10.00" fill="#000000">QSettings</text>
</g>
<!-- Node26&#45;&gt;Node32 -->
<g id="edge49" class="edge">
<title>Node26&#45;&gt;Node32</title>
<path fill="none" stroke="#191970" d="M634.2951,-220.4179C601.291,-210.9636 549.523,-196.1342 513.7921,-185.8988"/>
<polygon fill="#191970" stroke="#191970" points="514.7455,-182.5312 504.1683,-183.142 512.8178,-189.2605 514.7455,-182.5312"/>
</g>
<!-- Node33 -->
<g id="node34" class="node">
<title>Node33</title>
<polygon fill="none" stroke="#bfbfbf" points="522.3843,-165.5 522.3843,-183.5 565.6157,-183.5 565.6157,-165.5 522.3843,-165.5"/>
<text text-anchor="middle" x="544" y="-171.5" font-family="Helvetica,sans-Serif" font-size="10.00" fill="#000000">QSize</text>
</g>
<!-- Node26&#45;&gt;Node33 -->
<g id="edge50" class="edge">
<title>Node26&#45;&gt;Node33</title>
<path fill="none" stroke="#191970" d="M645.8542,-220.4179C626.1634,-211.5409 595.9615,-197.9253 573.5527,-187.823"/>
<polygon fill="#191970" stroke="#191970" points="574.7306,-184.5148 564.1757,-183.5956 571.8537,-190.8963 574.7306,-184.5148"/>
</g>
<!-- Node34 -->
<g id="node35" class="node">
<title>Node34</title>
<polygon fill="none" stroke="#bfbfbf" points="583.6372,-165.5 583.6372,-183.5 638.3628,-183.5 638.3628,-165.5 583.6372,-165.5"/>
<text text-anchor="middle" x="611" y="-171.5" font-family="Helvetica,sans-Serif" font-size="10.00" fill="#000000">QVariant</text>
</g>
<!-- Node26&#45;&gt;Node34 -->
<g id="edge51" class="edge">
<title>Node26&#45;&gt;Node34</title>
<path fill="none" stroke="#191970" d="M656.9179,-220.4179C648.925,-212.425 637.0903,-200.5903 627.4377,-190.9377"/>
<polygon fill="#191970" stroke="#191970" points="629.8254,-188.3757 620.2795,-183.7795 624.8757,-193.3254 629.8254,-188.3757"/>
</g>
<!-- Node36 -->
<g id="node37" class="node">
<title>Node36</title>
<polygon fill="none" stroke="#bfbfbf" points="1427.2144,-220.5 1427.2144,-238.5 1478.7856,-238.5 1478.7856,-220.5 1427.2144,-220.5"/>
<text text-anchor="middle" x="1453" y="-226.5" font-family="Helvetica,sans-Serif" font-size="10.00" fill="#000000">QAction</text>
</g>
<!-- Node35&#45;&gt;Node36 -->
<g id="edge53" class="edge">
<title>Node35&#45;&gt;Node36</title>
<path fill="none" stroke="#191970" d="M1453,-275.4179C1453,-268.2164 1453,-257.8962 1453,-248.8632"/>
<polygon fill="#191970" stroke="#191970" points="1456.5001,-248.7794 1453,-238.7795 1449.5001,-248.7795 1456.5001,-248.7794"/>
</g>
<!-- Node35&#45;&gt;Node37 -->
<g id="edge54" class="edge">
<title>Node35&#45;&gt;Node37</title>
<path fill="none" stroke="#191970" d="M1482.7466,-276.9464C1485.8623,-276.2475 1488.9898,-275.5837 1492,-275 1598.2439,-254.3969 1628.5976,-258.0389 1739.7049,-238.9479"/>
<polygon fill="#191970" stroke="#191970" points="1740.3782,-242.3834 1749.6295,-237.2195 1739.1772,-235.4872 1740.3782,-242.3834"/>
</g>
<!-- Node35&#45;&gt;Node38 -->
<g id="edge55" class="edge">
<title>Node35&#45;&gt;Node38</title>
<path fill="none" stroke="#191970" d="M1439.1291,-275.4179C1426.2403,-266.9788 1406.8106,-254.257 1391.6686,-244.3426"/>
<polygon fill="#191970" stroke="#191970" points="1393.175,-241.1454 1382.8915,-238.5956 1389.3404,-247.0017 1393.175,-241.1454"/>
</g>
<!-- Node39 -->
<g id="node40" class="node">
<title>Node39</title>
<polygon fill="none" stroke="#bfbfbf" points="1496.6035,-220.5 1496.6035,-238.5 1545.3965,-238.5 1545.3965,-220.5 1496.6035,-220.5"/>
<text text-anchor="middle" x="1521" y="-226.5" font-family="Helvetica,sans-Serif" font-size="10.00" fill="#000000">QMenu</text>
</g>
<!-- Node35&#45;&gt;Node39 -->
<g id="edge56" class="edge">
<title>Node35&#45;&gt;Node39</title>
<path fill="none" stroke="#191970" d="M1464.2288,-275.4179C1474.4045,-267.1876 1489.6163,-254.8839 1501.7331,-245.0836"/>
<polygon fill="#191970" stroke="#191970" points="1503.9531,-247.7895 1509.5272,-238.7795 1499.551,-242.3469 1503.9531,-247.7895"/>
</g>
<!-- Node40 -->
<g id="node41" class="node">
<title>Node40</title>
<polygon fill="none" stroke="#bfbfbf" points="1563.1733,-220.5 1563.1733,-238.5 1658.8267,-238.5 1658.8267,-220.5 1563.1733,-220.5"/>
<text text-anchor="middle" x="1611" y="-226.5" font-family="Helvetica,sans-Serif" font-size="10.00" fill="#000000">QSystemTrayIcon</text>
</g>
<!-- Node35&#45;&gt;Node40 -->
<g id="edge57" class="edge">
<title>Node35&#45;&gt;Node40</title>
<path fill="none" stroke="#191970" d="M1479.0905,-275.4179C1505.3562,-266.2748 1546.0632,-252.1046 1575.3091,-241.924"/>
<polygon fill="#191970" stroke="#191970" points="1576.8398,-245.0973 1585.1334,-238.5042 1574.5385,-238.4863 1576.8398,-245.0973"/>
</g>
<!-- Node41 -->
<g id="node42" class="node">
<title>Node41</title>
<polygon fill="none" stroke="#bfbfbf" points="1676.5493,-220.5 1676.5493,-238.5 1731.4507,-238.5 1731.4507,-220.5 1676.5493,-220.5"/>
<text text-anchor="middle" x="1704" y="-226.5" font-family="Helvetica,sans-Serif" font-size="10.00" fill="#000000">QWidget</text>
</g>
<!-- Node35&#45;&gt;Node41 -->
<g id="edge58" class="edge">
<title>Node35&#45;&gt;Node41</title>
<path fill="none" stroke="#191970" d="M1482.7838,-277.1243C1485.8922,-276.3907 1489.0079,-275.6702 1492,-275 1566.8679,-258.2306 1588.5811,-257.2471 1666.7077,-239.2079"/>
<polygon fill="#191970" stroke="#191970" points="1667.5774,-242.5991 1676.5224,-236.9212 1665.989,-235.7816 1667.5774,-242.5991"/>
</g>
</g>
</svg>
