<?xml version="1.0" encoding="UTF-8" standalone="no"?>
<!DOCTYPE svg PUBLIC "-//W3C//DTD SVG 1.1//EN"
 "http://www.w3.org/Graphics/SVG/1.1/DTD/svg11.dtd">
<!-- Generated by graphviz version 2.40.1 (20161225.0304)
 -->
<!-- Title: tests/auto/util/moc_executor.cpp Pages: 1 -->
<svg width="408pt" height="147pt"
 viewBox="0.00 0.00 408.36 147.00" xmlns="http://www.w3.org/2000/svg" xmlns:xlink="http://www.w3.org/1999/xlink">
<g id="graph0" class="graph" transform="scale(1 1) rotate(0) translate(4 143)">
<title>tests/auto/util/moc_executor.cpp</title>
<!-- Node0 -->
<g id="node1" class="node">
<title>Node0</title>
<polygon fill="#bfbfbf" stroke="#000000" points="175.0444,-110.5 175.0444,-138.5 271.6353,-138.5 271.6353,-110.5 175.0444,-110.5"/>
<text text-anchor="start" x="183.0444" y="-126.5" font-family="Helvetica,sans-Serif" font-size="10.00" fill="#000000">tests/auto/util/moc</text>
<text text-anchor="middle" x="223.3398" y="-116.5" font-family="Helvetica,sans-Serif" font-size="10.00" fill="#000000">_executor.cpp</text>
</g>
<!-- Node1 -->
<g id="node2" class="node">
<title>Node1</title>
<g id="a_node2"><a xlink:href="executor_8h.html" target="_top" xlink:title="../../../src/executor.h">
<polygon fill="none" stroke="#000000" points="48.7095,-55.5 48.7095,-73.5 151.9702,-73.5 151.9702,-55.5 48.7095,-55.5"/>
<text text-anchor="middle" x="100.3398" y="-61.5" font-family="Helvetica,sans-Serif" font-size="10.00" fill="#000000">../../../src/executor.h</text>
</a>
</g>
</g>
<!-- Node0&#45;&gt;Node1 -->
<g id="edge1" class="edge">
<title>Node0&#45;&gt;Node1</title>
<path fill="none" stroke="#191970" d="M194.5018,-110.4327C174.487,-100.6693 147.9703,-87.7344 128.1771,-78.0792"/>
<polygon fill="#191970" stroke="#191970" points="129.5807,-74.8697 119.0585,-73.6311 126.5117,-81.161 129.5807,-74.8697"/>
</g>
<!-- Node5 -->
<g id="node6" class="node">
<title>Node5</title>
<polygon fill="none" stroke="#bfbfbf" points="170.4106,-55.5 170.4106,-73.5 276.269,-73.5 276.269,-55.5 170.4106,-55.5"/>
<text text-anchor="middle" x="223.3398" y="-61.5" font-family="Helvetica,sans-Serif" font-size="10.00" fill="#000000">QtCore/qbytearray.h</text>
</g>
<!-- Node0&#45;&gt;Node5 -->
<g id="edge5" class="edge">
<title>Node0&#45;&gt;Node5</title>
<path fill="none" stroke="#191970" d="M223.3398,-110.2808C223.3398,-102.3776 223.3398,-92.4316 223.3398,-83.8308"/>
<polygon fill="#191970" stroke="#191970" points="226.8399,-83.5842 223.3398,-73.5842 219.8399,-83.5842 226.8399,-83.5842"/>
</g>
<!-- Node6 -->
<g id="node7" class="node">
<title>Node6</title>
<polygon fill="none" stroke="#bfbfbf" points="294.3179,-55.5 294.3179,-73.5 400.3618,-73.5 400.3618,-55.5 294.3179,-55.5"/>
<text text-anchor="middle" x="347.3398" y="-61.5" font-family="Helvetica,sans-Serif" font-size="10.00" fill="#000000">QtCore/qmetatype.h</text>
</g>
<!-- Node0&#45;&gt;Node6 -->
<g id="edge6" class="edge">
<title>Node0&#45;&gt;Node6</title>
<path fill="none" stroke="#191970" d="M252.4123,-110.4327C272.5899,-100.6693 299.3221,-87.7344 319.2762,-78.0792"/>
<polygon fill="#191970" stroke="#191970" points="320.9919,-81.1373 328.469,-73.6311 317.9429,-74.8362 320.9919,-81.1373"/>
</g>
<!-- Node2 -->
<g id="node3" class="node">
<title>Node2</title>
<polygon fill="none" stroke="#bfbfbf" points="0,-.5 0,-18.5 52.6797,-18.5 52.6797,-.5 0,-.5"/>
<text text-anchor="middle" x="26.3398" y="-6.5" font-family="Helvetica,sans-Serif" font-size="10.00" fill="#000000">QObject</text>
</g>
<!-- Node1&#45;&gt;Node2 -->
<g id="edge2" class="edge">
<title>Node1&#45;&gt;Node2</title>
<path fill="none" stroke="#191970" d="M88.1202,-55.4179C76.8729,-47.0584 59.9717,-34.4966 46.6884,-24.6239"/>
<polygon fill="#191970" stroke="#191970" points="48.6914,-21.7518 38.5776,-18.5956 44.5157,-27.37 48.6914,-21.7518"/>
</g>
<!-- Node3 -->
<g id="node4" class="node">
<title>Node3</title>
<polygon fill="none" stroke="#bfbfbf" points="70.3892,-.5 70.3892,-18.5 130.2905,-18.5 130.2905,-.5 70.3892,-.5"/>
<text text-anchor="middle" x="100.3398" y="-6.5" font-family="Helvetica,sans-Serif" font-size="10.00" fill="#000000">QProcess</text>
</g>
<!-- Node1&#45;&gt;Node3 -->
<g id="edge3" class="edge">
<title>Node1&#45;&gt;Node3</title>
<path fill="none" stroke="#191970" d="M100.3398,-55.4179C100.3398,-48.2164 100.3398,-37.8962 100.3398,-28.8632"/>
<polygon fill="#191970" stroke="#191970" points="103.8399,-28.7794 100.3398,-18.7795 96.8399,-28.7795 103.8399,-28.7794"/>
</g>
<!-- Node4 -->
<g id="node5" class="node">
<title>Node4</title>
<polygon fill="none" stroke="#bfbfbf" points="148.4385,-.5 148.4385,-18.5 202.2412,-18.5 202.2412,-.5 148.4385,-.5"/>
<text text-anchor="middle" x="175.3398" y="-6.5" font-family="Helvetica,sans-Serif" font-size="10.00" fill="#000000">QQueue</text>
</g>
<!-- Node1&#45;&gt;Node4 -->
<g id="edge4" class="edge">
<title>Node1&#45;&gt;Node4</title>
<path fill="none" stroke="#191970" d="M112.7246,-55.4179C124.1239,-47.0584 141.2535,-34.4966 154.7163,-24.6239"/>
<polygon fill="#191970" stroke="#191970" points="156.9424,-27.3317 162.9367,-18.5956 152.8029,-21.6869 156.9424,-27.3317"/>
</g>
</g>
</svg>
