<?xml version="1.0" encoding="UTF-8" standalone="no"?>
<!DOCTYPE svg PUBLIC "-//W3C//DTD SVG 1.1//EN"
 "http://www.w3.org/Graphics/SVG/1.1/DTD/svg11.dtd">
<!-- Generated by graphviz version 2.40.1 (20161225.0304)
 -->
<!-- Title: src/passwordconfiguration.h Pages: 1 -->
<svg width="1153pt" height="137pt"
 viewBox="0.00 0.00 1153.22 137.00" xmlns="http://www.w3.org/2000/svg" xmlns:xlink="http://www.w3.org/1999/xlink">
<g id="graph0" class="graph" transform="scale(1 1) rotate(0) translate(4 133)">
<title>src/passwordconfiguration.h</title>
<!-- Node2 -->
<g id="node1" class="node">
<title>Node2</title>
<polygon fill="#bfbfbf" stroke="#000000" points="611.7192,-110.5 611.7192,-128.5 752.2261,-128.5 752.2261,-110.5 611.7192,-110.5"/>
<text text-anchor="middle" x="681.9727" y="-116.5" font-family="Helvetica,sans-Serif" font-size="10.00" fill="#000000">src/passwordconfiguration.h</text>
</g>
<!-- Node3 -->
<g id="node2" class="node">
<title>Node3</title>
<g id="a_node2"><a xlink:href="configdialog_8h.html" target="_top" xlink:title="src/configdialog.h">
<polygon fill="none" stroke="#000000" points="195.0615,-55.5 195.0615,-73.5 288.8838,-73.5 288.8838,-55.5 195.0615,-55.5"/>
<text text-anchor="middle" x="241.9727" y="-61.5" font-family="Helvetica,sans-Serif" font-size="10.00" fill="#000000">src/configdialog.h</text>
</a>
</g>
</g>
<!-- Node2&#45;&gt;Node3 -->
<g id="edge1" class="edge">
<title>Node2&#45;&gt;Node3</title>
<path fill="none" stroke="#191970" d="M601.2268,-109.4068C509.7393,-97.9708 363.6952,-79.7153 289.1272,-70.3943"/>
<polygon fill="#191970" stroke="#191970" points="600.9221,-112.8958 611.279,-110.6633 601.7904,-105.9499 600.9221,-112.8958"/>
</g>
<!-- Node7 -->
<g id="node6" class="node">
<title>Node7</title>
<g id="a_node6"><a xlink:href="qtpasssettings_8h.html" target="_top" xlink:title="src/qtpasssettings.h">
<polygon fill="none" stroke="#000000" points="589.7856,-55.5 589.7856,-73.5 694.1597,-73.5 694.1597,-55.5 589.7856,-55.5"/>
<text text-anchor="middle" x="641.9727" y="-61.5" font-family="Helvetica,sans-Serif" font-size="10.00" fill="#000000">src/qtpasssettings.h</text>
</a>
</g>
</g>
<!-- Node2&#45;&gt;Node7 -->
<g id="edge5" class="edge">
<title>Node2&#45;&gt;Node7</title>
<path fill="none" stroke="#191970" d="M669.3519,-102.1465C662.5183,-92.7503 654.3478,-81.5159 648.7214,-73.7795"/>
<polygon fill="#191970" stroke="#191970" points="666.6551,-104.3891 675.3675,-110.4179 672.3163,-100.2719 666.6551,-104.3891"/>
</g>
<!-- Node10 -->
<g id="node9" class="node">
<title>Node10</title>
<g id="a_node9"><a xlink:href="passworddialog_8cpp.html" target="_top" xlink:title="src/passworddialog.cpp">
<polygon fill="none" stroke="#000000" points="1024.7241,-.5 1024.7241,-18.5 1145.2212,-18.5 1145.2212,-.5 1024.7241,-.5"/>
<text text-anchor="middle" x="1084.9727" y="-6.5" font-family="Helvetica,sans-Serif" font-size="10.00" fill="#000000">src/passworddialog.cpp</text>
</a>
</g>
</g>
<!-- Node2&#45;&gt;Node10 -->
<g id="edge15" class="edge">
<title>Node2&#45;&gt;Node10</title>
<path fill="none" stroke="#191970" d="M693.0658,-101.6001C703.465,-86.4967 720.4617,-65.6792 740.9727,-55 850.3061,1.9252 893.8043,-35.4064 1015.9727,-19 1018.7291,-18.6298 1021.5472,-18.2495 1024.3937,-17.8638"/>
<polygon fill="#191970" stroke="#191970" points="690.0322,-99.8434 687.4709,-110.1239 695.8842,-103.6845 690.0322,-99.8434"/>
</g>
<!-- Node15 -->
<g id="node14" class="node">
<title>Node15</title>
<g id="a_node14"><a xlink:href="tst__ui_8cpp.html" target="_top" xlink:title="tests/auto/ui/tst_ui.cpp">
<polygon fill="none" stroke="#000000" points="750.2217,-55.5 750.2217,-73.5 865.7236,-73.5 865.7236,-55.5 750.2217,-55.5"/>
<text text-anchor="middle" x="807.9727" y="-61.5" font-family="Helvetica,sans-Serif" font-size="10.00" fill="#000000">tests/auto/ui/tst_ui.cpp</text>
</a>
</g>
</g>
<!-- Node2&#45;&gt;Node15 -->
<g id="edge16" class="edge">
<title>Node2&#45;&gt;Node15</title>
<path fill="none" stroke="#191970" d="M712.1484,-106.328C735.3145,-96.2159 766.6968,-82.5172 787.1354,-73.5956"/>
<polygon fill="#191970" stroke="#191970" points="710.5437,-103.2095 702.779,-110.4179 713.3441,-109.625 710.5437,-103.2095"/>
</g>
<!-- Node4 -->
<g id="node3" class="node">
<title>Node4</title>
<g id="a_node3"><a xlink:href="configdialog_8cpp.html" target="_top" xlink:title="src/configdialog.cpp">
<polygon fill="none" stroke="#000000" points="127.7808,-.5 127.7808,-18.5 232.1646,-18.5 232.1646,-.5 127.7808,-.5"/>
<text text-anchor="middle" x="179.9727" y="-6.5" font-family="Helvetica,sans-Serif" font-size="10.00" fill="#000000">src/configdialog.cpp</text>
</a>
</g>
</g>
<!-- Node3&#45;&gt;Node4 -->
<g id="edge2" class="edge">
<title>Node3&#45;&gt;Node4</title>
<path fill="none" stroke="#191970" d="M224.0312,-48.5841C213.1345,-38.9177 199.6037,-26.9147 190.4331,-18.7795"/>
<polygon fill="#191970" stroke="#191970" points="221.9312,-51.4 231.7346,-55.4179 226.5765,-46.1634 221.9312,-51.4"/>
</g>
<!-- Node5 -->
<g id="node4" class="node">
<title>Node5</title>
<g id="a_node4"><a xlink:href="keygendialog_8cpp.html" target="_top" xlink:title="src/keygendialog.cpp">
<polygon fill="none" stroke="#000000" points="0,-.5 0,-18.5 109.9453,-18.5 109.9453,-.5 0,-.5"/>
<text text-anchor="middle" x="54.9727" y="-6.5" font-family="Helvetica,sans-Serif" font-size="10.00" fill="#000000">src/keygendialog.cpp</text>
</a>
</g>
</g>
<!-- Node3&#45;&gt;Node5 -->
<g id="edge3" class="edge">
<title>Node3&#45;&gt;Node5</title>
<path fill="none" stroke="#191970" d="M201.2405,-52.52C166.4323,-42.2822 117.1174,-27.7779 85.587,-18.5042"/>
<polygon fill="#191970" stroke="#191970" points="200.5121,-55.9539 211.0934,-55.4179 202.4874,-49.2384 200.5121,-55.9539"/>
</g>
<!-- Node6 -->
<g id="node5" class="node">
<title>Node6</title>
<g id="a_node5"><a xlink:href="mainwindow_8cpp.html" target="_top" xlink:title="src/mainwindow.cpp">
<polygon fill="none" stroke="#000000" points="250.229,-.5 250.229,-18.5 355.7163,-18.5 355.7163,-.5 250.229,-.5"/>
<text text-anchor="middle" x="302.9727" y="-6.5" font-family="Helvetica,sans-Serif" font-size="10.00" fill="#000000">src/mainwindow.cpp</text>
</a>
</g>
</g>
<!-- Node3&#45;&gt;Node6 -->
<g id="edge4" class="edge">
<title>Node3&#45;&gt;Node6</title>
<path fill="none" stroke="#191970" d="M259.6248,-48.5841C270.3457,-38.9177 283.6582,-26.9147 292.6809,-18.7795"/>
<polygon fill="#191970" stroke="#191970" points="257.1287,-46.122 252.0456,-55.4179 261.8162,-51.3209 257.1287,-46.122"/>
</g>
<!-- Node7&#45;&gt;Node4 -->
<g id="edge6" class="edge">
<title>Node7&#45;&gt;Node4</title>
<path fill="none" stroke="#191970" d="M579.3971,-58.2125C500.4128,-50.0894 360.4262,-35.0716 240.9727,-19 238.1047,-18.6141 235.1631,-18.204 232.1954,-17.779"/>
<polygon fill="#191970" stroke="#191970" points="579.3547,-61.7264 589.6595,-59.2644 580.0686,-54.7629 579.3547,-61.7264"/>
</g>
<!-- Node7&#45;&gt;Node6 -->
<g id="edge8" class="edge">
<title>Node7&#45;&gt;Node6</title>
<path fill="none" stroke="#191970" d="M579.748,-54.4046C515.5105,-43.9825 416.3733,-27.8983 355.8163,-18.0735"/>
<polygon fill="#191970" stroke="#191970" points="579.3154,-57.88 589.7468,-56.0268 580.4364,-50.9704 579.3154,-57.88"/>
</g>
<!-- Node8 -->
<g id="node7" class="node">
<title>Node8</title>
<g id="a_node7"><a xlink:href="imitatepass_8cpp.html" target="_top" xlink:title="src/imitatepass.cpp">
<polygon fill="none" stroke="#000000" points="374.1797,-.5 374.1797,-18.5 475.7656,-18.5 475.7656,-.5 374.1797,-.5"/>
<text text-anchor="middle" x="424.9727" y="-6.5" font-family="Helvetica,sans-Serif" font-size="10.00" fill="#000000">src/imitatepass.cpp</text>
</a>
</g>
</g>
<!-- Node7&#45;&gt;Node8 -->
<g id="edge7" class="edge">
<title>Node7&#45;&gt;Node8</title>
<path fill="none" stroke="#191970" d="M596.2577,-52.9133C555.7906,-42.6566 497.5582,-27.8973 460.4984,-18.5042"/>
<polygon fill="#191970" stroke="#191970" points="595.5861,-56.3536 606.1395,-55.4179 597.306,-49.5682 595.5861,-56.3536"/>
</g>
<!-- Node9 -->
<g id="node8" class="node">
<title>Node9</title>
<g id="a_node8"><a xlink:href="pass_8cpp.html" target="_top" xlink:title="src/pass.cpp">
<polygon fill="none" stroke="#000000" points="493.9063,-.5 493.9063,-18.5 566.0391,-18.5 566.0391,-.5 493.9063,-.5"/>
<text text-anchor="middle" x="529.9727" y="-6.5" font-family="Helvetica,sans-Serif" font-size="10.00" fill="#000000">src/pass.cpp</text>
</a>
</g>
</g>
<!-- Node7&#45;&gt;Node9 -->
<g id="edge9" class="edge">
<title>Node7&#45;&gt;Node9</title>
<path fill="none" stroke="#191970" d="M614.3185,-50.9198C593.8122,-40.8498 566.419,-27.3977 548.4947,-18.5956"/>
<polygon fill="#191970" stroke="#191970" points="612.9592,-54.1515 623.4781,-55.4179 616.0448,-47.8683 612.9592,-54.1515"/>
</g>
<!-- Node7&#45;&gt;Node10 -->
<g id="edge10" class="edge">
<title>Node7&#45;&gt;Node10</title>
<path fill="none" stroke="#191970" d="M704.1589,-55.5021C705.4411,-55.3317 706.7135,-55.1642 707.9727,-55 844.6366,-37.1807 879.2547,-36.3999 1015.9727,-19 1018.7316,-18.6489 1021.5518,-18.2842 1024.3999,-17.9111"/>
<polygon fill="#191970" stroke="#191970" points="703.6332,-52.0412 694.1938,-56.8525 704.5733,-58.9778 703.6332,-52.0412"/>
</g>
<!-- Node11 -->
<g id="node10" class="node">
<title>Node11</title>
<g id="a_node10"><a xlink:href="qtpasssettings_8cpp.html" target="_top" xlink:title="src/qtpasssettings.cpp">
<polygon fill="none" stroke="#000000" points="584.5049,-.5 584.5049,-18.5 699.4404,-18.5 699.4404,-.5 584.5049,-.5"/>
<text text-anchor="middle" x="641.9727" y="-6.5" font-family="Helvetica,sans-Serif" font-size="10.00" fill="#000000">src/qtpasssettings.cpp</text>
</a>
</g>
</g>
<!-- Node7&#45;&gt;Node11 -->
<g id="edge11" class="edge">
<title>Node7&#45;&gt;Node11</title>
<path fill="none" stroke="#191970" d="M641.9727,-45.383C641.9727,-36.3738 641.9727,-26.0373 641.9727,-18.7795"/>
<polygon fill="#191970" stroke="#191970" points="638.4728,-45.4178 641.9727,-55.4179 645.4728,-45.4179 638.4728,-45.4178"/>
</g>
<!-- Node12 -->
<g id="node11" class="node">
<title>Node12</title>
<g id="a_node11"><a xlink:href="realpass_8cpp.html" target="_top" xlink:title="src/realpass.cpp">
<polygon fill="none" stroke="#000000" points="717.5688,-.5 717.5688,-18.5 806.3765,-18.5 806.3765,-.5 717.5688,-.5"/>
<text text-anchor="middle" x="761.9727" y="-6.5" font-family="Helvetica,sans-Serif" font-size="10.00" fill="#000000">src/realpass.cpp</text>
</a>
</g>
</g>
<!-- Node7&#45;&gt;Node12 -->
<g id="edge12" class="edge">
<title>Node7&#45;&gt;Node12</title>
<path fill="none" stroke="#191970" d="M671.0074,-51.1924C693.041,-41.0937 722.7492,-27.4774 742.1277,-18.5956"/>
<polygon fill="#191970" stroke="#191970" points="669.4206,-48.0695 661.7882,-55.4179 672.3372,-54.433 669.4206,-48.0695"/>
</g>
<!-- Node13 -->
<g id="node12" class="node">
<title>Node13</title>
<g id="a_node12"><a xlink:href="storemodel_8cpp.html" target="_top" xlink:title="src/storemodel.cpp">
<polygon fill="none" stroke="#000000" points="824.7339,-.5 824.7339,-18.5 925.2114,-18.5 925.2114,-.5 824.7339,-.5"/>
<text text-anchor="middle" x="874.9727" y="-6.5" font-family="Helvetica,sans-Serif" font-size="10.00" fill="#000000">src/storemodel.cpp</text>
</a>
</g>
</g>
<!-- Node7&#45;&gt;Node13 -->
<g id="edge13" class="edge">
<title>Node7&#45;&gt;Node13</title>
<path fill="none" stroke="#191970" d="M689.963,-53.1718C733.4203,-42.9136 796.605,-27.9988 836.7375,-18.5255"/>
<polygon fill="#191970" stroke="#191970" points="689.1154,-49.7756 680.187,-55.4795 690.7236,-56.5884 689.1154,-49.7756"/>
</g>
<!-- Node14 -->
<g id="node13" class="node">
<title>Node14</title>
<g id="a_node13"><a xlink:href="util_8cpp.html" target="_top" xlink:title="src/util.cpp">
<polygon fill="none" stroke="#000000" points="943.0762,-.5 943.0762,-18.5 1006.8691,-18.5 1006.8691,-.5 943.0762,-.5"/>
<text text-anchor="middle" x="974.9727" y="-6.5" font-family="Helvetica,sans-Serif" font-size="10.00" fill="#000000">src/util.cpp</text>
</a>
</g>
</g>
<!-- Node7&#45;&gt;Node14 -->
<g id="edge14" class="edge">
<title>Node7&#45;&gt;Node14</title>
<path fill="none" stroke="#191970" d="M704.1913,-55.3511C776.4344,-44.6317 891.1556,-27.2849 933.9727,-19 936.8421,-18.4448 939.8158,-17.8311 942.7911,-17.1909"/>
<polygon fill="#191970" stroke="#191970" points="703.6703,-51.89 694.2913,-56.818 704.6964,-58.8143 703.6703,-51.89"/>
</g>
</g>
</svg>
