<?xml version="1.0" encoding="UTF-8" standalone="no"?>
<!DOCTYPE svg PUBLIC "-//W3C//DTD SVG 1.1//EN"
 "http://www.w3.org/Graphics/SVG/1.1/DTD/svg11.dtd">
<!-- Generated by graphviz version 2.40.1 (20161225.0304)
 -->
<!-- Title: src/passworddialog.cpp Pages: 1 -->
<!--zoomable 302 -->
<svg id="main" version="1.1" xmlns="http://www.w3.org/2000/svg" xmlns:xlink="http://www.w3.org/1999/xlink" xml:space="preserve" onload="init(evt)">
<style type="text/css"><![CDATA[
.edge:hover path { stroke: red; }
.edge:hover polygon { stroke: red; fill: red; }
]]></style>
<script type="text/javascript"><![CDATA[
var edges = document.getElementsByTagName('g');
if (edges && edges.length) {
  for (var i=0;i<edges.length;i++) {
    if (edges[i].id.substr(0,4)=='edge') {
      edges[i].setAttribute('class','edge');
    }
  }
}
]]></script>
        <defs>
                <circle id="rim" cx="0" cy="0" r="7"/>
                <circle id="rim2" cx="0" cy="0" r="3.5"/>
                <g id="zoomPlus">
                        <use xlink:href="#rim" fill="#404040">
                                <set attributeName="fill" to="#808080" begin="zoomplus.mouseover" end="zoomplus.mouseout"/>
                        </use>
                        <path d="M-4,0h8M0,-4v8" fill="none" stroke="white" stroke-width="1.5" pointer-events="none"/>
                </g>
                <g id="zoomMin">
                        <use xlink:href="#rim" fill="#404040">
                                <set attributeName="fill" to="#808080" begin="zoomminus.mouseover" end="zoomminus.mouseout"/>
                        </use>
                        <path d="M-4,0h8" fill="none" stroke="white" stroke-width="1.5" pointer-events="none"/>
                </g>
                <g id="dirArrow">
                        <path fill="none" stroke="white" stroke-width="1.5" d="M0,-3.0v7 M-2.5,-0.5L0,-3.0L2.5,-0.5"/>
                </g>
               <g id="resetDef">
                       <use xlink:href="#rim2" fill="#404040">
                               <set attributeName="fill" to="#808080" begin="reset.mouseover" end="reset.mouseout"/>
                       </use>
               </g>
        </defs>

<script type="text/javascript">
var viewWidth = 3660;
var viewHeight = 302;
var sectionId = 'dynsection-0';
</script>
<script xlink:href="svgpan.js"/>
<svg id="graph" class="graph">
<g id="viewport">
<title>src/passworddialog.cpp</title>
<!-- Node0 -->
<g id="node1" class="node">
<title>Node0</title>
<polygon fill="#bfbfbf" stroke="#000000" points="551.665,-275.5 551.665,-293.5 672.1621,-293.5 672.1621,-275.5 551.665,-275.5"/>
<text text-anchor="middle" x="611.9136" y="-281.5" font-family="Helvetica,sans-Serif" font-size="10.00" fill="#000000">src/passworddialog.cpp</text>
</g>
<!-- Node1 -->
<g id="node2" class="node">
<title>Node1</title>
<g id="a_node2"><a xlink:href="passworddialog_8h.html" target="_top" xlink:title="passworddialog.h">
<polygon fill="none" stroke="#000000" points="0,-220.5 0,-238.5 93.8271,-238.5 93.8271,-220.5 0,-220.5"/>
<text text-anchor="middle" x="46.9136" y="-226.5" font-family="Helvetica,sans-Serif" font-size="10.00" fill="#000000">passworddialog.h</text>
</a>
</g>
</g>
<!-- Node0&#45;&gt;Node1 -->
<g id="edge1" class="edge">
<title>Node0&#45;&gt;Node1</title>
<path fill="none" stroke="#191970" d="M551.4136,-280.6427C457.753,-274.3292 271.8157,-260.435 103.9372,-239.0397"/>
<polygon fill="#191970" stroke="#191970" points="104.2918,-235.5565 93.927,-237.7521 103.3988,-242.4993 104.2918,-235.5565"/>
</g>
<!-- Node3 -->
<g id="node4" class="node">
<title>Node3</title>
<g id="a_node4"><a xlink:href="debughelper_8h.html" target="_top" xlink:title="debughelper.h">
<polygon fill="none" stroke="#000000" points="112.2144,-220.5 112.2144,-238.5 191.6128,-238.5 191.6128,-220.5 112.2144,-220.5"/>
<text text-anchor="middle" x="151.9136" y="-226.5" font-family="Helvetica,sans-Serif" font-size="10.00" fill="#000000">debughelper.h</text>
</a>
</g>
</g>
<!-- Node0&#45;&gt;Node3 -->
<g id="edge3" class="edge">
<title>Node0&#45;&gt;Node3</title>
<path fill="none" stroke="#191970" d="M551.4717,-279.3578C473.1937,-272.3534 332.3239,-258.5788 201.8847,-239.0358"/>
<polygon fill="#191970" stroke="#191970" points="202.1236,-235.5322 191.7125,-237.4966 201.0763,-242.4534 202.1236,-235.5322"/>
</g>
<!-- Node5 -->
<g id="node6" class="node">
<title>Node5</title>
<g id="a_node6"><a xlink:href="filecontent_8h.html" target="_top" xlink:title="filecontent.h">
<polygon fill="none" stroke="#000000" points="209.9507,-220.5 209.9507,-238.5 279.8765,-238.5 279.8765,-220.5 209.9507,-220.5"/>
<text text-anchor="middle" x="244.9136" y="-226.5" font-family="Helvetica,sans-Serif" font-size="10.00" fill="#000000">filecontent.h</text>
</a>
</g>
</g>
<!-- Node0&#45;&gt;Node5 -->
<g id="edge5" class="edge">
<title>Node0&#45;&gt;Node5</title>
<path fill="none" stroke="#191970" d="M551.7219,-275.4795C478.3718,-264.4869 356.0973,-246.1624 290.2377,-236.2924"/>
<polygon fill="#191970" stroke="#191970" points="290.5764,-232.8042 280.1681,-234.7834 289.5389,-239.7269 290.5764,-232.8042"/>
</g>
<!-- Node8 -->
<g id="node9" class="node">
<title>Node8</title>
<g id="a_node9"><a xlink:href="passwordconfiguration_8h.html" target="_top" xlink:title="passwordconfiguration.h">
<polygon fill="none" stroke="#000000" points="306.7144,-165.5 306.7144,-183.5 431.1128,-183.5 431.1128,-165.5 306.7144,-165.5"/>
<text text-anchor="middle" x="368.9136" y="-171.5" font-family="Helvetica,sans-Serif" font-size="10.00" fill="#000000">passwordconfiguration.h</text>
</a>
</g>
</g>
<!-- Node0&#45;&gt;Node8 -->
<g id="edge8" class="edge">
<title>Node0&#45;&gt;Node8</title>
<path fill="none" stroke="#191970" d="M592.0279,-275.4982C549.3089,-256.1604 448.5917,-210.5683 398.4054,-187.8502"/>
<polygon fill="#191970" stroke="#191970" points="399.6275,-184.5616 389.0741,-183.6261 396.7408,-190.9386 399.6275,-184.5616"/>
</g>
<!-- Node9 -->
<g id="node10" class="node">
<title>Node9</title>
<g id="a_node10"><a xlink:href="qtpasssettings_8h.html" target="_top" xlink:title="qtpasssettings.h">
<polygon fill="none" stroke="#000000" points="648.7808,-220.5 648.7808,-238.5 737.0464,-238.5 737.0464,-220.5 648.7808,-220.5"/>
<text text-anchor="middle" x="692.9136" y="-226.5" font-family="Helvetica,sans-Serif" font-size="10.00" fill="#000000">qtpasssettings.h</text>
</a>
</g>
</g>
<!-- Node0&#45;&gt;Node9 -->
<g id="edge10" class="edge">
<title>Node0&#45;&gt;Node9</title>
<path fill="none" stroke="#191970" d="M625.2891,-275.4179C637.7176,-266.9788 656.4533,-254.257 671.0545,-244.3426"/>
<polygon fill="#191970" stroke="#191970" points="673.2113,-247.1088 679.5182,-238.5956 669.279,-241.3176 673.2113,-247.1088"/>
</g>
<!-- Node31 -->
<g id="node32" class="node">
<title>Node31</title>
<g id="a_node32"><a xlink:href="ui__passworddialog_8h.html" target="_top" xlink:title="ui_passworddialog.h">
<polygon fill="none" stroke="#000000" points="2142.3276,-220.5 2142.3276,-238.5 2249.4995,-238.5 2249.4995,-220.5 2142.3276,-220.5"/>
<text text-anchor="middle" x="2195.9136" y="-226.5" font-family="Helvetica,sans-Serif" font-size="10.00" fill="#000000">ui_passworddialog.h</text>
</a>
</g>
</g>
<!-- Node0&#45;&gt;Node31 -->
<g id="edge40" class="edge">
<title>Node0&#45;&gt;Node31</title>
<path fill="none" stroke="#191970" d="M672.555,-282.3944C922.8866,-273.7023 1874.7502,-240.6515 2131.678,-231.7304"/>
<polygon fill="#191970" stroke="#191970" points="2132.0854,-235.2185 2141.9579,-231.3735 2131.8424,-228.2227 2132.0854,-235.2185"/>
</g>
<!-- Node51 -->
<g id="node52" class="node">
<title>Node51</title>
<polygon fill="none" stroke="#bfbfbf" points="2267.7905,-220.5 2267.7905,-238.5 2316.0366,-238.5 2316.0366,-220.5 2267.7905,-220.5"/>
<text text-anchor="middle" x="2291.9136" y="-226.5" font-family="Helvetica,sans-Serif" font-size="10.00" fill="#000000">QLabel</text>
</g>
<!-- Node0&#45;&gt;Node51 -->
<g id="edge60" class="edge">
<title>Node0&#45;&gt;Node51</title>
<path fill="none" stroke="#191970" d="M672.4486,-283.7333C945.6693,-280.1528 2058.8457,-264.2369 2257.5323,-238.6749"/>
<polygon fill="#191970" stroke="#191970" points="2258.1493,-242.1225 2267.5594,-237.2542 2257.1673,-235.1917 2258.1493,-242.1225"/>
</g>
<!-- Node52 -->
<g id="node53" class="node">
<title>Node52</title>
<polygon fill="none" stroke="#bfbfbf" points="2333.9556,-220.5 2333.9556,-238.5 2393.8716,-238.5 2393.8716,-220.5 2333.9556,-220.5"/>
<text text-anchor="middle" x="2363.9136" y="-226.5" font-family="Helvetica,sans-Serif" font-size="10.00" fill="#000000">QLineEdit</text>
</g>
<!-- Node0&#45;&gt;Node52 -->
<g id="edge61" class="edge">
<title>Node0&#45;&gt;Node52</title>
<path fill="none" stroke="#191970" d="M672.4595,-283.6548C952.4847,-279.6448 2116.8162,-261.828 2323.6292,-238.7485"/>
<polygon fill="#191970" stroke="#191970" points="2324.2991,-242.1928 2333.8003,-237.5047 2323.4493,-235.2445 2324.2991,-242.1928"/>
</g>
<!-- Node2 -->
<g id="node3" class="node">
<title>Node2</title>
<polygon fill="none" stroke="#bfbfbf" points="20.8496,-165.5 20.8496,-183.5 72.9775,-183.5 72.9775,-165.5 20.8496,-165.5"/>
<text text-anchor="middle" x="46.9136" y="-171.5" font-family="Helvetica,sans-Serif" font-size="10.00" fill="#000000">QDialog</text>
</g>
<!-- Node1&#45;&gt;Node2 -->
<g id="edge2" class="edge">
<title>Node1&#45;&gt;Node2</title>
<path fill="none" stroke="#191970" d="M46.9136,-220.4179C46.9136,-213.2164 46.9136,-202.8962 46.9136,-193.8632"/>
<polygon fill="#191970" stroke="#191970" points="50.4137,-193.7794 46.9136,-183.7795 43.4137,-193.7795 50.4137,-193.7794"/>
</g>
<!-- Node4 -->
<g id="node5" class="node">
<title>Node4</title>
<polygon fill="none" stroke="#bfbfbf" points="98.2905,-165.5 98.2905,-183.5 151.5366,-183.5 151.5366,-165.5 98.2905,-165.5"/>
<text text-anchor="middle" x="124.9136" y="-171.5" font-family="Helvetica,sans-Serif" font-size="10.00" fill="#000000">QDebug</text>
</g>
<!-- Node3&#45;&gt;Node4 -->
<g id="edge4" class="edge">
<title>Node3&#45;&gt;Node4</title>
<path fill="none" stroke="#191970" d="M147.4551,-220.4179C143.8032,-212.9789 138.5178,-202.2123 133.9827,-192.9742"/>
<polygon fill="#191970" stroke="#191970" points="137.0176,-191.2138 129.4689,-183.7795 130.7339,-194.2985 137.0176,-191.2138"/>
</g>
<!-- Node6 -->
<g id="node7" class="node">
<title>Node6</title>
<polygon fill="none" stroke="#bfbfbf" points="169.2437,-165.5 169.2437,-183.5 208.5835,-183.5 208.5835,-165.5 169.2437,-165.5"/>
<text text-anchor="middle" x="188.9136" y="-171.5" font-family="Helvetica,sans-Serif" font-size="10.00" fill="#000000">QList</text>
</g>
<!-- Node5&#45;&gt;Node6 -->
<g id="edge6" class="edge">
<title>Node5&#45;&gt;Node6</title>
<path fill="none" stroke="#191970" d="M235.6663,-220.4179C227.5281,-212.425 215.4783,-200.5903 205.6502,-190.9377"/>
<polygon fill="#191970" stroke="#191970" points="207.9487,-188.2895 198.3617,-183.7795 203.0438,-193.2836 207.9487,-188.2895"/>
</g>
<!-- Node7 -->
<g id="node8" class="node">
<title>Node7</title>
<polygon fill="none" stroke="#bfbfbf" points="259.9629,-.5 259.9629,-18.5 309.8643,-18.5 309.8643,-.5 259.9629,-.5"/>
<text text-anchor="middle" x="284.9136" y="-6.5" font-family="Helvetica,sans-Serif" font-size="10.00" fill="#000000">QString</text>
</g>
<!-- Node5&#45;&gt;Node7 -->
<g id="edge7" class="edge">
<title>Node5&#45;&gt;Node7</title>
<path fill="none" stroke="#191970" d="M246.5814,-220.327C252.5789,-187.3409 273.1323,-74.2972 281.4139,-28.7484"/>
<polygon fill="#191970" stroke="#191970" points="284.8932,-29.177 283.2386,-18.7122 278.0061,-27.9248 284.8932,-29.177"/>
</g>
<!-- Node8&#45;&gt;Node7 -->
<g id="edge9" class="edge">
<title>Node8&#45;&gt;Node7</title>
<path fill="none" stroke="#191970" d="M362.865,-165.3544C351.5549,-148.0181 326.8212,-108.9737 309.9136,-74 302.7263,-59.1329 296.0475,-41.629 291.4045,-28.6097"/>
<polygon fill="#191970" stroke="#191970" points="294.6116,-27.1766 288.0167,-18.8846 288.0012,-29.4794 294.6116,-27.1766"/>
</g>
<!-- Node9&#45;&gt;Node8 -->
<g id="edge31" class="edge">
<title>Node9&#45;&gt;Node8</title>
<path fill="none" stroke="#191970" d="M648.5421,-221.9678C592.5263,-212.459 495.8008,-196.0395 432.0853,-185.2236"/>
<polygon fill="#191970" stroke="#191970" points="432.5988,-181.7608 422.154,-183.5377 431.4272,-188.662 432.5988,-181.7608"/>
</g>
<!-- Node10 -->
<g id="node11" class="node">
<title>Node10</title>
<g id="a_node11"><a xlink:href="enums_8h.html" target="_top" xlink:title="enums.h">
<polygon fill="none" stroke="#000000" points="818.7363,-55.5 818.7363,-73.5 873.0908,-73.5 873.0908,-55.5 818.7363,-55.5"/>
<text text-anchor="middle" x="845.9136" y="-61.5" font-family="Helvetica,sans-Serif" font-size="10.00" fill="#000000">enums.h</text>
</a>
</g>
</g>
<!-- Node9&#45;&gt;Node10 -->
<g id="edge11" class="edge">
<title>Node9&#45;&gt;Node10</title>
<path fill="none" stroke="#191970" d="M648.3589,-224.6795C599.8684,-217.5343 532.4206,-200.8966 557.9136,-165 587.6507,-123.1272 737.6526,-87.0132 808.6091,-71.9686"/>
<polygon fill="#191970" stroke="#191970" points="809.4093,-75.3771 818.4808,-69.9036 807.976,-68.5254 809.4093,-75.3771"/>
</g>
<!-- Node11 -->
<g id="node12" class="node">
<title>Node11</title>
<g id="a_node12"><a xlink:href="imitatepass_8h.html" target="_top" xlink:title="imitatepass.h">
<polygon fill="none" stroke="#000000" points="566.4556,-165.5 566.4556,-183.5 641.3716,-183.5 641.3716,-165.5 566.4556,-165.5"/>
<text text-anchor="middle" x="603.9136" y="-171.5" font-family="Helvetica,sans-Serif" font-size="10.00" fill="#000000">imitatepass.h</text>
</a>
</g>
</g>
<!-- Node9&#45;&gt;Node11 -->
<g id="edge12" class="edge">
<title>Node9&#45;&gt;Node11</title>
<path fill="none" stroke="#191970" d="M678.217,-220.4179C664.4322,-211.8992 643.5858,-199.0166 627.4787,-189.0627"/>
<polygon fill="#191970" stroke="#191970" points="628.9786,-185.8753 618.6319,-183.5956 625.2987,-191.83 628.9786,-185.8753"/>
</g>
<!-- Node24 -->
<g id="node25" class="node">
<title>Node24</title>
<g id="a_node25"><a xlink:href="realpass_8h.html" target="_top" xlink:title="realpass.h">
<polygon fill="none" stroke="#000000" points="448.8447,-165.5 448.8447,-183.5 510.9824,-183.5 510.9824,-165.5 448.8447,-165.5"/>
<text text-anchor="middle" x="479.9136" y="-171.5" font-family="Helvetica,sans-Serif" font-size="10.00" fill="#000000">realpass.h</text>
</a>
</g>
</g>
<!-- Node9&#45;&gt;Node24 -->
<g id="edge32" class="edge">
<title>Node9&#45;&gt;Node24</title>
<path fill="none" stroke="#191970" d="M657.741,-220.4179C620.2401,-210.7346 560.9025,-195.4126 521.2092,-185.1632"/>
<polygon fill="#191970" stroke="#191970" points="521.8749,-181.7204 511.3174,-182.609 520.1247,-188.498 521.8749,-181.7204"/>
</g>
<!-- Node25 -->
<g id="node26" class="node">
<title>Node25</title>
<polygon fill="none" stroke="#bfbfbf" points="659.0737,-165.5 659.0737,-183.5 726.7534,-183.5 726.7534,-165.5 659.0737,-165.5"/>
<text text-anchor="middle" x="692.9136" y="-171.5" font-family="Helvetica,sans-Serif" font-size="10.00" fill="#000000">QByteArray</text>
</g>
<!-- Node9&#45;&gt;Node25 -->
<g id="edge34" class="edge">
<title>Node9&#45;&gt;Node25</title>
<path fill="none" stroke="#191970" d="M692.9136,-220.4179C692.9136,-213.2164 692.9136,-202.8962 692.9136,-193.8632"/>
<polygon fill="#191970" stroke="#191970" points="696.4137,-193.7794 692.9136,-183.7795 689.4137,-193.7795 696.4137,-193.7794"/>
</g>
<!-- Node26 -->
<g id="node27" class="node">
<title>Node26</title>
<polygon fill="none" stroke="#bfbfbf" points="744.3521,-165.5 744.3521,-183.5 791.4751,-183.5 791.4751,-165.5 744.3521,-165.5"/>
<text text-anchor="middle" x="767.9136" y="-171.5" font-family="Helvetica,sans-Serif" font-size="10.00" fill="#000000">QHash</text>
</g>
<!-- Node9&#45;&gt;Node26 -->
<g id="edge35" class="edge">
<title>Node9&#45;&gt;Node26</title>
<path fill="none" stroke="#191970" d="M705.2983,-220.4179C716.6976,-212.0584 733.8273,-199.4966 747.2901,-189.6239"/>
<polygon fill="#191970" stroke="#191970" points="749.5162,-192.3317 755.5105,-183.5956 745.3766,-186.6869 749.5162,-192.3317"/>
</g>
<!-- Node27 -->
<g id="node28" class="node">
<title>Node27</title>
<polygon fill="none" stroke="#bfbfbf" points="809.6279,-165.5 809.6279,-183.5 856.1992,-183.5 856.1992,-165.5 809.6279,-165.5"/>
<text text-anchor="middle" x="832.9136" y="-171.5" font-family="Helvetica,sans-Serif" font-size="10.00" fill="#000000">QPoint</text>
</g>
<!-- Node9&#45;&gt;Node27 -->
<g id="edge36" class="edge">
<title>Node9&#45;&gt;Node27</title>
<path fill="none" stroke="#191970" d="M716.0317,-220.4179C739.033,-211.3817 774.5329,-197.4353 800.3756,-187.2828"/>
<polygon fill="#191970" stroke="#191970" points="801.7334,-190.5098 809.7611,-183.5956 799.1737,-183.9946 801.7334,-190.5098"/>
</g>
<!-- Node28 -->
<g id="node29" class="node">
<title>Node28</title>
<polygon fill="none" stroke="#bfbfbf" points="873.958,-165.5 873.958,-183.5 933.8691,-183.5 933.8691,-165.5 873.958,-165.5"/>
<text text-anchor="middle" x="903.9136" y="-171.5" font-family="Helvetica,sans-Serif" font-size="10.00" fill="#000000">QSettings</text>
</g>
<!-- Node9&#45;&gt;Node28 -->
<g id="edge37" class="edge">
<title>Node9&#45;&gt;Node28</title>
<path fill="none" stroke="#191970" d="M727.7559,-220.4179C765.2277,-210.6504 824.709,-195.1457 864.027,-184.897"/>
<polygon fill="#191970" stroke="#191970" points="865.0147,-188.2565 873.8085,-182.3473 863.249,-181.4829 865.0147,-188.2565"/>
</g>
<!-- Node29 -->
<g id="node30" class="node">
<title>Node29</title>
<polygon fill="none" stroke="#bfbfbf" points="952.2979,-165.5 952.2979,-183.5 995.5293,-183.5 995.5293,-165.5 952.2979,-165.5"/>
<text text-anchor="middle" x="973.9136" y="-171.5" font-family="Helvetica,sans-Serif" font-size="10.00" fill="#000000">QSize</text>
</g>
<!-- Node9&#45;&gt;Node29 -->
<g id="edge38" class="edge">
<title>Node9&#45;&gt;Node29</title>
<path fill="none" stroke="#191970" d="M737.0478,-223.0727C785.1988,-215.7053 864.6868,-202.5066 942.0713,-183.9749"/>
<polygon fill="#191970" stroke="#191970" points="943.0943,-187.3282 951.9863,-181.5678 941.4429,-180.5258 943.0943,-187.3282"/>
</g>
<!-- Node30 -->
<g id="node31" class="node">
<title>Node30</title>
<polygon fill="none" stroke="#bfbfbf" points="1013.5508,-165.5 1013.5508,-183.5 1068.2764,-183.5 1068.2764,-165.5 1013.5508,-165.5"/>
<text text-anchor="middle" x="1040.9136" y="-171.5" font-family="Helvetica,sans-Serif" font-size="10.00" fill="#000000">QVariant</text>
</g>
<!-- Node9&#45;&gt;Node30 -->
<g id="edge39" class="edge">
<title>Node9&#45;&gt;Node30</title>
<path fill="none" stroke="#191970" d="M737.1051,-224.6533C795.8552,-217.859 903.0578,-204.2424 1003.4656,-184.1162"/>
<polygon fill="#191970" stroke="#191970" points="1004.3683,-187.5044 1013.4716,-182.084 1002.975,-180.6444 1004.3683,-187.5044"/>
</g>
<!-- Node12 -->
<g id="node13" class="node">
<title>Node12</title>
<g id="a_node13"><a xlink:href="pass_8h.html" target="_top" xlink:title="pass.h">
<polygon fill="none" stroke="#000000" points="465.1821,-110.5 465.1821,-128.5 510.645,-128.5 510.645,-110.5 465.1821,-110.5"/>
<text text-anchor="middle" x="487.9136" y="-116.5" font-family="Helvetica,sans-Serif" font-size="10.00" fill="#000000">pass.h</text>
</a>
</g>
</g>
<!-- Node11&#45;&gt;Node12 -->
<g id="edge13" class="edge">
<title>Node11&#45;&gt;Node12</title>
<path fill="none" stroke="#191970" d="M584.7585,-165.4179C566.1201,-156.5807 537.5769,-143.0473 516.3,-132.9591"/>
<polygon fill="#191970" stroke="#191970" points="517.6324,-129.7174 507.0971,-128.5956 514.6334,-136.0424 517.6324,-129.7174"/>
</g>
<!-- Node22 -->
<g id="node23" class="node">
<title>Node22</title>
<g id="a_node23"><a xlink:href="simpletransaction_8h.html" target="_top" xlink:title="simpletransaction.h">
<polygon fill="none" stroke="#000000" points="794.8374,-110.5 794.8374,-128.5 896.9897,-128.5 896.9897,-110.5 794.8374,-110.5"/>
<text text-anchor="middle" x="845.9136" y="-116.5" font-family="Helvetica,sans-Serif" font-size="10.00" fill="#000000">simpletransaction.h</text>
</a>
</g>
</g>
<!-- Node11&#45;&gt;Node22 -->
<g id="edge28" class="edge">
<title>Node11&#45;&gt;Node22</title>
<path fill="none" stroke="#191970" d="M641.4606,-165.9666C683.055,-156.5133 750.3017,-141.23 796.2311,-130.7915"/>
<polygon fill="#191970" stroke="#191970" points="797.2904,-134.1401 806.266,-128.5108 795.739,-127.3141 797.2904,-134.1401"/>
</g>
<!-- Node12&#45;&gt;Node7 -->
<g id="edge24" class="edge">
<title>Node12&#45;&gt;Node7</title>
<path fill="none" stroke="#191970" d="M465.0079,-117.4742C432.7062,-113.6489 373.1191,-102.949 331.9136,-74 315.1486,-62.2218 302.0696,-42.5293 294.012,-27.9956"/>
<polygon fill="#191970" stroke="#191970" points="296.9961,-26.1496 289.2524,-18.9187 290.7967,-29.4004 296.9961,-26.1496"/>
</g>
<!-- Node12&#45;&gt;Node10 -->
<g id="edge14" class="edge">
<title>Node12&#45;&gt;Node10</title>
<path fill="none" stroke="#191970" d="M510.9069,-113.128C515.5221,-111.9817 520.3544,-110.8749 524.9136,-110 648.134,-86.3535 681.4223,-96.1885 804.9136,-74 806.1676,-73.7747 807.441,-73.536 808.7253,-73.2868"/>
<polygon fill="#191970" stroke="#191970" points="809.5701,-76.686 818.6449,-71.218 808.141,-69.8334 809.5701,-76.686"/>
</g>
<!-- Node13 -->
<g id="node14" class="node">
<title>Node13</title>
<g id="a_node14"><a xlink:href="executor_8h.html" target="_top" xlink:title="executor.h">
<polygon fill="none" stroke="#000000" points="456.8398,-55.5 456.8398,-73.5 518.9873,-73.5 518.9873,-55.5 456.8398,-55.5"/>
<text text-anchor="middle" x="487.9136" y="-61.5" font-family="Helvetica,sans-Serif" font-size="10.00" fill="#000000">executor.h</text>
</a>
</g>
</g>
<!-- Node12&#45;&gt;Node13 -->
<g id="edge15" class="edge">
<title>Node12&#45;&gt;Node13</title>
<path fill="none" stroke="#191970" d="M487.9136,-110.4179C487.9136,-103.2164 487.9136,-92.8962 487.9136,-83.8632"/>
<polygon fill="#191970" stroke="#191970" points="491.4137,-83.7794 487.9136,-73.7795 484.4137,-83.7795 491.4137,-83.7794"/>
</g>
<!-- Node15 -->
<g id="node16" class="node">
<title>Node15</title>
<polygon fill="none" stroke="#bfbfbf" points="661.9629,-.5 661.9629,-18.5 721.8643,-18.5 721.8643,-.5 661.9629,-.5"/>
<text text-anchor="middle" x="691.9136" y="-6.5" font-family="Helvetica,sans-Serif" font-size="10.00" fill="#000000">QProcess</text>
</g>
<!-- Node12&#45;&gt;Node15 -->
<g id="edge22" class="edge">
<title>Node12&#45;&gt;Node15</title>
<path fill="none" stroke="#191970" d="M510.9189,-113.1889C515.533,-112.0375 520.3619,-110.9133 524.9136,-110 579.2983,-99.0872 735.6297,-115.9556 771.9136,-74 789.7905,-53.3287 757.6292,-34.3014 728.9119,-22.3521"/>
<polygon fill="#191970" stroke="#191970" points="729.9685,-19.0061 719.3823,-18.5789 727.3915,-25.5145 729.9685,-19.0061"/>
</g>
<!-- Node16 -->
<g id="node17" class="node">
<title>Node16</title>
<polygon fill="none" stroke="#bfbfbf" points="412.0122,-.5 412.0122,-18.5 465.8149,-18.5 465.8149,-.5 412.0122,-.5"/>
<text text-anchor="middle" x="438.9136" y="-6.5" font-family="Helvetica,sans-Serif" font-size="10.00" fill="#000000">QQueue</text>
</g>
<!-- Node12&#45;&gt;Node16 -->
<g id="edge23" class="edge">
<title>Node12&#45;&gt;Node16</title>
<path fill="none" stroke="#191970" d="M476.7717,-110.2687C467.4289,-101.8481 454.5767,-88.5324 447.9136,-74 441.4261,-59.8506 439.3134,-42.2658 438.7464,-29.0328"/>
<polygon fill="#191970" stroke="#191970" points="442.2408,-28.66 438.5749,-18.7197 435.2418,-28.7765 442.2408,-28.66"/>
</g>
<!-- Node17 -->
<g id="node18" class="node">
<title>Node17</title>
<g id="a_node18"><a xlink:href="userinfo_8h.html" target="_top" xlink:title="userinfo.h">
<polygon fill="none" stroke="#000000" points="340.9556,-55.5 340.9556,-73.5 400.8716,-73.5 400.8716,-55.5 340.9556,-55.5"/>
<text text-anchor="middle" x="370.9136" y="-61.5" font-family="Helvetica,sans-Serif" font-size="10.00" fill="#000000">userinfo.h</text>
</a>
</g>
</g>
<!-- Node12&#45;&gt;Node17 -->
<g id="edge19" class="edge">
<title>Node12&#45;&gt;Node17</title>
<path fill="none" stroke="#191970" d="M468.5934,-110.4179C449.7943,-101.5807 421.005,-88.0473 399.5447,-77.9591"/>
<polygon fill="#191970" stroke="#191970" points="400.8014,-74.6824 390.2624,-73.5956 397.8234,-81.0174 400.8014,-74.6824"/>
</g>
<!-- Node19 -->
<g id="node20" class="node">
<title>Node19</title>
<polygon fill="none" stroke="#bfbfbf" points="536.7979,-55.5 536.7979,-73.5 585.0293,-73.5 585.0293,-55.5 536.7979,-55.5"/>
<text text-anchor="middle" x="560.9136" y="-61.5" font-family="Helvetica,sans-Serif" font-size="10.00" fill="#000000">cassert</text>
</g>
<!-- Node12&#45;&gt;Node19 -->
<g id="edge25" class="edge">
<title>Node12&#45;&gt;Node19</title>
<path fill="none" stroke="#191970" d="M499.968,-110.4179C510.9969,-102.1084 527.5368,-89.6469 540.6042,-79.8015"/>
<polygon fill="#191970" stroke="#191970" points="542.7165,-82.5924 548.5972,-73.7795 538.5042,-77.0016 542.7165,-82.5924"/>
</g>
<!-- Node20 -->
<g id="node21" class="node">
<title>Node20</title>
<polygon fill="none" stroke="#bfbfbf" points="603.187,-55.5 603.187,-73.5 638.6401,-73.5 638.6401,-55.5 603.187,-55.5"/>
<text text-anchor="middle" x="620.9136" y="-61.5" font-family="Helvetica,sans-Serif" font-size="10.00" fill="#000000">map</text>
</g>
<!-- Node12&#45;&gt;Node20 -->
<g id="edge26" class="edge">
<title>Node12&#45;&gt;Node20</title>
<path fill="none" stroke="#191970" d="M509.8758,-110.4179C532.8314,-100.9249 568.8913,-86.013 593.652,-75.7736"/>
<polygon fill="#191970" stroke="#191970" points="595.2757,-78.8897 603.1792,-71.8338 592.6006,-72.421 595.2757,-78.8897"/>
</g>
<!-- Node21 -->
<g id="node22" class="node">
<title>Node21</title>
<polygon fill="none" stroke="#bfbfbf" points="656.6133,-55.5 656.6133,-73.5 763.2139,-73.5 763.2139,-55.5 656.6133,-55.5"/>
<text text-anchor="middle" x="709.9136" y="-61.5" font-family="Helvetica,sans-Serif" font-size="10.00" fill="#000000">QRandomGenerator</text>
</g>
<!-- Node12&#45;&gt;Node21 -->
<g id="edge27" class="edge">
<title>Node12&#45;&gt;Node21</title>
<path fill="none" stroke="#191970" d="M510.9969,-113.5346C515.6047,-112.3547 520.4112,-111.1316 524.9136,-110 571.6803,-98.2454 625.1813,-85.1222 662.578,-76.0016"/>
<polygon fill="#191970" stroke="#191970" points="663.7929,-79.3081 672.6798,-73.5397 662.1354,-72.5071 663.7929,-79.3081"/>
</g>
<!-- Node14 -->
<g id="node15" class="node">
<title>Node14</title>
<polygon fill="none" stroke="#bfbfbf" points="483.5737,-.5 483.5737,-18.5 536.2534,-18.5 536.2534,-.5 483.5737,-.5"/>
<text text-anchor="middle" x="509.9136" y="-6.5" font-family="Helvetica,sans-Serif" font-size="10.00" fill="#000000">QObject</text>
</g>
<!-- Node13&#45;&gt;Node14 -->
<g id="edge16" class="edge">
<title>Node13&#45;&gt;Node14</title>
<path fill="none" stroke="#191970" d="M491.5464,-55.4179C494.4903,-48.0581 498.7372,-37.441 502.4058,-28.2695"/>
<polygon fill="#191970" stroke="#191970" points="505.7375,-29.3641 506.2018,-18.7795 499.2382,-26.7643 505.7375,-29.3641"/>
</g>
<!-- Node13&#45;&gt;Node15 -->
<g id="edge17" class="edge">
<title>Node13&#45;&gt;Node15</title>
<path fill="none" stroke="#191970" d="M519.3415,-56.0268C554.9426,-46.4285 613.0412,-30.7646 651.8646,-20.2975"/>
<polygon fill="#191970" stroke="#191970" points="653.0368,-23.6065 661.781,-17.624 651.2146,-16.8479 653.0368,-23.6065"/>
</g>
<!-- Node13&#45;&gt;Node16 -->
<g id="edge18" class="edge">
<title>Node13&#45;&gt;Node16</title>
<path fill="none" stroke="#191970" d="M479.8222,-55.4179C472.8423,-47.5833 462.5739,-36.0575 454.0712,-26.5137"/>
<polygon fill="#191970" stroke="#191970" points="456.4461,-23.9178 447.1807,-18.7795 451.2195,-28.5743 456.4461,-23.9178"/>
</g>
<!-- Node17&#45;&gt;Node7 -->
<g id="edge21" class="edge">
<title>Node17&#45;&gt;Node7</title>
<path fill="none" stroke="#191970" d="M356.7124,-55.4179C343.3922,-46.8992 323.2486,-34.0166 307.6844,-24.0627"/>
<polygon fill="#191970" stroke="#191970" points="309.4461,-21.0348 299.1358,-18.5956 305.6746,-26.932 309.4461,-21.0348"/>
</g>
<!-- Node18 -->
<g id="node19" class="node">
<title>Node18</title>
<polygon fill="none" stroke="#bfbfbf" points="327.5352,-.5 327.5352,-18.5 394.292,-18.5 394.292,-.5 327.5352,-.5"/>
<text text-anchor="middle" x="360.9136" y="-6.5" font-family="Helvetica,sans-Serif" font-size="10.00" fill="#000000">QDateTime</text>
</g>
<!-- Node17&#45;&gt;Node18 -->
<g id="edge20" class="edge">
<title>Node17&#45;&gt;Node18</title>
<path fill="none" stroke="#191970" d="M369.2623,-55.4179C367.9529,-48.2164 366.0765,-37.8962 364.4342,-28.8632"/>
<polygon fill="#191970" stroke="#191970" points="367.8332,-27.992 362.6007,-18.7795 360.9461,-29.2443 367.8332,-27.992"/>
</g>
<!-- Node22&#45;&gt;Node10 -->
<g id="edge29" class="edge">
<title>Node22&#45;&gt;Node10</title>
<path fill="none" stroke="#191970" d="M845.9136,-110.4179C845.9136,-103.2164 845.9136,-92.8962 845.9136,-83.8632"/>
<polygon fill="#191970" stroke="#191970" points="849.4137,-83.7794 845.9136,-73.7795 842.4137,-83.7795 849.4137,-83.7794"/>
</g>
<!-- Node23 -->
<g id="node24" class="node">
<title>Node23</title>
<polygon fill="none" stroke="#bfbfbf" points="891.0098,-55.5 891.0098,-73.5 934.8174,-73.5 934.8174,-55.5 891.0098,-55.5"/>
<text text-anchor="middle" x="912.9136" y="-61.5" font-family="Helvetica,sans-Serif" font-size="10.00" fill="#000000">queue</text>
</g>
<!-- Node22&#45;&gt;Node23 -->
<g id="edge30" class="edge">
<title>Node22&#45;&gt;Node23</title>
<path fill="none" stroke="#191970" d="M856.9773,-110.4179C866.9069,-102.2667 881.7036,-90.1201 893.5848,-80.3669"/>
<polygon fill="#191970" stroke="#191970" points="896.1009,-82.8297 901.6095,-73.7795 891.6595,-77.4192 896.1009,-82.8297"/>
</g>
<!-- Node24&#45;&gt;Node12 -->
<g id="edge33" class="edge">
<title>Node24&#45;&gt;Node12</title>
<path fill="none" stroke="#191970" d="M481.2346,-165.4179C482.2821,-158.2164 483.7832,-147.8962 485.0971,-138.8632"/>
<polygon fill="#191970" stroke="#191970" points="488.5879,-139.1791 486.5638,-128.7795 481.6608,-138.1715 488.5879,-139.1791"/>
</g>
<!-- Node32 -->
<g id="node33" class="node">
<title>Node32</title>
<polygon fill="none" stroke="#bfbfbf" points="3155.0459,-165.5 3155.0459,-183.5 3244.7813,-183.5 3244.7813,-165.5 3155.0459,-165.5"/>
<text text-anchor="middle" x="3199.9136" y="-171.5" font-family="Helvetica,sans-Serif" font-size="10.00" fill="#000000">QtCore/QVariant</text>
</g>
<!-- Node31&#45;&gt;Node32 -->
<g id="edge41" class="edge">
<title>Node31&#45;&gt;Node32</title>
<path fill="none" stroke="#191970" d="M2249.8221,-220.9756C2252.8939,-220.6131 2255.9406,-220.2836 2258.9136,-220 2648.3209,-182.8494 2751.8744,-225.5332 3144.6754,-183.9765"/>
<polygon fill="#191970" stroke="#191970" points="3145.3254,-187.427 3154.8964,-182.8831 3144.5808,-180.4667 3145.3254,-187.427"/>
</g>
<!-- Node33 -->
<g id="node34" class="node">
<title>Node33</title>
<polygon fill="none" stroke="#bfbfbf" points="3262.3989,-165.5 3262.3989,-183.5 3363.4282,-183.5 3363.4282,-165.5 3262.3989,-165.5"/>
<text text-anchor="middle" x="3312.9136" y="-171.5" font-family="Helvetica,sans-Serif" font-size="10.00" fill="#000000">QtWidgets/QAction</text>
</g>
<!-- Node31&#45;&gt;Node33 -->
<g id="edge42" class="edge">
<title>Node31&#45;&gt;Node33</title>
<path fill="none" stroke="#191970" d="M2249.8207,-220.9599C2252.8928,-220.6014 2255.9399,-220.2771 2258.9136,-220 2696.1817,-179.2536 2811.7768,-226.5291 3251.9884,-184.0744"/>
<polygon fill="#191970" stroke="#191970" points="3252.5033,-187.5409 3262.1166,-183.0874 3251.8242,-180.5739 3252.5033,-187.5409"/>
</g>
<!-- Node34 -->
<g id="node35" class="node">
<title>Node34</title>
<polygon fill="none" stroke="#bfbfbf" points="3381.835,-165.5 3381.835,-183.5 3503.9922,-183.5 3503.9922,-165.5 3381.835,-165.5"/>
<text text-anchor="middle" x="3442.9136" y="-171.5" font-family="Helvetica,sans-Serif" font-size="10.00" fill="#000000">QtWidgets/QApplication</text>
</g>
<!-- Node31&#45;&gt;Node34 -->
<g id="edge43" class="edge">
<title>Node31&#45;&gt;Node34</title>
<path fill="none" stroke="#191970" d="M2249.8194,-220.9461C2252.8918,-220.5911 2255.9394,-220.2714 2258.9136,-220 2748.8618,-175.2984 2877.52,-224.6792 3371.2456,-184.0502"/>
<polygon fill="#191970" stroke="#191970" points="3371.817,-187.5149 3381.4927,-183.1984 3371.2371,-180.5389 3371.817,-187.5149"/>
</g>
<!-- Node35 -->
<g id="node36" class="node">
<title>Node35</title>
<polygon fill="none" stroke="#bfbfbf" points="3521.9434,-165.5 3521.9434,-183.5 3651.8838,-183.5 3651.8838,-165.5 3521.9434,-165.5"/>
<text text-anchor="middle" x="3586.9136" y="-171.5" font-family="Helvetica,sans-Serif" font-size="10.00" fill="#000000">QtWidgets/QButtonGroup</text>
</g>
<!-- Node31&#45;&gt;Node35 -->
<g id="edge44" class="edge">
<title>Node31&#45;&gt;Node35</title>
<path fill="none" stroke="#191970" d="M2249.8182,-220.9333C2252.891,-220.5816 2255.9389,-220.266 2258.9136,-220 2810.8711,-170.6438 2955.2957,-226.8571 3511.2901,-184.0437"/>
<polygon fill="#191970" stroke="#191970" points="3511.8813,-187.5084 3521.5799,-183.2437 3511.3387,-180.5294 3511.8813,-187.5084"/>
</g>
<!-- Node36 -->
<g id="node37" class="node">
<title>Node36</title>
<polygon fill="none" stroke="#bfbfbf" points="1086.5073,-165.5 1086.5073,-183.5 1205.3198,-183.5 1205.3198,-165.5 1086.5073,-165.5"/>
<text text-anchor="middle" x="1145.9136" y="-171.5" font-family="Helvetica,sans-Serif" font-size="10.00" fill="#000000">QtWidgets/QCheckBox</text>
</g>
<!-- Node31&#45;&gt;Node36 -->
<g id="edge45" class="edge">
<title>Node31&#45;&gt;Node36</title>
<path fill="none" stroke="#191970" d="M2142.0939,-228.7126C1995.3046,-226.1996 1575.5196,-216.5752 1215.4411,-183.9522"/>
<polygon fill="#191970" stroke="#191970" points="1215.6185,-180.4539 1205.3415,-183.0296 1214.9817,-187.4249 1215.6185,-180.4539"/>
</g>
<!-- Node37 -->
<g id="node38" class="node">
<title>Node37</title>
<polygon fill="none" stroke="#bfbfbf" points="1223.5615,-165.5 1223.5615,-183.5 1346.2656,-183.5 1346.2656,-165.5 1223.5615,-165.5"/>
<text text-anchor="middle" x="1284.9136" y="-171.5" font-family="Helvetica,sans-Serif" font-size="10.00" fill="#000000">QtWidgets/QComboBox</text>
</g>
<!-- Node31&#45;&gt;Node37 -->
<g id="edge46" class="edge">
<title>Node31&#45;&gt;Node37</title>
<path fill="none" stroke="#191970" d="M2142.1791,-228.0996C2010.2188,-224.3366 1659.5044,-212.3758 1356.6421,-184.0925"/>
<polygon fill="#191970" stroke="#191970" points="1356.6254,-180.5756 1346.3412,-183.1225 1355.969,-187.5447 1356.6254,-180.5756"/>
</g>
<!-- Node38 -->
<g id="node39" class="node">
<title>Node38</title>
<polygon fill="none" stroke="#bfbfbf" points="1364.1206,-165.5 1364.1206,-183.5 1465.7065,-183.5 1465.7065,-165.5 1364.1206,-165.5"/>
<text text-anchor="middle" x="1414.9136" y="-171.5" font-family="Helvetica,sans-Serif" font-size="10.00" fill="#000000">QtWidgets/QDialog</text>
</g>
<!-- Node31&#45;&gt;Node38 -->
<g id="edge47" class="edge">
<title>Node31&#45;&gt;Node38</title>
<path fill="none" stroke="#191970" d="M2141.948,-227.8289C2023.3942,-223.7832 1731.1467,-211.7633 1476.133,-184.0322"/>
<polygon fill="#191970" stroke="#191970" points="1476.255,-180.5246 1465.9327,-182.9123 1475.491,-187.4828 1476.255,-180.5246"/>
</g>
<!-- Node39 -->
<g id="node40" class="node">
<title>Node39</title>
<polygon fill="none" stroke="#bfbfbf" points="1484.0493,-165.5 1484.0493,-183.5 1631.7778,-183.5 1631.7778,-165.5 1484.0493,-165.5"/>
<text text-anchor="middle" x="1557.9136" y="-171.5" font-family="Helvetica,sans-Serif" font-size="10.00" fill="#000000">QtWidgets/QDialogButtonBox</text>
</g>
<!-- Node31&#45;&gt;Node39 -->
<g id="edge48" class="edge">
<title>Node31&#45;&gt;Node39</title>
<path fill="none" stroke="#191970" d="M2142.2853,-225.6797C2044.9204,-218.6178 1832.3282,-202.6205 1642.291,-184.1084"/>
<polygon fill="#191970" stroke="#191970" points="1642.4061,-180.6031 1632.1127,-183.1124 1641.7242,-187.5698 1642.4061,-180.6031"/>
</g>
<!-- Node40 -->
<g id="node41" class="node">
<title>Node40</title>
<polygon fill="none" stroke="#bfbfbf" points="1649.6182,-165.5 1649.6182,-183.5 1776.209,-183.5 1776.209,-165.5 1649.6182,-165.5"/>
<text text-anchor="middle" x="1712.9136" y="-171.5" font-family="Helvetica,sans-Serif" font-size="10.00" fill="#000000">QtWidgets/QFormLayout</text>
</g>
<!-- Node31&#45;&gt;Node40 -->
<g id="edge49" class="edge">
<title>Node31&#45;&gt;Node40</title>
<path fill="none" stroke="#191970" d="M2142.0143,-223.8965C2065.3523,-215.8461 1920.1492,-200.3015 1786.5171,-184.1759"/>
<polygon fill="#191970" stroke="#191970" points="1786.8558,-180.6914 1776.5077,-182.9643 1786.0146,-187.6407 1786.8558,-180.6914"/>
</g>
<!-- Node41 -->
<g id="node42" class="node">
<title>Node41</title>
<polygon fill="none" stroke="#bfbfbf" points="1794.0566,-165.5 1794.0566,-183.5 1921.7705,-183.5 1921.7705,-165.5 1794.0566,-165.5"/>
<text text-anchor="middle" x="1857.9136" y="-171.5" font-family="Helvetica,sans-Serif" font-size="10.00" fill="#000000">QtWidgets/QHBoxLayout</text>
</g>
<!-- Node31&#45;&gt;Node41 -->
<g id="edge50" class="edge">
<title>Node31&#45;&gt;Node41</title>
<path fill="none" stroke="#191970" d="M2141.9827,-220.7243C2082.5391,-211.0515 1986.9245,-195.4929 1923.2686,-185.1347"/>
<polygon fill="#191970" stroke="#191970" points="1923.7694,-181.6702 1913.3371,-183.5186 1922.6451,-188.5794 1923.7694,-181.6702"/>
</g>
<!-- Node42 -->
<g id="node43" class="node">
<title>Node42</title>
<polygon fill="none" stroke="#bfbfbf" points="1940.147,-165.5 1940.147,-183.5 2067.6802,-183.5 2067.6802,-165.5 1940.147,-165.5"/>
<text text-anchor="middle" x="2003.9136" y="-171.5" font-family="Helvetica,sans-Serif" font-size="10.00" fill="#000000">QtWidgets/QHeaderView</text>
</g>
<!-- Node31&#45;&gt;Node42 -->
<g id="edge51" class="edge">
<title>Node31&#45;&gt;Node42</title>
<path fill="none" stroke="#191970" d="M2164.2087,-220.4179C2131.594,-211.0751 2080.6557,-196.4834 2044.9771,-186.263"/>
<polygon fill="#191970" stroke="#191970" points="2045.9237,-182.8934 2035.3465,-183.5042 2043.9959,-189.6228 2045.9237,-182.8934"/>
</g>
<!-- Node43 -->
<g id="node44" class="node">
<title>Node43</title>
<polygon fill="none" stroke="#bfbfbf" points="2086.0615,-165.5 2086.0615,-183.5 2183.7656,-183.5 2183.7656,-165.5 2086.0615,-165.5"/>
<text text-anchor="middle" x="2134.9136" y="-171.5" font-family="Helvetica,sans-Serif" font-size="10.00" fill="#000000">QtWidgets/QLabel</text>
</g>
<!-- Node31&#45;&gt;Node43 -->
<g id="edge52" class="edge">
<title>Node31&#45;&gt;Node43</title>
<path fill="none" stroke="#191970" d="M2185.8407,-220.4179C2176.8881,-212.3458 2163.5898,-200.3556 2152.8273,-190.6517"/>
<polygon fill="#191970" stroke="#191970" points="2154.976,-187.8764 2145.2053,-183.7795 2150.2885,-193.0753 2154.976,-187.8764"/>
</g>
<!-- Node44 -->
<g id="node45" class="node">
<title>Node44</title>
<polygon fill="none" stroke="#bfbfbf" points="2202.2266,-165.5 2202.2266,-183.5 2311.6006,-183.5 2311.6006,-165.5 2202.2266,-165.5"/>
<text text-anchor="middle" x="2256.9136" y="-171.5" font-family="Helvetica,sans-Serif" font-size="10.00" fill="#000000">QtWidgets/QLineEdit</text>
</g>
<!-- Node31&#45;&gt;Node44 -->
<g id="edge53" class="edge">
<title>Node31&#45;&gt;Node44</title>
<path fill="none" stroke="#191970" d="M2205.9865,-220.4179C2214.9391,-212.3458 2228.2373,-200.3556 2238.9999,-190.6517"/>
<polygon fill="#191970" stroke="#191970" points="2241.5386,-193.0753 2246.6218,-183.7795 2236.8512,-187.8764 2241.5386,-193.0753"/>
</g>
<!-- Node45 -->
<g id="node46" class="node">
<title>Node45</title>
<polygon fill="none" stroke="#bfbfbf" points="2329.3916,-165.5 2329.3916,-183.5 2460.4355,-183.5 2460.4355,-165.5 2329.3916,-165.5"/>
<text text-anchor="middle" x="2394.9136" y="-171.5" font-family="Helvetica,sans-Serif" font-size="10.00" fill="#000000">QtWidgets/QPlainTextEdit</text>
</g>
<!-- Node31&#45;&gt;Node45 -->
<g id="edge54" class="edge">
<title>Node31&#45;&gt;Node45</title>
<path fill="none" stroke="#191970" d="M2228.7744,-220.4179C2262.5781,-211.0751 2315.3736,-196.4834 2352.353,-186.263"/>
<polygon fill="#191970" stroke="#191970" points="2353.6285,-189.5418 2362.3347,-183.5042 2351.7637,-182.7947 2353.6285,-189.5418"/>
</g>
<!-- Node46 -->
<g id="node47" class="node">
<title>Node46</title>
<polygon fill="none" stroke="#bfbfbf" points="2478.729,-165.5 2478.729,-183.5 2603.0981,-183.5 2603.0981,-165.5 2478.729,-165.5"/>
<text text-anchor="middle" x="2540.9136" y="-171.5" font-family="Helvetica,sans-Serif" font-size="10.00" fill="#000000">QtWidgets/QSpacerItem</text>
</g>
<!-- Node31&#45;&gt;Node46 -->
<g id="edge55" class="edge">
<title>Node31&#45;&gt;Node46</title>
<path fill="none" stroke="#191970" d="M2249.8198,-220.9063C2310.3529,-211.256 2408.6498,-195.5855 2474.0334,-185.1621"/>
<polygon fill="#191970" stroke="#191970" points="2474.9094,-188.5667 2484.2337,-183.5359 2473.8073,-181.654 2474.9094,-188.5667"/>
</g>
<!-- Node47 -->
<g id="node48" class="node">
<title>Node47</title>
<polygon fill="none" stroke="#bfbfbf" points="2620.6724,-165.5 2620.6724,-183.5 2731.1548,-183.5 2731.1548,-165.5 2620.6724,-165.5"/>
<text text-anchor="middle" x="2675.9136" y="-171.5" font-family="Helvetica,sans-Serif" font-size="10.00" fill="#000000">QtWidgets/QSpinBox</text>
</g>
<!-- Node31&#45;&gt;Node47 -->
<g id="edge56" class="edge">
<title>Node31&#45;&gt;Node47</title>
<path fill="none" stroke="#191970" d="M2249.5055,-221.2397C2252.6867,-220.805 2255.8409,-220.3881 2258.9136,-220 2412.1643,-200.6422 2453.7395,-203.4552 2610.436,-184.137"/>
<polygon fill="#191970" stroke="#191970" points="2610.9402,-187.6014 2620.4319,-182.8941 2610.0764,-180.6549 2610.9402,-187.6014"/>
</g>
<!-- Node48 -->
<g id="node49" class="node">
<title>Node48</title>
<polygon fill="none" stroke="#bfbfbf" points="2748.6675,-165.5 2748.6675,-183.5 2869.1597,-183.5 2869.1597,-165.5 2748.6675,-165.5"/>
<text text-anchor="middle" x="2808.9136" y="-171.5" font-family="Helvetica,sans-Serif" font-size="10.00" fill="#000000">QtWidgets/QToolButton</text>
</g>
<!-- Node31&#45;&gt;Node48 -->
<g id="edge57" class="edge">
<title>Node31&#45;&gt;Node48</title>
<path fill="none" stroke="#191970" d="M2249.8348,-221.0973C2252.9033,-220.7038 2255.9458,-220.3343 2258.9136,-220 2468.7171,-196.3639 2525.0407,-206.3169 2738.4071,-184.1014"/>
<polygon fill="#191970" stroke="#191970" points="2738.7788,-187.5817 2748.3575,-183.0541 2738.046,-180.6202 2738.7788,-187.5817"/>
</g>
<!-- Node49 -->
<g id="node50" class="node">
<title>Node49</title>
<polygon fill="none" stroke="#bfbfbf" points="2887.3325,-165.5 2887.3325,-183.5 3014.4946,-183.5 3014.4946,-165.5 2887.3325,-165.5"/>
<text text-anchor="middle" x="2950.9136" y="-171.5" font-family="Helvetica,sans-Serif" font-size="10.00" fill="#000000">QtWidgets/QVBoxLayout</text>
</g>
<!-- Node31&#45;&gt;Node49 -->
<g id="edge58" class="edge">
<title>Node31&#45;&gt;Node49</title>
<path fill="none" stroke="#191970" d="M2249.8284,-221.0381C2252.8985,-220.6597 2255.9432,-220.3097 2258.9136,-220 2529.6582,-191.7736 2601.7952,-209.3562 2876.9477,-184.0169"/>
<polygon fill="#191970" stroke="#191970" points="2877.6102,-187.4705 2887.2423,-183.0577 2876.9607,-180.5006 2877.6102,-187.4705"/>
</g>
<!-- Node50 -->
<g id="node51" class="node">
<title>Node50</title>
<polygon fill="none" stroke="#bfbfbf" points="3032.7339,-165.5 3032.7339,-183.5 3137.0933,-183.5 3137.0933,-165.5 3032.7339,-165.5"/>
<text text-anchor="middle" x="3084.9136" y="-171.5" font-family="Helvetica,sans-Serif" font-size="10.00" fill="#000000">QtWidgets/QWidget</text>
</g>
<!-- Node31&#45;&gt;Node50 -->
<g id="edge59" class="edge">
<title>Node31&#45;&gt;Node50</title>
<path fill="none" stroke="#191970" d="M2249.8244,-220.9987C2252.8955,-220.6303 2255.9415,-220.2932 2258.9136,-220 2594.3372,-186.906 2683.5285,-217.6263 3022.6122,-184.0197"/>
<polygon fill="#191970" stroke="#191970" points="3023.1168,-187.4867 3032.7177,-183.0065 3022.4184,-180.5216 3023.1168,-187.4867"/>
</g>
</g>
</svg>
        <g id="navigator" transform="translate(0 0)" fill="#404254">
                <rect fill="#f2f5e9" fill-opacity="0.5" stroke="#606060" stroke-width=".5" x="0" y="0" width="60" height="60"/>
                <use id="zoomplus" xlink:href="#zoomPlus" x="17" y="9" onmousedown="handleZoom(evt,'in')"/>
                <use id="zoomminus" xlink:href="#zoomMin" x="42" y="9" onmousedown="handleZoom(evt,'out')"/>
                <use id="reset" xlink:href="#resetDef" x="30" y="36" onmousedown="handleReset()"/>
                <g id="arrowUp" xlink:href="#dirArrow" transform="translate(30 24)" onmousedown="handlePan(0,-1)">
                  <use xlink:href="#rim" fill="#404040">
                        <set attributeName="fill" to="#808080" begin="arrowUp.mouseover" end="arrowUp.mouseout"/>
                  </use>
                  <path fill="none" stroke="white" stroke-width="1.5" d="M0,-3.0v7 M-2.5,-0.5L0,-3.0L2.5,-0.5"/>
                </g>
                <g id="arrowRight" xlink:href="#dirArrow" transform="rotate(90) translate(36 -43)" onmousedown="handlePan(1,0)">
                  <use xlink:href="#rim" fill="#404040">
                        <set attributeName="fill" to="#808080" begin="arrowRight.mouseover" end="arrowRight.mouseout"/>
                  </use>
                  <path fill="none" stroke="white" stroke-width="1.5" d="M0,-3.0v7 M-2.5,-0.5L0,-3.0L2.5,-0.5"/>
                </g>
                <g id="arrowDown" xlink:href="#dirArrow" transform="rotate(180) translate(-30 -48)" onmousedown="handlePan(0,1)">
                  <use xlink:href="#rim" fill="#404040">
                        <set attributeName="fill" to="#808080" begin="arrowDown.mouseover" end="arrowDown.mouseout"/>
                  </use>
                  <path fill="none" stroke="white" stroke-width="1.5" d="M0,-3.0v7 M-2.5,-0.5L0,-3.0L2.5,-0.5"/>
                </g>
                <g id="arrowLeft" xlink:href="#dirArrow" transform="rotate(270) translate(-36 17)" onmousedown="handlePan(-1,0)">
                  <use xlink:href="#rim" fill="#404040">
                        <set attributeName="fill" to="#808080" begin="arrowLeft.mouseover" end="arrowLeft.mouseout"/>
                  </use>
                  <path fill="none" stroke="white" stroke-width="1.5" d="M0,-3.0v7 M-2.5,-0.5L0,-3.0L2.5,-0.5"/>
                </g>
        </g>
        <svg viewBox="0 0 15 15" width="100%" height="30px" preserveAspectRatio="xMaxYMin meet">
         <g id="arrow_out" transform="scale(0.3 0.3)">
          <a xlink:href="passworddialog_8cpp__incl_org.svg" target="_base">
           <rect id="button" ry="5" rx="5" y="6" x="6" height="38" width="38"
                fill="#f2f5e9" fill-opacity="0.5" stroke="#606060" stroke-width="1.0"/>
           <path id="arrow"
             d="M 11.500037,31.436501 C 11.940474,20.09759 22.043105,11.32322 32.158766,21.979434 L 37.068811,17.246167 C 37.068811,17.246167 37.088388,32 37.088388,32 L 22.160133,31.978069 C 22.160133,31.978069 26.997745,27.140456 26.997745,27.140456 C 18.528582,18.264221 13.291696,25.230495 11.500037,31.436501 z"
             style="fill:#404040;"/>
          </a>
         </g>
        </svg>
</svg>
