<?xml version="1.0" encoding="UTF-8" standalone="no"?>
<!DOCTYPE svg PUBLIC "-//W3C//DTD SVG 1.1//EN"
 "http://www.w3.org/Graphics/SVG/1.1/DTD/svg11.dtd">
<!-- Generated by graphviz version 2.44.1 (20200629.0846)
 -->
<!-- Title: src/passwordconfiguration.h Pages: 1 -->
<svg width="1508pt" height="140pt"
 viewBox="0.00 0.00 1507.50 140.00" xmlns="http://www.w3.org/2000/svg" xmlns:xlink="http://www.w3.org/1999/xlink">
<g id="graph0" class="graph" transform="scale(1 1) rotate(0) translate(4 136)">
<title>src/passwordconfiguration.h</title>
<!-- Node1 -->
<g id="node1" class="node">
<title>Node1</title>
<g id="a_node1"><a xlink:title=" ">
<polygon fill="#bfbfbf" stroke="black" points="241.5,-112.5 241.5,-131.5 380.5,-131.5 380.5,-112.5 241.5,-112.5"/>
<text text-anchor="middle" x="311" y="-119.5" font-family="Helvetica,sans-Serif" font-size="10.00">src/passwordconfiguration.h</text>
</a>
</g>
</g>
<!-- Node2 -->
<g id="node2" class="node">
<title>Node2</title>
<g id="a_node2"><a xlink:href="configdialog_8h.html" target="_top" xlink:title=" ">
<polygon fill="none" stroke="black" points="264.5,-56.5 264.5,-75.5 357.5,-75.5 357.5,-56.5 264.5,-56.5"/>
<text text-anchor="middle" x="311" y="-63.5" font-family="Helvetica,sans-Serif" font-size="10.00">src/configdialog.h</text>
</a>
</g>
</g>
<!-- Node1&#45;&gt;Node2 -->
<g id="edge1" class="edge">
<title>Node1&#45;&gt;Node2</title>
<path fill="none" stroke="midnightblue" d="M311,-101.8C311,-92.91 311,-82.78 311,-75.75"/>
<polygon fill="midnightblue" stroke="midnightblue" points="307.5,-102.08 311,-112.08 314.5,-102.08 307.5,-102.08"/>
</g>
<!-- Node6 -->
<g id="node6" class="node">
<title>Node6</title>
<g id="a_node6"><a xlink:href="passworddialog_8cpp.html" target="_top" xlink:title=" ">
<polygon fill="none" stroke="black" points="383.5,-0.5 383.5,-19.5 502.5,-19.5 502.5,-0.5 383.5,-0.5"/>
<text text-anchor="middle" x="443" y="-7.5" font-family="Helvetica,sans-Serif" font-size="10.00">src/passworddialog.cpp</text>
</a>
</g>
</g>
<!-- Node1&#45;&gt;Node6 -->
<g id="edge5" class="edge">
<title>Node1&#45;&gt;Node6</title>
<path fill="none" stroke="midnightblue" d="M329.83,-106.11C340.75,-97.41 354.73,-86.18 367,-76 391.06,-56.05 418.86,-32.02 433.24,-19.51"/>
<polygon fill="midnightblue" stroke="midnightblue" points="327.47,-103.51 321.81,-112.47 331.82,-108.99 327.47,-103.51"/>
</g>
<!-- Node7 -->
<g id="node7" class="node">
<title>Node7</title>
<g id="a_node7"><a xlink:href="passworddialog_8h.html" target="_top" xlink:title=" ">
<polygon fill="none" stroke="black" points="134.5,-56.5 134.5,-75.5 243.5,-75.5 243.5,-56.5 134.5,-56.5"/>
<text text-anchor="middle" x="189" y="-63.5" font-family="Helvetica,sans-Serif" font-size="10.00">src/passworddialog.h</text>
</a>
</g>
</g>
<!-- Node1&#45;&gt;Node7 -->
<g id="edge6" class="edge">
<title>Node1&#45;&gt;Node7</title>
<path fill="none" stroke="midnightblue" d="M282.46,-108.37C259.61,-98.26 228.19,-84.35 208.24,-75.52"/>
<polygon fill="midnightblue" stroke="midnightblue" points="281.11,-111.6 291.67,-112.44 283.94,-105.2 281.11,-111.6"/>
</g>
<!-- Node8 -->
<g id="node8" class="node">
<title>Node8</title>
<g id="a_node8"><a xlink:href="tst__ui_8cpp.html" target="_top" xlink:title=" ">
<polygon fill="none" stroke="black" points="0,-0.5 0,-19.5 116,-19.5 116,-0.5 0,-0.5"/>
<text text-anchor="middle" x="58" y="-7.5" font-family="Helvetica,sans-Serif" font-size="10.00">tests/auto/ui/tst_ui.cpp</text>
</a>
</g>
</g>
<!-- Node1&#45;&gt;Node8 -->
<g id="edge22" class="edge">
<title>Node1&#45;&gt;Node8</title>
<path fill="none" stroke="midnightblue" d="M231.12,-111.27C196.9,-104.72 157.44,-93.88 125,-76 98.6,-61.45 75.19,-33.73 64.37,-19.66"/>
<polygon fill="midnightblue" stroke="midnightblue" points="230.62,-114.73 241.09,-113.08 231.88,-107.85 230.62,-114.73"/>
</g>
<!-- Node9 -->
<g id="node9" class="node">
<title>Node9</title>
<g id="a_node9"><a xlink:href="qtpasssettings_8h.html" target="_top" xlink:title=" ">
<polygon fill="none" stroke="black" points="778.5,-56.5 778.5,-75.5 883.5,-75.5 883.5,-56.5 778.5,-56.5"/>
<text text-anchor="middle" x="831" y="-63.5" font-family="Helvetica,sans-Serif" font-size="10.00">src/qtpasssettings.h</text>
</a>
</g>
</g>
<!-- Node1&#45;&gt;Node9 -->
<g id="edge10" class="edge">
<title>Node1&#45;&gt;Node9</title>
<path fill="none" stroke="midnightblue" d="M390.74,-112.72C498.3,-101.55 686.91,-81.96 778.34,-72.47"/>
<polygon fill="midnightblue" stroke="midnightblue" points="390.17,-109.26 380.59,-113.77 390.9,-116.22 390.17,-109.26"/>
</g>
<!-- Node3 -->
<g id="node3" class="node">
<title>Node3</title>
<g id="a_node3"><a xlink:href="configdialog_8cpp.html" target="_top" xlink:title=" ">
<polygon fill="none" stroke="black" points="521,-0.5 521,-19.5 625,-19.5 625,-0.5 521,-0.5"/>
<text text-anchor="middle" x="573" y="-7.5" font-family="Helvetica,sans-Serif" font-size="10.00">src/configdialog.cpp</text>
</a>
</g>
</g>
<!-- Node2&#45;&gt;Node3 -->
<g id="edge2" class="edge">
<title>Node2&#45;&gt;Node3</title>
<path fill="none" stroke="midnightblue" d="M362.38,-54.41C411.9,-44.2 485.86,-28.96 531.68,-19.52"/>
<polygon fill="midnightblue" stroke="midnightblue" points="361.6,-51 352.51,-56.44 363.02,-57.85 361.6,-51"/>
</g>
<!-- Node4 -->
<g id="node4" class="node">
<title>Node4</title>
<g id="a_node4"><a xlink:href="keygendialog_8cpp.html" target="_top" xlink:title=" ">
<polygon fill="none" stroke="black" points="256.5,-0.5 256.5,-19.5 365.5,-19.5 365.5,-0.5 256.5,-0.5"/>
<text text-anchor="middle" x="311" y="-7.5" font-family="Helvetica,sans-Serif" font-size="10.00">src/keygendialog.cpp</text>
</a>
</g>
</g>
<!-- Node2&#45;&gt;Node4 -->
<g id="edge3" class="edge">
<title>Node2&#45;&gt;Node4</title>
<path fill="none" stroke="midnightblue" d="M311,-45.8C311,-36.91 311,-26.78 311,-19.75"/>
<polygon fill="midnightblue" stroke="midnightblue" points="307.5,-46.08 311,-56.08 314.5,-46.08 307.5,-46.08"/>
</g>
<!-- Node5 -->
<g id="node5" class="node">
<title>Node5</title>
<g id="a_node5"><a xlink:href="mainwindow_8cpp.html" target="_top" xlink:title=" ">
<polygon fill="none" stroke="black" points="134,-0.5 134,-19.5 238,-19.5 238,-0.5 134,-0.5"/>
<text text-anchor="middle" x="186" y="-7.5" font-family="Helvetica,sans-Serif" font-size="10.00">src/mainwindow.cpp</text>
</a>
</g>
</g>
<!-- Node2&#45;&gt;Node5 -->
<g id="edge4" class="edge">
<title>Node2&#45;&gt;Node5</title>
<path fill="none" stroke="midnightblue" d="M281.76,-52.37C258.35,-42.26 226.16,-28.35 205.71,-19.52"/>
<polygon fill="midnightblue" stroke="midnightblue" points="280.63,-55.69 291.19,-56.44 283.4,-49.26 280.63,-55.69"/>
</g>
<!-- Node7&#45;&gt;Node5 -->
<g id="edge7" class="edge">
<title>Node7&#45;&gt;Node5</title>
<path fill="none" stroke="midnightblue" d="M187.93,-45.8C187.44,-36.91 186.88,-26.78 186.49,-19.75"/>
<polygon fill="midnightblue" stroke="midnightblue" points="184.46,-46.29 188.5,-56.08 191.44,-45.9 184.46,-46.29"/>
</g>
<!-- Node7&#45;&gt;Node6 -->
<g id="edge8" class="edge">
<title>Node7&#45;&gt;Node6</title>
<path fill="none" stroke="midnightblue" d="M239.12,-54.35C287.12,-44.14 358.62,-28.94 402.94,-19.52"/>
<polygon fill="midnightblue" stroke="midnightblue" points="238.3,-50.94 229.25,-56.44 239.76,-57.79 238.3,-50.94"/>
</g>
<!-- Node7&#45;&gt;Node8 -->
<g id="edge9" class="edge">
<title>Node7&#45;&gt;Node8</title>
<path fill="none" stroke="midnightblue" d="M158.68,-52.5C134.12,-42.38 100.18,-28.39 78.66,-19.52"/>
<polygon fill="midnightblue" stroke="midnightblue" points="157.66,-55.87 168.24,-56.44 160.33,-49.4 157.66,-55.87"/>
</g>
<!-- Node9&#45;&gt;Node3 -->
<g id="edge11" class="edge">
<title>Node9&#45;&gt;Node3</title>
<path fill="none" stroke="midnightblue" d="M780.1,-54.35C731.34,-44.14 658.71,-28.94 613.69,-19.52"/>
<polygon fill="midnightblue" stroke="midnightblue" points="779.61,-57.82 790.12,-56.44 781.05,-50.97 779.61,-57.82"/>
</g>
<!-- Node9&#45;&gt;Node5 -->
<g id="edge13" class="edge">
<title>Node9&#45;&gt;Node5</title>
<path fill="none" stroke="midnightblue" d="M768.14,-61.59C660.99,-55.47 436.19,-41.22 247,-20 244.13,-19.68 241.18,-19.32 238.21,-18.95"/>
<polygon fill="midnightblue" stroke="midnightblue" points="767.96,-65.09 778.14,-62.16 768.35,-58.1 767.96,-65.09"/>
</g>
<!-- Node9&#45;&gt;Node6 -->
<g id="edge15" class="edge">
<title>Node9&#45;&gt;Node6</title>
<path fill="none" stroke="midnightblue" d="M768.25,-56.27C694.94,-46.06 574.55,-29.31 502.61,-19.3"/>
<polygon fill="midnightblue" stroke="midnightblue" points="767.88,-59.75 778.27,-57.66 768.85,-52.82 767.88,-59.75"/>
</g>
<!-- Node10 -->
<g id="node10" class="node">
<title>Node10</title>
<g id="a_node10"><a xlink:href="imitatepass_8cpp.html" target="_top" xlink:title=" ">
<polygon fill="none" stroke="black" points="727,-0.5 727,-19.5 829,-19.5 829,-0.5 727,-0.5"/>
<text text-anchor="middle" x="778" y="-7.5" font-family="Helvetica,sans-Serif" font-size="10.00">src/imitatepass.cpp</text>
</a>
</g>
</g>
<!-- Node9&#45;&gt;Node10 -->
<g id="edge12" class="edge">
<title>Node9&#45;&gt;Node10</title>
<path fill="none" stroke="midnightblue" d="M815.02,-48.72C805.68,-39.2 794.25,-27.56 786.59,-19.75"/>
<polygon fill="midnightblue" stroke="midnightblue" points="812.75,-51.4 822.25,-56.08 817.74,-46.49 812.75,-51.4"/>
</g>
<!-- Node11 -->
<g id="node11" class="node">
<title>Node11</title>
<g id="a_node11"><a xlink:href="pass_8cpp.html" target="_top" xlink:title=" ">
<polygon fill="none" stroke="black" points="847.5,-0.5 847.5,-19.5 920.5,-19.5 920.5,-0.5 847.5,-0.5"/>
<text text-anchor="middle" x="884" y="-7.5" font-family="Helvetica,sans-Serif" font-size="10.00">src/pass.cpp</text>
</a>
</g>
</g>
<!-- Node9&#45;&gt;Node11 -->
<g id="edge14" class="edge">
<title>Node9&#45;&gt;Node11</title>
<path fill="none" stroke="midnightblue" d="M846.98,-48.72C856.32,-39.2 867.75,-27.56 875.41,-19.75"/>
<polygon fill="midnightblue" stroke="midnightblue" points="844.26,-46.49 839.75,-56.08 849.25,-51.4 844.26,-46.49"/>
</g>
<!-- Node12 -->
<g id="node12" class="node">
<title>Node12</title>
<g id="a_node12"><a xlink:href="qtpass_8cpp.html" target="_top" xlink:title=" ">
<polygon fill="none" stroke="black" points="938.5,-0.5 938.5,-19.5 1019.5,-19.5 1019.5,-0.5 938.5,-0.5"/>
<text text-anchor="middle" x="979" y="-7.5" font-family="Helvetica,sans-Serif" font-size="10.00">src/qtpass.cpp</text>
</a>
</g>
</g>
<!-- Node9&#45;&gt;Node12 -->
<g id="edge16" class="edge">
<title>Node9&#45;&gt;Node12</title>
<path fill="none" stroke="midnightblue" d="M864.15,-52.91C891.97,-42.75 931.02,-28.51 955.66,-19.52"/>
<polygon fill="midnightblue" stroke="midnightblue" points="862.65,-49.73 854.45,-56.44 865.04,-56.3 862.65,-49.73"/>
</g>
<!-- Node13 -->
<g id="node13" class="node">
<title>Node13</title>
<g id="a_node13"><a xlink:href="qtpasssettings_8cpp.html" target="_top" xlink:title=" ">
<polygon fill="none" stroke="black" points="1038,-0.5 1038,-19.5 1154,-19.5 1154,-0.5 1038,-0.5"/>
<text text-anchor="middle" x="1096" y="-7.5" font-family="Helvetica,sans-Serif" font-size="10.00">src/qtpasssettings.cpp</text>
</a>
</g>
</g>
<!-- Node9&#45;&gt;Node13 -->
<g id="edge17" class="edge">
<title>Node9&#45;&gt;Node13</title>
<path fill="none" stroke="midnightblue" d="M882.97,-54.41C933.05,-44.2 1007.86,-28.96 1054.21,-19.52"/>
<polygon fill="midnightblue" stroke="midnightblue" points="882.09,-51.02 872.99,-56.44 883.49,-57.88 882.09,-51.02"/>
</g>
<!-- Node14 -->
<g id="node14" class="node">
<title>Node14</title>
<g id="a_node14"><a xlink:href="realpass_8cpp.html" target="_top" xlink:title=" ">
<polygon fill="none" stroke="black" points="1172.5,-0.5 1172.5,-19.5 1261.5,-19.5 1261.5,-0.5 1172.5,-0.5"/>
<text text-anchor="middle" x="1217" y="-7.5" font-family="Helvetica,sans-Serif" font-size="10.00">src/realpass.cpp</text>
</a>
</g>
</g>
<!-- Node9&#45;&gt;Node14 -->
<g id="edge18" class="edge">
<title>Node9&#45;&gt;Node14</title>
<path fill="none" stroke="midnightblue" d="M893.63,-57.09C960.44,-48.51 1069.32,-34.15 1163,-20 1166.01,-19.55 1169.11,-19.06 1172.23,-18.57"/>
<polygon fill="midnightblue" stroke="midnightblue" points="893.16,-53.62 883.68,-58.36 894.05,-60.56 893.16,-53.62"/>
</g>
<!-- Node15 -->
<g id="node15" class="node">
<title>Node15</title>
<g id="a_node15"><a xlink:href="storemodel_8cpp.html" target="_top" xlink:title=" ">
<polygon fill="none" stroke="black" points="1280,-0.5 1280,-19.5 1380,-19.5 1380,-0.5 1280,-0.5"/>
<text text-anchor="middle" x="1330" y="-7.5" font-family="Helvetica,sans-Serif" font-size="10.00">src/storemodel.cpp</text>
</a>
</g>
</g>
<!-- Node9&#45;&gt;Node15 -->
<g id="edge19" class="edge">
<title>Node9&#45;&gt;Node15</title>
<path fill="none" stroke="midnightblue" d="M893.64,-59.58C979.08,-51.95 1136.87,-37.08 1271,-20 1273.88,-19.63 1276.83,-19.24 1279.81,-18.83"/>
<polygon fill="midnightblue" stroke="midnightblue" points="893.24,-56.1 883.59,-60.47 893.86,-63.07 893.24,-56.1"/>
</g>
<!-- Node16 -->
<g id="node16" class="node">
<title>Node16</title>
<g id="a_node16"><a xlink:href="usersdialog_8cpp.html" target="_top" xlink:title=" ">
<polygon fill="none" stroke="black" points="1398.5,-0.5 1398.5,-19.5 1499.5,-19.5 1499.5,-0.5 1398.5,-0.5"/>
<text text-anchor="middle" x="1449" y="-7.5" font-family="Helvetica,sans-Serif" font-size="10.00">src/usersdialog.cpp</text>
</a>
</g>
</g>
<!-- Node9&#45;&gt;Node16 -->
<g id="edge20" class="edge">
<title>Node9&#45;&gt;Node16</title>
<path fill="none" stroke="midnightblue" d="M894.09,-61.32C997.64,-54.97 1210.01,-40.62 1389,-20 1392.03,-19.65 1395.15,-19.26 1398.29,-18.86"/>
<polygon fill="midnightblue" stroke="midnightblue" points="893.59,-57.85 883.82,-61.95 894.01,-64.83 893.59,-57.85"/>
</g>
<!-- Node17 -->
<g id="node17" class="node">
<title>Node17</title>
<g id="a_node17"><a xlink:href="util_8cpp.html" target="_top" xlink:title=" ">
<polygon fill="none" stroke="black" points="643.5,-0.5 643.5,-19.5 708.5,-19.5 708.5,-0.5 643.5,-0.5"/>
<text text-anchor="middle" x="676" y="-7.5" font-family="Helvetica,sans-Serif" font-size="10.00">src/util.cpp</text>
</a>
</g>
</g>
<!-- Node9&#45;&gt;Node17 -->
<g id="edge21" class="edge">
<title>Node9&#45;&gt;Node17</title>
<path fill="none" stroke="midnightblue" d="M796.67,-53.04C767.5,-42.88 726.36,-28.55 700.45,-19.52"/>
<polygon fill="midnightblue" stroke="midnightblue" points="795.84,-56.46 806.44,-56.44 798.15,-49.85 795.84,-56.46"/>
</g>
</g>
</svg>
