<?xml version="1.0" encoding="UTF-8" standalone="no"?>
<!DOCTYPE svg PUBLIC "-//W3C//DTD SVG 1.1//EN"
 "http://www.w3.org/Graphics/SVG/1.1/DTD/svg11.dtd">
<!-- Generated by graphviz version 2.40.1 (20161225.0304)
 -->
<!-- Title: src/passworddialog.h Pages: 1 -->
<svg width="510pt" height="192pt"
 viewBox="0.00 0.00 510.16 192.00" xmlns="http://www.w3.org/2000/svg" xmlns:xlink="http://www.w3.org/1999/xlink">
<g id="graph0" class="graph" transform="scale(1 1) rotate(0) translate(4 188)">
<title>src/passworddialog.h</title>
<!-- Node0 -->
<g id="node1" class="node">
<title>Node0</title>
<polygon fill="#bfbfbf" stroke="#000000" points="221.3325,-165.5 221.3325,-183.5 331.2681,-183.5 331.2681,-165.5 221.3325,-165.5"/>
<text text-anchor="middle" x="276.3003" y="-171.5" font-family="Helvetica,sans-Serif" font-size="10.00" fill="#000000">src/passworddialog.h</text>
</g>
<!-- Node1 -->
<g id="node2" class="node">
<title>Node1</title>
<g id="a_node2"><a xlink:href="datahelpers_8h.html" target="_top" xlink:title="datahelpers.h">
<polygon fill="none" stroke="#000000" points="0,-55.5 0,-73.5 76.6006,-73.5 76.6006,-55.5 0,-55.5"/>
<text text-anchor="middle" x="38.3003" y="-61.5" font-family="Helvetica,sans-Serif" font-size="10.00" fill="#000000">datahelpers.h</text>
</a>
</g>
</g>
<!-- Node0&#45;&gt;Node1 -->
<g id="edge1" class="edge">
<title>Node0&#45;&gt;Node1</title>
<path fill="none" stroke="#191970" d="M256.8238,-165.4982C214.9837,-146.1604 116.339,-100.5683 67.1853,-77.8502"/>
<polygon fill="#191970" stroke="#191970" points="68.5917,-74.6445 58.0459,-73.6261 65.6549,-80.9987 68.5917,-74.6445"/>
</g>
<!-- Node4 -->
<g id="node5" class="node">
<title>Node4</title>
<g id="a_node5"><a xlink:href="pass_8h.html" target="_top" xlink:title="pass.h">
<polygon fill="none" stroke="#000000" points="220.5688,-110.5 220.5688,-128.5 266.0317,-128.5 266.0317,-110.5 220.5688,-110.5"/>
<text text-anchor="middle" x="243.3003" y="-116.5" font-family="Helvetica,sans-Serif" font-size="10.00" fill="#000000">pass.h</text>
</a>
</g>
</g>
<!-- Node0&#45;&gt;Node4 -->
<g id="edge4" class="edge">
<title>Node0&#45;&gt;Node4</title>
<path fill="none" stroke="#191970" d="M270.851,-165.4179C266.2927,-157.8207 259.6519,-146.7527 254.0323,-137.3866"/>
<polygon fill="#191970" stroke="#191970" points="257.0142,-135.5536 248.868,-128.7795 251.0117,-139.1552 257.0142,-135.5536"/>
</g>
<!-- Node13 -->
<g id="node14" class="node">
<title>Node13</title>
<polygon fill="none" stroke="#bfbfbf" points="284.2363,-110.5 284.2363,-128.5 336.3643,-128.5 336.3643,-110.5 284.2363,-110.5"/>
<text text-anchor="middle" x="310.3003" y="-116.5" font-family="Helvetica,sans-Serif" font-size="10.00" fill="#000000">QDialog</text>
</g>
<!-- Node0&#45;&gt;Node13 -->
<g id="edge17" class="edge">
<title>Node0&#45;&gt;Node13</title>
<path fill="none" stroke="#191970" d="M281.9147,-165.4179C286.6111,-157.8207 293.4532,-146.7527 299.2431,-137.3866"/>
<polygon fill="#191970" stroke="#191970" points="302.2827,-139.1258 304.5639,-128.7795 296.3285,-135.445 302.2827,-139.1258"/>
</g>
<!-- Node14 -->
<g id="node15" class="node">
<title>Node14</title>
<polygon fill="none" stroke="#bfbfbf" points="354.8496,-110.5 354.8496,-128.5 409.751,-128.5 409.751,-110.5 354.8496,-110.5"/>
<text text-anchor="middle" x="382.3003" y="-116.5" font-family="Helvetica,sans-Serif" font-size="10.00" fill="#000000">QWidget</text>
</g>
<!-- Node0&#45;&gt;Node14 -->
<g id="edge18" class="edge">
<title>Node0&#45;&gt;Node14</title>
<path fill="none" stroke="#191970" d="M293.804,-165.4179C310.6822,-156.6603 336.4491,-143.2907 355.8339,-133.2326"/>
<polygon fill="#191970" stroke="#191970" points="357.5062,-136.308 364.7705,-128.5956 354.2823,-130.0946 357.5062,-136.308"/>
</g>
<!-- Node2 -->
<g id="node3" class="node">
<title>Node2</title>
<polygon fill="none" stroke="#bfbfbf" points="4.9219,-.5 4.9219,-18.5 71.6787,-18.5 71.6787,-.5 4.9219,-.5"/>
<text text-anchor="middle" x="38.3003" y="-6.5" font-family="Helvetica,sans-Serif" font-size="10.00" fill="#000000">QDateTime</text>
</g>
<!-- Node1&#45;&gt;Node2 -->
<g id="edge2" class="edge">
<title>Node1&#45;&gt;Node2</title>
<path fill="none" stroke="#191970" d="M38.3003,-55.4179C38.3003,-48.2164 38.3003,-37.8962 38.3003,-28.8632"/>
<polygon fill="#191970" stroke="#191970" points="41.8004,-28.7794 38.3003,-18.7795 34.8004,-28.7795 41.8004,-28.7794"/>
</g>
<!-- Node3 -->
<g id="node4" class="node">
<title>Node3</title>
<polygon fill="none" stroke="#bfbfbf" points="103.3496,-.5 103.3496,-18.5 153.251,-18.5 153.251,-.5 103.3496,-.5"/>
<text text-anchor="middle" x="128.3003" y="-6.5" font-family="Helvetica,sans-Serif" font-size="10.00" fill="#000000">QString</text>
</g>
<!-- Node1&#45;&gt;Node3 -->
<g id="edge3" class="edge">
<title>Node1&#45;&gt;Node3</title>
<path fill="none" stroke="#191970" d="M53.162,-55.4179C67.1017,-46.8992 88.1823,-34.0166 104.4704,-24.0627"/>
<polygon fill="#191970" stroke="#191970" points="106.7088,-26.7967 113.4165,-18.5956 103.0586,-20.8237 106.7088,-26.7967"/>
</g>
<!-- Node4&#45;&gt;Node1 -->
<g id="edge5" class="edge">
<title>Node4&#45;&gt;Node1</title>
<path fill="none" stroke="#191970" d="M220.1827,-113.2977C186.7381,-104.3248 124.241,-87.5573 81.9531,-76.2117"/>
<polygon fill="#191970" stroke="#191970" points="82.7631,-72.8053 72.1977,-73.5944 80.9491,-79.5662 82.7631,-72.8053"/>
</g>
<!-- Node4&#45;&gt;Node3 -->
<g id="edge16" class="edge">
<title>Node4&#45;&gt;Node3</title>
<path fill="none" stroke="#191970" d="M233.8894,-110.4982C214.5149,-91.9662 169.9324,-49.3221 145.347,-25.8056"/>
<polygon fill="#191970" stroke="#191970" points="147.487,-23.0091 137.8413,-18.6261 142.6484,-28.0677 147.487,-23.0091"/>
</g>
<!-- Node5 -->
<g id="node6" class="node">
<title>Node5</title>
<g id="a_node6"><a xlink:href="enums_8h.html" target="_top" xlink:title="enums.h">
<polygon fill="none" stroke="#000000" points="94.123,-55.5 94.123,-73.5 148.4775,-73.5 148.4775,-55.5 94.123,-55.5"/>
<text text-anchor="middle" x="121.3003" y="-61.5" font-family="Helvetica,sans-Serif" font-size="10.00" fill="#000000">enums.h</text>
</a>
</g>
</g>
<!-- Node4&#45;&gt;Node5 -->
<g id="edge6" class="edge">
<title>Node4&#45;&gt;Node5</title>
<path fill="none" stroke="#191970" d="M223.1545,-110.4179C203.4637,-101.5409 173.2618,-87.9253 150.853,-77.823"/>
<polygon fill="#191970" stroke="#191970" points="152.0309,-74.5148 141.476,-73.5956 149.154,-80.8963 152.0309,-74.5148"/>
</g>
<!-- Node6 -->
<g id="node7" class="node">
<title>Node6</title>
<g id="a_node7"><a xlink:href="executor_8h.html" target="_top" xlink:title="executor.h">
<polygon fill="none" stroke="#000000" points="242.2266,-55.5 242.2266,-73.5 304.374,-73.5 304.374,-55.5 242.2266,-55.5"/>
<text text-anchor="middle" x="273.3003" y="-61.5" font-family="Helvetica,sans-Serif" font-size="10.00" fill="#000000">executor.h</text>
</a>
</g>
</g>
<!-- Node4&#45;&gt;Node6 -->
<g id="edge7" class="edge">
<title>Node4&#45;&gt;Node6</title>
<path fill="none" stroke="#191970" d="M248.2542,-110.4179C252.3549,-102.8998 258.3096,-91.9829 263.384,-82.6799"/>
<polygon fill="#191970" stroke="#191970" points="266.5228,-84.2344 268.2388,-73.7795 260.3776,-80.8824 266.5228,-84.2344"/>
</g>
<!-- Node8 -->
<g id="node9" class="node">
<title>Node8</title>
<polygon fill="none" stroke="#bfbfbf" points="184.3496,-.5 184.3496,-18.5 244.251,-18.5 244.251,-.5 184.3496,-.5"/>
<text text-anchor="middle" x="214.3003" y="-6.5" font-family="Helvetica,sans-Serif" font-size="10.00" fill="#000000">QProcess</text>
</g>
<!-- Node4&#45;&gt;Node8 -->
<g id="edge14" class="edge">
<title>Node4&#45;&gt;Node8</title>
<path fill="none" stroke="#191970" d="M240.9271,-110.4982C236.2113,-92.6108 225.5732,-52.2594 219.2638,-28.3271"/>
<polygon fill="#191970" stroke="#191970" points="222.64,-27.4035 216.7063,-18.6261 215.8712,-29.188 222.64,-27.4035"/>
</g>
<!-- Node9 -->
<g id="node10" class="node">
<title>Node9</title>
<polygon fill="none" stroke="#bfbfbf" points="410.3989,-.5 410.3989,-18.5 464.2017,-18.5 464.2017,-.5 410.3989,-.5"/>
<text text-anchor="middle" x="437.3003" y="-6.5" font-family="Helvetica,sans-Serif" font-size="10.00" fill="#000000">QQueue</text>
</g>
<!-- Node4&#45;&gt;Node9 -->
<g id="edge15" class="edge">
<title>Node4&#45;&gt;Node9</title>
<path fill="none" stroke="#191970" d="M266.2792,-112.2957C269.2979,-111.462 272.3625,-110.6714 275.3003,-110 324.022,-98.8655 464.9124,-112.0631 497.3003,-74 512.5444,-56.0847 487.812,-36.4139 465.6373,-23.564"/>
<polygon fill="#191970" stroke="#191970" points="467.1775,-20.4167 456.7287,-18.6636 463.8037,-26.55 467.1775,-20.4167"/>
</g>
<!-- Node10 -->
<g id="node11" class="node">
<title>Node10</title>
<polygon fill="none" stroke="#bfbfbf" points="322.6772,-55.5 322.6772,-73.5 375.9233,-73.5 375.9233,-55.5 322.6772,-55.5"/>
<text text-anchor="middle" x="349.3003" y="-61.5" font-family="Helvetica,sans-Serif" font-size="10.00" fill="#000000">QDebug</text>
</g>
<!-- Node4&#45;&gt;Node10 -->
<g id="edge11" class="edge">
<title>Node4&#45;&gt;Node10</title>
<path fill="none" stroke="#191970" d="M260.804,-110.4179C277.6822,-101.6603 303.4491,-88.2907 322.8339,-78.2326"/>
<polygon fill="#191970" stroke="#191970" points="324.5062,-81.308 331.7705,-73.5956 321.2823,-75.0946 324.5062,-81.308"/>
</g>
<!-- Node11 -->
<g id="node12" class="node">
<title>Node11</title>
<polygon fill="none" stroke="#bfbfbf" points="394.0244,-55.5 394.0244,-73.5 430.5762,-73.5 430.5762,-55.5 394.0244,-55.5"/>
<text text-anchor="middle" x="412.3003" y="-61.5" font-family="Helvetica,sans-Serif" font-size="10.00" fill="#000000">QDir</text>
</g>
<!-- Node4&#45;&gt;Node11 -->
<g id="edge12" class="edge">
<title>Node4&#45;&gt;Node11</title>
<path fill="none" stroke="#191970" d="M266.4857,-112.2918C292.8379,-104.0514 337.3631,-89.985 384.0566,-74.3605"/>
<polygon fill="#191970" stroke="#191970" points="385.3678,-77.6123 393.7329,-71.1104 383.1389,-70.9766 385.3678,-77.6123"/>
</g>
<!-- Node12 -->
<g id="node13" class="node">
<title>Node12</title>
<polygon fill="none" stroke="#bfbfbf" points="448.6304,-55.5 448.6304,-73.5 487.9702,-73.5 487.9702,-55.5 448.6304,-55.5"/>
<text text-anchor="middle" x="468.3003" y="-61.5" font-family="Helvetica,sans-Serif" font-size="10.00" fill="#000000">QList</text>
</g>
<!-- Node4&#45;&gt;Node12 -->
<g id="edge13" class="edge">
<title>Node4&#45;&gt;Node12</title>
<path fill="none" stroke="#191970" d="M266.3167,-112.45C269.3293,-111.5911 272.3822,-110.7524 275.3003,-110 344.5976,-92.133 365.5988,-93.4892 438.7338,-73.9337"/>
<polygon fill="#191970" stroke="#191970" points="439.6778,-77.3042 448.4117,-71.3067 437.844,-70.5487 439.6778,-77.3042"/>
</g>
<!-- Node7 -->
<g id="node8" class="node">
<title>Node7</title>
<polygon fill="none" stroke="#bfbfbf" points="261.9604,-.5 261.9604,-18.5 314.6401,-18.5 314.6401,-.5 261.9604,-.5"/>
<text text-anchor="middle" x="288.3003" y="-6.5" font-family="Helvetica,sans-Serif" font-size="10.00" fill="#000000">QObject</text>
</g>
<!-- Node6&#45;&gt;Node7 -->
<g id="edge8" class="edge">
<title>Node6&#45;&gt;Node7</title>
<path fill="none" stroke="#191970" d="M275.7772,-55.4179C277.7629,-48.1372 280.6178,-37.669 283.1005,-28.5659"/>
<polygon fill="#191970" stroke="#191970" points="286.515,-29.348 285.7695,-18.7795 279.7616,-27.5062 286.515,-29.348"/>
</g>
<!-- Node6&#45;&gt;Node8 -->
<g id="edge9" class="edge">
<title>Node6&#45;&gt;Node8</title>
<path fill="none" stroke="#191970" d="M263.5576,-55.4179C254.8986,-47.3458 242.0363,-35.3556 231.6266,-25.6517"/>
<polygon fill="#191970" stroke="#191970" points="233.9559,-23.0381 224.2546,-18.7795 229.1827,-28.1584 233.9559,-23.0381"/>
</g>
<!-- Node6&#45;&gt;Node9 -->
<g id="edge10" class="edge">
<title>Node6&#45;&gt;Node9</title>
<path fill="none" stroke="#191970" d="M300.3816,-55.4179C327.7637,-46.2348 370.2668,-31.9807 400.6511,-21.7909"/>
<polygon fill="#191970" stroke="#191970" points="402.0832,-25.0023 410.4514,-18.5042 399.8574,-18.3655 402.0832,-25.0023"/>
</g>
</g>
</svg>
