<?xml version="1.0" encoding="UTF-8" standalone="no"?>
<!DOCTYPE svg PUBLIC "-//W3C//DTD SVG 1.1//EN"
 "http://www.w3.org/Graphics/SVG/1.1/DTD/svg11.dtd">
<!-- Generated by graphviz version 2.43.0 (0)
 -->
<!-- Title: src/passwordconfiguration.h Pages: 1 -->
<!--zoomable 148 -->

<svg id="main" version="1.1" xmlns="http://www.w3.org/2000/svg" xmlns:xlink="http://www.w3.org/1999/xlink" xml:space="preserve" onload="init(evt)">

<style type="text/css"><![CDATA[
.node, .edge {opacity: 0.7;}
.node.selected, .edge.selected {opacity: 1;}
.edge:hover path { stroke: red; }
.edge:hover polygon { stroke: red; fill: red; }
]]></style>

<defs>
  <circle id="rim" cx="0" cy="0" r="7"/>
  <circle id="rim2" cx="0" cy="0" r="3.5"/>
  <g id="zoomPlus">
    <use xlink:href="#rim" fill="#404040"><set attributeName="fill" to="#808080" begin="zoomplus.mouseover" end="zoomplus.mouseout"/></use>
    <path d="M-4,0h8M0,-4v8" fill="none" stroke="white" stroke-width="1.5" pointer-events="none"/>
  </g>
  <g id="zoomMin">
    <use xlink:href="#rim" fill="#404040"><set attributeName="fill" to="#808080" begin="zoomminus.mouseover" end="zoomminus.mouseout"/></use>
    <path d="M-4,0h8" fill="none" stroke="white" stroke-width="1.5" pointer-events="none"/>
  </g>
  <g id="arrowUp" transform="translate(30 24)">
    <use xlink:href="#rim"/>
    <path pointer-events="none" fill="none" stroke="white" stroke-width="1.5" d="M0,-3.0v7 M-2.5,-0.5L0,-3.0L2.5,-0.5"/>
  </g>
  <g id="arrowRight" transform="rotate(90) translate(36 -43)">
    <use xlink:href="#rim"/>
    <path pointer-events="none" fill="none" stroke="white" stroke-width="1.5" d="M0,-3.0v7 M-2.5,-0.5L0,-3.0L2.5,-0.5"/>
  </g>
  <g id="arrowDown" transform="rotate(180) translate(-30 -48)">
    <use xlink:href="#rim"/>
    <path pointer-events="none" fill="none" stroke="white" stroke-width="1.5" d="M0,-3.0v7 M-2.5,-0.5L0,-3.0L2.5,-0.5"/>
  </g>
  <g id="arrowLeft" transform="rotate(270) translate(-36 17)">
    <use xlink:href="#rim"/>
    <path pointer-events="none" fill="none" stroke="white" stroke-width="1.5" d="M0,-3.0v7 M-2.5,-0.5L0,-3.0L2.5,-0.5"/>
  </g>
  <g id="resetDef">
    <use xlink:href="#rim2" fill="#404040"><set attributeName="fill" to="#808080" begin="reset.mouseover" end="reset.mouseout"/></use>
  </g>
</defs>
<script type="application/ecmascript">
var viewWidth = 2154;
var viewHeight = 148;
var sectionId = 'dynsection-1';
</script>
<script type="application/ecmascript" xlink:href="svg.min.js"/>
<svg id="graph" class="graph">
<g id="viewport">
<title>src/passwordconfiguration.h</title>
<!-- Node1 -->
<g id="Node000001" class="node">
<title>Node1</title>
<g id="a_Node000001"><a xlink:title=" ">
<polygon fill="#999999" stroke="#666666" points="917.5,-140 764.5,-140 764.5,-121 917.5,-121 917.5,-140"/>
<text text-anchor="middle" x="841" y="-128" font-family="Helvetica,sans-Serif" font-size="10.00">src/passwordconfiguration.h</text>
</a>
</g>
</g>
<!-- Node2 -->
<g id="Node000002" class="node">
<title>Node2</title>
<g id="a_Node000002"><a xlink:href="configdialog_8h.html" target="_top" xlink:title=" ">
<polygon fill="white" stroke="#666666" points="588,-85 486,-85 486,-66 588,-66 588,-85"/>
<text text-anchor="middle" x="537" y="-73" font-family="Helvetica,sans-Serif" font-size="10.00">src/configdialog.h</text>
</a>
</g>
</g>
<!-- Node1&#45;&gt;Node2 -->
<g id="edge1_Node000001_Node000002" class="edge">
<title>Node1&#45;&gt;Node2</title>
<g id="a_edge1_Node000001_Node000002"><a xlink:title=" ">
<path fill="none" stroke="#63b8ff" d="M782.2,-119.25C725.11,-109.3 639.46,-94.36 585.97,-85.04"/>
<polygon fill="#63b8ff" stroke="#63b8ff" points="781.7,-122.72 792.16,-120.98 782.91,-115.82 781.7,-122.72"/>
</a>
</g>
</g>
<!-- Node6 -->
<g id="Node000006" class="node">
<title>Node6</title>
<g id="a_Node000006"><a xlink:href="passworddialog_8cpp.html" target="_top" xlink:title=" ">
<polygon fill="white" stroke="#666666" points="277.5,-24.5 146.5,-24.5 146.5,-5.5 277.5,-5.5 277.5,-24.5"/>
<text text-anchor="middle" x="212" y="-12.5" font-family="Helvetica,sans-Serif" font-size="10.00">src/passworddialog.cpp</text>
</a>
</g>
</g>
<!-- Node1&#45;&gt;Node6 -->
<g id="edge5_Node000001_Node000006" class="edge">
<title>Node1&#45;&gt;Node6</title>
<g id="a_edge5_Node000001_Node000006"><a xlink:title=" ">
<path fill="none" stroke="#63b8ff" d="M753.99,-122.14C679.93,-115.1 570.93,-102.89 477,-85 389.43,-68.32 287.98,-39.06 239.96,-24.6"/>
<polygon fill="#63b8ff" stroke="#63b8ff" points="753.92,-125.65 764.2,-123.1 754.57,-118.68 753.92,-125.65"/>
</a>
</g>
</g>
<!-- Node7 -->
<g id="Node000007" class="node">
<title>Node7</title>
<g id="a_Node000007"><a xlink:href="passworddialog_8h.html" target="_top" xlink:title=" ">
<polygon fill="white" stroke="#666666" points="365.5,-85 246.5,-85 246.5,-66 365.5,-66 365.5,-85"/>
<text text-anchor="middle" x="306" y="-73" font-family="Helvetica,sans-Serif" font-size="10.00">src/passworddialog.h</text>
</a>
</g>
</g>
<!-- Node1&#45;&gt;Node7 -->
<g id="edge6_Node000001_Node000007" class="edge">
<title>Node1&#45;&gt;Node7</title>
<g id="a_edge6_Node000001_Node000007"><a xlink:title=" ">
<path fill="none" stroke="#63b8ff" d="M754.34,-120.92C645.09,-110.09 460.14,-91.77 365.57,-82.4"/>
<polygon fill="#63b8ff" stroke="#63b8ff" points="754.05,-124.4 764.35,-121.91 754.74,-117.44 754.05,-124.4"/>
</a>
</g>
</g>
<!-- Node8 -->
<g id="Node000008" class="node">
<title>Node8</title>
<g id="a_Node000008"><a xlink:href="tst__ui_8cpp.html" target="_top" xlink:title=" ">
<polygon fill="white" stroke="#666666" points="128,-24.5 0,-24.5 0,-5.5 128,-5.5 128,-24.5"/>
<text text-anchor="middle" x="64" y="-12.5" font-family="Helvetica,sans-Serif" font-size="10.00">tests/auto/ui/tst_ui.cpp</text>
</a>
</g>
</g>
<!-- Node1&#45;&gt;Node8 -->
<g id="edge29_Node000001_Node000008" class="edge">
<title>Node1&#45;&gt;Node8</title>
<g id="a_edge29_Node000001_Node000008"><a xlink:title=" ">
<path fill="none" stroke="#63b8ff" d="M754.2,-126.37C611.32,-120.67 332.87,-107.1 237,-85 177.13,-71.2 110.83,-39.88 80.63,-24.64"/>
<polygon fill="#63b8ff" stroke="#63b8ff" points="754.12,-129.87 764.25,-126.77 754.4,-122.87 754.12,-129.87"/>
</a>
</g>
</g>
<!-- Node9 -->
<g id="Node000009" class="node">
<title>Node9</title>
<g id="a_Node000009"><a xlink:href="qtpasssettings_8h.html" target="_top" xlink:title=" ">
<polygon fill="white" stroke="#666666" points="1156,-85 1042,-85 1042,-66 1156,-66 1156,-85"/>
<text text-anchor="middle" x="1099" y="-73" font-family="Helvetica,sans-Serif" font-size="10.00">src/qtpasssettings.h</text>
</a>
</g>
</g>
<!-- Node1&#45;&gt;Node9 -->
<g id="edge10_Node000001_Node000009" class="edge">
<title>Node1&#45;&gt;Node9</title>
<g id="a_edge10_Node000001_Node000009"><a xlink:title=" ">
<path fill="none" stroke="#63b8ff" d="M892.4,-118.94C940.76,-109.01 1012.28,-94.31 1057.22,-85.08"/>
<polygon fill="#63b8ff" stroke="#63b8ff" points="891.54,-115.54 882.45,-120.98 892.95,-122.4 891.54,-115.54"/>
</a>
</g>
</g>
<!-- Node19 -->
<g id="Node000019" class="node">
<title>Node19</title>
<g id="a_Node000019"><a xlink:href="tst__passwordconfig_8cpp.html" target="_top" xlink:title=" ">
<polygon fill="white" stroke="#666666" points="1902,-30 1758,-30 1758,0 1902,0 1902,-30"/>
<text text-anchor="start" x="1766" y="-18" font-family="Helvetica,sans-Serif" font-size="10.00">tests/auto/passwordconfig</text>
<text text-anchor="middle" x="1830" y="-7" font-family="Helvetica,sans-Serif" font-size="10.00">/tst_passwordconfig.cpp</text>
</a>
</g>
</g>
<!-- Node1&#45;&gt;Node19 -->
<g id="edge27_Node000001_Node000019" class="edge">
<title>Node1&#45;&gt;Node19</title>
<g id="a_edge27_Node000001_Node000019"><a xlink:title=" ">
<path fill="none" stroke="#63b8ff" d="M928.12,-121.77C1090.13,-106.98 1448.61,-72.38 1749,-30 1751.83,-29.6 1754.71,-29.18 1757.61,-28.74"/>
<polygon fill="#63b8ff" stroke="#63b8ff" points="927.37,-118.32 917.73,-122.71 928.01,-125.29 927.37,-118.32"/>
</a>
</g>
</g>
<!-- Node20 -->
<g id="Node000020" class="node">
<title>Node20</title>
<g id="a_Node000020"><a xlink:href="tst__settings_8cpp.html" target="_top" xlink:title=" ">
<polygon fill="white" stroke="#666666" points="2027.5,-30 1920.5,-30 1920.5,0 2027.5,0 2027.5,-30"/>
<text text-anchor="start" x="1928.5" y="-18" font-family="Helvetica,sans-Serif" font-size="10.00">tests/auto/settings</text>
<text text-anchor="middle" x="1974" y="-7" font-family="Helvetica,sans-Serif" font-size="10.00">/tst_settings.cpp</text>
</a>
</g>
</g>
<!-- Node1&#45;&gt;Node20 -->
<g id="edge28_Node000001_Node000020" class="edge">
<title>Node1&#45;&gt;Node20</title>
<g id="a_edge28_Node000001_Node000020"><a xlink:title=" ">
<path fill="none" stroke="#63b8ff" d="M927.78,-125.51C1110.61,-116.22 1548.46,-89.26 1911,-30 1914.1,-29.49 1917.27,-28.93 1920.46,-28.33"/>
<polygon fill="#63b8ff" stroke="#63b8ff" points="927.5,-122.02 917.68,-126.02 927.85,-129.02 927.5,-122.02"/>
</a>
</g>
</g>
<!-- Node21 -->
<g id="Node000021" class="node">
<title>Node21</title>
<g id="a_Node000021"><a xlink:href="tst__util_8cpp.html" target="_top" xlink:title=" ">
<polygon fill="white" stroke="#666666" points="2146,-30 2046,-30 2046,0 2146,0 2146,-30"/>
<text text-anchor="start" x="2054" y="-18" font-family="Helvetica,sans-Serif" font-size="10.00">tests/auto/util/tst</text>
<text text-anchor="middle" x="2096" y="-7" font-family="Helvetica,sans-Serif" font-size="10.00">_util.cpp</text>
</a>
</g>
</g>
<!-- Node1&#45;&gt;Node21 -->
<g id="edge30_Node000001_Node000021" class="edge">
<title>Node1&#45;&gt;Node21</title>
<g id="a_edge30_Node000001_Node000021"><a xlink:title=" ">
<path fill="none" stroke="#63b8ff" d="M927.78,-126.11C1067.31,-120.25 1350.12,-106.75 1589,-85 1788.78,-66.81 1839.55,-65.43 2037,-30 2039.9,-29.48 2042.87,-28.91 2045.87,-28.3"/>
<polygon fill="#63b8ff" stroke="#63b8ff" points="927.42,-122.62 917.57,-126.53 927.71,-129.61 927.42,-122.62"/>
</a>
</g>
</g>
<!-- Node3 -->
<g id="Node000003" class="node">
<title>Node3</title>
<g id="a_Node000003"><a xlink:href="configdialog_8cpp.html" target="_top" xlink:title=" ">
<polygon fill="white" stroke="#666666" points="680.5,-24.5 567.5,-24.5 567.5,-5.5 680.5,-5.5 680.5,-24.5"/>
<text text-anchor="middle" x="624" y="-12.5" font-family="Helvetica,sans-Serif" font-size="10.00">src/configdialog.cpp</text>
</a>
</g>
</g>
<!-- Node2&#45;&gt;Node3 -->
<g id="edge2_Node000002_Node000003" class="edge">
<title>Node2&#45;&gt;Node3</title>
<g id="a_edge2_Node000002_Node000003"><a xlink:title=" ">
<path fill="none" stroke="#63b8ff" d="M558.33,-60.16C574.86,-49.05 597.21,-34.01 611.11,-24.67"/>
<polygon fill="#63b8ff" stroke="#63b8ff" points="556.18,-57.38 549.84,-65.87 560.09,-63.19 556.18,-57.38"/>
</a>
</g>
</g>
<!-- Node4 -->
<g id="Node000004" class="node">
<title>Node4</title>
<g id="a_Node000004"><a xlink:href="keygendialog_8cpp.html" target="_top" xlink:title=" ">
<polygon fill="white" stroke="#666666" points="549.5,-24.5 430.5,-24.5 430.5,-5.5 549.5,-5.5 549.5,-24.5"/>
<text text-anchor="middle" x="490" y="-12.5" font-family="Helvetica,sans-Serif" font-size="10.00">src/keygendialog.cpp</text>
</a>
</g>
</g>
<!-- Node2&#45;&gt;Node4 -->
<g id="edge3_Node000002_Node000004" class="edge">
<title>Node2&#45;&gt;Node4</title>
<g id="a_edge3_Node000002_Node000004"><a xlink:title=" ">
<path fill="none" stroke="#63b8ff" d="M523.7,-57.95C515,-47.12 503.99,-33.41 496.96,-24.67"/>
<polygon fill="#63b8ff" stroke="#63b8ff" points="521.07,-60.26 530.06,-65.87 526.53,-55.88 521.07,-60.26"/>
</a>
</g>
</g>
<!-- Node5 -->
<g id="Node000005" class="node">
<title>Node5</title>
<g id="a_Node000005"><a xlink:href="mainwindow_8cpp.html" target="_top" xlink:title=" ">
<polygon fill="white" stroke="#666666" points="412,-24.5 296,-24.5 296,-5.5 412,-5.5 412,-24.5"/>
<text text-anchor="middle" x="354" y="-12.5" font-family="Helvetica,sans-Serif" font-size="10.00">src/mainwindow.cpp</text>
</a>
</g>
</g>
<!-- Node2&#45;&gt;Node5 -->
<g id="edge4_Node000002_Node000005" class="edge">
<title>Node2&#45;&gt;Node5</title>
<g id="a_edge4_Node000002_Node000005"><a xlink:title=" ">
<path fill="none" stroke="#63b8ff" d="M500.45,-62.82C465.06,-51.5 412.23,-34.62 380.64,-24.52"/>
<polygon fill="#63b8ff" stroke="#63b8ff" points="499.8,-66.28 510.39,-65.99 501.93,-59.61 499.8,-66.28"/>
</a>
</g>
</g>
<!-- Node7&#45;&gt;Node5 -->
<g id="edge7_Node000007_Node000005" class="edge">
<title>Node7&#45;&gt;Node5</title>
<g id="a_edge7_Node000007_Node000005"><a xlink:title=" ">
<path fill="none" stroke="#63b8ff" d="M319.58,-57.95C328.46,-47.12 339.72,-33.41 346.89,-24.67"/>
<polygon fill="#63b8ff" stroke="#63b8ff" points="316.72,-55.92 313.08,-65.87 322.13,-60.36 316.72,-55.92"/>
</a>
</g>
</g>
<!-- Node7&#45;&gt;Node6 -->
<g id="edge8_Node000007_Node000006" class="edge">
<title>Node7&#45;&gt;Node6</title>
<g id="a_edge8_Node000007_Node000006"><a xlink:title=" ">
<path fill="none" stroke="#63b8ff" d="M283.45,-60.47C265.55,-49.32 241.08,-34.1 225.93,-24.67"/>
<polygon fill="#63b8ff" stroke="#63b8ff" points="281.79,-63.56 292.13,-65.87 285.49,-57.61 281.79,-63.56"/>
</a>
</g>
</g>
<!-- Node7&#45;&gt;Node8 -->
<g id="edge9_Node000007_Node000008" class="edge">
<title>Node7&#45;&gt;Node8</title>
<g id="a_edge9_Node000007_Node000008"><a xlink:title=" ">
<path fill="none" stroke="#63b8ff" d="M260.95,-63.61C214.18,-52.3 142,-34.85 99.23,-24.52"/>
<polygon fill="#63b8ff" stroke="#63b8ff" points="260.27,-67.05 270.81,-65.99 261.91,-60.24 260.27,-67.05"/>
</a>
</g>
</g>
<!-- Node9&#45;&gt;Node3 -->
<g id="edge11_Node000009_Node000003" class="edge">
<title>Node9&#45;&gt;Node3</title>
<g id="a_edge11_Node000009_Node000003"><a xlink:title=" ">
<path fill="none" stroke="#63b8ff" d="M1031.76,-69.27C950.49,-62.48 809.72,-49.16 690,-30 680.52,-28.48 670.34,-26.5 660.88,-24.51"/>
<polygon fill="#63b8ff" stroke="#63b8ff" points="1031.6,-72.77 1041.86,-70.11 1032.18,-65.8 1031.6,-72.77"/>
</a>
</g>
</g>
<!-- Node9&#45;&gt;Node4 -->
<g id="edge13_Node000009_Node000004" class="edge">
<title>Node9&#45;&gt;Node4</title>
<g id="a_edge13_Node000009_Node000004"><a xlink:title=" ">
<path fill="none" stroke="#63b8ff" d="M1031.67,-71.58C929.05,-66.55 727.55,-54.34 558,-30 547.98,-28.56 537.21,-26.56 527.27,-24.52"/>
<polygon fill="#63b8ff" stroke="#63b8ff" points="1031.73,-75.09 1041.89,-72.08 1032.07,-68.1 1031.73,-75.09"/>
</a>
</g>
</g>
<!-- Node9&#45;&gt;Node5 -->
<g id="edge14_Node000009_Node000005" class="edge">
<title>Node9&#45;&gt;Node5</title>
<g id="a_edge14_Node000009_Node000005"><a xlink:title=" ">
<path fill="none" stroke="#63b8ff" d="M1031.25,-73.2C908.87,-70.15 643.02,-60.33 421,-30 410.99,-28.63 400.24,-26.63 390.35,-24.56"/>
<polygon fill="#63b8ff" stroke="#63b8ff" points="1031.5,-76.71 1041.58,-73.45 1031.67,-69.71 1031.5,-76.71"/>
</a>
</g>
</g>
<!-- Node9&#45;&gt;Node6 -->
<g id="edge16_Node000009_Node000006" class="edge">
<title>Node9&#45;&gt;Node6</title>
<g id="a_edge16_Node000009_Node000006"><a xlink:title=" ">
<path fill="none" stroke="#63b8ff" d="M1031.57,-73.76C892.08,-71.58 561.87,-63.05 287,-30 275.69,-28.64 263.51,-26.61 252.33,-24.52"/>
<polygon fill="#63b8ff" stroke="#63b8ff" points="1031.63,-77.26 1041.68,-73.91 1031.73,-70.26 1031.63,-77.26"/>
</a>
</g>
</g>
<!-- Node10 -->
<g id="Node000010" class="node">
<title>Node10</title>
<g id="a_Node000010"><a xlink:href="imitatepass_8cpp.html" target="_top" xlink:title=" ">
<polygon fill="white" stroke="#666666" points="1155,-24.5 1043,-24.5 1043,-5.5 1155,-5.5 1155,-24.5"/>
<text text-anchor="middle" x="1099" y="-12.5" font-family="Helvetica,sans-Serif" font-size="10.00">src/imitatepass.cpp</text>
</a>
</g>
</g>
<!-- Node9&#45;&gt;Node10 -->
<g id="edge12_Node000009_Node000010" class="edge">
<title>Node9&#45;&gt;Node10</title>
<g id="a_edge12_Node000009_Node000010"><a xlink:title=" ">
<path fill="none" stroke="#63b8ff" d="M1099,-55.66C1099,-45.24 1099,-32.8 1099,-24.67"/>
<polygon fill="#63b8ff" stroke="#63b8ff" points="1095.5,-55.87 1099,-65.87 1102.5,-55.87 1095.5,-55.87"/>
</a>
</g>
</g>
<!-- Node11 -->
<g id="Node000011" class="node">
<title>Node11</title>
<g id="a_Node000011"><a xlink:href="pass_8cpp.html" target="_top" xlink:title=" ">
<polygon fill="white" stroke="#666666" points="1250.5,-24.5 1173.5,-24.5 1173.5,-5.5 1250.5,-5.5 1250.5,-24.5"/>
<text text-anchor="middle" x="1212" y="-12.5" font-family="Helvetica,sans-Serif" font-size="10.00">src/pass.cpp</text>
</a>
</g>
</g>
<!-- Node9&#45;&gt;Node11 -->
<g id="edge15_Node000009_Node000011" class="edge">
<title>Node9&#45;&gt;Node11</title>
<g id="a_edge15_Node000009_Node000011"><a xlink:title=" ">
<path fill="none" stroke="#63b8ff" d="M1124.64,-61.23C1146.28,-50.03 1176.62,-34.32 1195.26,-24.67"/>
<polygon fill="#63b8ff" stroke="#63b8ff" points="1122.94,-58.16 1115.67,-65.87 1126.16,-64.38 1122.94,-58.16"/>
</a>
</g>
</g>
<!-- Node12 -->
<g id="Node000012" class="node">
<title>Node12</title>
<g id="a_Node000012"><a xlink:href="qtpass_8cpp.html" target="_top" xlink:title=" ">
<polygon fill="white" stroke="#666666" points="1355,-24.5 1269,-24.5 1269,-5.5 1355,-5.5 1355,-24.5"/>
<text text-anchor="middle" x="1312" y="-12.5" font-family="Helvetica,sans-Serif" font-size="10.00">src/qtpass.cpp</text>
</a>
</g>
</g>
<!-- Node9&#45;&gt;Node12 -->
<g id="edge17_Node000009_Node000012" class="edge">
<title>Node9&#45;&gt;Node12</title>
<g id="a_edge17_Node000009_Node000012"><a xlink:title=" ">
<path fill="none" stroke="#63b8ff" d="M1139.69,-63.32C1180.88,-52.01 1243.67,-34.77 1280.99,-24.52"/>
<polygon fill="#63b8ff" stroke="#63b8ff" points="1138.69,-59.97 1129.97,-65.99 1140.54,-66.72 1138.69,-59.97"/>
</a>
</g>
</g>
<!-- Node13 -->
<g id="Node000013" class="node">
<title>Node13</title>
<g id="a_Node000013"><a xlink:href="qtpasssettings_8cpp.html" target="_top" xlink:title=" ">
<polygon fill="white" stroke="#666666" points="1498.5,-24.5 1373.5,-24.5 1373.5,-5.5 1498.5,-5.5 1498.5,-24.5"/>
<text text-anchor="middle" x="1436" y="-12.5" font-family="Helvetica,sans-Serif" font-size="10.00">src/qtpasssettings.cpp</text>
</a>
</g>
</g>
<!-- Node9&#45;&gt;Node13 -->
<g id="edge18_Node000009_Node000013" class="edge">
<title>Node9&#45;&gt;Node13</title>
<g id="a_edge18_Node000009_Node000013"><a xlink:title=" ">
<path fill="none" stroke="#63b8ff" d="M1162.18,-64.36C1215.92,-55.62 1295.11,-42.48 1364,-30 1373.4,-28.3 1383.47,-26.39 1393.01,-24.55"/>
<polygon fill="#63b8ff" stroke="#63b8ff" points="1161.42,-60.94 1152.11,-65.99 1162.55,-67.85 1161.42,-60.94"/>
</a>
</g>
</g>
<!-- Node14 -->
<g id="Node000014" class="node">
<title>Node14</title>
<g id="a_Node000014"><a xlink:href="realpass_8cpp.html" target="_top" xlink:title=" ">
<polygon fill="white" stroke="#666666" points="1611.5,-24.5 1516.5,-24.5 1516.5,-5.5 1611.5,-5.5 1611.5,-24.5"/>
<text text-anchor="middle" x="1564" y="-12.5" font-family="Helvetica,sans-Serif" font-size="10.00">src/realpass.cpp</text>
</a>
</g>
</g>
<!-- Node9&#45;&gt;Node14 -->
<g id="edge19_Node000009_Node000014" class="edge">
<title>Node9&#45;&gt;Node14</title>
<g id="a_edge19_Node000009_Node000014"><a xlink:title=" ">
<path fill="none" stroke="#63b8ff" d="M1166.18,-69.91C1247.37,-63.73 1387.9,-51.03 1507,-30 1515.33,-28.53 1524.25,-26.54 1532.5,-24.52"/>
<polygon fill="#63b8ff" stroke="#63b8ff" points="1165.81,-66.43 1156.1,-70.67 1166.33,-73.41 1165.81,-66.43"/>
</a>
</g>
</g>
<!-- Node15 -->
<g id="Node000015" class="node">
<title>Node15</title>
<g id="a_Node000015"><a xlink:href="storemodel_8cpp.html" target="_top" xlink:title=" ">
<polygon fill="white" stroke="#666666" points="1740,-24.5 1630,-24.5 1630,-5.5 1740,-5.5 1740,-24.5"/>
<text text-anchor="middle" x="1685" y="-12.5" font-family="Helvetica,sans-Serif" font-size="10.00">src/storemodel.cpp</text>
</a>
</g>
</g>
<!-- Node9&#45;&gt;Node15 -->
<g id="edge20_Node000009_Node000015" class="edge">
<title>Node9&#45;&gt;Node15</title>
<g id="a_edge20_Node000009_Node000015"><a xlink:title=" ">
<path fill="none" stroke="#63b8ff" d="M1166.55,-71.47C1266.21,-66.39 1458.28,-54.22 1620,-30 1629.59,-28.56 1639.88,-26.56 1649.39,-24.52"/>
<polygon fill="#63b8ff" stroke="#63b8ff" points="1166.14,-67.99 1156.33,-71.99 1166.49,-74.98 1166.14,-67.99"/>
</a>
</g>
</g>
<!-- Node16 -->
<g id="Node000016" class="node">
<title>Node16</title>
<g id="a_Node000016"><a xlink:href="usersdialog_8cpp.html" target="_top" xlink:title=" ">
<polygon fill="white" stroke="#666666" points="809,-24.5 699,-24.5 699,-5.5 809,-5.5 809,-24.5"/>
<text text-anchor="middle" x="754" y="-12.5" font-family="Helvetica,sans-Serif" font-size="10.00">src/usersdialog.cpp</text>
</a>
</g>
</g>
<!-- Node9&#45;&gt;Node16 -->
<g id="edge21_Node000009_Node000016" class="edge">
<title>Node9&#45;&gt;Node16</title>
<g id="a_edge21_Node000009_Node000016"><a xlink:title=" ">
<path fill="none" stroke="#63b8ff" d="M1031.81,-64.98C974.76,-56.64 890.81,-43.72 818,-30 809.28,-28.36 799.93,-26.42 791.15,-24.51"/>
<polygon fill="#63b8ff" stroke="#63b8ff" points="1031.38,-68.46 1041.78,-66.44 1032.39,-61.53 1031.38,-68.46"/>
</a>
</g>
</g>
<!-- Node17 -->
<g id="Node000017" class="node">
<title>Node17</title>
<g id="a_Node000017"><a xlink:href="util_8cpp.html" target="_top" xlink:title=" ">
<polygon fill="white" stroke="#666666" points="897,-24.5 827,-24.5 827,-5.5 897,-5.5 897,-24.5"/>
<text text-anchor="middle" x="862" y="-12.5" font-family="Helvetica,sans-Serif" font-size="10.00">src/util.cpp</text>
</a>
</g>
</g>
<!-- Node9&#45;&gt;Node17 -->
<g id="edge22_Node000009_Node000017" class="edge">
<title>Node9&#45;&gt;Node17</title>
<g id="a_edge22_Node000009_Node000017"><a xlink:title=" ">
<path fill="none" stroke="#63b8ff" d="M1047.27,-63.77C1008.24,-55.39 953.49,-43.01 906,-30 900.12,-28.39 893.86,-26.5 887.95,-24.64"/>
<polygon fill="#63b8ff" stroke="#63b8ff" points="1046.83,-67.26 1057.34,-65.92 1048.29,-60.41 1046.83,-67.26"/>
</a>
</g>
</g>
<!-- Node18 -->
<g id="Node000018" class="node">
<title>Node18</title>
<g id="a_Node000018"><a xlink:href="tst__executor_8cpp.html" target="_top" xlink:title=" ">
<polygon fill="white" stroke="#666666" points="1025,-30 915,-30 915,0 1025,0 1025,-30"/>
<text text-anchor="start" x="923" y="-18" font-family="Helvetica,sans-Serif" font-size="10.00">tests/auto/executor</text>
<text text-anchor="middle" x="970" y="-7" font-family="Helvetica,sans-Serif" font-size="10.00">/tst_executor.cpp</text>
</a>
</g>
</g>
<!-- Node9&#45;&gt;Node18 -->
<g id="edge23_Node000009_Node000018" class="edge">
<title>Node9&#45;&gt;Node18</title>
<g id="a_edge23_Node000009_Node000018"><a xlink:title=" ">
<path fill="none" stroke="#63b8ff" d="M1071.09,-61.84C1050.53,-52.52 1022.57,-39.84 1001.26,-30.18"/>
<polygon fill="#63b8ff" stroke="#63b8ff" points="1069.69,-65.05 1080.24,-65.99 1072.58,-58.68 1069.69,-65.05"/>
</a>
</g>
</g>
<!-- Node9&#45;&gt;Node19 -->
<g id="edge24_Node000009_Node000019" class="edge">
<title>Node9&#45;&gt;Node19</title>
<g id="a_edge24_Node000009_Node000019"><a xlink:title=" ">
<path fill="none" stroke="#63b8ff" d="M1166.48,-72.17C1284.79,-67.57 1537.25,-55.48 1749,-30 1751.83,-29.66 1754.72,-29.29 1757.63,-28.89"/>
<polygon fill="#63b8ff" stroke="#63b8ff" points="1165.99,-68.68 1156.13,-72.56 1166.26,-75.68 1165.99,-68.68"/>
</a>
</g>
</g>
<!-- Node9&#45;&gt;Node20 -->
<g id="edge25_Node000009_Node000020" class="edge">
<title>Node9&#45;&gt;Node20</title>
<g id="a_edge25_Node000009_Node000020"><a xlink:title=" ">
<path fill="none" stroke="#63b8ff" d="M1166.53,-74.53C1306.21,-73.77 1636.73,-67.73 1911,-30 1914.11,-29.57 1917.29,-29.07 1920.49,-28.52"/>
<polygon fill="#63b8ff" stroke="#63b8ff" points="1166.39,-71.03 1156.41,-74.58 1166.42,-78.03 1166.39,-71.03"/>
</a>
</g>
</g>
<!-- Node9&#45;&gt;Node21 -->
<g id="edge26_Node000009_Node000021" class="edge">
<title>Node9&#45;&gt;Node21</title>
<g id="a_edge26_Node000009_Node000021"><a xlink:title=" ">
<path fill="none" stroke="#63b8ff" d="M1166.36,-72.93C1352.06,-68.34 1868.66,-53.76 2037,-30 2039.92,-29.59 2042.9,-29.1 2045.91,-28.55"/>
<polygon fill="#63b8ff" stroke="#63b8ff" points="1166.1,-69.43 1156.19,-73.18 1166.27,-76.43 1166.1,-69.43"/>
</a>
</g>
</g>
</g>
</svg>

<g id="navigator" transform="translate(0 0)" fill="#404254">
  <rect fill="#f2f5e9" fill-opacity="0.5" stroke="#606060" stroke-width=".5" x="0" y="0" width="60" height="60"/>
  <use id="zoomplus" xlink:href="#zoomPlus" x="17" y="9" onmousedown="handleZoom(evt,'in')"/>
  <use id="zoomminus" xlink:href="#zoomMin" x="42" y="9" onmousedown="handleZoom(evt,'out')"/>
  <use id="reset" xlink:href="#resetDef" x="30" y="36" onmousedown="handleReset()"/>
   <use id="arrowup" xlink:href="#arrowUp" x="0" y="0" onmousedown="handlePan(0,-1)"/>
  <use id="arrowright" xlink:href="#arrowRight" x="0" y="0" onmousedown="handlePan(1,0)"/>
  <use id="arrowdown" xlink:href="#arrowDown" x="0" y="0" onmousedown="handlePan(0,1)"/>
  <use id="arrowleft" xlink:href="#arrowLeft" x="0" y="0" onmousedown="handlePan(-1,0)"/>
</g>
<svg viewBox="0 0 15 15" width="100%" height="30px" preserveAspectRatio="xMaxYMin meet">
 <g id="arrow_out" transform="scale(0.3 0.3)">
  <a xlink:href="passwordconfiguration_8h__dep__incl_org.svg" target="_base">
   <rect id="button" ry="5" rx="5" y="6" x="6" height="38" width="38"
        fill="#f2f5e9" fill-opacity="0.5" stroke="#606060" stroke-width="1.0"/>
   <path id="arrow"
     d="M 11.500037,31.436501 C 11.940474,20.09759 22.043105,11.32322 32.158766,21.979434 L 37.068811,17.246167 C 37.068811,17.246167 37.088388,32 37.088388,32 L 22.160133,31.978069 C 22.160133,31.978069 26.997745,27.140456 26.997745,27.140456 C 18.528582,18.264221 13.291696,25.230495 11.500037,31.436501 z"
     style="fill:#404040;"/>
  </a>
 </g>
</svg>

<style type='text/css'>
<![CDATA[
[data-mouse-over-selected='false'] { opacity: 0.7; }
[data-mouse-over-selected='true']  { opacity: 1.0; }
]]>
</style>
<script type="application/ecmascript"><![CDATA[
document.addEventListener('DOMContentLoaded', (event) => {
  highlightEdges();
  highlightAdjacentNodes();
});
]]></script>
</svg>
