<?xml version="1.0" encoding="UTF-8" standalone="no"?>
<!DOCTYPE svg PUBLIC "-//W3C//DTD SVG 1.1//EN"
 "http://www.w3.org/Graphics/SVG/1.1/DTD/svg11.dtd">
<!-- Generated by graphviz version 2.43.0 (0)
 -->
<!-- Title: parseGrepOutput Pages: 1 -->
<svg width="381pt" height="64pt"
 viewBox="0.00 0.00 381.00 64.00" xmlns="http://www.w3.org/2000/svg" xmlns:xlink="http://www.w3.org/1999/xlink">
<g id="graph0" class="graph" transform="scale(1 1) rotate(0) translate(4 60)">
<title>parseGrepOutput</title>
<!-- Node1 -->
<g id="Node000001" class="node">
<title>Node1</title>
<g id="a_Node000001"><a xlink:title="Parses &#39;pass grep&#39; raw output into (entry, matches) pairs.">
<polygon fill="#999999" stroke="#666666" points="373,-37 273,-37 273,-18 373,-18 373,-37"/>
<text text-anchor="middle" x="323" y="-25" font-family="Helvetica,sans-Serif" font-size="10.00">parseGrepOutput</text>
</a>
</g>
</g>
<!-- Node2 -->
<g id="Node000002" class="node">
<title>Node2</title>
<g id="a_Node000002"><a xlink:href="class_pass.html#ad51174f24ecdbc14a55e4588a34b8563" target="_top" xlink:title="Handle process completion.">
<polygon fill="white" stroke="#666666" points="237,-37 154,-37 154,-18 237,-18 237,-37"/>
<text text-anchor="middle" x="195.5" y="-25" font-family="Helvetica,sans-Serif" font-size="10.00">Pass::finished</text>
</a>
</g>
</g>
<!-- Node1&#45;&gt;Node2 -->
<g id="edge1_Node000001_Node000002" class="edge">
<title>Node1&#45;&gt;Node2</title>
<g id="a_edge1_Node000001_Node000002"><a xlink:title=" ">
<path fill="none" stroke="#63b8ff" d="M262.67,-27.5C254.01,-27.5 245.27,-27.5 237.1,-27.5"/>
<polygon fill="#63b8ff" stroke="#63b8ff" points="262.76,-31 272.76,-27.5 262.76,-24 262.76,-31"/>
</a>
</g>
</g>
<!-- Node3 -->
<g id="Node000003" class="node">
<title>Node3</title>
<g id="a_Node000003"><a xlink:href="class_imitate_pass.html#aa0b75b53b2a2d62b0fbffbb5d2d7efe4" target="_top" xlink:title="Handle process completion.">
<polygon fill="white" stroke="#666666" points="118,-56 0,-56 0,-37 118,-37 118,-56"/>
<text text-anchor="middle" x="59" y="-44" font-family="Helvetica,sans-Serif" font-size="10.00">ImitatePass::finished</text>
</a>
</g>
</g>
<!-- Node2&#45;&gt;Node3 -->
<g id="edge2_Node000002_Node000003" class="edge">
<title>Node2&#45;&gt;Node3</title>
<g id="a_edge2_Node000002_Node000003"><a xlink:title=" ">
<path fill="none" stroke="#63b8ff" d="M143.87,-34.65C135.57,-35.82 126.91,-37.05 118.44,-38.24"/>
<polygon fill="#63b8ff" stroke="#63b8ff" points="144.37,-38.12 153.78,-33.25 143.39,-31.19 144.37,-38.12"/>
</a>
</g>
</g>
<!-- Node4 -->
<g id="Node000004" class="node">
<title>Node4</title>
<g id="a_Node000004"><a xlink:href="class_pass.html#a5d0cea4019f5c123fb4a4417de8d95b9" target="_top" xlink:title="Construct a Pass instance.">
<polygon fill="white" stroke="#666666" points="92,-19 26,-19 26,0 92,0 92,-19"/>
<text text-anchor="middle" x="59" y="-7" font-family="Helvetica,sans-Serif" font-size="10.00">Pass::Pass</text>
</a>
</g>
</g>
<!-- Node2&#45;&gt;Node4 -->
<g id="edge3_Node000002_Node000004" class="edge">
<title>Node2&#45;&gt;Node4</title>
<g id="a_edge3_Node000002_Node000004"><a xlink:title=" ">
<path fill="none" stroke="#63b8ff" d="M143.78,-20.71C126.43,-18.39 107.51,-15.86 92.05,-13.79"/>
<polygon fill="#63b8ff" stroke="#63b8ff" points="143.4,-24.19 153.78,-22.05 144.33,-17.25 143.4,-24.19"/>
</a>
</g>
</g>
</g>
</svg>
