<?xml version="1.0" encoding="UTF-8" standalone="no"?>
<!DOCTYPE svg PUBLIC "-//W3C//DTD SVG 1.1//EN"
 "http://www.w3.org/Graphics/SVG/1.1/DTD/svg11.dtd">
<!-- Generated by graphviz version 2.38.0 (20140413.2041)
 -->
<!-- Title: src/passworddialog.h Pages: 1 -->
<svg width="252pt" height="82pt"
 viewBox="0.00 0.00 251.99 82.00" xmlns="http://www.w3.org/2000/svg" xmlns:xlink="http://www.w3.org/1999/xlink">
<g id="graph0" class="graph" transform="scale(1 1) rotate(0) translate(4 78)">
<title>src/passworddialog.h</title>
<!-- Node15 -->
<g id="node1" class="node"><title>Node15</title>
<polygon fill="#bfbfbf" stroke="black" points="62.7759,-55.5 62.7759,-73.5 172.711,-73.5 172.711,-55.5 62.7759,-55.5"/>
<text text-anchor="middle" x="117.744" y="-61.5" font-family="Helvetica,sans-Serif" font-size="10.00">src/passworddialog.h</text>
</g>
<!-- Node16 -->
<g id="node2" class="node"><title>Node16</title>
<g id="a_node2"><a xlink:href="mainwindow_8cpp.html" target="_top" xlink:title="src/mainwindow.cpp">
<polygon fill="none" stroke="black" points="0,-0.5 0,-18.5 105.487,-18.5 105.487,-0.5 0,-0.5"/>
<text text-anchor="middle" x="52.7437" y="-6.5" font-family="Helvetica,sans-Serif" font-size="10.00">src/mainwindow.cpp</text>
</a>
</g>
</g>
<!-- Node15&#45;&gt;Node16 -->
<g id="edge1" class="edge"><title>Node15&#45;&gt;Node16</title>
<path fill="none" stroke="midnightblue" d="M99.8698,-48.9259C87.8954,-39.1622 72.574,-26.6693 62.7087,-18.6253"/>
<polygon fill="midnightblue" stroke="midnightblue" points="97.9095,-51.8436 107.872,-55.4504 102.333,-46.4184 97.9095,-51.8436"/>
</g>
<!-- Node17 -->
<g id="node3" class="node"><title>Node17</title>
<g id="a_node3"><a xlink:href="passworddialog_8cpp.html" target="_top" xlink:title="src/passworddialog.cpp">
<polygon fill="none" stroke="black" points="123.495,-0.5 123.495,-18.5 243.992,-18.5 243.992,-0.5 123.495,-0.5"/>
<text text-anchor="middle" x="183.744" y="-6.5" font-family="Helvetica,sans-Serif" font-size="10.00">src/passworddialog.cpp</text>
</a>
</g>
</g>
<!-- Node15&#45;&gt;Node17 -->
<g id="edge2" class="edge"><title>Node15&#45;&gt;Node17</title>
<path fill="none" stroke="midnightblue" d="M135.892,-48.9259C148.051,-39.1622 163.608,-26.6693 173.625,-18.6253"/>
<polygon fill="midnightblue" stroke="midnightblue" points="133.373,-46.46 127.768,-55.4504 137.756,-51.9181 133.373,-46.46"/>
</g>
</g>
</svg>
