<?xml version="1.0" encoding="UTF-8" standalone="no"?>
<!DOCTYPE svg PUBLIC "-//W3C//DTD SVG 1.1//EN"
 "http://www.w3.org/Graphics/SVG/1.1/DTD/svg11.dtd">
<!-- Generated by graphviz version 2.40.1 (20161225.0304)
 -->
<!-- Title: src/passworddialog.cpp Pages: 1 -->
<svg width="1457pt" height="302pt"
 viewBox="0.00 0.00 1457.02 302.00" xmlns="http://www.w3.org/2000/svg" xmlns:xlink="http://www.w3.org/1999/xlink">
<g id="graph0" class="graph" transform="scale(1 1) rotate(0) translate(4 298)">
<title>src/passworddialog.cpp</title>
<!-- Node0 -->
<g id="node1" class="node">
<title>Node0</title>
<polygon fill="#bfbfbf" stroke="#000000" points="1108.8154,-275.5 1108.8154,-293.5 1229.3125,-293.5 1229.3125,-275.5 1108.8154,-275.5"/>
<text text-anchor="middle" x="1169.064" y="-281.5" font-family="Helvetica,sans-Serif" font-size="10.00" fill="#000000">src/passworddialog.cpp</text>
</g>
<!-- Node1 -->
<g id="node2" class="node">
<title>Node1</title>
<g id="a_node2"><a xlink:href="passworddialog_8h.html" target="_top" xlink:title="passworddialog.h">
<polygon fill="none" stroke="#000000" points="80.1504,-165.5 80.1504,-183.5 173.9775,-183.5 173.9775,-165.5 80.1504,-165.5"/>
<text text-anchor="middle" x="127.064" y="-171.5" font-family="Helvetica,sans-Serif" font-size="10.00" fill="#000000">passworddialog.h</text>
</a>
</g>
</g>
<!-- Node0&#45;&gt;Node1 -->
<g id="edge1" class="edge">
<title>Node0&#45;&gt;Node1</title>
<path fill="none" stroke="#191970" d="M1108.7641,-281.1216C1001.4504,-274.8309 770.3376,-260.0266 576.064,-239 403.9726,-220.3742 359.0124,-211.3134 184.1597,-184.142"/>
<polygon fill="#191970" stroke="#191970" points="184.5201,-180.6561 174.1016,-182.5813 183.4467,-187.5733 184.5201,-180.6561"/>
</g>
<!-- Node11 -->
<g id="node12" class="node">
<title>Node11</title>
<polygon fill="none" stroke="#bfbfbf" points="1104.4409,-55.5 1104.4409,-73.5 1157.687,-73.5 1157.687,-55.5 1104.4409,-55.5"/>
<text text-anchor="middle" x="1131.064" y="-61.5" font-family="Helvetica,sans-Serif" font-size="10.00" fill="#000000">QDebug</text>
</g>
<!-- Node0&#45;&gt;Node11 -->
<g id="edge43" class="edge">
<title>Node0&#45;&gt;Node11</title>
<path fill="none" stroke="#191970" d="M1167.4795,-275.327C1161.7819,-242.3409 1142.2562,-129.2972 1134.3887,-83.7484"/>
<polygon fill="#191970" stroke="#191970" points="1137.8062,-82.9705 1132.6552,-73.7122 1130.9084,-84.162 1137.8062,-82.9705"/>
</g>
<!-- Node16 -->
<g id="node17" class="node">
<title>Node16</title>
<g id="a_node17"><a xlink:href="debughelper_8h.html" target="_top" xlink:title="debughelper.h">
<polygon fill="none" stroke="#000000" points="1159.3647,-110.5 1159.3647,-128.5 1238.7632,-128.5 1238.7632,-110.5 1159.3647,-110.5"/>
<text text-anchor="middle" x="1199.064" y="-116.5" font-family="Helvetica,sans-Serif" font-size="10.00" fill="#000000">debughelper.h</text>
</a>
</g>
</g>
<!-- Node0&#45;&gt;Node16 -->
<g id="edge20" class="edge">
<title>Node0&#45;&gt;Node16</title>
<path fill="none" stroke="#191970" d="M1170.7629,-275.1561C1175.5275,-248.9504 1189.0902,-174.3557 1195.5545,-138.8021"/>
<polygon fill="#191970" stroke="#191970" points="1199.0383,-139.2062 1197.3837,-128.7414 1192.1512,-137.954 1199.0383,-139.2062"/>
</g>
<!-- Node17 -->
<g id="node18" class="node">
<title>Node17</title>
<g id="a_node18"><a xlink:href="qtpasssettings_8h.html" target="_top" xlink:title="qtpasssettings.h">
<polygon fill="none" stroke="#000000" points="584.9312,-220.5 584.9312,-238.5 673.1968,-238.5 673.1968,-220.5 584.9312,-220.5"/>
<text text-anchor="middle" x="629.064" y="-226.5" font-family="Helvetica,sans-Serif" font-size="10.00" fill="#000000">qtpasssettings.h</text>
</a>
</g>
</g>
<!-- Node0&#45;&gt;Node17 -->
<g id="edge22" class="edge">
<title>Node0&#45;&gt;Node17</title>
<path fill="none" stroke="#191970" d="M1108.6909,-278.3509C1002.7915,-267.5648 785.1715,-245.3998 683.5666,-235.0512"/>
<polygon fill="#191970" stroke="#191970" points="683.8212,-231.5591 673.518,-234.0277 683.1118,-238.5231 683.8212,-231.5591"/>
</g>
<!-- Node30 -->
<g id="node31" class="node">
<title>Node30</title>
<polygon fill="none" stroke="#bfbfbf" points="1197.478,-220.5 1197.478,-238.5 1304.6499,-238.5 1304.6499,-220.5 1197.478,-220.5"/>
<text text-anchor="middle" x="1251.064" y="-226.5" font-family="Helvetica,sans-Serif" font-size="10.00" fill="#000000">ui_passworddialog.h</text>
</g>
<!-- Node0&#45;&gt;Node30 -->
<g id="edge42" class="edge">
<title>Node0&#45;&gt;Node30</title>
<path fill="none" stroke="#191970" d="M1182.6046,-275.4179C1195.1865,-266.9788 1214.1536,-254.257 1228.935,-244.3426"/>
<polygon fill="#191970" stroke="#191970" points="1231.1479,-247.0727 1237.5032,-238.5956 1227.2487,-241.2593 1231.1479,-247.0727"/>
</g>
<!-- Node31 -->
<g id="node32" class="node">
<title>Node31</title>
<polygon fill="none" stroke="#bfbfbf" points="1322.9409,-220.5 1322.9409,-238.5 1371.187,-238.5 1371.187,-220.5 1322.9409,-220.5"/>
<text text-anchor="middle" x="1347.064" y="-226.5" font-family="Helvetica,sans-Serif" font-size="10.00" fill="#000000">QLabel</text>
</g>
<!-- Node0&#45;&gt;Node31 -->
<g id="edge44" class="edge">
<title>Node0&#45;&gt;Node31</title>
<path fill="none" stroke="#191970" d="M1198.457,-275.4179C1229.9564,-265.6849 1279.892,-250.2554 1313.0628,-240.006"/>
<polygon fill="#191970" stroke="#191970" points="1314.259,-243.2997 1322.78,-237.0035 1312.1924,-236.6117 1314.259,-243.2997"/>
</g>
<!-- Node32 -->
<g id="node33" class="node">
<title>Node32</title>
<polygon fill="none" stroke="#bfbfbf" points="1389.106,-220.5 1389.106,-238.5 1449.022,-238.5 1449.022,-220.5 1389.106,-220.5"/>
<text text-anchor="middle" x="1419.064" y="-226.5" font-family="Helvetica,sans-Serif" font-size="10.00" fill="#000000">QLineEdit</text>
</g>
<!-- Node0&#45;&gt;Node32 -->
<g id="edge45" class="edge">
<title>Node0&#45;&gt;Node32</title>
<path fill="none" stroke="#191970" d="M1212.7829,-275.4259C1253.3377,-266.9295 1315.6291,-253.6794 1378.7198,-239.2665"/>
<polygon fill="#191970" stroke="#191970" points="1379.8843,-242.5904 1388.8491,-236.9439 1378.3198,-235.7674 1379.8843,-242.5904"/>
</g>
<!-- Node2 -->
<g id="node3" class="node">
<title>Node2</title>
<g id="a_node3"><a xlink:href="datahelpers_8h.html" target="_top" xlink:title="datahelpers.h">
<polygon fill="none" stroke="#000000" points="88.7637,-55.5 88.7637,-73.5 165.3643,-73.5 165.3643,-55.5 88.7637,-55.5"/>
<text text-anchor="middle" x="127.064" y="-61.5" font-family="Helvetica,sans-Serif" font-size="10.00" fill="#000000">datahelpers.h</text>
</a>
</g>
</g>
<!-- Node1&#45;&gt;Node2 -->
<g id="edge2" class="edge">
<title>Node1&#45;&gt;Node2</title>
<path fill="none" stroke="#191970" d="M128.8675,-165.4826C130.5983,-156.3362 133.0889,-141.7504 134.064,-129 135.2331,-113.712 133.1797,-96.4453 131.0002,-83.6269"/>
<polygon fill="#191970" stroke="#191970" points="134.4158,-82.8511 129.1304,-73.6688 127.536,-84.143 134.4158,-82.8511"/>
</g>
<!-- Node5 -->
<g id="node6" class="node">
<title>Node5</title>
<g id="a_node6"><a xlink:href="pass_8h.html" target="_top" xlink:title="pass.h">
<polygon fill="none" stroke="#000000" points="334.3325,-110.5 334.3325,-128.5 379.7954,-128.5 379.7954,-110.5 334.3325,-110.5"/>
<text text-anchor="middle" x="357.064" y="-116.5" font-family="Helvetica,sans-Serif" font-size="10.00" fill="#000000">pass.h</text>
</a>
</g>
</g>
<!-- Node1&#45;&gt;Node5 -->
<g id="edge5" class="edge">
<title>Node1&#45;&gt;Node5</title>
<path fill="none" stroke="#191970" d="M164.7862,-165.4795C209.1722,-154.8654 282.144,-137.4156 324.2726,-127.3414"/>
<polygon fill="#191970" stroke="#191970" points="325.1193,-130.7377 334.0311,-125.0079 323.4912,-123.9296 325.1193,-130.7377"/>
</g>
<!-- Node14 -->
<g id="node15" class="node">
<title>Node14</title>
<polygon fill="none" stroke="#bfbfbf" points="0,-110.5 0,-128.5 52.1279,-128.5 52.1279,-110.5 0,-110.5"/>
<text text-anchor="middle" x="26.064" y="-116.5" font-family="Helvetica,sans-Serif" font-size="10.00" fill="#000000">QDialog</text>
</g>
<!-- Node1&#45;&gt;Node14 -->
<g id="edge18" class="edge">
<title>Node1&#45;&gt;Node14</title>
<path fill="none" stroke="#191970" d="M110.3859,-165.4179C94.45,-156.7399 70.1981,-143.5334 51.7872,-133.5077"/>
<polygon fill="#191970" stroke="#191970" points="53.223,-130.3043 42.7668,-128.5956 49.8753,-136.4519 53.223,-130.3043"/>
</g>
<!-- Node15 -->
<g id="node16" class="node">
<title>Node15</title>
<polygon fill="none" stroke="#bfbfbf" points="70.6133,-110.5 70.6133,-128.5 125.5146,-128.5 125.5146,-110.5 70.6133,-110.5"/>
<text text-anchor="middle" x="98.064" y="-116.5" font-family="Helvetica,sans-Serif" font-size="10.00" fill="#000000">QWidget</text>
</g>
<!-- Node1&#45;&gt;Node15 -->
<g id="edge19" class="edge">
<title>Node1&#45;&gt;Node15</title>
<path fill="none" stroke="#191970" d="M122.2752,-165.4179C118.3111,-157.8998 112.5549,-146.9829 107.6497,-137.6799"/>
<polygon fill="#191970" stroke="#191970" points="110.7169,-135.9927 102.9568,-128.7795 104.5249,-139.2576 110.7169,-135.9927"/>
</g>
<!-- Node3 -->
<g id="node4" class="node">
<title>Node3</title>
<polygon fill="none" stroke="#bfbfbf" points="93.6855,-.5 93.6855,-18.5 160.4424,-18.5 160.4424,-.5 93.6855,-.5"/>
<text text-anchor="middle" x="127.064" y="-6.5" font-family="Helvetica,sans-Serif" font-size="10.00" fill="#000000">QDateTime</text>
</g>
<!-- Node2&#45;&gt;Node3 -->
<g id="edge3" class="edge">
<title>Node2&#45;&gt;Node3</title>
<path fill="none" stroke="#191970" d="M127.064,-55.4179C127.064,-48.2164 127.064,-37.8962 127.064,-28.8632"/>
<polygon fill="#191970" stroke="#191970" points="130.5641,-28.7794 127.064,-18.7795 123.5641,-28.7795 130.5641,-28.7794"/>
</g>
<!-- Node4 -->
<g id="node5" class="node">
<title>Node4</title>
<polygon fill="none" stroke="#bfbfbf" points="197.1133,-.5 197.1133,-18.5 247.0146,-18.5 247.0146,-.5 197.1133,-.5"/>
<text text-anchor="middle" x="222.064" y="-6.5" font-family="Helvetica,sans-Serif" font-size="10.00" fill="#000000">QString</text>
</g>
<!-- Node2&#45;&gt;Node4 -->
<g id="edge4" class="edge">
<title>Node2&#45;&gt;Node4</title>
<path fill="none" stroke="#191970" d="M142.7513,-55.4179C157.6029,-46.8195 180.1338,-33.7754 197.3909,-23.7844"/>
<polygon fill="#191970" stroke="#191970" points="199.4527,-26.635 206.3533,-18.5956 195.9454,-20.577 199.4527,-26.635"/>
</g>
<!-- Node5&#45;&gt;Node2 -->
<g id="edge6" class="edge">
<title>Node5&#45;&gt;Node2</title>
<path fill="none" stroke="#191970" d="M334.1698,-114.0253C297.2542,-105.1977 223.7959,-87.6316 175.0357,-75.9715"/>
<polygon fill="#191970" stroke="#191970" points="175.5675,-72.5001 165.0277,-73.5783 173.9394,-79.3081 175.5675,-72.5001"/>
</g>
<!-- Node5&#45;&gt;Node4 -->
<g id="edge17" class="edge">
<title>Node5&#45;&gt;Node4</title>
<path fill="none" stroke="#191970" d="M344.7299,-110.2537C332.7022,-101.1749 313.9515,-86.8562 298.064,-74 278.0864,-57.8342 255.7127,-38.7196 240.4449,-25.5169"/>
<polygon fill="#191970" stroke="#191970" points="242.602,-22.7547 232.7543,-18.8466 238.0155,-28.0428 242.602,-22.7547"/>
</g>
<!-- Node6 -->
<g id="node7" class="node">
<title>Node6</title>
<g id="a_node7"><a xlink:href="enums_8h.html" target="_top" xlink:title="enums.h">
<polygon fill="none" stroke="#000000" points="434.8867,-55.5 434.8867,-73.5 489.2412,-73.5 489.2412,-55.5 434.8867,-55.5"/>
<text text-anchor="middle" x="462.064" y="-61.5" font-family="Helvetica,sans-Serif" font-size="10.00" fill="#000000">enums.h</text>
</a>
</g>
</g>
<!-- Node5&#45;&gt;Node6 -->
<g id="edge7" class="edge">
<title>Node5&#45;&gt;Node6</title>
<path fill="none" stroke="#191970" d="M374.4026,-110.4179C391.0456,-101.7001 416.4134,-88.4122 435.585,-78.3699"/>
<polygon fill="#191970" stroke="#191970" points="437.4653,-81.3362 444.6996,-73.5956 434.2172,-75.1353 437.4653,-81.3362"/>
</g>
<!-- Node7 -->
<g id="node8" class="node">
<title>Node7</title>
<g id="a_node8"><a xlink:href="executor_8h.html" target="_top" xlink:title="executor.h">
<polygon fill="none" stroke="#000000" points="316.9902,-55.5 316.9902,-73.5 379.1377,-73.5 379.1377,-55.5 316.9902,-55.5"/>
<text text-anchor="middle" x="348.064" y="-61.5" font-family="Helvetica,sans-Serif" font-size="10.00" fill="#000000">executor.h</text>
</a>
</g>
</g>
<!-- Node5&#45;&gt;Node7 -->
<g id="edge8" class="edge">
<title>Node5&#45;&gt;Node7</title>
<path fill="none" stroke="#191970" d="M355.5778,-110.4179C354.3994,-103.2164 352.7106,-92.8962 351.2325,-83.8632"/>
<polygon fill="#191970" stroke="#191970" points="354.6515,-83.083 349.5824,-73.7795 347.7433,-84.2134 354.6515,-83.083"/>
</g>
<!-- Node9 -->
<g id="node10" class="node">
<title>Node9</title>
<polygon fill="none" stroke="#bfbfbf" points="366.1133,-.5 366.1133,-18.5 426.0146,-18.5 426.0146,-.5 366.1133,-.5"/>
<text text-anchor="middle" x="396.064" y="-6.5" font-family="Helvetica,sans-Serif" font-size="10.00" fill="#000000">QProcess</text>
</g>
<!-- Node5&#45;&gt;Node9 -->
<g id="edge15" class="edge">
<title>Node5&#45;&gt;Node9</title>
<path fill="none" stroke="#191970" d="M365.1499,-110.4823C372.4407,-101.7955 382.8008,-87.9515 388.064,-74 393.5471,-59.4654 395.4465,-41.9097 396.0308,-28.7858"/>
<polygon fill="#191970" stroke="#191970" points="399.5346,-28.6579 396.2629,-18.5809 392.5364,-28.4987 399.5346,-28.6579"/>
</g>
<!-- Node10 -->
<g id="node11" class="node">
<title>Node10</title>
<polygon fill="none" stroke="#bfbfbf" points="273.1626,-.5 273.1626,-18.5 326.9653,-18.5 326.9653,-.5 273.1626,-.5"/>
<text text-anchor="middle" x="300.064" y="-6.5" font-family="Helvetica,sans-Serif" font-size="10.00" fill="#000000">QQueue</text>
</g>
<!-- Node5&#45;&gt;Node10 -->
<g id="edge16" class="edge">
<title>Node5&#45;&gt;Node10</title>
<path fill="none" stroke="#191970" d="M342.4378,-110.2055C331.0441,-102.113 315.8896,-89.2955 308.064,-74 300.9169,-60.0308 299.1739,-42.2054 299.0729,-28.8353"/>
<polygon fill="#191970" stroke="#191970" points="302.572,-28.909 299.2916,-18.8348 295.5737,-28.7559 302.572,-28.909"/>
</g>
<!-- Node5&#45;&gt;Node11 -->
<g id="edge12" class="edge">
<title>Node5&#45;&gt;Node11</title>
<path fill="none" stroke="#191970" d="M379.854,-117.128C399.9093,-115.0848 429.906,-112.1362 456.064,-110 699.431,-90.125 992.6767,-72.5241 1094.2953,-66.6108"/>
<polygon fill="#191970" stroke="#191970" points="1094.5728,-70.1007 1104.3533,-66.0274 1094.1673,-63.1125 1094.5728,-70.1007"/>
</g>
<!-- Node12 -->
<g id="node13" class="node">
<title>Node12</title>
<polygon fill="none" stroke="#bfbfbf" points="506.7881,-55.5 506.7881,-73.5 543.3398,-73.5 543.3398,-55.5 506.7881,-55.5"/>
<text text-anchor="middle" x="525.064" y="-61.5" font-family="Helvetica,sans-Serif" font-size="10.00" fill="#000000">QDir</text>
</g>
<!-- Node5&#45;&gt;Node12 -->
<g id="edge13" class="edge">
<title>Node5&#45;&gt;Node12</title>
<path fill="none" stroke="#191970" d="M380.0817,-112.2759C406.2442,-104.0209 450.4518,-89.9401 497.1127,-74.2648"/>
<polygon fill="#191970" stroke="#191970" points="498.4285,-77.5149 506.7865,-71.0037 496.1923,-70.8816 498.4285,-77.5149"/>
</g>
<!-- Node13 -->
<g id="node14" class="node">
<title>Node13</title>
<polygon fill="none" stroke="#bfbfbf" points="183.394,-55.5 183.394,-73.5 222.7339,-73.5 222.7339,-55.5 183.394,-55.5"/>
<text text-anchor="middle" x="203.064" y="-61.5" font-family="Helvetica,sans-Serif" font-size="10.00" fill="#000000">QList</text>
</g>
<!-- Node5&#45;&gt;Node13 -->
<g id="edge14" class="edge">
<title>Node5&#45;&gt;Node13</title>
<path fill="none" stroke="#191970" d="M334.0086,-111.2659C306.9876,-101.6156 262.1556,-85.6042 232.6071,-75.0511"/>
<polygon fill="#191970" stroke="#191970" points="233.4418,-71.6327 222.8471,-71.5654 231.0874,-78.2249 233.4418,-71.6327"/>
</g>
<!-- Node8 -->
<g id="node9" class="node">
<title>Node8</title>
<polygon fill="none" stroke="#bfbfbf" points="530.7241,-.5 530.7241,-18.5 583.4038,-18.5 583.4038,-.5 530.7241,-.5"/>
<text text-anchor="middle" x="557.064" y="-6.5" font-family="Helvetica,sans-Serif" font-size="10.00" fill="#000000">QObject</text>
</g>
<!-- Node7&#45;&gt;Node8 -->
<g id="edge9" class="edge">
<title>Node7&#45;&gt;Node8</title>
<path fill="none" stroke="#191970" d="M379.3534,-56.2659C417.1703,-46.3141 480.6934,-29.5975 520.666,-19.0784"/>
<polygon fill="#191970" stroke="#191970" points="521.7568,-22.4106 530.5368,-16.4808 519.9753,-15.6411 521.7568,-22.4106"/>
</g>
<!-- Node7&#45;&gt;Node9 -->
<g id="edge10" class="edge">
<title>Node7&#45;&gt;Node9</title>
<path fill="none" stroke="#191970" d="M355.9902,-55.4179C362.8277,-47.5833 372.8865,-36.0575 381.2157,-26.5137"/>
<polygon fill="#191970" stroke="#191970" points="384.0271,-28.6151 387.9655,-18.7795 378.7532,-24.0123 384.0271,-28.6151"/>
</g>
<!-- Node7&#45;&gt;Node10 -->
<g id="edge11" class="edge">
<title>Node7&#45;&gt;Node10</title>
<path fill="none" stroke="#191970" d="M340.1377,-55.4179C333.3003,-47.5833 323.2414,-36.0575 314.9123,-26.5137"/>
<polygon fill="#191970" stroke="#191970" points="317.3748,-24.0123 308.1624,-18.7795 312.1008,-28.6151 317.3748,-24.0123"/>
</g>
<!-- Node16&#45;&gt;Node11 -->
<g id="edge21" class="edge">
<title>Node16&#45;&gt;Node11</title>
<path fill="none" stroke="#191970" d="M1187.8351,-110.4179C1177.6595,-102.1876 1162.4477,-89.8839 1150.3309,-80.0836"/>
<polygon fill="#191970" stroke="#191970" points="1152.5129,-77.3469 1142.5367,-73.7795 1148.1108,-82.7895 1152.5129,-77.3469"/>
</g>
<!-- Node17&#45;&gt;Node5 -->
<g id="edge29" class="edge">
<title>Node17&#45;&gt;Node5</title>
<path fill="none" stroke="#191970" d="M584.8817,-224.2607C545.399,-218.3449 486.7479,-206.4609 440.064,-184 414.577,-171.7375 389.529,-150.6822 373.7299,-135.975"/>
<polygon fill="#191970" stroke="#191970" points="376.0096,-133.3125 366.3578,-128.9429 371.178,-138.3777 376.0096,-133.3125"/>
</g>
<!-- Node17&#45;&gt;Node6 -->
<g id="edge23" class="edge">
<title>Node17&#45;&gt;Node6</title>
<path fill="none" stroke="#191970" d="M584.5841,-221.3967C544.2973,-213.2144 488.8986,-199.5836 473.064,-184 446.558,-157.9143 451.6675,-110.1075 457.1903,-83.5527"/>
<polygon fill="#191970" stroke="#191970" points="460.6491,-84.1299 459.4916,-73.5985 453.829,-82.5531 460.6491,-84.1299"/>
</g>
<!-- Node17&#45;&gt;Node8 -->
<g id="edge37" class="edge">
<title>Node17&#45;&gt;Node8</title>
<path fill="none" stroke="#191970" d="M630.6429,-220.4634C634.8979,-193.4306 644.34,-111.5657 614.064,-55 607.2276,-42.2274 595.1164,-31.7832 583.8109,-24.1375"/>
<polygon fill="#191970" stroke="#191970" points="585.361,-20.9777 575.0331,-18.6147 581.6333,-26.9025 585.361,-20.9777"/>
</g>
<!-- Node17&#45;&gt;Node12 -->
<g id="edge34" class="edge">
<title>Node17&#45;&gt;Node12</title>
<path fill="none" stroke="#191970" d="M626.497,-220.4271C620.2832,-199.508 602.9354,-146.8635 576.064,-110 567.7639,-98.6135 556.1902,-88.0003 546.166,-79.8931"/>
<polygon fill="#191970" stroke="#191970" points="548.2585,-77.0865 538.2159,-73.7104 543.9612,-82.6122 548.2585,-77.0865"/>
</g>
<!-- Node18 -->
<g id="node19" class="node">
<title>Node18</title>
<g id="a_node19"><a xlink:href="imitatepass_8h.html" target="_top" xlink:title="imitatepass.h">
<polygon fill="none" stroke="#000000" points="481.606,-165.5 481.606,-183.5 556.522,-183.5 556.522,-165.5 481.606,-165.5"/>
<text text-anchor="middle" x="519.064" y="-171.5" font-family="Helvetica,sans-Serif" font-size="10.00" fill="#000000">imitatepass.h</text>
</a>
</g>
</g>
<!-- Node17&#45;&gt;Node18 -->
<g id="edge24" class="edge">
<title>Node17&#45;&gt;Node18</title>
<path fill="none" stroke="#191970" d="M610.8997,-220.4179C593.305,-211.6205 566.4022,-198.1691 546.2552,-188.0956"/>
<polygon fill="#191970" stroke="#191970" points="547.7648,-184.9373 537.2552,-183.5956 544.6342,-191.1983 547.7648,-184.9373"/>
</g>
<!-- Node21 -->
<g id="node22" class="node">
<title>Node21</title>
<g id="a_node22"><a xlink:href="realpass_8h.html" target="_top" xlink:title="realpass.h">
<polygon fill="none" stroke="#000000" points="325.9951,-165.5 325.9951,-183.5 388.1328,-183.5 388.1328,-165.5 325.9951,-165.5"/>
<text text-anchor="middle" x="357.064" y="-171.5" font-family="Helvetica,sans-Serif" font-size="10.00" fill="#000000">realpass.h</text>
</a>
</g>
</g>
<!-- Node17&#45;&gt;Node21 -->
<g id="edge30" class="edge">
<title>Node17&#45;&gt;Node21</title>
<path fill="none" stroke="#191970" d="M584.6699,-220.7412C538.8903,-211.6763 465.4477,-197.0425 402.064,-184 400.8322,-183.7465 399.5816,-183.4883 398.3193,-183.2268"/>
<polygon fill="#191970" stroke="#191970" points="399.0306,-179.7999 388.5267,-181.185 397.6017,-186.6526 399.0306,-179.7999"/>
</g>
<!-- Node22 -->
<g id="node23" class="node">
<title>Node22</title>
<polygon fill="none" stroke="#bfbfbf" points="657.2241,-165.5 657.2241,-183.5 724.9038,-183.5 724.9038,-165.5 657.2241,-165.5"/>
<text text-anchor="middle" x="691.064" y="-171.5" font-family="Helvetica,sans-Serif" font-size="10.00" fill="#000000">QByteArray</text>
</g>
<!-- Node17&#45;&gt;Node22 -->
<g id="edge32" class="edge">
<title>Node17&#45;&gt;Node22</title>
<path fill="none" stroke="#191970" d="M639.302,-220.4179C648.4014,-212.3458 661.9176,-200.3556 672.8566,-190.6517"/>
<polygon fill="#191970" stroke="#191970" points="675.4454,-193.0339 680.6035,-183.7795 670.8001,-187.7974 675.4454,-193.0339"/>
</g>
<!-- Node23 -->
<g id="node24" class="node">
<title>Node23</title>
<polygon fill="none" stroke="#bfbfbf" points="742.877,-165.5 742.877,-183.5 837.251,-183.5 837.251,-165.5 742.877,-165.5"/>
<text text-anchor="middle" x="790.064" y="-171.5" font-family="Helvetica,sans-Serif" font-size="10.00" fill="#000000">QCoreApplication</text>
</g>
<!-- Node17&#45;&gt;Node23 -->
<g id="edge33" class="edge">
<title>Node17&#45;&gt;Node23</title>
<path fill="none" stroke="#191970" d="M655.6498,-220.4179C682.5311,-211.2348 724.2567,-196.9807 754.0852,-186.7909"/>
<polygon fill="#191970" stroke="#191970" points="755.3746,-190.0491 763.7062,-183.5042 753.1116,-183.4249 755.3746,-190.0491"/>
</g>
<!-- Node24 -->
<g id="node25" class="node">
<title>Node24</title>
<polygon fill="none" stroke="#bfbfbf" points="855.1182,-165.5 855.1182,-183.5 895.0098,-183.5 895.0098,-165.5 855.1182,-165.5"/>
<text text-anchor="middle" x="875.064" y="-171.5" font-family="Helvetica,sans-Serif" font-size="10.00" fill="#000000">QFile</text>
</g>
<!-- Node17&#45;&gt;Node24 -->
<g id="edge35" class="edge">
<title>Node17&#45;&gt;Node24</title>
<path fill="none" stroke="#191970" d="M673.4546,-221.6714C715.3988,-213.9451 780.2269,-201.1567 844.9103,-184.0918"/>
<polygon fill="#191970" stroke="#191970" points="846.1107,-187.3939 854.8676,-181.43 844.3029,-180.6313 846.1107,-187.3939"/>
</g>
<!-- Node25 -->
<g id="node26" class="node">
<title>Node25</title>
<polygon fill="none" stroke="#bfbfbf" points="913.5024,-165.5 913.5024,-183.5 960.6255,-183.5 960.6255,-165.5 913.5024,-165.5"/>
<text text-anchor="middle" x="937.064" y="-171.5" font-family="Helvetica,sans-Serif" font-size="10.00" fill="#000000">QHash</text>
</g>
<!-- Node17&#45;&gt;Node25 -->
<g id="edge36" class="edge">
<title>Node17&#45;&gt;Node25</title>
<path fill="none" stroke="#191970" d="M673.6671,-223.7471C726.2932,-216.6003 816.5684,-203.2184 903.3417,-183.9377"/>
<polygon fill="#191970" stroke="#191970" points="904.3697,-187.2939 913.3563,-181.6822 902.8317,-180.4649 904.3697,-187.2939"/>
</g>
<!-- Node26 -->
<g id="node27" class="node">
<title>Node26</title>
<polygon fill="none" stroke="#bfbfbf" points="978.7783,-165.5 978.7783,-183.5 1025.3496,-183.5 1025.3496,-165.5 978.7783,-165.5"/>
<text text-anchor="middle" x="1002.064" y="-171.5" font-family="Helvetica,sans-Serif" font-size="10.00" fill="#000000">QPoint</text>
</g>
<!-- Node17&#45;&gt;Node26 -->
<g id="edge38" class="edge">
<title>Node17&#45;&gt;Node26</title>
<path fill="none" stroke="#191970" d="M673.3117,-225.8181C736.7915,-220.0507 857.4513,-207.284 968.7077,-184.0134"/>
<polygon fill="#191970" stroke="#191970" points="969.7001,-187.3807 978.7536,-181.8776 968.2444,-180.5337 969.7001,-187.3807"/>
</g>
<!-- Node27 -->
<g id="node28" class="node">
<title>Node27</title>
<polygon fill="none" stroke="#bfbfbf" points="1043.1084,-165.5 1043.1084,-183.5 1103.0195,-183.5 1103.0195,-165.5 1043.1084,-165.5"/>
<text text-anchor="middle" x="1073.064" y="-171.5" font-family="Helvetica,sans-Serif" font-size="10.00" fill="#000000">QSettings</text>
</g>
<!-- Node17&#45;&gt;Node27 -->
<g id="edge39" class="edge">
<title>Node17&#45;&gt;Node27</title>
<path fill="none" stroke="#191970" d="M673.376,-226.3749C746.3241,-220.8271 896.3974,-207.7194 1032.7045,-184.0434"/>
<polygon fill="#191970" stroke="#191970" points="1033.6691,-187.4275 1042.9105,-182.246 1032.455,-180.5336 1033.6691,-187.4275"/>
</g>
<!-- Node28 -->
<g id="node29" class="node">
<title>Node28</title>
<polygon fill="none" stroke="#bfbfbf" points="192.4482,-165.5 192.4482,-183.5 235.6797,-183.5 235.6797,-165.5 192.4482,-165.5"/>
<text text-anchor="middle" x="214.064" y="-171.5" font-family="Helvetica,sans-Serif" font-size="10.00" fill="#000000">QSize</text>
</g>
<!-- Node17&#45;&gt;Node28 -->
<g id="edge40" class="edge">
<title>Node17&#45;&gt;Node28</title>
<path fill="none" stroke="#191970" d="M584.8802,-226.8503C514.836,-222.0882 373.9793,-210.2275 245.9323,-183.8324"/>
<polygon fill="#191970" stroke="#191970" points="246.4577,-180.3665 235.9522,-181.7397 245.0211,-187.2175 246.4577,-180.3665"/>
</g>
<!-- Node29 -->
<g id="node30" class="node">
<title>Node29</title>
<polygon fill="none" stroke="#bfbfbf" points="253.7012,-165.5 253.7012,-183.5 308.4268,-183.5 308.4268,-165.5 253.7012,-165.5"/>
<text text-anchor="middle" x="281.064" y="-171.5" font-family="Helvetica,sans-Serif" font-size="10.00" fill="#000000">QVariant</text>
</g>
<!-- Node17&#45;&gt;Node29 -->
<g id="edge41" class="edge">
<title>Node17&#45;&gt;Node29</title>
<path fill="none" stroke="#191970" d="M584.8724,-224.6533C526.1224,-217.859 418.9197,-204.2424 318.5119,-184.1162"/>
<polygon fill="#191970" stroke="#191970" points="319.0025,-180.6444 308.5059,-182.084 317.6092,-187.5044 319.0025,-180.6444"/>
</g>
<!-- Node18&#45;&gt;Node5 -->
<g id="edge25" class="edge">
<title>Node18&#45;&gt;Node5</title>
<path fill="none" stroke="#191970" d="M492.313,-165.4179C464.1343,-155.8511 419.7447,-140.7805 389.568,-130.5353"/>
<polygon fill="#191970" stroke="#191970" points="390.5174,-127.1615 379.923,-127.2608 388.2669,-133.7899 390.5174,-127.1615"/>
</g>
<!-- Node19 -->
<g id="node20" class="node">
<title>Node19</title>
<g id="a_node20"><a xlink:href="simpletransaction_8h.html" target="_top" xlink:title="simpletransaction.h">
<polygon fill="none" stroke="#000000" points="464.9878,-110.5 464.9878,-128.5 567.1401,-128.5 567.1401,-110.5 464.9878,-110.5"/>
<text text-anchor="middle" x="516.064" y="-116.5" font-family="Helvetica,sans-Serif" font-size="10.00" fill="#000000">simpletransaction.h</text>
</a>
</g>
</g>
<!-- Node18&#45;&gt;Node19 -->
<g id="edge26" class="edge">
<title>Node18&#45;&gt;Node19</title>
<path fill="none" stroke="#191970" d="M518.5686,-165.4179C518.1758,-158.2164 517.6128,-147.8962 517.1201,-138.8632"/>
<polygon fill="#191970" stroke="#191970" points="520.6097,-138.574 516.5701,-128.7795 513.6201,-138.9553 520.6097,-138.574"/>
</g>
<!-- Node19&#45;&gt;Node6 -->
<g id="edge27" class="edge">
<title>Node19&#45;&gt;Node6</title>
<path fill="none" stroke="#191970" d="M507.147,-110.4179C499.2994,-102.425 487.6799,-90.5903 478.2028,-80.9377"/>
<polygon fill="#191970" stroke="#191970" points="480.6781,-78.463 471.1747,-73.7795 475.6832,-83.3672 480.6781,-78.463"/>
</g>
<!-- Node20 -->
<g id="node21" class="node">
<title>Node20</title>
<polygon fill="none" stroke="#bfbfbf" points="561.1602,-55.5 561.1602,-73.5 604.9678,-73.5 604.9678,-55.5 561.1602,-55.5"/>
<text text-anchor="middle" x="583.064" y="-61.5" font-family="Helvetica,sans-Serif" font-size="10.00" fill="#000000">queue</text>
</g>
<!-- Node19&#45;&gt;Node20 -->
<g id="edge28" class="edge">
<title>Node19&#45;&gt;Node20</title>
<path fill="none" stroke="#191970" d="M527.1277,-110.4179C537.0572,-102.2667 551.854,-90.1201 563.7351,-80.3669"/>
<polygon fill="#191970" stroke="#191970" points="566.2513,-82.8297 571.7599,-73.7795 561.8099,-77.4192 566.2513,-82.8297"/>
</g>
<!-- Node21&#45;&gt;Node5 -->
<g id="edge31" class="edge">
<title>Node21&#45;&gt;Node5</title>
<path fill="none" stroke="#191970" d="M357.064,-165.4179C357.064,-158.2164 357.064,-147.8962 357.064,-138.8632"/>
<polygon fill="#191970" stroke="#191970" points="360.5641,-138.7794 357.064,-128.7795 353.5641,-138.7795 360.5641,-138.7794"/>
</g>
</g>
</svg>
