<?xml version="1.0" encoding="UTF-8" standalone="no"?>
<!DOCTYPE svg PUBLIC "-//W3C//DTD SVG 1.1//EN"
 "http://www.w3.org/Graphics/SVG/1.1/DTD/svg11.dtd">
<!-- Generated by graphviz version 2.43.0 (0)
 -->
<!-- Title: src/passworddialog.cpp Pages: 1 -->
<svg width="1040pt" height="302pt"
 viewBox="0.00 0.00 1039.50 302.00" xmlns="http://www.w3.org/2000/svg" xmlns:xlink="http://www.w3.org/1999/xlink">
<g id="graph0" class="graph" transform="scale(1 1) rotate(0) translate(4 298)">
<title>src/passworddialog.cpp</title>
<!-- Node1 -->
<g id="Node000001" class="node">
<title>Node1</title>
<g id="a_Node000001"><a xlink:title=" ">
<polygon fill="#999999" stroke="#666666" points="701.5,-294 570.5,-294 570.5,-275 701.5,-275 701.5,-294"/>
<text text-anchor="middle" x="636" y="-282" font-family="Helvetica,sans-Serif" font-size="10.00">src/passworddialog.cpp</text>
</a>
</g>
</g>
<!-- Node2 -->
<g id="Node000002" class="node">
<title>Node2</title>
<g id="a_Node000002"><a xlink:href="passworddialog_8h.html" target="_top" xlink:title=" ">
<polygon fill="white" stroke="#666666" points="172,-239 70,-239 70,-220 172,-220 172,-239"/>
<text text-anchor="middle" x="121" y="-227" font-family="Helvetica,sans-Serif" font-size="10.00">passworddialog.h</text>
</a>
</g>
</g>
<!-- Node1&#45;&gt;Node2 -->
<g id="edge1_Node000001_Node000002" class="edge">
<title>Node1&#45;&gt;Node2</title>
<g id="a_edge1_Node000001_Node000002"><a xlink:title=" ">
<path fill="none" stroke="#63b8ff" d="M570.35,-277.66C482.66,-269.71 322.49,-254.67 186,-239 184.73,-238.85 183.44,-238.7 182.15,-238.55"/>
<polygon fill="#63b8ff" stroke="#63b8ff" points="182.42,-235.06 172.08,-237.33 181.58,-242.01 182.42,-235.06"/>
</a>
</g>
</g>
<!-- Node3 -->
<g id="Node000003" class="node">
<title>Node3</title>
<g id="a_Node000003"><a xlink:href="passwordconfiguration_8h.html" target="_top" xlink:title=" ">
<polygon fill="white" stroke="#666666" points="210,-184 74,-184 74,-165 210,-165 210,-184"/>
<text text-anchor="middle" x="142" y="-172" font-family="Helvetica,sans-Serif" font-size="10.00">passwordconfiguration.h</text>
</a>
</g>
</g>
<!-- Node1&#45;&gt;Node3 -->
<g id="edge25_Node000001_Node000003" class="edge">
<title>Node1&#45;&gt;Node3</title>
<g id="a_edge25_Node000001_Node000003"><a xlink:title=" ">
<path fill="none" stroke="#63b8ff" d="M570.31,-280.75C470.36,-275.84 285.22,-263.68 224,-239 197.55,-228.34 172.44,-206.56 157.14,-191.5"/>
<polygon fill="#63b8ff" stroke="#63b8ff" points="159.59,-189 150.07,-184.34 154.6,-193.92 159.59,-189"/>
</a>
</g>
</g>
<!-- Node6 -->
<g id="Node000006" class="node">
<title>Node6</title>
<g id="a_Node000006"><a xlink:href="filecontent_8h.html" target="_top" xlink:title=" ">
<polygon fill="white" stroke="#666666" points="290.5,-129 213.5,-129 213.5,-110 290.5,-110 290.5,-129"/>
<text text-anchor="middle" x="252" y="-117" font-family="Helvetica,sans-Serif" font-size="10.00">filecontent.h</text>
</a>
</g>
</g>
<!-- Node1&#45;&gt;Node6 -->
<g id="edge5_Node000001_Node000006" class="edge">
<title>Node1&#45;&gt;Node6</title>
<g id="a_edge5_Node000001_Node000006"><a xlink:title=" ">
<path fill="none" stroke="#63b8ff" d="M570.33,-280.43C494,-273.64 368.03,-252.08 286,-184 271.89,-172.29 262.79,-153.16 257.59,-138.96"/>
<polygon fill="#63b8ff" stroke="#63b8ff" points="260.84,-137.64 254.35,-129.26 254.2,-139.85 260.84,-137.64"/>
</a>
</g>
</g>
<!-- Node9 -->
<g id="Node000009" class="node">
<title>Node9</title>
<g id="a_Node000009"><a xlink:href="helpers_8h.html" target="_top" xlink:title="Utility macros for QtPass.">
<polygon fill="white" stroke="#666666" points="531,-239 469,-239 469,-220 531,-220 531,-239"/>
<text text-anchor="middle" x="500" y="-227" font-family="Helvetica,sans-Serif" font-size="10.00">helpers.h</text>
</a>
</g>
</g>
<!-- Node1&#45;&gt;Node9 -->
<g id="edge9_Node000001_Node000009" class="edge">
<title>Node1&#45;&gt;Node9</title>
<g id="a_edge9_Node000001_Node000009"><a xlink:title=" ">
<path fill="none" stroke="#63b8ff" d="M614.15,-274.98C591.88,-266.3 557.1,-252.75 531.78,-242.88"/>
<polygon fill="#63b8ff" stroke="#63b8ff" points="532.84,-239.54 522.25,-239.17 530.29,-246.06 532.84,-239.54"/>
</a>
</g>
</g>
<!-- Node10 -->
<g id="Node000010" class="node">
<title>Node10</title>
<g id="a_Node000010"><a xlink:href="pass_8h.html" target="_top" xlink:title=" ">
<polygon fill="white" stroke="#666666" points="768,-129 720,-129 720,-110 768,-110 768,-129"/>
<text text-anchor="middle" x="744" y="-117" font-family="Helvetica,sans-Serif" font-size="10.00">pass.h</text>
</a>
</g>
</g>
<!-- Node1&#45;&gt;Node10 -->
<g id="edge10_Node000001_Node000010" class="edge">
<title>Node1&#45;&gt;Node10</title>
<g id="a_edge10_Node000001_Node000010"><a xlink:title=" ">
<path fill="none" stroke="#63b8ff" d="M641.15,-274.79C649.99,-260.69 669.51,-233.1 694,-220 787.16,-170.15 860.17,-264.17 929,-184 934.5,-177.59 934.23,-171.63 929,-165 910.57,-141.61 826.36,-129.1 778.15,-123.74"/>
<polygon fill="#63b8ff" stroke="#63b8ff" points="778.47,-120.25 768.16,-122.67 777.73,-127.21 778.47,-120.25"/>
</a>
</g>
</g>
<!-- Node20 -->
<g id="Node000020" class="node">
<title>Node20</title>
<g id="a_Node000020"><a xlink:href="qtpasssettings_8h.html" target="_top" xlink:title=" ">
<polygon fill="white" stroke="#666666" points="646.5,-239 549.5,-239 549.5,-220 646.5,-220 646.5,-239"/>
<text text-anchor="middle" x="598" y="-227" font-family="Helvetica,sans-Serif" font-size="10.00">qtpasssettings.h</text>
</a>
</g>
</g>
<!-- Node1&#45;&gt;Node20 -->
<g id="edge26_Node000001_Node000020" class="edge">
<title>Node1&#45;&gt;Node20</title>
<g id="a_edge26_Node000001_Node000020"><a xlink:title=" ">
<path fill="none" stroke="#63b8ff" d="M629.73,-274.75C624.41,-267.34 616.64,-256.5 610.12,-247.41"/>
<polygon fill="#63b8ff" stroke="#63b8ff" points="612.83,-245.18 604.16,-239.09 607.14,-249.26 612.83,-245.18"/>
</a>
</g>
</g>
<!-- Node32 -->
<g id="Node000032" class="node">
<title>Node32</title>
<g id="a_Node000032"><a xlink:title=" ">
<polygon fill="#e0e0e0" stroke="#999999" points="819,-239 703,-239 703,-220 819,-220 819,-239"/>
<text text-anchor="middle" x="761" y="-227" font-family="Helvetica,sans-Serif" font-size="10.00">ui_passworddialog.h</text>
</a>
</g>
</g>
<!-- Node1&#45;&gt;Node32 -->
<g id="edge44_Node000001_Node000032" class="edge">
<title>Node1&#45;&gt;Node32</title>
<g id="a_edge44_Node000001_Node000032"><a xlink:title=" ">
<path fill="none" stroke="#63b8ff" d="M656.08,-274.98C676.37,-266.38 707.96,-252.99 731.17,-243.15"/>
<polygon fill="#63b8ff" stroke="#63b8ff" points="732.71,-246.3 740.55,-239.17 729.98,-239.85 732.71,-246.3"/>
</a>
</g>
</g>
<!-- Node33 -->
<g id="Node000033" class="node">
<title>Node33</title>
<g id="a_Node000033"><a xlink:title=" ">
<polygon fill="#e0e0e0" stroke="#999999" points="887,-239 837,-239 837,-220 887,-220 887,-239"/>
<text text-anchor="middle" x="862" y="-227" font-family="Helvetica,sans-Serif" font-size="10.00">QLabel</text>
</a>
</g>
</g>
<!-- Node1&#45;&gt;Node33 -->
<g id="edge45_Node000001_Node000033" class="edge">
<title>Node1&#45;&gt;Node33</title>
<g id="a_edge45_Node000001_Node000033"><a xlink:title=" ">
<path fill="none" stroke="#63b8ff" d="M673.57,-274.99C710.27,-266.64 767.95,-253.39 826.91,-239.23"/>
<polygon fill="#63b8ff" stroke="#63b8ff" points="827.86,-242.6 836.76,-236.86 826.22,-235.8 827.86,-242.6"/>
</a>
</g>
</g>
<!-- Node34 -->
<g id="Node000034" class="node">
<title>Node34</title>
<g id="a_Node000034"><a xlink:title=" ">
<polygon fill="#e0e0e0" stroke="#999999" points="968.5,-239 905.5,-239 905.5,-220 968.5,-220 968.5,-239"/>
<text text-anchor="middle" x="937" y="-227" font-family="Helvetica,sans-Serif" font-size="10.00">QLineEdit</text>
</a>
</g>
</g>
<!-- Node1&#45;&gt;Node34 -->
<g id="edge46_Node000001_Node000034" class="edge">
<title>Node1&#45;&gt;Node34</title>
<g id="a_edge46_Node000001_Node000034"><a xlink:title=" ">
<path fill="none" stroke="#63b8ff" d="M689.38,-274.92C739.85,-266.69 817.95,-253.62 895.32,-239.07"/>
<polygon fill="#63b8ff" stroke="#63b8ff" points="896.06,-242.49 905.24,-237.2 894.76,-235.62 896.06,-242.49"/>
</a>
</g>
</g>
<!-- Node35 -->
<g id="Node000035" class="node">
<title>Node35</title>
<g id="a_Node000035"><a xlink:title=" ">
<polygon fill="#e0e0e0" stroke="#999999" points="1031.5,-239 986.5,-239 986.5,-220 1031.5,-220 1031.5,-239"/>
<text text-anchor="middle" x="1009" y="-227" font-family="Helvetica,sans-Serif" font-size="10.00">utility</text>
</a>
</g>
</g>
<!-- Node1&#45;&gt;Node35 -->
<g id="edge47_Node000001_Node000035" class="edge">
<title>Node1&#45;&gt;Node35</title>
<g id="a_edge47_Node000001_Node000035"><a xlink:title=" ">
<path fill="none" stroke="#63b8ff" d="M701.69,-277.68C768.64,-271.12 875.59,-258.97 976.36,-239.1"/>
<polygon fill="#63b8ff" stroke="#63b8ff" points="977.28,-242.48 986.4,-237.09 975.91,-235.62 977.28,-242.48"/>
</a>
</g>
</g>
<!-- Node2&#45;&gt;Node3 -->
<g id="edge2_Node000002_Node000003" class="edge">
<title>Node2&#45;&gt;Node3</title>
<g id="a_edge2_Node000002_Node000003"><a xlink:title=" ">
<path fill="none" stroke="#63b8ff" d="M124.47,-219.75C127.28,-212.65 131.34,-202.4 134.85,-193.56"/>
<polygon fill="#63b8ff" stroke="#63b8ff" points="138.17,-194.68 138.6,-184.09 131.66,-192.1 138.17,-194.68"/>
</a>
</g>
</g>
<!-- Node5 -->
<g id="Node000005" class="node">
<title>Node5</title>
<g id="a_Node000005"><a xlink:title=" ">
<polygon fill="#e0e0e0" stroke="#999999" points="56,-184 0,-184 0,-165 56,-165 56,-184"/>
<text text-anchor="middle" x="28" y="-172" font-family="Helvetica,sans-Serif" font-size="10.00">QDialog</text>
</a>
</g>
</g>
<!-- Node2&#45;&gt;Node5 -->
<g id="edge4_Node000002_Node000005" class="edge">
<title>Node2&#45;&gt;Node5</title>
<g id="a_edge4_Node000002_Node000005"><a xlink:title=" ">
<path fill="none" stroke="#63b8ff" d="M106.06,-219.98C91.5,-211.69 69.13,-198.94 52.07,-189.22"/>
<polygon fill="#63b8ff" stroke="#63b8ff" points="53.64,-186.08 43.21,-184.17 50.17,-192.16 53.64,-186.08"/>
</a>
</g>
</g>
<!-- Node4 -->
<g id="Node000004" class="node">
<title>Node4</title>
<g id="a_Node000004"><a xlink:title=" ">
<polygon fill="#e0e0e0" stroke="#999999" points="438.5,-19 385.5,-19 385.5,0 438.5,0 438.5,-19"/>
<text text-anchor="middle" x="412" y="-7" font-family="Helvetica,sans-Serif" font-size="10.00">QString</text>
</a>
</g>
</g>
<!-- Node3&#45;&gt;Node4 -->
<g id="edge3_Node000003_Node000004" class="edge">
<title>Node3&#45;&gt;Node4</title>
<g id="a_edge3_Node000003_Node000004"><a xlink:title=" ">
<path fill="none" stroke="#63b8ff" d="M144.2,-164.69C150.23,-142.45 169.24,-83.78 208,-55 257.47,-18.27 331.19,-10.69 375.14,-9.75"/>
<polygon fill="#63b8ff" stroke="#63b8ff" points="375.41,-13.25 385.37,-9.64 375.34,-6.25 375.41,-13.25"/>
</a>
</g>
</g>
<!-- Node6&#45;&gt;Node4 -->
<g id="edge7_Node000006_Node000004" class="edge">
<title>Node6&#45;&gt;Node4</title>
<g id="a_edge7_Node000006_Node000004"><a xlink:title=" ">
<path fill="none" stroke="#63b8ff" d="M257.17,-109.97C265.65,-96.62 283.72,-70.67 305,-55 326.21,-39.38 353.72,-28.1 375.53,-20.8"/>
<polygon fill="#63b8ff" stroke="#63b8ff" points="376.66,-24.11 385.11,-17.73 374.52,-17.45 376.66,-24.11"/>
</a>
</g>
</g>
<!-- Node7 -->
<g id="Node000007" class="node">
<title>Node7</title>
<g id="a_Node000007"><a xlink:title=" ">
<polygon fill="#e0e0e0" stroke="#999999" points="257.5,-74 216.5,-74 216.5,-55 257.5,-55 257.5,-74"/>
<text text-anchor="middle" x="237" y="-62" font-family="Helvetica,sans-Serif" font-size="10.00">QList</text>
</a>
</g>
</g>
<!-- Node6&#45;&gt;Node7 -->
<g id="edge6_Node000006_Node000007" class="edge">
<title>Node6&#45;&gt;Node7</title>
<g id="a_edge6_Node000006_Node000007"><a xlink:title=" ">
<path fill="none" stroke="#63b8ff" d="M249.52,-109.75C247.54,-102.72 244.68,-92.62 242.19,-83.84"/>
<polygon fill="#63b8ff" stroke="#63b8ff" points="245.52,-82.76 239.43,-74.09 238.79,-84.66 245.52,-82.76"/>
</a>
</g>
</g>
<!-- Node8 -->
<g id="Node000008" class="node">
<title>Node8</title>
<g id="a_Node000008"><a xlink:title=" ">
<polygon fill="#e0e0e0" stroke="#999999" points="384,-74 314,-74 314,-55 384,-55 384,-74"/>
<text text-anchor="middle" x="349" y="-62" font-family="Helvetica,sans-Serif" font-size="10.00">QStringList</text>
</a>
</g>
</g>
<!-- Node6&#45;&gt;Node8 -->
<g id="edge8_Node000006_Node000008" class="edge">
<title>Node6&#45;&gt;Node8</title>
<g id="a_edge8_Node000006_Node000008"><a xlink:title=" ">
<path fill="none" stroke="#63b8ff" d="M267.58,-109.98C282.77,-101.69 306.1,-88.94 323.9,-79.22"/>
<polygon fill="#63b8ff" stroke="#63b8ff" points="326.03,-82.04 333.13,-74.17 322.68,-75.89 326.03,-82.04"/>
</a>
</g>
</g>
<!-- Node10&#45;&gt;Node4 -->
<g id="edge21_Node000010_Node000004" class="edge">
<title>Node10&#45;&gt;Node4</title>
<g id="a_edge21_Node000010_Node000004"><a xlink:title=" ">
<path fill="none" stroke="#63b8ff" d="M719.63,-111.39C692.69,-103.3 648.19,-89.2 611,-74 593.15,-66.7 590.03,-61.83 572,-55 530.64,-39.32 481.4,-26.46 448.57,-18.66"/>
<polygon fill="#63b8ff" stroke="#63b8ff" points="449.06,-15.18 438.52,-16.31 447.46,-22 449.06,-15.18"/>
</a>
</g>
</g>
<!-- Node10&#45;&gt;Node8 -->
<g id="edge22_Node000010_Node000008" class="edge">
<title>Node10&#45;&gt;Node8</title>
<g id="a_edge22_Node000010_Node000008"><a xlink:title=" ">
<path fill="none" stroke="#63b8ff" d="M719.89,-115.26C655.41,-106.61 478.23,-82.84 394.27,-71.57"/>
<polygon fill="#63b8ff" stroke="#63b8ff" points="394.64,-68.09 384.27,-70.23 393.71,-75.03 394.64,-68.09"/>
</a>
</g>
</g>
<!-- Node11 -->
<g id="Node000011" class="node">
<title>Node11</title>
<g id="a_Node000011"><a xlink:href="enums_8h.html" target="_top" xlink:title=" ">
<polygon fill="white" stroke="#666666" points="989.5,-74 930.5,-74 930.5,-55 989.5,-55 989.5,-74"/>
<text text-anchor="middle" x="960" y="-62" font-family="Helvetica,sans-Serif" font-size="10.00">enums.h</text>
</a>
</g>
</g>
<!-- Node10&#45;&gt;Node11 -->
<g id="edge11_Node000010_Node000011" class="edge">
<title>Node10&#45;&gt;Node11</title>
<g id="a_edge11_Node000010_Node000011"><a xlink:title=" ">
<path fill="none" stroke="#63b8ff" d="M768.36,-112.52C805.31,-103.46 875.92,-86.13 920.34,-75.23"/>
<polygon fill="#63b8ff" stroke="#63b8ff" points="921.34,-78.59 930.22,-72.81 919.67,-71.79 921.34,-78.59"/>
</a>
</g>
</g>
<!-- Node12 -->
<g id="Node000012" class="node">
<title>Node12</title>
<g id="a_Node000012"><a xlink:href="executor_8h.html" target="_top" xlink:title=" ">
<polygon fill="white" stroke="#666666" points="808.5,-74 741.5,-74 741.5,-55 808.5,-55 808.5,-74"/>
<text text-anchor="middle" x="775" y="-62" font-family="Helvetica,sans-Serif" font-size="10.00">executor.h</text>
</a>
</g>
</g>
<!-- Node10&#45;&gt;Node12 -->
<g id="edge12_Node000010_Node000012" class="edge">
<title>Node10&#45;&gt;Node12</title>
<g id="a_edge12_Node000010_Node000012"><a xlink:title=" ">
<path fill="none" stroke="#63b8ff" d="M749.12,-109.75C753.36,-102.49 759.53,-91.95 764.78,-82.98"/>
<polygon fill="#63b8ff" stroke="#63b8ff" points="767.95,-84.49 769.98,-74.09 761.91,-80.95 767.95,-84.49"/>
</a>
</g>
</g>
<!-- Node14 -->
<g id="Node000014" class="node">
<title>Node14</title>
<g id="a_Node000014"><a xlink:title=" ">
<polygon fill="#e0e0e0" stroke="#999999" points="736,-19 674,-19 674,0 736,0 736,-19"/>
<text text-anchor="middle" x="705" y="-7" font-family="Helvetica,sans-Serif" font-size="10.00">QProcess</text>
</a>
</g>
</g>
<!-- Node10&#45;&gt;Node14 -->
<g id="edge19_Node000010_Node000014" class="edge">
<title>Node10&#45;&gt;Node14</title>
<g id="a_edge19_Node000010_Node000014"><a xlink:title=" ">
<path fill="none" stroke="#63b8ff" d="M740.81,-109.66C734.43,-92.01 720.02,-52.09 711.55,-28.64"/>
<polygon fill="#63b8ff" stroke="#63b8ff" points="714.82,-27.38 708.13,-19.16 708.23,-29.75 714.82,-27.38"/>
</a>
</g>
</g>
<!-- Node15 -->
<g id="Node000015" class="node">
<title>Node15</title>
<g id="a_Node000015"><a xlink:title=" ">
<polygon fill="#e0e0e0" stroke="#999999" points="884,-19 828,-19 828,0 884,0 884,-19"/>
<text text-anchor="middle" x="856" y="-7" font-family="Helvetica,sans-Serif" font-size="10.00">QQueue</text>
</a>
</g>
</g>
<!-- Node10&#45;&gt;Node15 -->
<g id="edge20_Node000010_Node000015" class="edge">
<title>Node10&#45;&gt;Node15</title>
<g id="a_edge20_Node000010_Node000015"><a xlink:title=" ">
<path fill="none" stroke="#63b8ff" d="M763.71,-109.96C779.74,-102.29 802.22,-89.81 818,-74 831.16,-60.81 841.61,-42.18 848.19,-28.52"/>
<polygon fill="#63b8ff" stroke="#63b8ff" points="851.47,-29.75 852.45,-19.2 845.11,-26.84 851.47,-29.75"/>
</a>
</g>
</g>
<!-- Node16 -->
<g id="Node000016" class="node">
<title>Node16</title>
<g id="a_Node000016"><a xlink:href="userinfo_8h.html" target="_top" xlink:title=" ">
<polygon fill="white" stroke="#666666" points="684.5,-74 619.5,-74 619.5,-55 684.5,-55 684.5,-74"/>
<text text-anchor="middle" x="652" y="-62" font-family="Helvetica,sans-Serif" font-size="10.00">userinfo.h</text>
</a>
</g>
</g>
<!-- Node10&#45;&gt;Node16 -->
<g id="edge16_Node000010_Node000016" class="edge">
<title>Node10&#45;&gt;Node16</title>
<g id="a_edge16_Node000010_Node000016"><a xlink:title=" ">
<path fill="none" stroke="#63b8ff" d="M729.22,-109.98C714.82,-101.69 692.69,-88.94 675.81,-79.22"/>
<polygon fill="#63b8ff" stroke="#63b8ff" points="677.46,-76.13 667.05,-74.17 673.97,-82.19 677.46,-76.13"/>
</a>
</g>
</g>
<!-- Node18 -->
<g id="Node000018" class="node">
<title>Node18</title>
<g id="a_Node000018"><a xlink:title=" ">
<polygon fill="#e0e0e0" stroke="#999999" points="507,-74 455,-74 455,-55 507,-55 507,-74"/>
<text text-anchor="middle" x="481" y="-62" font-family="Helvetica,sans-Serif" font-size="10.00">cassert</text>
</a>
</g>
</g>
<!-- Node10&#45;&gt;Node18 -->
<g id="edge23_Node000010_Node000018" class="edge">
<title>Node10&#45;&gt;Node18</title>
<g id="a_edge23_Node000010_Node000018"><a xlink:title=" ">
<path fill="none" stroke="#63b8ff" d="M719.96,-114.18C680.02,-106.92 597.23,-91.54 517.55,-74.26"/>
<polygon fill="#63b8ff" stroke="#63b8ff" points="517.86,-70.75 507.34,-72.03 516.37,-77.59 517.86,-70.75"/>
</a>
</g>
</g>
<!-- Node19 -->
<g id="Node000019" class="node">
<title>Node19</title>
<g id="a_Node000019"><a xlink:title=" ">
<polygon fill="#e0e0e0" stroke="#999999" points="563,-74 525,-74 525,-55 563,-55 563,-74"/>
<text text-anchor="middle" x="544" y="-62" font-family="Helvetica,sans-Serif" font-size="10.00">map</text>
</a>
</g>
</g>
<!-- Node10&#45;&gt;Node19 -->
<g id="edge24_Node000010_Node000019" class="edge">
<title>Node10&#45;&gt;Node19</title>
<g id="a_edge24_Node000010_Node000019"><a xlink:title=" ">
<path fill="none" stroke="#63b8ff" d="M719.88,-112.11C682.97,-102.33 612.6,-83.68 572.98,-73.18"/>
<polygon fill="#63b8ff" stroke="#63b8ff" points="573.7,-69.75 563.14,-70.57 571.91,-76.52 573.7,-69.75"/>
</a>
</g>
</g>
<!-- Node13 -->
<g id="Node000013" class="node">
<title>Node13</title>
<g id="a_Node000013"><a xlink:title=" ">
<polygon fill="#e0e0e0" stroke="#999999" points="810,-19 754,-19 754,0 810,0 810,-19"/>
<text text-anchor="middle" x="782" y="-7" font-family="Helvetica,sans-Serif" font-size="10.00">QObject</text>
</a>
</g>
</g>
<!-- Node12&#45;&gt;Node13 -->
<g id="edge13_Node000012_Node000013" class="edge">
<title>Node12&#45;&gt;Node13</title>
<g id="a_edge13_Node000012_Node000013"><a xlink:title=" ">
<path fill="none" stroke="#63b8ff" d="M776.16,-54.75C777.07,-47.8 778.39,-37.85 779.54,-29.13"/>
<polygon fill="#63b8ff" stroke="#63b8ff" points="783.03,-29.46 780.87,-19.09 776.09,-28.54 783.03,-29.46"/>
</a>
</g>
</g>
<!-- Node12&#45;&gt;Node14 -->
<g id="edge14_Node000012_Node000014" class="edge">
<title>Node12&#45;&gt;Node14</title>
<g id="a_edge14_Node000012_Node000014"><a xlink:title=" ">
<path fill="none" stroke="#63b8ff" d="M763.75,-54.98C753.2,-47 737.2,-34.88 724.56,-25.31"/>
<polygon fill="#63b8ff" stroke="#63b8ff" points="726.54,-22.42 716.45,-19.17 722.31,-28 726.54,-22.42"/>
</a>
</g>
</g>
<!-- Node12&#45;&gt;Node15 -->
<g id="edge15_Node000012_Node000015" class="edge">
<title>Node12&#45;&gt;Node15</title>
<g id="a_edge15_Node000012_Node000015"><a xlink:title=" ">
<path fill="none" stroke="#63b8ff" d="M788.01,-54.98C800.46,-46.84 819.46,-34.41 834.21,-24.76"/>
<polygon fill="#63b8ff" stroke="#63b8ff" points="836.3,-27.57 842.75,-19.17 832.46,-21.72 836.3,-27.57"/>
</a>
</g>
</g>
<!-- Node16&#45;&gt;Node4 -->
<g id="edge18_Node000016_Node000004" class="edge">
<title>Node16&#45;&gt;Node4</title>
<g id="a_edge18_Node000016_Node000004"><a xlink:title=" ">
<path fill="none" stroke="#63b8ff" d="M619.38,-56.3C574.82,-46.46 495.14,-28.86 448.59,-18.58"/>
<polygon fill="#63b8ff" stroke="#63b8ff" points="449.15,-15.12 438.63,-16.38 447.64,-21.95 449.15,-15.12"/>
</a>
</g>
</g>
<!-- Node17 -->
<g id="Node000017" class="node">
<title>Node17</title>
<g id="a_Node000017"><a xlink:title=" ">
<polygon fill="#e0e0e0" stroke="#999999" points="656,-19 584,-19 584,0 656,0 656,-19"/>
<text text-anchor="middle" x="620" y="-7" font-family="Helvetica,sans-Serif" font-size="10.00">QDateTime</text>
</a>
</g>
</g>
<!-- Node16&#45;&gt;Node17 -->
<g id="edge17_Node000016_Node000017" class="edge">
<title>Node16&#45;&gt;Node17</title>
<g id="a_edge17_Node000016_Node000017"><a xlink:title=" ">
<path fill="none" stroke="#63b8ff" d="M646.72,-54.75C642.29,-47.42 635.84,-36.73 630.38,-27.7"/>
<polygon fill="#63b8ff" stroke="#63b8ff" points="633.35,-25.84 625.19,-19.09 627.36,-29.46 633.35,-25.84"/>
</a>
</g>
</g>
<!-- Node20&#45;&gt;Node3 -->
<g id="edge33_Node000020_Node000003" class="edge">
<title>Node20&#45;&gt;Node3</title>
<g id="a_edge33_Node000020_Node000003"><a xlink:title=" ">
<path fill="none" stroke="#63b8ff" d="M549.28,-221.24C546.14,-220.81 543.03,-220.39 540,-220 429.07,-205.67 300.39,-191.78 220.08,-183.43"/>
<polygon fill="#63b8ff" stroke="#63b8ff" points="220.35,-179.94 210.04,-182.39 219.63,-186.91 220.35,-179.94"/>
</a>
</g>
</g>
<!-- Node20&#45;&gt;Node11 -->
<g id="edge27_Node000020_Node000011" class="edge">
<title>Node20&#45;&gt;Node11</title>
<g id="a_edge27_Node000020_Node000011"><a xlink:title=" ">
<path fill="none" stroke="#63b8ff" d="M646.57,-223.2C735.78,-213.3 917.72,-192.25 929,-184 960.09,-161.26 962.7,-111.38 961.57,-84.15"/>
<polygon fill="#63b8ff" stroke="#63b8ff" points="965.06,-83.77 960.93,-74.01 958.07,-84.21 965.06,-83.77"/>
</a>
</g>
</g>
<!-- Node21 -->
<g id="Node000021" class="node">
<title>Node21</title>
<g id="a_Node000021"><a xlink:href="imitatepass_8h.html" target="_top" xlink:title=" ">
<polygon fill="white" stroke="#666666" points="919.5,-184 836.5,-184 836.5,-165 919.5,-165 919.5,-184"/>
<text text-anchor="middle" x="878" y="-172" font-family="Helvetica,sans-Serif" font-size="10.00">imitatepass.h</text>
</a>
</g>
</g>
<!-- Node20&#45;&gt;Node21 -->
<g id="edge28_Node000020_Node000021" class="edge">
<title>Node20&#45;&gt;Node21</title>
<g id="a_edge28_Node000020_Node000021"><a xlink:title=" ">
<path fill="none" stroke="#63b8ff" d="M642.99,-219.98C692.99,-210.52 773.6,-195.26 826.2,-185.31"/>
<polygon fill="#63b8ff" stroke="#63b8ff" points="827.15,-188.69 836.32,-183.39 825.85,-181.81 827.15,-188.69"/>
</a>
</g>
</g>
<!-- Node24 -->
<g id="Node000024" class="node">
<title>Node24</title>
<g id="a_Node000024"><a xlink:href="realpass_8h.html" target="_top" xlink:title=" ">
<polygon fill="white" stroke="#666666" points="818.5,-184 751.5,-184 751.5,-165 818.5,-165 818.5,-184"/>
<text text-anchor="middle" x="785" y="-172" font-family="Helvetica,sans-Serif" font-size="10.00">realpass.h</text>
</a>
</g>
</g>
<!-- Node20&#45;&gt;Node24 -->
<g id="edge34_Node000020_Node000024" class="edge">
<title>Node20&#45;&gt;Node24</title>
<g id="a_edge34_Node000020_Node000024"><a xlink:title=" ">
<path fill="none" stroke="#63b8ff" d="M628.04,-219.98C659.71,-211.01 709.77,-196.82 744.81,-186.89"/>
<polygon fill="#63b8ff" stroke="#63b8ff" points="746.05,-190.18 754.72,-184.08 744.14,-183.44 746.05,-190.18"/>
</a>
</g>
</g>
<!-- Node25 -->
<g id="Node000025" class="node">
<title>Node25</title>
<g id="a_Node000025"><a xlink:href="settingsconstants_8h.html" target="_top" xlink:title=" ">
<polygon fill="white" stroke="#666666" points="437,-129 325,-129 325,-110 437,-110 437,-129"/>
<text text-anchor="middle" x="381" y="-117" font-family="Helvetica,sans-Serif" font-size="10.00">settingsconstants.h</text>
</a>
</g>
</g>
<!-- Node20&#45;&gt;Node25 -->
<g id="edge36_Node000020_Node000025" class="edge">
<title>Node20&#45;&gt;Node25</title>
<g id="a_edge36_Node000020_Node000025"><a xlink:title=" ">
<path fill="none" stroke="#63b8ff" d="M549.17,-221.33C463.74,-208.78 296.13,-184.15 296,-184 277.48,-162.55 311.92,-143.95 342.35,-132.52"/>
<polygon fill="#63b8ff" stroke="#63b8ff" points="343.78,-135.72 352.02,-129.06 341.43,-129.13 343.78,-135.72"/>
</a>
</g>
</g>
<!-- Node26 -->
<g id="Node000026" class="node">
<title>Node26</title>
<g id="a_Node000026"><a xlink:title=" ">
<polygon fill="#e0e0e0" stroke="#999999" points="377.5,-184 304.5,-184 304.5,-165 377.5,-165 377.5,-184"/>
<text text-anchor="middle" x="341" y="-172" font-family="Helvetica,sans-Serif" font-size="10.00">QByteArray</text>
</a>
</g>
</g>
<!-- Node20&#45;&gt;Node26 -->
<g id="edge38_Node000020_Node000026" class="edge">
<title>Node20&#45;&gt;Node26</title>
<g id="a_edge38_Node000020_Node000026"><a xlink:title=" ">
<path fill="none" stroke="#63b8ff" d="M556.71,-219.98C510.48,-210.45 435.73,-195.04 387.48,-185.09"/>
<polygon fill="#63b8ff" stroke="#63b8ff" points="388.11,-181.64 377.61,-183.05 386.7,-188.5 388.11,-181.64"/>
</a>
</g>
</g>
<!-- Node27 -->
<g id="Node000027" class="node">
<title>Node27</title>
<g id="a_Node000027"><a xlink:title=" ">
<polygon fill="#e0e0e0" stroke="#999999" points="444.5,-184 395.5,-184 395.5,-165 444.5,-165 444.5,-184"/>
<text text-anchor="middle" x="420" y="-172" font-family="Helvetica,sans-Serif" font-size="10.00">QHash</text>
</a>
</g>
</g>
<!-- Node20&#45;&gt;Node27 -->
<g id="edge39_Node000020_Node000027" class="edge">
<title>Node20&#45;&gt;Node27</title>
<g id="a_edge39_Node000020_Node000027"><a xlink:title=" ">
<path fill="none" stroke="#63b8ff" d="M569.4,-219.98C538.05,-210.65 487.77,-195.68 454.32,-185.72"/>
<polygon fill="#63b8ff" stroke="#63b8ff" points="455.1,-182.3 444.52,-182.8 453.1,-189.01 455.1,-182.3"/>
</a>
</g>
</g>
<!-- Node28 -->
<g id="Node000028" class="node">
<title>Node28</title>
<g id="a_Node000028"><a xlink:title=" ">
<polygon fill="#e0e0e0" stroke="#999999" points="511.5,-184 462.5,-184 462.5,-165 511.5,-165 511.5,-184"/>
<text text-anchor="middle" x="487" y="-172" font-family="Helvetica,sans-Serif" font-size="10.00">QPoint</text>
</a>
</g>
</g>
<!-- Node20&#45;&gt;Node28 -->
<g id="edge40_Node000020_Node000028" class="edge">
<title>Node20&#45;&gt;Node28</title>
<g id="a_edge40_Node000020_Node000028"><a xlink:title=" ">
<path fill="none" stroke="#63b8ff" d="M580.17,-219.98C562.39,-211.5 534.85,-198.35 514.32,-188.54"/>
<polygon fill="#63b8ff" stroke="#63b8ff" points="515.69,-185.32 505.16,-184.17 512.67,-191.64 515.69,-185.32"/>
</a>
</g>
</g>
<!-- Node29 -->
<g id="Node000029" class="node">
<title>Node29</title>
<g id="a_Node000029"><a xlink:title=" ">
<polygon fill="#e0e0e0" stroke="#999999" points="594,-184 530,-184 530,-165 594,-165 594,-184"/>
<text text-anchor="middle" x="562" y="-172" font-family="Helvetica,sans-Serif" font-size="10.00">QSettings</text>
</a>
</g>
</g>
<!-- Node20&#45;&gt;Node29 -->
<g id="edge41_Node000020_Node000029" class="edge">
<title>Node20&#45;&gt;Node29</title>
<g id="a_edge41_Node000020_Node000029"><a xlink:title=" ">
<path fill="none" stroke="#63b8ff" d="M592.06,-219.75C587.02,-212.34 579.66,-201.5 573.49,-192.41"/>
<polygon fill="#63b8ff" stroke="#63b8ff" points="576.35,-190.39 567.83,-184.09 570.56,-194.33 576.35,-190.39"/>
</a>
</g>
</g>
<!-- Node30 -->
<g id="Node000030" class="node">
<title>Node30</title>
<g id="a_Node000030"><a xlink:title=" ">
<polygon fill="#e0e0e0" stroke="#999999" points="656,-184 612,-184 612,-165 656,-165 656,-184"/>
<text text-anchor="middle" x="634" y="-172" font-family="Helvetica,sans-Serif" font-size="10.00">QSize</text>
</a>
</g>
</g>
<!-- Node20&#45;&gt;Node30 -->
<g id="edge42_Node000020_Node000030" class="edge">
<title>Node20&#45;&gt;Node30</title>
<g id="a_edge42_Node000020_Node000030"><a xlink:title=" ">
<path fill="none" stroke="#63b8ff" d="M603.94,-219.75C608.98,-212.34 616.34,-201.5 622.51,-192.41"/>
<polygon fill="#63b8ff" stroke="#63b8ff" points="625.44,-194.33 628.17,-184.09 619.65,-190.39 625.44,-194.33"/>
</a>
</g>
</g>
<!-- Node31 -->
<g id="Node000031" class="node">
<title>Node31</title>
<g id="a_Node000031"><a xlink:title=" ">
<polygon fill="#e0e0e0" stroke="#999999" points="733.5,-184 674.5,-184 674.5,-165 733.5,-165 733.5,-184"/>
<text text-anchor="middle" x="704" y="-172" font-family="Helvetica,sans-Serif" font-size="10.00">QVariant</text>
</a>
</g>
</g>
<!-- Node20&#45;&gt;Node31 -->
<g id="edge43_Node000020_Node000031" class="edge">
<title>Node20&#45;&gt;Node31</title>
<g id="a_edge43_Node000020_Node000031"><a xlink:title=" ">
<path fill="none" stroke="#63b8ff" d="M615.03,-219.98C631.93,-211.54 658.06,-198.47 677.64,-188.68"/>
<polygon fill="#63b8ff" stroke="#63b8ff" points="679.28,-191.77 686.66,-184.17 676.15,-185.51 679.28,-191.77"/>
</a>
</g>
</g>
<!-- Node21&#45;&gt;Node10 -->
<g id="edge29_Node000021_Node000010" class="edge">
<title>Node21&#45;&gt;Node10</title>
<g id="a_edge29_Node000021_Node000010"><a xlink:title=" ">
<path fill="none" stroke="#63b8ff" d="M856.47,-164.98C834.53,-156.3 800.26,-142.75 775.31,-132.88"/>
<polygon fill="#63b8ff" stroke="#63b8ff" points="776.51,-129.59 765.92,-129.17 773.93,-136.1 776.51,-129.59"/>
</a>
</g>
</g>
<!-- Node22 -->
<g id="Node000022" class="node">
<title>Node22</title>
<g id="a_Node000022"><a xlink:href="simpletransaction_8h.html" target="_top" xlink:title=" ">
<polygon fill="white" stroke="#666666" points="945.5,-129 832.5,-129 832.5,-110 945.5,-110 945.5,-129"/>
<text text-anchor="middle" x="889" y="-117" font-family="Helvetica,sans-Serif" font-size="10.00">simpletransaction.h</text>
</a>
</g>
</g>
<!-- Node21&#45;&gt;Node22 -->
<g id="edge30_Node000021_Node000022" class="edge">
<title>Node21&#45;&gt;Node22</title>
<g id="a_edge30_Node000021_Node000022"><a xlink:title=" ">
<path fill="none" stroke="#63b8ff" d="M879.82,-164.75C881.26,-157.8 883.32,-147.85 885.13,-139.13"/>
<polygon fill="#63b8ff" stroke="#63b8ff" points="888.61,-139.59 887.22,-129.09 881.76,-138.17 888.61,-139.59"/>
</a>
</g>
</g>
<!-- Node22&#45;&gt;Node11 -->
<g id="edge31_Node000022_Node000011" class="edge">
<title>Node22&#45;&gt;Node11</title>
<g id="a_edge31_Node000022_Node000011"><a xlink:title=" ">
<path fill="none" stroke="#63b8ff" d="M900.41,-109.98C911.11,-102 927.34,-89.88 940.16,-80.31"/>
<polygon fill="#63b8ff" stroke="#63b8ff" points="942.47,-82.96 948.39,-74.17 938.28,-77.35 942.47,-82.96"/>
</a>
</g>
</g>
<!-- Node23 -->
<g id="Node000023" class="node">
<title>Node23</title>
<g id="a_Node000023"><a xlink:title=" ">
<polygon fill="#e0e0e0" stroke="#999999" points="912.5,-74 865.5,-74 865.5,-55 912.5,-55 912.5,-74"/>
<text text-anchor="middle" x="889" y="-62" font-family="Helvetica,sans-Serif" font-size="10.00">queue</text>
</a>
</g>
</g>
<!-- Node22&#45;&gt;Node23 -->
<g id="edge32_Node000022_Node000023" class="edge">
<title>Node22&#45;&gt;Node23</title>
<g id="a_edge32_Node000022_Node000023"><a xlink:title=" ">
<path fill="none" stroke="#63b8ff" d="M889,-109.75C889,-102.8 889,-92.85 889,-84.13"/>
<polygon fill="#63b8ff" stroke="#63b8ff" points="892.5,-84.09 889,-74.09 885.5,-84.09 892.5,-84.09"/>
</a>
</g>
</g>
<!-- Node24&#45;&gt;Node10 -->
<g id="edge35_Node000024_Node000010" class="edge">
<title>Node24&#45;&gt;Node10</title>
<g id="a_edge35_Node000024_Node000010"><a xlink:title=" ">
<path fill="none" stroke="#63b8ff" d="M778.23,-164.75C772.44,-157.26 763.94,-146.28 756.86,-137.13"/>
<polygon fill="#63b8ff" stroke="#63b8ff" points="759.53,-134.86 750.64,-129.09 753.99,-139.14 759.53,-134.86"/>
</a>
</g>
</g>
<!-- Node25&#45;&gt;Node4 -->
<g id="edge37_Node000025_Node000004" class="edge">
<title>Node25&#45;&gt;Node4</title>
<g id="a_edge37_Node000025_Node000004"><a xlink:title=" ">
<path fill="none" stroke="#63b8ff" d="M383.54,-109.66C388.58,-92.09 399.96,-52.45 406.7,-28.95"/>
<polygon fill="#63b8ff" stroke="#63b8ff" points="410.12,-29.74 409.51,-19.16 403.39,-27.8 410.12,-29.74"/>
</a>
</g>
</g>
</g>
</svg>
