<?xml version="1.0" encoding="UTF-8" standalone="no"?>
<!DOCTYPE svg PUBLIC "-//W3C//DTD SVG 1.1//EN"
 "http://www.w3.org/Graphics/SVG/1.1/DTD/svg11.dtd">
<!-- Generated by graphviz version 2.43.0 (0)
 -->
<!-- Title: src/qprogressindicator.cpp Pages: 1 -->
<svg width="193pt" height="137pt"
 viewBox="0.00 0.00 192.57 137.00" xmlns="http://www.w3.org/2000/svg" xmlns:xlink="http://www.w3.org/1999/xlink">
<g id="graph0" class="graph" transform="scale(1 1) rotate(0) translate(4 133)">
<title>src/qprogressindicator.cpp</title>
<!-- Node1 -->
<g id="node1" class="node">
<title>Node1</title>
<g id="a_node1"><a xlink:title=" ">
<polygon fill="#bfbfbf" stroke="black" points="40.47,-110.5 40.47,-128.5 173.2,-128.5 173.2,-110.5 40.47,-110.5"/>
<text text-anchor="middle" x="106.84" y="-116.5" font-family="Helvetica,sans-Serif" font-size="10.00">src/qprogressindicator.cpp</text>
</a>
</g>
</g>
<!-- Node2 -->
<g id="node2" class="node">
<title>Node2</title>
<g id="a_node2"><a xlink:href="qprogressindicator_8h.html" target="_top" xlink:title=" ">
<polygon fill="none" stroke="black" points="4.81,-55.5 4.81,-73.5 110.87,-73.5 110.87,-55.5 4.81,-55.5"/>
<text text-anchor="middle" x="57.84" y="-61.5" font-family="Helvetica,sans-Serif" font-size="10.00">qprogressindicator.h</text>
</a>
</g>
</g>
<!-- Node1&#45;&gt;Node2 -->
<g id="edge1" class="edge">
<title>Node1&#45;&gt;Node2</title>
<path fill="none" stroke="midnightblue" d="M99.18,-110.22C92.02,-102.47 81.14,-90.7 72.33,-81.18"/>
<polygon fill="midnightblue" stroke="midnightblue" points="74.64,-78.52 65.28,-73.55 69.5,-83.27 74.64,-78.52"/>
</g>
<!-- Node5 -->
<g id="node5" class="node">
<title>Node5</title>
<g id="a_node5"><a xlink:title=" ">
<polygon fill="none" stroke="#bfbfbf" points="129.11,-55.5 129.11,-73.5 184.57,-73.5 184.57,-55.5 129.11,-55.5"/>
<text text-anchor="middle" x="156.84" y="-61.5" font-family="Helvetica,sans-Serif" font-size="10.00">QPainter</text>
</a>
</g>
</g>
<!-- Node1&#45;&gt;Node5 -->
<g id="edge4" class="edge">
<title>Node1&#45;&gt;Node5</title>
<path fill="none" stroke="midnightblue" d="M114.65,-110.22C122.03,-102.39 133.29,-90.46 142.32,-80.89"/>
<polygon fill="midnightblue" stroke="midnightblue" points="144.93,-83.23 149.24,-73.55 139.84,-78.42 144.93,-83.23"/>
</g>
<!-- Node3 -->
<g id="node3" class="node">
<title>Node3</title>
<g id="a_node3"><a xlink:title=" ">
<polygon fill="none" stroke="#bfbfbf" points="0,-0.5 0,-18.5 47.67,-18.5 47.67,-0.5 0,-0.5"/>
<text text-anchor="middle" x="23.84" y="-6.5" font-family="Helvetica,sans-Serif" font-size="10.00">QColor</text>
</a>
</g>
</g>
<!-- Node2&#45;&gt;Node3 -->
<g id="edge2" class="edge">
<title>Node2&#45;&gt;Node3</title>
<path fill="none" stroke="midnightblue" d="M52.52,-55.22C47.71,-47.71 40.46,-36.41 34.46,-27.05"/>
<polygon fill="midnightblue" stroke="midnightblue" points="37.35,-25.08 29,-18.55 31.45,-28.86 37.35,-25.08"/>
</g>
<!-- Node4 -->
<g id="node4" class="node">
<title>Node4</title>
<g id="a_node4"><a xlink:title=" ">
<polygon fill="none" stroke="#bfbfbf" points="65.39,-0.5 65.39,-18.5 120.29,-18.5 120.29,-0.5 65.39,-0.5"/>
<text text-anchor="middle" x="92.84" y="-6.5" font-family="Helvetica,sans-Serif" font-size="10.00">QWidget</text>
</a>
</g>
</g>
<!-- Node2&#45;&gt;Node4 -->
<g id="edge3" class="edge">
<title>Node2&#45;&gt;Node4</title>
<path fill="none" stroke="midnightblue" d="M63.31,-55.22C68.27,-47.71 75.73,-36.41 81.91,-27.05"/>
<polygon fill="midnightblue" stroke="midnightblue" points="84.93,-28.82 87.52,-18.55 79.09,-24.97 84.93,-28.82"/>
</g>
</g>
</svg>
