<?xml version="1.0" encoding="UTF-8" standalone="no"?>
<!DOCTYPE svg PUBLIC "-//W3C//DTD SVG 1.1//EN"
 "http://www.w3.org/Graphics/SVG/1.1/DTD/svg11.dtd">
<!-- Generated by graphviz version 2.43.0 (0)
 -->
<!-- Title: src/qpushbuttonwithclipboard.cpp Pages: 1 -->
<svg width="214pt" height="137pt"
 viewBox="0.00 0.00 214.09 137.00" xmlns="http://www.w3.org/2000/svg" xmlns:xlink="http://www.w3.org/1999/xlink">
<g id="graph0" class="graph" transform="scale(1 1) rotate(0) translate(4 133)">
<title>src/qpushbuttonwithclipboard.cpp</title>
<!-- Node1 -->
<g id="node1" class="node">
<title>Node1</title>
<g id="a_node1"><a xlink:title=" ">
<polygon fill="#bfbfbf" stroke="black" points="41.67,-110.5 41.67,-128.5 206.09,-128.5 206.09,-110.5 41.67,-110.5"/>
<text text-anchor="middle" x="123.88" y="-116.5" font-family="Helvetica,sans-Serif" font-size="10.00">src/qpushbuttonwithclipboard.cpp</text>
</a>
</g>
</g>
<!-- Node2 -->
<g id="node2" class="node">
<title>Node2</title>
<g id="a_node2"><a xlink:href="qpushbuttonwithclipboard_8h.html" target="_top" xlink:title=" ">
<polygon fill="none" stroke="black" points="0,-55.5 0,-73.5 137.75,-73.5 137.75,-55.5 0,-55.5"/>
<text text-anchor="middle" x="68.88" y="-61.5" font-family="Helvetica,sans-Serif" font-size="10.00">qpushbuttonwithclipboard.h</text>
</a>
</g>
</g>
<!-- Node1&#45;&gt;Node2 -->
<g id="edge1" class="edge">
<title>Node1&#45;&gt;Node2</title>
<path fill="none" stroke="midnightblue" d="M115.28,-110.22C107.08,-102.32 94.53,-90.22 84.55,-80.61"/>
<polygon fill="midnightblue" stroke="midnightblue" points="86.86,-77.97 77.23,-73.55 82,-83.01 86.86,-77.97"/>
</g>
<!-- Node4 -->
<g id="node4" class="node">
<title>Node4</title>
<g id="a_node4"><a xlink:title=" ">
<polygon fill="none" stroke="#bfbfbf" points="155.39,-55.5 155.39,-73.5 204.36,-73.5 204.36,-55.5 155.39,-55.5"/>
<text text-anchor="middle" x="179.88" y="-61.5" font-family="Helvetica,sans-Serif" font-size="10.00">QTimer</text>
</a>
</g>
</g>
<!-- Node1&#45;&gt;Node4 -->
<g id="edge3" class="edge">
<title>Node1&#45;&gt;Node4</title>
<path fill="none" stroke="midnightblue" d="M132.63,-110.22C140.98,-102.32 153.75,-90.22 163.92,-80.61"/>
<polygon fill="midnightblue" stroke="midnightblue" points="166.51,-82.97 171.37,-73.55 161.7,-77.88 166.51,-82.97"/>
</g>
<!-- Node3 -->
<g id="node3" class="node">
<title>Node3</title>
<g id="a_node3"><a xlink:title=" ">
<polygon fill="none" stroke="#bfbfbf" points="31.14,-0.5 31.14,-18.5 106.62,-18.5 106.62,-0.5 31.14,-0.5"/>
<text text-anchor="middle" x="68.88" y="-6.5" font-family="Helvetica,sans-Serif" font-size="10.00">QPushButton</text>
</a>
</g>
</g>
<!-- Node2&#45;&gt;Node3 -->
<g id="edge2" class="edge">
<title>Node2&#45;&gt;Node3</title>
<path fill="none" stroke="midnightblue" d="M68.88,-55.22C68.88,-48.18 68.88,-37.81 68.88,-28.83"/>
<polygon fill="midnightblue" stroke="midnightblue" points="72.38,-28.55 68.88,-18.55 65.38,-28.55 72.38,-28.55"/>
</g>
</g>
</svg>
