<?xml version="1.0" encoding="UTF-8" standalone="no"?>
<!DOCTYPE svg PUBLIC "-//W3C//DTD SVG 1.1//EN"
 "http://www.w3.org/Graphics/SVG/1.1/DTD/svg11.dtd">
<!-- Generated by graphviz version 2.38.0 (20140413.2041)
 -->
<!-- Title: src/qpushbuttonwithclipboard.cpp Pages: 1 -->
<svg width="224pt" height="137pt"
 viewBox="0.00 0.00 223.95 137.00" xmlns="http://www.w3.org/2000/svg" xmlns:xlink="http://www.w3.org/1999/xlink">
<g id="graph0" class="graph" transform="scale(1 1) rotate(0) translate(4 133)">
<title>src/qpushbuttonwithclipboard.cpp</title>
<!-- Node0 -->
<g id="node1" class="node"><title>Node0</title>
<polygon fill="#bfbfbf" stroke="black" points="51.5298,-110.5 51.5298,-128.5 215.953,-128.5 215.953,-110.5 51.5298,-110.5"/>
<text text-anchor="middle" x="133.741" y="-116.5" font-family="Helvetica,sans-Serif" font-size="10.00">src/qpushbuttonwithclipboard.cpp</text>
</g>
<!-- Node1 -->
<g id="node2" class="node"><title>Node1</title>
<g id="a_node2"><a xlink:href="qpushbuttonwithclipboard_8h.html" target="_top" xlink:title="qpushbuttonwithclipboard.h">
<polygon fill="none" stroke="black" points="9.86475,-55.5 9.86475,-73.5 147.618,-73.5 147.618,-55.5 9.86475,-55.5"/>
<text text-anchor="middle" x="78.7412" y="-61.5" font-family="Helvetica,sans-Serif" font-size="10.00">qpushbuttonwithclipboard.h</text>
</a>
</g>
</g>
<!-- Node0&#45;&gt;Node1 -->
<g id="edge1" class="edge"><title>Node0&#45;&gt;Node1</title>
<path fill="none" stroke="midnightblue" d="M125.147,-110.219C116.947,-102.316 104.398,-90.2241 94.4169,-80.6057"/>
<polygon fill="midnightblue" stroke="midnightblue" points="96.724,-77.9682 87.0945,-73.5496 91.8667,-83.0088 96.724,-77.9682"/>
</g>
<!-- Node4 -->
<g id="node5" class="node"><title>Node4</title>
<polygon fill="none" stroke="#bfbfbf" points="165.259,-55.5 165.259,-73.5 214.223,-73.5 214.223,-55.5 165.259,-55.5"/>
<text text-anchor="middle" x="189.741" y="-61.5" font-family="Helvetica,sans-Serif" font-size="10.00">QTimer</text>
</g>
<!-- Node0&#45;&gt;Node4 -->
<g id="edge4" class="edge"><title>Node0&#45;&gt;Node4</title>
<path fill="none" stroke="midnightblue" d="M142.491,-110.219C150.841,-102.316 163.618,-90.2241 173.781,-80.6057"/>
<polygon fill="midnightblue" stroke="midnightblue" points="176.379,-82.9655 181.236,-73.5496 171.567,-77.8814 176.379,-82.9655"/>
</g>
<!-- Node2 -->
<g id="node3" class="node"><title>Node2</title>
<polygon fill="none" stroke="#bfbfbf" points="0,-0.5 0,-18.5 75.4824,-18.5 75.4824,-0.5 0,-0.5"/>
<text text-anchor="middle" x="37.7412" y="-6.5" font-family="Helvetica,sans-Serif" font-size="10.00">QPushButton</text>
</g>
<!-- Node1&#45;&gt;Node2 -->
<g id="edge2" class="edge"><title>Node1&#45;&gt;Node2</title>
<path fill="none" stroke="midnightblue" d="M72.335,-55.2188C66.4032,-47.5509 57.4202,-35.9387 50.0947,-26.4691"/>
<polygon fill="midnightblue" stroke="midnightblue" points="52.8553,-24.3176 43.9682,-18.5496 47.3186,-28.6007 52.8553,-24.3176"/>
</g>
<!-- Node3 -->
<g id="node4" class="node"><title>Node3</title>
<polygon fill="none" stroke="#bfbfbf" points="93.2905,-0.5 93.2905,-18.5 148.192,-18.5 148.192,-0.5 93.2905,-0.5"/>
<text text-anchor="middle" x="120.741" y="-6.5" font-family="Helvetica,sans-Serif" font-size="10.00">QWidget</text>
</g>
<!-- Node1&#45;&gt;Node3 -->
<g id="edge3" class="edge"><title>Node1&#45;&gt;Node3</title>
<path fill="none" stroke="midnightblue" d="M85.3037,-55.2188C91.3801,-47.5509 100.582,-35.9387 108.086,-26.4691"/>
<polygon fill="midnightblue" stroke="midnightblue" points="110.895,-28.5608 114.362,-18.5496 105.408,-24.2132 110.895,-28.5608"/>
</g>
</g>
</svg>
