<?xml version="1.0" encoding="UTF-8" standalone="no"?>
<!DOCTYPE svg PUBLIC "-//W3C//DTD SVG 1.1//EN"
 "http://www.w3.org/Graphics/SVG/1.1/DTD/svg11.dtd">
<!-- Generated by graphviz version 2.43.0 (0)
 -->
<!-- Title: src/qtpasssettings.cpp Pages: 1 -->
<!--zoomable 302 -->

<svg id="main" version="1.1" xmlns="http://www.w3.org/2000/svg" xmlns:xlink="http://www.w3.org/1999/xlink" xml:space="preserve" onload="init(evt)">
<style type="text/css"><![CDATA[
.node, .edge {opacity: 0.7;}
.node.selected, .edge.selected {opacity: 1;}
.edge:hover path { stroke: red; }
.edge:hover polygon { stroke: red; fill: red; }
]]></style>

<defs>
  <circle id="rim" cx="0" cy="0" r="7"/>
  <circle id="rim2" cx="0" cy="0" r="3.5"/>
  <g id="zoomPlus">
    <use xlink:href="#rim" fill="#404040"><set attributeName="fill" to="#808080" begin="zoomplus.mouseover" end="zoomplus.mouseout"/></use>
    <path d="M-4,0h8M0,-4v8" fill="none" stroke="white" stroke-width="1.5" pointer-events="none"/>
  </g>
  <g id="zoomMin">
    <use xlink:href="#rim" fill="#404040"><set attributeName="fill" to="#808080" begin="zoomminus.mouseover" end="zoomminus.mouseout"/></use>
    <path d="M-4,0h8" fill="none" stroke="white" stroke-width="1.5" pointer-events="none"/>
  </g>
  <g id="arrowUp" transform="translate(30 24)">
    <use xlink:href="#rim"/>
    <path pointer-events="none" fill="none" stroke="white" stroke-width="1.5" d="M0,-3.0v7 M-2.5,-0.5L0,-3.0L2.5,-0.5"/>
  </g>
  <g id="arrowRight" transform="rotate(90) translate(36 -43)">
    <use xlink:href="#rim"/>
    <path pointer-events="none" fill="none" stroke="white" stroke-width="1.5" d="M0,-3.0v7 M-2.5,-0.5L0,-3.0L2.5,-0.5"/>
  </g>
  <g id="arrowDown" transform="rotate(180) translate(-30 -48)">
    <use xlink:href="#rim"/>
    <path pointer-events="none" fill="none" stroke="white" stroke-width="1.5" d="M0,-3.0v7 M-2.5,-0.5L0,-3.0L2.5,-0.5"/>
  </g>
  <g id="arrowLeft" transform="rotate(270) translate(-36 17)">
    <use xlink:href="#rim"/>
    <path pointer-events="none" fill="none" stroke="white" stroke-width="1.5" d="M0,-3.0v7 M-2.5,-0.5L0,-3.0L2.5,-0.5"/>
  </g>
  <g id="resetDef">
    <use xlink:href="#rim2" fill="#404040"><set attributeName="fill" to="#808080" begin="reset.mouseover" end="reset.mouseout"/></use>
  </g>
</defs>
<script type="application/ecmascript">
var viewWidth = 1737;
var viewHeight = 302;
var sectionId = 'dynsection-0';
</script>
<script type="application/ecmascript" xlink:href="svg.min.js"/>
<svg id="graph" class="graph">
<g id="viewport">
<title>src/qtpasssettings.cpp</title>
<!-- Node1 -->
<g id="Node000001" class="node">
<title>Node1</title>
<g id="a_Node000001"><a xlink:title=" ">
<polygon fill="#999999" stroke="#666666" points="1451.5,-294 1326.5,-294 1326.5,-275 1451.5,-275 1451.5,-294"/>
<text text-anchor="middle" x="1389" y="-282" font-family="Helvetica,sans-Serif" font-size="10.00">src/qtpasssettings.cpp</text>
</a>
</g>
</g>
<!-- Node2 -->
<g id="Node000002" class="node">
<title>Node2</title>
<g id="a_Node000002"><a xlink:href="qtpasssettings_8h.html" target="_top" xlink:title=" ">
<polygon fill="white" stroke="#666666" points="942.5,-239 845.5,-239 845.5,-220 942.5,-220 942.5,-239"/>
<text text-anchor="middle" x="894" y="-227" font-family="Helvetica,sans-Serif" font-size="10.00">qtpasssettings.h</text>
</a>
</g>
</g>
<!-- Node1&#45;&gt;Node2 -->
<g id="edge1_Node000001_Node000002" class="edge">
<title>Node1&#45;&gt;Node2</title>
<g id="a_edge1_Node000001_Node000002"><a xlink:title=" ">
<path fill="none" stroke="#63b8ff" d="M1326.31,-276.79C1230.02,-266.48 1047.03,-246.88 953.01,-236.82"/>
<polygon fill="#63b8ff" stroke="#63b8ff" points="953.13,-233.31 942.82,-235.73 952.39,-240.27 953.13,-233.31"/>
</a>
</g>
</g>
<!-- Node5 -->
<g id="Node000005" class="node">
<title>Node5</title>
<g id="a_Node000005"><a xlink:href="pass_8h.html" target="_top" xlink:title=" ">
<polygon fill="white" stroke="#666666" points="1033,-129 985,-129 985,-110 1033,-110 1033,-129"/>
<text text-anchor="middle" x="1009" y="-117" font-family="Helvetica,sans-Serif" font-size="10.00">pass.h</text>
</a>
</g>
</g>
<!-- Node1&#45;&gt;Node5 -->
<g id="edge34_Node000001_Node000005" class="edge">
<title>Node1&#45;&gt;Node5</title>
<g id="a_edge34_Node000001_Node000005"><a xlink:title=" ">
<path fill="none" stroke="#63b8ff" d="M1352.07,-274.97C1329.66,-268.26 1301.69,-256.97 1282,-239 1254.54,-213.93 1272.89,-187.11 1243,-165 1211.78,-141.91 1100.42,-128.75 1043.32,-123.37"/>
<polygon fill="#63b8ff" stroke="#63b8ff" points="1043.59,-119.89 1033.32,-122.46 1042.96,-126.86 1043.59,-119.89"/>
</a>
</g>
</g>
<!-- Node27 -->
<g id="Node000027" class="node">
<title>Node27</title>
<g id="a_Node000027"><a xlink:href="util_8h.html" target="_top" xlink:title=" ">
<polygon fill="white" stroke="#666666" points="393.5,-239 352.5,-239 352.5,-220 393.5,-220 393.5,-239"/>
<text text-anchor="middle" x="373" y="-227" font-family="Helvetica,sans-Serif" font-size="10.00">util.h</text>
</a>
</g>
</g>
<!-- Node1&#45;&gt;Node27 -->
<g id="edge35_Node000001_Node000027" class="edge">
<title>Node1&#45;&gt;Node27</title>
<g id="a_edge35_Node000001_Node000027"><a xlink:title=" ">
<path fill="none" stroke="#63b8ff" d="M1326.21,-280.22C1131.83,-270.08 544.57,-239.45 403.64,-232.1"/>
<polygon fill="#63b8ff" stroke="#63b8ff" points="403.72,-228.6 393.55,-231.57 403.36,-235.59 403.72,-228.6"/>
</a>
</g>
</g>
<!-- Node33 -->
<g id="Node000033" class="node">
<title>Node33</title>
<g id="a_Node000033"><a xlink:title=" ">
<polygon fill="#e0e0e0" stroke="#999999" points="1391.5,-239 1290.5,-239 1290.5,-220 1391.5,-220 1391.5,-239"/>
<text text-anchor="middle" x="1341" y="-227" font-family="Helvetica,sans-Serif" font-size="10.00">QCoreApplication</text>
</a>
</g>
</g>
<!-- Node1&#45;&gt;Node33 -->
<g id="edge42_Node000001_Node000033" class="edge">
<title>Node1&#45;&gt;Node33</title>
<g id="a_edge42_Node000001_Node000033"><a xlink:title=" ">
<path fill="none" stroke="#63b8ff" d="M1381.07,-274.75C1374.15,-267.11 1363.93,-255.82 1355.55,-246.56"/>
<polygon fill="#63b8ff" stroke="#63b8ff" points="1358.09,-244.15 1348.78,-239.09 1352.9,-248.85 1358.09,-244.15"/>
</a>
</g>
</g>
<!-- Node34 -->
<g id="Node000034" class="node">
<title>Node34</title>
<g id="a_Node000034"><a xlink:title=" ">
<polygon fill="#e0e0e0" stroke="#999999" points="1466,-239 1410,-239 1410,-220 1466,-220 1466,-239"/>
<text text-anchor="middle" x="1438" y="-227" font-family="Helvetica,sans-Serif" font-size="10.00">QCursor</text>
</a>
</g>
</g>
<!-- Node1&#45;&gt;Node34 -->
<g id="edge43_Node000001_Node000034" class="edge">
<title>Node1&#45;&gt;Node34</title>
<g id="a_edge43_Node000001_Node000034"><a xlink:title=" ">
<path fill="none" stroke="#63b8ff" d="M1397.09,-274.75C1404.16,-267.11 1414.59,-255.82 1423.15,-246.56"/>
<polygon fill="#63b8ff" stroke="#63b8ff" points="1425.84,-248.81 1430.06,-239.09 1420.7,-244.06 1425.84,-248.81"/>
</a>
</g>
</g>
<!-- Node35 -->
<g id="Node000035" class="node">
<title>Node35</title>
<g id="a_Node000035"><a xlink:title=" ">
<polygon fill="#e0e0e0" stroke="#999999" points="1540,-239 1484,-239 1484,-220 1540,-220 1540,-239"/>
<text text-anchor="middle" x="1512" y="-227" font-family="Helvetica,sans-Serif" font-size="10.00">QDebug</text>
</a>
</g>
</g>
<!-- Node1&#45;&gt;Node35 -->
<g id="edge44_Node000001_Node000035" class="edge">
<title>Node1&#45;&gt;Node35</title>
<g id="a_edge44_Node000001_Node000035"><a xlink:title=" ">
<path fill="none" stroke="#63b8ff" d="M1408.76,-274.98C1428.73,-266.38 1459.8,-252.99 1482.65,-243.15"/>
<polygon fill="#63b8ff" stroke="#63b8ff" points="1484.08,-246.34 1491.88,-239.17 1481.31,-239.91 1484.08,-246.34"/>
</a>
</g>
</g>
<!-- Node36 -->
<g id="Node000036" class="node">
<title>Node36</title>
<g id="a_Node000036"><a xlink:title=" ">
<polygon fill="#e0e0e0" stroke="#999999" points="1653.5,-239 1558.5,-239 1558.5,-220 1653.5,-220 1653.5,-239"/>
<text text-anchor="middle" x="1606" y="-227" font-family="Helvetica,sans-Serif" font-size="10.00">QGuiApplication</text>
</a>
</g>
</g>
<!-- Node1&#45;&gt;Node36 -->
<g id="edge45_Node000001_Node000036" class="edge">
<title>Node1&#45;&gt;Node36</title>
<g id="a_edge45_Node000001_Node000036"><a xlink:title=" ">
<path fill="none" stroke="#63b8ff" d="M1423.86,-274.98C1461.09,-265.89 1520.2,-251.46 1560.93,-241.51"/>
<polygon fill="#63b8ff" stroke="#63b8ff" points="1561.98,-244.85 1570.86,-239.08 1560.32,-238.05 1561.98,-244.85"/>
</a>
</g>
</g>
<!-- Node37 -->
<g id="Node000037" class="node">
<title>Node37</title>
<g id="a_Node000037"><a xlink:title=" ">
<polygon fill="#e0e0e0" stroke="#999999" points="1728.5,-239 1671.5,-239 1671.5,-220 1728.5,-220 1728.5,-239"/>
<text text-anchor="middle" x="1700" y="-227" font-family="Helvetica,sans-Serif" font-size="10.00">QScreen</text>
</a>
</g>
</g>
<!-- Node1&#45;&gt;Node37 -->
<g id="edge46_Node000001_Node000037" class="edge">
<title>Node1&#45;&gt;Node37</title>
<g id="a_edge46_Node000001_Node000037"><a xlink:title=" ">
<path fill="none" stroke="#63b8ff" d="M1448.53,-274.97C1501.88,-267.07 1582.51,-254.49 1661.26,-239.24"/>
<polygon fill="#63b8ff" stroke="#63b8ff" points="1662.21,-242.62 1671.36,-237.27 1660.87,-235.75 1662.21,-242.62"/>
</a>
</g>
</g>
<!-- Node3 -->
<g id="Node000003" class="node">
<title>Node3</title>
<g id="a_Node000003"><a xlink:href="enums_8h.html" target="_top" xlink:title=" ">
<polygon fill="white" stroke="#666666" points="1310.5,-74 1251.5,-74 1251.5,-55 1310.5,-55 1310.5,-74"/>
<text text-anchor="middle" x="1281" y="-62" font-family="Helvetica,sans-Serif" font-size="10.00">enums.h</text>
</a>
</g>
</g>
<!-- Node2&#45;&gt;Node3 -->
<g id="edge2_Node000002_Node000003" class="edge">
<title>Node2&#45;&gt;Node3</title>
<g id="a_edge2_Node000002_Node000003"><a xlink:title=" ">
<path fill="none" stroke="#63b8ff" d="M942.61,-227.46C1026.59,-224.83 1194.55,-215.65 1243,-184 1275.76,-162.6 1281.19,-112.16 1281.56,-84.49"/>
<polygon fill="#63b8ff" stroke="#63b8ff" points="1285.05,-84.14 1281.47,-74.17 1278.05,-84.2 1285.05,-84.14"/>
</a>
</g>
</g>
<!-- Node4 -->
<g id="Node000004" class="node">
<title>Node4</title>
<g id="a_Node000004"><a xlink:href="imitatepass_8h.html" target="_top" xlink:title=" ">
<polygon fill="white" stroke="#666666" points="1233.5,-184 1150.5,-184 1150.5,-165 1233.5,-165 1233.5,-184"/>
<text text-anchor="middle" x="1192" y="-172" font-family="Helvetica,sans-Serif" font-size="10.00">imitatepass.h</text>
</a>
</g>
</g>
<!-- Node2&#45;&gt;Node4 -->
<g id="edge3_Node000002_Node000004" class="edge">
<title>Node2&#45;&gt;Node4</title>
<g id="a_edge3_Node000002_Node000004"><a xlink:title=" ">
<path fill="none" stroke="#63b8ff" d="M941.88,-219.98C996.24,-210.32 1084.62,-194.6 1140.46,-184.67"/>
<polygon fill="#63b8ff" stroke="#63b8ff" points="1141.26,-188.08 1150.49,-182.88 1140.03,-181.19 1141.26,-188.08"/>
</a>
</g>
</g>
<!-- Node18 -->
<g id="Node000018" class="node">
<title>Node18</title>
<g id="a_Node000018"><a xlink:href="passwordconfiguration_8h.html" target="_top" xlink:title=" ">
<polygon fill="white" stroke="#666666" points="675,-129 539,-129 539,-110 675,-110 675,-129"/>
<text text-anchor="middle" x="607" y="-117" font-family="Helvetica,sans-Serif" font-size="10.00">passwordconfiguration.h</text>
</a>
</g>
</g>
<!-- Node2&#45;&gt;Node18 -->
<g id="edge22_Node000002_Node000018" class="edge">
<title>Node2&#45;&gt;Node18</title>
<g id="a_edge22_Node000002_Node000018"><a xlink:title=" ">
<path fill="none" stroke="#63b8ff" d="M845.3,-228.42C770.51,-227.14 632.79,-219.83 602,-184 591.43,-171.7 594.61,-152.66 599.26,-138.63"/>
<polygon fill="#63b8ff" stroke="#63b8ff" points="602.61,-139.67 602.89,-129.08 596.06,-137.18 602.61,-139.67"/>
</a>
</g>
</g>
<!-- Node19 -->
<g id="Node000019" class="node">
<title>Node19</title>
<g id="a_Node000019"><a xlink:href="realpass_8h.html" target="_top" xlink:title=" ">
<polygon fill="white" stroke="#666666" points="964.5,-184 897.5,-184 897.5,-165 964.5,-165 964.5,-184"/>
<text text-anchor="middle" x="931" y="-172" font-family="Helvetica,sans-Serif" font-size="10.00">realpass.h</text>
</a>
</g>
</g>
<!-- Node2&#45;&gt;Node19 -->
<g id="edge24_Node000002_Node000019" class="edge">
<title>Node2&#45;&gt;Node19</title>
<g id="a_edge24_Node000002_Node000019"><a xlink:title=" ">
<path fill="none" stroke="#63b8ff" d="M900.11,-219.75C905.28,-212.34 912.85,-201.5 919.19,-192.41"/>
<polygon fill="#63b8ff" stroke="#63b8ff" points="922.15,-194.29 925,-184.09 916.41,-190.29 922.15,-194.29"/>
</a>
</g>
</g>
<!-- Node20 -->
<g id="Node000020" class="node">
<title>Node20</title>
<g id="a_Node000020"><a xlink:href="settingsconstants_8h.html" target="_top" xlink:title=" ">
<polygon fill="white" stroke="#666666" points="805,-129 693,-129 693,-110 805,-110 805,-129"/>
<text text-anchor="middle" x="749" y="-117" font-family="Helvetica,sans-Serif" font-size="10.00">settingsconstants.h</text>
</a>
</g>
</g>
<!-- Node2&#45;&gt;Node20 -->
<g id="edge26_Node000002_Node000020" class="edge">
<title>Node2&#45;&gt;Node20</title>
<g id="a_edge26_Node000002_Node000020"><a xlink:title=" ">
<path fill="none" stroke="#63b8ff" d="M845.26,-228.21C771.99,-226.61 638.84,-218.86 609,-184 603.51,-177.58 604.01,-171.82 609,-165 619.31,-150.9 658.67,-139.15 693.04,-131.27"/>
<polygon fill="#63b8ff" stroke="#63b8ff" points="694.04,-134.63 703.04,-129.05 692.52,-127.8 694.04,-134.63"/>
</a>
</g>
</g>
<!-- Node21 -->
<g id="Node000021" class="node">
<title>Node21</title>
<g id="a_Node000021"><a xlink:title=" ">
<polygon fill="#e0e0e0" stroke="#999999" points="1132.5,-184 1059.5,-184 1059.5,-165 1132.5,-165 1132.5,-184"/>
<text text-anchor="middle" x="1096" y="-172" font-family="Helvetica,sans-Serif" font-size="10.00">QByteArray</text>
</a>
</g>
</g>
<!-- Node2&#45;&gt;Node21 -->
<g id="edge28_Node000002_Node000021" class="edge">
<title>Node2&#45;&gt;Node21</title>
<g id="a_edge28_Node000002_Node000021"><a xlink:title=" ">
<path fill="none" stroke="#63b8ff" d="M926.45,-219.98C960.96,-210.93 1015.66,-196.58 1053.56,-186.64"/>
<polygon fill="#63b8ff" stroke="#63b8ff" points="1054.51,-190.01 1063.29,-184.08 1052.73,-183.23 1054.51,-190.01"/>
</a>
</g>
</g>
<!-- Node22 -->
<g id="Node000022" class="node">
<title>Node22</title>
<g id="a_Node000022"><a xlink:title=" ">
<polygon fill="#e0e0e0" stroke="#999999" points="667.5,-184 618.5,-184 618.5,-165 667.5,-165 667.5,-184"/>
<text text-anchor="middle" x="643" y="-172" font-family="Helvetica,sans-Serif" font-size="10.00">QHash</text>
</a>
</g>
</g>
<!-- Node2&#45;&gt;Node22 -->
<g id="edge29_Node000002_Node000022" class="edge">
<title>Node2&#45;&gt;Node22</title>
<g id="a_edge29_Node000002_Node000022"><a xlink:title=" ">
<path fill="none" stroke="#63b8ff" d="M848.76,-219.96C806.73,-211.87 742.16,-199.05 677.75,-184.32"/>
<polygon fill="#63b8ff" stroke="#63b8ff" points="678.36,-180.87 667.83,-182.04 676.79,-187.69 678.36,-180.87"/>
</a>
</g>
</g>
<!-- Node23 -->
<g id="Node000023" class="node">
<title>Node23</title>
<g id="a_Node000023"><a xlink:title=" ">
<polygon fill="#e0e0e0" stroke="#999999" points="734.5,-184 685.5,-184 685.5,-165 734.5,-165 734.5,-184"/>
<text text-anchor="middle" x="710" y="-172" font-family="Helvetica,sans-Serif" font-size="10.00">QPoint</text>
</a>
</g>
</g>
<!-- Node2&#45;&gt;Node23 -->
<g id="edge30_Node000002_Node000023" class="edge">
<title>Node2&#45;&gt;Node23</title>
<g id="a_edge30_Node000002_Node000023"><a xlink:title=" ">
<path fill="none" stroke="#63b8ff" d="M864.44,-219.98C831.71,-210.56 779.01,-195.38 744.44,-185.42"/>
<polygon fill="#63b8ff" stroke="#63b8ff" points="745.35,-182.04 734.77,-182.63 743.41,-188.77 745.35,-182.04"/>
</a>
</g>
</g>
<!-- Node24 -->
<g id="Node000024" class="node">
<title>Node24</title>
<g id="a_Node000024"><a xlink:title=" ">
<polygon fill="#e0e0e0" stroke="#999999" points="817,-184 753,-184 753,-165 817,-165 817,-184"/>
<text text-anchor="middle" x="785" y="-172" font-family="Helvetica,sans-Serif" font-size="10.00">QSettings</text>
</a>
</g>
</g>
<!-- Node2&#45;&gt;Node24 -->
<g id="edge31_Node000002_Node000024" class="edge">
<title>Node2&#45;&gt;Node24</title>
<g id="a_edge31_Node000002_Node000024"><a xlink:title=" ">
<path fill="none" stroke="#63b8ff" d="M876.49,-219.98C859.03,-211.5 831.99,-198.35 811.83,-188.54"/>
<polygon fill="#63b8ff" stroke="#63b8ff" points="813.36,-185.4 802.83,-184.17 810.29,-191.69 813.36,-185.4"/>
</a>
</g>
</g>
<!-- Node25 -->
<g id="Node000025" class="node">
<title>Node25</title>
<g id="a_Node000025"><a xlink:title=" ">
<polygon fill="#e0e0e0" stroke="#999999" points="879,-184 835,-184 835,-165 879,-165 879,-184"/>
<text text-anchor="middle" x="857" y="-172" font-family="Helvetica,sans-Serif" font-size="10.00">QSize</text>
</a>
</g>
</g>
<!-- Node2&#45;&gt;Node25 -->
<g id="edge32_Node000002_Node000025" class="edge">
<title>Node2&#45;&gt;Node25</title>
<g id="a_edge32_Node000002_Node000025"><a xlink:title=" ">
<path fill="none" stroke="#63b8ff" d="M887.89,-219.75C882.72,-212.34 875.15,-201.5 868.81,-192.41"/>
<polygon fill="#63b8ff" stroke="#63b8ff" points="871.59,-190.29 863,-184.09 865.85,-194.29 871.59,-190.29"/>
</a>
</g>
</g>
<!-- Node26 -->
<g id="Node000026" class="node">
<title>Node26</title>
<g id="a_Node000026"><a xlink:title=" ">
<polygon fill="#e0e0e0" stroke="#999999" points="1041.5,-184 982.5,-184 982.5,-165 1041.5,-165 1041.5,-184"/>
<text text-anchor="middle" x="1012" y="-172" font-family="Helvetica,sans-Serif" font-size="10.00">QVariant</text>
</a>
</g>
</g>
<!-- Node2&#45;&gt;Node26 -->
<g id="edge33_Node000002_Node000026" class="edge">
<title>Node2&#45;&gt;Node26</title>
<g id="a_edge33_Node000002_Node000026"><a xlink:title=" ">
<path fill="none" stroke="#63b8ff" d="M912.96,-219.98C932.03,-211.42 961.66,-198.11 983.55,-188.28"/>
<polygon fill="#63b8ff" stroke="#63b8ff" points="985.01,-191.46 992.7,-184.17 982.14,-185.07 985.01,-191.46"/>
</a>
</g>
</g>
<!-- Node4&#45;&gt;Node5 -->
<g id="edge4_Node000004_Node000005" class="edge">
<title>Node4&#45;&gt;Node5</title>
<g id="a_edge4_Node000004_Node000005"><a xlink:title=" ">
<path fill="none" stroke="#63b8ff" d="M1162.6,-164.98C1130,-155.54 1077.5,-140.34 1043.12,-130.38"/>
<polygon fill="#63b8ff" stroke="#63b8ff" points="1043.65,-126.89 1033.07,-127.47 1041.7,-133.62 1043.65,-126.89"/>
</a>
</g>
</g>
<!-- Node16 -->
<g id="Node000016" class="node">
<title>Node16</title>
<g id="a_Node000016"><a xlink:href="simpletransaction_8h.html" target="_top" xlink:title=" ">
<polygon fill="white" stroke="#666666" points="1266.5,-129 1153.5,-129 1153.5,-110 1266.5,-110 1266.5,-129"/>
<text text-anchor="middle" x="1210" y="-117" font-family="Helvetica,sans-Serif" font-size="10.00">simpletransaction.h</text>
</a>
</g>
</g>
<!-- Node4&#45;&gt;Node16 -->
<g id="edge19_Node000004_Node000016" class="edge">
<title>Node4&#45;&gt;Node16</title>
<g id="a_edge19_Node000004_Node000016"><a xlink:title=" ">
<path fill="none" stroke="#63b8ff" d="M1194.97,-164.75C1197.36,-157.72 1200.79,-147.62 1203.77,-138.84"/>
<polygon fill="#63b8ff" stroke="#63b8ff" points="1207.18,-139.68 1207.08,-129.09 1200.55,-137.43 1207.18,-139.68"/>
</a>
</g>
</g>
<!-- Node5&#45;&gt;Node3 -->
<g id="edge5_Node000005_Node000003" class="edge">
<title>Node5&#45;&gt;Node3</title>
<g id="a_edge5_Node000005_Node000003"><a xlink:title=" ">
<path fill="none" stroke="#63b8ff" d="M1033.31,-114.14C1074.21,-106.75 1159.65,-91.08 1241.22,-74.32"/>
<polygon fill="#63b8ff" stroke="#63b8ff" points="1242.06,-77.72 1251.15,-72.27 1240.65,-70.87 1242.06,-77.72"/>
</a>
</g>
</g>
<!-- Node6 -->
<g id="Node000006" class="node">
<title>Node6</title>
<g id="a_Node000006"><a xlink:href="executor_8h.html" target="_top" xlink:title=" ">
<polygon fill="white" stroke="#666666" points="1003.5,-74 936.5,-74 936.5,-55 1003.5,-55 1003.5,-74"/>
<text text-anchor="middle" x="970" y="-62" font-family="Helvetica,sans-Serif" font-size="10.00">executor.h</text>
</a>
</g>
</g>
<!-- Node5&#45;&gt;Node6 -->
<g id="edge6_Node000005_Node000006" class="edge">
<title>Node5&#45;&gt;Node6</title>
<g id="a_edge6_Node000005_Node000006"><a xlink:title=" ">
<path fill="none" stroke="#63b8ff" d="M1002.56,-109.75C997.11,-102.34 989.14,-91.5 982.44,-82.41"/>
<polygon fill="#63b8ff" stroke="#63b8ff" points="985.07,-80.07 976.32,-74.09 979.43,-84.22 985.07,-80.07"/>
</a>
</g>
</g>
<!-- Node8 -->
<g id="Node000008" class="node">
<title>Node8</title>
<g id="a_Node000008"><a xlink:title=" ">
<polygon fill="#e0e0e0" stroke="#999999" points="900,-19 838,-19 838,0 900,0 900,-19"/>
<text text-anchor="middle" x="869" y="-7" font-family="Helvetica,sans-Serif" font-size="10.00">QProcess</text>
</a>
</g>
</g>
<!-- Node5&#45;&gt;Node8 -->
<g id="edge13_Node000005_Node000008" class="edge">
<title>Node5&#45;&gt;Node8</title>
<g id="a_edge13_Node000005_Node000008"><a xlink:title=" ">
<path fill="none" stroke="#63b8ff" d="M984.8,-115.77C942.22,-110.41 856.76,-97 839,-74 827.89,-59.61 839.89,-40.45 851.86,-26.95"/>
<polygon fill="#63b8ff" stroke="#63b8ff" points="854.72,-29.02 859.09,-19.37 849.65,-24.19 854.72,-29.02"/>
</a>
</g>
</g>
<!-- Node9 -->
<g id="Node000009" class="node">
<title>Node9</title>
<g id="a_Node000009"><a xlink:title=" ">
<polygon fill="#e0e0e0" stroke="#999999" points="1129,-19 1073,-19 1073,0 1129,0 1129,-19"/>
<text text-anchor="middle" x="1101" y="-7" font-family="Helvetica,sans-Serif" font-size="10.00">QQueue</text>
</a>
</g>
</g>
<!-- Node5&#45;&gt;Node9 -->
<g id="edge14_Node000005_Node000009" class="edge">
<title>Node5&#45;&gt;Node9</title>
<g id="a_edge14_Node000005_Node000009"><a xlink:title=" ">
<path fill="none" stroke="#63b8ff" d="M1033.04,-118.12C1063.48,-116.19 1114.87,-107.77 1139,-74 1150.28,-58.21 1135.03,-38.95 1120.62,-25.81"/>
<polygon fill="#63b8ff" stroke="#63b8ff" points="1122.75,-23.03 1112.87,-19.2 1118.21,-28.36 1122.75,-23.03"/>
</a>
</g>
</g>
<!-- Node10 -->
<g id="Node000010" class="node">
<title>Node10</title>
<g id="a_Node000010"><a xlink:href="userinfo_8h.html" target="_top" xlink:title=" ">
<polygon fill="white" stroke="#666666" points="791.5,-74 726.5,-74 726.5,-55 791.5,-55 791.5,-74"/>
<text text-anchor="middle" x="759" y="-62" font-family="Helvetica,sans-Serif" font-size="10.00">userinfo.h</text>
</a>
</g>
</g>
<!-- Node5&#45;&gt;Node10 -->
<g id="edge10_Node000005_Node000010" class="edge">
<title>Node5&#45;&gt;Node10</title>
<g id="a_edge10_Node000005_Node000010"><a xlink:title=" ">
<path fill="none" stroke="#63b8ff" d="M984.57,-113.32C942.19,-104.34 854.5,-85.75 801.81,-74.58"/>
<polygon fill="#63b8ff" stroke="#63b8ff" points="802.27,-71.1 791.76,-72.45 800.82,-77.94 802.27,-71.1"/>
</a>
</g>
</g>
<!-- Node12 -->
<g id="Node000012" class="node">
<title>Node12</title>
<g id="a_Node000012"><a xlink:title=" ">
<polygon fill="#e0e0e0" stroke="#999999" points="686.5,-19 633.5,-19 633.5,0 686.5,0 686.5,-19"/>
<text text-anchor="middle" x="660" y="-7" font-family="Helvetica,sans-Serif" font-size="10.00">QString</text>
</a>
</g>
</g>
<!-- Node5&#45;&gt;Node12 -->
<g id="edge15_Node000005_Node000012" class="edge">
<title>Node5&#45;&gt;Node12</title>
<g id="a_edge15_Node000005_Node000012"><a xlink:title=" ">
<path fill="none" stroke="#63b8ff" d="M984.81,-116.91C923.45,-112.55 763.36,-99.04 717,-74 697.11,-63.26 680.68,-42.76 670.65,-27.96"/>
<polygon fill="#63b8ff" stroke="#63b8ff" points="673.38,-25.72 665.02,-19.21 667.49,-29.51 673.38,-25.72"/>
</a>
</g>
</g>
<!-- Node13 -->
<g id="Node000013" class="node">
<title>Node13</title>
<g id="a_Node000013"><a xlink:title=" ">
<polygon fill="#e0e0e0" stroke="#999999" points="918,-74 848,-74 848,-55 918,-55 918,-74"/>
<text text-anchor="middle" x="883" y="-62" font-family="Helvetica,sans-Serif" font-size="10.00">QStringList</text>
</a>
</g>
</g>
<!-- Node5&#45;&gt;Node13 -->
<g id="edge16_Node000005_Node000013" class="edge">
<title>Node5&#45;&gt;Node13</title>
<g id="a_edge16_Node000005_Node000013"><a xlink:title=" ">
<path fill="none" stroke="#63b8ff" d="M988.76,-109.98C968.3,-101.38 936.47,-87.99 913.07,-78.15"/>
<polygon fill="#63b8ff" stroke="#63b8ff" points="914.19,-74.82 903.61,-74.17 911.47,-81.27 914.19,-74.82"/>
</a>
</g>
</g>
<!-- Node14 -->
<g id="Node000014" class="node">
<title>Node14</title>
<g id="a_Node000014"><a xlink:title=" ">
<polygon fill="#e0e0e0" stroke="#999999" points="1074,-74 1022,-74 1022,-55 1074,-55 1074,-74"/>
<text text-anchor="middle" x="1048" y="-62" font-family="Helvetica,sans-Serif" font-size="10.00">cassert</text>
</a>
</g>
</g>
<!-- Node5&#45;&gt;Node14 -->
<g id="edge17_Node000005_Node000014" class="edge">
<title>Node5&#45;&gt;Node14</title>
<g id="a_edge17_Node000005_Node000014"><a xlink:title=" ">
<path fill="none" stroke="#63b8ff" d="M1015.44,-109.75C1020.89,-102.34 1028.86,-91.5 1035.56,-82.41"/>
<polygon fill="#63b8ff" stroke="#63b8ff" points="1038.57,-84.22 1041.68,-74.09 1032.93,-80.07 1038.57,-84.22"/>
</a>
</g>
</g>
<!-- Node15 -->
<g id="Node000015" class="node">
<title>Node15</title>
<g id="a_Node000015"><a xlink:title=" ">
<polygon fill="#e0e0e0" stroke="#999999" points="1130,-74 1092,-74 1092,-55 1130,-55 1130,-74"/>
<text text-anchor="middle" x="1111" y="-62" font-family="Helvetica,sans-Serif" font-size="10.00">map</text>
</a>
</g>
</g>
<!-- Node5&#45;&gt;Node15 -->
<g id="edge18_Node000005_Node000015" class="edge">
<title>Node5&#45;&gt;Node15</title>
<g id="a_edge18_Node000005_Node000015"><a xlink:title=" ">
<path fill="none" stroke="#63b8ff" d="M1025.39,-109.98C1041.57,-101.57 1066.57,-88.59 1085.38,-78.81"/>
<polygon fill="#63b8ff" stroke="#63b8ff" points="1087.05,-81.89 1094.31,-74.17 1083.83,-75.68 1087.05,-81.89"/>
</a>
</g>
</g>
<!-- Node7 -->
<g id="Node000007" class="node">
<title>Node7</title>
<g id="a_Node000007"><a xlink:title=" ">
<polygon fill="#e0e0e0" stroke="#999999" points="998,-19 942,-19 942,0 998,0 998,-19"/>
<text text-anchor="middle" x="970" y="-7" font-family="Helvetica,sans-Serif" font-size="10.00">QObject</text>
</a>
</g>
</g>
<!-- Node6&#45;&gt;Node7 -->
<g id="edge7_Node000006_Node000007" class="edge">
<title>Node6&#45;&gt;Node7</title>
<g id="a_edge7_Node000006_Node000007"><a xlink:title=" ">
<path fill="none" stroke="#63b8ff" d="M970,-54.75C970,-47.8 970,-37.85 970,-29.13"/>
<polygon fill="#63b8ff" stroke="#63b8ff" points="973.5,-29.09 970,-19.09 966.5,-29.09 973.5,-29.09"/>
</a>
</g>
</g>
<!-- Node6&#45;&gt;Node8 -->
<g id="edge8_Node000006_Node000008" class="edge">
<title>Node6&#45;&gt;Node8</title>
<g id="a_edge8_Node000006_Node000008"><a xlink:title=" ">
<path fill="none" stroke="#63b8ff" d="M953.77,-54.98C937.82,-46.61 913.22,-33.7 894.62,-23.95"/>
<polygon fill="#63b8ff" stroke="#63b8ff" points="896,-20.72 885.52,-19.17 892.75,-26.92 896,-20.72"/>
</a>
</g>
</g>
<!-- Node6&#45;&gt;Node9 -->
<g id="edge9_Node000006_Node000009" class="edge">
<title>Node6&#45;&gt;Node9</title>
<g id="a_edge9_Node000006_Node000009"><a xlink:title=" ">
<path fill="none" stroke="#63b8ff" d="M991.05,-54.98C1012.41,-46.34 1045.7,-32.87 1070.06,-23.02"/>
<polygon fill="#63b8ff" stroke="#63b8ff" points="1071.61,-26.17 1079.57,-19.17 1068.99,-19.68 1071.61,-26.17"/>
</a>
</g>
</g>
<!-- Node11 -->
<g id="Node000011" class="node">
<title>Node11</title>
<g id="a_Node000011"><a xlink:title=" ">
<polygon fill="#e0e0e0" stroke="#999999" points="795,-19 723,-19 723,0 795,0 795,-19"/>
<text text-anchor="middle" x="759" y="-7" font-family="Helvetica,sans-Serif" font-size="10.00">QDateTime</text>
</a>
</g>
</g>
<!-- Node10&#45;&gt;Node11 -->
<g id="edge11_Node000010_Node000011" class="edge">
<title>Node10&#45;&gt;Node11</title>
<g id="a_edge11_Node000010_Node000011"><a xlink:title=" ">
<path fill="none" stroke="#63b8ff" d="M759,-54.75C759,-47.8 759,-37.85 759,-29.13"/>
<polygon fill="#63b8ff" stroke="#63b8ff" points="762.5,-29.09 759,-19.09 755.5,-29.09 762.5,-29.09"/>
</a>
</g>
</g>
<!-- Node10&#45;&gt;Node12 -->
<g id="edge12_Node000010_Node000012" class="edge">
<title>Node10&#45;&gt;Node12</title>
<g id="a_edge12_Node000010_Node000012"><a xlink:title=" ">
<path fill="none" stroke="#63b8ff" d="M743.09,-54.98C727.45,-46.61 703.34,-33.7 685.12,-23.95"/>
<polygon fill="#63b8ff" stroke="#63b8ff" points="686.66,-20.8 676.2,-19.17 683.36,-26.98 686.66,-20.8"/>
</a>
</g>
</g>
<!-- Node16&#45;&gt;Node3 -->
<g id="edge20_Node000016_Node000003" class="edge">
<title>Node16&#45;&gt;Node3</title>
<g id="a_edge20_Node000016_Node000003"><a xlink:title=" ">
<path fill="none" stroke="#63b8ff" d="M1221.41,-109.98C1232.11,-102 1248.34,-89.88 1261.16,-80.31"/>
<polygon fill="#63b8ff" stroke="#63b8ff" points="1263.47,-82.96 1269.39,-74.17 1259.28,-77.35 1263.47,-82.96"/>
</a>
</g>
</g>
<!-- Node17 -->
<g id="Node000017" class="node">
<title>Node17</title>
<g id="a_Node000017"><a xlink:title=" ">
<polygon fill="#e0e0e0" stroke="#999999" points="1233.5,-74 1186.5,-74 1186.5,-55 1233.5,-55 1233.5,-74"/>
<text text-anchor="middle" x="1210" y="-62" font-family="Helvetica,sans-Serif" font-size="10.00">queue</text>
</a>
</g>
</g>
<!-- Node16&#45;&gt;Node17 -->
<g id="edge21_Node000016_Node000017" class="edge">
<title>Node16&#45;&gt;Node17</title>
<g id="a_edge21_Node000016_Node000017"><a xlink:title=" ">
<path fill="none" stroke="#63b8ff" d="M1210,-109.75C1210,-102.8 1210,-92.85 1210,-84.13"/>
<polygon fill="#63b8ff" stroke="#63b8ff" points="1213.5,-84.09 1210,-74.09 1206.5,-84.09 1213.5,-84.09"/>
</a>
</g>
</g>
<!-- Node18&#45;&gt;Node12 -->
<g id="edge23_Node000018_Node000012" class="edge">
<title>Node18&#45;&gt;Node12</title>
<g id="a_edge23_Node000018_Node000012"><a xlink:title=" ">
<path fill="none" stroke="#63b8ff" d="M611.34,-109.66C620.04,-91.93 639.77,-51.73 651.26,-28.32"/>
<polygon fill="#63b8ff" stroke="#63b8ff" points="654.49,-29.68 655.75,-19.16 648.2,-26.59 654.49,-29.68"/>
</a>
</g>
</g>
<!-- Node19&#45;&gt;Node5 -->
<g id="edge25_Node000019_Node000005" class="edge">
<title>Node19&#45;&gt;Node5</title>
<g id="a_edge25_Node000019_Node000005"><a xlink:title=" ">
<path fill="none" stroke="#63b8ff" d="M943.53,-164.98C955.4,-156.92 973.46,-144.65 987.61,-135.03"/>
<polygon fill="#63b8ff" stroke="#63b8ff" points="989.94,-137.69 996.24,-129.17 986,-131.9 989.94,-137.69"/>
</a>
</g>
</g>
<!-- Node20&#45;&gt;Node12 -->
<g id="edge27_Node000020_Node000012" class="edge">
<title>Node20&#45;&gt;Node12</title>
<g id="a_edge27_Node000020_Node000012"><a xlink:title=" ">
<path fill="none" stroke="#63b8ff" d="M730.73,-109.92C716.28,-102.3 696.5,-89.92 684,-74 673.65,-60.82 667.39,-42.69 663.87,-29.18"/>
<polygon fill="#63b8ff" stroke="#63b8ff" points="667.21,-28.07 661.54,-19.12 660.39,-29.66 667.21,-28.07"/>
</a>
</g>
</g>
<!-- Node27&#45;&gt;Node12 -->
<g id="edge41_Node000027_Node000012" class="edge">
<title>Node27&#45;&gt;Node12</title>
<g id="a_edge41_Node000027_Node000012"><a xlink:title=" ">
<path fill="none" stroke="#63b8ff" d="M393.87,-225.42C419.68,-220.64 463.66,-209.22 492,-184 519.62,-159.42 506.3,-138.37 530,-110 560.78,-73.16 607.53,-41.62 635.79,-24.42"/>
<polygon fill="#63b8ff" stroke="#63b8ff" points="637.82,-27.28 644.61,-19.15 634.23,-21.27 637.82,-27.28"/>
</a>
</g>
</g>
<!-- Node28 -->
<g id="Node000028" class="node">
<title>Node28</title>
<g id="a_Node000028"><a xlink:href="storemodel_8h.html" target="_top" xlink:title=" ">
<polygon fill="white" stroke="#666666" points="356.5,-184 275.5,-184 275.5,-165 356.5,-165 356.5,-184"/>
<text text-anchor="middle" x="316" y="-172" font-family="Helvetica,sans-Serif" font-size="10.00">storemodel.h</text>
</a>
</g>
</g>
<!-- Node27&#45;&gt;Node28 -->
<g id="edge36_Node000027_Node000028" class="edge">
<title>Node27&#45;&gt;Node28</title>
<g id="a_edge36_Node000027_Node000028"><a xlink:title=" ">
<path fill="none" stroke="#63b8ff" d="M363.84,-219.98C355.5,-212.23 342.97,-200.58 332.82,-191.14"/>
<polygon fill="#63b8ff" stroke="#63b8ff" points="335.03,-188.42 325.32,-184.17 330.26,-193.54 335.03,-188.42"/>
</a>
</g>
</g>
<!-- Node30 -->
<g id="Node000030" class="node">
<title>Node30</title>
<g id="a_Node000030"><a xlink:title=" ">
<polygon fill="#e0e0e0" stroke="#999999" points="483,-184 375,-184 375,-165 483,-165 483,-184"/>
<text text-anchor="middle" x="429" y="-172" font-family="Helvetica,sans-Serif" font-size="10.00">QFileSystemModel</text>
</a>
</g>
</g>
<!-- Node27&#45;&gt;Node30 -->
<g id="edge38_Node000027_Node000030" class="edge">
<title>Node27&#45;&gt;Node30</title>
<g id="a_edge38_Node000027_Node000030"><a xlink:title=" ">
<path fill="none" stroke="#63b8ff" d="M382,-219.98C390.19,-212.23 402.51,-200.58 412.47,-191.14"/>
<polygon fill="#63b8ff" stroke="#63b8ff" points="414.98,-193.59 419.84,-184.17 410.17,-188.5 414.98,-193.59"/>
</a>
</g>
</g>
<!-- Node31 -->
<g id="Node000031" class="node">
<title>Node31</title>
<g id="a_Node000031"><a xlink:title=" ">
<polygon fill="#e0e0e0" stroke="#999999" points="124,-184 0,-184 0,-165 124,-165 124,-184"/>
<text text-anchor="middle" x="62" y="-172" font-family="Helvetica,sans-Serif" font-size="10.00">QProcessEnvironment</text>
</a>
</g>
</g>
<!-- Node27&#45;&gt;Node31 -->
<g id="edge39_Node000027_Node000031" class="edge">
<title>Node27&#45;&gt;Node31</title>
<g id="a_edge39_Node000027_Node000031"><a xlink:title=" ">
<path fill="none" stroke="#63b8ff" d="M352.11,-224.94C305.71,-217.03 192.57,-197.75 122.09,-185.74"/>
<polygon fill="#63b8ff" stroke="#63b8ff" points="122.45,-182.25 112.01,-184.02 121.28,-189.15 122.45,-182.25"/>
</a>
</g>
</g>
<!-- Node32 -->
<g id="Node000032" class="node">
<title>Node32</title>
<g id="a_Node000032"><a xlink:title=" ">
<polygon fill="#e0e0e0" stroke="#999999" points="257.5,-184 142.5,-184 142.5,-165 257.5,-165 257.5,-184"/>
<text text-anchor="middle" x="200" y="-172" font-family="Helvetica,sans-Serif" font-size="10.00">QRegularExpression</text>
</a>
</g>
</g>
<!-- Node27&#45;&gt;Node32 -->
<g id="edge40_Node000027_Node000032" class="edge">
<title>Node27&#45;&gt;Node32</title>
<g id="a_edge40_Node000027_Node000032"><a xlink:title=" ">
<path fill="none" stroke="#63b8ff" d="M352.48,-222.21C324.29,-213.58 273.09,-197.89 237.86,-187.1"/>
<polygon fill="#63b8ff" stroke="#63b8ff" points="238.51,-183.64 227.92,-184.05 236.46,-190.33 238.51,-183.64"/>
</a>
</g>
</g>
<!-- Node29 -->
<g id="Node000029" class="node">
<title>Node29</title>
<g id="a_Node000029"><a xlink:title=" ">
<polygon fill="#e0e0e0" stroke="#999999" points="379,-129 253,-129 253,-110 379,-110 379,-129"/>
<text text-anchor="middle" x="316" y="-117" font-family="Helvetica,sans-Serif" font-size="10.00">QSortFilterProxyModel</text>
</a>
</g>
</g>
<!-- Node28&#45;&gt;Node29 -->
<g id="edge37_Node000028_Node000029" class="edge">
<title>Node28&#45;&gt;Node29</title>
<g id="a_edge37_Node000028_Node000029"><a xlink:title=" ">
<path fill="none" stroke="#63b8ff" d="M316,-164.75C316,-157.8 316,-147.85 316,-139.13"/>
<polygon fill="#63b8ff" stroke="#63b8ff" points="319.5,-139.09 316,-129.09 312.5,-139.09 319.5,-139.09"/>
</a>
</g>
</g>
</g>
</svg>

<g id="navigator" transform="translate(0 0)" fill="#404254">
  <rect fill="#f2f5e9" fill-opacity="0.5" stroke="#606060" stroke-width=".5" x="0" y="0" width="60" height="60"/>
  <use id="zoomplus" xlink:href="#zoomPlus" x="17" y="9" onmousedown="handleZoom(evt,'in')"/>
  <use id="zoomminus" xlink:href="#zoomMin" x="42" y="9" onmousedown="handleZoom(evt,'out')"/>
  <use id="reset" xlink:href="#resetDef" x="30" y="36" onmousedown="handleReset()"/>
   <use id="arrowup" xlink:href="#arrowUp" x="0" y="0" onmousedown="handlePan(0,-1)"/>
  <use id="arrowright" xlink:href="#arrowRight" x="0" y="0" onmousedown="handlePan(1,0)"/>
  <use id="arrowdown" xlink:href="#arrowDown" x="0" y="0" onmousedown="handlePan(0,1)"/>
  <use id="arrowleft" xlink:href="#arrowLeft" x="0" y="0" onmousedown="handlePan(-1,0)"/>
</g>
<svg viewBox="0 0 15 15" width="100%" height="30px" preserveAspectRatio="xMaxYMin meet">
 <g id="arrow_out" transform="scale(0.3 0.3)">
  <a xlink:href="qtpasssettings_8cpp__incl_org.svg" target="_base">
   <rect id="button" ry="5" rx="5" y="6" x="6" height="38" width="38"
        fill="#f2f5e9" fill-opacity="0.5" stroke="#606060" stroke-width="1.0"/>
   <path id="arrow"
     d="M 11.500037,31.436501 C 11.940474,20.09759 22.043105,11.32322 32.158766,21.979434 L 37.068811,17.246167 C 37.068811,17.246167 37.088388,32 37.088388,32 L 22.160133,31.978069 C 22.160133,31.978069 26.997745,27.140456 26.997745,27.140456 C 18.528582,18.264221 13.291696,25.230495 11.500037,31.436501 z"
     style="fill:#404040;"/>
  </a>
 </g>
</svg>

<style type='text/css'>
<![CDATA[
[data-mouse-over-selected='false'] { opacity: 0.7; }
[data-mouse-over-selected='true']  { opacity: 1.0; }
]]>
</style>
<script type="application/ecmascript"><![CDATA[
document.addEventListener('DOMContentLoaded', (event) => {
  highlightEdges();
  highlightAdjacentNodes();
});
]]></script>
</svg>
