<?xml version="1.0" encoding="UTF-8" standalone="no"?>
<!DOCTYPE svg PUBLIC "-//W3C//DTD SVG 1.1//EN"
 "http://www.w3.org/Graphics/SVG/1.1/DTD/svg11.dtd">
<!-- Generated by graphviz version 2.43.0 (0)
 -->
<!-- Title: src/qtpasssettings.cpp Pages: 1 -->
<svg width="1462pt" height="302pt"
 viewBox="0.00 0.00 1461.50 302.00" xmlns="http://www.w3.org/2000/svg" xmlns:xlink="http://www.w3.org/1999/xlink">
<g id="graph0" class="graph" transform="scale(1 1) rotate(0) translate(4 298)">
<title>src/qtpasssettings.cpp</title>
<!-- Node1 -->
<g id="Node000001" class="node">
<title>Node1</title>
<g id="a_Node000001"><a xlink:title=" ">
<polygon fill="#999999" stroke="#666666" points="1162.5,-294 1037.5,-294 1037.5,-275 1162.5,-275 1162.5,-294"/>
<text text-anchor="middle" x="1100" y="-282" font-family="Helvetica,sans-Serif" font-size="10.00">src/qtpasssettings.cpp</text>
</a>
</g>
</g>
<!-- Node2 -->
<g id="Node000002" class="node">
<title>Node2</title>
<g id="a_Node000002"><a xlink:href="qtpasssettings_8h.html" target="_top" xlink:title=" ">
<polygon fill="white" stroke="#666666" points="934.5,-239 837.5,-239 837.5,-220 934.5,-220 934.5,-239"/>
<text text-anchor="middle" x="886" y="-227" font-family="Helvetica,sans-Serif" font-size="10.00">qtpasssettings.h</text>
</a>
</g>
</g>
<!-- Node1&#45;&gt;Node2 -->
<g id="edge1_Node000001_Node000002" class="edge">
<title>Node1&#45;&gt;Node2</title>
<g id="a_edge1_Node000001_Node000002"><a xlink:title=" ">
<path fill="none" stroke="#63b8ff" d="M1065.62,-274.98C1028.91,-265.89 970.62,-251.46 930.45,-241.51"/>
<polygon fill="#63b8ff" stroke="#63b8ff" points="931.2,-238.09 920.65,-239.08 929.52,-244.88 931.2,-238.09"/>
</a>
</g>
</g>
<!-- Node5 -->
<g id="Node000005" class="node">
<title>Node5</title>
<g id="a_Node000005"><a xlink:href="pass_8h.html" target="_top" xlink:title=" ">
<polygon fill="white" stroke="#666666" points="1018,-129 970,-129 970,-110 1018,-110 1018,-129"/>
<text text-anchor="middle" x="994" y="-117" font-family="Helvetica,sans-Serif" font-size="10.00">pass.h</text>
</a>
</g>
</g>
<!-- Node1&#45;&gt;Node5 -->
<g id="edge35_Node000001_Node000005" class="edge">
<title>Node1&#45;&gt;Node5</title>
<g id="a_edge35_Node000001_Node000005"><a xlink:title=" ">
<path fill="none" stroke="#63b8ff" d="M1037.41,-279.56C924.23,-270.95 692.97,-246.02 647,-184 641.97,-177.22 641.42,-171.34 647,-165 667.49,-141.71 876.26,-127.25 959.76,-122.36"/>
<polygon fill="#63b8ff" stroke="#63b8ff" points="960.21,-125.84 969.99,-121.77 959.81,-118.85 960.21,-125.84"/>
</a>
</g>
</g>
<!-- Node28 -->
<g id="Node000028" class="node">
<title>Node28</title>
<g id="a_Node000028"><a xlink:href="util_8h.html" target="_top" xlink:title=" ">
<polygon fill="white" stroke="#666666" points="404.5,-239 363.5,-239 363.5,-220 404.5,-220 404.5,-239"/>
<text text-anchor="middle" x="384" y="-227" font-family="Helvetica,sans-Serif" font-size="10.00">util.h</text>
</a>
</g>
</g>
<!-- Node1&#45;&gt;Node28 -->
<g id="edge36_Node000001_Node000028" class="edge">
<title>Node1&#45;&gt;Node28</title>
<g id="a_edge36_Node000001_Node000028"><a xlink:title=" ">
<path fill="none" stroke="#63b8ff" d="M1037.4,-278.87C889.65,-267.93 523.52,-240.83 414.87,-232.79"/>
<polygon fill="#63b8ff" stroke="#63b8ff" points="414.84,-229.27 404.61,-232.03 414.32,-236.25 414.84,-229.27"/>
</a>
</g>
</g>
<!-- Node34 -->
<g id="Node000034" class="node">
<title>Node34</title>
<g id="a_Node000034"><a xlink:title=" ">
<polygon fill="#e0e0e0" stroke="#999999" points="1053.5,-239 952.5,-239 952.5,-220 1053.5,-220 1053.5,-239"/>
<text text-anchor="middle" x="1003" y="-227" font-family="Helvetica,sans-Serif" font-size="10.00">QCoreApplication</text>
</a>
</g>
</g>
<!-- Node1&#45;&gt;Node34 -->
<g id="edge43_Node000001_Node000034" class="edge">
<title>Node1&#45;&gt;Node34</title>
<g id="a_edge43_Node000001_Node000034"><a xlink:title=" ">
<path fill="none" stroke="#63b8ff" d="M1084.42,-274.98C1069.23,-266.69 1045.9,-253.94 1028.1,-244.22"/>
<polygon fill="#63b8ff" stroke="#63b8ff" points="1029.32,-240.89 1018.87,-239.17 1025.97,-247.04 1029.32,-240.89"/>
</a>
</g>
</g>
<!-- Node35 -->
<g id="Node000035" class="node">
<title>Node35</title>
<g id="a_Node000035"><a xlink:title=" ">
<polygon fill="#e0e0e0" stroke="#999999" points="1128,-239 1072,-239 1072,-220 1128,-220 1128,-239"/>
<text text-anchor="middle" x="1100" y="-227" font-family="Helvetica,sans-Serif" font-size="10.00">QCursor</text>
</a>
</g>
</g>
<!-- Node1&#45;&gt;Node35 -->
<g id="edge44_Node000001_Node000035" class="edge">
<title>Node1&#45;&gt;Node35</title>
<g id="a_edge44_Node000001_Node000035"><a xlink:title=" ">
<path fill="none" stroke="#63b8ff" d="M1100,-274.75C1100,-267.8 1100,-257.85 1100,-249.13"/>
<polygon fill="#63b8ff" stroke="#63b8ff" points="1103.5,-249.09 1100,-239.09 1096.5,-249.09 1103.5,-249.09"/>
</a>
</g>
</g>
<!-- Node36 -->
<g id="Node000036" class="node">
<title>Node36</title>
<g id="a_Node000036"><a xlink:title=" ">
<polygon fill="#e0e0e0" stroke="#999999" points="1202,-239 1146,-239 1146,-220 1202,-220 1202,-239"/>
<text text-anchor="middle" x="1174" y="-227" font-family="Helvetica,sans-Serif" font-size="10.00">QDebug</text>
</a>
</g>
</g>
<!-- Node1&#45;&gt;Node36 -->
<g id="edge45_Node000001_Node000036" class="edge">
<title>Node1&#45;&gt;Node36</title>
<g id="a_edge45_Node000001_Node000036"><a xlink:title=" ">
<path fill="none" stroke="#63b8ff" d="M1111.89,-274.98C1123.15,-266.92 1140.29,-254.65 1153.71,-245.03"/>
<polygon fill="#63b8ff" stroke="#63b8ff" points="1155.8,-247.84 1161.89,-239.17 1151.73,-242.15 1155.8,-247.84"/>
</a>
</g>
</g>
<!-- Node37 -->
<g id="Node000037" class="node">
<title>Node37</title>
<g id="a_Node000037"><a xlink:title=" ">
<polygon fill="#e0e0e0" stroke="#999999" points="1315.5,-239 1220.5,-239 1220.5,-220 1315.5,-220 1315.5,-239"/>
<text text-anchor="middle" x="1268" y="-227" font-family="Helvetica,sans-Serif" font-size="10.00">QGuiApplication</text>
</a>
</g>
</g>
<!-- Node1&#45;&gt;Node37 -->
<g id="edge46_Node000001_Node000037" class="edge">
<title>Node1&#45;&gt;Node37</title>
<g id="a_edge46_Node000001_Node000037"><a xlink:title=" ">
<path fill="none" stroke="#63b8ff" d="M1126.99,-274.98C1155.2,-266.09 1199.64,-252.07 1231.08,-242.15"/>
<polygon fill="#63b8ff" stroke="#63b8ff" points="1232.31,-245.43 1240.8,-239.08 1230.21,-238.75 1232.31,-245.43"/>
</a>
</g>
</g>
<!-- Node38 -->
<g id="Node000038" class="node">
<title>Node38</title>
<g id="a_Node000038"><a xlink:title=" ">
<polygon fill="#e0e0e0" stroke="#999999" points="1390.5,-239 1333.5,-239 1333.5,-220 1390.5,-220 1390.5,-239"/>
<text text-anchor="middle" x="1362" y="-227" font-family="Helvetica,sans-Serif" font-size="10.00">QScreen</text>
</a>
</g>
</g>
<!-- Node1&#45;&gt;Node38 -->
<g id="edge47_Node000001_Node000038" class="edge">
<title>Node1&#45;&gt;Node38</title>
<g id="a_edge47_Node000001_Node000038"><a xlink:title=" ">
<path fill="none" stroke="#63b8ff" d="M1145.33,-274.96C1188.7,-266.69 1256.19,-253.57 1323.42,-239.29"/>
<polygon fill="#63b8ff" stroke="#63b8ff" points="1324.29,-242.69 1333.34,-237.18 1322.83,-235.84 1324.29,-242.69"/>
</a>
</g>
</g>
<!-- Node39 -->
<g id="Node000039" class="node">
<title>Node39</title>
<g id="a_Node000039"><a xlink:title=" ">
<polygon fill="#e0e0e0" stroke="#999999" points="1453.5,-239 1408.5,-239 1408.5,-220 1453.5,-220 1453.5,-239"/>
<text text-anchor="middle" x="1431" y="-227" font-family="Helvetica,sans-Serif" font-size="10.00">utility</text>
</a>
</g>
</g>
<!-- Node1&#45;&gt;Node39 -->
<g id="edge48_Node000001_Node000039" class="edge">
<title>Node1&#45;&gt;Node39</title>
<g id="a_edge48_Node000001_Node000039"><a xlink:title=" ">
<path fill="none" stroke="#63b8ff" d="M1162.73,-276.43C1221.43,-269.3 1311.71,-257.06 1398.39,-239.14"/>
<polygon fill="#63b8ff" stroke="#63b8ff" points="1399.32,-242.52 1408.39,-237.04 1397.88,-235.66 1399.32,-242.52"/>
</a>
</g>
</g>
<!-- Node3 -->
<g id="Node000003" class="node">
<title>Node3</title>
<g id="a_Node000003"><a xlink:href="enums_8h.html" target="_top" xlink:title=" ">
<polygon fill="white" stroke="#666666" points="1325.5,-74 1266.5,-74 1266.5,-55 1325.5,-55 1325.5,-74"/>
<text text-anchor="middle" x="1296" y="-62" font-family="Helvetica,sans-Serif" font-size="10.00">enums.h</text>
</a>
</g>
</g>
<!-- Node2&#45;&gt;Node3 -->
<g id="edge2_Node000002_Node000003" class="edge">
<title>Node2&#45;&gt;Node3</title>
<g id="a_edge2_Node000002_Node000003"><a xlink:title=" ">
<path fill="none" stroke="#63b8ff" d="M934.8,-221.06C937.57,-220.69 940.32,-220.33 943,-220 982.89,-215.03 1276.03,-213.81 1303,-184 1327.92,-156.47 1314.29,-108.99 1304.04,-83.28"/>
<polygon fill="#63b8ff" stroke="#63b8ff" points="1307.23,-81.84 1300.1,-74.01 1300.78,-84.58 1307.23,-81.84"/>
</a>
</g>
</g>
<!-- Node4 -->
<g id="Node000004" class="node">
<title>Node4</title>
<g id="a_Node000004"><a xlink:href="imitatepass_8h.html" target="_top" xlink:title=" ">
<polygon fill="white" stroke="#666666" points="1153.5,-184 1070.5,-184 1070.5,-165 1153.5,-165 1153.5,-184"/>
<text text-anchor="middle" x="1112" y="-172" font-family="Helvetica,sans-Serif" font-size="10.00">imitatepass.h</text>
</a>
</g>
</g>
<!-- Node2&#45;&gt;Node4 -->
<g id="edge3_Node000002_Node000004" class="edge">
<title>Node2&#45;&gt;Node4</title>
<g id="a_edge3_Node000002_Node000004"><a xlink:title=" ">
<path fill="none" stroke="#63b8ff" d="M922.31,-219.98C961.24,-210.86 1023.16,-196.33 1065.6,-186.38"/>
<polygon fill="#63b8ff" stroke="#63b8ff" points="1066.47,-189.77 1075.4,-184.08 1064.87,-182.96 1066.47,-189.77"/>
</a>
</g>
</g>
<!-- Node18 -->
<g id="Node000018" class="node">
<title>Node18</title>
<g id="a_Node000018"><a xlink:href="passwordconfiguration_8h.html" target="_top" xlink:title=" ">
<polygon fill="white" stroke="#666666" points="675,-129 539,-129 539,-110 675,-110 675,-129"/>
<text text-anchor="middle" x="607" y="-117" font-family="Helvetica,sans-Serif" font-size="10.00">passwordconfiguration.h</text>
</a>
</g>
</g>
<!-- Node2&#45;&gt;Node18 -->
<g id="edge22_Node000002_Node000018" class="edge">
<title>Node2&#45;&gt;Node18</title>
<g id="a_edge22_Node000002_Node000018"><a xlink:title=" ">
<path fill="none" stroke="#63b8ff" d="M837.48,-224.98C774.41,-219.54 668.71,-207.21 638,-184 623.49,-173.04 615.39,-153.48 611.14,-138.96"/>
<polygon fill="#63b8ff" stroke="#63b8ff" points="614.48,-137.88 608.6,-129.06 607.7,-139.62 614.48,-137.88"/>
</a>
</g>
</g>
<!-- Node19 -->
<g id="Node000019" class="node">
<title>Node19</title>
<g id="a_Node000019"><a xlink:href="realpass_8h.html" target="_top" xlink:title=" ">
<polygon fill="white" stroke="#666666" points="1052.5,-184 985.5,-184 985.5,-165 1052.5,-165 1052.5,-184"/>
<text text-anchor="middle" x="1019" y="-172" font-family="Helvetica,sans-Serif" font-size="10.00">realpass.h</text>
</a>
</g>
</g>
<!-- Node2&#45;&gt;Node19 -->
<g id="edge24_Node000002_Node000019" class="edge">
<title>Node2&#45;&gt;Node19</title>
<g id="a_edge24_Node000002_Node000019"><a xlink:title=" ">
<path fill="none" stroke="#63b8ff" d="M907.37,-219.98C929.15,-211.3 963.16,-197.75 987.92,-187.88"/>
<polygon fill="#63b8ff" stroke="#63b8ff" points="989.25,-191.12 997.24,-184.17 986.66,-184.62 989.25,-191.12"/>
</a>
</g>
</g>
<!-- Node20 -->
<g id="Node000020" class="node">
<title>Node20</title>
<g id="a_Node000020"><a xlink:href="settingsconstants_8h.html" target="_top" xlink:title=" ">
<polygon fill="white" stroke="#666666" points="805,-129 693,-129 693,-110 805,-110 805,-129"/>
<text text-anchor="middle" x="749" y="-117" font-family="Helvetica,sans-Serif" font-size="10.00">settingsconstants.h</text>
</a>
</g>
</g>
<!-- Node2&#45;&gt;Node20 -->
<g id="edge26_Node000002_Node000020" class="edge">
<title>Node2&#45;&gt;Node20</title>
<g id="a_edge26_Node000002_Node000020"><a xlink:title=" ">
<path fill="none" stroke="#63b8ff" d="M837.25,-226.53C774.51,-222.86 670.7,-212.53 647,-184 627.01,-159.95 665.41,-142.29 700.67,-131.79"/>
<polygon fill="#63b8ff" stroke="#63b8ff" points="701.81,-135.1 710.48,-129.01 699.9,-128.37 701.81,-135.1"/>
</a>
</g>
</g>
<!-- Node21 -->
<g id="Node000021" class="node">
<title>Node21</title>
<g id="a_Node000021"><a xlink:title=" ">
<polygon fill="#e0e0e0" stroke="#999999" points="1423.5,-184 1350.5,-184 1350.5,-165 1423.5,-165 1423.5,-184"/>
<text text-anchor="middle" x="1387" y="-172" font-family="Helvetica,sans-Serif" font-size="10.00">QByteArray</text>
</a>
</g>
</g>
<!-- Node2&#45;&gt;Node21 -->
<g id="edge28_Node000002_Node000021" class="edge">
<title>Node2&#45;&gt;Node21</title>
<g id="a_edge28_Node000002_Node000021"><a xlink:title=" ">
<path fill="none" stroke="#63b8ff" d="M934.79,-221.04C937.57,-220.67 940.32,-220.32 943,-220 1117.14,-199.06 1162.04,-206.43 1336,-184 1337.3,-183.83 1338.62,-183.66 1339.95,-183.47"/>
<polygon fill="#63b8ff" stroke="#63b8ff" points="1340.89,-186.87 1350.28,-181.95 1339.87,-179.95 1340.89,-186.87"/>
</a>
</g>
</g>
<!-- Node22 -->
<g id="Node000022" class="node">
<title>Node22</title>
<g id="a_Node000022"><a xlink:title=" ">
<polygon fill="#e0e0e0" stroke="#999999" points="705.5,-184 656.5,-184 656.5,-165 705.5,-165 705.5,-184"/>
<text text-anchor="middle" x="681" y="-172" font-family="Helvetica,sans-Serif" font-size="10.00">QHash</text>
</a>
</g>
</g>
<!-- Node2&#45;&gt;Node22 -->
<g id="edge29_Node000002_Node000022" class="edge">
<title>Node2&#45;&gt;Node22</title>
<g id="a_edge29_Node000002_Node000022"><a xlink:title=" ">
<path fill="none" stroke="#63b8ff" d="M853.06,-219.98C815.35,-210.23 753.84,-194.33 715.49,-184.42"/>
<polygon fill="#63b8ff" stroke="#63b8ff" points="716.35,-181.03 705.8,-181.91 714.6,-187.8 716.35,-181.03"/>
</a>
</g>
</g>
<!-- Node23 -->
<g id="Node000023" class="node">
<title>Node23</title>
<g id="a_Node000023"><a xlink:title=" ">
<polygon fill="#e0e0e0" stroke="#999999" points="772.5,-184 723.5,-184 723.5,-165 772.5,-165 772.5,-184"/>
<text text-anchor="middle" x="748" y="-172" font-family="Helvetica,sans-Serif" font-size="10.00">QPoint</text>
</a>
</g>
</g>
<!-- Node2&#45;&gt;Node23 -->
<g id="edge30_Node000002_Node000023" class="edge">
<title>Node2&#45;&gt;Node23</title>
<g id="a_edge30_Node000002_Node000023"><a xlink:title=" ">
<path fill="none" stroke="#63b8ff" d="M863.83,-219.98C841.23,-211.3 805.94,-197.75 780.25,-187.88"/>
<polygon fill="#63b8ff" stroke="#63b8ff" points="781.17,-184.49 770.58,-184.17 778.66,-191.02 781.17,-184.49"/>
</a>
</g>
</g>
<!-- Node24 -->
<g id="Node000024" class="node">
<title>Node24</title>
<g id="a_Node000024"><a xlink:title=" ">
<polygon fill="#e0e0e0" stroke="#999999" points="885,-184 791,-184 791,-165 885,-165 885,-184"/>
<text text-anchor="middle" x="838" y="-172" font-family="Helvetica,sans-Serif" font-size="10.00">QScopedPointer</text>
</a>
</g>
</g>
<!-- Node2&#45;&gt;Node24 -->
<g id="edge31_Node000002_Node000024" class="edge">
<title>Node2&#45;&gt;Node24</title>
<g id="a_edge31_Node000002_Node000024"><a xlink:title=" ">
<path fill="none" stroke="#63b8ff" d="M878.07,-219.75C871.15,-212.11 860.93,-200.82 852.55,-191.56"/>
<polygon fill="#63b8ff" stroke="#63b8ff" points="855.09,-189.15 845.78,-184.09 849.9,-193.85 855.09,-189.15"/>
</a>
</g>
</g>
<!-- Node25 -->
<g id="Node000025" class="node">
<title>Node25</title>
<g id="a_Node000025"><a xlink:title=" ">
<polygon fill="#e0e0e0" stroke="#999999" points="967,-184 903,-184 903,-165 967,-165 967,-184"/>
<text text-anchor="middle" x="935" y="-172" font-family="Helvetica,sans-Serif" font-size="10.00">QSettings</text>
</a>
</g>
</g>
<!-- Node2&#45;&gt;Node25 -->
<g id="edge32_Node000002_Node000025" class="edge">
<title>Node2&#45;&gt;Node25</title>
<g id="a_edge32_Node000002_Node000025"><a xlink:title=" ">
<path fill="none" stroke="#63b8ff" d="M894.09,-219.75C901.16,-212.11 911.59,-200.82 920.15,-191.56"/>
<polygon fill="#63b8ff" stroke="#63b8ff" points="922.84,-193.81 927.06,-184.09 917.7,-189.06 922.84,-193.81"/>
</a>
</g>
</g>
<!-- Node26 -->
<g id="Node000026" class="node">
<title>Node26</title>
<g id="a_Node000026"><a xlink:title=" ">
<polygon fill="#e0e0e0" stroke="#999999" points="1216,-184 1172,-184 1172,-165 1216,-165 1216,-184"/>
<text text-anchor="middle" x="1194" y="-172" font-family="Helvetica,sans-Serif" font-size="10.00">QSize</text>
</a>
</g>
</g>
<!-- Node2&#45;&gt;Node26 -->
<g id="edge33_Node000002_Node000026" class="edge">
<title>Node2&#45;&gt;Node26</title>
<g id="a_edge33_Node000002_Node000026"><a xlink:title=" ">
<path fill="none" stroke="#63b8ff" d="M934.51,-221C1001.64,-210.58 1118.68,-192.26 1161.66,-183.97"/>
<polygon fill="#63b8ff" stroke="#63b8ff" points="1162.62,-187.35 1171.72,-181.92 1161.22,-180.49 1162.62,-187.35"/>
</a>
</g>
</g>
<!-- Node27 -->
<g id="Node000027" class="node">
<title>Node27</title>
<g id="a_Node000027"><a xlink:title=" ">
<polygon fill="#e0e0e0" stroke="#999999" points="1293.5,-184 1234.5,-184 1234.5,-165 1293.5,-165 1293.5,-184"/>
<text text-anchor="middle" x="1264" y="-172" font-family="Helvetica,sans-Serif" font-size="10.00">QVariant</text>
</a>
</g>
</g>
<!-- Node2&#45;&gt;Node27 -->
<g id="edge34_Node000002_Node000027" class="edge">
<title>Node2&#45;&gt;Node27</title>
<g id="a_edge34_Node000002_Node000027"><a xlink:title=" ">
<path fill="none" stroke="#63b8ff" d="M934.81,-221.15C937.58,-220.76 940.32,-220.37 943,-220 1064.98,-203.12 1098.79,-205.34 1224.25,-183.99"/>
<polygon fill="#63b8ff" stroke="#63b8ff" points="1224.98,-187.41 1234.24,-182.27 1223.79,-180.51 1224.98,-187.41"/>
</a>
</g>
</g>
<!-- Node4&#45;&gt;Node5 -->
<g id="edge4_Node000004_Node000005" class="edge">
<title>Node4&#45;&gt;Node5</title>
<g id="a_edge4_Node000004_Node000005"><a xlink:title=" ">
<path fill="none" stroke="#63b8ff" d="M1093.04,-164.98C1073.97,-156.42 1044.34,-143.11 1022.45,-133.28"/>
<polygon fill="#63b8ff" stroke="#63b8ff" points="1023.86,-130.07 1013.3,-129.17 1020.99,-136.46 1023.86,-130.07"/>
</a>
</g>
</g>
<!-- Node16 -->
<g id="Node000016" class="node">
<title>Node16</title>
<g id="a_Node000016"><a xlink:href="simpletransaction_8h.html" target="_top" xlink:title=" ">
<polygon fill="white" stroke="#666666" points="1281.5,-129 1168.5,-129 1168.5,-110 1281.5,-110 1281.5,-129"/>
<text text-anchor="middle" x="1225" y="-117" font-family="Helvetica,sans-Serif" font-size="10.00">simpletransaction.h</text>
</a>
</g>
</g>
<!-- Node4&#45;&gt;Node16 -->
<g id="edge19_Node000004_Node000016" class="edge">
<title>Node4&#45;&gt;Node16</title>
<g id="a_edge19_Node000004_Node000016"><a xlink:title=" ">
<path fill="none" stroke="#63b8ff" d="M1130.16,-164.98C1148.25,-156.5 1176.28,-143.35 1197.19,-133.54"/>
<polygon fill="#63b8ff" stroke="#63b8ff" points="1198.95,-136.59 1206.51,-129.17 1195.97,-130.25 1198.95,-136.59"/>
</a>
</g>
</g>
<!-- Node5&#45;&gt;Node3 -->
<g id="edge5_Node000005_Node000003" class="edge">
<title>Node5&#45;&gt;Node3</title>
<g id="a_edge5_Node000005_Node000003"><a xlink:title=" ">
<path fill="none" stroke="#63b8ff" d="M1018.1,-114.88C1063.03,-108.03 1162.84,-92.37 1256.27,-74.26"/>
<polygon fill="#63b8ff" stroke="#63b8ff" points="1257.02,-77.68 1266.16,-72.33 1255.68,-70.81 1257.02,-77.68"/>
</a>
</g>
</g>
<!-- Node6 -->
<g id="Node000006" class="node">
<title>Node6</title>
<g id="a_Node000006"><a xlink:href="executor_8h.html" target="_top" xlink:title=" ">
<polygon fill="white" stroke="#666666" points="930.5,-74 863.5,-74 863.5,-55 930.5,-55 930.5,-74"/>
<text text-anchor="middle" x="897" y="-62" font-family="Helvetica,sans-Serif" font-size="10.00">executor.h</text>
</a>
</g>
</g>
<!-- Node5&#45;&gt;Node6 -->
<g id="edge6_Node000005_Node000006" class="edge">
<title>Node5&#45;&gt;Node6</title>
<g id="a_edge6_Node000005_Node000006"><a xlink:title=" ">
<path fill="none" stroke="#63b8ff" d="M978.42,-109.98C963.23,-101.69 939.9,-88.94 922.1,-79.22"/>
<polygon fill="#63b8ff" stroke="#63b8ff" points="923.32,-75.89 912.87,-74.17 919.97,-82.04 923.32,-75.89"/>
</a>
</g>
</g>
<!-- Node8 -->
<g id="Node000008" class="node">
<title>Node8</title>
<g id="a_Node000008"><a xlink:title=" ">
<polygon fill="#e0e0e0" stroke="#999999" points="873,-19 811,-19 811,0 873,0 873,-19"/>
<text text-anchor="middle" x="842" y="-7" font-family="Helvetica,sans-Serif" font-size="10.00">QProcess</text>
</a>
</g>
</g>
<!-- Node5&#45;&gt;Node8 -->
<g id="edge13_Node000005_Node000008" class="edge">
<title>Node5&#45;&gt;Node8</title>
<g id="a_edge13_Node000005_Node000008"><a xlink:title=" ">
<path fill="none" stroke="#63b8ff" d="M969.98,-118.01C938.46,-115.99 883.68,-107.51 854,-74 843.31,-61.93 840.84,-43.39 840.73,-29.46"/>
<polygon fill="#63b8ff" stroke="#63b8ff" points="844.24,-29.18 841.07,-19.08 837.24,-28.96 844.24,-29.18"/>
</a>
</g>
</g>
<!-- Node9 -->
<g id="Node000009" class="node">
<title>Node9</title>
<g id="a_Node000009"><a xlink:title=" ">
<polygon fill="#e0e0e0" stroke="#999999" points="1051,-19 995,-19 995,0 1051,0 1051,-19"/>
<text text-anchor="middle" x="1023" y="-7" font-family="Helvetica,sans-Serif" font-size="10.00">QQueue</text>
</a>
</g>
</g>
<!-- Node5&#45;&gt;Node9 -->
<g id="edge14_Node000005_Node000009" class="edge">
<title>Node5&#45;&gt;Node9</title>
<g id="a_edge14_Node000005_Node000009"><a xlink:title=" ">
<path fill="none" stroke="#63b8ff" d="M1003.61,-109.69C1011.87,-101.41 1023.2,-88.18 1028,-74 1032.88,-59.58 1031.06,-42.3 1028.34,-29.41"/>
<polygon fill="#63b8ff" stroke="#63b8ff" points="1031.67,-28.27 1025.87,-19.4 1024.87,-29.95 1031.67,-28.27"/>
</a>
</g>
</g>
<!-- Node10 -->
<g id="Node000010" class="node">
<title>Node10</title>
<g id="a_Node000010"><a xlink:href="userinfo_8h.html" target="_top" xlink:title=" ">
<polygon fill="white" stroke="#666666" points="798.5,-74 733.5,-74 733.5,-55 798.5,-55 798.5,-74"/>
<text text-anchor="middle" x="766" y="-62" font-family="Helvetica,sans-Serif" font-size="10.00">userinfo.h</text>
</a>
</g>
</g>
<!-- Node5&#45;&gt;Node10 -->
<g id="edge10_Node000005_Node000010" class="edge">
<title>Node5&#45;&gt;Node10</title>
<g id="a_edge10_Node000005_Node000010"><a xlink:title=" ">
<path fill="none" stroke="#63b8ff" d="M969.6,-112.83C931.18,-103.9 856.07,-86.44 808.61,-75.4"/>
<polygon fill="#63b8ff" stroke="#63b8ff" points="809.16,-71.94 798.63,-73.08 807.58,-78.76 809.16,-71.94"/>
</a>
</g>
</g>
<!-- Node12 -->
<g id="Node000012" class="node">
<title>Node12</title>
<g id="a_Node000012"><a xlink:title=" ">
<polygon fill="#e0e0e0" stroke="#999999" points="693.5,-19 640.5,-19 640.5,0 693.5,0 693.5,-19"/>
<text text-anchor="middle" x="667" y="-7" font-family="Helvetica,sans-Serif" font-size="10.00">QString</text>
</a>
</g>
</g>
<!-- Node5&#45;&gt;Node12 -->
<g id="edge15_Node000005_Node000012" class="edge">
<title>Node5&#45;&gt;Node12</title>
<g id="a_edge15_Node000005_Node000012"><a xlink:title=" ">
<path fill="none" stroke="#63b8ff" d="M969.94,-116.58C912,-111.65 766.39,-97.23 724,-74 704.18,-63.14 687.74,-42.67 677.69,-27.9"/>
<polygon fill="#63b8ff" stroke="#63b8ff" points="680.41,-25.67 672.03,-19.18 674.54,-29.47 680.41,-25.67"/>
</a>
</g>
</g>
<!-- Node13 -->
<g id="Node000013" class="node">
<title>Node13</title>
<g id="a_Node000013"><a xlink:title=" ">
<polygon fill="#e0e0e0" stroke="#999999" points="1019,-74 949,-74 949,-55 1019,-55 1019,-74"/>
<text text-anchor="middle" x="984" y="-62" font-family="Helvetica,sans-Serif" font-size="10.00">QStringList</text>
</a>
</g>
</g>
<!-- Node5&#45;&gt;Node13 -->
<g id="edge16_Node000005_Node000013" class="edge">
<title>Node5&#45;&gt;Node13</title>
<g id="a_edge16_Node000005_Node000013"><a xlink:title=" ">
<path fill="none" stroke="#63b8ff" d="M992.35,-109.75C991.04,-102.8 989.16,-92.85 987.52,-84.13"/>
<polygon fill="#63b8ff" stroke="#63b8ff" points="990.91,-83.27 985.62,-74.09 984.04,-84.56 990.91,-83.27"/>
</a>
</g>
</g>
<!-- Node14 -->
<g id="Node000014" class="node">
<title>Node14</title>
<g id="a_Node000014"><a xlink:title=" ">
<polygon fill="#e0e0e0" stroke="#999999" points="1127,-74 1075,-74 1075,-55 1127,-55 1127,-74"/>
<text text-anchor="middle" x="1101" y="-62" font-family="Helvetica,sans-Serif" font-size="10.00">cassert</text>
</a>
</g>
</g>
<!-- Node5&#45;&gt;Node14 -->
<g id="edge17_Node000005_Node000014" class="edge">
<title>Node5&#45;&gt;Node14</title>
<g id="a_edge17_Node000005_Node000014"><a xlink:title=" ">
<path fill="none" stroke="#63b8ff" d="M1011.19,-109.98C1028.25,-101.54 1054.63,-88.47 1074.4,-78.68"/>
<polygon fill="#63b8ff" stroke="#63b8ff" points="1076.09,-81.75 1083.5,-74.17 1072.98,-75.47 1076.09,-81.75"/>
</a>
</g>
</g>
<!-- Node15 -->
<g id="Node000015" class="node">
<title>Node15</title>
<g id="a_Node000015"><a xlink:title=" ">
<polygon fill="#e0e0e0" stroke="#999999" points="1183,-74 1145,-74 1145,-55 1183,-55 1183,-74"/>
<text text-anchor="middle" x="1164" y="-62" font-family="Helvetica,sans-Serif" font-size="10.00">map</text>
</a>
</g>
</g>
<!-- Node5&#45;&gt;Node15 -->
<g id="edge18_Node000005_Node000015" class="edge">
<title>Node5&#45;&gt;Node15</title>
<g id="a_edge18_Node000005_Node000015"><a xlink:title=" ">
<path fill="none" stroke="#63b8ff" d="M1018.36,-110.91C1049.17,-101.3 1102.18,-84.77 1135.04,-74.53"/>
<polygon fill="#63b8ff" stroke="#63b8ff" points="1136.44,-77.76 1144.95,-71.44 1134.36,-71.07 1136.44,-77.76"/>
</a>
</g>
</g>
<!-- Node7 -->
<g id="Node000007" class="node">
<title>Node7</title>
<g id="a_Node000007"><a xlink:title=" ">
<polygon fill="#e0e0e0" stroke="#999999" points="947,-19 891,-19 891,0 947,0 947,-19"/>
<text text-anchor="middle" x="919" y="-7" font-family="Helvetica,sans-Serif" font-size="10.00">QObject</text>
</a>
</g>
</g>
<!-- Node6&#45;&gt;Node7 -->
<g id="edge7_Node000006_Node000007" class="edge">
<title>Node6&#45;&gt;Node7</title>
<g id="a_edge7_Node000006_Node000007"><a xlink:title=" ">
<path fill="none" stroke="#63b8ff" d="M900.63,-54.75C903.58,-47.65 907.83,-37.4 911.51,-28.56"/>
<polygon fill="#63b8ff" stroke="#63b8ff" points="914.83,-29.67 915.43,-19.09 908.37,-26.98 914.83,-29.67"/>
</a>
</g>
</g>
<!-- Node6&#45;&gt;Node8 -->
<g id="edge8_Node000006_Node000008" class="edge">
<title>Node6&#45;&gt;Node8</title>
<g id="a_edge8_Node000006_Node000008"><a xlink:title=" ">
<path fill="none" stroke="#63b8ff" d="M887.92,-54.75C879.91,-47.03 868.04,-35.6 858.38,-26.28"/>
<polygon fill="#63b8ff" stroke="#63b8ff" points="860.54,-23.51 850.91,-19.09 855.69,-28.55 860.54,-23.51"/>
</a>
</g>
</g>
<!-- Node6&#45;&gt;Node9 -->
<g id="edge9_Node000006_Node000009" class="edge">
<title>Node6&#45;&gt;Node9</title>
<g id="a_edge9_Node000006_Node000009"><a xlink:title=" ">
<path fill="none" stroke="#63b8ff" d="M917.24,-54.98C937.7,-46.38 969.53,-32.99 992.93,-23.15"/>
<polygon fill="#63b8ff" stroke="#63b8ff" points="994.53,-26.27 1002.39,-19.17 991.81,-19.82 994.53,-26.27"/>
</a>
</g>
</g>
<!-- Node11 -->
<g id="Node000011" class="node">
<title>Node11</title>
<g id="a_Node000011"><a xlink:title=" ">
<polygon fill="#e0e0e0" stroke="#999999" points="793,-19 721,-19 721,0 793,0 793,-19"/>
<text text-anchor="middle" x="757" y="-7" font-family="Helvetica,sans-Serif" font-size="10.00">QDateTime</text>
</a>
</g>
</g>
<!-- Node10&#45;&gt;Node11 -->
<g id="edge11_Node000010_Node000011" class="edge">
<title>Node10&#45;&gt;Node11</title>
<g id="a_edge11_Node000010_Node000011"><a xlink:title=" ">
<path fill="none" stroke="#63b8ff" d="M764.51,-54.75C763.33,-47.8 761.64,-37.85 760.16,-29.13"/>
<polygon fill="#63b8ff" stroke="#63b8ff" points="763.58,-28.36 758.46,-19.09 756.68,-29.53 763.58,-28.36"/>
</a>
</g>
</g>
<!-- Node10&#45;&gt;Node12 -->
<g id="edge12_Node000010_Node000012" class="edge">
<title>Node10&#45;&gt;Node12</title>
<g id="a_edge12_Node000010_Node000012"><a xlink:title=" ">
<path fill="none" stroke="#63b8ff" d="M750.09,-54.98C734.45,-46.61 710.34,-33.7 692.12,-23.95"/>
<polygon fill="#63b8ff" stroke="#63b8ff" points="693.66,-20.8 683.2,-19.17 690.36,-26.98 693.66,-20.8"/>
</a>
</g>
</g>
<!-- Node16&#45;&gt;Node3 -->
<g id="edge20_Node000016_Node000003" class="edge">
<title>Node16&#45;&gt;Node3</title>
<g id="a_edge20_Node000016_Node000003"><a xlink:title=" ">
<path fill="none" stroke="#63b8ff" d="M1236.41,-109.98C1247.11,-102 1263.34,-89.88 1276.16,-80.31"/>
<polygon fill="#63b8ff" stroke="#63b8ff" points="1278.47,-82.96 1284.39,-74.17 1274.28,-77.35 1278.47,-82.96"/>
</a>
</g>
</g>
<!-- Node17 -->
<g id="Node000017" class="node">
<title>Node17</title>
<g id="a_Node000017"><a xlink:title=" ">
<polygon fill="#e0e0e0" stroke="#999999" points="1248.5,-74 1201.5,-74 1201.5,-55 1248.5,-55 1248.5,-74"/>
<text text-anchor="middle" x="1225" y="-62" font-family="Helvetica,sans-Serif" font-size="10.00">queue</text>
</a>
</g>
</g>
<!-- Node16&#45;&gt;Node17 -->
<g id="edge21_Node000016_Node000017" class="edge">
<title>Node16&#45;&gt;Node17</title>
<g id="a_edge21_Node000016_Node000017"><a xlink:title=" ">
<path fill="none" stroke="#63b8ff" d="M1225,-109.75C1225,-102.8 1225,-92.85 1225,-84.13"/>
<polygon fill="#63b8ff" stroke="#63b8ff" points="1228.5,-84.09 1225,-74.09 1221.5,-84.09 1228.5,-84.09"/>
</a>
</g>
</g>
<!-- Node18&#45;&gt;Node12 -->
<g id="edge23_Node000018_Node000012" class="edge">
<title>Node18&#45;&gt;Node12</title>
<g id="a_edge23_Node000018_Node000012"><a xlink:title=" ">
<path fill="none" stroke="#63b8ff" d="M611.91,-109.66C621.8,-91.85 644.3,-51.37 657.27,-28.01"/>
<polygon fill="#63b8ff" stroke="#63b8ff" points="660.39,-29.6 662.19,-19.16 654.27,-26.2 660.39,-29.6"/>
</a>
</g>
</g>
<!-- Node19&#45;&gt;Node5 -->
<g id="edge25_Node000019_Node000005" class="edge">
<title>Node19&#45;&gt;Node5</title>
<g id="a_edge25_Node000019_Node000005"><a xlink:title=" ">
<path fill="none" stroke="#63b8ff" d="M1014.87,-164.75C1011.49,-157.57 1006.58,-147.18 1002.38,-138.27"/>
<polygon fill="#63b8ff" stroke="#63b8ff" points="1005.48,-136.64 998.05,-129.09 999.15,-139.63 1005.48,-136.64"/>
</a>
</g>
</g>
<!-- Node20&#45;&gt;Node12 -->
<g id="edge27_Node000020_Node000012" class="edge">
<title>Node20&#45;&gt;Node12</title>
<g id="a_edge27_Node000020_Node000012"><a xlink:title=" ">
<path fill="none" stroke="#63b8ff" d="M733.5,-109.95C720.55,-102.1 702.43,-89.38 691,-74 681.01,-60.55 674.71,-42.45 671.09,-29.02"/>
<polygon fill="#63b8ff" stroke="#63b8ff" points="674.42,-27.92 668.65,-19.03 667.62,-29.58 674.42,-27.92"/>
</a>
</g>
</g>
<!-- Node28&#45;&gt;Node12 -->
<g id="edge42_Node000028_Node000012" class="edge">
<title>Node28&#45;&gt;Node12</title>
<g id="a_edge42_Node000028_Node000012"><a xlink:title=" ">
<path fill="none" stroke="#63b8ff" d="M404.81,-224.32C428.21,-218.69 466.19,-206.65 491,-184 518.46,-158.93 505.66,-138.1 530,-110 562.48,-72.51 611.66,-41.21 641.42,-24.23"/>
<polygon fill="#63b8ff" stroke="#63b8ff" points="643.33,-27.17 650.35,-19.23 639.92,-21.06 643.33,-27.17"/>
</a>
</g>
</g>
<!-- Node29 -->
<g id="Node000029" class="node">
<title>Node29</title>
<g id="a_Node000029"><a xlink:href="storemodel_8h.html" target="_top" xlink:title=" ">
<polygon fill="white" stroke="#666666" points="482.5,-184 401.5,-184 401.5,-165 482.5,-165 482.5,-184"/>
<text text-anchor="middle" x="442" y="-172" font-family="Helvetica,sans-Serif" font-size="10.00">storemodel.h</text>
</a>
</g>
</g>
<!-- Node28&#45;&gt;Node29 -->
<g id="edge37_Node000028_Node000029" class="edge">
<title>Node28&#45;&gt;Node29</title>
<g id="a_edge37_Node000028_Node000029"><a xlink:title=" ">
<path fill="none" stroke="#63b8ff" d="M393.32,-219.98C401.81,-212.23 414.56,-200.58 424.88,-191.14"/>
<polygon fill="#63b8ff" stroke="#63b8ff" points="427.49,-193.5 432.51,-184.17 422.77,-188.33 427.49,-193.5"/>
</a>
</g>
</g>
<!-- Node31 -->
<g id="Node000031" class="node">
<title>Node31</title>
<g id="a_Node000031"><a xlink:title=" ">
<polygon fill="#e0e0e0" stroke="#999999" points="108,-184 0,-184 0,-165 108,-165 108,-184"/>
<text text-anchor="middle" x="54" y="-172" font-family="Helvetica,sans-Serif" font-size="10.00">QFileSystemModel</text>
</a>
</g>
</g>
<!-- Node28&#45;&gt;Node31 -->
<g id="edge39_Node000028_Node000031" class="edge">
<title>Node28&#45;&gt;Node31</title>
<g id="a_edge39_Node000028_Node000031"><a xlink:title=" ">
<path fill="none" stroke="#63b8ff" d="M363.36,-225.18C314.94,-217.41 192.5,-197.74 116.98,-185.62"/>
<polygon fill="#63b8ff" stroke="#63b8ff" points="117.53,-182.16 107.1,-184.03 116.42,-189.07 117.53,-182.16"/>
</a>
</g>
</g>
<!-- Node32 -->
<g id="Node000032" class="node">
<title>Node32</title>
<g id="a_Node000032"><a xlink:title=" ">
<polygon fill="#e0e0e0" stroke="#999999" points="250,-184 126,-184 126,-165 250,-165 250,-184"/>
<text text-anchor="middle" x="188" y="-172" font-family="Helvetica,sans-Serif" font-size="10.00">QProcessEnvironment</text>
</a>
</g>
</g>
<!-- Node28&#45;&gt;Node32 -->
<g id="edge40_Node000028_Node000032" class="edge">
<title>Node28&#45;&gt;Node32</title>
<g id="a_edge40_Node000028_Node000032"><a xlink:title=" ">
<path fill="none" stroke="#63b8ff" d="M363.4,-222.93C331.71,-214.36 270.38,-197.77 229.3,-186.67"/>
<polygon fill="#63b8ff" stroke="#63b8ff" points="230.15,-183.27 219.58,-184.04 228.32,-190.03 230.15,-183.27"/>
</a>
</g>
</g>
<!-- Node33 -->
<g id="Node000033" class="node">
<title>Node33</title>
<g id="a_Node000033"><a xlink:title=" ">
<polygon fill="#e0e0e0" stroke="#999999" points="383.5,-184 268.5,-184 268.5,-165 383.5,-165 383.5,-184"/>
<text text-anchor="middle" x="326" y="-172" font-family="Helvetica,sans-Serif" font-size="10.00">QRegularExpression</text>
</a>
</g>
</g>
<!-- Node28&#45;&gt;Node33 -->
<g id="edge41_Node000028_Node000033" class="edge">
<title>Node28&#45;&gt;Node33</title>
<g id="a_edge41_Node000028_Node000033"><a xlink:title=" ">
<path fill="none" stroke="#63b8ff" d="M374.68,-219.98C366.19,-212.23 353.44,-200.58 343.12,-191.14"/>
<polygon fill="#63b8ff" stroke="#63b8ff" points="345.23,-188.33 335.49,-184.17 340.51,-193.5 345.23,-188.33"/>
</a>
</g>
</g>
<!-- Node30 -->
<g id="Node000030" class="node">
<title>Node30</title>
<g id="a_Node000030"><a xlink:title=" ">
<polygon fill="#e0e0e0" stroke="#999999" points="483,-129 357,-129 357,-110 483,-110 483,-129"/>
<text text-anchor="middle" x="420" y="-117" font-family="Helvetica,sans-Serif" font-size="10.00">QSortFilterProxyModel</text>
</a>
</g>
</g>
<!-- Node29&#45;&gt;Node30 -->
<g id="edge38_Node000029_Node000030" class="edge">
<title>Node29&#45;&gt;Node30</title>
<g id="a_edge38_Node000029_Node000030"><a xlink:title=" ">
<path fill="none" stroke="#63b8ff" d="M438.37,-164.75C435.42,-157.65 431.17,-147.4 427.49,-138.56"/>
<polygon fill="#63b8ff" stroke="#63b8ff" points="430.63,-136.98 423.57,-129.09 424.17,-139.67 430.63,-136.98"/>
</a>
</g>
</g>
</g>
</svg>
