<?xml version="1.0" encoding="UTF-8" standalone="no"?>
<!DOCTYPE svg PUBLIC "-//W3C//DTD SVG 1.1//EN"
 "http://www.w3.org/Graphics/SVG/1.1/DTD/svg11.dtd">
<!-- Generated by graphviz version 2.43.0 (0)
 -->
<!-- Title: src/qtpass.h Pages: 1 -->
<svg width="212pt" height="82pt"
 viewBox="0.00 0.00 211.98 82.00" xmlns="http://www.w3.org/2000/svg" xmlns:xlink="http://www.w3.org/1999/xlink">
<g id="graph0" class="graph" transform="scale(1 1) rotate(0) translate(4 78)">
<title>src/qtpass.h</title>
<!-- Node1 -->
<g id="node1" class="node">
<title>Node1</title>
<g id="a_node1"><a xlink:title=" ">
<polygon fill="#bfbfbf" stroke="black" points="72.79,-55.5 72.79,-73.5 142.7,-73.5 142.7,-55.5 72.79,-55.5"/>
<text text-anchor="middle" x="107.74" y="-61.5" font-family="Helvetica,sans-Serif" font-size="10.00">src/qtpass.h</text>
</a>
</g>
</g>
<!-- Node2 -->
<g id="node2" class="node">
<title>Node2</title>
<g id="a_node2"><a xlink:href="mainwindow_8cpp.html" target="_top" xlink:title=" ">
<polygon fill="none" stroke="black" points="0,-0.5 0,-18.5 105.49,-18.5 105.49,-0.5 0,-0.5"/>
<text text-anchor="middle" x="52.74" y="-6.5" font-family="Helvetica,sans-Serif" font-size="10.00">src/mainwindow.cpp</text>
</a>
</g>
</g>
<!-- Node1&#45;&gt;Node2 -->
<g id="edge1" class="edge">
<title>Node1&#45;&gt;Node2</title>
<path fill="none" stroke="midnightblue" d="M91.77,-48.11C81.74,-38.44 69.21,-26.37 61.1,-18.55"/>
<polygon fill="midnightblue" stroke="midnightblue" points="89.52,-50.8 99.15,-55.22 94.38,-45.76 89.52,-50.8"/>
</g>
<!-- Node3 -->
<g id="node3" class="node">
<title>Node3</title>
<g id="a_node3"><a xlink:href="qtpass_8cpp.html" target="_top" xlink:title=" ">
<polygon fill="none" stroke="black" points="123.51,-0.5 123.51,-18.5 203.98,-18.5 203.98,-0.5 123.51,-0.5"/>
<text text-anchor="middle" x="163.74" y="-6.5" font-family="Helvetica,sans-Serif" font-size="10.00">src/qtpass.cpp</text>
</a>
</g>
</g>
<!-- Node1&#45;&gt;Node3 -->
<g id="edge2" class="edge">
<title>Node1&#45;&gt;Node3</title>
<path fill="none" stroke="midnightblue" d="M124,-48.11C134.22,-38.44 146.98,-26.37 155.24,-18.55"/>
<polygon fill="midnightblue" stroke="midnightblue" points="121.35,-45.8 116.49,-55.22 126.16,-50.89 121.35,-45.8"/>
</g>
</g>
</svg>
