<?xml version="1.0" encoding="UTF-8" standalone="no"?>
<!DOCTYPE svg PUBLIC "-//W3C//DTD SVG 1.1//EN"
 "http://www.w3.org/Graphics/SVG/1.1/DTD/svg11.dtd">
<!-- Generated by graphviz version 2.43.0 (0)
 -->
<!-- Title: src/qtpass.cpp Pages: 1 -->
<svg width="1976pt" height="302pt"
 viewBox="0.00 0.00 1976.00 302.00" xmlns="http://www.w3.org/2000/svg" xmlns:xlink="http://www.w3.org/1999/xlink">
<g id="graph0" class="graph" transform="scale(1 1) rotate(0) translate(4 298)">
<title>src/qtpass.cpp</title>
<!-- Node1 -->
<g id="Node000001" class="node">
<title>Node1</title>
<g id="a_Node000001"><a xlink:title=" ">
<polygon fill="#999999" stroke="#666666" points="1364,-294 1278,-294 1278,-275 1364,-275 1364,-294"/>
<text text-anchor="middle" x="1321" y="-282" font-family="Helvetica,sans-Serif" font-size="10.00">src/qtpass.cpp</text>
</a>
</g>
</g>
<!-- Node2 -->
<g id="Node000002" class="node">
<title>Node2</title>
<g id="a_Node000002"><a xlink:href="qtpass_8h.html" target="_top" xlink:title=" ">
<polygon fill="white" stroke="#666666" points="221,-239 163,-239 163,-220 221,-220 221,-239"/>
<text text-anchor="middle" x="192" y="-227" font-family="Helvetica,sans-Serif" font-size="10.00">qtpass.h</text>
</a>
</g>
</g>
<!-- Node1&#45;&gt;Node2 -->
<g id="edge1_Node000001_Node000002" class="edge">
<title>Node1&#45;&gt;Node2</title>
<g id="a_edge1_Node000001_Node000002"><a xlink:title=" ">
<path fill="none" stroke="#63b8ff" d="M1277.78,-281.47C1097.13,-272.99 403.9,-240.45 231.16,-232.34"/>
<polygon fill="#63b8ff" stroke="#63b8ff" points="231.16,-228.83 221.01,-231.86 230.83,-235.83 231.16,-228.83"/>
</a>
</g>
</g>
<!-- Node3 -->
<g id="Node000003" class="node">
<title>Node3</title>
<g id="a_Node000003"><a xlink:title=" ">
<polygon fill="#e0e0e0" stroke="#999999" points="56,-184 0,-184 0,-165 56,-165 56,-184"/>
<text text-anchor="middle" x="28" y="-172" font-family="Helvetica,sans-Serif" font-size="10.00">QDialog</text>
</a>
</g>
</g>
<!-- Node1&#45;&gt;Node3 -->
<g id="edge57_Node000001_Node000003" class="edge">
<title>Node1&#45;&gt;Node3</title>
<g id="a_edge57_Node000001_Node000003"><a xlink:title=" ">
<path fill="none" stroke="#63b8ff" d="M1277.69,-283.21C1076.75,-281.69 240.31,-273.35 129,-239 96.73,-229.04 64.6,-206.02 45.52,-190.6"/>
<polygon fill="#63b8ff" stroke="#63b8ff" points="47.65,-187.82 37.72,-184.13 43.18,-193.21 47.65,-187.82"/>
</a>
</g>
</g>
<!-- Node5 -->
<g id="Node000005" class="node">
<title>Node5</title>
<g id="a_Node000005"><a xlink:title=" ">
<polygon fill="#e0e0e0" stroke="#999999" points="135.5,-184 74.5,-184 74.5,-165 135.5,-165 135.5,-184"/>
<text text-anchor="middle" x="105" y="-172" font-family="Helvetica,sans-Serif" font-size="10.00">QPixmap</text>
</a>
</g>
</g>
<!-- Node1&#45;&gt;Node5 -->
<g id="edge59_Node000001_Node000005" class="edge">
<title>Node1&#45;&gt;Node5</title>
<g id="a_edge59_Node000001_Node000005"><a xlink:title=" ">
<path fill="none" stroke="#63b8ff" d="M1277.76,-282.88C1072.56,-279.78 204.83,-265.19 154,-239 135.09,-229.26 121.3,-208.53 113.26,-193.4"/>
<polygon fill="#63b8ff" stroke="#63b8ff" points="116.19,-191.43 108.61,-184.02 109.91,-194.54 116.19,-191.43"/>
</a>
</g>
</g>
<!-- Node8 -->
<g id="Node000008" class="node">
<title>Node8</title>
<g id="a_Node000008"><a xlink:href="mainwindow_8h.html" target="_top" xlink:title=" ">
<polygon fill="white" stroke="#666666" points="567.5,-239 480.5,-239 480.5,-220 567.5,-220 567.5,-239"/>
<text text-anchor="middle" x="524" y="-227" font-family="Helvetica,sans-Serif" font-size="10.00">mainwindow.h</text>
</a>
</g>
</g>
<!-- Node1&#45;&gt;Node8 -->
<g id="edge7_Node000001_Node000008" class="edge">
<title>Node1&#45;&gt;Node8</title>
<g id="a_edge7_Node000001_Node000008"><a xlink:title=" ">
<path fill="none" stroke="#63b8ff" d="M1277.87,-280.63C1142.57,-271.63 726.69,-243.98 577.76,-234.07"/>
<polygon fill="#63b8ff" stroke="#63b8ff" points="577.71,-230.56 567.5,-233.39 577.25,-237.55 577.71,-230.56"/>
</a>
</g>
</g>
<!-- Node14 -->
<g id="Node000014" class="node">
<title>Node14</title>
<g id="a_Node000014"><a xlink:href="qtpasssettings_8h.html" target="_top" xlink:title=" ">
<polygon fill="white" stroke="#666666" points="1204.5,-239 1107.5,-239 1107.5,-220 1204.5,-220 1204.5,-239"/>
<text text-anchor="middle" x="1156" y="-227" font-family="Helvetica,sans-Serif" font-size="10.00">qtpasssettings.h</text>
</a>
</g>
</g>
<!-- Node1&#45;&gt;Node14 -->
<g id="edge15_Node000001_Node000014" class="edge">
<title>Node1&#45;&gt;Node14</title>
<g id="a_edge15_Node000001_Node000014"><a xlink:title=" ">
<path fill="none" stroke="#63b8ff" d="M1294.49,-274.98C1266.79,-266.09 1223.14,-252.07 1192.26,-242.15"/>
<polygon fill="#63b8ff" stroke="#63b8ff" points="1193.31,-238.81 1182.72,-239.08 1191.17,-245.47 1193.31,-238.81"/>
</a>
</g>
</g>
<!-- Node38 -->
<g id="Node000038" class="node">
<title>Node38</title>
<g id="a_Node000038"><a xlink:href="util_8h.html" target="_top" xlink:title=" ">
<polygon fill="white" stroke="#666666" points="1263.5,-239 1222.5,-239 1222.5,-220 1263.5,-220 1263.5,-239"/>
<text text-anchor="middle" x="1243" y="-227" font-family="Helvetica,sans-Serif" font-size="10.00">util.h</text>
</a>
</g>
</g>
<!-- Node1&#45;&gt;Node38 -->
<g id="edge49_Node000001_Node000038" class="edge">
<title>Node1&#45;&gt;Node38</title>
<g id="a_edge49_Node000001_Node000038"><a xlink:title=" ">
<path fill="none" stroke="#63b8ff" d="M1308.47,-274.98C1296.6,-266.92 1278.54,-254.65 1264.39,-245.03"/>
<polygon fill="#63b8ff" stroke="#63b8ff" points="1266,-241.9 1255.76,-239.17 1262.06,-247.69 1266,-241.9"/>
</a>
</g>
</g>
<!-- Node41 -->
<g id="Node000041" class="node">
<title>Node41</title>
<g id="a_Node000041"><a xlink:title=" ">
<polygon fill="#e0e0e0" stroke="#999999" points="1360.5,-239 1281.5,-239 1281.5,-220 1360.5,-220 1360.5,-239"/>
<text text-anchor="middle" x="1321" y="-227" font-family="Helvetica,sans-Serif" font-size="10.00">QApplication</text>
</a>
</g>
</g>
<!-- Node1&#45;&gt;Node41 -->
<g id="edge55_Node000001_Node000041" class="edge">
<title>Node1&#45;&gt;Node41</title>
<g id="a_edge55_Node000001_Node000041"><a xlink:title=" ">
<path fill="none" stroke="#63b8ff" d="M1321,-274.75C1321,-267.8 1321,-257.85 1321,-249.13"/>
<polygon fill="#63b8ff" stroke="#63b8ff" points="1324.5,-249.09 1321,-239.09 1317.5,-249.09 1324.5,-249.09"/>
</a>
</g>
</g>
<!-- Node42 -->
<g id="Node000042" class="node">
<title>Node42</title>
<g id="a_Node000042"><a xlink:title=" ">
<polygon fill="#e0e0e0" stroke="#999999" points="1449.5,-239 1378.5,-239 1378.5,-220 1449.5,-220 1449.5,-239"/>
<text text-anchor="middle" x="1414" y="-227" font-family="Helvetica,sans-Serif" font-size="10.00">QClipboard</text>
</a>
</g>
</g>
<!-- Node1&#45;&gt;Node42 -->
<g id="edge56_Node000001_Node000042" class="edge">
<title>Node1&#45;&gt;Node42</title>
<g id="a_edge56_Node000001_Node000042"><a xlink:title=" ">
<path fill="none" stroke="#63b8ff" d="M1335.94,-274.98C1350.5,-266.69 1372.87,-253.94 1389.93,-244.22"/>
<polygon fill="#63b8ff" stroke="#63b8ff" points="1391.83,-247.16 1398.79,-239.17 1388.36,-241.08 1391.83,-247.16"/>
</a>
</g>
</g>
<!-- Node43 -->
<g id="Node000043" class="node">
<title>Node43</title>
<g id="a_Node000043"><a xlink:title=" ">
<polygon fill="#e0e0e0" stroke="#999999" points="1518,-239 1468,-239 1468,-220 1518,-220 1518,-239"/>
<text text-anchor="middle" x="1493" y="-227" font-family="Helvetica,sans-Serif" font-size="10.00">QLabel</text>
</a>
</g>
</g>
<!-- Node1&#45;&gt;Node43 -->
<g id="edge58_Node000001_Node000043" class="edge">
<title>Node1&#45;&gt;Node43</title>
<g id="a_edge58_Node000001_Node000043"><a xlink:title=" ">
<path fill="none" stroke="#63b8ff" d="M1348.63,-274.98C1378.37,-265.82 1425.73,-251.23 1458.03,-241.27"/>
<polygon fill="#63b8ff" stroke="#63b8ff" points="1459.43,-244.51 1467.95,-238.22 1457.36,-237.82 1459.43,-244.51"/>
</a>
</g>
</g>
<!-- Node44 -->
<g id="Node000044" class="node">
<title>Node44</title>
<g id="a_Node000044"><a xlink:title=" ">
<polygon fill="#e0e0e0" stroke="#999999" points="1619.5,-239 1536.5,-239 1536.5,-220 1619.5,-220 1619.5,-239"/>
<text text-anchor="middle" x="1578" y="-227" font-family="Helvetica,sans-Serif" font-size="10.00">QVBoxLayout</text>
</a>
</g>
</g>
<!-- Node1&#45;&gt;Node44 -->
<g id="edge60_Node000001_Node000044" class="edge">
<title>Node1&#45;&gt;Node44</title>
<g id="a_edge60_Node000001_Node000044"><a xlink:title=" ">
<path fill="none" stroke="#63b8ff" d="M1362.29,-274.98C1406.93,-265.78 1478.16,-251.09 1526.45,-241.13"/>
<polygon fill="#63b8ff" stroke="#63b8ff" points="1527.3,-244.53 1536.38,-239.08 1525.88,-237.67 1527.3,-244.53"/>
</a>
</g>
</g>
<!-- Node45 -->
<g id="Node000045" class="node">
<title>Node45</title>
<g id="a_Node000045"><a xlink:title=" ">
<polygon fill="#e0e0e0" stroke="#999999" points="1718,-239 1638,-239 1638,-220 1718,-220 1718,-239"/>
<text text-anchor="middle" x="1678" y="-227" font-family="Helvetica,sans-Serif" font-size="10.00">QInputDialog</text>
</a>
</g>
</g>
<!-- Node1&#45;&gt;Node45 -->
<g id="edge61_Node000001_Node000045" class="edge">
<title>Node1&#45;&gt;Node45</title>
<g id="a_edge61_Node000001_Node000045"><a xlink:title=" ">
<path fill="none" stroke="#63b8ff" d="M1364.16,-277.66C1421.87,-269.76 1527.6,-254.98 1627.9,-239.14"/>
<polygon fill="#63b8ff" stroke="#63b8ff" points="1628.58,-242.57 1637.9,-237.55 1627.48,-235.66 1628.58,-242.57"/>
</a>
</g>
</g>
<!-- Node46 -->
<g id="Node000046" class="node">
<title>Node46</title>
<g id="a_Node000046"><a xlink:title=" ">
<polygon fill="#e0e0e0" stroke="#999999" points="1799.5,-239 1736.5,-239 1736.5,-220 1799.5,-220 1799.5,-239"/>
<text text-anchor="middle" x="1768" y="-227" font-family="Helvetica,sans-Serif" font-size="10.00">QLineEdit</text>
</a>
</g>
</g>
<!-- Node1&#45;&gt;Node46 -->
<g id="edge62_Node000001_Node000046" class="edge">
<title>Node1&#45;&gt;Node46</title>
<g id="a_edge62_Node000001_Node000046"><a xlink:title=" ">
<path fill="none" stroke="#63b8ff" d="M1364.15,-280.13C1436.77,-274.16 1588.19,-260.45 1726.35,-238.95"/>
<polygon fill="#63b8ff" stroke="#63b8ff" points="1726.94,-242.4 1736.27,-237.39 1725.85,-235.49 1726.94,-242.4"/>
</a>
</g>
</g>
<!-- Node47 -->
<g id="Node000047" class="node">
<title>Node47</title>
<g id="a_Node000047"><a xlink:title=" ">
<polygon fill="#e0e0e0" stroke="#999999" points="1862.5,-239 1817.5,-239 1817.5,-220 1862.5,-220 1862.5,-239"/>
<text text-anchor="middle" x="1840" y="-227" font-family="Helvetica,sans-Serif" font-size="10.00">utility</text>
</a>
</g>
</g>
<!-- Node1&#45;&gt;Node47 -->
<g id="edge63_Node000001_Node000047" class="edge">
<title>Node1&#45;&gt;Node47</title>
<g id="a_edge63_Node000001_Node000047"><a xlink:title=" ">
<path fill="none" stroke="#63b8ff" d="M1364.1,-282.13C1447.91,-278.9 1638.75,-268.87 1807.37,-239"/>
<polygon fill="#63b8ff" stroke="#63b8ff" points="1808.2,-242.4 1817.42,-237.19 1806.96,-235.51 1808.2,-242.4"/>
</a>
</g>
</g>
<!-- Node2&#45;&gt;Node3 -->
<g id="edge2_Node000002_Node000003" class="edge">
<title>Node2&#45;&gt;Node3</title>
<g id="a_edge2_Node000002_Node000003"><a xlink:title=" ">
<path fill="none" stroke="#63b8ff" d="M165.65,-219.98C138.24,-211.13 95.11,-197.19 64.44,-187.28"/>
<polygon fill="#63b8ff" stroke="#63b8ff" points="65.15,-183.83 54.56,-184.08 63,-190.49 65.15,-183.83"/>
</a>
</g>
</g>
<!-- Node4 -->
<g id="Node000004" class="node">
<title>Node4</title>
<g id="a_Node000004"><a xlink:title=" ">
<polygon fill="#e0e0e0" stroke="#999999" points="562,-19 506,-19 506,0 562,0 562,-19"/>
<text text-anchor="middle" x="534" y="-7" font-family="Helvetica,sans-Serif" font-size="10.00">QObject</text>
</a>
</g>
</g>
<!-- Node2&#45;&gt;Node4 -->
<g id="edge3_Node000002_Node000004" class="edge">
<title>Node2&#45;&gt;Node4</title>
<g id="a_edge3_Node000002_Node000004"><a xlink:title=" ">
<path fill="none" stroke="#63b8ff" d="M188.27,-219.93C176.82,-192.13 145.41,-103.41 188,-55 208.11,-32.14 410.16,-17.73 495.88,-12.61"/>
<polygon fill="#63b8ff" stroke="#63b8ff" points="496.2,-16.09 505.97,-12.01 495.79,-9.11 496.2,-16.09"/>
</a>
</g>
</g>
<!-- Node2&#45;&gt;Node5 -->
<g id="edge4_Node000002_Node000005" class="edge">
<title>Node2&#45;&gt;Node5</title>
<g id="a_edge4_Node000002_Node000005"><a xlink:title=" ">
<path fill="none" stroke="#63b8ff" d="M178.02,-219.98C164.53,-211.77 143.87,-199.18 127.96,-189.49"/>
<polygon fill="#63b8ff" stroke="#63b8ff" points="129.59,-186.38 119.23,-184.17 125.95,-192.36 129.59,-186.38"/>
</a>
</g>
</g>
<!-- Node6 -->
<g id="Node000006" class="node">
<title>Node6</title>
<g id="a_Node000006"><a xlink:title=" ">
<polygon fill="#e0e0e0" stroke="#999999" points="1087,-19 1025,-19 1025,0 1087,0 1087,-19"/>
<text text-anchor="middle" x="1056" y="-7" font-family="Helvetica,sans-Serif" font-size="10.00">QProcess</text>
</a>
</g>
</g>
<!-- Node2&#45;&gt;Node6 -->
<g id="edge5_Node000002_Node000006" class="edge">
<title>Node2&#45;&gt;Node6</title>
<g id="a_edge5_Node000002_Node000006"><a xlink:title=" ">
<path fill="none" stroke="#63b8ff" d="M193.68,-219.82C196.74,-206.24 204.5,-180 221,-165 331.67,-64.41 392.72,-86.09 539,-55 713.01,-18.01 926.19,-11.61 1014.57,-10.61"/>
<polygon fill="#63b8ff" stroke="#63b8ff" points="1014.76,-14.11 1024.72,-10.52 1014.69,-7.11 1014.76,-14.11"/>
</a>
</g>
</g>
<!-- Node7 -->
<g id="Node000007" class="node">
<title>Node7</title>
<g id="a_Node000007"><a xlink:title=" ">
<polygon fill="#e0e0e0" stroke="#999999" points="283.5,-184 230.5,-184 230.5,-165 283.5,-165 283.5,-184"/>
<text text-anchor="middle" x="257" y="-172" font-family="Helvetica,sans-Serif" font-size="10.00">QTimer</text>
</a>
</g>
</g>
<!-- Node2&#45;&gt;Node7 -->
<g id="edge6_Node000002_Node000007" class="edge">
<title>Node2&#45;&gt;Node7</title>
<g id="a_edge6_Node000002_Node000007"><a xlink:title=" ">
<path fill="none" stroke="#63b8ff" d="M202.44,-219.98C212.15,-212.07 226.82,-200.11 238.5,-190.58"/>
<polygon fill="#63b8ff" stroke="#63b8ff" points="240.83,-193.2 246.37,-184.17 236.4,-187.78 240.83,-193.2"/>
</a>
</g>
</g>
<!-- Node8&#45;&gt;Node6 -->
<g id="edge13_Node000008_Node000006" class="edge">
<title>Node8&#45;&gt;Node6</title>
<g id="a_edge13_Node000008_Node000006"><a xlink:title=" ">
<path fill="none" stroke="#63b8ff" d="M480.45,-228.32C411.61,-226.52 289.5,-216.27 331,-165 418.39,-57.02 873.94,-21.29 1014.59,-12.74"/>
<polygon fill="#63b8ff" stroke="#63b8ff" points="1015.16,-16.21 1024.93,-12.13 1014.74,-9.22 1015.16,-16.21"/>
</a>
</g>
</g>
<!-- Node8&#45;&gt;Node7 -->
<g id="edge14_Node000008_Node000007" class="edge">
<title>Node8&#45;&gt;Node7</title>
<g id="a_edge14_Node000008_Node000007"><a xlink:title=" ">
<path fill="none" stroke="#63b8ff" d="M480.23,-220.02C434.68,-211.16 361.3,-196.79 298,-184 296.72,-183.74 295.41,-183.48 294.09,-183.21"/>
<polygon fill="#63b8ff" stroke="#63b8ff" points="294.4,-179.7 283.9,-181.12 292.99,-186.55 294.4,-179.7"/>
</a>
</g>
</g>
<!-- Node9 -->
<g id="Node000009" class="node">
<title>Node9</title>
<g id="a_Node000009"><a xlink:href="storemodel_8h.html" target="_top" xlink:title=" ">
<polygon fill="white" stroke="#666666" points="757.5,-184 676.5,-184 676.5,-165 757.5,-165 757.5,-184"/>
<text text-anchor="middle" x="717" y="-172" font-family="Helvetica,sans-Serif" font-size="10.00">storemodel.h</text>
</a>
</g>
</g>
<!-- Node8&#45;&gt;Node9 -->
<g id="edge8_Node000008_Node000009" class="edge">
<title>Node8&#45;&gt;Node9</title>
<g id="a_edge8_Node000008_Node000009"><a xlink:title=" ">
<path fill="none" stroke="#63b8ff" d="M555.01,-219.98C587.83,-210.97 639.8,-196.7 675.99,-186.76"/>
<polygon fill="#63b8ff" stroke="#63b8ff" points="677.03,-190.11 685.75,-184.08 675.18,-183.36 677.03,-190.11"/>
</a>
</g>
</g>
<!-- Node11 -->
<g id="Node000011" class="node">
<title>Node11</title>
<g id="a_Node000011"><a xlink:title=" ">
<polygon fill="#e0e0e0" stroke="#999999" points="1454,-184 1346,-184 1346,-165 1454,-165 1454,-184"/>
<text text-anchor="middle" x="1400" y="-172" font-family="Helvetica,sans-Serif" font-size="10.00">QFileSystemModel</text>
</a>
</g>
</g>
<!-- Node8&#45;&gt;Node11 -->
<g id="edge10_Node000008_Node000011" class="edge">
<title>Node8&#45;&gt;Node11</title>
<g id="a_edge10_Node000008_Node000011"><a xlink:title=" ">
<path fill="none" stroke="#63b8ff" d="M567.72,-227.33C688.31,-223.84 1036.01,-212.02 1335.55,-184.06"/>
<polygon fill="#63b8ff" stroke="#63b8ff" points="1336.11,-187.52 1345.74,-183.1 1335.45,-180.55 1336.11,-187.52"/>
</a>
</g>
</g>
<!-- Node12 -->
<g id="Node000012" class="node">
<title>Node12</title>
<g id="a_Node000012"><a xlink:title=" ">
<polygon fill="#e0e0e0" stroke="#999999" points="462,-184 340,-184 340,-165 462,-165 462,-184"/>
<text text-anchor="middle" x="401" y="-172" font-family="Helvetica,sans-Serif" font-size="10.00">QItemSelectionModel</text>
</a>
</g>
</g>
<!-- Node8&#45;&gt;Node12 -->
<g id="edge11_Node000008_Node000012" class="edge">
<title>Node8&#45;&gt;Node12</title>
<g id="a_edge11_Node000008_Node000012"><a xlink:title=" ">
<path fill="none" stroke="#63b8ff" d="M504.24,-219.98C484.27,-211.38 453.2,-197.99 430.35,-188.15"/>
<polygon fill="#63b8ff" stroke="#63b8ff" points="431.69,-184.91 421.12,-184.17 428.92,-191.34 431.69,-184.91"/>
</a>
</g>
</g>
<!-- Node13 -->
<g id="Node000013" class="node">
<title>Node13</title>
<g id="a_Node000013"><a xlink:title=" ">
<polygon fill="#e0e0e0" stroke="#999999" points="567.5,-184 480.5,-184 480.5,-165 567.5,-165 567.5,-184"/>
<text text-anchor="middle" x="524" y="-172" font-family="Helvetica,sans-Serif" font-size="10.00">QMainWindow</text>
</a>
</g>
</g>
<!-- Node8&#45;&gt;Node13 -->
<g id="edge12_Node000008_Node000013" class="edge">
<title>Node8&#45;&gt;Node13</title>
<g id="a_edge12_Node000008_Node000013"><a xlink:title=" ">
<path fill="none" stroke="#63b8ff" d="M524,-219.75C524,-212.8 524,-202.85 524,-194.13"/>
<polygon fill="#63b8ff" stroke="#63b8ff" points="527.5,-194.09 524,-184.09 520.5,-194.09 527.5,-194.09"/>
</a>
</g>
</g>
<!-- Node10 -->
<g id="Node000010" class="node">
<title>Node10</title>
<g id="a_Node000010"><a xlink:title=" ">
<polygon fill="#e0e0e0" stroke="#999999" points="780,-129 654,-129 654,-110 780,-110 780,-129"/>
<text text-anchor="middle" x="717" y="-117" font-family="Helvetica,sans-Serif" font-size="10.00">QSortFilterProxyModel</text>
</a>
</g>
</g>
<!-- Node9&#45;&gt;Node10 -->
<g id="edge9_Node000009_Node000010" class="edge">
<title>Node9&#45;&gt;Node10</title>
<g id="a_edge9_Node000009_Node000010"><a xlink:title=" ">
<path fill="none" stroke="#63b8ff" d="M717,-164.75C717,-157.8 717,-147.85 717,-139.13"/>
<polygon fill="#63b8ff" stroke="#63b8ff" points="720.5,-139.09 717,-129.09 713.5,-139.09 720.5,-139.09"/>
</a>
</g>
</g>
<!-- Node15 -->
<g id="Node000015" class="node">
<title>Node15</title>
<g id="a_Node000015"><a xlink:href="enums_8h.html" target="_top" xlink:title=" ">
<polygon fill="white" stroke="#666666" points="1157.5,-74 1098.5,-74 1098.5,-55 1157.5,-55 1157.5,-74"/>
<text text-anchor="middle" x="1128" y="-62" font-family="Helvetica,sans-Serif" font-size="10.00">enums.h</text>
</a>
</g>
</g>
<!-- Node14&#45;&gt;Node15 -->
<g id="edge16_Node000014_Node000015" class="edge">
<title>Node14&#45;&gt;Node15</title>
<g id="a_edge16_Node000014_Node000015"><a xlink:title=" ">
<path fill="none" stroke="#63b8ff" d="M1204.73,-221.35C1207.87,-220.89 1210.98,-220.44 1214,-220 1269.33,-211.95 1426.4,-226.27 1463,-184 1468.53,-177.62 1468.05,-171.77 1463,-165 1444.94,-140.79 1252.24,-94.03 1167.55,-74.46"/>
<polygon fill="#63b8ff" stroke="#63b8ff" points="1168.3,-71.04 1157.77,-72.21 1166.73,-77.86 1168.3,-71.04"/>
</a>
</g>
</g>
<!-- Node16 -->
<g id="Node000016" class="node">
<title>Node16</title>
<g id="a_Node000016"><a xlink:href="imitatepass_8h.html" target="_top" xlink:title=" ">
<polygon fill="white" stroke="#666666" points="1105.5,-184 1022.5,-184 1022.5,-165 1105.5,-165 1105.5,-184"/>
<text text-anchor="middle" x="1064" y="-172" font-family="Helvetica,sans-Serif" font-size="10.00">imitatepass.h</text>
</a>
</g>
</g>
<!-- Node14&#45;&gt;Node16 -->
<g id="edge17_Node000014_Node000016" class="edge">
<title>Node14&#45;&gt;Node16</title>
<g id="a_edge17_Node000014_Node000016"><a xlink:title=" ">
<path fill="none" stroke="#63b8ff" d="M1141.22,-219.98C1126.82,-211.69 1104.69,-198.94 1087.81,-189.22"/>
<polygon fill="#63b8ff" stroke="#63b8ff" points="1089.46,-186.13 1079.05,-184.17 1085.97,-192.19 1089.46,-186.13"/>
</a>
</g>
</g>
<!-- Node28 -->
<g id="Node000028" class="node">
<title>Node28</title>
<g id="a_Node000028"><a xlink:href="passwordconfiguration_8h.html" target="_top" xlink:title=" ">
<polygon fill="white" stroke="#666666" points="1788,-129 1652,-129 1652,-110 1788,-110 1788,-129"/>
<text text-anchor="middle" x="1720" y="-117" font-family="Helvetica,sans-Serif" font-size="10.00">passwordconfiguration.h</text>
</a>
</g>
</g>
<!-- Node14&#45;&gt;Node28 -->
<g id="edge36_Node000014_Node000028" class="edge">
<title>Node14&#45;&gt;Node28</title>
<g id="a_edge36_Node000014_Node000028"><a xlink:title=" ">
<path fill="none" stroke="#63b8ff" d="M1204.71,-221.17C1207.85,-220.76 1210.97,-220.36 1214,-220 1386.84,-199.37 1437.52,-234.85 1604,-184 1640.09,-172.98 1677.65,-149.93 1699.92,-134.85"/>
<polygon fill="#63b8ff" stroke="#63b8ff" points="1701.97,-137.68 1708.21,-129.12 1697.99,-131.93 1701.97,-137.68"/>
</a>
</g>
</g>
<!-- Node29 -->
<g id="Node000029" class="node">
<title>Node29</title>
<g id="a_Node000029"><a xlink:href="realpass_8h.html" target="_top" xlink:title=" ">
<polygon fill="white" stroke="#666666" points="1577.5,-184 1510.5,-184 1510.5,-165 1577.5,-165 1577.5,-184"/>
<text text-anchor="middle" x="1544" y="-172" font-family="Helvetica,sans-Serif" font-size="10.00">realpass.h</text>
</a>
</g>
</g>
<!-- Node14&#45;&gt;Node29 -->
<g id="edge38_Node000014_Node000029" class="edge">
<title>Node14&#45;&gt;Node29</title>
<g id="a_edge38_Node000014_Node000029"><a xlink:title=" ">
<path fill="none" stroke="#63b8ff" d="M1204.72,-221.29C1207.86,-220.85 1210.98,-220.41 1214,-220 1339.18,-202.84 1371.09,-203.02 1496,-184 1497.46,-183.78 1498.95,-183.54 1500.45,-183.31"/>
<polygon fill="#63b8ff" stroke="#63b8ff" points="1501.17,-186.74 1510.46,-181.65 1500.03,-179.83 1501.17,-186.74"/>
</a>
</g>
</g>
<!-- Node30 -->
<g id="Node000030" class="node">
<title>Node30</title>
<g id="a_Node000030"><a xlink:href="settingsconstants_8h.html" target="_top" xlink:title=" ">
<polygon fill="white" stroke="#666666" points="1634,-129 1522,-129 1522,-110 1634,-110 1634,-129"/>
<text text-anchor="middle" x="1578" y="-117" font-family="Helvetica,sans-Serif" font-size="10.00">settingsconstants.h</text>
</a>
</g>
</g>
<!-- Node14&#45;&gt;Node30 -->
<g id="edge40_Node000014_Node000030" class="edge">
<title>Node14&#45;&gt;Node30</title>
<g id="a_edge40_Node000014_Node000030"><a xlink:title=" ">
<path fill="none" stroke="#63b8ff" d="M1204.71,-221.18C1207.85,-220.77 1210.97,-220.37 1214,-220 1255.33,-214.98 1559.01,-214.82 1587,-184 1598.08,-171.8 1593.34,-152.47 1587.36,-138.34"/>
<polygon fill="#63b8ff" stroke="#63b8ff" points="1590.45,-136.68 1583,-129.14 1584.12,-139.68 1590.45,-136.68"/>
</a>
</g>
</g>
<!-- Node31 -->
<g id="Node000031" class="node">
<title>Node31</title>
<g id="a_Node000031"><a xlink:title=" ">
<polygon fill="#e0e0e0" stroke="#999999" points="658.5,-184 585.5,-184 585.5,-165 658.5,-165 658.5,-184"/>
<text text-anchor="middle" x="622" y="-172" font-family="Helvetica,sans-Serif" font-size="10.00">QByteArray</text>
</a>
</g>
</g>
<!-- Node14&#45;&gt;Node31 -->
<g id="edge42_Node000014_Node000031" class="edge">
<title>Node14&#45;&gt;Node31</title>
<g id="a_edge42_Node000014_Node000031"><a xlink:title=" ">
<path fill="none" stroke="#63b8ff" d="M1107.35,-225.55C1021.1,-219.99 835.56,-206.59 668.57,-183.94"/>
<polygon fill="#63b8ff" stroke="#63b8ff" points="668.99,-180.47 658.61,-182.58 668.04,-187.4 668.99,-180.47"/>
</a>
</g>
</g>
<!-- Node32 -->
<g id="Node000032" class="node">
<title>Node32</title>
<g id="a_Node000032"><a xlink:title=" ">
<polygon fill="#e0e0e0" stroke="#999999" points="824.5,-184 775.5,-184 775.5,-165 824.5,-165 824.5,-184"/>
<text text-anchor="middle" x="800" y="-172" font-family="Helvetica,sans-Serif" font-size="10.00">QHash</text>
</a>
</g>
</g>
<!-- Node14&#45;&gt;Node32 -->
<g id="edge43_Node000014_Node000032" class="edge">
<title>Node14&#45;&gt;Node32</title>
<g id="a_edge43_Node000014_Node000032"><a xlink:title=" ">
<path fill="none" stroke="#63b8ff" d="M1107.45,-223.44C1046.17,-216.69 937.34,-203.49 834.72,-183.94"/>
<polygon fill="#63b8ff" stroke="#63b8ff" points="835.3,-180.49 824.81,-182.03 833.97,-187.36 835.3,-180.49"/>
</a>
</g>
</g>
<!-- Node33 -->
<g id="Node000033" class="node">
<title>Node33</title>
<g id="a_Node000033"><a xlink:title=" ">
<polygon fill="#e0e0e0" stroke="#999999" points="891.5,-184 842.5,-184 842.5,-165 891.5,-165 891.5,-184"/>
<text text-anchor="middle" x="867" y="-172" font-family="Helvetica,sans-Serif" font-size="10.00">QPoint</text>
</a>
</g>
</g>
<!-- Node14&#45;&gt;Node33 -->
<g id="edge44_Node000014_Node000033" class="edge">
<title>Node14&#45;&gt;Node33</title>
<g id="a_edge44_Node000014_Node000033"><a xlink:title=" ">
<path fill="none" stroke="#63b8ff" d="M1107.39,-221.09C1058.04,-213.32 979.24,-200.27 901.76,-184.03"/>
<polygon fill="#63b8ff" stroke="#63b8ff" points="902.34,-180.57 891.83,-181.93 900.89,-187.42 902.34,-180.57"/>
</a>
</g>
</g>
<!-- Node34 -->
<g id="Node000034" class="node">
<title>Node34</title>
<g id="a_Node000034"><a xlink:title=" ">
<polygon fill="#e0e0e0" stroke="#999999" points="1004,-184 910,-184 910,-165 1004,-165 1004,-184"/>
<text text-anchor="middle" x="957" y="-172" font-family="Helvetica,sans-Serif" font-size="10.00">QScopedPointer</text>
</a>
</g>
</g>
<!-- Node14&#45;&gt;Node34 -->
<g id="edge45_Node000014_Node000034" class="edge">
<title>Node14&#45;&gt;Node34</title>
<g id="a_edge45_Node000014_Node000034"><a xlink:title=" ">
<path fill="none" stroke="#63b8ff" d="M1124.03,-219.98C1090.18,-210.97 1036.6,-196.7 999.29,-186.76"/>
<polygon fill="#63b8ff" stroke="#63b8ff" points="999.79,-183.27 989.22,-184.08 997.99,-190.04 999.79,-183.27"/>
</a>
</g>
</g>
<!-- Node35 -->
<g id="Node000035" class="node">
<title>Node35</title>
<g id="a_Node000035"><a xlink:title=" ">
<polygon fill="#e0e0e0" stroke="#999999" points="1188,-184 1124,-184 1124,-165 1188,-165 1188,-184"/>
<text text-anchor="middle" x="1156" y="-172" font-family="Helvetica,sans-Serif" font-size="10.00">QSettings</text>
</a>
</g>
</g>
<!-- Node14&#45;&gt;Node35 -->
<g id="edge46_Node000014_Node000035" class="edge">
<title>Node14&#45;&gt;Node35</title>
<g id="a_edge46_Node000014_Node000035"><a xlink:title=" ">
<path fill="none" stroke="#63b8ff" d="M1156,-219.75C1156,-212.8 1156,-202.85 1156,-194.13"/>
<polygon fill="#63b8ff" stroke="#63b8ff" points="1159.5,-194.09 1156,-184.09 1152.5,-194.09 1159.5,-194.09"/>
</a>
</g>
</g>
<!-- Node36 -->
<g id="Node000036" class="node">
<title>Node36</title>
<g id="a_Node000036"><a xlink:title=" ">
<polygon fill="#e0e0e0" stroke="#999999" points="1250,-184 1206,-184 1206,-165 1250,-165 1250,-184"/>
<text text-anchor="middle" x="1228" y="-172" font-family="Helvetica,sans-Serif" font-size="10.00">QSize</text>
</a>
</g>
</g>
<!-- Node14&#45;&gt;Node36 -->
<g id="edge47_Node000014_Node000036" class="edge">
<title>Node14&#45;&gt;Node36</title>
<g id="a_edge47_Node000014_Node000036"><a xlink:title=" ">
<path fill="none" stroke="#63b8ff" d="M1167.57,-219.98C1178.42,-212 1194.88,-199.88 1207.88,-190.31"/>
<polygon fill="#63b8ff" stroke="#63b8ff" points="1210.24,-192.92 1216.22,-184.17 1206.09,-187.28 1210.24,-192.92"/>
</a>
</g>
</g>
<!-- Node37 -->
<g id="Node000037" class="node">
<title>Node37</title>
<g id="a_Node000037"><a xlink:title=" ">
<polygon fill="#e0e0e0" stroke="#999999" points="1327.5,-184 1268.5,-184 1268.5,-165 1327.5,-165 1327.5,-184"/>
<text text-anchor="middle" x="1298" y="-172" font-family="Helvetica,sans-Serif" font-size="10.00">QVariant</text>
</a>
</g>
</g>
<!-- Node14&#45;&gt;Node37 -->
<g id="edge48_Node000014_Node000037" class="edge">
<title>Node14&#45;&gt;Node37</title>
<g id="a_edge48_Node000014_Node000037"><a xlink:title=" ">
<path fill="none" stroke="#63b8ff" d="M1178.81,-219.98C1202.17,-211.27 1238.7,-197.63 1265.17,-187.75"/>
<polygon fill="#63b8ff" stroke="#63b8ff" points="1266.63,-190.95 1274.77,-184.17 1264.18,-184.39 1266.63,-190.95"/>
</a>
</g>
</g>
<!-- Node17 -->
<g id="Node000017" class="node">
<title>Node17</title>
<g id="a_Node000017"><a xlink:href="pass_8h.html" target="_top" xlink:title=" ">
<polygon fill="white" stroke="#666666" points="1502,-129 1454,-129 1454,-110 1502,-110 1502,-129"/>
<text text-anchor="middle" x="1478" y="-117" font-family="Helvetica,sans-Serif" font-size="10.00">pass.h</text>
</a>
</g>
</g>
<!-- Node16&#45;&gt;Node17 -->
<g id="edge18_Node000016_Node000017" class="edge">
<title>Node16&#45;&gt;Node17</title>
<g id="a_edge18_Node000016_Node000017"><a xlink:title=" ">
<path fill="none" stroke="#63b8ff" d="M1105.73,-166.4C1108.86,-165.91 1111.98,-165.44 1115,-165 1235.54,-147.57 1379.25,-131.28 1443.72,-124.2"/>
<polygon fill="#63b8ff" stroke="#63b8ff" points="1444.18,-127.67 1453.74,-123.11 1443.42,-120.72 1444.18,-127.67"/>
</a>
</g>
</g>
<!-- Node26 -->
<g id="Node000026" class="node">
<title>Node26</title>
<g id="a_Node000026"><a xlink:href="simpletransaction_8h.html" target="_top" xlink:title=" ">
<polygon fill="white" stroke="#666666" points="1120.5,-129 1007.5,-129 1007.5,-110 1120.5,-110 1120.5,-129"/>
<text text-anchor="middle" x="1064" y="-117" font-family="Helvetica,sans-Serif" font-size="10.00">simpletransaction.h</text>
</a>
</g>
</g>
<!-- Node16&#45;&gt;Node26 -->
<g id="edge33_Node000016_Node000026" class="edge">
<title>Node16&#45;&gt;Node26</title>
<g id="a_edge33_Node000016_Node000026"><a xlink:title=" ">
<path fill="none" stroke="#63b8ff" d="M1064,-164.75C1064,-157.8 1064,-147.85 1064,-139.13"/>
<polygon fill="#63b8ff" stroke="#63b8ff" points="1067.5,-139.09 1064,-129.09 1060.5,-139.09 1067.5,-139.09"/>
</a>
</g>
</g>
<!-- Node17&#45;&gt;Node6 -->
<g id="edge27_Node000017_Node000006" class="edge">
<title>Node17&#45;&gt;Node6</title>
<g id="a_edge27_Node000017_Node000006"><a xlink:title=" ">
<path fill="none" stroke="#63b8ff" d="M1453.68,-113.07C1406.41,-102.48 1305.37,-79.58 1290,-74 1272.25,-67.56 1269.78,-61.36 1252,-55 1200.01,-36.41 1137.41,-23.8 1097.18,-16.88"/>
<polygon fill="#63b8ff" stroke="#63b8ff" points="1097.65,-13.41 1087.21,-15.2 1096.49,-20.31 1097.65,-13.41"/>
</a>
</g>
</g>
<!-- Node17&#45;&gt;Node15 -->
<g id="edge19_Node000017_Node000015" class="edge">
<title>Node17&#45;&gt;Node15</title>
<g id="a_edge19_Node000017_Node000015"><a xlink:title=" ">
<path fill="none" stroke="#63b8ff" d="M1453.94,-112.78C1449.33,-111.78 1444.53,-110.8 1440,-110 1322.68,-89.18 1289.31,-94.73 1167.83,-74"/>
<polygon fill="#63b8ff" stroke="#63b8ff" points="1168.21,-70.51 1157.76,-72.25 1167.02,-77.41 1168.21,-70.51"/>
</a>
</g>
</g>
<!-- Node18 -->
<g id="Node000018" class="node">
<title>Node18</title>
<g id="a_Node000018"><a xlink:href="executor_8h.html" target="_top" xlink:title=" ">
<polygon fill="white" stroke="#666666" points="1242.5,-74 1175.5,-74 1175.5,-55 1242.5,-55 1242.5,-74"/>
<text text-anchor="middle" x="1209" y="-62" font-family="Helvetica,sans-Serif" font-size="10.00">executor.h</text>
</a>
</g>
</g>
<!-- Node17&#45;&gt;Node18 -->
<g id="edge20_Node000017_Node000018" class="edge">
<title>Node17&#45;&gt;Node18</title>
<g id="a_edge20_Node000017_Node000018"><a xlink:title=" ">
<path fill="none" stroke="#63b8ff" d="M1453.9,-113C1449.29,-111.98 1444.5,-110.94 1440,-110 1374.95,-96.46 1299.28,-82.16 1252.76,-73.53"/>
<polygon fill="#63b8ff" stroke="#63b8ff" points="1253.2,-70.05 1242.73,-71.67 1251.92,-76.93 1253.2,-70.05"/>
</a>
</g>
</g>
<!-- Node19 -->
<g id="Node000019" class="node">
<title>Node19</title>
<g id="a_Node000019"><a xlink:title=" ">
<polygon fill="#e0e0e0" stroke="#999999" points="1383,-19 1327,-19 1327,0 1383,0 1383,-19"/>
<text text-anchor="middle" x="1355" y="-7" font-family="Helvetica,sans-Serif" font-size="10.00">QQueue</text>
</a>
</g>
</g>
<!-- Node17&#45;&gt;Node19 -->
<g id="edge28_Node000017_Node000019" class="edge">
<title>Node17&#45;&gt;Node19</title>
<g id="a_edge28_Node000017_Node000019"><a xlink:title=" ">
<path fill="none" stroke="#63b8ff" d="M1486.9,-109.58C1498.75,-96.6 1516.81,-72.2 1504,-55 1478.71,-21.06 1428.51,-12 1393.4,-10.08"/>
<polygon fill="#63b8ff" stroke="#63b8ff" points="1393.16,-6.56 1383.03,-9.69 1392.89,-13.56 1393.16,-6.56"/>
</a>
</g>
</g>
<!-- Node20 -->
<g id="Node000020" class="node">
<title>Node20</title>
<g id="a_Node000020"><a xlink:href="userinfo_8h.html" target="_top" xlink:title=" ">
<polygon fill="white" stroke="#666666" points="1616.5,-74 1551.5,-74 1551.5,-55 1616.5,-55 1616.5,-74"/>
<text text-anchor="middle" x="1584" y="-62" font-family="Helvetica,sans-Serif" font-size="10.00">userinfo.h</text>
</a>
</g>
</g>
<!-- Node17&#45;&gt;Node20 -->
<g id="edge24_Node000017_Node000020" class="edge">
<title>Node17&#45;&gt;Node20</title>
<g id="a_edge24_Node000017_Node000020"><a xlink:title=" ">
<path fill="none" stroke="#63b8ff" d="M1495.03,-109.98C1511.93,-101.54 1538.06,-88.47 1557.64,-78.68"/>
<polygon fill="#63b8ff" stroke="#63b8ff" points="1559.28,-81.77 1566.66,-74.17 1556.15,-75.51 1559.28,-81.77"/>
</a>
</g>
</g>
<!-- Node22 -->
<g id="Node000022" class="node">
<title>Node22</title>
<g id="a_Node000022"><a xlink:title=" ">
<polygon fill="#e0e0e0" stroke="#999999" points="1709.5,-19 1656.5,-19 1656.5,0 1709.5,0 1709.5,-19"/>
<text text-anchor="middle" x="1683" y="-7" font-family="Helvetica,sans-Serif" font-size="10.00">QString</text>
</a>
</g>
</g>
<!-- Node17&#45;&gt;Node22 -->
<g id="edge29_Node000017_Node000022" class="edge">
<title>Node17&#45;&gt;Node22</title>
<g id="a_edge29_Node000017_Node000022"><a xlink:title=" ">
<path fill="none" stroke="#63b8ff" d="M1502.15,-112.01C1541.32,-101.37 1615.41,-80.72 1626,-74 1644.88,-62.02 1661.31,-42.09 1671.62,-27.75"/>
<polygon fill="#63b8ff" stroke="#63b8ff" points="1674.67,-29.49 1677.47,-19.28 1668.91,-25.52 1674.67,-29.49"/>
</a>
</g>
</g>
<!-- Node23 -->
<g id="Node000023" class="node">
<title>Node23</title>
<g id="a_Node000023"><a xlink:title=" ">
<polygon fill="#e0e0e0" stroke="#999999" points="1369,-74 1299,-74 1299,-55 1369,-55 1369,-74"/>
<text text-anchor="middle" x="1334" y="-62" font-family="Helvetica,sans-Serif" font-size="10.00">QStringList</text>
</a>
</g>
</g>
<!-- Node17&#45;&gt;Node23 -->
<g id="edge30_Node000017_Node000023" class="edge">
<title>Node17&#45;&gt;Node23</title>
<g id="a_edge30_Node000017_Node000023"><a xlink:title=" ">
<path fill="none" stroke="#63b8ff" d="M1454.86,-109.98C1431.18,-101.27 1394.13,-87.63 1367.29,-77.75"/>
<polygon fill="#63b8ff" stroke="#63b8ff" points="1368.15,-74.34 1357.56,-74.17 1365.73,-80.91 1368.15,-74.34"/>
</a>
</g>
</g>
<!-- Node24 -->
<g id="Node000024" class="node">
<title>Node24</title>
<g id="a_Node000024"><a xlink:title=" ">
<polygon fill="#e0e0e0" stroke="#999999" points="1439,-74 1387,-74 1387,-55 1439,-55 1439,-74"/>
<text text-anchor="middle" x="1413" y="-62" font-family="Helvetica,sans-Serif" font-size="10.00">cassert</text>
</a>
</g>
</g>
<!-- Node17&#45;&gt;Node24 -->
<g id="edge31_Node000017_Node000024" class="edge">
<title>Node17&#45;&gt;Node24</title>
<g id="a_edge31_Node000017_Node000024"><a xlink:title=" ">
<path fill="none" stroke="#63b8ff" d="M1467.56,-109.98C1457.85,-102.07 1443.18,-90.11 1431.5,-80.58"/>
<polygon fill="#63b8ff" stroke="#63b8ff" points="1433.6,-77.78 1423.63,-74.17 1429.17,-83.2 1433.6,-77.78"/>
</a>
</g>
</g>
<!-- Node25 -->
<g id="Node000025" class="node">
<title>Node25</title>
<g id="a_Node000025"><a xlink:title=" ">
<polygon fill="#e0e0e0" stroke="#999999" points="1495,-74 1457,-74 1457,-55 1495,-55 1495,-74"/>
<text text-anchor="middle" x="1476" y="-62" font-family="Helvetica,sans-Serif" font-size="10.00">map</text>
</a>
</g>
</g>
<!-- Node17&#45;&gt;Node25 -->
<g id="edge32_Node000017_Node000025" class="edge">
<title>Node17&#45;&gt;Node25</title>
<g id="a_edge32_Node000017_Node000025"><a xlink:title=" ">
<path fill="none" stroke="#63b8ff" d="M1477.67,-109.75C1477.41,-102.8 1477.03,-92.85 1476.7,-84.13"/>
<polygon fill="#63b8ff" stroke="#63b8ff" points="1480.2,-83.95 1476.32,-74.09 1473.2,-84.21 1480.2,-83.95"/>
</a>
</g>
</g>
<!-- Node18&#45;&gt;Node4 -->
<g id="edge21_Node000018_Node000004" class="edge">
<title>Node18&#45;&gt;Node4</title>
<g id="a_edge21_Node000018_Node000004"><a xlink:title=" ">
<path fill="none" stroke="#63b8ff" d="M1175.14,-56.26C1172.39,-55.79 1169.65,-55.36 1167,-55 942.92,-24.58 671.21,-14.33 572.32,-11.47"/>
<polygon fill="#63b8ff" stroke="#63b8ff" points="572.3,-7.96 562.21,-11.18 572.11,-14.96 572.3,-7.96"/>
</a>
</g>
</g>
<!-- Node18&#45;&gt;Node6 -->
<g id="edge22_Node000018_Node000006" class="edge">
<title>Node18&#45;&gt;Node6</title>
<g id="a_edge22_Node000018_Node000006"><a xlink:title=" ">
<path fill="none" stroke="#63b8ff" d="M1184.42,-54.98C1158.95,-46.16 1118.96,-32.31 1090.37,-22.41"/>
<polygon fill="#63b8ff" stroke="#63b8ff" points="1091.37,-19.05 1080.77,-19.08 1089.08,-25.66 1091.37,-19.05"/>
</a>
</g>
</g>
<!-- Node18&#45;&gt;Node19 -->
<g id="edge23_Node000018_Node000019" class="edge">
<title>Node18&#45;&gt;Node19</title>
<g id="a_edge23_Node000018_Node000019"><a xlink:title=" ">
<path fill="none" stroke="#63b8ff" d="M1232.46,-54.98C1256.58,-46.23 1294.37,-32.51 1321.6,-22.62"/>
<polygon fill="#63b8ff" stroke="#63b8ff" points="1322.91,-25.87 1331.12,-19.17 1320.52,-19.29 1322.91,-25.87"/>
</a>
</g>
</g>
<!-- Node21 -->
<g id="Node000021" class="node">
<title>Node21</title>
<g id="a_Node000021"><a xlink:title=" ">
<polygon fill="#e0e0e0" stroke="#999999" points="1620,-19 1548,-19 1548,0 1620,0 1620,-19"/>
<text text-anchor="middle" x="1584" y="-7" font-family="Helvetica,sans-Serif" font-size="10.00">QDateTime</text>
</a>
</g>
</g>
<!-- Node20&#45;&gt;Node21 -->
<g id="edge25_Node000020_Node000021" class="edge">
<title>Node20&#45;&gt;Node21</title>
<g id="a_edge25_Node000020_Node000021"><a xlink:title=" ">
<path fill="none" stroke="#63b8ff" d="M1584,-54.75C1584,-47.8 1584,-37.85 1584,-29.13"/>
<polygon fill="#63b8ff" stroke="#63b8ff" points="1587.5,-29.09 1584,-19.09 1580.5,-29.09 1587.5,-29.09"/>
</a>
</g>
</g>
<!-- Node20&#45;&gt;Node22 -->
<g id="edge26_Node000020_Node000022" class="edge">
<title>Node20&#45;&gt;Node22</title>
<g id="a_edge26_Node000020_Node000022"><a xlink:title=" ">
<path fill="none" stroke="#63b8ff" d="M1599.91,-54.98C1615.55,-46.61 1639.66,-33.7 1657.88,-23.95"/>
<polygon fill="#63b8ff" stroke="#63b8ff" points="1659.64,-26.98 1666.8,-19.17 1656.34,-20.8 1659.64,-26.98"/>
</a>
</g>
</g>
<!-- Node26&#45;&gt;Node15 -->
<g id="edge34_Node000026_Node000015" class="edge">
<title>Node26&#45;&gt;Node15</title>
<g id="a_edge34_Node000026_Node000015"><a xlink:title=" ">
<path fill="none" stroke="#63b8ff" d="M1074.28,-109.98C1083.84,-102.07 1098.28,-90.11 1109.78,-80.58"/>
<polygon fill="#63b8ff" stroke="#63b8ff" points="1112.06,-83.24 1117.53,-74.17 1107.6,-77.85 1112.06,-83.24"/>
</a>
</g>
</g>
<!-- Node27 -->
<g id="Node000027" class="node">
<title>Node27</title>
<g id="a_Node000027"><a xlink:title=" ">
<polygon fill="#e0e0e0" stroke="#999999" points="1080.5,-74 1033.5,-74 1033.5,-55 1080.5,-55 1080.5,-74"/>
<text text-anchor="middle" x="1057" y="-62" font-family="Helvetica,sans-Serif" font-size="10.00">queue</text>
</a>
</g>
</g>
<!-- Node26&#45;&gt;Node27 -->
<g id="edge35_Node000026_Node000027" class="edge">
<title>Node26&#45;&gt;Node27</title>
<g id="a_edge35_Node000026_Node000027"><a xlink:title=" ">
<path fill="none" stroke="#63b8ff" d="M1062.84,-109.75C1061.93,-102.8 1060.61,-92.85 1059.46,-84.13"/>
<polygon fill="#63b8ff" stroke="#63b8ff" points="1062.91,-83.54 1058.13,-74.09 1055.97,-84.46 1062.91,-83.54"/>
</a>
</g>
</g>
<!-- Node28&#45;&gt;Node22 -->
<g id="edge37_Node000028_Node000022" class="edge">
<title>Node28&#45;&gt;Node22</title>
<g id="a_edge37_Node000028_Node000022"><a xlink:title=" ">
<path fill="none" stroke="#63b8ff" d="M1716.97,-109.66C1710.93,-92.01 1697.25,-52.09 1689.21,-28.64"/>
<polygon fill="#63b8ff" stroke="#63b8ff" points="1692.52,-27.48 1685.97,-19.16 1685.9,-29.75 1692.52,-27.48"/>
</a>
</g>
</g>
<!-- Node29&#45;&gt;Node17 -->
<g id="edge39_Node000029_Node000017" class="edge">
<title>Node29&#45;&gt;Node17</title>
<g id="a_edge39_Node000029_Node000017"><a xlink:title=" ">
<path fill="none" stroke="#63b8ff" d="M1533.4,-164.98C1523.54,-157.07 1508.65,-145.11 1496.78,-135.58"/>
<polygon fill="#63b8ff" stroke="#63b8ff" points="1498.79,-132.7 1488.8,-129.17 1494.4,-138.16 1498.79,-132.7"/>
</a>
</g>
</g>
<!-- Node30&#45;&gt;Node22 -->
<g id="edge41_Node000030_Node000022" class="edge">
<title>Node30&#45;&gt;Node22</title>
<g id="a_edge41_Node000030_Node000022"><a xlink:title=" ">
<path fill="none" stroke="#63b8ff" d="M1603.37,-109.97C1621.1,-102.85 1644.17,-91.08 1659,-74 1670.09,-61.22 1676.29,-42.79 1679.6,-29.08"/>
<polygon fill="#63b8ff" stroke="#63b8ff" points="1683.03,-29.8 1681.67,-19.29 1676.18,-28.35 1683.03,-29.8"/>
</a>
</g>
</g>
<!-- Node38&#45;&gt;Node9 -->
<g id="edge50_Node000038_Node000009" class="edge">
<title>Node38&#45;&gt;Node9</title>
<g id="a_edge50_Node000038_Node000009"><a xlink:title=" ">
<path fill="none" stroke="#63b8ff" d="M1222.21,-221.85C1219.47,-221.14 1216.68,-220.5 1214,-220 1021.26,-184.38 966.58,-207.91 767.81,-183.97"/>
<polygon fill="#63b8ff" stroke="#63b8ff" points="767.97,-180.46 757.61,-182.71 767.11,-187.41 767.97,-180.46"/>
</a>
</g>
</g>
<!-- Node38&#45;&gt;Node11 -->
<g id="edge51_Node000038_Node000011" class="edge">
<title>Node38&#45;&gt;Node11</title>
<g id="a_edge51_Node000038_Node000011"><a xlink:title=" ">
<path fill="none" stroke="#63b8ff" d="M1263.53,-221.57C1289.33,-212.86 1334,-197.78 1365.19,-187.25"/>
<polygon fill="#63b8ff" stroke="#63b8ff" points="1366.44,-190.52 1374.8,-184.01 1364.2,-183.89 1366.44,-190.52"/>
</a>
</g>
</g>
<!-- Node38&#45;&gt;Node22 -->
<g id="edge54_Node000038_Node000022" class="edge">
<title>Node38&#45;&gt;Node22</title>
<g id="a_edge54_Node000038_Node000022"><a xlink:title=" ">
<path fill="none" stroke="#63b8ff" d="M1263.53,-222.08C1266.68,-221.27 1269.91,-220.54 1273,-220 1330.49,-209.99 1757.17,-226.66 1797,-184 1819.44,-159.96 1810.61,-139.94 1797,-110 1778.93,-70.25 1736.27,-40.17 1708.57,-23.96"/>
<polygon fill="#63b8ff" stroke="#63b8ff" points="1710.23,-20.88 1699.8,-19.01 1706.78,-26.98 1710.23,-20.88"/>
</a>
</g>
</g>
<!-- Node39 -->
<g id="Node000039" class="node">
<title>Node39</title>
<g id="a_Node000039"><a xlink:title=" ">
<polygon fill="#e0e0e0" stroke="#999999" points="1968,-184 1844,-184 1844,-165 1968,-165 1968,-184"/>
<text text-anchor="middle" x="1906" y="-172" font-family="Helvetica,sans-Serif" font-size="10.00">QProcessEnvironment</text>
</a>
</g>
</g>
<!-- Node38&#45;&gt;Node39 -->
<g id="edge52_Node000038_Node000039" class="edge">
<title>Node38&#45;&gt;Node39</title>
<g id="a_edge52_Node000038_Node000039"><a xlink:title=" ">
<path fill="none" stroke="#63b8ff" d="M1263.52,-222.07C1266.67,-221.26 1269.91,-220.53 1273,-220 1517.48,-177.95 1582.89,-205.79 1830,-184 1831.26,-183.89 1832.54,-183.77 1833.83,-183.66"/>
<polygon fill="#63b8ff" stroke="#63b8ff" points="1834.19,-187.14 1843.81,-182.7 1833.52,-180.17 1834.19,-187.14"/>
</a>
</g>
</g>
<!-- Node40 -->
<g id="Node000040" class="node">
<title>Node40</title>
<g id="a_Node000040"><a xlink:title=" ">
<polygon fill="#e0e0e0" stroke="#999999" points="1787.5,-184 1672.5,-184 1672.5,-165 1787.5,-165 1787.5,-184"/>
<text text-anchor="middle" x="1730" y="-172" font-family="Helvetica,sans-Serif" font-size="10.00">QRegularExpression</text>
</a>
</g>
</g>
<!-- Node38&#45;&gt;Node40 -->
<g id="edge53_Node000038_Node000040" class="edge">
<title>Node38&#45;&gt;Node40</title>
<g id="a_edge53_Node000038_Node000040"><a xlink:title=" ">
<path fill="none" stroke="#63b8ff" d="M1263.54,-222.15C1266.69,-221.33 1269.91,-220.58 1273,-220 1441.94,-188.44 1487.1,-202.08 1658,-184 1659.3,-183.86 1660.62,-183.72 1661.94,-183.58"/>
<polygon fill="#63b8ff" stroke="#63b8ff" points="1662.69,-187.02 1672.25,-182.44 1661.92,-180.06 1662.69,-187.02"/>
</a>
</g>
</g>
</g>
</svg>
