<?xml version="1.0" encoding="UTF-8" standalone="no"?>
<!DOCTYPE svg PUBLIC "-//W3C//DTD SVG 1.1//EN"
 "http://www.w3.org/Graphics/SVG/1.1/DTD/svg11.dtd">
<!-- Generated by graphviz version 2.40.1 (20161225.0304)
 -->
<!-- Title: src/qtpasssettings.h Pages: 1 -->
<!--zoomable 312 -->
<svg id="main" version="1.1" xmlns="http://www.w3.org/2000/svg" xmlns:xlink="http://www.w3.org/1999/xlink" xml:space="preserve" onload="init(evt)">
<style type="text/css"><![CDATA[
.edge:hover path { stroke: red; }
.edge:hover polygon { stroke: red; fill: red; }
]]></style>
<script type="text/javascript"><![CDATA[
var edges = document.getElementsByTagName('g');
if (edges && edges.length) {
  for (var i=0;i<edges.length;i++) {
    if (edges[i].id.substr(0,4)=='edge') {
      edges[i].setAttribute('class','edge');
    }
  }
}
]]></script>
        <defs>
                <circle id="rim" cx="0" cy="0" r="7"/>
                <circle id="rim2" cx="0" cy="0" r="3.5"/>
                <g id="zoomPlus">
                        <use xlink:href="#rim" fill="#404040">
                                <set attributeName="fill" to="#808080" begin="zoomplus.mouseover" end="zoomplus.mouseout"/>
                        </use>
                        <path d="M-4,0h8M0,-4v8" fill="none" stroke="white" stroke-width="1.5" pointer-events="none"/>
                </g>
                <g id="zoomMin">
                        <use xlink:href="#rim" fill="#404040">
                                <set attributeName="fill" to="#808080" begin="zoomminus.mouseover" end="zoomminus.mouseout"/>
                        </use>
                        <path d="M-4,0h8" fill="none" stroke="white" stroke-width="1.5" pointer-events="none"/>
                </g>
                <g id="dirArrow">
                        <path fill="none" stroke="white" stroke-width="1.5" d="M0,-3.0v7 M-2.5,-0.5L0,-3.0L2.5,-0.5"/>
                </g>
               <g id="resetDef">
                       <use xlink:href="#rim2" fill="#404040">
                               <set attributeName="fill" to="#808080" begin="reset.mouseover" end="reset.mouseout"/>
                       </use>
               </g>
        </defs>

<script type="text/javascript">
var viewWidth = 1289;
var viewHeight = 312;
var sectionId = 'dynsection-1';
</script>
<script xlink:href="svgpan.js"/>
<svg id="graph" class="graph">
<g id="viewport">
<title>src/qtpasssettings.h</title>
<!-- Node25 -->
<g id="node1" class="node">
<title>Node25</title>
<polygon fill="#bfbfbf" stroke="#000000" points="720.8794,-285.5 720.8794,-303.5 825.2534,-303.5 825.2534,-285.5 720.8794,-285.5"/>
<text text-anchor="middle" x="773.0664" y="-291.5" font-family="Helvetica,sans-Serif" font-size="10.00" fill="#000000">src/qtpasssettings.h</text>
</g>
<!-- Node26 -->
<g id="node2" class="node">
<title>Node26</title>
<g id="a_node2"><a xlink:href="storemodel_8h.html" target="_top" xlink:title="src/storemodel.h">
<polygon fill="none" stroke="#000000" points="325.1084,-230.5 325.1084,-248.5 415.0244,-248.5 415.0244,-230.5 325.1084,-230.5"/>
<text text-anchor="middle" x="370.0664" y="-236.5" font-family="Helvetica,sans-Serif" font-size="10.00" fill="#000000">src/storemodel.h</text>
</a>
</g>
</g>
<!-- Node25&#45;&gt;Node26 -->
<g id="edge1" class="edge">
<title>Node25&#45;&gt;Node26</title>
<path fill="none" stroke="#191970" d="M710.8821,-286.0133C629.0875,-274.8503 487.3007,-255.4997 415.1085,-245.6472"/>
<polygon fill="#191970" stroke="#191970" points="710.4129,-289.4816 720.7943,-287.3661 711.3595,-282.5459 710.4129,-289.4816"/>
</g>
<!-- Node30 -->
<g id="node6" class="node">
<title>Node30</title>
<g id="a_node6"><a xlink:href="configdialog_8cpp.html" target="_top" xlink:title="src/configdialog.cpp">
<polygon fill="none" stroke="#000000" points="715.8745,-.5 715.8745,-18.5 820.2583,-18.5 820.2583,-.5 715.8745,-.5"/>
<text text-anchor="middle" x="768.0664" y="-6.5" font-family="Helvetica,sans-Serif" font-size="10.00" fill="#000000">src/configdialog.cpp</text>
</a>
</g>
</g>
<!-- Node25&#45;&gt;Node30 -->
<g id="edge21" class="edge">
<title>Node25&#45;&gt;Node30</title>
<path fill="none" stroke="#191970" d="M772.7253,-275.0576C771.7434,-219.0873 768.9351,-59.0139 768.229,-18.7688"/>
<polygon fill="#191970" stroke="#191970" points="769.2307,-275.4033 772.9057,-285.3403 776.2297,-275.2804 769.2307,-275.4033"/>
</g>
<!-- Node33 -->
<g id="node9" class="node">
<title>Node33</title>
<g id="a_node9"><a xlink:href="mainwindow_8cpp.html" target="_top" xlink:title="src/mainwindow.cpp">
<polygon fill="none" stroke="#000000" points="464.3228,-.5 464.3228,-18.5 569.8101,-18.5 569.8101,-.5 464.3228,-.5"/>
<text text-anchor="middle" x="517.0664" y="-6.5" font-family="Helvetica,sans-Serif" font-size="10.00" fill="#000000">src/mainwindow.cpp</text>
</a>
</g>
</g>
<!-- Node25&#45;&gt;Node33 -->
<g id="edge23" class="edge">
<title>Node25&#45;&gt;Node33</title>
<path fill="none" stroke="#191970" d="M768.5259,-275.3215C758.1513,-232.998 731.6995,-133.4917 707.0664,-110 667.3868,-72.1589 636.8308,-100.9255 589.0664,-74 562.4591,-59.0011 537.293,-32.7284 524.967,-18.7927"/>
<polygon fill="#191970" stroke="#191970" points="765.162,-276.3023 770.9092,-285.2028 771.9669,-274.6609 765.162,-276.3023"/>
</g>
<!-- Node36 -->
<g id="node12" class="node">
<title>Node36</title>
<g id="a_node12"><a xlink:href="pass_8cpp.html" target="_top" xlink:title="src/pass.cpp">
<polygon fill="none" stroke="#000000" points="0,-115.5 0,-133.5 72.1328,-133.5 72.1328,-115.5 0,-115.5"/>
<text text-anchor="middle" x="36.0664" y="-121.5" font-family="Helvetica,sans-Serif" font-size="10.00" fill="#000000">src/pass.cpp</text>
</a>
</g>
</g>
<!-- Node25&#45;&gt;Node36 -->
<g id="edge24" class="edge">
<title>Node25&#45;&gt;Node36</title>
<path fill="none" stroke="#191970" d="M710.5168,-292.2869C592.2222,-287.5586 340.1383,-274.742 257.0664,-249 170.4142,-222.1486 80.1155,-157.8947 48.1481,-133.8198"/>
<polygon fill="#191970" stroke="#191970" points="710.7239,-295.7976 720.8537,-292.693 710.9988,-288.803 710.7239,-295.7976"/>
</g>
<!-- Node37 -->
<g id="node13" class="node">
<title>Node37</title>
<g id="a_node13"><a xlink:href="util_8cpp.html" target="_top" xlink:title="src/util.cpp">
<polygon fill="none" stroke="#000000" points="90.1699,-115.5 90.1699,-133.5 153.9629,-133.5 153.9629,-115.5 90.1699,-115.5"/>
<text text-anchor="middle" x="122.0664" y="-121.5" font-family="Helvetica,sans-Serif" font-size="10.00" fill="#000000">src/util.cpp</text>
</a>
</g>
</g>
<!-- Node25&#45;&gt;Node37 -->
<g id="edge28" class="edge">
<title>Node25&#45;&gt;Node37</title>
<path fill="none" stroke="#191970" d="M710.6992,-290.9919C603.4599,-284.5098 388.6522,-269.431 316.0664,-249 261.9155,-233.7579 249.0477,-224.9419 202.0664,-194 174.1019,-175.5826 145.4649,-148.2249 131.2457,-133.9477"/>
<polygon fill="#191970" stroke="#191970" points="710.5418,-294.4886 720.733,-291.5922 710.96,-287.5011 710.5418,-294.4886"/>
</g>
<!-- Node40 -->
<g id="node16" class="node">
<title>Node40</title>
<g id="a_node16"><a xlink:href="imitatepass_8cpp.html" target="_top" xlink:title="src/imitatepass.cpp">
<polygon fill="none" stroke="#000000" points="801.2734,-230.5 801.2734,-248.5 902.8594,-248.5 902.8594,-230.5 801.2734,-230.5"/>
<text text-anchor="middle" x="852.0664" y="-236.5" font-family="Helvetica,sans-Serif" font-size="10.00" fill="#000000">src/imitatepass.cpp</text>
</a>
</g>
</g>
<!-- Node25&#45;&gt;Node40 -->
<g id="edge22" class="edge">
<title>Node25&#45;&gt;Node40</title>
<path fill="none" stroke="#191970" d="M794.363,-279.6733C808.5994,-269.7619 826.8736,-257.0393 839.0018,-248.5956"/>
<polygon fill="#191970" stroke="#191970" points="792.3188,-276.8317 786.1116,-285.4179 796.3184,-282.5766 792.3188,-276.8317"/>
</g>
<!-- Node41 -->
<g id="node17" class="node">
<title>Node41</title>
<g id="a_node17"><a xlink:href="passworddialog_8cpp.html" target="_top" xlink:title="src/passworddialog.cpp">
<polygon fill="none" stroke="#000000" points="920.8179,-230.5 920.8179,-248.5 1041.3149,-248.5 1041.3149,-230.5 920.8179,-230.5"/>
<text text-anchor="middle" x="981.0664" y="-236.5" font-family="Helvetica,sans-Serif" font-size="10.00" fill="#000000">src/passworddialog.cpp</text>
</a>
</g>
</g>
<!-- Node25&#45;&gt;Node41 -->
<g id="edge25" class="edge">
<title>Node25&#45;&gt;Node41</title>
<path fill="none" stroke="#191970" d="M817.3793,-282.7826C856.1468,-272.5316 911.6419,-257.8575 947.0141,-248.5042"/>
<polygon fill="#191970" stroke="#191970" points="816.1864,-279.4777 807.4134,-285.4179 817.9759,-286.2451 816.1864,-279.4777"/>
</g>
<!-- Node42 -->
<g id="node18" class="node">
<title>Node42</title>
<g id="a_node18"><a xlink:href="qtpasssettings_8cpp.html" target="_top" xlink:title="src/qtpasssettings.cpp">
<polygon fill="none" stroke="#000000" points="1059.5986,-230.5 1059.5986,-248.5 1174.5342,-248.5 1174.5342,-230.5 1059.5986,-230.5"/>
<text text-anchor="middle" x="1117.0664" y="-236.5" font-family="Helvetica,sans-Serif" font-size="10.00" fill="#000000">src/qtpasssettings.cpp</text>
</a>
</g>
</g>
<!-- Node25&#45;&gt;Node42 -->
<g id="edge26" class="edge">
<title>Node25&#45;&gt;Node42</title>
<path fill="none" stroke="#191970" d="M835.2992,-284.55C899.4651,-274.2909 998.6395,-258.4345 1060.6034,-248.5275"/>
<polygon fill="#191970" stroke="#191970" points="834.6346,-281.1117 825.3126,-286.1467 835.7398,-288.0239 834.6346,-281.1117"/>
</g>
<!-- Node43 -->
<g id="node19" class="node">
<title>Node43</title>
<g id="a_node19"><a xlink:href="realpass_8cpp.html" target="_top" xlink:title="src/realpass.cpp">
<polygon fill="none" stroke="#000000" points="1192.6626,-230.5 1192.6626,-248.5 1281.4702,-248.5 1281.4702,-230.5 1192.6626,-230.5"/>
<text text-anchor="middle" x="1237.0664" y="-236.5" font-family="Helvetica,sans-Serif" font-size="10.00" fill="#000000">src/realpass.cpp</text>
</a>
</g>
</g>
<!-- Node25&#45;&gt;Node43 -->
<g id="edge27" class="edge">
<title>Node25&#45;&gt;Node43</title>
<path fill="none" stroke="#191970" d="M835.2688,-288.8396C915.739,-281.2323 1060.1825,-266.6096 1183.0664,-249 1186.1759,-248.5544 1189.381,-248.0658 1192.6055,-247.5528"/>
<polygon fill="#191970" stroke="#191970" points="834.9299,-285.356 825.3015,-289.7769 835.5853,-292.3252 834.9299,-285.356"/>
</g>
<!-- Node27 -->
<g id="node3" class="node">
<title>Node27</title>
<g id="a_node3"><a xlink:href="mainwindow_8h.html" target="_top" xlink:title="src/mainwindow.h">
<polygon fill="none" stroke="#000000" points="458.6035,-175.5 458.6035,-193.5 553.5293,-193.5 553.5293,-175.5 458.6035,-175.5"/>
<text text-anchor="middle" x="506.0664" y="-181.5" font-family="Helvetica,sans-Serif" font-size="10.00" fill="#000000">src/mainwindow.h</text>
</a>
</g>
</g>
<!-- Node26&#45;&gt;Node27 -->
<g id="edge2" class="edge">
<title>Node26&#45;&gt;Node27</title>
<path fill="none" stroke="#191970" d="M401.9694,-226.598C427.0359,-216.4609 461.3177,-202.5969 483.5754,-193.5956"/>
<polygon fill="#191970" stroke="#191970" points="400.4824,-223.424 392.524,-230.4179 403.1069,-229.9134 400.4824,-223.424"/>
</g>
<!-- Node35 -->
<g id="node11" class="node">
<title>Node35</title>
<g id="a_node11"><a xlink:href="util_8h.html" target="_top" xlink:title="src/util.h">
<polygon fill="none" stroke="#000000" points="211.4507,-175.5 211.4507,-193.5 264.6821,-193.5 264.6821,-175.5 211.4507,-175.5"/>
<text text-anchor="middle" x="238.0664" y="-181.5" font-family="Helvetica,sans-Serif" font-size="10.00" fill="#000000">src/util.h</text>
</a>
</g>
</g>
<!-- Node26&#45;&gt;Node35 -->
<g id="edge14" class="edge">
<title>Node26&#45;&gt;Node35</title>
<path fill="none" stroke="#191970" d="M333.6217,-226.7324C307.8171,-216.5837 274.5555,-202.6367 254.7268,-193.5956"/>
<polygon fill="#191970" stroke="#191970" points="332.5143,-230.057 343.103,-230.4179 335.0505,-223.5326 332.5143,-230.057"/>
</g>
<!-- Node39 -->
<g id="node15" class="node">
<title>Node39</title>
<g id="a_node15"><a xlink:href="storemodel_8cpp.html" target="_top" xlink:title="src/storemodel.cpp">
<polygon fill="none" stroke="#000000" points="319.8276,-175.5 319.8276,-193.5 420.3052,-193.5 420.3052,-175.5 319.8276,-175.5"/>
<text text-anchor="middle" x="370.0664" y="-181.5" font-family="Helvetica,sans-Serif" font-size="10.00" fill="#000000">src/storemodel.cpp</text>
</a>
</g>
</g>
<!-- Node26&#45;&gt;Node39 -->
<g id="edge20" class="edge">
<title>Node26&#45;&gt;Node39</title>
<path fill="none" stroke="#191970" d="M370.0664,-220.383C370.0664,-211.3738 370.0664,-201.0373 370.0664,-193.7795"/>
<polygon fill="#191970" stroke="#191970" points="366.5665,-220.4178 370.0664,-230.4179 373.5665,-220.4179 366.5665,-220.4178"/>
</g>
<!-- Node28 -->
<g id="node4" class="node">
<title>Node28</title>
<g id="a_node4"><a xlink:href="main_8cpp.html" target="_top" xlink:title="main/main.cpp">
<polygon fill="none" stroke="#000000" points="505.5518,-115.5 505.5518,-133.5 586.5811,-133.5 586.5811,-115.5 505.5518,-115.5"/>
<text text-anchor="middle" x="546.0664" y="-121.5" font-family="Helvetica,sans-Serif" font-size="10.00" fill="#000000">main/main.cpp</text>
</a>
</g>
</g>
<!-- Node27&#45;&gt;Node28 -->
<g id="edge3" class="edge">
<title>Node27&#45;&gt;Node28</title>
<path fill="none" stroke="#191970" d="M517.7147,-167.0276C524.9809,-156.1282 534.0399,-142.5397 539.9341,-133.6985"/>
<polygon fill="#191970" stroke="#191970" points="514.7764,-165.1253 512.1415,-175.3873 520.6008,-169.0082 514.7764,-165.1253"/>
</g>
<!-- Node29 -->
<g id="node5" class="node">
<title>Node29</title>
<g id="a_node5"><a xlink:href="configdialog_8h.html" target="_top" xlink:title="src/configdialog.h">
<polygon fill="none" stroke="#000000" points="604.1553,-115.5 604.1553,-133.5 697.9775,-133.5 697.9775,-115.5 604.1553,-115.5"/>
<text text-anchor="middle" x="651.0664" y="-121.5" font-family="Helvetica,sans-Serif" font-size="10.00" fill="#000000">src/configdialog.h</text>
</a>
</g>
</g>
<!-- Node27&#45;&gt;Node29 -->
<g id="edge4" class="edge">
<title>Node27&#45;&gt;Node29</title>
<path fill="none" stroke="#191970" d="M537.3549,-171.553C565.1005,-160.0721 604.9031,-143.6021 629.3119,-133.5019"/>
<polygon fill="#191970" stroke="#191970" points="535.9907,-168.3297 528.0888,-175.3873 538.6672,-174.7978 535.9907,-168.3297"/>
</g>
<!-- Node27&#45;&gt;Node30 -->
<g id="edge11" class="edge">
<title>Node27&#45;&gt;Node30</title>
<path fill="none" stroke="#191970" d="M563.6012,-177.1762C614.9232,-169.6417 685.2283,-156.5371 707.0664,-139 746.9836,-106.9444 762.1579,-42.6242 766.5626,-18.7219"/>
<polygon fill="#191970" stroke="#191970" points="563.012,-173.7248 553.6099,-178.6085 564.0054,-180.654 563.012,-173.7248"/>
</g>
<!-- Node27&#45;&gt;Node33 -->
<g id="edge13" class="edge">
<title>Node27&#45;&gt;Node33</title>
<path fill="none" stroke="#191970" d="M448.3185,-175.6614C407.446,-168.0886 357.735,-155.745 345.0664,-139 337.29,-128.7213 338.651,-121.1788 345.0664,-110 374.4172,-58.8564 440.967,-31.2582 482.1463,-18.5283"/>
<polygon fill="#191970" stroke="#191970" points="447.7619,-179.1174 458.2226,-177.4371 448.9972,-172.2272 447.7619,-179.1174"/>
</g>
<!-- Node34 -->
<g id="node10" class="node">
<title>Node34</title>
<g id="a_node10"><a xlink:href="deselectabletreeview_8h.html" target="_top" xlink:title="src/deselectabletreeview.h">
<polygon fill="none" stroke="#000000" points="354.4214,-115.5 354.4214,-133.5 487.7114,-133.5 487.7114,-115.5 354.4214,-115.5"/>
<text text-anchor="middle" x="421.0664" y="-121.5" font-family="Helvetica,sans-Serif" font-size="10.00" fill="#000000">src/deselectabletreeview.h</text>
</a>
</g>
</g>
<!-- Node27&#45;&gt;Node34 -->
<g id="edge12" class="edge">
<title>Node27&#45;&gt;Node34</title>
<path fill="none" stroke="#191970" d="M484.8895,-169.5516C468.8402,-158.2227 447.3154,-143.0287 433.8191,-133.5019"/>
<polygon fill="#191970" stroke="#191970" points="482.9686,-172.4798 493.1567,-175.3873 487.0054,-166.761 482.9686,-172.4798"/>
</g>
<!-- Node29&#45;&gt;Node30 -->
<g id="edge5" class="edge">
<title>Node29&#45;&gt;Node30</title>
<path fill="none" stroke="#191970" d="M669.3858,-108.6378C680.4889,-98.8633 694.8259,-85.9536 707.0664,-74 726.4736,-55.0477 748.0279,-31.6685 759.6041,-18.9073"/>
<polygon fill="#191970" stroke="#191970" points="666.8381,-106.2162 661.6139,-115.4335 671.4458,-111.4858 666.8381,-106.2162"/>
</g>
<!-- Node31 -->
<g id="node7" class="node">
<title>Node31</title>
<g id="a_node7"><a xlink:href="keygendialog_8h.html" target="_top" xlink:title="src/keygendialog.h">
<polygon fill="none" stroke="#000000" points="598.3745,-55.5 598.3745,-73.5 697.7583,-73.5 697.7583,-55.5 598.3745,-55.5"/>
<text text-anchor="middle" x="648.0664" y="-61.5" font-family="Helvetica,sans-Serif" font-size="10.00" fill="#000000">src/keygendialog.h</text>
</a>
</g>
</g>
<!-- Node29&#45;&gt;Node31 -->
<g id="edge6" class="edge">
<title>Node29&#45;&gt;Node31</title>
<path fill="none" stroke="#191970" d="M650.1101,-105.3734C649.5805,-94.7812 648.9463,-82.0976 648.5263,-73.6985"/>
<polygon fill="#191970" stroke="#191970" points="646.6157,-105.5746 650.6108,-115.3873 653.6069,-105.225 646.6157,-105.5746"/>
</g>
<!-- Node29&#45;&gt;Node33 -->
<g id="edge10" class="edge">
<title>Node29&#45;&gt;Node33</title>
<path fill="none" stroke="#191970" d="M616.3475,-111.4674C596.9842,-102.9519 573.3601,-90.3638 556.0664,-74 538.9573,-57.8109 526.6269,-32.4999 520.8136,-18.8983"/>
<polygon fill="#191970" stroke="#191970" points="615.1717,-114.77 625.7458,-115.4332 617.8932,-108.3207 615.1717,-114.77"/>
</g>
<!-- Node31&#45;&gt;Node30 -->
<g id="edge7" class="edge">
<title>Node31&#45;&gt;Node30</title>
<path fill="none" stroke="#191970" d="M677.1012,-51.1924C699.1348,-41.0937 728.843,-27.4774 748.2214,-18.5956"/>
<polygon fill="#191970" stroke="#191970" points="675.5143,-48.0695 667.882,-55.4179 678.4309,-54.433 675.5143,-48.0695"/>
</g>
<!-- Node32 -->
<g id="node8" class="node">
<title>Node32</title>
<g id="a_node8"><a xlink:href="keygendialog_8cpp.html" target="_top" xlink:title="src/keygendialog.cpp">
<polygon fill="none" stroke="#000000" points="588.0938,-.5 588.0938,-18.5 698.0391,-18.5 698.0391,-.5 588.0938,-.5"/>
<text text-anchor="middle" x="643.0664" y="-6.5" font-family="Helvetica,sans-Serif" font-size="10.00" fill="#000000">src/keygendialog.cpp</text>
</a>
</g>
</g>
<!-- Node31&#45;&gt;Node32 -->
<g id="edge8" class="edge">
<title>Node31&#45;&gt;Node32</title>
<path fill="none" stroke="#191970" d="M646.3285,-45.383C645.5095,-36.3738 644.5698,-26.0373 643.91,-18.7795"/>
<polygon fill="#191970" stroke="#191970" points="642.8497,-45.7758 647.2408,-55.4179 649.8209,-45.142 642.8497,-45.7758"/>
</g>
<!-- Node31&#45;&gt;Node33 -->
<g id="edge9" class="edge">
<title>Node31&#45;&gt;Node33</title>
<path fill="none" stroke="#191970" d="M617.0153,-51.4633C592.8994,-41.3383 560.075,-27.5571 538.7305,-18.5956"/>
<polygon fill="#191970" stroke="#191970" points="615.8592,-54.7738 626.4344,-55.4179 618.569,-48.3196 615.8592,-54.7738"/>
</g>
<!-- Node35&#45;&gt;Node26 -->
<g id="edge15" class="edge">
<title>Node35&#45;&gt;Node26</title>
<path fill="none" stroke="#191970" d="M274.5496,-197.2828C300.3617,-207.4353 333.6203,-221.3817 353.4356,-230.4179"/>
<polygon fill="#191970" stroke="#191970" points="275.6537,-193.9569 265.065,-193.5956 273.1173,-200.4812 275.6537,-193.9569"/>
</g>
<!-- Node35&#45;&gt;Node33 -->
<g id="edge16" class="edge">
<title>Node35&#45;&gt;Node33</title>
<path fill="none" stroke="#191970" d="M219.9101,-168.0749C204.7708,-152.3561 187.6665,-128.3858 201.0664,-110 232.3883,-67.0236 383.081,-33.735 464.5365,-18.5343"/>
<polygon fill="#191970" stroke="#191970" points="217.8779,-170.9827 227.4759,-175.4694 222.7707,-165.9766 217.8779,-170.9827"/>
</g>
<!-- Node35&#45;&gt;Node36 -->
<g id="edge17" class="edge">
<title>Node35&#45;&gt;Node36</title>
<path fill="none" stroke="#191970" d="M201.5525,-174.2491C169.6746,-165.2208 122.2043,-151.5858 81.0664,-139 75.4152,-137.271 69.3832,-135.3677 63.6316,-133.5247"/>
<polygon fill="#191970" stroke="#191970" points="200.7518,-177.6599 211.3268,-177.0113 202.6555,-170.9237 200.7518,-177.6599"/>
</g>
<!-- Node35&#45;&gt;Node37 -->
<g id="edge18" class="edge">
<title>Node35&#45;&gt;Node37</title>
<path fill="none" stroke="#191970" d="M211.2714,-170.6405C189.179,-159.2134 158.4855,-143.3374 139.47,-133.5019"/>
<polygon fill="#191970" stroke="#191970" points="209.9583,-173.9018 220.4485,-175.3873 213.1743,-167.6842 209.9583,-173.9018"/>
</g>
<!-- Node38 -->
<g id="node14" class="node">
<title>Node38</title>
<g id="a_node14"><a xlink:href="tst__util_8cpp.html" target="_top" xlink:title="tests/auto/util/tst\l_util.cpp">
<polygon fill="none" stroke="#000000" points="209.9385,-110.5 209.9385,-138.5 298.1943,-138.5 298.1943,-110.5 209.9385,-110.5"/>
<text text-anchor="start" x="217.9385" y="-126.5" font-family="Helvetica,sans-Serif" font-size="10.00" fill="#000000">tests/auto/util/tst</text>
<text text-anchor="middle" x="254.0664" y="-116.5" font-family="Helvetica,sans-Serif" font-size="10.00" fill="#000000">_util.cpp</text>
</a>
</g>
</g>
<!-- Node35&#45;&gt;Node38 -->
<g id="edge19" class="edge">
<title>Node35&#45;&gt;Node38</title>
<path fill="none" stroke="#191970" d="M243.1399,-165.4745C245.4395,-156.8509 248.1133,-146.824 250.2404,-138.8477"/>
<polygon fill="#191970" stroke="#191970" points="239.6913,-164.8231 240.4965,-175.3873 246.455,-166.6268 239.6913,-164.8231"/>
</g>
</g>
</svg>
        <g id="navigator" transform="translate(0 0)" fill="#404254">
                <rect fill="#f2f5e9" fill-opacity="0.5" stroke="#606060" stroke-width=".5" x="0" y="0" width="60" height="60"/>
                <use id="zoomplus" xlink:href="#zoomPlus" x="17" y="9" onmousedown="handleZoom(evt,'in')"/>
                <use id="zoomminus" xlink:href="#zoomMin" x="42" y="9" onmousedown="handleZoom(evt,'out')"/>
                <use id="reset" xlink:href="#resetDef" x="30" y="36" onmousedown="handleReset()"/>
                <g id="arrowUp" xlink:href="#dirArrow" transform="translate(30 24)" onmousedown="handlePan(0,-1)">
                  <use xlink:href="#rim" fill="#404040">
                        <set attributeName="fill" to="#808080" begin="arrowUp.mouseover" end="arrowUp.mouseout"/>
                  </use>
                  <path fill="none" stroke="white" stroke-width="1.5" d="M0,-3.0v7 M-2.5,-0.5L0,-3.0L2.5,-0.5"/>
                </g>
                <g id="arrowRight" xlink:href="#dirArrow" transform="rotate(90) translate(36 -43)" onmousedown="handlePan(1,0)">
                  <use xlink:href="#rim" fill="#404040">
                        <set attributeName="fill" to="#808080" begin="arrowRight.mouseover" end="arrowRight.mouseout"/>
                  </use>
                  <path fill="none" stroke="white" stroke-width="1.5" d="M0,-3.0v7 M-2.5,-0.5L0,-3.0L2.5,-0.5"/>
                </g>
                <g id="arrowDown" xlink:href="#dirArrow" transform="rotate(180) translate(-30 -48)" onmousedown="handlePan(0,1)">
                  <use xlink:href="#rim" fill="#404040">
                        <set attributeName="fill" to="#808080" begin="arrowDown.mouseover" end="arrowDown.mouseout"/>
                  </use>
                  <path fill="none" stroke="white" stroke-width="1.5" d="M0,-3.0v7 M-2.5,-0.5L0,-3.0L2.5,-0.5"/>
                </g>
                <g id="arrowLeft" xlink:href="#dirArrow" transform="rotate(270) translate(-36 17)" onmousedown="handlePan(-1,0)">
                  <use xlink:href="#rim" fill="#404040">
                        <set attributeName="fill" to="#808080" begin="arrowLeft.mouseover" end="arrowLeft.mouseout"/>
                  </use>
                  <path fill="none" stroke="white" stroke-width="1.5" d="M0,-3.0v7 M-2.5,-0.5L0,-3.0L2.5,-0.5"/>
                </g>
        </g>
        <svg viewBox="0 0 15 15" width="100%" height="30px" preserveAspectRatio="xMaxYMin meet">
         <g id="arrow_out" transform="scale(0.3 0.3)">
          <a xlink:href="qtpasssettings_8h__dep__incl_org.svg" target="_base">
           <rect id="button" ry="5" rx="5" y="6" x="6" height="38" width="38"
                fill="#f2f5e9" fill-opacity="0.5" stroke="#606060" stroke-width="1.0"/>
           <path id="arrow"
             d="M 11.500037,31.436501 C 11.940474,20.09759 22.043105,11.32322 32.158766,21.979434 L 37.068811,17.246167 C 37.068811,17.246167 37.088388,32 37.088388,32 L 22.160133,31.978069 C 22.160133,31.978069 26.997745,27.140456 26.997745,27.140456 C 18.528582,18.264221 13.291696,25.230495 11.500037,31.436501 z"
             style="fill:#404040;"/>
          </a>
         </g>
        </svg>
</svg>
