<?xml version="1.0" encoding="UTF-8" standalone="no"?>
<!DOCTYPE svg PUBLIC "-//W3C//DTD SVG 1.1//EN"
 "http://www.w3.org/Graphics/SVG/1.1/DTD/svg11.dtd">
<!-- Generated by graphviz version 2.38.0 (20140413.2041)
 -->
<!-- Title: src/qtpasssettings.h Pages: 1 -->
<svg width="768pt" height="82pt"
 viewBox="0.00 0.00 768.09 82.00" xmlns="http://www.w3.org/2000/svg" xmlns:xlink="http://www.w3.org/1999/xlink">
<g id="graph0" class="graph" transform="scale(1 1) rotate(0) translate(4 78)">
<title>src/qtpasssettings.h</title>
<!-- Node36 -->
<g id="node1" class="node"><title>Node36</title>
<polygon fill="#bfbfbf" stroke="black" points="350.005,-55.5 350.005,-73.5 454.379,-73.5 454.379,-55.5 350.005,-55.5"/>
<text text-anchor="middle" x="402.192" y="-61.5" font-family="Helvetica,sans-Serif" font-size="10.00">src/qtpasssettings.h</text>
</g>
<!-- Node37 -->
<g id="node2" class="node"><title>Node37</title>
<g id="a_node2"><a xlink:href="configdialog_8cpp.html" target="_top" xlink:title="src/configdialog.cpp">
<polygon fill="none" stroke="black" points="0,-0.5 0,-18.5 104.384,-18.5 104.384,-0.5 0,-0.5"/>
<text text-anchor="middle" x="52.1919" y="-6.5" font-family="Helvetica,sans-Serif" font-size="10.00">src/configdialog.cpp</text>
</a>
</g>
</g>
<!-- Node36&#45;&gt;Node37 -->
<g id="edge1" class="edge"><title>Node36&#45;&gt;Node37</title>
<path fill="none" stroke="midnightblue" d="M339.79,-54.0505C272.798,-43.9061 167.545,-27.9678 104.662,-18.4455"/>
<polygon fill="midnightblue" stroke="midnightblue" points="339.382,-57.5286 349.793,-55.5654 340.43,-50.6075 339.382,-57.5286"/>
</g>
<!-- Node38 -->
<g id="node3" class="node"><title>Node38</title>
<g id="a_node3"><a xlink:href="imitatepass_8cpp.html" target="_top" xlink:title="src/imitatepass.cpp">
<polygon fill="none" stroke="black" points="122.399,-0.5 122.399,-18.5 223.985,-18.5 223.985,-0.5 122.399,-0.5"/>
<text text-anchor="middle" x="173.192" y="-6.5" font-family="Helvetica,sans-Serif" font-size="10.00">src/imitatepass.cpp</text>
</a>
</g>
</g>
<!-- Node36&#45;&gt;Node38 -->
<g id="edge2" class="edge"><title>Node36&#45;&gt;Node38</title>
<path fill="none" stroke="midnightblue" d="M357.606,-53.1809C313.825,-43.0484 247.95,-27.8021 207.923,-18.5383"/>
<polygon fill="midnightblue" stroke="midnightblue" points="356.88,-56.6054 367.412,-55.4504 358.458,-49.7857 356.88,-56.6054"/>
</g>
<!-- Node39 -->
<g id="node4" class="node"><title>Node39</title>
<g id="a_node4"><a xlink:href="mainwindow_8cpp.html" target="_top" xlink:title="src/mainwindow.cpp">
<polygon fill="none" stroke="black" points="242.448,-0.5 242.448,-18.5 347.936,-18.5 347.936,-0.5 242.448,-0.5"/>
<text text-anchor="middle" x="295.192" y="-6.5" font-family="Helvetica,sans-Serif" font-size="10.00">src/mainwindow.cpp</text>
</a>
</g>
</g>
<!-- Node36&#45;&gt;Node39 -->
<g id="edge3" class="edge"><title>Node36&#45;&gt;Node39</title>
<path fill="none" stroke="midnightblue" d="M376.707,-50.8765C356.527,-40.8808 328.939,-27.216 311.596,-18.6253"/>
<polygon fill="midnightblue" stroke="midnightblue" points="375.426,-54.1481 385.941,-55.4504 378.533,-47.8754 375.426,-54.1481"/>
</g>
<!-- Node40 -->
<g id="node5" class="node"><title>Node40</title>
<g id="a_node5"><a xlink:href="pass_8cpp.html" target="_top" xlink:title="src/pass.cpp">
<polygon fill="none" stroke="black" points="366.125,-0.5 366.125,-18.5 438.258,-18.5 438.258,-0.5 366.125,-0.5"/>
<text text-anchor="middle" x="402.192" y="-6.5" font-family="Helvetica,sans-Serif" font-size="10.00">src/pass.cpp</text>
</a>
</g>
</g>
<!-- Node36&#45;&gt;Node40 -->
<g id="edge4" class="edge"><title>Node36&#45;&gt;Node40</title>
<path fill="none" stroke="midnightblue" d="M402.192,-45.1746C402.192,-36.0945 402.192,-25.5949 402.192,-18.5496"/>
<polygon fill="midnightblue" stroke="midnightblue" points="398.692,-45.2187 402.192,-55.2188 405.692,-45.2188 398.692,-45.2187"/>
</g>
<!-- Node41 -->
<g id="node6" class="node"><title>Node41</title>
<g id="a_node6"><a xlink:href="qtpasssettings_8cpp.html" target="_top" xlink:title="src/qtpasssettings.cpp">
<polygon fill="none" stroke="black" points="456.724,-0.5 456.724,-18.5 571.66,-18.5 571.66,-0.5 456.724,-0.5"/>
<text text-anchor="middle" x="514.192" y="-6.5" font-family="Helvetica,sans-Serif" font-size="10.00">src/qtpasssettings.cpp</text>
</a>
</g>
</g>
<!-- Node36&#45;&gt;Node41 -->
<g id="edge5" class="edge"><title>Node36&#45;&gt;Node41</title>
<path fill="none" stroke="midnightblue" d="M428.294,-51.1482C449.465,-41.1297 478.702,-27.2941 497.021,-18.6253"/>
<polygon fill="midnightblue" stroke="midnightblue" points="426.744,-48.0093 419.202,-55.4504 429.738,-54.3367 426.744,-48.0093"/>
</g>
<!-- Node42 -->
<g id="node7" class="node"><title>Node42</title>
<g id="a_node7"><a xlink:href="realpass_8cpp.html" target="_top" xlink:title="src/realpass.cpp">
<polygon fill="none" stroke="black" points="589.788,-0.5 589.788,-18.5 678.596,-18.5 678.596,-0.5 589.788,-0.5"/>
<text text-anchor="middle" x="634.192" y="-6.5" font-family="Helvetica,sans-Serif" font-size="10.00">src/realpass.cpp</text>
</a>
</g>
</g>
<!-- Node36&#45;&gt;Node42 -->
<g id="edge6" class="edge"><title>Node36&#45;&gt;Node42</title>
<path fill="none" stroke="midnightblue" d="M447.362,-53.1809C491.716,-43.0484 558.455,-27.8021 599.005,-18.5383"/>
<polygon fill="midnightblue" stroke="midnightblue" points="446.397,-49.8112 437.428,-55.4504 447.956,-56.6354 446.397,-49.8112"/>
</g>
<!-- Node43 -->
<g id="node8" class="node"><title>Node43</title>
<g id="a_node8"><a xlink:href="util_8cpp.html" target="_top" xlink:title="src/util.cpp">
<polygon fill="none" stroke="black" points="696.295,-0.5 696.295,-18.5 760.088,-18.5 760.088,-0.5 696.295,-0.5"/>
<text text-anchor="middle" x="728.192" y="-6.5" font-family="Helvetica,sans-Serif" font-size="10.00">src/util.cpp</text>
</a>
</g>
</g>
<!-- Node36&#45;&gt;Node43 -->
<g id="edge7" class="edge"><title>Node36&#45;&gt;Node43</title>
<path fill="none" stroke="midnightblue" d="M464.669,-54.6539C522.511,-46.2487 610.845,-32.8655 687.192,-19 690.053,-18.4804 693.021,-17.9157 695.992,-17.3326"/>
<polygon fill="midnightblue" stroke="midnightblue" points="463.985,-51.2164 454.589,-56.1131 464.988,-58.1442 463.985,-51.2164"/>
</g>
</g>
</svg>
