<?xml version="1.0" encoding="UTF-8" standalone="no"?>
<!DOCTYPE svg PUBLIC "-//W3C//DTD SVG 1.1//EN"
 "http://www.w3.org/Graphics/SVG/1.1/DTD/svg11.dtd">
<!-- Generated by graphviz version 2.40.1 (20161225.0304)
 -->
<!-- Title: src/qtpass.h Pages: 1 -->
<svg width="205pt" height="82pt"
 viewBox="0.00 0.00 204.82 82.00" xmlns="http://www.w3.org/2000/svg" xmlns:xlink="http://www.w3.org/1999/xlink">
<g id="graph0" class="graph" transform="scale(1 1) rotate(0) translate(4 78)">
<title>src/qtpass.h</title>
<!-- Node0 -->
<g id="node1" class="node">
<title>Node0</title>
<polygon fill="#bfbfbf" stroke="#000000" points="65.3843,-55.5 65.3843,-73.5 135.2954,-73.5 135.2954,-55.5 65.3843,-55.5"/>
<text text-anchor="middle" x="100.3398" y="-61.5" font-family="Helvetica,sans-Serif" font-size="10.00" fill="#000000">src/qtpass.h</text>
</g>
<!-- Node1 -->
<g id="node2" class="node">
<title>Node1</title>
<polygon fill="none" stroke="#bfbfbf" points="0,-.5 0,-18.5 52.6797,-18.5 52.6797,-.5 0,-.5"/>
<text text-anchor="middle" x="26.3398" y="-6.5" font-family="Helvetica,sans-Serif" font-size="10.00" fill="#000000">QObject</text>
</g>
<!-- Node0&#45;&gt;Node1 -->
<g id="edge1" class="edge">
<title>Node0&#45;&gt;Node1</title>
<path fill="none" stroke="#191970" d="M88.1202,-55.4179C76.8729,-47.0584 59.9717,-34.4966 46.6884,-24.6239"/>
<polygon fill="#191970" stroke="#191970" points="48.6914,-21.7518 38.5776,-18.5956 44.5157,-27.37 48.6914,-21.7518"/>
</g>
<!-- Node2 -->
<g id="node3" class="node">
<title>Node2</title>
<polygon fill="none" stroke="#bfbfbf" points="70.3892,-.5 70.3892,-18.5 130.2905,-18.5 130.2905,-.5 70.3892,-.5"/>
<text text-anchor="middle" x="100.3398" y="-6.5" font-family="Helvetica,sans-Serif" font-size="10.00" fill="#000000">QProcess</text>
</g>
<!-- Node0&#45;&gt;Node2 -->
<g id="edge2" class="edge">
<title>Node0&#45;&gt;Node2</title>
<path fill="none" stroke="#191970" d="M100.3398,-55.4179C100.3398,-48.2164 100.3398,-37.8962 100.3398,-28.8632"/>
<polygon fill="#191970" stroke="#191970" points="103.8399,-28.7794 100.3398,-18.7795 96.8399,-28.7795 103.8399,-28.7794"/>
</g>
<!-- Node3 -->
<g id="node4" class="node">
<title>Node3</title>
<polygon fill="none" stroke="#bfbfbf" points="147.8579,-.5 147.8579,-18.5 196.8218,-18.5 196.8218,-.5 147.8579,-.5"/>
<text text-anchor="middle" x="172.3398" y="-6.5" font-family="Helvetica,sans-Serif" font-size="10.00" fill="#000000">QTimer</text>
</g>
<!-- Node0&#45;&gt;Node3 -->
<g id="edge3" class="edge">
<title>Node0&#45;&gt;Node3</title>
<path fill="none" stroke="#191970" d="M112.2292,-55.4179C123.0034,-47.1876 139.11,-34.8839 151.9396,-25.0836"/>
<polygon fill="#191970" stroke="#191970" points="154.3701,-27.6313 160.1922,-18.7795 150.1208,-22.0685 154.3701,-27.6313"/>
</g>
</g>
</svg>
