<?xml version="1.0" encoding="UTF-8" standalone="no"?>
<!DOCTYPE svg PUBLIC "-//W3C//DTD SVG 1.1//EN"
 "http://www.w3.org/Graphics/SVG/1.1/DTD/svg11.dtd">
<!-- Generated by graphviz version 2.38.0 (20140413.2041)
 -->
<!-- Title: qtpasssettings.h Pages: 1 -->
<svg width="1955pt" height="302pt"
 viewBox="0.00 0.00 1955.29 302.00" xmlns="http://www.w3.org/2000/svg" xmlns:xlink="http://www.w3.org/1999/xlink">
<g id="graph0" class="graph" transform="scale(1 1) rotate(0) translate(4 298)">
<title>qtpasssettings.h</title>
<!-- Node0 -->
<g id="node1" class="node"><title>Node0</title>
<polygon fill="#bfbfbf" stroke="black" points="391.707,-275.5 391.707,-293.5 479.973,-293.5 479.973,-275.5 391.707,-275.5"/>
<text text-anchor="middle" x="435.84" y="-281.5" font-family="Helvetica,sans-Serif" font-size="10.00">qtpasssettings.h</text>
</g>
<!-- Node1 -->
<g id="node2" class="node"><title>Node1</title>
<polygon fill="none" stroke="#bfbfbf" points="0,-220.5 0,-238.5 67.6797,-238.5 67.6797,-220.5 0,-220.5"/>
<text text-anchor="middle" x="33.8398" y="-226.5" font-family="Helvetica,sans-Serif" font-size="10.00">QByteArray</text>
</g>
<!-- Node0&#45;&gt;Node1 -->
<g id="edge1" class="edge"><title>Node0&#45;&gt;Node1</title>
<path fill="none" stroke="midnightblue" d="M391.481,-279.038C325.393,-272.163 196.966,-257.931 78.0707,-239.096"/>
<polygon fill="midnightblue" stroke="midnightblue" points="78.4947,-235.619 68.0675,-237.496 77.3895,-242.531 78.4947,-235.619"/>
</g>
<!-- Node2 -->
<g id="node3" class="node"><title>Node2</title>
<polygon fill="none" stroke="#bfbfbf" points="85.6528,-220.5 85.6528,-238.5 180.027,-238.5 180.027,-220.5 85.6528,-220.5"/>
<text text-anchor="middle" x="132.84" y="-226.5" font-family="Helvetica,sans-Serif" font-size="10.00">QCoreApplication</text>
</g>
<!-- Node0&#45;&gt;Node2 -->
<g id="edge2" class="edge"><title>Node0&#45;&gt;Node2</title>
<path fill="none" stroke="midnightblue" d="M391.457,-275.737C337.803,-266.352 247.454,-250.548 189.001,-240.324"/>
<polygon fill="midnightblue" stroke="midnightblue" points="189.286,-236.82 178.832,-238.545 188.079,-243.716 189.286,-236.82"/>
</g>
<!-- Node3 -->
<g id="node4" class="node"><title>Node3</title>
<polygon fill="none" stroke="#bfbfbf" points="197.564,-220.5 197.564,-238.5 234.116,-238.5 234.116,-220.5 197.564,-220.5"/>
<text text-anchor="middle" x="215.84" y="-226.5" font-family="Helvetica,sans-Serif" font-size="10.00">QDir</text>
</g>
<!-- Node0&#45;&gt;Node3 -->
<g id="edge3" class="edge"><title>Node0&#45;&gt;Node3</title>
<path fill="none" stroke="midnightblue" d="M396.801,-275.439C359.721,-267.574 302.224,-254.84 244.087,-239.186"/>
<polygon fill="midnightblue" stroke="midnightblue" points="244.943,-235.792 234.375,-236.545 243.106,-242.547 244.943,-235.792"/>
</g>
<!-- Node4 -->
<g id="node5" class="node"><title>Node4</title>
<polygon fill="none" stroke="#bfbfbf" points="251.894,-220.5 251.894,-238.5 291.786,-238.5 291.786,-220.5 251.894,-220.5"/>
<text text-anchor="middle" x="271.84" y="-226.5" font-family="Helvetica,sans-Serif" font-size="10.00">QFile</text>
</g>
<!-- Node0&#45;&gt;Node4 -->
<g id="edge4" class="edge"><title>Node0&#45;&gt;Node4</title>
<path fill="none" stroke="midnightblue" d="M410.932,-275.45C381.628,-265.98 333.012,-250.269 301.71,-240.153"/>
<polygon fill="midnightblue" stroke="midnightblue" points="302.403,-236.699 291.811,-236.954 300.25,-243.36 302.403,-236.699"/>
</g>
<!-- Node5 -->
<g id="node6" class="node"><title>Node5</title>
<polygon fill="none" stroke="#bfbfbf" points="310.278,-220.5 310.278,-238.5 357.401,-238.5 357.401,-220.5 310.278,-220.5"/>
<text text-anchor="middle" x="333.84" y="-226.5" font-family="Helvetica,sans-Serif" font-size="10.00">QHash</text>
</g>
<!-- Node0&#45;&gt;Node5 -->
<g id="edge5" class="edge"><title>Node0&#45;&gt;Node5</title>
<path fill="none" stroke="midnightblue" d="M420.348,-275.45C403.948,-266.929 377.821,-253.353 358.568,-243.349"/>
<polygon fill="midnightblue" stroke="midnightblue" points="359.965,-240.13 349.477,-238.625 356.737,-246.342 359.965,-240.13"/>
</g>
<!-- Node6 -->
<g id="node7" class="node"><title>Node6</title>
<polygon fill="none" stroke="#bfbfbf" points="375.5,-220.5 375.5,-238.5 428.18,-238.5 428.18,-220.5 375.5,-220.5"/>
<text text-anchor="middle" x="401.84" y="-226.5" font-family="Helvetica,sans-Serif" font-size="10.00">QObject</text>
</g>
<!-- Node0&#45;&gt;Node6 -->
<g id="edge6" class="edge"><title>Node0&#45;&gt;Node6</title>
<path fill="none" stroke="midnightblue" d="M430.527,-275.219C425.709,-267.707 418.462,-256.411 412.458,-247.052"/>
<polygon fill="midnightblue" stroke="midnightblue" points="415.349,-245.077 407.004,-238.55 409.457,-248.856 415.349,-245.077"/>
</g>
<!-- Node7 -->
<g id="node8" class="node"><title>Node7</title>
<polygon fill="none" stroke="#bfbfbf" points="446.554,-220.5 446.554,-238.5 493.125,-238.5 493.125,-220.5 446.554,-220.5"/>
<text text-anchor="middle" x="469.84" y="-226.5" font-family="Helvetica,sans-Serif" font-size="10.00">QPoint</text>
</g>
<!-- Node0&#45;&gt;Node7 -->
<g id="edge7" class="edge"><title>Node0&#45;&gt;Node7</title>
<path fill="none" stroke="midnightblue" d="M441.152,-275.219C445.971,-267.707 453.218,-256.411 459.222,-247.052"/>
<polygon fill="midnightblue" stroke="midnightblue" points="462.222,-248.856 464.676,-238.55 456.33,-245.077 462.222,-248.856"/>
</g>
<!-- Node8 -->
<g id="node9" class="node"><title>Node8</title>
<polygon fill="none" stroke="#bfbfbf" points="510.884,-220.5 510.884,-238.5 570.795,-238.5 570.795,-220.5 510.884,-220.5"/>
<text text-anchor="middle" x="540.84" y="-226.5" font-family="Helvetica,sans-Serif" font-size="10.00">QSettings</text>
</g>
<!-- Node0&#45;&gt;Node8 -->
<g id="edge8" class="edge"><title>Node0&#45;&gt;Node8</title>
<path fill="none" stroke="midnightblue" d="M451.787,-275.45C468.747,-266.89 495.811,-253.229 515.656,-243.212"/>
<polygon fill="midnightblue" stroke="midnightblue" points="517.392,-246.256 524.743,-238.625 514.238,-240.007 517.392,-246.256"/>
</g>
<!-- Node9 -->
<g id="node10" class="node"><title>Node9</title>
<polygon fill="none" stroke="#bfbfbf" points="589.224,-220.5 589.224,-238.5 632.456,-238.5 632.456,-220.5 589.224,-220.5"/>
<text text-anchor="middle" x="610.84" y="-226.5" font-family="Helvetica,sans-Serif" font-size="10.00">QSize</text>
</g>
<!-- Node0&#45;&gt;Node9 -->
<g id="edge9" class="edge"><title>Node0&#45;&gt;Node9</title>
<path fill="none" stroke="midnightblue" d="M462.419,-275.45C493.787,-265.95 545.892,-250.17 579.282,-240.058"/>
<polygon fill="midnightblue" stroke="midnightblue" points="580.443,-243.363 588.999,-237.115 578.414,-236.663 580.443,-243.363"/>
</g>
<!-- Node10 -->
<g id="node11" class="node"><title>Node10</title>
<polygon fill="none" stroke="#bfbfbf" points="650.477,-220.5 650.477,-238.5 705.203,-238.5 705.203,-220.5 650.477,-220.5"/>
<text text-anchor="middle" x="677.84" y="-226.5" font-family="Helvetica,sans-Serif" font-size="10.00">QVariant</text>
</g>
<!-- Node0&#45;&gt;Node10 -->
<g id="edge10" class="edge"><title>Node0&#45;&gt;Node10</title>
<path fill="none" stroke="midnightblue" d="M474.234,-275.435C513.623,-267.111 576.927,-253.591 640.539,-239.264"/>
<polygon fill="midnightblue" stroke="midnightblue" points="641.352,-242.668 650.335,-237.051 639.81,-235.84 641.352,-242.668"/>
</g>
<!-- Node11 -->
<g id="node12" class="node"><title>Node11</title>
<g id="a_node12"><a xlink:href="enums_8h.html" target="_top" xlink:title="enums.h">
<polygon fill="none" stroke="black" points="727.663,-55.5 727.663,-73.5 782.017,-73.5 782.017,-55.5 727.663,-55.5"/>
<text text-anchor="middle" x="754.84" y="-61.5" font-family="Helvetica,sans-Serif" font-size="10.00">enums.h</text>
</a>
</g>
</g>
<!-- Node0&#45;&gt;Node11 -->
<g id="edge11" class="edge"><title>Node0&#45;&gt;Node11</title>
<path fill="none" stroke="midnightblue" d="M480.204,-282.244C549.935,-279.336 680.675,-269.818 713.84,-239 757.84,-198.113 758.692,-119.514 756.528,-83.8738"/>
<polygon fill="midnightblue" stroke="midnightblue" points="759.991,-83.2539 755.737,-73.5507 753.011,-83.789 759.991,-83.2539"/>
</g>
<!-- Node12 -->
<g id="node13" class="node"><title>Node12</title>
<g id="a_node13"><a xlink:href="mainwindow_8h.html" target="_top" xlink:title="mainwindow.h">
<polygon fill="none" stroke="black" points="1036.43,-220.5 1036.43,-238.5 1115.25,-238.5 1115.25,-220.5 1036.43,-220.5"/>
<text text-anchor="middle" x="1075.84" y="-226.5" font-family="Helvetica,sans-Serif" font-size="10.00">mainwindow.h</text>
</a>
</g>
</g>
<!-- Node0&#45;&gt;Node12 -->
<g id="edge12" class="edge"><title>Node0&#45;&gt;Node12</title>
<path fill="none" stroke="midnightblue" d="M480.082,-279.836C595.415,-270.285 904.714,-244.671 1026.03,-234.625"/>
<polygon fill="midnightblue" stroke="midnightblue" points="1026.48,-238.1 1036.15,-233.787 1025.9,-231.124 1026.48,-238.1"/>
</g>
<!-- Node12&#45;&gt;Node11 -->
<g id="edge16" class="edge"><title>Node12&#45;&gt;Node11</title>
<path fill="none" stroke="midnightblue" d="M1036.2,-226.067C972.092,-221.432 849.336,-209.443 814.84,-184 781.226,-159.208 765.142,-110.179 758.609,-83.619"/>
<polygon fill="midnightblue" stroke="midnightblue" points="761.996,-82.7265 756.371,-73.7482 755.169,-84.2747 761.996,-82.7265"/>
</g>
<!-- Node13 -->
<g id="node14" class="node"><title>Node13</title>
<g id="a_node14"><a xlink:href="datahelpers_8h.html" target="_top" xlink:title="datahelpers.h">
<polygon fill="none" stroke="black" points="799.54,-55.5 799.54,-73.5 876.14,-73.5 876.14,-55.5 799.54,-55.5"/>
<text text-anchor="middle" x="837.84" y="-61.5" font-family="Helvetica,sans-Serif" font-size="10.00">datahelpers.h</text>
</a>
</g>
</g>
<!-- Node12&#45;&gt;Node13 -->
<g id="edge13" class="edge"><title>Node12&#45;&gt;Node13</title>
<path fill="none" stroke="midnightblue" d="M1036.21,-227.337C973.032,-224.555 853.942,-215.203 827.84,-184 803.962,-155.456 818.666,-108.36 829.459,-82.9884"/>
<polygon fill="midnightblue" stroke="midnightblue" points="832.791,-84.1161 833.721,-73.5622 826.412,-81.2321 832.791,-84.1161"/>
</g>
<!-- Node16 -->
<g id="node17" class="node"><title>Node16</title>
<g id="a_node17"><a xlink:href="imitatepass_8h.html" target="_top" xlink:title="imitatepass.h">
<polygon fill="none" stroke="black" points="836.382,-165.5 836.382,-183.5 911.298,-183.5 911.298,-165.5 836.382,-165.5"/>
<text text-anchor="middle" x="873.84" y="-171.5" font-family="Helvetica,sans-Serif" font-size="10.00">imitatepass.h</text>
</a>
</g>
</g>
<!-- Node12&#45;&gt;Node16 -->
<g id="edge17" class="edge"><title>Node12&#45;&gt;Node16</title>
<path fill="none" stroke="midnightblue" d="M1045.16,-220.45C1010.21,-211.279 952.946,-196.256 914.348,-186.128"/>
<polygon fill="midnightblue" stroke="midnightblue" points="915.037,-182.691 904.476,-183.538 913.261,-189.462 915.037,-182.691"/>
</g>
<!-- Node17 -->
<g id="node18" class="node"><title>Node17</title>
<g id="a_node18"><a xlink:href="pass_8h.html" target="_top" xlink:title="pass.h">
<polygon fill="none" stroke="black" points="916.108,-110.5 916.108,-128.5 961.571,-128.5 961.571,-110.5 916.108,-110.5"/>
<text text-anchor="middle" x="938.84" y="-116.5" font-family="Helvetica,sans-Serif" font-size="10.00">pass.h</text>
</a>
</g>
</g>
<!-- Node12&#45;&gt;Node17 -->
<g id="edge25" class="edge"><title>Node12&#45;&gt;Node17</title>
<path fill="none" stroke="midnightblue" d="M1036.31,-222.814C1010.65,-217.14 978.296,-205.938 957.84,-184 946.436,-171.77 941.857,-152.965 940.029,-138.989"/>
<polygon fill="midnightblue" stroke="midnightblue" points="943.476,-138.262 939.051,-128.636 936.507,-138.92 943.476,-138.262"/>
</g>
<!-- Node19 -->
<g id="node20" class="node"><title>Node19</title>
<polygon fill="none" stroke="#bfbfbf" points="989.889,-55.5 989.889,-73.5 1049.79,-73.5 1049.79,-55.5 989.889,-55.5"/>
<text text-anchor="middle" x="1019.84" y="-61.5" font-family="Helvetica,sans-Serif" font-size="10.00">QProcess</text>
</g>
<!-- Node12&#45;&gt;Node19 -->
<g id="edge41" class="edge"><title>Node12&#45;&gt;Node19</title>
<path fill="none" stroke="midnightblue" d="M1072.99,-220.193C1064.3,-194.903 1038.03,-118.453 1025.99,-83.4046"/>
<polygon fill="midnightblue" stroke="midnightblue" points="1029.18,-81.9173 1022.62,-73.5971 1022.56,-84.1918 1029.18,-81.9173"/>
</g>
<!-- Node20 -->
<g id="node21" class="node"><title>Node20</title>
<polygon fill="none" stroke="#bfbfbf" points="1067.94,-55.5 1067.94,-73.5 1121.74,-73.5 1121.74,-55.5 1067.94,-55.5"/>
<text text-anchor="middle" x="1094.84" y="-61.5" font-family="Helvetica,sans-Serif" font-size="10.00">QQueue</text>
</g>
<!-- Node12&#45;&gt;Node20 -->
<g id="edge42" class="edge"><title>Node12&#45;&gt;Node20</title>
<path fill="none" stroke="midnightblue" d="M1076.81,-220.193C1079.74,-195.013 1088.59,-119.114 1092.7,-83.8621"/>
<polygon fill="midnightblue" stroke="midnightblue" points="1096.21,-83.9351 1093.9,-73.5971 1089.26,-83.1246 1096.21,-83.9351"/>
</g>
<!-- Node21 -->
<g id="node22" class="node"><title>Node21</title>
<g id="a_node22"><a xlink:href="realpass_8h.html" target="_top" xlink:title="realpass.h">
<polygon fill="none" stroke="black" points="966.771,-165.5 966.771,-183.5 1028.91,-183.5 1028.91,-165.5 966.771,-165.5"/>
<text text-anchor="middle" x="997.84" y="-171.5" font-family="Helvetica,sans-Serif" font-size="10.00">realpass.h</text>
</a>
</g>
</g>
<!-- Node12&#45;&gt;Node21 -->
<g id="edge26" class="edge"><title>Node12&#45;&gt;Node21</title>
<path fill="none" stroke="midnightblue" d="M1063.99,-220.45C1051.85,-212.201 1032.74,-199.216 1018.18,-189.319"/>
<polygon fill="midnightblue" stroke="midnightblue" points="1020.04,-186.351 1009.8,-183.625 1016.1,-192.14 1020.04,-186.351"/>
</g>
<!-- Node22 -->
<g id="node23" class="node"><title>Node22</title>
<g id="a_node23"><a xlink:href="storemodel_8h.html" target="_top" xlink:title="storemodel.h">
<polygon fill="none" stroke="black" points="1217.94,-165.5 1217.94,-183.5 1291.74,-183.5 1291.74,-165.5 1217.94,-165.5"/>
<text text-anchor="middle" x="1254.84" y="-171.5" font-family="Helvetica,sans-Serif" font-size="10.00">storemodel.h</text>
</a>
</g>
</g>
<!-- Node12&#45;&gt;Node22 -->
<g id="edge28" class="edge"><title>Node12&#45;&gt;Node22</title>
<path fill="none" stroke="midnightblue" d="M1103.03,-220.45C1133.74,-211.357 1183.88,-196.511 1218.07,-186.388"/>
<polygon fill="midnightblue" stroke="midnightblue" points="1219.1,-189.733 1227.69,-183.538 1217.11,-183.021 1219.1,-189.733"/>
</g>
<!-- Node23 -->
<g id="node24" class="node"><title>Node23</title>
<polygon fill="none" stroke="#bfbfbf" points="1122.61,-110.5 1122.61,-128.5 1223.07,-128.5 1223.07,-110.5 1122.61,-110.5"/>
<text text-anchor="middle" x="1172.84" y="-116.5" font-family="Helvetica,sans-Serif" font-size="10.00">QFileSystemModel</text>
</g>
<!-- Node12&#45;&gt;Node23 -->
<g id="edge39" class="edge"><title>Node12&#45;&gt;Node23</title>
<path fill="none" stroke="midnightblue" d="M1083.13,-220.382C1099.14,-202.557 1137.61,-159.723 1158.6,-136.357"/>
<polygon fill="midnightblue" stroke="midnightblue" points="1161.39,-138.49 1165.46,-128.712 1156.18,-133.813 1161.39,-138.49"/>
</g>
<!-- Node26 -->
<g id="node27" class="node"><title>Node26</title>
<g id="a_node27"><a xlink:href="trayicon_8h.html" target="_top" xlink:title="trayicon.h">
<polygon fill="none" stroke="black" points="1548.16,-165.5 1548.16,-183.5 1607.52,-183.5 1607.52,-165.5 1548.16,-165.5"/>
<text text-anchor="middle" x="1577.84" y="-171.5" font-family="Helvetica,sans-Serif" font-size="10.00">trayicon.h</text>
</a>
</g>
</g>
<!-- Node12&#45;&gt;Node26 -->
<g id="edge32" class="edge"><title>Node12&#45;&gt;Node26</title>
<path fill="none" stroke="midnightblue" d="M1115.65,-224.297C1209.53,-214.385 1443.9,-189.641 1537.9,-179.716"/>
<polygon fill="midnightblue" stroke="midnightblue" points="1538.29,-183.195 1547.87,-178.664 1537.56,-176.234 1538.29,-183.195"/>
</g>
<!-- Node29 -->
<g id="node30" class="node"><title>Node29</title>
<polygon fill="none" stroke="#bfbfbf" points="1453.33,-110.5 1453.33,-128.5 1534.35,-128.5 1534.35,-110.5 1453.33,-110.5"/>
<text text-anchor="middle" x="1493.84" y="-116.5" font-family="Helvetica,sans-Serif" font-size="10.00">QMainWindow</text>
</g>
<!-- Node12&#45;&gt;Node29 -->
<g id="edge40" class="edge"><title>Node12&#45;&gt;Node29</title>
<path fill="none" stroke="midnightblue" d="M1115.6,-222.155C1160.82,-214.587 1236.71,-200.824 1300.84,-184 1358.94,-168.758 1425.14,-145.698 1462.96,-131.964"/>
<polygon fill="midnightblue" stroke="midnightblue" points="1464.2,-135.237 1472.39,-128.517 1461.8,-128.662 1464.2,-135.237"/>
</g>
<!-- Node33 -->
<g id="node34" class="node"><title>Node33</title>
<polygon fill="none" stroke="#bfbfbf" points="1625.36,-165.5 1625.36,-183.5 1674.32,-183.5 1674.32,-165.5 1625.36,-165.5"/>
<text text-anchor="middle" x="1649.84" y="-171.5" font-family="Helvetica,sans-Serif" font-size="10.00">QTimer</text>
</g>
<!-- Node12&#45;&gt;Node33 -->
<g id="edge43" class="edge"><title>Node12&#45;&gt;Node33</title>
<path fill="none" stroke="midnightblue" d="M1115.5,-227.543C1203.79,-224.92 1423.31,-215.669 1615.09,-184.032"/>
<polygon fill="midnightblue" stroke="midnightblue" points="1615.79,-187.465 1625.07,-182.362 1614.63,-180.561 1615.79,-187.465"/>
</g>
<!-- Node34 -->
<g id="node35" class="node"><title>Node34</title>
<polygon fill="none" stroke="#bfbfbf" points="1692.1,-165.5 1692.1,-183.5 1757.58,-183.5 1757.58,-165.5 1692.1,-165.5"/>
<text text-anchor="middle" x="1724.84" y="-171.5" font-family="Helvetica,sans-Serif" font-size="10.00">QTreeView</text>
</g>
<!-- Node12&#45;&gt;Node34 -->
<g id="edge44" class="edge"><title>Node12&#45;&gt;Node34</title>
<path fill="none" stroke="midnightblue" d="M1115.43,-227.331C1211.06,-224.137 1462.31,-213.537 1681.8,-183.955"/>
<polygon fill="midnightblue" stroke="midnightblue" points="1682.46,-187.398 1691.89,-182.578 1681.51,-180.462 1682.46,-187.398"/>
</g>
<!-- Node14 -->
<g id="node15" class="node"><title>Node14</title>
<polygon fill="none" stroke="#bfbfbf" points="794.461,-0.5 794.461,-18.5 861.218,-18.5 861.218,-0.5 794.461,-0.5"/>
<text text-anchor="middle" x="827.84" y="-6.5" font-family="Helvetica,sans-Serif" font-size="10.00">QDateTime</text>
</g>
<!-- Node13&#45;&gt;Node14 -->
<g id="edge14" class="edge"><title>Node13&#45;&gt;Node14</title>
<path fill="none" stroke="midnightblue" d="M836.277,-55.2188C834.934,-48.0986 832.949,-37.5775 831.242,-28.5289"/>
<polygon fill="midnightblue" stroke="midnightblue" points="834.652,-27.7272 829.359,-18.5496 827.773,-29.0251 834.652,-27.7272"/>
</g>
<!-- Node15 -->
<g id="node16" class="node"><title>Node15</title>
<polygon fill="none" stroke="#bfbfbf" points="878.889,-0.5 878.889,-18.5 928.791,-18.5 928.791,-0.5 878.889,-0.5"/>
<text text-anchor="middle" x="903.84" y="-6.5" font-family="Helvetica,sans-Serif" font-size="10.00">QString</text>
</g>
<!-- Node13&#45;&gt;Node15 -->
<g id="edge15" class="edge"><title>Node13&#45;&gt;Node15</title>
<path fill="none" stroke="midnightblue" d="M847.864,-55.4504C857.846,-47.4345 873.396,-34.9471 885.576,-25.1663"/>
<polygon fill="midnightblue" stroke="midnightblue" points="888.116,-27.6157 893.722,-18.6253 883.733,-22.1577 888.116,-27.6157"/>
</g>
<!-- Node16&#45;&gt;Node17 -->
<g id="edge18" class="edge"><title>Node16&#45;&gt;Node17</title>
<path fill="none" stroke="midnightblue" d="M883.712,-165.45C893.543,-157.434 908.858,-144.947 920.853,-135.166"/>
<polygon fill="midnightblue" stroke="midnightblue" points="923.336,-137.657 928.875,-128.625 918.913,-132.232 923.336,-137.657"/>
</g>
<!-- Node17&#45;&gt;Node11 -->
<g id="edge20" class="edge"><title>Node17&#45;&gt;Node11</title>
<path fill="none" stroke="midnightblue" d="M915.908,-111.895C884.912,-102.966 829.265,-86.9378 792.191,-76.2587"/>
<polygon fill="midnightblue" stroke="midnightblue" points="792.84,-72.8036 782.262,-73.3988 790.903,-79.5301 792.84,-72.8036"/>
</g>
<!-- Node17&#45;&gt;Node13 -->
<g id="edge19" class="edge"><title>Node17&#45;&gt;Node13</title>
<path fill="none" stroke="midnightblue" d="M923.5,-110.45C907.26,-101.929 881.39,-88.3532 862.325,-78.3487"/>
<polygon fill="midnightblue" stroke="midnightblue" points="863.805,-75.1728 853.324,-73.6253 860.552,-81.3712 863.805,-75.1728"/>
</g>
<!-- Node17&#45;&gt;Node15 -->
<g id="edge24" class="edge"><title>Node17&#45;&gt;Node15</title>
<path fill="none" stroke="midnightblue" d="M935.757,-110.344C932.432,-101.455 927.049,-86.7894 922.84,-74 917.832,-58.7827 912.651,-41.3367 908.968,-28.5865"/>
<polygon fill="midnightblue" stroke="midnightblue" points="912.273,-27.4159 906.157,-18.7646 905.543,-29.3416 912.273,-27.4159"/>
</g>
<!-- Node18 -->
<g id="node19" class="node"><title>Node18</title>
<polygon fill="none" stroke="#bfbfbf" points="932.17,-55.5 932.17,-73.5 971.51,-73.5 971.51,-55.5 932.17,-55.5"/>
<text text-anchor="middle" x="951.84" y="-61.5" font-family="Helvetica,sans-Serif" font-size="10.00">QList</text>
</g>
<!-- Node17&#45;&gt;Node18 -->
<g id="edge21" class="edge"><title>Node17&#45;&gt;Node18</title>
<path fill="none" stroke="midnightblue" d="M940.871,-110.219C942.618,-103.099 945.198,-92.5775 947.418,-83.5289"/>
<polygon fill="midnightblue" stroke="midnightblue" points="950.882,-84.0955 949.865,-73.5496 944.084,-82.4279 950.882,-84.0955"/>
</g>
<!-- Node17&#45;&gt;Node19 -->
<g id="edge22" class="edge"><title>Node17&#45;&gt;Node19</title>
<path fill="none" stroke="midnightblue" d="M951.142,-110.45C963.75,-102.201 983.595,-89.2158 998.721,-79.3187"/>
<polygon fill="midnightblue" stroke="midnightblue" points="1000.97,-82.0294 1007.42,-73.6253 997.138,-76.1719 1000.97,-82.0294"/>
</g>
<!-- Node17&#45;&gt;Node20 -->
<g id="edge23" class="edge"><title>Node17&#45;&gt;Node20</title>
<path fill="none" stroke="midnightblue" d="M961.858,-110.68C988.205,-101.729 1031.58,-86.9923 1061.59,-76.7953"/>
<polygon fill="midnightblue" stroke="midnightblue" points="1062.87,-80.057 1071.22,-73.5262 1060.62,-73.4291 1062.87,-80.057"/>
</g>
<!-- Node21&#45;&gt;Node17 -->
<g id="edge27" class="edge"><title>Node21&#45;&gt;Node17</title>
<path fill="none" stroke="midnightblue" d="M988.879,-165.45C980.042,-157.512 966.324,-145.189 955.484,-135.452"/>
<polygon fill="midnightblue" stroke="midnightblue" points="957.663,-132.704 947.885,-128.625 952.985,-137.912 957.663,-132.704"/>
</g>
<!-- Node22&#45;&gt;Node23 -->
<g id="edge29" class="edge"><title>Node22&#45;&gt;Node23</title>
<path fill="none" stroke="midnightblue" d="M1242.39,-165.45C1229.62,-157.201 1209.53,-144.216 1194.22,-134.319"/>
<polygon fill="midnightblue" stroke="midnightblue" points="1195.71,-131.114 1185.41,-128.625 1191.91,-136.993 1195.71,-131.114"/>
</g>
<!-- Node24 -->
<g id="node25" class="node"><title>Node24</title>
<polygon fill="none" stroke="#bfbfbf" points="1241.16,-110.5 1241.16,-128.5 1300.52,-128.5 1300.52,-110.5 1241.16,-110.5"/>
<text text-anchor="middle" x="1270.84" y="-116.5" font-family="Helvetica,sans-Serif" font-size="10.00">QRegExp</text>
</g>
<!-- Node22&#45;&gt;Node24 -->
<g id="edge30" class="edge"><title>Node22&#45;&gt;Node24</title>
<path fill="none" stroke="midnightblue" d="M1257.34,-165.219C1259.51,-158.02 1262.74,-147.346 1265.49,-138.231"/>
<polygon fill="midnightblue" stroke="midnightblue" points="1268.87,-139.134 1268.41,-128.55 1262.17,-137.111 1268.87,-139.134"/>
</g>
<!-- Node25 -->
<g id="node26" class="node"><title>Node25</title>
<polygon fill="none" stroke="#bfbfbf" points="1318.27,-110.5 1318.27,-128.5 1435.41,-128.5 1435.41,-110.5 1318.27,-110.5"/>
<text text-anchor="middle" x="1376.84" y="-116.5" font-family="Helvetica,sans-Serif" font-size="10.00">QSortFilterProxyModel</text>
</g>
<!-- Node22&#45;&gt;Node25 -->
<g id="edge31" class="edge"><title>Node22&#45;&gt;Node25</title>
<path fill="none" stroke="midnightblue" d="M1273.37,-165.45C1293.43,-156.734 1325.67,-142.731 1348.83,-132.669"/>
<polygon fill="midnightblue" stroke="midnightblue" points="1350.36,-135.82 1358.14,-128.625 1347.57,-129.4 1350.36,-135.82"/>
</g>
<!-- Node27 -->
<g id="node28" class="node"><title>Node27</title>
<polygon fill="none" stroke="#bfbfbf" points="1552.05,-110.5 1552.05,-128.5 1603.63,-128.5 1603.63,-110.5 1552.05,-110.5"/>
<text text-anchor="middle" x="1577.84" y="-116.5" font-family="Helvetica,sans-Serif" font-size="10.00">QAction</text>
</g>
<!-- Node26&#45;&gt;Node27 -->
<g id="edge33" class="edge"><title>Node26&#45;&gt;Node27</title>
<path fill="none" stroke="midnightblue" d="M1577.84,-165.219C1577.84,-158.177 1577.84,-147.808 1577.84,-138.828"/>
<polygon fill="midnightblue" stroke="midnightblue" points="1581.34,-138.55 1577.84,-128.55 1574.34,-138.55 1581.34,-138.55"/>
</g>
<!-- Node28 -->
<g id="node29" class="node"><title>Node28</title>
<polygon fill="none" stroke="#bfbfbf" points="1621.49,-110.5 1621.49,-128.5 1694.19,-128.5 1694.19,-110.5 1621.49,-110.5"/>
<text text-anchor="middle" x="1657.84" y="-116.5" font-family="Helvetica,sans-Serif" font-size="10.00">QApplication</text>
</g>
<!-- Node26&#45;&gt;Node28 -->
<g id="edge34" class="edge"><title>Node26&#45;&gt;Node28</title>
<path fill="none" stroke="midnightblue" d="M1589.99,-165.45C1602.44,-157.201 1622.04,-144.216 1636.98,-134.319"/>
<polygon fill="midnightblue" stroke="midnightblue" points="1639.17,-137.066 1645.58,-128.625 1635.31,-131.231 1639.17,-137.066"/>
</g>
<!-- Node26&#45;&gt;Node29 -->
<g id="edge35" class="edge"><title>Node26&#45;&gt;Node29</title>
<path fill="none" stroke="midnightblue" d="M1565.08,-165.45C1551.88,-157.123 1531.04,-143.97 1515.3,-134.039"/>
<polygon fill="midnightblue" stroke="midnightblue" points="1517.04,-131.001 1506.72,-128.625 1513.31,-136.922 1517.04,-131.001"/>
</g>
<!-- Node30 -->
<g id="node31" class="node"><title>Node30</title>
<polygon fill="none" stroke="#bfbfbf" points="1712.44,-110.5 1712.44,-128.5 1761.24,-128.5 1761.24,-110.5 1712.44,-110.5"/>
<text text-anchor="middle" x="1736.84" y="-116.5" font-family="Helvetica,sans-Serif" font-size="10.00">QMenu</text>
</g>
<!-- Node26&#45;&gt;Node30 -->
<g id="edge36" class="edge"><title>Node26&#45;&gt;Node30</title>
<path fill="none" stroke="midnightblue" d="M1601.99,-165.45C1628.92,-156.475 1672.66,-141.892 1703,-131.781"/>
<polygon fill="midnightblue" stroke="midnightblue" points="1704.34,-135.021 1712.72,-128.538 1702.13,-128.38 1704.34,-135.021"/>
</g>
<!-- Node31 -->
<g id="node32" class="node"><title>Node31</title>
<polygon fill="none" stroke="#bfbfbf" points="1779.01,-110.5 1779.01,-128.5 1874.67,-128.5 1874.67,-110.5 1779.01,-110.5"/>
<text text-anchor="middle" x="1826.84" y="-116.5" font-family="Helvetica,sans-Serif" font-size="10.00">QSystemTrayIcon</text>
</g>
<!-- Node26&#45;&gt;Node31 -->
<g id="edge37" class="edge"><title>Node26&#45;&gt;Node31</title>
<path fill="none" stroke="midnightblue" d="M1607.65,-166.985C1610.75,-166.312 1613.86,-165.641 1616.84,-165 1672.33,-153.074 1736.12,-139.589 1778.69,-130.621"/>
<polygon fill="midnightblue" stroke="midnightblue" points="1779.44,-134.039 1788.51,-128.554 1778,-127.19 1779.44,-134.039"/>
</g>
<!-- Node32 -->
<g id="node33" class="node"><title>Node32</title>
<polygon fill="none" stroke="#bfbfbf" points="1892.39,-110.5 1892.39,-128.5 1947.29,-128.5 1947.29,-110.5 1892.39,-110.5"/>
<text text-anchor="middle" x="1919.84" y="-116.5" font-family="Helvetica,sans-Serif" font-size="10.00">QWidget</text>
</g>
<!-- Node26&#45;&gt;Node32 -->
<g id="edge38" class="edge"><title>Node26&#45;&gt;Node32</title>
<path fill="none" stroke="midnightblue" d="M1607.6,-166.755C1610.71,-166.127 1613.84,-165.529 1616.84,-165 1731.54,-144.802 1764.32,-150.446 1882.23,-129.138"/>
<polygon fill="midnightblue" stroke="midnightblue" points="1883.18,-132.523 1892.38,-127.275 1881.91,-125.638 1883.18,-132.523"/>
</g>
</g>
</svg>
