<?xml version="1.0" encoding="UTF-8" standalone="no"?>
<!DOCTYPE svg PUBLIC "-//W3C//DTD SVG 1.1//EN"
 "http://www.w3.org/Graphics/SVG/1.1/DTD/svg11.dtd">
<!-- Generated by graphviz version 2.38.0 (20140413.2041)
 -->
<!-- Title: src/qtpasssettings.h Pages: 1 -->
<!--zoomable 302 -->
<svg id="main" version="1.1" xmlns="http://www.w3.org/2000/svg" xmlns:xlink="http://www.w3.org/1999/xlink" xml:space="preserve" onload="init(evt)">
<style type="text/css"><![CDATA[
.edge:hover path { stroke: red; }
.edge:hover polygon { stroke: red; fill: red; }
]]></style>
<script type="text/javascript"><![CDATA[
var edges = document.getElementsByTagName('g');
if (edges && edges.length) {
  for (var i=0;i<edges.length;i++) {
    if (edges[i].id.substr(0,4)=='edge') {
      edges[i].setAttribute('class','edge');
    }
  }
}
]]></script>
        <defs>
                <circle id="rim" cx="0" cy="0" r="7"/>
                <circle id="rim2" cx="0" cy="0" r="3.5"/>
                <g id="zoomPlus">
                        <use xlink:href="#rim" fill="#404040">
                                <set attributeName="fill" to="#808080" begin="zoomplus.mouseover" end="zoomplus.mouseout"/>
                        </use>
                        <path d="M-4,0h8M0,-4v8" fill="none" stroke="white" stroke-width="1.5" pointer-events="none"/>
                </g>
                <g id="zoomMin">
                        <use xlink:href="#rim" fill="#404040">
                                <set attributeName="fill" to="#808080" begin="zoomminus.mouseover" end="zoomminus.mouseout"/>
                        </use>
                        <path d="M-4,0h8" fill="none" stroke="white" stroke-width="1.5" pointer-events="none"/>
                </g>
                <g id="dirArrow">
                        <path fill="none" stroke="white" stroke-width="1.5" d="M0,-3.0v7 M-2.5,-0.5L0,-3.0L2.5,-0.5"/>
                </g>
               <g id="resetDef">
                       <use xlink:href="#rim2" fill="#404040">
                               <set attributeName="fill" to="#808080" begin="reset.mouseover" end="reset.mouseout"/>
                       </use>
               </g>
        </defs>

<script type="text/javascript">
var viewWidth = 1832;
var viewHeight = 302;
var sectionId = 'dynsection-0';
</script>
<script xlink:href="svgpan.js"/>
<svg id="graph" class="graph">
<g id="viewport">
<title>src/qtpasssettings.h</title>
<!-- Node0 -->
<g id="node1" class="node"><title>Node0</title>
<polygon fill="#bfbfbf" stroke="black" points="358.653,-275.5 358.653,-293.5 463.027,-293.5 463.027,-275.5 358.653,-275.5"/>
<text text-anchor="middle" x="410.84" y="-281.5" font-family="Helvetica,sans-Serif" font-size="10.00">src/qtpasssettings.h</text>
</g>
<!-- Node1 -->
<g id="node2" class="node"><title>Node1</title>
<polygon fill="none" stroke="#bfbfbf" points="0,-220.5 0,-238.5 67.6797,-238.5 67.6797,-220.5 0,-220.5"/>
<text text-anchor="middle" x="33.8398" y="-226.5" font-family="Helvetica,sans-Serif" font-size="10.00">QByteArray</text>
</g>
<!-- Node0&#45;&gt;Node1 -->
<g id="edge1" class="edge"><title>Node0&#45;&gt;Node1</title>
<path fill="none" stroke="midnightblue" d="M358.622,-277.571C294.817,-270.097 183.351,-256.305 78.2242,-239.139"/>
<polygon fill="midnightblue" stroke="midnightblue" points="78.508,-235.639 68.0722,-237.468 77.3706,-242.546 78.508,-235.639"/>
</g>
<!-- Node2 -->
<g id="node3" class="node"><title>Node2</title>
<polygon fill="none" stroke="#bfbfbf" points="85.6528,-220.5 85.6528,-238.5 180.027,-238.5 180.027,-220.5 85.6528,-220.5"/>
<text text-anchor="middle" x="132.84" y="-226.5" font-family="Helvetica,sans-Serif" font-size="10.00">QCoreApplication</text>
</g>
<!-- Node0&#45;&gt;Node2 -->
<g id="edge2" class="edge"><title>Node0&#45;&gt;Node2</title>
<path fill="none" stroke="midnightblue" d="M368.618,-275.45C319.387,-266.065 238.003,-250.549 184.901,-240.425"/>
<polygon fill="midnightblue" stroke="midnightblue" points="185.482,-236.973 175.003,-238.538 184.171,-243.849 185.482,-236.973"/>
</g>
<!-- Node3 -->
<g id="node4" class="node"><title>Node3</title>
<polygon fill="none" stroke="#bfbfbf" points="197.564,-220.5 197.564,-238.5 234.116,-238.5 234.116,-220.5 197.564,-220.5"/>
<text text-anchor="middle" x="215.84" y="-226.5" font-family="Helvetica,sans-Serif" font-size="10.00">QDir</text>
</g>
<!-- Node0&#45;&gt;Node3 -->
<g id="edge3" class="edge"><title>Node0&#45;&gt;Node3</title>
<path fill="none" stroke="midnightblue" d="M378.825,-275.487C346.918,-267.399 296.307,-254.293 244.15,-239.289"/>
<polygon fill="midnightblue" stroke="midnightblue" points="244.976,-235.884 234.397,-236.466 243.029,-242.608 244.976,-235.884"/>
</g>
<!-- Node4 -->
<g id="node5" class="node"><title>Node4</title>
<polygon fill="none" stroke="#bfbfbf" points="251.894,-220.5 251.894,-238.5 291.786,-238.5 291.786,-220.5 251.894,-220.5"/>
<text text-anchor="middle" x="271.84" y="-226.5" font-family="Helvetica,sans-Serif" font-size="10.00">QFile</text>
</g>
<!-- Node0&#45;&gt;Node4 -->
<g id="edge4" class="edge"><title>Node0&#45;&gt;Node4</title>
<path fill="none" stroke="midnightblue" d="M389.729,-275.45C366.158,-266.463 327.847,-251.855 301.326,-241.743"/>
<polygon fill="midnightblue" stroke="midnightblue" points="302.385,-238.401 291.794,-238.109 299.891,-244.942 302.385,-238.401"/>
</g>
<!-- Node5 -->
<g id="node6" class="node"><title>Node5</title>
<polygon fill="none" stroke="#bfbfbf" points="310.278,-220.5 310.278,-238.5 357.401,-238.5 357.401,-220.5 310.278,-220.5"/>
<text text-anchor="middle" x="333.84" y="-226.5" font-family="Helvetica,sans-Serif" font-size="10.00">QHash</text>
</g>
<!-- Node0&#45;&gt;Node5 -->
<g id="edge5" class="edge"><title>Node0&#45;&gt;Node5</title>
<path fill="none" stroke="midnightblue" d="M399.145,-275.45C387.16,-267.201 368.295,-254.216 353.916,-244.319"/>
<polygon fill="midnightblue" stroke="midnightblue" points="355.866,-241.412 345.645,-238.625 351.897,-247.178 355.866,-241.412"/>
</g>
<!-- Node6 -->
<g id="node7" class="node"><title>Node6</title>
<polygon fill="none" stroke="#bfbfbf" points="875.5,-0.5 875.5,-18.5 928.18,-18.5 928.18,-0.5 875.5,-0.5"/>
<text text-anchor="middle" x="901.84" y="-6.5" font-family="Helvetica,sans-Serif" font-size="10.00">QObject</text>
</g>
<!-- Node0&#45;&gt;Node6 -->
<g id="edge6" class="edge"><title>Node0&#45;&gt;Node6</title>
<path fill="none" stroke="midnightblue" d="M407.572,-275.249C400.795,-257.373 385.84,-213.607 385.84,-175.5 385.84,-175.5 385.84,-175.5 385.84,-118.5 385.84,-20.538 746.643,-10.8908 864.842,-10.3587"/>
<polygon fill="midnightblue" stroke="midnightblue" points="865.193,-13.8579 875.184,-10.3331 865.175,-6.85795 865.193,-13.8579"/>
</g>
<!-- Node7 -->
<g id="node8" class="node"><title>Node7</title>
<polygon fill="none" stroke="#bfbfbf" points="413.554,-220.5 413.554,-238.5 460.125,-238.5 460.125,-220.5 413.554,-220.5"/>
<text text-anchor="middle" x="436.84" y="-226.5" font-family="Helvetica,sans-Serif" font-size="10.00">QPoint</text>
</g>
<!-- Node0&#45;&gt;Node7 -->
<g id="edge7" class="edge"><title>Node0&#45;&gt;Node7</title>
<path fill="none" stroke="midnightblue" d="M414.902,-275.219C418.51,-267.864 423.899,-256.88 428.432,-247.639"/>
<polygon fill="midnightblue" stroke="midnightblue" points="431.629,-249.069 432.891,-238.55 425.344,-245.986 431.629,-249.069"/>
</g>
<!-- Node8 -->
<g id="node9" class="node"><title>Node8</title>
<polygon fill="none" stroke="#bfbfbf" points="477.884,-220.5 477.884,-238.5 537.795,-238.5 537.795,-220.5 477.884,-220.5"/>
<text text-anchor="middle" x="507.84" y="-226.5" font-family="Helvetica,sans-Serif" font-size="10.00">QSettings</text>
</g>
<!-- Node0&#45;&gt;Node8 -->
<g id="edge8" class="edge"><title>Node0&#45;&gt;Node8</title>
<path fill="none" stroke="midnightblue" d="M425.572,-275.45C441.097,-266.968 465.788,-253.477 484.073,-243.486"/>
<polygon fill="midnightblue" stroke="midnightblue" points="485.872,-246.492 492.969,-238.625 482.515,-240.349 485.872,-246.492"/>
</g>
<!-- Node9 -->
<g id="node10" class="node"><title>Node9</title>
<polygon fill="none" stroke="#bfbfbf" points="556.224,-220.5 556.224,-238.5 599.456,-238.5 599.456,-220.5 556.224,-220.5"/>
<text text-anchor="middle" x="577.84" y="-226.5" font-family="Helvetica,sans-Serif" font-size="10.00">QSize</text>
</g>
<!-- Node0&#45;&gt;Node9 -->
<g id="edge9" class="edge"><title>Node0&#45;&gt;Node9</title>
<path fill="none" stroke="midnightblue" d="M436.204,-275.45C465.679,-266.096 514.343,-250.652 546.248,-240.526"/>
<polygon fill="midnightblue" stroke="midnightblue" points="547.5,-243.801 555.973,-237.44 545.382,-237.129 547.5,-243.801"/>
</g>
<!-- Node10 -->
<g id="node11" class="node"><title>Node10</title>
<polygon fill="none" stroke="#bfbfbf" points="617.477,-220.5 617.477,-238.5 672.203,-238.5 672.203,-220.5 617.477,-220.5"/>
<text text-anchor="middle" x="644.84" y="-226.5" font-family="Helvetica,sans-Serif" font-size="10.00">QVariant</text>
</g>
<!-- Node0&#45;&gt;Node10 -->
<g id="edge10" class="edge"><title>Node0&#45;&gt;Node10</title>
<path fill="none" stroke="midnightblue" d="M446.997,-275.497C484.695,-267.125 545.762,-253.488 607.43,-239.308"/>
<polygon fill="midnightblue" stroke="midnightblue" points="608.37,-242.683 617.33,-237.028 606.799,-235.861 608.37,-242.683"/>
</g>
<!-- Node11 -->
<g id="node12" class="node"><title>Node11</title>
<g id="a_node12"><a xlink:href="enums_8h.html" target="_top" xlink:title="enums.h">
<polygon fill="none" stroke="black" points="765.663,-55.5 765.663,-73.5 820.017,-73.5 820.017,-55.5 765.663,-55.5"/>
<text text-anchor="middle" x="792.84" y="-61.5" font-family="Helvetica,sans-Serif" font-size="10.00">enums.h</text>
</a>
</g>
</g>
<!-- Node0&#45;&gt;Node11 -->
<g id="edge11" class="edge"><title>Node0&#45;&gt;Node11</title>
<path fill="none" stroke="midnightblue" d="M463.22,-279.896C531.373,-274.363 645.881,-261.927 680.84,-239 739.526,-200.512 773.949,-119.44 786.901,-83.4116"/>
<polygon fill="midnightblue" stroke="midnightblue" points="790.273,-84.368 790.234,-73.7733 783.658,-82.08 790.273,-84.368"/>
</g>
<!-- Node12 -->
<g id="node13" class="node"><title>Node12</title>
<g id="a_node13"><a xlink:href="mainwindow_8h.html" target="_top" xlink:title="mainwindow.h">
<polygon fill="none" stroke="black" points="1304.43,-220.5 1304.43,-238.5 1383.25,-238.5 1383.25,-220.5 1304.43,-220.5"/>
<text text-anchor="middle" x="1343.84" y="-226.5" font-family="Helvetica,sans-Serif" font-size="10.00">mainwindow.h</text>
</a>
</g>
</g>
<!-- Node0&#45;&gt;Node12 -->
<g id="edge12" class="edge"><title>Node0&#45;&gt;Node12</title>
<path fill="none" stroke="midnightblue" d="M463.338,-280.518C628.09,-271.159 1133.46,-242.451 1294.2,-233.32"/>
<polygon fill="midnightblue" stroke="midnightblue" points="1294.5,-236.809 1304.28,-232.747 1294.1,-229.82 1294.5,-236.809"/>
</g>
<!-- Node12&#45;&gt;Node11 -->
<g id="edge16" class="edge"><title>Node12&#45;&gt;Node11</title>
<path fill="none" stroke="midnightblue" d="M1304.41,-228.608C1228.04,-227.903 1055.17,-221.828 915.84,-184 858.831,-168.522 827.599,-178.157 794.84,-129 786.047,-115.806 786.499,-97.4074 788.585,-83.8094"/>
<polygon fill="midnightblue" stroke="midnightblue" points="792.07,-84.2216 790.555,-73.7358 785.2,-82.8781 792.07,-84.2216"/>
</g>
<!-- Node13 -->
<g id="node14" class="node"><title>Node13</title>
<g id="a_node14"><a xlink:href="datahelpers_8h.html" target="_top" xlink:title="datahelpers.h">
<polygon fill="none" stroke="black" points="1747.54,-55.5 1747.54,-73.5 1824.14,-73.5 1824.14,-55.5 1747.54,-55.5"/>
<text text-anchor="middle" x="1785.84" y="-61.5" font-family="Helvetica,sans-Serif" font-size="10.00">datahelpers.h</text>
</a>
</g>
</g>
<!-- Node12&#45;&gt;Node13 -->
<g id="edge13" class="edge"><title>Node12&#45;&gt;Node13</title>
<path fill="none" stroke="midnightblue" d="M1383.46,-228.85C1471.29,-228.868 1678.93,-224.499 1733.84,-184 1766.6,-159.839 1779.04,-110.519 1783.51,-83.7553"/>
<polygon fill="midnightblue" stroke="midnightblue" points="1787.02,-83.9123 1785.01,-73.5105 1780.09,-82.8973 1787.02,-83.9123"/>
</g>
<!-- Node16 -->
<g id="node17" class="node"><title>Node16</title>
<g id="a_node17"><a xlink:href="imitatepass_8h.html" target="_top" xlink:title="imitatepass.h">
<polygon fill="none" stroke="black" points="1348.38,-165.5 1348.38,-183.5 1423.3,-183.5 1423.3,-165.5 1348.38,-165.5"/>
<text text-anchor="middle" x="1385.84" y="-171.5" font-family="Helvetica,sans-Serif" font-size="10.00">imitatepass.h</text>
</a>
</g>
</g>
<!-- Node12&#45;&gt;Node16 -->
<g id="edge17" class="edge"><title>Node12&#45;&gt;Node16</title>
<path fill="none" stroke="midnightblue" d="M1350.4,-220.219C1356.48,-212.551 1365.68,-200.939 1373.19,-191.469"/>
<polygon fill="midnightblue" stroke="midnightblue" points="1375.99,-193.561 1379.46,-183.55 1370.51,-189.213 1375.99,-193.561"/>
</g>
<!-- Node17 -->
<g id="node18" class="node"><title>Node17</title>
<g id="a_node18"><a xlink:href="pass_8h.html" target="_top" xlink:title="pass.h">
<polygon fill="none" stroke="black" points="1646.11,-110.5 1646.11,-128.5 1691.57,-128.5 1691.57,-110.5 1646.11,-110.5"/>
<text text-anchor="middle" x="1668.84" y="-116.5" font-family="Helvetica,sans-Serif" font-size="10.00">pass.h</text>
</a>
</g>
</g>
<!-- Node12&#45;&gt;Node17 -->
<g id="edge29" class="edge"><title>Node12&#45;&gt;Node17</title>
<path fill="none" stroke="midnightblue" d="M1383.5,-226.556C1432.25,-222.962 1516.65,-212.772 1582.84,-184 1610.09,-172.155 1636.89,-150.291 1653.15,-135.572"/>
<polygon fill="midnightblue" stroke="midnightblue" points="1655.69,-137.987 1660.63,-128.617 1650.92,-132.859 1655.69,-137.987"/>
</g>
<!-- Node19 -->
<g id="node20" class="node"><title>Node19</title>
<polygon fill="none" stroke="#bfbfbf" points="1555.89,-0.5 1555.89,-18.5 1615.79,-18.5 1615.79,-0.5 1555.89,-0.5"/>
<text text-anchor="middle" x="1585.84" y="-6.5" font-family="Helvetica,sans-Serif" font-size="10.00">QProcess</text>
</g>
<!-- Node12&#45;&gt;Node19 -->
<g id="edge45" class="edge"><title>Node12&#45;&gt;Node19</title>
<path fill="none" stroke="midnightblue" d="M1383.32,-226.478C1471.83,-221.542 1680.06,-207.525 1700.84,-184 1740.4,-139.199 1706.77,-95.5267 1662.84,-55 1648.46,-41.7353 1629.45,-30.7002 1613.92,-22.937"/>
<polygon fill="midnightblue" stroke="midnightblue" points="1615.3,-19.7167 1604.77,-18.5355 1612.27,-26.0247 1615.3,-19.7167"/>
</g>
<!-- Node20 -->
<g id="node21" class="node"><title>Node20</title>
<polygon fill="none" stroke="#bfbfbf" points="1461.94,-0.5 1461.94,-18.5 1515.74,-18.5 1515.74,-0.5 1461.94,-0.5"/>
<text text-anchor="middle" x="1488.84" y="-6.5" font-family="Helvetica,sans-Serif" font-size="10.00">QQueue</text>
</g>
<!-- Node12&#45;&gt;Node20 -->
<g id="edge46" class="edge"><title>Node12&#45;&gt;Node20</title>
<path fill="none" stroke="midnightblue" d="M1304.37,-229.254C1149.04,-231.056 596.074,-225.837 756.84,-55 780.86,-29.4747 1305.32,-14.9329 1451.38,-11.3682"/>
<polygon fill="midnightblue" stroke="midnightblue" points="1451.71,-14.8614 1461.62,-11.1212 1451.54,-7.86345 1451.71,-14.8614"/>
</g>
<!-- Node22 -->
<g id="node23" class="node"><title>Node22</title>
<g id="a_node23"><a xlink:href="realpass_8h.html" target="_top" xlink:title="realpass.h">
<polygon fill="none" stroke="black" points="1629.77,-165.5 1629.77,-183.5 1691.91,-183.5 1691.91,-165.5 1629.77,-165.5"/>
<text text-anchor="middle" x="1660.84" y="-171.5" font-family="Helvetica,sans-Serif" font-size="10.00">realpass.h</text>
</a>
</g>
</g>
<!-- Node12&#45;&gt;Node22 -->
<g id="edge30" class="edge"><title>Node12&#45;&gt;Node22</title>
<path fill="none" stroke="midnightblue" d="M1383.53,-222.319C1436.55,-213.991 1533.37,-198.532 1615.84,-184 1616.94,-183.807 1618.05,-183.609 1619.17,-183.409"/>
<polygon fill="midnightblue" stroke="midnightblue" points="1620.18,-186.782 1629.39,-181.543 1618.92,-179.896 1620.18,-186.782"/>
</g>
<!-- Node23 -->
<g id="node24" class="node"><title>Node23</title>
<g id="a_node24"><a xlink:href="storemodel_8h.html" target="_top" xlink:title="storemodel.h">
<polygon fill="none" stroke="black" points="967.936,-165.5 967.936,-183.5 1041.74,-183.5 1041.74,-165.5 967.936,-165.5"/>
<text text-anchor="middle" x="1004.84" y="-171.5" font-family="Helvetica,sans-Serif" font-size="10.00">storemodel.h</text>
</a>
</g>
</g>
<!-- Node12&#45;&gt;Node23 -->
<g id="edge32" class="edge"><title>Node12&#45;&gt;Node23</title>
<path fill="none" stroke="midnightblue" d="M1304.29,-222.316C1241.41,-212.486 1118.9,-193.332 1051.71,-182.828"/>
<polygon fill="midnightblue" stroke="midnightblue" points="1052.24,-179.368 1041.82,-181.281 1051.15,-186.284 1052.24,-179.368"/>
</g>
<!-- Node24 -->
<g id="node25" class="node"><title>Node24</title>
<polygon fill="none" stroke="#bfbfbf" points="803.606,-110.5 803.606,-128.5 904.074,-128.5 904.074,-110.5 803.606,-110.5"/>
<text text-anchor="middle" x="853.84" y="-116.5" font-family="Helvetica,sans-Serif" font-size="10.00">QFileSystemModel</text>
</g>
<!-- Node12&#45;&gt;Node24 -->
<g id="edge43" class="edge"><title>Node12&#45;&gt;Node24</title>
<path fill="none" stroke="midnightblue" d="M1304.39,-229.4C1233.29,-229.841 1079.8,-225.365 958.84,-184 925.802,-172.702 892.029,-149.843 872.004,-134.857"/>
<polygon fill="midnightblue" stroke="midnightblue" points="873.891,-131.893 863.823,-128.595 869.637,-137.452 873.891,-131.893"/>
</g>
<!-- Node27 -->
<g id="node28" class="node"><title>Node27</title>
<g id="a_node28"><a xlink:href="trayicon_8h.html" target="_top" xlink:title="trayicon.h">
<polygon fill="none" stroke="black" points="1271.16,-165.5 1271.16,-183.5 1330.52,-183.5 1330.52,-165.5 1271.16,-165.5"/>
<text text-anchor="middle" x="1300.84" y="-171.5" font-family="Helvetica,sans-Serif" font-size="10.00">trayicon.h</text>
</a>
</g>
</g>
<!-- Node12&#45;&gt;Node27 -->
<g id="edge36" class="edge"><title>Node12&#45;&gt;Node27</title>
<path fill="none" stroke="midnightblue" d="M1337.12,-220.219C1330.9,-212.551 1321.48,-200.939 1313.8,-191.469"/>
<polygon fill="midnightblue" stroke="midnightblue" points="1316.39,-189.11 1307.37,-183.55 1310.95,-193.52 1316.39,-189.11"/>
</g>
<!-- Node30 -->
<g id="node31" class="node"><title>Node30</title>
<polygon fill="none" stroke="#bfbfbf" points="1134.33,-110.5 1134.33,-128.5 1215.35,-128.5 1215.35,-110.5 1134.33,-110.5"/>
<text text-anchor="middle" x="1174.84" y="-116.5" font-family="Helvetica,sans-Serif" font-size="10.00">QMainWindow</text>
</g>
<!-- Node12&#45;&gt;Node30 -->
<g id="edge44" class="edge"><title>Node12&#45;&gt;Node30</title>
<path fill="none" stroke="midnightblue" d="M1327.45,-220.422C1310.63,-211.945 1283.88,-197.937 1261.84,-184 1237.21,-168.426 1210.33,-148.282 1193.06,-134.904"/>
<polygon fill="midnightblue" stroke="midnightblue" points="1195.01,-131.982 1184.97,-128.584 1190.7,-137.499 1195.01,-131.982"/>
</g>
<!-- Node34 -->
<g id="node35" class="node"><title>Node34</title>
<polygon fill="none" stroke="#bfbfbf" points="1441.36,-165.5 1441.36,-183.5 1490.32,-183.5 1490.32,-165.5 1441.36,-165.5"/>
<text text-anchor="middle" x="1465.84" y="-171.5" font-family="Helvetica,sans-Serif" font-size="10.00">QTimer</text>
</g>
<!-- Node12&#45;&gt;Node34 -->
<g id="edge47" class="edge"><title>Node12&#45;&gt;Node34</title>
<path fill="none" stroke="midnightblue" d="M1362.37,-220.45C1382.43,-211.734 1414.67,-197.731 1437.83,-187.669"/>
<polygon fill="midnightblue" stroke="midnightblue" points="1439.36,-190.82 1447.14,-183.625 1436.57,-184.4 1439.36,-190.82"/>
</g>
<!-- Node35 -->
<g id="node36" class="node"><title>Node35</title>
<polygon fill="none" stroke="#bfbfbf" points="1508.1,-165.5 1508.1,-183.5 1573.58,-183.5 1573.58,-165.5 1508.1,-165.5"/>
<text text-anchor="middle" x="1540.84" y="-171.5" font-family="Helvetica,sans-Serif" font-size="10.00">QTreeView</text>
</g>
<!-- Node12&#45;&gt;Node35 -->
<g id="edge48" class="edge"><title>Node12&#45;&gt;Node35</title>
<path fill="none" stroke="midnightblue" d="M1373.76,-220.45C1407.7,-211.318 1463.22,-196.383 1500.85,-186.258"/>
<polygon fill="midnightblue" stroke="midnightblue" points="1502.21,-189.516 1510.96,-183.538 1500.4,-182.757 1502.21,-189.516"/>
</g>
<!-- Node14 -->
<g id="node15" class="node"><title>Node14</title>
<polygon fill="none" stroke="#bfbfbf" points="1752.46,-0.5 1752.46,-18.5 1819.22,-18.5 1819.22,-0.5 1752.46,-0.5"/>
<text text-anchor="middle" x="1785.84" y="-6.5" font-family="Helvetica,sans-Serif" font-size="10.00">QDateTime</text>
</g>
<!-- Node13&#45;&gt;Node14 -->
<g id="edge14" class="edge"><title>Node13&#45;&gt;Node14</title>
<path fill="none" stroke="midnightblue" d="M1785.84,-55.2188C1785.84,-48.1769 1785.84,-37.8083 1785.84,-28.8277"/>
<polygon fill="midnightblue" stroke="midnightblue" points="1789.34,-28.5495 1785.84,-18.5496 1782.34,-28.5496 1789.34,-28.5495"/>
</g>
<!-- Node15 -->
<g id="node16" class="node"><title>Node15</title>
<polygon fill="none" stroke="#bfbfbf" points="1670.89,-0.5 1670.89,-18.5 1720.79,-18.5 1720.79,-0.5 1670.89,-0.5"/>
<text text-anchor="middle" x="1695.84" y="-6.5" font-family="Helvetica,sans-Serif" font-size="10.00">QString</text>
</g>
<!-- Node13&#45;&gt;Node15 -->
<g id="edge15" class="edge"><title>Node13&#45;&gt;Node15</title>
<path fill="none" stroke="midnightblue" d="M1772.17,-55.4504C1757.9,-47.0453 1735.28,-33.7241 1718.36,-23.7618"/>
<polygon fill="midnightblue" stroke="midnightblue" points="1720.03,-20.6838 1709.64,-18.6253 1716.48,-26.7157 1720.03,-20.6838"/>
</g>
<!-- Node16&#45;&gt;Node17 -->
<g id="edge18" class="edge"><title>Node16&#45;&gt;Node17</title>
<path fill="none" stroke="midnightblue" d="M1423.55,-166.666C1426.69,-166.101 1429.82,-165.54 1432.84,-165 1520.37,-149.361 1545.25,-148.853 1635.94,-129.041"/>
<polygon fill="midnightblue" stroke="midnightblue" points="1636.81,-132.434 1645.82,-126.864 1635.31,-125.598 1636.81,-132.434"/>
</g>
<!-- Node17&#45;&gt;Node11 -->
<g id="edge20" class="edge"><title>Node17&#45;&gt;Node11</title>
<path fill="none" stroke="midnightblue" d="M1645.89,-111.795C1642.87,-111.092 1639.79,-110.465 1636.84,-110 1478.09,-85.0077 973.099,-70.2049 830.604,-66.4519"/>
<polygon fill="midnightblue" stroke="midnightblue" points="830.306,-62.943 820.218,-66.1811 830.123,-69.9406 830.306,-62.943"/>
</g>
<!-- Node17&#45;&gt;Node13 -->
<g id="edge19" class="edge"><title>Node17&#45;&gt;Node13</title>
<path fill="none" stroke="midnightblue" d="M1686.61,-110.45C1705.77,-101.773 1736.49,-87.8556 1758.68,-77.8041"/>
<polygon fill="midnightblue" stroke="midnightblue" points="1760.24,-80.9398 1767.9,-73.6253 1757.35,-74.5635 1760.24,-80.9398"/>
</g>
<!-- Node17&#45;&gt;Node15 -->
<g id="edge28" class="edge"><title>Node17&#45;&gt;Node15</title>
<path fill="none" stroke="midnightblue" d="M1670.87,-110.382C1675.19,-93.104 1685.38,-52.3294 1691.32,-28.5629"/>
<polygon fill="midnightblue" stroke="midnightblue" points="1694.76,-29.2621 1693.79,-18.7118 1687.97,-27.5643 1694.76,-29.2621"/>
</g>
<!-- Node18 -->
<g id="node19" class="node"><title>Node18</title>
<g id="a_node19"><a xlink:href="executor_8h.html" target="_top" xlink:title="executor.h">
<polygon fill="none" stroke="black" points="1457.77,-55.5 1457.77,-73.5 1519.91,-73.5 1519.91,-55.5 1457.77,-55.5"/>
<text text-anchor="middle" x="1488.84" y="-61.5" font-family="Helvetica,sans-Serif" font-size="10.00">executor.h</text>
</a>
</g>
</g>
<!-- Node17&#45;&gt;Node18 -->
<g id="edge21" class="edge"><title>Node17&#45;&gt;Node18</title>
<path fill="none" stroke="midnightblue" d="M1646.04,-111.788C1615.78,-102.876 1561.96,-87.0291 1525.84,-76.3931"/>
<polygon fill="midnightblue" stroke="midnightblue" points="1526.73,-73.0086 1516.15,-73.5415 1524.75,-79.7236 1526.73,-73.0086"/>
</g>
<!-- Node17&#45;&gt;Node19 -->
<g id="edge26" class="edge"><title>Node17&#45;&gt;Node19</title>
<path fill="none" stroke="midnightblue" d="M1651.13,-110.385C1636.68,-102.891 1616.75,-90.4387 1604.84,-74 1595.13,-60.6045 1590.34,-42.2307 1588,-28.6932"/>
<polygon fill="midnightblue" stroke="midnightblue" points="1591.44,-28.0738 1586.56,-18.6746 1584.52,-29.0713 1591.44,-28.0738"/>
</g>
<!-- Node17&#45;&gt;Node20 -->
<g id="edge27" class="edge"><title>Node17&#45;&gt;Node20</title>
<path fill="none" stroke="midnightblue" d="M1654.37,-110.462C1638.64,-101.674 1612.8,-87.094 1590.84,-74 1562.72,-57.2327 1530.74,-37.1551 1510.2,-24.1297"/>
<polygon fill="midnightblue" stroke="midnightblue" points="1511.94,-21.0895 1501.62,-18.6786 1508.19,-26.997 1511.94,-21.0895"/>
</g>
<!-- Node21 -->
<g id="node22" class="node"><title>Node21</title>
<polygon fill="none" stroke="#bfbfbf" points="1614.17,-55.5 1614.17,-73.5 1653.51,-73.5 1653.51,-55.5 1614.17,-55.5"/>
<text text-anchor="middle" x="1633.84" y="-61.5" font-family="Helvetica,sans-Serif" font-size="10.00">QList</text>
</g>
<!-- Node17&#45;&gt;Node21 -->
<g id="edge25" class="edge"><title>Node17&#45;&gt;Node21</title>
<path fill="none" stroke="midnightblue" d="M1663.37,-110.219C1658.41,-102.707 1650.95,-91.411 1644.77,-82.0515"/>
<polygon fill="midnightblue" stroke="midnightblue" points="1647.59,-79.9655 1639.16,-73.5496 1641.75,-83.823 1647.59,-79.9655"/>
</g>
<!-- Node18&#45;&gt;Node6 -->
<g id="edge22" class="edge"><title>Node18&#45;&gt;Node6</title>
<path fill="none" stroke="midnightblue" d="M1457.69,-60.6879C1357.8,-51.6683 1045.71,-23.49 938.463,-13.8067"/>
<polygon fill="midnightblue" stroke="midnightblue" points="938.72,-10.3158 928.446,-12.9023 938.091,-17.2874 938.72,-10.3158"/>
</g>
<!-- Node18&#45;&gt;Node19 -->
<g id="edge23" class="edge"><title>Node18&#45;&gt;Node19</title>
<path fill="none" stroke="midnightblue" d="M1503.57,-55.4504C1519.1,-46.9675 1543.79,-33.477 1562.07,-23.486"/>
<polygon fill="midnightblue" stroke="midnightblue" points="1563.87,-26.4917 1570.97,-18.6253 1560.52,-20.3488 1563.87,-26.4917"/>
</g>
<!-- Node18&#45;&gt;Node20 -->
<g id="edge24" class="edge"><title>Node18&#45;&gt;Node20</title>
<path fill="none" stroke="midnightblue" d="M1488.84,-55.2188C1488.84,-48.1769 1488.84,-37.8083 1488.84,-28.8277"/>
<polygon fill="midnightblue" stroke="midnightblue" points="1492.34,-28.5495 1488.84,-18.5496 1485.34,-28.5496 1492.34,-28.5495"/>
</g>
<!-- Node22&#45;&gt;Node17 -->
<g id="edge31" class="edge"><title>Node22&#45;&gt;Node17</title>
<path fill="none" stroke="midnightblue" d="M1662.09,-165.219C1663.16,-158.099 1664.75,-147.577 1666.12,-138.529"/>
<polygon fill="midnightblue" stroke="midnightblue" points="1669.59,-138.96 1667.62,-128.55 1662.67,-137.915 1669.59,-138.96"/>
</g>
<!-- Node23&#45;&gt;Node24 -->
<g id="edge33" class="edge"><title>Node23&#45;&gt;Node24</title>
<path fill="none" stroke="midnightblue" d="M981.906,-165.45C956.518,-156.539 915.388,-142.103 886.608,-132.001"/>
<polygon fill="midnightblue" stroke="midnightblue" points="887.584,-128.635 876.989,-128.625 885.266,-135.24 887.584,-128.635"/>
</g>
<!-- Node25 -->
<g id="node26" class="node"><title>Node25</title>
<polygon fill="none" stroke="#bfbfbf" points="922.163,-110.5 922.163,-128.5 981.517,-128.5 981.517,-110.5 922.163,-110.5"/>
<text text-anchor="middle" x="951.84" y="-116.5" font-family="Helvetica,sans-Serif" font-size="10.00">QRegExp</text>
</g>
<!-- Node23&#45;&gt;Node25 -->
<g id="edge34" class="edge"><title>Node23&#45;&gt;Node25</title>
<path fill="none" stroke="midnightblue" d="M996.559,-165.219C988.734,-157.394 976.803,-145.463 967.232,-135.892"/>
<polygon fill="midnightblue" stroke="midnightblue" points="969.435,-133.146 959.889,-128.55 964.486,-138.096 969.435,-133.146"/>
</g>
<!-- Node26 -->
<g id="node27" class="node"><title>Node26</title>
<polygon fill="none" stroke="#bfbfbf" points="999.271,-110.5 999.271,-128.5 1116.41,-128.5 1116.41,-110.5 999.271,-110.5"/>
<text text-anchor="middle" x="1057.84" y="-116.5" font-family="Helvetica,sans-Serif" font-size="10.00">QSortFilterProxyModel</text>
</g>
<!-- Node23&#45;&gt;Node26 -->
<g id="edge35" class="edge"><title>Node23&#45;&gt;Node26</title>
<path fill="none" stroke="midnightblue" d="M1013.12,-165.219C1020.95,-157.394 1032.88,-145.463 1042.45,-135.892"/>
<polygon fill="midnightblue" stroke="midnightblue" points="1045.19,-138.096 1049.79,-128.55 1040.24,-133.146 1045.19,-138.096"/>
</g>
<!-- Node28 -->
<g id="node29" class="node"><title>Node28</title>
<polygon fill="none" stroke="#bfbfbf" points="1419.05,-110.5 1419.05,-128.5 1470.63,-128.5 1470.63,-110.5 1419.05,-110.5"/>
<text text-anchor="middle" x="1444.84" y="-116.5" font-family="Helvetica,sans-Serif" font-size="10.00">QAction</text>
</g>
<!-- Node27&#45;&gt;Node28 -->
<g id="edge37" class="edge"><title>Node27&#45;&gt;Node28</title>
<path fill="none" stroke="midnightblue" d="M1322.71,-165.45C1346.82,-156.578 1385.8,-142.229 1413.23,-132.134"/>
<polygon fill="midnightblue" stroke="midnightblue" points="1414.59,-135.364 1422.76,-128.625 1412.17,-128.795 1414.59,-135.364"/>
</g>
<!-- Node29 -->
<g id="node30" class="node"><title>Node29</title>
<polygon fill="none" stroke="#bfbfbf" points="1488.49,-110.5 1488.49,-128.5 1561.19,-128.5 1561.19,-110.5 1488.49,-110.5"/>
<text text-anchor="middle" x="1524.84" y="-116.5" font-family="Helvetica,sans-Serif" font-size="10.00">QApplication</text>
</g>
<!-- Node27&#45;&gt;Node29 -->
<g id="edge38" class="edge"><title>Node27&#45;&gt;Node29</title>
<path fill="none" stroke="midnightblue" d="M1330.59,-166.462C1369.12,-157.345 1436.6,-141.378 1481.01,-130.871"/>
<polygon fill="midnightblue" stroke="midnightblue" points="1482.01,-134.23 1490.94,-128.521 1480.4,-127.418 1482.01,-134.23"/>
</g>
<!-- Node27&#45;&gt;Node30 -->
<g id="edge39" class="edge"><title>Node27&#45;&gt;Node30</title>
<path fill="none" stroke="midnightblue" d="M1281.7,-165.45C1260.89,-156.695 1227.39,-142.606 1203.45,-132.535"/>
<polygon fill="midnightblue" stroke="midnightblue" points="1204.73,-129.276 1194.16,-128.625 1202.02,-135.729 1204.73,-129.276"/>
</g>
<!-- Node31 -->
<g id="node32" class="node"><title>Node31</title>
<polygon fill="none" stroke="#bfbfbf" points="1579.44,-110.5 1579.44,-128.5 1628.24,-128.5 1628.24,-110.5 1579.44,-110.5"/>
<text text-anchor="middle" x="1603.84" y="-116.5" font-family="Helvetica,sans-Serif" font-size="10.00">QMenu</text>
</g>
<!-- Node27&#45;&gt;Node31 -->
<g id="edge40" class="edge"><title>Node27&#45;&gt;Node31</title>
<path fill="none" stroke="midnightblue" d="M1330.61,-166.82C1333.72,-166.18 1336.84,-165.561 1339.84,-165 1438.46,-146.551 1466.74,-149.371 1569.54,-128.881"/>
<polygon fill="midnightblue" stroke="midnightblue" points="1570.28,-132.302 1579.39,-126.892 1568.89,-125.44 1570.28,-132.302"/>
</g>
<!-- Node32 -->
<g id="node33" class="node"><title>Node32</title>
<polygon fill="none" stroke="#bfbfbf" points="1233.01,-110.5 1233.01,-128.5 1328.67,-128.5 1328.67,-110.5 1233.01,-110.5"/>
<text text-anchor="middle" x="1280.84" y="-116.5" font-family="Helvetica,sans-Serif" font-size="10.00">QSystemTrayIcon</text>
</g>
<!-- Node27&#45;&gt;Node32 -->
<g id="edge41" class="edge"><title>Node27&#45;&gt;Node32</title>
<path fill="none" stroke="midnightblue" d="M1297.71,-165.219C1294.97,-157.942 1290.88,-147.113 1287.42,-137.934"/>
<polygon fill="midnightblue" stroke="midnightblue" points="1290.68,-136.67 1283.88,-128.55 1284.13,-139.141 1290.68,-136.67"/>
</g>
<!-- Node33 -->
<g id="node34" class="node"><title>Node33</title>
<polygon fill="none" stroke="#bfbfbf" points="1346.39,-110.5 1346.39,-128.5 1401.29,-128.5 1401.29,-110.5 1346.39,-110.5"/>
<text text-anchor="middle" x="1373.84" y="-116.5" font-family="Helvetica,sans-Serif" font-size="10.00">QWidget</text>
</g>
<!-- Node27&#45;&gt;Node33 -->
<g id="edge42" class="edge"><title>Node27&#45;&gt;Node33</title>
<path fill="none" stroke="midnightblue" d="M1311.93,-165.45C1323.18,-157.279 1340.84,-144.46 1354.42,-134.6"/>
<polygon fill="midnightblue" stroke="midnightblue" points="1356.61,-137.333 1362.65,-128.625 1352.5,-131.668 1356.61,-137.333"/>
</g>
</g>
</svg>
        <g id="navigator" transform="translate(0 0)" fill="#404254">
                <rect fill="#f2f5e9" fill-opacity="0.5" stroke="#606060" stroke-width=".5" x="0" y="0" width="60" height="60"/>
                <use id="zoomplus" xlink:href="#zoomPlus" x="17" y="9" onmousedown="handleZoom(evt,'in')"/>
                <use id="zoomminus" xlink:href="#zoomMin" x="42" y="9" onmousedown="handleZoom(evt,'out')"/>
                <use id="reset" xlink:href="#resetDef" x="30" y="36" onmousedown="handleReset()"/>
                <g id="arrowUp" xlink:href="#dirArrow" transform="translate(30 24)" onmousedown="handlePan(0,-1)">
                  <use xlink:href="#rim" fill="#404040">
                        <set attributeName="fill" to="#808080" begin="arrowUp.mouseover" end="arrowUp.mouseout"/>
                  </use>
                  <path fill="none" stroke="white" stroke-width="1.5" d="M0,-3.0v7 M-2.5,-0.5L0,-3.0L2.5,-0.5"/>
                </g>
                <g id="arrowRight" xlink:href="#dirArrow" transform="rotate(90) translate(36 -43)" onmousedown="handlePan(1,0)">
                  <use xlink:href="#rim" fill="#404040">
                        <set attributeName="fill" to="#808080" begin="arrowRight.mouseover" end="arrowRight.mouseout"/>
                  </use>
                  <path fill="none" stroke="white" stroke-width="1.5" d="M0,-3.0v7 M-2.5,-0.5L0,-3.0L2.5,-0.5"/>
                </g>
                <g id="arrowDown" xlink:href="#dirArrow" transform="rotate(180) translate(-30 -48)" onmousedown="handlePan(0,1)">
                  <use xlink:href="#rim" fill="#404040">
                        <set attributeName="fill" to="#808080" begin="arrowDown.mouseover" end="arrowDown.mouseout"/>
                  </use>
                  <path fill="none" stroke="white" stroke-width="1.5" d="M0,-3.0v7 M-2.5,-0.5L0,-3.0L2.5,-0.5"/>
                </g>
                <g id="arrowLeft" xlink:href="#dirArrow" transform="rotate(270) translate(-36 17)" onmousedown="handlePan(-1,0)">
                  <use xlink:href="#rim" fill="#404040">
                        <set attributeName="fill" to="#808080" begin="arrowLeft.mouseover" end="arrowLeft.mouseout"/>
                  </use>
                  <path fill="none" stroke="white" stroke-width="1.5" d="M0,-3.0v7 M-2.5,-0.5L0,-3.0L2.5,-0.5"/>
                </g>
        </g>
        <svg viewBox="0 0 15 15" width="100%" height="30px" preserveAspectRatio="xMaxYMin meet">
         <g id="arrow_out" transform="scale(0.3 0.3)">
          <a xlink:href="qtpasssettings_8h__incl_org.svg" target="_base">
           <rect id="button" ry="5" rx="5" y="6" x="6" height="38" width="38"
                fill="#f2f5e9" fill-opacity="0.5" stroke="#606060" stroke-width="1.0"/>
           <path id="arrow"
             d="M 11.500037,31.436501 C 11.940474,20.09759 22.043105,11.32322 32.158766,21.979434 L 37.068811,17.246167 C 37.068811,17.246167 37.088388,32 37.088388,32 L 22.160133,31.978069 C 22.160133,31.978069 26.997745,27.140456 26.997745,27.140456 C 18.528582,18.264221 13.291696,25.230495 11.500037,31.436501 z"
             style="fill:#404040;"/>
          </a>
         </g>
        </svg>
</svg>
