<?xml version="1.0" encoding="UTF-8" standalone="no"?>
<!DOCTYPE svg PUBLIC "-//W3C//DTD SVG 1.1//EN"
 "http://www.w3.org/Graphics/SVG/1.1/DTD/svg11.dtd">
<!-- Generated by graphviz version 2.43.0 (0)
 -->
<!-- Title: src/qtpass.cpp Pages: 1 -->
<svg width="1975pt" height="302pt"
 viewBox="0.00 0.00 1975.00 302.00" xmlns="http://www.w3.org/2000/svg" xmlns:xlink="http://www.w3.org/1999/xlink">
<g id="graph0" class="graph" transform="scale(1 1) rotate(0) translate(4 298)">
<title>src/qtpass.cpp</title>
<!-- Node1 -->
<g id="Node000001" class="node">
<title>Node1</title>
<g id="a_Node000001"><a xlink:title=" ">
<polygon fill="#999999" stroke="#666666" points="1409,-294 1323,-294 1323,-275 1409,-275 1409,-294"/>
<text text-anchor="middle" x="1366" y="-282" font-family="Helvetica,sans-Serif" font-size="10.00">src/qtpass.cpp</text>
</a>
</g>
</g>
<!-- Node2 -->
<g id="Node000002" class="node">
<title>Node2</title>
<g id="a_Node000002"><a xlink:href="qtpass_8h.html" target="_top" xlink:title=" ">
<polygon fill="white" stroke="#666666" points="186,-239 128,-239 128,-220 186,-220 186,-239"/>
<text text-anchor="middle" x="157" y="-227" font-family="Helvetica,sans-Serif" font-size="10.00">qtpass.h</text>
</a>
</g>
</g>
<!-- Node1&#45;&gt;Node2 -->
<g id="edge1_Node000001_Node000002" class="edge">
<title>Node1&#45;&gt;Node2</title>
<g id="a_edge1_Node000001_Node000002"><a xlink:title=" ">
<path fill="none" stroke="#63b8ff" d="M1322.61,-281.73C1180.41,-275.89 715.48,-256.66 331,-239 284.86,-236.88 231.86,-234.27 196.59,-232.5"/>
<polygon fill="#63b8ff" stroke="#63b8ff" points="196.41,-228.99 186.24,-231.98 196.06,-235.98 196.41,-228.99"/>
</a>
</g>
</g>
<!-- Node3 -->
<g id="Node000003" class="node">
<title>Node3</title>
<g id="a_Node000003"><a xlink:title=" ">
<polygon fill="#e0e0e0" stroke="#999999" points="56,-184 0,-184 0,-165 56,-165 56,-184"/>
<text text-anchor="middle" x="28" y="-172" font-family="Helvetica,sans-Serif" font-size="10.00">QDialog</text>
</a>
</g>
</g>
<!-- Node1&#45;&gt;Node3 -->
<g id="edge57_Node000001_Node000003" class="edge">
<title>Node1&#45;&gt;Node3</title>
<g id="a_edge57_Node000001_Node000003"><a xlink:title=" ">
<path fill="none" stroke="#63b8ff" d="M1322.74,-283.41C1116.11,-282.76 234.96,-277.74 119,-239 89.48,-229.14 60.98,-206.43 43.96,-191.02"/>
<polygon fill="#63b8ff" stroke="#63b8ff" points="46.28,-188.4 36.58,-184.13 41.5,-193.51 46.28,-188.4"/>
</a>
</g>
</g>
<!-- Node5 -->
<g id="Node000005" class="node">
<title>Node5</title>
<g id="a_Node000005"><a xlink:title=" ">
<polygon fill="#e0e0e0" stroke="#999999" points="211.5,-184 150.5,-184 150.5,-165 211.5,-165 211.5,-184"/>
<text text-anchor="middle" x="181" y="-172" font-family="Helvetica,sans-Serif" font-size="10.00">QPixmap</text>
</a>
</g>
</g>
<!-- Node1&#45;&gt;Node5 -->
<g id="edge59_Node000001_Node000005" class="edge">
<title>Node1&#45;&gt;Node5</title>
<g id="a_edge59_Node000001_Node000005"><a xlink:title=" ">
<path fill="none" stroke="#63b8ff" d="M1322.92,-283.88C1193.4,-284.49 796.38,-282.41 471,-239 380.82,-226.97 277.13,-201.34 221.43,-186.58"/>
<polygon fill="#63b8ff" stroke="#63b8ff" points="222.17,-183.16 211.6,-183.96 220.36,-189.92 222.17,-183.16"/>
</a>
</g>
</g>
<!-- Node8 -->
<g id="Node000008" class="node">
<title>Node8</title>
<g id="a_Node000008"><a xlink:href="mainwindow_8h.html" target="_top" xlink:title=" ">
<polygon fill="white" stroke="#666666" points="566.5,-239 479.5,-239 479.5,-220 566.5,-220 566.5,-239"/>
<text text-anchor="middle" x="523" y="-227" font-family="Helvetica,sans-Serif" font-size="10.00">mainwindow.h</text>
</a>
</g>
</g>
<!-- Node1&#45;&gt;Node8 -->
<g id="edge7_Node000001_Node000008" class="edge">
<title>Node1&#45;&gt;Node8</title>
<g id="a_edge7_Node000001_Node000008"><a xlink:title=" ">
<path fill="none" stroke="#63b8ff" d="M1322.74,-280.78C1181.29,-271.89 732.57,-243.68 576.85,-233.89"/>
<polygon fill="#63b8ff" stroke="#63b8ff" points="576.79,-230.37 566.59,-233.24 576.35,-237.36 576.79,-230.37"/>
</a>
</g>
</g>
<!-- Node14 -->
<g id="Node000014" class="node">
<title>Node14</title>
<g id="a_Node000014"><a xlink:href="qtpasssettings_8h.html" target="_top" xlink:title=" ">
<polygon fill="white" stroke="#666666" points="1203.5,-239 1106.5,-239 1106.5,-220 1203.5,-220 1203.5,-239"/>
<text text-anchor="middle" x="1155" y="-227" font-family="Helvetica,sans-Serif" font-size="10.00">qtpasssettings.h</text>
</a>
</g>
</g>
<!-- Node1&#45;&gt;Node14 -->
<g id="edge15_Node000001_Node000014" class="edge">
<title>Node1&#45;&gt;Node14</title>
<g id="a_edge15_Node000001_Node000014"><a xlink:title=" ">
<path fill="none" stroke="#63b8ff" d="M1332.1,-274.98C1295.98,-265.91 1238.68,-251.52 1199.08,-241.57"/>
<polygon fill="#63b8ff" stroke="#63b8ff" points="1199.72,-238.12 1189.17,-239.08 1198.01,-244.91 1199.72,-238.12"/>
</a>
</g>
</g>
<!-- Node38 -->
<g id="Node000038" class="node">
<title>Node38</title>
<g id="a_Node000038"><a xlink:href="util_8h.html" target="_top" xlink:title=" ">
<polygon fill="white" stroke="#666666" points="1262.5,-239 1221.5,-239 1221.5,-220 1262.5,-220 1262.5,-239"/>
<text text-anchor="middle" x="1242" y="-227" font-family="Helvetica,sans-Serif" font-size="10.00">util.h</text>
</a>
</g>
</g>
<!-- Node1&#45;&gt;Node38 -->
<g id="edge49_Node000001_Node000038" class="edge">
<title>Node1&#45;&gt;Node38</title>
<g id="a_edge49_Node000001_Node000038"><a xlink:title=" ">
<path fill="none" stroke="#63b8ff" d="M1346.08,-274.98C1325.95,-266.38 1294.62,-252.99 1271.59,-243.15"/>
<polygon fill="#63b8ff" stroke="#63b8ff" points="1272.86,-239.88 1262.29,-239.17 1270.1,-246.32 1272.86,-239.88"/>
</a>
</g>
</g>
<!-- Node41 -->
<g id="Node000041" class="node">
<title>Node41</title>
<g id="a_Node000041"><a xlink:title=" ">
<polygon fill="#e0e0e0" stroke="#999999" points="1359.5,-239 1280.5,-239 1280.5,-220 1359.5,-220 1359.5,-239"/>
<text text-anchor="middle" x="1320" y="-227" font-family="Helvetica,sans-Serif" font-size="10.00">QApplication</text>
</a>
</g>
</g>
<!-- Node1&#45;&gt;Node41 -->
<g id="edge55_Node000001_Node000041" class="edge">
<title>Node1&#45;&gt;Node41</title>
<g id="a_edge55_Node000001_Node000041"><a xlink:title=" ">
<path fill="none" stroke="#63b8ff" d="M1358.4,-274.75C1351.84,-267.18 1342.18,-256.05 1334.19,-246.84"/>
<polygon fill="#63b8ff" stroke="#63b8ff" points="1336.65,-244.35 1327.45,-239.09 1331.37,-248.94 1336.65,-244.35"/>
</a>
</g>
</g>
<!-- Node42 -->
<g id="Node000042" class="node">
<title>Node42</title>
<g id="a_Node000042"><a xlink:title=" ">
<polygon fill="#e0e0e0" stroke="#999999" points="1448.5,-239 1377.5,-239 1377.5,-220 1448.5,-220 1448.5,-239"/>
<text text-anchor="middle" x="1413" y="-227" font-family="Helvetica,sans-Serif" font-size="10.00">QClipboard</text>
</a>
</g>
</g>
<!-- Node1&#45;&gt;Node42 -->
<g id="edge56_Node000001_Node000042" class="edge">
<title>Node1&#45;&gt;Node42</title>
<g id="a_edge56_Node000001_Node000042"><a xlink:title=" ">
<path fill="none" stroke="#63b8ff" d="M1373.76,-274.75C1380.47,-267.18 1390.34,-256.05 1398.51,-246.84"/>
<polygon fill="#63b8ff" stroke="#63b8ff" points="1401.37,-248.89 1405.38,-239.09 1396.13,-244.25 1401.37,-248.89"/>
</a>
</g>
</g>
<!-- Node43 -->
<g id="Node000043" class="node">
<title>Node43</title>
<g id="a_Node000043"><a xlink:title=" ">
<polygon fill="#e0e0e0" stroke="#999999" points="1517,-239 1467,-239 1467,-220 1517,-220 1517,-239"/>
<text text-anchor="middle" x="1492" y="-227" font-family="Helvetica,sans-Serif" font-size="10.00">QLabel</text>
</a>
</g>
</g>
<!-- Node1&#45;&gt;Node43 -->
<g id="edge58_Node000001_Node000043" class="edge">
<title>Node1&#45;&gt;Node43</title>
<g id="a_edge58_Node000001_Node000043"><a xlink:title=" ">
<path fill="none" stroke="#63b8ff" d="M1386.24,-274.98C1406.7,-266.38 1438.53,-252.99 1461.93,-243.15"/>
<polygon fill="#63b8ff" stroke="#63b8ff" points="1463.53,-246.27 1471.39,-239.17 1460.81,-239.82 1463.53,-246.27"/>
</a>
</g>
</g>
<!-- Node44 -->
<g id="Node000044" class="node">
<title>Node44</title>
<g id="a_Node000044"><a xlink:title=" ">
<polygon fill="#e0e0e0" stroke="#999999" points="1618.5,-239 1535.5,-239 1535.5,-220 1618.5,-220 1618.5,-239"/>
<text text-anchor="middle" x="1577" y="-227" font-family="Helvetica,sans-Serif" font-size="10.00">QVBoxLayout</text>
</a>
</g>
</g>
<!-- Node1&#45;&gt;Node44 -->
<g id="edge60_Node000001_Node000044" class="edge">
<title>Node1&#45;&gt;Node44</title>
<g id="a_edge60_Node000001_Node000044"><a xlink:title=" ">
<path fill="none" stroke="#63b8ff" d="M1399.9,-274.98C1436.02,-265.91 1493.32,-251.52 1532.92,-241.57"/>
<polygon fill="#63b8ff" stroke="#63b8ff" points="1533.99,-244.91 1542.83,-239.08 1532.28,-238.12 1533.99,-244.91"/>
</a>
</g>
</g>
<!-- Node45 -->
<g id="Node000045" class="node">
<title>Node45</title>
<g id="a_Node000045"><a xlink:title=" ">
<polygon fill="#e0e0e0" stroke="#999999" points="1717,-239 1637,-239 1637,-220 1717,-220 1717,-239"/>
<text text-anchor="middle" x="1677" y="-227" font-family="Helvetica,sans-Serif" font-size="10.00">QInputDialog</text>
</a>
</g>
</g>
<!-- Node1&#45;&gt;Node45 -->
<g id="edge61_Node000001_Node000045" class="edge">
<title>Node1&#45;&gt;Node45</title>
<g id="a_edge61_Node000001_Node000045"><a xlink:title=" ">
<path fill="none" stroke="#63b8ff" d="M1409.12,-276.22C1459.03,-267.79 1543.96,-253.41 1626.8,-239.2"/>
<polygon fill="#63b8ff" stroke="#63b8ff" points="1627.63,-242.61 1636.89,-237.47 1626.44,-235.71 1627.63,-242.61"/>
</a>
</g>
</g>
<!-- Node46 -->
<g id="Node000046" class="node">
<title>Node46</title>
<g id="a_Node000046"><a xlink:title=" ">
<polygon fill="#e0e0e0" stroke="#999999" points="1798.5,-239 1735.5,-239 1735.5,-220 1798.5,-220 1798.5,-239"/>
<text text-anchor="middle" x="1767" y="-227" font-family="Helvetica,sans-Serif" font-size="10.00">QLineEdit</text>
</a>
</g>
</g>
<!-- Node1&#45;&gt;Node46 -->
<g id="edge62_Node000001_Node000046" class="edge">
<title>Node1&#45;&gt;Node46</title>
<g id="a_edge62_Node000001_Node000046"><a xlink:title=" ">
<path fill="none" stroke="#63b8ff" d="M1409.11,-279.32C1474.97,-272.68 1604.79,-258.6 1725.14,-239.01"/>
<polygon fill="#63b8ff" stroke="#63b8ff" points="1725.96,-242.42 1735.26,-237.35 1724.83,-235.52 1725.96,-242.42"/>
</a>
</g>
</g>
<!-- Node47 -->
<g id="Node000047" class="node">
<title>Node47</title>
<g id="a_Node000047"><a xlink:title=" ">
<polygon fill="#e0e0e0" stroke="#999999" points="1891.5,-239 1816.5,-239 1816.5,-220 1891.5,-220 1891.5,-239"/>
<text text-anchor="middle" x="1854" y="-227" font-family="Helvetica,sans-Serif" font-size="10.00">QMimeData</text>
</a>
</g>
</g>
<!-- Node1&#45;&gt;Node47 -->
<g id="edge63_Node000001_Node000047" class="edge">
<title>Node1&#45;&gt;Node47</title>
<g id="a_edge63_Node000001_Node000047"><a xlink:title=" ">
<path fill="none" stroke="#63b8ff" d="M1409.12,-280.35C1486.66,-274.42 1654.92,-260.37 1806.43,-239.12"/>
<polygon fill="#63b8ff" stroke="#63b8ff" points="1806.98,-242.58 1816.39,-237.71 1805.99,-235.65 1806.98,-242.58"/>
</a>
</g>
</g>
<!-- Node48 -->
<g id="Node000048" class="node">
<title>Node48</title>
<g id="a_Node000048"><a xlink:title=" ">
<polygon fill="#e0e0e0" stroke="#999999" points="1954.5,-239 1909.5,-239 1909.5,-220 1954.5,-220 1954.5,-239"/>
<text text-anchor="middle" x="1932" y="-227" font-family="Helvetica,sans-Serif" font-size="10.00">utility</text>
</a>
</g>
</g>
<!-- Node1&#45;&gt;Node48 -->
<g id="edge64_Node000001_Node000048" class="edge">
<title>Node1&#45;&gt;Node48</title>
<g id="a_edge64_Node000001_Node000048"><a xlink:title=" ">
<path fill="none" stroke="#63b8ff" d="M1409.34,-282.6C1499.24,-280.16 1712.53,-271.34 1899.42,-238.97"/>
<polygon fill="#63b8ff" stroke="#63b8ff" points="1900.18,-242.39 1909.42,-237.21 1898.97,-235.49 1900.18,-242.39"/>
</a>
</g>
</g>
<!-- Node2&#45;&gt;Node3 -->
<g id="edge2_Node000002_Node000003" class="edge">
<title>Node2&#45;&gt;Node3</title>
<g id="a_edge2_Node000002_Node000003"><a xlink:title=" ">
<path fill="none" stroke="#63b8ff" d="M136.27,-219.98C115.24,-211.34 82.45,-197.87 58.46,-188.02"/>
<polygon fill="#63b8ff" stroke="#63b8ff" points="59.68,-184.73 49.1,-184.17 57.02,-191.21 59.68,-184.73"/>
</a>
</g>
</g>
<!-- Node4 -->
<g id="Node000004" class="node">
<title>Node4</title>
<g id="a_Node000004"><a xlink:title=" ">
<polygon fill="#e0e0e0" stroke="#999999" points="502,-19 446,-19 446,0 502,0 502,-19"/>
<text text-anchor="middle" x="474" y="-7" font-family="Helvetica,sans-Serif" font-size="10.00">QObject</text>
</a>
</g>
</g>
<!-- Node2&#45;&gt;Node4 -->
<g id="edge3_Node000002_Node000004" class="edge">
<title>Node2&#45;&gt;Node4</title>
<g id="a_edge3_Node000002_Node000004"><a xlink:title=" ">
<path fill="none" stroke="#63b8ff" d="M141.87,-219.73C130.19,-211.99 114.88,-199.55 108,-184 84.79,-131.57 69.98,-97.92 108,-55 129.51,-30.72 346.47,-16.99 435.84,-12.32"/>
<polygon fill="#63b8ff" stroke="#63b8ff" points="436.03,-15.82 445.83,-11.81 435.67,-8.83 436.03,-15.82"/>
</a>
</g>
</g>
<!-- Node2&#45;&gt;Node5 -->
<g id="edge4_Node000002_Node000005" class="edge">
<title>Node2&#45;&gt;Node5</title>
<g id="a_edge4_Node000002_Node000005"><a xlink:title=" ">
<path fill="none" stroke="#63b8ff" d="M160.96,-219.75C164.21,-212.57 168.92,-202.18 172.95,-193.27"/>
<polygon fill="#63b8ff" stroke="#63b8ff" points="176.17,-194.64 177.11,-184.09 169.8,-191.75 176.17,-194.64"/>
</a>
</g>
</g>
<!-- Node6 -->
<g id="Node000006" class="node">
<title>Node6</title>
<g id="a_Node000006"><a xlink:title=" ">
<polygon fill="#e0e0e0" stroke="#999999" points="1066,-19 1004,-19 1004,0 1066,0 1066,-19"/>
<text text-anchor="middle" x="1035" y="-7" font-family="Helvetica,sans-Serif" font-size="10.00">QProcess</text>
</a>
</g>
</g>
<!-- Node2&#45;&gt;Node6 -->
<g id="edge5_Node000002_Node000006" class="edge">
<title>Node2&#45;&gt;Node6</title>
<g id="a_edge5_Node000002_Node000006"><a xlink:title=" ">
<path fill="none" stroke="#63b8ff" d="M150.62,-219.77C141.83,-206.6 128.45,-181.45 141,-165 253.37,-17.75 360.71,-87.92 543,-55 708.49,-25.12 909.09,-14.91 993.94,-11.76"/>
<polygon fill="#63b8ff" stroke="#63b8ff" points="994.08,-15.26 1003.95,-11.4 993.83,-8.26 994.08,-15.26"/>
</a>
</g>
</g>
<!-- Node7 -->
<g id="Node000007" class="node">
<title>Node7</title>
<g id="a_Node000007"><a xlink:title=" ">
<polygon fill="#e0e0e0" stroke="#999999" points="282.5,-184 229.5,-184 229.5,-165 282.5,-165 282.5,-184"/>
<text text-anchor="middle" x="256" y="-172" font-family="Helvetica,sans-Serif" font-size="10.00">QTimer</text>
</a>
</g>
</g>
<!-- Node2&#45;&gt;Node7 -->
<g id="edge6_Node000002_Node000007" class="edge">
<title>Node2&#45;&gt;Node7</title>
<g id="a_edge6_Node000002_Node000007"><a xlink:title=" ">
<path fill="none" stroke="#63b8ff" d="M172.91,-219.98C188.55,-211.61 212.66,-198.7 230.88,-188.95"/>
<polygon fill="#63b8ff" stroke="#63b8ff" points="232.64,-191.98 239.8,-184.17 229.34,-185.8 232.64,-191.98"/>
</a>
</g>
</g>
<!-- Node8&#45;&gt;Node6 -->
<g id="edge13_Node000008_Node000006" class="edge">
<title>Node8&#45;&gt;Node6</title>
<g id="a_edge13_Node000008_Node000006"><a xlink:title=" ">
<path fill="none" stroke="#63b8ff" d="M479.35,-224.65C428.27,-219.13 348.31,-207.01 330,-184 324.74,-177.39 324.71,-171.58 330,-165 414.59,-59.86 855.9,-22.27 993.79,-12.99"/>
<polygon fill="#63b8ff" stroke="#63b8ff" points="994.19,-16.47 1003.94,-12.32 993.73,-9.49 994.19,-16.47"/>
</a>
</g>
</g>
<!-- Node8&#45;&gt;Node7 -->
<g id="edge14_Node000008_Node000007" class="edge">
<title>Node8&#45;&gt;Node7</title>
<g id="a_edge14_Node000008_Node000007"><a xlink:title=" ">
<path fill="none" stroke="#63b8ff" d="M479.23,-220.02C433.68,-211.16 360.3,-196.79 297,-184 295.72,-183.74 294.41,-183.48 293.09,-183.21"/>
<polygon fill="#63b8ff" stroke="#63b8ff" points="293.4,-179.7 282.9,-181.12 291.99,-186.55 293.4,-179.7"/>
</a>
</g>
</g>
<!-- Node9 -->
<g id="Node000009" class="node">
<title>Node9</title>
<g id="a_Node000009"><a xlink:href="storemodel_8h.html" target="_top" xlink:title=" ">
<polygon fill="white" stroke="#666666" points="756.5,-184 675.5,-184 675.5,-165 756.5,-165 756.5,-184"/>
<text text-anchor="middle" x="716" y="-172" font-family="Helvetica,sans-Serif" font-size="10.00">storemodel.h</text>
</a>
</g>
</g>
<!-- Node8&#45;&gt;Node9 -->
<g id="edge8_Node000008_Node000009" class="edge">
<title>Node8&#45;&gt;Node9</title>
<g id="a_edge8_Node000008_Node000009"><a xlink:title=" ">
<path fill="none" stroke="#63b8ff" d="M554.01,-219.98C586.83,-210.97 638.8,-196.7 674.99,-186.76"/>
<polygon fill="#63b8ff" stroke="#63b8ff" points="676.03,-190.11 684.75,-184.08 674.18,-183.36 676.03,-190.11"/>
</a>
</g>
</g>
<!-- Node11 -->
<g id="Node000011" class="node">
<title>Node11</title>
<g id="a_Node000011"><a xlink:title=" ">
<polygon fill="#e0e0e0" stroke="#999999" points="1453,-184 1345,-184 1345,-165 1453,-165 1453,-184"/>
<text text-anchor="middle" x="1399" y="-172" font-family="Helvetica,sans-Serif" font-size="10.00">QFileSystemModel</text>
</a>
</g>
</g>
<!-- Node8&#45;&gt;Node11 -->
<g id="edge10_Node000008_Node000011" class="edge">
<title>Node8&#45;&gt;Node11</title>
<g id="a_edge10_Node000008_Node000011"><a xlink:title=" ">
<path fill="none" stroke="#63b8ff" d="M566.72,-227.33C687.31,-223.84 1035.01,-212.02 1334.55,-184.06"/>
<polygon fill="#63b8ff" stroke="#63b8ff" points="1335.11,-187.52 1344.74,-183.1 1334.45,-180.55 1335.11,-187.52"/>
</a>
</g>
</g>
<!-- Node12 -->
<g id="Node000012" class="node">
<title>Node12</title>
<g id="a_Node000012"><a xlink:title=" ">
<polygon fill="#e0e0e0" stroke="#999999" points="461,-184 339,-184 339,-165 461,-165 461,-184"/>
<text text-anchor="middle" x="400" y="-172" font-family="Helvetica,sans-Serif" font-size="10.00">QItemSelectionModel</text>
</a>
</g>
</g>
<!-- Node8&#45;&gt;Node12 -->
<g id="edge11_Node000008_Node000012" class="edge">
<title>Node8&#45;&gt;Node12</title>
<g id="a_edge11_Node000008_Node000012"><a xlink:title=" ">
<path fill="none" stroke="#63b8ff" d="M503.24,-219.98C483.27,-211.38 452.2,-197.99 429.35,-188.15"/>
<polygon fill="#63b8ff" stroke="#63b8ff" points="430.69,-184.91 420.12,-184.17 427.92,-191.34 430.69,-184.91"/>
</a>
</g>
</g>
<!-- Node13 -->
<g id="Node000013" class="node">
<title>Node13</title>
<g id="a_Node000013"><a xlink:title=" ">
<polygon fill="#e0e0e0" stroke="#999999" points="566.5,-184 479.5,-184 479.5,-165 566.5,-165 566.5,-184"/>
<text text-anchor="middle" x="523" y="-172" font-family="Helvetica,sans-Serif" font-size="10.00">QMainWindow</text>
</a>
</g>
</g>
<!-- Node8&#45;&gt;Node13 -->
<g id="edge12_Node000008_Node000013" class="edge">
<title>Node8&#45;&gt;Node13</title>
<g id="a_edge12_Node000008_Node000013"><a xlink:title=" ">
<path fill="none" stroke="#63b8ff" d="M523,-219.75C523,-212.8 523,-202.85 523,-194.13"/>
<polygon fill="#63b8ff" stroke="#63b8ff" points="526.5,-194.09 523,-184.09 519.5,-194.09 526.5,-194.09"/>
</a>
</g>
</g>
<!-- Node10 -->
<g id="Node000010" class="node">
<title>Node10</title>
<g id="a_Node000010"><a xlink:title=" ">
<polygon fill="#e0e0e0" stroke="#999999" points="779,-129 653,-129 653,-110 779,-110 779,-129"/>
<text text-anchor="middle" x="716" y="-117" font-family="Helvetica,sans-Serif" font-size="10.00">QSortFilterProxyModel</text>
</a>
</g>
</g>
<!-- Node9&#45;&gt;Node10 -->
<g id="edge9_Node000009_Node000010" class="edge">
<title>Node9&#45;&gt;Node10</title>
<g id="a_edge9_Node000009_Node000010"><a xlink:title=" ">
<path fill="none" stroke="#63b8ff" d="M716,-164.75C716,-157.8 716,-147.85 716,-139.13"/>
<polygon fill="#63b8ff" stroke="#63b8ff" points="719.5,-139.09 716,-129.09 712.5,-139.09 719.5,-139.09"/>
</a>
</g>
</g>
<!-- Node15 -->
<g id="Node000015" class="node">
<title>Node15</title>
<g id="a_Node000015"><a xlink:href="enums_8h.html" target="_top" xlink:title=" ">
<polygon fill="white" stroke="#666666" points="1156.5,-74 1097.5,-74 1097.5,-55 1156.5,-55 1156.5,-74"/>
<text text-anchor="middle" x="1127" y="-62" font-family="Helvetica,sans-Serif" font-size="10.00">enums.h</text>
</a>
</g>
</g>
<!-- Node14&#45;&gt;Node15 -->
<g id="edge16_Node000014_Node000015" class="edge">
<title>Node14&#45;&gt;Node15</title>
<g id="a_edge16_Node000014_Node000015"><a xlink:title=" ">
<path fill="none" stroke="#63b8ff" d="M1203.73,-221.35C1206.87,-220.89 1209.98,-220.44 1213,-220 1268.33,-211.95 1425.4,-226.27 1462,-184 1467.53,-177.62 1467.05,-171.77 1462,-165 1443.94,-140.79 1251.24,-94.03 1166.55,-74.46"/>
<polygon fill="#63b8ff" stroke="#63b8ff" points="1167.3,-71.04 1156.77,-72.21 1165.73,-77.86 1167.3,-71.04"/>
</a>
</g>
</g>
<!-- Node16 -->
<g id="Node000016" class="node">
<title>Node16</title>
<g id="a_Node000016"><a xlink:href="imitatepass_8h.html" target="_top" xlink:title=" ">
<polygon fill="white" stroke="#666666" points="1104.5,-184 1021.5,-184 1021.5,-165 1104.5,-165 1104.5,-184"/>
<text text-anchor="middle" x="1063" y="-172" font-family="Helvetica,sans-Serif" font-size="10.00">imitatepass.h</text>
</a>
</g>
</g>
<!-- Node14&#45;&gt;Node16 -->
<g id="edge17_Node000014_Node000016" class="edge">
<title>Node14&#45;&gt;Node16</title>
<g id="a_edge17_Node000014_Node000016"><a xlink:title=" ">
<path fill="none" stroke="#63b8ff" d="M1140.22,-219.98C1125.82,-211.69 1103.69,-198.94 1086.81,-189.22"/>
<polygon fill="#63b8ff" stroke="#63b8ff" points="1088.46,-186.13 1078.05,-184.17 1084.97,-192.19 1088.46,-186.13"/>
</a>
</g>
</g>
<!-- Node28 -->
<g id="Node000028" class="node">
<title>Node28</title>
<g id="a_Node000028"><a xlink:href="passwordconfiguration_8h.html" target="_top" xlink:title=" ">
<polygon fill="white" stroke="#666666" points="1787,-129 1651,-129 1651,-110 1787,-110 1787,-129"/>
<text text-anchor="middle" x="1719" y="-117" font-family="Helvetica,sans-Serif" font-size="10.00">passwordconfiguration.h</text>
</a>
</g>
</g>
<!-- Node14&#45;&gt;Node28 -->
<g id="edge36_Node000014_Node000028" class="edge">
<title>Node14&#45;&gt;Node28</title>
<g id="a_edge36_Node000014_Node000028"><a xlink:title=" ">
<path fill="none" stroke="#63b8ff" d="M1203.71,-221.17C1206.85,-220.76 1209.97,-220.36 1213,-220 1385.84,-199.37 1436.52,-234.85 1603,-184 1639.09,-172.98 1676.65,-149.93 1698.92,-134.85"/>
<polygon fill="#63b8ff" stroke="#63b8ff" points="1700.97,-137.68 1707.21,-129.12 1696.99,-131.93 1700.97,-137.68"/>
</a>
</g>
</g>
<!-- Node29 -->
<g id="Node000029" class="node">
<title>Node29</title>
<g id="a_Node000029"><a xlink:href="realpass_8h.html" target="_top" xlink:title=" ">
<polygon fill="white" stroke="#666666" points="1576.5,-184 1509.5,-184 1509.5,-165 1576.5,-165 1576.5,-184"/>
<text text-anchor="middle" x="1543" y="-172" font-family="Helvetica,sans-Serif" font-size="10.00">realpass.h</text>
</a>
</g>
</g>
<!-- Node14&#45;&gt;Node29 -->
<g id="edge38_Node000014_Node000029" class="edge">
<title>Node14&#45;&gt;Node29</title>
<g id="a_edge38_Node000014_Node000029"><a xlink:title=" ">
<path fill="none" stroke="#63b8ff" d="M1203.72,-221.29C1206.86,-220.85 1209.98,-220.41 1213,-220 1338.18,-202.84 1370.09,-203.02 1495,-184 1496.46,-183.78 1497.95,-183.54 1499.45,-183.31"/>
<polygon fill="#63b8ff" stroke="#63b8ff" points="1500.17,-186.74 1509.46,-181.65 1499.03,-179.83 1500.17,-186.74"/>
</a>
</g>
</g>
<!-- Node30 -->
<g id="Node000030" class="node">
<title>Node30</title>
<g id="a_Node000030"><a xlink:href="settingsconstants_8h.html" target="_top" xlink:title=" ">
<polygon fill="white" stroke="#666666" points="1633,-129 1521,-129 1521,-110 1633,-110 1633,-129"/>
<text text-anchor="middle" x="1577" y="-117" font-family="Helvetica,sans-Serif" font-size="10.00">settingsconstants.h</text>
</a>
</g>
</g>
<!-- Node14&#45;&gt;Node30 -->
<g id="edge40_Node000014_Node000030" class="edge">
<title>Node14&#45;&gt;Node30</title>
<g id="a_edge40_Node000014_Node000030"><a xlink:title=" ">
<path fill="none" stroke="#63b8ff" d="M1203.71,-221.18C1206.85,-220.77 1209.97,-220.37 1213,-220 1254.33,-214.98 1558.01,-214.82 1586,-184 1597.08,-171.8 1592.34,-152.47 1586.36,-138.34"/>
<polygon fill="#63b8ff" stroke="#63b8ff" points="1589.45,-136.68 1582,-129.14 1583.12,-139.68 1589.45,-136.68"/>
</a>
</g>
</g>
<!-- Node31 -->
<g id="Node000031" class="node">
<title>Node31</title>
<g id="a_Node000031"><a xlink:title=" ">
<polygon fill="#e0e0e0" stroke="#999999" points="657.5,-184 584.5,-184 584.5,-165 657.5,-165 657.5,-184"/>
<text text-anchor="middle" x="621" y="-172" font-family="Helvetica,sans-Serif" font-size="10.00">QByteArray</text>
</a>
</g>
</g>
<!-- Node14&#45;&gt;Node31 -->
<g id="edge42_Node000014_Node000031" class="edge">
<title>Node14&#45;&gt;Node31</title>
<g id="a_edge42_Node000014_Node000031"><a xlink:title=" ">
<path fill="none" stroke="#63b8ff" d="M1106.35,-225.55C1020.1,-219.99 834.56,-206.59 667.57,-183.94"/>
<polygon fill="#63b8ff" stroke="#63b8ff" points="667.99,-180.47 657.61,-182.58 667.04,-187.4 667.99,-180.47"/>
</a>
</g>
</g>
<!-- Node32 -->
<g id="Node000032" class="node">
<title>Node32</title>
<g id="a_Node000032"><a xlink:title=" ">
<polygon fill="#e0e0e0" stroke="#999999" points="823.5,-184 774.5,-184 774.5,-165 823.5,-165 823.5,-184"/>
<text text-anchor="middle" x="799" y="-172" font-family="Helvetica,sans-Serif" font-size="10.00">QHash</text>
</a>
</g>
</g>
<!-- Node14&#45;&gt;Node32 -->
<g id="edge43_Node000014_Node000032" class="edge">
<title>Node14&#45;&gt;Node32</title>
<g id="a_edge43_Node000014_Node000032"><a xlink:title=" ">
<path fill="none" stroke="#63b8ff" d="M1106.45,-223.44C1045.17,-216.69 936.34,-203.49 833.72,-183.94"/>
<polygon fill="#63b8ff" stroke="#63b8ff" points="834.3,-180.49 823.81,-182.03 832.97,-187.36 834.3,-180.49"/>
</a>
</g>
</g>
<!-- Node33 -->
<g id="Node000033" class="node">
<title>Node33</title>
<g id="a_Node000033"><a xlink:title=" ">
<polygon fill="#e0e0e0" stroke="#999999" points="890.5,-184 841.5,-184 841.5,-165 890.5,-165 890.5,-184"/>
<text text-anchor="middle" x="866" y="-172" font-family="Helvetica,sans-Serif" font-size="10.00">QPoint</text>
</a>
</g>
</g>
<!-- Node14&#45;&gt;Node33 -->
<g id="edge44_Node000014_Node000033" class="edge">
<title>Node14&#45;&gt;Node33</title>
<g id="a_edge44_Node000014_Node000033"><a xlink:title=" ">
<path fill="none" stroke="#63b8ff" d="M1106.39,-221.09C1057.04,-213.32 978.24,-200.27 900.76,-184.03"/>
<polygon fill="#63b8ff" stroke="#63b8ff" points="901.34,-180.57 890.83,-181.93 899.89,-187.42 901.34,-180.57"/>
</a>
</g>
</g>
<!-- Node34 -->
<g id="Node000034" class="node">
<title>Node34</title>
<g id="a_Node000034"><a xlink:title=" ">
<polygon fill="#e0e0e0" stroke="#999999" points="1003,-184 909,-184 909,-165 1003,-165 1003,-184"/>
<text text-anchor="middle" x="956" y="-172" font-family="Helvetica,sans-Serif" font-size="10.00">QScopedPointer</text>
</a>
</g>
</g>
<!-- Node14&#45;&gt;Node34 -->
<g id="edge45_Node000014_Node000034" class="edge">
<title>Node14&#45;&gt;Node34</title>
<g id="a_edge45_Node000014_Node000034"><a xlink:title=" ">
<path fill="none" stroke="#63b8ff" d="M1123.03,-219.98C1089.18,-210.97 1035.6,-196.7 998.29,-186.76"/>
<polygon fill="#63b8ff" stroke="#63b8ff" points="998.79,-183.27 988.22,-184.08 996.99,-190.04 998.79,-183.27"/>
</a>
</g>
</g>
<!-- Node35 -->
<g id="Node000035" class="node">
<title>Node35</title>
<g id="a_Node000035"><a xlink:title=" ">
<polygon fill="#e0e0e0" stroke="#999999" points="1187,-184 1123,-184 1123,-165 1187,-165 1187,-184"/>
<text text-anchor="middle" x="1155" y="-172" font-family="Helvetica,sans-Serif" font-size="10.00">QSettings</text>
</a>
</g>
</g>
<!-- Node14&#45;&gt;Node35 -->
<g id="edge46_Node000014_Node000035" class="edge">
<title>Node14&#45;&gt;Node35</title>
<g id="a_edge46_Node000014_Node000035"><a xlink:title=" ">
<path fill="none" stroke="#63b8ff" d="M1155,-219.75C1155,-212.8 1155,-202.85 1155,-194.13"/>
<polygon fill="#63b8ff" stroke="#63b8ff" points="1158.5,-194.09 1155,-184.09 1151.5,-194.09 1158.5,-194.09"/>
</a>
</g>
</g>
<!-- Node36 -->
<g id="Node000036" class="node">
<title>Node36</title>
<g id="a_Node000036"><a xlink:title=" ">
<polygon fill="#e0e0e0" stroke="#999999" points="1249,-184 1205,-184 1205,-165 1249,-165 1249,-184"/>
<text text-anchor="middle" x="1227" y="-172" font-family="Helvetica,sans-Serif" font-size="10.00">QSize</text>
</a>
</g>
</g>
<!-- Node14&#45;&gt;Node36 -->
<g id="edge47_Node000014_Node000036" class="edge">
<title>Node14&#45;&gt;Node36</title>
<g id="a_edge47_Node000014_Node000036"><a xlink:title=" ">
<path fill="none" stroke="#63b8ff" d="M1166.57,-219.98C1177.42,-212 1193.88,-199.88 1206.88,-190.31"/>
<polygon fill="#63b8ff" stroke="#63b8ff" points="1209.24,-192.92 1215.22,-184.17 1205.09,-187.28 1209.24,-192.92"/>
</a>
</g>
</g>
<!-- Node37 -->
<g id="Node000037" class="node">
<title>Node37</title>
<g id="a_Node000037"><a xlink:title=" ">
<polygon fill="#e0e0e0" stroke="#999999" points="1326.5,-184 1267.5,-184 1267.5,-165 1326.5,-165 1326.5,-184"/>
<text text-anchor="middle" x="1297" y="-172" font-family="Helvetica,sans-Serif" font-size="10.00">QVariant</text>
</a>
</g>
</g>
<!-- Node14&#45;&gt;Node37 -->
<g id="edge48_Node000014_Node000037" class="edge">
<title>Node14&#45;&gt;Node37</title>
<g id="a_edge48_Node000014_Node000037"><a xlink:title=" ">
<path fill="none" stroke="#63b8ff" d="M1177.81,-219.98C1201.17,-211.27 1237.7,-197.63 1264.17,-187.75"/>
<polygon fill="#63b8ff" stroke="#63b8ff" points="1265.63,-190.95 1273.77,-184.17 1263.18,-184.39 1265.63,-190.95"/>
</a>
</g>
</g>
<!-- Node17 -->
<g id="Node000017" class="node">
<title>Node17</title>
<g id="a_Node000017"><a xlink:href="pass_8h.html" target="_top" xlink:title=" ">
<polygon fill="white" stroke="#666666" points="1501,-129 1453,-129 1453,-110 1501,-110 1501,-129"/>
<text text-anchor="middle" x="1477" y="-117" font-family="Helvetica,sans-Serif" font-size="10.00">pass.h</text>
</a>
</g>
</g>
<!-- Node16&#45;&gt;Node17 -->
<g id="edge18_Node000016_Node000017" class="edge">
<title>Node16&#45;&gt;Node17</title>
<g id="a_edge18_Node000016_Node000017"><a xlink:title=" ">
<path fill="none" stroke="#63b8ff" d="M1104.73,-166.4C1107.86,-165.91 1110.98,-165.44 1114,-165 1234.54,-147.57 1378.25,-131.28 1442.72,-124.2"/>
<polygon fill="#63b8ff" stroke="#63b8ff" points="1443.18,-127.67 1452.74,-123.11 1442.42,-120.72 1443.18,-127.67"/>
</a>
</g>
</g>
<!-- Node26 -->
<g id="Node000026" class="node">
<title>Node26</title>
<g id="a_Node000026"><a xlink:href="simpletransaction_8h.html" target="_top" xlink:title=" ">
<polygon fill="white" stroke="#666666" points="1119.5,-129 1006.5,-129 1006.5,-110 1119.5,-110 1119.5,-129"/>
<text text-anchor="middle" x="1063" y="-117" font-family="Helvetica,sans-Serif" font-size="10.00">simpletransaction.h</text>
</a>
</g>
</g>
<!-- Node16&#45;&gt;Node26 -->
<g id="edge33_Node000016_Node000026" class="edge">
<title>Node16&#45;&gt;Node26</title>
<g id="a_edge33_Node000016_Node000026"><a xlink:title=" ">
<path fill="none" stroke="#63b8ff" d="M1063,-164.75C1063,-157.8 1063,-147.85 1063,-139.13"/>
<polygon fill="#63b8ff" stroke="#63b8ff" points="1066.5,-139.09 1063,-129.09 1059.5,-139.09 1066.5,-139.09"/>
</a>
</g>
</g>
<!-- Node17&#45;&gt;Node6 -->
<g id="edge27_Node000017_Node000006" class="edge">
<title>Node17&#45;&gt;Node6</title>
<g id="a_edge27_Node000017_Node000006"><a xlink:title=" ">
<path fill="none" stroke="#63b8ff" d="M1452.68,-113.07C1405.41,-102.48 1304.37,-79.58 1289,-74 1271.25,-67.56 1268.84,-61.18 1251,-55 1191.88,-34.53 1120.23,-22.06 1076.13,-15.72"/>
<polygon fill="#63b8ff" stroke="#63b8ff" points="1076.47,-12.23 1066.08,-14.31 1075.5,-19.16 1076.47,-12.23"/>
</a>
</g>
</g>
<!-- Node17&#45;&gt;Node15 -->
<g id="edge19_Node000017_Node000015" class="edge">
<title>Node17&#45;&gt;Node15</title>
<g id="a_edge19_Node000017_Node000015"><a xlink:title=" ">
<path fill="none" stroke="#63b8ff" d="M1452.94,-112.78C1448.33,-111.78 1443.53,-110.8 1439,-110 1321.68,-89.18 1288.31,-94.73 1166.83,-74"/>
<polygon fill="#63b8ff" stroke="#63b8ff" points="1167.21,-70.51 1156.76,-72.25 1166.02,-77.41 1167.21,-70.51"/>
</a>
</g>
</g>
<!-- Node18 -->
<g id="Node000018" class="node">
<title>Node18</title>
<g id="a_Node000018"><a xlink:href="executor_8h.html" target="_top" xlink:title=" ">
<polygon fill="white" stroke="#666666" points="1241.5,-74 1174.5,-74 1174.5,-55 1241.5,-55 1241.5,-74"/>
<text text-anchor="middle" x="1208" y="-62" font-family="Helvetica,sans-Serif" font-size="10.00">executor.h</text>
</a>
</g>
</g>
<!-- Node17&#45;&gt;Node18 -->
<g id="edge20_Node000017_Node000018" class="edge">
<title>Node17&#45;&gt;Node18</title>
<g id="a_edge20_Node000017_Node000018"><a xlink:title=" ">
<path fill="none" stroke="#63b8ff" d="M1452.9,-113C1448.29,-111.98 1443.5,-110.94 1439,-110 1373.95,-96.46 1298.28,-82.16 1251.76,-73.53"/>
<polygon fill="#63b8ff" stroke="#63b8ff" points="1252.2,-70.05 1241.73,-71.67 1250.92,-76.93 1252.2,-70.05"/>
</a>
</g>
</g>
<!-- Node19 -->
<g id="Node000019" class="node">
<title>Node19</title>
<g id="a_Node000019"><a xlink:title=" ">
<polygon fill="#e0e0e0" stroke="#999999" points="1382,-19 1326,-19 1326,0 1382,0 1382,-19"/>
<text text-anchor="middle" x="1354" y="-7" font-family="Helvetica,sans-Serif" font-size="10.00">QQueue</text>
</a>
</g>
</g>
<!-- Node17&#45;&gt;Node19 -->
<g id="edge28_Node000017_Node000019" class="edge">
<title>Node17&#45;&gt;Node19</title>
<g id="a_edge28_Node000017_Node000019"><a xlink:title=" ">
<path fill="none" stroke="#63b8ff" d="M1485.9,-109.58C1497.75,-96.6 1515.81,-72.2 1503,-55 1477.71,-21.06 1427.51,-12 1392.4,-10.08"/>
<polygon fill="#63b8ff" stroke="#63b8ff" points="1392.16,-6.56 1382.03,-9.69 1391.89,-13.56 1392.16,-6.56"/>
</a>
</g>
</g>
<!-- Node20 -->
<g id="Node000020" class="node">
<title>Node20</title>
<g id="a_Node000020"><a xlink:href="userinfo_8h.html" target="_top" xlink:title=" ">
<polygon fill="white" stroke="#666666" points="1615.5,-74 1550.5,-74 1550.5,-55 1615.5,-55 1615.5,-74"/>
<text text-anchor="middle" x="1583" y="-62" font-family="Helvetica,sans-Serif" font-size="10.00">userinfo.h</text>
</a>
</g>
</g>
<!-- Node17&#45;&gt;Node20 -->
<g id="edge24_Node000017_Node000020" class="edge">
<title>Node17&#45;&gt;Node20</title>
<g id="a_edge24_Node000017_Node000020"><a xlink:title=" ">
<path fill="none" stroke="#63b8ff" d="M1494.03,-109.98C1510.93,-101.54 1537.06,-88.47 1556.64,-78.68"/>
<polygon fill="#63b8ff" stroke="#63b8ff" points="1558.28,-81.77 1565.66,-74.17 1555.15,-75.51 1558.28,-81.77"/>
</a>
</g>
</g>
<!-- Node22 -->
<g id="Node000022" class="node">
<title>Node22</title>
<g id="a_Node000022"><a xlink:title=" ">
<polygon fill="#e0e0e0" stroke="#999999" points="1708.5,-19 1655.5,-19 1655.5,0 1708.5,0 1708.5,-19"/>
<text text-anchor="middle" x="1682" y="-7" font-family="Helvetica,sans-Serif" font-size="10.00">QString</text>
</a>
</g>
</g>
<!-- Node17&#45;&gt;Node22 -->
<g id="edge29_Node000017_Node000022" class="edge">
<title>Node17&#45;&gt;Node22</title>
<g id="a_edge29_Node000017_Node000022"><a xlink:title=" ">
<path fill="none" stroke="#63b8ff" d="M1501.15,-112.01C1540.32,-101.37 1614.41,-80.72 1625,-74 1643.88,-62.02 1660.31,-42.09 1670.62,-27.75"/>
<polygon fill="#63b8ff" stroke="#63b8ff" points="1673.67,-29.49 1676.47,-19.28 1667.91,-25.52 1673.67,-29.49"/>
</a>
</g>
</g>
<!-- Node23 -->
<g id="Node000023" class="node">
<title>Node23</title>
<g id="a_Node000023"><a xlink:title=" ">
<polygon fill="#e0e0e0" stroke="#999999" points="1368,-74 1298,-74 1298,-55 1368,-55 1368,-74"/>
<text text-anchor="middle" x="1333" y="-62" font-family="Helvetica,sans-Serif" font-size="10.00">QStringList</text>
</a>
</g>
</g>
<!-- Node17&#45;&gt;Node23 -->
<g id="edge30_Node000017_Node000023" class="edge">
<title>Node17&#45;&gt;Node23</title>
<g id="a_edge30_Node000017_Node000023"><a xlink:title=" ">
<path fill="none" stroke="#63b8ff" d="M1453.86,-109.98C1430.18,-101.27 1393.13,-87.63 1366.29,-77.75"/>
<polygon fill="#63b8ff" stroke="#63b8ff" points="1367.15,-74.34 1356.56,-74.17 1364.73,-80.91 1367.15,-74.34"/>
</a>
</g>
</g>
<!-- Node24 -->
<g id="Node000024" class="node">
<title>Node24</title>
<g id="a_Node000024"><a xlink:title=" ">
<polygon fill="#e0e0e0" stroke="#999999" points="1438,-74 1386,-74 1386,-55 1438,-55 1438,-74"/>
<text text-anchor="middle" x="1412" y="-62" font-family="Helvetica,sans-Serif" font-size="10.00">cassert</text>
</a>
</g>
</g>
<!-- Node17&#45;&gt;Node24 -->
<g id="edge31_Node000017_Node000024" class="edge">
<title>Node17&#45;&gt;Node24</title>
<g id="a_edge31_Node000017_Node000024"><a xlink:title=" ">
<path fill="none" stroke="#63b8ff" d="M1466.56,-109.98C1456.85,-102.07 1442.18,-90.11 1430.5,-80.58"/>
<polygon fill="#63b8ff" stroke="#63b8ff" points="1432.6,-77.78 1422.63,-74.17 1428.17,-83.2 1432.6,-77.78"/>
</a>
</g>
</g>
<!-- Node25 -->
<g id="Node000025" class="node">
<title>Node25</title>
<g id="a_Node000025"><a xlink:title=" ">
<polygon fill="#e0e0e0" stroke="#999999" points="1494,-74 1456,-74 1456,-55 1494,-55 1494,-74"/>
<text text-anchor="middle" x="1475" y="-62" font-family="Helvetica,sans-Serif" font-size="10.00">map</text>
</a>
</g>
</g>
<!-- Node17&#45;&gt;Node25 -->
<g id="edge32_Node000017_Node000025" class="edge">
<title>Node17&#45;&gt;Node25</title>
<g id="a_edge32_Node000017_Node000025"><a xlink:title=" ">
<path fill="none" stroke="#63b8ff" d="M1476.67,-109.75C1476.41,-102.8 1476.03,-92.85 1475.7,-84.13"/>
<polygon fill="#63b8ff" stroke="#63b8ff" points="1479.2,-83.95 1475.32,-74.09 1472.2,-84.21 1479.2,-83.95"/>
</a>
</g>
</g>
<!-- Node18&#45;&gt;Node4 -->
<g id="edge21_Node000018_Node000004" class="edge">
<title>Node18&#45;&gt;Node4</title>
<g id="a_edge21_Node000018_Node000004"><a xlink:title=" ">
<path fill="none" stroke="#63b8ff" d="M1174.14,-56.24C1171.39,-55.77 1168.65,-55.35 1166,-55 918.23,-22.11 617.19,-13.3 512.26,-11.14"/>
<polygon fill="#63b8ff" stroke="#63b8ff" points="512.22,-7.64 502.15,-10.94 512.08,-14.64 512.22,-7.64"/>
</a>
</g>
</g>
<!-- Node18&#45;&gt;Node6 -->
<g id="edge22_Node000018_Node000006" class="edge">
<title>Node18&#45;&gt;Node6</title>
<g id="a_edge22_Node000018_Node000006"><a xlink:title=" ">
<path fill="none" stroke="#63b8ff" d="M1180.2,-54.98C1151.03,-46.05 1105,-31.94 1072.6,-22.02"/>
<polygon fill="#63b8ff" stroke="#63b8ff" points="1073.6,-18.66 1063.01,-19.08 1071.55,-25.36 1073.6,-18.66"/>
</a>
</g>
</g>
<!-- Node18&#45;&gt;Node19 -->
<g id="edge23_Node000018_Node000019" class="edge">
<title>Node18&#45;&gt;Node19</title>
<g id="a_edge23_Node000018_Node000019"><a xlink:title=" ">
<path fill="none" stroke="#63b8ff" d="M1231.46,-54.98C1255.58,-46.23 1293.37,-32.51 1320.6,-22.62"/>
<polygon fill="#63b8ff" stroke="#63b8ff" points="1321.91,-25.87 1330.12,-19.17 1319.52,-19.29 1321.91,-25.87"/>
</a>
</g>
</g>
<!-- Node21 -->
<g id="Node000021" class="node">
<title>Node21</title>
<g id="a_Node000021"><a xlink:title=" ">
<polygon fill="#e0e0e0" stroke="#999999" points="1619,-19 1547,-19 1547,0 1619,0 1619,-19"/>
<text text-anchor="middle" x="1583" y="-7" font-family="Helvetica,sans-Serif" font-size="10.00">QDateTime</text>
</a>
</g>
</g>
<!-- Node20&#45;&gt;Node21 -->
<g id="edge25_Node000020_Node000021" class="edge">
<title>Node20&#45;&gt;Node21</title>
<g id="a_edge25_Node000020_Node000021"><a xlink:title=" ">
<path fill="none" stroke="#63b8ff" d="M1583,-54.75C1583,-47.8 1583,-37.85 1583,-29.13"/>
<polygon fill="#63b8ff" stroke="#63b8ff" points="1586.5,-29.09 1583,-19.09 1579.5,-29.09 1586.5,-29.09"/>
</a>
</g>
</g>
<!-- Node20&#45;&gt;Node22 -->
<g id="edge26_Node000020_Node000022" class="edge">
<title>Node20&#45;&gt;Node22</title>
<g id="a_edge26_Node000020_Node000022"><a xlink:title=" ">
<path fill="none" stroke="#63b8ff" d="M1598.91,-54.98C1614.55,-46.61 1638.66,-33.7 1656.88,-23.95"/>
<polygon fill="#63b8ff" stroke="#63b8ff" points="1658.64,-26.98 1665.8,-19.17 1655.34,-20.8 1658.64,-26.98"/>
</a>
</g>
</g>
<!-- Node26&#45;&gt;Node15 -->
<g id="edge34_Node000026_Node000015" class="edge">
<title>Node26&#45;&gt;Node15</title>
<g id="a_edge34_Node000026_Node000015"><a xlink:title=" ">
<path fill="none" stroke="#63b8ff" d="M1073.28,-109.98C1082.84,-102.07 1097.28,-90.11 1108.78,-80.58"/>
<polygon fill="#63b8ff" stroke="#63b8ff" points="1111.06,-83.24 1116.53,-74.17 1106.6,-77.85 1111.06,-83.24"/>
</a>
</g>
</g>
<!-- Node27 -->
<g id="Node000027" class="node">
<title>Node27</title>
<g id="a_Node000027"><a xlink:title=" ">
<polygon fill="#e0e0e0" stroke="#999999" points="1079.5,-74 1032.5,-74 1032.5,-55 1079.5,-55 1079.5,-74"/>
<text text-anchor="middle" x="1056" y="-62" font-family="Helvetica,sans-Serif" font-size="10.00">queue</text>
</a>
</g>
</g>
<!-- Node26&#45;&gt;Node27 -->
<g id="edge35_Node000026_Node000027" class="edge">
<title>Node26&#45;&gt;Node27</title>
<g id="a_edge35_Node000026_Node000027"><a xlink:title=" ">
<path fill="none" stroke="#63b8ff" d="M1061.84,-109.75C1060.93,-102.8 1059.61,-92.85 1058.46,-84.13"/>
<polygon fill="#63b8ff" stroke="#63b8ff" points="1061.91,-83.54 1057.13,-74.09 1054.97,-84.46 1061.91,-83.54"/>
</a>
</g>
</g>
<!-- Node28&#45;&gt;Node22 -->
<g id="edge37_Node000028_Node000022" class="edge">
<title>Node28&#45;&gt;Node22</title>
<g id="a_edge37_Node000028_Node000022"><a xlink:title=" ">
<path fill="none" stroke="#63b8ff" d="M1715.97,-109.66C1709.93,-92.01 1696.25,-52.09 1688.21,-28.64"/>
<polygon fill="#63b8ff" stroke="#63b8ff" points="1691.52,-27.48 1684.97,-19.16 1684.9,-29.75 1691.52,-27.48"/>
</a>
</g>
</g>
<!-- Node29&#45;&gt;Node17 -->
<g id="edge39_Node000029_Node000017" class="edge">
<title>Node29&#45;&gt;Node17</title>
<g id="a_edge39_Node000029_Node000017"><a xlink:title=" ">
<path fill="none" stroke="#63b8ff" d="M1532.4,-164.98C1522.54,-157.07 1507.65,-145.11 1495.78,-135.58"/>
<polygon fill="#63b8ff" stroke="#63b8ff" points="1497.79,-132.7 1487.8,-129.17 1493.4,-138.16 1497.79,-132.7"/>
</a>
</g>
</g>
<!-- Node30&#45;&gt;Node22 -->
<g id="edge41_Node000030_Node000022" class="edge">
<title>Node30&#45;&gt;Node22</title>
<g id="a_edge41_Node000030_Node000022"><a xlink:title=" ">
<path fill="none" stroke="#63b8ff" d="M1602.37,-109.97C1620.1,-102.85 1643.17,-91.08 1658,-74 1669.09,-61.22 1675.29,-42.79 1678.6,-29.08"/>
<polygon fill="#63b8ff" stroke="#63b8ff" points="1682.03,-29.8 1680.67,-19.29 1675.18,-28.35 1682.03,-29.8"/>
</a>
</g>
</g>
<!-- Node38&#45;&gt;Node9 -->
<g id="edge50_Node000038_Node000009" class="edge">
<title>Node38&#45;&gt;Node9</title>
<g id="a_edge50_Node000038_Node000009"><a xlink:title=" ">
<path fill="none" stroke="#63b8ff" d="M1221.21,-221.85C1218.47,-221.14 1215.68,-220.5 1213,-220 1020.26,-184.38 965.58,-207.91 766.81,-183.97"/>
<polygon fill="#63b8ff" stroke="#63b8ff" points="766.97,-180.46 756.61,-182.71 766.11,-187.41 766.97,-180.46"/>
</a>
</g>
</g>
<!-- Node38&#45;&gt;Node11 -->
<g id="edge51_Node000038_Node000011" class="edge">
<title>Node38&#45;&gt;Node11</title>
<g id="a_edge51_Node000038_Node000011"><a xlink:title=" ">
<path fill="none" stroke="#63b8ff" d="M1262.53,-221.57C1288.33,-212.86 1333,-197.78 1364.19,-187.25"/>
<polygon fill="#63b8ff" stroke="#63b8ff" points="1365.44,-190.52 1373.8,-184.01 1363.2,-183.89 1365.44,-190.52"/>
</a>
</g>
</g>
<!-- Node38&#45;&gt;Node22 -->
<g id="edge54_Node000038_Node000022" class="edge">
<title>Node38&#45;&gt;Node22</title>
<g id="a_edge54_Node000038_Node000022"><a xlink:title=" ">
<path fill="none" stroke="#63b8ff" d="M1262.53,-222.08C1265.68,-221.27 1268.91,-220.54 1272,-220 1329.49,-209.99 1756.17,-226.66 1796,-184 1818.44,-159.96 1809.61,-139.94 1796,-110 1777.93,-70.25 1735.27,-40.17 1707.57,-23.96"/>
<polygon fill="#63b8ff" stroke="#63b8ff" points="1709.23,-20.88 1698.8,-19.01 1705.78,-26.98 1709.23,-20.88"/>
</a>
</g>
</g>
<!-- Node39 -->
<g id="Node000039" class="node">
<title>Node39</title>
<g id="a_Node000039"><a xlink:title=" ">
<polygon fill="#e0e0e0" stroke="#999999" points="1967,-184 1843,-184 1843,-165 1967,-165 1967,-184"/>
<text text-anchor="middle" x="1905" y="-172" font-family="Helvetica,sans-Serif" font-size="10.00">QProcessEnvironment</text>
</a>
</g>
</g>
<!-- Node38&#45;&gt;Node39 -->
<g id="edge52_Node000038_Node000039" class="edge">
<title>Node38&#45;&gt;Node39</title>
<g id="a_edge52_Node000038_Node000039"><a xlink:title=" ">
<path fill="none" stroke="#63b8ff" d="M1262.52,-222.07C1265.67,-221.26 1268.91,-220.53 1272,-220 1516.48,-177.95 1581.89,-205.79 1829,-184 1830.26,-183.89 1831.54,-183.77 1832.83,-183.66"/>
<polygon fill="#63b8ff" stroke="#63b8ff" points="1833.19,-187.14 1842.81,-182.7 1832.52,-180.17 1833.19,-187.14"/>
</a>
</g>
</g>
<!-- Node40 -->
<g id="Node000040" class="node">
<title>Node40</title>
<g id="a_Node000040"><a xlink:title=" ">
<polygon fill="#e0e0e0" stroke="#999999" points="1786.5,-184 1671.5,-184 1671.5,-165 1786.5,-165 1786.5,-184"/>
<text text-anchor="middle" x="1729" y="-172" font-family="Helvetica,sans-Serif" font-size="10.00">QRegularExpression</text>
</a>
</g>
</g>
<!-- Node38&#45;&gt;Node40 -->
<g id="edge53_Node000038_Node000040" class="edge">
<title>Node38&#45;&gt;Node40</title>
<g id="a_edge53_Node000038_Node000040"><a xlink:title=" ">
<path fill="none" stroke="#63b8ff" d="M1262.54,-222.15C1265.69,-221.33 1268.91,-220.58 1272,-220 1440.94,-188.44 1486.1,-202.08 1657,-184 1658.3,-183.86 1659.62,-183.72 1660.94,-183.58"/>
<polygon fill="#63b8ff" stroke="#63b8ff" points="1661.69,-187.02 1671.25,-182.44 1660.92,-180.06 1661.69,-187.02"/>
</a>
</g>
</g>
</g>
</svg>
