<?xml version="1.0" encoding="UTF-8" standalone="no"?>
<!DOCTYPE svg PUBLIC "-//W3C//DTD SVG 1.1//EN"
 "http://www.w3.org/Graphics/SVG/1.1/DTD/svg11.dtd">
<!-- Generated by graphviz version 2.49.3 (0)
 -->
<!-- Title: src/realpass.h Pages: 1 -->
<svg width="1245pt" height="137pt"
 viewBox="0.00 0.00 1244.50 137.00" xmlns="http://www.w3.org/2000/svg" xmlns:xlink="http://www.w3.org/1999/xlink">
<g id="graph0" class="graph" transform="scale(1 1) rotate(0) translate(4 133)">
<title>src/realpass.h</title>
<!-- Node1 -->
<g id="node1" class="node">
<title>Node1</title>
<g id="a_node1"><a xlink:title=" ">
<polygon fill="#999999" stroke="#666666" points="771,-129 693,-129 693,-110 771,-110 771,-129"/>
<text text-anchor="middle" x="732" y="-117" font-family="Helvetica,sans-Serif" font-size="10.00">src/realpass.h</text>
</a>
</g>
</g>
<!-- Node2 -->
<g id="node2" class="node">
<title>Node2</title>
<g id="a_node2"><a xlink:href="qtpasssettings_8h.html" target="_top" xlink:title=" ">
<polygon fill="white" stroke="#666666" points="744.5,-74 639.5,-74 639.5,-55 744.5,-55 744.5,-74"/>
<text text-anchor="middle" x="692" y="-62" font-family="Helvetica,sans-Serif" font-size="10.00">src/qtpasssettings.h</text>
</a>
</g>
</g>
<!-- Node1&#45;&gt;Node2 -->
<g id="edge1" class="edge">
<title>Node1&#45;&gt;Node2</title>
<path fill="none" stroke="#63b8ff" d="M719.3,-101.67C712.37,-92.5 704.09,-81.52 698.48,-74.09"/>
<polygon fill="#63b8ff" stroke="#63b8ff" points="716.58,-103.87 725.39,-109.75 722.16,-99.66 716.58,-103.87"/>
</g>
<!-- Node10 -->
<g id="node10" class="node">
<title>Node10</title>
<g id="a_node10"><a xlink:href="realpass_8cpp.html" target="_top" xlink:title=" ">
<polygon fill="white" stroke="#666666" points="1236.5,-19 1147.5,-19 1147.5,0 1236.5,0 1236.5,-19"/>
<text text-anchor="middle" x="1192" y="-7" font-family="Helvetica,sans-Serif" font-size="10.00">src/realpass.cpp</text>
</a>
</g>
</g>
<!-- Node1&#45;&gt;Node10 -->
<g id="edge13" class="edge">
<title>Node1&#45;&gt;Node10</title>
<path fill="none" stroke="#63b8ff" d="M778.3,-107.63C869.9,-86.12 1072.56,-38.54 1155.52,-19.07"/>
<polygon fill="#63b8ff" stroke="#63b8ff" points="777.42,-104.24 768.48,-109.94 779.02,-111.06 777.42,-104.24"/>
</g>
<!-- Node3 -->
<g id="node3" class="node">
<title>Node3</title>
<g id="a_node3"><a xlink:href="configdialog_8cpp.html" target="_top" xlink:title=" ">
<polygon fill="white" stroke="#666666" points="104,-19 0,-19 0,0 104,0 104,-19"/>
<text text-anchor="middle" x="52" y="-7" font-family="Helvetica,sans-Serif" font-size="10.00">src/configdialog.cpp</text>
</a>
</g>
</g>
<!-- Node2&#45;&gt;Node3 -->
<g id="edge2" class="edge">
<title>Node2&#45;&gt;Node3</title>
<path fill="none" stroke="#63b8ff" d="M628.96,-59.93C522.46,-53.62 300.22,-39.22 113,-19 110.13,-18.69 107.19,-18.35 104.22,-17.99"/>
<polygon fill="#63b8ff" stroke="#63b8ff" points="629.02,-63.44 639.21,-60.54 629.43,-56.46 629.02,-63.44"/>
</g>
<!-- Node4 -->
<g id="node4" class="node">
<title>Node4</title>
<g id="a_node4"><a xlink:href="imitatepass_8cpp.html" target="_top" xlink:title=" ">
<polygon fill="white" stroke="#666666" points="224,-19 122,-19 122,0 224,0 224,-19"/>
<text text-anchor="middle" x="173" y="-7" font-family="Helvetica,sans-Serif" font-size="10.00">src/imitatepass.cpp</text>
</a>
</g>
</g>
<!-- Node2&#45;&gt;Node4 -->
<g id="edge3" class="edge">
<title>Node2&#45;&gt;Node4</title>
<path fill="none" stroke="#63b8ff" d="M629.12,-58.29C540.6,-50.75 374.28,-35.85 233,-19 230.07,-18.65 227.07,-18.28 224.04,-17.89"/>
<polygon fill="#63b8ff" stroke="#63b8ff" points="629,-61.79 639.26,-59.15 629.59,-54.81 629,-61.79"/>
</g>
<!-- Node5 -->
<g id="node5" class="node">
<title>Node5</title>
<g id="a_node5"><a xlink:href="mainwindow_8cpp.html" target="_top" xlink:title=" ">
<polygon fill="white" stroke="#666666" points="347.5,-19 242.5,-19 242.5,0 347.5,0 347.5,-19"/>
<text text-anchor="middle" x="295" y="-7" font-family="Helvetica,sans-Serif" font-size="10.00">src/mainwindow.cpp</text>
</a>
</g>
</g>
<!-- Node2&#45;&gt;Node5 -->
<g id="edge4" class="edge">
<title>Node2&#45;&gt;Node5</title>
<path fill="none" stroke="#63b8ff" d="M629.27,-55.32C561.76,-46.49 451.25,-31.94 356,-19 353.25,-18.63 350.42,-18.24 347.57,-17.85"/>
<polygon fill="#63b8ff" stroke="#63b8ff" points="628.95,-58.81 639.32,-56.63 629.86,-51.87 628.95,-58.81"/>
</g>
<!-- Node6 -->
<g id="node6" class="node">
<title>Node6</title>
<g id="a_node6"><a xlink:href="pass_8cpp.html" target="_top" xlink:title=" ">
<polygon fill="white" stroke="#666666" points="438.5,-19 365.5,-19 365.5,0 438.5,0 438.5,-19"/>
<text text-anchor="middle" x="402" y="-7" font-family="Helvetica,sans-Serif" font-size="10.00">src/pass.cpp</text>
</a>
</g>
</g>
<!-- Node2&#45;&gt;Node6 -->
<g id="edge5" class="edge">
<title>Node2&#45;&gt;Node6</title>
<path fill="none" stroke="#63b8ff" d="M634.65,-53.2C584.98,-44.25 511.22,-30.9 447,-19 444.34,-18.51 441.6,-18 438.83,-17.48"/>
<polygon fill="#63b8ff" stroke="#63b8ff" points="634.09,-56.66 644.56,-54.98 635.33,-49.77 634.09,-56.66"/>
</g>
<!-- Node7 -->
<g id="node7" class="node">
<title>Node7</title>
<g id="a_node7"><a xlink:href="passworddialog_8cpp.html" target="_top" xlink:title=" ">
<polygon fill="white" stroke="#666666" points="575.5,-19 456.5,-19 456.5,0 575.5,0 575.5,-19"/>
<text text-anchor="middle" x="516" y="-7" font-family="Helvetica,sans-Serif" font-size="10.00">src/passworddialog.cpp</text>
</a>
</g>
</g>
<!-- Node2&#45;&gt;Node7 -->
<g id="edge6" class="edge">
<title>Node2&#45;&gt;Node7</title>
<path fill="none" stroke="#63b8ff" d="M654,-52.06C621.1,-42.15 574.26,-28.04 544.5,-19.08"/>
<polygon fill="#63b8ff" stroke="#63b8ff" points="653.14,-55.45 663.72,-54.98 655.16,-48.75 653.14,-55.45"/>
</g>
<!-- Node8 -->
<g id="node8" class="node">
<title>Node8</title>
<g id="a_node8"><a xlink:href="qtpass_8cpp.html" target="_top" xlink:title=" ">
<polygon fill="white" stroke="#666666" points="674.5,-19 593.5,-19 593.5,0 674.5,0 674.5,-19"/>
<text text-anchor="middle" x="634" y="-7" font-family="Helvetica,sans-Serif" font-size="10.00">src/qtpass.cpp</text>
</a>
</g>
</g>
<!-- Node2&#45;&gt;Node8 -->
<g id="edge7" class="edge">
<title>Node2&#45;&gt;Node8</title>
<path fill="none" stroke="#63b8ff" d="M675.09,-48.04C664.8,-38.64 652.03,-26.98 643.49,-19.17"/>
<polygon fill="#63b8ff" stroke="#63b8ff" points="672.94,-50.82 682.68,-54.98 677.66,-45.66 672.94,-50.82"/>
</g>
<!-- Node9 -->
<g id="node9" class="node">
<title>Node9</title>
<g id="a_node9"><a xlink:href="qtpasssettings_8cpp.html" target="_top" xlink:title=" ">
<polygon fill="white" stroke="#666666" points="809,-19 693,-19 693,0 809,0 809,-19"/>
<text text-anchor="middle" x="751" y="-7" font-family="Helvetica,sans-Serif" font-size="10.00">src/qtpasssettings.cpp</text>
</a>
</g>
</g>
<!-- Node2&#45;&gt;Node9 -->
<g id="edge8" class="edge">
<title>Node2&#45;&gt;Node9</title>
<path fill="none" stroke="#63b8ff" d="M709.2,-48.04C719.67,-38.64 732.65,-26.98 741.35,-19.17"/>
<polygon fill="#63b8ff" stroke="#63b8ff" points="706.58,-45.7 701.48,-54.98 711.26,-50.91 706.58,-45.7"/>
</g>
<!-- Node2&#45;&gt;Node10 -->
<g id="edge9" class="edge">
<title>Node2&#45;&gt;Node10</title>
<path fill="none" stroke="#63b8ff" d="M754.95,-58.43C841.61,-51.17 1002.44,-36.73 1139,-19 1141.77,-18.64 1144.62,-18.25 1147.5,-17.84"/>
<polygon fill="#63b8ff" stroke="#63b8ff" points="754.43,-54.96 744.76,-59.28 755.01,-61.93 754.43,-54.96"/>
</g>
<!-- Node11 -->
<g id="node11" class="node">
<title>Node11</title>
<g id="a_node11"><a xlink:href="storemodel_8cpp.html" target="_top" xlink:title=" ">
<polygon fill="white" stroke="#666666" points="927,-19 827,-19 827,0 927,0 927,-19"/>
<text text-anchor="middle" x="877" y="-7" font-family="Helvetica,sans-Serif" font-size="10.00">src/storemodel.cpp</text>
</a>
</g>
</g>
<!-- Node2&#45;&gt;Node11 -->
<g id="edge10" class="edge">
<title>Node2&#45;&gt;Node11</title>
<path fill="none" stroke="#63b8ff" d="M731.5,-52.18C766.1,-42.27 815.63,-28.08 847.04,-19.08"/>
<polygon fill="#63b8ff" stroke="#63b8ff" points="730.37,-48.87 721.72,-54.98 732.3,-55.6 730.37,-48.87"/>
</g>
<!-- Node12 -->
<g id="node12" class="node">
<title>Node12</title>
<g id="a_node12"><a xlink:href="usersdialog_8cpp.html" target="_top" xlink:title=" ">
<polygon fill="white" stroke="#666666" points="1046.5,-19 945.5,-19 945.5,0 1046.5,0 1046.5,-19"/>
<text text-anchor="middle" x="996" y="-7" font-family="Helvetica,sans-Serif" font-size="10.00">src/usersdialog.cpp</text>
</a>
</g>
</g>
<!-- Node2&#45;&gt;Node12 -->
<g id="edge11" class="edge">
<title>Node2&#45;&gt;Node12</title>
<path fill="none" stroke="#63b8ff" d="M750.8,-53.25C807.89,-43.3 893.54,-28.36 947.03,-19.04"/>
<polygon fill="#63b8ff" stroke="#63b8ff" points="750.09,-49.82 740.84,-54.98 751.3,-56.72 750.09,-49.82"/>
</g>
<!-- Node13 -->
<g id="node13" class="node">
<title>Node13</title>
<g id="a_node13"><a xlink:href="util_8cpp.html" target="_top" xlink:title=" ">
<polygon fill="white" stroke="#666666" points="1129.5,-19 1064.5,-19 1064.5,0 1129.5,0 1129.5,-19"/>
<text text-anchor="middle" x="1097" y="-7" font-family="Helvetica,sans-Serif" font-size="10.00">src/util.cpp</text>
</a>
</g>
</g>
<!-- Node2&#45;&gt;Node13 -->
<g id="edge12" class="edge">
<title>Node2&#45;&gt;Node13</title>
<path fill="none" stroke="#63b8ff" d="M755,-57.4C827.75,-49.98 950.92,-36.29 1056,-19 1058.73,-18.55 1061.55,-18.05 1064.37,-17.52"/>
<polygon fill="#63b8ff" stroke="#63b8ff" points="754.23,-53.96 744.64,-58.45 754.94,-60.92 754.23,-53.96"/>
</g>
</g>
</svg>
