<?xml version="1.0" encoding="UTF-8" standalone="no"?>
<!DOCTYPE svg PUBLIC "-//W3C//DTD SVG 1.1//EN"
 "http://www.w3.org/Graphics/SVG/1.1/DTD/svg11.dtd">
<!-- Generated by graphviz version 2.40.1 (20161225.0304)
 -->
<!-- Title: src/realpass.cpp Pages: 1 -->
<!--zoomable 302 -->
<svg id="main" version="1.1" xmlns="http://www.w3.org/2000/svg" xmlns:xlink="http://www.w3.org/1999/xlink" xml:space="preserve" onload="init(evt)">
<style type="text/css"><![CDATA[
.edge:hover path { stroke: red; }
.edge:hover polygon { stroke: red; fill: red; }
]]></style>
<script type="text/javascript"><![CDATA[
var edges = document.getElementsByTagName('g');
if (edges && edges.length) {
  for (var i=0;i<edges.length;i++) {
    if (edges[i].id.substr(0,4)=='edge') {
      edges[i].setAttribute('class','edge');
    }
  }
}
]]></script>
        <defs>
                <circle id="rim" cx="0" cy="0" r="7"/>
                <circle id="rim2" cx="0" cy="0" r="3.5"/>
                <g id="zoomPlus">
                        <use xlink:href="#rim" fill="#404040">
                                <set attributeName="fill" to="#808080" begin="zoomplus.mouseover" end="zoomplus.mouseout"/>
                        </use>
                        <path d="M-4,0h8M0,-4v8" fill="none" stroke="white" stroke-width="1.5" pointer-events="none"/>
                </g>
                <g id="zoomMin">
                        <use xlink:href="#rim" fill="#404040">
                                <set attributeName="fill" to="#808080" begin="zoomminus.mouseover" end="zoomminus.mouseout"/>
                        </use>
                        <path d="M-4,0h8" fill="none" stroke="white" stroke-width="1.5" pointer-events="none"/>
                </g>
                <g id="dirArrow">
                        <path fill="none" stroke="white" stroke-width="1.5" d="M0,-3.0v7 M-2.5,-0.5L0,-3.0L2.5,-0.5"/>
                </g>
               <g id="resetDef">
                       <use xlink:href="#rim2" fill="#404040">
                               <set attributeName="fill" to="#808080" begin="reset.mouseover" end="reset.mouseout"/>
                       </use>
               </g>
        </defs>

<script type="text/javascript">
var viewWidth = 907;
var viewHeight = 302;
var sectionId = 'dynsection-0';
</script>
<script xlink:href="svgpan.js"/>
<svg id="graph" class="graph">
<g id="viewport">
<title>src/realpass.cpp</title>
<!-- Node0 -->
<g id="node1" class="node">
<title>Node0</title>
<polygon fill="#bfbfbf" stroke="#000000" points="202.665,-275.5 202.665,-293.5 291.4727,-293.5 291.4727,-275.5 202.665,-275.5"/>
<text text-anchor="middle" x="247.0688" y="-281.5" font-family="Helvetica,sans-Serif" font-size="10.00" fill="#000000">src/realpass.cpp</text>
</g>
<!-- Node1 -->
<g id="node2" class="node">
<title>Node1</title>
<g id="a_node2"><a xlink:href="realpass_8h.html" target="_top" xlink:title="realpass.h">
<polygon fill="none" stroke="#000000" points="0,-165.5 0,-183.5 62.1377,-183.5 62.1377,-165.5 0,-165.5"/>
<text text-anchor="middle" x="31.0688" y="-171.5" font-family="Helvetica,sans-Serif" font-size="10.00" fill="#000000">realpass.h</text>
</a>
</g>
</g>
<!-- Node0&#45;&gt;Node1 -->
<g id="edge1" class="edge">
<title>Node0&#45;&gt;Node1</title>
<path fill="none" stroke="#191970" d="M229.3927,-275.4982C191.6575,-256.2813 103.0109,-211.1372 58.1255,-188.2788"/>
<polygon fill="#191970" stroke="#191970" points="59.4886,-185.0454 48.9893,-183.6261 56.312,-191.2831 59.4886,-185.0454"/>
</g>
<!-- Node14 -->
<g id="node15" class="node">
<title>Node14</title>
<g id="a_node15"><a xlink:href="qtpasssettings_8h.html" target="_top" xlink:title="qtpasssettings.h">
<polygon fill="none" stroke="#000000" points="418.936,-220.5 418.936,-238.5 507.2017,-238.5 507.2017,-220.5 418.936,-220.5"/>
<text text-anchor="middle" x="463.0688" y="-226.5" font-family="Helvetica,sans-Serif" font-size="10.00" fill="#000000">qtpasssettings.h</text>
</a>
</g>
</g>
<!-- Node0&#45;&gt;Node14 -->
<g id="edge17" class="edge">
<title>Node0&#45;&gt;Node14</title>
<path fill="none" stroke="#191970" d="M282.7369,-275.4179C319.742,-265.9953 377.7151,-251.2336 417.8978,-241.0019"/>
<polygon fill="#191970" stroke="#191970" points="418.8798,-244.3636 427.7069,-238.5042 417.1524,-237.5801 418.8798,-244.3636"/>
</g>
<!-- Node2 -->
<g id="node3" class="node">
<title>Node2</title>
<g id="a_node3"><a xlink:href="pass_8h.html" target="_top" xlink:title="pass.h">
<polygon fill="none" stroke="#000000" points="492.3374,-110.5 492.3374,-128.5 537.8003,-128.5 537.8003,-110.5 492.3374,-110.5"/>
<text text-anchor="middle" x="515.0688" y="-116.5" font-family="Helvetica,sans-Serif" font-size="10.00" fill="#000000">pass.h</text>
</a>
</g>
</g>
<!-- Node1&#45;&gt;Node2 -->
<g id="edge2" class="edge">
<title>Node1&#45;&gt;Node2</title>
<path fill="none" stroke="#191970" d="M62.4625,-167.4343C67.0134,-166.5378 71.6515,-165.6932 76.0688,-165 226.8597,-141.3355 408.792,-126.9493 482.0977,-121.7306"/>
<polygon fill="#191970" stroke="#191970" points="482.3784,-125.2196 492.1084,-121.0272 481.8876,-118.2369 482.3784,-125.2196"/>
</g>
<!-- Node3 -->
<g id="node4" class="node">
<title>Node3</title>
<g id="a_node4"><a xlink:href="datahelpers_8h.html" target="_top" xlink:title="datahelpers.h">
<polygon fill="none" stroke="#000000" points="381.7686,-55.5 381.7686,-73.5 458.3691,-73.5 458.3691,-55.5 381.7686,-55.5"/>
<text text-anchor="middle" x="420.0688" y="-61.5" font-family="Helvetica,sans-Serif" font-size="10.00" fill="#000000">datahelpers.h</text>
</a>
</g>
</g>
<!-- Node2&#45;&gt;Node3 -->
<g id="edge3" class="edge">
<title>Node2&#45;&gt;Node3</title>
<path fill="none" stroke="#191970" d="M499.3815,-110.4179C484.5299,-101.8195 461.9991,-88.7754 444.7419,-78.7844"/>
<polygon fill="#191970" stroke="#191970" points="446.1874,-75.577 435.7795,-73.5956 442.6801,-81.635 446.1874,-75.577"/>
</g>
<!-- Node5 -->
<g id="node6" class="node">
<title>Node5</title>
<polygon fill="none" stroke="#bfbfbf" points="295.1182,-.5 295.1182,-18.5 345.0195,-18.5 345.0195,-.5 295.1182,-.5"/>
<text text-anchor="middle" x="320.0688" y="-6.5" font-family="Helvetica,sans-Serif" font-size="10.00" fill="#000000">QString</text>
</g>
<!-- Node2&#45;&gt;Node5 -->
<g id="edge16" class="edge">
<title>Node2&#45;&gt;Node5</title>
<path fill="none" stroke="#191970" d="M492.3086,-117.7948C444.6741,-113.7039 337.0587,-101.5544 315.0688,-74 304.9082,-61.2682 307.8649,-42.2607 312.3374,-28.1745"/>
<polygon fill="#191970" stroke="#191970" points="315.7105,-29.1413 315.8608,-18.5475 309.137,-26.7354 315.7105,-29.1413"/>
</g>
<!-- Node6 -->
<g id="node7" class="node">
<title>Node6</title>
<g id="a_node7"><a xlink:href="enums_8h.html" target="_top" xlink:title="enums.h">
<polygon fill="none" stroke="#000000" points="703.8916,-55.5 703.8916,-73.5 758.2461,-73.5 758.2461,-55.5 703.8916,-55.5"/>
<text text-anchor="middle" x="731.0688" y="-61.5" font-family="Helvetica,sans-Serif" font-size="10.00" fill="#000000">enums.h</text>
</a>
</g>
</g>
<!-- Node2&#45;&gt;Node6 -->
<g id="edge6" class="edge">
<title>Node2&#45;&gt;Node6</title>
<path fill="none" stroke="#191970" d="M538.1846,-113.614C575.4416,-104.1273 649.1067,-85.37 693.8375,-73.9802"/>
<polygon fill="#191970" stroke="#191970" points="694.9057,-77.32 703.7328,-71.4606 693.1784,-70.5364 694.9057,-77.32"/>
</g>
<!-- Node7 -->
<g id="node8" class="node">
<title>Node7</title>
<g id="a_node8"><a xlink:href="executor_8h.html" target="_top" xlink:title="executor.h">
<polygon fill="none" stroke="#000000" points="513.9951,-55.5 513.9951,-73.5 576.1426,-73.5 576.1426,-55.5 513.9951,-55.5"/>
<text text-anchor="middle" x="545.0688" y="-61.5" font-family="Helvetica,sans-Serif" font-size="10.00" fill="#000000">executor.h</text>
</a>
</g>
</g>
<!-- Node2&#45;&gt;Node7 -->
<g id="edge7" class="edge">
<title>Node2&#45;&gt;Node7</title>
<path fill="none" stroke="#191970" d="M520.0227,-110.4179C524.1235,-102.8998 530.0782,-91.9829 535.1526,-82.6799"/>
<polygon fill="#191970" stroke="#191970" points="538.2914,-84.2344 540.0073,-73.7795 532.1461,-80.8824 538.2914,-84.2344"/>
</g>
<!-- Node9 -->
<g id="node10" class="node">
<title>Node9</title>
<polygon fill="none" stroke="#bfbfbf" points="606.1182,-.5 606.1182,-18.5 666.0195,-18.5 666.0195,-.5 606.1182,-.5"/>
<text text-anchor="middle" x="636.0688" y="-6.5" font-family="Helvetica,sans-Serif" font-size="10.00" fill="#000000">QProcess</text>
</g>
<!-- Node2&#45;&gt;Node9 -->
<g id="edge14" class="edge">
<title>Node2&#45;&gt;Node9</title>
<path fill="none" stroke="#191970" d="M537.9308,-115.517C574.3475,-108.655 642.8781,-93.4485 657.0688,-74 667.3183,-59.9531 658.7581,-40.6525 649.6767,-26.8317"/>
<polygon fill="#191970" stroke="#191970" points="652.4902,-24.749 643.826,-18.6512 646.7964,-28.8211 652.4902,-24.749"/>
</g>
<!-- Node10 -->
<g id="node11" class="node">
<title>Node10</title>
<polygon fill="none" stroke="#bfbfbf" points="494.1675,-.5 494.1675,-18.5 547.9702,-18.5 547.9702,-.5 494.1675,-.5"/>
<text text-anchor="middle" x="521.0688" y="-6.5" font-family="Helvetica,sans-Serif" font-size="10.00" fill="#000000">QQueue</text>
</g>
<!-- Node2&#45;&gt;Node10 -->
<g id="edge15" class="edge">
<title>Node2&#45;&gt;Node10</title>
<path fill="none" stroke="#191970" d="M511.7663,-110.2999C507.698,-97.7735 501.713,-74.6594 505.0688,-55 506.6341,-45.8302 509.854,-36.0505 512.9977,-27.917"/>
<polygon fill="#191970" stroke="#191970" points="516.2362,-29.2443 516.8086,-18.6649 509.7637,-26.5783 516.2362,-29.2443"/>
</g>
<!-- Node11 -->
<g id="node12" class="node">
<title>Node11</title>
<polygon fill="none" stroke="#bfbfbf" points="594.4458,-55.5 594.4458,-73.5 647.6919,-73.5 647.6919,-55.5 594.4458,-55.5"/>
<text text-anchor="middle" x="621.0688" y="-61.5" font-family="Helvetica,sans-Serif" font-size="10.00" fill="#000000">QDebug</text>
</g>
<!-- Node2&#45;&gt;Node11 -->
<g id="edge11" class="edge">
<title>Node2&#45;&gt;Node11</title>
<path fill="none" stroke="#191970" d="M532.5726,-110.4179C549.4508,-101.6603 575.2176,-88.2907 594.6025,-78.2326"/>
<polygon fill="#191970" stroke="#191970" points="596.2748,-81.308 603.5391,-73.5956 593.0508,-75.0946 596.2748,-81.308"/>
</g>
<!-- Node12 -->
<g id="node13" class="node">
<title>Node12</title>
<polygon fill="none" stroke="#bfbfbf" points="775.793,-55.5 775.793,-73.5 812.3447,-73.5 812.3447,-55.5 775.793,-55.5"/>
<text text-anchor="middle" x="794.0688" y="-61.5" font-family="Helvetica,sans-Serif" font-size="10.00" fill="#000000">QDir</text>
</g>
<!-- Node2&#45;&gt;Node12 -->
<g id="edge12" class="edge">
<title>Node2&#45;&gt;Node12</title>
<path fill="none" stroke="#191970" d="M537.9243,-116.6201C580.9197,-110.9389 676.841,-97.0144 765.8947,-73.9892"/>
<polygon fill="#191970" stroke="#191970" points="766.8188,-77.3652 775.5991,-71.436 765.0377,-70.5956 766.8188,-77.3652"/>
</g>
<!-- Node13 -->
<g id="node14" class="node">
<title>Node13</title>
<polygon fill="none" stroke="#bfbfbf" points="324.3989,-55.5 324.3989,-73.5 363.7388,-73.5 363.7388,-55.5 324.3989,-55.5"/>
<text text-anchor="middle" x="344.0688" y="-61.5" font-family="Helvetica,sans-Serif" font-size="10.00" fill="#000000">QList</text>
</g>
<!-- Node2&#45;&gt;Node13 -->
<g id="edge13" class="edge">
<title>Node2&#45;&gt;Node13</title>
<path fill="none" stroke="#191970" d="M491.9342,-112.1379C465.5739,-103.7382 420.9639,-89.4903 373.5476,-74.1414"/>
<polygon fill="#191970" stroke="#191970" points="374.6235,-70.8109 364.0315,-71.0583 372.466,-77.4701 374.6235,-70.8109"/>
</g>
<!-- Node4 -->
<g id="node5" class="node">
<title>Node4</title>
<polygon fill="none" stroke="#bfbfbf" points="386.6904,-.5 386.6904,-18.5 453.4473,-18.5 453.4473,-.5 386.6904,-.5"/>
<text text-anchor="middle" x="420.0688" y="-6.5" font-family="Helvetica,sans-Serif" font-size="10.00" fill="#000000">QDateTime</text>
</g>
<!-- Node3&#45;&gt;Node4 -->
<g id="edge4" class="edge">
<title>Node3&#45;&gt;Node4</title>
<path fill="none" stroke="#191970" d="M420.0688,-55.4179C420.0688,-48.2164 420.0688,-37.8962 420.0688,-28.8632"/>
<polygon fill="#191970" stroke="#191970" points="423.5689,-28.7794 420.0688,-18.7795 416.5689,-28.7795 423.5689,-28.7794"/>
</g>
<!-- Node3&#45;&gt;Node5 -->
<g id="edge5" class="edge">
<title>Node3&#45;&gt;Node5</title>
<path fill="none" stroke="#191970" d="M403.5559,-55.4179C387.7778,-46.7399 363.766,-33.5334 345.5374,-23.5077"/>
<polygon fill="#191970" stroke="#191970" points="347.0553,-20.3481 336.6063,-18.5956 343.6818,-26.4816 347.0553,-20.3481"/>
</g>
<!-- Node8 -->
<g id="node9" class="node">
<title>Node8</title>
<polygon fill="none" stroke="#bfbfbf" points="791.729,-.5 791.729,-18.5 844.4087,-18.5 844.4087,-.5 791.729,-.5"/>
<text text-anchor="middle" x="818.0688" y="-6.5" font-family="Helvetica,sans-Serif" font-size="10.00" fill="#000000">QObject</text>
</g>
<!-- Node7&#45;&gt;Node8 -->
<g id="edge8" class="edge">
<title>Node7&#45;&gt;Node8</title>
<path fill="none" stroke="#191970" d="M576.4845,-56.9124C579.3833,-56.2505 582.2783,-55.6036 585.0688,-55 654.2084,-40.0453 735.37,-24.6915 781.3569,-16.1956"/>
<polygon fill="#191970" stroke="#191970" points="782.24,-19.5919 791.4407,-14.3385 780.9721,-12.7076 782.24,-19.5919"/>
</g>
<!-- Node7&#45;&gt;Node9 -->
<g id="edge9" class="edge">
<title>Node7&#45;&gt;Node9</title>
<path fill="none" stroke="#191970" d="M560.0956,-55.4179C574.322,-46.8195 595.9041,-33.7754 612.4346,-23.7844"/>
<polygon fill="#191970" stroke="#191970" points="614.2718,-26.7637 621.0197,-18.5956 610.651,-20.7729 614.2718,-26.7637"/>
</g>
<!-- Node7&#45;&gt;Node10 -->
<g id="edge10" class="edge">
<title>Node7&#45;&gt;Node10</title>
<path fill="none" stroke="#191970" d="M541.1057,-55.4179C537.8597,-47.9789 533.1615,-37.2123 529.1303,-27.9742"/>
<polygon fill="#191970" stroke="#191970" points="532.3255,-26.545 525.1181,-18.7795 525.9097,-29.3447 532.3255,-26.545"/>
</g>
<!-- Node14&#45;&gt;Node1 -->
<g id="edge25" class="edge">
<title>Node14&#45;&gt;Node1</title>
<path fill="none" stroke="#191970" d="M418.7766,-225.6155C346.6784,-218.9959 199.5722,-204.2535 76.0688,-184 74.8278,-183.7965 73.5692,-183.5821 72.2998,-183.3588"/>
<polygon fill="#191970" stroke="#191970" points="72.9461,-179.9191 62.4715,-181.5101 71.6521,-186.7985 72.9461,-179.9191"/>
</g>
<!-- Node14&#45;&gt;Node2 -->
<g id="edge24" class="edge">
<title>Node14&#45;&gt;Node2</title>
<path fill="none" stroke="#191970" d="M418.7818,-228.4409C314.7731,-225.1605 66.7515,-212.3247 109.0688,-165 133.8256,-137.3138 389.8618,-124.4735 482.1431,-120.7196"/>
<polygon fill="#191970" stroke="#191970" points="482.4564,-124.21 492.3097,-120.3161 482.1788,-117.2155 482.4564,-124.21"/>
</g>
<!-- Node14&#45;&gt;Node6 -->
<g id="edge18" class="edge">
<title>Node14&#45;&gt;Node6</title>
<path fill="none" stroke="#191970" d="M507.2539,-227.0693C569.7401,-222.6956 679.4182,-211.2705 707.0688,-184 733.8419,-157.595 735.0101,-110.2674 733.2203,-83.7873"/>
<polygon fill="#191970" stroke="#191970" points="736.6806,-83.1855 732.3048,-73.5365 729.7083,-83.8083 736.6806,-83.1855"/>
</g>
<!-- Node14&#45;&gt;Node8 -->
<g id="edge31" class="edge">
<title>Node14&#45;&gt;Node8</title>
<path fill="none" stroke="#191970" d="M507.2357,-227.2052C605.1052,-221.7306 833.6823,-206.6492 860.0688,-184 904.2594,-146.0685 909.9635,-106.6554 883.0688,-55 875.9024,-41.2358 862.4557,-30.7744 849.644,-23.3746"/>
<polygon fill="#191970" stroke="#191970" points="850.9985,-20.1308 840.5262,-18.524 847.7108,-26.3107 850.9985,-20.1308"/>
</g>
<!-- Node14&#45;&gt;Node12 -->
<g id="edge28" class="edge">
<title>Node14&#45;&gt;Node12</title>
<path fill="none" stroke="#191970" d="M507.3269,-226.6707C600.7214,-220.337 811.4973,-203.9926 837.0688,-184 864.0019,-162.9429 873.7462,-140.3811 858.0688,-110 850.3481,-95.038 835.1819,-83.9227 821.5508,-76.4248"/>
<polygon fill="#191970" stroke="#191970" points="822.97,-73.22 812.4695,-71.8091 819.7982,-79.4602 822.97,-73.22"/>
</g>
<!-- Node15 -->
<g id="node16" class="node">
<title>Node15</title>
<g id="a_node16"><a xlink:href="imitatepass_8h.html" target="_top" xlink:title="imitatepass.h">
<polygon fill="none" stroke="#000000" points="753.6108,-165.5 753.6108,-183.5 828.5269,-183.5 828.5269,-165.5 753.6108,-165.5"/>
<text text-anchor="middle" x="791.0688" y="-171.5" font-family="Helvetica,sans-Serif" font-size="10.00" fill="#000000">imitatepass.h</text>
</a>
</g>
</g>
<!-- Node14&#45;&gt;Node15 -->
<g id="edge19" class="edge">
<title>Node14&#45;&gt;Node15</title>
<path fill="none" stroke="#191970" d="M507.2548,-222.5403C561.9665,-213.854 657.9834,-198.3852 740.0688,-184 741.1556,-183.8096 742.2551,-183.6156 743.3637,-183.4189"/>
<polygon fill="#191970" stroke="#191970" points="744.2646,-186.813 753.4853,-181.5949 743.0231,-179.9239 744.2646,-186.813"/>
</g>
<!-- Node18 -->
<g id="node19" class="node">
<title>Node18</title>
<polygon fill="none" stroke="#bfbfbf" points="118.229,-165.5 118.229,-183.5 185.9087,-183.5 185.9087,-165.5 118.229,-165.5"/>
<text text-anchor="middle" x="152.0688" y="-171.5" font-family="Helvetica,sans-Serif" font-size="10.00" fill="#000000">QByteArray</text>
</g>
<!-- Node14&#45;&gt;Node18 -->
<g id="edge26" class="edge">
<title>Node14&#45;&gt;Node18</title>
<path fill="none" stroke="#191970" d="M418.8442,-222.6762C367.6406,-214.6237 280.5338,-200.4589 196.2948,-184.168"/>
<polygon fill="#191970" stroke="#191970" points="196.7892,-180.6986 186.3047,-182.2231 195.4516,-187.5696 196.7892,-180.6986"/>
</g>
<!-- Node19 -->
<g id="node20" class="node">
<title>Node19</title>
<polygon fill="none" stroke="#bfbfbf" points="203.8818,-165.5 203.8818,-183.5 298.2559,-183.5 298.2559,-165.5 203.8818,-165.5"/>
<text text-anchor="middle" x="251.0688" y="-171.5" font-family="Helvetica,sans-Serif" font-size="10.00" fill="#000000">QCoreApplication</text>
</g>
<!-- Node14&#45;&gt;Node19 -->
<g id="edge27" class="edge">
<title>Node14&#45;&gt;Node19</title>
<path fill="none" stroke="#191970" d="M428.0614,-220.4179C391.8185,-211.0152 335.083,-196.2961 295.6543,-186.067"/>
<polygon fill="#191970" stroke="#191970" points="296.3345,-182.6276 285.776,-183.5042 294.5766,-189.4033 296.3345,-182.6276"/>
</g>
<!-- Node20 -->
<g id="node21" class="node">
<title>Node20</title>
<polygon fill="none" stroke="#bfbfbf" points="316.123,-165.5 316.123,-183.5 356.0146,-183.5 356.0146,-165.5 316.123,-165.5"/>
<text text-anchor="middle" x="336.0688" y="-171.5" font-family="Helvetica,sans-Serif" font-size="10.00" fill="#000000">QFile</text>
</g>
<!-- Node14&#45;&gt;Node20 -->
<g id="edge29" class="edge">
<title>Node14&#45;&gt;Node20</title>
<path fill="none" stroke="#191970" d="M442.0974,-220.4179C421.2611,-211.3943 389.1185,-197.4743 365.6838,-187.3254"/>
<polygon fill="#191970" stroke="#191970" points="366.7992,-183.9944 356.2318,-183.232 364.0173,-190.4179 366.7992,-183.9944"/>
</g>
<!-- Node21 -->
<g id="node22" class="node">
<title>Node21</title>
<polygon fill="none" stroke="#bfbfbf" points="374.5073,-165.5 374.5073,-183.5 421.6304,-183.5 421.6304,-165.5 374.5073,-165.5"/>
<text text-anchor="middle" x="398.0688" y="-171.5" font-family="Helvetica,sans-Serif" font-size="10.00" fill="#000000">QHash</text>
</g>
<!-- Node14&#45;&gt;Node21 -->
<g id="edge30" class="edge">
<title>Node14&#45;&gt;Node21</title>
<path fill="none" stroke="#191970" d="M452.3354,-220.4179C442.7022,-212.2667 428.3472,-200.1201 416.8207,-190.3669"/>
<polygon fill="#191970" stroke="#191970" points="418.9302,-187.5671 409.0355,-183.7795 414.4086,-192.9108 418.9302,-187.5671"/>
</g>
<!-- Node22 -->
<g id="node23" class="node">
<title>Node22</title>
<polygon fill="none" stroke="#bfbfbf" points="439.7832,-165.5 439.7832,-183.5 486.3545,-183.5 486.3545,-165.5 439.7832,-165.5"/>
<text text-anchor="middle" x="463.0688" y="-171.5" font-family="Helvetica,sans-Serif" font-size="10.00" fill="#000000">QPoint</text>
</g>
<!-- Node14&#45;&gt;Node22 -->
<g id="edge32" class="edge">
<title>Node14&#45;&gt;Node22</title>
<path fill="none" stroke="#191970" d="M463.0688,-220.4179C463.0688,-213.2164 463.0688,-202.8962 463.0688,-193.8632"/>
<polygon fill="#191970" stroke="#191970" points="466.5689,-193.7794 463.0688,-183.7795 459.5689,-193.7795 466.5689,-193.7794"/>
</g>
<!-- Node23 -->
<g id="node24" class="node">
<title>Node23</title>
<polygon fill="none" stroke="#bfbfbf" points="504.1133,-165.5 504.1133,-183.5 564.0244,-183.5 564.0244,-165.5 504.1133,-165.5"/>
<text text-anchor="middle" x="534.0688" y="-171.5" font-family="Helvetica,sans-Serif" font-size="10.00" fill="#000000">QSettings</text>
</g>
<!-- Node14&#45;&gt;Node23 -->
<g id="edge33" class="edge">
<title>Node14&#45;&gt;Node23</title>
<path fill="none" stroke="#191970" d="M474.7931,-220.4179C485.4176,-212.1876 501.3005,-199.8839 513.9519,-190.0836"/>
<polygon fill="#191970" stroke="#191970" points="516.3278,-192.6704 522.0899,-183.7795 512.041,-187.1365 516.3278,-192.6704"/>
</g>
<!-- Node24 -->
<g id="node25" class="node">
<title>Node24</title>
<polygon fill="none" stroke="#bfbfbf" points="582.4531,-165.5 582.4531,-183.5 625.6846,-183.5 625.6846,-165.5 582.4531,-165.5"/>
<text text-anchor="middle" x="604.0688" y="-171.5" font-family="Helvetica,sans-Serif" font-size="10.00" fill="#000000">QSize</text>
</g>
<!-- Node14&#45;&gt;Node24 -->
<g id="edge34" class="edge">
<title>Node14&#45;&gt;Node24</title>
<path fill="none" stroke="#191970" d="M486.3521,-220.4179C509.9338,-211.2193 546.5597,-196.9326 572.6916,-186.7394"/>
<polygon fill="#191970" stroke="#191970" points="574.0996,-189.947 582.144,-183.0522 571.5557,-183.4256 574.0996,-189.947"/>
</g>
<!-- Node25 -->
<g id="node26" class="node">
<title>Node25</title>
<polygon fill="none" stroke="#bfbfbf" points="643.7061,-165.5 643.7061,-183.5 698.4316,-183.5 698.4316,-165.5 643.7061,-165.5"/>
<text text-anchor="middle" x="671.0688" y="-171.5" font-family="Helvetica,sans-Serif" font-size="10.00" fill="#000000">QVariant</text>
</g>
<!-- Node14&#45;&gt;Node25 -->
<g id="edge35" class="edge">
<title>Node14&#45;&gt;Node25</title>
<path fill="none" stroke="#191970" d="M497.4158,-220.4179C535.0178,-210.475 595.1023,-194.5873 633.817,-184.3503"/>
<polygon fill="#191970" stroke="#191970" points="634.8796,-187.6897 643.6525,-181.7495 633.0901,-180.9222 634.8796,-187.6897"/>
</g>
<!-- Node15&#45;&gt;Node2 -->
<g id="edge20" class="edge">
<title>Node15&#45;&gt;Node2</title>
<path fill="none" stroke="#191970" d="M753.559,-167.0252C699.2304,-156.1989 599.5175,-136.3285 547.9263,-126.0477"/>
<polygon fill="#191970" stroke="#191970" points="548.4704,-122.5874 537.9791,-124.0655 547.1023,-129.4524 548.4704,-122.5874"/>
</g>
<!-- Node16 -->
<g id="node17" class="node">
<title>Node16</title>
<g id="a_node17"><a xlink:href="simpletransaction_8h.html" target="_top" xlink:title="simpletransaction.h">
<polygon fill="none" stroke="#000000" points="746.9927,-110.5 746.9927,-128.5 849.145,-128.5 849.145,-110.5 746.9927,-110.5"/>
<text text-anchor="middle" x="798.0688" y="-116.5" font-family="Helvetica,sans-Serif" font-size="10.00" fill="#000000">simpletransaction.h</text>
</a>
</g>
</g>
<!-- Node15&#45;&gt;Node16 -->
<g id="edge21" class="edge">
<title>Node15&#45;&gt;Node16</title>
<path fill="none" stroke="#191970" d="M792.2248,-165.4179C793.1413,-158.2164 794.4548,-147.8962 795.6044,-138.8632"/>
<polygon fill="#191970" stroke="#191970" points="799.0972,-139.1414 796.8878,-128.7795 792.1532,-138.2575 799.0972,-139.1414"/>
</g>
<!-- Node16&#45;&gt;Node6 -->
<g id="edge22" class="edge">
<title>Node16&#45;&gt;Node6</title>
<path fill="none" stroke="#191970" d="M787.0052,-110.4179C777.0756,-102.2667 762.2788,-90.1201 750.3977,-80.3669"/>
<polygon fill="#191970" stroke="#191970" points="752.323,-77.4192 742.3729,-73.7795 747.8815,-82.8297 752.323,-77.4192"/>
</g>
<!-- Node17 -->
<g id="node18" class="node">
<title>Node17</title>
<polygon fill="none" stroke="#bfbfbf" points="830.165,-55.5 830.165,-73.5 873.9727,-73.5 873.9727,-55.5 830.165,-55.5"/>
<text text-anchor="middle" x="852.0688" y="-61.5" font-family="Helvetica,sans-Serif" font-size="10.00" fill="#000000">queue</text>
</g>
<!-- Node16&#45;&gt;Node17 -->
<g id="edge23" class="edge">
<title>Node16&#45;&gt;Node17</title>
<path fill="none" stroke="#191970" d="M806.9858,-110.4179C814.8334,-102.425 826.4529,-90.5903 835.93,-80.9377"/>
<polygon fill="#191970" stroke="#191970" points="838.4497,-83.3672 842.9581,-73.7795 833.4547,-78.463 838.4497,-83.3672"/>
</g>
</g>
</svg>
        <g id="navigator" transform="translate(0 0)" fill="#404254">
                <rect fill="#f2f5e9" fill-opacity="0.5" stroke="#606060" stroke-width=".5" x="0" y="0" width="60" height="60"/>
                <use id="zoomplus" xlink:href="#zoomPlus" x="17" y="9" onmousedown="handleZoom(evt,'in')"/>
                <use id="zoomminus" xlink:href="#zoomMin" x="42" y="9" onmousedown="handleZoom(evt,'out')"/>
                <use id="reset" xlink:href="#resetDef" x="30" y="36" onmousedown="handleReset()"/>
                <g id="arrowUp" xlink:href="#dirArrow" transform="translate(30 24)" onmousedown="handlePan(0,-1)">
                  <use xlink:href="#rim" fill="#404040">
                        <set attributeName="fill" to="#808080" begin="arrowUp.mouseover" end="arrowUp.mouseout"/>
                  </use>
                  <path fill="none" stroke="white" stroke-width="1.5" d="M0,-3.0v7 M-2.5,-0.5L0,-3.0L2.5,-0.5"/>
                </g>
                <g id="arrowRight" xlink:href="#dirArrow" transform="rotate(90) translate(36 -43)" onmousedown="handlePan(1,0)">
                  <use xlink:href="#rim" fill="#404040">
                        <set attributeName="fill" to="#808080" begin="arrowRight.mouseover" end="arrowRight.mouseout"/>
                  </use>
                  <path fill="none" stroke="white" stroke-width="1.5" d="M0,-3.0v7 M-2.5,-0.5L0,-3.0L2.5,-0.5"/>
                </g>
                <g id="arrowDown" xlink:href="#dirArrow" transform="rotate(180) translate(-30 -48)" onmousedown="handlePan(0,1)">
                  <use xlink:href="#rim" fill="#404040">
                        <set attributeName="fill" to="#808080" begin="arrowDown.mouseover" end="arrowDown.mouseout"/>
                  </use>
                  <path fill="none" stroke="white" stroke-width="1.5" d="M0,-3.0v7 M-2.5,-0.5L0,-3.0L2.5,-0.5"/>
                </g>
                <g id="arrowLeft" xlink:href="#dirArrow" transform="rotate(270) translate(-36 17)" onmousedown="handlePan(-1,0)">
                  <use xlink:href="#rim" fill="#404040">
                        <set attributeName="fill" to="#808080" begin="arrowLeft.mouseover" end="arrowLeft.mouseout"/>
                  </use>
                  <path fill="none" stroke="white" stroke-width="1.5" d="M0,-3.0v7 M-2.5,-0.5L0,-3.0L2.5,-0.5"/>
                </g>
        </g>
        <svg viewBox="0 0 15 15" width="100%" height="30px" preserveAspectRatio="xMaxYMin meet">
         <g id="arrow_out" transform="scale(0.3 0.3)">
          <a xlink:href="realpass_8cpp__incl_org.svg" target="_base">
           <rect id="button" ry="5" rx="5" y="6" x="6" height="38" width="38"
                fill="#f2f5e9" fill-opacity="0.5" stroke="#606060" stroke-width="1.0"/>
           <path id="arrow"
             d="M 11.500037,31.436501 C 11.940474,20.09759 22.043105,11.32322 32.158766,21.979434 L 37.068811,17.246167 C 37.068811,17.246167 37.088388,32 37.088388,32 L 22.160133,31.978069 C 22.160133,31.978069 26.997745,27.140456 26.997745,27.140456 C 18.528582,18.264221 13.291696,25.230495 11.500037,31.436501 z"
             style="fill:#404040;"/>
          </a>
         </g>
        </svg>
</svg>
