<?xml version="1.0" encoding="UTF-8" standalone="no"?>
<!DOCTYPE svg PUBLIC "-//W3C//DTD SVG 1.1//EN"
 "http://www.w3.org/Graphics/SVG/1.1/DTD/svg11.dtd">
<!-- Generated by graphviz version 2.40.1 (20161225.0304)
 -->
<!-- Title: src/realpass.h Pages: 1 -->
<svg width="1025pt" height="137pt"
 viewBox="0.00 0.00 1024.60 137.00" xmlns="http://www.w3.org/2000/svg" xmlns:xlink="http://www.w3.org/1999/xlink">
<g id="graph0" class="graph" transform="scale(1 1) rotate(0) translate(4 133)">
<title>src/realpass.h</title>
<!-- Node13 -->
<g id="node1" class="node">
<title>Node13</title>
<polygon fill="#bfbfbf" stroke="#000000" points="585.0688,-110.5 585.0688,-128.5 663.3149,-128.5 663.3149,-110.5 585.0688,-110.5"/>
<text text-anchor="middle" x="624.1919" y="-116.5" font-family="Helvetica,sans-Serif" font-size="10.00" fill="#000000">src/realpass.h</text>
</g>
<!-- Node14 -->
<g id="node2" class="node">
<title>Node14</title>
<g id="a_node2"><a xlink:href="qtpasssettings_8h.html" target="_top" xlink:title="src/qtpasssettings.h">
<polygon fill="none" stroke="#000000" points="532.0049,-55.5 532.0049,-73.5 636.3789,-73.5 636.3789,-55.5 532.0049,-55.5"/>
<text text-anchor="middle" x="584.1919" y="-61.5" font-family="Helvetica,sans-Serif" font-size="10.00" fill="#000000">src/qtpasssettings.h</text>
</a>
</g>
</g>
<!-- Node13&#45;&gt;Node14 -->
<g id="edge1" class="edge">
<title>Node13&#45;&gt;Node14</title>
<path fill="none" stroke="#191970" d="M611.5712,-102.1465C604.7375,-92.7503 596.5671,-81.5159 590.9406,-73.7795"/>
<polygon fill="#191970" stroke="#191970" points="608.8744,-104.3891 617.5867,-110.4179 614.5355,-100.2719 608.8744,-104.3891"/>
</g>
<!-- Node21 -->
<g id="node9" class="node">
<title>Node21</title>
<g id="a_node9"><a xlink:href="realpass_8cpp.html" target="_top" xlink:title="src/realpass.cpp">
<polygon fill="none" stroke="#000000" points="927.7881,-.5 927.7881,-18.5 1016.5957,-18.5 1016.5957,-.5 927.7881,-.5"/>
<text text-anchor="middle" x="972.1919" y="-6.5" font-family="Helvetica,sans-Serif" font-size="10.00" fill="#000000">src/realpass.cpp</text>
</a>
</g>
</g>
<!-- Node13&#45;&gt;Node21 -->
<g id="edge11" class="edge">
<title>Node13&#45;&gt;Node21</title>
<path fill="none" stroke="#191970" d="M662.4504,-107.4068C732.6972,-85.2024 880.7623,-38.4002 943.3201,-18.6261"/>
<polygon fill="#191970" stroke="#191970" points="661.1503,-104.147 652.6702,-110.4982 663.2601,-110.8215 661.1503,-104.147"/>
</g>
<!-- Node15 -->
<g id="node3" class="node">
<title>Node15</title>
<g id="a_node3"><a xlink:href="configdialog_8cpp.html" target="_top" xlink:title="src/configdialog.cpp">
<polygon fill="none" stroke="#000000" points="0,-.5 0,-18.5 104.3838,-18.5 104.3838,-.5 0,-.5"/>
<text text-anchor="middle" x="52.1919" y="-6.5" font-family="Helvetica,sans-Serif" font-size="10.00" fill="#000000">src/configdialog.cpp</text>
</a>
</g>
</g>
<!-- Node14&#45;&gt;Node15 -->
<g id="edge2" class="edge">
<title>Node14&#45;&gt;Node15</title>
<path fill="none" stroke="#191970" d="M521.7372,-59.6309C431.4207,-52.3255 259.168,-37.402 113.1919,-19 110.3208,-18.6381 107.3767,-18.2468 104.4071,-17.8364"/>
<polygon fill="#191970" stroke="#191970" points="521.5596,-63.1278 531.8082,-60.4413 522.1212,-56.1504 521.5596,-63.1278"/>
</g>
<!-- Node16 -->
<g id="node4" class="node">
<title>Node16</title>
<g id="a_node4"><a xlink:href="imitatepass_8cpp.html" target="_top" xlink:title="src/imitatepass.cpp">
<polygon fill="none" stroke="#000000" points="122.3989,-.5 122.3989,-18.5 223.9849,-18.5 223.9849,-.5 122.3989,-.5"/>
<text text-anchor="middle" x="173.1919" y="-6.5" font-family="Helvetica,sans-Serif" font-size="10.00" fill="#000000">src/imitatepass.cpp</text>
</a>
</g>
</g>
<!-- Node14&#45;&gt;Node16 -->
<g id="edge3" class="edge">
<title>Node14&#45;&gt;Node16</title>
<path fill="none" stroke="#191970" d="M521.7854,-56.9478C451.5447,-48.3226 334.0588,-33.52 233.1919,-19 230.269,-18.5792 227.2678,-18.1369 224.2402,-17.6827"/>
<polygon fill="#191970" stroke="#191970" points="521.4468,-60.4324 531.7983,-58.1748 522.2983,-53.4844 521.4468,-60.4324"/>
</g>
<!-- Node17 -->
<g id="node5" class="node">
<title>Node17</title>
<g id="a_node5"><a xlink:href="mainwindow_8cpp.html" target="_top" xlink:title="src/mainwindow.cpp">
<polygon fill="none" stroke="#000000" points="242.4482,-.5 242.4482,-18.5 347.9355,-18.5 347.9355,-.5 242.4482,-.5"/>
<text text-anchor="middle" x="295.1919" y="-6.5" font-family="Helvetica,sans-Serif" font-size="10.00" fill="#000000">src/mainwindow.cpp</text>
</a>
</g>
</g>
<!-- Node14&#45;&gt;Node17 -->
<g id="edge4" class="edge">
<title>Node14&#45;&gt;Node17</title>
<path fill="none" stroke="#191970" d="M526.6982,-53.5583C472.7498,-43.2913 393.0235,-28.1185 342.6166,-18.5255"/>
<polygon fill="#191970" stroke="#191970" points="526.315,-57.0481 536.793,-55.4795 527.6237,-50.1715 526.315,-57.0481"/>
</g>
<!-- Node18 -->
<g id="node6" class="node">
<title>Node18</title>
<g id="a_node6"><a xlink:href="pass_8cpp.html" target="_top" xlink:title="src/pass.cpp">
<polygon fill="none" stroke="#000000" points="366.1255,-.5 366.1255,-18.5 438.2583,-18.5 438.2583,-.5 366.1255,-.5"/>
<text text-anchor="middle" x="402.1919" y="-6.5" font-family="Helvetica,sans-Serif" font-size="10.00" fill="#000000">src/pass.cpp</text>
</a>
</g>
</g>
<!-- Node14&#45;&gt;Node18 -->
<g id="edge5" class="edge">
<title>Node14&#45;&gt;Node18</title>
<path fill="none" stroke="#191970" d="M544.5489,-52.52C510.6713,-42.2822 462.675,-27.7779 431.9876,-18.5042"/>
<polygon fill="#191970" stroke="#191970" points="543.5533,-55.8754 554.1383,-55.4179 545.5783,-49.1747 543.5533,-55.8754"/>
</g>
<!-- Node19 -->
<g id="node7" class="node">
<title>Node19</title>
<g id="a_node7"><a xlink:href="passworddialog_8cpp.html" target="_top" xlink:title="src/passworddialog.cpp">
<polygon fill="none" stroke="#000000" points="455.9434,-.5 455.9434,-18.5 576.4404,-18.5 576.4404,-.5 455.9434,-.5"/>
<text text-anchor="middle" x="516.1919" y="-6.5" font-family="Helvetica,sans-Serif" font-size="10.00" fill="#000000">src/passworddialog.cpp</text>
</a>
</g>
</g>
<!-- Node14&#45;&gt;Node19 -->
<g id="edge6" class="edge">
<title>Node14&#45;&gt;Node19</title>
<path fill="none" stroke="#191970" d="M564.8648,-48.8678C552.8544,-39.1535 537.8214,-26.9944 527.6647,-18.7795"/>
<polygon fill="#191970" stroke="#191970" points="562.9869,-51.8504 572.9631,-55.4179 567.389,-46.4078 562.9869,-51.8504"/>
</g>
<!-- Node20 -->
<g id="node8" class="node">
<title>Node20</title>
<g id="a_node8"><a xlink:href="qtpasssettings_8cpp.html" target="_top" xlink:title="src/qtpasssettings.cpp">
<polygon fill="none" stroke="#000000" points="594.7241,-.5 594.7241,-18.5 709.6597,-18.5 709.6597,-.5 594.7241,-.5"/>
<text text-anchor="middle" x="652.1919" y="-6.5" font-family="Helvetica,sans-Serif" font-size="10.00" fill="#000000">src/qtpasssettings.cpp</text>
</a>
</g>
</g>
<!-- Node14&#45;&gt;Node20 -->
<g id="edge7" class="edge">
<title>Node14&#45;&gt;Node20</title>
<path fill="none" stroke="#191970" d="M603.519,-48.8678C615.5294,-39.1535 630.5624,-26.9944 640.7191,-18.7795"/>
<polygon fill="#191970" stroke="#191970" points="600.9948,-46.4078 595.4207,-55.4179 605.3969,-51.8504 600.9948,-46.4078"/>
</g>
<!-- Node14&#45;&gt;Node21 -->
<g id="edge8" class="edge">
<title>Node14&#45;&gt;Node21</title>
<path fill="none" stroke="#191970" d="M646.5412,-56.8339C713.9026,-48.3643 824.3368,-33.936 919.1919,-19 921.9622,-18.5638 924.811,-18.0994 927.682,-17.6193"/>
<polygon fill="#191970" stroke="#191970" points="646.0028,-53.3739 636.5157,-58.0904 646.8734,-60.3195 646.0028,-53.3739"/>
</g>
<!-- Node22 -->
<g id="node10" class="node">
<title>Node22</title>
<g id="a_node10"><a xlink:href="storemodel_8cpp.html" target="_top" xlink:title="src/storemodel.cpp">
<polygon fill="none" stroke="#000000" points="727.9531,-.5 727.9531,-18.5 828.4307,-18.5 828.4307,-.5 727.9531,-.5"/>
<text text-anchor="middle" x="778.1919" y="-6.5" font-family="Helvetica,sans-Serif" font-size="10.00" fill="#000000">src/storemodel.cpp</text>
</a>
</g>
</g>
<!-- Node14&#45;&gt;Node22 -->
<g id="edge9" class="edge">
<title>Node14&#45;&gt;Node22</title>
<path fill="none" stroke="#191970" d="M625.9846,-52.6515C662.1205,-42.4068 713.5805,-27.8177 746.4316,-18.5042"/>
<polygon fill="#191970" stroke="#191970" points="624.8932,-49.3229 616.227,-55.4179 626.8026,-56.0575 624.8932,-49.3229"/>
</g>
<!-- Node23 -->
<g id="node11" class="node">
<title>Node23</title>
<g id="a_node11"><a xlink:href="util_8cpp.html" target="_top" xlink:title="src/util.cpp">
<polygon fill="none" stroke="#000000" points="846.2954,-.5 846.2954,-18.5 910.0884,-18.5 910.0884,-.5 846.2954,-.5"/>
<text text-anchor="middle" x="878.1919" y="-6.5" font-family="Helvetica,sans-Serif" font-size="10.00" fill="#000000">src/util.cpp</text>
</a>
</g>
</g>
<!-- Node14&#45;&gt;Node23 -->
<g id="edge10" class="edge">
<title>Node14&#45;&gt;Node23</title>
<path fill="none" stroke="#191970" d="M646.6113,-54.1643C697.919,-45.455 772.4412,-32.3155 837.1919,-19 840.0546,-18.4113 843.0238,-17.7746 845.9961,-17.1194"/>
<polygon fill="#191970" stroke="#191970" points="645.9453,-50.7271 636.669,-55.8458 647.1127,-57.6291 645.9453,-50.7271"/>
</g>
</g>
</svg>
