<?xml version="1.0" encoding="UTF-8" standalone="no"?>
<!DOCTYPE svg PUBLIC "-//W3C//DTD SVG 1.1//EN"
 "http://www.w3.org/Graphics/SVG/1.1/DTD/svg11.dtd">
<!-- Generated by graphviz version 2.49.3 (0)
 -->
<!-- Title: src/realpass.h Pages: 1 -->
<svg width="456pt" height="192pt"
 viewBox="0.00 0.00 455.50 192.00" xmlns="http://www.w3.org/2000/svg" xmlns:xlink="http://www.w3.org/1999/xlink">
<g id="graph0" class="graph" transform="scale(1 1) rotate(0) translate(4 188)">
<title>src/realpass.h</title>
<!-- Node1 -->
<g id="node1" class="node">
<title>Node1</title>
<g id="a_node1"><a xlink:title=" ">
<polygon fill="#999999" stroke="#666666" points="268,-184 190,-184 190,-165 268,-165 268,-184"/>
<text text-anchor="middle" x="229" y="-172" font-family="Helvetica,sans-Serif" font-size="10.00">src/realpass.h</text>
</a>
</g>
</g>
<!-- Node2 -->
<g id="node2" class="node">
<title>Node2</title>
<g id="a_node2"><a xlink:href="pass_8h.html" target="_top" xlink:title=" ">
<polygon fill="white" stroke="#666666" points="252,-129 206,-129 206,-110 252,-110 252,-129"/>
<text text-anchor="middle" x="229" y="-117" font-family="Helvetica,sans-Serif" font-size="10.00">pass.h</text>
</a>
</g>
</g>
<!-- Node1&#45;&gt;Node2 -->
<g id="edge1" class="edge">
<title>Node1&#45;&gt;Node2</title>
<path fill="none" stroke="#63b8ff" d="M229,-164.75C229,-157.8 229,-147.85 229,-139.13"/>
<polygon fill="#63b8ff" stroke="#63b8ff" points="232.5,-139.09 229,-129.09 225.5,-139.09 232.5,-139.09"/>
</g>
<!-- Node3 -->
<g id="node3" class="node">
<title>Node3</title>
<g id="a_node3"><a xlink:href="enums_8h.html" target="_top" xlink:title=" ">
<polygon fill="white" stroke="#666666" points="54,-74 0,-74 0,-55 54,-55 54,-74"/>
<text text-anchor="middle" x="27" y="-62" font-family="Helvetica,sans-Serif" font-size="10.00">enums.h</text>
</a>
</g>
</g>
<!-- Node2&#45;&gt;Node3 -->
<g id="edge2" class="edge">
<title>Node2&#45;&gt;Node3</title>
<path fill="none" stroke="#63b8ff" d="M205.83,-112.42C171.08,-103.3 105.13,-86 63.76,-75.15"/>
<polygon fill="#63b8ff" stroke="#63b8ff" points="64.62,-71.75 54.06,-72.6 62.85,-78.52 64.62,-71.75"/>
</g>
<!-- Node4 -->
<g id="node4" class="node">
<title>Node4</title>
<g id="a_node4"><a xlink:href="executor_8h.html" target="_top" xlink:title=" ">
<polygon fill="white" stroke="#666666" points="172,-74 110,-74 110,-55 172,-55 172,-74"/>
<text text-anchor="middle" x="141" y="-62" font-family="Helvetica,sans-Serif" font-size="10.00">executor.h</text>
</a>
</g>
</g>
<!-- Node2&#45;&gt;Node4 -->
<g id="edge3" class="edge">
<title>Node2&#45;&gt;Node4</title>
<path fill="none" stroke="#63b8ff" d="M214.86,-109.98C201.21,-101.77 180.31,-89.18 164.22,-79.49"/>
<polygon fill="#63b8ff" stroke="#63b8ff" points="165.77,-76.33 155.4,-74.17 162.16,-82.33 165.77,-76.33"/>
</g>
<!-- Node6 -->
<g id="node6" class="node">
<title>Node6</title>
<g id="a_node6"><a xlink:title=" ">
<polygon fill="#e0e0e0" stroke="#999999" points="74,-19 14,-19 14,0 74,0 74,-19"/>
<text text-anchor="middle" x="44" y="-7" font-family="Helvetica,sans-Serif" font-size="10.00">QProcess</text>
</a>
</g>
</g>
<!-- Node2&#45;&gt;Node6 -->
<g id="edge10" class="edge">
<title>Node2&#45;&gt;Node6</title>
<path fill="none" stroke="#63b8ff" d="M205.69,-114.1C178.75,-108.21 133.91,-95.89 101,-74 82.38,-61.62 65.9,-41.76 55.51,-27.55"/>
<polygon fill="#63b8ff" stroke="#63b8ff" points="58.22,-25.32 49.6,-19.16 52.5,-29.35 58.22,-25.32"/>
</g>
<!-- Node7 -->
<g id="node7" class="node">
<title>Node7</title>
<g id="a_node7"><a xlink:title=" ">
<polygon fill="#e0e0e0" stroke="#999999" points="216.5,-19 163.5,-19 163.5,0 216.5,0 216.5,-19"/>
<text text-anchor="middle" x="190" y="-7" font-family="Helvetica,sans-Serif" font-size="10.00">QQueue</text>
</a>
</g>
</g>
<!-- Node2&#45;&gt;Node7 -->
<g id="edge11" class="edge">
<title>Node2&#45;&gt;Node7</title>
<path fill="none" stroke="#63b8ff" d="M225.81,-109.66C219.43,-92.01 205.02,-52.09 196.55,-28.64"/>
<polygon fill="#63b8ff" stroke="#63b8ff" points="199.82,-27.38 193.13,-19.16 193.23,-29.75 199.82,-27.38"/>
</g>
<!-- Node8 -->
<g id="node8" class="node">
<title>Node8</title>
<g id="a_node8"><a xlink:href="userinfo_8h.html" target="_top" xlink:title=" ">
<polygon fill="white" stroke="#666666" points="287.5,-74 228.5,-74 228.5,-55 287.5,-55 287.5,-74"/>
<text text-anchor="middle" x="258" y="-62" font-family="Helvetica,sans-Serif" font-size="10.00">userinfo.h</text>
</a>
</g>
</g>
<!-- Node2&#45;&gt;Node8 -->
<g id="edge7" class="edge">
<title>Node2&#45;&gt;Node8</title>
<path fill="none" stroke="#63b8ff" d="M233.79,-109.75C237.76,-102.49 243.53,-91.95 248.43,-82.98"/>
<polygon fill="#63b8ff" stroke="#63b8ff" points="251.57,-84.54 253.3,-74.09 245.43,-81.18 251.57,-84.54"/>
</g>
<!-- Node10 -->
<g id="node10" class="node">
<title>Node10</title>
<g id="a_node10"><a xlink:title=" ">
<polygon fill="#e0e0e0" stroke="#999999" points="370,-19 320,-19 320,0 370,0 370,-19"/>
<text text-anchor="middle" x="345" y="-7" font-family="Helvetica,sans-Serif" font-size="10.00">QString</text>
</a>
</g>
</g>
<!-- Node2&#45;&gt;Node10 -->
<g id="edge12" class="edge">
<title>Node2&#45;&gt;Node10</title>
<path fill="none" stroke="#63b8ff" d="M245.51,-109.84C260.02,-101.75 281.23,-88.74 297,-74 311.79,-60.18 325.37,-41.39 334.28,-27.84"/>
<polygon fill="#63b8ff" stroke="#63b8ff" points="337.46,-29.36 339.89,-19.05 331.56,-25.59 337.46,-29.36"/>
</g>
<!-- Node11 -->
<g id="node11" class="node">
<title>Node11</title>
<g id="a_node11"><a xlink:title=" ">
<polygon fill="#e0e0e0" stroke="#999999" points="394,-74 344,-74 344,-55 394,-55 394,-74"/>
<text text-anchor="middle" x="369" y="-62" font-family="Helvetica,sans-Serif" font-size="10.00">cassert</text>
</a>
</g>
</g>
<!-- Node2&#45;&gt;Node11 -->
<g id="edge13" class="edge">
<title>Node2&#45;&gt;Node11</title>
<path fill="none" stroke="#63b8ff" d="M251.49,-109.98C274.52,-101.27 310.54,-87.63 336.63,-77.75"/>
<polygon fill="#63b8ff" stroke="#63b8ff" points="337.98,-80.98 346.1,-74.17 335.51,-74.44 337.98,-80.98"/>
</g>
<!-- Node12 -->
<g id="node12" class="node">
<title>Node12</title>
<g id="a_node12"><a xlink:title=" ">
<polygon fill="#e0e0e0" stroke="#999999" points="447.5,-74 412.5,-74 412.5,-55 447.5,-55 447.5,-74"/>
<text text-anchor="middle" x="430" y="-62" font-family="Helvetica,sans-Serif" font-size="10.00">map</text>
</a>
</g>
</g>
<!-- Node2&#45;&gt;Node12 -->
<g id="edge14" class="edge">
<title>Node2&#45;&gt;Node12</title>
<path fill="none" stroke="#63b8ff" d="M252.19,-113C283.88,-105.38 342.69,-90.93 402.36,-74.06"/>
<polygon fill="#63b8ff" stroke="#63b8ff" points="403.66,-77.32 412.32,-71.22 401.75,-70.59 403.66,-77.32"/>
</g>
<!-- Node5 -->
<g id="node5" class="node">
<title>Node5</title>
<g id="a_node5"><a xlink:title=" ">
<polygon fill="#e0e0e0" stroke="#999999" points="145.5,-19 92.5,-19 92.5,0 145.5,0 145.5,-19"/>
<text text-anchor="middle" x="119" y="-7" font-family="Helvetica,sans-Serif" font-size="10.00">QObject</text>
</a>
</g>
</g>
<!-- Node4&#45;&gt;Node5 -->
<g id="edge4" class="edge">
<title>Node4&#45;&gt;Node5</title>
<path fill="none" stroke="#63b8ff" d="M137.37,-54.75C134.42,-47.65 130.17,-37.4 126.49,-28.56"/>
<polygon fill="#63b8ff" stroke="#63b8ff" points="129.63,-26.98 122.57,-19.09 123.17,-29.67 129.63,-26.98"/>
</g>
<!-- Node4&#45;&gt;Node6 -->
<g id="edge5" class="edge">
<title>Node4&#45;&gt;Node6</title>
<path fill="none" stroke="#63b8ff" d="M125.42,-54.98C110.23,-46.69 86.9,-33.94 69.1,-24.22"/>
<polygon fill="#63b8ff" stroke="#63b8ff" points="70.32,-20.89 59.87,-19.17 66.97,-27.04 70.32,-20.89"/>
</g>
<!-- Node4&#45;&gt;Node7 -->
<g id="edge6" class="edge">
<title>Node4&#45;&gt;Node7</title>
<path fill="none" stroke="#63b8ff" d="M149.09,-54.75C156.16,-47.11 166.59,-35.82 175.15,-26.56"/>
<polygon fill="#63b8ff" stroke="#63b8ff" points="177.84,-28.81 182.06,-19.09 172.7,-24.06 177.84,-28.81"/>
</g>
<!-- Node9 -->
<g id="node9" class="node">
<title>Node9</title>
<g id="a_node9"><a xlink:title=" ">
<polygon fill="#e0e0e0" stroke="#999999" points="301.5,-19 234.5,-19 234.5,0 301.5,0 301.5,-19"/>
<text text-anchor="middle" x="268" y="-7" font-family="Helvetica,sans-Serif" font-size="10.00">QDateTime</text>
</a>
</g>
</g>
<!-- Node8&#45;&gt;Node9 -->
<g id="edge8" class="edge">
<title>Node8&#45;&gt;Node9</title>
<path fill="none" stroke="#63b8ff" d="M259.65,-54.75C260.96,-47.8 262.84,-37.85 264.48,-29.13"/>
<polygon fill="#63b8ff" stroke="#63b8ff" points="267.96,-29.56 266.38,-19.09 261.09,-28.27 267.96,-29.56"/>
</g>
<!-- Node8&#45;&gt;Node10 -->
<g id="edge9" class="edge">
<title>Node8&#45;&gt;Node10</title>
<path fill="none" stroke="#63b8ff" d="M271.98,-54.98C285.47,-46.77 306.13,-34.18 322.04,-24.49"/>
<polygon fill="#63b8ff" stroke="#63b8ff" points="324.05,-27.36 330.77,-19.17 320.41,-21.38 324.05,-27.36"/>
</g>
</g>
</svg>
