<?xml version="1.0" encoding="UTF-8" standalone="no"?>
<!DOCTYPE svg PUBLIC "-//W3C//DTD SVG 1.1//EN"
 "http://www.w3.org/Graphics/SVG/1.1/DTD/svg11.dtd">
<!-- Generated by graphviz version 2.40.1 (20161225.0304)
 -->
<!-- Title: src/realpass.h Pages: 1 -->
<svg width="1243pt" height="137pt"
 viewBox="0.00 0.00 1242.60 137.00" xmlns="http://www.w3.org/2000/svg" xmlns:xlink="http://www.w3.org/1999/xlink">
<g id="graph0" class="graph" transform="scale(1 1) rotate(0) translate(4 133)">
<title>src/realpass.h</title>
<!-- Node13 -->
<g id="node1" class="node">
<title>Node13</title>
<polygon fill="#bfbfbf" stroke="#000000" points="693.0688,-110.5 693.0688,-128.5 771.3149,-128.5 771.3149,-110.5 693.0688,-110.5"/>
<text text-anchor="middle" x="732.1919" y="-116.5" font-family="Helvetica,sans-Serif" font-size="10.00" fill="#000000">src/realpass.h</text>
</g>
<!-- Node14 -->
<g id="node2" class="node">
<title>Node14</title>
<g id="a_node2"><a xlink:href="qtpasssettings_8h.html" target="_top" xlink:title="src/qtpasssettings.h">
<polygon fill="none" stroke="#000000" points="640.0049,-55.5 640.0049,-73.5 744.3789,-73.5 744.3789,-55.5 640.0049,-55.5"/>
<text text-anchor="middle" x="692.1919" y="-61.5" font-family="Helvetica,sans-Serif" font-size="10.00" fill="#000000">src/qtpasssettings.h</text>
</a>
</g>
</g>
<!-- Node13&#45;&gt;Node14 -->
<g id="edge1" class="edge">
<title>Node13&#45;&gt;Node14</title>
<path fill="none" stroke="#191970" d="M719.5712,-102.1465C712.7375,-92.7503 704.5671,-81.5159 698.9406,-73.7795"/>
<polygon fill="#191970" stroke="#191970" points="716.8744,-104.3891 725.5867,-110.4179 722.5355,-100.2719 716.8744,-104.3891"/>
</g>
<!-- Node22 -->
<g id="node10" class="node">
<title>Node22</title>
<g id="a_node10"><a xlink:href="realpass_8cpp.html" target="_top" xlink:title="src/realpass.cpp">
<polygon fill="none" stroke="#000000" points="1145.7881,-.5 1145.7881,-18.5 1234.5957,-18.5 1234.5957,-.5 1145.7881,-.5"/>
<text text-anchor="middle" x="1190.1919" y="-6.5" font-family="Helvetica,sans-Serif" font-size="10.00" fill="#000000">src/realpass.cpp</text>
</a>
</g>
</g>
<!-- Node13&#45;&gt;Node22 -->
<g id="edge13" class="edge">
<title>Node13&#45;&gt;Node22</title>
<path fill="none" stroke="#191970" d="M779.4698,-108.1451C870.7241,-86.2281 1069.4502,-38.4991 1152.5157,-18.5489"/>
<polygon fill="#191970" stroke="#191970" points="778.5781,-104.7596 769.672,-110.4982 780.2128,-111.566 778.5781,-104.7596"/>
</g>
<!-- Node15 -->
<g id="node3" class="node">
<title>Node15</title>
<g id="a_node3"><a xlink:href="configdialog_8cpp.html" target="_top" xlink:title="src/configdialog.cpp">
<polygon fill="none" stroke="#000000" points="0,-.5 0,-18.5 104.3838,-18.5 104.3838,-.5 0,-.5"/>
<text text-anchor="middle" x="52.1919" y="-6.5" font-family="Helvetica,sans-Serif" font-size="10.00" fill="#000000">src/configdialog.cpp</text>
</a>
</g>
</g>
<!-- Node14&#45;&gt;Node15 -->
<g id="edge2" class="edge">
<title>Node14&#45;&gt;Node15</title>
<path fill="none" stroke="#191970" d="M629.5314,-61.1426C523.1439,-55.0919 300.4904,-40.9119 113.1919,-19 110.3177,-18.6637 107.3712,-18.2927 104.3996,-17.8981"/>
<polygon fill="#191970" stroke="#191970" points="629.5858,-64.6511 639.7671,-61.72 629.9801,-57.6623 629.5858,-64.6511"/>
</g>
<!-- Node16 -->
<g id="node4" class="node">
<title>Node16</title>
<g id="a_node4"><a xlink:href="imitatepass_8cpp.html" target="_top" xlink:title="src/imitatepass.cpp">
<polygon fill="none" stroke="#000000" points="122.3989,-.5 122.3989,-18.5 223.9849,-18.5 223.9849,-.5 122.3989,-.5"/>
<text text-anchor="middle" x="173.1919" y="-6.5" font-family="Helvetica,sans-Serif" font-size="10.00" fill="#000000">src/imitatepass.cpp</text>
</a>
</g>
</g>
<!-- Node14&#45;&gt;Node16 -->
<g id="edge3" class="edge">
<title>Node14&#45;&gt;Node16</title>
<path fill="none" stroke="#191970" d="M629.6297,-59.4605C541.1638,-52.0703 374.5298,-37.1789 233.1919,-19 230.263,-18.6233 227.2571,-18.2153 224.2259,-17.7875"/>
<polygon fill="#191970" stroke="#191970" points="629.5082,-62.9624 639.7638,-60.3028 630.0881,-55.9865 629.5082,-62.9624"/>
</g>
<!-- Node17 -->
<g id="node5" class="node">
<title>Node17</title>
<g id="a_node5"><a xlink:href="mainwindow_8cpp.html" target="_top" xlink:title="src/mainwindow.cpp">
<polygon fill="none" stroke="#000000" points="242.4482,-.5 242.4482,-18.5 347.9355,-18.5 347.9355,-.5 242.4482,-.5"/>
<text text-anchor="middle" x="295.1919" y="-6.5" font-family="Helvetica,sans-Serif" font-size="10.00" fill="#000000">src/mainwindow.cpp</text>
</a>
</g>
</g>
<!-- Node14&#45;&gt;Node17 -->
<g id="edge4" class="edge">
<title>Node14&#45;&gt;Node17</title>
<path fill="none" stroke="#191970" d="M629.9135,-56.3641C562.6122,-47.4967 452.2285,-32.734 357.1919,-19 354.1742,-18.5639 351.0749,-18.1096 347.948,-17.6462"/>
<polygon fill="#191970" stroke="#191970" points="629.5585,-59.8475 639.9297,-57.6822 630.4718,-52.9073 629.5585,-59.8475"/>
</g>
<!-- Node18 -->
<g id="node6" class="node">
<title>Node18</title>
<g id="a_node6"><a xlink:href="pass_8cpp.html" target="_top" xlink:title="src/pass.cpp">
<polygon fill="none" stroke="#000000" points="366.1255,-.5 366.1255,-18.5 438.2583,-18.5 438.2583,-.5 366.1255,-.5"/>
<text text-anchor="middle" x="402.1919" y="-6.5" font-family="Helvetica,sans-Serif" font-size="10.00" fill="#000000">src/pass.cpp</text>
</a>
</g>
</g>
<!-- Node14&#45;&gt;Node18 -->
<g id="edge5" class="edge">
<title>Node14&#45;&gt;Node18</title>
<path fill="none" stroke="#191970" d="M631.5176,-53.6576C581.8898,-44.6869 509.9179,-31.4437 447.1919,-19 444.3724,-18.4407 441.4559,-17.8508 438.5256,-17.25"/>
<polygon fill="#191970" stroke="#191970" points="630.9836,-57.1177 641.4462,-55.4492 632.2267,-50.229 630.9836,-57.1177"/>
</g>
<!-- Node19 -->
<g id="node7" class="node">
<title>Node19</title>
<g id="a_node7"><a xlink:href="passworddialog_8cpp.html" target="_top" xlink:title="src/passworddialog.cpp">
<polygon fill="none" stroke="#000000" points="455.9434,-.5 455.9434,-18.5 576.4404,-18.5 576.4404,-.5 455.9434,-.5"/>
<text text-anchor="middle" x="516.1919" y="-6.5" font-family="Helvetica,sans-Serif" font-size="10.00" fill="#000000">src/passworddialog.cpp</text>
</a>
</g>
</g>
<!-- Node14&#45;&gt;Node19 -->
<g id="edge6" class="edge">
<title>Node14&#45;&gt;Node19</title>
<path fill="none" stroke="#191970" d="M653.4332,-52.3879C620.697,-42.1578 574.5537,-27.7381 545.0054,-18.5042"/>
<polygon fill="#191970" stroke="#191970" points="652.5403,-55.7757 663.1291,-55.4179 654.6283,-49.0944 652.5403,-55.7757"/>
</g>
<!-- Node20 -->
<g id="node8" class="node">
<title>Node20</title>
<g id="a_node8"><a xlink:href="qtpass_8cpp.html" target="_top" xlink:title="src/qtpass.cpp">
<polygon fill="none" stroke="#000000" points="593.9556,-.5 593.9556,-18.5 674.4282,-18.5 674.4282,-.5 593.9556,-.5"/>
<text text-anchor="middle" x="634.1919" y="-6.5" font-family="Helvetica,sans-Serif" font-size="10.00" fill="#000000">src/qtpass.cpp</text>
</a>
</g>
</g>
<!-- Node14&#45;&gt;Node20 -->
<g id="edge7" class="edge">
<title>Node14&#45;&gt;Node20</title>
<path fill="none" stroke="#191970" d="M675.1074,-48.2992C664.9664,-38.6828 652.4724,-26.8349 643.9775,-18.7795"/>
<polygon fill="#191970" stroke="#191970" points="672.9498,-51.0766 682.6144,-55.4179 677.7664,-45.9972 672.9498,-51.0766"/>
</g>
<!-- Node21 -->
<g id="node9" class="node">
<title>Node21</title>
<g id="a_node9"><a xlink:href="qtpasssettings_8cpp.html" target="_top" xlink:title="src/qtpasssettings.cpp">
<polygon fill="none" stroke="#000000" points="692.7241,-.5 692.7241,-18.5 807.6597,-18.5 807.6597,-.5 692.7241,-.5"/>
<text text-anchor="middle" x="750.1919" y="-6.5" font-family="Helvetica,sans-Serif" font-size="10.00" fill="#000000">src/qtpasssettings.cpp</text>
</a>
</g>
</g>
<!-- Node14&#45;&gt;Node21 -->
<g id="edge8" class="edge">
<title>Node14&#45;&gt;Node21</title>
<path fill="none" stroke="#191970" d="M709.2764,-48.2992C719.4173,-38.6828 731.9114,-26.8349 740.4063,-18.7795"/>
<polygon fill="#191970" stroke="#191970" points="706.6173,-45.9972 701.7694,-55.4179 711.434,-51.0766 706.6173,-45.9972"/>
</g>
<!-- Node14&#45;&gt;Node22 -->
<g id="edge9" class="edge">
<title>Node14&#45;&gt;Node22</title>
<path fill="none" stroke="#191970" d="M754.5552,-59.6182C840.7917,-52.5275 1001.2161,-38.1103 1137.1919,-19 1139.969,-18.6097 1142.8231,-18.1804 1145.6979,-17.7266"/>
<polygon fill="#191970" stroke="#191970" points="754.0949,-56.1441 744.413,-60.4465 754.6647,-63.1209 754.0949,-56.1441"/>
</g>
<!-- Node23 -->
<g id="node11" class="node">
<title>Node23</title>
<g id="a_node11"><a xlink:href="storemodel_8cpp.html" target="_top" xlink:title="src/storemodel.cpp">
<polygon fill="none" stroke="#000000" points="825.9531,-.5 825.9531,-18.5 926.4307,-18.5 926.4307,-.5 825.9531,-.5"/>
<text text-anchor="middle" x="876.1919" y="-6.5" font-family="Helvetica,sans-Serif" font-size="10.00" fill="#000000">src/storemodel.cpp</text>
</a>
</g>
</g>
<!-- Node14&#45;&gt;Node23 -->
<g id="edge10" class="edge">
<title>Node14&#45;&gt;Node23</title>
<path fill="none" stroke="#191970" d="M732.2706,-52.52C766.5204,-42.2822 815.0442,-27.7779 846.0687,-18.5042"/>
<polygon fill="#191970" stroke="#191970" points="731.1545,-49.2005 722.5758,-55.4179 733.1593,-55.9073 731.1545,-49.2005"/>
</g>
<!-- Node24 -->
<g id="node12" class="node">
<title>Node24</title>
<g id="a_node12"><a xlink:href="usersdialog_8cpp.html" target="_top" xlink:title="src/usersdialog.cpp">
<polygon fill="none" stroke="#000000" points="944.1157,-.5 944.1157,-18.5 1046.2681,-18.5 1046.2681,-.5 944.1157,-.5"/>
<text text-anchor="middle" x="995.1919" y="-6.5" font-family="Helvetica,sans-Serif" font-size="10.00" fill="#000000">src/usersdialog.cpp</text>
</a>
</g>
</g>
<!-- Node14&#45;&gt;Node24 -->
<g id="edge11" class="edge">
<title>Node14&#45;&gt;Node24</title>
<path fill="none" stroke="#191970" d="M751.7666,-53.6861C808.3369,-43.4176 892.4013,-28.1584 945.4698,-18.5255"/>
<polygon fill="#191970" stroke="#191970" points="751.101,-50.2497 741.8869,-55.4795 752.3512,-57.1371 751.101,-50.2497"/>
</g>
<!-- Node25 -->
<g id="node13" class="node">
<title>Node25</title>
<g id="a_node13"><a xlink:href="util_8cpp.html" target="_top" xlink:title="src/util.cpp">
<polygon fill="none" stroke="#000000" points="1064.2954,-.5 1064.2954,-18.5 1128.0884,-18.5 1128.0884,-.5 1064.2954,-.5"/>
<text text-anchor="middle" x="1096.1919" y="-6.5" font-family="Helvetica,sans-Serif" font-size="10.00" fill="#000000">src/util.cpp</text>
</a>
</g>
</g>
<!-- Node14&#45;&gt;Node25 -->
<g id="edge12" class="edge">
<title>Node14&#45;&gt;Node25</title>
<path fill="none" stroke="#191970" d="M754.7767,-58.6337C827.3557,-51.3737 950.4457,-37.6488 1055.1919,-19 1058.0693,-18.4877 1061.0485,-17.9036 1064.0274,-17.2826"/>
<polygon fill="#191970" stroke="#191970" points="754.0491,-55.1886 744.443,-59.6578 754.7395,-62.1545 754.0491,-55.1886"/>
</g>
</g>
</svg>
