<?xml version="1.0" encoding="UTF-8" standalone="no"?>
<!DOCTYPE svg PUBLIC "-//W3C//DTD SVG 1.1//EN"
 "http://www.w3.org/Graphics/SVG/1.1/DTD/svg11.dtd">
<!-- Generated by graphviz version 2.38.0 (20140413.2041)
 -->
<!-- Title: realpass.cpp Pages: 1 -->
<!--zoomable 357 -->
<svg id="main" version="1.1" xmlns="http://www.w3.org/2000/svg" xmlns:xlink="http://www.w3.org/1999/xlink" xml:space="preserve" onload="init(evt)">
<style type="text/css"><![CDATA[
.edge:hover path { stroke: red; }
.edge:hover polygon { stroke: red; fill: red; }
]]></style>
<script type="text/javascript"><![CDATA[
var edges = document.getElementsByTagName('g');
if (edges && edges.length) {
  for (var i=0;i<edges.length;i++) {
    if (edges[i].id.substr(0,4)=='edge') {
      edges[i].setAttribute('class','edge');
    }
  }
}
]]></script>
        <defs>
                <circle id="rim" cx="0" cy="0" r="7"/>
                <circle id="rim2" cx="0" cy="0" r="3.5"/>
                <g id="zoomPlus">
                        <use xlink:href="#rim" fill="#404040">
                                <set attributeName="fill" to="#808080" begin="zoomplus.mouseover" end="zoomplus.mouseout"/>
                        </use>
                        <path d="M-4,0h8M0,-4v8" fill="none" stroke="white" stroke-width="1.5" pointer-events="none"/>
                </g>
                <g id="zoomMin">
                        <use xlink:href="#rim" fill="#404040">
                                <set attributeName="fill" to="#808080" begin="zoomminus.mouseover" end="zoomminus.mouseout"/>
                        </use>
                        <path d="M-4,0h8" fill="none" stroke="white" stroke-width="1.5" pointer-events="none"/>
                </g>
                <g id="dirArrow">
                        <path fill="none" stroke="white" stroke-width="1.5" d="M0,-3.0v7 M-2.5,-0.5L0,-3.0L2.5,-0.5"/>
                </g>
               <g id="resetDef">
                       <use xlink:href="#rim2" fill="#404040">
                               <set attributeName="fill" to="#808080" begin="reset.mouseover" end="reset.mouseout"/>
                       </use>
               </g>
        </defs>

<script type="text/javascript">
var viewWidth = 1248;
var viewHeight = 357;
var sectionId = 'dynsection-0';
</script>
<script xlink:href="svgpan.js"/>
<svg id="graph" class="graph">
<g id="viewport">
<title>realpass.cpp</title>
<!-- Node0 -->
<g id="node1" class="node"><title>Node0</title>
<polygon fill="#bfbfbf" stroke="black" points="944.951,-330.5 944.951,-348.5 1017.65,-348.5 1017.65,-330.5 944.951,-330.5"/>
<text text-anchor="middle" x="981.3" y="-336.5" font-family="Helvetica,sans-Serif" font-size="10.00">realpass.cpp</text>
</g>
<!-- Node1 -->
<g id="node2" class="node"><title>Node1</title>
<g id="a_node2"><a xlink:href="realpass_8h.html" target="_top" xlink:title="realpass.h">
<polygon fill="none" stroke="black" points="1143.23,-165.5 1143.23,-183.5 1205.37,-183.5 1205.37,-165.5 1143.23,-165.5"/>
<text text-anchor="middle" x="1174.3" y="-171.5" font-family="Helvetica,sans-Serif" font-size="10.00">realpass.h</text>
</a>
</g>
</g>
<!-- Node0&#45;&gt;Node1 -->
<g id="edge1" class="edge"><title>Node0&#45;&gt;Node1</title>
<path fill="none" stroke="midnightblue" d="M990.871,-330.417C1021.42,-304.617 1116.91,-223.97 1156.66,-190.397"/>
<polygon fill="midnightblue" stroke="midnightblue" points="1159.29,-192.758 1164.67,-183.632 1154.77,-187.41 1159.29,-192.758"/>
</g>
<!-- Node12 -->
<g id="node13" class="node"><title>Node12</title>
<g id="a_node13"><a xlink:href="qtpasssettings_8h.html" target="_top" xlink:title="qtpasssettings.h">
<polygon fill="none" stroke="black" points="579.167,-275.5 579.167,-293.5 667.433,-293.5 667.433,-275.5 579.167,-275.5"/>
<text text-anchor="middle" x="623.3" y="-281.5" font-family="Helvetica,sans-Serif" font-size="10.00">qtpasssettings.h</text>
</a>
</g>
</g>
<!-- Node0&#45;&gt;Node12 -->
<g id="edge15" class="edge"><title>Node0&#45;&gt;Node12</title>
<path fill="none" stroke="midnightblue" d="M944.67,-333.077C881.44,-323.716 751.512,-304.481 677.694,-293.553"/>
<polygon fill="midnightblue" stroke="midnightblue" points="678.068,-290.07 667.663,-292.068 677.043,-296.994 678.068,-290.07"/>
</g>
<!-- Node2 -->
<g id="node3" class="node"><title>Node2</title>
<g id="a_node3"><a xlink:href="pass_8h.html" target="_top" xlink:title="pass.h">
<polygon fill="none" stroke="black" points="1027.57,-110.5 1027.57,-128.5 1073.03,-128.5 1073.03,-110.5 1027.57,-110.5"/>
<text text-anchor="middle" x="1050.3" y="-116.5" font-family="Helvetica,sans-Serif" font-size="10.00">pass.h</text>
</a>
</g>
</g>
<!-- Node1&#45;&gt;Node2 -->
<g id="edge2" class="edge"><title>Node1&#45;&gt;Node2</title>
<path fill="none" stroke="midnightblue" d="M1155.47,-165.45C1135.07,-156.734 1102.31,-142.731 1078.77,-132.669"/>
<polygon fill="midnightblue" stroke="midnightblue" points="1079.88,-129.337 1069.31,-128.625 1077.13,-135.774 1079.88,-129.337"/>
</g>
<!-- Node3 -->
<g id="node4" class="node"><title>Node3</title>
<g id="a_node4"><a xlink:href="datahelpers_8h.html" target="_top" xlink:title="datahelpers.h">
<polygon fill="none" stroke="black" points="0,-55.5 0,-73.5 76.6006,-73.5 76.6006,-55.5 0,-55.5"/>
<text text-anchor="middle" x="38.3003" y="-61.5" font-family="Helvetica,sans-Serif" font-size="10.00">datahelpers.h</text>
</a>
</g>
</g>
<!-- Node2&#45;&gt;Node3 -->
<g id="edge3" class="edge"><title>Node2&#45;&gt;Node3</title>
<path fill="none" stroke="midnightblue" d="M1027.35,-116.262C1007.5,-114.386 978.029,-111.741 952.3,-110 621.71,-87.6235 223.119,-72.1707 86.76,-67.2125"/>
<polygon fill="midnightblue" stroke="midnightblue" points="86.7625,-63.7103 76.6425,-66.8464 86.5094,-70.7058 86.7625,-63.7103"/>
</g>
<!-- Node5 -->
<g id="node6" class="node"><title>Node5</title>
<polygon fill="none" stroke="#bfbfbf" points="276.35,-0.5 276.35,-18.5 326.251,-18.5 326.251,-0.5 276.35,-0.5"/>
<text text-anchor="middle" x="301.3" y="-6.5" font-family="Helvetica,sans-Serif" font-size="10.00">QString</text>
</g>
<!-- Node2&#45;&gt;Node5 -->
<g id="edge14" class="edge"><title>Node2&#45;&gt;Node5</title>
<path fill="none" stroke="midnightblue" d="M1027.48,-115.209C920.405,-99.7701 467.652,-34.4866 336.833,-15.6236"/>
<polygon fill="midnightblue" stroke="midnightblue" points="336.976,-12.108 326.579,-14.1449 335.977,-19.0363 336.976,-12.108"/>
</g>
<!-- Node6 -->
<g id="node7" class="node"><title>Node6</title>
<g id="a_node7"><a xlink:href="enums_8h.html" target="_top" xlink:title="enums.h">
<polygon fill="none" stroke="black" points="1151.12,-55.5 1151.12,-73.5 1205.48,-73.5 1205.48,-55.5 1151.12,-55.5"/>
<text text-anchor="middle" x="1178.3" y="-61.5" font-family="Helvetica,sans-Serif" font-size="10.00">enums.h</text>
</a>
</g>
</g>
<!-- Node2&#45;&gt;Node6 -->
<g id="edge6" class="edge"><title>Node2&#45;&gt;Node6</title>
<path fill="none" stroke="midnightblue" d="M1069.74,-110.45C1090.89,-101.695 1124.91,-87.6055 1149.24,-77.5346"/>
<polygon fill="midnightblue" stroke="midnightblue" points="1150.78,-80.6848 1158.68,-73.6253 1148.1,-74.2173 1150.78,-80.6848"/>
</g>
<!-- Node7 -->
<g id="node8" class="node"><title>Node7</title>
<g id="a_node8"><a xlink:href="executor_8h.html" target="_top" xlink:title="executor.h">
<polygon fill="none" stroke="black" points="1033.23,-55.5 1033.23,-73.5 1095.37,-73.5 1095.37,-55.5 1033.23,-55.5"/>
<text text-anchor="middle" x="1064.3" y="-61.5" font-family="Helvetica,sans-Serif" font-size="10.00">executor.h</text>
</a>
</g>
</g>
<!-- Node2&#45;&gt;Node7 -->
<g id="edge7" class="edge"><title>Node2&#45;&gt;Node7</title>
<path fill="none" stroke="midnightblue" d="M1052.49,-110.219C1054.39,-103.02 1057.21,-92.3458 1059.62,-83.2311"/>
<polygon fill="midnightblue" stroke="midnightblue" points="1063,-84.1118 1062.17,-73.5496 1056.24,-82.324 1063,-84.1118"/>
</g>
<!-- Node9 -->
<g id="node10" class="node"><title>Node9</title>
<polygon fill="none" stroke="#bfbfbf" points="975.35,-0.5 975.35,-18.5 1035.25,-18.5 1035.25,-0.5 975.35,-0.5"/>
<text text-anchor="middle" x="1005.3" y="-6.5" font-family="Helvetica,sans-Serif" font-size="10.00">QProcess</text>
</g>
<!-- Node2&#45;&gt;Node9 -->
<g id="edge12" class="edge"><title>Node2&#45;&gt;Node9</title>
<path fill="none" stroke="midnightblue" d="M1044.69,-110.284C1038.95,-101.584 1030.07,-87.2954 1024.3,-74 1017.85,-59.1427 1012.75,-41.4251 1009.46,-28.4848"/>
<polygon fill="midnightblue" stroke="midnightblue" points="1012.81,-27.4313 1007.05,-18.5349 1006,-29.0776 1012.81,-27.4313"/>
</g>
<!-- Node10 -->
<g id="node11" class="node"><title>Node10</title>
<polygon fill="none" stroke="#bfbfbf" points="1096.4,-0.5 1096.4,-18.5 1150.2,-18.5 1150.2,-0.5 1096.4,-0.5"/>
<text text-anchor="middle" x="1123.3" y="-6.5" font-family="Helvetica,sans-Serif" font-size="10.00">QQueue</text>
</g>
<!-- Node2&#45;&gt;Node10 -->
<g id="edge13" class="edge"><title>Node2&#45;&gt;Node10</title>
<path fill="none" stroke="midnightblue" d="M1064.26,-110.359C1076.51,-102.523 1093.95,-89.5854 1104.3,-74 1113.45,-60.2195 1118.32,-41.893 1120.82,-28.4711"/>
<polygon fill="midnightblue" stroke="midnightblue" points="1124.28,-28.9864 1122.42,-18.5576 1117.37,-27.8752 1124.28,-28.9864"/>
</g>
<!-- Node11 -->
<g id="node12" class="node"><title>Node11</title>
<polygon fill="none" stroke="#bfbfbf" points="937.63,-55.5 937.63,-73.5 976.97,-73.5 976.97,-55.5 937.63,-55.5"/>
<text text-anchor="middle" x="957.3" y="-61.5" font-family="Helvetica,sans-Serif" font-size="10.00">QList</text>
</g>
<!-- Node2&#45;&gt;Node11 -->
<g id="edge11" class="edge"><title>Node2&#45;&gt;Node11</title>
<path fill="none" stroke="midnightblue" d="M1036.18,-110.45C1021.43,-102.045 998.052,-88.7241 980.571,-78.7618"/>
<polygon fill="midnightblue" stroke="midnightblue" points="981.979,-75.5358 971.558,-73.6253 978.513,-81.6176 981.979,-75.5358"/>
</g>
<!-- Node4 -->
<g id="node5" class="node"><title>Node4</title>
<polygon fill="none" stroke="#bfbfbf" points="4.92188,-0.5 4.92188,-18.5 71.6787,-18.5 71.6787,-0.5 4.92188,-0.5"/>
<text text-anchor="middle" x="38.3003" y="-6.5" font-family="Helvetica,sans-Serif" font-size="10.00">QDateTime</text>
</g>
<!-- Node3&#45;&gt;Node4 -->
<g id="edge4" class="edge"><title>Node3&#45;&gt;Node4</title>
<path fill="none" stroke="midnightblue" d="M38.3003,-55.2188C38.3003,-48.1769 38.3003,-37.8083 38.3003,-28.8277"/>
<polygon fill="midnightblue" stroke="midnightblue" points="41.8004,-28.5495 38.3003,-18.5496 34.8004,-28.5496 41.8004,-28.5495"/>
</g>
<!-- Node3&#45;&gt;Node5 -->
<g id="edge5" class="edge"><title>Node3&#45;&gt;Node5</title>
<path fill="none" stroke="midnightblue" d="M76.8244,-55.7366C127.841,-45.4557 217.083,-27.4716 266.277,-17.558"/>
<polygon fill="midnightblue" stroke="midnightblue" points="267.027,-20.9773 276.138,-15.5707 265.644,-14.1152 267.027,-20.9773"/>
</g>
<!-- Node8 -->
<g id="node9" class="node"><title>Node8</title>
<polygon fill="none" stroke="#bfbfbf" points="717.96,-0.5 717.96,-18.5 770.64,-18.5 770.64,-0.5 717.96,-0.5"/>
<text text-anchor="middle" x="744.3" y="-6.5" font-family="Helvetica,sans-Serif" font-size="10.00">QObject</text>
</g>
<!-- Node7&#45;&gt;Node8 -->
<g id="edge8" class="edge"><title>Node7&#45;&gt;Node8</title>
<path fill="none" stroke="midnightblue" d="M1033.03,-58.3216C973.446,-48.4522 843.922,-26.9998 780.609,-16.5136"/>
<polygon fill="midnightblue" stroke="midnightblue" points="781.112,-13.0493 770.674,-14.8682 779.968,-19.9552 781.112,-13.0493"/>
</g>
<!-- Node7&#45;&gt;Node9 -->
<g id="edge9" class="edge"><title>Node7&#45;&gt;Node9</title>
<path fill="none" stroke="midnightblue" d="M1055.34,-55.4504C1046.5,-47.5123 1032.78,-35.1891 1021.94,-25.4519"/>
<polygon fill="midnightblue" stroke="midnightblue" points="1024.12,-22.7043 1014.35,-18.6253 1019.45,-27.9118 1024.12,-22.7043"/>
</g>
<!-- Node7&#45;&gt;Node10 -->
<g id="edge10" class="edge"><title>Node7&#45;&gt;Node10</title>
<path fill="none" stroke="midnightblue" d="M1073.26,-55.4504C1082.1,-47.5123 1095.82,-35.1891 1106.66,-25.4519"/>
<polygon fill="midnightblue" stroke="midnightblue" points="1109.15,-27.9118 1114.26,-18.6253 1104.48,-22.7043 1109.15,-27.9118"/>
</g>
<!-- Node12&#45;&gt;Node6 -->
<g id="edge26" class="edge"><title>Node12&#45;&gt;Node6</title>
<path fill="none" stroke="midnightblue" d="M667.505,-283.258C792.851,-281.525 1145.93,-269.046 1214.3,-184 1238.9,-153.404 1210.1,-106.175 1191.56,-81.6009"/>
<polygon fill="midnightblue" stroke="midnightblue" points="1194.24,-79.3469 1185.31,-73.645 1188.73,-83.671 1194.24,-79.3469"/>
</g>
<!-- Node12&#45;&gt;Node8 -->
<g id="edge21" class="edge"><title>Node12&#45;&gt;Node8</title>
<path fill="none" stroke="midnightblue" d="M579.126,-283.43C432.312,-281.764 -22.718,-264.316 109.3,-110 187.54,-18.5458 584.79,-10.5682 707.884,-10.3222"/>
<polygon fill="midnightblue" stroke="midnightblue" points="707.935,-13.8223 717.934,-10.3185 707.933,-6.82228 707.935,-13.8223"/>
</g>
<!-- Node13 -->
<g id="node14" class="node"><title>Node13</title>
<polygon fill="none" stroke="#bfbfbf" points="224.46,-220.5 224.46,-238.5 292.14,-238.5 292.14,-220.5 224.46,-220.5"/>
<text text-anchor="middle" x="258.3" y="-226.5" font-family="Helvetica,sans-Serif" font-size="10.00">QByteArray</text>
</g>
<!-- Node12&#45;&gt;Node13 -->
<g id="edge16" class="edge"><title>Node12&#45;&gt;Node13</title>
<path fill="none" stroke="midnightblue" d="M579.167,-278.221C518.957,-270.839 407.475,-256.53 302.656,-239.145"/>
<polygon fill="midnightblue" stroke="midnightblue" points="302.975,-235.65 292.535,-237.453 301.821,-242.554 302.975,-235.65"/>
</g>
<!-- Node14 -->
<g id="node15" class="node"><title>Node14</title>
<polygon fill="none" stroke="#bfbfbf" points="310.113,-220.5 310.113,-238.5 404.487,-238.5 404.487,-220.5 310.113,-220.5"/>
<text text-anchor="middle" x="357.3" y="-226.5" font-family="Helvetica,sans-Serif" font-size="10.00">QCoreApplication</text>
</g>
<!-- Node12&#45;&gt;Node14 -->
<g id="edge17" class="edge"><title>Node12&#45;&gt;Node14</title>
<path fill="none" stroke="midnightblue" d="M582.901,-275.45C535.991,-266.104 458.571,-250.678 407.75,-240.552"/>
<polygon fill="midnightblue" stroke="midnightblue" points="408.135,-237.06 397.644,-238.538 406.767,-243.925 408.135,-237.06"/>
</g>
<!-- Node15 -->
<g id="node16" class="node"><title>Node15</title>
<polygon fill="none" stroke="#bfbfbf" points="422.024,-220.5 422.024,-238.5 458.576,-238.5 458.576,-220.5 422.024,-220.5"/>
<text text-anchor="middle" x="440.3" y="-226.5" font-family="Helvetica,sans-Serif" font-size="10.00">QDir</text>
</g>
<!-- Node12&#45;&gt;Node15 -->
<g id="edge18" class="edge"><title>Node12&#45;&gt;Node15</title>
<path fill="none" stroke="midnightblue" d="M594.193,-275.451C564.768,-267.259 517.753,-254.019 468.463,-239.292"/>
<polygon fill="midnightblue" stroke="midnightblue" points="469.163,-235.848 458.579,-236.328 467.153,-242.553 469.163,-235.848"/>
</g>
<!-- Node16 -->
<g id="node17" class="node"><title>Node16</title>
<polygon fill="none" stroke="#bfbfbf" points="476.354,-220.5 476.354,-238.5 516.246,-238.5 516.246,-220.5 476.354,-220.5"/>
<text text-anchor="middle" x="496.3" y="-226.5" font-family="Helvetica,sans-Serif" font-size="10.00">QFile</text>
</g>
<!-- Node12&#45;&gt;Node16 -->
<g id="edge19" class="edge"><title>Node12&#45;&gt;Node16</title>
<path fill="none" stroke="midnightblue" d="M604.012,-275.45C583.032,-266.695 549.27,-252.606 525.138,-242.535"/>
<polygon fill="midnightblue" stroke="midnightblue" points="526.347,-239.247 515.77,-238.625 523.651,-245.707 526.347,-239.247"/>
</g>
<!-- Node17 -->
<g id="node18" class="node"><title>Node17</title>
<polygon fill="none" stroke="#bfbfbf" points="534.739,-220.5 534.739,-238.5 581.862,-238.5 581.862,-220.5 534.739,-220.5"/>
<text text-anchor="middle" x="558.3" y="-226.5" font-family="Helvetica,sans-Serif" font-size="10.00">QHash</text>
</g>
<!-- Node12&#45;&gt;Node17 -->
<g id="edge20" class="edge"><title>Node12&#45;&gt;Node17</title>
<path fill="none" stroke="midnightblue" d="M613.428,-275.45C603.597,-267.434 588.283,-254.947 576.287,-245.166"/>
<polygon fill="midnightblue" stroke="midnightblue" points="578.227,-242.232 568.265,-238.625 573.804,-247.657 578.227,-242.232"/>
</g>
<!-- Node18 -->
<g id="node19" class="node"><title>Node18</title>
<polygon fill="none" stroke="#bfbfbf" points="600.015,-220.5 600.015,-238.5 646.586,-238.5 646.586,-220.5 600.015,-220.5"/>
<text text-anchor="middle" x="623.3" y="-226.5" font-family="Helvetica,sans-Serif" font-size="10.00">QPoint</text>
</g>
<!-- Node12&#45;&gt;Node18 -->
<g id="edge22" class="edge"><title>Node12&#45;&gt;Node18</title>
<path fill="none" stroke="midnightblue" d="M623.3,-275.219C623.3,-268.177 623.3,-257.808 623.3,-248.828"/>
<polygon fill="midnightblue" stroke="midnightblue" points="626.8,-248.55 623.3,-238.55 619.8,-248.55 626.8,-248.55"/>
</g>
<!-- Node19 -->
<g id="node20" class="node"><title>Node19</title>
<polygon fill="none" stroke="#bfbfbf" points="664.345,-220.5 664.345,-238.5 724.256,-238.5 724.256,-220.5 664.345,-220.5"/>
<text text-anchor="middle" x="694.3" y="-226.5" font-family="Helvetica,sans-Serif" font-size="10.00">QSettings</text>
</g>
<!-- Node12&#45;&gt;Node19 -->
<g id="edge23" class="edge"><title>Node12&#45;&gt;Node19</title>
<path fill="none" stroke="midnightblue" d="M634.084,-275.45C644.926,-267.357 661.876,-254.704 675.034,-244.882"/>
<polygon fill="midnightblue" stroke="midnightblue" points="677.496,-247.412 683.415,-238.625 673.308,-241.803 677.496,-247.412"/>
</g>
<!-- Node20 -->
<g id="node21" class="node"><title>Node20</title>
<polygon fill="none" stroke="#bfbfbf" points="742.685,-220.5 742.685,-238.5 785.916,-238.5 785.916,-220.5 742.685,-220.5"/>
<text text-anchor="middle" x="764.3" y="-226.5" font-family="Helvetica,sans-Serif" font-size="10.00">QSize</text>
</g>
<!-- Node12&#45;&gt;Node20 -->
<g id="edge24" class="edge"><title>Node12&#45;&gt;Node20</title>
<path fill="none" stroke="midnightblue" d="M644.715,-275.45C668.215,-266.617 706.159,-252.355 732.996,-242.267"/>
<polygon fill="midnightblue" stroke="midnightblue" points="734.555,-245.42 742.684,-238.625 732.092,-238.868 734.555,-245.42"/>
</g>
<!-- Node21 -->
<g id="node22" class="node"><title>Node21</title>
<polygon fill="none" stroke="#bfbfbf" points="803.938,-220.5 803.938,-238.5 858.663,-238.5 858.663,-220.5 803.938,-220.5"/>
<text text-anchor="middle" x="831.3" y="-226.5" font-family="Helvetica,sans-Serif" font-size="10.00">QVariant</text>
</g>
<!-- Node12&#45;&gt;Node21 -->
<g id="edge25" class="edge"><title>Node12&#45;&gt;Node21</title>
<path fill="none" stroke="midnightblue" d="M654.891,-275.45C692.214,-265.94 754.237,-250.136 793.918,-240.025"/>
<polygon fill="midnightblue" stroke="midnightblue" points="794.915,-243.383 803.742,-237.522 793.187,-236.6 794.915,-243.383"/>
</g>
<!-- Node22 -->
<g id="node23" class="node"><title>Node22</title>
<g id="a_node23"><a xlink:href="mainwindow_8h.html" target="_top" xlink:title="mainwindow.h">
<polygon fill="none" stroke="black" points="876.892,-220.5 876.892,-238.5 955.709,-238.5 955.709,-220.5 876.892,-220.5"/>
<text text-anchor="middle" x="916.3" y="-226.5" font-family="Helvetica,sans-Serif" font-size="10.00">mainwindow.h</text>
</a>
</g>
</g>
<!-- Node12&#45;&gt;Node22 -->
<g id="edge27" class="edge"><title>Node12&#45;&gt;Node22</title>
<path fill="none" stroke="midnightblue" d="M667.483,-275.508C720.91,-265.844 810.601,-249.62 866.452,-239.517"/>
<polygon fill="midnightblue" stroke="midnightblue" points="867.253,-242.929 876.47,-237.705 866.007,-236.041 867.253,-242.929"/>
</g>
<!-- Node22&#45;&gt;Node1 -->
<g id="edge33" class="edge"><title>Node22&#45;&gt;Node1</title>
<path fill="none" stroke="midnightblue" d="M955.485,-220.45C1003.39,-210.61 1084.1,-194.03 1132.96,-183.992"/>
<polygon fill="midnightblue" stroke="midnightblue" points="1133.79,-187.395 1142.88,-181.954 1132.38,-180.538 1133.79,-187.395"/>
</g>
<!-- Node22&#45;&gt;Node2 -->
<g id="edge32" class="edge"><title>Node22&#45;&gt;Node2</title>
<path fill="none" stroke="midnightblue" d="M955.727,-228.13C989.05,-225.466 1034.98,-215.752 1058.3,-184 1067.95,-170.87 1063.92,-151.949 1058.72,-138.179"/>
<polygon fill="midnightblue" stroke="midnightblue" points="1061.87,-136.649 1054.72,-128.833 1055.43,-139.404 1061.87,-136.649"/>
</g>
<!-- Node22&#45;&gt;Node3 -->
<g id="edge28" class="edge"><title>Node22&#45;&gt;Node3</title>
<path fill="none" stroke="midnightblue" d="M876.776,-221.247C873.576,-220.781 870.388,-220.357 867.3,-220 593.984,-188.437 518.024,-243.037 249.3,-184 184.006,-169.655 166.222,-164.057 109.3,-129 87.4068,-115.516 65.9168,-94.9872 52.4164,-80.9449"/>
<polygon fill="midnightblue" stroke="midnightblue" points="54.8465,-78.4198 45.4482,-73.5288 49.7451,-83.2132 54.8465,-78.4198"/>
</g>
<!-- Node22&#45;&gt;Node6 -->
<g id="edge29" class="edge"><title>Node22&#45;&gt;Node6</title>
<path fill="none" stroke="midnightblue" d="M955.807,-223.915C989.653,-218.54 1038.6,-207.218 1075.3,-184 1117.58,-157.251 1152.18,-107.941 1168.38,-82.1735"/>
<polygon fill="midnightblue" stroke="midnightblue" points="1171.43,-83.9022 1173.67,-73.5467 1165.46,-80.2457 1171.43,-83.9022"/>
</g>
<!-- Node22&#45;&gt;Node9 -->
<g id="edge47" class="edge"><title>Node22&#45;&gt;Node9</title>
<path fill="none" stroke="midnightblue" d="M920.404,-220.254C928.464,-203.546 946.114,-164.284 952.3,-129 953.759,-120.682 954.747,-118.082 952.3,-110 944.572,-84.474 914.97,-78.1001 928.3,-55 937.056,-39.8279 953.174,-29.3636 968.409,-22.4142"/>
<polygon fill="midnightblue" stroke="midnightblue" points="969.829,-25.6143 977.708,-18.5308 967.131,-19.155 969.829,-25.6143"/>
</g>
<!-- Node22&#45;&gt;Node10 -->
<g id="edge48" class="edge"><title>Node22&#45;&gt;Node10</title>
<path fill="none" stroke="midnightblue" d="M955.858,-228.687C1029.1,-228.098 1181.39,-222.19 1214.3,-184 1251.73,-140.569 1244.66,-103.637 1214.3,-55 1202.43,-35.9836 1179.82,-24.8719 1160.11,-18.5077"/>
<polygon fill="midnightblue" stroke="midnightblue" points="1161.01,-15.1254 1150.43,-15.6733 1159.05,-21.8431 1161.01,-15.1254"/>
</g>
<!-- Node23 -->
<g id="node24" class="node"><title>Node23</title>
<g id="a_node24"><a xlink:href="imitatepass_8h.html" target="_top" xlink:title="imitatepass.h">
<polygon fill="none" stroke="black" points="974.842,-165.5 974.842,-183.5 1049.76,-183.5 1049.76,-165.5 974.842,-165.5"/>
<text text-anchor="middle" x="1012.3" y="-171.5" font-family="Helvetica,sans-Serif" font-size="10.00">imitatepass.h</text>
</a>
</g>
</g>
<!-- Node22&#45;&gt;Node23 -->
<g id="edge30" class="edge"><title>Node22&#45;&gt;Node23</title>
<path fill="none" stroke="midnightblue" d="M930.881,-220.45C946.246,-211.968 970.682,-198.477 988.779,-188.486"/>
<polygon fill="midnightblue" stroke="midnightblue" points="990.52,-191.523 997.583,-183.625 987.137,-185.394 990.52,-191.523"/>
</g>
<!-- Node24 -->
<g id="node25" class="node"><title>Node24</title>
<g id="a_node25"><a xlink:href="storemodel_8h.html" target="_top" xlink:title="storemodel.h">
<polygon fill="none" stroke="black" points="311.396,-165.5 311.396,-183.5 385.204,-183.5 385.204,-165.5 311.396,-165.5"/>
<text text-anchor="middle" x="348.3" y="-171.5" font-family="Helvetica,sans-Serif" font-size="10.00">storemodel.h</text>
</a>
</g>
</g>
<!-- Node22&#45;&gt;Node24 -->
<g id="edge34" class="edge"><title>Node22&#45;&gt;Node24</title>
<path fill="none" stroke="midnightblue" d="M876.764,-221.34C873.567,-220.853 870.383,-220.399 867.3,-220 693.934,-197.573 486.473,-183.643 395.25,-178.165"/>
<polygon fill="midnightblue" stroke="midnightblue" points="395.419,-174.669 385.229,-177.569 395.004,-181.656 395.419,-174.669"/>
</g>
<!-- Node25 -->
<g id="node26" class="node"><title>Node25</title>
<polygon fill="none" stroke="#bfbfbf" points="118.066,-110.5 118.066,-128.5 218.534,-128.5 218.534,-110.5 118.066,-110.5"/>
<text text-anchor="middle" x="168.3" y="-116.5" font-family="Helvetica,sans-Serif" font-size="10.00">QFileSystemModel</text>
</g>
<!-- Node22&#45;&gt;Node25 -->
<g id="edge45" class="edge"><title>Node22&#45;&gt;Node25</title>
<path fill="none" stroke="midnightblue" d="M876.774,-221.266C873.575,-220.795 870.387,-220.365 867.3,-220 617.421,-190.454 545.905,-247.003 302.3,-184 260.31,-173.14 215.551,-149.072 189.855,-133.884"/>
<polygon fill="midnightblue" stroke="midnightblue" points="191.357,-130.703 180.985,-128.544 187.747,-136.7 191.357,-130.703"/>
</g>
<!-- Node28 -->
<g id="node29" class="node"><title>Node28</title>
<g id="a_node29"><a xlink:href="trayicon_8h.html" target="_top" xlink:title="trayicon.h">
<polygon fill="none" stroke="black" points="709.623,-165.5 709.623,-183.5 768.978,-183.5 768.978,-165.5 709.623,-165.5"/>
<text text-anchor="middle" x="739.3" y="-171.5" font-family="Helvetica,sans-Serif" font-size="10.00">trayicon.h</text>
</a>
</g>
</g>
<!-- Node22&#45;&gt;Node28 -->
<g id="edge38" class="edge"><title>Node22&#45;&gt;Node28</title>
<path fill="none" stroke="midnightblue" d="M889.418,-220.45C859.181,-211.396 809.894,-196.638 776.098,-186.519"/>
<polygon fill="midnightblue" stroke="midnightblue" points="776.729,-183.054 766.145,-183.538 774.721,-189.76 776.729,-183.054"/>
</g>
<!-- Node31 -->
<g id="node32" class="node"><title>Node31</title>
<polygon fill="none" stroke="#bfbfbf" points="448.791,-110.5 448.791,-128.5 529.81,-128.5 529.81,-110.5 448.791,-110.5"/>
<text text-anchor="middle" x="489.3" y="-116.5" font-family="Helvetica,sans-Serif" font-size="10.00">QMainWindow</text>
</g>
<!-- Node22&#45;&gt;Node31 -->
<g id="edge46" class="edge"><title>Node22&#45;&gt;Node31</title>
<path fill="none" stroke="midnightblue" d="M876.645,-221.428C833.136,-213.415 761.36,-199.445 700.3,-184 637.087,-168.01 564.514,-145.163 523.066,-131.678"/>
<polygon fill="midnightblue" stroke="midnightblue" points="524.064,-128.322 513.472,-128.543 521.89,-134.976 524.064,-128.322"/>
</g>
<!-- Node35 -->
<g id="node36" class="node"><title>Node35</title>
<polygon fill="none" stroke="#bfbfbf" points="786.818,-165.5 786.818,-183.5 835.782,-183.5 835.782,-165.5 786.818,-165.5"/>
<text text-anchor="middle" x="811.3" y="-171.5" font-family="Helvetica,sans-Serif" font-size="10.00">QTimer</text>
</g>
<!-- Node22&#45;&gt;Node35 -->
<g id="edge49" class="edge"><title>Node22&#45;&gt;Node35</title>
<path fill="none" stroke="midnightblue" d="M900.353,-220.45C883.393,-211.89 856.33,-198.229 836.484,-188.212"/>
<polygon fill="midnightblue" stroke="midnightblue" points="837.902,-185.007 827.398,-183.625 834.748,-191.256 837.902,-185.007"/>
</g>
<!-- Node36 -->
<g id="node37" class="node"><title>Node36</title>
<polygon fill="none" stroke="#bfbfbf" points="853.564,-165.5 853.564,-183.5 919.037,-183.5 919.037,-165.5 853.564,-165.5"/>
<text text-anchor="middle" x="886.3" y="-171.5" font-family="Helvetica,sans-Serif" font-size="10.00">QTreeView</text>
</g>
<!-- Node22&#45;&gt;Node36 -->
<g id="edge50" class="edge"><title>Node22&#45;&gt;Node36</title>
<path fill="none" stroke="midnightblue" d="M911.613,-220.219C907.405,-212.786 901.1,-201.646 895.835,-192.345"/>
<polygon fill="midnightblue" stroke="midnightblue" points="898.829,-190.528 890.857,-183.55 892.737,-193.976 898.829,-190.528"/>
</g>
<!-- Node23&#45;&gt;Node2 -->
<g id="edge31" class="edge"><title>Node23&#45;&gt;Node2</title>
<path fill="none" stroke="midnightblue" d="M1018.24,-165.219C1023.68,-157.629 1031.89,-146.175 1038.64,-136.76"/>
<polygon fill="midnightblue" stroke="midnightblue" points="1041.55,-138.716 1044.53,-128.55 1035.86,-134.637 1041.55,-138.716"/>
</g>
<!-- Node24&#45;&gt;Node25 -->
<g id="edge35" class="edge"><title>Node24&#45;&gt;Node25</title>
<path fill="none" stroke="midnightblue" d="M320.962,-165.45C290.08,-156.357 239.658,-141.511 205.278,-131.388"/>
<polygon fill="midnightblue" stroke="midnightblue" points="206.182,-128.005 195.6,-128.538 204.204,-134.72 206.182,-128.005"/>
</g>
<!-- Node26 -->
<g id="node27" class="node"><title>Node26</title>
<polygon fill="none" stroke="#bfbfbf" points="371.623,-110.5 371.623,-128.5 430.978,-128.5 430.978,-110.5 371.623,-110.5"/>
<text text-anchor="middle" x="401.3" y="-116.5" font-family="Helvetica,sans-Serif" font-size="10.00">QRegExp</text>
</g>
<!-- Node24&#45;&gt;Node26 -->
<g id="edge36" class="edge"><title>Node24&#45;&gt;Node26</title>
<path fill="none" stroke="midnightblue" d="M356.582,-165.219C364.406,-157.394 376.337,-145.463 385.908,-135.892"/>
<polygon fill="midnightblue" stroke="midnightblue" points="388.655,-138.096 393.251,-128.55 383.705,-133.146 388.655,-138.096"/>
</g>
<!-- Node27 -->
<g id="node28" class="node"><title>Node27</title>
<polygon fill="none" stroke="#bfbfbf" points="236.731,-110.5 236.731,-128.5 353.869,-128.5 353.869,-110.5 236.731,-110.5"/>
<text text-anchor="middle" x="295.3" y="-116.5" font-family="Helvetica,sans-Serif" font-size="10.00">QSortFilterProxyModel</text>
</g>
<!-- Node24&#45;&gt;Node27 -->
<g id="edge37" class="edge"><title>Node24&#45;&gt;Node27</title>
<path fill="none" stroke="midnightblue" d="M340.019,-165.219C332.195,-157.394 320.263,-145.463 310.692,-135.892"/>
<polygon fill="midnightblue" stroke="midnightblue" points="312.896,-133.146 303.35,-128.55 307.946,-138.096 312.896,-133.146"/>
</g>
<!-- Node29 -->
<g id="node30" class="node"><title>Node29</title>
<polygon fill="none" stroke="#bfbfbf" points="891.515,-110.5 891.515,-128.5 943.086,-128.5 943.086,-110.5 891.515,-110.5"/>
<text text-anchor="middle" x="917.3" y="-116.5" font-family="Helvetica,sans-Serif" font-size="10.00">QAction</text>
</g>
<!-- Node28&#45;&gt;Node29 -->
<g id="edge39" class="edge"><title>Node28&#45;&gt;Node29</title>
<path fill="none" stroke="midnightblue" d="M766.335,-165.45C797.095,-156.292 847.46,-141.295 881.471,-131.168"/>
<polygon fill="midnightblue" stroke="midnightblue" points="882.875,-134.402 891.461,-128.194 880.878,-127.693 882.875,-134.402"/>
</g>
<!-- Node30 -->
<g id="node31" class="node"><title>Node30</title>
<polygon fill="none" stroke="#bfbfbf" points="547.951,-110.5 547.951,-128.5 620.65,-128.5 620.65,-110.5 547.951,-110.5"/>
<text text-anchor="middle" x="584.3" y="-116.5" font-family="Helvetica,sans-Serif" font-size="10.00">QApplication</text>
</g>
<!-- Node28&#45;&gt;Node30 -->
<g id="edge40" class="edge"><title>Node28&#45;&gt;Node30</title>
<path fill="none" stroke="midnightblue" d="M715.759,-165.45C689.509,-156.475 646.862,-141.892 617.293,-131.781"/>
<polygon fill="midnightblue" stroke="midnightblue" points="618.403,-128.462 607.809,-128.538 616.138,-135.086 618.403,-128.462"/>
</g>
<!-- Node28&#45;&gt;Node31 -->
<g id="edge41" class="edge"><title>Node28&#45;&gt;Node31</title>
<path fill="none" stroke="midnightblue" d="M709.144,-167.107C666.499,-158.066 588.124,-141.451 537.393,-130.696"/>
<polygon fill="midnightblue" stroke="midnightblue" points="537.83,-127.211 527.322,-128.561 536.379,-134.058 537.83,-127.211"/>
</g>
<!-- Node32 -->
<g id="node33" class="node"><title>Node32</title>
<polygon fill="none" stroke="#bfbfbf" points="638.904,-110.5 638.904,-128.5 687.697,-128.5 687.697,-110.5 638.904,-110.5"/>
<text text-anchor="middle" x="663.3" y="-116.5" font-family="Helvetica,sans-Serif" font-size="10.00">QMenu</text>
</g>
<!-- Node28&#45;&gt;Node32 -->
<g id="edge42" class="edge"><title>Node28&#45;&gt;Node32</title>
<path fill="none" stroke="midnightblue" d="M727.758,-165.45C716.04,-157.279 697.659,-144.46 683.519,-134.6"/>
<polygon fill="midnightblue" stroke="midnightblue" points="685.156,-131.475 674.952,-128.625 681.152,-137.216 685.156,-131.475"/>
</g>
<!-- Node33 -->
<g id="node34" class="node"><title>Node33</title>
<polygon fill="none" stroke="#bfbfbf" points="705.474,-110.5 705.474,-128.5 801.127,-128.5 801.127,-110.5 705.474,-110.5"/>
<text text-anchor="middle" x="753.3" y="-116.5" font-family="Helvetica,sans-Serif" font-size="10.00">QSystemTrayIcon</text>
</g>
<!-- Node28&#45;&gt;Node33 -->
<g id="edge43" class="edge"><title>Node28&#45;&gt;Node33</title>
<path fill="none" stroke="midnightblue" d="M741.488,-165.219C743.389,-158.02 746.209,-147.346 748.617,-138.231"/>
<polygon fill="midnightblue" stroke="midnightblue" points="752.004,-139.112 751.174,-128.55 745.236,-137.324 752.004,-139.112"/>
</g>
<!-- Node34 -->
<g id="node35" class="node"><title>Node34</title>
<polygon fill="none" stroke="#bfbfbf" points="818.85,-110.5 818.85,-128.5 873.751,-128.5 873.751,-110.5 818.85,-110.5"/>
<text text-anchor="middle" x="846.3" y="-116.5" font-family="Helvetica,sans-Serif" font-size="10.00">QWidget</text>
</g>
<!-- Node28&#45;&gt;Node34 -->
<g id="edge44" class="edge"><title>Node28&#45;&gt;Node34</title>
<path fill="none" stroke="midnightblue" d="M755.551,-165.45C772.913,-156.851 800.664,-143.105 820.912,-133.075"/>
<polygon fill="midnightblue" stroke="midnightblue" points="822.489,-136.2 829.896,-128.625 819.382,-129.928 822.489,-136.2"/>
</g>
</g>
</svg>
        <g id="navigator" transform="translate(0 0)" fill="#404254">
                <rect fill="#f2f5e9" fill-opacity="0.5" stroke="#606060" stroke-width=".5" x="0" y="0" width="60" height="60"/>
                <use id="zoomplus" xlink:href="#zoomPlus" x="17" y="9" onmousedown="handleZoom(evt,'in')"/>
                <use id="zoomminus" xlink:href="#zoomMin" x="42" y="9" onmousedown="handleZoom(evt,'out')"/>
                <use id="reset" xlink:href="#resetDef" x="30" y="36" onmousedown="handleReset()"/>
                <g id="arrowUp" xlink:href="#dirArrow" transform="translate(30 24)" onmousedown="handlePan(0,-1)">
                  <use xlink:href="#rim" fill="#404040">
                        <set attributeName="fill" to="#808080" begin="arrowUp.mouseover" end="arrowUp.mouseout"/>
                  </use>
                  <path fill="none" stroke="white" stroke-width="1.5" d="M0,-3.0v7 M-2.5,-0.5L0,-3.0L2.5,-0.5"/>
                </g>
                <g id="arrowRight" xlink:href="#dirArrow" transform="rotate(90) translate(36 -43)" onmousedown="handlePan(1,0)">
                  <use xlink:href="#rim" fill="#404040">
                        <set attributeName="fill" to="#808080" begin="arrowRight.mouseover" end="arrowRight.mouseout"/>
                  </use>
                  <path fill="none" stroke="white" stroke-width="1.5" d="M0,-3.0v7 M-2.5,-0.5L0,-3.0L2.5,-0.5"/>
                </g>
                <g id="arrowDown" xlink:href="#dirArrow" transform="rotate(180) translate(-30 -48)" onmousedown="handlePan(0,1)">
                  <use xlink:href="#rim" fill="#404040">
                        <set attributeName="fill" to="#808080" begin="arrowDown.mouseover" end="arrowDown.mouseout"/>
                  </use>
                  <path fill="none" stroke="white" stroke-width="1.5" d="M0,-3.0v7 M-2.5,-0.5L0,-3.0L2.5,-0.5"/>
                </g>
                <g id="arrowLeft" xlink:href="#dirArrow" transform="rotate(270) translate(-36 17)" onmousedown="handlePan(-1,0)">
                  <use xlink:href="#rim" fill="#404040">
                        <set attributeName="fill" to="#808080" begin="arrowLeft.mouseover" end="arrowLeft.mouseout"/>
                  </use>
                  <path fill="none" stroke="white" stroke-width="1.5" d="M0,-3.0v7 M-2.5,-0.5L0,-3.0L2.5,-0.5"/>
                </g>
        </g>
        <svg viewBox="0 0 15 15" width="100%" height="30px" preserveAspectRatio="xMaxYMin meet">
         <g id="arrow_out" transform="scale(0.3 0.3)">
          <a xlink:href="realpass_8cpp__incl_org.svg" target="_base">
           <rect id="button" ry="5" rx="5" y="6" x="6" height="38" width="38"
                fill="#f2f5e9" fill-opacity="0.5" stroke="#606060" stroke-width="1.0"/>
           <path id="arrow"
             d="M 11.500037,31.436501 C 11.940474,20.09759 22.043105,11.32322 32.158766,21.979434 L 37.068811,17.246167 C 37.068811,17.246167 37.088388,32 37.088388,32 L 22.160133,31.978069 C 22.160133,31.978069 26.997745,27.140456 26.997745,27.140456 C 18.528582,18.264221 13.291696,25.230495 11.500037,31.436501 z"
             style="fill:#404040;"/>
          </a>
         </g>
        </svg>
</svg>
