<?xml version="1.0" encoding="UTF-8" standalone="no"?>
<!DOCTYPE svg PUBLIC "-//W3C//DTD SVG 1.1//EN"
 "http://www.w3.org/Graphics/SVG/1.1/DTD/svg11.dtd">
<!-- Generated by graphviz version 2.43.0 (0)
 -->
<!-- Title: src/realpass.h Pages: 1 -->
<!--zoomable 192 -->
<svg id="main" version="1.1" xmlns="http://www.w3.org/2000/svg" xmlns:xlink="http://www.w3.org/1999/xlink" xml:space="preserve" onload="init(evt)">
<style type="text/css"><![CDATA[
.edge:hover path { stroke: red; }
.edge:hover polygon { stroke: red; fill: red; }
]]></style>
<script type="text/javascript"><![CDATA[
var edges = document.getElementsByTagName('g');
if (edges && edges.length) {
  for (var i=0;i<edges.length;i++) {
    if (edges[i].id.substr(0,4)=='edge') {
      edges[i].setAttribute('class','edge');
    }
  }
}
]]></script>
        <defs>
                <circle id="rim" cx="0" cy="0" r="7"/>
                <circle id="rim2" cx="0" cy="0" r="3.5"/>
                <g id="zoomPlus">
                        <use xlink:href="#rim" fill="#404040">
                                <set attributeName="fill" to="#808080" begin="zoomplus.mouseover" end="zoomplus.mouseout"/>
                        </use>
                        <path d="M-4,0h8M0,-4v8" fill="none" stroke="white" stroke-width="1.5" pointer-events="none"/>
                </g>
                <g id="zoomMin">
                        <use xlink:href="#rim" fill="#404040">
                                <set attributeName="fill" to="#808080" begin="zoomminus.mouseover" end="zoomminus.mouseout"/>
                        </use>
                        <path d="M-4,0h8" fill="none" stroke="white" stroke-width="1.5" pointer-events="none"/>
                </g>
                <g id="dirArrow">
                        <path fill="none" stroke="white" stroke-width="1.5" d="M0,-3.0v7 M-2.5,-0.5L0,-3.0L2.5,-0.5"/>
                </g>
               <g id="resetDef">
                       <use xlink:href="#rim2" fill="#404040">
                               <set attributeName="fill" to="#808080" begin="reset.mouseover" end="reset.mouseout"/>
                       </use>
               </g>
        </defs>

<script type="text/javascript">
var viewWidth = 578;
var viewHeight = 192;
var sectionId = 'dynsection-0';
</script>
<script xlink:href="svgpan.js"/>
<svg id="graph" class="graph">
<g id="viewport">
<title>src/realpass.h</title>
<!-- Node1 -->
<g id="node1" class="node">
<title>Node1</title>
<g id="a_node1"><a xlink:title=" ">
<polygon fill="#bfbfbf" stroke="black" points="219.05,-165.5 219.05,-183.5 297.3,-183.5 297.3,-165.5 219.05,-165.5"/>
<text text-anchor="middle" x="258.18" y="-171.5" font-family="Helvetica,sans-Serif" font-size="10.00">src/realpass.h</text>
</a>
</g>
</g>
<!-- Node2 -->
<g id="node2" class="node">
<title>Node2</title>
<g id="a_node2"><a xlink:href="pass_8h.html" target="_top" xlink:title=" ">
<polygon fill="none" stroke="black" points="235.45,-110.5 235.45,-128.5 280.91,-128.5 280.91,-110.5 235.45,-110.5"/>
<text text-anchor="middle" x="258.18" y="-116.5" font-family="Helvetica,sans-Serif" font-size="10.00">pass.h</text>
</a>
</g>
</g>
<!-- Node1&#45;&gt;Node2 -->
<g id="edge1" class="edge">
<title>Node1&#45;&gt;Node2</title>
<path fill="none" stroke="midnightblue" d="M258.18,-165.22C258.18,-158.18 258.18,-147.81 258.18,-138.83"/>
<polygon fill="midnightblue" stroke="midnightblue" points="261.68,-138.55 258.18,-128.55 254.68,-138.55 261.68,-138.55"/>
</g>
<!-- Node3 -->
<g id="node3" class="node">
<title>Node3</title>
<g id="a_node3"><a xlink:href="enums_8h.html" target="_top" xlink:title=" ">
<polygon fill="none" stroke="black" points="0,-55.5 0,-73.5 54.35,-73.5 54.35,-55.5 0,-55.5"/>
<text text-anchor="middle" x="27.18" y="-61.5" font-family="Helvetica,sans-Serif" font-size="10.00">enums.h</text>
</a>
</g>
</g>
<!-- Node2&#45;&gt;Node3 -->
<g id="edge2" class="edge">
<title>Node2&#45;&gt;Node3</title>
<path fill="none" stroke="midnightblue" d="M235.18,-113.22C195.31,-104.08 113.01,-85.19 64.74,-74.12"/>
<polygon fill="midnightblue" stroke="midnightblue" points="65.22,-70.64 54.69,-71.81 63.66,-77.46 65.22,-70.64"/>
</g>
<!-- Node4 -->
<g id="node4" class="node">
<title>Node4</title>
<g id="a_node4"><a xlink:href="executor_8h.html" target="_top" xlink:title=" ">
<polygon fill="none" stroke="black" points="110.1,-55.5 110.1,-73.5 172.25,-73.5 172.25,-55.5 110.1,-55.5"/>
<text text-anchor="middle" x="141.18" y="-61.5" font-family="Helvetica,sans-Serif" font-size="10.00">executor.h</text>
</a>
</g>
</g>
<!-- Node2&#45;&gt;Node4 -->
<g id="edge3" class="edge">
<title>Node2&#45;&gt;Node4</title>
<path fill="none" stroke="midnightblue" d="M240.41,-110.45C221.25,-101.77 190.53,-87.86 168.34,-77.8"/>
<polygon fill="midnightblue" stroke="midnightblue" points="169.67,-74.56 159.11,-73.63 166.78,-80.94 169.67,-74.56"/>
</g>
<!-- Node6 -->
<g id="node6" class="node">
<title>Node6</title>
<g id="a_node6"><a xlink:title=" ">
<polygon fill="none" stroke="#bfbfbf" points="15.23,-0.5 15.23,-18.5 75.13,-18.5 75.13,-0.5 15.23,-0.5"/>
<text text-anchor="middle" x="45.18" y="-6.5" font-family="Helvetica,sans-Serif" font-size="10.00">QProcess</text>
</a>
</g>
</g>
<!-- Node2&#45;&gt;Node6 -->
<g id="edge10" class="edge">
<title>Node2&#45;&gt;Node6</title>
<path fill="none" stroke="midnightblue" d="M235.22,-116.11C203.08,-111.89 143.85,-100.88 101.18,-74 82.2,-62.05 65.95,-41.78 55.92,-27.36"/>
<polygon fill="midnightblue" stroke="midnightblue" points="58.72,-25.26 50.26,-18.88 52.9,-29.14 58.72,-25.26"/>
</g>
<!-- Node7 -->
<g id="node7" class="node">
<title>Node7</title>
<g id="a_node7"><a xlink:title=" ">
<polygon fill="none" stroke="#bfbfbf" points="163.28,-0.5 163.28,-18.5 217.08,-18.5 217.08,-0.5 163.28,-0.5"/>
<text text-anchor="middle" x="190.18" y="-6.5" font-family="Helvetica,sans-Serif" font-size="10.00">QQueue</text>
</a>
</g>
</g>
<!-- Node2&#45;&gt;Node7 -->
<g id="edge11" class="edge">
<title>Node2&#45;&gt;Node7</title>
<path fill="none" stroke="midnightblue" d="M249.6,-110.24C241.11,-101.73 228.1,-87.8 219.18,-74 209.82,-59.53 201.91,-41.54 196.73,-28.41"/>
<polygon fill="midnightblue" stroke="midnightblue" points="199.86,-26.81 193.04,-18.71 193.32,-29.3 199.86,-26.81"/>
</g>
<!-- Node8 -->
<g id="node8" class="node">
<title>Node8</title>
<g id="a_node8"><a xlink:href="userinfo_8h.html" target="_top" xlink:title=" ">
<polygon fill="none" stroke="black" points="228.22,-55.5 228.22,-73.5 288.14,-73.5 288.14,-55.5 228.22,-55.5"/>
<text text-anchor="middle" x="258.18" y="-61.5" font-family="Helvetica,sans-Serif" font-size="10.00">userinfo.h</text>
</a>
</g>
</g>
<!-- Node2&#45;&gt;Node8 -->
<g id="edge7" class="edge">
<title>Node2&#45;&gt;Node8</title>
<path fill="none" stroke="midnightblue" d="M258.18,-110.22C258.18,-103.18 258.18,-92.81 258.18,-83.83"/>
<polygon fill="midnightblue" stroke="midnightblue" points="261.68,-83.55 258.18,-73.55 254.68,-83.55 261.68,-83.55"/>
</g>
<!-- Node10 -->
<g id="node10" class="node">
<title>Node10</title>
<g id="a_node10"><a xlink:title=" ">
<polygon fill="none" stroke="#bfbfbf" points="319.23,-0.5 319.23,-18.5 369.13,-18.5 369.13,-0.5 319.23,-0.5"/>
<text text-anchor="middle" x="344.18" y="-6.5" font-family="Helvetica,sans-Serif" font-size="10.00">QString</text>
</a>
</g>
</g>
<!-- Node2&#45;&gt;Node10 -->
<g id="edge12" class="edge">
<title>Node2&#45;&gt;Node10</title>
<path fill="none" stroke="midnightblue" d="M265.57,-110.47C273.57,-101.69 286.6,-87.12 297.18,-74 309.64,-58.53 323.05,-40.24 332.34,-27.27"/>
<polygon fill="midnightblue" stroke="midnightblue" points="335.36,-29.06 338.31,-18.88 329.66,-25 335.36,-29.06"/>
</g>
<!-- Node11 -->
<g id="node11" class="node">
<title>Node11</title>
<g id="a_node11"><a xlink:title=" ">
<polygon fill="none" stroke="#bfbfbf" points="344.06,-55.5 344.06,-73.5 392.29,-73.5 392.29,-55.5 344.06,-55.5"/>
<text text-anchor="middle" x="368.18" y="-61.5" font-family="Helvetica,sans-Serif" font-size="10.00">cassert</text>
</a>
</g>
</g>
<!-- Node2&#45;&gt;Node11 -->
<g id="edge13" class="edge">
<title>Node2&#45;&gt;Node11</title>
<path fill="none" stroke="midnightblue" d="M274.88,-110.45C292.73,-101.85 321.26,-88.1 342.08,-78.08"/>
<polygon fill="midnightblue" stroke="midnightblue" points="343.82,-81.12 351.31,-73.63 340.79,-74.81 343.82,-81.12"/>
</g>
<!-- Node12 -->
<g id="node12" class="node">
<title>Node12</title>
<g id="a_node12"><a xlink:title=" ">
<polygon fill="none" stroke="#bfbfbf" points="410.45,-55.5 410.45,-73.5 445.9,-73.5 445.9,-55.5 410.45,-55.5"/>
<text text-anchor="middle" x="428.18" y="-61.5" font-family="Helvetica,sans-Serif" font-size="10.00">map</text>
</a>
</g>
</g>
<!-- Node2&#45;&gt;Node12 -->
<g id="edge14" class="edge">
<title>Node2&#45;&gt;Node12</title>
<path fill="none" stroke="midnightblue" d="M280.97,-111.43C307.43,-103.22 352.64,-89.18 400.56,-74.19"/>
<polygon fill="midnightblue" stroke="midnightblue" points="401.67,-77.51 410.17,-71.18 399.58,-70.82 401.67,-77.51"/>
</g>
<!-- Node13 -->
<g id="node13" class="node">
<title>Node13</title>
<g id="a_node13"><a xlink:title=" ">
<polygon fill="none" stroke="#bfbfbf" points="463.88,-55.5 463.88,-73.5 570.48,-73.5 570.48,-55.5 463.88,-55.5"/>
<text text-anchor="middle" x="517.18" y="-61.5" font-family="Helvetica,sans-Serif" font-size="10.00">QRandomGenerator</text>
</a>
</g>
</g>
<!-- Node2&#45;&gt;Node13 -->
<g id="edge15" class="edge">
<title>Node2&#45;&gt;Node13</title>
<path fill="none" stroke="midnightblue" d="M281.16,-113.8C322.89,-105.26 411.94,-87.03 467.94,-75.58"/>
<polygon fill="midnightblue" stroke="midnightblue" points="468.9,-78.95 477.99,-73.52 467.5,-72.09 468.9,-78.95"/>
</g>
<!-- Node5 -->
<g id="node5" class="node">
<title>Node5</title>
<g id="a_node5"><a xlink:title=" ">
<polygon fill="none" stroke="#bfbfbf" points="92.84,-0.5 92.84,-18.5 145.52,-18.5 145.52,-0.5 92.84,-0.5"/>
<text text-anchor="middle" x="119.18" y="-6.5" font-family="Helvetica,sans-Serif" font-size="10.00">QObject</text>
</a>
</g>
</g>
<!-- Node4&#45;&gt;Node5 -->
<g id="edge4" class="edge">
<title>Node4&#45;&gt;Node5</title>
<path fill="none" stroke="midnightblue" d="M137.74,-55.22C134.72,-47.94 130.22,-37.11 126.41,-27.93"/>
<polygon fill="midnightblue" stroke="midnightblue" points="129.58,-26.44 122.52,-18.55 123.12,-29.13 129.58,-26.44"/>
</g>
<!-- Node4&#45;&gt;Node6 -->
<g id="edge5" class="edge">
<title>Node4&#45;&gt;Node6</title>
<path fill="none" stroke="midnightblue" d="M126.6,-55.45C111.23,-46.97 86.8,-33.48 68.7,-23.49"/>
<polygon fill="midnightblue" stroke="midnightblue" points="70.34,-20.39 59.89,-18.63 66.96,-26.52 70.34,-20.39"/>
</g>
<!-- Node4&#45;&gt;Node7 -->
<g id="edge6" class="edge">
<title>Node4&#45;&gt;Node7</title>
<path fill="none" stroke="midnightblue" d="M148.83,-55.22C155.99,-47.47 166.88,-35.7 175.68,-26.18"/>
<polygon fill="midnightblue" stroke="midnightblue" points="178.52,-28.27 182.74,-18.55 173.38,-23.52 178.52,-28.27"/>
</g>
<!-- Node9 -->
<g id="node9" class="node">
<title>Node9</title>
<g id="a_node9"><a xlink:title=" ">
<polygon fill="none" stroke="#bfbfbf" points="234.8,-0.5 234.8,-18.5 301.56,-18.5 301.56,-0.5 234.8,-0.5"/>
<text text-anchor="middle" x="268.18" y="-6.5" font-family="Helvetica,sans-Serif" font-size="10.00">QDateTime</text>
</a>
</g>
</g>
<!-- Node8&#45;&gt;Node9 -->
<g id="edge8" class="edge">
<title>Node8&#45;&gt;Node9</title>
<path fill="none" stroke="midnightblue" d="M259.74,-55.22C261.08,-48.1 263.07,-37.58 264.78,-28.53"/>
<polygon fill="midnightblue" stroke="midnightblue" points="268.24,-29.03 266.66,-18.55 261.36,-27.73 268.24,-29.03"/>
</g>
<!-- Node8&#45;&gt;Node10 -->
<g id="edge9" class="edge">
<title>Node8&#45;&gt;Node10</title>
<path fill="none" stroke="midnightblue" d="M271.24,-55.45C284.75,-47.12 306.09,-33.97 322.21,-24.04"/>
<polygon fill="midnightblue" stroke="midnightblue" points="324.32,-26.85 330.99,-18.63 320.64,-20.89 324.32,-26.85"/>
</g>
</g>
</svg>
        <g id="navigator" transform="translate(0 0)" fill="#404254">
                <rect fill="#f2f5e9" fill-opacity="0.5" stroke="#606060" stroke-width=".5" x="0" y="0" width="60" height="60"/>
                <use id="zoomplus" xlink:href="#zoomPlus" x="17" y="9" onmousedown="handleZoom(evt,'in')"/>
                <use id="zoomminus" xlink:href="#zoomMin" x="42" y="9" onmousedown="handleZoom(evt,'out')"/>
                <use id="reset" xlink:href="#resetDef" x="30" y="36" onmousedown="handleReset()"/>
                <g id="arrowUp" xlink:href="#dirArrow" transform="translate(30 24)" onmousedown="handlePan(0,-1)">
                  <use xlink:href="#rim" fill="#404040">
                        <set attributeName="fill" to="#808080" begin="arrowUp.mouseover" end="arrowUp.mouseout"/>
                  </use>
                  <path fill="none" stroke="white" stroke-width="1.5" d="M0,-3.0v7 M-2.5,-0.5L0,-3.0L2.5,-0.5"/>
                </g>
                <g id="arrowRight" xlink:href="#dirArrow" transform="rotate(90) translate(36 -43)" onmousedown="handlePan(1,0)">
                  <use xlink:href="#rim" fill="#404040">
                        <set attributeName="fill" to="#808080" begin="arrowRight.mouseover" end="arrowRight.mouseout"/>
                  </use>
                  <path fill="none" stroke="white" stroke-width="1.5" d="M0,-3.0v7 M-2.5,-0.5L0,-3.0L2.5,-0.5"/>
                </g>
                <g id="arrowDown" xlink:href="#dirArrow" transform="rotate(180) translate(-30 -48)" onmousedown="handlePan(0,1)">
                  <use xlink:href="#rim" fill="#404040">
                        <set attributeName="fill" to="#808080" begin="arrowDown.mouseover" end="arrowDown.mouseout"/>
                  </use>
                  <path fill="none" stroke="white" stroke-width="1.5" d="M0,-3.0v7 M-2.5,-0.5L0,-3.0L2.5,-0.5"/>
                </g>
                <g id="arrowLeft" xlink:href="#dirArrow" transform="rotate(270) translate(-36 17)" onmousedown="handlePan(-1,0)">
                  <use xlink:href="#rim" fill="#404040">
                        <set attributeName="fill" to="#808080" begin="arrowLeft.mouseover" end="arrowLeft.mouseout"/>
                  </use>
                  <path fill="none" stroke="white" stroke-width="1.5" d="M0,-3.0v7 M-2.5,-0.5L0,-3.0L2.5,-0.5"/>
                </g>
        </g>
        <svg viewBox="0 0 15 15" width="100%" height="30px" preserveAspectRatio="xMaxYMin meet">
         <g id="arrow_out" transform="scale(0.3 0.3)">
          <a xlink:href="realpass_8h__incl_org.svg" target="_base">
           <rect id="button" ry="5" rx="5" y="6" x="6" height="38" width="38"
                fill="#f2f5e9" fill-opacity="0.5" stroke="#606060" stroke-width="1.0"/>
           <path id="arrow"
             d="M 11.500037,31.436501 C 11.940474,20.09759 22.043105,11.32322 32.158766,21.979434 L 37.068811,17.246167 C 37.068811,17.246167 37.088388,32 37.088388,32 L 22.160133,31.978069 C 22.160133,31.978069 26.997745,27.140456 26.997745,27.140456 C 18.528582,18.264221 13.291696,25.230495 11.500037,31.436501 z"
             style="fill:#404040;"/>
          </a>
         </g>
        </svg>
</svg>
