<?xml version="1.0" encoding="UTF-8" standalone="no"?>
<!DOCTYPE svg PUBLIC "-//W3C//DTD SVG 1.1//EN"
 "http://www.w3.org/Graphics/SVG/1.1/DTD/svg11.dtd">
<!-- Generated by graphviz version 2.43.0 (0)
 -->
<!-- Title: src/realpass.h Pages: 1 -->
<!--zoomable 148 -->

<svg id="main" version="1.1" xmlns="http://www.w3.org/2000/svg" xmlns:xlink="http://www.w3.org/1999/xlink" xml:space="preserve" onload="init(evt)">

<style type="text/css"><![CDATA[
.node, .edge {opacity: 0.7;}
.node.selected, .edge.selected {opacity: 1;}
.edge:hover path { stroke: red; }
.edge:hover polygon { stroke: red; fill: red; }
]]></style>

<defs>
  <circle id="rim" cx="0" cy="0" r="7"/>
  <circle id="rim2" cx="0" cy="0" r="3.5"/>
  <g id="zoomPlus">
    <use xlink:href="#rim" fill="#404040"><set attributeName="fill" to="#808080" begin="zoomplus.mouseover" end="zoomplus.mouseout"/></use>
    <path d="M-4,0h8M0,-4v8" fill="none" stroke="white" stroke-width="1.5" pointer-events="none"/>
  </g>
  <g id="zoomMin">
    <use xlink:href="#rim" fill="#404040"><set attributeName="fill" to="#808080" begin="zoomminus.mouseover" end="zoomminus.mouseout"/></use>
    <path d="M-4,0h8" fill="none" stroke="white" stroke-width="1.5" pointer-events="none"/>
  </g>
  <g id="arrowUp" transform="translate(30 24)">
    <use xlink:href="#rim"/>
    <path pointer-events="none" fill="none" stroke="white" stroke-width="1.5" d="M0,-3.0v7 M-2.5,-0.5L0,-3.0L2.5,-0.5"/>
  </g>
  <g id="arrowRight" transform="rotate(90) translate(36 -43)">
    <use xlink:href="#rim"/>
    <path pointer-events="none" fill="none" stroke="white" stroke-width="1.5" d="M0,-3.0v7 M-2.5,-0.5L0,-3.0L2.5,-0.5"/>
  </g>
  <g id="arrowDown" transform="rotate(180) translate(-30 -48)">
    <use xlink:href="#rim"/>
    <path pointer-events="none" fill="none" stroke="white" stroke-width="1.5" d="M0,-3.0v7 M-2.5,-0.5L0,-3.0L2.5,-0.5"/>
  </g>
  <g id="arrowLeft" transform="rotate(270) translate(-36 17)">
    <use xlink:href="#rim"/>
    <path pointer-events="none" fill="none" stroke="white" stroke-width="1.5" d="M0,-3.0v7 M-2.5,-0.5L0,-3.0L2.5,-0.5"/>
  </g>
  <g id="resetDef">
    <use xlink:href="#rim2" fill="#404040"><set attributeName="fill" to="#808080" begin="reset.mouseover" end="reset.mouseout"/></use>
  </g>
</defs>
<script type="application/ecmascript">
var viewWidth = 2148;
var viewHeight = 148;
var sectionId = 'dynsection-1';
</script>
<script type="application/ecmascript" xlink:href="svg.min.js"/>
<svg id="graph" class="graph">
<g id="viewport">
<title>src/realpass.h</title>
<!-- Node1 -->
<g id="Node000001" class="node">
<title>Node1</title>
<g id="a_Node000001"><a xlink:title=" ">
<polygon fill="#999999" stroke="#666666" points="1994,-140 1910,-140 1910,-121 1994,-121 1994,-140"/>
<text text-anchor="middle" x="1952" y="-128" font-family="Helvetica,sans-Serif" font-size="10.00">src/realpass.h</text>
</a>
</g>
</g>
<!-- Node2 -->
<g id="Node000002" class="node">
<title>Node2</title>
<g id="a_Node000002"><a xlink:href="qtpasssettings_8h.html" target="_top" xlink:title=" ">
<polygon fill="white" stroke="#666666" points="1178,-85 1064,-85 1064,-66 1178,-66 1178,-85"/>
<text text-anchor="middle" x="1121" y="-73" font-family="Helvetica,sans-Serif" font-size="10.00">src/qtpasssettings.h</text>
</a>
</g>
</g>
<!-- Node1&#45;&gt;Node2 -->
<g id="edge1_Node000001_Node000002" class="edge">
<title>Node1&#45;&gt;Node2</title>
<g id="a_edge1_Node000001_Node000002"><a xlink:title=" ">
<path fill="none" stroke="#63b8ff" d="M1899.78,-126.17C1752.03,-116.75 1331.86,-89.95 1178.19,-80.15"/>
<polygon fill="#63b8ff" stroke="#63b8ff" points="1899.73,-129.67 1909.94,-126.82 1900.18,-122.69 1899.73,-129.67"/>
</a>
</g>
</g>
<!-- Node11 -->
<g id="Node000011" class="node">
<title>Node11</title>
<g id="a_Node000011"><a xlink:href="realpass_8cpp.html" target="_top" xlink:title=" ">
<polygon fill="white" stroke="#666666" points="1999.5,-24.5 1904.5,-24.5 1904.5,-5.5 1999.5,-5.5 1999.5,-24.5"/>
<text text-anchor="middle" x="1952" y="-12.5" font-family="Helvetica,sans-Serif" font-size="10.00">src/realpass.cpp</text>
</a>
</g>
</g>
<!-- Node1&#45;&gt;Node11 -->
<g id="edge19_Node000001_Node000011" class="edge">
<title>Node1&#45;&gt;Node11</title>
<g id="a_edge19_Node000001_Node000011"><a xlink:title=" ">
<path fill="none" stroke="#63b8ff" d="M1952,-110.65C1952,-85.74 1952,-42.88 1952,-24.63"/>
<polygon fill="#63b8ff" stroke="#63b8ff" points="1948.5,-110.97 1952,-120.97 1955.5,-110.97 1948.5,-110.97"/>
</a>
</g>
</g>
<!-- Node16 -->
<g id="Node000016" class="node">
<title>Node16</title>
<g id="a_Node000016"><a xlink:href="tst__integration_8cpp.html" target="_top" xlink:title=" ">
<polygon fill="white" stroke="#666666" points="2140,-30 2018,-30 2018,0 2140,0 2140,-30"/>
<text text-anchor="start" x="2026" y="-18" font-family="Helvetica,sans-Serif" font-size="10.00">tests/auto/integration</text>
<text text-anchor="middle" x="2079" y="-7" font-family="Helvetica,sans-Serif" font-size="10.00">/tst_integration.cpp</text>
</a>
</g>
</g>
<!-- Node1&#45;&gt;Node16 -->
<g id="edge20_Node000001_Node000016" class="edge">
<title>Node1&#45;&gt;Node16</title>
<g id="a_edge20_Node000001_Node000016"><a xlink:title=" ">
<path fill="none" stroke="#63b8ff" d="M1969.07,-114.25C1993.76,-92.18 2039.13,-51.64 2063.13,-30.18"/>
<polygon fill="#63b8ff" stroke="#63b8ff" points="1966.67,-111.7 1961.55,-120.97 1971.33,-116.92 1966.67,-111.7"/>
</a>
</g>
</g>
<!-- Node3 -->
<g id="Node000003" class="node">
<title>Node3</title>
<g id="a_Node000003"><a xlink:href="configdialog_8cpp.html" target="_top" xlink:title=" ">
<polygon fill="white" stroke="#666666" points="1239.5,-24.5 1126.5,-24.5 1126.5,-5.5 1239.5,-5.5 1239.5,-24.5"/>
<text text-anchor="middle" x="1183" y="-12.5" font-family="Helvetica,sans-Serif" font-size="10.00">src/configdialog.cpp</text>
</a>
</g>
</g>
<!-- Node2&#45;&gt;Node3 -->
<g id="edge2_Node000002_Node000003" class="edge">
<title>Node2&#45;&gt;Node3</title>
<g id="a_edge2_Node000002_Node000003"><a xlink:title=" ">
<path fill="none" stroke="#63b8ff" d="M1137.52,-58.91C1149.15,-47.94 1164.28,-33.67 1173.81,-24.67"/>
<polygon fill="#63b8ff" stroke="#63b8ff" points="1135.02,-56.46 1130.15,-65.87 1139.82,-61.55 1135.02,-56.46"/>
</a>
</g>
</g>
<!-- Node4 -->
<g id="Node000004" class="node">
<title>Node4</title>
<g id="a_Node000004"><a xlink:href="imitatepass_8cpp.html" target="_top" xlink:title=" ">
<polygon fill="white" stroke="#666666" points="1370,-24.5 1258,-24.5 1258,-5.5 1370,-5.5 1370,-24.5"/>
<text text-anchor="middle" x="1314" y="-12.5" font-family="Helvetica,sans-Serif" font-size="10.00">src/imitatepass.cpp</text>
</a>
</g>
</g>
<!-- Node2&#45;&gt;Node4 -->
<g id="edge3_Node000002_Node000004" class="edge">
<title>Node2&#45;&gt;Node4</title>
<g id="a_edge3_Node000002_Node000004"><a xlink:title=" ">
<path fill="none" stroke="#63b8ff" d="M1159.06,-62.96C1196.39,-51.65 1252.44,-34.66 1285.9,-24.52"/>
<polygon fill="#63b8ff" stroke="#63b8ff" points="1157.62,-59.74 1149.06,-65.99 1159.65,-66.44 1157.62,-59.74"/>
</a>
</g>
</g>
<!-- Node5 -->
<g id="Node000005" class="node">
<title>Node5</title>
<g id="a_Node000005"><a xlink:href="keygendialog_8cpp.html" target="_top" xlink:title=" ">
<polygon fill="white" stroke="#666666" points="1507.5,-24.5 1388.5,-24.5 1388.5,-5.5 1507.5,-5.5 1507.5,-24.5"/>
<text text-anchor="middle" x="1448" y="-12.5" font-family="Helvetica,sans-Serif" font-size="10.00">src/keygendialog.cpp</text>
</a>
</g>
</g>
<!-- Node2&#45;&gt;Node5 -->
<g id="edge4_Node000002_Node000005" class="edge">
<title>Node2&#45;&gt;Node5</title>
<g id="a_edge4_Node000002_Node000005"><a xlink:title=" ">
<path fill="none" stroke="#63b8ff" d="M1183.09,-64.32C1235.41,-55.61 1312.2,-42.53 1379,-30 1388.01,-28.31 1397.66,-26.41 1406.81,-24.56"/>
<polygon fill="#63b8ff" stroke="#63b8ff" points="1182.26,-60.91 1172.97,-66 1183.41,-67.81 1182.26,-60.91"/>
</a>
</g>
</g>
<!-- Node6 -->
<g id="Node000006" class="node">
<title>Node6</title>
<g id="a_Node000006"><a xlink:href="mainwindow_8cpp.html" target="_top" xlink:title=" ">
<polygon fill="white" stroke="#666666" points="1642,-24.5 1526,-24.5 1526,-5.5 1642,-5.5 1642,-24.5"/>
<text text-anchor="middle" x="1584" y="-12.5" font-family="Helvetica,sans-Serif" font-size="10.00">src/mainwindow.cpp</text>
</a>
</g>
</g>
<!-- Node2&#45;&gt;Node6 -->
<g id="edge5_Node000002_Node000006" class="edge">
<title>Node2&#45;&gt;Node6</title>
<g id="a_edge5_Node000002_Node000006"><a xlink:title=" ">
<path fill="none" stroke="#63b8ff" d="M1188.4,-68.79C1267.23,-61.67 1401.53,-48.19 1516,-30 1525.64,-28.47 1535.99,-26.5 1545.63,-24.53"/>
<polygon fill="#63b8ff" stroke="#63b8ff" points="1187.78,-65.33 1178.13,-69.71 1188.4,-72.3 1187.78,-65.33"/>
</a>
</g>
</g>
<!-- Node7 -->
<g id="Node000007" class="node">
<title>Node7</title>
<g id="a_Node000007"><a xlink:href="pass_8cpp.html" target="_top" xlink:title=" ">
<polygon fill="white" stroke="#666666" points="1737.5,-24.5 1660.5,-24.5 1660.5,-5.5 1737.5,-5.5 1737.5,-24.5"/>
<text text-anchor="middle" x="1699" y="-12.5" font-family="Helvetica,sans-Serif" font-size="10.00">src/pass.cpp</text>
</a>
</g>
</g>
<!-- Node2&#45;&gt;Node7 -->
<g id="edge6_Node000002_Node000007" class="edge">
<title>Node2&#45;&gt;Node7</title>
<g id="a_edge6_Node000002_Node000007"><a xlink:title=" ">
<path fill="none" stroke="#63b8ff" d="M1188.45,-73.15C1289.71,-70.14 1486.65,-60.55 1651,-30 1658.34,-28.64 1666.16,-26.61 1673.32,-24.52"/>
<polygon fill="#63b8ff" stroke="#63b8ff" points="1188.26,-69.65 1178.36,-73.43 1188.46,-76.65 1188.26,-69.65"/>
</a>
</g>
</g>
<!-- Node8 -->
<g id="Node000008" class="node">
<title>Node8</title>
<g id="a_Node000008"><a xlink:href="passworddialog_8cpp.html" target="_top" xlink:title=" ">
<polygon fill="white" stroke="#666666" points="1886.5,-24.5 1755.5,-24.5 1755.5,-5.5 1886.5,-5.5 1886.5,-24.5"/>
<text text-anchor="middle" x="1821" y="-12.5" font-family="Helvetica,sans-Serif" font-size="10.00">src/passworddialog.cpp</text>
</a>
</g>
</g>
<!-- Node2&#45;&gt;Node8 -->
<g id="edge7_Node000002_Node000008" class="edge">
<title>Node2&#45;&gt;Node8</title>
<g id="a_edge7_Node000002_Node000008"><a xlink:title=" ">
<path fill="none" stroke="#63b8ff" d="M1188.13,-72.22C1302.86,-67.77 1543.86,-55.98 1746,-30 1757.04,-28.58 1768.9,-26.59 1779.87,-24.55"/>
<polygon fill="#63b8ff" stroke="#63b8ff" points="1187.95,-68.72 1178.09,-72.6 1188.22,-75.72 1187.95,-68.72"/>
</a>
</g>
</g>
<!-- Node9 -->
<g id="Node000009" class="node">
<title>Node9</title>
<g id="a_Node000009"><a xlink:href="qtpass_8cpp.html" target="_top" xlink:title=" ">
<polygon fill="white" stroke="#666666" points="86,-24.5 0,-24.5 0,-5.5 86,-5.5 86,-24.5"/>
<text text-anchor="middle" x="43" y="-12.5" font-family="Helvetica,sans-Serif" font-size="10.00">src/qtpass.cpp</text>
</a>
</g>
</g>
<!-- Node2&#45;&gt;Node9 -->
<g id="edge8_Node000002_Node000009" class="edge">
<title>Node2&#45;&gt;Node9</title>
<g id="a_edge8_Node000002_Node000009"><a xlink:title=" ">
<path fill="none" stroke="#63b8ff" d="M1053.51,-73.51C855.88,-70.29 280.66,-58.66 95,-30 86.87,-28.74 78.18,-26.7 70.29,-24.55"/>
<polygon fill="#63b8ff" stroke="#63b8ff" points="1053.7,-77.01 1063.75,-73.67 1053.81,-70.01 1053.7,-77.01"/>
</a>
</g>
</g>
<!-- Node10 -->
<g id="Node000010" class="node">
<title>Node10</title>
<g id="a_Node000010"><a xlink:href="qtpasssettings_8cpp.html" target="_top" xlink:title=" ">
<polygon fill="white" stroke="#666666" points="229.5,-24.5 104.5,-24.5 104.5,-5.5 229.5,-5.5 229.5,-24.5"/>
<text text-anchor="middle" x="167" y="-12.5" font-family="Helvetica,sans-Serif" font-size="10.00">src/qtpasssettings.cpp</text>
</a>
</g>
</g>
<!-- Node2&#45;&gt;Node10 -->
<g id="edge9_Node000002_Node000010" class="edge">
<title>Node2&#45;&gt;Node10</title>
<g id="a_edge9_Node000002_Node000010"><a xlink:title=" ">
<path fill="none" stroke="#63b8ff" d="M1053.47,-74.35C905.39,-73.3 541.27,-66.82 239,-30 228.13,-28.68 216.44,-26.66 205.7,-24.57"/>
<polygon fill="#63b8ff" stroke="#63b8ff" points="1053.73,-77.85 1063.75,-74.41 1053.77,-70.85 1053.73,-77.85"/>
</a>
</g>
</g>
<!-- Node2&#45;&gt;Node11 -->
<g id="edge10_Node000002_Node000011" class="edge">
<title>Node2&#45;&gt;Node11</title>
<g id="a_edge10_Node000002_Node000011"><a xlink:title=" ">
<path fill="none" stroke="#63b8ff" d="M1188.35,-74.77C1323.25,-74.39 1635.88,-68.93 1895,-30 1903.77,-28.68 1913.16,-26.64 1921.74,-24.53"/>
<polygon fill="#63b8ff" stroke="#63b8ff" points="1188.17,-71.27 1178.18,-74.78 1188.18,-78.27 1188.17,-71.27"/>
</a>
</g>
</g>
<!-- Node12 -->
<g id="Node000012" class="node">
<title>Node12</title>
<g id="a_Node000012"><a xlink:href="storemodel_8cpp.html" target="_top" xlink:title=" ">
<polygon fill="white" stroke="#666666" points="358,-24.5 248,-24.5 248,-5.5 358,-5.5 358,-24.5"/>
<text text-anchor="middle" x="303" y="-12.5" font-family="Helvetica,sans-Serif" font-size="10.00">src/storemodel.cpp</text>
</a>
</g>
</g>
<!-- Node2&#45;&gt;Node12 -->
<g id="edge11_Node000002_Node000012" class="edge">
<title>Node2&#45;&gt;Node12</title>
<g id="a_edge11_Node000002_Node000012"><a xlink:title=" ">
<path fill="none" stroke="#63b8ff" d="M1053.58,-74.05C921.3,-72.38 618.68,-64.74 367,-30 357.31,-28.66 346.91,-26.64 337.37,-24.55"/>
<polygon fill="#63b8ff" stroke="#63b8ff" points="1053.91,-77.55 1063.95,-74.17 1053.99,-70.55 1053.91,-77.55"/>
</a>
</g>
</g>
<!-- Node13 -->
<g id="Node000013" class="node">
<title>Node13</title>
<g id="a_Node000013"><a xlink:href="usersdialog_8cpp.html" target="_top" xlink:title=" ">
<polygon fill="white" stroke="#666666" points="486,-24.5 376,-24.5 376,-5.5 486,-5.5 486,-24.5"/>
<text text-anchor="middle" x="431" y="-12.5" font-family="Helvetica,sans-Serif" font-size="10.00">src/usersdialog.cpp</text>
</a>
</g>
</g>
<!-- Node2&#45;&gt;Node13 -->
<g id="edge12_Node000002_Node000013" class="edge">
<title>Node2&#45;&gt;Node13</title>
<g id="a_edge12_Node000002_Node000013"><a xlink:title=" ">
<path fill="none" stroke="#63b8ff" d="M1053.67,-72.9C938.62,-69.45 697.03,-59.12 495,-30 485.43,-28.62 475.16,-26.61 465.71,-24.55"/>
<polygon fill="#63b8ff" stroke="#63b8ff" points="1053.64,-76.4 1063.74,-73.19 1053.85,-69.4 1053.64,-76.4"/>
</a>
</g>
</g>
<!-- Node14 -->
<g id="Node000014" class="node">
<title>Node14</title>
<g id="a_Node000014"><a xlink:href="util_8cpp.html" target="_top" xlink:title=" ">
<polygon fill="white" stroke="#666666" points="574,-24.5 504,-24.5 504,-5.5 574,-5.5 574,-24.5"/>
<text text-anchor="middle" x="539" y="-12.5" font-family="Helvetica,sans-Serif" font-size="10.00">src/util.cpp</text>
</a>
</g>
</g>
<!-- Node2&#45;&gt;Node14 -->
<g id="edge13_Node000002_Node000014" class="edge">
<title>Node2&#45;&gt;Node14</title>
<g id="a_edge13_Node000002_Node000014"><a xlink:title=" ">
<path fill="none" stroke="#63b8ff" d="M1053.66,-73.78C951.13,-71.6 750.11,-63.06 583,-30 576.24,-28.66 569.05,-26.64 562.49,-24.55"/>
<polygon fill="#63b8ff" stroke="#63b8ff" points="1053.81,-77.29 1063.87,-73.99 1053.95,-70.29 1053.81,-77.29"/>
</a>
</g>
</g>
<!-- Node15 -->
<g id="Node000015" class="node">
<title>Node15</title>
<g id="a_Node000015"><a xlink:href="tst__executor_8cpp.html" target="_top" xlink:title=" ">
<polygon fill="white" stroke="#666666" points="702,-30 592,-30 592,0 702,0 702,-30"/>
<text text-anchor="start" x="600" y="-18" font-family="Helvetica,sans-Serif" font-size="10.00">tests/auto/executor</text>
<text text-anchor="middle" x="647" y="-7" font-family="Helvetica,sans-Serif" font-size="10.00">/tst_executor.cpp</text>
</a>
</g>
</g>
<!-- Node2&#45;&gt;Node15 -->
<g id="edge14_Node000002_Node000015" class="edge">
<title>Node2&#45;&gt;Node15</title>
<g id="a_edge14_Node000002_Node000015"><a xlink:title=" ">
<path fill="none" stroke="#63b8ff" d="M1053.57,-69.41C972.08,-62.75 830.95,-49.57 711,-30 708.08,-29.52 705.1,-29 702.09,-28.44"/>
<polygon fill="#63b8ff" stroke="#63b8ff" points="1053.45,-72.91 1063.7,-70.23 1054.01,-65.94 1053.45,-72.91"/>
</a>
</g>
</g>
<!-- Node2&#45;&gt;Node16 -->
<g id="edge15_Node000002_Node000016" class="edge">
<title>Node2&#45;&gt;Node16</title>
<g id="a_edge15_Node000002_Node000016"><a xlink:title=" ">
<path fill="none" stroke="#63b8ff" d="M1188.46,-74.5C1337.21,-73.76 1704.4,-67.88 2009,-30 2011.83,-29.65 2014.71,-29.25 2017.62,-28.81"/>
<polygon fill="#63b8ff" stroke="#63b8ff" points="1188.12,-71 1178.13,-74.55 1188.15,-78 1188.12,-71"/>
</a>
</g>
</g>
<!-- Node17 -->
<g id="Node000017" class="node">
<title>Node17</title>
<g id="a_Node000017"><a xlink:href="tst__passwordconfig_8cpp.html" target="_top" xlink:title=" ">
<polygon fill="white" stroke="#666666" points="864,-30 720,-30 720,0 864,0 864,-30"/>
<text text-anchor="start" x="728" y="-18" font-family="Helvetica,sans-Serif" font-size="10.00">tests/auto/passwordconfig</text>
<text text-anchor="middle" x="792" y="-7" font-family="Helvetica,sans-Serif" font-size="10.00">/tst_passwordconfig.cpp</text>
</a>
</g>
</g>
<!-- Node2&#45;&gt;Node17 -->
<g id="edge16_Node000002_Node000017" class="edge">
<title>Node2&#45;&gt;Node17</title>
<g id="a_edge16_Node000002_Node000017"><a xlink:title=" ">
<path fill="none" stroke="#63b8ff" d="M1063.16,-64.21C1007.75,-54.36 923.95,-39.46 864.19,-28.84"/>
<polygon fill="#63b8ff" stroke="#63b8ff" points="1062.7,-67.69 1073.16,-65.99 1063.93,-60.8 1062.7,-67.69"/>
</a>
</g>
</g>
<!-- Node18 -->
<g id="Node000018" class="node">
<title>Node18</title>
<g id="a_Node000018"><a xlink:href="tst__settings_8cpp.html" target="_top" xlink:title=" ">
<polygon fill="white" stroke="#666666" points="989.5,-30 882.5,-30 882.5,0 989.5,0 989.5,-30"/>
<text text-anchor="start" x="890.5" y="-18" font-family="Helvetica,sans-Serif" font-size="10.00">tests/auto/settings</text>
<text text-anchor="middle" x="936" y="-7" font-family="Helvetica,sans-Serif" font-size="10.00">/tst_settings.cpp</text>
</a>
</g>
</g>
<!-- Node2&#45;&gt;Node18 -->
<g id="edge17_Node000002_Node000018" class="edge">
<title>Node2&#45;&gt;Node18</title>
<g id="a_edge17_Node000002_Node000018"><a xlink:title=" ">
<path fill="none" stroke="#63b8ff" d="M1084.49,-62.95C1054.63,-53.51 1012.31,-40.13 980.48,-30.06"/>
<polygon fill="#63b8ff" stroke="#63b8ff" points="1083.51,-66.32 1094.1,-65.99 1085.62,-59.64 1083.51,-66.32"/>
</a>
</g>
</g>
<!-- Node19 -->
<g id="Node000019" class="node">
<title>Node19</title>
<g id="a_Node000019"><a xlink:href="tst__util_8cpp.html" target="_top" xlink:title=" ">
<polygon fill="white" stroke="#666666" points="1108,-30 1008,-30 1008,0 1108,0 1108,-30"/>
<text text-anchor="start" x="1016" y="-18" font-family="Helvetica,sans-Serif" font-size="10.00">tests/auto/util/tst</text>
<text text-anchor="middle" x="1058" y="-7" font-family="Helvetica,sans-Serif" font-size="10.00">_util.cpp</text>
</a>
</g>
</g>
<!-- Node2&#45;&gt;Node19 -->
<g id="edge18_Node000002_Node000019" class="edge">
<title>Node2&#45;&gt;Node19</title>
<g id="a_edge18_Node000002_Node000019"><a xlink:title=" ">
<path fill="none" stroke="#63b8ff" d="M1104.27,-58.97C1094.62,-50.01 1082.58,-38.82 1073.2,-30.11"/>
<polygon fill="#63b8ff" stroke="#63b8ff" points="1101.99,-61.63 1111.7,-65.87 1106.76,-56.5 1101.99,-61.63"/>
</a>
</g>
</g>
</g>
</svg>

<g id="navigator" transform="translate(0 0)" fill="#404254">
  <rect fill="#f2f5e9" fill-opacity="0.5" stroke="#606060" stroke-width=".5" x="0" y="0" width="60" height="60"/>
  <use id="zoomplus" xlink:href="#zoomPlus" x="17" y="9" onmousedown="handleZoom(evt,'in')"/>
  <use id="zoomminus" xlink:href="#zoomMin" x="42" y="9" onmousedown="handleZoom(evt,'out')"/>
  <use id="reset" xlink:href="#resetDef" x="30" y="36" onmousedown="handleReset()"/>
   <use id="arrowup" xlink:href="#arrowUp" x="0" y="0" onmousedown="handlePan(0,-1)"/>
  <use id="arrowright" xlink:href="#arrowRight" x="0" y="0" onmousedown="handlePan(1,0)"/>
  <use id="arrowdown" xlink:href="#arrowDown" x="0" y="0" onmousedown="handlePan(0,1)"/>
  <use id="arrowleft" xlink:href="#arrowLeft" x="0" y="0" onmousedown="handlePan(-1,0)"/>
</g>
<svg viewBox="0 0 15 15" width="100%" height="30px" preserveAspectRatio="xMaxYMin meet">
 <g id="arrow_out" transform="scale(0.3 0.3)">
  <a xlink:href="realpass_8h__dep__incl_org.svg" target="_base">
   <rect id="button" ry="5" rx="5" y="6" x="6" height="38" width="38"
        fill="#f2f5e9" fill-opacity="0.5" stroke="#606060" stroke-width="1.0"/>
   <path id="arrow"
     d="M 11.500037,31.436501 C 11.940474,20.09759 22.043105,11.32322 32.158766,21.979434 L 37.068811,17.246167 C 37.068811,17.246167 37.088388,32 37.088388,32 L 22.160133,31.978069 C 22.160133,31.978069 26.997745,27.140456 26.997745,27.140456 C 18.528582,18.264221 13.291696,25.230495 11.500037,31.436501 z"
     style="fill:#404040;"/>
  </a>
 </g>
</svg>

<style type='text/css'>
<![CDATA[
[data-mouse-over-selected='false'] { opacity: 0.7; }
[data-mouse-over-selected='true']  { opacity: 1.0; }
]]>
</style>
<script type="application/ecmascript"><![CDATA[
document.addEventListener('DOMContentLoaded', (event) => {
  highlightEdges();
  highlightAdjacentNodes();
});
]]></script>
</svg>
