<?xml version="1.0" encoding="UTF-8" standalone="no"?>
<!DOCTYPE svg PUBLIC "-//W3C//DTD SVG 1.1//EN"
 "http://www.w3.org/Graphics/SVG/1.1/DTD/svg11.dtd">
<!-- Generated by graphviz version 2.44.0 (20200408.0750)
 -->
<!-- Title: src/settingsconstants.cpp Pages: 1 -->
<svg width="137pt" height="140pt"
 viewBox="0.00 0.00 137.00 140.00" xmlns="http://www.w3.org/2000/svg" xmlns:xlink="http://www.w3.org/1999/xlink">
<g id="graph0" class="graph" transform="scale(1 1) rotate(0) translate(4 136)">
<title>src/settingsconstants.cpp</title>
<!-- Node1 -->
<g id="node1" class="node">
<title>Node1</title>
<g id="a_node1"><a xlink:title=" ">
<polygon fill="#bfbfbf" stroke="black" points="0,-112.5 0,-131.5 129,-131.5 129,-112.5 0,-112.5"/>
<text text-anchor="middle" x="64.5" y="-119.5" font-family="Helvetica,sans-Serif" font-size="10.00">src/settingsconstants.cpp</text>
</a>
</g>
</g>
<!-- Node2 -->
<g id="node2" class="node">
<title>Node2</title>
<g id="a_node2"><a xlink:href="settingsconstants_8h.html" target="_top" xlink:title=" ">
<polygon fill="none" stroke="black" points="13.5,-56.5 13.5,-75.5 115.5,-75.5 115.5,-56.5 13.5,-56.5"/>
<text text-anchor="middle" x="64.5" y="-63.5" font-family="Helvetica,sans-Serif" font-size="10.00">settingsconstants.h</text>
</a>
</g>
</g>
<!-- Node1&#45;&gt;Node2 -->
<g id="edge1" class="edge">
<title>Node1&#45;&gt;Node2</title>
<path fill="none" stroke="midnightblue" d="M64.5,-112.08C64.5,-105.01 64.5,-94.86 64.5,-85.99"/>
<polygon fill="midnightblue" stroke="midnightblue" points="68,-85.75 64.5,-75.75 61,-85.75 68,-85.75"/>
</g>
<!-- Node3 -->
<g id="node3" class="node">
<title>Node3</title>
<g id="a_node3"><a xlink:title=" ">
<polygon fill="none" stroke="#bfbfbf" points="39.5,-0.5 39.5,-19.5 89.5,-19.5 89.5,-0.5 39.5,-0.5"/>
<text text-anchor="middle" x="64.5" y="-7.5" font-family="Helvetica,sans-Serif" font-size="10.00">QString</text>
</a>
</g>
</g>
<!-- Node2&#45;&gt;Node3 -->
<g id="edge2" class="edge">
<title>Node2&#45;&gt;Node3</title>
<path fill="none" stroke="midnightblue" d="M64.5,-56.08C64.5,-49.01 64.5,-38.86 64.5,-29.99"/>
<polygon fill="midnightblue" stroke="midnightblue" points="68,-29.75 64.5,-19.75 61,-29.75 68,-29.75"/>
</g>
</g>
</svg>
