<?xml version="1.0" encoding="UTF-8" standalone="no"?>
<!DOCTYPE svg PUBLIC "-//W3C//DTD SVG 1.1//EN"
 "http://www.w3.org/Graphics/SVG/1.1/DTD/svg11.dtd">
<!-- Generated by graphviz version 2.43.0 (0)
 -->
<!-- Title: src/settingsconstants.h Pages: 1 -->
<!--zoomable 148 -->

<svg id="main" version="1.1" xmlns="http://www.w3.org/2000/svg" xmlns:xlink="http://www.w3.org/1999/xlink" xml:space="preserve" onload="init(evt)">
<style type="text/css"><![CDATA[
.node, .edge {opacity: 0.7;}
.node.selected, .edge.selected {opacity: 1;}
.edge:hover path { stroke: red; }
.edge:hover polygon { stroke: red; fill: red; }
]]></style>

<defs>
  <circle id="rim" cx="0" cy="0" r="7"/>
  <circle id="rim2" cx="0" cy="0" r="3.5"/>
  <g id="zoomPlus">
    <use xlink:href="#rim" fill="#404040"><set attributeName="fill" to="#808080" begin="zoomplus.mouseover" end="zoomplus.mouseout"/></use>
    <path d="M-4,0h8M0,-4v8" fill="none" stroke="white" stroke-width="1.5" pointer-events="none"/>
  </g>
  <g id="zoomMin">
    <use xlink:href="#rim" fill="#404040"><set attributeName="fill" to="#808080" begin="zoomminus.mouseover" end="zoomminus.mouseout"/></use>
    <path d="M-4,0h8" fill="none" stroke="white" stroke-width="1.5" pointer-events="none"/>
  </g>
  <g id="arrowUp" transform="translate(30 24)">
    <use xlink:href="#rim"/>
    <path pointer-events="none" fill="none" stroke="white" stroke-width="1.5" d="M0,-3.0v7 M-2.5,-0.5L0,-3.0L2.5,-0.5"/>
  </g>
  <g id="arrowRight" transform="rotate(90) translate(36 -43)">
    <use xlink:href="#rim"/>
    <path pointer-events="none" fill="none" stroke="white" stroke-width="1.5" d="M0,-3.0v7 M-2.5,-0.5L0,-3.0L2.5,-0.5"/>
  </g>
  <g id="arrowDown" transform="rotate(180) translate(-30 -48)">
    <use xlink:href="#rim"/>
    <path pointer-events="none" fill="none" stroke="white" stroke-width="1.5" d="M0,-3.0v7 M-2.5,-0.5L0,-3.0L2.5,-0.5"/>
  </g>
  <g id="arrowLeft" transform="rotate(270) translate(-36 17)">
    <use xlink:href="#rim"/>
    <path pointer-events="none" fill="none" stroke="white" stroke-width="1.5" d="M0,-3.0v7 M-2.5,-0.5L0,-3.0L2.5,-0.5"/>
  </g>
  <g id="resetDef">
    <use xlink:href="#rim2" fill="#404040"><set attributeName="fill" to="#808080" begin="reset.mouseover" end="reset.mouseout"/></use>
  </g>
</defs>
<script type="application/ecmascript">
var viewWidth = 1880;
var viewHeight = 148;
var sectionId = 'dynsection-1';
</script>
<script type="application/ecmascript" xlink:href="svg.min.js"/>
<svg id="graph" class="graph">
<g id="viewport">
<title>src/settingsconstants.h</title>
<!-- Node1 -->
<g id="Node000001" class="node">
<title>Node1</title>
<g id="a_Node000001"><a xlink:title=" ">
<polygon fill="#999999" stroke="#666666" points="1082,-140 953,-140 953,-121 1082,-121 1082,-140"/>
<text text-anchor="middle" x="1017.5" y="-128" font-family="Helvetica,sans-Serif" font-size="10.00">src/settingsconstants.h</text>
</a>
</g>
</g>
<!-- Node2 -->
<g id="Node000002" class="node">
<title>Node2</title>
<g id="a_Node000002"><a xlink:href="qtpasssettings_8h.html" target="_top" xlink:title=" ">
<polygon fill="white" stroke="#666666" points="1002.5,-85 888.5,-85 888.5,-66 1002.5,-66 1002.5,-85"/>
<text text-anchor="middle" x="945.5" y="-73" font-family="Helvetica,sans-Serif" font-size="10.00">src/qtpasssettings.h</text>
</a>
</g>
</g>
<!-- Node1&#45;&gt;Node2 -->
<g id="edge1_Node000001_Node000002" class="edge">
<title>Node1&#45;&gt;Node2</title>
<g id="a_edge1_Node000001_Node000002"><a xlink:title=" ">
<path fill="none" stroke="#63b8ff" d="M997.63,-114.88C984.68,-105.34 968.2,-93.21 957.28,-85.17"/>
<polygon fill="#63b8ff" stroke="#63b8ff" points="995.8,-117.88 1005.93,-120.98 999.95,-112.24 995.8,-117.88"/>
</a>
</g>
</g>
<!-- Node18 -->
<g id="Node000018" class="node">
<title>Node18</title>
<g id="a_Node000018"><a xlink:href="settingsconstants_8cpp.html" target="_top" xlink:title=" ">
<polygon fill="white" stroke="#666666" points="1160.5,-85 1020.5,-85 1020.5,-66 1160.5,-66 1160.5,-85"/>
<text text-anchor="middle" x="1090.5" y="-73" font-family="Helvetica,sans-Serif" font-size="10.00">src/settingsconstants.cpp</text>
</a>
</g>
</g>
<!-- Node1&#45;&gt;Node18 -->
<g id="edge17_Node000001_Node000018" class="edge">
<title>Node1&#45;&gt;Node18</title>
<g id="a_edge17_Node000001_Node000018"><a xlink:title=" ">
<path fill="none" stroke="#63b8ff" d="M1037.64,-114.88C1050.78,-105.34 1067.48,-93.21 1078.56,-85.17"/>
<polygon fill="#63b8ff" stroke="#63b8ff" points="1035.26,-112.28 1029.23,-120.98 1039.38,-117.94 1035.26,-112.28"/>
</a>
</g>
</g>
<!-- Node3 -->
<g id="Node000003" class="node">
<title>Node3</title>
<g id="a_Node000003"><a xlink:href="configdialog_8cpp.html" target="_top" xlink:title=" ">
<polygon fill="white" stroke="#666666" points="113,-24.5 0,-24.5 0,-5.5 113,-5.5 113,-24.5"/>
<text text-anchor="middle" x="56.5" y="-12.5" font-family="Helvetica,sans-Serif" font-size="10.00">src/configdialog.cpp</text>
</a>
</g>
</g>
<!-- Node2&#45;&gt;Node3 -->
<g id="edge2_Node000002_Node000003" class="edge">
<title>Node2&#45;&gt;Node3</title>
<g id="a_edge2_Node000002_Node000003"><a xlink:title=" ">
<path fill="none" stroke="#63b8ff" d="M878.14,-74.38C737.24,-73.36 401.36,-66.89 122.5,-30 112.4,-28.66 101.54,-26.62 91.6,-24.5"/>
<polygon fill="#63b8ff" stroke="#63b8ff" points="878.32,-77.88 888.35,-74.45 878.37,-70.88 878.32,-77.88"/>
</a>
</g>
</g>
<!-- Node4 -->
<g id="Node000004" class="node">
<title>Node4</title>
<g id="a_Node000004"><a xlink:href="imitatepass_8cpp.html" target="_top" xlink:title=" ">
<polygon fill="white" stroke="#666666" points="243.5,-24.5 131.5,-24.5 131.5,-5.5 243.5,-5.5 243.5,-24.5"/>
<text text-anchor="middle" x="187.5" y="-12.5" font-family="Helvetica,sans-Serif" font-size="10.00">src/imitatepass.cpp</text>
</a>
</g>
</g>
<!-- Node2&#45;&gt;Node4 -->
<g id="edge3_Node000002_Node000004" class="edge">
<title>Node2&#45;&gt;Node4</title>
<g id="a_edge3_Node000002_Node000004"><a xlink:title=" ">
<path fill="none" stroke="#63b8ff" d="M878.04,-73.48C753.75,-70.86 480.44,-61.69 252.5,-30 242.67,-28.63 232.11,-26.6 222.41,-24.51"/>
<polygon fill="#63b8ff" stroke="#63b8ff" points="878.1,-76.98 888.17,-73.68 878.24,-69.98 878.1,-76.98"/>
</a>
</g>
</g>
<!-- Node5 -->
<g id="Node000005" class="node">
<title>Node5</title>
<g id="a_Node000005"><a xlink:href="keygendialog_8cpp.html" target="_top" xlink:title=" ">
<polygon fill="white" stroke="#666666" points="381,-24.5 262,-24.5 262,-5.5 381,-5.5 381,-24.5"/>
<text text-anchor="middle" x="321.5" y="-12.5" font-family="Helvetica,sans-Serif" font-size="10.00">src/keygendialog.cpp</text>
</a>
</g>
</g>
<!-- Node2&#45;&gt;Node5 -->
<g id="edge4_Node000002_Node000005" class="edge">
<title>Node2&#45;&gt;Node5</title>
<g id="a_edge4_Node000002_Node000005"><a xlink:title=" ">
<path fill="none" stroke="#63b8ff" d="M878.01,-71.71C773.24,-66.78 565.34,-54.66 390.5,-30 380.33,-28.57 369.41,-26.57 359.32,-24.53"/>
<polygon fill="#63b8ff" stroke="#63b8ff" points="877.97,-75.21 888.13,-72.18 878.3,-68.22 877.97,-75.21"/>
</a>
</g>
</g>
<!-- Node6 -->
<g id="Node000006" class="node">
<title>Node6</title>
<g id="a_Node000006"><a xlink:href="mainwindow_8cpp.html" target="_top" xlink:title=" ">
<polygon fill="white" stroke="#666666" points="515.5,-24.5 399.5,-24.5 399.5,-5.5 515.5,-5.5 515.5,-24.5"/>
<text text-anchor="middle" x="457.5" y="-12.5" font-family="Helvetica,sans-Serif" font-size="10.00">src/mainwindow.cpp</text>
</a>
</g>
</g>
<!-- Node2&#45;&gt;Node6 -->
<g id="edge5_Node000002_Node000006" class="edge">
<title>Node2&#45;&gt;Node6</title>
<g id="a_edge5_Node000002_Node000006"><a xlink:title=" ">
<path fill="none" stroke="#63b8ff" d="M878.31,-69.5C794.99,-62.81 648.74,-49.5 524.5,-30 514.87,-28.49 504.54,-26.51 494.94,-24.52"/>
<polygon fill="#63b8ff" stroke="#63b8ff" points="878.16,-73 888.4,-70.3 878.71,-66.02 878.16,-73"/>
</a>
</g>
</g>
<!-- Node7 -->
<g id="Node000007" class="node">
<title>Node7</title>
<g id="a_Node000007"><a xlink:href="pass_8cpp.html" target="_top" xlink:title=" ">
<polygon fill="white" stroke="#666666" points="611,-24.5 534,-24.5 534,-5.5 611,-5.5 611,-24.5"/>
<text text-anchor="middle" x="572.5" y="-12.5" font-family="Helvetica,sans-Serif" font-size="10.00">src/pass.cpp</text>
</a>
</g>
</g>
<!-- Node2&#45;&gt;Node7 -->
<g id="edge6_Node000002_Node000007" class="edge">
<title>Node2&#45;&gt;Node7</title>
<g id="a_edge6_Node000002_Node000007"><a xlink:title=" ">
<path fill="none" stroke="#63b8ff" d="M877.9,-68.34C811.59,-61.57 707.88,-49.08 619.5,-30 612.68,-28.53 605.4,-26.56 598.66,-24.57"/>
<polygon fill="#63b8ff" stroke="#63b8ff" points="877.91,-71.86 888.21,-69.37 878.61,-64.89 877.91,-71.86"/>
</a>
</g>
</g>
<!-- Node8 -->
<g id="Node000008" class="node">
<title>Node8</title>
<g id="a_Node000008"><a xlink:href="passworddialog_8cpp.html" target="_top" xlink:title=" ">
<polygon fill="white" stroke="#666666" points="760,-24.5 629,-24.5 629,-5.5 760,-5.5 760,-24.5"/>
<text text-anchor="middle" x="694.5" y="-12.5" font-family="Helvetica,sans-Serif" font-size="10.00">src/passworddialog.cpp</text>
</a>
</g>
</g>
<!-- Node2&#45;&gt;Node8 -->
<g id="edge7_Node000002_Node000008" class="edge">
<title>Node2&#45;&gt;Node8</title>
<g id="a_edge7_Node000002_Node000008"><a xlink:title=" ">
<path fill="none" stroke="#63b8ff" d="M899.08,-63.68C850.58,-52.38 775.49,-34.88 731.04,-24.52"/>
<polygon fill="#63b8ff" stroke="#63b8ff" points="898.47,-67.13 909,-65.99 900.06,-60.32 898.47,-67.13"/>
</a>
</g>
</g>
<!-- Node9 -->
<g id="Node000009" class="node">
<title>Node9</title>
<g id="a_Node000009"><a xlink:href="qtpass_8cpp.html" target="_top" xlink:title=" ">
<polygon fill="white" stroke="#666666" points="864.5,-24.5 778.5,-24.5 778.5,-5.5 864.5,-5.5 864.5,-24.5"/>
<text text-anchor="middle" x="821.5" y="-12.5" font-family="Helvetica,sans-Serif" font-size="10.00">src/qtpass.cpp</text>
</a>
</g>
</g>
<!-- Node2&#45;&gt;Node9 -->
<g id="edge8_Node000002_Node000009" class="edge">
<title>Node2&#45;&gt;Node9</title>
<g id="a_edge8_Node000002_Node000009"><a xlink:title=" ">
<path fill="none" stroke="#63b8ff" d="M918.23,-61.63C894.31,-50.35 860.22,-34.27 839.55,-24.52"/>
<polygon fill="#63b8ff" stroke="#63b8ff" points="916.93,-64.89 927.47,-65.99 919.92,-58.56 916.93,-64.89"/>
</a>
</g>
</g>
<!-- Node10 -->
<g id="Node000010" class="node">
<title>Node10</title>
<g id="a_Node000010"><a xlink:href="qtpasssettings_8cpp.html" target="_top" xlink:title=" ">
<polygon fill="white" stroke="#666666" points="1008,-24.5 883,-24.5 883,-5.5 1008,-5.5 1008,-24.5"/>
<text text-anchor="middle" x="945.5" y="-12.5" font-family="Helvetica,sans-Serif" font-size="10.00">src/qtpasssettings.cpp</text>
</a>
</g>
</g>
<!-- Node2&#45;&gt;Node10 -->
<g id="edge9_Node000002_Node000010" class="edge">
<title>Node2&#45;&gt;Node10</title>
<g id="a_edge9_Node000002_Node000010"><a xlink:title=" ">
<path fill="none" stroke="#63b8ff" d="M945.5,-55.66C945.5,-45.24 945.5,-32.8 945.5,-24.67"/>
<polygon fill="#63b8ff" stroke="#63b8ff" points="942,-55.87 945.5,-65.87 949,-55.87 942,-55.87"/>
</a>
</g>
</g>
<!-- Node11 -->
<g id="Node000011" class="node">
<title>Node11</title>
<g id="a_Node000011"><a xlink:href="realpass_8cpp.html" target="_top" xlink:title=" ">
<polygon fill="white" stroke="#666666" points="1121,-24.5 1026,-24.5 1026,-5.5 1121,-5.5 1121,-24.5"/>
<text text-anchor="middle" x="1073.5" y="-12.5" font-family="Helvetica,sans-Serif" font-size="10.00">src/realpass.cpp</text>
</a>
</g>
</g>
<!-- Node2&#45;&gt;Node11 -->
<g id="edge10_Node000002_Node000011" class="edge">
<title>Node2&#45;&gt;Node11</title>
<g id="a_edge10_Node000002_Node000011"><a xlink:title=" ">
<path fill="none" stroke="#63b8ff" d="M973.33,-61.78C998.03,-50.49 1033.43,-34.31 1054.87,-24.52"/>
<polygon fill="#63b8ff" stroke="#63b8ff" points="971.75,-58.65 964.11,-65.99 974.66,-65.02 971.75,-58.65"/>
</a>
</g>
</g>
<!-- Node12 -->
<g id="Node000012" class="node">
<title>Node12</title>
<g id="a_Node000012"><a xlink:href="storemodel_8cpp.html" target="_top" xlink:title=" ">
<polygon fill="white" stroke="#666666" points="1249.5,-24.5 1139.5,-24.5 1139.5,-5.5 1249.5,-5.5 1249.5,-24.5"/>
<text text-anchor="middle" x="1194.5" y="-12.5" font-family="Helvetica,sans-Serif" font-size="10.00">src/storemodel.cpp</text>
</a>
</g>
</g>
<!-- Node2&#45;&gt;Node12 -->
<g id="edge11_Node000002_Node000012" class="edge">
<title>Node2&#45;&gt;Node12</title>
<g id="a_edge11_Node000002_Node000012"><a xlink:title=" ">
<path fill="none" stroke="#63b8ff" d="M991.55,-63.68C1039.67,-52.38 1114.16,-34.88 1158.25,-24.52"/>
<polygon fill="#63b8ff" stroke="#63b8ff" points="990.64,-60.3 981.71,-65.99 992.24,-67.11 990.64,-60.3"/>
</a>
</g>
</g>
<!-- Node13 -->
<g id="Node000013" class="node">
<title>Node13</title>
<g id="a_Node000013"><a xlink:href="usersdialog_8cpp.html" target="_top" xlink:title=" ">
<polygon fill="white" stroke="#666666" points="1377.5,-24.5 1267.5,-24.5 1267.5,-5.5 1377.5,-5.5 1377.5,-24.5"/>
<text text-anchor="middle" x="1322.5" y="-12.5" font-family="Helvetica,sans-Serif" font-size="10.00">src/usersdialog.cpp</text>
</a>
</g>
</g>
<!-- Node2&#45;&gt;Node13 -->
<g id="edge12_Node000002_Node000013" class="edge">
<title>Node2&#45;&gt;Node13</title>
<g id="a_edge12_Node000002_Node000013"><a xlink:title=" ">
<path fill="none" stroke="#63b8ff" d="M1012.69,-65.54C1090.15,-55.11 1212.68,-38.26 1258.5,-30 1267.34,-28.41 1276.82,-26.46 1285.7,-24.54"/>
<polygon fill="#63b8ff" stroke="#63b8ff" points="1011.99,-62.11 1002.54,-66.91 1012.92,-69.04 1011.99,-62.11"/>
</a>
</g>
</g>
<!-- Node14 -->
<g id="Node000014" class="node">
<title>Node14</title>
<g id="a_Node000014"><a xlink:href="util_8cpp.html" target="_top" xlink:title=" ">
<polygon fill="white" stroke="#666666" points="1465.5,-24.5 1395.5,-24.5 1395.5,-5.5 1465.5,-5.5 1465.5,-24.5"/>
<text text-anchor="middle" x="1430.5" y="-12.5" font-family="Helvetica,sans-Serif" font-size="10.00">src/util.cpp</text>
</a>
</g>
</g>
<!-- Node2&#45;&gt;Node14 -->
<g id="edge13_Node000002_Node000014" class="edge">
<title>Node2&#45;&gt;Node14</title>
<g id="a_edge13_Node000002_Node000014"><a xlink:title=" ">
<path fill="none" stroke="#63b8ff" d="M1012.84,-65.9C1179.67,-47.92 1225.67,-62.92 1386.5,-30 1393.1,-28.65 1400.1,-26.68 1406.54,-24.64"/>
<polygon fill="#63b8ff" stroke="#63b8ff" points="1012.28,-62.44 1002.72,-67.02 1013.05,-69.4 1012.28,-62.44"/>
</a>
</g>
</g>
<!-- Node15 -->
<g id="Node000015" class="node">
<title>Node15</title>
<g id="a_Node000015"><a xlink:href="tst__passwordconfig_8cpp.html" target="_top" xlink:title=" ">
<polygon fill="white" stroke="#666666" points="1627.5,-30 1483.5,-30 1483.5,0 1627.5,0 1627.5,-30"/>
<text text-anchor="start" x="1491.5" y="-18" font-family="Helvetica,sans-Serif" font-size="10.00">tests/auto/passwordconfig</text>
<text text-anchor="middle" x="1555.5" y="-7" font-family="Helvetica,sans-Serif" font-size="10.00">/tst_passwordconfig.cpp</text>
</a>
</g>
</g>
<!-- Node2&#45;&gt;Node15 -->
<g id="edge14_Node000002_Node000015" class="edge">
<title>Node2&#45;&gt;Node15</title>
<g id="a_edge14_Node000002_Node000015"><a xlink:title=" ">
<path fill="none" stroke="#63b8ff" d="M1012.94,-65.91C1218.55,-45.15 1273,-55.19 1474.5,-30 1477.33,-29.65 1480.22,-29.26 1483.13,-28.85"/>
<polygon fill="#63b8ff" stroke="#63b8ff" points="1012.31,-62.45 1002.72,-66.95 1013.02,-69.42 1012.31,-62.45"/>
</a>
</g>
</g>
<!-- Node16 -->
<g id="Node000016" class="node">
<title>Node16</title>
<g id="a_Node000016"><a xlink:href="tst__settings_8cpp.html" target="_top" xlink:title=" ">
<polygon fill="white" stroke="#666666" points="1753,-30 1646,-30 1646,0 1753,0 1753,-30"/>
<text text-anchor="start" x="1654" y="-18" font-family="Helvetica,sans-Serif" font-size="10.00">tests/auto/settings</text>
<text text-anchor="middle" x="1699.5" y="-7" font-family="Helvetica,sans-Serif" font-size="10.00">/tst_settings.cpp</text>
</a>
</g>
</g>
<!-- Node2&#45;&gt;Node16 -->
<g id="edge15_Node000002_Node000016" class="edge">
<title>Node2&#45;&gt;Node16</title>
<g id="a_edge15_Node000002_Node000016"><a xlink:title=" ">
<path fill="none" stroke="#63b8ff" d="M1012.67,-65.97C1290.26,-40.86 1364.14,-67.85 1636.5,-30 1639.61,-29.57 1642.79,-29.06 1645.99,-28.51"/>
<polygon fill="#63b8ff" stroke="#63b8ff" points="1012.35,-62.48 1002.71,-66.88 1012.99,-69.45 1012.35,-62.48"/>
</a>
</g>
</g>
<!-- Node17 -->
<g id="Node000017" class="node">
<title>Node17</title>
<g id="a_Node000017"><a xlink:href="tst__util_8cpp.html" target="_top" xlink:title=" ">
<polygon fill="white" stroke="#666666" points="1871.5,-30 1771.5,-30 1771.5,0 1871.5,0 1871.5,-30"/>
<text text-anchor="start" x="1779.5" y="-18" font-family="Helvetica,sans-Serif" font-size="10.00">tests/auto/util/tst</text>
<text text-anchor="middle" x="1821.5" y="-7" font-family="Helvetica,sans-Serif" font-size="10.00">_util.cpp</text>
</a>
</g>
</g>
<!-- Node2&#45;&gt;Node17 -->
<g id="edge16_Node000002_Node000017" class="edge">
<title>Node2&#45;&gt;Node17</title>
<g id="a_edge16_Node000002_Node000017"><a xlink:title=" ">
<path fill="none" stroke="#63b8ff" d="M1013.14,-65.94C1346.18,-37.45 1435.02,-76.3 1762.5,-30 1765.42,-29.59 1768.4,-29.1 1771.41,-28.55"/>
<polygon fill="#63b8ff" stroke="#63b8ff" points="1012.37,-62.49 1002.71,-66.85 1012.97,-69.47 1012.37,-62.49"/>
</a>
</g>
</g>
</g>
</svg>

<g id="navigator" transform="translate(0 0)" fill="#404254">
  <rect fill="#f2f5e9" fill-opacity="0.5" stroke="#606060" stroke-width=".5" x="0" y="0" width="60" height="60"/>
  <use id="zoomplus" xlink:href="#zoomPlus" x="17" y="9" onmousedown="handleZoom(evt,'in')"/>
  <use id="zoomminus" xlink:href="#zoomMin" x="42" y="9" onmousedown="handleZoom(evt,'out')"/>
  <use id="reset" xlink:href="#resetDef" x="30" y="36" onmousedown="handleReset()"/>
   <use id="arrowup" xlink:href="#arrowUp" x="0" y="0" onmousedown="handlePan(0,-1)"/>
  <use id="arrowright" xlink:href="#arrowRight" x="0" y="0" onmousedown="handlePan(1,0)"/>
  <use id="arrowdown" xlink:href="#arrowDown" x="0" y="0" onmousedown="handlePan(0,1)"/>
  <use id="arrowleft" xlink:href="#arrowLeft" x="0" y="0" onmousedown="handlePan(-1,0)"/>
</g>
<svg viewBox="0 0 15 15" width="100%" height="30px" preserveAspectRatio="xMaxYMin meet">
 <g id="arrow_out" transform="scale(0.3 0.3)">
  <a xlink:href="settingsconstants_8h__dep__incl_org.svg" target="_base">
   <rect id="button" ry="5" rx="5" y="6" x="6" height="38" width="38"
        fill="#f2f5e9" fill-opacity="0.5" stroke="#606060" stroke-width="1.0"/>
   <path id="arrow"
     d="M 11.500037,31.436501 C 11.940474,20.09759 22.043105,11.32322 32.158766,21.979434 L 37.068811,17.246167 C 37.068811,17.246167 37.088388,32 37.088388,32 L 22.160133,31.978069 C 22.160133,31.978069 26.997745,27.140456 26.997745,27.140456 C 18.528582,18.264221 13.291696,25.230495 11.500037,31.436501 z"
     style="fill:#404040;"/>
  </a>
 </g>
</svg>

<style type='text/css'>
<![CDATA[
[data-mouse-over-selected='false'] { opacity: 0.7; }
[data-mouse-over-selected='true']  { opacity: 1.0; }
]]>
</style>
<script type="application/ecmascript"><![CDATA[
document.addEventListener('DOMContentLoaded', (event) => {
  highlightEdges();
  highlightAdjacentNodes();
});
]]></script>
</svg>
