<?xml version="1.0" encoding="UTF-8" standalone="no"?>
<!DOCTYPE svg PUBLIC "-//W3C//DTD SVG 1.1//EN"
 "http://www.w3.org/Graphics/SVG/1.1/DTD/svg11.dtd">
<!-- Generated by graphviz version 2.40.1 (20161225.0304)
 -->
<!-- Title: src/settingsconstants.h Pages: 1 -->
<svg width="393pt" height="82pt"
 viewBox="0.00 0.00 392.88 82.00" xmlns="http://www.w3.org/2000/svg" xmlns:xlink="http://www.w3.org/1999/xlink">
<g id="graph0" class="graph" transform="scale(1 1) rotate(0) translate(4 78)">
<title>src/settingsconstants.h</title>
<!-- Node2 -->
<g id="node1" class="node">
<title>Node2</title>
<polygon fill="#bfbfbf" stroke="#000000" points="121.8867,-55.5 121.8867,-73.5 239.6006,-73.5 239.6006,-55.5 121.8867,-55.5"/>
<text text-anchor="middle" x="180.7437" y="-61.5" font-family="Helvetica,sans-Serif" font-size="10.00" fill="#000000">src/settingsconstants.h</text>
</g>
<!-- Node3 -->
<g id="node2" class="node">
<title>Node3</title>
<g id="a_node2"><a xlink:href="mainwindow_8cpp.html" target="_top" xlink:title="src/mainwindow.cpp">
<polygon fill="none" stroke="#000000" points="0,-.5 0,-18.5 105.4873,-18.5 105.4873,-.5 0,-.5"/>
<text text-anchor="middle" x="52.7437" y="-6.5" font-family="Helvetica,sans-Serif" font-size="10.00" fill="#000000">src/mainwindow.cpp</text>
</a>
</g>
</g>
<!-- Node2&#45;&gt;Node3 -->
<g id="edge1" class="edge">
<title>Node2&#45;&gt;Node3</title>
<path fill="none" stroke="#191970" d="M150.4036,-51.4633C126.84,-41.3383 94.7674,-27.5571 73.9117,-18.5956"/>
<polygon fill="#191970" stroke="#191970" points="149.0375,-54.6857 159.6071,-55.4179 151.8011,-48.2542 149.0375,-54.6857"/>
</g>
<!-- Node4 -->
<g id="node3" class="node">
<title>Node4</title>
<g id="a_node3"><a xlink:href="qtpasssettings_8cpp.html" target="_top" xlink:title="src/qtpasssettings.cpp">
<polygon fill="none" stroke="#000000" points="123.2759,-.5 123.2759,-18.5 238.2114,-18.5 238.2114,-.5 123.2759,-.5"/>
<text text-anchor="middle" x="180.7437" y="-6.5" font-family="Helvetica,sans-Serif" font-size="10.00" fill="#000000">src/qtpasssettings.cpp</text>
</a>
</g>
</g>
<!-- Node2&#45;&gt;Node4 -->
<g id="edge2" class="edge">
<title>Node2&#45;&gt;Node4</title>
<path fill="none" stroke="#191970" d="M180.7437,-45.383C180.7437,-36.3738 180.7437,-26.0373 180.7437,-18.7795"/>
<polygon fill="#191970" stroke="#191970" points="177.2438,-45.4178 180.7437,-55.4179 184.2438,-45.4179 177.2438,-45.4178"/>
</g>
<!-- Node5 -->
<g id="node4" class="node">
<title>Node5</title>
<g id="a_node4"><a xlink:href="settingsconstants_8cpp.html" target="_top" xlink:title="src/settingsconstants.cpp">
<polygon fill="none" stroke="#000000" points="256.606,-.5 256.606,-18.5 384.8813,-18.5 384.8813,-.5 256.606,-.5"/>
<text text-anchor="middle" x="320.7437" y="-6.5" font-family="Helvetica,sans-Serif" font-size="10.00" fill="#000000">src/settingsconstants.cpp</text>
</a>
</g>
</g>
<!-- Node2&#45;&gt;Node5 -->
<g id="edge3" class="edge">
<title>Node2&#45;&gt;Node5</title>
<path fill="none" stroke="#191970" d="M213.243,-51.7324C239.0762,-41.5837 274.5775,-27.6367 297.5912,-18.5956"/>
<polygon fill="#191970" stroke="#191970" points="211.8895,-48.5036 203.8618,-55.4179 214.4491,-55.0189 211.8895,-48.5036"/>
</g>
</g>
</svg>
