<?xml version="1.0" encoding="UTF-8" standalone="no"?>
<!DOCTYPE svg PUBLIC "-//W3C//DTD SVG 1.1//EN"
 "http://www.w3.org/Graphics/SVG/1.1/DTD/svg11.dtd">
<!-- Generated by graphviz version 2.40.1 (20161225.0304)
 -->
<!-- Title: src/settingsconstants.h Pages: 1 -->
<!--zoomable 137 -->
<svg id="main" version="1.1" xmlns="http://www.w3.org/2000/svg" xmlns:xlink="http://www.w3.org/1999/xlink" xml:space="preserve" onload="init(evt)">
<style type="text/css"><![CDATA[
.edge:hover path { stroke: red; }
.edge:hover polygon { stroke: red; fill: red; }
]]></style>
<script type="text/javascript"><![CDATA[
var edges = document.getElementsByTagName('g');
if (edges && edges.length) {
  for (var i=0;i<edges.length;i++) {
    if (edges[i].id.substr(0,4)=='edge') {
      edges[i].setAttribute('class','edge');
    }
  }
}
]]></script>
        <defs>
                <circle id="rim" cx="0" cy="0" r="7"/>
                <circle id="rim2" cx="0" cy="0" r="3.5"/>
                <g id="zoomPlus">
                        <use xlink:href="#rim" fill="#404040">
                                <set attributeName="fill" to="#808080" begin="zoomplus.mouseover" end="zoomplus.mouseout"/>
                        </use>
                        <path d="M-4,0h8M0,-4v8" fill="none" stroke="white" stroke-width="1.5" pointer-events="none"/>
                </g>
                <g id="zoomMin">
                        <use xlink:href="#rim" fill="#404040">
                                <set attributeName="fill" to="#808080" begin="zoomminus.mouseover" end="zoomminus.mouseout"/>
                        </use>
                        <path d="M-4,0h8" fill="none" stroke="white" stroke-width="1.5" pointer-events="none"/>
                </g>
                <g id="dirArrow">
                        <path fill="none" stroke="white" stroke-width="1.5" d="M0,-3.0v7 M-2.5,-0.5L0,-3.0L2.5,-0.5"/>
                </g>
               <g id="resetDef">
                       <use xlink:href="#rim2" fill="#404040">
                               <set attributeName="fill" to="#808080" begin="reset.mouseover" end="reset.mouseout"/>
                       </use>
               </g>
        </defs>

<script type="text/javascript">
var viewWidth = 1025;
var viewHeight = 137;
var sectionId = 'dynsection-1';
</script>
<script xlink:href="svgpan.js"/>
<svg id="graph" class="graph">
<g id="viewport">
<title>src/settingsconstants.h</title>
<!-- Node2 -->
<g id="node1" class="node">
<title>Node2</title>
<polygon fill="#bfbfbf" stroke="#000000" points="399.8867,-110.5 399.8867,-128.5 517.6006,-128.5 517.6006,-110.5 399.8867,-110.5"/>
<text text-anchor="middle" x="458.7437" y="-116.5" font-family="Helvetica,sans-Serif" font-size="10.00" fill="#000000">src/settingsconstants.h</text>
</g>
<!-- Node3 -->
<g id="node2" class="node">
<title>Node3</title>
<g id="a_node2"><a xlink:href="qtpasssettings_8h.html" target="_top" xlink:title="src/qtpasssettings.h">
<polygon fill="none" stroke="#000000" points="406.5566,-55.5 406.5566,-73.5 510.9307,-73.5 510.9307,-55.5 406.5566,-55.5"/>
<text text-anchor="middle" x="458.7437" y="-61.5" font-family="Helvetica,sans-Serif" font-size="10.00" fill="#000000">src/qtpasssettings.h</text>
</a>
</g>
</g>
<!-- Node2&#45;&gt;Node3 -->
<g id="edge1" class="edge">
<title>Node2&#45;&gt;Node3</title>
<path fill="none" stroke="#191970" d="M458.7437,-100.383C458.7437,-91.3738 458.7437,-81.0373 458.7437,-73.7795"/>
<polygon fill="#191970" stroke="#191970" points="455.2438,-100.4178 458.7437,-110.4179 462.2438,-100.4179 455.2438,-100.4178"/>
</g>
<!-- Node6 -->
<g id="node5" class="node">
<title>Node6</title>
<g id="a_node5"><a xlink:href="mainwindow_8cpp.html" target="_top" xlink:title="src/mainwindow.cpp">
<polygon fill="none" stroke="#000000" points="0,-.5 0,-18.5 105.4873,-18.5 105.4873,-.5 0,-.5"/>
<text text-anchor="middle" x="52.7437" y="-6.5" font-family="Helvetica,sans-Serif" font-size="10.00" fill="#000000">src/mainwindow.cpp</text>
</a>
</g>
</g>
<!-- Node2&#45;&gt;Node6 -->
<g id="edge11" class="edge">
<title>Node2&#45;&gt;Node6</title>
<path fill="none" stroke="#191970" d="M415.5969,-107.81C334.1578,-85.7452 159.4037,-38.398 86.1422,-18.5489"/>
<polygon fill="#191970" stroke="#191970" points="414.9516,-111.2613 425.519,-110.4982 416.7823,-104.5049 414.9516,-111.2613"/>
</g>
<!-- Node13 -->
<g id="node12" class="node">
<title>Node13</title>
<g id="a_node12"><a xlink:href="settingsconstants_8cpp.html" target="_top" xlink:title="src/settingsconstants.cpp">
<polygon fill="none" stroke="#000000" points="528.606,-55.5 528.606,-73.5 656.8813,-73.5 656.8813,-55.5 528.606,-55.5"/>
<text text-anchor="middle" x="592.7437" y="-61.5" font-family="Helvetica,sans-Serif" font-size="10.00" fill="#000000">src/settingsconstants.cpp</text>
</a>
</g>
</g>
<!-- Node2&#45;&gt;Node13 -->
<g id="edge12" class="edge">
<title>Node2&#45;&gt;Node13</title>
<path fill="none" stroke="#191970" d="M490.1775,-106.598C514.8754,-96.4609 548.653,-82.5969 570.5834,-73.5956"/>
<polygon fill="#191970" stroke="#191970" points="488.7931,-103.3829 480.871,-110.4179 491.4511,-109.8586 488.7931,-103.3829"/>
</g>
<!-- Node4 -->
<g id="node3" class="node">
<title>Node4</title>
<g id="a_node3"><a xlink:href="configdialog_8cpp.html" target="_top" xlink:title="src/configdialog.cpp">
<polygon fill="none" stroke="#000000" points="123.5518,-.5 123.5518,-18.5 227.9355,-18.5 227.9355,-.5 123.5518,-.5"/>
<text text-anchor="middle" x="175.7437" y="-6.5" font-family="Helvetica,sans-Serif" font-size="10.00" fill="#000000">src/configdialog.cpp</text>
</a>
</g>
</g>
<!-- Node3&#45;&gt;Node4 -->
<g id="edge2" class="edge">
<title>Node3&#45;&gt;Node4</title>
<path fill="none" stroke="#191970" d="M402.4436,-53.5583C349.6153,-43.2913 271.5441,-28.1185 222.1838,-18.5255"/>
<polygon fill="#191970" stroke="#191970" points="401.8448,-57.0073 412.3289,-55.4795 403.1803,-50.1359 401.8448,-57.0073"/>
</g>
<!-- Node5 -->
<g id="node4" class="node">
<title>Node5</title>
<g id="a_node4"><a xlink:href="imitatepass_8cpp.html" target="_top" xlink:title="src/imitatepass.cpp">
<polygon fill="none" stroke="#000000" points="245.9507,-.5 245.9507,-18.5 347.5366,-18.5 347.5366,-.5 245.9507,-.5"/>
<text text-anchor="middle" x="296.7437" y="-6.5" font-family="Helvetica,sans-Serif" font-size="10.00" fill="#000000">src/imitatepass.cpp</text>
</a>
</g>
</g>
<!-- Node3&#45;&gt;Node5 -->
<g id="edge3" class="edge">
<title>Node3&#45;&gt;Node5</title>
<path fill="none" stroke="#191970" d="M422.286,-52.1224C392.2047,-41.9096 350.2285,-27.6584 323.2651,-18.5042"/>
<polygon fill="#191970" stroke="#191970" points="421.3983,-55.5172 431.9926,-55.4179 423.6487,-48.8888 421.3983,-55.5172"/>
</g>
<!-- Node3&#45;&gt;Node6 -->
<g id="edge4" class="edge">
<title>Node3&#45;&gt;Node6</title>
<path fill="none" stroke="#191970" d="M396.2837,-56.6302C327.3158,-47.8492 213.0213,-33.0273 114.7437,-19 111.7252,-18.5692 108.6253,-18.1189 105.4979,-17.6587"/>
<polygon fill="#191970" stroke="#191970" points="396.1768,-60.1447 406.5384,-57.9338 397.0596,-53.2006 396.1768,-60.1447"/>
</g>
<!-- Node7 -->
<g id="node6" class="node">
<title>Node7</title>
<g id="a_node6"><a xlink:href="pass_8cpp.html" target="_top" xlink:title="src/pass.cpp">
<polygon fill="none" stroke="#000000" points="365.6772,-.5 365.6772,-18.5 437.8101,-18.5 437.8101,-.5 365.6772,-.5"/>
<text text-anchor="middle" x="401.7437" y="-6.5" font-family="Helvetica,sans-Serif" font-size="10.00" fill="#000000">src/pass.cpp</text>
</a>
</g>
</g>
<!-- Node3&#45;&gt;Node7 -->
<g id="edge5" class="edge">
<title>Node3&#45;&gt;Node7</title>
<path fill="none" stroke="#191970" d="M441.9537,-48.2992C431.9876,-38.6828 419.7089,-26.8349 411.3605,-18.7795"/>
<polygon fill="#191970" stroke="#191970" points="439.7047,-50.9928 449.3313,-55.4179 444.5653,-45.9555 439.7047,-50.9928"/>
</g>
<!-- Node8 -->
<g id="node7" class="node">
<title>Node8</title>
<g id="a_node7"><a xlink:href="passworddialog_8cpp.html" target="_top" xlink:title="src/passworddialog.cpp">
<polygon fill="none" stroke="#000000" points="455.4951,-.5 455.4951,-18.5 575.9922,-18.5 575.9922,-.5 455.4951,-.5"/>
<text text-anchor="middle" x="515.7437" y="-6.5" font-family="Helvetica,sans-Serif" font-size="10.00" fill="#000000">src/passworddialog.cpp</text>
</a>
</g>
</g>
<!-- Node3&#45;&gt;Node8 -->
<g id="edge6" class="edge">
<title>Node3&#45;&gt;Node8</title>
<path fill="none" stroke="#191970" d="M475.5336,-48.2992C485.4997,-38.6828 497.7784,-26.8349 506.1268,-18.7795"/>
<polygon fill="#191970" stroke="#191970" points="472.922,-45.9555 468.156,-55.4179 477.7826,-50.9928 472.922,-45.9555"/>
</g>
<!-- Node9 -->
<g id="node8" class="node">
<title>Node9</title>
<g id="a_node8"><a xlink:href="qtpasssettings_8cpp.html" target="_top" xlink:title="src/qtpasssettings.cpp">
<polygon fill="none" stroke="#000000" points="594.2759,-.5 594.2759,-18.5 709.2114,-18.5 709.2114,-.5 594.2759,-.5"/>
<text text-anchor="middle" x="651.7437" y="-6.5" font-family="Helvetica,sans-Serif" font-size="10.00" fill="#000000">src/qtpasssettings.cpp</text>
</a>
</g>
</g>
<!-- Node3&#45;&gt;Node9 -->
<g id="edge7" class="edge">
<title>Node3&#45;&gt;Node9</title>
<path fill="none" stroke="#191970" d="M500.321,-52.6515C536.2706,-42.4068 587.4653,-27.8177 620.1471,-18.5042"/>
<polygon fill="#191970" stroke="#191970" points="499.2716,-49.3112 490.6137,-55.4179 501.19,-56.0432 499.2716,-49.3112"/>
</g>
<!-- Node10 -->
<g id="node9" class="node">
<title>Node10</title>
<g id="a_node9"><a xlink:href="realpass_8cpp.html" target="_top" xlink:title="src/realpass.cpp">
<polygon fill="none" stroke="#000000" points="727.3398,-.5 727.3398,-18.5 816.1475,-18.5 816.1475,-.5 727.3398,-.5"/>
<text text-anchor="middle" x="771.7437" y="-6.5" font-family="Helvetica,sans-Serif" font-size="10.00" fill="#000000">src/realpass.cpp</text>
</a>
</g>
</g>
<!-- Node3&#45;&gt;Node10 -->
<g id="edge8" class="edge">
<title>Node3&#45;&gt;Node10</title>
<path fill="none" stroke="#191970" d="M520.4951,-53.6561C572.9689,-44.4404 650.2972,-30.8571 717.7437,-19 720.8375,-18.4561 724.031,-17.8946 727.247,-17.329"/>
<polygon fill="#191970" stroke="#191970" points="519.5858,-50.2622 510.342,-55.4392 520.7967,-57.1566 519.5858,-50.2622"/>
</g>
<!-- Node11 -->
<g id="node10" class="node">
<title>Node11</title>
<g id="a_node10"><a xlink:href="storemodel_8cpp.html" target="_top" xlink:title="src/storemodel.cpp">
<polygon fill="none" stroke="#000000" points="834.5049,-.5 834.5049,-18.5 934.9824,-18.5 934.9824,-.5 834.5049,-.5"/>
<text text-anchor="middle" x="884.7437" y="-6.5" font-family="Helvetica,sans-Serif" font-size="10.00" fill="#000000">src/storemodel.cpp</text>
</a>
</g>
</g>
<!-- Node3&#45;&gt;Node11 -->
<g id="edge9" class="edge">
<title>Node3&#45;&gt;Node11</title>
<path fill="none" stroke="#191970" d="M520.9166,-54.8824C656.6548,-36.5391 692.6999,-37.2389 824.7437,-19 827.8778,-18.5671 831.1014,-18.1052 834.3504,-17.627"/>
<polygon fill="#191970" stroke="#191970" points="520.405,-51.4197 510.9685,-56.2365 521.3492,-58.3557 520.405,-51.4197"/>
</g>
<!-- Node12 -->
<g id="node11" class="node">
<title>Node12</title>
<g id="a_node11"><a xlink:href="util_8cpp.html" target="_top" xlink:title="src/util.cpp">
<polygon fill="none" stroke="#000000" points="952.8472,-.5 952.8472,-18.5 1016.6401,-18.5 1016.6401,-.5 952.8472,-.5"/>
<text text-anchor="middle" x="984.7437" y="-6.5" font-family="Helvetica,sans-Serif" font-size="10.00" fill="#000000">src/util.cpp</text>
</a>
</g>
</g>
<!-- Node3&#45;&gt;Node12 -->
<g id="edge10" class="edge">
<title>Node3&#45;&gt;Node12</title>
<path fill="none" stroke="#191970" d="M520.904,-54.9434C709.244,-32.968 760.1162,-47.9174 943.7437,-19 946.6307,-18.5453 949.6166,-18.0008 952.5998,-17.4057"/>
<polygon fill="#191970" stroke="#191970" points="520.4721,-51.47 510.9539,-56.1236 521.2966,-58.4213 520.4721,-51.47"/>
</g>
</g>
</svg>
        <g id="navigator" transform="translate(0 0)" fill="#404254">
                <rect fill="#f2f5e9" fill-opacity="0.5" stroke="#606060" stroke-width=".5" x="0" y="0" width="60" height="60"/>
                <use id="zoomplus" xlink:href="#zoomPlus" x="17" y="9" onmousedown="handleZoom(evt,'in')"/>
                <use id="zoomminus" xlink:href="#zoomMin" x="42" y="9" onmousedown="handleZoom(evt,'out')"/>
                <use id="reset" xlink:href="#resetDef" x="30" y="36" onmousedown="handleReset()"/>
                <g id="arrowUp" xlink:href="#dirArrow" transform="translate(30 24)" onmousedown="handlePan(0,-1)">
                  <use xlink:href="#rim" fill="#404040">
                        <set attributeName="fill" to="#808080" begin="arrowUp.mouseover" end="arrowUp.mouseout"/>
                  </use>
                  <path fill="none" stroke="white" stroke-width="1.5" d="M0,-3.0v7 M-2.5,-0.5L0,-3.0L2.5,-0.5"/>
                </g>
                <g id="arrowRight" xlink:href="#dirArrow" transform="rotate(90) translate(36 -43)" onmousedown="handlePan(1,0)">
                  <use xlink:href="#rim" fill="#404040">
                        <set attributeName="fill" to="#808080" begin="arrowRight.mouseover" end="arrowRight.mouseout"/>
                  </use>
                  <path fill="none" stroke="white" stroke-width="1.5" d="M0,-3.0v7 M-2.5,-0.5L0,-3.0L2.5,-0.5"/>
                </g>
                <g id="arrowDown" xlink:href="#dirArrow" transform="rotate(180) translate(-30 -48)" onmousedown="handlePan(0,1)">
                  <use xlink:href="#rim" fill="#404040">
                        <set attributeName="fill" to="#808080" begin="arrowDown.mouseover" end="arrowDown.mouseout"/>
                  </use>
                  <path fill="none" stroke="white" stroke-width="1.5" d="M0,-3.0v7 M-2.5,-0.5L0,-3.0L2.5,-0.5"/>
                </g>
                <g id="arrowLeft" xlink:href="#dirArrow" transform="rotate(270) translate(-36 17)" onmousedown="handlePan(-1,0)">
                  <use xlink:href="#rim" fill="#404040">
                        <set attributeName="fill" to="#808080" begin="arrowLeft.mouseover" end="arrowLeft.mouseout"/>
                  </use>
                  <path fill="none" stroke="white" stroke-width="1.5" d="M0,-3.0v7 M-2.5,-0.5L0,-3.0L2.5,-0.5"/>
                </g>
        </g>
        <svg viewBox="0 0 15 15" width="100%" height="30px" preserveAspectRatio="xMaxYMin meet">
         <g id="arrow_out" transform="scale(0.3 0.3)">
          <a xlink:href="settingsconstants_8h__dep__incl_org.svg" target="_base">
           <rect id="button" ry="5" rx="5" y="6" x="6" height="38" width="38"
                fill="#f2f5e9" fill-opacity="0.5" stroke="#606060" stroke-width="1.0"/>
           <path id="arrow"
             d="M 11.500037,31.436501 C 11.940474,20.09759 22.043105,11.32322 32.158766,21.979434 L 37.068811,17.246167 C 37.068811,17.246167 37.088388,32 37.088388,32 L 22.160133,31.978069 C 22.160133,31.978069 26.997745,27.140456 26.997745,27.140456 C 18.528582,18.264221 13.291696,25.230495 11.500037,31.436501 z"
             style="fill:#404040;"/>
          </a>
         </g>
        </svg>
</svg>
