<?xml version="1.0" encoding="UTF-8" standalone="no"?>
<!DOCTYPE svg PUBLIC "-//W3C//DTD SVG 1.1//EN"
 "http://www.w3.org/Graphics/SVG/1.1/DTD/svg11.dtd">
<!-- Generated by graphviz version 2.42.3 (20191010.1750)
 -->
<!-- Title: src/simpletransaction.h Pages: 1 -->
<!--zoomable 192 -->
<svg id="main" version="1.1" xmlns="http://www.w3.org/2000/svg" xmlns:xlink="http://www.w3.org/1999/xlink" xml:space="preserve" onload="init(evt)">
<style type="text/css"><![CDATA[
.edge:hover path { stroke: red; }
.edge:hover polygon { stroke: red; fill: red; }
]]></style>
<script type="text/javascript"><![CDATA[
var edges = document.getElementsByTagName('g');
if (edges && edges.length) {
  for (var i=0;i<edges.length;i++) {
    if (edges[i].id.substr(0,4)=='edge') {
      edges[i].setAttribute('class','edge');
    }
  }
}
]]></script>
        <defs>
                <circle id="rim" cx="0" cy="0" r="7"/>
                <circle id="rim2" cx="0" cy="0" r="3.5"/>
                <g id="zoomPlus">
                        <use xlink:href="#rim" fill="#404040">
                                <set attributeName="fill" to="#808080" begin="zoomplus.mouseover" end="zoomplus.mouseout"/>
                        </use>
                        <path d="M-4,0h8M0,-4v8" fill="none" stroke="white" stroke-width="1.5" pointer-events="none"/>
                </g>
                <g id="zoomMin">
                        <use xlink:href="#rim" fill="#404040">
                                <set attributeName="fill" to="#808080" begin="zoomminus.mouseover" end="zoomminus.mouseout"/>
                        </use>
                        <path d="M-4,0h8" fill="none" stroke="white" stroke-width="1.5" pointer-events="none"/>
                </g>
                <g id="dirArrow">
                        <path fill="none" stroke="white" stroke-width="1.5" d="M0,-3.0v7 M-2.5,-0.5L0,-3.0L2.5,-0.5"/>
                </g>
               <g id="resetDef">
                       <use xlink:href="#rim2" fill="#404040">
                               <set attributeName="fill" to="#808080" begin="reset.mouseover" end="reset.mouseout"/>
                       </use>
               </g>
        </defs>

<script type="text/javascript">
var viewWidth = 1243;
var viewHeight = 192;
var sectionId = 'dynsection-1';
</script>
<script xlink:href="svgpan.js"/>
<svg id="graph" class="graph">
<g id="viewport">
<title>src/simpletransaction.h</title>
<!-- Node1 -->
<g id="node1" class="node">
<title>Node1</title>
<g id="a_node1"><a xlink:title=" ">
<polygon fill="#bfbfbf" stroke="black" points="347.66,-165.5 347.66,-183.5 465.92,-183.5 465.92,-165.5 347.66,-165.5"/>
<text text-anchor="middle" x="406.79" y="-171.5" font-family="Helvetica,sans-Serif" font-size="10.00">src/simpletransaction.h</text>
</a>
</g>
</g>
<!-- Node2 -->
<g id="node2" class="node">
<title>Node2</title>
<g id="a_node2"><a xlink:href="imitatepass_8h.html" target="_top" xlink:title=" ">
<polygon fill="none" stroke="black" points="297.28,-110.5 297.28,-128.5 388.31,-128.5 388.31,-110.5 297.28,-110.5"/>
<text text-anchor="middle" x="342.79" y="-116.5" font-family="Helvetica,sans-Serif" font-size="10.00">src/imitatepass.h</text>
</a>
</g>
</g>
<!-- Node1&#45;&gt;Node2 -->
<g id="edge1" class="edge">
<title>Node1&#45;&gt;Node2</title>
<path fill="none" stroke="midnightblue" d="M389.19,-158.93C377.4,-149.16 362.32,-136.67 352.6,-128.63"/>
<polygon fill="midnightblue" stroke="midnightblue" points="387.14,-161.77 397.07,-165.45 391.6,-156.38 387.14,-161.77"/>
</g>
<!-- Node15 -->
<g id="node15" class="node">
<title>Node15</title>
<g id="a_node15"><a xlink:href="simpletransaction_8cpp.html" target="_top" xlink:title=" ">
<polygon fill="none" stroke="black" points="406.38,-110.5 406.38,-128.5 535.2,-128.5 535.2,-110.5 406.38,-110.5"/>
<text text-anchor="middle" x="470.79" y="-116.5" font-family="Helvetica,sans-Serif" font-size="10.00">src/simpletransaction.cpp</text>
</a>
</g>
</g>
<!-- Node1&#45;&gt;Node15 -->
<g id="edge15" class="edge">
<title>Node1&#45;&gt;Node15</title>
<path fill="none" stroke="midnightblue" d="M424.39,-158.93C436.18,-149.16 451.27,-136.67 460.98,-128.63"/>
<polygon fill="midnightblue" stroke="midnightblue" points="421.98,-156.38 416.51,-165.45 426.45,-161.77 421.98,-156.38"/>
</g>
<!-- Node3 -->
<g id="node3" class="node">
<title>Node3</title>
<g id="a_node3"><a xlink:href="qtpasssettings_8h.html" target="_top" xlink:title=" ">
<polygon fill="none" stroke="black" points="522.61,-55.5 522.61,-73.5 626.98,-73.5 626.98,-55.5 522.61,-55.5"/>
<text text-anchor="middle" x="574.79" y="-61.5" font-family="Helvetica,sans-Serif" font-size="10.00">src/qtpasssettings.h</text>
</a>
</g>
</g>
<!-- Node2&#45;&gt;Node3 -->
<g id="edge2" class="edge">
<title>Node2&#45;&gt;Node3</title>
<path fill="none" stroke="midnightblue" d="M387.96,-108.18C432.32,-98.05 499.06,-82.8 539.61,-73.54"/>
<polygon fill="midnightblue" stroke="midnightblue" points="387,-104.81 378.03,-110.45 388.56,-111.64 387,-104.81"/>
</g>
<!-- Node5 -->
<g id="node5" class="node">
<title>Node5</title>
<g id="a_node5"><a xlink:href="imitatepass_8cpp.html" target="_top" xlink:title=" ">
<polygon fill="none" stroke="black" points="0,-0.5 0,-18.5 101.59,-18.5 101.59,-0.5 0,-0.5"/>
<text text-anchor="middle" x="50.79" y="-6.5" font-family="Helvetica,sans-Serif" font-size="10.00">src/imitatepass.cpp</text>
</a>
</g>
</g>
<!-- Node2&#45;&gt;Node5 -->
<g id="edge14" class="edge">
<title>Node2&#45;&gt;Node5</title>
<path fill="none" stroke="midnightblue" d="M311.21,-106.82C251.55,-84.75 123.73,-37.48 72.6,-18.56"/>
<polygon fill="midnightblue" stroke="midnightblue" points="310.25,-110.2 320.85,-110.38 312.68,-103.63 310.25,-110.2"/>
</g>
<!-- Node4 -->
<g id="node4" class="node">
<title>Node4</title>
<g id="a_node4"><a xlink:href="configdialog_8cpp.html" target="_top" xlink:title=" ">
<polygon fill="none" stroke="black" points="119.6,-0.5 119.6,-18.5 223.98,-18.5 223.98,-0.5 119.6,-0.5"/>
<text text-anchor="middle" x="171.79" y="-6.5" font-family="Helvetica,sans-Serif" font-size="10.00">src/configdialog.cpp</text>
</a>
</g>
</g>
<!-- Node3&#45;&gt;Node4 -->
<g id="edge3" class="edge">
<title>Node3&#45;&gt;Node4</title>
<path fill="none" stroke="midnightblue" d="M512.13,-55.52C443.53,-46.74 330.3,-32.14 232.79,-19 229.93,-18.61 227,-18.22 224.03,-17.81"/>
<polygon fill="midnightblue" stroke="midnightblue" points="511.97,-59.03 522.34,-56.82 512.86,-52.08 511.97,-59.03"/>
</g>
<!-- Node3&#45;&gt;Node5 -->
<g id="edge4" class="edge">
<title>Node3&#45;&gt;Node5</title>
<path fill="none" stroke="midnightblue" d="M512.31,-58.41C423.11,-50.94 254.18,-36.02 110.79,-19 107.87,-18.65 104.86,-18.28 101.84,-17.89"/>
<polygon fill="midnightblue" stroke="midnightblue" points="512.27,-61.92 522.52,-59.26 512.85,-54.94 512.27,-61.92"/>
</g>
<!-- Node6 -->
<g id="node6" class="node">
<title>Node6</title>
<g id="a_node6"><a xlink:href="mainwindow_8cpp.html" target="_top" xlink:title=" ">
<polygon fill="none" stroke="black" points="242.05,-0.5 242.05,-18.5 347.54,-18.5 347.54,-0.5 242.05,-0.5"/>
<text text-anchor="middle" x="294.79" y="-6.5" font-family="Helvetica,sans-Serif" font-size="10.00">src/mainwindow.cpp</text>
</a>
</g>
</g>
<!-- Node3&#45;&gt;Node6 -->
<g id="edge5" class="edge">
<title>Node3&#45;&gt;Node6</title>
<path fill="none" stroke="midnightblue" d="M522.29,-53.56C468.79,-43.43 386.82,-27.92 337.26,-18.54"/>
<polygon fill="midnightblue" stroke="midnightblue" points="521.79,-57.03 532.27,-55.45 523.09,-50.15 521.79,-57.03"/>
</g>
<!-- Node7 -->
<g id="node7" class="node">
<title>Node7</title>
<g id="a_node7"><a xlink:href="pass_8cpp.html" target="_top" xlink:title=" ">
<polygon fill="none" stroke="black" points="365.73,-0.5 365.73,-18.5 437.86,-18.5 437.86,-0.5 365.73,-0.5"/>
<text text-anchor="middle" x="401.79" y="-6.5" font-family="Helvetica,sans-Serif" font-size="10.00">src/pass.cpp</text>
</a>
</g>
</g>
<!-- Node3&#45;&gt;Node7 -->
<g id="edge6" class="edge">
<title>Node3&#45;&gt;Node7</title>
<path fill="none" stroke="midnightblue" d="M538.79,-52.47C505.74,-42.35 457.57,-27.59 428.03,-18.54"/>
<polygon fill="midnightblue" stroke="midnightblue" points="537.93,-55.87 548.52,-55.45 539.98,-49.17 537.93,-55.87"/>
</g>
<!-- Node8 -->
<g id="node8" class="node">
<title>Node8</title>
<g id="a_node8"><a xlink:href="passworddialog_8cpp.html" target="_top" xlink:title=" ">
<polygon fill="none" stroke="black" points="455.54,-0.5 455.54,-18.5 576.04,-18.5 576.04,-0.5 455.54,-0.5"/>
<text text-anchor="middle" x="515.79" y="-6.5" font-family="Helvetica,sans-Serif" font-size="10.00">src/passworddialog.cpp</text>
</a>
</g>
</g>
<!-- Node3&#45;&gt;Node8 -->
<g id="edge7" class="edge">
<title>Node3&#45;&gt;Node8</title>
<path fill="none" stroke="midnightblue" d="M558.25,-48.64C547.43,-38.92 533.71,-26.59 524.84,-18.63"/>
<polygon fill="midnightblue" stroke="midnightblue" points="556.05,-51.37 565.83,-55.45 560.73,-46.16 556.05,-51.37"/>
</g>
<!-- Node9 -->
<g id="node9" class="node">
<title>Node9</title>
<g id="a_node9"><a xlink:href="qtpass_8cpp.html" target="_top" xlink:title=" ">
<polygon fill="none" stroke="black" points="593.56,-0.5 593.56,-18.5 674.03,-18.5 674.03,-0.5 593.56,-0.5"/>
<text text-anchor="middle" x="633.79" y="-6.5" font-family="Helvetica,sans-Serif" font-size="10.00">src/qtpass.cpp</text>
</a>
</g>
</g>
<!-- Node3&#45;&gt;Node9 -->
<g id="edge8" class="edge">
<title>Node3&#45;&gt;Node9</title>
<path fill="none" stroke="midnightblue" d="M591.33,-48.64C602.16,-38.92 615.88,-26.59 624.75,-18.63"/>
<polygon fill="midnightblue" stroke="midnightblue" points="588.85,-46.16 583.75,-55.45 593.53,-51.37 588.85,-46.16"/>
</g>
<!-- Node10 -->
<g id="node10" class="node">
<title>Node10</title>
<g id="a_node10"><a xlink:href="qtpasssettings_8cpp.html" target="_top" xlink:title=" ">
<polygon fill="none" stroke="black" points="692.33,-0.5 692.33,-18.5 807.26,-18.5 807.26,-0.5 692.33,-0.5"/>
<text text-anchor="middle" x="749.79" y="-6.5" font-family="Helvetica,sans-Serif" font-size="10.00">src/qtpasssettings.cpp</text>
</a>
</g>
</g>
<!-- Node3&#45;&gt;Node10 -->
<g id="edge9" class="edge">
<title>Node3&#45;&gt;Node10</title>
<path fill="none" stroke="midnightblue" d="M611.22,-52.47C644.64,-42.35 693.37,-27.59 723.25,-18.54"/>
<polygon fill="midnightblue" stroke="midnightblue" points="609.93,-49.2 601.37,-55.45 611.96,-55.9 609.93,-49.2"/>
</g>
<!-- Node11 -->
<g id="node11" class="node">
<title>Node11</title>
<g id="a_node11"><a xlink:href="realpass_8cpp.html" target="_top" xlink:title=" ">
<polygon fill="none" stroke="black" points="825.39,-0.5 825.39,-18.5 914.2,-18.5 914.2,-0.5 825.39,-0.5"/>
<text text-anchor="middle" x="869.79" y="-6.5" font-family="Helvetica,sans-Serif" font-size="10.00">src/realpass.cpp</text>
</a>
</g>
</g>
<!-- Node3&#45;&gt;Node11 -->
<g id="edge10" class="edge">
<title>Node3&#45;&gt;Node11</title>
<path fill="none" stroke="midnightblue" d="M629.75,-53.63C686.12,-43.5 772.73,-27.94 825.05,-18.54"/>
<polygon fill="midnightblue" stroke="midnightblue" points="628.82,-50.24 619.6,-55.45 630.06,-57.13 628.82,-50.24"/>
</g>
<!-- Node12 -->
<g id="node12" class="node">
<title>Node12</title>
<g id="a_node12"><a xlink:href="storemodel_8cpp.html" target="_top" xlink:title=" ">
<polygon fill="none" stroke="black" points="932.55,-0.5 932.55,-18.5 1033.03,-18.5 1033.03,-0.5 932.55,-0.5"/>
<text text-anchor="middle" x="982.79" y="-6.5" font-family="Helvetica,sans-Serif" font-size="10.00">src/storemodel.cpp</text>
</a>
</g>
</g>
<!-- Node3&#45;&gt;Node12 -->
<g id="edge11" class="edge">
<title>Node3&#45;&gt;Node12</title>
<path fill="none" stroke="midnightblue" d="M636.93,-55.81C706.57,-47.14 822.83,-32.47 922.79,-19 925.92,-18.58 929.14,-18.14 932.39,-17.69"/>
<polygon fill="midnightblue" stroke="midnightblue" points="636.49,-52.34 627,-57.05 637.35,-59.29 636.49,-52.34"/>
</g>
<!-- Node13 -->
<g id="node13" class="node">
<title>Node13</title>
<g id="a_node13"><a xlink:href="usersdialog_8cpp.html" target="_top" xlink:title=" ">
<polygon fill="none" stroke="black" points="1050.72,-0.5 1050.72,-18.5 1152.87,-18.5 1152.87,-0.5 1050.72,-0.5"/>
<text text-anchor="middle" x="1101.79" y="-6.5" font-family="Helvetica,sans-Serif" font-size="10.00">src/usersdialog.cpp</text>
</a>
</g>
</g>
<!-- Node3&#45;&gt;Node13 -->
<g id="edge12" class="edge">
<title>Node3&#45;&gt;Node13</title>
<path fill="none" stroke="midnightblue" d="M637.05,-58.48C726.66,-51.05 897.14,-36.13 1041.79,-19 1044.61,-18.67 1047.51,-18.31 1050.43,-17.93"/>
<polygon fill="midnightblue" stroke="midnightblue" points="636.73,-54.99 627.05,-59.31 637.31,-61.97 636.73,-54.99"/>
</g>
<!-- Node14 -->
<g id="node14" class="node">
<title>Node14</title>
<g id="a_node14"><a xlink:href="util_8cpp.html" target="_top" xlink:title=" ">
<polygon fill="none" stroke="black" points="1170.9,-0.5 1170.9,-18.5 1234.69,-18.5 1234.69,-0.5 1170.9,-0.5"/>
<text text-anchor="middle" x="1202.79" y="-6.5" font-family="Helvetica,sans-Serif" font-size="10.00">src/util.cpp</text>
</a>
</g>
</g>
<!-- Node3&#45;&gt;Node14 -->
<g id="edge13" class="edge">
<title>Node3&#45;&gt;Node14</title>
<path fill="none" stroke="midnightblue" d="M637.29,-61.41C744.88,-57.21 971.84,-45.78 1161.79,-19 1164.67,-18.59 1167.65,-18.11 1170.63,-17.58"/>
<polygon fill="midnightblue" stroke="midnightblue" points="637.12,-57.91 627.26,-61.79 637.38,-64.9 637.12,-57.91"/>
</g>
</g>
</svg>
        <g id="navigator" transform="translate(0 0)" fill="#404254">
                <rect fill="#f2f5e9" fill-opacity="0.5" stroke="#606060" stroke-width=".5" x="0" y="0" width="60" height="60"/>
                <use id="zoomplus" xlink:href="#zoomPlus" x="17" y="9" onmousedown="handleZoom(evt,'in')"/>
                <use id="zoomminus" xlink:href="#zoomMin" x="42" y="9" onmousedown="handleZoom(evt,'out')"/>
                <use id="reset" xlink:href="#resetDef" x="30" y="36" onmousedown="handleReset()"/>
                <g id="arrowUp" xlink:href="#dirArrow" transform="translate(30 24)" onmousedown="handlePan(0,-1)">
                  <use xlink:href="#rim" fill="#404040">
                        <set attributeName="fill" to="#808080" begin="arrowUp.mouseover" end="arrowUp.mouseout"/>
                  </use>
                  <path fill="none" stroke="white" stroke-width="1.5" d="M0,-3.0v7 M-2.5,-0.5L0,-3.0L2.5,-0.5"/>
                </g>
                <g id="arrowRight" xlink:href="#dirArrow" transform="rotate(90) translate(36 -43)" onmousedown="handlePan(1,0)">
                  <use xlink:href="#rim" fill="#404040">
                        <set attributeName="fill" to="#808080" begin="arrowRight.mouseover" end="arrowRight.mouseout"/>
                  </use>
                  <path fill="none" stroke="white" stroke-width="1.5" d="M0,-3.0v7 M-2.5,-0.5L0,-3.0L2.5,-0.5"/>
                </g>
                <g id="arrowDown" xlink:href="#dirArrow" transform="rotate(180) translate(-30 -48)" onmousedown="handlePan(0,1)">
                  <use xlink:href="#rim" fill="#404040">
                        <set attributeName="fill" to="#808080" begin="arrowDown.mouseover" end="arrowDown.mouseout"/>
                  </use>
                  <path fill="none" stroke="white" stroke-width="1.5" d="M0,-3.0v7 M-2.5,-0.5L0,-3.0L2.5,-0.5"/>
                </g>
                <g id="arrowLeft" xlink:href="#dirArrow" transform="rotate(270) translate(-36 17)" onmousedown="handlePan(-1,0)">
                  <use xlink:href="#rim" fill="#404040">
                        <set attributeName="fill" to="#808080" begin="arrowLeft.mouseover" end="arrowLeft.mouseout"/>
                  </use>
                  <path fill="none" stroke="white" stroke-width="1.5" d="M0,-3.0v7 M-2.5,-0.5L0,-3.0L2.5,-0.5"/>
                </g>
        </g>
        <svg viewBox="0 0 15 15" width="100%" height="30px" preserveAspectRatio="xMaxYMin meet">
         <g id="arrow_out" transform="scale(0.3 0.3)">
          <a xlink:href="simpletransaction_8h__dep__incl_org.svg" target="_base">
           <rect id="button" ry="5" rx="5" y="6" x="6" height="38" width="38"
                fill="#f2f5e9" fill-opacity="0.5" stroke="#606060" stroke-width="1.0"/>
           <path id="arrow"
             d="M 11.500037,31.436501 C 11.940474,20.09759 22.043105,11.32322 32.158766,21.979434 L 37.068811,17.246167 C 37.068811,17.246167 37.088388,32 37.088388,32 L 22.160133,31.978069 C 22.160133,31.978069 26.997745,27.140456 26.997745,27.140456 C 18.528582,18.264221 13.291696,25.230495 11.500037,31.436501 z"
             style="fill:#404040;"/>
          </a>
         </g>
        </svg>
</svg>
