<?xml version="1.0" encoding="UTF-8" standalone="no"?>
<!DOCTYPE svg PUBLIC "-//W3C//DTD SVG 1.1//EN"
 "http://www.w3.org/Graphics/SVG/1.1/DTD/svg11.dtd">
<!-- Generated by graphviz version 2.40.1 (20161225.0304)
 -->
<!-- Title: src/simpletransaction.h Pages: 1 -->
<svg width="1119pt" height="422pt"
 viewBox="0.00 0.00 1118.79 422.00" xmlns="http://www.w3.org/2000/svg" xmlns:xlink="http://www.w3.org/1999/xlink">
<g id="graph0" class="graph" transform="scale(1 1) rotate(0) translate(4 418)">
<title>src/simpletransaction.h</title>
<!-- Node3 -->
<g id="node1" class="node">
<title>Node3</title>
<polygon fill="#bfbfbf" stroke="#000000" points="755.8696,-395.5 755.8696,-413.5 874.1304,-413.5 874.1304,-395.5 755.8696,-395.5"/>
<text text-anchor="middle" x="815" y="-401.5" font-family="Helvetica,sans-Serif" font-size="10.00" fill="#000000">src/simpletransaction.h</text>
</g>
<!-- Node4 -->
<g id="node2" class="node">
<title>Node4</title>
<g id="a_node2"><a xlink:href="imitatepass_8h.html" target="_top" xlink:title="src/imitatepass.h">
<polygon fill="none" stroke="#000000" points="705.4878,-340.5 705.4878,-358.5 796.5122,-358.5 796.5122,-340.5 705.4878,-340.5"/>
<text text-anchor="middle" x="751" y="-346.5" font-family="Helvetica,sans-Serif" font-size="10.00" fill="#000000">src/imitatepass.h</text>
</a>
</g>
</g>
<!-- Node3&#45;&gt;Node4 -->
<g id="edge1" class="edge">
<title>Node3&#45;&gt;Node4</title>
<path fill="none" stroke="#191970" d="M796.8098,-388.8678C785.5059,-379.1535 771.3572,-366.9944 761.7979,-358.7795"/>
<polygon fill="#191970" stroke="#191970" points="794.5663,-391.5546 804.4317,-395.4179 799.1287,-386.2457 794.5663,-391.5546"/>
</g>
<!-- Node24 -->
<g id="node22" class="node">
<title>Node24</title>
<g id="a_node22"><a xlink:href="simpletransaction_8cpp.html" target="_top" xlink:title="src/simpletransaction.cpp">
<polygon fill="none" stroke="#000000" points="814.5889,-340.5 814.5889,-358.5 943.4111,-358.5 943.4111,-340.5 814.5889,-340.5"/>
<text text-anchor="middle" x="879" y="-346.5" font-family="Helvetica,sans-Serif" font-size="10.00" fill="#000000">src/simpletransaction.cpp</text>
</a>
</g>
</g>
<!-- Node3&#45;&gt;Node24 -->
<g id="edge33" class="edge">
<title>Node3&#45;&gt;Node24</title>
<path fill="none" stroke="#191970" d="M833.1902,-388.8678C844.4941,-379.1535 858.6428,-366.9944 868.2021,-358.7795"/>
<polygon fill="#191970" stroke="#191970" points="830.8713,-386.2457 825.5683,-395.4179 835.4337,-391.5546 830.8713,-386.2457"/>
</g>
<!-- Node5 -->
<g id="node3" class="node">
<title>Node5</title>
<g id="a_node3"><a xlink:href="mainwindow_8h.html" target="_top" xlink:title="src/mainwindow.h">
<polygon fill="none" stroke="#000000" points="252.5371,-175.5 252.5371,-193.5 347.4629,-193.5 347.4629,-175.5 252.5371,-175.5"/>
<text text-anchor="middle" x="300" y="-181.5" font-family="Helvetica,sans-Serif" font-size="10.00" fill="#000000">src/mainwindow.h</text>
</a>
</g>
</g>
<!-- Node4&#45;&gt;Node5 -->
<g id="edge2" class="edge">
<title>Node4&#45;&gt;Node5</title>
<path fill="none" stroke="#191970" d="M695.4264,-338.8801C624.6942,-324.1853 499.7219,-294.2356 400,-249 365.7585,-233.4675 329.6609,-207.4199 311.6531,-193.659"/>
<polygon fill="#191970" stroke="#191970" points="694.96,-342.3572 705.4593,-340.9375 696.3663,-335.4999 694.96,-342.3572"/>
</g>
<!-- Node13 -->
<g id="node11" class="node">
<title>Node13</title>
<g id="a_node11"><a xlink:href="qtpasssettings_8h.html" target="_top" xlink:title="src/qtpasssettings.h">
<polygon fill="none" stroke="#000000" points="698.813,-285.5 698.813,-303.5 803.187,-303.5 803.187,-285.5 698.813,-285.5"/>
<text text-anchor="middle" x="751" y="-291.5" font-family="Helvetica,sans-Serif" font-size="10.00" fill="#000000">src/qtpasssettings.h</text>
</a>
</g>
</g>
<!-- Node4&#45;&gt;Node13 -->
<g id="edge14" class="edge">
<title>Node4&#45;&gt;Node13</title>
<path fill="none" stroke="#191970" d="M751,-330.383C751,-321.3738 751,-311.0373 751,-303.7795"/>
<polygon fill="#191970" stroke="#191970" points="747.5001,-330.4178 751,-340.4179 754.5001,-330.4179 747.5001,-330.4178"/>
</g>
<!-- Node20 -->
<g id="node18" class="node">
<title>Node20</title>
<g id="a_node18"><a xlink:href="imitatepass_8cpp.html" target="_top" xlink:title="src/imitatepass.cpp">
<polygon fill="none" stroke="#000000" points="1009.207,-230.5 1009.207,-248.5 1110.793,-248.5 1110.793,-230.5 1009.207,-230.5"/>
<text text-anchor="middle" x="1060" y="-236.5" font-family="Helvetica,sans-Serif" font-size="10.00" fill="#000000">src/imitatepass.cpp</text>
</a>
</g>
</g>
<!-- Node4&#45;&gt;Node20 -->
<g id="edge32" class="edge">
<title>Node4&#45;&gt;Node20</title>
<path fill="none" stroke="#191970" d="M785.7413,-337.1326C848.4216,-314.8192 979.0445,-268.3191 1034.3638,-248.6261"/>
<polygon fill="#191970" stroke="#191970" points="784.5338,-333.8472 776.2868,-340.4982 786.8815,-340.4418 784.5338,-333.8472"/>
</g>
<!-- Node6 -->
<g id="node4" class="node">
<title>Node6</title>
<g id="a_node4"><a xlink:href="main_8cpp.html" target="_top" xlink:title="main/main.cpp">
<polygon fill="none" stroke="#000000" points="66.4854,-115.5 66.4854,-133.5 147.5146,-133.5 147.5146,-115.5 66.4854,-115.5"/>
<text text-anchor="middle" x="107" y="-121.5" font-family="Helvetica,sans-Serif" font-size="10.00" fill="#000000">main/main.cpp</text>
</a>
</g>
</g>
<!-- Node5&#45;&gt;Node6 -->
<g id="edge3" class="edge">
<title>Node5&#45;&gt;Node6</title>
<path fill="none" stroke="#191970" d="M260.7496,-172.2978C223.7469,-160.7944 169.1544,-143.8226 135.956,-133.5019"/>
<polygon fill="#191970" stroke="#191970" points="260.0992,-175.7608 270.6875,-175.3873 262.1773,-169.0763 260.0992,-175.7608"/>
</g>
<!-- Node7 -->
<g id="node5" class="node">
<title>Node7</title>
<g id="a_node5"><a xlink:href="configdialog_8h.html" target="_top" xlink:title="src/configdialog.h">
<polygon fill="none" stroke="#000000" points="165.0889,-115.5 165.0889,-133.5 258.9111,-133.5 258.9111,-115.5 165.0889,-115.5"/>
<text text-anchor="middle" x="212" y="-121.5" font-family="Helvetica,sans-Serif" font-size="10.00" fill="#000000">src/configdialog.h</text>
</a>
</g>
</g>
<!-- Node5&#45;&gt;Node7 -->
<g id="edge4" class="edge">
<title>Node5&#45;&gt;Node7</title>
<path fill="none" stroke="#191970" d="M278.0757,-169.5516C261.4599,-158.2227 239.1754,-143.0287 225.2027,-133.5019"/>
<polygon fill="#191970" stroke="#191970" points="276.4007,-172.6457 286.6347,-175.3873 280.3441,-166.8621 276.4007,-172.6457"/>
</g>
<!-- Node8 -->
<g id="node6" class="node">
<title>Node8</title>
<g id="a_node6"><a xlink:href="configdialog_8cpp.html" target="_top" xlink:title="src/configdialog.cpp">
<polygon fill="none" stroke="#000000" points="10.8081,-.5 10.8081,-18.5 115.1919,-18.5 115.1919,-.5 10.8081,-.5"/>
<text text-anchor="middle" x="63" y="-6.5" font-family="Helvetica,sans-Serif" font-size="10.00" fill="#000000">src/configdialog.cpp</text>
</a>
</g>
</g>
<!-- Node5&#45;&gt;Node8 -->
<g id="edge11" class="edge">
<title>Node5&#45;&gt;Node8</title>
<path fill="none" stroke="#191970" d="M242.32,-181.9373C178.0483,-177.7299 80.0951,-166.8208 57,-139 27.5297,-103.4994 49.1054,-41.8133 58.8716,-18.6442"/>
<polygon fill="#191970" stroke="#191970" points="242.1323,-185.4323 252.3294,-182.5566 242.5646,-178.4457 242.1323,-185.4323"/>
</g>
<!-- Node11 -->
<g id="node9" class="node">
<title>Node11</title>
<g id="a_node9"><a xlink:href="mainwindow_8cpp.html" target="_top" xlink:title="src/mainwindow.cpp">
<polygon fill="none" stroke="#000000" points="386.2563,-.5 386.2563,-18.5 491.7437,-18.5 491.7437,-.5 386.2563,-.5"/>
<text text-anchor="middle" x="439" y="-6.5" font-family="Helvetica,sans-Serif" font-size="10.00" fill="#000000">src/mainwindow.cpp</text>
</a>
</g>
</g>
<!-- Node5&#45;&gt;Node11 -->
<g id="edge13" class="edge">
<title>Node5&#45;&gt;Node11</title>
<path fill="none" stroke="#191970" d="M344.8987,-172.6262C374.7281,-163.8125 410.1555,-151.248 420,-139 449.1832,-102.6916 443.8114,-41.4914 440.5129,-18.548"/>
<polygon fill="#191970" stroke="#191970" points="343.6826,-169.3341 335.0422,-175.4655 345.6203,-176.0605 343.6826,-169.3341"/>
</g>
<!-- Node12 -->
<g id="node10" class="node">
<title>Node12</title>
<g id="a_node10"><a xlink:href="deselectabletreeview_8h.html" target="_top" xlink:title="src/deselectabletreeview.h">
<polygon fill="none" stroke="#000000" points="277.355,-115.5 277.355,-133.5 410.645,-133.5 410.645,-115.5 277.355,-115.5"/>
<text text-anchor="middle" x="344" y="-121.5" font-family="Helvetica,sans-Serif" font-size="10.00" fill="#000000">src/deselectabletreeview.h</text>
</a>
</g>
</g>
<!-- Node5&#45;&gt;Node12 -->
<g id="edge12" class="edge">
<title>Node5&#45;&gt;Node12</title>
<path fill="none" stroke="#191970" d="M312.8131,-167.0276C320.806,-156.1282 330.7709,-142.5397 337.2545,-133.6985"/>
<polygon fill="#191970" stroke="#191970" points="309.7739,-165.2534 306.6827,-175.3873 315.4188,-169.393 309.7739,-165.2534"/>
</g>
<!-- Node7&#45;&gt;Node8 -->
<g id="edge5" class="edge">
<title>Node7&#45;&gt;Node8</title>
<path fill="none" stroke="#191970" d="M192.2904,-109.2879C160.9581,-85.1053 100.7121,-38.6067 75.0513,-18.8014"/>
<polygon fill="#191970" stroke="#191970" points="190.2534,-112.1369 200.3082,-115.4761 194.5303,-106.5954 190.2534,-112.1369"/>
</g>
<!-- Node9 -->
<g id="node7" class="node">
<title>Node9</title>
<g id="a_node7"><a xlink:href="keygendialog_8h.html" target="_top" xlink:title="src/keygendialog.h">
<polygon fill="none" stroke="#000000" points="162.3081,-55.5 162.3081,-73.5 261.6919,-73.5 261.6919,-55.5 162.3081,-55.5"/>
<text text-anchor="middle" x="212" y="-61.5" font-family="Helvetica,sans-Serif" font-size="10.00" fill="#000000">src/keygendialog.h</text>
</a>
</g>
</g>
<!-- Node7&#45;&gt;Node9 -->
<g id="edge6" class="edge">
<title>Node7&#45;&gt;Node9</title>
<path fill="none" stroke="#191970" d="M212,-105.3734C212,-94.7812 212,-82.0976 212,-73.6985"/>
<polygon fill="#191970" stroke="#191970" points="208.5001,-105.3873 212,-115.3873 215.5001,-105.3873 208.5001,-105.3873"/>
</g>
<!-- Node7&#45;&gt;Node11 -->
<g id="edge10" class="edge">
<title>Node7&#45;&gt;Node11</title>
<path fill="none" stroke="#191970" d="M238.7596,-110.9434C285.5741,-87.2268 381.138,-38.8134 420.9563,-18.6411"/>
<polygon fill="#191970" stroke="#191970" points="237.1511,-107.8347 229.8123,-115.4761 240.3146,-114.0791 237.1511,-107.8347"/>
</g>
<!-- Node9&#45;&gt;Node8 -->
<g id="edge7" class="edge">
<title>Node9&#45;&gt;Node8</title>
<path fill="none" stroke="#191970" d="M177.7741,-51.8663C150.2507,-41.7066 112.2419,-27.6765 87.6409,-18.5956"/>
<polygon fill="#191970" stroke="#191970" points="176.8024,-55.2384 187.3957,-55.4179 179.2264,-48.6715 176.8024,-55.2384"/>
</g>
<!-- Node10 -->
<g id="node8" class="node">
<title>Node10</title>
<g id="a_node8"><a xlink:href="keygendialog_8cpp.html" target="_top" xlink:title="src/keygendialog.cpp">
<polygon fill="none" stroke="#000000" points="157.0273,-.5 157.0273,-18.5 266.9727,-18.5 266.9727,-.5 157.0273,-.5"/>
<text text-anchor="middle" x="212" y="-6.5" font-family="Helvetica,sans-Serif" font-size="10.00" fill="#000000">src/keygendialog.cpp</text>
</a>
</g>
</g>
<!-- Node9&#45;&gt;Node10 -->
<g id="edge8" class="edge">
<title>Node9&#45;&gt;Node10</title>
<path fill="none" stroke="#191970" d="M212,-45.383C212,-36.3738 212,-26.0373 212,-18.7795"/>
<polygon fill="#191970" stroke="#191970" points="208.5001,-45.4178 212,-55.4179 215.5001,-45.4179 208.5001,-45.4178"/>
</g>
<!-- Node9&#45;&gt;Node11 -->
<g id="edge9" class="edge">
<title>Node9&#45;&gt;Node11</title>
<path fill="none" stroke="#191970" d="M259.0221,-53.107C301.3519,-42.8509 362.7327,-27.9789 401.7494,-18.5255"/>
<polygon fill="#191970" stroke="#191970" points="258.1248,-49.723 249.2302,-55.4795 259.7732,-56.5262 258.1248,-49.723"/>
</g>
<!-- Node13&#45;&gt;Node8 -->
<g id="edge24" class="edge">
<title>Node13&#45;&gt;Node8</title>
<path fill="none" stroke="#191970" d="M688.6742,-291.9015C508.5414,-283.5687 0,-253.8985 0,-184.5 0,-184.5 0,-184.5 0,-124.5 0,-80.3361 36.1796,-37.0659 53.7041,-18.6974"/>
<polygon fill="#191970" stroke="#191970" points="688.6383,-295.4034 698.7874,-292.3628 688.9573,-288.4107 688.6383,-295.4034"/>
</g>
<!-- Node13&#45;&gt;Node11 -->
<g id="edge26" class="edge">
<title>Node13&#45;&gt;Node11</title>
<path fill="none" stroke="#191970" d="M813.4442,-284.9738C860.9907,-276.7491 921.6273,-263.8669 942,-249 969.0604,-229.2527 981,-217.9996 981,-184.5 981,-184.5 981,-184.5 981,-124.5 981,-74.8409 628.3373,-30.4689 491.9561,-15.1661"/>
<polygon fill="#191970" stroke="#191970" points="812.7903,-281.5346 803.5162,-286.6572 813.9606,-288.4361 812.7903,-281.5346"/>
</g>
<!-- Node14 -->
<g id="node12" class="node">
<title>Node14</title>
<g id="a_node12"><a xlink:href="storemodel_8h.html" target="_top" xlink:title="src/storemodel.h">
<polygon fill="none" stroke="#000000" points="409.042,-230.5 409.042,-248.5 498.958,-248.5 498.958,-230.5 409.042,-230.5"/>
<text text-anchor="middle" x="454" y="-236.5" font-family="Helvetica,sans-Serif" font-size="10.00" fill="#000000">src/storemodel.h</text>
</a>
</g>
</g>
<!-- Node13&#45;&gt;Node14 -->
<g id="edge15" class="edge">
<title>Node13&#45;&gt;Node14</title>
<path fill="none" stroke="#191970" d="M692.3962,-283.6474C635.7185,-273.1516 551.028,-257.4682 499.3263,-247.8938"/>
<polygon fill="#191970" stroke="#191970" points="691.8189,-287.1 702.2891,-285.4795 693.0936,-280.217 691.8189,-287.1"/>
</g>
<!-- Node16 -->
<g id="node14" class="node">
<title>Node16</title>
<g id="a_node14"><a xlink:href="pass_8cpp.html" target="_top" xlink:title="src/pass.cpp">
<polygon fill="none" stroke="#000000" points="610.9336,-115.5 610.9336,-133.5 683.0664,-133.5 683.0664,-115.5 610.9336,-115.5"/>
<text text-anchor="middle" x="647" y="-121.5" font-family="Helvetica,sans-Serif" font-size="10.00" fill="#000000">src/pass.cpp</text>
</a>
</g>
</g>
<!-- Node13&#45;&gt;Node16 -->
<g id="edge27" class="edge">
<title>Node13&#45;&gt;Node16</title>
<path fill="none" stroke="#191970" d="M688.2298,-289.0777C634.6802,-282.9969 563.6295,-270.9714 546,-249 511.1631,-205.5832 592.4044,-154.0164 629.6144,-133.5335"/>
<polygon fill="#191970" stroke="#191970" points="688.026,-292.5762 698.3464,-290.1805 688.7846,-285.6174 688.026,-292.5762"/>
</g>
<!-- Node17 -->
<g id="node15" class="node">
<title>Node17</title>
<g id="a_node15"><a xlink:href="util_8cpp.html" target="_top" xlink:title="src/util.cpp">
<polygon fill="none" stroke="#000000" points="814.1035,-115.5 814.1035,-133.5 877.8965,-133.5 877.8965,-115.5 814.1035,-115.5"/>
<text text-anchor="middle" x="846" y="-121.5" font-family="Helvetica,sans-Serif" font-size="10.00" fill="#000000">src/util.cpp</text>
</a>
</g>
</g>
<!-- Node13&#45;&gt;Node17 -->
<g id="edge31" class="edge">
<title>Node13&#45;&gt;Node17</title>
<path fill="none" stroke="#191970" d="M813.2863,-286.2016C857.1217,-278.9356 910.322,-266.7405 924,-249 955.3035,-208.3989 889.366,-154.8037 859.5886,-133.6485"/>
<polygon fill="#191970" stroke="#191970" points="812.5574,-282.7736 803.2363,-287.8101 813.6637,-289.6856 812.5574,-282.7736"/>
</g>
<!-- Node13&#45;&gt;Node20 -->
<g id="edge25" class="edge">
<title>Node13&#45;&gt;Node20</title>
<path fill="none" stroke="#191970" d="M811.7544,-283.6861C869.4449,-273.4176 955.174,-258.1584 1009.2933,-248.5255"/>
<polygon fill="#191970" stroke="#191970" points="810.9109,-280.2811 801.6791,-285.4795 812.1377,-287.1728 810.9109,-280.2811"/>
</g>
<!-- Node21 -->
<g id="node19" class="node">
<title>Node21</title>
<g id="a_node19"><a xlink:href="passworddialog_8cpp.html" target="_top" xlink:title="src/passworddialog.cpp">
<polygon fill="none" stroke="#000000" points="554.7515,-230.5 554.7515,-248.5 675.2485,-248.5 675.2485,-230.5 554.7515,-230.5"/>
<text text-anchor="middle" x="615" y="-236.5" font-family="Helvetica,sans-Serif" font-size="10.00" fill="#000000">src/passworddialog.cpp</text>
</a>
</g>
</g>
<!-- Node13&#45;&gt;Node21 -->
<g id="edge28" class="edge">
<title>Node13&#45;&gt;Node21</title>
<path fill="none" stroke="#191970" d="M719.097,-281.598C694.0305,-271.4609 659.7487,-257.5969 637.491,-248.5956"/>
<polygon fill="#191970" stroke="#191970" points="717.9595,-284.9134 728.5424,-285.4179 720.584,-278.424 717.9595,-284.9134"/>
</g>
<!-- Node22 -->
<g id="node20" class="node">
<title>Node22</title>
<g id="a_node20"><a xlink:href="qtpasssettings_8cpp.html" target="_top" xlink:title="src/qtpasssettings.cpp">
<polygon fill="none" stroke="#000000" points="693.5322,-230.5 693.5322,-248.5 808.4678,-248.5 808.4678,-230.5 693.5322,-230.5"/>
<text text-anchor="middle" x="751" y="-236.5" font-family="Helvetica,sans-Serif" font-size="10.00" fill="#000000">src/qtpasssettings.cpp</text>
</a>
</g>
</g>
<!-- Node13&#45;&gt;Node22 -->
<g id="edge29" class="edge">
<title>Node13&#45;&gt;Node22</title>
<path fill="none" stroke="#191970" d="M751,-275.383C751,-266.3738 751,-256.0373 751,-248.7795"/>
<polygon fill="#191970" stroke="#191970" points="747.5001,-275.4178 751,-285.4179 754.5001,-275.4179 747.5001,-275.4178"/>
</g>
<!-- Node23 -->
<g id="node21" class="node">
<title>Node23</title>
<g id="a_node21"><a xlink:href="realpass_8cpp.html" target="_top" xlink:title="src/realpass.cpp">
<polygon fill="none" stroke="#000000" points="826.5962,-230.5 826.5962,-248.5 915.4038,-248.5 915.4038,-230.5 826.5962,-230.5"/>
<text text-anchor="middle" x="871" y="-236.5" font-family="Helvetica,sans-Serif" font-size="10.00" fill="#000000">src/realpass.cpp</text>
</a>
</g>
</g>
<!-- Node13&#45;&gt;Node23 -->
<g id="edge30" class="edge">
<title>Node13&#45;&gt;Node23</title>
<path fill="none" stroke="#191970" d="M780.0348,-281.1924C802.0684,-271.0937 831.7766,-257.4774 851.155,-248.5956"/>
<polygon fill="#191970" stroke="#191970" points="778.4479,-278.0695 770.8156,-285.4179 781.3645,-284.433 778.4479,-278.0695"/>
</g>
<!-- Node14&#45;&gt;Node5 -->
<g id="edge16" class="edge">
<title>Node14&#45;&gt;Node5</title>
<path fill="none" stroke="#191970" d="M418.9691,-226.989C390.4002,-216.7858 350.7322,-202.6186 325.2118,-193.5042"/>
<polygon fill="#191970" stroke="#191970" points="417.9754,-230.3505 428.57,-230.4179 420.3298,-223.7583 417.9754,-230.3505"/>
</g>
<!-- Node15 -->
<g id="node13" class="node">
<title>Node15</title>
<g id="a_node13"><a xlink:href="util_8h.html" target="_top" xlink:title="src/util.h">
<polygon fill="none" stroke="#000000" points="484.3843,-175.5 484.3843,-193.5 537.6157,-193.5 537.6157,-175.5 484.3843,-175.5"/>
<text text-anchor="middle" x="511" y="-181.5" font-family="Helvetica,sans-Serif" font-size="10.00" fill="#000000">src/util.h</text>
</a>
</g>
</g>
<!-- Node14&#45;&gt;Node15 -->
<g id="edge17" class="edge">
<title>Node14&#45;&gt;Node15</title>
<path fill="none" stroke="#191970" d="M465.1134,-222.7253C474.0774,-213.215 486.3915,-201.6754 496.1763,-193.7795"/>
<polygon fill="#191970" stroke="#191970" points="462.2947,-220.6271 458.2461,-230.4179 467.5167,-225.2888 462.2947,-220.6271"/>
</g>
<!-- Node19 -->
<g id="node17" class="node">
<title>Node19</title>
<g id="a_node17"><a xlink:href="storemodel_8cpp.html" target="_top" xlink:title="src/storemodel.cpp">
<polygon fill="none" stroke="#000000" points="365.7612,-175.5 365.7612,-193.5 466.2388,-193.5 466.2388,-175.5 365.7612,-175.5"/>
<text text-anchor="middle" x="416" y="-181.5" font-family="Helvetica,sans-Serif" font-size="10.00" fill="#000000">src/storemodel.cpp</text>
</a>
</g>
</g>
<!-- Node14&#45;&gt;Node19 -->
<g id="edge23" class="edge">
<title>Node14&#45;&gt;Node19</title>
<path fill="none" stroke="#191970" d="M442.0103,-222.1465C435.5184,-212.7503 427.7564,-201.5159 422.4113,-193.7795"/>
<polygon fill="#191970" stroke="#191970" points="439.1611,-224.1801 447.7251,-230.4179 444.9203,-220.201 439.1611,-224.1801"/>
</g>
<!-- Node15&#45;&gt;Node11 -->
<g id="edge19" class="edge">
<title>Node15&#45;&gt;Node11</title>
<path fill="none" stroke="#191970" d="M536.1677,-169.8697C546.851,-162.1783 558.1672,-151.6948 564,-139 569.3812,-127.2882 569.5692,-121.6236 564,-110 542.2223,-64.5472 488.753,-33.1282 459.2925,-18.6199"/>
<polygon fill="#191970" stroke="#191970" points="534.2208,-166.9612 527.8526,-175.4285 538.1112,-172.7806 534.2208,-166.9612"/>
</g>
<!-- Node15&#45;&gt;Node14 -->
<g id="edge18" class="edge">
<title>Node15&#45;&gt;Node14</title>
<path fill="none" stroke="#191970" d="M499.6611,-201.5137C490.6414,-211.0575 478.3209,-222.5833 468.5787,-230.4179"/>
<polygon fill="#191970" stroke="#191970" points="502.5241,-203.5631 506.5899,-193.7795 497.3103,-198.8923 502.5241,-203.5631"/>
</g>
<!-- Node15&#45;&gt;Node16 -->
<g id="edge20" class="edge">
<title>Node15&#45;&gt;Node16</title>
<path fill="none" stroke="#191970" d="M541.0309,-171.2511C567.0209,-159.7849 603.9019,-143.5139 626.5958,-133.5019"/>
<polygon fill="#191970" stroke="#191970" points="539.3919,-168.1486 531.6555,-175.3873 542.2174,-174.553 539.3919,-168.1486"/>
</g>
<!-- Node15&#45;&gt;Node17 -->
<g id="edge21" class="edge">
<title>Node15&#45;&gt;Node17</title>
<path fill="none" stroke="#191970" d="M547.8149,-177.9063C613.8822,-166.0733 751.4878,-141.4276 813.9387,-130.2423"/>
<polygon fill="#191970" stroke="#191970" points="547.0745,-174.4831 537.8482,-179.6914 548.3086,-181.3735 547.0745,-174.4831"/>
</g>
<!-- Node18 -->
<g id="node16" class="node">
<title>Node18</title>
<g id="a_node16"><a xlink:href="tst__util_8cpp.html" target="_top" xlink:title="tests/auto/util/tst\l_util.cpp">
<polygon fill="none" stroke="#000000" points="466.8721,-110.5 466.8721,-138.5 555.1279,-138.5 555.1279,-110.5 466.8721,-110.5"/>
<text text-anchor="start" x="474.8721" y="-126.5" font-family="Helvetica,sans-Serif" font-size="10.00" fill="#000000">tests/auto/util/tst</text>
<text text-anchor="middle" x="511" y="-116.5" font-family="Helvetica,sans-Serif" font-size="10.00" fill="#000000">_util.cpp</text>
</a>
</g>
</g>
<!-- Node15&#45;&gt;Node18 -->
<g id="edge22" class="edge">
<title>Node15&#45;&gt;Node18</title>
<path fill="none" stroke="#191970" d="M511,-165.1865C511,-156.6283 511,-146.7354 511,-138.8477"/>
<polygon fill="#191970" stroke="#191970" points="507.5001,-165.3873 511,-175.3873 514.5001,-165.3873 507.5001,-165.3873"/>
</g>
</g>
</svg>
