<?xml version="1.0" encoding="UTF-8" standalone="no"?>
<!DOCTYPE svg PUBLIC "-//W3C//DTD SVG 1.1//EN"
 "http://www.w3.org/Graphics/SVG/1.1/DTD/svg11.dtd">
<!-- Generated by graphviz version 2.43.0 (0)
 -->
<!-- Title: src/simpletransaction.h Pages: 1 -->
<!--zoomable 214 -->

<svg id="main" version="1.1" xmlns="http://www.w3.org/2000/svg" xmlns:xlink="http://www.w3.org/1999/xlink" xml:space="preserve" onload="init(evt)">
<style type="text/css"><![CDATA[
.node, .edge {opacity: 0.7;}
.node.selected, .edge.selected {opacity: 1;}
.edge:hover path { stroke: red; }
.edge:hover polygon { stroke: red; fill: red; }
]]></style>

<defs>
  <circle id="rim" cx="0" cy="0" r="7"/>
  <circle id="rim2" cx="0" cy="0" r="3.5"/>
  <g id="zoomPlus">
    <use xlink:href="#rim" fill="#404040"><set attributeName="fill" to="#808080" begin="zoomplus.mouseover" end="zoomplus.mouseout"/></use>
    <path d="M-4,0h8M0,-4v8" fill="none" stroke="white" stroke-width="1.5" pointer-events="none"/>
  </g>
  <g id="zoomMin">
    <use xlink:href="#rim" fill="#404040"><set attributeName="fill" to="#808080" begin="zoomminus.mouseover" end="zoomminus.mouseout"/></use>
    <path d="M-4,0h8" fill="none" stroke="white" stroke-width="1.5" pointer-events="none"/>
  </g>
  <g id="arrowUp" transform="translate(30 24)">
    <use xlink:href="#rim"/>
    <path pointer-events="none" fill="none" stroke="white" stroke-width="1.5" d="M0,-3.0v7 M-2.5,-0.5L0,-3.0L2.5,-0.5"/>
  </g>
  <g id="arrowRight" transform="rotate(90) translate(36 -43)">
    <use xlink:href="#rim"/>
    <path pointer-events="none" fill="none" stroke="white" stroke-width="1.5" d="M0,-3.0v7 M-2.5,-0.5L0,-3.0L2.5,-0.5"/>
  </g>
  <g id="arrowDown" transform="rotate(180) translate(-30 -48)">
    <use xlink:href="#rim"/>
    <path pointer-events="none" fill="none" stroke="white" stroke-width="1.5" d="M0,-3.0v7 M-2.5,-0.5L0,-3.0L2.5,-0.5"/>
  </g>
  <g id="arrowLeft" transform="rotate(270) translate(-36 17)">
    <use xlink:href="#rim"/>
    <path pointer-events="none" fill="none" stroke="white" stroke-width="1.5" d="M0,-3.0v7 M-2.5,-0.5L0,-3.0L2.5,-0.5"/>
  </g>
  <g id="resetDef">
    <use xlink:href="#rim2" fill="#404040"><set attributeName="fill" to="#808080" begin="reset.mouseover" end="reset.mouseout"/></use>
  </g>
</defs>
<script type="application/ecmascript">
var viewWidth = 2007;
var viewHeight = 214;
var sectionId = 'dynsection-1';
</script>
<script type="application/ecmascript" xlink:href="svg.min.js"/>
<svg id="graph" class="graph">
<g id="viewport">
<title>src/simpletransaction.h</title>
<!-- Node1 -->
<g id="Node000001" class="node">
<title>Node1</title>
<g id="a_Node000001"><a xlink:title=" ">
<polygon fill="#999999" stroke="#666666" points="1717.5,-206 1586.5,-206 1586.5,-187 1717.5,-187 1717.5,-206"/>
<text text-anchor="middle" x="1652" y="-194" font-family="Helvetica,sans-Serif" font-size="10.00">src/simpletransaction.h</text>
</a>
</g>
</g>
<!-- Node2 -->
<g id="Node000002" class="node">
<title>Node2</title>
<g id="a_Node000002"><a xlink:href="imitatepass_8h.html" target="_top" xlink:title=" ">
<polygon fill="white" stroke="#666666" points="1552.5,-145.5 1451.5,-145.5 1451.5,-126.5 1552.5,-126.5 1552.5,-145.5"/>
<text text-anchor="middle" x="1502" y="-133.5" font-family="Helvetica,sans-Serif" font-size="10.00">src/imitatepass.h</text>
</a>
</g>
</g>
<!-- Node1&#45;&gt;Node2 -->
<g id="edge1_Node000001_Node000002" class="edge">
<title>Node1&#45;&gt;Node2</title>
<g id="a_edge1_Node000001_Node000002"><a xlink:title=" ">
<path fill="none" stroke="#63b8ff" d="M1620.54,-183.23C1591.55,-171.92 1549.29,-155.44 1523.84,-145.52"/>
<polygon fill="#63b8ff" stroke="#63b8ff" points="1619.6,-186.62 1630.19,-186.99 1622.14,-180.1 1619.6,-186.62"/>
</a>
</g>
</g>
<!-- Node19 -->
<g id="Node000019" class="node">
<title>Node19</title>
<g id="a_Node000019"><a xlink:href="tst__util_8cpp.html" target="_top" xlink:title=" ">
<polygon fill="white" stroke="#666666" points="1999,-30 1899,-30 1899,0 1999,0 1999,-30"/>
<text text-anchor="start" x="1907" y="-18" font-family="Helvetica,sans-Serif" font-size="10.00">tests/auto/util/tst</text>
<text text-anchor="middle" x="1949" y="-7" font-family="Helvetica,sans-Serif" font-size="10.00">_util.cpp</text>
</a>
</g>
</g>
<!-- Node1&#45;&gt;Node19 -->
<g id="edge23_Node000001_Node000019" class="edge">
<title>Node1&#45;&gt;Node19</title>
<g id="a_edge23_Node000001_Node000019"><a xlink:title=" ">
<path fill="none" stroke="#63b8ff" d="M1636.21,-178.61C1623.3,-162.68 1609.11,-138.68 1622,-121 1638.71,-98.09 1811.18,-51.24 1898.68,-28.69"/>
<polygon fill="#63b8ff" stroke="#63b8ff" points="1633.88,-181.27 1643.07,-186.54 1639.17,-176.68 1633.88,-181.27"/>
</a>
</g>
</g>
<!-- Node20 -->
<g id="Node000020" class="node">
<title>Node20</title>
<g id="a_Node000020"><a xlink:href="simpletransaction_8cpp.html" target="_top" xlink:title=" ">
<polygon fill="white" stroke="#666666" points="1773,-145.5 1631,-145.5 1631,-126.5 1773,-126.5 1773,-145.5"/>
<text text-anchor="middle" x="1702" y="-133.5" font-family="Helvetica,sans-Serif" font-size="10.00">src/simpletransaction.cpp</text>
</a>
</g>
</g>
<!-- Node1&#45;&gt;Node20 -->
<g id="edge21_Node000001_Node000020" class="edge">
<title>Node1&#45;&gt;Node20</title>
<g id="a_edge21_Node000001_Node000020"><a xlink:title=" ">
<path fill="none" stroke="#63b8ff" d="M1666.14,-178.95C1675.4,-168.12 1687.12,-154.41 1694.59,-145.67"/>
<polygon fill="#63b8ff" stroke="#63b8ff" points="1663.21,-176.99 1659.38,-186.87 1668.54,-181.54 1663.21,-176.99"/>
</a>
</g>
</g>
<!-- Node21 -->
<g id="Node000021" class="node">
<title>Node21</title>
<g id="a_Node000021"><a xlink:href="tst__simpletransaction_8cpp.html" target="_top" xlink:title=" ">
<polygon fill="white" stroke="#666666" points="1947,-151 1791,-151 1791,-121 1947,-121 1947,-151"/>
<text text-anchor="start" x="1799" y="-139" font-family="Helvetica,sans-Serif" font-size="10.00">tests/auto/simpletransaction</text>
<text text-anchor="middle" x="1869" y="-128" font-family="Helvetica,sans-Serif" font-size="10.00">/tst_simpletransaction.cpp</text>
</a>
</g>
</g>
<!-- Node1&#45;&gt;Node21 -->
<g id="edge22_Node000001_Node000021" class="edge">
<title>Node1&#45;&gt;Node21</title>
<g id="a_edge22_Node000001_Node000021"><a xlink:title=" ">
<path fill="none" stroke="#63b8ff" d="M1693.47,-184.32C1728.55,-174.86 1779.01,-161.26 1816.83,-151.06"/>
<polygon fill="#63b8ff" stroke="#63b8ff" points="1692.3,-181.01 1683.55,-186.99 1694.12,-187.77 1692.3,-181.01"/>
</a>
</g>
</g>
<!-- Node3 -->
<g id="Node000003" class="node">
<title>Node3</title>
<g id="a_Node000003"><a xlink:href="imitatepass_8cpp.html" target="_top" xlink:title=" ">
<polygon fill="white" stroke="#666666" points="112,-24.5 0,-24.5 0,-5.5 112,-5.5 112,-24.5"/>
<text text-anchor="middle" x="56" y="-12.5" font-family="Helvetica,sans-Serif" font-size="10.00">src/imitatepass.cpp</text>
</a>
</g>
</g>
<!-- Node2&#45;&gt;Node3 -->
<g id="edge2_Node000002_Node000003" class="edge">
<title>Node2&#45;&gt;Node3</title>
<g id="a_edge2_Node000002_Node000003"><a xlink:title=" ">
<path fill="none" stroke="#63b8ff" d="M1440.98,-133.33C1247.05,-127.37 627.75,-103.49 121,-30 111.29,-28.59 100.86,-26.58 91.26,-24.51"/>
<polygon fill="#63b8ff" stroke="#63b8ff" points="1441.15,-136.83 1451.25,-133.64 1441.36,-129.84 1441.15,-136.83"/>
</a>
</g>
</g>
<!-- Node4 -->
<g id="Node000004" class="node">
<title>Node4</title>
<g id="a_Node000004"><a xlink:href="qtpasssettings_8h.html" target="_top" xlink:title=" ">
<polygon fill="white" stroke="#666666" points="1130,-85 1016,-85 1016,-66 1130,-66 1130,-85"/>
<text text-anchor="middle" x="1073" y="-73" font-family="Helvetica,sans-Serif" font-size="10.00">src/qtpasssettings.h</text>
</a>
</g>
</g>
<!-- Node2&#45;&gt;Node4 -->
<g id="edge3_Node000002_Node000004" class="edge">
<title>Node2&#45;&gt;Node4</title>
<g id="a_edge3_Node000002_Node000004"><a xlink:title=" ">
<path fill="none" stroke="#63b8ff" d="M1441.09,-126.69C1358.26,-115.4 1211.21,-95.35 1130.31,-84.31"/>
<polygon fill="#63b8ff" stroke="#63b8ff" points="1440.72,-130.18 1451.1,-128.06 1441.67,-123.24 1440.72,-130.18"/>
</a>
</g>
</g>
<!-- Node2&#45;&gt;Node19 -->
<g id="edge20_Node000002_Node000019" class="edge">
<title>Node2&#45;&gt;Node19</title>
<g id="a_edge20_Node000002_Node000019"><a xlink:title=" ">
<path fill="none" stroke="#63b8ff" d="M1516.54,-119.17C1532.56,-102.84 1559.94,-78.11 1589,-66 1713.37,-14.18 1757.35,-53.59 1890,-30 1892.9,-29.48 1895.88,-28.91 1898.87,-28.31"/>
<polygon fill="#63b8ff" stroke="#63b8ff" points="1513.99,-116.76 1509.62,-126.42 1519.06,-121.59 1513.99,-116.76"/>
</a>
</g>
</g>
<!-- Node4&#45;&gt;Node3 -->
<g id="edge5_Node000004_Node000003" class="edge">
<title>Node4&#45;&gt;Node3</title>
<g id="a_edge5_Node000004_Node000003"><a xlink:title=" ">
<path fill="none" stroke="#63b8ff" d="M1005.45,-75.17C849.13,-75.87 450.6,-72.9 121,-30 111.04,-28.7 100.34,-26.67 90.56,-24.55"/>
<polygon fill="#63b8ff" stroke="#63b8ff" points="1005.86,-78.66 1015.84,-75.11 1005.82,-71.66 1005.86,-78.66"/>
</a>
</g>
</g>
<!-- Node5 -->
<g id="Node000005" class="node">
<title>Node5</title>
<g id="a_Node000005"><a xlink:href="configdialog_8cpp.html" target="_top" xlink:title=" ">
<polygon fill="white" stroke="#666666" points="243.5,-24.5 130.5,-24.5 130.5,-5.5 243.5,-5.5 243.5,-24.5"/>
<text text-anchor="middle" x="187" y="-12.5" font-family="Helvetica,sans-Serif" font-size="10.00">src/configdialog.cpp</text>
</a>
</g>
</g>
<!-- Node4&#45;&gt;Node5 -->
<g id="edge4_Node000004_Node000005" class="edge">
<title>Node4&#45;&gt;Node5</title>
<g id="a_edge4_Node000004_Node000005"><a xlink:title=" ">
<path fill="none" stroke="#63b8ff" d="M1005.79,-74.44C865.22,-73.53 530.12,-67.25 252,-30 242.05,-28.67 231.35,-26.62 221.57,-24.51"/>
<polygon fill="#63b8ff" stroke="#63b8ff" points="1005.96,-77.94 1015.98,-74.5 1006,-70.94 1005.96,-77.94"/>
</a>
</g>
</g>
<!-- Node6 -->
<g id="Node000006" class="node">
<title>Node6</title>
<g id="a_Node000006"><a xlink:href="keygendialog_8cpp.html" target="_top" xlink:title=" ">
<polygon fill="white" stroke="#666666" points="380.5,-24.5 261.5,-24.5 261.5,-5.5 380.5,-5.5 380.5,-24.5"/>
<text text-anchor="middle" x="321" y="-12.5" font-family="Helvetica,sans-Serif" font-size="10.00">src/keygendialog.cpp</text>
</a>
</g>
</g>
<!-- Node4&#45;&gt;Node6 -->
<g id="edge6_Node000004_Node000006" class="edge">
<title>Node4&#45;&gt;Node6</title>
<g id="a_edge6_Node000004_Node000006"><a xlink:title=" ">
<path fill="none" stroke="#63b8ff" d="M1005.61,-73.12C882.74,-69.95 614.26,-59.92 390,-30 379.7,-28.63 368.63,-26.62 358.45,-24.56"/>
<polygon fill="#63b8ff" stroke="#63b8ff" points="1005.54,-76.62 1015.63,-73.38 1005.72,-69.63 1005.54,-76.62"/>
</a>
</g>
</g>
<!-- Node7 -->
<g id="Node000007" class="node">
<title>Node7</title>
<g id="a_Node000007"><a xlink:href="mainwindow_8cpp.html" target="_top" xlink:title=" ">
<polygon fill="white" stroke="#666666" points="515,-24.5 399,-24.5 399,-5.5 515,-5.5 515,-24.5"/>
<text text-anchor="middle" x="457" y="-12.5" font-family="Helvetica,sans-Serif" font-size="10.00">src/mainwindow.cpp</text>
</a>
</g>
</g>
<!-- Node4&#45;&gt;Node7 -->
<g id="edge7_Node000004_Node000007" class="edge">
<title>Node4&#45;&gt;Node7</title>
<g id="a_edge7_Node000004_Node000007"><a xlink:title=" ">
<path fill="none" stroke="#63b8ff" d="M1005.81,-71.76C902.02,-66.93 696.65,-54.94 524,-30 514.12,-28.57 503.51,-26.58 493.71,-24.53"/>
<polygon fill="#63b8ff" stroke="#63b8ff" points="1005.68,-75.26 1015.83,-72.22 1006,-68.27 1005.68,-75.26"/>
</a>
</g>
</g>
<!-- Node8 -->
<g id="Node000008" class="node">
<title>Node8</title>
<g id="a_Node000008"><a xlink:href="pass_8cpp.html" target="_top" xlink:title=" ">
<polygon fill="white" stroke="#666666" points="610.5,-24.5 533.5,-24.5 533.5,-5.5 610.5,-5.5 610.5,-24.5"/>
<text text-anchor="middle" x="572" y="-12.5" font-family="Helvetica,sans-Serif" font-size="10.00">src/pass.cpp</text>
</a>
</g>
</g>
<!-- Node4&#45;&gt;Node8 -->
<g id="edge8_Node000004_Node000008" class="edge">
<title>Node4&#45;&gt;Node8</title>
<g id="a_edge8_Node000004_Node000008"><a xlink:title=" ">
<path fill="none" stroke="#63b8ff" d="M1005.63,-71.93C916.46,-67.62 754.69,-56.6 619,-30 611.98,-28.62 604.51,-26.64 597.64,-24.6"/>
<polygon fill="#63b8ff" stroke="#63b8ff" points="1005.72,-75.44 1015.87,-72.41 1006.04,-68.45 1005.72,-75.44"/>
</a>
</g>
</g>
<!-- Node9 -->
<g id="Node000009" class="node">
<title>Node9</title>
<g id="a_Node000009"><a xlink:href="passworddialog_8cpp.html" target="_top" xlink:title=" ">
<polygon fill="white" stroke="#666666" points="759.5,-24.5 628.5,-24.5 628.5,-5.5 759.5,-5.5 759.5,-24.5"/>
<text text-anchor="middle" x="694" y="-12.5" font-family="Helvetica,sans-Serif" font-size="10.00">src/passworddialog.cpp</text>
</a>
</g>
</g>
<!-- Node4&#45;&gt;Node9 -->
<g id="edge9_Node000004_Node000009" class="edge">
<title>Node4&#45;&gt;Node9</title>
<g id="a_edge9_Node000004_Node000009"><a xlink:title=" ">
<path fill="none" stroke="#63b8ff" d="M1005.75,-65.43C944.07,-56.92 850.24,-43.52 769,-30 758.94,-28.33 748.15,-26.39 737.97,-24.51"/>
<polygon fill="#63b8ff" stroke="#63b8ff" points="1005.36,-68.91 1015.75,-66.8 1006.32,-61.97 1005.36,-68.91"/>
</a>
</g>
</g>
<!-- Node10 -->
<g id="Node000010" class="node">
<title>Node10</title>
<g id="a_Node000010"><a xlink:href="qtpass_8cpp.html" target="_top" xlink:title=" ">
<polygon fill="white" stroke="#666666" points="864,-24.5 778,-24.5 778,-5.5 864,-5.5 864,-24.5"/>
<text text-anchor="middle" x="821" y="-12.5" font-family="Helvetica,sans-Serif" font-size="10.00">src/qtpass.cpp</text>
</a>
</g>
</g>
<!-- Node4&#45;&gt;Node10 -->
<g id="edge10_Node000004_Node000010" class="edge">
<title>Node4&#45;&gt;Node10</title>
<g id="a_edge10_Node000004_Node000010"><a xlink:title=" ">
<path fill="none" stroke="#63b8ff" d="M1022.37,-63.88C981.85,-55.23 923.63,-42.44 873,-30 866.1,-28.3 858.71,-26.38 851.74,-24.52"/>
<polygon fill="#63b8ff" stroke="#63b8ff" points="1021.76,-67.33 1032.27,-65.99 1023.22,-60.48 1021.76,-67.33"/>
</a>
</g>
</g>
<!-- Node11 -->
<g id="Node000011" class="node">
<title>Node11</title>
<g id="a_Node000011"><a xlink:href="qtpasssettings_8cpp.html" target="_top" xlink:title=" ">
<polygon fill="white" stroke="#666666" points="1007.5,-24.5 882.5,-24.5 882.5,-5.5 1007.5,-5.5 1007.5,-24.5"/>
<text text-anchor="middle" x="945" y="-12.5" font-family="Helvetica,sans-Serif" font-size="10.00">src/qtpasssettings.cpp</text>
</a>
</g>
</g>
<!-- Node4&#45;&gt;Node11 -->
<g id="edge11_Node000004_Node000011" class="edge">
<title>Node4&#45;&gt;Node11</title>
<g id="a_edge11_Node000004_Node000011"><a xlink:title=" ">
<path fill="none" stroke="#63b8ff" d="M1045.17,-61.78C1020.47,-50.49 985.07,-34.31 963.63,-24.52"/>
<polygon fill="#63b8ff" stroke="#63b8ff" points="1043.84,-65.02 1054.39,-65.99 1046.75,-58.65 1043.84,-65.02"/>
</a>
</g>
</g>
<!-- Node12 -->
<g id="Node000012" class="node">
<title>Node12</title>
<g id="a_Node000012"><a xlink:href="realpass_8cpp.html" target="_top" xlink:title=" ">
<polygon fill="white" stroke="#666666" points="1120.5,-24.5 1025.5,-24.5 1025.5,-5.5 1120.5,-5.5 1120.5,-24.5"/>
<text text-anchor="middle" x="1073" y="-12.5" font-family="Helvetica,sans-Serif" font-size="10.00">src/realpass.cpp</text>
</a>
</g>
</g>
<!-- Node4&#45;&gt;Node12 -->
<g id="edge12_Node000004_Node000012" class="edge">
<title>Node4&#45;&gt;Node12</title>
<g id="a_edge12_Node000004_Node000012"><a xlink:title=" ">
<path fill="none" stroke="#63b8ff" d="M1073,-55.66C1073,-45.24 1073,-32.8 1073,-24.67"/>
<polygon fill="#63b8ff" stroke="#63b8ff" points="1069.5,-55.87 1073,-65.87 1076.5,-55.87 1069.5,-55.87"/>
</a>
</g>
</g>
<!-- Node13 -->
<g id="Node000013" class="node">
<title>Node13</title>
<g id="a_Node000013"><a xlink:href="storemodel_8cpp.html" target="_top" xlink:title=" ">
<polygon fill="white" stroke="#666666" points="1249,-24.5 1139,-24.5 1139,-5.5 1249,-5.5 1249,-24.5"/>
<text text-anchor="middle" x="1194" y="-12.5" font-family="Helvetica,sans-Serif" font-size="10.00">src/storemodel.cpp</text>
</a>
</g>
</g>
<!-- Node4&#45;&gt;Node13 -->
<g id="edge13_Node000004_Node000013" class="edge">
<title>Node4&#45;&gt;Node13</title>
<g id="a_edge13_Node000004_Node000013"><a xlink:title=" ">
<path fill="none" stroke="#63b8ff" d="M1099.61,-61.63C1122.95,-50.35 1156.21,-34.27 1176.38,-24.52"/>
<polygon fill="#63b8ff" stroke="#63b8ff" points="1098.07,-58.49 1090.59,-65.99 1101.12,-64.79 1098.07,-58.49"/>
</a>
</g>
</g>
<!-- Node14 -->
<g id="Node000014" class="node">
<title>Node14</title>
<g id="a_Node000014"><a xlink:href="usersdialog_8cpp.html" target="_top" xlink:title=" ">
<polygon fill="white" stroke="#666666" points="1377,-24.5 1267,-24.5 1267,-5.5 1377,-5.5 1377,-24.5"/>
<text text-anchor="middle" x="1322" y="-12.5" font-family="Helvetica,sans-Serif" font-size="10.00">src/usersdialog.cpp</text>
</a>
</g>
</g>
<!-- Node4&#45;&gt;Node14 -->
<g id="edge14_Node000004_Node000014" class="edge">
<title>Node4&#45;&gt;Node14</title>
<g id="a_edge14_Node000004_Node000014"><a xlink:title=" ">
<path fill="none" stroke="#63b8ff" d="M1119.05,-63.68C1167.17,-52.38 1241.66,-34.88 1285.75,-24.52"/>
<polygon fill="#63b8ff" stroke="#63b8ff" points="1118.14,-60.3 1109.21,-65.99 1119.74,-67.11 1118.14,-60.3"/>
</a>
</g>
</g>
<!-- Node15 -->
<g id="Node000015" class="node">
<title>Node15</title>
<g id="a_Node000015"><a xlink:href="util_8cpp.html" target="_top" xlink:title=" ">
<polygon fill="white" stroke="#666666" points="1465,-24.5 1395,-24.5 1395,-5.5 1465,-5.5 1465,-24.5"/>
<text text-anchor="middle" x="1430" y="-12.5" font-family="Helvetica,sans-Serif" font-size="10.00">src/util.cpp</text>
</a>
</g>
</g>
<!-- Node4&#45;&gt;Node15 -->
<g id="edge15_Node000004_Node000015" class="edge">
<title>Node4&#45;&gt;Node15</title>
<g id="a_edge15_Node000004_Node000015"><a xlink:title=" ">
<path fill="none" stroke="#63b8ff" d="M1140.39,-68.2C1204.18,-61.47 1302.37,-49.11 1386,-30 1392.41,-28.54 1399.23,-26.57 1405.53,-24.58"/>
<polygon fill="#63b8ff" stroke="#63b8ff" points="1139.65,-64.76 1130.07,-69.28 1140.37,-71.72 1139.65,-64.76"/>
</a>
</g>
</g>
<!-- Node16 -->
<g id="Node000016" class="node">
<title>Node16</title>
<g id="a_Node000016"><a xlink:href="tst__executor_8cpp.html" target="_top" xlink:title=" ">
<polygon fill="white" stroke="#666666" points="1593,-30 1483,-30 1483,0 1593,0 1593,-30"/>
<text text-anchor="start" x="1491" y="-18" font-family="Helvetica,sans-Serif" font-size="10.00">tests/auto/executor</text>
<text text-anchor="middle" x="1538" y="-7" font-family="Helvetica,sans-Serif" font-size="10.00">/tst_executor.cpp</text>
</a>
</g>
</g>
<!-- Node4&#45;&gt;Node16 -->
<g id="edge16_Node000004_Node000016" class="edge">
<title>Node4&#45;&gt;Node16</title>
<g id="a_edge16_Node000004_Node000016"><a xlink:title=" ">
<path fill="none" stroke="#63b8ff" d="M1140.45,-69.19C1220.37,-62.39 1357.41,-49.17 1474,-30 1476.92,-29.52 1479.9,-28.99 1482.91,-28.43"/>
<polygon fill="#63b8ff" stroke="#63b8ff" points="1139.71,-65.74 1130.03,-70.07 1140.29,-72.71 1139.71,-65.74"/>
</a>
</g>
</g>
<!-- Node17 -->
<g id="Node000017" class="node">
<title>Node17</title>
<g id="a_Node000017"><a xlink:href="tst__passwordconfig_8cpp.html" target="_top" xlink:title=" ">
<polygon fill="white" stroke="#666666" points="1755,-30 1611,-30 1611,0 1755,0 1755,-30"/>
<text text-anchor="start" x="1619" y="-18" font-family="Helvetica,sans-Serif" font-size="10.00">tests/auto/passwordconfig</text>
<text text-anchor="middle" x="1683" y="-7" font-family="Helvetica,sans-Serif" font-size="10.00">/tst_passwordconfig.cpp</text>
</a>
</g>
</g>
<!-- Node4&#45;&gt;Node17 -->
<g id="edge17_Node000004_Node000017" class="edge">
<title>Node4&#45;&gt;Node17</title>
<g id="a_edge17_Node000004_Node000017"><a xlink:title=" ">
<path fill="none" stroke="#63b8ff" d="M1140.35,-70.72C1241.06,-64.65 1436.73,-51.19 1602,-30 1604.83,-29.64 1607.71,-29.25 1610.62,-28.83"/>
<polygon fill="#63b8ff" stroke="#63b8ff" points="1140.09,-67.23 1130.32,-71.32 1140.51,-74.22 1140.09,-67.23"/>
</a>
</g>
</g>
<!-- Node18 -->
<g id="Node000018" class="node">
<title>Node18</title>
<g id="a_Node000018"><a xlink:href="tst__settings_8cpp.html" target="_top" xlink:title=" ">
<polygon fill="white" stroke="#666666" points="1880.5,-30 1773.5,-30 1773.5,0 1880.5,0 1880.5,-30"/>
<text text-anchor="start" x="1781.5" y="-18" font-family="Helvetica,sans-Serif" font-size="10.00">tests/auto/settings</text>
<text text-anchor="middle" x="1827" y="-7" font-family="Helvetica,sans-Serif" font-size="10.00">/tst_settings.cpp</text>
</a>
</g>
</g>
<!-- Node4&#45;&gt;Node18 -->
<g id="edge18_Node000004_Node000018" class="edge">
<title>Node4&#45;&gt;Node18</title>
<g id="a_edge18_Node000004_Node000018"><a xlink:title=" ">
<path fill="none" stroke="#63b8ff" d="M1140.28,-73.61C1264.25,-71.2 1536.82,-62.36 1764,-30 1767.11,-29.56 1770.29,-29.04 1773.49,-28.48"/>
<polygon fill="#63b8ff" stroke="#63b8ff" points="1140.12,-70.11 1130.19,-73.8 1140.25,-77.11 1140.12,-70.11"/>
</a>
</g>
</g>
<!-- Node4&#45;&gt;Node19 -->
<g id="edge19_Node000004_Node000019" class="edge">
<title>Node4&#45;&gt;Node19</title>
<g id="a_edge19_Node000004_Node000019"><a xlink:title=" ">
<path fill="none" stroke="#63b8ff" d="M1140.47,-74.88C1280.78,-74.79 1613.98,-69.94 1890,-30 1892.92,-29.58 1895.9,-29.08 1898.91,-28.53"/>
<polygon fill="#63b8ff" stroke="#63b8ff" points="1140.3,-71.38 1130.3,-74.88 1140.3,-78.38 1140.3,-71.38"/>
</a>
</g>
</g>
</g>
</svg>

<g id="navigator" transform="translate(0 0)" fill="#404254">
  <rect fill="#f2f5e9" fill-opacity="0.5" stroke="#606060" stroke-width=".5" x="0" y="0" width="60" height="60"/>
  <use id="zoomplus" xlink:href="#zoomPlus" x="17" y="9" onmousedown="handleZoom(evt,'in')"/>
  <use id="zoomminus" xlink:href="#zoomMin" x="42" y="9" onmousedown="handleZoom(evt,'out')"/>
  <use id="reset" xlink:href="#resetDef" x="30" y="36" onmousedown="handleReset()"/>
   <use id="arrowup" xlink:href="#arrowUp" x="0" y="0" onmousedown="handlePan(0,-1)"/>
  <use id="arrowright" xlink:href="#arrowRight" x="0" y="0" onmousedown="handlePan(1,0)"/>
  <use id="arrowdown" xlink:href="#arrowDown" x="0" y="0" onmousedown="handlePan(0,1)"/>
  <use id="arrowleft" xlink:href="#arrowLeft" x="0" y="0" onmousedown="handlePan(-1,0)"/>
</g>
<svg viewBox="0 0 15 15" width="100%" height="30px" preserveAspectRatio="xMaxYMin meet">
 <g id="arrow_out" transform="scale(0.3 0.3)">
  <a xlink:href="simpletransaction_8h__dep__incl_org.svg" target="_base">
   <rect id="button" ry="5" rx="5" y="6" x="6" height="38" width="38"
        fill="#f2f5e9" fill-opacity="0.5" stroke="#606060" stroke-width="1.0"/>
   <path id="arrow"
     d="M 11.500037,31.436501 C 11.940474,20.09759 22.043105,11.32322 32.158766,21.979434 L 37.068811,17.246167 C 37.068811,17.246167 37.088388,32 37.088388,32 L 22.160133,31.978069 C 22.160133,31.978069 26.997745,27.140456 26.997745,27.140456 C 18.528582,18.264221 13.291696,25.230495 11.500037,31.436501 z"
     style="fill:#404040;"/>
  </a>
 </g>
</svg>

<style type='text/css'>
<![CDATA[
[data-mouse-over-selected='false'] { opacity: 0.7; }
[data-mouse-over-selected='true']  { opacity: 1.0; }
]]>
</style>
<script type="application/ecmascript"><![CDATA[
document.addEventListener('DOMContentLoaded', (event) => {
  highlightEdges();
  highlightAdjacentNodes();
});
]]></script>
</svg>
