<?xml version="1.0" encoding="UTF-8" standalone="no"?>
<!DOCTYPE svg PUBLIC "-//W3C//DTD SVG 1.1//EN"
 "http://www.w3.org/Graphics/SVG/1.1/DTD/svg11.dtd">
<!-- Generated by graphviz version 2.40.1 (20161225.0304)
 -->
<!-- Title: src/singleapplication.cpp Pages: 1 -->
<svg width="445pt" height="137pt"
 viewBox="0.00 0.00 445.48 137.00" xmlns="http://www.w3.org/2000/svg" xmlns:xlink="http://www.w3.org/1999/xlink">
<g id="graph0" class="graph" transform="scale(1 1) rotate(0) translate(4 133)">
<title>src/singleapplication.cpp</title>
<!-- Node0 -->
<g id="node1" class="node">
<title>Node0</title>
<polygon fill="#bfbfbf" stroke="#000000" points="238.8745,-110.5 238.8745,-128.5 363.8247,-128.5 363.8247,-110.5 238.8745,-110.5"/>
<text text-anchor="middle" x="301.3496" y="-116.5" font-family="Helvetica,sans-Serif" font-size="10.00" fill="#000000">src/singleapplication.cpp</text>
</g>
<!-- Node1 -->
<g id="node2" class="node">
<title>Node1</title>
<g id="a_node2"><a xlink:href="singleapplication_8h.html" target="_top" xlink:title="singleapplication.h">
<polygon fill="none" stroke="#000000" points="123.2095,-55.5 123.2095,-73.5 221.4897,-73.5 221.4897,-55.5 123.2095,-55.5"/>
<text text-anchor="middle" x="172.3496" y="-61.5" font-family="Helvetica,sans-Serif" font-size="10.00" fill="#000000">singleapplication.h</text>
</a>
</g>
</g>
<!-- Node0&#45;&gt;Node1 -->
<g id="edge1" class="edge">
<title>Node0&#45;&gt;Node1</title>
<path fill="none" stroke="#191970" d="M280.0479,-110.4179C259.0406,-101.4613 226.7188,-87.6806 202.9625,-77.552"/>
<polygon fill="#191970" stroke="#191970" points="204.2545,-74.2981 193.683,-73.5956 201.5091,-80.7372 204.2545,-74.2981"/>
</g>
<!-- Node5 -->
<g id="node6" class="node">
<title>Node5</title>
<g id="a_node6"><a xlink:href="debughelper_8h.html" target="_top" xlink:title="debughelper.h">
<polygon fill="none" stroke="#000000" points="261.6504,-55.5 261.6504,-73.5 341.0488,-73.5 341.0488,-55.5 261.6504,-55.5"/>
<text text-anchor="middle" x="301.3496" y="-61.5" font-family="Helvetica,sans-Serif" font-size="10.00" fill="#000000">debughelper.h</text>
</a>
</g>
</g>
<!-- Node0&#45;&gt;Node5 -->
<g id="edge5" class="edge">
<title>Node0&#45;&gt;Node5</title>
<path fill="none" stroke="#191970" d="M301.3496,-110.4179C301.3496,-103.2164 301.3496,-92.8962 301.3496,-83.8632"/>
<polygon fill="#191970" stroke="#191970" points="304.8497,-83.7794 301.3496,-73.7795 297.8497,-83.7795 304.8497,-83.7794"/>
</g>
<!-- Node7 -->
<g id="node8" class="node">
<title>Node7</title>
<polygon fill="none" stroke="#bfbfbf" points="359.2217,-55.5 359.2217,-73.5 437.4775,-73.5 437.4775,-55.5 359.2217,-55.5"/>
<text text-anchor="middle" x="398.3496" y="-61.5" font-family="Helvetica,sans-Serif" font-size="10.00" fill="#000000">QLocalSocket</text>
</g>
<!-- Node0&#45;&gt;Node7 -->
<g id="edge7" class="edge">
<title>Node0&#45;&gt;Node7</title>
<path fill="none" stroke="#191970" d="M317.3672,-110.4179C332.5315,-101.8195 355.5367,-88.7754 373.1571,-78.7844"/>
<polygon fill="#191970" stroke="#191970" points="375.3356,-81.5727 382.3082,-73.5956 371.8829,-75.4834 375.3356,-81.5727"/>
</g>
<!-- Node2 -->
<g id="node3" class="node">
<title>Node2</title>
<polygon fill="none" stroke="#bfbfbf" points="0,-.5 0,-18.5 72.6992,-18.5 72.6992,-.5 0,-.5"/>
<text text-anchor="middle" x="36.3496" y="-6.5" font-family="Helvetica,sans-Serif" font-size="10.00" fill="#000000">QApplication</text>
</g>
<!-- Node1&#45;&gt;Node2 -->
<g id="edge2" class="edge">
<title>Node1&#45;&gt;Node2</title>
<path fill="none" stroke="#191970" d="M149.892,-55.4179C127.6463,-46.4215 93.3659,-32.5581 68.2902,-22.4172"/>
<polygon fill="#191970" stroke="#191970" points="69.4234,-19.1001 58.8406,-18.5956 66.799,-25.5895 69.4234,-19.1001"/>
</g>
<!-- Node3 -->
<g id="node4" class="node">
<title>Node3</title>
<polygon fill="none" stroke="#bfbfbf" points="90.7808,-.5 90.7808,-18.5 167.9185,-18.5 167.9185,-.5 90.7808,-.5"/>
<text text-anchor="middle" x="129.3496" y="-6.5" font-family="Helvetica,sans-Serif" font-size="10.00" fill="#000000">QLocalServer</text>
</g>
<!-- Node1&#45;&gt;Node3 -->
<g id="edge3" class="edge">
<title>Node1&#45;&gt;Node3</title>
<path fill="none" stroke="#191970" d="M165.249,-55.4179C159.1857,-47.6624 150.2945,-36.29 142.8778,-26.8035"/>
<polygon fill="#191970" stroke="#191970" points="145.521,-24.5018 136.6045,-18.7795 140.0064,-28.8133 145.521,-24.5018"/>
</g>
<!-- Node4 -->
<g id="node5" class="node">
<title>Node4</title>
<polygon fill="none" stroke="#bfbfbf" points="186.2808,-.5 186.2808,-18.5 278.4185,-18.5 278.4185,-.5 186.2808,-.5"/>
<text text-anchor="middle" x="232.3496" y="-6.5" font-family="Helvetica,sans-Serif" font-size="10.00" fill="#000000">QSharedMemory</text>
</g>
<!-- Node1&#45;&gt;Node4 -->
<g id="edge4" class="edge">
<title>Node1&#45;&gt;Node4</title>
<path fill="none" stroke="#191970" d="M182.2574,-55.4179C191.0632,-47.3458 204.1435,-35.3556 214.7296,-25.6517"/>
<polygon fill="#191970" stroke="#191970" points="217.22,-28.1168 222.2266,-18.7795 212.49,-22.9567 217.22,-28.1168"/>
</g>
<!-- Node6 -->
<g id="node7" class="node">
<title>Node6</title>
<polygon fill="none" stroke="#bfbfbf" points="296.7266,-.5 296.7266,-18.5 349.9727,-18.5 349.9727,-.5 296.7266,-.5"/>
<text text-anchor="middle" x="323.3496" y="-6.5" font-family="Helvetica,sans-Serif" font-size="10.00" fill="#000000">QDebug</text>
</g>
<!-- Node5&#45;&gt;Node6 -->
<g id="edge6" class="edge">
<title>Node5&#45;&gt;Node6</title>
<path fill="none" stroke="#191970" d="M304.9825,-55.4179C307.9264,-48.0581 312.1732,-37.441 315.8418,-28.2695"/>
<polygon fill="#191970" stroke="#191970" points="319.1735,-29.3641 319.6378,-18.7795 312.6742,-26.7643 319.1735,-29.3641"/>
</g>
</g>
</svg>
