<?xml version="1.0" encoding="UTF-8" standalone="no"?>
<!DOCTYPE svg PUBLIC "-//W3C//DTD SVG 1.1//EN"
 "http://www.w3.org/Graphics/SVG/1.1/DTD/svg11.dtd">
<!-- Generated by graphviz version 2.42.3 (20191010.1750)
 -->
<!-- Title: src/singleapplication.h Pages: 1 -->
<svg width="286pt" height="82pt"
 viewBox="0.00 0.00 286.42 82.00" xmlns="http://www.w3.org/2000/svg" xmlns:xlink="http://www.w3.org/1999/xlink">
<g id="graph0" class="graph" transform="scale(1 1) rotate(0) translate(4 78)">
<title>src/singleapplication.h</title>
<!-- Node1 -->
<g id="node1" class="node">
<title>Node1</title>
<g id="a_node1"><a xlink:title=" ">
<polygon fill="#bfbfbf" stroke="black" points="72.16,-55.5 72.16,-73.5 186.54,-73.5 186.54,-55.5 72.16,-55.5"/>
<text text-anchor="middle" x="129.35" y="-61.5" font-family="Helvetica,sans-Serif" font-size="10.00">src/singleapplication.h</text>
</a>
</g>
</g>
<!-- Node2 -->
<g id="node2" class="node">
<title>Node2</title>
<g id="a_node2"><a xlink:title=" ">
<polygon fill="none" stroke="#bfbfbf" points="0,-0.5 0,-18.5 72.7,-18.5 72.7,-0.5 0,-0.5"/>
<text text-anchor="middle" x="36.35" y="-6.5" font-family="Helvetica,sans-Serif" font-size="10.00">QApplication</text>
</a>
</g>
</g>
<!-- Node1&#45;&gt;Node2 -->
<g id="edge1" class="edge">
<title>Node1&#45;&gt;Node2</title>
<path fill="none" stroke="midnightblue" d="M115.22,-55.45C100.48,-47.05 77.1,-33.72 59.62,-23.76"/>
<polygon fill="midnightblue" stroke="midnightblue" points="61.03,-20.54 50.61,-18.63 57.56,-26.62 61.03,-20.54"/>
</g>
<!-- Node3 -->
<g id="node3" class="node">
<title>Node3</title>
<g id="a_node3"><a xlink:title=" ">
<polygon fill="none" stroke="#bfbfbf" points="90.78,-0.5 90.78,-18.5 167.92,-18.5 167.92,-0.5 90.78,-0.5"/>
<text text-anchor="middle" x="129.35" y="-6.5" font-family="Helvetica,sans-Serif" font-size="10.00">QLocalServer</text>
</a>
</g>
</g>
<!-- Node1&#45;&gt;Node3 -->
<g id="edge2" class="edge">
<title>Node1&#45;&gt;Node3</title>
<path fill="none" stroke="midnightblue" d="M129.35,-55.22C129.35,-48.18 129.35,-37.81 129.35,-28.83"/>
<polygon fill="midnightblue" stroke="midnightblue" points="132.85,-28.55 129.35,-18.55 125.85,-28.55 132.85,-28.55"/>
</g>
<!-- Node4 -->
<g id="node4" class="node">
<title>Node4</title>
<g id="a_node4"><a xlink:title=" ">
<polygon fill="none" stroke="#bfbfbf" points="186.28,-0.5 186.28,-18.5 278.42,-18.5 278.42,-0.5 186.28,-0.5"/>
<text text-anchor="middle" x="232.35" y="-6.5" font-family="Helvetica,sans-Serif" font-size="10.00">QSharedMemory</text>
</a>
</g>
</g>
<!-- Node1&#45;&gt;Node4 -->
<g id="edge3" class="edge">
<title>Node1&#45;&gt;Node4</title>
<path fill="none" stroke="midnightblue" d="M144.99,-55.45C161.63,-46.89 188.18,-33.23 207.65,-23.21"/>
<polygon fill="midnightblue" stroke="midnightblue" points="209.27,-26.31 216.56,-18.63 206.07,-20.09 209.27,-26.31"/>
</g>
</g>
</svg>
