<?xml version="1.0" encoding="UTF-8" standalone="no"?>
<!DOCTYPE svg PUBLIC "-//W3C//DTD SVG 1.1//EN"
 "http://www.w3.org/Graphics/SVG/1.1/DTD/svg11.dtd">
<!-- Generated by graphviz version 2.42.3 (20191010.1750)
 -->
<!-- Title: src/storemodel.h Pages: 1 -->
<!--zoomable 147 -->
<svg id="main" version="1.1" xmlns="http://www.w3.org/2000/svg" xmlns:xlink="http://www.w3.org/1999/xlink" xml:space="preserve" onload="init(evt)">
<style type="text/css"><![CDATA[
.edge:hover path { stroke: red; }
.edge:hover polygon { stroke: red; fill: red; }
]]></style>
<script type="text/javascript"><![CDATA[
var edges = document.getElementsByTagName('g');
if (edges && edges.length) {
  for (var i=0;i<edges.length;i++) {
    if (edges[i].id.substr(0,4)=='edge') {
      edges[i].setAttribute('class','edge');
    }
  }
}
]]></script>
        <defs>
                <circle id="rim" cx="0" cy="0" r="7"/>
                <circle id="rim2" cx="0" cy="0" r="3.5"/>
                <g id="zoomPlus">
                        <use xlink:href="#rim" fill="#404040">
                                <set attributeName="fill" to="#808080" begin="zoomplus.mouseover" end="zoomplus.mouseout"/>
                        </use>
                        <path d="M-4,0h8M0,-4v8" fill="none" stroke="white" stroke-width="1.5" pointer-events="none"/>
                </g>
                <g id="zoomMin">
                        <use xlink:href="#rim" fill="#404040">
                                <set attributeName="fill" to="#808080" begin="zoomminus.mouseover" end="zoomminus.mouseout"/>
                        </use>
                        <path d="M-4,0h8" fill="none" stroke="white" stroke-width="1.5" pointer-events="none"/>
                </g>
                <g id="dirArrow">
                        <path fill="none" stroke="white" stroke-width="1.5" d="M0,-3.0v7 M-2.5,-0.5L0,-3.0L2.5,-0.5"/>
                </g>
               <g id="resetDef">
                       <use xlink:href="#rim2" fill="#404040">
                               <set attributeName="fill" to="#808080" begin="reset.mouseover" end="reset.mouseout"/>
                       </use>
               </g>
        </defs>

<script type="text/javascript">
var viewWidth = 845;
var viewHeight = 147;
var sectionId = 'dynsection-1';
</script>
<script xlink:href="svgpan.js"/>
<svg id="graph" class="graph">
<g id="viewport">
<title>src/storemodel.h</title>
<!-- Node1 -->
<g id="node1" class="node">
<title>Node1</title>
<g id="a_node1"><a xlink:title=" ">
<polygon fill="#bfbfbf" stroke="black" points="490.56,-120.5 490.56,-138.5 580.47,-138.5 580.47,-120.5 490.56,-120.5"/>
<text text-anchor="middle" x="535.51" y="-126.5" font-family="Helvetica,sans-Serif" font-size="10.00">src/storemodel.h</text>
</a>
</g>
</g>
<!-- Node2 -->
<g id="node2" class="node">
<title>Node2</title>
<g id="a_node2"><a xlink:href="mainwindow_8h.html" target="_top" xlink:title=" ">
<polygon fill="none" stroke="black" points="214.05,-65.5 214.05,-83.5 308.98,-83.5 308.98,-65.5 214.05,-65.5"/>
<text text-anchor="middle" x="261.51" y="-71.5" font-family="Helvetica,sans-Serif" font-size="10.00">src/mainwindow.h</text>
</a>
</g>
</g>
<!-- Node1&#45;&gt;Node2 -->
<g id="edge1" class="edge">
<title>Node1&#45;&gt;Node2</title>
<path fill="none" stroke="midnightblue" d="M483.81,-118.5C431.45,-108.37 351.47,-92.9 303.07,-83.54"/>
<polygon fill="midnightblue" stroke="midnightblue" points="483.42,-121.99 493.9,-120.45 484.75,-115.11 483.42,-121.99"/>
</g>
<!-- Node7 -->
<g id="node7" class="node">
<title>Node7</title>
<g id="a_node7"><a xlink:href="util_8h.html" target="_top" xlink:title=" ">
<polygon fill="none" stroke="black" points="508.9,-65.5 508.9,-83.5 562.13,-83.5 562.13,-65.5 508.9,-65.5"/>
<text text-anchor="middle" x="535.51" y="-71.5" font-family="Helvetica,sans-Serif" font-size="10.00">src/util.h</text>
</a>
</g>
</g>
<!-- Node1&#45;&gt;Node7 -->
<g id="edge6" class="edge">
<title>Node1&#45;&gt;Node7</title>
<path fill="none" stroke="midnightblue" d="M529.06,-110.17C528.39,-101.09 528.87,-90.59 530.51,-83.55"/>
<polygon fill="midnightblue" stroke="midnightblue" points="525.61,-110.79 530.45,-120.22 532.54,-109.83 525.61,-110.79"/>
</g>
<!-- Node12 -->
<g id="node12" class="node">
<title>Node12</title>
<g id="a_node12"><a xlink:href="storemodel_8cpp.html" target="_top" xlink:title=" ">
<polygon fill="none" stroke="black" points="580.28,-65.5 580.28,-83.5 680.75,-83.5 680.75,-65.5 580.28,-65.5"/>
<text text-anchor="middle" x="630.51" y="-71.5" font-family="Helvetica,sans-Serif" font-size="10.00">src/storemodel.cpp</text>
</a>
</g>
</g>
<!-- Node1&#45;&gt;Node12 -->
<g id="edge13" class="edge">
<title>Node1&#45;&gt;Node12</title>
<path fill="none" stroke="midnightblue" d="M559.13,-115.33C576.95,-105.39 600.83,-92.06 615.95,-83.63"/>
<polygon fill="midnightblue" stroke="midnightblue" points="556.97,-112.52 549.94,-120.45 560.38,-118.63 556.97,-112.52"/>
</g>
<!-- Node3 -->
<g id="node3" class="node">
<title>Node3</title>
<g id="a_node3"><a xlink:href="main_8cpp.html" target="_top" xlink:title=" ">
<polygon fill="none" stroke="black" points="0,-5.5 0,-23.5 81.03,-23.5 81.03,-5.5 0,-5.5"/>
<text text-anchor="middle" x="40.51" y="-11.5" font-family="Helvetica,sans-Serif" font-size="10.00">main/main.cpp</text>
</a>
</g>
</g>
<!-- Node2&#45;&gt;Node3 -->
<g id="edge2" class="edge">
<title>Node2&#45;&gt;Node3</title>
<path fill="none" stroke="midnightblue" d="M220.52,-62.94C185.87,-53.99 134.91,-40.77 90.51,-29 83.91,-27.25 76.82,-25.35 70.11,-23.54"/>
<polygon fill="midnightblue" stroke="midnightblue" points="219.73,-66.35 230.29,-65.47 221.48,-59.58 219.73,-66.35"/>
</g>
<!-- Node4 -->
<g id="node4" class="node">
<title>Node4</title>
<g id="a_node4"><a xlink:href="configdialog_8cpp.html" target="_top" xlink:title=" ">
<polygon fill="none" stroke="black" points="99.32,-5.5 99.32,-23.5 203.71,-23.5 203.71,-5.5 99.32,-5.5"/>
<text text-anchor="middle" x="151.51" y="-11.5" font-family="Helvetica,sans-Serif" font-size="10.00">src/configdialog.cpp</text>
</a>
</g>
</g>
<!-- Node2&#45;&gt;Node4 -->
<g id="edge3" class="edge">
<title>Node2&#45;&gt;Node4</title>
<path fill="none" stroke="midnightblue" d="M237.1,-60.63C215.71,-49.35 185.26,-33.29 167.03,-23.68"/>
<polygon fill="midnightblue" stroke="midnightblue" points="235.74,-63.87 246.22,-65.44 239.01,-57.68 235.74,-63.87"/>
</g>
<!-- Node5 -->
<g id="node5" class="node">
<title>Node5</title>
<g id="a_node5"><a xlink:href="mainwindow_8cpp.html" target="_top" xlink:title=" ">
<polygon fill="none" stroke="black" points="319.77,-5.5 319.77,-23.5 425.26,-23.5 425.26,-5.5 319.77,-5.5"/>
<text text-anchor="middle" x="372.51" y="-11.5" font-family="Helvetica,sans-Serif" font-size="10.00">src/mainwindow.cpp</text>
</a>
</g>
</g>
<!-- Node2&#45;&gt;Node5 -->
<g id="edge4" class="edge">
<title>Node2&#45;&gt;Node5</title>
<path fill="none" stroke="midnightblue" d="M285.86,-60.78C307.46,-49.49 338.38,-33.34 356.85,-23.68"/>
<polygon fill="midnightblue" stroke="midnightblue" points="284.19,-57.7 276.95,-65.44 287.43,-63.91 284.19,-57.7"/>
</g>
<!-- Node6 -->
<g id="node6" class="node">
<title>Node6</title>
<g id="a_node6"><a xlink:href="qtpass_8cpp.html" target="_top" xlink:title=" ">
<polygon fill="none" stroke="black" points="221.28,-5.5 221.28,-23.5 301.75,-23.5 301.75,-5.5 221.28,-5.5"/>
<text text-anchor="middle" x="261.51" y="-11.5" font-family="Helvetica,sans-Serif" font-size="10.00">src/qtpass.cpp</text>
</a>
</g>
</g>
<!-- Node2&#45;&gt;Node6 -->
<g id="edge5" class="edge">
<title>Node2&#45;&gt;Node6</title>
<path fill="none" stroke="midnightblue" d="M261.51,-55.21C261.51,-44.71 261.51,-32.03 261.51,-23.87"/>
<polygon fill="midnightblue" stroke="midnightblue" points="258.01,-55.44 261.51,-65.44 265.01,-55.44 258.01,-55.44"/>
</g>
<!-- Node7&#45;&gt;Node1 -->
<g id="edge7" class="edge">
<title>Node7&#45;&gt;Node1</title>
<path fill="none" stroke="midnightblue" d="M541.95,-93.53C542.65,-102.58 542.19,-113.1 540.58,-120.22"/>
<polygon fill="midnightblue" stroke="midnightblue" points="545.4,-92.95 540.52,-83.55 538.47,-93.94 545.4,-92.95"/>
</g>
<!-- Node7&#45;&gt;Node5 -->
<g id="edge8" class="edge">
<title>Node7&#45;&gt;Node5</title>
<path fill="none" stroke="midnightblue" d="M503.1,-61.97C471.2,-50.61 423.3,-33.57 395.25,-23.59"/>
<polygon fill="midnightblue" stroke="midnightblue" points="502.26,-65.38 512.85,-65.44 504.6,-58.79 502.26,-65.38"/>
</g>
<!-- Node8 -->
<g id="node8" class="node">
<title>Node8</title>
<g id="a_node8"><a xlink:href="pass_8cpp.html" target="_top" xlink:title=" ">
<polygon fill="none" stroke="black" points="443.45,-5.5 443.45,-23.5 515.58,-23.5 515.58,-5.5 443.45,-5.5"/>
<text text-anchor="middle" x="479.51" y="-11.5" font-family="Helvetica,sans-Serif" font-size="10.00">src/pass.cpp</text>
</a>
</g>
</g>
<!-- Node7&#45;&gt;Node8 -->
<g id="edge9" class="edge">
<title>Node7&#45;&gt;Node8</title>
<path fill="none" stroke="midnightblue" d="M520.71,-58.16C510.11,-47.18 496.23,-32.81 487.6,-23.87"/>
<polygon fill="midnightblue" stroke="midnightblue" points="518.26,-60.67 527.73,-65.44 523.3,-55.81 518.26,-60.67"/>
</g>
<!-- Node9 -->
<g id="node9" class="node">
<title>Node9</title>
<g id="a_node9"><a xlink:href="qtpasssettings_8cpp.html" target="_top" xlink:title=" ">
<polygon fill="none" stroke="black" points="534.05,-5.5 534.05,-23.5 648.98,-23.5 648.98,-5.5 534.05,-5.5"/>
<text text-anchor="middle" x="591.51" y="-11.5" font-family="Helvetica,sans-Serif" font-size="10.00">src/qtpasssettings.cpp</text>
</a>
</g>
</g>
<!-- Node7&#45;&gt;Node9 -->
<g id="edge10" class="edge">
<title>Node7&#45;&gt;Node9</title>
<path fill="none" stroke="midnightblue" d="M550.32,-58.16C560.92,-47.18 574.8,-32.81 583.43,-23.87"/>
<polygon fill="midnightblue" stroke="midnightblue" points="547.73,-55.81 543.3,-65.44 552.77,-60.67 547.73,-55.81"/>
</g>
<!-- Node10 -->
<g id="node10" class="node">
<title>Node10</title>
<g id="a_node10"><a xlink:href="util_8cpp.html" target="_top" xlink:title=" ">
<polygon fill="none" stroke="black" points="666.62,-5.5 666.62,-23.5 730.41,-23.5 730.41,-5.5 666.62,-5.5"/>
<text text-anchor="middle" x="698.51" y="-11.5" font-family="Helvetica,sans-Serif" font-size="10.00">src/util.cpp</text>
</a>
</g>
</g>
<!-- Node7&#45;&gt;Node10 -->
<g id="edge11" class="edge">
<title>Node7&#45;&gt;Node10</title>
<path fill="none" stroke="midnightblue" d="M567.93,-61.97C599.83,-50.61 647.73,-33.57 675.78,-23.59"/>
<polygon fill="midnightblue" stroke="midnightblue" points="566.43,-58.79 558.18,-65.44 568.77,-65.38 566.43,-58.79"/>
</g>
<!-- Node11 -->
<g id="node11" class="node">
<title>Node11</title>
<g id="a_node11"><a xlink:href="tst__util_8cpp.html" target="_top" xlink:title=" ">
<polygon fill="none" stroke="black" points="748.39,-0.5 748.39,-28.5 836.64,-28.5 836.64,-0.5 748.39,-0.5"/>
<text text-anchor="start" x="756.39" y="-16.5" font-family="Helvetica,sans-Serif" font-size="10.00">tests/auto/util/tst</text>
<text text-anchor="middle" x="792.51" y="-6.5" font-family="Helvetica,sans-Serif" font-size="10.00">_util.cpp</text>
</a>
</g>
</g>
<!-- Node7&#45;&gt;Node11 -->
<g id="edge12" class="edge">
<title>Node7&#45;&gt;Node11</title>
<path fill="none" stroke="midnightblue" d="M572.23,-64.88C647.68,-48.05 668.22,-45.71 739.51,-29 742.38,-28.33 745.33,-27.62 748.3,-26.9"/>
<polygon fill="midnightblue" stroke="midnightblue" points="571.23,-61.52 562.24,-67.13 572.76,-68.35 571.23,-61.52"/>
</g>
</g>
</svg>
        <g id="navigator" transform="translate(0 0)" fill="#404254">
                <rect fill="#f2f5e9" fill-opacity="0.5" stroke="#606060" stroke-width=".5" x="0" y="0" width="60" height="60"/>
                <use id="zoomplus" xlink:href="#zoomPlus" x="17" y="9" onmousedown="handleZoom(evt,'in')"/>
                <use id="zoomminus" xlink:href="#zoomMin" x="42" y="9" onmousedown="handleZoom(evt,'out')"/>
                <use id="reset" xlink:href="#resetDef" x="30" y="36" onmousedown="handleReset()"/>
                <g id="arrowUp" xlink:href="#dirArrow" transform="translate(30 24)" onmousedown="handlePan(0,-1)">
                  <use xlink:href="#rim" fill="#404040">
                        <set attributeName="fill" to="#808080" begin="arrowUp.mouseover" end="arrowUp.mouseout"/>
                  </use>
                  <path fill="none" stroke="white" stroke-width="1.5" d="M0,-3.0v7 M-2.5,-0.5L0,-3.0L2.5,-0.5"/>
                </g>
                <g id="arrowRight" xlink:href="#dirArrow" transform="rotate(90) translate(36 -43)" onmousedown="handlePan(1,0)">
                  <use xlink:href="#rim" fill="#404040">
                        <set attributeName="fill" to="#808080" begin="arrowRight.mouseover" end="arrowRight.mouseout"/>
                  </use>
                  <path fill="none" stroke="white" stroke-width="1.5" d="M0,-3.0v7 M-2.5,-0.5L0,-3.0L2.5,-0.5"/>
                </g>
                <g id="arrowDown" xlink:href="#dirArrow" transform="rotate(180) translate(-30 -48)" onmousedown="handlePan(0,1)">
                  <use xlink:href="#rim" fill="#404040">
                        <set attributeName="fill" to="#808080" begin="arrowDown.mouseover" end="arrowDown.mouseout"/>
                  </use>
                  <path fill="none" stroke="white" stroke-width="1.5" d="M0,-3.0v7 M-2.5,-0.5L0,-3.0L2.5,-0.5"/>
                </g>
                <g id="arrowLeft" xlink:href="#dirArrow" transform="rotate(270) translate(-36 17)" onmousedown="handlePan(-1,0)">
                  <use xlink:href="#rim" fill="#404040">
                        <set attributeName="fill" to="#808080" begin="arrowLeft.mouseover" end="arrowLeft.mouseout"/>
                  </use>
                  <path fill="none" stroke="white" stroke-width="1.5" d="M0,-3.0v7 M-2.5,-0.5L0,-3.0L2.5,-0.5"/>
                </g>
        </g>
        <svg viewBox="0 0 15 15" width="100%" height="30px" preserveAspectRatio="xMaxYMin meet">
         <g id="arrow_out" transform="scale(0.3 0.3)">
          <a xlink:href="storemodel_8h__dep__incl_org.svg" target="_base">
           <rect id="button" ry="5" rx="5" y="6" x="6" height="38" width="38"
                fill="#f2f5e9" fill-opacity="0.5" stroke="#606060" stroke-width="1.0"/>
           <path id="arrow"
             d="M 11.500037,31.436501 C 11.940474,20.09759 22.043105,11.32322 32.158766,21.979434 L 37.068811,17.246167 C 37.068811,17.246167 37.088388,32 37.088388,32 L 22.160133,31.978069 C 22.160133,31.978069 26.997745,27.140456 26.997745,27.140456 C 18.528582,18.264221 13.291696,25.230495 11.500037,31.436501 z"
             style="fill:#404040;"/>
          </a>
         </g>
        </svg>
</svg>
