<?xml version="1.0" encoding="UTF-8" standalone="no"?>
<!DOCTYPE svg PUBLIC "-//W3C//DTD SVG 1.1//EN"
 "http://www.w3.org/Graphics/SVG/1.1/DTD/svg11.dtd">
<!-- Generated by graphviz version 2.43.0 (0)
 -->
<!-- Title: src/storemodel.cpp Pages: 1 -->
<svg width="1430pt" height="302pt"
 viewBox="0.00 0.00 1430.00 302.00" xmlns="http://www.w3.org/2000/svg" xmlns:xlink="http://www.w3.org/1999/xlink">
<g id="graph0" class="graph" transform="scale(1 1) rotate(0) translate(4 298)">
<title>src/storemodel.cpp</title>
<!-- Node1 -->
<g id="Node000001" class="node">
<title>Node1</title>
<g id="a_Node000001"><a xlink:title=" ">
<polygon fill="#999999" stroke="#666666" points="1132.5,-294 1022.5,-294 1022.5,-275 1132.5,-275 1132.5,-294"/>
<text text-anchor="middle" x="1077.5" y="-282" font-family="Helvetica,sans-Serif" font-size="10.00">src/storemodel.cpp</text>
</a>
</g>
</g>
<!-- Node2 -->
<g id="Node000002" class="node">
<title>Node2</title>
<g id="a_Node000002"><a xlink:href="storemodel_8h.html" target="_top" xlink:title=" ">
<polygon fill="white" stroke="#666666" points="872,-184 791,-184 791,-165 872,-165 872,-184"/>
<text text-anchor="middle" x="831.5" y="-172" font-family="Helvetica,sans-Serif" font-size="10.00">storemodel.h</text>
</a>
</g>
</g>
<!-- Node1&#45;&gt;Node2 -->
<g id="edge1_Node000001_Node000002" class="edge">
<title>Node1&#45;&gt;Node2</title>
<g id="a_edge1_Node000001_Node000002"><a xlink:title=" ">
<path fill="none" stroke="#63b8ff" d="M1053.03,-274.95C1029.17,-266.44 991.98,-252.7 960.5,-239 923.76,-223.01 882.39,-202.11 856.63,-188.74"/>
<polygon fill="#63b8ff" stroke="#63b8ff" points="858.05,-185.54 847.56,-184.02 854.81,-191.74 858.05,-185.54"/>
</a>
</g>
</g>
<!-- Node4 -->
<g id="Node000004" class="node">
<title>Node4</title>
<g id="a_Node000004"><a xlink:href="qtpasssettings_8h.html" target="_top" xlink:title=" ">
<polygon fill="white" stroke="#666666" points="474,-239 377,-239 377,-220 474,-220 474,-239"/>
<text text-anchor="middle" x="425.5" y="-227" font-family="Helvetica,sans-Serif" font-size="10.00">qtpasssettings.h</text>
</a>
</g>
</g>
<!-- Node1&#45;&gt;Node4 -->
<g id="edge3_Node000001_Node000004" class="edge">
<title>Node1&#45;&gt;Node4</title>
<g id="a_edge3_Node000001_Node000004"><a xlink:title=" ">
<path fill="none" stroke="#63b8ff" d="M1022.47,-279.03C900.79,-269.14 609.75,-245.48 484.48,-235.29"/>
<polygon fill="#63b8ff" stroke="#63b8ff" points="484.57,-231.79 474.32,-234.47 484,-238.77 484.57,-231.79"/>
</a>
</g>
</g>
<!-- Node28 -->
<g id="Node000028" class="node">
<title>Node28</title>
<g id="a_Node000028"><a xlink:href="util_8h.html" target="_top" xlink:title=" ">
<polygon fill="white" stroke="#666666" points="1011,-239 970,-239 970,-220 1011,-220 1011,-239"/>
<text text-anchor="middle" x="990.5" y="-227" font-family="Helvetica,sans-Serif" font-size="10.00">util.h</text>
</a>
</g>
</g>
<!-- Node1&#45;&gt;Node28 -->
<g id="edge35_Node000001_Node000028" class="edge">
<title>Node1&#45;&gt;Node28</title>
<g id="a_edge35_Node000001_Node000028"><a xlink:title=" ">
<path fill="none" stroke="#63b8ff" d="M1063.52,-274.98C1050.03,-266.77 1029.37,-254.18 1013.46,-244.49"/>
<polygon fill="#63b8ff" stroke="#63b8ff" points="1015.09,-241.38 1004.73,-239.17 1011.45,-247.36 1015.09,-241.38"/>
</a>
</g>
</g>
<!-- Node29 -->
<g id="Node000029" class="node">
<title>Node29</title>
<g id="a_Node000029"><a xlink:title=" ">
<polygon fill="#e0e0e0" stroke="#999999" points="1178.5,-184 1070.5,-184 1070.5,-165 1178.5,-165 1178.5,-184"/>
<text text-anchor="middle" x="1124.5" y="-172" font-family="Helvetica,sans-Serif" font-size="10.00">QFileSystemModel</text>
</a>
</g>
</g>
<!-- Node1&#45;&gt;Node29 -->
<g id="edge42_Node000001_Node000029" class="edge">
<title>Node1&#45;&gt;Node29</title>
<g id="a_edge42_Node000001_Node000029"><a xlink:title=" ">
<path fill="none" stroke="#63b8ff" d="M1072.1,-274.82C1064.95,-262.15 1054.29,-238.11 1063.5,-220 1070.27,-206.68 1083.1,-196.41 1095.25,-189.1"/>
<polygon fill="#63b8ff" stroke="#63b8ff" points="1097.25,-191.99 1104.3,-184.09 1093.86,-185.87 1097.25,-191.99"/>
</a>
</g>
</g>
<!-- Node31 -->
<g id="Node000031" class="node">
<title>Node31</title>
<g id="a_Node000031"><a xlink:title=" ">
<polygon fill="#e0e0e0" stroke="#999999" points="1312,-184 1197,-184 1197,-165 1312,-165 1312,-184"/>
<text text-anchor="middle" x="1254.5" y="-172" font-family="Helvetica,sans-Serif" font-size="10.00">QRegularExpression</text>
</a>
</g>
</g>
<!-- Node1&#45;&gt;Node31 -->
<g id="edge45_Node000001_Node000031" class="edge">
<title>Node1&#45;&gt;Node31</title>
<g id="a_edge45_Node000001_Node000031"><a xlink:title=" ">
<path fill="none" stroke="#63b8ff" d="M1077.58,-274.78C1078.2,-261.16 1081.41,-234.85 1096.5,-220 1110.67,-206.06 1156.33,-194.09 1194.95,-186.09"/>
<polygon fill="#63b8ff" stroke="#63b8ff" points="1195.99,-189.45 1205.1,-184.04 1194.61,-182.59 1195.99,-189.45"/>
</a>
</g>
</g>
<!-- Node32 -->
<g id="Node000032" class="node">
<title>Node32</title>
<g id="a_Node000032"><a xlink:title=" ">
<polygon fill="#e0e0e0" stroke="#999999" points="1161.5,-239 1105.5,-239 1105.5,-220 1161.5,-220 1161.5,-239"/>
<text text-anchor="middle" x="1133.5" y="-227" font-family="Helvetica,sans-Serif" font-size="10.00">QDebug</text>
</a>
</g>
</g>
<!-- Node1&#45;&gt;Node32 -->
<g id="edge41_Node000001_Node000032" class="edge">
<title>Node1&#45;&gt;Node32</title>
<g id="a_edge41_Node000001_Node000032"><a xlink:title=" ">
<path fill="none" stroke="#63b8ff" d="M1086.5,-274.98C1094.69,-267.23 1107.01,-255.58 1116.97,-246.14"/>
<polygon fill="#63b8ff" stroke="#63b8ff" points="1119.48,-248.59 1124.34,-239.17 1114.67,-243.5 1119.48,-248.59"/>
</a>
</g>
</g>
<!-- Node33 -->
<g id="Node000033" class="node">
<title>Node33</title>
<g id="a_Node000033"><a xlink:title=" ">
<polygon fill="#e0e0e0" stroke="#999999" points="1265.5,-239 1179.5,-239 1179.5,-220 1265.5,-220 1265.5,-239"/>
<text text-anchor="middle" x="1222.5" y="-227" font-family="Helvetica,sans-Serif" font-size="10.00">QMessageBox</text>
</a>
</g>
</g>
<!-- Node1&#45;&gt;Node33 -->
<g id="edge43_Node000001_Node000033" class="edge">
<title>Node1&#45;&gt;Node33</title>
<g id="a_edge43_Node000001_Node000033"><a xlink:title=" ">
<path fill="none" stroke="#63b8ff" d="M1100.8,-274.98C1124.75,-266.23 1162.28,-252.51 1189.33,-242.62"/>
<polygon fill="#63b8ff" stroke="#63b8ff" points="1190.59,-245.89 1198.78,-239.17 1188.19,-239.32 1190.59,-245.89"/>
</a>
</g>
</g>
<!-- Node34 -->
<g id="Node000034" class="node">
<title>Node34</title>
<g id="a_Node000034"><a xlink:title=" ">
<polygon fill="#e0e0e0" stroke="#999999" points="1359,-239 1284,-239 1284,-220 1359,-220 1359,-239"/>
<text text-anchor="middle" x="1321.5" y="-227" font-family="Helvetica,sans-Serif" font-size="10.00">QMimeData</text>
</a>
</g>
</g>
<!-- Node1&#45;&gt;Node34 -->
<g id="edge44_Node000001_Node000034" class="edge">
<title>Node1&#45;&gt;Node34</title>
<g id="a_edge44_Node000001_Node000034"><a xlink:title=" ">
<path fill="none" stroke="#63b8ff" d="M1116.7,-274.98C1159.54,-265.68 1228.15,-250.78 1274,-240.82"/>
<polygon fill="#63b8ff" stroke="#63b8ff" points="1274.97,-244.19 1284,-238.65 1273.48,-237.35 1274.97,-244.19"/>
</a>
</g>
</g>
<!-- Node35 -->
<g id="Node000035" class="node">
<title>Node35</title>
<g id="a_Node000035"><a xlink:title=" ">
<polygon fill="#e0e0e0" stroke="#999999" points="1422,-239 1377,-239 1377,-220 1422,-220 1422,-239"/>
<text text-anchor="middle" x="1399.5" y="-227" font-family="Helvetica,sans-Serif" font-size="10.00">utility</text>
</a>
</g>
</g>
<!-- Node1&#45;&gt;Node35 -->
<g id="edge46_Node000001_Node000035" class="edge">
<title>Node1&#45;&gt;Node35</title>
<g id="a_edge46_Node000001_Node000035"><a xlink:title=" ">
<path fill="none" stroke="#63b8ff" d="M1132.55,-277.01C1189.14,-269.91 1279.97,-257.32 1366.86,-239.15"/>
<polygon fill="#63b8ff" stroke="#63b8ff" points="1367.83,-242.52 1376.89,-237.03 1366.38,-235.68 1367.83,-242.52"/>
</a>
</g>
</g>
<!-- Node3 -->
<g id="Node000003" class="node">
<title>Node3</title>
<g id="a_Node000003"><a xlink:title=" ">
<polygon fill="#e0e0e0" stroke="#999999" points="872.5,-129 746.5,-129 746.5,-110 872.5,-110 872.5,-129"/>
<text text-anchor="middle" x="809.5" y="-117" font-family="Helvetica,sans-Serif" font-size="10.00">QSortFilterProxyModel</text>
</a>
</g>
</g>
<!-- Node2&#45;&gt;Node3 -->
<g id="edge2_Node000002_Node000003" class="edge">
<title>Node2&#45;&gt;Node3</title>
<g id="a_edge2_Node000002_Node000003"><a xlink:title=" ">
<path fill="none" stroke="#63b8ff" d="M827.87,-164.75C824.92,-157.65 820.67,-147.4 816.99,-138.56"/>
<polygon fill="#63b8ff" stroke="#63b8ff" points="820.13,-136.98 813.07,-129.09 813.67,-139.67 820.13,-136.98"/>
</a>
</g>
</g>
<!-- Node5 -->
<g id="Node000005" class="node">
<title>Node5</title>
<g id="a_Node000005"><a xlink:href="enums_8h.html" target="_top" xlink:title=" ">
<polygon fill="white" stroke="#666666" points="59,-74 0,-74 0,-55 59,-55 59,-74"/>
<text text-anchor="middle" x="29.5" y="-62" font-family="Helvetica,sans-Serif" font-size="10.00">enums.h</text>
</a>
</g>
</g>
<!-- Node4&#45;&gt;Node5 -->
<g id="edge4_Node000004_Node000005" class="edge">
<title>Node4&#45;&gt;Node5</title>
<g id="a_edge4_Node000004_Node000005"><a xlink:title=" ">
<path fill="none" stroke="#63b8ff" d="M376.72,-228.26C291.11,-226.89 118.41,-219.65 71.5,-184 40.18,-160.19 32.14,-111.16 30.13,-84.23"/>
<polygon fill="#63b8ff" stroke="#63b8ff" points="33.62,-83.98 29.58,-74.18 26.63,-84.36 33.62,-83.98"/>
</a>
</g>
</g>
<!-- Node6 -->
<g id="Node000006" class="node">
<title>Node6</title>
<g id="a_Node000006"><a xlink:href="imitatepass_8h.html" target="_top" xlink:title=" ">
<polygon fill="white" stroke="#666666" points="164,-184 81,-184 81,-165 164,-165 164,-184"/>
<text text-anchor="middle" x="122.5" y="-172" font-family="Helvetica,sans-Serif" font-size="10.00">imitatepass.h</text>
</a>
</g>
</g>
<!-- Node4&#45;&gt;Node6 -->
<g id="edge5_Node000004_Node000006" class="edge">
<title>Node4&#45;&gt;Node6</title>
<g id="a_edge5_Node000004_Node000006"><a xlink:title=" ">
<path fill="none" stroke="#63b8ff" d="M376.82,-219.98C321.38,-210.29 231.17,-194.51 174.42,-184.58"/>
<polygon fill="#63b8ff" stroke="#63b8ff" points="174.69,-181.08 164.23,-182.8 173.48,-187.97 174.69,-181.08"/>
</a>
</g>
</g>
<!-- Node19 -->
<g id="Node000019" class="node">
<title>Node19</title>
<g id="a_Node000019"><a xlink:href="passwordconfiguration_8h.html" target="_top" xlink:title=" ">
<polygon fill="white" stroke="#666666" points="634.5,-129 498.5,-129 498.5,-110 634.5,-110 634.5,-129"/>
<text text-anchor="middle" x="566.5" y="-117" font-family="Helvetica,sans-Serif" font-size="10.00">passwordconfiguration.h</text>
</a>
</g>
</g>
<!-- Node4&#45;&gt;Node19 -->
<g id="edge23_Node000004_Node000019" class="edge">
<title>Node4&#45;&gt;Node19</title>
<g id="a_edge23_Node000004_Node000019"><a xlink:title=" ">
<path fill="none" stroke="#63b8ff" d="M419.57,-219.76C411.43,-206.58 399.14,-181.41 411.5,-165 422.79,-150.01 464.74,-138.52 502.15,-130.97"/>
<polygon fill="#63b8ff" stroke="#63b8ff" points="502.91,-134.39 512.05,-129.05 501.57,-127.52 502.91,-134.39"/>
</a>
</g>
</g>
<!-- Node20 -->
<g id="Node000020" class="node">
<title>Node20</title>
<g id="a_Node000020"><a xlink:href="realpass_8h.html" target="_top" xlink:title=" ">
<polygon fill="white" stroke="#666666" points="326,-184 259,-184 259,-165 326,-165 326,-184"/>
<text text-anchor="middle" x="292.5" y="-172" font-family="Helvetica,sans-Serif" font-size="10.00">realpass.h</text>
</a>
</g>
</g>
<!-- Node4&#45;&gt;Node20 -->
<g id="edge25_Node000004_Node000020" class="edge">
<title>Node4&#45;&gt;Node20</title>
<g id="a_edge25_Node000004_Node000020"><a xlink:title=" ">
<path fill="none" stroke="#63b8ff" d="M404.13,-219.98C382.35,-211.3 348.34,-197.75 323.58,-187.88"/>
<polygon fill="#63b8ff" stroke="#63b8ff" points="324.84,-184.62 314.26,-184.17 322.25,-191.12 324.84,-184.62"/>
</a>
</g>
</g>
<!-- Node21 -->
<g id="Node000021" class="node">
<title>Node21</title>
<g id="a_Node000021"><a xlink:href="settingsconstants_8h.html" target="_top" xlink:title=" ">
<polygon fill="white" stroke="#666666" points="463.5,-129 351.5,-129 351.5,-110 463.5,-110 463.5,-129"/>
<text text-anchor="middle" x="407.5" y="-117" font-family="Helvetica,sans-Serif" font-size="10.00">settingsconstants.h</text>
</a>
</g>
</g>
<!-- Node4&#45;&gt;Node21 -->
<g id="edge27_Node000004_Node000021" class="edge">
<title>Node4&#45;&gt;Node21</title>
<g id="a_edge27_Node000004_Node000021"><a xlink:title=" ">
<path fill="none" stroke="#63b8ff" d="M411.43,-219.89C400.15,-212.1 385.16,-199.48 378.5,-184 371.57,-167.9 381.73,-149.72 391.88,-136.96"/>
<polygon fill="#63b8ff" stroke="#63b8ff" points="394.8,-138.93 398.69,-129.07 389.5,-134.35 394.8,-138.93"/>
</a>
</g>
</g>
<!-- Node22 -->
<g id="Node000022" class="node">
<title>Node22</title>
<g id="a_Node000022"><a xlink:title=" ">
<polygon fill="#e0e0e0" stroke="#999999" points="494,-184 421,-184 421,-165 494,-165 494,-184"/>
<text text-anchor="middle" x="457.5" y="-172" font-family="Helvetica,sans-Serif" font-size="10.00">QByteArray</text>
</a>
</g>
</g>
<!-- Node4&#45;&gt;Node22 -->
<g id="edge29_Node000004_Node000022" class="edge">
<title>Node4&#45;&gt;Node22</title>
<g id="a_edge29_Node000004_Node000022"><a xlink:title=" ">
<path fill="none" stroke="#63b8ff" d="M430.78,-219.75C435.21,-212.42 441.66,-201.73 447.12,-192.7"/>
<polygon fill="#63b8ff" stroke="#63b8ff" points="450.14,-194.46 452.31,-184.09 444.15,-190.84 450.14,-194.46"/>
</a>
</g>
</g>
<!-- Node23 -->
<g id="Node000023" class="node">
<title>Node23</title>
<g id="a_Node000023"><a xlink:title=" ">
<polygon fill="#e0e0e0" stroke="#999999" points="561,-184 512,-184 512,-165 561,-165 561,-184"/>
<text text-anchor="middle" x="536.5" y="-172" font-family="Helvetica,sans-Serif" font-size="10.00">QHash</text>
</a>
</g>
</g>
<!-- Node4&#45;&gt;Node23 -->
<g id="edge30_Node000004_Node000023" class="edge">
<title>Node4&#45;&gt;Node23</title>
<g id="a_edge30_Node000004_Node000023"><a xlink:title=" ">
<path fill="none" stroke="#63b8ff" d="M443.33,-219.98C461.11,-211.5 488.65,-198.35 509.18,-188.54"/>
<polygon fill="#63b8ff" stroke="#63b8ff" points="510.83,-191.64 518.34,-184.17 507.81,-185.32 510.83,-191.64"/>
</a>
</g>
</g>
<!-- Node24 -->
<g id="Node000024" class="node">
<title>Node24</title>
<g id="a_Node000024"><a xlink:title=" ">
<polygon fill="#e0e0e0" stroke="#999999" points="628,-184 579,-184 579,-165 628,-165 628,-184"/>
<text text-anchor="middle" x="603.5" y="-172" font-family="Helvetica,sans-Serif" font-size="10.00">QPoint</text>
</a>
</g>
</g>
<!-- Node4&#45;&gt;Node24 -->
<g id="edge31_Node000004_Node000024" class="edge">
<title>Node4&#45;&gt;Node24</title>
<g id="a_edge31_Node000004_Node000024"><a xlink:title=" ">
<path fill="none" stroke="#63b8ff" d="M454.1,-219.98C485.45,-210.65 535.73,-195.68 569.18,-185.72"/>
<polygon fill="#63b8ff" stroke="#63b8ff" points="570.4,-189.01 578.98,-182.8 568.4,-182.3 570.4,-189.01"/>
</a>
</g>
</g>
<!-- Node25 -->
<g id="Node000025" class="node">
<title>Node25</title>
<g id="a_Node000025"><a xlink:title=" ">
<polygon fill="#e0e0e0" stroke="#999999" points="710.5,-184 646.5,-184 646.5,-165 710.5,-165 710.5,-184"/>
<text text-anchor="middle" x="678.5" y="-172" font-family="Helvetica,sans-Serif" font-size="10.00">QSettings</text>
</a>
</g>
</g>
<!-- Node4&#45;&gt;Node25 -->
<g id="edge32_Node000004_Node000025" class="edge">
<title>Node4&#45;&gt;Node25</title>
<g id="a_edge32_Node000004_Node000025"><a xlink:title=" ">
<path fill="none" stroke="#63b8ff" d="M466.15,-219.98C512.87,-210.2 589.16,-194.21 636.46,-184.31"/>
<polygon fill="#63b8ff" stroke="#63b8ff" points="637.31,-187.7 646.38,-182.23 635.87,-180.85 637.31,-187.7"/>
</a>
</g>
</g>
<!-- Node26 -->
<g id="Node000026" class="node">
<title>Node26</title>
<g id="a_Node000026"><a xlink:title=" ">
<polygon fill="#e0e0e0" stroke="#999999" points="772.5,-184 728.5,-184 728.5,-165 772.5,-165 772.5,-184"/>
<text text-anchor="middle" x="750.5" y="-172" font-family="Helvetica,sans-Serif" font-size="10.00">QSize</text>
</a>
</g>
</g>
<!-- Node4&#45;&gt;Node26 -->
<g id="edge33_Node000004_Node000026" class="edge">
<title>Node4&#45;&gt;Node26</title>
<g id="a_edge33_Node000004_Node000026"><a xlink:title=" ">
<path fill="none" stroke="#63b8ff" d="M474.2,-222.91C530.71,-216.02 626.84,-203.1 718.25,-184.05"/>
<polygon fill="#63b8ff" stroke="#63b8ff" points="719.16,-187.44 728.23,-181.94 717.72,-180.59 719.16,-187.44"/>
</a>
</g>
</g>
<!-- Node27 -->
<g id="Node000027" class="node">
<title>Node27</title>
<g id="a_Node000027"><a xlink:title=" ">
<polygon fill="#e0e0e0" stroke="#999999" points="241,-184 182,-184 182,-165 241,-165 241,-184"/>
<text text-anchor="middle" x="211.5" y="-172" font-family="Helvetica,sans-Serif" font-size="10.00">QVariant</text>
</a>
</g>
</g>
<!-- Node4&#45;&gt;Node27 -->
<g id="edge34_Node000004_Node000027" class="edge">
<title>Node4&#45;&gt;Node27</title>
<g id="a_edge34_Node000004_Node000027"><a xlink:title=" ">
<path fill="none" stroke="#63b8ff" d="M391.12,-219.98C352.89,-210.52 291.24,-195.25 251.04,-185.29"/>
<polygon fill="#63b8ff" stroke="#63b8ff" points="251.86,-181.89 241.31,-182.88 250.18,-188.68 251.86,-181.89"/>
</a>
</g>
</g>
<!-- Node7 -->
<g id="Node000007" class="node">
<title>Node7</title>
<g id="a_Node000007"><a xlink:href="pass_8h.html" target="_top" xlink:title=" ">
<polygon fill="white" stroke="#666666" points="316.5,-129 268.5,-129 268.5,-110 316.5,-110 316.5,-129"/>
<text text-anchor="middle" x="292.5" y="-117" font-family="Helvetica,sans-Serif" font-size="10.00">pass.h</text>
</a>
</g>
</g>
<!-- Node6&#45;&gt;Node7 -->
<g id="edge6_Node000006_Node000007" class="edge">
<title>Node6&#45;&gt;Node7</title>
<g id="a_edge6_Node000006_Node000007"><a xlink:title=" ">
<path fill="none" stroke="#63b8ff" d="M149.81,-164.98C179.37,-155.77 226.55,-141.06 258.49,-131.1"/>
<polygon fill="#63b8ff" stroke="#63b8ff" points="259.78,-134.37 268.28,-128.05 257.69,-127.69 259.78,-134.37"/>
</a>
</g>
</g>
<!-- Node17 -->
<g id="Node000017" class="node">
<title>Node17</title>
<g id="a_Node000017"><a xlink:href="simpletransaction_8h.html" target="_top" xlink:title=" ">
<polygon fill="white" stroke="#666666" points="171,-129 58,-129 58,-110 171,-110 171,-129"/>
<text text-anchor="middle" x="114.5" y="-117" font-family="Helvetica,sans-Serif" font-size="10.00">simpletransaction.h</text>
</a>
</g>
</g>
<!-- Node6&#45;&gt;Node17 -->
<g id="edge20_Node000006_Node000017" class="edge">
<title>Node6&#45;&gt;Node17</title>
<g id="a_edge20_Node000006_Node000017"><a xlink:title=" ">
<path fill="none" stroke="#63b8ff" d="M121.18,-164.75C120.13,-157.8 118.63,-147.85 117.31,-139.13"/>
<polygon fill="#63b8ff" stroke="#63b8ff" points="120.75,-138.45 115.8,-129.09 113.83,-139.5 120.75,-138.45"/>
</a>
</g>
</g>
<!-- Node7&#45;&gt;Node5 -->
<g id="edge7_Node000007_Node000005" class="edge">
<title>Node7&#45;&gt;Node5</title>
<g id="a_edge7_Node000007_Node000005"><a xlink:title=" ">
<path fill="none" stroke="#63b8ff" d="M268.48,-113.95C228.99,-106.43 147.6,-90.75 69.37,-74.36"/>
<polygon fill="#63b8ff" stroke="#63b8ff" points="69.86,-70.88 59.36,-72.25 68.42,-77.73 69.86,-70.88"/>
</a>
</g>
</g>
<!-- Node8 -->
<g id="Node000008" class="node">
<title>Node8</title>
<g id="a_Node000008"><a xlink:href="executor_8h.html" target="_top" xlink:title=" ">
<polygon fill="white" stroke="#666666" points="248,-74 181,-74 181,-55 248,-55 248,-74"/>
<text text-anchor="middle" x="214.5" y="-62" font-family="Helvetica,sans-Serif" font-size="10.00">executor.h</text>
</a>
</g>
</g>
<!-- Node7&#45;&gt;Node8 -->
<g id="edge8_Node000007_Node000008" class="edge">
<title>Node7&#45;&gt;Node8</title>
<g id="a_edge8_Node000007_Node000008"><a xlink:title=" ">
<path fill="none" stroke="#63b8ff" d="M279.97,-109.98C268.1,-101.92 250.04,-89.65 235.89,-80.03"/>
<polygon fill="#63b8ff" stroke="#63b8ff" points="237.5,-76.9 227.26,-74.17 233.56,-82.69 237.5,-76.9"/>
</a>
</g>
</g>
<!-- Node10 -->
<g id="Node000010" class="node">
<title>Node10</title>
<g id="a_Node000010"><a xlink:title=" ">
<polygon fill="#e0e0e0" stroke="#999999" points="183.5,-19 121.5,-19 121.5,0 183.5,0 183.5,-19"/>
<text text-anchor="middle" x="152.5" y="-7" font-family="Helvetica,sans-Serif" font-size="10.00">QProcess</text>
</a>
</g>
</g>
<!-- Node7&#45;&gt;Node10 -->
<g id="edge15_Node000007_Node000010" class="edge">
<title>Node7&#45;&gt;Node10</title>
<g id="a_edge15_Node000007_Node000010"><a xlink:title=" ">
<path fill="none" stroke="#63b8ff" d="M268.08,-115.98C240.79,-111.87 197.1,-101.23 171.5,-74 160.06,-61.83 155.48,-43.04 153.67,-29.05"/>
<polygon fill="#63b8ff" stroke="#63b8ff" points="157.15,-28.71 152.72,-19.08 150.18,-29.37 157.15,-28.71"/>
</a>
</g>
</g>
<!-- Node11 -->
<g id="Node000011" class="node">
<title>Node11</title>
<g id="a_Node000011"><a xlink:title=" ">
<polygon fill="#e0e0e0" stroke="#999999" points="370.5,-19 314.5,-19 314.5,0 370.5,0 370.5,-19"/>
<text text-anchor="middle" x="342.5" y="-7" font-family="Helvetica,sans-Serif" font-size="10.00">QQueue</text>
</a>
</g>
</g>
<!-- Node7&#45;&gt;Node11 -->
<g id="edge16_Node000007_Node000011" class="edge">
<title>Node7&#45;&gt;Node11</title>
<g id="a_edge16_Node000007_Node000011"><a xlink:title=" ">
<path fill="none" stroke="#63b8ff" d="M316.66,-114.09C338.36,-108.71 368.97,-97.27 383.5,-74 393.94,-57.28 378.01,-38.32 363.07,-25.51"/>
<polygon fill="#63b8ff" stroke="#63b8ff" points="365.04,-22.6 355.04,-19.07 360.66,-28.06 365.04,-22.6"/>
</a>
</g>
</g>
<!-- Node12 -->
<g id="Node000012" class="node">
<title>Node12</title>
<g id="a_Node000012"><a xlink:href="userinfo_8h.html" target="_top" xlink:title=" ">
<polygon fill="white" stroke="#666666" points="496,-74 431,-74 431,-55 496,-55 496,-74"/>
<text text-anchor="middle" x="463.5" y="-62" font-family="Helvetica,sans-Serif" font-size="10.00">userinfo.h</text>
</a>
</g>
</g>
<!-- Node7&#45;&gt;Node12 -->
<g id="edge12_Node000007_Node000012" class="edge">
<title>Node7&#45;&gt;Node12</title>
<g id="a_edge12_Node000007_Node000012"><a xlink:title=" ">
<path fill="none" stroke="#63b8ff" d="M316.64,-111.02C345.09,-102.2 392.7,-87.44 425.97,-77.13"/>
<polygon fill="#63b8ff" stroke="#63b8ff" points="427.29,-80.39 435.8,-74.08 425.21,-73.7 427.29,-80.39"/>
</a>
</g>
</g>
<!-- Node14 -->
<g id="Node000014" class="node">
<title>Node14</title>
<g id="a_Node000014"><a xlink:title=" ">
<polygon fill="#e0e0e0" stroke="#999999" points="589,-19 536,-19 536,0 589,0 589,-19"/>
<text text-anchor="middle" x="562.5" y="-7" font-family="Helvetica,sans-Serif" font-size="10.00">QString</text>
</a>
</g>
</g>
<!-- Node7&#45;&gt;Node14 -->
<g id="edge17_Node000007_Node000014" class="edge">
<title>Node7&#45;&gt;Node14</title>
<g id="a_edge17_Node000007_Node000014"><a xlink:title=" ">
<path fill="none" stroke="#63b8ff" d="M316.54,-114.31C368.56,-105.13 488.21,-83.3 504.5,-74 524.28,-62.7 541.09,-42.32 551.44,-27.69"/>
<polygon fill="#63b8ff" stroke="#63b8ff" points="554.57,-29.3 557.27,-19.06 548.77,-25.38 554.57,-29.3"/>
</a>
</g>
</g>
<!-- Node15 -->
<g id="Node000015" class="node">
<title>Node15</title>
<g id="a_Node000015"><a xlink:title=" ">
<polygon fill="#e0e0e0" stroke="#999999" points="318.5,-74 266.5,-74 266.5,-55 318.5,-55 318.5,-74"/>
<text text-anchor="middle" x="292.5" y="-62" font-family="Helvetica,sans-Serif" font-size="10.00">cassert</text>
</a>
</g>
</g>
<!-- Node7&#45;&gt;Node15 -->
<g id="edge18_Node000007_Node000015" class="edge">
<title>Node7&#45;&gt;Node15</title>
<g id="a_edge18_Node000007_Node000015"><a xlink:title=" ">
<path fill="none" stroke="#63b8ff" d="M292.5,-109.75C292.5,-102.8 292.5,-92.85 292.5,-84.13"/>
<polygon fill="#63b8ff" stroke="#63b8ff" points="296,-84.09 292.5,-74.09 289,-84.09 296,-84.09"/>
</a>
</g>
</g>
<!-- Node16 -->
<g id="Node000016" class="node">
<title>Node16</title>
<g id="a_Node000016"><a xlink:title=" ">
<polygon fill="#e0e0e0" stroke="#999999" points="374.5,-74 336.5,-74 336.5,-55 374.5,-55 374.5,-74"/>
<text text-anchor="middle" x="355.5" y="-62" font-family="Helvetica,sans-Serif" font-size="10.00">map</text>
</a>
</g>
</g>
<!-- Node7&#45;&gt;Node16 -->
<g id="edge19_Node000007_Node000016" class="edge">
<title>Node7&#45;&gt;Node16</title>
<g id="a_edge19_Node000007_Node000016"><a xlink:title=" ">
<path fill="none" stroke="#63b8ff" d="M302.62,-109.98C311.94,-102.15 325.97,-90.34 337.24,-80.86"/>
<polygon fill="#63b8ff" stroke="#63b8ff" points="339.79,-83.29 345.19,-74.17 335.29,-77.93 339.79,-83.29"/>
</a>
</g>
</g>
<!-- Node9 -->
<g id="Node000009" class="node">
<title>Node9</title>
<g id="a_Node000009"><a xlink:title=" ">
<polygon fill="#e0e0e0" stroke="#999999" points="257.5,-19 201.5,-19 201.5,0 257.5,0 257.5,-19"/>
<text text-anchor="middle" x="229.5" y="-7" font-family="Helvetica,sans-Serif" font-size="10.00">QObject</text>
</a>
</g>
</g>
<!-- Node8&#45;&gt;Node9 -->
<g id="edge9_Node000008_Node000009" class="edge">
<title>Node8&#45;&gt;Node9</title>
<g id="a_edge9_Node000008_Node000009"><a xlink:title=" ">
<path fill="none" stroke="#63b8ff" d="M216.98,-54.75C218.96,-47.72 221.82,-37.62 224.31,-28.84"/>
<polygon fill="#63b8ff" stroke="#63b8ff" points="227.71,-29.66 227.07,-19.09 220.98,-27.76 227.71,-29.66"/>
</a>
</g>
</g>
<!-- Node8&#45;&gt;Node10 -->
<g id="edge10_Node000008_Node000010" class="edge">
<title>Node8&#45;&gt;Node10</title>
<g id="a_edge10_Node000008_Node000010"><a xlink:title=" ">
<path fill="none" stroke="#63b8ff" d="M204.54,-54.98C195.37,-47.15 181.56,-35.34 170.47,-25.86"/>
<polygon fill="#63b8ff" stroke="#63b8ff" points="172.52,-23.01 162.64,-19.17 167.97,-28.33 172.52,-23.01"/>
</a>
</g>
</g>
<!-- Node8&#45;&gt;Node11 -->
<g id="edge11_Node000008_Node000011" class="edge">
<title>Node8&#45;&gt;Node11</title>
<g id="a_edge11_Node000008_Node000011"><a xlink:title=" ">
<path fill="none" stroke="#63b8ff" d="M235.07,-54.98C255.93,-46.34 288.47,-32.87 312.27,-23.02"/>
<polygon fill="#63b8ff" stroke="#63b8ff" points="313.66,-26.23 321.56,-19.17 310.98,-19.76 313.66,-26.23"/>
</a>
</g>
</g>
<!-- Node13 -->
<g id="Node000013" class="node">
<title>Node13</title>
<g id="a_Node000013"><a xlink:title=" ">
<polygon fill="#e0e0e0" stroke="#999999" points="499.5,-19 427.5,-19 427.5,0 499.5,0 499.5,-19"/>
<text text-anchor="middle" x="463.5" y="-7" font-family="Helvetica,sans-Serif" font-size="10.00">QDateTime</text>
</a>
</g>
</g>
<!-- Node12&#45;&gt;Node13 -->
<g id="edge13_Node000012_Node000013" class="edge">
<title>Node12&#45;&gt;Node13</title>
<g id="a_edge13_Node000012_Node000013"><a xlink:title=" ">
<path fill="none" stroke="#63b8ff" d="M463.5,-54.75C463.5,-47.8 463.5,-37.85 463.5,-29.13"/>
<polygon fill="#63b8ff" stroke="#63b8ff" points="467,-29.09 463.5,-19.09 460,-29.09 467,-29.09"/>
</a>
</g>
</g>
<!-- Node12&#45;&gt;Node14 -->
<g id="edge14_Node000012_Node000014" class="edge">
<title>Node12&#45;&gt;Node14</title>
<g id="a_edge14_Node000012_Node000014"><a xlink:title=" ">
<path fill="none" stroke="#63b8ff" d="M479.41,-54.98C495.05,-46.61 519.16,-33.7 537.38,-23.95"/>
<polygon fill="#63b8ff" stroke="#63b8ff" points="539.14,-26.98 546.3,-19.17 535.84,-20.8 539.14,-26.98"/>
</a>
</g>
</g>
<!-- Node17&#45;&gt;Node5 -->
<g id="edge21_Node000017_Node000005" class="edge">
<title>Node17&#45;&gt;Node5</title>
<g id="a_edge21_Node000017_Node000005"><a xlink:title=" ">
<path fill="none" stroke="#63b8ff" d="M100.84,-109.98C87.66,-101.77 67.47,-89.18 51.93,-79.49"/>
<polygon fill="#63b8ff" stroke="#63b8ff" points="53.74,-76.49 43.41,-74.17 50.04,-82.43 53.74,-76.49"/>
</a>
</g>
</g>
<!-- Node18 -->
<g id="Node000018" class="node">
<title>Node18</title>
<g id="a_Node000018"><a xlink:title=" ">
<polygon fill="#e0e0e0" stroke="#999999" points="124,-74 77,-74 77,-55 124,-55 124,-74"/>
<text text-anchor="middle" x="100.5" y="-62" font-family="Helvetica,sans-Serif" font-size="10.00">queue</text>
</a>
</g>
</g>
<!-- Node17&#45;&gt;Node18 -->
<g id="edge22_Node000017_Node000018" class="edge">
<title>Node17&#45;&gt;Node18</title>
<g id="a_edge22_Node000017_Node000018"><a xlink:title=" ">
<path fill="none" stroke="#63b8ff" d="M112.19,-109.75C110.33,-102.72 107.66,-92.62 105.35,-83.84"/>
<polygon fill="#63b8ff" stroke="#63b8ff" points="108.71,-82.86 102.77,-74.09 101.94,-84.65 108.71,-82.86"/>
</a>
</g>
</g>
<!-- Node19&#45;&gt;Node14 -->
<g id="edge24_Node000019_Node000014" class="edge">
<title>Node19&#45;&gt;Node14</title>
<g id="a_edge24_Node000019_Node000014"><a xlink:title=" ">
<path fill="none" stroke="#63b8ff" d="M569.56,-109.88C573.5,-97.66 579.52,-74.63 576.5,-55 575.15,-46.19 572.37,-36.74 569.65,-28.82"/>
<polygon fill="#63b8ff" stroke="#63b8ff" points="572.84,-27.35 566.1,-19.18 566.27,-29.77 572.84,-27.35"/>
</a>
</g>
</g>
<!-- Node20&#45;&gt;Node7 -->
<g id="edge26_Node000020_Node000007" class="edge">
<title>Node20&#45;&gt;Node7</title>
<g id="a_edge26_Node000020_Node000007"><a xlink:title=" ">
<path fill="none" stroke="#63b8ff" d="M292.5,-164.75C292.5,-157.8 292.5,-147.85 292.5,-139.13"/>
<polygon fill="#63b8ff" stroke="#63b8ff" points="296,-139.09 292.5,-129.09 289,-139.09 296,-139.09"/>
</a>
</g>
</g>
<!-- Node21&#45;&gt;Node14 -->
<g id="edge28_Node000021_Node000014" class="edge">
<title>Node21&#45;&gt;Node14</title>
<g id="a_edge28_Node000021_Node000014"><a xlink:title=" ">
<path fill="none" stroke="#63b8ff" d="M463.55,-110.66C489.2,-104.51 518.29,-93.53 538.5,-74 550.8,-62.11 556.87,-43.28 559.82,-29.21"/>
<polygon fill="#63b8ff" stroke="#63b8ff" points="563.3,-29.62 561.57,-19.17 556.4,-28.42 563.3,-29.62"/>
</a>
</g>
</g>
<!-- Node28&#45;&gt;Node2 -->
<g id="edge36_Node000028_Node000002" class="edge">
<title>Node28&#45;&gt;Node2</title>
<g id="a_edge36_Node000028_Node000002"><a xlink:title=" ">
<path fill="none" stroke="#63b8ff" d="M969.71,-221.57C943.58,-212.86 898.34,-197.78 866.76,-187.25"/>
<polygon fill="#63b8ff" stroke="#63b8ff" points="867.62,-183.85 857.02,-184.01 865.4,-190.49 867.62,-183.85"/>
</a>
</g>
</g>
<!-- Node28&#45;&gt;Node14 -->
<g id="edge40_Node000028_Node000014" class="edge">
<title>Node28&#45;&gt;Node14</title>
<g id="a_edge40_Node000028_Node000014"><a xlink:title=" ">
<path fill="none" stroke="#63b8ff" d="M971.03,-219.89C955.52,-212.26 934.06,-199.86 919.5,-184 894.5,-156.76 909.79,-133.8 881.5,-110 797.6,-39.42 663.74,-18.83 599.39,-12.88"/>
<polygon fill="#63b8ff" stroke="#63b8ff" points="599.58,-9.38 589.31,-12.01 598.98,-16.35 599.58,-9.38"/>
</a>
</g>
</g>
<!-- Node28&#45;&gt;Node29 -->
<g id="edge37_Node000028_Node000029" class="edge">
<title>Node28&#45;&gt;Node29</title>
<g id="a_edge37_Node000028_Node000029"><a xlink:title=" ">
<path fill="none" stroke="#63b8ff" d="M1011.14,-220.33C1033.05,-211.67 1067.92,-197.88 1093.21,-187.88"/>
<polygon fill="#63b8ff" stroke="#63b8ff" points="1094.71,-191.05 1102.72,-184.11 1092.13,-184.54 1094.71,-191.05"/>
</a>
</g>
</g>
<!-- Node30 -->
<g id="Node000030" class="node">
<title>Node30</title>
<g id="a_Node000030"><a xlink:title=" ">
<polygon fill="#e0e0e0" stroke="#999999" points="1052.5,-184 928.5,-184 928.5,-165 1052.5,-165 1052.5,-184"/>
<text text-anchor="middle" x="990.5" y="-172" font-family="Helvetica,sans-Serif" font-size="10.00">QProcessEnvironment</text>
</a>
</g>
</g>
<!-- Node28&#45;&gt;Node30 -->
<g id="edge38_Node000028_Node000030" class="edge">
<title>Node28&#45;&gt;Node30</title>
<g id="a_edge38_Node000028_Node000030"><a xlink:title=" ">
<path fill="none" stroke="#63b8ff" d="M990.5,-219.75C990.5,-212.8 990.5,-202.85 990.5,-194.13"/>
<polygon fill="#63b8ff" stroke="#63b8ff" points="994,-194.09 990.5,-184.09 987,-194.09 994,-194.09"/>
</a>
</g>
</g>
<!-- Node28&#45;&gt;Node31 -->
<g id="edge39_Node000028_Node000031" class="edge">
<title>Node28&#45;&gt;Node31</title>
<g id="a_edge39_Node000028_Node000031"><a xlink:title=" ">
<path fill="none" stroke="#63b8ff" d="M1011.22,-224.34C1051.92,-216.17 1143.46,-197.79 1201.92,-186.06"/>
<polygon fill="#63b8ff" stroke="#63b8ff" points="1202.96,-189.42 1212.07,-184.02 1201.58,-182.55 1202.96,-189.42"/>
</a>
</g>
</g>
</g>
</svg>
