<?xml version="1.0" encoding="UTF-8" standalone="no"?>
<!DOCTYPE svg PUBLIC "-//W3C//DTD SVG 1.1//EN"
 "http://www.w3.org/Graphics/SVG/1.1/DTD/svg11.dtd">
<!-- Generated by graphviz version 2.40.1 (20161225.0304)
 -->
<!-- Title: src/storemodel.cpp Pages: 1 -->
<svg width="1507pt" height="357pt"
 viewBox="0.00 0.00 1506.91 357.00" xmlns="http://www.w3.org/2000/svg" xmlns:xlink="http://www.w3.org/1999/xlink">
<g id="graph0" class="graph" transform="scale(1 1) rotate(0) translate(4 353)">
<title>src/storemodel.cpp</title>
<!-- Node0 -->
<g id="node1" class="node">
<title>Node0</title>
<polygon fill="#bfbfbf" stroke="#000000" points="1251.9951,-330.5 1251.9951,-348.5 1352.4727,-348.5 1352.4727,-330.5 1251.9951,-330.5"/>
<text text-anchor="middle" x="1302.2339" y="-336.5" font-family="Helvetica,sans-Serif" font-size="10.00" fill="#000000">src/storemodel.cpp</text>
</g>
<!-- Node1 -->
<g id="node2" class="node">
<title>Node1</title>
<g id="a_node2"><a xlink:href="storemodel_8h.html" target="_top" xlink:title="storemodel.h">
<polygon fill="none" stroke="#000000" points="754.3301,-275.5 754.3301,-293.5 828.1377,-293.5 828.1377,-275.5 754.3301,-275.5"/>
<text text-anchor="middle" x="791.2339" y="-281.5" font-family="Helvetica,sans-Serif" font-size="10.00" fill="#000000">storemodel.h</text>
</a>
</g>
</g>
<!-- Node0&#45;&gt;Node1 -->
<g id="edge1" class="edge">
<title>Node0&#45;&gt;Node1</title>
<path fill="none" stroke="#191970" d="M1251.8388,-334.0759C1152.8407,-323.4205 934.2698,-299.8953 838.1492,-289.5496"/>
<polygon fill="#191970" stroke="#191970" points="838.4586,-286.0628 828.1415,-288.4724 837.7095,-293.0226 838.4586,-286.0628"/>
</g>
<!-- Node9 -->
<g id="node10" class="node">
<title>Node9</title>
<polygon fill="none" stroke="#bfbfbf" points="1291.8843,-220.5 1291.8843,-238.5 1384.5835,-238.5 1384.5835,-220.5 1291.8843,-220.5"/>
<text text-anchor="middle" x="1338.2339" y="-226.5" font-family="Helvetica,sans-Serif" font-size="10.00" fill="#000000">QStringListModel</text>
</g>
<!-- Node0&#45;&gt;Node9 -->
<g id="edge53" class="edge">
<title>Node0&#45;&gt;Node9</title>
<path fill="none" stroke="#191970" d="M1304.7356,-330.2501C1308.1895,-317.6673 1314.7316,-294.4896 1321.2339,-275 1324.1987,-266.1134 1327.7918,-256.371 1330.9095,-248.1892"/>
<polygon fill="#191970" stroke="#191970" points="1334.1817,-249.4313 1334.5213,-238.842 1327.6521,-246.9083 1334.1817,-249.4313"/>
</g>
<!-- Node20 -->
<g id="node21" class="node">
<title>Node20</title>
<polygon fill="none" stroke="#bfbfbf" points="1217.6108,-55.5 1217.6108,-73.5 1270.8569,-73.5 1270.8569,-55.5 1217.6108,-55.5"/>
<text text-anchor="middle" x="1244.2339" y="-61.5" font-family="Helvetica,sans-Serif" font-size="10.00" fill="#000000">QDebug</text>
</g>
<!-- Node0&#45;&gt;Node20 -->
<g id="edge50" class="edge">
<title>Node0&#45;&gt;Node20</title>
<path fill="none" stroke="#191970" d="M1296.7894,-330.4507C1286.2821,-312.0998 1264.2339,-268.899 1264.2339,-229.5 1264.2339,-229.5 1264.2339,-229.5 1264.2339,-174.5 1264.2339,-142.103 1255.7324,-105.192 1249.815,-83.4242"/>
<polygon fill="#191970" stroke="#191970" points="1253.1047,-82.1952 1247.0148,-73.5255 1246.369,-84.1007 1253.1047,-82.1952"/>
</g>
<!-- Node38 -->
<g id="node39" class="node">
<title>Node38</title>
<polygon fill="none" stroke="#bfbfbf" points="1330.4409,-275.5 1330.4409,-293.5 1412.0269,-293.5 1412.0269,-275.5 1330.4409,-275.5"/>
<text text-anchor="middle" x="1371.2339" y="-281.5" font-family="Helvetica,sans-Serif" font-size="10.00" fill="#000000">QMessageBox</text>
</g>
<!-- Node0&#45;&gt;Node38 -->
<g id="edge51" class="edge">
<title>Node0&#45;&gt;Node38</title>
<path fill="none" stroke="#191970" d="M1313.6278,-330.4179C1323.9531,-322.1876 1339.3886,-309.8839 1351.6836,-300.0836"/>
<polygon fill="#191970" stroke="#191970" points="1353.9542,-302.7495 1359.5924,-293.7795 1349.591,-297.2757 1353.9542,-302.7495"/>
</g>
<!-- Node39 -->
<g id="node40" class="node">
<title>Node39</title>
<polygon fill="none" stroke="#bfbfbf" points="1429.5615,-275.5 1429.5615,-293.5 1498.9063,-293.5 1498.9063,-275.5 1429.5615,-275.5"/>
<text text-anchor="middle" x="1464.2339" y="-281.5" font-family="Helvetica,sans-Serif" font-size="10.00" fill="#000000">QMimeData</text>
</g>
<!-- Node0&#45;&gt;Node39 -->
<g id="edge52" class="edge">
<title>Node0&#45;&gt;Node39</title>
<path fill="none" stroke="#191970" d="M1328.9849,-330.4179C1356.0331,-321.2348 1398.0179,-306.9807 1428.0316,-296.7909"/>
<polygon fill="#191970" stroke="#191970" points="1429.3685,-300.0333 1437.7124,-293.5042 1427.118,-293.4049 1429.3685,-300.0333"/>
</g>
<!-- Node2 -->
<g id="node3" class="node">
<title>Node2</title>
<g id="a_node3"><a xlink:href="util_8h.html" target="_top" xlink:title="util.h">
<polygon fill="none" stroke="#000000" points="243.6724,-220.5 243.6724,-238.5 280.7954,-238.5 280.7954,-220.5 243.6724,-220.5"/>
<text text-anchor="middle" x="262.2339" y="-226.5" font-family="Helvetica,sans-Serif" font-size="10.00" fill="#000000">util.h</text>
</a>
</g>
</g>
<!-- Node1&#45;&gt;Node2 -->
<g id="edge2" class="edge">
<title>Node1&#45;&gt;Node2</title>
<path fill="none" stroke="#191970" d="M754.2363,-281.0178C654.1866,-271.0677 380.4158,-242.6016 290.8782,-232.8358"/>
<polygon fill="#191970" stroke="#191970" points="291.2185,-229.3522 280.8963,-231.7401 290.4546,-236.3104 291.2185,-229.3522"/>
</g>
<!-- Node3 -->
<g id="node4" class="node">
<title>Node3</title>
<polygon fill="none" stroke="#bfbfbf" points="0,-165.5 0,-183.5 100.4678,-183.5 100.4678,-165.5 0,-165.5"/>
<text text-anchor="middle" x="50.2339" y="-171.5" font-family="Helvetica,sans-Serif" font-size="10.00" fill="#000000">QFileSystemModel</text>
</g>
<!-- Node1&#45;&gt;Node3 -->
<g id="edge8" class="edge">
<title>Node1&#45;&gt;Node3</title>
<path fill="none" stroke="#191970" d="M754.1687,-282.71C646.3402,-277.3068 334.1219,-260.2207 234.2339,-239 178.0908,-227.0727 115.5998,-202.6496 79.7994,-187.516"/>
<polygon fill="#191970" stroke="#191970" points="81.0078,-184.2262 70.437,-183.512 78.2552,-190.6623 81.0078,-184.2262"/>
</g>
<!-- Node6 -->
<g id="node7" class="node">
<title>Node6</title>
<polygon fill="none" stroke="#bfbfbf" points="752.6675,-220.5 752.6675,-238.5 829.8003,-238.5 829.8003,-220.5 752.6675,-220.5"/>
<text text-anchor="middle" x="791.2339" y="-226.5" font-family="Helvetica,sans-Serif" font-size="10.00" fill="#000000">QDataStream</text>
</g>
<!-- Node1&#45;&gt;Node6 -->
<g id="edge7" class="edge">
<title>Node1&#45;&gt;Node6</title>
<path fill="none" stroke="#191970" d="M791.2339,-275.4179C791.2339,-268.2164 791.2339,-257.8962 791.2339,-248.8632"/>
<polygon fill="#191970" stroke="#191970" points="794.734,-248.7794 791.2339,-238.7795 787.734,-248.7795 794.734,-248.7794"/>
</g>
<!-- Node7 -->
<g id="node8" class="node">
<title>Node7</title>
<polygon fill="none" stroke="#bfbfbf" points="847.5566,-220.5 847.5566,-238.5 906.9111,-238.5 906.9111,-220.5 847.5566,-220.5"/>
<text text-anchor="middle" x="877.2339" y="-226.5" font-family="Helvetica,sans-Serif" font-size="10.00" fill="#000000">QRegExp</text>
</g>
<!-- Node1&#45;&gt;Node7 -->
<g id="edge9" class="edge">
<title>Node1&#45;&gt;Node7</title>
<path fill="none" stroke="#191970" d="M805.435,-275.4179C818.7552,-266.8992 838.8989,-254.0166 854.4631,-244.0627"/>
<polygon fill="#191970" stroke="#191970" points="856.4729,-246.932 863.0116,-238.5956 852.7014,-241.0348 856.4729,-246.932"/>
</g>
<!-- Node8 -->
<g id="node9" class="node">
<title>Node8</title>
<polygon fill="none" stroke="#bfbfbf" points="924.665,-220.5 924.665,-238.5 1041.8027,-238.5 1041.8027,-220.5 924.665,-220.5"/>
<text text-anchor="middle" x="983.2339" y="-226.5" font-family="Helvetica,sans-Serif" font-size="10.00" fill="#000000">QSortFilterProxyModel</text>
</g>
<!-- Node1&#45;&gt;Node8 -->
<g id="edge10" class="edge">
<title>Node1&#45;&gt;Node8</title>
<path fill="none" stroke="#191970" d="M822.9388,-275.4179C855.5535,-266.0751 906.4918,-251.4834 942.1704,-241.263"/>
<polygon fill="#191970" stroke="#191970" points="943.1515,-244.6228 951.801,-238.5042 941.2238,-237.8934 943.1515,-244.6228"/>
</g>
<!-- Node1&#45;&gt;Node9 -->
<g id="edge11" class="edge">
<title>Node1&#45;&gt;Node9</title>
<path fill="none" stroke="#191970" d="M828.4014,-280.7629C922.2562,-271.3259 1169.3043,-246.4856 1281.4328,-235.2113"/>
<polygon fill="#191970" stroke="#191970" points="1281.9313,-238.6789 1291.531,-234.1959 1281.231,-231.714 1281.9313,-238.6789"/>
</g>
<!-- Node10 -->
<g id="node11" class="node">
<title>Node10</title>
<g id="a_node11"><a xlink:href="qtpasssettings_8h.html" target="_top" xlink:title="qtpasssettings.h">
<polygon fill="none" stroke="#000000" points="646.1011,-220.5 646.1011,-238.5 734.3667,-238.5 734.3667,-220.5 646.1011,-220.5"/>
<text text-anchor="middle" x="690.2339" y="-226.5" font-family="Helvetica,sans-Serif" font-size="10.00" fill="#000000">qtpasssettings.h</text>
</a>
</g>
</g>
<!-- Node1&#45;&gt;Node10 -->
<g id="edge12" class="edge">
<title>Node1&#45;&gt;Node10</title>
<path fill="none" stroke="#191970" d="M774.5558,-275.4179C758.6199,-266.7399 734.368,-253.5334 715.9571,-243.5077"/>
<polygon fill="#191970" stroke="#191970" points="717.3929,-240.3043 706.9368,-238.5956 714.0452,-246.4519 717.3929,-240.3043"/>
</g>
<!-- Node2&#45;&gt;Node1 -->
<g id="edge3" class="edge">
<title>Node2&#45;&gt;Node1</title>
<path fill="none" stroke="#191970" d="M280.8669,-231.1747C355.4133,-238.4051 632.1725,-267.1215 744.0093,-279.1531"/>
<polygon fill="#191970" stroke="#191970" points="743.6722,-282.637 753.99,-280.23 744.4232,-275.6774 743.6722,-282.637"/>
</g>
<!-- Node2&#45;&gt;Node3 -->
<g id="edge4" class="edge">
<title>Node2&#45;&gt;Node3</title>
<path fill="none" stroke="#191970" d="M243.4203,-224.6191C210.2826,-216.0221 140.67,-197.9622 94.6917,-186.0339"/>
<polygon fill="#191970" stroke="#191970" points="95.5347,-182.6368 84.9762,-183.5133 93.7768,-189.4125 95.5347,-182.6368"/>
</g>
<!-- Node4 -->
<g id="node5" class="node">
<title>Node4</title>
<polygon fill="none" stroke="#bfbfbf" points="118.2144,-165.5 118.2144,-183.5 234.2534,-183.5 234.2534,-165.5 118.2144,-165.5"/>
<text text-anchor="middle" x="176.2339" y="-171.5" font-family="Helvetica,sans-Serif" font-size="10.00" fill="#000000">QProcessEnvironment</text>
</g>
<!-- Node2&#45;&gt;Node4 -->
<g id="edge5" class="edge">
<title>Node2&#45;&gt;Node4</title>
<path fill="none" stroke="#191970" d="M248.0327,-220.4179C234.7126,-211.8992 214.5689,-199.0166 199.0047,-189.0627"/>
<polygon fill="#191970" stroke="#191970" points="200.7664,-186.0348 190.4561,-183.5956 196.9949,-191.932 200.7664,-186.0348"/>
</g>
<!-- Node5 -->
<g id="node6" class="node">
<title>Node5</title>
<polygon fill="none" stroke="#bfbfbf" points="380.2832,-.5 380.2832,-18.5 430.1846,-18.5 430.1846,-.5 380.2832,-.5"/>
<text text-anchor="middle" x="405.2339" y="-6.5" font-family="Helvetica,sans-Serif" font-size="10.00" fill="#000000">QString</text>
</g>
<!-- Node2&#45;&gt;Node5 -->
<g id="edge6" class="edge">
<title>Node2&#45;&gt;Node5</title>
<path fill="none" stroke="#191970" d="M260.1973,-220.3171C254.5214,-192.1631 241.4304,-105.8874 281.2339,-55 292.4524,-40.6575 337.473,-26.5995 370.0393,-17.9926"/>
<polygon fill="#191970" stroke="#191970" points="371.306,-21.2807 380.1165,-15.3963 369.5595,-14.502 371.306,-21.2807"/>
</g>
<!-- Node11 -->
<g id="node12" class="node">
<title>Node11</title>
<g id="a_node12"><a xlink:href="enums_8h.html" target="_top" xlink:title="enums.h">
<polygon fill="none" stroke="#000000" points="290.0566,-55.5 290.0566,-73.5 344.4111,-73.5 344.4111,-55.5 290.0566,-55.5"/>
<text text-anchor="middle" x="317.2339" y="-61.5" font-family="Helvetica,sans-Serif" font-size="10.00" fill="#000000">enums.h</text>
</a>
</g>
</g>
<!-- Node10&#45;&gt;Node11 -->
<g id="edge13" class="edge">
<title>Node10&#45;&gt;Node11</title>
<path fill="none" stroke="#191970" d="M646.0506,-228.3662C567.1544,-225.5453 406.0944,-215.9359 361.2339,-184 328.9275,-161.0013 320.2921,-111.5628 318.017,-84.0278"/>
<polygon fill="#191970" stroke="#191970" points="321.4896,-83.4747 317.3809,-73.709 314.5029,-83.9054 321.4896,-83.4747"/>
</g>
<!-- Node12 -->
<g id="node13" class="node">
<title>Node12</title>
<g id="a_node13"><a xlink:href="imitatepass_8h.html" target="_top" xlink:title="imitatepass.h">
<polygon fill="none" stroke="#000000" points="369.7759,-165.5 369.7759,-183.5 444.6919,-183.5 444.6919,-165.5 369.7759,-165.5"/>
<text text-anchor="middle" x="407.2339" y="-171.5" font-family="Helvetica,sans-Serif" font-size="10.00" fill="#000000">imitatepass.h</text>
</a>
</g>
</g>
<!-- Node10&#45;&gt;Node12 -->
<g id="edge14" class="edge">
<title>Node10&#45;&gt;Node12</title>
<path fill="none" stroke="#191970" d="M646.0151,-220.9063C594.0234,-210.8019 508.07,-194.0971 454.7076,-183.7263"/>
<polygon fill="#191970" stroke="#191970" points="455.2982,-180.2757 444.8141,-181.8036 453.9627,-187.1471 455.2982,-180.2757"/>
</g>
<!-- Node13 -->
<g id="node14" class="node">
<title>Node13</title>
<g id="a_node14"><a xlink:href="pass_8h.html" target="_top" xlink:title="pass.h">
<polygon fill="none" stroke="#000000" points="602.5024,-110.5 602.5024,-128.5 647.9653,-128.5 647.9653,-110.5 602.5024,-110.5"/>
<text text-anchor="middle" x="625.2339" y="-116.5" font-family="Helvetica,sans-Serif" font-size="10.00" fill="#000000">pass.h</text>
</a>
</g>
</g>
<!-- Node10&#45;&gt;Node13 -->
<g id="edge37" class="edge">
<title>Node10&#45;&gt;Node13</title>
<path fill="none" stroke="#191970" d="M646.0032,-223.0565C603.3835,-215.8358 543.3413,-202.6469 529.2339,-184 508.7804,-156.965 557.0606,-137.5353 592.31,-127.4383"/>
<polygon fill="#191970" stroke="#191970" points="593.559,-130.7257 602.2891,-124.7226 591.7209,-123.9713 593.559,-130.7257"/>
</g>
<!-- Node17 -->
<g id="node18" class="node">
<title>Node17</title>
<polygon fill="none" stroke="#bfbfbf" points="447.894,-.5 447.894,-18.5 500.5737,-18.5 500.5737,-.5 447.894,-.5"/>
<text text-anchor="middle" x="474.2339" y="-6.5" font-family="Helvetica,sans-Serif" font-size="10.00" fill="#000000">QObject</text>
</g>
<!-- Node10&#45;&gt;Node17 -->
<g id="edge45" class="edge">
<title>Node10&#45;&gt;Node17</title>
<path fill="none" stroke="#191970" d="M646.0671,-222.6997C602.1011,-215.0642 538.7192,-201.4285 521.2339,-184 478.5245,-141.4295 473.4533,-64.421 473.5783,-28.6807"/>
<polygon fill="#191970" stroke="#191970" points="477.0787,-28.6845 473.7604,-18.6227 470.0799,-28.5577 477.0787,-28.6845"/>
</g>
<!-- Node21 -->
<g id="node22" class="node">
<title>Node21</title>
<polygon fill="none" stroke="#bfbfbf" points="1141.958,-55.5 1141.958,-73.5 1178.5098,-73.5 1178.5098,-55.5 1141.958,-55.5"/>
<text text-anchor="middle" x="1160.2339" y="-61.5" font-family="Helvetica,sans-Serif" font-size="10.00" fill="#000000">QDir</text>
</g>
<!-- Node10&#45;&gt;Node21 -->
<g id="edge42" class="edge">
<title>Node10&#45;&gt;Node21</title>
<path fill="none" stroke="#191970" d="M676.4294,-220.3188C658.6985,-207.4152 631.9327,-183.4322 647.2339,-165 785.4729,1.5258 916.9239,-126.8423 1131.7932,-73.987"/>
<polygon fill="#191970" stroke="#191970" points="1132.949,-77.3036 1141.7599,-71.4198 1131.2029,-70.5249 1132.949,-77.3036"/>
</g>
<!-- Node29 -->
<g id="node30" class="node">
<title>Node29</title>
<g id="a_node30"><a xlink:href="realpass_8h.html" target="_top" xlink:title="realpass.h">
<polygon fill="none" stroke="#000000" points="538.165,-165.5 538.165,-183.5 600.3027,-183.5 600.3027,-165.5 538.165,-165.5"/>
<text text-anchor="middle" x="569.2339" y="-171.5" font-family="Helvetica,sans-Serif" font-size="10.00" fill="#000000">realpass.h</text>
</a>
</g>
</g>
<!-- Node10&#45;&gt;Node29 -->
<g id="edge38" class="edge">
<title>Node10&#45;&gt;Node29</title>
<path fill="none" stroke="#191970" d="M670.2532,-220.4179C650.7238,-211.5409 620.7695,-197.9253 598.5444,-187.823"/>
<polygon fill="#191970" stroke="#191970" points="599.7963,-184.5474 589.2443,-183.5956 596.8996,-190.92 599.7963,-184.5474"/>
</g>
<!-- Node30 -->
<g id="node31" class="node">
<title>Node30</title>
<polygon fill="none" stroke="#bfbfbf" points="656.394,-165.5 656.394,-183.5 724.0737,-183.5 724.0737,-165.5 656.394,-165.5"/>
<text text-anchor="middle" x="690.2339" y="-171.5" font-family="Helvetica,sans-Serif" font-size="10.00" fill="#000000">QByteArray</text>
</g>
<!-- Node10&#45;&gt;Node30 -->
<g id="edge40" class="edge">
<title>Node10&#45;&gt;Node30</title>
<path fill="none" stroke="#191970" d="M690.2339,-220.4179C690.2339,-213.2164 690.2339,-202.8962 690.2339,-193.8632"/>
<polygon fill="#191970" stroke="#191970" points="693.734,-193.7794 690.2339,-183.7795 686.734,-193.7795 693.734,-193.7794"/>
</g>
<!-- Node31 -->
<g id="node32" class="node">
<title>Node31</title>
<polygon fill="none" stroke="#bfbfbf" points="742.0469,-165.5 742.0469,-183.5 836.4209,-183.5 836.4209,-165.5 742.0469,-165.5"/>
<text text-anchor="middle" x="789.2339" y="-171.5" font-family="Helvetica,sans-Serif" font-size="10.00" fill="#000000">QCoreApplication</text>
</g>
<!-- Node10&#45;&gt;Node31 -->
<g id="edge41" class="edge">
<title>Node10&#45;&gt;Node31</title>
<path fill="none" stroke="#191970" d="M706.5817,-220.4179C722.202,-211.7399 745.9737,-198.5334 764.0201,-188.5077"/>
<polygon fill="#191970" stroke="#191970" points="765.8199,-191.5117 772.8618,-183.5956 762.4204,-185.3925 765.8199,-191.5117"/>
</g>
<!-- Node32 -->
<g id="node33" class="node">
<title>Node32</title>
<polygon fill="none" stroke="#bfbfbf" points="854.2881,-165.5 854.2881,-183.5 894.1797,-183.5 894.1797,-165.5 854.2881,-165.5"/>
<text text-anchor="middle" x="874.2339" y="-171.5" font-family="Helvetica,sans-Serif" font-size="10.00" fill="#000000">QFile</text>
</g>
<!-- Node10&#45;&gt;Node32 -->
<g id="edge43" class="edge">
<title>Node10&#45;&gt;Node32</title>
<path fill="none" stroke="#191970" d="M722.0843,-220.4633C751.5179,-212.0432 796.6887,-198.9477 844.4048,-184.1958"/>
<polygon fill="#191970" stroke="#191970" points="845.4652,-187.5315 853.978,-181.2243 843.39,-180.8462 845.4652,-187.5315"/>
</g>
<!-- Node33 -->
<g id="node34" class="node">
<title>Node33</title>
<polygon fill="none" stroke="#bfbfbf" points="912.6724,-165.5 912.6724,-183.5 959.7954,-183.5 959.7954,-165.5 912.6724,-165.5"/>
<text text-anchor="middle" x="936.2339" y="-171.5" font-family="Helvetica,sans-Serif" font-size="10.00" fill="#000000">QHash</text>
</g>
<!-- Node10&#45;&gt;Node33 -->
<g id="edge44" class="edge">
<title>Node10&#45;&gt;Node33</title>
<path fill="none" stroke="#191970" d="M734.4986,-220.9822C775.6148,-212.8606 838.7393,-199.8609 902.6488,-184.0118"/>
<polygon fill="#191970" stroke="#191970" points="903.6429,-187.371 912.4945,-181.5487 901.944,-180.5803 903.6429,-187.371"/>
</g>
<!-- Node34 -->
<g id="node35" class="node">
<title>Node34</title>
<polygon fill="none" stroke="#bfbfbf" points="977.9482,-165.5 977.9482,-183.5 1024.5195,-183.5 1024.5195,-165.5 977.9482,-165.5"/>
<text text-anchor="middle" x="1001.2339" y="-171.5" font-family="Helvetica,sans-Serif" font-size="10.00" fill="#000000">QPoint</text>
</g>
<!-- Node10&#45;&gt;Node34 -->
<g id="edge46" class="edge">
<title>Node10&#45;&gt;Node34</title>
<path fill="none" stroke="#191970" d="M734.4691,-221.5049C737.4342,-220.9894 740.3766,-220.4836 743.2339,-220 840.3845,-203.557 868.3177,-206.3229 968.0299,-184.0437"/>
<polygon fill="#191970" stroke="#191970" points="968.9275,-187.4292 977.9082,-181.808 967.3823,-180.6018 968.9275,-187.4292"/>
</g>
<!-- Node35 -->
<g id="node36" class="node">
<title>Node35</title>
<polygon fill="none" stroke="#bfbfbf" points="1042.2783,-165.5 1042.2783,-183.5 1102.1895,-183.5 1102.1895,-165.5 1042.2783,-165.5"/>
<text text-anchor="middle" x="1072.2339" y="-171.5" font-family="Helvetica,sans-Serif" font-size="10.00" fill="#000000">QSettings</text>
</g>
<!-- Node10&#45;&gt;Node35 -->
<g id="edge47" class="edge">
<title>Node10&#45;&gt;Node35</title>
<path fill="none" stroke="#191970" d="M734.4508,-221.3906C737.4203,-220.9027 740.3687,-220.4343 743.2339,-220 868.3848,-201.0297 903.7033,-207.0761 1031.8651,-184.0692"/>
<polygon fill="#191970" stroke="#191970" points="1032.8625,-187.4452 1042.0741,-182.2109 1031.6089,-180.5584 1032.8625,-187.4452"/>
</g>
<!-- Node36 -->
<g id="node37" class="node">
<title>Node36</title>
<polygon fill="none" stroke="#bfbfbf" points="1120.6182,-165.5 1120.6182,-183.5 1163.8496,-183.5 1163.8496,-165.5 1120.6182,-165.5"/>
<text text-anchor="middle" x="1142.2339" y="-171.5" font-family="Helvetica,sans-Serif" font-size="10.00" fill="#000000">QSize</text>
</g>
<!-- Node10&#45;&gt;Node36 -->
<g id="edge48" class="edge">
<title>Node10&#45;&gt;Node36</title>
<path fill="none" stroke="#191970" d="M734.4383,-221.3043C737.4108,-220.8372 740.3633,-220.397 743.2339,-220 902.8411,-197.9246 948.3236,-215.5195 1110.5233,-183.7543"/>
<polygon fill="#191970" stroke="#191970" points="1111.2332,-187.1817 1120.3573,-181.7965 1109.8664,-180.3165 1111.2332,-187.1817"/>
</g>
<!-- Node37 -->
<g id="node38" class="node">
<title>Node37</title>
<polygon fill="none" stroke="#bfbfbf" points="1181.8711,-165.5 1181.8711,-183.5 1236.5967,-183.5 1236.5967,-165.5 1181.8711,-165.5"/>
<text text-anchor="middle" x="1209.2339" y="-171.5" font-family="Helvetica,sans-Serif" font-size="10.00" fill="#000000">QVariant</text>
</g>
<!-- Node10&#45;&gt;Node37 -->
<g id="edge49" class="edge">
<title>Node10&#45;&gt;Node37</title>
<path fill="none" stroke="#191970" d="M734.432,-221.2577C737.406,-220.8019 740.3606,-220.3769 743.2339,-220 930.1346,-195.4807 982.4646,-215.8681 1171.8223,-183.9718"/>
<polygon fill="#191970" stroke="#191970" points="1172.5587,-187.3968 1181.8251,-182.2602 1171.378,-180.4971 1172.5587,-187.3968"/>
</g>
<!-- Node12&#45;&gt;Node13 -->
<g id="edge15" class="edge">
<title>Node12&#45;&gt;Node13</title>
<path fill="none" stroke="#191970" d="M443.2322,-165.4179C484.7283,-154.9487 552.3487,-137.8885 592.4402,-127.7736"/>
<polygon fill="#191970" stroke="#191970" points="593.4088,-131.139 602.2487,-125.299 591.6963,-124.3517 593.4088,-131.139"/>
</g>
<!-- Node27 -->
<g id="node28" class="node">
<title>Node27</title>
<g id="a_node28"><a xlink:href="simpletransaction_8h.html" target="_top" xlink:title="simpletransaction.h">
<polygon fill="none" stroke="#000000" points="342.1577,-110.5 342.1577,-128.5 444.3101,-128.5 444.3101,-110.5 342.1577,-110.5"/>
<text text-anchor="middle" x="393.2339" y="-116.5" font-family="Helvetica,sans-Serif" font-size="10.00" fill="#000000">simpletransaction.h</text>
</a>
</g>
</g>
<!-- Node12&#45;&gt;Node27 -->
<g id="edge34" class="edge">
<title>Node12&#45;&gt;Node27</title>
<path fill="none" stroke="#191970" d="M404.9221,-165.4179C403.0688,-158.1372 400.4042,-147.669 398.087,-138.5659"/>
<polygon fill="#191970" stroke="#191970" points="401.4546,-137.607 395.5959,-128.7795 394.671,-139.3338 401.4546,-137.607"/>
</g>
<!-- Node13&#45;&gt;Node5 -->
<g id="edge30" class="edge">
<title>Node13&#45;&gt;Node5</title>
<path fill="none" stroke="#191970" d="M602.0486,-114.0191C574.5929,-106.9965 527.958,-93.3727 491.2339,-74 465.6503,-60.5042 439.5231,-39.7089 422.8874,-25.3989"/>
<polygon fill="#191970" stroke="#191970" points="424.9338,-22.5385 415.1063,-18.5798 420.3202,-27.803 424.9338,-22.5385"/>
</g>
<!-- Node13&#45;&gt;Node11 -->
<g id="edge19" class="edge">
<title>Node13&#45;&gt;Node11</title>
<path fill="none" stroke="#191970" d="M602.1724,-116.3756C556.6776,-110.0562 452.0026,-94.7462 354.6862,-74.1632"/>
<polygon fill="#191970" stroke="#191970" points="355.1994,-70.6939 344.6884,-72.024 353.7348,-77.5389 355.1994,-70.6939"/>
</g>
<!-- Node14 -->
<g id="node15" class="node">
<title>Node14</title>
<g id="a_node15"><a xlink:href="datahelpers_8h.html" target="_top" xlink:title="datahelpers.h">
<polygon fill="none" stroke="#000000" points="499.9336,-55.5 499.9336,-73.5 576.5342,-73.5 576.5342,-55.5 499.9336,-55.5"/>
<text text-anchor="middle" x="538.2339" y="-61.5" font-family="Helvetica,sans-Serif" font-size="10.00" fill="#000000">datahelpers.h</text>
</a>
</g>
</g>
<!-- Node13&#45;&gt;Node14 -->
<g id="edge16" class="edge">
<title>Node13&#45;&gt;Node14</title>
<path fill="none" stroke="#191970" d="M610.8676,-110.4179C597.3925,-101.8992 577.0146,-89.0166 561.2695,-79.0627"/>
<polygon fill="#191970" stroke="#191970" points="562.9444,-75.9808 552.6215,-73.5956 559.2038,-81.8977 562.9444,-75.9808"/>
</g>
<!-- Node16 -->
<g id="node17" class="node">
<title>Node16</title>
<g id="a_node17"><a xlink:href="executor_8h.html" target="_top" xlink:title="executor.h">
<polygon fill="none" stroke="#000000" points="594.1602,-55.5 594.1602,-73.5 656.3076,-73.5 656.3076,-55.5 594.1602,-55.5"/>
<text text-anchor="middle" x="625.2339" y="-61.5" font-family="Helvetica,sans-Serif" font-size="10.00" fill="#000000">executor.h</text>
</a>
</g>
</g>
<!-- Node13&#45;&gt;Node16 -->
<g id="edge20" class="edge">
<title>Node13&#45;&gt;Node16</title>
<path fill="none" stroke="#191970" d="M625.2339,-110.4179C625.2339,-103.2164 625.2339,-92.8962 625.2339,-83.8632"/>
<polygon fill="#191970" stroke="#191970" points="628.734,-83.7794 625.2339,-73.7795 621.734,-83.7795 628.734,-83.7794"/>
</g>
<!-- Node18 -->
<g id="node19" class="node">
<title>Node18</title>
<polygon fill="none" stroke="#bfbfbf" points="611.2832,-.5 611.2832,-18.5 671.1846,-18.5 671.1846,-.5 611.2832,-.5"/>
<text text-anchor="middle" x="641.2339" y="-6.5" font-family="Helvetica,sans-Serif" font-size="10.00" fill="#000000">QProcess</text>
</g>
<!-- Node13&#45;&gt;Node18 -->
<g id="edge27" class="edge">
<title>Node13&#45;&gt;Node18</title>
<path fill="none" stroke="#191970" d="M636.8821,-110.4799C646.5494,-102.1947 659.5934,-88.959 665.2339,-74 671.204,-58.1668 663.2232,-40.1116 654.9002,-27.1388"/>
<polygon fill="#191970" stroke="#191970" points="657.5836,-24.8696 648.9739,-18.6952 651.854,-28.8911 657.5836,-24.8696"/>
</g>
<!-- Node19 -->
<g id="node20" class="node">
<title>Node19</title>
<polygon fill="none" stroke="#bfbfbf" points="693.3325,-.5 693.3325,-18.5 747.1353,-18.5 747.1353,-.5 693.3325,-.5"/>
<text text-anchor="middle" x="720.2339" y="-6.5" font-family="Helvetica,sans-Serif" font-size="10.00" fill="#000000">QQueue</text>
</g>
<!-- Node13&#45;&gt;Node19 -->
<g id="edge28" class="edge">
<title>Node13&#45;&gt;Node19</title>
<path fill="none" stroke="#191970" d="M639.2622,-110.1849C651.3354,-101.7105 668.7338,-88.3631 681.2339,-74 693.4192,-59.9985 704.0744,-41.7112 711.1541,-28.186"/>
<polygon fill="#191970" stroke="#191970" points="714.4496,-29.4248 715.8372,-18.9212 708.2024,-26.2669 714.4496,-29.4248"/>
</g>
<!-- Node13&#45;&gt;Node20 -->
<g id="edge24" class="edge">
<title>Node13&#45;&gt;Node20</title>
<path fill="none" stroke="#191970" d="M648.0561,-118.345C724.5217,-114.3277 978.6052,-99.7845 1187.2339,-74 1193.7026,-73.2005 1200.5591,-72.195 1207.19,-71.1395"/>
<polygon fill="#191970" stroke="#191970" points="1208.041,-74.5464 1217.3361,-69.4621 1206.8991,-67.6401 1208.041,-74.5464"/>
</g>
<!-- Node13&#45;&gt;Node21 -->
<g id="edge25" class="edge">
<title>Node13&#45;&gt;Node21</title>
<path fill="none" stroke="#191970" d="M648.1939,-112.9414C652.8118,-111.8104 657.6537,-110.7571 662.2339,-110 866.131,-76.2984 925.9232,-115.9344 1131.9049,-73.764"/>
<polygon fill="#191970" stroke="#191970" points="1132.7513,-77.1629 1141.8252,-71.6935 1131.3211,-70.3105 1132.7513,-77.1629"/>
</g>
<!-- Node22 -->
<g id="node23" class="node">
<title>Node22</title>
<polygon fill="none" stroke="#bfbfbf" points="750.564,-55.5 750.564,-73.5 789.9038,-73.5 789.9038,-55.5 750.564,-55.5"/>
<text text-anchor="middle" x="770.2339" y="-61.5" font-family="Helvetica,sans-Serif" font-size="10.00" fill="#000000">QList</text>
</g>
<!-- Node13&#45;&gt;Node22 -->
<g id="edge26" class="edge">
<title>Node13&#45;&gt;Node22</title>
<path fill="none" stroke="#191970" d="M648.2096,-110.7851C673.2443,-101.2892 713.3703,-86.069 740.7206,-75.6947"/>
<polygon fill="#191970" stroke="#191970" points="742.0588,-78.9305 750.1675,-72.1114 739.5762,-72.3855 742.0588,-78.9305"/>
</g>
<!-- Node23 -->
<g id="node24" class="node">
<title>Node23</title>
<polygon fill="none" stroke="#bfbfbf" points="807.9336,-55.5 807.9336,-73.5 914.5342,-73.5 914.5342,-55.5 807.9336,-55.5"/>
<text text-anchor="middle" x="861.2339" y="-61.5" font-family="Helvetica,sans-Serif" font-size="10.00" fill="#000000">QRandomGenerator</text>
</g>
<!-- Node13&#45;&gt;Node23 -->
<g id="edge29" class="edge">
<title>Node13&#45;&gt;Node23</title>
<path fill="none" stroke="#191970" d="M648.3028,-113.4761C652.9118,-112.3011 657.7224,-111.0947 662.2339,-110 712.5577,-97.7887 770.2648,-84.6942 810.5324,-75.7028"/>
<polygon fill="#191970" stroke="#191970" points="811.38,-79.0999 820.3791,-73.5083 809.8572,-72.2675 811.38,-79.0999"/>
</g>
<!-- Node24 -->
<g id="node25" class="node">
<title>Node24</title>
<polygon fill="none" stroke="#bfbfbf" points="932.7217,-55.5 932.7217,-73.5 1003.7461,-73.5 1003.7461,-55.5 932.7217,-55.5"/>
<text text-anchor="middle" x="968.2339" y="-61.5" font-family="Helvetica,sans-Serif" font-size="10.00" fill="#000000">QTextCodec</text>
</g>
<!-- Node13&#45;&gt;Node24 -->
<g id="edge31" class="edge">
<title>Node13&#45;&gt;Node24</title>
<path fill="none" stroke="#191970" d="M648.2337,-113.1612C652.8483,-112.0121 657.6788,-110.8959 662.2339,-110 773.9893,-88.0204 806.1305,-93.7618 922.4073,-74.0268"/>
<polygon fill="#191970" stroke="#191970" points="923.157,-77.4492 932.4168,-72.3008 921.9675,-70.551 923.157,-77.4492"/>
</g>
<!-- Node25 -->
<g id="node26" class="node">
<title>Node25</title>
<polygon fill="none" stroke="#bfbfbf" points="1022.1182,-55.5 1022.1182,-73.5 1070.3496,-73.5 1070.3496,-55.5 1022.1182,-55.5"/>
<text text-anchor="middle" x="1046.2339" y="-61.5" font-family="Helvetica,sans-Serif" font-size="10.00" fill="#000000">cassert</text>
</g>
<!-- Node13&#45;&gt;Node25 -->
<g id="edge32" class="edge">
<title>Node13&#45;&gt;Node25</title>
<path fill="none" stroke="#191970" d="M648.21,-113.0353C652.8266,-111.8966 657.6639,-110.8164 662.2339,-110 813.4427,-82.9893 857.4779,-102.9529 1011.9909,-73.934"/>
<polygon fill="#191970" stroke="#191970" points="1012.6809,-77.3655 1021.8434,-72.046 1011.3634,-70.4906 1012.6809,-77.3655"/>
</g>
<!-- Node26 -->
<g id="node27" class="node">
<title>Node26</title>
<polygon fill="none" stroke="#bfbfbf" points="1088.5073,-55.5 1088.5073,-73.5 1123.9604,-73.5 1123.9604,-55.5 1088.5073,-55.5"/>
<text text-anchor="middle" x="1106.2339" y="-61.5" font-family="Helvetica,sans-Serif" font-size="10.00" fill="#000000">map</text>
</g>
<!-- Node13&#45;&gt;Node26 -->
<g id="edge33" class="edge">
<title>Node13&#45;&gt;Node26</title>
<path fill="none" stroke="#191970" d="M648.1999,-112.977C652.8173,-111.8431 657.6574,-110.7796 662.2339,-110 842.3916,-79.3116 895.5238,-111.9924 1078.4608,-73.6096"/>
<polygon fill="#191970" stroke="#191970" points="1079.361,-76.9962 1088.4066,-71.4802 1077.8955,-70.1514 1079.361,-76.9962"/>
</g>
<!-- Node14&#45;&gt;Node5 -->
<g id="edge18" class="edge">
<title>Node14&#45;&gt;Node5</title>
<path fill="none" stroke="#191970" d="M516.2716,-55.4179C494.5167,-46.4215 460.9925,-32.5581 436.4699,-22.4172"/>
<polygon fill="#191970" stroke="#191970" points="437.8073,-19.1828 427.2288,-18.5956 435.1322,-25.6515 437.8073,-19.1828"/>
</g>
<!-- Node15 -->
<g id="node16" class="node">
<title>Node15</title>
<polygon fill="none" stroke="#bfbfbf" points="518.8555,-.5 518.8555,-18.5 585.6123,-18.5 585.6123,-.5 518.8555,-.5"/>
<text text-anchor="middle" x="552.2339" y="-6.5" font-family="Helvetica,sans-Serif" font-size="10.00" fill="#000000">QDateTime</text>
</g>
<!-- Node14&#45;&gt;Node15 -->
<g id="edge17" class="edge">
<title>Node14&#45;&gt;Node15</title>
<path fill="none" stroke="#191970" d="M540.5457,-55.4179C542.399,-48.1372 545.0636,-37.669 547.3808,-28.5659"/>
<polygon fill="#191970" stroke="#191970" points="550.7968,-29.3338 549.8718,-18.7795 544.0131,-27.607 550.7968,-29.3338"/>
</g>
<!-- Node16&#45;&gt;Node17 -->
<g id="edge21" class="edge">
<title>Node16&#45;&gt;Node17</title>
<path fill="none" stroke="#191970" d="M600.2993,-55.4179C575.3069,-46.3147 536.6333,-32.2283 508.7103,-22.0576"/>
<polygon fill="#191970" stroke="#191970" points="509.5485,-18.6381 498.9545,-18.5042 507.1528,-25.2153 509.5485,-18.6381"/>
</g>
<!-- Node16&#45;&gt;Node18 -->
<g id="edge22" class="edge">
<title>Node16&#45;&gt;Node18</title>
<path fill="none" stroke="#191970" d="M627.876,-55.4179C629.994,-48.1372 633.0393,-37.669 635.6875,-28.5659"/>
<polygon fill="#191970" stroke="#191970" points="639.1017,-29.3591 638.5344,-18.7795 632.3804,-27.4037 639.1017,-29.3591"/>
</g>
<!-- Node16&#45;&gt;Node19 -->
<g id="edge23" class="edge">
<title>Node16&#45;&gt;Node19</title>
<path fill="none" stroke="#191970" d="M640.9212,-55.4179C655.7729,-46.8195 678.3037,-33.7754 695.5608,-23.7844"/>
<polygon fill="#191970" stroke="#191970" points="697.6226,-26.635 704.5233,-18.5956 694.1153,-20.577 697.6226,-26.635"/>
</g>
<!-- Node27&#45;&gt;Node11 -->
<g id="edge35" class="edge">
<title>Node27&#45;&gt;Node11</title>
<path fill="none" stroke="#191970" d="M380.684,-110.4179C369.1327,-102.0584 351.7747,-89.4966 338.1324,-79.6239"/>
<polygon fill="#191970" stroke="#191970" points="339.9555,-76.6229 329.8024,-73.5956 335.8516,-82.2938 339.9555,-76.6229"/>
</g>
<!-- Node28 -->
<g id="node29" class="node">
<title>Node28</title>
<polygon fill="none" stroke="#bfbfbf" points="362.3301,-55.5 362.3301,-73.5 406.1377,-73.5 406.1377,-55.5 362.3301,-55.5"/>
<text text-anchor="middle" x="384.2339" y="-61.5" font-family="Helvetica,sans-Serif" font-size="10.00" fill="#000000">queue</text>
</g>
<!-- Node27&#45;&gt;Node28 -->
<g id="edge36" class="edge">
<title>Node27&#45;&gt;Node28</title>
<path fill="none" stroke="#191970" d="M391.7477,-110.4179C390.5693,-103.2164 388.8805,-92.8962 387.4024,-83.8632"/>
<polygon fill="#191970" stroke="#191970" points="390.8214,-83.083 385.7523,-73.7795 383.9132,-84.2134 390.8214,-83.083"/>
</g>
<!-- Node29&#45;&gt;Node13 -->
<g id="edge39" class="edge">
<title>Node29&#45;&gt;Node13</title>
<path fill="none" stroke="#191970" d="M578.4811,-165.4179C586.6194,-157.425 598.6692,-145.5903 608.4973,-135.9377"/>
<polygon fill="#191970" stroke="#191970" points="611.1037,-138.2836 615.7857,-128.7795 606.1987,-133.2895 611.1037,-138.2836"/>
</g>
</g>
</svg>
