<?xml version="1.0" encoding="UTF-8" standalone="no"?>
<!DOCTYPE svg PUBLIC "-//W3C//DTD SVG 1.1//EN"
 "http://www.w3.org/Graphics/SVG/1.1/DTD/svg11.dtd">
<!-- Generated by graphviz version 2.40.1 (20161225.0304)
 -->
<!-- Title: src/storemodel.cpp Pages: 1 -->
<!--zoomable 357 -->
<svg id="main" version="1.1" xmlns="http://www.w3.org/2000/svg" xmlns:xlink="http://www.w3.org/1999/xlink" xml:space="preserve" onload="init(evt)">
<style type="text/css"><![CDATA[
.edge:hover path { stroke: red; }
.edge:hover polygon { stroke: red; fill: red; }
]]></style>
<script type="text/javascript"><![CDATA[
var edges = document.getElementsByTagName('g');
if (edges && edges.length) {
  for (var i=0;i<edges.length;i++) {
    if (edges[i].id.substr(0,4)=='edge') {
      edges[i].setAttribute('class','edge');
    }
  }
}
]]></script>
        <defs>
                <circle id="rim" cx="0" cy="0" r="7"/>
                <circle id="rim2" cx="0" cy="0" r="3.5"/>
                <g id="zoomPlus">
                        <use xlink:href="#rim" fill="#404040">
                                <set attributeName="fill" to="#808080" begin="zoomplus.mouseover" end="zoomplus.mouseout"/>
                        </use>
                        <path d="M-4,0h8M0,-4v8" fill="none" stroke="white" stroke-width="1.5" pointer-events="none"/>
                </g>
                <g id="zoomMin">
                        <use xlink:href="#rim" fill="#404040">
                                <set attributeName="fill" to="#808080" begin="zoomminus.mouseover" end="zoomminus.mouseout"/>
                        </use>
                        <path d="M-4,0h8" fill="none" stroke="white" stroke-width="1.5" pointer-events="none"/>
                </g>
                <g id="dirArrow">
                        <path fill="none" stroke="white" stroke-width="1.5" d="M0,-3.0v7 M-2.5,-0.5L0,-3.0L2.5,-0.5"/>
                </g>
               <g id="resetDef">
                       <use xlink:href="#rim2" fill="#404040">
                               <set attributeName="fill" to="#808080" begin="reset.mouseover" end="reset.mouseout"/>
                       </use>
               </g>
        </defs>

<script type="text/javascript">
var viewWidth = 1395;
var viewHeight = 357;
var sectionId = 'dynsection-0';
</script>
<script xlink:href="svgpan.js"/>
<svg id="graph" class="graph">
<g id="viewport">
<title>src/storemodel.cpp</title>
<!-- Node0 -->
<g id="node1" class="node">
<title>Node0</title>
<polygon fill="#bfbfbf" stroke="#000000" points="1140.0931,-330.5 1140.0931,-348.5 1240.5707,-348.5 1240.5707,-330.5 1140.0931,-330.5"/>
<text text-anchor="middle" x="1190.3319" y="-336.5" font-family="Helvetica,sans-Serif" font-size="10.00" fill="#000000">src/storemodel.cpp</text>
</g>
<!-- Node1 -->
<g id="node2" class="node">
<title>Node1</title>
<g id="a_node2"><a xlink:href="storemodel_8h.html" target="_top" xlink:title="storemodel.h">
<polygon fill="none" stroke="#000000" points="949.4281,-275.5 949.4281,-293.5 1023.2357,-293.5 1023.2357,-275.5 949.4281,-275.5"/>
<text text-anchor="middle" x="986.3319" y="-281.5" font-family="Helvetica,sans-Serif" font-size="10.00" fill="#000000">storemodel.h</text>
</a>
</g>
</g>
<!-- Node0&#45;&gt;Node1 -->
<g id="edge1" class="edge">
<title>Node0&#45;&gt;Node1</title>
<path fill="none" stroke="#191970" d="M1156.6455,-330.4179C1121.8443,-321.0352 1067.4074,-306.3586 1029.4768,-296.1322"/>
<polygon fill="#191970" stroke="#191970" points="1030.2957,-292.7281 1019.7293,-293.5042 1028.4735,-299.4867 1030.2957,-292.7281"/>
</g>
<!-- Node9 -->
<g id="node10" class="node">
<title>Node9</title>
<polygon fill="none" stroke="#bfbfbf" points="1069.9823,-220.5 1069.9823,-238.5 1162.6815,-238.5 1162.6815,-220.5 1069.9823,-220.5"/>
<text text-anchor="middle" x="1116.3319" y="-226.5" font-family="Helvetica,sans-Serif" font-size="10.00" fill="#000000">QStringListModel</text>
</g>
<!-- Node0&#45;&gt;Node9 -->
<g id="edge49" class="edge">
<title>Node0&#45;&gt;Node9</title>
<path fill="none" stroke="#191970" d="M1184.2762,-330.4982C1172.026,-312.2885 1144.1142,-270.798 1128.138,-247.0496"/>
<polygon fill="#191970" stroke="#191970" points="1130.9572,-244.9697 1122.4713,-238.6261 1125.1491,-248.877 1130.9572,-244.9697"/>
</g>
<!-- Node20 -->
<g id="node21" class="node">
<title>Node20</title>
<polygon fill="none" stroke="#bfbfbf" points="951.7089,-55.5 951.7089,-73.5 1004.955,-73.5 1004.955,-55.5 951.7089,-55.5"/>
<text text-anchor="middle" x="978.3319" y="-61.5" font-family="Helvetica,sans-Serif" font-size="10.00" fill="#000000">QDebug</text>
</g>
<!-- Node0&#45;&gt;Node20 -->
<g id="edge46" class="edge">
<title>Node0&#45;&gt;Node20</title>
<path fill="none" stroke="#191970" d="M1190.3319,-330.3733C1190.3319,-311.5256 1190.3319,-266.9306 1190.3319,-229.5 1190.3319,-229.5 1190.3319,-229.5 1190.3319,-174.5 1190.3319,-154.468 1069.5339,-102.0002 1010.3072,-77.4793"/>
<polygon fill="#191970" stroke="#191970" points="1011.599,-74.2262 1001.0196,-73.6543 1008.9333,-80.6988 1011.599,-74.2262"/>
</g>
<!-- Node34 -->
<g id="node35" class="node">
<title>Node34</title>
<polygon fill="none" stroke="#bfbfbf" points="1218.5389,-275.5 1218.5389,-293.5 1300.1249,-293.5 1300.1249,-275.5 1218.5389,-275.5"/>
<text text-anchor="middle" x="1259.3319" y="-281.5" font-family="Helvetica,sans-Serif" font-size="10.00" fill="#000000">QMessageBox</text>
</g>
<!-- Node0&#45;&gt;Node34 -->
<g id="edge47" class="edge">
<title>Node0&#45;&gt;Node34</title>
<path fill="none" stroke="#191970" d="M1201.7259,-330.4179C1212.0511,-322.1876 1227.4867,-309.8839 1239.7816,-300.0836"/>
<polygon fill="#191970" stroke="#191970" points="1242.0523,-302.7495 1247.6904,-293.7795 1237.6891,-297.2757 1242.0523,-302.7495"/>
</g>
<!-- Node35 -->
<g id="node36" class="node">
<title>Node35</title>
<polygon fill="none" stroke="#bfbfbf" points="1317.6595,-275.5 1317.6595,-293.5 1387.0043,-293.5 1387.0043,-275.5 1317.6595,-275.5"/>
<text text-anchor="middle" x="1352.3319" y="-281.5" font-family="Helvetica,sans-Serif" font-size="10.00" fill="#000000">QMimeData</text>
</g>
<!-- Node0&#45;&gt;Node35 -->
<g id="edge48" class="edge">
<title>Node0&#45;&gt;Node35</title>
<path fill="none" stroke="#191970" d="M1217.0829,-330.4179C1244.1312,-321.2348 1286.1159,-306.9807 1316.1296,-296.7909"/>
<polygon fill="#191970" stroke="#191970" points="1317.4665,-300.0333 1325.8104,-293.5042 1315.216,-293.4049 1317.4665,-300.0333"/>
</g>
<!-- Node2 -->
<g id="node3" class="node">
<title>Node2</title>
<g id="a_node3"><a xlink:href="util_8h.html" target="_top" xlink:title="util.h">
<polygon fill="none" stroke="#000000" points="1014.7704,-220.5 1014.7704,-238.5 1051.8934,-238.5 1051.8934,-220.5 1014.7704,-220.5"/>
<text text-anchor="middle" x="1033.3319" y="-226.5" font-family="Helvetica,sans-Serif" font-size="10.00" fill="#000000">util.h</text>
</a>
</g>
</g>
<!-- Node1&#45;&gt;Node2 -->
<g id="edge2" class="edge">
<title>Node1&#45;&gt;Node2</title>
<path fill="none" stroke="#191970" d="M988.9267,-275.4179C994.1015,-267.425 1003.8572,-255.5903 1013.046,-245.9377"/>
<polygon fill="#191970" stroke="#191970" points="1015.6051,-248.3283 1020.1954,-238.7795 1010.6523,-243.3816 1015.6051,-248.3283"/>
</g>
<!-- Node3 -->
<g id="node4" class="node">
<title>Node3</title>
<polygon fill="none" stroke="#bfbfbf" points="928.098,-165.5 928.098,-183.5 1028.5658,-183.5 1028.5658,-165.5 928.098,-165.5"/>
<text text-anchor="middle" x="978.3319" y="-171.5" font-family="Helvetica,sans-Serif" font-size="10.00" fill="#000000">QFileSystemModel</text>
</g>
<!-- Node1&#45;&gt;Node3 -->
<g id="edge8" class="edge">
<title>Node1&#45;&gt;Node3</title>
<path fill="none" stroke="#191970" d="M985.6772,-275.4982C984.3822,-257.6913 981.4681,-217.6225 979.7247,-193.6515"/>
<polygon fill="#191970" stroke="#191970" points="983.2119,-193.3459 978.9956,-183.6261 976.2303,-193.8537 983.2119,-193.3459"/>
</g>
<!-- Node6 -->
<g id="node7" class="node">
<title>Node6</title>
<polygon fill="none" stroke="#bfbfbf" points="668.7655,-220.5 668.7655,-238.5 745.8983,-238.5 745.8983,-220.5 668.7655,-220.5"/>
<text text-anchor="middle" x="707.3319" y="-226.5" font-family="Helvetica,sans-Serif" font-size="10.00" fill="#000000">QDataStream</text>
</g>
<!-- Node1&#45;&gt;Node6 -->
<g id="edge7" class="edge">
<title>Node1&#45;&gt;Node6</title>
<path fill="none" stroke="#191970" d="M949.3525,-277.3159C905.5251,-268.7864 830.0122,-254.0431 756.0122,-239.3273"/>
<polygon fill="#191970" stroke="#191970" points="756.5479,-235.8653 746.057,-237.3458 755.1814,-242.7306 756.5479,-235.8653"/>
</g>
<!-- Node7 -->
<g id="node8" class="node">
<title>Node7</title>
<polygon fill="none" stroke="#bfbfbf" points="763.6547,-220.5 763.6547,-238.5 823.0092,-238.5 823.0092,-220.5 763.6547,-220.5"/>
<text text-anchor="middle" x="793.3319" y="-226.5" font-family="Helvetica,sans-Serif" font-size="10.00" fill="#000000">QRegExp</text>
</g>
<!-- Node1&#45;&gt;Node7 -->
<g id="edge9" class="edge">
<title>Node1&#45;&gt;Node7</title>
<path fill="none" stroke="#191970" d="M954.4619,-275.4179C921.0901,-265.9078 868.6336,-250.959 832.6972,-240.7181"/>
<polygon fill="#191970" stroke="#191970" points="833.6053,-237.3376 823.029,-237.9629 831.6868,-244.0696 833.6053,-237.3376"/>
</g>
<!-- Node8 -->
<g id="node9" class="node">
<title>Node8</title>
<polygon fill="none" stroke="#bfbfbf" points="840.7631,-220.5 840.7631,-238.5 957.9008,-238.5 957.9008,-220.5 840.7631,-220.5"/>
<text text-anchor="middle" x="899.3319" y="-226.5" font-family="Helvetica,sans-Serif" font-size="10.00" fill="#000000">QSortFilterProxyModel</text>
</g>
<!-- Node1&#45;&gt;Node8 -->
<g id="edge10" class="edge">
<title>Node1&#45;&gt;Node8</title>
<path fill="none" stroke="#191970" d="M971.9656,-275.4179C958.4906,-266.8992 938.1126,-254.0166 922.3675,-244.0627"/>
<polygon fill="#191970" stroke="#191970" points="924.0424,-240.9808 913.7195,-238.5956 920.3019,-246.8977 924.0424,-240.9808"/>
</g>
<!-- Node1&#45;&gt;Node9 -->
<g id="edge11" class="edge">
<title>Node1&#45;&gt;Node9</title>
<path fill="none" stroke="#191970" d="M1007.7988,-275.4179C1028.9689,-266.4613 1061.5413,-252.6806 1085.4817,-242.552"/>
<polygon fill="#191970" stroke="#191970" points="1086.9872,-245.7155 1094.8332,-238.5956 1084.2597,-239.2687 1086.9872,-245.7155"/>
</g>
<!-- Node10 -->
<g id="node11" class="node">
<title>Node10</title>
<g id="a_node11"><a xlink:href="qtpasssettings_8h.html" target="_top" xlink:title="qtpasssettings.h">
<polygon fill="none" stroke="#000000" points="466.1991,-220.5 466.1991,-238.5 554.4647,-238.5 554.4647,-220.5 466.1991,-220.5"/>
<text text-anchor="middle" x="510.3319" y="-226.5" font-family="Helvetica,sans-Serif" font-size="10.00" fill="#000000">qtpasssettings.h</text>
</a>
</g>
</g>
<!-- Node1&#45;&gt;Node10 -->
<g id="edge12" class="edge">
<title>Node1&#45;&gt;Node10</title>
<path fill="none" stroke="#191970" d="M949.3771,-280.23C865.9392,-270.5891 662.6264,-247.0971 564.7479,-235.7876"/>
<polygon fill="#191970" stroke="#191970" points="565.0982,-232.3048 554.7625,-234.6338 564.2946,-239.2586 565.0982,-232.3048"/>
</g>
<!-- Node2&#45;&gt;Node1 -->
<g id="edge3" class="edge">
<title>Node2&#45;&gt;Node1</title>
<path fill="none" stroke="#191970" d="M1030.609,-238.7795C1025.3594,-246.8349 1015.5712,-258.6828 1006.392,-268.2992"/>
<polygon fill="#191970" stroke="#191970" points="1003.8649,-265.8764 999.2593,-275.4179 1008.8098,-270.831 1003.8649,-265.8764"/>
</g>
<!-- Node2&#45;&gt;Node3 -->
<g id="edge4" class="edge">
<title>Node2&#45;&gt;Node3</title>
<path fill="none" stroke="#191970" d="M1024.2498,-220.4179C1016.2569,-212.425 1004.4222,-200.5903 994.7697,-190.9377"/>
<polygon fill="#191970" stroke="#191970" points="997.1573,-188.3757 987.6114,-183.7795 992.2076,-193.3254 997.1573,-188.3757"/>
</g>
<!-- Node4 -->
<g id="node5" class="node">
<title>Node4</title>
<polygon fill="none" stroke="#bfbfbf" points="1046.3124,-165.5 1046.3124,-183.5 1162.3514,-183.5 1162.3514,-165.5 1046.3124,-165.5"/>
<text text-anchor="middle" x="1104.3319" y="-171.5" font-family="Helvetica,sans-Serif" font-size="10.00" fill="#000000">QProcessEnvironment</text>
</g>
<!-- Node2&#45;&gt;Node4 -->
<g id="edge5" class="edge">
<title>Node2&#45;&gt;Node4</title>
<path fill="none" stroke="#191970" d="M1045.0561,-220.4179C1055.6807,-212.1876 1071.5636,-199.8839 1084.215,-190.0836"/>
<polygon fill="#191970" stroke="#191970" points="1086.5909,-192.6704 1092.353,-183.7795 1082.3041,-187.1365 1086.5909,-192.6704"/>
</g>
<!-- Node5 -->
<g id="node6" class="node">
<title>Node5</title>
<polygon fill="none" stroke="#bfbfbf" points="463.3812,-.5 463.3812,-18.5 513.2826,-18.5 513.2826,-.5 463.3812,-.5"/>
<text text-anchor="middle" x="488.3319" y="-6.5" font-family="Helvetica,sans-Serif" font-size="10.00" fill="#000000">QString</text>
</g>
<!-- Node2&#45;&gt;Node5 -->
<g id="edge6" class="edge">
<title>Node2&#45;&gt;Node5</title>
<path fill="none" stroke="#191970" d="M1051.9985,-223.1354C1055.1133,-222.0823 1058.3125,-221.0063 1061.3319,-220 1113.1874,-202.7182 1196.5638,-213.4871 1171.3319,-165 1132.0018,-89.4209 1094.4039,-84.1125 1014.3319,-55 923.6449,-22.0281 626.3256,-12.5143 523.6099,-10.1754"/>
<polygon fill="#191970" stroke="#191970" points="523.5279,-6.6729 513.4537,-9.9534 523.3748,-13.6712 523.5279,-6.6729"/>
</g>
<!-- Node11 -->
<g id="node12" class="node">
<title>Node11</title>
<g id="a_node12"><a xlink:href="enums_8h.html" target="_top" xlink:title="enums.h">
<polygon fill="none" stroke="#000000" points="91.1547,-55.5 91.1547,-73.5 145.5092,-73.5 145.5092,-55.5 91.1547,-55.5"/>
<text text-anchor="middle" x="118.3319" y="-61.5" font-family="Helvetica,sans-Serif" font-size="10.00" fill="#000000">enums.h</text>
</a>
</g>
</g>
<!-- Node10&#45;&gt;Node11 -->
<g id="edge13" class="edge">
<title>Node10&#45;&gt;Node11</title>
<path fill="none" stroke="#191970" d="M465.9246,-227.5801C390.0226,-223.5707 239.2665,-212.2182 195.3319,-184 157.7501,-159.8621 134.8226,-110.1305 124.6121,-83.0549"/>
<polygon fill="#191970" stroke="#191970" points="127.8852,-81.8135 121.2136,-73.583 121.2965,-84.1776 127.8852,-81.8135"/>
</g>
<!-- Node12 -->
<g id="node13" class="node">
<title>Node12</title>
<g id="a_node13"><a xlink:href="imitatepass_8h.html" target="_top" xlink:title="imitatepass.h">
<polygon fill="none" stroke="#000000" points="43.8739,-165.5 43.8739,-183.5 118.7899,-183.5 118.7899,-165.5 43.8739,-165.5"/>
<text text-anchor="middle" x="81.3319" y="-171.5" font-family="Helvetica,sans-Serif" font-size="10.00" fill="#000000">imitatepass.h</text>
</a>
</g>
</g>
<!-- Node10&#45;&gt;Node12 -->
<g id="edge14" class="edge">
<title>Node10&#45;&gt;Node12</title>
<path fill="none" stroke="#191970" d="M465.9784,-225.0966C395.2309,-217.8626 252.5517,-202.4129 132.3319,-184 131.2413,-183.833 130.1384,-183.6602 129.0266,-183.4825"/>
<polygon fill="#191970" stroke="#191970" points="129.327,-179.984 118.8853,-181.7786 128.1671,-186.8873 129.327,-179.984"/>
</g>
<!-- Node13 -->
<g id="node14" class="node">
<title>Node13</title>
<g id="a_node14"><a xlink:href="pass_8h.html" target="_top" xlink:title="pass.h">
<polygon fill="none" stroke="#000000" points="222.6005,-110.5 222.6005,-128.5 268.0634,-128.5 268.0634,-110.5 222.6005,-110.5"/>
<text text-anchor="middle" x="245.3319" y="-116.5" font-family="Helvetica,sans-Serif" font-size="10.00" fill="#000000">pass.h</text>
</a>
</g>
</g>
<!-- Node10&#45;&gt;Node13 -->
<g id="edge33" class="edge">
<title>Node10&#45;&gt;Node13</title>
<path fill="none" stroke="#191970" d="M466.1624,-226.1143C385.3229,-219.4673 220.27,-203.6335 203.3319,-184 190.0267,-168.5775 207.4565,-148.6534 223.7376,-135.0564"/>
<polygon fill="#191970" stroke="#191970" points="226.2783,-137.5112 231.9779,-128.5801 221.9528,-132.0075 226.2783,-137.5112"/>
</g>
<!-- Node17 -->
<g id="node18" class="node">
<title>Node17</title>
<polygon fill="none" stroke="#bfbfbf" points="31.9921,-.5 31.9921,-18.5 84.6718,-18.5 84.6718,-.5 31.9921,-.5"/>
<text text-anchor="middle" x="58.3319" y="-6.5" font-family="Helvetica,sans-Serif" font-size="10.00" fill="#000000">QObject</text>
</g>
<!-- Node10&#45;&gt;Node17 -->
<g id="edge41" class="edge">
<title>Node10&#45;&gt;Node17</title>
<path fill="none" stroke="#191970" d="M465.8737,-227.6649C354.6014,-222.7326 70.4709,-207.9215 35.3319,-184 -12.381,-151.5187 -5.4973,-106.6179 20.3319,-55 25.6513,-44.3695 33.9059,-34.0696 41.3644,-25.9658"/>
<polygon fill="#191970" stroke="#191970" points="43.9884,-28.2871 48.4192,-18.6632 38.954,-23.4235 43.9884,-28.2871"/>
</g>
<!-- Node21 -->
<g id="node22" class="node">
<title>Node21</title>
<polygon fill="none" stroke="#bfbfbf" points="702.056,-55.5 702.056,-73.5 738.6078,-73.5 738.6078,-55.5 702.056,-55.5"/>
<text text-anchor="middle" x="720.3319" y="-61.5" font-family="Helvetica,sans-Serif" font-size="10.00" fill="#000000">QDir</text>
</g>
<!-- Node10&#45;&gt;Node21 -->
<g id="edge38" class="edge">
<title>Node10&#45;&gt;Node21</title>
<path fill="none" stroke="#191970" d="M554.6407,-225.6327C650.7388,-217.0341 870.5948,-196.1344 881.3319,-184 926.9348,-132.4626 806.0894,-89.2587 748.6781,-72.2524"/>
<polygon fill="#191970" stroke="#191970" points="749.3293,-68.7975 738.7508,-69.3857 747.3873,-75.5227 749.3293,-68.7975"/>
</g>
<!-- Node25 -->
<g id="node26" class="node">
<title>Node25</title>
<g id="a_node26"><a xlink:href="realpass_8h.html" target="_top" xlink:title="realpass.h">
<polygon fill="none" stroke="#000000" points="212.2631,-165.5 212.2631,-183.5 274.4008,-183.5 274.4008,-165.5 212.2631,-165.5"/>
<text text-anchor="middle" x="243.3319" y="-171.5" font-family="Helvetica,sans-Serif" font-size="10.00" fill="#000000">realpass.h</text>
</a>
</g>
</g>
<!-- Node10&#45;&gt;Node25 -->
<g id="edge34" class="edge">
<title>Node10&#45;&gt;Node25</title>
<path fill="none" stroke="#191970" d="M465.8681,-221.0697C422.1815,-212.6791 353.3754,-199.178 284.8552,-184.2805"/>
<polygon fill="#191970" stroke="#191970" points="285.2674,-180.788 274.7508,-182.0728 283.7732,-187.6267 285.2674,-180.788"/>
</g>
<!-- Node26 -->
<g id="node27" class="node">
<title>Node26</title>
<polygon fill="none" stroke="#bfbfbf" points="292.4921,-165.5 292.4921,-183.5 360.1718,-183.5 360.1718,-165.5 292.4921,-165.5"/>
<text text-anchor="middle" x="326.3319" y="-171.5" font-family="Helvetica,sans-Serif" font-size="10.00" fill="#000000">QByteArray</text>
</g>
<!-- Node10&#45;&gt;Node26 -->
<g id="edge36" class="edge">
<title>Node10&#45;&gt;Node26</title>
<path fill="none" stroke="#191970" d="M479.9481,-220.4179C448.8259,-211.115 400.2933,-196.608 366.1236,-186.3943"/>
<polygon fill="#191970" stroke="#191970" points="367.0386,-183.0148 356.4551,-183.5042 365.0338,-189.7216 367.0386,-183.0148"/>
</g>
<!-- Node27 -->
<g id="node28" class="node">
<title>Node27</title>
<polygon fill="none" stroke="#bfbfbf" points="378.1449,-165.5 378.1449,-183.5 472.5189,-183.5 472.5189,-165.5 378.1449,-165.5"/>
<text text-anchor="middle" x="425.3319" y="-171.5" font-family="Helvetica,sans-Serif" font-size="10.00" fill="#000000">QCoreApplication</text>
</g>
<!-- Node10&#45;&gt;Node27 -->
<g id="edge37" class="edge">
<title>Node10&#45;&gt;Node27</title>
<path fill="none" stroke="#191970" d="M496.2959,-220.4179C483.1306,-211.8992 463.2211,-199.0166 447.8379,-189.0627"/>
<polygon fill="#191970" stroke="#191970" points="449.6859,-186.0897 439.3888,-183.5956 445.8831,-191.9667 449.6859,-186.0897"/>
</g>
<!-- Node28 -->
<g id="node29" class="node">
<title>Node28</title>
<polygon fill="none" stroke="#bfbfbf" points="490.3861,-165.5 490.3861,-183.5 530.2777,-183.5 530.2777,-165.5 490.3861,-165.5"/>
<text text-anchor="middle" x="510.3319" y="-171.5" font-family="Helvetica,sans-Serif" font-size="10.00" fill="#000000">QFile</text>
</g>
<!-- Node10&#45;&gt;Node28 -->
<g id="edge39" class="edge">
<title>Node10&#45;&gt;Node28</title>
<path fill="none" stroke="#191970" d="M510.3319,-220.4179C510.3319,-213.2164 510.3319,-202.8962 510.3319,-193.8632"/>
<polygon fill="#191970" stroke="#191970" points="513.832,-193.7794 510.3319,-183.7795 506.832,-193.7795 513.832,-193.7794"/>
</g>
<!-- Node29 -->
<g id="node30" class="node">
<title>Node29</title>
<polygon fill="none" stroke="#bfbfbf" points="548.7704,-165.5 548.7704,-183.5 595.8934,-183.5 595.8934,-165.5 548.7704,-165.5"/>
<text text-anchor="middle" x="572.3319" y="-171.5" font-family="Helvetica,sans-Serif" font-size="10.00" fill="#000000">QHash</text>
</g>
<!-- Node10&#45;&gt;Node29 -->
<g id="edge40" class="edge">
<title>Node10&#45;&gt;Node29</title>
<path fill="none" stroke="#191970" d="M520.5699,-220.4179C529.6693,-212.3458 543.1856,-200.3556 554.1246,-190.6517"/>
<polygon fill="#191970" stroke="#191970" points="556.7133,-193.0339 561.8714,-183.7795 552.068,-187.7974 556.7133,-193.0339"/>
</g>
<!-- Node30 -->
<g id="node31" class="node">
<title>Node30</title>
<polygon fill="none" stroke="#bfbfbf" points="614.0463,-165.5 614.0463,-183.5 660.6176,-183.5 660.6176,-165.5 614.0463,-165.5"/>
<text text-anchor="middle" x="637.3319" y="-171.5" font-family="Helvetica,sans-Serif" font-size="10.00" fill="#000000">QPoint</text>
</g>
<!-- Node10&#45;&gt;Node30 -->
<g id="edge42" class="edge">
<title>Node10&#45;&gt;Node30</title>
<path fill="none" stroke="#191970" d="M531.3034,-220.4179C551.8931,-211.5011 583.5231,-197.803 606.8813,-187.6873"/>
<polygon fill="#191970" stroke="#191970" points="608.5438,-190.7815 616.3293,-183.5956 605.7619,-184.358 608.5438,-190.7815"/>
</g>
<!-- Node31 -->
<g id="node32" class="node">
<title>Node31</title>
<polygon fill="none" stroke="#bfbfbf" points="678.3763,-165.5 678.3763,-183.5 738.2875,-183.5 738.2875,-165.5 678.3763,-165.5"/>
<text text-anchor="middle" x="708.3319" y="-171.5" font-family="Helvetica,sans-Serif" font-size="10.00" fill="#000000">QSettings</text>
</g>
<!-- Node10&#45;&gt;Node31 -->
<g id="edge43" class="edge">
<title>Node10&#45;&gt;Node31</title>
<path fill="none" stroke="#191970" d="M543.0276,-220.4179C577.3643,-210.8799 631.3952,-195.8713 668.2707,-185.6281"/>
<polygon fill="#191970" stroke="#191970" points="669.4875,-188.9227 678.1859,-182.8739 667.614,-182.1781 669.4875,-188.9227"/>
</g>
<!-- Node32 -->
<g id="node33" class="node">
<title>Node32</title>
<polygon fill="none" stroke="#bfbfbf" points="756.7162,-165.5 756.7162,-183.5 799.9476,-183.5 799.9476,-165.5 756.7162,-165.5"/>
<text text-anchor="middle" x="778.3319" y="-171.5" font-family="Helvetica,sans-Serif" font-size="10.00" fill="#000000">QSize</text>
</g>
<!-- Node10&#45;&gt;Node32 -->
<g id="edge44" class="edge">
<title>Node10&#45;&gt;Node32</title>
<path fill="none" stroke="#191970" d="M554.7592,-222.4411C600.56,-214.8372 674.1839,-201.7074 746.6474,-183.9596"/>
<polygon fill="#191970" stroke="#191970" points="747.5348,-187.3456 756.3981,-181.5412 745.8496,-180.5515 747.5348,-187.3456"/>
</g>
<!-- Node33 -->
<g id="node34" class="node">
<title>Node33</title>
<polygon fill="none" stroke="#bfbfbf" points="817.9691,-165.5 817.9691,-183.5 872.6947,-183.5 872.6947,-165.5 817.9691,-165.5"/>
<text text-anchor="middle" x="845.3319" y="-171.5" font-family="Helvetica,sans-Serif" font-size="10.00" fill="#000000">QVariant</text>
</g>
<!-- Node10&#45;&gt;Node33 -->
<g id="edge45" class="edge">
<title>Node10&#45;&gt;Node33</title>
<path fill="none" stroke="#191970" d="M554.671,-224.2595C611.3365,-217.2303 712.6075,-203.5552 808.073,-184.0919"/>
<polygon fill="#191970" stroke="#191970" points="808.8004,-187.5157 817.8863,-182.0662 807.3852,-180.6602 808.8004,-187.5157"/>
</g>
<!-- Node12&#45;&gt;Node13 -->
<g id="edge15" class="edge">
<title>Node12&#45;&gt;Node13</title>
<path fill="none" stroke="#191970" d="M108.4132,-165.4179C137.0214,-155.8236 182.135,-140.6941 212.6888,-130.4474"/>
<polygon fill="#191970" stroke="#191970" points="214.0794,-133.6727 222.4475,-127.1746 211.8536,-127.036 214.0794,-133.6727"/>
</g>
<!-- Node23 -->
<g id="node24" class="node">
<title>Node23</title>
<g id="a_node24"><a xlink:href="simpletransaction_8h.html" target="_top" xlink:title="simpletransaction.h">
<polygon fill="none" stroke="#000000" points="16.2557,-110.5 16.2557,-128.5 118.4081,-128.5 118.4081,-110.5 16.2557,-110.5"/>
<text text-anchor="middle" x="67.3319" y="-116.5" font-family="Helvetica,sans-Serif" font-size="10.00" fill="#000000">simpletransaction.h</text>
</a>
</g>
</g>
<!-- Node12&#45;&gt;Node23 -->
<g id="edge30" class="edge">
<title>Node12&#45;&gt;Node23</title>
<path fill="none" stroke="#191970" d="M79.0201,-165.4179C77.1668,-158.1372 74.5022,-147.669 72.185,-138.5659"/>
<polygon fill="#191970" stroke="#191970" points="75.5527,-137.607 69.694,-128.7795 68.769,-139.3338 75.5527,-137.607"/>
</g>
<!-- Node13&#45;&gt;Node5 -->
<g id="edge29" class="edge">
<title>Node13&#45;&gt;Node5</title>
<path fill="none" stroke="#191970" d="M268.0746,-117.4318C317.553,-112.5139 432.8942,-98.652 462.3319,-74 475.9041,-62.6342 482.4585,-43.129 485.5817,-28.5366"/>
<polygon fill="#191970" stroke="#191970" points="489.0523,-29.0105 487.3606,-18.5516 482.1608,-27.7827 489.0523,-29.0105"/>
</g>
<!-- Node13&#45;&gt;Node11 -->
<g id="edge19" class="edge">
<title>Node13&#45;&gt;Node11</title>
<path fill="none" stroke="#191970" d="M224.3604,-110.4179C203.7708,-101.5011 172.1408,-87.803 148.7825,-77.6873"/>
<polygon fill="#191970" stroke="#191970" points="149.9019,-74.358 139.3345,-73.5956 147.12,-80.7815 149.9019,-74.358"/>
</g>
<!-- Node14 -->
<g id="node15" class="node">
<title>Node14</title>
<g id="a_node15"><a xlink:href="datahelpers_8h.html" target="_top" xlink:title="datahelpers.h">
<polygon fill="none" stroke="#000000" points="377.0316,-55.5 377.0316,-73.5 453.6322,-73.5 453.6322,-55.5 377.0316,-55.5"/>
<text text-anchor="middle" x="415.3319" y="-61.5" font-family="Helvetica,sans-Serif" font-size="10.00" fill="#000000">datahelpers.h</text>
</a>
</g>
</g>
<!-- Node13&#45;&gt;Node14 -->
<g id="edge16" class="edge">
<title>Node13&#45;&gt;Node14</title>
<path fill="none" stroke="#191970" d="M268.2589,-112.0825C296.2665,-103.0212 344.044,-87.5637 377.5228,-76.7323"/>
<polygon fill="#191970" stroke="#191970" points="378.979,-79.9399 387.4161,-73.5316 376.8242,-73.2798 378.979,-79.9399"/>
</g>
<!-- Node16 -->
<g id="node17" class="node">
<title>Node16</title>
<g id="a_node17"><a xlink:href="executor_8h.html" target="_top" xlink:title="executor.h">
<polygon fill="none" stroke="#000000" points="201.2582,-55.5 201.2582,-73.5 263.4056,-73.5 263.4056,-55.5 201.2582,-55.5"/>
<text text-anchor="middle" x="232.3319" y="-61.5" font-family="Helvetica,sans-Serif" font-size="10.00" fill="#000000">executor.h</text>
</a>
</g>
</g>
<!-- Node13&#45;&gt;Node16 -->
<g id="edge20" class="edge">
<title>Node13&#45;&gt;Node16</title>
<path fill="none" stroke="#191970" d="M243.1852,-110.4179C241.4643,-103.1372 238.99,-92.669 236.8384,-83.5659"/>
<polygon fill="#191970" stroke="#191970" points="240.2317,-82.7062 234.5252,-73.7795 233.4194,-84.3164 240.2317,-82.7062"/>
</g>
<!-- Node18 -->
<g id="node19" class="node">
<title>Node18</title>
<polygon fill="none" stroke="#bfbfbf" points="164.3812,-.5 164.3812,-18.5 224.2826,-18.5 224.2826,-.5 164.3812,-.5"/>
<text text-anchor="middle" x="194.3319" y="-6.5" font-family="Helvetica,sans-Serif" font-size="10.00" fill="#000000">QProcess</text>
</g>
<!-- Node13&#45;&gt;Node18 -->
<g id="edge27" class="edge">
<title>Node13&#45;&gt;Node18</title>
<path fill="none" stroke="#191970" d="M228.4793,-110.4285C215.9231,-102.6252 199.724,-90.0885 192.3319,-74 185.8274,-59.8432 186.9797,-42.0341 189.3896,-28.7179"/>
<polygon fill="#191970" stroke="#191970" points="192.8483,-29.2853 191.5693,-18.768 186.0104,-27.7874 192.8483,-29.2853"/>
</g>
<!-- Node19 -->
<g id="node20" class="node">
<title>Node19</title>
<polygon fill="none" stroke="#bfbfbf" points="253.4305,-.5 253.4305,-18.5 307.2333,-18.5 307.2333,-.5 253.4305,-.5"/>
<text text-anchor="middle" x="280.3319" y="-6.5" font-family="Helvetica,sans-Serif" font-size="10.00" fill="#000000">QQueue</text>
</g>
<!-- Node13&#45;&gt;Node19 -->
<g id="edge28" class="edge">
<title>Node13&#45;&gt;Node19</title>
<path fill="none" stroke="#191970" d="M252.3506,-110.3024C258.6837,-101.4884 267.6957,-87.5585 272.3319,-74 277.3581,-59.3011 279.292,-41.7578 280.0059,-28.6805"/>
<polygon fill="#191970" stroke="#191970" points="283.5095,-28.6396 280.3663,-18.5218 276.5139,-28.3914 283.5095,-28.6396"/>
</g>
<!-- Node13&#45;&gt;Node20 -->
<g id="edge24" class="edge">
<title>Node13&#45;&gt;Node20</title>
<path fill="none" stroke="#191970" d="M268.0729,-117.7936C372.8999,-109.928 809.9692,-77.1329 941.0272,-67.2991"/>
<polygon fill="#191970" stroke="#191970" points="941.6305,-70.7638 951.3405,-66.5253 941.1066,-63.7834 941.6305,-70.7638"/>
</g>
<!-- Node13&#45;&gt;Node21 -->
<g id="edge25" class="edge">
<title>Node13&#45;&gt;Node21</title>
<path fill="none" stroke="#191970" d="M268.2421,-116.8472C346.7933,-107.7518 605.1343,-77.8387 691.7418,-67.8104"/>
<polygon fill="#191970" stroke="#191970" points="692.3534,-71.2631 701.8844,-66.636 691.5482,-64.3096 692.3534,-71.2631"/>
</g>
<!-- Node22 -->
<g id="node23" class="node">
<title>Node22</title>
<polygon fill="none" stroke="#bfbfbf" points="319.662,-55.5 319.662,-73.5 359.0018,-73.5 359.0018,-55.5 319.662,-55.5"/>
<text text-anchor="middle" x="339.3319" y="-61.5" font-family="Helvetica,sans-Serif" font-size="10.00" fill="#000000">QList</text>
</g>
<!-- Node13&#45;&gt;Node22 -->
<g id="edge26" class="edge">
<title>Node13&#45;&gt;Node22</title>
<path fill="none" stroke="#191970" d="M260.8541,-110.4179C275.5494,-101.8195 297.8431,-88.7754 314.9185,-78.7844"/>
<polygon fill="#191970" stroke="#191970" points="316.9231,-81.6667 323.7867,-73.5956 313.388,-75.6249 316.9231,-81.6667"/>
</g>
<!-- Node14&#45;&gt;Node5 -->
<g id="edge18" class="edge">
<title>Node14&#45;&gt;Node5</title>
<path fill="none" stroke="#191970" d="M427.3864,-55.4179C438.4153,-47.1084 454.9551,-34.6469 468.0226,-24.8015"/>
<polygon fill="#191970" stroke="#191970" points="470.1348,-27.5924 476.0155,-18.7795 465.9225,-22.0016 470.1348,-27.5924"/>
</g>
<!-- Node15 -->
<g id="node16" class="node">
<title>Node15</title>
<polygon fill="none" stroke="#bfbfbf" points="378.9535,-.5 378.9535,-18.5 445.7103,-18.5 445.7103,-.5 378.9535,-.5"/>
<text text-anchor="middle" x="412.3319" y="-6.5" font-family="Helvetica,sans-Serif" font-size="10.00" fill="#000000">QDateTime</text>
</g>
<!-- Node14&#45;&gt;Node15 -->
<g id="edge17" class="edge">
<title>Node14&#45;&gt;Node15</title>
<path fill="none" stroke="#191970" d="M414.8365,-55.4179C414.4437,-48.2164 413.8808,-37.8962 413.3881,-28.8632"/>
<polygon fill="#191970" stroke="#191970" points="416.8776,-28.574 412.8381,-18.7795 409.888,-28.9553 416.8776,-28.574"/>
</g>
<!-- Node16&#45;&gt;Node17 -->
<g id="edge21" class="edge">
<title>Node16&#45;&gt;Node17</title>
<path fill="none" stroke="#191970" d="M203.5993,-55.4179C173.6826,-45.9614 126.7534,-31.1275 94.3714,-20.8918"/>
<polygon fill="#191970" stroke="#191970" points="95.4137,-17.5506 84.8238,-17.8739 93.3039,-24.2251 95.4137,-17.5506"/>
</g>
<!-- Node16&#45;&gt;Node18 -->
<g id="edge22" class="edge">
<title>Node16&#45;&gt;Node18</title>
<path fill="none" stroke="#191970" d="M226.057,-55.4179C220.7533,-47.7415 213.0015,-36.5217 206.4881,-27.0945"/>
<polygon fill="#191970" stroke="#191970" points="209.3071,-25.0173 200.7432,-18.7795 203.548,-28.9963 209.3071,-25.0173"/>
</g>
<!-- Node16&#45;&gt;Node19 -->
<g id="edge23" class="edge">
<title>Node16&#45;&gt;Node19</title>
<path fill="none" stroke="#191970" d="M240.2581,-55.4179C247.0956,-47.5833 257.1544,-36.0575 265.4836,-26.5137"/>
<polygon fill="#191970" stroke="#191970" points="268.2951,-28.6151 272.2335,-18.7795 263.0211,-24.0123 268.2951,-28.6151"/>
</g>
<!-- Node23&#45;&gt;Node11 -->
<g id="edge31" class="edge">
<title>Node23&#45;&gt;Node11</title>
<path fill="none" stroke="#191970" d="M75.7535,-110.4179C83.0917,-102.5041 93.9221,-90.8243 102.8232,-81.2251"/>
<polygon fill="#191970" stroke="#191970" points="105.4943,-83.492 109.7273,-73.7795 100.3614,-78.7324 105.4943,-83.492"/>
</g>
<!-- Node24 -->
<g id="node25" class="node">
<title>Node24</title>
<polygon fill="none" stroke="#bfbfbf" points="29.4281,-55.5 29.4281,-73.5 73.2357,-73.5 73.2357,-55.5 29.4281,-55.5"/>
<text text-anchor="middle" x="51.3319" y="-61.5" font-family="Helvetica,sans-Serif" font-size="10.00" fill="#000000">queue</text>
</g>
<!-- Node23&#45;&gt;Node24 -->
<g id="edge32" class="edge">
<title>Node23&#45;&gt;Node24</title>
<path fill="none" stroke="#191970" d="M64.6898,-110.4179C62.5718,-103.1372 59.5265,-92.669 56.8783,-83.5659"/>
<polygon fill="#191970" stroke="#191970" points="60.1854,-82.4037 54.0314,-73.7795 53.4641,-84.3591 60.1854,-82.4037"/>
</g>
<!-- Node25&#45;&gt;Node13 -->
<g id="edge35" class="edge">
<title>Node25&#45;&gt;Node13</title>
<path fill="none" stroke="#191970" d="M243.6622,-165.4179C243.924,-158.2164 244.2993,-147.8962 244.6278,-138.8632"/>
<polygon fill="#191970" stroke="#191970" points="248.1287,-138.9001 244.9945,-128.7795 241.1333,-138.6456 248.1287,-138.9001"/>
</g>
</g>
</svg>
        <g id="navigator" transform="translate(0 0)" fill="#404254">
                <rect fill="#f2f5e9" fill-opacity="0.5" stroke="#606060" stroke-width=".5" x="0" y="0" width="60" height="60"/>
                <use id="zoomplus" xlink:href="#zoomPlus" x="17" y="9" onmousedown="handleZoom(evt,'in')"/>
                <use id="zoomminus" xlink:href="#zoomMin" x="42" y="9" onmousedown="handleZoom(evt,'out')"/>
                <use id="reset" xlink:href="#resetDef" x="30" y="36" onmousedown="handleReset()"/>
                <g id="arrowUp" xlink:href="#dirArrow" transform="translate(30 24)" onmousedown="handlePan(0,-1)">
                  <use xlink:href="#rim" fill="#404040">
                        <set attributeName="fill" to="#808080" begin="arrowUp.mouseover" end="arrowUp.mouseout"/>
                  </use>
                  <path fill="none" stroke="white" stroke-width="1.5" d="M0,-3.0v7 M-2.5,-0.5L0,-3.0L2.5,-0.5"/>
                </g>
                <g id="arrowRight" xlink:href="#dirArrow" transform="rotate(90) translate(36 -43)" onmousedown="handlePan(1,0)">
                  <use xlink:href="#rim" fill="#404040">
                        <set attributeName="fill" to="#808080" begin="arrowRight.mouseover" end="arrowRight.mouseout"/>
                  </use>
                  <path fill="none" stroke="white" stroke-width="1.5" d="M0,-3.0v7 M-2.5,-0.5L0,-3.0L2.5,-0.5"/>
                </g>
                <g id="arrowDown" xlink:href="#dirArrow" transform="rotate(180) translate(-30 -48)" onmousedown="handlePan(0,1)">
                  <use xlink:href="#rim" fill="#404040">
                        <set attributeName="fill" to="#808080" begin="arrowDown.mouseover" end="arrowDown.mouseout"/>
                  </use>
                  <path fill="none" stroke="white" stroke-width="1.5" d="M0,-3.0v7 M-2.5,-0.5L0,-3.0L2.5,-0.5"/>
                </g>
                <g id="arrowLeft" xlink:href="#dirArrow" transform="rotate(270) translate(-36 17)" onmousedown="handlePan(-1,0)">
                  <use xlink:href="#rim" fill="#404040">
                        <set attributeName="fill" to="#808080" begin="arrowLeft.mouseover" end="arrowLeft.mouseout"/>
                  </use>
                  <path fill="none" stroke="white" stroke-width="1.5" d="M0,-3.0v7 M-2.5,-0.5L0,-3.0L2.5,-0.5"/>
                </g>
        </g>
        <svg viewBox="0 0 15 15" width="100%" height="30px" preserveAspectRatio="xMaxYMin meet">
         <g id="arrow_out" transform="scale(0.3 0.3)">
          <a xlink:href="storemodel_8cpp__incl_org.svg" target="_base">
           <rect id="button" ry="5" rx="5" y="6" x="6" height="38" width="38"
                fill="#f2f5e9" fill-opacity="0.5" stroke="#606060" stroke-width="1.0"/>
           <path id="arrow"
             d="M 11.500037,31.436501 C 11.940474,20.09759 22.043105,11.32322 32.158766,21.979434 L 37.068811,17.246167 C 37.068811,17.246167 37.088388,32 37.088388,32 L 22.160133,31.978069 C 22.160133,31.978069 26.997745,27.140456 26.997745,27.140456 C 18.528582,18.264221 13.291696,25.230495 11.500037,31.436501 z"
             style="fill:#404040;"/>
          </a>
         </g>
        </svg>
</svg>
