<?xml version="1.0" encoding="UTF-8" standalone="no"?>
<!DOCTYPE svg PUBLIC "-//W3C//DTD SVG 1.1//EN"
 "http://www.w3.org/Graphics/SVG/1.1/DTD/svg11.dtd">
<!-- Generated by graphviz version 2.40.1 (20161225.0304)
 -->
<!-- Title: src/storemodel.cpp Pages: 1 -->
<!--zoomable 302 -->
<svg id="main" version="1.1" xmlns="http://www.w3.org/2000/svg" xmlns:xlink="http://www.w3.org/1999/xlink" xml:space="preserve" onload="init(evt)">
<style type="text/css"><![CDATA[
.edge:hover path { stroke: red; }
.edge:hover polygon { stroke: red; fill: red; }
]]></style>
<script type="text/javascript"><![CDATA[
var edges = document.getElementsByTagName('g');
if (edges && edges.length) {
  for (var i=0;i<edges.length;i++) {
    if (edges[i].id.substr(0,4)=='edge') {
      edges[i].setAttribute('class','edge');
    }
  }
}
]]></script>
        <defs>
                <circle id="rim" cx="0" cy="0" r="7"/>
                <circle id="rim2" cx="0" cy="0" r="3.5"/>
                <g id="zoomPlus">
                        <use xlink:href="#rim" fill="#404040">
                                <set attributeName="fill" to="#808080" begin="zoomplus.mouseover" end="zoomplus.mouseout"/>
                        </use>
                        <path d="M-4,0h8M0,-4v8" fill="none" stroke="white" stroke-width="1.5" pointer-events="none"/>
                </g>
                <g id="zoomMin">
                        <use xlink:href="#rim" fill="#404040">
                                <set attributeName="fill" to="#808080" begin="zoomminus.mouseover" end="zoomminus.mouseout"/>
                        </use>
                        <path d="M-4,0h8" fill="none" stroke="white" stroke-width="1.5" pointer-events="none"/>
                </g>
                <g id="dirArrow">
                        <path fill="none" stroke="white" stroke-width="1.5" d="M0,-3.0v7 M-2.5,-0.5L0,-3.0L2.5,-0.5"/>
                </g>
               <g id="resetDef">
                       <use xlink:href="#rim2" fill="#404040">
                               <set attributeName="fill" to="#808080" begin="reset.mouseover" end="reset.mouseout"/>
                       </use>
               </g>
        </defs>

<script type="text/javascript">
var viewWidth = 1053;
var viewHeight = 302;
var sectionId = 'dynsection-0';
</script>
<script xlink:href="svgpan.js"/>
<svg id="graph" class="graph">
<g id="viewport">
<title>src/storemodel.cpp</title>
<!-- Node0 -->
<g id="node1" class="node">
<title>Node0</title>
<g id="a_node1"><a xlink:title=" ">
<polygon fill="#bfbfbf" stroke="#000000" points="643.7808,-275.5 643.7808,-293.5 744.2583,-293.5 744.2583,-275.5 643.7808,-275.5"/>
<text text-anchor="middle" x="694.0195" y="-281.5" font-family="Helvetica,sans-Serif" font-size="10.00" fill="#000000">src/storemodel.cpp</text>
</a>
</g>
</g>
<!-- Node1 -->
<g id="node2" class="node">
<title>Node1</title>
<g id="a_node2"><a xlink:href="storemodel_8h.html" target="_top" xlink:title=" ">
<polygon fill="none" stroke="#000000" points="155.1157,-220.5 155.1157,-238.5 228.9233,-238.5 228.9233,-220.5 155.1157,-220.5"/>
<text text-anchor="middle" x="192.0195" y="-226.5" font-family="Helvetica,sans-Serif" font-size="10.00" fill="#000000">storemodel.h</text>
</a>
</g>
</g>
<!-- Node0&#45;&gt;Node1 -->
<g id="edge1" class="edge">
<title>Node0&#45;&gt;Node1</title>
<path fill="none" stroke="#191970" d="M643.5874,-278.9746C546.2897,-268.3145 333.9276,-245.0477 239.2318,-234.6727"/>
<polygon fill="#191970" stroke="#191970" points="239.4122,-231.1716 229.0904,-233.5616 238.6497,-238.1299 239.4122,-231.1716"/>
</g>
<!-- Node7 -->
<g id="node8" class="node">
<title>Node7</title>
<g id="a_node8"><a xlink:href="qtpasssettings_8h.html" target="_top" xlink:title=" ">
<polygon fill="none" stroke="#000000" points="518.8867,-220.5 518.8867,-238.5 607.1523,-238.5 607.1523,-220.5 518.8867,-220.5"/>
<text text-anchor="middle" x="563.0195" y="-226.5" font-family="Helvetica,sans-Serif" font-size="10.00" fill="#000000">qtpasssettings.h</text>
</a>
</g>
</g>
<!-- Node0&#45;&gt;Node7 -->
<g id="edge8" class="edge">
<title>Node0&#45;&gt;Node7</title>
<path fill="none" stroke="#191970" d="M672.3875,-275.4179C651.0546,-266.4613 618.2316,-252.6806 594.107,-242.552"/>
<polygon fill="#191970" stroke="#191970" points="595.2589,-239.2397 584.6837,-238.5956 592.5491,-245.6939 595.2589,-239.2397"/>
</g>
<!-- Node31 -->
<g id="node32" class="node">
<title>Node31</title>
<g id="a_node32"><a xlink:title=" ">
<polygon fill="none" stroke="#bfbfbf" points="625.3965,-220.5 625.3965,-238.5 678.6426,-238.5 678.6426,-220.5 625.3965,-220.5"/>
<text text-anchor="middle" x="652.0195" y="-226.5" font-family="Helvetica,sans-Serif" font-size="10.00" fill="#000000">QDebug</text>
</a>
</g>
</g>
<!-- Node0&#45;&gt;Node31 -->
<g id="edge41" class="edge">
<title>Node0&#45;&gt;Node31</title>
<path fill="none" stroke="#191970" d="M687.0841,-275.4179C681.1617,-267.6624 672.4773,-256.29 665.2331,-246.8035"/>
<polygon fill="#191970" stroke="#191970" points="667.9565,-244.6029 659.1057,-238.7795 662.3931,-248.8514 667.9565,-244.6029"/>
</g>
<!-- Node32 -->
<g id="node33" class="node">
<title>Node32</title>
<g id="a_node33"><a xlink:title=" ">
<polygon fill="none" stroke="#bfbfbf" points="696.2266,-220.5 696.2266,-238.5 777.8125,-238.5 777.8125,-220.5 696.2266,-220.5"/>
<text text-anchor="middle" x="737.0195" y="-226.5" font-family="Helvetica,sans-Serif" font-size="10.00" fill="#000000">QMessageBox</text>
</a>
</g>
</g>
<!-- Node0&#45;&gt;Node32 -->
<g id="edge42" class="edge">
<title>Node0&#45;&gt;Node32</title>
<path fill="none" stroke="#191970" d="M701.1201,-275.4179C707.1835,-267.6624 716.0746,-256.29 723.4913,-246.8035"/>
<polygon fill="#191970" stroke="#191970" points="726.3628,-248.8133 729.7647,-238.7795 720.8481,-244.5018 726.3628,-248.8133"/>
</g>
<!-- Node33 -->
<g id="node34" class="node">
<title>Node33</title>
<g id="a_node34"><a xlink:title=" ">
<polygon fill="none" stroke="#bfbfbf" points="795.3472,-220.5 795.3472,-238.5 864.6919,-238.5 864.6919,-220.5 795.3472,-220.5"/>
<text text-anchor="middle" x="830.0195" y="-226.5" font-family="Helvetica,sans-Serif" font-size="10.00" fill="#000000">QMimeData</text>
</a>
</g>
</g>
<!-- Node0&#45;&gt;Node33 -->
<g id="edge43" class="edge">
<title>Node0&#45;&gt;Node33</title>
<path fill="none" stroke="#191970" d="M716.4772,-275.4179C738.7228,-266.4215 773.0032,-252.5581 798.0789,-242.4172"/>
<polygon fill="#191970" stroke="#191970" points="799.5701,-245.5895 807.5285,-238.5956 796.9457,-239.1001 799.5701,-245.5895"/>
</g>
<!-- Node34 -->
<g id="node35" class="node">
<title>Node34</title>
<g id="a_node35"><a xlink:title=" ">
<polygon fill="none" stroke="#bfbfbf" points="882.6279,-220.5 882.6279,-238.5 921.4111,-238.5 921.4111,-220.5 882.6279,-220.5"/>
<text text-anchor="middle" x="902.0195" y="-226.5" font-family="Helvetica,sans-Serif" font-size="10.00" fill="#000000">utility</text>
</a>
</g>
</g>
<!-- Node0&#45;&gt;Node34 -->
<g id="edge44" class="edge">
<title>Node0&#45;&gt;Node34</title>
<path fill="none" stroke="#191970" d="M733.5918,-275.4534C768.0803,-267.3565 819.6245,-254.7465 872.5968,-239.2667"/>
<polygon fill="#191970" stroke="#191970" points="873.9006,-242.5312 882.5007,-236.3434 871.9189,-235.8176 873.9006,-242.5312"/>
</g>
<!-- Node2 -->
<g id="node3" class="node">
<title>Node2</title>
<g id="a_node3"><a xlink:href="util_8h.html" target="_top" xlink:title=" ">
<polygon fill="none" stroke="#000000" points="173.458,-165.5 173.458,-183.5 210.5811,-183.5 210.5811,-165.5 173.458,-165.5"/>
<text text-anchor="middle" x="192.0195" y="-171.5" font-family="Helvetica,sans-Serif" font-size="10.00" fill="#000000">util.h</text>
</a>
</g>
</g>
<!-- Node1&#45;&gt;Node2 -->
<g id="edge2" class="edge">
<title>Node1&#45;&gt;Node2</title>
<path fill="none" stroke="#191970" d="M186.8532,-220.4179C185.3617,-213.2164 184.9237,-202.8962 185.5393,-193.8632"/>
<polygon fill="#191970" stroke="#191970" points="189.0322,-194.1392 186.8128,-183.7795 182.0873,-193.2621 189.0322,-194.1392"/>
</g>
<!-- Node6 -->
<g id="node7" class="node">
<title>Node6</title>
<g id="a_node7"><a xlink:title=" ">
<polygon fill="none" stroke="#bfbfbf" points="38.4507,-165.5 38.4507,-183.5 155.5884,-183.5 155.5884,-165.5 38.4507,-165.5"/>
<text text-anchor="middle" x="97.0195" y="-171.5" font-family="Helvetica,sans-Serif" font-size="10.00" fill="#000000">QSortFilterProxyModel</text>
</a>
</g>
</g>
<!-- Node1&#45;&gt;Node6 -->
<g id="edge7" class="edge">
<title>Node1&#45;&gt;Node6</title>
<path fill="none" stroke="#191970" d="M176.3322,-220.4179C161.4805,-211.8195 138.9497,-198.7754 121.6926,-188.7844"/>
<polygon fill="#191970" stroke="#191970" points="123.1381,-185.577 112.7302,-183.5956 119.6308,-191.635 123.1381,-185.577"/>
</g>
<!-- Node2&#45;&gt;Node1 -->
<g id="edge3" class="edge">
<title>Node2&#45;&gt;Node1</title>
<path fill="none" stroke="#191970" d="M197.2263,-183.7795C198.6987,-191.0373 199.1175,-201.3738 198.4827,-210.383"/>
<polygon fill="#191970" stroke="#191970" points="194.9965,-210.0517 197.1859,-220.4179 201.9387,-210.949 194.9965,-210.0517"/>
</g>
<!-- Node3 -->
<g id="node4" class="node">
<title>Node3</title>
<g id="a_node4"><a xlink:title=" ">
<polygon fill="none" stroke="#bfbfbf" points="133.7856,-110.5 133.7856,-128.5 234.2534,-128.5 234.2534,-110.5 133.7856,-110.5"/>
<text text-anchor="middle" x="184.0195" y="-116.5" font-family="Helvetica,sans-Serif" font-size="10.00" fill="#000000">QFileSystemModel</text>
</a>
</g>
</g>
<!-- Node2&#45;&gt;Node3 -->
<g id="edge4" class="edge">
<title>Node2&#45;&gt;Node3</title>
<path fill="none" stroke="#191970" d="M190.6985,-165.4179C189.651,-158.2164 188.1499,-147.8962 186.836,-138.8632"/>
<polygon fill="#191970" stroke="#191970" points="190.2723,-138.1715 185.3693,-128.7795 183.3452,-139.1791 190.2723,-138.1715"/>
</g>
<!-- Node4 -->
<g id="node5" class="node">
<title>Node4</title>
<g id="a_node5"><a xlink:title=" ">
<polygon fill="none" stroke="#bfbfbf" points="0,-110.5 0,-128.5 116.0391,-128.5 116.0391,-110.5 0,-110.5"/>
<text text-anchor="middle" x="58.0195" y="-116.5" font-family="Helvetica,sans-Serif" font-size="10.00" fill="#000000">QProcessEnvironment</text>
</a>
</g>
</g>
<!-- Node2&#45;&gt;Node4 -->
<g id="edge5" class="edge">
<title>Node2&#45;&gt;Node4</title>
<path fill="none" stroke="#191970" d="M173.3874,-166.8525C151.7067,-157.9537 115.5575,-143.1163 89.4962,-132.4195"/>
<polygon fill="#191970" stroke="#191970" points="90.6332,-129.1029 80.0531,-128.5436 87.9752,-135.5786 90.6332,-129.1029"/>
</g>
<!-- Node5 -->
<g id="node6" class="node">
<title>Node5</title>
<g id="a_node6"><a xlink:title=" ">
<polygon fill="none" stroke="#bfbfbf" points="360.0688,-.5 360.0688,-18.5 409.9702,-18.5 409.9702,-.5 360.0688,-.5"/>
<text text-anchor="middle" x="385.0195" y="-6.5" font-family="Helvetica,sans-Serif" font-size="10.00" fill="#000000">QString</text>
</a>
</g>
</g>
<!-- Node2&#45;&gt;Node5 -->
<g id="edge6" class="edge">
<title>Node2&#45;&gt;Node5</title>
<path fill="none" stroke="#191970" d="M202.671,-165.3939C234.0997,-138.5247 326.7286,-59.3342 366.516,-25.3191"/>
<polygon fill="#191970" stroke="#191970" points="368.8366,-27.9399 374.1631,-18.7814 364.2878,-22.6193 368.8366,-27.9399"/>
</g>
<!-- Node8 -->
<g id="node9" class="node">
<title>Node8</title>
<g id="a_node9"><a xlink:href="enums_8h.html" target="_top" xlink:title=" ">
<polygon fill="none" stroke="#000000" points="928.8423,-55.5 928.8423,-73.5 983.1968,-73.5 983.1968,-55.5 928.8423,-55.5"/>
<text text-anchor="middle" x="956.0195" y="-61.5" font-family="Helvetica,sans-Serif" font-size="10.00" fill="#000000">enums.h</text>
</a>
</g>
</g>
<!-- Node7&#45;&gt;Node8 -->
<g id="edge9" class="edge">
<title>Node7&#45;&gt;Node8</title>
<path fill="none" stroke="#191970" d="M607.2648,-221.5629C610.2275,-221.0334 613.1666,-220.5087 616.0195,-220 706.2269,-203.9167 737.3469,-225.5408 819.0195,-184 861.3257,-162.482 859.9373,-140.8368 896.0195,-110 908.3739,-99.4416 922.878,-88.4084 934.5309,-79.8512"/>
<polygon fill="#191970" stroke="#191970" points="936.7717,-82.5494 942.8032,-73.839 932.6563,-76.8869 936.7717,-82.5494"/>
</g>
<!-- Node9 -->
<g id="node10" class="node">
<title>Node9</title>
<g id="a_node10"><a xlink:href="imitatepass_8h.html" target="_top" xlink:title=" ">
<polygon fill="none" stroke="#000000" points="865.5615,-165.5 865.5615,-183.5 940.4775,-183.5 940.4775,-165.5 865.5615,-165.5"/>
<text text-anchor="middle" x="903.0195" y="-171.5" font-family="Helvetica,sans-Serif" font-size="10.00" fill="#000000">imitatepass.h</text>
</a>
</g>
</g>
<!-- Node7&#45;&gt;Node9 -->
<g id="edge10" class="edge">
<title>Node7&#45;&gt;Node9</title>
<path fill="none" stroke="#191970" d="M607.2511,-221.4831C610.2171,-220.9728 613.1607,-220.4742 616.0195,-220 720.6917,-202.6385 747.407,-201.7173 852.0195,-184 853.1073,-183.8158 854.2078,-183.6274 855.3173,-183.4358"/>
<polygon fill="#191970" stroke="#191970" points="856.2073,-186.8327 865.4444,-181.6436 854.9875,-179.9398 856.2073,-186.8327"/>
</g>
<!-- Node22 -->
<g id="node23" class="node">
<title>Node22</title>
<g id="a_node23"><a xlink:href="passwordconfiguration_8h.html" target="_top" xlink:title=" ">
<polygon fill="none" stroke="#000000" points="289.8203,-110.5 289.8203,-128.5 414.2188,-128.5 414.2188,-110.5 289.8203,-110.5"/>
<text text-anchor="middle" x="352.0195" y="-116.5" font-family="Helvetica,sans-Serif" font-size="10.00" fill="#000000">passwordconfiguration.h</text>
</a>
</g>
</g>
<!-- Node7&#45;&gt;Node22 -->
<g id="edge29" class="edge">
<title>Node7&#45;&gt;Node22</title>
<path fill="none" stroke="#191970" d="M518.7272,-225.6714C441.6956,-218.5616 289.7172,-202.3625 274.0195,-184 256.4775,-163.4801 288.0824,-144.3594 316.1631,-132.3488"/>
<polygon fill="#191970" stroke="#191970" points="317.5337,-135.5699 325.475,-128.5565 314.8934,-129.0869 317.5337,-135.5699"/>
</g>
<!-- Node23 -->
<g id="node24" class="node">
<title>Node23</title>
<g id="a_node24"><a xlink:href="realpass_8h.html" target="_top" xlink:title=" ">
<polygon fill="none" stroke="#000000" points="747.9507,-165.5 747.9507,-183.5 810.0884,-183.5 810.0884,-165.5 747.9507,-165.5"/>
<text text-anchor="middle" x="779.0195" y="-171.5" font-family="Helvetica,sans-Serif" font-size="10.00" fill="#000000">realpass.h</text>
</a>
</g>
</g>
<!-- Node7&#45;&gt;Node23 -->
<g id="edge31" class="edge">
<title>Node7&#45;&gt;Node23</title>
<path fill="none" stroke="#191970" d="M598.6875,-220.4179C637.0182,-210.6577 697.846,-195.1692 738.0964,-184.9203"/>
<polygon fill="#191970" stroke="#191970" points="739.0328,-188.2936 747.86,-182.4342 737.3055,-181.51 739.0328,-188.2936"/>
</g>
<!-- Node24 -->
<g id="node25" class="node">
<title>Node24</title>
<g id="a_node25"><a xlink:href="settingsconstants_8h.html" target="_top" xlink:title=" ">
<polygon fill="none" stroke="#000000" points="546.2168,-110.5 546.2168,-128.5 647.8223,-128.5 647.8223,-110.5 546.2168,-110.5"/>
<text text-anchor="middle" x="597.0195" y="-116.5" font-family="Helvetica,sans-Serif" font-size="10.00" fill="#000000">settingsconstants.h</text>
</a>
</g>
</g>
<!-- Node7&#45;&gt;Node24 -->
<g id="edge33" class="edge">
<title>Node7&#45;&gt;Node24</title>
<path fill="none" stroke="#191970" d="M607.2777,-220.7652C643.2401,-212.6629 689.7838,-199.5352 701.0195,-184 719.0583,-159.0585 683.3704,-141.6893 648.9898,-131.3099"/>
<polygon fill="#191970" stroke="#191970" points="649.9496,-127.9442 639.3731,-128.5673 648.0298,-134.6758 649.9496,-127.9442"/>
</g>
<!-- Node25 -->
<g id="node26" class="node">
<title>Node25</title>
<g id="a_node26"><a xlink:title=" ">
<polygon fill="none" stroke="#bfbfbf" points="283.1797,-165.5 283.1797,-183.5 350.8594,-183.5 350.8594,-165.5 283.1797,-165.5"/>
<text text-anchor="middle" x="317.0195" y="-171.5" font-family="Helvetica,sans-Serif" font-size="10.00" fill="#000000">QByteArray</text>
</a>
</g>
</g>
<!-- Node7&#45;&gt;Node25 -->
<g id="edge35" class="edge">
<title>Node7&#45;&gt;Node25</title>
<path fill="none" stroke="#191970" d="M522.3709,-220.4714C483.2838,-211.7812 422.2593,-198.1919 360.8067,-184.3974"/>
<polygon fill="#191970" stroke="#191970" points="361.4675,-180.9587 350.9436,-182.1825 359.9336,-187.7886 361.4675,-180.9587"/>
</g>
<!-- Node26 -->
<g id="node27" class="node">
<title>Node26</title>
<g id="a_node27"><a xlink:title=" ">
<polygon fill="none" stroke="#bfbfbf" points="368.458,-165.5 368.458,-183.5 415.5811,-183.5 415.5811,-165.5 368.458,-165.5"/>
<text text-anchor="middle" x="392.0195" y="-171.5" font-family="Helvetica,sans-Serif" font-size="10.00" fill="#000000">QHash</text>
</a>
</g>
</g>
<!-- Node7&#45;&gt;Node26 -->
<g id="edge36" class="edge">
<title>Node7&#45;&gt;Node26</title>
<path fill="none" stroke="#191970" d="M534.7824,-220.4179C504.7378,-210.7544 457.234,-195.4754 425.3685,-185.2263"/>
<polygon fill="#191970" stroke="#191970" points="426.2054,-181.8189 415.614,-182.0889 424.062,-188.4827 426.2054,-181.8189"/>
</g>
<!-- Node27 -->
<g id="node28" class="node">
<title>Node27</title>
<g id="a_node28"><a xlink:title=" ">
<polygon fill="none" stroke="#bfbfbf" points="433.7339,-165.5 433.7339,-183.5 480.3052,-183.5 480.3052,-165.5 433.7339,-165.5"/>
<text text-anchor="middle" x="457.0195" y="-171.5" font-family="Helvetica,sans-Serif" font-size="10.00" fill="#000000">QPoint</text>
</a>
</g>
</g>
<!-- Node7&#45;&gt;Node27 -->
<g id="edge37" class="edge">
<title>Node7&#45;&gt;Node27</title>
<path fill="none" stroke="#191970" d="M545.5158,-220.4179C528.6376,-211.6603 502.8708,-198.2907 483.4859,-188.2326"/>
<polygon fill="#191970" stroke="#191970" points="485.0376,-185.0946 474.5493,-183.5956 481.8136,-191.308 485.0376,-185.0946"/>
</g>
<!-- Node28 -->
<g id="node29" class="node">
<title>Node28</title>
<g id="a_node29"><a xlink:title=" ">
<polygon fill="none" stroke="#bfbfbf" points="498.064,-165.5 498.064,-183.5 557.9751,-183.5 557.9751,-165.5 498.064,-165.5"/>
<text text-anchor="middle" x="528.0195" y="-171.5" font-family="Helvetica,sans-Serif" font-size="10.00" fill="#000000">QSettings</text>
</a>
</g>
</g>
<!-- Node7&#45;&gt;Node28 -->
<g id="edge38" class="edge">
<title>Node7&#45;&gt;Node28</title>
<path fill="none" stroke="#191970" d="M557.24,-220.4179C552.4054,-212.8207 545.3621,-201.7527 539.4019,-192.3866"/>
<polygon fill="#191970" stroke="#191970" points="542.2463,-190.337 533.9246,-183.7795 536.3406,-194.0952 542.2463,-190.337"/>
</g>
<!-- Node29 -->
<g id="node30" class="node">
<title>Node29</title>
<g id="a_node30"><a xlink:title=" ">
<polygon fill="none" stroke="#bfbfbf" points="576.4038,-165.5 576.4038,-183.5 619.6353,-183.5 619.6353,-165.5 576.4038,-165.5"/>
<text text-anchor="middle" x="598.0195" y="-171.5" font-family="Helvetica,sans-Serif" font-size="10.00" fill="#000000">QSize</text>
</a>
</g>
</g>
<!-- Node7&#45;&gt;Node29 -->
<g id="edge39" class="edge">
<title>Node7&#45;&gt;Node29</title>
<path fill="none" stroke="#191970" d="M568.7991,-220.4179C573.6336,-212.8207 580.6769,-201.7527 586.6371,-192.3866"/>
<polygon fill="#191970" stroke="#191970" points="589.6984,-194.0952 592.1144,-183.7795 583.7928,-190.337 589.6984,-194.0952"/>
</g>
<!-- Node30 -->
<g id="node31" class="node">
<title>Node30</title>
<g id="a_node31"><a xlink:title=" ">
<polygon fill="none" stroke="#bfbfbf" points="637.6567,-165.5 637.6567,-183.5 692.3823,-183.5 692.3823,-165.5 637.6567,-165.5"/>
<text text-anchor="middle" x="665.0195" y="-171.5" font-family="Helvetica,sans-Serif" font-size="10.00" fill="#000000">QVariant</text>
</a>
</g>
</g>
<!-- Node7&#45;&gt;Node30 -->
<g id="edge40" class="edge">
<title>Node7&#45;&gt;Node30</title>
<path fill="none" stroke="#191970" d="M579.8628,-220.4179C596.0302,-211.7001 620.6733,-198.4122 639.2971,-188.3699"/>
<polygon fill="#191970" stroke="#191970" points="641.0105,-191.4225 648.1513,-183.5956 637.6882,-185.2611 641.0105,-191.4225"/>
</g>
<!-- Node10 -->
<g id="node11" class="node">
<title>Node10</title>
<g id="a_node11"><a xlink:href="pass_8h.html" target="_top" xlink:title=" ">
<polygon fill="none" stroke="#000000" points="756.2881,-110.5 756.2881,-128.5 801.751,-128.5 801.751,-110.5 756.2881,-110.5"/>
<text text-anchor="middle" x="779.0195" y="-116.5" font-family="Helvetica,sans-Serif" font-size="10.00" fill="#000000">pass.h</text>
</a>
</g>
</g>
<!-- Node9&#45;&gt;Node10 -->
<g id="edge11" class="edge">
<title>Node9&#45;&gt;Node10</title>
<path fill="none" stroke="#191970" d="M882.5435,-165.4179C862.4401,-156.5011 831.5573,-142.803 808.7508,-132.6873"/>
<polygon fill="#191970" stroke="#191970" points="810.0863,-129.4508 799.526,-128.5956 807.2481,-135.8496 810.0863,-129.4508"/>
</g>
<!-- Node20 -->
<g id="node21" class="node">
<title>Node20</title>
<g id="a_node21"><a xlink:href="simpletransaction_8h.html" target="_top" xlink:title=" ">
<polygon fill="none" stroke="#000000" points="904.9434,-110.5 904.9434,-128.5 1007.0957,-128.5 1007.0957,-110.5 904.9434,-110.5"/>
<text text-anchor="middle" x="956.0195" y="-116.5" font-family="Helvetica,sans-Serif" font-size="10.00" fill="#000000">simpletransaction.h</text>
</a>
</g>
</g>
<!-- Node9&#45;&gt;Node20 -->
<g id="edge26" class="edge">
<title>Node9&#45;&gt;Node20</title>
<path fill="none" stroke="#191970" d="M911.7714,-165.4179C919.3974,-157.5041 930.6525,-145.8243 939.9026,-136.2251"/>
<polygon fill="#191970" stroke="#191970" points="942.6588,-138.4089 947.0775,-128.7795 937.6183,-133.5516 942.6588,-138.4089"/>
</g>
<!-- Node10&#45;&gt;Node5 -->
<g id="edge22" class="edge">
<title>Node10&#45;&gt;Node5</title>
<path fill="none" stroke="#191970" d="M756.2876,-117.358C685.1365,-110.5256 469.7813,-88.8301 442.0195,-74 421.9348,-63.2709 405.5655,-42.4629 395.6044,-27.3754"/>
<polygon fill="#191970" stroke="#191970" points="398.5385,-25.4665 390.2543,-18.8618 392.6116,-29.191 398.5385,-25.4665"/>
</g>
<!-- Node10&#45;&gt;Node8 -->
<g id="edge12" class="edge">
<title>Node10&#45;&gt;Node8</title>
<path fill="none" stroke="#191970" d="M801.7968,-112.4223C831.37,-103.2329 883.3739,-87.0735 918.7388,-76.0844"/>
<polygon fill="#191970" stroke="#191970" points="920.1767,-79.3028 928.6877,-72.9929 918.0995,-72.618 920.1767,-79.3028"/>
</g>
<!-- Node11 -->
<g id="node12" class="node">
<title>Node11</title>
<g id="a_node12"><a xlink:href="executor_8h.html" target="_top" xlink:title=" ">
<polygon fill="none" stroke="#000000" points="810.9458,-55.5 810.9458,-73.5 873.0933,-73.5 873.0933,-55.5 810.9458,-55.5"/>
<text text-anchor="middle" x="842.0195" y="-61.5" font-family="Helvetica,sans-Serif" font-size="10.00" fill="#000000">executor.h</text>
</a>
</g>
</g>
<!-- Node10&#45;&gt;Node11 -->
<g id="edge13" class="edge">
<title>Node10&#45;&gt;Node11</title>
<path fill="none" stroke="#191970" d="M789.4227,-110.4179C798.7595,-102.2667 812.6728,-90.1201 823.8447,-80.3669"/>
<polygon fill="#191970" stroke="#191970" points="826.159,-82.9927 831.3903,-73.7795 821.5553,-77.7194 826.159,-82.9927"/>
</g>
<!-- Node13 -->
<g id="node14" class="node">
<title>Node13</title>
<g id="a_node14"><a xlink:title=" ">
<polygon fill="none" stroke="#bfbfbf" points="745.0688,-.5 745.0688,-18.5 804.9702,-18.5 804.9702,-.5 745.0688,-.5"/>
<text text-anchor="middle" x="775.0195" y="-6.5" font-family="Helvetica,sans-Serif" font-size="10.00" fill="#000000">QProcess</text>
</a>
</g>
</g>
<!-- Node10&#45;&gt;Node13 -->
<g id="edge20" class="edge">
<title>Node10&#45;&gt;Node13</title>
<path fill="none" stroke="#191970" d="M778.6922,-110.4982C778.0447,-92.6913 776.5876,-52.6225 775.7159,-28.6515"/>
<polygon fill="#191970" stroke="#191970" points="779.2126,-28.4923 775.3514,-18.6261 772.2172,-28.7468 779.2126,-28.4923"/>
</g>
<!-- Node14 -->
<g id="node15" class="node">
<title>Node14</title>
<g id="a_node15"><a xlink:title=" ">
<polygon fill="none" stroke="#bfbfbf" points="893.1182,-.5 893.1182,-18.5 946.9209,-18.5 946.9209,-.5 893.1182,-.5"/>
<text text-anchor="middle" x="920.0195" y="-6.5" font-family="Helvetica,sans-Serif" font-size="10.00" fill="#000000">QQueue</text>
</a>
</g>
</g>
<!-- Node10&#45;&gt;Node14 -->
<g id="edge21" class="edge">
<title>Node10&#45;&gt;Node14</title>
<path fill="none" stroke="#191970" d="M801.7516,-113.8755C824.2603,-107.3681 858.653,-94.7929 882.0195,-74 896.239,-61.3467 906.6257,-42.0614 912.9111,-27.8734"/>
<polygon fill="#191970" stroke="#191970" points="916.1548,-29.1884 916.7592,-18.6109 909.6904,-26.5028 916.1548,-29.1884"/>
</g>
<!-- Node15 -->
<g id="node16" class="node">
<title>Node15</title>
<g id="a_node16"><a xlink:href="userinfo_8h.html" target="_top" xlink:title=" ">
<polygon fill="none" stroke="#000000" points="695.0615,-55.5 695.0615,-73.5 754.9775,-73.5 754.9775,-55.5 695.0615,-55.5"/>
<text text-anchor="middle" x="725.0195" y="-61.5" font-family="Helvetica,sans-Serif" font-size="10.00" fill="#000000">userinfo.h</text>
</a>
</g>
</g>
<!-- Node10&#45;&gt;Node15 -->
<g id="edge17" class="edge">
<title>Node10&#45;&gt;Node15</title>
<path fill="none" stroke="#191970" d="M770.1025,-110.4179C762.255,-102.425 750.6355,-90.5903 741.1584,-80.9377"/>
<polygon fill="#191970" stroke="#191970" points="743.6337,-78.463 734.1303,-73.7795 738.6387,-83.3672 743.6337,-78.463"/>
</g>
<!-- Node17 -->
<g id="node18" class="node">
<title>Node17</title>
<g id="a_node18"><a xlink:title=" ">
<polygon fill="none" stroke="#bfbfbf" points="450.9038,-55.5 450.9038,-73.5 499.1353,-73.5 499.1353,-55.5 450.9038,-55.5"/>
<text text-anchor="middle" x="475.0195" y="-61.5" font-family="Helvetica,sans-Serif" font-size="10.00" fill="#000000">cassert</text>
</a>
</g>
</g>
<!-- Node10&#45;&gt;Node17 -->
<g id="edge23" class="edge">
<title>Node10&#45;&gt;Node17</title>
<path fill="none" stroke="#191970" d="M756.0058,-116.5384C710.613,-110.5057 606.2115,-95.6844 509.3931,-74.1143"/>
<polygon fill="#191970" stroke="#191970" points="509.9728,-70.6571 499.4474,-71.8681 508.4307,-77.4852 509.9728,-70.6571"/>
</g>
<!-- Node18 -->
<g id="node19" class="node">
<title>Node18</title>
<g id="a_node19"><a xlink:title=" ">
<polygon fill="none" stroke="#bfbfbf" points="517.293,-55.5 517.293,-73.5 552.7461,-73.5 552.7461,-55.5 517.293,-55.5"/>
<text text-anchor="middle" x="535.0195" y="-61.5" font-family="Helvetica,sans-Serif" font-size="10.00" fill="#000000">map</text>
</a>
</g>
</g>
<!-- Node10&#45;&gt;Node18 -->
<g id="edge24" class="edge">
<title>Node10&#45;&gt;Node18</title>
<path fill="none" stroke="#191970" d="M755.9736,-115.6972C717.7117,-109.165 638.5611,-94.7265 562.6433,-73.8796"/>
<polygon fill="#191970" stroke="#191970" points="563.4962,-70.4839 552.9236,-71.1697 561.6162,-77.2268 563.4962,-70.4839"/>
</g>
<!-- Node19 -->
<g id="node20" class="node">
<title>Node19</title>
<g id="a_node20"><a xlink:title=" ">
<polygon fill="none" stroke="#bfbfbf" points="570.7192,-55.5 570.7192,-73.5 677.3198,-73.5 677.3198,-55.5 570.7192,-55.5"/>
<text text-anchor="middle" x="624.0195" y="-61.5" font-family="Helvetica,sans-Serif" font-size="10.00" fill="#000000">QRandomGenerator</text>
</a>
</g>
</g>
<!-- Node10&#45;&gt;Node19 -->
<g id="edge25" class="edge">
<title>Node10&#45;&gt;Node19</title>
<path fill="none" stroke="#191970" d="M756.1487,-111.3846C730.5763,-102.3105 688.8582,-87.5073 659.1425,-76.963"/>
<polygon fill="#191970" stroke="#191970" points="660.1605,-73.6105 649.5658,-73.5648 657.8196,-80.2075 660.1605,-73.6105"/>
</g>
<!-- Node12 -->
<g id="node13" class="node">
<title>Node12</title>
<g id="a_node13"><a xlink:title=" ">
<polygon fill="none" stroke="#bfbfbf" points="822.6797,-.5 822.6797,-18.5 875.3594,-18.5 875.3594,-.5 822.6797,-.5"/>
<text text-anchor="middle" x="849.0195" y="-6.5" font-family="Helvetica,sans-Serif" font-size="10.00" fill="#000000">QObject</text>
</a>
</g>
</g>
<!-- Node11&#45;&gt;Node12 -->
<g id="edge14" class="edge">
<title>Node11&#45;&gt;Node12</title>
<path fill="none" stroke="#191970" d="M843.1754,-55.4179C844.092,-48.2164 845.4055,-37.8962 846.5551,-28.8632"/>
<polygon fill="#191970" stroke="#191970" points="850.0479,-29.1414 847.8385,-18.7795 843.1039,-28.2575 850.0479,-29.1414"/>
</g>
<!-- Node11&#45;&gt;Node13 -->
<g id="edge15" class="edge">
<title>Node11&#45;&gt;Node13</title>
<path fill="none" stroke="#191970" d="M830.9558,-55.4179C821.0263,-47.2667 806.2295,-35.1201 794.3484,-25.3669"/>
<polygon fill="#191970" stroke="#191970" points="796.2736,-22.4192 786.3236,-18.7795 791.8322,-27.8297 796.2736,-22.4192"/>
</g>
<!-- Node11&#45;&gt;Node14 -->
<g id="edge16" class="edge">
<title>Node11&#45;&gt;Node14</title>
<path fill="none" stroke="#191970" d="M854.8996,-55.4179C866.7549,-47.0584 884.5698,-34.4966 898.5711,-24.6239"/>
<polygon fill="#191970" stroke="#191970" points="900.9646,-27.2188 907.1203,-18.5956 896.9307,-21.498 900.9646,-27.2188"/>
</g>
<!-- Node15&#45;&gt;Node5 -->
<g id="edge19" class="edge">
<title>Node15&#45;&gt;Node5</title>
<path fill="none" stroke="#191970" d="M694.8445,-56.869C691.8704,-56.2014 688.8913,-55.5656 686.0195,-55 590.5388,-36.193 476.6891,-20.9013 420.2916,-13.7977"/>
<polygon fill="#191970" stroke="#191970" points="420.4802,-10.2942 410.1235,-12.5275 419.6125,-17.2402 420.4802,-10.2942"/>
</g>
<!-- Node16 -->
<g id="node17" class="node">
<title>Node16</title>
<g id="a_node17"><a xlink:title=" ">
<polygon fill="none" stroke="#bfbfbf" points="660.6411,-.5 660.6411,-18.5 727.3979,-18.5 727.3979,-.5 660.6411,-.5"/>
<text text-anchor="middle" x="694.0195" y="-6.5" font-family="Helvetica,sans-Serif" font-size="10.00" fill="#000000">QDateTime</text>
</a>
</g>
</g>
<!-- Node15&#45;&gt;Node16 -->
<g id="edge18" class="edge">
<title>Node15&#45;&gt;Node16</title>
<path fill="none" stroke="#191970" d="M719.9005,-55.4179C715.6631,-47.8998 709.5099,-36.9829 704.2664,-27.6799"/>
<polygon fill="#191970" stroke="#191970" points="707.209,-25.7724 699.2498,-18.7795 701.1109,-29.2096 707.209,-25.7724"/>
</g>
<!-- Node20&#45;&gt;Node8 -->
<g id="edge27" class="edge">
<title>Node20&#45;&gt;Node8</title>
<path fill="none" stroke="#191970" d="M956.0195,-110.4179C956.0195,-103.2164 956.0195,-92.8962 956.0195,-83.8632"/>
<polygon fill="#191970" stroke="#191970" points="959.5196,-83.7794 956.0195,-73.7795 952.5196,-83.7795 959.5196,-83.7794"/>
</g>
<!-- Node21 -->
<g id="node22" class="node">
<title>Node21</title>
<g id="a_node22"><a xlink:title=" ">
<polygon fill="none" stroke="#bfbfbf" points="1001.1157,-55.5 1001.1157,-73.5 1044.9233,-73.5 1044.9233,-55.5 1001.1157,-55.5"/>
<text text-anchor="middle" x="1023.0195" y="-61.5" font-family="Helvetica,sans-Serif" font-size="10.00" fill="#000000">queue</text>
</a>
</g>
</g>
<!-- Node20&#45;&gt;Node21 -->
<g id="edge28" class="edge">
<title>Node20&#45;&gt;Node21</title>
<path fill="none" stroke="#191970" d="M967.0832,-110.4179C977.0128,-102.2667 991.8096,-90.1201 1003.6907,-80.3669"/>
<polygon fill="#191970" stroke="#191970" points="1006.2069,-82.8297 1011.7155,-73.7795 1001.7654,-77.4192 1006.2069,-82.8297"/>
</g>
<!-- Node22&#45;&gt;Node5 -->
<g id="edge30" class="edge">
<title>Node22&#45;&gt;Node5</title>
<path fill="none" stroke="#191970" d="M354.6907,-110.3039C358.3366,-97.782 365.0956,-74.6731 371.0195,-55 373.6706,-46.1959 376.6615,-36.4511 379.1961,-28.2458"/>
<polygon fill="#191970" stroke="#191970" points="382.5823,-29.1426 382.1984,-18.5547 375.8958,-27.0711 382.5823,-29.1426"/>
</g>
<!-- Node23&#45;&gt;Node10 -->
<g id="edge32" class="edge">
<title>Node23&#45;&gt;Node10</title>
<path fill="none" stroke="#191970" d="M779.0195,-165.4179C779.0195,-158.2164 779.0195,-147.8962 779.0195,-138.8632"/>
<polygon fill="#191970" stroke="#191970" points="782.5196,-138.7794 779.0195,-128.7795 775.5196,-138.7795 782.5196,-138.7794"/>
</g>
<!-- Node24&#45;&gt;Node5 -->
<g id="edge34" class="edge">
<title>Node24&#45;&gt;Node5</title>
<path fill="none" stroke="#191970" d="M546.0107,-112.6279C497.5247,-105.1501 429.1098,-91.8355 409.0195,-74 396.061,-62.4958 390.0823,-43.325 387.334,-28.8665"/>
<polygon fill="#191970" stroke="#191970" points="390.7853,-28.2823 385.7999,-18.9337 383.8674,-29.3508 390.7853,-28.2823"/>
</g>
</g>
</svg>
        <g id="navigator" transform="translate(0 0)" fill="#404254">
                <rect fill="#f2f5e9" fill-opacity="0.5" stroke="#606060" stroke-width=".5" x="0" y="0" width="60" height="60"/>
                <use id="zoomplus" xlink:href="#zoomPlus" x="17" y="9" onmousedown="handleZoom(evt,'in')"/>
                <use id="zoomminus" xlink:href="#zoomMin" x="42" y="9" onmousedown="handleZoom(evt,'out')"/>
                <use id="reset" xlink:href="#resetDef" x="30" y="36" onmousedown="handleReset()"/>
                <g id="arrowUp" xlink:href="#dirArrow" transform="translate(30 24)" onmousedown="handlePan(0,-1)">
                  <use xlink:href="#rim" fill="#404040">
                        <set attributeName="fill" to="#808080" begin="arrowUp.mouseover" end="arrowUp.mouseout"/>
                  </use>
                  <path fill="none" stroke="white" stroke-width="1.5" d="M0,-3.0v7 M-2.5,-0.5L0,-3.0L2.5,-0.5"/>
                </g>
                <g id="arrowRight" xlink:href="#dirArrow" transform="rotate(90) translate(36 -43)" onmousedown="handlePan(1,0)">
                  <use xlink:href="#rim" fill="#404040">
                        <set attributeName="fill" to="#808080" begin="arrowRight.mouseover" end="arrowRight.mouseout"/>
                  </use>
                  <path fill="none" stroke="white" stroke-width="1.5" d="M0,-3.0v7 M-2.5,-0.5L0,-3.0L2.5,-0.5"/>
                </g>
                <g id="arrowDown" xlink:href="#dirArrow" transform="rotate(180) translate(-30 -48)" onmousedown="handlePan(0,1)">
                  <use xlink:href="#rim" fill="#404040">
                        <set attributeName="fill" to="#808080" begin="arrowDown.mouseover" end="arrowDown.mouseout"/>
                  </use>
                  <path fill="none" stroke="white" stroke-width="1.5" d="M0,-3.0v7 M-2.5,-0.5L0,-3.0L2.5,-0.5"/>
                </g>
                <g id="arrowLeft" xlink:href="#dirArrow" transform="rotate(270) translate(-36 17)" onmousedown="handlePan(-1,0)">
                  <use xlink:href="#rim" fill="#404040">
                        <set attributeName="fill" to="#808080" begin="arrowLeft.mouseover" end="arrowLeft.mouseout"/>
                  </use>
                  <path fill="none" stroke="white" stroke-width="1.5" d="M0,-3.0v7 M-2.5,-0.5L0,-3.0L2.5,-0.5"/>
                </g>
        </g>
        <svg viewBox="0 0 15 15" width="100%" height="30px" preserveAspectRatio="xMaxYMin meet">
         <g id="arrow_out" transform="scale(0.3 0.3)">
          <a xlink:href="storemodel_8cpp__incl_org.svg" target="_base">
           <rect id="button" ry="5" rx="5" y="6" x="6" height="38" width="38"
                fill="#f2f5e9" fill-opacity="0.5" stroke="#606060" stroke-width="1.0"/>
           <path id="arrow"
             d="M 11.500037,31.436501 C 11.940474,20.09759 22.043105,11.32322 32.158766,21.979434 L 37.068811,17.246167 C 37.068811,17.246167 37.088388,32 37.088388,32 L 22.160133,31.978069 C 22.160133,31.978069 26.997745,27.140456 26.997745,27.140456 C 18.528582,18.264221 13.291696,25.230495 11.500037,31.436501 z"
             style="fill:#404040;"/>
          </a>
         </g>
        </svg>
</svg>
