<?xml version="1.0" encoding="UTF-8" standalone="no"?>
<!DOCTYPE svg PUBLIC "-//W3C//DTD SVG 1.1//EN"
 "http://www.w3.org/Graphics/SVG/1.1/DTD/svg11.dtd">
<!-- Generated by graphviz version 2.38.0 (20140413.2041)
 -->
<!-- Title: src/storemodel.h Pages: 1 -->
<!--zoomable 257 -->
<svg id="main" version="1.1" xmlns="http://www.w3.org/2000/svg" xmlns:xlink="http://www.w3.org/1999/xlink" xml:space="preserve" onload="init(evt)">
<style type="text/css"><![CDATA[
.edge:hover path { stroke: red; }
.edge:hover polygon { stroke: red; fill: red; }
]]></style>
<script type="text/javascript"><![CDATA[
var edges = document.getElementsByTagName('g');
if (edges && edges.length) {
  for (var i=0;i<edges.length;i++) {
    if (edges[i].id.substr(0,4)=='edge') {
      edges[i].setAttribute('class','edge');
    }
  }
}
]]></script>
        <defs>
                <circle id="rim" cx="0" cy="0" r="7"/>
                <circle id="rim2" cx="0" cy="0" r="3.5"/>
                <g id="zoomPlus">
                        <use xlink:href="#rim" fill="#404040">
                                <set attributeName="fill" to="#808080" begin="zoomplus.mouseover" end="zoomplus.mouseout"/>
                        </use>
                        <path d="M-4,0h8M0,-4v8" fill="none" stroke="white" stroke-width="1.5" pointer-events="none"/>
                </g>
                <g id="zoomMin">
                        <use xlink:href="#rim" fill="#404040">
                                <set attributeName="fill" to="#808080" begin="zoomminus.mouseover" end="zoomminus.mouseout"/>
                        </use>
                        <path d="M-4,0h8" fill="none" stroke="white" stroke-width="1.5" pointer-events="none"/>
                </g>
                <g id="dirArrow">
                        <path fill="none" stroke="white" stroke-width="1.5" d="M0,-3.0v7 M-2.5,-0.5L0,-3.0L2.5,-0.5"/>
                </g>
               <g id="resetDef">
                       <use xlink:href="#rim2" fill="#404040">
                               <set attributeName="fill" to="#808080" begin="reset.mouseover" end="reset.mouseout"/>
                       </use>
               </g>
        </defs>

<script type="text/javascript">
var viewWidth = 1118;
var viewHeight = 257;
var sectionId = 'dynsection-1';
</script>
<script xlink:href="svgpan.js"/>
<svg id="graph" class="graph">
<g id="viewport">
<title>src/storemodel.h</title>
<!-- Node31 -->
<g id="node1" class="node"><title>Node31</title>
<polygon fill="#bfbfbf" stroke="black" points="808.958,-230.5 808.958,-248.5 898.874,-248.5 898.874,-230.5 808.958,-230.5"/>
<text text-anchor="middle" x="853.916" y="-236.5" font-family="Helvetica,sans-Serif" font-size="10.00">src/storemodel.h</text>
</g>
<!-- Node32 -->
<g id="node2" class="node"><title>Node32</title>
<g id="a_node2"><a xlink:href="moc__storemodel_8cpp.html" target="_top" xlink:title="moc_storemodel.cpp">
<polygon fill="none" stroke="black" points="377.505,-175.5 377.505,-193.5 486.327,-193.5 486.327,-175.5 377.505,-175.5"/>
<text text-anchor="middle" x="431.916" y="-181.5" font-family="Helvetica,sans-Serif" font-size="10.00">moc_storemodel.cpp</text>
</a>
</g>
</g>
<!-- Node31&#45;&gt;Node32 -->
<g id="edge1" class="edge"><title>Node31&#45;&gt;Node32</title>
<path fill="none" stroke="midnightblue" d="M798.721,-231.785C728.39,-223.194 603.083,-207.777 495.916,-194 492.803,-193.6 489.606,-193.186 486.379,-192.765"/>
<polygon fill="midnightblue" stroke="midnightblue" points="798.339,-235.264 808.69,-233.001 799.188,-228.315 798.339,-235.264"/>
</g>
<!-- Node33 -->
<g id="node3" class="node"><title>Node33</title>
<g id="a_node3"><a xlink:href="mainwindow_8h.html" target="_top" xlink:title="src/mainwindow.h">
<polygon fill="none" stroke="black" points="504.453,-175.5 504.453,-193.5 599.379,-193.5 599.379,-175.5 504.453,-175.5"/>
<text text-anchor="middle" x="551.916" y="-181.5" font-family="Helvetica,sans-Serif" font-size="10.00">src/mainwindow.h</text>
</a>
</g>
</g>
<!-- Node31&#45;&gt;Node33 -->
<g id="edge2" class="edge"><title>Node31&#45;&gt;Node33</title>
<path fill="none" stroke="midnightblue" d="M798.686,-228.807C741.09,-218.699 651.841,-203.037 597.933,-193.576"/>
<polygon fill="midnightblue" stroke="midnightblue" points="798.249,-232.284 808.704,-230.565 799.459,-225.389 798.249,-232.284"/>
</g>
<!-- Node46 -->
<g id="node16" class="node"><title>Node46</title>
<g id="a_node16"><a xlink:href="util_8h.html" target="_top" xlink:title="src/util.h">
<polygon fill="none" stroke="black" points="827.3,-175.5 827.3,-193.5 880.532,-193.5 880.532,-175.5 827.3,-175.5"/>
<text text-anchor="middle" x="853.916" y="-181.5" font-family="Helvetica,sans-Serif" font-size="10.00">src/util.h</text>
</a>
</g>
</g>
<!-- Node31&#45;&gt;Node46 -->
<g id="edge20" class="edge"><title>Node31&#45;&gt;Node46</title>
<path fill="none" stroke="midnightblue" d="M847.46,-220.175C846.787,-211.094 847.269,-200.595 848.907,-193.55"/>
<polygon fill="midnightblue" stroke="midnightblue" points="844.012,-220.795 848.854,-230.219 850.946,-219.833 844.012,-220.795"/>
</g>
<!-- Node50 -->
<g id="node20" class="node"><title>Node50</title>
<g id="a_node20"><a xlink:href="storemodel_8cpp.html" target="_top" xlink:title="src/storemodel.cpp">
<polygon fill="none" stroke="black" points="898.677,-175.5 898.677,-193.5 999.155,-193.5 999.155,-175.5 898.677,-175.5"/>
<text text-anchor="middle" x="948.916" y="-181.5" font-family="Helvetica,sans-Serif" font-size="10.00">src/storemodel.cpp</text>
</a>
</g>
</g>
<!-- Node31&#45;&gt;Node50 -->
<g id="edge26" class="edge"><title>Node31&#45;&gt;Node50</title>
<path fill="none" stroke="midnightblue" d="M877.527,-225.328C895.347,-215.386 919.233,-202.06 934.352,-193.625"/>
<polygon fill="midnightblue" stroke="midnightblue" points="875.372,-222.522 868.344,-230.45 878.783,-228.635 875.372,-222.522"/>
</g>
<!-- Node34 -->
<g id="node4" class="node"><title>Node34</title>
<g id="a_node4"><a xlink:href="moc__mainwindow_8cpp.html" target="_top" xlink:title="moc_mainwindow.cpp">
<polygon fill="none" stroke="black" points="0,-115.5 0,-133.5 113.832,-133.5 113.832,-115.5 0,-115.5"/>
<text text-anchor="middle" x="56.916" y="-121.5" font-family="Helvetica,sans-Serif" font-size="10.00">moc_mainwindow.cpp</text>
</a>
</g>
</g>
<!-- Node33&#45;&gt;Node34 -->
<g id="edge3" class="edge"><title>Node33&#45;&gt;Node34</title>
<path fill="none" stroke="midnightblue" d="M494.418,-175.008C330.567,-155.185 286.972,-161.875 127.916,-139 117.484,-137.5 106.253,-135.53 95.8717,-133.562"/>
<polygon fill="midnightblue" stroke="midnightblue" points="494.003,-178.484 504.355,-176.225 494.854,-171.535 494.003,-178.484"/>
</g>
<!-- Node35 -->
<g id="node5" class="node"><title>Node35</title>
<g id="a_node5"><a xlink:href="configdialog_8h.html" target="_top" xlink:title="src/configdialog.h">
<polygon fill="none" stroke="black" points="341.005,-115.5 341.005,-133.5 434.827,-133.5 434.827,-115.5 341.005,-115.5"/>
<text text-anchor="middle" x="387.916" y="-121.5" font-family="Helvetica,sans-Serif" font-size="10.00">src/configdialog.h</text>
</a>
</g>
</g>
<!-- Node33&#45;&gt;Node35 -->
<g id="edge4" class="edge"><title>Node33&#45;&gt;Node35</title>
<path fill="none" stroke="midnightblue" d="M519.302,-171.966C487.204,-160.614 439.016,-143.572 410.79,-133.589"/>
<polygon fill="midnightblue" stroke="midnightblue" points="518.518,-175.401 529.113,-175.435 520.852,-168.801 518.518,-175.401"/>
</g>
<!-- Node37 -->
<g id="node7" class="node"><title>Node37</title>
<g id="a_node7"><a xlink:href="configdialog_8cpp.html" target="_top" xlink:title="src/configdialog.cpp">
<polygon fill="none" stroke="black" points="113.724,-0.5 113.724,-18.5 218.108,-18.5 218.108,-0.5 113.724,-0.5"/>
<text text-anchor="middle" x="165.916" y="-6.5" font-family="Helvetica,sans-Serif" font-size="10.00">src/configdialog.cpp</text>
</a>
</g>
</g>
<!-- Node33&#45;&gt;Node37 -->
<g id="edge13" class="edge"><title>Node33&#45;&gt;Node37</title>
<path fill="none" stroke="midnightblue" d="M494.063,-174.464C449.328,-166.838 386.095,-154.662 331.916,-139 253.809,-116.42 207.077,-140.931 160.916,-74 149.364,-57.25 157.001,-31.7739 162.211,-18.7686"/>
<polygon fill="midnightblue" stroke="midnightblue" points="493.725,-177.956 504.167,-176.162 494.886,-171.053 493.725,-177.956"/>
</g>
<!-- Node41 -->
<g id="node11" class="node"><title>Node41</title>
<g id="a_node11"><a xlink:href="mainwindow_8cpp.html" target="_top" xlink:title="src/mainwindow.cpp">
<polygon fill="none" stroke="black" points="500.172,-0.5 500.172,-18.5 605.66,-18.5 605.66,-0.5 500.172,-0.5"/>
<text text-anchor="middle" x="552.916" y="-6.5" font-family="Helvetica,sans-Serif" font-size="10.00">src/mainwindow.cpp</text>
</a>
</g>
</g>
<!-- Node33&#45;&gt;Node41 -->
<g id="edge19" class="edge"><title>Node33&#45;&gt;Node41</title>
<path fill="none" stroke="midnightblue" d="M538.154,-167.382C532.229,-159.396 525.969,-149.276 522.916,-139 512.284,-103.213 512.005,-90.7034 522.916,-55 527.273,-40.7431 537.902,-26.9245 545.262,-18.5655"/>
<polygon fill="midnightblue" stroke="midnightblue" points="535.552,-169.733 544.513,-175.387 541.034,-165.379 535.552,-169.733"/>
</g>
<!-- Node42 -->
<g id="node12" class="node"><title>Node42</title>
<g id="a_node12"><a xlink:href="deselectabletreeview_8h.html" target="_top" xlink:title="src/deselectabletreeview.h">
<polygon fill="none" stroke="black" points="532.271,-115.5 532.271,-133.5 665.561,-133.5 665.561,-115.5 532.271,-115.5"/>
<text text-anchor="middle" x="598.916" y="-121.5" font-family="Helvetica,sans-Serif" font-size="10.00">src/deselectabletreeview.h</text>
</a>
</g>
</g>
<!-- Node33&#45;&gt;Node42 -->
<g id="edge14" class="edge"><title>Node33&#45;&gt;Node42</title>
<path fill="none" stroke="midnightblue" d="M564.864,-167.521C573.692,-156.628 585.026,-142.641 592.132,-133.872"/>
<polygon fill="midnightblue" stroke="midnightblue" points="562.028,-165.462 558.451,-175.435 567.466,-169.87 562.028,-165.462"/>
</g>
<!-- Node45 -->
<g id="node15" class="node"><title>Node45</title>
<g id="a_node15"><a xlink:href="main_8cpp.html" target="_top" xlink:title="src/main.cpp">
<polygon fill="none" stroke="black" points="683.574,-115.5 683.574,-133.5 756.258,-133.5 756.258,-115.5 683.574,-115.5"/>
<text text-anchor="middle" x="719.916" y="-121.5" font-family="Helvetica,sans-Serif" font-size="10.00">src/main.cpp</text>
</a>
</g>
</g>
<!-- Node33&#45;&gt;Node45 -->
<g id="edge18" class="edge"><title>Node33&#45;&gt;Node45</title>
<path fill="none" stroke="midnightblue" d="M584.899,-172.113C617.779,-160.762 667.444,-143.615 696.485,-133.589"/>
<polygon fill="midnightblue" stroke="midnightblue" points="583.586,-168.864 575.276,-175.435 585.87,-175.48 583.586,-168.864"/>
</g>
<!-- Node36 -->
<g id="node6" class="node"><title>Node36</title>
<g id="a_node6"><a xlink:href="moc__configdialog_8cpp.html" target="_top" xlink:title="moc_configdialog.cpp">
<polygon fill="none" stroke="black" points="169.552,-55.5 169.552,-73.5 282.28,-73.5 282.28,-55.5 169.552,-55.5"/>
<text text-anchor="middle" x="225.916" y="-61.5" font-family="Helvetica,sans-Serif" font-size="10.00">moc_configdialog.cpp</text>
</a>
</g>
</g>
<!-- Node35&#45;&gt;Node36 -->
<g id="edge5" class="edge"><title>Node35&#45;&gt;Node36</title>
<path fill="none" stroke="midnightblue" d="M355.7,-111.966C323.993,-100.614 276.393,-83.572 248.511,-73.5894"/>
<polygon fill="midnightblue" stroke="midnightblue" points="354.796,-115.36 365.391,-115.435 357.156,-108.769 354.796,-115.36"/>
</g>
<!-- Node35&#45;&gt;Node37 -->
<g id="edge6" class="edge"><title>Node35&#45;&gt;Node37</title>
<path fill="none" stroke="midnightblue" d="M370.381,-108.878C351.646,-93.8085 320.618,-70.4044 290.916,-55 259.731,-38.8268 221.342,-26.1311 195.399,-18.509"/>
<polygon fill="midnightblue" stroke="midnightblue" points="368.343,-111.732 378.303,-115.345 372.77,-106.31 368.343,-111.732"/>
</g>
<!-- Node38 -->
<g id="node8" class="node"><title>Node38</title>
<g id="a_node8"><a xlink:href="keygendialog_8h.html" target="_top" xlink:title="src/keygendialog.h">
<polygon fill="none" stroke="black" points="338.224,-55.5 338.224,-73.5 437.608,-73.5 437.608,-55.5 338.224,-55.5"/>
<text text-anchor="middle" x="387.916" y="-61.5" font-family="Helvetica,sans-Serif" font-size="10.00">src/keygendialog.h</text>
</a>
</g>
</g>
<!-- Node35&#45;&gt;Node38 -->
<g id="edge7" class="edge"><title>Node35&#45;&gt;Node38</title>
<path fill="none" stroke="midnightblue" d="M387.916,-105.214C387.916,-94.7141 387.916,-82.0332 387.916,-73.8718"/>
<polygon fill="midnightblue" stroke="midnightblue" points="384.416,-105.435 387.916,-115.435 391.416,-105.435 384.416,-105.435"/>
</g>
<!-- Node35&#45;&gt;Node41 -->
<g id="edge12" class="edge"><title>Node35&#45;&gt;Node41</title>
<path fill="none" stroke="midnightblue" d="M408.232,-109.587C443.112,-85.699 513.319,-37.6176 541.157,-18.553"/>
<polygon fill="midnightblue" stroke="midnightblue" points="406.055,-106.835 399.782,-115.373 410.011,-112.611 406.055,-106.835"/>
</g>
<!-- Node38&#45;&gt;Node37 -->
<g id="edge9" class="edge"><title>Node38&#45;&gt;Node37</title>
<path fill="none" stroke="midnightblue" d="M344.424,-53.1169C301.982,-42.9842 238.307,-27.7826 199.586,-18.5383"/>
<polygon fill="midnightblue" stroke="midnightblue" points="343.66,-56.5326 354.199,-55.4504 345.285,-49.7239 343.66,-56.5326"/>
</g>
<!-- Node39 -->
<g id="node9" class="node"><title>Node39</title>
<g id="a_node9"><a xlink:href="moc__keygendialog_8cpp.html" target="_top" xlink:title="moc_keygendialog.cpp">
<polygon fill="none" stroke="black" points="235.771,-0.5 235.771,-18.5 354.061,-18.5 354.061,-0.5 235.771,-0.5"/>
<text text-anchor="middle" x="294.916" y="-6.5" font-family="Helvetica,sans-Serif" font-size="10.00">moc_keygendialog.cpp</text>
</a>
</g>
</g>
<!-- Node38&#45;&gt;Node39 -->
<g id="edge8" class="edge"><title>Node38&#45;&gt;Node39</title>
<path fill="none" stroke="midnightblue" d="M364.802,-50.3277C347.357,-40.3856 323.974,-27.0598 309.174,-18.6253"/>
<polygon fill="midnightblue" stroke="midnightblue" points="363.37,-53.5399 373.791,-55.4504 366.836,-47.4582 363.37,-53.5399"/>
</g>
<!-- Node40 -->
<g id="node10" class="node"><title>Node40</title>
<g id="a_node10"><a xlink:href="keygendialog_8cpp.html" target="_top" xlink:title="src/keygendialog.cpp">
<polygon fill="none" stroke="black" points="371.943,-0.5 371.943,-18.5 481.889,-18.5 481.889,-0.5 371.943,-0.5"/>
<text text-anchor="middle" x="426.916" y="-6.5" font-family="Helvetica,sans-Serif" font-size="10.00">src/keygendialog.cpp</text>
</a>
</g>
</g>
<!-- Node38&#45;&gt;Node40 -->
<g id="edge10" class="edge"><title>Node38&#45;&gt;Node40</title>
<path fill="none" stroke="midnightblue" d="M400.094,-46.9507C407.052,-37.4941 415.467,-26.0595 420.993,-18.5496"/>
<polygon fill="midnightblue" stroke="midnightblue" points="397.118,-45.09 394.01,-55.2188 402.756,-49.2388 397.118,-45.09"/>
</g>
<!-- Node38&#45;&gt;Node41 -->
<g id="edge11" class="edge"><title>Node38&#45;&gt;Node41</title>
<path fill="none" stroke="midnightblue" d="M422.666,-52.3377C454.17,-42.2183 499.84,-27.5485 527.891,-18.5383"/>
<polygon fill="midnightblue" stroke="midnightblue" points="421.426,-49.0598 412.976,-55.4504 423.567,-55.7245 421.426,-49.0598"/>
</g>
<!-- Node43 -->
<g id="node13" class="node"><title>Node43</title>
<g id="a_node13"><a xlink:href="moc__deselectabletreeview_8cpp.html" target="_top" xlink:title="moc_deselectabletreeview.cpp">
<polygon fill="none" stroke="black" points="641.818,-55.5 641.818,-73.5 794.014,-73.5 794.014,-55.5 641.818,-55.5"/>
<text text-anchor="middle" x="717.916" y="-61.5" font-family="Helvetica,sans-Serif" font-size="10.00">moc_deselectabletreeview.cpp</text>
</a>
</g>
</g>
<!-- Node42&#45;&gt;Node43 -->
<g id="edge15" class="edge"><title>Node42&#45;&gt;Node43</title>
<path fill="none" stroke="midnightblue" d="M624.702,-110.932C647.876,-99.6372 681.234,-83.3784 701.126,-73.6831"/>
<polygon fill="midnightblue" stroke="midnightblue" points="622.918,-107.908 615.462,-115.435 625.985,-114.2 622.918,-107.908"/>
</g>
<!-- Node44 -->
<g id="node14" class="node"><title>Node44</title>
<g id="a_node14"><a xlink:href="ui__mainwindow_8h.html" target="_top" xlink:title="ui_mainwindow.h">
<polygon fill="none" stroke="black" points="531.835,-55.5 531.835,-73.5 623.997,-73.5 623.997,-55.5 531.835,-55.5"/>
<text text-anchor="middle" x="577.916" y="-61.5" font-family="Helvetica,sans-Serif" font-size="10.00">ui_mainwindow.h</text>
</a>
</g>
</g>
<!-- Node42&#45;&gt;Node44 -->
<g id="edge16" class="edge"><title>Node42&#45;&gt;Node44</title>
<path fill="none" stroke="midnightblue" d="M592.537,-105.882C588.69,-95.2558 583.965,-82.2069 580.947,-73.8718"/>
<polygon fill="midnightblue" stroke="midnightblue" points="589.301,-107.224 595.996,-115.435 595.883,-104.841 589.301,-107.224"/>
</g>
<!-- Node44&#45;&gt;Node41 -->
<g id="edge17" class="edge"><title>Node44&#45;&gt;Node41</title>
<path fill="none" stroke="midnightblue" d="M569.693,-46.0678C565.317,-36.7905 560.146,-25.8272 556.713,-18.5496"/>
<polygon fill="midnightblue" stroke="midnightblue" points="566.578,-47.6676 574.01,-55.2188 572.909,-44.6812 566.578,-47.6676"/>
</g>
<!-- Node46&#45;&gt;Node31 -->
<g id="edge21" class="edge"><title>Node46&#45;&gt;Node31</title>
<path fill="none" stroke="midnightblue" d="M860.35,-203.529C861.048,-212.577 860.591,-223.099 858.979,-230.219"/>
<polygon fill="midnightblue" stroke="midnightblue" points="863.803,-202.955 858.925,-193.55 856.873,-203.944 863.803,-202.955"/>
</g>
<!-- Node46&#45;&gt;Node41 -->
<g id="edge22" class="edge"><title>Node46&#45;&gt;Node41</title>
<path fill="none" stroke="midnightblue" d="M847.829,-165.4C836.36,-131.758 811.895,-62.3292 802.916,-55 773.417,-30.9216 669.89,-19.0761 605.676,-13.9182"/>
<polygon fill="midnightblue" stroke="midnightblue" points="844.658,-166.946 851.18,-175.295 851.288,-164.701 844.658,-166.946"/>
</g>
<!-- Node47 -->
<g id="node17" class="node"><title>Node47</title>
<g id="a_node17"><a xlink:href="pass_8cpp.html" target="_top" xlink:title="src/pass.cpp">
<polygon fill="none" stroke="black" points="849.85,-115.5 849.85,-133.5 921.982,-133.5 921.982,-115.5 849.85,-115.5"/>
<text text-anchor="middle" x="885.916" y="-121.5" font-family="Helvetica,sans-Serif" font-size="10.00">src/pass.cpp</text>
</a>
</g>
</g>
<!-- Node46&#45;&gt;Node47 -->
<g id="edge23" class="edge"><title>Node46&#45;&gt;Node47</title>
<path fill="none" stroke="midnightblue" d="M863.272,-166.542C869.198,-155.802 876.603,-142.381 881.297,-133.872"/>
<polygon fill="midnightblue" stroke="midnightblue" points="860.132,-164.989 858.365,-175.435 866.261,-168.37 860.132,-164.989"/>
</g>
<!-- Node48 -->
<g id="node18" class="node"><title>Node48</title>
<g id="a_node18"><a xlink:href="util_8cpp.html" target="_top" xlink:title="src/util.cpp">
<polygon fill="none" stroke="black" points="940.02,-115.5 940.02,-133.5 1003.81,-133.5 1003.81,-115.5 940.02,-115.5"/>
<text text-anchor="middle" x="971.916" y="-121.5" font-family="Helvetica,sans-Serif" font-size="10.00">src/util.cpp</text>
</a>
</g>
</g>
<!-- Node46&#45;&gt;Node48 -->
<g id="edge24" class="edge"><title>Node46&#45;&gt;Node48</title>
<path fill="none" stroke="midnightblue" d="M879.485,-170.932C902.464,-159.637 935.543,-143.378 955.268,-133.683"/>
<polygon fill="midnightblue" stroke="midnightblue" points="877.754,-167.883 870.323,-175.435 880.842,-174.165 877.754,-167.883"/>
</g>
<!-- Node49 -->
<g id="node19" class="node"><title>Node49</title>
<g id="a_node19"><a xlink:href="tst__util_8cpp.html" target="_top" xlink:title="tests/auto/util/tst\l_util.cpp">
<polygon fill="none" stroke="black" points="1021.79,-110.5 1021.79,-138.5 1110.04,-138.5 1110.04,-110.5 1021.79,-110.5"/>
<text text-anchor="start" x="1029.79" y="-126.5" font-family="Helvetica,sans-Serif" font-size="10.00">tests/auto/util/tst</text>
<text text-anchor="middle" x="1065.92" y="-116.5" font-family="Helvetica,sans-Serif" font-size="10.00">_util.cpp</text>
</a>
</g>
</g>
<!-- Node46&#45;&gt;Node49 -->
<g id="edge25" class="edge"><title>Node46&#45;&gt;Node49</title>
<path fill="none" stroke="midnightblue" d="M890.478,-173.497C926.848,-163.547 982.694,-148.268 1021.57,-137.631"/>
<polygon fill="midnightblue" stroke="midnightblue" points="889.488,-170.139 880.766,-176.154 891.335,-176.891 889.488,-170.139"/>
</g>
</g>
</svg>
        <g id="navigator" transform="translate(0 0)" fill="#404254">
                <rect fill="#f2f5e9" fill-opacity="0.5" stroke="#606060" stroke-width=".5" x="0" y="0" width="60" height="60"/>
                <use id="zoomplus" xlink:href="#zoomPlus" x="17" y="9" onmousedown="handleZoom(evt,'in')"/>
                <use id="zoomminus" xlink:href="#zoomMin" x="42" y="9" onmousedown="handleZoom(evt,'out')"/>
                <use id="reset" xlink:href="#resetDef" x="30" y="36" onmousedown="handleReset()"/>
                <g id="arrowUp" xlink:href="#dirArrow" transform="translate(30 24)" onmousedown="handlePan(0,-1)">
                  <use xlink:href="#rim" fill="#404040">
                        <set attributeName="fill" to="#808080" begin="arrowUp.mouseover" end="arrowUp.mouseout"/>
                  </use>
                  <path fill="none" stroke="white" stroke-width="1.5" d="M0,-3.0v7 M-2.5,-0.5L0,-3.0L2.5,-0.5"/>
                </g>
                <g id="arrowRight" xlink:href="#dirArrow" transform="rotate(90) translate(36 -43)" onmousedown="handlePan(1,0)">
                  <use xlink:href="#rim" fill="#404040">
                        <set attributeName="fill" to="#808080" begin="arrowRight.mouseover" end="arrowRight.mouseout"/>
                  </use>
                  <path fill="none" stroke="white" stroke-width="1.5" d="M0,-3.0v7 M-2.5,-0.5L0,-3.0L2.5,-0.5"/>
                </g>
                <g id="arrowDown" xlink:href="#dirArrow" transform="rotate(180) translate(-30 -48)" onmousedown="handlePan(0,1)">
                  <use xlink:href="#rim" fill="#404040">
                        <set attributeName="fill" to="#808080" begin="arrowDown.mouseover" end="arrowDown.mouseout"/>
                  </use>
                  <path fill="none" stroke="white" stroke-width="1.5" d="M0,-3.0v7 M-2.5,-0.5L0,-3.0L2.5,-0.5"/>
                </g>
                <g id="arrowLeft" xlink:href="#dirArrow" transform="rotate(270) translate(-36 17)" onmousedown="handlePan(-1,0)">
                  <use xlink:href="#rim" fill="#404040">
                        <set attributeName="fill" to="#808080" begin="arrowLeft.mouseover" end="arrowLeft.mouseout"/>
                  </use>
                  <path fill="none" stroke="white" stroke-width="1.5" d="M0,-3.0v7 M-2.5,-0.5L0,-3.0L2.5,-0.5"/>
                </g>
        </g>
        <svg viewBox="0 0 15 15" width="100%" height="30px" preserveAspectRatio="xMaxYMin meet">
         <g id="arrow_out" transform="scale(0.3 0.3)">
          <a xlink:href="storemodel_8h__dep__incl_org.svg" target="_base">
           <rect id="button" ry="5" rx="5" y="6" x="6" height="38" width="38"
                fill="#f2f5e9" fill-opacity="0.5" stroke="#606060" stroke-width="1.0"/>
           <path id="arrow"
             d="M 11.500037,31.436501 C 11.940474,20.09759 22.043105,11.32322 32.158766,21.979434 L 37.068811,17.246167 C 37.068811,17.246167 37.088388,32 37.088388,32 L 22.160133,31.978069 C 22.160133,31.978069 26.997745,27.140456 26.997745,27.140456 C 18.528582,18.264221 13.291696,25.230495 11.500037,31.436501 z"
             style="fill:#404040;"/>
          </a>
         </g>
        </svg>
</svg>
