<?xml version="1.0" encoding="UTF-8" standalone="no"?>
<!DOCTYPE svg PUBLIC "-//W3C//DTD SVG 1.1//EN"
 "http://www.w3.org/Graphics/SVG/1.1/DTD/svg11.dtd">
<!-- Generated by graphviz version 2.38.0 (20140413.2041)
 -->
<!-- Title: storemodel.h Pages: 1 -->
<svg width="872pt" height="247pt"
 viewBox="0.00 0.00 872.43 247.00" xmlns="http://www.w3.org/2000/svg" xmlns:xlink="http://www.w3.org/1999/xlink">
<g id="graph0" class="graph" transform="scale(1 1) rotate(0) translate(4 243)">
<title>storemodel.h</title>
<!-- Node4 -->
<g id="node1" class="node"><title>Node4</title>
<polygon fill="#bfbfbf" stroke="black" points="427.234,-220.5 427.234,-238.5 501.042,-238.5 501.042,-220.5 427.234,-220.5"/>
<text text-anchor="middle" x="464.138" y="-226.5" font-family="Helvetica,sans-Serif" font-size="10.00">storemodel.h</text>
</g>
<!-- Node5 -->
<g id="node2" class="node"><title>Node5</title>
<g id="a_node2"><a xlink:href="mainwindow_8h.html" target="_top" xlink:title="mainwindow.h">
<polygon fill="none" stroke="black" points="374.729,-165.5 374.729,-183.5 453.546,-183.5 453.546,-165.5 374.729,-165.5"/>
<text text-anchor="middle" x="414.138" y="-171.5" font-family="Helvetica,sans-Serif" font-size="10.00">mainwindow.h</text>
</a>
</g>
</g>
<!-- Node4&#45;&gt;Node5 -->
<g id="edge1" class="edge"><title>Node4&#45;&gt;Node5</title>
<path fill="none" stroke="midnightblue" d="M449.347,-212.822C440.275,-203.205 429.036,-191.292 421.732,-183.55"/>
<polygon fill="midnightblue" stroke="midnightblue" points="446.917,-215.347 456.325,-220.219 452.009,-210.543 446.917,-215.347"/>
</g>
<!-- Node20 -->
<g id="node17" class="node"><title>Node20</title>
<g id="a_node17"><a xlink:href="storemodel_8cpp.html" target="_top" xlink:title="storemodel.cpp">
<polygon fill="none" stroke="black" points="471.953,-165.5 471.953,-183.5 556.322,-183.5 556.322,-165.5 471.953,-165.5"/>
<text text-anchor="middle" x="514.138" y="-171.5" font-family="Helvetica,sans-Serif" font-size="10.00">storemodel.cpp</text>
</a>
</g>
</g>
<!-- Node4&#45;&gt;Node20 -->
<g id="edge24" class="edge"><title>Node4&#45;&gt;Node20</title>
<path fill="none" stroke="midnightblue" d="M478.928,-212.822C488.001,-203.205 499.24,-191.292 506.544,-183.55"/>
<polygon fill="midnightblue" stroke="midnightblue" points="476.267,-210.543 471.95,-220.219 481.358,-215.347 476.267,-210.543"/>
</g>
<!-- Node6 -->
<g id="node3" class="node"><title>Node6</title>
<g id="a_node3"><a xlink:href="configdialog_8h.html" target="_top" xlink:title="configdialog.h">
<polygon fill="none" stroke="black" points="156.281,-110.5 156.281,-128.5 233.995,-128.5 233.995,-110.5 156.281,-110.5"/>
<text text-anchor="middle" x="195.138" y="-116.5" font-family="Helvetica,sans-Serif" font-size="10.00">configdialog.h</text>
</a>
</g>
</g>
<!-- Node5&#45;&gt;Node6 -->
<g id="edge2" class="edge"><title>Node5&#45;&gt;Node6</title>
<path fill="none" stroke="midnightblue" d="M370.969,-163.053C329.1,-152.92 266.47,-137.763 228.353,-128.538"/>
<polygon fill="midnightblue" stroke="midnightblue" points="370.334,-166.5 380.876,-165.45 371.98,-159.696 370.334,-166.5"/>
</g>
<!-- Node7 -->
<g id="node4" class="node"><title>Node7</title>
<g id="a_node4"><a xlink:href="configdialog_8cpp.html" target="_top" xlink:title="configdialog.cpp">
<polygon fill="none" stroke="black" points="0,-0.5 0,-18.5 88.2754,-18.5 88.2754,-0.5 0,-0.5"/>
<text text-anchor="middle" x="44.1377" y="-6.5" font-family="Helvetica,sans-Serif" font-size="10.00">configdialog.cpp</text>
</a>
</g>
</g>
<!-- Node5&#45;&gt;Node7 -->
<g id="edge9" class="edge"><title>Node5&#45;&gt;Node7</title>
<path fill="none" stroke="midnightblue" d="M364.446,-172.916C309.057,-170.553 217.968,-161.479 147.138,-129 112.429,-113.084 105.789,-103.159 81.1377,-74 66.1455,-56.2663 53.7693,-31.6527 47.8671,-18.9048"/>
<polygon fill="midnightblue" stroke="midnightblue" points="364.573,-176.423 374.696,-173.293 364.831,-169.427 364.573,-176.423"/>
</g>
<!-- Node10 -->
<g id="node7" class="node"><title>Node10</title>
<g id="a_node7"><a xlink:href="mainwindow_8cpp.html" target="_top" xlink:title="mainwindow.cpp">
<polygon fill="none" stroke="black" points="400.448,-0.5 400.448,-18.5 489.827,-18.5 489.827,-0.5 400.448,-0.5"/>
<text text-anchor="middle" x="445.138" y="-6.5" font-family="Helvetica,sans-Serif" font-size="10.00">mainwindow.cpp</text>
</a>
</g>
</g>
<!-- Node5&#45;&gt;Node10 -->
<g id="edge17" class="edge"><title>Node5&#45;&gt;Node10</title>
<path fill="none" stroke="midnightblue" d="M404.417,-156.374C398.392,-143.659 392.446,-125.851 396.138,-110 404.654,-73.4305 428.627,-34.8409 439.568,-18.5269"/>
<polygon fill="midnightblue" stroke="midnightblue" points="401.363,-158.089 409.083,-165.345 407.573,-154.858 401.363,-158.089"/>
</g>
<!-- Node11 -->
<g id="node8" class="node"><title>Node11</title>
<g id="a_node8"><a xlink:href="qtpasssettings_8h.html" target="_top" xlink:title="qtpasssettings.h">
<polygon fill="none" stroke="black" points="223.005,-55.5 223.005,-73.5 311.271,-73.5 311.271,-55.5 223.005,-55.5"/>
<text text-anchor="middle" x="267.138" y="-61.5" font-family="Helvetica,sans-Serif" font-size="10.00">qtpasssettings.h</text>
</a>
</g>
</g>
<!-- Node5&#45;&gt;Node11 -->
<g id="edge10" class="edge"><title>Node5&#45;&gt;Node11</title>
<path fill="none" stroke="midnightblue" d="M394.769,-159.27C363.586,-136.36 303.232,-92.018 278.315,-73.7118"/>
<polygon fill="midnightblue" stroke="midnightblue" points="392.958,-162.282 403.089,-165.382 397.102,-156.641 392.958,-162.282"/>
</g>
<!-- Node14 -->
<g id="node11" class="node"><title>Node14</title>
<g id="a_node11"><a xlink:href="deselectabletreeview_8h.html" target="_top" xlink:title="deselectabletreeview.h">
<polygon fill="none" stroke="black" points="672.547,-110.5 672.547,-128.5 789.729,-128.5 789.729,-110.5 672.547,-110.5"/>
<text text-anchor="middle" x="731.138" y="-116.5" font-family="Helvetica,sans-Serif" font-size="10.00">deselectabletreeview.h</text>
</a>
</g>
</g>
<!-- Node5&#45;&gt;Node14 -->
<g id="edge15" class="edge"><title>Node5&#45;&gt;Node14</title>
<path fill="none" stroke="midnightblue" d="M463.793,-164.899C546.517,-150.878 630.576,-136.999 682.216,-128.514"/>
<polygon fill="midnightblue" stroke="midnightblue" points="462.987,-161.486 453.714,-166.61 464.158,-168.387 462.987,-161.486"/>
</g>
<!-- Node15 -->
<g id="node12" class="node"><title>Node15</title>
<g id="a_node12"><a xlink:href="main_8cpp.html" target="_top" xlink:title="main.cpp">
<polygon fill="none" stroke="black" points="807.85,-110.5 807.85,-128.5 864.426,-128.5 864.426,-110.5 807.85,-110.5"/>
<text text-anchor="middle" x="836.138" y="-116.5" font-family="Helvetica,sans-Serif" font-size="10.00">main.cpp</text>
</a>
</g>
</g>
<!-- Node5&#45;&gt;Node15 -->
<g id="edge16" class="edge"><title>Node5&#45;&gt;Node15</title>
<path fill="none" stroke="midnightblue" d="M463.717,-165.022C613.604,-144.555 654.203,-153.323 799.138,-129 801.868,-128.542 804.698,-128.005 807.522,-127.428"/>
<polygon fill="midnightblue" stroke="midnightblue" points="463.108,-161.573 453.683,-166.413 464.069,-168.506 463.108,-161.573"/>
</g>
<!-- Node16 -->
<g id="node13" class="node"><title>Node16</title>
<g id="a_node13"><a xlink:href="passworddialog_8h.html" target="_top" xlink:title="passworddialog.h">
<polygon fill="none" stroke="black" points="405.224,-110.5 405.224,-128.5 499.051,-128.5 499.051,-110.5 405.224,-110.5"/>
<text text-anchor="middle" x="452.138" y="-116.5" font-family="Helvetica,sans-Serif" font-size="10.00">passworddialog.h</text>
</a>
</g>
</g>
<!-- Node5&#45;&gt;Node16 -->
<g id="edge18" class="edge"><title>Node5&#45;&gt;Node16</title>
<path fill="none" stroke="midnightblue" d="M426.003,-156.951C432.783,-147.494 440.982,-136.059 446.366,-128.55"/>
<polygon fill="midnightblue" stroke="midnightblue" points="423.058,-155.052 420.075,-165.219 428.747,-159.131 423.058,-155.052"/>
</g>
<!-- Node18 -->
<g id="node15" class="node"><title>Node18</title>
<g id="a_node15"><a xlink:href="qpushbuttonwithclipboard_8h.html" target="_top" xlink:title="qpushbuttonwithclipboard.h">
<polygon fill="none" stroke="black" points="517.261,-110.5 517.261,-128.5 655.014,-128.5 655.014,-110.5 517.261,-110.5"/>
<text text-anchor="middle" x="586.138" y="-116.5" font-family="Helvetica,sans-Serif" font-size="10.00">qpushbuttonwithclipboard.h</text>
</a>
</g>
</g>
<!-- Node5&#45;&gt;Node18 -->
<g id="edge21" class="edge"><title>Node5&#45;&gt;Node18</title>
<path fill="none" stroke="midnightblue" d="M449.937,-162.469C482.79,-152.345 530.684,-137.588 560.051,-128.538"/>
<polygon fill="midnightblue" stroke="midnightblue" points="448.787,-159.161 440.261,-165.45 450.848,-165.85 448.787,-159.161"/>
</g>
<!-- Node6&#45;&gt;Node7 -->
<g id="edge3" class="edge"><title>Node6&#45;&gt;Node7</title>
<path fill="none" stroke="midnightblue" d="M165.569,-106.427C147.819,-98.4961 125.246,-87.1685 107.138,-74 84.0282,-57.1941 61.5927,-31.7425 50.8007,-18.7553"/>
<polygon fill="midnightblue" stroke="midnightblue" points="164.308,-109.695 174.875,-110.474 167.1,-103.276 164.308,-109.695"/>
</g>
<!-- Node8 -->
<g id="node5" class="node"><title>Node8</title>
<g id="a_node5"><a xlink:href="keygendialog_8h.html" target="_top" xlink:title="keygendialog.h">
<polygon fill="none" stroke="black" points="116.5,-55.5 116.5,-73.5 199.775,-73.5 199.775,-55.5 116.5,-55.5"/>
<text text-anchor="middle" x="158.138" y="-61.5" font-family="Helvetica,sans-Serif" font-size="10.00">keygendialog.h</text>
</a>
</g>
</g>
<!-- Node6&#45;&gt;Node8 -->
<g id="edge4" class="edge"><title>Node6&#45;&gt;Node8</title>
<path fill="none" stroke="midnightblue" d="M183.584,-101.951C176.983,-92.4941 169,-81.0595 163.757,-73.5496"/>
<polygon fill="midnightblue" stroke="midnightblue" points="180.762,-104.023 189.356,-110.219 186.502,-100.016 180.762,-104.023"/>
</g>
<!-- Node6&#45;&gt;Node10 -->
<g id="edge8" class="edge"><title>Node6&#45;&gt;Node10</title>
<path fill="none" stroke="midnightblue" d="M230.426,-107.281C255.722,-98.9153 290.432,-86.7706 320.138,-74 361.284,-56.311 407.858,-31.2457 430.801,-18.5457"/>
<polygon fill="midnightblue" stroke="midnightblue" points="229.298,-103.968 220.884,-110.406 231.476,-110.62 229.298,-103.968"/>
</g>
<!-- Node8&#45;&gt;Node7 -->
<g id="edge5" class="edge"><title>Node8&#45;&gt;Node7</title>
<path fill="none" stroke="midnightblue" d="M131.57,-51.1482C110.02,-41.1297 80.2609,-27.2941 61.6148,-18.6253"/>
<polygon fill="midnightblue" stroke="midnightblue" points="130.28,-54.4084 140.824,-55.4504 133.231,-48.0608 130.28,-54.4084"/>
</g>
<!-- Node9 -->
<g id="node6" class="node"><title>Node9</title>
<g id="a_node6"><a xlink:href="keygendialog_8cpp.html" target="_top" xlink:title="keygendialog.cpp">
<polygon fill="none" stroke="black" points="106.219,-0.5 106.219,-18.5 200.056,-18.5 200.056,-0.5 106.219,-0.5"/>
<text text-anchor="middle" x="153.138" y="-6.5" font-family="Helvetica,sans-Serif" font-size="10.00">keygendialog.cpp</text>
</a>
</g>
</g>
<!-- Node8&#45;&gt;Node9 -->
<g id="edge6" class="edge"><title>Node8&#45;&gt;Node9</title>
<path fill="none" stroke="midnightblue" d="M156.409,-45.1746C155.552,-36.0945 154.562,-25.5949 153.897,-18.5496"/>
<polygon fill="midnightblue" stroke="midnightblue" points="152.933,-45.5917 157.356,-55.2188 159.902,-44.9342 152.933,-45.5917"/>
</g>
<!-- Node8&#45;&gt;Node10 -->
<g id="edge7" class="edge"><title>Node8&#45;&gt;Node10</title>
<path fill="none" stroke="midnightblue" d="M209.715,-53.9753C264.439,-43.8694 349.965,-28.0754 401.473,-18.5635"/>
<polygon fill="midnightblue" stroke="midnightblue" points="209.068,-50.5355 199.87,-55.7933 210.339,-57.4191 209.068,-50.5355"/>
</g>
<!-- Node11&#45;&gt;Node7 -->
<g id="edge11" class="edge"><title>Node11&#45;&gt;Node7</title>
<path fill="none" stroke="midnightblue" d="M223.45,-53.1169C180.816,-42.9842 116.855,-27.7826 77.9593,-18.5383"/>
<polygon fill="midnightblue" stroke="midnightblue" points="222.73,-56.5432 233.269,-55.4504 224.349,-49.7329 222.73,-56.5432"/>
</g>
<!-- Node11&#45;&gt;Node10 -->
<g id="edge12" class="edge"><title>Node11&#45;&gt;Node10</title>
<path fill="none" stroke="midnightblue" d="M304.186,-52.4689C338.185,-42.3454 387.749,-27.5875 418.141,-18.5383"/>
<polygon fill="midnightblue" stroke="midnightblue" points="302.757,-49.2422 294.172,-55.4504 304.755,-55.9511 302.757,-49.2422"/>
</g>
<!-- Node12 -->
<g id="node9" class="node"><title>Node12</title>
<g id="a_node9"><a xlink:href="qtpasssettings_8cpp.html" target="_top" xlink:title="qtpasssettings.cpp">
<polygon fill="none" stroke="black" points="217.724,-0.5 217.724,-18.5 316.551,-18.5 316.551,-0.5 217.724,-0.5"/>
<text text-anchor="middle" x="267.138" y="-6.5" font-family="Helvetica,sans-Serif" font-size="10.00">qtpasssettings.cpp</text>
</a>
</g>
</g>
<!-- Node11&#45;&gt;Node12 -->
<g id="edge13" class="edge"><title>Node11&#45;&gt;Node12</title>
<path fill="none" stroke="midnightblue" d="M267.138,-45.1746C267.138,-36.0945 267.138,-25.5949 267.138,-18.5496"/>
<polygon fill="midnightblue" stroke="midnightblue" points="263.638,-45.2187 267.138,-55.2188 270.638,-45.2188 263.638,-45.2187"/>
</g>
<!-- Node13 -->
<g id="node10" class="node"><title>Node13</title>
<g id="a_node10"><a xlink:href="util_8cpp.html" target="_top" xlink:title="util.cpp">
<polygon fill="none" stroke="black" points="334.295,-0.5 334.295,-18.5 381.98,-18.5 381.98,-0.5 334.295,-0.5"/>
<text text-anchor="middle" x="358.138" y="-6.5" font-family="Helvetica,sans-Serif" font-size="10.00">util.cpp</text>
</a>
</g>
</g>
<!-- Node11&#45;&gt;Node13 -->
<g id="edge14" class="edge"><title>Node11&#45;&gt;Node13</title>
<path fill="none" stroke="midnightblue" d="M289.754,-50.3277C306.825,-40.3856 329.705,-27.0598 344.187,-18.6253"/>
<polygon fill="midnightblue" stroke="midnightblue" points="287.838,-47.3932 280.959,-55.4504 291.361,-53.442 287.838,-47.3932"/>
</g>
<!-- Node16&#45;&gt;Node10 -->
<g id="edge19" class="edge"><title>Node16&#45;&gt;Node10</title>
<path fill="none" stroke="midnightblue" d="M446.183,-100.694C443.791,-92.6413 441.322,-82.9437 440.138,-74 437.524,-54.2672 441.058,-30.8902 443.386,-18.7493"/>
<polygon fill="midnightblue" stroke="midnightblue" points="442.911,-101.955 449.27,-110.43 449.584,-99.8394 442.911,-101.955"/>
</g>
<!-- Node17 -->
<g id="node14" class="node"><title>Node17</title>
<g id="a_node14"><a xlink:href="passworddialog_8cpp.html" target="_top" xlink:title="passworddialog.cpp">
<polygon fill="none" stroke="black" points="448.943,-55.5 448.943,-73.5 553.332,-73.5 553.332,-55.5 448.943,-55.5"/>
<text text-anchor="middle" x="501.138" y="-61.5" font-family="Helvetica,sans-Serif" font-size="10.00">passworddialog.cpp</text>
</a>
</g>
</g>
<!-- Node16&#45;&gt;Node17 -->
<g id="edge20" class="edge"><title>Node16&#45;&gt;Node17</title>
<path fill="none" stroke="midnightblue" d="M466.632,-102.822C475.524,-93.2051 486.538,-81.2917 493.696,-73.5496"/>
<polygon fill="midnightblue" stroke="midnightblue" points="464.013,-100.5 459.794,-110.219 469.152,-105.252 464.013,-100.5"/>
</g>
<!-- Node18&#45;&gt;Node10 -->
<g id="edge22" class="edge"><title>Node18&#45;&gt;Node10</title>
<path fill="none" stroke="midnightblue" d="M583.431,-100.37C580.453,-86.3195 574.356,-67.2436 562.138,-55 542.796,-35.6175 514.15,-24.5346 490.045,-18.2767"/>
<polygon fill="midnightblue" stroke="midnightblue" points="580.007,-101.104 585.209,-110.334 586.898,-99.8743 580.007,-101.104"/>
</g>
<!-- Node19 -->
<g id="node16" class="node"><title>Node19</title>
<g id="a_node16"><a xlink:href="qpushbuttonwithclipboard_8cpp.html" target="_top" xlink:title="qpushbuttonwithclipboard.cpp">
<polygon fill="none" stroke="black" points="608.98,-55.5 608.98,-73.5 757.295,-73.5 757.295,-55.5 608.98,-55.5"/>
<text text-anchor="middle" x="683.138" y="-61.5" font-family="Helvetica,sans-Serif" font-size="10.00">qpushbuttonwithclipboard.cpp</text>
</a>
</g>
</g>
<!-- Node18&#45;&gt;Node19 -->
<g id="edge23" class="edge"><title>Node18&#45;&gt;Node19</title>
<path fill="none" stroke="midnightblue" d="M609.742,-105.603C627.989,-95.6328 652.687,-82.1379 668.267,-73.6253"/>
<polygon fill="midnightblue" stroke="midnightblue" points="607.967,-102.584 600.87,-110.45 611.324,-108.727 607.967,-102.584"/>
</g>
</g>
</svg>
