<?xml version="1.0" encoding="UTF-8" standalone="no"?>
<!DOCTYPE svg PUBLIC "-//W3C//DTD SVG 1.1//EN"
 "http://www.w3.org/Graphics/SVG/1.1/DTD/svg11.dtd">
<!-- Generated by graphviz version 2.40.1 (20161225.0304)
 -->
<!-- Title: src/storemodel.h Pages: 1 -->
<svg width="337pt" height="140pt"
 viewBox="0.00 0.00 337.00 140.00" xmlns="http://www.w3.org/2000/svg" xmlns:xlink="http://www.w3.org/1999/xlink">
<g id="graph0" class="graph" transform="scale(1 1) rotate(0) translate(4 136)">
<title>src/storemodel.h</title>
<!-- Node0 -->
<g id="node1" class="node">
<title>Node0</title>
<polygon fill="#bfbfbf" stroke="#000000" points="131.5,-112.5 131.5,-131.5 220.5,-131.5 220.5,-112.5 131.5,-112.5"/>
<text text-anchor="middle" x="176" y="-119.5" font-family="Helvetica,sans-Serif" font-size="10.00" fill="#000000">src/storemodel.h</text>
</g>
<!-- Node1 -->
<g id="node2" class="node">
<title>Node1</title>
<g id="a_node2"><a xlink:href="util_8h.html" target="_top" xlink:title="util.h">
<polygon fill="none" stroke="#000000" points="157,-56.5 157,-75.5 195,-75.5 195,-56.5 157,-56.5"/>
<text text-anchor="middle" x="176" y="-63.5" font-family="Helvetica,sans-Serif" font-size="10.00" fill="#000000">util.h</text>
</a>
</g>
</g>
<!-- Node0&#45;&gt;Node1 -->
<g id="edge1" class="edge">
<title>Node0&#45;&gt;Node1</title>
<path fill="none" stroke="#191970" d="M170.7332,-112.2455C169.3221,-104.9382 168.9179,-94.6944 169.5205,-85.7046"/>
<polygon fill="#191970" stroke="#191970" points="173.0111,-85.9945 170.7549,-75.6427 166.0632,-85.1421 173.0111,-85.9945"/>
</g>
<!-- Node5 -->
<g id="node6" class="node">
<title>Node5</title>
<polygon fill="none" stroke="#bfbfbf" points="213,-56.5 213,-75.5 329,-75.5 329,-56.5 213,-56.5"/>
<text text-anchor="middle" x="271" y="-63.5" font-family="Helvetica,sans-Serif" font-size="10.00" fill="#000000">QSortFilterProxyModel</text>
</g>
<!-- Node0&#45;&gt;Node5 -->
<g id="edge6" class="edge">
<title>Node0&#45;&gt;Node5</title>
<path fill="none" stroke="#191970" d="M192.5477,-112.2455C207.2599,-103.5731 228.9888,-90.7645 245.8505,-80.825"/>
<polygon fill="#191970" stroke="#191970" points="247.8046,-83.736 254.6419,-75.6427 244.2498,-77.7057 247.8046,-83.736"/>
</g>
<!-- Node1&#45;&gt;Node0 -->
<g id="edge2" class="edge">
<title>Node1&#45;&gt;Node0</title>
<path fill="none" stroke="#191970" d="M181.2451,-75.6427C182.6665,-82.9199 183.081,-93.155 182.4887,-102.1575"/>
<polygon fill="#191970" stroke="#191970" points="178.9947,-101.8972 181.2668,-112.2455 185.9439,-102.739 178.9947,-101.8972"/>
</g>
<!-- Node2 -->
<g id="node3" class="node">
<title>Node2</title>
<polygon fill="none" stroke="#bfbfbf" points="0,-.5 0,-19.5 100,-19.5 100,-.5 0,-.5"/>
<text text-anchor="middle" x="50" y="-7.5" font-family="Helvetica,sans-Serif" font-size="10.00" fill="#000000">QFileSystemModel</text>
</g>
<!-- Node1&#45;&gt;Node2 -->
<g id="edge3" class="edge">
<title>Node1&#45;&gt;Node2</title>
<path fill="none" stroke="#191970" d="M156.8633,-57.4948C136.6538,-48.5128 104.4895,-34.2175 80.7223,-23.6543"/>
<polygon fill="#191970" stroke="#191970" points="81.9896,-20.3875 71.4299,-19.5244 79.1466,-26.7842 81.9896,-20.3875"/>
</g>
<!-- Node3 -->
<g id="node4" class="node">
<title>Node3</title>
<polygon fill="none" stroke="#bfbfbf" points="118.5,-.5 118.5,-19.5 233.5,-19.5 233.5,-.5 118.5,-.5"/>
<text text-anchor="middle" x="176" y="-7.5" font-family="Helvetica,sans-Serif" font-size="10.00" fill="#000000">QProcessEnvironment</text>
</g>
<!-- Node1&#45;&gt;Node3 -->
<g id="edge4" class="edge">
<title>Node1&#45;&gt;Node3</title>
<path fill="none" stroke="#191970" d="M176,-56.2455C176,-48.9382 176,-38.6944 176,-29.7046"/>
<polygon fill="#191970" stroke="#191970" points="179.5001,-29.6426 176,-19.6427 172.5001,-29.6427 179.5001,-29.6426"/>
</g>
<!-- Node4 -->
<g id="node5" class="node">
<title>Node4</title>
<polygon fill="none" stroke="#bfbfbf" points="252,-.5 252,-19.5 302,-19.5 302,-.5 252,-.5"/>
<text text-anchor="middle" x="277" y="-7.5" font-family="Helvetica,sans-Serif" font-size="10.00" fill="#000000">QString</text>
</g>
<!-- Node1&#45;&gt;Node4 -->
<g id="edge5" class="edge">
<title>Node1&#45;&gt;Node4</title>
<path fill="none" stroke="#191970" d="M193.5929,-56.2455C209.379,-47.4928 232.7639,-34.527 250.7587,-24.5496"/>
<polygon fill="#191970" stroke="#191970" points="252.5603,-27.5528 259.6087,-19.6427 249.1659,-21.4308 252.5603,-27.5528"/>
</g>
</g>
</svg>
