<?xml version="1.0" encoding="UTF-8" standalone="no"?>
<!DOCTYPE svg PUBLIC "-//W3C//DTD SVG 1.1//EN"
 "http://www.w3.org/Graphics/SVG/1.1/DTD/svg11.dtd">
<!-- Generated by graphviz version 2.43.0 (0)
 -->
<!-- Title: tests/auto/settings/tst_settings.cpp Pages: 1 -->
<!--zoomable 313 -->

<svg id="main" version="1.1" xmlns="http://www.w3.org/2000/svg" xmlns:xlink="http://www.w3.org/1999/xlink" xml:space="preserve" onload="init(evt)">
<style type="text/css"><![CDATA[
.node, .edge {opacity: 0.7;}
.node.selected, .edge.selected {opacity: 1;}
.edge:hover path { stroke: red; }
.edge:hover polygon { stroke: red; fill: red; }
]]></style>

<defs>
  <circle id="rim" cx="0" cy="0" r="7"/>
  <circle id="rim2" cx="0" cy="0" r="3.5"/>
  <g id="zoomPlus">
    <use xlink:href="#rim" fill="#404040"><set attributeName="fill" to="#808080" begin="zoomplus.mouseover" end="zoomplus.mouseout"/></use>
    <path d="M-4,0h8M0,-4v8" fill="none" stroke="white" stroke-width="1.5" pointer-events="none"/>
  </g>
  <g id="zoomMin">
    <use xlink:href="#rim" fill="#404040"><set attributeName="fill" to="#808080" begin="zoomminus.mouseover" end="zoomminus.mouseout"/></use>
    <path d="M-4,0h8" fill="none" stroke="white" stroke-width="1.5" pointer-events="none"/>
  </g>
  <g id="arrowUp" transform="translate(30 24)">
    <use xlink:href="#rim"/>
    <path pointer-events="none" fill="none" stroke="white" stroke-width="1.5" d="M0,-3.0v7 M-2.5,-0.5L0,-3.0L2.5,-0.5"/>
  </g>
  <g id="arrowRight" transform="rotate(90) translate(36 -43)">
    <use xlink:href="#rim"/>
    <path pointer-events="none" fill="none" stroke="white" stroke-width="1.5" d="M0,-3.0v7 M-2.5,-0.5L0,-3.0L2.5,-0.5"/>
  </g>
  <g id="arrowDown" transform="rotate(180) translate(-30 -48)">
    <use xlink:href="#rim"/>
    <path pointer-events="none" fill="none" stroke="white" stroke-width="1.5" d="M0,-3.0v7 M-2.5,-0.5L0,-3.0L2.5,-0.5"/>
  </g>
  <g id="arrowLeft" transform="rotate(270) translate(-36 17)">
    <use xlink:href="#rim"/>
    <path pointer-events="none" fill="none" stroke="white" stroke-width="1.5" d="M0,-3.0v7 M-2.5,-0.5L0,-3.0L2.5,-0.5"/>
  </g>
  <g id="resetDef">
    <use xlink:href="#rim2" fill="#404040"><set attributeName="fill" to="#808080" begin="reset.mouseover" end="reset.mouseout"/></use>
  </g>
</defs>
<script type="application/ecmascript">
var viewWidth = 899;
var viewHeight = 313;
var sectionId = 'dynsection-0';
</script>
<script type="application/ecmascript" xlink:href="svg.min.js"/>
<svg id="graph" class="graph">
<g id="viewport">
<title>tests/auto/settings/tst_settings.cpp</title>
<!-- Node1 -->
<g id="Node000001" class="node">
<title>Node1</title>
<g id="a_Node000001"><a xlink:title=" ">
<polygon fill="#999999" stroke="#666666" points="370.5,-305 263.5,-305 263.5,-275 370.5,-275 370.5,-305"/>
<text text-anchor="start" x="271.5" y="-293" font-family="Helvetica,sans-Serif" font-size="10.00">tests/auto/settings</text>
<text text-anchor="middle" x="317" y="-282" font-family="Helvetica,sans-Serif" font-size="10.00">/tst_settings.cpp</text>
</a>
</g>
</g>
<!-- Node2 -->
<g id="Node000002" class="node">
<title>Node2</title>
<g id="a_Node000002"><a xlink:title=" ">
<polygon fill="#e0e0e0" stroke="#999999" points="123.5,-239 76.5,-239 76.5,-220 123.5,-220 123.5,-239"/>
<text text-anchor="middle" x="100" y="-227" font-family="Helvetica,sans-Serif" font-size="10.00">QtTest</text>
</a>
</g>
</g>
<!-- Node1&#45;&gt;Node2 -->
<g id="edge1_Node000001_Node000002" class="edge">
<title>Node1&#45;&gt;Node2</title>
<g id="a_edge1_Node000001_Node000002"><a xlink:title=" ">
<path fill="none" stroke="#63b8ff" d="M265.02,-274.99C224.17,-263.97 168.48,-248.96 133.38,-239.5"/>
<polygon fill="#63b8ff" stroke="#63b8ff" points="134.19,-236.09 123.62,-236.87 132.37,-242.85 134.19,-236.09"/>
</a>
</g>
</g>
<!-- Node3 -->
<g id="Node000003" class="node">
<title>Node3</title>
<g id="a_Node000003"><a xlink:title=" ">
<polygon fill="#e0e0e0" stroke="#999999" points="180,-239 142,-239 142,-220 180,-220 180,-239"/>
<text text-anchor="middle" x="161" y="-227" font-family="Helvetica,sans-Serif" font-size="10.00">QDir</text>
</a>
</g>
</g>
<!-- Node1&#45;&gt;Node3 -->
<g id="edge2_Node000001_Node000003" class="edge">
<title>Node1&#45;&gt;Node3</title>
<g id="a_edge2_Node000001_Node000003"><a xlink:title=" ">
<path fill="none" stroke="#63b8ff" d="M279.63,-274.99C251.94,-264.6 214.77,-250.66 189.46,-241.17"/>
<polygon fill="#63b8ff" stroke="#63b8ff" points="190.66,-237.88 180.06,-237.65 188.2,-244.44 190.66,-237.88"/>
</a>
</g>
</g>
<!-- Node4 -->
<g id="Node000004" class="node">
<title>Node4</title>
<g id="a_Node000004"><a xlink:title=" ">
<polygon fill="#e0e0e0" stroke="#999999" points="239.5,-239 198.5,-239 198.5,-220 239.5,-220 239.5,-239"/>
<text text-anchor="middle" x="219" y="-227" font-family="Helvetica,sans-Serif" font-size="10.00">QFile</text>
</a>
</g>
</g>
<!-- Node1&#45;&gt;Node4 -->
<g id="edge3_Node000001_Node000004" class="edge">
<title>Node1&#45;&gt;Node4</title>
<g id="a_edge3_Node000001_Node000004"><a xlink:title=" ">
<path fill="none" stroke="#63b8ff" d="M293.28,-274.84C277.8,-265.6 257.68,-253.59 242.29,-244.4"/>
<polygon fill="#63b8ff" stroke="#63b8ff" points="243.78,-241.21 233.4,-239.09 240.19,-247.23 243.78,-241.21"/>
</a>
</g>
</g>
<!-- Node5 -->
<g id="Node000005" class="node">
<title>Node5</title>
<g id="a_Node000005"><a xlink:title=" ">
<polygon fill="#e0e0e0" stroke="#999999" points="64,-184 0,-184 0,-165 64,-165 64,-184"/>
<text text-anchor="middle" x="32" y="-172" font-family="Helvetica,sans-Serif" font-size="10.00">QSettings</text>
</a>
</g>
</g>
<!-- Node1&#45;&gt;Node5 -->
<g id="edge4_Node000001_Node000005" class="edge">
<title>Node1&#45;&gt;Node5</title>
<g id="a_edge4_Node000001_Node000005"><a xlink:title=" ">
<path fill="none" stroke="#63b8ff" d="M307.03,-274.93C294.94,-259 273.06,-233.5 248,-220 180.82,-183.81 152.97,-198.76 74.1,-184.12"/>
<polygon fill="#63b8ff" stroke="#63b8ff" points="74.71,-180.68 64.23,-182.19 73.37,-187.55 74.71,-180.68"/>
</a>
</g>
</g>
<!-- Node6 -->
<g id="Node000006" class="node">
<title>Node6</title>
<g id="a_Node000006"><a xlink:title=" ">
<polygon fill="#e0e0e0" stroke="#999999" points="539.5,-239 494.5,-239 494.5,-220 539.5,-220 539.5,-239"/>
<text text-anchor="middle" x="517" y="-227" font-family="Helvetica,sans-Serif" font-size="10.00">utility</text>
</a>
</g>
</g>
<!-- Node1&#45;&gt;Node6 -->
<g id="edge5_Node000001_Node000006" class="edge">
<title>Node1&#45;&gt;Node6</title>
<g id="a_edge5_Node000001_Node000006"><a xlink:title=" ">
<path fill="none" stroke="#63b8ff" d="M364.9,-274.99C401.92,-264.16 452.16,-249.47 484.58,-239.98"/>
<polygon fill="#63b8ff" stroke="#63b8ff" points="485.82,-243.27 494.44,-237.1 483.86,-236.55 485.82,-243.27"/>
</a>
</g>
</g>
<!-- Node7 -->
<g id="Node000007" class="node">
<title>Node7</title>
<g id="a_Node000007"><a xlink:href="passwordconfiguration_8h.html" target="_top" xlink:title=" ">
<polygon fill="white" stroke="#666666" points="891,-184 711,-184 711,-165 891,-165 891,-184"/>
<text text-anchor="middle" x="801" y="-172" font-family="Helvetica,sans-Serif" font-size="10.00">../../../src/passwordconfiguration.h</text>
</a>
</g>
</g>
<!-- Node1&#45;&gt;Node7 -->
<g id="edge6_Node000001_Node000007" class="edge">
<title>Node1&#45;&gt;Node7</title>
<g id="a_edge6_Node000001_Node000007"><a xlink:title=" ">
<path fill="none" stroke="#63b8ff" d="M355.73,-274.95C381.53,-265.36 416.06,-252.07 446,-239 463.67,-231.29 466.56,-225.64 485,-220 525.69,-207.56 631.32,-194.03 709.3,-185.19"/>
<polygon fill="#63b8ff" stroke="#63b8ff" points="710.09,-188.63 719.63,-184.03 709.31,-181.67 710.09,-188.63"/>
</a>
</g>
</g>
<!-- Node9 -->
<g id="Node000009" class="node">
<title>Node9</title>
<g id="a_Node000009"><a xlink:href="qtpasssettings_8h.html" target="_top" xlink:title=" ">
<polygon fill="white" stroke="#666666" points="437.5,-239 296.5,-239 296.5,-220 437.5,-220 437.5,-239"/>
<text text-anchor="middle" x="367" y="-227" font-family="Helvetica,sans-Serif" font-size="10.00">../../../src/qtpasssettings.h</text>
</a>
</g>
</g>
<!-- Node1&#45;&gt;Node9 -->
<g id="edge8_Node000001_Node000009" class="edge">
<title>Node1&#45;&gt;Node9</title>
<g id="a_edge8_Node000001_Node000009"><a xlink:title=" ">
<path fill="none" stroke="#63b8ff" d="M329.1,-274.84C336.29,-266.43 345.43,-255.74 352.93,-246.96"/>
<polygon fill="#63b8ff" stroke="#63b8ff" points="355.67,-249.14 359.51,-239.27 350.35,-244.59 355.67,-249.14"/>
</a>
</g>
</g>
<!-- Node30 -->
<g id="Node000030" class="node">
<title>Node30</title>
<g id="a_Node000030"><a xlink:title=" ">
<polygon fill="#e0e0e0" stroke="#999999" points="656,-239 558,-239 558,-220 656,-220 656,-239"/>
<text text-anchor="middle" x="607" y="-227" font-family="Helvetica,sans-Serif" font-size="10.00">tst_settings.moc</text>
</a>
</g>
</g>
<!-- Node1&#45;&gt;Node30 -->
<g id="edge39_Node000001_Node000030" class="edge">
<title>Node1&#45;&gt;Node30</title>
<g id="a_edge39_Node000001_Node000030"><a xlink:title=" ">
<path fill="none" stroke="#63b8ff" d="M370.53,-278.2C423,-267.62 502.49,-251.58 554.58,-241.07"/>
<polygon fill="#63b8ff" stroke="#63b8ff" points="555.5,-244.46 564.61,-239.05 554.12,-237.6 555.5,-244.46"/>
</a>
</g>
</g>
<!-- Node8 -->
<g id="Node000008" class="node">
<title>Node8</title>
<g id="a_Node000008"><a xlink:title=" ">
<polygon fill="#e0e0e0" stroke="#999999" points="835.5,-19 782.5,-19 782.5,0 835.5,0 835.5,-19"/>
<text text-anchor="middle" x="809" y="-7" font-family="Helvetica,sans-Serif" font-size="10.00">QString</text>
</a>
</g>
</g>
<!-- Node7&#45;&gt;Node8 -->
<g id="edge7_Node000007_Node000008" class="edge">
<title>Node7&#45;&gt;Node8</title>
<g id="a_edge7_Node000007_Node000008"><a xlink:title=" ">
<path fill="none" stroke="#63b8ff" d="M804.42,-164.91C811.77,-145.42 827.92,-96.37 822,-55 820.75,-46.24 818.17,-36.79 815.64,-28.86"/>
<polygon fill="#63b8ff" stroke="#63b8ff" points="818.88,-27.54 812.34,-19.2 812.26,-29.8 818.88,-27.54"/>
</a>
</g>
</g>
<!-- Node9&#45;&gt;Node5 -->
<g id="edge36_Node000009_Node000005" class="edge">
<title>Node9&#45;&gt;Node5</title>
<g id="a_edge36_Node000009_Node000005"><a xlink:title=" ">
<path fill="none" stroke="#63b8ff" d="M304.04,-219.98C246.67,-211.98 159.36,-199.24 74.29,-184.15"/>
<polygon fill="#63b8ff" stroke="#63b8ff" points="74.66,-180.66 64.2,-182.35 73.43,-187.55 74.66,-180.66"/>
</a>
</g>
</g>
<!-- Node9&#45;&gt;Node7 -->
<g id="edge28_Node000009_Node000007" class="edge">
<title>Node9&#45;&gt;Node7</title>
<g id="a_edge28_Node000009_Node000007"><a xlink:title=" ">
<path fill="none" stroke="#63b8ff" d="M436.73,-219.98C514.28,-210.51 639.35,-195.24 720.87,-185.29"/>
<polygon fill="#63b8ff" stroke="#63b8ff" points="721.58,-188.72 731.08,-184.04 720.73,-181.78 721.58,-188.72"/>
</a>
</g>
</g>
<!-- Node10 -->
<g id="Node000010" class="node">
<title>Node10</title>
<g id="a_Node000010"><a xlink:href="enums_8h.html" target="_top" xlink:title=" ">
<polygon fill="white" stroke="#666666" points="324.5,-74 265.5,-74 265.5,-55 324.5,-55 324.5,-74"/>
<text text-anchor="middle" x="295" y="-62" font-family="Helvetica,sans-Serif" font-size="10.00">enums.h</text>
</a>
</g>
</g>
<!-- Node9&#45;&gt;Node10 -->
<g id="edge9_Node000009_Node000010" class="edge">
<title>Node9&#45;&gt;Node10</title>
<g id="a_edge9_Node000009_Node000010"><a xlink:title=" ">
<path fill="none" stroke="#63b8ff" d="M364.76,-219.7C361.47,-207.28 354.89,-184 347,-165 334.6,-135.12 316.42,-102.17 305.17,-82.68"/>
<polygon fill="#63b8ff" stroke="#63b8ff" points="308.19,-80.91 300.12,-74.04 302.14,-84.44 308.19,-80.91"/>
</a>
</g>
</g>
<!-- Node11 -->
<g id="Node000011" class="node">
<title>Node11</title>
<g id="a_Node000011"><a xlink:href="imitatepass_8h.html" target="_top" xlink:title=" ">
<polygon fill="white" stroke="#666666" points="478.5,-184 395.5,-184 395.5,-165 478.5,-165 478.5,-184"/>
<text text-anchor="middle" x="437" y="-172" font-family="Helvetica,sans-Serif" font-size="10.00">imitatepass.h</text>
</a>
</g>
</g>
<!-- Node9&#45;&gt;Node11 -->
<g id="edge10_Node000009_Node000011" class="edge">
<title>Node9&#45;&gt;Node11</title>
<g id="a_edge10_Node000009_Node000011"><a xlink:title=" ">
<path fill="none" stroke="#63b8ff" d="M378.25,-219.98C388.8,-212 404.8,-199.88 417.44,-190.31"/>
<polygon fill="#63b8ff" stroke="#63b8ff" points="419.69,-193 425.55,-184.17 415.46,-187.42 419.69,-193"/>
</a>
</g>
</g>
<!-- Node23 -->
<g id="Node000023" class="node">
<title>Node23</title>
<g id="a_Node000023"><a xlink:href="realpass_8h.html" target="_top" xlink:title=" ">
<polygon fill="white" stroke="#666666" points="563.5,-184 496.5,-184 496.5,-165 563.5,-165 563.5,-184"/>
<text text-anchor="middle" x="530" y="-172" font-family="Helvetica,sans-Serif" font-size="10.00">realpass.h</text>
</a>
</g>
</g>
<!-- Node9&#45;&gt;Node23 -->
<g id="edge29_Node000009_Node000023" class="edge">
<title>Node9&#45;&gt;Node23</title>
<g id="a_edge29_Node000009_Node000023"><a xlink:title=" ">
<path fill="none" stroke="#63b8ff" d="M393.19,-219.98C420.44,-211.13 463.3,-197.19 493.78,-187.28"/>
<polygon fill="#63b8ff" stroke="#63b8ff" points="495.18,-190.5 503.61,-184.08 493.01,-183.85 495.18,-190.5"/>
</a>
</g>
</g>
<!-- Node24 -->
<g id="Node000024" class="node">
<title>Node24</title>
<g id="a_Node000024"><a xlink:href="settingsconstants_8h.html" target="_top" xlink:title=" ">
<polygon fill="white" stroke="#666666" points="788,-129 676,-129 676,-110 788,-110 788,-129"/>
<text text-anchor="middle" x="732" y="-117" font-family="Helvetica,sans-Serif" font-size="10.00">settingsconstants.h</text>
</a>
</g>
</g>
<!-- Node9&#45;&gt;Node24 -->
<g id="edge31_Node000009_Node000024" class="edge">
<title>Node9&#45;&gt;Node24</title>
<g id="a_edge31_Node000009_Node000024"><a xlink:title=" ">
<path fill="none" stroke="#63b8ff" d="M437.67,-220.08C518.72,-210.08 643.05,-193.55 663,-184 685.83,-173.07 706.38,-151.99 719,-137.13"/>
<polygon fill="#63b8ff" stroke="#63b8ff" points="721.85,-139.17 725.47,-129.21 716.43,-134.74 721.85,-139.17"/>
</a>
</g>
</g>
<!-- Node25 -->
<g id="Node000025" class="node">
<title>Node25</title>
<g id="a_Node000025"><a xlink:title=" ">
<polygon fill="#e0e0e0" stroke="#999999" points="654.5,-184 581.5,-184 581.5,-165 654.5,-165 654.5,-184"/>
<text text-anchor="middle" x="618" y="-172" font-family="Helvetica,sans-Serif" font-size="10.00">QByteArray</text>
</a>
</g>
</g>
<!-- Node9&#45;&gt;Node25 -->
<g id="edge33_Node000009_Node000025" class="edge">
<title>Node9&#45;&gt;Node25</title>
<g id="a_edge33_Node000009_Node000025"><a xlink:title=" ">
<path fill="none" stroke="#63b8ff" d="M407.33,-219.98C452.13,-210.53 524.34,-195.28 571.49,-185.32"/>
<polygon fill="#63b8ff" stroke="#63b8ff" points="572.38,-188.71 581.45,-183.22 570.94,-181.86 572.38,-188.71"/>
</a>
</g>
</g>
<!-- Node26 -->
<g id="Node000026" class="node">
<title>Node26</title>
<g id="a_Node000026"><a xlink:title=" ">
<polygon fill="#e0e0e0" stroke="#999999" points="131.5,-184 82.5,-184 82.5,-165 131.5,-165 131.5,-184"/>
<text text-anchor="middle" x="107" y="-172" font-family="Helvetica,sans-Serif" font-size="10.00">QHash</text>
</a>
</g>
</g>
<!-- Node9&#45;&gt;Node26 -->
<g id="edge34_Node000009_Node000026" class="edge">
<title>Node9&#45;&gt;Node26</title>
<g id="a_edge34_Node000009_Node000026"><a xlink:title=" ">
<path fill="none" stroke="#63b8ff" d="M319,-219.93C275.1,-211.91 208.13,-199.2 141.63,-184.28"/>
<polygon fill="#63b8ff" stroke="#63b8ff" points="142.35,-180.85 131.83,-182.06 140.81,-187.68 142.35,-180.85"/>
</a>
</g>
</g>
<!-- Node27 -->
<g id="Node000027" class="node">
<title>Node27</title>
<g id="a_Node000027"><a xlink:title=" ">
<polygon fill="#e0e0e0" stroke="#999999" points="198.5,-184 149.5,-184 149.5,-165 198.5,-165 198.5,-184"/>
<text text-anchor="middle" x="174" y="-172" font-family="Helvetica,sans-Serif" font-size="10.00">QPoint</text>
</a>
</g>
</g>
<!-- Node9&#45;&gt;Node27 -->
<g id="edge35_Node000009_Node000027" class="edge">
<title>Node9&#45;&gt;Node27</title>
<g id="a_edge35_Node000009_Node000027"><a xlink:title=" ">
<path fill="none" stroke="#63b8ff" d="M335.99,-219.98C301.17,-210.42 244.82,-194.95 208.6,-185"/>
<polygon fill="#63b8ff" stroke="#63b8ff" points="209.07,-181.5 198.5,-182.23 207.22,-188.25 209.07,-181.5"/>
</a>
</g>
</g>
<!-- Node28 -->
<g id="Node000028" class="node">
<title>Node28</title>
<g id="a_Node000028"><a xlink:title=" ">
<polygon fill="#e0e0e0" stroke="#999999" points="261,-184 217,-184 217,-165 261,-165 261,-184"/>
<text text-anchor="middle" x="239" y="-172" font-family="Helvetica,sans-Serif" font-size="10.00">QSize</text>
</a>
</g>
</g>
<!-- Node9&#45;&gt;Node28 -->
<g id="edge37_Node000009_Node000028" class="edge">
<title>Node9&#45;&gt;Node28</title>
<g id="a_edge37_Node000009_Node000028"><a xlink:title=" ">
<path fill="none" stroke="#63b8ff" d="M346.43,-219.98C325.57,-211.34 293.03,-197.87 269.23,-188.02"/>
<polygon fill="#63b8ff" stroke="#63b8ff" points="270.52,-184.76 259.94,-184.17 267.84,-191.23 270.52,-184.76"/>
</a>
</g>
</g>
<!-- Node29 -->
<g id="Node000029" class="node">
<title>Node29</title>
<g id="a_Node000029"><a xlink:title=" ">
<polygon fill="#e0e0e0" stroke="#999999" points="338.5,-184 279.5,-184 279.5,-165 338.5,-165 338.5,-184"/>
<text text-anchor="middle" x="309" y="-172" font-family="Helvetica,sans-Serif" font-size="10.00">QVariant</text>
</a>
</g>
</g>
<!-- Node9&#45;&gt;Node29 -->
<g id="edge38_Node000009_Node000029" class="edge">
<title>Node9&#45;&gt;Node29</title>
<g id="a_edge38_Node000009_Node000029"><a xlink:title=" ">
<path fill="none" stroke="#63b8ff" d="M357.68,-219.98C349.19,-212.23 336.44,-200.58 326.12,-191.14"/>
<polygon fill="#63b8ff" stroke="#63b8ff" points="328.23,-188.33 318.49,-184.17 323.51,-193.5 328.23,-188.33"/>
</a>
</g>
</g>
<!-- Node12 -->
<g id="Node000012" class="node">
<title>Node12</title>
<g id="a_Node000012"><a xlink:href="pass_8h.html" target="_top" xlink:title=" ">
<polygon fill="white" stroke="#666666" points="560,-129 512,-129 512,-110 560,-110 560,-129"/>
<text text-anchor="middle" x="536" y="-117" font-family="Helvetica,sans-Serif" font-size="10.00">pass.h</text>
</a>
</g>
</g>
<!-- Node11&#45;&gt;Node12 -->
<g id="edge11_Node000011_Node000012" class="edge">
<title>Node11&#45;&gt;Node12</title>
<g id="a_edge11_Node000011_Node000012"><a xlink:title=" ">
<path fill="none" stroke="#63b8ff" d="M452.91,-164.98C468.55,-156.61 492.66,-143.7 510.88,-133.95"/>
<polygon fill="#63b8ff" stroke="#63b8ff" points="512.64,-136.98 519.8,-129.17 509.34,-130.8 512.64,-136.98"/>
</a>
</g>
</g>
<!-- Node21 -->
<g id="Node000021" class="node">
<title>Node21</title>
<g id="a_Node000021"><a xlink:href="simpletransaction_8h.html" target="_top" xlink:title=" ">
<polygon fill="white" stroke="#666666" points="493.5,-129 380.5,-129 380.5,-110 493.5,-110 493.5,-129"/>
<text text-anchor="middle" x="437" y="-117" font-family="Helvetica,sans-Serif" font-size="10.00">simpletransaction.h</text>
</a>
</g>
</g>
<!-- Node11&#45;&gt;Node21 -->
<g id="edge25_Node000011_Node000021" class="edge">
<title>Node11&#45;&gt;Node21</title>
<g id="a_edge25_Node000011_Node000021"><a xlink:title=" ">
<path fill="none" stroke="#63b8ff" d="M437,-164.75C437,-157.8 437,-147.85 437,-139.13"/>
<polygon fill="#63b8ff" stroke="#63b8ff" points="440.5,-139.09 437,-129.09 433.5,-139.09 440.5,-139.09"/>
</a>
</g>
</g>
<!-- Node12&#45;&gt;Node8 -->
<g id="edge22_Node000012_Node000008" class="edge">
<title>Node12&#45;&gt;Node8</title>
<g id="a_edge22_Node000012_Node000008"><a xlink:title=" ">
<path fill="none" stroke="#63b8ff" d="M560.32,-116.42C613.29,-111.49 737.03,-97.71 771,-74 786.77,-62.99 797.09,-43.15 802.94,-28.57"/>
<polygon fill="#63b8ff" stroke="#63b8ff" points="806.26,-29.67 806.43,-19.08 799.69,-27.26 806.26,-29.67"/>
</a>
</g>
</g>
<!-- Node12&#45;&gt;Node10 -->
<g id="edge12_Node000012_Node000010" class="edge">
<title>Node12&#45;&gt;Node10</title>
<g id="a_edge12_Node000012_Node000010"><a xlink:title=" ">
<path fill="none" stroke="#63b8ff" d="M511.88,-112.36C508.56,-111.55 505.2,-110.74 502,-110 430.25,-93.39 409.69,-90.6 334.78,-74.37"/>
<polygon fill="#63b8ff" stroke="#63b8ff" points="335.38,-70.92 324.86,-72.21 333.89,-77.76 335.38,-70.92"/>
</a>
</g>
</g>
<!-- Node13 -->
<g id="Node000013" class="node">
<title>Node13</title>
<g id="a_Node000013"><a xlink:href="executor_8h.html" target="_top" xlink:title=" ">
<polygon fill="white" stroke="#666666" points="569.5,-74 502.5,-74 502.5,-55 569.5,-55 569.5,-74"/>
<text text-anchor="middle" x="536" y="-62" font-family="Helvetica,sans-Serif" font-size="10.00">executor.h</text>
</a>
</g>
</g>
<!-- Node12&#45;&gt;Node13 -->
<g id="edge13_Node000012_Node000013" class="edge">
<title>Node12&#45;&gt;Node13</title>
<g id="a_edge13_Node000012_Node000013"><a xlink:title=" ">
<path fill="none" stroke="#63b8ff" d="M536,-109.75C536,-102.8 536,-92.85 536,-84.13"/>
<polygon fill="#63b8ff" stroke="#63b8ff" points="539.5,-84.09 536,-74.09 532.5,-84.09 539.5,-84.09"/>
</a>
</g>
</g>
<!-- Node15 -->
<g id="Node000015" class="node">
<title>Node15</title>
<g id="a_Node000015"><a xlink:title=" ">
<polygon fill="#e0e0e0" stroke="#999999" points="637,-19 575,-19 575,0 637,0 637,-19"/>
<text text-anchor="middle" x="606" y="-7" font-family="Helvetica,sans-Serif" font-size="10.00">QProcess</text>
</a>
</g>
</g>
<!-- Node12&#45;&gt;Node15 -->
<g id="edge20_Node000012_Node000015" class="edge">
<title>Node12&#45;&gt;Node15</title>
<g id="a_edge20_Node000012_Node000015"><a xlink:title=" ">
<path fill="none" stroke="#63b8ff" d="M546.02,-109.76C555.24,-101.31 568.84,-87.81 578,-74 587.37,-59.88 594.89,-42.11 599.77,-28.97"/>
<polygon fill="#63b8ff" stroke="#63b8ff" points="603.2,-29.78 603.23,-19.19 596.6,-27.45 603.2,-29.78"/>
</a>
</g>
</g>
<!-- Node16 -->
<g id="Node000016" class="node">
<title>Node16</title>
<g id="a_Node000016"><a xlink:title=" ">
<polygon fill="#e0e0e0" stroke="#999999" points="483,-19 427,-19 427,0 483,0 483,-19"/>
<text text-anchor="middle" x="455" y="-7" font-family="Helvetica,sans-Serif" font-size="10.00">QQueue</text>
</a>
</g>
</g>
<!-- Node12&#45;&gt;Node16 -->
<g id="edge21_Node000012_Node000016" class="edge">
<title>Node12&#45;&gt;Node16</title>
<g id="a_edge21_Node000012_Node000016"><a xlink:title=" ">
<path fill="none" stroke="#63b8ff" d="M526.46,-109.85C517.28,-101.27 503.32,-87.47 493,-74 481.79,-59.37 471.21,-41.2 464.08,-28.05"/>
<polygon fill="#63b8ff" stroke="#63b8ff" points="467.12,-26.31 459.34,-19.11 460.93,-29.59 467.12,-26.31"/>
</a>
</g>
</g>
<!-- Node17 -->
<g id="Node000017" class="node">
<title>Node17</title>
<g id="a_Node000017"><a xlink:href="userinfo_8h.html" target="_top" xlink:title=" ">
<polygon fill="white" stroke="#666666" points="691.5,-74 626.5,-74 626.5,-55 691.5,-55 691.5,-74"/>
<text text-anchor="middle" x="659" y="-62" font-family="Helvetica,sans-Serif" font-size="10.00">userinfo.h</text>
</a>
</g>
</g>
<!-- Node12&#45;&gt;Node17 -->
<g id="edge17_Node000012_Node000017" class="edge">
<title>Node12&#45;&gt;Node17</title>
<g id="a_edge17_Node000012_Node000017"><a xlink:title=" ">
<path fill="none" stroke="#63b8ff" d="M555.76,-109.98C575.73,-101.38 606.8,-87.99 629.65,-78.15"/>
<polygon fill="#63b8ff" stroke="#63b8ff" points="631.08,-81.34 638.88,-74.17 628.31,-74.91 631.08,-81.34"/>
</a>
</g>
</g>
<!-- Node19 -->
<g id="Node000019" class="node">
<title>Node19</title>
<g id="a_Node000019"><a xlink:title=" ">
<polygon fill="#e0e0e0" stroke="#999999" points="762,-74 710,-74 710,-55 762,-55 762,-74"/>
<text text-anchor="middle" x="736" y="-62" font-family="Helvetica,sans-Serif" font-size="10.00">cassert</text>
</a>
</g>
</g>
<!-- Node12&#45;&gt;Node19 -->
<g id="edge23_Node000012_Node000019" class="edge">
<title>Node12&#45;&gt;Node19</title>
<g id="a_edge23_Node000012_Node000019"><a xlink:title=" ">
<path fill="none" stroke="#63b8ff" d="M560.12,-112.11C594.99,-102.87 659.7,-85.72 700.16,-75"/>
<polygon fill="#63b8ff" stroke="#63b8ff" points="701.12,-78.36 709.89,-72.42 699.33,-71.6 701.12,-78.36"/>
</a>
</g>
</g>
<!-- Node20 -->
<g id="Node000020" class="node">
<title>Node20</title>
<g id="a_Node000020"><a xlink:title=" ">
<polygon fill="#e0e0e0" stroke="#999999" points="446,-74 408,-74 408,-55 446,-55 446,-74"/>
<text text-anchor="middle" x="427" y="-62" font-family="Helvetica,sans-Serif" font-size="10.00">map</text>
</a>
</g>
</g>
<!-- Node12&#45;&gt;Node20 -->
<g id="edge24_Node000012_Node000020" class="edge">
<title>Node12&#45;&gt;Node20</title>
<g id="a_edge24_Node000012_Node000020"><a xlink:title=" ">
<path fill="none" stroke="#63b8ff" d="M518.49,-109.98C501.03,-101.5 473.99,-88.35 453.83,-78.54"/>
<polygon fill="#63b8ff" stroke="#63b8ff" points="455.36,-75.4 444.83,-74.17 452.29,-81.69 455.36,-75.4"/>
</a>
</g>
</g>
<!-- Node14 -->
<g id="Node000014" class="node">
<title>Node14</title>
<g id="a_Node000014"><a xlink:title=" ">
<polygon fill="#e0e0e0" stroke="#999999" points="557,-19 501,-19 501,0 557,0 557,-19"/>
<text text-anchor="middle" x="529" y="-7" font-family="Helvetica,sans-Serif" font-size="10.00">QObject</text>
</a>
</g>
</g>
<!-- Node13&#45;&gt;Node14 -->
<g id="edge14_Node000013_Node000014" class="edge">
<title>Node13&#45;&gt;Node14</title>
<g id="a_edge14_Node000013_Node000014"><a xlink:title=" ">
<path fill="none" stroke="#63b8ff" d="M534.84,-54.75C533.93,-47.8 532.61,-37.85 531.46,-29.13"/>
<polygon fill="#63b8ff" stroke="#63b8ff" points="534.91,-28.54 530.13,-19.09 527.97,-29.46 534.91,-28.54"/>
</a>
</g>
</g>
<!-- Node13&#45;&gt;Node15 -->
<g id="edge15_Node000013_Node000015" class="edge">
<title>Node13&#45;&gt;Node15</title>
<g id="a_edge15_Node000013_Node000015"><a xlink:title=" ">
<path fill="none" stroke="#63b8ff" d="M547.25,-54.98C557.8,-47 573.8,-34.88 586.44,-25.31"/>
<polygon fill="#63b8ff" stroke="#63b8ff" points="588.69,-28 594.55,-19.17 584.46,-22.42 588.69,-28"/>
</a>
</g>
</g>
<!-- Node13&#45;&gt;Node16 -->
<g id="edge16_Node000013_Node000016" class="edge">
<title>Node13&#45;&gt;Node16</title>
<g id="a_edge16_Node000013_Node000016"><a xlink:title=" ">
<path fill="none" stroke="#63b8ff" d="M522.99,-54.98C510.54,-46.84 491.54,-34.41 476.79,-24.76"/>
<polygon fill="#63b8ff" stroke="#63b8ff" points="478.54,-21.72 468.25,-19.17 474.7,-27.57 478.54,-21.72"/>
</a>
</g>
</g>
<!-- Node17&#45;&gt;Node8 -->
<g id="edge19_Node000017_Node000008" class="edge">
<title>Node17&#45;&gt;Node8</title>
<g id="a_edge19_Node000017_Node000008"><a xlink:title=" ">
<path fill="none" stroke="#63b8ff" d="M683.1,-54.98C707.88,-46.23 746.7,-32.51 774.69,-22.62"/>
<polygon fill="#63b8ff" stroke="#63b8ff" points="776.2,-25.8 784.46,-19.17 773.87,-19.2 776.2,-25.8"/>
</a>
</g>
</g>
<!-- Node18 -->
<g id="Node000018" class="node">
<title>Node18</title>
<g id="a_Node000018"><a xlink:title=" ">
<polygon fill="#e0e0e0" stroke="#999999" points="727,-19 655,-19 655,0 727,0 727,-19"/>
<text text-anchor="middle" x="691" y="-7" font-family="Helvetica,sans-Serif" font-size="10.00">QDateTime</text>
</a>
</g>
</g>
<!-- Node17&#45;&gt;Node18 -->
<g id="edge18_Node000017_Node000018" class="edge">
<title>Node17&#45;&gt;Node18</title>
<g id="a_edge18_Node000017_Node000018"><a xlink:title=" ">
<path fill="none" stroke="#63b8ff" d="M664.28,-54.75C668.71,-47.42 675.16,-36.73 680.62,-27.7"/>
<polygon fill="#63b8ff" stroke="#63b8ff" points="683.64,-29.46 685.81,-19.09 677.65,-25.84 683.64,-29.46"/>
</a>
</g>
</g>
<!-- Node21&#45;&gt;Node10 -->
<g id="edge26_Node000021_Node000010" class="edge">
<title>Node21&#45;&gt;Node10</title>
<g id="a_edge26_Node000021_Node000010"><a xlink:title=" ">
<path fill="none" stroke="#63b8ff" d="M414.19,-109.98C390.83,-101.27 354.3,-87.63 327.83,-77.75"/>
<polygon fill="#63b8ff" stroke="#63b8ff" points="328.82,-74.39 318.23,-74.17 326.37,-80.95 328.82,-74.39"/>
</a>
</g>
</g>
<!-- Node22 -->
<g id="Node000022" class="node">
<title>Node22</title>
<g id="a_Node000022"><a xlink:title=" ">
<polygon fill="#e0e0e0" stroke="#999999" points="389.5,-74 342.5,-74 342.5,-55 389.5,-55 389.5,-74"/>
<text text-anchor="middle" x="366" y="-62" font-family="Helvetica,sans-Serif" font-size="10.00">queue</text>
</a>
</g>
</g>
<!-- Node21&#45;&gt;Node22 -->
<g id="edge27_Node000021_Node000022" class="edge">
<title>Node21&#45;&gt;Node22</title>
<g id="a_edge27_Node000021_Node000022"><a xlink:title=" ">
<path fill="none" stroke="#63b8ff" d="M425.59,-109.98C414.89,-102 398.66,-89.88 385.84,-80.31"/>
<polygon fill="#63b8ff" stroke="#63b8ff" points="387.72,-77.35 377.61,-74.17 383.53,-82.96 387.72,-77.35"/>
</a>
</g>
</g>
<!-- Node23&#45;&gt;Node12 -->
<g id="edge30_Node000023_Node000012" class="edge">
<title>Node23&#45;&gt;Node12</title>
<g id="a_edge30_Node000023_Node000012"><a xlink:title=" ">
<path fill="none" stroke="#63b8ff" d="M530.99,-164.75C531.78,-157.8 532.9,-147.85 533.89,-139.13"/>
<polygon fill="#63b8ff" stroke="#63b8ff" points="537.38,-139.42 535.03,-129.09 530.42,-138.63 537.38,-139.42"/>
</a>
</g>
</g>
<!-- Node24&#45;&gt;Node8 -->
<g id="edge32_Node000024_Node000008" class="edge">
<title>Node24&#45;&gt;Node8</title>
<g id="a_edge32_Node000024_Node000008"><a xlink:title=" ">
<path fill="none" stroke="#63b8ff" d="M757.06,-109.89C773.34,-102.89 793.44,-91.31 804,-74 812.19,-60.58 812.82,-42.48 811.77,-29.03"/>
<polygon fill="#63b8ff" stroke="#63b8ff" points="815.24,-28.58 810.62,-19.04 808.29,-29.38 815.24,-28.58"/>
</a>
</g>
</g>
</g>
</svg>

<g id="navigator" transform="translate(0 0)" fill="#404254">
  <rect fill="#f2f5e9" fill-opacity="0.5" stroke="#606060" stroke-width=".5" x="0" y="0" width="60" height="60"/>
  <use id="zoomplus" xlink:href="#zoomPlus" x="17" y="9" onmousedown="handleZoom(evt,'in')"/>
  <use id="zoomminus" xlink:href="#zoomMin" x="42" y="9" onmousedown="handleZoom(evt,'out')"/>
  <use id="reset" xlink:href="#resetDef" x="30" y="36" onmousedown="handleReset()"/>
   <use id="arrowup" xlink:href="#arrowUp" x="0" y="0" onmousedown="handlePan(0,-1)"/>
  <use id="arrowright" xlink:href="#arrowRight" x="0" y="0" onmousedown="handlePan(1,0)"/>
  <use id="arrowdown" xlink:href="#arrowDown" x="0" y="0" onmousedown="handlePan(0,1)"/>
  <use id="arrowleft" xlink:href="#arrowLeft" x="0" y="0" onmousedown="handlePan(-1,0)"/>
</g>
<svg viewBox="0 0 15 15" width="100%" height="30px" preserveAspectRatio="xMaxYMin meet">
 <g id="arrow_out" transform="scale(0.3 0.3)">
  <a xlink:href="tst__settings_8cpp__incl_org.svg" target="_base">
   <rect id="button" ry="5" rx="5" y="6" x="6" height="38" width="38"
        fill="#f2f5e9" fill-opacity="0.5" stroke="#606060" stroke-width="1.0"/>
   <path id="arrow"
     d="M 11.500037,31.436501 C 11.940474,20.09759 22.043105,11.32322 32.158766,21.979434 L 37.068811,17.246167 C 37.068811,17.246167 37.088388,32 37.088388,32 L 22.160133,31.978069 C 22.160133,31.978069 26.997745,27.140456 26.997745,27.140456 C 18.528582,18.264221 13.291696,25.230495 11.500037,31.436501 z"
     style="fill:#404040;"/>
  </a>
 </g>
</svg>

<style type='text/css'>
<![CDATA[
[data-mouse-over-selected='false'] { opacity: 0.7; }
[data-mouse-over-selected='true']  { opacity: 1.0; }
]]>
</style>
<script type="application/ecmascript"><![CDATA[
document.addEventListener('DOMContentLoaded', (event) => {
  highlightEdges();
  highlightAdjacentNodes();
});
]]></script>
</svg>
