<?xml version="1.0" encoding="UTF-8" standalone="no"?>
<!DOCTYPE svg PUBLIC "-//W3C//DTD SVG 1.1//EN"
 "http://www.w3.org/Graphics/SVG/1.1/DTD/svg11.dtd">
<!-- Generated by graphviz version 2.40.1 (20161225.0304)
 -->
<!-- Title: tests/auto/util/tst_util.cpp Pages: 1 -->
<svg width="553pt" height="202pt"
 viewBox="0.00 0.00 552.96 202.00" xmlns="http://www.w3.org/2000/svg" xmlns:xlink="http://www.w3.org/1999/xlink">
<g id="graph0" class="graph" transform="scale(1 1) rotate(0) translate(4 198)">
<title>tests/auto/util/tst_util.cpp</title>
<!-- Node0 -->
<g id="node1" class="node">
<title>Node0</title>
<polygon fill="#bfbfbf" stroke="#000000" points="253.542,-165.5 253.542,-193.5 341.7979,-193.5 341.7979,-165.5 253.542,-165.5"/>
<text text-anchor="start" x="261.542" y="-181.5" font-family="Helvetica,sans-Serif" font-size="10.00" fill="#000000">tests/auto/util/tst</text>
<text text-anchor="middle" x="297.6699" y="-171.5" font-family="Helvetica,sans-Serif" font-size="10.00" fill="#000000">_util.cpp</text>
</g>
<!-- Node1 -->
<g id="node2" class="node">
<title>Node1</title>
<g id="a_node2"><a xlink:href="filecontent_8h.html" target="_top" xlink:title="../../../src/filecontent.h">
<polygon fill="none" stroke="#000000" points="70.1504,-110.5 70.1504,-128.5 181.1895,-128.5 181.1895,-110.5 70.1504,-110.5"/>
<text text-anchor="middle" x="125.6699" y="-116.5" font-family="Helvetica,sans-Serif" font-size="10.00" fill="#000000">../../../src/filecontent.h</text>
</a>
</g>
</g>
<!-- Node0&#45;&gt;Node1 -->
<g id="edge1" class="edge">
<title>Node0&#45;&gt;Node1</title>
<path fill="none" stroke="#191970" d="M257.3436,-165.4327C228.2492,-155.2835 189.3299,-141.707 161.3602,-131.9501"/>
<polygon fill="#191970" stroke="#191970" points="162.1844,-128.5308 151.5895,-128.5417 159.8787,-135.1402 162.1844,-128.5308"/>
</g>
<!-- Node2 -->
<g id="node3" class="node">
<title>Node2</title>
<polygon fill="none" stroke="#bfbfbf" points="0,-55.5 0,-73.5 39.3398,-73.5 39.3398,-55.5 0,-55.5"/>
<text text-anchor="middle" x="19.6699" y="-61.5" font-family="Helvetica,sans-Serif" font-size="10.00" fill="#000000">QList</text>
</g>
<!-- Node0&#45;&gt;Node2 -->
<g id="edge13" class="edge">
<title>Node0&#45;&gt;Node2</title>
<path fill="none" stroke="#191970" d="M253.3838,-174.2097C193.6989,-166.3888 91.3747,-150.3349 60.6699,-129 44.5362,-117.7897 33.3501,-97.9708 26.7853,-83.2512"/>
<polygon fill="#191970" stroke="#191970" points="29.8658,-81.5404 22.8173,-73.6303 23.3945,-84.2094 29.8658,-81.5404"/>
</g>
<!-- Node5 -->
<g id="node6" class="node">
<title>Node5</title>
<g id="a_node6"><a xlink:href="util_8h.html" target="_top" xlink:title="../../../src/util.h">
<polygon fill="none" stroke="#000000" points="206.5518,-110.5 206.5518,-128.5 284.7881,-128.5 284.7881,-110.5 206.5518,-110.5"/>
<text text-anchor="middle" x="245.6699" y="-116.5" font-family="Helvetica,sans-Serif" font-size="10.00" fill="#000000">../../../src/util.h</text>
</a>
</g>
</g>
<!-- Node0&#45;&gt;Node5 -->
<g id="edge5" class="edge">
<title>Node0&#45;&gt;Node5</title>
<path fill="none" stroke="#191970" d="M285.3466,-165.2808C277.8045,-156.5784 268.1159,-145.3992 260.2008,-136.2664"/>
<polygon fill="#191970" stroke="#191970" points="262.7371,-133.8488 253.5429,-128.5842 257.4473,-138.4334 262.7371,-133.8488"/>
</g>
<!-- Node10 -->
<g id="node11" class="node">
<title>Node10</title>
<polygon fill="none" stroke="#bfbfbf" points="302.4829,-110.5 302.4829,-128.5 396.8569,-128.5 396.8569,-110.5 302.4829,-110.5"/>
<text text-anchor="middle" x="349.6699" y="-116.5" font-family="Helvetica,sans-Serif" font-size="10.00" fill="#000000">QCoreApplication</text>
</g>
<!-- Node0&#45;&gt;Node10 -->
<g id="edge12" class="edge">
<title>Node0&#45;&gt;Node10</title>
<path fill="none" stroke="#191970" d="M309.9932,-165.2808C317.5353,-156.5784 327.224,-145.3992 335.139,-136.2664"/>
<polygon fill="#191970" stroke="#191970" points="337.8925,-138.4334 341.797,-128.5842 332.6027,-133.8488 337.8925,-138.4334"/>
</g>
<!-- Node11 -->
<g id="node12" class="node">
<title>Node11</title>
<polygon fill="none" stroke="#bfbfbf" points="415.2217,-110.5 415.2217,-128.5 460.1182,-128.5 460.1182,-110.5 415.2217,-110.5"/>
<text text-anchor="middle" x="437.6699" y="-116.5" font-family="Helvetica,sans-Serif" font-size="10.00" fill="#000000">QtTest</text>
</g>
<!-- Node0&#45;&gt;Node11 -->
<g id="edge14" class="edge">
<title>Node0&#45;&gt;Node11</title>
<path fill="none" stroke="#191970" d="M330.4937,-165.4327C353.5855,-155.5362 384.2809,-142.381 406.9025,-132.686"/>
<polygon fill="#191970" stroke="#191970" points="408.5514,-135.7873 416.3641,-128.6311 405.7939,-129.3533 408.5514,-135.7873"/>
</g>
<!-- Node12 -->
<g id="node13" class="node">
<title>Node12</title>
<polygon fill="none" stroke="#bfbfbf" points="478.3843,-110.5 478.3843,-128.5 544.9556,-128.5 544.9556,-110.5 478.3843,-110.5"/>
<text text-anchor="middle" x="511.6699" y="-116.5" font-family="Helvetica,sans-Serif" font-size="10.00" fill="#000000">tst_util.moc</text>
</g>
<!-- Node0&#45;&gt;Node12 -->
<g id="edge15" class="edge">
<title>Node0&#45;&gt;Node12</title>
<path fill="none" stroke="#191970" d="M342.0109,-167.068C379.4989,-156.5573 432.8308,-141.6044 469.6461,-131.2824"/>
<polygon fill="#191970" stroke="#191970" points="470.8812,-134.5711 479.565,-128.5014 468.9914,-127.831 470.8812,-134.5711"/>
</g>
<!-- Node1&#45;&gt;Node2 -->
<g id="edge2" class="edge">
<title>Node1&#45;&gt;Node2</title>
<path fill="none" stroke="#191970" d="M108.1662,-110.4179C91.288,-101.6603 65.5212,-88.2907 46.1363,-78.2326"/>
<polygon fill="#191970" stroke="#191970" points="47.6879,-75.0946 37.1997,-73.5956 44.464,-81.308 47.6879,-75.0946"/>
</g>
<!-- Node3 -->
<g id="node4" class="node">
<title>Node3</title>
<polygon fill="none" stroke="#bfbfbf" points="140.7192,-55.5 140.7192,-73.5 190.6206,-73.5 190.6206,-55.5 140.7192,-55.5"/>
<text text-anchor="middle" x="165.6699" y="-61.5" font-family="Helvetica,sans-Serif" font-size="10.00" fill="#000000">QString</text>
</g>
<!-- Node1&#45;&gt;Node3 -->
<g id="edge3" class="edge">
<title>Node1&#45;&gt;Node3</title>
<path fill="none" stroke="#191970" d="M132.2751,-110.4179C137.8579,-102.7415 146.0178,-91.5217 152.8739,-82.0945"/>
<polygon fill="#191970" stroke="#191970" points="155.8701,-83.9255 158.9212,-73.7795 150.2089,-79.8082 155.8701,-83.9255"/>
</g>
<!-- Node4 -->
<g id="node5" class="node">
<title>Node4</title>
<polygon fill="none" stroke="#bfbfbf" points="56.9385,-55.5 56.9385,-73.5 122.4014,-73.5 122.4014,-55.5 56.9385,-55.5"/>
<text text-anchor="middle" x="89.6699" y="-61.5" font-family="Helvetica,sans-Serif" font-size="10.00" fill="#000000">QStringList</text>
</g>
<!-- Node1&#45;&gt;Node4 -->
<g id="edge4" class="edge">
<title>Node1&#45;&gt;Node4</title>
<path fill="none" stroke="#191970" d="M119.7253,-110.4179C114.7525,-102.8207 107.508,-91.7527 101.3775,-82.3866"/>
<polygon fill="#191970" stroke="#191970" points="104.1488,-80.2297 95.7437,-73.7795 98.2919,-84.0633 104.1488,-80.2297"/>
</g>
<!-- Node5&#45;&gt;Node3 -->
<g id="edge11" class="edge">
<title>Node5&#45;&gt;Node3</title>
<path fill="none" stroke="#191970" d="M232.4595,-110.4179C220.1845,-101.9788 201.6801,-89.257 187.2591,-79.3426"/>
<polygon fill="#191970" stroke="#191970" points="189.1232,-76.3768 178.8999,-73.5956 185.1575,-82.1451 189.1232,-76.3768"/>
</g>
<!-- Node6 -->
<g id="node7" class="node">
<title>Node6</title>
<g id="a_node7"><a xlink:href="storemodel_8h.html" target="_top" xlink:title="storemodel.h">
<polygon fill="none" stroke="#000000" points="208.7661,-55.5 208.7661,-73.5 282.5737,-73.5 282.5737,-55.5 208.7661,-55.5"/>
<text text-anchor="middle" x="245.6699" y="-61.5" font-family="Helvetica,sans-Serif" font-size="10.00" fill="#000000">storemodel.h</text>
</a>
</g>
</g>
<!-- Node5&#45;&gt;Node6 -->
<g id="edge6" class="edge">
<title>Node5&#45;&gt;Node6</title>
<path fill="none" stroke="#191970" d="M240.5036,-110.4179C239.0121,-103.2164 238.5741,-92.8962 239.1897,-83.8632"/>
<polygon fill="#191970" stroke="#191970" points="242.6826,-84.1392 240.4632,-73.7795 235.7377,-83.2621 242.6826,-84.1392"/>
</g>
<!-- Node8 -->
<g id="node9" class="node">
<title>Node8</title>
<polygon fill="none" stroke="#bfbfbf" points="300.436,-55.5 300.436,-73.5 400.9038,-73.5 400.9038,-55.5 300.436,-55.5"/>
<text text-anchor="middle" x="350.6699" y="-61.5" font-family="Helvetica,sans-Serif" font-size="10.00" fill="#000000">QFileSystemModel</text>
</g>
<!-- Node5&#45;&gt;Node8 -->
<g id="edge9" class="edge">
<title>Node5&#45;&gt;Node8</title>
<path fill="none" stroke="#191970" d="M263.0085,-110.4179C279.6515,-101.7001 305.0194,-88.4122 324.191,-78.3699"/>
<polygon fill="#191970" stroke="#191970" points="326.0713,-81.3362 333.3055,-73.5956 322.8232,-75.1353 326.0713,-81.3362"/>
</g>
<!-- Node9 -->
<g id="node10" class="node">
<title>Node9</title>
<polygon fill="none" stroke="#bfbfbf" points="418.6504,-55.5 418.6504,-73.5 534.6895,-73.5 534.6895,-55.5 418.6504,-55.5"/>
<text text-anchor="middle" x="476.6699" y="-61.5" font-family="Helvetica,sans-Serif" font-size="10.00" fill="#000000">QProcessEnvironment</text>
</g>
<!-- Node5&#45;&gt;Node9 -->
<g id="edge10" class="edge">
<title>Node5&#45;&gt;Node9</title>
<path fill="none" stroke="#191970" d="M283.5562,-110.4795C323.2525,-101.0279 385.7144,-86.1561 428.7967,-75.8984"/>
<polygon fill="#191970" stroke="#191970" points="429.8456,-79.2466 438.7629,-73.5255 428.2242,-72.4369 429.8456,-79.2466"/>
</g>
<!-- Node6&#45;&gt;Node5 -->
<g id="edge7" class="edge">
<title>Node6&#45;&gt;Node5</title>
<path fill="none" stroke="#191970" d="M250.8767,-73.7795C252.3491,-81.0373 252.7679,-91.3738 252.1331,-100.383"/>
<polygon fill="#191970" stroke="#191970" points="248.6469,-100.0517 250.8362,-110.4179 255.5891,-100.949 248.6469,-100.0517"/>
</g>
<!-- Node7 -->
<g id="node8" class="node">
<title>Node7</title>
<polygon fill="none" stroke="#bfbfbf" points="187.1011,-.5 187.1011,-18.5 304.2388,-18.5 304.2388,-.5 187.1011,-.5"/>
<text text-anchor="middle" x="245.6699" y="-6.5" font-family="Helvetica,sans-Serif" font-size="10.00" fill="#000000">QSortFilterProxyModel</text>
</g>
<!-- Node6&#45;&gt;Node7 -->
<g id="edge8" class="edge">
<title>Node6&#45;&gt;Node7</title>
<path fill="none" stroke="#191970" d="M245.6699,-55.4179C245.6699,-48.2164 245.6699,-37.8962 245.6699,-28.8632"/>
<polygon fill="#191970" stroke="#191970" points="249.17,-28.7794 245.6699,-18.7795 242.17,-28.7795 249.17,-28.7794"/>
</g>
</g>
</svg>
