<?xml version="1.0" encoding="UTF-8" standalone="no"?>
<!DOCTYPE svg PUBLIC "-//W3C//DTD SVG 1.1//EN"
 "http://www.w3.org/Graphics/SVG/1.1/DTD/svg11.dtd">
<!-- Generated by graphviz version 2.43.0 (0)
 -->
<!-- Title: tests/auto/util/tst_util.cpp Pages: 1 -->
<!--zoomable 313 -->

<svg id="main" version="1.1" xmlns="http://www.w3.org/2000/svg" xmlns:xlink="http://www.w3.org/1999/xlink" xml:space="preserve" onload="init(evt)">
<style type="text/css"><![CDATA[
.node, .edge {opacity: 0.7;}
.node.selected, .edge.selected {opacity: 1;}
.edge:hover path { stroke: red; }
.edge:hover polygon { stroke: red; fill: red; }
]]></style>

<defs>
  <circle id="rim" cx="0" cy="0" r="7"/>
  <circle id="rim2" cx="0" cy="0" r="3.5"/>
  <g id="zoomPlus">
    <use xlink:href="#rim" fill="#404040"><set attributeName="fill" to="#808080" begin="zoomplus.mouseover" end="zoomplus.mouseout"/></use>
    <path d="M-4,0h8M0,-4v8" fill="none" stroke="white" stroke-width="1.5" pointer-events="none"/>
  </g>
  <g id="zoomMin">
    <use xlink:href="#rim" fill="#404040"><set attributeName="fill" to="#808080" begin="zoomminus.mouseover" end="zoomminus.mouseout"/></use>
    <path d="M-4,0h8" fill="none" stroke="white" stroke-width="1.5" pointer-events="none"/>
  </g>
  <g id="arrowUp" transform="translate(30 24)">
    <use xlink:href="#rim"/>
    <path pointer-events="none" fill="none" stroke="white" stroke-width="1.5" d="M0,-3.0v7 M-2.5,-0.5L0,-3.0L2.5,-0.5"/>
  </g>
  <g id="arrowRight" transform="rotate(90) translate(36 -43)">
    <use xlink:href="#rim"/>
    <path pointer-events="none" fill="none" stroke="white" stroke-width="1.5" d="M0,-3.0v7 M-2.5,-0.5L0,-3.0L2.5,-0.5"/>
  </g>
  <g id="arrowDown" transform="rotate(180) translate(-30 -48)">
    <use xlink:href="#rim"/>
    <path pointer-events="none" fill="none" stroke="white" stroke-width="1.5" d="M0,-3.0v7 M-2.5,-0.5L0,-3.0L2.5,-0.5"/>
  </g>
  <g id="arrowLeft" transform="rotate(270) translate(-36 17)">
    <use xlink:href="#rim"/>
    <path pointer-events="none" fill="none" stroke="white" stroke-width="1.5" d="M0,-3.0v7 M-2.5,-0.5L0,-3.0L2.5,-0.5"/>
  </g>
  <g id="resetDef">
    <use xlink:href="#rim2" fill="#404040"><set attributeName="fill" to="#808080" begin="reset.mouseover" end="reset.mouseout"/></use>
  </g>
</defs>
<script type="application/ecmascript">
var viewWidth = 2219;
var viewHeight = 313;
var sectionId = 'dynsection-0';
</script>
<script type="application/ecmascript" xlink:href="svg.min.js"/>
<svg id="graph" class="graph">
<g id="viewport">
<title>tests/auto/util/tst_util.cpp</title>
<!-- Node1 -->
<g id="Node000001" class="node">
<title>Node1</title>
<g id="a_Node000001"><a xlink:title=" ">
<polygon fill="#999999" stroke="#666666" points="874.5,-305 774.5,-305 774.5,-275 874.5,-275 874.5,-305"/>
<text text-anchor="start" x="782.5" y="-293" font-family="Helvetica,sans-Serif" font-size="10.00">tests/auto/util/tst</text>
<text text-anchor="middle" x="824.5" y="-282" font-family="Helvetica,sans-Serif" font-size="10.00">_util.cpp</text>
</a>
</g>
</g>
<!-- Node2 -->
<g id="Node000002" class="node">
<title>Node2</title>
<g id="a_Node000002"><a xlink:title=" ">
<polygon fill="#e0e0e0" stroke="#999999" points="101,-239 0,-239 0,-220 101,-220 101,-239"/>
<text text-anchor="middle" x="50.5" y="-227" font-family="Helvetica,sans-Serif" font-size="10.00">QCoreApplication</text>
</a>
</g>
</g>
<!-- Node1&#45;&gt;Node2 -->
<g id="edge1_Node000001_Node000002" class="edge">
<title>Node1&#45;&gt;Node2</title>
<g id="a_edge1_Node000001_Node000002"><a xlink:title=" ">
<path fill="none" stroke="#63b8ff" d="M774.19,-286.7C658.93,-281.18 366.72,-265.67 111.42,-239.02"/>
<polygon fill="#63b8ff" stroke="#63b8ff" points="111.52,-235.51 101.21,-237.94 110.79,-242.47 111.52,-235.51"/>
</a>
</g>
</g>
<!-- Node3 -->
<g id="Node000003" class="node">
<title>Node3</title>
<g id="a_Node000003"><a xlink:title=" ">
<polygon fill="#e0e0e0" stroke="#999999" points="157.5,-239 119.5,-239 119.5,-220 157.5,-220 157.5,-239"/>
<text text-anchor="middle" x="138.5" y="-227" font-family="Helvetica,sans-Serif" font-size="10.00">QDir</text>
</a>
</g>
</g>
<!-- Node1&#45;&gt;Node3 -->
<g id="edge2_Node000001_Node000003" class="edge">
<title>Node1&#45;&gt;Node3</title>
<g id="a_edge2_Node000001_Node000003"><a xlink:title=" ">
<path fill="none" stroke="#63b8ff" d="M774.49,-288.91C665.46,-287.93 398.29,-281.2 167.56,-238.77"/>
<polygon fill="#63b8ff" stroke="#63b8ff" points="168.11,-235.31 157.64,-236.91 166.83,-242.19 168.11,-235.31"/>
</a>
</g>
</g>
<!-- Node4 -->
<g id="Node000004" class="node">
<title>Node4</title>
<g id="a_Node000004"><a xlink:title=" ">
<polygon fill="#e0e0e0" stroke="#999999" points="217,-239 176,-239 176,-220 217,-220 217,-239"/>
<text text-anchor="middle" x="196.5" y="-227" font-family="Helvetica,sans-Serif" font-size="10.00">QFile</text>
</a>
</g>
</g>
<!-- Node1&#45;&gt;Node4 -->
<g id="edge3_Node000001_Node000004" class="edge">
<title>Node1&#45;&gt;Node4</title>
<g id="a_edge3_Node000001_Node000004"><a xlink:title=" ">
<path fill="none" stroke="#63b8ff" d="M774.46,-288.06C672.82,-285.46 434.99,-275.82 226.92,-238.67"/>
<polygon fill="#63b8ff" stroke="#63b8ff" points="227.5,-235.22 217.03,-236.88 226.25,-242.11 227.5,-235.22"/>
</a>
</g>
</g>
<!-- Node5 -->
<g id="Node000005" class="node">
<title>Node5</title>
<g id="a_Node000005"><a xlink:title=" ">
<polygon fill="#e0e0e0" stroke="#999999" points="295.5,-239 235.5,-239 235.5,-220 295.5,-220 295.5,-239"/>
<text text-anchor="middle" x="265.5" y="-227" font-family="Helvetica,sans-Serif" font-size="10.00">QFileInfo</text>
</a>
</g>
</g>
<!-- Node1&#45;&gt;Node5 -->
<g id="edge4_Node000001_Node000005" class="edge">
<title>Node1&#45;&gt;Node5</title>
<g id="a_edge4_Node000001_Node000005"><a xlink:title=" ">
<path fill="none" stroke="#63b8ff" d="M774.23,-285.7C681.87,-279.28 479.08,-263.56 309.5,-239 308.24,-238.82 306.97,-238.62 305.68,-238.42"/>
<polygon fill="#63b8ff" stroke="#63b8ff" points="306.18,-234.96 295.73,-236.73 305,-241.86 306.18,-234.96"/>
</a>
</g>
</g>
<!-- Node6 -->
<g id="Node000006" class="node">
<title>Node6</title>
<g id="a_Node000006"><a xlink:title=" ">
<polygon fill="#e0e0e0" stroke="#999999" points="382,-184 341,-184 341,-165 382,-165 382,-184"/>
<text text-anchor="middle" x="361.5" y="-172" font-family="Helvetica,sans-Serif" font-size="10.00">QList</text>
</a>
</g>
</g>
<!-- Node1&#45;&gt;Node6 -->
<g id="edge5_Node000001_Node000006" class="edge">
<title>Node1&#45;&gt;Node6</title>
<g id="a_edge5_Node000001_Node000006"><a xlink:title=" ">
<path fill="none" stroke="#63b8ff" d="M774.33,-286.44C664.52,-280.4 410.26,-263.87 380.5,-239 367.54,-228.17 363.2,-208.89 361.85,-194.4"/>
<polygon fill="#63b8ff" stroke="#63b8ff" points="365.32,-193.87 361.3,-184.07 358.33,-194.24 365.32,-193.87"/>
</a>
</g>
</g>
<!-- Node7 -->
<g id="Node000007" class="node">
<title>Node7</title>
<g id="a_Node000007"><a xlink:title=" ">
<polygon fill="#e0e0e0" stroke="#999999" points="1755.5,-239 1665.5,-239 1665.5,-220 1755.5,-220 1755.5,-239"/>
<text text-anchor="middle" x="1710.5" y="-227" font-family="Helvetica,sans-Serif" font-size="10.00">QTemporaryDir</text>
</a>
</g>
</g>
<!-- Node1&#45;&gt;Node7 -->
<g id="edge6_Node000001_Node000007" class="edge">
<title>Node1&#45;&gt;Node7</title>
<g id="a_edge6_Node000001_Node000007"><a xlink:title=" ">
<path fill="none" stroke="#63b8ff" d="M874.82,-287.66C1003.15,-283.89 1353.24,-271.32 1655.19,-239.03"/>
<polygon fill="#63b8ff" stroke="#63b8ff" points="1655.9,-242.47 1665.46,-237.92 1655.14,-235.51 1655.9,-242.47"/>
</a>
</g>
</g>
<!-- Node8 -->
<g id="Node000008" class="node">
<title>Node8</title>
<g id="a_Node000008"><a xlink:title=" ">
<polygon fill="#e0e0e0" stroke="#999999" points="1821,-239 1774,-239 1774,-220 1821,-220 1821,-239"/>
<text text-anchor="middle" x="1797.5" y="-227" font-family="Helvetica,sans-Serif" font-size="10.00">QtTest</text>
</a>
</g>
</g>
<!-- Node1&#45;&gt;Node8 -->
<g id="edge7_Node000001_Node000008" class="edge">
<title>Node1&#45;&gt;Node8</title>
<g id="a_edge7_Node000001_Node000008"><a xlink:title=" ">
<path fill="none" stroke="#63b8ff" d="M874.57,-287.65C1040.36,-282.98 1571.34,-266.37 1763.82,-238.7"/>
<polygon fill="#63b8ff" stroke="#63b8ff" points="1764.45,-242.14 1773.82,-237.2 1763.42,-235.22 1764.45,-242.14"/>
</a>
</g>
</g>
<!-- Node9 -->
<g id="Node000009" class="node">
<title>Node9</title>
<g id="a_Node000009"><a xlink:href="enums_8h.html" target="_top" xlink:title=" ">
<polygon fill="white" stroke="#666666" points="1386,-74 1283,-74 1283,-55 1386,-55 1386,-74"/>
<text text-anchor="middle" x="1334.5" y="-62" font-family="Helvetica,sans-Serif" font-size="10.00">../../../src/enums.h</text>
</a>
</g>
</g>
<!-- Node1&#45;&gt;Node9 -->
<g id="edge8_Node000001_Node000009" class="edge">
<title>Node1&#45;&gt;Node9</title>
<g id="a_edge8_Node000001_Node000009"><a xlink:title=" ">
<path fill="none" stroke="#63b8ff" d="M874.63,-288.67C1011.01,-286.61 1383.59,-272.79 1458.5,-184 1463.95,-177.55 1462.55,-172.41 1458.5,-165 1444.32,-139.03 1425.85,-147.17 1402.5,-129 1383.5,-114.21 1363.57,-95.12 1350.24,-81.74"/>
<polygon fill="#63b8ff" stroke="#63b8ff" points="1352.36,-78.92 1342.85,-74.25 1347.38,-83.83 1352.36,-78.92"/>
</a>
</g>
</g>
<!-- Node10 -->
<g id="Node000010" class="node">
<title>Node10</title>
<g id="a_Node000010"><a xlink:href="filecontent_8h.html" target="_top" xlink:title=" ">
<polygon fill="white" stroke="#666666" points="511.5,-239 389.5,-239 389.5,-220 511.5,-220 511.5,-239"/>
<text text-anchor="middle" x="450.5" y="-227" font-family="Helvetica,sans-Serif" font-size="10.00">../../../src/filecontent.h</text>
</a>
</g>
</g>
<!-- Node1&#45;&gt;Node10 -->
<g id="edge9_Node000001_Node000010" class="edge">
<title>Node1&#45;&gt;Node10</title>
<g id="a_edge9_Node000001_Node000010"><a xlink:title=" ">
<path fill="none" stroke="#63b8ff" d="M774.45,-281.17C707.53,-270.7 588.82,-252.14 515.19,-240.62"/>
<polygon fill="#63b8ff" stroke="#63b8ff" points="515.53,-237.13 505.11,-239.04 514.45,-244.05 515.53,-237.13"/>
</a>
</g>
</g>
<!-- Node13 -->
<g id="Node000013" class="node">
<title>Node13</title>
<g id="a_Node000013"><a xlink:href="imitatepass_8h.html" target="_top" xlink:title=" ">
<polygon fill="white" stroke="#666666" points="1449.5,-184 1321.5,-184 1321.5,-165 1449.5,-165 1449.5,-184"/>
<text text-anchor="middle" x="1385.5" y="-172" font-family="Helvetica,sans-Serif" font-size="10.00">../../../src/imitatepass.h</text>
</a>
</g>
</g>
<!-- Node1&#45;&gt;Node13 -->
<g id="edge13_Node000001_Node000013" class="edge">
<title>Node1&#45;&gt;Node13</title>
<g id="a_edge13_Node000001_Node000013"><a xlink:title=" ">
<path fill="none" stroke="#63b8ff" d="M874.78,-278.83C980.69,-257.4 1225.81,-207.81 1333.34,-186.05"/>
<polygon fill="#63b8ff" stroke="#63b8ff" points="1334.2,-189.45 1343.31,-184.04 1332.81,-182.59 1334.2,-189.45"/>
</a>
</g>
</g>
<!-- Node14 -->
<g id="Node000014" class="node">
<title>Node14</title>
<g id="a_Node000014"><a xlink:href="pass_8h.html" target="_top" xlink:title=" ">
<polygon fill="white" stroke="#666666" points="773.5,-129 725.5,-129 725.5,-110 773.5,-110 773.5,-129"/>
<text text-anchor="middle" x="749.5" y="-117" font-family="Helvetica,sans-Serif" font-size="10.00">pass.h</text>
</a>
</g>
</g>
<!-- Node1&#45;&gt;Node14 -->
<g id="edge32_Node000001_Node000014" class="edge">
<title>Node1&#45;&gt;Node14</title>
<g id="a_edge32_Node000001_Node000014"><a xlink:title=" ">
<path fill="none" stroke="#63b8ff" d="M807.79,-274.7C787.58,-256.17 754.62,-221.75 741.5,-184 736.43,-169.4 739.23,-151.93 742.84,-139.01"/>
<polygon fill="#63b8ff" stroke="#63b8ff" points="746.21,-139.98 745.92,-129.39 739.54,-137.85 746.21,-139.98"/>
</a>
</g>
</g>
<!-- Node19 -->
<g id="Node000019" class="node">
<title>Node19</title>
<g id="a_Node000019"><a xlink:href="userinfo_8h.html" target="_top" xlink:title=" ">
<polygon fill="white" stroke="#666666" points="382,-74 317,-74 317,-55 382,-55 382,-74"/>
<text text-anchor="middle" x="349.5" y="-62" font-family="Helvetica,sans-Serif" font-size="10.00">userinfo.h</text>
</a>
</g>
</g>
<!-- Node1&#45;&gt;Node19 -->
<g id="edge53_Node000001_Node000019" class="edge">
<title>Node1&#45;&gt;Node19</title>
<g id="a_edge53_Node000001_Node000019"><a xlink:title=" ">
<path fill="none" stroke="#63b8ff" d="M774.28,-289.06C669.42,-288.32 431.4,-281.82 364.5,-239 340.49,-223.63 339.11,-211.47 331.5,-184 321.87,-149.22 333.55,-107.17 342.08,-83.67"/>
<polygon fill="#63b8ff" stroke="#63b8ff" points="345.38,-84.86 345.7,-74.27 338.84,-82.35 345.38,-84.86"/>
</a>
</g>
</g>
<!-- Node23 -->
<g id="Node000023" class="node">
<title>Node23</title>
<g id="a_Node000023"><a xlink:href="simpletransaction_8h.html" target="_top" xlink:title=" ">
<polygon fill="white" stroke="#666666" points="1525,-129 1412,-129 1412,-110 1525,-110 1525,-129"/>
<text text-anchor="middle" x="1468.5" y="-117" font-family="Helvetica,sans-Serif" font-size="10.00">simpletransaction.h</text>
</a>
</g>
</g>
<!-- Node1&#45;&gt;Node23 -->
<g id="edge52_Node000001_Node000023" class="edge">
<title>Node1&#45;&gt;Node23</title>
<g id="a_edge52_Node000001_Node000023"><a xlink:title=" ">
<path fill="none" stroke="#63b8ff" d="M874.69,-289.07C1022.72,-288.76 1449.79,-283.96 1491.5,-239 1517.28,-211.21 1495.15,-163.53 1479.94,-137.94"/>
<polygon fill="#63b8ff" stroke="#63b8ff" points="1482.82,-135.94 1474.56,-129.3 1476.87,-139.64 1482.82,-135.94"/>
</a>
</g>
</g>
<!-- Node25 -->
<g id="Node000025" class="node">
<title>Node25</title>
<g id="a_Node000025"><a xlink:href="passwordconfiguration_8h.html" target="_top" xlink:title=" ">
<polygon fill="white" stroke="#666666" points="656.5,-184 476.5,-184 476.5,-165 656.5,-165 656.5,-184"/>
<text text-anchor="middle" x="566.5" y="-172" font-family="Helvetica,sans-Serif" font-size="10.00">../../../src/passwordconfiguration.h</text>
</a>
</g>
</g>
<!-- Node1&#45;&gt;Node25 -->
<g id="edge33_Node000001_Node000025" class="edge">
<title>Node1&#45;&gt;Node25</title>
<g id="a_edge33_Node000001_Node000025"><a xlink:title=" ">
<path fill="none" stroke="#63b8ff" d="M791.45,-274.89C768.21,-264.94 736.41,-251.26 708.5,-239 668.91,-221.62 623.29,-201.14 594.67,-188.23"/>
<polygon fill="#63b8ff" stroke="#63b8ff" points="595.85,-184.93 585.3,-184 592.97,-191.31 595.85,-184.93"/>
</a>
</g>
</g>
<!-- Node26 -->
<g id="Node000026" class="node">
<title>Node26</title>
<g id="a_Node000026"><a xlink:href="qprogressindicator_8h.html" target="_top" xlink:title=" ">
<polygon fill="white" stroke="#666666" points="2093.5,-239 1933.5,-239 1933.5,-220 2093.5,-220 2093.5,-239"/>
<text text-anchor="middle" x="2013.5" y="-227" font-family="Helvetica,sans-Serif" font-size="10.00">../../../src/qprogressindicator.h</text>
</a>
</g>
</g>
<!-- Node1&#45;&gt;Node26 -->
<g id="edge35_Node000001_Node000026" class="edge">
<title>Node1&#45;&gt;Node26</title>
<g id="a_edge35_Node000001_Node000026"><a xlink:title=" ">
<path fill="none" stroke="#63b8ff" d="M874.83,-286.52C1057.43,-277.54 1686.65,-246.58 1922.91,-234.96"/>
<polygon fill="#63b8ff" stroke="#63b8ff" points="1923.37,-238.44 1933.18,-234.45 1923.02,-231.45 1923.37,-238.44"/>
</a>
</g>
</g>
<!-- Node29 -->
<g id="Node000029" class="node">
<title>Node29</title>
<g id="a_Node000029"><a xlink:href="qtpasssettings_8h.html" target="_top" xlink:title=" ">
<polygon fill="white" stroke="#666666" points="1035,-239 894,-239 894,-220 1035,-220 1035,-239"/>
<text text-anchor="middle" x="964.5" y="-227" font-family="Helvetica,sans-Serif" font-size="10.00">../../../src/qtpasssettings.h</text>
</a>
</g>
</g>
<!-- Node1&#45;&gt;Node29 -->
<g id="edge38_Node000001_Node000029" class="edge">
<title>Node1&#45;&gt;Node29</title>
<g id="a_edge38_Node000001_Node000029"><a xlink:title=" ">
<path fill="none" stroke="#63b8ff" d="M858.03,-274.99C881.29,-265.27 911.99,-252.44 934.45,-243.06"/>
<polygon fill="#63b8ff" stroke="#63b8ff" points="935.95,-246.22 943.82,-239.14 933.25,-239.77 935.95,-246.22"/>
</a>
</g>
</g>
<!-- Node38 -->
<g id="Node000038" class="node">
<title>Node38</title>
<g id="a_Node000038"><a xlink:href="util_8h.html" target="_top" xlink:title=" ">
<polygon fill="white" stroke="#666666" points="1647.5,-239 1561.5,-239 1561.5,-220 1647.5,-220 1647.5,-239"/>
<text text-anchor="middle" x="1604.5" y="-227" font-family="Helvetica,sans-Serif" font-size="10.00">../../../src/util.h</text>
</a>
</g>
</g>
<!-- Node1&#45;&gt;Node38 -->
<g id="edge54_Node000001_Node000038" class="edge">
<title>Node1&#45;&gt;Node38</title>
<g id="a_edge54_Node000001_Node000038"><a xlink:title=" ">
<path fill="none" stroke="#63b8ff" d="M874.56,-286.17C990.09,-279.5 1284.21,-261.59 1529.5,-239 1536.51,-238.35 1543.87,-237.61 1551.14,-236.83"/>
<polygon fill="#63b8ff" stroke="#63b8ff" points="1551.74,-240.28 1561.3,-235.71 1550.98,-233.32 1551.74,-240.28"/>
</a>
</g>
</g>
<!-- Node44 -->
<g id="Node000044" class="node">
<title>Node44</title>
<g id="a_Node000044"><a xlink:title=" ">
<polygon fill="#e0e0e0" stroke="#999999" points="2185.5,-239 2111.5,-239 2111.5,-220 2185.5,-220 2185.5,-239"/>
<text text-anchor="middle" x="2148.5" y="-227" font-family="Helvetica,sans-Serif" font-size="10.00">tst_util.moc</text>
</a>
</g>
</g>
<!-- Node1&#45;&gt;Node44 -->
<g id="edge61_Node000001_Node000044" class="edge">
<title>Node1&#45;&gt;Node44</title>
<g id="a_edge61_Node000001_Node000044"><a xlink:title=" ">
<path fill="none" stroke="#63b8ff" d="M874.56,-288C1077.17,-283.82 1837.68,-266.68 2101.12,-238.94"/>
<polygon fill="#63b8ff" stroke="#63b8ff" points="2101.85,-242.39 2111.41,-237.83 2101.09,-235.43 2101.85,-242.39"/>
</a>
</g>
</g>
<!-- Node10&#45;&gt;Node6 -->
<g id="edge10_Node000010_Node000006" class="edge">
<title>Node10&#45;&gt;Node6</title>
<g id="a_edge10_Node000010_Node000006"><a xlink:title=" ">
<path fill="none" stroke="#63b8ff" d="M436.2,-219.98C422.4,-211.77 401.26,-199.18 384.99,-189.49"/>
<polygon fill="#63b8ff" stroke="#63b8ff" points="386.44,-186.28 376.06,-184.17 382.86,-192.29 386.44,-186.28"/>
</a>
</g>
</g>
<!-- Node11 -->
<g id="Node000011" class="node">
<title>Node11</title>
<g id="a_Node000011"><a xlink:title=" ">
<polygon fill="#e0e0e0" stroke="#999999" points="494,-19 441,-19 441,0 494,0 494,-19"/>
<text text-anchor="middle" x="467.5" y="-7" font-family="Helvetica,sans-Serif" font-size="10.00">QString</text>
</a>
</g>
</g>
<!-- Node10&#45;&gt;Node11 -->
<g id="edge11_Node000010_Node000011" class="edge">
<title>Node10&#45;&gt;Node11</title>
<g id="a_edge11_Node000010_Node000011"><a xlink:title=" ">
<path fill="none" stroke="#63b8ff" d="M451.17,-219.95C453.66,-187.95 462.5,-74.68 466.03,-29.4"/>
<polygon fill="#63b8ff" stroke="#63b8ff" points="469.53,-29.47 466.82,-19.22 462.55,-28.92 469.53,-29.47"/>
</a>
</g>
</g>
<!-- Node12 -->
<g id="Node000012" class="node">
<title>Node12</title>
<g id="a_Node000012"><a xlink:title=" ">
<polygon fill="#e0e0e0" stroke="#999999" points="584.5,-74 514.5,-74 514.5,-55 584.5,-55 584.5,-74"/>
<text text-anchor="middle" x="549.5" y="-62" font-family="Helvetica,sans-Serif" font-size="10.00">QStringList</text>
</a>
</g>
</g>
<!-- Node10&#45;&gt;Node12 -->
<g id="edge12_Node000010_Node000012" class="edge">
<title>Node10&#45;&gt;Node12</title>
<g id="a_edge12_Node000010_Node000012"><a xlink:title=" ">
<path fill="none" stroke="#63b8ff" d="M451.62,-219.86C453.51,-207.24 458.1,-183.26 467.5,-165 484.62,-131.74 514.34,-99.5 532.9,-81.12"/>
<polygon fill="#63b8ff" stroke="#63b8ff" points="535.37,-83.61 540.11,-74.13 530.5,-78.58 535.37,-83.61"/>
</a>
</g>
</g>
<!-- Node13&#45;&gt;Node14 -->
<g id="edge14_Node000013_Node000014" class="edge">
<title>Node13&#45;&gt;Node14</title>
<g id="a_edge14_Node000013_Node000014"><a xlink:title=" ">
<path fill="none" stroke="#63b8ff" d="M1321.31,-168.15C1188.04,-157.04 885.28,-131.82 783.56,-123.34"/>
<polygon fill="#63b8ff" stroke="#63b8ff" points="783.79,-119.85 773.53,-122.5 783.21,-126.82 783.79,-119.85"/>
</a>
</g>
</g>
<!-- Node13&#45;&gt;Node23 -->
<g id="edge29_Node000013_Node000023" class="edge">
<title>Node13&#45;&gt;Node23</title>
<g id="a_edge29_Node000013_Node000023"><a xlink:title=" ">
<path fill="none" stroke="#63b8ff" d="M1398.84,-164.98C1411.59,-156.84 1431.05,-144.41 1446.17,-134.76"/>
<polygon fill="#63b8ff" stroke="#63b8ff" points="1448.38,-137.5 1454.92,-129.17 1444.61,-131.6 1448.38,-137.5"/>
</a>
</g>
</g>
<!-- Node14&#45;&gt;Node9 -->
<g id="edge15_Node000014_Node000009" class="edge">
<title>Node14&#45;&gt;Node9</title>
<g id="a_edge15_Node000014_Node000009"><a xlink:title=" ">
<path fill="none" stroke="#63b8ff" d="M773.52,-116.32C858.3,-108.64 1145.24,-82.65 1272.65,-71.1"/>
<polygon fill="#63b8ff" stroke="#63b8ff" points="1273,-74.59 1282.65,-70.2 1272.37,-67.61 1273,-74.59"/>
</a>
</g>
</g>
<!-- Node14&#45;&gt;Node11 -->
<g id="edge25_Node000014_Node000011" class="edge">
<title>Node14&#45;&gt;Node11</title>
<g id="a_edge25_Node000014_Node000011"><a xlink:title=" ">
<path fill="none" stroke="#63b8ff" d="M725.25,-110.18C701.19,-101.73 663.4,-87.94 631.5,-74 614.2,-66.44 610.88,-62.38 593.5,-55 563.9,-42.43 529.42,-30.43 504.02,-22.06"/>
<polygon fill="#63b8ff" stroke="#63b8ff" points="505.01,-18.7 494.41,-18.93 502.84,-25.36 505.01,-18.7"/>
</a>
</g>
</g>
<!-- Node14&#45;&gt;Node12 -->
<g id="edge26_Node000014_Node000012" class="edge">
<title>Node14&#45;&gt;Node12</title>
<g id="a_edge26_Node000014_Node000012"><a xlink:title=" ">
<path fill="none" stroke="#63b8ff" d="M725.38,-112.11C692.24,-103.33 632.13,-87.4 591.52,-76.63"/>
<polygon fill="#63b8ff" stroke="#63b8ff" points="592.2,-73.2 581.64,-74.02 590.41,-79.96 592.2,-73.2"/>
</a>
</g>
</g>
<!-- Node15 -->
<g id="Node000015" class="node">
<title>Node15</title>
<g id="a_Node000015"><a xlink:href="executor_8h.html" target="_top" xlink:title=" ">
<polygon fill="white" stroke="#666666" points="872,-74 805,-74 805,-55 872,-55 872,-74"/>
<text text-anchor="middle" x="838.5" y="-62" font-family="Helvetica,sans-Serif" font-size="10.00">executor.h</text>
</a>
</g>
</g>
<!-- Node14&#45;&gt;Node15 -->
<g id="edge16_Node000014_Node000015" class="edge">
<title>Node14&#45;&gt;Node15</title>
<g id="a_edge16_Node000014_Node000015"><a xlink:title=" ">
<path fill="none" stroke="#63b8ff" d="M763.8,-109.98C777.6,-101.77 798.74,-89.18 815.01,-79.49"/>
<polygon fill="#63b8ff" stroke="#63b8ff" points="817.14,-82.29 823.94,-74.17 813.56,-76.28 817.14,-82.29"/>
</a>
</g>
</g>
<!-- Node17 -->
<g id="Node000017" class="node">
<title>Node17</title>
<g id="a_Node000017"><a xlink:title=" ">
<polygon fill="#e0e0e0" stroke="#999999" points="792.5,-19 730.5,-19 730.5,0 792.5,0 792.5,-19"/>
<text text-anchor="middle" x="761.5" y="-7" font-family="Helvetica,sans-Serif" font-size="10.00">QProcess</text>
</a>
</g>
</g>
<!-- Node14&#45;&gt;Node17 -->
<g id="edge23_Node000014_Node000017" class="edge">
<title>Node14&#45;&gt;Node17</title>
<g id="a_edge23_Node000014_Node000017"><a xlink:title=" ">
<path fill="none" stroke="#63b8ff" d="M751.39,-109.68C753.24,-100.73 755.99,-86.47 757.5,-74 759.31,-59.06 760.32,-42.03 760.88,-29.37"/>
<polygon fill="#63b8ff" stroke="#63b8ff" points="764.39,-29.28 761.27,-19.16 757.39,-29.02 764.39,-29.28"/>
</a>
</g>
</g>
<!-- Node18 -->
<g id="Node000018" class="node">
<title>Node18</title>
<g id="a_Node000018"><a xlink:title=" ">
<polygon fill="#e0e0e0" stroke="#999999" points="940.5,-19 884.5,-19 884.5,0 940.5,0 940.5,-19"/>
<text text-anchor="middle" x="912.5" y="-7" font-family="Helvetica,sans-Serif" font-size="10.00">QQueue</text>
</a>
</g>
</g>
<!-- Node14&#45;&gt;Node18 -->
<g id="edge24_Node000014_Node000018" class="edge">
<title>Node14&#45;&gt;Node18</title>
<g id="a_edge24_Node000014_Node000018"><a xlink:title=" ">
<path fill="none" stroke="#63b8ff" d="M773.74,-115.84C802.31,-111.56 849.78,-100.71 880.5,-74 894.16,-62.12 902.67,-43.02 907.45,-28.86"/>
<polygon fill="#63b8ff" stroke="#63b8ff" points="910.82,-29.79 910.4,-19.21 904.13,-27.75 910.82,-29.79"/>
</a>
</g>
</g>
<!-- Node14&#45;&gt;Node19 -->
<g id="edge20_Node000014_Node000019" class="edge">
<title>Node14&#45;&gt;Node19</title>
<g id="a_edge20_Node000014_Node000019"><a xlink:title=" ">
<path fill="none" stroke="#63b8ff" d="M725.38,-115.3C659.47,-106.57 475.68,-82.22 391.99,-71.13"/>
<polygon fill="#63b8ff" stroke="#63b8ff" points="392.43,-67.66 382.06,-69.81 391.51,-74.6 392.43,-67.66"/>
</a>
</g>
</g>
<!-- Node21 -->
<g id="Node000021" class="node">
<title>Node21</title>
<g id="a_Node000021"><a xlink:title=" ">
<polygon fill="#e0e0e0" stroke="#999999" points="748.5,-74 696.5,-74 696.5,-55 748.5,-55 748.5,-74"/>
<text text-anchor="middle" x="722.5" y="-62" font-family="Helvetica,sans-Serif" font-size="10.00">cassert</text>
</a>
</g>
</g>
<!-- Node14&#45;&gt;Node21 -->
<g id="edge27_Node000014_Node000021" class="edge">
<title>Node14&#45;&gt;Node21</title>
<g id="a_edge27_Node000014_Node000021"><a xlink:title=" ">
<path fill="none" stroke="#63b8ff" d="M745.04,-109.75C741.38,-102.57 736.09,-92.18 731.55,-83.27"/>
<polygon fill="#63b8ff" stroke="#63b8ff" points="734.53,-81.41 726.88,-74.09 728.3,-84.59 734.53,-81.41"/>
</a>
</g>
</g>
<!-- Node22 -->
<g id="Node000022" class="node">
<title>Node22</title>
<g id="a_Node000022"><a xlink:title=" ">
<polygon fill="#e0e0e0" stroke="#999999" points="678.5,-74 640.5,-74 640.5,-55 678.5,-55 678.5,-74"/>
<text text-anchor="middle" x="659.5" y="-62" font-family="Helvetica,sans-Serif" font-size="10.00">map</text>
</a>
</g>
</g>
<!-- Node14&#45;&gt;Node22 -->
<g id="edge28_Node000014_Node000022" class="edge">
<title>Node14&#45;&gt;Node22</title>
<g id="a_edge28_Node000014_Node000022"><a xlink:title=" ">
<path fill="none" stroke="#63b8ff" d="M735.04,-109.98C721.08,-101.77 699.71,-89.18 683.25,-79.49"/>
<polygon fill="#63b8ff" stroke="#63b8ff" points="684.62,-76.23 674.22,-74.17 681.06,-82.26 684.62,-76.23"/>
</a>
</g>
</g>
<!-- Node16 -->
<g id="Node000016" class="node">
<title>Node16</title>
<g id="a_Node000016"><a xlink:title=" ">
<polygon fill="#e0e0e0" stroke="#999999" points="866.5,-19 810.5,-19 810.5,0 866.5,0 866.5,-19"/>
<text text-anchor="middle" x="838.5" y="-7" font-family="Helvetica,sans-Serif" font-size="10.00">QObject</text>
</a>
</g>
</g>
<!-- Node15&#45;&gt;Node16 -->
<g id="edge17_Node000015_Node000016" class="edge">
<title>Node15&#45;&gt;Node16</title>
<g id="a_edge17_Node000015_Node000016"><a xlink:title=" ">
<path fill="none" stroke="#63b8ff" d="M838.5,-54.75C838.5,-47.8 838.5,-37.85 838.5,-29.13"/>
<polygon fill="#63b8ff" stroke="#63b8ff" points="842,-29.09 838.5,-19.09 835,-29.09 842,-29.09"/>
</a>
</g>
</g>
<!-- Node15&#45;&gt;Node17 -->
<g id="edge18_Node000015_Node000017" class="edge">
<title>Node15&#45;&gt;Node17</title>
<g id="a_edge18_Node000015_Node000017"><a xlink:title=" ">
<path fill="none" stroke="#63b8ff" d="M826.13,-54.98C814.41,-46.92 796.58,-34.65 782.61,-25.03"/>
<polygon fill="#63b8ff" stroke="#63b8ff" points="784.32,-21.96 774.1,-19.17 780.35,-27.72 784.32,-21.96"/>
</a>
</g>
</g>
<!-- Node15&#45;&gt;Node18 -->
<g id="edge19_Node000015_Node000018" class="edge">
<title>Node15&#45;&gt;Node18</title>
<g id="a_edge19_Node000015_Node000018"><a xlink:title=" ">
<path fill="none" stroke="#63b8ff" d="M850.39,-54.98C861.65,-46.92 878.79,-34.65 892.21,-25.03"/>
<polygon fill="#63b8ff" stroke="#63b8ff" points="894.3,-27.84 900.39,-19.17 890.23,-22.15 894.3,-27.84"/>
</a>
</g>
</g>
<!-- Node19&#45;&gt;Node11 -->
<g id="edge22_Node000019_Node000011" class="edge">
<title>Node19&#45;&gt;Node11</title>
<g id="a_edge22_Node000019_Node000011"><a xlink:title=" ">
<path fill="none" stroke="#63b8ff" d="M368.46,-54.98C387.53,-46.42 417.16,-33.11 439.05,-23.28"/>
<polygon fill="#63b8ff" stroke="#63b8ff" points="440.51,-26.46 448.2,-19.17 437.64,-20.07 440.51,-26.46"/>
</a>
</g>
</g>
<!-- Node20 -->
<g id="Node000020" class="node">
<title>Node20</title>
<g id="a_Node000020"><a xlink:title=" ">
<polygon fill="#e0e0e0" stroke="#999999" points="385.5,-19 313.5,-19 313.5,0 385.5,0 385.5,-19"/>
<text text-anchor="middle" x="349.5" y="-7" font-family="Helvetica,sans-Serif" font-size="10.00">QDateTime</text>
</a>
</g>
</g>
<!-- Node19&#45;&gt;Node20 -->
<g id="edge21_Node000019_Node000020" class="edge">
<title>Node19&#45;&gt;Node20</title>
<g id="a_edge21_Node000019_Node000020"><a xlink:title=" ">
<path fill="none" stroke="#63b8ff" d="M349.5,-54.75C349.5,-47.8 349.5,-37.85 349.5,-29.13"/>
<polygon fill="#63b8ff" stroke="#63b8ff" points="353,-29.09 349.5,-19.09 346,-29.09 353,-29.09"/>
</a>
</g>
</g>
<!-- Node23&#45;&gt;Node9 -->
<g id="edge30_Node000023_Node000009" class="edge">
<title>Node23&#45;&gt;Node9</title>
<g id="a_edge30_Node000023_Node000009"><a xlink:title=" ">
<path fill="none" stroke="#63b8ff" d="M1446.97,-109.98C1425.03,-101.3 1390.76,-87.75 1365.81,-77.88"/>
<polygon fill="#63b8ff" stroke="#63b8ff" points="1367.01,-74.59 1356.42,-74.17 1364.43,-81.1 1367.01,-74.59"/>
</a>
</g>
</g>
<!-- Node24 -->
<g id="Node000024" class="node">
<title>Node24</title>
<g id="a_Node000024"><a xlink:title=" ">
<polygon fill="#e0e0e0" stroke="#999999" points="1492,-74 1445,-74 1445,-55 1492,-55 1492,-74"/>
<text text-anchor="middle" x="1468.5" y="-62" font-family="Helvetica,sans-Serif" font-size="10.00">queue</text>
</a>
</g>
</g>
<!-- Node23&#45;&gt;Node24 -->
<g id="edge31_Node000023_Node000024" class="edge">
<title>Node23&#45;&gt;Node24</title>
<g id="a_edge31_Node000023_Node000024"><a xlink:title=" ">
<path fill="none" stroke="#63b8ff" d="M1468.5,-109.75C1468.5,-102.8 1468.5,-92.85 1468.5,-84.13"/>
<polygon fill="#63b8ff" stroke="#63b8ff" points="1472,-84.09 1468.5,-74.09 1465,-84.09 1472,-84.09"/>
</a>
</g>
</g>
<!-- Node25&#45;&gt;Node11 -->
<g id="edge34_Node000025_Node000011" class="edge">
<title>Node25&#45;&gt;Node11</title>
<g id="a_edge34_Node000025_Node000011"><a xlink:title=" ">
<path fill="none" stroke="#63b8ff" d="M557.46,-164.76C541.04,-148.42 506.2,-111.47 486.5,-74 479.05,-59.82 474.08,-42.28 471.1,-29.23"/>
<polygon fill="#63b8ff" stroke="#63b8ff" points="474.46,-28.19 468.98,-19.12 467.61,-29.62 474.46,-28.19"/>
</a>
</g>
</g>
<!-- Node27 -->
<g id="Node000027" class="node">
<title>Node27</title>
<g id="a_Node000027"><a xlink:title=" ">
<polygon fill="#e0e0e0" stroke="#999999" points="2133.5,-184 2083.5,-184 2083.5,-165 2133.5,-165 2133.5,-184"/>
<text text-anchor="middle" x="2108.5" y="-172" font-family="Helvetica,sans-Serif" font-size="10.00">QColor</text>
</a>
</g>
</g>
<!-- Node26&#45;&gt;Node27 -->
<g id="edge36_Node000026_Node000027" class="edge">
<title>Node26&#45;&gt;Node27</title>
<g id="a_edge36_Node000026_Node000027"><a xlink:title=" ">
<path fill="none" stroke="#63b8ff" d="M2028.76,-219.98C2043.63,-211.69 2066.48,-198.94 2083.92,-189.22"/>
<polygon fill="#63b8ff" stroke="#63b8ff" points="2085.93,-192.1 2092.96,-184.17 2082.52,-185.99 2085.93,-192.1"/>
</a>
</g>
</g>
<!-- Node28 -->
<g id="Node000028" class="node">
<title>Node28</title>
<g id="a_Node000028"><a xlink:title=" ">
<polygon fill="#e0e0e0" stroke="#999999" points="2211,-184 2152,-184 2152,-165 2211,-165 2211,-184"/>
<text text-anchor="middle" x="2181.5" y="-172" font-family="Helvetica,sans-Serif" font-size="10.00">QWidget</text>
</a>
</g>
</g>
<!-- Node26&#45;&gt;Node28 -->
<g id="edge37_Node000026_Node000028" class="edge">
<title>Node26&#45;&gt;Node28</title>
<g id="a_edge37_Node000026_Node000028"><a xlink:title=" ">
<path fill="none" stroke="#63b8ff" d="M2040.49,-219.98C2068.7,-211.09 2113.14,-197.07 2144.58,-187.15"/>
<polygon fill="#63b8ff" stroke="#63b8ff" points="2145.81,-190.43 2154.3,-184.08 2143.71,-183.75 2145.81,-190.43"/>
</a>
</g>
</g>
<!-- Node29&#45;&gt;Node9 -->
<g id="edge39_Node000029_Node000009" class="edge">
<title>Node29&#45;&gt;Node9</title>
<g id="a_edge39_Node000029_Node000009"><a xlink:title=" ">
<path fill="none" stroke="#63b8ff" d="M1035.23,-221.75C1120.4,-213.1 1254.44,-197.59 1273.5,-184 1307.46,-159.79 1323.84,-110.93 1330.56,-84.13"/>
<polygon fill="#63b8ff" stroke="#63b8ff" points="1334.03,-84.66 1332.87,-74.13 1327.21,-83.08 1334.03,-84.66"/>
</a>
</g>
</g>
<!-- Node29&#45;&gt;Node13 -->
<g id="edge40_Node000029_Node000013" class="edge">
<title>Node29&#45;&gt;Node13</title>
<g id="a_edge40_Node000029_Node000013"><a xlink:title=" ">
<path fill="none" stroke="#63b8ff" d="M1032.14,-219.98C1108.44,-210.38 1232.15,-194.8 1311.12,-184.86"/>
<polygon fill="#63b8ff" stroke="#63b8ff" points="1311.99,-188.28 1321.48,-183.56 1311.12,-181.34 1311.99,-188.28"/>
</a>
</g>
</g>
<!-- Node29&#45;&gt;Node25 -->
<g id="edge41_Node000029_Node000025" class="edge">
<title>Node29&#45;&gt;Node25</title>
<g id="a_edge41_Node000029_Node000025"><a xlink:title=" ">
<path fill="none" stroke="#63b8ff" d="M900.55,-219.98C829.72,-210.55 715.67,-195.36 640.9,-185.41"/>
<polygon fill="#63b8ff" stroke="#63b8ff" points="640.99,-181.89 630.62,-184.04 640.07,-188.83 640.99,-181.89"/>
</a>
</g>
</g>
<!-- Node30 -->
<g id="Node000030" class="node">
<title>Node30</title>
<g id="a_Node000030"><a xlink:href="realpass_8h.html" target="_top" xlink:title=" ">
<polygon fill="white" stroke="#666666" points="818,-184 751,-184 751,-165 818,-165 818,-184"/>
<text text-anchor="middle" x="784.5" y="-172" font-family="Helvetica,sans-Serif" font-size="10.00">realpass.h</text>
</a>
</g>
</g>
<!-- Node29&#45;&gt;Node30 -->
<g id="edge42_Node000029_Node000030" class="edge">
<title>Node29&#45;&gt;Node30</title>
<g id="a_edge42_Node000029_Node000030"><a xlink:title=" ">
<path fill="none" stroke="#63b8ff" d="M935.58,-219.98C905.23,-211.05 857.33,-196.94 823.62,-187.02"/>
<polygon fill="#63b8ff" stroke="#63b8ff" points="824.23,-183.55 813.65,-184.08 822.25,-190.26 824.23,-183.55"/>
</a>
</g>
</g>
<!-- Node31 -->
<g id="Node000031" class="node">
<title>Node31</title>
<g id="a_Node000031"><a xlink:href="settingsconstants_8h.html" target="_top" xlink:title=" ">
<polygon fill="white" stroke="#666666" points="653.5,-129 541.5,-129 541.5,-110 653.5,-110 653.5,-129"/>
<text text-anchor="middle" x="597.5" y="-117" font-family="Helvetica,sans-Serif" font-size="10.00">settingsconstants.h</text>
</a>
</g>
</g>
<!-- Node29&#45;&gt;Node31 -->
<g id="edge44_Node000029_Node000031" class="edge">
<title>Node29&#45;&gt;Node31</title>
<g id="a_edge44_Node000029_Node000031"><a xlink:title=" ">
<path fill="none" stroke="#63b8ff" d="M903.02,-219.94C857.72,-212.74 794.95,-200.9 741.5,-184 698.62,-170.45 651.35,-148.07 623.06,-133.82"/>
<polygon fill="#63b8ff" stroke="#63b8ff" points="624.39,-130.57 613.89,-129.15 621.21,-136.81 624.39,-130.57"/>
</a>
</g>
</g>
<!-- Node32 -->
<g id="Node000032" class="node">
<title>Node32</title>
<g id="a_Node000032"><a xlink:title=" ">
<polygon fill="#e0e0e0" stroke="#999999" points="1265,-184 1192,-184 1192,-165 1265,-165 1265,-184"/>
<text text-anchor="middle" x="1228.5" y="-172" font-family="Helvetica,sans-Serif" font-size="10.00">QByteArray</text>
</a>
</g>
</g>
<!-- Node29&#45;&gt;Node32 -->
<g id="edge46_Node000029_Node000032" class="edge">
<title>Node29&#45;&gt;Node32</title>
<g id="a_edge46_Node000029_Node000032"><a xlink:title=" ">
<path fill="none" stroke="#63b8ff" d="M1006.92,-219.98C1054.78,-210.38 1132.39,-194.79 1181.91,-184.85"/>
<polygon fill="#63b8ff" stroke="#63b8ff" points="1182.61,-188.28 1191.72,-182.88 1181.23,-181.42 1182.61,-188.28"/>
</a>
</g>
</g>
<!-- Node33 -->
<g id="Node000033" class="node">
<title>Node33</title>
<g id="a_Node000033"><a xlink:title=" ">
<polygon fill="#e0e0e0" stroke="#999999" points="885,-184 836,-184 836,-165 885,-165 885,-184"/>
<text text-anchor="middle" x="860.5" y="-172" font-family="Helvetica,sans-Serif" font-size="10.00">QHash</text>
</a>
</g>
</g>
<!-- Node29&#45;&gt;Node33 -->
<g id="edge47_Node000029_Node000033" class="edge">
<title>Node29&#45;&gt;Node33</title>
<g id="a_edge47_Node000029_Node000033"><a xlink:title=" ">
<path fill="none" stroke="#63b8ff" d="M947.79,-219.98C931.29,-211.57 905.8,-198.59 886.62,-188.81"/>
<polygon fill="#63b8ff" stroke="#63b8ff" points="888.01,-185.59 877.51,-184.17 884.83,-191.83 888.01,-185.59"/>
</a>
</g>
</g>
<!-- Node34 -->
<g id="Node000034" class="node">
<title>Node34</title>
<g id="a_Node000034"><a xlink:title=" ">
<polygon fill="#e0e0e0" stroke="#999999" points="952,-184 903,-184 903,-165 952,-165 952,-184"/>
<text text-anchor="middle" x="927.5" y="-172" font-family="Helvetica,sans-Serif" font-size="10.00">QPoint</text>
</a>
</g>
</g>
<!-- Node29&#45;&gt;Node34 -->
<g id="edge48_Node000029_Node000034" class="edge">
<title>Node29&#45;&gt;Node34</title>
<g id="a_edge48_Node000029_Node000034"><a xlink:title=" ">
<path fill="none" stroke="#63b8ff" d="M958.39,-219.75C953.22,-212.34 945.65,-201.5 939.31,-192.41"/>
<polygon fill="#63b8ff" stroke="#63b8ff" points="942.09,-190.29 933.5,-184.09 936.35,-194.29 942.09,-190.29"/>
</a>
</g>
</g>
<!-- Node35 -->
<g id="Node000035" class="node">
<title>Node35</title>
<g id="a_Node000035"><a xlink:title=" ">
<polygon fill="#e0e0e0" stroke="#999999" points="1034.5,-184 970.5,-184 970.5,-165 1034.5,-165 1034.5,-184"/>
<text text-anchor="middle" x="1002.5" y="-172" font-family="Helvetica,sans-Serif" font-size="10.00">QSettings</text>
</a>
</g>
</g>
<!-- Node29&#45;&gt;Node35 -->
<g id="edge49_Node000029_Node000035" class="edge">
<title>Node29&#45;&gt;Node35</title>
<g id="a_edge49_Node000029_Node000035"><a xlink:title=" ">
<path fill="none" stroke="#63b8ff" d="M970.77,-219.75C976.09,-212.34 983.86,-201.5 990.38,-192.41"/>
<polygon fill="#63b8ff" stroke="#63b8ff" points="993.36,-194.26 996.34,-184.09 987.67,-190.18 993.36,-194.26"/>
</a>
</g>
</g>
<!-- Node36 -->
<g id="Node000036" class="node">
<title>Node36</title>
<g id="a_Node000036"><a xlink:title=" ">
<polygon fill="#e0e0e0" stroke="#999999" points="1096.5,-184 1052.5,-184 1052.5,-165 1096.5,-165 1096.5,-184"/>
<text text-anchor="middle" x="1074.5" y="-172" font-family="Helvetica,sans-Serif" font-size="10.00">QSize</text>
</a>
</g>
</g>
<!-- Node29&#45;&gt;Node36 -->
<g id="edge50_Node000029_Node000036" class="edge">
<title>Node29&#45;&gt;Node36</title>
<g id="a_edge50_Node000029_Node000036"><a xlink:title=" ">
<path fill="none" stroke="#63b8ff" d="M982.17,-219.98C999.79,-211.5 1027.08,-198.35 1047.43,-188.54"/>
<polygon fill="#63b8ff" stroke="#63b8ff" points="1049.02,-191.66 1056.51,-184.17 1045.98,-185.36 1049.02,-191.66"/>
</a>
</g>
</g>
<!-- Node37 -->
<g id="Node000037" class="node">
<title>Node37</title>
<g id="a_Node000037"><a xlink:title=" ">
<polygon fill="#e0e0e0" stroke="#999999" points="1174,-184 1115,-184 1115,-165 1174,-165 1174,-184"/>
<text text-anchor="middle" x="1144.5" y="-172" font-family="Helvetica,sans-Serif" font-size="10.00">QVariant</text>
</a>
</g>
</g>
<!-- Node29&#45;&gt;Node37 -->
<g id="edge51_Node000029_Node000037" class="edge">
<title>Node29&#45;&gt;Node37</title>
<g id="a_edge51_Node000029_Node000037"><a xlink:title=" ">
<path fill="none" stroke="#63b8ff" d="M993.42,-219.98C1023.77,-211.05 1071.67,-196.94 1105.38,-187.02"/>
<polygon fill="#63b8ff" stroke="#63b8ff" points="1106.75,-190.26 1115.35,-184.08 1104.77,-183.55 1106.75,-190.26"/>
</a>
</g>
</g>
<!-- Node30&#45;&gt;Node14 -->
<g id="edge43_Node000030_Node000014" class="edge">
<title>Node30&#45;&gt;Node14</title>
<g id="a_edge43_Node000030_Node000014"><a xlink:title=" ">
<path fill="none" stroke="#63b8ff" d="M778.72,-164.75C773.88,-157.42 766.82,-146.73 760.86,-137.7"/>
<polygon fill="#63b8ff" stroke="#63b8ff" points="763.6,-135.5 755.17,-129.09 757.76,-139.36 763.6,-135.5"/>
</a>
</g>
</g>
<!-- Node31&#45;&gt;Node11 -->
<g id="edge45_Node000031_Node000011" class="edge">
<title>Node31&#45;&gt;Node11</title>
<g id="a_edge45_Node000031_Node000011"><a xlink:title=" ">
<path fill="none" stroke="#63b8ff" d="M569.66,-109.85C549.99,-102.67 523.96,-90.89 505.5,-74 491.75,-61.42 481.39,-42.71 474.98,-28.86"/>
<polygon fill="#63b8ff" stroke="#63b8ff" points="478.06,-27.17 470.87,-19.39 471.64,-29.96 478.06,-27.17"/>
</a>
</g>
</g>
<!-- Node38&#45;&gt;Node11 -->
<g id="edge60_Node000038_Node000011" class="edge">
<title>Node38&#45;&gt;Node11</title>
<g id="a_edge60_Node000038_Node000011"><a xlink:title=" ">
<path fill="none" stroke="#63b8ff" d="M1597.76,-219.88C1591.01,-211.09 1580.51,-196.95 1572.5,-184 1537.94,-128.17 1556.93,-88.57 1500.5,-55 1489.56,-48.49 686.82,-18.57 504.19,-11.85"/>
<polygon fill="#63b8ff" stroke="#63b8ff" points="504.15,-8.34 494.03,-11.47 503.89,-15.34 504.15,-8.34"/>
</a>
</g>
</g>
<!-- Node39 -->
<g id="Node000039" class="node">
<title>Node39</title>
<g id="a_Node000039"><a xlink:href="storemodel_8h.html" target="_top" xlink:title=" ">
<polygon fill="white" stroke="#666666" points="1663,-184 1582,-184 1582,-165 1663,-165 1663,-184"/>
<text text-anchor="middle" x="1622.5" y="-172" font-family="Helvetica,sans-Serif" font-size="10.00">storemodel.h</text>
</a>
</g>
</g>
<!-- Node38&#45;&gt;Node39 -->
<g id="edge55_Node000038_Node000039" class="edge">
<title>Node38&#45;&gt;Node39</title>
<g id="a_edge55_Node000038_Node000039"><a xlink:title=" ">
<path fill="none" stroke="#63b8ff" d="M1607.47,-219.75C1609.86,-212.72 1613.29,-202.62 1616.27,-193.84"/>
<polygon fill="#63b8ff" stroke="#63b8ff" points="1619.68,-194.68 1619.58,-184.09 1613.05,-192.43 1619.68,-194.68"/>
</a>
</g>
</g>
<!-- Node41 -->
<g id="Node000041" class="node">
<title>Node41</title>
<g id="a_Node000041"><a xlink:title=" ">
<polygon fill="#e0e0e0" stroke="#999999" points="1789.5,-184 1681.5,-184 1681.5,-165 1789.5,-165 1789.5,-184"/>
<text text-anchor="middle" x="1735.5" y="-172" font-family="Helvetica,sans-Serif" font-size="10.00">QFileSystemModel</text>
</a>
</g>
</g>
<!-- Node38&#45;&gt;Node41 -->
<g id="edge57_Node000038_Node000041" class="edge">
<title>Node38&#45;&gt;Node41</title>
<g id="a_edge57_Node000038_Node000041"><a xlink:title=" ">
<path fill="none" stroke="#63b8ff" d="M1625.55,-219.98C1646.91,-211.34 1680.2,-197.87 1704.56,-188.02"/>
<polygon fill="#63b8ff" stroke="#63b8ff" points="1706.11,-191.17 1714.07,-184.17 1703.49,-184.68 1706.11,-191.17"/>
</a>
</g>
</g>
<!-- Node42 -->
<g id="Node000042" class="node">
<title>Node42</title>
<g id="a_Node000042"><a xlink:title=" ">
<polygon fill="#e0e0e0" stroke="#999999" points="1931.5,-184 1807.5,-184 1807.5,-165 1931.5,-165 1931.5,-184"/>
<text text-anchor="middle" x="1869.5" y="-172" font-family="Helvetica,sans-Serif" font-size="10.00">QProcessEnvironment</text>
</a>
</g>
</g>
<!-- Node38&#45;&gt;Node42 -->
<g id="edge58_Node000038_Node000042" class="edge">
<title>Node38&#45;&gt;Node42</title>
<g id="a_edge58_Node000038_Node000042"><a xlink:title=" ">
<path fill="none" stroke="#63b8ff" d="M1647.08,-219.98C1693.2,-210.76 1766.86,-196.03 1816.66,-186.07"/>
<polygon fill="#63b8ff" stroke="#63b8ff" points="1817.47,-189.48 1826.59,-184.08 1816.1,-182.61 1817.47,-189.48"/>
</a>
</g>
</g>
<!-- Node43 -->
<g id="Node000043" class="node">
<title>Node43</title>
<g id="a_Node000043"><a xlink:title=" ">
<polygon fill="#e0e0e0" stroke="#999999" points="2065,-184 1950,-184 1950,-165 2065,-165 2065,-184"/>
<text text-anchor="middle" x="2007.5" y="-172" font-family="Helvetica,sans-Serif" font-size="10.00">QRegularExpression</text>
</a>
</g>
</g>
<!-- Node38&#45;&gt;Node43 -->
<g id="edge59_Node000038_Node000043" class="edge">
<title>Node38&#45;&gt;Node43</title>
<g id="a_edge59_Node000038_Node000043"><a xlink:title=" ">
<path fill="none" stroke="#63b8ff" d="M1647.61,-221.33C1650.62,-220.87 1653.6,-220.42 1656.5,-220 1779.22,-202.2 1812.6,-200.1 1939.63,-184.11"/>
<polygon fill="#63b8ff" stroke="#63b8ff" points="1940.27,-187.55 1949.76,-182.83 1939.4,-180.61 1940.27,-187.55"/>
</a>
</g>
</g>
<!-- Node40 -->
<g id="Node000040" class="node">
<title>Node40</title>
<g id="a_Node000040"><a xlink:title=" ">
<polygon fill="#e0e0e0" stroke="#999999" points="1707.5,-129 1581.5,-129 1581.5,-110 1707.5,-110 1707.5,-129"/>
<text text-anchor="middle" x="1644.5" y="-117" font-family="Helvetica,sans-Serif" font-size="10.00">QSortFilterProxyModel</text>
</a>
</g>
</g>
<!-- Node39&#45;&gt;Node40 -->
<g id="edge56_Node000039_Node000040" class="edge">
<title>Node39&#45;&gt;Node40</title>
<g id="a_edge56_Node000039_Node000040"><a xlink:title=" ">
<path fill="none" stroke="#63b8ff" d="M1626.13,-164.75C1629.08,-157.65 1633.33,-147.4 1637.01,-138.56"/>
<polygon fill="#63b8ff" stroke="#63b8ff" points="1640.33,-139.67 1640.93,-129.09 1633.87,-136.98 1640.33,-139.67"/>
</a>
</g>
</g>
</g>
</svg>

<g id="navigator" transform="translate(0 0)" fill="#404254">
  <rect fill="#f2f5e9" fill-opacity="0.5" stroke="#606060" stroke-width=".5" x="0" y="0" width="60" height="60"/>
  <use id="zoomplus" xlink:href="#zoomPlus" x="17" y="9" onmousedown="handleZoom(evt,'in')"/>
  <use id="zoomminus" xlink:href="#zoomMin" x="42" y="9" onmousedown="handleZoom(evt,'out')"/>
  <use id="reset" xlink:href="#resetDef" x="30" y="36" onmousedown="handleReset()"/>
   <use id="arrowup" xlink:href="#arrowUp" x="0" y="0" onmousedown="handlePan(0,-1)"/>
  <use id="arrowright" xlink:href="#arrowRight" x="0" y="0" onmousedown="handlePan(1,0)"/>
  <use id="arrowdown" xlink:href="#arrowDown" x="0" y="0" onmousedown="handlePan(0,1)"/>
  <use id="arrowleft" xlink:href="#arrowLeft" x="0" y="0" onmousedown="handlePan(-1,0)"/>
</g>
<svg viewBox="0 0 15 15" width="100%" height="30px" preserveAspectRatio="xMaxYMin meet">
 <g id="arrow_out" transform="scale(0.3 0.3)">
  <a xlink:href="tst__util_8cpp__incl_org.svg" target="_base">
   <rect id="button" ry="5" rx="5" y="6" x="6" height="38" width="38"
        fill="#f2f5e9" fill-opacity="0.5" stroke="#606060" stroke-width="1.0"/>
   <path id="arrow"
     d="M 11.500037,31.436501 C 11.940474,20.09759 22.043105,11.32322 32.158766,21.979434 L 37.068811,17.246167 C 37.068811,17.246167 37.088388,32 37.088388,32 L 22.160133,31.978069 C 22.160133,31.978069 26.997745,27.140456 26.997745,27.140456 C 18.528582,18.264221 13.291696,25.230495 11.500037,31.436501 z"
     style="fill:#404040;"/>
  </a>
 </g>
</svg>

<style type='text/css'>
<![CDATA[
[data-mouse-over-selected='false'] { opacity: 0.7; }
[data-mouse-over-selected='true']  { opacity: 1.0; }
]]>
</style>
<script type="application/ecmascript"><![CDATA[
document.addEventListener('DOMContentLoaded', (event) => {
  highlightEdges();
  highlightAdjacentNodes();
});
]]></script>
</svg>
