<?xml version="1.0" encoding="UTF-8" standalone="no"?>
<!DOCTYPE svg PUBLIC "-//W3C//DTD SVG 1.1//EN"
 "http://www.w3.org/Graphics/SVG/1.1/DTD/svg11.dtd">
<!-- Generated by graphviz version 2.43.0 (0)
 -->
<!-- Title: tests/auto/util/tst_util.cpp Pages: 1 -->
<svg width="1314pt" height="203pt"
 viewBox="0.00 0.00 1313.50 203.00" xmlns="http://www.w3.org/2000/svg" xmlns:xlink="http://www.w3.org/1999/xlink">
<g id="graph0" class="graph" transform="scale(1 1) rotate(0) translate(4 199)">
<title>tests/auto/util/tst_util.cpp</title>
<!-- Node1 -->
<g id="Node000001" class="node">
<title>Node1</title>
<g id="a_Node000001"><a xlink:title=" ">
<polygon fill="#999999" stroke="#666666" points="716.5,-195 616.5,-195 616.5,-165 716.5,-165 716.5,-195"/>
<text text-anchor="start" x="624.5" y="-183" font-family="Helvetica,sans-Serif" font-size="10.00">tests/auto/util/tst</text>
<text text-anchor="middle" x="666.5" y="-172" font-family="Helvetica,sans-Serif" font-size="10.00">_util.cpp</text>
</a>
</g>
</g>
<!-- Node2 -->
<g id="Node000002" class="node">
<title>Node2</title>
<g id="a_Node000002"><a xlink:title=" ">
<polygon fill="#e0e0e0" stroke="#999999" points="101,-129 0,-129 0,-110 101,-110 101,-129"/>
<text text-anchor="middle" x="50.5" y="-117" font-family="Helvetica,sans-Serif" font-size="10.00">QCoreApplication</text>
</a>
</g>
</g>
<!-- Node1&#45;&gt;Node2 -->
<g id="edge1_Node000001_Node000002" class="edge">
<title>Node1&#45;&gt;Node2</title>
<g id="a_edge1_Node000001_Node000002"><a xlink:title=" ">
<path fill="none" stroke="#63b8ff" d="M616.19,-175.34C520.21,-168.17 304.1,-151.13 111.25,-129.03"/>
<polygon fill="#63b8ff" stroke="#63b8ff" points="111.55,-125.54 101.22,-127.87 110.75,-132.49 111.55,-125.54"/>
</a>
</g>
</g>
<!-- Node3 -->
<g id="Node000003" class="node">
<title>Node3</title>
<g id="a_Node000003"><a xlink:title=" ">
<polygon fill="#e0e0e0" stroke="#999999" points="157.5,-129 119.5,-129 119.5,-110 157.5,-110 157.5,-129"/>
<text text-anchor="middle" x="138.5" y="-117" font-family="Helvetica,sans-Serif" font-size="10.00">QDir</text>
</a>
</g>
</g>
<!-- Node1&#45;&gt;Node3 -->
<g id="edge2_Node000001_Node000003" class="edge">
<title>Node1&#45;&gt;Node3</title>
<g id="a_edge2_Node000001_Node000003"><a xlink:title=" ">
<path fill="none" stroke="#63b8ff" d="M616.35,-177.22C527.46,-173.36 336.49,-161.92 167.47,-128.81"/>
<polygon fill="#63b8ff" stroke="#63b8ff" points="168.14,-125.37 157.65,-126.85 166.78,-132.24 168.14,-125.37"/>
</a>
</g>
</g>
<!-- Node4 -->
<g id="Node000004" class="node">
<title>Node4</title>
<g id="a_Node000004"><a xlink:title=" ">
<polygon fill="#e0e0e0" stroke="#999999" points="217,-129 176,-129 176,-110 217,-110 217,-129"/>
<text text-anchor="middle" x="196.5" y="-117" font-family="Helvetica,sans-Serif" font-size="10.00">QFile</text>
</a>
</g>
</g>
<!-- Node1&#45;&gt;Node4 -->
<g id="edge3_Node000001_Node000004" class="edge">
<title>Node1&#45;&gt;Node4</title>
<g id="a_edge3_Node000001_Node000004"><a xlink:title=" ">
<path fill="none" stroke="#63b8ff" d="M616.3,-175.26C535.02,-168.76 369.77,-153.64 231.5,-129 230.04,-128.74 228.55,-128.45 227.04,-128.15"/>
<polygon fill="#63b8ff" stroke="#63b8ff" points="227.66,-124.7 217.14,-125.96 226.15,-131.54 227.66,-124.7"/>
</a>
</g>
</g>
<!-- Node5 -->
<g id="Node000005" class="node">
<title>Node5</title>
<g id="a_Node000005"><a xlink:title=" ">
<polygon fill="#e0e0e0" stroke="#999999" points="274,-74 233,-74 233,-55 274,-55 274,-74"/>
<text text-anchor="middle" x="253.5" y="-62" font-family="Helvetica,sans-Serif" font-size="10.00">QList</text>
</a>
</g>
</g>
<!-- Node1&#45;&gt;Node5 -->
<g id="edge4_Node000001_Node000005" class="edge">
<title>Node1&#45;&gt;Node5</title>
<g id="a_edge4_Node000001_Node000005"><a xlink:title=" ">
<path fill="none" stroke="#63b8ff" d="M616.25,-179.9C519.81,-180.53 313.94,-176.13 264.5,-129 252.74,-117.79 250.78,-98.87 251.29,-84.59"/>
<polygon fill="#63b8ff" stroke="#63b8ff" points="254.8,-84.61 252.08,-74.37 247.82,-84.07 254.8,-84.61"/>
</a>
</g>
</g>
<!-- Node6 -->
<g id="Node000006" class="node">
<title>Node6</title>
<g id="a_Node000006"><a xlink:title=" ">
<polygon fill="#e0e0e0" stroke="#999999" points="933.5,-129 843.5,-129 843.5,-110 933.5,-110 933.5,-129"/>
<text text-anchor="middle" x="888.5" y="-117" font-family="Helvetica,sans-Serif" font-size="10.00">QTemporaryDir</text>
</a>
</g>
</g>
<!-- Node1&#45;&gt;Node6 -->
<g id="edge5_Node000001_Node000006" class="edge">
<title>Node1&#45;&gt;Node6</title>
<g id="a_edge5_Node000001_Node000006"><a xlink:title=" ">
<path fill="none" stroke="#63b8ff" d="M716.6,-165.8C755.64,-155.51 809.24,-141.39 846.16,-131.66"/>
<polygon fill="#63b8ff" stroke="#63b8ff" points="847.33,-134.97 856.1,-129.04 845.54,-128.2 847.33,-134.97"/>
</a>
</g>
</g>
<!-- Node7 -->
<g id="Node000007" class="node">
<title>Node7</title>
<g id="a_Node000007"><a xlink:title=" ">
<polygon fill="#e0e0e0" stroke="#999999" points="999,-129 952,-129 952,-110 999,-110 999,-129"/>
<text text-anchor="middle" x="975.5" y="-117" font-family="Helvetica,sans-Serif" font-size="10.00">QtTest</text>
</a>
</g>
</g>
<!-- Node1&#45;&gt;Node7 -->
<g id="edge6_Node000001_Node000007" class="edge">
<title>Node1&#45;&gt;Node7</title>
<g id="a_edge6_Node000001_Node000007"><a xlink:title=" ">
<path fill="none" stroke="#63b8ff" d="M716.58,-171.06C769.99,-162.33 857.24,-147.36 941.97,-128.98"/>
<polygon fill="#63b8ff" stroke="#63b8ff" points="942.74,-132.39 951.76,-126.84 941.24,-125.55 942.74,-132.39"/>
</a>
</g>
</g>
<!-- Node8 -->
<g id="Node000008" class="node">
<title>Node8</title>
<g id="a_Node000008"><a xlink:href="enums_8h.html" target="_top" xlink:title=" ">
<polygon fill="white" stroke="#666666" points="1186,-74 1083,-74 1083,-55 1186,-55 1186,-74"/>
<text text-anchor="middle" x="1134.5" y="-62" font-family="Helvetica,sans-Serif" font-size="10.00">../../../src/enums.h</text>
</a>
</g>
</g>
<!-- Node1&#45;&gt;Node8 -->
<g id="edge7_Node000001_Node000008" class="edge">
<title>Node1&#45;&gt;Node8</title>
<g id="a_edge7_Node000001_Node000008"><a xlink:title=" ">
<path fill="none" stroke="#63b8ff" d="M716.73,-176.62C784.24,-172.31 907.33,-160.5 1007.5,-129 1010.15,-128.17 1072.12,-96.98 1108.5,-78.63"/>
<polygon fill="#63b8ff" stroke="#63b8ff" points="1110.22,-81.68 1117.58,-74.05 1107.07,-75.43 1110.22,-81.68"/>
</a>
</g>
</g>
<!-- Node9 -->
<g id="Node000009" class="node">
<title>Node9</title>
<g id="a_Node000009"><a xlink:href="filecontent_8h.html" target="_top" xlink:title=" ">
<polygon fill="white" stroke="#666666" points="395.5,-129 273.5,-129 273.5,-110 395.5,-110 395.5,-129"/>
<text text-anchor="middle" x="334.5" y="-117" font-family="Helvetica,sans-Serif" font-size="10.00">../../../src/filecontent.h</text>
</a>
</g>
</g>
<!-- Node1&#45;&gt;Node9 -->
<g id="edge8_Node000001_Node000009" class="edge">
<title>Node1&#45;&gt;Node9</title>
<g id="a_edge8_Node000001_Node000009"><a xlink:title=" ">
<path fill="none" stroke="#63b8ff" d="M616.44,-170.18C556.55,-159.63 456.46,-141.99 393.04,-130.82"/>
<polygon fill="#63b8ff" stroke="#63b8ff" points="393.26,-127.3 382.81,-129.01 392.05,-134.19 393.26,-127.3"/>
</a>
</g>
</g>
<!-- Node12 -->
<g id="Node000012" class="node">
<title>Node12</title>
<g id="a_Node000012"><a xlink:href="passwordconfiguration_8h.html" target="_top" xlink:title=" ">
<polygon fill="white" stroke="#666666" points="593.5,-129 413.5,-129 413.5,-110 593.5,-110 593.5,-129"/>
<text text-anchor="middle" x="503.5" y="-117" font-family="Helvetica,sans-Serif" font-size="10.00">../../../src/passwordconfiguration.h</text>
</a>
</g>
</g>
<!-- Node1&#45;&gt;Node12 -->
<g id="edge12_Node000001_Node000012" class="edge">
<title>Node1&#45;&gt;Node12</title>
<g id="a_edge12_Node000001_Node000012"><a xlink:title=" ">
<path fill="none" stroke="#63b8ff" d="M627.46,-164.99C599.9,-155.1 563.35,-141.98 537.09,-132.56"/>
<polygon fill="#63b8ff" stroke="#63b8ff" points="538.17,-129.22 527.57,-129.14 535.8,-135.81 538.17,-129.22"/>
</a>
</g>
</g>
<!-- Node13 -->
<g id="Node000013" class="node">
<title>Node13</title>
<g id="a_Node000013"><a xlink:href="simpletransaction_8h.html" target="_top" xlink:title=" ">
<polygon fill="white" stroke="#666666" points="1213.5,-129 1055.5,-129 1055.5,-110 1213.5,-110 1213.5,-129"/>
<text text-anchor="middle" x="1134.5" y="-117" font-family="Helvetica,sans-Serif" font-size="10.00">../../../src/simpletransaction.h</text>
</a>
</g>
</g>
<!-- Node1&#45;&gt;Node13 -->
<g id="edge14_Node000001_Node000013" class="edge">
<title>Node1&#45;&gt;Node13</title>
<g id="a_edge14_Node000001_Node000013"><a xlink:title=" ">
<path fill="none" stroke="#63b8ff" d="M716.58,-172.74C798,-162.56 959.67,-142.35 1056.32,-130.27"/>
<polygon fill="#63b8ff" stroke="#63b8ff" points="1056.84,-133.73 1066.33,-129.02 1055.97,-126.79 1056.84,-133.73"/>
</a>
</g>
</g>
<!-- Node15 -->
<g id="Node000015" class="node">
<title>Node15</title>
<g id="a_Node000015"><a xlink:href="userinfo_8h.html" target="_top" xlink:title=" ">
<polygon fill="white" stroke="#666666" points="721.5,-129 611.5,-129 611.5,-110 721.5,-110 721.5,-129"/>
<text text-anchor="middle" x="666.5" y="-117" font-family="Helvetica,sans-Serif" font-size="10.00">../../../src/userinfo.h</text>
</a>
</g>
</g>
<!-- Node1&#45;&gt;Node15 -->
<g id="edge17_Node000001_Node000015" class="edge">
<title>Node1&#45;&gt;Node15</title>
<g id="a_edge17_Node000001_Node000015"><a xlink:title=" ">
<path fill="none" stroke="#63b8ff" d="M666.5,-164.84C666.5,-157.21 666.5,-147.7 666.5,-139.45"/>
<polygon fill="#63b8ff" stroke="#63b8ff" points="670,-139.27 666.5,-129.27 663,-139.27 670,-139.27"/>
</a>
</g>
</g>
<!-- Node17 -->
<g id="Node000017" class="node">
<title>Node17</title>
<g id="a_Node000017"><a xlink:href="util_8h.html" target="_top" xlink:title=" ">
<polygon fill="white" stroke="#666666" points="825.5,-129 739.5,-129 739.5,-110 825.5,-110 825.5,-129"/>
<text text-anchor="middle" x="782.5" y="-117" font-family="Helvetica,sans-Serif" font-size="10.00">../../../src/util.h</text>
</a>
</g>
</g>
<!-- Node1&#45;&gt;Node17 -->
<g id="edge20_Node000001_Node000017" class="edge">
<title>Node1&#45;&gt;Node17</title>
<g id="a_edge20_Node000001_Node000017"><a xlink:title=" ">
<path fill="none" stroke="#63b8ff" d="M694.28,-164.99C713.12,-155.49 737.85,-143.02 756.34,-133.69"/>
<polygon fill="#63b8ff" stroke="#63b8ff" points="758.02,-136.77 765.37,-129.14 754.86,-130.52 758.02,-136.77"/>
</a>
</g>
</g>
<!-- Node23 -->
<g id="Node000023" class="node">
<title>Node23</title>
<g id="a_Node000023"><a xlink:title=" ">
<polygon fill="#e0e0e0" stroke="#999999" points="1305.5,-129 1231.5,-129 1231.5,-110 1305.5,-110 1305.5,-129"/>
<text text-anchor="middle" x="1268.5" y="-117" font-family="Helvetica,sans-Serif" font-size="10.00">tst_util.moc</text>
</a>
</g>
</g>
<!-- Node1&#45;&gt;Node23 -->
<g id="edge27_Node000001_Node000023" class="edge">
<title>Node1&#45;&gt;Node23</title>
<g id="a_edge27_Node000001_Node000023"><a xlink:title=" ">
<path fill="none" stroke="#63b8ff" d="M716.52,-176.07C812.45,-170.1 1029.13,-154.99 1221.39,-129.03"/>
<polygon fill="#63b8ff" stroke="#63b8ff" points="1221.96,-132.48 1231.39,-127.66 1221.01,-125.55 1221.96,-132.48"/>
</a>
</g>
</g>
<!-- Node9&#45;&gt;Node5 -->
<g id="edge9_Node000009_Node000005" class="edge">
<title>Node9&#45;&gt;Node5</title>
<g id="a_edge9_Node000009_Node000005"><a xlink:title=" ">
<path fill="none" stroke="#63b8ff" d="M321.49,-109.98C309.04,-101.84 290.04,-89.41 275.29,-79.76"/>
<polygon fill="#63b8ff" stroke="#63b8ff" points="277.04,-76.72 266.75,-74.17 273.2,-82.57 277.04,-76.72"/>
</a>
</g>
</g>
<!-- Node10 -->
<g id="Node000010" class="node">
<title>Node10</title>
<g id="a_Node000010"><a xlink:title=" ">
<polygon fill="#e0e0e0" stroke="#999999" points="473,-74 420,-74 420,-55 473,-55 473,-74"/>
<text text-anchor="middle" x="446.5" y="-62" font-family="Helvetica,sans-Serif" font-size="10.00">QString</text>
</a>
</g>
</g>
<!-- Node9&#45;&gt;Node10 -->
<g id="edge10_Node000009_Node000010" class="edge">
<title>Node9&#45;&gt;Node10</title>
<g id="a_edge10_Node000009_Node000010"><a xlink:title=" ">
<path fill="none" stroke="#63b8ff" d="M352.49,-109.98C370.43,-101.5 398.22,-88.35 418.93,-78.54"/>
<polygon fill="#63b8ff" stroke="#63b8ff" points="420.64,-81.61 428.18,-74.17 417.64,-75.28 420.64,-81.61"/>
</a>
</g>
</g>
<!-- Node11 -->
<g id="Node000011" class="node">
<title>Node11</title>
<g id="a_Node000011"><a xlink:title=" ">
<polygon fill="#e0e0e0" stroke="#999999" points="369.5,-74 299.5,-74 299.5,-55 369.5,-55 369.5,-74"/>
<text text-anchor="middle" x="334.5" y="-62" font-family="Helvetica,sans-Serif" font-size="10.00">QStringList</text>
</a>
</g>
</g>
<!-- Node9&#45;&gt;Node11 -->
<g id="edge11_Node000009_Node000011" class="edge">
<title>Node9&#45;&gt;Node11</title>
<g id="a_edge11_Node000009_Node000011"><a xlink:title=" ">
<path fill="none" stroke="#63b8ff" d="M334.5,-109.75C334.5,-102.8 334.5,-92.85 334.5,-84.13"/>
<polygon fill="#63b8ff" stroke="#63b8ff" points="338,-84.09 334.5,-74.09 331,-84.09 338,-84.09"/>
</a>
</g>
</g>
<!-- Node12&#45;&gt;Node10 -->
<g id="edge13_Node000012_Node000010" class="edge">
<title>Node12&#45;&gt;Node10</title>
<g id="a_edge13_Node000012_Node000010"><a xlink:title=" ">
<path fill="none" stroke="#63b8ff" d="M494.34,-109.98C486,-102.23 473.47,-90.58 463.32,-81.14"/>
<polygon fill="#63b8ff" stroke="#63b8ff" points="465.53,-78.42 455.82,-74.17 460.76,-83.54 465.53,-78.42"/>
</a>
</g>
</g>
<!-- Node13&#45;&gt;Node8 -->
<g id="edge15_Node000013_Node000008" class="edge">
<title>Node13&#45;&gt;Node8</title>
<g id="a_edge15_Node000013_Node000008"><a xlink:title=" ">
<path fill="none" stroke="#63b8ff" d="M1134.5,-109.75C1134.5,-102.8 1134.5,-92.85 1134.5,-84.13"/>
<polygon fill="#63b8ff" stroke="#63b8ff" points="1138,-84.09 1134.5,-74.09 1131,-84.09 1138,-84.09"/>
</a>
</g>
</g>
<!-- Node14 -->
<g id="Node000014" class="node">
<title>Node14</title>
<g id="a_Node000014"><a xlink:title=" ">
<polygon fill="#e0e0e0" stroke="#999999" points="1251,-74 1204,-74 1204,-55 1251,-55 1251,-74"/>
<text text-anchor="middle" x="1227.5" y="-62" font-family="Helvetica,sans-Serif" font-size="10.00">queue</text>
</a>
</g>
</g>
<!-- Node13&#45;&gt;Node14 -->
<g id="edge16_Node000013_Node000014" class="edge">
<title>Node13&#45;&gt;Node14</title>
<g id="a_edge16_Node000013_Node000014"><a xlink:title=" ">
<path fill="none" stroke="#63b8ff" d="M1149.44,-109.98C1164,-101.69 1186.37,-88.94 1203.43,-79.22"/>
<polygon fill="#63b8ff" stroke="#63b8ff" points="1205.33,-82.16 1212.29,-74.17 1201.86,-76.08 1205.33,-82.16"/>
</a>
</g>
</g>
<!-- Node15&#45;&gt;Node10 -->
<g id="edge19_Node000015_Node000010" class="edge">
<title>Node15&#45;&gt;Node10</title>
<g id="a_edge19_Node000015_Node000010"><a xlink:title=" ">
<path fill="none" stroke="#63b8ff" d="M631.15,-109.98C590.51,-100.19 524.11,-84.2 482.99,-74.29"/>
<polygon fill="#63b8ff" stroke="#63b8ff" points="483.65,-70.85 473.11,-71.91 482.01,-77.66 483.65,-70.85"/>
</a>
</g>
</g>
<!-- Node16 -->
<g id="Node000016" class="node">
<title>Node16</title>
<g id="a_Node000016"><a xlink:title=" ">
<polygon fill="#e0e0e0" stroke="#999999" points="563.5,-74 491.5,-74 491.5,-55 563.5,-55 563.5,-74"/>
<text text-anchor="middle" x="527.5" y="-62" font-family="Helvetica,sans-Serif" font-size="10.00">QDateTime</text>
</a>
</g>
</g>
<!-- Node15&#45;&gt;Node16 -->
<g id="edge18_Node000015_Node000016" class="edge">
<title>Node15&#45;&gt;Node16</title>
<g id="a_edge18_Node000015_Node000016"><a xlink:title=" ">
<path fill="none" stroke="#63b8ff" d="M644.17,-109.98C621.3,-101.27 585.54,-87.63 559.64,-77.75"/>
<polygon fill="#63b8ff" stroke="#63b8ff" points="560.83,-74.46 550.24,-74.17 558.34,-81 560.83,-74.46"/>
</a>
</g>
</g>
<!-- Node17&#45;&gt;Node10 -->
<g id="edge26_Node000017_Node000010" class="edge">
<title>Node17&#45;&gt;Node10</title>
<g id="a_edge26_Node000017_Node000010"><a xlink:title=" ">
<path fill="none" stroke="#63b8ff" d="M739.38,-111.39C736.38,-110.91 733.39,-110.45 730.5,-110 623.54,-93.5 593.6,-94.73 483.06,-73.95"/>
<polygon fill="#63b8ff" stroke="#63b8ff" points="483.66,-70.5 473.18,-72.07 482.35,-77.38 483.66,-70.5"/>
</a>
</g>
</g>
<!-- Node18 -->
<g id="Node000018" class="node">
<title>Node18</title>
<g id="a_Node000018"><a xlink:href="storemodel_8h.html" target="_top" xlink:title=" ">
<polygon fill="white" stroke="#666666" points="938,-74 857,-74 857,-55 938,-55 938,-74"/>
<text text-anchor="middle" x="897.5" y="-62" font-family="Helvetica,sans-Serif" font-size="10.00">storemodel.h</text>
</a>
</g>
</g>
<!-- Node17&#45;&gt;Node18 -->
<g id="edge21_Node000017_Node000018" class="edge">
<title>Node17&#45;&gt;Node18</title>
<g id="a_edge21_Node000017_Node000018"><a xlink:title=" ">
<path fill="none" stroke="#63b8ff" d="M800.98,-109.98C819.48,-101.46 848.18,-88.23 869.48,-78.41"/>
<polygon fill="#63b8ff" stroke="#63b8ff" points="871.07,-81.53 878.69,-74.17 868.14,-75.18 871.07,-81.53"/>
</a>
</g>
</g>
<!-- Node20 -->
<g id="Node000020" class="node">
<title>Node20</title>
<g id="a_Node000020"><a xlink:title=" ">
<polygon fill="#e0e0e0" stroke="#999999" points="1064.5,-74 956.5,-74 956.5,-55 1064.5,-55 1064.5,-74"/>
<text text-anchor="middle" x="1010.5" y="-62" font-family="Helvetica,sans-Serif" font-size="10.00">QFileSystemModel</text>
</a>
</g>
</g>
<!-- Node17&#45;&gt;Node20 -->
<g id="edge23_Node000017_Node000020" class="edge">
<title>Node17&#45;&gt;Node20</title>
<g id="a_edge23_Node000017_Node000020"><a xlink:title=" ">
<path fill="none" stroke="#63b8ff" d="M819.13,-109.98C858.41,-100.86 920.87,-86.33 963.69,-76.38"/>
<polygon fill="#63b8ff" stroke="#63b8ff" points="964.63,-79.76 973.58,-74.08 963.05,-72.94 964.63,-79.76"/>
</a>
</g>
</g>
<!-- Node21 -->
<g id="Node000021" class="node">
<title>Node21</title>
<g id="a_Node000021"><a xlink:title=" ">
<polygon fill="#e0e0e0" stroke="#999999" points="705.5,-74 581.5,-74 581.5,-55 705.5,-55 705.5,-74"/>
<text text-anchor="middle" x="643.5" y="-62" font-family="Helvetica,sans-Serif" font-size="10.00">QProcessEnvironment</text>
</a>
</g>
</g>
<!-- Node17&#45;&gt;Node21 -->
<g id="edge24_Node000017_Node000021" class="edge">
<title>Node17&#45;&gt;Node21</title>
<g id="a_edge24_Node000017_Node000021"><a xlink:title=" ">
<path fill="none" stroke="#63b8ff" d="M760.17,-109.98C737.3,-101.27 701.54,-87.63 675.64,-77.75"/>
<polygon fill="#63b8ff" stroke="#63b8ff" points="676.83,-74.46 666.24,-74.17 674.34,-81 676.83,-74.46"/>
</a>
</g>
</g>
<!-- Node22 -->
<g id="Node000022" class="node">
<title>Node22</title>
<g id="a_Node000022"><a xlink:title=" ">
<polygon fill="#e0e0e0" stroke="#999999" points="839,-74 724,-74 724,-55 839,-55 839,-74"/>
<text text-anchor="middle" x="781.5" y="-62" font-family="Helvetica,sans-Serif" font-size="10.00">QRegularExpression</text>
</a>
</g>
</g>
<!-- Node17&#45;&gt;Node22 -->
<g id="edge25_Node000017_Node000022" class="edge">
<title>Node17&#45;&gt;Node22</title>
<g id="a_edge25_Node000017_Node000022"><a xlink:title=" ">
<path fill="none" stroke="#63b8ff" d="M782.33,-109.75C782.2,-102.8 782.02,-92.85 781.85,-84.13"/>
<polygon fill="#63b8ff" stroke="#63b8ff" points="785.35,-84.02 781.66,-74.09 778.35,-84.15 785.35,-84.02"/>
</a>
</g>
</g>
<!-- Node19 -->
<g id="Node000019" class="node">
<title>Node19</title>
<g id="a_Node000019"><a xlink:title=" ">
<polygon fill="#e0e0e0" stroke="#999999" points="960.5,-19 834.5,-19 834.5,0 960.5,0 960.5,-19"/>
<text text-anchor="middle" x="897.5" y="-7" font-family="Helvetica,sans-Serif" font-size="10.00">QSortFilterProxyModel</text>
</a>
</g>
</g>
<!-- Node18&#45;&gt;Node19 -->
<g id="edge22_Node000018_Node000019" class="edge">
<title>Node18&#45;&gt;Node19</title>
<g id="a_edge22_Node000018_Node000019"><a xlink:title=" ">
<path fill="none" stroke="#63b8ff" d="M897.5,-54.75C897.5,-47.8 897.5,-37.85 897.5,-29.13"/>
<polygon fill="#63b8ff" stroke="#63b8ff" points="901,-29.09 897.5,-19.09 894,-29.09 901,-29.09"/>
</a>
</g>
</g>
</g>
</svg>
