<?xml version="1.0" encoding="UTF-8" standalone="no"?>
<!DOCTYPE svg PUBLIC "-//W3C//DTD SVG 1.1//EN"
 "http://www.w3.org/Graphics/SVG/1.1/DTD/svg11.dtd">
<!-- Generated by graphviz version 2.43.0 (0)
 -->
<!-- Title: tests/auto/ui/tst_ui.cpp Pages: 1 -->
<!--zoomable 192 -->

<svg id="main" version="1.1" xmlns="http://www.w3.org/2000/svg" xmlns:xlink="http://www.w3.org/1999/xlink" xml:space="preserve" onload="init(evt)">

<style type="text/css"><![CDATA[
.node, .edge {opacity: 0.7;}
.node.selected, .edge.selected {opacity: 1;}
.edge:hover path { stroke: red; }
.edge:hover polygon { stroke: red; fill: red; }
]]></style>

<defs>
  <circle id="rim" cx="0" cy="0" r="7"/>
  <circle id="rim2" cx="0" cy="0" r="3.5"/>
  <g id="zoomPlus">
    <use xlink:href="#rim" fill="#404040"><set attributeName="fill" to="#808080" begin="zoomplus.mouseover" end="zoomplus.mouseout"/></use>
    <path d="M-4,0h8M0,-4v8" fill="none" stroke="white" stroke-width="1.5" pointer-events="none"/>
  </g>
  <g id="zoomMin">
    <use xlink:href="#rim" fill="#404040"><set attributeName="fill" to="#808080" begin="zoomminus.mouseover" end="zoomminus.mouseout"/></use>
    <path d="M-4,0h8" fill="none" stroke="white" stroke-width="1.5" pointer-events="none"/>
  </g>
  <g id="arrowUp" transform="translate(30 24)">
    <use xlink:href="#rim"/>
    <path pointer-events="none" fill="none" stroke="white" stroke-width="1.5" d="M0,-3.0v7 M-2.5,-0.5L0,-3.0L2.5,-0.5"/>
  </g>
  <g id="arrowRight" transform="rotate(90) translate(36 -43)">
    <use xlink:href="#rim"/>
    <path pointer-events="none" fill="none" stroke="white" stroke-width="1.5" d="M0,-3.0v7 M-2.5,-0.5L0,-3.0L2.5,-0.5"/>
  </g>
  <g id="arrowDown" transform="rotate(180) translate(-30 -48)">
    <use xlink:href="#rim"/>
    <path pointer-events="none" fill="none" stroke="white" stroke-width="1.5" d="M0,-3.0v7 M-2.5,-0.5L0,-3.0L2.5,-0.5"/>
  </g>
  <g id="arrowLeft" transform="rotate(270) translate(-36 17)">
    <use xlink:href="#rim"/>
    <path pointer-events="none" fill="none" stroke="white" stroke-width="1.5" d="M0,-3.0v7 M-2.5,-0.5L0,-3.0L2.5,-0.5"/>
  </g>
  <g id="resetDef">
    <use xlink:href="#rim2" fill="#404040"><set attributeName="fill" to="#808080" begin="reset.mouseover" end="reset.mouseout"/></use>
  </g>
</defs>
<script type="application/ecmascript">
var viewWidth = 1920;
var viewHeight = 192;
var sectionId = 'dynsection-0';
</script>
<script type="application/ecmascript" xlink:href="svg.min.js"/>
<svg id="graph" class="graph">
<g id="viewport">
<title>tests/auto/ui/tst_ui.cpp</title>
<!-- Node1 -->
<g id="Node000001" class="node">
<title>Node1</title>
<g id="a_Node000001"><a xlink:title=" ">
<polygon fill="#999999" stroke="#666666" points="968.5,-184 840.5,-184 840.5,-165 968.5,-165 968.5,-184"/>
<text text-anchor="middle" x="904.5" y="-172" font-family="Helvetica,sans-Serif" font-size="10.00">tests/auto/ui/tst_ui.cpp</text>
</a>
</g>
</g>
<!-- Node2 -->
<g id="Node000002" class="node">
<title>Node2</title>
<g id="a_Node000002"><a xlink:title=" ">
<polygon fill="#e0e0e0" stroke="#999999" points="101,-74 0,-74 0,-55 101,-55 101,-74"/>
<text text-anchor="middle" x="50.5" y="-62" font-family="Helvetica,sans-Serif" font-size="10.00">QCoreApplication</text>
</a>
</g>
</g>
<!-- Node1&#45;&gt;Node2 -->
<g id="edge1_Node000001_Node000002" class="edge">
<title>Node1&#45;&gt;Node2</title>
<g id="a_edge1_Node000001_Node000002"><a xlink:title=" ">
<path fill="none" stroke="#63b8ff" d="M840.34,-173.87C682.16,-174.11 277.09,-170.52 149.5,-129 117.99,-118.75 86.64,-95.97 67.92,-80.67"/>
<polygon fill="#63b8ff" stroke="#63b8ff" points="69.93,-77.79 60.02,-74.05 65.43,-83.16 69.93,-77.79"/>
</a>
</g>
</g>
<!-- Node3 -->
<g id="Node000003" class="node">
<title>Node3</title>
<g id="a_Node000003"><a xlink:title=" ">
<polygon fill="#e0e0e0" stroke="#999999" points="430.5,-74 374.5,-74 374.5,-55 430.5,-55 430.5,-74"/>
<text text-anchor="middle" x="402.5" y="-62" font-family="Helvetica,sans-Serif" font-size="10.00">QDialog</text>
</a>
</g>
</g>
<!-- Node1&#45;&gt;Node3 -->
<g id="edge2_Node000001_Node000003" class="edge">
<title>Node1&#45;&gt;Node3</title>
<g id="a_edge2_Node000001_Node000003"><a xlink:title=" ">
<path fill="none" stroke="#63b8ff" d="M840.3,-170.9C719.2,-165.5 466.21,-151.64 433.5,-129 418.55,-118.65 410.52,-99 406.41,-84.29"/>
<polygon fill="#63b8ff" stroke="#63b8ff" points="409.73,-83.13 403.98,-74.23 402.92,-84.78 409.73,-83.13"/>
</a>
</g>
</g>
<!-- Node4 -->
<g id="Node000004" class="node">
<title>Node4</title>
<g id="a_Node000004"><a xlink:title=" ">
<polygon fill="#e0e0e0" stroke="#999999" points="1064,-74 1001,-74 1001,-55 1064,-55 1064,-74"/>
<text text-anchor="middle" x="1032.5" y="-62" font-family="Helvetica,sans-Serif" font-size="10.00">QLineEdit</text>
</a>
</g>
</g>
<!-- Node1&#45;&gt;Node4 -->
<g id="edge3_Node000001_Node000004" class="edge">
<title>Node1&#45;&gt;Node4</title>
<g id="a_edge3_Node000001_Node000004"><a xlink:title=" ">
<path fill="none" stroke="#63b8ff" d="M859.78,-164.91C819.79,-155.26 770.74,-137.27 793.5,-110 820.48,-77.68 933.23,-81.88 990.68,-73.82"/>
<polygon fill="#63b8ff" stroke="#63b8ff" points="991.43,-77.25 1000.73,-72.17 990.3,-70.34 991.43,-77.25"/>
</a>
</g>
</g>
<!-- Node5 -->
<g id="Node000005" class="node">
<title>Node5</title>
<g id="a_Node000005"><a xlink:title=" ">
<polygon fill="#e0e0e0" stroke="#999999" points="1491,-129 1432,-129 1432,-110 1491,-110 1491,-129"/>
<text text-anchor="middle" x="1461.5" y="-117" font-family="Helvetica,sans-Serif" font-size="10.00">QPointer</text>
</a>
</g>
</g>
<!-- Node1&#45;&gt;Node5 -->
<g id="edge4_Node000001_Node000005" class="edge">
<title>Node1&#45;&gt;Node5</title>
<g id="a_edge4_Node000001_Node000005"><a xlink:title=" ">
<path fill="none" stroke="#63b8ff" d="M968.61,-170.65C1064.86,-165.79 1252.56,-154.04 1421.68,-128.91"/>
<polygon fill="#63b8ff" stroke="#63b8ff" points="1422.4,-132.34 1431.76,-127.39 1421.35,-125.42 1422.4,-132.34"/>
</a>
</g>
</g>
<!-- Node6 -->
<g id="Node000006" class="node">
<title>Node6</title>
<g id="a_Node000006"><a xlink:title=" ">
<polygon fill="#e0e0e0" stroke="#999999" points="1581.5,-129 1509.5,-129 1509.5,-110 1581.5,-110 1581.5,-129"/>
<text text-anchor="middle" x="1545.5" y="-117" font-family="Helvetica,sans-Serif" font-size="10.00">QSignalSpy</text>
</a>
</g>
</g>
<!-- Node1&#45;&gt;Node6 -->
<g id="edge5_Node000001_Node000006" class="edge">
<title>Node1&#45;&gt;Node6</title>
<g id="a_edge5_Node000001_Node000006"><a xlink:title=" ">
<path fill="none" stroke="#63b8ff" d="M968.57,-170.98C1077.85,-166.18 1307.14,-153.89 1499.5,-129 1499.6,-128.99 1499.7,-128.97 1499.8,-128.96"/>
<polygon fill="#63b8ff" stroke="#63b8ff" points="1500.01,-132.47 1509.4,-127.55 1499,-125.54 1500.01,-132.47"/>
</a>
</g>
</g>
<!-- Node7 -->
<g id="Node000007" class="node">
<title>Node7</title>
<g id="a_Node000007"><a xlink:title=" ">
<polygon fill="#e0e0e0" stroke="#999999" points="1647,-129 1600,-129 1600,-110 1647,-110 1647,-129"/>
<text text-anchor="middle" x="1623.5" y="-117" font-family="Helvetica,sans-Serif" font-size="10.00">QtTest</text>
</a>
</g>
</g>
<!-- Node1&#45;&gt;Node7 -->
<g id="edge6_Node000001_Node000007" class="edge">
<title>Node1&#45;&gt;Node7</title>
<g id="a_edge6_Node000001_Node000007"><a xlink:title=" ">
<path fill="none" stroke="#63b8ff" d="M968.78,-173.33C1089.05,-172.14 1356.22,-165.4 1589.78,-128.76"/>
<polygon fill="#63b8ff" stroke="#63b8ff" points="1590.49,-132.19 1599.82,-127.17 1589.39,-125.28 1590.49,-132.19"/>
</a>
</g>
</g>
<!-- Node8 -->
<g id="Node000008" class="node">
<title>Node8</title>
<g id="a_Node000008"><a xlink:href="deselectabletreeview_8h.html" target="_top" xlink:title=" ">
<polygon fill="white" stroke="#666666" points="332.5,-129 158.5,-129 158.5,-110 332.5,-110 332.5,-129"/>
<text text-anchor="middle" x="245.5" y="-117" font-family="Helvetica,sans-Serif" font-size="10.00">../../../src/deselectabletreeview.h</text>
</a>
</g>
</g>
<!-- Node1&#45;&gt;Node8 -->
<g id="edge7_Node000001_Node000008" class="edge">
<title>Node1&#45;&gt;Node8</title>
<g id="a_edge7_Node000001_Node000008"><a xlink:title=" ">
<path fill="none" stroke="#63b8ff" d="M840.41,-168.35C724.45,-159.02 479.18,-139.29 342.56,-128.31"/>
<polygon fill="#63b8ff" stroke="#63b8ff" points="342.76,-124.81 332.51,-127.5 342.19,-131.79 342.76,-124.81"/>
</a>
</g>
</g>
<!-- Node12 -->
<g id="Node000012" class="node">
<title>Node12</title>
<g id="a_Node000012"><a xlink:href="passworddialog_8h.html" target="_top" xlink:title=" ">
<polygon fill="white" stroke="#666666" points="588.5,-129 442.5,-129 442.5,-110 588.5,-110 588.5,-129"/>
<text text-anchor="middle" x="515.5" y="-117" font-family="Helvetica,sans-Serif" font-size="10.00">../../../src/passworddialog.h</text>
</a>
</g>
</g>
<!-- Node1&#45;&gt;Node12 -->
<g id="edge12_Node000001_Node000012" class="edge">
<title>Node1&#45;&gt;Node12</title>
<g id="a_edge12_Node000001_Node000012"><a xlink:title=" ">
<path fill="none" stroke="#63b8ff" d="M842,-164.98C772.77,-155.55 661.3,-140.36 588.22,-130.41"/>
<polygon fill="#63b8ff" stroke="#63b8ff" points="588.55,-126.92 578.17,-129.04 587.6,-133.86 588.55,-126.92"/>
</a>
</g>
</g>
<!-- Node13 -->
<g id="Node000013" class="node">
<title>Node13</title>
<g id="a_Node000013"><a xlink:href="passwordconfiguration_8h.html" target="_top" xlink:title=" ">
<polygon fill="white" stroke="#666666" points="584.5,-74 448.5,-74 448.5,-55 584.5,-55 584.5,-74"/>
<text text-anchor="middle" x="516.5" y="-62" font-family="Helvetica,sans-Serif" font-size="10.00">passwordconfiguration.h</text>
</a>
</g>
</g>
<!-- Node1&#45;&gt;Node13 -->
<g id="edge33_Node000001_Node000013" class="edge">
<title>Node1&#45;&gt;Node13</title>
<g id="a_edge33_Node000001_Node000013"><a xlink:title=" ">
<path fill="none" stroke="#63b8ff" d="M840.3,-168.8C784.88,-163.36 703.3,-152 635.5,-129 625.71,-125.68 572.81,-96.73 540.93,-79.09"/>
<polygon fill="#63b8ff" stroke="#63b8ff" points="542.61,-76.01 532.17,-74.23 539.22,-82.14 542.61,-76.01"/>
</a>
</g>
</g>
<!-- Node15 -->
<g id="Node000015" class="node">
<title>Node15</title>
<g id="a_Node000015"><a xlink:href="qprogressindicator_8h.html" target="_top" xlink:title=" ">
<polygon fill="white" stroke="#666666" points="1825.5,-129 1665.5,-129 1665.5,-110 1825.5,-110 1825.5,-129"/>
<text text-anchor="middle" x="1745.5" y="-117" font-family="Helvetica,sans-Serif" font-size="10.00">../../../src/qprogressindicator.h</text>
</a>
</g>
</g>
<!-- Node1&#45;&gt;Node15 -->
<g id="edge16_Node000001_Node000015" class="edge">
<title>Node1&#45;&gt;Node15</title>
<g id="a_edge16_Node000001_Node000015"><a xlink:title=" ">
<path fill="none" stroke="#63b8ff" d="M968.84,-170.45C1097.09,-164.2 1393.9,-148.9 1654.99,-129.01"/>
<polygon fill="#63b8ff" stroke="#63b8ff" points="1655.34,-132.49 1665.04,-128.24 1654.8,-125.51 1655.34,-132.49"/>
</a>
</g>
</g>
<!-- Node18 -->
<g id="Node000018" class="node">
<title>Node18</title>
<g id="a_Node000018"><a xlink:href="qpushbuttonasqrcode_8h.html" target="_top" xlink:title=" ">
<polygon fill="white" stroke="#666666" points="1414,-129 1239,-129 1239,-110 1414,-110 1414,-129"/>
<text text-anchor="middle" x="1326.5" y="-117" font-family="Helvetica,sans-Serif" font-size="10.00">../../../src/qpushbuttonasqrcode.h</text>
</a>
</g>
</g>
<!-- Node1&#45;&gt;Node18 -->
<g id="edge19_Node000001_Node000018" class="edge">
<title>Node1&#45;&gt;Node18</title>
<g id="a_edge19_Node000001_Node000018"><a xlink:title=" ">
<path fill="none" stroke="#63b8ff" d="M968.59,-165.45C1043.66,-156.02 1167.98,-140.41 1248.56,-130.29"/>
<polygon fill="#63b8ff" stroke="#63b8ff" points="1249.17,-133.74 1258.65,-129.02 1248.29,-126.79 1249.17,-133.74"/>
</a>
</g>
</g>
<!-- Node20 -->
<g id="Node000020" class="node">
<title>Node20</title>
<g id="a_Node000020"><a xlink:href="qpushbuttonshowpassword_8h.html" target="_top" xlink:title=" ">
<polygon fill="white" stroke="#666666" points="1006,-129 803,-129 803,-110 1006,-110 1006,-129"/>
<text text-anchor="middle" x="904.5" y="-117" font-family="Helvetica,sans-Serif" font-size="10.00">../../../src/qpushbuttonshowpassword.h</text>
</a>
</g>
</g>
<!-- Node1&#45;&gt;Node20 -->
<g id="edge21_Node000001_Node000020" class="edge">
<title>Node1&#45;&gt;Node20</title>
<g id="a_edge21_Node000001_Node000020"><a xlink:title=" ">
<path fill="none" stroke="#63b8ff" d="M904.5,-164.75C904.5,-157.8 904.5,-147.85 904.5,-139.13"/>
<polygon fill="#63b8ff" stroke="#63b8ff" points="908,-139.09 904.5,-129.09 901,-139.09 908,-139.09"/>
</a>
</g>
</g>
<!-- Node21 -->
<g id="Node000021" class="node">
<title>Node21</title>
<g id="a_Node000021"><a xlink:href="qpushbuttonwithclipboard_8h.html" target="_top" xlink:title=" ">
<polygon fill="white" stroke="#666666" points="1221,-129 1024,-129 1024,-110 1221,-110 1221,-129"/>
<text text-anchor="middle" x="1122.5" y="-117" font-family="Helvetica,sans-Serif" font-size="10.00">../../../src/qpushbuttonwithclipboard.h</text>
</a>
</g>
</g>
<!-- Node1&#45;&gt;Node21 -->
<g id="edge24_Node000001_Node000021" class="edge">
<title>Node1&#45;&gt;Node21</title>
<g id="a_edge24_Node000001_Node000021"><a xlink:title=" ">
<path fill="none" stroke="#63b8ff" d="M939.53,-164.98C977,-155.87 1036.55,-141.4 1077.48,-131.45"/>
<polygon fill="#63b8ff" stroke="#63b8ff" points="1078.31,-134.85 1087.2,-129.08 1076.66,-128.04 1078.31,-134.85"/>
</a>
</g>
</g>
<!-- Node22 -->
<g id="Node000022" class="node">
<title>Node22</title>
<g id="a_Node000022"><a xlink:href="qtpass_8h.html" target="_top" xlink:title=" ">
<polygon fill="white" stroke="#666666" points="746.5,-129 644.5,-129 644.5,-110 746.5,-110 746.5,-129"/>
<text text-anchor="middle" x="695.5" y="-117" font-family="Helvetica,sans-Serif" font-size="10.00">../../../src/qtpass.h</text>
</a>
</g>
</g>
<!-- Node1&#45;&gt;Node22 -->
<g id="edge26_Node000001_Node000022" class="edge">
<title>Node1&#45;&gt;Node22</title>
<g id="a_edge26_Node000001_Node000022"><a xlink:title=" ">
<path fill="none" stroke="#63b8ff" d="M870.92,-164.98C835.15,-155.91 778.38,-141.52 739.16,-131.57"/>
<polygon fill="#63b8ff" stroke="#63b8ff" points="739.9,-128.15 729.34,-129.08 738.18,-134.93 739.9,-128.15"/>
</a>
</g>
</g>
<!-- Node28 -->
<g id="Node000028" class="node">
<title>Node28</title>
<g id="a_Node000028"><a xlink:title=" ">
<polygon fill="#e0e0e0" stroke="#999999" points="1911.5,-129 1843.5,-129 1843.5,-110 1911.5,-110 1911.5,-129"/>
<text text-anchor="middle" x="1877.5" y="-117" font-family="Helvetica,sans-Serif" font-size="10.00">tst_ui.moc</text>
</a>
</g>
</g>
<!-- Node1&#45;&gt;Node28 -->
<g id="edge34_Node000001_Node000028" class="edge">
<title>Node1&#45;&gt;Node28</title>
<g id="a_edge34_Node000001_Node000028"><a xlink:title=" ">
<path fill="none" stroke="#63b8ff" d="M968.76,-173.68C1118.63,-173.39 1503,-168.6 1833.06,-128.97"/>
<polygon fill="#63b8ff" stroke="#63b8ff" points="1833.8,-132.41 1843.31,-127.73 1832.96,-125.46 1833.8,-132.41"/>
</a>
</g>
</g>
<!-- Node8&#45;&gt;Node2 -->
<g id="edge8_Node000008_Node000002" class="edge">
<title>Node8&#45;&gt;Node2</title>
<g id="a_edge8_Node000008_Node000002"><a xlink:title=" ">
<path fill="none" stroke="#63b8ff" d="M214.17,-109.98C181.01,-100.97 128.5,-86.7 91.94,-76.76"/>
<polygon fill="#63b8ff" stroke="#63b8ff" points="92.64,-73.33 82.08,-74.08 90.81,-80.08 92.64,-73.33"/>
</a>
</g>
</g>
<!-- Node9 -->
<g id="Node000009" class="node">
<title>Node9</title>
<g id="a_Node000009"><a xlink:title=" ">
<polygon fill="#e0e0e0" stroke="#999999" points="203.5,-74 119.5,-74 119.5,-55 203.5,-55 203.5,-74"/>
<text text-anchor="middle" x="161.5" y="-62" font-family="Helvetica,sans-Serif" font-size="10.00">QMouseEvent</text>
</a>
</g>
</g>
<!-- Node8&#45;&gt;Node9 -->
<g id="edge9_Node000008_Node000009" class="edge">
<title>Node8&#45;&gt;Node9</title>
<g id="a_edge9_Node000008_Node000009"><a xlink:title=" ">
<path fill="none" stroke="#63b8ff" d="M232,-109.98C219.1,-101.84 199.4,-89.41 184.1,-79.76"/>
<polygon fill="#63b8ff" stroke="#63b8ff" points="185.57,-76.55 175.24,-74.17 181.83,-82.47 185.57,-76.55"/>
</a>
</g>
</g>
<!-- Node10 -->
<g id="Node000010" class="node">
<title>Node10</title>
<g id="a_Node000010"><a xlink:title=" ">
<polygon fill="#e0e0e0" stroke="#999999" points="270,-74 221,-74 221,-55 270,-55 270,-74"/>
<text text-anchor="middle" x="245.5" y="-62" font-family="Helvetica,sans-Serif" font-size="10.00">QTime</text>
</a>
</g>
</g>
<!-- Node8&#45;&gt;Node10 -->
<g id="edge10_Node000008_Node000010" class="edge">
<title>Node8&#45;&gt;Node10</title>
<g id="a_edge10_Node000008_Node000010"><a xlink:title=" ">
<path fill="none" stroke="#63b8ff" d="M245.5,-109.75C245.5,-102.8 245.5,-92.85 245.5,-84.13"/>
<polygon fill="#63b8ff" stroke="#63b8ff" points="249,-84.09 245.5,-74.09 242,-84.09 249,-84.09"/>
</a>
</g>
</g>
<!-- Node11 -->
<g id="Node000011" class="node">
<title>Node11</title>
<g id="a_Node000011"><a xlink:title=" ">
<polygon fill="#e0e0e0" stroke="#999999" points="356.5,-74 288.5,-74 288.5,-55 356.5,-55 356.5,-74"/>
<text text-anchor="middle" x="322.5" y="-62" font-family="Helvetica,sans-Serif" font-size="10.00">QTreeView</text>
</a>
</g>
</g>
<!-- Node8&#45;&gt;Node11 -->
<g id="edge11_Node000008_Node000011" class="edge">
<title>Node8&#45;&gt;Node11</title>
<g id="a_edge11_Node000008_Node000011"><a xlink:title=" ">
<path fill="none" stroke="#63b8ff" d="M257.87,-109.98C269.59,-101.92 287.42,-89.65 301.39,-80.03"/>
<polygon fill="#63b8ff" stroke="#63b8ff" points="303.65,-82.72 309.9,-74.17 299.68,-76.96 303.65,-82.72"/>
</a>
</g>
</g>
<!-- Node12&#45;&gt;Node3 -->
<g id="edge15_Node000012_Node000003" class="edge">
<title>Node12&#45;&gt;Node3</title>
<g id="a_edge15_Node000012_Node000003"><a xlink:title=" ">
<path fill="none" stroke="#63b8ff" d="M497.34,-109.98C479.25,-101.5 451.22,-88.35 430.31,-78.54"/>
<polygon fill="#63b8ff" stroke="#63b8ff" points="431.53,-75.25 420.99,-74.17 428.55,-81.59 431.53,-75.25"/>
</a>
</g>
</g>
<!-- Node12&#45;&gt;Node13 -->
<g id="edge13_Node000012_Node000013" class="edge">
<title>Node12&#45;&gt;Node13</title>
<g id="a_edge13_Node000012_Node000013"><a xlink:title=" ">
<path fill="none" stroke="#63b8ff" d="M515.67,-109.75C515.8,-102.8 515.98,-92.85 516.15,-84.13"/>
<polygon fill="#63b8ff" stroke="#63b8ff" points="519.65,-84.15 516.34,-74.09 512.65,-84.02 519.65,-84.15"/>
</a>
</g>
</g>
<!-- Node14 -->
<g id="Node000014" class="node">
<title>Node14</title>
<g id="a_Node000014"><a xlink:title=" ">
<polygon fill="#e0e0e0" stroke="#999999" points="543,-19 490,-19 490,0 543,0 543,-19"/>
<text text-anchor="middle" x="516.5" y="-7" font-family="Helvetica,sans-Serif" font-size="10.00">QString</text>
</a>
</g>
</g>
<!-- Node13&#45;&gt;Node14 -->
<g id="edge14_Node000013_Node000014" class="edge">
<title>Node13&#45;&gt;Node14</title>
<g id="a_edge14_Node000013_Node000014"><a xlink:title=" ">
<path fill="none" stroke="#63b8ff" d="M516.5,-54.75C516.5,-47.8 516.5,-37.85 516.5,-29.13"/>
<polygon fill="#63b8ff" stroke="#63b8ff" points="520,-29.09 516.5,-19.09 513,-29.09 520,-29.09"/>
</a>
</g>
</g>
<!-- Node16 -->
<g id="Node000016" class="node">
<title>Node16</title>
<g id="a_Node000016"><a xlink:title=" ">
<polygon fill="#e0e0e0" stroke="#999999" points="1806.5,-74 1756.5,-74 1756.5,-55 1806.5,-55 1806.5,-74"/>
<text text-anchor="middle" x="1781.5" y="-62" font-family="Helvetica,sans-Serif" font-size="10.00">QColor</text>
</a>
</g>
</g>
<!-- Node15&#45;&gt;Node16 -->
<g id="edge17_Node000015_Node000016" class="edge">
<title>Node15&#45;&gt;Node16</title>
<g id="a_edge17_Node000015_Node000016"><a xlink:title=" ">
<path fill="none" stroke="#63b8ff" d="M1751.44,-109.75C1756.48,-102.34 1763.84,-91.5 1770.01,-82.41"/>
<polygon fill="#63b8ff" stroke="#63b8ff" points="1772.94,-84.33 1775.67,-74.09 1767.15,-80.39 1772.94,-84.33"/>
</a>
</g>
</g>
<!-- Node17 -->
<g id="Node000017" class="node">
<title>Node17</title>
<g id="a_Node000017"><a xlink:title=" ">
<polygon fill="#e0e0e0" stroke="#999999" points="1738,-74 1679,-74 1679,-55 1738,-55 1738,-74"/>
<text text-anchor="middle" x="1708.5" y="-62" font-family="Helvetica,sans-Serif" font-size="10.00">QWidget</text>
</a>
</g>
</g>
<!-- Node15&#45;&gt;Node17 -->
<g id="edge18_Node000015_Node000017" class="edge">
<title>Node15&#45;&gt;Node17</title>
<g id="a_edge18_Node000015_Node000017"><a xlink:title=" ">
<path fill="none" stroke="#63b8ff" d="M1739.39,-109.75C1734.22,-102.34 1726.65,-91.5 1720.31,-82.41"/>
<polygon fill="#63b8ff" stroke="#63b8ff" points="1723.09,-80.29 1714.5,-74.09 1717.35,-84.29 1723.09,-80.29"/>
</a>
</g>
</g>
<!-- Node19 -->
<g id="Node000019" class="node">
<title>Node19</title>
<g id="a_Node000019"><a xlink:title=" ">
<polygon fill="#e0e0e0" stroke="#999999" points="1162.5,-74 1082.5,-74 1082.5,-55 1162.5,-55 1162.5,-74"/>
<text text-anchor="middle" x="1122.5" y="-62" font-family="Helvetica,sans-Serif" font-size="10.00">QPushButton</text>
</a>
</g>
</g>
<!-- Node18&#45;&gt;Node19 -->
<g id="edge20_Node000018_Node000019" class="edge">
<title>Node18&#45;&gt;Node19</title>
<g id="a_edge20_Node000018_Node000019"><a xlink:title=" ">
<path fill="none" stroke="#63b8ff" d="M1293.72,-109.98C1258.88,-100.93 1203.63,-86.58 1165.36,-76.64"/>
<polygon fill="#63b8ff" stroke="#63b8ff" points="1166.09,-73.21 1155.53,-74.08 1164.33,-79.98 1166.09,-73.21"/>
</a>
</g>
</g>
<!-- Node20&#45;&gt;Node4 -->
<g id="edge22_Node000020_Node000004" class="edge">
<title>Node20&#45;&gt;Node4</title>
<g id="a_edge22_Node000020_Node000004"><a xlink:title=" ">
<path fill="none" stroke="#63b8ff" d="M925.07,-109.98C945.93,-101.34 978.47,-87.87 1002.27,-78.02"/>
<polygon fill="#63b8ff" stroke="#63b8ff" points="1003.66,-81.23 1011.56,-74.17 1000.98,-74.76 1003.66,-81.23"/>
</a>
</g>
</g>
<!-- Node20&#45;&gt;Node19 -->
<g id="edge23_Node000020_Node000019" class="edge">
<title>Node20&#45;&gt;Node19</title>
<g id="a_edge23_Node000020_Node000019"><a xlink:title=" ">
<path fill="none" stroke="#63b8ff" d="M939.53,-109.98C977,-100.87 1036.55,-86.4 1077.48,-76.45"/>
<polygon fill="#63b8ff" stroke="#63b8ff" points="1078.31,-79.85 1087.2,-74.08 1076.66,-73.04 1078.31,-79.85"/>
</a>
</g>
</g>
<!-- Node21&#45;&gt;Node19 -->
<g id="edge25_Node000021_Node000019" class="edge">
<title>Node21&#45;&gt;Node19</title>
<g id="a_edge25_Node000021_Node000019"><a xlink:title=" ">
<path fill="none" stroke="#63b8ff" d="M1122.5,-109.75C1122.5,-102.8 1122.5,-92.85 1122.5,-84.13"/>
<polygon fill="#63b8ff" stroke="#63b8ff" points="1126,-84.09 1122.5,-74.09 1119,-84.09 1126,-84.09"/>
</a>
</g>
</g>
<!-- Node22&#45;&gt;Node3 -->
<g id="edge27_Node000022_Node000003" class="edge">
<title>Node22&#45;&gt;Node3</title>
<g id="a_edge27_Node000022_Node000003"><a xlink:title=" ">
<path fill="none" stroke="#63b8ff" d="M644.35,-110.44C594.79,-102.44 517.27,-89.44 441.01,-74.22"/>
<polygon fill="#63b8ff" stroke="#63b8ff" points="441.24,-70.69 430.75,-72.15 439.86,-77.56 441.24,-70.69"/>
</a>
</g>
</g>
<!-- Node23 -->
<g id="Node000023" class="node">
<title>Node23</title>
<g id="a_Node000023"><a xlink:title=" ">
<polygon fill="#e0e0e0" stroke="#999999" points="678,-74 603,-74 603,-55 678,-55 678,-74"/>
<text text-anchor="middle" x="640.5" y="-62" font-family="Helvetica,sans-Serif" font-size="10.00">QMimeData</text>
</a>
</g>
</g>
<!-- Node22&#45;&gt;Node23 -->
<g id="edge28_Node000022_Node000023" class="edge">
<title>Node22&#45;&gt;Node23</title>
<g id="a_edge28_Node000022_Node000023"><a xlink:title=" ">
<path fill="none" stroke="#63b8ff" d="M686.42,-109.75C678.41,-102.03 666.54,-90.6 656.88,-81.28"/>
<polygon fill="#63b8ff" stroke="#63b8ff" points="659.04,-78.51 649.41,-74.09 654.19,-83.55 659.04,-78.51"/>
</a>
</g>
</g>
<!-- Node24 -->
<g id="Node000024" class="node">
<title>Node24</title>
<g id="a_Node000024"><a xlink:title=" ">
<polygon fill="#e0e0e0" stroke="#999999" points="751.5,-74 695.5,-74 695.5,-55 751.5,-55 751.5,-74"/>
<text text-anchor="middle" x="723.5" y="-62" font-family="Helvetica,sans-Serif" font-size="10.00">QObject</text>
</a>
</g>
</g>
<!-- Node22&#45;&gt;Node24 -->
<g id="edge29_Node000022_Node000024" class="edge">
<title>Node22&#45;&gt;Node24</title>
<g id="a_edge29_Node000022_Node000024"><a xlink:title=" ">
<path fill="none" stroke="#63b8ff" d="M700.12,-109.75C703.96,-102.49 709.52,-91.95 714.26,-82.98"/>
<polygon fill="#63b8ff" stroke="#63b8ff" points="717.39,-84.57 718.96,-74.09 711.2,-81.3 717.39,-84.57"/>
</a>
</g>
</g>
<!-- Node25 -->
<g id="Node000025" class="node">
<title>Node25</title>
<g id="a_Node000025"><a xlink:title=" ">
<polygon fill="#e0e0e0" stroke="#999999" points="831,-74 770,-74 770,-55 831,-55 831,-74"/>
<text text-anchor="middle" x="800.5" y="-62" font-family="Helvetica,sans-Serif" font-size="10.00">QPixmap</text>
</a>
</g>
</g>
<!-- Node22&#45;&gt;Node25 -->
<g id="edge30_Node000022_Node000025" class="edge">
<title>Node22&#45;&gt;Node25</title>
<g id="a_edge30_Node000022_Node000025"><a xlink:title=" ">
<path fill="none" stroke="#63b8ff" d="M712.37,-109.98C729.11,-101.54 755,-88.47 774.39,-78.68"/>
<polygon fill="#63b8ff" stroke="#63b8ff" points="775.97,-81.8 783.32,-74.17 772.82,-75.55 775.97,-81.8"/>
</a>
</g>
</g>
<!-- Node26 -->
<g id="Node000026" class="node">
<title>Node26</title>
<g id="a_Node000026"><a xlink:title=" ">
<polygon fill="#e0e0e0" stroke="#999999" points="911.5,-74 849.5,-74 849.5,-55 911.5,-55 911.5,-74"/>
<text text-anchor="middle" x="880.5" y="-62" font-family="Helvetica,sans-Serif" font-size="10.00">QProcess</text>
</a>
</g>
</g>
<!-- Node22&#45;&gt;Node26 -->
<g id="edge31_Node000022_Node000026" class="edge">
<title>Node22&#45;&gt;Node26</title>
<g id="a_edge31_Node000022_Node000026"><a xlink:title=" ">
<path fill="none" stroke="#63b8ff" d="M725.22,-109.98C756.55,-101.01 806.07,-86.82 840.74,-76.89"/>
<polygon fill="#63b8ff" stroke="#63b8ff" points="841.89,-80.2 850.54,-74.08 839.97,-73.47 841.89,-80.2"/>
</a>
</g>
</g>
<!-- Node27 -->
<g id="Node000027" class="node">
<title>Node27</title>
<g id="a_Node000027"><a xlink:title=" ">
<polygon fill="#e0e0e0" stroke="#999999" points="983,-74 930,-74 930,-55 983,-55 983,-74"/>
<text text-anchor="middle" x="956.5" y="-62" font-family="Helvetica,sans-Serif" font-size="10.00">QTimer</text>
</a>
</g>
</g>
<!-- Node22&#45;&gt;Node27 -->
<g id="edge32_Node000022_Node000027" class="edge">
<title>Node22&#45;&gt;Node27</title>
<g id="a_edge32_Node000022_Node000027"><a xlink:title=" ">
<path fill="none" stroke="#63b8ff" d="M741.28,-109.95C784.68,-101.74 851.95,-88.71 919.78,-74.09"/>
<polygon fill="#63b8ff" stroke="#63b8ff" points="920.76,-77.46 929.79,-71.92 919.27,-70.62 920.76,-77.46"/>
</a>
</g>
</g>
</g>
</svg>

<g id="navigator" transform="translate(0 0)" fill="#404254">
  <rect fill="#f2f5e9" fill-opacity="0.5" stroke="#606060" stroke-width=".5" x="0" y="0" width="60" height="60"/>
  <use id="zoomplus" xlink:href="#zoomPlus" x="17" y="9" onmousedown="handleZoom(evt,'in')"/>
  <use id="zoomminus" xlink:href="#zoomMin" x="42" y="9" onmousedown="handleZoom(evt,'out')"/>
  <use id="reset" xlink:href="#resetDef" x="30" y="36" onmousedown="handleReset()"/>
   <use id="arrowup" xlink:href="#arrowUp" x="0" y="0" onmousedown="handlePan(0,-1)"/>
  <use id="arrowright" xlink:href="#arrowRight" x="0" y="0" onmousedown="handlePan(1,0)"/>
  <use id="arrowdown" xlink:href="#arrowDown" x="0" y="0" onmousedown="handlePan(0,1)"/>
  <use id="arrowleft" xlink:href="#arrowLeft" x="0" y="0" onmousedown="handlePan(-1,0)"/>
</g>
<svg viewBox="0 0 15 15" width="100%" height="30px" preserveAspectRatio="xMaxYMin meet">
 <g id="arrow_out" transform="scale(0.3 0.3)">
  <a xlink:href="tst__ui_8cpp__incl_org.svg" target="_base">
   <rect id="button" ry="5" rx="5" y="6" x="6" height="38" width="38"
        fill="#f2f5e9" fill-opacity="0.5" stroke="#606060" stroke-width="1.0"/>
   <path id="arrow"
     d="M 11.500037,31.436501 C 11.940474,20.09759 22.043105,11.32322 32.158766,21.979434 L 37.068811,17.246167 C 37.068811,17.246167 37.088388,32 37.088388,32 L 22.160133,31.978069 C 22.160133,31.978069 26.997745,27.140456 26.997745,27.140456 C 18.528582,18.264221 13.291696,25.230495 11.500037,31.436501 z"
     style="fill:#404040;"/>
  </a>
 </g>
</svg>

<style type='text/css'>
<![CDATA[
[data-mouse-over-selected='false'] { opacity: 0.7; }
[data-mouse-over-selected='true']  { opacity: 1.0; }
]]>
</style>
<script type="application/ecmascript"><![CDATA[
document.addEventListener('DOMContentLoaded', (event) => {
  highlightEdges();
  highlightAdjacentNodes();
});
]]></script>
</svg>
