<?xml version="1.0" encoding="UTF-8" standalone="no"?>
<!DOCTYPE svg PUBLIC "-//W3C//DTD SVG 1.1//EN"
 "http://www.w3.org/Graphics/SVG/1.1/DTD/svg11.dtd">
<!-- Generated by graphviz version 2.40.1 (20161225.0304)
 -->
<!-- Title: src/ui_keygendialog.h Pages: 1 -->
<svg width="1993pt" height="82pt"
 viewBox="0.00 0.00 1993.05 82.00" xmlns="http://www.w3.org/2000/svg" xmlns:xlink="http://www.w3.org/1999/xlink">
<g id="graph0" class="graph" transform="scale(1 1) rotate(0) translate(4 78)">
<title>src/ui_keygendialog.h</title>
<!-- Node0 -->
<g id="node1" class="node">
<title>Node0</title>
<polygon fill="#bfbfbf" stroke="#000000" points="931.5034,-55.5 931.5034,-73.5 1044.2319,-73.5 1044.2319,-55.5 931.5034,-55.5"/>
<text text-anchor="middle" x="987.8677" y="-61.5" font-family="Helvetica,sans-Serif" font-size="10.00" fill="#000000">src/ui_keygendialog.h</text>
</g>
<!-- Node1 -->
<g id="node2" class="node">
<title>Node1</title>
<polygon fill="none" stroke="#bfbfbf" points="0,-.5 0,-18.5 89.7354,-18.5 89.7354,-.5 0,-.5"/>
<text text-anchor="middle" x="44.8677" y="-6.5" font-family="Helvetica,sans-Serif" font-size="10.00" fill="#000000">QtCore/QVariant</text>
</g>
<!-- Node0&#45;&gt;Node1 -->
<g id="edge1" class="edge">
<title>Node0&#45;&gt;Node1</title>
<path fill="none" stroke="#191970" d="M931.4347,-64.0833C791.9264,-62.5235 419.5458,-55.1331 100.2971,-19.1562"/>
<polygon fill="#191970" stroke="#191970" points="100.2481,-15.6281 89.9163,-17.974 99.456,-22.5831 100.2481,-15.6281"/>
</g>
<!-- Node2 -->
<g id="node3" class="node">
<title>Node2</title>
<polygon fill="none" stroke="#bfbfbf" points="107.353,-.5 107.353,-18.5 208.3823,-18.5 208.3823,-.5 107.353,-.5"/>
<text text-anchor="middle" x="157.8677" y="-6.5" font-family="Helvetica,sans-Serif" font-size="10.00" fill="#000000">QtWidgets/QAction</text>
</g>
<!-- Node0&#45;&gt;Node2 -->
<g id="edge2" class="edge">
<title>Node0&#45;&gt;Node2</title>
<path fill="none" stroke="#191970" d="M931.1959,-63.0523C805.0879,-59.4203 491.5784,-48.1205 218.659,-18.9729"/>
<polygon fill="#191970" stroke="#191970" points="218.8775,-15.4762 208.56,-17.8841 218.1271,-22.4359 218.8775,-15.4762"/>
</g>
<!-- Node3 -->
<g id="node4" class="node">
<title>Node3</title>
<polygon fill="none" stroke="#bfbfbf" points="226.7891,-.5 226.7891,-18.5 348.9463,-18.5 348.9463,-.5 226.7891,-.5"/>
<text text-anchor="middle" x="287.8677" y="-6.5" font-family="Helvetica,sans-Serif" font-size="10.00" fill="#000000">QtWidgets/QApplication</text>
</g>
<!-- Node0&#45;&gt;Node3 -->
<g id="edge3" class="edge">
<title>Node0&#45;&gt;Node3</title>
<path fill="none" stroke="#191970" d="M931.2902,-61.608C822.528,-55.7884 576.5186,-41.3667 359.2963,-19.0921"/>
<polygon fill="#191970" stroke="#191970" points="359.6084,-15.6058 349.3016,-18.0595 358.8889,-22.5688 359.6084,-15.6058"/>
</g>
<!-- Node4 -->
<g id="node5" class="node">
<title>Node4</title>
<polygon fill="none" stroke="#bfbfbf" points="366.8975,-.5 366.8975,-18.5 496.8379,-18.5 496.8379,-.5 366.8975,-.5"/>
<text text-anchor="middle" x="431.8677" y="-6.5" font-family="Helvetica,sans-Serif" font-size="10.00" fill="#000000">QtWidgets/QButtonGroup</text>
</g>
<!-- Node0&#45;&gt;Node4 -->
<g id="edge4" class="edge">
<title>Node0&#45;&gt;Node4</title>
<path fill="none" stroke="#191970" d="M931.4085,-59.7889C843.1769,-52.2903 666.9906,-36.7697 507.2353,-19.1223"/>
<polygon fill="#191970" stroke="#191970" points="507.5485,-15.6356 497.2234,-18.0111 506.7762,-22.5929 507.5485,-15.6356"/>
</g>
<!-- Node5 -->
<g id="node6" class="node">
<title>Node5</title>
<polygon fill="none" stroke="#bfbfbf" points="514.4614,-.5 514.4614,-18.5 633.2739,-18.5 633.2739,-.5 514.4614,-.5"/>
<text text-anchor="middle" x="573.8677" y="-6.5" font-family="Helvetica,sans-Serif" font-size="10.00" fill="#000000">QtWidgets/QCheckBox</text>
</g>
<!-- Node0&#45;&gt;Node5 -->
<g id="edge5" class="edge">
<title>Node0&#45;&gt;Node5</title>
<path fill="none" stroke="#191970" d="M931.2124,-57.1919C864.7449,-48.5863 750.933,-33.7519 643.5998,-19.2274"/>
<polygon fill="#191970" stroke="#191970" points="643.9474,-15.7426 633.568,-17.8682 643.0075,-22.6792 643.9474,-15.7426"/>
</g>
<!-- Node6 -->
<g id="node7" class="node">
<title>Node6</title>
<polygon fill="none" stroke="#bfbfbf" points="651.0747,-.5 651.0747,-18.5 752.6606,-18.5 752.6606,-.5 651.0747,-.5"/>
<text text-anchor="middle" x="701.8677" y="-6.5" font-family="Helvetica,sans-Serif" font-size="10.00" fill="#000000">QtWidgets/QDialog</text>
</g>
<!-- Node0&#45;&gt;Node6 -->
<g id="edge6" class="edge">
<title>Node0&#45;&gt;Node6</title>
<path fill="none" stroke="#191970" d="M940.9608,-55.4795C891.0872,-45.8884 812.189,-30.7156 758.7919,-20.447"/>
<polygon fill="#191970" stroke="#191970" points="759.2812,-16.977 748.8001,-18.5255 757.9592,-23.851 759.2812,-16.977"/>
</g>
<!-- Node7 -->
<g id="node8" class="node">
<title>Node7</title>
<polygon fill="none" stroke="#bfbfbf" points="771.0034,-.5 771.0034,-18.5 918.7319,-18.5 918.7319,-.5 771.0034,-.5"/>
<text text-anchor="middle" x="844.8677" y="-6.5" font-family="Helvetica,sans-Serif" font-size="10.00" fill="#000000">QtWidgets/QDialogButtonBox</text>
</g>
<!-- Node0&#45;&gt;Node7 -->
<g id="edge7" class="edge">
<title>Node0&#45;&gt;Node7</title>
<path fill="none" stroke="#191970" d="M964.2541,-55.4179C940.76,-46.3817 904.4994,-32.4353 878.1029,-22.2828"/>
<polygon fill="#191970" stroke="#191970" points="879.1062,-18.9188 868.5163,-18.5956 876.5933,-25.4522 879.1062,-18.9188"/>
</g>
<!-- Node8 -->
<g id="node9" class="node">
<title>Node8</title>
<polygon fill="none" stroke="#bfbfbf" points="936.8037,-.5 936.8037,-18.5 1038.9316,-18.5 1038.9316,-.5 936.8037,-.5"/>
<text text-anchor="middle" x="987.8677" y="-6.5" font-family="Helvetica,sans-Serif" font-size="10.00" fill="#000000">QtWidgets/QFrame</text>
</g>
<!-- Node0&#45;&gt;Node8 -->
<g id="edge8" class="edge">
<title>Node0&#45;&gt;Node8</title>
<path fill="none" stroke="#191970" d="M987.8677,-55.4179C987.8677,-48.2164 987.8677,-37.8962 987.8677,-28.8632"/>
<polygon fill="#191970" stroke="#191970" points="991.3678,-28.7794 987.8677,-18.7795 984.3678,-28.7795 991.3678,-28.7794"/>
</g>
<!-- Node9 -->
<g id="node10" class="node">
<title>Node9</title>
<polygon fill="none" stroke="#bfbfbf" points="1056.7915,-.5 1056.7915,-18.5 1178.9438,-18.5 1178.9438,-.5 1056.7915,-.5"/>
<text text-anchor="middle" x="1117.8677" y="-6.5" font-family="Helvetica,sans-Serif" font-size="10.00" fill="#000000">QtWidgets/QGridLayout</text>
</g>
<!-- Node0&#45;&gt;Node9 -->
<g id="edge9" class="edge">
<title>Node0&#45;&gt;Node9</title>
<path fill="none" stroke="#191970" d="M1009.3345,-55.4179C1030.5047,-46.4613 1063.0771,-32.6806 1087.0175,-22.552"/>
<polygon fill="#191970" stroke="#191970" points="1088.523,-25.7155 1096.3689,-18.5956 1085.7955,-19.2687 1088.523,-25.7155"/>
</g>
<!-- Node10 -->
<g id="node11" class="node">
<title>Node10</title>
<polygon fill="none" stroke="#bfbfbf" points="1197.1011,-.5 1197.1011,-18.5 1324.6343,-18.5 1324.6343,-.5 1197.1011,-.5"/>
<text text-anchor="middle" x="1260.8677" y="-6.5" font-family="Helvetica,sans-Serif" font-size="10.00" fill="#000000">QtWidgets/QHeaderView</text>
</g>
<!-- Node0&#45;&gt;Node10 -->
<g id="edge10" class="edge">
<title>Node0&#45;&gt;Node10</title>
<path fill="none" stroke="#191970" d="M1032.6424,-55.4795C1080.1501,-45.9083 1155.2479,-30.7787 1206.2127,-20.5111"/>
<polygon fill="#191970" stroke="#191970" points="1206.9568,-23.9316 1216.0685,-18.5255 1205.5742,-17.0695 1206.9568,-23.9316"/>
</g>
<!-- Node11 -->
<g id="node12" class="node">
<title>Node11</title>
<polygon fill="none" stroke="#bfbfbf" points="1343.0156,-.5 1343.0156,-18.5 1440.7197,-18.5 1440.7197,-.5 1343.0156,-.5"/>
<text text-anchor="middle" x="1391.8677" y="-6.5" font-family="Helvetica,sans-Serif" font-size="10.00" fill="#000000">QtWidgets/QLabel</text>
</g>
<!-- Node0&#45;&gt;Node11 -->
<g id="edge11" class="edge">
<title>Node0&#45;&gt;Node11</title>
<path fill="none" stroke="#191970" d="M1044.278,-57.6375C1110.7542,-49.4262 1224.807,-34.9504 1332.7472,-19.1283"/>
<polygon fill="#191970" stroke="#191970" points="1333.4535,-22.5621 1342.8369,-17.6426 1332.4337,-15.6368 1333.4535,-22.5621"/>
</g>
<!-- Node12 -->
<g id="node13" class="node">
<title>Node12</title>
<polygon fill="none" stroke="#bfbfbf" points="1459.1807,-.5 1459.1807,-18.5 1568.5547,-18.5 1568.5547,-.5 1459.1807,-.5"/>
<text text-anchor="middle" x="1513.8677" y="-6.5" font-family="Helvetica,sans-Serif" font-size="10.00" fill="#000000">QtWidgets/QLineEdit</text>
</g>
<!-- Node0&#45;&gt;Node12 -->
<g id="edge12" class="edge">
<title>Node0&#45;&gt;Node12</title>
<path fill="none" stroke="#191970" d="M1044.5078,-59.8256C1129.8472,-52.5832 1296.7193,-37.6469 1449.0662,-19.0443"/>
<polygon fill="#191970" stroke="#191970" points="1449.5807,-22.5075 1459.079,-17.8137 1448.7267,-15.5598 1449.5807,-22.5075"/>
</g>
<!-- Node13 -->
<g id="node14" class="node">
<title>Node13</title>
<polygon fill="none" stroke="#bfbfbf" points="1586.3457,-.5 1586.3457,-18.5 1717.3896,-18.5 1717.3896,-.5 1586.3457,-.5"/>
<text text-anchor="middle" x="1651.8677" y="-6.5" font-family="Helvetica,sans-Serif" font-size="10.00" fill="#000000">QtWidgets/QPlainTextEdit</text>
</g>
<!-- Node0&#45;&gt;Node13 -->
<g id="edge13" class="edge">
<title>Node0&#45;&gt;Node13</title>
<path fill="none" stroke="#191970" d="M1044.496,-61.0918C1147.9622,-54.6551 1374.7238,-39.5808 1575.9515,-19.1553"/>
<polygon fill="#191970" stroke="#191970" points="1576.5278,-22.6148 1586.1202,-18.1163 1575.8162,-15.651 1576.5278,-22.6148"/>
</g>
<!-- Node14 -->
<g id="node15" class="node">
<title>Node14</title>
<polygon fill="none" stroke="#bfbfbf" points="1735.2866,-.5 1735.2866,-18.5 1862.4487,-18.5 1862.4487,-.5 1735.2866,-.5"/>
<text text-anchor="middle" x="1798.8677" y="-6.5" font-family="Helvetica,sans-Serif" font-size="10.00" fill="#000000">QtWidgets/QVBoxLayout</text>
</g>
<!-- Node0&#45;&gt;Node14 -->
<g id="edge14" class="edge">
<title>Node0&#45;&gt;Node14</title>
<path fill="none" stroke="#191970" d="M1044.528,-62.3594C1166.8959,-57.4446 1465.1954,-43.8934 1724.9053,-19.1355"/>
<polygon fill="#191970" stroke="#191970" points="1725.2847,-22.6152 1734.9042,-18.1749 1724.6152,-15.6473 1725.2847,-22.6152"/>
</g>
<!-- Node15 -->
<g id="node16" class="node">
<title>Node15</title>
<polygon fill="none" stroke="#bfbfbf" points="1880.688,-.5 1880.688,-18.5 1985.0474,-18.5 1985.0474,-.5 1880.688,-.5"/>
<text text-anchor="middle" x="1932.8677" y="-6.5" font-family="Helvetica,sans-Serif" font-size="10.00" fill="#000000">QtWidgets/QWidget</text>
</g>
<!-- Node0&#45;&gt;Node15 -->
<g id="edge15" class="edge">
<title>Node0&#45;&gt;Node15</title>
<path fill="none" stroke="#191970" d="M1044.3878,-63.6093C1183.2491,-60.9872 1552.3687,-51.3908 1870.3306,-19.0528"/>
<polygon fill="#191970" stroke="#191970" points="1871.08,-22.4943 1880.6702,-17.9913 1870.365,-15.5309 1871.08,-22.4943"/>
</g>
</g>
</svg>
