<?xml version="1.0" encoding="UTF-8" standalone="no"?>
<!DOCTYPE svg PUBLIC "-//W3C//DTD SVG 1.1//EN"
 "http://www.w3.org/Graphics/SVG/1.1/DTD/svg11.dtd">
<!-- Generated by graphviz version 2.38.0 (20140413.2041)
 -->
<!-- Title: ui_usersdialog.h Pages: 1 -->
<!--zoomable 82 -->
<svg id="main" version="1.1" xmlns="http://www.w3.org/2000/svg" xmlns:xlink="http://www.w3.org/1999/xlink" xml:space="preserve" onload="init(evt)">
<style type="text/css"><![CDATA[
.edge:hover path { stroke: red; }
.edge:hover polygon { stroke: red; fill: red; }
]]></style>
<script type="text/javascript"><![CDATA[
var edges = document.getElementsByTagName('g');
if (edges && edges.length) {
  for (var i=0;i<edges.length;i++) {
    if (edges[i].id.substr(0,4)=='edge') {
      edges[i].setAttribute('class','edge');
    }
  }
}
]]></script>
        <defs>
                <circle id="rim" cx="0" cy="0" r="7"/>
                <circle id="rim2" cx="0" cy="0" r="3.5"/>
                <g id="zoomPlus">
                        <use xlink:href="#rim" fill="#404040">
                                <set attributeName="fill" to="#808080" begin="zoomplus.mouseover" end="zoomplus.mouseout"/>
                        </use>
                        <path d="M-4,0h8M0,-4v8" fill="none" stroke="white" stroke-width="1.5" pointer-events="none"/>
                </g>
                <g id="zoomMin">
                        <use xlink:href="#rim" fill="#404040">
                                <set attributeName="fill" to="#808080" begin="zoomminus.mouseover" end="zoomminus.mouseout"/>
                        </use>
                        <path d="M-4,0h8" fill="none" stroke="white" stroke-width="1.5" pointer-events="none"/>
                </g>
                <g id="dirArrow">
                        <path fill="none" stroke="white" stroke-width="1.5" d="M0,-3.0v7 M-2.5,-0.5L0,-3.0L2.5,-0.5"/>
                </g>
               <g id="resetDef">
                       <use xlink:href="#rim2" fill="#404040">
                               <set attributeName="fill" to="#808080" begin="reset.mouseover" end="reset.mouseout"/>
                       </use>
               </g>
        </defs>

<script type="text/javascript">
var viewWidth = 1746;
var viewHeight = 82;
var sectionId = 'dynsection-0';
</script>
<script xlink:href="svgpan.js"/>
<svg id="graph" class="graph">
<g id="viewport">
<title>ui_usersdialog.h</title>
<!-- Node0 -->
<g id="node1" class="node"><title>Node0</title>
<polygon fill="#bfbfbf" stroke="black" points="800.454,-55.5 800.454,-73.5 889.281,-73.5 889.281,-55.5 800.454,-55.5"/>
<text text-anchor="middle" x="844.868" y="-61.5" font-family="Helvetica,sans-Serif" font-size="10.00">ui_usersdialog.h</text>
</g>
<!-- Node1 -->
<g id="node2" class="node"><title>Node1</title>
<polygon fill="none" stroke="#bfbfbf" points="0,-0.5 0,-18.5 89.7354,-18.5 89.7354,-0.5 0,-0.5"/>
<text text-anchor="middle" x="44.8677" y="-6.5" font-family="Helvetica,sans-Serif" font-size="10.00">QtCore/QVariant</text>
</g>
<!-- Node0&#45;&gt;Node1 -->
<g id="edge1" class="edge"><title>Node0&#45;&gt;Node1</title>
<path fill="none" stroke="midnightblue" d="M800.112,-62.3869C685.344,-59.2003 371.054,-48.3814 99.9622,-19.1329"/>
<polygon fill="midnightblue" stroke="midnightblue" points="100.252,-15.6439 89.9321,-18.0401 99.4941,-22.6027 100.252,-15.6439"/>
</g>
<!-- Node2 -->
<g id="node3" class="node"><title>Node2</title>
<polygon fill="none" stroke="#bfbfbf" points="107.353,-0.5 107.353,-18.5 208.382,-18.5 208.382,-0.5 107.353,-0.5"/>
<text text-anchor="middle" x="157.868" y="-6.5" font-family="Helvetica,sans-Serif" font-size="10.00">QtWidgets/QAction</text>
</g>
<!-- Node0&#45;&gt;Node2 -->
<g id="edge2" class="edge"><title>Node0&#45;&gt;Node2</title>
<path fill="none" stroke="midnightblue" d="M800.301,-61.409C698.973,-56.424 443.352,-42.5477 218.579,-18.9944"/>
<polygon fill="midnightblue" stroke="midnightblue" points="218.888,-15.5077 208.576,-17.9375 218.153,-22.4689 218.888,-15.5077"/>
</g>
<!-- Node3 -->
<g id="node4" class="node"><title>Node3</title>
<polygon fill="none" stroke="#bfbfbf" points="226.789,-0.5 226.789,-18.5 348.946,-18.5 348.946,-0.5 226.789,-0.5"/>
<text text-anchor="middle" x="287.868" y="-6.5" font-family="Helvetica,sans-Serif" font-size="10.00">QtWidgets/QApplication</text>
</g>
<!-- Node0&#45;&gt;Node3 -->
<g id="edge3" class="edge"><title>Node0&#45;&gt;Node3</title>
<path fill="none" stroke="midnightblue" d="M800.173,-59.8631C716.036,-52.9195 528.124,-36.9506 359.377,-19.1332"/>
<polygon fill="midnightblue" stroke="midnightblue" points="359.629,-15.6405 349.316,-18.0663 358.891,-22.6014 359.629,-15.6405"/>
</g>
<!-- Node4 -->
<g id="node5" class="node"><title>Node4</title>
<polygon fill="none" stroke="#bfbfbf" points="366.897,-0.5 366.897,-18.5 496.838,-18.5 496.838,-0.5 366.897,-0.5"/>
<text text-anchor="middle" x="431.868" y="-6.5" font-family="Helvetica,sans-Serif" font-size="10.00">QtWidgets/QButtonGroup</text>
</g>
<!-- Node0&#45;&gt;Node4 -->
<g id="edge4" class="edge"><title>Node0&#45;&gt;Node4</title>
<path fill="none" stroke="midnightblue" d="M800.277,-57.7777C729.324,-48.6724 590.028,-30.7966 504.523,-19.8239"/>
<polygon fill="midnightblue" stroke="midnightblue" points="504.735,-16.3224 494.371,-18.521 503.844,-23.2655 504.735,-16.3224"/>
</g>
<!-- Node5 -->
<g id="node6" class="node"><title>Node5</title>
<polygon fill="none" stroke="#bfbfbf" points="514.461,-0.5 514.461,-18.5 633.274,-18.5 633.274,-0.5 514.461,-0.5"/>
<text text-anchor="middle" x="573.868" y="-6.5" font-family="Helvetica,sans-Serif" font-size="10.00">QtWidgets/QCheckBox</text>
</g>
<!-- Node0&#45;&gt;Node5 -->
<g id="edge5" class="edge"><title>Node0&#45;&gt;Node5</title>
<path fill="none" stroke="midnightblue" d="M803.709,-55.4504C755.817,-46.0843 676.712,-30.6136 624.942,-20.4886"/>
<polygon fill="midnightblue" stroke="midnightblue" points="625.455,-17.0228 614.969,-18.5383 624.111,-23.8927 625.455,-17.0228"/>
</g>
<!-- Node6 -->
<g id="node7" class="node"><title>Node6</title>
<polygon fill="none" stroke="#bfbfbf" points="651.075,-0.5 651.075,-18.5 752.661,-18.5 752.661,-0.5 651.075,-0.5"/>
<text text-anchor="middle" x="701.868" y="-6.5" font-family="Helvetica,sans-Serif" font-size="10.00">QtWidgets/QDialog</text>
</g>
<!-- Node0&#45;&gt;Node6 -->
<g id="edge6" class="edge"><title>Node0&#45;&gt;Node6</title>
<path fill="none" stroke="midnightblue" d="M823.149,-55.4504C799.211,-46.5784 760.495,-32.2288 733.257,-22.134"/>
<polygon fill="midnightblue" stroke="midnightblue" points="734.384,-18.8188 723.791,-18.6253 731.951,-25.3825 734.384,-18.8188"/>
</g>
<!-- Node7 -->
<g id="node8" class="node"><title>Node7</title>
<polygon fill="none" stroke="#bfbfbf" points="771.003,-0.5 771.003,-18.5 918.732,-18.5 918.732,-0.5 771.003,-0.5"/>
<text text-anchor="middle" x="844.868" y="-6.5" font-family="Helvetica,sans-Serif" font-size="10.00">QtWidgets/QDialogButtonBox</text>
</g>
<!-- Node0&#45;&gt;Node7 -->
<g id="edge7" class="edge"><title>Node0&#45;&gt;Node7</title>
<path fill="none" stroke="midnightblue" d="M844.868,-55.2188C844.868,-48.1769 844.868,-37.8083 844.868,-28.8277"/>
<polygon fill="midnightblue" stroke="midnightblue" points="848.368,-28.5495 844.868,-18.5496 841.368,-28.5496 848.368,-28.5495"/>
</g>
<!-- Node8 -->
<g id="node9" class="node"><title>Node8</title>
<polygon fill="none" stroke="#bfbfbf" points="937.011,-0.5 937.011,-18.5 1064.72,-18.5 1064.72,-0.5 937.011,-0.5"/>
<text text-anchor="middle" x="1000.87" y="-6.5" font-family="Helvetica,sans-Serif" font-size="10.00">QtWidgets/QHBoxLayout</text>
</g>
<!-- Node0&#45;&gt;Node8 -->
<g id="edge8" class="edge"><title>Node0&#45;&gt;Node8</title>
<path fill="none" stroke="midnightblue" d="M868.561,-55.4504C894.98,-46.4745 937.902,-31.8922 967.662,-21.7813"/>
<polygon fill="midnightblue" stroke="midnightblue" points="968.865,-25.0692 977.208,-18.5383 966.613,-18.4413 968.865,-25.0692"/>
</g>
<!-- Node9 -->
<g id="node10" class="node"><title>Node9</title>
<polygon fill="none" stroke="#bfbfbf" points="1083.1,-0.5 1083.1,-18.5 1210.63,-18.5 1210.63,-0.5 1083.1,-0.5"/>
<text text-anchor="middle" x="1146.87" y="-6.5" font-family="Helvetica,sans-Serif" font-size="10.00">QtWidgets/QHeaderView</text>
</g>
<!-- Node0&#45;&gt;Node9 -->
<g id="edge9" class="edge"><title>Node0&#45;&gt;Node9</title>
<path fill="none" stroke="midnightblue" d="M889.429,-55.6797C942.983,-46.281 1032.88,-30.5042 1091.02,-20.3011"/>
<polygon fill="midnightblue" stroke="midnightblue" points="1091.89,-23.7021 1101.13,-18.5262 1090.68,-16.8075 1091.89,-23.7021"/>
</g>
<!-- Node10 -->
<g id="node11" class="node"><title>Node10</title>
<polygon fill="none" stroke="#bfbfbf" points="1229.02,-0.5 1229.02,-18.5 1326.72,-18.5 1326.72,-0.5 1229.02,-0.5"/>
<text text-anchor="middle" x="1277.87" y="-6.5" font-family="Helvetica,sans-Serif" font-size="10.00">QtWidgets/QLabel</text>
</g>
<!-- Node0&#45;&gt;Node10 -->
<g id="edge10" class="edge"><title>Node0&#45;&gt;Node10</title>
<path fill="none" stroke="midnightblue" d="M889.366,-58.6189C957.79,-51.0257 1093.22,-35.6505 1218.67,-19.1273"/>
<polygon fill="midnightblue" stroke="midnightblue" points="1219.38,-22.5635 1228.83,-17.7825 1218.46,-15.624 1219.38,-22.5635"/>
</g>
<!-- Node11 -->
<g id="node12" class="node"><title>Node11</title>
<polygon fill="none" stroke="#bfbfbf" points="1345.18,-0.5 1345.18,-18.5 1454.55,-18.5 1454.55,-0.5 1345.18,-0.5"/>
<text text-anchor="middle" x="1399.87" y="-6.5" font-family="Helvetica,sans-Serif" font-size="10.00">QtWidgets/QLineEdit</text>
</g>
<!-- Node0&#45;&gt;Node11 -->
<g id="edge11" class="edge"><title>Node0&#45;&gt;Node11</title>
<path fill="none" stroke="midnightblue" d="M889.612,-60.0724C974.305,-53.4482 1164.09,-37.9545 1334.89,-19.063"/>
<polygon fill="midnightblue" stroke="midnightblue" points="1335.52,-22.5144 1345.07,-17.93 1334.75,-15.5573 1335.52,-22.5144"/>
</g>
<!-- Node12 -->
<g id="node13" class="node"><title>Node12</title>
<polygon fill="none" stroke="#bfbfbf" points="1472.91,-0.5 1472.91,-18.5 1592.83,-18.5 1592.83,-0.5 1472.91,-0.5"/>
<text text-anchor="middle" x="1532.87" y="-6.5" font-family="Helvetica,sans-Serif" font-size="10.00">QtWidgets/QListWidget</text>
</g>
<!-- Node0&#45;&gt;Node12 -->
<g id="edge12" class="edge"><title>Node0&#45;&gt;Node12</title>
<path fill="none" stroke="midnightblue" d="M889.599,-61.066C990.043,-55.4319 1241.37,-40.396 1462.5,-19.0845"/>
<polygon fill="midnightblue" stroke="midnightblue" points="1463.06,-22.5469 1472.68,-18.0975 1462.39,-15.5796 1463.06,-22.5469"/>
</g>
<!-- Node13 -->
<g id="node14" class="node"><title>Node13</title>
<polygon fill="none" stroke="#bfbfbf" points="1611.29,-0.5 1611.29,-18.5 1738.45,-18.5 1738.45,-0.5 1611.29,-0.5"/>
<text text-anchor="middle" x="1674.87" y="-6.5" font-family="Helvetica,sans-Serif" font-size="10.00">QtWidgets/QVBoxLayout</text>
</g>
<!-- Node0&#45;&gt;Node13 -->
<g id="edge13" class="edge"><title>Node0&#45;&gt;Node13</title>
<path fill="none" stroke="midnightblue" d="M889.301,-61.777C1004.73,-57.1108 1323.78,-43.0004 1600.93,-19.0253"/>
<polygon fill="midnightblue" stroke="midnightblue" points="1601.53,-22.4867 1611.19,-18.1319 1600.92,-15.5131 1601.53,-22.4867"/>
</g>
</g>
</svg>
        <g id="navigator" transform="translate(0 0)" fill="#404254">
                <rect fill="#f2f5e9" fill-opacity="0.5" stroke="#606060" stroke-width=".5" x="0" y="0" width="60" height="60"/>
                <use id="zoomplus" xlink:href="#zoomPlus" x="17" y="9" onmousedown="handleZoom(evt,'in')"/>
                <use id="zoomminus" xlink:href="#zoomMin" x="42" y="9" onmousedown="handleZoom(evt,'out')"/>
                <use id="reset" xlink:href="#resetDef" x="30" y="36" onmousedown="handleReset()"/>
                <g id="arrowUp" xlink:href="#dirArrow" transform="translate(30 24)" onmousedown="handlePan(0,-1)">
                  <use xlink:href="#rim" fill="#404040">
                        <set attributeName="fill" to="#808080" begin="arrowUp.mouseover" end="arrowUp.mouseout"/>
                  </use>
                  <path fill="none" stroke="white" stroke-width="1.5" d="M0,-3.0v7 M-2.5,-0.5L0,-3.0L2.5,-0.5"/>
                </g>
                <g id="arrowRight" xlink:href="#dirArrow" transform="rotate(90) translate(36 -43)" onmousedown="handlePan(1,0)">
                  <use xlink:href="#rim" fill="#404040">
                        <set attributeName="fill" to="#808080" begin="arrowRight.mouseover" end="arrowRight.mouseout"/>
                  </use>
                  <path fill="none" stroke="white" stroke-width="1.5" d="M0,-3.0v7 M-2.5,-0.5L0,-3.0L2.5,-0.5"/>
                </g>
                <g id="arrowDown" xlink:href="#dirArrow" transform="rotate(180) translate(-30 -48)" onmousedown="handlePan(0,1)">
                  <use xlink:href="#rim" fill="#404040">
                        <set attributeName="fill" to="#808080" begin="arrowDown.mouseover" end="arrowDown.mouseout"/>
                  </use>
                  <path fill="none" stroke="white" stroke-width="1.5" d="M0,-3.0v7 M-2.5,-0.5L0,-3.0L2.5,-0.5"/>
                </g>
                <g id="arrowLeft" xlink:href="#dirArrow" transform="rotate(270) translate(-36 17)" onmousedown="handlePan(-1,0)">
                  <use xlink:href="#rim" fill="#404040">
                        <set attributeName="fill" to="#808080" begin="arrowLeft.mouseover" end="arrowLeft.mouseout"/>
                  </use>
                  <path fill="none" stroke="white" stroke-width="1.5" d="M0,-3.0v7 M-2.5,-0.5L0,-3.0L2.5,-0.5"/>
                </g>
        </g>
        <svg viewBox="0 0 15 15" width="100%" height="30px" preserveAspectRatio="xMaxYMin meet">
         <g id="arrow_out" transform="scale(0.3 0.3)">
          <a xlink:href="ui__usersdialog_8h__incl_org.svg" target="_base">
           <rect id="button" ry="5" rx="5" y="6" x="6" height="38" width="38"
                fill="#f2f5e9" fill-opacity="0.5" stroke="#606060" stroke-width="1.0"/>
           <path id="arrow"
             d="M 11.500037,31.436501 C 11.940474,20.09759 22.043105,11.32322 32.158766,21.979434 L 37.068811,17.246167 C 37.068811,17.246167 37.088388,32 37.088388,32 L 22.160133,31.978069 C 22.160133,31.978069 26.997745,27.140456 26.997745,27.140456 C 18.528582,18.264221 13.291696,25.230495 11.500037,31.436501 z"
             style="fill:#404040;"/>
          </a>
         </g>
        </svg>
</svg>
