<?xml version="1.0" encoding="UTF-8" standalone="no"?>
<!DOCTYPE svg PUBLIC "-//W3C//DTD SVG 1.1//EN"
 "http://www.w3.org/Graphics/SVG/1.1/DTD/svg11.dtd">
<!-- Generated by graphviz version 2.40.1 (20161225.0304)
 -->
<!-- Title: src/ui_usersdialog.h Pages: 1 -->
<svg width="1746pt" height="82pt"
 viewBox="0.00 0.00 1746.45 82.00" xmlns="http://www.w3.org/2000/svg" xmlns:xlink="http://www.w3.org/1999/xlink">
<g id="graph0" class="graph" transform="scale(1 1) rotate(0) translate(4 78)">
<title>src/ui_usersdialog.h</title>
<!-- Node0 -->
<g id="node1" class="node">
<title>Node0</title>
<polygon fill="#bfbfbf" stroke="#000000" points="792.3999,-55.5 792.3999,-73.5 897.3354,-73.5 897.3354,-55.5 792.3999,-55.5"/>
<text text-anchor="middle" x="844.8677" y="-61.5" font-family="Helvetica,sans-Serif" font-size="10.00" fill="#000000">src/ui_usersdialog.h</text>
</g>
<!-- Node1 -->
<g id="node2" class="node">
<title>Node1</title>
<polygon fill="none" stroke="#bfbfbf" points="0,-.5 0,-18.5 89.7354,-18.5 89.7354,-.5 0,-.5"/>
<text text-anchor="middle" x="44.8677" y="-6.5" font-family="Helvetica,sans-Serif" font-size="10.00" fill="#000000">QtCore/QVariant</text>
</g>
<!-- Node0&#45;&gt;Node1 -->
<g id="edge1" class="edge">
<title>Node0&#45;&gt;Node1</title>
<path fill="none" stroke="#191970" d="M792.1504,-63.3987C671.3445,-60.4208 365.0796,-50.2914 100.1198,-19.1554"/>
<polygon fill="#191970" stroke="#191970" points="100.2629,-15.6479 89.9198,-17.9439 99.4372,-22.599 100.2629,-15.6479"/>
</g>
<!-- Node2 -->
<g id="node3" class="node">
<title>Node2</title>
<polygon fill="none" stroke="#bfbfbf" points="107.353,-.5 107.353,-18.5 208.3823,-18.5 208.3823,-.5 107.353,-.5"/>
<text text-anchor="middle" x="157.8677" y="-6.5" font-family="Helvetica,sans-Serif" font-size="10.00" fill="#000000">QtWidgets/QAction</text>
</g>
<!-- Node0&#45;&gt;Node2 -->
<g id="edge2" class="edge">
<title>Node0&#45;&gt;Node2</title>
<path fill="none" stroke="#191970" d="M792.2936,-62.1898C686.0012,-57.1928 437.7692,-43.8701 218.6474,-18.9913"/>
<polygon fill="#191970" stroke="#191970" points="218.8988,-15.4973 208.5653,-17.836 218.1018,-22.4518 218.8988,-15.4973"/>
</g>
<!-- Node3 -->
<g id="node4" class="node">
<title>Node3</title>
<polygon fill="none" stroke="#bfbfbf" points="226.7891,-.5 226.7891,-18.5 348.9463,-18.5 348.9463,-.5 226.7891,-.5"/>
<text text-anchor="middle" x="287.8677" y="-6.5" font-family="Helvetica,sans-Serif" font-size="10.00" fill="#000000">QtWidgets/QApplication</text>
</g>
<!-- Node0&#45;&gt;Node3 -->
<g id="edge3" class="edge">
<title>Node0&#45;&gt;Node3</title>
<path fill="none" stroke="#191970" d="M792.185,-60.3031C704.6014,-53.1669 523.2654,-37.7178 359.5675,-19.1561"/>
<polygon fill="#191970" stroke="#191970" points="359.6418,-15.642 349.3096,-17.9861 358.8485,-22.5969 359.6418,-15.642"/>
</g>
<!-- Node4 -->
<g id="node5" class="node">
<title>Node4</title>
<polygon fill="none" stroke="#bfbfbf" points="366.8975,-.5 366.8975,-18.5 496.8379,-18.5 496.8379,-.5 366.8975,-.5"/>
<text text-anchor="middle" x="431.8677" y="-6.5" font-family="Helvetica,sans-Serif" font-size="10.00" fill="#000000">QtWidgets/QButtonGroup</text>
</g>
<!-- Node0&#45;&gt;Node4 -->
<g id="edge4" class="edge">
<title>Node0&#45;&gt;Node4</title>
<path fill="none" stroke="#191970" d="M792.1414,-57.4783C719.8084,-47.8456 589.4023,-30.4792 506.9076,-19.4932"/>
<polygon fill="#191970" stroke="#191970" points="507.2176,-16.0037 496.843,-18.1529 506.2935,-22.9424 507.2176,-16.0037"/>
</g>
<!-- Node5 -->
<g id="node6" class="node">
<title>Node5</title>
<polygon fill="none" stroke="#bfbfbf" points="514.4614,-.5 514.4614,-18.5 633.2739,-18.5 633.2739,-.5 514.4614,-.5"/>
<text text-anchor="middle" x="573.8677" y="-6.5" font-family="Helvetica,sans-Serif" font-size="10.00" fill="#000000">QtWidgets/QCheckBox</text>
</g>
<!-- Node0&#45;&gt;Node5 -->
<g id="edge5" class="edge">
<title>Node0&#45;&gt;Node5</title>
<path fill="none" stroke="#191970" d="M800.421,-55.4795C753.3596,-45.9282 679.0242,-30.8417 628.4388,-20.5753"/>
<polygon fill="#191970" stroke="#191970" points="628.835,-17.0844 618.3386,-18.5255 627.4427,-23.9446 628.835,-17.0844"/>
</g>
<!-- Node6 -->
<g id="node7" class="node">
<title>Node6</title>
<polygon fill="none" stroke="#bfbfbf" points="651.0747,-.5 651.0747,-18.5 752.6606,-18.5 752.6606,-.5 651.0747,-.5"/>
<text text-anchor="middle" x="701.8677" y="-6.5" font-family="Helvetica,sans-Serif" font-size="10.00" fill="#000000">QtWidgets/QDialog</text>
</g>
<!-- Node0&#45;&gt;Node6 -->
<g id="edge6" class="edge">
<title>Node0&#45;&gt;Node6</title>
<path fill="none" stroke="#191970" d="M821.2541,-55.4179C797.76,-46.3817 761.4994,-32.4353 735.1029,-22.2828"/>
<polygon fill="#191970" stroke="#191970" points="736.1062,-18.9188 725.5163,-18.5956 733.5933,-25.4522 736.1062,-18.9188"/>
</g>
<!-- Node7 -->
<g id="node8" class="node">
<title>Node7</title>
<polygon fill="none" stroke="#bfbfbf" points="771.0034,-.5 771.0034,-18.5 918.7319,-18.5 918.7319,-.5 771.0034,-.5"/>
<text text-anchor="middle" x="844.8677" y="-6.5" font-family="Helvetica,sans-Serif" font-size="10.00" fill="#000000">QtWidgets/QDialogButtonBox</text>
</g>
<!-- Node0&#45;&gt;Node7 -->
<g id="edge7" class="edge">
<title>Node0&#45;&gt;Node7</title>
<path fill="none" stroke="#191970" d="M844.8677,-55.4179C844.8677,-48.2164 844.8677,-37.8962 844.8677,-28.8632"/>
<polygon fill="#191970" stroke="#191970" points="848.3678,-28.7794 844.8677,-18.7795 841.3678,-28.7795 848.3678,-28.7794"/>
</g>
<!-- Node8 -->
<g id="node9" class="node">
<title>Node8</title>
<polygon fill="none" stroke="#bfbfbf" points="937.0107,-.5 937.0107,-18.5 1064.7246,-18.5 1064.7246,-.5 937.0107,-.5"/>
<text text-anchor="middle" x="1000.8677" y="-6.5" font-family="Helvetica,sans-Serif" font-size="10.00" fill="#000000">QtWidgets/QHBoxLayout</text>
</g>
<!-- Node0&#45;&gt;Node8 -->
<g id="edge8" class="edge">
<title>Node0&#45;&gt;Node8</title>
<path fill="none" stroke="#191970" d="M870.6279,-55.4179C896.5611,-46.2748 936.7528,-32.1046 965.6286,-21.924"/>
<polygon fill="#191970" stroke="#191970" points="967.0612,-25.1302 975.3285,-18.5042 964.7337,-18.5285 967.0612,-25.1302"/>
</g>
<!-- Node9 -->
<g id="node10" class="node">
<title>Node9</title>
<polygon fill="none" stroke="#bfbfbf" points="1083.1011,-.5 1083.1011,-18.5 1210.6343,-18.5 1210.6343,-.5 1083.1011,-.5"/>
<text text-anchor="middle" x="1146.8677" y="-6.5" font-family="Helvetica,sans-Serif" font-size="10.00" fill="#000000">QtWidgets/QHeaderView</text>
</g>
<!-- Node0&#45;&gt;Node9 -->
<g id="edge9" class="edge">
<title>Node0&#45;&gt;Node9</title>
<path fill="none" stroke="#191970" d="M894.3987,-55.4795C947.2814,-45.8485 1031.0678,-30.5894 1087.4608,-20.3191"/>
<polygon fill="#191970" stroke="#191970" points="1088.0986,-23.7606 1097.3096,-18.5255 1086.8443,-16.8739 1088.0986,-23.7606"/>
</g>
<!-- Node10 -->
<g id="node11" class="node">
<title>Node10</title>
<polygon fill="none" stroke="#bfbfbf" points="1229.0156,-.5 1229.0156,-18.5 1326.7197,-18.5 1326.7197,-.5 1229.0156,-.5"/>
<text text-anchor="middle" x="1277.8677" y="-6.5" font-family="Helvetica,sans-Serif" font-size="10.00" fill="#000000">QtWidgets/QLabel</text>
</g>
<!-- Node0&#45;&gt;Node10 -->
<g id="edge10" class="edge">
<title>Node0&#45;&gt;Node10</title>
<path fill="none" stroke="#191970" d="M897.4376,-58.8199C968.0718,-51.0331 1097.7723,-36.1928 1218.6683,-19.1221"/>
<polygon fill="#191970" stroke="#191970" points="1219.4335,-22.5486 1228.842,-17.6772 1218.4491,-15.6182 1219.4335,-22.5486"/>
</g>
<!-- Node11 -->
<g id="node12" class="node">
<title>Node11</title>
<polygon fill="none" stroke="#bfbfbf" points="1345.1807,-.5 1345.1807,-18.5 1454.5547,-18.5 1454.5547,-.5 1345.1807,-.5"/>
<text text-anchor="middle" x="1399.8677" y="-6.5" font-family="Helvetica,sans-Serif" font-size="10.00" fill="#000000">QtWidgets/QLineEdit</text>
</g>
<!-- Node0&#45;&gt;Node11 -->
<g id="edge11" class="edge">
<title>Node0&#45;&gt;Node11</title>
<path fill="none" stroke="#191970" d="M897.6482,-60.566C985.8485,-53.7822 1169.0055,-38.8023 1334.6982,-19.0796"/>
<polygon fill="#191970" stroke="#191970" points="1335.5694,-22.5003 1345.0816,-17.8345 1334.736,-15.55 1335.5694,-22.5003"/>
</g>
<!-- Node12 -->
<g id="node13" class="node">
<title>Node12</title>
<polygon fill="none" stroke="#bfbfbf" points="1472.9072,-.5 1472.9072,-18.5 1592.8281,-18.5 1592.8281,-.5 1472.9072,-.5"/>
<text text-anchor="middle" x="1532.8677" y="-6.5" font-family="Helvetica,sans-Serif" font-size="10.00" fill="#000000">QtWidgets/QListWidget</text>
</g>
<!-- Node0&#45;&gt;Node12 -->
<g id="edge12" class="edge">
<title>Node0&#45;&gt;Node12</title>
<path fill="none" stroke="#191970" d="M897.5503,-61.758C1002.8188,-56.0335 1246.8544,-41.5335 1462.4405,-19.0898"/>
<polygon fill="#191970" stroke="#191970" points="1463.1041,-22.5395 1472.6843,-18.0151 1462.3736,-15.5777 1463.1041,-22.5395"/>
</g>
<!-- Node13 -->
<g id="node14" class="node">
<title>Node13</title>
<polygon fill="none" stroke="#bfbfbf" points="1611.2866,-.5 1611.2866,-18.5 1738.4487,-18.5 1738.4487,-.5 1611.2866,-.5"/>
<text text-anchor="middle" x="1674.8677" y="-6.5" font-family="Helvetica,sans-Serif" font-size="10.00" fill="#000000">QtWidgets/QVBoxLayout</text>
</g>
<!-- Node0&#45;&gt;Node13 -->
<g id="edge13" class="edge">
<title>Node0&#45;&gt;Node13</title>
<path fill="none" stroke="#191970" d="M897.736,-62.5855C1019.7032,-57.8965 1330.3807,-44.3956 1601.1751,-18.9974"/>
<polygon fill="#191970" stroke="#191970" points="1601.5695,-22.4759 1611.1958,-18.0504 1600.9108,-15.5069 1601.5695,-22.4759"/>
</g>
</g>
</svg>
