<?xml version="1.0" encoding="UTF-8" standalone="no"?>
<!DOCTYPE svg PUBLIC "-//W3C//DTD SVG 1.1//EN"
 "http://www.w3.org/Graphics/SVG/1.1/DTD/svg11.dtd">
<!-- Generated by graphviz version 2.38.0 (20140413.2041)
 -->
<!-- Title: src/usersdialog.cpp Pages: 1 -->
<svg width="2323pt" height="192pt"
 viewBox="0.00 0.00 2322.96 192.00" xmlns="http://www.w3.org/2000/svg" xmlns:xlink="http://www.w3.org/1999/xlink">
<g id="graph0" class="graph" transform="scale(1 1) rotate(0) translate(4 188)">
<title>src/usersdialog.cpp</title>
<!-- Node0 -->
<g id="node1" class="node"><title>Node0</title>
<polygon fill="#bfbfbf" stroke="black" points="1040.3,-165.5 1040.3,-183.5 1142.45,-183.5 1142.45,-165.5 1040.3,-165.5"/>
<text text-anchor="middle" x="1091.38" y="-171.5" font-family="Helvetica,sans-Serif" font-size="10.00">src/usersdialog.cpp</text>
</g>
<!-- Node1 -->
<g id="node2" class="node"><title>Node1</title>
<g id="a_node2"><a xlink:href="usersdialog_8h.html" target="_top" xlink:title="usersdialog.h">
<polygon fill="none" stroke="black" points="237.637,-110.5 237.637,-128.5 313.12,-128.5 313.12,-110.5 237.637,-110.5"/>
<text text-anchor="middle" x="275.378" y="-116.5" font-family="Helvetica,sans-Serif" font-size="10.00">usersdialog.h</text>
</a>
</g>
</g>
<!-- Node0&#45;&gt;Node1 -->
<g id="edge1" class="edge"><title>Node0&#45;&gt;Node1</title>
<path fill="none" stroke="midnightblue" d="M1040.02,-170.165C892.333,-160.572 467.841,-133.001 323.837,-123.647"/>
<polygon fill="midnightblue" stroke="midnightblue" points="323.767,-120.136 313.561,-122.98 323.313,-127.121 323.767,-120.136"/>
</g>
<!-- Node9 -->
<g id="node10" class="node"><title>Node9</title>
<g id="a_node10"><a xlink:href="debughelper_8h.html" target="_top" xlink:title="debughelper.h">
<polygon fill="none" stroke="black" points="678.679,-110.5 678.679,-128.5 758.078,-128.5 758.078,-110.5 678.679,-110.5"/>
<text text-anchor="middle" x="718.378" y="-116.5" font-family="Helvetica,sans-Serif" font-size="10.00">debughelper.h</text>
</a>
</g>
</g>
<!-- Node0&#45;&gt;Node9 -->
<g id="edge10" class="edge"><title>Node0&#45;&gt;Node9</title>
<path fill="none" stroke="midnightblue" d="M1040.3,-166.242C968.698,-156.068 839.326,-137.686 768.337,-127.599"/>
<polygon fill="midnightblue" stroke="midnightblue" points="768.694,-124.114 758.301,-126.173 767.709,-131.045 768.694,-124.114"/>
</g>
<!-- Node11 -->
<g id="node12" class="node"><title>Node11</title>
<g id="a_node12"><a xlink:href="ui__usersdialog_8h.html" target="_top" xlink:title="ui_usersdialog.h">
<polygon fill="none" stroke="black" points="1233.96,-110.5 1233.96,-128.5 1322.79,-128.5 1322.79,-110.5 1233.96,-110.5"/>
<text text-anchor="middle" x="1278.38" y="-116.5" font-family="Helvetica,sans-Serif" font-size="10.00">ui_usersdialog.h</text>
</a>
</g>
</g>
<!-- Node0&#45;&gt;Node11 -->
<g id="edge12" class="edge"><title>Node0&#45;&gt;Node11</title>
<path fill="none" stroke="midnightblue" d="M1119.78,-165.45C1151.86,-156.357 1204.25,-141.511 1239.96,-131.388"/>
<polygon fill="midnightblue" stroke="midnightblue" points="1241.35,-134.633 1250.02,-128.538 1239.44,-127.898 1241.35,-134.633"/>
</g>
<!-- Node25 -->
<g id="node26" class="node"><title>Node25</title>
<polygon fill="none" stroke="#bfbfbf" points="1340.7,-110.5 1340.7,-128.5 1400.06,-128.5 1400.06,-110.5 1340.7,-110.5"/>
<text text-anchor="middle" x="1370.38" y="-116.5" font-family="Helvetica,sans-Serif" font-size="10.00">QRegExp</text>
</g>
<!-- Node0&#45;&gt;Node25 -->
<g id="edge26" class="edge"><title>Node0&#45;&gt;Node25</title>
<path fill="none" stroke="midnightblue" d="M1137.02,-165.475C1183.29,-157.242 1257.18,-143.826 1330.69,-129.086"/>
<polygon fill="midnightblue" stroke="midnightblue" points="1331.48,-132.499 1340.59,-127.093 1330.09,-125.636 1331.48,-132.499"/>
</g>
<!-- Node2 -->
<g id="node3" class="node"><title>Node2</title>
<g id="a_node3"><a xlink:href="datahelpers_8h.html" target="_top" xlink:title="datahelpers.h">
<polygon fill="none" stroke="black" points="61.0781,-55.5 61.0781,-73.5 137.679,-73.5 137.679,-55.5 61.0781,-55.5"/>
<text text-anchor="middle" x="99.3784" y="-61.5" font-family="Helvetica,sans-Serif" font-size="10.00">datahelpers.h</text>
</a>
</g>
</g>
<!-- Node1&#45;&gt;Node2 -->
<g id="edge2" class="edge"><title>Node1&#45;&gt;Node2</title>
<path fill="none" stroke="midnightblue" d="M248.648,-110.45C218.582,-101.396 169.573,-86.6382 135.968,-76.5185"/>
<polygon fill="midnightblue" stroke="midnightblue" points="136.656,-73.0705 126.072,-73.5383 134.638,-79.7732 136.656,-73.0705"/>
</g>
<!-- Node3 -->
<g id="node4" class="node"><title>Node3</title>
<polygon fill="none" stroke="#bfbfbf" points="0,-0.5 0,-18.5 66.7568,-18.5 66.7568,-0.5 0,-0.5"/>
<text text-anchor="middle" x="33.3784" y="-6.5" font-family="Helvetica,sans-Serif" font-size="10.00">QDateTime</text>
</g>
<!-- Node1&#45;&gt;Node3 -->
<g id="edge6" class="edge"><title>Node1&#45;&gt;Node3</title>
<path fill="none" stroke="midnightblue" d="M237.375,-115.599C181.006,-110.541 79.0173,-98.2511 52.3784,-74 39.8898,-62.6307 35.4758,-43.4266 33.9828,-29.1079"/>
<polygon fill="midnightblue" stroke="midnightblue" points="37.4613,-28.664 33.3132,-18.915 30.4763,-29.1229 37.4613,-28.664"/>
</g>
<!-- Node5 -->
<g id="node6" class="node"><title>Node5</title>
<polygon fill="none" stroke="#bfbfbf" points="155.92,-55.5 155.92,-73.5 230.836,-73.5 230.836,-55.5 155.92,-55.5"/>
<text text-anchor="middle" x="193.378" y="-61.5" font-family="Helvetica,sans-Serif" font-size="10.00">QCloseEvent</text>
</g>
<!-- Node1&#45;&gt;Node5 -->
<g id="edge5" class="edge"><title>Node1&#45;&gt;Node5</title>
<path fill="none" stroke="midnightblue" d="M262.924,-110.45C250.161,-102.201 230.071,-89.2158 214.758,-79.3187"/>
<polygon fill="midnightblue" stroke="midnightblue" points="216.248,-76.1142 205.95,-73.6253 212.448,-81.9931 216.248,-76.1142"/>
</g>
<!-- Node6 -->
<g id="node7" class="node"><title>Node6</title>
<polygon fill="none" stroke="#bfbfbf" points="249.314,-55.5 249.314,-73.5 301.442,-73.5 301.442,-55.5 249.314,-55.5"/>
<text text-anchor="middle" x="275.378" y="-61.5" font-family="Helvetica,sans-Serif" font-size="10.00">QDialog</text>
</g>
<!-- Node1&#45;&gt;Node6 -->
<g id="edge7" class="edge"><title>Node1&#45;&gt;Node6</title>
<path fill="none" stroke="midnightblue" d="M275.378,-110.219C275.378,-103.177 275.378,-92.8083 275.378,-83.8277"/>
<polygon fill="midnightblue" stroke="midnightblue" points="278.879,-83.5495 275.378,-73.5496 271.879,-83.5496 278.879,-83.5495"/>
</g>
<!-- Node7 -->
<g id="node8" class="node"><title>Node7</title>
<polygon fill="none" stroke="#bfbfbf" points="319.708,-55.5 319.708,-73.5 359.048,-73.5 359.048,-55.5 319.708,-55.5"/>
<text text-anchor="middle" x="339.378" y="-61.5" font-family="Helvetica,sans-Serif" font-size="10.00">QList</text>
</g>
<!-- Node1&#45;&gt;Node7 -->
<g id="edge8" class="edge"><title>Node1&#45;&gt;Node7</title>
<path fill="none" stroke="midnightblue" d="M285.099,-110.45C294.778,-102.434 309.857,-89.9471 321.668,-80.1663"/>
<polygon fill="midnightblue" stroke="midnightblue" points="324.097,-82.6992 329.567,-73.6253 319.632,-77.3078 324.097,-82.6992"/>
</g>
<!-- Node8 -->
<g id="node9" class="node"><title>Node8</title>
<polygon fill="none" stroke="#bfbfbf" points="376.854,-55.5 376.854,-73.5 487.903,-73.5 487.903,-55.5 376.854,-55.5"/>
<text text-anchor="middle" x="432.378" y="-61.5" font-family="Helvetica,sans-Serif" font-size="10.00">QStandardItemModel</text>
</g>
<!-- Node1&#45;&gt;Node8 -->
<g id="edge9" class="edge"><title>Node1&#45;&gt;Node8</title>
<path fill="none" stroke="midnightblue" d="M299.223,-110.45C325.812,-101.475 369.009,-86.8922 398.96,-76.7813"/>
<polygon fill="midnightblue" stroke="midnightblue" points="400.212,-80.053 408.567,-73.5383 397.973,-73.4207 400.212,-80.053"/>
</g>
<!-- Node2&#45;&gt;Node3 -->
<g id="edge3" class="edge"><title>Node2&#45;&gt;Node3</title>
<path fill="none" stroke="midnightblue" d="M89.3544,-55.4504C79.3723,-47.4345 63.8219,-34.9471 51.6421,-25.1663"/>
<polygon fill="midnightblue" stroke="midnightblue" points="53.4854,-22.1577 43.4967,-18.6253 49.1024,-27.6157 53.4854,-22.1577"/>
</g>
<!-- Node4 -->
<g id="node5" class="node"><title>Node4</title>
<polygon fill="none" stroke="#bfbfbf" points="84.4277,-0.5 84.4277,-18.5 134.329,-18.5 134.329,-0.5 84.4277,-0.5"/>
<text text-anchor="middle" x="109.378" y="-6.5" font-family="Helvetica,sans-Serif" font-size="10.00">QString</text>
</g>
<!-- Node2&#45;&gt;Node4 -->
<g id="edge4" class="edge"><title>Node2&#45;&gt;Node4</title>
<path fill="none" stroke="midnightblue" d="M100.941,-55.2188C102.284,-48.0986 104.269,-37.5775 105.977,-28.5289"/>
<polygon fill="midnightblue" stroke="midnightblue" points="109.445,-29.0251 107.86,-18.5496 102.566,-27.7272 109.445,-29.0251"/>
</g>
<!-- Node10 -->
<g id="node11" class="node"><title>Node10</title>
<polygon fill="none" stroke="#bfbfbf" points="505.755,-55.5 505.755,-73.5 559.001,-73.5 559.001,-55.5 505.755,-55.5"/>
<text text-anchor="middle" x="532.378" y="-61.5" font-family="Helvetica,sans-Serif" font-size="10.00">QDebug</text>
</g>
<!-- Node9&#45;&gt;Node10 -->
<g id="edge11" class="edge"><title>Node9&#45;&gt;Node10</title>
<path fill="none" stroke="midnightblue" d="M690.129,-110.45C657.755,-101.226 604.6,-86.0793 569.055,-75.9508"/>
<polygon fill="midnightblue" stroke="midnightblue" points="569.657,-72.483 559.08,-73.1086 567.738,-79.2151 569.657,-72.483"/>
</g>
<!-- Node12 -->
<g id="node13" class="node"><title>Node12</title>
<polygon fill="none" stroke="#bfbfbf" points="576.511,-55.5 576.511,-73.5 666.246,-73.5 666.246,-55.5 576.511,-55.5"/>
<text text-anchor="middle" x="621.378" y="-61.5" font-family="Helvetica,sans-Serif" font-size="10.00">QtCore/QVariant</text>
</g>
<!-- Node11&#45;&gt;Node12 -->
<g id="edge13" class="edge"><title>Node11&#45;&gt;Node12</title>
<path fill="none" stroke="midnightblue" d="M1233.93,-116.528C1135.35,-111.875 890.788,-98.7853 676.622,-74.1773"/>
<polygon fill="midnightblue" stroke="midnightblue" points="676.785,-70.6727 666.448,-72.9968 675.978,-77.6261 676.785,-70.6727"/>
</g>
<!-- Node13 -->
<g id="node14" class="node"><title>Node13</title>
<polygon fill="none" stroke="#bfbfbf" points="683.864,-55.5 683.864,-73.5 784.893,-73.5 784.893,-55.5 683.864,-55.5"/>
<text text-anchor="middle" x="734.378" y="-61.5" font-family="Helvetica,sans-Serif" font-size="10.00">QtWidgets/QAction</text>
</g>
<!-- Node11&#45;&gt;Node13 -->
<g id="edge14" class="edge"><title>Node11&#45;&gt;Node13</title>
<path fill="none" stroke="midnightblue" d="M1233.93,-115.146C1150.25,-108.675 963.413,-93.4675 795.129,-74.0297"/>
<polygon fill="midnightblue" stroke="midnightblue" points="795.432,-70.5415 785.095,-72.8631 794.624,-77.4946 795.432,-70.5415"/>
</g>
<!-- Node14 -->
<g id="node15" class="node"><title>Node14</title>
<polygon fill="none" stroke="#bfbfbf" points="803.3,-55.5 803.3,-73.5 925.457,-73.5 925.457,-55.5 803.3,-55.5"/>
<text text-anchor="middle" x="864.378" y="-61.5" font-family="Helvetica,sans-Serif" font-size="10.00">QtWidgets/QApplication</text>
</g>
<!-- Node11&#45;&gt;Node14 -->
<g id="edge15" class="edge"><title>Node11&#45;&gt;Node14</title>
<path fill="none" stroke="midnightblue" d="M1233.68,-112.778C1162.15,-103.621 1021.34,-85.5944 935.763,-74.6385"/>
<polygon fill="midnightblue" stroke="midnightblue" points="935.972,-71.1368 925.608,-73.3386 935.083,-78.0802 935.972,-71.1368"/>
</g>
<!-- Node15 -->
<g id="node16" class="node"><title>Node15</title>
<polygon fill="none" stroke="#bfbfbf" points="943.408,-55.5 943.408,-73.5 1073.35,-73.5 1073.35,-55.5 943.408,-55.5"/>
<text text-anchor="middle" x="1008.38" y="-61.5" font-family="Helvetica,sans-Serif" font-size="10.00">QtWidgets/QButtonGroup</text>
</g>
<!-- Node11&#45;&gt;Node15 -->
<g id="edge16" class="edge"><title>Node11&#45;&gt;Node15</title>
<path fill="none" stroke="midnightblue" d="M1237.37,-110.45C1189.66,-101.084 1110.84,-85.6136 1059.26,-75.4886"/>
<polygon fill="midnightblue" stroke="midnightblue" points="1059.82,-72.0301 1049.33,-73.5383 1058.47,-78.899 1059.82,-72.0301"/>
</g>
<!-- Node16 -->
<g id="node17" class="node"><title>Node16</title>
<polygon fill="none" stroke="#bfbfbf" points="1090.97,-55.5 1090.97,-73.5 1209.78,-73.5 1209.78,-55.5 1090.97,-55.5"/>
<text text-anchor="middle" x="1150.38" y="-61.5" font-family="Helvetica,sans-Serif" font-size="10.00">QtWidgets/QCheckBox</text>
</g>
<!-- Node11&#45;&gt;Node16 -->
<g id="edge17" class="edge"><title>Node11&#45;&gt;Node16</title>
<path fill="none" stroke="midnightblue" d="M1258.94,-110.45C1237.79,-101.695 1203.77,-87.6055 1179.44,-77.5346"/>
<polygon fill="midnightblue" stroke="midnightblue" points="1180.58,-74.2173 1170,-73.6253 1177.9,-80.6848 1180.58,-74.2173"/>
</g>
<!-- Node17 -->
<g id="node18" class="node"><title>Node17</title>
<polygon fill="none" stroke="#bfbfbf" points="1227.59,-55.5 1227.59,-73.5 1329.17,-73.5 1329.17,-55.5 1227.59,-55.5"/>
<text text-anchor="middle" x="1278.38" y="-61.5" font-family="Helvetica,sans-Serif" font-size="10.00">QtWidgets/QDialog</text>
</g>
<!-- Node11&#45;&gt;Node17 -->
<g id="edge18" class="edge"><title>Node11&#45;&gt;Node17</title>
<path fill="none" stroke="midnightblue" d="M1278.38,-110.219C1278.38,-103.177 1278.38,-92.8083 1278.38,-83.8277"/>
<polygon fill="midnightblue" stroke="midnightblue" points="1281.88,-83.5495 1278.38,-73.5496 1274.88,-83.5496 1281.88,-83.5495"/>
</g>
<!-- Node18 -->
<g id="node19" class="node"><title>Node18</title>
<polygon fill="none" stroke="#bfbfbf" points="1347.51,-55.5 1347.51,-73.5 1495.24,-73.5 1495.24,-55.5 1347.51,-55.5"/>
<text text-anchor="middle" x="1421.38" y="-61.5" font-family="Helvetica,sans-Serif" font-size="10.00">QtWidgets/QDialogButtonBox</text>
</g>
<!-- Node11&#45;&gt;Node18 -->
<g id="edge19" class="edge"><title>Node11&#45;&gt;Node18</title>
<path fill="none" stroke="midnightblue" d="M1300.1,-110.45C1324.03,-101.578 1362.75,-87.2288 1389.99,-77.134"/>
<polygon fill="midnightblue" stroke="midnightblue" points="1391.3,-80.3825 1399.46,-73.6253 1388.86,-73.8188 1391.3,-80.3825"/>
</g>
<!-- Node19 -->
<g id="node20" class="node"><title>Node19</title>
<polygon fill="none" stroke="#bfbfbf" points="1513.52,-55.5 1513.52,-73.5 1641.24,-73.5 1641.24,-55.5 1513.52,-55.5"/>
<text text-anchor="middle" x="1577.38" y="-61.5" font-family="Helvetica,sans-Serif" font-size="10.00">QtWidgets/QHBoxLayout</text>
</g>
<!-- Node11&#45;&gt;Node19 -->
<g id="edge20" class="edge"><title>Node11&#45;&gt;Node19</title>
<path fill="none" stroke="midnightblue" d="M1322.82,-110.623C1375.92,-101.21 1464.77,-85.4605 1522.21,-75.2787"/>
<polygon fill="midnightblue" stroke="midnightblue" points="1522.97,-78.6992 1532.2,-73.5075 1521.75,-71.8067 1522.97,-78.6992"/>
</g>
<!-- Node20 -->
<g id="node21" class="node"><title>Node20</title>
<polygon fill="none" stroke="#bfbfbf" points="1659.61,-55.5 1659.61,-73.5 1787.15,-73.5 1787.15,-55.5 1659.61,-55.5"/>
<text text-anchor="middle" x="1723.38" y="-61.5" font-family="Helvetica,sans-Serif" font-size="10.00">QtWidgets/QHeaderView</text>
</g>
<!-- Node11&#45;&gt;Node20 -->
<g id="edge21" class="edge"><title>Node11&#45;&gt;Node20</title>
<path fill="none" stroke="midnightblue" d="M1322.89,-111.207C1325.76,-110.785 1328.61,-110.378 1331.38,-110 1469.57,-91.1315 1506.96,-90.2805 1649.31,-74.1148"/>
<polygon fill="midnightblue" stroke="midnightblue" points="1649.75,-77.5872 1659.29,-72.9758 1648.95,-70.6323 1649.75,-77.5872"/>
</g>
<!-- Node21 -->
<g id="node22" class="node"><title>Node21</title>
<polygon fill="none" stroke="#bfbfbf" points="1805.53,-55.5 1805.53,-73.5 1903.23,-73.5 1903.23,-55.5 1805.53,-55.5"/>
<text text-anchor="middle" x="1854.38" y="-61.5" font-family="Helvetica,sans-Serif" font-size="10.00">QtWidgets/QLabel</text>
</g>
<!-- Node11&#45;&gt;Node21 -->
<g id="edge22" class="edge"><title>Node11&#45;&gt;Node21</title>
<path fill="none" stroke="midnightblue" d="M1322.87,-111.093C1325.75,-110.699 1328.6,-110.33 1331.38,-110 1534,-85.9492 1588.68,-96.6921 1795.4,-74.0284"/>
<polygon fill="midnightblue" stroke="midnightblue" points="1795.81,-77.5048 1805.36,-72.9236 1795.04,-70.5475 1795.81,-77.5048"/>
</g>
<!-- Node22 -->
<g id="node23" class="node"><title>Node22</title>
<polygon fill="none" stroke="#bfbfbf" points="1921.69,-55.5 1921.69,-73.5 2031.07,-73.5 2031.07,-55.5 1921.69,-55.5"/>
<text text-anchor="middle" x="1976.38" y="-61.5" font-family="Helvetica,sans-Serif" font-size="10.00">QtWidgets/QLineEdit</text>
</g>
<!-- Node11&#45;&gt;Node22 -->
<g id="edge23" class="edge"><title>Node11&#45;&gt;Node22</title>
<path fill="none" stroke="midnightblue" d="M1322.87,-111.043C1325.74,-110.661 1328.6,-110.308 1331.38,-110 1585.25,-81.844 1653.16,-98.6078 1911.53,-74.0028"/>
<polygon fill="midnightblue" stroke="midnightblue" points="1911.98,-77.4763 1921.59,-73.033 1911.31,-70.5086 1911.98,-77.4763"/>
</g>
<!-- Node23 -->
<g id="node24" class="node"><title>Node23</title>
<polygon fill="none" stroke="#bfbfbf" points="2049.42,-55.5 2049.42,-73.5 2169.34,-73.5 2169.34,-55.5 2049.42,-55.5"/>
<text text-anchor="middle" x="2109.38" y="-61.5" font-family="Helvetica,sans-Serif" font-size="10.00">QtWidgets/QListWidget</text>
</g>
<!-- Node11&#45;&gt;Node23 -->
<g id="edge24" class="edge"><title>Node11&#45;&gt;Node23</title>
<path fill="none" stroke="midnightblue" d="M1322.86,-111.007C1325.74,-110.633 1328.6,-110.293 1331.38,-110 1641.79,-77.3247 1724.28,-100.79 2038.86,-74.0608"/>
<polygon fill="midnightblue" stroke="midnightblue" points="2039.53,-77.5164 2049.19,-73.1722 2038.93,-70.5422 2039.53,-77.5164"/>
</g>
<!-- Node24 -->
<g id="node25" class="node"><title>Node24</title>
<polygon fill="none" stroke="#bfbfbf" points="2187.8,-55.5 2187.8,-73.5 2314.96,-73.5 2314.96,-55.5 2187.8,-55.5"/>
<text text-anchor="middle" x="2251.38" y="-61.5" font-family="Helvetica,sans-Serif" font-size="10.00">QtWidgets/QVBoxLayout</text>
</g>
<!-- Node11&#45;&gt;Node24 -->
<g id="edge25" class="edge"><title>Node11&#45;&gt;Node24</title>
<path fill="none" stroke="midnightblue" d="M1322.86,-110.98C1325.74,-110.613 1328.6,-110.281 1331.38,-110 1702.96,-72.4361 1801.06,-103.257 2177.62,-73.9859"/>
<polygon fill="midnightblue" stroke="midnightblue" points="2178.01,-77.4663 2187.7,-73.193 2177.46,-70.4878 2178.01,-77.4663"/>
</g>
</g>
</svg>
