<?xml version="1.0" encoding="UTF-8" standalone="no"?>
<!DOCTYPE svg PUBLIC "-//W3C//DTD SVG 1.1//EN"
 "http://www.w3.org/Graphics/SVG/1.1/DTD/svg11.dtd">
<!-- Generated by graphviz version 2.38.0 (20140413.2041)
 -->
<!-- Title: usersdialog.h Pages: 1 -->
<svg width="496pt" height="137pt"
 viewBox="0.00 0.00 495.90 137.00" xmlns="http://www.w3.org/2000/svg" xmlns:xlink="http://www.w3.org/1999/xlink">
<g id="graph0" class="graph" transform="scale(1 1) rotate(0) translate(4 133)">
<title>usersdialog.h</title>
<!-- Node0 -->
<g id="node1" class="node"><title>Node0</title>
<polygon fill="#bfbfbf" stroke="black" points="196.637,-110.5 196.637,-128.5 272.12,-128.5 272.12,-110.5 196.637,-110.5"/>
<text text-anchor="middle" x="234.378" y="-116.5" font-family="Helvetica,sans-Serif" font-size="10.00">usersdialog.h</text>
</g>
<!-- Node1 -->
<g id="node2" class="node"><title>Node1</title>
<g id="a_node2"><a xlink:href="datahelpers_8h.html" target="_top" xlink:title="datahelpers.h">
<polygon fill="none" stroke="black" points="61.0781,-55.5 61.0781,-73.5 137.679,-73.5 137.679,-55.5 61.0781,-55.5"/>
<text text-anchor="middle" x="99.3784" y="-61.5" font-family="Helvetica,sans-Serif" font-size="10.00">datahelpers.h</text>
</a>
</g>
</g>
<!-- Node0&#45;&gt;Node1 -->
<g id="edge1" class="edge"><title>Node0&#45;&gt;Node1</title>
<path fill="none" stroke="midnightblue" d="M213.875,-110.45C191.474,-101.656 155.366,-87.4802 129.691,-77.4006"/>
<polygon fill="midnightblue" stroke="midnightblue" points="130.662,-74.0218 120.075,-73.6253 128.104,-80.5377 130.662,-74.0218"/>
</g>
<!-- Node2 -->
<g id="node3" class="node"><title>Node2</title>
<polygon fill="none" stroke="#bfbfbf" points="0,-0.5 0,-18.5 66.7568,-18.5 66.7568,-0.5 0,-0.5"/>
<text text-anchor="middle" x="33.3784" y="-6.5" font-family="Helvetica,sans-Serif" font-size="10.00">QDateTime</text>
</g>
<!-- Node0&#45;&gt;Node2 -->
<g id="edge5" class="edge"><title>Node0&#45;&gt;Node2</title>
<path fill="none" stroke="midnightblue" d="M196.635,-113.728C149.599,-107.047 72.8922,-93.4946 52.3784,-74 40.1361,-62.3659 35.6861,-43.2006 34.1174,-28.9632"/>
<polygon fill="midnightblue" stroke="midnightblue" points="37.5974,-28.5603 33.3832,-18.8397 30.6158,-29.0667 37.5974,-28.5603"/>
</g>
<!-- Node4 -->
<g id="node5" class="node"><title>Node4</title>
<polygon fill="none" stroke="#bfbfbf" points="155.92,-55.5 155.92,-73.5 230.836,-73.5 230.836,-55.5 155.92,-55.5"/>
<text text-anchor="middle" x="193.378" y="-61.5" font-family="Helvetica,sans-Serif" font-size="10.00">QCloseEvent</text>
</g>
<!-- Node0&#45;&gt;Node4 -->
<g id="edge4" class="edge"><title>Node0&#45;&gt;Node4</title>
<path fill="none" stroke="midnightblue" d="M227.972,-110.219C222.04,-102.551 213.057,-90.9387 205.732,-81.4691"/>
<polygon fill="midnightblue" stroke="midnightblue" points="208.493,-79.3176 199.605,-73.5496 202.956,-83.6007 208.493,-79.3176"/>
</g>
<!-- Node5 -->
<g id="node6" class="node"><title>Node5</title>
<polygon fill="none" stroke="#bfbfbf" points="249.314,-55.5 249.314,-73.5 301.442,-73.5 301.442,-55.5 249.314,-55.5"/>
<text text-anchor="middle" x="275.378" y="-61.5" font-family="Helvetica,sans-Serif" font-size="10.00">QDialog</text>
</g>
<!-- Node0&#45;&gt;Node5 -->
<g id="edge6" class="edge"><title>Node0&#45;&gt;Node5</title>
<path fill="none" stroke="midnightblue" d="M240.785,-110.219C246.716,-102.551 255.699,-90.9387 263.025,-81.4691"/>
<polygon fill="midnightblue" stroke="midnightblue" points="265.801,-83.6007 269.151,-73.5496 260.264,-79.3176 265.801,-83.6007"/>
</g>
<!-- Node6 -->
<g id="node7" class="node"><title>Node6</title>
<polygon fill="none" stroke="#bfbfbf" points="319.708,-55.5 319.708,-73.5 359.048,-73.5 359.048,-55.5 319.708,-55.5"/>
<text text-anchor="middle" x="339.378" y="-61.5" font-family="Helvetica,sans-Serif" font-size="10.00">QList</text>
</g>
<!-- Node0&#45;&gt;Node6 -->
<g id="edge7" class="edge"><title>Node0&#45;&gt;Node6</title>
<path fill="none" stroke="midnightblue" d="M250.326,-110.45C267.286,-101.89 294.349,-88.2291 314.195,-78.2119"/>
<polygon fill="midnightblue" stroke="midnightblue" points="315.931,-81.256 323.281,-73.6253 312.777,-75.007 315.931,-81.256"/>
</g>
<!-- Node7 -->
<g id="node8" class="node"><title>Node7</title>
<polygon fill="none" stroke="#bfbfbf" points="376.854,-55.5 376.854,-73.5 487.903,-73.5 487.903,-55.5 376.854,-55.5"/>
<text text-anchor="middle" x="432.378" y="-61.5" font-family="Helvetica,sans-Serif" font-size="10.00">QStandardItemModel</text>
</g>
<!-- Node0&#45;&gt;Node7 -->
<g id="edge8" class="edge"><title>Node0&#45;&gt;Node7</title>
<path fill="none" stroke="midnightblue" d="M264.45,-110.45C298.712,-101.279 354.839,-86.2555 392.673,-76.1283"/>
<polygon fill="midnightblue" stroke="midnightblue" points="393.594,-79.5051 402.349,-73.5383 391.784,-72.7431 393.594,-79.5051"/>
</g>
<!-- Node1&#45;&gt;Node2 -->
<g id="edge2" class="edge"><title>Node1&#45;&gt;Node2</title>
<path fill="none" stroke="midnightblue" d="M89.3544,-55.4504C79.3723,-47.4345 63.8219,-34.9471 51.6421,-25.1663"/>
<polygon fill="midnightblue" stroke="midnightblue" points="53.4854,-22.1577 43.4967,-18.6253 49.1024,-27.6157 53.4854,-22.1577"/>
</g>
<!-- Node3 -->
<g id="node4" class="node"><title>Node3</title>
<polygon fill="none" stroke="#bfbfbf" points="84.4277,-0.5 84.4277,-18.5 134.329,-18.5 134.329,-0.5 84.4277,-0.5"/>
<text text-anchor="middle" x="109.378" y="-6.5" font-family="Helvetica,sans-Serif" font-size="10.00">QString</text>
</g>
<!-- Node1&#45;&gt;Node3 -->
<g id="edge3" class="edge"><title>Node1&#45;&gt;Node3</title>
<path fill="none" stroke="midnightblue" d="M100.941,-55.2188C102.284,-48.0986 104.269,-37.5775 105.977,-28.5289"/>
<polygon fill="midnightblue" stroke="midnightblue" points="109.445,-29.0251 107.86,-18.5496 102.566,-27.7272 109.445,-29.0251"/>
</g>
</g>
</svg>
