<?xml version="1.0" encoding="UTF-8" standalone="no"?>
<!DOCTYPE svg PUBLIC "-//W3C//DTD SVG 1.1//EN"
 "http://www.w3.org/Graphics/SVG/1.1/DTD/svg11.dtd">
<!-- Generated by graphviz version 2.38.0 (20140413.2041)
 -->
<!-- Title: usersdialog.cpp Pages: 1 -->
<!--zoomable 192 -->
<svg id="main" version="1.1" xmlns="http://www.w3.org/2000/svg" xmlns:xlink="http://www.w3.org/1999/xlink" xml:space="preserve" onload="init(evt)">
<style type="text/css"><![CDATA[
.edge:hover path { stroke: red; }
.edge:hover polygon { stroke: red; fill: red; }
]]></style>
<script type="text/javascript"><![CDATA[
var edges = document.getElementsByTagName('g');
if (edges && edges.length) {
  for (var i=0;i<edges.length;i++) {
    if (edges[i].id.substr(0,4)=='edge') {
      edges[i].setAttribute('class','edge');
    }
  }
}
]]></script>
        <defs>
                <circle id="rim" cx="0" cy="0" r="7"/>
                <circle id="rim2" cx="0" cy="0" r="3.5"/>
                <g id="zoomPlus">
                        <use xlink:href="#rim" fill="#404040">
                                <set attributeName="fill" to="#808080" begin="zoomplus.mouseover" end="zoomplus.mouseout"/>
                        </use>
                        <path d="M-4,0h8M0,-4v8" fill="none" stroke="white" stroke-width="1.5" pointer-events="none"/>
                </g>
                <g id="zoomMin">
                        <use xlink:href="#rim" fill="#404040">
                                <set attributeName="fill" to="#808080" begin="zoomminus.mouseover" end="zoomminus.mouseout"/>
                        </use>
                        <path d="M-4,0h8" fill="none" stroke="white" stroke-width="1.5" pointer-events="none"/>
                </g>
                <g id="dirArrow">
                        <path fill="none" stroke="white" stroke-width="1.5" d="M0,-3.0v7 M-2.5,-0.5L0,-3.0L2.5,-0.5"/>
                </g>
               <g id="resetDef">
                       <use xlink:href="#rim2" fill="#404040">
                               <set attributeName="fill" to="#808080" begin="reset.mouseover" end="reset.mouseout"/>
                       </use>
               </g>
        </defs>

<script type="text/javascript">
var viewWidth = 535;
var viewHeight = 192;
var sectionId = 'dynsection-0';
</script>
<script xlink:href="svgpan.js"/>
<svg id="graph" class="graph">
<g id="viewport">
<title>usersdialog.cpp</title>
<!-- Node0 -->
<g id="node1" class="node"><title>Node0</title>
<polygon fill="#bfbfbf" stroke="black" points="335.356,-165.5 335.356,-183.5 421.4,-183.5 421.4,-165.5 335.356,-165.5"/>
<text text-anchor="middle" x="378.378" y="-171.5" font-family="Helvetica,sans-Serif" font-size="10.00">usersdialog.cpp</text>
</g>
<!-- Node1 -->
<g id="node2" class="node"><title>Node1</title>
<g id="a_node2"><a xlink:href="usersdialog_8h.html" target="_top" xlink:title="usersdialog.h">
<polygon fill="none" stroke="black" points="196.637,-110.5 196.637,-128.5 272.12,-128.5 272.12,-110.5 196.637,-110.5"/>
<text text-anchor="middle" x="234.378" y="-116.5" font-family="Helvetica,sans-Serif" font-size="10.00">usersdialog.h</text>
</a>
</g>
</g>
<!-- Node0&#45;&gt;Node1 -->
<g id="edge1" class="edge"><title>Node0&#45;&gt;Node1</title>
<path fill="none" stroke="midnightblue" d="M356.508,-165.45C332.403,-156.578 293.415,-142.229 265.988,-132.134"/>
<polygon fill="midnightblue" stroke="midnightblue" points="267.048,-128.795 256.455,-128.625 264.63,-135.364 267.048,-128.795"/>
</g>
<!-- Node9 -->
<g id="node10" class="node"><title>Node9</title>
<polygon fill="none" stroke="#bfbfbf" points="289.965,-110.5 289.965,-128.5 378.792,-128.5 378.792,-110.5 289.965,-110.5"/>
<text text-anchor="middle" x="334.378" y="-116.5" font-family="Helvetica,sans-Serif" font-size="10.00">ui_usersdialog.h</text>
</g>
<!-- Node0&#45;&gt;Node9 -->
<g id="edge10" class="edge"><title>Node0&#45;&gt;Node9</title>
<path fill="none" stroke="midnightblue" d="M371.503,-165.219C365.138,-157.551 355.497,-145.939 347.636,-136.469"/>
<polygon fill="midnightblue" stroke="midnightblue" points="350.142,-134.008 341.061,-128.55 344.756,-138.479 350.142,-134.008"/>
</g>
<!-- Node10 -->
<g id="node11" class="node"><title>Node10</title>
<polygon fill="none" stroke="#bfbfbf" points="396.755,-110.5 396.755,-128.5 450.001,-128.5 450.001,-110.5 396.755,-110.5"/>
<text text-anchor="middle" x="423.378" y="-116.5" font-family="Helvetica,sans-Serif" font-size="10.00">QDebug</text>
</g>
<!-- Node0&#45;&gt;Node10 -->
<g id="edge11" class="edge"><title>Node0&#45;&gt;Node10</title>
<path fill="none" stroke="midnightblue" d="M385.41,-165.219C391.987,-157.473 401.981,-145.701 410.065,-136.18"/>
<polygon fill="midnightblue" stroke="midnightblue" points="412.74,-138.438 416.544,-128.55 407.404,-133.907 412.74,-138.438"/>
</g>
<!-- Node11 -->
<g id="node12" class="node"><title>Node11</title>
<polygon fill="none" stroke="#bfbfbf" points="467.701,-110.5 467.701,-128.5 527.056,-128.5 527.056,-110.5 467.701,-110.5"/>
<text text-anchor="middle" x="497.378" y="-116.5" font-family="Helvetica,sans-Serif" font-size="10.00">QRegExp</text>
</g>
<!-- Node0&#45;&gt;Node11 -->
<g id="edge12" class="edge"><title>Node0&#45;&gt;Node11</title>
<path fill="none" stroke="midnightblue" d="M396.452,-165.45C415.935,-156.773 447.184,-142.856 469.752,-132.804"/>
<polygon fill="midnightblue" stroke="midnightblue" points="471.424,-135.891 479.135,-128.625 468.576,-129.497 471.424,-135.891"/>
</g>
<!-- Node2 -->
<g id="node3" class="node"><title>Node2</title>
<g id="a_node3"><a xlink:href="datahelpers_8h.html" target="_top" xlink:title="datahelpers.h">
<polygon fill="none" stroke="black" points="61.0781,-55.5 61.0781,-73.5 137.679,-73.5 137.679,-55.5 61.0781,-55.5"/>
<text text-anchor="middle" x="99.3784" y="-61.5" font-family="Helvetica,sans-Serif" font-size="10.00">datahelpers.h</text>
</a>
</g>
</g>
<!-- Node1&#45;&gt;Node2 -->
<g id="edge2" class="edge"><title>Node1&#45;&gt;Node2</title>
<path fill="none" stroke="midnightblue" d="M213.875,-110.45C191.474,-101.656 155.366,-87.4802 129.691,-77.4006"/>
<polygon fill="midnightblue" stroke="midnightblue" points="130.662,-74.0218 120.075,-73.6253 128.104,-80.5377 130.662,-74.0218"/>
</g>
<!-- Node3 -->
<g id="node4" class="node"><title>Node3</title>
<polygon fill="none" stroke="#bfbfbf" points="0,-0.5 0,-18.5 66.7568,-18.5 66.7568,-0.5 0,-0.5"/>
<text text-anchor="middle" x="33.3784" y="-6.5" font-family="Helvetica,sans-Serif" font-size="10.00">QDateTime</text>
</g>
<!-- Node1&#45;&gt;Node3 -->
<g id="edge6" class="edge"><title>Node1&#45;&gt;Node3</title>
<path fill="none" stroke="midnightblue" d="M196.635,-113.728C149.599,-107.047 72.8922,-93.4946 52.3784,-74 40.1361,-62.3659 35.6861,-43.2006 34.1174,-28.9632"/>
<polygon fill="midnightblue" stroke="midnightblue" points="37.5974,-28.5603 33.3832,-18.8397 30.6158,-29.0667 37.5974,-28.5603"/>
</g>
<!-- Node5 -->
<g id="node6" class="node"><title>Node5</title>
<polygon fill="none" stroke="#bfbfbf" points="155.92,-55.5 155.92,-73.5 230.836,-73.5 230.836,-55.5 155.92,-55.5"/>
<text text-anchor="middle" x="193.378" y="-61.5" font-family="Helvetica,sans-Serif" font-size="10.00">QCloseEvent</text>
</g>
<!-- Node1&#45;&gt;Node5 -->
<g id="edge5" class="edge"><title>Node1&#45;&gt;Node5</title>
<path fill="none" stroke="midnightblue" d="M227.972,-110.219C222.04,-102.551 213.057,-90.9387 205.732,-81.4691"/>
<polygon fill="midnightblue" stroke="midnightblue" points="208.493,-79.3176 199.605,-73.5496 202.956,-83.6007 208.493,-79.3176"/>
</g>
<!-- Node6 -->
<g id="node7" class="node"><title>Node6</title>
<polygon fill="none" stroke="#bfbfbf" points="249.314,-55.5 249.314,-73.5 301.442,-73.5 301.442,-55.5 249.314,-55.5"/>
<text text-anchor="middle" x="275.378" y="-61.5" font-family="Helvetica,sans-Serif" font-size="10.00">QDialog</text>
</g>
<!-- Node1&#45;&gt;Node6 -->
<g id="edge7" class="edge"><title>Node1&#45;&gt;Node6</title>
<path fill="none" stroke="midnightblue" d="M240.785,-110.219C246.716,-102.551 255.699,-90.9387 263.025,-81.4691"/>
<polygon fill="midnightblue" stroke="midnightblue" points="265.801,-83.6007 269.151,-73.5496 260.264,-79.3176 265.801,-83.6007"/>
</g>
<!-- Node7 -->
<g id="node8" class="node"><title>Node7</title>
<polygon fill="none" stroke="#bfbfbf" points="319.708,-55.5 319.708,-73.5 359.048,-73.5 359.048,-55.5 319.708,-55.5"/>
<text text-anchor="middle" x="339.378" y="-61.5" font-family="Helvetica,sans-Serif" font-size="10.00">QList</text>
</g>
<!-- Node1&#45;&gt;Node7 -->
<g id="edge8" class="edge"><title>Node1&#45;&gt;Node7</title>
<path fill="none" stroke="midnightblue" d="M250.326,-110.45C267.286,-101.89 294.349,-88.2291 314.195,-78.2119"/>
<polygon fill="midnightblue" stroke="midnightblue" points="315.931,-81.256 323.281,-73.6253 312.777,-75.007 315.931,-81.256"/>
</g>
<!-- Node8 -->
<g id="node9" class="node"><title>Node8</title>
<polygon fill="none" stroke="#bfbfbf" points="376.854,-55.5 376.854,-73.5 487.903,-73.5 487.903,-55.5 376.854,-55.5"/>
<text text-anchor="middle" x="432.378" y="-61.5" font-family="Helvetica,sans-Serif" font-size="10.00">QStandardItemModel</text>
</g>
<!-- Node1&#45;&gt;Node8 -->
<g id="edge9" class="edge"><title>Node1&#45;&gt;Node8</title>
<path fill="none" stroke="midnightblue" d="M264.45,-110.45C298.712,-101.279 354.839,-86.2555 392.673,-76.1283"/>
<polygon fill="midnightblue" stroke="midnightblue" points="393.594,-79.5051 402.349,-73.5383 391.784,-72.7431 393.594,-79.5051"/>
</g>
<!-- Node2&#45;&gt;Node3 -->
<g id="edge3" class="edge"><title>Node2&#45;&gt;Node3</title>
<path fill="none" stroke="midnightblue" d="M89.3544,-55.4504C79.3723,-47.4345 63.8219,-34.9471 51.6421,-25.1663"/>
<polygon fill="midnightblue" stroke="midnightblue" points="53.4854,-22.1577 43.4967,-18.6253 49.1024,-27.6157 53.4854,-22.1577"/>
</g>
<!-- Node4 -->
<g id="node5" class="node"><title>Node4</title>
<polygon fill="none" stroke="#bfbfbf" points="84.4277,-0.5 84.4277,-18.5 134.329,-18.5 134.329,-0.5 84.4277,-0.5"/>
<text text-anchor="middle" x="109.378" y="-6.5" font-family="Helvetica,sans-Serif" font-size="10.00">QString</text>
</g>
<!-- Node2&#45;&gt;Node4 -->
<g id="edge4" class="edge"><title>Node2&#45;&gt;Node4</title>
<path fill="none" stroke="midnightblue" d="M100.941,-55.2188C102.284,-48.0986 104.269,-37.5775 105.977,-28.5289"/>
<polygon fill="midnightblue" stroke="midnightblue" points="109.445,-29.0251 107.86,-18.5496 102.566,-27.7272 109.445,-29.0251"/>
</g>
</g>
</svg>
        <g id="navigator" transform="translate(0 0)" fill="#404254">
                <rect fill="#f2f5e9" fill-opacity="0.5" stroke="#606060" stroke-width=".5" x="0" y="0" width="60" height="60"/>
                <use id="zoomplus" xlink:href="#zoomPlus" x="17" y="9" onmousedown="handleZoom(evt,'in')"/>
                <use id="zoomminus" xlink:href="#zoomMin" x="42" y="9" onmousedown="handleZoom(evt,'out')"/>
                <use id="reset" xlink:href="#resetDef" x="30" y="36" onmousedown="handleReset()"/>
                <g id="arrowUp" xlink:href="#dirArrow" transform="translate(30 24)" onmousedown="handlePan(0,-1)">
                  <use xlink:href="#rim" fill="#404040">
                        <set attributeName="fill" to="#808080" begin="arrowUp.mouseover" end="arrowUp.mouseout"/>
                  </use>
                  <path fill="none" stroke="white" stroke-width="1.5" d="M0,-3.0v7 M-2.5,-0.5L0,-3.0L2.5,-0.5"/>
                </g>
                <g id="arrowRight" xlink:href="#dirArrow" transform="rotate(90) translate(36 -43)" onmousedown="handlePan(1,0)">
                  <use xlink:href="#rim" fill="#404040">
                        <set attributeName="fill" to="#808080" begin="arrowRight.mouseover" end="arrowRight.mouseout"/>
                  </use>
                  <path fill="none" stroke="white" stroke-width="1.5" d="M0,-3.0v7 M-2.5,-0.5L0,-3.0L2.5,-0.5"/>
                </g>
                <g id="arrowDown" xlink:href="#dirArrow" transform="rotate(180) translate(-30 -48)" onmousedown="handlePan(0,1)">
                  <use xlink:href="#rim" fill="#404040">
                        <set attributeName="fill" to="#808080" begin="arrowDown.mouseover" end="arrowDown.mouseout"/>
                  </use>
                  <path fill="none" stroke="white" stroke-width="1.5" d="M0,-3.0v7 M-2.5,-0.5L0,-3.0L2.5,-0.5"/>
                </g>
                <g id="arrowLeft" xlink:href="#dirArrow" transform="rotate(270) translate(-36 17)" onmousedown="handlePan(-1,0)">
                  <use xlink:href="#rim" fill="#404040">
                        <set attributeName="fill" to="#808080" begin="arrowLeft.mouseover" end="arrowLeft.mouseout"/>
                  </use>
                  <path fill="none" stroke="white" stroke-width="1.5" d="M0,-3.0v7 M-2.5,-0.5L0,-3.0L2.5,-0.5"/>
                </g>
        </g>
        <svg viewBox="0 0 15 15" width="100%" height="30px" preserveAspectRatio="xMaxYMin meet">
         <g id="arrow_out" transform="scale(0.3 0.3)">
          <a xlink:href="usersdialog_8cpp__incl_org.svg" target="_base">
           <rect id="button" ry="5" rx="5" y="6" x="6" height="38" width="38"
                fill="#f2f5e9" fill-opacity="0.5" stroke="#606060" stroke-width="1.0"/>
           <path id="arrow"
             d="M 11.500037,31.436501 C 11.940474,20.09759 22.043105,11.32322 32.158766,21.979434 L 37.068811,17.246167 C 37.068811,17.246167 37.088388,32 37.088388,32 L 22.160133,31.978069 C 22.160133,31.978069 26.997745,27.140456 26.997745,27.140456 C 18.528582,18.264221 13.291696,25.230495 11.500037,31.436501 z"
             style="fill:#404040;"/>
          </a>
         </g>
        </svg>
</svg>
