<?xml version="1.0" encoding="UTF-8" standalone="no"?>
<!DOCTYPE svg PUBLIC "-//W3C//DTD SVG 1.1//EN"
 "http://www.w3.org/Graphics/SVG/1.1/DTD/svg11.dtd">
<!-- Generated by graphviz version 2.43.0 (0)
 -->
<!-- Title: src/usersdialog.h Pages: 1 -->
<svg width="251pt" height="137pt"
 viewBox="0.00 0.00 250.50 137.00" xmlns="http://www.w3.org/2000/svg" xmlns:xlink="http://www.w3.org/1999/xlink">
<g id="graph0" class="graph" transform="scale(1 1) rotate(0) translate(4 133)">
<title>src/usersdialog.h</title>
<!-- Node1 -->
<g id="Node000001" class="node">
<title>Node1</title>
<g id="a_Node000001"><a xlink:title=" ">
<polygon fill="#999999" stroke="#666666" points="204.5,-129 105.5,-129 105.5,-110 204.5,-110 204.5,-129"/>
<text text-anchor="middle" x="155" y="-117" font-family="Helvetica,sans-Serif" font-size="10.00">src/usersdialog.h</text>
</a>
</g>
</g>
<!-- Node2 -->
<g id="Node000002" class="node">
<title>Node2</title>
<g id="a_Node000002"><a xlink:href="userinfo_8h.html" target="_top" xlink:title=" ">
<polygon fill="white" stroke="#666666" points="108.5,-74 43.5,-74 43.5,-55 108.5,-55 108.5,-74"/>
<text text-anchor="middle" x="76" y="-62" font-family="Helvetica,sans-Serif" font-size="10.00">userinfo.h</text>
</a>
</g>
</g>
<!-- Node1&#45;&gt;Node2 -->
<g id="edge1_Node000001_Node000002" class="edge">
<title>Node1&#45;&gt;Node2</title>
<g id="a_edge1_Node000001_Node000002"><a xlink:title=" ">
<path fill="none" stroke="#63b8ff" d="M142.31,-109.98C130.17,-101.84 111.64,-89.41 97.25,-79.76"/>
<polygon fill="#63b8ff" stroke="#63b8ff" points="99.18,-76.84 88.92,-74.17 95.28,-82.65 99.18,-76.84"/>
</a>
</g>
</g>
<!-- Node5 -->
<g id="Node000005" class="node">
<title>Node5</title>
<g id="a_Node000005"><a xlink:title=" ">
<polygon fill="#e0e0e0" stroke="#999999" points="183,-74 127,-74 127,-55 183,-55 183,-74"/>
<text text-anchor="middle" x="155" y="-62" font-family="Helvetica,sans-Serif" font-size="10.00">QDialog</text>
</a>
</g>
</g>
<!-- Node1&#45;&gt;Node5 -->
<g id="edge4_Node000001_Node000005" class="edge">
<title>Node1&#45;&gt;Node5</title>
<g id="a_edge4_Node000001_Node000005"><a xlink:title=" ">
<path fill="none" stroke="#63b8ff" d="M155,-109.75C155,-102.8 155,-92.85 155,-84.13"/>
<polygon fill="#63b8ff" stroke="#63b8ff" points="158.5,-84.09 155,-74.09 151.5,-84.09 158.5,-84.09"/>
</a>
</g>
</g>
<!-- Node6 -->
<g id="Node000006" class="node">
<title>Node6</title>
<g id="a_Node000006"><a xlink:title=" ">
<polygon fill="#e0e0e0" stroke="#999999" points="242.5,-74 201.5,-74 201.5,-55 242.5,-55 242.5,-74"/>
<text text-anchor="middle" x="222" y="-62" font-family="Helvetica,sans-Serif" font-size="10.00">QList</text>
</a>
</g>
</g>
<!-- Node1&#45;&gt;Node6 -->
<g id="edge5_Node000001_Node000006" class="edge">
<title>Node1&#45;&gt;Node6</title>
<g id="a_edge5_Node000001_Node000006"><a xlink:title=" ">
<path fill="none" stroke="#63b8ff" d="M165.76,-109.98C175.77,-102.07 190.89,-90.11 202.93,-80.58"/>
<polygon fill="#63b8ff" stroke="#63b8ff" points="205.37,-83.12 211.04,-74.17 201.03,-77.63 205.37,-83.12"/>
</a>
</g>
</g>
<!-- Node3 -->
<g id="Node000003" class="node">
<title>Node3</title>
<g id="a_Node000003"><a xlink:title=" ">
<polygon fill="#e0e0e0" stroke="#999999" points="72,-19 0,-19 0,0 72,0 72,-19"/>
<text text-anchor="middle" x="36" y="-7" font-family="Helvetica,sans-Serif" font-size="10.00">QDateTime</text>
</a>
</g>
</g>
<!-- Node2&#45;&gt;Node3 -->
<g id="edge2_Node000002_Node000003" class="edge">
<title>Node2&#45;&gt;Node3</title>
<g id="a_edge2_Node000002_Node000003"><a xlink:title=" ">
<path fill="none" stroke="#63b8ff" d="M69.39,-54.75C63.74,-47.26 55.46,-36.28 48.55,-27.13"/>
<polygon fill="#63b8ff" stroke="#63b8ff" points="51.3,-24.96 42.48,-19.09 45.71,-29.18 51.3,-24.96"/>
</a>
</g>
</g>
<!-- Node4 -->
<g id="Node000004" class="node">
<title>Node4</title>
<g id="a_Node000004"><a xlink:title=" ">
<polygon fill="#e0e0e0" stroke="#999999" points="143.5,-19 90.5,-19 90.5,0 143.5,0 143.5,-19"/>
<text text-anchor="middle" x="117" y="-7" font-family="Helvetica,sans-Serif" font-size="10.00">QString</text>
</a>
</g>
</g>
<!-- Node2&#45;&gt;Node4 -->
<g id="edge3_Node000002_Node000004" class="edge">
<title>Node2&#45;&gt;Node4</title>
<g id="a_edge3_Node000002_Node000004"><a xlink:title=" ">
<path fill="none" stroke="#63b8ff" d="M82.77,-54.75C88.56,-47.26 97.06,-36.28 104.14,-27.13"/>
<polygon fill="#63b8ff" stroke="#63b8ff" points="107.01,-29.14 110.36,-19.09 101.47,-24.86 107.01,-29.14"/>
</a>
</g>
</g>
</g>
</svg>
