<?xml version="1.0" encoding="UTF-8" standalone="no"?>
<!DOCTYPE svg PUBLIC "-//W3C//DTD SVG 1.1//EN"
 "http://www.w3.org/Graphics/SVG/1.1/DTD/svg11.dtd">
<!-- Generated by graphviz version 2.38.0 (20140413.2041)
 -->
<!-- Title: usersdialog.h Pages: 1 -->
<!--zoomable 357 -->
<svg id="main" version="1.1" xmlns="http://www.w3.org/2000/svg" xmlns:xlink="http://www.w3.org/1999/xlink" xml:space="preserve" onload="init(evt)">
<style type="text/css"><![CDATA[
.edge:hover path { stroke: red; }
.edge:hover polygon { stroke: red; fill: red; }
]]></style>
<script type="text/javascript"><![CDATA[
var edges = document.getElementsByTagName('g');
if (edges && edges.length) {
  for (var i=0;i<edges.length;i++) {
    if (edges[i].id.substr(0,4)=='edge') {
      edges[i].setAttribute('class','edge');
    }
  }
}
]]></script>
        <defs>
                <circle id="rim" cx="0" cy="0" r="7"/>
                <circle id="rim2" cx="0" cy="0" r="3.5"/>
                <g id="zoomPlus">
                        <use xlink:href="#rim" fill="#404040">
                                <set attributeName="fill" to="#808080" begin="zoomplus.mouseover" end="zoomplus.mouseout"/>
                        </use>
                        <path d="M-4,0h8M0,-4v8" fill="none" stroke="white" stroke-width="1.5" pointer-events="none"/>
                </g>
                <g id="zoomMin">
                        <use xlink:href="#rim" fill="#404040">
                                <set attributeName="fill" to="#808080" begin="zoomminus.mouseover" end="zoomminus.mouseout"/>
                        </use>
                        <path d="M-4,0h8" fill="none" stroke="white" stroke-width="1.5" pointer-events="none"/>
                </g>
                <g id="dirArrow">
                        <path fill="none" stroke="white" stroke-width="1.5" d="M0,-3.0v7 M-2.5,-0.5L0,-3.0L2.5,-0.5"/>
                </g>
               <g id="resetDef">
                       <use xlink:href="#rim2" fill="#404040">
                               <set attributeName="fill" to="#808080" begin="reset.mouseover" end="reset.mouseout"/>
                       </use>
               </g>
        </defs>

<script type="text/javascript">
var viewWidth = 1159;
var viewHeight = 357;
var sectionId = 'dynsection-1';
</script>
<script xlink:href="svgpan.js"/>
<svg id="graph" class="graph">
<g id="viewport">
<title>usersdialog.h</title>
<!-- Node6 -->
<g id="node1" class="node"><title>Node6</title>
<polygon fill="#bfbfbf" stroke="black" points="537.274,-330.5 537.274,-348.5 612.757,-348.5 612.757,-330.5 537.274,-330.5"/>
<text text-anchor="middle" x="575.015" y="-336.5" font-family="Helvetica,sans-Serif" font-size="10.00">usersdialog.h</text>
</g>
<!-- Node7 -->
<g id="node2" class="node"><title>Node7</title>
<g id="a_node2"><a xlink:href="pass_8h.html" target="_top" xlink:title="pass.h">
<polygon fill="none" stroke="black" points="552.284,-275.5 552.284,-293.5 597.747,-293.5 597.747,-275.5 552.284,-275.5"/>
<text text-anchor="middle" x="575.015" y="-281.5" font-family="Helvetica,sans-Serif" font-size="10.00">pass.h</text>
</a>
</g>
</g>
<!-- Node6&#45;&gt;Node7 -->
<g id="edge1" class="edge"><title>Node6&#45;&gt;Node7</title>
<path fill="none" stroke="midnightblue" d="M575.015,-320.175C575.015,-311.094 575.015,-300.595 575.015,-293.55"/>
<polygon fill="midnightblue" stroke="midnightblue" points="571.516,-320.219 575.015,-330.219 578.516,-320.219 571.516,-320.219"/>
</g>
<!-- Node14 -->
<g id="node9" class="node"><title>Node14</title>
<g id="a_node9"><a xlink:href="mainwindow_8cpp.html" target="_top" xlink:title="mainwindow.cpp">
<polygon fill="none" stroke="black" points="680.326,-0.5 680.326,-18.5 769.705,-18.5 769.705,-0.5 680.326,-0.5"/>
<text text-anchor="middle" x="725.015" y="-6.5" font-family="Helvetica,sans-Serif" font-size="10.00">mainwindow.cpp</text>
</a>
</g>
</g>
<!-- Node6&#45;&gt;Node14 -->
<g id="edge36" class="edge"><title>Node6&#45;&gt;Node14</title>
<path fill="none" stroke="midnightblue" d="M526.615,-334.496C388.268,-322.406 1.01546,-283.805 1.01546,-230.5 1.01546,-230.5 1.01546,-230.5 1.01546,-118.5 1.01546,-89.0415 -3.04637,-73.3291 20.0155,-55 71.5905,-14.0093 533.271,-10.4791 680.273,-10.4027"/>
<polygon fill="midnightblue" stroke="midnightblue" points="526.645,-338.011 536.909,-335.386 527.248,-331.037 526.645,-338.011"/>
</g>
<!-- Node28 -->
<g id="node23" class="node"><title>Node28</title>
<g id="a_node23"><a xlink:href="usersdialog_8cpp.html" target="_top" xlink:title="usersdialog.cpp">
<polygon fill="none" stroke="black" points="615.993,-275.5 615.993,-293.5 702.037,-293.5 702.037,-275.5 615.993,-275.5"/>
<text text-anchor="middle" x="659.015" y="-281.5" font-family="Helvetica,sans-Serif" font-size="10.00">usersdialog.cpp</text>
</a>
</g>
</g>
<!-- Node6&#45;&gt;Node28 -->
<g id="edge37" class="edge"><title>Node6&#45;&gt;Node28</title>
<path fill="none" stroke="midnightblue" d="M596.331,-325.051C612.04,-315.139 632.893,-301.982 646.138,-293.625"/>
<polygon fill="midnightblue" stroke="midnightblue" points="594.363,-322.154 587.773,-330.45 598.098,-328.074 594.363,-322.154"/>
</g>
<!-- Node8 -->
<g id="node3" class="node"><title>Node8</title>
<g id="a_node3"><a xlink:href="imitatepass_8h.html" target="_top" xlink:title="imitatepass.h">
<polygon fill="none" stroke="black" points="537.557,-220.5 537.557,-238.5 612.473,-238.5 612.473,-220.5 537.557,-220.5"/>
<text text-anchor="middle" x="575.015" y="-226.5" font-family="Helvetica,sans-Serif" font-size="10.00">imitatepass.h</text>
</a>
</g>
</g>
<!-- Node7&#45;&gt;Node8 -->
<g id="edge2" class="edge"><title>Node7&#45;&gt;Node8</title>
<path fill="none" stroke="midnightblue" d="M575.015,-265.175C575.015,-256.094 575.015,-245.595 575.015,-238.55"/>
<polygon fill="midnightblue" stroke="midnightblue" points="571.516,-265.219 575.015,-275.219 578.516,-265.219 571.516,-265.219"/>
</g>
<!-- Node9 -->
<g id="node4" class="node"><title>Node9</title>
<g id="a_node4"><a xlink:href="mainwindow_8h.html" target="_top" xlink:title="mainwindow.h">
<polygon fill="none" stroke="black" points="600.607,-165.5 600.607,-183.5 679.424,-183.5 679.424,-165.5 600.607,-165.5"/>
<text text-anchor="middle" x="640.015" y="-171.5" font-family="Helvetica,sans-Serif" font-size="10.00">mainwindow.h</text>
</a>
</g>
</g>
<!-- Node7&#45;&gt;Node9 -->
<g id="edge31" class="edge"><title>Node7&#45;&gt;Node9</title>
<path fill="none" stroke="midnightblue" d="M594.433,-268.701C603.646,-260.784 614.12,-250.339 621.015,-239 631.897,-221.106 636.91,-196.56 638.898,-183.865"/>
<polygon fill="midnightblue" stroke="midnightblue" points="591.993,-266.175 586.466,-275.214 596.424,-271.595 591.993,-266.175"/>
</g>
<!-- Node17 -->
<g id="node12" class="node"><title>Node17</title>
<g id="a_node12"><a xlink:href="pass_8cpp.html" target="_top" xlink:title="pass.cpp">
<polygon fill="none" stroke="black" points="641.003,-55.5 641.003,-73.5 697.028,-73.5 697.028,-55.5 641.003,-55.5"/>
<text text-anchor="middle" x="669.015" y="-61.5" font-family="Helvetica,sans-Serif" font-size="10.00">pass.cpp</text>
</a>
</g>
</g>
<!-- Node7&#45;&gt;Node17 -->
<g id="edge35" class="edge"><title>Node7&#45;&gt;Node17</title>
<path fill="none" stroke="midnightblue" d="M607.614,-272.956C697.656,-243.515 944.574,-160.527 966.015,-129 970.764,-122.017 971.526,-116.398 966.015,-110 957.232,-99.803 769.37,-77.1018 697.049,-68.7041"/>
<polygon fill="midnightblue" stroke="midnightblue" points="606.346,-269.687 597.924,-276.115 608.516,-276.343 606.346,-269.687"/>
</g>
<!-- Node27 -->
<g id="node22" class="node"><title>Node27</title>
<g id="a_node22"><a xlink:href="realpass_8h.html" target="_top" xlink:title="realpass.h">
<polygon fill="none" stroke="black" points="456.947,-220.5 456.947,-238.5 519.084,-238.5 519.084,-220.5 456.947,-220.5"/>
<text text-anchor="middle" x="488.015" y="-226.5" font-family="Helvetica,sans-Serif" font-size="10.00">realpass.h</text>
</a>
</g>
</g>
<!-- Node7&#45;&gt;Node27 -->
<g id="edge32" class="edge"><title>Node7&#45;&gt;Node27</title>
<path fill="none" stroke="midnightblue" d="M552.938,-270.051C536.669,-260.139 515.07,-246.982 501.353,-238.625"/>
<polygon fill="midnightblue" stroke="midnightblue" points="551.441,-273.237 561.802,-275.45 555.083,-267.259 551.441,-273.237"/>
</g>
<!-- Node8&#45;&gt;Node9 -->
<g id="edge3" class="edge"><title>Node8&#45;&gt;Node9</title>
<path fill="none" stroke="midnightblue" d="M592.889,-213.926C604.864,-204.162 620.185,-191.669 630.05,-183.625"/>
<polygon fill="midnightblue" stroke="midnightblue" points="590.426,-211.418 584.888,-220.45 594.85,-216.844 590.426,-211.418"/>
</g>
<!-- Node16 -->
<g id="node11" class="node"><title>Node16</title>
<g id="a_node11"><a xlink:href="imitatepass_8cpp.html" target="_top" xlink:title="imitatepass.cpp">
<polygon fill="none" stroke="black" points="119.277,-55.5 119.277,-73.5 204.754,-73.5 204.754,-55.5 119.277,-55.5"/>
<text text-anchor="middle" x="162.015" y="-61.5" font-family="Helvetica,sans-Serif" font-size="10.00">imitatepass.cpp</text>
</a>
</g>
</g>
<!-- Node8&#45;&gt;Node16 -->
<g id="edge30" class="edge"><title>Node8&#45;&gt;Node16</title>
<path fill="none" stroke="midnightblue" d="M533.491,-217.799C474.162,-201.857 362.324,-169.374 272.015,-129 234.774,-112.35 193.912,-86.6029 174.112,-73.6018"/>
<polygon fill="midnightblue" stroke="midnightblue" points="532.683,-221.205 543.247,-220.398 534.485,-214.441 532.683,-221.205"/>
</g>
<!-- Node10 -->
<g id="node5" class="node"><title>Node10</title>
<g id="a_node5"><a xlink:href="configdialog_8h.html" target="_top" xlink:title="configdialog.h">
<polygon fill="none" stroke="black" points="1013.16,-110.5 1013.16,-128.5 1090.87,-128.5 1090.87,-110.5 1013.16,-110.5"/>
<text text-anchor="middle" x="1052.02" y="-116.5" font-family="Helvetica,sans-Serif" font-size="10.00">configdialog.h</text>
</a>
</g>
</g>
<!-- Node9&#45;&gt;Node10 -->
<g id="edge4" class="edge"><title>Node9&#45;&gt;Node10</title>
<path fill="none" stroke="midnightblue" d="M689.446,-167.141C772.313,-156.481 937.572,-135.222 1012.93,-125.528"/>
<polygon fill="midnightblue" stroke="midnightblue" points="688.991,-163.671 679.52,-168.418 689.885,-170.614 688.991,-163.671"/>
</g>
<!-- Node11 -->
<g id="node6" class="node"><title>Node11</title>
<g id="a_node6"><a xlink:href="configdialog_8cpp.html" target="_top" xlink:title="configdialog.cpp">
<polygon fill="none" stroke="black" points="1062.88,-0.5 1062.88,-18.5 1151.15,-18.5 1151.15,-0.5 1062.88,-0.5"/>
<text text-anchor="middle" x="1107.02" y="-6.5" font-family="Helvetica,sans-Serif" font-size="10.00">configdialog.cpp</text>
</a>
</g>
</g>
<!-- Node9&#45;&gt;Node11 -->
<g id="edge11" class="edge"><title>Node9&#45;&gt;Node11</title>
<path fill="none" stroke="midnightblue" d="M689.84,-172.168C802.888,-168.659 1071.27,-157.399 1100.02,-129 1130.36,-99.0196 1116.21,-40.045 1109.68,-18.5672"/>
<polygon fill="midnightblue" stroke="midnightblue" points="689.608,-168.674 679.719,-172.474 689.82,-175.67 689.608,-168.674"/>
</g>
<!-- Node9&#45;&gt;Node14 -->
<g id="edge23" class="edge"><title>Node9&#45;&gt;Node14</title>
<path fill="none" stroke="midnightblue" d="M663.298,-160.313C694.339,-142.8 746.493,-113.642 756.015,-110 821.668,-84.8938 866.335,-129.069 910.015,-74 948.844,-25.048 836.285,-13.6603 769.899,-11.1269"/>
<polygon fill="midnightblue" stroke="midnightblue" points="661.398,-157.366 654.413,-165.333 664.841,-163.461 661.398,-157.366"/>
</g>
<!-- Node15 -->
<g id="node10" class="node"><title>Node15</title>
<g id="a_node10"><a xlink:href="qtpasssettings_8h.html" target="_top" xlink:title="qtpasssettings.h">
<polygon fill="none" stroke="black" points="341.883,-110.5 341.883,-128.5 430.148,-128.5 430.148,-110.5 341.883,-110.5"/>
<text text-anchor="middle" x="386.015" y="-116.5" font-family="Helvetica,sans-Serif" font-size="10.00">qtpasssettings.h</text>
</a>
</g>
</g>
<!-- Node9&#45;&gt;Node15 -->
<g id="edge12" class="edge"><title>Node9&#45;&gt;Node15</title>
<path fill="none" stroke="midnightblue" d="M591.479,-163.372C542.926,-153.241 469.215,-137.861 424.539,-128.538"/>
<polygon fill="midnightblue" stroke="midnightblue" points="590.934,-166.834 601.438,-165.45 592.364,-159.982 590.934,-166.834"/>
</g>
<!-- Node9&#45;&gt;Node16 -->
<g id="edge21" class="edge"><title>Node9&#45;&gt;Node16</title>
<path fill="none" stroke="midnightblue" d="M590.069,-169.532C528.787,-163.918 422.058,-151.713 333.015,-129 275.633,-114.363 210.84,-87.227 180.081,-73.6625"/>
<polygon fill="midnightblue" stroke="midnightblue" points="589.965,-173.036 600.237,-170.441 590.588,-166.064 589.965,-173.036"/>
</g>
<!-- Node21 -->
<g id="node16" class="node"><title>Node21</title>
<g id="a_node16"><a xlink:href="deselectabletreeview_8h.html" target="_top" xlink:title="deselectabletreeview.h">
<polygon fill="none" stroke="black" points="765.425,-110.5 765.425,-128.5 882.606,-128.5 882.606,-110.5 765.425,-110.5"/>
<text text-anchor="middle" x="824.015" y="-116.5" font-family="Helvetica,sans-Serif" font-size="10.00">deselectabletreeview.h</text>
</a>
</g>
</g>
<!-- Node9&#45;&gt;Node21 -->
<g id="edge20" class="edge"><title>Node9&#45;&gt;Node21</title>
<path fill="none" stroke="midnightblue" d="M677.859,-162.6C713.016,-152.473 764.557,-137.627 796.109,-128.538"/>
<polygon fill="midnightblue" stroke="midnightblue" points="676.602,-159.319 667.961,-165.45 678.539,-166.046 676.602,-159.319"/>
</g>
<!-- Node22 -->
<g id="node17" class="node"><title>Node22</title>
<g id="a_node17"><a xlink:href="main_8cpp.html" target="_top" xlink:title="main.cpp">
<polygon fill="none" stroke="black" points="900.727,-110.5 900.727,-128.5 957.304,-128.5 957.304,-110.5 900.727,-110.5"/>
<text text-anchor="middle" x="929.015" y="-116.5" font-family="Helvetica,sans-Serif" font-size="10.00">main.cpp</text>
</a>
</g>
</g>
<!-- Node9&#45;&gt;Node22 -->
<g id="edge22" class="edge"><title>Node9&#45;&gt;Node22</title>
<path fill="none" stroke="midnightblue" d="M689.935,-165.457C740.879,-157.067 822.159,-143.182 892.015,-129 894.728,-128.449 897.547,-127.85 900.364,-127.234"/>
<polygon fill="midnightblue" stroke="midnightblue" points="689.153,-162.038 679.852,-167.111 690.287,-168.946 689.153,-162.038"/>
</g>
<!-- Node23 -->
<g id="node18" class="node"><title>Node23</title>
<g id="a_node18"><a xlink:href="passworddialog_8h.html" target="_top" xlink:title="passworddialog.h">
<polygon fill="none" stroke="black" points="459.102,-110.5 459.102,-128.5 552.929,-128.5 552.929,-110.5 459.102,-110.5"/>
<text text-anchor="middle" x="506.015" y="-116.5" font-family="Helvetica,sans-Serif" font-size="10.00">passworddialog.h</text>
</a>
</g>
</g>
<!-- Node9&#45;&gt;Node23 -->
<g id="edge24" class="edge"><title>Node9&#45;&gt;Node23</title>
<path fill="none" stroke="midnightblue" d="M610.146,-161.686C584.721,-151.63 548.871,-137.45 526.559,-128.625"/>
<polygon fill="midnightblue" stroke="midnightblue" points="609.077,-165.027 619.664,-165.45 611.652,-158.518 609.077,-165.027"/>
</g>
<!-- Node25 -->
<g id="node20" class="node"><title>Node25</title>
<g id="a_node20"><a xlink:href="qpushbuttonwithclipboard_8h.html" target="_top" xlink:title="qpushbuttonwithclipboard.h">
<polygon fill="none" stroke="black" points="571.139,-110.5 571.139,-128.5 708.892,-128.5 708.892,-110.5 571.139,-110.5"/>
<text text-anchor="middle" x="640.015" y="-116.5" font-family="Helvetica,sans-Serif" font-size="10.00">qpushbuttonwithclipboard.h</text>
</a>
</g>
</g>
<!-- Node9&#45;&gt;Node25 -->
<g id="edge27" class="edge"><title>Node9&#45;&gt;Node25</title>
<path fill="none" stroke="midnightblue" d="M640.015,-155.175C640.015,-146.094 640.015,-135.595 640.015,-128.55"/>
<polygon fill="midnightblue" stroke="midnightblue" points="636.516,-155.219 640.015,-165.219 643.516,-155.219 636.516,-155.219"/>
</g>
<!-- Node10&#45;&gt;Node11 -->
<g id="edge5" class="edge"><title>Node10&#45;&gt;Node11</title>
<path fill="none" stroke="midnightblue" d="M1067.22,-102.842C1074.36,-94.7664 1082.51,-84.437 1088.02,-74 1097.79,-55.4767 1103.27,-31.1963 1105.62,-18.7069"/>
<polygon fill="midnightblue" stroke="midnightblue" points="1064.49,-100.632 1060.28,-110.353 1069.63,-105.383 1064.49,-100.632"/>
</g>
<!-- Node12 -->
<g id="node7" class="node"><title>Node12</title>
<g id="a_node7"><a xlink:href="keygendialog_8h.html" target="_top" xlink:title="keygendialog.h">
<polygon fill="none" stroke="black" points="995.378,-55.5 995.378,-73.5 1078.65,-73.5 1078.65,-55.5 995.378,-55.5"/>
<text text-anchor="middle" x="1037.02" y="-61.5" font-family="Helvetica,sans-Serif" font-size="10.00">keygendialog.h</text>
</a>
</g>
</g>
<!-- Node10&#45;&gt;Node12 -->
<g id="edge6" class="edge"><title>Node10&#45;&gt;Node12</title>
<path fill="none" stroke="midnightblue" d="M1046.91,-100.473C1044.32,-91.3257 1041.31,-80.6724 1039.29,-73.5496"/>
<polygon fill="midnightblue" stroke="midnightblue" points="1043.58,-101.55 1049.67,-110.219 1050.32,-99.6435 1043.58,-101.55"/>
</g>
<!-- Node10&#45;&gt;Node14 -->
<g id="edge10" class="edge"><title>Node10&#45;&gt;Node14</title>
<path fill="none" stroke="midnightblue" d="M1032.48,-104.457C1011.39,-89.9592 976.347,-67.7153 943.015,-55 885.451,-33.0406 814.992,-21.1703 770.053,-15.3415"/>
<polygon fill="midnightblue" stroke="midnightblue" points="1030.67,-107.464 1040.87,-110.329 1034.68,-101.728 1030.67,-107.464"/>
</g>
<!-- Node12&#45;&gt;Node11 -->
<g id="edge7" class="edge"><title>Node12&#45;&gt;Node11</title>
<path fill="none" stroke="midnightblue" d="M1055.89,-49.2095C1068.84,-39.4052 1085.56,-26.7474 1096.28,-18.6253"/>
<polygon fill="midnightblue" stroke="midnightblue" points="1053.51,-46.6236 1047.65,-55.4504 1057.73,-52.2044 1053.51,-46.6236"/>
</g>
<!-- Node13 -->
<g id="node8" class="node"><title>Node13</title>
<g id="a_node8"><a xlink:href="keygendialog_8cpp.html" target="_top" xlink:title="keygendialog.cpp">
<polygon fill="none" stroke="black" points="951.097,-0.5 951.097,-18.5 1044.93,-18.5 1044.93,-0.5 951.097,-0.5"/>
<text text-anchor="middle" x="998.015" y="-6.5" font-family="Helvetica,sans-Serif" font-size="10.00">keygendialog.cpp</text>
</a>
</g>
</g>
<!-- Node12&#45;&gt;Node13 -->
<g id="edge8" class="edge"><title>Node12&#45;&gt;Node13</title>
<path fill="none" stroke="midnightblue" d="M1024.84,-46.9507C1017.88,-37.4941 1009.46,-26.0595 1003.94,-18.5496"/>
<polygon fill="midnightblue" stroke="midnightblue" points="1022.18,-49.2388 1030.92,-55.2188 1027.81,-45.09 1022.18,-49.2388"/>
</g>
<!-- Node12&#45;&gt;Node14 -->
<g id="edge9" class="edge"><title>Node12&#45;&gt;Node14</title>
<path fill="none" stroke="midnightblue" d="M985.218,-54.7011C925.056,-44.4813 826.797,-27.7898 769.801,-18.1078"/>
<polygon fill="midnightblue" stroke="midnightblue" points="984.817,-58.1829 995.261,-56.4072 985.989,-51.2818 984.817,-58.1829"/>
</g>
<!-- Node15&#45;&gt;Node11 -->
<g id="edge13" class="edge"><title>Node15&#45;&gt;Node11</title>
<path fill="none" stroke="midnightblue" d="M406.128,-104.914C429.818,-89.714 470.913,-65.8084 510.015,-55 743.564,9.55585 813.242,-46.2145 1054.02,-19 1056.89,-18.6755 1059.84,-18.305 1062.81,-17.9043"/>
<polygon fill="midnightblue" stroke="midnightblue" points="404.11,-102.051 397.659,-110.456 407.944,-107.908 404.11,-102.051"/>
</g>
<!-- Node15&#45;&gt;Node14 -->
<g id="edge15" class="edge"><title>Node15&#45;&gt;Node14</title>
<path fill="none" stroke="midnightblue" d="M331.597,-111.201C283.3,-102.573 224.349,-85.3917 252.015,-55 280.506,-23.703 567.363,-13.9859 679.978,-11.3632"/>
<polygon fill="midnightblue" stroke="midnightblue" points="331.262,-114.694 341.706,-112.914 332.431,-107.792 331.262,-114.694"/>
</g>
<!-- Node15&#45;&gt;Node16 -->
<g id="edge14" class="edge"><title>Node15&#45;&gt;Node16</title>
<path fill="none" stroke="midnightblue" d="M342.132,-108.117C299.307,-97.9842 235.059,-82.7826 195.989,-73.5383"/>
<polygon fill="midnightblue" stroke="midnightblue" points="341.457,-111.554 351.995,-110.45 343.069,-104.742 341.457,-111.554"/>
</g>
<!-- Node15&#45;&gt;Node17 -->
<g id="edge16" class="edge"><title>Node15&#45;&gt;Node17</title>
<path fill="none" stroke="midnightblue" d="M440.517,-109.395C490.46,-100.873 566.386,-87.4668 632.015,-74 634.856,-73.4171 637.814,-72.7834 640.763,-72.1337"/>
<polygon fill="midnightblue" stroke="midnightblue" points="439.848,-105.958 430.576,-111.085 441.022,-112.859 439.848,-105.958"/>
</g>
<!-- Node18 -->
<g id="node13" class="node"><title>Node18</title>
<g id="a_node13"><a xlink:href="qtpasssettings_8cpp.html" target="_top" xlink:title="qtpasssettings.cpp">
<polygon fill="none" stroke="black" points="260.602,-55.5 260.602,-73.5 359.429,-73.5 359.429,-55.5 260.602,-55.5"/>
<text text-anchor="middle" x="310.015" y="-61.5" font-family="Helvetica,sans-Serif" font-size="10.00">qtpasssettings.cpp</text>
</a>
</g>
</g>
<!-- Node15&#45;&gt;Node18 -->
<g id="edge17" class="edge"><title>Node15&#45;&gt;Node18</title>
<path fill="none" stroke="midnightblue" d="M365.928,-104.492C351.814,-94.6491 333.426,-81.8255 321.667,-73.6253"/>
<polygon fill="midnightblue" stroke="midnightblue" points="364.268,-107.601 374.473,-110.45 368.272,-101.859 364.268,-107.601"/>
</g>
<!-- Node19 -->
<g id="node14" class="node"><title>Node19</title>
<g id="a_node14"><a xlink:href="realpass_8cpp.html" target="_top" xlink:title="realpass.cpp">
<polygon fill="none" stroke="black" points="28.6658,-55.5 28.6658,-73.5 101.365,-73.5 101.365,-55.5 28.6658,-55.5"/>
<text text-anchor="middle" x="65.0155" y="-61.5" font-family="Helvetica,sans-Serif" font-size="10.00">realpass.cpp</text>
</a>
</g>
</g>
<!-- Node15&#45;&gt;Node19 -->
<g id="edge18" class="edge"><title>Node15&#45;&gt;Node19</title>
<path fill="none" stroke="midnightblue" d="M331.49,-110.151C275.764,-101.514 186.753,-87.4312 110.015,-74 107.353,-73.5339 104.604,-73.0418 101.838,-72.5386"/>
<polygon fill="midnightblue" stroke="midnightblue" points="331.08,-113.629 341.498,-111.699 332.15,-106.711 331.08,-113.629"/>
</g>
<!-- Node20 -->
<g id="node15" class="node"><title>Node20</title>
<g id="a_node15"><a xlink:href="util_8cpp.html" target="_top" xlink:title="util.cpp">
<polygon fill="none" stroke="black" points="377.173,-55.5 377.173,-73.5 424.858,-73.5 424.858,-55.5 377.173,-55.5"/>
<text text-anchor="middle" x="401.015" y="-61.5" font-family="Helvetica,sans-Serif" font-size="10.00">util.cpp</text>
</a>
</g>
</g>
<!-- Node15&#45;&gt;Node20 -->
<g id="edge19" class="edge"><title>Node15&#45;&gt;Node20</title>
<path fill="none" stroke="midnightblue" d="M391.117,-100.473C393.706,-91.3257 396.721,-80.6724 398.737,-73.5496"/>
<polygon fill="midnightblue" stroke="midnightblue" points="387.715,-99.6435 388.359,-110.219 394.45,-101.55 387.715,-99.6435"/>
</g>
<!-- Node23&#45;&gt;Node14 -->
<g id="edge25" class="edge"><title>Node23&#45;&gt;Node14</title>
<path fill="none" stroke="midnightblue" d="M501.775,-100.37C499.632,-86.3196 499.389,-67.2436 510.015,-55 531.815,-29.8832 623.792,-18.3315 680.146,-13.5219"/>
<polygon fill="midnightblue" stroke="midnightblue" points="498.369,-101.194 503.728,-110.334 505.239,-99.8469 498.369,-101.194"/>
</g>
<!-- Node24 -->
<g id="node19" class="node"><title>Node24</title>
<g id="a_node19"><a xlink:href="passworddialog_8cpp.html" target="_top" xlink:title="passworddialog.cpp">
<polygon fill="none" stroke="black" points="518.821,-55.5 518.821,-73.5 623.21,-73.5 623.21,-55.5 518.821,-55.5"/>
<text text-anchor="middle" x="571.015" y="-61.5" font-family="Helvetica,sans-Serif" font-size="10.00">passworddialog.cpp</text>
</a>
</g>
</g>
<!-- Node23&#45;&gt;Node24 -->
<g id="edge26" class="edge"><title>Node23&#45;&gt;Node24</title>
<path fill="none" stroke="midnightblue" d="M523.889,-103.926C535.864,-94.1622 551.185,-81.6693 561.05,-73.6253"/>
<polygon fill="midnightblue" stroke="midnightblue" points="521.426,-101.418 515.888,-110.45 525.85,-106.844 521.426,-101.418"/>
</g>
<!-- Node25&#45;&gt;Node14 -->
<g id="edge28" class="edge"><title>Node25&#45;&gt;Node14</title>
<path fill="none" stroke="midnightblue" d="M667.434,-105.676C680.806,-98.1597 696.103,-87.4775 706.015,-74 718.56,-56.9433 722.887,-31.6014 724.329,-18.6958"/>
<polygon fill="midnightblue" stroke="midnightblue" points="665.772,-102.596 658.573,-110.37 669.048,-108.782 665.772,-102.596"/>
</g>
<!-- Node26 -->
<g id="node21" class="node"><title>Node26</title>
<g id="a_node21"><a xlink:href="qpushbuttonwithclipboard_8cpp.html" target="_top" xlink:title="qpushbuttonwithclipboard.cpp">
<polygon fill="none" stroke="black" points="752.858,-55.5 752.858,-73.5 901.173,-73.5 901.173,-55.5 752.858,-55.5"/>
<text text-anchor="middle" x="827.015" y="-61.5" font-family="Helvetica,sans-Serif" font-size="10.00">qpushbuttonwithclipboard.cpp</text>
</a>
</g>
</g>
<!-- Node25&#45;&gt;Node26 -->
<g id="edge29" class="edge"><title>Node25&#45;&gt;Node26</title>
<path fill="none" stroke="midnightblue" d="M678.476,-107.6C714.206,-97.4728 766.588,-82.6265 798.654,-73.5383"/>
<polygon fill="midnightblue" stroke="midnightblue" points="677.083,-104.356 668.417,-110.45 678.992,-111.091 677.083,-104.356"/>
</g>
<!-- Node27&#45;&gt;Node9 -->
<g id="edge33" class="edge"><title>Node27&#45;&gt;Node9</title>
<path fill="none" stroke="midnightblue" d="M520.755,-217.084C549.655,-207.007 591.067,-192.567 616.713,-183.625"/>
<polygon fill="midnightblue" stroke="midnightblue" points="519.391,-213.853 511.101,-220.45 521.696,-220.463 519.391,-213.853"/>
</g>
<!-- Node27&#45;&gt;Node19 -->
<g id="edge34" class="edge"><title>Node27&#45;&gt;Node19</title>
<path fill="none" stroke="midnightblue" d="M454.669,-217.131C429.194,-208.348 393.264,-195.747 362.015,-184 256.527,-144.346 131.583,-93.0679 84.3701,-73.5354"/>
<polygon fill="midnightblue" stroke="midnightblue" points="453.631,-220.476 464.225,-220.417 455.906,-213.856 453.631,-220.476"/>
</g>
</g>
</svg>
        <g id="navigator" transform="translate(0 0)" fill="#404254">
                <rect fill="#f2f5e9" fill-opacity="0.5" stroke="#606060" stroke-width=".5" x="0" y="0" width="60" height="60"/>
                <use id="zoomplus" xlink:href="#zoomPlus" x="17" y="9" onmousedown="handleZoom(evt,'in')"/>
                <use id="zoomminus" xlink:href="#zoomMin" x="42" y="9" onmousedown="handleZoom(evt,'out')"/>
                <use id="reset" xlink:href="#resetDef" x="30" y="36" onmousedown="handleReset()"/>
                <g id="arrowUp" xlink:href="#dirArrow" transform="translate(30 24)" onmousedown="handlePan(0,-1)">
                  <use xlink:href="#rim" fill="#404040">
                        <set attributeName="fill" to="#808080" begin="arrowUp.mouseover" end="arrowUp.mouseout"/>
                  </use>
                  <path fill="none" stroke="white" stroke-width="1.5" d="M0,-3.0v7 M-2.5,-0.5L0,-3.0L2.5,-0.5"/>
                </g>
                <g id="arrowRight" xlink:href="#dirArrow" transform="rotate(90) translate(36 -43)" onmousedown="handlePan(1,0)">
                  <use xlink:href="#rim" fill="#404040">
                        <set attributeName="fill" to="#808080" begin="arrowRight.mouseover" end="arrowRight.mouseout"/>
                  </use>
                  <path fill="none" stroke="white" stroke-width="1.5" d="M0,-3.0v7 M-2.5,-0.5L0,-3.0L2.5,-0.5"/>
                </g>
                <g id="arrowDown" xlink:href="#dirArrow" transform="rotate(180) translate(-30 -48)" onmousedown="handlePan(0,1)">
                  <use xlink:href="#rim" fill="#404040">
                        <set attributeName="fill" to="#808080" begin="arrowDown.mouseover" end="arrowDown.mouseout"/>
                  </use>
                  <path fill="none" stroke="white" stroke-width="1.5" d="M0,-3.0v7 M-2.5,-0.5L0,-3.0L2.5,-0.5"/>
                </g>
                <g id="arrowLeft" xlink:href="#dirArrow" transform="rotate(270) translate(-36 17)" onmousedown="handlePan(-1,0)">
                  <use xlink:href="#rim" fill="#404040">
                        <set attributeName="fill" to="#808080" begin="arrowLeft.mouseover" end="arrowLeft.mouseout"/>
                  </use>
                  <path fill="none" stroke="white" stroke-width="1.5" d="M0,-3.0v7 M-2.5,-0.5L0,-3.0L2.5,-0.5"/>
                </g>
        </g>
        <svg viewBox="0 0 15 15" width="100%" height="30px" preserveAspectRatio="xMaxYMin meet">
         <g id="arrow_out" transform="scale(0.3 0.3)">
          <a xlink:href="usersdialog_8h__dep__incl_org.svg" target="_base">
           <rect id="button" ry="5" rx="5" y="6" x="6" height="38" width="38"
                fill="#f2f5e9" fill-opacity="0.5" stroke="#606060" stroke-width="1.0"/>
           <path id="arrow"
             d="M 11.500037,31.436501 C 11.940474,20.09759 22.043105,11.32322 32.158766,21.979434 L 37.068811,17.246167 C 37.068811,17.246167 37.088388,32 37.088388,32 L 22.160133,31.978069 C 22.160133,31.978069 26.997745,27.140456 26.997745,27.140456 C 18.528582,18.264221 13.291696,25.230495 11.500037,31.436501 z"
             style="fill:#404040;"/>
          </a>
         </g>
        </svg>
</svg>
