<?xml version="1.0" encoding="UTF-8" standalone="no"?>
<!DOCTYPE svg PUBLIC "-//W3C//DTD SVG 1.1//EN"
 "http://www.w3.org/Graphics/SVG/1.1/DTD/svg11.dtd">
<!-- Generated by graphviz version 2.40.1 (20161225.0304)
 -->
<!-- Title: src/usersdialog.cpp Pages: 1 -->
<svg width="496pt" height="192pt"
 viewBox="0.00 0.00 496.06 192.00" xmlns="http://www.w3.org/2000/svg" xmlns:xlink="http://www.w3.org/1999/xlink">
<g id="graph0" class="graph" transform="scale(1 1) rotate(0) translate(4 188)">
<title>src/usersdialog.cpp</title>
<!-- Node0 -->
<g id="node1" class="node">
<title>Node0</title>
<polygon fill="#bfbfbf" stroke="#000000" points="264.3022,-165.5 264.3022,-183.5 366.4546,-183.5 366.4546,-165.5 264.3022,-165.5"/>
<text text-anchor="middle" x="315.3784" y="-171.5" font-family="Helvetica,sans-Serif" font-size="10.00" fill="#000000">src/usersdialog.cpp</text>
</g>
<!-- Node1 -->
<g id="node2" class="node">
<title>Node1</title>
<g id="a_node2"><a xlink:href="usersdialog_8h.html" target="_top" xlink:title="usersdialog.h">
<polygon fill="none" stroke="#000000" points="123.6372,-110.5 123.6372,-128.5 199.1196,-128.5 199.1196,-110.5 123.6372,-110.5"/>
<text text-anchor="middle" x="161.3784" y="-116.5" font-family="Helvetica,sans-Serif" font-size="10.00" fill="#000000">usersdialog.h</text>
</a>
</g>
</g>
<!-- Node0&#45;&gt;Node1 -->
<g id="edge1" class="edge">
<title>Node0&#45;&gt;Node1</title>
<path fill="none" stroke="#191970" d="M289.9485,-165.4179C264.3477,-156.2748 224.6713,-142.1046 196.1657,-131.924"/>
<polygon fill="#191970" stroke="#191970" points="197.1848,-128.5715 186.5902,-128.5042 194.8304,-135.1637 197.1848,-128.5715"/>
</g>
<!-- Node7 -->
<g id="node8" class="node">
<title>Node7</title>
<g id="a_node8"><a xlink:href="debughelper_8h.html" target="_top" xlink:title="debughelper.h">
<polygon fill="none" stroke="#000000" points="224.6792,-110.5 224.6792,-128.5 304.0776,-128.5 304.0776,-110.5 224.6792,-110.5"/>
<text text-anchor="middle" x="264.3784" y="-116.5" font-family="Helvetica,sans-Serif" font-size="10.00" fill="#000000">debughelper.h</text>
</a>
</g>
</g>
<!-- Node0&#45;&gt;Node7 -->
<g id="edge7" class="edge">
<title>Node0&#45;&gt;Node7</title>
<path fill="none" stroke="#191970" d="M306.9568,-165.4179C299.6186,-157.5041 288.7882,-145.8243 279.8871,-136.2251"/>
<polygon fill="#191970" stroke="#191970" points="282.3489,-133.7324 272.983,-128.7795 277.216,-138.492 282.3489,-133.7324"/>
</g>
<!-- Node9 -->
<g id="node10" class="node">
<title>Node9</title>
<polygon fill="none" stroke="#bfbfbf" points="321.9648,-110.5 321.9648,-128.5 410.792,-128.5 410.792,-110.5 321.9648,-110.5"/>
<text text-anchor="middle" x="366.3784" y="-116.5" font-family="Helvetica,sans-Serif" font-size="10.00" fill="#000000">ui_usersdialog.h</text>
</g>
<!-- Node0&#45;&gt;Node9 -->
<g id="edge9" class="edge">
<title>Node0&#45;&gt;Node9</title>
<path fill="none" stroke="#191970" d="M323.8,-165.4179C331.1382,-157.5041 341.9686,-145.8243 350.8697,-136.2251"/>
<polygon fill="#191970" stroke="#191970" points="353.5409,-138.492 357.7738,-128.7795 348.408,-133.7324 353.5409,-138.492"/>
</g>
<!-- Node10 -->
<g id="node11" class="node">
<title>Node10</title>
<polygon fill="none" stroke="#bfbfbf" points="428.7012,-110.5 428.7012,-128.5 488.0557,-128.5 488.0557,-110.5 428.7012,-110.5"/>
<text text-anchor="middle" x="458.3784" y="-116.5" font-family="Helvetica,sans-Serif" font-size="10.00" fill="#000000">QRegExp</text>
</g>
<!-- Node0&#45;&gt;Node10 -->
<g id="edge10" class="edge">
<title>Node0&#45;&gt;Node10</title>
<path fill="none" stroke="#191970" d="M338.992,-165.4179C362.4861,-156.3817 398.7467,-142.4353 425.1432,-132.2828"/>
<polygon fill="#191970" stroke="#191970" points="426.6528,-135.4522 434.7298,-128.5956 424.1399,-128.9188 426.6528,-135.4522"/>
</g>
<!-- Node2 -->
<g id="node3" class="node">
<title>Node2</title>
<g id="a_node3"><a xlink:href="userinfo_8h.html" target="_top" xlink:title="userinfo.h">
<polygon fill="none" stroke="#000000" points="41.4204,-55.5 41.4204,-73.5 101.3364,-73.5 101.3364,-55.5 41.4204,-55.5"/>
<text text-anchor="middle" x="71.3784" y="-61.5" font-family="Helvetica,sans-Serif" font-size="10.00" fill="#000000">userinfo.h</text>
</a>
</g>
</g>
<!-- Node1&#45;&gt;Node2 -->
<g id="edge2" class="edge">
<title>Node1&#45;&gt;Node2</title>
<path fill="none" stroke="#191970" d="M146.5167,-110.4179C132.577,-101.8992 111.4964,-89.0166 95.2083,-79.0627"/>
<polygon fill="#191970" stroke="#191970" points="96.6201,-75.8237 86.2622,-73.5956 92.9699,-81.7967 96.6201,-75.8237"/>
</g>
<!-- Node5 -->
<g id="node6" class="node">
<title>Node5</title>
<polygon fill="none" stroke="#bfbfbf" points="119.3145,-55.5 119.3145,-73.5 171.4424,-73.5 171.4424,-55.5 119.3145,-55.5"/>
<text text-anchor="middle" x="145.3784" y="-61.5" font-family="Helvetica,sans-Serif" font-size="10.00" fill="#000000">QDialog</text>
</g>
<!-- Node1&#45;&gt;Node5 -->
<g id="edge5" class="edge">
<title>Node1&#45;&gt;Node5</title>
<path fill="none" stroke="#191970" d="M158.7363,-110.4179C156.6183,-103.1372 153.573,-92.669 150.9249,-83.5659"/>
<polygon fill="#191970" stroke="#191970" points="154.2319,-82.4037 148.0779,-73.7795 147.5106,-84.3591 154.2319,-82.4037"/>
</g>
<!-- Node6 -->
<g id="node7" class="node">
<title>Node6</title>
<polygon fill="none" stroke="#bfbfbf" points="189.7085,-55.5 189.7085,-73.5 229.0483,-73.5 229.0483,-55.5 189.7085,-55.5"/>
<text text-anchor="middle" x="209.3784" y="-61.5" font-family="Helvetica,sans-Serif" font-size="10.00" fill="#000000">QList</text>
</g>
<!-- Node1&#45;&gt;Node6 -->
<g id="edge6" class="edge">
<title>Node1&#45;&gt;Node6</title>
<path fill="none" stroke="#191970" d="M169.3046,-110.4179C176.1421,-102.5833 186.2009,-91.0575 194.5301,-81.5137"/>
<polygon fill="#191970" stroke="#191970" points="197.3416,-83.6151 201.28,-73.7795 192.0676,-79.0123 197.3416,-83.6151"/>
</g>
<!-- Node3 -->
<g id="node4" class="node">
<title>Node3</title>
<polygon fill="none" stroke="#bfbfbf" points="0,-.5 0,-18.5 66.7568,-18.5 66.7568,-.5 0,-.5"/>
<text text-anchor="middle" x="33.3784" y="-6.5" font-family="Helvetica,sans-Serif" font-size="10.00" fill="#000000">QDateTime</text>
</g>
<!-- Node2&#45;&gt;Node3 -->
<g id="edge3" class="edge">
<title>Node2&#45;&gt;Node3</title>
<path fill="none" stroke="#191970" d="M65.1035,-55.4179C59.7998,-47.7415 52.048,-36.5217 45.5346,-27.0945"/>
<polygon fill="#191970" stroke="#191970" points="48.3536,-25.0173 39.7897,-18.7795 42.5945,-28.9963 48.3536,-25.0173"/>
</g>
<!-- Node4 -->
<g id="node5" class="node">
<title>Node4</title>
<polygon fill="none" stroke="#bfbfbf" points="84.4277,-.5 84.4277,-18.5 134.3291,-18.5 134.3291,-.5 84.4277,-.5"/>
<text text-anchor="middle" x="109.3784" y="-6.5" font-family="Helvetica,sans-Serif" font-size="10.00" fill="#000000">QString</text>
</g>
<!-- Node2&#45;&gt;Node4 -->
<g id="edge4" class="edge">
<title>Node2&#45;&gt;Node4</title>
<path fill="none" stroke="#191970" d="M77.6533,-55.4179C82.957,-47.7415 90.7089,-36.5217 97.2222,-27.0945"/>
<polygon fill="#191970" stroke="#191970" points="100.1624,-28.9963 102.9672,-18.7795 94.4032,-25.0173 100.1624,-28.9963"/>
</g>
<!-- Node8 -->
<g id="node9" class="node">
<title>Node8</title>
<polygon fill="none" stroke="#bfbfbf" points="246.7554,-55.5 246.7554,-73.5 300.0015,-73.5 300.0015,-55.5 246.7554,-55.5"/>
<text text-anchor="middle" x="273.3784" y="-61.5" font-family="Helvetica,sans-Serif" font-size="10.00" fill="#000000">QDebug</text>
</g>
<!-- Node7&#45;&gt;Node8 -->
<g id="edge8" class="edge">
<title>Node7&#45;&gt;Node8</title>
<path fill="none" stroke="#191970" d="M265.8646,-110.4179C267.043,-103.2164 268.7318,-92.8962 270.2099,-83.8632"/>
<polygon fill="#191970" stroke="#191970" points="273.6991,-84.2134 271.86,-73.7795 266.7909,-83.083 273.6991,-84.2134"/>
</g>
</g>
</svg>
