<?xml version="1.0" encoding="UTF-8" standalone="no"?>
<!DOCTYPE svg PUBLIC "-//W3C//DTD SVG 1.1//EN"
 "http://www.w3.org/Graphics/SVG/1.1/DTD/svg11.dtd">
<!-- Generated by graphviz version 2.38.0 (20140413.2041)
 -->
<!-- Title: src/util.cpp Pages: 1 -->
<svg width="2113pt" height="357pt"
 viewBox="0.00 0.00 2113.47 357.00" xmlns="http://www.w3.org/2000/svg" xmlns:xlink="http://www.w3.org/1999/xlink">
<g id="graph0" class="graph" transform="scale(1 1) rotate(0) translate(4 353)">
<title>src/util.cpp</title>
<!-- Node0 -->
<g id="node1" class="node"><title>Node0</title>
<polygon fill="#bfbfbf" stroke="black" points="252.123,-330.5 252.123,-348.5 315.916,-348.5 315.916,-330.5 252.123,-330.5"/>
<text text-anchor="middle" x="284.02" y="-336.5" font-family="Helvetica,sans-Serif" font-size="10.00">src/util.cpp</text>
</g>
<!-- Node1 -->
<g id="node2" class="node"><title>Node1</title>
<g id="a_node2"><a xlink:href="util_8h.html" target="_top" xlink:title="util.h">
<polygon fill="none" stroke="black" points="116.458,-275.5 116.458,-293.5 153.581,-293.5 153.581,-275.5 116.458,-275.5"/>
<text text-anchor="middle" x="135.02" y="-281.5" font-family="Helvetica,sans-Serif" font-size="10.00">util.h</text>
</a>
</g>
</g>
<!-- Node0&#45;&gt;Node1 -->
<g id="edge1" class="edge"><title>Node0&#45;&gt;Node1</title>
<path fill="none" stroke="midnightblue" d="M261.39,-330.45C235.142,-321.114 191.842,-305.712 163.373,-295.586"/>
<polygon fill="midnightblue" stroke="midnightblue" points="164.21,-292.168 153.615,-292.115 161.864,-298.764 164.21,-292.168"/>
</g>
<!-- Node2 -->
<g id="node3" class="node"><title>Node2</title>
<polygon fill="none" stroke="#bfbfbf" points="0,-220.5 0,-238.5 116.039,-238.5 116.039,-220.5 0,-220.5"/>
<text text-anchor="middle" x="58.0195" y="-226.5" font-family="Helvetica,sans-Serif" font-size="10.00">QProcessEnvironment</text>
</g>
<!-- Node0&#45;&gt;Node2 -->
<g id="edge8" class="edge"><title>Node0&#45;&gt;Node2</title>
<path fill="none" stroke="midnightblue" d="M252.107,-336.742C214.602,-333.338 151.812,-323.343 107.02,-294 89.2271,-282.344 75.2221,-261.99 66.8194,-247.468"/>
<polygon fill="midnightblue" stroke="midnightblue" points="69.7938,-245.613 61.9194,-238.524 63.6548,-248.976 69.7938,-245.613"/>
</g>
<!-- Node3 -->
<g id="node4" class="node"><title>Node3</title>
<polygon fill="none" stroke="#bfbfbf" points="403.069,-0.5 403.069,-18.5 452.97,-18.5 452.97,-0.5 403.069,-0.5"/>
<text text-anchor="middle" x="428.02" y="-6.5" font-family="Helvetica,sans-Serif" font-size="10.00">QString</text>
</g>
<!-- Node0&#45;&gt;Node3 -->
<g id="edge9" class="edge"><title>Node0&#45;&gt;Node3</title>
<path fill="none" stroke="midnightblue" d="M257.647,-330.439C239.298,-323.544 215.599,-311.858 201.02,-294 182.389,-271.181 182.02,-259.958 182.02,-230.5 182.02,-230.5 182.02,-230.5 182.02,-118.5 182.02,-27.7376 324.153,-12.5553 392.344,-10.4941"/>
<polygon fill="midnightblue" stroke="midnightblue" points="392.7,-13.9872 402.62,-10.2664 392.545,-6.9889 392.7,-13.9872"/>
</g>
<!-- Node4 -->
<g id="node5" class="node"><title>Node4</title>
<g id="a_node5"><a xlink:href="debughelper_8h.html" target="_top" xlink:title="debughelper.h">
<polygon fill="none" stroke="black" points="210.32,-275.5 210.32,-293.5 289.719,-293.5 289.719,-275.5 210.32,-275.5"/>
<text text-anchor="middle" x="250.02" y="-281.5" font-family="Helvetica,sans-Serif" font-size="10.00">debughelper.h</text>
</a>
</g>
</g>
<!-- Node0&#45;&gt;Node4 -->
<g id="edge4" class="edge"><title>Node0&#45;&gt;Node4</title>
<path fill="none" stroke="midnightblue" d="M278.707,-330.219C273.888,-322.707 266.642,-311.411 260.637,-302.052"/>
<polygon fill="midnightblue" stroke="midnightblue" points="263.529,-300.077 255.183,-293.55 257.637,-303.856 263.529,-300.077"/>
</g>
<!-- Node6 -->
<g id="node7" class="node"><title>Node6</title>
<polygon fill="none" stroke="#bfbfbf" points="281.744,-220.5 281.744,-238.5 318.295,-238.5 318.295,-220.5 281.744,-220.5"/>
<text text-anchor="middle" x="300.02" y="-226.5" font-family="Helvetica,sans-Serif" font-size="10.00">QDir</text>
</g>
<!-- Node0&#45;&gt;Node6 -->
<g id="edge6" class="edge"><title>Node0&#45;&gt;Node6</title>
<path fill="none" stroke="midnightblue" d="M287.56,-330.495C291.234,-321.734 296.752,-307.177 299.02,-294 301.597,-279.025 301.689,-261.771 301.225,-249.031"/>
<polygon fill="midnightblue" stroke="midnightblue" points="304.707,-248.602 300.697,-238.795 297.717,-248.962 304.707,-248.602"/>
</g>
<!-- Node7 -->
<g id="node8" class="node"><title>Node7</title>
<polygon fill="none" stroke="#bfbfbf" points="345.734,-275.5 345.734,-293.5 402.305,-293.5 402.305,-275.5 345.734,-275.5"/>
<text text-anchor="middle" x="374.02" y="-281.5" font-family="Helvetica,sans-Serif" font-size="10.00">QFileInfo</text>
</g>
<!-- Node0&#45;&gt;Node7 -->
<g id="edge7" class="edge"><title>Node0&#45;&gt;Node7</title>
<path fill="none" stroke="midnightblue" d="M297.689,-330.45C311.961,-322.045 334.582,-308.724 351.499,-298.762"/>
<polygon fill="midnightblue" stroke="midnightblue" points="353.381,-301.716 360.222,-293.625 349.829,-295.684 353.381,-301.716"/>
</g>
<!-- Node8 -->
<g id="node9" class="node"><title>Node8</title>
<polygon fill="none" stroke="#bfbfbf" points="420.515,-275.5 420.515,-293.5 481.524,-293.5 481.524,-275.5 420.515,-275.5"/>
<text text-anchor="middle" x="451.02" y="-281.5" font-family="Helvetica,sans-Serif" font-size="10.00">sys/time.h</text>
</g>
<!-- Node0&#45;&gt;Node8 -->
<g id="edge10" class="edge"><title>Node0&#45;&gt;Node8</title>
<path fill="none" stroke="midnightblue" d="M309.383,-330.45C337.789,-321.436 384.014,-306.765 415.888,-296.65"/>
<polygon fill="midnightblue" stroke="midnightblue" points="417.219,-299.899 425.691,-293.538 415.101,-293.227 417.219,-299.899"/>
</g>
<!-- Node9 -->
<g id="node10" class="node"><title>Node9</title>
<g id="a_node10"><a xlink:href="qtpasssettings_8h.html" target="_top" xlink:title="qtpasssettings.h">
<polygon fill="none" stroke="black" points="623.887,-275.5 623.887,-293.5 712.152,-293.5 712.152,-275.5 623.887,-275.5"/>
<text text-anchor="middle" x="668.02" y="-281.5" font-family="Helvetica,sans-Serif" font-size="10.00">qtpasssettings.h</text>
</a>
</g>
</g>
<!-- Node0&#45;&gt;Node9 -->
<g id="edge11" class="edge"><title>Node0&#45;&gt;Node9</title>
<path fill="none" stroke="midnightblue" d="M316.099,-334.072C381.873,-324.994 532.641,-304.185 613.848,-292.977"/>
<polygon fill="midnightblue" stroke="midnightblue" points="614.446,-296.427 623.874,-291.593 613.489,-289.493 614.446,-296.427"/>
</g>
<!-- Node1&#45;&gt;Node2 -->
<g id="edge2" class="edge"><title>Node1&#45;&gt;Node2</title>
<path fill="none" stroke="midnightblue" d="M123.325,-275.45C111.34,-267.201 92.4746,-254.216 78.0957,-244.319"/>
<polygon fill="midnightblue" stroke="midnightblue" points="80.046,-241.412 69.8242,-238.625 76.0771,-247.178 80.046,-241.412"/>
</g>
<!-- Node1&#45;&gt;Node3 -->
<g id="edge3" class="edge"><title>Node1&#45;&gt;Node3</title>
<path fill="none" stroke="midnightblue" d="M136.159,-275.39C138.581,-257.434 144.02,-212.942 144.02,-175.5 144.02,-175.5 144.02,-175.5 144.02,-118.5 144.02,-88.3293 144.74,-74.1926 168.02,-55 201.756,-27.1859 329.823,-16.1064 392.726,-12.2718"/>
<polygon fill="midnightblue" stroke="midnightblue" points="393.178,-15.7516 402.958,-11.6772 392.772,-8.76334 393.178,-15.7516"/>
</g>
<!-- Node5 -->
<g id="node6" class="node"><title>Node5</title>
<polygon fill="none" stroke="#bfbfbf" points="210.396,-220.5 210.396,-238.5 263.643,-238.5 263.643,-220.5 210.396,-220.5"/>
<text text-anchor="middle" x="237.02" y="-226.5" font-family="Helvetica,sans-Serif" font-size="10.00">QDebug</text>
</g>
<!-- Node4&#45;&gt;Node5 -->
<g id="edge5" class="edge"><title>Node4&#45;&gt;Node5</title>
<path fill="none" stroke="midnightblue" d="M247.988,-275.219C246.242,-268.099 243.661,-257.577 241.442,-248.529"/>
<polygon fill="midnightblue" stroke="midnightblue" points="244.775,-247.428 238.994,-238.55 237.977,-249.095 244.775,-247.428"/>
</g>
<!-- Node9&#45;&gt;Node6 -->
<g id="edge14" class="edge"><title>Node9&#45;&gt;Node6</title>
<path fill="none" stroke="midnightblue" d="M623.721,-280.213C560.179,-274.955 439.442,-262.941 328.51,-238.987"/>
<polygon fill="midnightblue" stroke="midnightblue" points="329.013,-235.514 318.495,-236.786 327.51,-242.351 329.013,-235.514"/>
</g>
<!-- Node10 -->
<g id="node11" class="node"><title>Node10</title>
<polygon fill="none" stroke="#bfbfbf" points="336.18,-220.5 336.18,-238.5 403.859,-238.5 403.859,-220.5 336.18,-220.5"/>
<text text-anchor="middle" x="370.02" y="-226.5" font-family="Helvetica,sans-Serif" font-size="10.00">QByteArray</text>
</g>
<!-- Node9&#45;&gt;Node10 -->
<g id="edge12" class="edge"><title>Node9&#45;&gt;Node10</title>
<path fill="none" stroke="midnightblue" d="M623.741,-276.082C574.926,-267.836 493.801,-253.929 414.444,-239.233"/>
<polygon fill="midnightblue" stroke="midnightblue" points="414.745,-235.729 404.274,-237.343 413.466,-242.611 414.745,-235.729"/>
</g>
<!-- Node11 -->
<g id="node12" class="node"><title>Node11</title>
<polygon fill="none" stroke="#bfbfbf" points="421.833,-220.5 421.833,-238.5 516.207,-238.5 516.207,-220.5 421.833,-220.5"/>
<text text-anchor="middle" x="469.02" y="-226.5" font-family="Helvetica,sans-Serif" font-size="10.00">QCoreApplication</text>
</g>
<!-- Node9&#45;&gt;Node11 -->
<g id="edge13" class="edge"><title>Node9&#45;&gt;Node11</title>
<path fill="none" stroke="midnightblue" d="M637.796,-275.45C603.361,-266.279 546.951,-251.256 508.926,-241.128"/>
<polygon fill="midnightblue" stroke="midnightblue" points="509.765,-237.73 499.201,-238.538 507.963,-244.494 509.765,-237.73"/>
</g>
<!-- Node12 -->
<g id="node13" class="node"><title>Node12</title>
<polygon fill="none" stroke="#bfbfbf" points="534.074,-220.5 534.074,-238.5 573.965,-238.5 573.965,-220.5 534.074,-220.5"/>
<text text-anchor="middle" x="554.02" y="-226.5" font-family="Helvetica,sans-Serif" font-size="10.00">QFile</text>
</g>
<!-- Node9&#45;&gt;Node12 -->
<g id="edge15" class="edge"><title>Node9&#45;&gt;Node12</title>
<path fill="none" stroke="midnightblue" d="M650.705,-275.45C632.124,-266.812 602.373,-252.98 580.776,-242.94"/>
<polygon fill="midnightblue" stroke="midnightblue" points="582.04,-239.667 571.497,-238.625 579.089,-246.015 582.04,-239.667"/>
</g>
<!-- Node13 -->
<g id="node14" class="node"><title>Node13</title>
<polygon fill="none" stroke="#bfbfbf" points="592.458,-220.5 592.458,-238.5 639.581,-238.5 639.581,-220.5 592.458,-220.5"/>
<text text-anchor="middle" x="616.02" y="-226.5" font-family="Helvetica,sans-Serif" font-size="10.00">QHash</text>
</g>
<!-- Node9&#45;&gt;Node13 -->
<g id="edge16" class="edge"><title>Node9&#45;&gt;Node13</title>
<path fill="none" stroke="midnightblue" d="M659.895,-275.219C652.218,-267.394 640.512,-255.463 631.121,-245.892"/>
<polygon fill="midnightblue" stroke="midnightblue" points="633.419,-243.236 623.917,-238.55 628.422,-248.139 633.419,-243.236"/>
</g>
<!-- Node14 -->
<g id="node15" class="node"><title>Node14</title>
<polygon fill="none" stroke="#bfbfbf" points="716.68,-0.5 716.68,-18.5 769.359,-18.5 769.359,-0.5 716.68,-0.5"/>
<text text-anchor="middle" x="743.02" y="-6.5" font-family="Helvetica,sans-Serif" font-size="10.00">QObject</text>
</g>
<!-- Node9&#45;&gt;Node14 -->
<g id="edge17" class="edge"><title>Node9&#45;&gt;Node14</title>
<path fill="none" stroke="midnightblue" d="M668.02,-275.371C668.02,-257.376 668.02,-212.812 668.02,-175.5 668.02,-175.5 668.02,-175.5 668.02,-118.5 668.02,-79.231 701.885,-43.9707 724.103,-25.0631"/>
<polygon fill="midnightblue" stroke="midnightblue" points="726.428,-27.6832 731.953,-18.6431 721.996,-22.2646 726.428,-27.6832"/>
</g>
<!-- Node15 -->
<g id="node16" class="node"><title>Node15</title>
<polygon fill="none" stroke="#bfbfbf" points="695.734,-220.5 695.734,-238.5 742.305,-238.5 742.305,-220.5 695.734,-220.5"/>
<text text-anchor="middle" x="719.02" y="-226.5" font-family="Helvetica,sans-Serif" font-size="10.00">QPoint</text>
</g>
<!-- Node9&#45;&gt;Node15 -->
<g id="edge18" class="edge"><title>Node9&#45;&gt;Node15</title>
<path fill="none" stroke="midnightblue" d="M675.988,-275.219C683.517,-267.394 694.998,-255.463 704.208,-245.892"/>
<polygon fill="midnightblue" stroke="midnightblue" points="706.862,-248.182 711.274,-238.55 701.818,-243.328 706.862,-248.182"/>
</g>
<!-- Node16 -->
<g id="node17" class="node"><title>Node16</title>
<polygon fill="none" stroke="#bfbfbf" points="760.064,-220.5 760.064,-238.5 819.975,-238.5 819.975,-220.5 760.064,-220.5"/>
<text text-anchor="middle" x="790.02" y="-226.5" font-family="Helvetica,sans-Serif" font-size="10.00">QSettings</text>
</g>
<!-- Node9&#45;&gt;Node16 -->
<g id="edge19" class="edge"><title>Node9&#45;&gt;Node16</title>
<path fill="none" stroke="midnightblue" d="M686.549,-275.45C706.613,-266.734 738.847,-252.731 762.008,-242.669"/>
<polygon fill="midnightblue" stroke="midnightblue" points="763.539,-245.82 771.316,-238.625 760.749,-239.4 763.539,-245.82"/>
</g>
<!-- Node17 -->
<g id="node18" class="node"><title>Node17</title>
<polygon fill="none" stroke="#bfbfbf" points="838.404,-220.5 838.404,-238.5 881.635,-238.5 881.635,-220.5 838.404,-220.5"/>
<text text-anchor="middle" x="860.02" y="-226.5" font-family="Helvetica,sans-Serif" font-size="10.00">QSize</text>
</g>
<!-- Node9&#45;&gt;Node17 -->
<g id="edge20" class="edge"><title>Node9&#45;&gt;Node17</title>
<path fill="none" stroke="midnightblue" d="M697.18,-275.45C732.508,-265.699 791.809,-249.329 828.265,-239.266"/>
<polygon fill="midnightblue" stroke="midnightblue" points="829.639,-242.517 838.348,-236.482 827.777,-235.77 829.639,-242.517"/>
</g>
<!-- Node18 -->
<g id="node19" class="node"><title>Node18</title>
<polygon fill="none" stroke="#bfbfbf" points="899.657,-220.5 899.657,-238.5 954.382,-238.5 954.382,-220.5 899.657,-220.5"/>
<text text-anchor="middle" x="927.02" y="-226.5" font-family="Helvetica,sans-Serif" font-size="10.00">QVariant</text>
</g>
<!-- Node9&#45;&gt;Node18 -->
<g id="edge21" class="edge"><title>Node9&#45;&gt;Node18</title>
<path fill="none" stroke="midnightblue" d="M710.447,-275.49C753.272,-267.304 821.558,-253.974 889.505,-239.274"/>
<polygon fill="midnightblue" stroke="midnightblue" points="890.496,-242.641 899.525,-237.096 889.009,-235.8 890.496,-242.641"/>
</g>
<!-- Node19 -->
<g id="node20" class="node"><title>Node19</title>
<g id="a_node20"><a xlink:href="enums_8h.html" target="_top" xlink:title="enums.h">
<polygon fill="none" stroke="black" points="786.842,-55.5 786.842,-73.5 841.197,-73.5 841.197,-55.5 786.842,-55.5"/>
<text text-anchor="middle" x="814.02" y="-61.5" font-family="Helvetica,sans-Serif" font-size="10.00">enums.h</text>
</a>
</g>
</g>
<!-- Node9&#45;&gt;Node19 -->
<g id="edge22" class="edge"><title>Node9&#45;&gt;Node19</title>
<path fill="none" stroke="midnightblue" d="M712.387,-283.564C786.67,-282.623 931.222,-275.954 963.02,-239 968.527,-232.599 966.18,-227.831 963.02,-220 955.985,-202.572 867.504,-116.663 830.314,-81.0301"/>
<polygon fill="midnightblue" stroke="midnightblue" points="832.46,-78.2399 822.813,-73.8594 827.623,-83.2997 832.46,-78.2399"/>
</g>
<!-- Node20 -->
<g id="node21" class="node"><title>Node20</title>
<g id="a_node21"><a xlink:href="mainwindow_8h.html" target="_top" xlink:title="mainwindow.h">
<polygon fill="none" stroke="black" points="1194.61,-220.5 1194.61,-238.5 1273.43,-238.5 1273.43,-220.5 1194.61,-220.5"/>
<text text-anchor="middle" x="1234.02" y="-226.5" font-family="Helvetica,sans-Serif" font-size="10.00">mainwindow.h</text>
</a>
</g>
</g>
<!-- Node9&#45;&gt;Node20 -->
<g id="edge23" class="edge"><title>Node9&#45;&gt;Node20</title>
<path fill="none" stroke="midnightblue" d="M712.433,-279.341C816.446,-269.601 1075.25,-245.367 1184.31,-235.155"/>
<polygon fill="midnightblue" stroke="midnightblue" points="1184.76,-238.628 1194.39,-234.211 1184.11,-231.659 1184.76,-238.628"/>
</g>
<!-- Node20&#45;&gt;Node19 -->
<g id="edge27" class="edge"><title>Node20&#45;&gt;Node19</title>
<path fill="none" stroke="midnightblue" d="M1194.46,-225.537C1128.98,-220.055 1001.49,-206.766 963.02,-184 927.058,-162.717 937.501,-136.289 905.02,-110 887.638,-95.9323 865.074,-84.8613 846.764,-77.2804"/>
<polygon fill="midnightblue" stroke="midnightblue" points="847.943,-73.9829 837.358,-73.5341 845.353,-80.4861 847.943,-73.9829"/>
</g>
<!-- Node21 -->
<g id="node22" class="node"><title>Node21</title>
<g id="a_node22"><a xlink:href="datahelpers_8h.html" target="_top" xlink:title="datahelpers.h">
<polygon fill="none" stroke="black" points="858.719,-55.5 858.719,-73.5 935.32,-73.5 935.32,-55.5 858.719,-55.5"/>
<text text-anchor="middle" x="897.02" y="-61.5" font-family="Helvetica,sans-Serif" font-size="10.00">datahelpers.h</text>
</a>
</g>
</g>
<!-- Node20&#45;&gt;Node21 -->
<g id="edge24" class="edge"><title>Node20&#45;&gt;Node21</title>
<path fill="none" stroke="midnightblue" d="M1194.52,-225.443C1133.3,-220.045 1019.07,-207.149 986.02,-184 954.863,-162.179 966.467,-139.952 943.02,-110 934.629,-99.282 923.736,-88.632 914.656,-80.439"/>
<polygon fill="midnightblue" stroke="midnightblue" points="916.775,-77.6419 906.951,-73.6742 912.156,-82.9021 916.775,-77.6419"/>
</g>
<!-- Node23 -->
<g id="node24" class="node"><title>Node23</title>
<g id="a_node24"><a xlink:href="imitatepass_8h.html" target="_top" xlink:title="imitatepass.h">
<polygon fill="none" stroke="black" points="994.562,-165.5 994.562,-183.5 1069.48,-183.5 1069.48,-165.5 994.562,-165.5"/>
<text text-anchor="middle" x="1032.02" y="-171.5" font-family="Helvetica,sans-Serif" font-size="10.00">imitatepass.h</text>
</a>
</g>
</g>
<!-- Node20&#45;&gt;Node23 -->
<g id="edge28" class="edge"><title>Node20&#45;&gt;Node23</title>
<path fill="none" stroke="midnightblue" d="M1203.34,-220.45C1168.39,-211.279 1111.13,-196.256 1072.53,-186.128"/>
<polygon fill="midnightblue" stroke="midnightblue" points="1073.22,-182.691 1062.66,-183.538 1071.44,-189.462 1073.22,-182.691"/>
</g>
<!-- Node24 -->
<g id="node25" class="node"><title>Node24</title>
<g id="a_node25"><a xlink:href="pass_8h.html" target="_top" xlink:title="pass.h">
<polygon fill="none" stroke="black" points="1033.29,-110.5 1033.29,-128.5 1078.75,-128.5 1078.75,-110.5 1033.29,-110.5"/>
<text text-anchor="middle" x="1056.02" y="-116.5" font-family="Helvetica,sans-Serif" font-size="10.00">pass.h</text>
</a>
</g>
</g>
<!-- Node20&#45;&gt;Node24 -->
<g id="edge40" class="edge"><title>Node20&#45;&gt;Node24</title>
<path fill="none" stroke="midnightblue" d="M1201.1,-220.43C1176.32,-213.364 1142.27,-201.467 1116.02,-184 1096.75,-171.179 1079.14,-151.084 1068.05,-136.94"/>
<polygon fill="midnightblue" stroke="midnightblue" points="1070.59,-134.493 1061.76,-128.641 1065.01,-138.724 1070.59,-134.493"/>
</g>
<!-- Node26 -->
<g id="node27" class="node"><title>Node26</title>
<polygon fill="none" stroke="#bfbfbf" points="1032.07,-0.5 1032.07,-18.5 1091.97,-18.5 1091.97,-0.5 1032.07,-0.5"/>
<text text-anchor="middle" x="1062.02" y="-6.5" font-family="Helvetica,sans-Serif" font-size="10.00">QProcess</text>
</g>
<!-- Node20&#45;&gt;Node26 -->
<g id="edge56" class="edge"><title>Node20&#45;&gt;Node26</title>
<path fill="none" stroke="midnightblue" d="M1234.82,-220.366C1237.03,-193.159 1240.37,-104.274 1196.02,-55 1189.44,-47.6933 1138.49,-32.0701 1101.36,-21.4223"/>
<polygon fill="midnightblue" stroke="midnightblue" points="1101.88,-17.9309 1091.3,-18.562 1099.96,-24.6639 1101.88,-17.9309"/>
</g>
<!-- Node27 -->
<g id="node28" class="node"><title>Node27</title>
<polygon fill="none" stroke="#bfbfbf" points="1110.12,-0.5 1110.12,-18.5 1163.92,-18.5 1163.92,-0.5 1110.12,-0.5"/>
<text text-anchor="middle" x="1137.02" y="-6.5" font-family="Helvetica,sans-Serif" font-size="10.00">QQueue</text>
</g>
<!-- Node20&#45;&gt;Node27 -->
<g id="edge57" class="edge"><title>Node20&#45;&gt;Node27</title>
<path fill="none" stroke="midnightblue" d="M1236.49,-220.394C1244.01,-194.003 1264.07,-109.133 1229.02,-55 1216.73,-36.0156 1193.87,-24.9041 1174.01,-18.5319"/>
<polygon fill="midnightblue" stroke="midnightblue" points="1174.85,-15.1307 1164.27,-15.693 1172.89,-21.8511 1174.85,-15.1307"/>
</g>
<!-- Node29 -->
<g id="node30" class="node"><title>Node29</title>
<g id="a_node30"><a xlink:href="realpass_8h.html" target="_top" xlink:title="realpass.h">
<polygon fill="none" stroke="black" points="1124.95,-165.5 1124.95,-183.5 1187.09,-183.5 1187.09,-165.5 1124.95,-165.5"/>
<text text-anchor="middle" x="1156.02" y="-171.5" font-family="Helvetica,sans-Serif" font-size="10.00">realpass.h</text>
</a>
</g>
</g>
<!-- Node20&#45;&gt;Node29 -->
<g id="edge41" class="edge"><title>Node20&#45;&gt;Node29</title>
<path fill="none" stroke="midnightblue" d="M1222.17,-220.45C1210.03,-212.201 1190.92,-199.216 1176.36,-189.319"/>
<polygon fill="midnightblue" stroke="midnightblue" points="1178.22,-186.351 1167.98,-183.625 1174.28,-192.14 1178.22,-186.351"/>
</g>
<!-- Node30 -->
<g id="node31" class="node"><title>Node30</title>
<g id="a_node31"><a xlink:href="storemodel_8h.html" target="_top" xlink:title="storemodel.h">
<polygon fill="none" stroke="black" points="1366.12,-165.5 1366.12,-183.5 1439.92,-183.5 1439.92,-165.5 1366.12,-165.5"/>
<text text-anchor="middle" x="1403.02" y="-171.5" font-family="Helvetica,sans-Serif" font-size="10.00">storemodel.h</text>
</a>
</g>
</g>
<!-- Node20&#45;&gt;Node30 -->
<g id="edge43" class="edge"><title>Node20&#45;&gt;Node30</title>
<path fill="none" stroke="midnightblue" d="M1259.69,-220.45C1288.43,-211.436 1335.21,-196.765 1367.47,-186.65"/>
<polygon fill="midnightblue" stroke="midnightblue" points="1368.89,-189.87 1377.39,-183.538 1366.8,-183.191 1368.89,-189.87"/>
</g>
<!-- Node31 -->
<g id="node32" class="node"><title>Node31</title>
<polygon fill="none" stroke="#bfbfbf" points="1280.79,-110.5 1280.79,-128.5 1381.25,-128.5 1381.25,-110.5 1280.79,-110.5"/>
<text text-anchor="middle" x="1331.02" y="-116.5" font-family="Helvetica,sans-Serif" font-size="10.00">QFileSystemModel</text>
</g>
<!-- Node20&#45;&gt;Node31 -->
<g id="edge54" class="edge"><title>Node20&#45;&gt;Node31</title>
<path fill="none" stroke="midnightblue" d="M1241.31,-220.382C1257.32,-202.557 1295.79,-159.723 1316.78,-136.357"/>
<polygon fill="midnightblue" stroke="midnightblue" points="1319.57,-138.49 1323.64,-128.712 1314.36,-133.813 1319.57,-138.49"/>
</g>
<!-- Node34 -->
<g id="node35" class="node"><title>Node34</title>
<g id="a_node35"><a xlink:href="trayicon_8h.html" target="_top" xlink:title="trayicon.h">
<polygon fill="none" stroke="black" points="1706.34,-165.5 1706.34,-183.5 1765.7,-183.5 1765.7,-165.5 1706.34,-165.5"/>
<text text-anchor="middle" x="1736.02" y="-171.5" font-family="Helvetica,sans-Serif" font-size="10.00">trayicon.h</text>
</a>
</g>
</g>
<!-- Node20&#45;&gt;Node34 -->
<g id="edge47" class="edge"><title>Node20&#45;&gt;Node34</title>
<path fill="none" stroke="midnightblue" d="M1273.83,-224.297C1367.71,-214.385 1602.08,-189.641 1696.08,-179.716"/>
<polygon fill="midnightblue" stroke="midnightblue" points="1696.47,-183.195 1706.05,-178.664 1695.74,-176.234 1696.47,-183.195"/>
</g>
<!-- Node37 -->
<g id="node38" class="node"><title>Node37</title>
<polygon fill="none" stroke="#bfbfbf" points="1611.51,-110.5 1611.51,-128.5 1692.53,-128.5 1692.53,-110.5 1611.51,-110.5"/>
<text text-anchor="middle" x="1652.02" y="-116.5" font-family="Helvetica,sans-Serif" font-size="10.00">QMainWindow</text>
</g>
<!-- Node20&#45;&gt;Node37 -->
<g id="edge55" class="edge"><title>Node20&#45;&gt;Node37</title>
<path fill="none" stroke="midnightblue" d="M1273.52,-221.539C1316.86,-213.621 1388.32,-199.733 1449.02,-184 1509.82,-168.24 1579.44,-145.392 1619.32,-131.83"/>
<polygon fill="midnightblue" stroke="midnightblue" points="1620.46,-135.138 1628.79,-128.593 1618.2,-128.514 1620.46,-135.138"/>
</g>
<!-- Node41 -->
<g id="node42" class="node"><title>Node41</title>
<polygon fill="none" stroke="#bfbfbf" points="1783.54,-165.5 1783.54,-183.5 1832.5,-183.5 1832.5,-165.5 1783.54,-165.5"/>
<text text-anchor="middle" x="1808.02" y="-171.5" font-family="Helvetica,sans-Serif" font-size="10.00">QTimer</text>
</g>
<!-- Node20&#45;&gt;Node41 -->
<g id="edge58" class="edge"><title>Node20&#45;&gt;Node41</title>
<path fill="none" stroke="midnightblue" d="M1273.68,-227.543C1361.97,-224.92 1581.49,-215.669 1773.27,-184.032"/>
<polygon fill="midnightblue" stroke="midnightblue" points="1773.97,-187.465 1783.25,-182.362 1772.81,-180.561 1773.97,-187.465"/>
</g>
<!-- Node42 -->
<g id="node43" class="node"><title>Node42</title>
<polygon fill="none" stroke="#bfbfbf" points="1850.28,-165.5 1850.28,-183.5 1915.76,-183.5 1915.76,-165.5 1850.28,-165.5"/>
<text text-anchor="middle" x="1883.02" y="-171.5" font-family="Helvetica,sans-Serif" font-size="10.00">QTreeView</text>
</g>
<!-- Node20&#45;&gt;Node42 -->
<g id="edge59" class="edge"><title>Node20&#45;&gt;Node42</title>
<path fill="none" stroke="midnightblue" d="M1273.61,-227.331C1369.24,-224.137 1620.49,-213.537 1839.97,-183.955"/>
<polygon fill="midnightblue" stroke="midnightblue" points="1840.64,-187.398 1850.07,-182.578 1839.69,-180.462 1840.64,-187.398"/>
</g>
<!-- Node21&#45;&gt;Node3 -->
<g id="edge26" class="edge"><title>Node21&#45;&gt;Node3</title>
<path fill="none" stroke="midnightblue" d="M858.583,-56.3101C855.689,-55.8419 852.81,-55.399 850.02,-55 707.176,-34.5803 535.88,-19.3573 463.289,-13.3324"/>
<polygon fill="midnightblue" stroke="midnightblue" points="463.563,-9.84329 453.31,-12.5107 462.989,-16.8197 463.563,-9.84329"/>
</g>
<!-- Node22 -->
<g id="node23" class="node"><title>Node22</title>
<polygon fill="none" stroke="#bfbfbf" points="863.641,-0.5 863.641,-18.5 930.398,-18.5 930.398,-0.5 863.641,-0.5"/>
<text text-anchor="middle" x="897.02" y="-6.5" font-family="Helvetica,sans-Serif" font-size="10.00">QDateTime</text>
</g>
<!-- Node21&#45;&gt;Node22 -->
<g id="edge25" class="edge"><title>Node21&#45;&gt;Node22</title>
<path fill="none" stroke="midnightblue" d="M897.02,-55.2188C897.02,-48.1769 897.02,-37.8083 897.02,-28.8277"/>
<polygon fill="midnightblue" stroke="midnightblue" points="900.52,-28.5495 897.02,-18.5496 893.52,-28.5496 900.52,-28.5495"/>
</g>
<!-- Node23&#45;&gt;Node24 -->
<g id="edge29" class="edge"><title>Node23&#45;&gt;Node24</title>
<path fill="none" stroke="midnightblue" d="M1035.77,-165.219C1039.06,-157.942 1043.97,-147.113 1048.12,-137.934"/>
<polygon fill="midnightblue" stroke="midnightblue" points="1051.44,-139.103 1052.37,-128.55 1045.06,-136.215 1051.44,-139.103"/>
</g>
<!-- Node24&#45;&gt;Node3 -->
<g id="edge39" class="edge"><title>Node24&#45;&gt;Node3</title>
<path fill="none" stroke="midnightblue" d="M1042.59,-110.456C1015.19,-94.1072 954.533,-58.2627 944.02,-55 853.822,-27.0094 564.21,-14.9919 463.184,-11.5804"/>
<polygon fill="midnightblue" stroke="midnightblue" points="463.294,-8.08226 453.184,-11.2503 463.063,-15.0784 463.294,-8.08226"/>
</g>
<!-- Node24&#45;&gt;Node19 -->
<g id="edge31" class="edge"><title>Node24&#45;&gt;Node19</title>
<path fill="none" stroke="midnightblue" d="M1033.13,-113.704C996.777,-106.057 923.386,-90.487 851.634,-74.3337"/>
<polygon fill="midnightblue" stroke="midnightblue" points="852.05,-70.8395 841.524,-72.0513 850.508,-77.6677 852.05,-70.8395"/>
</g>
<!-- Node24&#45;&gt;Node21 -->
<g id="edge30" class="edge"><title>Node24&#45;&gt;Node21</title>
<path fill="none" stroke="midnightblue" d="M1033.24,-110.906C1006.47,-101.983 961.794,-87.0916 930.945,-76.8085"/>
<polygon fill="midnightblue" stroke="midnightblue" points="931.653,-73.3551 921.059,-73.5131 929.439,-79.9959 931.653,-73.3551"/>
</g>
<!-- Node25 -->
<g id="node26" class="node"><title>Node25</title>
<g id="a_node26"><a xlink:href="executor_8h.html" target="_top" xlink:title="executor.h">
<polygon fill="none" stroke="black" points="990.946,-55.5 990.946,-73.5 1053.09,-73.5 1053.09,-55.5 990.946,-55.5"/>
<text text-anchor="middle" x="1022.02" y="-61.5" font-family="Helvetica,sans-Serif" font-size="10.00">executor.h</text>
</a>
</g>
</g>
<!-- Node24&#45;&gt;Node25 -->
<g id="edge32" class="edge"><title>Node24&#45;&gt;Node25</title>
<path fill="none" stroke="midnightblue" d="M1050.71,-110.219C1045.89,-102.707 1038.64,-91.411 1032.64,-82.0515"/>
<polygon fill="midnightblue" stroke="midnightblue" points="1035.53,-80.0767 1027.18,-73.5496 1029.64,-83.8564 1035.53,-80.0767"/>
</g>
<!-- Node24&#45;&gt;Node26 -->
<g id="edge37" class="edge"><title>Node24&#45;&gt;Node26</title>
<path fill="none" stroke="midnightblue" d="M1057.46,-110.332C1058.94,-101.431 1061.16,-86.7561 1062.02,-74 1063.04,-58.8412 1062.96,-41.601 1062.67,-28.9134"/>
<polygon fill="midnightblue" stroke="midnightblue" points="1066.16,-28.6246 1062.37,-18.7317 1059.17,-28.8302 1066.16,-28.6246"/>
</g>
<!-- Node24&#45;&gt;Node27 -->
<g id="edge38" class="edge"><title>Node24&#45;&gt;Node27</title>
<path fill="none" stroke="midnightblue" d="M1062.11,-110.382C1075.36,-92.7131 1107.04,-50.4724 1124.66,-26.9764"/>
<polygon fill="midnightblue" stroke="midnightblue" points="1127.66,-28.8118 1130.86,-18.7118 1122.06,-24.6118 1127.66,-28.8118"/>
</g>
<!-- Node28 -->
<g id="node29" class="node"><title>Node28</title>
<polygon fill="none" stroke="#bfbfbf" points="1147.35,-55.5 1147.35,-73.5 1186.69,-73.5 1186.69,-55.5 1147.35,-55.5"/>
<text text-anchor="middle" x="1167.02" y="-61.5" font-family="Helvetica,sans-Serif" font-size="10.00">QList</text>
</g>
<!-- Node24&#45;&gt;Node28 -->
<g id="edge36" class="edge"><title>Node24&#45;&gt;Node28</title>
<path fill="none" stroke="midnightblue" d="M1072.88,-110.45C1090.97,-101.812 1119.94,-87.9803 1140.97,-77.9396"/>
<polygon fill="midnightblue" stroke="midnightblue" points="1142.49,-81.0926 1150,-73.6253 1139.47,-74.7757 1142.49,-81.0926"/>
</g>
<!-- Node25&#45;&gt;Node14 -->
<g id="edge33" class="edge"><title>Node25&#45;&gt;Node14</title>
<path fill="none" stroke="midnightblue" d="M990.827,-57.5745C938.862,-47.703 834.831,-27.9408 779.533,-17.4363"/>
<polygon fill="midnightblue" stroke="midnightblue" points="779.953,-13.9536 769.476,-15.5258 778.647,-20.8306 779.953,-13.9536"/>
</g>
<!-- Node25&#45;&gt;Node26 -->
<g id="edge34" class="edge"><title>Node25&#45;&gt;Node26</title>
<path fill="none" stroke="midnightblue" d="M1028.27,-55.2188C1034,-47.6292 1042.64,-36.1753 1049.75,-26.7597"/>
<polygon fill="midnightblue" stroke="midnightblue" points="1052.71,-28.6399 1055.94,-18.5496 1047.13,-24.423 1052.71,-28.6399"/>
</g>
<!-- Node25&#45;&gt;Node27 -->
<g id="edge35" class="edge"><title>Node25&#45;&gt;Node27</title>
<path fill="none" stroke="midnightblue" d="M1039.49,-55.4504C1058.23,-46.8119 1088.24,-32.9803 1110.03,-22.9396"/>
<polygon fill="midnightblue" stroke="midnightblue" points="1111.77,-25.9896 1119.39,-18.6253 1108.84,-19.6323 1111.77,-25.9896"/>
</g>
<!-- Node29&#45;&gt;Node24 -->
<g id="edge42" class="edge"><title>Node29&#45;&gt;Node24</title>
<path fill="none" stroke="midnightblue" d="M1140.83,-165.45C1124.75,-156.929 1099.14,-143.353 1080.26,-133.349"/>
<polygon fill="midnightblue" stroke="midnightblue" points="1081.83,-130.216 1071.35,-128.625 1078.55,-136.401 1081.83,-130.216"/>
</g>
<!-- Node30&#45;&gt;Node31 -->
<g id="edge44" class="edge"><title>Node30&#45;&gt;Node31</title>
<path fill="none" stroke="midnightblue" d="M1392.08,-165.45C1380.98,-157.279 1363.57,-144.46 1350.17,-134.6"/>
<polygon fill="midnightblue" stroke="midnightblue" points="1352.19,-131.735 1342.06,-128.625 1348.04,-137.372 1352.19,-131.735"/>
</g>
<!-- Node32 -->
<g id="node33" class="node"><title>Node32</title>
<polygon fill="none" stroke="#bfbfbf" points="1399.34,-110.5 1399.34,-128.5 1458.7,-128.5 1458.7,-110.5 1399.34,-110.5"/>
<text text-anchor="middle" x="1429.02" y="-116.5" font-family="Helvetica,sans-Serif" font-size="10.00">QRegExp</text>
</g>
<!-- Node30&#45;&gt;Node32 -->
<g id="edge45" class="edge"><title>Node30&#45;&gt;Node32</title>
<path fill="none" stroke="midnightblue" d="M1407.08,-165.219C1410.69,-157.864 1416.08,-146.88 1420.61,-137.639"/>
<polygon fill="midnightblue" stroke="midnightblue" points="1423.81,-139.069 1425.07,-128.55 1417.52,-135.986 1423.81,-139.069"/>
</g>
<!-- Node33 -->
<g id="node34" class="node"><title>Node33</title>
<polygon fill="none" stroke="#bfbfbf" points="1476.45,-110.5 1476.45,-128.5 1593.59,-128.5 1593.59,-110.5 1476.45,-110.5"/>
<text text-anchor="middle" x="1535.02" y="-116.5" font-family="Helvetica,sans-Serif" font-size="10.00">QSortFilterProxyModel</text>
</g>
<!-- Node30&#45;&gt;Node33 -->
<g id="edge46" class="edge"><title>Node30&#45;&gt;Node33</title>
<path fill="none" stroke="midnightblue" d="M1423.07,-165.45C1444.97,-156.656 1480.28,-142.48 1505.38,-132.401"/>
<polygon fill="midnightblue" stroke="midnightblue" points="1506.81,-135.599 1514.78,-128.625 1504.2,-129.103 1506.81,-135.599"/>
</g>
<!-- Node35 -->
<g id="node36" class="node"><title>Node35</title>
<polygon fill="none" stroke="#bfbfbf" points="1710.23,-110.5 1710.23,-128.5 1761.81,-128.5 1761.81,-110.5 1710.23,-110.5"/>
<text text-anchor="middle" x="1736.02" y="-116.5" font-family="Helvetica,sans-Serif" font-size="10.00">QAction</text>
</g>
<!-- Node34&#45;&gt;Node35 -->
<g id="edge48" class="edge"><title>Node34&#45;&gt;Node35</title>
<path fill="none" stroke="midnightblue" d="M1736.02,-165.219C1736.02,-158.177 1736.02,-147.808 1736.02,-138.828"/>
<polygon fill="midnightblue" stroke="midnightblue" points="1739.52,-138.55 1736.02,-128.55 1732.52,-138.55 1739.52,-138.55"/>
</g>
<!-- Node36 -->
<g id="node37" class="node"><title>Node36</title>
<polygon fill="none" stroke="#bfbfbf" points="1779.67,-110.5 1779.67,-128.5 1852.37,-128.5 1852.37,-110.5 1779.67,-110.5"/>
<text text-anchor="middle" x="1816.02" y="-116.5" font-family="Helvetica,sans-Serif" font-size="10.00">QApplication</text>
</g>
<!-- Node34&#45;&gt;Node36 -->
<g id="edge49" class="edge"><title>Node34&#45;&gt;Node36</title>
<path fill="none" stroke="midnightblue" d="M1748.17,-165.45C1760.62,-157.201 1780.22,-144.216 1795.16,-134.319"/>
<polygon fill="midnightblue" stroke="midnightblue" points="1797.35,-137.066 1803.75,-128.625 1793.49,-131.231 1797.35,-137.066"/>
</g>
<!-- Node34&#45;&gt;Node37 -->
<g id="edge50" class="edge"><title>Node34&#45;&gt;Node37</title>
<path fill="none" stroke="midnightblue" d="M1723.26,-165.45C1710.06,-157.123 1689.22,-143.97 1673.48,-134.039"/>
<polygon fill="midnightblue" stroke="midnightblue" points="1675.22,-131.001 1664.9,-128.625 1671.49,-136.922 1675.22,-131.001"/>
</g>
<!-- Node38 -->
<g id="node39" class="node"><title>Node38</title>
<polygon fill="none" stroke="#bfbfbf" points="1870.62,-110.5 1870.62,-128.5 1919.42,-128.5 1919.42,-110.5 1870.62,-110.5"/>
<text text-anchor="middle" x="1895.02" y="-116.5" font-family="Helvetica,sans-Serif" font-size="10.00">QMenu</text>
</g>
<!-- Node34&#45;&gt;Node38 -->
<g id="edge51" class="edge"><title>Node34&#45;&gt;Node38</title>
<path fill="none" stroke="midnightblue" d="M1760.17,-165.45C1787.1,-156.475 1830.84,-141.892 1861.18,-131.781"/>
<polygon fill="midnightblue" stroke="midnightblue" points="1862.52,-135.021 1870.9,-128.538 1860.31,-128.38 1862.52,-135.021"/>
</g>
<!-- Node39 -->
<g id="node40" class="node"><title>Node39</title>
<polygon fill="none" stroke="#bfbfbf" points="1937.19,-110.5 1937.19,-128.5 2032.85,-128.5 2032.85,-110.5 1937.19,-110.5"/>
<text text-anchor="middle" x="1985.02" y="-116.5" font-family="Helvetica,sans-Serif" font-size="10.00">QSystemTrayIcon</text>
</g>
<!-- Node34&#45;&gt;Node39 -->
<g id="edge52" class="edge"><title>Node34&#45;&gt;Node39</title>
<path fill="none" stroke="midnightblue" d="M1765.83,-166.985C1768.93,-166.312 1772.04,-165.641 1775.02,-165 1830.51,-153.074 1894.29,-139.589 1936.87,-130.621"/>
<polygon fill="midnightblue" stroke="midnightblue" points="1937.62,-134.039 1946.69,-128.554 1936.18,-127.19 1937.62,-134.039"/>
</g>
<!-- Node40 -->
<g id="node41" class="node"><title>Node40</title>
<polygon fill="none" stroke="#bfbfbf" points="2050.57,-110.5 2050.57,-128.5 2105.47,-128.5 2105.47,-110.5 2050.57,-110.5"/>
<text text-anchor="middle" x="2078.02" y="-116.5" font-family="Helvetica,sans-Serif" font-size="10.00">QWidget</text>
</g>
<!-- Node34&#45;&gt;Node40 -->
<g id="edge53" class="edge"><title>Node34&#45;&gt;Node40</title>
<path fill="none" stroke="midnightblue" d="M1765.78,-166.755C1768.89,-166.127 1772.02,-165.529 1775.02,-165 1889.72,-144.802 1922.5,-150.446 2040.41,-129.138"/>
<polygon fill="midnightblue" stroke="midnightblue" points="2041.36,-132.523 2050.56,-127.275 2040.09,-125.638 2041.36,-132.523"/>
</g>
</g>
</svg>
