<?xml version="1.0" encoding="UTF-8" standalone="no"?>
<!DOCTYPE svg PUBLIC "-//W3C//DTD SVG 1.1//EN"
 "http://www.w3.org/Graphics/SVG/1.1/DTD/svg11.dtd">
<!-- Generated by graphviz version 2.42.3 (20191010.1750)
 -->
<!-- Title: src/util.h Pages: 1 -->
<svg width="424pt" height="137pt"
 viewBox="0.00 0.00 423.52 137.00" xmlns="http://www.w3.org/2000/svg" xmlns:xlink="http://www.w3.org/1999/xlink">
<g id="graph0" class="graph" transform="scale(1 1) rotate(0) translate(4 133)">
<title>src/util.h</title>
<!-- Node1 -->
<g id="node1" class="node">
<title>Node1</title>
<g id="a_node1"><a xlink:title=" ">
<polygon fill="#bfbfbf" stroke="black" points="136.95,-110.5 136.95,-128.5 190.18,-128.5 190.18,-110.5 136.95,-110.5"/>
<text text-anchor="middle" x="163.57" y="-116.5" font-family="Helvetica,sans-Serif" font-size="10.00">src/util.h</text>
</a>
</g>
</g>
<!-- Node2 -->
<g id="node2" class="node">
<title>Node2</title>
<g id="a_node2"><a xlink:href="storemodel_8h.html" target="_top" xlink:title=" ">
<polygon fill="none" stroke="black" points="21.67,-55.5 21.67,-73.5 95.47,-73.5 95.47,-55.5 21.67,-55.5"/>
<text text-anchor="middle" x="58.57" y="-61.5" font-family="Helvetica,sans-Serif" font-size="10.00">storemodel.h</text>
</a>
</g>
</g>
<!-- Node1&#45;&gt;Node2 -->
<g id="edge1" class="edge">
<title>Node1&#45;&gt;Node2</title>
<path fill="none" stroke="midnightblue" d="M142.61,-110.45C123.84,-101.97 96.81,-88.48 78.4,-78.49"/>
<polygon fill="midnightblue" stroke="midnightblue" points="80.08,-75.42 69.64,-73.63 76.68,-81.54 80.08,-75.42"/>
</g>
<!-- Node4 -->
<g id="node4" class="node">
<title>Node4</title>
<g id="a_node4"><a xlink:title=" ">
<polygon fill="none" stroke="#bfbfbf" points="113.33,-55.5 113.33,-73.5 213.8,-73.5 213.8,-55.5 113.33,-55.5"/>
<text text-anchor="middle" x="163.57" y="-61.5" font-family="Helvetica,sans-Serif" font-size="10.00">QFileSystemModel</text>
</a>
</g>
</g>
<!-- Node1&#45;&gt;Node4 -->
<g id="edge4" class="edge">
<title>Node1&#45;&gt;Node4</title>
<path fill="none" stroke="midnightblue" d="M163.57,-110.22C163.57,-103.18 163.57,-92.81 163.57,-83.83"/>
<polygon fill="midnightblue" stroke="midnightblue" points="167.07,-83.55 163.57,-73.55 160.07,-83.55 167.07,-83.55"/>
</g>
<!-- Node5 -->
<g id="node5" class="node">
<title>Node5</title>
<g id="a_node5"><a xlink:title=" ">
<polygon fill="none" stroke="#bfbfbf" points="231.55,-55.5 231.55,-73.5 347.59,-73.5 347.59,-55.5 231.55,-55.5"/>
<text text-anchor="middle" x="289.57" y="-61.5" font-family="Helvetica,sans-Serif" font-size="10.00">QProcessEnvironment</text>
</a>
</g>
</g>
<!-- Node1&#45;&gt;Node5 -->
<g id="edge5" class="edge">
<title>Node1&#45;&gt;Node5</title>
<path fill="none" stroke="midnightblue" d="M182.71,-110.45C203.52,-101.7 237.02,-87.61 260.96,-77.53"/>
<polygon fill="midnightblue" stroke="midnightblue" points="262.39,-80.73 270.25,-73.63 259.68,-74.28 262.39,-80.73"/>
</g>
<!-- Node6 -->
<g id="node6" class="node">
<title>Node6</title>
<g id="a_node6"><a xlink:title=" ">
<polygon fill="none" stroke="#bfbfbf" points="365.62,-55.5 365.62,-73.5 415.52,-73.5 415.52,-55.5 365.62,-55.5"/>
<text text-anchor="middle" x="390.57" y="-61.5" font-family="Helvetica,sans-Serif" font-size="10.00">QString</text>
</a>
</g>
</g>
<!-- Node1&#45;&gt;Node6 -->
<g id="edge6" class="edge">
<title>Node1&#45;&gt;Node6</title>
<path fill="none" stroke="midnightblue" d="M190.46,-112.46C225.96,-104.46 290.67,-89.75 355.37,-74.26"/>
<polygon fill="midnightblue" stroke="midnightblue" points="356.42,-77.6 365.33,-71.86 354.79,-70.8 356.42,-77.6"/>
</g>
<!-- Node2&#45;&gt;Node1 -->
<g id="edge2" class="edge">
<title>Node2&#45;&gt;Node1</title>
<path fill="none" stroke="midnightblue" d="M79.69,-73.63C98.43,-82.1 125.29,-95.51 143.65,-105.47"/>
<polygon fill="midnightblue" stroke="midnightblue" points="142.19,-108.66 152.63,-110.45 145.59,-102.54 142.19,-108.66"/>
</g>
<!-- Node3 -->
<g id="node3" class="node">
<title>Node3</title>
<g id="a_node3"><a xlink:title=" ">
<polygon fill="none" stroke="#bfbfbf" points="0,-0.5 0,-18.5 117.14,-18.5 117.14,-0.5 0,-0.5"/>
<text text-anchor="middle" x="58.57" y="-6.5" font-family="Helvetica,sans-Serif" font-size="10.00">QSortFilterProxyModel</text>
</a>
</g>
</g>
<!-- Node2&#45;&gt;Node3 -->
<g id="edge3" class="edge">
<title>Node2&#45;&gt;Node3</title>
<path fill="none" stroke="midnightblue" d="M58.57,-55.22C58.57,-48.18 58.57,-37.81 58.57,-28.83"/>
<polygon fill="midnightblue" stroke="midnightblue" points="62.07,-28.55 58.57,-18.55 55.07,-28.55 62.07,-28.55"/>
</g>
</g>
</svg>
