<?xml version="1.0" encoding="UTF-8" standalone="no"?>
<!DOCTYPE svg PUBLIC "-//W3C//DTD SVG 1.1//EN"
 "http://www.w3.org/Graphics/SVG/1.1/DTD/svg11.dtd">
<!-- Generated by graphviz version 2.40.1 (20161225.0304)
 -->
<!-- Title: src/util.cpp Pages: 1 -->
<svg width="1179pt" height="412pt"
 viewBox="0.00 0.00 1178.50 412.00" xmlns="http://www.w3.org/2000/svg" xmlns:xlink="http://www.w3.org/1999/xlink">
<g id="graph0" class="graph" transform="scale(1 1) rotate(0) translate(4 408)">
<title>src/util.cpp</title>
<!-- Node0 -->
<g id="node1" class="node">
<title>Node0</title>
<polygon fill="#bfbfbf" stroke="#000000" points="778.1035,-385.5 778.1035,-403.5 841.8965,-403.5 841.8965,-385.5 778.1035,-385.5"/>
<text text-anchor="middle" x="810" y="-391.5" font-family="Helvetica,sans-Serif" font-size="10.00" fill="#000000">src/util.cpp</text>
</g>
<!-- Node1 -->
<g id="node2" class="node">
<title>Node1</title>
<g id="a_node2"><a xlink:href="util_8h.html" target="_top" xlink:title="util.h">
<polygon fill="none" stroke="#000000" points="346.4385,-330.5 346.4385,-348.5 383.5615,-348.5 383.5615,-330.5 346.4385,-330.5"/>
<text text-anchor="middle" x="365" y="-336.5" font-family="Helvetica,sans-Serif" font-size="10.00" fill="#000000">util.h</text>
</a>
</g>
</g>
<!-- Node0&#45;&gt;Node1 -->
<g id="edge1" class="edge">
<title>Node0&#45;&gt;Node1</title>
<path fill="none" stroke="#191970" d="M777.9967,-390.5445C695.0112,-380.2879 473.826,-352.9504 394.1316,-343.1005"/>
<polygon fill="#191970" stroke="#191970" points="394.2084,-339.5835 383.8546,-341.8303 393.3497,-346.5306 394.2084,-339.5835"/>
</g>
<!-- Node8 -->
<g id="node9" class="node">
<title>Node8</title>
<g id="a_node9"><a xlink:href="qtpasssettings_8h.html" target="_top" xlink:title="qtpasssettings.h">
<polygon fill="none" stroke="#000000" points="604.8672,-220.5 604.8672,-238.5 693.1328,-238.5 693.1328,-220.5 604.8672,-220.5"/>
<text text-anchor="middle" x="649" y="-226.5" font-family="Helvetica,sans-Serif" font-size="10.00" fill="#000000">qtpasssettings.h</text>
</a>
</g>
</g>
<!-- Node0&#45;&gt;Node8 -->
<g id="edge53" class="edge">
<title>Node0&#45;&gt;Node8</title>
<path fill="none" stroke="#191970" d="M800.8826,-385.1561C774.6481,-358.2698 698.7129,-280.448 665.2095,-246.1123"/>
<polygon fill="#191970" stroke="#191970" points="667.5062,-243.4544 658.0174,-238.7414 662.4961,-248.343 667.5062,-243.4544"/>
</g>
<!-- Node14 -->
<g id="node15" class="node">
<title>Node14</title>
<polygon fill="none" stroke="#bfbfbf" points="156.0493,-.5 156.0493,-18.5 205.9507,-18.5 205.9507,-.5 156.0493,-.5"/>
<text text-anchor="middle" x="181" y="-6.5" font-family="Helvetica,sans-Serif" font-size="10.00" fill="#000000">QString</text>
</g>
<!-- Node0&#45;&gt;Node14 -->
<g id="edge51" class="edge">
<title>Node0&#45;&gt;Node14</title>
<path fill="none" stroke="#191970" d="M777.7472,-393.5791C627.0969,-388.86 0,-364.4163 0,-284.5 0,-284.5 0,-284.5 0,-119.5 0,-51.9323 93.251,-24.6893 145.8868,-14.6939"/>
<polygon fill="#191970" stroke="#191970" points="146.6037,-18.1213 155.8327,-12.9179 145.3732,-11.2303 146.6037,-18.1213"/>
</g>
<!-- Node20 -->
<g id="node21" class="node">
<title>Node20</title>
<polygon fill="none" stroke="#bfbfbf" points="942.7241,-55.5 942.7241,-73.5 979.2759,-73.5 979.2759,-55.5 942.7241,-55.5"/>
<text text-anchor="middle" x="961" y="-61.5" font-family="Helvetica,sans-Serif" font-size="10.00" fill="#000000">QDir</text>
</g>
<!-- Node0&#45;&gt;Node20 -->
<g id="edge48" class="edge">
<title>Node0&#45;&gt;Node20</title>
<path fill="none" stroke="#191970" d="M818.5042,-385.1639C843.8187,-356.9239 919.5548,-269.1159 962,-184 977.0595,-153.801 985.3187,-143.1488 979,-110 977.2329,-100.7295 973.6097,-90.9365 970.0742,-82.8202"/>
<polygon fill="#191970" stroke="#191970" points="973.1783,-81.1946 965.789,-73.6019 966.8306,-84.1455 973.1783,-81.1946"/>
</g>
<!-- Node33 -->
<g id="node34" class="node">
<title>Node33</title>
<polygon fill="none" stroke="#bfbfbf" points="560.9805,-275.5 560.9805,-293.5 677.0195,-293.5 677.0195,-275.5 560.9805,-275.5"/>
<text text-anchor="middle" x="619" y="-281.5" font-family="Helvetica,sans-Serif" font-size="10.00" fill="#000000">QProcessEnvironment</text>
</g>
<!-- Node0&#45;&gt;Node33 -->
<g id="edge50" class="edge">
<title>Node0&#45;&gt;Node33</title>
<path fill="none" stroke="#191970" d="M794.3697,-385.4982C761.2119,-366.4021 683.5997,-321.704 643.6785,-298.7128"/>
<polygon fill="#191970" stroke="#191970" points="645.2587,-295.5839 634.8463,-293.6261 641.7652,-301.6498 645.2587,-295.5839"/>
</g>
<!-- Node34 -->
<g id="node35" class="node">
<title>Node34</title>
<g id="a_node35"><a xlink:href="debughelper_8h.html" target="_top" xlink:title="debughelper.h">
<polygon fill="none" stroke="#000000" points="997.3008,-275.5 997.3008,-293.5 1076.6992,-293.5 1076.6992,-275.5 997.3008,-275.5"/>
<text text-anchor="middle" x="1037" y="-281.5" font-family="Helvetica,sans-Serif" font-size="10.00" fill="#000000">debughelper.h</text>
</a>
</g>
</g>
<!-- Node0&#45;&gt;Node34 -->
<g id="edge46" class="edge">
<title>Node0&#45;&gt;Node34</title>
<path fill="none" stroke="#191970" d="M841.9838,-391.9398C878.5704,-387.7502 939.0786,-376.8728 983,-349 1001.6119,-337.1888 1017.0485,-316.8834 1026.5842,-302.206"/>
<polygon fill="#191970" stroke="#191970" points="1029.6754,-303.8623 1031.9724,-293.5194 1023.7269,-300.1724 1029.6754,-303.8623"/>
</g>
<!-- Node35 -->
<g id="node36" class="node">
<title>Node35</title>
<polygon fill="none" stroke="#bfbfbf" points="1034.7144,-330.5 1034.7144,-348.5 1091.2856,-348.5 1091.2856,-330.5 1034.7144,-330.5"/>
<text text-anchor="middle" x="1063" y="-336.5" font-family="Helvetica,sans-Serif" font-size="10.00" fill="#000000">QFileInfo</text>
</g>
<!-- Node0&#45;&gt;Node35 -->
<g id="edge49" class="edge">
<title>Node0&#45;&gt;Node35</title>
<path fill="none" stroke="#191970" d="M842.1943,-387.6628C883.5919,-378.847 957.6963,-362.9844 1021,-349 1022.2319,-348.7279 1023.4838,-348.4503 1024.7478,-348.1693"/>
<polygon fill="#191970" stroke="#191970" points="1025.5479,-351.5769 1034.5422,-345.9776 1024.0192,-344.7459 1025.5479,-351.5769"/>
</g>
<!-- Node36 -->
<g id="node37" class="node">
<title>Node36</title>
<polygon fill="none" stroke="#bfbfbf" points="1109.4951,-330.5 1109.4951,-348.5 1170.5049,-348.5 1170.5049,-330.5 1109.4951,-330.5"/>
<text text-anchor="middle" x="1140" y="-336.5" font-family="Helvetica,sans-Serif" font-size="10.00" fill="#000000">sys/time.h</text>
</g>
<!-- Node0&#45;&gt;Node36 -->
<g id="edge52" class="edge">
<title>Node0&#45;&gt;Node36</title>
<path fill="none" stroke="#191970" d="M841.8969,-390.3202C893.7259,-383.3501 999.631,-368.3679 1099.5216,-348.9598"/>
<polygon fill="#191970" stroke="#191970" points="1100.3392,-352.3662 1109.4783,-347.0064 1098.9915,-345.4971 1100.3392,-352.3662"/>
</g>
<!-- Node2 -->
<g id="node3" class="node">
<title>Node2</title>
<g id="a_node3"><a xlink:href="storemodel_8h.html" target="_top" xlink:title="storemodel.h">
<polygon fill="none" stroke="#000000" points="328.0962,-275.5 328.0962,-293.5 401.9038,-293.5 401.9038,-275.5 328.0962,-275.5"/>
<text text-anchor="middle" x="365" y="-281.5" font-family="Helvetica,sans-Serif" font-size="10.00" fill="#000000">storemodel.h</text>
</a>
</g>
</g>
<!-- Node1&#45;&gt;Node2 -->
<g id="edge2" class="edge">
<title>Node1&#45;&gt;Node2</title>
<path fill="none" stroke="#191970" d="M359.8337,-330.4179C358.3421,-323.2164 357.9042,-312.8962 358.5198,-303.8632"/>
<polygon fill="#191970" stroke="#191970" points="362.0126,-304.1392 359.7932,-293.7795 355.0678,-303.2621 362.0126,-304.1392"/>
</g>
<!-- Node4 -->
<g id="node5" class="node">
<title>Node4</title>
<polygon fill="none" stroke="#bfbfbf" points="68.7661,-220.5 68.7661,-238.5 169.2339,-238.5 169.2339,-220.5 68.7661,-220.5"/>
<text text-anchor="middle" x="119" y="-226.5" font-family="Helvetica,sans-Serif" font-size="10.00" fill="#000000">QFileSystemModel</text>
</g>
<!-- Node1&#45;&gt;Node4 -->
<g id="edge43" class="edge">
<title>Node1&#45;&gt;Node4</title>
<path fill="none" stroke="#191970" d="M346.1053,-331.0511C303.5099,-312.0044 199.7302,-265.5989 148.5426,-242.7101"/>
<polygon fill="#191970" stroke="#191970" points="149.8891,-239.4783 139.3315,-238.5913 147.0317,-245.8685 149.8891,-239.4783"/>
</g>
<!-- Node1&#45;&gt;Node14 -->
<g id="edge45" class="edge">
<title>Node1&#45;&gt;Node14</title>
<path fill="none" stroke="#191970" d="M346.0057,-337.3229C276.2159,-328.8049 38,-294.9373 38,-229.5 38,-229.5 38,-229.5 38,-119.5 38,-65.1304 103.7469,-33.9182 146.0797,-19.4565"/>
<polygon fill="#191970" stroke="#191970" points="147.3418,-22.7264 155.7636,-16.2981 145.1712,-16.0715 147.3418,-22.7264"/>
</g>
<!-- Node1&#45;&gt;Node33 -->
<g id="edge44" class="edge">
<title>Node1&#45;&gt;Node33</title>
<path fill="none" stroke="#191970" d="M383.6772,-335.4557C421.9367,-327.1712 510.3988,-308.016 567.2983,-295.6952"/>
<polygon fill="#191970" stroke="#191970" points="568.1555,-299.0908 577.1883,-293.5537 566.674,-292.2494 568.1555,-299.0908"/>
</g>
<!-- Node2&#45;&gt;Node1 -->
<g id="edge3" class="edge">
<title>Node2&#45;&gt;Node1</title>
<path fill="none" stroke="#191970" d="M370.2068,-293.7795C371.6791,-301.0373 372.0979,-311.3738 371.4632,-320.383"/>
<polygon fill="#191970" stroke="#191970" points="367.9769,-320.0517 370.1663,-330.4179 374.9192,-320.949 367.9769,-320.0517"/>
</g>
<!-- Node3 -->
<g id="node4" class="node">
<title>Node3</title>
<polygon fill="none" stroke="#bfbfbf" points="187.4336,-220.5 187.4336,-238.5 264.5664,-238.5 264.5664,-220.5 187.4336,-220.5"/>
<text text-anchor="middle" x="226" y="-226.5" font-family="Helvetica,sans-Serif" font-size="10.00" fill="#000000">QDataStream</text>
</g>
<!-- Node2&#45;&gt;Node3 -->
<g id="edge4" class="edge">
<title>Node2&#45;&gt;Node3</title>
<path fill="none" stroke="#191970" d="M342.047,-275.4179C319.21,-266.3817 283.9637,-252.4353 258.3055,-242.2828"/>
<polygon fill="#191970" stroke="#191970" points="259.5734,-239.0205 248.9871,-238.5956 256.9979,-245.5295 259.5734,-239.0205"/>
</g>
<!-- Node2&#45;&gt;Node4 -->
<g id="edge5" class="edge">
<title>Node2&#45;&gt;Node4</title>
<path fill="none" stroke="#191970" d="M327.905,-276.2064C285.6388,-266.7566 216.342,-251.2635 169.2514,-240.7351"/>
<polygon fill="#191970" stroke="#191970" points="169.7865,-237.2684 159.2637,-238.502 168.2591,-244.0997 169.7865,-237.2684"/>
</g>
<!-- Node5 -->
<g id="node6" class="node">
<title>Node5</title>
<polygon fill="none" stroke="#bfbfbf" points="282.3228,-220.5 282.3228,-238.5 341.6772,-238.5 341.6772,-220.5 282.3228,-220.5"/>
<text text-anchor="middle" x="312" y="-226.5" font-family="Helvetica,sans-Serif" font-size="10.00" fill="#000000">QRegExp</text>
</g>
<!-- Node2&#45;&gt;Node5 -->
<g id="edge6" class="edge">
<title>Node2&#45;&gt;Node5</title>
<path fill="none" stroke="#191970" d="M356.2481,-275.4179C348.6222,-267.5041 337.3671,-255.8243 328.1169,-246.2251"/>
<polygon fill="#191970" stroke="#191970" points="330.4013,-243.5516 320.942,-238.7795 325.3607,-248.4089 330.4013,-243.5516"/>
</g>
<!-- Node6 -->
<g id="node7" class="node">
<title>Node6</title>
<polygon fill="none" stroke="#bfbfbf" points="359.4312,-220.5 359.4312,-238.5 476.5688,-238.5 476.5688,-220.5 359.4312,-220.5"/>
<text text-anchor="middle" x="418" y="-226.5" font-family="Helvetica,sans-Serif" font-size="10.00" fill="#000000">QSortFilterProxyModel</text>
</g>
<!-- Node2&#45;&gt;Node6 -->
<g id="edge7" class="edge">
<title>Node2&#45;&gt;Node6</title>
<path fill="none" stroke="#191970" d="M373.7519,-275.4179C381.3778,-267.5041 392.6329,-255.8243 401.8831,-246.2251"/>
<polygon fill="#191970" stroke="#191970" points="404.6393,-248.4089 409.058,-238.7795 399.5987,-243.5516 404.6393,-248.4089"/>
</g>
<!-- Node7 -->
<g id="node8" class="node">
<title>Node7</title>
<polygon fill="none" stroke="#bfbfbf" points="494.6504,-220.5 494.6504,-238.5 587.3496,-238.5 587.3496,-220.5 494.6504,-220.5"/>
<text text-anchor="middle" x="541" y="-226.5" font-family="Helvetica,sans-Serif" font-size="10.00" fill="#000000">QStringListModel</text>
</g>
<!-- Node2&#45;&gt;Node7 -->
<g id="edge8" class="edge">
<title>Node2&#45;&gt;Node7</title>
<path fill="none" stroke="#191970" d="M394.0628,-275.4179C423.7041,-266.155 469.8561,-251.7325 502.5168,-241.526"/>
<polygon fill="#191970" stroke="#191970" points="503.6857,-244.8277 512.1865,-238.5042 501.5977,-238.1463 503.6857,-244.8277"/>
</g>
<!-- Node2&#45;&gt;Node8 -->
<g id="edge9" class="edge">
<title>Node2&#45;&gt;Node8</title>
<path fill="none" stroke="#191970" d="M402.128,-277.3097C451.346,-267.7781 538.5418,-250.8916 595.0348,-239.951"/>
<polygon fill="#191970" stroke="#191970" points="595.7115,-243.3851 604.8636,-238.0475 594.3806,-236.5128 595.7115,-243.3851"/>
</g>
<!-- Node9 -->
<g id="node10" class="node">
<title>Node9</title>
<g id="a_node10"><a xlink:href="enums_8h.html" target="_top" xlink:title="enums.h">
<polygon fill="none" stroke="#000000" points="163.8228,-55.5 163.8228,-73.5 218.1772,-73.5 218.1772,-55.5 163.8228,-55.5"/>
<text text-anchor="middle" x="191" y="-61.5" font-family="Helvetica,sans-Serif" font-size="10.00" fill="#000000">enums.h</text>
</a>
</g>
</g>
<!-- Node8&#45;&gt;Node9 -->
<g id="edge10" class="edge">
<title>Node8&#45;&gt;Node9</title>
<path fill="none" stroke="#191970" d="M604.8069,-221.2184C601.8317,-220.7721 598.8754,-220.36 596,-220 540.6221,-213.0669 133.0233,-224.8535 95,-184 61.43,-147.9313 126.6391,-101.525 165.301,-78.6028"/>
<polygon fill="#191970" stroke="#191970" points="167.1177,-81.5954 174.023,-73.5601 163.614,-75.5354 167.1177,-81.5954"/>
</g>
<!-- Node10 -->
<g id="node11" class="node">
<title>Node10</title>
<g id="a_node11"><a xlink:href="imitatepass_8h.html" target="_top" xlink:title="imitatepass.h">
<polygon fill="none" stroke="#000000" points="189.542,-165.5 189.542,-183.5 264.458,-183.5 264.458,-165.5 189.542,-165.5"/>
<text text-anchor="middle" x="227" y="-171.5" font-family="Helvetica,sans-Serif" font-size="10.00" fill="#000000">imitatepass.h</text>
</a>
</g>
</g>
<!-- Node8&#45;&gt;Node10 -->
<g id="edge11" class="edge">
<title>Node8&#45;&gt;Node10</title>
<path fill="none" stroke="#191970" d="M604.7891,-221.3502C601.8181,-220.8721 598.8678,-220.4169 596,-220 456.6957,-199.7505 417.9931,-205.9861 274.7028,-183.9779"/>
<polygon fill="#191970" stroke="#191970" points="275.0766,-180.494 264.6575,-182.4154 274.0007,-187.4109 275.0766,-180.494"/>
</g>
<!-- Node11 -->
<g id="node12" class="node">
<title>Node11</title>
<g id="a_node12"><a xlink:href="pass_8h.html" target="_top" xlink:title="pass.h">
<polygon fill="none" stroke="#000000" points="506.2686,-110.5 506.2686,-128.5 551.7314,-128.5 551.7314,-110.5 506.2686,-110.5"/>
<text text-anchor="middle" x="529" y="-116.5" font-family="Helvetica,sans-Serif" font-size="10.00" fill="#000000">pass.h</text>
</a>
</g>
</g>
<!-- Node8&#45;&gt;Node11 -->
<g id="edge30" class="edge">
<title>Node8&#45;&gt;Node11</title>
<path fill="none" stroke="#191970" d="M609.6353,-220.3476C588.6395,-213.5734 563.9236,-202.2657 548,-184 536.9836,-171.3633 532.3479,-152.6067 530.4008,-138.5731"/>
<polygon fill="#191970" stroke="#191970" points="533.8723,-138.117 529.3452,-128.5381 526.9107,-138.8494 533.8723,-138.117"/>
</g>
<!-- Node16 -->
<g id="node17" class="node">
<title>Node16</title>
<polygon fill="none" stroke="#bfbfbf" points="747.6602,-.5 747.6602,-18.5 800.3398,-18.5 800.3398,-.5 747.6602,-.5"/>
<text text-anchor="middle" x="774" y="-6.5" font-family="Helvetica,sans-Serif" font-size="10.00" fill="#000000">QObject</text>
</g>
<!-- Node8&#45;&gt;Node16 -->
<g id="edge38" class="edge">
<title>Node8&#45;&gt;Node16</title>
<path fill="none" stroke="#191970" d="M693.4353,-224.6909C741.9809,-218.4133 815.1126,-205.6003 832,-184 870.0856,-135.2854 817.3372,-60.3932 789.4038,-26.8225"/>
<polygon fill="#191970" stroke="#191970" points="791.7527,-24.1841 782.5923,-18.8608 786.4337,-28.7348 791.7527,-24.1841"/>
</g>
<!-- Node8&#45;&gt;Node20 -->
<g id="edge35" class="edge">
<title>Node8&#45;&gt;Node20</title>
<path fill="none" stroke="#191970" d="M693.3169,-225.4868C770.8656,-218.0503 924.6331,-201.3042 942,-184 968.5628,-157.5331 967.3203,-109.8767 964.1337,-83.4479"/>
<polygon fill="#191970" stroke="#191970" points="967.5984,-82.9516 962.7243,-73.5445 960.6682,-83.9379 967.5984,-82.9516"/>
</g>
<!-- Node24 -->
<g id="node25" class="node">
<title>Node24</title>
<g id="a_node25"><a xlink:href="realpass_8h.html" target="_top" xlink:title="realpass.h">
<polygon fill="none" stroke="#000000" points="760.9312,-165.5 760.9312,-183.5 823.0688,-183.5 823.0688,-165.5 760.9312,-165.5"/>
<text text-anchor="middle" x="792" y="-171.5" font-family="Helvetica,sans-Serif" font-size="10.00" fill="#000000">realpass.h</text>
</a>
</g>
</g>
<!-- Node8&#45;&gt;Node24 -->
<g id="edge31" class="edge">
<title>Node8&#45;&gt;Node24</title>
<path fill="none" stroke="#191970" d="M672.6135,-220.4179C696.1077,-211.3817 732.3683,-197.4353 758.7648,-187.2828"/>
<polygon fill="#191970" stroke="#191970" points="760.2744,-190.4522 768.3514,-183.5956 757.7615,-183.9188 760.2744,-190.4522"/>
</g>
<!-- Node25 -->
<g id="node26" class="node">
<title>Node25</title>
<polygon fill="none" stroke="#bfbfbf" points="104.1602,-165.5 104.1602,-183.5 171.8398,-183.5 171.8398,-165.5 104.1602,-165.5"/>
<text text-anchor="middle" x="138" y="-171.5" font-family="Helvetica,sans-Serif" font-size="10.00" fill="#000000">QByteArray</text>
</g>
<!-- Node8&#45;&gt;Node25 -->
<g id="edge33" class="edge">
<title>Node8&#45;&gt;Node25</title>
<path fill="none" stroke="#191970" d="M604.8006,-221.2677C601.8268,-220.8095 598.8727,-220.3813 596,-220 415.6982,-196.0709 365.7487,-211.4661 182.1753,-183.9936"/>
<polygon fill="#191970" stroke="#191970" points="182.6038,-180.5186 172.1916,-182.4773 181.5526,-187.4393 182.6038,-180.5186"/>
</g>
<!-- Node26 -->
<g id="node27" class="node">
<title>Node26</title>
<polygon fill="none" stroke="#bfbfbf" points="282.813,-165.5 282.813,-183.5 377.187,-183.5 377.187,-165.5 282.813,-165.5"/>
<text text-anchor="middle" x="330" y="-171.5" font-family="Helvetica,sans-Serif" font-size="10.00" fill="#000000">QCoreApplication</text>
</g>
<!-- Node8&#45;&gt;Node26 -->
<g id="edge34" class="edge">
<title>Node8&#45;&gt;Node26</title>
<path fill="none" stroke="#191970" d="M604.7583,-221.5428C601.7947,-221.0181 598.8544,-220.4999 596,-220 556.9585,-213.162 453.3279,-195.4872 387.5404,-184.2873"/>
<polygon fill="#191970" stroke="#191970" points="387.7681,-180.7758 377.3226,-182.5481 386.5934,-187.6766 387.7681,-180.7758"/>
</g>
<!-- Node27 -->
<g id="node28" class="node">
<title>Node27</title>
<polygon fill="none" stroke="#bfbfbf" points="395.0542,-165.5 395.0542,-183.5 434.9458,-183.5 434.9458,-165.5 395.0542,-165.5"/>
<text text-anchor="middle" x="415" y="-171.5" font-family="Helvetica,sans-Serif" font-size="10.00" fill="#000000">QFile</text>
</g>
<!-- Node8&#45;&gt;Node27 -->
<g id="edge36" class="edge">
<title>Node8&#45;&gt;Node27</title>
<path fill="none" stroke="#191970" d="M604.7044,-220.9768C565.0944,-213.0629 505.3045,-200.4003 444.9013,-184.0542"/>
<polygon fill="#191970" stroke="#191970" points="445.774,-180.6644 435.2047,-181.3992 443.9254,-187.4159 445.774,-180.6644"/>
</g>
<!-- Node28 -->
<g id="node29" class="node">
<title>Node28</title>
<polygon fill="none" stroke="#bfbfbf" points="453.4385,-165.5 453.4385,-183.5 500.5615,-183.5 500.5615,-165.5 453.4385,-165.5"/>
<text text-anchor="middle" x="477" y="-171.5" font-family="Helvetica,sans-Serif" font-size="10.00" fill="#000000">QHash</text>
</g>
<!-- Node8&#45;&gt;Node28 -->
<g id="edge37" class="edge">
<title>Node8&#45;&gt;Node28</title>
<path fill="none" stroke="#191970" d="M620.5977,-220.4179C590.3774,-210.7544 542.5958,-195.4754 510.544,-185.2263"/>
<polygon fill="#191970" stroke="#191970" points="511.3234,-181.801 500.7325,-182.0889 509.1913,-188.4684 511.3234,-181.801"/>
</g>
<!-- Node29 -->
<g id="node30" class="node">
<title>Node29</title>
<polygon fill="none" stroke="#bfbfbf" points="556.7144,-165.5 556.7144,-183.5 603.2856,-183.5 603.2856,-165.5 556.7144,-165.5"/>
<text text-anchor="middle" x="580" y="-171.5" font-family="Helvetica,sans-Serif" font-size="10.00" fill="#000000">QPoint</text>
</g>
<!-- Node8&#45;&gt;Node29 -->
<g id="edge39" class="edge">
<title>Node8&#45;&gt;Node29</title>
<path fill="none" stroke="#191970" d="M637.6061,-220.4179C627.2808,-212.1876 611.8453,-199.8839 599.5503,-190.0836"/>
<polygon fill="#191970" stroke="#191970" points="601.6429,-187.2757 591.6415,-183.7795 597.2796,-192.7495 601.6429,-187.2757"/>
</g>
<!-- Node30 -->
<g id="node31" class="node">
<title>Node30</title>
<polygon fill="none" stroke="#bfbfbf" points="621.0444,-165.5 621.0444,-183.5 680.9556,-183.5 680.9556,-165.5 621.0444,-165.5"/>
<text text-anchor="middle" x="651" y="-171.5" font-family="Helvetica,sans-Serif" font-size="10.00" fill="#000000">QSettings</text>
</g>
<!-- Node8&#45;&gt;Node30 -->
<g id="edge40" class="edge">
<title>Node8&#45;&gt;Node30</title>
<path fill="none" stroke="#191970" d="M649.3303,-220.4179C649.5921,-213.2164 649.9674,-202.8962 650.2959,-193.8632"/>
<polygon fill="#191970" stroke="#191970" points="653.7968,-193.9001 650.6626,-183.7795 646.8014,-193.6456 653.7968,-193.9001"/>
</g>
<!-- Node31 -->
<g id="node32" class="node">
<title>Node31</title>
<polygon fill="none" stroke="#bfbfbf" points="699.3843,-165.5 699.3843,-183.5 742.6157,-183.5 742.6157,-165.5 699.3843,-165.5"/>
<text text-anchor="middle" x="721" y="-171.5" font-family="Helvetica,sans-Serif" font-size="10.00" fill="#000000">QSize</text>
</g>
<!-- Node8&#45;&gt;Node31 -->
<g id="edge41" class="edge">
<title>Node8&#45;&gt;Node31</title>
<path fill="none" stroke="#191970" d="M660.8893,-220.4179C671.6635,-212.1876 687.7702,-199.8839 700.5997,-190.0836"/>
<polygon fill="#191970" stroke="#191970" points="703.0303,-192.6313 708.8523,-183.7795 698.781,-187.0685 703.0303,-192.6313"/>
</g>
<!-- Node32 -->
<g id="node33" class="node">
<title>Node32</title>
<polygon fill="none" stroke="#bfbfbf" points="878.6372,-165.5 878.6372,-183.5 933.3628,-183.5 933.3628,-165.5 878.6372,-165.5"/>
<text text-anchor="middle" x="906" y="-171.5" font-family="Helvetica,sans-Serif" font-size="10.00" fill="#000000">QVariant</text>
</g>
<!-- Node8&#45;&gt;Node32 -->
<g id="edge42" class="edge">
<title>Node8&#45;&gt;Node32</title>
<path fill="none" stroke="#191970" d="M693.3201,-220.4352C737.023,-211.4328 805.6912,-197.1164 865,-184 866.0701,-183.7633 867.1556,-183.5218 868.251,-183.2767"/>
<polygon fill="#191970" stroke="#191970" points="869.25,-186.6391 878.2284,-181.0143 867.702,-179.8125 869.25,-186.6391"/>
</g>
<!-- Node10&#45;&gt;Node11 -->
<g id="edge12" class="edge">
<title>Node10&#45;&gt;Node11</title>
<path fill="none" stroke="#191970" d="M264.6952,-166.8019C267.8411,-166.1834 270.9741,-165.5757 274,-165 353.6401,-149.8482 447.5668,-133.4732 496.1671,-125.1113"/>
<polygon fill="#191970" stroke="#191970" points="496.8464,-128.5459 506.1096,-123.4037 495.6614,-121.6469 496.8464,-128.5459"/>
</g>
<!-- Node22 -->
<g id="node23" class="node">
<title>Node22</title>
<g id="a_node23"><a xlink:href="simpletransaction_8h.html" target="_top" xlink:title="simpletransaction.h">
<polygon fill="none" stroke="#000000" points="175.9238,-110.5 175.9238,-128.5 278.0762,-128.5 278.0762,-110.5 175.9238,-110.5"/>
<text text-anchor="middle" x="227" y="-116.5" font-family="Helvetica,sans-Serif" font-size="10.00" fill="#000000">simpletransaction.h</text>
</a>
</g>
</g>
<!-- Node10&#45;&gt;Node22 -->
<g id="edge27" class="edge">
<title>Node10&#45;&gt;Node22</title>
<path fill="none" stroke="#191970" d="M227,-165.4179C227,-158.2164 227,-147.8962 227,-138.8632"/>
<polygon fill="#191970" stroke="#191970" points="230.5001,-138.7794 227,-128.7795 223.5001,-138.7795 230.5001,-138.7794"/>
</g>
<!-- Node11&#45;&gt;Node9 -->
<g id="edge16" class="edge">
<title>Node11&#45;&gt;Node9</title>
<path fill="none" stroke="#191970" d="M506.1197,-116.9131C456.9852,-111.1756 337.6015,-96.2611 228.3105,-74.097"/>
<polygon fill="#191970" stroke="#191970" points="228.9445,-70.6542 218.4447,-72.0704 227.536,-77.511 228.9445,-70.6542"/>
</g>
<!-- Node12 -->
<g id="node13" class="node">
<title>Node12</title>
<g id="a_node13"><a xlink:href="datahelpers_8h.html" target="_top" xlink:title="datahelpers.h">
<polygon fill="none" stroke="#000000" points="424.6997,-55.5 424.6997,-73.5 501.3003,-73.5 501.3003,-55.5 424.6997,-55.5"/>
<text text-anchor="middle" x="463" y="-61.5" font-family="Helvetica,sans-Serif" font-size="10.00" fill="#000000">datahelpers.h</text>
</a>
</g>
</g>
<!-- Node11&#45;&gt;Node12 -->
<g id="edge13" class="edge">
<title>Node11&#45;&gt;Node12</title>
<path fill="none" stroke="#191970" d="M518.1014,-110.4179C508.3201,-102.2667 493.7442,-90.1201 482.0403,-80.3669"/>
<polygon fill="#191970" stroke="#191970" points="484.0582,-77.4926 474.1353,-73.7795 479.5769,-82.8701 484.0582,-77.4926"/>
</g>
<!-- Node11&#45;&gt;Node14 -->
<g id="edge26" class="edge">
<title>Node11&#45;&gt;Node14</title>
<path fill="none" stroke="#191970" d="M506.1325,-114.1054C473.1585,-106.1711 410.4557,-90.5001 358,-74 306.8875,-57.9224 248.7056,-36.0073 213.4351,-22.3105"/>
<polygon fill="#191970" stroke="#191970" points="214.277,-18.8821 203.6888,-18.5082 211.7328,-25.4034 214.277,-18.8821"/>
</g>
<!-- Node15 -->
<g id="node16" class="node">
<title>Node15</title>
<g id="a_node16"><a xlink:href="executor_8h.html" target="_top" xlink:title="executor.h">
<polygon fill="none" stroke="#000000" points="594.9263,-55.5 594.9263,-73.5 657.0737,-73.5 657.0737,-55.5 594.9263,-55.5"/>
<text text-anchor="middle" x="626" y="-61.5" font-family="Helvetica,sans-Serif" font-size="10.00" fill="#000000">executor.h</text>
</a>
</g>
</g>
<!-- Node11&#45;&gt;Node15 -->
<g id="edge17" class="edge">
<title>Node11&#45;&gt;Node15</title>
<path fill="none" stroke="#191970" d="M545.0176,-110.4179C560.1819,-101.8195 583.1871,-88.7754 600.8075,-78.7844"/>
<polygon fill="#191970" stroke="#191970" points="602.986,-81.5727 609.9586,-73.5956 599.5333,-75.4834 602.986,-81.5727"/>
</g>
<!-- Node17 -->
<g id="node18" class="node">
<title>Node17</title>
<polygon fill="none" stroke="#bfbfbf" points="593.0493,-.5 593.0493,-18.5 652.9507,-18.5 652.9507,-.5 593.0493,-.5"/>
<text text-anchor="middle" x="623" y="-6.5" font-family="Helvetica,sans-Serif" font-size="10.00" fill="#000000">QProcess</text>
</g>
<!-- Node11&#45;&gt;Node17 -->
<g id="edge24" class="edge">
<title>Node11&#45;&gt;Node17</title>
<path fill="none" stroke="#191970" d="M536.6924,-110.4982C552.3912,-92.1273 588.338,-50.0619 608.5382,-26.4233"/>
<polygon fill="#191970" stroke="#191970" points="611.3656,-28.5023 615.2013,-18.6261 606.0439,-23.9547 611.3656,-28.5023"/>
</g>
<!-- Node18 -->
<g id="node19" class="node">
<title>Node18</title>
<polygon fill="none" stroke="#bfbfbf" points="519.0986,-.5 519.0986,-18.5 572.9014,-18.5 572.9014,-.5 519.0986,-.5"/>
<text text-anchor="middle" x="546" y="-6.5" font-family="Helvetica,sans-Serif" font-size="10.00" fill="#000000">QQueue</text>
</g>
<!-- Node11&#45;&gt;Node18 -->
<g id="edge25" class="edge">
<title>Node11&#45;&gt;Node18</title>
<path fill="none" stroke="#191970" d="M530.3912,-110.4982C533.1432,-92.6913 539.3356,-52.6225 543.0402,-28.6515"/>
<polygon fill="#191970" stroke="#191970" points="546.5211,-29.0434 544.5896,-18.6261 539.6033,-27.9742 546.5211,-29.0434"/>
</g>
<!-- Node19 -->
<g id="node20" class="node">
<title>Node19</title>
<polygon fill="none" stroke="#bfbfbf" points="1003.377,-55.5 1003.377,-73.5 1056.623,-73.5 1056.623,-55.5 1003.377,-55.5"/>
<text text-anchor="middle" x="1030" y="-61.5" font-family="Helvetica,sans-Serif" font-size="10.00" fill="#000000">QDebug</text>
</g>
<!-- Node11&#45;&gt;Node19 -->
<g id="edge21" class="edge">
<title>Node11&#45;&gt;Node19</title>
<path fill="none" stroke="#191970" d="M552.0549,-118.2259C619.4772,-114.2831 822.0008,-100.8956 988,-74 989.6743,-73.7287 991.3816,-73.4309 993.1031,-73.1134"/>
<polygon fill="#191970" stroke="#191970" points="993.8701,-76.5294 1002.9842,-71.1272 992.4905,-69.6666 993.8701,-76.5294"/>
</g>
<!-- Node11&#45;&gt;Node20 -->
<g id="edge22" class="edge">
<title>Node11&#45;&gt;Node20</title>
<path fill="none" stroke="#191970" d="M551.9212,-116.5818C624.8913,-107.2916 851.7045,-78.4149 932.2576,-68.1593"/>
<polygon fill="#191970" stroke="#191970" points="933.1442,-71.5748 942.622,-66.8398 932.26,-64.6309 933.1442,-71.5748"/>
</g>
<!-- Node21 -->
<g id="node22" class="node">
<title>Node21</title>
<polygon fill="none" stroke="#bfbfbf" points="367.3301,-55.5 367.3301,-73.5 406.6699,-73.5 406.6699,-55.5 367.3301,-55.5"/>
<text text-anchor="middle" x="387" y="-61.5" font-family="Helvetica,sans-Serif" font-size="10.00" fill="#000000">QList</text>
</g>
<!-- Node11&#45;&gt;Node21 -->
<g id="edge23" class="edge">
<title>Node11&#45;&gt;Node21</title>
<path fill="none" stroke="#191970" d="M506.1852,-110.6633C481.8541,-101.2393 443.2283,-86.2786 416.5773,-75.956"/>
<polygon fill="#191970" stroke="#191970" points="417.5932,-72.5962 407.0041,-72.2481 415.0649,-79.1236 417.5932,-72.5962"/>
</g>
<!-- Node13 -->
<g id="node14" class="node">
<title>Node13</title>
<polygon fill="none" stroke="#bfbfbf" points="429.6216,-.5 429.6216,-18.5 496.3784,-18.5 496.3784,-.5 429.6216,-.5"/>
<text text-anchor="middle" x="463" y="-6.5" font-family="Helvetica,sans-Serif" font-size="10.00" fill="#000000">QDateTime</text>
</g>
<!-- Node12&#45;&gt;Node13 -->
<g id="edge14" class="edge">
<title>Node12&#45;&gt;Node13</title>
<path fill="none" stroke="#191970" d="M463,-55.4179C463,-48.2164 463,-37.8962 463,-28.8632"/>
<polygon fill="#191970" stroke="#191970" points="466.5001,-28.7794 463,-18.7795 459.5001,-28.7795 466.5001,-28.7794"/>
</g>
<!-- Node12&#45;&gt;Node14 -->
<g id="edge15" class="edge">
<title>Node12&#45;&gt;Node14</title>
<path fill="none" stroke="#191970" d="M424.531,-56.6977C421.6447,-56.1204 418.7766,-55.5494 416,-55 345.0876,-40.9686 262.0421,-24.9979 216.0933,-16.2017"/>
<polygon fill="#191970" stroke="#191970" points="216.5339,-12.7226 206.0543,-14.2811 215.2185,-19.5979 216.5339,-12.7226"/>
</g>
<!-- Node15&#45;&gt;Node16 -->
<g id="edge18" class="edge">
<title>Node15&#45;&gt;Node16</title>
<path fill="none" stroke="#191970" d="M650.4392,-55.4179C674.8619,-46.3419 712.6142,-32.3123 739.9632,-22.1488"/>
<polygon fill="#191970" stroke="#191970" points="741.3701,-25.3599 749.5245,-18.5956 738.9316,-18.7984 741.3701,-25.3599"/>
</g>
<!-- Node15&#45;&gt;Node17 -->
<g id="edge19" class="edge">
<title>Node15&#45;&gt;Node17</title>
<path fill="none" stroke="#191970" d="M625.5046,-55.4179C625.1118,-48.2164 624.5489,-37.8962 624.0562,-28.8632"/>
<polygon fill="#191970" stroke="#191970" points="627.5457,-28.574 623.5062,-18.7795 620.5561,-28.9553 627.5457,-28.574"/>
</g>
<!-- Node15&#45;&gt;Node18 -->
<g id="edge20" class="edge">
<title>Node15&#45;&gt;Node18</title>
<path fill="none" stroke="#191970" d="M612.7896,-55.4179C600.5146,-46.9788 582.0101,-34.257 567.5892,-24.3426"/>
<polygon fill="#191970" stroke="#191970" points="569.4533,-21.3768 559.23,-18.5956 565.4876,-27.1451 569.4533,-21.3768"/>
</g>
<!-- Node22&#45;&gt;Node9 -->
<g id="edge28" class="edge">
<title>Node22&#45;&gt;Node9</title>
<path fill="none" stroke="#191970" d="M221.0553,-110.4179C216.0826,-102.8207 208.8381,-91.7527 202.7076,-82.3866"/>
<polygon fill="#191970" stroke="#191970" points="205.4789,-80.2297 197.0738,-73.7795 199.622,-84.0633 205.4789,-80.2297"/>
</g>
<!-- Node23 -->
<g id="node24" class="node">
<title>Node23</title>
<polygon fill="none" stroke="#bfbfbf" points="236.0962,-55.5 236.0962,-73.5 279.9038,-73.5 279.9038,-55.5 236.0962,-55.5"/>
<text text-anchor="middle" x="258" y="-61.5" font-family="Helvetica,sans-Serif" font-size="10.00" fill="#000000">queue</text>
</g>
<!-- Node22&#45;&gt;Node23 -->
<g id="edge29" class="edge">
<title>Node22&#45;&gt;Node23</title>
<path fill="none" stroke="#191970" d="M232.119,-110.4179C236.3565,-102.8998 242.5097,-91.9829 247.7532,-82.6799"/>
<polygon fill="#191970" stroke="#191970" points="250.9086,-84.2096 252.7698,-73.7795 244.8105,-80.7724 250.9086,-84.2096"/>
</g>
<!-- Node24&#45;&gt;Node11 -->
<g id="edge32" class="edge">
<title>Node24&#45;&gt;Node11</title>
<path fill="none" stroke="#191970" d="M760.5789,-166.9375C757.6812,-166.2703 754.7879,-165.6153 752,-165 684.6304,-150.1309 605.4227,-134.3787 561.8644,-125.8649"/>
<polygon fill="#191970" stroke="#191970" points="562.3287,-122.3895 551.8437,-123.9111 560.989,-129.2602 562.3287,-122.3895"/>
</g>
<!-- Node34&#45;&gt;Node19 -->
<g id="edge47" class="edge">
<title>Node34&#45;&gt;Node19</title>
<path fill="none" stroke="#191970" d="M1036.7081,-275.327C1035.6586,-242.3409 1032.0617,-129.2972 1030.6124,-83.7484"/>
<polygon fill="#191970" stroke="#191970" points="1034.1095,-83.5958 1030.2931,-73.7122 1027.113,-83.8185 1034.1095,-83.5958"/>
</g>
</g>
</svg>
