<?xml version="1.0" encoding="UTF-8" standalone="no"?>
<!DOCTYPE svg PUBLIC "-//W3C//DTD SVG 1.1//EN"
 "http://www.w3.org/Graphics/SVG/1.1/DTD/svg11.dtd">
<!-- Generated by graphviz version 2.43.0 (0)
 -->
<!-- Title: src/util.h Pages: 1 -->
<!--zoomable 202 -->
<svg id="main" version="1.1" xmlns="http://www.w3.org/2000/svg" xmlns:xlink="http://www.w3.org/1999/xlink" xml:space="preserve" onload="init(evt)">
<style type="text/css"><![CDATA[
.edge:hover path { stroke: red; }
.edge:hover polygon { stroke: red; fill: red; }
]]></style>
<script type="text/javascript"><![CDATA[
var edges = document.getElementsByTagName('g');
if (edges && edges.length) {
  for (var i=0;i<edges.length;i++) {
    if (edges[i].id.substr(0,4)=='edge') {
      edges[i].setAttribute('class','edge');
    }
  }
}
]]></script>
        <defs>
                <circle id="rim" cx="0" cy="0" r="7"/>
                <circle id="rim2" cx="0" cy="0" r="3.5"/>
                <g id="zoomPlus">
                        <use xlink:href="#rim" fill="#404040">
                                <set attributeName="fill" to="#808080" begin="zoomplus.mouseover" end="zoomplus.mouseout"/>
                        </use>
                        <path d="M-4,0h8M0,-4v8" fill="none" stroke="white" stroke-width="1.5" pointer-events="none"/>
                </g>
                <g id="zoomMin">
                        <use xlink:href="#rim" fill="#404040">
                                <set attributeName="fill" to="#808080" begin="zoomminus.mouseover" end="zoomminus.mouseout"/>
                        </use>
                        <path d="M-4,0h8" fill="none" stroke="white" stroke-width="1.5" pointer-events="none"/>
                </g>
                <g id="dirArrow">
                        <path fill="none" stroke="white" stroke-width="1.5" d="M0,-3.0v7 M-2.5,-0.5L0,-3.0L2.5,-0.5"/>
                </g>
               <g id="resetDef">
                       <use xlink:href="#rim2" fill="#404040">
                               <set attributeName="fill" to="#808080" begin="reset.mouseover" end="reset.mouseout"/>
                       </use>
               </g>
        </defs>

<script type="text/javascript">
var viewWidth = 802;
var viewHeight = 202;
var sectionId = 'dynsection-1';
</script>
<script xlink:href="svgpan.js"/>
<svg id="graph" class="graph">
<g id="viewport">
<title>src/util.h</title>
<!-- Node1 -->
<g id="node1" class="node">
<title>Node1</title>
<g id="a_node1"><a xlink:title=" ">
<polygon fill="#bfbfbf" stroke="black" points="409.9,-175.5 409.9,-193.5 463.13,-193.5 463.13,-175.5 409.9,-175.5"/>
<text text-anchor="middle" x="436.51" y="-181.5" font-family="Helvetica,sans-Serif" font-size="10.00">src/util.h</text>
</a>
</g>
</g>
<!-- Node2 -->
<g id="node2" class="node">
<title>Node2</title>
<g id="a_node2"><a xlink:href="storemodel_8h.html" target="_top" xlink:title=" ">
<polygon fill="none" stroke="black" points="252.56,-115.5 252.56,-133.5 342.47,-133.5 342.47,-115.5 252.56,-115.5"/>
<text text-anchor="middle" x="297.51" y="-121.5" font-family="Helvetica,sans-Serif" font-size="10.00">src/storemodel.h</text>
</a>
</g>
</g>
<!-- Node1&#45;&gt;Node2 -->
<g id="edge1" class="edge">
<title>Node1&#45;&gt;Node2</title>
<path fill="none" stroke="midnightblue" d="M403.01,-171.83C374.07,-160.51 333.85,-143.64 312.25,-133.68"/>
<polygon fill="midnightblue" stroke="midnightblue" points="401.75,-175.1 412.34,-175.44 404.28,-168.57 401.75,-175.1"/>
</g>
<!-- Node6 -->
<g id="node6" class="node">
<title>Node6</title>
<g id="a_node6"><a xlink:href="mainwindow_8cpp.html" target="_top" xlink:title=" ">
<polygon fill="none" stroke="black" points="319.77,-0.5 319.77,-18.5 425.26,-18.5 425.26,-0.5 319.77,-0.5"/>
<text text-anchor="middle" x="372.51" y="-6.5" font-family="Helvetica,sans-Serif" font-size="10.00">src/mainwindow.cpp</text>
</a>
</g>
</g>
<!-- Node1&#45;&gt;Node6 -->
<g id="edge9" class="edge">
<title>Node1&#45;&gt;Node6</title>
<path fill="none" stroke="midnightblue" d="M416.82,-169.01C407.64,-161.18 397.44,-150.71 391.51,-139 370.52,-97.56 371.01,-39.61 372,-18.55"/>
<polygon fill="midnightblue" stroke="midnightblue" points="414.83,-171.91 424.83,-175.43 419.21,-166.45 414.83,-171.91"/>
</g>
<!-- Node9 -->
<g id="node9" class="node">
<title>Node9</title>
<g id="a_node9"><a xlink:href="pass_8cpp.html" target="_top" xlink:title=" ">
<polygon fill="none" stroke="black" points="400.45,-115.5 400.45,-133.5 472.58,-133.5 472.58,-115.5 400.45,-115.5"/>
<text text-anchor="middle" x="436.51" y="-121.5" font-family="Helvetica,sans-Serif" font-size="10.00">src/pass.cpp</text>
</a>
</g>
</g>
<!-- Node1&#45;&gt;Node9 -->
<g id="edge10" class="edge">
<title>Node1&#45;&gt;Node9</title>
<path fill="none" stroke="midnightblue" d="M436.51,-165.21C436.51,-154.71 436.51,-142.03 436.51,-133.87"/>
<polygon fill="midnightblue" stroke="midnightblue" points="433.01,-165.44 436.51,-175.44 440.01,-165.44 433.01,-165.44"/>
</g>
<!-- Node10 -->
<g id="node10" class="node">
<title>Node10</title>
<g id="a_node10"><a xlink:href="qtpasssettings_8cpp.html" target="_top" xlink:title=" ">
<polygon fill="none" stroke="black" points="491.05,-115.5 491.05,-133.5 605.98,-133.5 605.98,-115.5 491.05,-115.5"/>
<text text-anchor="middle" x="548.51" y="-121.5" font-family="Helvetica,sans-Serif" font-size="10.00">src/qtpasssettings.cpp</text>
</a>
</g>
</g>
<!-- Node1&#45;&gt;Node10 -->
<g id="edge11" class="edge">
<title>Node1&#45;&gt;Node10</title>
<path fill="none" stroke="midnightblue" d="M461.08,-170.78C482.87,-159.49 514.07,-143.34 532.71,-133.68"/>
<polygon fill="midnightblue" stroke="midnightblue" points="459.36,-167.73 452.09,-175.44 462.58,-173.94 459.36,-167.73"/>
</g>
<!-- Node11 -->
<g id="node11" class="node">
<title>Node11</title>
<g id="a_node11"><a xlink:href="util_8cpp.html" target="_top" xlink:title=" ">
<polygon fill="none" stroke="black" points="623.62,-115.5 623.62,-133.5 687.41,-133.5 687.41,-115.5 623.62,-115.5"/>
<text text-anchor="middle" x="655.51" y="-121.5" font-family="Helvetica,sans-Serif" font-size="10.00">src/util.cpp</text>
</a>
</g>
</g>
<!-- Node1&#45;&gt;Node11 -->
<g id="edge12" class="edge">
<title>Node1&#45;&gt;Node11</title>
<path fill="none" stroke="midnightblue" d="M473.29,-175.14C509.43,-166.72 566.05,-153.02 614.51,-139 620.27,-137.33 626.44,-135.39 632.19,-133.51"/>
<polygon fill="midnightblue" stroke="midnightblue" points="472.17,-171.8 463.22,-177.47 473.75,-178.62 472.17,-171.8"/>
</g>
<!-- Node12 -->
<g id="node12" class="node">
<title>Node12</title>
<g id="a_node12"><a xlink:href="tst__util_8cpp.html" target="_top" xlink:title=" ">
<polygon fill="none" stroke="black" points="705.39,-110.5 705.39,-138.5 793.64,-138.5 793.64,-110.5 705.39,-110.5"/>
<text text-anchor="start" x="713.39" y="-126.5" font-family="Helvetica,sans-Serif" font-size="10.00">tests/auto/util/tst</text>
<text text-anchor="middle" x="749.51" y="-116.5" font-family="Helvetica,sans-Serif" font-size="10.00">_util.cpp</text>
</a>
</g>
</g>
<!-- Node1&#45;&gt;Node12 -->
<g id="edge13" class="edge">
<title>Node1&#45;&gt;Node12</title>
<path fill="none" stroke="midnightblue" d="M473.33,-178.15C523.87,-170.58 617.48,-155.8 696.51,-139 699.39,-138.39 702.35,-137.73 705.33,-137.04"/>
<polygon fill="midnightblue" stroke="midnightblue" points="472.6,-174.72 463.22,-179.65 473.63,-181.64 472.6,-174.72"/>
</g>
<!-- Node2&#45;&gt;Node1 -->
<g id="edge7" class="edge">
<title>Node2&#45;&gt;Node1</title>
<path fill="none" stroke="midnightblue" d="M331.37,-137.31C360.39,-148.67 400.58,-165.54 422.03,-175.44"/>
<polygon fill="midnightblue" stroke="midnightblue" points="332.59,-134.03 322,-133.68 330.06,-140.55 332.59,-134.03"/>
</g>
<!-- Node3 -->
<g id="node3" class="node">
<title>Node3</title>
<g id="a_node3"><a xlink:href="mainwindow_8h.html" target="_top" xlink:title=" ">
<polygon fill="none" stroke="black" points="131.05,-55.5 131.05,-73.5 225.98,-73.5 225.98,-55.5 131.05,-55.5"/>
<text text-anchor="middle" x="178.51" y="-61.5" font-family="Helvetica,sans-Serif" font-size="10.00">src/mainwindow.h</text>
</a>
</g>
</g>
<!-- Node2&#45;&gt;Node3 -->
<g id="edge2" class="edge">
<title>Node2&#45;&gt;Node3</title>
<path fill="none" stroke="midnightblue" d="M271.73,-110.93C248.55,-99.64 215.2,-83.38 195.3,-73.68"/>
<polygon fill="midnightblue" stroke="midnightblue" points="270.45,-114.2 280.97,-115.44 273.51,-107.91 270.45,-114.2"/>
</g>
<!-- Node8 -->
<g id="node8" class="node">
<title>Node8</title>
<g id="a_node8"><a xlink:href="storemodel_8cpp.html" target="_top" xlink:title=" ">
<polygon fill="none" stroke="black" points="244.28,-55.5 244.28,-73.5 344.75,-73.5 344.75,-55.5 244.28,-55.5"/>
<text text-anchor="middle" x="294.51" y="-61.5" font-family="Helvetica,sans-Serif" font-size="10.00">src/storemodel.cpp</text>
</a>
</g>
</g>
<!-- Node2&#45;&gt;Node8 -->
<g id="edge8" class="edge">
<title>Node2&#45;&gt;Node8</title>
<path fill="none" stroke="midnightblue" d="M296.57,-105.21C296.03,-94.71 295.37,-82.03 294.95,-73.87"/>
<polygon fill="midnightblue" stroke="midnightblue" points="293.09,-105.63 297.1,-115.44 300.08,-105.27 293.09,-105.63"/>
</g>
<!-- Node4 -->
<g id="node4" class="node">
<title>Node4</title>
<g id="a_node4"><a xlink:href="main_8cpp.html" target="_top" xlink:title=" ">
<polygon fill="none" stroke="black" points="0,-0.5 0,-18.5 81.03,-18.5 81.03,-0.5 0,-0.5"/>
<text text-anchor="middle" x="40.51" y="-6.5" font-family="Helvetica,sans-Serif" font-size="10.00">main/main.cpp</text>
</a>
</g>
</g>
<!-- Node3&#45;&gt;Node4 -->
<g id="edge3" class="edge">
<title>Node3&#45;&gt;Node4</title>
<path fill="none" stroke="midnightblue" d="M148.1,-51.82C121.9,-41.76 84.75,-27.49 61.67,-18.63"/>
<polygon fill="midnightblue" stroke="midnightblue" points="146.97,-55.13 157.56,-55.45 149.48,-48.6 146.97,-55.13"/>
</g>
<!-- Node5 -->
<g id="node5" class="node">
<title>Node5</title>
<g id="a_node5"><a xlink:href="configdialog_8cpp.html" target="_top" xlink:title=" ">
<polygon fill="none" stroke="black" points="99.32,-0.5 99.32,-18.5 203.71,-18.5 203.71,-0.5 99.32,-0.5"/>
<text text-anchor="middle" x="151.51" y="-6.5" font-family="Helvetica,sans-Serif" font-size="10.00">src/configdialog.cpp</text>
</a>
</g>
</g>
<!-- Node3&#45;&gt;Node5 -->
<g id="edge4" class="edge">
<title>Node3&#45;&gt;Node5</title>
<path fill="none" stroke="midnightblue" d="M169.63,-46.07C164.91,-36.79 159.32,-25.83 155.62,-18.55"/>
<polygon fill="midnightblue" stroke="midnightblue" points="166.64,-47.9 174.3,-55.22 172.88,-44.72 166.64,-47.9"/>
</g>
<!-- Node3&#45;&gt;Node6 -->
<g id="edge5" class="edge">
<title>Node3&#45;&gt;Node6</title>
<path fill="none" stroke="midnightblue" d="M217.94,-52.73C255.02,-42.6 309.68,-27.67 343.09,-18.54"/>
<polygon fill="midnightblue" stroke="midnightblue" points="216.7,-49.44 207.98,-55.45 218.55,-56.19 216.7,-49.44"/>
</g>
<!-- Node7 -->
<g id="node7" class="node">
<title>Node7</title>
<g id="a_node7"><a xlink:href="qtpass_8cpp.html" target="_top" xlink:title=" ">
<polygon fill="none" stroke="black" points="221.28,-0.5 221.28,-18.5 301.75,-18.5 301.75,-0.5 221.28,-0.5"/>
<text text-anchor="middle" x="261.51" y="-6.5" font-family="Helvetica,sans-Serif" font-size="10.00">src/qtpass.cpp</text>
</a>
</g>
</g>
<!-- Node3&#45;&gt;Node7 -->
<g id="edge6" class="edge">
<title>Node3&#45;&gt;Node7</title>
<path fill="none" stroke="midnightblue" d="M199.58,-50.05C215.1,-40.14 235.7,-26.98 248.79,-18.63"/>
<polygon fill="midnightblue" stroke="midnightblue" points="197.67,-47.12 191.12,-55.45 201.43,-53.02 197.67,-47.12"/>
</g>
</g>
</svg>
        <g id="navigator" transform="translate(0 0)" fill="#404254">
                <rect fill="#f2f5e9" fill-opacity="0.5" stroke="#606060" stroke-width=".5" x="0" y="0" width="60" height="60"/>
                <use id="zoomplus" xlink:href="#zoomPlus" x="17" y="9" onmousedown="handleZoom(evt,'in')"/>
                <use id="zoomminus" xlink:href="#zoomMin" x="42" y="9" onmousedown="handleZoom(evt,'out')"/>
                <use id="reset" xlink:href="#resetDef" x="30" y="36" onmousedown="handleReset()"/>
                <g id="arrowUp" xlink:href="#dirArrow" transform="translate(30 24)" onmousedown="handlePan(0,-1)">
                  <use xlink:href="#rim" fill="#404040">
                        <set attributeName="fill" to="#808080" begin="arrowUp.mouseover" end="arrowUp.mouseout"/>
                  </use>
                  <path fill="none" stroke="white" stroke-width="1.5" d="M0,-3.0v7 M-2.5,-0.5L0,-3.0L2.5,-0.5"/>
                </g>
                <g id="arrowRight" xlink:href="#dirArrow" transform="rotate(90) translate(36 -43)" onmousedown="handlePan(1,0)">
                  <use xlink:href="#rim" fill="#404040">
                        <set attributeName="fill" to="#808080" begin="arrowRight.mouseover" end="arrowRight.mouseout"/>
                  </use>
                  <path fill="none" stroke="white" stroke-width="1.5" d="M0,-3.0v7 M-2.5,-0.5L0,-3.0L2.5,-0.5"/>
                </g>
                <g id="arrowDown" xlink:href="#dirArrow" transform="rotate(180) translate(-30 -48)" onmousedown="handlePan(0,1)">
                  <use xlink:href="#rim" fill="#404040">
                        <set attributeName="fill" to="#808080" begin="arrowDown.mouseover" end="arrowDown.mouseout"/>
                  </use>
                  <path fill="none" stroke="white" stroke-width="1.5" d="M0,-3.0v7 M-2.5,-0.5L0,-3.0L2.5,-0.5"/>
                </g>
                <g id="arrowLeft" xlink:href="#dirArrow" transform="rotate(270) translate(-36 17)" onmousedown="handlePan(-1,0)">
                  <use xlink:href="#rim" fill="#404040">
                        <set attributeName="fill" to="#808080" begin="arrowLeft.mouseover" end="arrowLeft.mouseout"/>
                  </use>
                  <path fill="none" stroke="white" stroke-width="1.5" d="M0,-3.0v7 M-2.5,-0.5L0,-3.0L2.5,-0.5"/>
                </g>
        </g>
        <svg viewBox="0 0 15 15" width="100%" height="30px" preserveAspectRatio="xMaxYMin meet">
         <g id="arrow_out" transform="scale(0.3 0.3)">
          <a xlink:href="util_8h__dep__incl_org.svg" target="_base">
           <rect id="button" ry="5" rx="5" y="6" x="6" height="38" width="38"
                fill="#f2f5e9" fill-opacity="0.5" stroke="#606060" stroke-width="1.0"/>
           <path id="arrow"
             d="M 11.500037,31.436501 C 11.940474,20.09759 22.043105,11.32322 32.158766,21.979434 L 37.068811,17.246167 C 37.068811,17.246167 37.088388,32 37.088388,32 L 22.160133,31.978069 C 22.160133,31.978069 26.997745,27.140456 26.997745,27.140456 C 18.528582,18.264221 13.291696,25.230495 11.500037,31.436501 z"
             style="fill:#404040;"/>
          </a>
         </g>
        </svg>
</svg>
