<?xml version="1.0" encoding="UTF-8" standalone="no"?>
<!DOCTYPE svg PUBLIC "-//W3C//DTD SVG 1.1//EN"
 "http://www.w3.org/Graphics/SVG/1.1/DTD/svg11.dtd">
<!-- Generated by graphviz version 2.40.1 (20161225.0304)
 -->
<!-- Title: src/util.h Pages: 1 -->
<svg width="989pt" height="357pt"
 viewBox="0.00 0.00 989.35 357.00" xmlns="http://www.w3.org/2000/svg" xmlns:xlink="http://www.w3.org/1999/xlink">
<g id="graph0" class="graph" transform="scale(1 1) rotate(0) translate(4 353)">
<title>src/util.h</title>
<!-- Node0 -->
<g id="node1" class="node">
<title>Node0</title>
<polygon fill="#bfbfbf" stroke="#000000" points="542.3843,-330.5 542.3843,-348.5 595.6157,-348.5 595.6157,-330.5 542.3843,-330.5"/>
<text text-anchor="middle" x="569" y="-336.5" font-family="Helvetica,sans-Serif" font-size="10.00" fill="#000000">src/util.h</text>
</g>
<!-- Node1 -->
<g id="node2" class="node">
<title>Node1</title>
<g id="a_node2"><a xlink:href="storemodel_8h.html" target="_top" xlink:title="storemodel.h">
<polygon fill="none" stroke="#000000" points="532.0962,-275.5 532.0962,-293.5 605.9038,-293.5 605.9038,-275.5 532.0962,-275.5"/>
<text text-anchor="middle" x="569" y="-281.5" font-family="Helvetica,sans-Serif" font-size="10.00" fill="#000000">storemodel.h</text>
</a>
</g>
</g>
<!-- Node0&#45;&gt;Node1 -->
<g id="edge1" class="edge">
<title>Node0&#45;&gt;Node1</title>
<path fill="none" stroke="#191970" d="M563.8337,-330.4179C562.3421,-323.2164 561.9042,-312.8962 562.5198,-303.8632"/>
<polygon fill="#191970" stroke="#191970" points="566.0126,-304.1392 563.7932,-293.7795 559.0678,-303.2621 566.0126,-304.1392"/>
</g>
<!-- Node3 -->
<g id="node4" class="node">
<title>Node3</title>
<polygon fill="none" stroke="#bfbfbf" points="356.7661,-220.5 356.7661,-238.5 457.2339,-238.5 457.2339,-220.5 356.7661,-220.5"/>
<text text-anchor="middle" x="407" y="-226.5" font-family="Helvetica,sans-Serif" font-size="10.00" fill="#000000">QFileSystemModel</text>
</g>
<!-- Node0&#45;&gt;Node3 -->
<g id="edge46" class="edge">
<title>Node0&#45;&gt;Node3</title>
<path fill="none" stroke="#191970" d="M555.7429,-330.4982C527.8568,-311.5633 462.8997,-267.4566 428.7955,-244.2994"/>
<polygon fill="#191970" stroke="#191970" points="430.6795,-241.3481 420.4403,-238.6261 426.7473,-247.1393 430.6795,-241.3481"/>
</g>
<!-- Node13 -->
<g id="node14" class="node">
<title>Node13</title>
<polygon fill="none" stroke="#bfbfbf" points="13.0493,-.5 13.0493,-18.5 62.9507,-18.5 62.9507,-.5 13.0493,-.5"/>
<text text-anchor="middle" x="38" y="-6.5" font-family="Helvetica,sans-Serif" font-size="10.00" fill="#000000">QString</text>
</g>
<!-- Node0&#45;&gt;Node13 -->
<g id="edge48" class="edge">
<title>Node0&#45;&gt;Node13</title>
<path fill="none" stroke="#191970" d="M542.3191,-337.2171C429.8257,-327.2421 0,-285.4664 0,-229.5 0,-229.5 0,-229.5 0,-119.5 0,-85.4876 16.4315,-48.6418 27.6845,-27.3963"/>
<polygon fill="#191970" stroke="#191970" points="30.7984,-28.9975 32.5555,-18.5493 24.6664,-25.6213 30.7984,-28.9975"/>
</g>
<!-- Node36 -->
<g id="node37" class="node">
<title>Node36</title>
<polygon fill="none" stroke="#bfbfbf" points="623.9805,-275.5 623.9805,-293.5 740.0195,-293.5 740.0195,-275.5 623.9805,-275.5"/>
<text text-anchor="middle" x="682" y="-281.5" font-family="Helvetica,sans-Serif" font-size="10.00" fill="#000000">QProcessEnvironment</text>
</g>
<!-- Node0&#45;&gt;Node36 -->
<g id="edge47" class="edge">
<title>Node0&#45;&gt;Node36</title>
<path fill="none" stroke="#191970" d="M587.6597,-330.4179C605.7342,-321.6205 633.3708,-308.1691 654.0672,-298.0956"/>
<polygon fill="#191970" stroke="#191970" points="655.8529,-301.1191 663.3126,-293.5956 652.7894,-294.825 655.8529,-301.1191"/>
</g>
<!-- Node1&#45;&gt;Node0 -->
<g id="edge2" class="edge">
<title>Node1&#45;&gt;Node0</title>
<path fill="none" stroke="#191970" d="M574.2068,-293.7795C575.6791,-301.0373 576.0979,-311.3738 575.4632,-320.383"/>
<polygon fill="#191970" stroke="#191970" points="571.9769,-320.0517 574.1663,-330.4179 578.9192,-320.949 571.9769,-320.0517"/>
</g>
<!-- Node2 -->
<g id="node3" class="node">
<title>Node2</title>
<polygon fill="none" stroke="#bfbfbf" points="581.4336,-220.5 581.4336,-238.5 658.5664,-238.5 658.5664,-220.5 581.4336,-220.5"/>
<text text-anchor="middle" x="620" y="-226.5" font-family="Helvetica,sans-Serif" font-size="10.00" fill="#000000">QDataStream</text>
</g>
<!-- Node1&#45;&gt;Node2 -->
<g id="edge3" class="edge">
<title>Node1&#45;&gt;Node2</title>
<path fill="none" stroke="#191970" d="M577.4216,-275.4179C584.7598,-267.5041 595.5902,-255.8243 604.4913,-246.2251"/>
<polygon fill="#191970" stroke="#191970" points="607.1624,-248.492 611.3954,-238.7795 602.0295,-243.7324 607.1624,-248.492"/>
</g>
<!-- Node1&#45;&gt;Node3 -->
<g id="edge4" class="edge">
<title>Node1&#45;&gt;Node3</title>
<path fill="none" stroke="#191970" d="M542.249,-275.4179C515.2008,-266.2348 473.216,-251.9807 443.2023,-241.7909"/>
<polygon fill="#191970" stroke="#191970" points="444.1159,-238.4049 433.5215,-238.5042 441.8654,-245.0333 444.1159,-238.4049"/>
</g>
<!-- Node4 -->
<g id="node5" class="node">
<title>Node4</title>
<polygon fill="none" stroke="#bfbfbf" points="676.3228,-220.5 676.3228,-238.5 735.6772,-238.5 735.6772,-220.5 676.3228,-220.5"/>
<text text-anchor="middle" x="706" y="-226.5" font-family="Helvetica,sans-Serif" font-size="10.00" fill="#000000">QRegExp</text>
</g>
<!-- Node1&#45;&gt;Node4 -->
<g id="edge5" class="edge">
<title>Node1&#45;&gt;Node4</title>
<path fill="none" stroke="#191970" d="M591.6228,-275.4179C614.032,-266.4215 648.5645,-252.5581 673.8245,-242.4172"/>
<polygon fill="#191970" stroke="#191970" points="675.3675,-245.5693 683.3436,-238.5956 672.7596,-239.0732 675.3675,-245.5693"/>
</g>
<!-- Node5 -->
<g id="node6" class="node">
<title>Node5</title>
<polygon fill="none" stroke="#bfbfbf" points="753.4312,-220.5 753.4312,-238.5 870.5688,-238.5 870.5688,-220.5 753.4312,-220.5"/>
<text text-anchor="middle" x="812" y="-226.5" font-family="Helvetica,sans-Serif" font-size="10.00" fill="#000000">QSortFilterProxyModel</text>
</g>
<!-- Node1&#45;&gt;Node5 -->
<g id="edge6" class="edge">
<title>Node1&#45;&gt;Node5</title>
<path fill="none" stroke="#191970" d="M605.9065,-276.1467C647.5915,-266.7118 715.6496,-251.3077 762.0617,-240.8029"/>
<polygon fill="#191970" stroke="#191970" points="762.929,-244.1952 771.9097,-238.5739 761.3837,-237.3679 762.929,-244.1952"/>
</g>
<!-- Node6 -->
<g id="node7" class="node">
<title>Node6</title>
<polygon fill="none" stroke="#bfbfbf" points="888.6504,-220.5 888.6504,-238.5 981.3496,-238.5 981.3496,-220.5 888.6504,-220.5"/>
<text text-anchor="middle" x="935" y="-226.5" font-family="Helvetica,sans-Serif" font-size="10.00" fill="#000000">QStringListModel</text>
</g>
<!-- Node1&#45;&gt;Node6 -->
<g id="edge7" class="edge">
<title>Node1&#45;&gt;Node6</title>
<path fill="none" stroke="#191970" d="M606.1157,-276.6069C609.1168,-276.0382 612.1063,-275.4948 615,-275 728.9559,-255.5161 760.8037,-257.0173 878.385,-239.2008"/>
<polygon fill="#191970" stroke="#191970" points="879.1531,-242.6241 888.5085,-237.6515 878.0941,-235.7046 879.1531,-242.6241"/>
</g>
<!-- Node7 -->
<g id="node8" class="node">
<title>Node7</title>
<g id="a_node8"><a xlink:href="qtpasssettings_8h.html" target="_top" xlink:title="qtpasssettings.h">
<polygon fill="none" stroke="#000000" points="474.8672,-220.5 474.8672,-238.5 563.1328,-238.5 563.1328,-220.5 474.8672,-220.5"/>
<text text-anchor="middle" x="519" y="-226.5" font-family="Helvetica,sans-Serif" font-size="10.00" fill="#000000">qtpasssettings.h</text>
</a>
</g>
</g>
<!-- Node1&#45;&gt;Node7 -->
<g id="edge8" class="edge">
<title>Node1&#45;&gt;Node7</title>
<path fill="none" stroke="#191970" d="M560.7435,-275.4179C553.5492,-267.5041 542.9312,-255.8243 534.2046,-246.2251"/>
<polygon fill="#191970" stroke="#191970" points="536.7524,-243.8245 527.4359,-238.7795 531.5728,-248.5332 536.7524,-243.8245"/>
</g>
<!-- Node8 -->
<g id="node9" class="node">
<title>Node8</title>
<g id="a_node9"><a xlink:href="enums_8h.html" target="_top" xlink:title="enums.h">
<polygon fill="none" stroke="#000000" points="779.8228,-55.5 779.8228,-73.5 834.1772,-73.5 834.1772,-55.5 779.8228,-55.5"/>
<text text-anchor="middle" x="807" y="-61.5" font-family="Helvetica,sans-Serif" font-size="10.00" fill="#000000">enums.h</text>
</a>
</g>
</g>
<!-- Node7&#45;&gt;Node8 -->
<g id="edge9" class="edge">
<title>Node7&#45;&gt;Node8</title>
<path fill="none" stroke="#191970" d="M563.3241,-221.517C633.1475,-208.9028 761.0862,-185.6158 763,-184 778.7219,-170.7259 794.8431,-113.5767 802.4708,-83.3745"/>
<polygon fill="#191970" stroke="#191970" points="805.8857,-84.1447 804.8803,-73.5977 799.089,-82.4697 805.8857,-84.1447"/>
</g>
<!-- Node9 -->
<g id="node10" class="node">
<title>Node9</title>
<g id="a_node10"><a xlink:href="imitatepass_8h.html" target="_top" xlink:title="imitatepass.h">
<polygon fill="none" stroke="#000000" points="809.542,-165.5 809.542,-183.5 884.458,-183.5 884.458,-165.5 809.542,-165.5"/>
<text text-anchor="middle" x="847" y="-171.5" font-family="Helvetica,sans-Serif" font-size="10.00" fill="#000000">imitatepass.h</text>
</a>
</g>
</g>
<!-- Node7&#45;&gt;Node9 -->
<g id="edge10" class="edge">
<title>Node7&#45;&gt;Node9</title>
<path fill="none" stroke="#191970" d="M563.236,-221.5095C566.2009,-220.9929 569.1431,-220.4856 572,-220 671.4074,-203.1042 696.6506,-201.2338 796,-184 797.0871,-183.8114 798.1869,-183.6192 799.2957,-183.424"/>
<polygon fill="#191970" stroke="#191970" points="800.1933,-186.8189 809.419,-181.6096 798.9584,-179.9287 800.1933,-186.8189"/>
</g>
<!-- Node10 -->
<g id="node11" class="node">
<title>Node10</title>
<g id="a_node11"><a xlink:href="pass_8h.html" target="_top" xlink:title="pass.h">
<polygon fill="none" stroke="#000000" points="436.2686,-110.5 436.2686,-128.5 481.7314,-128.5 481.7314,-110.5 436.2686,-110.5"/>
<text text-anchor="middle" x="459" y="-116.5" font-family="Helvetica,sans-Serif" font-size="10.00" fill="#000000">pass.h</text>
</a>
</g>
</g>
<!-- Node7&#45;&gt;Node10 -->
<g id="edge33" class="edge">
<title>Node7&#45;&gt;Node10</title>
<path fill="none" stroke="#191970" d="M474.7853,-221.3758C471.8153,-220.8915 468.8661,-220.4279 466,-220 399.3728,-210.053 209.7169,-234.3838 165,-184 159.3946,-177.6843 159.5044,-171.4115 165,-165 181.8596,-145.3304 352.8734,-128.5448 426.0579,-122.2041"/>
<polygon fill="#191970" stroke="#191970" points="426.4498,-125.6835 436.1157,-121.3453 425.8542,-118.7089 426.4498,-125.6835"/>
</g>
<!-- Node15 -->
<g id="node16" class="node">
<title>Node15</title>
<polygon fill="none" stroke="#bfbfbf" points="835.6602,-.5 835.6602,-18.5 888.3398,-18.5 888.3398,-.5 835.6602,-.5"/>
<text text-anchor="middle" x="862" y="-6.5" font-family="Helvetica,sans-Serif" font-size="10.00" fill="#000000">QObject</text>
</g>
<!-- Node7&#45;&gt;Node15 -->
<g id="edge41" class="edge">
<title>Node7&#45;&gt;Node15</title>
<path fill="none" stroke="#191970" d="M563.2077,-221.3277C566.1794,-220.855 569.1309,-220.4072 572,-220 647.8807,-209.2319 852.16,-227.8743 915,-184 964.6685,-149.3219 991.4898,-106.1267 959,-55 945.7368,-34.1287 920.0892,-22.6641 898.497,-16.4649"/>
<polygon fill="#191970" stroke="#191970" points="899.1673,-13.023 888.6088,-13.8993 897.4093,-19.7987 899.1673,-13.023"/>
</g>
<!-- Node19 -->
<g id="node20" class="node">
<title>Node19</title>
<polygon fill="none" stroke="#bfbfbf" points="913.7241,-55.5 913.7241,-73.5 950.2759,-73.5 950.2759,-55.5 913.7241,-55.5"/>
<text text-anchor="middle" x="932" y="-61.5" font-family="Helvetica,sans-Serif" font-size="10.00" fill="#000000">QDir</text>
</g>
<!-- Node7&#45;&gt;Node19 -->
<g id="edge38" class="edge">
<title>Node7&#45;&gt;Node19</title>
<path fill="none" stroke="#191970" d="M563.2111,-221.3514C566.182,-220.8729 569.1323,-220.4174 572,-220 643.0322,-209.6622 833.9927,-224.8728 893,-184 925.3235,-161.6103 931.4664,-111.5425 932.2696,-83.8476"/>
<polygon fill="#191970" stroke="#191970" points="935.7697,-83.8338 932.352,-73.8054 928.77,-83.7763 935.7697,-83.8338"/>
</g>
<!-- Node27 -->
<g id="node28" class="node">
<title>Node27</title>
<g id="a_node28"><a xlink:href="realpass_8h.html" target="_top" xlink:title="realpass.h">
<polygon fill="none" stroke="#000000" points="55.9312,-165.5 55.9312,-183.5 118.0688,-183.5 118.0688,-165.5 55.9312,-165.5"/>
<text text-anchor="middle" x="87" y="-171.5" font-family="Helvetica,sans-Serif" font-size="10.00" fill="#000000">realpass.h</text>
</a>
</g>
</g>
<!-- Node7&#45;&gt;Node27 -->
<g id="edge34" class="edge">
<title>Node7&#45;&gt;Node27</title>
<path fill="none" stroke="#191970" d="M474.791,-221.337C471.8196,-220.8621 468.8686,-220.4112 466,-220 318.2063,-198.8159 279.4512,-207.4497 132,-184 130.758,-183.8025 129.4985,-183.5933 128.2284,-183.3747"/>
<polygon fill="#191970" stroke="#191970" points="128.8672,-179.9335 118.3963,-181.5492 127.5893,-186.8159 128.8672,-179.9335"/>
</g>
<!-- Node28 -->
<g id="node29" class="node">
<title>Node28</title>
<polygon fill="none" stroke="#bfbfbf" points="174.1602,-165.5 174.1602,-183.5 241.8398,-183.5 241.8398,-165.5 174.1602,-165.5"/>
<text text-anchor="middle" x="208" y="-171.5" font-family="Helvetica,sans-Serif" font-size="10.00" fill="#000000">QByteArray</text>
</g>
<!-- Node7&#45;&gt;Node28 -->
<g id="edge36" class="edge">
<title>Node7&#45;&gt;Node28</title>
<path fill="none" stroke="#191970" d="M474.7603,-221.5312C471.7963,-221.0093 468.8553,-220.4949 466,-220 373.7073,-204.0022 347.812,-202.5399 252.3243,-184.1826"/>
<polygon fill="#191970" stroke="#191970" points="252.7173,-180.6938 242.2344,-182.2302 251.3874,-187.5663 252.7173,-180.6938"/>
</g>
<!-- Node29 -->
<g id="node30" class="node">
<title>Node29</title>
<polygon fill="none" stroke="#bfbfbf" points="259.813,-165.5 259.813,-183.5 354.187,-183.5 354.187,-165.5 259.813,-165.5"/>
<text text-anchor="middle" x="307" y="-171.5" font-family="Helvetica,sans-Serif" font-size="10.00" fill="#000000">QCoreApplication</text>
</g>
<!-- Node7&#45;&gt;Node29 -->
<g id="edge37" class="edge">
<title>Node7&#45;&gt;Node29</title>
<path fill="none" stroke="#191970" d="M483.9925,-220.4179C447.7496,-211.0152 391.0141,-196.2961 351.5854,-186.067"/>
<polygon fill="#191970" stroke="#191970" points="352.2656,-182.6276 341.7071,-183.5042 350.5078,-189.4033 352.2656,-182.6276"/>
</g>
<!-- Node30 -->
<g id="node31" class="node">
<title>Node30</title>
<polygon fill="none" stroke="#bfbfbf" points="372.0542,-165.5 372.0542,-183.5 411.9458,-183.5 411.9458,-165.5 372.0542,-165.5"/>
<text text-anchor="middle" x="392" y="-171.5" font-family="Helvetica,sans-Serif" font-size="10.00" fill="#000000">QFile</text>
</g>
<!-- Node7&#45;&gt;Node30 -->
<g id="edge39" class="edge">
<title>Node7&#45;&gt;Node30</title>
<path fill="none" stroke="#191970" d="M498.0285,-220.4179C477.1923,-211.3943 445.0497,-197.4743 421.615,-187.3254"/>
<polygon fill="#191970" stroke="#191970" points="422.7304,-183.9944 412.163,-183.232 419.9485,-190.4179 422.7304,-183.9944"/>
</g>
<!-- Node31 -->
<g id="node32" class="node">
<title>Node31</title>
<polygon fill="none" stroke="#bfbfbf" points="430.4385,-165.5 430.4385,-183.5 477.5615,-183.5 477.5615,-165.5 430.4385,-165.5"/>
<text text-anchor="middle" x="454" y="-171.5" font-family="Helvetica,sans-Serif" font-size="10.00" fill="#000000">QHash</text>
</g>
<!-- Node7&#45;&gt;Node31 -->
<g id="edge40" class="edge">
<title>Node7&#45;&gt;Node31</title>
<path fill="none" stroke="#191970" d="M508.2666,-220.4179C498.6334,-212.2667 484.2783,-200.1201 472.7518,-190.3669"/>
<polygon fill="#191970" stroke="#191970" points="474.8613,-187.5671 464.9666,-183.7795 470.3397,-192.9108 474.8613,-187.5671"/>
</g>
<!-- Node32 -->
<g id="node33" class="node">
<title>Node32</title>
<polygon fill="none" stroke="#bfbfbf" points="495.7144,-165.5 495.7144,-183.5 542.2856,-183.5 542.2856,-165.5 495.7144,-165.5"/>
<text text-anchor="middle" x="519" y="-171.5" font-family="Helvetica,sans-Serif" font-size="10.00" fill="#000000">QPoint</text>
</g>
<!-- Node7&#45;&gt;Node32 -->
<g id="edge42" class="edge">
<title>Node7&#45;&gt;Node32</title>
<path fill="none" stroke="#191970" d="M519,-220.4179C519,-213.2164 519,-202.8962 519,-193.8632"/>
<polygon fill="#191970" stroke="#191970" points="522.5001,-193.7794 519,-183.7795 515.5001,-193.7795 522.5001,-193.7794"/>
</g>
<!-- Node33 -->
<g id="node34" class="node">
<title>Node33</title>
<polygon fill="none" stroke="#bfbfbf" points="560.0444,-165.5 560.0444,-183.5 619.9556,-183.5 619.9556,-165.5 560.0444,-165.5"/>
<text text-anchor="middle" x="590" y="-171.5" font-family="Helvetica,sans-Serif" font-size="10.00" fill="#000000">QSettings</text>
</g>
<!-- Node7&#45;&gt;Node33 -->
<g id="edge43" class="edge">
<title>Node7&#45;&gt;Node33</title>
<path fill="none" stroke="#191970" d="M530.7242,-220.4179C541.3488,-212.1876 557.2317,-199.8839 569.8831,-190.0836"/>
<polygon fill="#191970" stroke="#191970" points="572.259,-192.6704 578.0211,-183.7795 567.9721,-187.1365 572.259,-192.6704"/>
</g>
<!-- Node34 -->
<g id="node35" class="node">
<title>Node34</title>
<polygon fill="none" stroke="#bfbfbf" points="638.3843,-165.5 638.3843,-183.5 681.6157,-183.5 681.6157,-165.5 638.3843,-165.5"/>
<text text-anchor="middle" x="660" y="-171.5" font-family="Helvetica,sans-Serif" font-size="10.00" fill="#000000">QSize</text>
</g>
<!-- Node7&#45;&gt;Node34 -->
<g id="edge44" class="edge">
<title>Node7&#45;&gt;Node34</title>
<path fill="none" stroke="#191970" d="M542.2833,-220.4179C565.865,-211.2193 602.4909,-196.9326 628.6228,-186.7394"/>
<polygon fill="#191970" stroke="#191970" points="630.0308,-189.947 638.0752,-183.0522 627.4869,-183.4256 630.0308,-189.947"/>
</g>
<!-- Node35 -->
<g id="node36" class="node">
<title>Node35</title>
<polygon fill="none" stroke="#bfbfbf" points="699.6372,-165.5 699.6372,-183.5 754.3628,-183.5 754.3628,-165.5 699.6372,-165.5"/>
<text text-anchor="middle" x="727" y="-171.5" font-family="Helvetica,sans-Serif" font-size="10.00" fill="#000000">QVariant</text>
</g>
<!-- Node7&#45;&gt;Node35 -->
<g id="edge45" class="edge">
<title>Node7&#45;&gt;Node35</title>
<path fill="none" stroke="#191970" d="M553.347,-220.4179C590.949,-210.475 651.0335,-194.5873 689.7481,-184.3503"/>
<polygon fill="#191970" stroke="#191970" points="690.8107,-187.6897 699.5837,-181.7495 689.0212,-180.9222 690.8107,-187.6897"/>
</g>
<!-- Node9&#45;&gt;Node10 -->
<g id="edge11" class="edge">
<title>Node9&#45;&gt;Node10</title>
<path fill="none" stroke="#191970" d="M809.4444,-169.1764C733.83,-158.4579 564.3268,-134.4303 492.3489,-124.2273"/>
<polygon fill="#191970" stroke="#191970" points="492.4532,-120.7072 482.061,-122.769 491.4707,-127.6379 492.4532,-120.7072"/>
</g>
<!-- Node25 -->
<g id="node26" class="node">
<title>Node25</title>
<g id="a_node26"><a xlink:href="simpletransaction_8h.html" target="_top" xlink:title="simpletransaction.h">
<polygon fill="none" stroke="#000000" points="809.9238,-110.5 809.9238,-128.5 912.0762,-128.5 912.0762,-110.5 809.9238,-110.5"/>
<text text-anchor="middle" x="861" y="-116.5" font-family="Helvetica,sans-Serif" font-size="10.00" fill="#000000">simpletransaction.h</text>
</a>
</g>
</g>
<!-- Node9&#45;&gt;Node25 -->
<g id="edge30" class="edge">
<title>Node9&#45;&gt;Node25</title>
<path fill="none" stroke="#191970" d="M849.3118,-165.4179C851.1651,-158.1372 853.8297,-147.669 856.1469,-138.5659"/>
<polygon fill="#191970" stroke="#191970" points="859.5629,-139.3338 858.638,-128.7795 852.7792,-137.607 859.5629,-139.3338"/>
</g>
<!-- Node10&#45;&gt;Node8 -->
<g id="edge15" class="edge">
<title>Node10&#45;&gt;Node8</title>
<path fill="none" stroke="#191970" d="M481.8588,-117.0649C532.1749,-111.5146 656.4281,-96.7688 769.6853,-74.0874"/>
<polygon fill="#191970" stroke="#191970" points="770.4538,-77.5028 779.558,-72.084 769.0617,-70.6426 770.4538,-77.5028"/>
</g>
<!-- Node11 -->
<g id="node12" class="node">
<title>Node11</title>
<g id="a_node12"><a xlink:href="datahelpers_8h.html" target="_top" xlink:title="datahelpers.h">
<polygon fill="none" stroke="#000000" points="457.6997,-55.5 457.6997,-73.5 534.3003,-73.5 534.3003,-55.5 457.6997,-55.5"/>
<text text-anchor="middle" x="496" y="-61.5" font-family="Helvetica,sans-Serif" font-size="10.00" fill="#000000">datahelpers.h</text>
</a>
</g>
</g>
<!-- Node10&#45;&gt;Node11 -->
<g id="edge12" class="edge">
<title>Node10&#45;&gt;Node11</title>
<path fill="none" stroke="#191970" d="M465.1098,-110.4179C470.2739,-102.7415 477.8218,-91.5217 484.1637,-82.0945"/>
<polygon fill="#191970" stroke="#191970" points="487.0797,-84.0303 489.7575,-73.7795 481.2716,-80.1231 487.0797,-84.0303"/>
</g>
<!-- Node10&#45;&gt;Node13 -->
<g id="edge26" class="edge">
<title>Node10&#45;&gt;Node13</title>
<path fill="none" stroke="#191970" d="M436.1645,-118.3743C355.3553,-114.1948 86.2134,-98.532 57,-74 43.8922,-62.9927 39.5666,-43.4353 38.2631,-28.7329"/>
<polygon fill="#191970" stroke="#191970" points="41.7545,-28.4713 37.76,-18.6583 34.7632,-28.8205 41.7545,-28.4713"/>
</g>
<!-- Node14 -->
<g id="node15" class="node">
<title>Node14</title>
<g id="a_node15"><a xlink:href="executor_8h.html" target="_top" xlink:title="executor.h">
<polygon fill="none" stroke="#000000" points="589.9263,-55.5 589.9263,-73.5 652.0737,-73.5 652.0737,-55.5 589.9263,-55.5"/>
<text text-anchor="middle" x="621" y="-61.5" font-family="Helvetica,sans-Serif" font-size="10.00" fill="#000000">executor.h</text>
</a>
</g>
</g>
<!-- Node10&#45;&gt;Node14 -->
<g id="edge16" class="edge">
<title>Node10&#45;&gt;Node14</title>
<path fill="none" stroke="#191970" d="M481.8671,-111.7365C508.6251,-102.652 553.2721,-87.494 584.7619,-76.8031"/>
<polygon fill="#191970" stroke="#191970" points="586.1402,-80.0314 594.4842,-73.5023 583.8898,-73.403 586.1402,-80.0314"/>
</g>
<!-- Node16 -->
<g id="node17" class="node">
<title>Node16</title>
<polygon fill="none" stroke="#bfbfbf" points="642.0493,-.5 642.0493,-18.5 701.9507,-18.5 701.9507,-.5 642.0493,-.5"/>
<text text-anchor="middle" x="672" y="-6.5" font-family="Helvetica,sans-Serif" font-size="10.00" fill="#000000">QProcess</text>
</g>
<!-- Node10&#45;&gt;Node16 -->
<g id="edge23" class="edge">
<title>Node10&#45;&gt;Node16</title>
<path fill="none" stroke="#191970" d="M481.9965,-117.4924C529.6057,-112.8511 636.5678,-99.7532 661,-74 672.2278,-62.1651 674.3202,-43.3107 673.9934,-29.0367"/>
<polygon fill="#191970" stroke="#191970" points="677.4696,-28.5501 673.3409,-18.7928 670.4837,-28.9951 677.4696,-28.5501"/>
</g>
<!-- Node17 -->
<g id="node18" class="node">
<title>Node17</title>
<polygon fill="none" stroke="#bfbfbf" points="562.0986,-.5 562.0986,-18.5 615.9014,-18.5 615.9014,-.5 562.0986,-.5"/>
<text text-anchor="middle" x="589" y="-6.5" font-family="Helvetica,sans-Serif" font-size="10.00" fill="#000000">QQueue</text>
</g>
<!-- Node10&#45;&gt;Node17 -->
<g id="edge24" class="edge">
<title>Node10&#45;&gt;Node17</title>
<path fill="none" stroke="#191970" d="M481.7821,-110.5598C499.7472,-102.7524 524.7327,-90.1465 543,-74 558.0715,-60.6782 570.9357,-41.5267 579.1957,-27.5542"/>
<polygon fill="#191970" stroke="#191970" points="582.2483,-29.2665 584.1492,-18.8436 576.1633,-25.8062 582.2483,-29.2665"/>
</g>
<!-- Node18 -->
<g id="node19" class="node">
<title>Node18</title>
<polygon fill="none" stroke="#bfbfbf" points="708.377,-55.5 708.377,-73.5 761.623,-73.5 761.623,-55.5 708.377,-55.5"/>
<text text-anchor="middle" x="735" y="-61.5" font-family="Helvetica,sans-Serif" font-size="10.00" fill="#000000">QDebug</text>
</g>
<!-- Node10&#45;&gt;Node18 -->
<g id="edge20" class="edge">
<title>Node10&#45;&gt;Node18</title>
<path fill="none" stroke="#191970" d="M481.7413,-115.3818C523.7606,-107.7092 616.3625,-90.5048 694,-74 695.4294,-73.6961 696.8857,-73.3818 698.3559,-73.0604"/>
<polygon fill="#191970" stroke="#191970" points="699.1304,-76.4737 708.1249,-70.8747 697.602,-69.6426 699.1304,-76.4737"/>
</g>
<!-- Node10&#45;&gt;Node19 -->
<g id="edge21" class="edge">
<title>Node10&#45;&gt;Node19</title>
<path fill="none" stroke="#191970" d="M482.0488,-119.0638C547.202,-117.4312 738.2111,-109.8864 903.7181,-73.8189"/>
<polygon fill="#191970" stroke="#191970" points="904.5741,-77.2141 913.5774,-71.6293 903.0564,-70.3806 904.5741,-77.2141"/>
</g>
<!-- Node20 -->
<g id="node21" class="node">
<title>Node20</title>
<polygon fill="none" stroke="#bfbfbf" points="66.3301,-55.5 66.3301,-73.5 105.6699,-73.5 105.6699,-55.5 66.3301,-55.5"/>
<text text-anchor="middle" x="86" y="-61.5" font-family="Helvetica,sans-Serif" font-size="10.00" fill="#000000">QList</text>
</g>
<!-- Node10&#45;&gt;Node20 -->
<g id="edge22" class="edge">
<title>Node10&#45;&gt;Node20</title>
<path fill="none" stroke="#191970" d="M436.2037,-117.9504C382.0879,-113.964 241.6137,-101.8082 115.6459,-73.7577"/>
<polygon fill="#191970" stroke="#191970" points="116.3584,-70.3305 105.832,-71.5329 114.8107,-77.1573 116.3584,-70.3305"/>
</g>
<!-- Node21 -->
<g id="node22" class="node">
<title>Node21</title>
<polygon fill="none" stroke="#bfbfbf" points="123.6997,-55.5 123.6997,-73.5 230.3003,-73.5 230.3003,-55.5 123.6997,-55.5"/>
<text text-anchor="middle" x="177" y="-61.5" font-family="Helvetica,sans-Serif" font-size="10.00" fill="#000000">QRandomGenerator</text>
</g>
<!-- Node10&#45;&gt;Node21 -->
<g id="edge25" class="edge">
<title>Node10&#45;&gt;Node21</title>
<path fill="none" stroke="#191970" d="M435.9228,-114.9991C391.9992,-106.4325 295.2403,-87.5611 233.2432,-75.4694"/>
<polygon fill="#191970" stroke="#191970" points="233.7125,-71.9951 223.2274,-73.516 232.3724,-78.8656 233.7125,-71.9951"/>
</g>
<!-- Node22 -->
<g id="node23" class="node">
<title>Node22</title>
<polygon fill="none" stroke="#bfbfbf" points="248.4878,-55.5 248.4878,-73.5 319.5122,-73.5 319.5122,-55.5 248.4878,-55.5"/>
<text text-anchor="middle" x="284" y="-61.5" font-family="Helvetica,sans-Serif" font-size="10.00" fill="#000000">QTextCodec</text>
</g>
<!-- Node10&#45;&gt;Node22 -->
<g id="edge27" class="edge">
<title>Node10&#45;&gt;Node22</title>
<path fill="none" stroke="#191970" d="M436.1218,-112.3097C407.2829,-103.2461 357.2838,-87.532 322.5125,-76.6039"/>
<polygon fill="#191970" stroke="#191970" points="323.285,-73.178 312.6956,-73.5186 321.1861,-79.8559 323.285,-73.178"/>
</g>
<!-- Node23 -->
<g id="node24" class="node">
<title>Node23</title>
<polygon fill="none" stroke="#bfbfbf" points="337.8843,-55.5 337.8843,-73.5 386.1157,-73.5 386.1157,-55.5 337.8843,-55.5"/>
<text text-anchor="middle" x="362" y="-61.5" font-family="Helvetica,sans-Serif" font-size="10.00" fill="#000000">cassert</text>
</g>
<!-- Node10&#45;&gt;Node23 -->
<g id="edge28" class="edge">
<title>Node10&#45;&gt;Node23</title>
<path fill="none" stroke="#191970" d="M442.9824,-110.4179C427.8181,-101.8195 404.8129,-88.7754 387.1925,-78.7844"/>
<polygon fill="#191970" stroke="#191970" points="388.4667,-75.4834 378.0414,-73.5956 385.014,-81.5727 388.4667,-75.4834"/>
</g>
<!-- Node24 -->
<g id="node25" class="node">
<title>Node24</title>
<polygon fill="none" stroke="#bfbfbf" points="404.2734,-55.5 404.2734,-73.5 439.7266,-73.5 439.7266,-55.5 404.2734,-55.5"/>
<text text-anchor="middle" x="422" y="-61.5" font-family="Helvetica,sans-Serif" font-size="10.00" fill="#000000">map</text>
</g>
<!-- Node10&#45;&gt;Node24 -->
<g id="edge29" class="edge">
<title>Node10&#45;&gt;Node24</title>
<path fill="none" stroke="#191970" d="M452.8902,-110.4179C447.7261,-102.7415 440.1782,-91.5217 433.8363,-82.0945"/>
<polygon fill="#191970" stroke="#191970" points="436.7284,-80.1231 428.2425,-73.7795 430.9203,-84.0303 436.7284,-80.1231"/>
</g>
<!-- Node12 -->
<g id="node13" class="node">
<title>Node12</title>
<polygon fill="none" stroke="#bfbfbf" points="462.6216,-.5 462.6216,-18.5 529.3784,-18.5 529.3784,-.5 462.6216,-.5"/>
<text text-anchor="middle" x="496" y="-6.5" font-family="Helvetica,sans-Serif" font-size="10.00" fill="#000000">QDateTime</text>
</g>
<!-- Node11&#45;&gt;Node12 -->
<g id="edge13" class="edge">
<title>Node11&#45;&gt;Node12</title>
<path fill="none" stroke="#191970" d="M496,-55.4179C496,-48.2164 496,-37.8962 496,-28.8632"/>
<polygon fill="#191970" stroke="#191970" points="499.5001,-28.7794 496,-18.7795 492.5001,-28.7795 499.5001,-28.7794"/>
</g>
<!-- Node11&#45;&gt;Node13 -->
<g id="edge14" class="edge">
<title>Node11&#45;&gt;Node13</title>
<path fill="none" stroke="#191970" d="M457.576,-56.443C454.6793,-55.9247 451.7965,-55.4365 449,-55 310.6913,-33.4103 144.632,-18.3123 73.3371,-12.3423"/>
<polygon fill="#191970" stroke="#191970" points="73.3782,-8.8338 63.1232,-11.4954 72.7998,-15.8098 73.3782,-8.8338"/>
</g>
<!-- Node14&#45;&gt;Node15 -->
<g id="edge17" class="edge">
<title>Node14&#45;&gt;Node15</title>
<path fill="none" stroke="#191970" d="M652.5065,-57.3097C697.0819,-47.1369 778.3665,-28.5865 825.5084,-17.828"/>
<polygon fill="#191970" stroke="#191970" points="826.3355,-21.2293 835.3061,-15.592 824.778,-14.4047 826.3355,-21.2293"/>
</g>
<!-- Node14&#45;&gt;Node16 -->
<g id="edge18" class="edge">
<title>Node14&#45;&gt;Node16</title>
<path fill="none" stroke="#191970" d="M629.4216,-55.4179C636.7598,-47.5041 647.5902,-35.8243 656.4913,-26.2251"/>
<polygon fill="#191970" stroke="#191970" points="659.1624,-28.492 663.3954,-18.7795 654.0295,-23.7324 659.1624,-28.492"/>
</g>
<!-- Node14&#45;&gt;Node17 -->
<g id="edge19" class="edge">
<title>Node14&#45;&gt;Node17</title>
<path fill="none" stroke="#191970" d="M615.7159,-55.4179C611.3417,-47.8998 604.99,-36.9829 599.5774,-27.6799"/>
<polygon fill="#191970" stroke="#191970" points="602.4532,-25.6628 594.399,-18.7795 596.4027,-29.1831 602.4532,-25.6628"/>
</g>
<!-- Node25&#45;&gt;Node8 -->
<g id="edge31" class="edge">
<title>Node25&#45;&gt;Node8</title>
<path fill="none" stroke="#191970" d="M852.083,-110.4179C844.2354,-102.425 832.616,-90.5903 823.1389,-80.9377"/>
<polygon fill="#191970" stroke="#191970" points="825.6142,-78.463 816.1107,-73.7795 820.6192,-83.3672 825.6142,-78.463"/>
</g>
<!-- Node26 -->
<g id="node27" class="node">
<title>Node26</title>
<polygon fill="none" stroke="#bfbfbf" points="852.0962,-55.5 852.0962,-73.5 895.9038,-73.5 895.9038,-55.5 852.0962,-55.5"/>
<text text-anchor="middle" x="874" y="-61.5" font-family="Helvetica,sans-Serif" font-size="10.00" fill="#000000">queue</text>
</g>
<!-- Node25&#45;&gt;Node26 -->
<g id="edge32" class="edge">
<title>Node25&#45;&gt;Node26</title>
<path fill="none" stroke="#191970" d="M863.1467,-110.4179C864.8676,-103.1372 867.3419,-92.669 869.4935,-83.5659"/>
<polygon fill="#191970" stroke="#191970" points="872.9125,-84.3164 871.8067,-73.7795 866.1002,-82.7062 872.9125,-84.3164"/>
</g>
<!-- Node27&#45;&gt;Node10 -->
<g id="edge35" class="edge">
<title>Node27&#45;&gt;Node10</title>
<path fill="none" stroke="#191970" d="M118.4171,-167.5755C122.9645,-166.6583 127.5954,-165.7704 132,-165 238.8363,-146.3135 366.3908,-130.3926 425.6664,-123.3582"/>
<polygon fill="#191970" stroke="#191970" points="426.3981,-126.7963 435.9195,-122.1495 425.5785,-119.8444 426.3981,-126.7963"/>
</g>
</g>
</svg>
