<?xml version="1.0" encoding="UTF-8" standalone="no"?>
<!DOCTYPE svg PUBLIC "-//W3C//DTD SVG 1.1//EN"
 "http://www.w3.org/Graphics/SVG/1.1/DTD/svg11.dtd">
<!-- Generated by graphviz version 2.40.1 (20161225.0304)
 -->
<!-- Title: src/util.cpp Pages: 1 -->
<svg width="1503pt" height="302pt"
 viewBox="0.00 0.00 1503.47 302.00" xmlns="http://www.w3.org/2000/svg" xmlns:xlink="http://www.w3.org/1999/xlink">
<g id="graph0" class="graph" transform="scale(1 1) rotate(0) translate(4 298)">
<title>src/util.cpp</title>
<!-- Node0 -->
<g id="node1" class="node">
<title>Node0</title>
<polygon fill="#bfbfbf" stroke="#000000" points="864.6724,-275.5 864.6724,-293.5 928.4653,-293.5 928.4653,-275.5 864.6724,-275.5"/>
<text text-anchor="middle" x="896.5688" y="-281.5" font-family="Helvetica,sans-Serif" font-size="10.00" fill="#000000">src/util.cpp</text>
</g>
<!-- Node1 -->
<g id="node2" class="node">
<title>Node1</title>
<g id="a_node2"><a xlink:href="util_8h.html" target="_top" xlink:title="util.h">
<polygon fill="none" stroke="#000000" points="208.0073,-220.5 208.0073,-238.5 245.1304,-238.5 245.1304,-220.5 208.0073,-220.5"/>
<text text-anchor="middle" x="226.5688" y="-226.5" font-family="Helvetica,sans-Serif" font-size="10.00" fill="#000000">util.h</text>
</a>
</g>
</g>
<!-- Node0&#45;&gt;Node1 -->
<g id="edge1" class="edge">
<title>Node0&#45;&gt;Node1</title>
<path fill="none" stroke="#191970" d="M864.2534,-281.8472C749.7724,-272.4495 364.5557,-240.8273 255.5363,-231.8779"/>
<polygon fill="#191970" stroke="#191970" points="255.5563,-228.3679 245.3035,-231.0379 254.9836,-235.3444 255.5563,-228.3679"/>
</g>
<!-- Node7 -->
<g id="node8" class="node">
<title>Node7</title>
<g id="a_node8"><a xlink:href="debughelper_8h.html" target="_top" xlink:title="debughelper.h">
<polygon fill="none" stroke="#000000" points="818.8696,-220.5 818.8696,-238.5 898.2681,-238.5 898.2681,-220.5 818.8696,-220.5"/>
<text text-anchor="middle" x="858.5688" y="-226.5" font-family="Helvetica,sans-Serif" font-size="10.00" fill="#000000">debughelper.h</text>
</a>
</g>
</g>
<!-- Node0&#45;&gt;Node7 -->
<g id="edge8" class="edge">
<title>Node0&#45;&gt;Node7</title>
<path fill="none" stroke="#191970" d="M890.2939,-275.4179C884.9903,-267.7415 877.2384,-256.5217 870.725,-247.0945"/>
<polygon fill="#191970" stroke="#191970" points="873.544,-245.0173 864.9801,-238.7795 867.7849,-248.9963 873.544,-245.0173"/>
</g>
<!-- Node9 -->
<g id="node10" class="node">
<title>Node9</title>
<polygon fill="none" stroke="#bfbfbf" points="916.293,-220.5 916.293,-238.5 952.8447,-238.5 952.8447,-220.5 916.293,-220.5"/>
<text text-anchor="middle" x="934.5688" y="-226.5" font-family="Helvetica,sans-Serif" font-size="10.00" fill="#000000">QDir</text>
</g>
<!-- Node0&#45;&gt;Node9 -->
<g id="edge10" class="edge">
<title>Node0&#45;&gt;Node9</title>
<path fill="none" stroke="#191970" d="M902.8438,-275.4179C908.1474,-267.7415 915.8993,-256.5217 922.4127,-247.0945"/>
<polygon fill="#191970" stroke="#191970" points="925.3528,-248.9963 928.1576,-238.7795 919.5937,-245.0173 925.3528,-248.9963"/>
</g>
<!-- Node10 -->
<g id="node11" class="node">
<title>Node10</title>
<polygon fill="none" stroke="#bfbfbf" points="971.2832,-220.5 971.2832,-238.5 1027.8545,-238.5 1027.8545,-220.5 971.2832,-220.5"/>
<text text-anchor="middle" x="999.5688" y="-226.5" font-family="Helvetica,sans-Serif" font-size="10.00" fill="#000000">QFileInfo</text>
</g>
<!-- Node0&#45;&gt;Node10 -->
<g id="edge11" class="edge">
<title>Node0&#45;&gt;Node10</title>
<path fill="none" stroke="#191970" d="M913.5772,-275.4179C929.9032,-266.7001 954.7878,-253.4122 973.5943,-243.3699"/>
<polygon fill="#191970" stroke="#191970" points="975.3627,-246.3934 982.5352,-238.5956 972.0654,-240.2186 975.3627,-246.3934"/>
</g>
<!-- Node11 -->
<g id="node12" class="node">
<title>Node11</title>
<polygon fill="none" stroke="#bfbfbf" points="1046.064,-220.5 1046.064,-238.5 1107.0737,-238.5 1107.0737,-220.5 1046.064,-220.5"/>
<text text-anchor="middle" x="1076.5688" y="-226.5" font-family="Helvetica,sans-Serif" font-size="10.00" fill="#000000">sys/time.h</text>
</g>
<!-- Node0&#45;&gt;Node11 -->
<g id="edge12" class="edge">
<title>Node0&#45;&gt;Node11</title>
<path fill="none" stroke="#191970" d="M926.2922,-275.4179C956.6071,-266.155 1003.8081,-251.7325 1037.211,-241.526"/>
<polygon fill="#191970" stroke="#191970" points="1038.5598,-244.7737 1047.1005,-238.5042 1036.5142,-238.0792 1038.5598,-244.7737"/>
</g>
<!-- Node12 -->
<g id="node13" class="node">
<title>Node12</title>
<g id="a_node13"><a xlink:href="qtpasssettings_8h.html" target="_top" xlink:title="qtpasssettings.h">
<polygon fill="none" stroke="#000000" points="712.436,-220.5 712.436,-238.5 800.7017,-238.5 800.7017,-220.5 712.436,-220.5"/>
<text text-anchor="middle" x="756.5688" y="-226.5" font-family="Helvetica,sans-Serif" font-size="10.00" fill="#000000">qtpasssettings.h</text>
</a>
</g>
</g>
<!-- Node0&#45;&gt;Node12 -->
<g id="edge13" class="edge">
<title>Node0&#45;&gt;Node12</title>
<path fill="none" stroke="#191970" d="M873.4507,-275.4179C850.4494,-266.3817 814.9496,-252.4353 789.1068,-242.2828"/>
<polygon fill="#191970" stroke="#191970" points="790.3087,-238.9946 779.7213,-238.5956 787.7491,-245.5098 790.3087,-238.9946"/>
</g>
<!-- Node2 -->
<g id="node3" class="node">
<title>Node2</title>
<g id="a_node3"><a xlink:href="storemodel_8h.html" target="_top" xlink:title="storemodel.h">
<polygon fill="none" stroke="#000000" points="21.665,-165.5 21.665,-183.5 95.4727,-183.5 95.4727,-165.5 21.665,-165.5"/>
<text text-anchor="middle" x="58.5688" y="-171.5" font-family="Helvetica,sans-Serif" font-size="10.00" fill="#000000">storemodel.h</text>
</a>
</g>
</g>
<!-- Node1&#45;&gt;Node2 -->
<g id="edge2" class="edge">
<title>Node1&#45;&gt;Node2</title>
<path fill="none" stroke="#191970" d="M207.9404,-224.7153C179.5111,-216.3661 125.5383,-198.8861 90.7552,-186.9203"/>
<polygon fill="#191970" stroke="#191970" points="91.6534,-183.5272 81.0586,-183.552 89.3565,-190.1396 91.6534,-183.5272"/>
</g>
<!-- Node4 -->
<g id="node5" class="node">
<title>Node4</title>
<polygon fill="none" stroke="#bfbfbf" points="113.335,-165.5 113.335,-183.5 213.8027,-183.5 213.8027,-165.5 113.335,-165.5"/>
<text text-anchor="middle" x="163.5688" y="-171.5" font-family="Helvetica,sans-Serif" font-size="10.00" fill="#000000">QFileSystemModel</text>
</g>
<!-- Node1&#45;&gt;Node4 -->
<g id="edge5" class="edge">
<title>Node1&#45;&gt;Node4</title>
<path fill="none" stroke="#191970" d="M216.1657,-220.4179C206.8289,-212.2667 192.9155,-200.1201 181.7437,-190.3669"/>
<polygon fill="#191970" stroke="#191970" points="184.0331,-187.7194 174.198,-183.7795 179.4294,-192.9927 184.0331,-187.7194"/>
</g>
<!-- Node5 -->
<g id="node6" class="node">
<title>Node5</title>
<polygon fill="none" stroke="#bfbfbf" points="231.5493,-165.5 231.5493,-183.5 347.5884,-183.5 347.5884,-165.5 231.5493,-165.5"/>
<text text-anchor="middle" x="289.5688" y="-171.5" font-family="Helvetica,sans-Serif" font-size="10.00" fill="#000000">QProcessEnvironment</text>
</g>
<!-- Node1&#45;&gt;Node5 -->
<g id="edge6" class="edge">
<title>Node1&#45;&gt;Node5</title>
<path fill="none" stroke="#191970" d="M236.972,-220.4179C246.3088,-212.2667 260.2221,-200.1201 271.394,-190.3669"/>
<polygon fill="#191970" stroke="#191970" points="273.7083,-192.9927 278.9397,-183.7795 269.1046,-187.7194 273.7083,-192.9927"/>
</g>
<!-- Node6 -->
<g id="node7" class="node">
<title>Node6</title>
<polygon fill="none" stroke="#bfbfbf" points="770.6182,-.5 770.6182,-18.5 820.5195,-18.5 820.5195,-.5 770.6182,-.5"/>
<text text-anchor="middle" x="795.5688" y="-6.5" font-family="Helvetica,sans-Serif" font-size="10.00" fill="#000000">QString</text>
</g>
<!-- Node1&#45;&gt;Node6 -->
<g id="edge7" class="edge">
<title>Node1&#45;&gt;Node6</title>
<path fill="none" stroke="#191970" d="M245.3214,-223.6465C270.8061,-215.5315 317.6609,-200.041 356.5688,-184 427.1433,-154.9036 441.0446,-139.218 511.5688,-110 599.8591,-73.4215 706.799,-37.8592 760.7853,-20.4977"/>
<polygon fill="#191970" stroke="#191970" points="762.0883,-23.7556 770.5444,-17.3723 759.9533,-17.0891 762.0883,-23.7556"/>
</g>
<!-- Node2&#45;&gt;Node1 -->
<g id="edge3" class="edge">
<title>Node2&#45;&gt;Node1</title>
<path fill="none" stroke="#191970" d="M91.2165,-183.5023C122.2761,-193.0198 168.3172,-208.0483 197.9729,-218.3189"/>
<polygon fill="#191970" stroke="#191970" points="197.1329,-221.7332 207.7278,-221.7365 199.4475,-215.1269 197.1329,-221.7332"/>
</g>
<!-- Node3 -->
<g id="node4" class="node">
<title>Node3</title>
<polygon fill="none" stroke="#bfbfbf" points="0,-110.5 0,-128.5 117.1377,-128.5 117.1377,-110.5 0,-110.5"/>
<text text-anchor="middle" x="58.5688" y="-116.5" font-family="Helvetica,sans-Serif" font-size="10.00" fill="#000000">QSortFilterProxyModel</text>
</g>
<!-- Node2&#45;&gt;Node3 -->
<g id="edge4" class="edge">
<title>Node2&#45;&gt;Node3</title>
<path fill="none" stroke="#191970" d="M58.5688,-165.4179C58.5688,-158.2164 58.5688,-147.8962 58.5688,-138.8632"/>
<polygon fill="#191970" stroke="#191970" points="62.0689,-138.7794 58.5688,-128.7795 55.0689,-138.7795 62.0689,-138.7794"/>
</g>
<!-- Node8 -->
<g id="node9" class="node">
<title>Node8</title>
<polygon fill="none" stroke="#bfbfbf" points="1124.9458,-165.5 1124.9458,-183.5 1178.1919,-183.5 1178.1919,-165.5 1124.9458,-165.5"/>
<text text-anchor="middle" x="1151.5688" y="-171.5" font-family="Helvetica,sans-Serif" font-size="10.00" fill="#000000">QDebug</text>
</g>
<!-- Node7&#45;&gt;Node8 -->
<g id="edge9" class="edge">
<title>Node7&#45;&gt;Node8</title>
<path fill="none" stroke="#191970" d="M898.4021,-221.7077C901.5025,-221.1225 904.5858,-220.5473 907.5688,-220 996.7837,-203.6328 1022.2312,-203.9467 1115.0843,-183.948"/>
<polygon fill="#191970" stroke="#191970" points="1115.8672,-187.3596 1124.8948,-181.8142 1114.3794,-180.5196 1115.8672,-187.3596"/>
</g>
<!-- Node13 -->
<g id="node14" class="node">
<title>Node13</title>
<g id="a_node14"><a xlink:href="enums_8h.html" target="_top" xlink:title="enums.h">
<polygon fill="none" stroke="#000000" points="885.3916,-55.5 885.3916,-73.5 939.7461,-73.5 939.7461,-55.5 885.3916,-55.5"/>
<text text-anchor="middle" x="912.5688" y="-61.5" font-family="Helvetica,sans-Serif" font-size="10.00" fill="#000000">enums.h</text>
</a>
</g>
</g>
<!-- Node12&#45;&gt;Node13 -->
<g id="edge14" class="edge">
<title>Node12&#45;&gt;Node13</title>
<path fill="none" stroke="#191970" d="M800.8303,-222.169C825.5722,-215.9249 855.2275,-204.5411 874.5688,-184 900.9593,-155.9725 909.0225,-109.6473 911.4857,-83.6756"/>
<polygon fill="#191970" stroke="#191970" points="914.9829,-83.8449 912.2526,-73.6079 908.0031,-83.3132 914.9829,-83.8449"/>
</g>
<!-- Node14 -->
<g id="node15" class="node">
<title>Node14</title>
<g id="a_node15"><a xlink:href="imitatepass_8h.html" target="_top" xlink:title="imitatepass.h">
<polygon fill="none" stroke="#000000" points="951.1108,-165.5 951.1108,-183.5 1026.0269,-183.5 1026.0269,-165.5 951.1108,-165.5"/>
<text text-anchor="middle" x="988.5688" y="-171.5" font-family="Helvetica,sans-Serif" font-size="10.00" fill="#000000">imitatepass.h</text>
</a>
</g>
</g>
<!-- Node12&#45;&gt;Node14 -->
<g id="edge15" class="edge">
<title>Node12&#45;&gt;Node14</title>
<path fill="none" stroke="#191970" d="M794.6191,-220.4795C834.6907,-210.9797 897.8602,-196.0042 941.1491,-185.7418"/>
<polygon fill="#191970" stroke="#191970" points="941.9599,-189.1466 950.8828,-183.4342 940.3451,-182.3354 941.9599,-189.1466"/>
</g>
<!-- Node27 -->
<g id="node28" class="node">
<title>Node27</title>
<g id="a_node28"><a xlink:href="passwordconfiguration_8h.html" target="_top" xlink:title="passwordconfiguration.h">
<polygon fill="none" stroke="#000000" points="520.3696,-110.5 520.3696,-128.5 644.7681,-128.5 644.7681,-110.5 520.3696,-110.5"/>
<text text-anchor="middle" x="582.5688" y="-116.5" font-family="Helvetica,sans-Serif" font-size="10.00" fill="#000000">passwordconfiguration.h</text>
</a>
</g>
</g>
<!-- Node12&#45;&gt;Node27 -->
<g id="edge34" class="edge">
<title>Node12&#45;&gt;Node27</title>
<path fill="none" stroke="#191970" d="M712.2685,-226.4688C627.8463,-220.2398 450.667,-204.8173 432.5688,-184 405.0633,-152.3619 459.3978,-135.7525 510.1942,-127.3663"/>
<polygon fill="#191970" stroke="#191970" points="510.9381,-130.7928 520.281,-125.7967 509.8617,-123.876 510.9381,-130.7928"/>
</g>
<!-- Node28 -->
<g id="node29" class="node">
<title>Node28</title>
<g id="a_node29"><a xlink:href="realpass_8h.html" target="_top" xlink:title="realpass.h">
<polygon fill="none" stroke="#000000" points="1044.5,-165.5 1044.5,-183.5 1106.6377,-183.5 1106.6377,-165.5 1044.5,-165.5"/>
<text text-anchor="middle" x="1075.5688" y="-171.5" font-family="Helvetica,sans-Serif" font-size="10.00" fill="#000000">realpass.h</text>
</a>
</g>
</g>
<!-- Node12&#45;&gt;Node28 -->
<g id="edge36" class="edge">
<title>Node12&#45;&gt;Node28</title>
<path fill="none" stroke="#191970" d="M800.8044,-221.5072C803.7694,-220.9911 806.7118,-220.4846 809.5688,-220 906.2946,-203.5946 933.4979,-203.4349 1034.2888,-183.9336"/>
<polygon fill="#191970" stroke="#191970" points="1035.1326,-187.335 1044.2773,-181.9848 1033.7921,-180.4646 1035.1326,-187.335"/>
</g>
<!-- Node29 -->
<g id="node30" class="node">
<title>Node29</title>
<g id="a_node30"><a xlink:href="settingsconstants_8h.html" target="_top" xlink:title="settingsconstants.h">
<polygon fill="none" stroke="#000000" points="763.7661,-110.5 763.7661,-128.5 865.3716,-128.5 865.3716,-110.5 763.7661,-110.5"/>
<text text-anchor="middle" x="814.5688" y="-116.5" font-family="Helvetica,sans-Serif" font-size="10.00" fill="#000000">settingsconstants.h</text>
</a>
</g>
</g>
<!-- Node12&#45;&gt;Node29 -->
<g id="edge38" class="edge">
<title>Node12&#45;&gt;Node29</title>
<path fill="none" stroke="#191970" d="M800.7216,-221.6544C822.3506,-215.3457 846.4969,-204.0651 859.5688,-184 870.7392,-166.8539 853.4064,-147.6767 837.1161,-134.7235"/>
<polygon fill="#191970" stroke="#191970" points="838.9582,-131.7312 828.8489,-128.5608 834.7746,-137.3435 838.9582,-131.7312"/>
</g>
<!-- Node30 -->
<g id="node31" class="node">
<title>Node30</title>
<polygon fill="none" stroke="#bfbfbf" points="441.729,-165.5 441.729,-183.5 509.4087,-183.5 509.4087,-165.5 441.729,-165.5"/>
<text text-anchor="middle" x="475.5688" y="-171.5" font-family="Helvetica,sans-Serif" font-size="10.00" fill="#000000">QByteArray</text>
</g>
<!-- Node12&#45;&gt;Node30 -->
<g id="edge40" class="edge">
<title>Node12&#45;&gt;Node30</title>
<path fill="none" stroke="#191970" d="M712.4291,-221.5657C666.4614,-213.1981 592.1181,-199.3731 519.2731,-184.3098"/>
<polygon fill="#191970" stroke="#191970" points="519.976,-180.8812 509.4731,-182.2737 518.5521,-187.7348 519.976,-180.8812"/>
</g>
<!-- Node31 -->
<g id="node32" class="node">
<title>Node31</title>
<polygon fill="none" stroke="#bfbfbf" points="527.0073,-165.5 527.0073,-183.5 574.1304,-183.5 574.1304,-165.5 527.0073,-165.5"/>
<text text-anchor="middle" x="550.5688" y="-171.5" font-family="Helvetica,sans-Serif" font-size="10.00" fill="#000000">QHash</text>
</g>
<!-- Node12&#45;&gt;Node31 -->
<g id="edge41" class="edge">
<title>Node12&#45;&gt;Node31</title>
<path fill="none" stroke="#191970" d="M721.0522,-220.4149C688.0866,-211.9257 637.4037,-198.7306 584.2862,-184.1525"/>
<polygon fill="#191970" stroke="#191970" points="584.9137,-180.6951 574.3434,-181.4152 583.0556,-187.4441 584.9137,-180.6951"/>
</g>
<!-- Node32 -->
<g id="node33" class="node">
<title>Node32</title>
<polygon fill="none" stroke="#bfbfbf" points="592.2832,-165.5 592.2832,-183.5 638.8545,-183.5 638.8545,-165.5 592.2832,-165.5"/>
<text text-anchor="middle" x="615.5688" y="-171.5" font-family="Helvetica,sans-Serif" font-size="10.00" fill="#000000">QPoint</text>
</g>
<!-- Node12&#45;&gt;Node32 -->
<g id="edge42" class="edge">
<title>Node12&#45;&gt;Node32</title>
<path fill="none" stroke="#191970" d="M733.2856,-220.4179C710.12,-211.3817 674.3666,-197.4353 648.3392,-187.2828"/>
<polygon fill="#191970" stroke="#191970" points="649.475,-183.969 638.8867,-183.5956 646.9311,-190.4904 649.475,-183.969"/>
</g>
<!-- Node33 -->
<g id="node34" class="node">
<title>Node33</title>
<polygon fill="none" stroke="#bfbfbf" points="656.6133,-165.5 656.6133,-183.5 716.5244,-183.5 716.5244,-165.5 656.6133,-165.5"/>
<text text-anchor="middle" x="686.5688" y="-171.5" font-family="Helvetica,sans-Serif" font-size="10.00" fill="#000000">QSettings</text>
</g>
<!-- Node12&#45;&gt;Node33 -->
<g id="edge43" class="edge">
<title>Node12&#45;&gt;Node33</title>
<path fill="none" stroke="#191970" d="M745.0098,-220.4179C734.5349,-212.1876 718.8756,-199.8839 706.4025,-190.0836"/>
<polygon fill="#191970" stroke="#191970" points="708.4047,-187.2056 698.3791,-183.7795 704.0799,-192.7098 708.4047,-187.2056"/>
</g>
<!-- Node34 -->
<g id="node35" class="node">
<title>Node34</title>
<polygon fill="none" stroke="#bfbfbf" points="734.9531,-165.5 734.9531,-183.5 778.1846,-183.5 778.1846,-165.5 734.9531,-165.5"/>
<text text-anchor="middle" x="756.5688" y="-171.5" font-family="Helvetica,sans-Serif" font-size="10.00" fill="#000000">QSize</text>
</g>
<!-- Node12&#45;&gt;Node34 -->
<g id="edge44" class="edge">
<title>Node12&#45;&gt;Node34</title>
<path fill="none" stroke="#191970" d="M756.5688,-220.4179C756.5688,-213.2164 756.5688,-202.8962 756.5688,-193.8632"/>
<polygon fill="#191970" stroke="#191970" points="760.0689,-193.7794 756.5688,-183.7795 753.0689,-193.7795 760.0689,-193.7794"/>
</g>
<!-- Node35 -->
<g id="node36" class="node">
<title>Node35</title>
<polygon fill="none" stroke="#bfbfbf" points="796.2061,-165.5 796.2061,-183.5 850.9316,-183.5 850.9316,-165.5 796.2061,-165.5"/>
<text text-anchor="middle" x="823.5688" y="-171.5" font-family="Helvetica,sans-Serif" font-size="10.00" fill="#000000">QVariant</text>
</g>
<!-- Node12&#45;&gt;Node35 -->
<g id="edge45" class="edge">
<title>Node12&#45;&gt;Node35</title>
<path fill="none" stroke="#191970" d="M767.6325,-220.4179C777.5621,-212.2667 792.3589,-200.1201 804.24,-190.3669"/>
<polygon fill="#191970" stroke="#191970" points="806.7562,-192.8297 812.2648,-183.7795 802.3147,-187.4192 806.7562,-192.8297"/>
</g>
<!-- Node15 -->
<g id="node16" class="node">
<title>Node15</title>
<g id="a_node16"><a xlink:href="pass_8h.html" target="_top" xlink:title="pass.h">
<polygon fill="none" stroke="#000000" points="1060.8374,-110.5 1060.8374,-128.5 1106.3003,-128.5 1106.3003,-110.5 1060.8374,-110.5"/>
<text text-anchor="middle" x="1083.5688" y="-116.5" font-family="Helvetica,sans-Serif" font-size="10.00" fill="#000000">pass.h</text>
</a>
</g>
</g>
<!-- Node14&#45;&gt;Node15 -->
<g id="edge16" class="edge">
<title>Node14&#45;&gt;Node15</title>
<path fill="none" stroke="#191970" d="M1004.2562,-165.4179C1019.1078,-156.8195 1041.6386,-143.7754 1058.8958,-133.7844"/>
<polygon fill="#191970" stroke="#191970" points="1060.9576,-136.635 1067.8582,-128.5956 1057.4503,-130.577 1060.9576,-136.635"/>
</g>
<!-- Node25 -->
<g id="node26" class="node">
<title>Node25</title>
<g id="a_node26"><a xlink:href="simpletransaction_8h.html" target="_top" xlink:title="simpletransaction.h">
<polygon fill="none" stroke="#000000" points="940.4927,-110.5 940.4927,-128.5 1042.645,-128.5 1042.645,-110.5 940.4927,-110.5"/>
<text text-anchor="middle" x="991.5688" y="-116.5" font-family="Helvetica,sans-Serif" font-size="10.00" fill="#000000">simpletransaction.h</text>
</a>
</g>
</g>
<!-- Node14&#45;&gt;Node25 -->
<g id="edge31" class="edge">
<title>Node14&#45;&gt;Node25</title>
<path fill="none" stroke="#191970" d="M989.0642,-165.4179C989.457,-158.2164 990.02,-147.8962 990.5127,-138.8632"/>
<polygon fill="#191970" stroke="#191970" points="994.0128,-138.9553 991.0627,-128.7795 987.0232,-138.574 994.0128,-138.9553"/>
</g>
<!-- Node15&#45;&gt;Node6 -->
<g id="edge27" class="edge">
<title>Node15&#45;&gt;Node6</title>
<path fill="none" stroke="#191970" d="M1063.8076,-110.4067C1044.1578,-101.3234 1013.1855,-86.8942 986.5688,-74 969.5755,-65.7677 966.1297,-61.9398 948.5688,-55 909.0894,-39.3981 862.0751,-26.1765 830.6789,-18.0727"/>
<polygon fill="#191970" stroke="#191970" points="831.2179,-14.5984 820.6637,-15.5247 829.4919,-21.3823 831.2179,-14.5984"/>
</g>
<!-- Node15&#45;&gt;Node13 -->
<g id="edge17" class="edge">
<title>Node15&#45;&gt;Node13</title>
<path fill="none" stroke="#191970" d="M1060.507,-112.0825C1032.0868,-102.9415 983.4289,-87.2913 949.7149,-76.4476"/>
<polygon fill="#191970" stroke="#191970" points="950.362,-72.9792 939.7706,-73.2491 948.2186,-79.643 950.362,-72.9792"/>
</g>
<!-- Node16 -->
<g id="node17" class="node">
<title>Node16</title>
<g id="a_node17"><a xlink:href="executor_8h.html" target="_top" xlink:title="executor.h">
<polygon fill="none" stroke="#000000" points="1362.4951,-55.5 1362.4951,-73.5 1424.6426,-73.5 1424.6426,-55.5 1362.4951,-55.5"/>
<text text-anchor="middle" x="1393.5688" y="-61.5" font-family="Helvetica,sans-Serif" font-size="10.00" fill="#000000">executor.h</text>
</a>
</g>
</g>
<!-- Node15&#45;&gt;Node16 -->
<g id="edge18" class="edge">
<title>Node15&#45;&gt;Node16</title>
<path fill="none" stroke="#191970" d="M1106.3554,-115.5298C1151.3375,-107.6817 1254.7205,-89.5913 1341.5688,-74 1345.0154,-73.3813 1348.5898,-72.7359 1352.1773,-72.0857"/>
<polygon fill="#191970" stroke="#191970" points="1353.0148,-75.4908 1362.2272,-70.258 1351.7623,-68.6038 1353.0148,-75.4908"/>
</g>
<!-- Node18 -->
<g id="node19" class="node">
<title>Node18</title>
<polygon fill="none" stroke="#bfbfbf" points="1293.6182,-.5 1293.6182,-18.5 1353.5195,-18.5 1353.5195,-.5 1293.6182,-.5"/>
<text text-anchor="middle" x="1323.5688" y="-6.5" font-family="Helvetica,sans-Serif" font-size="10.00" fill="#000000">QProcess</text>
</g>
<!-- Node15&#45;&gt;Node18 -->
<g id="edge25" class="edge">
<title>Node15&#45;&gt;Node18</title>
<path fill="none" stroke="#191970" d="M1106.6684,-117.937C1158.1267,-113.9808 1279.9118,-101.8388 1308.5688,-74 1320.4113,-62.4957 1323.6875,-43.601 1324.2816,-29.2278"/>
<polygon fill="#191970" stroke="#191970" points="1327.782,-28.9025 1324.2955,-18.8978 1320.782,-28.8931 1327.782,-28.9025"/>
</g>
<!-- Node19 -->
<g id="node20" class="node">
<title>Node19</title>
<polygon fill="none" stroke="#bfbfbf" points="1441.6675,-.5 1441.6675,-18.5 1495.4702,-18.5 1495.4702,-.5 1441.6675,-.5"/>
<text text-anchor="middle" x="1468.5688" y="-6.5" font-family="Helvetica,sans-Serif" font-size="10.00" fill="#000000">QQueue</text>
</g>
<!-- Node15&#45;&gt;Node19 -->
<g id="edge26" class="edge">
<title>Node15&#45;&gt;Node19</title>
<path fill="none" stroke="#191970" d="M1106.7761,-119.1771C1176.0985,-117.8035 1380.1414,-110.6655 1433.5688,-74 1449.1222,-63.3262 1458.3923,-43.4233 1463.4444,-28.5374"/>
<polygon fill="#191970" stroke="#191970" points="1466.8481,-29.3742 1466.4072,-18.7885 1460.1506,-27.3387 1466.8481,-29.3742"/>
</g>
<!-- Node20 -->
<g id="node21" class="node">
<title>Node20</title>
<g id="a_node21"><a xlink:href="userinfo_8h.html" target="_top" xlink:title="userinfo.h">
<polygon fill="none" stroke="#000000" points="1239.6108,-55.5 1239.6108,-73.5 1299.5269,-73.5 1299.5269,-55.5 1239.6108,-55.5"/>
<text text-anchor="middle" x="1269.5688" y="-61.5" font-family="Helvetica,sans-Serif" font-size="10.00" fill="#000000">userinfo.h</text>
</a>
</g>
</g>
<!-- Node15&#45;&gt;Node20 -->
<g id="edge22" class="edge">
<title>Node15&#45;&gt;Node20</title>
<path fill="none" stroke="#191970" d="M1106.3761,-112.7559C1137.098,-103.6715 1192.2525,-87.3624 1229.8594,-76.242"/>
<polygon fill="#191970" stroke="#191970" points="1230.8939,-79.586 1239.4909,-73.394 1228.9089,-72.8734 1230.8939,-79.586"/>
</g>
<!-- Node22 -->
<g id="node23" class="node">
<title>Node22</title>
<polygon fill="none" stroke="#bfbfbf" points="995.4531,-55.5 995.4531,-73.5 1043.6846,-73.5 1043.6846,-55.5 995.4531,-55.5"/>
<text text-anchor="middle" x="1019.5688" y="-61.5" font-family="Helvetica,sans-Serif" font-size="10.00" fill="#000000">cassert</text>
</g>
<!-- Node15&#45;&gt;Node22 -->
<g id="edge28" class="edge">
<title>Node15&#45;&gt;Node22</title>
<path fill="none" stroke="#191970" d="M1073.0005,-110.4179C1063.5156,-102.2667 1049.3814,-90.1201 1038.0322,-80.3669"/>
<polygon fill="#191970" stroke="#191970" points="1040.2322,-77.6427 1030.3668,-73.7795 1035.6698,-82.9516 1040.2322,-77.6427"/>
</g>
<!-- Node23 -->
<g id="node24" class="node">
<title>Node23</title>
<polygon fill="none" stroke="#bfbfbf" points="1061.8423,-55.5 1061.8423,-73.5 1097.2954,-73.5 1097.2954,-55.5 1061.8423,-55.5"/>
<text text-anchor="middle" x="1079.5688" y="-61.5" font-family="Helvetica,sans-Serif" font-size="10.00" fill="#000000">map</text>
</g>
<!-- Node15&#45;&gt;Node23 -->
<g id="edge29" class="edge">
<title>Node15&#45;&gt;Node23</title>
<path fill="none" stroke="#191970" d="M1082.9083,-110.4179C1082.3846,-103.2164 1081.634,-92.8962 1080.9771,-83.8632"/>
<polygon fill="#191970" stroke="#191970" points="1084.4599,-83.4992 1080.2437,-73.7795 1077.4784,-84.007 1084.4599,-83.4992"/>
</g>
<!-- Node24 -->
<g id="node25" class="node">
<title>Node24</title>
<polygon fill="none" stroke="#bfbfbf" points="1115.2686,-55.5 1115.2686,-73.5 1221.8691,-73.5 1221.8691,-55.5 1115.2686,-55.5"/>
<text text-anchor="middle" x="1168.5688" y="-61.5" font-family="Helvetica,sans-Serif" font-size="10.00" fill="#000000">QRandomGenerator</text>
</g>
<!-- Node15&#45;&gt;Node24 -->
<g id="edge30" class="edge">
<title>Node15&#45;&gt;Node24</title>
<path fill="none" stroke="#191970" d="M1097.6049,-110.4179C1110.7702,-101.8992 1130.6796,-89.0166 1146.0628,-79.0627"/>
<polygon fill="#191970" stroke="#191970" points="1148.0177,-81.9667 1154.512,-73.5956 1144.2149,-76.0897 1148.0177,-81.9667"/>
</g>
<!-- Node17 -->
<g id="node18" class="node">
<title>Node17</title>
<polygon fill="none" stroke="#bfbfbf" points="1371.229,-.5 1371.229,-18.5 1423.9087,-18.5 1423.9087,-.5 1371.229,-.5"/>
<text text-anchor="middle" x="1397.5688" y="-6.5" font-family="Helvetica,sans-Serif" font-size="10.00" fill="#000000">QObject</text>
</g>
<!-- Node16&#45;&gt;Node17 -->
<g id="edge19" class="edge">
<title>Node16&#45;&gt;Node17</title>
<path fill="none" stroke="#191970" d="M1394.2294,-55.4179C1394.7531,-48.2164 1395.5037,-37.8962 1396.1606,-28.8632"/>
<polygon fill="#191970" stroke="#191970" points="1399.6593,-29.007 1396.894,-18.7795 1392.6777,-28.4992 1399.6593,-29.007"/>
</g>
<!-- Node16&#45;&gt;Node18 -->
<g id="edge20" class="edge">
<title>Node16&#45;&gt;Node18</title>
<path fill="none" stroke="#191970" d="M1382.0098,-55.4179C1371.5349,-47.1876 1355.8756,-34.8839 1343.4025,-25.0836"/>
<polygon fill="#191970" stroke="#191970" points="1345.4047,-22.2056 1335.3791,-18.7795 1341.0799,-27.7098 1345.4047,-22.2056"/>
</g>
<!-- Node16&#45;&gt;Node19 -->
<g id="edge21" class="edge">
<title>Node16&#45;&gt;Node19</title>
<path fill="none" stroke="#191970" d="M1405.9536,-55.4179C1417.3529,-47.0584 1434.4825,-34.4966 1447.9453,-24.6239"/>
<polygon fill="#191970" stroke="#191970" points="1450.1714,-27.3317 1456.1657,-18.5956 1446.0319,-21.6869 1450.1714,-27.3317"/>
</g>
<!-- Node20&#45;&gt;Node6 -->
<g id="edge24" class="edge">
<title>Node20&#45;&gt;Node6</title>
<path fill="none" stroke="#191970" d="M1239.4194,-56.7308C1236.4402,-56.0912 1233.4528,-55.4997 1230.5688,-55 1083.3121,-29.4831 905.3581,-16.3075 830.952,-11.5795"/>
<polygon fill="#191970" stroke="#191970" points="830.9398,-8.072 820.7414,-10.9428 830.5041,-15.0585 830.9398,-8.072"/>
</g>
<!-- Node21 -->
<g id="node22" class="node">
<title>Node21</title>
<polygon fill="none" stroke="#bfbfbf" points="1209.1904,-.5 1209.1904,-18.5 1275.9473,-18.5 1275.9473,-.5 1209.1904,-.5"/>
<text text-anchor="middle" x="1242.5688" y="-6.5" font-family="Helvetica,sans-Serif" font-size="10.00" fill="#000000">QDateTime</text>
</g>
<!-- Node20&#45;&gt;Node21 -->
<g id="edge23" class="edge">
<title>Node20&#45;&gt;Node21</title>
<path fill="none" stroke="#191970" d="M1265.1103,-55.4179C1261.4585,-47.9789 1256.1731,-37.2123 1251.638,-27.9742"/>
<polygon fill="#191970" stroke="#191970" points="1254.6728,-26.2138 1247.1242,-18.7795 1248.3892,-29.2985 1254.6728,-26.2138"/>
</g>
<!-- Node25&#45;&gt;Node13 -->
<g id="edge32" class="edge">
<title>Node25&#45;&gt;Node13</title>
<path fill="none" stroke="#191970" d="M978.5236,-110.4179C966.402,-101.9788 948.1289,-89.257 933.8882,-79.3426"/>
<polygon fill="#191970" stroke="#191970" points="935.8402,-76.4369 925.6335,-73.5956 931.8406,-82.1818 935.8402,-76.4369"/>
</g>
<!-- Node26 -->
<g id="node27" class="node">
<title>Node26</title>
<polygon fill="none" stroke="#bfbfbf" points="823.665,-55.5 823.665,-73.5 867.4727,-73.5 867.4727,-55.5 823.665,-55.5"/>
<text text-anchor="middle" x="845.5688" y="-61.5" font-family="Helvetica,sans-Serif" font-size="10.00" fill="#000000">queue</text>
</g>
<!-- Node25&#45;&gt;Node26 -->
<g id="edge33" class="edge">
<title>Node25&#45;&gt;Node26</title>
<path fill="none" stroke="#191970" d="M967.4599,-110.4179C942.7901,-101.1245 904.3336,-86.6374 877.225,-76.4253"/>
<polygon fill="#191970" stroke="#191970" points="878.3896,-73.1239 867.7977,-72.8739 875.9218,-79.6745 878.3896,-73.1239"/>
</g>
<!-- Node27&#45;&gt;Node6 -->
<g id="edge35" class="edge">
<title>Node27&#45;&gt;Node6</title>
<path fill="none" stroke="#191970" d="M599.9995,-110.4982C637.2106,-91.2813 724.626,-46.1372 768.888,-23.2788"/>
<polygon fill="#191970" stroke="#191970" points="770.6182,-26.3245 777.8973,-18.6261 767.4062,-20.105 770.6182,-26.3245"/>
</g>
<!-- Node28&#45;&gt;Node15 -->
<g id="edge37" class="edge">
<title>Node28&#45;&gt;Node15</title>
<path fill="none" stroke="#191970" d="M1076.8899,-165.4179C1077.9374,-158.2164 1079.4385,-147.8962 1080.7524,-138.8632"/>
<polygon fill="#191970" stroke="#191970" points="1084.2432,-139.1791 1082.2191,-128.7795 1077.3161,-138.1715 1084.2432,-139.1791"/>
</g>
<!-- Node29&#45;&gt;Node6 -->
<g id="edge39" class="edge">
<title>Node29&#45;&gt;Node6</title>
<path fill="none" stroke="#191970" d="M813.014,-110.4982C809.9383,-92.6913 803.0173,-52.6225 798.8768,-28.6515"/>
<polygon fill="#191970" stroke="#191970" points="802.2963,-27.8845 797.1452,-18.6261 795.3984,-29.076 802.2963,-27.8845"/>
</g>
</g>
</svg>
