<?xml version="1.0" encoding="UTF-8" standalone="no"?>
<!DOCTYPE svg PUBLIC "-//W3C//DTD SVG 1.1//EN"
 "http://www.w3.org/Graphics/SVG/1.1/DTD/svg11.dtd">
<!-- Generated by graphviz version 2.40.1 (20161225.0304)
 -->
<!-- Title: src/util.cpp Pages: 1 -->
<!--zoomable 412 -->
<svg id="main" version="1.1" xmlns="http://www.w3.org/2000/svg" xmlns:xlink="http://www.w3.org/1999/xlink" xml:space="preserve" onload="init(evt)">
<style type="text/css"><![CDATA[
.edge:hover path { stroke: red; }
.edge:hover polygon { stroke: red; fill: red; }
]]></style>
<script type="text/javascript"><![CDATA[
var edges = document.getElementsByTagName('g');
if (edges && edges.length) {
  for (var i=0;i<edges.length;i++) {
    if (edges[i].id.substr(0,4)=='edge') {
      edges[i].setAttribute('class','edge');
    }
  }
}
]]></script>
        <defs>
                <circle id="rim" cx="0" cy="0" r="7"/>
                <circle id="rim2" cx="0" cy="0" r="3.5"/>
                <g id="zoomPlus">
                        <use xlink:href="#rim" fill="#404040">
                                <set attributeName="fill" to="#808080" begin="zoomplus.mouseover" end="zoomplus.mouseout"/>
                        </use>
                        <path d="M-4,0h8M0,-4v8" fill="none" stroke="white" stroke-width="1.5" pointer-events="none"/>
                </g>
                <g id="zoomMin">
                        <use xlink:href="#rim" fill="#404040">
                                <set attributeName="fill" to="#808080" begin="zoomminus.mouseover" end="zoomminus.mouseout"/>
                        </use>
                        <path d="M-4,0h8" fill="none" stroke="white" stroke-width="1.5" pointer-events="none"/>
                </g>
                <g id="dirArrow">
                        <path fill="none" stroke="white" stroke-width="1.5" d="M0,-3.0v7 M-2.5,-0.5L0,-3.0L2.5,-0.5"/>
                </g>
               <g id="resetDef">
                       <use xlink:href="#rim2" fill="#404040">
                               <set attributeName="fill" to="#808080" begin="reset.mouseover" end="reset.mouseout"/>
                       </use>
               </g>
        </defs>

<script type="text/javascript">
var viewWidth = 1741;
var viewHeight = 412;
var sectionId = 'dynsection-0';
</script>
<script xlink:href="svgpan.js"/>
<svg id="graph" class="graph">
<g id="viewport">
<title>src/util.cpp</title>
<!-- Node0 -->
<g id="node1" class="node">
<title>Node0</title>
<polygon fill="#bfbfbf" stroke="#000000" points="1234.4762,-385.5 1234.4762,-403.5 1298.2692,-403.5 1298.2692,-385.5 1234.4762,-385.5"/>
<text text-anchor="middle" x="1266.3727" y="-391.5" font-family="Helvetica,sans-Serif" font-size="10.00" fill="#000000">src/util.cpp</text>
</g>
<!-- Node1 -->
<g id="node2" class="node">
<title>Node1</title>
<g id="a_node2"><a xlink:href="util_8h.html" target="_top" xlink:title="util.h">
<polygon fill="none" stroke="#000000" points="1276.8112,-330.5 1276.8112,-348.5 1313.9342,-348.5 1313.9342,-330.5 1276.8112,-330.5"/>
<text text-anchor="middle" x="1295.3727" y="-336.5" font-family="Helvetica,sans-Serif" font-size="10.00" fill="#000000">util.h</text>
</a>
</g>
</g>
<!-- Node0&#45;&gt;Node1 -->
<g id="edge1" class="edge">
<title>Node0&#45;&gt;Node1</title>
<path fill="none" stroke="#191970" d="M1271.1615,-385.4179C1275.1255,-377.8998 1280.8817,-366.9829 1285.787,-357.6799"/>
<polygon fill="#191970" stroke="#191970" points="1288.9117,-359.2576 1290.4799,-348.7795 1282.7198,-355.9927 1288.9117,-359.2576"/>
</g>
<!-- Node2 -->
<g id="node3" class="node">
<title>Node2</title>
<polygon fill="none" stroke="#bfbfbf" points="1124.3532,-275.5 1124.3532,-293.5 1240.3922,-293.5 1240.3922,-275.5 1124.3532,-275.5"/>
<text text-anchor="middle" x="1182.3727" y="-281.5" font-family="Helvetica,sans-Serif" font-size="10.00" fill="#000000">QProcessEnvironment</text>
</g>
<!-- Node0&#45;&gt;Node2 -->
<g id="edge47" class="edge">
<title>Node0&#45;&gt;Node2</title>
<path fill="none" stroke="#191970" d="M1259.4986,-385.4982C1245.5314,-367.2079 1213.6286,-325.4304 1195.5343,-301.7354"/>
<polygon fill="#191970" stroke="#191970" points="1198.1926,-299.4496 1189.3418,-293.6261 1192.6292,-303.6981 1198.1926,-299.4496"/>
</g>
<!-- Node3 -->
<g id="node4" class="node">
<title>Node3</title>
<polygon fill="none" stroke="#bfbfbf" points="1143.422,-.5 1143.422,-18.5 1193.3234,-18.5 1193.3234,-.5 1143.422,-.5"/>
<text text-anchor="middle" x="1168.3727" y="-6.5" font-family="Helvetica,sans-Serif" font-size="10.00" fill="#000000">QString</text>
</g>
<!-- Node0&#45;&gt;Node3 -->
<g id="edge48" class="edge">
<title>Node0&#45;&gt;Node3</title>
<path fill="none" stroke="#191970" d="M1298.5121,-389.8387C1376.4929,-377.629 1569.3727,-341.6526 1569.3727,-284.5 1569.3727,-284.5 1569.3727,-284.5 1569.3727,-119.5 1569.3727,-43.9276 1301.1485,-18.3922 1203.4376,-11.5971"/>
<polygon fill="#191970" stroke="#191970" points="1203.6689,-8.1049 1193.457,-10.9275 1203.2003,-15.0892 1203.6689,-8.1049"/>
</g>
<!-- Node10 -->
<g id="node11" class="node">
<title>Node10</title>
<g id="a_node11"><a xlink:href="qtpasssettings_8h.html" target="_top" xlink:title="qtpasssettings.h">
<polygon fill="none" stroke="#000000" points="478.2399,-220.5 478.2399,-238.5 566.5055,-238.5 566.5055,-220.5 478.2399,-220.5"/>
<text text-anchor="middle" x="522.3727" y="-226.5" font-family="Helvetica,sans-Serif" font-size="10.00" fill="#000000">qtpasssettings.h</text>
</a>
</g>
</g>
<!-- Node0&#45;&gt;Node10 -->
<g id="edge50" class="edge">
<title>Node0&#45;&gt;Node10</title>
<path fill="none" stroke="#191970" d="M1234.0876,-392.3807C1170.4243,-387.7766 1024.4497,-375.1098 904.3727,-349 772.6162,-320.3506 621.1301,-266.4776 555.5187,-242.0776"/>
<polygon fill="#191970" stroke="#191970" points="556.7,-238.7827 546.1075,-238.5604 554.2493,-245.3398 556.7,-238.7827"/>
</g>
<!-- Node13 -->
<g id="node14" class="node">
<title>Node13</title>
<polygon fill="none" stroke="#bfbfbf" points="891.0968,-55.5 891.0968,-73.5 927.6486,-73.5 927.6486,-55.5 891.0968,-55.5"/>
<text text-anchor="middle" x="909.3727" y="-61.5" font-family="Helvetica,sans-Serif" font-size="10.00" fill="#000000">QDir</text>
</g>
<!-- Node0&#45;&gt;Node13 -->
<g id="edge45" class="edge">
<title>Node0&#45;&gt;Node13</title>
<path fill="none" stroke="#191970" d="M1234.3912,-391.2128C1172.4277,-384.5026 1038.4133,-368.2271 996.3727,-349 955.4641,-330.2906 918.3727,-329.4839 918.3727,-284.5 918.3727,-284.5 918.3727,-284.5 918.3727,-174.5 918.3727,-142.519 914.547,-105.4816 911.8842,-83.5754"/>
<polygon fill="#191970" stroke="#191970" points="915.3505,-83.0882 910.6241,-73.6061 908.4058,-83.966 915.3505,-83.0882"/>
</g>
<!-- Node32 -->
<g id="node33" class="node">
<title>Node32</title>
<g id="a_node33"><a xlink:href="debughelper_8h.html" target="_top" xlink:title="debughelper.h">
<polygon fill="none" stroke="#000000" points="946.6735,-110.5 946.6735,-128.5 1026.0719,-128.5 1026.0719,-110.5 946.6735,-110.5"/>
<text text-anchor="middle" x="986.3727" y="-116.5" font-family="Helvetica,sans-Serif" font-size="10.00" fill="#000000">debughelper.h</text>
</a>
</g>
</g>
<!-- Node0&#45;&gt;Node32 -->
<g id="edge43" class="edge">
<title>Node0&#45;&gt;Node32</title>
<path fill="none" stroke="#191970" d="M1234.3649,-390.1118C1155.1604,-378.3601 956.3727,-343.0349 956.3727,-284.5 956.3727,-284.5 956.3727,-284.5 956.3727,-229.5 956.3727,-196.3284 969.2278,-159.4498 978.1081,-137.9315"/>
<polygon fill="#191970" stroke="#191970" points="981.3486,-139.2554 982.0744,-128.6855 974.9155,-136.4957 981.3486,-139.2554"/>
</g>
<!-- Node33 -->
<g id="node34" class="node">
<title>Node33</title>
<polygon fill="none" stroke="#bfbfbf" points="1597.0871,-330.5 1597.0871,-348.5 1653.6583,-348.5 1653.6583,-330.5 1597.0871,-330.5"/>
<text text-anchor="middle" x="1625.3727" y="-336.5" font-family="Helvetica,sans-Serif" font-size="10.00" fill="#000000">QFileInfo</text>
</g>
<!-- Node0&#45;&gt;Node33 -->
<g id="edge46" class="edge">
<title>Node0&#45;&gt;Node33</title>
<path fill="none" stroke="#191970" d="M1298.4572,-390.7553C1355.845,-383.866 1479.7629,-368.1219 1583.3727,-349 1584.6133,-348.771 1585.8728,-348.531 1587.1434,-348.2823"/>
<polygon fill="#191970" stroke="#191970" points="1587.8871,-351.7026 1596.9696,-346.2475 1586.4676,-344.8481 1587.8871,-351.7026"/>
</g>
<!-- Node34 -->
<g id="node35" class="node">
<title>Node34</title>
<polygon fill="none" stroke="#bfbfbf" points="1671.8678,-330.5 1671.8678,-348.5 1732.8776,-348.5 1732.8776,-330.5 1671.8678,-330.5"/>
<text text-anchor="middle" x="1702.3727" y="-336.5" font-family="Helvetica,sans-Serif" font-size="10.00" fill="#000000">sys/time.h</text>
</g>
<!-- Node0&#45;&gt;Node34 -->
<g id="edge49" class="edge">
<title>Node0&#45;&gt;Node34</title>
<path fill="none" stroke="#191970" d="M1298.3826,-392.12C1364.3934,-386.9344 1520.5502,-373.2357 1661.331,-348.9938"/>
<polygon fill="#191970" stroke="#191970" points="1662.1897,-352.3969 1671.4392,-347.2301 1660.9864,-345.5011 1662.1897,-352.3969"/>
</g>
<!-- Node1&#45;&gt;Node2 -->
<g id="edge2" class="edge">
<title>Node1&#45;&gt;Node2</title>
<path fill="none" stroke="#191970" d="M1276.713,-330.4179C1258.6385,-321.6205 1231.0019,-308.1691 1210.3055,-298.0956"/>
<polygon fill="#191970" stroke="#191970" points="1211.5833,-294.825 1201.0601,-293.5956 1208.5198,-301.1191 1211.5833,-294.825"/>
</g>
<!-- Node1&#45;&gt;Node3 -->
<g id="edge3" class="edge">
<title>Node1&#45;&gt;Node3</title>
<path fill="none" stroke="#191970" d="M1314.2866,-335.0175C1370.2885,-321.2008 1531.3727,-277.3035 1531.3727,-229.5 1531.3727,-229.5 1531.3727,-229.5 1531.3727,-119.5 1531.3727,-51.4856 1295.0173,-21.6125 1203.7454,-12.6121"/>
<polygon fill="#191970" stroke="#191970" points="1203.8984,-9.1109 1193.61,-11.6402 1203.2301,-16.0789 1203.8984,-9.1109"/>
</g>
<!-- Node4 -->
<g id="node5" class="node">
<title>Node4</title>
<polygon fill="none" stroke="#bfbfbf" points="1403.1388,-220.5 1403.1388,-238.5 1503.6066,-238.5 1503.6066,-220.5 1403.1388,-220.5"/>
<text text-anchor="middle" x="1453.3727" y="-226.5" font-family="Helvetica,sans-Serif" font-size="10.00" fill="#000000">QFileSystemModel</text>
</g>
<!-- Node1&#45;&gt;Node4 -->
<g id="edge4" class="edge">
<title>Node1&#45;&gt;Node4</title>
<path fill="none" stroke="#191970" d="M1308.3025,-330.4982C1335.3842,-311.6439 1398.3147,-267.8315 1431.6891,-244.5962"/>
<polygon fill="#191970" stroke="#191970" points="1434.0571,-247.2123 1440.2642,-238.6261 1430.0575,-241.4674 1434.0571,-247.2123"/>
</g>
<!-- Node5 -->
<g id="node6" class="node">
<title>Node5</title>
<g id="a_node6"><a xlink:href="storemodel_8h.html" target="_top" xlink:title="storemodel.h">
<polygon fill="none" stroke="#000000" points="1258.4689,-275.5 1258.4689,-293.5 1332.2765,-293.5 1332.2765,-275.5 1258.4689,-275.5"/>
<text text-anchor="middle" x="1295.3727" y="-281.5" font-family="Helvetica,sans-Serif" font-size="10.00" fill="#000000">storemodel.h</text>
</a>
</g>
</g>
<!-- Node1&#45;&gt;Node5 -->
<g id="edge5" class="edge">
<title>Node1&#45;&gt;Node5</title>
<path fill="none" stroke="#191970" d="M1290.2064,-330.4179C1288.7148,-323.2164 1288.2769,-312.8962 1288.8925,-303.8632"/>
<polygon fill="#191970" stroke="#191970" points="1292.3853,-304.1392 1290.1659,-293.7795 1285.4405,-303.2621 1292.3853,-304.1392"/>
</g>
<!-- Node5&#45;&gt;Node1 -->
<g id="edge10" class="edge">
<title>Node5&#45;&gt;Node1</title>
<path fill="none" stroke="#191970" d="M1300.5795,-293.7795C1302.0518,-301.0373 1302.4706,-311.3738 1301.8359,-320.383"/>
<polygon fill="#191970" stroke="#191970" points="1298.3496,-320.0517 1300.539,-330.4179 1305.2919,-320.949 1298.3496,-320.0517"/>
</g>
<!-- Node5&#45;&gt;Node4 -->
<g id="edge6" class="edge">
<title>Node5&#45;&gt;Node4</title>
<path fill="none" stroke="#191970" d="M1321.4632,-275.4179C1347.7289,-266.2748 1388.4359,-252.1046 1417.6818,-241.924"/>
<polygon fill="#191970" stroke="#191970" points="1419.2125,-245.0973 1427.5061,-238.5042 1416.9112,-238.4863 1419.2125,-245.0973"/>
</g>
<!-- Node6 -->
<g id="node7" class="node">
<title>Node6</title>
<polygon fill="none" stroke="#bfbfbf" points="984.6955,-220.5 984.6955,-238.5 1044.0499,-238.5 1044.0499,-220.5 984.6955,-220.5"/>
<text text-anchor="middle" x="1014.3727" y="-226.5" font-family="Helvetica,sans-Serif" font-size="10.00" fill="#000000">QRegExp</text>
</g>
<!-- Node5&#45;&gt;Node6 -->
<g id="edge7" class="edge">
<title>Node5&#45;&gt;Node6</title>
<path fill="none" stroke="#191970" d="M1258.2303,-276.7532C1255.2351,-276.1517 1252.2543,-275.5608 1249.3727,-275 1165.163,-258.6124 1141.0897,-257.8392 1054.2396,-239.3098"/>
<polygon fill="#191970" stroke="#191970" points="1054.7137,-235.8318 1044.2011,-237.1494 1053.2408,-242.6751 1054.7137,-235.8318"/>
</g>
<!-- Node7 -->
<g id="node8" class="node">
<title>Node7</title>
<polygon fill="none" stroke="#bfbfbf" points="1061.8038,-220.5 1061.8038,-238.5 1178.9415,-238.5 1178.9415,-220.5 1061.8038,-220.5"/>
<text text-anchor="middle" x="1120.3727" y="-226.5" font-family="Helvetica,sans-Serif" font-size="10.00" fill="#000000">QSortFilterProxyModel</text>
</g>
<!-- Node5&#45;&gt;Node7 -->
<g id="edge8" class="edge">
<title>Node5&#45;&gt;Node7</title>
<path fill="none" stroke="#191970" d="M1266.475,-275.4179C1237.0022,-266.155 1191.1123,-251.7325 1158.6372,-241.526"/>
<polygon fill="#191970" stroke="#191970" points="1159.6118,-238.1636 1149.0225,-238.5042 1157.513,-244.8415 1159.6118,-238.1636"/>
</g>
<!-- Node8 -->
<g id="node9" class="node">
<title>Node8</title>
<polygon fill="none" stroke="#bfbfbf" points="1197.0231,-220.5 1197.0231,-238.5 1289.7223,-238.5 1289.7223,-220.5 1197.0231,-220.5"/>
<text text-anchor="middle" x="1243.3727" y="-226.5" font-family="Helvetica,sans-Serif" font-size="10.00" fill="#000000">QStringListModel</text>
</g>
<!-- Node5&#45;&gt;Node8 -->
<g id="edge9" class="edge">
<title>Node5&#45;&gt;Node8</title>
<path fill="none" stroke="#191970" d="M1286.786,-275.4179C1279.3039,-267.5041 1268.2611,-255.8243 1259.1855,-246.2251"/>
<polygon fill="#191970" stroke="#191970" points="1261.5594,-243.6414 1252.146,-238.7795 1256.4729,-248.4505 1261.5594,-243.6414"/>
</g>
<!-- Node9 -->
<g id="node10" class="node">
<title>Node9</title>
<polygon fill="none" stroke="#bfbfbf" points="1307.8063,-220.5 1307.8063,-238.5 1384.9391,-238.5 1384.9391,-220.5 1307.8063,-220.5"/>
<text text-anchor="middle" x="1346.3727" y="-226.5" font-family="Helvetica,sans-Serif" font-size="10.00" fill="#000000">QDataStream</text>
</g>
<!-- Node5&#45;&gt;Node9 -->
<g id="edge11" class="edge">
<title>Node5&#45;&gt;Node9</title>
<path fill="none" stroke="#191970" d="M1303.7943,-275.4179C1311.1325,-267.5041 1321.9629,-255.8243 1330.864,-246.2251"/>
<polygon fill="#191970" stroke="#191970" points="1333.5351,-248.492 1337.7681,-238.7795 1328.4022,-243.7324 1333.5351,-248.492"/>
</g>
<!-- Node5&#45;&gt;Node10 -->
<g id="edge12" class="edge">
<title>Node5&#45;&gt;Node10</title>
<path fill="none" stroke="#191970" d="M1258.2925,-276.3738C1255.2834,-275.8574 1252.2824,-275.3895 1249.3727,-275 999.6945,-241.5749 698.4091,-232.6184 576.9941,-230.2894"/>
<polygon fill="#191970" stroke="#191970" points="576.9049,-226.7872 566.842,-230.1022 576.7758,-233.7861 576.9049,-226.7872"/>
</g>
<!-- Node11 -->
<g id="node12" class="node">
<title>Node11</title>
<polygon fill="none" stroke="#bfbfbf" points="141.5329,-165.5 141.5329,-183.5 209.2125,-183.5 209.2125,-165.5 141.5329,-165.5"/>
<text text-anchor="middle" x="175.3727" y="-171.5" font-family="Helvetica,sans-Serif" font-size="10.00" fill="#000000">QByteArray</text>
</g>
<!-- Node10&#45;&gt;Node11 -->
<g id="edge13" class="edge">
<title>Node10&#45;&gt;Node11</title>
<path fill="none" stroke="#191970" d="M478.1633,-223.8549C420.8223,-216.3188 317.4864,-202.0104 219.655,-184.1379"/>
<polygon fill="#191970" stroke="#191970" points="220.0657,-180.6547 209.5969,-182.284 218.7968,-187.5388 220.0657,-180.6547"/>
</g>
<!-- Node12 -->
<g id="node13" class="node">
<title>Node12</title>
<polygon fill="none" stroke="#bfbfbf" points="227.1857,-165.5 227.1857,-183.5 321.5597,-183.5 321.5597,-165.5 227.1857,-165.5"/>
<text text-anchor="middle" x="274.3727" y="-171.5" font-family="Helvetica,sans-Serif" font-size="10.00" fill="#000000">QCoreApplication</text>
</g>
<!-- Node10&#45;&gt;Node12 -->
<g id="edge14" class="edge">
<title>Node10&#45;&gt;Node12</title>
<path fill="none" stroke="#191970" d="M481.6982,-220.4795C438.8108,-210.9681 371.1721,-195.9676 324.8933,-185.7042"/>
<polygon fill="#191970" stroke="#191970" points="325.59,-182.2737 315.0694,-183.5255 324.0743,-189.1077 325.59,-182.2737"/>
</g>
<!-- Node10&#45;&gt;Node13 -->
<g id="edge15" class="edge">
<title>Node10&#45;&gt;Node13</title>
<path fill="none" stroke="#191970" d="M566.7569,-228.0827C644.2782,-224.8269 800.3034,-214.5718 844.3727,-184 879.3356,-159.7455 897.2817,-110.4378 904.8454,-83.3568"/>
<polygon fill="#191970" stroke="#191970" points="908.2653,-84.112 907.3978,-73.5528 901.4912,-82.3484 908.2653,-84.112"/>
</g>
<!-- Node14 -->
<g id="node15" class="node">
<title>Node14</title>
<polygon fill="none" stroke="#bfbfbf" points="339.4269,-165.5 339.4269,-183.5 379.3185,-183.5 379.3185,-165.5 339.4269,-165.5"/>
<text text-anchor="middle" x="359.3727" y="-171.5" font-family="Helvetica,sans-Serif" font-size="10.00" fill="#000000">QFile</text>
</g>
<!-- Node10&#45;&gt;Node14 -->
<g id="edge16" class="edge">
<title>Node10&#45;&gt;Node14</title>
<path fill="none" stroke="#191970" d="M495.4566,-220.4179C466.2104,-210.5495 419.6087,-194.825 389.25,-184.5813"/>
<polygon fill="#191970" stroke="#191970" points="390.2198,-181.2147 379.6256,-181.3338 387.9818,-187.8473 390.2198,-181.2147"/>
</g>
<!-- Node15 -->
<g id="node16" class="node">
<title>Node15</title>
<polygon fill="none" stroke="#bfbfbf" points="397.8112,-165.5 397.8112,-183.5 444.9342,-183.5 444.9342,-165.5 397.8112,-165.5"/>
<text text-anchor="middle" x="421.3727" y="-171.5" font-family="Helvetica,sans-Serif" font-size="10.00" fill="#000000">QHash</text>
</g>
<!-- Node10&#45;&gt;Node15 -->
<g id="edge17" class="edge">
<title>Node10&#45;&gt;Node15</title>
<path fill="none" stroke="#191970" d="M505.6946,-220.4179C489.7587,-211.7399 465.5068,-198.5334 447.0959,-188.5077"/>
<polygon fill="#191970" stroke="#191970" points="448.5317,-185.3043 438.0756,-183.5956 445.184,-191.4519 448.5317,-185.3043"/>
</g>
<!-- Node16 -->
<g id="node17" class="node">
<title>Node16</title>
<polygon fill="none" stroke="#bfbfbf" points="184.0329,-.5 184.0329,-18.5 236.7125,-18.5 236.7125,-.5 184.0329,-.5"/>
<text text-anchor="middle" x="210.3727" y="-6.5" font-family="Helvetica,sans-Serif" font-size="10.00" fill="#000000">QObject</text>
</g>
<!-- Node10&#45;&gt;Node16 -->
<g id="edge18" class="edge">
<title>Node10&#45;&gt;Node16</title>
<path fill="none" stroke="#191970" d="M477.919,-228.8695C359.8669,-226.7371 45.3703,-217.8981 14.3727,-184 -46.4106,-117.5292 103.583,-49.6532 175.0513,-22.1857"/>
<polygon fill="#191970" stroke="#191970" points="176.4679,-25.392 184.5845,-18.5824 173.9929,-18.8441 176.4679,-25.392"/>
</g>
<!-- Node17 -->
<g id="node18" class="node">
<title>Node17</title>
<polygon fill="none" stroke="#bfbfbf" points="463.0871,-165.5 463.0871,-183.5 509.6583,-183.5 509.6583,-165.5 463.0871,-165.5"/>
<text text-anchor="middle" x="486.3727" y="-171.5" font-family="Helvetica,sans-Serif" font-size="10.00" fill="#000000">QPoint</text>
</g>
<!-- Node10&#45;&gt;Node17 -->
<g id="edge19" class="edge">
<title>Node10&#45;&gt;Node17</title>
<path fill="none" stroke="#191970" d="M516.428,-220.4179C511.4553,-212.8207 504.2108,-201.7527 498.0803,-192.3866"/>
<polygon fill="#191970" stroke="#191970" points="500.8516,-190.2297 492.4465,-183.7795 494.9947,-194.0633 500.8516,-190.2297"/>
</g>
<!-- Node18 -->
<g id="node19" class="node">
<title>Node18</title>
<polygon fill="none" stroke="#bfbfbf" points="527.4171,-165.5 527.4171,-183.5 587.3283,-183.5 587.3283,-165.5 527.4171,-165.5"/>
<text text-anchor="middle" x="557.3727" y="-171.5" font-family="Helvetica,sans-Serif" font-size="10.00" fill="#000000">QSettings</text>
</g>
<!-- Node10&#45;&gt;Node18 -->
<g id="edge20" class="edge">
<title>Node10&#45;&gt;Node18</title>
<path fill="none" stroke="#191970" d="M528.1522,-220.4179C532.9868,-212.8207 540.0301,-201.7527 545.9903,-192.3866"/>
<polygon fill="#191970" stroke="#191970" points="549.0516,-194.0952 551.4676,-183.7795 543.146,-190.337 549.0516,-194.0952"/>
</g>
<!-- Node19 -->
<g id="node20" class="node">
<title>Node19</title>
<polygon fill="none" stroke="#bfbfbf" points="605.757,-165.5 605.757,-183.5 648.9884,-183.5 648.9884,-165.5 605.757,-165.5"/>
<text text-anchor="middle" x="627.3727" y="-171.5" font-family="Helvetica,sans-Serif" font-size="10.00" fill="#000000">QSize</text>
</g>
<!-- Node10&#45;&gt;Node19 -->
<g id="edge21" class="edge">
<title>Node10&#45;&gt;Node19</title>
<path fill="none" stroke="#191970" d="M539.7113,-220.4179C556.3543,-211.7001 581.7222,-198.4122 600.8938,-188.3699"/>
<polygon fill="#191970" stroke="#191970" points="602.774,-191.3362 610.0083,-183.5956 599.526,-185.1353 602.774,-191.3362"/>
</g>
<!-- Node20 -->
<g id="node21" class="node">
<title>Node20</title>
<polygon fill="none" stroke="#bfbfbf" points="667.0099,-165.5 667.0099,-183.5 721.7355,-183.5 721.7355,-165.5 667.0099,-165.5"/>
<text text-anchor="middle" x="694.3727" y="-171.5" font-family="Helvetica,sans-Serif" font-size="10.00" fill="#000000">QVariant</text>
</g>
<!-- Node10&#45;&gt;Node20 -->
<g id="edge22" class="edge">
<title>Node10&#45;&gt;Node20</title>
<path fill="none" stroke="#191970" d="M550.775,-220.4179C579.7899,-211.1398 624.9932,-196.6853 656.9205,-186.476"/>
<polygon fill="#191970" stroke="#191970" points="658.3238,-189.7019 666.7827,-183.3224 656.1917,-183.0345 658.3238,-189.7019"/>
</g>
<!-- Node21 -->
<g id="node22" class="node">
<title>Node21</title>
<g id="a_node22"><a xlink:href="pass_8h.html" target="_top" xlink:title="pass.h">
<polygon fill="none" stroke="#000000" points="664.6413,-110.5 664.6413,-128.5 710.1041,-128.5 710.1041,-110.5 664.6413,-110.5"/>
<text text-anchor="middle" x="687.3727" y="-116.5" font-family="Helvetica,sans-Serif" font-size="10.00" fill="#000000">pass.h</text>
</a>
</g>
</g>
<!-- Node10&#45;&gt;Node21 -->
<g id="edge23" class="edge">
<title>Node10&#45;&gt;Node21</title>
<path fill="none" stroke="#191970" d="M478.1692,-227.593C380.8877,-222.9429 155.0625,-209.4908 132.3727,-184 126.7582,-177.6924 126.6507,-171.2103 132.3727,-165 150.1599,-145.6949 537.3455,-126.3923 654.2462,-120.9871"/>
<polygon fill="#191970" stroke="#191970" points="654.5558,-124.4766 664.3848,-120.5219 654.2349,-117.484 654.5558,-124.4766"/>
</g>
<!-- Node24 -->
<g id="node25" class="node">
<title>Node24</title>
<g id="a_node25"><a xlink:href="enums_8h.html" target="_top" xlink:title="enums.h">
<polygon fill="none" stroke="#000000" points="819.1955,-55.5 819.1955,-73.5 873.5499,-73.5 873.5499,-55.5 819.1955,-55.5"/>
<text text-anchor="middle" x="846.3727" y="-61.5" font-family="Helvetica,sans-Serif" font-size="10.00" fill="#000000">enums.h</text>
</a>
</g>
</g>
<!-- Node10&#45;&gt;Node24 -->
<g id="edge42" class="edge">
<title>Node10&#45;&gt;Node24</title>
<path fill="none" stroke="#191970" d="M566.5921,-225.6286C645.7463,-218.2936 805.1261,-201.5289 823.3727,-184 850.5688,-157.8736 851.0212,-110.0829 848.8027,-83.5415"/>
<polygon fill="#191970" stroke="#191970" points="852.2833,-83.1727 847.7585,-73.5927 845.3215,-83.9034 852.2833,-83.1727"/>
</g>
<!-- Node30 -->
<g id="node31" class="node">
<title>Node30</title>
<g id="a_node31"><a xlink:href="realpass_8h.html" target="_top" xlink:title="realpass.h">
<polygon fill="none" stroke="#000000" points="23.3038,-165.5 23.3038,-183.5 85.4415,-183.5 85.4415,-165.5 23.3038,-165.5"/>
<text text-anchor="middle" x="54.3727" y="-171.5" font-family="Helvetica,sans-Serif" font-size="10.00" fill="#000000">realpass.h</text>
</a>
</g>
</g>
<!-- Node10&#45;&gt;Node30 -->
<g id="edge38" class="edge">
<title>Node10&#45;&gt;Node30</title>
<path fill="none" stroke="#191970" d="M478.0279,-226.2119C400.7897,-220.1548 236.693,-205.8233 99.3727,-184 98.1307,-183.8026 96.8712,-183.5936 95.601,-183.375"/>
<polygon fill="#191970" stroke="#191970" points="96.2397,-179.9339 85.7689,-181.5501 94.9622,-186.8163 96.2397,-179.9339"/>
</g>
<!-- Node31 -->
<g id="node32" class="node">
<title>Node31</title>
<g id="a_node32"><a xlink:href="imitatepass_8h.html" target="_top" xlink:title="imitatepass.h">
<polygon fill="none" stroke="#000000" points="739.9147,-165.5 739.9147,-183.5 814.8307,-183.5 814.8307,-165.5 739.9147,-165.5"/>
<text text-anchor="middle" x="777.3727" y="-171.5" font-family="Helvetica,sans-Serif" font-size="10.00" fill="#000000">imitatepass.h</text>
</a>
</g>
</g>
<!-- Node10&#45;&gt;Node31 -->
<g id="edge40" class="edge">
<title>Node10&#45;&gt;Node31</title>
<path fill="none" stroke="#191970" d="M564.1952,-220.4795C609.6095,-210.6842 682.0158,-195.0672 729.6275,-184.798"/>
<polygon fill="#191970" stroke="#191970" points="730.6498,-188.158 739.6871,-182.6283 729.1739,-181.3154 730.6498,-188.158"/>
</g>
<!-- Node21&#45;&gt;Node3 -->
<g id="edge37" class="edge">
<title>Node21&#45;&gt;Node3</title>
<path fill="none" stroke="#191970" d="M704.5403,-110.2915C737.0345,-92.8907 804.7948,-56.7542 810.3727,-55 870.0948,-36.2182 1054.7495,-19.0316 1132.8791,-12.3959"/>
<polygon fill="#191970" stroke="#191970" points="1133.5008,-15.856 1143.1724,-11.5305 1132.9143,-8.8807 1133.5008,-15.856"/>
</g>
<!-- Node21&#45;&gt;Node13 -->
<g id="edge33" class="edge">
<title>Node21&#45;&gt;Node13</title>
<path fill="none" stroke="#191970" d="M710.3986,-114.9771C745.3741,-107.9261 814.1223,-93.3601 881.016,-74.1738"/>
<polygon fill="#191970" stroke="#191970" points="882.2425,-77.4623 890.8679,-71.3099 880.2884,-70.7405 882.2425,-77.4623"/>
</g>
<!-- Node22 -->
<g id="node23" class="node">
<title>Node22</title>
<g id="a_node23"><a xlink:href="datahelpers_8h.html" target="_top" xlink:title="datahelpers.h">
<polygon fill="none" stroke="#000000" points="687.0724,-55.5 687.0724,-73.5 763.673,-73.5 763.673,-55.5 687.0724,-55.5"/>
<text text-anchor="middle" x="725.3727" y="-61.5" font-family="Helvetica,sans-Serif" font-size="10.00" fill="#000000">datahelpers.h</text>
</a>
</g>
</g>
<!-- Node21&#45;&gt;Node22 -->
<g id="edge24" class="edge">
<title>Node21&#45;&gt;Node22</title>
<path fill="none" stroke="#191970" d="M693.6476,-110.4179C698.9513,-102.7415 706.7032,-91.5217 713.2165,-82.0945"/>
<polygon fill="#191970" stroke="#191970" points="716.1566,-83.9963 718.9614,-73.7795 710.3975,-80.0173 716.1566,-83.9963"/>
</g>
<!-- Node21&#45;&gt;Node24 -->
<g id="edge27" class="edge">
<title>Node21&#45;&gt;Node24</title>
<path fill="none" stroke="#191970" d="M710.1535,-111.6198C736.4204,-102.5338 779.924,-87.4854 810.6922,-76.8423"/>
<polygon fill="#191970" stroke="#191970" points="811.89,-80.1315 820.1964,-73.5547 809.6017,-73.5161 811.89,-80.1315"/>
</g>
<!-- Node25 -->
<g id="node26" class="node">
<title>Node25</title>
<g id="a_node26"><a xlink:href="executor_8h.html" target="_top" xlink:title="executor.h">
<polygon fill="none" stroke="#000000" points="473.299,-55.5 473.299,-73.5 535.4464,-73.5 535.4464,-55.5 473.299,-55.5"/>
<text text-anchor="middle" x="504.3727" y="-61.5" font-family="Helvetica,sans-Serif" font-size="10.00" fill="#000000">executor.h</text>
</a>
</g>
</g>
<!-- Node21&#45;&gt;Node25 -->
<g id="edge28" class="edge">
<title>Node21&#45;&gt;Node25</title>
<path fill="none" stroke="#191970" d="M664.5656,-112.6454C634.5259,-103.6171 581.2078,-87.5925 544.3845,-76.5254"/>
<polygon fill="#191970" stroke="#191970" points="545.0531,-73.0718 534.4689,-73.5453 543.0383,-79.7755 545.0531,-73.0718"/>
</g>
<!-- Node26 -->
<g id="node27" class="node">
<title>Node26</title>
<polygon fill="none" stroke="#bfbfbf" points="479.422,-.5 479.422,-18.5 539.3234,-18.5 539.3234,-.5 479.422,-.5"/>
<text text-anchor="middle" x="509.3727" y="-6.5" font-family="Helvetica,sans-Serif" font-size="10.00" fill="#000000">QProcess</text>
</g>
<!-- Node21&#45;&gt;Node26 -->
<g id="edge35" class="edge">
<title>Node21&#45;&gt;Node26</title>
<path fill="none" stroke="#191970" d="M669.8501,-110.3344C653.0777,-101.4313 627.1762,-87.3405 605.3727,-74 579.0539,-57.8967 549.742,-37.8861 530.5129,-24.4609"/>
<polygon fill="#191970" stroke="#191970" points="532.3838,-21.498 522.1875,-18.6196 528.3633,-27.2283 532.3838,-21.498"/>
</g>
<!-- Node27 -->
<g id="node28" class="node">
<title>Node27</title>
<polygon fill="none" stroke="#bfbfbf" points="563.4713,-.5 563.4713,-18.5 617.2741,-18.5 617.2741,-.5 563.4713,-.5"/>
<text text-anchor="middle" x="590.3727" y="-6.5" font-family="Helvetica,sans-Serif" font-size="10.00" fill="#000000">QQueue</text>
</g>
<!-- Node21&#45;&gt;Node27 -->
<g id="edge36" class="edge">
<title>Node21&#45;&gt;Node27</title>
<path fill="none" stroke="#191970" d="M668.5599,-110.3412C653.8677,-102.4101 633.7637,-89.7446 620.3727,-74 609.0085,-60.6384 601.0198,-42.2491 596.1592,-28.5238"/>
<polygon fill="#191970" stroke="#191970" points="599.3774,-27.1064 592.9269,-18.7015 592.7282,-29.2945 599.3774,-27.1064"/>
</g>
<!-- Node28 -->
<g id="node29" class="node">
<title>Node28</title>
<polygon fill="none" stroke="#bfbfbf" points="954.7497,-55.5 954.7497,-73.5 1007.9957,-73.5 1007.9957,-55.5 954.7497,-55.5"/>
<text text-anchor="middle" x="981.3727" y="-61.5" font-family="Helvetica,sans-Serif" font-size="10.00" fill="#000000">QDebug</text>
</g>
<!-- Node21&#45;&gt;Node28 -->
<g id="edge32" class="edge">
<title>Node21&#45;&gt;Node28</title>
<path fill="none" stroke="#191970" d="M710.4128,-115.5067C754.4036,-107.8341 853.372,-90.3414 936.3727,-74 939.1637,-73.4505 942.0493,-72.87 944.9492,-72.2777"/>
<polygon fill="#191970" stroke="#191970" points="945.6655,-75.7037 954.7468,-70.2467 944.2445,-68.8494 945.6655,-75.7037"/>
</g>
<!-- Node29 -->
<g id="node30" class="node">
<title>Node29</title>
<polygon fill="none" stroke="#bfbfbf" points="629.7028,-55.5 629.7028,-73.5 669.0426,-73.5 669.0426,-55.5 629.7028,-55.5"/>
<text text-anchor="middle" x="649.3727" y="-61.5" font-family="Helvetica,sans-Serif" font-size="10.00" fill="#000000">QList</text>
</g>
<!-- Node21&#45;&gt;Node29 -->
<g id="edge34" class="edge">
<title>Node21&#45;&gt;Node29</title>
<path fill="none" stroke="#191970" d="M681.0978,-110.4179C675.7941,-102.7415 668.0422,-91.5217 661.5289,-82.0945"/>
<polygon fill="#191970" stroke="#191970" points="664.3479,-80.0173 655.784,-73.7795 658.5888,-83.9963 664.3479,-80.0173"/>
</g>
<!-- Node22&#45;&gt;Node3 -->
<g id="edge26" class="edge">
<title>Node22&#45;&gt;Node3</title>
<path fill="none" stroke="#191970" d="M763.9455,-57.1655C768.4649,-56.3915 773.016,-55.6508 777.3727,-55 907.9339,-35.4981 1064.0809,-19.5212 1132.8666,-12.8531"/>
<polygon fill="#191970" stroke="#191970" points="1133.5205,-16.3064 1143.1389,-11.8637 1132.8493,-9.3386 1133.5205,-16.3064"/>
</g>
<!-- Node23 -->
<g id="node24" class="node">
<title>Node23</title>
<polygon fill="none" stroke="#bfbfbf" points="691.9943,-.5 691.9943,-18.5 758.7511,-18.5 758.7511,-.5 691.9943,-.5"/>
<text text-anchor="middle" x="725.3727" y="-6.5" font-family="Helvetica,sans-Serif" font-size="10.00" fill="#000000">QDateTime</text>
</g>
<!-- Node22&#45;&gt;Node23 -->
<g id="edge25" class="edge">
<title>Node22&#45;&gt;Node23</title>
<path fill="none" stroke="#191970" d="M725.3727,-55.4179C725.3727,-48.2164 725.3727,-37.8962 725.3727,-28.8632"/>
<polygon fill="#191970" stroke="#191970" points="728.8728,-28.7794 725.3727,-18.7795 721.8728,-28.7795 728.8728,-28.7794"/>
</g>
<!-- Node25&#45;&gt;Node16 -->
<g id="edge29" class="edge">
<title>Node25&#45;&gt;Node16</title>
<path fill="none" stroke="#191970" d="M473.1879,-58.6661C418.3991,-48.4165 305.1554,-27.2315 246.8385,-16.3218"/>
<polygon fill="#191970" stroke="#191970" points="247.4259,-12.8711 236.9528,-14.4725 246.1386,-19.7517 247.4259,-12.8711"/>
</g>
<!-- Node25&#45;&gt;Node26 -->
<g id="edge30" class="edge">
<title>Node25&#45;&gt;Node26</title>
<path fill="none" stroke="#191970" d="M505.1983,-55.4179C505.853,-48.2164 506.7912,-37.8962 507.6124,-28.8632"/>
<polygon fill="#191970" stroke="#191970" points="511.1093,-29.0553 508.5291,-18.7795 504.138,-28.4215 511.1093,-29.0553"/>
</g>
<!-- Node25&#45;&gt;Node27 -->
<g id="edge31" class="edge">
<title>Node25&#45;&gt;Node27</title>
<path fill="none" stroke="#191970" d="M518.5738,-55.4179C531.894,-46.8992 552.0377,-34.0166 567.6019,-24.0627"/>
<polygon fill="#191970" stroke="#191970" points="569.6117,-26.932 576.1504,-18.5956 565.8402,-21.0348 569.6117,-26.932"/>
</g>
<!-- Node30&#45;&gt;Node21 -->
<g id="edge39" class="edge">
<title>Node30&#45;&gt;Node21</title>
<path fill="none" stroke="#191970" d="M85.7505,-167.3288C90.3037,-166.4478 94.9467,-165.6357 99.3727,-165 309.491,-134.8234 564.926,-123.6823 654.4696,-120.5365"/>
<polygon fill="#191970" stroke="#191970" points="654.6784,-124.0315 664.5529,-120.1917 654.4391,-117.0356 654.6784,-124.0315"/>
</g>
<!-- Node31&#45;&gt;Node21 -->
<g id="edge41" class="edge">
<title>Node31&#45;&gt;Node21</title>
<path fill="none" stroke="#191970" d="M762.511,-165.4179C748.5713,-156.8992 727.4907,-144.0166 711.2026,-134.0627"/>
<polygon fill="#191970" stroke="#191970" points="712.6144,-130.8237 702.2564,-128.5956 708.9642,-136.7967 712.6144,-130.8237"/>
</g>
<!-- Node32&#45;&gt;Node28 -->
<g id="edge44" class="edge">
<title>Node32&#45;&gt;Node28</title>
<path fill="none" stroke="#191970" d="M985.547,-110.4179C984.8924,-103.2164 983.9542,-92.8962 983.133,-83.8632"/>
<polygon fill="#191970" stroke="#191970" points="986.6074,-83.4215 982.2163,-73.7795 979.6361,-84.0553 986.6074,-83.4215"/>
</g>
</g>
</svg>
        <g id="navigator" transform="translate(0 0)" fill="#404254">
                <rect fill="#f2f5e9" fill-opacity="0.5" stroke="#606060" stroke-width=".5" x="0" y="0" width="60" height="60"/>
                <use id="zoomplus" xlink:href="#zoomPlus" x="17" y="9" onmousedown="handleZoom(evt,'in')"/>
                <use id="zoomminus" xlink:href="#zoomMin" x="42" y="9" onmousedown="handleZoom(evt,'out')"/>
                <use id="reset" xlink:href="#resetDef" x="30" y="36" onmousedown="handleReset()"/>
                <g id="arrowUp" xlink:href="#dirArrow" transform="translate(30 24)" onmousedown="handlePan(0,-1)">
                  <use xlink:href="#rim" fill="#404040">
                        <set attributeName="fill" to="#808080" begin="arrowUp.mouseover" end="arrowUp.mouseout"/>
                  </use>
                  <path fill="none" stroke="white" stroke-width="1.5" d="M0,-3.0v7 M-2.5,-0.5L0,-3.0L2.5,-0.5"/>
                </g>
                <g id="arrowRight" xlink:href="#dirArrow" transform="rotate(90) translate(36 -43)" onmousedown="handlePan(1,0)">
                  <use xlink:href="#rim" fill="#404040">
                        <set attributeName="fill" to="#808080" begin="arrowRight.mouseover" end="arrowRight.mouseout"/>
                  </use>
                  <path fill="none" stroke="white" stroke-width="1.5" d="M0,-3.0v7 M-2.5,-0.5L0,-3.0L2.5,-0.5"/>
                </g>
                <g id="arrowDown" xlink:href="#dirArrow" transform="rotate(180) translate(-30 -48)" onmousedown="handlePan(0,1)">
                  <use xlink:href="#rim" fill="#404040">
                        <set attributeName="fill" to="#808080" begin="arrowDown.mouseover" end="arrowDown.mouseout"/>
                  </use>
                  <path fill="none" stroke="white" stroke-width="1.5" d="M0,-3.0v7 M-2.5,-0.5L0,-3.0L2.5,-0.5"/>
                </g>
                <g id="arrowLeft" xlink:href="#dirArrow" transform="rotate(270) translate(-36 17)" onmousedown="handlePan(-1,0)">
                  <use xlink:href="#rim" fill="#404040">
                        <set attributeName="fill" to="#808080" begin="arrowLeft.mouseover" end="arrowLeft.mouseout"/>
                  </use>
                  <path fill="none" stroke="white" stroke-width="1.5" d="M0,-3.0v7 M-2.5,-0.5L0,-3.0L2.5,-0.5"/>
                </g>
        </g>
        <svg viewBox="0 0 15 15" width="100%" height="30px" preserveAspectRatio="xMaxYMin meet">
         <g id="arrow_out" transform="scale(0.3 0.3)">
          <a xlink:href="util_8cpp__incl_org.svg" target="_base">
           <rect id="button" ry="5" rx="5" y="6" x="6" height="38" width="38"
                fill="#f2f5e9" fill-opacity="0.5" stroke="#606060" stroke-width="1.0"/>
           <path id="arrow"
             d="M 11.500037,31.436501 C 11.940474,20.09759 22.043105,11.32322 32.158766,21.979434 L 37.068811,17.246167 C 37.068811,17.246167 37.088388,32 37.088388,32 L 22.160133,31.978069 C 22.160133,31.978069 26.997745,27.140456 26.997745,27.140456 C 18.528582,18.264221 13.291696,25.230495 11.500037,31.436501 z"
             style="fill:#404040;"/>
          </a>
         </g>
        </svg>
</svg>
