<?xml version="1.0" encoding="UTF-8" standalone="no"?>
<!DOCTYPE svg PUBLIC "-//W3C//DTD SVG 1.1//EN"
 "http://www.w3.org/Graphics/SVG/1.1/DTD/svg11.dtd">
<!-- Generated by graphviz version 2.49.3 (0)
 -->
<!-- Title: src/util.h Pages: 1 -->
<svg width="1006pt" height="93pt"
 viewBox="0.00 0.00 1006.00 93.00" xmlns="http://www.w3.org/2000/svg" xmlns:xlink="http://www.w3.org/1999/xlink">
<g id="graph0" class="graph" transform="scale(1 1) rotate(0) translate(4 89)">
<title>src/util.h</title>
<!-- Node1 -->
<g id="node1" class="node">
<title>Node1</title>
<g id="a_node1"><a xlink:title=" ">
<polygon fill="#999999" stroke="#666666" points="550,-85 496,-85 496,-66 550,-66 550,-85"/>
<text text-anchor="middle" x="523" y="-73" font-family="Helvetica,sans-Serif" font-size="10.00">src/util.h</text>
</a>
</g>
</g>
<!-- Node2 -->
<g id="node2" class="node">
<title>Node2</title>
<g id="a_node2"><a xlink:href="configdialog_8cpp.html" target="_top" xlink:title=" ">
<polygon fill="white" stroke="#666666" points="104,-24.5 0,-24.5 0,-5.5 104,-5.5 104,-24.5"/>
<text text-anchor="middle" x="52" y="-12.5" font-family="Helvetica,sans-Serif" font-size="10.00">src/configdialog.cpp</text>
</a>
</g>
</g>
<!-- Node1&#45;&gt;Node2 -->
<g id="edge1" class="edge">
<title>Node1&#45;&gt;Node2</title>
<path fill="none" stroke="#63b8ff" d="M485.59,-71.92C413.25,-66.6 249.33,-52.96 113,-30 104.21,-28.52 94.8,-26.55 86.06,-24.56"/>
<polygon fill="#63b8ff" stroke="#63b8ff" points="485.76,-75.44 495.99,-72.67 486.27,-68.46 485.76,-75.44"/>
</g>
<!-- Node3 -->
<g id="node3" class="node">
<title>Node3</title>
<g id="a_node3"><a xlink:href="imitatepass_8cpp.html" target="_top" xlink:title=" ">
<polygon fill="white" stroke="#666666" points="224,-24.5 122,-24.5 122,-5.5 224,-5.5 224,-24.5"/>
<text text-anchor="middle" x="173" y="-12.5" font-family="Helvetica,sans-Serif" font-size="10.00">src/imitatepass.cpp</text>
</a>
</g>
</g>
<!-- Node1&#45;&gt;Node3 -->
<g id="edge2" class="edge">
<title>Node1&#45;&gt;Node3</title>
<path fill="none" stroke="#63b8ff" d="M485.65,-69.7C430.27,-62.38 323.21,-47.42 233,-30 224.7,-28.4 215.81,-26.45 207.49,-24.53"/>
<polygon fill="#63b8ff" stroke="#63b8ff" points="485.32,-73.19 495.69,-71.02 486.23,-66.25 485.32,-73.19"/>
</g>
<!-- Node4 -->
<g id="node4" class="node">
<title>Node4</title>
<g id="a_node4"><a xlink:href="mainwindow_8cpp.html" target="_top" xlink:title=" ">
<polygon fill="white" stroke="#666666" points="347.5,-24.5 242.5,-24.5 242.5,-5.5 347.5,-5.5 347.5,-24.5"/>
<text text-anchor="middle" x="295" y="-12.5" font-family="Helvetica,sans-Serif" font-size="10.00">src/mainwindow.cpp</text>
</a>
</g>
</g>
<!-- Node1&#45;&gt;Node4 -->
<g id="edge3" class="edge">
<title>Node1&#45;&gt;Node4</title>
<path fill="none" stroke="#63b8ff" d="M486.02,-65.01C442.33,-53.8 370.29,-35.32 328.28,-24.54"/>
<polygon fill="#63b8ff" stroke="#63b8ff" points="485.39,-68.46 495.95,-67.56 487.13,-61.68 485.39,-68.46"/>
</g>
<!-- Node5 -->
<g id="node5" class="node">
<title>Node5</title>
<g id="a_node5"><a xlink:href="qtpass_8cpp.html" target="_top" xlink:title=" ">
<polygon fill="white" stroke="#666666" points="446.5,-24.5 365.5,-24.5 365.5,-5.5 446.5,-5.5 446.5,-24.5"/>
<text text-anchor="middle" x="406" y="-12.5" font-family="Helvetica,sans-Serif" font-size="10.00">src/qtpass.cpp</text>
</a>
</g>
</g>
<!-- Node1&#45;&gt;Node5 -->
<g id="edge4" class="edge">
<title>Node1&#45;&gt;Node5</title>
<path fill="none" stroke="#63b8ff" d="M496.96,-61.48C474.42,-50.21 442.45,-34.23 423.03,-24.52"/>
<polygon fill="#63b8ff" stroke="#63b8ff" points="495.48,-64.65 505.99,-65.99 498.61,-58.39 495.48,-64.65"/>
</g>
<!-- Node6 -->
<g id="node6" class="node">
<title>Node6</title>
<g id="a_node6"><a xlink:href="qtpasssettings_8cpp.html" target="_top" xlink:title=" ">
<polygon fill="white" stroke="#666666" points="581,-24.5 465,-24.5 465,-5.5 581,-5.5 581,-24.5"/>
<text text-anchor="middle" x="523" y="-12.5" font-family="Helvetica,sans-Serif" font-size="10.00">src/qtpasssettings.cpp</text>
</a>
</g>
</g>
<!-- Node1&#45;&gt;Node6 -->
<g id="edge5" class="edge">
<title>Node1&#45;&gt;Node6</title>
<path fill="none" stroke="#63b8ff" d="M523,-55.66C523,-45.24 523,-32.8 523,-24.67"/>
<polygon fill="#63b8ff" stroke="#63b8ff" points="519.5,-55.87 523,-65.87 526.5,-55.87 519.5,-55.87"/>
</g>
<!-- Node7 -->
<g id="node7" class="node">
<title>Node7</title>
<g id="a_node7"><a xlink:href="realpass_8cpp.html" target="_top" xlink:title=" ">
<polygon fill="white" stroke="#666666" points="687.5,-24.5 598.5,-24.5 598.5,-5.5 687.5,-5.5 687.5,-24.5"/>
<text text-anchor="middle" x="643" y="-12.5" font-family="Helvetica,sans-Serif" font-size="10.00">src/realpass.cpp</text>
</a>
</g>
</g>
<!-- Node1&#45;&gt;Node7 -->
<g id="edge6" class="edge">
<title>Node1&#45;&gt;Node7</title>
<path fill="none" stroke="#63b8ff" d="M549.7,-61.48C572.83,-50.21 605.61,-34.23 625.53,-24.52"/>
<polygon fill="#63b8ff" stroke="#63b8ff" points="547.9,-58.47 540.45,-65.99 550.97,-64.76 547.9,-58.47"/>
</g>
<!-- Node8 -->
<g id="node8" class="node">
<title>Node8</title>
<g id="a_node8"><a xlink:href="storemodel_8cpp.html" target="_top" xlink:title=" ">
<polygon fill="white" stroke="#666666" points="806,-24.5 706,-24.5 706,-5.5 806,-5.5 806,-24.5"/>
<text text-anchor="middle" x="756" y="-12.5" font-family="Helvetica,sans-Serif" font-size="10.00">src/storemodel.cpp</text>
</a>
</g>
</g>
<!-- Node1&#45;&gt;Node8 -->
<g id="edge7" class="edge">
<title>Node1&#45;&gt;Node8</title>
<path fill="none" stroke="#63b8ff" d="M560.02,-65.21C604.53,-54.03 678.63,-35.43 721.83,-24.58"/>
<polygon fill="#63b8ff" stroke="#63b8ff" points="559.03,-61.84 550.18,-67.67 560.74,-68.63 559.03,-61.84"/>
</g>
<!-- Node9 -->
<g id="node9" class="node">
<title>Node9</title>
<g id="a_node9"><a xlink:href="util_8cpp.html" target="_top" xlink:title=" ">
<polygon fill="white" stroke="#666666" points="889.5,-24.5 824.5,-24.5 824.5,-5.5 889.5,-5.5 889.5,-24.5"/>
<text text-anchor="middle" x="857" y="-12.5" font-family="Helvetica,sans-Serif" font-size="10.00">src/util.cpp</text>
</a>
</g>
</g>
<!-- Node1&#45;&gt;Node9 -->
<g id="edge8" class="edge">
<title>Node1&#45;&gt;Node9</title>
<path fill="none" stroke="#63b8ff" d="M560.41,-70.86C616.35,-64.96 724.84,-51.73 815,-30 821.13,-28.52 827.64,-26.56 833.66,-24.56"/>
<polygon fill="#63b8ff" stroke="#63b8ff" points="559.86,-67.4 550.27,-71.91 560.58,-74.37 559.86,-67.4"/>
</g>
<!-- Node10 -->
<g id="node10" class="node">
<title>Node10</title>
<g id="a_node10"><a xlink:href="tst__util_8cpp.html" target="_top" xlink:title=" ">
<polygon fill="white" stroke="#666666" points="998,-30 908,-30 908,0 998,0 998,-30"/>
<text text-anchor="start" x="916" y="-18" font-family="Helvetica,sans-Serif" font-size="10.00">tests/auto/util/tst</text>
<text text-anchor="middle" x="953" y="-7" font-family="Helvetica,sans-Serif" font-size="10.00">_util.cpp</text>
</a>
</g>
</g>
<!-- Node1&#45;&gt;Node10 -->
<g id="edge9" class="edge">
<title>Node1&#45;&gt;Node10</title>
<path fill="none" stroke="#63b8ff" d="M560.27,-71.78C628.1,-66.45 776.05,-53.1 899,-30 901.86,-29.46 904.78,-28.86 907.73,-28.21"/>
<polygon fill="#63b8ff" stroke="#63b8ff" points="559.79,-68.3 550.09,-72.56 560.33,-75.28 559.79,-68.3"/>
</g>
</g>
</svg>
